<?xml version="1.0" standalone="no"?>
<!DOCTYPE svg PUBLIC "-//W3C//DTD SVG 1.1//EN" "http://www.w3.org/Graphics/SVG/1.1/DTD/svg11.dtd" >
<svg xmlns="http://www.w3.org/2000/svg">
<metadata></metadata>
<defs>
<font id="verbcompextralight" horiz-adv-x="835" >
<font-face units-per-em="2048" ascent="1638" descent="-410" />
<missing-glyph horiz-adv-x="425" />
<glyph unicode="ff" horiz-adv-x="1007" d="M70 1001v74h102v209q0 118 38 163.5t101 45.5q74 0 213 -61l-37 -66q-116 49 -163 49q-70 0 -70 -121v-219h205v-74h-205v-1001h-82v1001h-102zM573 1001v74h103v209q0 118 38 163.5t101 45.5q74 0 213 -61l-37 -66q-115 49 -164 49q-69 0 -69 -121v-219h205v-74h-205 v-1001h-82v1001h-103z" />
<glyph unicode="fi" horiz-adv-x="870" d="M70 1001v74h102v209q0 209 137 209q60 0 174 -47l-28 -68q-93 37 -131 37q-70 0 -70 -121v-219h205v-74h-205v-1001h-82v1001h-102zM639 1327v160h94v-160h-94zM645 0v1075h82v-1075h-82z" />
<glyph unicode="fl" horiz-adv-x="888" d="M70 1001v74h102v209q0 209 137 209q60 0 174 -47l-28 -68q-93 37 -131 37q-70 0 -70 -121v-219h205v-74h-205v-1001h-82v1001h-102zM655 0v1493h82v-1493h-82z" />
<glyph unicode="ffi" horiz-adv-x="1374" d="M70 1001v74h102v209q0 118 38 163.5t101 45.5q74 0 213 -61l-37 -66q-116 49 -163 49q-70 0 -70 -121v-219h205v-74h-205v-1001h-82v1001h-102zM573 1001v74h103v209q0 209 137 209q60 0 174 -47l-29 -68q-92 37 -131 37q-69 0 -69 -121v-219h205v-74h-205v-1001h-82 v1001h-103zM1143 1327v160h94v-160h-94zM1149 0v1075h82v-1075h-82z" />
<glyph unicode="ffl" horiz-adv-x="1392" d="M70 1001v74h102v209q0 118 38 163.5t101 45.5q74 0 213 -61l-37 -66q-116 49 -163 49q-70 0 -70 -121v-219h205v-74h-205v-1001h-82v1001h-102zM573 1001v74h103v209q0 209 137 209q60 0 174 -47l-29 -68q-92 37 -131 37q-69 0 -69 -121v-219h205v-74h-205v-1001h-82 v1001h-103zM1159 0v1493h82v-1493h-82z" />
<glyph unicode="ffk" horiz-adv-x="1753" d="M70 1001v74h102v209q0 118 38 163.5t101 45.5q74 0 213 -61l-37 -66q-116 49 -163 49q-70 0 -70 -121v-219h205v-74h-205v-1001h-82v1001h-102zM573 1001v74h103v209q0 209 137 209q60 0 174 -47l-29 -68q-92 37 -131 37q-69 0 -69 -121v-219h205v-74h-205v-1001h-82 v1001h-103zM1149 0v1493h82v-1036l340 618h94l-254 -442l299 -633h-90l-256 553l-133 -229v-324h-82z" />
<glyph unicode="ffj" horiz-adv-x="1370" d="M70 1001v74h102v209q0 118 38 163.5t101 45.5q74 0 213 -61l-37 -66q-116 49 -163 49q-70 0 -70 -121v-219h205v-74h-205v-1001h-82v1001h-102zM573 1001v74h103v209q0 209 137 209q60 0 174 -47l-29 -68q-92 37 -131 37q-69 0 -69 -121v-219h205v-74h-205v-1001h-82 v1001h-103zM983 -346q27 13 45 21.5t35.5 20t28.5 17.5t21 18.5t15.5 19t10 23t6 25.5t3 32t1.5 37v46v1161h82v-1161v-54.5t-1.5 -46t-4.5 -41t-8 -34t-13 -32t-20 -26.5t-28 -26t-37.5 -23.5t-47.5 -24.5t-59 -24zM1143 1327v160h94v-160h-94z" />
<glyph unicode="fft" horiz-adv-x="1544" d="M70 1001v74h102v209q0 118 38 163.5t101 45.5q74 0 213 -61l-37 -66q-116 49 -163 49q-70 0 -70 -121v-219h205v-74h-205v-1001h-82v1001h-102zM573 1001v74h103v209q0 118 38 163.5t101 45.5q74 0 213 -61l-37 -66q-115 49 -164 49q-69 0 -69 -121v-219h205v-74h-205 v-1001h-82v1001h-103zM1071 1001v74h103v271l81 40v-311h205v-74h-205v-825q0 -121 72 -121q53 0 143 56l39 -66q-115 -68 -196 -68q-139 0 -139 209v815h-103z" />
<glyph unicode="fh" horiz-adv-x="1380" d="M70 1001v74h102v209q0 209 137 209q60 0 174 -47l-28 -68q-93 37 -131 37q-70 0 -70 -121v-219h205v-74h-205v-1001h-82v1001h-102zM645 0v1493h82v-586q33 36 62 63t72 59.5t91.5 50.5t96.5 18q69 0 114 -39t62.5 -96t17.5 -129v-834h-82v825q0 87 -31 141t-100 54 q-44 0 -92 -22t-90 -58.5t-69 -65t-52 -59.5v-815h-82z" />
<glyph unicode="fj" horiz-adv-x="866" d="M70 1001v74h102v209q0 209 137 209q60 0 174 -47l-28 -68q-93 37 -131 37q-70 0 -70 -121v-219h205v-74h-205v-1001h-82v1001h-102zM479 -346q27 13 45 21.5t35.5 20t28.5 17.5t21 18.5t15.5 19t10 23t6 25.5t3 32t1.5 37v46v1161h82v-1161v-54.5t-1.5 -46t-4.5 -41 t-8 -34t-13 -32t-20 -26.5t-28 -26t-37.5 -23.5t-47.5 -24.5t-59 -24zM639 1327v160h94v-160h-94z" />
<glyph unicode="fk" horiz-adv-x="1249" d="M70 1001v74h102v209q0 209 137 209q60 0 174 -47l-28 -68q-93 37 -131 37q-70 0 -70 -121v-219h205v-74h-205v-1001h-82v1001h-102zM645 0v1493h82v-1036l340 618h94l-254 -442l299 -633h-90l-256 553l-133 -229v-324h-82z" />
<glyph unicode="ft" horiz-adv-x="1040" d="M70 1001v74h102v209q0 118 38 163.5t101 45.5q74 0 213 -61l-37 -66q-116 49 -163 49q-70 0 -70 -121v-219h205v-74h-205v-1001h-82v1001h-102zM567 1001v74h103v271l82 40v-311h204v-74h-204v-825q0 -121 71 -121q54 0 144 56l39 -66q-115 -68 -197 -68q-139 0 -139 209 v815h-103z" />
<glyph unicode="ffh" horiz-adv-x="1884" d="M70 1001v74h102v209q0 118 38 163.5t101 45.5q74 0 213 -61l-37 -66q-116 49 -163 49q-70 0 -70 -121v-219h205v-74h-205v-1001h-82v1001h-102zM573 1001v74h103v209q0 209 137 209q60 0 174 -47l-29 -68q-92 37 -131 37q-69 0 -69 -121v-219h205v-74h-205v-1001h-82 v1001h-103zM1149 0v1493h82v-586q34 37 62.5 63.5t71.5 59t91 50.5t96 18q101 0 148 -75.5t47 -188.5v-834h-82v825q0 87 -31 141t-100 54q-44 0 -92 -22t-90 -58.5t-69 -65t-52 -59.5v-815h-82z" />
<glyph unicode="ffb" horiz-adv-x="1878" d="M70 1001v74h102v209q0 118 38 163.5t101 45.5q74 0 213 -61l-37 -66q-116 49 -163 49q-70 0 -70 -121v-219h205v-74h-205v-1001h-82v1001h-102zM573 1001v74h103v209q0 209 137 209q60 0 174 -47l-29 -68q-92 37 -131 37q-69 0 -69 -121v-219h205v-74h-205v-1001h-82 v1001h-103zM1149 0v1493h82v-571q129 176 266 176q46 0 86.5 -18.5t76.5 -61t61.5 -106.5t40 -159.5t14.5 -215.5q0 -288 -78 -424t-201 -136q-138 0 -266 175v-152h-82zM1231 250q47 -81 116.5 -138t139.5 -57q100 0 151.5 127.5t51.5 354.5q0 228 -51 355.5t-152 127.5 q-70 0 -139.5 -58t-116.5 -139v-573z" />
<glyph unicode="fb" horiz-adv-x="1374" d="M70 1001v74h102v209q0 209 137 209q60 0 174 -47l-28 -68q-93 37 -131 37q-70 0 -70 -121v-219h205v-74h-205v-1001h-82v1001h-102zM645 0v1493h82v-571q129 176 266 176q46 0 86.5 -18.5t76.5 -61t61.5 -106.5t40 -159.5t14.5 -215.5q0 -288 -78 -424t-201 -136 q-138 0 -266 175v-152h-82zM727 250q47 -81 116.5 -138t139.5 -57q100 0 151.5 127.5t51.5 354.5q0 228 -51 355.5t-152 127.5q-70 0 -139.5 -58t-116.5 -139v-573z" />
<glyph unicode=" "  horiz-adv-x="425" />
<glyph unicode="&#x09;" horiz-adv-x="425" />
<glyph unicode="&#xa0;" horiz-adv-x="425" />
<glyph unicode="!" horiz-adv-x="438" d="M166 0v186h106v-186h-106zM168 1434h100l-22 -1028h-56z" />
<glyph unicode="&#x22;" horiz-adv-x="600" d="M125 1434h96l-18 -512h-60zM379 1434h96l-18 -512h-60z" />
<glyph unicode="#" horiz-adv-x="1095" d="M92 397v74h209l51 490h-200v73h208l43 400h74l-43 -400h295l43 400h72l-43 -400h203v-73h-211l-52 -490h201v-74h-209l-43 -397h-72l44 397h-297l-43 -397h-72l43 397h-201zM373 471h297l51 490h-295z" />
<glyph unicode="$" horiz-adv-x="897" d="M98 119l49 69q50 -35 84.5 -56t85.5 -42.5t97 -28.5v652q-57 37 -89.5 60.5t-77 64t-68 78.5t-41 92.5t-17.5 117.5q0 150 83.5 235t209.5 93v186h69v-186q141 -17 273 -102l-49 -70q-130 75 -224 88v-594q55 -37 87.5 -61t81 -69.5t75.5 -88t47.5 -104.5t20.5 -131 q0 -83 -26.5 -149t-72 -106t-99.5 -62t-114 -25v-185h-69v187q-157 18 -316 137zM209 1130q0 -101 50 -169t155 -140v551q-89 -8 -147 -69t-58 -173zM483 59q96 8 161 76t65 187q0 77 -31.5 142.5t-76.5 109t-118 94.5v-609z" />
<glyph unicode="%" horiz-adv-x="1425" d="M88 1077q0 174 61.5 276.5t186.5 102.5q124 0 185 -102.5t61 -276.5q0 -176 -61.5 -282.5t-184.5 -106.5q-84 0 -141 52t-82 137.5t-25 199.5zM168 1077q0 -89 15 -157.5t54 -114t99 -45.5q58 0 96 45.5t53 114t15 157.5q0 90 -15 156t-53 108.5t-96 42.5q-88 0 -128 -84 t-40 -223zM414 0l518 1434h78l-518 -1434h-78zM844 367q0 174 61.5 276t186.5 102q124 0 184.5 -102t60.5 -276q0 -176 -61 -283t-184 -107q-84 0 -141 52.5t-82 138t-25 199.5zM924 367q0 -90 15 -158t54 -114t99 -46q44 0 76.5 25.5t51 71t27 100.5t8.5 121q0 139 -39 223 t-124 84q-88 0 -128 -84t-40 -223z" />
<glyph unicode="&#x26;" horiz-adv-x="1009" d="M133 334q0 67 16.5 129.5t49.5 120.5t64 100t79 98q-65 97 -101 184.5t-36 196.5q0 77 21.5 136t56.5 92t75 49t82 16q93 0 154 -71.5t61 -190.5q0 -59 -15.5 -115t-48.5 -111.5t-61.5 -93.5t-76.5 -96l280 -418q69 185 86 396h86q-24 -267 -119 -477l189 -279h-107 l-127 188q-127 -211 -305 -211q-129 0 -216 99t-87 258zM219 354q0 -45 11 -93t34.5 -95.5t67.5 -78t102 -30.5q152 0 256 207l-299 445q-83 -98 -127.5 -180.5t-44.5 -174.5zM291 1163q0 -144 112 -311q81 96 123.5 172.5t42.5 163.5q0 76 -33 132t-100 56 q-68 0 -106.5 -60t-38.5 -153z" />
<glyph unicode="'" horiz-adv-x="346" d="M125 1434h96l-18 -512h-60z" />
<glyph unicode="(" horiz-adv-x="475" d="M158 20v1385q0 50 1.5 76t8 60t20 53t38.5 42.5t62 42t91 39.5l29 -76q-33 -16 -54 -26.5t-40.5 -24t-29.5 -21.5t-19 -25t-12.5 -27t-6 -35.5t-2.5 -42v-54.5v-1347v-54.5t2.5 -42t6 -35.5t12.5 -27t19 -25t29.5 -21.5t40.5 -24t54 -26.5l-29 -76q-54 21 -91 39.5 t-62 42t-38.5 42.5t-20 53t-8 60t-1.5 76z" />
<glyph unicode=")" horiz-adv-x="475" d="M68 -217q26 13 44.5 21.5t35.5 20t27.5 17.5t20.5 18.5t15 18.5t9.5 22.5t6 25t3 31.5t1.5 36v45v1347v45t-1.5 36t-3 31.5t-6 25t-9.5 22.5t-15 18.5t-20.5 18.5t-27.5 17.5t-35.5 20t-44.5 21.5l28 76q54 -21 91 -39.5t62 -42t38.5 -42.5t20 -53t8 -60t1.5 -76v-1385 q0 -50 -1.5 -76t-8 -60t-20 -53t-38.5 -42.5t-62 -42t-91 -39.5z" />
<glyph unicode="*" horiz-adv-x="851" d="M123 958l254 132l-252 133l39 69l237 -162l-16 287h82l-14 -284l235 159l39 -73l-254 -129l254 -134l-41 -69l-233 160l14 -287h-82l16 287l-237 -160z" />
<glyph unicode="+" horiz-adv-x="860" d="M80 643v78h311v352h74v-352h313v-78h-313v-350h-74v350h-311z" />
<glyph unicode="," horiz-adv-x="376" d="M123 -201l59 201h-49v186h103l16 -186l-90 -231z" />
<glyph unicode="-" horiz-adv-x="651" d="M135 543v82h381v-82h-381z" />
<glyph unicode="." horiz-adv-x="372" d="M133 0v186h107v-186h-107z" />
<glyph unicode="/" horiz-adv-x="626" d="M43 -184l469 1802h74l-469 -1802h-74z" />
<glyph unicode="0" horiz-adv-x="954" d="M123 717q0 739 354 739t354 -739q0 -740 -354 -740t-354 740zM211 717q0 -660 266 -660t266 660q0 659 -266 659t-266 -659z" />
<glyph unicode="1" horiz-adv-x="548" d="M61 1262l226 172h75v-1434h-86v1327l-170 -131z" />
<glyph unicode="2" horiz-adv-x="845" d="M100 0v94q0 69 9.5 129.5t30 111.5t40.5 90t54 81.5t57.5 68t64 67t60.5 63.5q223 243 223 444q0 104 -59 164.5t-152 60.5q-120 0 -256 -106l-45 67q155 121 305 121q127 0 211 -81t84 -228q0 -36 -6.5 -73.5t-14 -68t-26.5 -68.5t-30 -62t-39.5 -63t-40.5 -56.5 t-47 -58t-44.5 -51.5t-48 -53t-43.5 -48q-56 -61 -86.5 -101t-59 -95t-40 -118.5t-11.5 -148.5h539v-82h-629z" />
<glyph unicode="3" horiz-adv-x="854" d="M82 86l49 70q22 -18 53.5 -37t89 -39.5t109.5 -20.5q117 0 193.5 89.5t76.5 238.5q0 92 -32.5 165t-84 115t-109.5 63.5t-116 21.5h-24v86h30q116 0 204.5 87t88.5 226q0 108 -56 165.5t-151 57.5q-120 0 -231 -92l-45 59q135 115 287 115q132 0 207 -87t75 -214 q0 -68 -22 -133t-77 -128.5t-138 -100.5q125 -35 203.5 -145t78.5 -265q0 -79 -22 -150.5t-64 -129t-111 -92t-155 -34.5q-93 0 -176.5 35t-130.5 74z" />
<glyph unicode="4" horiz-adv-x="894" d="M72 344v78l481 1012h111v-1008h151v-82h-151v-344h-86v344h-506zM156 426h422v887z" />
<glyph unicode="5" horiz-adv-x="841" d="M100 104l41 74q1 -1 11 -9l17.5 -14t21.5 -16.5t26.5 -18.5t29.5 -18t33.5 -17t34.5 -13t37 -9.5t37 -3.5q105 0 181.5 107.5t76.5 275.5q0 102 -28.5 185t-85.5 133.5t-134 50.5q-96 0 -215 -96l-45 20l54 699h505v-82h-436l-31 -521q85 62 183 62q145 0 234 -130.5 t89 -322.5q0 -120 -37 -223.5t-116 -171.5t-187 -68q-149 0 -297 127z" />
<glyph unicode="6" horiz-adv-x="899" d="M119 567q-1 175 26.5 323t74.5 251t110 175t133.5 106t144.5 34q32 0 63 -5.5t47 -10.5l15 -6l-20 -78q-46 18 -101 18q-54 0 -106 -24t-100.5 -76t-87.5 -126.5t-67 -184t-38 -240.5q15 29 36 57t54.5 60t81 51.5t100.5 19.5q99 0 171.5 -65t107.5 -167t35 -224 q0 -128 -39 -236t-115.5 -175t-175.5 -67q-70 0 -128.5 34t-98.5 91t-68 133.5t-41 160t-14 171.5zM207 567q0 -132 27 -244t88 -188t147 -76q77 0 134 59.5t83.5 148t26.5 190.5q0 68 -13.5 132t-40.5 119t-73.5 88t-106.5 33q-68 0 -128 -42t-94.5 -96.5t-49.5 -110.5v-13 z" />
<glyph unicode="7" horiz-adv-x="729" d="M63 1352v82h615v-66q-15 -27 -39.5 -76.5t-87 -202.5t-110.5 -306.5t-87 -370t-39 -412.5h-94q0 174 35 373.5t78.5 348t103 305t86.5 216.5t51 109h-512z" />
<glyph unicode="8" horiz-adv-x="917" d="M111 340q0 264 268 430q-211 142 -211 369q0 139 84 228t207 89t207 -89t84 -228q0 -226 -213 -369q270 -167 270 -430q0 -169 -99.5 -266t-248.5 -97t-248.5 97t-99.5 266zM199 342q0 -133 74.5 -208t185.5 -75t185.5 75t74.5 208q0 71 -22.5 131.5t-64.5 107.5t-81 78 t-92 64q-53 -33 -93 -64.5t-81 -78t-63.5 -107t-22.5 -131.5zM256 1128q0 -189 203 -311q203 122 203 311q0 104 -57.5 175t-145.5 71t-145.5 -71t-57.5 -175z" />
<glyph unicode="9" horiz-adv-x="899" d="M100 979q0 128 39 236t115.5 174.5t175.5 66.5q70 0 128.5 -34t98.5 -91t68 -133.5t41 -160t14 -171.5q1 -175 -26.5 -323t-74.5 -251t-110 -175t-133.5 -106t-144.5 -34q-32 0 -63.5 5.5t-46.5 11.5l-15 6l20 78q46 -19 101 -19q67 0 131 39t119.5 115.5t95.5 204.5 t53 291q-15 -29 -36.5 -57t-55 -59.5t-80.5 -51t-100 -19.5q-99 0 -171.5 65.5t-107.5 167.5t-35 224zM186 977q0 -68 13.5 -132t40.5 -119t73.5 -88.5t106.5 -33.5q52 0 99 24.5t81 62.5t57 79.5t35 81.5v14q0 97 -16 186t-47 162t-82 116.5t-115 43.5q-78 0 -135.5 -59 t-84 -147.5t-26.5 -190.5z" />
<glyph unicode=":" horiz-adv-x="376" d="M135 0v186h107v-186h-107zM135 733v187h107v-187h-107z" />
<glyph unicode=";" horiz-adv-x="401" d="M135 -201l60 201h-50v186h103l16 -186l-90 -231zM145 733v187h107v-187h-107z" />
<glyph unicode="&#x3c;" horiz-adv-x="860" d="M61 645v78l697 436v-102l-613 -373l613 -373v-102z" />
<glyph unicode="=" horiz-adv-x="860" d="M80 467v78h698v-78h-698zM80 823v78h698v-78h-698z" />
<glyph unicode="&#x3e;" horiz-adv-x="860" d="M102 209v102l613 373l-613 373v102l697 -436v-78z" />
<glyph unicode="?" horiz-adv-x="733" d="M72 1331q139 125 293 125q55 0 105 -17.5t91 -52t65.5 -91t24.5 -128.5q0 -247 -295 -395l-12 -366h-68l-12 411q301 131 301 346q0 100 -59 155.5t-148 55.5q-63 0 -118 -26t-117 -72zM258 0v186h104v-186h-104z" />
<glyph unicode="@" horiz-adv-x="1427" d="M109 516q0 187 43 349t121.5 282t196 189t259.5 69q181 0 313 -112t199 -310.5t68 -462.5q0 -164 -30.5 -289t-90 -195.5t-141.5 -70.5q-46 0 -80 22t-51.5 60t-25.5 75t-11 79q-110 -152 -228 -152q-37 0 -72 14t-68.5 45.5t-54 92t-20.5 143.5q0 155 65.5 233t157.5 78 q25 0 58.5 -7t58 -15t59 -20t44.5 -15v152q0 105 -30 153.5t-106 48.5q-88 0 -225 -82l-39 70q143 90 273 90q204 0 204 -264v-483q0 -31 0.5 -50t3 -52t8.5 -54t16 -42.5t26.5 -32.5t38.5 -11q31 0 60.5 23t58 73.5t46 149t17.5 233.5q0 174 -32 320t-93 255.5t-159 170.5 t-222 61q-128 0 -232 -65.5t-170 -178t-101.5 -258.5t-35.5 -311q0 -223 61 -404.5t178.5 -290t270.5 -108.5q70 0 134 22.5t93 44.5l29 23l45 -57q-4 -5 -12.5 -12t-38 -26.5t-61.5 -34t-83 -26.5t-104 -12q-176 0 -311.5 118.5t-206.5 318.5t-71 446zM512 342 q0 -108 44 -161.5t110 -53.5q63 0 113 44t100 124v240q-8 2 -37 11t-50 15t-50.5 11.5t-53.5 5.5q-92 0 -134 -67.5t-42 -168.5z" />
<glyph unicode="A" horiz-adv-x="985" d="M61 0l385 1434h93l385 -1434h-95l-102 395h-469l-102 -395h-95zM279 477h426l-213 826z" />
<glyph unicode="B" horiz-adv-x="985" d="M170 0v1434h281q175 0 271.5 -92t96.5 -259q0 -74 -21 -136t-54.5 -100t-68.5 -60.5t-69 -28.5q33 -6 66 -19.5t70.5 -42.5t65.5 -69t47 -104t19 -142q0 -180 -92.5 -280.5t-263.5 -100.5h-348zM256 82h262q134 0 202 85.5t68 223.5q0 157 -86 239.5t-245 82.5h-201v-631 zM256 795h190q130 0 209.5 71t79.5 211q0 125 -69.5 200t-208.5 75h-201v-557z" />
<glyph unicode="C" horiz-adv-x="937" d="M119 717q0 153 20 277t54.5 209t82.5 142.5t103 84t117 26.5q51 0 100.5 -17t98 -52t83 -65.5t82.5 -78.5l-59 -53q-37 36 -50.5 49t-52.5 46t-64.5 47.5t-62 28t-69.5 13.5q-131 0 -212 -174.5t-81 -482.5t81 -483t212 -175q39 0 79.5 16t80 46t67 54.5t63.5 59.5l3 3 l2.5 2.5l3 3l2.5 2.5l57 -56q-48 -48 -82.5 -78.5t-83 -65.5t-98 -52t-100.5 -17q-78 0 -145 43t-119.5 130t-82.5 232t-30 335z" />
<glyph unicode="D" horiz-adv-x="1024" d="M170 0v1434h223q512 0 512 -717t-512 -717h-223zM256 82h135q220 0 322 156t102 479t-102 479t-322 156h-135v-1270z" />
<glyph unicode="E" horiz-adv-x="874" d="M170 0v1434h596v-82h-510v-594h424v-82h-424v-594h518v-82h-604z" />
<glyph unicode="F" horiz-adv-x="831" d="M170 0v1434h596v-82h-510v-594h408v-82h-408v-676h-86z" />
<glyph unicode="G" horiz-adv-x="1026" d="M119 717q0 153 20.5 277.5t55.5 209.5t83.5 142.5t103.5 83.5t116 26q54 0 107.5 -19.5t103 -56.5t86 -71.5t79.5 -81.5l-59 -58q-91 93 -133 127q-99 78 -180 78q-131 0 -212 -174.5t-81 -482.5q0 -305 81.5 -481.5t211.5 -176.5q136 0 307 236v379h-287v82h371v-756 h-84v178q-76 -91 -151.5 -146t-161.5 -55q-76 0 -142.5 43t-119.5 129.5t-84 232t-31 335.5z" />
<glyph unicode="H" horiz-adv-x="1040" d="M170 0v1434h86v-641h528v641h86v-1434h-86v711h-528v-711h-86z" />
<glyph unicode="I" horiz-adv-x="425" d="M170 0v1434h86v-1434h-86z" />
<glyph unicode="J" horiz-adv-x="425" d="M4 -188q34 16 55 26.5t40.5 24t30 21.5t19.5 25t12.5 27t6 35.5t2.5 42v54.5v1366h86v-1366v-54.5t-1.5 -46t-4.5 -41t-8.5 -34t-13.5 -32t-20 -26.5t-28 -26t-37.5 -23.5t-47.5 -24.5t-60 -24z" />
<glyph unicode="K" horiz-adv-x="944" d="M170 0v1434h86v-850l492 850h102l-406 -689l455 -745h-106l-398 664l-139 -238v-426h-86z" />
<glyph unicode="L" horiz-adv-x="800" d="M170 0v1434h86v-1352h494v-82h-580z" />
<glyph unicode="M" horiz-adv-x="1224" d="M170 0v1434h96l344 -1051l348 1051h97v-1434h-86v1223l-326 -983h-63l-324 983v-1223h-86z" />
<glyph unicode="N" horiz-adv-x="1062" d="M170 0v1434h90l547 -1248v1248h86v-1434h-90l-547 1247v-1247h-86z" />
<glyph unicode="O" horiz-adv-x="1069" d="M119 717q0 739 416 739q415 0 415 -739q0 -740 -415 -740q-416 0 -416 740zM209 717q0 -94 6.5 -174t20.5 -156t39 -134.5t60.5 -102.5t86 -67.5t113.5 -23.5q75 0 132.5 34.5t93.5 93t58.5 144t31.5 179t9 207.5q0 94 -6.5 174t-20.5 156t-39 134t-60 102.5t-85.5 67.5 t-113.5 23t-113.5 -23.5t-86 -67.5t-60.5 -102t-39 -134t-20.5 -156t-6.5 -174z" />
<glyph unicode="P" horiz-adv-x="944" d="M170 0v1434h289q88 0 156 -20t124.5 -66.5t86.5 -131t30 -204.5t-30 -204.5t-86.5 -131t-124.5 -66.5t-156 -20h-203v-590h-86zM256 672h209q138 0 219.5 80.5t81.5 259.5t-81.5 259.5t-219.5 80.5h-209v-680z" />
<glyph unicode="Q" horiz-adv-x="1069" d="M119 717q0 739 416 739q415 0 415 -739q0 -657 -329 -729l182 -215l-64 -62l-204 266q-416 0 -416 740zM209 717q0 -94 6.5 -174t20.5 -156t39 -134.5t60.5 -102.5t86 -67.5t113.5 -23.5q75 0 132.5 34.5t93.5 93t58.5 144t31.5 179t9 207.5q0 94 -6.5 174t-20.5 156 t-39 134t-60 102.5t-85.5 67.5t-113.5 23t-113.5 -23.5t-86 -67.5t-60.5 -102t-39 -134t-20.5 -156t-6.5 -174z" />
<glyph unicode="R" horiz-adv-x="999" d="M170 0v1434h322q85 0 153.5 -20t125 -64t87.5 -123t31 -189q0 -332 -285 -387l285 -651h-96l-275 643h-262v-643h-86zM256 725h233q143 0 226.5 76t83.5 237t-81.5 237.5t-219.5 76.5h-242v-627z" />
<glyph unicode="S" horiz-adv-x="882" d="M92 119l49 69q88 -60 162.5 -94.5t151.5 -34.5q103 0 175 68.5t72 194.5q0 55 -16 103.5t-39 84.5t-65 74.5t-78.5 64.5t-93.5 64q-41 27 -64.5 43t-59 43.5t-56.5 49.5t-45.5 54t-38 63.5t-22.5 73t-9 86.5q0 158 91.5 244t225.5 86q80 0 166 -30t152 -74l-50 -70 q-154 92 -266 92q-97 0 -164 -62t-67 -182q0 -60 17 -108t56 -90t78 -72t107 -74l49.5 -33t49 -34.5t50.5 -39.5t45.5 -42.5t43.5 -49.5t35.5 -54.5t29.5 -62.5t17 -69t7 -79q0 -87 -29 -155.5t-77 -108.5t-105.5 -60.5t-119.5 -20.5q-171 0 -365 142z" />
<glyph unicode="T" horiz-adv-x="821" d="M51 1352v82h719v-82h-317v-1352h-86v1352h-316z" />
<glyph unicode="U" horiz-adv-x="1030" d="M162 406v1028h86v-1022q0 -79 11.5 -138.5t39.5 -110t82 -77.5t133 -27t133 27t82.5 77.5t40.5 110t12 138.5v1022h86v-1028q0 -93 -18.5 -168t-58.5 -135t-110 -93t-167 -33t-167 33t-109.5 93t-57.5 135t-18 168z" />
<glyph unicode="V" horiz-adv-x="980" d="M59 1434h95l335 -1303l338 1303h95l-385 -1434h-93z" />
<glyph unicode="W" horiz-adv-x="1351" d="M78 1434h94l227 -1274l230 1274h92l229 -1274l228 1274h94l-273 -1434h-98l-227 1247l-225 -1247h-99z" />
<glyph unicode="X" horiz-adv-x="892" d="M59 0l344 711l-327 723h100l270 -631l273 631h98l-328 -723l345 -711h-103l-285 621l-282 -621h-105z" />
<glyph unicode="Y" horiz-adv-x="907" d="M49 1434h96l308 -779l309 779h96l-362 -871v-563h-86v567z" />
<glyph unicode="Z" horiz-adv-x="894" d="M80 0v78l616 1274h-585v82h686v-76l-621 -1276h629v-82h-725z" />
<glyph unicode="[" horiz-adv-x="518" d="M168 -295v2013h281v-82h-195v-1849h195v-82h-281z" />
<glyph unicode="\" horiz-adv-x="626" d="M41 1618h72l471 -1802h-74z" />
<glyph unicode="]" horiz-adv-x="518" d="M70 -213h194v1849h-194v82h280v-2013h-280v82z" />
<glyph unicode="^" horiz-adv-x="858" d="M119 739l268 695h84l268 -695h-92l-219 600l-219 -600h-90z" />
<glyph unicode="_" horiz-adv-x="1026" d="M133 -184h760v-74h-760v74z" />
<glyph unicode="`" horiz-adv-x="288" d="M-6 1493h129l172 -256h-70z" />
<glyph unicode="a" d="M92 313q0 93 22 164t59.5 112t83 61t97.5 20q17 0 36 -2t41.5 -7t38.5 -8.5t42 -12t36 -11.5t37.5 -12.5t30.5 -10.5v191q0 113 -35 168t-122 55q-44 0 -98 -17t-80.5 -29.5t-100.5 -49.5l-39 71q201 103 322 103q110 0 172.5 -68t62.5 -215v-815h-82v154 q-133 -177 -282 -177q-45 0 -85 16.5t-77 52.5t-58.5 104.5t-21.5 162.5zM178 311q0 -128 46.5 -189t125.5 -61q133 0 266 185v291q-155 53 -235 53q-56 0 -97 -23t-63.5 -63.5t-32.5 -88t-10 -104.5z" />
<glyph unicode="b" horiz-adv-x="870" d="M141 0v1493h82v-571q129 176 266 176q46 0 86.5 -18.5t76.5 -61t61.5 -106.5t40 -159.5t14.5 -215.5q0 -288 -78 -424t-201 -136q-138 0 -266 175v-152h-82zM223 250q47 -81 116.5 -138t139.5 -57q100 0 151.5 127.5t51.5 354.5q0 228 -51 355.5t-152 127.5 q-70 0 -139.5 -58t-116.5 -139v-573z" />
<glyph unicode="c" horiz-adv-x="759" d="M100 539q0 264 89.5 411.5t220.5 147.5q22 0 45.5 -5t41.5 -11t41 -19t36 -21t34.5 -25t29 -23.5t27.5 -24.5t21 -19l-51 -57q-3 2 -17.5 15.5t-25 22.5t-29 24t-35 24.5t-36 20t-39.5 15.5t-39 5q-97 0 -162.5 -131.5t-65.5 -349.5t65.5 -351t162.5 -133q19 0 39 5 t39.5 15.5t36 20t35 24.5t29 24t25 22.5t17.5 15.5l51 -57q-1 -1 -21 -19t-27.5 -24.5t-29 -23.5t-34.5 -25t-36 -21t-41 -19t-41.5 -11t-45.5 -5q-130 0 -220 148.5t-90 413.5z" />
<glyph unicode="d" horiz-adv-x="870" d="M102 537q0 149 22 260t61 175t88 95t108 31q141 0 266 -176v571h82v-1493h-82v152q-128 -175 -266 -175q-59 0 -108 31t-88 95.5t-61 175t-22 258.5zM188 537q0 -227 51.5 -354.5t151.5 -127.5q69 0 138 57t118 138v573q-49 82 -118 139.5t-138 57.5q-101 0 -152 -127.5 t-51 -355.5z" />
<glyph unicode="e" d="M100 539q0 267 93 413t241 146q142 0 220.5 -127t78.5 -332q0 -33 -2 -65.5t-4 -49.5l-2 -16h-537q5 -205 68 -329t166 -124q35 0 72.5 14t77.5 43t58 43.5t52 45.5l55 -56q-181 -168 -319 -168q-137 0 -227.5 148.5t-90.5 413.5zM188 582h461v22q0 206 -54 308 q-57 108 -159 108q-112 0 -177 -118t-71 -320z" />
<glyph unicode="f" horiz-adv-x="503" d="M70 1001v74h102v209q0 118 38 163.5t101 45.5q74 0 213 -61l-37 -66q-116 49 -163 49q-70 0 -70 -121v-219h205v-74h-205v-1001h-82v1001h-102z" />
<glyph unicode="g" horiz-adv-x="870" d="M102 537q0 149 22 260t61 175t88 95t108 31q141 0 266 -176v153h82v-1175q0 -96 -20.5 -164.5t-58 -105t-82.5 -52.5t-103 -16q-69 0 -159.5 20t-170.5 51l31 80q180 -73 289 -73q95 0 143.5 62t48.5 198v252q-128 -175 -266 -175q-59 0 -108 31t-88 95.5t-61 175 t-22 258.5zM188 537q0 -227 51.5 -354.5t151.5 -127.5q69 0 138 57t118 138v573q-49 82 -118 139.5t-138 57.5q-101 0 -152 -127.5t-51 -355.5z" />
<glyph unicode="h" horiz-adv-x="876" d="M141 0v1493h82v-586q33 36 62 63t72 59.5t91.5 50.5t96.5 18q69 0 114 -39t62.5 -96t17.5 -129v-834h-82v825q0 87 -31 141t-100 54q-44 0 -92 -22t-90 -58.5t-69 -65t-52 -59.5v-815h-82z" />
<glyph unicode="i" horiz-adv-x="366" d="M135 1327v160h94v-160h-94zM141 0v1075h82v-1075h-82z" />
<glyph unicode="j" horiz-adv-x="362" d="M-25 -346q27 13 45 21.5t35.5 20t28.5 17.5t21 18.5t15.5 19t10 23t6 25.5t3 32t1.5 37v46v1161h82v-1161v-54.5t-1.5 -46t-4.5 -41t-8 -34t-13 -32t-20 -26.5t-28 -26t-37.5 -23.5t-47.5 -24.5t-59 -24zM135 1327v160h94v-160h-94z" />
<glyph unicode="k" horiz-adv-x="745" d="M141 0v1493h82v-1036l340 618h94l-254 -442l299 -633h-90l-256 553l-133 -229v-324h-82z" />
<glyph unicode="l" horiz-adv-x="385" d="M152 0v1493h81v-1493h-81z" />
<glyph unicode="m" horiz-adv-x="1318" d="M141 0v1075h82v-174q140 197 289 197q40 0 72.5 -15t52.5 -37t34 -51.5t20 -53t9 -46.5q143 203 295 203q66 0 109.5 -39.5t60.5 -96.5t17 -128v-834h-82v825q0 86 -30.5 140.5t-96.5 54.5q-75 0 -145 -64.5t-126 -152.5v-803h-81v825q0 85 -31.5 140t-97.5 55 q-74 0 -144.5 -64.5t-124.5 -148.5v-807h-82z" />
<glyph unicode="n" horiz-adv-x="876" d="M141 0v1075h82v-168q33 36 62 63t72 59.5t91.5 50.5t96.5 18q69 0 114 -39t62.5 -96t17.5 -129v-834h-82v825q0 87 -31 141t-100 54q-44 0 -92 -22t-90 -58.5t-69 -65t-52 -59.5v-815h-82z" />
<glyph unicode="o" horiz-adv-x="868" d="M100 537q0 262 86.5 411.5t247.5 149.5t247.5 -149.5t86.5 -411.5t-86.5 -411t-247.5 -149t-247.5 149t-86.5 411zM186 537q0 -227 60.5 -354.5t187.5 -127.5q126 0 187 128t61 354t-61 354.5t-187 128.5q-127 0 -187.5 -128t-60.5 -355z" />
<glyph unicode="p" horiz-adv-x="870" d="M141 -418v1493h82v-153q125 176 266 176q46 0 86.5 -18.5t76.5 -61t61.5 -106.5t40 -159.5t14.5 -215.5q0 -288 -78 -424t-201 -136q-138 0 -266 175v-570h-82zM223 250q47 -81 116.5 -138t139.5 -57q100 0 151.5 127.5t51.5 354.5q0 228 -51 355.5t-152 127.5 q-70 0 -139.5 -58t-116.5 -139v-573z" />
<glyph unicode="q" horiz-adv-x="870" d="M102 537q0 149 22 260t61 175t88 95t108 31q141 0 266 -176v153h82v-1493h-82v570q-128 -175 -266 -175q-59 0 -108 31t-88 95.5t-61 175t-22 258.5zM188 537q0 -227 51.5 -354.5t151.5 -127.5q69 0 138 57t118 138v573q-49 82 -118 139.5t-138 57.5q-101 0 -152 -127.5 t-51 -355.5z" />
<glyph unicode="r" horiz-adv-x="550" d="M141 0v1075h82v-233q39 105 87 161q74 85 173 85q11 0 23 -1v-83q-52 0 -95.5 -18.5t-72 -48t-50.5 -65.5t-34 -72t-19.5 -65.5t-9.5 -48.5l-2 -18v-668h-82z" />
<glyph unicode="s" horiz-adv-x="739" d="M86 104l47 64q152 -113 260 -113q72 0 124 49.5t52 137.5q0 44 -15.5 83t-35.5 65t-54.5 52.5t-57 39.5t-58.5 32q-42 22 -68 37t-64 45t-60 60t-39 76t-17 99q0 121 71.5 194t178.5 73q127 0 273 -105l-50 -61q-121 88 -219 88q-76 0 -124 -48.5t-48 -131.5q0 -23 4 -44 t9.5 -37.5t17 -33.5t20 -28t25 -24.5t24.5 -20.5t27 -18.5t25.5 -15t25.5 -13.5t21 -11q145 -75 208.5 -158.5t63.5 -191.5q0 -127 -74.5 -197t-179.5 -70q-147 0 -313 127z" />
<glyph unicode="t" horiz-adv-x="536" d="M63 1001v74h103v271l82 40v-311h205v-74h-205v-825q0 -121 71 -121q54 0 144 56l39 -66q-115 -68 -197 -68q-139 0 -139 209v815h-103z" />
<glyph unicode="u" horiz-adv-x="876" d="M137 242v833h82v-825q0 -87 31 -141t100 -54q45 0 93 22t89.5 58t69 64.5t51.5 58.5v817h82v-1075h-82v166q-174 -189 -321 -189q-69 0 -114.5 39.5t-63 96.5t-17.5 129z" />
<glyph unicode="v" horiz-adv-x="794" d="M59 1075h93l245 -946l246 946h92l-299 -1075h-80z" />
<glyph unicode="w" horiz-adv-x="1161" d="M70 1075h88l186 -930l195 930h84l192 -934l186 934h91l-234 -1075h-88l-190 918l-191 -918h-86z" />
<glyph unicode="x" horiz-adv-x="823" d="M51 0l316 541l-301 534h102l244 -454l243 454h103l-301 -532l315 -543h-104l-256 467l-256 -467h-105z" />
<glyph unicode="y" horiz-adv-x="794" d="M59 1075h93l245 -946l246 946h92l-416 -1493h-92l129 414z" />
<glyph unicode="z" horiz-adv-x="724" d="M78 0v80l473 919h-459v76h549v-78l-473 -919h473v-78h-563z" />
<glyph unicode="{" horiz-adv-x="587" d="M70 653v119q49 0 80.5 20.5t49 81t7.5 162.5l-19 191q-22 230 54 360.5t254 130.5h26v-82h-26q-250 0 -220 -383l19 -202q24 -280 -133 -338q158 -58 133 -338l-19 -203q-30 -383 220 -383h26v-82h-26q-178 0 -254 131t-54 361l19 190q10 102 -7.5 162.5t-49 81 t-80.5 20.5z" />
<glyph unicode="|" horiz-adv-x="409" d="M170 -252v1927h70v-1927h-70z" />
<glyph unicode="}" horiz-adv-x="591" d="M68 -211h26q72 0 120.5 30.5t69.5 83t29.5 122t-0.5 147.5l-18 203q-24 280 133 338q-158 58 -133 338l18 202q9 78 0.5 147.5t-29.5 122t-69.5 83t-120.5 30.5h-26v82h26q178 0 254 -130.5t53 -360.5l-18 -191q-10 -102 7.5 -162.5t49 -81t80.5 -20.5v-119 q-49 0 -80.5 -20.5t-49 -81t-7.5 -162.5l18 -190q11 -113 -1.5 -202.5t-49 -154.5t-101.5 -100t-155 -35h-26v82z" />
<glyph unicode="~" horiz-adv-x="860" d="M57 483q66 195 205 195q47 0 95.5 -24t83.5 -52t80 -52t85 -24q38 0 70 29t63 111l64 -31q-66 -195 -205 -195q-46 0 -94.5 24t-83.5 52t-80.5 52t-85.5 24q-38 0 -70 -28.5t-61 -110.5z" />
<glyph unicode="&#xa1;" horiz-adv-x="440" d="M168 1247v187h106v-187h-106zM172 0l23 1028h55l22 -1028h-100z" />
<glyph unicode="&#xa2;" horiz-adv-x="821" d="M115 719q0 256 84 402.5t209 156.5v156h69v-162q19 -5 38.5 -13t35.5 -15.5t35 -20.5t31 -21.5t30 -24t25 -22t24 -22t19 -17.5l-51 -57q-4 4 -23 21t-34 30t-37.5 30.5t-46 30.5t-46.5 21v-948q16 5 33.5 13.5t34 19.5t29.5 20.5t29 23t24 21t21.5 20.5t15.5 15l51 -58 q-30 -29 -44.5 -42t-50.5 -41.5t-71.5 -46t-71.5 -25.5v-164h-69v158q-125 10 -209 157t-84 404zM201 719q0 -209 58.5 -339t148.5 -144v962q-90 -14 -148.5 -143t-58.5 -336z" />
<glyph unicode="&#xa3;" horiz-adv-x="808" d="M115 0v72q7 9 18 24.5t39 66.5t50 103t41.5 128.5t21.5 148.5h-156v82h152q-8 83 -42.5 175.5t-64 180t-29.5 172.5q0 142 73 222.5t192 80.5q58 0 118.5 -22t96 -44.5t84.5 -58.5l-52 -65q-78 56 -132 82t-109 26q-84 0 -134.5 -59.5t-50.5 -165.5q0 -60 19 -128 t42.5 -121t46 -128.5t28.5 -146.5h229v-82h-225q-3 -97 -34 -203t-58 -162t-52 -96h465v-82h-577z" />
<glyph unicode="&#xa5;" horiz-adv-x="948" d="M70 1434h96l307 -779l309 779h97l-306 -732h222v-77h-254l-25 -62v-110h279v-78h-279v-375h-86v375h-278v78h278v114l-24 58h-254v77h221z" />
<glyph unicode="&#xa6;" horiz-adv-x="413" d="M172 -252v846h70v-846h-70zM172 829v846h70v-846h-70z" />
<glyph unicode="&#xa7;" horiz-adv-x="800" d="M109 698q0 94 47.5 154t124.5 82q-142 99 -142 256q0 121 71.5 193.5t178.5 72.5q129 0 273 -104l-50 -62q-121 88 -219 88q-76 0 -124 -48.5t-48 -131.5q0 -23 4 -44t9.5 -37.5t17 -33.5t20 -28t25 -24.5t24.5 -20.5t27 -18.5t25.5 -15t25.5 -13.5t21 -11 q144 -74 208 -158.5t64 -185.5q0 -93 -48.5 -152t-125.5 -81q144 -100 144 -256q0 -121 -71.5 -193.5t-178.5 -72.5q-129 0 -273 104l49 61q121 -88 220 -88q76 0 124 49t48 132q0 50 -17.5 90.5t-50 69t-57.5 44.5t-60 34q-3 1 -5 2t-4.5 2.5t-4.5 2.5q-140 74 -206 156 t-66 186zM193 707q0 -43 15 -81.5t36 -65t54.5 -52.5t57 -40t58.5 -32l22 -12q71 2 121.5 47.5t50.5 130.5q0 43 -15.5 81.5t-35.5 64.5t-54 52t-57.5 40t-58.5 32l-25 13q-71 -2 -120 -47.5t-49 -130.5z" />
<glyph unicode="&#xa8;" horiz-adv-x="313" d="M-6 1257v160h98v-160h-98zM223 1257v160h96v-160h-96z" />
<glyph unicode="&#xa9;" horiz-adv-x="1689" d="M115 717q0 156 49 290.5t140 234.5t230.5 157t311.5 57t311 -57t230 -157t139.5 -234.5t48.5 -290.5t-48.5 -290.5t-139.5 -234.5t-230 -157.5t-311 -57.5t-311.5 57.5t-230.5 157.5t-140 234.5t-49 290.5zM193 717q0 -190 74 -339t223.5 -238t353.5 -89q155 0 280 51 t206.5 141.5t125 211.5t43.5 262t-43.5 262t-125 211t-206.5 141t-280 51q-154 0 -278.5 -51t-205 -141t-124 -211t-43.5 -262zM475 715q0 212 101.5 329t254.5 117q72 0 143.5 -23t109.5 -45.5t90 -58.5l-52 -61q-88 61 -141 83q-72 29 -145 29q-119 0 -195 -102t-76 -268 q0 -165 76 -266t195 -101q19 0 39 2t36 5t34.5 9.5t31 10.5t30.5 13l27 13.5t25.5 15t22.5 14t22 14t18 12.5l52 -60q-52 -36 -90 -58.5t-109.5 -45.5t-143.5 -23q-152 0 -254 117t-102 328z" />
<glyph unicode="&#xaa;" horiz-adv-x="636" d="M106 979q0 107 47.5 160t118.5 53q18 0 42.5 -4.5t40 -9t44 -13t33.5 -10.5v102q0 65 -21 96t-73 31q-26 0 -58 -9t-51 -17.5t-63 -28.5l-29 57q131 62 209 62q156 0 156 -182v-478h-70v89q-85 -103 -172 -103q-64 0 -109 49.5t-45 155.5zM178 979q0 -70 27 -103.5 t71 -33.5q78 0 156 100v164q-98 29 -137 29q-62 0 -89.5 -43.5t-27.5 -112.5z" />
<glyph unicode="&#xab;" horiz-adv-x="991" d="M72 551v65l428 467v-114l-353 -385l353 -385v-115zM457 551v65l428 467v-114l-353 -385l353 -385v-115z" />
<glyph unicode="&#xac;" horiz-adv-x="860" d="M25 643v78h802v-537h-79v459h-723z" />
<glyph unicode="&#xad;" horiz-adv-x="651" d="M135 543v82h381v-82h-381z" />
<glyph unicode="&#xae;" horiz-adv-x="894" d="M113 1137q0 147 89 242.5t244 95.5q156 0 246 -95.5t90 -242.5t-90 -242.5t-246 -95.5q-155 0 -244 95.5t-89 242.5zM178 1137q0 -123 69 -201t199 -78q131 0 201 78t70 201q0 122 -70 200t-201 78q-130 0 -199 -78t-69 -200zM322 971v340h157q53 0 84 -27.5t31 -71.5 q0 -36 -23 -61t-61 -33l80 -147h-64l-77 145h-70v-145h-57zM379 1167h100q28 0 42 12.5t14 32.5q0 22 -12 33.5t-42 11.5h-102v-90z" />
<glyph unicode="&#xaf;" horiz-adv-x="401" d="M0 1288v74h401v-74h-401z" />
<glyph unicode="&#xb0;" horiz-adv-x="747" d="M100 1161q0 113 80 193t193 80q112 0 192 -80t80 -193t-79.5 -192.5t-192.5 -79.5t-193 80t-80 192zM172 1161q0 -83 58 -140.5t141 -57.5t141.5 58t58.5 140q0 83 -58.5 142t-141.5 59t-141 -59t-58 -142z" />
<glyph unicode="&#xb1;" horiz-adv-x="860" d="M80 0v78h698v-78h-698zM80 629v78h313v321h72v-321h313v-78h-313v-324h-72v324h-313z" />
<glyph unicode="&#xb2;" horiz-adv-x="569" d="M74 788v62q0 47 10 90.5t20.5 71.5t36.5 63t39 49.5t47 49t43 43.5q140 143 140 251q0 57 -34.5 91t-88.5 34q-74 0 -162 -65l-35 55q104 80 203 80q82 0 136 -52t54 -143q0 -28 -6.5 -56.5t-13 -49.5t-25 -50t-27 -43.5t-35 -44.5t-33.5 -38t-37.5 -39.5t-33.5 -34.5 q-65 -67 -91.5 -117.5t-26.5 -138.5h329v-68h-409z" />
<glyph unicode="&#xb3;" horiz-adv-x="577" d="M66 846l38 57q86 -59 160 -59q68 0 113 48.5t45 131.5q0 52 -19.5 93t-51 64t-66.5 34.5t-70 11.5h-16v69h20q69 0 122.5 47.5t53.5 126.5q0 60 -32.5 91.5t-86.5 31.5q-74 0 -147 -57l-35 51q98 76 191 76q86 0 134 -53.5t48 -130.5q0 -65 -35 -124t-106 -91 q74 -21 122 -86.5t48 -155.5q0 -103 -58 -175.5t-168 -72.5q-107 0 -204 72z" />
<glyph unicode="&#xb4;" horiz-adv-x="288" d="M-6 1237l170 256h131l-229 -256h-72z" />
<glyph unicode="&#xb5;" horiz-adv-x="944" d="M170 -418v1493h82v-825q0 -87 31 -141t100 -54q45 0 93 22t89.5 58t69 64.5t51.5 58.5v817h82v-1075h-82v166q-174 -189 -321 -189q-66 0 -113 37v-432h-82z" />
<glyph unicode="&#xb6;" horiz-adv-x="915" d="M72 1024q0 199 84.5 304.5t251.5 105.5h75v-1813h-77v993q-154 0 -244 108t-90 302zM655 -379v1813h78v-1813h-78z" />
<glyph unicode="&#xb7;" horiz-adv-x="376" d="M135 489v187h107v-187h-107z" />
<glyph unicode="&#xb8;" horiz-adv-x="237" d="M-2 -301l25 72q19 -13 26.5 -17.5t19.5 -9t25 -4.5q39 0 61.5 26.5t22.5 79.5q0 36 -11 75.5t-21 60.5l-11 22h47q6 -9 16 -26t26 -64.5t16 -91.5q0 -71 -38 -114.5t-98 -43.5q-53 0 -106 35z" />
<glyph unicode="&#xb9;" horiz-adv-x="428" d="M47 1540l148 109h65v-861h-72v777l-106 -78z" />
<glyph unicode="&#xba;" horiz-adv-x="647" d="M106 1110q0 158 56.5 248t159.5 90q104 0 160.5 -90t56.5 -248q0 -157 -56.5 -246.5t-160.5 -89.5q-103 0 -159.5 89.5t-56.5 246.5zM178 1110q0 -272 144 -272q74 0 109.5 72t35.5 200q0 129 -35.5 201.5t-109.5 72.5q-144 0 -144 -274z" />
<glyph unicode="&#xbb;" horiz-adv-x="991" d="M106 84v115l353 385l-353 385v114l429 -467v-65zM492 84v115l352 385l-352 385v114l428 -467v-65z" />
<glyph unicode="&#xbc;" horiz-adv-x="1136" d="M63 1325l148 109h65v-861h-71v777l-107 -78zM231 0l471 1434h76l-471 -1434h-76zM573 199v61l295 600h95v-594h96v-67h-96v-199h-72v199h-318zM643 266h248v502z" />
<glyph unicode="&#xbd;" horiz-adv-x="1181" d="M63 1325l148 109h65v-861h-71v777l-107 -78zM231 0l471 1434h76l-471 -1434h-76zM668 0v61q0 47 10 90.5t20.5 71.5t36.5 63t39 49.5t47 49t43 43.5q140 143 140 252q0 57 -34.5 91t-88.5 34q-73 0 -162 -66l-35 56q103 79 203 79q83 0 136.5 -51.5t53.5 -142.5 q0 -28 -6.5 -56.5t-13 -49.5t-25 -50t-27 -43.5t-35 -44.5t-33.5 -38t-37.5 -39.5t-33.5 -34.5q-65 -67 -91.5 -117.5t-26.5 -138.5h329v-68h-409z" />
<glyph unicode="&#xbe;" horiz-adv-x="1308" d="M92 631l39 57q86 -59 160 -59q68 0 113 48.5t45 131.5q0 52 -19.5 93t-51 64t-66.5 34.5t-70 11.5h-17v69h21q69 0 122.5 47.5t53.5 126.5q0 60 -32.5 91.5t-86.5 31.5q-74 0 -147 -57l-35 51q98 76 190 76q86 0 134.5 -53.5t48.5 -130.5q0 -65 -35.5 -124t-106.5 -91 q74 -21 122 -86.5t48 -155.5q0 -103 -57.5 -175.5t-167.5 -72.5q-108 0 -205 72zM406 0l471 1434h75l-471 -1434h-75zM745 199v61l295 600h95v-594h96v-67h-96v-199h-72v199h-318zM815 266h248v502z" />
<glyph unicode="&#xbf;" horiz-adv-x="729" d="M82 266q0 248 295 396l12 366h68l12 -412q-301 -131 -301 -346q0 -100 59 -155.5t148 -55.5q63 0 117.5 26t117.5 73l52 -56q-139 -125 -293 -125q-55 0 -105.5 17.5t-91.5 52t-65.5 91t-24.5 128.5zM371 1247v187h104v-187h-104z" />
<glyph unicode="&#xc0;" horiz-adv-x="985" d="M61 0l385 1434h93l385 -1434h-95l-102 395h-469l-102 -395h-95zM279 477h426l-213 826zM289 1802h129l172 -256h-70z" />
<glyph unicode="&#xc1;" horiz-adv-x="985" d="M61 0l385 1434h93l385 -1434h-95l-102 395h-469l-102 -395h-95zM279 477h426l-213 826zM395 1546l170 256h131l-229 -256h-72z" />
<glyph unicode="&#xc2;" horiz-adv-x="985" d="M61 0l385 1434h93l385 -1434h-95l-102 395h-469l-102 -395h-95zM279 477h426l-213 826zM301 1546l135 256h111l137 -256h-68l-124 191l-123 -191h-68z" />
<glyph unicode="&#xc3;" horiz-adv-x="985" d="M61 0l385 1434h93l385 -1434h-95l-102 395h-469l-102 -395h-95zM279 477h426l-213 826zM285 1597q27 75 54 110.5t67 35.5q30 0 62.5 -25.5t60.5 -50.5t46 -25q19 0 33.5 18.5t36.5 76.5l53 -25q-27 -75 -53.5 -110t-66.5 -35q-30 0 -63 25t-61.5 50t-47.5 25 q-17 0 -31.5 -18.5t-36.5 -75.5z" />
<glyph unicode="&#xc4;" horiz-adv-x="985" d="M61 0l385 1434h93l385 -1434h-95l-102 395h-469l-102 -395h-95zM279 477h426l-213 826zM330 1567v159h98v-159h-98zM559 1567v159h96v-159h-96z" />
<glyph unicode="&#xc5;" horiz-adv-x="985" d="M61 0l385 1434h93l385 -1434h-95l-102 395h-469l-102 -395h-95zM279 477h426l-213 826zM317 1702q0 74 51 126t126 52t126.5 -52t51.5 -126q0 -75 -51.5 -125.5t-126.5 -50.5t-126 50.5t-51 125.5zM381 1702q0 -47 33 -80t80 -33t80.5 33t33.5 80t-33.5 81t-80.5 34 t-80 -34t-33 -81z" />
<glyph unicode="&#xc6;" horiz-adv-x="1421" d="M18 0l680 1434h613v-82h-510v-594h424v-82h-424v-594h518v-82h-604v395h-416l-182 -395h-99zM338 477h377v811z" />
<glyph unicode="&#xc7;" horiz-adv-x="937" d="M119 717q0 153 20 277t54.5 209t82.5 142.5t103 84t117 26.5q51 0 100.5 -17t98 -52t83 -65.5t82.5 -78.5l-59 -53q-37 36 -50.5 49t-52.5 46t-64.5 47.5t-62 28t-69.5 13.5q-131 0 -212 -174.5t-81 -482.5t81 -483t212 -175q39 0 79.5 16t80 46t67 54.5t63.5 59.5l3 3 l2.5 2.5l3 3l2.5 2.5l57 -56q-91 -91 -166.5 -144t-161.5 -64q43 -83 43 -160q0 -72 -37.5 -115t-97.5 -43q-53 0 -106 35l24 72q45 -31 72 -31q39 0 61.5 26.5t22.5 79.5q0 56 -31 131q-76 3 -140.5 47.5t-115 131.5t-79.5 230.5t-29 330.5z" />
<glyph unicode="&#xc8;" horiz-adv-x="874" d="M170 0v1434h596v-82h-510v-594h424v-82h-424v-594h518v-82h-604zM268 1802h129l172 -256h-69z" />
<glyph unicode="&#xc9;" horiz-adv-x="874" d="M170 0v1434h596v-82h-510v-594h424v-82h-424v-594h518v-82h-604zM375 1546l170 256h131l-230 -256h-71z" />
<glyph unicode="&#xca;" horiz-adv-x="874" d="M170 0v1434h596v-82h-510v-594h424v-82h-424v-594h518v-82h-604zM281 1546l135 256h110l138 -256h-68l-125 191l-123 -191h-67z" />
<glyph unicode="&#xcb;" horiz-adv-x="874" d="M170 0v1434h596v-82h-510v-594h424v-82h-424v-594h518v-82h-604zM309 1567v159h99v-159h-99zM539 1567v159h96v-159h-96z" />
<glyph unicode="&#xcc;" horiz-adv-x="425" d="M10 1802h129l172 -256h-69zM170 0v1434h86v-1434h-86z" />
<glyph unicode="&#xcd;" horiz-adv-x="425" d="M117 1546l170 256h131l-230 -256h-71zM170 0v1434h86v-1434h-86z" />
<glyph unicode="&#xce;" horiz-adv-x="428" d="M23 1546l135 256h110l138 -256h-68l-125 191l-123 -191h-67zM170 0v1434h86v-1434h-86z" />
<glyph unicode="&#xcf;" horiz-adv-x="423" d="M49 1567v159h98v-159h-98zM170 0v1434h86v-1434h-86zM279 1567v159h96v-159h-96z" />
<glyph unicode="&#xd0;" horiz-adv-x="1028" d="M66 678v78h106v678h223q512 0 512 -717t-512 -717h-223v678h-106zM258 82h135q220 0 322 156t102 479t-102 479t-322 156h-135v-596h248v-78h-248v-596z" />
<glyph unicode="&#xd1;" horiz-adv-x="1062" d="M170 0v1434h90l547 -1248v1248h86v-1434h-90l-547 1247v-1247h-86zM334 1597q27 75 54 110.5t67 35.5q30 0 63 -25.5t61 -50.5t46 -25t32.5 18.5t36.5 76.5l54 -25q-27 -74 -54 -109.5t-67 -35.5q-30 0 -63 25t-61.5 50t-47.5 25q-17 0 -31.5 -18.5t-36.5 -75.5z" />
<glyph unicode="&#xd2;" horiz-adv-x="1069" d="M119 717q0 739 416 739q415 0 415 -739q0 -740 -415 -740q-416 0 -416 740zM209 717q0 -94 6.5 -174t20.5 -156t39 -134.5t60.5 -102.5t86 -67.5t113.5 -23.5q75 0 132.5 34.5t93.5 93t58.5 144t31.5 179t9 207.5q0 94 -6.5 174t-20.5 156t-39 134t-60 102.5t-85.5 67.5 t-113.5 23t-113.5 -23.5t-86 -67.5t-60.5 -102t-39 -134t-20.5 -156t-6.5 -174zM332 1802h129l172 -256h-70z" />
<glyph unicode="&#xd3;" horiz-adv-x="1069" d="M119 717q0 739 416 739q415 0 415 -739q0 -740 -415 -740q-416 0 -416 740zM209 717q0 -94 6.5 -174t20.5 -156t39 -134.5t60.5 -102.5t86 -67.5t113.5 -23.5q75 0 132.5 34.5t93.5 93t58.5 144t31.5 179t9 207.5q0 94 -6.5 174t-20.5 156t-39 134t-60 102.5t-85.5 67.5 t-113.5 23t-113.5 -23.5t-86 -67.5t-60.5 -102t-39 -134t-20.5 -156t-6.5 -174zM438 1546l170 256h131l-229 -256h-72z" />
<glyph unicode="&#xd4;" horiz-adv-x="1069" d="M119 717q0 739 416 739q415 0 415 -739q0 -740 -415 -740q-416 0 -416 740zM209 717q0 -94 6.5 -174t20.5 -156t39 -134.5t60.5 -102.5t86 -67.5t113.5 -23.5q75 0 132.5 34.5t93.5 93t58.5 144t31.5 179t9 207.5q0 94 -6.5 174t-20.5 156t-39 134t-60 102.5t-85.5 67.5 t-113.5 23t-113.5 -23.5t-86 -67.5t-60.5 -102t-39 -134t-20.5 -156t-6.5 -174zM344 1546l135 256h111l137 -256h-68l-124 191l-123 -191h-68z" />
<glyph unicode="&#xd5;" horiz-adv-x="1069" d="M119 717q0 739 416 739q415 0 415 -739q0 -740 -415 -740q-416 0 -416 740zM209 717q0 -94 6.5 -174t20.5 -156t39 -134.5t60.5 -102.5t86 -67.5t113.5 -23.5q75 0 132.5 34.5t93.5 93t58.5 144t31.5 179t9 207.5q0 94 -6.5 174t-20.5 156t-39 134t-60 102.5t-85.5 67.5 t-113.5 23t-113.5 -23.5t-86 -67.5t-60.5 -102t-39 -134t-20.5 -156t-6.5 -174zM328 1597q27 75 54 110.5t67 35.5q30 0 62.5 -25.5t60.5 -50.5t46 -25q19 0 33.5 18.5t36.5 76.5l53 -25q-27 -75 -53.5 -110t-66.5 -35q-30 0 -63 25t-61.5 50t-47.5 25q-17 0 -31.5 -18.5 t-36.5 -75.5z" />
<glyph unicode="&#xd6;" horiz-adv-x="1069" d="M119 717q0 739 416 739q415 0 415 -739q0 -740 -415 -740q-416 0 -416 740zM209 717q0 -94 6.5 -174t20.5 -156t39 -134.5t60.5 -102.5t86 -67.5t113.5 -23.5q75 0 132.5 34.5t93.5 93t58.5 144t31.5 179t9 207.5q0 94 -6.5 174t-20.5 156t-39 134t-60 102.5t-85.5 67.5 t-113.5 23t-113.5 -23.5t-86 -67.5t-60.5 -102t-39 -134t-20.5 -156t-6.5 -174zM371 1567v159h98v-159h-98zM600 1567v159h96v-159h-96z" />
<glyph unicode="&#xd7;" horiz-adv-x="860" d="M156 979l59 45l213 -279l213 275l59 -45l-225 -291l227 -293l-59 -45l-215 277l-211 -273l-59 45l223 289z" />
<glyph unicode="&#xd8;" horiz-adv-x="1064" d="M117 717q0 739 415 739q170 0 271 -125l51 103h80l-86 -172q100 -188 100 -545q0 -127 -12.5 -233.5t-42.5 -202t-76.5 -161.5t-119 -104.5t-165.5 -38.5q-171 0 -270 123l-51 -100h-78l84 168q-100 182 -100 549zM207 717q0 -290 61 -451l492 979q-82 129 -228 129 q-63 0 -113.5 -23t-85.5 -67.5t-60 -102.5t-39 -134t-20.5 -156t-6.5 -174zM305 188q80 -129 227 -129q63 0 113.5 23.5t86 67.5t60.5 102.5t39 134.5t20.5 156t6.5 174q0 285 -59 446z" />
<glyph unicode="&#xd9;" horiz-adv-x="1030" d="M162 406v1028h86v-1022q0 -79 11.5 -138.5t39.5 -110t82 -77.5t133 -27t133 27t82.5 77.5t40.5 110t12 138.5v1022h86v-1028q0 -93 -18.5 -168t-58.5 -135t-110 -93t-167 -33t-167 33t-109.5 93t-57.5 135t-18 168zM311 1802h129l172 -256h-69z" />
<glyph unicode="&#xda;" horiz-adv-x="1030" d="M162 406v1028h86v-1022q0 -79 11.5 -138.5t39.5 -110t82 -77.5t133 -27t133 27t82.5 77.5t40.5 110t12 138.5v1022h86v-1028q0 -93 -18.5 -168t-58.5 -135t-110 -93t-167 -33t-167 33t-109.5 93t-57.5 135t-18 168zM418 1546l170 256h131l-230 -256h-71z" />
<glyph unicode="&#xdb;" horiz-adv-x="1030" d="M162 406v1028h86v-1022q0 -79 11.5 -138.5t39.5 -110t82 -77.5t133 -27t133 27t82.5 77.5t40.5 110t12 138.5v1022h86v-1028q0 -93 -18.5 -168t-58.5 -135t-110 -93t-167 -33t-167 33t-109.5 93t-57.5 135t-18 168zM324 1546l135 256h110l138 -256h-68l-125 191 l-123 -191h-67z" />
<glyph unicode="&#xdc;" horiz-adv-x="1030" d="M162 406v1028h86v-1022q0 -79 11.5 -138.5t39.5 -110t82 -77.5t133 -27t133 27t82.5 77.5t40.5 110t12 138.5v1022h86v-1028q0 -93 -18.5 -168t-58.5 -135t-110 -93t-167 -33t-167 33t-109.5 93t-57.5 135t-18 168zM350 1567v159h99v-159h-99zM580 1567v159h96v-159h-96z " />
<glyph unicode="&#xdd;" horiz-adv-x="907" d="M49 1434h96l308 -779l309 779h96l-362 -871v-563h-86v567zM356 1546l170 256h131l-229 -256h-72z" />
<glyph unicode="&#xde;" horiz-adv-x="954" d="M170 0v1434h86v-273h203q88 0 156 -19.5t124.5 -65t86.5 -129.5t30 -204q0 -121 -30 -206t-86.5 -132t-124.5 -67.5t-156 -20.5h-203v-317h-86zM256 399h207q140 0 221.5 82.5t81.5 261.5q0 336 -303 336h-207v-680z" />
<glyph unicode="&#xdf;" horiz-adv-x="901" d="M141 0v1114q0 112 25.5 191t70.5 119t93.5 56.5t107.5 16.5q130 0 211.5 -77t81.5 -228q0 -52 -9.5 -96.5t-19.5 -63.5l-10 -18q-31 -15 -49.5 -26t-46.5 -34.5t-42.5 -58t-14.5 -78.5q0 -28 7.5 -54.5t15 -44t31 -49.5t34.5 -45t47 -55q74 -86 97 -122q60 -96 60 -205 q0 -127 -66.5 -196t-166.5 -69q-107 0 -254 95l47 63q111 -80 201 -80q64 0 111 50t47 143q0 59 -26.5 112.5t-100.5 143.5q-11 13 -37 44t-36 43.5t-29.5 38.5t-27.5 43t-18.5 42t-14 49.5t-3.5 52.5q0 47 13 87t30.5 65.5t45.5 49t46.5 34.5t44.5 24q14 54 14 111 q0 112 -57 171.5t-156 59.5q-101 0 -158 -70.5t-57 -238.5v-1110h-82z" />
<glyph unicode="&#xe0;" d="M92 313q0 93 22 164t59.5 112t83 61t97.5 20q17 0 36 -2t41.5 -7t38.5 -8.5t42 -12t36 -11.5t37.5 -12.5t30.5 -10.5v191q0 113 -35 168t-122 55q-44 0 -98 -17t-80.5 -29.5t-100.5 -49.5l-39 71q201 103 322 103q110 0 172.5 -68t62.5 -215v-815h-82v154 q-133 -177 -282 -177q-45 0 -85 16.5t-77 52.5t-58.5 104.5t-21.5 162.5zM178 311q0 -128 46.5 -189t125.5 -61q133 0 266 185v291q-155 53 -235 53q-56 0 -97 -23t-63.5 -63.5t-32.5 -88t-10 -104.5zM217 1493h129l172 -256h-69z" />
<glyph unicode="&#xe1;" d="M92 313q0 93 22 164t59.5 112t83 61t97.5 20q17 0 36 -2t41.5 -7t38.5 -8.5t42 -12t36 -11.5t37.5 -12.5t30.5 -10.5v191q0 113 -35 168t-122 55q-44 0 -98 -17t-80.5 -29.5t-100.5 -49.5l-39 71q201 103 322 103q110 0 172.5 -68t62.5 -215v-815h-82v154 q-133 -177 -282 -177q-45 0 -85 16.5t-77 52.5t-58.5 104.5t-21.5 162.5zM178 311q0 -128 46.5 -189t125.5 -61q133 0 266 185v291q-155 53 -235 53q-56 0 -97 -23t-63.5 -63.5t-32.5 -88t-10 -104.5zM324 1237l170 256h131l-230 -256h-71z" />
<glyph unicode="&#xe2;" d="M92 313q0 93 22 164t59.5 112t83 61t97.5 20q17 0 36 -2t41.5 -7t38.5 -8.5t42 -12t36 -11.5t37.5 -12.5t30.5 -10.5v191q0 113 -35 168t-122 55q-44 0 -98 -17t-80.5 -29.5t-100.5 -49.5l-39 71q201 103 322 103q110 0 172.5 -68t62.5 -215v-815h-82v154 q-133 -177 -282 -177q-45 0 -85 16.5t-77 52.5t-58.5 104.5t-21.5 162.5zM178 311q0 -128 46.5 -189t125.5 -61q133 0 266 185v291q-155 53 -235 53q-56 0 -97 -23t-63.5 -63.5t-32.5 -88t-10 -104.5zM229 1237l136 256h110l137 -256h-67l-125 190l-123 -190h-68z" />
<glyph unicode="&#xe3;" d="M92 313q0 93 22 164t59.5 112t83 61t97.5 20q17 0 36 -2t41.5 -7t38.5 -8.5t42 -12t36 -11.5t37.5 -12.5t30.5 -10.5v191q0 113 -35 168t-122 55q-44 0 -98 -17t-80.5 -29.5t-100.5 -49.5l-39 71q201 103 322 103q110 0 172.5 -68t62.5 -215v-815h-82v154 q-133 -177 -282 -177q-45 0 -85 16.5t-77 52.5t-58.5 104.5t-21.5 162.5zM178 311q0 -128 46.5 -189t125.5 -61q133 0 266 185v291q-155 53 -235 53q-56 0 -97 -23t-63.5 -63.5t-32.5 -88t-10 -104.5zM213 1288q27 75 54 110.5t67 35.5q24 0 50 -16t44.5 -34.5t39.5 -34.5 t36 -16q19 0 33 18t36 76l54 -24q-27 -75 -54 -110.5t-67 -35.5q-30 0 -63 25.5t-61.5 50.5t-47.5 25q-17 0 -31.5 -18.5t-36.5 -75.5z" />
<glyph unicode="&#xe4;" d="M92 313q0 93 22 164t59.5 112t83 61t97.5 20q17 0 36 -2t41.5 -7t38.5 -8.5t42 -12t36 -11.5t37.5 -12.5t30.5 -10.5v191q0 113 -35 168t-122 55q-44 0 -98 -17t-80.5 -29.5t-100.5 -49.5l-39 71q201 103 322 103q110 0 172.5 -68t62.5 -215v-815h-82v154 q-133 -177 -282 -177q-45 0 -85 16.5t-77 52.5t-58.5 104.5t-21.5 162.5zM178 311q0 -128 46.5 -189t125.5 -61q133 0 266 185v291q-155 53 -235 53q-56 0 -97 -23t-63.5 -63.5t-32.5 -88t-10 -104.5zM258 1257v160h98v-160h-98zM487 1257v160h97v-160h-97z" />
<glyph unicode="&#xe5;" d="M92 313q0 93 22 164t59.5 112t83 61t97.5 20q17 0 36 -2t41.5 -7t38.5 -8.5t42 -12t36 -11.5t37.5 -12.5t30.5 -10.5v191q0 113 -35 168t-122 55q-44 0 -98 -17t-80.5 -29.5t-100.5 -49.5l-39 71q201 103 322 103q110 0 172.5 -68t62.5 -215v-815h-82v154 q-133 -177 -282 -177q-45 0 -85 16.5t-77 52.5t-58.5 104.5t-21.5 162.5zM178 311q0 -128 46.5 -189t125.5 -61q133 0 266 185v291q-155 53 -235 53q-56 0 -97 -23t-63.5 -63.5t-32.5 -88t-10 -104.5zM244 1393q0 74 51 126t125 52q75 0 126.5 -52t51.5 -126 q0 -75 -51.5 -125.5t-126.5 -50.5t-125.5 50.5t-50.5 125.5zM307 1393q0 -47 33 -80t80 -33t81 33t34 80t-34 80.5t-81 33.5t-80 -33.5t-33 -80.5z" />
<glyph unicode="&#xe6;" horiz-adv-x="1323" d="M92 315q0 180 71.5 267.5t178.5 87.5q14 0 28 -1.5t30.5 -5t29 -6.5t31 -9t28 -9.5t29 -11t25 -10t25 -11t20.5 -8.5q6 108 26 186q-3 121 -39 178.5t-122 57.5q-40 0 -93 -17t-82.5 -31t-101.5 -50l-35 73q201 103 318 103q165 0 215 -158q93 158 248 158 q142 0 220.5 -127t78.5 -332q0 -33 -2.5 -65.5t-4.5 -49.5l-2 -16h-536q5 -205 67.5 -329t165.5 -124q35 0 72.5 14t77.5 43t58 43.5t52 45.5l56 -56q-181 -168 -320 -168q-82 0 -150 55.5t-110 160.5q-148 -216 -309 -216q-46 0 -86.5 16t-77.5 52.5t-58.5 105.5t-21.5 164 zM178 313q0 -130 46.5 -191t123.5 -61q78 0 144 53.5t129 147.5q-33 122 -33 256q-5 2 -45 20.5t-59 26t-52 16.5t-57 9q-55 0 -94.5 -23t-61 -63.5t-31.5 -87.5t-10 -103zM676 582h461q3 223 -54 330.5t-159 107.5q-112 0 -177 -118t-71 -320z" />
<glyph unicode="&#xe7;" horiz-adv-x="757" d="M98 539q0 264 89.5 411.5t220.5 147.5q22 0 45.5 -5t41.5 -11t41 -19t36 -21t34.5 -25t29 -23.5t27.5 -24.5t21 -19l-51 -57q-3 2 -17.5 15.5t-25 22.5t-29 24t-35 24.5t-36 20t-39.5 15.5t-39 5q-97 0 -162.5 -131.5t-65.5 -349.5t65.5 -351t162.5 -133q19 0 39 5 t39.5 15.5t36 20t35 24.5t29 24t25 22.5t17.5 15.5l51 -57q-82 -75 -133 -104q-60 -35 -117 -41q43 -83 43 -158q0 -72 -37.5 -115t-97.5 -43q-53 0 -106 35l24 72q45 -31 72 -31q39 0 61.5 26.5t22.5 79.5q0 59 -31 134q-122 13 -204.5 160t-82.5 399z" />
<glyph unicode="&#xe8;" d="M100 539q0 267 93 413t241 146q142 0 220.5 -127t78.5 -332q0 -33 -2 -65.5t-4 -49.5l-2 -16h-537q5 -205 68 -329t166 -124q35 0 72.5 14t77.5 43t58 43.5t52 45.5l55 -56q-181 -168 -319 -168q-137 0 -227.5 148.5t-90.5 413.5zM188 582h461q3 223 -54 330.5 t-159 107.5q-112 0 -177 -118t-71 -320zM229 1493h129l172 -256h-69z" />
<glyph unicode="&#xe9;" d="M100 539q0 267 93 413t241 146q142 0 220.5 -127t78.5 -332q0 -33 -2 -65.5t-4 -49.5l-2 -16h-537q5 -205 68 -329t166 -124q35 0 72.5 14t77.5 43t58 43.5t52 45.5l55 -56q-181 -168 -319 -168q-137 0 -227.5 148.5t-90.5 413.5zM188 582h461q3 223 -54 330.5 t-159 107.5q-112 0 -177 -118t-71 -320zM336 1237l170 256h131l-229 -256h-72z" />
<glyph unicode="&#xea;" d="M100 539q0 267 93 413t241 146q142 0 220.5 -127t78.5 -332q0 -33 -2 -65.5t-4 -49.5l-2 -16h-537q5 -205 68 -329t166 -124q35 0 72.5 14t77.5 43t58 43.5t52 45.5l55 -56q-181 -168 -319 -168q-137 0 -227.5 148.5t-90.5 413.5zM188 582h461q3 223 -54 330.5 t-159 107.5q-112 0 -177 -118t-71 -320zM242 1237l135 256h110l138 -256h-68l-125 190l-123 -190h-67z" />
<glyph unicode="&#xeb;" d="M100 539q0 267 93 413t241 146q142 0 220.5 -127t78.5 -332q0 -33 -2 -65.5t-4 -49.5l-2 -16h-537q5 -205 68 -329t166 -124q35 0 72.5 14t77.5 43t58 43.5t52 45.5l55 -56q-181 -168 -319 -168q-137 0 -227.5 148.5t-90.5 413.5zM188 582h461q3 223 -54 330.5 t-159 107.5q-112 0 -177 -118t-71 -320zM268 1257v160h99v-160h-99zM498 1257v160h96v-160h-96z" />
<glyph unicode="&#xec;" horiz-adv-x="364" d="M-20 1493h129l172 -256h-70zM141 0v1075h82v-1075h-82z" />
<glyph unicode="&#xed;" horiz-adv-x="364" d="M86 1237l170 256h131l-229 -256h-72zM141 0v1075h82v-1075h-82z" />
<glyph unicode="&#xee;" horiz-adv-x="366" d="M-8 1237l135 256h111l137 -256h-68l-125 190l-123 -190h-67zM141 0v1075h82v-1075h-82z" />
<glyph unicode="&#xef;" horiz-adv-x="364" d="M20 1257v160h99v-160h-99zM143 0v1075h82v-1075h-82zM250 1257v160h96v-160h-96z" />
<glyph unicode="&#xf0;" horiz-adv-x="878" d="M100 475q0 226 87.5 363t232.5 137q52 0 97.5 -18t73.5 -43.5t48 -51t29 -43.5l8 -18q-23 153 -80.5 290.5t-146.5 206.5l-109 -108h-100l145 147q-51 19 -88 19q-25 0 -51 -5t-40 -9l-13 -5l-17 72q51 25 123 25q78 0 145 -37l97 96h102l-135 -135 q123 -100 194.5 -308.5t71.5 -484.5q0 -588 -334 -588q-157 0 -248.5 135.5t-91.5 362.5zM186 475q0 -195 65.5 -307.5t184.5 -112.5q118 0 185 110t67 312q0 203 -65 311.5t-187 108.5q-120 0 -185 -114t-65 -308z" />
<glyph unicode="&#xf1;" horiz-adv-x="876" d="M141 0v1075h82v-168q33 36 62 63t72 59.5t91.5 50.5t96.5 18q69 0 114 -39t62.5 -96t17.5 -129v-834h-82v825q0 87 -31 141t-100 54q-44 0 -92 -22t-90 -58.5t-69 -65t-52 -59.5v-815h-82zM233 1288q27 75 54 110.5t67 35.5q24 0 50 -16t44.5 -34.5t39.5 -34.5t36 -16 q19 0 33.5 18t36.5 76l53 -24q-27 -75 -54 -110.5t-67 -35.5q-30 0 -63 25.5t-61.5 50.5t-47.5 25q-17 0 -31 -18.5t-36 -75.5z" />
<glyph unicode="&#xf2;" horiz-adv-x="868" d="M100 537q0 262 86.5 411.5t247.5 149.5t247.5 -149.5t86.5 -411.5t-86.5 -411t-247.5 -149t-247.5 149t-86.5 411zM186 537q0 -227 60.5 -354.5t187.5 -127.5q126 0 187 128t61 354t-61 354.5t-187 128.5q-127 0 -187.5 -128t-60.5 -355zM231 1493h129l172 -256h-69z" />
<glyph unicode="&#xf3;" horiz-adv-x="868" d="M100 537q0 262 86.5 411.5t247.5 149.5t247.5 -149.5t86.5 -411.5t-86.5 -411t-247.5 -149t-247.5 149t-86.5 411zM186 537q0 -227 60.5 -354.5t187.5 -127.5q126 0 187 128t61 354t-61 354.5t-187 128.5q-127 0 -187.5 -128t-60.5 -355zM338 1237l170 256h131l-229 -256 h-72z" />
<glyph unicode="&#xf4;" horiz-adv-x="868" d="M100 537q0 262 86.5 411.5t247.5 149.5t247.5 -149.5t86.5 -411.5t-86.5 -411t-247.5 -149t-247.5 149t-86.5 411zM186 537q0 -227 60.5 -354.5t187.5 -127.5q126 0 187 128t61 354t-61 354.5t-187 128.5q-127 0 -187.5 -128t-60.5 -355zM244 1237l135 256h110l138 -256 h-68l-125 190l-123 -190h-67z" />
<glyph unicode="&#xf5;" horiz-adv-x="868" d="M100 537q0 262 86.5 411.5t247.5 149.5t247.5 -149.5t86.5 -411.5t-86.5 -411t-247.5 -149t-247.5 149t-86.5 411zM186 537q0 -227 60.5 -354.5t187.5 -127.5q126 0 187 128t61 354t-61 354.5t-187 128.5q-127 0 -187.5 -128t-60.5 -355zM227 1288q27 75 54 110.5 t67 35.5q24 0 50 -16t44.5 -34.5t39.5 -34.5t36 -16q19 0 33.5 18t36.5 76l53 -24q-27 -75 -54 -110.5t-67 -35.5q-30 0 -63 25.5t-61.5 50.5t-47.5 25q-17 0 -31 -18.5t-36 -75.5z" />
<glyph unicode="&#xf6;" horiz-adv-x="868" d="M100 537q0 262 86.5 411.5t247.5 149.5t247.5 -149.5t86.5 -411.5t-86.5 -411t-247.5 -149t-247.5 149t-86.5 411zM186 537q0 -227 60.5 -354.5t187.5 -127.5q126 0 187 128t61 354t-61 354.5t-187 128.5q-127 0 -187.5 -128t-60.5 -355zM270 1257v160h99v-160h-99z M500 1257v160h96v-160h-96z" />
<glyph unicode="&#xf7;" horiz-adv-x="860" d="M80 643v78h698v-78h-698zM356 367q0 31 21.5 52t52.5 21t52.5 -21t21.5 -52t-21.5 -52.5t-52.5 -21.5t-52.5 21.5t-21.5 52.5zM356 999q0 31 21.5 52.5t52.5 21.5t52.5 -21.5t21.5 -52.5t-21.5 -52t-52.5 -21t-52.5 21t-21.5 52z" />
<glyph unicode="&#xf8;" horiz-adv-x="864" d="M98 537q0 262 86.5 411.5t247.5 149.5q125 0 207 -94l37 71h74l-68 -131q84 -147 84 -407q0 -262 -86.5 -411t-247.5 -149q-123 0 -207 93l-37 -70h-75l67 131q-82 149 -82 406zM184 537q0 -202 43 -316l371 707q-61 92 -166 92q-127 0 -187.5 -128t-60.5 -355zM264 147 q64 -92 168 -92q126 0 187 128t61 354q0 198 -45 317z" />
<glyph unicode="&#xf9;" horiz-adv-x="876" d="M137 242v833h82v-825q0 -87 31 -141t100 -54q45 0 93 22t89.5 58t69 64.5t51.5 58.5v817h82v-1075h-82v166q-174 -189 -321 -189q-69 0 -114.5 39.5t-63 96.5t-17.5 129zM233 1493h129l173 -256h-70z" />
<glyph unicode="&#xfa;" horiz-adv-x="876" d="M137 242v833h82v-825q0 -87 31 -141t100 -54q45 0 93 22t89.5 58t69 64.5t51.5 58.5v817h82v-1075h-82v166q-174 -189 -321 -189q-69 0 -114.5 39.5t-63 96.5t-17.5 129zM340 1237l170 256h131l-229 -256h-72z" />
<glyph unicode="&#xfb;" horiz-adv-x="876" d="M137 242v833h82v-825q0 -87 31 -141t100 -54q45 0 93 22t89.5 58t69 64.5t51.5 58.5v817h82v-1075h-82v166q-174 -189 -321 -189q-69 0 -114.5 39.5t-63 96.5t-17.5 129zM246 1237l135 256h111l137 -256h-68l-125 190l-123 -190h-67z" />
<glyph unicode="&#xfc;" horiz-adv-x="876" d="M137 242v833h82v-825q0 -87 31 -141t100 -54q45 0 93 22t89.5 58t69 64.5t51.5 58.5v817h82v-1075h-82v166q-174 -189 -321 -189q-69 0 -114.5 39.5t-63 96.5t-17.5 129zM272 1257v160h99v-160h-99zM502 1257v160h96v-160h-96z" />
<glyph unicode="&#xfd;" horiz-adv-x="794" d="M59 1075h93l245 -946l246 946h92l-416 -1493h-92l129 414zM301 1237l170 256h131l-229 -256h-72z" />
<glyph unicode="&#xfe;" horiz-adv-x="870" d="M141 -418v1911h82v-571q125 176 266 176q46 0 86.5 -18.5t76.5 -61t61.5 -106.5t40 -159.5t14.5 -215.5q0 -288 -78 -424t-201 -136q-138 0 -266 175v-570h-82zM223 250q47 -81 116.5 -138t139.5 -57q100 0 151.5 127.5t51.5 354.5q0 228 -51 355.5t-152 127.5 q-70 0 -139.5 -58t-116.5 -139v-573z" />
<glyph unicode="&#xff;" horiz-adv-x="794" d="M59 1075h93l245 -946l246 946h92l-416 -1493h-92l129 414zM236 1257v160h98v-160h-98zM465 1257v160h96v-160h-96z" />
<glyph unicode="&#x100;" horiz-adv-x="985" d="M61 0l385 1434h93l385 -1434h-95l-102 395h-469l-102 -395h-95zM279 477h426l-213 826zM291 1597v74h401v-74h-401z" />
<glyph unicode="&#x101;" d="M92 313q0 93 22 164t59.5 112t83 61t97.5 20q17 0 36 -2t41.5 -7t38.5 -8.5t42 -12t36 -11.5t37.5 -12.5t30.5 -10.5v191q0 113 -35 168t-122 55q-44 0 -98 -17t-80.5 -29.5t-100.5 -49.5l-39 71q201 103 322 103q110 0 172.5 -68t62.5 -215v-815h-82v154 q-133 -177 -282 -177q-45 0 -85 16.5t-77 52.5t-58.5 104.5t-21.5 162.5zM178 311q0 -128 46.5 -189t125.5 -61q133 0 266 185v291q-155 53 -235 53q-56 0 -97 -23t-63.5 -63.5t-32.5 -88t-10 -104.5zM219 1288v74h402v-74h-402z" />
<glyph unicode="&#x102;" horiz-adv-x="985" d="M61 0l385 1434h93l385 -1434h-95l-102 395h-469l-102 -395h-95zM279 477h426l-213 826zM303 1745h68q0 -123 121 -123q122 0 122 123h66q0 -92 -50 -145.5t-138 -53.5q-89 0 -139 53.5t-50 145.5z" />
<glyph unicode="&#x103;" d="M92 313q0 93 22 164t59.5 112t83 61t97.5 20q17 0 36 -2t41.5 -7t38.5 -8.5t42 -12t36 -11.5t37.5 -12.5t30.5 -10.5v191q0 113 -35 168t-122 55q-44 0 -98 -17t-80.5 -29.5t-100.5 -49.5l-39 71q201 103 322 103q110 0 172.5 -68t62.5 -215v-815h-82v154 q-133 -177 -282 -177q-45 0 -85 16.5t-77 52.5t-58.5 104.5t-21.5 162.5zM178 311q0 -128 46.5 -189t125.5 -61q133 0 266 185v291q-155 53 -235 53q-56 0 -97 -23t-63.5 -63.5t-32.5 -88t-10 -104.5zM233 1436h68q0 -123 121 -123q123 0 123 123h65q0 -92 -50 -145.5 t-138 -53.5q-89 0 -139 53.5t-50 145.5z" />
<glyph unicode="&#x104;" horiz-adv-x="985" d="M61 0l385 1434h93l385 -1434h-4q-4 -4 -24 -20t-28 -23.5t-25.5 -24t-26 -29t-19 -30t-15 -35.5t-4.5 -37q0 -13 2.5 -24t5.5 -19t9 -14.5t10.5 -10.5t14 -7t14 -4.5t16 -2t15 -0.5h15h13.5l-12 -77q-23 0 -38.5 1t-44.5 8.5t-46.5 22t-32 44t-14.5 71.5q0 60 38 114 t101 97h-15l-102 395h-469l-102 -395h-95zM279 477h426l-213 826z" />
<glyph unicode="&#x105;" d="M92 313q0 93 22 164t59.5 112t83 61t97.5 20q17 0 36 -2t41.5 -7t38.5 -8.5t42 -12t36 -11.5t37.5 -12.5t30.5 -10.5v191q0 113 -35 168t-122 55q-44 0 -98 -17t-80.5 -29.5t-100.5 -49.5l-39 71q201 103 322 103q110 0 172.5 -68t62.5 -215v-815h-4q-3 -3 -23.5 -20 t-28 -24t-25.5 -24t-26 -29t-18.5 -29.5t-15 -35.5t-4.5 -37q0 -13 2.5 -24t5.5 -19t9 -14.5t10.5 -10.5t14 -7t14 -4.5t16 -2t15 -0.5h15h13.5l-13 -77q-23 0 -38.5 1t-44.5 8.5t-46.5 22t-32 44t-14.5 71.5q0 60 38 114t101 97h-2v154q-133 -177 -282 -177q-45 0 -85 16.5 t-77 52.5t-58.5 104.5t-21.5 162.5zM178 311q0 -128 46.5 -189t125.5 -61q133 0 266 185v291q-155 53 -235 53q-56 0 -97 -23t-63.5 -63.5t-32.5 -88t-10 -104.5z" />
<glyph unicode="&#x106;" horiz-adv-x="937" d="M119 717q0 153 20 277t54.5 209t82.5 142.5t103 84t117 26.5q51 0 100.5 -17t98 -52t83 -65.5t82.5 -78.5l-59 -53q-37 36 -50.5 49t-52.5 46t-64.5 47.5t-62 28t-69.5 13.5q-131 0 -212 -174.5t-81 -482.5t81 -483t212 -175q39 0 79.5 16t80 46t67 54.5t63.5 59.5l3 3 l2.5 2.5l3 3l2.5 2.5l57 -56q-48 -48 -82.5 -78.5t-83 -65.5t-98 -52t-100.5 -17q-78 0 -145 43t-119.5 130t-82.5 232t-30 335zM453 1546l170 256h131l-230 -256h-71z" />
<glyph unicode="&#x107;" horiz-adv-x="759" d="M100 539q0 264 89.5 411.5t220.5 147.5q22 0 45.5 -5t41.5 -11t41 -19t36 -21t34.5 -25t29 -23.5t27.5 -24.5t21 -19l-51 -57q-3 2 -17.5 15.5t-25 22.5t-29 24t-35 24.5t-36 20t-39.5 15.5t-39 5q-97 0 -162.5 -131.5t-65.5 -349.5t65.5 -351t162.5 -133q19 0 39 5 t39.5 15.5t36 20t35 24.5t29 24t25 22.5t17.5 15.5l51 -57q-1 -1 -21 -19t-27.5 -24.5t-29 -23.5t-34.5 -25t-36 -21t-41 -19t-41.5 -11t-45.5 -5q-130 0 -220 148.5t-90 413.5zM319 1237l170 256h132l-230 -256h-72z" />
<glyph unicode="&#x10a;" horiz-adv-x="937" d="M119 717q0 153 20 277t54.5 209t82.5 142.5t103 84t117 26.5q51 0 100.5 -17t98 -52t83 -65.5t82.5 -78.5l-59 -53q-37 36 -50.5 49t-52.5 46t-64.5 47.5t-62 28t-69.5 13.5q-131 0 -212 -174.5t-81 -482.5t81 -483t212 -175q39 0 79.5 16t80 46t67 54.5t63.5 59.5l3 3 l2.5 2.5l3 3l2.5 2.5l57 -56q-48 -48 -82.5 -78.5t-83 -65.5t-98 -52t-100.5 -17q-78 0 -145 43t-119.5 130t-82.5 232t-30 335zM455 1567v159h98v-159h-98z" />
<glyph unicode="&#x10b;" horiz-adv-x="759" d="M100 539q0 264 89.5 411.5t220.5 147.5q22 0 45.5 -5t41.5 -11t41 -19t36 -21t34.5 -25t29 -23.5t27.5 -24.5t21 -19l-51 -57q-3 2 -17.5 15.5t-25 22.5t-29 24t-35 24.5t-36 20t-39.5 15.5t-39 5q-97 0 -162.5 -131.5t-65.5 -349.5t65.5 -351t162.5 -133q19 0 39 5 t39.5 15.5t36 20t35 24.5t29 24t25 22.5t17.5 15.5l51 -57q-1 -1 -21 -19t-27.5 -24.5t-29 -23.5t-34.5 -25t-36 -21t-41 -19t-41.5 -11t-45.5 -5q-130 0 -220 148.5t-90 413.5zM365 1257v160h98v-160h-98z" />
<glyph unicode="&#x10c;" horiz-adv-x="937" d="M119 717q0 153 20 277t54.5 209t82.5 142.5t103 84t117 26.5q51 0 100.5 -17t98 -52t83 -65.5t82.5 -78.5l-59 -53q-37 36 -50.5 49t-52.5 46t-64.5 47.5t-62 28t-69.5 13.5q-131 0 -212 -174.5t-81 -482.5t81 -483t212 -175q39 0 79.5 16t80 46t67 54.5t63.5 59.5l3 3 l2.5 2.5l3 3l2.5 2.5l57 -56q-48 -48 -82.5 -78.5t-83 -65.5t-98 -52t-100.5 -17q-78 0 -145 43t-119.5 130t-82.5 232t-30 335zM328 1802h67l123 -190l125 190h68l-138 -256h-110z" />
<glyph unicode="&#x10d;" horiz-adv-x="759" d="M100 539q0 264 89.5 411.5t220.5 147.5q22 0 45.5 -5t41.5 -11t41 -19t36 -21t34.5 -25t29 -23.5t27.5 -24.5t21 -19l-51 -57q-3 2 -17.5 15.5t-25 22.5t-29 24t-35 24.5t-36 20t-39.5 15.5t-39 5q-97 0 -162.5 -131.5t-65.5 -349.5t65.5 -351t162.5 -133q19 0 39 5 t39.5 15.5t36 20t35 24.5t29 24t25 22.5t17.5 15.5l51 -57q-1 -1 -21 -19t-27.5 -24.5t-29 -23.5t-34.5 -25t-36 -21t-41 -19t-41.5 -11t-45.5 -5q-130 0 -220 148.5t-90 413.5zM223 1493h68l123 -190l125 190h67l-137 -256h-111z" />
<glyph unicode="&#x10e;" horiz-adv-x="1024" d="M170 0v1434h223q512 0 512 -717t-512 -717h-223zM256 82h135q220 0 322 156t102 479t-102 479t-322 156h-135v-1270zM348 1802h68l123 -190l125 190h67l-137 -256h-111z" />
<glyph unicode="&#x10f;" horiz-adv-x="880" d="M102 537q0 149 22 260t61 175t88 95t108 31q141 0 266 -176v571h82v-1493h-82v152q-128 -175 -266 -175q-59 0 -108 31t-88 95.5t-61 175t-22 258.5zM188 537q0 -227 51.5 -354.5t151.5 -127.5q69 0 138 57t118 138v573q-49 82 -118 139.5t-138 57.5q-101 0 -152 -127.5 t-51 -355.5zM807 1147l55 180h-45v166h96l15 -166l-84 -211z" />
<glyph unicode="&#x110;" horiz-adv-x="1028" d="M66 678v78h106v678h223q512 0 512 -717t-512 -717h-223v678h-106zM258 82h135q220 0 322 156t102 479t-102 479t-322 156h-135v-596h248v-78h-248v-596z" />
<glyph unicode="&#x111;" horiz-adv-x="870" d="M102 537q0 149 22 260t61 175t88 95t108 31q141 0 266 -176v315h-239v74h239v182h82v-182h94v-74h-94v-1237h-82v152q-128 -175 -266 -175q-59 0 -108 31t-88 95.5t-61 175t-22 258.5zM188 537q0 -227 51.5 -354.5t151.5 -127.5q69 0 138 57t118 138v573 q-49 82 -118 139.5t-138 57.5q-101 0 -152 -127.5t-51 -355.5z" />
<glyph unicode="&#x112;" horiz-adv-x="874" d="M170 0v1434h596v-82h-510v-594h424v-82h-424v-594h518v-82h-604zM270 1597v74h402v-74h-402z" />
<glyph unicode="&#x113;" d="M100 539q0 267 93 413t241 146q142 0 220.5 -127t78.5 -332q0 -33 -2 -65.5t-4 -49.5l-2 -16h-537q5 -205 68 -329t166 -124q35 0 72.5 14t77.5 43t58 43.5t52 45.5l55 -56q-181 -168 -319 -168q-137 0 -227.5 148.5t-90.5 413.5zM188 582h461q3 223 -54 330.5 t-159 107.5q-112 0 -177 -118t-71 -320zM233 1288v74h402v-74h-402z" />
<glyph unicode="&#x116;" horiz-adv-x="874" d="M170 0v1434h596v-82h-510v-594h424v-82h-424v-594h518v-82h-604zM422 1567v159h98v-159h-98z" />
<glyph unicode="&#x117;" d="M100 539q0 267 93 413t241 146q142 0 220.5 -127t78.5 -332q0 -33 -2 -65.5t-4 -49.5l-2 -16h-537q5 -205 68 -329t166 -124q35 0 72.5 14t77.5 43t58 43.5t52 45.5l55 -56q-181 -168 -319 -168q-137 0 -227.5 148.5t-90.5 413.5zM188 582h461q3 223 -54 330.5 t-159 107.5q-112 0 -177 -118t-71 -320zM383 1257v160h98v-160h-98z" />
<glyph unicode="&#x118;" horiz-adv-x="874" d="M170 0v1434h596v-82h-510v-594h424v-82h-424v-594h518v-82h-4q-3 -3 -23.5 -20t-28 -24t-25.5 -24t-26 -29t-18.5 -29.5t-15 -35.5t-4.5 -37q0 -13 2.5 -24t5 -19t9 -14.5t11 -10.5t13.5 -7t14 -4.5t16 -2t14.5 -0.5h15h13.5l-12 -77q-23 0 -38.5 1t-44.5 8.5t-46.5 22 t-32 44t-14.5 71.5q0 60 38 114t101 97h-524z" />
<glyph unicode="&#x119;" d="M100 539q0 267 93 413t241 146q142 0 220.5 -127t78.5 -332q0 -33 -2 -65.5t-4 -49.5l-2 -16h-537q5 -205 68 -329t166 -124q35 0 72.5 14t77.5 43t58 43.5t52 45.5l55 -56q-125 -113 -223 -149q-2 -2 -16.5 -14t-18.5 -15.5t-17.5 -15.5t-18.5 -18t-16 -18t-16 -20.5 t-12.5 -21t-11 -23t-6 -23.5t-2.5 -26t2.5 -24t5.5 -19t9 -14.5t10.5 -10.5t14 -7t14 -4.5t16 -2t15 -0.5h15h13.5l-13 -77q-23 0 -38.5 1t-44.5 8.5t-46.5 22t-32 44t-14.5 71.5q0 100 109 188q-135 2 -224.5 150t-89.5 412zM188 582h461q3 223 -54 330.5t-159 107.5 q-112 0 -177 -118t-71 -320z" />
<glyph unicode="&#x11a;" horiz-adv-x="874" d="M170 0v1434h596v-82h-510v-594h424v-82h-424v-594h518v-82h-604zM281 1782h67l123 -191l125 191h68l-138 -256h-110z" />
<glyph unicode="&#x11b;" d="M100 539q0 267 93 413t241 146q142 0 220.5 -127t78.5 -332q0 -33 -2 -65.5t-4 -49.5l-2 -16h-537q5 -205 68 -329t166 -124q35 0 72.5 14t77.5 43t58 43.5t52 45.5l55 -56q-181 -168 -319 -168q-137 0 -227.5 148.5t-90.5 413.5zM188 582h461q3 223 -54 330.5 t-159 107.5q-112 0 -177 -118t-71 -320zM242 1493h67l123 -190l125 190h68l-138 -256h-110z" />
<glyph unicode="&#x11e;" horiz-adv-x="1026" d="M119 717q0 153 20.5 277.5t55.5 209.5t83.5 142.5t103.5 83.5t116 26q54 0 107.5 -19.5t103 -56.5t86 -71.5t79.5 -81.5l-59 -58q-91 93 -133 127q-99 78 -180 78q-131 0 -212 -174.5t-81 -482.5q0 -305 81.5 -481.5t211.5 -176.5q136 0 307 236v379h-287v82h371v-756 h-84v178q-76 -91 -151.5 -146t-161.5 -55q-76 0 -142.5 43t-119.5 129.5t-84 232t-31 335.5zM319 1745h68q0 -123 121 -123q123 0 123 123h65q0 -92 -50 -145.5t-138 -53.5q-89 0 -139 53.5t-50 145.5z" />
<glyph unicode="&#x11f;" horiz-adv-x="870" d="M102 537q0 149 22 260t61 175t88 95t108 31q141 0 266 -176v153h82v-1175q0 -96 -20.5 -164.5t-58 -105t-82.5 -52.5t-103 -16q-69 0 -159.5 20t-170.5 51l31 80q180 -73 289 -73q95 0 143.5 62t48.5 198v252q-128 -175 -266 -175q-59 0 -108 31t-88 95.5t-61 175 t-22 258.5zM188 537q0 -227 51.5 -354.5t151.5 -127.5q69 0 138 57t118 138v573q-49 82 -118 139.5t-138 57.5q-101 0 -152 -127.5t-51 -355.5zM246 1436h67q0 -123 121 -123q123 0 123 123h66q0 -92 -50 -145.5t-139 -53.5q-88 0 -138 53.5t-50 145.5z" />
<glyph unicode="&#x120;" horiz-adv-x="1026" d="M119 717q0 153 20.5 277.5t55.5 209.5t83.5 142.5t103.5 83.5t116 26q54 0 107.5 -19.5t103 -56.5t86 -71.5t79.5 -81.5l-59 -58q-91 93 -133 127q-99 78 -180 78q-131 0 -212 -174.5t-81 -482.5q0 -305 81.5 -481.5t211.5 -176.5q136 0 307 236v379h-287v82h371v-756 h-84v178q-76 -91 -151.5 -146t-161.5 -55q-76 0 -142.5 43t-119.5 129.5t-84 232t-31 335.5zM457 1567v159h98v-159h-98z" />
<glyph unicode="&#x121;" horiz-adv-x="870" d="M102 537q0 149 22 260t61 175t88 95t108 31q141 0 266 -176v153h82v-1175q0 -96 -20.5 -164.5t-58 -105t-82.5 -52.5t-103 -16q-69 0 -159.5 20t-170.5 51l31 80q180 -73 289 -73q95 0 143.5 62t48.5 198v252q-128 -175 -266 -175q-59 0 -108 31t-88 95.5t-61 175 t-22 258.5zM188 537q0 -227 51.5 -354.5t151.5 -127.5q69 0 138 57t118 138v573q-49 82 -118 139.5t-138 57.5q-101 0 -152 -127.5t-51 -355.5zM383 1257v160h98v-160h-98z" />
<glyph unicode="&#x122;" horiz-adv-x="1026" d="M119 717q0 153 20.5 277.5t55.5 209.5t83.5 142.5t103.5 83.5t116 26q54 0 107.5 -19.5t103 -56.5t86 -71.5t79.5 -81.5l-59 -58q-91 93 -133 127q-99 78 -180 78q-131 0 -212 -174.5t-81 -482.5q0 -305 81.5 -481.5t211.5 -176.5q136 0 307 236v379h-287v82h371v-756 h-84v178q-76 -91 -151.5 -146t-161.5 -55q-76 0 -142.5 43t-119.5 129.5t-84 232t-31 335.5zM477 -483l55 180h-45v166h97l14 -166l-84 -211z" />
<glyph unicode="&#x123;" horiz-adv-x="870" d="M102 537q0 149 22 260t61 175t88 95t108 31q141 0 266 -176v153h82v-1175q0 -96 -20.5 -164.5t-58 -105t-82.5 -52.5t-103 -16q-69 0 -159.5 20t-170.5 51l31 80q180 -73 289 -73q95 0 143.5 62t48.5 198v252q-128 -175 -266 -175q-59 0 -108 31t-88 95.5t-61 175 t-22 258.5zM188 537q0 -227 51.5 -354.5t151.5 -127.5q69 0 138 57t118 138v573q-49 82 -118 139.5t-138 57.5q-101 0 -152 -127.5t-51 -355.5zM371 1423l84 211l37 -30l-56 -181h45v-166h-96z" />
<glyph unicode="&#x126;" horiz-adv-x="1062" d="M74 1071v74h106v289h86v-289h529v289h86v-289h106v-74h-106v-1071h-86v711h-529v-711h-86v1071h-106zM266 793h529v278h-529v-278z" />
<glyph unicode="&#x127;" horiz-adv-x="876" d="M47 1237v74h94v182h82v-182h240v-74h-240v-330q33 36 62 63t72 59.5t91.5 50.5t96.5 18q69 0 114 -39t62.5 -96t17.5 -129v-834h-82v825q0 87 -31 141t-100 54q-44 0 -92 -22t-90 -58.5t-69 -65t-52 -59.5v-815h-82v1237h-94z" />
<glyph unicode="&#x128;" horiz-adv-x="428" d="M6 1597q27 75 54 110.5t67 35.5q30 0 63 -25.5t61 -50.5t46 -25q19 0 33.5 18.5t36.5 76.5l53 -25q-27 -74 -54 -109.5t-67 -35.5q-30 0 -63 25t-61.5 50t-47.5 25q-17 0 -31.5 -18.5t-36.5 -75.5zM170 0v1434h86v-1434h-86z" />
<glyph unicode="&#x129;" horiz-adv-x="366" d="M-25 1288q27 75 54 110.5t67 35.5q24 0 50 -16t44.5 -34.5t39.5 -34.5t36 -16q19 0 33.5 18t36.5 76l53 -24q-27 -75 -54 -110.5t-67 -35.5q-30 0 -63 25.5t-61.5 50.5t-47.5 25q-17 0 -31 -18.5t-36 -75.5zM141 0v1075h82v-1075h-82z" />
<glyph unicode="&#x12a;" horiz-adv-x="428" d="M12 1597v74h402v-74h-402zM170 0v1434h86v-1434h-86z" />
<glyph unicode="&#x12b;" horiz-adv-x="366" d="M-18 1288v74h401v-74h-401zM141 0v1075h82v-1075h-82z" />
<glyph unicode="&#x12c;" horiz-adv-x="428" d="M25 1745h67q0 -123 121 -123q123 0 123 123h65q0 -92 -50 -145.5t-138 -53.5t-138 53.5t-50 145.5zM170 0v1434h86v-1434h-86z" />
<glyph unicode="&#x12d;" horiz-adv-x="366" d="M-6 1436h67q0 -123 121 -123q123 0 123 123h66q0 -92 -50 -145.5t-139 -53.5q-88 0 -138 53.5t-50 145.5zM141 0v1075h82v-1075h-82z" />
<glyph unicode="&#x12e;" horiz-adv-x="428" d="M39 -211q0 60 38 114t101 97h-6v1434h86v-1434h-4q-3 -3 -23.5 -20t-28 -24t-25.5 -24t-26 -29t-18.5 -29.5t-15 -35.5t-4.5 -37q0 -13 2.5 -24t5 -19t9 -14.5t11 -10.5t13.5 -7t14 -4.5t16 -2t14.5 -0.5h15h13.5l-12 -77q-23 0 -38.5 1t-44.5 8.5t-46.5 22t-32 44 t-14.5 71.5z" />
<glyph unicode="&#x12f;" horiz-adv-x="364" d="M6 -211q0 60 38 114t101 97h-4v1075h82v-1075h-2q-3 -3 -23.5 -20t-28 -24t-25.5 -24t-26 -29t-18.5 -29.5t-15 -35.5t-4.5 -37q0 -13 2.5 -24t5.5 -19t9 -14.5t10.5 -10.5t14 -7t14 -4.5t16 -2t15 -0.5h15h13.5l-13 -77q-23 0 -38.5 1t-44.5 8.5t-46.5 22t-32 44 t-14.5 71.5zM135 1327v160h94v-160h-94z" />
<glyph unicode="&#x130;" horiz-adv-x="425" d="M164 1567v159h98v-159h-98zM170 0v1434h86v-1434h-86z" />
<glyph unicode="&#x131;" horiz-adv-x="366" d="M141 0v1075h82v-1075h-82z" />
<glyph unicode="&#x132;" horiz-adv-x="851" d="M170 0v1434h86v-1434h-86zM430 -188q34 16 55 26.5t40.5 24t30 21.5t19.5 25t12.5 27t6 35.5t2.5 42v54.5v1366h86v-1366v-54.5t-1.5 -46t-4.5 -41t-8.5 -34t-13.5 -32t-20 -26.5t-28 -26t-37.5 -23.5t-47.5 -24.5t-60 -24z" />
<glyph unicode="&#x133;" horiz-adv-x="716" d="M135 1327v160h94v-160h-94zM141 0v1075h82v-1075h-82zM328 -346q27 13 45 21.5t35.5 20t28.5 17.5t21 18.5t15.5 19t10 23t6 25.5t3 32t1.5 37v46v1161h81v-1161v-54.5t-1.5 -46t-4.5 -41t-8 -34t-13 -32t-20 -26.5t-28 -26t-37.5 -23.5t-47.5 -24.5t-59 -24zM487 1327 v160h95v-160h-95z" />
<glyph unicode="&#x134;" horiz-adv-x="423" d="M4 -188q34 16 55 26.5t40.5 24t30 21.5t19.5 25t12.5 27t6 35.5t2.5 42v54.5v1366h86v-1366v-54.5t-1.5 -46t-4.5 -41t-8.5 -34t-13.5 -32t-20 -26.5t-28 -26t-37.5 -23.5t-47.5 -24.5t-60 -24zM20 1546l136 256h110l137 -256h-67l-125 191l-123 -191h-68z" />
<glyph unicode="&#x135;" horiz-adv-x="364" d="M-25 -346q27 13 45 21.5t35.5 20t28.5 17.5t21 18.5t15.5 19t10 23t6 25.5t3 32t1.5 37v46v1161h82v-1161v-54.5t-1.5 -46t-4.5 -41t-8 -34t-13 -32t-20 -26.5t-28 -26t-37.5 -23.5t-47.5 -24.5t-59 -24zM-8 1237l135 256h111l137 -256h-68l-125 190l-123 -190h-67z" />
<glyph unicode="&#x136;" horiz-adv-x="944" d="M170 0v1434h86v-850l492 850h102l-406 -689l455 -745h-106l-398 664l-139 -238v-426h-86zM416 -483l55 180h-45v166h96l15 -166l-84 -211z" />
<glyph unicode="&#x137;" horiz-adv-x="745" d="M141 0v1493h82v-1036l340 618h94l-254 -442l299 -633h-90l-256 553l-133 -229v-324h-82zM332 -483l55 180h-45v166h96l15 -166l-84 -211z" />
<glyph unicode="&#x138;" horiz-adv-x="745" d="M141 0v1075h82v-618l340 618h94l-254 -442l299 -633h-90l-256 553l-133 -229v-324h-82z" />
<glyph unicode="&#x139;" horiz-adv-x="800" d="M117 1546l170 256h131l-230 -256h-71zM170 0v1434h86v-1352h494v-82h-580z" />
<glyph unicode="&#x13a;" horiz-adv-x="385" d="M96 1606l170 256h131l-229 -256h-72zM152 0v1493h81v-1493h-81z" />
<glyph unicode="&#x13b;" horiz-adv-x="800" d="M170 0v1434h86v-1352h494v-82h-580zM399 -483l56 180h-45v166h96l14 -166l-84 -211z" />
<glyph unicode="&#x13c;" horiz-adv-x="387" d="M135 -483l55 180h-45v166h97l14 -166l-84 -211zM152 0v1493h81v-1493h-81z" />
<glyph unicode="&#x13d;" horiz-adv-x="800" d="M170 0v1434h86v-1352h494v-82h-580zM334 1087l55 181h-45v166h96l15 -166l-84 -211z" />
<glyph unicode="&#x13e;" horiz-adv-x="389" d="M152 0v1493h81v-1493h-81zM313 1147l56 180h-45v166h96l14 -166l-84 -211z" />
<glyph unicode="&#x13f;" horiz-adv-x="802" d="M170 0v1434h86v-1352h494v-82h-580zM561 657v160h98v-160h-98z" />
<glyph unicode="&#x140;" horiz-adv-x="393" d="M152 0v1493h81v-1493h-81zM324 657v160h98v-160h-98z" />
<glyph unicode="&#x141;" horiz-adv-x="813" d="M78 514v96l104 78v746h86v-680l195 147v-96l-195 -148v-575h494v-82h-580v592z" />
<glyph unicode="&#x142;" horiz-adv-x="415" d="M70 594v96l98 74v729h82v-668l98 74v-96l-98 -74v-729h-82v668z" />
<glyph unicode="&#x143;" horiz-adv-x="1062" d="M170 0v1434h90l547 -1248v1248h86v-1434h-90l-547 1247v-1247h-86zM442 1546l170 256h131l-229 -256h-72z" />
<glyph unicode="&#x144;" horiz-adv-x="876" d="M141 0v1075h82v-168q33 36 62 63t72 59.5t91.5 50.5t96.5 18q69 0 114 -39t62.5 -96t17.5 -129v-834h-82v825q0 87 -31 141t-100 54q-44 0 -92 -22t-90 -58.5t-69 -65t-52 -59.5v-815h-82zM344 1237l170 256h131l-229 -256h-72z" />
<glyph unicode="&#x145;" horiz-adv-x="1062" d="M170 0v1434h90l547 -1248v1248h86v-1434h-90l-547 1247v-1247h-86zM481 -483l56 180h-45v166h96l14 -166l-84 -211z" />
<glyph unicode="&#x146;" horiz-adv-x="876" d="M141 0v1075h82v-168q33 36 62 63t72 59.5t91.5 50.5t96.5 18q69 0 114 -39t62.5 -96t17.5 -129v-834h-82v825q0 87 -31 141t-100 54q-44 0 -92 -22t-90 -58.5t-69 -65t-52 -59.5v-815h-82zM381 -483l55 180h-45v166h96l15 -166l-84 -211z" />
<glyph unicode="&#x147;" horiz-adv-x="1062" d="M170 0v1434h90l547 -1248v1248h86v-1434h-90l-547 1247v-1247h-86zM348 1802h68l123 -190l125 190h67l-137 -256h-111z" />
<glyph unicode="&#x148;" horiz-adv-x="876" d="M141 0v1075h82v-168q33 36 62 63t72 59.5t91.5 50.5t96.5 18q69 0 114 -39t62.5 -96t17.5 -129v-834h-82v825q0 87 -31 141t-100 54q-44 0 -92 -22t-90 -58.5t-69 -65t-52 -59.5v-815h-82zM246 1493h67l123 -190l125 190h68l-137 -256h-111z" />
<glyph unicode="&#x149;" horiz-adv-x="876" d="M131 1237l55 180h-45v166h97l14 -166l-84 -211zM141 0v1075h82v-168q33 36 62 63t72 59.5t91.5 50.5t96.5 18q69 0 114 -39t62.5 -96t17.5 -129v-834h-82v825q0 87 -31 141t-100 54q-44 0 -92 -22t-90 -58.5t-69 -65t-52 -59.5v-815h-82z" />
<glyph unicode="&#x14a;" horiz-adv-x="1062" d="M170 0v1434h90l547 -1248v1248h86v-1366q0 -44 -0.5 -67t-3.5 -54.5t-8.5 -47.5t-16.5 -38t-26.5 -35t-39.5 -29.5t-54 -30.5t-72 -30l-31 76q102 49 131.5 80.5t32.5 103.5l-549 1251v-1247h-86z" />
<glyph unicode="&#x14b;" horiz-adv-x="874" d="M141 0v1075h82v-168q33 36 62 63t72 59.5t91.5 50.5t96.5 18q69 0 114 -39t62.5 -96t17.5 -129v-920v-54.5t-1.5 -46t-4.5 -41t-8 -34t-13 -32t-20 -26.5t-28 -26t-37.5 -23.5t-47.5 -24.5t-59 -24l-28 72q34 16 55 26.5t40.5 24.5t30 21.5t19.5 25.5t12 27t5.5 36 t2.5 43v56v911q0 87 -31 141t-100 54q-44 0 -92 -22t-90 -58.5t-69 -65t-52 -59.5v-815h-82z" />
<glyph unicode="&#x14c;" horiz-adv-x="1069" d="M119 717q0 739 416 739q415 0 415 -739q0 -740 -415 -740q-416 0 -416 740zM209 717q0 -94 6.5 -174t20.5 -156t39 -134.5t60.5 -102.5t86 -67.5t113.5 -23.5q75 0 132.5 34.5t93.5 93t58.5 144t31.5 179t9 207.5q0 94 -6.5 174t-20.5 156t-39 134t-60 102.5t-85.5 67.5 t-113.5 23t-113.5 -23.5t-86 -67.5t-60.5 -102t-39 -134t-20.5 -156t-6.5 -174zM334 1597v74h401v-74h-401z" />
<glyph unicode="&#x14d;" horiz-adv-x="868" d="M100 537q0 262 86.5 411.5t247.5 149.5t247.5 -149.5t86.5 -411.5t-86.5 -411t-247.5 -149t-247.5 149t-86.5 411zM186 537q0 -227 60.5 -354.5t187.5 -127.5q126 0 187 128t61 354t-61 354.5t-187 128.5q-127 0 -187.5 -128t-60.5 -355zM233 1288v74h402v-74h-402z" />
<glyph unicode="&#x14e;" horiz-adv-x="1069" d="M119 717q0 739 416 739q415 0 415 -739q0 -740 -415 -740q-416 0 -416 740zM209 717q0 -94 6.5 -174t20.5 -156t39 -134.5t60.5 -102.5t86 -67.5t113.5 -23.5q75 0 132.5 34.5t93.5 93t58.5 144t31.5 179t9 207.5q0 94 -6.5 174t-20.5 156t-39 134t-60 102.5t-85.5 67.5 t-113.5 23t-113.5 -23.5t-86 -67.5t-60.5 -102t-39 -134t-20.5 -156t-6.5 -174zM346 1745h68q0 -123 121 -123q122 0 122 123h66q0 -92 -50 -145.5t-138 -53.5q-89 0 -139 53.5t-50 145.5z" />
<glyph unicode="&#x14f;" horiz-adv-x="868" d="M100 537q0 262 86.5 411.5t247.5 149.5t247.5 -149.5t86.5 -411.5t-86.5 -411t-247.5 -149t-247.5 149t-86.5 411zM186 537q0 -227 60.5 -354.5t187.5 -127.5q126 0 187 128t61 354t-61 354.5t-187 128.5q-127 0 -187.5 -128t-60.5 -355zM246 1436h67q0 -123 121 -123 q123 0 123 123h66q0 -92 -50 -145.5t-139 -53.5q-88 0 -138 53.5t-50 145.5z" />
<glyph unicode="&#x150;" horiz-adv-x="1069" d="M119 717q0 739 416 739q415 0 415 -739q0 -740 -415 -740q-416 0 -416 740zM209 717q0 -94 6.5 -174t20.5 -156t39 -134.5t60.5 -102.5t86 -67.5t113.5 -23.5q75 0 132.5 34.5t93.5 93t58.5 144t31.5 179t9 207.5q0 94 -6.5 174t-20.5 156t-39 134t-60 102.5t-85.5 67.5 t-113.5 23t-113.5 -23.5t-86 -67.5t-60.5 -102t-39 -134t-20.5 -156t-6.5 -174zM381 1546l108 256h115l-168 -256h-55zM582 1546l106 256h115l-168 -256h-53z" />
<glyph unicode="&#x151;" horiz-adv-x="868" d="M100 537q0 262 86.5 411.5t247.5 149.5t247.5 -149.5t86.5 -411.5t-86.5 -411t-247.5 -149t-247.5 149t-86.5 411zM186 537q0 -227 60.5 -354.5t187.5 -127.5q126 0 187 128t61 354t-61 354.5t-187 128.5q-127 0 -187.5 -128t-60.5 -355zM279 1237l108 256h115l-168 -256 h-55zM479 1237l107 256h114l-168 -256h-53z" />
<glyph unicode="&#x152;" horiz-adv-x="1570" d="M119 717q0 739 416 739q228 0 331 -227v205h596v-82h-510v-594h424v-82h-424v-594h518v-82h-604v205q-103 -228 -331 -228q-416 0 -416 740zM209 717q0 -94 6.5 -174t20.5 -156t39 -134.5t60.5 -102.5t86 -67.5t113.5 -23.5q75 0 132.5 34.5t93.5 93t58.5 144t31.5 179 t9 207.5q0 94 -6.5 174t-20.5 156t-39 134t-60 102.5t-85.5 67.5t-113.5 23t-113.5 -23.5t-86 -67.5t-60.5 -102t-39 -134t-20.5 -156t-6.5 -174z" />
<glyph unicode="&#x153;" horiz-adv-x="1419" d="M100 537q0 262 86.5 411.5t247.5 149.5q104 0 179 -66t114 -188q41 124 117 189t174 65q142 0 220.5 -127t78.5 -332q0 -33 -2 -65.5t-4 -49.5l-2 -16h-537q5 -205 68 -329t166 -124q35 0 72.5 14t77.5 43t58 43.5t52 45.5l55 -56q-181 -168 -320 -168q-89 0 -161 65 t-113 189q-39 -123 -113.5 -188.5t-179.5 -65.5q-161 0 -247.5 149t-86.5 411zM186 537q0 -227 60.5 -354.5t187.5 -127.5q126 0 187 128t61 354t-61 354.5t-187 128.5q-127 0 -187.5 -128t-60.5 -355zM772 582h461q3 223 -54 330.5t-159 107.5q-112 0 -177 -118t-71 -320z " />
<glyph unicode="&#x154;" horiz-adv-x="999" d="M170 0v1434h322q85 0 153.5 -20t125 -64t87.5 -123t31 -189q0 -332 -285 -387l285 -651h-96l-275 643h-262v-643h-86zM256 725h233q143 0 226.5 76t83.5 237t-81.5 237.5t-219.5 76.5h-242v-627zM432 1546l170 256h131l-229 -256h-72z" />
<glyph unicode="&#x155;" horiz-adv-x="550" d="M141 0v1075h82v-233q39 105 87 161q83 95 196 84v-83q-52 0 -95.5 -18.5t-72 -48t-50.5 -65.5t-34 -72t-19.5 -65.5t-9.5 -48.5l-2 -18v-668h-82zM227 1237l170 256h131l-229 -256h-72z" />
<glyph unicode="&#x156;" horiz-adv-x="999" d="M170 0v1434h322q85 0 153.5 -20t125 -64t87.5 -123t31 -189q0 -332 -285 -387l285 -651h-96l-275 643h-262v-643h-86zM256 725h233q143 0 226.5 76t83.5 237t-81.5 237.5t-219.5 76.5h-242v-627zM440 -483l56 180h-45v166h96l14 -166l-84 -211z" />
<glyph unicode="&#x157;" horiz-adv-x="550" d="M125 -483l55 180h-45v166h96l15 -166l-84 -211zM141 0v1075h82v-233q39 105 87 161q83 95 196 84v-83q-52 0 -95.5 -18.5t-72 -48t-50.5 -65.5t-34 -72t-19.5 -65.5t-9.5 -48.5l-2 -18v-668h-82z" />
<glyph unicode="&#x158;" horiz-adv-x="999" d="M170 0v1434h322q85 0 153.5 -20t125 -64t87.5 -123t31 -189q0 -332 -285 -387l285 -651h-96l-275 643h-262v-643h-86zM256 725h233q143 0 226.5 76t83.5 237t-81.5 237.5t-219.5 76.5h-242v-627zM338 1802h68l122 -190l125 190h68l-137 -256h-111z" />
<glyph unicode="&#x159;" horiz-adv-x="550" d="M133 1493h68l123 -190l125 190h67l-137 -256h-111zM141 0v1075h82v-233q39 105 87 161q83 95 196 84v-83q-52 0 -95.5 -18.5t-72 -48t-50.5 -65.5t-34 -72t-19.5 -65.5t-9.5 -48.5l-2 -18v-668h-82z" />
<glyph unicode="&#x15a;" horiz-adv-x="882" d="M92 119l49 69q88 -60 162.5 -94.5t151.5 -34.5q103 0 175 68.5t72 194.5q0 55 -16 103.5t-39 84.5t-65 74.5t-78.5 64.5t-93.5 64q-41 27 -64.5 43t-59 43.5t-56.5 49.5t-45.5 54t-38 63.5t-22.5 73t-9 86.5q0 158 91.5 244t225.5 86q80 0 166 -30t152 -74l-50 -70 q-154 92 -266 92q-97 0 -164 -62t-67 -182q0 -60 17 -108t56 -90t78 -72t107 -74l49.5 -33t49 -34.5t50.5 -39.5t45.5 -42.5t43.5 -49.5t35.5 -54.5t29.5 -62.5t17 -69t7 -79q0 -87 -29 -155.5t-77 -108.5t-105.5 -60.5t-119.5 -20.5q-171 0 -365 142zM342 1546l170 256h131 l-229 -256h-72z" />
<glyph unicode="&#x15b;" horiz-adv-x="739" d="M86 104l47 64q152 -113 260 -113q72 0 124 49.5t52 137.5q0 44 -15.5 83t-35.5 65t-54.5 52.5t-57 39.5t-58.5 32q-42 22 -68 37t-64 45t-60 60t-39 76t-17 99q0 121 71.5 194t178.5 73q127 0 273 -105l-50 -61q-121 88 -219 88q-76 0 -124 -48.5t-48 -131.5q0 -23 4 -44 t9.5 -37.5t17 -33.5t20 -28t25 -24.5t24.5 -20.5t27 -18.5t25.5 -15t25.5 -13.5t21 -11q145 -75 208.5 -158.5t63.5 -191.5q0 -127 -74.5 -197t-179.5 -70q-147 0 -313 127zM272 1237l170 256h131l-229 -256h-72z" />
<glyph unicode="&#x15c;" horiz-adv-x="882" d="M92 119l49 69q88 -60 162.5 -94.5t151.5 -34.5q103 0 175 68.5t72 194.5q0 55 -16 103.5t-39 84.5t-65 74.5t-78.5 64.5t-93.5 64q-41 27 -64.5 43t-59 43.5t-56.5 49.5t-45.5 54t-38 63.5t-22.5 73t-9 86.5q0 158 91.5 244t225.5 86q80 0 166 -30t152 -74l-50 -70 q-154 92 -266 92q-97 0 -164 -62t-67 -182q0 -60 17 -108t56 -90t78 -72t107 -74l49.5 -33t49 -34.5t50.5 -39.5t45.5 -42.5t43.5 -49.5t35.5 -54.5t29.5 -62.5t17 -69t7 -79q0 -87 -29 -155.5t-77 -108.5t-105.5 -60.5t-119.5 -20.5q-171 0 -365 142zM250 1546l135 256h111 l137 -256h-68l-125 191l-123 -191h-67z" />
<glyph unicode="&#x15d;" horiz-adv-x="739" d="M86 104l47 64q152 -113 260 -113q72 0 124 49.5t52 137.5q0 44 -15.5 83t-35.5 65t-54.5 52.5t-57 39.5t-58.5 32q-42 22 -68 37t-64 45t-60 60t-39 76t-17 99q0 121 71.5 194t178.5 73q127 0 273 -105l-50 -61q-121 88 -219 88q-76 0 -124 -48.5t-48 -131.5q0 -23 4 -44 t9.5 -37.5t17 -33.5t20 -28t25 -24.5t24.5 -20.5t27 -18.5t25.5 -15t25.5 -13.5t21 -11q145 -75 208.5 -158.5t63.5 -191.5q0 -127 -74.5 -197t-179.5 -70q-147 0 -313 127zM180 1237l135 256h111l137 -256h-67l-125 190l-123 -190h-68z" />
<glyph unicode="&#x15e;" horiz-adv-x="882" d="M92 119l49 69q88 -60 162.5 -94.5t151.5 -34.5q103 0 175 68.5t72 194.5q0 55 -16 103.5t-39 84.5t-65 74.5t-78.5 64.5t-93.5 64q-41 27 -64.5 43t-59 43.5t-56.5 49.5t-45.5 54t-38 63.5t-22.5 73t-9 86.5q0 158 91.5 244t225.5 86q80 0 166 -30t152 -74l-50 -70 q-154 92 -266 92q-97 0 -164 -62t-67 -182q0 -60 17 -108t56 -90t78 -72t107 -74l49.5 -33t49 -34.5t50.5 -39.5t45.5 -42.5t43.5 -49.5t35.5 -54.5t29.5 -62.5t17 -69t7 -79q0 -152 -81.5 -238.5t-200.5 -101.5q43 -83 43 -160q0 -72 -37.5 -115t-97.5 -43q-54 0 -107 35 l25 72q19 -13 26.5 -17.5t19.5 -9t25 -4.5q39 0 61.5 26.5t22.5 79.5q0 58 -30 131q-171 0 -365 142z" />
<glyph unicode="&#x15f;" horiz-adv-x="737" d="M86 104l47 64q152 -113 260 -113q72 0 124 49.5t52 137.5q0 44 -15.5 83t-35.5 65t-54.5 52.5t-57 39.5t-58.5 32q-42 22 -68 37t-64 45t-60 60t-39 76t-17 99q0 121 71.5 194t178.5 73q127 0 273 -105l-50 -61q-121 88 -219 88q-76 0 -124 -48.5t-48 -131.5q0 -23 4 -44 t9.5 -37.5t17 -33.5t20 -28t25 -24.5t24.5 -20.5t27 -18.5t25.5 -15t25.5 -13.5t21 -11q145 -75 208.5 -158.5t63.5 -191.5q0 -119 -65.5 -187.5t-163.5 -76.5q43 -79 43 -158q0 -72 -37.5 -115t-97.5 -43q-54 0 -107 35l25 72q45 -31 72 -31q39 0 61.5 26.5t22.5 79.5 q0 59 -31 134q-76 5 -152.5 41.5t-136.5 82.5z" />
<glyph unicode="&#x160;" horiz-adv-x="882" d="M92 119l49 69q88 -60 162.5 -94.5t151.5 -34.5q103 0 175 68.5t72 194.5q0 55 -16 103.5t-39 84.5t-65 74.5t-78.5 64.5t-93.5 64q-41 27 -64.5 43t-59 43.5t-56.5 49.5t-45.5 54t-38 63.5t-22.5 73t-9 86.5q0 158 91.5 244t225.5 86q80 0 166 -30t152 -74l-50 -70 q-154 92 -266 92q-97 0 -164 -62t-67 -182q0 -60 17 -108t56 -90t78 -72t107 -74l49.5 -33t49 -34.5t50.5 -39.5t45.5 -42.5t43.5 -49.5t35.5 -54.5t29.5 -62.5t17 -69t7 -79q0 -87 -29 -155.5t-77 -108.5t-105.5 -60.5t-119.5 -20.5q-171 0 -365 142zM250 1802h67l123 -190 l125 190h68l-137 -256h-111z" />
<glyph unicode="&#x161;" horiz-adv-x="739" d="M86 104l47 64q152 -113 260 -113q72 0 124 49.5t52 137.5q0 44 -15.5 83t-35.5 65t-54.5 52.5t-57 39.5t-58.5 32q-42 22 -68 37t-64 45t-60 60t-39 76t-17 99q0 121 71.5 194t178.5 73q127 0 273 -105l-50 -61q-121 88 -219 88q-76 0 -124 -48.5t-48 -131.5q0 -23 4 -44 t9.5 -37.5t17 -33.5t20 -28t25 -24.5t24.5 -20.5t27 -18.5t25.5 -15t25.5 -13.5t21 -11q145 -75 208.5 -158.5t63.5 -191.5q0 -127 -74.5 -197t-179.5 -70q-147 0 -313 127zM178 1493h68l123 -190l125 190h67l-137 -256h-111z" />
<glyph unicode="&#x162;" horiz-adv-x="821" d="M51 1352v82h719v-82h-317v-1352h-19q8 -12 19 -33t23.5 -63t12.5 -82q0 -72 -37.5 -115t-97.5 -43q-53 0 -106 35l24 72q45 -31 72 -31q39 0 61.5 26.5t22.5 79.5q0 72 -41 154h-20v1352h-316z" />
<glyph unicode="&#x163;" horiz-adv-x="536" d="M63 1001v74h103v271l82 40v-311h205v-74h-205v-825q0 -121 71 -121q54 0 144 56l39 -66q-86 -52 -162 -63q43 -83 43 -160q0 -72 -37.5 -115t-97.5 -43q-54 0 -107 35l25 72q45 -31 72 -31q39 0 61.5 26.5t22.5 79.5q0 56 -31 131q-125 12 -125 209v815h-103z" />
<glyph unicode="&#x164;" horiz-adv-x="821" d="M51 1352v82h719v-82h-317v-1352h-86v1352h-316zM219 1802h68l123 -190l125 190h67l-137 -256h-111z" />
<glyph unicode="&#x165;" horiz-adv-x="536" d="M63 1001v74h103v271l82 40v-311h205v-74h-205v-825q0 -121 71 -121q54 0 144 56l39 -66q-115 -68 -197 -68q-139 0 -139 209v815h-103zM336 1237l55 180h-45v166h96l15 -166l-84 -211z" />
<glyph unicode="&#x166;" horiz-adv-x="837" d="M59 1352v82h719v-82h-317v-787h162v-73h-162v-492h-86v492h-160v73h160v787h-316z" />
<glyph unicode="&#x167;" horiz-adv-x="536" d="M63 1001v74h103v271l82 40v-311h205v-74h-205v-323h162v-74h-162v-428q0 -121 71 -121q54 0 144 56l39 -66q-115 -68 -197 -68q-139 0 -139 209v418h-74v74h74v323h-103z" />
<glyph unicode="&#x168;" horiz-adv-x="1030" d="M162 406v1028h86v-1022q0 -79 11.5 -138.5t39.5 -110t82 -77.5t133 -27t133 27t82.5 77.5t40.5 110t12 138.5v1022h86v-1028q0 -93 -18.5 -168t-58.5 -135t-110 -93t-167 -33t-167 33t-109.5 93t-57.5 135t-18 168zM307 1597q27 75 54 110.5t67 35.5q30 0 63 -25.5 t61 -50.5t46 -25q19 0 33.5 18.5t36.5 76.5l53 -25q-27 -74 -54 -109.5t-67 -35.5q-30 0 -63 25t-61.5 50t-47.5 25q-17 0 -31.5 -18.5t-36.5 -75.5z" />
<glyph unicode="&#x169;" horiz-adv-x="876" d="M137 242v833h82v-825q0 -87 31 -141t100 -54q45 0 93 22t89.5 58t69 64.5t51.5 58.5v817h82v-1075h-82v166q-174 -189 -321 -189q-69 0 -114.5 39.5t-63 96.5t-17.5 129zM244 1288q27 75 54 110.5t67 35.5q24 0 50 -16t44.5 -34.5t39.5 -34.5t36 -16q19 0 33 18t36 76 l53 -24q-28 -75 -54 -110.5t-66 -35.5q-30 0 -63 25.5t-61.5 50.5t-47.5 25q-17 0 -31.5 -18.5t-36.5 -75.5z" />
<glyph unicode="&#x16a;" horiz-adv-x="1030" d="M162 406v1028h86v-1022q0 -79 11.5 -138.5t39.5 -110t82 -77.5t133 -27t133 27t82.5 77.5t40.5 110t12 138.5v1022h86v-1028q0 -93 -18.5 -168t-58.5 -135t-110 -93t-167 -33t-167 33t-109.5 93t-57.5 135t-18 168zM313 1597v74h402v-74h-402z" />
<glyph unicode="&#x16b;" horiz-adv-x="876" d="M137 242v833h82v-825q0 -87 31 -141t100 -54q45 0 93 22t89.5 58t69 64.5t51.5 58.5v817h82v-1075h-82v166q-174 -189 -321 -189q-69 0 -114.5 39.5t-63 96.5t-17.5 129zM236 1288v74h401v-74h-401z" />
<glyph unicode="&#x16c;" horiz-adv-x="1030" d="M162 406v1028h86v-1022q0 -79 11.5 -138.5t39.5 -110t82 -77.5t133 -27t133 27t82.5 77.5t40.5 110t12 138.5v1022h86v-1028q0 -93 -18.5 -168t-58.5 -135t-110 -93t-167 -33t-167 33t-109.5 93t-57.5 135t-18 168zM326 1745h67q0 -123 121 -123q123 0 123 123h65 q0 -92 -50 -145.5t-138 -53.5t-138 53.5t-50 145.5z" />
<glyph unicode="&#x16d;" horiz-adv-x="876" d="M137 242v833h82v-825q0 -87 31 -141t100 -54q45 0 93 22t89.5 58t69 64.5t51.5 58.5v817h82v-1075h-82v166q-174 -189 -321 -189q-69 0 -114.5 39.5t-63 96.5t-17.5 129zM248 1436h67q0 -123 121 -123q123 0 123 123h66q0 -92 -50 -145.5t-139 -53.5q-88 0 -138 53.5 t-50 145.5z" />
<glyph unicode="&#x16e;" horiz-adv-x="1030" d="M162 406v1028h86v-1022q0 -79 11.5 -138.5t39.5 -110t82 -77.5t133 -27t133 27t82.5 77.5t40.5 110t12 138.5v1022h86v-1028q0 -93 -18.5 -168t-58.5 -135t-110 -93t-167 -33t-167 33t-109.5 93t-57.5 135t-18 168zM340 1702q0 74 51 126t125 52q75 0 126.5 -52 t51.5 -126q0 -75 -51.5 -125.5t-126.5 -50.5t-125.5 50.5t-50.5 125.5zM403 1702q0 -47 33 -80t80 -33t81 33t34 80t-34 81t-81 34t-80 -34t-33 -81z" />
<glyph unicode="&#x16f;" horiz-adv-x="876" d="M137 242v833h82v-825q0 -87 31 -141t100 -54q45 0 93 22t89.5 58t69 64.5t51.5 58.5v817h82v-1075h-82v166q-174 -189 -321 -189q-69 0 -114.5 39.5t-63 96.5t-17.5 129zM260 1393q0 74 51 126t125 52q75 0 126.5 -52t51.5 -126q0 -75 -51.5 -125.5t-126.5 -50.5 t-125.5 50.5t-50.5 125.5zM324 1393q0 -47 32.5 -80t79.5 -33t81 33t34 80t-34 80.5t-81 33.5t-79.5 -33.5t-32.5 -80.5z" />
<glyph unicode="&#x170;" horiz-adv-x="1030" d="M162 406v1028h86v-1022q0 -79 11.5 -138.5t39.5 -110t82 -77.5t133 -27t133 27t82.5 77.5t40.5 110t12 138.5v1022h86v-1028q0 -93 -18.5 -168t-58.5 -135t-110 -93t-167 -33t-167 33t-109.5 93t-57.5 135t-18 168zM360 1546l109 256h115l-168 -256h-56zM561 1546 l107 256h114l-168 -256h-53z" />
<glyph unicode="&#x171;" horiz-adv-x="876" d="M137 242v833h82v-825q0 -87 31 -141t100 -54q45 0 93 22t89.5 58t69 64.5t51.5 58.5v817h82v-1075h-82v166q-174 -189 -321 -189q-69 0 -114.5 39.5t-63 96.5t-17.5 129zM281 1237l108 256h115l-168 -256h-55zM481 1237l107 256h114l-167 -256h-54z" />
<glyph unicode="&#x172;" horiz-adv-x="1030" d="M162 406v1028h86v-1022q0 -79 11.5 -138.5t39.5 -110t82 -77.5t133 -27t133 27t82.5 77.5t40.5 110t12 138.5v1022h86v-1028q0 -343 -231 -412q-31 -25 -45 -38t-39.5 -40t-37 -55.5t-11.5 -59.5q0 -13 2.5 -24t5 -19t9 -14.5t11 -10.5t13.5 -7t14 -4.5t16 -2t14.5 -0.5 h15h13.5l-12 -77q-23 0 -38.5 1t-44.5 8.5t-46.5 22t-32 44t-14.5 71.5q0 100 109 188h-25q-97 0 -167 33t-109.5 93t-57.5 135t-18 168z" />
<glyph unicode="&#x173;" horiz-adv-x="876" d="M137 242v833h82v-825q0 -87 31 -141t100 -54q45 0 93 22t89.5 58t69 64.5t51.5 58.5v817h82v-1075h-4q-3 -3 -23.5 -20t-28 -24t-25.5 -24t-26 -29t-18.5 -29.5t-15 -35.5t-4.5 -37q0 -13 2.5 -24t5.5 -19t9 -14.5t10.5 -10.5t14 -7t14 -4.5t16 -2t15 -0.5h15h13.5 l-13 -77q-23 0 -38.5 1t-44.5 8.5t-46.5 22t-32 44t-14.5 71.5q0 60 38 114t101 97h-2v166q-174 -189 -321 -189q-69 0 -114.5 39.5t-63 96.5t-17.5 129z" />
<glyph unicode="&#x174;" horiz-adv-x="1351" d="M78 1434h94l227 -1274l230 1274h92l229 -1274l228 1274h94l-273 -1434h-98l-227 1247l-225 -1247h-99zM483 1546l135 256h111l137 -256h-67l-125 191l-123 -191h-68z" />
<glyph unicode="&#x175;" horiz-adv-x="1161" d="M70 1075h88l186 -930l195 930h84l192 -934l186 934h91l-234 -1075h-88l-190 918l-191 -918h-86zM389 1237l135 256h111l137 -256h-67l-125 190l-123 -190h-68z" />
<glyph unicode="&#x177;" horiz-adv-x="794" d="M59 1075h93l245 -946l246 946h92l-416 -1493h-92l129 414zM207 1237l135 256h111l137 -256h-68l-125 190l-123 -190h-67z" />
<glyph unicode="&#x178;" horiz-adv-x="907" d="M49 1434h96l308 -779l309 779h96l-362 -871v-563h-86v567zM291 1567v159h98v-159h-98zM520 1567v159h96v-159h-96z" />
<glyph unicode="&#x179;" horiz-adv-x="894" d="M80 0v78l616 1274h-585v82h686v-76l-621 -1276h629v-82h-725zM358 1546l170 256h131l-229 -256h-72z" />
<glyph unicode="&#x17a;" horiz-adv-x="724" d="M78 0v80l473 919h-459v76h549v-78l-473 -919h473v-78h-563zM262 1237l170 256h131l-229 -256h-72z" />
<glyph unicode="&#x17b;" horiz-adv-x="894" d="M80 0v78l616 1274h-585v82h686v-76l-621 -1276h629v-82h-725zM406 1565v159h98v-159h-98z" />
<glyph unicode="&#x17c;" horiz-adv-x="724" d="M78 0v80l473 919h-459v76h549v-78l-473 -919h473v-78h-563zM307 1257v160h99v-160h-99z" />
<glyph unicode="&#x17d;" horiz-adv-x="894" d="M80 0v78l616 1274h-585v82h686v-76l-621 -1276h629v-82h-725zM264 1802h68l123 -190l125 190h67l-137 -256h-111z" />
<glyph unicode="&#x17e;" horiz-adv-x="724" d="M78 0v80l473 919h-459v76h549v-78l-473 -919h473v-78h-563zM168 1493h68l122 -190l125 190h68l-137 -256h-111z" />
<glyph unicode="&#x17f;" horiz-adv-x="436" d="M70 1001v74h102v209q0 118 38 163.5t101 45.5q74 0 213 -61l-37 -66q-116 49 -163 49q-70 0 -70 -121v-1294h-82v1001h-102z" />
<glyph unicode="&#x192;" horiz-adv-x="745" d="M70 -418l229 1419h-104l16 74h100l35 209q20 122 60.5 165.5t103.5 43.5q82 0 215 -68l-45 -63q-117 53 -164 53q-34 0 -55 -28.5t-31 -92.5l-37 -219h207l-14 -74h-205l-229 -1419h-82z" />
<glyph unicode="&#x1fc;" horiz-adv-x="1421" d="M18 0l680 1434h613v-82h-510v-594h424v-82h-424v-594h518v-82h-604v395h-416l-182 -395h-99zM338 477h377v811zM678 1546l170 256h131l-229 -256h-72z" />
<glyph unicode="&#x1fd;" horiz-adv-x="1323" d="M92 315q0 180 71.5 267.5t178.5 87.5q14 0 28 -1.5t30.5 -5t29 -6.5t31 -9t28 -9.5t29 -11t25 -10t25 -11t20.5 -8.5q6 108 26 186q-3 121 -39 178.5t-122 57.5q-40 0 -93 -17t-82.5 -31t-101.5 -50l-35 73q201 103 318 103q165 0 215 -158q93 158 248 158 q142 0 220.5 -127t78.5 -332q0 -33 -2.5 -65.5t-4.5 -49.5l-2 -16h-536q5 -205 67.5 -329t165.5 -124q35 0 72.5 14t77.5 43t58 43.5t52 45.5l56 -56q-181 -168 -320 -168q-82 0 -150 55.5t-110 160.5q-148 -216 -309 -216q-46 0 -86.5 16t-77.5 52.5t-58.5 105.5t-21.5 164 zM178 313q0 -130 46.5 -191t123.5 -61q78 0 144 53.5t129 147.5q-33 122 -33 256q-5 2 -45 20.5t-59 26t-52 16.5t-57 9q-55 0 -94.5 -23t-61 -63.5t-31.5 -87.5t-10 -103zM561 1237l170 256h131l-229 -256h-72zM676 582h461q3 223 -54 330.5t-159 107.5q-112 0 -177 -118 t-71 -320z" />
<glyph unicode="&#x1fe;" horiz-adv-x="1064" d="M117 717q0 739 415 739q170 0 271 -125l51 103h80l-86 -172q100 -188 100 -545q0 -127 -12.5 -233.5t-42.5 -202t-76.5 -161.5t-119 -104.5t-165.5 -38.5q-171 0 -270 123l-51 -100h-78l84 168q-100 182 -100 549zM207 717q0 -290 61 -451l492 979q-82 129 -228 129 q-63 0 -113.5 -23t-85.5 -67.5t-60 -102.5t-39 -134t-20.5 -156t-6.5 -174zM305 188q80 -129 227 -129q63 0 113.5 23.5t86 67.5t60.5 102.5t39 134.5t20.5 156t6.5 174q0 285 -59 446zM436 1546l170 256h131l-229 -256h-72z" />
<glyph unicode="&#x1ff;" horiz-adv-x="864" d="M98 537q0 262 86.5 411.5t247.5 149.5q122 0 205 -92l37 69h74l-68 -129q86 -145 86 -409q0 -262 -86.5 -411t-247.5 -149q-126 0 -209 95l-37 -72h-75l69 133q-82 143 -82 404zM184 537q0 -203 43 -314l369 707q-62 90 -164 90q-127 0 -187.5 -128t-60.5 -355zM264 147 q61 -92 168 -92q126 0 187 128t61 354q0 202 -47 319zM332 1237l170 256h131l-230 -256h-71z" />
<glyph unicode="&#x218;" horiz-adv-x="882" d="M92 119l49 69q88 -60 162.5 -94.5t151.5 -34.5q103 0 175 68.5t72 194.5q0 55 -16 103.5t-39 84.5t-65 74.5t-78.5 64.5t-93.5 64q-41 27 -64.5 43t-59 43.5t-56.5 49.5t-45.5 54t-38 63.5t-22.5 73t-9 86.5q0 158 91.5 244t225.5 86q80 0 166 -30t152 -74l-50 -70 q-154 92 -266 92q-97 0 -164 -62t-67 -182q0 -60 17 -108t56 -90t78 -72t107 -74l49.5 -33t49 -34.5t50.5 -39.5t45.5 -42.5t43.5 -49.5t35.5 -54.5t29.5 -62.5t17 -69t7 -79q0 -87 -29 -155.5t-77 -108.5t-105.5 -60.5t-119.5 -20.5q-171 0 -365 142zM385 -483l55 180h-45 v166h97l14 -166l-84 -211z" />
<glyph unicode="&#x219;" horiz-adv-x="739" d="M86 104l47 64q152 -113 260 -113q72 0 124 49.5t52 137.5q0 44 -15.5 83t-35.5 65t-54.5 52.5t-57 39.5t-58.5 32q-42 22 -68 37t-64 45t-60 60t-39 76t-17 99q0 121 71.5 194t178.5 73q127 0 273 -105l-50 -61q-121 88 -219 88q-76 0 -124 -48.5t-48 -131.5q0 -23 4 -44 t9.5 -37.5t17 -33.5t20 -28t25 -24.5t24.5 -20.5t27 -18.5t25.5 -15t25.5 -13.5t21 -11q145 -75 208.5 -158.5t63.5 -191.5q0 -127 -74.5 -197t-179.5 -70q-147 0 -313 127zM311 -483l56 180h-45v166h96l14 -166l-84 -211z" />
<glyph unicode="&#x21a;" horiz-adv-x="821" d="M51 1352v82h719v-82h-317v-1352h-86v1352h-316zM352 -483l56 180h-46v166h97l14 -166l-84 -211z" />
<glyph unicode="&#x21b;" horiz-adv-x="536" d="M63 1001v74h103v271l82 40v-311h205v-74h-205v-825q0 -121 71 -121q54 0 144 56l39 -66q-115 -68 -197 -68q-139 0 -139 209v815h-103zM193 -483l55 180h-45v166h96l14 -166l-84 -211z" />
<glyph unicode="&#x2b0;" horiz-adv-x="593" d="M102 788v895h70v-346q106 111 197 111q65 0 95 -46.5t30 -119.5v-494h-70v484q0 112 -76 112q-49 0 -96 -37t-80 -79v-480h-70z" />
<glyph unicode="&#x2b2;" horiz-adv-x="274" d="M0 592q28 13 44 20.5t28.5 19.5t17.5 18t8.5 25t3.5 30v43v686h70v-684v-43.5t-2 -35t-5.5 -32t-10.5 -25t-17.5 -23.5t-26.5 -19.5t-37.5 -20.5t-49.5 -19zM98 1575v106h78v-106h-78z" />
<glyph unicode="&#x2b7;" horiz-adv-x="753" d="M49 1434h74l106 -537l115 537h66l112 -541l107 541h76l-146 -646h-70l-112 523l-113 -523h-69z" />
<glyph unicode="&#x2b8;" horiz-adv-x="518" d="M39 1434h76l143 -543l143 543h76l-258 -895h-76l80 243z" />
<glyph unicode="&#x2c6;" horiz-adv-x="366" d="M-8 1237l135 256h111l137 -256h-68l-125 190l-123 -190h-67z" />
<glyph unicode="&#x2c7;" horiz-adv-x="366" d="M-8 1493h67l123 -190l125 190h68l-137 -256h-111z" />
<glyph unicode="&#x2d8;" horiz-adv-x="364" d="M-6 1436h67q0 -123 121 -123q123 0 123 123h66q0 -92 -50 -145.5t-139 -53.5q-88 0 -138 53.5t-50 145.5z" />
<glyph unicode="&#x2d9;" horiz-adv-x="94" d="M-2 1257v160h98v-160h-98z" />
<glyph unicode="&#x2da;" horiz-adv-x="350" d="M-2 1393q0 74 51 126t125 52q75 0 126.5 -52t51.5 -126q0 -75 -51.5 -125.5t-126.5 -50.5t-125.5 50.5t-50.5 125.5zM61 1393q0 -47 33 -80t80 -33t81 33t34 80t-34 80.5t-81 33.5t-80 -33.5t-33 -80.5z" />
<glyph unicode="&#x2db;" horiz-adv-x="210" d="M-6 -211q0 67 50 128.5t126 105.5l41 -21q-3 -2 -24 -19.5t-28 -24.5t-25.5 -24.5t-26.5 -29.5t-19 -30t-15.5 -36t-4.5 -37q0 -13 2.5 -24t5 -19t9 -14.5t11 -10.5t13.5 -7t14 -4.5t16 -2t14.5 -0.5h15h13.5l-12 -77q-23 0 -38.5 1t-44.5 8.5t-46.5 22t-32 44 t-14.5 71.5z" />
<glyph unicode="&#x2dc;" horiz-adv-x="397" d="M-8 1288q27 75 54 110.5t67 35.5q24 0 50 -16t44.5 -34.5t39.5 -34.5t36 -16q19 0 33 18t36 76l54 -24q-27 -75 -54 -110.5t-67 -35.5q-30 0 -63 25.5t-61.5 50.5t-47.5 25q-17 0 -31.5 -18.5t-36.5 -75.5z" />
<glyph unicode="&#x2dd;" horiz-adv-x="409" d="M-6 1237l108 256h115l-168 -256h-55zM195 1237l106 256h115l-168 -256h-53z" />
<glyph unicode="&#x2e3;" horiz-adv-x="559" d="M43 788l195 326l-187 320h88l142 -271l141 271h86l-186 -320l196 -326h-90l-147 277l-148 -277h-90z" />
<glyph unicode="&#x3c0;" horiz-adv-x="796" d="M57 993v82h682v-82h-125v-993h-82v993h-268v-993h-82v993h-125z" />
<glyph unicode="&#x1e80;" horiz-adv-x="1351" d="M78 1434h94l227 -1274l230 1274h92l229 -1274l228 1274h94l-273 -1434h-98l-227 1247l-225 -1247h-99zM471 1802h129l172 -256h-70z" />
<glyph unicode="&#x1e81;" horiz-adv-x="1161" d="M70 1075h88l186 -930l195 930h84l192 -934l186 934h91l-234 -1075h-88l-190 918l-191 -918h-86zM377 1493h129l172 -256h-70z" />
<glyph unicode="&#x1e82;" horiz-adv-x="1351" d="M78 1434h94l227 -1274l230 1274h92l229 -1274l228 1274h94l-273 -1434h-98l-227 1247l-225 -1247h-99zM578 1546l170 256h131l-230 -256h-71z" />
<glyph unicode="&#x1e83;" horiz-adv-x="1161" d="M70 1075h88l186 -930l195 930h84l192 -934l186 934h91l-234 -1075h-88l-190 918l-191 -918h-86zM483 1237l170 256h131l-229 -256h-72z" />
<glyph unicode="&#x1e84;" horiz-adv-x="1351" d="M78 1434h94l227 -1274l230 1274h92l229 -1274l228 1274h94l-273 -1434h-98l-227 1247l-225 -1247h-99zM512 1567v159h98v-159h-98zM741 1567v159h97v-159h-97z" />
<glyph unicode="&#x1e85;" horiz-adv-x="1161" d="M70 1075h88l186 -930l195 930h84l192 -934l186 934h91l-234 -1075h-88l-190 918l-191 -918h-86zM418 1257v160h98v-160h-98zM647 1257v160h96v-160h-96z" />
<glyph unicode="&#x1e9e;" horiz-adv-x="1155" d="M170 0v1051q0 112 25.5 191t70.5 119t93.5 56.5t107.5 16.5h457v-70l-312 -526q100 -4 179.5 -35t128.5 -77t82 -105.5t46 -118t13 -117.5q0 -58 -12.5 -114.5t-40.5 -110t-68 -94t-100.5 -65t-132.5 -24.5q-148 0 -324 115l49 70q72 -48 135.5 -75.5t134.5 -27.5 q69 0 123.5 29.5t86 78t47.5 105t16 115.5q0 46 -9 91.5t-35.5 97.5t-67.5 91t-113.5 65t-165.5 26h-76v71l309 523h-350q-100 0 -155.5 -71.5t-55.5 -240.5v-1040h-86z" />
<glyph unicode="&#x1ef2;" horiz-adv-x="907" d="M49 1434h96l308 -779l309 779h96l-362 -871v-563h-86v567zM250 1802h129l172 -256h-70z" />
<glyph unicode="&#x1ef3;" horiz-adv-x="794" d="M59 1075h93l245 -946l246 946h92l-416 -1493h-92l129 414zM195 1493h129l172 -256h-70z" />
<glyph unicode="&#x2000;" horiz-adv-x="940" />
<glyph unicode="&#x2001;" horiz-adv-x="1880" />
<glyph unicode="&#x2002;" horiz-adv-x="940" />
<glyph unicode="&#x2003;" horiz-adv-x="1880" />
<glyph unicode="&#x2004;" horiz-adv-x="626" />
<glyph unicode="&#x2005;" horiz-adv-x="470" />
<glyph unicode="&#x2006;" horiz-adv-x="313" />
<glyph unicode="&#x2007;" horiz-adv-x="313" />
<glyph unicode="&#x2008;" horiz-adv-x="235" />
<glyph unicode="&#x2009;" horiz-adv-x="376" />
<glyph unicode="&#x200a;" horiz-adv-x="104" />
<glyph unicode="&#x2010;" horiz-adv-x="651" d="M135 543v82h381v-82h-381z" />
<glyph unicode="&#x2011;" horiz-adv-x="651" d="M135 543v82h381v-82h-381z" />
<glyph unicode="&#x2012;" horiz-adv-x="651" d="M135 543v82h381v-82h-381z" />
<glyph unicode="&#x2013;" d="M135 543v82h565v-82h-565z" />
<glyph unicode="&#x2014;" horiz-adv-x="980" d="M135 543v82h711v-82h-711z" />
<glyph unicode="&#x2018;" horiz-adv-x="360" d="M113 1233l90 231l39 -30l-60 -201h49v-186h-102z" />
<glyph unicode="&#x2019;" horiz-adv-x="350" d="M119 1047l59 200h-49v187h102l17 -187l-90 -231z" />
<glyph unicode="&#x201a;" horiz-adv-x="376" d="M123 -201l59 201h-49v186h103l16 -186l-90 -231z" />
<glyph unicode="&#x201c;" horiz-adv-x="595" d="M113 1233l90 231l39 -30l-60 -201h49v-186h-102zM348 1233l90 231l39 -30l-59 -201h49v-186h-102z" />
<glyph unicode="&#x201d;" horiz-adv-x="585" d="M119 1047l59 200h-49v187h102l17 -187l-90 -231zM354 1047l60 200h-49v187h102l16 -187l-90 -231z" />
<glyph unicode="&#x201e;" horiz-adv-x="612" d="M123 -201l59 201h-49v186h103l16 -186l-90 -231zM358 -201l60 201h-49v186h102l16 -186l-90 -231z" />
<glyph unicode="&#x2020;" horiz-adv-x="829" d="M61 838v90l318 -13v519h70v-521l319 15v-90l-319 12v-1268h-70v1268z" />
<glyph unicode="&#x2021;" horiz-adv-x="911" d="M102 301v90l318 -12v471l-318 -12v90l318 -13v519h69v-521l320 15v-90l-320 12v-473l320 14v-90l-320 12v-731h-69v731z" />
<glyph unicode="&#x2022;" horiz-adv-x="782" d="M168 584q0 92 65.5 157.5t157.5 65.5t157.5 -65.5t65.5 -157.5t-65.5 -158t-157.5 -66t-157.5 66t-65.5 158z" />
<glyph unicode="&#x2026;" horiz-adv-x="903" d="M133 0v186h107v-186h-107zM399 0v186h107v-186h-107zM664 0v186h106v-186h-106z" />
<glyph unicode="&#x202f;" horiz-adv-x="376" />
<glyph unicode="&#x2030;" horiz-adv-x="2011" d="M88 1077q0 174 61.5 276.5t186.5 102.5q124 0 185 -102.5t61 -276.5q0 -176 -61.5 -282.5t-184.5 -106.5q-84 0 -141 52t-82 137.5t-25 199.5zM168 1077q0 -89 15 -157.5t54 -114t99 -45.5q58 0 96 45.5t53 114t15 157.5q0 90 -15 156t-53 108.5t-96 42.5q-88 0 -128 -84 t-40 -223zM414 0l518 1434h78l-518 -1434h-78zM844 367q0 174 61.5 276t186.5 102q124 0 184.5 -102t60.5 -276q0 -176 -61 -283t-184 -107q-84 0 -141 52.5t-82 138t-25 199.5zM924 367q0 -90 15 -158t54 -114t99 -46q44 0 76.5 25.5t51 71t27 100.5t8.5 121q0 139 -39 223 t-124 84q-88 0 -128 -84t-40 -223zM1432 365q0 174 61 276t186 102q124 0 185 -102t61 -276q0 -176 -61.5 -283t-184.5 -107q-84 0 -140.5 52.5t-81.5 138t-25 199.5zM1511 365q0 -90 15 -158t54 -114t99 -46q58 0 96 46t53 114.5t15 157.5q0 90 -15 156t-53 108.5t-96 42.5 q-88 0 -128 -84t-40 -223z" />
<glyph unicode="&#x2039;" horiz-adv-x="606" d="M72 551v65l428 467v-114l-353 -385l353 -385v-115z" />
<glyph unicode="&#x203a;" horiz-adv-x="606" d="M106 84v115l353 385l-353 385v114l429 -467v-65z" />
<glyph unicode="&#x2044;" horiz-adv-x="204" d="M-170 0l471 1434h76l-471 -1434h-76z" />
<glyph unicode="&#x205f;" horiz-adv-x="470" />
<glyph unicode="&#x2070;" horiz-adv-x="638" d="M90 1219q0 444 229 444q230 0 230 -444q0 -445 -230 -445q-229 0 -229 445zM164 1219q0 -379 155 -379q156 0 156 379q0 378 -156 378q-155 0 -155 -378z" />
<glyph unicode="&#x2074;" horiz-adv-x="610" d="M61 987v62l295 600h95v-594h96v-68h-96v-199h-72v199h-318zM131 1055h248v501z" />
<glyph unicode="&#x2075;" horiz-adv-x="569" d="M74 856l32 62l8 -7q9 -7 14 -11t16.5 -11.5t20.5 -13t22 -12t24.5 -10t25.5 -6.5t27 -3q62 0 106 59.5t44 153.5q0 87 -39 146t-107 59q-55 0 -131 -56l-39 21l35 422h332v-68h-272l-17 -283q56 31 107 31q94 0 150 -79t56 -195q0 -73 -23 -135.5t-74 -104t-120 -41.5 q-100 0 -198 82z" />
<glyph unicode="&#x2076;" horiz-adv-x="600" d="M86 1130q-1 252 92 392.5t225 140.5q21 0 41.5 -3.5t30.5 -7.5l10 -3l-16 -66q-28 12 -63 12q-86 0 -155 -91.5t-87 -270.5q24 40 65 72t101 32q90 0 143 -80t53 -194q0 -120 -59 -204.5t-154 -84.5q-57 0 -102 31t-71.5 82.5t-40 113.5t-13.5 129zM160 1128 q0 -118 40 -202t111 -84q68 0 105 66t37 155q0 83 -34.5 146t-101.5 63q-59 0 -101 -44t-56 -95v-5z" />
<glyph unicode="&#x2077;" horiz-adv-x="501" d="M57 1581v68h396v-58q-9 -16 -24.5 -45.5t-54.5 -119.5t-68.5 -180.5t-54 -217t-24.5 -240.5h-77q0 344 219 793h-312z" />
<glyph unicode="&#x2078;" horiz-adv-x="606" d="M78 997q0 153 162 254q-125 84 -125 217q0 86 53 140.5t135 54.5q84 0 137.5 -54.5t53.5 -140.5q0 -132 -127 -217q163 -102 163 -254q0 -104 -63.5 -163.5t-163.5 -59.5q-98 0 -161.5 59.5t-63.5 163.5zM152 999q0 -74 43.5 -116.5t107.5 -42.5q66 0 110 42.5t44 116.5 q0 75 -42.5 125t-111.5 90q-68 -41 -109.5 -90.5t-41.5 -124.5zM186 1460q0 -106 117 -174q117 68 117 174q0 58 -32.5 97.5t-84.5 39.5t-84.5 -39.5t-32.5 -97.5z" />
<glyph unicode="&#x2079;" horiz-adv-x="600" d="M74 1374q0 120 58.5 204.5t154.5 84.5q56 0 101 -31t71.5 -82.5t40.5 -113.5t14 -129q1 -252 -92 -392.5t-225 -140.5q-21 0 -41.5 3.5t-30.5 6.5l-10 4l16 66q29 -12 62 -12q86 0 154.5 91.5t86.5 270.5q-65 -104 -164 -104q-91 0 -143.5 79.5t-52.5 194.5zM145 1374 q0 -83 35.5 -146t102.5 -63q57 0 100 43.5t57 94.5v6q0 118 -40 202t-111 84q-68 0 -106 -66t-38 -155z" />
<glyph unicode="&#x207a;" horiz-adv-x="585" d="M74 1167v62h190v211h58v-211h192v-62h-192v-211h-58v211h-190z" />
<glyph unicode="&#x207d;" horiz-adv-x="342" d="M109 819v795q0 49 3 72.5t17.5 50.5t45 45t85.5 37l21 -56q-72 -33 -86.5 -56t-14.5 -95v-791q0 -72 14.5 -95.5t86.5 -57.5l-21 -56q-44 15 -72 31t-44.5 31t-24 40t-9 45t-1.5 60z" />
<glyph unicode="&#x207e;" horiz-adv-x="342" d="M61 668q72 33 86.5 56t14.5 95v791q0 72 -14.5 95.5t-86.5 57.5l21 56q44 -15 72 -31t44.5 -31t24 -40t9 -45t1.5 -60v-795q0 -49 -3 -72.5t-17.5 -50.5t-45 -45t-85.5 -37z" />
<glyph unicode="&#x207f;" horiz-adv-x="593" d="M102 788v646h70v-97q106 111 197 111q65 0 95 -46.5t30 -119.5v-494h-70v484q0 112 -76 112q-49 0 -96 -37t-80 -79v-480h-70z" />
<glyph unicode="&#x2080;" horiz-adv-x="638" d="M90 123q0 444 229 444q230 0 230 -444q0 -445 -230 -445q-229 0 -229 445zM164 123q0 -379 155 -379q156 0 156 379t-156 379q-155 0 -155 -379z" />
<glyph unicode="&#x2081;" horiz-adv-x="428" d="M47 444l148 109h65v-860h-72v776l-106 -78z" />
<glyph unicode="&#x2082;" horiz-adv-x="569" d="M74 -246q0 47 10 90.5t20.5 71.5t36.5 63t39 49.5t47 49t43 43.5q140 143 140 252q0 57 -34.5 91t-88.5 34q-73 0 -162 -66l-35 55q104 80 203 80q83 0 136.5 -51.5t53.5 -142.5q0 -28 -6.5 -56.5t-13 -49.5t-25.5 -51t-26.5 -43t-35.5 -45t-33 -38t-38 -40l-33 -34 q-65 -67 -91.5 -117.5t-26.5 -138.5h329v-67h-409v61z" />
<glyph unicode="&#x2083;" horiz-adv-x="577" d="M66 -250l38 57q86 -59 160 -59q68 0 113 48.5t45 131.5q0 52 -19.5 93t-51 64t-66.5 34.5t-70 11.5h-16v70h20q69 0 122.5 47.5t53.5 126.5q0 60 -32.5 91.5t-86.5 31.5q-73 0 -147 -58l-35 52q96 75 191 75q86 0 134 -53.5t48 -130.5q0 -65 -35 -124t-106 -91 q74 -21 122 -86.5t48 -155.5q0 -103 -58 -175.5t-168 -72.5q-107 0 -204 72z" />
<glyph unicode="&#x2084;" horiz-adv-x="610" d="M61 -47l295 600h95v-594h96v-68h-96v-198h-72v198h-318v62zM131 -41h248v502z" />
<glyph unicode="&#x2085;" horiz-adv-x="569" d="M74 -240l32 62l8 -7q9 -7 14 -11t16.5 -11.5t20.5 -13t22 -12t24.5 -10t25.5 -6.5t27 -3q62 0 106 59.5t44 153.5q0 87 -39 146t-107 59q-57 0 -131 -55l-39 20l35 422h332v-68h-272l-17 -282q54 30 107 30q94 0 150 -79t56 -195q0 -73 -23 -135.5t-74 -104t-120 -41.5 q-100 0 -198 82z" />
<glyph unicode="&#x2086;" horiz-adv-x="600" d="M86 35q-1 252 92 392t225 140q21 0 41.5 -3.5t30.5 -7.5l10 -3l-16 -66q-28 13 -63 13q-86 0 -155 -92t-87 -271q62 105 166 105q90 0 143 -80.5t53 -194.5q0 -120 -59 -204.5t-154 -84.5q-75 0 -128 54t-76 132.5t-23 170.5zM160 33q0 -118 40 -202.5t111 -84.5 q68 0 105 66t37 155q0 83 -34.5 146t-101.5 63q-59 0 -101 -44t-56 -95v-4z" />
<glyph unicode="&#x2087;" horiz-adv-x="501" d="M57 485v68h396v-57q-9 -16 -24.5 -45.5t-54.5 -119.5t-68.5 -180.5t-54 -217t-24.5 -240.5h-77q0 343 219 792h-312z" />
<glyph unicode="&#x2088;" horiz-adv-x="606" d="M78 -98q0 153 162 254q-125 84 -125 217q0 86 53 140t135 54q84 0 137.5 -54t53.5 -140q0 -132 -127 -217q163 -102 163 -254q0 -105 -63.5 -164.5t-163.5 -59.5q-98 0 -161.5 60t-63.5 164zM152 -96q0 -74 43.5 -117t107.5 -43q66 0 110 43t44 117q0 75 -42.5 125 t-111.5 90q-68 -41 -109.5 -90.5t-41.5 -124.5zM186 365q0 -107 117 -175q117 68 117 175q0 58 -32.5 97.5t-84.5 39.5t-84.5 -39.5t-32.5 -97.5z" />
<glyph unicode="&#x2089;" horiz-adv-x="600" d="M74 279q0 120 58.5 204t154.5 84q56 0 101 -31t71.5 -82.5t40.5 -113.5t14 -129q1 -252 -92 -392.5t-225 -140.5q-21 0 -41.5 4t-30.5 8l-10 3l16 65q29 -12 62 -12q86 0 154.5 92t86.5 271q-65 -105 -164 -105q-91 0 -143.5 80t-52.5 195zM145 279q0 -83 35.5 -146 t102.5 -63q58 0 100.5 43t56.5 94v6q0 118 -40 202.5t-111 84.5q-68 0 -106 -66t-38 -155z" />
<glyph unicode="&#x208a;" horiz-adv-x="585" d="M74 72v61h190v211h58v-211h192v-61h-192v-211h-58v211h-190z" />
<glyph unicode="&#x208d;" horiz-adv-x="342" d="M109 -276v794q0 49 3 72.5t17.5 50.5t45 45t85.5 37l21 -55q-72 -33 -86.5 -56t-14.5 -96v-790q0 -73 14.5 -96.5t86.5 -57.5l-21 -55q-44 15 -72 31t-44.5 31t-24 40t-9 45t-1.5 60z" />
<glyph unicode="&#x208e;" horiz-adv-x="339" d="M59 -428q72 33 86.5 56t14.5 96v790q0 73 -14.5 96.5t-86.5 57.5l21 55q44 -15 72 -31t44.5 -31t24 -40t9 -45t1.5 -60v-795q0 -39 -1.5 -59t-9 -44.5t-24 -39t-44.5 -30.5t-72 -31z" />
<glyph unicode="&#x20a1;" horiz-adv-x="819" d="M115 719q0 264 89.5 411.5t219.5 147.5l18 -2l25 158h63l-26 -170q20 -7 53 -25l31 195h63l-37 -232q42 -32 101 -86l-51 -57l-64 57l-139 -876q24 6 49.5 18.5t50.5 31t41 31.5t37.5 33.5t24.5 22.5l51 -58q-34 -33 -49 -46.5t-55.5 -44.5t-80 -47.5t-81.5 -20.5 l-25 -160h-64l25 160q-31 7 -53 18l-29 -178h-63l34 217q-74 66 -116.5 193.5t-42.5 308.5zM201 719q0 -263 90 -397l139 878h-2q-97 0 -162 -131.5t-65 -349.5zM344 264q32 -21 53 -26l146 919q-29 22 -51 29z" />
<glyph unicode="&#x20a4;" horiz-adv-x="813" d="M119 0v72q13 17 32.5 47.5t61 121.5t59.5 179h-139v82h152q4 40 4 59q0 39 -8 105h-148v82h127q-12 41 -44 122.5t-49 147t-17 135.5q0 142 72.5 222.5t191.5 80.5q58 0 118.5 -22t96 -44.5t84.5 -58.5l-51 -65q-77 56 -132 82t-110 26q-84 0 -134 -59.5t-50 -165.5 q0 -63 18.5 -128t49 -143.5t44.5 -129.5h252v-82h-233q8 -66 8 -103q0 -21 -4 -61h229v-82h-240q-20 -106 -59 -197t-70 -141h465v-82h-577z" />
<glyph unicode="&#x20a7;" horiz-adv-x="980" d="M141 973v74h45v387h289q382 0 397 -387h37v-74h-39q-4 -109 -36 -185.5t-87.5 -118.5t-121.5 -60.5t-150 -18.5h-203v-590h-86v973h-45zM272 672h209q130 0 210 71.5t89 229.5h-508v-301zM272 1047h508q-7 160 -87.5 232.5t-211.5 72.5h-209v-305z" />
<glyph unicode="&#x20a9;" horiz-adv-x="1464" d="M115 487v78h184l-53 279h-131v78h116l-96 512h94l90 -512h275l92 512h92l92 -512h273l92 512h94l-98 -512h119v-78h-133l-54 -279h187v-78h-201l-92 -487h-99l-227 1247l-225 -1247h-98l-95 487h-198zM334 844l51 -279h145l50 279h-246zM397 487l60 -327l59 327h-119z M885 844l49 -279h145l49 279h-243zM948 487l60 -327l57 327h-117z" />
<glyph unicode="&#x20ac;" horiz-adv-x="1030" d="M98 494v77h88q-4 90 -4 146q0 90 4 133h-88v78h95q15 135 49.5 238t83.5 165.5t107.5 93.5t125.5 31q51 0 101 -17t98 -52t83 -65.5t83 -78.5l-60 -53q-37 36 -50.5 49t-52.5 46t-64.5 47.5t-62 28t-69.5 13.5q-105 0 -179.5 -116.5t-100.5 -329.5h428v-78h-437 q-4 -43 -4 -133q0 -56 4 -146h437v-77h-428q27 -208 101.5 -321.5t178.5 -113.5q39 0 79.5 16t80 46t67 54.5t63.5 59.5l3 3l2.5 2.5l3 3l2.5 2.5l58 -56q-48 -48 -83 -78.5t-83 -65.5t-98 -52t-101 -17q-137 0 -235 128.5t-129 388.5h-97z" />
<glyph unicode="&#x2116;" horiz-adv-x="1622" d="M186 0v1434h90l547 -1248v1248h86v-1434h-90l-547 1247v-1247h-86zM1016 1012q0 196 64 299.5t184 103.5q121 0 185 -103t64 -300q0 -198 -63.5 -301t-185.5 -103q-120 0 -184 103.5t-64 300.5zM1059 408v71h409v-71h-409zM1096 1012q0 -166 40 -249t128 -83 q89 0 129.5 83t40.5 249q0 165 -40.5 248t-129.5 83q-87 0 -127.5 -83t-40.5 -248z" />
<glyph unicode="&#x2117;" horiz-adv-x="1689" d="M115 717q0 156 49 290.5t140 234.5t230.5 157t311.5 57t311 -57t230 -157t139.5 -234.5t48.5 -290.5t-48.5 -290.5t-139.5 -234.5t-230 -157.5t-311 -57.5t-311.5 57.5t-230.5 157.5t-140 234.5t-49 290.5zM193 717q0 -190 74 -339t223.5 -238t353.5 -89q155 0 280 51 t206.5 141.5t125 211.5t43.5 262t-43.5 262t-125 211t-206.5 141t-280 51q-154 0 -278.5 -51t-205 -141t-124 -211t-43.5 -262zM621 285v862h286q299 0 299 -262q0 -264 -299 -264h-184v-336h-102zM723 709h186q195 0 195 176t-195 176h-186v-352z" />
<glyph unicode="&#x2120;" horiz-adv-x="976" d="M127 1020l29 45q68 -45 125 -45q33 0 56 16.5t23 48.5q0 41 -53 72q-14 9 -50 26q-8 5 -13 7q-33 17 -53 31t-38 41t-18 61q0 54 37.5 86.5t95.5 32.5q62 0 138 -39l-29 -47q-64 33 -107 33q-32 0 -53.5 -16t-21.5 -46q0 -14 4.5 -24t17 -20t21 -15.5t32 -17.5t33.5 -17 q25 -13 40.5 -23.5t36 -28.5t30.5 -41.5t10 -52.5q0 -56 -39.5 -88t-97.5 -32q-82 0 -156 53zM475 975v459h66l114 -295l115 295h64v-459h-58v338l-102 -262h-37l-102 262v-338h-60z" />
<glyph unicode="&#x2122;" horiz-adv-x="985" d="M133 1374v60h289v-60h-117v-399h-57v399h-115zM479 975v459h62l116 -301l117 301h64v-459h-60v334l-102 -258h-37l-102 262v-338h-58z" />
<glyph unicode="&#x2126;" horiz-adv-x="1077" d="M123 717q0 168 23 300t71 232t129.5 153.5t192.5 53.5t192 -53.5t129.5 -153.5t71 -232t22.5 -300q0 -138 -21.5 -253t-56.5 -189t-69.5 -120t-71.5 -73h189v-82h-303v76q109 68 176 224.5t67 416.5q0 153 -16.5 269t-53.5 206t-101 137t-154 47t-154.5 -47t-101.5 -137 t-53.5 -206t-16.5 -269q0 -260 67 -416.5t177 -224.5v-76h-303v82h184q-35 30 -67.5 74.5t-68.5 119t-57.5 189t-21.5 252.5z" />
<glyph unicode="&#x2153;" horiz-adv-x="1165" d="M63 1325l148 109h65v-861h-71v777l-107 -78zM231 0l471 1434h76l-471 -1434h-76zM645 57l39 58q87 -60 160 -60q68 0 112.5 49t44.5 132q0 52 -19.5 93t-51 63.5t-66 34t-69.5 11.5h-17v70h21q69 0 122.5 47.5t53.5 126.5q0 60 -32.5 91.5t-86.5 31.5q-74 0 -147 -57 l-35 51q96 75 190 75q86 0 134.5 -53.5t48.5 -130.5q0 -65 -35.5 -124t-106.5 -91q74 -21 122 -86.5t48 -155.5q0 -103 -57.5 -175t-167.5 -72q-109 0 -205 71z" />
<glyph unicode="&#x2154;" horiz-adv-x="1366" d="M102 573v62q0 47 10 90t21 71.5t36.5 63t39 49.5t47 48t43.5 44q139 142 139 252q0 57 -34.5 91t-88.5 34q-73 0 -161 -65l-35 55q104 80 203 80q82 0 136 -52t54 -143q0 -28 -6.5 -56.5t-13 -49.5t-25 -50t-27 -43.5t-35 -44.5t-33.5 -38t-37.5 -39.5t-33.5 -34.5 q-66 -68 -92.5 -118t-26.5 -138h330v-68h-410zM432 0l471 1434h76l-471 -1434h-76zM846 57l39 58q87 -60 159 -60q68 0 113 49t45 132q0 52 -19.5 93t-51 63.5t-66.5 34t-70 11.5h-16v70h20q69 0 123 47.5t54 126.5q0 60 -32.5 91.5t-86.5 31.5q-75 0 -148 -57l-35 51 q96 75 191 75q86 0 134 -53.5t48 -130.5q0 -65 -35 -124t-106 -91q74 -21 122 -86.5t48 -155.5q0 -103 -57.5 -175t-167.5 -72q-109 0 -205 71z" />
<glyph unicode="&#x2155;" horiz-adv-x="1175" d="M63 1325l148 109h65v-861h-71v777l-107 -78zM231 0l471 1434h76l-471 -1434h-76zM655 68l33 61l8 -7q9 -7 14 -11t16.5 -11.5t20.5 -13t22 -12t24.5 -10t25.5 -6.5t27 -3q62 0 105.5 59.5t43.5 153.5q0 87 -38.5 146t-106.5 59q-57 0 -131 -55l-39 20l35 422h332v-67 h-273l-16 -283q56 31 106 31q94 0 150.5 -79.5t56.5 -195.5q0 -114 -57 -197t-160 -83q-101 0 -199 82z" />
<glyph unicode="&#x2156;" horiz-adv-x="1376" d="M102 573v62q0 47 10 90t21 71.5t36.5 63t39 49.5t47 48t43.5 44q139 142 139 252q0 57 -34.5 91t-88.5 34q-73 0 -161 -65l-35 55q104 80 203 80q82 0 136 -52t54 -143q0 -28 -6.5 -56.5t-13 -49.5t-25 -50t-27 -43.5t-35 -44.5t-33.5 -38t-37.5 -39.5t-33.5 -34.5 q-66 -68 -92.5 -118t-26.5 -138h330v-68h-410zM432 0l471 1434h76l-471 -1434h-76zM856 68l33 61l9 -7q8 -7 13 -11t16.5 -11.5t20.5 -13t22 -12t24.5 -10t25.5 -6.5t27 -3q62 0 105.5 59.5t43.5 153.5q0 87 -38.5 146t-106.5 59q-57 0 -131 -55l-39 20l34 422h332v-67h-272 l-17 -283q56 31 107 31q94 0 150.5 -79.5t56.5 -195.5q0 -114 -57 -197t-160 -83q-101 0 -199 82z" />
<glyph unicode="&#x2157;" horiz-adv-x="1349" d="M92 631l39 57q86 -59 160 -59q68 0 113 48.5t45 131.5q0 52 -19.5 93t-51 64t-66.5 34.5t-70 11.5h-17v69h21q69 0 122.5 47.5t53.5 126.5q0 60 -32.5 91.5t-86.5 31.5q-74 0 -147 -57l-35 51q98 76 190 76q86 0 134.5 -53.5t48.5 -130.5q0 -65 -35.5 -124t-106.5 -91 q74 -21 122 -86.5t48 -155.5q0 -103 -57.5 -175.5t-167.5 -72.5q-108 0 -205 72zM406 0l471 1434h75l-471 -1434h-75zM829 68l33 61l8 -7q9 -7 14 -11t16.5 -11.5t20.5 -13t22 -12t24.5 -10t25.5 -6.5t27 -3q62 0 105.5 59.5t43.5 153.5q0 87 -38.5 146t-106.5 59 q-57 0 -131 -55l-39 20l35 422h332v-67h-273l-16 -283q56 31 106 31q94 0 150.5 -79.5t56.5 -195.5q0 -114 -57 -197t-160 -83q-101 0 -199 82z" />
<glyph unicode="&#x2158;" horiz-adv-x="1378" d="M72 772v62l295 600h94v-594h96v-68h-96v-199h-72v199h-317zM141 840h248v501zM434 0l471 1434h76l-471 -1434h-76zM858 68l33 61l9 -7q8 -7 13 -11t16.5 -11.5t20.5 -13t22 -12t24.5 -10t25.5 -6.5t27 -3q62 0 105.5 59.5t43.5 153.5q0 87 -38.5 146t-106.5 59 q-57 0 -131 -55l-39 20l35 422h331v-67h-272l-16 -283q56 31 106 31q94 0 150.5 -79.5t56.5 -195.5q0 -114 -57 -197t-160 -83q-101 0 -199 82z" />
<glyph unicode="&#x2159;" horiz-adv-x="1146" d="M63 1325l148 109h65v-861h-71v777l-107 -78zM231 0l471 1434h76l-471 -1434h-76zM610 342q-1 252 92.5 392t225.5 140q21 0 41.5 -3.5t30.5 -6.5l10 -4l-17 -65q-28 12 -63 12q-86 0 -155 -92t-87 -271q62 105 166 105q90 0 143.5 -80.5t53.5 -194.5q0 -120 -59 -204 t-154 -84q-75 0 -128.5 54t-76.5 132t-23 170zM684 340q0 -118 40.5 -202.5t111.5 -84.5q46 0 79 33t47.5 82t14.5 106q0 52 -13 98t-45 78.5t-77 32.5q-59 0 -101.5 -44t-56.5 -95v-4z" />
<glyph unicode="&#x215a;" horiz-adv-x="1292" d="M96 641l33 61l7 -6l12 -9t13.5 -10t17 -11.5t18.5 -10.5t21 -10t21.5 -8t23.5 -6t24 -2q62 0 105.5 59.5t43.5 153.5q0 87 -38.5 146t-106.5 59q-55 0 -131 -56l-39 21l35 422h331v-68h-272l-16 -283q56 31 106 31q94 0 150.5 -79t56.5 -195q0 -73 -23 -135.5t-74 -104 t-120 -41.5q-101 0 -199 82zM377 0l471 1434h76l-471 -1434h-76zM756 342q-1 252 92 392t225 140q21 0 41.5 -3.5t30.5 -6.5l10 -4l-16 -65q-29 12 -64 12q-86 0 -154.5 -92t-86.5 -271q62 105 165 105q90 0 143.5 -80.5t53.5 -194.5q0 -120 -59 -204t-154 -84 q-57 0 -102 31t-71.5 82.5t-40 113.5t-13.5 129zM829 340q0 -118 40.5 -202.5t111.5 -84.5q46 0 79 33t47.5 82t14.5 106q0 52 -13 98t-45 78.5t-77 32.5q-59 0 -101.5 -44t-56.5 -95v-4z" />
<glyph unicode="&#x215b;" horiz-adv-x="1173" d="M63 1325l148 109h65v-861h-71v777l-107 -78zM231 0l471 1434h76l-471 -1434h-76zM635 209q0 153 162 254q-125 84 -125 217q0 86 53 140t135 54q84 0 137.5 -54t53.5 -140q0 -132 -127 -217q163 -102 163 -254q0 -104 -63.5 -163.5t-163.5 -59.5q-98 0 -161.5 59.5 t-63.5 163.5zM709 211q0 -74 43.5 -117t107.5 -43q66 0 110 43t44 117q0 75 -42.5 125t-111.5 90q-68 -41 -109.5 -90.5t-41.5 -124.5zM743 672q0 -106 117 -174q117 68 117 174q0 58 -32.5 97.5t-84.5 39.5t-84.5 -39.5t-32.5 -97.5z" />
<glyph unicode="&#x215c;" horiz-adv-x="1349" d="M92 631l39 57q86 -59 160 -59q68 0 113 48.5t45 131.5q0 52 -19.5 93t-51 64t-66.5 34.5t-70 11.5h-17v69h21q69 0 122.5 47.5t53.5 126.5q0 60 -32.5 91.5t-86.5 31.5q-74 0 -147 -57l-35 51q98 76 190 76q86 0 134.5 -53.5t48.5 -130.5q0 -65 -35.5 -124t-106.5 -91 q74 -21 122 -86.5t48 -155.5q0 -103 -57.5 -175.5t-167.5 -72.5q-108 0 -205 72zM406 0l471 1434h75l-471 -1434h-75zM811 209q0 153 162 254q-125 84 -125 217q0 86 53 140t135 54q84 0 137.5 -54t53.5 -140q0 -132 -127 -217q164 -102 164 -254q0 -104 -64 -163.5 t-164 -59.5q-98 0 -161.5 59.5t-63.5 163.5zM885 211q0 -74 43.5 -117t107.5 -43q66 0 110 43t44 117q0 75 -42.5 125t-111.5 90q-68 -41 -109.5 -90.5t-41.5 -124.5zM920 672q0 -107 116 -174q117 68 117 174q0 58 -32.5 97.5t-84.5 39.5t-84 -39.5t-32 -97.5z" />
<glyph unicode="&#x215d;" horiz-adv-x="1318" d="M96 641l33 61l7 -6l12 -9t13.5 -10t17 -11.5t18.5 -10.5t21 -10t21.5 -8t23.5 -6t24 -2q62 0 105.5 59.5t43.5 153.5q0 87 -38.5 146t-106.5 59q-55 0 -131 -56l-39 21l35 422h331v-68h-272l-16 -283q56 31 106 31q94 0 150.5 -79t56.5 -195q0 -73 -23 -135.5t-74 -104 t-120 -41.5q-101 0 -199 82zM377 0l471 1434h76l-471 -1434h-76zM780 209q0 153 162 254q-125 84 -125 217q0 86 53.5 140t135.5 54q84 0 137 -54t53 -140q0 -132 -127 -217q164 -102 164 -254q0 -104 -63.5 -163.5t-163.5 -59.5q-99 0 -162.5 59.5t-63.5 163.5zM854 211 q0 -74 44 -117t108 -43q65 0 109 43t44 117q0 75 -42 125t-111 90q-68 -41 -110 -90.5t-42 -124.5zM889 672q0 -106 117 -174q116 67 116 174q0 58 -32 97.5t-84 39.5t-84.5 -39.5t-32.5 -97.5z" />
<glyph unicode="&#x215e;" horiz-adv-x="1187" d="M72 1366v68h395v-58q-9 -16 -24 -45.5t-54 -119.5t-68.5 -180.5t-54 -217t-24.5 -240.5h-78q0 344 219 793h-311zM246 0l471 1434h76l-471 -1434h-76zM649 209q0 153 162 254q-125 84 -125 217q0 86 53 140t135 54q84 0 137.5 -54t53.5 -140q0 -132 -127 -217 q164 -102 164 -254q0 -104 -64 -163.5t-164 -59.5q-98 0 -161.5 59.5t-63.5 163.5zM723 211q0 -74 43.5 -117t107.5 -43q66 0 110 43t44 117q0 75 -42.5 125t-111.5 90q-68 -41 -109.5 -90.5t-41.5 -124.5zM758 672q0 -107 116 -174q117 68 117 174q0 58 -32.5 97.5 t-84.5 39.5t-84 -39.5t-32 -97.5z" />
<glyph unicode="&#x2202;" horiz-adv-x="894" d="M102 475q0 226 87.5 363t232.5 137q52 0 97.5 -18t73.5 -43.5t48 -51t29 -43.5l8 -18q-14 97 -43 189t-74.5 177t-113.5 137t-148 52q-25 0 -51 -5t-40 -9l-13 -5l-17 72q51 25 123 25q138 0 246 -109t168.5 -307t60.5 -453q0 -588 -334 -588q-157 0 -248.5 135.5 t-91.5 362.5zM188 475q0 -195 65.5 -307.5t184.5 -112.5q118 0 185 110t67 312q0 203 -65 311.5t-187 108.5q-120 0 -185 -114t-65 -308z" />
<glyph unicode="&#x2206;" horiz-adv-x="952" d="M45 0l383 1434h98l381 -1434h-862zM160 82h633l-316 1231z" />
<glyph unicode="&#x220f;" horiz-adv-x="995" d="M66 1352v82h864v-82h-158v-1352h-82v1352h-385v-1352h-82v1352h-157z" />
<glyph unicode="&#x2211;" horiz-adv-x="804" d="M100 0v106l400 611l-400 610v107h598v-82h-510l416 -635l-416 -635h510v-82h-598z" />
<glyph unicode="&#x2212;" horiz-adv-x="860" d="M80 643v78h698v-78h-698z" />
<glyph unicode="&#x221a;" horiz-adv-x="821" d="M63 696h93l176 -514l356 1252h92l-420 -1434h-45z" />
<glyph unicode="&#x221e;" horiz-adv-x="1343" d="M117 528q0 129 73.5 218.5t188.5 89.5q79 0 145 -61t148 -181q26 39 33.5 50t33.5 46t39 48t39 37t47 34t49.5 18.5t57.5 8.5q108 0 182 -90t74 -218t-74 -217.5t-186 -89.5q-45 0 -83 15t-74 50t-66 74t-72 103q-85 -126 -149.5 -184t-149.5 -58q-109 0 -182.5 90 t-73.5 217zM197 528q0 -50 18.5 -100t60.5 -87.5t97 -37.5q27 0 53 10.5t44.5 23.5t43.5 41t37.5 44.5t40 55l37.5 52.5q-80 119 -134 171.5t-120 52.5q-57 0 -99 -38t-60.5 -88t-18.5 -100zM715 528q33 -48 50 -72t46 -59t51 -51.5t51.5 -29.5t59.5 -13q55 0 97 38t60.5 88 t18.5 99q0 81 -48 153.5t-130 72.5q-36 0 -67.5 -14.5t-64 -47.5t-58.5 -68.5t-66 -95.5z" />
<glyph unicode="&#x222b;" horiz-adv-x="581" d="M47 -217h33q42 0 71.5 10.5t48 39t29 54t15 81t5.5 91.5t1 113v1143q0 225 55.5 314t210.5 89h19v-76h-33q-41 0 -70.5 -10.5t-47.5 -39t-28.5 -54t-15 -81t-5.5 -91.5t-1 -113v-1142q0 -225 -56.5 -314.5t-211.5 -89.5h-19v76z" />
<glyph unicode="&#x2248;" horiz-adv-x="858" d="M80 434q65 187 192 187q43 0 89 -22.5t78.5 -49.5t75.5 -49.5t81 -22.5q36 0 64.5 26.5t58.5 104.5l59 -30q-62 -187 -190 -187q-44 0 -90 22.5t-79 49.5t-76 49.5t-81 22.5q-34 0 -63.5 -27.5t-57.5 -104.5zM80 791q65 186 192 186q43 0 89 -22.5t78.5 -49t75.5 -49 t81 -22.5q36 0 64.5 26.5t58.5 104.5l59 -31q-62 -186 -190 -186q-44 0 -90 22.5t-79 49t-76 49t-81 22.5q-35 0 -64 -27t-57 -104z" />
<glyph unicode="&#x2260;" horiz-adv-x="860" d="M80 467v78h270l82 278h-352v78h375l108 363l62 -29l-101 -334h254v-78h-276l-82 -278h358v-78h-381l-106 -358l-60 28l97 330h-248z" />
<glyph unicode="&#x2264;" horiz-adv-x="860" d="M78 0v78h698v-78h-698zM80 586v78l696 436v-103l-614 -372l614 -373v-102z" />
<glyph unicode="&#x2265;" horiz-adv-x="860" d="M84 0v78h698v-78h-698zM84 150v102l614 373l-614 372v103l696 -436v-78z" />
<glyph unicode="&#x2318;" horiz-adv-x="1402" d="M125 340q0 106 76.5 182t183.5 76h172v242h-172q-107 0 -183.5 76t-76.5 182q0 107 76.5 182.5t183.5 75.5q106 0 182 -75.5t76 -182.5v-172h119v172q0 107 75.5 182.5t182.5 75.5t182.5 -75.5t75.5 -182.5q0 -106 -75.5 -182t-182.5 -76h-172v-242h172q107 0 182.5 -76 t75.5 -182q0 -107 -75.5 -182.5t-182.5 -75.5t-182.5 75.5t-75.5 182.5v172h-119v-172q0 -107 -76 -182.5t-182 -75.5q-107 0 -183.5 75.5t-76.5 182.5zM211 340q0 -72 51 -122t123 -50q71 0 121.5 50t50.5 122v172h-172q-72 0 -123 -50.5t-51 -121.5zM211 1098 q0 -71 51 -121.5t123 -50.5h172v172q0 72 -50.5 122t-121.5 50q-72 0 -123 -50t-51 -122zM643 598h119v242h-119v-242zM848 340q0 -72 50.5 -122t121.5 -50t121.5 50t50.5 122q0 70 -51 121t-121 51h-172v-172zM848 926h172q70 0 121 51t51 121q0 72 -50.5 122t-121.5 50 t-121.5 -50t-50.5 -122v-172z" />
<glyph unicode="&#x25ca;" horiz-adv-x="821" d="M90 717l268 717h107l268 -717l-268 -717h-107zM178 717l234 -625l233 625l-233 622z" />
<glyph unicode="&#xe000;" horiz-adv-x="1075" d="M0 0v1075h1075v-1075h-1075z" />
<glyph unicode="&#xf639;" horiz-adv-x="858" d="M74 717q0 739 354 739t354 -739q0 -740 -354 -740t-354 740zM162 717q0 -660 266 -660t266 660q0 659 -266 659t-266 -659z" />
<glyph unicode="&#xf63a;" horiz-adv-x="860" d="M106 0v94q0 69 9.5 129.5t30 111.5t40.5 90t54 81.5t57.5 68t64 67t60.5 63.5q223 243 223 444q0 104 -59 164.5t-152 60.5q-120 0 -256 -106l-45 67q155 121 305 121q127 0 211 -81t84 -228q0 -36 -6.5 -73.5t-14 -68t-26.5 -68.5t-30 -62t-39.5 -63t-40.5 -56.5 t-47 -58t-44.5 -51.5t-48 -53t-43.5 -48q-55 -61 -86 -101t-59 -95t-39.5 -118.5t-11.5 -148.5h538v-82h-629z" />
<glyph unicode="&#xf63b;" horiz-adv-x="858" d="M84 86l49 70q22 -18 53.5 -37t89 -39.5t109.5 -20.5q117 0 193.5 89.5t76.5 238.5q0 92 -32.5 165t-84 115t-109.5 63.5t-116 21.5h-24v86h30q116 0 204.5 87t88.5 226q0 108 -55.5 165.5t-150.5 57.5q-121 0 -232 -92l-45 59q135 115 287 115q132 0 207 -87t75 -214 q0 -68 -22 -133t-77 -128.5t-138 -100.5q125 -35 203.5 -145t78.5 -265q0 -79 -22 -150.5t-64 -129t-111 -92t-155 -34.5q-93 0 -176.5 35t-130.5 74z" />
<glyph unicode="&#xf63c;" horiz-adv-x="860" d="M53 344v78l482 1012h110v-1008h152v-82h-152v-344h-86v344h-506zM137 426h422v887z" />
<glyph unicode="&#xf63d;" horiz-adv-x="860" d="M109 104l41 74q1 0 13 -10.5t20.5 -17t26 -19t31.5 -21t34.5 -19t39 -17t40.5 -11t42 -4.5q105 0 181.5 107.5t76.5 275.5q0 157 -66.5 263t-180.5 106q-96 0 -215 -96l-46 20l54 699h506v-82h-437l-30 -521q85 62 182 62q145 0 234 -130.5t89 -322.5q0 -89 -22 -171 t-63 -147.5t-107 -105t-147 -39.5q-149 0 -297 127z" />
<glyph unicode="&#xf63e;" horiz-adv-x="862" d="M100 567q-1 175 26.5 323t74.5 251t110.5 175t134 106t144.5 34q32 0 63 -5.5t47 -10.5l15 -6l-21 -78q-45 18 -100 18q-54 0 -106 -24t-100.5 -76t-87.5 -126.5t-67 -184t-38 -240.5q15 29 36 57t54.5 60t81 51.5t100.5 19.5q99 0 171.5 -65t107 -167t34.5 -224 q0 -128 -38.5 -236t-115 -175t-175.5 -67q-70 0 -128.5 34t-98.5 91t-68.5 133.5t-41.5 160t-14 171.5zM188 567q0 -132 27 -244t88.5 -188t147.5 -76q77 0 134 59.5t83 148t26 190.5q0 68 -13.5 132t-40.5 119t-73 88t-106 33q-99 0 -174 -79.5t-99 -169.5v-13z" />
<glyph unicode="&#xf63f;" horiz-adv-x="858" d="M127 1352v82h614v-66q-15 -27 -39.5 -76.5t-86.5 -202.5t-110 -306.5t-87 -370t-39 -412.5h-94q0 174 35 373.5t78.5 348t103 305t86.5 216.5t51 109h-512z" />
<glyph unicode="&#xf640;" horiz-adv-x="858" d="M80 340q0 264 268 430q-211 142 -211 369q0 139 84 228t207 89t207 -89t84 -228q0 -226 -213 -369q270 -167 270 -430q0 -169 -99.5 -266t-248.5 -97t-248.5 97t-99.5 266zM168 342q0 -133 74.5 -208t185.5 -75t185.5 75t74.5 208q0 71 -22.5 131.5t-64.5 107.5t-81 78 t-92 64q-53 -33 -93 -64.5t-81 -78t-63.5 -107t-22.5 -131.5zM225 1128q0 -189 203 -311q203 122 203 311q0 104 -57.5 175t-145.5 71t-145.5 -71t-57.5 -175z" />
<glyph unicode="&#xf641;" horiz-adv-x="862" d="M82 979q0 128 39 236t115.5 174.5t175.5 66.5q70 0 128.5 -34t98.5 -91t68 -133.5t41 -160t14 -171.5q1 -175 -26.5 -323t-74.5 -251t-110.5 -175t-134 -106t-144.5 -34q-32 0 -63 5.5t-47 11.5l-15 6l21 78q45 -19 100 -19q67 0 131 39t120 115.5t96 204.5t53 291 q-15 -28 -36.5 -56.5t-55 -60t-81 -51t-100.5 -19.5q-99 0 -171.5 65.5t-107 167.5t-34.5 224zM168 977q0 -68 13.5 -132t40.5 -119t73 -88.5t106 -33.5q68 0 128 42.5t94.5 96.5t50.5 109v14q0 97 -16 186t-47 162t-82 116.5t-115 43.5q-78 0 -135.5 -59t-84 -147.5 t-26.5 -190.5z" />
<glyph unicode="&#xf6c3;" horiz-adv-x="102" d="M0 -483l55 180h-45v166h96l15 -166l-84 -211z" />
<glyph unicode="&#xf6dc;" horiz-adv-x="860" d="M123 0v82h287v1245l-242 -186l-45 65l297 228h76v-1352h288v-82h-661z" />
<glyph unicode="&#xf6df;" horiz-adv-x="544" d="M84 125q0 154 52 240t132 92v96h56v-100q15 -4 31 -11t27 -13t27 -17t22.5 -16t21 -17.5t16.5 -13.5l-37 -52q-3 2 -14.5 11.5t-20 16.5t-21.5 16t-26 16t-26 12v-526q16 6 33.5 17t29 20t27 22t18.5 16l37 -51q-2 -1 -12.5 -10.5t-14.5 -13t-15.5 -13t-18.5 -14 t-18.5 -12t-21 -12.5t-21.5 -9.5t-23 -7.5v-98h-56v94q-79 6 -131.5 94t-52.5 244zM156 125q0 -114 31 -186t81 -84v536q-50 -12 -81 -83t-31 -183z" />
<glyph unicode="&#xf6e0;" horiz-adv-x="544" d="M84 1221q0 154 52 239.5t132 91.5v97h56v-101q15 -4 31 -11t27 -13t27 -17t22.5 -16t21 -17.5t16.5 -13.5l-37 -51q-3 2 -14.5 11.5t-20 16.5t-21.5 16t-26 16t-26 12v-527q16 6 33.5 17t29.5 20.5t26.5 22.5t18.5 16l37 -51q-2 -1 -12.5 -10.5t-14.5 -13t-15.5 -13 t-18.5 -14t-18.5 -12t-21 -12.5t-21.5 -9.5t-23 -7.5v-99h-56v95q-79 6 -131.5 94t-52.5 244zM156 1221q0 -114 31 -186.5t81 -84.5v537q-50 -12 -81 -83t-31 -183z" />
<glyph unicode="&#xf6e1;" horiz-adv-x="280" d="M92 -430l43 123h-37v129h80l10 -133l-69 -146z" />
<glyph unicode="&#xf6e2;" horiz-adv-x="280" d="M92 666l43 122h-37v130h80l10 -134l-69 -145z" />
<glyph unicode="&#xf6e3;" horiz-adv-x="591" d="M70 -229l41 59q86 -63 159 -76v357l-6 4q-34 22 -54.5 36.5t-47.5 39t-42 47t-25.5 55t-10.5 69.5q0 91 51.5 144t134.5 59v113h54v-113q83 -11 174 -65l-39 -62q-75 45 -135 56v-328q34 -22 55 -37t51.5 -43t48 -54t30.5 -63.5t13 -79.5q0 -94 -57 -150t-141 -61v-108 h-54v111q-97 12 -200 90zM160 365q0 -52 27.5 -89.5t82.5 -74.5v293q-48 -8 -79 -41t-31 -88zM324 74v-322q53 6 87.5 42t34.5 97q0 57 -31 99t-91 84z" />
<glyph unicode="&#xf6e4;" horiz-adv-x="589" d="M70 866l41 60q90 -66 159 -78v358l-6 4q-43 27 -68.5 47t-54.5 50.5t-43 68t-14 82.5q0 91 51.5 144t134.5 59v113h54v-113q81 -10 174 -66l-39 -61q-72 43 -135 55v-327q34 -22 55 -37t51.5 -43t48 -54t30.5 -63.5t13 -79.5q0 -95 -57 -150.5t-141 -60.5v-108h-54v110 q-97 12 -200 90zM160 1460q0 -52 27.5 -89.5t82.5 -74.5v293q-48 -8 -79 -41t-31 -88zM324 846q53 6 87.5 42t34.5 99q0 56 -31.5 98.5t-90.5 83.5v-323z" />
<glyph unicode="&#xf6e7;" horiz-adv-x="278" d="M98 -178h82v-129h-82v129z" />
<glyph unicode="&#xf6e8;" horiz-adv-x="278" d="M98 788v130h82v-130h-82z" />
<glyph unicode="&#xf6e9;" horiz-adv-x="559" d="M63 979q0 107 47.5 160t118.5 53q18 0 42.5 -4.5t40 -9t44 -13t33.5 -10.5v102q0 65 -21 96t-73 31q-26 0 -58 -9t-51 -17.5t-63 -28.5l-29 57q131 62 209 62q156 0 156 -182v-478h-70v89q-85 -103 -172 -103q-64 0 -109 49.5t-45 155.5zM135 979q0 -70 27 -103.5 t71 -33.5q78 0 156 100v164q-98 29 -137 29q-62 0 -89.5 -43.5t-27.5 -112.5z" />
<glyph unicode="&#xf6ea;" horiz-adv-x="585" d="M102 788v895h70v-337q84 102 164 102q78 0 126 -82.5t48 -255.5q0 -171 -48 -253.5t-126 -82.5q-85 0 -164 100v-86h-70zM172 950q28 -48 68 -79t82 -31q116 0 116 270q0 272 -116 272q-42 0 -81.5 -31.5t-68.5 -78.5v-322z" />
<glyph unicode="&#xf6eb;" horiz-adv-x="585" d="M74 1110q0 173 48.5 255.5t127.5 82.5q82 0 162 -102v337h69v-895h-69v86q-79 -100 -162 -100q-79 0 -127.5 82.5t-48.5 253.5zM145 1110q0 -127 30 -198.5t89 -71.5q39 0 78 30.5t70 75.5v328q-30 46 -69.5 77t-78.5 31q-59 0 -89 -71.5t-30 -200.5z" />
<glyph unicode="&#xf6ec;" horiz-adv-x="559" d="M76 1112q0 160 59 248t154 88q92 0 143 -77.5t51 -201.5q0 -20 -1.5 -39.5t-3.5 -29.5l-1 -10h-327q3 -117 38.5 -184.5t96.5 -67.5t161 84l39 -45q-110 -103 -206 -103q-88 0 -145.5 88.5t-57.5 249.5zM150 1143h264q1 123 -32 183t-91 60q-65 0 -101.5 -65t-39.5 -178z " />
<glyph unicode="&#xf6ed;" horiz-adv-x="276" d="M100 1575v106h78v-106h-78zM104 788v646h70v-646h-70z" />
<glyph unicode="&#xf6ee;" horiz-adv-x="274" d="M102 788v895h70v-895h-70z" />
<glyph unicode="&#xf6ef;" horiz-adv-x="870" d="M104 788v646h70v-101q82 115 176 115q30 0 52.5 -12t35.5 -31.5t20 -38t11 -39.5q86 121 180 121q63 0 92 -47t29 -119v-494h-70v484q0 112 -73 112q-74 0 -156 -124v-472h-70v484q0 112 -73 112t-154 -120v-476h-70z" />
<glyph unicode="&#xf6f0;" horiz-adv-x="581" d="M74 1110q0 159 56 248.5t159 89.5q104 0 160.5 -90t56.5 -248q0 -157 -56.5 -246.5t-160.5 -89.5q-103 0 -159 89.5t-56 246.5zM145 1110q0 -272 144 -272q74 0 109.5 72t35.5 200q0 129 -35.5 201.5t-109.5 72.5q-144 0 -144 -274z" />
<glyph unicode="&#xf6f1;" horiz-adv-x="391" d="M102 788v646h70v-140q4 12 9 24t20.5 38.5t33.5 44.5t48 31t65 10v-72q-45 0 -79.5 -21t-52 -50.5t-28.5 -59.5t-14 -51l-2 -21v-379h-70z" />
<glyph unicode="&#xf6f2;" horiz-adv-x="501" d="M66 852l34 53q36 -27 82 -48t84 -21q41 0 70 27t29 75q0 30 -11.5 54t-35 42.5t-41 28.5t-46.5 24q-32 16 -54 29.5t-48.5 37t-40.5 56t-14 72.5q0 74 46 120t116 46q88 0 180 -66l-35 -49q-76 53 -139 53q-44 0 -71.5 -26.5t-27.5 -71.5q0 -18 4 -33t13.5 -28 t16.5 -21.5t22.5 -18.5t22 -13.5t24 -12.5t20.5 -10q89 -43 129.5 -93t40.5 -118q0 -78 -47.5 -122t-118.5 -44q-93 0 -204 78z" />
<glyph unicode="&#xf6f3;" horiz-adv-x="389" d="M49 1374v60h64v161l69 25v-186h127v-60h-127v-463q0 -69 43 -69q38 0 86 32l29 -57q-77 -43 -129 -43q-98 0 -98 144v456h-64z" />
<glyph unicode="&#xf8ff;" horiz-adv-x="1677" d="M107.5 560.5q-2.5 11.5 15.5 21.5l57 41q3 2 13 12q19 16 36 -12l33 -64q6 -12 13.5 -15.5t14 2t9.5 17.5l18 70q4 19 18.5 21t26.5 -13l48 -53q14 -15 23 -11.5t11 23.5l5 70q3 20 15.5 25t27.5 -7l57 -43q17 -12 26 -6.5t5 25.5l-9 69q-3 20 8.5 28t28.5 -1l64 -29 q19 -9 26.5 -1.5t1.5 26.5l-22 67q-8 19 1 29t28 4l14 -2q40 -77 70 -202.5t30 -217.5q-15 -18 -34.5 -27.5t-59.5 -9.5h-8q0 46 -33 72q19 -22 19 -55v-15q-33 3 -33 39q0 43 -28 72t-77 29q-41 0 -68.5 -32t-27.5 -79q0 -60 49.5 -96.5t138.5 -36.5q85 0 172 42t156.5 112 t125 154.5t86 175.5t30.5 169q0 59 -36.5 98t-94.5 39q-48 0 -85.5 -33.5t-37.5 -84.5q0 -106 119 -119q-29 -119 -60 -174q-12 96 -43.5 178t-75.5 129q91 -120 107 -330l-29 -41q0 156 -51 287t-131 172q-5 9 2.5 18.5t22.5 12.5l69 12q19 3 21 13.5t-15 21.5l-59 39 q-15 13 -13.5 26.5t19.5 20.5l64 29q14 4 19 10t0 13t-19 13l-64 27q-23 10 -20 29q11 6 14 16l35 62q9 19 20.5 18t16.5 -20l20 -68q6 -21 18.5 -24t26.5 14l47 53q12 15 23 12.5t12 -22.5l4 -72q1 -21 14.5 -26t28.5 8l58 43q15 12 23.5 6t6.5 -27l-10 -70 q-1 -20 10.5 -27.5t28.5 1.5l63 33q19 8 26.5 0t0.5 -29l-22 -64q-6 -20 2.5 -30t27.5 -4l70 14q20 6 26.5 -2t-4.5 -27l-36 -59q-12 -17 -6 -29.5t26 -11.5l72 4q21 0 25 -11t-9 -24l-49 -53q-14 -13 -10.5 -26.5t24.5 -16.5l70 -12q43 -10 6 -39l-57 -39q-16 -10 -15 -24 t21 -21l63 -27q12 -5 16.5 -12t0 -13.5t-16.5 -11.5l-63 -26q-20 -7 -21 -22t15 -25l57 -41q11 -7 14.5 -14.5t-2 -13.5t-18.5 -9l-70 -13q-21 -3 -24.5 -16.5t10.5 -28.5l49 -49q13 -14 9 -24.5t-25 -10.5l-72 5q-20 0 -26 -12t6 -29l36 -62q10 -17 4 -25.5t-26 -5.5 l-70 19q-19 4 -27.5 -6t-2.5 -29l22 -68q8 -19 0 -26t-27 2l-63 31q-17 9 -28.5 1t-10.5 -30l10 -68q1 -21 -7 -25.5t-23 7.5l-58 43q-15 12 -28.5 5.5t-14.5 -26.5l-4 -69q-1 -20 -12 -23t-23 11l-47 55q-13 14 -26 12t-19 -22l-20 -68q-3 -13 -9.5 -18t-14 -1t-13.5 15 l-35 61q-9 19 -22 19t-25 -19l-31 -61q-6 -11 -13.5 -15t-14 1t-9.5 18l-20 68q-6 20 -19 22t-26 -12l-47 -55q-12 -14 -22 -11t-13 23l-4 69q-2 20 -15 26.5t-30 -5.5l-54 -43q-17 -13 -26.5 -8t-5.5 26l10 68q1 22 -10.5 30t-30.5 -1l-62 -31q-19 -9 -26.5 -2t0.5 26 l22 68q7 19 -2 29.5t-28 5.5l-70 -19q-20 -3 -26 5.5t4 25.5l38 62q11 17 4.5 29t-26.5 12l-72 -5q-21 0 -25 10.5t9 24.5l51 49q13 15 9 28.5t-25 16.5l-68 13q-21 4 -23.5 15.5zM584 281q44 -27 123 -27q106 0 212.5 65t183.5 162t125 212t48 214q0 63 -41 101 q25 -39 25 -84q0 -99 -47.5 -214.5t-127.5 -215.5q-85 -105 -188.5 -168.5t-212.5 -63.5q-57 0 -100 19z" />
<glyph unicode="&#xfb06;" horiz-adv-x="1275" d="M86 104l47 64q152 -113 260 -113q72 0 124 49.5t52 137.5q0 44 -15.5 83t-35.5 65t-54.5 52.5t-57 39.5t-58.5 32q-42 22 -68 37t-64 45t-60 60t-39 76t-17 99q0 121 71.5 194t178.5 73q64 0 142 -31q-15 53 -15 119q0 144 68 225.5t182 81.5q129 0 194.5 -96.5 t65.5 -263.5v-58h205v-74h-205v-825q0 -121 72 -121q53 0 143 56l39 -66q-115 -68 -197 -68q-139 0 -139 209v815h-102v74h102v78q0 124 -43.5 199t-140.5 75q-90 0 -138 -68.5t-48 -184.5q0 -89 22 -140q29 -15 66 -41l-50 -61q-121 88 -219 88q-76 0 -124 -48.5 t-48 -131.5q0 -23 4 -44t9.5 -37.5t17 -33.5t20 -28t25 -24.5t24.5 -20.5t27 -18.5t25.5 -15t25.5 -13.5t21 -11q145 -75 208.5 -158.5t63.5 -191.5q0 -127 -74.5 -197t-179.5 -70q-147 0 -313 127z" />
<glyph horiz-adv-x="602" d="M74 1159q0 120 58.5 204.5t154.5 84.5q56 0 101 -31t71.5 -82.5t40.5 -113.5t14 -129q1 -252 -92 -392.5t-225 -140.5q-21 0 -41.5 3.5t-30.5 7.5l-10 3l16 66q29 -12 62 -12q86 0 154.5 91.5t86.5 270.5q-65 -104 -164 -104q-91 0 -143.5 79.5t-52.5 194.5zM145 1159 q0 -83 35.5 -146t102.5 -63q58 0 100.5 43t56.5 94v7q0 118 -40 202t-111 84q-68 0 -106 -66t-38 -155z" />
<glyph horiz-adv-x="927" d="M68 1434q0 105 38.5 167t118.5 62t119 -62t39 -167q0 -106 -39 -169t-119 -63t-118.5 63t-38.5 169zM129 1434q0 -79 23 -129t73 -50t73.5 50.5t23.5 128.5q0 174 -97 174q-96 0 -96 -174zM270 788l324 861h61l-323 -861h-62zM543 1008q0 105 39.5 166t119.5 61 q79 0 118.5 -61.5t39.5 -165.5q0 -105 -40 -169.5t-118 -64.5q-80 0 -119.5 64t-39.5 170zM604 1008q0 -179 98 -179q49 0 72 50t23 129q0 78 -23 126t-72 48q-98 0 -98 -174z" />
<glyph horiz-adv-x="1667" d="M70 1001v74h102v189q0 119 48.5 164t129.5 45q90 0 295 -62q41 82 156 82q82 0 262 -53v53h82v-1036l340 618h94l-254 -442l299 -633h-90l-256 553l-133 -229v-324h-82v1358q-56 18 -139.5 37.5t-124.5 19.5q-40 0 -67 -31t-27 -90v-219h204v-74h-204v-1001h-82v1001 h-369v-1001h-82v1001h-102zM254 1075h369v209q0 37 2 53q-211 58 -277 58q-41 0 -67.5 -30.5t-26.5 -90.5v-199z" />
<glyph horiz-adv-x="1298" d="M70 1001v74h102v189q0 119 48.5 164t129.5 45q90 0 295 -62q41 82 156 82q82 0 262 -53v53h82v-1493h-82v1358q-56 18 -139.5 37.5t-124.5 19.5q-40 0 -67 -31t-27 -90v-219h204v-74h-204v-1001h-82v1001h-369v-1001h-82v1001h-102zM254 1075h369v209q0 37 2 53 q-211 58 -277 58q-41 0 -67.5 -30.5t-26.5 -90.5v-199z" />
<glyph horiz-adv-x="1409" d="M70 1001v74h102v189q0 119 48.5 164t129.5 45q77 0 291 -60q34 80 129 80q64 0 205 -61l-33 -68q-120 51 -166 51q-71 0 -71 -121v-219h333v271l82 40v-311h205v-74h-205v-825q0 -121 72 -121q53 0 143 56l39 -66q-115 -68 -196 -68q-140 0 -140 209v815h-333v-1001h-82 v1001h-369v-1001h-82v1001h-102zM254 1075h369v209q0 37 2 53q-220 58 -277 58q-41 0 -67.5 -30.5t-26.5 -90.5v-199z" />
<glyph horiz-adv-x="1349" d="M70 1001v74h102v209q0 119 48.5 164t129.5 45q96 0 264 -55v55h82v-586q33 36 62 63t72 59.5t91.5 50.5t96.5 18q69 0 114 -39t62.5 -96t17.5 -129v-834h-82v825q0 87 -31 141t-100 54q-44 0 -92 -22t-90 -58.5t-69 -65t-52 -59.5v-815h-82v1358q-191 57 -266 57 q-41 0 -67.5 -30.5t-26.5 -90.5v-219h205v-74h-205v-1001h-82v1001h-102z" />
<glyph horiz-adv-x="1253" d="M70 1001v74h102v189q0 119 48.5 164t129.5 45q90 0 295 -62q41 82 156 82q95 0 274 -61l-35 -70q-170 53 -241 53q-40 0 -67 -31t-27 -90v-219h407v-1075h-82v1001h-325v-1001h-82v1001h-369v-1001h-82v1001h-102zM254 1075h369v209q0 37 2 53q-211 58 -277 58 q-41 0 -67.5 -30.5t-26.5 -90.5v-199z" />
<glyph horiz-adv-x="802" d="M70 1001v74h102v209q0 119 48.5 164t129.5 45q98 0 277 -61l-37 -70q-170 53 -240 53q-41 0 -68.5 -30.5t-27.5 -90.5v-219h408v-1075h-82v1001h-326v-1001h-82v1001h-102z" />
<glyph horiz-adv-x="802" d="M70 1001v74h102v209q0 119 48.5 164t129.5 45q98 0 277 -61l-37 -70q-170 53 -240 53q-41 0 -68.5 -30.5t-27.5 -90.5v-219h408v-1161v-54.5t-1.5 -45.5t-4.5 -41.5t-8.5 -34.5t-13.5 -31.5t-20 -26.5t-28 -26t-37.5 -23.5t-47.5 -24.5t-59 -24l-28 72q27 13 45 21.5 t35.5 20t28.5 17.5t21 18.5t15.5 19t10 23t6 25.5t3 32t1.5 37v46v1087h-326v-1001h-82v1001h-102z" />
<glyph horiz-adv-x="1218" d="M70 1001v74h102v209q0 119 48.5 164t129.5 45q96 0 264 -55v55h82v-1036l340 618h94l-253 -442l299 -633h-91l-256 553l-133 -229v-324h-82v1358q-191 57 -266 57q-41 0 -67.5 -30.5t-26.5 -90.5v-219h205v-74h-205v-1001h-82v1001h-102z" />
<glyph horiz-adv-x="1798" d="M70 1001v74h102v189q0 119 48.5 164t129.5 45q90 0 295 -62q41 82 156 82q82 0 262 -53v53h82v-586q34 37 62.5 63.5t71.5 59t91 50.5t96 18q101 0 148 -75.5t47 -188.5v-834h-82v825q0 87 -31 141t-100 54q-44 0 -92 -22t-90 -58.5t-69 -65t-52 -59.5v-815h-82v1358 q-56 18 -139.5 37.5t-124.5 19.5q-40 0 -67 -31t-27 -90v-219h204v-74h-204v-1001h-82v1001h-369v-1001h-82v1001h-102zM254 1075h369v209q0 37 2 53q-211 58 -277 58q-41 0 -67.5 -30.5t-26.5 -90.5v-199z" />
<glyph horiz-adv-x="847" d="M70 1001v74h102v209q0 119 48.5 164t129.5 45q96 0 264 -55v55h82v-1493h-82v1358q-191 57 -266 57q-41 0 -67.5 -30.5t-26.5 -90.5v-219h205v-74h-205v-1001h-82v1001h-102z" />
<glyph horiz-adv-x="958" d="M70 1001v74h102v209q0 118 38 163.5t101 45.5q72 0 213 -61l-37 -66q-116 49 -163 49q-70 0 -70 -121v-219h332v271l82 40v-311h204v-74h-204v-825q0 -121 71 -121q54 0 144 56l39 -66q-115 -68 -197 -68q-139 0 -139 209v815h-332v-1001h-82v1001h-102z" />
<glyph horiz-adv-x="358" d="M55 279v59h64v108q0 79 26 110.5t72 31.5q45 0 139 -39l-28 -55q-63 28 -97 28q-43 0 -43 -69v-115h125v-59h-125v-586h-69v586h-64z" />
<glyph horiz-adv-x="911" d="M145 342v834h84v-832q0 -63 10 -110.5t34 -88.5t69.5 -62.5t112.5 -21.5t113 21.5t70 62t34 88.5t10 111v832h84v-834q0 -360 -311 -360q-310 0 -310 360zM358 1288l170 256h131l-229 -256h-72z" />
<glyph horiz-adv-x="567" d="M72 68l32 61l8 -7q9 -7 14 -11t16.5 -11.5t20.5 -13t22 -12t24.5 -10t25.5 -6.5t27 -3q62 0 106 59.5t44 153.5q0 87 -39 146t-107 59q-57 0 -131 -55l-39 20l35 422h332v-67h-273l-16 -283q56 31 107 31q94 0 150 -79t56 -196q0 -114 -57 -197t-160 -83q-100 0 -198 82z " />
<glyph horiz-adv-x="567" d="M72 641l32 61l8 -6q7 -6 11 -9t13.5 -10t17 -11.5t18.5 -10.5t21 -10t21.5 -8t23.5 -6t24 -2q62 0 106 59.5t44 153.5q0 87 -39 146t-107 59q-55 0 -131 -56l-39 21l35 422h332v-68h-273l-16 -283q56 31 107 31q94 0 150 -79t56 -195q0 -73 -23 -135.5t-74 -104 t-120 -41.5q-100 0 -198 82z" />
<glyph horiz-adv-x="831" d="M94 -154l41 74q1 -1 11 -9l17.5 -14t21.5 -16.5t26.5 -18.5t29.5 -18t33.5 -17t34.5 -13t37 -9.5t37 -3.5q105 0 181.5 107.5t76.5 275.5q0 102 -28.5 185t-85.5 133.5t-134 50.5q-96 0 -215 -96l-45 20l53 699h506v-82h-436l-31 -521q85 62 183 62q145 0 234 -130.5 t89 -322.5q0 -120 -37 -223.5t-116 -171.5t-187 -68q-149 0 -297 127z" />
<glyph horiz-adv-x="1792" d="M70 1001v74h102v189q0 119 48.5 164t129.5 45q90 0 295 -62q41 82 156 82q82 0 262 -53v53h82v-571q129 176 266 176q46 0 86.5 -18.5t76.5 -61t61.5 -106.5t40 -159.5t14.5 -215.5q0 -288 -78 -424t-201 -136q-138 0 -266 175v-152h-82v1358q-56 18 -139.5 37.5 t-124.5 19.5q-40 0 -67 -31t-27 -90v-219h204v-74h-204v-1001h-82v1001h-369v-1001h-82v1001h-102zM254 1075h369v209q0 37 2 53q-211 58 -277 58q-41 0 -67.5 -30.5t-26.5 -90.5v-199zM1145 250q47 -81 116.5 -138t139.5 -57q100 0 151.5 127.5t51.5 354.5q0 228 -51 355.5 t-152 127.5q-70 0 -139.5 -58t-116.5 -139v-573z" />
<glyph horiz-adv-x="1179" d="M96 526l31 58q71 -62 137 -62q53 0 90 47t37 121q0 70 -33 117t-92 47q-10 0 -20 -1.5t-19.5 -5t-17 -6t-17 -8t-14 -8.5l-13.5 -9t-11 -7l-35 20l28 347h293v-62h-237l-13 -223q43 24 91 24q82 0 131 -64.5t49 -160.5q0 -95 -50.5 -163t-140.5 -68q-86 0 -174 67zM346 0 l408 1176h69l-407 -1176h-70zM694 172q0 126 142 207q-109 72 -109 178q0 70 47 115t119 45t119 -45t47 -115q0 -108 -111 -178q144 -80 144 -207q0 -86 -56 -135t-143 -49t-143 49t-56 135zM764 174q0 -58 36.5 -92.5t92.5 -34.5t93.5 34.5t37.5 92.5q0 60 -36 100t-95 74 q-129 -72 -129 -174zM793 549q0 -85 100 -139q98 53 98 139q0 46 -27.5 78t-70.5 32t-71.5 -32.5t-28.5 -77.5z" />
<glyph horiz-adv-x="1155" d="M98 526l31 58q71 -62 137 -62q53 0 90 47t37 121q0 70 -33 117t-92 47q-10 0 -20 -1.5t-19.5 -5t-17 -6t-17 -8t-14 -8.5l-13.5 -9t-11 -7l-35 20l29 347h292v-62h-237l-12 -223q43 24 90 24q82 0 131 -64.5t49 -160.5q0 -95 -50.5 -163t-140.5 -68q-86 0 -174 67zM348 0 l408 1176h69l-407 -1176h-70zM674 281q-1 206 80.5 321t197.5 115q18 0 36 -3t27 -6l9 -3l-14 -60q-27 10 -56 10q-73 0 -133 -73t-76 -215q18 31 55 57.5t89 26.5q79 0 124.5 -65.5t45.5 -160.5q0 -99 -51.5 -168t-135.5 -69q-65 0 -111.5 44.5t-66.5 109t-20 139.5z M741 279q0 -95 34.5 -162.5t94.5 -67.5q58 0 89.5 52.5t31.5 123.5q0 68 -28.5 117t-85.5 49q-51 0 -89 -37t-47 -75z" />
<glyph horiz-adv-x="954" d="M70 1001v74h102v189q0 119 48.5 164t129.5 45q77 0 291 -60q34 80 121 80q74 0 213 -61l-37 -66q-115 49 -164 49q-69 0 -69 -121v-219h204v-74h-204v-1001h-82v1001h-369v-1001h-82v1001h-102zM254 1075h369v209q0 37 2 53q-211 58 -277 58q-41 0 -67.5 -30.5 t-26.5 -90.5v-199z" />
<glyph horiz-adv-x="911" d="M145 342v834h84v-832q0 -63 10 -110.5t34 -88.5t69.5 -62.5t112.5 -21.5t113 21.5t70 62t34 88.5t10 111v832h84v-834q0 -360 -311 -360q-310 0 -310 360z" />
<glyph horiz-adv-x="565" d="M51 1579v70h461v-70h-195v-791h-71v791h-195z" />
<glyph horiz-adv-x="606" d="M59 199v61l295 600h95v-594h96v-67h-96v-199h-72v199h-318zM129 266h248v502z" />
<glyph horiz-adv-x="606" d="M59 772v62l295 600h95v-594h96v-68h-96v-199h-72v199h-318zM129 840h248v501z" />
<glyph horiz-adv-x="894" d="M70 86v78l481 1012h111v-1008h151v-82h-151v-344h-87v344h-505zM154 168h421v887z" />
<glyph horiz-adv-x="1007" d="M70 1001v74h102v209q0 118 38 163.5t101 45.5q74 0 213 -61l-37 -66q-116 49 -163 49q-70 0 -70 -121v-219h205v-74h-205v-1001h-82v1001h-102zM573 1001v74h103v209q0 209 137 209q60 0 174 -47l-29 -68q-92 37 -131 37q-69 0 -69 -121v-219h205v-74h-205v-1001h-82 v1001h-103z" />
<glyph horiz-adv-x="1232" d="M78 631v55l260 490h82v-484h82v-61h-82v-160h-64v160h-278zM139 692h217v410zM395 0l408 1176h67l-407 -1176h-68zM764 57l29 56q70 -60 135 -60q56 0 94.5 46.5t38.5 121.5q0 69 -34 115.5t-93 46.5q-58 0 -115 -45l-35 20l31 347h291v-62h-242l-14 -227q44 28 96 28 q83 0 132.5 -64.5t49.5 -158.5q0 -96 -51 -164.5t-141 -68.5q-81 0 -172 69z" />
<glyph horiz-adv-x="1343" d="M70 1001v74h102v209q0 119 48.5 164t129.5 45q96 0 264 -55v55h82v-571q129 176 267 176q123 0 200.5 -136t77.5 -425q0 -288 -77.5 -424t-200.5 -136q-139 0 -267 175v-152h-82v1358q-191 57 -266 57q-41 0 -67.5 -30.5t-26.5 -90.5v-219h205v-74h-205v-1001h-82v1001 h-102zM696 250q47 -81 116.5 -138t139.5 -57q100 0 151.5 127.5t51.5 354.5q0 228 -51 355.5t-152 127.5q-70 0 -139.5 -58t-116.5 -139v-573z" />
<glyph horiz-adv-x="503" d="M70 1001v74h102v209q0 209 137 209q60 0 174 -47l-28 -68q-93 37 -131 37q-70 0 -70 -121v-219h205v-74h-205v-1001h-82v1001h-102z" />
<glyph horiz-adv-x="862" d="M111 299v74h79v1061h596v-82h-510v-594h408v-82h-408v-303h252v-74h-252v-299h-86v299h-79z" />
<glyph horiz-adv-x="786" d="M111 240v67h69v869h525v-78h-441v-471h350v-78h-350v-242h219v-67h-219v-240h-84v240h-69z" />
<glyph horiz-adv-x="577" d="M76 -82h51v635h387v-70h-315v-325h252v-70h-252v-170h161v-55h-161v-170h-72v170h-51v55z" />
<glyph horiz-adv-x="579" d="M78 958v56h51v635h387v-70h-315v-326h252v-69h-252v-170h161v-56h-161v-170h-72v170h-51z" />
<glyph horiz-adv-x="358" d="M55 1374v60h64v108q0 79 26 110t72 31q47 0 139 -38l-28 -56q-65 29 -97 29q-43 0 -43 -70v-114h125v-60h-125v-586h-69v586h-64z" />
<glyph horiz-adv-x="565" d="M51 483v70h461v-70h-195v-790h-71v790h-195z" />
<glyph horiz-adv-x="847" d="M154 0v1176h84v-222h172q78 0 138 -16.5t108.5 -54.5t74 -106.5t25.5 -166.5q0 -99 -25.5 -169t-74 -109.5t-108.5 -56.5t-138 -17h-172v-258h-84zM238 336h174q120 0 189 65.5t69 208.5q0 267 -258 267h-174v-541z" />
<glyph horiz-adv-x="729" d="M51 1098v78h629v-78h-272v-1098h-17q8 -12 19 -33t23.5 -63t12.5 -82q0 -72 -37.5 -115t-97.5 -43q-53 0 -106 35l24 72q45 -31 72 -31q39 0 61.5 26.5t22.5 79.5q0 82 -41 154h-20v1098h-273z" />
<glyph horiz-adv-x="729" d="M51 1098v78h629v-78h-272v-1098h-84v1098h-273zM172 1544h68l122 -190l125 190h68l-137 -256h-111z" />
<glyph horiz-adv-x="745" d="M59 1098v78h629v-78h-272v-631h135v-68h-135v-399h-84v399h-139v68h139v631h-273z" />
<glyph horiz-adv-x="641" d="M104 -307v653q0 246 203 246q92 0 146.5 -50.5t54.5 -142.5q0 -32 -6 -59.5t-12 -39.5l-7 -11q-96 -36 -96 -111q0 -13 3.5 -25.5t7.5 -21.5t15 -23l16.5 -21t23 -25.5t24.5 -26.5q31 -34 46.5 -53.5t32.5 -58.5t17 -81q0 -76 -43.5 -120t-111.5 -44q-75 0 -170 60l31 55 q70 -49 131 -49q37 0 63.5 26t26.5 78q0 32 -15.5 61t-58.5 75q-8 9 -31 33t-32 35.5t-23 32.5t-19.5 42.5t-5.5 46.5q0 36 11.5 64.5t32 48t35.5 29.5t36 20q8 32 8 59q0 63 -34 97t-95 34q-135 0 -135 -184v-649h-70z" />
<glyph horiz-adv-x="641" d="M104 788v654q0 246 203 246q92 0 146.5 -50.5t54.5 -142.5q0 -32 -6 -59.5t-12 -39.5l-7 -12q-96 -36 -96 -110q0 -13 3.5 -26t7 -21t15 -23.5t16.5 -21t23.5 -25.5t24.5 -27q32 -35 47 -53.5t32 -57.5t17 -81q0 -76 -43.5 -120t-111.5 -44q-75 0 -170 60l31 55 q70 -49 131 -49q37 0 63.5 26t26.5 78q0 32 -15.5 60.5t-58.5 74.5q-7 8 -30.5 32.5t-32.5 36t-23 33t-19.5 43t-5.5 46.5q0 36 11.5 64.5t32 48t35.5 29.5t36 20q8 32 8 59q0 63 -34 97t-95 34q-135 0 -135 -184v-650h-70z" />
<glyph horiz-adv-x="585" d="M74 14q0 173 48.5 255.5t127.5 82.5q82 0 162 -102v88h69v-694q0 -116 -45 -164.5t-127 -48.5q-98 0 -215 43l21 65q113 -45 182 -45q58 0 86.5 35t28.5 113v137q-80 -101 -162 -101q-79 0 -127.5 82.5t-48.5 253.5zM145 14q0 -127 30 -198.5t89 -71.5q39 0 78 30.5 t70 75.5v328q-30 47 -69.5 78t-78.5 31q-59 0 -89 -72t-30 -201z" />
<glyph horiz-adv-x="729" d="M51 1098v78h629v-78h-272v-1098h-84v1098h-273z" />
<glyph horiz-adv-x="602" d="M76 866l41 60q113 -80 192 -80q60 0 102 36.5t42 104.5q0 30 -11 57t-23.5 45.5t-43 43.5t-47.5 37t-58 40q-43 27 -68.5 47t-54.5 50.5t-43 68t-14 82.5q0 97 58 151t149 54q102 0 207 -68l-39 -61q-95 57 -164 57q-57 0 -96 -33.5t-39 -97.5q0 -33 11 -60t38 -52.5 t49 -41.5t66 -44q34 -22 55 -37t51.5 -43t48 -54t30.5 -63.5t13 -79.5q0 -99 -62.5 -155t-152.5 -56q-115 0 -237 92z" />
<glyph horiz-adv-x="911" d="M145 342v834h84v-832q0 -63 10 -110.5t34 -88.5t69.5 -62.5t112.5 -21.5t113 21.5t70 62t34 88.5t10 111v832h84v-834q0 -360 -311 -360q-310 0 -310 360zM266 1487h68q0 -123 121 -123q123 0 123 123h65q0 -92 -50 -145.5t-138 -53.5q-89 0 -139 53.5t-50 145.5z" />
<glyph horiz-adv-x="585" d="M74 1110q0 173 48.5 255.5t127.5 82.5q82 0 162 -102v88h69v-695q0 -116 -45 -164.5t-127 -48.5q-98 0 -215 43l21 66q113 -45 182 -45q58 0 86.5 34.5t28.5 112.5v137q-79 -100 -162 -100q-79 0 -127.5 82.5t-48.5 253.5zM145 1110q0 -127 30 -198.5t89 -71.5 q39 0 78 30.5t70 75.5v328q-30 46 -69.5 77t-78.5 31q-59 0 -89 -71.5t-30 -200.5z" />
<glyph horiz-adv-x="600" d="M74 -229l41 59q113 -80 192 -80q60 0 102 36.5t42 104.5q0 30 -11 57t-24 46t-42.5 44t-47.5 37.5t-58 39.5q-34 22 -54.5 36.5t-47.5 39t-42 47t-25.5 55t-10.5 69.5q0 97 58 151t149 54q103 0 207 -67l-39 -62q-97 58 -164 58q-57 0 -96 -33.5t-39 -97.5 q0 -33 11 -60.5t38 -52.5t49.5 -41.5t65.5 -44.5q34 -22 55 -37t51.5 -43t48 -54t30.5 -63.5t13 -79.5q0 -99 -62.5 -155t-152.5 -56q-114 0 -237 93z" />
<glyph horiz-adv-x="784" d="M86 100l47 66q78 -50 142.5 -78.5t130.5 -28.5q88 0 149 54t61 153q0 37 -8.5 69t-27.5 60.5t-38.5 51t-53 48t-60 43t-68.5 44.5q-51 32 -77.5 50.5t-66 52.5t-59.5 64.5t-35.5 76t-15.5 96.5q0 129 80 200.5t199 71.5q71 0 147.5 -25.5t133.5 -62.5l-45 -68 q-142 78 -234 78q-82 0 -139.5 -49t-57.5 -143q0 -48 15 -87t50 -73t68 -58t93 -61q43 -27 65.5 -42t62 -45t61.5 -56.5t46.5 -63t35.5 -80t11 -92.5q0 -138 -86 -211t-204 -73q-153 0 -322 118zM342 -483l55 180h-45v166h97l14 -166l-84 -211z" />
<glyph horiz-adv-x="313" d="M115 1649h84l-19 -611h-45zM117 788v125h82v-125h-82z" />
<glyph horiz-adv-x="313" d="M115 553h84l-19 -610h-45zM117 -182h82v-125h-82v125z" />
<glyph horiz-adv-x="784" d="M86 100l47 66q78 -50 142.5 -78.5t130.5 -28.5q88 0 149 54t61 153q0 37 -8.5 69t-27.5 60.5t-38.5 51t-53 48t-60 43t-68.5 44.5q-51 32 -77.5 50.5t-66 52.5t-59.5 64.5t-35.5 76t-15.5 96.5q0 129 80 200.5t199 71.5q71 0 147.5 -25.5t133.5 -62.5l-45 -68 q-142 78 -234 78q-82 0 -139.5 -49t-57.5 -143q0 -48 15 -87t50 -73t68 -58t93 -61q43 -27 65.5 -42t62 -45t61.5 -56.5t46.5 -63t35.5 -80t11 -92.5q0 -138 -86 -211t-204 -73q-153 0 -322 118zM203 1288l135 256h111l137 -256h-68l-125 191l-123 -191h-67z" />
<glyph horiz-adv-x="784" d="M86 100l47 66q78 -50 142.5 -78.5t130.5 -28.5q88 0 149 54t61 153q0 37 -8.5 69t-27.5 60.5t-38.5 51t-53 48t-60 43t-68.5 44.5q-51 32 -77.5 50.5t-66 52.5t-59.5 64.5t-35.5 76t-15.5 96.5q0 129 80 200.5t199 71.5q71 0 147.5 -25.5t133.5 -62.5l-45 -68 q-142 78 -234 78q-82 0 -139.5 -49t-57.5 -143q0 -48 15 -87t50 -73t68 -58t93 -61q43 -27 65.5 -42t62 -45t61.5 -56.5t46.5 -63t35.5 -80t11 -92.5q0 -127 -73 -199t-181 -83q45 -82 45 -162q0 -72 -37.5 -115t-97.5 -43q-53 0 -106 35l24 72q45 -31 72 -31 q39 0 61.5 26.5t22.5 79.5q0 56 -33 136q-145 5 -309 118z" />
<glyph horiz-adv-x="593" d="M102 -307v895h70v-346q105 110 197 110q65 0 95 -46.5t30 -119.5v-493h-70v483q0 113 -76 113q-48 0 -95.5 -37.5t-80.5 -79.5v-479h-70z" />
<glyph horiz-adv-x="784" d="M86 100l47 66q78 -50 142.5 -78.5t130.5 -28.5q88 0 149 54t61 153q0 37 -8.5 69t-27.5 60.5t-38.5 51t-53 48t-60 43t-68.5 44.5q-51 32 -77.5 50.5t-66 52.5t-59.5 64.5t-35.5 76t-15.5 96.5q0 129 80 200.5t199 71.5q71 0 147.5 -25.5t133.5 -62.5l-45 -68 q-142 78 -234 78q-82 0 -139.5 -49t-57.5 -143q0 -48 15 -87t50 -73t68 -58t93 -61q43 -27 65.5 -42t62 -45t61.5 -56.5t46.5 -63t35.5 -80t11 -92.5q0 -138 -86 -211t-204 -73q-153 0 -322 118zM203 1544h67l123 -190l125 190h68l-137 -256h-111z" />
<glyph horiz-adv-x="313" d="M115 788l18 611h45l21 -611h-84zM115 1524v125h82v-125h-82z" />
<glyph horiz-adv-x="784" d="M86 100l47 66q78 -50 142.5 -78.5t130.5 -28.5q88 0 149 54t61 153q0 37 -8.5 69t-27.5 60.5t-38.5 51t-53 48t-60 43t-68.5 44.5q-51 32 -77.5 50.5t-66 52.5t-59.5 64.5t-35.5 76t-15.5 96.5q0 129 80 200.5t199 71.5q71 0 147.5 -25.5t133.5 -62.5l-45 -68 q-142 78 -234 78q-82 0 -139.5 -49t-57.5 -143q0 -48 15 -87t50 -73t68 -58t93 -61q43 -27 65.5 -42t62 -45t61.5 -56.5t46.5 -63t35.5 -80t11 -92.5q0 -138 -86 -211t-204 -73q-153 0 -322 118zM297 1288l170 256h131l-229 -256h-72z" />
<glyph horiz-adv-x="784" d="M86 100l47 66q78 -50 142.5 -78.5t130.5 -28.5q88 0 149 54t61 153q0 37 -8.5 69t-27.5 60.5t-38.5 51t-53 48t-60 43t-68.5 44.5q-51 32 -77.5 50.5t-66 52.5t-59.5 64.5t-35.5 76t-15.5 96.5q0 129 80 200.5t199 71.5q71 0 147.5 -25.5t133.5 -62.5l-45 -68 q-142 78 -234 78q-82 0 -139.5 -49t-57.5 -143q0 -48 15 -87t50 -73t68 -58t93 -61q43 -27 65.5 -42t62 -45t61.5 -56.5t46.5 -63t35.5 -80t11 -92.5q0 -138 -86 -211t-204 -73q-153 0 -322 118z" />
<glyph horiz-adv-x="665" d="M119 788v861h215q115 0 183.5 -57t68.5 -185q0 -107 -47 -164.5t-127 -71.5l174 -383h-80l-168 377h-148v-377h-71zM190 1231h140q83 0 131.5 42.5t48.5 133.5q0 90 -47.5 132t-128.5 42h-144v-350z" />
<glyph horiz-adv-x="665" d="M119 -307v860h215q115 0 183.5 -57t68.5 -185q0 -204 -174 -235l174 -383h-80l-168 377h-148v-377h-71zM190 135h140q83 0 131.5 42.5t48.5 133.5q0 90 -47.5 132t-128.5 42h-144v-350z" />
<glyph horiz-adv-x="888" d="M154 0v1176h284q59 0 109 -10t94.5 -33.5t75.5 -60.5t49 -94t18 -130q0 -274 -243 -318l243 -530h-92l-235 522h-219v-522h-84zM238 600h198q121 0 191.5 59.5t70.5 188.5q0 128 -70 189t-186 61h-204v-498zM381 -483l55 180h-45v166h96l15 -166l-84 -211z" />
<glyph horiz-adv-x="888" d="M154 0v1176h284q59 0 109 -10t94.5 -33.5t75.5 -60.5t49 -94t18 -130q0 -274 -243 -318l243 -530h-92l-235 522h-219v-522h-84zM238 600h198q121 0 191.5 59.5t70.5 188.5q0 128 -70 189t-186 61h-204v-498zM279 1544h67l123 -190l125 190h68l-138 -256h-110z" />
<glyph horiz-adv-x="888" d="M154 0v1176h284q59 0 109 -10t94.5 -33.5t75.5 -60.5t49 -94t18 -130q0 -274 -243 -318l243 -530h-92l-235 522h-219v-522h-84zM238 600h198q121 0 191.5 59.5t70.5 188.5q0 128 -70 189t-186 61h-204v-498zM373 1288l170 256h131l-230 -256h-71z" />
<glyph horiz-adv-x="276" d="M100 479v107h78v-107h-78zM104 -307v645h70v-645h-70z" />
<glyph horiz-adv-x="888" d="M154 0v1176h284q59 0 109 -10t94.5 -33.5t75.5 -60.5t49 -94t18 -130q0 -274 -243 -318l243 -530h-92l-235 522h-219v-522h-84zM238 600h198q121 0 191.5 59.5t70.5 188.5q0 128 -70 189t-186 61h-204v-498z" />
<glyph horiz-adv-x="710" d="M86 1219q0 444 268 444q269 0 269 -444q0 -377 -195 -435l111 -122l-52 -54l-133 166q-268 0 -268 445zM162 1219q0 -83 9 -147t29.5 -117.5t59.5 -82t94 -28.5q193 0 193 375q0 374 -193 374q-55 0 -94 -28.5t-59.5 -81.5t-29.5 -117t-9 -147z" />
<glyph horiz-adv-x="309" d="M113 -307l18 610h45l21 -610h-84zM113 428v125h82v-125h-82z" />
<glyph horiz-adv-x="434" d="M166 1014v162h100v-162h-100zM168 0l22 840h54l22 -840h-98z" />
<glyph horiz-adv-x="710" d="M86 123q0 444 268 444q269 0 269 -444q0 -376 -195 -434l111 -123l-52 -53l-133 165q-268 0 -268 445zM162 123q0 -83 9 -147t29.5 -117.5t59.5 -82t94 -28.5q193 0 193 375t-193 375q-55 0 -94 -28.5t-59.5 -82t-29.5 -117.5t-9 -147z" />
<glyph horiz-adv-x="911" d="M145 342v834h84v-832q0 -63 10 -110.5t34 -88.5t69.5 -62.5t112.5 -21.5t113 21.5t70 62t34 88.5t10 111v832h84v-834q0 -360 -311 -360q-310 0 -310 360zM264 1288l135 256h111l137 -256h-67l-125 191l-123 -191h-68z" />
<glyph horiz-adv-x="946" d="M109 588q0 606 364 606q365 0 365 -606q0 -528 -281 -596l156 -172l-60 -60l-180 222q-364 0 -364 606zM195 588q0 -116 13 -206t43.5 -165t86.5 -115.5t135 -40.5q64 0 113 27.5t79.5 74t50 115t27 143.5t7.5 167q0 116 -13 206t-43 165t-86 115t-135 40t-135 -40 t-86.5 -115t-43.5 -165t-13 -206z" />
<glyph horiz-adv-x="632" d="M119 788v861h194q118 0 185 -59.5t67 -198.5t-67 -198.5t-185 -59.5h-123v-345h-71zM190 1202h125q174 0 174 189q0 100 -47 145t-127 45h-125v-379z" />
<glyph horiz-adv-x="632" d="M119 -307v860h194q118 0 185 -59.5t67 -198.5t-67 -198.5t-185 -59.5h-123v-344h-71zM190 106h125q174 0 174 189q0 100 -47 145t-127 45h-125v-379z" />
<glyph horiz-adv-x="274" d="M0 -504q28 13 44 20.5t28.5 19.5t17.5 18t8.5 25t3.5 30v43v686h70v-684v-35.5t-1 -30t-3 -27t-5.5 -22t-9 -21t-13.5 -18t-18.5 -17.5t-25 -15t-32.5 -16t-41 -15zM98 479v107h78v-107h-78z" />
<glyph horiz-adv-x="432" d="M166 0v162h100v-162h-100zM166 1176h98l-22 -840h-54z" />
<glyph horiz-adv-x="839" d="M154 0v1176h256q62 0 112 -10.5t94.5 -35.5t74.5 -64t47.5 -99.5t17.5 -139.5q0 -98 -25.5 -167.5t-74 -108t-108.5 -55.5t-138 -17h-172v-479h-84zM238 557h176q118 0 187 64t69 206t-69 206.5t-187 64.5h-176v-541z" />
<glyph horiz-adv-x="946" d="M109 588q0 606 364 606q365 0 365 -606t-365 -606q-364 0 -364 606zM195 588q0 -116 13 -206t43.5 -165t86.5 -115.5t135 -40.5q64 0 113 27.5t79.5 74t50 115t27 143.5t7.5 167q0 116 -13 206t-43 165t-86 115t-135 40t-135 -40t-86.5 -115t-43.5 -165t-13 -206z M266 1339q27 75 54 110.5t67 35.5q30 0 63 -25.5t61 -50.5t46 -25q19 0 33.5 18.5t36.5 76.5l53 -25q-27 -74 -54 -109.5t-67 -35.5q-30 0 -63 25t-61.5 50t-47.5 25q-17 0 -31.5 -18.5t-36.5 -75.5z" />
<glyph horiz-adv-x="710" d="M86 1219q0 444 268 444q269 0 269 -444q0 -96 -13.5 -173t-43.5 -140t-84 -97.5t-128 -34.5q-268 0 -268 445zM162 1219q0 -83 9 -147t29.5 -117.5t59.5 -82t94 -28.5q193 0 193 375q0 374 -193 374q-55 0 -94 -28.5t-59.5 -81.5t-29.5 -117t-9 -147z" />
<glyph horiz-adv-x="516" d="M102 -307v895h70v-598l197 348h80l-160 -264l188 -381h-76l-151 317l-78 -129v-188h-70z" />
<glyph horiz-adv-x="516" d="M102 788v895h70v-598l197 349h80l-160 -265l188 -381h-76l-151 318l-78 -129v-189h-70z" />
<glyph horiz-adv-x="940" d="M106 588q0 606 365 606q151 0 236 -102l45 84h71l-75 -142q88 -155 88 -446q0 -606 -365 -606q-149 0 -235 98l-43 -80h-72l74 137q-89 157 -89 451zM193 588q0 -229 51 -359l420 781q-68 104 -193 104q-79 0 -135 -40t-86.5 -115t-43.5 -165t-13 -206zM279 162 q69 -101 192 -101q64 0 113 27.5t79.5 74t50 115t27 143.5t7.5 167q0 223 -50 354zM375 1288l170 256h131l-230 -256h-71z" />
<glyph horiz-adv-x="911" d="M145 342v834h84v-832q0 -63 10 -110.5t34 -88.5t69.5 -62.5t112.5 -21.5t113 21.5t70 62t34 88.5t10 111v832h84v-834q0 -360 -311 -360q-310 0 -310 360zM293 1309v159h98v-159h-98zM522 1309v159h96v-159h-96z" />
<glyph horiz-adv-x="946" d="M109 588q0 606 364 606q365 0 365 -606t-365 -606q-364 0 -364 606zM195 588q0 -116 13 -206t43.5 -165t86.5 -115.5t135 -40.5q64 0 113 27.5t79.5 74t50 115t27 143.5t7.5 167q0 116 -13 206t-43 165t-86 115t-135 40t-135 -40t-86.5 -115t-43.5 -165t-13 -206z M272 1339v74h402v-74h-402z" />
<glyph horiz-adv-x="710" d="M86 123q0 444 268 444q269 0 269 -444q0 -96 -13.5 -173t-43.5 -140t-84 -97.5t-128 -34.5q-268 0 -268 445zM162 123q0 -83 9 -147t29.5 -117.5t59.5 -82t94 -28.5q193 0 193 375t-193 375q-55 0 -94 -28.5t-59.5 -82t-29.5 -117.5t-9 -147z" />
<glyph horiz-adv-x="946" d="M109 588q0 606 364 606q365 0 365 -606t-365 -606q-364 0 -364 606zM195 588q0 -116 13 -206t43.5 -165t86.5 -115.5t135 -40.5q64 0 113 27.5t79.5 74t50 115t27 143.5t7.5 167q0 116 -13 206t-43 165t-86 115t-135 40t-135 -40t-86.5 -115t-43.5 -165t-13 -206z M319 1288l109 256h115l-168 -256h-56zM520 1288l107 256h114l-168 -256h-53z" />
<glyph horiz-adv-x="946" d="M109 588q0 606 364 606q365 0 365 -606t-365 -606q-364 0 -364 606zM195 588q0 -116 13 -206t43.5 -165t86.5 -115.5t135 -40.5q64 0 113 27.5t79.5 74t50 115t27 143.5t7.5 167q0 116 -13 206t-43 165t-86 115t-135 40t-135 -40t-86.5 -115t-43.5 -165t-13 -206z M270 1544h129l172 -256h-69z" />
<glyph horiz-adv-x="911" d="M145 342v834h84v-832q0 -63 10 -110.5t34 -88.5t69.5 -62.5t112.5 -21.5t113 21.5t70 62t34 88.5t10 111v832h84v-834q0 -360 -311 -360q-310 0 -310 360zM252 1544h129l172 -256h-70z" />
<glyph horiz-adv-x="274" d="M102 -307v895h70v-895h-70z" />
<glyph horiz-adv-x="911" d="M145 342v834h84v-832q0 -63 10 -110.5t34 -88.5t69.5 -62.5t112.5 -21.5t113 21.5t70 62t34 88.5t10 111v832h84v-834q0 -360 -311 -360q-310 0 -310 360zM301 1288l109 256h114l-168 -256h-55zM502 1288l106 256h115l-168 -256h-53z" />
<glyph horiz-adv-x="741" d="M119 0v66q11 13 28 37.5t53 97.5t52 143h-121v72h133l1 17q1 17 1 26q0 30 -8 88h-127v71h109q-10 28 -38.5 96.5t-42.5 120.5t-14 109q0 117 63.5 183.5t168.5 66.5q39 0 76.5 -9t74 -27.5t58 -31.5t55.5 -36l-47 -62q-68 46 -115.5 67t-93.5 21q-73 0 -115.5 -46.5 t-42.5 -131.5q0 -51 15.5 -102t42.5 -114t39 -104h219v-71h-203q8 -54 8 -84q0 -9 -1 -27t-1 -20h197v-72h-209q-18 -84 -51 -157t-58 -109h402v-78h-508z" />
<glyph horiz-adv-x="546" d="M88 -250q8 9 20 26t38 68.5t38 102.5h-88v55h97q2 8 2 25q0 15 -9 67h-90v56h76q-7 21 -26.5 68t-29.5 84.5t-10 78.5q0 86 47 136t123 50q39 0 79.5 -14.5t63 -29t54.5 -38.5l-39 -53q-47 34 -81 50t-68 16q-48 0 -76.5 -33t-28.5 -92q0 -36 10.5 -71t29 -80t26.5 -72 h157v-56h-145q6 -30 6 -63q0 -21 -2 -29h141v-55h-149q-18 -100 -74 -187h283v-67h-375v57z" />
<glyph horiz-adv-x="548" d="M90 788v58q8 9 20 25.5t38 68t38 102.5h-88v56h97q2 8 2 24t-9 68h-90v55h76q-6 19 -26 67.5t-29.5 86t-9.5 78.5q0 86 47 136t123 50q39 0 79 -15t62.5 -29t54.5 -38l-39 -53q-90 65 -149 65q-48 0 -76.5 -33t-28.5 -92q0 -36 10.5 -71t29 -80t26.5 -72h158v-55h-146 q6 -30 6 -64q0 -20 -2 -28h142v-56h-150q-18 -98 -74 -186h283v-68h-375z" />
<glyph horiz-adv-x="946" d="M109 588q0 606 364 606q365 0 365 -606t-365 -606q-364 0 -364 606zM195 588q0 -116 13 -206t43.5 -165t86.5 -115.5t135 -40.5q64 0 113 27.5t79.5 74t50 115t27 143.5t7.5 167q0 116 -13 206t-43 165t-86 115t-135 40t-135 -40t-86.5 -115t-43.5 -165t-13 -206z M309 1309v159h99v-159h-99zM539 1309v159h96v-159h-96z" />
<glyph horiz-adv-x="946" d="M109 588q0 606 364 606q365 0 365 -606t-365 -606q-364 0 -364 606zM195 588q0 -116 13 -206t43.5 -165t86.5 -115.5t135 -40.5q64 0 113 27.5t79.5 74t50 115t27 143.5t7.5 167q0 116 -13 206t-43 165t-86 115t-135 40t-135 -40t-86.5 -115t-43.5 -165t-13 -206z M283 1288l135 256h110l138 -256h-68l-125 191l-123 -191h-67z" />
<glyph horiz-adv-x="686" d="M113 -49v602h71v-600q0 -97 34 -151t124 -54q46 0 78 15.5t49 44.5t24 64t7 81v600h71v-602q0 -273 -229 -273t-229 273z" />
<glyph horiz-adv-x="946" d="M109 588q0 606 364 606q365 0 365 -606t-365 -606q-364 0 -364 606zM195 588q0 -116 13 -206t43.5 -165t86.5 -115.5t135 -40.5q64 0 113 27.5t79.5 74t50 115t27 143.5t7.5 167q0 116 -13 206t-43 165t-86 115t-135 40t-135 -40t-86.5 -115t-43.5 -165t-13 -206z M285 1487h67q0 -123 121 -123q123 0 123 123h66q0 -92 -50 -145.5t-139 -53.5q-88 0 -138 53.5t-50 145.5z" />
<glyph horiz-adv-x="911" d="M145 342v834h84v-832q0 -63 10 -110.5t34 -88.5t69.5 -62.5t112.5 -21.5t113 21.5t70 62t34 88.5t10 111v832h84v-834q0 -360 -311 -360q-310 0 -310 360zM254 1339v74h401v-74h-401z" />
<glyph horiz-adv-x="946" d="M109 588q0 606 364 606q365 0 365 -606t-365 -606q-364 0 -364 606zM195 588q0 -116 13 -206t43.5 -165t86.5 -115.5t135 -40.5q64 0 113 27.5t79.5 74t50 115t27 143.5t7.5 167q0 116 -13 206t-43 165t-86 115t-135 40t-135 -40t-86.5 -115t-43.5 -165t-13 -206z M375 1288l170 256h131l-230 -256h-71z" />
<glyph horiz-adv-x="1384" d="M109 588q0 606 364 606q191 0 283 -172v154h524v-78h-440v-471h364v-78h-364v-471h446v-78h-530v152q-93 -170 -283 -170q-364 0 -364 606zM195 588q0 -116 13 -206t43.5 -165t86.5 -115.5t135 -40.5q64 0 113 27.5t79.5 74t50 115t27 143.5t7.5 167q0 116 -13 206 t-43 165t-86 115t-135 40t-135 -40t-86.5 -115t-43.5 -165t-13 -206z" />
<glyph horiz-adv-x="870" d="M104 -307v645h70v-100q81 114 176 114q30 0 52.5 -12t35.5 -31.5t20 -38t11 -39.5q86 121 180 121q63 0 92 -47t29 -119v-493h-70v483q0 113 -73 113t-156 -125v-471h-70v483q0 113 -73 113t-154 -121v-475h-70z" />
<glyph horiz-adv-x="911" d="M145 342v834h84v-832q0 -63 10 -110.5t34 -88.5t69.5 -62.5t112.5 -21.5t113 21.5t70 62t34 88.5t10 111v832h84v-834q0 -289 -203 -346q-2 -2 -16.5 -14t-18.5 -15.5t-17.5 -15.5t-18.5 -18t-16 -18t-16 -20.5t-12.5 -21t-11 -23t-6 -23.5t-2.5 -26t2.5 -24t5.5 -19 t9 -14.5t10.5 -10.5t14 -7t14 -4.5t16 -2t15 -0.5h15h13.5l-13 -77q-23 0 -38.5 1t-44.5 8.5t-46.5 22t-32 44t-14.5 71.5q0 104 115 193h-14q-310 0 -310 360z" />
<glyph horiz-adv-x="555" d="M74 16q0 160 59 248t154 88q93 0 143.5 -77t50.5 -201l-6 -80h-328q3 -117 39 -184.5t97 -67.5t161 84l39 -45q-110 -103 -207 -103q-87 0 -144.5 88.5t-57.5 249.5zM147 47h265q1 123 -32 183.5t-91 60.5q-65 0 -102 -66t-40 -178z" />
<glyph horiz-adv-x="946" d="M109 588q0 606 364 606q365 0 365 -606t-365 -606q-364 0 -364 606zM195 588q0 -116 13 -206t43.5 -165t86.5 -115.5t135 -40.5q64 0 113 27.5t79.5 74t50 115t27 143.5t7.5 167q0 116 -13 206t-43 165t-86 115t-135 40t-135 -40t-86.5 -115t-43.5 -165t-13 -206z" />
<glyph horiz-adv-x="944" d="M154 0v1176h86l465 -1004v1004h83v-1176h-86l-464 1004v-1004h-84zM272 1339q27 75 54 110.5t67 35.5q30 0 63 -25.5t61 -50.5t46 -25q19 0 33.5 18.5t36.5 76.5l53 -25q-27 -74 -54 -109.5t-67 -35.5q-30 0 -63 25t-61.5 50t-47.5 25q-17 0 -31 -18.5t-36 -75.5z" />
<glyph horiz-adv-x="710" d="M121 788v861h76l321 -711v711h72v-861h-76l-321 711v-711h-72z" />
<glyph horiz-adv-x="710" d="M121 -307v860h76l321 -711v711h72v-860h-76l-321 710v-710h-72z" />
<glyph horiz-adv-x="944" d="M154 0v1176h86l465 -1004v1004h83v-1176h-86l-464 1004v-1004h-84zM420 -483l55 180h-45v166h96l15 -166l-84 -211z" />
<glyph horiz-adv-x="944" d="M154 0v1176h86l465 -1004v1004h83v-1176h-86l-464 1004v-1004h-84zM289 1544h67l123 -190l125 190h68l-137 -256h-111z" />
<glyph horiz-adv-x="944" d="M154 0v1176h86l465 -1004v1004h83v-1176h-86l-464 1004v-1004h-84zM375 1288l170 256h131l-230 -256h-71z" />
<glyph horiz-adv-x="944" d="M154 0v1176h86l465 -1004v1004h83v-1176h-86l-464 1004v-1004h-84z" />
<glyph horiz-adv-x="602" d="M74 586q0 120 58.5 204t154.5 84q56 0 101 -31t71.5 -82.5t40.5 -113.5t14 -129q1 -252 -92 -392t-225 -140q-21 0 -41.5 3.5t-30.5 6.5l-10 4l16 66q29 -13 62 -13q86 0 154.5 92t86.5 271q-65 -105 -164 -105q-91 0 -143.5 80t-52.5 195zM145 586q0 -83 35.5 -146 t102.5 -63q58 0 100.5 43t56.5 94v6q0 118 -40 202.5t-111 84.5q-68 0 -106 -66t-38 -155z" />
<glyph horiz-adv-x="917" d="M111 340q0 264 268 430q-211 142 -211 369q0 139 84 228t207 89t207 -89t84 -228q0 -226 -213 -369q270 -167 270 -430q0 -169 -99.5 -266t-248.5 -97t-248.5 97t-99.5 266zM199 342q0 -133 74.5 -208t185.5 -75t185.5 75t74.5 208q0 71 -22.5 131.5t-64.5 107.5t-81 78 t-92 64q-53 -33 -93 -64.5t-81 -78t-63.5 -107t-22.5 -131.5zM256 1128q0 -189 203 -311q203 122 203 311q0 104 -57.5 175t-145.5 71t-145.5 -71t-57.5 -175z" />
<glyph horiz-adv-x="882" d="M94 717q0 128 39 236t115.5 174.5t175.5 66.5q70 0 128.5 -34t98.5 -91t68 -133.5t41 -160t14 -171.5q1 -175 -26.5 -323t-74.5 -251t-110 -175t-133.5 -106t-144.5 -34q-32 0 -63.5 6t-46.5 11l-15 6l20 78q46 -19 101 -19q67 0 131 39t119.5 115.5t95.5 204t53 290.5 q-11 -22 -26 -44t-40.5 -48.5t-54 -46.5t-68.5 -33.5t-83 -13.5q-99 0 -171.5 65.5t-107.5 167.5t-35 224zM180 715q0 -68 13.5 -132t40.5 -119t73.5 -88.5t106.5 -33.5q52 0 99 24.5t81 62.5t57 79.5t35 81.5v14q0 97 -16 186t-47 162t-82 116.5t-115 43.5 q-78 0 -135.5 -59t-84 -147.5t-26.5 -190.5z" />
<glyph horiz-adv-x="610" d="M80 782q0 153 162 254q-125 84 -125 217q0 86 53 140.5t135 54.5q84 0 137.5 -54.5t53.5 -140.5q0 -132 -127 -217q163 -102 163 -254q0 -104 -63.5 -163.5t-163.5 -59.5q-98 0 -161.5 59.5t-63.5 163.5zM154 784q0 -74 43.5 -116.5t107.5 -42.5q66 0 110 42.5t44 116.5 q0 75 -42.5 125t-111.5 90q-68 -41 -109.5 -90.5t-41.5 -124.5zM188 1245q0 -106 117 -174q117 68 117 174q0 58 -32.5 97.5t-84.5 39.5t-84.5 -39.5t-32.5 -97.5z" />
<glyph horiz-adv-x="610" d="M80 209q0 153 162 254q-125 84 -125 217q0 86 53 140t135 54q84 0 137.5 -54t53.5 -140q0 -132 -127 -217q163 -102 163 -254q0 -104 -63.5 -163.5t-163.5 -59.5q-98 0 -161.5 59.5t-63.5 163.5zM154 211q0 -74 43.5 -117t107.5 -43q66 0 110 43t44 117q0 75 -42.5 125 t-111.5 90q-68 -41 -109.5 -90.5t-41.5 -124.5zM188 672q0 -106 117 -174q117 68 117 174q0 58 -32.5 97.5t-84.5 39.5t-84.5 -39.5t-32.5 -97.5z" />
<glyph horiz-adv-x="911" d="M145 342v834h84v-832q0 -63 10 -110.5t34 -88.5t69.5 -62.5t112.5 -21.5t113 21.5t70 62t34 88.5t10 111v832h84v-834q0 -360 -311 -360q-310 0 -310 360zM279 1444q0 74 51 126t125 52q75 0 126.5 -52t51.5 -126q0 -75 -51.5 -125.5t-126.5 -50.5t-125.5 50.5 t-50.5 125.5zM342 1444q0 -47 33 -80t80 -33t80.5 33t33.5 80t-33.5 81t-80.5 34t-80 -34t-33 -81z" />
<glyph horiz-adv-x="593" d="M102 -307v645h70v-96q105 110 197 110q65 0 95 -46.5t30 -119.5v-493h-70v483q0 113 -76 113q-48 0 -95.5 -37.5t-80.5 -79.5v-479h-70z" />
<glyph horiz-adv-x="686" d="M113 1047v602h71v-600q0 -97 34 -151t124 -54q46 0 78 15.5t49 44.5t24 64t7 81v600h71v-602q0 -273 -229 -273t-229 273z" />
<glyph horiz-adv-x="911" d="M145 342v834h84v-832q0 -63 10 -110.5t34 -88.5t69.5 -62.5t112.5 -21.5t113 21.5t70 62t34 88.5t10 111v832h84v-834q0 -360 -311 -360q-310 0 -310 360zM248 1339q27 75 54 110.5t67 35.5q30 0 63 -25.5t61 -50.5t46 -25t32.5 18.5t36.5 76.5l54 -25 q-27 -74 -54 -109.5t-67 -35.5q-30 0 -63 25t-61.5 50t-47.5 25q-17 0 -31.5 -18.5t-36.5 -75.5z" />
<glyph horiz-adv-x="811" d="M121 788v861h78l204 -605l209 605h78v-861h-72v699l-190 -555h-47l-188 553v-697h-72z" />
<glyph horiz-adv-x="811" d="M121 -307v860h78l204 -604l209 604h78v-860h-72v698l-190 -555h-47l-188 553v-696h-72z" />
<glyph horiz-adv-x="991" d="M98 322v69h181l43 393h-172v68h180l37 324h69l-37 -324h252l37 324h68l-37 -324h174v-68h-182l-45 -393h174v-69h-183l-36 -322h-66l37 322h-254l-37 -322h-68l37 322h-172zM346 391h254l43 393h-252z" />
<glyph horiz-adv-x="714" d="M72 -16h127l30 276h-120v62h127l26 231h57l-26 -231h172l27 231h57l-27 -231h123v-62h-129l-31 -276h121v-62h-129l-24 -229h-58l25 229h-172l-25 -229h-57l24 229h-118v62zM256 -16h172l31 276h-172z" />
<glyph horiz-adv-x="714" d="M72 1018v61h127l30 277h-120v61h127l26 232h57l-26 -232h172l27 232h57l-27 -232h123v-61h-129l-31 -277h121v-61h-129l-24 -230h-58l25 230h-172l-25 -230h-57l24 230h-118zM256 1079h172l31 277h-172z" />
<glyph horiz-adv-x="1083" d="M154 0v1176h92l295 -850l295 850h92v-1176h-84v981l-275 -784h-59l-272 784v-981h-84z" />
<glyph horiz-adv-x="546" d="M119 788v861h71v-791h306v-70h-377z" />
<glyph horiz-adv-x="724" d="M72 414v92l92 65v605h84v-543l166 119v-93l-166 -118v-463h426v-78h-510v479z" />
<glyph horiz-adv-x="546" d="M119 -307v860h71v-791h306v-69h-377z" />
<glyph horiz-adv-x="716" d="M154 0v1176h84v-1098h426v-78h-510zM494 532v160h98v-160h-98z" />
<glyph horiz-adv-x="712" d="M154 0v1176h84v-1098h426v-78h-510zM348 -483l55 180h-45v166h97l14 -166l-84 -211z" />
<glyph horiz-adv-x="882" d="M63 1176h93l284 -1059l287 1059h92l-334 -1176h-90z" />
<glyph horiz-adv-x="712" d="M154 0v1176h84v-1098h426v-78h-510zM295 829l55 181h-45v166h96l15 -166l-84 -211z" />
<glyph horiz-adv-x="712" d="M98 1288l170 256h131l-229 -256h-72zM154 0v1176h84v-1098h426v-78h-510z" />
<glyph horiz-adv-x="577" d="M72 14q0 159 56 248.5t159 89.5q104 0 160.5 -90t56.5 -248q0 -157 -56.5 -246.5t-160.5 -89.5q-103 0 -159 89.5t-56 246.5zM143 14q0 -272 144 -272q74 0 109.5 72t35.5 200q0 129 -35.5 202t-109.5 73t-109 -73t-35 -202z" />
<glyph horiz-adv-x="712" d="M154 0v1176h84v-1098h426v-78h-510z" />
<glyph horiz-adv-x="638" d="M119 788v861h71v-488l293 488h86l-254 -412l281 -449h-88l-234 381l-84 -137v-244h-71z" />
<glyph horiz-adv-x="430" d="M49 752l148 108h65v-860h-72v776l-106 -78z" />
<glyph horiz-adv-x="430" d="M49 1325l148 109h65v-861h-72v777l-106 -78z" />
<glyph horiz-adv-x="540" d="M66 1004l225 172h76v-1176h-86v1069l-170 -131z" />
<glyph horiz-adv-x="649" d="M47 553h82l195 -754l198 754h80l-237 -860h-80z" />
<glyph horiz-adv-x="649" d="M47 1649h82l195 -754l198 754h80l-237 -861h-80z" />
<glyph horiz-adv-x="1052" d="M68 1085l129 91h61v-705h-68v629l-92 -64zM217 0l410 1176h69l-407 -1176h-72zM567 172q0 126 142 207q-109 72 -109 178q0 70 46.5 115t117.5 45q74 0 121 -45t47 -115q0 -108 -111 -178q63 -37 103.5 -85t40.5 -122q0 -86 -56 -135t-145 -49q-86 0 -141.5 49.5 t-55.5 134.5zM635 174q0 -58 37 -92.5t92 -34.5q57 0 94 34t37 93q0 61 -35.5 101t-93.5 73q-59 -33 -95 -73t-36 -101zM666 549q0 -88 98 -141q100 54 100 141q0 45 -28.5 77.5t-71.5 32.5q-42 0 -70 -32.5t-28 -77.5z" />
<glyph horiz-adv-x="1052" d="M68 1085l129 91h61v-705h-68v629l-92 -64zM217 0l410 1176h69l-407 -1176h-72zM584 57l30 56l8 -6q7 -6 11.5 -9t14.5 -9.5t17.5 -11t19 -10t21.5 -8.5t22.5 -5.5t23.5 -2.5q52 0 89.5 47.5t37.5 122.5q0 69 -33 115.5t-92 46.5q-46 0 -113 -43l-35 18l29 347h293v-62 h-238l-12 -223q43 24 90 24q82 0 131 -64.5t49 -160.5q0 -95 -49.5 -163t-140.5 -68q-90 0 -174 69z" />
<glyph horiz-adv-x="638" d="M119 -307v860h71v-487l293 487h86l-254 -412l281 -448h-88l-234 381l-84 -137v-244h-71z" />
<glyph horiz-adv-x="1054" d="M70 1085l129 91h61v-705h-67v629l-93 -64zM219 0l410 1176h69l-407 -1176h-72zM596 0v51q0 34 5 63.5t16.5 55t21 44t29.5 40.5t30.5 33.5t34.5 34t33 30.5q121 118 121 203q0 45 -30 71.5t-75 26.5q-56 0 -141 -53l-31 49q93 68 178 68q72 0 119 -43.5t47 -118.5 q0 -20 -3 -39.5t-12 -40t-14.5 -34.5t-22 -35t-22.5 -30.5t-28 -32t-26 -26.5t-28.5 -28t-25.5 -25q-56 -54 -79 -94t-23 -109h284v-61h-358z" />
<glyph horiz-adv-x="1206" d="M80 1176h92l190 -1031l197 1031h86l195 -1031l192 1031h92l-237 -1176h-92l-193 1004l-192 -1004h-95z" />
<glyph horiz-adv-x="843" d="M154 0v1176h84v-684l417 684h99l-351 -566l392 -610h-103l-336 535l-118 -191v-344h-84zM369 -483l55 180h-45v166h96l14 -166l-83 -211z" />
<glyph horiz-adv-x="1019" d="M70 1085l129 91h61v-705h-67v629l-93 -64zM219 0l410 1176h69l-407 -1176h-72zM512 160v55l254 490h88v-484h82v-61h-82v-160h-68v160h-274zM575 221h211v404z" />
<glyph horiz-adv-x="1028" d="M68 1085l129 91h61v-705h-68v629l-92 -64zM217 0l410 1176h69l-407 -1176h-72zM545 281q-1 206 80.5 321t197.5 115q18 0 36 -3t27 -6l9 -3l-16 -60q-25 10 -54 10q-74 0 -133.5 -72t-75.5 -214q20 31 56.5 56.5t87.5 25.5q77 0 123.5 -66t46.5 -160q0 -99 -51.5 -168 t-135.5 -69q-65 0 -111.5 44.5t-66.5 109t-20 139.5zM612 279q0 -95 34.5 -162.5t94.5 -67.5q58 0 89.5 52.5t31.5 123.5q0 67 -29 116.5t-85 49.5q-49 0 -86 -34.5t-50 -73.5v-4z" />
<glyph horiz-adv-x="843" d="M154 0v1176h84v-684l417 684h99l-351 -566l392 -610h-103l-336 535l-118 -191v-344h-84z" />
<glyph horiz-adv-x="1206" d="M80 1176h92l190 -1031l197 1031h86l195 -1031l192 1031h92l-237 -1176h-92l-193 1004l-192 -1004h-95zM506 1288l170 256h131l-229 -256h-72z" />
<glyph horiz-adv-x="1044" d="M70 1085l129 91h61v-705h-67v629l-93 -64zM219 0l410 1176h69l-407 -1176h-72zM573 49l35 51q79 -49 140 -49q59 0 97 39t38 105q0 81 -55 121t-123 40h-15v62h19q59 0 104 37.5t45 101.5q0 46 -27.5 71t-72.5 25q-38 0 -73.5 -15.5t-53.5 -31.5l-33 47q85 64 168 64 q76 0 118 -44t42 -108q0 -54 -30.5 -102t-90.5 -74q64 -18 104.5 -70.5t40.5 -125.5q0 -84 -50 -144.5t-146 -60.5q-90 0 -181 61z" />
<glyph horiz-adv-x="307" d="M14 682q76 34 90.5 56.5t14.5 95.5v815h71v-813v-43.5t-2 -35t-5.5 -32t-11 -25t-18 -23.5t-27 -19.5t-37.5 -20.5t-50 -19z" />
<glyph horiz-adv-x="307" d="M14 -414q76 34 90.5 56.5t14.5 95.5v815h71v-813v-43.5t-2 -35t-5.5 -31.5t-11 -25t-18 -23.5t-27 -19t-37.5 -20.5t-50 -19z" />
<glyph horiz-adv-x="391" d="M4 1288l135 256h111l137 -256h-68l-124 191l-123 -191h-68zM10 -152q39 18 60.5 28.5t40 26.5t25.5 25t12 32.5t5.5 41t0.5 57.5v1117h84v-1117v-46.5t-1.5 -39t-4 -35t-7.5 -29t-12 -27t-18 -22.5t-25 -22.5t-33.5 -19.5t-43.5 -20.5t-54 -20.5z" />
<glyph horiz-adv-x="391" d="M10 -152q39 18 60.5 28.5t40 26.5t25.5 25t12 32.5t5.5 41t0.5 57.5v1117h84v-1117v-46.5t-1.5 -39t-4 -35t-7.5 -29t-12 -27t-18 -22.5t-25 -22.5t-33.5 -19.5t-43.5 -20.5t-54 -20.5z" />
<glyph horiz-adv-x="813" d="M100 100l47 66q139 -92 230 -105v519l-43.5 28.5t-41 28t-40.5 30.5t-35 31.5t-32.5 35.5t-25.5 38.5t-21 44.5t-12 49t-5 56q0 122 72.5 193t183.5 77v154h61v-154q131 -15 242 -86l-45 -68q-121 64 -197 74v-473q48 -30 77 -49.5t71.5 -56.5t66.5 -72t42 -86.5 t18 -108.5q0 -133 -81 -206t-194 -78v-150h-61v154q-138 15 -277 114zM205 924q0 -80 42 -134.5t130 -111.5v436q-74 -6 -123 -55t-49 -135zM438 59q81 5 137 59.5t56 147.5q0 87 -49 149.5t-144 125.5v-482z" />
<glyph horiz-adv-x="391" d="M-12 1339q27 75 54 110.5t67 35.5q30 0 63 -25.5t61 -50.5t46 -25t32.5 18.5t36.5 76.5l53 -25q-27 -75 -53.5 -110t-66.5 -35q-30 0 -63 25t-61.5 50t-47.5 25q-17 0 -31.5 -18.5t-36.5 -75.5zM154 0v1176h84v-1176h-84z" />
<glyph horiz-adv-x="309" d="M119 788v861h71v-861h-71z" />
<glyph horiz-adv-x="391" d="M18 -211q0 116 140 211h-2v1176h84v-1176h-7q-3 -3 -23.5 -20t-28 -24t-25.5 -24t-26 -29t-18.5 -29.5t-15 -35.5t-4.5 -37q0 -13 2.5 -24t5.5 -19t9 -14.5t10.5 -10.5t14 -7t14 -4.5t16 -2t15 -0.5h15h13.5l-12 -77q-23 0 -38.5 1t-44.5 8.5t-47 22t-32.5 44t-14.5 71.5 z" />
<glyph horiz-adv-x="827" d="M70 834q0 167 75 254.5t222 87.5h69v-1487h-74v805q-134 0 -213 89t-79 251zM582 -311v1487h75v-1487h-75z" />
<glyph horiz-adv-x="389" d="M-6 1339v74h401v-74h-401zM154 0v1176h84v-1176h-84z" />
<glyph horiz-adv-x="471" d="M166 29v1112q0 33 0.5 50.5t3 42t7.5 37.5t14.5 31.5t23.5 30t35 25.5t48.5 26t63.5 25l27 -68q-37 -17 -58.5 -27.5t-39 -26t-24.5 -25t-11.5 -33.5t-5 -41t-0.5 -58v-1093q0 -40 0.5 -57t5 -40.5t11.5 -33t24.5 -25t39 -26t58.5 -27.5l-27 -68q-41 15 -71.5 29.5 t-52 28t-35 32.5t-21 34t-11 42t-4.5 46t-1 57z" />
<glyph horiz-adv-x="1206" d="M80 1176h92l190 -1031l197 1031h86l195 -1031l192 1031h92l-237 -1176h-92l-193 1004l-192 -1004h-95zM412 1288l135 256h110l138 -256h-68l-125 191l-123 -191h-67z" />
<glyph horiz-adv-x="585" d="M74 14q0 173 48.5 255.5t127.5 82.5q82 0 162 -102v338h69v-895h-69v86q-80 -101 -162 -101q-79 0 -127.5 82.5t-48.5 253.5zM145 14q0 -127 30 -198.5t89 -71.5q39 0 78 30.5t70 75.5v328q-30 47 -69.5 78t-78.5 31q-59 0 -89 -72t-30 -201z" />
<glyph horiz-adv-x="309" d="M119 -307v860h71v-860h-71z" />
<glyph horiz-adv-x="471" d="M82 -172q37 17 58.5 27.5t39 26t24.5 25t11.5 33.5t5 41t0.5 58v1094q0 35 -0.5 50t-2.5 36.5t-8 31t-14.5 22.5t-25.5 22.5t-36.5 20t-51.5 25.5l27 68q36 -13 63.5 -25t48.5 -26t35 -25.5t23.5 -30t14.5 -31.5t7.5 -37.5t3 -42t0.5 -50.5v-1112q0 -38 -1 -57t-4.5 -46 t-11 -42t-21 -34t-35 -32.5t-52 -28t-71.5 -29.5z" />
<glyph horiz-adv-x="1206" d="M80 1176h92l190 -1031l197 1031h86l195 -1031l192 1031h92l-237 -1176h-92l-193 1004l-192 -1004h-95zM449 1309v159h98v-159h-98zM678 1309v159h96v-159h-96z" />
<glyph horiz-adv-x="1206" d="M80 1176h92l190 -1031l197 1031h86l195 -1031l192 1031h92l-237 -1176h-92l-193 1004l-192 -1004h-95zM399 1544h129l172 -256h-69z" />
<glyph horiz-adv-x="880" d="M57 553h80l131 -727l138 727h69l135 -727l131 727h82l-172 -860h-78l-135 713l-133 -713h-78z" />
<glyph horiz-adv-x="389" d="M-8 1544h129l172 -256h-70zM154 0v1176h84v-1176h-84z" />
<glyph horiz-adv-x="1269" d="M88 883q0 143 53.5 227t163.5 84q108 0 161.5 -84t53.5 -227t-53.5 -230.5t-161.5 -87.5q-109 0 -163 87.5t-54 230.5zM162 883q0 -112 34.5 -183t108.5 -71q72 0 105.5 71.5t33.5 182.5t-33.5 178t-105.5 67q-75 0 -109 -66.5t-34 -178.5zM371 0l450 1176h72l-449 -1176 h-73zM748 301q0 143 53 226t164 83q108 0 161.5 -83.5t53.5 -225.5q0 -144 -53.5 -231.5t-161.5 -87.5q-110 0 -163.5 87t-53.5 232zM819 301q0 -112 35 -183t111 -71q72 0 105.5 71.5t33.5 182.5q0 110 -33.5 178t-105.5 68q-77 0 -111.5 -67.5t-34.5 -178.5z" />
<glyph horiz-adv-x="927" d="M68 338q0 105 38.5 167t118.5 62t119 -62t39 -167q0 -106 -39 -169t-119 -63t-118.5 63t-38.5 169zM129 338q0 -78 23 -128t73 -50t73.5 50t23.5 128q0 174 -97 174q-96 0 -96 -174zM270 -307l324 860h61l-323 -860h-62zM543 -88q0 105 39.5 166t119.5 61 q79 0 118.5 -61.5t39.5 -165.5q0 -105 -40 -169.5t-118 -64.5q-80 0 -119.5 64t-39.5 170zM604 -88q0 -178 98 -178q49 0 72 49.5t23 128.5q0 78 -23 126t-72 48q-98 0 -98 -174z" />
<glyph horiz-adv-x="1253" d="M70 1001v74h102v189q0 119 48.5 164t129.5 45q90 0 295 -62q41 82 156 82q95 0 274 -61l-35 -70q-170 53 -241 53q-40 0 -67 -31t-27 -90v-219h407v-1161v-54.5t-1.5 -46t-4.5 -41t-8 -34t-13 -32t-20 -26.5t-28 -26t-37.5 -23.5t-47.5 -24.5t-59 -24l-29 72 q33 16 54 26.5t40.5 24.5t29.5 21.5t19 25t12.5 27.5t6 36t2.5 43v56v1087h-323v-1001h-82v1001h-369v-1001h-82v1001h-102zM254 1075h369v209q0 37 2 53q-211 58 -277 58q-41 0 -67.5 -30.5t-26.5 -90.5v-199z" />
<glyph horiz-adv-x="389" d="M31 1309v159h98v-159h-98zM154 0v1176h84v-1176h-84zM260 1309v159h96v-159h-96z" />
<glyph horiz-adv-x="391" d="M4 1288l135 256h111l137 -256h-68l-124 191l-123 -191h-68zM154 0v1176h84v-1176h-84z" />
<glyph horiz-adv-x="880" d="M57 1649h80l131 -727l138 727h69l135 -727l131 727h82l-172 -861h-78l-135 713l-133 -713h-78z" />
<glyph horiz-adv-x="512" d="M72 1112q0 160 56.5 248t139.5 88q14 0 29 -3t26.5 -6.5t26.5 -11t23.5 -12.5t22.5 -15t19.5 -14t18.5 -14.5t15 -11.5l-39 -51q-1 1 -14 11.5t-20 15.5t-22 15t-26 15t-26 9.5t-28 4.5q-57 0 -94 -73t-37 -195q0 -123 37 -196.5t94 -73.5q13 0 28 4.5t26 9.5t26 15 t22 15t20 15.5t14 11.5l39 -51q-2 -1 -15 -11.5t-18.5 -14.5t-19.5 -14t-22.5 -15t-23.5 -12.5t-26.5 -11t-26.5 -6.5t-29 -3q-83 0 -139.5 89t-56.5 249z" />
<glyph horiz-adv-x="1439" d="M111 588q0 172 70 308t210.5 217t331.5 81q143 0 259 -47t191 -129t115.5 -192t40.5 -238t-40.5 -238t-115.5 -192t-191 -129t-259 -47q-191 0 -331.5 81t-210.5 217t-70 308zM180 588q0 -237 143.5 -390t397.5 -153q128 0 231.5 42t171 115.5t104 172t36.5 213.5 q0 154 -62 275.5t-187 194t-294 72.5q-170 0 -294.5 -72.5t-185.5 -194t-61 -275.5zM412 586q0 174 85.5 270t213.5 96q60 0 119 -19t90 -37t75 -48l-53 -60q-36 27 -58 41.5t-71.5 32t-99.5 17.5q-96 0 -155.5 -81t-59.5 -212q0 -130 59.5 -209.5t155.5 -79.5 q50 0 98.5 16.5t73 31.5t57.5 40l53 -59q-44 -30 -74.5 -48t-90.5 -37.5t-119 -19.5q-128 0 -213.5 96t-85.5 269z" />
<glyph horiz-adv-x="1781" d="M88 883q0 143 53.5 227t163.5 84q108 0 161.5 -84t53.5 -227t-53.5 -230.5t-161.5 -87.5q-109 0 -163 87.5t-54 230.5zM162 883q0 -112 34.5 -183t108.5 -71q72 0 105.5 71.5t33.5 182.5t-33.5 178t-105.5 67q-75 0 -109 -66.5t-34 -178.5zM371 0l450 1176h72l-449 -1176 h-73zM748 301q0 143 53 226t164 83q108 0 161.5 -83.5t53.5 -225.5q0 -144 -53.5 -231.5t-161.5 -87.5q-110 0 -163.5 87t-53.5 232zM819 301q0 -112 35 -183t111 -71q72 0 105.5 71.5t33.5 182.5q0 110 -33.5 178t-105.5 68q-77 0 -111.5 -67.5t-34.5 -178.5zM1260 299 q0 143 53.5 227t163.5 84q108 0 161.5 -84t53.5 -227q0 -144 -53.5 -231.5t-161.5 -87.5q-109 0 -163 87.5t-54 231.5zM1333 299q0 -112 35 -183t109 -71q72 0 105.5 71.5t33.5 182.5t-33.5 178.5t-105.5 67.5q-75 0 -109.5 -67.5t-34.5 -178.5z" />
<glyph horiz-adv-x="802" d="M59 0l297 584l-282 592h96l229 -512l232 512h94l-281 -592l295 -584h-98l-242 504l-239 -504h-101z" />
<glyph horiz-adv-x="886" d="M137 793v65h39v318h256q331 0 344 -318h35v-65h-35q-4 -88 -32 -150.5t-75.5 -97.5t-105.5 -50.5t-131 -15.5h-172v-479h-84v793h-39zM260 557h176q109 0 177 56t77 180h-430v-236zM260 858h430q-7 125 -75.5 182.5t-178.5 57.5h-176v-240z" />
<glyph horiz-adv-x="651" d="M94 264v58h27v231h194q239 0 250 -231h29v-58h-29q-13 -227 -250 -227h-122v-344h-72v571h-27zM193 106h124q159 0 172 158h-296v-158zM193 322h296q-11 163 -172 163h-124v-163z" />
<glyph horiz-adv-x="651" d="M94 1360v57h27v232h194q239 0 250 -232h29v-57h-29q-13 -227 -250 -227h-122v-345h-72v572h-27zM193 1202h124q159 0 172 158h-296v-158zM193 1417h296q-11 164 -172 164h-124v-164z" />
<glyph horiz-adv-x="608" d="M53 -307l213 426l-203 434h84l158 -367l160 367h82l-203 -432l213 -428h-86l-166 358l-164 -358h-88z" />
<glyph horiz-adv-x="585" d="M102 338h70v-88q80 102 164 102q78 0 126 -82.5t48 -255.5q0 -171 -48 -253.5t-126 -82.5q-84 0 -164 101v-336h-70v895zM172 -145q28 -48 68 -79.5t82 -31.5q116 0 116 270q0 273 -116 273q-41 0 -81 -32t-69 -79v-321z" />
<glyph horiz-adv-x="389" d="M6 1487h68q0 -123 121 -123q122 0 122 123h66q0 -92 -50 -145.5t-138 -53.5q-89 0 -139 53.5t-50 145.5zM154 0v1176h84v-1176h-84z" />
<glyph horiz-adv-x="389" d="M98 1288l170 256h131l-229 -256h-72zM154 0v1176h84v-1176h-84z" />
<glyph horiz-adv-x="286" d="M102 788v130h82v-130h-82zM102 1217v129h82v-129h-82z" />
<glyph horiz-adv-x="548" d="M86 1221q0 159 57 246t140 87h12l16 95h43l-18 -103q22 -7 33 -14l18 117h45l-24 -142q12 -7 23.5 -15.5t23 -18.5t16.5 -13l-37 -51l-37 31l-80 -488q45 14 117 78l37 -51q-2 -2 -14 -12t-17 -14t-17.5 -13.5t-21 -15t-21.5 -13t-24 -12t-24.5 -8.5t-26.5 -6l-14 -97 h-45l14 97q-22 4 -31 8l-16 -105h-45l20 130q-102 85 -102 303zM158 1221q0 -142 45 -215l82 483q-55 -3 -91 -76t-36 -192zM242 963q13 -10 30 -13l84 516q-15 9 -30 15z" />
<glyph horiz-adv-x="585" d="M102 539v895h70v-88q80 102 164 102q78 0 126 -82.5t48 -255.5q0 -171 -48 -253.5t-126 -82.5q-85 0 -164 100v-335h-70zM172 950q28 -48 68 -79t82 -31q116 0 116 270q0 272 -116 272q-42 0 -81.5 -31.5t-68.5 -78.5v-322z" />
<glyph horiz-adv-x="780" d="M154 0v1176h84v-1176h-84zM399 -152q39 18 60.5 28.5t40 26.5t25.5 25t12 32.5t5.5 41t0.5 57.5v1117h84v-1117v-46.5t-1.5 -39t-4 -35t-7.5 -29t-12 -27t-18 -22.5t-25 -22.5t-33.5 -19.5t-43.5 -20.5t-54 -20.5z" />
<glyph horiz-adv-x="585" d="M74 14q0 173 48.5 255.5t127.5 82.5q82 0 162 -102v88h69v-895h-69v336q-80 -101 -162 -101q-79 0 -127.5 82.5t-48.5 253.5zM145 14q0 -127 30 -198.5t89 -71.5q39 0 78 30.5t70 75.5v328q-30 47 -69.5 78t-78.5 31q-59 0 -89 -72t-30 -201z" />
<glyph horiz-adv-x="585" d="M74 1110q0 173 48.5 255.5t127.5 82.5q82 0 162 -102v88h69v-895h-69v335q-79 -100 -162 -100q-79 0 -127.5 82.5t-48.5 253.5zM145 1110q0 -127 30 -198.5t89 -71.5q39 0 78 30.5t70 75.5v328q-30 46 -69.5 77t-78.5 31q-59 0 -89 -71.5t-30 -200.5z" />
<glyph horiz-adv-x="389" d="M154 0v1176h84v-1176h-84z" />
<glyph horiz-adv-x="657" d="M68 1090q122 104 258 104q104 0 176.5 -62.5t72.5 -179.5q0 -206 -256 -325l-12 -291h-61l-13 334q261 105 261 276q0 80 -50.5 125t-126.5 45q-88 0 -202 -82zM227 0v162h99v-162h-99z" />
<glyph horiz-adv-x="694" d="M119 788v861h71v-375h312v375h71v-861h-71v418h-312v-418h-71z" />
<glyph horiz-adv-x="659" d="M82 223q0 207 256 326l12 291h62l12 -334q-260 -104 -260 -277q0 -80 50 -125t126 -45q89 0 203 82l47 -55q-122 -104 -258 -104q-104 0 -177 62t-73 179zM332 1014v162h98v-162h-98z" />
<glyph horiz-adv-x="491" d="M66 -139q0 155 188 239l6 203h53l6 -242q-182 -72 -182 -194q0 -57 34 -88t87 -31q69 0 143 59l39 -49q-89 -80 -190 -80q-77 0 -130.5 47.5t-53.5 135.5zM246 428v125h82v-125h-82z" />
<glyph horiz-adv-x="493" d="M66 956q0 156 188 240l6 203h53l6 -242q-182 -72 -182 -194q0 -57 34 -88t87 -31q69 0 143 59l39 -49q-89 -80 -190 -80q-77 0 -130.5 47t-53.5 135zM246 1524v125h82v-125h-82z" />
<glyph horiz-adv-x="491" d="M51 487q89 80 191 80q77 0 130.5 -47t53.5 -135q0 -156 -188 -240l-7 -202h-53l-6 241q182 72 182 195q0 57 -34 88t-87 31q-68 0 -143 -60zM164 -182h82v-125h-82v125z" />
<glyph horiz-adv-x="495" d="M53 1583q89 80 191 80q77 0 130.5 -47t53.5 -135q0 -156 -188 -240l-7 -203h-53l-6 242q182 72 182 195q0 57 -33.5 87.5t-86.5 30.5q-70 0 -144 -59zM166 788v125h82v-125h-82z" />
<glyph horiz-adv-x="694" d="M119 -307v860h71v-375h312v375h71v-860h-71v418h-312v-418h-71z" />
<glyph horiz-adv-x="546" d="M86 125q0 159 57 246.5t140 87.5h12l16 94h43l-18 -102q18 -6 33 -15l18 117h45l-24 -141q26 -16 63 -47l-37 -52l-37 31l-80 -487q47 14 117 77l37 -51q-2 -2 -14 -12t-17 -14t-17.5 -13.5t-21 -15t-21.5 -13t-24 -12t-24.5 -8.5t-26.5 -6l-14 -96h-45l14 96 q-22 4 -31 8l-16 -104h-45l20 129q-102 85 -102 303zM158 125q0 -142 45 -215l82 483q-55 -3 -91 -76t-36 -192zM242 -133q11 -8 30 -12l84 516q-10 6 -30 14z" />
<glyph horiz-adv-x="747" d="M113 590q0 217 78 338t192 121h14l23 127h57l-22 -140q9 -3 45 -18l26 158h58l-33 -189q42 -31 88 -72l-47 -55l-55 45l-117 -698q17 4 36 12.5t33.5 17t33.5 23t27 21t24.5 21t17.5 15.5l47 -57q-3 -2 -22 -18.5t-27.5 -23t-29 -22t-35.5 -24t-35.5 -19t-41.5 -16.5 t-42 -8l-21 -129h-55l22 131q-40 10 -47 14l-24 -145h-58l29 176q-64 53 -101.5 158.5t-37.5 255.5zM195 590q0 -209 73 -316l117 701q-82 -2 -136 -107t-54 -278zM317 225q24 -17 48 -20l122 735l-45 23z" />
<glyph horiz-adv-x="286" d="M102 121v129h82v-129h-82zM102 -178h82v-129h-82v129z" />
<glyph horiz-adv-x="608" d="M53 788l213 426l-203 435h84l158 -367l160 367h82l-203 -432l213 -429h-86l-166 359l-164 -359h-88z" />
<glyph horiz-adv-x="522" d="M72 16q0 160 56.5 248t139.5 88q14 0 29 -3t26.5 -6.5t26.5 -11t23.5 -12.5t22.5 -15t19.5 -14t18.5 -14.5t15 -11.5l-39 -51q-2 2 -14 11.5t-19.5 15.5t-22 15.5t-26 15t-26.5 10t-28 4.5q-57 0 -94 -73.5t-37 -195.5q0 -123 37 -196.5t94 -73.5q13 0 28 4.5t26.5 10 t26 15t22 15.5t19.5 15.5t14 11.5l39 -51q-1 -1 -17 -13.5t-22 -17t-22.5 -16t-28 -17t-27.5 -12.5t-32 -10t-32 -3q-83 0 -139.5 89t-56.5 249z" />
<glyph horiz-adv-x="747" d="M111 590q0 210 73.5 330.5t182.5 128.5v127h63v-134q16 -4 33.5 -10.5t30.5 -12.5t30 -17t26.5 -17t26.5 -19.5t22 -17.5t21 -18t17 -15l-47 -55q-2 1 -34.5 29t-64 48.5t-61.5 29.5v-758q68 23 160 108l47 -57q-3 -2 -28 -23.5t-39 -31.5t-39.5 -27.5t-50 -28 t-50.5 -16.5v-133h-63v129q-109 8 -182.5 129t-73.5 332zM193 590q0 -166 49 -270.5t125 -116.5v770q-76 -12 -125 -116t-49 -267z" />
<glyph horiz-adv-x="944" d="M72 877v67h94v232h84v-232h446v232h84v-232h92v-67h-92v-877h-84v578h-446v-578h-84v877h-94zM250 655h446v222h-446v-222z" />
<glyph horiz-adv-x="925" d="M156 0v1176h84v-521h446v521h84v-1176h-84v578h-446v-578h-84z" />
<glyph horiz-adv-x="677" d="M88 1219q0 222 68.5 333t173.5 111q112 0 243 -137l-43 -51q-40 37 -59 53.5t-60.5 39.5t-74.5 23q-78 0 -125 -98.5t-47 -273.5q0 -173 47.5 -274t124.5 -101q79 0 180 131v207h-172v67h242v-461h-70v103q-101 -117 -190 -117q-102 0 -170 112t-68 333z" />
<glyph horiz-adv-x="821" d="M55 1176h95l260 -627l262 627h92l-313 -715v-461h-84v469z" />
<glyph horiz-adv-x="679" d="M88 123q0 222 68.5 333t173.5 111q112 0 243 -137l-43 -51q-76 70 -114 92q-44 25 -80 25q-78 0 -125 -98.5t-47 -274.5q0 -173 47.5 -274t124.5 -101q79 0 180 131v207h-172v68h242v-461h-70v102q-101 -117 -190 -117q-102 0 -170 112t-68 333z" />
<glyph horiz-adv-x="909" d="M109 588q0 125 17.5 227t48 171.5t72.5 117t90 69t101 21.5q89 0 168.5 -51t163.5 -135l-55 -60q-39 37 -57.5 54t-60 49.5t-79 47.5t-74.5 15q-111 0 -180 -139.5t-69 -386.5q0 -245 69 -386t180 -141q117 0 261 187v299h-244v78h325v-625h-81v143q-141 -161 -269 -161 q-53 0 -100 21.5t-89 69t-72.5 117t-48 171.5t-17.5 227zM399 1309v159h99v-159h-99z" />
<glyph horiz-adv-x="909" d="M109 588q0 125 17.5 227t48 171.5t72.5 117t90 69t101 21.5q89 0 168.5 -51t163.5 -135l-55 -60q-39 37 -57.5 54t-60 49.5t-79 47.5t-74.5 15q-111 0 -180 -139.5t-69 -386.5q0 -245 69 -386t180 -141q117 0 261 187v299h-244v78h325v-625h-81v143q-141 -161 -269 -161 q-53 0 -100 21.5t-89 69t-72.5 117t-48 171.5t-17.5 227zM410 -483l55 180h-45v166h96l14 -166l-84 -211z" />
<glyph horiz-adv-x="391" d="M102 -307v645h70v-139q6 17 14 34t29 49t55.5 50t77.5 14v-72q-45 0 -79.5 -21t-52 -50.5t-28.5 -59t-14 -50.5l-2 -21v-379h-70z" />
<glyph horiz-adv-x="821" d="M55 1176h95l260 -627l262 627h92l-313 -715v-461h-84v469zM315 1288l170 256h131l-229 -256h-72z" />
<glyph horiz-adv-x="821" d="M55 1176h95l260 -627l262 627h92l-313 -715v-461h-84v469zM248 1309v159h98v-159h-98zM477 1309v159h96v-159h-96z" />
<glyph horiz-adv-x="909" d="M109 588q0 125 17.5 227t48 171.5t72.5 117t90 69t101 21.5q89 0 168.5 -51t163.5 -135l-55 -60q-39 37 -57.5 54t-60 49.5t-79 47.5t-74.5 15q-111 0 -180 -139.5t-69 -386.5q0 -245 69 -386t180 -141q117 0 261 187v299h-244v78h325v-625h-81v143q-141 -161 -269 -161 q-53 0 -100 21.5t-89 69t-72.5 117t-48 171.5t-17.5 227zM258 1487h68q0 -123 120 -123q123 0 123 123h66q0 -92 -50 -145.5t-139 -53.5q-88 0 -138 53.5t-50 145.5z" />
<glyph horiz-adv-x="1615" d="M86 104l47 64q152 -113 260 -113q72 0 124 49.5t52 137.5q0 44 -15.5 83t-35.5 65t-54.5 52.5t-57 39.5t-58.5 32q-42 22 -68 37t-64 45t-60 60t-39 76t-17 99q0 121 71.5 194t178.5 73q68 0 142 -31q-15 49 -15 119q0 145 61.5 226t168.5 81h256v-586q34 37 62.5 63.5 t71.5 59t91 50.5t96 18q101 0 148 -75.5t47 -188.5v-834h-82v825q0 87 -31 141t-100 54q-44 0 -92 -22t-90 -58.5t-69 -65t-52 -59.5v-815h-82v1427h-174q-82 0 -127 -69t-45 -184q0 -89 22 -140q29 -15 66 -41l-50 -61q-121 88 -219 88q-76 0 -124 -48.5t-48 -131.5 q0 -23 4 -44t9.5 -37.5t17 -33.5t20 -28t25 -24.5t24.5 -20.5t27 -18.5t25.5 -15t25.5 -13.5t21 -11q145 -75 208.5 -158.5t63.5 -191.5q0 -127 -74.5 -197t-179.5 -70q-147 0 -313 127z" />
<glyph horiz-adv-x="1484" d="M86 104l47 64q152 -113 260 -113q72 0 124 49.5t52 137.5q0 44 -15.5 83t-35.5 65t-54.5 52.5t-57 39.5t-58.5 32q-42 22 -68 37t-64 45t-60 60t-39 76t-17 99q0 121 71.5 194t178.5 73q68 0 142 -31q-15 49 -15 119q0 145 61.5 226t168.5 81h256v-1036l340 618h94 l-254 -442l299 -633h-90l-256 553l-133 -229v-324h-82v1427h-174q-82 0 -127 -69t-45 -184q0 -89 22 -140q29 -15 66 -41l-50 -61q-121 88 -219 88q-76 0 -124 -48.5t-48 -131.5q0 -23 4 -44t9.5 -37.5t17 -33.5t20 -28t25 -24.5t24.5 -20.5t27 -18.5t25.5 -15t25.5 -13.5 t21 -11q145 -75 208.5 -158.5t63.5 -191.5q0 -127 -74.5 -197t-179.5 -70q-147 0 -313 127z" />
<glyph horiz-adv-x="1124" d="M86 104l47 64q152 -113 260 -113q72 0 124 49.5t52 137.5q0 44 -15.5 83t-35.5 65t-54.5 52.5t-57 39.5t-58.5 32q-42 22 -68 37t-64 45t-60 60t-39 76t-17 99q0 121 71.5 194t178.5 73q68 0 142 -31q-15 49 -15 119q0 145 61.5 226t168.5 81h266v-1493h-82v1427h-184 q-82 0 -127 -69t-45 -184q0 -89 22 -140q29 -15 66 -41l-50 -61q-121 88 -219 88q-76 0 -124 -48.5t-48 -131.5q0 -23 4 -44t9.5 -37.5t17 -33.5t20 -28t25 -24.5t24.5 -20.5t27 -18.5t25.5 -15t25.5 -13.5t21 -11q145 -75 208.5 -158.5t63.5 -191.5q0 -127 -74.5 -197 t-179.5 -70q-147 0 -313 127z" />
<glyph horiz-adv-x="821" d="M55 1176h95l260 -627l262 627h92l-313 -715v-461h-84v469zM213 1544h129l172 -256h-70z" />
<glyph horiz-adv-x="909" d="M109 588q0 125 17.5 227t48 171.5t72.5 117t90 69t101 21.5q89 0 168.5 -51t163.5 -135l-55 -60q-39 37 -57.5 54t-60 49.5t-79 47.5t-74.5 15q-111 0 -180 -139.5t-69 -386.5q0 -245 69 -386t180 -141q117 0 261 187v299h-244v78h325v-625h-81v143q-141 -161 -269 -161 q-53 0 -100 21.5t-89 69t-72.5 117t-48 171.5t-17.5 227z" />
<glyph horiz-adv-x="565" d="M119 788v861h387v-70h-316v-326h252v-69h-252v-396h-71z" />
<glyph horiz-adv-x="565" d="M119 -307v860h387v-70h-316v-325h252v-70h-252v-395h-71z" />
<glyph horiz-adv-x="743" d="M154 0v1176h524v-78h-440v-471h350v-78h-350v-549h-84z" />
<glyph horiz-adv-x="679" d="M74 1083v58h57q-2 25 -2 78q0 48 2 71h-57v58h61q19 158 82 236.5t152 78.5q43 0 89 -21.5t73.5 -43.5t72.5 -62l-43 -51q-76 67 -114 86q-38 20 -72 20q-62 0 -104.5 -63.5t-57.5 -179.5h252v-58h-258q-2 -23 -2 -71q0 -53 2 -78h258v-58h-252q17 -115 59.5 -176 t102.5 -61q25 0 50 9t52.5 29.5t42 32.5t41.5 37l43 -53q-45 -40 -72.5 -62t-73.5 -43.5t-89 -21.5q-88 0 -150.5 77t-81.5 232h-63z" />
<glyph horiz-adv-x="679" d="M74 -12v57h57q-2 25 -2 78q0 49 2 72h-57v57h61q19 158 82 236.5t152 78.5q43 0 89 -21.5t73.5 -43.5t72.5 -62l-43 -51q-74 66 -110 85q-40 22 -76 22q-62 0 -104.5 -64t-57.5 -180h252v-57h-258q-2 -23 -2 -72q0 -53 2 -78h258v-57h-252q17 -114 59.5 -176t102.5 -62 q32 0 71 21t58.5 37.5t56.5 50.5l43 -54q-45 -40 -72.5 -62t-73.5 -43.5t-89 -21.5q-88 0 -150.5 77.5t-81.5 232.5h-63z" />
<glyph horiz-adv-x="933" d="M102 403v70h78q-4 35 -4 115q0 71 2 104h-76v70h84q25 217 111 324.5t207 107.5q85 0 158.5 -45.5t162.5 -128.5l-55 -55q-91 81 -135 109q-67 40 -123 40q-90 0 -153.5 -92t-86.5 -260h367v-70h-373q-4 -66 -4 -104q0 -45 4 -115h373v-70h-365q23 -164 86 -253t152 -89 q42 0 91.5 25t80 49.5t75.5 65.5l3 3l3 3l3.5 3.5t3.5 2.5l53 -57q-42 -39 -72.5 -64.5t-73 -53.5t-86.5 -42t-89 -14q-119 0 -204.5 104t-113.5 317h-84z" />
<glyph horiz-adv-x="301" d="M102 -430l43 123h-36v129h79l11 -133l-70 -146zM109 121v129h81v-129h-81z" />
<glyph horiz-adv-x="301" d="M102 666l43 122h-36v130h79l11 -134l-70 -145zM109 1217v129h81v-129h-81z" />
<glyph horiz-adv-x="600" d="M39 553h82l178 -444l180 444h82l-225 -524v-336h-72v336z" />
<glyph horiz-adv-x="1296" d="M100 539q0 264 89.5 411.5t220.5 147.5q61 0 129 -35q-17 60 -17 123q0 143 66 225t172 82q118 0 183 -98t65 -262v-58h204v-74h-204v-825q0 -121 71 -121q54 0 144 56l39 -66q-115 -68 -197 -68q-139 0 -139 209v815h-103v74h103v78q0 122 -42.5 198t-127.5 76 q-83 0 -129.5 -69t-46.5 -182q0 -98 30 -162q18 -13 44 -36t32 -28l-51 -57q-3 2 -17.5 15.5t-25 22.5t-29 24t-35 24.5t-36 20t-39.5 15.5t-39 5q-97 0 -162.5 -131.5t-65.5 -349.5t65.5 -351t162.5 -133q19 0 39 5t39.5 15.5t36 20t35 24.5t29 24t25 22.5t17.5 15.5 l51 -57q-1 -1 -21 -19t-27.5 -24.5t-29 -23.5t-34.5 -25t-36 -21t-41 -19t-41.5 -11t-45.5 -5q-130 0 -220 148.5t-90 413.5z" />
<glyph horiz-adv-x="501" d="M57 793v67h396v-57q-9 -16 -24.5 -45.5t-54.5 -119.5t-68.5 -180.5t-54 -217t-24.5 -240.5h-77q0 344 219 793h-312z" />
<glyph horiz-adv-x="501" d="M57 1366v68h396v-58q-9 -16 -24.5 -45.5t-54.5 -119.5t-68.5 -180.5t-54 -217t-24.5 -240.5h-77q0 344 219 793h-312z" />
<glyph horiz-adv-x="724" d="M61 1094v82h615v-66q-15 -27 -39.5 -76.5t-87 -202.5t-110.5 -306.5t-87 -370t-39 -412.5h-94q0 174 35 373.5t78.5 348t103 305t86.5 216.5t51 109h-512z" />
<glyph horiz-adv-x="1144" d="M100 539q0 264 89.5 411.5t220.5 147.5q61 0 129 -35q-17 60 -17 123q0 145 59 226t160 81h252v-1493h-82v1427h-166q-78 0 -121.5 -69t-43.5 -182q0 -98 30 -162q18 -13 44 -36t32 -28l-51 -57q-3 2 -17.5 15.5t-25 22.5t-29 24t-35 24.5t-36 20t-39.5 15.5t-39 5 q-97 0 -162.5 -131.5t-65.5 -349.5t65.5 -351t162.5 -133q19 0 39 5t39.5 15.5t36 20t35 24.5t29 24t25 22.5t17.5 15.5l51 -57q-1 -1 -21 -19t-27.5 -24.5t-29 -23.5t-34.5 -25t-36 -21t-41 -19t-41.5 -11t-45.5 -5q-130 0 -220 148.5t-90 413.5z" />
<glyph horiz-adv-x="1505" d="M100 539q0 264 89.5 411.5t220.5 147.5q61 0 129 -35q-17 60 -17 123q0 145 59 226t160 81h242v-1036l340 618h94l-254 -442l299 -633h-90l-256 553l-133 -229v-324h-82v1427h-156q-78 0 -121.5 -69t-43.5 -182q0 -98 30 -162q18 -13 44 -36t32 -28l-51 -57 q-3 2 -17.5 15.5t-25 22.5t-29 24t-35 24.5t-36 20t-39.5 15.5t-39 5q-97 0 -162.5 -131.5t-65.5 -349.5t65.5 -351t162.5 -133q19 0 39 5t39.5 15.5t36 20t35 24.5t29 24t25 22.5t17.5 15.5l51 -57q-1 -1 -21 -19t-27.5 -24.5t-29 -23.5t-34.5 -25t-36 -21t-41 -19 t-41.5 -11t-45.5 -5q-130 0 -220 148.5t-90 413.5z" />
<glyph horiz-adv-x="1067" d="M74 1114v62h346v-54q-8 -13 -21.5 -37t-47.5 -97t-59.5 -146.5t-47 -176t-21.5 -194.5h-71q0 82 19 176.5t42 164t56 145.5t46.5 102.5t28.5 54.5h-270zM233 0l408 1176h70l-408 -1176h-70zM582 172q0 126 141 207q-109 72 -109 178q0 70 47 115t119 45t119 -45t47 -115 q0 -108 -110 -178q143 -79 143 -207q0 -86 -56 -135t-143 -49t-142.5 49t-55.5 135zM651 174q0 -58 37 -92.5t92 -34.5q56 0 93.5 34.5t37.5 92.5q0 60 -36 100t-95 74q-129 -72 -129 -174zM680 549q0 -85 100 -139q99 54 99 139q0 45 -28 77.5t-71 32.5t-71.5 -32.5 t-28.5 -77.5z" />
<glyph horiz-adv-x="1636" d="M100 539q0 264 89.5 411.5t220.5 147.5q61 0 129 -35q-17 60 -17 123q0 145 59 226t160 81h242v-586q33 36 62 63t72 59.5t91.5 50.5t96.5 18q69 0 114 -39t62.5 -96t17.5 -129v-834h-82v825q0 87 -31 141t-100 54q-44 0 -92 -22t-90 -58.5t-69 -65t-52 -59.5v-815h-82 v1427h-156q-78 0 -121.5 -69t-43.5 -182q0 -98 30 -162q18 -13 44 -36t32 -28l-51 -57q-3 2 -17.5 15.5t-25 22.5t-29 24t-35 24.5t-36 20t-39.5 15.5t-39 5q-97 0 -162.5 -131.5t-65.5 -349.5t65.5 -351t162.5 -133q19 0 39 5t39.5 15.5t36 20t35 24.5t29 24t25 22.5 t17.5 15.5l51 -57q-1 -1 -21 -19t-27.5 -24.5t-29 -23.5t-34.5 -25t-36 -21t-41 -19t-41.5 -11t-45.5 -5q-130 0 -220 148.5t-90 413.5z" />
<glyph horiz-adv-x="604" d="M41 1649h82l178 -445l180 445h82l-225 -525v-336h-72v336z" />
<glyph horiz-adv-x="501" d="M66 -244l34 54q93 -70 166 -70q41 0 70 27t29 75q0 30 -12 54.5t-35 43t-41 29t-46 23.5q-26 12 -43 22t-41 28t-38 36.5t-24.5 47t-10.5 60.5q0 74 46 120t116 46q90 0 180 -65l-35 -49q-76 53 -139 53q-44 0 -71.5 -26.5t-27.5 -71.5q0 -18 3.5 -33t13.5 -28 t16.5 -21.5t23 -19t21.5 -13.5t24.5 -13t20.5 -10q89 -43 129.5 -93t40.5 -118q0 -78 -47.5 -122t-118.5 -44q-93 0 -204 78z" />
<glyph horiz-adv-x="913" d="M63 547v82h93v547h200q445 0 445 -588t-445 -588h-200v547h-93zM240 78h112q188 0 275.5 125t87.5 385t-87.5 385t-275.5 125h-112v-469h211v-82h-211v-469z" />
<glyph horiz-adv-x="602" d="M88 342q-1 252 92.5 392t225.5 140q21 0 41 -3.5t30 -6.5l10 -4l-16 -65q-28 12 -63 12q-86 0 -155 -92t-87 -271q62 105 166 105q90 0 143 -80.5t53 -194.5q0 -120 -59 -204t-154 -84q-57 0 -102 31t-71.5 82.5t-40 113.5t-13.5 129zM162 340q0 -118 40 -202.5 t111 -84.5q68 0 105 66t37 155q0 83 -34.5 146t-101.5 63q-59 0 -101 -44t-56 -95v-4z" />
<glyph horiz-adv-x="602" d="M88 915q-1 252 92.5 392.5t225.5 140.5q21 0 41 -3.5t30 -6.5l10 -4l-16 -66q-28 12 -63 12q-86 0 -155 -91.5t-87 -270.5q24 40 65 72t101 32q90 0 143 -80t53 -194q0 -120 -59 -204.5t-154 -84.5q-57 0 -102 31t-71.5 82.5t-40 113.5t-13.5 129zM162 913 q0 -118 40 -202t111 -84q68 0 105 66t37 155q0 83 -34.5 146t-101.5 63q-59 0 -101 -44t-56 -95v-5z" />
<glyph horiz-adv-x="899" d="M119 567q-1 175 26.5 323t74.5 251t110 175t133.5 106t144.5 34q32 0 63 -5.5t47 -10.5l15 -6l-20 -78q-46 18 -101 18q-54 0 -106 -24t-100.5 -76t-87.5 -126.5t-67 -184t-38 -240.5q15 29 36 57t54.5 60t81 51.5t100.5 19.5q99 0 171.5 -65t107.5 -167t35 -224 q0 -128 -39 -236t-115.5 -175t-175.5 -67q-70 0 -128.5 34t-98.5 91t-68 133.5t-41 160t-14 171.5zM207 567q0 -132 27 -244t88 -188t147 -76q77 0 134 59.5t83.5 148t26.5 190.5q0 68 -13.5 132t-40.5 119t-73.5 88t-106.5 33q-68 0 -128 -42t-94.5 -96.5t-49.5 -110.5v-13 z" />
<glyph horiz-adv-x="425" d="M180 -207v694h66v-694h-66zM180 680v694h66v-694h-66z" />
<glyph horiz-adv-x="798" d="M78 0v74l528 1024h-502v78h601v-72l-531 -1026h537v-78h-633z" />
<glyph horiz-adv-x="368" d="M63 612v60h119v1087h-119v60h191v-1207h-191z" />
<glyph horiz-adv-x="587" d="M119 788v861h387v-70h-316v-326h263v-69h-263v-326h320v-70h-391z" />
<glyph horiz-adv-x="577" d="M47 -152l406 1479h69l-405 -1479h-70z" />
<glyph horiz-adv-x="782" d="M154 0v1176h524v-78h-440v-471h364v-78h-364v-471h446v-78h-2q-3 -3 -23.5 -20t-28 -24t-25.5 -24t-26 -29t-18.5 -29.5t-15 -35.5t-4.5 -37q0 -13 2.5 -24t5 -19t9 -14.5t11 -10.5t13.5 -7t14 -4.5t16 -2t14.5 -0.5h15h13.5l-12 -77q-23 0 -38.5 1t-44.5 8.5t-46.5 22 t-32 44t-14.5 71.5q0 60 38 114t101 97h-452z" />
<glyph horiz-adv-x="296" />
<glyph horiz-adv-x="296" />
<glyph horiz-adv-x="368" d="M63 -424h119v1088h-119v59h191v-1206h-191v59z" />
<glyph horiz-adv-x="944" d="M154 0v1176h86l465 -1004v1004h83v-1119q0 -37 -0.5 -56.5t-3 -46t-7.5 -40t-15 -32.5t-24 -29.5t-35 -24.5t-48.5 -26t-64.5 -25l-29 71q88 40 114 66t27 86l-464 1004v-1004h-84z" />
<glyph horiz-adv-x="739" d="M115 0v66q6 7 15 19.5t33.5 52.5t43.5 81.5t36 102.5t19 120h-135v74h131q-8 73 -62.5 206.5t-54.5 221.5q0 117 63.5 183.5t168.5 66.5q39 0 76.5 -9t74 -27.5t58 -31.5t55.5 -36l-47 -62q-68 46 -115.5 67t-93.5 21q-73 0 -115.5 -46.5t-42.5 -131.5q0 -61 25 -129.5 t55 -145t37 -147.5h199v-74h-195q-4 -110 -45 -211t-78 -153h402v-78h-508z" />
<glyph horiz-adv-x="538" d="M82 -250q4 5 11 13.5t24.5 36t31 57t25.5 72.5t14 85h-98v60h94q-7 47 -45.5 143.5t-38.5 163.5q0 86 47 136t123 50q39 0 79.5 -14.5t63 -29t54.5 -38.5l-39 -53q-47 34 -81 50t-68 16q-48 0 -76.5 -33t-28.5 -92q0 -53 37.5 -146.5t44.5 -152.5h141v-60h-139 q-7 -134 -84 -254h283v-67h-375v57z" />
<glyph horiz-adv-x="538" d="M84 788v58q4 5 11 13.5t24.5 36t31 57t25.5 72.5t14 85h-98v59h94q-7 47 -45.5 144t-38.5 164q0 86 47 136t123 50q39 0 79.5 -14.5t63 -29t54.5 -38.5l-39 -53q-90 65 -149 65q-48 0 -76.5 -33t-28.5 -92q0 -53 37.5 -146.5t44.5 -152.5h141v-59h-139q-7 -134 -84 -254 h283v-68h-375z" />
</font>
</defs>
</svg>
