<?xml version="1.0" standalone="no"?>
<!DOCTYPE svg PUBLIC "-//W3C//DTD SVG 1.1//EN" "http://www.w3.org/Graphics/SVG/1.1/DTD/svg11.dtd" >
<svg xmlns="http://www.w3.org/2000/svg">
<metadata></metadata>
<defs>
<font id="verbcompextrabold" horiz-adv-x="974" >
<font-face units-per-em="2048" ascent="1638" descent="-410" />
<missing-glyph horiz-adv-x="352" />
<glyph unicode="ff" horiz-adv-x="1267" d="M41 829v246h98v25q0 201 60 297t192 96q131 0 301 -90l-102 -232q-82 33 -105 33q-45 0 -45 -82v-47h166v-246h-166v-829h-301v829h-98zM676 829v246h98v25q0 201 60 297t192 96q131 0 301 -90l-102 -232q-83 33 -105 33q-45 0 -45 -82v-47h166v-246h-166v-829h-301v829 h-98z" />
<glyph unicode="fi" horiz-adv-x="1118" d="M41 829v246h98v25q0 201 60 297t192 96q105 0 242 -70l-64 -249q-58 30 -84 30q-45 0 -45 -82v-47h166v-246h-166v-829h-301v829h-98zM721 1212v275h309v-275h-309zM725 0v1075h301v-1075h-301z" />
<glyph unicode="fl" horiz-adv-x="1120" d="M41 829v246h98v25q0 201 60 297t192 96q105 0 242 -70l-64 -249q-58 30 -84 30q-45 0 -45 -82v-47h166v-246h-166v-829h-301v829h-98zM727 0v1493h301v-1493h-301z" />
<glyph unicode="ffi" horiz-adv-x="1751" d="M41 829v246h98v25q0 201 60 297t192 96q131 0 301 -90l-102 -232q-82 33 -105 33q-45 0 -45 -82v-47h166v-246h-166v-829h-301v829h-98zM676 829v246h98v25q0 201 60 297t192 96q105 0 242 -70l-64 -249q-58 30 -84 30q-45 0 -45 -82v-47h166v-246h-166v-829h-301v829 h-98zM1356 1212v275h309v-275h-309zM1360 0v1075h301v-1075h-301z" />
<glyph unicode="ffl" horiz-adv-x="1755" d="M41 829v246h98v25q0 201 60 297t192 96q131 0 301 -90l-102 -232q-82 33 -105 33q-45 0 -45 -82v-47h166v-246h-166v-829h-301v829h-98zM676 829v246h98v25q0 201 60 297t192 96q105 0 242 -70l-64 -249q-58 30 -84 30q-45 0 -45 -82v-47h166v-246h-166v-829h-301v829 h-98zM1360 0v1493h301v-1493h-301z" />
<glyph unicode="ffk" horiz-adv-x="2197" d="M41 829v246h98v25q0 201 60 297t192 96q131 0 301 -90l-102 -232q-82 33 -105 33q-45 0 -45 -82v-47h166v-246h-166v-829h-301v829h-98zM676 829v246h98v25q0 201 60 297t192 96q105 0 242 -70l-64 -249q-58 30 -84 30q-45 0 -45 -82v-47h166v-246h-166v-829h-301v829 h-98zM1358 0v1493h301v-768l160 350h340l-265 -424l306 -651h-316l-160 375l-65 -107v-268h-301z" />
<glyph unicode="ffj" horiz-adv-x="1748" d="M41 829v246h98v25q0 201 60 297t192 96q131 0 301 -90l-102 -232q-82 33 -105 33q-45 0 -45 -82v-47h166v-246h-166v-829h-301v829h-98zM676 829v246h98v25q0 201 60 297t192 96q105 0 242 -70l-64 -249q-58 30 -84 30q-45 0 -45 -82v-47h166v-246h-166v-829h-301v829 h-98zM1196 -227q25 12 44 21.5t35 21t27.5 19t20.5 19.5t14.5 19.5t10 23t6.5 24.5t3 30t1 33.5v40.5v1050h301v-1024q0 -71 -0.5 -103.5t-5 -84t-13.5 -74.5t-27 -59.5t-44 -56t-65.5 -47.5t-91.5 -50t-122 -47zM1354 1212v275h309v-275h-309z" />
<glyph unicode="fft" horiz-adv-x="1964" d="M41 829v246h98v25q0 201 60 297t192 96q131 0 301 -90l-102 -232q-82 33 -105 33q-45 0 -45 -82v-47h166v-246h-166v-829h-301v829h-98zM676 829v246h98v25q0 201 60 297t192 96q131 0 301 -90l-102 -232q-83 33 -105 33q-45 0 -45 -82v-47h166v-246h-166v-829h-301v829 h-98zM1311 829v246h100v240l299 71v-311h197v-246h-197v-460q0 -99 47 -99q27 0 98 39l101 -241q-164 -91 -283 -91q-138 0 -200 88.5t-62 274.5v489h-100z" />
<glyph unicode="fh" horiz-adv-x="1609" d="M41 829v246h98v25q0 201 60 297t192 96q105 0 242 -70l-64 -249q-58 30 -84 30q-45 0 -45 -82v-47h166v-246h-166v-829h-301v829h-98zM725 0v1493h301v-541q40 37 62.5 55.5t59.5 43.5t75.5 36t81.5 11q105 0 162 -82t57 -230v-786h-301v723q0 115 -60 115q-41 0 -79 -41 t-58 -82v-715h-301z" />
<glyph unicode="fj" horiz-adv-x="1114" d="M41 829v246h98v25q0 201 60 297t192 96q105 0 242 -70l-64 -249q-58 30 -84 30q-45 0 -45 -82v-47h166v-246h-166v-829h-301v829h-98zM563 -227q25 12 44 21.5t35 21t27.5 19t20.5 19.5t14.5 19.5t10 23t6.5 24.5t3 30t1 33.5v40.5v1050h301v-1024q0 -71 -0.5 -103.5 t-5 -84t-13.5 -74.5t-27 -59.5t-44 -56t-65.5 -47.5t-91.5 -50t-122 -47zM721 1212v275h309v-275h-309z" />
<glyph unicode="fk" horiz-adv-x="1564" d="M41 829v246h98v25q0 201 60 297t192 96q105 0 242 -70l-64 -249q-58 30 -84 30q-45 0 -45 -82v-47h166v-246h-166v-829h-301v829h-98zM725 0v1493h301v-768l160 350h340l-264 -424l305 -651h-316l-159 375l-66 -107v-268h-301z" />
<glyph unicode="ft" horiz-adv-x="1325" d="M41 829v246h98v25q0 201 60 297t192 96q131 0 301 -90l-102 -232q-82 33 -105 33q-45 0 -45 -82v-47h166v-246h-166v-829h-301v829h-98zM672 829v246h100v240l299 71v-311h197v-246h-197v-460q0 -99 47 -99q28 0 99 39l100 -241q-164 -91 -283 -91q-138 0 -200 88.5 t-62 274.5v489h-100z" />
<glyph unicode="ffh" horiz-adv-x="2242" d="M41 829v246h98v25q0 201 60 297t192 96q131 0 301 -90l-102 -232q-82 33 -105 33q-45 0 -45 -82v-47h166v-246h-166v-829h-301v829h-98zM676 829v246h98v25q0 201 60 297t192 96q105 0 242 -70l-64 -249q-58 30 -84 30q-45 0 -45 -82v-47h166v-246h-166v-829h-301v829 h-98zM1358 0v1493h301v-541q54 50 83.5 74t83.5 48t111 24q105 0 162.5 -82t57.5 -230v-786h-302v723q0 115 -59 115q-41 0 -79 -41t-58 -82v-715h-301z" />
<glyph unicode="ffb" horiz-adv-x="2240" d="M41 829v246h98v25q0 201 60 297t192 96q131 0 301 -90l-102 -232q-82 33 -105 33q-45 0 -45 -82v-47h166v-246h-166v-829h-301v829h-98zM676 829v246h98v25q0 201 60 297t192 96q105 0 242 -70l-64 -249q-58 30 -84 30q-45 0 -45 -82v-47h166v-246h-166v-829h-301v829 h-98zM1358 0v1493h301v-530q61 68 110.5 101.5t118.5 33.5q140 0 217.5 -142.5t77.5 -416.5q0 -276 -77.5 -419t-217.5 -143q-69 0 -119 33.5t-110 100.5v-111h-301zM1659 371q52 -123 121 -123q100 0 100 291q0 288 -100 288q-68 0 -121 -125v-331z" />
<glyph unicode="fb" horiz-adv-x="1605" d="M41 829v246h98v25q0 201 60 297t192 96q105 0 242 -70l-64 -249q-58 30 -84 30q-45 0 -45 -82v-47h166v-246h-166v-829h-301v829h-98zM725 0v1493h301v-530q61 68 110.5 101.5t118.5 33.5q140 0 217.5 -142.5t77.5 -416.5q0 -276 -77.5 -419t-217.5 -143q-69 0 -119 33.5 t-110 100.5v-111h-301zM1026 371q52 -123 121 -123q100 0 100 291q0 288 -100 288q-68 0 -121 -125v-331z" />
<glyph unicode=" "  horiz-adv-x="352" />
<glyph unicode="&#x09;" horiz-adv-x="352" />
<glyph unicode="&#xa0;" horiz-adv-x="352" />
<glyph unicode="!" horiz-adv-x="538" d="M86 1434h367l-95 -959h-178zM123 0v336h293v-336h-293z" />
<glyph unicode="&#x22;" horiz-adv-x="737" d="M66 1434h276l-47 -570h-180zM393 1434h277l-47 -570h-181z" />
<glyph unicode="#" horiz-adv-x="1069" d="M61 309v250h162l33 313h-137v252h164l32 310h226l-33 -310h135l33 310h225l-33 -310h140v-252h-164l-33 -313h139v-250h-166l-30 -309h-226l31 309h-137l-31 -309h-225l31 309h-136zM449 559h137l32 313h-137z" />
<glyph unicode="$" horiz-adv-x="1013" d="M55 170l146 242q214 -144 319 -144q44 0 73.5 26t29.5 75q0 29 -13 55.5t-44.5 55.5t-58.5 50t-81 59.5t-86 63.5q-58 43 -99.5 81t-82 89.5t-61.5 113t-21 132.5q0 150 87.5 255t246.5 126v190h211v-200q150 -32 307 -131l-148 -246q-183 102 -268 102q-46 0 -76 -24.5 t-30 -71.5q0 -28 14 -54.5t46.5 -55.5t58.5 -49t78.5 -57t78.5 -56q45 -33 77.5 -60t71.5 -69t64 -83.5t42 -97.5t17 -116q0 -147 -87 -257.5t-246 -131.5v-187h-211v199q-199 46 -355 176z" />
<glyph unicode="%" horiz-adv-x="1484" d="M51 1073q0 179 71.5 281t221.5 102q149 0 220 -102t71 -281t-71 -282t-220 -103q-150 0 -221.5 102.5t-71.5 282.5zM264 1073q0 -91 17.5 -136.5t62.5 -45.5q43 0 60.5 45.5t17.5 136.5q0 90 -17 135t-61 45q-45 0 -62.5 -44.5t-17.5 -135.5zM379 0l500 1434h225 l-500 -1434h-225zM850 362q0 179 71.5 281t221.5 102q149 0 220 -102t71 -281t-71 -282t-220 -103q-150 0 -221.5 102.5t-71.5 282.5zM1063 362q0 -91 17.5 -136.5t62.5 -45.5q43 0 60.5 45.5t17.5 136.5t-17 136t-61 45q-45 0 -62.5 -45t-17.5 -136z" />
<glyph unicode="&#x26;" horiz-adv-x="1128" d="M88 348q0 117 54.5 212.5t150.5 191.5q-65 95 -100 180.5t-35 183.5q0 154 90.5 247t243.5 93t239 -92t86 -229q0 -108 -52 -203t-144 -199l124 -174q22 90 25 197h297q-10 -104 -46 -224.5t-95 -228.5l217 -303h-334l-59 84q-130 -107 -287 -107q-165 0 -270 104.5 t-105 266.5zM371 367q0 -56 30.5 -99t79.5 -43q61 0 127 66l-166 244q-71 -94 -71 -168zM410 1108q0 -80 67 -176q86 99 86 182q0 44 -20 74.5t-56 30.5q-37 0 -57 -32t-20 -79z" />
<glyph unicode="'" horiz-adv-x="409" d="M66 1434h276l-47 -570h-180z" />
<glyph unicode="(" horiz-adv-x="579" d="M96 223v979q0 61 0.5 90t3.5 77t10 71t19 59.5t31 55.5t46.5 45.5t65 44t86.5 37t111 36.5l72 -186q-39 -21 -63.5 -40.5t-39 -36.5t-21 -45t-8 -52t-1.5 -72v-1147q0 -48 1.5 -72t8 -51.5t21 -45t39 -36.5t63.5 -40l-72 -187q-62 17 -111 36.5t-86.5 37t-65 44 t-46.5 45.5t-31 55.5t-19 59.5t-10 71t-3.5 77t-0.5 90z" />
<glyph unicode=")" horiz-adv-x="579" d="M39 -106q39 21 63.5 40t39 36.5t21 45t8 51.5t1.5 72v1147q0 48 -1.5 72t-8 52t-21 45t-39 36.5t-63.5 40.5l72 186q70 -19 123 -39t92 -46.5t66 -47t44.5 -58t27 -62.5t14 -77t5 -83.5t0.5 -100.5v-2v-979v-2q0 -69 -0.5 -100.5t-5 -83.5t-14 -77t-27 -62.5t-44.5 -58 t-66 -47t-92 -46.5t-123 -39z" />
<glyph unicode="*" horiz-adv-x="860" d="M59 991l291 70l-291 72l125 215l207 -222l-86 291h250l-86 -289l203 220l125 -218l-277 -69l277 -72l-125 -215l-199 207l82 -279h-250l86 291l-207 -219z" />
<glyph unicode="+" horiz-adv-x="983" d="M119 561v244h250v291h241v-291h250v-244h-250v-291h-241v291h-250z" />
<glyph unicode="," horiz-adv-x="479" d="M88 -233l131 233h-129v367h293l16 -412l-235 -297z" />
<glyph unicode="-" horiz-adv-x="677" d="M90 449v268h498v-268h-498z" />
<glyph unicode="." horiz-adv-x="473" d="M90 0v367h293v-367h-293z" />
<glyph unicode="/" horiz-adv-x="729" d="M29 -184l454 1802h219l-454 -1802h-219z" />
<glyph unicode="0" horiz-adv-x="1056" d="M74 717q0 361 109 550t345 189q237 0 347 -189t110 -550q0 -740 -457 -740q-236 0 -345 189t-109 551zM387 717q0 -254 32 -361.5t109 -107.5q76 0 109 108.5t33 360.5t-32.5 360.5t-109.5 108.5q-76 0 -108.5 -108t-32.5 -361z" />
<glyph unicode="1" horiz-adv-x="729" d="M8 1208l299 226h297v-1434h-311v1114l-154 -117z" />
<glyph unicode="2" horiz-adv-x="970" d="M57 0v152q0 80 20 156.5t46.5 131.5t72.5 116.5t76 94.5t80 84q55 56 84.5 88t66.5 78t53.5 84.5t16.5 73.5q0 48 -26 78t-74 30q-81 0 -242 -123l-149 220q215 192 438 192q91 0 163.5 -32t116 -86.5t66.5 -122t23 -142.5q0 -51 -11.5 -102.5t-27 -92t-44 -87.5t-48 -75 t-54 -68t-48.5 -54t-44 -45q-103 -107 -130 -145q-44 -62 -44 -115h453v-289h-834z" />
<glyph unicode="3" horiz-adv-x="964" d="M33 160l147 231q173 -119 266 -119q59 0 97.5 43t38.5 113q0 43 -18 77.5t-45 54t-62 32.5t-65.5 17.5t-59.5 4.5h-35v285h43q29 0 62 8.5t65.5 26t54 49t21.5 72.5q0 44 -25 76t-78 32q-89 0 -227 -104l-137 211q215 186 430 186q110 0 190.5 -47.5t119 -124 t38.5 -170.5q0 -200 -172 -323q97 -46 156 -145.5t59 -233.5q0 -64 -13 -124t-44 -117.5t-76.5 -100t-115 -68t-154.5 -25.5q-76 0 -152 20t-137 52t-100.5 58t-71.5 53z" />
<glyph unicode="4" horiz-adv-x="1073" d="M39 262v242l420 930h415v-883h146v-289h-146v-262h-313v262h-522zM315 551h246v543z" />
<glyph unicode="5" horiz-adv-x="962" d="M41 168l152 240q42 -36 72.5 -59.5t79.5 -48t89 -24.5q65 0 106.5 53.5t41.5 139.5q0 80 -37 138.5t-113 58.5q-72 0 -160 -78l-174 106l54 740h706v-289h-438l-2 -213q58 14 102 14q94 0 167.5 -38.5t118 -105.5t67 -150.5t22.5 -178.5q0 -99 -25 -186.5t-74 -157.5 t-130 -111t-185 -41q-221 0 -440 191z" />
<glyph unicode="6" horiz-adv-x="993" d="M70 608q0 249 79.5 441.5t226.5 299.5t339 107q44 0 85 -5.5t60 -10.5l19 -6l-72 -273q-43 13 -88 13q-102 0 -188 -84.5t-123 -262.5q81 99 202 99q144 0 237 -124t93 -321q0 -144 -48.5 -257t-146.5 -180t-231 -67q-91 0 -165 32.5t-125 89.5t-86 136.5t-51.5 173 t-16.5 199.5zM385 565q1 -157 36.5 -231t94.5 -74q40 0 67 33.5t36.5 77t9.5 94.5q0 89 -29.5 146t-87.5 57q-42 0 -76 -30.5t-51 -72.5z" />
<glyph unicode="7" horiz-adv-x="829" d="M49 1145v289h754v-271q-14 -23 -37.5 -65t-84 -172.5t-106.5 -261.5t-84 -314.5t-38 -349.5h-322q0 158 33.5 330.5t77 301t98 252t84 178t47.5 83.5h-422z" />
<glyph unicode="8" horiz-adv-x="1028" d="M63 373q0 140 63 236t167 167q-164 132 -164 332q0 150 102.5 249t282.5 99t282.5 -99t102.5 -249q0 -199 -164 -334q48 -33 85 -69t71.5 -84.5t53 -111.5t18.5 -136q0 -178 -116.5 -287t-332.5 -109q-218 0 -334.5 109t-116.5 287zM379 393q0 -70 36.5 -111.5 t98.5 -41.5t98.5 41.5t36.5 111.5q0 142 -135 242q-135 -102 -135 -242zM414 1085q0 -108 100 -180q100 75 100 180q0 45 -25.5 81t-74.5 36t-74.5 -36t-25.5 -81z" />
<glyph unicode="9" horiz-adv-x="993" d="M53 950q0 222 113 364t313 142q113 0 199.5 -49t139.5 -136.5t79.5 -200t26.5 -245.5q1 -250 -78.5 -442.5t-226.5 -299t-338 -106.5q-44 0 -85.5 5.5t-61.5 11.5l-19 6l73 272q39 -12 88 -12q47 0 91.5 18.5t87 57.5t76.5 107t53 159q-75 -96 -199 -96 q-145 0 -238.5 124t-93.5 320zM367 969q0 -90 28 -146.5t86 -56.5q43 0 75.5 28.5t51.5 71.5q-1 156 -37 232t-94 76q-30 0 -52.5 -19t-34.5 -50.5t-17.5 -65.5t-5.5 -70z" />
<glyph unicode=":" horiz-adv-x="499" d="M102 0v367h293v-367h-293zM102 627v366h293v-366h-293z" />
<glyph unicode=";" horiz-adv-x="509" d="M102 -233l131 233h-129v367h293l17 -412l-236 -297zM104 627v366h293v-366h-293z" />
<glyph unicode="&#x3c;" horiz-adv-x="983" d="M98 569v228l742 415v-325l-424 -205l424 -209v-319z" />
<glyph unicode="=" horiz-adv-x="983" d="M119 362v252h741v-252h-741zM119 758v250h741v-250h-741z" />
<glyph unicode="&#x3e;" horiz-adv-x="983" d="M143 154v325l424 205l-424 209v319l742 -415v-228z" />
<glyph unicode="?" horiz-adv-x="831" d="M43 1296q38 35 84.5 67t128 62.5t162.5 30.5q156 0 259 -100t103 -260q0 -282 -342 -451l-12 -170h-180l-17 346q121 51 178.5 106.5t57.5 127.5q0 44 -26 78t-77 34q-68 0 -176 -86zM188 0v336h293v-336h-293z" />
<glyph unicode="@" horiz-adv-x="1390" d="M61 518q0 257 76 456.5t223.5 315t346.5 115.5q192 0 331 -114.5t208.5 -312.5t70.5 -458q0 -586 -299 -586q-54 0 -96.5 24.5t-67 64t-38.5 78t-19 77.5q-103 -133 -217 -133q-105 0 -169.5 81t-64.5 226q0 149 69 230.5t179 81.5q25 0 57.5 -6t53.5 -12t52.5 -16 t37.5 -12v84q0 82 -22.5 117t-76.5 35q-95 0 -231 -74l-74 164q200 96 346 96q140 0 204.5 -81.5t64.5 -262.5v-331q0 -46 0.5 -75t2.5 -65t7 -58t12.5 -42.5t19.5 -29.5t29 -9q57 0 93 109.5t36 332.5q0 160 -31 297t-91 242t-157 165t-220 60q-128 0 -230.5 -60 t-168 -165.5t-100 -246t-34.5 -304.5q0 -221 58 -395.5t170 -275.5t260 -101q71 0 136 21t94 42l30 21l57 -88q-5 -4 -13.5 -11.5t-39.5 -26t-66 -32.5t-91 -25.5t-116 -11.5q-174 0 -309.5 114.5t-209 316t-73.5 454.5zM561 373q0 -71 24 -105.5t64 -34.5q67 0 146 111v152 q-6 2 -35.5 11t-53 14t-40.5 5q-52 0 -78.5 -41.5t-26.5 -111.5z" />
<glyph unicode="A" horiz-adv-x="1093" d="M16 0l359 1434h344l358 -1434h-336l-47 262h-295l-45 -262h-338zM449 535h196l-98 552z" />
<glyph unicode="B" horiz-adv-x="1071" d="M111 0v1434h401q455 0 455 -349q0 -70 -19 -129.5t-49 -97.5t-62.5 -61.5t-64.5 -30.5q27 -5 56.5 -19t64 -44.5t62 -72t45.5 -105.5t18 -140q0 -183 -109 -284t-338 -101h-460zM424 268h84q203 0 203 181q0 178 -205 178h-82v-359zM424 877h68q85 0 125 35t40 108 q0 145 -163 145h-70v-288z" />
<glyph unicode="C" horiz-adv-x="989" d="M66 717q0 367 115 553t317 186q60 0 118.5 -13t120.5 -41t105.5 -52.5t115.5 -67.5l-137 -256q-19 10 -61 33.5t-61.5 34t-50.5 24.5t-54 19.5t-45 5.5q-162 0 -162 -426t162 -426q22 0 45.5 5.5t53.5 19.5t51 24.5t62 33.5t62 34l135 -256q-73 -44 -115.5 -67.5 t-105.5 -52.5t-121 -42t-118 -13q-202 0 -317 186.5t-115 553.5z" />
<glyph unicode="D" horiz-adv-x="1112" d="M111 0v1434h344q298 0 445 -170.5t147 -546.5t-147 -546.5t-445 -170.5h-344zM424 295h45q65 0 111.5 19.5t83 66.5t55 130.5t18.5 205.5q0 121 -18.5 204.5t-54.5 130.5t-83 67t-112 20h-45v-844z" />
<glyph unicode="E" horiz-adv-x="956" d="M111 0v1434h770v-295h-457v-277h369v-289h-369v-278h463v-295h-776z" />
<glyph unicode="F" horiz-adv-x="917" d="M111 0v1434h770v-295h-457v-279h358v-289h-358v-571h-313z" />
<glyph unicode="G" horiz-adv-x="1077" d="M66 723q0 362 118 547.5t322 185.5q83 0 175.5 -29.5t153 -61.5t152.5 -87l-135 -258q-25 13 -81 42.5t-82.5 42.5t-64.5 25.5t-67 12.5q-89 0 -129.5 -115t-40.5 -338q0 -416 164 -416q87 0 154 136v149h-189v275h479v-834h-290v121q-117 -144 -244 -144 q-64 0 -121.5 28t-107.5 88t-87 146.5t-58 210.5t-21 273z" />
<glyph unicode="H" horiz-adv-x="1126" d="M111 0v1434h313v-537h278v537h312v-1434h-312v608h-278v-608h-313z" />
<glyph unicode="I" horiz-adv-x="534" d="M111 0v1434h313v-1434h-313z" />
<glyph unicode="J" horiz-adv-x="532" d="M-51 -123q42 21 68.5 36t45.5 34t28 31.5t14 39t5.5 45t0.5 60.5v1311h313v-1293q0 -70 -0.5 -101.5t-5 -82.5t-14 -74t-27.5 -59.5t-44.5 -56.5t-66.5 -47.5t-93 -50t-124 -48.5z" />
<glyph unicode="K" horiz-adv-x="1099" d="M111 0v1434h313v-535l289 535h379l-408 -650l408 -784h-369l-229 483l-70 -112v-371h-313z" />
<glyph unicode="L" horiz-adv-x="897" d="M111 0v1434h313v-1139h440v-295h-753z" />
<glyph unicode="M" horiz-adv-x="1304" d="M111 0v1434h317l223 -723l223 723h318v-1434h-311v797l-164 -557h-129l-164 557v-797h-313z" />
<glyph unicode="N" horiz-adv-x="1148" d="M111 0v1434h315l299 -822v822h311v-1434h-313l-299 821v-821h-313z" />
<glyph unicode="O" horiz-adv-x="1163" d="M63 717q0 739 519 739q115 0 204.5 -37.5t148 -103t96 -160t53.5 -202t16 -236.5q0 -740 -518 -740q-519 0 -519 740zM383 717q0 -103 8.5 -178t30 -137.5t61.5 -94t99 -31.5q58 0 97.5 31.5t60.5 94t29.5 137.5t8.5 178t-8.5 178t-29.5 137t-60.5 93.5t-97.5 31.5 q-59 0 -99 -31.5t-61.5 -93.5t-30 -137t-8.5 -178z" />
<glyph unicode="P" horiz-adv-x="1048" d="M111 0v1434h381q268 0 388.5 -120.5t120.5 -352.5q0 -230 -120.5 -349.5t-388.5 -119.5h-68v-492h-313zM424 778h74q90 0 140 40.5t50 142.5t-50 143t-140 41h-74v-367z" />
<glyph unicode="Q" horiz-adv-x="1163" d="M63 717q0 739 519 739q115 0 204.5 -37.5t148 -103t96 -160t53.5 -202t16 -236.5q0 -489 -228 -656l168 -182l-202 -235l-256 333q-519 0 -519 740zM383 717q0 -103 8.5 -178t30 -137.5t61.5 -94t99 -31.5q58 0 97.5 31.5t60.5 94t29.5 137.5t8.5 178t-8.5 178t-29.5 137 t-60.5 93.5t-97.5 31.5q-59 0 -99 -31.5t-61.5 -93.5t-30 -137t-8.5 -178z" />
<glyph unicode="R" horiz-adv-x="1093" d="M111 0v1434h407q271 0 392.5 -112t121.5 -337q0 -318 -244 -407l244 -578h-330l-221 539h-57v-539h-313zM424 811h104q90 0 139.5 38.5t49.5 135.5q0 98 -49.5 137t-139.5 39h-104v-350z" />
<glyph unicode="S" horiz-adv-x="995" d="M45 170l145 242q214 -144 320 -144q44 0 73 26t29 75q0 29 -13 55.5t-44.5 55.5t-58 50t-80.5 59.5t-86 63.5q-58 43 -99.5 81t-82 89.5t-61.5 113t-21 132.5q0 167 106.5 277t298.5 110q219 0 447 -147l-148 -246q-183 102 -268 102q-46 0 -76.5 -24.5t-30.5 -71.5 q0 -28 14 -54.5t46.5 -55.5t59 -49t79 -57t78.5 -56q45 -33 77.5 -60t71.5 -69t64 -83.5t42 -97.5t17 -116q0 -78 -25.5 -147.5t-74 -125t-127 -88.5t-176.5 -33q-136 0 -267 57t-229 136z" />
<glyph unicode="T" horiz-adv-x="915" d="M35 1139v295h848v-295h-267v-1139h-311v1139h-270z" />
<glyph unicode="U" horiz-adv-x="1112" d="M102 500v934h312v-965q0 -92 29.5 -142.5t111.5 -50.5q83 0 113 50.5t30 142.5v965h314v-934q0 -94 -10.5 -166.5t-40.5 -142t-79.5 -114.5t-132 -72.5t-194.5 -27.5q-111 0 -192.5 27.5t-131 72.5t-79 114.5t-40 142t-10.5 166.5z" />
<glyph unicode="V" horiz-adv-x="1089" d="M14 1434h344l187 -1006l188 1006h342l-358 -1434h-344z" />
<glyph unicode="W" horiz-adv-x="1476" d="M29 1434h350l108 -834l136 834h229l135 -838l109 838h352l-277 -1434h-292l-142 860l-141 -860h-293z" />
<glyph unicode="X" horiz-adv-x="1040" d="M6 0l324 731l-307 703h352l145 -451l144 451h352l-307 -705l323 -729h-360l-154 434l-151 -434h-361z" />
<glyph unicode="Y" horiz-adv-x="1026" d="M8 1434h344l160 -504l162 504h344l-348 -865v-569h-314v569z" />
<glyph unicode="Z" horiz-adv-x="976" d="M53 0v260l475 879h-444v295h819v-258l-473 -881h481v-295h-858z" />
<glyph unicode="[" horiz-adv-x="616" d="M109 -293v2011h464v-194h-151v-1624h151v-193h-464z" />
<glyph unicode="\" horiz-adv-x="731" d="M27 1618h219l456 -1802h-221z" />
<glyph unicode="]" horiz-adv-x="616" d="M43 -98h152v1624h-152v192h465v-2011h-465v195z" />
<glyph unicode="^" horiz-adv-x="983" d="M78 655l258 779h309l258 -779h-305l-109 504l-106 -504h-305z" />
<glyph unicode="_" horiz-adv-x="1067" d="M86 -139h895v-240h-895v240z" />
<glyph unicode="`" horiz-adv-x="362" d="M-66 1493h314l178 -287h-242z" />
<glyph unicode="a" horiz-adv-x="935" d="M45 328q0 166 78 258t211 92q24 0 49.5 -3t52.5 -10t42.5 -11t42 -13t30.5 -10v76q0 75 -23.5 106t-81.5 31q-46 0 -98.5 -16t-157.5 -58l-96 227q237 101 424 101q173 0 253.5 -89t80.5 -290v-719h-301v119q-112 -142 -244 -142q-121 0 -191.5 96.5t-70.5 254.5z M348 360q0 -62 22 -93t58 -31q35 0 68 28.5t55 69.5v133q-74 33 -107 33q-45 0 -70.5 -37.5t-25.5 -102.5z" />
<glyph unicode="b" horiz-adv-x="970" d="M90 0v1493h301v-530q60 68 110.5 101.5t119.5 33.5q140 0 217 -142.5t77 -416.5q0 -276 -77 -419t-217 -143q-69 0 -119.5 33.5t-110.5 100.5v-111h-301zM391 371q52 -123 121 -123q100 0 100 291q0 288 -100 288q-68 0 -121 -125v-331z" />
<glyph unicode="c" horiz-adv-x="792" d="M53 539q0 141 29 250.5t79 175.5t113 99.5t136 33.5q60 0 135.5 -25t117 -46.5t99.5 -55.5l-123 -244q-17 10 -48.5 30t-46.5 29t-35.5 17t-37.5 8q-113 0 -113 -272q0 -275 111 -275q13 0 28 4.5t27 9.5t30.5 15.5t28 16.5t30 20t26.5 18l123 -244q-58 -34 -99.5 -55.5 t-117 -46.5t-135.5 -25q-153 0 -255 143t-102 419z" />
<glyph unicode="d" horiz-adv-x="970" d="M55 539q0 274 77.5 416.5t217.5 142.5q69 0 119 -33.5t113 -101.5v530h299v-1493h-299v111q-62 -68 -112.5 -101t-119.5 -33q-140 0 -217.5 143t-77.5 419zM358 539q0 -291 101 -291q66 0 123 123v331q-58 125 -123 125q-101 0 -101 -288z" />
<glyph unicode="e" horiz-adv-x="888" d="M53 535q0 268 103.5 415.5t296.5 147.5q185 0 283 -131t98 -344q0 -41 -4 -80t-8 -57l-3 -19h-463q5 -120 33 -181t88 -61q27 0 66.5 16.5t72.5 36t105 64.5l117 -199q-233 -166 -404 -166q-169 0 -275 141t-106 417zM358 643h203q-2 112 -23.5 164.5t-74.5 52.5 t-76.5 -53.5t-28.5 -163.5z" />
<glyph unicode="f" horiz-adv-x="634" d="M41 829v246h98v25q0 201 60 297t192 96q131 0 301 -90l-102 -232q-82 33 -105 33q-45 0 -45 -82v-47h166v-246h-166v-829h-301v829h-98z" />
<glyph unicode="g" horiz-adv-x="970" d="M55 539q0 274 77.5 416.5t217.5 142.5q69 0 119 -33.5t113 -101.5v112h299v-1091q0 -221 -83 -321.5t-276 -100.5q-97 0 -214.5 24t-219.5 64l74 250q190 -78 295 -78q68 0 96.5 38.5t28.5 119.5v131q-62 -68 -112.5 -101t-119.5 -33q-140 0 -217.5 143t-77.5 419z M358 539q0 -291 101 -291q66 0 123 123v331q-58 125 -123 125q-101 0 -101 -288z" />
<glyph unicode="h" d="M90 0v1493h301v-541q40 37 62.5 55.5t59.5 43.5t75.5 36t81.5 11q105 0 162 -82t57 -230v-786h-301v723q0 115 -60 115q-41 0 -79 -41t-58 -82v-715h-301z" />
<glyph unicode="i" horiz-adv-x="481" d="M86 1212v275h309v-275h-309zM90 0v1075h301v-1075h-301z" />
<glyph unicode="j" horiz-adv-x="481" d="M-72 -227q25 12 44 21.5t35 21t27.5 19t20.5 19.5t14.5 19.5t10 23t6.5 24.5t3 30t1 33.5v40.5v1050h301v-1024v-2q0 -71 -0.5 -103t-5 -83.5t-13.5 -74.5t-27 -59.5t-44 -56t-65.5 -47t-91 -49.5t-121.5 -47zM86 1212v275h309v-275h-309z" />
<glyph unicode="k" horiz-adv-x="929" d="M90 0v1493h301v-768l160 350h340l-264 -424l305 -651h-316l-159 375l-66 -107v-268h-301z" />
<glyph unicode="l" horiz-adv-x="485" d="M92 0v1493h301v-1493h-301z" />
<glyph unicode="m" horiz-adv-x="1404" d="M90 0v1075h301v-133q118 156 242 156q74 0 127.5 -47.5t77.5 -128.5q119 176 262 176q103 0 161 -83t58 -229v-786h-301v692q0 47 -3.5 76.5t-16.5 49.5t-35 20q-60 0 -109 -111v-727h-299v692q0 47 -3.5 76.5t-16.5 49.5t-35 20q-31 0 -59 -32t-50 -79v-727h-301z" />
<glyph unicode="n" d="M90 0v1075h301v-121q70 68 133.5 106t145.5 38q105 0 162 -82t57 -230v-786h-301v723q0 115 -60 115q-41 0 -79 -41t-58 -82v-715h-301z" />
<glyph unicode="o" horiz-adv-x="944" d="M53 539q0 270 105 414.5t315 144.5t315 -145t105 -416t-104.5 -415.5t-315.5 -144.5q-210 0 -315 145t-105 417zM354 539q0 -152 26.5 -227.5t92.5 -75.5q65 0 91 75t26 226t-26.5 227t-90.5 76q-66 0 -92.5 -75t-26.5 -226z" />
<glyph unicode="p" horiz-adv-x="970" d="M90 -418v1493h301v-112q60 68 110.5 101.5t119.5 33.5q140 0 217 -142.5t77 -416.5q0 -276 -77 -419t-217 -143q-69 0 -119.5 33.5t-110.5 100.5v-529h-301zM391 371q52 -123 121 -123q100 0 100 291q0 288 -100 288q-68 0 -121 -125v-331z" />
<glyph unicode="q" horiz-adv-x="970" d="M55 539q0 274 77.5 416.5t217.5 142.5q68 0 119 -34t113 -101v112h299v-1493h-299v529q-62 -68 -112.5 -101t-119.5 -33q-140 0 -217.5 143t-77.5 419zM358 539q0 -291 101 -291q66 0 123 123v331q-58 125 -123 125q-101 0 -101 -288z" />
<glyph unicode="r" horiz-adv-x="692" d="M90 0v1075h301v-223q9 26 18.5 50.5t33.5 63t51 64.5q28 26 72 44q35 14 74 14q11 0 22 -1v-315q-50 0 -92 -19t-69.5 -49.5t-48.5 -67.5t-32 -74t-18 -67.5t-9 -49.5l-2 -19v-426h-301z" />
<glyph unicode="s" horiz-adv-x="841" d="M41 119l123 229q62 -42 142.5 -76t127.5 -34q64 0 64 53q0 17 -9 33t-19.5 26.5t-35.5 24.5t-38.5 20.5t-47.5 22.5q-50 23 -85.5 43t-77.5 52.5t-68 67.5t-44 85t-18 108q0 138 87.5 231t244.5 93q99 0 202.5 -36t178.5 -83l-123 -217q-145 76 -221 76q-30 0 -49 -14 t-19 -40q0 -13 4 -24t14 -21t18.5 -17t26 -16t27.5 -14t31.5 -14.5t30.5 -13.5q47 -21 83.5 -41.5t78 -53.5t69 -69.5t46 -88.5t18.5 -112q0 -139 -90 -230.5t-252 -91.5q-112 0 -229.5 43t-190.5 99z" />
<glyph unicode="t" horiz-adv-x="694" d="M43 829v246h100v240l299 71v-311h197v-246h-197v-460q0 -99 47 -99q27 0 99 39l100 -241q-164 -91 -282 -91q-138 0 -200.5 89t-62.5 274v489h-100z" />
<glyph unicode="u" d="M86 287v788h301v-725q0 -112 59 -112q40 0 77.5 40t60.5 82v715h301v-1075h-301v121q-71 -69 -134 -106.5t-145 -37.5q-105 0 -162 81.5t-57 228.5z" />
<glyph unicode="v" horiz-adv-x="913" d="M18 1075h316l121 -684l125 684h313l-289 -1075h-297z" />
<glyph unicode="w" horiz-adv-x="1282" d="M29 1075h317l78 -602l115 602h204l113 -610l80 610h317l-225 -1075h-268l-119 610l-119 -610h-268z" />
<glyph unicode="x" horiz-adv-x="942" d="M6 0l281 543l-264 532h333l115 -338l115 338h334l-267 -530l283 -545h-348l-117 348l-117 -348h-348z" />
<glyph unicode="y" horiz-adv-x="913" d="M18 1075h316l121 -696l123 696h315l-397 -1493h-320l139 375z" />
<glyph unicode="z" horiz-adv-x="886" d="M55 0v229l400 570h-385v276h757v-229l-401 -570h401v-276h-772z" />
<glyph unicode="{" horiz-adv-x="634" d="M29 612v199q89 0 116 56t17 169l-17 191q-11 125 15 220.5t83.5 154t136 87.5t175.5 29h25v-188h-25q-115 0 -98 -277l12 -153q9 -121 -17.5 -201.5t-81.5 -124t-143 -63.5q134 -29 194.5 -118t47.5 -267l-12 -154q-17 -276 98 -276h25v-189h-25q-98 0 -176.5 29 t-136 87.5t-83.5 154.5t-14 221l17 190q10 113 -17 168t-116 55z" />
<glyph unicode="|" horiz-adv-x="434" d="M111 -252v1927h213v-1927h-213z" />
<glyph unicode="}" horiz-adv-x="636" d="M55 -104h25q115 0 98 276l-12 154q-9 121 17.5 201.5t81.5 124t143 63.5q-134 29 -194.5 118t-47.5 267l12 153q17 277 -98 277h-25v188h25q98 0 176.5 -29t135.5 -87t83 -154t14 -221l-16 -191q-10 -113 17 -168t116 -55v-199q-89 0 -116 -56t-17 -169l16 -190 q11 -125 -15 -220.5t-83 -154t-135.5 -88t-175.5 -29.5h-25v189z" />
<glyph unicode="~" horiz-adv-x="983" d="M41 440q45 158 113 245t174 87q48 0 97.5 -23.5t84.5 -52t75 -52t70 -23.5q33 0 60 26.5t61 106.5l164 -78q-45 -158 -113 -245t-174 -87q-43 0 -93 24t-86.5 52t-78 52t-71.5 24q-33 0 -58.5 -27t-60.5 -107z" />
<glyph unicode="&#xa1;" horiz-adv-x="542" d="M88 0l94 958h178l95 -958h-367zM125 1098v336h293v-336h-293z" />
<glyph unicode="&#xa2;" horiz-adv-x="856" d="M70 719q0 255 88 395t227 160v160h211v-191q74 -27 201 -102l-125 -240q-6 4 -35 22.5t-41.5 26t-35.5 19.5t-39.5 17t-31.5 5q-114 0 -114 -272q0 -275 114 -275q15 0 32 5t38.5 17t36 20.5t41 25.5t35.5 23l125 -240q-111 -70 -201 -105v-190h-211v160 q-139 22 -227 162.5t-88 396.5z" />
<glyph unicode="&#xa3;" horiz-adv-x="903" d="M78 0v233q6 3 16 9.5t35.5 30t46.5 52t40.5 76.5t25.5 103h-150v196h127q-11 36 -43.5 117.5t-49.5 150t-17 144.5q0 163 83 253.5t236 90.5q194 0 416 -182l-148 -209q-124 102 -196 102q-38 0 -58 -27t-20 -75q0 -61 44.5 -176t57.5 -189h213v-196h-205 q-14 -126 -75 -215h372v-289h-751z" />
<glyph unicode="&#xa5;" horiz-adv-x="1091" d="M41 1434h344l160 -504l162 504h344l-263 -650h148v-194h-225l-9 -21v-94h234v-194h-234v-281h-313v281h-233v194h233v94l-8 21h-225v194h145z" />
<glyph unicode="&#xa6;" horiz-adv-x="434" d="M111 -252v846h213v-846h-213zM111 829v846h213v-846h-213z" />
<glyph unicode="&#xa7;" horiz-adv-x="905" d="M68 645q0 78 34.5 141t100.5 101q-111 100 -111 248q0 137 87 229t245 92q99 0 201.5 -35.5t179.5 -83.5l-121 -213q-49 29 -114.5 53.5t-106.5 24.5q-31 0 -50.5 -15t-19.5 -44q0 -27 23 -49.5t44 -33t74 -33.5q7 -3 11 -5q293 -128 293 -358q0 -79 -34.5 -142.5 t-101.5 -101.5q111 -100 111 -246q0 -138 -87 -229.5t-245 -91.5q-100 0 -204.5 35.5t-176.5 82.5l123 215q52 -30 115.5 -53.5t105.5 -23.5q30 0 49 13.5t19 41.5q0 9 -2.5 17.5t-5.5 15t-10 14t-12 12.5t-16 11.5t-17.5 10t-20.5 10.5t-21 10t-23.5 10t-23.5 10 q-292 128 -292 360zM352 678q0 -43 29.5 -70t99.5 -59q72 18 72 86q0 39 -29 64.5t-102 58.5q-31 -6 -50.5 -26.5t-19.5 -53.5z" />
<glyph unicode="&#xa8;" horiz-adv-x="372" d="M-63 1227v250h215v-250h-215zM221 1227v250h215v-250h-215z" />
<glyph unicode="&#xa9;" horiz-adv-x="1597" d="M68 717q0 156 49 290.5t140 234.5t230.5 157t311.5 57t311 -57t230 -157t139.5 -234.5t48.5 -290.5t-48.5 -290.5t-139.5 -234.5t-230 -157.5t-311 -57.5t-311.5 57.5t-230.5 157.5t-140 234.5t-49 290.5zM150 717q0 -141 43 -261.5t123 -210.5t204 -141t277 -51 q205 0 355 89t224 237.5t74 337.5q0 141 -43.5 261t-124.5 209.5t-205.5 140t-279.5 50.5q-203 0 -351.5 -88t-222 -236t-73.5 -337zM428 715q0 212 101.5 329t254.5 117q72 0 143 -23t109 -45.5t90 -58.5l-59 -71q-42 32 -70.5 50.5t-88.5 40t-120 21.5q-115 0 -186.5 -99 t-71.5 -261q0 -160 71.5 -258.5t186.5 -98.5q37 0 75.5 8.5t61 16.5t59 29t43.5 25.5t40 27.5l59 -68q-52 -36 -90 -58.5t-109 -45.5t-143 -23q-152 0 -254 117t-102 328z" />
<glyph unicode="&#xaa;" horiz-adv-x="659" d="M59 987q0 98 48.5 153.5t132.5 55.5q19 0 41.5 -3.5t35 -6.5t34 -9.5t24.5 -7.5v35q0 42 -14 58t-50 16q-46 0 -157 -43l-66 151q153 62 272 62q112 0 163.5 -56t51.5 -182v-422h-200v70q-72 -84 -152 -84q-77 0 -120.5 60t-43.5 153zM262 1010q0 -31 12 -47.5t31 -16.5 q21 0 40 15t30 38v62q-48 18 -62 18q-51 0 -51 -69z" />
<glyph unicode="&#xab;" horiz-adv-x="997" d="M45 449v200l426 430v-362l-195 -168l195 -166v-363zM483 449v200l426 430v-362l-194 -168l194 -166v-363z" />
<glyph unicode="&#xac;" horiz-adv-x="983" d="M57 557v252h846v-625h-252v373h-594z" />
<glyph unicode="&#xad;" horiz-adv-x="677" d="M90 449v268h498v-268h-498z" />
<glyph unicode="&#xae;" horiz-adv-x="798" d="M66 1137q0 147 89 242.5t244 95.5q156 0 246 -95.5t90 -242.5t-90 -242.5t-246 -95.5q-155 0 -244 95.5t-89 242.5zM137 1137q0 -121 67.5 -197t194.5 -76t196 76t69 197q0 118 -69 195t-196 77t-194.5 -76.5t-67.5 -195.5zM274 971v340h158q53 0 84 -27.5t31 -71.5 q0 -38 -22.5 -63t-59.5 -33l78 -145h-70l-76 141h-59v-141h-64zM338 1169h94q51 0 51 43q0 21 -10.5 31t-38.5 10h-96v-84z" />
<glyph unicode="&#xaf;" horiz-adv-x="454" d="M0 1257v193h455v-193h-455z" />
<glyph unicode="&#xb0;" horiz-adv-x="718" d="M53 1130q0 126 90 216t217 90q126 0 216 -90t90 -216q0 -127 -90 -217t-216 -90q-128 0 -217.5 89.5t-89.5 217.5zM242 1130q0 -50 33.5 -84t84.5 -34q47 0 82 35.5t35 82.5t-35 82t-82 35q-50 0 -84 -34.5t-34 -82.5z" />
<glyph unicode="&#xb1;" horiz-adv-x="983" d="M119 0v215h741v-215h-741zM119 600v250h246v260h249v-260h246v-250h-246v-260h-249v260h-246z" />
<glyph unicode="&#xb2;" horiz-adv-x="638" d="M45 788v95q0 59 16.5 112.5t47 98.5t57 75t63.5 64q8 8 29 28t30 29t25 25.5t23.5 26.5t16.5 24t12.5 26t3.5 23q0 24 -16.5 39.5t-43.5 15.5q-51 0 -151 -73l-97 143q136 123 279 123q114 0 176 -71t62 -167q0 -51 -17.5 -100t-53 -94t-52.5 -63t-52 -52 q-40 -38 -57 -54.5t-33 -40.5t-16 -42h281v-191h-533z" />
<glyph unicode="&#xb3;" horiz-adv-x="634" d="M31 891l96 151q109 -73 168 -73q34 0 57 22.5t23 57.5q0 38 -29.5 61t-60.5 29t-64 6h-22v188h28q24 0 49.5 6t48.5 25.5t23 48.5q0 23 -13 39t-44 16q-58 0 -144 -63l-90 139q141 119 277 119q104 0 162.5 -60.5t58.5 -148.5q0 -119 -104 -190q60 -29 95.5 -87.5 t35.5 -138.5q0 -49 -14 -93.5t-42.5 -84t-79.5 -63t-118 -23.5q-65 0 -131.5 23.5t-101.5 46.5t-64 47z" />
<glyph unicode="&#xb4;" horiz-adv-x="362" d="M-66 1206l179 287h313l-248 -287h-244z" />
<glyph unicode="&#xb5;" horiz-adv-x="1021" d="M109 1075h301v-725q0 -112 59 -112q40 0 77 39.5t60 82.5v715h301v-1075h-301v121q-36 -35 -60 -55.5t-62 -43.5t-74 -32v-408h-299z" />
<glyph unicode="&#xb6;" horiz-adv-x="1165" d="M43 928q0 131 32.5 229.5t91.5 158t134.5 89t167.5 29.5h244v-1813h-248v801q-84 0 -158 29.5t-134 88.5t-95 159t-35 229zM791 -379v1813h247v-1813h-247z" />
<glyph unicode="&#xb7;" horiz-adv-x="475" d="M90 399v367h293v-367h-293z" />
<glyph unicode="&#xb8;" horiz-adv-x="272" d="M-23 -336l56 162q36 -25 61 -25q56 0 56 72q0 27 -9 60t-17 52l-9 19h125q6 -10 15 -27.5t24.5 -68t15.5 -96.5q0 -97 -51.5 -146t-126.5 -49q-82 0 -140 47z" />
<glyph unicode="&#xb9;" horiz-adv-x="544" d="M12 1507l191 142h198v-861h-204v650l-97 -68z" />
<glyph unicode="&#xba;" horiz-adv-x="649" d="M57 1112q0 162 67 249t200 87q268 0 268 -338q0 -336 -268 -336q-133 0 -200 87t-67 251zM260 1112q0 -85 14 -125.5t50 -40.5q38 0 51.5 40t13.5 124q0 85 -13.5 125.5t-51.5 40.5q-36 0 -50 -41t-14 -123z" />
<glyph unicode="&#xbb;" horiz-adv-x="999" d="M88 20v363l195 168l-195 166v362l426 -428v-200zM526 20v363l195 168l-195 166v362l426 -428v-200z" />
<glyph unicode="&#xbc;" horiz-adv-x="1415" d="M37 1292l190 142h199v-861h-205v650l-96 -68zM311 0l455 1434h221l-457 -1434h-219zM731 152v157l260 551h275v-518h92v-190h-92v-152h-207v152h-328zM915 342h144v305z" />
<glyph unicode="&#xbd;" horiz-adv-x="1417" d="M37 1292l190 142h199v-861h-205v650l-96 -68zM311 0l455 1434h221l-457 -1434h-219zM811 0v94q0 59 16.5 112.5t47 98.5t57 75t63.5 64q7 6 29.5 27.5t30 29.5t24.5 25.5t23.5 27.5t16 24t13 26t3.5 23q0 24 -16.5 39.5t-43.5 15.5q-50 0 -151 -74l-97 144 q135 122 279 122q114 0 175.5 -70.5t61.5 -166.5q0 -51 -17.5 -100t-52 -93.5t-52.5 -63.5t-52 -52q-39 -36 -56.5 -54t-33.5 -42t-16 -42h280v-190h-532z" />
<glyph unicode="&#xbe;" horiz-adv-x="1525" d="M51 676l96 151q109 -73 168 -73q34 0 57 22.5t23 57.5q0 29 -16 49.5t-42 29.5t-49 13t-46 4h-23v188h29q24 0 49.5 6t48.5 25.5t23 48.5q0 22 -13.5 38.5t-44.5 16.5q-57 0 -143 -63l-90 139q141 119 276 119q104 0 162.5 -60.5t58.5 -148.5q0 -119 -104 -190 q60 -29 95.5 -87.5t35.5 -138.5q0 -49 -14 -93.5t-42.5 -84t-79.5 -63t-118 -23.5q-65 0 -131.5 23.5t-101.5 46.5t-64 47zM430 0l455 1434h221l-457 -1434h-219zM850 152v157l260 551h274v-518h93v-190h-93v-152h-206v152h-328zM1034 342h144v305z" />
<glyph unicode="&#xbf;" horiz-adv-x="831" d="M51 338q0 281 342 450l13 170h180l16 -346q-121 -51 -178 -106t-57 -127q0 -44 25.5 -78.5t76.5 -34.5q68 0 176 86l143 -215q-27 -25 -60 -49t-81.5 -51t-109.5 -43.5t-123 -16.5q-156 0 -259.5 100.5t-103.5 260.5zM350 1098v336h293v-336h-293z" />
<glyph unicode="&#xc0;" horiz-adv-x="1093" d="M16 0l359 1434h344l358 -1434h-336l-47 262h-295l-45 -262h-338zM236 1802h313l178 -286h-242zM449 535h196l-98 552z" />
<glyph unicode="&#xc1;" horiz-adv-x="1093" d="M16 0l359 1434h344l358 -1434h-336l-47 262h-295l-45 -262h-338zM367 1516l178 286h313l-248 -286h-243zM449 535h196l-98 552z" />
<glyph unicode="&#xc2;" horiz-adv-x="1093" d="M16 0l359 1434h344l358 -1434h-336l-47 262h-295l-45 -262h-338zM254 1516l160 286h266l160 -286h-201l-92 143l-92 -143h-201zM449 535h196l-98 552z" />
<glyph unicode="&#xc3;" horiz-adv-x="1093" d="M16 0l359 1434h344l358 -1434h-336l-47 262h-295l-45 -262h-338zM246 1595q46 122 75 163q47 64 111 65q35 0 79 -24.5t80.5 -49.5t55.5 -25q37 0 74 95l123 -72q-17 -47 -25.5 -68t-27 -58.5t-34.5 -54.5t-41 -31.5t-54 -14.5q-36 0 -80.5 24.5t-81.5 49t-56 24.5 q-36 0 -73 -94zM449 535h196l-98 552z" />
<glyph unicode="&#xc4;" horiz-adv-x="1093" d="M16 0l359 1434h344l358 -1434h-336l-47 262h-295l-45 -262h-338zM297 1544v250h215v-250h-215zM449 535h196l-98 552zM582 1544v250h215v-250h-215z" />
<glyph unicode="&#xc5;" horiz-adv-x="1093" d="M16 0l359 1434h344l358 -1434h-336l-47 262h-295l-45 -262h-338zM340 1702q0 85 60.5 146t146.5 61t147.5 -61t61.5 -146q0 -87 -61 -147t-148 -60t-147 60t-60 147zM449 535h196l-98 552zM479 1702q0 -29 19.5 -48.5t48.5 -19.5t49 19.5t20 48.5q0 28 -20 47.5t-49 19.5 t-48.5 -19.5t-19.5 -47.5z" />
<glyph unicode="&#xc6;" horiz-adv-x="1632" d="M-35 0l658 1434h933v-295h-456v-277h368v-289h-368v-278h463v-295h-777v262h-335l-111 -262h-375zM571 545h215v504z" />
<glyph unicode="&#xc7;" horiz-adv-x="989" d="M66 717q0 367 115 553t317 186q60 0 118.5 -13t120.5 -41t105.5 -52.5t115.5 -67.5l-137 -256q-19 10 -61 33.5t-61.5 34t-50.5 24.5t-54 19.5t-45 5.5q-162 0 -162 -426t162 -426q22 0 45.5 5.5t53.5 19.5t51 24.5t62 33.5t62 34l135 -256q-79 -48 -126.5 -74.5 t-117.5 -54.5t-132 -37q45 -87 45 -174q0 -97 -51.5 -146t-126.5 -49q-82 0 -140 47l56 162q36 -25 61 -25q55 0 55 72q0 47 -24 107q-185 18 -288 203t-103 534z" />
<glyph unicode="&#xc8;" horiz-adv-x="956" d="M111 0v1434h770v-295h-457v-277h369v-289h-369v-278h463v-295h-776zM186 1802h314l178 -286h-242z" />
<glyph unicode="&#xc9;" horiz-adv-x="956" d="M111 0v1434h770v-295h-457v-277h369v-289h-369v-278h463v-295h-776zM319 1516l179 286h313l-248 -286h-244z" />
<glyph unicode="&#xca;" horiz-adv-x="956" d="M111 0v1434h770v-295h-457v-277h369v-289h-369v-278h463v-295h-776zM207 1516l160 286h266l160 -286h-201l-92 143l-92 -143h-201z" />
<glyph unicode="&#xcb;" horiz-adv-x="956" d="M111 0v1434h770v-295h-457v-277h369v-289h-369v-278h463v-295h-776zM250 1536v250h215v-250h-215zM535 1536v250h215v-250h-215z" />
<glyph unicode="&#xcc;" horiz-adv-x="532" d="M-47 1802h313l178 -286h-241zM111 0v1434h313v-1434h-313z" />
<glyph unicode="&#xcd;" horiz-adv-x="534" d="M86 1516l178 286h314l-248 -286h-244zM111 0v1434h313v-1434h-313z" />
<glyph unicode="&#xce;" horiz-adv-x="534" d="M-27 1516l160 286h266l160 -286h-201l-92 143l-92 -143h-201zM111 0v1434h313v-1434h-313z" />
<glyph unicode="&#xcf;" horiz-adv-x="534" d="M16 1532v250h215v-250h-215zM111 0v1434h313v-1434h-313zM301 1532v250h215v-250h-215z" />
<glyph unicode="&#xd0;" horiz-adv-x="1132" d="M29 584v266h100v584h344q298 0 445 -170.5t147 -546.5t-147 -546.5t-445 -170.5h-344v584h-100zM442 295h45q65 0 112 19.5t83.5 66.5t55 130.5t18.5 205.5q0 121 -18.5 204.5t-55 130.5t-83.5 67t-112 20h-45v-289h170v-266h-170v-289z" />
<glyph unicode="&#xd1;" horiz-adv-x="1148" d="M111 0v1434h315l299 -822v822h311v-1434h-313l-299 821v-821h-313zM281 1610q12 32 16.5 43t16 39.5t18.5 40t19.5 33t23.5 30.5t25.5 20.5t31 16t35.5 4.5q35 0 79 -24.5t80.5 -49t55.5 -24.5q37 0 74 94l123 -72q-17 -46 -25.5 -68t-27 -58.5t-35 -54t-41.5 -32 t-54 -14.5q-36 0 -80 24.5t-81 49t-56 24.5q-36 0 -73 -94z" />
<glyph unicode="&#xd2;" horiz-adv-x="1163" d="M63 717q0 739 519 739q115 0 204.5 -37.5t148 -103t96 -160t53.5 -202t16 -236.5q0 -740 -518 -740q-519 0 -519 740zM268 1802h314l178 -286h-242zM383 717q0 -103 8.5 -178t30 -137.5t61.5 -94t99 -31.5q58 0 97.5 31.5t60.5 94t29.5 137.5t8.5 178t-8.5 178t-29.5 137 t-60.5 93.5t-97.5 31.5q-59 0 -99 -31.5t-61.5 -93.5t-30 -137t-8.5 -178z" />
<glyph unicode="&#xd3;" horiz-adv-x="1163" d="M63 717q0 739 519 739q115 0 204.5 -37.5t148 -103t96 -160t53.5 -202t16 -236.5q0 -740 -518 -740q-519 0 -519 740zM383 717q0 -103 8.5 -178t30 -137.5t61.5 -94t99 -31.5q58 0 97.5 31.5t60.5 94t29.5 137.5t8.5 178t-8.5 178t-29.5 137t-60.5 93.5t-97.5 31.5 q-59 0 -99 -31.5t-61.5 -93.5t-30 -137t-8.5 -178zM401 1516l179 286h313l-248 -286h-244z" />
<glyph unicode="&#xd4;" horiz-adv-x="1163" d="M63 717q0 739 519 739q115 0 204.5 -37.5t148 -103t96 -160t53.5 -202t16 -236.5q0 -740 -518 -740q-519 0 -519 740zM287 1516l159 286h267l159 -286h-200l-92 143l-93 -143h-200zM383 717q0 -103 8.5 -178t30 -137.5t61.5 -94t99 -31.5q58 0 97.5 31.5t60.5 94 t29.5 137.5t8.5 178t-8.5 178t-29.5 137t-60.5 93.5t-97.5 31.5q-59 0 -99 -31.5t-61.5 -93.5t-30 -137t-8.5 -178z" />
<glyph unicode="&#xd5;" horiz-adv-x="1163" d="M63 717q0 739 519 739q115 0 204.5 -37.5t148 -103t96 -160t53.5 -202t16 -236.5q0 -740 -518 -740q-519 0 -519 740zM279 1595q46 122 75 163q47 64 111 65q35 0 79 -24.5t80.5 -49.5t55.5 -25q37 0 74 95l123 -72q-17 -46 -25.5 -68t-27 -58.5t-35 -54t-41.5 -32 t-54 -14.5q-36 0 -80 24.5t-81 49t-56 24.5q-37 0 -74 -94zM383 717q0 -103 8.5 -178t30 -137.5t61.5 -94t99 -31.5q58 0 97.5 31.5t60.5 94t29.5 137.5t8.5 178t-8.5 178t-29.5 137t-60.5 93.5t-97.5 31.5q-59 0 -99 -31.5t-61.5 -93.5t-30 -137t-8.5 -178z" />
<glyph unicode="&#xd6;" horiz-adv-x="1163" d="M63 717q0 739 519 739q115 0 204.5 -37.5t148 -103t96 -160t53.5 -202t16 -236.5q0 -740 -518 -740q-519 0 -519 740zM332 1536v250h215v-250h-215zM383 717q0 -103 8.5 -178t30 -137.5t61.5 -94t99 -31.5q58 0 97.5 31.5t60.5 94t29.5 137.5t8.5 178t-8.5 178t-29.5 137 t-60.5 93.5t-97.5 31.5q-59 0 -99 -31.5t-61.5 -93.5t-30 -137t-8.5 -178zM616 1536v250h215v-250h-215z" />
<glyph unicode="&#xd7;" horiz-adv-x="983" d="M145 440l189 248l-189 250l197 154l147 -197l148 195l199 -152l-189 -250l189 -250l-197 -151l-150 194l-147 -194z" />
<glyph unicode="&#xd8;" horiz-adv-x="1161" d="M63 717q0 739 519 739q156 0 268 -70l27 48h206l-102 -183q119 -187 119 -534q0 -740 -518 -740q-160 0 -269 70l-26 -47h-207l100 180q-117 181 -117 537zM383 717q0 -111 6 -160l305 551q-46 49 -112 49q-59 0 -99 -31.5t-61.5 -93.5t-30 -137t-8.5 -178zM467 324 q45 -48 115 -48q58 0 97.5 31.5t60.5 94t29.5 137.5t8.5 178q0 85 -6 155z" />
<glyph unicode="&#xd9;" horiz-adv-x="1112" d="M102 500v934h312v-965q0 -92 29.5 -142.5t111.5 -50.5q83 0 113 50.5t30 142.5v965h314v-934q0 -94 -10.5 -166.5t-40.5 -142t-79.5 -114.5t-132 -72.5t-194.5 -27.5q-111 0 -192.5 27.5t-131 72.5t-79 114.5t-40 142t-10.5 166.5zM244 1802h313l178 -286h-241z" />
<glyph unicode="&#xda;" horiz-adv-x="1112" d="M102 500v934h312v-965q0 -92 29.5 -142.5t111.5 -50.5q83 0 113 50.5t30 142.5v965h314v-934q0 -94 -10.5 -166.5t-40.5 -142t-79.5 -114.5t-132 -72.5t-194.5 -27.5q-111 0 -192.5 27.5t-131 72.5t-79 114.5t-40 142t-10.5 166.5zM377 1516l178 286h313l-247 -286h-244z " />
<glyph unicode="&#xdb;" horiz-adv-x="1112" d="M102 500v934h312v-965q0 -92 29.5 -142.5t111.5 -50.5q83 0 113 50.5t30 142.5v965h314v-934q0 -94 -10.5 -166.5t-40.5 -142t-79.5 -114.5t-132 -72.5t-194.5 -27.5q-111 0 -192.5 27.5t-131 72.5t-79 114.5t-40 142t-10.5 166.5zM262 1516l160 286h266l160 -286h-201 l-92 143l-92 -143h-201z" />
<glyph unicode="&#xdc;" horiz-adv-x="1112" d="M102 500v934h312v-965q0 -92 29.5 -142.5t111.5 -50.5q83 0 113 50.5t30 142.5v965h314v-934q0 -94 -10.5 -166.5t-40.5 -142t-79.5 -114.5t-132 -72.5t-194.5 -27.5q-111 0 -192.5 27.5t-131 72.5t-79 114.5t-40 142t-10.5 166.5zM307 1536v250h215v-250h-215zM592 1536 v250h215v-250h-215z" />
<glyph unicode="&#xdd;" horiz-adv-x="1026" d="M8 1434h344l160 -504l162 504h344l-348 -865v-569h-314v569zM334 1516l178 286h313l-247 -286h-244z" />
<glyph unicode="&#xde;" horiz-adv-x="1050" d="M111 0v1434h313v-222h68q268 0 388.5 -120.5t120.5 -352.5q0 -230 -120.5 -349.5t-388.5 -119.5h-68v-270h-313zM424 555h72q93 0 142.5 41t49.5 143q0 103 -49.5 143t-142.5 40h-72v-367z" />
<glyph unicode="&#xdf;" horiz-adv-x="1155" d="M90 0v969q0 97 12 173t43.5 144.5t83 113.5t133.5 71t191 26q102 0 183.5 -22.5t133.5 -59.5t86.5 -88t49 -104.5t14.5 -112.5q0 -62 -15.5 -114t-30.5 -74l-16 -21q-29 -9 -56 -22.5t-53 -42t-26 -62.5q0 -33 24 -56.5t76 -60.5t91 -79q116 -119 116 -273 q0 -143 -84.5 -235.5t-232.5 -92.5q-164 0 -362 107l122 229q128 -75 191 -75q30 0 48.5 16t18.5 43q0 49 -65 100q-10 7 -40.5 29t-50 37t-48.5 45t-45.5 60t-29.5 75t-13 96q0 203 186 312q4 24 4 43q0 70 -39 113.5t-125 43.5q-94 0 -134 -67t-40 -236v-948h-301z" />
<glyph unicode="&#xe0;" horiz-adv-x="935" d="M45 328q0 166 78 258t211 92q24 0 49.5 -3t52.5 -10t42.5 -11t42 -13t30.5 -10v76q0 75 -23.5 106t-81.5 31q-46 0 -98.5 -16t-157.5 -58l-96 227q237 101 424 101q173 0 253.5 -89t80.5 -290v-719h-301v119q-112 -142 -244 -142q-121 0 -191.5 96.5t-70.5 254.5z M160 1493h313l178 -287h-241zM348 360q0 -62 22 -93t58 -31q35 0 68 28.5t55 69.5v133q-74 33 -107 33q-45 0 -70.5 -37.5t-25.5 -102.5z" />
<glyph unicode="&#xe1;" horiz-adv-x="935" d="M45 328q0 166 78 258t211 92q24 0 49.5 -3t52.5 -10t42.5 -11t42 -13t30.5 -10v76q0 75 -23.5 106t-81.5 31q-46 0 -98.5 -16t-157.5 -58l-96 227q237 101 424 101q173 0 253.5 -89t80.5 -290v-719h-301v119q-112 -142 -244 -142q-121 0 -191.5 96.5t-70.5 254.5z M293 1206l178 287h313l-247 -287h-244zM348 360q0 -62 22 -93t58 -31q35 0 68 28.5t55 69.5v133q-74 33 -107 33q-45 0 -70.5 -37.5t-25.5 -102.5z" />
<glyph unicode="&#xe2;" horiz-adv-x="935" d="M45 328q0 166 78 258t211 92q24 0 49.5 -3t52.5 -10t42.5 -11t42 -13t30.5 -10v76q0 75 -23.5 106t-81.5 31q-46 0 -98.5 -16t-157.5 -58l-96 227q237 101 424 101q173 0 253.5 -89t80.5 -290v-719h-301v119q-112 -142 -244 -142q-121 0 -191.5 96.5t-70.5 254.5z M178 1206l160 287h266l160 -287h-201l-92 144l-92 -144h-201zM348 360q0 -62 22 -93t58 -31q35 0 68 28.5t55 69.5v133q-74 33 -107 33q-45 0 -70.5 -37.5t-25.5 -102.5z" />
<glyph unicode="&#xe3;" horiz-adv-x="935" d="M45 328q0 166 78 258t211 92q24 0 49.5 -3t52.5 -10t42.5 -11t42 -13t30.5 -10v76q0 75 -23.5 106t-81.5 31q-46 0 -98.5 -16t-157.5 -58l-96 227q237 101 424 101q173 0 253.5 -89t80.5 -290v-719h-301v119q-112 -142 -244 -142q-121 0 -191.5 96.5t-70.5 254.5z M174 1286q12 32 16.5 43t16 39.5t18.5 40t19.5 33t23.5 30.5t25.5 20.5t31 16t35.5 4.5q35 0 79 -24.5t80.5 -49t55.5 -24.5q37 0 74 94l123 -71q-12 -31 -16 -42t-15.5 -39.5t-18 -40t-19 -33t-23 -31t-25 -21.5t-31 -16.5t-34.5 -4.5q-36 0 -80 25t-81 49.5t-56 24.5 q-37 0 -74 -95zM348 360q0 -62 22 -93t58 -31q35 0 68 28.5t55 69.5v133q-74 33 -107 33q-45 0 -70.5 -37.5t-25.5 -102.5z" />
<glyph unicode="&#xe4;" horiz-adv-x="935" d="M45 328q0 166 78 258t211 92q24 0 49.5 -3t52.5 -10t42.5 -11t42 -13t30.5 -10v76q0 75 -23.5 106t-81.5 31q-46 0 -98.5 -16t-157.5 -58l-96 227q237 101 424 101q173 0 253.5 -89t80.5 -290v-719h-301v119q-112 -142 -244 -142q-121 0 -191.5 96.5t-70.5 254.5z M223 1227v250h215v-250h-215zM348 360q0 -62 22 -93t58 -31q35 0 68 28.5t55 69.5v133q-74 33 -107 33q-45 0 -70.5 -37.5t-25.5 -102.5zM508 1227v250h215v-250h-215z" />
<glyph unicode="&#xe5;" horiz-adv-x="935" d="M45 328q0 166 78 258t211 92q24 0 49.5 -3t52.5 -10t42.5 -11t42 -13t30.5 -10v76q0 75 -23.5 106t-81.5 31q-46 0 -98.5 -16t-157.5 -58l-96 227q237 101 424 101q173 0 253.5 -89t80.5 -290v-719h-301v119q-112 -142 -244 -142q-121 0 -191.5 96.5t-70.5 254.5z M266 1393q0 85 60.5 145.5t146.5 60.5t147.5 -60.5t61.5 -145.5q0 -87 -61 -147t-148 -60t-147 60t-60 147zM348 360q0 -62 22 -93t58 -31q35 0 68 28.5t55 69.5v133q-74 33 -107 33q-45 0 -70.5 -37.5t-25.5 -102.5zM406 1393q0 -29 19 -48.5t48 -19.5t49.5 19.5t20.5 48.5 q0 28 -20.5 47.5t-49.5 19.5t-48 -19.5t-19 -47.5z" />
<glyph unicode="&#xe6;" horiz-adv-x="1374" d="M45 330q0 165 77.5 256.5t209.5 91.5q28 0 62 -6t52.5 -11.5t54.5 -17t38 -12.5q3 51 12 94q-5 65 -29 92t-78 27q-44 0 -95 -16t-159 -58l-96 227q237 101 422 101q137 0 213 -58q89 58 205 58q185 0 283 -131t98 -344q0 -41 -3.5 -80t-7.5 -57l-4 -19h-462 q5 -120 32.5 -181t87.5 -61q27 0 66.5 16.5t72.5 36t105 64.5l117 -199q-233 -166 -404 -166q-103 0 -184 52t-131 157q-70 -105 -140.5 -157t-152.5 -52q-121 0 -191.5 97t-70.5 256zM348 360q0 -62 22 -93t58 -31t68 28.5t55 71.5q-11 55 -14 131q-4 2 -27.5 13 t-38.5 15.5t-29 4.5q-44 0 -69 -37.5t-25 -102.5zM840 643h202q-2 112 -23.5 164.5t-74.5 52.5t-76 -53t-28 -164z" />
<glyph unicode="&#xe7;" horiz-adv-x="790" d="M53 539q0 141 29 250.5t79 175.5t113 99.5t136 33.5q60 0 135.5 -25t117 -46.5t99.5 -55.5l-123 -244q-17 10 -48.5 30t-46.5 29t-35.5 17t-37.5 8q-113 0 -113 -272q0 -275 111 -275q13 0 28 4.5t27 9.5t30.5 15.5t28 16.5t30 20t26.5 18l123 -244q-52 -30 -84.5 -47 t-94.5 -41.5t-114 -31.5q43 -89 43 -172q0 -97 -51.5 -146t-126.5 -49q-81 0 -139 47l55 162q36 -25 61 -25q56 0 56 72q0 45 -27 113q-128 30 -207.5 169.5t-79.5 383.5z" />
<glyph unicode="&#xe8;" horiz-adv-x="888" d="M53 535q0 268 103.5 415.5t296.5 147.5q185 0 283 -131t98 -344q0 -41 -4 -80t-8 -57l-3 -19h-463q5 -120 33 -181t88 -61q27 0 66.5 16.5t72.5 36t105 64.5l117 -199q-233 -166 -404 -166q-169 0 -275 141t-106 417zM147 1493h314l178 -287h-242zM358 643h203 q-2 112 -23.5 164.5t-74.5 52.5t-76.5 -53.5t-28.5 -163.5z" />
<glyph unicode="&#xe9;" horiz-adv-x="888" d="M53 535q0 268 103.5 415.5t296.5 147.5q185 0 283 -131t98 -344q0 -41 -4 -80t-8 -57l-3 -19h-463q5 -120 33 -181t88 -61q27 0 66.5 16.5t72.5 36t105 64.5l117 -199q-233 -166 -404 -166q-169 0 -275 141t-106 417zM279 1206l178 287h313l-248 -287h-243zM358 643h203 q-2 112 -23.5 164.5t-74.5 52.5t-76.5 -53.5t-28.5 -163.5z" />
<glyph unicode="&#xea;" horiz-adv-x="888" d="M53 535q0 268 103.5 415.5t296.5 147.5q185 0 283 -131t98 -344q0 -41 -4 -80t-8 -57l-3 -19h-463q5 -120 33 -181t88 -61q27 0 66.5 16.5t72.5 36t105 64.5l117 -199q-233 -166 -404 -166q-169 0 -275 141t-106 417zM166 1206l160 287h266l160 -287h-201l-92 144 l-92 -144h-201zM358 643h203q-2 112 -23.5 164.5t-74.5 52.5t-76.5 -53.5t-28.5 -163.5z" />
<glyph unicode="&#xeb;" horiz-adv-x="888" d="M53 535q0 268 103.5 415.5t296.5 147.5q185 0 283 -131t98 -344q0 -41 -4 -80t-8 -57l-3 -19h-463q5 -120 33 -181t88 -61q27 0 66.5 16.5t72.5 36t105 64.5l117 -199q-233 -166 -404 -166q-169 0 -275 141t-106 417zM211 1227v250h215v-250h-215zM358 643h203 q-2 112 -23.5 164.5t-74.5 52.5t-76.5 -53.5t-28.5 -163.5zM496 1227v250h215v-250h-215z" />
<glyph unicode="&#xec;" horiz-adv-x="481" d="M-72 1493h314l178 -287h-242zM90 0v1075h301v-1075h-301z" />
<glyph unicode="&#xed;" horiz-adv-x="479" d="M59 1206l179 287h313l-248 -287h-244zM90 0v1075h301v-1075h-301z" />
<glyph unicode="&#xee;" horiz-adv-x="479" d="M-53 1206l159 287h267l159 -287h-200l-92 144l-93 -144h-200zM90 0v1075h301v-1075h-301z" />
<glyph unicode="&#xef;" horiz-adv-x="481" d="M-10 1227v250h215v-250h-215zM90 0v1075h301v-1075h-301zM274 1227v250h215v-250h-215z" />
<glyph unicode="&#xf0;" horiz-adv-x="972" d="M51 477q0 222 98.5 360t243.5 138q45 0 83 -11t60 -26.5t38 -30.5t22 -26l6 -11q-20 75 -60.5 140.5t-97.5 105.5l-43 -74h-225l74 127q-26 -2 -50.5 -6t-35.5 -7l-12 -3l-31 258q58 23 164 23q46 0 114 -11l41 70h226l-82 -137q163 -97 247 -298t84 -458 q0 -303 -115 -463t-333 -160q-194 0 -305 135t-111 365zM362 475q0 -52 5 -90.5t17.5 -74.5t39 -55t65.5 -19q38 0 64 18.5t39.5 54t18.5 75t5 91.5q0 53 -5 92t-17.5 75.5t-39 55.5t-65.5 19q-127 0 -127 -242z" />
<glyph unicode="&#xf1;" d="M90 0v1075h301v-121q70 68 133.5 106t145.5 38q105 0 162 -82t57 -230v-786h-301v723q0 115 -60 115q-41 0 -79 -41t-58 -82v-715h-301zM188 1286q15 39 22 57t22 51t27.5 49t30.5 35t39 27t46 8q35 0 79 -24.5t80.5 -49t55.5 -24.5q37 0 74 94l122 -71q-12 -31 -16 -42 t-15.5 -39.5t-18 -40t-19 -33t-23 -31t-25 -21.5t-31 -16.5t-34.5 -4.5q-36 0 -80 25t-81 49.5t-56 24.5q-37 0 -74 -95z" />
<glyph unicode="&#xf2;" horiz-adv-x="944" d="M53 539q0 270 105 414.5t315 144.5t315 -145t105 -416t-104.5 -415.5t-315.5 -144.5q-210 0 -315 145t-105 417zM162 1493h313l178 -287h-241zM354 539q0 -152 26.5 -227.5t92.5 -75.5q65 0 91 75t26 226t-26.5 227t-90.5 76q-66 0 -92.5 -75t-26.5 -226z" />
<glyph unicode="&#xf3;" horiz-adv-x="944" d="M53 539q0 270 105 414.5t315 144.5t315 -145t105 -416t-104.5 -415.5t-315.5 -144.5q-210 0 -315 145t-105 417zM293 1206l178 287h313l-247 -287h-244zM354 539q0 -152 26.5 -227.5t92.5 -75.5q65 0 91 75t26 226t-26.5 227t-90.5 76q-66 0 -92.5 -75t-26.5 -226z" />
<glyph unicode="&#xf4;" horiz-adv-x="944" d="M53 539q0 270 105 414.5t315 144.5t315 -145t105 -416t-104.5 -415.5t-315.5 -144.5q-210 0 -315 145t-105 417zM180 1206l160 287h266l160 -287h-201l-92 144l-92 -144h-201zM354 539q0 -152 26.5 -227.5t92.5 -75.5q65 0 91 75t26 226t-26.5 227t-90.5 76 q-66 0 -92.5 -75t-26.5 -226z" />
<glyph unicode="&#xf5;" horiz-adv-x="944" d="M53 539q0 270 105 414.5t315 144.5t315 -145t105 -416t-104.5 -415.5t-315.5 -144.5q-210 0 -315 145t-105 417zM172 1286q12 32 16.5 43t16 39.5t18.5 40t19.5 33t23.5 30.5t25.5 20.5t31 16t35.5 4.5q35 0 79 -24.5t80.5 -49t55.5 -24.5q37 0 74 94l123 -71 q-12 -31 -16 -42t-15.5 -39.5t-18 -40t-19 -33t-23 -31t-25 -21.5t-31 -16.5t-34.5 -4.5q-36 0 -80 25t-81 49.5t-56 24.5q-37 0 -74 -95zM354 539q0 -152 26.5 -227.5t92.5 -75.5q65 0 91 75t26 226t-26.5 227t-90.5 76q-66 0 -92.5 -75t-26.5 -226z" />
<glyph unicode="&#xf6;" horiz-adv-x="944" d="M53 539q0 270 105 414.5t315 144.5t315 -145t105 -416t-104.5 -415.5t-315.5 -144.5q-210 0 -315 145t-105 417zM223 1227v250h215v-250h-215zM354 539q0 -152 26.5 -227.5t92.5 -75.5q65 0 91 75t26 226t-26.5 227t-90.5 76q-66 0 -92.5 -75t-26.5 -226zM508 1227v250 h215v-250h-215z" />
<glyph unicode="&#xf7;" horiz-adv-x="983" d="M119 557v252h741v-252h-741zM362 332q0 54 36.5 91.5t90.5 37.5t91.5 -37.5t37.5 -91.5t-37.5 -91.5t-91.5 -37.5t-90.5 37.5t-36.5 91.5zM362 1034q0 54 36.5 91.5t90.5 37.5t91.5 -37.5t37.5 -91.5t-37.5 -90.5t-91.5 -36.5t-90.5 36.5t-36.5 90.5z" />
<glyph unicode="&#xf8;" horiz-adv-x="944" d="M53 539q0 270 105 414.5t315 144.5q129 0 215 -56l21 33h159l-75 -129q100 -141 100 -409q0 -271 -104.5 -415.5t-315.5 -144.5q-129 0 -221 58l-21 -35h-165l81 137q-94 140 -94 402zM354 483l191 318q-28 39 -72 39q-66 0 -92.5 -75t-26.5 -226v-56zM395 279 q27 -43 78 -43q65 0 91 75t26 226q0 45 -2 65z" />
<glyph unicode="&#xf9;" d="M86 287v788h301v-725q0 -112 59 -112q40 0 77.5 40t60.5 82v715h301v-1075h-301v121q-71 -69 -134 -106.5t-145 -37.5q-105 0 -162 81.5t-57 228.5zM172 1493h313l179 -287h-242z" />
<glyph unicode="&#xfa;" d="M86 287v788h301v-725q0 -112 59 -112q40 0 77.5 40t60.5 82v715h301v-1075h-301v121q-71 -69 -134 -106.5t-145 -37.5q-105 0 -162 81.5t-57 228.5zM303 1206l178 287h314l-248 -287h-244z" />
<glyph unicode="&#xfb;" d="M86 287v788h301v-725q0 -112 59 -112q40 0 77.5 40t60.5 82v715h301v-1075h-301v121q-71 -69 -134 -106.5t-145 -37.5q-105 0 -162 81.5t-57 228.5zM193 1206l159 287h266l160 -287h-200l-93 144l-92 -144h-200z" />
<glyph unicode="&#xfc;" d="M86 287v788h301v-725q0 -112 59 -112q40 0 77.5 40t60.5 82v715h301v-1075h-301v121q-71 -69 -134 -106.5t-145 -37.5q-105 0 -162 81.5t-57 228.5zM236 1227v250h215v-250h-215zM520 1227v250h215v-250h-215z" />
<glyph unicode="&#xfd;" horiz-adv-x="913" d="M18 1075h316l121 -696l123 696h315l-397 -1493h-320l139 375zM274 1206l179 287h313l-248 -287h-244z" />
<glyph unicode="&#xfe;" horiz-adv-x="970" d="M90 -418v1911h301v-530q60 68 110.5 101.5t119.5 33.5q140 0 217 -142.5t77 -416.5q0 -276 -77 -419t-217 -143q-69 0 -119.5 33.5t-110.5 100.5v-529h-301zM391 371q52 -123 121 -123q100 0 100 291q0 288 -100 288q-68 0 -121 -125v-331z" />
<glyph unicode="&#xff;" horiz-adv-x="913" d="M18 1075h316l121 -696l123 696h315l-397 -1493h-320l139 375zM207 1227v250h215v-250h-215zM492 1227v250h215v-250h-215z" />
<glyph unicode="&#x100;" horiz-adv-x="1093" d="M16 0l359 1434h344l358 -1434h-336l-47 262h-295l-45 -262h-338zM319 1567v192h455v-192h-455zM449 535h196l-98 552z" />
<glyph unicode="&#x101;" horiz-adv-x="935" d="M45 328q0 166 78 258t211 92q24 0 49.5 -3t52.5 -10t42.5 -11t42 -13t30.5 -10v76q0 75 -23.5 106t-81.5 31q-46 0 -98.5 -16t-157.5 -58l-96 227q237 101 424 101q173 0 253.5 -89t80.5 -290v-719h-301v119q-112 -142 -244 -142q-121 0 -191.5 96.5t-70.5 254.5z M246 1257v193h454v-193h-454zM348 360q0 -62 22 -93t58 -31q35 0 68 28.5t55 69.5v133q-74 33 -107 33q-45 0 -70.5 -37.5t-25.5 -102.5z" />
<glyph unicode="&#x102;" horiz-adv-x="1093" d="M16 0l359 1434h344l358 -1434h-336l-47 262h-295l-45 -262h-338zM283 1778h176q0 -40 23.5 -62t64.5 -22q43 0 67.5 22t24.5 62h174q0 -123 -70 -192.5t-196 -69.5q-124 0 -194 69.5t-70 192.5zM449 535h196l-98 552z" />
<glyph unicode="&#x103;" horiz-adv-x="935" d="M45 328q0 166 78 258t211 92q24 0 49.5 -3t52.5 -10t42.5 -11t42 -13t30.5 -10v76q0 75 -23.5 106t-81.5 31q-46 0 -98.5 -16t-157.5 -58l-96 227q237 101 424 101q173 0 253.5 -89t80.5 -290v-719h-301v119q-112 -142 -244 -142q-121 0 -191.5 96.5t-70.5 254.5z M209 1468h176q0 -40 23.5 -62t64.5 -22q43 0 67.5 22t24.5 62h174q0 -123 -70 -192.5t-196 -69.5q-124 0 -194 69.5t-70 192.5zM348 360q0 -62 22 -93t58 -31q35 0 68 28.5t55 69.5v133q-74 33 -107 33q-45 0 -70.5 -37.5t-25.5 -102.5z" />
<glyph unicode="&#x104;" horiz-adv-x="1093" d="M16 0l359 1434h344l358 -1434h-6q-125 -106 -125 -190q0 -17 4.5 -29.5t12.5 -20t16 -12t20 -5.5t19 -1.5t17.5 0t11.5 0.5l-25 -148q-84 0 -125 11q-131 36 -131 172q0 131 135 223h-160l-47 262h-295l-45 -262h-338zM449 535h196l-98 552z" />
<glyph unicode="&#x105;" horiz-adv-x="935" d="M45 328q0 166 78 258t211 92q24 0 49.5 -3t52.5 -10t42.5 -11t42 -13t30.5 -10v76q0 75 -23.5 106t-81.5 31q-46 0 -98.5 -16t-157.5 -58l-96 227q237 101 424 101q173 0 253.5 -89t80.5 -290v-719h-6q-125 -106 -125 -190q0 -17 4 -29.5t12.5 -20t16.5 -12t19.5 -5.5 t18.5 -1.5t17.5 0t11.5 0.5l-24 -148q-84 0 -125 11q-131 36 -131 172q0 131 135 223h-125v119q-112 -142 -244 -142q-121 0 -191.5 96.5t-70.5 254.5zM348 360q0 -62 22 -93t58 -31q35 0 68 28.5t55 69.5v133q-74 33 -107 33q-45 0 -70.5 -37.5t-25.5 -102.5z" />
<glyph unicode="&#x106;" horiz-adv-x="989" d="M66 717q0 367 115 553t317 186q60 0 118.5 -13t120.5 -41t105.5 -52.5t115.5 -67.5l-137 -256q-19 10 -61 33.5t-61.5 34t-50.5 24.5t-54 19.5t-45 5.5q-162 0 -162 -426t162 -426q22 0 45.5 5.5t53.5 19.5t51 24.5t62 33.5t62 34l135 -256q-73 -44 -115.5 -67.5 t-105.5 -52.5t-121 -42t-118 -13q-202 0 -317 186.5t-115 553.5zM391 1516l178 286h314l-248 -286h-244z" />
<glyph unicode="&#x107;" horiz-adv-x="792" d="M53 539q0 141 29 250.5t79 175.5t113 99.5t136 33.5q60 0 135.5 -25t117 -46.5t99.5 -55.5l-123 -244q-17 10 -48.5 30t-46.5 29t-35.5 17t-37.5 8q-113 0 -113 -272q0 -275 111 -275q13 0 28 4.5t27 9.5t30.5 15.5t28 16.5t30 20t26.5 18l123 -244q-58 -34 -99.5 -55.5 t-117 -46.5t-135.5 -25q-153 0 -255 143t-102 419zM250 1206l178 287h313l-247 -287h-244z" />
<glyph unicode="&#x10a;" horiz-adv-x="989" d="M66 717q0 367 115 553t317 186q60 0 118.5 -13t120.5 -41t105.5 -52.5t115.5 -67.5l-137 -256q-19 10 -61 33.5t-61.5 34t-50.5 24.5t-54 19.5t-45 5.5q-162 0 -162 -426t162 -426q22 0 45.5 5.5t53.5 19.5t51 24.5t62 33.5t62 34l135 -256q-73 -44 -115.5 -67.5 t-105.5 -52.5t-121 -42t-118 -13q-202 0 -317 186.5t-115 553.5zM418 1536v250h215v-250h-215z" />
<glyph unicode="&#x10b;" horiz-adv-x="792" d="M53 539q0 141 29 250.5t79 175.5t113 99.5t136 33.5q60 0 135.5 -25t117 -46.5t99.5 -55.5l-123 -244q-17 10 -48.5 30t-46.5 29t-35.5 17t-37.5 8q-113 0 -113 -272q0 -275 111 -275q13 0 28 4.5t27 9.5t30.5 15.5t28 16.5t30 20t26.5 18l123 -244q-58 -34 -99.5 -55.5 t-117 -46.5t-135.5 -25q-153 0 -255 143t-102 419zM319 1227v250h216v-250h-216z" />
<glyph unicode="&#x10c;" horiz-adv-x="989" d="M66 717q0 367 115 553t317 186q60 0 118.5 -13t120.5 -41t105.5 -52.5t115.5 -67.5l-137 -256q-19 10 -61 33.5t-61.5 34t-50.5 24.5t-54 19.5t-45 5.5q-162 0 -162 -426t162 -426q22 0 45.5 5.5t53.5 19.5t51 24.5t62 33.5t62 34l135 -256q-73 -44 -115.5 -67.5 t-105.5 -52.5t-121 -42t-118 -13q-202 0 -317 186.5t-115 553.5zM233 1802h201l92 -145l92 145h201l-160 -286h-266z" />
<glyph unicode="&#x10d;" horiz-adv-x="792" d="M53 539q0 141 29 250.5t79 175.5t113 99.5t136 33.5q60 0 135.5 -25t117 -46.5t99.5 -55.5l-123 -244q-17 10 -48.5 30t-46.5 29t-35.5 17t-37.5 8q-113 0 -113 -272q0 -275 111 -275q13 0 28 4.5t27 9.5t30.5 15.5t28 16.5t30 20t26.5 18l123 -244q-58 -34 -99.5 -55.5 t-117 -46.5t-135.5 -25q-153 0 -255 143t-102 419zM135 1493h201l92 -145l92 145h201l-160 -287h-266z" />
<glyph unicode="&#x10e;" horiz-adv-x="1112" d="M111 0v1434h344q298 0 445 -170.5t147 -546.5t-147 -546.5t-445 -170.5h-344zM285 1802h200l93 -145l92 145h200l-159 -286h-267zM424 295h45q65 0 111.5 19.5t83 66.5t55 130.5t18.5 205.5q0 121 -18.5 204.5t-54.5 130.5t-83 67t-112 20h-45v-844z" />
<glyph unicode="&#x10f;" horiz-adv-x="1085" d="M55 539q0 274 77.5 416.5t217.5 142.5q69 0 119 -33.5t113 -101.5v530h299v-1493h-299v111q-62 -68 -112.5 -101t-119.5 -33q-140 0 -217.5 143t-77.5 419zM358 539q0 -291 101 -291q66 0 123 123v331q-58 125 -123 125q-101 0 -101 -288zM942 1063l90 168h-88v262h201 l10 -291l-160 -217z" />
<glyph unicode="&#x110;" horiz-adv-x="1132" d="M29 584v266h100v584h344q298 0 445 -170.5t147 -546.5t-147 -546.5t-445 -170.5h-344v584h-100zM442 295h45q65 0 112 19.5t83.5 66.5t55 130.5t18.5 205.5q0 121 -18.5 204.5t-55 130.5t-83.5 67t-112 20h-45v-289h170v-266h-170v-289z" />
<glyph unicode="&#x111;" horiz-adv-x="970" d="M55 539q0 274 77.5 416.5t217.5 142.5q69 0 119 -33.5t113 -101.5v215h-240v192h240v123h299v-123h80v-192h-80v-1178h-299v111q-62 -68 -112.5 -101t-119.5 -33q-140 0 -217.5 143t-77.5 419zM358 539q0 -291 101 -291q66 0 123 123v331q-58 125 -123 125 q-101 0 -101 -288z" />
<glyph unicode="&#x112;" horiz-adv-x="956" d="M111 0v1434h770v-295h-457v-277h369v-289h-369v-278h463v-295h-776zM272 1567v192h455v-192h-455z" />
<glyph unicode="&#x113;" horiz-adv-x="888" d="M53 535q0 268 103.5 415.5t296.5 147.5q185 0 283 -131t98 -344q0 -41 -4 -80t-8 -57l-3 -19h-463q5 -120 33 -181t88 -61q27 0 66.5 16.5t72.5 36t105 64.5l117 -199q-233 -166 -404 -166q-169 0 -275 141t-106 417zM229 1257v193h455v-193h-455zM358 643h203 q-2 112 -23.5 164.5t-74.5 52.5t-76.5 -53.5t-28.5 -163.5z" />
<glyph unicode="&#x116;" horiz-adv-x="956" d="M111 0v1434h770v-295h-457v-277h369v-289h-369v-278h463v-295h-776zM391 1536v250h215v-250h-215z" />
<glyph unicode="&#x117;" horiz-adv-x="888" d="M53 535q0 268 103.5 415.5t296.5 147.5q185 0 283 -131t98 -344q0 -41 -4 -80t-8 -57l-3 -19h-463q5 -120 33 -181t88 -61q27 0 66.5 16.5t72.5 36t105 64.5l117 -199q-233 -166 -404 -166q-169 0 -275 141t-106 417zM352 1227v250h215v-250h-215zM358 643h203 q-2 112 -23.5 164.5t-74.5 52.5t-76.5 -53.5t-28.5 -163.5z" />
<glyph unicode="&#x118;" horiz-adv-x="956" d="M111 0v1434h770v-295h-457v-277h369v-289h-369v-278h463v-295h-4q-125 -106 -125 -190q0 -17 4 -29.5t12.5 -20t16.5 -12t19.5 -5.5t18.5 -1.5t17.5 0t11.5 0.5l-24 -148q-84 0 -125 11q-131 36 -131 172q0 131 135 223h-602z" />
<glyph unicode="&#x119;" horiz-adv-x="888" d="M53 535q0 268 103.5 415.5t296.5 147.5q185 0 283 -131t98 -344q0 -41 -4 -80t-8 -57l-3 -19h-463q5 -120 33 -181t88 -61q27 0 66.5 16.5t72.5 36t105 64.5l117 -199q-139 -101 -260 -141q-129 -110 -129 -192q0 -17 4 -29.5t12.5 -20t16.5 -12t19.5 -5.5t18.5 -1.5 t17.5 0t11.5 0.5l-25 -148q-84 0 -125 11q-131 36 -131 172q0 115 111 205q-147 21 -236.5 160.5t-89.5 392.5zM358 643h203q-2 112 -23.5 164.5t-74.5 52.5t-76.5 -53.5t-28.5 -163.5z" />
<glyph unicode="&#x11a;" horiz-adv-x="956" d="M111 0v1434h770v-295h-457v-277h369v-289h-369v-278h463v-295h-776zM207 1796h201l92 -145l92 145h201l-160 -287h-266z" />
<glyph unicode="&#x11b;" horiz-adv-x="888" d="M53 535q0 268 103.5 415.5t296.5 147.5q185 0 283 -131t98 -344q0 -41 -4 -80t-8 -57l-3 -19h-463q5 -120 33 -181t88 -61q27 0 66.5 16.5t72.5 36t105 64.5l117 -199q-233 -166 -404 -166q-169 0 -275 141t-106 417zM166 1493h201l92 -145l92 145h201l-160 -287h-266z M358 643h203q-2 112 -23.5 164.5t-74.5 52.5t-76.5 -53.5t-28.5 -163.5z" />
<glyph unicode="&#x11e;" horiz-adv-x="1077" d="M66 723q0 362 118 547.5t322 185.5q83 0 175.5 -29.5t153 -61.5t152.5 -87l-135 -258q-25 13 -81 42.5t-82.5 42.5t-64.5 25.5t-67 12.5q-89 0 -129.5 -115t-40.5 -338q0 -416 164 -416q87 0 154 136v149h-189v275h479v-834h-290v121q-117 -144 -244 -144 q-64 0 -121.5 28t-107.5 88t-87 146.5t-58 210.5t-21 273zM266 1778h176q0 -40 23.5 -62t64.5 -22q43 0 68 22.5t25 61.5h174q0 -123 -70.5 -192.5t-196.5 -69.5q-124 0 -194 69.5t-70 192.5z" />
<glyph unicode="&#x11f;" horiz-adv-x="970" d="M55 539q0 274 77.5 416.5t217.5 142.5q69 0 119 -33.5t113 -101.5v112h299v-1091q0 -221 -83 -321.5t-276 -100.5q-97 0 -214.5 24t-219.5 64l74 250q190 -78 295 -78q68 0 96.5 38.5t28.5 119.5v131q-62 -68 -112.5 -101t-119.5 -33q-140 0 -217.5 143t-77.5 419z M221 1468h176q0 -40 23.5 -62t64.5 -22q43 0 68 22.5t25 61.5h174q0 -123 -70.5 -192.5t-196.5 -69.5q-124 0 -194 69.5t-70 192.5zM358 539q0 -291 101 -291q66 0 123 123v331q-58 125 -123 125q-101 0 -101 -288z" />
<glyph unicode="&#x120;" horiz-adv-x="1077" d="M66 723q0 362 118 547.5t322 185.5q83 0 175.5 -29.5t153 -61.5t152.5 -87l-135 -258q-25 13 -81 42.5t-82.5 42.5t-64.5 25.5t-67 12.5q-89 0 -129.5 -115t-40.5 -338q0 -416 164 -416q87 0 154 136v149h-189v275h479v-834h-290v121q-117 -144 -244 -144 q-64 0 -121.5 28t-107.5 88t-87 146.5t-58 210.5t-21 273zM422 1536v250h215v-250h-215z" />
<glyph unicode="&#x121;" horiz-adv-x="970" d="M55 539q0 274 77.5 416.5t217.5 142.5q69 0 119 -33.5t113 -101.5v112h299v-1091q0 -221 -83 -321.5t-276 -100.5q-97 0 -214.5 24t-219.5 64l74 250q190 -78 295 -78q68 0 96.5 38.5t28.5 119.5v131q-62 -68 -112.5 -101t-119.5 -33q-140 0 -217.5 143t-77.5 419z M358 539q0 -291 101 -291q66 0 123 123v331q-58 125 -123 125q-101 0 -101 -288zM377 1227v250h215v-250h-215z" />
<glyph unicode="&#x122;" horiz-adv-x="1077" d="M66 723q0 362 118 547.5t322 185.5q83 0 175.5 -29.5t153 -61.5t152.5 -87l-135 -258q-25 13 -81 42.5t-82.5 42.5t-64.5 25.5t-67 12.5q-89 0 -129.5 -115t-40.5 -338q0 -416 164 -416q87 0 154 136v149h-189v275h479v-834h-290v121q-117 -144 -244 -144 q-64 0 -121.5 28t-107.5 88t-87 146.5t-58 210.5t-21 273zM449 -543l90 168h-88v262h200l11 -290l-160 -218z" />
<glyph unicode="&#x123;" horiz-adv-x="970" d="M55 539q0 274 77.5 416.5t217.5 142.5q69 0 119 -33.5t113 -101.5v112h299v-1091q0 -221 -83 -321.5t-276 -100.5q-97 0 -214.5 24t-219.5 64l74 250q190 -78 295 -78q68 0 96.5 38.5t28.5 119.5v131q-62 -68 -112.5 -101t-119.5 -33q-140 0 -217.5 143t-77.5 419z M358 539q0 -291 101 -291q66 0 123 123v331q-58 125 -123 125q-101 0 -101 -288zM381 1518l160 217l53 -78l-90 -168h88v-262h-201z" />
<glyph unicode="&#x126;" horiz-adv-x="1165" d="M25 1053v192h104v189h313v-189h279v189h311v-189h109v-192h-109v-1053h-311v608h-279v-608h-313v1053h-104zM442 897h279v156h-279v-156z" />
<glyph unicode="&#x127;" d="M12 1178v192h78v123h301v-123h238v-192h-238v-226q40 37 62.5 55.5t59.5 43.5t75.5 36t81.5 11q105 0 162 -82t57 -230v-786h-301v723q0 115 -60 115q-41 0 -79 -41t-58 -82v-715h-301v1178h-78z" />
<glyph unicode="&#x128;" horiz-adv-x="534" d="M-35 1595q18 47 26.5 68.5t28 59t35.5 54.5t42 31.5t55 14.5q35 0 79 -24.5t80.5 -49.5t55.5 -25q36 0 73 95l123 -72q-17 -47 -25.5 -68t-27 -58.5t-34.5 -54.5t-41 -31.5t-54 -14.5q-36 0 -80 24.5t-81 49t-56 24.5q-37 0 -74 -94zM111 0v1434h313v-1434h-313z" />
<glyph unicode="&#x129;" horiz-adv-x="481" d="M-61 1286q12 32 16.5 43t16 39.5t18.5 40t19.5 33t23.5 30.5t25.5 20.5t31 16t35.5 4.5q35 0 79 -24.5t80.5 -49t55.5 -24.5q37 0 74 94l123 -71q-17 -46 -25.5 -68t-27 -59t-35 -54.5t-41.5 -32t-54 -14.5q-36 0 -80 25t-81 49.5t-56 24.5q-37 0 -74 -95zM90 0v1075h301 v-1075h-301z" />
<glyph unicode="&#x12a;" horiz-adv-x="534" d="M39 1567v192h455v-192h-455zM111 0v1434h313v-1434h-313z" />
<glyph unicode="&#x12b;" horiz-adv-x="481" d="M12 1257v193h455v-193h-455zM90 0v1075h301v-1075h-301z" />
<glyph unicode="&#x12c;" horiz-adv-x="534" d="M0 1778h176q0 -40 23.5 -62t64.5 -22q43 0 67.5 22t24.5 62h174q0 -123 -70 -192.5t-196 -69.5q-124 0 -194 69.5t-70 192.5zM111 0v1434h313v-1434h-313z" />
<glyph unicode="&#x12d;" horiz-adv-x="481" d="M-27 1468h177q0 -40 23.5 -62t64.5 -22q43 0 67.5 22t24.5 62h174q0 -123 -70 -192.5t-196 -69.5q-124 0 -194.5 69.5t-70.5 192.5zM90 0v1075h301v-1075h-301z" />
<glyph unicode="&#x12e;" horiz-adv-x="534" d="M111 0v1434h313v-1434h-6q-125 -106 -125 -190q0 -17 4 -29.5t12.5 -20t16.5 -12t19.5 -5.5t18.5 -1.5t17.5 0t11.5 0.5l-24 -148q-84 0 -125 11q-131 36 -131 172q0 131 135 223h-137z" />
<glyph unicode="&#x12f;" horiz-adv-x="481" d="M78 -223q0 131 135 223h-125v1075h301v-1075h-6q-125 -106 -125 -190q0 -17 4 -29.5t12.5 -20t16.5 -12t19.5 -5.5t18.5 -1.5t17.5 0t11.5 0.5l-24 -148q-84 0 -125 11q-131 36 -131 172zM84 1212v275h309v-275h-309z" />
<glyph unicode="&#x130;" horiz-adv-x="534" d="M111 0v1434h313v-1434h-313zM158 1536v250h215v-250h-215z" />
<glyph unicode="&#x131;" horiz-adv-x="481" d="M90 0v1075h301v-1075h-301z" />
<glyph unicode="&#x132;" horiz-adv-x="1069" d="M111 0v1434h313v-1434h-313zM483 -123q42 21 68.5 36t45.5 34t28 31.5t14 39t5.5 45t0.5 60.5v1311h313v-1293v-2q0 -70 -0.5 -101.5t-5 -82t-14 -73.5t-27.5 -59t-44.5 -56t-66.5 -48t-92.5 -50t-123.5 -48z" />
<glyph unicode="&#x133;" horiz-adv-x="958" d="M86 1212v275h309v-275h-309zM90 0v1075h301v-1075h-301zM406 -227q36 17 60 31.5t42.5 26.5t29 29t17 28.5t9 37.5t3 42.5t0.5 56.5v1050h301v-1024v-2q0 -71 -0.5 -103t-5 -83.5t-13.5 -74.5t-27 -59.5t-44 -56t-65.5 -47t-91 -49.5t-121.5 -47zM563 1212v275h309v-275 h-309z" />
<glyph unicode="&#x134;" horiz-adv-x="534" d="M-51 -123q42 21 68.5 36t45.5 34t28 31.5t14 39t5.5 45t0.5 60.5v1311h313v-1293q0 -70 -0.5 -101.5t-5 -82.5t-14 -74t-27.5 -59.5t-44.5 -56.5t-66.5 -47.5t-93 -50t-124 -48.5zM-27 1516l160 286h266l160 -286h-201l-92 143l-92 -143h-201z" />
<glyph unicode="&#x135;" horiz-adv-x="481" d="M-72 -227q25 12 44 21.5t35 21t27.5 19t20.5 19.5t14.5 19.5t10 23t6.5 24.5t3 30t1 33.5v40.5v1050h301v-1024v-2q0 -63 -0.5 -92t-3.5 -78t-9.5 -71.5t-18.5 -59.5t-31 -56t-46 -45.5t-64 -44t-85.5 -37t-109.5 -36.5zM-53 1206l159 287h267l159 -287h-200l-92 144 l-93 -144h-200z" />
<glyph unicode="&#x136;" horiz-adv-x="1099" d="M111 0v1434h313v-535l289 535h379l-408 -650l408 -784h-369l-229 483l-70 -112v-371h-313zM444 -543l91 168h-89v262h201l10 -290l-159 -218z" />
<glyph unicode="&#x137;" horiz-adv-x="929" d="M90 0v1493h301v-768l160 350h340l-264 -424l305 -651h-316l-159 375l-66 -107v-268h-301zM369 -543l90 168h-88v262h200l11 -290l-160 -218z" />
<glyph unicode="&#x138;" horiz-adv-x="929" d="M90 0v1075h301v-350l160 350h340l-264 -424l305 -651h-316l-159 375l-66 -107v-268h-301z" />
<glyph unicode="&#x139;" horiz-adv-x="897" d="M86 1516l178 286h314l-248 -286h-244zM111 0v1434h313v-1139h440v-295h-753z" />
<glyph unicode="&#x13a;" horiz-adv-x="485" d="M61 1579l179 287h313l-248 -287h-244zM92 0v1493h301v-1493h-301z" />
<glyph unicode="&#x13b;" horiz-adv-x="897" d="M111 0v1434h313v-1139h440v-295h-753zM375 -543l90 168h-88v262h201l10 -290l-160 -218z" />
<glyph unicode="&#x13c;" horiz-adv-x="487" d="M92 0v1493h301v-1493h-301zM145 -543l91 168h-89v262h201l10 -290l-159 -218z" />
<glyph unicode="&#x13d;" horiz-adv-x="897" d="M111 0v1434h313v-1139h440v-295h-753zM483 1004l90 167h-88v263h201l10 -291l-159 -217z" />
<glyph unicode="&#x13e;" horiz-adv-x="598" d="M92 0v1493h301v-1493h-301zM455 1063l90 168h-88v262h200l11 -291l-160 -217z" />
<glyph unicode="&#x13f;" horiz-adv-x="899" d="M111 0v1434h313v-1139h440v-295h-753zM586 631v250h215v-250h-215z" />
<glyph unicode="&#x140;" horiz-adv-x="663" d="M92 0v1493h301v-1493h-301zM455 631v250h215v-250h-215z" />
<glyph unicode="&#x141;" horiz-adv-x="911" d="M35 385v305l90 66v678h313v-451l180 131v-307l-180 -131v-381h441v-295h-754v451z" />
<glyph unicode="&#x142;" horiz-adv-x="534" d="M35 428v305l78 55v705h301v-487l80 57v-307l-80 -58v-698h-301v483z" />
<glyph unicode="&#x143;" horiz-adv-x="1148" d="M111 0v1434h315l299 -822v822h311v-1434h-313l-299 821v-821h-313zM403 1516l179 286h313l-248 -286h-244z" />
<glyph unicode="&#x144;" d="M90 0v1075h301v-121q70 68 133.5 106t145.5 38q105 0 162 -82t57 -230v-786h-301v723q0 115 -60 115q-41 0 -79 -41t-58 -82v-715h-301zM309 1206l178 287h314l-248 -287h-244z" />
<glyph unicode="&#x145;" horiz-adv-x="1148" d="M111 0v1434h315l299 -822v822h311v-1434h-313l-299 821v-821h-313zM485 -543l90 168h-88v262h201l10 -290l-159 -218z" />
<glyph unicode="&#x146;" d="M90 0v1075h301v-121q70 68 133.5 106t145.5 38q105 0 162 -82t57 -230v-786h-301v723q0 115 -60 115q-41 0 -79 -41t-58 -82v-715h-301zM391 -543l90 168h-88v262h201l10 -290l-160 -218z" />
<glyph unicode="&#x147;" horiz-adv-x="1148" d="M111 0v1434h315l299 -822v822h311v-1434h-313l-299 821v-821h-313zM289 1802h200l93 -145l92 145h200l-159 -286h-266z" />
<glyph unicode="&#x148;" d="M90 0v1075h301v-121q70 68 133.5 106t145.5 38q105 0 162 -82t57 -230v-786h-301v723q0 115 -60 115q-41 0 -79 -41t-58 -82v-715h-301zM195 1493h200l92 -145l93 145h200l-159 -287h-267z" />
<glyph unicode="&#x149;" d="M88 1223l90 168h-88v262h201l10 -291l-160 -217zM90 0v1075h301v-121q70 68 133.5 106t145.5 38q105 0 162 -82t57 -230v-786h-301v723q0 115 -60 115q-41 0 -79 -41t-58 -82v-715h-301z" />
<glyph unicode="&#x14a;" horiz-adv-x="1148" d="M111 0v1434h315l299 -822v822h311v-1293v-2q0 -70 -0.5 -101.5t-5 -82t-14 -73.5t-27 -59t-44 -56t-66 -48t-91.5 -50t-122 -48l-103 256q80 40 113.5 66t44.5 63l-297 815v-821h-313z" />
<glyph unicode="&#x14b;" horiz-adv-x="972" d="M90 0v1075h301v-121q70 68 133.5 106t145.5 38q105 0 162 -82t57 -230v-735q0 -63 -0.5 -91.5t-3.5 -76t-9.5 -69.5t-18.5 -57t-31 -53t-45.5 -44.5t-64 -45.5t-85 -41t-109.5 -44l-96 244q25 12 44 21.5t35 21t27.5 19t20.5 19.5t14.5 19.5t10 23t6.5 24.5t3 30t1 33.5 v40.5v698q0 115 -60 115q-41 0 -79 -41t-58 -82v-715h-301z" />
<glyph unicode="&#x14c;" horiz-adv-x="1163" d="M63 717q0 739 519 739q115 0 204.5 -37.5t148 -103t96 -160t53.5 -202t16 -236.5q0 -740 -518 -740q-519 0 -519 740zM354 1567v192h455v-192h-455zM383 717q0 -103 8.5 -178t30 -137.5t61.5 -94t99 -31.5q58 0 97.5 31.5t60.5 94t29.5 137.5t8.5 178t-8.5 178t-29.5 137 t-60.5 93.5t-97.5 31.5q-59 0 -99 -31.5t-61.5 -93.5t-30 -137t-8.5 -178z" />
<glyph unicode="&#x14d;" horiz-adv-x="944" d="M53 539q0 270 105 414.5t315 144.5t315 -145t105 -416t-104.5 -415.5t-315.5 -144.5q-210 0 -315 145t-105 417zM246 1257v193h454v-193h-454zM354 539q0 -152 26.5 -227.5t92.5 -75.5q65 0 91 75t26 226t-26.5 227t-90.5 76q-66 0 -92.5 -75t-26.5 -226z" />
<glyph unicode="&#x14e;" horiz-adv-x="1163" d="M63 717q0 739 519 739q115 0 204.5 -37.5t148 -103t96 -160t53.5 -202t16 -236.5q0 -740 -518 -740q-519 0 -519 740zM317 1778h177q0 -40 23.5 -62t64.5 -22q43 0 67.5 22t24.5 62h174q0 -123 -70 -192.5t-196 -69.5q-124 0 -194.5 69.5t-70.5 192.5zM383 717 q0 -103 8.5 -178t30 -137.5t61.5 -94t99 -31.5q58 0 97.5 31.5t60.5 94t29.5 137.5t8.5 178t-8.5 178t-29.5 137t-60.5 93.5t-97.5 31.5q-59 0 -99 -31.5t-61.5 -93.5t-30 -137t-8.5 -178z" />
<glyph unicode="&#x14f;" horiz-adv-x="944" d="M53 539q0 270 105 414.5t315 144.5t315 -145t105 -416t-104.5 -415.5t-315.5 -144.5q-210 0 -315 145t-105 417zM207 1468h176q0 -40 23.5 -62t64.5 -22q43 0 67.5 22t24.5 62h174q0 -123 -70 -192.5t-196 -69.5q-124 0 -194 69.5t-70 192.5zM354 539q0 -152 26.5 -227.5 t92.5 -75.5q65 0 91 75t26 226t-26.5 227t-90.5 76q-66 0 -92.5 -75t-26.5 -226z" />
<glyph unicode="&#x150;" horiz-adv-x="1163" d="M63 717q0 739 519 739q115 0 204.5 -37.5t148 -103t96 -160t53.5 -202t16 -236.5q0 -740 -518 -740q-519 0 -519 740zM326 1516l116 286h246l-188 -286h-174zM383 717q0 -103 8.5 -178t30 -137.5t61.5 -94t99 -31.5q58 0 97.5 31.5t60.5 94t29.5 137.5t8.5 178t-8.5 178 t-29.5 137t-60.5 93.5t-97.5 31.5q-59 0 -99 -31.5t-61.5 -93.5t-30 -137t-8.5 -178zM618 1516l117 286h246l-188 -286h-175z" />
<glyph unicode="&#x151;" horiz-adv-x="944" d="M53 539q0 270 105 414.5t315 144.5t315 -145t105 -416t-104.5 -415.5t-315.5 -144.5q-210 0 -315 145t-105 417zM217 1206l117 287h246l-189 -287h-174zM354 539q0 -152 26.5 -227.5t92.5 -75.5q65 0 91 75t26 226t-26.5 227t-90.5 76q-66 0 -92.5 -75t-26.5 -226z M510 1206l117 287h245l-188 -287h-174z" />
<glyph unicode="&#x152;" horiz-adv-x="1628" d="M63 717q0 739 519 739q111 0 198 -35v13h770v-295h-456v-277h368v-289h-368v-278h462v-295h-776v12q-87 -35 -198 -35q-519 0 -519 740zM383 717q0 -103 8.5 -178t30 -137.5t61.5 -94t99 -31.5q58 0 97.5 31.5t60.5 94t29.5 137.5t8.5 178t-8.5 178t-29.5 137t-60.5 93.5 t-97.5 31.5q-59 0 -99 -31.5t-61.5 -93.5t-30 -137t-8.5 -178z" />
<glyph unicode="&#x153;" horiz-adv-x="1427" d="M53 539q0 270 105 414.5t315 144.5q163 0 266 -92q98 92 250 92q185 0 283 -131t98 -344q0 -41 -3.5 -80t-6.5 -57l-4 -19h-463q5 -120 33 -181t88 -61q27 0 66.5 16.5t71.5 35.5t105 65l117 -199q-233 -166 -403 -166q-138 0 -232 91q-105 -91 -266 -91q-210 0 -315 145 t-105 417zM354 539q0 -152 26.5 -227.5t92.5 -75.5q65 0 91 75t26 226t-26.5 227t-90.5 76q-66 0 -92.5 -75t-26.5 -226zM895 643h203q-2 111 -24 164t-75 53t-76 -53t-28 -164z" />
<glyph unicode="&#x154;" horiz-adv-x="1093" d="M111 0v1434h407q271 0 392.5 -112t121.5 -337q0 -318 -244 -407l244 -578h-330l-221 539h-57v-539h-313zM391 1516l178 286h314l-248 -286h-244zM424 811h104q90 0 139.5 38.5t49.5 135.5q0 98 -49.5 137t-139.5 39h-104v-350z" />
<glyph unicode="&#x155;" horiz-adv-x="692" d="M90 0v1075h301v-223q9 26 18.5 50.5t33.5 63t51.5 65t72 44t95.5 12.5v-315q-50 0 -92 -19t-69.5 -49.5t-48.5 -67.5t-32 -74t-18 -67.5t-9 -49.5l-2 -19v-426h-301zM197 1206l178 287h313l-248 -287h-243z" />
<glyph unicode="&#x156;" horiz-adv-x="1093" d="M111 0v1434h407q271 0 392.5 -112t121.5 -337q0 -318 -244 -407l244 -578h-330l-221 539h-57v-539h-313zM424 811h104q90 0 139.5 38.5t49.5 135.5q0 98 -49.5 137t-139.5 39h-104v-350zM444 -543l91 168h-89v262h201l10 -290l-159 -218z" />
<glyph unicode="&#x157;" horiz-adv-x="692" d="M90 0v1075h301v-223q9 26 18.5 50.5t33.5 63t51.5 65t72 44t95.5 12.5v-315q-50 0 -92 -19t-69.5 -49.5t-48.5 -67.5t-32 -74t-18 -67.5t-9 -49.5l-2 -19v-426h-301zM143 -543l90 168h-88v262h201l10 -290l-159 -218z" />
<glyph unicode="&#x158;" horiz-adv-x="1093" d="M111 0v1434h407q271 0 392.5 -112t121.5 -337q0 -318 -244 -407l244 -578h-330l-221 539h-57v-539h-313zM279 1802h200l92 -145l93 145h200l-159 -286h-267zM424 811h104q90 0 139.5 38.5t49.5 135.5q0 98 -49.5 137t-139.5 39h-104v-350z" />
<glyph unicode="&#x159;" horiz-adv-x="692" d="M82 1493h201l92 -145l92 145h201l-160 -287h-266zM90 0v1075h301v-223q9 26 18.5 50.5t33.5 63t51.5 65t72 44t95.5 12.5v-315q-50 0 -92 -19t-69.5 -49.5t-48.5 -67.5t-32 -74t-18 -67.5t-9 -49.5l-2 -19v-426h-301z" />
<glyph unicode="&#x15a;" horiz-adv-x="995" d="M45 170l145 242q214 -144 320 -144q44 0 73 26t29 75q0 29 -13 55.5t-44.5 55.5t-58 50t-80.5 59.5t-86 63.5q-58 43 -99.5 81t-82 89.5t-61.5 113t-21 132.5q0 167 106.5 277t298.5 110q219 0 447 -147l-148 -246q-183 102 -268 102q-46 0 -76.5 -24.5t-30.5 -71.5 q0 -28 14 -54.5t46.5 -55.5t59 -49t79 -57t78.5 -56q45 -33 77.5 -60t71.5 -69t64 -83.5t42 -97.5t17 -116q0 -78 -25.5 -147.5t-74 -125t-127 -88.5t-176.5 -33q-136 0 -267 57t-229 136zM315 1516l179 286h313l-248 -286h-244z" />
<glyph unicode="&#x15b;" horiz-adv-x="841" d="M41 119l123 229q62 -42 142.5 -76t127.5 -34q64 0 64 53q0 17 -9 33t-19.5 26.5t-35.5 24.5t-38.5 20.5t-47.5 22.5q-50 23 -85.5 43t-77.5 52.5t-68 67.5t-44 85t-18 108q0 138 87.5 231t244.5 93q99 0 202.5 -36t178.5 -83l-123 -217q-145 76 -221 76q-30 0 -49 -14 t-19 -40q0 -13 4 -24t14 -21t18.5 -17t26 -16t27.5 -14t31.5 -14.5t30.5 -13.5q47 -21 83.5 -41.5t78 -53.5t69 -69.5t46 -88.5t18.5 -112q0 -139 -90 -230.5t-252 -91.5q-112 0 -229.5 43t-190.5 99zM242 1206l178 287h313l-248 -287h-243z" />
<glyph unicode="&#x15c;" horiz-adv-x="995" d="M45 170l145 242q214 -144 320 -144q44 0 73 26t29 75q0 29 -13 55.5t-44.5 55.5t-58 50t-80.5 59.5t-86 63.5q-58 43 -99.5 81t-82 89.5t-61.5 113t-21 132.5q0 167 106.5 277t298.5 110q219 0 447 -147l-148 -246q-183 102 -268 102q-46 0 -76.5 -24.5t-30.5 -71.5 q0 -28 14 -54.5t46.5 -55.5t59 -49t79 -57t78.5 -56q45 -33 77.5 -60t71.5 -69t64 -83.5t42 -97.5t17 -116q0 -78 -25.5 -147.5t-74 -125t-127 -88.5t-176.5 -33q-136 0 -267 57t-229 136zM201 1516l159 286h267l159 -286h-200l-92 143l-93 -143h-200z" />
<glyph unicode="&#x15d;" horiz-adv-x="841" d="M41 119l123 229q62 -42 142.5 -76t127.5 -34q64 0 64 53q0 17 -9 33t-19.5 26.5t-35.5 24.5t-38.5 20.5t-47.5 22.5q-50 23 -85.5 43t-77.5 52.5t-68 67.5t-44 85t-18 108q0 138 87.5 231t244.5 93q99 0 202.5 -36t178.5 -83l-123 -217q-145 76 -221 76q-30 0 -49 -14 t-19 -40q0 -13 4 -24t14 -21t18.5 -17t26 -16t27.5 -14t31.5 -14.5t30.5 -13.5q47 -21 83.5 -41.5t78 -53.5t69 -69.5t46 -88.5t18.5 -112q0 -139 -90 -230.5t-252 -91.5q-112 0 -229.5 43t-190.5 99zM129 1206l160 287h266l160 -287h-201l-92 144l-92 -144h-201z" />
<glyph unicode="&#x15e;" horiz-adv-x="995" d="M47 170l146 242q214 -144 319 -144q44 0 73 26t29 75q0 29 -13 55.5t-44.5 55.5t-58 50t-80.5 59.5t-86 63.5q-58 43 -99.5 81t-82 89.5t-61.5 113t-21 132.5q0 167 106.5 277t298.5 110q219 0 447 -147l-148 -246q-183 102 -268 102q-46 0 -76.5 -24.5t-30.5 -71.5 q0 -28 14 -54.5t46.5 -55.5t59 -49t79 -57t78.5 -56q45 -33 77.5 -60t71.5 -69t64 -83.5t42 -97.5t17 -116q0 -95 -36 -176.5t-113.5 -140t-184.5 -72.5q43 -83 43 -170q0 -97 -51.5 -146t-126.5 -49q-81 0 -139 47l55 162q36 -25 62 -25q55 0 55 72q0 41 -25 109 q-123 11 -237.5 64t-200.5 124z" />
<glyph unicode="&#x15f;" horiz-adv-x="841" d="M41 119l123 229q62 -42 142.5 -76t127.5 -34q64 0 64 53q0 17 -9 33t-19.5 26.5t-35.5 24.5t-38.5 20.5t-47.5 22.5q-50 23 -85.5 43t-77.5 52.5t-68 67.5t-44 85t-18 108q0 138 87.5 231t244.5 93q99 0 202.5 -36t178.5 -83l-123 -217q-145 76 -221 76q-30 0 -49 -14 t-19 -40q0 -13 4 -24t14 -21t18.5 -17t26 -16t27.5 -14t31.5 -14.5t30.5 -13.5q47 -21 83.5 -41.5t78 -53.5t69 -69.5t46 -88.5t18.5 -112q0 -119 -66.5 -205t-189.5 -108q45 -87 45 -174q0 -97 -51.5 -146t-126.5 -49q-82 0 -140 47l56 162q36 -25 61 -25q55 0 55 72 q0 42 -24 107q-105 7 -211 47.5t-170 91.5z" />
<glyph unicode="&#x160;" horiz-adv-x="995" d="M45 170l145 242q214 -144 320 -144q44 0 73 26t29 75q0 29 -13 55.5t-44.5 55.5t-58 50t-80.5 59.5t-86 63.5q-58 43 -99.5 81t-82 89.5t-61.5 113t-21 132.5q0 167 106.5 277t298.5 110q219 0 447 -147l-148 -246q-183 102 -268 102q-46 0 -76.5 -24.5t-30.5 -71.5 q0 -28 14 -54.5t46.5 -55.5t59 -49t79 -57t78.5 -56q45 -33 77.5 -60t71.5 -69t64 -83.5t42 -97.5t17 -116q0 -78 -25.5 -147.5t-74 -125t-127 -88.5t-176.5 -33q-136 0 -267 57t-229 136zM203 1802h200l93 -145l92 145h200l-159 -286h-267z" />
<glyph unicode="&#x161;" horiz-adv-x="841" d="M41 119l123 229q62 -42 142.5 -76t127.5 -34q64 0 64 53q0 17 -9 33t-19.5 26.5t-35.5 24.5t-38.5 20.5t-47.5 22.5q-50 23 -85.5 43t-77.5 52.5t-68 67.5t-44 85t-18 108q0 138 87.5 231t244.5 93q99 0 202.5 -36t178.5 -83l-123 -217q-145 76 -221 76q-30 0 -49 -14 t-19 -40q0 -13 4 -24t14 -21t18.5 -17t26 -16t27.5 -14t31.5 -14.5t30.5 -13.5q47 -21 83.5 -41.5t78 -53.5t69 -69.5t46 -88.5t18.5 -112q0 -139 -90 -230.5t-252 -91.5q-112 0 -229.5 43t-190.5 99zM127 1493h201l92 -145l92 145h201l-160 -287h-266z" />
<glyph unicode="&#x162;" horiz-adv-x="915" d="M35 1139v295h848v-295h-267v-1139h-92q54 -94 54 -188q0 -97 -51.5 -146t-127.5 -49q-81 0 -139 47l55 162q36 -25 62 -25q55 0 55 72q0 50 -33 127h-94v1139h-270z" />
<glyph unicode="&#x163;" horiz-adv-x="694" d="M43 829v246h100v240l299 71v-311h197v-246h-197v-460q0 -99 47 -99q27 0 99 39l100 -241q-129 -71 -225 -86q43 -83 43 -170q0 -97 -51.5 -146t-126.5 -49q-82 0 -140 47l56 162q36 -25 61 -25q55 0 55 72q0 48 -26 113q-100 20 -145.5 106.5t-45.5 247.5v489h-100z" />
<glyph unicode="&#x164;" horiz-adv-x="915" d="M35 1139v295h848v-295h-267v-1139h-311v1139h-270zM166 1802h201l92 -145l92 145h201l-160 -286h-266z" />
<glyph unicode="&#x165;" horiz-adv-x="694" d="M43 829v246h100v240l299 71v-311h197v-246h-197v-460q0 -99 47 -99q27 0 99 39l100 -241q-164 -91 -282 -91q-138 0 -200.5 89t-62.5 274v489h-100zM496 1223l90 168h-88v262h200l11 -291l-160 -217z" />
<glyph unicode="&#x166;" horiz-adv-x="927" d="M41 1139v295h848v-295h-266v-521h112v-192h-112v-426h-312v426h-112v192h112v521h-270z" />
<glyph unicode="&#x167;" horiz-adv-x="692" d="M41 829v246h100v240l299 71v-311h197v-246h-197v-131h154v-194h-154v-135q0 -99 47 -99q27 0 99 39l100 -241q-164 -91 -283 -91q-138 0 -200 88.5t-62 274.5v164h-69v194h69v131h-100z" />
<glyph unicode="&#x168;" horiz-adv-x="1112" d="M102 500v934h312v-965q0 -92 29.5 -142.5t111.5 -50.5q83 0 113 50.5t30 142.5v965h314v-934q0 -94 -10.5 -166.5t-40.5 -142t-79.5 -114.5t-132 -72.5t-194.5 -27.5q-111 0 -192.5 27.5t-131 72.5t-79 114.5t-40 142t-10.5 166.5zM252 1595q46 122 75 163q47 64 111 65 q35 0 79 -24.5t80.5 -49.5t55.5 -25q37 0 74 95l123 -72q-17 -47 -25.5 -68t-27 -58.5t-34.5 -54.5t-41 -31.5t-54 -14.5q-36 0 -80 24.5t-81 49t-56 24.5q-37 0 -74 -94z" />
<glyph unicode="&#x169;" d="M86 287v788h301v-725q0 -112 59 -112q40 0 77.5 40t60.5 82v715h301v-1075h-301v121q-71 -69 -134 -106.5t-145 -37.5q-105 0 -162 81.5t-57 228.5zM199 1286q12 32 16.5 43t16 39.5t18.5 40t19.5 33t23.5 30.5t25.5 20.5t31 16t35.5 4.5q35 0 79 -24.5t80.5 -49 t55.5 -24.5q37 0 74 94l123 -71q-17 -46 -25.5 -68t-27 -59t-35 -54.5t-41.5 -32t-54 -14.5q-36 0 -80 25t-81 49.5t-56 24.5q-36 0 -73 -95z" />
<glyph unicode="&#x16a;" horiz-adv-x="1112" d="M102 500v934h312v-965q0 -92 29.5 -142.5t111.5 -50.5q83 0 113 50.5t30 142.5v965h314v-934q0 -94 -10.5 -166.5t-40.5 -142t-79.5 -114.5t-132 -72.5t-194.5 -27.5q-111 0 -192.5 27.5t-131 72.5t-79 114.5t-40 142t-10.5 166.5zM328 1567v192h454v-192h-454z" />
<glyph unicode="&#x16b;" d="M86 287v788h301v-725q0 -112 59 -112q40 0 77.5 40t60.5 82v715h301v-1075h-301v121q-71 -69 -134 -106.5t-145 -37.5q-105 0 -162 81.5t-57 228.5zM256 1257v193h455v-193h-455z" />
<glyph unicode="&#x16c;" horiz-adv-x="1112" d="M102 500v934h312v-965q0 -92 29.5 -142.5t111.5 -50.5q83 0 113 50.5t30 142.5v965h314v-934q0 -94 -10.5 -166.5t-40.5 -142t-79.5 -114.5t-132 -72.5t-194.5 -27.5q-111 0 -192.5 27.5t-131 72.5t-79 114.5t-40 142t-10.5 166.5zM291 1778h176q0 -40 23.5 -62t64.5 -22 q43 0 67.5 22t24.5 62h174q0 -123 -70 -192.5t-196 -69.5q-124 0 -194 69.5t-70 192.5z" />
<glyph unicode="&#x16d;" d="M86 287v788h301v-725q0 -112 59 -112q40 0 77.5 40t60.5 82v715h301v-1075h-301v121q-71 -69 -134 -106.5t-145 -37.5q-105 0 -162 81.5t-57 228.5zM219 1468h176q0 -40 23.5 -62t64.5 -22q43 0 67.5 22t24.5 62h175q0 -123 -70.5 -192.5t-196.5 -69.5q-124 0 -194 69.5 t-70 192.5z" />
<glyph unicode="&#x16e;" horiz-adv-x="1112" d="M102 500v934h312v-965q0 -92 29.5 -142.5t111.5 -50.5q83 0 113 50.5t30 142.5v965h314v-934q0 -94 -10.5 -166.5t-40.5 -142t-79.5 -114.5t-132 -72.5t-194.5 -27.5q-111 0 -192.5 27.5t-131 72.5t-79 114.5t-40 142t-10.5 166.5zM350 1702q0 85 60.5 146t146.5 61 t147.5 -61t61.5 -146q0 -87 -61 -147t-148 -60t-147 60t-60 147zM489 1702q0 -29 19.5 -48.5t48.5 -19.5t49.5 19.5t20.5 48.5q0 28 -20.5 47.5t-49.5 19.5t-48.5 -19.5t-19.5 -47.5z" />
<glyph unicode="&#x16f;" d="M86 287v788h301v-725q0 -112 59 -112q40 0 77.5 40t60.5 82v715h301v-1075h-301v121q-71 -69 -134 -106.5t-145 -37.5q-105 0 -162 81.5t-57 228.5zM279 1393q0 85 60 145.5t146 60.5t147.5 -60.5t61.5 -145.5q0 -87 -61 -147t-148 -60t-146.5 60t-59.5 147zM418 1393 q0 -29 19 -48.5t48 -19.5t49.5 19.5t20.5 48.5q0 28 -20.5 47.5t-49.5 19.5t-48 -19.5t-19 -47.5z" />
<glyph unicode="&#x170;" horiz-adv-x="1112" d="M102 500v934h312v-965q0 -92 29.5 -142.5t111.5 -50.5q83 0 113 50.5t30 142.5v965h314v-934q0 -94 -10.5 -166.5t-40.5 -142t-79.5 -114.5t-132 -72.5t-194.5 -27.5q-111 0 -192.5 27.5t-131 72.5t-79 114.5t-40 142t-10.5 166.5zM301 1516l117 286h246l-189 -286h-174z M594 1516l117 286h245l-188 -286h-174z" />
<glyph unicode="&#x171;" d="M86 287v788h301v-725q0 -112 59 -112q40 0 77.5 40t60.5 82v715h301v-1075h-301v121q-71 -69 -134 -106.5t-145 -37.5q-105 0 -162 81.5t-57 228.5zM227 1206l117 287h246l-189 -287h-174zM520 1206l117 287h246l-189 -287h-174z" />
<glyph unicode="&#x172;" horiz-adv-x="1112" d="M102 500v934h312v-965q0 -92 29.5 -142.5t111.5 -50.5q83 0 113 50.5t30 142.5v965h314v-934q0 -99 -12.5 -175t-44 -145.5t-92 -116t-148.5 -67.5q-119 -105 -119 -186q0 -17 4 -29.5t12.5 -20t16.5 -12t19.5 -5.5t18.5 -1.5t17.5 0t11.5 0.5l-24 -148q-84 0 -125 11 q-131 36 -131 172q0 111 106 200q-102 4 -178 33.5t-121.5 75t-73 113.5t-37.5 139t-10 162z" />
<glyph unicode="&#x173;" d="M86 287v788h301v-725q0 -112 59 -112q40 0 77.5 40t60.5 82v715h301v-1075h-6q-125 -106 -125 -190q0 -17 4 -29.5t12.5 -20t16.5 -12t19.5 -5.5t18.5 -1.5t17.5 0t11.5 0.5l-25 -148q-84 0 -125 11q-131 36 -131 172q0 131 136 223h-125v121q-71 -69 -134 -106.5 t-145 -37.5q-105 0 -162 81.5t-57 228.5z" />
<glyph unicode="&#x174;" horiz-adv-x="1476" d="M29 1434h350l108 -834l136 834h229l135 -838l109 838h352l-277 -1434h-292l-142 860l-141 -860h-293zM444 1516l160 286h266l160 -286h-201l-92 143l-92 -143h-201z" />
<glyph unicode="&#x175;" horiz-adv-x="1282" d="M29 1075h317l78 -602l115 602h204l113 -610l80 610h317l-225 -1075h-268l-119 610l-119 -610h-268zM348 1206l160 287h266l160 -287h-201l-92 144l-92 -144h-201z" />
<glyph unicode="&#x177;" horiz-adv-x="913" d="M18 1075h316l121 -696l123 696h315l-397 -1493h-320l139 375zM162 1206l160 287h266l160 -287h-201l-92 144l-93 -144h-200z" />
<glyph unicode="&#x178;" horiz-adv-x="1026" d="M8 1434h344l160 -504l162 504h344l-348 -865v-569h-314v569zM264 1536v250h215v-250h-215zM549 1536v250h215v-250h-215z" />
<glyph unicode="&#x179;" horiz-adv-x="976" d="M53 0v260l475 879h-444v295h819v-258l-473 -881h481v-295h-858zM313 1516l179 286h313l-248 -286h-244z" />
<glyph unicode="&#x17a;" horiz-adv-x="886" d="M55 0v229l400 570h-385v276h757v-229l-401 -570h401v-276h-772zM260 1206l178 287h314l-248 -287h-244z" />
<glyph unicode="&#x17b;" horiz-adv-x="976" d="M53 0v260l475 879h-444v295h819v-258l-473 -881h481v-295h-858zM387 1536v250h215v-250h-215z" />
<glyph unicode="&#x17c;" horiz-adv-x="886" d="M55 0v229l400 570h-385v276h757v-229l-401 -570h401v-276h-772zM332 1227v250h215v-250h-215z" />
<glyph unicode="&#x17d;" horiz-adv-x="976" d="M53 0v260l475 879h-444v295h819v-258l-473 -881h481v-295h-858zM201 1802h200l93 -145l92 145h200l-159 -286h-267z" />
<glyph unicode="&#x17e;" horiz-adv-x="886" d="M55 0v229l400 570h-385v276h757v-229l-401 -570h401v-276h-772zM147 1493h201l92 -145l92 145h201l-160 -287h-266z" />
<glyph unicode="&#x17f;" horiz-adv-x="569" d="M41 829v246h98v25q0 201 60 297t192 96q131 0 301 -90l-102 -232q-82 33 -105 33q-45 0 -45 -82v-1122h-301v829h-98z" />
<glyph unicode="&#x192;" horiz-adv-x="919" d="M47 -418l195 1247h-103l45 246h97l6 35q15 101 35.5 167.5t56 117.5t91 74.5t134.5 23.5q125 0 295 -90l-137 -244q-83 43 -123 43q-26 0 -39.5 -26t-19.5 -80l-5 -21h207l-47 -246h-196l-191 -1247h-301z" />
<glyph unicode="&#x1fc;" horiz-adv-x="1632" d="M-35 0l658 1434h933v-295h-456v-277h368v-289h-368v-278h463v-295h-777v262h-335l-111 -262h-375zM571 545h215v504zM690 1516l178 286h314l-248 -286h-244z" />
<glyph unicode="&#x1fd;" horiz-adv-x="1374" d="M45 330q0 165 77.5 256.5t209.5 91.5q75 0 207 -49q3 48 12 88q-3 69 -27.5 98t-79.5 29q-44 0 -95 -16t-159 -58l-96 227q237 101 422 101q139 0 215 -58q86 58 205 58q185 0 283 -131t98 -344q0 -41 -3.5 -80t-7.5 -57l-3 -19h-463q5 -120 33 -181t88 -61 q27 0 66.5 16.5t71.5 35.5t105 65l117 -199q-233 -166 -403 -166q-102 0 -185 53t-133 158q-70 -106 -140.5 -158.5t-152.5 -52.5q-121 0 -191.5 97t-70.5 256zM348 360q0 -62 22 -93t58 -31q37 0 70 29t55 73q-12 76 -14 129q-6 3 -22 10t-26 11t-24 8t-25 4 q-44 0 -69 -37.5t-25 -102.5zM504 1206l178 287h313l-247 -287h-244zM842 643h202q-2 112 -23.5 164.5t-74.5 52.5t-76 -53t-28 -164z" />
<glyph unicode="&#x1fe;" horiz-adv-x="1161" d="M63 717q0 739 519 739q156 0 268 -70l27 48h206l-102 -183q119 -187 119 -534q0 -740 -518 -740q-160 0 -269 70l-26 -47h-207l100 180q-117 181 -117 537zM383 717q0 -111 6 -160l305 551q-46 49 -112 49q-59 0 -99 -31.5t-61.5 -93.5t-30 -137t-8.5 -178zM401 1516 l179 286h313l-248 -286h-244zM467 324q45 -48 115 -48q58 0 97.5 31.5t60.5 94t29.5 137.5t8.5 178q0 85 -6 155z" />
<glyph unicode="&#x1ff;" horiz-adv-x="944" d="M53 539q0 270 105 414.5t315 144.5q124 0 215 -54l19 31h159l-75 -127q102 -140 102 -411t-104.5 -415.5t-315.5 -144.5q-129 0 -221 58l-21 -35h-165l81 137q-94 140 -94 402zM276 1206l179 287h313l-248 -287h-244zM354 485l189 318q-24 37 -70 37q-66 0 -92.5 -75 t-26.5 -226v-54zM395 279q27 -43 78 -43q65 0 91 75t26 226q0 47 -2 67z" />
<glyph unicode="&#x218;" horiz-adv-x="995" d="M45 170l145 242q214 -144 320 -144q44 0 73 26t29 75q0 29 -13 55.5t-44.5 55.5t-58 50t-80.5 59.5t-86 63.5q-58 43 -99.5 81t-82 89.5t-61.5 113t-21 132.5q0 167 106.5 277t298.5 110q219 0 447 -147l-148 -246q-183 102 -268 102q-46 0 -76.5 -24.5t-30.5 -71.5 q0 -28 14 -54.5t46.5 -55.5t59 -49t79 -57t78.5 -56q45 -33 77.5 -60t71.5 -69t64 -83.5t42 -97.5t17 -116q0 -78 -25.5 -147.5t-74 -125t-127 -88.5t-176.5 -33q-136 0 -267 57t-229 136zM406 -543l90 168h-88v262h200l10 -290l-159 -218z" />
<glyph unicode="&#x219;" horiz-adv-x="841" d="M41 119l123 229q62 -42 142.5 -76t127.5 -34q64 0 64 53q0 17 -9 33t-19.5 26.5t-35.5 24.5t-38.5 20.5t-47.5 22.5q-50 23 -85.5 43t-77.5 52.5t-68 67.5t-44 85t-18 108q0 138 87.5 231t244.5 93q99 0 202.5 -36t178.5 -83l-123 -217q-145 76 -221 76q-30 0 -49 -14 t-19 -40q0 -13 4 -24t14 -21t18.5 -17t26 -16t27.5 -14t31.5 -14.5t30.5 -13.5q47 -21 83.5 -41.5t78 -53.5t69 -69.5t46 -88.5t18.5 -112q0 -139 -90 -230.5t-252 -91.5q-112 0 -229.5 43t-190.5 99zM311 -543l90 168h-88v262h201l10 -290l-159 -218z" />
<glyph unicode="&#x21a;" horiz-adv-x="915" d="M35 1139v295h848v-295h-267v-1139h-311v1139h-270zM360 -543l91 168h-89v262h201l10 -290l-159 -218z" />
<glyph unicode="&#x21b;" horiz-adv-x="694" d="M43 829v246h100v240l299 71v-311h197v-246h-197v-460q0 -99 47 -99q27 0 99 39l100 -241q-164 -91 -282 -91q-138 0 -200.5 89t-62.5 274v489h-100zM211 -543l90 168h-88v262h201l10 -290l-160 -218z" />
<glyph unicode="&#x2b0;" horiz-adv-x="663" d="M80 788v895h201v-319q35 30 53.5 43.5t50.5 27t66 13.5q67 0 103 -50t36 -143v-467h-201v424q0 62 -33 62q-37 0 -75 -64v-422h-201z" />
<glyph unicode="&#x2b2;" horiz-adv-x="356" d="M-23 662q72 35 86.5 59t14.5 92v621h201v-603q0 -85 -3.5 -120.5t-26.5 -79.5t-71.5 -70.5t-138.5 -58.5zM76 1503v178h207v-178h-207z" />
<glyph unicode="&#x2b7;" horiz-adv-x="823" d="M23 1434h213l43 -336l63 336h137l66 -342l43 342h211l-140 -646h-178l-69 345l-70 -345h-180z" />
<glyph unicode="&#x2b8;" horiz-adv-x="581" d="M12 1434h211l68 -398l69 398h211l-247 -895h-213l86 223z" />
<glyph unicode="&#x2c6;" horiz-adv-x="438" d="M-74 1206l160 287h266l160 -287h-201l-92 144l-92 -144h-201z" />
<glyph unicode="&#x2c7;" horiz-adv-x="438" d="M-74 1493h201l92 -145l92 145h201l-160 -287h-266z" />
<glyph unicode="&#x2d8;" horiz-adv-x="411" d="M-59 1468h176q0 -40 23.5 -62t64.5 -22q43 0 67.5 22t24.5 62h174q0 -123 -70 -192.5t-196 -69.5q-124 0 -194 69.5t-70 192.5z" />
<glyph unicode="&#x2d9;" horiz-adv-x="157" d="M-29 1227v250h215v-250h-215z" />
<glyph unicode="&#x2da;" horiz-adv-x="378" d="M-18 1393q0 85 60 145.5t146 60.5t147.5 -60.5t61.5 -145.5q0 -87 -61 -147t-148 -60q-86 0 -146 60t-60 147zM121 1393q0 -29 19 -48.5t48 -19.5t49.5 19.5t20.5 48.5q0 28 -20.5 47.5t-49.5 19.5t-48 -19.5t-19 -47.5z" />
<glyph unicode="&#x2db;" horiz-adv-x="249" d="M-59 -223q0 141 170 246l139 -21q-129 -110 -129 -192q0 -17 4 -29.5t12.5 -20t16.5 -12t19.5 -5.5t18.5 -1.5t17.5 0t11.5 0.5l-24 -148q-84 0 -125 11q-131 36 -131 172z" />
<glyph unicode="&#x2dc;" horiz-adv-x="440" d="M-80 1286q12 32 16.5 43t16 39.5t18.5 40t19.5 33t23.5 30.5t25.5 20.5t31 16t35.5 4.5q35 0 79 -24.5t81 -49t56 -24.5q36 0 73 94l123 -71q-12 -31 -16 -42t-15.5 -39.5t-18 -40t-19 -33t-23 -31t-25 -21.5t-31 -16.5t-34.5 -4.5q-36 0 -80 25t-81 49.5t-56 24.5 q-37 0 -74 -95z" />
<glyph unicode="&#x2dd;" horiz-adv-x="520" d="M-68 1206l117 287h246l-189 -287h-174zM225 1206l117 287h246l-189 -287h-174z" />
<glyph unicode="&#x2e3;" horiz-adv-x="622" d="M14 788l176 324l-167 322h223l63 -144l66 144h223l-168 -324l178 -322h-229l-68 154l-67 -154h-230z" />
<glyph unicode="&#x3c0;" horiz-adv-x="892" d="M41 788v287h811v-287h-107v-788h-247v788h-103v-788h-248v788h-106z" />
<glyph unicode="&#x1e80;" horiz-adv-x="1476" d="M29 1434h350l108 -834l136 834h229l135 -838l109 838h352l-277 -1434h-292l-142 860l-141 -860h-293zM426 1802h313l179 -286h-242z" />
<glyph unicode="&#x1e81;" horiz-adv-x="1282" d="M29 1075h317l78 -602l115 602h204l113 -610l80 610h317l-225 -1075h-268l-119 610l-119 -610h-268zM330 1493h313l178 -287h-241z" />
<glyph unicode="&#x1e82;" horiz-adv-x="1476" d="M29 1434h350l108 -834l136 834h229l135 -838l109 838h352l-277 -1434h-292l-142 860l-141 -860h-293zM557 1516l178 286h314l-248 -286h-244z" />
<glyph unicode="&#x1e83;" horiz-adv-x="1282" d="M29 1075h317l78 -602l115 602h204l113 -610l80 610h317l-225 -1075h-268l-119 610l-119 -610h-268zM463 1206l178 287h313l-247 -287h-244z" />
<glyph unicode="&#x1e84;" horiz-adv-x="1476" d="M29 1434h350l108 -834l136 834h229l135 -838l109 838h352l-277 -1434h-292l-142 860l-141 -860h-293zM487 1536v250h215v-250h-215zM772 1536v250h215v-250h-215z" />
<glyph unicode="&#x1e85;" horiz-adv-x="1282" d="M29 1075h317l78 -602l115 602h204l113 -610l80 610h317l-225 -1075h-268l-119 610l-119 -610h-268zM393 1227v250h215v-250h-215zM678 1227v250h215v-250h-215z" />
<glyph unicode="&#x1e9e;" horiz-adv-x="1273" d="M111 0v905q0 97 12 173.5t44 145t83 113.5t132.5 71t190.5 26h537v-230l-215 -336q152 -51 240 -166.5t88 -283.5q0 -88 -25 -166t-73.5 -140t-127.5 -98.5t-178 -36.5q-164 0 -336 99l121 248q86 -58 162 -58q60 0 97.5 46t37.5 124q0 191 -256 191h-76v217l193 295 h-164q-92 0 -133 -66.5t-41 -238.5v-834h-313z" />
<glyph unicode="&#x1ef2;" horiz-adv-x="1026" d="M8 1434h344l160 -504l162 504h344l-348 -865v-569h-314v569zM201 1802h313l178 -286h-241z" />
<glyph unicode="&#x1ef3;" horiz-adv-x="913" d="M18 1075h316l121 -696l123 696h315l-397 -1493h-320l139 375zM143 1493h314l178 -287h-242z" />
<glyph unicode="&#x2000;" horiz-adv-x="954" />
<glyph unicode="&#x2001;" horiz-adv-x="1909" />
<glyph unicode="&#x2002;" horiz-adv-x="954" />
<glyph unicode="&#x2003;" horiz-adv-x="1909" />
<glyph unicode="&#x2004;" horiz-adv-x="636" />
<glyph unicode="&#x2005;" horiz-adv-x="477" />
<glyph unicode="&#x2006;" horiz-adv-x="318" />
<glyph unicode="&#x2007;" horiz-adv-x="318" />
<glyph unicode="&#x2008;" horiz-adv-x="238" />
<glyph unicode="&#x2009;" horiz-adv-x="381" />
<glyph unicode="&#x200a;" horiz-adv-x="106" />
<glyph unicode="&#x2010;" horiz-adv-x="677" d="M90 449v268h498v-268h-498z" />
<glyph unicode="&#x2011;" horiz-adv-x="677" d="M90 449v268h498v-268h-498z" />
<glyph unicode="&#x2012;" horiz-adv-x="677" d="M90 449v268h498v-268h-498z" />
<glyph unicode="&#x2013;" horiz-adv-x="854" d="M88 451v264h676v-264h-676z" />
<glyph unicode="&#x2014;" horiz-adv-x="1007" d="M88 451v264h832v-264h-832z" />
<glyph unicode="&#x2018;" horiz-adv-x="466" d="M72 1176l235 297l76 -109l-131 -234h129v-366h-293z" />
<glyph unicode="&#x2019;" horiz-adv-x="450" d="M80 831l131 234h-129v367h293l16 -412l-235 -297z" />
<glyph unicode="&#x201a;" horiz-adv-x="479" d="M88 -233l131 233h-129v367h293l16 -412l-235 -297z" />
<glyph unicode="&#x201c;" horiz-adv-x="847" d="M72 1176l235 297l76 -109l-131 -234h129v-366h-293zM453 1176l235 297l76 -109l-131 -234h129v-366h-293z" />
<glyph unicode="&#x201d;" horiz-adv-x="831" d="M80 831l131 234h-129v367h293l16 -412l-235 -297zM461 831l131 234h-129v367h293l16 -412l-235 -297z" />
<glyph unicode="&#x201e;" horiz-adv-x="860" d="M88 -233l131 233h-129v367h293l16 -412l-235 -297zM467 -233l131 233h-129v367h293l16 -412l-235 -297z" />
<glyph unicode="&#x2020;" horiz-adv-x="909" d="M43 748v268l301 -31v449h221v-447l301 29v-268l-301 30v-1196h-221v1196z" />
<glyph unicode="&#x2021;" horiz-adv-x="950" d="M63 211v268l302 -30v329l-302 -30v268l302 -31v449h221v-447l301 29v-268l-301 30v-327l301 28v-268l-301 31v-660h-221v660z" />
<glyph unicode="&#x2022;" horiz-adv-x="870" d="M121 584q0 131 91 224t222 93q130 0 223 -93t93 -224q0 -130 -92.5 -222t-223.5 -92q-132 0 -222.5 91.5t-90.5 222.5z" />
<glyph unicode="&#x2026;" horiz-adv-x="1284" d="M90 0v367h293v-367h-293zM496 0v367h292v-367h-292zM899 0v367h293v-367h-293z" />
<glyph unicode="&#x202f;" horiz-adv-x="381" />
<glyph unicode="&#x2030;" horiz-adv-x="2123" d="M51 1073q0 179 71.5 281t221.5 102q149 0 220 -102t71 -281t-71 -282t-220 -103q-150 0 -221.5 102.5t-71.5 282.5zM264 1073q0 -91 17.5 -136.5t62.5 -45.5q43 0 60.5 45.5t17.5 136.5q0 90 -17 135t-61 45q-45 0 -62.5 -44.5t-17.5 -135.5zM379 0l500 1434h225 l-500 -1434h-225zM850 362q0 179 71.5 281t221.5 102q149 0 220 -102t71 -281t-71 -282t-220 -103q-150 0 -221.5 102.5t-71.5 282.5zM1063 362q0 -91 17.5 -136.5t62.5 -45.5q43 0 60.5 45.5t17.5 136.5t-17 136t-61 45q-45 0 -62.5 -45t-17.5 -136zM1489 360q0 179 71 282 t220 103q150 0 221.5 -102.5t71.5 -282.5q0 -179 -71.5 -281t-221.5 -102q-149 0 -220 102t-71 281zM1702 360q0 -92 16.5 -137t61.5 -45t61.5 45t16.5 137q0 93 -16.5 138t-61.5 45t-61.5 -45t-16.5 -138z" />
<glyph unicode="&#x2039;" horiz-adv-x="559" d="M45 449v200l426 430v-362l-195 -168l195 -166v-363z" />
<glyph unicode="&#x203a;" horiz-adv-x="559" d="M88 20v363l195 168l-195 166v362l426 -428v-200z" />
<glyph unicode="&#x2044;" horiz-adv-x="335" d="M-168 0l455 1434h221l-457 -1434h-219z" />
<glyph unicode="&#x205f;" horiz-adv-x="477" />
<glyph unicode="&#x2070;" horiz-adv-x="692" d="M55 1219q0 444 291 444t291 -444q0 -445 -291 -445t-291 445zM264 1219q0 -147 18.5 -207t63.5 -60t63.5 59.5t18.5 207.5q0 146 -18.5 205t-63.5 59t-63.5 -58.5t-18.5 -205.5z" />
<glyph unicode="&#x2074;" horiz-adv-x="708" d="M37 940v158l260 551h274v-519h93v-190h-93v-152h-206v152h-328zM221 1130h144v306z" />
<glyph unicode="&#x2075;" horiz-adv-x="638" d="M37 895l100 158q89 -80 152 -80q38 0 61 27t23 71q0 43 -20.5 74t-65.5 31q-47 0 -99 -46l-114 72l32 447h453v-191h-274l-2 -102q30 6 61 6q117 0 177.5 -83.5t60.5 -203.5q0 -128 -67 -214.5t-196 -86.5q-149 0 -282 121z" />
<glyph unicode="&#x2076;" horiz-adv-x="651" d="M53 1157q0 222 113.5 364t298.5 142q28 0 54 -3.5t38 -7.5l12 -3l-47 -181q-26 7 -55 7q-60 0 -112 -44.5t-76 -138.5q50 54 120 54q91 0 150 -73.5t59 -193.5q0 -135 -71.5 -220t-198.5 -85q-142 0 -213.5 106.5t-71.5 276.5zM262 1124q3 -163 76 -163q34 0 48.5 32 t14.5 74q0 109 -65 109q-25 0 -44.5 -15t-29.5 -37z" />
<glyph unicode="&#x2077;" horiz-adv-x="548" d="M41 1458v191h479v-179q-9 -14 -23.5 -38.5t-52 -101t-66 -153.5t-52 -184.5t-23.5 -204.5h-213q0 112 28 231.5t71 216t67.5 143t44.5 79.5h-260z" />
<glyph unicode="&#x2078;" horiz-adv-x="673" d="M49 1014q0 148 141 241q-98 79 -98 195q0 92 65 152.5t179 60.5q116 0 181 -60.5t65 -152.5q0 -116 -101 -195q144 -95 144 -241q0 -107 -74.5 -173.5t-214.5 -66.5q-138 0 -212.5 66.5t-74.5 173.5zM258 1030q0 -37 21 -60.5t57 -23.5q37 0 58.5 23t21.5 61 q0 77 -80 133q-78 -55 -78 -133zM279 1436q0 -59 57 -99q57 40 57 99q0 23 -14.5 41t-42.5 18t-42.5 -18t-14.5 -41z" />
<glyph unicode="&#x2079;" horiz-adv-x="651" d="M45 1358q0 134 71 219.5t199 85.5q72 0 127 -29.5t88.5 -82.5t50.5 -121t17 -150q0 -223 -112.5 -364.5t-299.5 -141.5q-27 0 -53 3.5t-39 6.5l-12 4l49 181q24 -8 53 -8q61 0 113 44t76 138q-49 -53 -121 -53q-90 0 -148.5 74t-58.5 194zM250 1370q0 -49 16.5 -79.5 t50.5 -30.5q25 0 44.5 15.5t29.5 37.5q-1 85 -22.5 123.5t-53.5 38.5q-35 0 -50 -32t-15 -73z" />
<glyph unicode="&#x207a;" horiz-adv-x="559" d="M45 1118v162h154v168h159v-168h154v-162h-154v-172h-159v172h-154z" />
<glyph unicode="&#x207d;" horiz-adv-x="403" d="M74 940v2v549v2q0 68 2 98t13.5 73t37 65t72 46t118.5 44l48 -121q-55 -30 -68.5 -57t-13.5 -89v-671q0 -63 13.5 -90t68.5 -56l-48 -123q-45 12 -80 24.5t-60.5 29.5t-43 30.5t-29 37.5t-17.5 39.5t-9 49t-3.5 53.5t-0.5 64z" />
<glyph unicode="&#x207e;" horiz-adv-x="405" d="M41 733q55 30 68.5 57t13.5 89v671q0 63 -13.5 90t-68.5 56l47 123q73 -20 119.5 -44t72 -46.5t37 -65.5t13.5 -74t2 -100v-549q0 -57 -1 -83.5t-8 -66t-21.5 -58.5t-41.5 -44t-69 -42.5t-103 -33.5z" />
<glyph unicode="&#x207f;" horiz-adv-x="663" d="M80 788v646h201v-68q43 39 82 60.5t88 21.5q67 0 103 -50t36 -143v-467h-201v424q0 62 -33 62q-37 0 -75 -64v-422h-201z" />
<glyph unicode="&#x2080;" horiz-adv-x="692" d="M55 123q0 444 291 444t291 -444q0 -445 -291 -445t-291 445zM264 123q0 -147 18.5 -206.5t63.5 -59.5t63.5 59t18.5 207q0 146 -18.5 205t-63.5 59t-63.5 -58.5t-18.5 -205.5z" />
<glyph unicode="&#x2081;" horiz-adv-x="546" d="M14 412l191 141h198v-860h-204v649l-97 -68z" />
<glyph unicode="&#x2082;" horiz-adv-x="638" d="M47 -213q0 59 16.5 112.5t47 98.5t57 75t63.5 64q8 8 29 28t30 29t25 25.5t23.5 26.5t16.5 24t12.5 26t3.5 23q0 24 -16.5 40t-43.5 16q-50 0 -151 -74l-97 143q136 123 279 123q114 0 176 -70.5t62 -166.5q0 -42 -14.5 -85t-30.5 -72t-46 -65t-43 -49t-40 -39 q-33 -31 -44 -41.5t-30.5 -32t-26 -35.5t-6.5 -28h281v-190h-533v94z" />
<glyph unicode="&#x2083;" horiz-adv-x="636" d="M33 -205l96 152q110 -74 168 -74q34 0 57 22.5t23 57.5q0 38 -29.5 61t-60.5 29t-64 6h-22v189h28q24 0 49 6t48.5 25t23.5 48q0 23 -13 39.5t-44 16.5q-55 0 -143 -64l-91 140q139 118 277 118q104 0 162.5 -60.5t58.5 -148.5q0 -119 -104 -190q60 -29 95.5 -87 t35.5 -138q0 -38 -8.5 -74.5t-27.5 -71.5t-48 -61t-72.5 -42t-97.5 -16q-65 0 -131.5 23.5t-101.5 46.5t-64 47z" />
<glyph unicode="&#x2084;" horiz-adv-x="708" d="M37 2l260 551h274v-518h93v-191h-93v-151h-206v151h-328v158zM221 35h144v305z" />
<glyph unicode="&#x2085;" horiz-adv-x="638" d="M39 -201l100 158q89 -80 152 -80q38 0 61 27t23 71q0 43 -20.5 74t-65.5 31q-48 0 -99 -45l-114 71l33 447h452v-191h-274l-2 -102q30 6 61 6q117 0 177.5 -83t60.5 -203q0 -128 -66.5 -215t-195.5 -87q-150 0 -283 121z" />
<glyph unicode="&#x2086;" horiz-adv-x="651" d="M53 61q0 222 113.5 364t298.5 142q28 0 54 -3.5t38 -7.5l12 -3l-47 -180q-26 6 -55 6q-60 0 -112 -44t-76 -138q49 53 120 53q91 0 150 -73t59 -193q0 -135 -71.5 -220.5t-198.5 -85.5q-142 0 -213.5 106.5t-71.5 276.5zM262 29q3 -164 76 -164q34 0 48.5 32t14.5 74 q0 109 -65 109q-51 0 -74 -51z" />
<glyph unicode="&#x2087;" horiz-adv-x="550" d="M43 362v191h479v-178q-9 -14 -23.5 -38.5t-52 -101t-66 -153.5t-52 -184.5t-23.5 -204.5h-213q0 112 28 231t71 215.5t67 143t45 79.5h-260z" />
<glyph unicode="&#x2088;" horiz-adv-x="673" d="M49 -82q0 149 141 242q-98 79 -98 194q0 92 65 152.5t179 60.5q116 0 181 -60.5t65 -152.5q0 -115 -101 -194q144 -95 144 -242q0 -107 -74.5 -173.5t-214.5 -66.5q-138 0 -212.5 66.5t-74.5 173.5zM258 -66q0 -37 21 -60.5t57 -23.5q37 0 58.5 23t21.5 61q0 78 -80 134 q-78 -55 -78 -134zM279 340q0 -58 57 -98q57 40 57 98q0 23 -14.5 41t-42.5 18t-42.5 -18t-14.5 -41z" />
<glyph unicode="&#x2089;" horiz-adv-x="651" d="M45 262q0 134 71 219.5t199 85.5q72 0 127 -29.5t88.5 -82.5t50.5 -121t17 -150q0 -223 -112.5 -364.5t-299.5 -141.5q-27 0 -53 4t-39 8l-12 3l49 180q24 -8 53 -8q61 0 113 44t76 138q-49 -53 -121 -53q-90 0 -148.5 74t-58.5 194zM250 274q0 -49 16.5 -79.5 t50.5 -30.5q25 0 44.5 15.5t29.5 37.5q-1 85 -22.5 123.5t-53.5 38.5q-35 0 -50 -32t-15 -73z" />
<glyph unicode="&#x208a;" horiz-adv-x="559" d="M45 23v161h154v168h159v-168h154v-161h-154v-173h-159v173h-154z" />
<glyph unicode="&#x208d;" horiz-adv-x="403" d="M74 -154v549v2q0 68 2 98t13.5 73t37 65t72 46t118.5 44l48 -121q-55 -31 -68.5 -57t-13.5 -88v-672q0 -63 13.5 -89.5t68.5 -55.5l-48 -123q-36 10 -65.5 20t-53 22.5t-41 22.5t-31 27t-22.5 28t-14.5 33t-9 35.5t-5 42t-1.5 45v51.5v2z" />
<glyph unicode="&#x208e;" horiz-adv-x="405" d="M39 -362q55 31 68.5 57t13.5 88v672q0 63 -13.5 89.5t-68.5 55.5l47 123q73 -20 119.5 -44t72 -46.5t37 -65.5t13.5 -74t2 -100v-549q0 -68 -2 -98.5t-13.5 -73.5t-37 -65t-72 -46t-119.5 -44z" />
<glyph unicode="&#x20a1;" horiz-adv-x="856" d="M70 719q0 141 29 250.5t79.5 175.5t114 99.5t135.5 33.5l23 -2l24 158h115l-29 -179l29 -10l31 189h112l-37 -236q36 -18 101 -57l-125 -240q-6 4 -35 22.5t-41.5 26t-35.5 19.5t-39.5 17t-31.5 5q-114 0 -114 -272q0 -275 114 -275q15 0 32 5t38.5 17t36 20.5t41 25.5 t35.5 23l125 -240q-163 -99 -265 -125l-26 -170h-113l25 158q-5 0 -15.5 1t-15.5 1l-25 -160h-114l31 199q-96 56 -152.5 186.5t-56.5 333.5z" />
<glyph unicode="&#x20a4;" horiz-adv-x="911" d="M86 0v233q4 2 12 7t29 22.5t39 38.5t38.5 56.5t31.5 74.5h-136v162h150q-2 12 -17 86h-133v164h74q-57 143 -57 268q0 163 83 253.5t236 90.5q194 0 416 -182l-147 -209q-124 102 -197 102q-38 0 -58 -27t-20 -75q0 -27 6.5 -57t13 -49.5t21 -58t21.5 -56.5h253v-164 h-208q6 -40 6 -86h202v-162h-217q-22 -84 -63 -143h373v-289h-752z" />
<glyph unicode="&#x20a7;" horiz-adv-x="1105" d="M96 895v131h37v408h381q247 0 369.5 -104.5t138.5 -303.5h37v-131h-37q-15 -198 -137.5 -300.5t-370.5 -102.5h-68v-492h-313v895h-37zM446 778h74q157 0 182 117h-256v-117zM446 1026h256q-26 119 -182 119h-74v-119z" />
<glyph unicode="&#x20a9;" horiz-adv-x="1579" d="M74 489v195h149l-30 156h-119v194h82l-76 400h350l51 -400h127l66 400h229l66 -400h127l51 400h352l-78 -400h82v-194h-119l-30 -156h149v-195h-186l-94 -489h-293l-142 860l-141 -860h-293l-94 489h-186zM508 840l31 -238l39 238h-70zM999 840l39 -240l31 240h-70z" />
<glyph unicode="&#x20ac;" horiz-adv-x="1089" d="M59 479v174h80v115h-80v174h93q33 256 142 385t277 129q60 0 118.5 -13t121 -41t106.5 -52.5t115 -67.5l-137 -256q-19 10 -61 33.5t-61.5 34t-50.5 24.5t-54 19.5t-45 5.5q-110 0 -146 -201h250v-174h-266v-115h266v-174h-248q36 -188 144 -188q22 0 45.5 5.5t53.5 19.5 t51 24.5t62 33.5t62 34l135 -256q-72 -44 -115.5 -68t-106 -52.5t-121 -41.5t-118.5 -13q-166 0 -274 126t-143 376h-95z" />
<glyph unicode="&#x2116;" horiz-adv-x="1843" d="M123 0v1434h315l299 -822v822h312v-1434h-314l-299 821v-821h-313zM1110 987q0 206 85.5 317t252.5 111q168 0 253 -110.5t85 -317.5q0 -208 -85 -318t-253 -110q-167 0 -252.5 110t-85.5 318zM1176 283v192h540v-192h-540zM1372 987q0 -106 16 -153.5t60 -47.5t60 47.5 t16 153.5q0 104 -16 151.5t-60 47.5t-60 -47.5t-16 -151.5z" />
<glyph unicode="&#x2117;" horiz-adv-x="1597" d="M68 717q0 156 49 290.5t140 234.5t230.5 157t311.5 57t311 -57t230 -157t139.5 -234.5t48.5 -290.5t-48.5 -290.5t-139.5 -234.5t-230 -157.5t-311 -57.5t-311.5 57.5t-230.5 157.5t-140 234.5t-49 290.5zM145 717q0 -141 43.5 -262t124.5 -211.5t205.5 -141.5t278.5 -51 q155 0 280 51t206.5 141.5t125 211.5t43.5 262t-43.5 262t-125 211t-206.5 141t-280 51q-154 0 -278.5 -51t-205.5 -141t-124.5 -211t-43.5 -262zM573 285v862h287q299 0 299 -262q0 -264 -299 -264h-190v-336h-97zM670 702h192q94 0 148.5 44t54.5 139t-54.5 138.5 t-148.5 43.5h-192v-365z" />
<glyph unicode="&#x2120;" horiz-adv-x="997" d="M74 1026l51 94q76 -47 133 -47q43 0 43 27q0 3 -1 6t-3.5 6t-4.5 5t-7 5t-9 5t-11.5 5t-13 5.5t-15.5 6.5t-17 7q-137 54 -137 154q0 58 42 97.5t116 39.5q93 0 180 -49l-51 -88q-58 30 -109 30q-45 0 -45 -24q0 -14 14 -22.5t52 -22.5q10 -4 16 -6q28 -12 48 -23 t43.5 -29.5t35.5 -44.5t12 -59q0 -59 -44 -99t-120 -40q-53 0 -108.5 18.5t-89.5 42.5zM471 975v459h127l88 -236l92 236h125v-459h-123v237l-61 -161h-64l-61 145v-221h-123z" />
<glyph unicode="&#x2122;" horiz-adv-x="993" d="M96 1317v117h328v-117h-105v-342h-118v342h-105zM463 975v459h125l90 -236l92 236h125v-459h-123v239l-63 -163h-62l-61 145v-221h-123z" />
<glyph unicode="&#x2126;" horiz-adv-x="1189" d="M80 768q0 73 7 140.5t24.5 137.5t44 129t67.5 112t93 89.5t123.5 58t156.5 21.5q116 0 207 -41t147.5 -107.5t93.5 -158t51.5 -185t14.5 -196.5q0 -177 -52 -307.5t-118 -171.5h141v-289h-454v299q49 16 82 53.5t49.5 96t23 123t6.5 153.5q0 101 -8.5 175.5t-29.5 134.5 t-59.5 91t-94.5 31q-46 0 -81 -21t-57 -57.5t-35.5 -92t-18.5 -117.5t-5 -142q0 -185 35 -290t129 -138v-299h-457v289h144q-67 43 -118.5 173t-51.5 306z" />
<glyph unicode="&#x2153;" horiz-adv-x="1417" d="M37 1292l190 142h199v-861h-205v650l-96 -68zM311 0l455 1434h221l-457 -1434h-219zM803 102l96 152q110 -74 168 -74q34 0 57 22.5t23 57.5q0 38 -29.5 61t-60.5 29t-64 6h-22v189h28q24 0 49.5 6t48.5 25.5t23 48.5q0 23 -13 39t-44 16q-55 0 -143 -64l-91 140 q139 118 277 118q104 0 162.5 -60t58.5 -148q0 -120 -104 -191q60 -29 95.5 -87t35.5 -138q0 -49 -14 -93.5t-42.5 -84t-79.5 -63t-118 -23.5q-65 0 -131.5 23.5t-102 46t-63.5 46.5z" />
<glyph unicode="&#x2154;" horiz-adv-x="1576" d="M61 573v95q0 59 16.5 112.5t47 98.5t57.5 75t64 64q7 7 29 28t29.5 28.5t24.5 25.5t24 27.5t16 23.5t12.5 26t3.5 23q0 24 -16 39.5t-43 15.5q-52 0 -152 -73l-96 143q136 123 278 123q114 0 176 -71t62 -167q0 -51 -17.5 -100t-52 -93.5t-52.5 -63.5t-52 -52 q-33 -31 -44 -41.5t-30.5 -32t-26 -35.5t-6.5 -28h281v-191h-533zM479 0l455 1434h221l-457 -1434h-219zM973 102l96 152q110 -74 168 -74q34 0 57 22.5t23 57.5q0 38 -29.5 61t-60.5 29t-64 6h-22v189h28q24 0 49.5 6t48.5 25.5t23 48.5q0 23 -13 39t-44 16q-55 0 -143 -64 l-91 140q139 118 277 118q104 0 162.5 -60t58.5 -148q0 -120 -104 -191q60 -29 95.5 -87t35.5 -138q0 -49 -14 -93.5t-42.5 -84t-79.5 -63t-118 -23.5q-65 0 -131.5 23.5t-102 46t-63.5 46.5z" />
<glyph unicode="&#x2155;" horiz-adv-x="1435" d="M37 1292l190 142h199v-861h-205v650l-96 -68zM311 0l455 1434h221l-457 -1434h-219zM817 106l101 158q89 -80 151 -80q38 0 61 27.5t23 71.5q0 43 -20.5 73.5t-65.5 30.5q-47 0 -98 -45l-115 72l33 446h452v-190h-274l-2 -103q30 6 61 6q117 0 177.5 -83t60.5 -203 q0 -128 -66.5 -214.5t-195.5 -86.5q-151 0 -283 120z" />
<glyph unicode="&#x2156;" horiz-adv-x="1587" d="M57 573v95q0 59 16.5 112.5t47 98.5t57.5 75t64 64q7 7 29 28t29.5 28.5t24.5 25.5t24 27.5t16 23.5t12.5 26t3.5 23q0 24 -16 39.5t-43 15.5q-52 0 -152 -73l-96 143q136 123 278 123q114 0 176 -71t62 -167q0 -51 -17.5 -100t-52 -93.5t-52.5 -63.5t-52 -52 q-33 -31 -44 -41.5t-30.5 -32t-26 -35.5t-6.5 -28h281v-191h-533zM477 0l455 1434h221l-457 -1434h-219zM983 106l100 158q89 -80 152 -80q38 0 61 27.5t23 71.5q0 43 -20.5 73.5t-65.5 30.5q-47 0 -98 -45l-115 72l33 446h452v-190h-274l-2 -103q30 6 61 6q117 0 177.5 -83 t60.5 -203q0 -128 -66.5 -214.5t-195.5 -86.5q-151 0 -283 120z" />
<glyph unicode="&#x2157;" horiz-adv-x="1548" d="M51 676l96 151q109 -73 168 -73q34 0 57 22.5t23 57.5q0 29 -16 49.5t-42 29.5t-49 13t-46 4h-23v188h29q24 0 49.5 6t48.5 25.5t23 48.5q0 22 -13.5 38.5t-44.5 16.5q-57 0 -143 -63l-90 139q141 119 276 119q104 0 162.5 -60.5t58.5 -148.5q0 -119 -104 -190 q60 -29 95.5 -87.5t35.5 -138.5q0 -49 -14 -93.5t-42.5 -84t-79.5 -63t-118 -23.5q-65 0 -131.5 23.5t-101.5 46.5t-64 47zM430 0l455 1434h221l-457 -1434h-219zM936 106l100 158q89 -80 152 -80q38 0 61 27.5t23 71.5q0 43 -20.5 73.5t-65.5 30.5q-48 0 -99 -45l-114 72 l33 446h452v-190h-274l-2 -103q30 6 61 6q117 0 177.5 -83t60.5 -203q0 -128 -66.5 -214.5t-195.5 -86.5q-151 0 -283 120z" />
<glyph unicode="&#x2158;" horiz-adv-x="1626" d="M47 725v158l260 551h275v-519h92v-190h-92v-152h-207v152h-328zM231 915h144v306zM506 0l455 1434h221l-457 -1434h-219zM1014 106l100 158q89 -80 152 -80q38 0 61 27.5t23 71.5q0 43 -20.5 73.5t-65.5 30.5q-48 0 -99 -45l-114 72l32 446h453v-190h-274l-2 -103 q30 6 61 6q117 0 177.5 -83t60.5 -203q0 -128 -67 -214.5t-196 -86.5q-150 0 -282 120z" />
<glyph unicode="&#x2159;" horiz-adv-x="1386" d="M37 1292l190 142h199v-861h-205v650l-96 -68zM311 0l455 1434h221l-457 -1434h-219zM768 369q0 222 113 363.5t299 141.5q28 0 54 -3.5t38 -6.5l12 -4l-47 -180q-26 6 -55 6q-61 0 -113 -44t-76 -138q49 53 121 53q91 0 150 -73t59 -193q0 -135 -71.5 -220t-198.5 -85 q-142 0 -213.5 106.5t-71.5 276.5zM977 336q3 -164 76 -164q34 0 48.5 32.5t14.5 74.5q0 108 -65 108q-51 0 -74 -51z" />
<glyph unicode="&#x215a;" horiz-adv-x="1478" d="M47 680l100 158q89 -80 152 -80q38 0 61 27t23 71q0 43 -20.5 74t-65.5 31q-46 0 -98 -46l-115 72l33 447h452v-191h-274l-2 -102q30 6 61 6q117 0 177.5 -83.5t60.5 -203.5q0 -128 -66.5 -214.5t-195.5 -86.5q-150 0 -283 121zM412 0l454 1434h221l-456 -1434h-219z M868 369q0 222 113 363.5t299 141.5q28 0 54 -3.5t38 -6.5l12 -4l-47 -180q-26 6 -55 6q-60 0 -112 -44t-76 -138q49 53 120 53q91 0 150 -73t59 -193q0 -135 -71.5 -220t-198.5 -85q-142 0 -213.5 106.5t-71.5 276.5zM1077 336q3 -164 76 -164q34 0 49 32.5t15 74.5 q0 108 -66 108q-51 0 -74 -51z" />
<glyph unicode="&#x215b;" horiz-adv-x="1425" d="M37 1292l190 142h199v-861h-205v650l-96 -68zM311 0l455 1434h221l-457 -1434h-219zM795 225q0 149 141 242q-98 79 -98 195q0 92 64.5 152t178.5 60q116 0 181 -60t65 -152q0 -116 -100 -195q143 -95 143 -242q0 -107 -74.5 -173t-214.5 -66q-138 0 -212 66t-74 173z M1004 242q0 -38 20.5 -61t56.5 -23q37 0 58.5 23t21.5 61q0 77 -80 133q-77 -54 -77 -133zM1024 647q0 -58 57 -98q58 40 58 98q0 23 -15 41.5t-43 18.5t-42.5 -18.5t-14.5 -41.5z" />
<glyph unicode="&#x215c;" horiz-adv-x="1536" d="M51 676l96 151q109 -73 168 -73q34 0 57 22.5t23 57.5q0 29 -16 49.5t-42 29.5t-49 13t-46 4h-23v188h29q24 0 49.5 6t48.5 25.5t23 48.5q0 22 -13.5 38.5t-44.5 16.5q-57 0 -143 -63l-90 139q141 119 276 119q104 0 162.5 -60.5t58.5 -148.5q0 -119 -104 -190 q60 -29 95.5 -87.5t35.5 -138.5q0 -49 -14 -93.5t-42.5 -84t-79.5 -63t-118 -23.5q-65 0 -131.5 23.5t-101.5 46.5t-64 47zM430 0l455 1434h221l-457 -1434h-219zM913 225q0 148 142 242q-99 80 -99 195q0 91 65 151.5t179 60.5q116 0 181 -60t65 -152q0 -116 -100 -195 q143 -95 143 -242q0 -107 -74.5 -173t-214.5 -66q-138 0 -212.5 66t-74.5 173zM1122 242q0 -37 21 -60.5t57 -23.5q37 0 58.5 23t21.5 61q0 77 -80 133q-78 -55 -78 -133zM1143 647q0 -58 57 -98q57 40 57 98q0 23 -14.5 41.5t-42.5 18.5t-42.5 -18.5t-14.5 -41.5z" />
<glyph unicode="&#x215d;" horiz-adv-x="1519" d="M47 680l100 158q89 -80 152 -80q38 0 61 27t23 71q0 43 -20.5 74t-65.5 31q-46 0 -98 -46l-115 72l33 447h452v-191h-274l-2 -102q30 6 61 6q117 0 177.5 -83.5t60.5 -203.5q0 -128 -66.5 -214.5t-195.5 -86.5q-150 0 -283 121zM412 0l454 1434h221l-456 -1434h-219z M895 225q0 149 141 242q-98 79 -98 195q0 91 65 151.5t179 60.5q116 0 180.5 -60t64.5 -152q0 -116 -100 -195q143 -95 143 -242q0 -107 -74 -173t-214 -66q-138 0 -212.5 66t-74.5 173zM1104 242q0 -37 21 -60.5t57 -23.5q37 0 58.5 23t21.5 61q0 77 -80 133 q-78 -55 -78 -133zM1124 647q0 -58 58 -98q57 40 57 98q0 23 -14.5 41.5t-42.5 18.5t-43 -18.5t-15 -41.5z" />
<glyph unicode="&#x215e;" horiz-adv-x="1382" d="M51 1243v191h479v-179q-9 -14 -23.5 -38.5t-52 -101t-66 -153.5t-52 -184.5t-23.5 -204.5h-213q0 112 28 231.5t71 216t67.5 143t44.5 79.5h-260zM276 0l455 1434h221l-456 -1434h-220zM760 225q0 149 141 242q-98 79 -98 195q0 91 65 151.5t179 60.5q116 0 180.5 -60 t64.5 -152q0 -116 -100 -195q143 -95 143 -242q0 -107 -74 -173t-214 -66q-138 0 -212.5 66t-74.5 173zM969 242q0 -37 21 -60.5t57 -23.5q37 0 58 23t21 61q0 78 -79 133q-78 -55 -78 -133zM989 647q0 -58 58 -98q57 40 57 98q0 23 -14.5 41.5t-42.5 18.5t-43 -18.5 t-15 -41.5z" />
<glyph unicode="&#x2202;" horiz-adv-x="995" d="M61 477q0 222 98.5 360t243.5 138q45 0 83 -11t60 -26.5t38 -30.5t22 -26l6 -11q-32 126 -117.5 212.5t-207.5 86.5q-33 0 -64 -4t-46 -8l-15 -4l-31 258q58 23 164 23q125 0 229.5 -43t178 -119t124.5 -181t75 -228.5t24 -262.5q0 -302 -115.5 -462.5t-333.5 -160.5 q-194 0 -305 135t-111 365zM373 475q0 -52 5 -90.5t17.5 -74.5t39 -55t65.5 -19q38 0 64 18.5t39.5 54t18.5 75t5 91.5q0 53 -5 92t-17.5 75.5t-39 55.5t-65.5 19q-127 0 -127 -242z" />
<glyph unicode="&#x2206;" horiz-adv-x="1122" d="M31 0l368 1434h324l369 -1434h-1061zM387 289h346l-172 805z" />
<glyph unicode="&#x220f;" horiz-adv-x="1120" d="M61 1145v289h996v-289h-117v-1145h-309v1145h-142v-1145h-311v1145h-117z" />
<glyph unicode="&#x2211;" horiz-adv-x="942" d="M59 0v152l363 565l-363 565v152h805v-289h-370l278 -428l-278 -428h370v-289h-805z" />
<glyph unicode="&#x2212;" horiz-adv-x="983" d="M119 557v252h741v-252h-741z" />
<glyph unicode="&#x221a;" horiz-adv-x="1032" d="M16 696h320l102 -383l287 1121h311l-405 -1434h-371z" />
<glyph unicode="&#x221e;" horiz-adv-x="1337" d="M78 528q0 163 75.5 266t206.5 103q78 0 149 -51t161 -162q43 54 73 86t69.5 64.5t81.5 47.5t89 15q126 0 201.5 -103t75.5 -266t-75.5 -265.5t-203.5 -102.5q-85 0 -153 49.5t-158 161.5q-88 -112 -159.5 -161.5t-154.5 -49.5q-127 0 -202.5 103t-75.5 265zM291 528 q0 -66 31.5 -107.5t70.5 -41.5q7 0 14.5 2t13.5 4.5t14 8.5t13.5 10.5t14 14.5t14.5 16.5t16 20t16.5 22t19 25.5t20.5 27q-63 86 -93 117t-61 31q-42 0 -73 -42t-31 -108zM788 528q77 -102 99 -122q29 -27 57 -27q40 0 72.5 42t32.5 107q0 66 -33 108t-74 42 q-17 0 -32 -7.5t-37 -32t-36 -43t-49 -67.5z" />
<glyph unicode="&#x222b;" horiz-adv-x="655" d="M47 -106h27q24 0 41.5 7.5t27.5 24t16.5 31.5t9 43t3 45t0.5 49v1204q0 238 92.5 329t319.5 91h24v-186h-24q-28 0 -48 -12.5t-30 -29.5t-15.5 -48t-6.5 -53.5t-1 -59.5v-1202q0 -122 -22 -202t-72.5 -129t-125.5 -69t-189 -20h-27v187z" />
<glyph unicode="&#x2248;" horiz-adv-x="983" d="M119 412q37 128 97.5 203t139.5 75q39 0 80 -20t70 -44.5t63 -44.5t60 -20t48.5 23t49.5 92l133 -66q-37 -133 -92.5 -205.5t-140.5 -72.5q-44 0 -87 20.5t-71 45t-61 45t-58 20.5q-23 0 -45.5 -24t-50.5 -93zM119 803q37 128 97.5 203t139.5 75q39 0 80 -20t70 -44.5 t63 -44.5t60 -20t48.5 22.5t49.5 90.5l133 -64q-35 -128 -95.5 -203t-137.5 -75q-48 0 -101 32.5t-98.5 64.5t-77.5 32q-24 0 -46 -23t-50 -92z" />
<glyph unicode="&#x2260;" horiz-adv-x="983" d="M119 362v252h246l41 144h-287v250h358l76 258l190 -58l-57 -200h174v-250h-246l-41 -144h287v-252h-358l-74 -258l-192 58l57 200h-174z" />
<glyph unicode="&#x2264;" horiz-adv-x="983" d="M106 0v215h742v-215h-742zM106 631v196l742 371v-285l-438 -184l438 -188v-279z" />
<glyph unicode="&#x2265;" horiz-adv-x="983" d="M133 0v215h741v-215h-741zM133 262v279l438 188l-438 184v285l741 -371v-196z" />
<glyph unicode="&#x2318;" horiz-adv-x="1411" d="M84 373q0 120 85 204.5t206 84.5h104v116h-104q-121 0 -206 85.5t-85 205.5t85 204.5t206 84.5q120 0 204.5 -84.5t84.5 -204.5v-106h86v106q0 120 84.5 204.5t205.5 84.5q120 0 204.5 -84.5t84.5 -204.5t-84.5 -205.5t-204.5 -85.5h-106v-116h106q120 0 204.5 -84.5 t84.5 -204.5q0 -121 -84.5 -206t-204.5 -85q-121 0 -205.5 84.5t-84.5 206.5v104h-86v-104q0 -121 -84.5 -206t-204.5 -85q-121 0 -206 85t-85 206zM268 373q0 -44 31.5 -75.5t75.5 -31.5q43 0 73.5 31.5t30.5 75.5v104h-104q-44 0 -75.5 -30.5t-31.5 -73.5zM268 1069 q0 -44 31.5 -75t75.5 -31h104v106q0 43 -30.5 74t-73.5 31q-44 0 -75.5 -31t-31.5 -74zM664 662h86v116h-86v-116zM934 373q0 -44 31 -75.5t75 -31.5q43 0 74 31.5t31 75.5q0 43 -31 73.5t-74 30.5h-106v-104zM934 963h106q43 0 74 31t31 75q0 43 -31 74t-74 31 q-44 0 -75 -31t-31 -74v-106z" />
<glyph unicode="&#x25ca;" horiz-adv-x="919" d="M53 717l258 717h297l258 -717l-258 -717h-297zM330 717l131 -363l131 363l-131 360z" />
<glyph unicode="&#xe000;" horiz-adv-x="1075" d="M0 0v1075h1075v-1075h-1075z" />
<glyph unicode="&#xf639;" horiz-adv-x="1036" d="M63 717q0 361 109.5 550t345.5 189q237 0 347 -189t110 -550q0 -740 -457 -740q-236 0 -345.5 189t-109.5 551zM377 717q0 -254 32 -361.5t109 -107.5q76 0 108.5 108t32.5 361t-32 361t-109 108q-76 0 -108.5 -108t-32.5 -361z" />
<glyph unicode="&#xf63a;" horiz-adv-x="1036" d="M90 0v152q0 80 20 156.5t46.5 131.5t72.5 116.5t76 94.5t80 84q55 56 84.5 88t66.5 78t53.5 84.5t16.5 73.5q0 48 -26 78t-74 30q-81 0 -242 -123l-149 220q215 192 438 192q91 0 163.5 -32t116 -86.5t66.5 -122t23 -142.5q0 -51 -11.5 -102.5t-27 -92t-44 -87.5t-48 -75 t-54 -68t-48.5 -54t-44 -45q-103 -107 -130 -145q-44 -62 -44 -115h453v-289h-834z" />
<glyph unicode="&#xf63b;" horiz-adv-x="1036" d="M68 160l147 231q173 -119 266 -119q59 0 97 43t38 113q0 43 -18 77.5t-44.5 54t-62 32.5t-65.5 17.5t-59 4.5h-35v285h43q29 0 62 8.5t65.5 26t54 49t21.5 72.5q0 44 -25 76t-78 32q-89 0 -227 -104l-137 211q215 186 430 186q110 0 190.5 -47.5t119 -124t38.5 -170.5 q0 -200 -172 -323q97 -46 156 -145.5t59 -233.5q0 -64 -13.5 -124t-44 -117.5t-76.5 -100t-115.5 -68t-154.5 -25.5q-76 0 -152 20t-137 52t-100 58t-71 53z" />
<glyph unicode="&#xf63c;" horiz-adv-x="1036" d="M35 262v242l420 930h393v-883h133v-289h-133v-262h-311v262h-502zM303 551h234v516z" />
<glyph unicode="&#xf63d;" horiz-adv-x="1036" d="M76 168l151 240q152 -132 242 -132q65 0 106 53.5t41 139.5q0 80 -36.5 138.5t-112.5 58.5q-72 0 -160 -78l-174 106l53 740h707v-289h-438l-2 -213q58 14 102 14q94 0 167.5 -38.5t118 -105.5t67 -150.5t22.5 -178.5q0 -99 -25 -186.5t-74 -157.5t-130 -111t-185 -41 q-221 0 -440 191z" />
<glyph unicode="&#xf63e;" horiz-adv-x="1036" d="M90 608q0 249 79.5 441.5t226.5 299.5t339 107q44 0 85 -5.5t60 -10.5l19 -6l-72 -273q-43 13 -88 13q-102 0 -188 -84.5t-123 -262.5q81 99 203 99q144 0 237 -124t93 -321q0 -144 -48.5 -257t-146.5 -180t-231 -67q-113 0 -199.5 49t-139.5 136.5t-79.5 200 t-26.5 245.5zM406 565q1 -157 36.5 -231t94.5 -74q31 0 53.5 18.5t35 50t18 65.5t5.5 71q0 89 -29.5 146t-87.5 57q-42 0 -75.5 -30.5t-50.5 -72.5z" />
<glyph unicode="&#xf63f;" horiz-adv-x="1036" d="M152 1145v289h753v-271q-14 -23 -37.5 -65t-84 -172.5t-106.5 -261.5t-84 -314.5t-38 -349.5h-322q0 158 33.5 330.5t77 301t98 252t84 178t47.5 83.5h-421z" />
<glyph unicode="&#xf640;" horiz-adv-x="1036" d="M66 373q0 74 18.5 137.5t53 112t72 84.5t85.5 69q-164 132 -164 332q0 150 102.5 249t282.5 99t282.5 -99t102.5 -249q0 -199 -164 -334q48 -33 85 -69t71.5 -84.5t53 -111.5t18.5 -136q0 -178 -116.5 -287t-332.5 -109q-217 0 -333.5 109t-116.5 287zM381 393 q0 -70 36.5 -111.5t98.5 -41.5t98.5 41.5t36.5 111.5q0 142 -135 242q-135 -102 -135 -242zM416 1085q0 -108 100 -180q100 75 100 180q0 45 -25.5 81t-74.5 36t-74.5 -36t-25.5 -81z" />
<glyph unicode="&#xf641;" horiz-adv-x="1036" d="M74 950q0 222 113 364t313 142q91 0 165 -32.5t125 -89.5t86 -136.5t51.5 -173t16.5 -199.5q1 -250 -78.5 -442.5t-226.5 -299t-338 -106.5q-44 0 -85.5 5.5t-61.5 11.5l-19 6l74 272q39 -12 88 -12q100 0 185 83t122 259q-75 -96 -198 -96q-145 0 -238.5 124t-93.5 320z M387 969q0 -90 28.5 -146.5t86.5 -56.5q43 0 75.5 28.5t51.5 71.5q-1 156 -37 232t-94 76q-39 0 -65.5 -33.5t-36 -77.5t-9.5 -94z" />
<glyph unicode="&#xf6c3;" horiz-adv-x="237" d="M4 -543l90 168h-88v262h201l10 -290l-160 -218z" />
<glyph unicode="&#xf6dc;" horiz-adv-x="1036" d="M90 0v289h291v825l-156 -119l-135 209l303 230h299v-1145h289v-289h-891z" />
<glyph unicode="&#xf6df;" horiz-adv-x="561" d="M53 125q0 154 55.5 237.5t143.5 94.5v96h141v-117q43 -14 121 -57l-82 -162q-73 49 -110 49q-66 0 -66 -141q0 -148 66 -148q6 0 13.5 1.5t16 5t15 6.5t17 9t15.5 9t17 11t16 10l82 -162q-84 -47 -121 -60v-114h-141v96q-88 11 -143.5 95.5t-55.5 240.5z" />
<glyph unicode="&#xf6e0;" horiz-adv-x="561" d="M53 1221q0 154 55.5 237t143.5 94v97h141v-117q43 -14 121 -57l-82 -162q-73 49 -110 49q-66 0 -66 -141q0 -148 66 -148q28 0 110 51l82 -161q-84 -47 -121 -60v-115h-141v97q-88 11 -143.5 95.5t-55.5 240.5z" />
<glyph unicode="&#xf6e1;" horiz-adv-x="337" d="M68 -70h196l10 -268l-155 -184l-51 71l86 144h-86v237z" />
<glyph unicode="&#xf6e2;" horiz-adv-x="339" d="M70 645l86 143h-86v238h196l10 -268l-155 -185z" />
<glyph unicode="&#xf6e3;" horiz-adv-x="651" d="M37 -201l96 158q52 -35 108.5 -61.5t90.5 -26.5q27 0 43 14.5t16 40.5q0 19 -15.5 38t-34.5 32.5t-59.5 40t-66.5 45.5q-76 52 -121 111.5t-45 138.5q0 90 55 155t156 78v115h139v-121q94 -20 197 -82l-98 -162q-116 64 -166 64q-28 0 -46 -14.5t-18 -38.5q0 -15 9.5 -30 t30 -31t38.5 -28.5t49 -32t47 -30.5q168 -111 168 -256q0 -85 -55 -152.5t-156 -80.5v-113h-139v121q-124 28 -223 108z" />
<glyph unicode="&#xf6e4;" horiz-adv-x="651" d="M37 895l96 158q52 -35 108.5 -61.5t90.5 -26.5q27 0 43 14.5t16 40.5q0 19 -15.5 38t-34.5 32.5t-59.5 40t-66.5 45.5q-77 53 -121.5 111.5t-44.5 137.5q0 90 55 155.5t156 78.5v115h139v-121q94 -20 197 -82l-98 -162q-116 64 -166 64q-28 0 -46 -15t-18 -39 q0 -15 9.5 -29.5t30 -31t38.5 -28.5t49 -31.5t47 -30.5q168 -111 168 -256q0 -85 -55 -153.5t-156 -82.5v-110h-139v118q-119 26 -223 111z" />
<glyph unicode="&#xf6e7;" horiz-adv-x="333" d="M68 -70h196v-237h-196v237z" />
<glyph unicode="&#xf6e8;" horiz-adv-x="335" d="M70 788v238h196v-238h-196z" />
<glyph unicode="&#xf6e9;" horiz-adv-x="626" d="M39 987q0 98 48 153.5t132 55.5q19 0 41.5 -3.5t35 -6.5t34 -9.5t24.5 -7.5v35q0 42 -13.5 58t-49.5 16q-47 0 -158 -43l-65 151q153 62 272 62q112 0 163.5 -56t51.5 -182v-422h-201v70q-72 -84 -151 -84q-77 0 -120.5 60t-43.5 153zM242 1010q0 -31 12 -47.5t31 -16.5 q43 0 69 53v62q-48 18 -61 18q-51 0 -51 -69z" />
<glyph unicode="&#xf6ea;" horiz-adv-x="653" d="M80 788v895h201v-313q36 39 67 58.5t74 19.5q88 0 136 -86.5t48 -249.5q0 -165 -48 -251.5t-136 -86.5q-43 0 -73.5 19t-67.5 57v-62h-201zM281 1018q30 -64 67 -64q55 0 55 158q0 156 -55 156q-36 0 -67 -64v-186z" />
<glyph unicode="&#xf6eb;" horiz-adv-x="653" d="M45 1112q0 164 48 250t138 86q29 0 55.5 -12.5t43 -26.5t43.5 -41v315h200v-895h-200v66q-39 -41 -69.5 -60.5t-72.5 -19.5q-90 0 -138 86.5t-48 251.5zM248 1112q0 -158 55 -158q37 0 70 68v176q-34 70 -70 70q-55 0 -55 -156z" />
<glyph unicode="&#xf6ec;" horiz-adv-x="587" d="M45 1108q0 162 64.5 251t187.5 89q119 0 181.5 -79.5t62.5 -209.5q0 -25 -2.5 -48.5t-4.5 -34.5l-2 -11h-284q3 -64 17.5 -94.5t49.5 -30.5q40 0 152 68l76 -134q-144 -100 -256 -100q-108 0 -175 83.5t-67 250.5zM248 1180h112q-2 58 -13 84t-42 26q-29 0 -41.5 -26.5 t-15.5 -83.5z" />
<glyph unicode="&#xf6ed;" horiz-adv-x="358" d="M76 1503v178h207v-178h-207zM78 788v646h203v-646h-203z" />
<glyph unicode="&#xf6ee;" horiz-adv-x="356" d="M78 788v895h201v-895h-201z" />
<glyph unicode="&#xf6ef;" horiz-adv-x="931" d="M80 788v646h201v-76q67 90 149 90q45 0 78.5 -28.5t48.5 -78.5q71 107 162 107q66 0 102.5 -51t36.5 -142v-467h-201v404q0 41 -5.5 61.5t-22.5 20.5q-37 0 -60 -60v-426h-200v404q0 42 -5.5 62t-25.5 20q-33 0 -57 -57v-429h-201z" />
<glyph unicode="&#xf6f0;" horiz-adv-x="620" d="M43 1112q0 162 66.5 249t199.5 87q269 0 269 -338q0 -163 -66.5 -249.5t-202.5 -86.5q-133 0 -199.5 87t-66.5 251zM246 1112q0 -85 13.5 -125.5t49.5 -40.5q38 0 52 40t14 124t-14 125t-52 41q-36 0 -49.5 -40.5t-13.5 -123.5z" />
<glyph unicode="&#xf6f1;" horiz-adv-x="477" d="M80 788v646h201v-134q6 20 16.5 41t30 47.5t51 41.5t70.5 12v-213q-43 0 -76 -21.5t-50 -51.5t-27 -60.5t-12 -51.5l-3 -22v-234h-201z" />
<glyph unicode="&#xf6f2;" horiz-adv-x="563" d="M39 860l76 141q35 -23 86 -44t84 -21q15 0 27 9t12 26q0 18 -15 28.5t-60 29.5q-10 5 -16 7q-39 17 -65 31.5t-57.5 39.5t-47.5 60.5t-16 79.5q0 85 56.5 143t158.5 58q63 0 129 -22.5t113 -51.5l-72 -131q-84 47 -139 47q-43 0 -43 -33q0 -7 2.5 -13t8 -11t11 -9 t15.5 -8.5t17 -7t19 -7t19 -7.5q37 -15 65 -31.5t57.5 -42.5t45.5 -63t16 -82q0 -87 -56.5 -144t-160.5 -57q-71 0 -146 26.5t-124 59.5z" />
<glyph unicode="&#xf6f3;" horiz-adv-x="477" d="M35 1270v164h61v141l201 45v-186h125v-164h-125v-242q0 -25 5.5 -38.5t10.5 -16t13 -2.5q17 0 59 22l66 -162q-102 -57 -183 -57q-90 0 -131 58t-41 176v262h-61z" />
<glyph unicode="&#xf8ff;" horiz-adv-x="1677" d="M107.5 560.5q-2.5 11.5 15.5 21.5l57 41q3 2 13 12q19 16 36 -12l33 -64q6 -12 13.5 -15.5t14 2t9.5 17.5l18 70q4 19 18.5 21t26.5 -13l48 -53q14 -15 23 -11.5t11 23.5l5 70q3 20 15.5 25t27.5 -7l57 -43q17 -12 26 -6.5t5 25.5l-9 69q-3 20 8.5 28t28.5 -1l64 -29 q19 -9 26.5 -1.5t1.5 26.5l-22 67q-8 19 1 29t28 4l14 -2q40 -77 70 -202.5t30 -217.5q-15 -18 -34.5 -27.5t-59.5 -9.5h-8q0 46 -33 72q19 -22 19 -55v-15q-33 3 -33 39q0 43 -28 72t-77 29q-41 0 -68.5 -32t-27.5 -79q0 -60 49.5 -96.5t138.5 -36.5q85 0 172 42t156.5 112 t125 154.5t86 175.5t30.5 169q0 59 -36.5 98t-94.5 39q-48 0 -85.5 -33.5t-37.5 -84.5q0 -106 119 -119q-29 -119 -60 -174q-12 96 -43.5 178t-75.5 129q91 -120 107 -330l-29 -41q0 156 -51 287t-131 172q-5 9 2.5 18.5t22.5 12.5l69 12q19 3 21 13.5t-15 21.5l-59 39 q-15 13 -13.5 26.5t19.5 20.5l64 29q14 4 19 10t0 13t-19 13l-64 27q-23 10 -20 29q11 6 14 16l35 62q9 19 20.5 18t16.5 -20l20 -68q6 -21 18.5 -24t26.5 14l47 53q12 15 23 12.5t12 -22.5l4 -72q1 -21 14.5 -26t28.5 8l58 43q15 12 23.5 6t6.5 -27l-10 -70 q-1 -20 10.5 -27.5t28.5 1.5l63 33q19 8 26.5 0t0.5 -29l-22 -64q-6 -20 2.5 -30t27.5 -4l70 14q20 6 26.5 -2t-4.5 -27l-36 -59q-12 -17 -6 -29.5t26 -11.5l72 4q21 0 25 -11t-9 -24l-49 -53q-14 -13 -10.5 -26.5t24.5 -16.5l70 -12q43 -10 6 -39l-57 -39q-16 -10 -15 -24 t21 -21l63 -27q12 -5 16.5 -12t0 -13.5t-16.5 -11.5l-63 -26q-20 -7 -21 -22t15 -25l57 -41q11 -7 14.5 -14.5t-2 -13.5t-18.5 -9l-70 -13q-21 -3 -24.5 -16.5t10.5 -28.5l49 -49q13 -14 9 -24.5t-25 -10.5l-72 5q-20 0 -26 -12t6 -29l36 -62q10 -17 4 -25.5t-26 -5.5 l-70 19q-19 4 -27.5 -6t-2.5 -29l22 -68q8 -19 0 -26t-27 2l-63 31q-17 9 -28.5 1t-10.5 -30l10 -68q1 -21 -7 -25.5t-23 7.5l-58 43q-15 12 -28.5 5.5t-14.5 -26.5l-4 -69q-1 -20 -12 -23t-23 11l-47 55q-13 14 -26 12t-19 -22l-20 -68q-3 -13 -9.5 -18t-14 -1t-13.5 15 l-35 61q-9 19 -22 19t-25 -19l-31 -61q-6 -11 -13.5 -15t-14 1t-9.5 18l-20 68q-6 20 -19 22t-26 -12l-47 -55q-12 -14 -22 -11t-13 23l-4 69q-2 20 -15 26.5t-30 -5.5l-54 -43q-17 -13 -26.5 -8t-5.5 26l10 68q1 22 -10.5 30t-30.5 -1l-62 -31q-19 -9 -26.5 -2t0.5 26 l22 68q7 19 -2 29.5t-28 5.5l-70 -19q-20 -3 -26 5.5t4 25.5l38 62q11 17 4.5 29t-26.5 12l-72 -5q-21 0 -25 10.5t9 24.5l51 49q13 15 9 28.5t-25 16.5l-68 13q-21 4 -23.5 15.5zM584 281q44 -27 123 -27q106 0 212.5 65t183.5 162t125 212t48 214q0 63 -41 101 q25 -39 25 -84q0 -99 -47.5 -214.5t-127.5 -215.5q-85 -105 -188.5 -168.5t-212.5 -63.5q-57 0 -100 19z" />
<glyph unicode="&#xfb06;" horiz-adv-x="1529" d="M41 119l123 229q62 -42 142.5 -76t127.5 -34q64 0 64 53q0 17 -9 33t-19.5 26.5t-35.5 24.5t-38.5 20.5t-47.5 22.5q-50 23 -85.5 43t-77.5 52.5t-68 67.5t-44 85t-18 108q0 138 87.5 231t244.5 93q76 0 176 -29q-14 49 -14 109q0 142 88.5 228.5t251.5 86.5 q180 0 283.5 -105.5t103.5 -295.5v-17h197v-246h-197v-460q0 -99 47 -99q9 0 18 2t20 7t18.5 8.5t21.5 11t20 10.5l101 -241q-164 -91 -283 -91q-139 0 -200.5 88.5t-61.5 274.5v489h-100v246h100v37q0 118 -31 176t-110 58q-72 0 -116 -51t-44 -144q0 -84 29 -137l63 -35 l-123 -217q-145 76 -221 76q-30 0 -49 -14t-19 -40q0 -13 4 -24t14 -21t18.5 -17t26 -16t27.5 -14t31.5 -14.5t30.5 -13.5q47 -21 83.5 -41.5t78 -53.5t69 -69.5t46 -88.5t18.5 -112q0 -139 -90 -230.5t-252 -91.5q-112 0 -229.5 43t-190.5 99z" />
<glyph horiz-adv-x="653" d="M45 1143q0 134 71 219.5t199 85.5q72 0 127 -29.5t88.5 -82.5t50.5 -121t17 -150q0 -223 -112.5 -364.5t-299.5 -141.5q-27 0 -53 3.5t-39 7.5l-12 3l49 181q24 -9 53 -9q60 0 112.5 44.5t76.5 138.5q-50 -54 -121 -54q-90 0 -148.5 74.5t-58.5 194.5zM250 1155 q0 -49 17 -80t50 -31q25 0 44.5 16t29.5 38q-1 85 -22.5 123.5t-53.5 38.5q-35 0 -50 -32t-15 -73z" />
<glyph horiz-adv-x="942" d="M33 1432q0 108 45 169.5t141 61.5q94 0 139 -61.5t45 -169.5t-45 -169t-139 -61q-96 0 -141 61t-45 169zM174 1432q0 -50 9.5 -73.5t35.5 -23.5t34.5 23t8.5 74q0 52 -8.5 74t-34.5 22t-35.5 -22.5t-9.5 -73.5zM238 788l313 861h149l-311 -861h-151zM535 1004 q0 231 186 231q184 0 184 -231q0 -107 -45 -168.5t-139 -61.5q-96 0 -141 61.5t-45 168.5zM678 1004q0 -49 9 -72t34 -23t34 23t9 72q0 51 -9 74.5t-34 23.5t-34 -23.5t-9 -74.5z" />
<glyph horiz-adv-x="2091" d="M41 829v246h98v4q0 202 67.5 298t217.5 96q155 0 342 -82q66 102 221 102q127 0 264 -55v55h301v-768l160 350h340l-264 -424l305 -651h-315l-160 375l-66 -107v-268h-301v1163q-6 1 -46 13t-75.5 20t-58.5 8q-67 0 -67 -98v-31h165v-246h-165v-829h-299v829h-265v-829 h-301v829h-98zM440 1075h265v68q-4 1 -49 13t-84 20t-64 8q-68 0 -68 -99v-10z" />
<glyph horiz-adv-x="1644" d="M41 829v246h98v4q0 202 67.5 298t217.5 96q155 0 342 -82q66 102 221 102q127 0 264 -55v55h301v-1493h-301v1163q-6 1 -46 13t-75.5 20t-58.5 8q-67 0 -67 -98v-31h165v-246h-165v-829h-299v829h-265v-829h-301v829h-98zM440 1075h265v68q-4 1 -49 13t-84 20t-64 8 q-68 0 -68 -99v-10z" />
<glyph horiz-adv-x="1814" d="M41 829v246h98v4q0 202 67.5 298t217.5 96q153 0 336 -80q63 100 209 100q127 0 284 -90l-98 -240q-66 41 -100 41q-11 0 -18.5 -3t-16.5 -12t-14 -30t-5 -53v-31h263v240l299 71v-311h196v-246h-196v-460q0 -99 47 -99q6 0 13 1t14.5 3.5t13 4.5t15 7t13.5 7t15 8t14 8 l100 -241q-164 -91 -282 -91q-138 0 -200 88.5t-62 274.5v489h-263v-829h-301v829h-260v-829h-301v829h-98zM440 1075h260v68q-6 2 -37.5 10.5t-53.5 14t-52 11t-49 5.5q-68 0 -68 -99v-10z" />
<glyph horiz-adv-x="1570" d="M41 829v246h98v25q0 202 67.5 297.5t217.5 95.5q121 0 262 -53v53h301v-541q40 37 62.5 55.5t59.5 43.5t75.5 36t81.5 11q105 0 162 -82t57 -230v-786h-301v723q0 115 -60 115q-41 0 -79 -41t-58 -82v-715h-301v1163q-1 0 -33.5 10t-51 15t-47 10.5t-46.5 5.5 q-68 0 -68 -98v-31h166v-246h-166v-829h-301v829h-98z" />
<glyph horiz-adv-x="1593" d="M41 829v246h98v4q0 202 67.5 298t217.5 96q159 0 346 -82q70 102 231 102q177 0 388 -90l-93 -240q-152 41 -209 41q-83 0 -83 -98v-31h499v-1075h-301v829h-198v-829h-299v829h-265v-829h-301v829h-98zM440 1075h265v68q-4 1 -49 13t-84 20t-64 8q-68 0 -68 -99v-10z " />
<glyph horiz-adv-x="1028" d="M41 829v246h98v25q0 202 70.5 297.5t228.5 95.5q176 0 387 -90l-92 -240q-160 41 -209 41q-84 0 -84 -98v-31h498v-1075h-301v829h-197v-829h-301v829h-98z" />
<glyph horiz-adv-x="1028" d="M41 829v246h98v25q0 202 70.5 297.5t228.5 95.5q176 0 387 -90l-92 -240q-160 41 -209 41q-84 0 -84 -98v-31h498v-1024q0 -70 -0.5 -102.5t-5 -86t-14 -78.5t-26.5 -63t-44 -59t-66 -47.5t-91.5 -46.5t-121.5 -39l-94 244q25 12 44 21.5t35 21t27.5 19t20.5 19.5 t14.5 19.5t10 23t6.5 24.5t3 30t1 33.5v40.5v804h-197v-829h-301v829h-98z" />
<glyph horiz-adv-x="1525" d="M41 829v246h98v25q0 202 67.5 297.5t217.5 95.5q121 0 262 -53v53h301v-768l160 350h340l-264 -424l305 -651h-316l-159 375l-66 -107v-268h-301v1163q-1 0 -33.5 10t-51 15t-47 10.5t-46.5 5.5q-68 0 -68 -98v-31h166v-246h-166v-829h-301v829h-98z" />
<glyph horiz-adv-x="2136" d="M41 829v246h98v4q0 202 67.5 298t217.5 96q155 0 342 -82q66 102 221 102q127 0 264 -55v55h301v-541q40 37 62.5 55.5t59.5 43.5t75.5 36t81.5 11q105 0 162 -82t57 -230v-786h-301v723q0 115 -59 115q-41 0 -79.5 -41t-58.5 -82v-715h-301v1163q-6 1 -46 13t-75.5 20 t-58.5 8q-67 0 -67 -98v-31h165v-246h-165v-829h-299v829h-265v-829h-301v829h-98zM440 1075h265v68q-4 1 -49 13t-84 20t-64 8q-68 0 -68 -99v-10z" />
<glyph horiz-adv-x="1079" d="M41 829v246h98v25q0 202 67.5 297.5t217.5 95.5q121 0 262 -53v53h301v-1493h-301v1163q-1 0 -33.5 10t-51 15t-47 10.5t-46.5 5.5q-68 0 -68 -98v-31h166v-246h-166v-829h-301v829h-98z" />
<glyph horiz-adv-x="1251" d="M41 829v246h98v25q0 202 63.5 297.5t203.5 95.5q129 0 286 -90l-98 -238q-78 39 -102 39q-52 0 -52 -98v-31h260v240l299 71v-311h197v-246h-197v-460q0 -99 48 -99q27 0 98 39l100 -241q-164 -91 -282 -91q-138 0 -200.5 89t-62.5 274v489h-260v-829h-301v829h-98z" />
<glyph horiz-adv-x="434" d="M45 174v164h61q0 126 38.5 188t125.5 62q75 0 195 -56l-68 -155q-45 18 -63 18q-27 0 -27 -45v-12h101v-164h-101v-481h-201v481h-61z" />
<glyph horiz-adv-x="993" d="M94 424v752h287v-783q0 -66 24.5 -102.5t90.5 -36.5q68 0 92 36.5t24 102.5v783h287v-752q0 -79 -9 -140t-35 -120t-70 -97.5t-117 -61.5t-172 -23t-171.5 23t-116 61.5t-70 97.5t-35.5 120t-9 140zM315 1257l179 287h313l-248 -287h-244z" />
<glyph horiz-adv-x="636" d="M37 106l100 158q89 -80 152 -80q38 0 61 27.5t23 71.5q0 43 -20.5 73.5t-65.5 30.5q-48 0 -99 -45l-114 72l32 446h453v-190h-274l-2 -103q30 6 61 6q117 0 177.5 -83t60.5 -203q0 -128 -67 -214.5t-196 -86.5q-150 0 -282 120z" />
<glyph horiz-adv-x="636" d="M37 680l100 158q89 -80 152 -80q38 0 61 27t23 71q0 43 -20.5 74t-65.5 31q-47 0 -99 -46l-114 72l32 447h453v-191h-274l-2 -102q30 6 61 6q117 0 177.5 -83.5t60.5 -203.5q0 -128 -67 -214.5t-196 -86.5q-149 0 -282 121z" />
<glyph horiz-adv-x="948" d="M33 -90l151 240q152 -132 242 -132q65 0 106 53.5t41 139.5q0 80 -36.5 138.5t-112.5 58.5q-72 0 -160 -78l-174 106l53 740h707v-289h-438l-2 -213q58 14 102 14q94 0 167.5 -38.5t118 -105.5t67 -150.5t22.5 -178.5q0 -99 -25 -186.5t-74 -157.5t-130 -111t-185 -41 q-221 0 -440 191z" />
<glyph horiz-adv-x="2131" d="M41 829v246h98v4q0 202 67.5 298t217.5 96q155 0 342 -82q66 102 221 102q127 0 264 -55v55h301v-530q60 68 110.5 101.5t119.5 33.5q140 0 217.5 -142.5t77.5 -416.5q0 -276 -77.5 -419t-217.5 -143q-69 0 -119.5 33.5t-110.5 100.5v-111h-301v1163q-6 1 -46 13 t-75.5 20t-58.5 8q-67 0 -67 -98v-31h165v-246h-165v-829h-299v829h-265v-829h-301v829h-98zM440 1075h265v68q-4 1 -49 13t-84 20t-64 8q-68 0 -68 -99v-10zM1552 371q52 -123 121 -123q101 0 101 291q0 288 -101 288q-68 0 -121 -125v-331z" />
<glyph horiz-adv-x="1304" d="M49 555l80 125q73 -64 131 -64q37 0 59.5 23.5t22.5 62.5q0 35 -20.5 62t-61.5 27q-43 0 -90 -37l-90 57l26 365h381v-152h-239l-2 -94q24 8 59 8q99 0 151 -67.5t52 -165.5q0 -105 -56.5 -175.5t-166.5 -70.5q-121 0 -236 96zM365 0l397 1176h176l-397 -1176h-176z M770 184q0 123 123 199q-88 66 -88 160q0 75 55 124.5t152 49.5t153 -49.5t56 -124.5q0 -94 -88 -160q122 -78 122 -199q0 -88 -63 -142t-180 -54q-116 0 -179 54t-63 142zM936 197q0 -33 20.5 -52.5t55.5 -19.5t56.5 20t21.5 52q0 66 -78 116q-76 -49 -76 -116zM954 532 q0 -52 58 -86q55 32 55 86q0 20 -14 36t-41 16t-42.5 -16t-15.5 -36z" />
<glyph horiz-adv-x="1269" d="M47 555l80 125q78 -64 133 -64q36 0 58 23.5t22 62.5q0 36 -20 62.5t-62 26.5q-45 0 -88 -37l-90 57l26 365h381v-152h-239l-2 -92q27 6 57 6q100 0 152.5 -67.5t52.5 -165.5q0 -105 -57 -175.5t-166 -70.5q-123 0 -238 96zM362 0l400 1176h176l-399 -1176h-177zM743 301 q0 182 97 299t252 117q24 0 46 -3t32 -6l10 -3l-37 -144q-22 6 -49 6q-55 0 -101.5 -37.5t-68.5 -119.5q47 47 110 47q80 0 130 -60.5t50 -158.5q0 -109 -61 -179.5t-168 -70.5q-120 0 -181 87t-61 226zM911 272q3 -135 76 -135q32 0 47 27.5t15 62.5q0 95 -64 95 q-26 0 -45.5 -15t-28.5 -35z" />
<glyph horiz-adv-x="1198" d="M41 829v246h98v4q0 202 67.5 298t217.5 96q153 0 336 -80q60 100 194 100q131 0 301 -90l-102 -232q-83 33 -104 33q-45 0 -45 -82v-47h165v-246h-165v-829h-302v829h-262v-829h-301v829h-98zM440 1075h262v68q-152 41 -194 41q-68 0 -68 -99v-10z" />
<glyph horiz-adv-x="993" d="M94 424v752h287v-783q0 -66 24.5 -102.5t90.5 -36.5q68 0 92 36.5t24 102.5v783h287v-752q0 -79 -9 -140t-35 -120t-70 -97.5t-117 -61.5t-172 -23t-171.5 23t-116 61.5t-70 97.5t-35.5 120t-9 140z" />
<glyph horiz-adv-x="604" d="M33 1452v197h536v-197h-161v-664h-209v664h-166z" />
<glyph horiz-adv-x="706" d="M37 152v157l260 551h274v-518h93v-190h-93v-152h-206v152h-328zM221 342h144v305z" />
<glyph horiz-adv-x="706" d="M37 725v158l260 551h274v-519h93v-190h-93v-152h-206v152h-328zM221 915h144v306z" />
<glyph horiz-adv-x="1058" d="M33 4v242l420 930h415v-883h146v-289h-146v-262h-313v262h-522zM309 293h246v543z" />
<glyph horiz-adv-x="1267" d="M41 829v246h98v25q0 201 60 297t192 96q131 0 301 -90l-102 -232q-82 33 -105 33q-45 0 -45 -82v-47h166v-246h-166v-829h-301v829h-98zM676 829v246h98v25q0 201 60 297t192 96q105 0 242 -70l-64 -249q-58 30 -84 30q-45 0 -45 -82v-47h166v-246h-166v-829h-301v829 h-98z" />
<glyph horiz-adv-x="1388" d="M47 596v125l232 455h217v-428h82v-152h-82v-125h-164v125h-285zM197 748h135v268zM442 0l400 1176h172l-396 -1176h-176zM866 84l80 127q71 -66 131 -66q37 0 60.5 24t23.5 62q0 36 -21.5 63.5t-62.5 27.5q-43 0 -90 -37l-90 55l29 365h379v-152h-240l-2 -94q24 8 59 8 q100 0 152.5 -66.5t52.5 -164.5q0 -106 -57 -177t-166 -71q-123 0 -238 96z" />
<glyph horiz-adv-x="1566" d="M41 829v246h98v25q0 202 67.5 297.5t217.5 95.5q121 0 262 -53v53h301v-530q60 68 110.5 101.5t119.5 33.5q140 0 217 -142.5t77 -416.5q0 -276 -77 -419t-217 -143q-69 0 -119.5 33.5t-110.5 100.5v-111h-301v1163q-1 0 -33.5 10t-51 15t-47 10.5t-46.5 5.5 q-68 0 -68 -98v-31h166v-246h-166v-829h-301v829h-98zM987 371q52 -123 121 -123q100 0 100 291q0 288 -100 288q-68 0 -121 -125v-331z" />
<glyph horiz-adv-x="634" d="M41 829v246h98v25q0 201 60 297t192 96q105 0 242 -70l-64 -249q-58 30 -84 30q-45 0 -45 -82v-47h166v-246h-166v-829h-301v829h-98z" />
<glyph horiz-adv-x="989" d="M68 203v194h100v1037h770v-295h-457v-279h359v-289h-359v-174h252v-194h-252v-203h-313v203h-100z" />
<glyph horiz-adv-x="886" d="M66 154v174h90v848h680v-273h-394v-184h308v-264h-308v-127h220v-174h-220v-154h-286v154h-90z" />
<glyph horiz-adv-x="647" d="M51 -68h66v621h491v-197h-282v-137h221v-194h-221v-93h155v-127h-155v-112h-209v112h-66v127z" />
<glyph horiz-adv-x="649" d="M51 901v127h66v621h491v-197h-282v-137h221v-195h-221v-92h155v-127h-155v-113h-209v113h-66z" />
<glyph horiz-adv-x="434" d="M45 1270v164h61q0 126 38.5 187.5t125.5 61.5q77 0 195 -55l-68 -155q-45 18 -63 18q-27 0 -27 -45v-12h101v-164h-101v-482h-201v482h-61z" />
<glyph horiz-adv-x="604" d="M33 356v197h536v-197h-161v-663h-209v663h-166z" />
<glyph horiz-adv-x="942" d="M104 0v1176h287v-177h49q239 0 346 -102.5t107 -290.5t-107 -289.5t-346 -101.5h-49v-215h-287zM391 477h53q78 0 119 28t41 101q0 74 -41 101.5t-119 27.5h-53v-258z" />
<glyph horiz-adv-x="817" d="M35 903v273h745v-273h-225v-903h-80q53 -93 53 -188q0 -97 -51.5 -146t-126.5 -49q-81 0 -139 47l55 162q36 -25 62 -25q55 0 55 72q0 50 -33 127h-82v903h-233z" />
<glyph horiz-adv-x="817" d="M35 903v273h745v-273h-225v-903h-287v903h-233zM115 1544h200l93 -145l92 145h200l-159 -287h-267z" />
<glyph horiz-adv-x="827" d="M39 903v273h745v-273h-225v-389h92v-174h-92v-340h-287v340h-94v174h94v389h-233z" />
<glyph horiz-adv-x="792" d="M80 262q0 58 7.5 104.5t27.5 90t52.5 72t86 46t125.5 17.5q82 0 143 -21.5t94 -57.5t48.5 -76t15.5 -85q0 -37 -10 -69.5t-20 -46.5l-9 -13q-31 -8 -57.5 -26.5t-26.5 -44.5q0 -18 15 -31t48.5 -34.5t59.5 -45.5q72 -72 72 -160q0 -86 -55 -144.5t-150 -58.5 q-100 0 -234 66l72 137q89 -43 123 -43q43 0 43 37q0 21 -37 47q-3 2 -18 10.5t-22.5 13.5t-23.5 16.5t-25.5 21.5t-21.5 26.5t-19 33t-12 39t-5 46.5q0 35 10 65.5t22 49t32 36.5t29.5 24t24.5 15q2 6 2 21q0 39 -23 64.5t-77 25.5q-59 0 -82.5 -40t-23.5 -142v-555h-201 v569z" />
<glyph horiz-adv-x="792" d="M80 788v570q0 58 7.5 104.5t27.5 90t52.5 72t86 46t125.5 17.5q82 0 143 -21.5t94 -57.5t48.5 -76t15.5 -85q0 -37 -10 -69.5t-20 -46.5l-9 -13q-31 -7 -57.5 -26.5t-26.5 -45.5q0 -18 15 -31t48.5 -34t59.5 -45q72 -72 72 -160q0 -86 -55 -144.5t-150 -58.5 q-100 0 -234 66l72 137q89 -43 123 -43q43 0 43 37q0 21 -37 47q-3 2 -18 10.5t-22.5 13.5t-23.5 16.5t-25.5 21.5t-21.5 26.5t-19 33t-12 39t-5 46.5q0 35 10 65.5t22 49t32 36.5t29.5 24t24.5 15q2 6 2 21q0 39 -23 64.5t-77 25.5q-59 0 -82.5 -40.5t-23.5 -142.5v-555 h-201z" />
<glyph horiz-adv-x="653" d="M45 16q0 164 48 250t138 86q29 0 55.5 -12.5t43 -26.5t43.5 -41v66h200v-645q0 -137 -52 -199.5t-177 -62.5q-140 0 -278 53l49 166q115 -47 184 -47q41 0 57.5 21t16.5 65v69q-39 -41 -69.5 -60.5t-72.5 -19.5q-90 0 -138 86.5t-48 251.5zM248 16q0 -157 55 -157 q37 0 70 67v176q-34 70 -70 70q-55 0 -55 -156z" />
<glyph horiz-adv-x="817" d="M35 903v273h745v-273h-225v-903h-287v903h-233z" />
<glyph horiz-adv-x="665" d="M45 895l96 158q52 -35 108.5 -61.5t90.5 -26.5q27 0 43 14.5t16 40.5q0 19 -15.5 38t-34.5 32.5t-59.5 40t-66.5 45.5q-77 53 -121.5 111.5t-44.5 137.5q0 102 68 170t192 68q132 0 287 -92l-98 -162q-116 64 -166 64q-28 0 -46 -15t-18 -39q0 -15 10 -30t30 -31 t38.5 -28t49 -31.5t47.5 -30.5q167 -111 167 -256q0 -96 -66.5 -167t-189.5 -71q-87 0 -170.5 35.5t-146.5 85.5z" />
<glyph horiz-adv-x="993" d="M94 424v752h287v-783q0 -66 24.5 -102.5t90.5 -36.5q68 0 92 36.5t24 102.5v783h287v-752q0 -79 -9 -140t-35 -120t-70 -97.5t-117 -61.5t-172 -23t-171.5 23t-116 61.5t-70 97.5t-35.5 120t-9 140zM231 1520h177q0 -40 23.5 -62t64.5 -22q43 0 67.5 22t24.5 62h174 q0 -123 -70 -193t-196 -70q-124 0 -194.5 70t-70.5 193z" />
<glyph horiz-adv-x="653" d="M45 1112q0 164 48 250t138 86q29 0 55.5 -12.5t43 -26.5t43.5 -41v66h200v-646q0 -137 -52 -199.5t-177 -62.5q-137 0 -278 54l49 165q115 -47 184 -47q41 0 57.5 21t16.5 65v70q-39 -41 -69.5 -60.5t-72.5 -19.5q-90 0 -138 86.5t-48 251.5zM248 1112q0 -158 55 -158 q37 0 70 68v176q-34 70 -70 70q-55 0 -55 -156z" />
<glyph horiz-adv-x="665" d="M45 -201l96 158q52 -35 108.5 -61.5t90.5 -26.5q27 0 43 14.5t16 40.5q0 19 -15.5 38t-34.5 32.5t-59.5 40t-66.5 45.5q-76 52 -121 111.5t-45 138.5q0 102 68 169.5t192 67.5q132 0 287 -92l-98 -162q-116 64 -166 64q-28 0 -46 -14.5t-18 -38.5q0 -15 10 -30t30.5 -31 t38.5 -28.5t49 -32t47 -30.5q167 -111 167 -256q0 -96 -66.5 -167t-189.5 -71q-87 0 -170.5 35.5t-146.5 85.5z" />
<glyph horiz-adv-x="892" d="M47 147l133 218q75 -48 152.5 -83.5t124.5 -35.5q37 0 59.5 19t22.5 54q0 21 -11 39.5t-35.5 38t-50 35.5t-70 44t-79.5 52q-50 35 -85 65.5t-70.5 72.5t-53.5 93t-18 109q0 138 94.5 232t263.5 94q195 0 397 -127l-133 -223q-172 84 -233 84q-37 0 -60.5 -19.5 t-23.5 -52.5q0 -20 11.5 -38.5t37.5 -39t49.5 -36t67.5 -43.5t71 -46q49 -33 86 -65t73 -74.5t55.5 -94t19.5 -108.5q0 -63 -21.5 -120.5t-63.5 -104.5t-112 -75.5t-158 -28.5q-122 0 -239 48.5t-201 116.5zM356 -543l90 168h-88v262h201l10 -290l-159 -218z" />
<glyph horiz-adv-x="382" d="M70 1649h245l-63 -570h-121zM94 788v216h197v-216h-197z" />
<glyph horiz-adv-x="382" d="M70 553h245l-63 -569h-121zM94 -92h197v-215h-197v215z" />
<glyph horiz-adv-x="892" d="M47 147l133 218q75 -48 152.5 -83.5t124.5 -35.5q37 0 59.5 19t22.5 54q0 21 -11 39.5t-35.5 38t-50 35.5t-70 44t-79.5 52q-50 35 -85 65.5t-70.5 72.5t-53.5 93t-18 109q0 138 94.5 232t263.5 94q195 0 397 -127l-133 -223q-172 84 -233 84q-37 0 -60.5 -19.5 t-23.5 -52.5q0 -20 11.5 -38.5t37.5 -39t49.5 -36t67.5 -43.5t71 -46q49 -33 86 -65t73 -74.5t55.5 -94t19.5 -108.5q0 -63 -21.5 -120.5t-63.5 -104.5t-112 -75.5t-158 -28.5q-122 0 -239 48.5t-201 116.5zM154 1257l159 287h267l159 -287h-200l-93 144l-92 -144h-200z" />
<glyph horiz-adv-x="892" d="M47 147l133 218q75 -48 152.5 -83.5t124.5 -35.5q37 0 59.5 19t22.5 54q0 21 -11 39.5t-35.5 38t-50 35.5t-70 44t-79.5 52q-50 35 -85 65.5t-70.5 72.5t-53.5 93t-18 109q0 138 94.5 232t263.5 94q195 0 397 -127l-133 -223q-172 84 -233 84q-37 0 -60.5 -19.5 t-23.5 -52.5q0 -20 11.5 -38.5t37.5 -39t49.5 -36t67.5 -43.5t71 -46q49 -33 86 -65t73 -74.5t55.5 -94t19.5 -108.5q0 -116 -72 -208.5t-205 -114.5q47 -85 47 -176q0 -97 -51.5 -146t-126.5 -49q-81 0 -139 47l55 162q36 -25 62 -25q55 0 55 72q0 38 -27 111 q-110 8 -213.5 54.5t-179.5 108.5z" />
<glyph horiz-adv-x="663" d="M80 -307v895h201v-320q35 30 53.5 43.5t50.5 27t66 13.5q67 0 103 -50t36 -142v-467h-201v424q0 61 -33 61q-37 0 -75 -63v-422h-201z" />
<glyph horiz-adv-x="892" d="M47 147l133 218q75 -48 152.5 -83.5t124.5 -35.5q37 0 59.5 19t22.5 54q0 21 -11 39.5t-35.5 38t-50 35.5t-70 44t-79.5 52q-50 35 -85 65.5t-70.5 72.5t-53.5 93t-18 109q0 138 94.5 232t263.5 94q195 0 397 -127l-133 -223q-172 84 -233 84q-37 0 -60.5 -19.5 t-23.5 -52.5q0 -20 11.5 -38.5t37.5 -39t49.5 -36t67.5 -43.5t71 -46q49 -33 86 -65t73 -74.5t55.5 -94t19.5 -108.5q0 -63 -21.5 -120.5t-63.5 -104.5t-112 -75.5t-158 -28.5q-122 0 -239 48.5t-201 116.5zM154 1544h200l92 -145l93 145h200l-159 -287h-267z" />
<glyph horiz-adv-x="382" d="M68 788l63 570h121l61 -570h-245zM92 1434v215h197v-215h-197z" />
<glyph horiz-adv-x="892" d="M47 147l133 218q75 -48 152.5 -83.5t124.5 -35.5q37 0 59.5 19t22.5 54q0 21 -11 39.5t-35.5 38t-50 35.5t-70 44t-79.5 52q-50 35 -85 65.5t-70.5 72.5t-53.5 93t-18 109q0 138 94.5 232t263.5 94q195 0 397 -127l-133 -223q-172 84 -233 84q-37 0 -60.5 -19.5 t-23.5 -52.5q0 -20 11.5 -38.5t37.5 -39t49.5 -36t67.5 -43.5t71 -46q49 -33 86 -65t73 -74.5t55.5 -94t19.5 -108.5q0 -63 -21.5 -120.5t-63.5 -104.5t-112 -75.5t-158 -28.5q-122 0 -239 48.5t-201 116.5zM266 1257l178 287h314l-248 -287h-244z" />
<glyph horiz-adv-x="892" d="M47 147l133 218q75 -48 152.5 -83.5t124.5 -35.5q37 0 59.5 19t22.5 54q0 21 -11 39.5t-35.5 38t-50 35.5t-70 44t-79.5 52q-50 35 -85 65.5t-70.5 72.5t-53.5 93t-18 109q0 138 94.5 232t263.5 94q195 0 397 -127l-133 -223q-172 84 -233 84q-37 0 -60.5 -19.5 t-23.5 -52.5q0 -20 11.5 -38.5t37.5 -39t49.5 -36t67.5 -43.5t71 -46q49 -33 86 -65t73 -74.5t55.5 -94t19.5 -108.5q0 -63 -21.5 -120.5t-63.5 -104.5t-112 -75.5t-158 -28.5q-122 0 -239 48.5t-201 116.5z" />
<glyph horiz-adv-x="737" d="M94 788v861h260q174 0 250 -69t76 -204q0 -190 -150 -248l152 -340h-217l-135 314h-31v-314h-205zM299 1282h61q53 0 83 20.5t30 73.5t-29.5 72.5t-83.5 19.5h-61v-186z" />
<glyph horiz-adv-x="737" d="M94 -307v860h260q174 0 250 -68.5t76 -203.5q0 -190 -150 -248l152 -340h-217l-135 313h-31v-313h-205zM299 186h61q113 0 113 95q0 53 -29.5 72.5t-83.5 19.5h-61v-187z" />
<glyph horiz-adv-x="985" d="M104 0v1176h361q241 0 347 -94.5t106 -280.5q0 -258 -205 -336l207 -465h-304l-186 428h-39v-428h-287zM383 -543l90 168h-88v262h201l10 -290l-160 -218zM391 676h82q75 0 115.5 27t40.5 98t-40.5 99t-115.5 28h-82v-252z" />
<glyph horiz-adv-x="985" d="M104 0v1176h361q241 0 347 -94.5t106 -280.5q0 -258 -205 -336l207 -465h-304l-186 428h-39v-428h-287zM219 1544h201l92 -145l92 145h201l-160 -287h-266zM391 676h82q75 0 115.5 27t40.5 98t-40.5 99t-115.5 28h-82v-252z" />
<glyph horiz-adv-x="985" d="M104 0v1176h361q241 0 347 -94.5t106 -280.5q0 -258 -205 -336l207 -465h-304l-186 428h-39v-428h-287zM330 1257l178 287h313l-248 -287h-243zM391 676h82q75 0 115.5 27t40.5 98t-40.5 99t-115.5 28h-82v-252z" />
<glyph horiz-adv-x="358" d="M76 408v178h207v-178h-207zM78 -307v645h203v-645h-203z" />
<glyph horiz-adv-x="985" d="M104 0v1176h361q241 0 347 -94.5t106 -280.5q0 -258 -205 -336l207 -465h-304l-186 428h-39v-428h-287zM391 676h82q75 0 115.5 27t40.5 98t-40.5 99t-115.5 28h-82v-252z" />
<glyph horiz-adv-x="765" d="M53 1219q0 444 330 444t330 -444q0 -280 -135 -385l104 -109l-135 -158l-164 207q-330 0 -330 445zM268 1219q0 -77 9 -128t35.5 -83.5t70.5 -32.5q66 0 91.5 63t25.5 181t-25.5 180.5t-91.5 62.5q-34 0 -57 -17.5t-35.5 -51t-17.5 -75.5t-5 -99z" />
<glyph horiz-adv-x="382" d="M68 -307l63 569h121l61 -569h-245zM92 338v215h197v-215h-197z" />
<glyph horiz-adv-x="516" d="M90 0l86 776h166l84 -776h-336zM123 879v297h270v-297h-270z" />
<glyph horiz-adv-x="765" d="M53 123q0 444 330 444t330 -444q0 -280 -135 -385l104 -109l-135 -157l-164 206q-330 0 -330 445zM268 123q0 -77 9 -128t35.5 -83.5t70.5 -32.5q66 0 91.5 63t25.5 181t-25.5 181t-91.5 63q-44 0 -70.5 -32.5t-35.5 -83.5t-9 -128z" />
<glyph horiz-adv-x="993" d="M94 424v752h287v-783q0 -66 24.5 -102.5t90.5 -36.5q68 0 92 36.5t24 102.5v783h287v-752q0 -79 -9 -140t-35 -120t-70 -97.5t-117 -61.5t-172 -23t-171.5 23t-116 61.5t-70 97.5t-35.5 120t-9 140zM203 1257l159 287h267l159 -287h-200l-92 144l-93 -144h-200z" />
<glyph horiz-adv-x="1034" d="M61 588q0 606 457 606t457 -606q0 -386 -189 -527l144 -147l-187 -215l-225 283q-457 0 -457 606zM354 588q0 -163 35.5 -248.5t128.5 -85.5q48 0 81 23.5t50 70.5t24 104t7 136t-7 135t-24 103t-50 70.5t-81 23.5t-81.5 -23.5t-51 -70t-24.5 -103.5t-7 -135z" />
<glyph horiz-adv-x="698" d="M94 788v861h244q326 0 326 -289q0 -139 -76.5 -213t-249.5 -74h-35v-285h-209zM303 1266h39q53 0 82 20t29 74t-29 74t-82 20h-39v-188z" />
<glyph horiz-adv-x="698" d="M94 -307v860h244q326 0 326 -289q0 -139 -76.5 -213t-249.5 -74h-35v-284h-209zM303 170h39q53 0 82 20t29 74t-29 74t-82 20h-39v-188z" />
<glyph horiz-adv-x="356" d="M-23 -434q72 35 86.5 59t14.5 92v621h201v-602q0 -85 -3.5 -120.5t-26.5 -80t-71.5 -71t-138.5 -58.5zM76 408v178h207v-178h-207z" />
<glyph horiz-adv-x="512" d="M88 1176h336l-86 -777h-166zM121 0v297h270v-297h-270z" />
<glyph horiz-adv-x="942" d="M104 0v1176h336q453 0 453 -396q0 -188 -107 -289.5t-346 -101.5h-49v-389h-287zM391 651h55q75 0 116.5 28t41.5 101q0 74 -41 101.5t-117 27.5h-55v-258z" />
<glyph horiz-adv-x="1034" d="M61 588q0 606 457 606t457 -606t-457 -606t-457 606zM217 1337q46 122 75 163q47 64 111 65q35 0 79 -24.5t80.5 -49.5t55.5 -25q37 0 74 95l123 -72q-17 -47 -25.5 -68t-27 -58.5t-34.5 -54.5t-41 -31.5t-54 -14.5q-36 0 -80 24.5t-81 49t-56 24.5q-37 0 -74 -94z M354 588q0 -163 35.5 -248.5t128.5 -85.5q48 0 81 23.5t50 70.5t24 104t7 136t-7 135t-24 103t-50 70.5t-81 23.5t-81.5 -23.5t-51 -70t-24.5 -103.5t-7 -135z" />
<glyph horiz-adv-x="765" d="M53 1219q0 444 330 444t330 -444q0 -445 -330 -445t-330 445zM268 1219q0 -77 9 -128t35.5 -83.5t70.5 -32.5q66 0 91.5 63t25.5 181t-25.5 180.5t-91.5 62.5q-34 0 -57 -17.5t-35.5 -51t-17.5 -75.5t-5 -99z" />
<glyph horiz-adv-x="628" d="M80 -307v895h201v-438l88 188h229l-166 -254l189 -391h-209l-95 213l-36 -58v-155h-201z" />
<glyph horiz-adv-x="628" d="M80 788v895h201v-438l88 189h229l-166 -254l189 -392h-209l-95 213l-36 -57v-156h-201z" />
<glyph horiz-adv-x="1034" d="M61 588q0 606 457 606q137 0 234 -57l22 39h187l-91 -150q105 -153 105 -438q0 -606 -457 -606q-142 0 -233 55l-23 -37h-184l86 147q-103 152 -103 441zM338 1257l178 287h313l-247 -287h-244zM354 588q0 -80 4 -115l246 418q-37 29 -86 29q-48 0 -81.5 -23.5t-51 -70 t-24.5 -103.5t-7 -135zM430 283q37 -29 88 -29q48 0 81 23.5t50 70.5t24 104t7 136q0 40 -4 106z" />
<glyph horiz-adv-x="993" d="M94 424v752h287v-783q0 -66 24.5 -102.5t90.5 -36.5q68 0 92 36.5t24 102.5v783h287v-752q0 -79 -9 -140t-35 -120t-70 -97.5t-117 -61.5t-172 -23t-171.5 23t-116 61.5t-70 97.5t-35.5 120t-9 140zM246 1278v250h215v-250h-215zM530 1278v250h215v-250h-215z" />
<glyph horiz-adv-x="1034" d="M61 588q0 606 457 606t457 -606t-457 -606t-457 606zM291 1309v192h454v-192h-454zM354 588q0 -163 35.5 -248.5t128.5 -85.5q48 0 81 23.5t50 70.5t24 104t7 136t-7 135t-24 103t-50 70.5t-81 23.5t-81.5 -23.5t-51 -70t-24.5 -103.5t-7 -135z" />
<glyph horiz-adv-x="765" d="M53 123q0 444 330 444t330 -444q0 -445 -330 -445t-330 445zM268 123q0 -77 9 -128t35.5 -83.5t70.5 -32.5q66 0 91.5 63t25.5 181t-25.5 181t-91.5 63q-44 0 -70.5 -32.5t-35.5 -83.5t-9 -128z" />
<glyph horiz-adv-x="1034" d="M61 588q0 606 457 606t457 -606t-457 -606t-457 606zM262 1257l117 287h246l-189 -287h-174zM354 588q0 -163 35.5 -248.5t128.5 -85.5q48 0 81 23.5t50 70.5t24 104t7 136t-7 135t-24 103t-50 70.5t-81 23.5t-81.5 -23.5t-51 -70t-24.5 -103.5t-7 -135zM555 1257 l117 287h246l-189 -287h-174z" />
<glyph horiz-adv-x="1034" d="M61 588q0 606 457 606t457 -606t-457 -606t-457 606zM207 1544h313l178 -287h-241zM354 588q0 -163 35.5 -248.5t128.5 -85.5q48 0 81 23.5t50 70.5t24 104t7 136t-7 135t-24 103t-50 70.5t-81 23.5t-81.5 -23.5t-51 -70t-24.5 -103.5t-7 -135z" />
<glyph horiz-adv-x="993" d="M94 424v752h287v-783q0 -66 24.5 -102.5t90.5 -36.5q68 0 92 36.5t24 102.5v783h287v-752q0 -79 -9 -140t-35 -120t-70 -97.5t-117 -61.5t-172 -23t-171.5 23t-116 61.5t-70 97.5t-35.5 120t-9 140zM184 1544h314l178 -287h-242z" />
<glyph horiz-adv-x="356" d="M78 -307v895h201v-895h-201z" />
<glyph horiz-adv-x="993" d="M94 424v752h287v-783q0 -66 24.5 -102.5t90.5 -36.5q68 0 92 36.5t24 102.5v783h287v-752q0 -79 -9 -140t-35 -120t-70 -97.5t-117 -61.5t-172 -23t-171.5 23t-116 61.5t-70 97.5t-35.5 120t-9 140zM242 1257l116 287h246l-188 -287h-174zM535 1257l116 287h246 l-188 -287h-174z" />
<glyph horiz-adv-x="819" d="M82 0v213q4 2 10.5 5t24 15t33.5 27t33.5 40.5t27.5 55.5h-117v142h127q-10 49 -14 63h-113v146h56q-41 102 -41 200q0 135 73.5 211t208.5 76q173 0 369 -158l-135 -190q-102 82 -168 82q-62 0 -62 -68q0 -11 1 -21.5t4 -23t5 -20.5t7.5 -22t8 -20t10 -23.5t9.5 -22.5 h228v-146h-183q0 -3 3.5 -26t3.5 -37h176v-142h-193q-18 -55 -47 -92h317v-264h-663z" />
<glyph horiz-adv-x="602" d="M68 -152q3 1 8 3.5t18.5 12t25 21.5t24 33t18.5 45h-86v92h92q0 2 -12 49h-80v95h43q-33 83 -33 157q0 99 53 155t150 56q127 0 268 -116l-100 -140q-72 62 -119 62q-43 0 -43 -49q0 -15 4 -32t8.5 -28.5t13.5 -32t13 -32.5h155v-95h-129q5 -40 5 -49h124v-92h-133 q-11 -44 -37 -78h228v-192h-479v155z" />
<glyph horiz-adv-x="604" d="M68 788v156q3 1 8 3.5t18.5 12t25 21.5t24 33t18.5 45h-86v92h92q0 2 -12 49h-80v94h43q-33 82 -33 158q0 99 53 155t150 56q126 0 268 -117l-100 -139q-71 61 -119 61q-43 0 -43 -49q0 -15 4 -32t8.5 -28.5t13.5 -32t13 -32.5h155v-94h-129q5 -40 5 -49h124v-92h-133 q-11 -44 -37 -78h228v-193h-479z" />
<glyph horiz-adv-x="1034" d="M61 588q0 606 457 606t457 -606t-457 -606t-457 606zM268 1278v250h215v-250h-215zM354 588q0 -163 35.5 -248.5t128.5 -85.5q48 0 81 23.5t50 70.5t24 104t7 136t-7 135t-24 103t-50 70.5t-81 23.5t-81.5 -23.5t-51 -70t-24.5 -103.5t-7 -135zM553 1278v250h215v-250 h-215z" />
<glyph horiz-adv-x="1034" d="M61 588q0 606 457 606t457 -606t-457 -606t-457 606zM225 1257l160 287h266l160 -287h-201l-92 144l-92 -144h-201zM354 588q0 -163 35.5 -248.5t128.5 -85.5q48 0 81 23.5t50 70.5t24 104t7 136t-7 135t-24 103t-50 70.5t-81 23.5t-81.5 -23.5t-51 -70t-24.5 -103.5 t-7 -135z" />
<glyph horiz-adv-x="753" d="M86 2v551h209v-573q0 -48 16.5 -74.5t63.5 -26.5q49 0 66.5 26.5t17.5 74.5v573h207v-551q0 -74 -11 -127t-41 -100.5t-89.5 -72t-149.5 -24.5q-71 0 -123.5 17t-84 45t-50 71.5t-25 88t-6.5 102.5z" />
<glyph horiz-adv-x="1034" d="M61 588q0 606 457 606t457 -606t-457 -606t-457 606zM252 1520h176q0 -40 23.5 -62t64.5 -22q43 0 67.5 22t24.5 62h174q0 -123 -70 -193t-196 -70q-124 0 -194 70t-70 193zM354 588q0 -163 35.5 -248.5t128.5 -85.5q48 0 81 23.5t50 70.5t24 104t7 136t-7 135t-24 103 t-50 70.5t-81 23.5t-81.5 -23.5t-51 -70t-24.5 -103.5t-7 -135z" />
<glyph horiz-adv-x="993" d="M94 424v752h287v-783q0 -66 24.5 -102.5t90.5 -36.5q68 0 92 36.5t24 102.5v783h287v-752q0 -79 -9 -140t-35 -120t-70 -97.5t-117 -61.5t-172 -23t-171.5 23t-116 61.5t-70 97.5t-35.5 120t-9 140zM268 1309v192h455v-192h-455z" />
<glyph horiz-adv-x="1034" d="M61 588q0 606 457 606t457 -606t-457 -606t-457 606zM338 1257l178 287h313l-247 -287h-244zM354 588q0 -163 35.5 -248.5t128.5 -85.5q48 0 81 23.5t50 70.5t24 104t7 136t-7 135t-24 103t-50 70.5t-81 23.5t-81.5 -23.5t-51 -70t-24.5 -103.5t-7 -135z" />
<glyph horiz-adv-x="1439" d="M61 588q0 606 457 606q83 0 166 -27v9h680v-273h-393v-182h317v-264h-317v-187h399v-270h-686v6q-84 -24 -166 -24q-457 0 -457 606zM354 588q0 -163 35.5 -248.5t128.5 -85.5q48 0 81 23.5t50 70.5t24 104t7 136t-7 135t-24 103t-50 70.5t-81 23.5t-81.5 -23.5t-51 -70 t-24.5 -103.5t-7 -135z" />
<glyph horiz-adv-x="929" d="M80 -307v645h201v-76q67 90 149 90q45 0 78.5 -28t48.5 -78q70 106 162 106q66 0 102.5 -50.5t36.5 -141.5v-467h-201v403q0 41 -5.5 61.5t-22.5 20.5q-37 0 -60 -59v-426h-200v403q0 42 -5.5 62t-25.5 20q-33 0 -57 -57v-428h-201z" />
<glyph horiz-adv-x="993" d="M94 424v752h287v-783q0 -66 24.5 -102.5t90.5 -36.5q68 0 92 36.5t24 102.5v783h287v-752q0 -84 -11 -148.5t-38.5 -123.5t-81.5 -98.5t-133 -57.5q-121 -107 -121 -186q0 -17 4 -29.5t12.5 -20t16.5 -12t19.5 -5.5t18.5 -1.5t17.5 0t11.5 0.5l-24 -148q-84 0 -125 11 q-131 36 -131 172q0 117 112 207q-87 5 -150.5 30.5t-102 64t-61 96t-30.5 116t-8 133.5z" />
<glyph horiz-adv-x="585" d="M43 12q0 162 64.5 251t187.5 89q119 0 181.5 -79.5t62.5 -209.5q0 -25 -2.5 -48.5t-4.5 -34.5l-2 -11h-284q3 -64 17.5 -94.5t49.5 -30.5q40 0 152 68l76 -133q-145 -101 -256 -101q-108 0 -175 83.5t-67 250.5zM246 84h112q-2 58 -13 84.5t-42 26.5q-29 0 -41.5 -26.5 t-15.5 -84.5z" />
<glyph horiz-adv-x="1034" d="M61 588q0 606 457 606t457 -606t-457 -606t-457 606zM354 588q0 -163 35.5 -248.5t128.5 -85.5q48 0 81 23.5t50 70.5t24 104t7 136t-7 135t-24 103t-50 70.5t-81 23.5t-81.5 -23.5t-51 -70t-24.5 -103.5t-7 -135z" />
<glyph horiz-adv-x="1026" d="M104 0v1176h289l244 -639v639h287v-1176h-289l-244 639v-639h-287zM221 1337q18 47 26.5 68.5t28 59t35.5 54.5t42 31.5t55 14.5q35 0 79 -24.5t80.5 -49.5t55.5 -25q36 0 73 95l123 -72q-17 -47 -25.5 -68t-27 -58.5t-34.5 -54.5t-41 -31.5t-54 -14.5q-36 0 -80 24.5 t-81 49t-56 24.5q-37 0 -74 -94z" />
<glyph horiz-adv-x="780" d="M94 788v861h211l172 -461v461h207v-861h-209l-172 459v-459h-209z" />
<glyph horiz-adv-x="780" d="M94 -307v860h211l172 -461v461h207v-860h-209l-172 459v-459h-209z" />
<glyph horiz-adv-x="1026" d="M104 0v1176h289l244 -639v639h287v-1176h-289l-244 639v-639h-287zM408 -543l90 168h-88v262h200l11 -290l-160 -218z" />
<glyph horiz-adv-x="1026" d="M104 0v1176h289l244 -639v639h287v-1176h-289l-244 639v-639h-287zM229 1544h201l92 -145l92 145h201l-160 -287h-266z" />
<glyph horiz-adv-x="1026" d="M104 0v1176h289l244 -639v639h287v-1176h-289l-244 639v-639h-287zM334 1257l178 287h313l-247 -287h-244z" />
<glyph horiz-adv-x="1026" d="M104 0v1176h289l244 -639v639h287v-1176h-289l-244 639v-639h-287z" />
<glyph horiz-adv-x="653" d="M45 569q0 134 71 219.5t199 85.5q141 0 212 -106t71 -276q0 -223 -112.5 -364.5t-299.5 -141.5q-27 0 -53 3.5t-39 6.5l-12 4l49 180q24 -8 53 -8q61 0 113 44t76 138q-49 -53 -121 -53q-90 0 -148.5 74t-58.5 194zM250 582q0 -49 17 -80t50 -31q25 0 44.5 15.5 t29.5 37.5q-1 85 -22.5 123.5t-53.5 38.5q-35 0 -50 -31.5t-15 -72.5z" />
<glyph horiz-adv-x="1028" d="M63 373q0 140 63 236t167 167q-164 132 -164 332q0 150 102.5 249t282.5 99t282.5 -99t102.5 -249q0 -199 -164 -334q48 -33 85 -69t71.5 -84.5t53 -111.5t18.5 -136q0 -178 -116.5 -287t-332.5 -109q-218 0 -334.5 109t-116.5 287zM379 393q0 -70 36.5 -111.5 t98.5 -41.5t98.5 41.5t36.5 111.5q0 142 -135 242q-135 -102 -135 -242zM414 1085q0 -108 100 -180q100 75 100 180q0 45 -25.5 81t-74.5 36t-74.5 -36t-25.5 -81z" />
<glyph horiz-adv-x="976" d="M45 688q0 222 113 364t313 142q91 0 165 -32.5t125 -89.5t86 -136.5t51.5 -173t16.5 -199.5q1 -250 -78.5 -442.5t-226.5 -299t-338 -106.5q-44 0 -85.5 6t-60.5 11l-20 6l74 272q39 -12 88 -12q100 0 185 83t122 259q-75 -96 -198 -96q-145 0 -238.5 124t-93.5 320z M358 707q0 -90 28.5 -146.5t86.5 -56.5q43 0 75.5 28.5t51.5 71.5q-1 156 -37 231.5t-94 75.5q-57 0 -84 -62t-27 -142z" />
<glyph horiz-adv-x="673" d="M49 799q0 148 141 241q-98 79 -98 195q0 92 65 152.5t179 60.5q116 0 181 -60.5t65 -152.5q0 -116 -101 -195q144 -95 144 -241q0 -107 -74.5 -173.5t-214.5 -66.5q-138 0 -212.5 66.5t-74.5 173.5zM258 815q0 -37 21 -60.5t57 -23.5q37 0 58.5 23t21.5 61q0 77 -80 133 q-78 -55 -78 -133zM279 1221q0 -59 57 -99q57 40 57 99q0 23 -14.5 41t-42.5 18t-42.5 -18t-14.5 -41z" />
<glyph horiz-adv-x="673" d="M49 225q0 149 141 242q-98 79 -98 195q0 91 65 151.5t179 60.5q116 0 181 -60t65 -152q0 -116 -101 -195q144 -95 144 -242q0 -107 -74.5 -173t-214.5 -66q-138 0 -212.5 66t-74.5 173zM258 242q0 -37 21 -60.5t57 -23.5q37 0 58.5 23t21.5 61q0 77 -80 133 q-78 -55 -78 -133zM279 647q0 -58 57 -98q57 40 57 98q0 23 -14.5 41.5t-42.5 18.5t-42.5 -18.5t-14.5 -41.5z" />
<glyph horiz-adv-x="993" d="M94 424v752h287v-783q0 -66 24.5 -102.5t90.5 -36.5q68 0 92 36.5t24 102.5v783h287v-752q0 -79 -9 -140t-35 -120t-70 -97.5t-117 -61.5t-172 -23t-171.5 23t-116 61.5t-70 97.5t-35.5 120t-9 140zM289 1444q0 85 60.5 146t146.5 61t147.5 -61t61.5 -146q0 -87 -61 -147 t-148 -60t-147 60t-60 147zM428 1444q0 -29 19.5 -48.5t48.5 -19.5t49 19.5t20 48.5q0 28 -20 47.5t-49 19.5t-48.5 -19.5t-19.5 -47.5z" />
<glyph horiz-adv-x="663" d="M80 -307v645h201v-68q43 39 82 60.5t88 21.5q67 0 103 -50t36 -142v-467h-201v424q0 61 -33 61q-37 0 -75 -63v-422h-201z" />
<glyph horiz-adv-x="753" d="M86 1098v551h209v-574q0 -48 16.5 -74t63.5 -26q50 0 67 26t17 74v574h207v-551q0 -74 -11 -127t-41 -100.5t-89.5 -72t-149.5 -24.5q-71 0 -123.5 17t-84 45t-50 71.5t-25 88t-6.5 102.5z" />
<glyph horiz-adv-x="993" d="M94 424v752h287v-783q0 -66 24.5 -102.5t90.5 -36.5q68 0 92 36.5t24 102.5v783h287v-752q0 -79 -9 -140t-35 -120t-70 -97.5t-117 -61.5t-172 -23t-171.5 23t-116 61.5t-70 97.5t-35.5 120t-9 140zM195 1337q46 122 75 163q47 64 111 65q35 0 79 -24.5t80.5 -49.5 t55.5 -25q37 0 74 95l123 -72q-17 -46 -25.5 -68t-27 -58.5t-35 -54t-41.5 -32t-54 -14.5q-36 0 -80 24.5t-81 49t-56 24.5q-37 0 -74 -94z" />
<glyph horiz-adv-x="878" d="M94 788v861h211l133 -412l133 412h211v-861h-209v447l-92 -303h-86l-92 303v-447h-209z" />
<glyph horiz-adv-x="878" d="M94 -307v860h211l133 -412l133 412h211v-860h-209v446l-92 -303h-86l-92 303v-446h-209z" />
<glyph horiz-adv-x="954" d="M63 242v229h140l26 234h-114v229h141l27 242h204l-26 -242h108l27 242h205l-27 -242h115v-229h-139l-27 -234h117v-229h-142l-24 -242h-209l27 242h-107l-27 -242h-206l26 242h-115zM410 471h106l27 234h-107z" />
<glyph horiz-adv-x="698" d="M55 37h99l18 170h-82v170h100l19 176h151l-18 -176h74l20 176h150l-19 -176h80v-170h-98l-19 -170h82v-168h-100l-18 -176h-152l18 176h-73l-19 -176h-151l18 176h-80v168zM305 37h74l18 170h-73z" />
<glyph horiz-adv-x="700" d="M55 965v168h99l18 170h-82v170h100l19 176h151l-18 -176h74l20 176h150l-19 -176h80v-170h-98l-19 -170h82v-168h-100l-18 -177h-152l18 177h-73l-19 -177h-151l18 177h-80zM305 1133h74l18 170h-73z" />
<glyph horiz-adv-x="1161" d="M104 0v1176h291l187 -566l184 566h293v-1176h-287v627l-133 -430h-117l-131 426v-623h-287z" />
<glyph horiz-adv-x="606" d="M94 788v861h209v-664h272v-197h-481z" />
<glyph horiz-adv-x="819" d="M37 299v276l80 56v545h286v-345l156 111v-280l-156 -109v-283h379v-270h-665v354z" />
<glyph horiz-adv-x="606" d="M94 -307v860h209v-664h272v-196h-481z" />
<glyph horiz-adv-x="808" d="M104 0v1176h287v-906h379v-270h-666zM512 506v250h215v-250h-215z" />
<glyph horiz-adv-x="806" d="M104 0v1176h287v-906h379v-270h-666zM324 -543l90 168h-88v262h200l11 -290l-160 -218z" />
<glyph horiz-adv-x="983" d="M23 1176h315l151 -799l156 799h313l-309 -1176h-317z" />
<glyph horiz-adv-x="806" d="M104 0v1176h287v-906h379v-270h-666zM430 745l90 168h-88v263h201l10 -291l-160 -217z" />
<glyph horiz-adv-x="806" d="M66 1257l178 287h313l-248 -287h-243zM104 0v1176h287v-906h379v-270h-666z" />
<glyph horiz-adv-x="618" d="M43 16q0 162 66.5 249t199.5 87q269 0 269 -338q0 -163 -66.5 -249.5t-202.5 -86.5q-133 0 -199.5 87t-66.5 251zM246 16q0 -85 13.5 -125.5t49.5 -40.5q38 0 52 40t14 124t-14 125t-52 41q-36 0 -49.5 -40.5t-13.5 -123.5z" />
<glyph horiz-adv-x="806" d="M104 0v1176h287v-906h379v-270h-666z" />
<glyph horiz-adv-x="739" d="M94 788v861h209v-303l168 303h254l-254 -387l252 -474h-248l-133 277l-39 -59v-218h-209z" />
<glyph horiz-adv-x="544" d="M12 719l191 141h198v-860h-204v649l-97 -67z" />
<glyph horiz-adv-x="544" d="M12 1292l191 142h198v-861h-204v650l-97 -68z" />
<glyph horiz-adv-x="724" d="M12 950l299 226h299v-1176h-311v856l-154 -117z" />
<glyph horiz-adv-x="704" d="M14 553h232l106 -580l109 580h229l-223 -860h-229z" />
<glyph horiz-adv-x="706" d="M14 1649h232l106 -580l109 580h229l-223 -861h-229z" />
<glyph horiz-adv-x="1214" d="M39 1063l160 113h157v-705h-163v539l-87 -58zM268 0l400 1176h176l-400 -1176h-176zM674 184q0 123 123 199q-86 65 -86 160q0 75 55 124.5t152 49.5q96 0 151 -49.5t55 -124.5q0 -94 -88 -160q125 -77 125 -199q0 -88 -63 -142t-180 -54t-180.5 54t-63.5 142zM840 197 q0 -32 21.5 -52t56.5 -20t56 20t21 52q0 64 -77 116q-78 -50 -78 -116zM860 532q0 -53 58 -88q55 35 55 88q0 20 -14.5 36t-40.5 16q-27 0 -42.5 -16t-15.5 -36z" />
<glyph horiz-adv-x="1220" d="M39 1063l160 113h157v-705h-163v539l-87 -58zM268 0l400 1176h176l-400 -1176h-176zM692 84l80 127q75 -66 133 -66q35 0 57.5 24t22.5 62q0 37 -20 64t-62 27q-45 0 -88 -37l-90 55l29 365h379v-152h-240l-2 -92q27 6 57 6q100 0 152.5 -67.5t52.5 -166.5 q0 -105 -56.5 -175t-166.5 -70q-123 0 -238 96z" />
<glyph horiz-adv-x="739" d="M94 -307v860h209v-303l168 303h254l-254 -387l252 -473h-248l-133 276l-39 -59v-217h-209z" />
<glyph horiz-adv-x="1210" d="M39 1063l162 113h155v-705h-163v539l-84 -58zM270 0l398 1176h176l-398 -1176h-176zM690 0v76q0 91 45.5 159t116.5 130q5 4 20 17.5t20 18.5t18 17t18 17.5t14.5 16t13 17t8.5 15.5t7 16.5t2 15.5q0 22 -16 34.5t-44 12.5q-51 0 -131 -59l-77 114q25 19 39 29t47.5 30 t70.5 30t76 10q97 0 150 -57.5t53 -135.5q0 -34 -12.5 -69.5t-27.5 -60t-41 -53.5t-39 -41t-36 -32q-34 -29 -50.5 -44.5t-30 -35.5t-13.5 -38h250v-150h-451z" />
<glyph horiz-adv-x="1318" d="M33 1176h323l84 -646l113 646h211l108 -650l89 650h323l-242 -1176h-268l-117 676l-116 -676h-267z" />
<glyph horiz-adv-x="993" d="M104 0v1176h287v-416l236 416h350l-352 -529l350 -647h-340l-189 381l-55 -84v-297h-287zM383 -543l90 168h-88v262h201l10 -290l-160 -218z" />
<glyph horiz-adv-x="1204" d="M39 1063l162 113h155v-705h-163v539l-84 -58zM270 0l398 1176h176l-398 -1176h-176zM618 125v127l230 453h219v-429h80v-151h-80v-125h-166v125h-283zM770 276h131v263z" />
<glyph horiz-adv-x="1183" d="M39 1063l160 113h157v-705h-163v539l-87 -58zM268 0l400 1176h176l-400 -1176h-176zM651 301q0 183 96 299.5t250 116.5q24 0 46.5 -3t32.5 -6l11 -3l-38 -144q-23 6 -50 6q-55 0 -101.5 -37.5t-68.5 -119.5q47 47 113 47q79 0 129.5 -61t50.5 -158q0 -109 -61.5 -179.5 t-167.5 -70.5q-120 0 -181 87t-61 226zM817 272q3 -135 76 -135q33 0 48 27t15 63q0 95 -65 95q-26 0 -45.5 -15t-28.5 -35z" />
<glyph horiz-adv-x="993" d="M104 0v1176h287v-416l236 416h350l-352 -529l350 -647h-340l-189 381l-55 -84v-297h-287z" />
<glyph horiz-adv-x="1318" d="M33 1176h323l84 -646l113 646h211l108 -650l89 650h323l-242 -1176h-268l-117 676l-116 -676h-267zM479 1257l178 287h314l-248 -287h-244z" />
<glyph horiz-adv-x="1206" d="M39 1063l162 113h155v-705h-163v539l-84 -58zM270 0l398 1176h176l-398 -1176h-176zM680 82l78 119q92 -58 145 -58q34 0 57 19t23 51t-26.5 52.5t-55.5 26t-59 5.5h-19v147h23q40 0 76 17.5t36 54.5q0 18 -14.5 32.5t-42.5 14.5q-54 0 -125 -53l-71 111q110 96 231 96 q88 0 138 -49.5t50 -120.5q0 -100 -96 -158q54 -24 86.5 -72t32.5 -112q0 -40 -12 -76.5t-36.5 -69t-68.5 -52t-102 -19.5q-126 0 -248 94z" />
<glyph horiz-adv-x="395" d="M-8 721q39 18 59 31t30 31.5t11.5 33t1.5 49.5v783h209v-768v-52.5t-2 -44t-5 -40t-9 -34t-14.5 -32t-22 -27t-31 -27t-41.5 -24.5t-53 -26t-66 -25z" />
<glyph horiz-adv-x="395" d="M-8 -375q72 33 87 58t15 88v782h209v-768v-52.5t-2 -44t-5 -40t-9 -34t-14.5 -32t-22 -27t-31 -27t-41.5 -24.5t-53 -26t-66 -25z" />
<glyph horiz-adv-x="497" d="M-45 1257l160 287h266l160 -287h-201l-92 144l-92 -144h-201zM-35 -92q36 17 59.5 30t39.5 28.5t24.5 26t12.5 32.5t4.5 36.5t0.5 47.5v1067h287v-1051q0 -69 -1 -99.5t-6.5 -78t-19 -70t-36 -55t-59.5 -53.5t-88.5 -45.5t-123.5 -49.5z" />
<glyph horiz-adv-x="497" d="M-35 -92q36 17 59.5 30t39.5 28.5t24.5 26t12.5 32.5t4.5 36.5t0.5 47.5v1067h287v-1051q0 -69 -1 -99.5t-6.5 -78t-19 -70t-36 -55t-59.5 -53.5t-88.5 -45.5t-123.5 -49.5z" />
<glyph horiz-adv-x="911" d="M55 147l133 218q75 -48 152.5 -83.5t124.5 -35.5q37 0 59.5 19t22.5 54q0 21 -11 39.5t-35.5 38t-50 35.5t-70 44t-79.5 52q-50 35 -85 65.5t-70.5 72.5t-53.5 93t-18 109q0 124 76.5 213t216.5 109v156h192v-166q123 -24 270 -113l-133 -223q-172 84 -233 84 q-37 0 -60.5 -19.5t-23.5 -52.5q0 -20 11.5 -38.5t37.5 -39t49.5 -36t67.5 -43.5t71 -46q49 -33 86 -65t73 -74.5t55.5 -94t19.5 -108.5q0 -119 -75 -212.5t-216 -112.5v-154h-192v164q-174 37 -312 151z" />
<glyph horiz-adv-x="493" d="M-55 1337q46 122 75 163q47 64 111 65q35 0 79 -24.5t80.5 -49.5t55.5 -25q37 0 74 95l123 -72q-17 -46 -25.5 -68t-27 -58.5t-35 -54t-41.5 -32t-54 -14.5q-36 0 -80 24.5t-81 49t-56 24.5q-36 0 -73 -94zM104 0v1176h287v-1176h-287z" />
<glyph horiz-adv-x="393" d="M92 788v861h209v-861h-209z" />
<glyph horiz-adv-x="493" d="M78 -223q0 131 135 223h-109v1176h287v-1176h-8q-125 -106 -125 -190q0 -17 4 -29.5t12.5 -20t16.5 -12t19.5 -5.5t18.5 -1.5t17.5 0t11.5 0.5l-24 -148q-84 0 -125 11q-131 36 -131 172z" />
<glyph horiz-adv-x="1044" d="M41 750q0 111 29 194.5t81.5 133.5t119 74t147.5 24h223v-1487h-227v630q-73 0 -138 24.5t-118.5 74.5t-85 135t-31.5 197zM700 -311v1487h230v-1487h-230z" />
<glyph horiz-adv-x="493" d="M18 1309v192h455v-192h-455zM104 0v1176h287v-1176h-287z" />
<glyph horiz-adv-x="552" d="M102 209v749q0 68 1 99.5t7 81.5t18.5 73.5t36 58t60 54.5t89 42.5t124.5 41.5l64 -168q-41 -22 -63.5 -39.5t-33.5 -43t-13.5 -48t-2.5 -70.5v-913q0 -87 18 -123.5t95 -75.5l-64 -168q-72 19 -124.5 41t-89 42t-60 54t-36 57.5t-18.5 73.5t-7 81.5t-1 99.5z" />
<glyph horiz-adv-x="1318" d="M33 1176h323l84 -646l113 646h211l108 -650l89 650h323l-242 -1176h-268l-117 676l-116 -676h-267zM367 1257l159 287h267l159 -287h-200l-93 144l-92 -144h-200z" />
<glyph horiz-adv-x="651" d="M43 16q0 164 48 250t138 86q29 0 55.5 -12.5t43 -26.5t43.5 -41v316h200v-895h-200v65q-39 -41 -69.5 -60.5t-72.5 -19.5q-90 0 -138 86.5t-48 251.5zM246 16q0 -157 55 -157q37 0 70 67v176q-34 70 -70 70q-55 0 -55 -156z" />
<glyph horiz-adv-x="393" d="M92 -307v860h209v-860h-209z" />
<glyph horiz-adv-x="555" d="M53 -72q41 22 63.5 39.5t33.5 43t13.5 48t2.5 70.5v913q0 87 -18 123.5t-95 75.5l64 168q72 -19 124.5 -41t89 -42t60 -53.5t36 -57.5t18.5 -73.5t7 -81t1 -99.5v-750q0 -68 -1 -99.5t-7 -81.5t-18.5 -73.5t-36 -58t-60 -54.5t-89 -42.5t-124.5 -41.5z" />
<glyph horiz-adv-x="1318" d="M33 1176h323l84 -646l113 646h211l108 -650l89 650h323l-242 -1176h-268l-117 676l-116 -676h-267zM412 1278v250h215v-250h-215zM696 1278v250h215v-250h-215z" />
<glyph horiz-adv-x="1318" d="M33 1176h323l84 -646l113 646h211l108 -650l89 650h323l-242 -1176h-268l-117 676l-116 -676h-267zM348 1544h314l178 -287h-242z" />
<glyph horiz-adv-x="948" d="M23 553h235l59 -469l80 469h154l76 -461l61 461h236l-172 -860h-195l-84 493l-84 -493h-194z" />
<glyph horiz-adv-x="493" d="M-66 1544h314l178 -287h-242zM104 0v1176h287v-1176h-287z" />
<glyph horiz-adv-x="1310" d="M49 879q0 148 63 231.5t195 83.5q131 0 193.5 -83.5t62.5 -231.5q0 -147 -62.5 -230.5t-193.5 -83.5t-194.5 84t-63.5 230zM244 879q0 -69 13.5 -100t49.5 -31q35 0 48.5 31.5t13.5 99.5t-13.5 99.5t-48.5 31.5q-36 0 -49.5 -31t-13.5 -100zM334 0l434 1176h205 l-434 -1176h-205zM748 297q0 147 62.5 230t193.5 83q133 0 195.5 -83t62.5 -230q0 -148 -62.5 -231.5t-195.5 -83.5q-131 0 -193.5 83.5t-62.5 231.5zM942 297q0 -69 13 -100t49 -31t49.5 31t13.5 100q0 68 -13.5 99.5t-49.5 31.5t-49 -31.5t-13 -99.5z" />
<glyph horiz-adv-x="942" d="M33 336q0 108 45 169.5t141 61.5q94 0 139 -61.5t45 -169.5t-45 -169t-139 -61q-96 0 -141 61t-45 169zM174 336q0 -50 9.5 -73t35.5 -23t34.5 23t8.5 73q0 52 -8.5 74t-34.5 22t-35.5 -22.5t-9.5 -73.5zM238 -307l313 860h149l-311 -860h-151zM535 -92q0 231 186 231 q184 0 184 -231q0 -107 -45 -168.5t-139 -61.5q-96 0 -141 61.5t-45 168.5zM678 -92q0 -49 9 -71.5t34 -22.5t34 22.5t9 71.5q0 51 -9 74.5t-34 23.5t-34 -23.5t-9 -74.5z" />
<glyph horiz-adv-x="1593" d="M41 829v246h98v4q0 202 67.5 298t217.5 96q159 0 346 -82q70 102 231 102q177 0 388 -90l-93 -240q-152 41 -209 41q-83 0 -83 -98v-31h497v-1024v-2q0 -70 -0.5 -102.5t-5 -85.5t-14 -78t-26.5 -63t-43.5 -58.5t-65 -47t-90.5 -46.5t-121 -39l-97 244q32 15 54.5 26.5 t40.5 25.5t29 23t19.5 26t12 27.5t6 34.5t2.5 39.5v49.5v804h-198v-829h-299v829h-265v-829h-301v829h-98zM440 1075h265v68q-4 1 -49 13t-84 20t-64 8q-68 0 -68 -99v-10z" />
<glyph horiz-adv-x="493" d="M-4 1278v250h215v-250h-215zM104 0v1176h287v-1176h-287zM281 1278v250h215v-250h-215z" />
<glyph horiz-adv-x="495" d="M-47 1257l160 287h266l160 -287h-201l-92 144l-92 -144h-201zM104 0v1176h287v-1176h-287z" />
<glyph horiz-adv-x="948" d="M23 1649h235l59 -469l80 469h154l76 -461l61 461h236l-172 -861h-195l-84 494l-84 -494h-194z" />
<glyph horiz-adv-x="522" d="M43 1112q0 167 63.5 251.5t159.5 84.5q88 0 226 -76l-80 -164q-73 45 -105 45q-61 0 -61 -141q0 -145 61 -145q33 0 105 47l80 -164q-138 -76 -226 -76q-96 0 -159.5 85t-63.5 253z" />
<glyph horiz-adv-x="1347" d="M63 588q0 128 41 238t117.5 192t193.5 129t261 47q143 0 259 -47t191 -129t115.5 -192t40.5 -238t-40.5 -238t-115.5 -192t-191 -129t-259 -47q-144 0 -261 47t-193.5 129t-117.5 192t-41 238zM133 588q0 -237 143.5 -390t397.5 -153q128 0 231.5 42t171 115.5t104 172 t36.5 213.5q0 154 -62 275.5t-187 194t-294 72.5q-170 0 -294.5 -72.5t-185.5 -194t-61 -275.5zM365 586q0 174 85.5 270t213.5 96q60 0 119 -19t90 -37t75 -48l-53 -60q-36 27 -58 41.5t-71.5 32t-99.5 17.5q-96 0 -155.5 -81t-59.5 -212q0 -130 59.5 -209.5t155.5 -79.5 q50 0 98.5 16.5t73 31.5t57.5 40l53 -59q-44 -30 -74.5 -48t-90.5 -37.5t-119 -19.5q-128 0 -213.5 96t-85.5 269z" />
<glyph horiz-adv-x="1869" d="M49 879q0 148 63 231.5t195 83.5q131 0 193.5 -83.5t62.5 -231.5q0 -147 -62.5 -230.5t-193.5 -83.5t-194.5 84t-63.5 230zM244 879q0 -69 13.5 -100t49.5 -31q35 0 48.5 31.5t13.5 99.5t-13.5 99.5t-48.5 31.5q-36 0 -49.5 -31t-13.5 -100zM334 0l434 1176h205 l-434 -1176h-205zM748 297q0 147 62.5 230t193.5 83q133 0 195.5 -83t62.5 -230q0 -148 -62.5 -231.5t-195.5 -83.5q-131 0 -193.5 83.5t-62.5 231.5zM942 297q0 -69 13 -100t49 -31t49.5 31t13.5 100q0 68 -13.5 99.5t-49.5 31.5t-49 -31.5t-13 -99.5zM1305 295 q0 148 63.5 232.5t194.5 84.5t194.5 -84.5t63.5 -232.5q0 -146 -63.5 -229.5t-194.5 -83.5t-194.5 83.5t-63.5 229.5zM1501 295q0 -68 13 -99.5t49 -31.5t48.5 31.5t12.5 99.5q0 70 -12.5 101.5t-48.5 31.5t-49 -32t-13 -101z" />
<glyph horiz-adv-x="937" d="M14 0l279 600l-264 576h323l117 -353l115 353h323l-266 -574l283 -602h-330l-125 344l-125 -344h-330z" />
<glyph horiz-adv-x="987" d="M90 739v84h33v353h336q427 0 450 -353h33v-84h-33q-20 -350 -450 -350h-49v-389h-287v739h-33zM410 651h55q64 0 103 19t50 69h-208v-88zM410 823h208q-11 49 -50 67.5t-103 18.5h-55v-86z" />
<glyph horiz-adv-x="716" d="M74 229v68h24v256h244q308 0 324 -256h22v-68h-22q-16 -252 -324 -252h-35v-284h-209v536h-24zM307 170h39q93 0 107 59h-146v-59zM307 297h146q-15 61 -107 61h-39v-61z" />
<glyph horiz-adv-x="716" d="M74 1325v68h24v256h244q308 0 324 -256h22v-68h-22q-16 -252 -324 -252h-35v-285h-209v537h-24zM307 1266h39q93 0 107 59h-146v-59zM307 1393h146q-15 61 -107 61h-39v-61z" />
<glyph horiz-adv-x="688" d="M16 -307l201 438l-190 422h235l82 -254l82 254h236l-191 -422l201 -438h-242l-86 246l-88 -246h-240z" />
<glyph horiz-adv-x="651" d="M80 338h201v-64q38 40 68 59t73 19q88 0 136 -86.5t48 -249.5q0 -165 -48 -251.5t-136 -86.5q-43 0 -73.5 19t-67.5 57v-311h-201v895zM281 -78q30 -63 67 -63q55 0 55 157q0 156 -55 156q-36 0 -67 -63v-187z" />
<glyph horiz-adv-x="491" d="M-20 1520h176q0 -40 23.5 -62t64.5 -22q43 0 67.5 22t24.5 62h174q0 -123 -70 -193t-196 -70q-124 0 -194 70t-70 193zM104 0v1176h287v-1176h-287z" />
<glyph horiz-adv-x="495" d="M66 1257l178 287h313l-248 -287h-243zM104 0v1176h287v-1176h-287z" />
<glyph horiz-adv-x="366" d="M84 788v238h197v-238h-197zM84 1153v238h197v-238h-197z" />
<glyph horiz-adv-x="559" d="M53 1221q0 167 63.5 250t159.5 83h19l16 95h74l-18 -109l16 -6l18 115h76l-22 -142l61 -32l-78 -166q-87 53 -125 53q-55 0 -55 -141q0 -148 55 -148q10 0 21.5 3t27 10.5t24 12t28 15.5t24.5 14l78 -165q-110 -56 -164 -70l-16 -105h-76l14 95h-16l-14 -95h-76l18 117 q-61 33 -97 112.5t-36 203.5z" />
<glyph horiz-adv-x="653" d="M80 539v895h201v-64q38 40 68 59t73 19q88 0 136 -86.5t48 -249.5q0 -165 -48 -251.5t-136 -86.5q-43 0 -73.5 19t-67.5 57v-311h-201zM281 1018q30 -64 67 -64q55 0 55 158q0 156 -55 156q-36 0 -67 -64v-186z" />
<glyph horiz-adv-x="991" d="M104 0v1176h287v-1176h-287zM459 -92q36 17 59.5 30t39.5 28.5t24.5 26t12.5 32.5t4.5 36.5t0.5 47.5v1067h287v-1051q0 -69 -1 -99.5t-6.5 -78t-19 -70t-36 -55t-59.5 -53.5t-88.5 -45.5t-123.5 -49.5z" />
<glyph horiz-adv-x="651" d="M43 16q0 164 48 250t138 86q29 0 55.5 -12.5t43 -26.5t43.5 -41v66h200v-895h-200v315q-39 -41 -69.5 -60.5t-72.5 -19.5q-90 0 -138 86.5t-48 251.5zM246 16q0 -157 55 -157q37 0 70 67v176q-34 70 -70 70q-55 0 -55 -156z" />
<glyph horiz-adv-x="653" d="M45 1112q0 164 48 250t138 86q29 0 55.5 -12.5t43 -26.5t43.5 -41v66h200v-895h-200v315q-39 -41 -69.5 -60.5t-72.5 -19.5q-90 0 -138 86.5t-48 251.5zM248 1112q0 -158 55 -158q37 0 70 68v176q-34 70 -70 70q-55 0 -55 -156z" />
<glyph horiz-adv-x="493" d="M104 0v1176h287v-1176h-287z" />
<glyph horiz-adv-x="739" d="M41 1059q33 29 74 56t113.5 53t144.5 26q138 0 228.5 -86t90.5 -221q0 -71 -27 -133t-73.5 -107.5t-94.5 -77t-104 -57.5l-12 -113h-164l-14 275q105 40 152.5 81.5t47.5 94.5q0 29 -20.5 53.5t-63.5 24.5q-58 0 -149 -70zM164 0v297h268v-297h-268z" />
<glyph horiz-adv-x="765" d="M94 788v861h209v-312h160v312h209v-861h-209v355h-160v-355h-209z" />
<glyph horiz-adv-x="741" d="M49 289q0 71 27 133t73.5 107.5t94.5 77t104 57.5l12 112h164l15 -274q-105 -41 -153 -82t-48 -94q0 -29 20.5 -53.5t63.5 -24.5q60 0 149 69l129 -200q-57 -50 -142.5 -92.5t-188.5 -42.5q-138 0 -229 86t-91 221zM309 879v297h269v-297h-269z" />
<glyph horiz-adv-x="524" d="M31 -96q0 173 215 274l10 84h119l8 -203q-73 -29 -107 -59.5t-34 -67.5q0 -23 13.5 -41t43.5 -18q42 0 107 51l94 -145q-38 -36 -102 -68.5t-138 -32.5q-99 0 -164 63.5t-65 162.5zM217 338v215h195v-215h-195z" />
<glyph horiz-adv-x="524" d="M31 999q0 174 215 275l10 84h119l8 -203q-73 -29 -107 -59.5t-34 -67.5q0 -23 13.5 -41t43.5 -18q42 0 107 51l94 -146q-38 -36 -102 -68t-138 -32q-99 0 -164 63t-65 162zM217 1434v215h195v-215h-195z" />
<glyph horiz-adv-x="522" d="M23 467q38 36 101.5 68t137.5 32q99 0 164.5 -63t65.5 -162q0 -173 -216 -274l-10 -84h-119l-8 202q74 29 108 59.5t34 67.5q0 23 -14 41.5t-44 18.5q-41 0 -106 -51zM111 -92h194v-215h-194v215z" />
<glyph horiz-adv-x="524" d="M23 1563q38 36 101.5 68t137.5 32q99 0 164.5 -63t65.5 -162q0 -174 -216 -275l-10 -84h-119l-8 203q74 29 108 59.5t34 67.5q0 23 -13.5 41t-44.5 18q-41 0 -106 -51zM111 788v216h194v-216h-194z" />
<glyph horiz-adv-x="765" d="M94 -307v860h209v-311h160v311h209v-860h-209v354h-160v-354h-209z" />
<glyph horiz-adv-x="561" d="M53 125q0 167 63.5 250.5t159.5 83.5h19l16 94h74l-18 -109l16 -6l18 115h76l-22 -141l61 -33l-78 -166q-87 53 -125 53q-55 0 -55 -141q0 -148 55 -148q10 0 22 3t26.5 10.5t24.5 12.5t27.5 15.5t24.5 14.5l78 -166q-110 -56 -164 -70l-16 -104h-76l14 94h-16l-14 -94 h-76l18 117q-61 33 -97 112t-36 203z" />
<glyph horiz-adv-x="768" d="M70 590q0 229 88.5 344t220.5 115q12 0 24 -2l23 129h102l-24 -148l22 -6l27 154h102l-32 -193q14 -6 88 -45l-107 -227q-7 4 -34 19t-39.5 21.5t-34 16.5t-37.5 14t-29 4q-82 0 -82 -196q0 -199 82 -199q11 0 26 3.5t27 8t31 14t29 15t32 17.5t29 16l107 -227 q-116 -68 -230 -97l-24 -141h-101l21 129h-25l-20 -129h-103l27 158q-85 46 -135.5 154t-50.5 278z" />
<glyph horiz-adv-x="366" d="M84 57v238h197v-238h-197zM84 -70h197v-237h-197v237z" />
<glyph horiz-adv-x="688" d="M16 788l201 439l-190 422h235l82 -254l82 254h236l-191 -422l201 -439h-242l-86 246l-88 -246h-240z" />
<glyph horiz-adv-x="524" d="M43 16q0 167 63.5 251.5t159.5 84.5q88 0 226 -76l-80 -163q-73 45 -105 45q-61 0 -61 -142q0 -145 61 -145q33 0 105 47l80 -164q-138 -76 -226 -76q-96 0 -159.5 85t-63.5 253z" />
<glyph horiz-adv-x="761" d="M63 590q0 211 78 326t199 131v129h192v-156q65 -23 175 -82l-115 -221q-100 58 -136 66q-11 3 -20 3q-94 0 -94 -196q0 -199 94 -199q44 0 156 70l115 -223q-87 -51 -175 -82v-156h-192v131q-122 19 -199.5 133.5t-77.5 325.5z" />
<glyph horiz-adv-x="1044" d="M31 860v174h92v142h287v-142h225v142h287v-142h92v-174h-92v-860h-287v485h-225v-485h-287v860h-92zM410 750h225v110h-225v-110z" />
<glyph horiz-adv-x="1007" d="M104 0v1176h287v-426h225v426h287v-1176h-287v485h-225v-485h-287z" />
<glyph horiz-adv-x="722" d="M55 1223q0 216 74.5 328t204.5 112q53 0 112 -17t98 -35.5t99 -51.5l-92 -175q-53 26 -73 35.5t-53 21t-56 11.5q-53 0 -76 -63t-23 -187q0 -227 95 -227q53 0 86 69v70h-111v182h305v-508h-194v68q-72 -82 -148 -82q-105 0 -176.5 116t-71.5 333z" />
<glyph horiz-adv-x="921" d="M14 1176h316l129 -392l131 392h315l-301 -705v-471h-287v467z" />
<glyph horiz-adv-x="720" d="M55 127q0 216 74.5 328t204.5 112q53 0 112 -17t98 -35.5t99 -51.5l-92 -174q-49 25 -72 35.5t-55 21t-55 10.5q-53 0 -76 -63t-23 -187q0 -227 95 -227q52 0 86 70v69h-111v183h305v-508h-194v67q-72 -82 -148 -82q-105 0 -176.5 116t-71.5 333z" />
<glyph horiz-adv-x="966" d="M63 594q0 295 104 447.5t284 152.5q105 0 203.5 -37t222.5 -104l-123 -238q-9 4 -37.5 17.5t-38 17.5t-33 14.5t-34 14t-29 10.5t-30.5 9.5t-26.5 4.5t-27.5 2q-75 0 -108.5 -87t-33.5 -255q0 -64 7 -116.5t22 -97.5t42 -70t65 -25q72 0 122 98v92h-157v250h426v-694 h-269v94q-97 -112 -206 -112q-70 0 -131.5 37.5t-109.5 111t-76 192.5t-28 271zM367 1278v250h215v-250h-215z" />
<glyph horiz-adv-x="966" d="M63 594q0 295 104 447.5t284 152.5q105 0 203.5 -37t222.5 -104l-123 -238q-9 4 -37.5 17.5t-38 17.5t-33 14.5t-34 14t-29 10.5t-30.5 9.5t-26.5 4.5t-27.5 2q-75 0 -108.5 -87t-33.5 -255q0 -64 7 -116.5t22 -97.5t42 -70t65 -25q72 0 122 98v92h-157v250h426v-694 h-269v94q-97 -112 -206 -112q-70 0 -131.5 37.5t-109.5 111t-76 192.5t-28 271zM391 -543l90 168h-88v262h201l10 -290l-160 -218z" />
<glyph horiz-adv-x="477" d="M80 -307v645h201v-133q6 20 16.5 40.5t30 47.5t51 41.5t70.5 11.5v-213q-43 0 -76 -21.5t-50 -52t-27 -60.5t-12 -51l-3 -22v-233h-201z" />
<glyph horiz-adv-x="921" d="M14 1176h316l129 -392l131 392h315l-301 -705v-471h-287v467zM281 1257l178 287h313l-248 -287h-243z" />
<glyph horiz-adv-x="921" d="M14 1176h316l129 -392l131 392h315l-301 -705v-471h-287v467zM211 1278v250h215v-250h-215zM496 1278v250h215v-250h-215z" />
<glyph horiz-adv-x="966" d="M63 594q0 295 104 447.5t284 152.5q105 0 203.5 -37t222.5 -104l-123 -238q-9 4 -37.5 17.5t-38 17.5t-33 14.5t-34 14t-29 10.5t-30.5 9.5t-26.5 4.5t-27.5 2q-75 0 -108.5 -87t-33.5 -255q0 -64 7 -116.5t22 -97.5t42 -70t65 -25q72 0 122 98v92h-157v250h426v-694 h-269v94q-97 -112 -206 -112q-70 0 -131.5 37.5t-109.5 111t-76 192.5t-28 271zM207 1520h176q0 -40 23.5 -62t64.5 -22q43 0 67.5 22t24.5 62h174q0 -123 -70 -193t-196 -70q-124 0 -194 70t-70 193z" />
<glyph horiz-adv-x="1816" d="M41 119l123 229q62 -42 142.5 -76t127.5 -34q64 0 64 53q0 17 -9 33t-19.5 26.5t-35.5 24.5t-38.5 20.5t-47.5 22.5q-50 23 -85.5 43t-77.5 52.5t-68 67.5t-44 85t-18 108q0 138 87.5 231t244.5 93q75 0 178 -29q-16 56 -16 119q0 140 72 222.5t217 82.5h395v-541 q54 50 83.5 74t83.5 48t111 24q105 0 162.5 -82t57.5 -230v-786h-301v723q0 115 -60 115q-41 0 -79 -41t-58 -82v-715h-301v1346h-101q-68 0 -111.5 -50t-43.5 -141q0 -79 31 -143q7 -3 61 -33l-123 -217q-145 76 -221 76q-30 0 -49 -14t-19 -40q0 -13 4 -24t14 -21 t18.5 -17t26 -16t27.5 -14t31.5 -14.5t30.5 -13.5q47 -21 83.5 -41.5t78 -53.5t69 -69.5t46 -88.5t18.5 -112q0 -139 -90 -230.5t-252 -91.5q-112 0 -229.5 43t-190.5 99z" />
<glyph horiz-adv-x="1771" d="M41 119l123 229q62 -42 142.5 -76t127.5 -34q64 0 64 53q0 17 -9 33t-19.5 26.5t-35.5 24.5t-38.5 20.5t-47.5 22.5q-50 23 -85.5 43t-77.5 52.5t-68 67.5t-44 85t-18 108q0 138 87.5 231t244.5 93q75 0 178 -29q-16 56 -16 119q0 140 72 222.5t217 82.5h395v-768 l160 350h340l-265 -424l306 -651h-316l-160 375l-65 -107v-268h-301v1346h-101q-68 0 -111.5 -50t-43.5 -141q0 -79 31 -143q7 -3 61 -33l-123 -217q-145 76 -221 76q-30 0 -49 -14t-19 -40q0 -13 4 -24t14 -21t18.5 -17t26 -16t27.5 -14t31.5 -14.5t30.5 -13.5 q47 -21 83.5 -41.5t78 -53.5t69 -69.5t46 -88.5t18.5 -112q0 -139 -90 -230.5t-252 -91.5q-112 0 -229.5 43t-190.5 99z" />
<glyph horiz-adv-x="1329" d="M41 119l123 229q62 -42 142.5 -76t127.5 -34q64 0 64 53q0 17 -9 33t-19.5 26.5t-35.5 24.5t-38.5 20.5t-47.5 22.5q-50 23 -85.5 43t-77.5 52.5t-68 67.5t-44 85t-18 108q0 138 87.5 231t244.5 93q75 0 178 -29q-16 56 -16 119q0 140 72 222.5t217 82.5h397v-1493h-301 v1346h-103q-68 0 -111.5 -50t-43.5 -141q0 -79 31 -143q7 -3 61 -33l-123 -217q-145 76 -221 76q-30 0 -49 -14t-19 -40q0 -13 4 -24t14 -21t18.5 -17t26 -16t27.5 -14t31.5 -14.5t30.5 -13.5q47 -21 83.5 -41.5t78 -53.5t69 -69.5t46 -88.5t18.5 -112q0 -139 -90 -230.5 t-252 -91.5q-112 0 -229.5 43t-190.5 99z" />
<glyph horiz-adv-x="921" d="M14 1176h316l129 -392l131 392h315l-301 -705v-471h-287v467zM154 1544h313l178 -287h-242z" />
<glyph horiz-adv-x="966" d="M63 594q0 295 104 447.5t284 152.5q105 0 203.5 -37t222.5 -104l-123 -238q-9 4 -37.5 17.5t-38 17.5t-33 14.5t-34 14t-29 10.5t-30.5 9.5t-26.5 4.5t-27.5 2q-75 0 -108.5 -87t-33.5 -255q0 -64 7 -116.5t22 -97.5t42 -70t65 -25q72 0 122 98v92h-157v250h426v-694 h-269v94q-97 -112 -206 -112q-70 0 -131.5 37.5t-109.5 111t-76 192.5t-28 271z" />
<glyph horiz-adv-x="622" d="M94 788v861h492v-197h-283v-137h221v-195h-221v-332h-209z" />
<glyph horiz-adv-x="622" d="M94 -307v860h492v-197h-283v-137h221v-194h-221v-332h-209z" />
<glyph horiz-adv-x="825" d="M104 0v1176h680v-273h-393v-184h307v-264h-307v-455h-287z" />
<glyph horiz-adv-x="700" d="M43 1085v95h51v71h-51v95h57q20 157 90 237t179 80q49 0 103 -16.5t89.5 -34t97.5 -51.5l-88 -172q-13 6 -40 18.5t-39.5 18t-31 13t-32.5 10.5t-27 3q-65 0 -84 -106h148v-95h-156v-71h156v-95h-146q19 -100 82 -100q16 0 37.5 6.5t35 12t49 22.5t48.5 23l88 -172 q-64 -35 -98 -52t-88.5 -34t-103.5 -17q-108 0 -177.5 78.5t-89.5 232.5h-59z" />
<glyph horiz-adv-x="700" d="M43 -10v94h51v72h-51v94h57q20 157 90 237t179 80q49 0 103 -16.5t89.5 -34t97.5 -51.5l-88 -172q-13 6 -40 18.5t-39.5 18t-31 13t-32.5 10.5t-27 3q-65 0 -84 -106h148v-94h-156v-72h156v-94h-146q19 -101 82 -101q16 0 37.5 6.5t35 12t49 22.5t48.5 23l88 -172 q-64 -35 -98 -52t-88.5 -34t-103.5 -17q-108 0 -177.5 79t-89.5 233h-59z" />
<glyph horiz-adv-x="968" d="M55 401v136h72v92h-72v135h82q29 214 124 322t245 108q100 0 192.5 -35t214.5 -104l-125 -236q-68 33 -94 45.5t-68.5 26.5t-72.5 14q-90 0 -119 -141h207v-135h-221v-92h221v-136h-205q28 -131 117 -131q30 0 72.5 14t68.5 26.5t94 45.5l125 -235q-122 -69 -214.5 -104 t-192.5 -35q-148 0 -243 105.5t-124 313.5h-84z" />
<glyph horiz-adv-x="366" d="M86 57v238h197v-238h-197zM86 -70h197l10 -268l-156 -184l-51 71l86 144h-86v237z" />
<glyph horiz-adv-x="366" d="M86 645l86 143h-86v238h197l10 -268l-156 -185zM86 1153v238h197v-238h-197z" />
<glyph horiz-adv-x="653" d="M4 553h232l90 -283l92 283h229l-217 -522v-338h-207v338z" />
<glyph horiz-adv-x="1486" d="M53 539q0 141 29 250.5t79 175.5t113 99.5t136 33.5q59 0 139 -25q-14 46 -14 107q0 141 88 227t243 86q171 0 270 -106.5t99 -294.5v-17h197v-246h-197v-460q0 -33 4 -54t12 -30t15 -12t16 -3q6 0 13 1t14.5 3.5t13 4.5t15 7t13.5 7t15 8t14 8l99 -241 q-164 -91 -281 -91q-139 0 -201.5 88.5t-62.5 274.5v489h-98v246h98v37q0 115 -29 174.5t-96 59.5q-65 0 -106 -51.5t-41 -141.5q0 -83 32 -145l68 -37l-123 -244q-17 10 -48.5 30t-46.5 29t-35.5 17t-37.5 8q-113 0 -113 -272q0 -275 111 -275q13 0 28 4.5t27 9.5 t30.5 15.5t28 16.5t30 20t26.5 18l123 -244q-58 -34 -99.5 -55.5t-117 -46.5t-135.5 -25q-153 0 -255 143t-102 419z" />
<glyph horiz-adv-x="548" d="M41 670v190h479v-178q-9 -14 -23.5 -38.5t-52 -101t-66 -153.5t-52 -184.5t-23.5 -204.5h-213q0 112 28 231.5t71 216t67.5 143t44.5 79.5h-260z" />
<glyph horiz-adv-x="548" d="M41 1243v191h479v-179q-9 -14 -23.5 -38.5t-52 -101t-66 -153.5t-52 -184.5t-23.5 -204.5h-213q0 112 28 231.5t71 216t67.5 143t44.5 79.5h-260z" />
<glyph horiz-adv-x="825" d="M43 887v289h754v-271q-14 -23 -38 -65t-84.5 -172.5t-106.5 -261.5t-84 -314.5t-38 -349.5h-321q0 158 33.5 330.5t77 301t98 252t84 178t47.5 83.5h-422z" />
<glyph horiz-adv-x="1277" d="M53 539q0 141 29 250.5t79 175.5t113 99.5t136 33.5q59 0 139 -25q-14 46 -14 115q0 140 69.5 222.5t210.5 82.5h371v-1493h-301v1346h-76q-65 0 -106 -50t-41 -141q0 -83 30 -145q14 -7 37 -20.5t33 -18.5l-123 -244q-17 10 -48.5 30t-46.5 29t-35.5 17t-37.5 8 q-113 0 -113 -272q0 -275 111 -275q13 0 28 4.5t27 9.5t30.5 15.5t28 16.5t30 20t26.5 18l123 -244q-58 -34 -99.5 -55.5t-117 -46.5t-135.5 -25q-153 0 -255 143t-102 419z" />
<glyph horiz-adv-x="1722" d="M53 539q0 141 29 250.5t79 175.5t113 99.5t136 33.5q59 0 139 -25q-14 46 -14 115q0 140 69.5 222.5t210.5 82.5h369v-768l159 350h340l-264 -424l305 -651h-315l-160 375l-65 -107v-268h-301v1346h-74q-65 0 -106 -50t-41 -141q0 -83 30 -145q14 -7 37 -20.5t33 -18.5 l-123 -244q-17 10 -48.5 30t-46.5 29t-35.5 17t-37.5 8q-113 0 -113 -272q0 -275 111 -275q13 0 28 4.5t27 9.5t30.5 15.5t28 16.5t30 20t26.5 18l123 -244q-58 -34 -99.5 -55.5t-117 -46.5t-135.5 -25q-153 0 -255 143t-102 419z" />
<glyph horiz-adv-x="1183" d="M51 1024v152h408v-142q-8 -11 -21 -31.5t-45.5 -84t-58 -127t-46 -152t-20.5 -168.5h-172q0 91 24 188.5t60.5 175.5t60 120.5t40.5 68.5h-230zM246 0l397 1176h176l-397 -1176h-176zM651 184q0 123 123 199q-88 66 -88 160q0 75 55 124.5t152 49.5t153 -49.5t56 -124.5 q0 -94 -88 -160q123 -79 123 -199q0 -88 -63 -142t-181 -54q-116 0 -179 54t-63 142zM817 197q0 -32 21 -52t55 -20q35 0 56.5 20t21.5 52q0 66 -78 116q-76 -49 -76 -116zM836 532q0 -53 57 -86q55 32 55 86q0 20 -14 36t-41 16t-42 -16t-15 -36z" />
<glyph horiz-adv-x="1767" d="M53 539q0 141 29 250.5t79 175.5t113 99.5t136 33.5q59 0 139 -25q-14 46 -14 115q0 140 69.5 222.5t210.5 82.5h369v-541q54 50 83.5 74t83.5 48t111 24q105 0 162 -82t57 -230v-786h-301v723q0 115 -59 115q-41 0 -79 -41t-58 -82v-715h-301v1346h-74q-65 0 -106 -50 t-41 -141q0 -83 30 -145q14 -7 37 -20.5t33 -18.5l-123 -244q-17 10 -48.5 30t-46.5 29t-35.5 17t-37.5 8q-113 0 -113 -272q0 -275 111 -275q13 0 28 4.5t27 9.5t30.5 15.5t28 16.5t30 20t26.5 18l123 -244q-58 -34 -99.5 -55.5t-117 -46.5t-135.5 -25q-153 0 -255 143 t-102 419z" />
<glyph horiz-adv-x="657" d="M6 1649h232l90 -283l92 283h229l-217 -523v-338h-207v338z" />
<glyph horiz-adv-x="561" d="M37 -236l76 142q36 -24 87 -45t83 -21q15 0 27 9t12 26q0 19 -15.5 29.5t-64.5 31.5q-3 2 -5.5 3t-5.5 2q-39 17 -65 31.5t-57.5 39.5t-47.5 60.5t-16 79.5q0 85 56.5 142.5t158.5 57.5q63 0 129.5 -22t112.5 -51l-72 -132q-86 48 -139 48q-43 0 -43 -33q0 -7 2.5 -13 t8.5 -11t11 -9t15.5 -8.5t16.5 -7.5t19 -8t19 -7q37 -15 65 -31.5t57.5 -42.5t45.5 -63t16 -82q0 -87 -56.5 -144t-160.5 -57q-71 0 -146 26.5t-124 59.5z" />
<glyph horiz-adv-x="1011" d="M33 465v246h88v465h307q263 0 390.5 -139.5t127.5 -448.5t-127.5 -448.5t-390.5 -139.5h-307v465h-88zM408 270h32q53 0 91.5 14t70 48t47 98t15.5 158t-15.5 157.5t-47 97t-69.5 47t-92 13.5h-32v-192h141v-246h-141v-195z" />
<glyph horiz-adv-x="653" d="M53 369q0 222 113 363.5t299 141.5q28 0 54 -3.5t38 -6.5l12 -4l-47 -180q-26 6 -55 6q-60 0 -112 -44t-76 -138q49 53 120 53q91 0 150 -73t59 -193q0 -135 -71.5 -220t-198.5 -85q-142 0 -213.5 106.5t-71.5 276.5zM262 336q3 -164 76 -164q34 0 48.5 32.5t14.5 74.5 q0 108 -65 108q-51 0 -74 -51z" />
<glyph horiz-adv-x="653" d="M53 942q0 222 113.5 364t298.5 142q28 0 54 -3.5t38 -6.5l12 -4l-47 -181q-26 7 -55 7q-60 0 -112 -44.5t-76 -138.5q49 53 120 53q91 0 150 -73t59 -193q0 -135 -71.5 -220t-198.5 -85q-142 0 -213.5 106.5t-71.5 276.5zM262 909q3 -164 76 -164q34 0 48.5 32.5 t14.5 74.5q0 109 -65 109q-25 0 -44.5 -15t-29.5 -37z" />
<glyph horiz-adv-x="993" d="M70 608q0 249 79.5 441.5t226.5 299.5t339 107q44 0 85 -5.5t60 -10.5l19 -6l-72 -273q-43 13 -88 13q-102 0 -188 -84.5t-123 -262.5q81 99 202 99q144 0 237 -124t93 -321q0 -144 -48.5 -257t-146.5 -180t-231 -67q-91 0 -165 32.5t-125 89.5t-86 136.5t-51.5 173 t-16.5 199.5zM385 565q1 -157 36.5 -231t94.5 -74q40 0 67 33.5t36.5 77t9.5 94.5q0 89 -29.5 146t-87.5 57q-42 0 -76 -30.5t-51 -72.5z" />
<glyph horiz-adv-x="432" d="M119 -207v694h196v-694h-196zM119 680v694h196v-694h-196z" />
<glyph horiz-adv-x="880" d="M57 0v238l404 665h-377v273h721v-236l-402 -670h410v-270h-756z" />
<glyph horiz-adv-x="434" d="M41 612v127h94v953h-94v127h303v-1207h-303z" />
<glyph horiz-adv-x="647" d="M94 788v861h492v-197h-283v-135h227v-195h-227v-137h287v-197h-496z" />
<glyph horiz-adv-x="657" d="M27 -152l393 1479h201l-394 -1479h-200z" />
<glyph horiz-adv-x="860" d="M104 0v1176h680v-273h-393v-182h318v-264h-318v-187h400v-270h-5q-124 -105 -124 -190q0 -17 4 -29.5t12.5 -20t16.5 -12t19.5 -5.5t18.5 -1.5t17.5 0t11.5 0.5l-25 -148q-84 0 -125 11q-131 36 -131 172q0 131 135 223h-512z" />
<glyph horiz-adv-x="243" />
<glyph horiz-adv-x="243" />
<glyph horiz-adv-x="434" d="M41 -356h94v952h-94v127h303v-1206h-303v127z" />
<glyph horiz-adv-x="1026" d="M104 0v1176h289l244 -639v639h287v-1051q0 -67 -1 -99t-7 -79t-19 -70t-36 -55t-60 -53t-88 -45.5t-123 -49.5l-94 234q66 29 96.5 50t40.5 48l-242 633v-639h-287z" />
<glyph horiz-adv-x="815" d="M76 0v213q5 2 13.5 5.5t30.5 19.5t40 36t35 55.5t22 78.5h-129v178h105q-8 23 -28 70t-31.5 77.5t-21.5 78.5t-10 95q0 135 74 211t209 76q173 0 369 -158l-136 -190q-102 82 -167 82q-60 0 -60 -68q0 -45 36 -132.5t48 -141.5h187v-178h-179q-14 -83 -61 -144h319v-264 h-665z" />
<glyph horiz-adv-x="602" d="M66 -152q4 1 10 4t21.5 14.5t28.5 26t25 41t15 58.5h-92v129h73q-5 15 -19.5 51t-22 57.5t-14.5 57t-7 69.5q0 99 53 155t150 56q127 0 268 -116l-98 -140q-75 62 -121 62q-41 0 -41 -49q0 -34 25.5 -98.5t33.5 -104.5h133v-129h-127q-7 -54 -41 -107h226v-192h-479v155z " />
<glyph horiz-adv-x="602" d="M66 788v156q4 1 10 4t21.5 14t28.5 25.5t25 41t15 58.5h-92v130h73q-5 15 -19.5 51t-22 57.5t-14.5 57t-7 69.5q0 99 53 155t150 56q126 0 268 -117l-98 -139q-74 61 -121 61q-41 0 -41 -49q0 -34 25.5 -98t33.5 -104h133v-130h-127q-7 -53 -41 -106h226v-193h-479z" />
<glyph horiz-adv-x="591" d="M59 -66h129v1303h-129v172h416v-1649h-416v174z" />
<glyph horiz-adv-x="860" d="M104 0v1176h680v-273h-393v-182h318v-264h-318v-187h400v-270h-687zM219 1309v192h455v-192h-455z" />
<glyph horiz-adv-x="647" d="M94 -307v860h492v-197h-283v-135h227v-194h-227v-138h287v-196h-496z" />
<glyph horiz-adv-x="860" d="M104 0v1176h680v-273h-393v-182h318v-264h-318v-187h400v-270h-687zM135 1544h314l178 -287h-242z" />
<glyph horiz-adv-x="860" d="M104 0v1176h680v-273h-393v-182h318v-264h-318v-187h400v-270h-687zM338 1278v250h215v-250h-215z" />
<glyph horiz-adv-x="860" d="M104 0v1176h680v-273h-393v-182h318v-264h-318v-187h400v-270h-687zM199 1278v250h215v-250h-215zM483 1278v250h215v-250h-215z" />
<glyph horiz-adv-x="860" d="M104 0v1176h680v-273h-393v-182h318v-264h-318v-187h400v-270h-687zM154 1257l159 287h267l159 -287h-200l-93 144l-92 -144h-200z" />
<glyph horiz-adv-x="636" d="M31 102l96 152q110 -74 168 -74q34 0 57 22.5t23 57.5q0 38 -29.5 61t-60.5 29t-64 6h-22v189h28q24 0 49.5 6t48.5 25.5t23 48.5q0 23 -13 39t-44 16q-56 0 -144 -64l-90 140q139 118 277 118q104 0 162.5 -60t58.5 -148q0 -120 -104 -191q60 -29 95.5 -87t35.5 -138 q0 -49 -14 -93.5t-42.5 -84t-79.5 -63t-118 -23.5q-65 0 -131.5 23.5t-102 46t-63.5 46.5z" />
<glyph horiz-adv-x="636" d="M31 676l96 151q109 -73 168 -73q34 0 57 22.5t23 57.5q0 38 -29.5 61t-60.5 29t-64 6h-22v188h28q24 0 49.5 6t48.5 25.5t23 48.5q0 23 -13 39t-44 16q-58 0 -144 -63l-90 139q141 119 277 119q104 0 162.5 -60.5t58.5 -148.5q0 -119 -104 -190q60 -29 95.5 -87.5 t35.5 -138.5q0 -49 -14 -93.5t-42.5 -84t-79.5 -63t-118 -23.5q-65 0 -131.5 23.5t-101.5 46.5t-64 47z" />
<glyph horiz-adv-x="950" d="M27 -102l147 231q173 -119 266 -119q59 0 97 43t38 113q0 43 -18 77.5t-44.5 54t-62 32.5t-65.5 17.5t-59 4.5h-35v285h43q29 0 62 8.5t65.5 26t54 49t21.5 72.5q0 44 -25 76t-78 32q-89 0 -227 -104l-137 211q215 186 430 186q110 0 190.5 -47.5t119 -124t38.5 -170.5 q0 -201 -172 -324q97 -46 156 -145t59 -233q0 -64 -13.5 -124t-44 -117.5t-76.5 -100t-115.5 -68t-154.5 -25.5q-76 0 -152 20t-137 52t-100 58t-71 53z" />
<glyph horiz-adv-x="882" d="M59 0v238l404 665h-377v273h721v-236l-401 -670h409v-270h-756zM268 1257l178 287h314l-248 -287h-244z" />
<glyph horiz-adv-x="434" d="M90 612v1207h303v-127h-94v-953h94v-127h-303z" />
<glyph horiz-adv-x="1316" d="M49 553l78 119q95 -60 145 -60q33 0 55.5 20t22.5 50q0 25 -14 43t-37.5 26t-44.5 11.5t-43 3.5h-18v149h22q39 0 76 17.5t37 52.5q0 19 -15 34t-43 15q-43 0 -125 -53l-73 111q117 96 233 96q88 0 138.5 -49.5t50.5 -120.5q0 -103 -97 -158q54 -24 86.5 -72.5 t32.5 -113.5q0 -40 -12 -76.5t-37 -68.5t-69 -51t-101 -19q-77 0 -142.5 30.5t-105.5 63.5zM381 0l397 1176h174l-397 -1176h-174zM784 184q0 123 123 199q-88 66 -88 160q0 75 55 124.5t152 49.5t152 -49.5t55 -124.5q0 -94 -88 -160q125 -77 125 -199q0 -88 -63.5 -142 t-180.5 -54q-115 0 -178.5 54t-63.5 142zM950 197q0 -33 20.5 -52.5t55.5 -19.5q37 0 58.5 20t21.5 52q0 64 -80 116q-76 -49 -76 -116zM969 532q0 -53 57 -86q57 31 57 86q0 20 -15 36t-42 16t-42 -16t-15 -36z" />
<glyph horiz-adv-x="1323" d="M49 553l78 119q95 -60 145 -60q34 0 57 20t23 50q0 25 -14.5 43t-38 26t-45 11.5t-43.5 3.5h-18v149h22q24 0 48 6t44.5 22.5t20.5 41.5q0 19 -15 34t-43 15q-43 0 -125 -53l-71 111q110 96 231 96q88 0 138.5 -49.5t50.5 -120.5q0 -103 -97 -158q54 -24 86.5 -72.5 t32.5 -113.5q0 -40 -12 -76.5t-36.5 -68.5t-68.5 -51t-102 -19q-77 0 -142.5 30.5t-105.5 63.5zM381 0l397 1176h176l-399 -1176h-174zM803 84l80 127q75 -66 133 -66q35 0 57.5 24t22.5 62q0 37 -20 64t-62 27q-41 0 -88 -37l-92 55l30 365h379v-152h-237l-5 -94q36 8 58 8 q100 0 152.5 -67.5t52.5 -166.5q0 -104 -57.5 -174.5t-166.5 -70.5q-122 0 -237 96z" />
<glyph horiz-adv-x="434" d="M90 -483v1206h303v-127h-94v-952h94v-127h-303z" />
<glyph horiz-adv-x="860" d="M104 0v1176h680v-273h-393v-182h318v-264h-318v-187h400v-270h-687zM154 1544h200l92 -145l93 145h200l-159 -287h-267z" />
<glyph horiz-adv-x="1306" d="M49 555l76 121q97 -64 149 -64q33 0 55.5 20t22.5 50q0 25 -14.5 43t-38 26t-44.5 11.5t-42 3.5h-20v149h24q39 0 75 16.5t36 51.5q0 20 -15 35.5t-43 15.5q-48 0 -127 -55l-71 111q120 98 233 98q88 0 138.5 -50.5t50.5 -123.5q0 -97 -93 -154q52 -24 82.5 -71.5 t30.5 -112.5q0 -88 -53 -152.5t-162 -64.5q-78 0 -143.5 31t-106.5 65zM379 0l397 1176h174l-399 -1176h-172zM725 127v125l231 453h220v-429h79v-149h-79v-127h-166v127h-285zM877 276h133v265z" />
<glyph horiz-adv-x="860" d="M104 0v1176h680v-273h-393v-182h318v-264h-318v-187h400v-270h-687zM266 1257l178 287h314l-248 -287h-244z" />
<glyph horiz-adv-x="591" d="M117 -240v1649h415v-174h-129v-1303h129v-172h-415z" />
<glyph horiz-adv-x="475" d="M33 174v164h61v141l201 45v-186h125v-164h-125v-242q0 -25 5.5 -38.5t10.5 -16t13 -2.5q15 0 59 23l66 -162q-103 -58 -183 -58q-90 0 -131 58t-41 176v262h-61z" />
<glyph horiz-adv-x="882" d="M59 0v238l404 665h-377v273h721v-236l-401 -670h409v-270h-756zM154 1544h200l92 -145l93 145h200l-159 -287h-267z" />
<glyph horiz-adv-x="434" d="M49 612v123h17q67 0 53 154l-6 90q-9 110 29.5 165t123.5 73q-86 18 -124 71.5t-29 163.5l6 88q14 156 -53 156h-17v123h17q129 0 202.5 -72.5t59.5 -222.5l-11 -115q-7 -63 9.5 -97t72.5 -34v-127q-56 0 -72.5 -33.5t-9.5 -97.5l11 -113q14 -149 -59.5 -222t-202.5 -73 h-17z" />
<glyph horiz-adv-x="860" d="M104 0v1176h680v-273h-393v-182h318v-264h-318v-187h400v-270h-687z" />
<glyph horiz-adv-x="638" d="M47 0v94q0 59 16.5 112.5t47 98.5t57 75t63.5 64q7 6 29.5 27.5t30 29.5t24.5 25.5t23.5 27.5t16 24t13 26t3.5 23q0 24 -16.5 39.5t-43.5 15.5q-50 0 -151 -74l-97 144q135 122 279 122q114 0 176 -70.5t62 -166.5q0 -51 -17.5 -100t-52 -93.5t-52.5 -63.5t-52 -52 q-40 -38 -57 -54.5t-33.5 -41t-16.5 -42.5h281v-190h-533z" />
<glyph horiz-adv-x="638" d="M47 573v95q0 59 16.5 112.5t47 98.5t57 75t63.5 64q8 8 29 28t30 29t25 25.5t23.5 26.5t16.5 24t12.5 26t3.5 23q0 24 -16.5 39.5t-43.5 15.5q-51 0 -151 -73l-97 143q136 123 279 123q114 0 176 -71t62 -167q0 -51 -17.5 -100t-52 -93.5t-52.5 -63.5t-52 -52 q-33 -31 -44 -41.5t-30.5 -32t-26 -35.5t-6.5 -28h281v-191h-533z" />
<glyph horiz-adv-x="942" d="M59 0v145q0 73 19 136.5t57.5 117.5t80.5 95.5t103 89.5q20 16 58.5 45.5t58.5 45t47.5 40t41 42t24 39.5t10.5 42q0 36 -21.5 58t-60.5 22q-36 0 -89.5 -28t-79.5 -48t-75 -58l-151 217q214 193 438 193q160 0 251 -92t91 -240q0 -86 -28.5 -159t-93.5 -139t-104 -97 t-125 -91q-3 -3 -5 -4t-5 -3t-5 -4q-65 -47 -82 -84h450v-281h-805z" />
<glyph horiz-adv-x="434" d="M49 -360h17q66 0 53 153l-6 90q-9 110 29.5 165t123.5 73q-86 18 -124 71.5t-29 163.5l6 88q14 156 -53 156h-17v123h17q129 0 202.5 -72.5t59.5 -222.5l-11 -115q-7 -63 9.5 -97t72.5 -34v-127q-56 0 -72.5 -33.5t-9.5 -97.5l11 -112q14 -149 -59.5 -222t-202.5 -73h-17 v123z" />
<glyph horiz-adv-x="1355" d="M55 471v76q0 49 14.5 93t41.5 80.5t50 60.5t56 53q80 72 100 100q21 29 21 53q0 21 -15 34t-42 13q-49 0 -134 -59l-77 112q114 101 235 101q94 0 146.5 -57.5t52.5 -137.5q0 -123 -152 -256q-36 -30 -52 -44.5t-30 -34t-14 -37.5h248v-150h-449zM418 0l397 1176h174 l-397 -1176h-174zM840 84l80 127q75 -66 131 -66q37 0 59.5 24t22.5 62q0 37 -20.5 64t-61.5 27q-43 0 -90 -37l-91 55l29 365h381v-152h-240l-4 -94q24 8 60 8q99 0 150.5 -67.5t51.5 -166.5q0 -105 -56 -175t-165 -70q-122 0 -237 96z" />
<glyph horiz-adv-x="602" d="M66 -70h22q91 0 78 213l-10 117q-12 152 42 227t173 99q-120 24 -173.5 98t-41.5 225l10 119q14 215 -78 215h-22v166h22q86 0 155 -23t120.5 -69.5t75 -126t12.5 -184.5l-15 -156q-5 -38 -2 -70.5t13.5 -56.5t37 -37.5t68.5 -13.5v-174q-79 0 -101.5 -45.5t-13.5 -133.5 l13 -155q19 -204 -82.5 -304t-280.5 -100h-22v170z" />
<glyph horiz-adv-x="747" d="M94 788v861h223q190 0 281.5 -102t91.5 -328t-92 -328.5t-281 -102.5h-223zM303 985h25q76 0 115.5 50.5t39.5 183.5q0 132 -39.5 182.5t-115.5 50.5h-25v-467z" />
<glyph horiz-adv-x="882" d="M59 0v238l404 665h-377v273h721v-236l-401 -670h409v-270h-756zM338 1278v250h215v-250h-215z" />
<glyph horiz-adv-x="1349" d="M59 471v76q0 49 14 93t40.5 80.5t50 61t55.5 52.5q43 38 62.5 56t40 46.5t20.5 50.5q0 21 -15.5 34t-41.5 13q-48 0 -133 -59l-78 112q114 101 235 101q94 0 146.5 -57.5t52.5 -137.5q0 -126 -154 -256q-37 -31 -51 -44.5t-28.5 -34t-14.5 -37.5h248v-150h-449zM420 0 l397 1176h176l-397 -1176h-176zM829 82l78 119q92 -58 146 -58q34 0 57 19t23 51q0 25 -15 42.5t-38.5 26t-45 12t-43.5 3.5h-18v147h24q23 0 47 6t45 23.5t21 42.5q0 18 -15 32.5t-44 14.5q-56 0 -123 -53l-74 111q110 96 231 96q88 0 138.5 -49.5t50.5 -120.5 q0 -100 -96 -158q55 -24 87.5 -72t32.5 -112q0 -87 -54.5 -152t-164.5 -65q-121 0 -250 94z" />
<glyph horiz-adv-x="747" d="M94 -307v860h223q190 0 281.5 -102t91.5 -328t-91.5 -328t-281.5 -102h-223zM303 -111h25q76 0 115.5 50.5t39.5 183.5q0 132 -39.5 182.5t-115.5 50.5h-25v-467z" />
<glyph horiz-adv-x="434" d="M35 1153v127q56 0 72.5 33.5t9.5 97.5l-11 113q-14 149 60 222t203 73h16v-123h-16q-37 0 -48.5 -45.5t-5.5 -108.5l7 -90q9 -110 -29.5 -165t-124.5 -73q86 -18 124.5 -71.5t29.5 -163.5l-7 -88q-6 -63 5.5 -109.5t48.5 -46.5h16v-123h-16q-129 0 -203 72.5t-60 222.5 l11 115q7 63 -9.5 97t-72.5 34z" />
</font>
</defs>
</svg>
