<?xml version="1.0" standalone="no"?>
<!DOCTYPE svg PUBLIC "-//W3C//DTD SVG 1.1//EN" "http://www.w3.org/Graphics/SVG/1.1/DTD/svg11.dtd" >
<svg xmlns="http://www.w3.org/2000/svg">
<metadata></metadata>
<defs>
<font id="verbcompbold" horiz-adv-x="958" >
<font-face units-per-em="2048" ascent="1638" descent="-410" />
<missing-glyph horiz-adv-x="364" />
<glyph unicode="ff" horiz-adv-x="1224" d="M45 858v217h100v55q0 186 56 274.5t176 88.5q118 0 289 -84l-93 -205q-87 35 -114 35q-49 0 -49 -88v-76h172v-217h-172v-858h-265v858h-100zM657 858v217h101v55q0 187 55.5 275t175.5 88q118 0 289 -84l-92 -205q-87 35 -115 35q-49 0 -49 -88v-76h172v-217h-172v-858 h-264v858h-101z" />
<glyph unicode="fi" horiz-adv-x="1077" d="M45 858v217h100v55q0 186 56 274.5t176 88.5q96 0 231 -66l-57 -219q-60 31 -92 31q-49 0 -49 -88v-76h172v-217h-172v-858h-265v858h-100zM709 1231v256h272v-256h-272zM713 0v1075h264v-1075h-264z" />
<glyph unicode="fl" horiz-adv-x="1081" d="M45 858v217h100v55q0 186 56 274.5t176 88.5q96 0 231 -66l-57 -219q-60 31 -92 31q-49 0 -49 -88v-76h172v-217h-172v-858h-265v858h-100zM715 0v1493h264v-1493h-264z" />
<glyph unicode="ffi" horiz-adv-x="1689" d="M45 858v217h100v55q0 186 56 274.5t176 88.5q118 0 289 -84l-93 -205q-87 35 -114 35q-49 0 -49 -88v-76h172v-217h-172v-858h-265v858h-100zM657 858v217h101v55q0 187 55.5 275t175.5 88q97 0 232 -66l-58 -219q-60 31 -92 31q-49 0 -49 -88v-76h172v-217h-172v-858 h-264v858h-101zM1321 1231v256h272v-256h-272zM1325 0v1075h264v-1075h-264z" />
<glyph unicode="ffl" horiz-adv-x="1693" d="M45 858v217h100v55q0 186 56 274.5t176 88.5q118 0 289 -84l-93 -205q-87 35 -114 35q-49 0 -49 -88v-76h172v-217h-172v-858h-265v858h-100zM657 858v217h101v55q0 187 55.5 275t175.5 88q97 0 232 -66l-58 -219q-60 31 -92 31q-49 0 -49 -88v-76h172v-217h-172v-858 h-264v858h-101zM1327 0v1493h264v-1493h-264z" />
<glyph unicode="ffk" horiz-adv-x="2123" d="M45 858v217h100v55q0 186 56 274.5t176 88.5q118 0 289 -84l-93 -205q-87 35 -114 35q-49 0 -49 -88v-76h172v-217h-172v-858h-265v858h-100zM657 858v217h101v55q0 187 55.5 275t175.5 88q97 0 232 -66l-58 -219q-60 31 -92 31q-49 0 -49 -88v-76h172v-217h-172v-858 h-264v858h-101zM1323 0v1493h264v-819l191 401h299l-262 -428l303 -647h-277l-176 403l-78 -129v-274h-264z" />
<glyph unicode="ffj" horiz-adv-x="1685" d="M45 858v217h100v55q0 186 56 274.5t176 88.5q118 0 289 -84l-93 -205q-87 35 -114 35q-49 0 -49 -88v-76h172v-217h-172v-858h-265v858h-100zM657 858v217h101v55q0 187 55.5 275t175.5 88q97 0 232 -66l-58 -219q-60 31 -92 31q-49 0 -49 -88v-76h172v-217h-172v-858 h-264v858h-101zM1161 -248q32 16 53.5 27.5t40 25.5t29 22.5t19 25.5t12 27t6 34.5t2.5 40v51.5v1069h264v-1046q0 -67 -0.5 -97t-5 -78.5t-13 -70t-25 -56t-40.5 -53t-61 -44.5t-85.5 -46.5t-113.5 -44.5zM1319 1231v256h272v-256h-272z" />
<glyph unicode="fft" horiz-adv-x="1894" d="M45 858v217h100v55q0 186 56 274.5t176 88.5q118 0 289 -84l-93 -205q-87 35 -114 35q-49 0 -49 -88v-76h172v-217h-172v-858h-265v858h-100zM657 858v217h101v55q0 187 55.5 275t175.5 88q118 0 289 -84l-92 -205q-87 35 -115 35q-49 0 -49 -88v-76h172v-217h-172v-858 h-264v858h-101zM1272 858v217h100v244l262 67v-311h199v-217h-199v-522q0 -103 52 -103q8 0 17.5 2t17 4.5t19 8.5t17 8.5t19 10t16.5 9.5l90 -213q-158 -86 -268 -86q-126 0 -184 81t-58 255v545h-100z" />
<glyph unicode="fh" horiz-adv-x="1570" d="M45 858v217h100v55q0 186 56 274.5t176 88.5q96 0 231 -66l-57 -219q-60 31 -92 31q-49 0 -49 -88v-76h172v-217h-172v-858h-265v858h-100zM711 0v1493h264v-549q44 41 64 57.5t60 45t79.5 40t83.5 11.5q104 0 159.5 -80.5t55.5 -222.5v-795h-265v741q0 127 -71 127 q-81 0 -166 -139v-729h-264z" />
<glyph unicode="fj" horiz-adv-x="1073" d="M45 858v217h100v55q0 186 56 274.5t176 88.5q96 0 231 -66l-57 -219q-60 31 -92 31q-49 0 -49 -88v-76h172v-217h-172v-858h-265v858h-100zM549 -248q32 16 53.5 27.5t40 25.5t29 22.5t19 25.5t12 27t6 34.5t2.5 40v51.5v1069h264v-1046q0 -67 -0.5 -97t-5 -78.5t-13 -70 t-25 -56t-40.5 -53t-61 -44.5t-85.5 -46.5t-113.5 -44.5zM707 1231v256h272v-256h-272z" />
<glyph unicode="fk" horiz-adv-x="1511" d="M45 858v217h100v55q0 186 56 274.5t176 88.5q96 0 231 -66l-57 -219q-60 31 -92 31q-49 0 -49 -88v-76h172v-217h-172v-858h-265v858h-100zM711 0v1493h264v-819l190 401h299l-262 -428l303 -647h-276l-176 403l-78 -129v-274h-264z" />
<glyph unicode="ft" horiz-adv-x="1277" d="M45 858v217h100v55q0 186 56 274.5t176 88.5q118 0 289 -84l-93 -205q-87 35 -114 35q-49 0 -49 -88v-76h172v-217h-172v-858h-265v858h-100zM655 858v217h101v244l262 67v-311h199v-217h-199v-522q0 -103 51 -103q28 0 107 43l90 -213q-158 -86 -269 -86 q-126 0 -183.5 81t-57.5 255v545h-101z" />
<glyph unicode="ffh" horiz-adv-x="2183" d="M45 858v217h100v55q0 186 56 274.5t176 88.5q118 0 289 -84l-93 -205q-87 35 -114 35q-49 0 -49 -88v-76h172v-217h-172v-858h-265v858h-100zM657 858v217h101v55q0 187 55.5 275t175.5 88q97 0 232 -66l-58 -219q-60 31 -92 31q-49 0 -49 -88v-76h172v-217h-172v-858 h-264v858h-101zM1323 0v1493h264v-549q44 41 64 57.5t60 45t79.5 40t83.5 11.5q104 0 159.5 -80.5t55.5 -222.5v-795h-264v741q0 127 -72 127q-82 0 -166 -137v-731h-264z" />
<glyph unicode="ffb" horiz-adv-x="2179" d="M45 858v217h100v55q0 186 56 274.5t176 88.5q118 0 289 -84l-93 -205q-87 35 -114 35q-49 0 -49 -88v-76h172v-217h-172v-858h-265v858h-100zM657 858v217h101v55q0 187 55.5 275t175.5 88q97 0 232 -66l-58 -219q-60 31 -92 31q-49 0 -49 -88v-76h172v-217h-172v-858 h-264v858h-101zM1323 0v1493h264v-539q57 69 111.5 106.5t126.5 37.5q136 0 213.5 -141.5t77.5 -417.5q0 -277 -77.5 -419.5t-213.5 -142.5q-72 0 -125.5 36.5t-112.5 103.5v-117h-264zM1587 350q30 -66 68.5 -100.5t77.5 -34.5q116 0 116 324q0 321 -116 321 q-39 0 -77.5 -36t-68.5 -101v-373z" />
<glyph unicode="fb" horiz-adv-x="1566" d="M45 858v217h100v55q0 186 56 274.5t176 88.5q96 0 231 -66l-57 -219q-60 31 -92 31q-49 0 -49 -88v-76h172v-217h-172v-858h-265v858h-100zM711 0v1493h264v-539q57 69 111 106.5t126 37.5q136 0 213.5 -141.5t77.5 -417.5q0 -277 -77.5 -419.5t-213.5 -142.5 q-72 0 -125 36.5t-112 103.5v-117h-264zM975 350q30 -66 68 -100.5t77 -34.5q117 0 117 324q0 321 -117 321q-38 0 -76 -35.5t-69 -101.5v-373z" />
<glyph unicode=" "  horiz-adv-x="364" />
<glyph unicode="&#x09;" horiz-adv-x="364" />
<glyph unicode="&#xa0;" horiz-adv-x="364" />
<glyph unicode="!" horiz-adv-x="522" d="M100 1434h322l-82 -971h-158zM129 0v311h264v-311h-264z" />
<glyph unicode="&#x22;" horiz-adv-x="714" d="M76 1434h246l-43 -560h-160zM391 1434h246l-43 -560h-160z" />
<glyph unicode="#" horiz-adv-x="1073" d="M66 324v221h172l34 342h-147v223h170l35 324h200l-34 -324h161l35 324h201l-35 -324h150v-223h-172l-35 -342h147v-221h-172l-33 -324h-200l32 324h-161l-33 -324h-201l33 324h-147zM438 545h162l35 342h-162z" />
<glyph unicode="$" horiz-adv-x="993" d="M63 162l130 213q207 -142 317 -142q56 0 92.5 32.5t36.5 94.5q0 28 -12 56t-26.5 48t-48.5 49.5t-55 45.5t-71 52t-74 53q-61 44 -101.5 80.5t-82.5 87.5t-63 113t-21 134q0 148 86.5 250.5t239.5 122.5v188h188v-196q156 -34 303 -129l-131 -215q-176 100 -270 100 q-54 0 -89.5 -31t-35.5 -90q0 -23 7 -44.5t23.5 -43t32 -38t45 -39.5t49 -37t57.5 -41t58 -41q59 -42 100 -78t87 -90.5t70 -121t24 -143.5q0 -149 -87.5 -254.5t-242.5 -125.5v-187h-188v197q-190 40 -347 170z" />
<glyph unicode="%" horiz-adv-x="1474" d="M57 1073q0 179 69.5 281t215.5 102q145 0 215 -102t70 -281q0 -178 -70 -281.5t-215 -103.5q-146 0 -215.5 103.5t-69.5 281.5zM248 1073q0 -99 21 -152t73 -53q51 0 71.5 53t20.5 152q0 100 -20.5 151.5t-71.5 51.5q-52 0 -73 -51.5t-21 -151.5zM385 0l504 1434h198 l-501 -1434h-201zM848 362q0 179 70.5 281t216.5 102q145 0 213.5 -102t68.5 -281q0 -178 -69 -281.5t-213 -103.5q-146 0 -216.5 103.5t-70.5 281.5zM1040 362q0 -99 21.5 -151.5t73.5 -52.5q51 0 71.5 52.5t20.5 151.5q0 100 -20.5 151.5t-71.5 51.5q-53 0 -74 -52 t-21 -151z" />
<glyph unicode="&#x26;" horiz-adv-x="1107" d="M96 346q0 119 54.5 215.5t150.5 194.5q-65 99 -100 183.5t-35 184.5q0 153 87 242.5t230 89.5t225.5 -88.5t82.5 -222.5q0 -108 -52 -202.5t-145 -201.5l149 -213q29 98 35 228h262q-10 -105 -45 -226.5t-92 -228.5l213 -301h-297l-67 98q-131 -121 -293 -121 q-159 0 -261 103.5t-102 265.5zM346 365q0 -63 34 -114.5t93 -51.5q77 0 150 86l-189 278q-88 -110 -88 -198zM391 1116q0 -85 72 -194q100 112 100 204q0 49 -22 84t-62 35q-41 0 -64.5 -36.5t-23.5 -92.5z" />
<glyph unicode="'" horiz-adv-x="399" d="M76 1434h246l-43 -560h-160z" />
<glyph unicode="(" horiz-adv-x="561" d="M106 188v1047q0 72 1 106.5t7 87t19.5 78t38 61.5t62.5 58t92.5 46.5t128.5 45.5l63 -168q-51 -28 -77.5 -48.5t-40.5 -51.5t-16.5 -58.5t-2.5 -88.5v-1180q0 -41 1 -62t5 -47.5t12.5 -40.5t24 -32t38 -33t56.5 -33l-63 -168q-74 21 -128.5 45.5t-92.5 46.5t-62.5 57.5 t-38 61.5t-19.5 78t-7 86t-1 106z" />
<glyph unicode=")" horiz-adv-x="561" d="M43 -125q34 18 56.5 33t38 33t24 32t12.5 40.5t5 47.5t1 62v1180q0 61 -2.5 88.5t-16.5 58.5t-40.5 51.5t-77.5 48.5l63 168q74 -21 128.5 -45.5t92.5 -46.5t62.5 -57.5t38 -61.5t19.5 -78t7 -86t1 -106v-1047q0 -72 -1 -106.5t-7 -87t-19.5 -78t-38 -61.5t-62.5 -58 t-92.5 -46.5t-128.5 -45.5z" />
<glyph unicode="*" horiz-adv-x="858" d="M70 985l284 80l-282 82l108 190l213 -209l-76 289h224l-74 -289l209 209l110 -192l-274 -78l274 -82l-112 -192l-203 200l70 -280h-224l76 288l-213 -208z" />
<glyph unicode="+" horiz-adv-x="962" d="M113 575v216h260v301h213v-301h262v-216h-262v-301h-213v301h-260z" />
<glyph unicode="," horiz-adv-x="462" d="M94 -227l119 227h-117v338h262l17 -375l-211 -287z" />
<glyph unicode="-" horiz-adv-x="673" d="M98 465v235h477v-235h-477z" />
<glyph unicode="." horiz-adv-x="456" d="M96 0v338h264v-338h-264z" />
<glyph unicode="/" horiz-adv-x="712" d="M31 -184l456 1802h195l-455 -1802h-196z" />
<glyph unicode="0" horiz-adv-x="1040" d="M82 717q0 739 438 739t438 -739q0 -740 -438 -740q-227 0 -332.5 189t-105.5 551zM358 717q0 -264 36.5 -383t125.5 -119q88 0 125 119.5t37 382.5t-37 381.5t-125 118.5t-125 -118.5t-37 -381.5z" />
<glyph unicode="1" horiz-adv-x="698" d="M16 1217l287 217h262v-1434h-274v1149l-156 -119z" />
<glyph unicode="2" horiz-adv-x="950" d="M63 0v141q0 80 19 155.5t45 130t69 113.5t75 94t79 83l6.5 6.5l5.5 5.5q109 113 166.5 193.5t57.5 152.5q0 56 -32 91.5t-87 35.5q-93 0 -246 -121l-131 195q201 180 416 180q114 0 196.5 -52.5t121 -135t38.5 -183.5q0 -51 -12 -103t-26.5 -91.5t-45 -88.5t-48 -75 t-57 -71t-50.5 -56.5t-48 -50.5q-51 -54 -74.5 -80t-52.5 -66t-40 -75t-11 -74h467v-254h-801z" />
<glyph unicode="3" horiz-adv-x="946" d="M41 147l131 205q163 -114 264 -114q69 0 113.5 50.5t44.5 133.5q0 59 -27 103.5t-69.5 67.5t-85 33.5t-82.5 10.5h-35v252h41q33 0 69 10.5t70 31.5t56 57.5t22 82.5q0 55 -29.5 91t-89.5 36q-95 0 -227 -102l-123 186q205 174 405 174q160 0 249 -96.5t89 -239.5 q0 -107 -50 -191.5t-132 -137.5q101 -42 163 -144t62 -239q0 -81 -22 -154.5t-67 -137t-124 -101.5t-182 -38q-71 0 -143 18.5t-129 48t-95 54.5t-67 49z" />
<glyph unicode="4" horiz-adv-x="1042" d="M45 276v216l430 942h365v-904h147v-254h-147v-276h-275v276h-520zM287 530h278v607z" />
<glyph unicode="5" horiz-adv-x="942" d="M51 158l133 211q40 -35 69 -57t81 -47t94 -25q70 0 117 62.5t47 162.5q0 92 -41.5 158.5t-122.5 66.5q-79 0 -170 -80l-152 90l54 734h671v-254h-438l-6 -260q53 18 115 18q91 0 162.5 -38.5t115 -104.5t66 -149.5t22.5 -178.5q0 -98 -24.5 -184.5t-72 -155.5 t-126 -109.5t-178.5 -40.5q-207 0 -416 181z" />
<glyph unicode="6" horiz-adv-x="976" d="M78 602q0 192 45.5 351.5t126.5 270t195.5 171.5t250.5 61q42 0 81.5 -5.5t58.5 -10.5l18 -6l-63 -240q-44 12 -91 12q-109 0 -200 -98t-127 -299q82 115 217 115q144 0 234.5 -125.5t90.5 -321.5q0 -142 -46.5 -254t-140 -179t-220.5 -67q-87 0 -159 32.5t-121.5 90 t-83.5 136.5t-50 171t-16 195zM354 565q1 -165 42 -251.5t112 -86.5q46 0 78 37.5t44.5 88.5t12.5 110q0 98 -34 164.5t-101 66.5q-54 0 -95.5 -39.5t-58.5 -89.5z" />
<glyph unicode="7" horiz-adv-x="813" d="M51 1180v254h731v-236q-14 -24 -38 -67t-84.5 -177.5t-107 -269.5t-84.5 -324t-38 -360h-283q0 161 34 340t77.5 311t99 261.5t83.5 182.5t46 85h-436z" />
<glyph unicode="8" horiz-adv-x="1009" d="M72 367q0 250 235 407q-172 139 -172 338q0 149 99.5 246.5t269.5 97.5t270 -97.5t100 -246.5q0 -200 -174 -338q238 -159 238 -407q0 -176 -114 -283t-320 -107q-205 0 -318.5 107t-113.5 283zM348 385q0 -79 43 -126.5t113 -47.5q71 0 114.5 47.5t43.5 126.5 q0 157 -158 264q-156 -108 -156 -264zM387 1092q0 -123 117 -203q119 81 119 203q0 56 -32 97.5t-87 41.5t-86 -41t-31 -98z" />
<glyph unicode="9" horiz-adv-x="978" d="M61 956q0 142 47 254t141 179t222 67q109 0 192.5 -49.5t134.5 -137t76.5 -198t26.5 -240.5q0 -255 -79 -450t-219 -299.5t-320 -104.5q-43 0 -83 5.5t-58 11.5l-19 6l65 240q42 -13 91 -13q108 0 198.5 97t126.5 299q-81 -113 -215 -113q-144 0 -236 125.5t-92 320.5z M336 971q0 -100 33.5 -166t101.5 -66q53 0 92.5 37t59.5 88q-1 166 -42.5 254t-109.5 88q-46 0 -78 -37t-44.5 -88t-12.5 -110z" />
<glyph unicode=":" horiz-adv-x="479" d="M106 0v338h265v-338h-265zM106 645v338h265v-338h-265z" />
<glyph unicode=";" horiz-adv-x="491" d="M109 -227l118 227h-116v338h262l16 -375l-211 -287zM111 645v338h264v-338h-264z" />
<glyph unicode="&#x3c;" horiz-adv-x="962" d="M92 582v202l733 420v-289l-463 -233l463 -236v-284z" />
<glyph unicode="=" horiz-adv-x="962" d="M113 379v223h735v-223h-735zM113 768v223h735v-223h-735z" />
<glyph unicode="&#x3e;" horiz-adv-x="962" d="M137 162v289l463 233l-463 236v284l733 -420v-202z" />
<glyph unicode="?" horiz-adv-x="815" d="M49 1303q59 57 154.5 105t206.5 48q149 0 248.5 -95.5t99.5 -252.5q0 -272 -332 -442l-14 -203h-162l-14 358q123 51 184 111t61 141q0 53 -31 91t-88 38q-78 0 -186 -88zM201 0v311h262v-311h-262z" />
<glyph unicode="@" horiz-adv-x="1396" d="M70 518q0 191 44 353.5t125 281t202.5 185.5t269.5 67q190 0 328 -114t207.5 -312t70.5 -459q0 -121 -14.5 -220t-46.5 -183t-91 -131t-141 -47q-54 0 -95.5 24.5t-65 64t-36 78t-16.5 78.5q-99 -137 -219 -137q-102 0 -166 78.5t-64 226.5q0 149 68 229.5t174 80.5 q33 0 70.5 -8t84.5 -23.5t50 -16.5v97q0 85 -23.5 122t-80.5 37q-97 0 -232 -75l-67 149q186 94 333 94q133 0 195.5 -78t62.5 -251v-357q0 -43 0.5 -71.5t3 -63.5t7.5 -57t13 -42.5t21 -30t31 -9.5q27 0 51 25t43.5 76t31 140t11.5 207q-1 162 -32.5 300t-91.5 244.5 t-157 167t-220 60.5q-128 0 -230.5 -61t-168 -167.5t-100 -248t-34.5 -305.5q0 -221 58.5 -396.5t171.5 -277.5t262 -102q71 0 135.5 21t93.5 42l29 21l55 -84q-4 -4 -13 -11.5t-39 -26t-64.5 -32.5t-89 -25.5t-113.5 -11.5q-175 0 -310.5 115.5t-208.5 316.5t-73 453z M553 367q0 -76 27 -114t71 -38q70 0 158 121v166q-3 1 -28 9t-38.5 12t-35 8t-37.5 4q-59 0 -88 -46t-29 -122z" />
<glyph unicode="A" horiz-adv-x="1075" d="M25 0l362 1434h303l361 -1434h-295l-56 285h-325l-53 -285h-297zM422 526h231l-116 611z" />
<glyph unicode="B" horiz-adv-x="1056" d="M121 0v1434h381q219 0 329.5 -89.5t110.5 -259.5q0 -136 -63 -220.5t-136 -98.5q28 -5 58.5 -19.5t66 -44.5t63 -71t46 -105.5t18.5 -140.5q0 -183 -106.5 -284t-325.5 -101h-442zM395 238h115q108 0 160.5 52t52.5 148q0 203 -225 203h-103v-403zM395 862h90 q187 0 187 168q0 166 -185 166h-92v-334z" />
<glyph unicode="C" horiz-adv-x="980" d="M76 717q0 368 113 553.5t309 185.5q59 0 116 -13.5t116.5 -42.5t102 -54.5t109.5 -69.5l-123 -223q-19 11 -59 35.5t-61.5 37t-52.5 28t-56 22t-49 6.5q-91 0 -138 -123t-47 -342t47 -342t138 -123q24 0 49 6.5t56 22t52.5 28t61.5 37t59 35.5l123 -223 q-68 -44 -109.5 -69t-101.5 -55t-117 -43.5t-116 -13.5q-196 0 -309 186t-113 554z" />
<glyph unicode="D" horiz-adv-x="1097" d="M121 0v1434h323q290 0 434 -170.5t144 -546.5t-144 -546.5t-434 -170.5h-323zM395 260h62q146 0 219.5 104t73.5 353t-73.5 353t-219.5 104h-62v-914z" />
<glyph unicode="E" horiz-adv-x="944" d="M121 0v1434h741v-260h-467v-330h379v-254h-379v-330h473v-260h-747z" />
<glyph unicode="F" horiz-adv-x="903" d="M121 0v1434h741v-260h-467v-330h367v-256h-367v-588h-274z" />
<glyph unicode="G" horiz-adv-x="1069" d="M76 721q0 364 116 549.5t314 185.5q61 0 123 -15t125.5 -46.5t106.5 -57t108 -67.5l-123 -226q-19 11 -77 46t-83 48.5t-66 28.5t-73 15q-95 0 -143 -126t-48 -362q0 -99 10.5 -180t32.5 -143.5t58.5 -97.5t85.5 -35q92 0 178 155v187h-205v241h463v-821h-258v129 q-124 -152 -254 -152q-63 0 -120 27.5t-107 87t-86 146t-57 210t-21 273.5z" />
<glyph unicode="H" horiz-adv-x="1112" d="M121 0v1434h274v-555h322v555h274v-1434h-274v625h-322v-625h-274z" />
<glyph unicode="I" horiz-adv-x="516" d="M121 0v1434h274v-1434h-274z" />
<glyph unicode="J" horiz-adv-x="516" d="M-43 -133q32 15 54.5 27t40.5 25.5t29 23t19.5 26t12 26.5t5.5 33t2.5 37.5t0.5 47.5v1321h274v-1305q0 -74 -1 -108t-7 -85.5t-19.5 -75.5t-37 -59t-62 -57.5t-92.5 -49t-129 -54.5z" />
<glyph unicode="K" horiz-adv-x="1075" d="M121 0v1434h274v-592l324 592h332l-408 -654l418 -780h-326l-256 516l-84 -133v-383h-274z" />
<glyph unicode="L" horiz-adv-x="880" d="M121 0v1434h274v-1174h451v-260h-725z" />
<glyph unicode="M" horiz-adv-x="1290" d="M121 0v1434h280l244 -779l244 779h280v-1434h-274v874l-190 -634h-119l-191 637v-877h-274z" />
<glyph unicode="N" horiz-adv-x="1134" d="M121 0v1434h276l342 -908v908h275v-1434h-279l-340 905v-905h-274z" />
<glyph unicode="O" horiz-adv-x="1146" d="M72 717q0 739 501 739q502 0 502 -739q0 -129 -15.5 -236.5t-52 -202.5t-93 -160.5t-143 -103t-198.5 -37.5q-501 0 -501 740zM354 717q0 -110 10 -191.5t33.5 -148.5t67.5 -102t108 -35t108.5 35t68 102t33.5 148.5t10 191.5q0 86 -6 154.5t-21 130.5t-39.5 103t-63 65 t-90.5 24q-64 0 -108 -35t-67.5 -102.5t-33.5 -149t-10 -190.5z" />
<glyph unicode="P" horiz-adv-x="1030" d="M121 0v1434h364q255 0 373.5 -116.5t118.5 -348.5q0 -230 -118.5 -345.5t-373.5 -115.5h-90v-508h-274zM395 760h97q99 0 153.5 46.5t54.5 162.5t-54.5 163.5t-153.5 47.5h-97v-420z" />
<glyph unicode="Q" horiz-adv-x="1146" d="M72 717q0 739 501 739q502 0 502 -739q0 -511 -244 -670l170 -186l-180 -207l-248 323q-501 0 -501 740zM354 717q0 -110 10 -191.5t33.5 -148.5t67.5 -102t108 -35t108.5 35t68 102t33.5 148.5t10 191.5q0 86 -6 154.5t-21 130.5t-39.5 103t-63 65t-90.5 24 q-64 0 -108 -35t-67.5 -102.5t-33.5 -149t-10 -190.5z" />
<glyph unicode="R" horiz-adv-x="1077" d="M121 0v1434h393q255 0 374.5 -109t119.5 -330q0 -319 -250 -405l252 -590h-291l-232 555h-92v-555h-274zM395 797h127q99 0 154 44.5t55 153.5q0 108 -55 152.5t-154 44.5h-127v-395z" />
<glyph unicode="S" horiz-adv-x="976" d="M53 162l129 213q207 -142 318 -142q56 0 92.5 32.5t36.5 94.5q0 28 -12 56t-26.5 48t-48.5 49.5t-55 45.5t-71 52t-74 53q-61 44 -101.5 80.5t-82.5 87.5t-63 113t-21 134q0 165 104.5 271t286.5 106q209 0 426 -141l-131 -215q-176 100 -271 100q-54 0 -89 -31t-35 -90 q0 -23 7 -44.5t23.5 -43t32 -38t45 -39.5t49 -37t57.5 -41t58 -41q59 -42 100 -78t87 -90.5t70 -121t24 -143.5q0 -164 -105 -274.5t-287 -110.5q-129 0 -254.5 54.5t-218.5 130.5z" />
<glyph unicode="T" horiz-adv-x="901" d="M37 1174v260h827v-260h-274v-1174h-275v1174h-278z" />
<glyph unicode="U" horiz-adv-x="1099" d="M113 483v951h272v-975q0 -49 7 -86t24 -68.5t50.5 -48t82.5 -16.5t82.5 16.5t50.5 48t24 68.5t7 86v975h274v-951q0 -90 -10.5 -161t-39.5 -138t-77 -110.5t-126.5 -70t-184.5 -26.5q-105 0 -183.5 26.5t-126 70t-76.5 110.5t-39.5 138t-10.5 161z" />
<glyph unicode="V" horiz-adv-x="1071" d="M23 1434h301l213 -1074l213 1074h299l-361 -1434h-303z" />
<glyph unicode="W" horiz-adv-x="1456" d="M37 1434h307l127 -916l152 916h208l152 -920l127 920h309l-276 -1434h-260l-156 930l-156 -930h-260z" />
<glyph unicode="X" horiz-adv-x="1015" d="M16 0l326 725l-309 709h309l166 -488l164 488h311l-311 -709l327 -725h-317l-174 475l-176 -475h-316z" />
<glyph unicode="Y" horiz-adv-x="1007" d="M16 1434h301l187 -562l184 562h303l-350 -865v-569h-274v569z" />
<glyph unicode="Z" horiz-adv-x="962" d="M57 0v229l500 945h-469v260h799v-228l-500 -946h508v-260h-838z" />
<glyph unicode="[" horiz-adv-x="600" d="M119 -293v2011h434v-176h-160v-1661h160v-174h-434z" />
<glyph unicode="\" horiz-adv-x="712" d="M29 1618h194l459 -1802h-197z" />
<glyph unicode="]" horiz-adv-x="600" d="M47 -117h160v1661h-160v174h434v-2011h-434v176z" />
<glyph unicode="^" horiz-adv-x="962" d="M84 670l260 764h272l261 -764h-271l-127 532l-125 -532h-270z" />
<glyph unicode="_" horiz-adv-x="1060" d="M94 -147h873v-211h-873v211z" />
<glyph unicode="`" horiz-adv-x="350" d="M-55 1493h282l179 -283h-213z" />
<glyph unicode="a" horiz-adv-x="919" d="M53 326q0 168 78 259t207 91q25 0 51 -3.5t54 -10.5t43.5 -11.5t44.5 -14.5t32 -11v98q0 81 -26 116t-88 35q-48 0 -100 -17t-161 -62l-86 202q232 101 406 101q162 0 239.5 -85.5t77.5 -277.5v-735h-262v127q-115 -150 -252 -150q-118 0 -188 94t-70 255zM319 352 q0 -73 26.5 -109t70.5 -36q43 0 81 33t66 82v157q-85 35 -129 35q-57 0 -86 -43.5t-29 -118.5z" />
<glyph unicode="b" horiz-adv-x="954" d="M98 0v1493h264v-539q57 69 111.5 106.5t126.5 37.5q136 0 213.5 -141.5t77.5 -417.5q0 -277 -77.5 -419.5t-213.5 -142.5q-72 0 -125.5 36.5t-112.5 103.5v-117h-264zM362 350q30 -66 68.5 -100.5t77.5 -34.5q117 0 117 324q0 321 -117 321q-39 0 -77.5 -36t-68.5 -101 v-373z" />
<glyph unicode="c" horiz-adv-x="786" d="M61 539q0 141 28 250t77 175.5t111 100t133 33.5q46 0 94 -12t101 -38.5t75 -39t70 -41.5l-111 -213q-12 8 -46 31.5t-49 32t-39.5 18.5t-43.5 10q-64 0 -97.5 -83t-33.5 -224t33 -225.5t96 -84.5q21 0 48.5 10.5t43.5 20.5t48.5 32t39.5 27l111 -210 q-55 -35 -94.5 -57.5t-112.5 -48.5t-133 -26q-71 0 -133 34.5t-111 101.5t-77 176.5t-28 249.5z" />
<glyph unicode="d" horiz-adv-x="954" d="M63 539q0 276 77 417.5t214 141.5q72 0 126.5 -37.5t111.5 -106.5v539h264v-1493h-264v117q-59 -67 -112.5 -103.5t-125.5 -36.5q-137 0 -214 142t-77 420zM330 539q0 -324 116 -324q82 0 146 135v373q-67 137 -146 137q-116 0 -116 -321z" />
<glyph unicode="e" horiz-adv-x="880" d="M61 537q0 267 101 414t287 147q178 0 273 -130.5t95 -342.5q0 -39 -3 -77t-6 -56l-3 -19h-475q6 -135 38.5 -205.5t98.5 -70.5q11 0 22 1.5t24.5 6.5t23.5 8t27 12.5t26 14t30 17.5t29 18t33 21t33 21l106 -174q-226 -166 -389 -166q-164 0 -267.5 142.5t-103.5 417.5z M332 633h243q0 130 -27 192t-89 62t-91.5 -63.5t-35.5 -190.5z" />
<glyph unicode="f" horiz-adv-x="612" d="M45 858v217h100v55q0 186 56 274.5t176 88.5q118 0 289 -84l-93 -205q-87 35 -114 35q-49 0 -49 -88v-76h172v-217h-172v-858h-265v858h-100z" />
<glyph unicode="g" horiz-adv-x="954" d="M63 539q0 276 77 417.5t214 141.5q72 0 126.5 -37.5t111.5 -106.5v121h264v-1106q0 -215 -81 -311t-261 -96q-94 0 -207 23.5t-211 62.5l68 221q181 -78 293 -78q72 0 103.5 42t31.5 132v152q-59 -67 -112.5 -103.5t-125.5 -36.5q-137 0 -214 142t-77 420zM330 539 q0 -324 116 -324q82 0 146 135v373q-67 137 -146 137q-116 0 -116 -321z" />
<glyph unicode="h" d="M98 0v1493h264v-549q44 41 64 57.5t60 45t79.5 40t83.5 11.5q104 0 159.5 -80.5t55.5 -222.5v-795h-264v741q0 127 -72 127q-81 0 -166 -139v-729h-264z" />
<glyph unicode="i" horiz-adv-x="462" d="M94 1231v256h273v-256h-273zM98 0v1075h264v-1075h-264z" />
<glyph unicode="j" horiz-adv-x="460" d="M-63 -248q32 16 53.5 27.5t40 25.5t29 22.5t18.5 26t11.5 27t6 34.5t2.5 40v51v1069h264v-1046q0 -67 -0.5 -97t-5 -78.5t-13 -70t-25 -56t-40.5 -53t-61 -44.5t-85.5 -46.5t-113.5 -44.5zM94 1231v256h273v-256h-273z" />
<glyph unicode="k" horiz-adv-x="899" d="M98 0v1493h264v-819l191 401h299l-262 -428l303 -647h-277l-176 403l-78 -129v-274h-264z" />
<glyph unicode="l" horiz-adv-x="468" d="M102 0v1493h265v-1493h-265z" />
<glyph unicode="m" horiz-adv-x="1390" d="M98 0v1075h264v-139q118 162 250 162q75 0 127.5 -51t75.5 -132q121 183 266 183q103 0 159 -81.5t56 -221.5v-795h-264v715q0 73 -14.5 113t-52.5 40q-39 0 -74 -38t-62 -95v-735h-264v715q0 73 -14.5 113t-52.5 40t-73.5 -38t-62.5 -93v-737h-264z" />
<glyph unicode="n" d="M98 0v1075h264v-129q35 34 60 55.5t62.5 46.5t78.5 37.5t86 12.5q104 0 159.5 -80.5t55.5 -222.5v-795h-264v741q0 127 -72 127q-81 0 -166 -139v-729h-264z" />
<glyph unicode="o" horiz-adv-x="931" d="M61 539q0 269 102 414t304 145t303.5 -146t101.5 -415t-101.5 -414.5t-303.5 -145.5q-201 0 -303.5 146t-102.5 416zM328 539q0 -165 31.5 -249.5t107.5 -84.5q75 0 106 84t31 248t-31 248.5t-106 84.5q-76 0 -107.5 -83.5t-31.5 -247.5z" />
<glyph unicode="p" horiz-adv-x="954" d="M98 -418v1493h264v-121q57 69 111.5 106.5t126.5 37.5q136 0 213.5 -141.5t77.5 -417.5q0 -277 -77.5 -419.5t-213.5 -142.5q-72 0 -125.5 36.5t-112.5 103.5v-535h-264zM362 350q30 -66 68.5 -100.5t77.5 -34.5q117 0 117 324q0 321 -117 321q-39 0 -77.5 -36 t-68.5 -101v-373z" />
<glyph unicode="q" horiz-adv-x="954" d="M63 539q0 276 77 417.5t214 141.5q71 0 126 -38t112 -106v121h264v-1493h-264v535q-59 -67 -112.5 -103.5t-125.5 -36.5q-137 0 -214 142t-77 420zM330 539q0 -324 116 -324q82 0 146 135v373q-67 137 -146 137q-116 0 -116 -321z" />
<glyph unicode="r" horiz-adv-x="667" d="M98 0v1075h264v-225q8 25 18 48.5t34 63t52 66.5q28 28 74 46q36 15 75 14q11 0 22 -1v-276q-69 0 -123 -35.5t-81.5 -86t-44.5 -101t-22 -86.5l-4 -35v-467h-264z" />
<glyph unicode="s" horiz-adv-x="825" d="M49 117l111 198q64 -43 140.5 -76.5t125.5 -33.5q34 0 59 20t25 58q0 27 -11.5 48.5t-38 40.5t-48.5 31t-64 31q-47 22 -78.5 39.5t-74.5 49.5t-68.5 65.5t-44.5 85t-19 110.5q0 135 84 224.5t234 89.5q95 0 192 -35t170 -82l-108 -190q-138 79 -221 79q-37 0 -61.5 -20 t-24.5 -57q0 -14 4.5 -26.5t9 -22t17 -20t20 -16.5t25.5 -15.5t25.5 -13t29.5 -13.5t28 -13q60 -28 107 -58.5t91 -74.5t68.5 -103t24.5 -130q0 -135 -86.5 -222.5t-238.5 -87.5q-107 0 -219.5 42.5t-184.5 97.5z" />
<glyph unicode="t" horiz-adv-x="667" d="M47 858v217h100v244l263 67v-311h198v-217h-198v-522q0 -103 51 -103q8 0 17.5 2t17 4.5t19 8.5t17 8.5t19 10t16.5 9.5l90 -213q-158 -86 -268 -86q-126 0 -184 81t-58 255v545h-100z" />
<glyph unicode="u" d="M94 281v794h264v-741q0 -127 72 -127q79 0 166 135v733h264v-1075h-264v129q-35 -34 -61 -56t-63.5 -46.5t-78 -37t-84.5 -12.5q-104 0 -159.5 81t-55.5 223z" />
<glyph unicode="v" horiz-adv-x="892" d="M27 1075h276l143 -739l144 739h276l-288 -1075h-263z" />
<glyph unicode="w" horiz-adv-x="1261" d="M37 1075h278l95 -669l129 669h184l127 -674l96 674h281l-228 -1075h-237l-131 664l-131 -664h-238z" />
<glyph unicode="x" horiz-adv-x="923" d="M14 0l287 543l-272 532h297l135 -373l137 373h295l-270 -530l286 -545h-309l-139 381l-139 -381h-308z" />
<glyph unicode="y" horiz-adv-x="892" d="M27 1075h276l143 -743l144 743h276l-399 -1493h-283l138 379z" />
<glyph unicode="z" horiz-adv-x="860" d="M59 0v205l418 629h-403v241h723v-203l-420 -628h420v-244h-738z" />
<glyph unicode="{" horiz-adv-x="626" d="M37 621v184q87 0 115 55.5t18 175.5l-18 191q-21 243 87 367t306 124h26v-170h-26q-138 0 -117 -295l12 -161q13 -173 -44 -261.5t-185 -117.5q128 -29 185 -117.5t44 -261.5l-12 -162q-21 -295 117 -295h26v-170h-26q-198 0 -306.5 124.5t-86.5 367.5l18 190 q11 119 -17.5 175.5t-115.5 56.5z" />
<glyph unicode="|" horiz-adv-x="430" d="M121 -252v1927h188v-1927h-188z" />
<glyph unicode="}" horiz-adv-x="628" d="M57 -123h27q138 0 117 295l-13 162q-13 173 44.5 261.5t185.5 117.5q-128 29 -185.5 117.5t-44.5 261.5l13 161q21 295 -117 295h-27v170h27q198 0 306.5 -124t86.5 -367l-18 -191q-11 -119 17.5 -175t115.5 -56v-184q-86 0 -114.5 -56t-18.5 -176l18 -190 q21 -243 -87 -367.5t-306 -124.5h-27v170z" />
<glyph unicode="~" horiz-adv-x="962" d="M43 446q44 150 109.5 230t164.5 80q47 0 96.5 -24t84.5 -52t76 -52t73 -24q35 0 62.5 27t60.5 108l148 -69q-44 -149 -110 -229.5t-165 -80.5q-43 0 -92.5 24t-86 52t-79 52t-74.5 24q-33 0 -59 -27t-59 -108z" />
<glyph unicode="&#xa1;" horiz-adv-x="526" d="M102 0l82 971h158l82 -971h-322zM131 1122v312h264v-312h-264z" />
<glyph unicode="&#xa2;" horiz-adv-x="849" d="M78 719q0 255 88 395.5t223 159.5v160h189v-187q77 -28 206 -110l-114 -209q-10 6 -43.5 29t-52.5 34.5t-46.5 23t-48.5 11.5q-67 0 -100 -81t-33 -226t33 -227t100 -82q17 0 36 5.5t42.5 19t37 22t41.5 28t34 23.5l114 -209q-114 -77 -206 -113v-186h-189v160 q-136 20 -223.5 161.5t-87.5 397.5z" />
<glyph unicode="&#xa3;" horiz-adv-x="886" d="M84 0v207q6 4 16 11.5t36 35.5t47 60t40.5 85t24.5 111h-150v178h131q-12 45 -44 126t-51 154t-19 152q0 159 81 247.5t228 88.5q186 0 397 -172l-131 -186q-129 104 -205 104q-46 0 -71 -32t-25 -91q0 -53 20.5 -113t48.5 -134.5t40 -143.5h215v-178h-207 q-16 -153 -88 -256h389v-254h-723z" />
<glyph unicode="&#xa5;" horiz-adv-x="1069" d="M47 1434h301l187 -562l184 562h303l-268 -664h157v-174h-229l-10 -27v-98h239v-174h-239v-297h-275v297h-241v174h241v98l-12 27h-229v174h159z" />
<glyph unicode="&#xa6;" horiz-adv-x="432" d="M121 -252v846h190v-846h-190zM121 829v846h190v-846h-190z" />
<glyph unicode="&#xa7;" horiz-adv-x="886" d="M74 655q0 80 36.5 142.5t104.5 97.5q-115 99 -115 248q0 135 84 224t234 89q95 0 192 -35t170 -82l-110 -188q-50 30 -113 55t-106 25q-38 0 -62 -21t-24 -59q0 -19 8 -36t16 -27.5t29.5 -24t31.5 -18.5t38.5 -17.5t35.5 -15.5q289 -132 289 -359q0 -80 -36 -142 t-105 -97q116 -100 116 -248q0 -135 -84.5 -224t-234.5 -89q-94 0 -192.5 35t-170.5 81l111 189q52 -31 114.5 -55.5t104.5 -24.5q38 0 62 20.5t24 57.5q0 20 -8.5 37.5t-17 28.5t-30.5 25t-31 18.5t-37.5 17t-32.5 14.5q-291 130 -291 358zM326 682q0 -51 35.5 -83.5 t115.5 -70.5q84 19 84 101q0 50 -33.5 80.5t-115.5 70.5q-38 -8 -62 -33t-24 -65z" />
<glyph unicode="&#xa8;" horiz-adv-x="362" d="M-53 1231v235h194v-235h-194zM221 1231v235h195v-235h-195z" />
<glyph unicode="&#xa9;" horiz-adv-x="1611" d="M76 717q0 156 49 290.5t140 234.5t230.5 157t311.5 57t311 -57t230 -157t139.5 -234.5t48.5 -290.5t-48.5 -290.5t-139.5 -234.5t-230 -157.5t-311 -57.5t-311.5 57.5t-230.5 157.5t-140 234.5t-49 290.5zM156 717q0 -141 43 -261.5t124 -210.5t205 -141t277 -51 q205 0 355 89t224 237.5t74 337.5q0 141 -43.5 261.5t-124.5 210t-205.5 140.5t-279.5 51q-153 0 -277 -51t-205 -140.5t-124 -210t-43 -261.5zM436 715q0 212 102 329t255 117q72 0 143 -23t109 -45.5t90 -58.5l-60 -69q-39 30 -69 50t-89.5 41t-119.5 21q-116 0 -188 -100 t-72 -262t72 -260.5t188 -98.5q60 0 120 21t89 39.5t69 48.5l60 -68q-52 -36 -90 -58.5t-109 -45.5t-143 -23q-73 0 -137 29t-113.5 83.5t-78 140t-28.5 192.5z" />
<glyph unicode="&#xaa;" horiz-adv-x="655" d="M68 987q0 98 48.5 153.5t129.5 55.5q24 0 48.5 -4.5t57 -14.5t33.5 -10v45q0 46 -15.5 65t-52.5 19q-20 0 -47 -6.5t-44 -12.5t-70 -26l-60 135q154 62 262 62q106 0 155.5 -54t49.5 -175v-431h-178v72q-74 -86 -156 -86q-74 0 -117.5 58.5t-43.5 154.5zM248 1004 q0 -37 14.5 -56.5t38.5 -19.5q45 0 84 61v80q-41 18 -74 18q-63 0 -63 -83z" />
<glyph unicode="&#xab;" horiz-adv-x="995" d="M49 467v178l428 434v-321l-225 -203l225 -203v-321zM479 467v178l428 434v-321l-225 -203l225 -203v-321z" />
<glyph unicode="&#xac;" horiz-adv-x="962" d="M53 571v224h838v-611h-223v387h-615z" />
<glyph unicode="&#xad;" horiz-adv-x="673" d="M98 465v235h477v-235h-477z" />
<glyph unicode="&#xae;" horiz-adv-x="815" d="M74 1137q0 147 89.5 242.5t244.5 95.5t245 -95.5t90 -242.5t-90 -242.5t-245 -95.5t-244.5 95.5t-89.5 242.5zM143 1137q0 -121 68.5 -198t196.5 -77t196 77t68 198q0 120 -68 196t-196 76t-196.5 -76t-68.5 -196zM283 971v340h157q53 0 84 -27.5t31 -71.5 q0 -37 -22.5 -61.5t-59.5 -32.5l78 -147h-68l-77 143h-62v-143h-61zM344 1169h96q25 0 38.5 12t13.5 31q0 22 -11 32.5t-39 10.5h-98v-86z" />
<glyph unicode="&#xaf;" horiz-adv-x="446" d="M0 1262v174h446v-174h-446z" />
<glyph unicode="&#xb0;" horiz-adv-x="724" d="M61 1135q0 125 88.5 213t212.5 88q123 0 211.5 -88.5t88.5 -212.5t-88.5 -211.5t-211.5 -87.5q-125 0 -213 87.5t-88 211.5zM229 1135q0 -54 39 -92.5t94 -38.5q54 0 93 39t39 92q0 55 -39 94t-93 39q-56 0 -94.5 -39t-38.5 -94z" />
<glyph unicode="&#xb1;" horiz-adv-x="962" d="M113 0v193h735v-193h-735zM113 604v223h258v269h219v-269h258v-223h-258v-270h-219v270h-258z" />
<glyph unicode="&#xb2;" horiz-adv-x="626" d="M49 788v91q0 60 16 113t49.5 100t56.5 72.5t65 66.5q50 49 71.5 71t44.5 58.5t23 64.5t-19 47t-51 19q-58 0 -151 -72l-88 127q130 117 266 117q109 0 169 -67.5t60 -163.5q0 -42 -15 -86t-29 -70.5t-48.5 -67.5t-43 -49.5l-42.5 -42.5q-58 -53 -83.5 -87.5t-25.5 -70.5 h287v-170h-512z" />
<glyph unicode="&#xb3;" horiz-adv-x="626" d="M37 883l86 137q104 -72 166 -72q40 0 67 27t27 69q0 43 -30.5 71t-64.5 36t-69 8h-20v168h26q45 0 88 24t43 72q0 28 -16.5 47t-50.5 19q-59 0 -146 -62l-80 123q128 113 263 113q101 0 158 -59.5t57 -145.5q0 -124 -111 -194q62 -27 99.5 -87t37.5 -141q0 -49 -14 -94 t-42.5 -83.5t-78.5 -61.5t-115 -23q-143 0 -280 109z" />
<glyph unicode="&#xb4;" horiz-adv-x="350" d="M-55 1210l176 283h285l-246 -283h-215z" />
<glyph unicode="&#xb5;" horiz-adv-x="1009" d="M121 -418v1493h262v-741q0 -127 72 -127q79 0 166 135v733h264v-1075h-264v129q-41 -39 -70.5 -63.5t-75.5 -50t-92 -33.5v-400h-262z" />
<glyph unicode="&#xb6;" horiz-adv-x="1124" d="M49 944q0 246 111.5 368t298.5 122h217v-1813h-221v834q-82 0 -153.5 29t-129 86.5t-90.5 153.5t-33 220zM768 -379v1813h219v-1813h-219z" />
<glyph unicode="&#xb7;" horiz-adv-x="458" d="M96 416v338h264v-338h-264z" />
<glyph unicode="&#xb8;" horiz-adv-x="266" d="M-18 -330l49 146q36 -25 63 -25t44.5 19t17.5 59q0 28 -9 61.5t-19 53.5l-9 20h112q6 -10 15 -27.5t24 -67.5t15 -95q0 -93 -48.5 -141t-121.5 -48q-77 0 -133 45z" />
<glyph unicode="&#xb9;" horiz-adv-x="524" d="M18 1513l185 136h174v-861h-182v672l-99 -71z" />
<glyph unicode="&#xba;" horiz-adv-x="649" d="M63 1112q0 161 66 248.5t195 87.5q130 0 194 -87.5t64 -250.5t-64 -249.5t-194 -86.5q-129 0 -195 87.5t-66 250.5zM246 1112q0 -93 17 -138.5t61 -45.5q42 0 59.5 45.5t17.5 136.5q0 92 -17.5 138t-59.5 46q-43 0 -60.5 -45.5t-17.5 -136.5z" />
<glyph unicode="&#xbb;" horiz-adv-x="997" d="M90 31v321l225 203l-225 203v321l428 -436v-178zM518 31v321l225 203l-225 203v321l428 -436v-178z" />
<glyph unicode="&#xbc;" horiz-adv-x="1368" d="M43 1298l184 136h174v-861h-182v672l-98 -71zM299 0l457 1434h196l-458 -1434h-195zM705 160v141l266 559h243v-530h93v-170h-93v-160h-184v160h-325zM870 330h160v336z" />
<glyph unicode="&#xbd;" horiz-adv-x="1378" d="M43 1298l184 136h174v-861h-182v672l-98 -71zM299 0l457 1434h196l-458 -1434h-195zM786 0v90q0 60 16 113t49.5 100t56.5 72.5t65 66.5q49 47 71 70.5t45 59.5t23 65q0 28 -19 46.5t-51 18.5q-59 0 -151 -71l-88 127q129 116 266 116q109 0 169 -67.5t60 -163.5 q0 -49 -16 -95.5t-47 -89t-51 -64.5t-54 -56l-3.5 -3.5l-3 -3l-3.5 -3.5q-57 -53 -82.5 -87t-25.5 -71h286v-170h-512z" />
<glyph unicode="&#xbe;" horiz-adv-x="1488" d="M57 668l86 137q104 -72 166 -72q40 0 67 27t27 69q0 33 -17 57t-44 36t-52 17t-50 5h-21v168h27q46 0 88.5 24t42.5 72q0 28 -17 47t-51 19q-58 0 -145 -62l-80 123q128 113 262 113q101 0 158 -59.5t57 -145.5q0 -125 -110 -194q62 -27 99.5 -87t37.5 -141 q0 -49 -14 -94t-42.5 -83.5t-78.5 -61.5t-115 -23q-144 0 -281 109zM426 0l457 1434h196l-458 -1434h-195zM831 160v141l267 559h243v-530h93v-170h-93v-160h-184v160h-326zM997 330h160v336z" />
<glyph unicode="&#xbf;" horiz-adv-x="815" d="M57 326q0 272 332 442l14 203h162l15 -359q-123 -52 -184.5 -112t-61.5 -140q0 -53 31 -91t88 -38q78 0 186 88l127 -188q-59 -57 -154 -105.5t-206 -48.5q-149 0 -249 96t-100 253zM352 1122v312h262v-312h-262z" />
<glyph unicode="&#xc0;" horiz-adv-x="1075" d="M25 0l362 1434h303l361 -1434h-295l-56 285h-325l-53 -285h-297zM244 1802h282l179 -282h-213zM422 526h231l-116 611z" />
<glyph unicode="&#xc1;" horiz-adv-x="1075" d="M25 0l362 1434h303l361 -1434h-295l-56 285h-325l-53 -285h-297zM371 1520l176 282h284l-245 -282h-215zM422 526h231l-116 611z" />
<glyph unicode="&#xc2;" horiz-adv-x="1075" d="M25 0l362 1434h303l361 -1434h-295l-56 285h-325l-53 -285h-297zM262 1520l154 282h241l156 -282h-178l-98 153l-99 -153h-176zM422 526h231l-116 611z" />
<glyph unicode="&#xc3;" horiz-adv-x="1075" d="M25 0l362 1434h303l361 -1434h-295l-56 285h-325l-53 -285h-297zM252 1595q16 44 25 65.5t26.5 55t33 50t39 29.5t50.5 13q34 0 76.5 -24t78 -48t54.5 -24q11 0 20 5t23.5 27t28.5 62l112 -65q-18 -46 -25.5 -64.5t-25.5 -54.5t-33 -51.5t-38 -29t-50 -13.5 q-35 0 -78 24.5t-78.5 49t-54.5 24.5q-34 0 -71 -94zM422 526h231l-116 611z" />
<glyph unicode="&#xc4;" horiz-adv-x="1075" d="M25 0l362 1434h303l361 -1434h-295l-56 285h-325l-53 -285h-297zM303 1546v236h195v-236h-195zM422 526h231l-116 611zM578 1546v236h194v-236h-194z" />
<glyph unicode="&#xc5;" horiz-adv-x="1075" d="M25 0l362 1434h303l361 -1434h-295l-56 285h-325l-53 -285h-297zM338 1702q0 84 58.5 143.5t142.5 59.5t143 -59.5t59 -143.5q0 -85 -58.5 -144t-143.5 -59t-143 59t-58 144zM422 526h231l-116 611zM463 1702q0 -32 22 -54t54 -22t53.5 22t21.5 54q0 31 -21.5 53.5 t-53.5 22.5t-54 -22.5t-22 -53.5z" />
<glyph unicode="&#xc6;" horiz-adv-x="1597" d="M-25 0l660 1434h881v-260h-467v-330h378v-254h-378v-330h473v-260h-748v285h-348l-123 -285h-328zM532 532h242v560z" />
<glyph unicode="&#xc7;" horiz-adv-x="980" d="M76 717q0 368 113 553.5t309 185.5q59 0 116 -13.5t116.5 -42.5t102 -54.5t109.5 -69.5l-123 -223q-19 11 -59 35.5t-61.5 37t-52.5 28t-56 22t-49 6.5q-91 0 -138 -123t-47 -342t47 -342t138 -123q24 0 49 6.5t56 22t52.5 28t61.5 37t59 35.5l123 -223 q-75 -50 -123 -78.5t-116 -57.5t-130 -38q43 -83 43 -170q0 -93 -48.5 -141t-121.5 -48q-77 0 -133 45l49 146q36 -25 64 -25q27 0 44 19t17 59q0 53 -26 111q-179 16 -282 201.5t-103 535.5z" />
<glyph unicode="&#xc8;" horiz-adv-x="944" d="M121 0v1434h741v-260h-467v-330h379v-254h-379v-330h473v-260h-747zM201 1802h282l179 -282h-213z" />
<glyph unicode="&#xc9;" horiz-adv-x="944" d="M121 0v1434h741v-260h-467v-330h379v-254h-379v-330h473v-260h-747zM330 1520l176 282h285l-246 -282h-215z" />
<glyph unicode="&#xca;" horiz-adv-x="944" d="M121 0v1434h741v-260h-467v-330h379v-254h-379v-330h473v-260h-747zM221 1520l154 282h241l156 -282h-178l-98 153l-99 -153h-176z" />
<glyph unicode="&#xcb;" horiz-adv-x="944" d="M121 0v1434h741v-260h-467v-330h379v-254h-379v-330h473v-260h-747zM260 1540v236h195v-236h-195zM535 1540v236h194v-236h-194z" />
<glyph unicode="&#xcc;" horiz-adv-x="516" d="M-37 1802h283l178 -282h-213zM121 0v1434h274v-1434h-274z" />
<glyph unicode="&#xcd;" horiz-adv-x="516" d="M92 1520l176 282h285l-246 -282h-215zM121 0v1434h274v-1434h-274z" />
<glyph unicode="&#xce;" horiz-adv-x="518" d="M-16 1520l153 282h242l156 -282h-179l-98 153l-98 -153h-176zM121 0v1434h274v-1434h-274z" />
<glyph unicode="&#xcf;" horiz-adv-x="516" d="M23 1538v236h194v-236h-194zM121 0v1434h274v-1434h-274zM297 1538v236h195v-236h-195z" />
<glyph unicode="&#xd0;" horiz-adv-x="1114" d="M35 600v236h102v598h324q290 0 433.5 -170.5t143.5 -546.5t-143.5 -546.5t-433.5 -170.5h-324v600h-102zM412 260h61q146 0 219.5 104t73.5 353t-73.5 353t-219.5 104h-61v-338h184v-236h-184v-340z" />
<glyph unicode="&#xd1;" horiz-adv-x="1134" d="M121 0v1434h276l342 -908v908h275v-1434h-279l-340 905v-905h-274zM289 1608q16 44 25 65.5t26.5 55t33 50t39 29.5t50.5 13q34 0 76.5 -24t78 -48.5t54.5 -24.5q17 0 33.5 18.5t37.5 76.5l113 -66q-18 -46 -25.5 -64.5t-25.5 -54.5t-33 -51.5t-38 -29t-50 -13.5 q-35 0 -78 24.5t-78.5 49t-54.5 24.5q-35 0 -72 -94z" />
<glyph unicode="&#xd2;" horiz-adv-x="1146" d="M72 717q0 739 501 739q502 0 502 -739q0 -129 -15.5 -236.5t-52 -202.5t-93 -160.5t-143 -103t-198.5 -37.5q-501 0 -501 740zM281 1802h282l178 -282h-213zM354 717q0 -110 10 -191.5t33.5 -148.5t67.5 -102t108 -35t108.5 35t68 102t33.5 148.5t10 191.5q0 86 -6 154.5 t-21 130.5t-39.5 103t-63 65t-90.5 24q-64 0 -108 -35t-67.5 -102.5t-33.5 -149t-10 -190.5z" />
<glyph unicode="&#xd3;" horiz-adv-x="1146" d="M72 717q0 739 501 739q502 0 502 -739q0 -129 -15.5 -236.5t-52 -202.5t-93 -160.5t-143 -103t-198.5 -37.5q-501 0 -501 740zM354 717q0 -110 10 -191.5t33.5 -148.5t67.5 -102t108 -35t108.5 35t68 102t33.5 148.5t10 191.5q0 86 -6 154.5t-21 130.5t-39.5 103t-63 65 t-90.5 24q-64 0 -108 -35t-67.5 -102.5t-33.5 -149t-10 -190.5zM408 1520l176 282h284l-245 -282h-215z" />
<glyph unicode="&#xd4;" horiz-adv-x="1146" d="M72 717q0 739 501 739q502 0 502 -739q0 -129 -15.5 -236.5t-52 -202.5t-93 -160.5t-143 -103t-198.5 -37.5q-501 0 -501 740zM299 1520l154 282h241l156 -282h-178l-99 153l-98 -153h-176zM354 717q0 -110 10 -191.5t33.5 -148.5t67.5 -102t108 -35t108.5 35t68 102 t33.5 148.5t10 191.5q0 86 -6 154.5t-21 130.5t-39.5 103t-63 65t-90.5 24q-64 0 -108 -35t-67.5 -102.5t-33.5 -149t-10 -190.5z" />
<glyph unicode="&#xd5;" horiz-adv-x="1146" d="M72 717q0 739 501 739q502 0 502 -739q0 -129 -15.5 -236.5t-52 -202.5t-93 -160.5t-143 -103t-198.5 -37.5q-501 0 -501 740zM287 1595q16 44 25 65.5t26.5 55t33 50t39 29.5t50.5 13q34 0 76.5 -24t78 -48t54.5 -24q11 0 20 5t23 27t28 62l113 -65q-18 -46 -25.5 -64.5 t-25.5 -54.5t-33 -51.5t-38 -29t-50 -13.5q-35 0 -78 24.5t-78.5 49t-54.5 24.5q-35 0 -72 -94zM354 717q0 -110 10 -191.5t33.5 -148.5t67.5 -102t108 -35t108.5 35t68 102t33.5 148.5t10 191.5q0 86 -6 154.5t-21 130.5t-39.5 103t-63 65t-90.5 24q-64 0 -108 -35 t-67.5 -102.5t-33.5 -149t-10 -190.5z" />
<glyph unicode="&#xd6;" horiz-adv-x="1146" d="M72 717q0 739 501 739q502 0 502 -739q0 -129 -15.5 -236.5t-52 -202.5t-93 -160.5t-143 -103t-198.5 -37.5q-501 0 -501 740zM338 1540v236h194v-236h-194zM354 717q0 -110 10 -191.5t33.5 -148.5t67.5 -102t108 -35t108.5 35t68 102t33.5 148.5t10 191.5q0 86 -6 154.5 t-21 130.5t-39.5 103t-63 65t-90.5 24q-64 0 -108 -35t-67.5 -102.5t-33.5 -149t-10 -190.5zM612 1540v236h195v-236h-195z" />
<glyph unicode="&#xd7;" horiz-adv-x="962" d="M147 432l195 256l-195 258l175 133l157 -209l160 209l174 -135l-195 -258l195 -256l-174 -133l-160 209l-157 -209z" />
<glyph unicode="&#xd8;" horiz-adv-x="1144" d="M72 717q0 739 501 739q158 0 269 -78l30 56h187l-98 -181q114 -188 114 -536q0 -129 -15.5 -236.5t-52 -202.5t-93 -160.5t-143 -103t-198.5 -37.5q-161 0 -270 76l-29 -53h-184l96 178q-114 181 -114 539zM354 717q0 -132 13 -211l340 624q-52 64 -134 64 q-64 0 -108 -35t-67.5 -102.5t-33.5 -149t-10 -190.5zM438 299q50 -59 135 -59q64 0 108.5 35t68 102t33.5 148.5t10 191.5q0 107 -13 209z" />
<glyph unicode="&#xd9;" horiz-adv-x="1099" d="M113 483v951h272v-975q0 -49 7 -86t24 -68.5t50.5 -48t82.5 -16.5t82.5 16.5t50.5 48t24 68.5t7 86v975h274v-951q0 -90 -10.5 -161t-39.5 -138t-77 -110.5t-126.5 -70t-184.5 -26.5q-105 0 -183.5 26.5t-126 70t-76.5 110.5t-39.5 138t-10.5 161zM256 1802h283l178 -282 h-213z" />
<glyph unicode="&#xda;" horiz-adv-x="1099" d="M113 483v951h272v-975q0 -49 7 -86t24 -68.5t50.5 -48t82.5 -16.5t82.5 16.5t50.5 48t24 68.5t7 86v975h274v-951q0 -90 -10.5 -161t-39.5 -138t-77 -110.5t-126.5 -70t-184.5 -26.5q-105 0 -183.5 26.5t-126 70t-76.5 110.5t-39.5 138t-10.5 161zM383 1520l176 282h285 l-246 -282h-215z" />
<glyph unicode="&#xdb;" horiz-adv-x="1099" d="M113 483v951h272v-975q0 -49 7 -86t24 -68.5t50.5 -48t82.5 -16.5t82.5 16.5t50.5 48t24 68.5t7 86v975h274v-951q0 -90 -10.5 -161t-39.5 -138t-77 -110.5t-126.5 -70t-184.5 -26.5q-105 0 -183.5 26.5t-126 70t-76.5 110.5t-39.5 138t-10.5 161zM274 1520l154 282h242 l155 -282h-178l-98 153l-98 -153h-177z" />
<glyph unicode="&#xdc;" horiz-adv-x="1099" d="M113 483v951h272v-975q0 -49 7 -86t24 -68.5t50.5 -48t82.5 -16.5t82.5 16.5t50.5 48t24 68.5t7 86v975h274v-951q0 -90 -10.5 -161t-39.5 -138t-77 -110.5t-126.5 -70t-184.5 -26.5q-105 0 -183.5 26.5t-126 70t-76.5 110.5t-39.5 138t-10.5 161zM315 1540v236h195v-236 h-195zM590 1540v236h194v-236h-194z" />
<glyph unicode="&#xdd;" horiz-adv-x="1007" d="M16 1434h301l187 -562l184 562h303l-350 -865v-569h-274v569zM338 1520l176 282h285l-246 -282h-215z" />
<glyph unicode="&#xde;" horiz-adv-x="1034" d="M121 0v1434h274v-230h90q255 0 373.5 -116.5t118.5 -346.5q0 -231 -118.5 -346.5t-373.5 -115.5h-90v-279h-274zM395 530h97q99 0 153.5 47.5t54.5 163.5q0 115 -54 161t-154 46h-97v-418z" />
<glyph unicode="&#xdf;" horiz-adv-x="1112" d="M98 0v993q0 120 22 209t71 157t135 103t209 35q115 0 202 -31t136.5 -84.5t73.5 -118.5t24 -141q0 -58 -14 -108.5t-28 -71.5l-14 -22q-139 -47 -139 -138q0 -35 22 -61t74 -66t86 -77q123 -130 123 -285q0 -138 -82.5 -227t-220.5 -89q-152 0 -346 105l111 199 q122 -76 190 -76q37 0 60.5 21.5t23.5 60.5q0 63 -74 129q-13 12 -42.5 35.5t-49.5 40t-46 45.5t-42 57.5t-27.5 70.5t-11.5 89q0 196 187 301q6 21 6 51q0 79 -42 126.5t-130 47.5q-95 0 -139 -68.5t-44 -236.5v-975h-264z" />
<glyph unicode="&#xe0;" horiz-adv-x="919" d="M53 326q0 168 78 259t207 91q25 0 51 -3.5t54 -10.5t43.5 -11.5t44.5 -14.5t32 -11v98q0 81 -26 116t-88 35q-48 0 -100 -17t-161 -62l-86 202q232 101 406 101q162 0 239.5 -85.5t77.5 -277.5v-735h-262v127q-115 -150 -252 -150q-118 0 -188 94t-70 255zM170 1493h283 l178 -283h-213zM319 352q0 -73 26.5 -109t70.5 -36q43 0 81 33t66 82v157q-85 35 -129 35q-57 0 -86 -43.5t-29 -118.5z" />
<glyph unicode="&#xe1;" horiz-adv-x="919" d="M53 326q0 168 78 259t207 91q25 0 51 -3.5t54 -10.5t43.5 -11.5t44.5 -14.5t32 -11v98q0 81 -26 116t-88 35q-48 0 -100 -17t-161 -62l-86 202q232 101 406 101q162 0 239.5 -85.5t77.5 -277.5v-735h-262v127q-115 -150 -252 -150q-118 0 -188 94t-70 255zM299 1210 l176 283h285l-246 -283h-215zM319 352q0 -73 26.5 -109t70.5 -36q43 0 81 33t66 82v157q-85 35 -129 35q-57 0 -86 -43.5t-29 -118.5z" />
<glyph unicode="&#xe2;" horiz-adv-x="919" d="M53 326q0 168 78 259t207 91q25 0 51 -3.5t54 -10.5t43.5 -11.5t44.5 -14.5t32 -11v98q0 81 -26 116t-88 35q-48 0 -100 -17t-161 -62l-86 202q232 101 406 101q162 0 239.5 -85.5t77.5 -277.5v-735h-262v127q-115 -150 -252 -150q-118 0 -188 94t-70 255zM188 1210 l154 283h242l155 -283h-178l-98 154l-98 -154h-177zM319 352q0 -73 26.5 -109t70.5 -36q43 0 81 33t66 82v157q-85 35 -129 35q-57 0 -86 -43.5t-29 -118.5z" />
<glyph unicode="&#xe3;" horiz-adv-x="919" d="M53 326q0 168 78 259t207 91q25 0 51 -3.5t54 -10.5t43.5 -11.5t44.5 -14.5t32 -11v98q0 81 -26 116t-88 35q-48 0 -100 -17t-161 -62l-86 202q232 101 406 101q162 0 239.5 -85.5t77.5 -277.5v-735h-262v127q-115 -150 -252 -150q-118 0 -188 94t-70 255zM180 1286 q16 44 25 65.5t26.5 55t33 50t39 29.5t50.5 13q34 0 76.5 -24t78 -48t54.5 -24q11 0 20 5t23.5 27t28.5 62l113 -65q-17 -44 -25.5 -64.5t-26.5 -55t-33 -50.5t-38 -29.5t-50 -13.5q-35 0 -77.5 24.5t-78 49t-54.5 24.5q-35 0 -72 -94zM319 352q0 -73 26.5 -109t70.5 -36 q43 0 81 33t66 82v157q-85 35 -129 35q-57 0 -86 -43.5t-29 -118.5z" />
<glyph unicode="&#xe4;" horiz-adv-x="919" d="M53 326q0 168 78 259t207 91q25 0 51 -3.5t54 -10.5t43.5 -11.5t44.5 -14.5t32 -11v98q0 81 -26 116t-88 35q-48 0 -100 -17t-161 -62l-86 202q232 101 406 101q162 0 239.5 -85.5t77.5 -277.5v-735h-262v127q-115 -150 -252 -150q-118 0 -188 94t-70 255zM229 1231v235 h195v-235h-195zM319 352q0 -73 26.5 -109t70.5 -36q43 0 81 33t66 82v157q-85 35 -129 35q-57 0 -86 -43.5t-29 -118.5zM504 1231v235h194v-235h-194z" />
<glyph unicode="&#xe5;" horiz-adv-x="919" d="M53 326q0 168 78 259t207 91q25 0 51 -3.5t54 -10.5t43.5 -11.5t44.5 -14.5t32 -11v98q0 81 -26 116t-88 35q-48 0 -100 -17t-161 -62l-86 202q232 101 406 101q162 0 239.5 -85.5t77.5 -277.5v-735h-262v127q-115 -150 -252 -150q-118 0 -188 94t-70 255zM264 1393 q0 84 58.5 143t142.5 59q85 0 144 -59.5t59 -142.5q0 -85 -59 -144t-144 -59t-143 59t-58 144zM319 352q0 -73 26.5 -109t70.5 -36q43 0 81 33t66 82v157q-85 35 -129 35q-57 0 -86 -43.5t-29 -118.5zM389 1393q0 -32 22 -54t54 -22t54 22t22 54q0 31 -22 53t-54 22t-54 -22 t-22 -53z" />
<glyph unicode="&#xe6;" horiz-adv-x="1366" d="M53 328q0 167 76 257.5t205 90.5q23 0 47 -3.5t50 -10.5t41 -11.5t42 -14.5t31 -11q7 75 14 114q-3 71 -29.5 103t-83.5 32q-47 0 -100 -17.5t-158 -61.5l-86 202q232 101 406 101q138 0 213 -66q87 66 209 66q178 0 273 -130.5t95 -342.5q0 -39 -3 -77t-6 -56l-3 -19 h-475q6 -135 38.5 -205.5t98.5 -70.5q11 0 22 1.5t24.5 6.5t23.5 8t27 12.5t26 14t30 17.5t29 18t33 21t33 21l107 -174q-226 -166 -390 -166q-99 0 -178 52.5t-129 156.5q-135 -209 -293 -209q-119 0 -189.5 94t-70.5 257zM319 352q0 -73 26.5 -109t68.5 -36q82 0 149 117 q-14 64 -20 151q-7 3 -25.5 11.5t-30 13.5t-28 9.5t-29.5 4.5q-54 0 -82.5 -44t-28.5 -118zM813 633h244q0 130 -27.5 192t-89.5 62t-91.5 -63.5t-35.5 -190.5z" />
<glyph unicode="&#xe7;" horiz-adv-x="786" d="M61 539q0 141 28 250t77 175.5t111 100t133 33.5q46 0 94 -12t101 -38.5t75 -39t70 -41.5l-111 -213q-12 8 -46 31.5t-49 32t-39.5 18.5t-43.5 10q-64 0 -97.5 -83t-33.5 -224t33 -225.5t96 -84.5q21 0 48.5 10.5t43.5 20.5t48.5 32t39.5 27l111 -210 q-166 -108 -285 -127q41 -91 41 -168q0 -93 -48.5 -141t-121.5 -48q-77 0 -133 45l49 146q36 -25 63 -25t44.5 19t17.5 59q0 55 -29 115q-128 28 -207.5 168.5t-79.5 386.5z" />
<glyph unicode="&#xe8;" horiz-adv-x="880" d="M61 537q0 267 101 414t287 147q178 0 273 -130.5t95 -342.5q0 -39 -3 -77t-6 -56l-3 -19h-475q6 -135 38.5 -205.5t98.5 -70.5q11 0 22 1.5t24.5 6.5t23.5 8t27 12.5t26 14t30 17.5t29 18t33 21t33 21l106 -174q-226 -166 -389 -166q-164 0 -267.5 142.5t-103.5 417.5z M162 1493h282l179 -283h-213zM332 633h243q0 130 -27 192t-89 62t-91.5 -63.5t-35.5 -190.5z" />
<glyph unicode="&#xe9;" horiz-adv-x="880" d="M61 537q0 267 101 414t287 147q178 0 273 -130.5t95 -342.5q0 -39 -3 -77t-6 -56l-3 -19h-475q6 -135 38.5 -205.5t98.5 -70.5q11 0 22 1.5t24.5 6.5t23.5 8t27 12.5t26 14t30 17.5t29 18t33 21t33 21l106 -174q-226 -166 -389 -166q-164 0 -267.5 142.5t-103.5 417.5z M289 1210l176 283h285l-246 -283h-215zM332 633h243q0 130 -27 192t-89 62t-91.5 -63.5t-35.5 -190.5z" />
<glyph unicode="&#xea;" horiz-adv-x="880" d="M61 537q0 267 101 414t287 147q178 0 273 -130.5t95 -342.5q0 -39 -3 -77t-6 -56l-3 -19h-475q6 -135 38.5 -205.5t98.5 -70.5q11 0 22 1.5t24.5 6.5t23.5 8t27 12.5t26 14t30 17.5t29 18t33 21t33 21l106 -174q-226 -166 -389 -166q-164 0 -267.5 142.5t-103.5 417.5z M180 1210l154 283h241l156 -283h-178l-98 154l-99 -154h-176zM332 633h243q0 130 -27 192t-89 62t-91.5 -63.5t-35.5 -190.5z" />
<glyph unicode="&#xeb;" horiz-adv-x="880" d="M61 537q0 267 101 414t287 147q178 0 273 -130.5t95 -342.5q0 -39 -3 -77t-6 -56l-3 -19h-475q6 -135 38.5 -205.5t98.5 -70.5q11 0 22 1.5t24.5 6.5t23.5 8t27 12.5t26 14t30 17.5t29 18t33 21t33 21l106 -174q-226 -166 -389 -166q-164 0 -267.5 142.5t-103.5 417.5z M221 1231v235h195v-235h-195zM332 633h243q0 130 -27 192t-89 62t-91.5 -63.5t-35.5 -190.5zM496 1231v235h194v-235h-194z" />
<glyph unicode="&#xec;" horiz-adv-x="460" d="M-63 1493h282l178 -283h-213zM98 0v1075h264v-1075h-264z" />
<glyph unicode="&#xed;" horiz-adv-x="460" d="M63 1210l177 283h284l-245 -283h-216zM98 0v1075h264v-1075h-264z" />
<glyph unicode="&#xee;" horiz-adv-x="460" d="M-45 1210l154 283h241l156 -283h-178l-99 154l-98 -154h-176zM98 0v1075h264v-1075h-264z" />
<glyph unicode="&#xef;" horiz-adv-x="460" d="M-4 1231v235h194v-235h-194zM98 0v1075h264v-1075h-264zM270 1231v235h195v-235h-195z" />
<glyph unicode="&#xf0;" horiz-adv-x="956" d="M59 477q0 222 96.5 360t241.5 138q54 0 98 -15.5t69 -38.5t36 -37t16 -24q-21 88 -66 165t-108 122l-51 -80h-205l84 133q-29 -1 -56.5 -5t-40.5 -7l-13 -4l-29 227q58 23 156 23q50 0 123 -15l47 74h205l-89 -139q156 -98 238 -299t82 -461q0 -306 -112 -461.5 t-318 -155.5q-188 0 -296 135t-108 365zM334 475q0 -270 147 -270q148 0 148 270q0 273 -148 273q-147 0 -147 -273z" />
<glyph unicode="&#xf1;" d="M98 0v1075h264v-129q35 34 60 55.5t62.5 46.5t78.5 37.5t86 12.5q104 0 159.5 -80.5t55.5 -222.5v-795h-264v741q0 127 -72 127q-81 0 -166 -139v-729h-264zM197 1286q16 44 25 65.5t26.5 55t33 50t39 29.5t50.5 13q34 0 76.5 -24t78 -48t54.5 -24q11 0 20 5t23 27t28 62 l113 -65q-18 -46 -25.5 -64.5t-25.5 -54.5t-33 -51.5t-38 -29t-50 -13.5q-35 0 -78 24.5t-78.5 49t-54.5 24.5q-35 0 -72 -94z" />
<glyph unicode="&#xf2;" horiz-adv-x="931" d="M61 539q0 269 102 414t304 145t303.5 -146t101.5 -415t-101.5 -414.5t-303.5 -145.5q-201 0 -303.5 146t-102.5 416zM174 1493h283l178 -283h-213zM328 539q0 -165 31.5 -249.5t107.5 -84.5q75 0 106 84t31 248t-31 248.5t-106 84.5q-76 0 -107.5 -83.5t-31.5 -247.5z " />
<glyph unicode="&#xf3;" horiz-adv-x="931" d="M61 539q0 269 102 414t304 145t303.5 -146t101.5 -415t-101.5 -414.5t-303.5 -145.5q-201 0 -303.5 146t-102.5 416zM301 1210l176 283h285l-246 -283h-215zM328 539q0 -165 31.5 -249.5t107.5 -84.5q75 0 106 84t31 248t-31 248.5t-106 84.5q-76 0 -107.5 -83.5 t-31.5 -247.5z" />
<glyph unicode="&#xf4;" horiz-adv-x="931" d="M61 539q0 269 102 414t304 145t303.5 -146t101.5 -415t-101.5 -414.5t-303.5 -145.5q-201 0 -303.5 146t-102.5 416zM193 1210l153 283h242l155 -283h-178l-98 154l-98 -154h-176zM328 539q0 -165 31.5 -249.5t107.5 -84.5q75 0 106 84t31 248t-31 248.5t-106 84.5 q-76 0 -107.5 -83.5t-31.5 -247.5z" />
<glyph unicode="&#xf5;" horiz-adv-x="931" d="M61 539q0 269 102 414t304 145t303.5 -146t101.5 -415t-101.5 -414.5t-303.5 -145.5q-201 0 -303.5 146t-102.5 416zM182 1286q16 44 25 65.5t26.5 55t33 50t39 29.5t50.5 13q34 0 76.5 -24t78 -48t54.5 -24q11 0 20 5t23.5 27t28.5 62l113 -65q-18 -46 -25.5 -64.5 t-25.5 -54.5t-33 -51.5t-38 -29t-50 -13.5q-35 0 -78 24.5t-78.5 49t-54.5 24.5q-35 0 -72 -94zM328 539q0 -165 31.5 -249.5t107.5 -84.5q75 0 106 84t31 248t-31 248.5t-106 84.5q-76 0 -107.5 -83.5t-31.5 -247.5z" />
<glyph unicode="&#xf6;" horiz-adv-x="931" d="M61 539q0 269 102 414t304 145t303.5 -146t101.5 -415t-101.5 -414.5t-303.5 -145.5q-201 0 -303.5 146t-102.5 416zM231 1231v235h195v-235h-195zM328 539q0 -165 31.5 -249.5t107.5 -84.5q75 0 106 84t31 248t-31 248.5t-106 84.5q-76 0 -107.5 -83.5t-31.5 -247.5z M506 1231v235h194v-235h-194z" />
<glyph unicode="&#xf7;" horiz-adv-x="962" d="M113 571v224h735v-224h-735zM360 338q0 50 35 84.5t84 34.5q51 0 86 -34.5t35 -84.5q0 -51 -35 -85t-86 -34q-50 0 -84.5 34t-34.5 85zM360 1028q0 51 34.5 86t84.5 35q51 0 86 -35t35 -86q0 -50 -35 -84.5t-86 -34.5q-49 0 -84 34.5t-35 84.5z" />
<glyph unicode="&#xf8;" horiz-adv-x="929" d="M61 539q0 269 102 414t304 145q124 0 215 -60l20 37h146l-74 -127q98 -143 98 -411q0 -269 -101.5 -414.5t-303.5 -145.5q-127 0 -221 62l-23 -39h-149l80 137q-93 143 -93 402zM328 539q0 -70 2 -101l223 383q-32 49 -86 49q-76 0 -107.5 -83.5t-31.5 -247.5zM373 258 q35 -53 94 -53q75 0 106 84t31 248q0 42 -4 112z" />
<glyph unicode="&#xf9;" d="M94 281v794h264v-741q0 -127 72 -127q79 0 166 135v733h264v-1075h-264v129q-35 -34 -61 -56t-63.5 -46.5t-78 -37t-84.5 -12.5q-104 0 -159.5 81t-55.5 223zM182 1493h283l178 -283h-213z" />
<glyph unicode="&#xfa;" d="M94 281v794h264v-741q0 -127 72 -127q79 0 166 135v733h264v-1075h-264v129q-35 -34 -61 -56t-63.5 -46.5t-78 -37t-84.5 -12.5q-104 0 -159.5 81t-55.5 223zM309 1210l176 283h285l-246 -283h-215z" />
<glyph unicode="&#xfb;" d="M94 281v794h264v-741q0 -127 72 -127q79 0 166 135v733h264v-1075h-264v129q-35 -34 -61 -56t-63.5 -46.5t-78 -37t-84.5 -12.5q-104 0 -159.5 81t-55.5 223zM203 1210l153 283h242l156 -283h-179l-98 154l-98 -154h-176z" />
<glyph unicode="&#xfc;" d="M94 281v794h264v-741q0 -127 72 -127q79 0 166 135v733h264v-1075h-264v129q-35 -34 -61 -56t-63.5 -46.5t-78 -37t-84.5 -12.5q-104 0 -159.5 81t-55.5 223zM242 1231v235h194v-235h-194zM516 1231v235h195v-235h-195z" />
<glyph unicode="&#xfd;" horiz-adv-x="892" d="M27 1075h276l143 -743l144 743h276l-399 -1493h-283l138 379zM281 1210l176 283h284l-245 -283h-215z" />
<glyph unicode="&#xfe;" horiz-adv-x="954" d="M98 -418v1911h264v-539q57 69 111.5 106.5t126.5 37.5q136 0 213.5 -141.5t77.5 -417.5q0 -277 -77.5 -419.5t-213.5 -142.5q-72 0 -125.5 36.5t-112.5 103.5v-535h-264zM362 350q30 -66 68.5 -100.5t77.5 -34.5q117 0 117 324q0 321 -117 321q-39 0 -77.5 -36 t-68.5 -101v-373z" />
<glyph unicode="&#xff;" horiz-adv-x="892" d="M27 1075h276l143 -743l144 743h276l-399 -1493h-283l138 379zM213 1231v235h195v-235h-195zM487 1231v235h195v-235h-195z" />
<glyph unicode="&#x100;" horiz-adv-x="1075" d="M25 0l362 1434h303l361 -1434h-295l-56 285h-325l-53 -285h-297zM315 1571v174h447v-174h-447zM422 526h231l-116 611z" />
<glyph unicode="&#x101;" horiz-adv-x="919" d="M53 326q0 168 78 259t207 91q25 0 51 -3.5t54 -10.5t43.5 -11.5t44.5 -14.5t32 -11v98q0 81 -26 116t-88 35q-48 0 -100 -17t-161 -62l-86 202q232 101 406 101q162 0 239.5 -85.5t77.5 -277.5v-735h-262v127q-115 -150 -252 -150q-118 0 -188 94t-70 255zM242 1262v174 h446v-174h-446zM319 352q0 -73 26.5 -109t70.5 -36q43 0 81 33t66 82v157q-85 35 -129 35q-57 0 -86 -43.5t-29 -118.5z" />
<glyph unicode="&#x102;" horiz-adv-x="1075" d="M25 0l362 1434h303l361 -1434h-295l-56 285h-325l-53 -285h-297zM287 1772h155q0 -42 26 -66.5t69 -24.5q45 0 71.5 24.5t26.5 66.5h156q0 -118 -67.5 -185t-186.5 -67q-118 0 -184 67t-66 185zM422 526h231l-116 611z" />
<glyph unicode="&#x103;" horiz-adv-x="919" d="M53 326q0 168 78 259t207 91q25 0 51 -3.5t54 -10.5t43.5 -11.5t44.5 -14.5t32 -11v98q0 81 -26 116t-88 35q-48 0 -100 -17t-161 -62l-86 202q232 101 406 101q162 0 239.5 -85.5t77.5 -277.5v-735h-262v127q-115 -150 -252 -150q-118 0 -188 94t-70 255zM215 1462h156 q0 -42 25.5 -66t68.5 -24q45 0 71.5 24t26.5 66h156q0 -118 -67.5 -185t-186.5 -67q-118 0 -184 67t-66 185zM319 352q0 -73 26.5 -109t70.5 -36q43 0 81 33t66 82v157q-85 35 -129 35q-57 0 -86 -43.5t-29 -118.5z" />
<glyph unicode="&#x104;" horiz-adv-x="1075" d="M25 0l362 1434h303l361 -1434h-4q-35 -30 -58 -53.5t-46 -63t-23 -76.5q0 -17 4 -29.5t12 -20t16 -12t20 -6t18.5 -2t18 0t13.5 0.5l-23 -135h-8q-233 -4 -233 176q0 127 135 221h-137l-56 285h-325l-53 -285h-297zM422 526h231l-116 611z" />
<glyph unicode="&#x105;" horiz-adv-x="919" d="M53 326q0 168 78 259t207 91q25 0 51 -3.5t54 -10.5t43.5 -11.5t44.5 -14.5t32 -11v98q0 81 -26 116t-88 35q-48 0 -100 -17t-161 -62l-86 202q232 101 406 101q162 0 239.5 -85.5t77.5 -277.5v-735h-4q-35 -30 -58 -53.5t-46 -63t-23 -76.5q0 -17 4 -29.5t12.5 -20 t16 -12t20 -6t19 -2t18 0t13.5 0.5l-23 -135h-8q-234 -4 -234 176q0 126 136 221h-105v127q-115 -150 -252 -150q-118 0 -188 94t-70 255zM319 352q0 -73 26.5 -109t70.5 -36q43 0 81 33t66 82v157q-85 35 -129 35q-57 0 -86 -43.5t-29 -118.5z" />
<glyph unicode="&#x106;" horiz-adv-x="980" d="M76 717q0 368 113 553.5t309 185.5q59 0 116 -13.5t116.5 -42.5t102 -54.5t109.5 -69.5l-123 -223q-19 11 -59 35.5t-61.5 37t-52.5 28t-56 22t-49 6.5q-91 0 -138 -123t-47 -342t47 -342t138 -123q24 0 49 6.5t56 22t52.5 28t61.5 37t59 35.5l123 -223 q-68 -44 -109.5 -69t-101.5 -55t-117 -43.5t-116 -13.5q-196 0 -309 186t-113 554zM401 1520l177 282h284l-246 -282h-215z" />
<glyph unicode="&#x107;" horiz-adv-x="786" d="M61 539q0 141 28 250t77 175.5t111 100t133 33.5q46 0 94 -12t101 -38.5t75 -39t70 -41.5l-111 -213q-12 8 -46 31.5t-49 32t-39.5 18.5t-43.5 10q-64 0 -97.5 -83t-33.5 -224t33 -225.5t96 -84.5q21 0 48.5 10.5t43.5 20.5t48.5 32t39.5 27l111 -210 q-55 -35 -94.5 -57.5t-112.5 -48.5t-133 -26q-71 0 -133 34.5t-111 101.5t-77 176.5t-28 249.5zM262 1210l176 283h285l-246 -283h-215z" />
<glyph unicode="&#x10a;" horiz-adv-x="980" d="M76 717q0 368 113 553.5t309 185.5q59 0 116 -13.5t116.5 -42.5t102 -54.5t109.5 -69.5l-123 -223q-19 11 -59 35.5t-61.5 37t-52.5 28t-56 22t-49 6.5q-91 0 -138 -123t-47 -342t47 -342t138 -123q24 0 49 6.5t56 22t52.5 28t61.5 37t59 35.5l123 -223 q-68 -44 -109.5 -69t-101.5 -55t-117 -43.5t-116 -13.5q-196 0 -309 186t-113 554zM424 1540v236h197v-236h-197z" />
<glyph unicode="&#x10b;" horiz-adv-x="786" d="M61 539q0 141 28 250t77 175.5t111 100t133 33.5q46 0 94 -12t101 -38.5t75 -39t70 -41.5l-111 -213q-12 8 -46 31.5t-49 32t-39.5 18.5t-43.5 10q-64 0 -97.5 -83t-33.5 -224t33 -225.5t96 -84.5q21 0 48.5 10.5t43.5 20.5t48.5 32t39.5 27l111 -210 q-55 -35 -94.5 -57.5t-112.5 -48.5t-133 -26q-71 0 -133 34.5t-111 101.5t-77 176.5t-28 249.5zM326 1231v235h196v-235h-196z" />
<glyph unicode="&#x10c;" horiz-adv-x="980" d="M76 717q0 368 113 553.5t309 185.5q59 0 116 -13.5t116.5 -42.5t102 -54.5t109.5 -69.5l-123 -223q-19 11 -59 35.5t-61.5 37t-52.5 28t-56 22t-49 6.5q-91 0 -138 -123t-47 -342t47 -342t138 -123q24 0 49 6.5t56 22t52.5 28t61.5 37t59 35.5l123 -223 q-68 -44 -109.5 -69t-101.5 -55t-117 -43.5t-116 -13.5q-196 0 -309 186t-113 554zM252 1802h176l98 -151l99 151h178l-156 -282h-241z" />
<glyph unicode="&#x10d;" horiz-adv-x="786" d="M61 539q0 141 28 250t77 175.5t111 100t133 33.5q46 0 94 -12t101 -38.5t75 -39t70 -41.5l-111 -213q-12 8 -46 31.5t-49 32t-39.5 18.5t-43.5 10q-64 0 -97.5 -83t-33.5 -224t33 -225.5t96 -84.5q21 0 48.5 10.5t43.5 20.5t48.5 32t39.5 27l111 -210 q-55 -35 -94.5 -57.5t-112.5 -48.5t-133 -26q-71 0 -133 34.5t-111 101.5t-77 176.5t-28 249.5zM152 1493h176l98 -152l98 152h178l-155 -283h-242z" />
<glyph unicode="&#x10e;" horiz-adv-x="1097" d="M121 0v1434h323q290 0 434 -170.5t144 -546.5t-144 -546.5t-434 -170.5h-323zM297 1802h176l98 -151l99 151h178l-156 -282h-241zM395 260h62q146 0 219.5 104t73.5 353t-73.5 353t-219.5 104h-62v-914z" />
<glyph unicode="&#x10f;" horiz-adv-x="1050" d="M63 539q0 276 77 417.5t214 141.5q72 0 126.5 -37.5t111.5 -106.5v539h264v-1493h-264v117q-59 -67 -112.5 -103.5t-125.5 -36.5q-137 0 -214 142t-77 420zM330 539q0 -324 116 -324q82 0 146 135v373q-67 137 -146 137q-116 0 -116 -321zM920 1077l84 170h-82v246h184 l10 -270l-147 -215z" />
<glyph unicode="&#x110;" horiz-adv-x="1114" d="M35 600v236h102v598h324q290 0 433.5 -170.5t143.5 -546.5t-143.5 -546.5t-433.5 -170.5h-324v600h-102zM412 260h61q146 0 219.5 104t73.5 353t-73.5 353t-219.5 104h-61v-338h184v-236h-184v-340z" />
<glyph unicode="&#x111;" horiz-adv-x="954" d="M63 539q0 276 77 417.5t214 141.5q72 0 126.5 -37.5t111.5 -106.5v234h-238v172h238v133h264v-133h82v-172h-82v-1188h-264v117q-59 -67 -112.5 -103.5t-125.5 -36.5q-137 0 -214 142t-77 420zM330 539q0 -324 116 -324q82 0 146 135v373q-67 137 -146 137 q-116 0 -116 -321z" />
<glyph unicode="&#x112;" horiz-adv-x="944" d="M121 0v1434h741v-260h-467v-330h379v-254h-379v-330h473v-260h-747zM272 1571v174h447v-174h-447z" />
<glyph unicode="&#x113;" horiz-adv-x="880" d="M61 537q0 267 101 414t287 147q178 0 273 -130.5t95 -342.5q0 -39 -3 -77t-6 -56l-3 -19h-475q6 -135 38.5 -205.5t98.5 -70.5q11 0 22 1.5t24.5 6.5t23.5 8t27 12.5t26 14t30 17.5t29 18t33 21t33 21l106 -174q-226 -166 -389 -166q-164 0 -267.5 142.5t-103.5 417.5z M231 1262v174h447v-174h-447zM332 633h243q0 130 -27 192t-89 62t-91.5 -63.5t-35.5 -190.5z" />
<glyph unicode="&#x116;" horiz-adv-x="944" d="M121 0v1434h741v-260h-467v-330h379v-254h-379v-330h473v-260h-747zM397 1540v236h197v-236h-197z" />
<glyph unicode="&#x117;" horiz-adv-x="880" d="M61 537q0 267 101 414t287 147q178 0 273 -130.5t95 -342.5q0 -39 -3 -77t-6 -56l-3 -19h-475q6 -135 38.5 -205.5t98.5 -70.5q11 0 22 1.5t24.5 6.5t23.5 8t27 12.5t26 14t30 17.5t29 18t33 21t33 21l106 -174q-226 -166 -389 -166q-164 0 -267.5 142.5t-103.5 417.5z M332 633h243q0 130 -27 192t-89 62t-91.5 -63.5t-35.5 -190.5zM356 1231v235h197v-235h-197z" />
<glyph unicode="&#x118;" horiz-adv-x="944" d="M121 0v1434h741v-260h-467v-330h379v-254h-379v-330h473v-260h-4q-35 -30 -58 -53.5t-46 -63t-23 -76.5q0 -17 4 -29.5t12.5 -20t16 -12t20 -6t19 -2t18 0t13.5 0.5l-23 -135h-8q-234 -4 -234 176q0 126 136 221h-590z" />
<glyph unicode="&#x119;" horiz-adv-x="880" d="M61 537q0 267 101 414t287 147q178 0 273 -130.5t95 -342.5q0 -39 -3 -77t-6 -56l-3 -19h-475q6 -135 38.5 -205.5t98.5 -70.5q11 0 22 1.5t24.5 6.5t23.5 8t27 12.5t26 14t30 17.5t29 18t33 21t33 21l106 -174q-144 -106 -252 -141q-36 -30 -59.5 -53.5t-47.5 -64 t-24 -77.5q0 -17 4 -29.5t12.5 -20t16 -12t20 -6t19 -2t18 0t13.5 0.5l-23 -135h-8q-234 -4 -234 176q0 115 109 203q-145 18 -234.5 159t-89.5 396zM332 633h243q0 130 -27 192t-89 62t-91.5 -63.5t-35.5 -190.5z" />
<glyph unicode="&#x11a;" horiz-adv-x="944" d="M121 0v1434h741v-260h-467v-330h379v-254h-379v-330h473v-260h-747zM221 1794h176l99 -152l98 152h178l-156 -283h-241z" />
<glyph unicode="&#x11b;" horiz-adv-x="880" d="M61 537q0 267 101 414t287 147q178 0 273 -130.5t95 -342.5q0 -39 -3 -77t-6 -56l-3 -19h-475q6 -135 38.5 -205.5t98.5 -70.5q11 0 22 1.5t24.5 6.5t23.5 8t27 12.5t26 14t30 17.5t29 18t33 21t33 21l106 -174q-226 -166 -389 -166q-164 0 -267.5 142.5t-103.5 417.5z M180 1493h176l99 -152l98 152h178l-156 -283h-241zM332 633h243q0 130 -27 192t-89 62t-91.5 -63.5t-35.5 -190.5z" />
<glyph unicode="&#x11e;" horiz-adv-x="1069" d="M76 721q0 364 116 549.5t314 185.5q61 0 123 -15t125.5 -46.5t106.5 -57t108 -67.5l-123 -226q-19 11 -77 46t-83 48.5t-66 28.5t-73 15q-95 0 -143 -126t-48 -362q0 -99 10.5 -180t32.5 -143.5t58.5 -97.5t85.5 -35q92 0 178 155v187h-205v241h463v-821h-258v129 q-124 -152 -254 -152q-63 0 -120 27.5t-107 87t-86 146t-57 210t-21 273.5zM276 1772h156q0 -42 25.5 -66.5t68.5 -24.5q45 0 72 24.5t27 66.5h155q0 -118 -67 -185t-187 -67q-118 0 -184 67t-66 185z" />
<glyph unicode="&#x11f;" horiz-adv-x="954" d="M63 539q0 276 77 417.5t214 141.5q72 0 126.5 -37.5t111.5 -106.5v121h264v-1106q0 -215 -81 -311t-261 -96q-94 0 -207 23.5t-211 62.5l68 221q181 -78 293 -78q72 0 103.5 42t31.5 132v152q-59 -67 -112.5 -103.5t-125.5 -36.5q-137 0 -214 142t-77 420zM227 1462h156 q0 -42 25.5 -66t68.5 -24q45 0 71.5 24t26.5 66h156q0 -118 -67.5 -185t-186.5 -67q-118 0 -184 67t-66 185zM330 539q0 -324 116 -324q82 0 146 135v373q-67 137 -146 137q-116 0 -116 -321z" />
<glyph unicode="&#x120;" horiz-adv-x="1069" d="M76 721q0 364 116 549.5t314 185.5q61 0 123 -15t125.5 -46.5t106.5 -57t108 -67.5l-123 -226q-19 11 -77 46t-83 48.5t-66 28.5t-73 15q-95 0 -143 -126t-48 -362q0 -99 10.5 -180t32.5 -143.5t58.5 -97.5t85.5 -35q92 0 178 155v187h-205v241h463v-821h-258v129 q-124 -152 -254 -152q-63 0 -120 27.5t-107 87t-86 146t-57 210t-21 273.5zM428 1540v236h197v-236h-197z" />
<glyph unicode="&#x121;" horiz-adv-x="954" d="M63 539q0 276 77 417.5t214 141.5q72 0 126.5 -37.5t111.5 -106.5v121h264v-1106q0 -215 -81 -311t-261 -96q-94 0 -207 23.5t-211 62.5l68 221q181 -78 293 -78q72 0 103.5 42t31.5 132v152q-59 -67 -112.5 -103.5t-125.5 -36.5q-137 0 -214 142t-77 420zM330 539 q0 -324 116 -324q82 0 146 135v373q-67 137 -146 137q-116 0 -116 -321zM377 1231v235h196v-235h-196z" />
<glyph unicode="&#x122;" horiz-adv-x="1069" d="M76 721q0 364 116 549.5t314 185.5q61 0 123 -15t125.5 -46.5t106.5 -57t108 -67.5l-123 -226q-19 11 -77 46t-83 48.5t-66 28.5t-73 15q-95 0 -143 -126t-48 -362q0 -99 10.5 -180t32.5 -143.5t58.5 -97.5t85.5 -35q92 0 178 155v187h-205v241h463v-821h-258v129 q-124 -152 -254 -152q-63 0 -120 27.5t-107 87t-86 146t-57 210t-21 273.5zM455 -532l84 170h-82v245h184l10 -270l-147 -215z" />
<glyph unicode="&#x123;" horiz-adv-x="954" d="M63 539q0 276 77 417.5t214 141.5q72 0 126.5 -37.5t111.5 -106.5v121h264v-1106q0 -215 -81 -311t-261 -96q-94 0 -207 23.5t-211 62.5l68 221q181 -78 293 -78q72 0 103.5 42t31.5 132v152q-59 -67 -112.5 -103.5t-125.5 -36.5q-137 0 -214 142t-77 420zM330 539 q0 -324 116 -324q82 0 146 135v373q-67 137 -146 137q-116 0 -116 -321zM379 1501l147 215l49 -69l-83 -170h81v-246h-184z" />
<glyph unicode="&#x126;" horiz-adv-x="1148" d="M33 1055v174h106v205h275v-205h321v205h275v-205h104v-174h-104v-1055h-275v625h-321v-625h-275v1055h-106zM414 879h321v176h-321v-176z" />
<glyph unicode="&#x127;" d="M18 1188v172h80v133h264v-133h238v-172h-238v-244q44 41 64 57.5t60 45t79.5 40t83.5 11.5q104 0 159.5 -80.5t55.5 -222.5v-795h-264v741q0 127 -72 127q-81 0 -166 -139v-729h-264v1188h-80z" />
<glyph unicode="&#x128;" horiz-adv-x="518" d="M-29 1595q16 44 25 65.5t26.5 55t33 50t39 29.5t50.5 13q34 0 76.5 -24t78 -48t54.5 -24q11 0 20 5t23.5 27t28.5 62l113 -65q-18 -46 -25.5 -64.5t-25.5 -54.5t-33 -51.5t-38 -29t-50 -13.5q-35 0 -78 24.5t-78.5 49t-54.5 24.5q-35 0 -72 -94zM121 0v1434h274v-1434 h-274z" />
<glyph unicode="&#x129;" horiz-adv-x="462" d="M-55 1286q16 44 25 65.5t26.5 55t33 50t39 29.5t50.5 13q34 0 76.5 -24t78 -48t54.5 -24q11 0 20 5t23 27t28 62l113 -65q-18 -46 -25.5 -64.5t-25.5 -54.5t-33 -51.5t-38 -29t-50 -13.5q-35 0 -78 24.5t-78.5 49t-54.5 24.5q-35 0 -72 -94zM98 0v1075h264v-1075h-264z " />
<glyph unicode="&#x12a;" horiz-adv-x="518" d="M35 1571v174h446v-174h-446zM121 0v1434h274v-1434h-274z" />
<glyph unicode="&#x12b;" horiz-adv-x="462" d="M6 1262v174h447v-174h-447zM98 0v1075h264v-1075h-264z" />
<glyph unicode="&#x12c;" horiz-adv-x="516" d="M6 1772h156q0 -42 25.5 -66.5t68.5 -24.5q45 0 71.5 24.5t26.5 66.5h156q0 -118 -67 -185t-187 -67q-118 0 -184 67t-66 185zM121 0v1434h274v-1434h-274z" />
<glyph unicode="&#x12d;" horiz-adv-x="462" d="M-20 1462h155q0 -42 25.5 -66t68.5 -24q45 0 72 24t27 66h155q0 -118 -67.5 -185t-186.5 -67q-118 0 -183.5 67t-65.5 185zM98 0v1075h264v-1075h-264z" />
<glyph unicode="&#x12e;" horiz-adv-x="518" d="M102 -221q0 126 136 221h-117v1434h274v-1434h-4q-35 -30 -58 -53.5t-46 -63t-23 -76.5q0 -17 4 -29.5t12.5 -20t16 -12t20 -6t19 -2t18 0t13.5 0.5l-23 -135h-8q-234 -4 -234 176z" />
<glyph unicode="&#x12f;" horiz-adv-x="460" d="M68 -221q0 127 135 221h-107v1075h264v-1075h-4q-35 -30 -58 -53.5t-46 -63t-23 -76.5q0 -17 4 -29.5t12.5 -20t16 -12t20 -6t19 -2t18 0t13.5 0.5l-23 -135h-8q-233 -4 -233 176zM92 1231v256h273v-256h-273z" />
<glyph unicode="&#x130;" horiz-adv-x="516" d="M121 0v1434h274v-1434h-274zM160 1540v236h196v-236h-196z" />
<glyph unicode="&#x131;" horiz-adv-x="462" d="M98 0v1075h264v-1075h-264z" />
<glyph unicode="&#x132;" horiz-adv-x="1032" d="M121 0v1434h274v-1434h-274zM473 -133q32 15 54.5 27t40.5 25.5t29 23t19.5 26t12 26.5t5.5 33t2.5 37.5t0.5 47.5v1321h274v-1305q0 -74 -1 -108t-7 -85.5t-19.5 -75.5t-37 -59t-62 -57.5t-92.5 -49t-129 -54.5z" />
<glyph unicode="&#x133;" horiz-adv-x="917" d="M94 1231v256h273v-256h-273zM98 0v1075h264v-1075h-264zM393 -248q32 16 53.5 27.5t40 25.5t29 22.5t19 25.5t12 27t6 34.5t2.5 40v51.5v1069h264v-1046q0 -67 -0.5 -97t-5 -78.5t-13 -70t-25 -56t-40.5 -53t-61 -44.5t-85.5 -46.5t-113.5 -44.5zM551 1231v256h272v-256 h-272z" />
<glyph unicode="&#x134;" horiz-adv-x="516" d="M-43 -133q32 15 54.5 27t40.5 25.5t29 23t19.5 26t12 26.5t5.5 33t2.5 37.5t0.5 47.5v1321h274v-1305q0 -74 -1 -108t-7 -85.5t-19.5 -75.5t-37 -59t-62 -57.5t-92.5 -49t-129 -54.5zM-18 1520l153 282h242l155 -282h-178l-98 153l-98 -153h-176z" />
<glyph unicode="&#x135;" horiz-adv-x="460" d="M-63 -248q32 16 53.5 27.5t40 25.5t29 22.5t18.5 26t11.5 27t6 34.5t2.5 40v51v1069h264v-1046q0 -66 -0.5 -96.5t-4.5 -80.5t-13 -73t-25 -59t-41 -55.5t-61 -44.5t-85 -43.5t-114 -37.5zM-45 1210l154 283h241l156 -283h-178l-99 154l-98 -154h-176z" />
<glyph unicode="&#x136;" horiz-adv-x="1075" d="M121 0v1434h274v-592l324 592h332l-408 -654l418 -780h-326l-256 516l-84 -133v-383h-274zM440 -532l84 170h-82v245h185l10 -270l-148 -215z" />
<glyph unicode="&#x137;" horiz-adv-x="899" d="M98 0v1493h264v-819l191 401h299l-262 -428l303 -647h-277l-176 403l-78 -129v-274h-264zM362 -532l84 170h-81v245h184l10 -270l-147 -215z" />
<glyph unicode="&#x138;" horiz-adv-x="899" d="M98 0v1075h264v-401l191 401h299l-262 -428l303 -647h-277l-176 403l-78 -129v-274h-264z" />
<glyph unicode="&#x139;" horiz-adv-x="880" d="M92 1520l176 282h285l-246 -282h-215zM121 0v1434h274v-1174h451v-260h-725z" />
<glyph unicode="&#x13a;" horiz-adv-x="468" d="M68 1583l176 283h284l-245 -283h-215zM102 0v1493h265v-1493h-265z" />
<glyph unicode="&#x13b;" horiz-adv-x="880" d="M121 0v1434h274v-1174h451v-260h-725zM381 -532l84 170h-82v245h184l11 -270l-148 -215z" />
<glyph unicode="&#x13c;" horiz-adv-x="471" d="M102 0v1493h265v-1493h-265zM143 -532l84 170h-82v245h185l10 -270l-147 -215z" />
<glyph unicode="&#x13d;" horiz-adv-x="880" d="M121 0v1434h274v-1174h451v-260h-725zM459 1018l84 170h-82v246h184l10 -271l-147 -215z" />
<glyph unicode="&#x13e;" horiz-adv-x="563" d="M102 0v1493h265v-1493h-265zM432 1077l84 170h-82v246h184l11 -270l-148 -215z" />
<glyph unicode="&#x13f;" horiz-adv-x="882" d="M121 0v1434h274v-1174h451v-260h-725zM582 635v235h196v-235h-196z" />
<glyph unicode="&#x140;" horiz-adv-x="618" d="M102 0v1493h265v-1493h-265zM432 635v235h197v-235h-197z" />
<glyph unicode="&#x141;" horiz-adv-x="894" d="M41 406v270l94 67v691h275v-490l184 135v-272l-184 -135v-412h450v-260h-725v473z" />
<glyph unicode="&#x142;" horiz-adv-x="514" d="M41 455v270l82 59v709h264v-516l82 59v-272l-82 -59v-705h-264v514z" />
<glyph unicode="&#x143;" horiz-adv-x="1134" d="M121 0v1434h276l342 -908v908h275v-1434h-279l-340 905v-905h-274zM410 1520l176 282h284l-245 -282h-215z" />
<glyph unicode="&#x144;" d="M98 0v1075h264v-129q35 34 60 55.5t62.5 46.5t78.5 37.5t86 12.5q104 0 159.5 -80.5t55.5 -222.5v-795h-264v741q0 127 -72 127q-81 0 -166 -139v-729h-264zM315 1210l177 283h284l-246 -283h-215z" />
<glyph unicode="&#x145;" horiz-adv-x="1134" d="M121 0v1434h276l342 -908v908h275v-1434h-279l-340 905v-905h-274zM485 -532l84 170h-82v245h185l10 -270l-147 -215z" />
<glyph unicode="&#x146;" d="M98 0v1075h264v-129q35 34 60 55.5t62.5 46.5t78.5 37.5t86 12.5q104 0 159.5 -80.5t55.5 -222.5v-795h-264v741q0 127 -72 127q-81 0 -166 -139v-729h-264zM389 -532l84 170h-82v245h184l11 -270l-148 -215z" />
<glyph unicode="&#x147;" horiz-adv-x="1134" d="M121 0v1434h276l342 -908v908h275v-1434h-279l-340 905v-905h-274zM299 1802h176l98 -151l99 151h178l-156 -282h-241z" />
<glyph unicode="&#x148;" d="M98 0v1075h264v-129q35 34 60 55.5t62.5 46.5t78.5 37.5t86 12.5q104 0 159.5 -80.5t55.5 -222.5v-795h-264v741q0 127 -72 127q-81 0 -166 -139v-729h-264zM205 1493h176l98 -152l99 152h178l-156 -283h-242z" />
<glyph unicode="&#x149;" d="M96 1225l84 170h-82v245h185l10 -270l-148 -215zM98 0v1075h264v-129q35 34 60 55.5t62.5 46.5t78.5 37.5t86 12.5q104 0 159.5 -80.5t55.5 -222.5v-795h-264v741q0 127 -72 127q-81 0 -166 -139v-729h-264z" />
<glyph unicode="&#x14a;" horiz-adv-x="1134" d="M121 0v1434h276l342 -908v908h275v-1305q0 -64 -0.5 -95t-5 -78t-13.5 -69.5t-25.5 -56t-41 -53t-62 -45t-86 -47t-114.5 -45.5l-88 227q81 41 114 67.5t43 65.5l-340 905v-905h-274z" />
<glyph unicode="&#x14b;" horiz-adv-x="956" d="M98 0v1075h264v-129q35 34 60 55.5t62.5 46.5t78.5 37.5t86 12.5q104 0 159.5 -80.5t55.5 -222.5v-766q0 -66 -0.5 -96t-5 -78.5t-12.5 -70t-24.5 -56t-41 -53.5t-61 -44.5t-84.5 -46.5t-113 -45l-84 213q32 16 53.5 27.5t40 25.5t29 22.5t19 25.5t12 27t6 34.5t2.5 40 v51.5v735q0 127 -72 127q-81 0 -166 -139v-729h-264z" />
<glyph unicode="&#x14c;" horiz-adv-x="1146" d="M72 717q0 739 501 739q502 0 502 -739q0 -129 -15.5 -236.5t-52 -202.5t-93 -160.5t-143 -103t-198.5 -37.5q-501 0 -501 740zM350 1571v174h447v-174h-447zM354 717q0 -110 10 -191.5t33.5 -148.5t67.5 -102t108 -35t108.5 35t68 102t33.5 148.5t10 191.5q0 86 -6 154.5 t-21 130.5t-39.5 103t-63 65t-90.5 24q-64 0 -108 -35t-67.5 -102.5t-33.5 -149t-10 -190.5z" />
<glyph unicode="&#x14d;" horiz-adv-x="931" d="M61 539q0 269 102 414t304 145t303.5 -146t101.5 -415t-101.5 -414.5t-303.5 -145.5q-201 0 -303.5 146t-102.5 416zM244 1262v174h446v-174h-446zM328 539q0 -165 31.5 -249.5t107.5 -84.5q75 0 106 84t31 248t-31 248.5t-106 84.5q-76 0 -107.5 -83.5t-31.5 -247.5z " />
<glyph unicode="&#x14e;" horiz-adv-x="1146" d="M72 717q0 739 501 739q502 0 502 -739q0 -129 -15.5 -236.5t-52 -202.5t-93 -160.5t-143 -103t-198.5 -37.5q-501 0 -501 740zM324 1772h155q0 -42 25.5 -66.5t68.5 -24.5q45 0 72 24.5t27 66.5h155q0 -118 -67.5 -185t-186.5 -67q-118 0 -183.5 67t-65.5 185zM354 717 q0 -110 10 -191.5t33.5 -148.5t67.5 -102t108 -35t108.5 35t68 102t33.5 148.5t10 191.5q0 86 -6 154.5t-21 130.5t-39.5 103t-63 65t-90.5 24q-64 0 -108 -35t-67.5 -102.5t-33.5 -149t-10 -190.5z" />
<glyph unicode="&#x14f;" horiz-adv-x="931" d="M61 539q0 269 102 414t304 145t303.5 -146t101.5 -415t-101.5 -414.5t-303.5 -145.5q-201 0 -303.5 146t-102.5 416zM215 1462h156q0 -42 25.5 -66t68.5 -24q45 0 71.5 24t26.5 66h156q0 -118 -67.5 -185t-186.5 -67q-118 0 -184 67t-66 185zM328 539q0 -165 31.5 -249.5 t107.5 -84.5q75 0 106 84t31 248t-31 248.5t-106 84.5q-76 0 -107.5 -83.5t-31.5 -247.5z" />
<glyph unicode="&#x150;" horiz-adv-x="1146" d="M72 717q0 739 501 739q502 0 502 -739q0 -129 -15.5 -236.5t-52 -202.5t-93 -160.5t-143 -103t-198.5 -37.5q-501 0 -501 740zM334 1520l117 282h223l-187 -282h-153zM354 717q0 -110 10 -191.5t33.5 -148.5t67.5 -102t108 -35t108.5 35t68 102t33.5 148.5t10 191.5 q0 86 -6 154.5t-21 130.5t-39.5 103t-63 65t-90.5 24q-64 0 -108 -35t-67.5 -102.5t-33.5 -149t-10 -190.5zM610 1520l117 282h223l-184 -282h-156z" />
<glyph unicode="&#x151;" horiz-adv-x="931" d="M61 539q0 269 102 414t304 145t303.5 -146t101.5 -415t-101.5 -414.5t-303.5 -145.5q-201 0 -303.5 146t-102.5 416zM227 1210l117 283h223l-186 -283h-154zM328 539q0 -165 31.5 -249.5t107.5 -84.5q75 0 106 84t31 248t-31 248.5t-106 84.5q-76 0 -107.5 -83.5 t-31.5 -247.5zM504 1210l117 283h223l-185 -283h-155z" />
<glyph unicode="&#x152;" horiz-adv-x="1617" d="M72 717q0 739 501 739q126 0 222 -49v27h741v-260h-467v-330h379v-254h-379v-330h473v-260h-747v25q-101 -48 -222 -48q-501 0 -501 740zM354 717q0 -110 10 -191.5t33.5 -148.5t67.5 -102t108 -35t108.5 35t68 102t33.5 148.5t10 191.5q0 86 -6 154.5t-21 130.5 t-39.5 103t-63 65t-90.5 24q-64 0 -108 -35t-67.5 -102.5t-33.5 -149t-10 -190.5z" />
<glyph unicode="&#x153;" horiz-adv-x="1427" d="M61 539q0 269 102 414t304 145q166 0 270 -107q96 107 256 107q120 0 204.5 -62t124.5 -167.5t40 -243.5q0 -39 -3 -77t-6 -56l-3 -19h-476q6 -135 39 -205.5t99 -70.5q11 0 22 1.5t24.5 6.5t23.5 8t27 12.5t26 14t30 17.5t29 18t33 21t33 21l106 -174 q-226 -166 -389 -166q-144 0 -240 105q-102 -105 -270 -105q-201 0 -303.5 146t-102.5 416zM328 539q0 -165 31.5 -249.5t107.5 -84.5q75 0 106 84t31 248t-31 248.5t-106 84.5q-76 0 -107.5 -83.5t-31.5 -247.5zM877 633h243q0 130 -27 192t-89 62t-91.5 -63.5 t-35.5 -190.5z" />
<glyph unicode="&#x154;" horiz-adv-x="1077" d="M121 0v1434h393q255 0 374.5 -109t119.5 -330q0 -319 -250 -405l252 -590h-291l-232 555h-92v-555h-274zM395 797h127q99 0 154 44.5t55 153.5q0 108 -55 152.5t-154 44.5h-127v-395zM397 1520l176 282h285l-246 -282h-215z" />
<glyph unicode="&#x155;" horiz-adv-x="667" d="M98 0v1075h264v-225q8 25 18 48.5t34 63t52 66.5t73.5 45.5t97.5 13.5v-276q-69 0 -123 -35.5t-81.5 -86t-44.5 -101t-22 -86.5l-4 -35v-467h-264zM203 1210l176 283h285l-246 -283h-215z" />
<glyph unicode="&#x156;" horiz-adv-x="1077" d="M121 0v1434h393q255 0 374.5 -109t119.5 -330q0 -319 -250 -405l252 -590h-291l-232 555h-92v-555h-274zM395 797h127q99 0 154 44.5t55 153.5q0 108 -55 152.5t-154 44.5h-127v-395zM444 -532l84 170h-82v245h185l10 -270l-147 -215z" />
<glyph unicode="&#x157;" horiz-adv-x="667" d="M98 0v1075h264v-225q8 25 18 48.5t34 63t52 66.5t73.5 45.5t97.5 13.5v-276q-69 0 -123 -35.5t-81.5 -86t-44.5 -101t-22 -86.5l-4 -35v-467h-264zM141 -532l84 170h-82v245h185l10 -270l-148 -215z" />
<glyph unicode="&#x158;" horiz-adv-x="1077" d="M121 0v1434h393q255 0 374.5 -109t119.5 -330q0 -319 -250 -405l252 -590h-291l-232 555h-92v-555h-274zM289 1802h176l98 -151l99 151h178l-156 -282h-242zM395 797h127q99 0 154 44.5t55 153.5q0 108 -55 152.5t-154 44.5h-127v-395z" />
<glyph unicode="&#x159;" horiz-adv-x="667" d="M92 1493h176l99 -152l98 152h178l-156 -283h-241zM98 0v1075h264v-225q8 25 18 48.5t34 63t52 66.5t73.5 45.5t97.5 13.5v-276q-69 0 -123 -35.5t-81.5 -86t-44.5 -101t-22 -86.5l-4 -35v-467h-264z" />
<glyph unicode="&#x15a;" horiz-adv-x="976" d="M53 162l129 213q207 -142 318 -142q56 0 92.5 32.5t36.5 94.5q0 28 -12 56t-26.5 48t-48.5 49.5t-55 45.5t-71 52t-74 53q-61 44 -101.5 80.5t-82.5 87.5t-63 113t-21 134q0 165 104.5 271t286.5 106q209 0 426 -141l-131 -215q-176 100 -271 100q-54 0 -89 -31t-35 -90 q0 -23 7 -44.5t23.5 -43t32 -38t45 -39.5t49 -37t57.5 -41t58 -41q59 -42 100 -78t87 -90.5t70 -121t24 -143.5q0 -164 -105 -274.5t-287 -110.5q-129 0 -254.5 54.5t-218.5 130.5zM319 1520l177 282h284l-245 -282h-216z" />
<glyph unicode="&#x15b;" horiz-adv-x="825" d="M49 117l111 198q64 -43 140.5 -76.5t125.5 -33.5q34 0 59 20t25 58q0 27 -11.5 48.5t-38 40.5t-48.5 31t-64 31q-47 22 -78.5 39.5t-74.5 49.5t-68.5 65.5t-44.5 85t-19 110.5q0 135 84 224.5t234 89.5q95 0 192 -35t170 -82l-108 -190q-138 79 -221 79q-37 0 -61.5 -20 t-24.5 -57q0 -14 4.5 -26.5t9 -22t17 -20t20 -16.5t25.5 -15.5t25.5 -13t29.5 -13.5t28 -13q60 -28 107 -58.5t91 -74.5t68.5 -103t24.5 -130q0 -135 -86.5 -222.5t-238.5 -87.5q-107 0 -219.5 42.5t-184.5 97.5zM248 1210l176 283h285l-246 -283h-215z" />
<glyph unicode="&#x15c;" horiz-adv-x="976" d="M53 162l129 213q207 -142 318 -142q56 0 92.5 32.5t36.5 94.5q0 28 -12 56t-26.5 48t-48.5 49.5t-55 45.5t-71 52t-74 53q-61 44 -101.5 80.5t-82.5 87.5t-63 113t-21 134q0 165 104.5 271t286.5 106q209 0 426 -141l-131 -215q-176 100 -271 100q-54 0 -89 -31t-35 -90 q0 -23 7 -44.5t23.5 -43t32 -38t45 -39.5t49 -37t57.5 -41t58 -41q59 -42 100 -78t87 -90.5t70 -121t24 -143.5q0 -164 -105 -274.5t-287 -110.5q-129 0 -254.5 54.5t-218.5 130.5zM211 1520l154 282h241l156 -282h-178l-99 153l-98 -153h-176z" />
<glyph unicode="&#x15d;" horiz-adv-x="825" d="M49 117l111 198q64 -43 140.5 -76.5t125.5 -33.5q34 0 59 20t25 58q0 27 -11.5 48.5t-38 40.5t-48.5 31t-64 31q-47 22 -78.5 39.5t-74.5 49.5t-68.5 65.5t-44.5 85t-19 110.5q0 135 84 224.5t234 89.5q95 0 192 -35t170 -82l-108 -190q-138 79 -221 79q-37 0 -61.5 -20 t-24.5 -57q0 -14 4.5 -26.5t9 -22t17 -20t20 -16.5t25.5 -15.5t25.5 -13t29.5 -13.5t28 -13q60 -28 107 -58.5t91 -74.5t68.5 -103t24.5 -130q0 -135 -86.5 -222.5t-238.5 -87.5q-107 0 -219.5 42.5t-184.5 97.5zM139 1210l154 283h242l155 -283h-178l-98 154l-99 -154h-176 z" />
<glyph unicode="&#x15e;" horiz-adv-x="976" d="M55 162l129 213q207 -142 318 -142q56 0 92.5 32.5t36.5 94.5q0 28 -12 56t-26.5 48t-48.5 49.5t-55 45.5t-71 52t-74 53q-61 44 -101.5 80.5t-82.5 87.5t-63 113t-21 134q0 165 104.5 271t286.5 106q209 0 426 -141l-131 -215q-176 100 -270 100q-54 0 -89.5 -31 t-35.5 -90q0 -23 7 -44.5t23.5 -43t32 -38t45 -39.5t49 -37t57.5 -41t58 -41q59 -42 100 -78t87 -90.5t70 -121t24 -143.5q0 -147 -86 -253t-238 -127q41 -91 41 -168q0 -93 -48.5 -141t-121.5 -48q-77 0 -133 45l49 146q36 -25 63 -25t44.5 19t17.5 59q0 50 -27 111 q-118 10 -230 61.5t-196 120.5z" />
<glyph unicode="&#x15f;" horiz-adv-x="823" d="M49 117l111 198q64 -43 140.5 -76.5t125.5 -33.5q34 0 59 20t25 58q0 27 -11.5 48.5t-38 40.5t-48.5 31t-64 31q-47 22 -78.5 39.5t-74.5 49.5t-68.5 65.5t-44.5 85t-19 110.5q0 135 84 224.5t234 89.5q95 0 192 -35t170 -82l-108 -190q-138 79 -221 79q-37 0 -61.5 -20 t-24.5 -57q0 -14 4.5 -26.5t9 -22t17 -20t20 -16.5t25.5 -15.5t25.5 -13t29.5 -13.5t28 -13q60 -28 107 -58.5t91 -74.5t68.5 -103t24.5 -130q0 -117 -65.5 -198.5t-184.5 -102.5q43 -83 43 -172q0 -93 -48.5 -141t-121.5 -48q-77 0 -133 45l49 146q36 -25 64 -25 q27 0 44 19t17 59q0 53 -26 111q-99 7 -200 47t-167 90z" />
<glyph unicode="&#x160;" horiz-adv-x="976" d="M53 162l129 213q207 -142 318 -142q56 0 92.5 32.5t36.5 94.5q0 28 -12 56t-26.5 48t-48.5 49.5t-55 45.5t-71 52t-74 53q-61 44 -101.5 80.5t-82.5 87.5t-63 113t-21 134q0 165 104.5 271t286.5 106q209 0 426 -141l-131 -215q-176 100 -271 100q-54 0 -89 -31t-35 -90 q0 -23 7 -44.5t23.5 -43t32 -38t45 -39.5t49 -37t57.5 -41t58 -41q59 -42 100 -78t87 -90.5t70 -121t24 -143.5q0 -164 -105 -274.5t-287 -110.5q-129 0 -254.5 54.5t-218.5 130.5zM211 1802h176l98 -151l99 151h178l-156 -282h-241z" />
<glyph unicode="&#x161;" horiz-adv-x="825" d="M49 117l111 198q64 -43 140.5 -76.5t125.5 -33.5q34 0 59 20t25 58q0 27 -11.5 48.5t-38 40.5t-48.5 31t-64 31q-47 22 -78.5 39.5t-74.5 49.5t-68.5 65.5t-44.5 85t-19 110.5q0 135 84 224.5t234 89.5q95 0 192 -35t170 -82l-108 -190q-138 79 -221 79q-37 0 -61.5 -20 t-24.5 -57q0 -14 4.5 -26.5t9 -22t17 -20t20 -16.5t25.5 -15.5t25.5 -13t29.5 -13.5t28 -13q60 -28 107 -58.5t91 -74.5t68.5 -103t24.5 -130q0 -135 -86.5 -222.5t-238.5 -87.5q-107 0 -219.5 42.5t-184.5 97.5zM137 1493h176l99 -152l98 152h178l-156 -283h-241z" />
<glyph unicode="&#x162;" horiz-adv-x="901" d="M37 1174v260h827v-260h-274v-1174h-80q51 -89 51 -186q0 -93 -48.5 -141t-121.5 -48q-77 0 -133 45l49 146q36 -25 64 -25q27 0 44 19t17 59q0 49 -35 131h-82v1174h-278z" />
<glyph unicode="&#x163;" horiz-adv-x="667" d="M47 858v217h100v244l263 67v-311h198v-217h-198v-522q0 -103 51 -103q8 0 17.5 2t17 4.5t19 8.5t17 8.5t19 10t16.5 9.5l90 -213q-118 -65 -215 -81q41 -91 41 -168q0 -93 -48.5 -141t-121.5 -48q-77 0 -133 45l49 146q36 -25 64 -25q27 0 44 19t17 59q0 57 -28 115 q-92 19 -135.5 98.5t-43.5 230.5v545h-100z" />
<glyph unicode="&#x164;" horiz-adv-x="901" d="M37 1174v260h827v-260h-274v-1174h-275v1174h-278zM176 1802h176l99 -151l98 151h178l-156 -282h-241z" />
<glyph unicode="&#x165;" horiz-adv-x="667" d="M47 858v217h100v244l263 67v-311h198v-217h-198v-522q0 -103 51 -103q8 0 17.5 2t17 4.5t19 8.5t17 8.5t19 10t16.5 9.5l90 -213q-158 -86 -268 -86q-126 0 -184 81t-58 255v545h-100zM469 1225l84 170h-82v245h184l11 -270l-148 -215z" />
<glyph unicode="&#x166;" horiz-adv-x="913" d="M43 1174v260h827v-260h-274v-564h121v-174h-121v-436h-274v436h-121v174h121v564h-279z" />
<glyph unicode="&#x167;" horiz-adv-x="667" d="M45 858v217h100v244l263 67v-311h198v-217h-198v-164h155v-174h-155v-184q0 -103 51 -103q8 0 17.5 2t17 4.5t19 8.5t17 8.5t19 10t16.5 9.5l90 -213q-158 -86 -268 -86q-126 0 -184 81t-58 255v207h-69v174h69v164h-100z" />
<glyph unicode="&#x168;" horiz-adv-x="1099" d="M113 483v951h272v-975q0 -49 7 -86t24 -68.5t50.5 -48t82.5 -16.5t82.5 16.5t50.5 48t24 68.5t7 86v975h274v-951q0 -90 -10.5 -161t-39.5 -138t-77 -110.5t-126.5 -70t-184.5 -26.5q-105 0 -183.5 26.5t-126 70t-76.5 110.5t-39.5 138t-10.5 161zM262 1595 q16 44 25 65.5t26.5 55t33 50t39 29.5t50.5 13q34 0 76.5 -24t78 -48t54.5 -24q11 0 20 5t23.5 27t28.5 62l112 -65q-18 -46 -25.5 -64.5t-25.5 -54.5t-33 -51.5t-38 -29t-50 -13.5q-35 0 -78 24.5t-78.5 49t-54.5 24.5q-34 0 -71 -94z" />
<glyph unicode="&#x169;" d="M94 281v794h264v-741q0 -127 72 -127q79 0 166 135v733h264v-1075h-264v129q-35 -34 -61 -56t-63.5 -46.5t-78 -37t-84.5 -12.5q-104 0 -159.5 81t-55.5 223zM207 1286q16 44 25 65.5t26.5 55t33 50t39 29.5t50.5 13q34 0 76.5 -24t78 -48t54.5 -24q11 0 20 5t23.5 27 t28.5 62l112 -65q-18 -46 -25.5 -64.5t-25.5 -54.5t-33 -51.5t-38 -29t-50 -13.5q-35 0 -78 24.5t-78.5 49t-54.5 24.5q-35 0 -72 -94z" />
<glyph unicode="&#x16a;" horiz-adv-x="1099" d="M113 483v951h272v-975q0 -49 7 -86t24 -68.5t50.5 -48t82.5 -16.5t82.5 16.5t50.5 48t24 68.5t7 86v975h274v-951q0 -90 -10.5 -161t-39.5 -138t-77 -110.5t-126.5 -70t-184.5 -26.5q-105 0 -183.5 26.5t-126 70t-76.5 110.5t-39.5 138t-10.5 161zM326 1571v174h446v-174 h-446z" />
<glyph unicode="&#x16b;" d="M94 281v794h264v-741q0 -127 72 -127q79 0 166 135v733h264v-1075h-264v129q-35 -34 -61 -56t-63.5 -46.5t-78 -37t-84.5 -12.5q-104 0 -159.5 81t-55.5 223zM254 1262v174h446v-174h-446z" />
<glyph unicode="&#x16c;" horiz-adv-x="1099" d="M113 483v951h272v-975q0 -49 7 -86t24 -68.5t50.5 -48t82.5 -16.5t82.5 16.5t50.5 48t24 68.5t7 86v975h274v-951q0 -90 -10.5 -161t-39.5 -138t-77 -110.5t-126.5 -70t-184.5 -26.5q-105 0 -183.5 26.5t-126 70t-76.5 110.5t-39.5 138t-10.5 161zM297 1772h156 q0 -42 25.5 -66.5t68.5 -24.5q45 0 71.5 24.5t26.5 66.5h156q0 -118 -67.5 -185t-186.5 -67q-118 0 -184 67t-66 185z" />
<glyph unicode="&#x16d;" d="M94 281v794h264v-741q0 -127 72 -127q79 0 166 135v733h264v-1075h-264v129q-35 -34 -61 -56t-63.5 -46.5t-78 -37t-84.5 -12.5q-104 0 -159.5 81t-55.5 223zM225 1462h156q0 -42 25.5 -66t68.5 -24q45 0 71.5 24t26.5 66h156q0 -118 -67.5 -185t-186.5 -67 q-118 0 -184 67t-66 185z" />
<glyph unicode="&#x16e;" horiz-adv-x="1099" d="M113 483v951h272v-975q0 -49 7 -86t24 -68.5t50.5 -48t82.5 -16.5t82.5 16.5t50.5 48t24 68.5t7 86v975h274v-951q0 -90 -10.5 -161t-39.5 -138t-77 -110.5t-126.5 -70t-184.5 -26.5q-105 0 -183.5 26.5t-126 70t-76.5 110.5t-39.5 138t-10.5 161zM350 1702 q0 84 58.5 143.5t142.5 59.5t143.5 -59.5t59.5 -143.5q0 -85 -59 -144t-144 -59t-143 59t-58 144zM475 1702q0 -32 22 -54t54 -22t54 22t22 54q0 31 -22 53.5t-54 22.5t-54 -22.5t-22 -53.5z" />
<glyph unicode="&#x16f;" d="M94 281v794h264v-741q0 -127 72 -127q79 0 166 135v733h264v-1075h-264v129q-35 -34 -61 -56t-63.5 -46.5t-78 -37t-84.5 -12.5q-104 0 -159.5 81t-55.5 223zM276 1393q0 84 58.5 143t142.5 59q85 0 144 -59.5t59 -142.5q0 -85 -59 -144t-144 -59t-143 59t-58 144z M401 1393q0 -32 22 -54t54 -22t54 22t22 54q0 31 -22 53t-54 22t-54 -22t-22 -53z" />
<glyph unicode="&#x170;" horiz-adv-x="1099" d="M113 483v951h272v-975q0 -49 7 -86t24 -68.5t50.5 -48t82.5 -16.5t82.5 16.5t50.5 48t24 68.5t7 86v975h274v-951q0 -90 -10.5 -161t-39.5 -138t-77 -110.5t-126.5 -70t-184.5 -26.5q-105 0 -183.5 26.5t-126 70t-76.5 110.5t-39.5 138t-10.5 161zM311 1520l117 282h223 l-186 -282h-154zM588 1520l117 282h223l-185 -282h-155z" />
<glyph unicode="&#x171;" d="M94 281v794h264v-741q0 -127 72 -127q79 0 166 135v733h264v-1075h-264v129q-35 -34 -61 -56t-63.5 -46.5t-78 -37t-84.5 -12.5q-104 0 -159.5 81t-55.5 223zM238 1210l116 283h224l-187 -283h-153zM514 1210l117 283h223l-184 -283h-156z" />
<glyph unicode="&#x172;" horiz-adv-x="1099" d="M113 483v951h272v-975q0 -49 7 -86t24 -68.5t50.5 -48t82.5 -16.5t82.5 16.5t50.5 48t24 68.5t7 86v975h274v-951q0 -95 -12.5 -169t-43 -141.5t-88 -112.5t-141.5 -66q-33 -29 -55 -52.5t-43.5 -61.5t-21.5 -73q0 -17 4 -29.5t12 -20t16 -12t20 -6t18.5 -2t18 0 t13.5 0.5l-22 -135h-8q-234 -4 -234 176q0 111 104 198q-99 3 -173 31t-119 72t-72 110t-37 135.5t-10 157.5z" />
<glyph unicode="&#x173;" d="M94 281v794h264v-741q0 -127 72 -127q79 0 166 135v733h264v-1075h-6q-35 -30 -58 -53.5t-46 -63t-23 -76.5q0 -17 4 -29.5t12 -20t16 -12t20 -6t18.5 -2t18 0t13.5 0.5l-22 -135h-8q-234 -4 -234 176q0 127 135 221h-104v129q-35 -34 -61 -56t-63.5 -46.5t-78 -37 t-84.5 -12.5q-104 0 -159.5 81t-55.5 223z" />
<glyph unicode="&#x174;" horiz-adv-x="1456" d="M37 1434h307l127 -916l152 916h208l152 -920l127 920h309l-276 -1434h-260l-156 930l-156 -930h-260zM453 1520l153 282h242l156 -282h-179l-98 153l-98 -153h-176z" />
<glyph unicode="&#x175;" horiz-adv-x="1261" d="M37 1075h278l95 -669l129 669h184l127 -674l96 674h281l-228 -1075h-237l-131 664l-131 -664h-238zM356 1210l154 283h242l155 -283h-178l-98 154l-99 -154h-176z" />
<glyph unicode="&#x177;" horiz-adv-x="892" d="M27 1075h276l143 -743l144 743h276l-399 -1493h-283l138 379zM172 1210l154 283h241l156 -283h-178l-99 154l-98 -154h-176z" />
<glyph unicode="&#x178;" horiz-adv-x="1007" d="M16 1434h301l187 -562l184 562h303l-350 -865v-569h-274v569zM268 1540v236h195v-236h-195zM543 1540v236h194v-236h-194z" />
<glyph unicode="&#x179;" horiz-adv-x="962" d="M57 0v229l500 945h-469v260h799v-228l-500 -946h508v-260h-838zM322 1520l176 282h284l-245 -282h-215z" />
<glyph unicode="&#x17a;" horiz-adv-x="860" d="M59 0v205l418 629h-403v241h723v-203l-420 -628h420v-244h-738zM262 1210l176 283h285l-246 -283h-215z" />
<glyph unicode="&#x17b;" horiz-adv-x="962" d="M57 0v229l500 945h-469v260h799v-228l-500 -946h508v-260h-838zM389 1540v236h197v-236h-197z" />
<glyph unicode="&#x17c;" horiz-adv-x="860" d="M59 0v205l418 629h-403v241h723v-203l-420 -628h420v-244h-738zM328 1231v235h196v-235h-196z" />
<glyph unicode="&#x17d;" horiz-adv-x="962" d="M57 0v229l500 945h-469v260h799v-228l-500 -946h508v-260h-838zM213 1802h176l98 -151l99 151h178l-156 -282h-241z" />
<glyph unicode="&#x17e;" horiz-adv-x="860" d="M59 0v205l418 629h-403v241h723v-203l-420 -628h420v-244h-738zM154 1493h176l98 -152l98 152h179l-156 -283h-242z" />
<glyph unicode="&#x17f;" horiz-adv-x="546" d="M45 858v217h100v55q0 186 56 274.5t176 88.5q118 0 289 -84l-93 -205q-87 35 -114 35q-49 0 -49 -88v-1151h-265v858h-100z" />
<glyph unicode="&#x192;" horiz-adv-x="890" d="M51 -418l201 1276h-105l41 217h99l10 64q14 94 33.5 157t53.5 109t84 67t122 21q116 0 280 -86l-120 -215q-87 45 -132 45q-28 0 -41.5 -25.5t-21.5 -83.5l-8 -53h205l-41 -217h-199l-197 -1276h-264z" />
<glyph unicode="&#x1fc;" horiz-adv-x="1597" d="M-25 0l660 1434h881v-260h-467v-330h378v-254h-378v-330h473v-260h-748v285h-348l-123 -285h-328zM532 532h242v560zM688 1520l176 282h285l-246 -282h-215z" />
<glyph unicode="&#x1fd;" horiz-adv-x="1366" d="M53 328q0 167 76 257.5t205 90.5q20 0 42 -3t39.5 -7t40.5 -11t35 -11t33 -11.5t25 -9.5q3 51 12 98q-2 82 -28 117.5t-87 35.5q-47 0 -100 -17.5t-158 -61.5l-86 202q232 101 406 101q141 0 215 -68q86 68 211 68q120 0 204.5 -62t124.5 -167.5t40 -243.5 q0 -39 -3.5 -77t-6.5 -56l-3 -19h-475q6 -135 38.5 -205.5t98.5 -70.5q11 0 22 1.5t24.5 6.5t23.5 8t27 12.5t26 14t30 17.5t29 18t33 21t33 21l107 -174q-226 -166 -389 -166q-99 0 -179.5 53.5t-130.5 159.5q-139 -213 -295 -213q-119 0 -189.5 94t-70.5 257zM319 352 q0 -73 26.5 -109t68.5 -36q83 0 151 123q-10 47 -18 143q-8 3 -26.5 12t-30.5 14t-29 10t-31 5q-54 0 -82.5 -44t-28.5 -118zM514 1210l176 283h285l-246 -283h-215zM817 633h244q0 130 -27.5 192t-89.5 62t-91.5 -63.5t-35.5 -190.5z" />
<glyph unicode="&#x1fe;" horiz-adv-x="1144" d="M72 717q0 739 501 739q158 0 269 -78l30 56h187l-98 -181q114 -188 114 -536q0 -129 -15.5 -236.5t-52 -202.5t-93 -160.5t-143 -103t-198.5 -37.5q-161 0 -270 76l-29 -53h-184l96 178q-114 181 -114 539zM354 717q0 -132 13 -211l340 624q-52 64 -134 64 q-64 0 -108 -35t-67.5 -102.5t-33.5 -149t-10 -190.5zM408 1520l176 282h284l-245 -282h-215zM438 299q50 -59 135 -59q64 0 108.5 35t68 102t33.5 148.5t10 191.5q0 107 -13 209z" />
<glyph unicode="&#x1ff;" horiz-adv-x="929" d="M61 539q0 269 102 414t304 145q124 0 215 -60l20 37h146l-74 -127q98 -143 98 -411q0 -269 -101.5 -414.5t-303.5 -145.5q-127 0 -221 62l-23 -39h-149l80 137q-93 143 -93 402zM287 1210l176 283h285l-246 -283h-215zM328 539q0 -70 2 -101l223 383q-32 49 -86 49 q-76 0 -107.5 -83.5t-31.5 -247.5zM373 258q35 -53 94 -53q75 0 106 84t31 248q0 42 -4 112z" />
<glyph unicode="&#x218;" horiz-adv-x="976" d="M53 162l129 213q207 -142 318 -142q56 0 92.5 32.5t36.5 94.5q0 28 -12 56t-26.5 48t-48.5 49.5t-55 45.5t-71 52t-74 53q-61 44 -101.5 80.5t-82.5 87.5t-63 113t-21 134q0 165 104.5 271t286.5 106q209 0 426 -141l-131 -215q-176 100 -271 100q-54 0 -89 -31t-35 -90 q0 -23 7 -44.5t23.5 -43t32 -38t45 -39.5t49 -37t57.5 -41t58 -41q59 -42 100 -78t87 -90.5t70 -121t24 -143.5q0 -164 -105 -274.5t-287 -110.5q-129 0 -254.5 54.5t-218.5 130.5zM403 -532l84 170h-81v245h184l10 -270l-147 -215z" />
<glyph unicode="&#x219;" horiz-adv-x="825" d="M49 117l111 198q64 -43 140.5 -76.5t125.5 -33.5q34 0 59 20t25 58q0 27 -11.5 48.5t-38 40.5t-48.5 31t-64 31q-47 22 -78.5 39.5t-74.5 49.5t-68.5 65.5t-44.5 85t-19 110.5q0 135 84 224.5t234 89.5q95 0 192 -35t170 -82l-108 -190q-138 79 -221 79q-37 0 -61.5 -20 t-24.5 -57q0 -14 4.5 -26.5t9 -22t17 -20t20 -16.5t25.5 -15.5t25.5 -13t29.5 -13.5t28 -13q60 -28 107 -58.5t91 -74.5t68.5 -103t24.5 -130q0 -135 -86.5 -222.5t-238.5 -87.5q-107 0 -219.5 42.5t-184.5 97.5zM311 -532l84 170h-82v245h185l10 -270l-148 -215z" />
<glyph unicode="&#x21a;" horiz-adv-x="901" d="M37 1174v260h827v-260h-274v-1174h-275v1174h-278zM360 -532l84 170h-82v245h185l10 -270l-147 -215z" />
<glyph unicode="&#x21b;" horiz-adv-x="667" d="M47 858v217h100v244l263 67v-311h198v-217h-198v-522q0 -103 51 -103q8 0 17.5 2t17 4.5t19 8.5t17 8.5t19 10t16.5 9.5l90 -213q-158 -86 -268 -86q-126 0 -184 81t-58 255v545h-100zM209 -532l84 170h-82v245h184l11 -270l-148 -215z" />
<glyph unicode="&#x2b0;" horiz-adv-x="653" d="M84 788v895h178v-325q33 30 52 45t53.5 30t70.5 15q66 0 100.5 -49t34.5 -139v-472h-178v435q0 69 -41 69q-28 0 -53.5 -25t-38.5 -50v-429h-178z" />
<glyph unicode="&#x2b2;" horiz-adv-x="344" d="M-18 651q72 34 86 58t14 94v631h180v-615q0 -66 -2 -95t-12 -67.5t-34.5 -58.5t-66.5 -44t-110 -48zM80 1516v165h184v-165h-184z" />
<glyph unicode="&#x2b7;" horiz-adv-x="813" d="M27 1434h190l51 -375l74 375h127l74 -379l51 379h190l-141 -646h-160l-77 377l-76 -377h-162z" />
<glyph unicode="&#x2b8;" horiz-adv-x="571" d="M16 1434h189l80 -422l82 422h188l-250 -895h-188l84 225z" />
<glyph unicode="&#x2c6;" horiz-adv-x="425" d="M-61 1210l153 283h242l155 -283h-178l-98 154l-98 -154h-176z" />
<glyph unicode="&#x2c7;" horiz-adv-x="425" d="M-61 1493h176l98 -152l98 152h178l-155 -283h-242z" />
<glyph unicode="&#x2d8;" horiz-adv-x="403" d="M-49 1462h155q0 -42 26 -66t69 -24q45 0 71.5 24t26.5 66h156q0 -118 -67.5 -185t-186.5 -67q-118 0 -184 67t-66 185z" />
<glyph unicode="&#x2d9;" horiz-adv-x="147" d="M-25 1231v235h197v-235h-197z" />
<glyph unicode="&#x2da;" horiz-adv-x="374" d="M-14 1393q0 84 58 143t142 59t143.5 -59.5t59.5 -142.5q0 -85 -59 -144t-144 -59q-84 0 -142 59t-58 144zM111 1393q0 -32 21.5 -54t53.5 -22t54 22t22 54q0 31 -22 53t-54 22t-53.5 -22t-21.5 -53z" />
<glyph unicode="&#x2db;" horiz-adv-x="243" d="M-49 -221q0 142 170 244l123 -21q-36 -30 -59.5 -53.5t-47.5 -64t-24 -77.5q0 -17 4 -29.5t12 -20t16 -12t20 -6t18.5 -2t18 0t13.5 0.5l-22 -135h-8q-234 -4 -234 176z" />
<glyph unicode="&#x2dc;" horiz-adv-x="432" d="M-68 1286q16 44 25 65.5t26.5 55t33 50t39 29.5t50.5 13q34 0 76.5 -24t78 -48t54.5 -24q11 0 20 5t23.5 27t28.5 62l113 -65q-18 -46 -25.5 -64.5t-25.5 -54.5t-33 -51.5t-38 -29t-50 -13.5q-35 0 -78 24.5t-78.5 49t-54.5 24.5q-35 0 -72 -94z" />
<glyph unicode="&#x2dd;" horiz-adv-x="501" d="M-57 1210l116 283h224l-187 -283h-153zM219 1210l117 283h223l-184 -283h-156z" />
<glyph unicode="&#x2e3;" horiz-adv-x="612" d="M18 788l181 324l-170 322h200l76 -168l78 168h201l-170 -324l180 -322h-207l-82 179l-80 -179h-207z" />
<glyph unicode="&#x3c0;" horiz-adv-x="876" d="M43 823v252h791v-252h-111v-823h-219v823h-131v-823h-219v823h-111z" />
<glyph unicode="&#x1e80;" horiz-adv-x="1456" d="M37 1434h307l127 -916l152 916h208l152 -920l127 920h309l-276 -1434h-260l-156 930l-156 -930h-260zM434 1802h283l178 -282h-213z" />
<glyph unicode="&#x1e81;" horiz-adv-x="1261" d="M37 1075h278l95 -669l129 669h184l127 -674l96 674h281l-228 -1075h-237l-131 664l-131 -664h-238zM338 1493h283l178 -283h-213z" />
<glyph unicode="&#x1e82;" horiz-adv-x="1456" d="M37 1434h307l127 -916l152 916h208l152 -920l127 920h309l-276 -1434h-260l-156 930l-156 -930h-260zM561 1520l176 282h285l-246 -282h-215z" />
<glyph unicode="&#x1e83;" horiz-adv-x="1261" d="M37 1075h278l95 -669l129 669h184l127 -674l96 674h281l-228 -1075h-237l-131 664l-131 -664h-238zM467 1210l176 283h285l-246 -283h-215z" />
<glyph unicode="&#x1e84;" horiz-adv-x="1456" d="M37 1434h307l127 -916l152 916h208l152 -920l127 920h309l-276 -1434h-260l-156 930l-156 -930h-260zM492 1540v236h194v-236h-194zM766 1540v236h195v-236h-195z" />
<glyph unicode="&#x1e85;" horiz-adv-x="1261" d="M37 1075h278l95 -669l129 669h184l127 -674l96 674h281l-228 -1075h-237l-131 664l-131 -664h-238zM397 1231v235h195v-235h-195zM672 1231v235h194v-235h-194z" />
<glyph unicode="&#x1e9e;" horiz-adv-x="1253" d="M121 0v930q0 120 21.5 209t70.5 157t135 103t209 35h522v-203l-229 -363q162 -46 254 -165t92 -289q0 -86 -24.5 -163t-71.5 -139t-124 -98.5t-175 -36.5q-159 0 -334 101l108 219q98 -66 181 -66q71 0 114 55.5t43 141.5q0 29 -5 55.5t-23 58t-46.5 54t-81 38 t-122.5 15.5h-76v193l213 332h-197q-93 0 -136.5 -67.5t-43.5 -238.5v-868h-274z" />
<glyph unicode="&#x1ef2;" horiz-adv-x="1007" d="M16 1434h301l187 -562l184 562h303l-350 -865v-569h-274v569zM209 1802h283l178 -282h-213z" />
<glyph unicode="&#x1ef3;" horiz-adv-x="892" d="M27 1075h276l143 -743l144 743h276l-399 -1493h-283l138 379zM152 1493h282l178 -283h-213z" />
<glyph unicode="&#x2000;" horiz-adv-x="952" />
<glyph unicode="&#x2001;" horiz-adv-x="1905" />
<glyph unicode="&#x2002;" horiz-adv-x="952" />
<glyph unicode="&#x2003;" horiz-adv-x="1905" />
<glyph unicode="&#x2004;" horiz-adv-x="635" />
<glyph unicode="&#x2005;" horiz-adv-x="476" />
<glyph unicode="&#x2006;" horiz-adv-x="317" />
<glyph unicode="&#x2007;" horiz-adv-x="317" />
<glyph unicode="&#x2008;" horiz-adv-x="238" />
<glyph unicode="&#x2009;" horiz-adv-x="381" />
<glyph unicode="&#x200a;" horiz-adv-x="105" />
<glyph unicode="&#x2010;" horiz-adv-x="673" d="M98 465v235h477v-235h-477z" />
<glyph unicode="&#x2011;" horiz-adv-x="673" d="M98 465v235h477v-235h-477z" />
<glyph unicode="&#x2012;" horiz-adv-x="673" d="M98 465v235h477v-235h-477z" />
<glyph unicode="&#x2013;" horiz-adv-x="849" d="M96 465v235h658v-235h-658z" />
<glyph unicode="&#x2014;" horiz-adv-x="1003" d="M96 465v235h811v-235h-811z" />
<glyph unicode="&#x2018;" horiz-adv-x="448" d="M78 1184l211 286l69 -96l-118 -227h116v-338h-262z" />
<glyph unicode="&#x2019;" horiz-adv-x="434" d="M86 868l119 228h-117v338h262l17 -375l-211 -287z" />
<glyph unicode="&#x201a;" horiz-adv-x="462" d="M94 -227l119 227h-117v338h262l17 -375l-211 -287z" />
<glyph unicode="&#x201c;" horiz-adv-x="804" d="M78 1184l211 286l69 -96l-118 -227h116v-338h-262zM434 1184l211 286l70 -96l-119 -227h117v-338h-262z" />
<glyph unicode="&#x201d;" horiz-adv-x="790" d="M86 868l119 228h-117v338h262l17 -375l-211 -287zM442 868l119 228h-117v338h263l16 -375l-211 -287z" />
<glyph unicode="&#x201e;" horiz-adv-x="819" d="M94 -227l119 227h-117v338h262l17 -375l-211 -287zM451 -227l118 227h-116v338h262l16 -375l-211 -287z" />
<glyph unicode="&#x2020;" horiz-adv-x="894" d="M45 764v237l305 -28v461h195v-461l305 28v-237l-305 27v-1209h-195v1209z" />
<glyph unicode="&#x2021;" horiz-adv-x="944" d="M70 227v238l303 -29v355l-303 -27v237l303 -28v461h196v-461l305 28v-237l-305 27v-355l305 29v-238l-305 27v-672h-196v672z" />
<glyph unicode="&#x2022;" horiz-adv-x="856" d="M129 584q0 125 86.5 213t210.5 88q126 0 213.5 -88t87.5 -213t-87.5 -212t-213.5 -87q-124 0 -210.5 87t-86.5 212z" />
<glyph unicode="&#x2026;" horiz-adv-x="1220" d="M96 0v338h264v-338h-264zM479 0v338h264v-338h-264zM860 0v338h264v-338h-264z" />
<glyph unicode="&#x202f;" horiz-adv-x="381" />
<glyph unicode="&#x2030;" horiz-adv-x="2105" d="M57 1073q0 179 69.5 281t215.5 102q145 0 215 -102t70 -281q0 -178 -70 -281.5t-215 -103.5q-146 0 -215.5 103.5t-69.5 281.5zM248 1073q0 -99 21 -152t73 -53q51 0 71.5 53t20.5 152q0 100 -20.5 151.5t-71.5 51.5q-52 0 -73 -51.5t-21 -151.5zM385 0l504 1434h198 l-501 -1434h-201zM848 362q0 179 70.5 281t216.5 102q145 0 213.5 -102t68.5 -281q0 -178 -69 -281.5t-213 -103.5q-146 0 -216.5 103.5t-70.5 281.5zM1040 362q0 -99 21.5 -151.5t73.5 -52.5q51 0 71.5 52.5t20.5 151.5q0 100 -20.5 151.5t-71.5 51.5q-53 0 -74 -52 t-21 -151zM1479 362q0 178 69 280.5t215 102.5t215.5 -102.5t69.5 -280.5q0 -179 -69.5 -282t-215.5 -103t-215 102.5t-69 282.5zM1669 362q0 -100 21 -152t73 -52q51 0 71.5 52t20.5 152q0 99 -20.5 150t-71.5 51q-53 0 -73.5 -50.5t-20.5 -150.5z" />
<glyph unicode="&#x2039;" horiz-adv-x="567" d="M49 467v178l428 434v-321l-225 -203l225 -203v-321z" />
<glyph unicode="&#x203a;" horiz-adv-x="567" d="M90 31v321l225 203l-225 203v321l428 -436v-178z" />
<glyph unicode="&#x2044;" horiz-adv-x="313" d="M-168 0l457 1434h196l-458 -1434h-195z" />
<glyph unicode="&#x205f;" horiz-adv-x="476" />
<glyph unicode="&#x2070;" horiz-adv-x="684" d="M61 1219q0 444 281 444t281 -444q0 -445 -281 -445t-281 445zM248 1219q0 -154 21 -219.5t73 -65.5t73 65.5t21 219.5q0 153 -21 218.5t-73 65.5t-73 -65t-21 -219z" />
<glyph unicode="&#x2074;" horiz-adv-x="692" d="M41 948v142l266 559h244v-531h92v-170h-92v-160h-184v160h-326zM207 1118h160v336z" />
<glyph unicode="&#x2075;" horiz-adv-x="626" d="M43 889l88 141q95 -80 154 -80q42 0 69 33t27 86q0 50 -24 85.5t-74 35.5q-49 0 -103 -47l-102 63l33 443h432v-170h-275l-4 -133q38 10 70 10q113 0 172 -82.5t59 -202.5q0 -80 -26 -145.5t-85 -108.5t-143 -43q-85 0 -154 36t-114 79z" />
<glyph unicode="&#x2076;" horiz-adv-x="643" d="M59 1153q-1 227 109 368.5t287 141.5q27 0 52 -3.5t37 -7.5l11 -3l-41 -162q-28 8 -57 8q-65 0 -119.5 -51.5t-77.5 -159.5q53 62 129 62q90 0 148.5 -75.5t58.5 -193.5q0 -132 -70.5 -217.5t-191.5 -85.5q-137 0 -206 106t-69 273zM246 1128q0 -94 24 -140t64 -46 q39 0 57.5 37.5t18.5 87.5q0 55 -19.5 90t-58.5 35q-30 0 -53 -19t-33 -45z" />
<glyph unicode="&#x2077;" horiz-adv-x="540" d="M45 1479v170h463v-158q-9 -14 -23.5 -39.5t-52 -104.5t-66 -158.5t-52 -190t-23.5 -210.5h-191q0 93 20.5 196t46 178t61 153t52 108t31.5 56h-266z" />
<glyph unicode="&#x2078;" horiz-adv-x="661" d="M55 1012q0 147 144 241q-103 83 -103 199q0 92 62.5 151.5t173.5 59.5t173 -59.5t62 -151.5q0 -118 -104 -199q145 -92 145 -241q0 -107 -72 -172.5t-204 -65.5q-133 0 -205 65.5t-72 172.5zM240 1024q0 -43 25.5 -68.5t66.5 -25.5t66.5 25.5t25.5 68.5q0 86 -92 150 q-92 -64 -92 -150zM262 1440q0 -65 68 -111q67 45 67 111q0 29 -17 51t-48 22q-33 0 -51.5 -22t-18.5 -51z" />
<glyph unicode="&#x2079;" horiz-adv-x="643" d="M49 1360q0 132 69 217.5t193 85.5q135 0 204 -106.5t69 -272.5q2 -227 -108 -368.5t-288 -141.5q-26 0 -51 3.5t-37 6.5l-12 4l43 162q24 -8 55 -8q65 0 120 51.5t79 161.5q-50 -63 -131 -63q-90 0 -147.5 75t-57.5 193zM231 1370q0 -54 20.5 -89.5t59.5 -35.5 q30 0 53 19.5t35 46.5q-1 92 -25.5 138t-62.5 46q-40 0 -60 -38t-20 -87z" />
<glyph unicode="&#x207a;" horiz-adv-x="563" d="M51 1126v146h158v176h143v-176h160v-146h-160v-178h-143v178h-158z" />
<glyph unicode="&#x207d;" horiz-adv-x="393" d="M80 922v589q0 64 2 92.5t12.5 69t34.5 61t67.5 43.5t110.5 42l43 -111q-58 -31 -71 -55.5t-13 -89.5v-693q0 -65 13 -91t71 -56l-43 -111q-84 23 -131 48.5t-67.5 69t-24.5 78.5t-4 114z" />
<glyph unicode="&#x207e;" horiz-adv-x="395" d="M45 723q58 31 71 55.5t13 89.5v693q0 65 -13 91t-71 56l43 111q84 -23 131 -48.5t67.5 -69t24.5 -78.5t4 -114v-589q0 -64 -2 -92.5t-12.5 -69t-34.5 -61t-67.5 -43.5t-110.5 -42z" />
<glyph unicode="&#x207f;" horiz-adv-x="653" d="M84 788v646h178v-74q43 41 83.5 64.5t92.5 23.5q66 0 100.5 -49t34.5 -139v-472h-178v435q0 69 -41 69q-28 0 -53.5 -25t-38.5 -50v-429h-178z" />
<glyph unicode="&#x2080;" horiz-adv-x="684" d="M61 123q0 444 281 444t281 -444q0 -445 -281 -445t-281 445zM248 123q0 -154 21 -219.5t73 -65.5t73 65.5t21 219.5q0 153 -21 219t-73 66t-73 -65.5t-21 -219.5z" />
<glyph unicode="&#x2081;" horiz-adv-x="526" d="M20 418l185 135h174v-860h-182v672l-99 -72z" />
<glyph unicode="&#x2082;" horiz-adv-x="628" d="M51 -217q0 60 16 113t49.5 100t56.5 72.5t65 66.5q49 47 71 70.5t45 59.5t23 65q0 28 -19 46.5t-51 18.5q-59 0 -151 -71l-88 127q129 116 266 116q109 0 169 -67.5t60 -163.5q0 -42 -15 -86t-29 -70.5t-48.5 -67.5t-43 -49.5l-42.5 -42.5q-58 -54 -83.5 -87.5 t-25.5 -69.5h287v-170h-512v90z" />
<glyph unicode="&#x2083;" horiz-adv-x="626" d="M39 -213l86 137q103 -71 166 -71q40 0 67 27t27 69q0 33 -17 57t-44 35.5t-52.5 16.5t-50.5 5h-20v168h26q45 0 88 24.5t43 72.5q0 28 -16.5 46.5t-50.5 18.5q-61 0 -146 -61l-79 123q126 112 262 112q101 0 158 -59.5t57 -145.5q0 -124 -111 -194q62 -27 99.5 -86.5 t37.5 -140.5q0 -49 -14 -94t-42.5 -84t-78.5 -62t-115 -23q-143 0 -280 109z" />
<glyph unicode="&#x2084;" horiz-adv-x="692" d="M41 -6l266 559h244v-530h92v-170h-92v-160h-184v160h-326v141zM207 23h160v335z" />
<glyph unicode="&#x2085;" horiz-adv-x="628" d="M45 -207l88 141q94 -79 154 -79q42 0 69 32.5t27 85.5q0 50 -24 85.5t-74 35.5q-49 0 -103 -47l-102 64l33 442h432v-170h-275l-4 -133q38 10 70 10q113 0 172 -82.5t59 -202.5q0 -80 -26 -145.5t-85 -108.5t-143 -43q-85 0 -154 36t-114 79z" />
<glyph unicode="&#x2086;" horiz-adv-x="643" d="M59 57q-1 227 109 368.5t287 141.5q27 0 52 -3.5t37 -7.5l11 -3l-41 -162q-28 8 -57 8q-65 0 -119.5 -51.5t-77.5 -159.5q53 62 129 62q90 0 148.5 -75t58.5 -193q0 -132 -70.5 -218t-191.5 -86q-137 0 -206 106t-69 273zM246 33q0 -94 24 -140.5t64 -46.5 q39 0 57.5 37.5t18.5 87.5q0 55 -19.5 90t-58.5 35q-30 0 -53 -18.5t-33 -44.5z" />
<glyph unicode="&#x2087;" horiz-adv-x="542" d="M47 383v170h463v-158q-9 -14 -23.5 -39.5t-52 -104.5t-66 -158t-52 -189.5t-23.5 -210.5h-191q0 93 20.5 195.5t46 177.5t61 153t52 108t31.5 56h-266z" />
<glyph unicode="&#x2088;" horiz-adv-x="661" d="M55 -84q0 148 144 242q-103 83 -103 198q0 92 62.5 151.5t173.5 59.5t173 -59.5t62 -151.5q0 -117 -104 -198q145 -92 145 -242q0 -107 -72 -172.5t-204 -65.5q-133 0 -205 65.5t-72 172.5zM240 -72q0 -43 25.5 -68.5t66.5 -25.5t66.5 25.5t25.5 68.5q0 86 -92 150 q-92 -64 -92 -150zM262 344q0 -65 68 -111q67 45 67 111q0 29 -17 51.5t-48 22.5q-33 0 -51.5 -22.5t-18.5 -51.5z" />
<glyph unicode="&#x2089;" horiz-adv-x="643" d="M49 264q0 132 69 217.5t193 85.5q135 0 204 -106.5t69 -272.5q2 -227 -108 -368.5t-288 -141.5q-26 0 -51 4t-37 8l-12 3l43 162q24 -9 55 -9q65 0 120 51.5t79 161.5q-50 -63 -131 -63q-90 0 -147.5 75t-57.5 193zM231 274q0 -54 20.5 -89t59.5 -35q30 0 53 19t35 46 q-1 92 -25.5 138t-62.5 46q-40 0 -60 -38t-20 -87z" />
<glyph unicode="&#x208a;" horiz-adv-x="563" d="M51 31v145h158v176h143v-176h160v-145h-160v-178h-143v178h-158z" />
<glyph unicode="&#x208d;" horiz-adv-x="393" d="M80 -174v590q0 64 2 92.5t12.5 68.5t34.5 60.5t67.5 43.5t110.5 42l43 -111q-58 -31 -71 -55.5t-13 -89.5v-692q0 -65 13 -91.5t71 -56.5l-43 -110q-34 9 -61.5 18.5t-49.5 21.5t-38.5 22t-28.5 25.5t-20.5 26.5t-14 31.5t-8.5 33t-4.5 39.5t-1.5 42.5v48.5z" />
<glyph unicode="&#x208e;" horiz-adv-x="395" d="M43 -373q58 31 71 56t13 90v692q0 65 -13 91t-71 56l43 111q34 -9 61.5 -18.5t49.5 -21.5t38.5 -22t28.5 -25.5t20.5 -26.5t14 -31.5t8.5 -33t4.5 -39.5t1.5 -42.5v-48.5v-590q0 -64 -2 -92.5t-12.5 -68.5t-34.5 -60.5t-67.5 -43.5t-110.5 -42z" />
<glyph unicode="&#x20a1;" horiz-adv-x="849" d="M78 719q0 274 100.5 416.5t249.5 142.5l23 -2l24 158h105l-29 -179l33 -10l30 189h107l-37 -236q21 -13 55 -33.5t45 -27.5l-114 -209q-10 6 -43.5 29t-52.5 34.5t-46.5 23t-48.5 11.5q-67 0 -100 -81t-33 -226t33 -227t100 -82q17 0 36 5.5t42.5 19t37 22t41.5 28 t34 23.5l114 -209q-152 -100 -264 -129l-26 -170h-107l25 158q-11 0 -35 4l-25 -162h-104l31 201q-92 57 -146.5 187.5t-54.5 330.5z" />
<glyph unicode="&#x20a4;" horiz-adv-x="894" d="M92 0v207l12 9t29 26.5t39 44t38.5 62.5t31.5 81h-136v148h150q-3 55 -14 100h-136v149h84q-67 165 -67 293q0 159 81 247.5t228 88.5q186 0 397 -172l-133 -186q-125 104 -202 104q-46 0 -71.5 -32.5t-25.5 -90.5q0 -30 7.5 -64.5t15.5 -57.5t25 -66t24 -64h252v-149 h-213q4 -32 8 -100h205v-148h-221q-25 -107 -74 -176h387v-254h-721z" />
<glyph unicode="&#x20a7;" horiz-adv-x="1085" d="M104 907v123h37v404h365q237 0 355.5 -101.5t133.5 -302.5h39v-123h-39q-15 -200 -133 -299.5t-356 -99.5h-90v-508h-275v907h-37zM416 760h96q85 0 137 33t66 114h-299v-147zM416 1030h299q-26 150 -203 150h-96v-150z" />
<glyph unicode="&#x20a9;" horiz-adv-x="1560" d="M80 840v176h88l-80 418h307l58 -418h151l70 418h209l69 -418h152l57 418h309l-81 -418h88v-176h-121l-35 -174h156v-177h-189l-94 -489h-260l-156 930l-155 -930h-261l-94 489h-186v177h154l-35 174h-121zM477 840l45 -322l53 322h-98zM981 840l53 -326l45 326h-98z" />
<glyph unicode="&#x20ac;" horiz-adv-x="1079" d="M66 481v160h81v141h-81v158h94q33 257 140 386.5t269 129.5q59 0 116 -13.5t117 -42.5t103 -54.5t109 -69.5l-123 -223q-19 11 -59.5 36t-61.5 37t-52.5 27.5t-56.5 22t-49 6.5q-128 0 -170 -242h283v-158h-297v-65q0 -51 2 -76h295v-160h-279q43 -229 166 -229 q24 0 49 6.5t56.5 22t52.5 27.5t61.5 37t59.5 36l123 -223q-67 -44 -109.5 -69.5t-102.5 -55t-117 -43t-116 -13.5q-161 0 -267.5 126t-139.5 378h-96z" />
<glyph unicode="&#x2116;" horiz-adv-x="1806" d="M135 0v1434h277l342 -908v908h274v-1434h-278l-340 905v-905h-275zM1094 991q0 205 81.5 314.5t241.5 109.5q161 0 242.5 -109.5t81.5 -314.5q0 -206 -81.5 -315t-242.5 -109q-160 0 -241.5 109t-81.5 315zM1155 303v174h520v-174h-520zM1325 991q0 -115 20.5 -168 t71.5 -53q52 0 72 52.5t20 168.5q0 114 -20 167.5t-72 53.5q-51 0 -71.5 -54t-20.5 -167z" />
<glyph unicode="&#x2117;" horiz-adv-x="1611" d="M76 717q0 156 49 290.5t140 234.5t230.5 157t311.5 57t311 -57t230 -157t139.5 -234.5t48.5 -290.5t-48.5 -290.5t-139.5 -234.5t-230 -157.5t-311 -57.5t-311.5 57.5t-230.5 157.5t-140 234.5t-49 290.5zM154 717q0 -190 74 -339t223.5 -238t353.5 -89q155 0 280 51 t206.5 141.5t125 211.5t43.5 262t-43.5 262t-125 211t-206.5 141t-280 51q-154 0 -278.5 -51t-205 -141t-124 -211t-43.5 -262zM582 285v862h286q299 0 299 -262q0 -264 -299 -264h-190v-336h-96zM678 702h192q92 0 146.5 44t54.5 139q0 180 -201 180h-192v-363z" />
<glyph unicode="&#x2120;" horiz-adv-x="995" d="M82 1024l47 86q76 -45 133 -45q49 0 49 33q0 12 -9 20.5t-22 15t-39 16.5q-4 1 -6 2t-5.5 2.5t-6.5 2.5q-133 55 -133 150q0 58 41.5 96.5t114.5 38.5q80 0 172 -47l-47 -82q-68 33 -109 33q-51 0 -51 -33q0 -6 2 -10.5t6.5 -9t8.5 -7.5t13 -7t15.5 -7t19 -8t21.5 -9 q28 -12 48 -22.5t42.5 -29t34.5 -44t12 -57.5q0 -60 -43.5 -98.5t-116.5 -38.5q-51 0 -104 18t-88 41zM473 975v459h115l92 -246l96 246h115v-459h-111v256l-69 -180h-60l-67 161v-237h-111z" />
<glyph unicode="&#x2122;" horiz-adv-x="993" d="M102 1327v107h322v-107h-107v-352h-108v352h-107zM467 975v459h113l94 -248l96 248h115v-459h-113v250l-67 -174h-60l-67 161v-237h-111z" />
<glyph unicode="&#x2126;" horiz-adv-x="1171" d="M86 760q0 108 14.5 204t50.5 188t91.5 158t143.5 106t200 40t200 -40t142.5 -106t90.5 -158t50 -188t14 -204q0 -191 -54 -326t-124 -180h150v-254h-430v262q96 36 136 152t40 311q0 109 -10 190t-33.5 146.5t-66.5 99t-105 33.5q-50 0 -88.5 -23t-62.5 -63t-39 -100 t-21 -128.5t-6 -154.5q0 -195 41 -310t137 -153v-262h-432v254h149q-69 46 -123.5 180.5t-54.5 325.5z" />
<glyph unicode="&#x2153;" horiz-adv-x="1374" d="M43 1298l184 136h174v-861h-182v672l-98 -71zM299 0l457 1434h196l-458 -1434h-195zM778 94l86 137q103 -71 166 -71q40 0 67 27t27 69q0 33 -17 57t-44 36t-52 17t-50 5h-21v168h27q45 0 88 24t43 72q0 27 -17 46t-51 19q-60 0 -145 -61l-80 123q126 112 262 112 q101 0 158 -59t57 -145q0 -125 -111 -195q62 -27 100 -86.5t38 -140.5q0 -49 -14 -94t-42.5 -83.5t-78.5 -61.5t-115 -23q-145 0 -281 108z" />
<glyph unicode="&#x2154;" horiz-adv-x="1542" d="M68 573v91q0 49 12.5 95.5t28.5 79t46 70t48 56.5t51 51q50 49 71.5 71t44.5 58.5t23 64.5t-18.5 47t-50.5 19q-59 0 -152 -72l-88 127q130 117 266 117q110 0 170 -67.5t60 -163.5q0 -49 -16 -95.5t-47.5 -89.5t-51.5 -65t-54 -56l-10 -10q-57 -53 -82.5 -87t-25.5 -71 h287v-170h-512zM473 0l457 1434h196l-458 -1434h-195zM952 94l86 137q103 -71 166 -71q40 0 67 27t27 69q0 33 -17 57t-44 36t-52 17t-50 5h-21v168h27q45 0 88 24t43 72q0 27 -17 46t-51 19q-60 0 -145 -61l-80 123q126 112 262 112q101 0 158 -59t57 -145 q0 -126 -110 -195q62 -27 99.5 -86.5t37.5 -140.5q0 -49 -14 -94t-42.5 -83.5t-78.5 -61.5t-115 -23q-145 0 -281 108z" />
<glyph unicode="&#x2155;" horiz-adv-x="1392" d="M43 1298l184 136h174v-861h-182v672l-98 -71zM299 0l457 1434h196l-458 -1434h-195zM791 100l88 142q95 -80 153 -80q42 0 69 33t27 86q0 50 -24 85t-74 35q-48 0 -102 -47l-103 64l33 442h432v-170h-274l-4 -133q38 10 69 10q113 0 172.5 -82t59.5 -202 q0 -80 -26 -145.5t-85 -108.5t-143 -43q-85 0 -154 35.5t-114 78.5z" />
<glyph unicode="&#x2156;" horiz-adv-x="1552" d="M66 573v91q0 49 12.5 95.5t28.5 79t46 70t48 56.5t51 51q50 49 71.5 71t44.5 58.5t23 64.5t-18.5 47t-50.5 19q-59 0 -152 -72l-88 127q130 117 266 117q110 0 170 -67.5t60 -163.5q0 -49 -16 -95.5t-47.5 -89.5t-51.5 -65t-54 -56l-10 -10q-57 -53 -82.5 -87t-25.5 -71 h287v-170h-512zM469 0l457 1434h196l-458 -1434h-195zM963 100l88 142q95 -80 153 -80q42 0 69 33t27 86q0 50 -24 85t-74 35q-48 0 -102 -47l-103 64l33 442h432v-170h-274l-4 -133q38 10 69 10q113 0 172.5 -82t59.5 -202q0 -80 -26 -145.5t-85 -108.5t-143 -43 q-85 0 -154 35.5t-114 78.5z" />
<glyph unicode="&#x2157;" horiz-adv-x="1515" d="M57 668l86 137q104 -72 166 -72q40 0 67 27t27 69q0 33 -17 57t-44 36t-52 17t-50 5h-21v168h27q46 0 88.5 24t42.5 72q0 28 -17 47t-51 19q-58 0 -145 -62l-80 123q128 113 262 113q101 0 158 -59.5t57 -145.5q0 -125 -110 -194q62 -27 99.5 -87t37.5 -141 q0 -49 -14 -94t-42.5 -83.5t-78.5 -61.5t-115 -23q-144 0 -281 109zM426 0l457 1434h196l-458 -1434h-195zM920 100l88 142q95 -80 153 -80q42 0 69 33t27 86q0 50 -24 85t-74 35q-48 0 -102 -47l-103 64l33 442h432v-170h-274l-4 -133q38 10 69 10q113 0 172.5 -82 t59.5 -202q0 -80 -26 -145.5t-85 -108.5t-143 -43q-85 0 -154 35.5t-114 78.5z" />
<glyph unicode="&#x2158;" horiz-adv-x="1585" d="M51 733v141l266 560h244v-531h92v-170h-92v-160h-184v160h-326zM217 903h160v336zM496 0l456 1434h197l-459 -1434h-194zM987 100l88 142q95 -80 154 -80q42 0 69 33t27 86q0 50 -24 85t-74 35q-49 0 -103 -47l-102 64l33 442h432v-170h-275l-4 -133q38 10 70 10 q113 0 172 -82t59 -202q0 -80 -26 -145.5t-85 -108.5t-143 -43q-85 0 -154 35.5t-114 78.5z" />
<glyph unicode="&#x2159;" horiz-adv-x="1345" d="M43 1298l184 136h174v-861h-182v672l-98 -71zM299 0l457 1434h196l-458 -1434h-195zM741 365q-1 227 109 368t287 141q27 0 52 -3.5t37 -6.5l11 -4l-41 -162q-28 9 -57 9q-65 0 -119.5 -51.5t-77.5 -159.5q52 61 129 61q90 0 148.5 -75t58.5 -193q0 -132 -70.5 -217.5 t-191.5 -85.5q-137 0 -206 106t-69 273zM928 340q0 -94 24 -140t64 -46q39 0 57.5 37.5t18.5 87.5q0 55 -19.5 89.5t-58.5 34.5q-30 0 -53 -18.5t-33 -44.5z" />
<glyph unicode="&#x215a;" horiz-adv-x="1447" d="M55 674l88 141q95 -80 154 -80q42 0 69 33t27 86q0 50 -24 85.5t-74 35.5q-48 0 -102 -47l-103 63l33 443h432v-170h-274l-5 -134q42 11 70 11q113 0 172.5 -82.5t59.5 -202.5q0 -80 -26 -145.5t-85 -108.5t-143 -43q-85 0 -154.5 36t-114.5 79zM408 0l456 1434h197 l-459 -1434h-194zM850 365q-1 227 108.5 368t286.5 141q27 0 52.5 -3.5t36.5 -6.5l12 -4l-41 -162q-29 9 -58 9q-65 0 -119 -51.5t-77 -159.5q52 61 129 61q90 0 148 -75t58 -193q0 -132 -70.5 -217.5t-191.5 -85.5q-137 0 -205.5 106t-68.5 273zM1036 340q0 -94 24 -140 t64 -46q39 0 57.5 37.5t18.5 87.5q0 55 -19.5 89.5t-58.5 34.5q-30 0 -53 -18.5t-33 -44.5z" />
<glyph unicode="&#x215b;" horiz-adv-x="1382" d="M43 1298l184 136h174v-861h-182v672l-98 -71zM299 0l457 1434h196l-458 -1434h-195zM770 223q0 149 143 242q-102 82 -102 199q0 92 62.5 151t173.5 59t173 -59t62 -151q0 -118 -104 -199q145 -92 145 -242q0 -107 -72 -172t-204 -65q-133 0 -205 65t-72 172zM954 236 q0 -43 26 -69t67 -26t66.5 26t25.5 69q0 85 -92 149q-93 -65 -93 -149zM977 651q0 -65 67 -110q68 46 68 110q0 29 -17 51.5t-48 22.5q-33 0 -51.5 -22.5t-18.5 -51.5z" />
<glyph unicode="&#x215c;" horiz-adv-x="1505" d="M57 668l86 137q104 -72 166 -72q40 0 67 27t27 69q0 33 -17 57t-44 36t-52 17t-50 5h-21v168h27q46 0 88.5 24t42.5 72q0 28 -17 47t-51 19q-58 0 -145 -62l-80 123q128 113 262 113q101 0 158 -59.5t57 -145.5q0 -125 -110 -194q62 -27 99.5 -87t37.5 -141 q0 -49 -14 -94t-42.5 -83.5t-78.5 -61.5t-115 -23q-144 0 -281 109zM426 0l457 1434h196l-458 -1434h-195zM897 223q0 149 143 242q-102 82 -102 199q0 92 62.5 151t173.5 59t173 -59t62 -151q0 -118 -104 -199q145 -92 145 -242q0 -107 -72 -172t-204 -65q-133 0 -205 65 t-72 172zM1081 236q0 -43 26 -69t67 -26t66.5 26t25.5 69q0 85 -92 149q-93 -65 -93 -149zM1104 651q0 -65 67 -110q68 46 68 110q0 29 -17 51.5t-48 22.5q-33 0 -51.5 -22.5t-18.5 -51.5z" />
<glyph unicode="&#x215d;" horiz-adv-x="1486" d="M55 674l88 141q95 -80 154 -80q42 0 69 33t27 86q0 50 -24 85.5t-74 35.5q-48 0 -102 -47l-103 63l33 443h432v-170h-274l-5 -134q42 11 70 11q113 0 172.5 -82.5t59.5 -202.5q0 -80 -26 -145.5t-85 -108.5t-143 -43q-85 0 -154.5 36t-114.5 79zM408 0l456 1434h197 l-459 -1434h-194zM879 223q0 149 143 242q-102 82 -102 199q0 92 62 151t173 59t173.5 -59t62.5 -151q0 -117 -105 -199q146 -93 146 -242q0 -107 -72.5 -172t-204.5 -65q-133 0 -204.5 65t-71.5 172zM1063 236q0 -43 25.5 -69t66.5 -26t66.5 26t25.5 69q0 85 -92 149 q-92 -64 -92 -149zM1085 651q0 -64 68 -110q68 46 68 110q0 29 -17.5 51.5t-48.5 22.5q-33 0 -51.5 -22.5t-18.5 -51.5z" />
<glyph unicode="&#x215e;" horiz-adv-x="1349" d="M57 1264v170h463v-158q-9 -14 -23.5 -39.5t-52 -104.5t-66 -158.5t-52 -190t-23.5 -210.5h-190q0 93 20.5 196t46 178t61 153t52 108t31.5 56h-267zM272 0l457 1434h197l-459 -1434h-195zM743 223q0 148 144 242q-103 83 -103 199q0 92 62.5 151t173.5 59t173 -59 t62 -151q0 -118 -104 -199q145 -92 145 -242q0 -107 -72 -172t-204 -65q-133 0 -205 65t-72 172zM928 236q0 -43 25.5 -69t66.5 -26t66.5 26t25.5 69q0 85 -92 149q-92 -64 -92 -149zM950 651q0 -64 68 -110q67 45 67 110q0 29 -17 51.5t-48 22.5q-33 0 -51.5 -22.5 t-18.5 -51.5z" />
<glyph unicode="&#x2202;" horiz-adv-x="978" d="M68 477q0 222 96.5 360t241.5 138q54 0 98 -15.5t69 -38.5t36 -37t16 -24q-32 139 -121 239.5t-215 100.5q-32 0 -62 -4t-45 -8l-14 -4l-29 227q58 23 156 23q118 0 217.5 -42.5t170.5 -118.5t120.5 -181.5t73.5 -231t24 -266.5q0 -306 -112 -461.5t-318 -155.5 q-188 0 -295.5 135t-107.5 365zM342 475q0 -270 147 -270q148 0 148 270q0 273 -148 273q-147 0 -147 -273z" />
<glyph unicode="&#x2206;" horiz-adv-x="1093" d="M33 0l373 1434h284l371 -1434h-1028zM348 254h395l-196 876z" />
<glyph unicode="&#x220f;" horiz-adv-x="1099" d="M63 1180v254h973v-254h-123v-1180h-272v1180h-182v-1180h-273v1180h-123z" />
<glyph unicode="&#x2211;" horiz-adv-x="919" d="M66 0v145l368 572l-368 573v144h770v-254h-394l303 -463l-303 -463h394v-254h-770z" />
<glyph unicode="&#x2212;" horiz-adv-x="962" d="M113 571v224h735v-224h-735z" />
<glyph unicode="&#x221a;" horiz-adv-x="997" d="M25 696h280l117 -405l297 1143h274l-407 -1434h-318z" />
<glyph unicode="&#x221e;" horiz-adv-x="1337" d="M84 528q0 157 75.5 258t202.5 101q79 0 148.5 -52t161.5 -165q85 110 152.5 163.5t156.5 53.5q123 0 197.5 -101t74.5 -258t-74.5 -257.5t-199.5 -100.5q-85 0 -152.5 49.5t-156.5 163.5q-88 -112 -158 -162.5t-152 -50.5q-125 0 -200.5 100.5t-75.5 257.5zM274 528 q0 -68 35 -114.5t82 -46.5q9 0 18 2t18.5 7.5t17 10.5t17.5 16t17 18.5t19.5 23t19.5 25t21.5 29.5t23.5 31q-36 49 -52.5 70.5t-39.5 47t-41 34t-37 8.5q-50 0 -84.5 -46.5t-34.5 -115.5zM776 528q79 -105 104 -128q34 -33 68 -33q47 0 82 46.5t35 114.5t-35 115t-82 47 q-38 0 -72 -34.5t-100 -127.5z" />
<glyph unicode="&#x222b;" horiz-adv-x="643" d="M47 -125h27q27 0 47 8t31.5 26.5t19 36t10.5 50t3.5 53.5t0.5 60v1191q0 236 85.5 327t299.5 91h25v-168h-27q-26 0 -45.5 -8t-31.5 -26.5t-19 -36t-10 -49.5t-3.5 -53t-0.5 -60v-1192q0 -235 -87 -326.5t-300 -91.5h-25v168z" />
<glyph unicode="&#x2248;" horiz-adv-x="962" d="M113 416q36 122 95.5 193t133.5 71q40 0 82 -21t71.5 -45.5t65 -45.5t64.5 -21q26 0 49.5 23.5t50.5 93.5l123 -58q-38 -128 -92 -196t-135 -68q-43 0 -87 21t-73 45.5t-63 45.5t-62 21q-25 0 -48.5 -24.5t-51.5 -94.5zM113 801q36 122 95 192t134 70q40 0 82 -20.5 t71.5 -45t65 -45t64.5 -20.5q26 0 49.5 23.5t50.5 93.5l123 -60q-36 -122 -95 -192t-132 -70q-39 0 -82 20.5t-73 45t-66 45t-64 20.5q-26 0 -49 -23.5t-51 -93.5z" />
<glyph unicode="&#x2260;" horiz-adv-x="962" d="M113 379v223h249l50 166h-299v223h362l80 275l168 -54l-64 -221h189v-223h-254l-47 -166h301v-223h-365l-77 -273l-170 52l63 221h-186z" />
<glyph unicode="&#x2264;" horiz-adv-x="962" d="M102 0v193h734v-193h-734zM102 625v176l734 381v-254l-478 -217l478 -219v-248z" />
<glyph unicode="&#x2265;" horiz-adv-x="962" d="M125 0v193h733v-193h-733zM125 244v248l477 219l-477 217v254l733 -381v-176z" />
<glyph unicode="&#x2318;" horiz-adv-x="1411" d="M90 367q0 118 84 201t203 83h117v137h-117q-118 0 -202.5 84t-84.5 201q0 118 84 201.5t203 83.5q117 0 201 -83.5t84 -201.5v-117h90v117q0 119 83 202t201 83t201.5 -83t83.5 -202q0 -117 -83.5 -201t-201.5 -84h-116v-137h116q119 0 202 -83t83 -201 q0 -119 -83.5 -202t-201.5 -83t-201 83t-83 202v116h-90v-116q0 -118 -84 -201.5t-201 -83.5q-119 0 -203 83.5t-84 201.5zM258 367q0 -49 34.5 -83t84.5 -34q48 0 82.5 34t34.5 83v116h-117q-49 0 -84 -34.5t-35 -81.5zM258 1073q0 -49 34.5 -83t84.5 -34h117v117 q0 47 -35 82t-82 35q-49 0 -84 -34.5t-35 -82.5zM662 651h90v137h-90v-137zM920 367q0 -50 33.5 -83.5t82.5 -33.5q48 0 82.5 34t34.5 83q0 47 -35 81.5t-82 34.5h-116v-116zM920 956h116q48 0 82.5 34t34.5 83q0 47 -35 82t-82 35q-49 0 -82.5 -34.5t-33.5 -82.5v-117z" />
<glyph unicode="&#x25ca;" horiz-adv-x="903" d="M59 717l260 717h265l260 -717l-260 -717h-265zM305 717l148 -408l147 408l-147 405z" />
<glyph unicode="&#xe000;" horiz-adv-x="1075" d="M0 0v1075h1075v-1075h-1075z" />
<glyph unicode="&#xf639;" horiz-adv-x="1005" d="M66 717q0 739 438 739t438 -739q0 -740 -438 -740q-227 0 -332.5 189t-105.5 551zM342 717q0 -264 36.5 -383t125.5 -119q88 0 125 119.5t37 382.5t-37 381.5t-125 118.5t-125 -118.5t-37 -381.5z" />
<glyph unicode="&#xf63a;" horiz-adv-x="1007" d="M92 0v141q0 80 19 155.5t45 130t69 113.5t75 94t79 83l6.5 6.5l5.5 5.5q108 112 165.5 193t57.5 153q0 57 -31.5 92t-86.5 35q-93 0 -246 -121l-131 195q201 180 416 180q114 0 196.5 -52.5t121 -135t38.5 -183.5q0 -51 -12 -103t-26.5 -91.5t-45 -88.5t-48 -75t-57 -71 t-50.5 -56.5t-48 -50.5q-51 -54 -74.5 -80t-52.5 -66t-40 -75t-11 -74h467v-254h-801z" />
<glyph unicode="&#xf63b;" horiz-adv-x="1005" d="M72 147l131 205q163 -114 264 -114q69 0 113.5 50.5t44.5 133.5q0 59 -27 103.5t-70 67.5t-85.5 33.5t-82.5 10.5h-34v252h41q33 0 69 10.5t70 31.5t56 57.5t22 82.5q0 55 -29.5 91t-89.5 36q-95 0 -227 -102l-123 186q205 174 405 174q160 0 249 -96.5t89 -239.5 q0 -107 -50 -191.5t-132 -137.5q101 -42 163 -144t62 -239q0 -81 -22 -154.5t-67 -137t-124 -101.5t-182 -38q-71 0 -143 18.5t-129 48t-95 54.5t-67 49z" />
<glyph unicode="&#xf63c;" horiz-adv-x="1007" d="M37 276v216l430 942h346v-904h137v-254h-137v-276h-272v276h-504zM274 530h267v580z" />
<glyph unicode="&#xf63d;" horiz-adv-x="1007" d="M82 158l133 211q40 -35 69 -57t81 -47t94 -25q70 0 117 62.5t47 162.5q0 92 -41.5 158.5t-122.5 66.5q-79 0 -170 -80l-152 90l53 734h672v-254h-438l-6 -260q52 18 114 18q120 0 205 -67t123.5 -171.5t38.5 -232.5q0 -98 -24.5 -184.5t-72 -155.5t-126 -109.5 t-178.5 -40.5q-207 0 -416 181z" />
<glyph unicode="&#xf63e;" horiz-adv-x="1007" d="M92 602q0 255 78.5 450t219 299.5t321.5 104.5q42 0 81 -5.5t58 -10.5l18 -6l-63 -240q-43 12 -90 12q-109 0 -200.5 -98t-127.5 -299q82 115 217 115q144 0 235 -125.5t91 -321.5q0 -142 -46.5 -254t-140.5 -179t-221 -67q-87 0 -159 32.5t-121.5 90t-83.5 136.5 t-50 171t-16 195zM369 565q1 -166 42 -252t111 -86q46 0 78 37.5t44.5 88.5t12.5 110q0 98 -34 164.5t-101 66.5q-54 0 -95 -39t-58 -90z" />
<glyph unicode="&#xf63f;" horiz-adv-x="1005" d="M147 1180v254h732v-236q-14 -24 -38 -67t-85 -177.5t-107.5 -269.5t-84.5 -324t-38 -360h-282q0 161 34 340t77.5 311t99 261.5t83.5 182.5t46 85h-437z" />
<glyph unicode="&#xf640;" horiz-adv-x="1005" d="M70 367q0 250 235 407q-172 139 -172 338q0 149 99.5 246.5t269.5 97.5t270 -97.5t100 -246.5q0 -200 -174 -338q238 -159 238 -407q0 -176 -114 -283t-320 -107q-205 0 -318.5 107t-113.5 283zM346 385q0 -79 43 -126.5t113 -47.5q71 0 114 47.5t43 126.5 q0 158 -157 264q-156 -108 -156 -264zM385 1092q0 -123 117 -203q119 81 119 203q0 56 -32 97.5t-87 41.5t-86 -41t-31 -98z" />
<glyph unicode="&#xf641;" horiz-adv-x="1007" d="M76 956q0 142 47 254t141 179t221 67q109 0 192.5 -49.5t134.5 -137t76.5 -198t26.5 -240.5q0 -255 -79 -450t-219 -299.5t-320 -104.5q-43 0 -83 5.5t-58 11.5l-19 6l66 240q41 -13 90 -13q108 0 198.5 97t126.5 299q-81 -113 -215 -113q-144 0 -235.5 125t-91.5 321z M350 971q0 -100 33.5 -166t101.5 -66q53 0 92.5 37t59.5 88q-1 166 -42.5 254t-109.5 88q-46 0 -78 -37t-44.5 -88t-12.5 -110z" />
<glyph unicode="&#xf6c3;" horiz-adv-x="215" d="M4 -532l84 170h-82v245h184l11 -270l-148 -215z" />
<glyph unicode="&#xf6dc;" horiz-adv-x="1007" d="M96 0v254h289v895l-170 -129l-119 184l301 230h262v-1180h289v-254h-852z" />
<glyph unicode="&#xf6df;" horiz-adv-x="559" d="M57 125q0 153 55.5 237t141.5 95v96h127v-113q47 -17 127 -63l-76 -144q-85 56 -117 56q-75 0 -75 -164q0 -168 75 -168q37 0 117 57l76 -143q-93 -54 -127 -66v-112h-127v96q-86 11 -141.5 96t-55.5 240z" />
<glyph unicode="&#xf6e0;" horiz-adv-x="559" d="M57 1221q0 153 55.5 236.5t141.5 94.5v97h127v-113q47 -17 127 -63l-76 -144q-84 55 -117 55q-75 0 -75 -163q0 -168 75 -168q37 0 117 57l76 -143q-93 -54 -127 -66v-113h-127v97q-86 11 -141.5 96t-55.5 240z" />
<glyph unicode="&#xf6e1;" horiz-adv-x="329" d="M72 -446l80 139h-78v219h176l10 -246l-141 -178z" />
<glyph unicode="&#xf6e2;" horiz-adv-x="329" d="M74 649l80 139h-78v220h176l10 -246l-141 -178z" />
<glyph unicode="&#xf6e3;" horiz-adv-x="641" d="M41 -205l88 142q128 -89 197 -89q33 0 54 19t21 51q0 18 -8.5 33.5t-27.5 32.5t-37 29.5t-51 34.5t-54 38q-78 53 -123 111.5t-45 138.5q0 91 54 153t153 74v115h125v-121q89 -17 193 -78l-88 -145q-111 63 -166 63q-33 0 -54.5 -18t-21.5 -49q0 -16 9 -32t30 -34 t36.5 -29.5t49 -33.5t47.5 -31q174 -112 174 -258q0 -86 -55.5 -152t-153.5 -79v-111h-125v119q-114 23 -221 106z" />
<glyph unicode="&#xf6e4;" horiz-adv-x="641" d="M41 891l88 141q127 -88 197 -88q33 0 54 19t21 51q0 18 -8.5 33.5t-27.5 32.5t-37 29.5t-51 34.5t-54 38q-78 53 -123 111.5t-45 138.5q0 91 54 153t153 74v115h125v-121q89 -17 193 -78l-88 -145q-111 63 -166 63q-33 0 -54.5 -18.5t-21.5 -49.5q0 -16 9 -32t30 -33.5 t37 -29t48.5 -33t47.5 -31.5q174 -112 174 -258q0 -87 -55.5 -154t-153.5 -78v-110h-125v116q-120 27 -221 109z" />
<glyph unicode="&#xf6e7;" horiz-adv-x="323" d="M74 -88h176v-219h-176v219z" />
<glyph unicode="&#xf6e8;" horiz-adv-x="327" d="M76 788v220h176v-220h-176z" />
<glyph unicode="&#xf6e9;" horiz-adv-x="614" d="M43 987q0 98 48.5 153.5t129.5 55.5q24 0 48.5 -4.5t57 -14.5t33.5 -10v45q0 46 -15 65t-52 19q-21 0 -47 -6.5t-45 -13t-70 -25.5l-59 135q154 62 262 62q106 0 155.5 -54t49.5 -175v-431h-179v72q-74 -86 -155 -86q-74 0 -118 58.5t-44 154.5zM223 1004 q0 -37 14.5 -56.5t38.5 -19.5q45 0 84 61v80q-40 18 -73 18q-31 0 -47.5 -21.5t-16.5 -61.5z" />
<glyph unicode="&#xf6ea;" horiz-adv-x="641" d="M84 788v895h178v-317q37 41 69 61.5t77 20.5q87 0 134.5 -85.5t47.5 -250.5q0 -166 -47.5 -252t-134.5 -86q-45 0 -76.5 20t-69.5 60v-66h-178zM262 1010q36 -74 82 -74q66 0 66 176q0 174 -66 174q-46 0 -82 -76v-200z" />
<glyph unicode="&#xf6eb;" horiz-adv-x="641" d="M51 1112q0 165 47.5 250.5t134.5 85.5q31 0 59 -13t44.5 -27.5t42.5 -41.5v317h178v-895h-178v66q-38 -40 -69.5 -60t-76.5 -20q-87 0 -134.5 86t-47.5 252zM231 1112q0 -176 66 -176q42 0 82 72v206q-40 72 -82 72q-66 0 -66 -174z" />
<glyph unicode="&#xf6ec;" horiz-adv-x="583" d="M49 1110q0 161 64.5 249.5t183.5 88.5q114 0 174.5 -79.5t60.5 -207.5q0 -24 -2.5 -47t-5.5 -34l-2 -11h-291q6 -145 78 -145q44 0 156 69l70 -119q-143 -100 -250 -100q-104 0 -170 84.5t-66 251.5zM231 1174h138q-2 67 -17 100t-49 33q-66 0 -72 -133z" />
<glyph unicode="&#xf6ed;" horiz-adv-x="344" d="M80 1516v165h184v-165h-184zM82 788v646h180v-646h-180z" />
<glyph unicode="&#xf6ee;" horiz-adv-x="344" d="M82 788v895h180v-895h-180z" />
<glyph unicode="&#xf6ef;" horiz-adv-x="921" d="M84 788v646h180v-78q69 92 152 92q48 0 80.5 -29.5t46.5 -79.5q75 109 166 109q64 0 99.5 -50t35.5 -138v-472h-180v416q0 44 -7 66t-28 22q-44 0 -76 -69v-435h-178v416q0 43 -8 65.5t-31 22.5q-41 0 -72 -67v-437h-180z" />
<glyph unicode="&#xf6f0;" horiz-adv-x="614" d="M47 1112q0 161 65.5 248.5t194.5 87.5q130 0 194 -87.5t64 -250.5t-64 -249.5t-194 -86.5q-129 0 -194.5 87.5t-65.5 250.5zM229 1112q0 -93 17 -138.5t61 -45.5q42 0 60 45.5t18 136.5t-18 137.5t-60 46.5q-43 0 -60.5 -45.5t-17.5 -136.5z" />
<glyph unicode="&#xf6f1;" horiz-adv-x="462" d="M84 788v646h178v-136q5 16 11.5 31t21 38t32 39.5t45.5 27.5t60 8v-191q-43 0 -76.5 -21t-50.5 -51t-27.5 -60t-13.5 -51l-2 -21v-259h-178z" />
<glyph unicode="&#xf6f2;" horiz-adv-x="552" d="M43 860l70 125q36 -23 86 -44t82 -21q21 0 35 12t14 35q0 18 -13.5 31.5t-28 20.5t-55.5 25q-38 17 -63.5 31.5t-56 39t-46.5 59.5t-16 79q0 82 55 138.5t152 56.5q113 0 231 -72l-65 -116q-96 47 -139 47q-52 0 -52 -45q0 -10 4.5 -18.5t10 -14.5t17.5 -13t19 -10.5 t23.5 -10t22.5 -9.5q38 -16 66.5 -33t56.5 -42.5t43.5 -61.5t15.5 -80q0 -85 -55 -140t-154 -55q-68 0 -140.5 26.5t-119.5 59.5z" />
<glyph unicode="&#xf6f3;" horiz-adv-x="462" d="M37 1286v148h63v145l179 41v-186h124v-148h-124v-278q0 -37 8 -48.5t22 -11.5t64 25l59 -144q-102 -55 -172 -55q-84 0 -122 53.5t-38 165.5v293h-63z" />
<glyph unicode="&#xf8ff;" horiz-adv-x="1677" d="M107.5 560.5q-2.5 11.5 15.5 21.5l57 41q3 2 13 12q19 16 36 -12l33 -64q6 -12 13.5 -15.5t14 2t9.5 17.5l18 70q4 19 18.5 21t26.5 -13l48 -53q14 -15 23 -11.5t11 23.5l5 70q3 20 15.5 25t27.5 -7l57 -43q17 -12 26 -6.5t5 25.5l-9 69q-3 20 8.5 28t28.5 -1l64 -29 q19 -9 26.5 -1.5t1.5 26.5l-22 67q-8 19 1 29t28 4l14 -2q40 -77 70 -202.5t30 -217.5q-15 -18 -34.5 -27.5t-59.5 -9.5h-8q0 46 -33 72q19 -22 19 -55v-15q-33 3 -33 39q0 43 -28 72t-77 29q-41 0 -68.5 -32t-27.5 -79q0 -60 49.5 -96.5t138.5 -36.5q85 0 172 42t156.5 112 t125 154.5t86 175.5t30.5 169q0 59 -36.5 98t-94.5 39q-48 0 -85.5 -33.5t-37.5 -84.5q0 -106 119 -119q-29 -119 -60 -174q-12 96 -43.5 178t-75.5 129q91 -120 107 -330l-29 -41q0 156 -51 287t-131 172q-5 9 2.5 18.5t22.5 12.5l69 12q19 3 21 13.5t-15 21.5l-59 39 q-15 13 -13.5 26.5t19.5 20.5l64 29q14 4 19 10t0 13t-19 13l-64 27q-23 10 -20 29q11 6 14 16l35 62q9 19 20.5 18t16.5 -20l20 -68q6 -21 18.5 -24t26.5 14l47 53q12 15 23 12.5t12 -22.5l4 -72q1 -21 14.5 -26t28.5 8l58 43q15 12 23.5 6t6.5 -27l-10 -70 q-1 -20 10.5 -27.5t28.5 1.5l63 33q19 8 26.5 0t0.5 -29l-22 -64q-6 -20 2.5 -30t27.5 -4l70 14q20 6 26.5 -2t-4.5 -27l-36 -59q-12 -17 -6 -29.5t26 -11.5l72 4q21 0 25 -11t-9 -24l-49 -53q-14 -13 -10.5 -26.5t24.5 -16.5l70 -12q43 -10 6 -39l-57 -39q-16 -10 -15 -24 t21 -21l63 -27q12 -5 16.5 -12t0 -13.5t-16.5 -11.5l-63 -26q-20 -7 -21 -22t15 -25l57 -41q11 -7 14.5 -14.5t-2 -13.5t-18.5 -9l-70 -13q-21 -3 -24.5 -16.5t10.5 -28.5l49 -49q13 -14 9 -24.5t-25 -10.5l-72 5q-20 0 -26 -12t6 -29l36 -62q10 -17 4 -25.5t-26 -5.5 l-70 19q-19 4 -27.5 -6t-2.5 -29l22 -68q8 -19 0 -26t-27 2l-63 31q-17 9 -28.5 1t-10.5 -30l10 -68q1 -21 -7 -25.5t-23 7.5l-58 43q-15 12 -28.5 5.5t-14.5 -26.5l-4 -69q-1 -20 -12 -23t-23 11l-47 55q-13 14 -26 12t-19 -22l-20 -68q-3 -13 -9.5 -18t-14 -1t-13.5 15 l-35 61q-9 19 -22 19t-25 -19l-31 -61q-6 -11 -13.5 -15t-14 1t-9.5 18l-20 68q-6 20 -19 22t-26 -12l-47 -55q-12 -14 -22 -11t-13 23l-4 69q-2 20 -15 26.5t-30 -5.5l-54 -43q-17 -13 -26.5 -8t-5.5 26l10 68q1 22 -10.5 30t-30.5 -1l-62 -31q-19 -9 -26.5 -2t0.5 26 l22 68q7 19 -2 29.5t-28 5.5l-70 -19q-20 -3 -26 5.5t4 25.5l38 62q11 17 4.5 29t-26.5 12l-72 -5q-21 0 -25 10.5t9 24.5l51 49q13 15 9 28.5t-25 16.5l-68 13q-21 4 -23.5 15.5zM584 281q44 -27 123 -27q106 0 212.5 65t183.5 162t125 212t48 214q0 63 -41 101 q25 -39 25 -84q0 -99 -47.5 -214.5t-127.5 -215.5q-85 -105 -188.5 -168.5t-212.5 -63.5q-57 0 -100 19z" />
<glyph unicode="&#xfb06;" horiz-adv-x="1486" d="M49 117l111 198q64 -43 140.5 -76.5t125.5 -33.5q34 0 59 20t25 58q0 27 -11.5 48.5t-38 40.5t-48.5 31t-64 31q-47 22 -78.5 39.5t-74.5 49.5t-68.5 65.5t-44.5 85t-19 110.5q0 135 84 224.5t234 89.5q74 0 170 -29q-14 49 -14 111q0 142 85 227.5t240 85.5 q171 0 269 -104.5t98 -290.5v-23h198v-217h-198v-522q0 -103 51 -103q8 0 17.5 2t17 4.5t19 8.5t17 8.5t19 10t16.5 9.5l89 -213q-158 -86 -267 -86q-126 0 -183.5 81t-57.5 255v545h-101v217h101v45q0 118 -34 179t-116 61q-75 0 -120.5 -54.5t-45.5 -150.5q0 -74 29 -137 q27 -13 63 -37l-108 -190q-138 79 -221 79q-37 0 -61.5 -20t-24.5 -57q0 -14 4.5 -26.5t9 -22t17 -20t20 -16.5t25.5 -15.5t25.5 -13t29.5 -13.5t28 -13q60 -28 107 -58.5t91 -74.5t68.5 -103t24.5 -130q0 -135 -86.5 -222.5t-238.5 -87.5q-107 0 -219.5 42.5t-184.5 97.5z " />
<glyph horiz-adv-x="645" d="M49 1145q0 132 69 217.5t193 85.5q135 0 204 -106.5t69 -272.5q2 -227 -108 -368.5t-288 -141.5q-26 0 -51 3.5t-37 7.5l-12 3l43 162q24 -8 55 -8q65 0 120 51.5t79 161.5q-50 -63 -131 -63q-90 0 -147.5 75t-57.5 193zM231 1155q0 -54 20.5 -89.5t59.5 -35.5 q30 0 53 19.5t35 46.5q-1 92 -25.5 138t-62.5 46q-40 0 -60 -38t-20 -87z" />
<glyph horiz-adv-x="940" d="M39 1432q0 108 44 169.5t136 61.5q93 0 137.5 -61.5t44.5 -169.5t-44.5 -169t-137.5 -61q-92 0 -136 61t-44 169zM168 1432q0 -55 11 -83t40 -28q30 0 41.5 27.5t11.5 83.5t-11 82t-42 26q-29 0 -40 -26t-11 -82zM244 788l313 861h135l-313 -861h-135zM537 1006 q0 107 44 168t136 61q93 0 137.5 -60.5t44.5 -168.5t-44.5 -170t-137.5 -62q-92 0 -136 62t-44 170zM666 1006q0 -57 11 -84t40 -27q31 0 42 27t11 84q0 55 -11.5 81.5t-41.5 26.5q-29 0 -40 -26.5t-11 -81.5z" />
<glyph horiz-adv-x="2019" d="M45 858v217h100v35q0 188 64.5 275.5t202.5 87.5q140 0 336 -78q62 98 208 98q122 0 263 -53v53h264v-819l190 401h299l-262 -428l303 -647h-276l-176 403l-78 -129v-274h-264v1196q-140 43 -193 43q-72 0 -72 -100v-64h172v-217h-172v-858h-264v858h-280v-858h-265v858 h-100zM410 1075h280v101q-159 43 -209 43q-71 0 -71 -101v-43z" />
<glyph horiz-adv-x="1587" d="M45 858v217h100v35q0 188 64.5 275.5t202.5 87.5q140 0 336 -78q62 98 208 98q118 0 265 -55v55h264v-1493h-264v1196q-133 43 -195 43q-72 0 -72 -100v-64h172v-217h-172v-858h-264v858h-280v-858h-265v858h-100zM410 1075h280v101q-159 43 -209 43q-71 0 -71 -101v-43z " />
<glyph horiz-adv-x="1746" d="M45 858v217h100v35q0 188 64.5 275.5t202.5 87.5t329 -76q60 96 195 96q118 0 272 -84l-88 -211q-74 41 -112 41q-56 0 -56 -100v-64h275v244l262 67v-311h199v-217h-199v-522q0 -103 51 -103q28 0 107 43l90 -213q-158 -86 -269 -86q-126 0 -183.5 81t-57.5 255v545 h-275v-858h-264v858h-278v-858h-265v858h-100zM410 1075h278v101q-140 43 -207 43q-71 0 -71 -101v-43z" />
<glyph horiz-adv-x="1533" d="M45 858v217h100v55q0 188 64.5 275.5t202.5 87.5q121 0 262 -53v53h264v-549q44 41 64 57.5t60 45t79.5 40t83.5 11.5q104 0 159.5 -80.5t55.5 -222.5v-795h-264v741q0 127 -72 127q-81 0 -166 -139v-729h-264v1196q-140 43 -193 43q-71 0 -71 -100v-64h172v-217h-172 v-858h-265v858h-100z" />
<glyph horiz-adv-x="1536" d="M45 858v217h100v35q0 188 64.5 275.5t202.5 87.5q142 0 338 -78q67 98 219 98q165 0 366 -84l-82 -213q-168 43 -215 43q-84 0 -84 -100v-64h484v-1075h-264v858h-220v-858h-264v858h-280v-858h-265v858h-100zM410 1075h280v101q-159 43 -209 43q-71 0 -71 -101v-43z" />
<glyph horiz-adv-x="991" d="M45 858v217h100v55q0 188 67 275.5t212 87.5q163 0 369 -84l-84 -213q-168 43 -213 43q-86 0 -86 -100v-64h481v-1075h-264v858h-217v-858h-265v858h-100z" />
<glyph horiz-adv-x="991" d="M45 858v217h100v55q0 188 67 275.5t212 87.5q163 0 369 -84l-84 -213q-168 43 -213 43q-86 0 -86 -100v-64h481v-1046q0 -66 -0.5 -96.5t-4.5 -80.5t-13 -73t-25 -59t-40.5 -55.5t-60.5 -44.5t-85 -43.5t-113 -37.5l-84 213q43 21 69.5 35.5t46 33.5t28.5 31t14 40 t5.5 47.5t0.5 66.5v852h-219v-858h-265v858h-100z" />
<glyph horiz-adv-x="1474" d="M45 858v217h100v55q0 188 64.5 275.5t202.5 87.5q121 0 262 -53v53h264v-819l190 401h299l-262 -428l303 -647h-276l-176 403l-78 -129v-274h-264v1196q-140 43 -193 43q-71 0 -71 -100v-64h172v-217h-172v-858h-265v858h-100z" />
<glyph horiz-adv-x="2078" d="M45 858v217h100v35q0 188 64.5 275.5t202.5 87.5q140 0 336 -78q62 98 208 98q122 0 263 -53v53h264v-549q45 42 64 58t59.5 44.5t79.5 40t83 11.5q104 0 160 -80.5t56 -222.5v-795h-265v741q0 127 -71 127q-81 0 -166 -139v-729h-264v1196q-140 43 -193 43 q-72 0 -72 -100v-64h172v-217h-172v-858h-264v858h-280v-858h-265v858h-100zM410 1075h280v101q-159 43 -209 43q-71 0 -71 -101v-43z" />
<glyph horiz-adv-x="1040" d="M45 858v217h100v55q0 188 64.5 275.5t202.5 87.5q121 0 262 -53v53h264v-1493h-264v1196q-140 43 -193 43q-71 0 -71 -100v-64h172v-217h-172v-858h-265v858h-100z" />
<glyph horiz-adv-x="1202" d="M45 858v217h100v55q0 187 59 275t185 88q123 0 277 -84l-91 -211q-74 41 -110 41q-55 0 -55 -100v-64h272v244l262 67v-311h199v-217h-199v-522q0 -103 51 -103q28 0 107 43l90 -213q-158 -86 -268 -86q-126 0 -184 81t-58 255v545h-272v-858h-265v858h-100z" />
<glyph horiz-adv-x="421" d="M47 190v148h62v16q0 120 36 177t117 57q75 0 184 -53l-61 -140q-53 23 -68 23q-30 0 -30 -51v-29h106v-148h-106v-497h-178v497h-62z" />
<glyph horiz-adv-x="978" d="M102 410v766h254v-791q0 -78 27.5 -120t105.5 -42t107 42.5t29 119.5v791h252v-766q0 -76 -9 -135.5t-35 -116.5t-68 -94t-112 -59.5t-164 -22.5t-163.5 22.5t-112 59.5t-68 94t-34.5 116.5t-9 135.5zM324 1262l176 282h284l-245 -282h-215z" />
<glyph horiz-adv-x="626" d="M43 100l88 142q95 -80 154 -80q42 0 69 33t27 86q0 50 -24 85t-74 35q-49 0 -103 -47l-102 64l33 442h432v-170h-275l-4 -133q38 10 70 10q113 0 172 -82t59 -202q0 -80 -26 -145.5t-85 -108.5t-143 -43q-85 0 -154 35.5t-114 78.5z" />
<glyph horiz-adv-x="626" d="M43 674l88 141q95 -80 154 -80q42 0 69 33t27 86q0 50 -24 85.5t-74 35.5q-49 0 -103 -47l-102 63l33 443h432v-170h-275l-4 -134q42 11 70 11q113 0 172 -82.5t59 -202.5q0 -80 -26 -145.5t-85 -108.5t-143 -43q-85 0 -154 36t-114 79z" />
<glyph horiz-adv-x="927" d="M43 -100l133 211q40 -35 69 -57t81 -47t94 -25q70 0 117 62.5t47 162.5q0 92 -41.5 158.5t-122.5 66.5q-79 0 -170 -80l-152 90l54 734h671v-254h-438l-6 -260q53 18 115 18q91 0 162.5 -38.5t115 -104.5t66 -149.5t22.5 -178.5q0 -98 -24.5 -184.5t-72 -155.5 t-126 -109.5t-178.5 -40.5q-207 0 -416 181z" />
<glyph horiz-adv-x="2076" d="M45 858v217h100v35q0 188 64.5 275.5t202.5 87.5q140 0 336 -78q62 98 208 98q122 0 263 -53v53h264v-539q57 69 111 106.5t126 37.5q136 0 213.5 -141.5t77.5 -417.5q0 -277 -77.5 -419.5t-213.5 -142.5q-72 0 -125 36.5t-112 103.5v-117h-264v1196q-140 43 -193 43 q-72 0 -72 -100v-64h172v-217h-172v-858h-264v858h-280v-858h-265v858h-100zM410 1075h280v101q-159 43 -209 43q-71 0 -71 -101v-43zM1483 350q30 -66 68 -100.5t77 -34.5q117 0 117 324q0 321 -117 321q-38 0 -76 -35.5t-69 -101.5v-373z" />
<glyph horiz-adv-x="1284" d="M57 551l72 113q74 -64 133 -64q39 0 63.5 27.5t24.5 72.5q0 42 -22 71.5t-68 29.5t-92 -39l-82 51l29 363h364v-136h-237l-4 -114q27 8 63 8q96 0 147.5 -67t51.5 -165q0 -103 -55.5 -173t-161.5 -70q-122 0 -226 92zM360 0l402 1176h158l-400 -1176h-160zM758 182 q0 124 127 199q-92 66 -92 164q0 74 53.5 123t146.5 49t147 -49t54 -123q0 -94 -94 -162q129 -76 129 -201q0 -87 -63 -140.5t-173 -53.5q-112 0 -173.5 53.5t-61.5 140.5zM907 193q0 -36 23.5 -58t62.5 -22t62.5 22t23.5 58q0 70 -88 126q-84 -55 -84 -126zM928 535 q0 -59 63 -97q64 37 64 97q0 25 -16.5 43t-45.5 18q-31 0 -48 -18t-17 -43z" />
<glyph horiz-adv-x="1251" d="M55 551l72 113q79 -64 133 -64q39 0 64.5 27.5t25.5 72.5q0 41 -23 71t-67 30q-46 0 -92 -39l-82 51l27 363h366v-136h-239l-4 -116q33 10 65 10q96 0 147.5 -67t51.5 -165q0 -103 -55.5 -173t-161.5 -70q-118 0 -228 92zM360 0l400 1176h160l-402 -1176h-158zM733 297 q-1 186 93 303t243 117q23 0 44.5 -3t31.5 -6l10 -3l-35 -130q-22 7 -49 7q-58 0 -107 -43.5t-69 -135.5q45 52 115 52q80 0 130 -61t50 -158q0 -108 -60 -178t-163 -70q-78 0 -132 43t-78 111t-24 155zM883 274q3 -151 84 -151q38 0 55.5 31t17.5 73q0 47 -18 77t-55 30 q-30 0 -52.5 -18.5t-31.5 -41.5z" />
<glyph horiz-adv-x="1157" d="M45 858v217h100v35q0 188 64.5 275.5t202.5 87.5t329 -76q57 96 181 96q117 0 288 -84l-92 -205q-88 35 -114 35q-50 0 -50 -88v-76h172v-217h-172v-858h-264v858h-280v-858h-265v858h-100zM410 1075h280v101q-159 43 -209 43q-71 0 -71 -101v-43z" />
<glyph horiz-adv-x="978" d="M102 410v766h254v-791q0 -78 27.5 -120t105.5 -42t107 42.5t29 119.5v791h252v-766q0 -76 -9 -135.5t-35 -116.5t-68 -94t-112 -59.5t-164 -22.5t-163.5 22.5t-112 59.5t-68 94t-34.5 116.5t-9 135.5z" />
<glyph horiz-adv-x="598" d="M35 1473v176h526v-176h-168v-685h-186v685h-172z" />
<glyph horiz-adv-x="690" d="M41 160v141l266 559h244v-530h92v-170h-92v-160h-184v160h-326zM207 330h160v336z" />
<glyph horiz-adv-x="690" d="M41 733v141l266 560h244v-531h92v-170h-92v-160h-184v160h-326zM207 903h160v336z" />
<glyph horiz-adv-x="1032" d="M39 18v215l430 943h365v-904h147v-254h-147v-276h-275v276h-520zM281 272h278v607z" />
<glyph horiz-adv-x="1224" d="M45 858v217h100v55q0 186 56 274.5t176 88.5q118 0 289 -84l-93 -205q-87 35 -114 35q-49 0 -49 -88v-76h172v-217h-172v-858h-265v858h-100zM657 858v217h101v55q0 187 55.5 275t175.5 88q97 0 232 -66l-58 -219q-60 31 -92 31q-49 0 -49 -88v-76h172v-217h-172v-858 h-264v858h-101z" />
<glyph horiz-adv-x="1361" d="M51 602v113l238 461h194v-439h82v-135h-82v-131h-147v131h-285zM186 737h150v293zM434 0l402 1176h155l-399 -1176h-158zM850 80l70 115q77 -66 133 -66q40 0 66 28t26 72q0 42 -23.5 72.5t-66.5 30.5q-48 0 -94 -39l-82 49l28 363h365v-136h-240l-4 -116q33 10 66 10 q96 0 148 -66.5t52 -163.5q0 -104 -56 -174.5t-163 -70.5q-108 0 -225 92z" />
<glyph horiz-adv-x="1529" d="M45 858v217h100v55q0 188 64.5 275.5t202.5 87.5q121 0 262 -53v53h264v-539q57 69 111.5 106.5t126.5 37.5q136 0 213 -141.5t77 -417.5q0 -277 -77 -419.5t-213 -142.5q-72 0 -125.5 36.5t-112.5 103.5v-117h-264v1196q-140 43 -193 43q-71 0 -71 -100v-64h172v-217 h-172v-858h-265v858h-100zM938 350q30 -66 68 -100.5t77 -34.5q117 0 117 324q0 321 -117 321q-38 0 -76 -35.5t-69 -101.5v-373z" />
<glyph horiz-adv-x="612" d="M45 858v217h100v55q0 186 56 274.5t176 88.5q96 0 231 -66l-57 -219q-60 31 -92 31q-49 0 -49 -88v-76h172v-217h-172v-858h-265v858h-100z" />
<glyph horiz-adv-x="968" d="M74 219v174h98v1041h741v-260h-467v-330h367v-256h-367v-195h254v-174h-254v-219h-274v219h-98z" />
<glyph horiz-adv-x="870" d="M74 168v158h86v850h655v-240h-403v-234h315v-231h-315v-145h219v-158h-219v-168h-252v168h-86z" />
<glyph horiz-adv-x="636" d="M55 -70h64v623h473v-176h-287v-168h225v-174h-225v-105h156v-114h-156v-123h-186v123h-64v114z" />
<glyph horiz-adv-x="638" d="M55 911v115h64v623h473v-176h-287v-168h225v-175h-225v-104h158v-115h-158v-123h-186v123h-64z" />
<glyph horiz-adv-x="421" d="M47 1286v148h62v16q0 120 36 176.5t117 56.5q75 0 184 -53l-61 -139q-51 22 -68 22q-30 0 -30 -51v-28h106v-148h-106v-498h-178v498h-62z" />
<glyph horiz-adv-x="598" d="M35 377v176h526v-176h-168v-684h-186v684h-172z" />
<glyph horiz-adv-x="925" d="M113 0v1176h252v-183h69q436 0 436 -385q0 -190 -105 -288.5t-331 -98.5h-69v-221h-252zM365 453h75q84 0 129 34t45 121q0 85 -44.5 117.5t-129.5 32.5h-75v-305z" />
<glyph horiz-adv-x="802" d="M39 936v240h725v-240h-234v-936h-67q51 -89 51 -186q0 -93 -48.5 -141t-121.5 -48q-77 0 -133 45l49 146q36 -25 64 -25q27 0 44 19t17 59q0 49 -35 131h-74v936h-237z" />
<glyph horiz-adv-x="802" d="M39 936v240h725v-240h-234v-936h-254v936h-237zM127 1544h176l98 -151l99 151h178l-156 -282h-241z" />
<glyph horiz-adv-x="813" d="M45 936v240h725v-240h-233v-430h98v-156h-98v-350h-254v350h-103v156h103v430h-238z" />
<glyph horiz-adv-x="768" d="M84 276q0 72 13.5 126.5t44 99t87.5 67.5t138 23q147 0 215.5 -67.5t68.5 -164.5q0 -36 -9.5 -67t-18.5 -44l-9 -13q-30 -9 -58 -28.5t-28 -49.5q0 -20 15 -35t47 -37.5t55 -46.5q76 -73 76 -164q0 -85 -53 -141t-144 -56q-99 0 -221 64l66 125q83 -45 123 -45 q23 0 37 12t14 35q0 17 -8.5 28.5t-34.5 34.5l-30 20q-29 19 -40.5 30t-32.5 35t-30 53.5t-9 66.5q0 42 13 76t34 55.5t38 33.5t34 20q2 8 2 26q0 44 -24.5 71t-79.5 27q-60 0 -85.5 -40.5t-25.5 -141.5v-571h-180v583z" />
<glyph horiz-adv-x="768" d="M84 788v584q0 72 13.5 126.5t44 99t87.5 67.5t138 23q147 0 215.5 -67.5t68.5 -164.5q0 -36 -9.5 -67.5t-18.5 -44.5l-9 -13q-30 -9 -58 -28.5t-28 -49.5q0 -20 15 -34.5t47 -37t55 -46.5q76 -73 76 -164q0 -85 -53 -141t-144 -56q-99 0 -221 64l66 125q83 -45 123 -45 q23 0 37 12t14 35q0 17 -8.5 28.5t-34.5 34.5l-30 20q-29 19 -40.5 30t-32.5 35t-30 53.5t-9 66.5q0 42 13 76t34 55.5t37.5 33t34.5 19.5q2 8 2 27q0 44 -24.5 71t-79.5 27q-60 0 -85.5 -40.5t-25.5 -141.5v-572h-180z" />
<glyph horiz-adv-x="641" d="M51 16q0 165 47.5 250.5t134.5 85.5q31 0 59 -13t44.5 -27.5t42.5 -41.5v68h178v-653q0 -133 -51 -193.5t-168 -60.5q-130 0 -268 51l45 149q115 -47 184 -47q44 0 62 24t18 73v77q-38 -40 -69.5 -60t-76.5 -20q-87 0 -134.5 86t-47.5 252zM231 16q0 -176 66 -176 q42 0 82 72v207q-39 71 -82 71q-66 0 -66 -174z" />
<glyph horiz-adv-x="802" d="M39 936v240h725v-240h-234v-936h-254v936h-237z" />
<glyph horiz-adv-x="655" d="M49 891l88 141q127 -88 197 -88q33 0 54.5 19t21.5 51q0 18 -8.5 33.5t-28 32.5t-37.5 29.5t-50.5 34.5t-54.5 38q-78 53 -123 111.5t-45 138.5q0 101 66 166t184 65q128 0 275 -88l-88 -145q-111 63 -166 63q-33 0 -54.5 -18.5t-21.5 -49.5q0 -16 9 -32t30 -33.5t37 -29 t48.5 -33t47.5 -31.5q174 -112 174 -258q0 -96 -66 -165t-184 -69q-83 0 -163 34t-142 83z" />
<glyph horiz-adv-x="978" d="M102 410v766h254v-791q0 -78 27.5 -120t105.5 -42t107 42.5t29 119.5v791h252v-766q0 -76 -9 -135.5t-35 -116.5t-68 -94t-112 -59.5t-164 -22.5t-163.5 22.5t-112 59.5t-68 94t-34.5 116.5t-9 135.5zM238 1513h155q0 -42 25.5 -66t68.5 -24q45 0 72 24t27 66h155 q0 -117 -67 -184t-187 -67q-118 0 -183.5 66.5t-65.5 184.5z" />
<glyph horiz-adv-x="641" d="M51 1112q0 165 47.5 250.5t134.5 85.5q31 0 59 -13t44.5 -27.5t42.5 -41.5v68h178v-654q0 -133 -51 -193.5t-168 -60.5q-127 0 -268 52l45 149q115 -47 184 -47q44 0 62 23.5t18 72.5v78q-38 -40 -69.5 -60t-76.5 -20q-87 0 -134.5 86t-47.5 252zM231 1112 q0 -176 66 -176q42 0 82 72v206q-40 72 -82 72q-66 0 -66 -174z" />
<glyph horiz-adv-x="655" d="M49 -205l88 142q128 -89 197 -89q33 0 54.5 19t21.5 51q0 18 -8.5 33.5t-28 32.5t-37.5 29.5t-50.5 34.5t-54.5 38q-78 53 -123 111.5t-45 138.5q0 101 66 166t184 65q128 0 275 -88l-88 -145q-111 63 -166 63q-33 0 -54.5 -18t-21.5 -49q0 -16 9 -32t30 -34t36.5 -29.5 t49 -33.5t47.5 -31q174 -112 174 -258q0 -96 -66 -165t-184 -69q-83 0 -163 34t-142 83z" />
<glyph horiz-adv-x="874" d="M53 139l119 193q183 -117 277 -117q45 0 74.5 25.5t29.5 70.5q0 25 -11 46t-37 43.5t-50.5 39t-72 46.5t-79.5 53q-50 34 -85.5 64t-71 71.5t-54 92.5t-18.5 110q0 137 91.5 227t252.5 90q189 0 379 -121l-121 -196q-160 84 -234 84q-44 0 -73 -25.5t-29 -69.5 q0 -23 10.5 -43t38.5 -43.5t48 -37.5t69.5 -45t71.5 -46q50 -33 87 -64t75 -74t58.5 -96.5t20.5 -113.5q0 -134 -92 -227.5t-254 -93.5q-114 0 -225 46t-195 111zM354 -532l84 170h-82v245h185l10 -270l-148 -215z" />
<glyph horiz-adv-x="372" d="M78 1649h217l-55 -576h-107zM98 788v201h176v-201h-176z" />
<glyph horiz-adv-x="372" d="M78 553h217l-55 -576h-107zM98 -106h176v-201h-176v201z" />
<glyph horiz-adv-x="874" d="M53 139l119 193q183 -117 277 -117q45 0 74.5 25.5t29.5 70.5q0 25 -11 46t-37 43.5t-50.5 39t-72 46.5t-79.5 53q-50 34 -85.5 64t-71 71.5t-54 92.5t-18.5 110q0 137 91.5 227t252.5 90q189 0 379 -121l-121 -196q-160 84 -234 84q-44 0 -73 -25.5t-29 -69.5 q0 -23 10.5 -43t38.5 -43.5t48 -37.5t69.5 -45t71.5 -46q50 -33 87 -64t75 -74t58.5 -96.5t20.5 -113.5q0 -134 -92 -227.5t-254 -93.5q-114 0 -225 46t-195 111zM164 1262l153 282h242l156 -282h-178l-99 153l-98 -153h-176z" />
<glyph horiz-adv-x="874" d="M53 139l119 193q183 -117 277 -117q45 0 74.5 25.5t29.5 70.5q0 25 -11 46t-37 43.5t-50.5 39t-72 46.5t-79.5 53q-50 34 -85.5 64t-71 71.5t-54 92.5t-18.5 110q0 137 91.5 227t252.5 90q189 0 379 -121l-121 -196q-160 84 -234 84q-44 0 -73 -25.5t-29 -69.5 q0 -23 10.5 -43t38.5 -43.5t48 -37.5t69.5 -45t71.5 -46q50 -33 87 -64t75 -74t58.5 -96.5t20.5 -113.5q0 -118 -72 -206t-202 -109q45 -93 45 -174q0 -93 -48.5 -141t-121.5 -48q-77 0 -133 45l49 146q36 -25 63 -25t44.5 19t17.5 59q0 42 -27 115q-105 7 -204.5 51.5 t-176.5 103.5z" />
<glyph horiz-adv-x="651" d="M84 -307v895h178v-326q33 30 52 45t53.5 30t70.5 15q66 0 100.5 -49t34.5 -139v-471h-178v434q0 70 -41 70q-28 0 -53.5 -25t-38.5 -51v-428h-178z" />
<glyph horiz-adv-x="874" d="M53 139l119 193q183 -117 277 -117q45 0 74.5 25.5t29.5 70.5q0 25 -11 46t-37 43.5t-50.5 39t-72 46.5t-79.5 53q-50 34 -85.5 64t-71 71.5t-54 92.5t-18.5 110q0 137 91.5 227t252.5 90q189 0 379 -121l-121 -196q-160 84 -234 84q-44 0 -73 -25.5t-29 -69.5 q0 -23 10.5 -43t38.5 -43.5t48 -37.5t69.5 -45t71.5 -46q50 -33 87 -64t75 -74t58.5 -96.5t20.5 -113.5q0 -134 -92 -227.5t-254 -93.5q-114 0 -225 46t-195 111zM164 1544h176l98 -151l99 151h178l-156 -282h-242z" />
<glyph horiz-adv-x="372" d="M78 788l55 576h107l55 -576h-217zM98 1448v201h176v-201h-176z" />
<glyph horiz-adv-x="874" d="M53 139l119 193q183 -117 277 -117q45 0 74.5 25.5t29.5 70.5q0 25 -11 46t-37 43.5t-50.5 39t-72 46.5t-79.5 53q-50 34 -85.5 64t-71 71.5t-54 92.5t-18.5 110q0 137 91.5 227t252.5 90q189 0 379 -121l-121 -196q-160 84 -234 84q-44 0 -73 -25.5t-29 -69.5 q0 -23 10.5 -43t38.5 -43.5t48 -37.5t69.5 -45t71.5 -46q50 -33 87 -64t75 -74t58.5 -96.5t20.5 -113.5q0 -134 -92 -227.5t-254 -93.5q-114 0 -225 46t-195 111zM272 1262l177 282h284l-246 -282h-215z" />
<glyph horiz-adv-x="874" d="M53 139l119 193q183 -117 277 -117q45 0 74.5 25.5t29.5 70.5q0 25 -11 46t-37 43.5t-50.5 39t-72 46.5t-79.5 53q-50 34 -85.5 64t-71 71.5t-54 92.5t-18.5 110q0 137 91.5 227t252.5 90q189 0 379 -121l-121 -196q-160 84 -234 84q-44 0 -73 -25.5t-29 -69.5 q0 -23 10.5 -43t38.5 -43.5t48 -37.5t69.5 -45t71.5 -46q50 -33 87 -64t75 -74t58.5 -96.5t20.5 -113.5q0 -134 -92 -227.5t-254 -93.5q-114 0 -225 46t-195 111z" />
<glyph horiz-adv-x="724" d="M98 788v861h254q163 0 238.5 -67t75.5 -202q0 -191 -154 -245l154 -347h-195l-139 324h-51v-324h-183zM281 1274h73q60 0 92.5 23.5t32.5 82.5q0 60 -32 83.5t-91 23.5h-75v-213z" />
<glyph horiz-adv-x="724" d="M98 -307v860h254q163 0 238.5 -67t75.5 -201q0 -192 -154 -246l154 -346h-195l-139 323h-51v-323h-183zM281 178h73q59 0 92 24t33 83q0 60 -32 83t-91 23h-75v-213z" />
<glyph horiz-adv-x="968" d="M113 0v1176h348q227 0 330.5 -91.5t103.5 -275.5q0 -262 -213 -334l215 -475h-268l-195 444h-69v-444h-252zM365 664h102q83 0 128.5 31.5t45.5 113.5q0 81 -46 114t-128 33h-102v-292zM383 -532l84 170h-82v245h184l11 -270l-148 -215z" />
<glyph horiz-adv-x="968" d="M113 0v1176h348q227 0 330.5 -91.5t103.5 -275.5q0 -262 -213 -334l215 -475h-268l-195 444h-69v-444h-252zM229 1544h177l98 -151l98 151h178l-155 -282h-242zM365 664h102q83 0 128.5 31.5t45.5 113.5q0 81 -46 114t-128 33h-102v-292z" />
<glyph horiz-adv-x="968" d="M113 0v1176h348q227 0 330.5 -91.5t103.5 -275.5q0 -262 -213 -334l215 -475h-268l-195 444h-69v-444h-252zM338 1262l176 282h285l-246 -282h-215zM365 664h102q83 0 128.5 31.5t45.5 113.5q0 81 -46 114t-128 33h-102v-292z" />
<glyph horiz-adv-x="344" d="M80 420v166h184v-166h-184zM82 -307v645h180v-645h-180z" />
<glyph horiz-adv-x="968" d="M113 0v1176h348q227 0 330.5 -91.5t103.5 -275.5q0 -262 -213 -334l215 -475h-268l-195 444h-69v-444h-252zM365 664h102q83 0 128.5 31.5t45.5 113.5q0 81 -46 114t-128 33h-102v-292z" />
<glyph horiz-adv-x="755" d="M59 1219q0 444 320 444q319 0 319 -444q0 -297 -143 -396l104 -108l-122 -140l-158 199q-320 0 -320 445zM250 1219q0 -83 10.5 -139t40 -92t78.5 -36q38 0 64 19.5t40 57t19.5 83t5.5 107.5q0 84 -10 139t-39.5 91t-79.5 36q-37 0 -63 -19.5t-40 -56.5t-20 -83t-6 -107z " />
<glyph horiz-adv-x="370" d="M76 -307l55 575h107l55 -575h-217zM96 352v201h176v-201h-176z" />
<glyph horiz-adv-x="501" d="M102 0l76 786h146l75 -786h-297zM129 901v275h242v-275h-242z" />
<glyph horiz-adv-x="755" d="M59 123q0 444 320 444q319 0 319 -444q0 -296 -143 -395l104 -109l-122 -139l-158 198q-320 0 -320 445zM250 123q0 -61 6 -107t20 -83t40 -56.5t63 -19.5q50 0 79.5 36t39.5 91t10 139t-10 139t-39.5 91t-79.5 36q-37 0 -63 -19.5t-40 -56.5t-20 -83t-6 -107z" />
<glyph horiz-adv-x="978" d="M102 410v766h254v-791q0 -78 27.5 -120t105.5 -42t107 42.5t29 119.5v791h252v-766q0 -76 -9 -135.5t-35 -116.5t-68 -94t-112 -59.5t-164 -22.5t-163.5 22.5t-112 59.5t-68 94t-34.5 116.5t-9 135.5zM215 1262l154 282h241l156 -282h-178l-99 153l-98 -153h-176z" />
<glyph horiz-adv-x="1019" d="M70 588q0 606 442 606q440 0 440 -606q0 -407 -200 -543l143 -145l-166 -191l-217 273q-442 0 -442 606zM328 588q0 -84 8.5 -147t28.5 -114t56.5 -77.5t90.5 -26.5q53 0 89 26.5t55.5 78t27.5 113.5t8 147t-8 147t-27.5 113t-55.5 77.5t-89 26.5q-54 0 -90.5 -26.5 t-56.5 -77.5t-28.5 -113.5t-8.5 -146.5z" />
<glyph horiz-adv-x="688" d="M98 788v861h236q163 0 238 -73t75 -212q0 -138 -75 -209.5t-238 -71.5h-49v-295h-187zM285 1255h53q58 0 89.5 24.5t31.5 84.5q0 63 -31.5 88t-89.5 25h-53v-222z" />
<glyph horiz-adv-x="688" d="M98 -307v860h236q163 0 238 -73t75 -212q0 -138 -75 -209t-238 -71h-49v-295h-187zM285 160h53q58 0 89.5 24t31.5 84q0 63 -31.5 88t-89.5 25h-53v-221z" />
<glyph horiz-adv-x="344" d="M-18 -444q72 34 86 57.5t14 93.5v631h180v-614v-50t-1.5 -43t-4.5 -39t-8.5 -32t-13.5 -30t-20.5 -25.5t-28.5 -25t-38 -22.5t-49 -24t-61 -23zM80 420v166h184v-166h-184z" />
<glyph horiz-adv-x="497" d="M100 1176h297l-75 -787h-146zM129 0v274h242v-274h-242z" />
<glyph horiz-adv-x="925" d="M113 0v1176h321q436 0 436 -388q0 -188 -105 -285t-331 -97h-69v-406h-252zM365 637h75q83 0 128.5 33t45.5 118t-45.5 119.5t-128.5 34.5h-75v-305z" />
<glyph horiz-adv-x="1019" d="M70 588q0 606 442 606q440 0 440 -606t-440 -606q-442 0 -442 606zM225 1337q16 44 25 65.5t26.5 55t33 50t39 29.5t50.5 13q34 0 76.5 -24t78 -48t54.5 -24q11 0 20 5t23.5 27t28.5 62l113 -65q-18 -46 -25.5 -64.5t-25.5 -54.5t-33 -51.5t-38 -29t-50 -13.5 q-35 0 -78 24.5t-78.5 49t-54.5 24.5q-35 0 -72 -94zM328 588q0 -84 8.5 -147t28.5 -114t56.5 -77.5t90.5 -26.5q53 0 89 26.5t55.5 78t27.5 113.5t8 147t-8 147t-27.5 113t-55.5 77.5t-89 26.5q-54 0 -90.5 -26.5t-56.5 -77.5t-28.5 -113.5t-8.5 -146.5z" />
<glyph horiz-adv-x="755" d="M59 1219q0 444 320 444q319 0 319 -444q0 -445 -319 -445q-320 0 -320 445zM250 1219q0 -83 10.5 -139t40 -92t78.5 -36q38 0 64 19.5t40 57t19.5 83t5.5 107.5q0 84 -10 139t-39.5 91t-79.5 36q-37 0 -63 -19.5t-40 -56.5t-20 -83t-6 -107z" />
<glyph horiz-adv-x="610" d="M84 -307v895h178v-471l107 221h204l-163 -256l188 -389h-188l-105 229l-43 -69v-160h-178z" />
<glyph horiz-adv-x="610" d="M84 788v895h178v-471l107 222h204l-163 -256l188 -390h-188l-105 230l-43 -70v-160h-178z" />
<glyph horiz-adv-x="1017" d="M70 588q0 606 442 606q138 0 233 -61l25 43h168l-86 -150q100 -151 100 -438q0 -606 -440 -606q-144 0 -236 59l-24 -41h-168l86 147q-100 150 -100 441zM328 588q0 -94 8 -154l280 477q-41 41 -104 41q-54 0 -90.5 -26.5t-56.5 -77.5t-28.5 -113.5t-8.5 -146.5z M344 1262l176 282h285l-246 -282h-215zM406 262q42 -39 106 -39q53 0 89 26.5t55.5 78t27.5 113.5t8 147q0 91 -8 151z" />
<glyph horiz-adv-x="978" d="M102 410v766h254v-791q0 -78 27.5 -120t105.5 -42t107 42.5t29 119.5v791h252v-766q0 -76 -9 -135.5t-35 -116.5t-68 -94t-112 -59.5t-164 -22.5t-163.5 22.5t-112 59.5t-68 94t-34.5 116.5t-9 135.5zM254 1282v236h195v-236h-195zM528 1282v236h195v-236h-195z" />
<glyph horiz-adv-x="1019" d="M70 588q0 606 442 606q440 0 440 -606t-440 -606q-442 0 -442 606zM287 1313v174h446v-174h-446zM328 588q0 -84 8.5 -147t28.5 -114t56.5 -77.5t90.5 -26.5q53 0 89 26.5t55.5 78t27.5 113.5t8 147t-8 147t-27.5 113t-55.5 77.5t-89 26.5q-54 0 -90.5 -26.5t-56.5 -77.5 t-28.5 -113.5t-8.5 -146.5z" />
<glyph horiz-adv-x="755" d="M59 123q0 444 320 444q319 0 319 -444q0 -445 -319 -445q-320 0 -320 445zM250 123q0 -61 6 -107t20 -83t40 -56.5t63 -19.5q50 0 79.5 36t39.5 91t10 139t-10 139t-39.5 91t-79.5 36q-37 0 -63 -19.5t-40 -56.5t-20 -83t-6 -107z" />
<glyph horiz-adv-x="1019" d="M70 588q0 606 442 606q440 0 440 -606t-440 -606q-442 0 -442 606zM272 1262l117 282h223l-186 -282h-154zM328 588q0 -84 8.5 -147t28.5 -114t56.5 -77.5t90.5 -26.5q53 0 89 26.5t55.5 78t27.5 113.5t8 147t-8 147t-27.5 113t-55.5 77.5t-89 26.5q-54 0 -90.5 -26.5 t-56.5 -77.5t-28.5 -113.5t-8.5 -146.5zM549 1262l117 282h223l-184 -282h-156z" />
<glyph horiz-adv-x="1019" d="M70 588q0 606 442 606q440 0 440 -606t-440 -606q-442 0 -442 606zM217 1544h283l178 -282h-213zM328 588q0 -84 8.5 -147t28.5 -114t56.5 -77.5t90.5 -26.5q53 0 89 26.5t55.5 78t27.5 113.5t8 147t-8 147t-27.5 113t-55.5 77.5t-89 26.5q-54 0 -90.5 -26.5t-56.5 -77.5 t-28.5 -113.5t-8.5 -146.5z" />
<glyph horiz-adv-x="978" d="M102 410v766h254v-791q0 -78 27.5 -120t105.5 -42t107 42.5t29 119.5v791h252v-766q0 -76 -9 -135.5t-35 -116.5t-68 -94t-112 -59.5t-164 -22.5t-163.5 22.5t-112 59.5t-68 94t-34.5 116.5t-9 135.5zM197 1544h282l178 -282h-213z" />
<glyph horiz-adv-x="344" d="M82 -307v895h180v-895h-180z" />
<glyph horiz-adv-x="978" d="M102 410v766h254v-791q0 -78 27.5 -120t105.5 -42t107 42.5t29 119.5v791h252v-766q0 -76 -9 -135.5t-35 -116.5t-68 -94t-112 -59.5t-164 -22.5t-163.5 22.5t-112 59.5t-68 94t-34.5 116.5t-9 135.5zM252 1262l117 282h223l-186 -282h-154zM528 1262l117 282h223 l-184 -282h-156z" />
<glyph horiz-adv-x="806" d="M88 0v188q4 2 10.5 6t24.5 19t33.5 32t33 46.5t27.5 62.5h-117v131h129q-8 47 -14 74h-115v133h64q-49 120 -49 221q0 133 71.5 207t202.5 74q161 0 350 -147l-121 -170q-104 84 -174 84q-75 0 -75 -87q0 -15 2.5 -31.5t5 -28t9.5 -31.5t10 -27.5l13 -32.5t13 -31h225 v-133h-186q4 -25 8 -74h178v-131h-194q-22 -69 -60 -121h334v-233h-639z" />
<glyph horiz-adv-x="591" d="M72 -168q3 2 8 5t18.5 14.5t25 25t24 36.5t18.5 48h-86v86h92q-2 20 -10 55h-82v88h49q-39 96 -39 170q0 97 52 152t145 55q122 0 256 -110l-88 -125q-77 61 -125 61q-54 0 -54 -61q0 -17 4.5 -36.5t9 -32t14.5 -36.5t15 -37h156v-88h-131q1 -4 6 -55h125v-86h-135 q-15 -61 -43 -96h235v-172h-460v139z" />
<glyph horiz-adv-x="593" d="M72 788v140q3 2 8 5t18.5 14.5t25 25t24 36.5t18.5 48h-86v86h92q-2 20 -10 55h-82v88h49q-39 96 -39 170q0 97 52 152t145 55q120 0 256 -111l-88 -125q-79 62 -125 62q-54 0 -54 -62q0 -17 4.5 -36t9 -32t14.5 -36.5t15 -36.5h156v-88h-131q1 -4 6 -55h125v-86h-135 q-15 -61 -43 -96h235v-173h-460z" />
<glyph horiz-adv-x="1019" d="M70 588q0 606 442 606q440 0 440 -606t-440 -606q-442 0 -442 606zM276 1282v236h195v-236h-195zM328 588q0 -84 8.5 -147t28.5 -114t56.5 -77.5t90.5 -26.5q53 0 89 26.5t55.5 78t27.5 113.5t8 147t-8 147t-27.5 113t-55.5 77.5t-89 26.5q-54 0 -90.5 -26.5t-56.5 -77.5 t-28.5 -113.5t-8.5 -146.5zM551 1282v236h194v-236h-194z" />
<glyph horiz-adv-x="1019" d="M70 588q0 606 442 606q440 0 440 -606t-440 -606q-442 0 -442 606zM238 1262l153 282h242l155 -282h-178l-98 153l-98 -153h-176zM328 588q0 -84 8.5 -147t28.5 -114t56.5 -77.5t90.5 -26.5q53 0 89 26.5t55.5 78t27.5 113.5t8 147t-8 147t-27.5 113t-55.5 77.5t-89 26.5 q-54 0 -90.5 -26.5t-56.5 -77.5t-28.5 -113.5t-8.5 -146.5z" />
<glyph horiz-adv-x="741" d="M90 -6v559h186v-578q0 -56 20.5 -87t74.5 -31q55 0 74.5 30.5t19.5 87.5v578h186v-559q0 -71 -11.5 -123.5t-40.5 -98.5t-86.5 -70t-141.5 -24t-141.5 24t-87 70t-41 98.5t-11.5 123.5z" />
<glyph horiz-adv-x="1019" d="M70 588q0 606 442 606q440 0 440 -606t-440 -606q-442 0 -442 606zM260 1513h156q0 -42 25.5 -66t68.5 -24q45 0 71.5 24t26.5 66h156q0 -117 -67 -184t-187 -67q-118 0 -184 67t-66 184zM328 588q0 -84 8.5 -147t28.5 -114t56.5 -77.5t90.5 -26.5q53 0 89 26.5t55.5 78 t27.5 113.5t8 147t-8 147t-27.5 113t-55.5 77.5t-89 26.5q-54 0 -90.5 -26.5t-56.5 -77.5t-28.5 -113.5t-8.5 -146.5z" />
<glyph horiz-adv-x="978" d="M102 410v766h254v-791q0 -78 27.5 -120t105.5 -42t107 42.5t29 119.5v791h252v-766q0 -76 -9 -135.5t-35 -116.5t-68 -94t-112 -59.5t-164 -22.5t-163.5 22.5t-112 59.5t-68 94t-34.5 116.5t-9 135.5zM266 1313v174h447v-174h-447z" />
<glyph horiz-adv-x="1019" d="M70 588q0 606 442 606q440 0 440 -606t-440 -606q-442 0 -442 606zM328 588q0 -84 8.5 -147t28.5 -114t56.5 -77.5t90.5 -26.5q53 0 89 26.5t55.5 78t27.5 113.5t8 147t-8 147t-27.5 113t-55.5 77.5t-89 26.5q-54 0 -90.5 -26.5t-56.5 -77.5t-28.5 -113.5t-8.5 -146.5z M344 1262l176 282h285l-246 -282h-215z" />
<glyph horiz-adv-x="1429" d="M70 588q0 606 442 606q103 0 184 -35v17h656v-240h-404v-231h326v-234h-326v-231h410v-240h-662v16q-78 -34 -184 -34q-442 0 -442 606zM328 588q0 -84 8.5 -147t28.5 -114t56.5 -77.5t90.5 -26.5q53 0 89 26.5t55.5 78t27.5 113.5t8 147t-8 147t-27.5 113t-55.5 77.5 t-89 26.5q-54 0 -90.5 -26.5t-56.5 -77.5t-28.5 -113.5t-8.5 -146.5z" />
<glyph horiz-adv-x="919" d="M84 -307v645h180v-78q69 92 152 92q48 0 80.5 -29.5t46.5 -78.5q74 108 166 108q64 0 99.5 -50t35.5 -138v-471h-180v416q0 44 -7 66t-28 22q-44 0 -76 -70v-434h-178v416q0 43 -8 65.5t-31 22.5q-41 0 -72 -68v-436h-180z" />
<glyph horiz-adv-x="978" d="M102 410v766h254v-791q0 -78 27.5 -120t105.5 -42t107 42.5t29 119.5v791h252v-766q0 -80 -11 -143t-37.5 -120t-78 -95.5t-125.5 -55.5q-123 -104 -123 -189q0 -17 4 -29.5t12 -20t16 -12t20 -6t18.5 -2t18 0t13.5 0.5l-22 -135h-8q-234 -4 -234 176q0 115 111 205 q-84 4 -147 28.5t-101 61.5t-61 92.5t-31.5 113t-8.5 130.5z" />
<glyph horiz-adv-x="579" d="M47 14q0 161 64.5 249.5t183.5 88.5q114 0 174.5 -79t60.5 -207q0 -24 -2.5 -47.5t-5.5 -34.5l-2 -11h-291q6 -145 78 -145q27 0 61 16.5t95 53.5l69 -119q-145 -101 -249 -101t-170 84.5t-66 251.5zM229 78h138q-2 67 -17 100t-49 33q-66 0 -72 -133z" />
<glyph horiz-adv-x="1019" d="M70 588q0 606 442 606q440 0 440 -606t-440 -606q-442 0 -442 606zM328 588q0 -84 8.5 -147t28.5 -114t56.5 -77.5t90.5 -26.5q53 0 89 26.5t55.5 78t27.5 113.5t8 147t-8 147t-27.5 113t-55.5 77.5t-89 26.5q-54 0 -90.5 -26.5t-56.5 -77.5t-28.5 -113.5t-8.5 -146.5z " />
<glyph horiz-adv-x="1013" d="M113 0v1176h254l280 -711v711h254v-1176h-256l-280 713v-713h-252zM229 1337q16 44 25 65.5t26.5 55t33 50t39 29.5t50.5 13q34 0 76.5 -24t78 -48t54.5 -24q11 0 20 5t23.5 27t28.5 62l113 -65q-18 -46 -25.5 -64.5t-25.5 -54.5t-33 -51.5t-38 -29t-50 -13.5 q-35 0 -78 24.5t-78.5 49t-54.5 24.5q-35 0 -72 -94z" />
<glyph horiz-adv-x="770" d="M98 788v861h189l196 -508v508h187v-861h-189l-196 510v-510h-187z" />
<glyph horiz-adv-x="770" d="M98 -307v860h189l196 -508v508h187v-860h-189l-196 510v-510h-187z" />
<glyph horiz-adv-x="1013" d="M113 0v1176h254l280 -711v711h254v-1176h-256l-280 713v-713h-252zM412 -532l84 170h-82v245h184l10 -270l-147 -215z" />
<glyph horiz-adv-x="1013" d="M113 0v1176h254l280 -711v711h254v-1176h-256l-280 713v-713h-252zM240 1544h176l98 -151l98 151h179l-156 -282h-242z" />
<glyph horiz-adv-x="1013" d="M113 0v1176h254l280 -711v711h254v-1176h-256l-280 713v-713h-252zM340 1262l176 282h285l-246 -282h-215z" />
<glyph horiz-adv-x="1013" d="M113 0v1176h254l280 -711v711h254v-1176h-256l-280 713v-713h-252z" />
<glyph horiz-adv-x="645" d="M49 571q0 132 69 217.5t193 85.5q69 0 122.5 -29.5t85.5 -82t48.5 -120t16.5 -146.5q2 -227 -108 -368.5t-288 -141.5q-26 0 -51 3.5t-37 6.5l-12 4l43 162q24 -8 55 -8q65 0 120 51.5t79 161.5q-51 -64 -131 -64q-90 0 -147.5 75t-57.5 193zM231 582q0 -54 20.5 -89.5 t59.5 -35.5q30 0 53 19t35 46q-1 92 -25.5 138.5t-62.5 46.5q-40 0 -60 -38t-20 -87z" />
<glyph horiz-adv-x="1009" d="M72 367q0 250 235 407q-172 139 -172 338q0 149 99.5 246.5t269.5 97.5t270 -97.5t100 -246.5q0 -200 -174 -338q238 -159 238 -407q0 -176 -114 -283t-320 -107q-205 0 -318.5 107t-113.5 283zM348 385q0 -79 43 -126.5t113 -47.5q71 0 114.5 47.5t43.5 126.5 q0 157 -158 264q-156 -108 -156 -264zM387 1092q0 -123 117 -203q119 81 119 203q0 56 -32 97.5t-87 41.5t-86 -41t-31 -98z" />
<glyph horiz-adv-x="960" d="M53 694q0 142 47 254t141 179t222 67q109 0 192.5 -49.5t134.5 -137t76.5 -198t26.5 -240.5q0 -191 -46 -351.5t-127.5 -270.5t-196 -171t-249.5 -61q-43 0 -82.5 6t-57.5 11l-19 6l65 239q41 -12 90 -12q108 0 199 96.5t127 298.5q-80 -112 -215 -112q-144 0 -236 125.5 t-92 320.5zM328 709q0 -100 33.5 -166t101.5 -66q52 0 91.5 37t59.5 88q-1 166 -42 254t-109 88q-46 0 -78 -37t-44.5 -88t-12.5 -110z" />
<glyph horiz-adv-x="663" d="M55 797q0 147 144 241q-103 83 -103 199q0 92 62.5 151.5t173.5 59.5t173 -59.5t62 -151.5q0 -118 -104 -199q145 -92 145 -241q0 -107 -72 -172.5t-204 -65.5q-133 0 -205 65.5t-72 172.5zM240 809q0 -43 25.5 -68.5t66.5 -25.5t66.5 25.5t25.5 68.5q0 85 -92 149 q-92 -64 -92 -149zM262 1225q0 -65 68 -111q67 45 67 111q0 29 -17 51t-48 22q-33 0 -51.5 -22t-18.5 -51z" />
<glyph horiz-adv-x="663" d="M55 223q0 148 144 242q-103 83 -103 199q0 92 62.5 151t173.5 59t173 -59t62 -151q0 -118 -104 -199q145 -92 145 -242q0 -107 -72 -172t-204 -65q-133 0 -205 65t-72 172zM240 236q0 -43 25.5 -69t66.5 -26t66.5 26t25.5 69q0 85 -92 149q-92 -64 -92 -149zM262 651 q0 -64 68 -110q67 45 67 110q0 29 -17 51.5t-48 22.5q-33 0 -51.5 -22.5t-18.5 -51.5z" />
<glyph horiz-adv-x="978" d="M102 410v766h254v-791q0 -78 27.5 -120t105.5 -42t107 42.5t29 119.5v791h252v-766q0 -76 -9 -135.5t-35 -116.5t-68 -94t-112 -59.5t-164 -22.5t-163.5 22.5t-112 59.5t-68 94t-34.5 116.5t-9 135.5zM289 1444q0 84 58 143.5t142 59.5t143.5 -59.5t59.5 -143.5 q0 -85 -59 -144t-144 -59q-84 0 -142 59t-58 144zM414 1444q0 -32 21.5 -54t53.5 -22t54 22t22 54q0 31 -22 53.5t-54 22.5t-53.5 -22.5t-21.5 -53.5z" />
<glyph horiz-adv-x="651" d="M84 -307v645h178v-74q43 41 83.5 64.5t92.5 23.5q66 0 100.5 -49t34.5 -139v-471h-178v434q0 70 -41 70q-28 0 -53.5 -25t-38.5 -51v-428h-178z" />
<glyph horiz-adv-x="741" d="M90 1090v559h186v-578q0 -56 20.5 -87.5t74.5 -31.5q55 0 74.5 31t19.5 88v578h186v-559q0 -71 -11.5 -123.5t-40.5 -98.5t-86.5 -70t-141.5 -24t-141.5 24t-87 70t-41 98.5t-11.5 123.5z" />
<glyph horiz-adv-x="978" d="M102 410v766h254v-791q0 -78 27.5 -120t105.5 -42t107 42.5t29 119.5v791h252v-766q0 -76 -9 -135.5t-35 -116.5t-68 -94t-112 -59.5t-164 -22.5t-163.5 22.5t-112 59.5t-68 94t-34.5 116.5t-9 135.5zM203 1337q16 44 25 65.5t26.5 55t33 50t39 29.5t50.5 13 q34 0 76.5 -24t78 -48t54.5 -24q11 0 20 5t23 27t28 62l113 -65q-18 -46 -25.5 -64.5t-25.5 -54.5t-33 -51.5t-38 -29t-50 -13.5q-35 0 -78 24.5t-78.5 49t-54.5 24.5q-35 0 -72 -94z" />
<glyph horiz-adv-x="866" d="M98 788v861h191l143 -445l146 445h188v-861h-184v496l-109 -352h-80l-108 352v-496h-187z" />
<glyph horiz-adv-x="866" d="M98 -307v860h191l143 -444l146 444h188v-860h-184v495l-109 -352h-80l-108 352v-495h-187z" />
<glyph horiz-adv-x="960" d="M70 254v203h147l29 260h-125v205h147l29 254h182l-28 -254h131l28 254h185l-29 -254h125v-205h-148l-28 -260h125v-203h-148l-26 -254h-185l27 254h-131l-27 -254h-184l29 254h-125zM399 457h131l29 260h-131z" />
<glyph horiz-adv-x="702" d="M57 29h105l20 188h-90v150h107l20 186h135l-20 -186h90l20 186h136l-21 -186h88v-150h-104l-21 -188h88v-150h-104l-19 -186h-135l19 186h-90l-21 -186h-135l20 186h-88v150zM297 29h90l21 188h-91z" />
<glyph horiz-adv-x="702" d="M57 975v149h105l20 189h-90v149h107l20 187h135l-20 -187h90l20 187h136l-21 -187h88v-149h-104l-21 -189h88v-149h-104l-19 -187h-135l19 187h-90l-21 -187h-135l20 187h-88zM297 1124h90l21 189h-91z" />
<glyph horiz-adv-x="1148" d="M113 0v1176h258l202 -615l205 615h258v-1176h-252v692l-155 -495h-109l-155 495v-692h-252z" />
<glyph horiz-adv-x="595" d="M98 788v861h187v-684h276v-177h-463z" />
<glyph horiz-adv-x="804" d="M43 317v248l82 58v553h252v-377l158 110v-247l-158 -111v-311h389v-240h-641v375z" />
<glyph horiz-adv-x="595" d="M98 -307v860h187v-684h276v-176h-463z" />
<glyph horiz-adv-x="792" d="M113 0v1176h252v-936h389v-240h-641zM508 510v235h197v-235h-197z" />
<glyph horiz-adv-x="790" d="M113 0v1176h252v-936h389v-240h-641zM330 -532l84 170h-82v245h184l10 -270l-147 -215z" />
<glyph horiz-adv-x="966" d="M31 1176h276l176 -859l176 859h277l-313 -1176h-281z" />
<glyph horiz-adv-x="792" d="M113 0v1176h252v-936h389v-240h-641zM408 760l84 170h-82v246h184l10 -271l-147 -215z" />
<glyph horiz-adv-x="790" d="M72 1262l176 282h284l-245 -282h-215zM113 0v1176h252v-936h389v-240h-641z" />
<glyph horiz-adv-x="612" d="M47 16q0 161 65.5 248.5t194.5 87.5q130 0 194 -87.5t64 -250.5t-64 -249.5t-194 -86.5q-129 0 -194.5 87.5t-65.5 250.5zM229 16q0 -93 17 -138.5t61 -45.5q42 0 60 45.5t18 136.5t-18 138t-60 47q-43 0 -60.5 -46t-17.5 -137z" />
<glyph horiz-adv-x="790" d="M113 0v1176h252v-936h389v-240h-641z" />
<glyph horiz-adv-x="722" d="M98 788v861h187v-336l188 336h225l-252 -389l256 -472h-221l-149 295l-47 -73v-222h-187z" />
<glyph horiz-adv-x="526" d="M18 725l185 135h174v-860h-182v672l-99 -72z" />
<glyph horiz-adv-x="526" d="M18 1298l185 136h174v-861h-182v672l-99 -71z" />
<glyph horiz-adv-x="694" d="M23 958l286 218h260v-1176h-274v891l-156 -119z" />
<glyph horiz-adv-x="694" d="M20 553h205l121 -619l125 619h205l-225 -860h-205z" />
<glyph horiz-adv-x="696" d="M20 1649h205l121 -619l125 619h205l-225 -861h-205z" />
<glyph horiz-adv-x="1187" d="M43 1067l156 109h141v-705h-147v553l-87 -57zM260 0l402 1176h157l-399 -1176h-160zM657 182q0 124 127 199q-92 66 -92 164q0 74 54 123t145 49q94 0 148.5 -49t54.5 -123q0 -96 -95 -164q129 -76 129 -199q0 -87 -62 -140.5t-175 -53.5q-111 0 -172.5 53.5t-61.5 140.5 zM807 193q0 -36 23.5 -58t60.5 -22q40 0 64 21.5t24 58.5q0 69 -86 126q-86 -54 -86 -126zM827 535q0 -58 64 -97q63 36 63 97q0 25 -16.5 43t-46.5 18q-29 0 -46.5 -18t-17.5 -43z" />
<glyph horiz-adv-x="1191" d="M43 1067l156 109h141v-705h-147v553l-87 -57zM260 0l402 1176h157l-399 -1176h-160zM674 80l71 115q82 -66 134 -66q39 0 64.5 28t25.5 72q0 42 -23 72.5t-67 30.5q-47 0 -93 -39l-81 49l28 363h365v-136h-240l-4 -116q33 10 66 10q96 0 147 -66.5t51 -165.5 q0 -104 -55 -173.5t-162 -69.5q-117 0 -227 92z" />
<glyph horiz-adv-x="722" d="M98 -307v860h187v-336l188 336h225l-252 -389l256 -471h-221l-149 295l-47 -74v-221h-187z" />
<glyph horiz-adv-x="1183" d="M43 1067l158 109h139v-705h-147v553l-87 -57zM262 0l400 1176h157l-399 -1176h-158zM674 0v72q0 50 14 94.5t42 81.5t50.5 60t57.5 54q39 35 60.5 57t40.5 51t19 52q0 26 -18 42t-47 16q-13 0 -27 -3.5t-32 -12.5t-26 -13.5t-29 -17.5l-21 -13l-70 103q112 94 225 94 q92 0 144.5 -55.5t52.5 -133.5q0 -42 -15.5 -82.5t-46.5 -77.5t-48.5 -54.5t-49.5 -45.5q-36 -32 -52 -48t-30 -39.5t-14 -45.5h256v-135h-436z" />
<glyph horiz-adv-x="1300" d="M41 1176h285l100 -721l127 721h190l125 -723l105 723h284l-241 -1176h-238l-131 739l-129 -739h-237z" />
<glyph horiz-adv-x="968" d="M113 0v1176h252v-467l268 467h307l-354 -535l358 -641h-299l-211 408l-69 -105v-303h-252zM381 -532l84 170h-82v245h184l11 -270l-148 -215z" />
<glyph horiz-adv-x="1173" d="M43 1067l158 109h139v-705h-147v553l-87 -57zM262 0l400 1176h157l-399 -1176h-158zM600 131v115l234 459h198v-439h80v-135h-80v-131h-149v131h-283zM737 266h146v291z" />
<glyph horiz-adv-x="1159" d="M43 1067l156 109h141v-705h-147v553l-87 -57zM260 0l402 1176h157l-399 -1176h-160zM635 297q-1 187 92.5 303.5t241.5 116.5q24 0 46 -3t32 -6l10 -3l-37 -130q-22 7 -49 7q-57 0 -104.5 -42t-69.5 -132q47 47 114 47q78 0 128.5 -61.5t50.5 -157.5q0 -108 -59.5 -178 t-162.5 -70q-79 0 -132.5 43t-77 111t-23.5 155zM784 279q0 -156 84 -156q36 0 54 31.5t18 72.5q0 46 -18 76.5t-54 30.5q-29 0 -51.5 -16.5t-32.5 -38.5z" />
<glyph horiz-adv-x="968" d="M113 0v1176h252v-467l268 467h307l-354 -535l358 -641h-299l-211 408l-69 -105v-303h-252z" />
<glyph horiz-adv-x="1300" d="M41 1176h285l100 -721l127 721h190l125 -723l105 723h284l-241 -1176h-238l-131 739l-129 -739h-237zM483 1262l176 282h285l-246 -282h-215z" />
<glyph horiz-adv-x="1179" d="M43 1067l158 109h139v-705h-147v553l-87 -57zM262 0l400 1176h157l-399 -1176h-158zM664 76l69 108q89 -57 146 -57q37 0 62.5 23t25.5 59q0 28 -15 48t-39.5 30.5t-47.5 15t-46 4.5h-18v133h22q42 0 80.5 20.5t38.5 61.5q0 24 -16 40t-47 16q-61 0 -127 -52l-66 101 q113 90 221 90q87 0 136 -48.5t49 -119.5q0 -103 -101 -160q56 -22 89.5 -71t33.5 -115q0 -86 -53 -150.5t-162 -64.5q-119 0 -235 88z" />
<glyph horiz-adv-x="380" d="M-4 715q39 18 59 30.5t30 31.5t11.5 34t1.5 51v787h187v-777v-49t-1.5 -42t-4.5 -38t-9 -31.5t-14 -30t-20.5 -25.5t-29 -25t-38.5 -22.5t-49.5 -24t-61.5 -23.5z" />
<glyph horiz-adv-x="380" d="M-4 -381q31 14 50 26.5t30 22t15.5 27t5.5 30t1 42.5v786h187v-776q0 -41 -0.5 -60.5t-3.5 -49.5t-8.5 -44t-16.5 -35.5t-27 -34t-40.5 -29t-56.5 -30t-75 -29.5z" />
<glyph horiz-adv-x="479" d="M-35 1262l154 282h241l156 -282h-178l-98 153l-99 -153h-176zM-27 -102q36 17 59.5 29.5t40 28t24.5 26t12.5 32t5 37t0.5 49.5v1076h252v-1061q0 -64 -1 -94t-6.5 -74t-17.5 -65.5t-33.5 -51.5t-56 -50t-82.5 -42.5t-115 -46.5z" />
<glyph horiz-adv-x="479" d="M-27 -102q36 17 59.5 29.5t40 28t24.5 26t12.5 32t5 37t0.5 49.5v1076h252v-1061q0 -64 -1 -94t-6.5 -74t-17.5 -65.5t-33.5 -51.5t-56 -50t-82.5 -42.5t-115 -46.5z" />
<glyph horiz-adv-x="894" d="M61 139l119 193q183 -117 277 -117q45 0 74.5 25.5t29.5 70.5q0 25 -11 46t-37 43.5t-50.5 39t-72 46.5t-79.5 53q-50 34 -85.5 64t-71 71.5t-54 92.5t-18.5 110q0 124 75.5 210t211.5 103v156h170v-164q133 -26 266 -109l-121 -196q-160 84 -233 84q-44 0 -73.5 -25.5 t-29.5 -69.5q0 -23 10.5 -43t38.5 -43.5t48 -37.5t69.5 -45t71.5 -46q50 -33 87 -64t75 -74t58.5 -96.5t20.5 -113.5q0 -121 -76 -210.5t-212 -106.5v-154h-170v162q-163 33 -308 145z" />
<glyph horiz-adv-x="477" d="M-47 1337q16 44 25 65.5t26.5 55t33 50t39 29.5t50.5 13q34 0 76.5 -24t78 -48t54.5 -24q11 0 20 5t23.5 27t28.5 62l112 -65q-18 -46 -25.5 -64.5t-25.5 -54.5t-33 -51.5t-38 -29t-50 -13.5q-35 0 -78 24.5t-78.5 49t-54.5 24.5q-34 0 -71 -94zM113 0v1176h252v-1176 h-252z" />
<glyph horiz-adv-x="378" d="M96 788v861h187v-861h-187z" />
<glyph horiz-adv-x="477" d="M70 -221q0 127 135 221h-92v1176h252v-1176h-7q-35 -30 -58 -53.5t-46 -63t-23 -76.5q0 -17 4 -29.5t12.5 -20t16 -12t20 -6t19 -2t18 0t13.5 0.5l-23 -135h-8q-233 -4 -233 176z" />
<glyph horiz-adv-x="1009" d="M47 764q0 208 99 310t264 102h198v-1487h-202v659q-72 0 -135 24t-114 72.5t-80.5 130.5t-29.5 189zM682 -311v1487h203v-1487h-203z" />
<glyph horiz-adv-x="475" d="M14 1313v174h447v-174h-447zM113 0v1176h252v-1176h-252z" />
<glyph horiz-adv-x="540" d="M113 180v809q0 73 1.5 106.5t10 84t27.5 75.5t53.5 57t88.5 54t132 43l57 -152q-35 -17 -56 -32.5t-33.5 -29.5t-18 -37t-7 -42.5t-1.5 -58.5v-944q0 -40 1.5 -59.5t7 -42.5t18 -37t34 -29.5t55.5 -32.5l-57 -152q-78 21 -132 43t-88.5 54t-53.5 57t-27.5 75.5t-10 84 t-1.5 106.5z" />
<glyph horiz-adv-x="1300" d="M41 1176h285l100 -721l127 721h190l125 -723l105 723h284l-241 -1176h-238l-131 739l-129 -739h-237zM377 1262l153 282h242l156 -282h-178l-99 153l-98 -153h-176z" />
<glyph horiz-adv-x="641" d="M49 16q0 165 47.5 250.5t134.5 85.5q31 0 59 -13t44.5 -27.5t42.5 -41.5v318h178v-895h-178v65q-38 -40 -69.5 -60t-76.5 -20q-87 0 -134.5 86t-47.5 252zM229 16q0 -176 66 -176q42 0 82 72v207q-39 71 -82 71q-66 0 -66 -174z" />
<glyph horiz-adv-x="378" d="M96 -307v860h187v-860h-187z" />
<glyph horiz-adv-x="540" d="M57 -88q43 22 66 39t34.5 42.5t14 48.5t2.5 71v944q0 48 -2.5 71t-14 48.5t-34.5 42.5t-66 38l58 152q78 -21 132 -43t88.5 -54t53.5 -57t27.5 -75.5t10 -84t1.5 -106.5v-809q0 -73 -1.5 -106.5t-10 -84t-27.5 -75.5t-53.5 -57t-88.5 -54t-132 -43z" />
<glyph horiz-adv-x="1300" d="M41 1176h285l100 -721l127 721h190l125 -723l105 723h284l-241 -1176h-238l-131 739l-129 -739h-237zM418 1282v236h194v-236h-194zM692 1282v236h195v-236h-195z" />
<glyph horiz-adv-x="1300" d="M41 1176h285l100 -721l127 721h190l125 -723l105 723h284l-241 -1176h-238l-131 739l-129 -739h-237zM358 1544h283l178 -282h-213z" />
<glyph horiz-adv-x="935" d="M29 553h209l71 -522l90 522h140l86 -516l73 516h209l-172 -860h-176l-92 532l-92 -532h-174z" />
<glyph horiz-adv-x="475" d="M-55 1544h282l179 -282h-213zM113 0v1176h252v-1176h-252z" />
<glyph horiz-adv-x="1304" d="M55 879q0 148 61.5 231.5t190.5 83.5q127 0 187.5 -83.5t60.5 -231.5q0 -146 -60.5 -230t-187.5 -84q-128 0 -190 84.5t-62 229.5zM231 879q0 -75 16.5 -113.5t59.5 -38.5q74 0 74 152q0 75 -16.5 113t-57.5 38q-43 0 -59.5 -37.5t-16.5 -113.5zM340 0l438 1176h180 l-434 -1176h-184zM748 297q0 147 60.5 230t188.5 83t189 -83t61 -230t-61 -231t-189 -84t-188.5 84t-60.5 231zM922 297q0 -76 16 -114t59 -38q42 0 59 39t17 113t-17 113t-59 39q-43 0 -59 -38t-16 -114z" />
<glyph horiz-adv-x="940" d="M39 336q0 108 44 169.5t136 61.5q93 0 137.5 -61.5t44.5 -169.5t-44.5 -169t-137.5 -61q-92 0 -136 61t-44 169zM168 336q0 -55 11 -83t40 -28q30 0 41.5 27.5t11.5 83.5t-11 82t-42 26q-29 0 -40 -26t-11 -82zM244 -307l313 860h135l-313 -860h-135zM537 -90 q0 107 44 168t136 61q93 0 137.5 -60.5t44.5 -168.5t-44.5 -170t-137.5 -62q-92 0 -136 62t-44 170zM666 -90q0 -57 11 -84t40 -27q31 0 42 27t11 84q0 55 -11.5 81.5t-41.5 26.5q-29 0 -40 -26.5t-11 -81.5z" />
<glyph horiz-adv-x="1536" d="M45 858v217h100v35q0 188 64.5 275.5t202.5 87.5q142 0 338 -78q67 98 219 98q165 0 366 -84l-82 -213q-168 43 -215 43q-84 0 -84 -100v-64h484v-1046q0 -66 -0.5 -96.5t-4.5 -80.5t-13 -73t-25 -59t-40.5 -55.5t-60.5 -44.5t-85 -43.5t-113 -37.5l-86 213 q43 21 69.5 35.5t46 33.5t28.5 31t14 40t5.5 47.5t0.5 66.5v852h-220v-858h-264v858h-280v-858h-265v858h-100zM410 1075h280v101q-159 43 -209 43q-71 0 -71 -101v-43z" />
<glyph horiz-adv-x="475" d="M2 1282v236h195v-236h-195zM113 0v1176h252v-1176h-252zM276 1282v236h195v-236h-195z" />
<glyph horiz-adv-x="477" d="M-37 1262l154 282h241l156 -282h-178l-98 153l-99 -153h-176zM113 0v1176h252v-1176h-252z" />
<glyph horiz-adv-x="935" d="M29 1649h209l71 -523l90 523h140l86 -516l73 516h209l-172 -861h-176l-92 533l-92 -533h-174z" />
<glyph horiz-adv-x="520" d="M47 1112q0 166 62.5 251t156.5 85q81 0 217 -78l-71 -145q-3 2 -14 9t-14 8.5t-12 7.5t-13 7.5t-11.5 5.5t-12 5.5t-11 4t-11.5 3t-10 0.5q-74 0 -74 -164q0 -166 74 -166q36 0 109 51l71 -145q-136 -78 -217 -78q-94 0 -156.5 86t-62.5 252z" />
<glyph horiz-adv-x="1361" d="M72 588q0 172 70 308t210.5 217t331.5 81q143 0 259 -47t191 -129t115.5 -192t40.5 -238t-40.5 -238t-115.5 -192t-191 -129t-259 -47q-191 0 -331.5 81t-210.5 217t-70 308zM141 588q0 -237 143.5 -390t397.5 -153q128 0 231.5 42t171 115.5t104 172t36.5 213.5 q0 154 -62 275.5t-187 194t-294 72.5q-170 0 -294.5 -72.5t-185.5 -194t-61 -275.5zM373 586q0 174 85.5 270t213.5 96q60 0 119 -19t90 -37t75 -48l-53 -60q-36 27 -58 41.5t-71.5 32t-99.5 17.5q-96 0 -155.5 -81t-59.5 -212q0 -130 59.5 -209.5t155.5 -79.5 q50 0 98.5 16.5t73 31.5t57.5 40l53 -59q-44 -30 -74.5 -48t-90.5 -37.5t-119 -19.5q-128 0 -213.5 96t-85.5 269z" />
<glyph horiz-adv-x="1855" d="M55 879q0 148 61.5 231.5t190.5 83.5q127 0 187.5 -83.5t60.5 -231.5q0 -146 -60.5 -230t-187.5 -84q-128 0 -190 84.5t-62 229.5zM231 879q0 -75 16.5 -113.5t59.5 -38.5q74 0 74 152q0 75 -16.5 113t-57.5 38q-43 0 -59.5 -37.5t-16.5 -113.5zM340 0l438 1176h180 l-434 -1176h-184zM748 297q0 147 60.5 230t188.5 83t189 -83t61 -230t-61 -231t-189 -84t-188.5 84t-60.5 231zM922 297q0 -76 16 -114t59 -38q42 0 59 39t17 113t-17 113t-59 39q-43 0 -59 -38t-16 -114zM1298 297q0 147 61 231t189 84t189 -84t61 -231t-61 -231t-189 -84 t-189 84t-61 231zM1473 297q0 -77 16 -114.5t59 -37.5q42 0 59 38.5t17 113.5q0 74 -17 111.5t-59 37.5q-43 0 -59 -37t-16 -112z" />
<glyph horiz-adv-x="915" d="M23 0l282 596l-268 580h285l135 -388l135 388h285l-267 -578l283 -598h-291l-145 379l-144 -379h-290z" />
<glyph horiz-adv-x="970" d="M98 750v79h33v347h322q412 0 434 -347h33v-79h-33q-9 -169 -114.5 -256.5t-319.5 -87.5h-70v-406h-252v750h-33zM383 637h76q152 0 170 113h-246v-113zM383 829h246q-18 113 -170 113h-76v-113z" />
<glyph horiz-adv-x="706" d="M78 236v65h24v252h236q295 0 311 -252h25v-65h-25q-16 -248 -311 -248h-49v-295h-187v543h-24zM289 160h53q102 0 117 76h-170v-76zM289 301h172q-16 80 -119 80h-53v-80z" />
<glyph horiz-adv-x="706" d="M78 1331v66h24v252h236q295 0 311 -252h25v-66h-25q-16 -248 -311 -248h-49v-295h-187v543h-24zM289 1255h53q102 0 117 76h-170v-76zM289 1397h172q-16 80 -119 80h-53v-80z" />
<glyph horiz-adv-x="673" d="M23 -307l202 434l-192 426h211l94 -279l94 279h211l-192 -424l202 -436h-215l-100 270l-100 -270h-215z" />
<glyph horiz-adv-x="641" d="M84 338h178v-68q26 27 42.5 41.5t44.5 27.5t59 13q87 0 134.5 -85.5t47.5 -250.5q0 -166 -47.5 -252t-134.5 -86q-45 0 -76.5 20t-69.5 60v-315h-178v895zM262 -86q36 -74 82 -74q66 0 66 176q0 174 -66 174q-47 0 -82 -75v-201z" />
<glyph horiz-adv-x="475" d="M-14 1513h155q0 -42 26 -66t69 -24q45 0 71.5 24t26.5 66h155q0 -117 -66.5 -184t-186.5 -67q-118 0 -184 67t-66 184zM113 0v1176h252v-1176h-252z" />
<glyph horiz-adv-x="477" d="M72 1262l176 282h284l-245 -282h-215zM113 0v1176h252v-1176h-252z" />
<glyph horiz-adv-x="352" d="M88 788v220h176v-220h-176zM88 1163v219h176v-219h-176z" />
<glyph horiz-adv-x="557" d="M59 1221q0 165 62 249t155 84h19l16 95h68l-19 -109l21 -6l18 115h70l-23 -142q33 -16 62 -34l-70 -148q-92 59 -129 59q-67 0 -67 -163q0 -168 67 -168q11 0 23.5 3.5t28 11t25.5 13t28 17t24 14.5l70 -145q-84 -57 -164 -76l-16 -103h-70l14 95q-12 0 -20 2l-14 -97 h-70l18 117q-127 74 -127 316z" />
<glyph horiz-adv-x="641" d="M84 539v895h178v-68q26 27 42.5 41.5t44.5 27.5t59 13q87 0 134.5 -85.5t47.5 -250.5q0 -166 -47.5 -252t-134.5 -86q-45 0 -76.5 20t-69.5 60v-315h-178zM262 1010q36 -74 82 -74q66 0 66 176q0 174 -66 174q-46 0 -82 -76v-200z" />
<glyph horiz-adv-x="956" d="M113 0v1176h252v-1176h-252zM449 -102q36 17 59.5 29.5t40 28t24 26t12 32t5 36.5t0.5 50v1076h252v-1061q0 -64 -1 -94t-6.5 -74t-17.5 -65.5t-33.5 -51.5t-56 -50t-82.5 -42.5t-115 -46.5z" />
<glyph horiz-adv-x="641" d="M49 16q0 165 47.5 250.5t134.5 85.5q43 0 75.5 -21t70.5 -61v68h178v-895h-178v315q-38 -40 -69.5 -60t-76.5 -20q-87 0 -134.5 86t-47.5 252zM229 16q0 -176 66 -176q42 0 82 72v207q-39 71 -82 71q-66 0 -66 -174z" />
<glyph horiz-adv-x="641" d="M51 1112q0 165 47.5 250.5t134.5 85.5q43 0 75.5 -21t70.5 -61v68h178v-895h-178v315q-38 -40 -69.5 -60t-76.5 -20q-87 0 -134.5 86t-47.5 252zM231 1112q0 -176 66 -176q42 0 82 72v206q-40 72 -82 72q-66 0 -66 -174z" />
<glyph horiz-adv-x="475" d="M113 0v1176h252v-1176h-252z" />
<glyph horiz-adv-x="727" d="M45 1063q55 48 139 89.5t181 41.5q133 0 220 -81.5t87 -213.5q0 -231 -291 -369l-12 -141h-148l-14 285q107 41 159 86.5t52 105.5q0 36 -26 65.5t-73 29.5q-27 0 -61.5 -14.5t-49.5 -24.5t-48 -33zM174 0v274h242v-274h-242z" />
<glyph horiz-adv-x="753" d="M98 788v861h187v-322h184v322h186v-861h-186v365h-184v-365h-187z" />
<glyph horiz-adv-x="729" d="M55 276q0 231 291 369l12 141h148l14 -284q-106 -41 -158.5 -87t-52.5 -106q0 -36 26 -65t73 -29q27 0 61.5 14.5t49.5 24.5t48 33l115 -174q-55 -48 -139 -89.5t-181 -41.5q-133 0 -220 81t-87 213zM311 901v275h242v-275h-242z" />
<glyph horiz-adv-x="518" d="M37 -102q0 169 211 268l8 102h109l8 -209q-76 -30 -112 -63t-36 -76q0 -28 17 -47.5t51 -19.5q41 0 113 53l86 -131q-40 -36 -101 -66.5t-131 -30.5q-97 0 -160 61t-63 159zM221 352v201h178v-201h-178z" />
<glyph horiz-adv-x="518" d="M37 993q0 170 211 269l8 102h109l8 -209q-76 -30 -112 -63t-36 -76q0 -28 17 -48t51 -20q41 0 113 53l86 -131q-40 -35 -101 -65.5t-131 -30.5q-97 0 -160 60.5t-63 158.5zM221 1448v201h178v-201h-178z" />
<glyph horiz-adv-x="516" d="M27 471q108 96 231 96q97 0 160 -60.5t63 -158.5q0 -169 -211 -268l-8 -103h-108l-9 209q75 30 111.5 63.5t36.5 76.5q0 28 -17 47.5t-51 19.5q-40 0 -112 -53zM119 -106h178v-201h-178v201z" />
<glyph horiz-adv-x="520" d="M27 1567q108 96 231 96q97 0 160 -60.5t63 -158.5q0 -169 -211 -268l-8 -103h-108l-9 209q76 30 112 63t36 76q0 28 -17 48t-51 20q-40 0 -112 -53zM119 788v201h178v-201h-178z" />
<glyph horiz-adv-x="753" d="M98 -307v860h187v-322h184v322h186v-860h-186v364h-184v-364h-187z" />
<glyph horiz-adv-x="559" d="M59 125q0 165 62 249.5t155 84.5h19l16 94h68l-19 -109l21 -6l18 115h70l-23 -141q26 -12 62 -35l-70 -148q-1 1 -13 8.5t-14.5 9t-14 8.5t-16 9.5t-14.5 7.5t-15.5 7t-13.5 5t-15 4t-13 1q-67 0 -67 -164q0 -168 67 -168q11 0 23.5 3.5t28 11t25.5 13t28 17t24 14.5 l70 -145q-84 -57 -164 -76l-16 -102h-70l14 94q-12 0 -20 2l-14 -96h-70l18 117q-127 74 -127 315z" />
<glyph horiz-adv-x="763" d="M76 590q0 116 25 206t67.5 144t96 81.5t114.5 27.5l22 -2l23 129h96l-24 -146l26 -8l27 154h94l-33 -193q3 -1 88 -49l-96 -199q-7 4 -32.5 19.5t-39.5 23.5t-36 18.5t-39.5 15.5t-32.5 5q-50 0 -75 -60.5t-25 -166.5t25.5 -168t74.5 -62q13 0 29 4t29 9t33 15.5t30 16.5 t32 19t27 16l96 -198q-123 -79 -231 -103l-23 -139h-92l21 129q-19 0 -29 2l-20 -131h-97l27 162q-81 47 -129.5 154t-48.5 274z" />
<glyph horiz-adv-x="352" d="M88 68v219h176v-219h-176zM88 -88h176v-219h-176v219z" />
<glyph horiz-adv-x="673" d="M23 788l202 435l-192 426h211l94 -279l94 279h211l-192 -424l202 -437h-215l-100 271l-100 -271h-215z" />
<glyph horiz-adv-x="524" d="M47 16q0 166 62.5 251t156.5 85q81 0 217 -78l-71 -145q-3 2 -14 9t-14 8.5t-12 7.5t-13 7.5t-11.5 5.5t-12 5.5t-11 4t-11.5 3t-10 0.5q-74 0 -74 -164q0 -166 74 -166q34 0 109 52l71 -146q-136 -78 -217 -78q-94 0 -156.5 86t-62.5 252z" />
<glyph horiz-adv-x="759" d="M72 590q0 209 77 325t195 132v129h172v-152q78 -27 178 -90l-102 -193q-3 2 -30 19t-37 22t-31 16t-36.5 15t-29.5 4q-111 0 -111 -227q0 -107 27.5 -168.5t83.5 -61.5q14 0 29.5 4t36.5 15t31 16t37 22t30 19l102 -194q-93 -59 -178 -88v-154h-172v131 q-119 16 -195.5 132t-76.5 327z" />
<glyph horiz-adv-x="1028" d="M37 864v156h92v156h254v-156h262v156h252v-156h92v-156h-92v-864h-252v500h-262v-500h-254v864h-92zM383 733h262v131h-262v-131z" />
<glyph horiz-adv-x="995" d="M113 0v1176h254v-443h262v443h252v-1176h-252v500h-262v-500h-254z" />
<glyph horiz-adv-x="714" d="M61 1223q0 216 73.5 328t199.5 112q52 0 110.5 -19t91.5 -36.5t95 -53.5l-82 -153q-9 5 -34.5 18t-35.5 18t-30 14.5t-32 13t-27 7t-28 3.5q-110 0 -110 -271q0 -252 108 -252q32 0 59 26.5t44 59.5v86h-123v164h295v-500h-172v76q-76 -90 -156 -90q-105 0 -175.5 115 t-70.5 334z" />
<glyph horiz-adv-x="905" d="M23 1176h278l150 -441l153 441h277l-303 -709v-467h-252v467z" />
<glyph horiz-adv-x="714" d="M61 127q0 216 73.5 328t199.5 112q52 0 110 -18.5t92.5 -36.5t94.5 -53l-82 -154q-9 5 -34.5 18t-35.5 18t-30 14.5t-32 13t-27 7t-28 3.5q-110 0 -110 -270q0 -252 108 -252q32 0 59 26.5t44 59.5v86h-123v164h295v-500h-172v76q-77 -91 -156 -91q-105 0 -175.5 115 t-70.5 334z" />
<glyph d="M72 592q0 297 102 449.5t275 152.5q71 0 149 -24t131 -51t129 -72l-110 -209q-10 5 -40.5 21t-42 22t-36.5 18t-39 17t-33.5 12t-36 9.5t-31.5 2.5q-159 0 -159 -373q0 -153 37.5 -249.5t115.5 -96.5q81 0 148 121v119h-172v223h407v-684h-235v106q-102 -124 -217 -124 q-146 0 -244 156t-98 454zM371 1282v236h196v-236h-196z" />
<glyph d="M72 592q0 297 102 449.5t275 152.5q71 0 149 -24t131 -51t129 -72l-110 -209q-10 5 -40.5 21t-42 22t-36.5 18t-39 17t-33.5 12t-36 9.5t-31.5 2.5q-159 0 -159 -373q0 -153 37.5 -249.5t115.5 -96.5q81 0 148 121v119h-172v223h407v-684h-235v106q-102 -124 -217 -124 q-146 0 -244 156t-98 454zM395 -532l84 170h-82v245h185l10 -270l-148 -215z" />
<glyph horiz-adv-x="462" d="M84 -307v645h178v-135q7 21 17 40.5t29.5 47.5t52 43t71.5 12v-190q-43 0 -76.5 -21t-50.5 -51t-27.5 -60.5t-13.5 -51.5l-2 -21v-258h-178z" />
<glyph horiz-adv-x="905" d="M23 1176h278l150 -441l153 441h277l-303 -709v-467h-252v467zM287 1262l176 282h285l-246 -282h-215z" />
<glyph horiz-adv-x="905" d="M23 1176h278l150 -441l153 441h277l-303 -709v-467h-252v467zM219 1282v236h195v-236h-195zM494 1282v236h194v-236h-194z" />
<glyph d="M72 592q0 297 102 449.5t275 152.5q71 0 149 -24t131 -51t129 -72l-110 -209q-10 5 -40.5 21t-42 22t-36.5 18t-39 17t-33.5 12t-36 9.5t-31.5 2.5q-159 0 -159 -373q0 -153 37.5 -249.5t115.5 -96.5q81 0 148 121v119h-172v223h407v-684h-235v106q-102 -124 -217 -124 q-146 0 -244 156t-98 454zM217 1513h156q0 -42 25.5 -66t68.5 -24q45 0 71.5 24t26.5 66h156q0 -117 -67 -184t-187 -67q-118 0 -184 67t-66 184z" />
<glyph horiz-adv-x="1783" d="M49 117l111 198q64 -43 140.5 -76.5t125.5 -33.5q34 0 59 20t25 58q0 27 -11.5 48.5t-38 40.5t-48.5 31t-64 31q-47 22 -78.5 39.5t-74.5 49.5t-68.5 65.5t-44.5 85t-19 110.5q0 135 84 224.5t234 89.5q83 0 172 -29q-16 56 -16 119q0 141 70 223t210 82h371v-549 q44 41 64 57.5t60 45t79.5 40t83.5 11.5q104 0 159.5 -80.5t55.5 -222.5v-795h-265v741q0 127 -71 127q-81 0 -166 -139v-729h-264v1360h-113q-71 0 -115.5 -54t-44.5 -149q0 -81 29 -141q37 -18 63 -35l-108 -190q-138 79 -221 79q-37 0 -61.5 -20t-24.5 -57 q0 -14 4.5 -26.5t9 -22t17 -20t20 -16.5t25.5 -15.5t25.5 -13t29.5 -13.5t28 -13q60 -28 107 -58.5t91 -74.5t68.5 -103t24.5 -130q0 -135 -86.5 -222.5t-238.5 -87.5q-107 0 -219.5 42.5t-184.5 97.5z" />
<glyph horiz-adv-x="1724" d="M49 117l111 198q64 -43 140.5 -76.5t125.5 -33.5q34 0 59 20t25 58q0 27 -11.5 48.5t-38 40.5t-48.5 31t-64 31q-47 22 -78.5 39.5t-74.5 49.5t-68.5 65.5t-44.5 85t-19 110.5q0 135 84 224.5t234 89.5q83 0 172 -29q-16 56 -16 119q0 141 70 223t210 82h371v-819 l190 401h299l-262 -428l303 -647h-276l-176 403l-78 -129v-274h-264v1360h-113q-71 0 -115.5 -54t-44.5 -149q0 -81 29 -141q37 -18 63 -35l-108 -190q-138 79 -221 79q-37 0 -61.5 -20t-24.5 -57q0 -14 4.5 -26.5t9 -22t17 -20t20 -16.5t25.5 -15.5t25.5 -13t29.5 -13.5 t28 -13q60 -28 107 -58.5t91 -74.5t68.5 -103t24.5 -130q0 -135 -86.5 -222.5t-238.5 -87.5q-107 0 -219.5 42.5t-184.5 97.5z" />
<glyph horiz-adv-x="1294" d="M49 117l111 198q64 -43 140.5 -76.5t125.5 -33.5q34 0 59 20t25 58q0 27 -11.5 48.5t-38 40.5t-48.5 31t-64 31q-47 22 -78.5 39.5t-74.5 49.5t-68.5 65.5t-44.5 85t-19 110.5q0 135 84 224.5t234 89.5q83 0 172 -29q-16 56 -16 119q0 141 70 223t210 82h375v-1493h-264 v1360h-117q-71 0 -115.5 -54t-44.5 -149q0 -81 29 -141q37 -18 63 -35l-108 -190q-138 79 -221 79q-37 0 -61.5 -20t-24.5 -57q0 -14 4.5 -26.5t9 -22t17 -20t20 -16.5t25.5 -15.5t25.5 -13t29.5 -13.5t28 -13q60 -28 107 -58.5t91 -74.5t68.5 -103t24.5 -130 q0 -135 -86.5 -222.5t-238.5 -87.5q-107 0 -219.5 42.5t-184.5 97.5z" />
<glyph horiz-adv-x="905" d="M23 1176h278l150 -441l153 441h277l-303 -709v-467h-252v467zM164 1544h282l179 -282h-213z" />
<glyph d="M72 592q0 297 102 449.5t275 152.5q71 0 149 -24t131 -51t129 -72l-110 -209q-10 5 -40.5 21t-42 22t-36.5 18t-39 17t-33.5 12t-36 9.5t-31.5 2.5q-159 0 -159 -373q0 -153 37.5 -249.5t115.5 -96.5q81 0 148 121v119h-172v223h407v-684h-235v106q-102 -124 -217 -124 q-146 0 -244 156t-98 454z" />
<glyph horiz-adv-x="614" d="M98 788v861h473v-176h-286v-168h225v-175h-225v-342h-187z" />
<glyph horiz-adv-x="614" d="M98 -307v860h473v-176h-286v-168h225v-174h-225v-342h-187z" />
<glyph horiz-adv-x="813" d="M113 0v1176h655v-240h-403v-234h315v-231h-315v-471h-252z" />
<glyph horiz-adv-x="698" d="M47 1085v89h53v83h-53v89h59q20 158 89 237.5t174 79.5q48 0 101 -17.5t87 -35.5t94 -54l-82 -151q-12 6 -38.5 20t-38.5 20t-31.5 14.5t-34.5 12t-29 3.5q-75 0 -98 -129h166v-89h-174v-83h174v-89h-164q22 -122 96 -122q10 0 20.5 1.5t23.5 6.5t22 8t25.5 11.5 t24.5 12.5t28.5 15.5t27.5 15.5l82 -153q-60 -36 -94 -54t-87 -35.5t-101 -17.5q-105 0 -172.5 78t-87.5 233h-62z" />
<glyph horiz-adv-x="696" d="M47 -10v88h53v84h-53v88h59q20 158 89 237.5t174 79.5q48 0 100.5 -17t87.5 -35.5t94 -53.5l-82 -152q-12 6 -38.5 20t-38.5 20t-31.5 14.5t-34.5 12t-29 3.5q-75 0 -98 -129h166v-88h-174v-84h174v-88h-164q22 -123 96 -123q12 0 26 3t24.5 7t29 13t28 13.5t32.5 17.5 t32 18l82 -154q-60 -36 -94 -54t-87 -35.5t-101 -17.5q-105 0 -172.5 79t-87.5 233h-62z" />
<glyph horiz-adv-x="962" d="M63 401v125h72v113h-72v125h82q27 214 121 322t238 108q98 0 187.5 -36.5t205.5 -108.5l-113 -205q-11 6 -37.5 20.5t-38.5 20.5l-34 17t-35 16t-30.5 11t-32.5 8.5t-29 2.5q-107 0 -139 -176h233v-125h-248v-113h248v-125h-231q36 -165 137 -165q30 0 69.5 14t66 27.5 t83.5 45.5q13 7 20 11l111 -207q-116 -72 -205.5 -108.5t-187.5 -36.5q-142 0 -236.5 104.5t-122.5 314.5h-82z" />
<glyph horiz-adv-x="356" d="M88 -446l80 139h-78v219h176l10 -246l-141 -178zM90 68v219h176v-219h-176z" />
<glyph horiz-adv-x="356" d="M88 649l80 139h-78v220h176l10 -246l-141 -178zM90 1163v219h176v-219h-176z" />
<glyph horiz-adv-x="645" d="M10 553h207l105 -313l106 313h205l-217 -518v-342h-187v338z" />
<glyph horiz-adv-x="1454" d="M61 539q0 141 28 250t77 175.5t111 100t133 33.5q61 0 137 -27q-15 49 -15 109q0 142 84.5 227.5t233.5 85.5q161 0 253.5 -105.5t92.5 -289.5v-23h199v-217h-199v-522q0 -103 51 -103q28 0 107 43l90 -213q-158 -86 -268 -86q-126 0 -184 81t-58 255v545h-100v217h100 v45q0 240 -133 240q-69 0 -111.5 -54.5t-42.5 -148.5q0 -81 33 -149q14 -7 37 -21.5t33 -19.5l-111 -213q-12 8 -46 31.5t-49 32t-39.5 18.5t-43.5 10q-64 0 -97.5 -83t-33.5 -224t33 -225.5t96 -84.5q21 0 48.5 10.5t43.5 20.5t48.5 32t39.5 27l111 -210 q-55 -35 -94.5 -57.5t-112.5 -48.5t-133 -26q-71 0 -133 34.5t-111 101.5t-77 176.5t-28 249.5z" />
<glyph horiz-adv-x="540" d="M45 690v170h463v-158q-9 -14 -23.5 -39.5t-52 -104.5t-66 -158t-52 -189.5t-23.5 -210.5h-191q0 93 20.5 195.5t46 177.5t61 153t52 108t31.5 56h-266z" />
<glyph horiz-adv-x="540" d="M45 1264v170h463v-158q-9 -14 -23.5 -39.5t-52 -104.5t-66 -158.5t-52 -190t-23.5 -210.5h-191q0 93 20.5 196t46 178t61 153t52 108t31.5 56h-266z" />
<glyph horiz-adv-x="808" d="M47 922v254h731v-236q-14 -24 -38 -67t-84.5 -177.5t-107 -269.5t-84.5 -324t-38 -360h-283q0 161 34 340t77.5 311t99 261.5t83.5 182.5t46 85h-436z" />
<glyph horiz-adv-x="1255" d="M61 539q0 141 28 250t77 175.5t111 100t133 33.5q63 0 139 -27q-17 56 -17 117q0 140 68.5 222.5t202.5 82.5h350v-1493h-264v1360h-90q-67 0 -109.5 -54t-42.5 -147q0 -90 33 -151q65 -38 70 -41l-111 -213q-12 8 -46 31.5t-49 32t-39.5 18.5t-43.5 10q-64 0 -97.5 -83 t-33.5 -224t33 -225.5t96 -84.5q21 0 48.5 10.5t43.5 20.5t48.5 32t39.5 27l111 -210q-55 -35 -94.5 -57.5t-112.5 -48.5t-133 -26q-71 0 -133 34.5t-111 101.5t-77 176.5t-28 249.5z" />
<glyph horiz-adv-x="1685" d="M61 539q0 141 28 250t77 175.5t111 100t133 33.5q63 0 139 -27q-17 56 -17 117q0 140 68.5 222.5t202.5 82.5h346v-819l190 401h299l-262 -428l303 -647h-276l-176 403l-78 -129v-274h-264v1360h-86q-67 0 -109.5 -54t-42.5 -147q0 -90 33 -151q65 -38 70 -41l-111 -213 q-12 8 -46 31.5t-49 32t-39.5 18.5t-43.5 10q-64 0 -97.5 -83t-33.5 -224t33 -225.5t96 -84.5q21 0 48.5 10.5t43.5 20.5t48.5 32t39.5 27l111 -210q-55 -35 -94.5 -57.5t-112.5 -48.5t-133 -26q-71 0 -133 34.5t-111 101.5t-77 176.5t-28 249.5z" />
<glyph horiz-adv-x="1163" d="M55 1040v136h398v-127q-8 -12 -21 -33t-46 -86t-58.5 -130.5t-46.5 -156.5t-21 -172h-156q0 254 189 569h-238zM244 0l399 1176h158l-400 -1176h-157zM639 182q0 122 127 201q-92 66 -92 162q0 74 53.5 123t146.5 49t147 -49t54 -123q0 -98 -92 -164q127 -75 127 -199 q0 -87 -61.5 -140.5t-174.5 -53.5q-111 0 -173 53.5t-62 140.5zM788 193q0 -36 24.5 -58t61.5 -22q39 0 63 22t24 58q0 71 -87 126q-86 -54 -86 -126zM811 535q0 -61 63 -97q64 39 64 97q0 25 -17.5 43t-46.5 18q-30 0 -46.5 -18t-16.5 -43z" />
<glyph horiz-adv-x="1744" d="M61 539q0 141 28 250t77 175.5t111 100t133 33.5q63 0 139 -27q-17 56 -17 117q0 140 68.5 222.5t202.5 82.5h346v-549q44 41 64 57.5t60 45t79.5 40t83.5 11.5q104 0 159.5 -80.5t55.5 -222.5v-795h-265v741q0 127 -71 127q-81 0 -166 -139v-729h-264v1360h-86 q-67 0 -109.5 -54t-42.5 -147q0 -90 33 -151q65 -38 70 -41l-111 -213q-12 8 -46 31.5t-49 32t-39.5 18.5t-43.5 10q-64 0 -97.5 -83t-33.5 -224t33 -225.5t96 -84.5q21 0 48.5 10.5t43.5 20.5t48.5 32t39.5 27l111 -210q-55 -35 -94.5 -57.5t-112.5 -48.5t-133 -26 q-71 0 -133 34.5t-111 101.5t-77 176.5t-28 249.5z" />
<glyph horiz-adv-x="649" d="M12 1649h207l105 -314l106 314h205l-217 -519v-342h-187v338z" />
<glyph horiz-adv-x="550" d="M41 -236l70 125q36 -23 86 -44t82 -21q21 0 35 12t14 35q0 25 -20.5 39.5t-76.5 38.5q-38 17 -63.5 31.5t-56 39t-46.5 59.5t-16 79q0 82 55 138t152 56q114 0 231 -71l-65 -117q-96 47 -139 47q-52 0 -52 -45q0 -10 4.5 -18.5t10 -14.5t17.5 -13t19 -10.5t23.5 -10 t22.5 -9.5q38 -16 66.5 -33t56.5 -42.5t43.5 -61.5t15.5 -80q0 -85 -55 -140t-154 -55q-68 0 -140.5 26.5t-119.5 59.5z" />
<glyph horiz-adv-x="995" d="M37 479v219h90v478h289q255 0 381.5 -140t126.5 -448t-126.5 -448t-381.5 -140h-289v479h-90zM379 240h47q81 0 133 29.5t82.5 108t30.5 210.5t-30.5 210.5t-82.5 108t-133 29.5h-47v-238h153v-219h-153v-239z" />
<glyph horiz-adv-x="645" d="M59 365q-1 227 109 368t287 141q27 0 52 -3.5t37 -6.5l11 -4l-41 -162q-28 9 -57 9q-65 0 -119.5 -51.5t-77.5 -159.5q52 61 129 61q90 0 148.5 -75t58.5 -193q0 -132 -70.5 -217.5t-191.5 -85.5q-137 0 -206 106t-69 273zM246 340q0 -94 24 -140t64 -46q39 0 57.5 37.5 t18.5 87.5q0 55 -19.5 89.5t-58.5 34.5q-30 0 -53 -18.5t-33 -44.5z" />
<glyph horiz-adv-x="645" d="M59 938q-1 227 109 368.5t287 141.5q27 0 52 -3.5t37 -6.5l11 -4l-41 -162q-28 8 -57 8q-65 0 -119.5 -51.5t-77.5 -159.5q52 61 129 61q90 0 148.5 -75t58.5 -193q0 -132 -70.5 -217.5t-191.5 -85.5q-137 0 -206 106t-69 273zM246 913q0 -94 24 -140t64 -46 q39 0 57.5 37.5t18.5 87.5q0 55 -19.5 90t-58.5 35q-30 0 -53 -19t-33 -45z" />
<glyph horiz-adv-x="976" d="M78 602q0 192 45.5 351.5t126.5 270t195.5 171.5t250.5 61q42 0 81.5 -5.5t58.5 -10.5l18 -6l-63 -240q-44 12 -91 12q-109 0 -200 -98t-127 -299q82 115 217 115q144 0 234.5 -125.5t90.5 -321.5q0 -142 -46.5 -254t-140 -179t-220.5 -67q-87 0 -159 32.5t-121.5 90 t-83.5 136.5t-50 171t-16 195zM354 565q1 -165 42 -251.5t112 -86.5q46 0 78 37.5t44.5 88.5t12.5 110q0 98 -34 164.5t-101 66.5q-54 0 -95.5 -39.5t-58.5 -89.5z" />
<glyph horiz-adv-x="430" d="M129 -207v694h174v-694h-174zM129 680v694h174v-694h-174z" />
<glyph horiz-adv-x="866" d="M61 0v211l424 725h-397v240h700v-209l-421 -727h430v-240h-736z" />
<glyph horiz-adv-x="423" d="M45 612v117h98v975h-98v115h285v-1207h-285z" />
<glyph horiz-adv-x="636" d="M98 788v861h473v-176h-286v-166h233v-174h-233v-168h290v-177h-477z" />
<glyph horiz-adv-x="643" d="M31 -152l395 1479h178l-395 -1479h-178z" />
<glyph horiz-adv-x="847" d="M113 0v1176h655v-240h-403v-231h325v-234h-325v-231h409v-240h-6q-35 -30 -58 -53.5t-46 -63t-23 -76.5q0 -17 4 -29.5t12 -20t16 -12t20 -6t18.5 -2t18 0t13.5 0.5l-22 -135h-8q-234 -4 -234 176q0 127 135 221h-501z" />
<glyph horiz-adv-x="253" />
<glyph horiz-adv-x="253" />
<glyph horiz-adv-x="423" d="M45 -367h98v975h-98v115h285v-1206h-285v116z" />
<glyph horiz-adv-x="1013" d="M113 0v1176h254l280 -709v709h254v-1063q0 -73 -1.5 -107t-10.5 -81.5t-27.5 -71.5t-53.5 -55.5t-87.5 -55t-130.5 -51.5l-82 207q69 32 96.5 54.5t36.5 57.5l-276 703v-713h-252z" />
<glyph horiz-adv-x="802" d="M82 0v188q5 3 13.5 8t31 25.5t40.5 44t35 63.5t21 85h-129v159h111q-9 27 -38 96t-43.5 125t-14.5 119q0 132 72 206.5t202 74.5q161 0 350 -147l-119 -170q-109 84 -174 84q-38 0 -58 -22.5t-20 -64.5q0 -52 40.5 -147t52.5 -154h186v-159h-180q-14 -107 -72 -181h332 v-233h-639z" />
<glyph horiz-adv-x="591" d="M68 -168q4 2 10 5.5t22.5 18t29.5 31.5t25 46.5t15 62.5h-94v117h80q-7 22 -27.5 70.5t-31.5 89t-11 87.5q0 97 52.5 152t146.5 55q122 0 256 -110l-88 -125q-77 61 -127 61q-52 0 -52 -61q0 -37 28 -106t36 -113h135v-117h-129q-11 -80 -49 -131h235v-172h-462v139z" />
<glyph horiz-adv-x="591" d="M68 788v140q4 2 10 5.5t22.5 18t29.5 31.5t25 46.5t15 62.5h-94v116h80q-7 22 -27.5 70.5t-31.5 89.5t-11 88q0 97 52.5 152t146.5 55q120 0 256 -111l-88 -125q-79 62 -127 62q-25 0 -38.5 -16.5t-13.5 -45.5q0 -37 28 -106t36 -113h135v-116h-129q-11 -80 -49 -131h235 v-173h-462z" />
<glyph horiz-adv-x="577" d="M63 -82h136v1335h-136v156h388v-1649h-388v158z" />
<glyph horiz-adv-x="847" d="M113 0v1176h655v-240h-403v-231h325v-234h-325v-231h409v-240h-661zM219 1313v174h447v-174h-447z" />
<glyph horiz-adv-x="636" d="M98 -307v860h473v-176h-286v-166h233v-174h-233v-168h290v-176h-477z" />
<glyph horiz-adv-x="847" d="M113 0v1176h655v-240h-403v-231h325v-234h-325v-231h409v-240h-661zM150 1544h282l178 -282h-213z" />
<glyph horiz-adv-x="847" d="M113 0v1176h655v-240h-403v-231h325v-234h-325v-231h409v-240h-661zM344 1282v236h197v-236h-197z" />
<glyph horiz-adv-x="847" d="M113 0v1176h655v-240h-403v-231h325v-234h-325v-231h409v-240h-661zM209 1282v236h194v-236h-194zM483 1282v236h195v-236h-195z" />
<glyph horiz-adv-x="847" d="M113 0v1176h655v-240h-403v-231h325v-234h-325v-231h409v-240h-661zM168 1262l154 282h241l156 -282h-178l-99 153l-98 -153h-176z" />
<glyph horiz-adv-x="626" d="M37 94l86 137q103 -71 166 -71q40 0 67 27t27 69q0 43 -30.5 71t-64.5 36t-69 8h-20v168h26q45 0 88 24t43 72q0 28 -16.5 46.5t-50.5 18.5q-61 0 -146 -61l-80 123q126 112 263 112q101 0 158 -59t57 -145q0 -125 -111 -195q62 -27 99.5 -86.5t37.5 -140.5 q0 -49 -14 -94t-42.5 -83.5t-78.5 -61.5t-115 -23q-144 0 -280 108z" />
<glyph horiz-adv-x="626" d="M37 668l86 137q104 -72 166 -72q40 0 67 27t27 69q0 43 -30.5 71t-64.5 36t-69 8h-20v168h26q45 0 88 24t43 72q0 28 -16.5 47t-50.5 19q-59 0 -146 -62l-80 123q128 113 263 113q101 0 158 -59.5t57 -145.5q0 -124 -111 -194q62 -27 99.5 -87t37.5 -141q0 -49 -14 -94 t-42.5 -83.5t-78.5 -61.5t-115 -23q-143 0 -280 109z" />
<glyph horiz-adv-x="931" d="M35 -115l131 205q165 -115 264 -115q69 0 113.5 51t44.5 134q0 59 -27 103.5t-69.5 67.5t-85 33.5t-82.5 10.5h-35v252h41q33 0 69 10.5t70 31.5t56 57.5t22 82.5q0 55 -29.5 91t-89.5 36q-95 0 -227 -102l-123 186q205 174 405 174q160 0 249 -96.5t89 -239.5 q0 -107 -50 -192t-132 -138q101 -42 163 -144t62 -239q0 -64 -13 -123.5t-43.5 -116t-75 -98.5t-112.5 -67t-151 -25q-71 0 -143 18.5t-129 48t-95 54.5t-67 49z" />
<glyph horiz-adv-x="868" d="M63 0v211l424 725h-397v240h701v-209l-422 -727h430v-240h-736zM274 1262l177 282h284l-246 -282h-215z" />
<glyph horiz-adv-x="423" d="M94 612v1207h285v-117h-98v-975h98v-115h-285z" />
<glyph horiz-adv-x="1298" d="M55 547l72 108q86 -57 143 -57q37 0 62.5 22.5t25.5 57.5q0 37 -26.5 60.5t-56.5 30.5t-62 7h-18v135h22q42 0 80.5 20t38.5 60q0 25 -17 41.5t-49 16.5q-50 0 -125 -52l-65 99q107 92 221 92q87 0 135.5 -49t48.5 -119q0 -104 -100 -160q56 -22 89.5 -71.5t33.5 -116.5 q0 -54 -20 -100t-70.5 -79.5t-124.5 -33.5t-137 28.5t-101 59.5zM379 0l399 1176h158l-401 -1176h-156zM774 182q0 124 125 201q-92 66 -92 162q0 74 54 123t147 49t146.5 -49t53.5 -123q0 -98 -92 -164q127 -75 127 -199q0 -87 -61.5 -140.5t-173.5 -53.5q-110 0 -172 53.5 t-62 140.5zM924 193q0 -36 23.5 -58t60.5 -22q40 0 64 21.5t24 58.5q0 70 -88 126q-84 -55 -84 -126zM944 535q0 -58 64 -97q63 36 63 97q0 25 -16.5 43t-46.5 18t-47 -18t-17 -43z" />
<glyph horiz-adv-x="1302" d="M57 547l70 108q89 -57 145 -57q37 0 62.5 22.5t25.5 57.5q0 37 -27 60.5t-57.5 30.5t-62.5 7h-18v135h22q42 0 80.5 20t38.5 60q0 25 -16.5 41.5t-47.5 16.5q-52 0 -127 -52l-65 99q107 92 221 92q87 0 135.5 -49t48.5 -119q0 -104 -100 -160q56 -22 89.5 -71.5 t33.5 -116.5q0 -86 -53 -149.5t-162 -63.5q-128 0 -236 88zM379 0l399 1176h158l-399 -1176h-158zM793 80l69 115q82 -66 135 -66q38 0 63 28t25 72q0 43 -22 73t-66 30q-45 0 -94 -39l-82 49l31 363h365v-136h-238l-4 -114q36 8 61 8q96 0 148.5 -67t52.5 -165 q0 -103 -55.5 -173t-163.5 -70q-121 0 -225 92z" />
<glyph horiz-adv-x="423" d="M94 -483v1206h285v-117h-98v-975h98v-114h-285z" />
<glyph horiz-adv-x="847" d="M113 0v1176h655v-240h-403v-231h325v-234h-325v-231h409v-240h-661zM168 1544h176l98 -151l99 151h178l-156 -282h-241z" />
<glyph horiz-adv-x="1284" d="M55 551l70 108q91 -63 149 -63q36 0 61 24t25 60t-26.5 59t-56 30t-60.5 7h-22v135h26q41 0 78 19t37 59q0 24 -16.5 42t-47.5 18q-49 0 -129 -56l-63 101q109 94 221 94q87 0 135.5 -50t48.5 -122q0 -103 -94 -156q53 -24 85 -72.5t32 -113.5q0 -87 -53 -151t-158 -64 q-74 0 -138 29.5t-104 62.5zM377 0l399 1176h156l-400 -1176h-155zM715 133v113l235 459h197v-437h80v-135h-80v-133h-148v133h-284zM850 268h149v291z" />
<glyph horiz-adv-x="847" d="M113 0v1176h655v-240h-403v-231h325v-234h-325v-231h409v-240h-661zM276 1262l177 282h284l-245 -282h-216z" />
<glyph horiz-adv-x="577" d="M127 -240v1649h387v-158h-135v-1335h135v-156h-387z" />
<glyph horiz-adv-x="460" d="M35 190v148h63v145l178 41v-186h125v-148h-125v-278q0 -26 5.5 -39.5t11 -16.5t14.5 -3q16 0 64 24l59 -143q-104 -56 -172 -56q-84 0 -122 54t-38 166v292h-63z" />
<glyph horiz-adv-x="868" d="M63 0v211l424 725h-397v240h701v-209l-422 -727h430v-240h-736zM164 1544h176l98 -151l99 151h178l-156 -282h-242z" />
<glyph horiz-adv-x="430" d="M51 612v111h17q78 0 65 166l-8 94q-7 105 29 159.5t114 74.5q-80 18 -116 72t-27 159l8 92q13 166 -65 166h-17v113h17q127 0 196 -74t55 -221l-10 -115q-7 -67 10.5 -101t71.5 -34v-119q-54 0 -71 -33.5t-11 -101.5l10 -113q14 -147 -55 -221t-196 -74h-17z" />
<glyph horiz-adv-x="847" d="M113 0v1176h655v-240h-403v-231h325v-234h-325v-231h409v-240h-661z" />
<glyph horiz-adv-x="628" d="M51 0v90q0 60 16 113t49.5 100t56.5 72.5t65 66.5q49 47 71 70.5t45 59.5t23 65q0 28 -19 46.5t-51 18.5q-59 0 -151 -71l-88 127q129 116 266 116q109 0 169 -67.5t60 -163.5q0 -49 -16 -95.5t-47 -89t-51 -64.5t-54 -56l-3.5 -3.5l-3 -3l-3.5 -3.5q-58 -53 -83.5 -87.5 t-25.5 -70.5h287v-170h-512z" />
<glyph horiz-adv-x="628" d="M51 573v91q0 60 16 113t49.5 100t56.5 72.5t65 66.5q50 49 71.5 71t44.5 58.5t23 64.5t-19 47t-51 19q-58 0 -151 -72l-88 127q130 117 266 117q109 0 169 -67.5t60 -163.5q0 -42 -15 -86t-29 -70.5t-48.5 -67.5t-43 -49.5l-42.5 -42.5q-58 -53 -83.5 -87.5t-25.5 -70.5 h287v-170h-512z" />
<glyph horiz-adv-x="925" d="M66 0v137q0 60 14.5 114.5t37 97t58.5 85.5t71 74.5t83 69.5q15 11 51.5 39t51.5 40.5t43 36t41 39t28.5 36t21.5 40t6 39.5q0 46 -27.5 74t-76.5 28q-86 0 -244 -129l-135 193q200 180 416 180q154 0 244 -90.5t90 -235.5q0 -49 -12 -95.5t-28 -82.5t-47 -74.5t-55 -64 t-65.5 -59.5t-65 -51t-67.5 -48l-6 -4.5t-5 -3.5l-6 -4q-49 -35 -74.5 -65t-35.5 -68h469v-248h-776z" />
<glyph horiz-adv-x="430" d="M51 -373h17q78 0 65 166l-8 94q-7 105 29 159.5t114 74.5q-80 18 -116 72t-27 159l8 92q13 166 -65 166h-17v113h17q127 0 196 -74t55 -221l-10 -115q-7 -67 10.5 -101t71.5 -34v-119q-54 0 -71 -33.5t-11 -101.5l10 -112q14 -147 -55 -221t-196 -74h-17v110z" />
<glyph horiz-adv-x="1333" d="M63 471v72q0 50 14 93.5t42.5 81.5t49 59.5t56.5 53.5q42 38 62.5 58t40.5 50t20 54q0 25 -18.5 41.5t-48.5 16.5q-41 0 -134 -60l-69 103q106 94 225 94q91 0 143 -55.5t52 -133.5q0 -34 -12.5 -70t-26.5 -59.5t-42 -55t-38.5 -42t-38.5 -35.5q-52 -44 -74 -71.5 t-22 -59.5h254v-135h-435zM414 0l399 1176h158l-402 -1176h-155zM825 80l72 115q82 -66 133 -66q38 0 63 28t25 72q0 43 -22 73t-66 30q-45 0 -94 -39l-80 49l29 363h364v-136h-237l-4 -114q36 8 61 8q98 0 149.5 -66.5t51.5 -165.5q0 -103 -55.5 -173t-161.5 -70 q-118 0 -228 92z" />
<glyph horiz-adv-x="595" d="M68 -86h22q113 0 96 229l-10 125q-12 147 39 220.5t164 97.5q-113 23 -164 96t-39 219l10 127q17 229 -96 229h-22v152h22q85 0 152 -23.5t115.5 -71.5t70 -126.5t10.5 -181.5l-14 -156q-10 -91 15 -137.5t100 -46.5v-162q-75 0 -99 -45.5t-16 -139.5l14 -155 q18 -202 -77.5 -303t-270.5 -101h-22v154z" />
<glyph horiz-adv-x="737" d="M98 788v861h211q184 0 275.5 -102.5t91.5 -327.5q0 -226 -91.5 -328.5t-275.5 -102.5h-211zM285 965h32q85 0 128.5 56t43.5 198t-43.5 198t-128.5 56h-32v-508z" />
<glyph horiz-adv-x="868" d="M63 0v211l424 725h-397v240h701v-209l-422 -727h430v-240h-736zM340 1282v236h197v-236h-197z" />
</font>
</defs>
</svg>
