<?xml version="1.0" standalone="no"?>
<!DOCTYPE svg PUBLIC "-//W3C//DTD SVG 1.1//EN" "http://www.w3.org/Graphics/SVG/1.1/DTD/svg11.dtd" >
<svg xmlns="http://www.w3.org/2000/svg">
<metadata></metadata>
<defs>
<font id="verbexcondextrabold_italic" horiz-adv-x="1202" >
<font-face units-per-em="2048" ascent="1638" descent="-410" />
<missing-glyph horiz-adv-x="421" />
<glyph unicode="ff" horiz-adv-x="1419" d="M-184 -221q54 20 88 35t61 36t40 35.5t25 47.5t17.5 57.5t15.5 79.5l134 759h-117l45 246h115l4 25q35 202 111.5 297.5t222.5 95.5q152 0 346 -111l-148 -215q-92 37 -133 37q-24 0 -45.5 -20.5t-30.5 -71.5l-6 -37h207l-45 -246h-205l-129 -733q-35 -195 -60 -263 q-42 -111 -135 -175q-97 -67 -311 -125zM524 -221q54 20 88 35t61 36t40.5 35.5t25.5 47.5t17.5 57.5t15.5 79.5l133 759h-117l46 246h114l4 25q35 202 111.5 297.5t222.5 95.5q152 0 346 -111l-147 -215q-93 37 -133 37q-24 0 -45.5 -20.5t-30.5 -71.5l-6 -37h207l-45 -246 h-205l-129 -733q-35 -195 -60 -263q-42 -111 -135 -175q-97 -67 -311 -125z" />
<glyph unicode="fi" horiz-adv-x="1228" d="M-184 -221q46 17 77.5 31.5t56.5 28t41 32t27 33t19 44.5t13 53t13 69l134 759h-117l45 246h117l4 25q33 202 108 297.5t217 95.5q122 0 287 -90l-115 -227q-62 28 -100 28q-24 0 -45.5 -20.5t-30.5 -71.5l-6 -37h207l-45 -246h-205l-129 -733q-14 -81 -21 -118 t-22.5 -95t-30 -84t-41 -66t-59 -60.5t-81 -48.5t-109.5 -48.5t-142 -42.5zM700 0l191 1075h319l-190 -1075h-320zM907 1212l49 275h332l-47 -275h-334z" />
<glyph unicode="fl" horiz-adv-x="1232" d="M-184 -221q46 17 77.5 31.5t56.5 28t41 32t27 33t19 44.5t13 53t13 69l134 759h-117l45 246h117l4 25q33 202 108 297.5t217 95.5q122 0 287 -90l-115 -227q-62 28 -100 28q-24 0 -45.5 -20.5t-30.5 -71.5l-6 -37h207l-45 -246h-205l-129 -733q-14 -81 -21 -118 t-22.5 -95t-30 -84t-41 -66t-59 -60.5t-81 -48.5t-109.5 -48.5t-142 -42.5zM702 0l263 1493h319l-262 -1493h-320z" />
<glyph unicode="ffi" horiz-adv-x="1937" d="M-184 -221q54 20 88 35t61 36t40 35.5t25 47.5t17.5 57.5t15.5 79.5l134 759h-117l45 246h115l4 25q35 202 111.5 297.5t222.5 95.5q152 0 346 -111l-148 -215q-92 37 -133 37q-24 0 -45.5 -20.5t-30.5 -71.5l-6 -37h207l-45 -246h-205l-129 -733q-35 -195 -60 -263 q-42 -111 -135 -175q-97 -67 -311 -125zM524 -221q54 20 88 35t61 35.5t41 36t26 47.5t17.5 58t14.5 79l133 759h-117l46 246h116l4 25q33 202 108.5 297.5t217.5 95.5q122 0 287 -90l-115 -227q-62 28 -100 28q-24 0 -45.5 -20.5t-30.5 -71.5l-6 -37h207l-45 -246h-205 l-129 -733q-14 -81 -21 -118t-22.5 -95t-30 -84t-41 -66t-59 -60.5t-81 -48.5t-109.5 -48.5t-142 -42.5zM1409 0l190 1075h320l-190 -1075h-320zM1616 1212l49 275h332l-47 -275h-334z" />
<glyph unicode="ffl" horiz-adv-x="1941" d="M-184 -221q54 20 88 35t61 36t40 35.5t25 47.5t17.5 57.5t15.5 79.5l134 759h-117l45 246h115l4 25q35 202 111.5 297.5t222.5 95.5q152 0 346 -111l-148 -215q-92 37 -133 37q-24 0 -45.5 -20.5t-30.5 -71.5l-6 -37h207l-45 -246h-205l-129 -733q-35 -195 -60 -263 q-42 -111 -135 -175q-97 -67 -311 -125zM524 -221q54 20 88 35t61 35.5t41 36t26 47.5t17.5 58t14.5 79l133 759h-117l46 246h116l4 25q33 202 108.5 297.5t217.5 95.5q122 0 287 -90l-115 -227q-62 28 -100 28q-24 0 -45.5 -20.5t-30.5 -71.5l-6 -37h207l-45 -246h-205 l-129 -733q-14 -81 -21 -118t-22.5 -95t-30 -84t-41 -66t-59 -60.5t-81 -48.5t-109.5 -48.5t-142 -42.5zM1413 0l262 1493h320l-262 -1493h-320z" />
<glyph unicode="ffb" horiz-adv-x="2525" d="M-184 -221q54 20 88 35t61 36t40 35.5t25 47.5t17.5 57.5t15.5 79.5l134 759h-117l45 246h115l4 25q35 202 111.5 297.5t222.5 95.5q152 0 346 -111l-148 -215q-92 37 -133 37q-24 0 -45.5 -20.5t-30.5 -71.5l-6 -37h207l-45 -246h-205l-129 -733q-35 -195 -60 -263 q-42 -111 -135 -175q-97 -67 -311 -125zM524 -221q54 20 88 35t61 35.5t41 36t26 47.5t17.5 58t14.5 79l133 759h-117l46 246h116l4 25q33 202 108.5 297.5t217.5 95.5q122 0 287 -90l-115 -227q-62 28 -100 28q-24 0 -45.5 -20.5t-30.5 -71.5l-6 -37h207l-45 -246h-205 l-129 -733q-14 -81 -21 -118t-22.5 -95t-30 -84t-41 -66t-59 -60.5t-81 -48.5t-109.5 -48.5t-142 -42.5zM1411 0l262 1493h320l-92 -526q75 60 144 95.5t150 35.5q126 0 199.5 -96t73.5 -269q0 -107 -18.5 -214t-56.5 -204.5t-91 -172.5t-127 -120t-160 -45q-47 0 -87.5 11 t-74 33t-55.5 41.5t-49 48.5l-18 -111h-320zM1794 362q28 -54 66.5 -84t81.5 -30q60 0 106.5 71.5t68 167.5t21.5 189q0 70 -23.5 111.5t-72.5 41.5q-83 0 -189 -124z" />
<glyph unicode="ffh" horiz-adv-x="2519" d="M-184 -221q54 20 88 35t61 36t40 35.5t25 47.5t17.5 57.5t15.5 79.5l134 759h-117l45 246h115l4 25q35 202 111.5 297.5t222.5 95.5q152 0 346 -111l-148 -215q-92 37 -133 37q-24 0 -45.5 -20.5t-30.5 -71.5l-6 -37h207l-45 -246h-205l-129 -733q-35 -195 -60 -263 q-42 -111 -135 -175q-97 -67 -311 -125zM524 -221q54 20 88 35t61 35.5t41 36t26 47.5t17.5 58t14.5 79l133 759h-117l46 246h116l4 25q33 202 108.5 297.5t217.5 95.5q122 0 287 -90l-115 -227q-62 28 -100 28q-24 0 -45.5 -20.5t-30.5 -71.5l-6 -37h207l-45 -246h-205 l-129 -733q-14 -81 -21 -118t-22.5 -95t-30 -84t-41 -66t-59 -60.5t-81 -48.5t-109.5 -48.5t-142 -42.5zM1411 0l262 1493h320l-95 -535q184 140 328 140q140 0 198 -92t27 -269l-131 -737h-321l121 682q30 156 -56 156q-46 0 -103 -35t-106 -84l-124 -719h-320z" />
<glyph unicode="fb" horiz-adv-x="1816" d="M-184 -221q46 17 77.5 31.5t56.5 28t41 32t27 33t19 44.5t13 53t13 69l134 759h-117l45 246h117l4 25q33 202 108 297.5t217 95.5q122 0 287 -90l-115 -227q-62 28 -100 28q-24 0 -45.5 -20.5t-30.5 -71.5l-6 -37h207l-45 -246h-205l-129 -733q-14 -81 -21 -118 t-22.5 -95t-30 -84t-41 -66t-59 -60.5t-81 -48.5t-109.5 -48.5t-142 -42.5zM700 0l263 1493h319l-92 -526q75 60 144.5 95.5t150.5 35.5q126 0 199 -96t73 -269q0 -107 -18.5 -213.5t-56 -204.5t-90.5 -173t-127 -120t-160 -45q-47 0 -87.5 11t-74 33t-56 41.5t-49.5 48.5 l-18 -111h-320zM1083 362q28 -54 66.5 -84t81.5 -30q60 0 106.5 71.5t68 167.5t21.5 189q0 70 -23.5 111.5t-72.5 41.5q-47 0 -91.5 -31.5t-96.5 -92.5z" />
<glyph unicode="ffj" horiz-adv-x="1959" d="M-184 -221q54 20 88 35t61 36t40 35.5t25 47.5t17.5 57.5t15.5 79.5l134 759h-117l45 246h115l4 25q35 202 111.5 297.5t222.5 95.5q152 0 346 -111l-148 -215q-92 37 -133 37q-24 0 -45.5 -20.5t-30.5 -71.5l-6 -37h207l-45 -246h-205l-129 -733q-35 -195 -60 -263 q-42 -111 -135 -175q-97 -67 -311 -125zM524 -221q54 20 88 35t61 35.5t41 36t26 47.5t17.5 58t14.5 79l133 759h-117l46 246h116l4 25q33 202 108.5 297.5t217.5 95.5q122 0 287 -90l-115 -227q-62 28 -100 28q-24 0 -45.5 -20.5t-30.5 -71.5l-6 -37h207l-45 -246h-205 l-129 -733q-14 -81 -21 -118t-22.5 -95t-30 -84t-41 -66t-59 -60.5t-81 -48.5t-109.5 -48.5t-142 -42.5zM1174 -217q54 20 88 35t60.5 32.5t40 30.5t24 37.5t15 43.5t11.5 58l186 1055h320l-180 -1026q-12 -69 -19 -102.5t-21 -85.5t-28.5 -77.5t-40.5 -62.5t-59 -58 t-81 -47t-109.5 -45.5t-141.5 -39.5zM1618 1212l47 275h334l-49 -275h-332z" />
<glyph unicode="ffk" horiz-adv-x="2451" d="M-184 -221q54 20 88 35t61 36t40 35.5t25 47.5t17.5 57.5t15.5 79.5l134 759h-117l45 246h115l4 25q35 202 111.5 297.5t222.5 95.5q152 0 346 -111l-148 -215q-92 37 -133 37q-24 0 -45.5 -20.5t-30.5 -71.5l-6 -37h207l-45 -246h-205l-129 -733q-35 -195 -60 -263 q-42 -111 -135 -175q-97 -67 -311 -125zM524 -221q54 20 88 35t61 35.5t41 36t26 47.5t17.5 58t14.5 79l133 759h-117l46 246h116l4 25q33 202 108.5 297.5t217.5 95.5q122 0 287 -90l-115 -227q-62 28 -100 28q-24 0 -45.5 -20.5t-30.5 -71.5l-6 -37h207l-45 -246h-205 l-129 -733q-14 -81 -21 -118t-22.5 -95t-30 -84t-41 -66t-59 -60.5t-81 -48.5t-109.5 -48.5t-142 -42.5zM1411 0l262 1493h320l-135 -764l260 346h383l-394 -438l250 -637h-327l-138 395l-116 -131l-45 -264h-320z" />
<glyph unicode="fft" horiz-adv-x="2185" d="M-184 -221q54 20 88 35t61 36t40 35.5t25 47.5t17.5 57.5t15.5 79.5l134 759h-117l45 246h115l4 25q35 202 111.5 297.5t222.5 95.5q152 0 346 -111l-148 -215q-92 37 -133 37q-24 0 -45.5 -20.5t-30.5 -71.5l-6 -37h207l-45 -246h-205l-129 -733q-35 -195 -60 -263 q-42 -111 -135 -175q-97 -67 -311 -125zM524 -221q54 20 88 35t61 36t40.5 35.5t25.5 47.5t17.5 57.5t15.5 79.5l133 759h-117l46 246h114l4 25q35 202 111.5 297.5t222.5 95.5q152 0 346 -111l-147 -215q-93 37 -133 37q-24 0 -45.5 -20.5t-30.5 -71.5l-6 -37h207l-45 -246 h-205l-129 -733q-35 -195 -60 -263q-42 -111 -135 -175q-97 -67 -311 -125zM1495 829l43 246h119l47 258l330 53l-56 -311h234l-43 -246h-234l-82 -460q-11 -59 2.5 -79t40.5 -20q32 0 127 41l70 -258q-186 -76 -328 -76q-148 0 -205 106.5t-22 311.5l76 434h-119z" />
<glyph unicode="fh" horiz-adv-x="1810" d="M-184 -221q46 17 77.5 31.5t56.5 28t41 32t27 33t19 44.5t13 53t13 69l134 759h-117l45 246h117l4 25q33 202 108 297.5t217 95.5q122 0 287 -90l-115 -227q-62 28 -100 28q-24 0 -45.5 -20.5t-30.5 -71.5l-6 -37h207l-45 -246h-205l-129 -733q-14 -81 -21 -118 t-22.5 -95t-30 -84t-41 -66t-59 -60.5t-81 -48.5t-109.5 -48.5t-142 -42.5zM700 0l263 1493h319l-94 -535q184 140 328 140q140 0 198 -92t27 -269l-131 -737h-322l121 682q30 156 -55 156q-46 0 -103 -35t-106 -84l-125 -719h-320z" />
<glyph unicode="fj" horiz-adv-x="1249" d="M-184 -221q46 17 77.5 31.5t56.5 28t41 32t27 33t19 44.5t13 53t13 69l134 759h-117l45 246h117l4 25q33 202 108 297.5t217 95.5q122 0 287 -90l-115 -227q-62 28 -100 28q-24 0 -45.5 -20.5t-30.5 -71.5l-6 -37h207l-45 -246h-205l-129 -733q-14 -81 -21 -118 t-22.5 -95t-30 -84t-41 -66t-59 -60.5t-81 -48.5t-109.5 -48.5t-142 -42.5zM463 -217q54 20 88 35t60.5 32.5t40 30.5t24 37.5t15 43.5t11.5 58l187 1055h319l-180 -1026q-12 -69 -19 -102.5t-21 -85.5t-28.5 -77.5t-40.5 -62.5t-59 -58t-81 -47t-109.5 -45.5t-141.5 -39.5z M907 1212l47 275h334l-49 -275h-332z" />
<glyph unicode="fk" horiz-adv-x="1742" d="M-184 -221q46 17 77.5 31.5t56.5 28t41 32t27 33t19 44.5t13 53t13 69l134 759h-117l45 246h117l4 25q33 202 108 297.5t217 95.5q122 0 287 -90l-115 -227q-62 28 -100 28q-24 0 -45.5 -20.5t-30.5 -71.5l-6 -37h207l-45 -246h-205l-129 -733q-14 -81 -21 -118 t-22.5 -95t-30 -84t-41 -66t-59 -60.5t-81 -48.5t-109.5 -48.5t-142 -42.5zM700 0l263 1493h319l-135 -764l260 346h383l-393 -438l250 -637h-328l-137 395l-117 -131l-45 -264h-320z" />
<glyph unicode="ft" horiz-adv-x="1478" d="M-184 -221q54 20 88 35t61 36t40 35.5t25 47.5t17.5 57.5t15.5 79.5l134 759h-117l45 246h115l4 25q35 202 111.5 297.5t222.5 95.5q152 0 346 -111l-148 -215q-92 37 -133 37q-24 0 -45.5 -20.5t-30.5 -71.5l-6 -37h207l-45 -246h-205l-129 -733q-35 -195 -60 -263 q-42 -111 -135 -175q-97 -67 -311 -125zM786 829l43 246h119l47 258l330 53l-55 -311h233l-43 -246h-233l-82 -460q-11 -59 2.5 -79t40.5 -20q32 0 127 41l69 -258q-186 -76 -327 -76q-149 0 -206 106.5t-22 311.5l76 434h-119z" />
<glyph unicode=" "  horiz-adv-x="421" />
<glyph unicode="&#x09;" horiz-adv-x="421" />
<glyph unicode="&#xa0;" horiz-adv-x="421" />
<glyph unicode="!" horiz-adv-x="563" d="M14 0l60 336h317l-57 -336h-320zM162 475l69 959h390l-269 -959h-190z" />
<glyph unicode="&#x22;" horiz-adv-x="813" d="M162 864l49 570h299l-154 -570h-194zM539 864l49 570h299l-154 -570h-194z" />
<glyph unicode="#" horiz-adv-x="1245" d="M10 309l45 252h201l94 311h-172l45 252h203l92 310h246l-92 -310h184l92 310h244l-92 -310h170l-43 -252h-203l-94 -311h172l-43 -252h-203l-92 -309h-246l92 309h-184l-92 -309h-246l92 309h-170zM502 561h184l94 311h-184z" />
<glyph unicode="$" horiz-adv-x="1169" d="M-8 188l184 238q95 -64 199 -111t184 -47q65 0 107.5 33.5t42.5 91.5q0 30 -13 54t-43 46t-57 37t-77.5 40.5t-82.5 43.5q-134 84 -206 179.5t-72 228.5q0 180 124.5 304t344.5 130l32 184h228l-37 -210q167 -43 336 -146l-187 -240q-76 48 -170.5 84.5t-164.5 36.5 q-61 0 -103.5 -31t-42.5 -92q0 -28 11 -49.5t38.5 -41.5t52.5 -33.5t76.5 -39t85.5 -44.5q48 -30 85 -57t77 -66.5t66 -80.5t42.5 -96t16.5 -116q0 -85 -31.5 -162t-90 -138t-150.5 -99t-205 -42l-31 -182h-227l37 207q-205 49 -379 186z" />
<glyph unicode="%" horiz-adv-x="1742" d="M129 991q0 81 23 160.5t66.5 149t118 112.5t167.5 43q65 0 122 -18t102 -54t71 -95t26 -136q0 -64 -13.5 -128t-43 -125t-72 -108t-106 -75.5t-139.5 -28.5q-137 0 -229.5 77.5t-92.5 225.5zM342 0l850 1434h242l-848 -1434h-244zM360 991q0 -114 95 -114q35 0 63.5 31 t44 77t23.5 90t8 78q0 115 -94 115q-35 0 -63.5 -31t-44.5 -77t-24 -90.5t-8 -78.5zM954 281q0 64 13.5 128t44 125t73.5 107.5t106.5 75t139.5 28.5q137 0 228.5 -77t91.5 -226q0 -64 -13.5 -128t-43.5 -125t-72.5 -108t-106 -75.5t-139.5 -28.5q-65 0 -122 18.5 t-102.5 54.5t-71.5 95.5t-26 135.5zM1186 281q0 -57 22.5 -86t73.5 -29q35 0 63.5 31t44 77t23.5 90t8 78q0 57 -22.5 86t-73.5 29q-35 0 -63.5 -31t-44 -77t-23.5 -90t-8 -78z" />
<glyph unicode="&#x26;" horiz-adv-x="1277" d="M47 328q0 60 17.5 115.5t44.5 99t69.5 87t83 75.5t94.5 69q-96 163 -96 291q0 174 116 282.5t298 108.5q165 0 256.5 -86.5t91.5 -214.5q0 -65 -24.5 -126t-72.5 -116.5t-95.5 -97.5t-116.5 -94l127 -186q57 100 92 221h317q-30 -111 -92.5 -234.5t-150.5 -230.5 l198 -291h-344l-63 94q-169 -117 -363 -117q-179 0 -283 97.5t-104 253.5zM356 346q0 -51 29.5 -85t85.5 -34q89 0 186 82l-161 248q-140 -116 -140 -211zM541 1067q0 -66 41 -143q74 52 113.5 100.5t39.5 103.5q0 37 -18.5 64t-59.5 27q-54 0 -85 -44.5t-31 -107.5z" />
<glyph unicode="'" horiz-adv-x="438" d="M162 864l49 570h299l-154 -570h-194z" />
<glyph unicode="(" horiz-adv-x="632" d="M14.5 -11.5q-2.5 97.5 22.5 240.5l174 979q16 91 26.5 137t33.5 105.5t53.5 90t83.5 67t127.5 61t181.5 49.5l47 -196q-63 -26 -99.5 -47t-59 -51t-31.5 -59t-19 -83l-203 -1151q-23 -102 -4.5 -151.5t109.5 -96.5l-92 -176q-188 49 -268 116.5t-82.5 165z" />
<glyph unicode=")" horiz-adv-x="624" d="M-102 -96q63 26 99 47t58.5 50.5t31.5 58.5t19 83l203 1151q23 102 5 151.5t-109 96.5l92 176q188 -49 268 -116.5t82.5 -165t-22.5 -240.5l-174 -979q-16 -91 -26.5 -137t-33.5 -105.5t-53.5 -90t-83.5 -67t-127.5 -61t-181.5 -49.5z" />
<glyph unicode="*" horiz-adv-x="933" d="M139 1038l318 19l-291 129l168 203l176 -269l-37 318l262 -45l-143 -287l254 192l90 -249l-303 -21l276 -127l-170 -203l-170 254l33 -305l-260 45l143 287l-256 -191z" />
<glyph unicode="+" horiz-adv-x="1142" d="M127 559l45 248h307l60 332h249l-59 -332h313l-43 -248h-313l-57 -332h-252l59 332h-309z" />
<glyph unicode="," horiz-adv-x="514" d="M-55 -233l184 233h-139l63 367h318l-56 -410l-309 -301z" />
<glyph unicode="-" horiz-adv-x="768" d="M70 449l45 268h571l-45 -268h-571z" />
<glyph unicode="." horiz-adv-x="512" d="M-10 0l65 367h318l-66 -367h-317z" />
<glyph unicode="/" horiz-adv-x="858" d="M-100 -184l852 1802h245l-854 -1802h-243z" />
<glyph unicode="0" horiz-adv-x="1226" d="M88 483q0 52 6 120t24 163.5t46 187.5t77 184.5t110.5 161.5t153 112.5t200.5 43.5q107 0 189.5 -28.5t134.5 -75t85.5 -113t46.5 -137t13 -152.5q0 -53 -6 -121t-24 -164t-45.5 -188t-76.5 -184.5t-111 -161.5t-153.5 -112.5t-200.5 -43.5q-107 0 -189.5 28.5 t-134.5 75.5t-85.5 114t-46.5 137.5t-13 152.5zM414 446q0 -46 4.5 -78t18.5 -62t43 -45t73 -15q61 0 113 65t84.5 158.5t56 200.5t33.5 189t10 126q0 46 -5 78.5t-19 63t-43.5 46t-73.5 15.5q-61 0 -113 -65t-84 -159t-55.5 -202t-33 -190t-9.5 -126z" />
<glyph unicode="1" horiz-adv-x="788" d="M100 1208l383 226h318l-252 -1434h-334l193 1092l-197 -113z" />
<glyph unicode="2" horiz-adv-x="1099" d="M-47 0l24 152q15 87 51 166.5t77 136t104.5 116t110 95.5t118.5 86q176 120 229 166q93 82 93 151q0 42 -30 70t-87 28q-124 0 -319 -129l-123 238q39 29 85 55.5t112 57t146.5 49t160.5 18.5q98 0 175 -28t124 -77t71.5 -111.5t24.5 -135.5q0 -60 -17.5 -118t-41 -103 t-67 -94.5t-75 -80t-88 -72.5t-82.5 -59.5t-80 -52.5q-115 -74 -168 -126.5t-63 -108.5h540l-51 -289h-954z" />
<glyph unicode="3" horiz-adv-x="1099" d="M-45 190l178 213q202 -133 328 -133q89 0 142.5 49.5t53.5 126.5q0 49 -24.5 83.5t-66.5 51.5t-86.5 24t-96.5 7h-47l49 289h57q43 0 88.5 9.5t89 29t71.5 53.5t28 78q0 42 -27.5 68t-81.5 26q-118 0 -309 -112l-106 231q249 172 501 172q182 0 275.5 -87.5t93.5 -223.5 q0 -120 -70.5 -212.5t-185.5 -152.5q85 -41 135.5 -126t50.5 -199q0 -65 -16.5 -130t-55.5 -128.5t-96 -111.5t-144.5 -78t-193.5 -30q-290 0 -534 213z" />
<glyph unicode="4" horiz-adv-x="1210" d="M-25 262l43 244l670 928h445l-156 -883h176l-51 -289h-176l-45 -262h-334l45 262h-617zM348 551h295l96 543z" />
<glyph unicode="5" horiz-adv-x="1091" d="M-29 195l189 217q153 -136 280 -136q92 0 157 62t65 164q0 72 -39 118t-115 46q-53 0 -100.5 -20t-112.5 -60l-174 116l192 732h803l-51 -289h-514l-45 -211q56 12 117 12q95 0 169 -33t119.5 -91t69 -132t23.5 -160q0 -85 -22 -165.5t-67 -150.5t-108 -123t-151 -83.5 t-189 -30.5q-278 0 -496 218z" />
<glyph unicode="6" horiz-adv-x="1157" d="M68 506q0 185 62.5 357.5t171.5 303.5t270.5 210t347.5 79q72 0 134 -11t88 -23l25 -11l-131 -254q-49 14 -112 14q-146 0 -265.5 -86t-187.5 -239q98 82 236 82q164 0 261 -114t97 -288q0 -107 -35 -205.5t-98.5 -175t-162 -122.5t-216.5 -46q-117 0 -211 43t-153 116.5 t-90 168t-31 201.5zM401 487q0 -99 40 -162t114 -63q84 0 130 73t46 171q0 70 -36 117t-107 47q-57 0 -107.5 -35.5t-77.5 -79.5q-2 -23 -2 -68z" />
<glyph unicode="7" horiz-adv-x="940" d="M45 0q26 150 93 319t138 296.5t155.5 254t128 183t73.5 92.5h-496l49 289h873l-49 -271q-11 -12 -29.5 -35t-74.5 -96t-108 -148.5t-119 -187t-120 -218.5t-98.5 -234.5t-65.5 -243.5h-350z" />
<glyph unicode="8" horiz-adv-x="1173" d="M23 346q0 67 20 127t51.5 105t78 85.5t92 69t100.5 55.5q-140 118 -140 279q0 170 129.5 279.5t352.5 109.5q200 0 307.5 -90.5t107.5 -235.5q0 -217 -254 -362q93 -63 148 -145.5t55 -200.5q0 -198 -152 -321.5t-417 -123.5q-234 0 -356.5 98t-122.5 271zM362 385 q0 -67 41.5 -106t116.5 -39q92 0 153.5 55.5t61.5 140.5q0 117 -139 205q-51 -24 -89 -47.5t-73 -54.5t-53.5 -70t-18.5 -84zM539 1044q0 -85 94 -147q78 37 123 83.5t45 113.5q0 46 -28.5 77t-82.5 31q-67 0 -109 -48t-42 -110z" />
<glyph unicode="9" horiz-adv-x="1157" d="M25 23l131 253q46 -14 112 -14q146 0 264.5 87t186.5 241q-96 -84 -234 -84q-163 0 -260.5 113.5t-97.5 287.5q0 107 35 205.5t98.5 175t162 122.5t216.5 46q94 0 173.5 -28t136.5 -77t97 -115.5t59 -144.5t19 -163q0 -185 -62.5 -357.5t-171.5 -304t-270.5 -210.5 t-347.5 -79q-72 0 -134 11.5t-88 23.5zM461 928q0 -70 36 -117t107 -47q55 0 105 35.5t77 79.5q5 29 5 67q0 99 -40 162t-114 63q-84 0 -130 -72.5t-46 -170.5z" />
<glyph unicode=":" horiz-adv-x="540" d="M2 0l66 367h317l-66 -367h-317zM113 627l65 366h318l-66 -366h-317z" />
<glyph unicode=";" horiz-adv-x="546" d="M-43 -233l184 233h-139l64 367h317l-55 -410l-310 -301zM113 627l65 366h318l-66 -366h-317z" />
<glyph unicode="&#x3c;" horiz-adv-x="1142" d="M102 569l41 228l944 415l-55 -311l-579 -229l497 -234l-49 -284z" />
<glyph unicode="=" horiz-adv-x="1142" d="M90 362l45 252h871l-45 -252h-871zM160 758l45 252h870l-45 -252h-870z" />
<glyph unicode="&#x3e;" horiz-adv-x="1142" d="M80 154l55 311l580 229l-498 234l49 284l799 -415l-41 -228z" />
<glyph unicode="?" horiz-adv-x="962" d="M119 0l59 336h318l-60 -336h-317zM162 1309q214 147 440 147q174 0 276.5 -92.5t102.5 -245.5q0 -86 -33.5 -160.5t-84 -126t-117.5 -92.5t-126 -64.5t-118 -37.5l-43 -162h-195l43 346q167 41 250.5 98.5t83.5 141.5q0 47 -29 76.5t-88 29.5q-91 0 -245 -96z" />
<glyph unicode="@" horiz-adv-x="1640" d="M45 336q0 160 39 315t117 291t186 239.5t255 163.5t314 60q137 0 245.5 -40t177.5 -107.5t113 -160t59.5 -193.5t9.5 -212q-4 -54 -11 -109t-23.5 -133t-39 -145.5t-59 -138t-81.5 -120t-110 -81t-141 -31.5q-53 0 -93.5 17.5t-63 43t-36.5 60.5t-17.5 65.5t-2.5 61.5 q-139 -135 -281 -135q-107 0 -168 74.5t-61 191.5q0 156 92.5 253.5t236.5 97.5q33 0 74.5 -6t68 -12t65.5 -16t46 -12l15 78q15 84 -7.5 121t-91.5 37q-109 0 -284 -76l-58 172q216 90 400 90q169 0 232.5 -87.5t31.5 -268.5l-55 -317q-6 -36 -10 -59t-8 -53t-5 -48.5 t-0.5 -40t5 -34.5t12 -24.5t19.5 -16.5t28 -5q62 0 122 87.5t99.5 228t46.5 290.5q2 56 1 114.5t-16 117.5t-36.5 112.5t-62 100.5t-91.5 81.5t-125.5 54t-163.5 19.5q-148 0 -278 -54.5t-224 -148.5t-161.5 -216.5t-101 -260.5t-33.5 -280q0 -95 17.5 -180t55.5 -160 t93.5 -130t136 -86.5t178.5 -31.5q84 0 165 22t120 44l39 22l49 -92q-6 -4 -17.5 -11.5t-50 -26t-79.5 -32.5t-104 -25.5t-126 -11.5q-116 0 -212.5 36.5t-165.5 101.5t-116.5 154t-70.5 192.5t-23 218.5zM610 340q0 -52 25 -79.5t70 -27.5q89 0 204 115l27 146l-34 8.5 t-46.5 11.5t-42.5 8t-45 4q-78 0 -118 -55t-40 -131z" />
<glyph unicode="A" horiz-adv-x="1239" d="M-96 0l682 1434h364l174 -1434h-350l-14 262h-379l-105 -262h-372zM492 535h253l-30 559z" />
<glyph unicode="B" horiz-adv-x="1220" d="M14 0l252 1434h490q214 0 323 -83t109 -227q0 -77 -28.5 -144.5t-72.5 -110.5t-89 -69.5t-85 -33.5q28 -9 54 -22t57 -38.5t53.5 -59t37.5 -85t15 -112.5q0 -215 -134 -332t-378 -117h-604zM393 268h164q119 0 184.5 55.5t65.5 159.5q0 144 -193 144h-157zM500 877h141 q88 0 147.5 44t59.5 130q0 114 -160 114h-137z" />
<glyph unicode="C" horiz-adv-x="1142" d="M76 522q0 118 18 231.5t52.5 218t87.5 192.5t120.5 153.5t155 102t186.5 36.5q74 0 145.5 -17t142.5 -53t116 -63t117 -76l-179 -246q-105 70 -177 105t-136 35q-72 0 -132.5 -57t-98 -147t-58 -194t-20.5 -204q0 -248 151 -248q102 0 342 133l129 -272 q-163 -84 -294.5 -129.5t-258.5 -45.5q-199 0 -304 143t-105 402z" />
<glyph unicode="D" horiz-adv-x="1280" d="M14 0l252 1434h359q163 0 283 -41t191 -116.5t104.5 -173t33.5 -220.5q0 -68 -8.5 -140.5t-31.5 -160.5t-58.5 -168t-95.5 -157t-136 -133t-186 -90t-240 -34h-467zM397 295h76q107 0 191.5 51t134.5 134.5t76 182.5t26 203q0 144 -73 208.5t-220 64.5h-59z" />
<glyph unicode="E" horiz-adv-x="1083" d="M14 0l252 1434h883l-53 -295h-547l-49 -277h444l-51 -289h-444l-52 -278h559l-51 -295h-891z" />
<glyph unicode="F" horiz-adv-x="1038" d="M14 0l252 1434h883l-53 -295h-547l-49 -279h430l-51 -289h-430l-103 -571h-332z" />
<glyph unicode="G" horiz-adv-x="1241" d="M76 510q0 150 26 289t78.5 258.5t127 208.5t177 139.5t222.5 50.5q78 0 153 -17.5t150 -54.5t122 -65t123 -78l-178 -246q-146 88 -202 112q-79 34 -138 34q-76 0 -138.5 -56t-101.5 -146t-60 -196t-21 -211q0 -258 151 -258q59 0 125.5 42t118.5 96l27 147h-242l47 275 h551l-147 -834h-308l23 133q-156 -156 -318 -156q-168 0 -268 137.5t-100 395.5z" />
<glyph unicode="H" horiz-adv-x="1280" d="M14 0l252 1434h334l-96 -537h373l94 537h332l-252 -1434h-332l106 608h-372l-107 -608h-332z" />
<glyph unicode="I" horiz-adv-x="577" d="M14 0l252 1434h334l-254 -1434h-332z" />
<glyph unicode="J" horiz-adv-x="577" d="M-203 -115q62 23 100.5 42t63.5 36t39 43t21 49t16 68l229 1311h334l-227 -1293q-31 -170 -55 -231q-41 -104 -140 -167t-307 -120z" />
<glyph unicode="K" horiz-adv-x="1239" d="M14 0l252 1434h334l-94 -533l444 533h428l-598 -660l355 -774h-369l-215 520l-139 -153l-66 -367h-332z" />
<glyph unicode="L" horiz-adv-x="1009" d="M14 0l252 1434h334l-203 -1141h533l-49 -293h-867z" />
<glyph unicode="M" horiz-adv-x="1490" d="M14 0l252 1434h338l146 -764l426 764h337l-251 -1434h-332l141 805l-313 -565h-152l-112 598l-148 -838h-332z" />
<glyph unicode="N" horiz-adv-x="1308" d="M14 0l252 1434h334l246 -871l151 871h332l-252 -1434h-334l-245 870l-152 -870h-332z" />
<glyph unicode="O" horiz-adv-x="1347" d="M78 543q0 78 10.5 160.5t35.5 172.5t61.5 172.5t92 157.5t123.5 130t160 87.5t197 32.5q259 0 404 -142t145 -419q0 -78 -11 -161.5t-36 -173.5t-61.5 -173t-92 -158.5t-123.5 -131t-160.5 -88t-197.5 -32.5q-259 0 -403 143.5t-144 422.5zM416 545q0 -271 219 -271 q71 0 130.5 50.5t95.5 124.5t61 162t35 158.5t10 119.5q0 270 -219 270q-71 0 -130.5 -50.5t-95.5 -124t-61 -161.5t-35 -158.5t-10 -119.5z" />
<glyph unicode="P" horiz-adv-x="1198" d="M14 0l252 1434h449q499 0 499 -400q0 -110 -35.5 -205.5t-105 -172t-185.5 -120.5t-265 -44h-191l-86 -492h-332zM483 778h131q123 0 190.5 63t67.5 167q0 74 -46.5 105.5t-133.5 31.5h-143z" />
<glyph unicode="Q" horiz-adv-x="1347" d="M78 543q0 78 10.5 160.5t35.5 172.5t61.5 172.5t92 157.5t123.5 130t160 87.5t197 32.5q259 0 404 -142t145 -419q0 -109 -22 -226t-66.5 -236t-123.5 -221t-182 -161l168 -192l-250 -205l-225 323q-251 5 -389.5 148t-138.5 418zM416 545q0 -271 219 -271 q71 0 130.5 50.5t95.5 124.5t61 162t35 158.5t10 119.5q0 270 -219 270q-71 0 -130.5 -50.5t-95.5 -124t-61 -161.5t-35 -158.5t-10 -119.5z" />
<glyph unicode="R" horiz-adv-x="1245" d="M14 0l252 1434h496q493 0 493 -373q0 -73 -19.5 -145.5t-61 -144.5t-118 -129t-179.5 -83l196 -559h-346l-166 539h-119l-96 -539h-332zM489 811h173q126 0 188.5 60.5t62.5 158.5q0 72 -48 101.5t-138 29.5h-176z" />
<glyph unicode="S" horiz-adv-x="1138" d="M-25 188l185 238q95 -64 199 -111t184 -47q65 0 107 33.5t42 91.5q0 30 -13 54t-42.5 46t-56.5 37t-78 40.5t-82 43.5q-134 84 -206.5 179.5t-72.5 228.5q0 88 32 166t92.5 138t154 95t209.5 35q268 0 540 -172l-186 -240q-75 48 -170.5 84.5t-165.5 36.5q-61 0 -103 -31 t-42 -92q0 -28 11 -49.5t38.5 -41.5t52.5 -33.5t76.5 -39t85.5 -44.5q48 -30 85 -57t77 -66.5t66 -80.5t42.5 -96t16.5 -116q0 -88 -33.5 -166.5t-95 -140t-159 -98t-216.5 -36.5q-160 0 -309 61t-265 150z" />
<glyph unicode="T" horiz-adv-x="1038" d="M119 1139l51 295h987l-53 -295h-324l-200 -1139h-334l200 1139h-327z" />
<glyph unicode="U" horiz-adv-x="1261" d="M82 393q2 85 20 193l150 848h332l-160 -912q-10 -55 -10 -96t13 -77t48 -54.5t92 -18.5q111 0 162.5 64.5t71.5 181.5l162 912h333l-161 -908q-17 -99 -41 -174.5t-68 -149t-105 -120.5t-153.5 -76t-212.5 -29q-135 0 -229.5 32t-146.5 85q-51 54 -75 134q-22 76 -23 155 q1 5 1 10z" />
<glyph unicode="V" horiz-adv-x="1234" d="M147 1434h367l57 -1008l406 1008h391l-678 -1434h-366z" />
<glyph unicode="W" horiz-adv-x="1687" d="M164 1434h366l-12 -875l326 875h262l18 -869l293 869h387l-577 -1434h-316l-26 893l-332 -893h-315z" />
<glyph unicode="X" horiz-adv-x="1171" d="M-109 0l515 727l-242 707h366l105 -465l266 465h397l-489 -707l258 -727h-369l-118 457l-275 -457h-414z" />
<glyph unicode="Y" horiz-adv-x="1161" d="M139 1434h355l118 -541l306 541h385l-568 -861l-98 -573h-334l100 571z" />
<glyph unicode="Z" horiz-adv-x="1112" d="M-53 0l45 264l702 875h-512l51 295h949l-47 -263l-703 -876h559l-51 -295h-993z" />
<glyph unicode="[" horiz-adv-x="673" d="M-43 -293l354 2011h520l-32 -194h-189l-286 -1624h188l-35 -193h-520z" />
<glyph unicode="\" horiz-adv-x="831" d="M205 1618h221l233 -1802h-221z" />
<glyph unicode="]" horiz-adv-x="675" d="M-123 -293l33 195h188l287 1624h-188l34 192h521l-355 -2011h-520z" />
<glyph unicode="^" horiz-adv-x="1144" d="M109 655l446 779h328l174 -779h-324l-57 439l-213 -439h-354z" />
<glyph unicode="_" horiz-adv-x="1228" d="M-80 -379l43 240h1036l-41 -240h-1038z" />
<glyph unicode="`" horiz-adv-x="432" d="M217 1493h326l162 -287h-246z" />
<glyph unicode="a" horiz-adv-x="1116" d="M37 342q0 140 31 274t87.5 242t145 174t193.5 66q46 0 85.5 -11.5t73 -35t55 -43t50.5 -50.5l20 117h320l-189 -1075h-319l20 123q-73 -66 -147 -106t-160 -40q-123 0 -194.5 96.5t-71.5 268.5zM365 395q0 -68 23.5 -108.5t66.5 -40.5q92 0 202 137l56 322 q-28 57 -67 89.5t-81 32.5q-46 0 -85.5 -43t-63.5 -109t-37.5 -139.5t-13.5 -140.5z" />
<glyph unicode="b" horiz-adv-x="1107" d="M-8 0l262 1493h319l-92 -526q75 60 144.5 95.5t150.5 35.5q126 0 199.5 -96t73.5 -269q0 -107 -18.5 -214t-56.5 -204.5t-91 -172.5t-127 -120t-160 -45q-47 0 -87.5 11t-74 33t-55.5 41.5t-49 48.5l-19 -111h-319zM375 362q59 -114 147 -114q60 0 106.5 71.5t68.5 167.5 t22 189q0 70 -23.5 111.5t-72.5 41.5q-83 0 -189 -124z" />
<glyph unicode="c" horiz-adv-x="909" d="M35 397q0 171 41.5 308t110 221t152 128t173.5 44q45 0 91 -8t78.5 -17t77 -29t63.5 -30t62.5 -34.5t51.5 -29.5l-150 -233q-7 4 -35 21.5t-43.5 26.5t-41.5 21.5t-48.5 18.5t-42.5 6q-63 0 -113 -57.5t-76 -143t-26 -178.5q0 -78 29 -123t88 -45q17 0 38.5 5.5t49.5 17 t47 20t53.5 25.5t45.5 22l92 -256q-75 -34 -119.5 -53t-133 -43.5t-157.5 -24.5q-160 0 -259 106.5t-99 313.5z" />
<glyph unicode="d" horiz-adv-x="1116" d="M37 342q0 140 31 274t87.5 242t145 174t193.5 66q46 0 85.5 -11.5t73 -35t55 -43t50.5 -50.5l94 535h319l-262 -1493h-319l20 123q-73 -66 -147 -106t-160 -40q-123 0 -194.5 96.5t-71.5 268.5zM365 395q0 -68 23.5 -108.5t66.5 -40.5q92 0 202 137l56 322 q-28 57 -67 89.5t-81 32.5q-46 0 -85.5 -43t-63.5 -109t-37.5 -139.5t-13.5 -140.5z" />
<glyph unicode="e" horiz-adv-x="999" d="M33 412q0 198 66 352.5t196 244t305 89.5q166 0 265.5 -83t99.5 -222q0 -87 -30 -153t-78 -105t-119 -63.5t-142.5 -33t-159.5 -8.5h-82v-22q0 -183 121 -183q38 0 94.5 18.5t100.5 39t121 59.5l92 -227q-80 -45 -216.5 -91.5t-267.5 -46.5q-171 0 -268.5 106t-97.5 329z M377 606h65q105 0 166.5 44.5t61.5 119.5q0 40 -24 65t-66 25q-75 0 -126 -71.5t-77 -182.5z" />
<glyph unicode="f" horiz-adv-x="708" d="M-184 -221q54 20 88 35t61 36t40 35.5t25 47.5t17.5 57.5t15.5 79.5l134 759h-117l45 246h115l4 25q35 202 111.5 297.5t222.5 95.5q152 0 346 -111l-148 -215q-92 37 -133 37q-24 0 -45.5 -20.5t-30.5 -71.5l-6 -37h207l-45 -246h-205l-129 -733q-35 -195 -60 -263 q-42 -111 -135 -175q-97 -67 -311 -125z" />
<glyph unicode="g" horiz-adv-x="1116" d="M-61 -350l108 258q82 -34 179.5 -58t170.5 -24q94 0 135.5 45.5t55.5 128.5l20 119q-158 -142 -305 -142q-123 0 -194.5 96.5t-71.5 268.5q0 140 31 274t87.5 242t145 174t193.5 66q86 0 147.5 -37.5t114.5 -99.5l20 114h322l-187 -1059q-24 -135 -62.5 -223.5 t-99 -139.5t-136 -71t-183.5 -20q-237 0 -491 88zM365 395q0 -68 23.5 -108.5t68.5 -40.5q87 0 198 135l58 328q-28 56 -66.5 87t-81.5 31q-46 0 -85.5 -43t-63.5 -109t-37.5 -139.5t-13.5 -140.5z" />
<glyph unicode="h" horiz-adv-x="1101" d="M-8 0l262 1493h319l-94 -535q184 140 328 140q140 0 198 -92q38 -60 38 -156q0 -51 -11 -113l-131 -737h-321l120 682q8 41 8 71q0 85 -63 85q-46 0 -103 -35t-106 -84l-125 -719h-319z" />
<glyph unicode="i" horiz-adv-x="518" d="M-10 0l190 1075h320l-191 -1075h-319zM197 1212l49 275h332l-48 -275h-333z" />
<glyph unicode="j" horiz-adv-x="518" d="M-246 -217q64 24 102.5 43t64 35.5t39 42t20 48t14.5 68.5l186 1055h320l-181 -1026q-14 -79 -21.5 -116t-24.5 -94t-37.5 -84.5t-56 -66t-83.5 -61.5t-116.5 -48.5t-159.5 -47.5zM199 1212l47 275h334l-50 -275h-331z" />
<glyph unicode="k" horiz-adv-x="1032" d="M-8 0l262 1493h319l-135 -764l260 346h383l-393 -438l250 -637h-328l-137 395l-117 -131l-45 -264h-319z" />
<glyph unicode="l" horiz-adv-x="524" d="M-6 0l262 1493h319l-262 -1493h-319z" />
<glyph unicode="m" horiz-adv-x="1609" d="M-8 0l188 1075h320l-23 -127q154 150 297 150q97 0 152 -48.5t69 -136.5q62 72 150.5 128.5t179.5 56.5q138 0 191 -95q34 -61 35 -151q0 -49 -11 -107l-131 -745h-319l122 696q6 41 7.5 72.5t-13 50.5t-45.5 19q-41 0 -88.5 -35.5t-87.5 -85.5l-125 -717h-321l125 696 q8 34 8 61q0 22 -5 40q-11 41 -57 41q-76 0 -174 -119l-125 -719h-319z" />
<glyph unicode="n" horiz-adv-x="1101" d="M-8 0l188 1075h320l-21 -117q184 140 328 140q140 0 198 -93q38 -61 37 -157q0 -51 -10 -113l-131 -735h-319l120 684q8 35 8 65q0 23 -4 43q-12 46 -61 46q-46 0 -103 -35t-106 -84l-125 -719h-319z" />
<glyph unicode="o" horiz-adv-x="1095" d="M37 416q0 92 17.5 183.5t58.5 182.5t101.5 160.5t154.5 112.5t209 43q73 0 138 -15t123.5 -48.5t101 -83.5t67 -125t24.5 -167t-17.5 -183.5t-58.5 -182.5t-101 -160.5t-153.5 -112.5t-207.5 -43q-93 0 -172.5 24.5t-144.5 75t-102.5 137.5t-37.5 202zM356 408 q0 -86 32 -130.5t106 -44.5q56 0 100.5 48t69 119t37 141t12.5 127q0 86 -32 130t-106 44q-56 0 -100.5 -47.5t-69 -119t-37 -141t-12.5 -126.5z" />
<glyph unicode="p" horiz-adv-x="1110" d="M-82 -418l262 1493h320l-21 -110q157 133 299 133q126 0 199.5 -96t73.5 -269q0 -135 -30 -267t-85.5 -242.5t-144 -178.5t-195.5 -68q-47 0 -87 11t-74 34.5t-54.5 41.5t-50.5 49l-92 -531h-320zM375 367q63 -119 149 -119q60 0 106.5 71.5t68.5 167.5t22 189 q0 70 -23.5 111.5t-72.5 41.5q-85 0 -191 -124z" />
<glyph unicode="q" horiz-adv-x="1116" d="M37 342q0 140 31 274t87.5 242t145 174t193.5 66q46 0 85.5 -11.5t73 -35t55 -43t50.5 -50.5l20 117h320l-262 -1493h-320l94 539q-160 -144 -307 -144q-123 0 -194.5 96.5t-71.5 268.5zM365 395q0 -68 23.5 -108.5t66.5 -40.5q92 0 202 137l56 322q-28 57 -67 89.5 t-81 32.5q-46 0 -85.5 -43t-63.5 -109t-37.5 -139.5t-13.5 -140.5z" />
<glyph unicode="r" horiz-adv-x="768" d="M-8 0l188 1075h320l-39 -223q14 26 30 50.5t50.5 63t72.5 64.5q37 26 93 44q44 14 90 14q13 0 26 -1l-55 -315q-59 0 -112.5 -21t-91.5 -54t-70 -73t-52.5 -80.5t-34.5 -73.5t-20 -54l-6 -21l-70 -395h-319z" />
<glyph unicode="s" horiz-adv-x="954" d="M-37 137l150 223q76 -48 170.5 -86t158.5 -38q43 0 68 18t25 47q0 16 -7 29.5t-17.5 22.5t-30.5 19.5t-36.5 17t-46 18t-49.5 20.5q-55 24 -96.5 49t-83 63.5t-64 92t-22.5 119.5q0 151 108 248.5t299 97.5q119 0 236 -39t205 -92l-148 -219q-174 94 -280 94 q-42 0 -66 -18t-24 -46q0 -19 7.5 -33.5t28 -26.5t36 -19.5t52 -21.5t56.5 -22q44 -19 77.5 -37t72 -47.5t64 -62t42 -79.5t16.5 -101q0 -153 -111 -252t-307 -99q-247 0 -483 160z" />
<glyph unicode="t" horiz-adv-x="768" d="M76 829l43 246h119l47 258l329 53l-55 -311h234l-43 -246h-234l-82 -460q-5 -26 -5 -45q-1 -23 7 -34q14 -20 41 -20q32 0 127 41l70 -258q-186 -76 -328 -76q-148 1 -205 107q-35 66 -35 169q0 64 13 142l76 434h-119z" />
<glyph unicode="u" horiz-adv-x="1101" d="M43 340l129 735h322l-121 -682q-9 -37 -9 -68q0 -23 5 -42q12 -45 61 -45q47 0 104.5 35t102.5 83l127 719h321l-190 -1075h-320l21 117q-184 -140 -328 -140q-140 0 -198 93q-38 61 -38 157q0 51 11 113z" />
<glyph unicode="v" horiz-adv-x="1032" d="M94 1075h330l37 -690l278 690h355l-535 -1075h-313z" />
<glyph unicode="w" horiz-adv-x="1466" d="M104 1075h334l-6 -643l256 643h240l26 -643l220 643h346l-457 -1075h-293l-37 621l-258 -621h-293z" />
<glyph unicode="x" horiz-adv-x="1060" d="M-109 0l433 541l-224 534h336l101 -327l213 327h376l-413 -536l243 -539h-344l-106 338l-219 -338h-396z" />
<glyph unicode="y" horiz-adv-x="1030" d="M-20 -211q101 41 159.5 74.5t106.5 87.5l-154 1124h332l41 -674l280 674h347l-519 -1075q-39 -79 -61 -120.5t-68.5 -105.5t-94.5 -102t-125.5 -77t-174.5 -62z" />
<glyph unicode="z" horiz-adv-x="999" d="M-53 0l41 231l547 568h-431l50 276h864l-41 -231l-547 -568h447l-50 -276h-880z" />
<glyph unicode="{" horiz-adv-x="708" d="M25 612l36 199q180 0 197 225l14 205q18 250 144 363.5t350 113.5h90l-33 -188h-32q-163 0 -179 -250l-14 -180q-7 -101 -32 -172.5t-68 -116t-97 -68t-129 -34.5q133 -32 181 -128t2 -282l-29 -111q-76 -292 80 -292h29l-33 -189h-31q-96 0 -177 30t-140 91.5t-75.5 156 t15.5 222.5l49 182q18 69 18 118.5t-33.5 77t-102.5 27.5z" />
<glyph unicode="|" horiz-adv-x="462" d="M-37 -252l340 1927h232l-340 -1927h-232z" />
<glyph unicode="}" horiz-adv-x="708" d="M-113 -293l33 189h33q163 0 178 249l14 181q7 101 32 172.5t68 116t97 68t129 34.5q-133 32 -180.5 127t-1.5 282l28 111q76 293 -79 293h-29l33 188h30q96 0 177 -30t140 -91.5t75.5 -155.5t-15.5 -222l-49 -183q-18 -69 -17.5 -118.5t34 -77t102.5 -27.5l-37 -199 q-180 0 -197 -225l-14 -205q-18 -250 -144 -363.5t-350 -113.5h-90z" />
<glyph unicode="~" horiz-adv-x="1142" d="M20 440q80 162 164.5 247t196.5 85q57 0 114.5 -24.5t96.5 -53.5t87 -53.5t89 -24.5q37 0 72 29t88 115l176 -84q-82 -164 -166.5 -248t-194.5 -84q-58 0 -115.5 24.5t-96.5 53.5t-87.5 53.5t-89.5 24.5q-37 0 -70 -28.5t-87 -115.5z" />
<glyph unicode="&#xa1;" horiz-adv-x="563" d="M-20 0l268 958h190l-69 -958h-389zM209 1098l57 336h320l-60 -336h-317z" />
<glyph unicode="&#xa2;" horiz-adv-x="997" d="M88 578q0 171 41.5 308t110 220.5t152 127.5t173.5 44h13l28 156h228l-37 -205q29 -12 61.5 -28t53 -27.5t52.5 -31t44 -26.5l-148 -227q-9 5 -51.5 30t-64 36.5t-55 23.5t-58.5 12q-63 0 -113 -57.5t-76 -143t-26 -178.5q0 -168 116 -168q10 0 22 2t26.5 6t27 7.5 t30.5 11t29 12t31.5 14t29.5 13.5t29.5 14t26.5 13l93 -254q-139 -68 -265 -101l-30 -182h-228l29 162q-134 21 -214.5 126.5t-80.5 289.5z" />
<glyph unicode="&#xa3;" horiz-adv-x="1032" d="M-23 0l41 233q8 3 21.5 9.5t49.5 30.5t66.5 52.5t62 76.5t46.5 102h-178l35 196h143q-6 31 -24 96t-28.5 123t-10.5 119q0 193 104.5 305.5t292.5 112.5q241 0 481 -205l-168 -202q-148 118 -252 118q-61 0 -97 -43.5t-36 -109.5q0 -52 29 -152.5t35 -161.5h266l-35 -196 h-248q-22 -73 -58.5 -130.5t-72.5 -84.5h449l-51 -289h-863z" />
<glyph unicode="&#xa5;" horiz-adv-x="1253" d="M111 281l36 194h285l19 96l-2 7h-285l37 194h188l-203 662h355l118 -541l306 541h385l-437 -662h191l-37 -194h-283l-2 -5l-16 -98h285l-37 -194h-283l-47 -281h-334l49 281h-288z" />
<glyph unicode="&#xa6;" horiz-adv-x="464" d="M-37 -252l150 846h229l-147 -846h-232zM156 829l147 846h232l-150 -846h-229z" />
<glyph unicode="&#xa7;" horiz-adv-x="1042" d="M10 -16l150 219q65 -37 144 -65.5t134 -28.5q42 0 67 17.5t25 47.5q0 19 -10 34t-31.5 27t-40.5 20t-53 20t-53 20q-54 22 -96 47t-83.5 62t-64 89.5t-22.5 116.5q0 97 52.5 172.5t150.5 114.5q-80 80 -80 207q0 153 108 252.5t297 99.5q120 0 237.5 -39t205.5 -92 l-150 -219q-62 37 -143 65.5t-136 28.5q-42 0 -67 -17.5t-25 -47.5q0 -15 8 -28t19 -22.5t32 -19.5t38 -16t45.5 -17t46.5 -18q54 -22 96 -46.5t83.5 -62t64 -90.5t22.5 -117q0 -97 -52.5 -172t-150.5 -116q80 -80 80 -205q0 -153 -108 -252.5t-297 -99.5q-118 0 -235.5 39 t-207.5 92zM385 670q0 -40 31.5 -62.5t124.5 -61.5q17 -7 26 -11q51 11 77 39.5t26 64.5q0 39 -32 61t-122 60q-19 8 -29 12q-52 -11 -77 -38.5t-25 -63.5z" />
<glyph unicode="&#xa8;" horiz-adv-x="446" d="M150 1227l45 258h241l-45 -258h-241zM481 1227l45 258h242l-45 -258h-242z" />
<glyph unicode="&#xa9;" horiz-adv-x="1603" d="M90 641q0 131 32.5 251.5t98 223t158 178.5t219 119t274.5 43q206 0 360.5 -84.5t235 -234.5t80.5 -344q0 -131 -32.5 -251.5t-98.5 -223.5t-158 -179t-219.5 -119t-275.5 -43q-309 0 -491.5 184t-182.5 480zM168 643q0 -171 70.5 -303t209 -208.5t324.5 -76.5 q160 0 293 58.5t220 159t135 234t48 284.5q0 127 -41 235t-117 186t-190 122t-254 44q-160 0 -293 -58.5t-221 -159t-136 -233.5t-48 -284zM440 618q-5 126 27 230.5t90 172t134.5 104t162.5 36.5q54 0 104.5 -12.5t94.5 -37t69.5 -42.5t59.5 -45l-64 -66q-29 24 -47 37.5 t-54.5 35.5t-78 33t-86.5 11q-137 0 -227.5 -128t-83.5 -322q5 -124 56 -195.5t138 -71.5q146 0 309 113l52 -74q-53 -35 -95 -58t-115.5 -46t-144.5 -23q-126 0 -210.5 91.5t-90.5 256.5z" />
<glyph unicode="&#xaa;" horiz-adv-x="772" d="M141 999q0 111 32.5 211.5t99 169t153.5 68.5q54 0 91 -21t73 -57l12 64h215l-115 -646h-213l13 68q-97 -82 -191 -82q-78 0 -124 60t-46 165zM360 1032q0 -78 52 -78q57 0 118 74l31 176q-15 30 -38 47t-46 17q-36 0 -63.5 -41t-40.5 -94t-13 -101z" />
<glyph unicode="&#xab;" horiz-adv-x="1177" d="M23 449l34 200l582 430l-64 -354l-288 -197l223 -192l-55 -316zM549 449l35 200l581 430l-63 -354l-289 -197l223 -192l-55 -316z" />
<glyph unicode="&#xac;" horiz-adv-x="1142" d="M49 557l45 252h998l-111 -625h-262l65 373h-735z" />
<glyph unicode="&#xad;" horiz-adv-x="768" d="M70 449l45 268h571l-45 -268h-571z" />
<glyph unicode="&#xae;" horiz-adv-x="866" d="M139 1069q0 81 26 154t74.5 129.5t123.5 89.5t167 33q154 0 245 -92t91 -240q0 -110 -43.5 -200.5t-134 -148t-211.5 -57.5q-155 0 -246.5 92t-91.5 240zM209 1071q0 -117 73 -191.5t199 -74.5q147 0 233.5 96t86.5 240q0 117 -74.5 191.5t-200.5 74.5q-147 0 -232 -96 t-85 -240zM338 926l65 370h162q53 0 84 -27.5t31 -68.5q0 -48 -32 -77.5t-85 -37.5l62 -159h-68l-57 157h-70l-27 -157h-65zM442 1143h90q40 0 60 15.5t20 41.5q0 35 -49 35h-104z" />
<glyph unicode="&#xaf;" horiz-adv-x="540" d="M227 1257l35 193h533l-35 -193h-533z" />
<glyph unicode="&#xb0;" horiz-adv-x="784" d="M131 1100q0 139 99 237.5t239 98.5q138 0 237 -98.5t99 -237.5t-99 -238.5t-237 -99.5q-139 0 -238.5 99t-99.5 239zM322 1100q0 -60 43 -103t104 -43q59 0 101 43t42 103t-42 102.5t-101 42.5q-61 0 -104 -42.5t-43 -102.5z" />
<glyph unicode="&#xb1;" horiz-adv-x="1144" d="M29 0l37 215h872l-37 -215h-872zM133 600l45 250h307l47 264h256l-47 -264h310l-45 -250h-308l-47 -266h-256l47 266h-309z" />
<glyph unicode="&#xb2;" horiz-adv-x="720" d="M76 788l16 97q9 52 31.5 99.5t48.5 81.5t65.5 69.5t68.5 57t73 50.5q132 85 164 116q34 33 35 60q0 49 -68 49q-72 0 -203 -75l-82 157q162 113 324 113q125 0 189.5 -63t64.5 -158q0 -49 -20 -96t-47 -80t-69.5 -67.5t-72 -53.5t-70.5 -43q-70 -41 -101.5 -68.5 t-37.5 -52.5h336l-33 -193h-612z" />
<glyph unicode="&#xb3;" horiz-adv-x="718" d="M76 911l117 142q70 -45 117.5 -63.5t92.5 -18.5q52 0 82.5 23.5t30.5 62.5q0 86 -172 86h-29l33 192h35q28 0 56.5 4.5t54.5 13.5t42.5 26.5t16.5 39.5t-15.5 35.5t-45.5 13.5q-84 0 -199 -69l-72 155q162 109 324 109q115 0 175 -54.5t60 -138.5q0 -137 -155 -213 q114 -60 114 -194q0 -50 -17.5 -98.5t-53 -92.5t-99.5 -71t-147 -27q-188 0 -346 137z" />
<glyph unicode="&#xb4;" horiz-adv-x="434" d="M150 1206l260 287h358l-342 -287h-276z" />
<glyph unicode="&#xb5;" horiz-adv-x="1150" d="M-68 -418l265 1493h321l-121 -682q-29 -155 58 -155q47 0 104.5 35t102.5 83l126 719h322l-190 -1075h-320l21 117q-80 -59 -150.5 -94.5t-146.5 -42.5l-70 -398h-322z" />
<glyph unicode="&#xb6;" horiz-adv-x="1320" d="M98 831q0 169 70.5 306t202 217t299.5 80h278l-321 -1813h-262l141 801q-183 0 -295.5 104.5t-112.5 304.5zM739 -379l320 1813h264l-319 -1813h-265z" />
<glyph unicode="&#xb7;" horiz-adv-x="516" d="M59 399l66 367h317l-65 -367h-318z" />
<glyph unicode="&#xb8;" horiz-adv-x="317" d="M-82 -336l88 160q38 -23 76 -23q35 0 58.5 21.5t23.5 71.5q0 24 -6 51.5t-12 42.5l-7 16h135q37 -68 37 -156q0 -113 -66.5 -172t-164.5 -59q-102 0 -162 47z" />
<glyph unicode="&#xb9;" horiz-adv-x="593" d="M160 1507l246 142h210l-151 -861h-221l112 633l-120 -65z" />
<glyph unicode="&#xba;" horiz-adv-x="739" d="M137 1042q0 69 18 136.5t56 130t107 101t159 38.5q59 0 110 -15t92.5 -45.5t65 -83.5t23.5 -124q0 -69 -18 -136.5t-55.5 -130t-106.5 -101t-160 -38.5q-59 0 -110 15t-92.5 45.5t-65 83.5t-23.5 124zM350 1038q0 -45 18 -68.5t62 -23.5q42 0 72.5 46t41.5 97.5t11 94.5 q0 45 -18 68.5t-62 23.5q-32 0 -57.5 -26.5t-39.5 -66t-21 -77.5t-7 -68z" />
<glyph unicode="&#xbb;" horiz-adv-x="1179" d="M-8 20l63 355l289 196l-223 193l55 315l432 -428l-35 -200zM518 20l64 355l288 196l-223 193l55 315l433 -428l-35 -200z" />
<glyph unicode="&#xbc;" horiz-adv-x="1601" d="M158 1292l245 142h211l-151 -861h-221l112 633l-121 -65zM233 0l793 1434h238l-793 -1434h-238zM737 150l27 161l412 549h297l-93 -518h109l-33 -192h-108l-27 -150h-221l26 150h-389zM987 342h172l53 303z" />
<glyph unicode="&#xbd;" horiz-adv-x="1630" d="M158 1292l245 142h211l-151 -861h-221l112 633l-121 -65zM233 0l793 1434h238l-793 -1434h-238zM829 0l17 96q11 64 39.5 119t73.5 100.5t82 74t92 65.5q58 37 81.5 53t57 42t46 44.5t13.5 36.5q0 49 -67 49q-71 0 -203 -76l-82 158q160 112 324 112q125 0 189 -63 t64 -158q0 -49 -20 -96t-46.5 -80t-69 -67.5t-72 -53.5t-70.5 -43q-70 -41 -101.5 -68t-37.5 -52h336l-33 -193h-613z" />
<glyph unicode="&#xbe;" horiz-adv-x="1755" d="M68 696l116 142q128 -82 211 -82q52 0 82.5 23.5t30.5 62.5q0 86 -172 86h-29l33 192h35q28 0 56.5 4.5t54.5 13.5t42.5 26.5t16.5 39.5t-16 35.5t-46 13.5q-83 0 -198 -69l-72 155q162 109 324 109q115 0 175 -54.5t60 -138.5q0 -137 -156 -213q115 -61 115 -194 q0 -50 -17.5 -98.5t-53 -92.5t-99.5 -71t-147 -27q-188 0 -346 137zM389 0l793 1434h237l-792 -1434h-238zM895 150l27 161l411 549h297l-92 -518h109l-33 -192h-109l-26 -150h-222l27 150h-389zM1145 342h172l53 303z" />
<glyph unicode="&#xbf;" horiz-adv-x="958" d="M14 315q0 86 33.5 161t84 126t118 92.5t126.5 65t118 37.5l43 161h194l-43 -346q-167 -41 -250.5 -98t-83.5 -141q0 -47 29.5 -77t87.5 -30q92 0 246 96l117 -237q-215 -148 -441 -148q-174 0 -276.5 92.5t-102.5 245.5zM500 1098l59 336h318l-60 -336h-317z" />
<glyph unicode="&#xc0;" horiz-adv-x="1239" d="M-96 0l682 1434h364l174 -1434h-350l-14 262h-379l-105 -262h-372zM487 1802h326l162 -286h-246zM492 535h253l-30 559z" />
<glyph unicode="&#xc1;" horiz-adv-x="1239" d="M-96 0l682 1434h364l174 -1434h-350l-14 262h-379l-105 -262h-372zM492 535h253l-30 559zM592 1516l260 286h358l-342 -286h-276z" />
<glyph unicode="&#xc2;" horiz-adv-x="1239" d="M-96 0l682 1434h364l174 -1434h-350l-14 262h-379l-105 -262h-372zM455 1516l235 286h291l131 -286h-199l-92 143l-139 -143h-227zM492 535h253l-30 559z" />
<glyph unicode="&#xc3;" horiz-adv-x="1239" d="M-96 0l682 1434h364l174 -1434h-350l-14 262h-379l-105 -262h-372zM463 1612q19 30 23.5 37t21.5 33t23 33t22.5 27.5t25.5 26.5t25.5 19t29.5 17t30.5 8t35.5 4q39 0 83 -24.5t81 -49.5t60 -25q43 0 106 99l123 -91q-23 -38 -34.5 -55.5t-33 -47t-37 -43.5t-38 -30.5 t-46 -23t-51.5 -6.5q-38 0 -81.5 24.5t-79.5 49t-58 24.5q-45 0 -108 -96zM492 535h253l-30 559z" />
<glyph unicode="&#xc4;" horiz-adv-x="1239" d="M-96 0l682 1434h364l174 -1434h-350l-14 262h-379l-105 -262h-372zM492 535h253l-30 559zM500 1536l45 258h241l-45 -258h-241zM831 1536l46 258h241l-45 -258h-242z" />
<glyph unicode="&#xc5;" horiz-adv-x="1241" d="M-98 0l682 1434h364l174 -1434h-350l-14 262h-379l-105 -262h-372zM489 535h254l-30 559zM598 1714q0 92 63.5 156.5t155.5 64.5q91 0 156 -64.5t65 -156.5q0 -91 -65 -155t-156 -64q-92 0 -155.5 64t-63.5 155zM745 1714q0 -30 21 -51t51 -21q29 0 51.5 21.5t22.5 50.5 q0 30 -22 52t-52 22q-31 0 -51.5 -21.5t-20.5 -52.5z" />
<glyph unicode="&#xc6;" horiz-adv-x="1859" d="M-162 0l1032 1434h1055l-53 -295h-547l-49 -277h444l-51 -289h-444l-51 -278h559l-52 -295h-890l45 262h-400l-178 -262h-420zM631 545h254l88 502z" />
<glyph unicode="&#xc7;" horiz-adv-x="1142" d="M76 522q0 118 18 231.5t52.5 218t87.5 192.5t120.5 153.5t155 102t186.5 36.5q74 0 145.5 -17t142.5 -53t116 -63t117 -76l-179 -246q-105 70 -177 105t-136 35q-72 0 -132.5 -57t-98 -147t-58 -194t-20.5 -204q0 -248 151 -248q102 0 342 133l129 -272 q-286 -148 -477 -170q27 -68 27 -134q0 -113 -67 -172t-165 -59q-101 0 -161 47l88 160q38 -23 75 -23q35 0 58.5 21.5t23.5 71.5q0 42 -16 88q-170 20 -259 160.5t-89 379.5z" />
<glyph unicode="&#xc8;" horiz-adv-x="1083" d="M14 0l252 1434h883l-53 -295h-547l-49 -277h444l-51 -289h-444l-52 -278h559l-51 -295h-891zM434 1802h326l162 -286h-246z" />
<glyph unicode="&#xc9;" horiz-adv-x="1085" d="M14 0l252 1434h883l-53 -295h-547l-49 -277h444l-51 -289h-444l-52 -278h559l-51 -295h-891zM520 1516l260 286h359l-342 -286h-277z" />
<glyph unicode="&#xca;" horiz-adv-x="1083" d="M14 0l252 1434h883l-53 -295h-547l-49 -277h444l-51 -289h-444l-52 -278h559l-51 -295h-891zM397 1516l236 286h291l131 -286h-199l-92 143l-139 -143h-228z" />
<glyph unicode="&#xcb;" horiz-adv-x="1083" d="M14 0l252 1434h883l-53 -295h-547l-49 -277h444l-51 -289h-444l-52 -278h559l-51 -295h-891zM446 1536l46 258h241l-45 -258h-242zM778 1536l45 258h242l-45 -258h-242z" />
<glyph unicode="&#xcc;" horiz-adv-x="579" d="M14 0l252 1434h334l-254 -1434h-332zM156 1802h325l162 -286h-246z" />
<glyph unicode="&#xcd;" horiz-adv-x="577" d="M14 0l252 1434h334l-254 -1434h-332zM242 1516l260 286h358l-342 -286h-276z" />
<glyph unicode="&#xce;" horiz-adv-x="577" d="M14 0l252 1434h334l-254 -1434h-332zM117 1516l235 286h291l131 -286h-199l-92 143l-139 -143h-227z" />
<glyph unicode="&#xcf;" horiz-adv-x="577" d="M14 0l252 1434h334l-254 -1434h-332zM166 1536l45 258h242l-45 -258h-242zM498 1536l45 258h241l-45 -258h-241z" />
<glyph unicode="&#xd0;" horiz-adv-x="1302" d="M18 584l48 268h120l103 582h358q163 0 283.5 -41t191 -116.5t104.5 -173t34 -220.5q0 -68 -8.5 -140.5t-31.5 -160.5t-58.5 -168t-95.5 -157t-136 -133t-186 -90t-240 -34h-467l102 584h-121zM420 295h76q107 0 191.5 51t134.5 134.5t76 182.5t26 203q0 144 -73 208.5 t-220 64.5h-60l-51 -287h215l-47 -268h-217z" />
<glyph unicode="&#xd1;" horiz-adv-x="1308" d="M14 0l252 1434h334l246 -871l151 871h332l-252 -1434h-334l-245 870l-152 -870h-332zM504 1612q19 30 23.5 37t21.5 33t23 33t22.5 27.5t25.5 26.5t25.5 19t29.5 17t30.5 8t35.5 4q39 0 83 -24.5t81 -49.5t60 -25q43 0 106 99l123 -91q-23 -38 -34.5 -55.5t-33 -47 t-37 -43.5t-38 -30.5t-46 -23t-51.5 -6.5q-38 0 -81.5 24.5t-79.5 49t-58 24.5q-45 0 -108 -96z" />
<glyph unicode="&#xd2;" horiz-adv-x="1347" d="M78 543q0 78 10.5 160.5t35.5 172.5t61.5 172.5t92 157.5t123.5 130t160 87.5t197 32.5q259 0 404 -142t145 -419q0 -78 -11 -161.5t-36 -173.5t-61.5 -173t-92 -158.5t-123.5 -131t-160.5 -88t-197.5 -32.5q-259 0 -403 143.5t-144 422.5zM416 545q0 -271 219 -271 q71 0 130.5 50.5t95.5 124.5t61 162t35 158.5t10 119.5q0 270 -219 270q-71 0 -130.5 -50.5t-95.5 -124t-61 -161.5t-35 -158.5t-10 -119.5zM539 1802h325l162 -286h-246z" />
<glyph unicode="&#xd3;" horiz-adv-x="1347" d="M78 543q0 78 10.5 160.5t35.5 172.5t61.5 172.5t92 157.5t123.5 130t160 87.5t197 32.5q259 0 404 -142t145 -419q0 -78 -11 -161.5t-36 -173.5t-61.5 -173t-92 -158.5t-123.5 -131t-160.5 -88t-197.5 -32.5q-259 0 -403 143.5t-144 422.5zM416 545q0 -271 219 -271 q71 0 130.5 50.5t95.5 124.5t61 162t35 158.5t10 119.5q0 270 -219 270q-71 0 -130.5 -50.5t-95.5 -124t-61 -161.5t-35 -158.5t-10 -119.5zM627 1516l260 286h358l-342 -286h-276z" />
<glyph unicode="&#xd4;" horiz-adv-x="1347" d="M78 543q0 78 10.5 160.5t35.5 172.5t61.5 172.5t92 157.5t123.5 130t160 87.5t197 32.5q259 0 404 -142t145 -419q0 -78 -11 -161.5t-36 -173.5t-61.5 -173t-92 -158.5t-123.5 -131t-160.5 -88t-197.5 -32.5q-259 0 -403 143.5t-144 422.5zM416 545q0 -271 219 -271 q71 0 130.5 50.5t95.5 124.5t61 162t35 158.5t10 119.5q0 270 -219 270q-71 0 -130.5 -50.5t-95.5 -124t-61 -161.5t-35 -158.5t-10 -119.5zM504 1516l235 286h291l131 -286h-198l-93 143l-139 -143h-227z" />
<glyph unicode="&#xd5;" horiz-adv-x="1347" d="M78 543q0 78 10.5 160.5t35.5 172.5t61.5 172.5t92 157.5t123.5 130t160 87.5t197 32.5q259 0 404 -142t145 -419q0 -78 -11 -161.5t-36 -173.5t-61.5 -173t-92 -158.5t-123.5 -131t-160.5 -88t-197.5 -32.5q-259 0 -403 143.5t-144 422.5zM416 545q0 -271 219 -271 q71 0 130.5 50.5t95.5 124.5t61 162t35 158.5t10 119.5q0 270 -219 270q-71 0 -130.5 -50.5t-95.5 -124t-61 -161.5t-35 -158.5t-10 -119.5zM514 1612q29 46 42 65.5t39.5 53t46 48t49 26.5t61.5 12q31 0 65.5 -15.5t59 -34t52 -34t46.5 -15.5q43 0 106 99l123 -91 q-29 -46 -42 -66.5t-39 -53.5t-46 -47.5t-49.5 -26.5t-62.5 -12q-38 0 -81.5 24.5t-80 49t-58.5 24.5q-45 0 -108 -96z" />
<glyph unicode="&#xd6;" horiz-adv-x="1347" d="M78 543q0 78 10.5 160.5t35.5 172.5t61.5 172.5t92 157.5t123.5 130t160 87.5t197 32.5q259 0 404 -142t145 -419q0 -78 -11 -161.5t-36 -173.5t-61.5 -173t-92 -158.5t-123.5 -131t-160.5 -88t-197.5 -32.5q-259 0 -403 143.5t-144 422.5zM416 545q0 -271 219 -271 q71 0 130.5 50.5t95.5 124.5t61 162t35 158.5t10 119.5q0 270 -219 270q-71 0 -130.5 -50.5t-95.5 -124t-61 -161.5t-35 -158.5t-10 -119.5zM553 1536l45 258h242l-45 -258h-242zM885 1536l45 258h241l-45 -258h-241z" />
<glyph unicode="&#xd7;" horiz-adv-x="1159" d="M141 436l285 266l-188 265l206 149l170 -237l258 241l170 -180l-284 -266l190 -264l-207 -148l-170 238l-260 -244z" />
<glyph unicode="&#xd8;" horiz-adv-x="1349" d="M-10 0l168 203q-80 133 -80 340q0 78 10.5 160.5t35.5 172.5t61.5 172.5t92 157.5t123.5 130t160 87.5t197 32.5q216 0 350 -98l63 76h224l-168 -205q80 -135 80 -334q0 -78 -11 -161.5t-36 -173.5t-61.5 -173t-92 -158.5t-123.5 -131t-160.5 -88t-197.5 -32.5 q-216 0 -351 99l-61 -76h-223zM416 516l483 588q-52 55 -151 55q-71 0 -130.5 -50.5t-95.5 -124t-61 -161.5t-35 -158.5t-10 -119.5v-29zM483 328q51 -54 152 -54q71 0 130.5 50.5t95.5 124.5t61 162t35 158.5t10 119.5v24z" />
<glyph unicode="&#xd9;" horiz-adv-x="1261" d="M79.5 393q1.5 85 20.5 193l150 848h332l-160 -912q-10 -55 -10 -96t13 -77t48 -54.5t92 -18.5q111 0 162.5 64.5t71.5 181.5l162 912h333l-161 -908q-17 -99 -41 -174.5t-68 -149t-105 -120.5t-153.5 -76t-212.5 -29q-135 0 -229.5 32t-146.5 85t-75.5 133.5t-22 165.5z M492 1802h325l162 -286h-246z" />
<glyph unicode="&#xda;" horiz-adv-x="1261" d="M79.5 393q1.5 85 20.5 193l150 848h332l-160 -912q-10 -55 -10 -96t13 -77t48 -54.5t92 -18.5q111 0 162.5 64.5t71.5 181.5l162 912h333l-161 -908q-17 -99 -41 -174.5t-68 -149t-105 -120.5t-153.5 -76t-212.5 -29q-135 0 -229.5 32t-146.5 85t-75.5 133.5t-22 165.5z M575 1516l261 286h358l-342 -286h-277z" />
<glyph unicode="&#xdb;" horiz-adv-x="1259" d="M79.5 393q1.5 85 20.5 193l150 848h332l-160 -912q-10 -55 -10 -96t13 -77t48 -54.5t92 -18.5q111 0 162.5 64.5t71.5 181.5l162 912h333l-161 -908q-17 -99 -41 -174.5t-68 -149t-105 -120.5t-153.5 -76t-212.5 -29q-135 0 -229.5 32t-146.5 85t-75.5 133.5t-22 165.5z M455 1516l235 286h291l131 -286h-199l-92 143l-139 -143h-227z" />
<glyph unicode="&#xdc;" horiz-adv-x="1261" d="M79.5 393q1.5 85 20.5 193l150 848h332l-160 -912q-10 -55 -10 -96t13 -77t48 -54.5t92 -18.5q111 0 162.5 64.5t71.5 181.5l162 912h333l-161 -908q-17 -99 -41 -174.5t-68 -149t-105 -120.5t-153.5 -76t-212.5 -29q-135 0 -229.5 32t-146.5 85t-75.5 133.5t-22 165.5z M504 1536l45 258h242l-46 -258h-241zM836 1536l45 258h241l-45 -258h-241z" />
<glyph unicode="&#xdd;" horiz-adv-x="1161" d="M139 1434h355l118 -541l306 541h385l-568 -861l-98 -573h-334l100 571zM528 1516l260 286h359l-342 -286h-277z" />
<glyph unicode="&#xde;" horiz-adv-x="1196" d="M14 0l252 1434h334l-41 -222h123q494 0 494 -395q0 -88 -20.5 -167t-65.5 -149t-111.5 -121t-163.5 -80.5t-215 -29.5h-205l-49 -270h-332zM444 555h148q119 0 181.5 63t62.5 168q0 74 -46 105t-133 31h-147z" />
<glyph unicode="&#xdf;" horiz-adv-x="1288" d="M-8 0l168 956q21 126 59 219t104 168.5t171 114.5t247 39q125 0 220.5 -30t150 -81t81 -112t26.5 -129q0 -46 -11.5 -88.5t-27.5 -70t-32.5 -49t-27.5 -31.5l-12 -9q-30 -8 -57.5 -19t-56.5 -27.5t-46.5 -40.5t-17.5 -52q0 -32 24.5 -57.5t74 -62.5t81.5 -73 q94 -105 94 -233q0 -150 -111.5 -252.5t-287.5 -102.5q-187 0 -395 125l149 224q47 -30 112 -56t115 -26q41 0 66 19.5t25 53.5q0 52 -62 99q-7 6 -33.5 24t-44.5 32t-43.5 40.5t-41.5 53.5t-28 67t-12 84q0 58 20 109t48 85t70 64.5t75 47.5t74 34q8 32 8 55q0 59 -41.5 96 t-130.5 37q-108 0 -169 -69.5t-91 -241.5l-164 -934h-319z" />
<glyph unicode="&#xe0;" horiz-adv-x="1116" d="M37 342q0 140 31 274t87.5 242t145 174t193.5 66q46 0 85.5 -11.5t73 -35t55 -43t50.5 -50.5l20 117h320l-189 -1075h-319l20 123q-73 -66 -147 -106t-160 -40q-123 0 -194.5 96.5t-71.5 268.5zM365 395q0 -68 23.5 -108.5t66.5 -40.5q92 0 202 137l56 322 q-28 57 -67 89.5t-81 32.5q-46 0 -85.5 -43t-63.5 -109t-37.5 -139.5t-13.5 -140.5zM393 1493h326l162 -287h-246z" />
<glyph unicode="&#xe1;" horiz-adv-x="1097" d="M37 342q0 140 31 274t87.5 242t145 174t193.5 66q46 0 85.5 -11.5t73 -35t55 -43t50.5 -50.5l20 117h320l-189 -1075h-319l20 123q-73 -66 -147 -106t-160 -40q-123 0 -194.5 96.5t-71.5 268.5zM365 395q0 -68 23.5 -108.5t66.5 -40.5q92 0 202 137l56 322 q-28 57 -67 89.5t-81 32.5q-46 0 -85.5 -43t-63.5 -109t-37.5 -139.5t-13.5 -140.5zM463 1206l260 287h358l-342 -287h-276z" />
<glyph unicode="&#xe2;" horiz-adv-x="1116" d="M37 342q0 140 31 274t87.5 242t145 174t193.5 66q46 0 85.5 -11.5t73 -35t55 -43t50.5 -50.5l20 117h320l-189 -1075h-319l20 123q-73 -66 -147 -106t-160 -40q-123 0 -194.5 96.5t-71.5 268.5zM356 1206l236 287h291l131 -287h-199l-92 144l-139 -144h-228zM365 395 q0 -68 23.5 -108.5t66.5 -40.5q92 0 202 137l56 322q-28 57 -67 89.5t-81 32.5q-46 0 -85.5 -43t-63.5 -109t-37.5 -139.5t-13.5 -140.5z" />
<glyph unicode="&#xe3;" horiz-adv-x="1116" d="M37 342q0 140 31 274t87.5 242t145 174t193.5 66q46 0 85.5 -11.5t73 -35t55 -43t50.5 -50.5l20 117h320l-189 -1075h-319l20 123q-73 -66 -147 -106t-160 -40q-123 0 -194.5 96.5t-71.5 268.5zM365 395q0 -68 23.5 -108.5t66.5 -40.5q92 0 202 137l56 322 q-28 57 -67 89.5t-81 32.5q-46 0 -85.5 -43t-63.5 -109t-37.5 -139.5t-13.5 -140.5zM371 1303q25 40 35 55t32 46t37 44t37 30t45.5 23t50.5 6q39 0 83 -24.5t80.5 -49t59.5 -24.5q44 0 107 98l123 -90q-28 -46 -41.5 -66.5t-39.5 -53.5t-46.5 -48t-50 -27t-62.5 -12 q-38 0 -81.5 25t-79.5 49.5t-58 24.5q-44 0 -108 -97z" />
<glyph unicode="&#xe4;" horiz-adv-x="1116" d="M37 342q0 140 31 274t87.5 242t145 174t193.5 66q46 0 85.5 -11.5t73 -35t55 -43t50.5 -50.5l20 117h320l-189 -1075h-319l20 123q-73 -66 -147 -106t-160 -40q-123 0 -194.5 96.5t-71.5 268.5zM365 395q0 -68 23.5 -108.5t66.5 -40.5q92 0 202 137l56 322 q-28 57 -67 89.5t-81 32.5q-46 0 -85.5 -43t-63.5 -109t-37.5 -139.5t-13.5 -140.5zM418 1227l45 258h242l-46 -258h-241zM750 1227l45 258h241l-45 -258h-241z" />
<glyph unicode="&#xe5;" horiz-adv-x="1116" d="M37 342q0 140 31 274t87.5 242t145 174t193.5 66q46 0 85.5 -11.5t73 -35t55 -43t50.5 -50.5l20 117h320l-189 -1075h-319l20 123q-73 -66 -147 -106t-160 -40q-123 0 -194.5 96.5t-71.5 268.5zM365 395q0 -68 23.5 -108.5t66.5 -40.5q92 0 202 137l56 322 q-28 57 -67 89.5t-81 32.5q-46 0 -85.5 -43t-63.5 -109t-37.5 -139.5t-13.5 -140.5zM508 1405q0 92 63.5 156.5t155.5 64.5q91 0 156 -64.5t65 -156.5q0 -91 -65 -155t-156 -64q-92 0 -155.5 64t-63.5 155zM655 1405q0 -30 21 -51t51 -21q29 0 51.5 21.5t22.5 50.5 q0 30 -22 52t-52 22q-31 0 -51.5 -21.5t-20.5 -52.5z" />
<glyph unicode="&#xe6;" horiz-adv-x="1636" d="M37 342q0 140 31 274t87.5 242t145 174t193.5 66q46 0 85.5 -11.5t73 -35t55 -43t50.5 -50.5l20 117h295q84 23 164 23q166 0 265.5 -83t99.5 -222q0 -87 -30 -153t-78 -105t-119 -63.5t-142.5 -33t-159.5 -8.5h-82v-22q0 -183 121 -183q38 0 95 19t99.5 38.5t120.5 59.5 l93 -227q-80 -45 -216.5 -91.5t-267.5 -46.5q-72 0 -143 23h-305l20 121q-160 -144 -305 -144q-123 0 -194.5 96.5t-71.5 268.5zM365 395q0 -68 23.5 -108.5t66.5 -40.5q89 0 200 135l17 90q6 125 39 225l2 11q-28 56 -67 88t-81 32q-46 0 -85.5 -43t-63.5 -109 t-37.5 -139.5t-13.5 -140.5zM1014 606h65q105 0 166.5 44.5t61.5 119.5q0 40 -24 65t-66 25q-75 0 -126 -71.5t-77 -182.5z" />
<glyph unicode="&#xe7;" horiz-adv-x="909" d="M35 397q0 171 41.5 308t110 221t152 128t173.5 44q45 0 91 -8t78.5 -17t77 -29t63.5 -30t62.5 -34.5t51.5 -29.5l-150 -233q-7 4 -35 21.5t-43.5 26.5t-41.5 21.5t-48.5 18.5t-42.5 6q-63 0 -113 -57.5t-76 -143t-26 -178.5q0 -78 29 -123t88 -45q17 0 38.5 5.5t49.5 17 t47 20t53.5 25.5t45.5 22l92 -256q-66 -30 -107.5 -47.5t-120 -41.5t-141.5 -29q27 -61 27 -132q0 -113 -67 -172t-165 -59q-101 0 -161 47l88 160q38 -23 75 -23q35 0 58.5 21.5t23.5 71.5q0 36 -18 96q-121 29 -190.5 131t-69.5 276z" />
<glyph unicode="&#xe8;" horiz-adv-x="999" d="M33 412q0 198 66 352.5t196 244t305 89.5q166 0 265.5 -83t99.5 -222q0 -87 -30 -153t-78 -105t-119 -63.5t-142.5 -33t-159.5 -8.5h-82v-22q0 -183 121 -183q38 0 94.5 18.5t100.5 39t121 59.5l92 -227q-80 -45 -216.5 -91.5t-267.5 -46.5q-171 0 -268.5 106t-97.5 329z M340 1493h326l161 -287h-245zM377 606h65q105 0 166.5 44.5t61.5 119.5q0 40 -24 65t-66 25q-75 0 -126 -71.5t-77 -182.5z" />
<glyph unicode="&#xe9;" horiz-adv-x="1001" d="M33 412q0 198 66 352.5t196 244t305 89.5q166 0 265.5 -83t99.5 -222q0 -87 -30 -153t-78 -105t-119 -63.5t-142.5 -33t-159.5 -8.5h-82v-22q0 -183 121 -183q38 0 94.5 18.5t100.5 39t121 59.5l92 -227q-80 -45 -216.5 -91.5t-267.5 -46.5q-171 0 -268.5 106t-97.5 329z M377 606h65q105 0 166.5 44.5t61.5 119.5q0 40 -24 65t-66 25q-75 0 -126 -71.5t-77 -182.5zM428 1206l260 287h359l-342 -287h-277z" />
<glyph unicode="&#xea;" horiz-adv-x="999" d="M33 412q0 198 66 352.5t196 244t305 89.5q166 0 265.5 -83t99.5 -222q0 -87 -30 -153t-78 -105t-119 -63.5t-142.5 -33t-159.5 -8.5h-82v-22q0 -183 121 -183q38 0 94.5 18.5t100.5 39t121 59.5l92 -227q-80 -45 -216.5 -91.5t-267.5 -46.5q-171 0 -268.5 106t-97.5 329z M303 1206l236 287h290l132 -287h-199l-92 144l-140 -144h-227zM377 606h65q105 0 166.5 44.5t61.5 119.5q0 40 -24 65t-66 25q-75 0 -126 -71.5t-77 -182.5z" />
<glyph unicode="&#xeb;" horiz-adv-x="997" d="M33 412q0 198 66 352.5t196 244t305 89.5q166 0 265.5 -83t99.5 -222q0 -87 -30 -153t-78 -105t-119 -63.5t-142.5 -33t-159.5 -8.5h-82v-22q0 -183 121 -183q38 0 94.5 18.5t100.5 39t121 59.5l92 -227q-80 -45 -216.5 -91.5t-267.5 -46.5q-171 0 -268.5 106t-97.5 329z M356 1227l45 258h242l-45 -258h-242zM377 606h65q105 0 166.5 44.5t61.5 119.5q0 40 -24 65t-66 25q-75 0 -126 -71.5t-77 -182.5zM688 1227l45 258h242l-45 -258h-242z" />
<glyph unicode="&#xec;" horiz-adv-x="518" d="M-10 0l190 1075h320l-191 -1075h-319zM70 1493h325l162 -287h-246z" />
<glyph unicode="&#xed;" horiz-adv-x="518" d="M-10 0l190 1075h320l-191 -1075h-319zM154 1206l260 287h358l-342 -287h-276z" />
<glyph unicode="&#xee;" horiz-adv-x="518" d="M-10 0l190 1075h320l-191 -1075h-319zM33 1206l235 287h291l131 -287h-198l-93 144l-139 -144h-227z" />
<glyph unicode="&#xef;" horiz-adv-x="518" d="M-10 0l190 1075h320l-191 -1075h-319zM82 1227l45 258h242l-45 -258h-242zM414 1227l45 258h241l-45 -258h-241z" />
<glyph unicode="&#xf0;" horiz-adv-x="1120" d="M23 410q0 152 63.5 282t174 206.5t241.5 76.5q55 0 102 -15t75 -34.5t50 -44.5t29.5 -38t11.5 -22q-17 216 -152 299l-59 -69h-248l99 118q-33 -1 -68 -5t-54 -8l-18 -3l15 258q69 23 180 23q71 0 151 -17l64 76h248l-127 -154q134 -90 200 -251t66 -355 q0 -124 -24.5 -236.5t-74 -207.5t-119.5 -164.5t-166.5 -108.5t-209.5 -39q-219 0 -334.5 119t-115.5 314zM356 403q0 -167 144 -167q47 0 85 20.5t62.5 53.5t41 75t23.5 83t7 81q0 76 -34.5 122t-111.5 46q-55 0 -98.5 -31.5t-68 -80.5t-37.5 -101.5t-13 -100.5z" />
<glyph unicode="&#xf1;" horiz-adv-x="1101" d="M-8 0l188 1075h320l-21 -117q184 140 328 140q140 0 198 -93t27 -270l-131 -735h-319l120 684q15 62 3.5 108t-60.5 46q-46 0 -103 -35t-106 -84l-125 -719h-319zM340 1303q29 45 42 65t39 53t46 47.5t49.5 26.5t61.5 12q39 0 83 -24.5t80.5 -49t59.5 -24.5q43 0 106 98 l123 -90l-35 -56t-32 -47t-37 -44t-37.5 -30t-46 -23.5t-51.5 -6.5q-38 0 -81.5 25t-80 49.5t-58.5 24.5q-44 0 -108 -97z" />
<glyph unicode="&#xf2;" horiz-adv-x="1095" d="M37 416q0 92 17.5 183.5t58.5 182.5t101.5 160.5t154.5 112.5t209 43q73 0 138 -15t123.5 -48.5t101 -83.5t67 -125t24.5 -167t-17.5 -183.5t-58.5 -182.5t-101 -160.5t-153.5 -112.5t-207.5 -43q-93 0 -172.5 24.5t-144.5 75t-102.5 137.5t-37.5 202zM356 408 q0 -86 32 -130.5t106 -44.5q56 0 100.5 48t69 119t37 141t12.5 127q0 86 -32 130t-106 44q-56 0 -100.5 -47.5t-69 -119t-37 -141t-12.5 -126.5zM356 1493h326l162 -287h-246z" />
<glyph unicode="&#xf3;" horiz-adv-x="1095" d="M37 416q0 92 17.5 183.5t58.5 182.5t101.5 160.5t154.5 112.5t209 43q73 0 138 -15t123.5 -48.5t101 -83.5t67 -125t24.5 -167t-17.5 -183.5t-58.5 -182.5t-101 -160.5t-153.5 -112.5t-207.5 -43q-93 0 -172.5 24.5t-144.5 75t-102.5 137.5t-37.5 202zM356 408 q0 -86 32 -130.5t106 -44.5q56 0 100.5 48t69 119t37 141t12.5 127q0 86 -32 130t-106 44q-56 0 -100.5 -47.5t-69 -119t-37 -141t-12.5 -126.5zM442 1206l260 287h359l-342 -287h-277z" />
<glyph unicode="&#xf4;" horiz-adv-x="1095" d="M37 416q0 92 17.5 183.5t58.5 182.5t101.5 160.5t154.5 112.5t209 43q73 0 138 -15t123.5 -48.5t101 -83.5t67 -125t24.5 -167t-17.5 -183.5t-58.5 -182.5t-101 -160.5t-153.5 -112.5t-207.5 -43q-93 0 -172.5 24.5t-144.5 75t-102.5 137.5t-37.5 202zM319 1206l236 287 h291l131 -287h-199l-92 144l-139 -144h-228zM356 408q0 -86 32 -130.5t106 -44.5q56 0 100.5 48t69 119t37 141t12.5 127q0 86 -32 130t-106 44q-56 0 -100.5 -47.5t-69 -119t-37 -141t-12.5 -126.5z" />
<glyph unicode="&#xf5;" horiz-adv-x="1095" d="M37 416q0 92 17.5 183.5t58.5 182.5t101.5 160.5t154.5 112.5t209 43q73 0 138 -15t123.5 -48.5t101 -83.5t67 -125t24.5 -167t-17.5 -183.5t-58.5 -182.5t-101 -160.5t-153.5 -112.5t-207.5 -43q-93 0 -172.5 24.5t-144.5 75t-102.5 137.5t-37.5 202zM338 1303 q25 40 35 55t32 46t37 44t37 30t45.5 23t50.5 6q39 0 83 -24.5t81 -49t60 -24.5q43 0 106 98l123 -90q-28 -46 -41.5 -66.5t-39.5 -53.5t-46.5 -48t-50 -27t-62.5 -12q-38 0 -81.5 25t-79.5 49.5t-58 24.5q-44 0 -108 -97zM356 408q0 -86 32 -130.5t106 -44.5q56 0 100.5 48 t69 119t37 141t12.5 127q0 86 -32 130t-106 44q-56 0 -100.5 -47.5t-69 -119t-37 -141t-12.5 -126.5z" />
<glyph unicode="&#xf6;" horiz-adv-x="1095" d="M37 416q0 92 17.5 183.5t58.5 182.5t101.5 160.5t154.5 112.5t209 43q73 0 138 -15t123.5 -48.5t101 -83.5t67 -125t24.5 -167t-17.5 -183.5t-58.5 -182.5t-101 -160.5t-153.5 -112.5t-207.5 -43q-93 0 -172.5 24.5t-144.5 75t-102.5 137.5t-37.5 202zM356 408 q0 -86 32 -130.5t106 -44.5q56 0 100.5 48t69 119t37 141t12.5 127q0 86 -32 130t-106 44q-56 0 -100.5 -47.5t-69 -119t-37 -141t-12.5 -126.5zM373 1227l45 258h241l-45 -258h-241zM705 1227l45 258h241l-45 -258h-241z" />
<glyph unicode="&#xf7;" horiz-adv-x="1142" d="M125 557l45 252h872l-45 -252h-872zM375 315q0 60 41.5 103t99.5 43q60 0 103 -43t43 -103q0 -59 -43 -101t-103 -42q-58 0 -99.5 42t-41.5 101zM504 1051q0 60 41 101.5t100 41.5q60 0 103 -41.5t43 -101.5t-43 -102t-103 -42q-59 0 -100 42t-41 102z" />
<glyph unicode="&#xf8;" horiz-adv-x="1095" d="M-31 0l135 156q-67 103 -67 260q0 92 17.5 183.5t58.5 182.5t101.5 160.5t154.5 112.5t209 43q165 0 280 -76l47 53h176l-125 -145q76 -110 76 -271q0 -92 -17.5 -183.5t-58.5 -182.5t-101 -160.5t-153.5 -112.5t-207.5 -43q-174 0 -293 80l-49 -57h-183zM356 446 l316 361q-35 35 -97 35q-51 0 -93.5 -40.5t-67.5 -103.5t-39.5 -127.5t-18.5 -124.5zM389 274q35 -41 105 -41q53 0 96 43.5t68 110.5t39 134t16 126z" />
<glyph unicode="&#xf9;" horiz-adv-x="1101" d="M43 340l129 735h322l-121 -682q-16 -65 -4 -110t61 -45q47 0 104.5 35t102.5 83l127 719h321l-190 -1075h-320l21 117q-184 -140 -328 -140q-140 0 -198 93t-27 270zM354 1493h326l162 -287h-246z" />
<glyph unicode="&#xfa;" horiz-adv-x="1101" d="M43 340l129 735h322l-121 -682q-16 -65 -4 -110t61 -45q47 0 104.5 35t102.5 83l127 719h321l-190 -1075h-320l21 117q-184 -140 -328 -140q-140 0 -198 93t-27 270zM442 1206l260 287h359l-342 -287h-277z" />
<glyph unicode="&#xfb;" horiz-adv-x="1101" d="M43 340l129 735h322l-121 -682q-16 -65 -4 -110t61 -45q47 0 104.5 35t102.5 83l127 719h321l-190 -1075h-320l21 117q-184 -140 -328 -140q-140 0 -198 93t-27 270zM319 1206l236 287h291l131 -287h-199l-92 144l-139 -144h-228z" />
<glyph unicode="&#xfc;" horiz-adv-x="1101" d="M43 340l129 735h322l-121 -682q-16 -65 -4 -110t61 -45q47 0 104.5 35t102.5 83l127 719h321l-190 -1075h-320l21 117q-184 -140 -328 -140q-140 0 -198 93t-27 270zM371 1227l45 258h241l-45 -258h-241zM702 1227l46 258h241l-45 -258h-242z" />
<glyph unicode="&#xfd;" horiz-adv-x="1030" d="M-20 -211q101 41 159.5 74.5t106.5 87.5l-154 1124h332l41 -674l280 674h347l-519 -1075q-39 -79 -61 -120.5t-68.5 -105.5t-94.5 -102t-125.5 -77t-174.5 -62zM408 1206l260 287h358l-342 -287h-276z" />
<glyph unicode="&#xfe;" horiz-adv-x="1110" d="M-82 -418l336 1911h319l-94 -528q157 133 299 133q126 0 199.5 -96t73.5 -269q0 -135 -30 -267t-85.5 -242.5t-144 -178.5t-195.5 -68q-47 0 -87 11t-74 34.5t-54.5 41.5t-50.5 49l-92 -531h-320zM375 367q63 -119 149 -119q60 0 106.5 71.5t68.5 167.5t22 189 q0 70 -23.5 111.5t-72.5 41.5q-85 0 -191 -124z" />
<glyph unicode="&#xff;" horiz-adv-x="1030" d="M-20 -211q101 41 159.5 74.5t106.5 87.5l-154 1124h332l41 -674l280 674h347l-519 -1075q-39 -79 -61 -120.5t-68.5 -105.5t-94.5 -102t-125.5 -77t-174.5 -62zM334 1227l45 258h242l-46 -258h-241zM666 1227l45 258h241l-45 -258h-241z" />
<glyph unicode="&#x100;" horiz-adv-x="1239" d="M-96 0l682 1434h364l174 -1434h-350l-14 262h-379l-105 -262h-372zM492 535h253l-30 559zM522 1567l35 192h533l-35 -192h-533z" />
<glyph unicode="&#x101;" horiz-adv-x="1116" d="M37 342q0 140 31 274t87.5 242t145 174t193.5 66q46 0 85.5 -11.5t73 -35t55 -43t50.5 -50.5l20 117h320l-189 -1075h-319l20 123q-73 -66 -147 -106t-160 -40q-123 0 -194.5 96.5t-71.5 268.5zM365 395q0 -68 23.5 -108.5t66.5 -40.5q92 0 202 137l56 322 q-28 57 -67 89.5t-81 32.5q-46 0 -85.5 -43t-63.5 -109t-37.5 -139.5t-13.5 -140.5zM428 1257l35 193h532l-34 -193h-533z" />
<glyph unicode="&#x102;" horiz-adv-x="1239" d="M-96 0l682 1434h364l174 -1434h-350l-14 262h-379l-105 -262h-372zM492 535h253l-30 559zM528 1778h189q-6 -38 17 -61t67 -23q59 0 97 23t42 61h188q-22 -124 -109 -193t-226 -69q-146 0 -215 72.5t-50 189.5z" />
<glyph unicode="&#x103;" horiz-adv-x="1116" d="M37 342q0 140 31 274t87.5 242t145 174t193.5 66q46 0 85.5 -11.5t73 -35t55 -43t50.5 -50.5l20 117h320l-189 -1075h-319l20 123q-73 -66 -147 -106t-160 -40q-123 0 -194.5 96.5t-71.5 268.5zM365 395q0 -68 23.5 -108.5t66.5 -40.5q92 0 202 137l56 322 q-28 57 -67 89.5t-81 32.5q-46 0 -85.5 -43t-63.5 -109t-37.5 -139.5t-13.5 -140.5zM430 1468h188q-6 -38 17 -61t67 -23q59 0 97.5 23t42.5 61h188q-22 -124 -109.5 -193t-226.5 -69q-146 0 -214.5 72.5t-49.5 189.5z" />
<glyph unicode="&#x104;" horiz-adv-x="1239" d="M-96 0l682 1434h364l174 -1434h-6q-40 -28 -64.5 -47t-55.5 -47t-46.5 -56t-15.5 -55q0 -13 4 -23t13 -15.5t17 -9t21 -4.5t20 -1.5t20.5 0t15.5 0.5l-56 -148q-85 0 -123 8q-135 30 -135 156q0 137 201 242h-160l-14 262h-379l-105 -262h-372zM492 535h253l-30 559z" />
<glyph unicode="&#x105;" horiz-adv-x="1116" d="M37 342q0 140 31 274t87.5 242t145 174t193.5 66q46 0 85.5 -11.5t73 -35t55 -43t50.5 -50.5l20 117h320l-189 -1075h-8q-40 -28 -64.5 -47t-55.5 -47t-46.5 -56t-15.5 -55q0 -13 4 -23t12.5 -15.5t16.5 -9t21 -4.5t20 -1.5t20.5 0t15.5 0.5l-55 -148q-85 0 -123 8 q-135 30 -135 156q0 137 201 242h-127l20 123q-73 -66 -147 -106t-160 -40q-123 0 -194.5 96.5t-71.5 268.5zM365 395q0 -68 23.5 -108.5t66.5 -40.5q92 0 202 137l56 322q-28 57 -67 89.5t-81 32.5q-46 0 -85.5 -43t-63.5 -109t-37.5 -139.5t-13.5 -140.5z" />
<glyph unicode="&#x106;" horiz-adv-x="1142" d="M76 522q0 118 18 231.5t52.5 218t87.5 192.5t120.5 153.5t155 102t186.5 36.5q74 0 145.5 -17t142.5 -53t116 -63t117 -76l-179 -246q-105 70 -177 105t-136 35q-72 0 -132.5 -57t-98 -147t-58 -194t-20.5 -204q0 -248 151 -248q102 0 342 133l129 -272 q-163 -84 -294.5 -129.5t-258.5 -45.5q-199 0 -304 143t-105 402zM621 1516l260 286h358l-342 -286h-276z" />
<glyph unicode="&#x107;" horiz-adv-x="911" d="M35 397q0 171 41.5 308t110 221t152 128t173.5 44q45 0 91 -8t78.5 -17t77 -29t63.5 -30t62.5 -34.5t51.5 -29.5l-150 -233q-7 4 -35 21.5t-43.5 26.5t-41.5 21.5t-48.5 18.5t-42.5 6q-63 0 -113 -57.5t-76 -143t-26 -178.5q0 -78 29 -123t88 -45q17 0 38.5 5.5t49.5 17 t47 20t53.5 25.5t45.5 22l92 -256q-75 -34 -119.5 -53t-133 -43.5t-157.5 -24.5q-160 0 -259 106.5t-99 313.5zM395 1206l260 287h359l-342 -287h-277z" />
<glyph unicode="&#x10a;" horiz-adv-x="1142" d="M76 522q0 118 18 231.5t52.5 218t87.5 192.5t120.5 153.5t155 102t186.5 36.5q74 0 145.5 -17t142.5 -53t116 -63t117 -76l-179 -246q-105 70 -177 105t-136 35q-72 0 -132.5 -57t-98 -147t-58 -194t-20.5 -204q0 -248 151 -248q102 0 342 133l129 -272 q-163 -84 -294.5 -129.5t-258.5 -45.5q-199 0 -304 143t-105 402zM651 1536l47 262h248l-45 -262h-250z" />
<glyph unicode="&#x10b;" horiz-adv-x="909" d="M35 397q0 171 41.5 308t110 221t152 128t173.5 44q45 0 91 -8t78.5 -17t77 -29t63.5 -30t62.5 -34.5t51.5 -29.5l-150 -233q-7 4 -35 21.5t-43.5 26.5t-41.5 21.5t-48.5 18.5t-42.5 6q-63 0 -113 -57.5t-76 -143t-26 -178.5q0 -78 29 -123t88 -45q17 0 38.5 5.5t49.5 17 t47 20t53.5 25.5t45.5 22l92 -256q-75 -34 -119.5 -53t-133 -43.5t-157.5 -24.5q-160 0 -259 106.5t-99 313.5zM479 1227l47 262h248l-45 -262h-250z" />
<glyph unicode="&#x10c;" horiz-adv-x="1142" d="M76 522q0 118 18 231.5t52.5 218t87.5 192.5t120.5 153.5t155 102t186.5 36.5q74 0 145.5 -17t142.5 -53t116 -63t117 -76l-179 -246q-105 70 -177 105t-136 35q-72 0 -132.5 -57t-98 -147t-58 -194t-20.5 -204q0 -248 151 -248q102 0 342 133l129 -272 q-163 -84 -294.5 -129.5t-258.5 -45.5q-199 0 -304 143t-105 402zM498 1802h200l93 -145l139 145h225l-233 -286h-293z" />
<glyph unicode="&#x10d;" horiz-adv-x="909" d="M35 397q0 171 41.5 308t110 221t152 128t173.5 44q45 0 91 -8t78.5 -17t77 -29t63.5 -30t62.5 -34.5t51.5 -29.5l-150 -233q-7 4 -35 21.5t-43.5 26.5t-41.5 21.5t-48.5 18.5t-42.5 6q-63 0 -113 -57.5t-76 -143t-26 -178.5q0 -78 29 -123t88 -45q17 0 38.5 5.5t49.5 17 t47 20t53.5 25.5t45.5 22l92 -256q-75 -34 -119.5 -53t-133 -43.5t-157.5 -24.5q-160 0 -259 106.5t-99 313.5zM322 1493h200l92 -145l140 145h225l-234 -287h-292z" />
<glyph unicode="&#x10e;" horiz-adv-x="1280" d="M14 0l252 1434h359q163 0 283 -41t191 -116.5t104.5 -173t33.5 -220.5q0 -68 -8.5 -140.5t-31.5 -160.5t-58.5 -168t-95.5 -157t-136 -133t-186 -90t-240 -34h-467zM397 295h76q107 0 191.5 51t134.5 134.5t76 182.5t26 203q0 144 -73 208.5t-220 64.5h-59zM539 1802h200 l92 -145l140 145h225l-233 -286h-293z" />
<glyph unicode="&#x10f;" horiz-adv-x="1241" d="M37 342q0 140 31 274t87.5 242t145 174t193.5 66q46 0 85.5 -11.5t73 -35t55 -43t50.5 -50.5l94 535h319l-262 -1493h-319l20 123q-73 -66 -147 -106t-160 -40q-123 0 -194.5 96.5t-71.5 268.5zM365 395q0 -68 23.5 -108.5t66.5 -40.5q92 0 202 137l56 322 q-28 57 -67 89.5t-81 32.5q-46 0 -85.5 -43t-63.5 -109t-37.5 -139.5t-13.5 -140.5zM1169 1063l129 168h-96l45 262h223l-40 -291l-216 -217z" />
<glyph unicode="&#x110;" horiz-adv-x="1302" d="M18 584l48 268h120l103 582h358q163 0 283.5 -41t191 -116.5t104.5 -173t34 -220.5q0 -68 -8.5 -140.5t-31.5 -160.5t-58.5 -168t-95.5 -157t-136 -133t-186 -90t-240 -34h-467l102 584h-121zM420 295h76q107 0 191.5 51t134.5 134.5t76 182.5t26 203q0 144 -73 208.5 t-220 64.5h-60l-51 -287h215l-47 -268h-217z" />
<glyph unicode="&#x111;" horiz-adv-x="1116" d="M37 342q0 140 31 274t87.5 242t145 174t193.5 66q46 0 85.5 -11.5t73 -35t55 -43t50.5 -50.5l39 220h-285l33 192h284l23 123h319l-22 -123h96l-33 -192h-96l-207 -1178h-319l20 123q-73 -66 -147 -106t-160 -40q-123 0 -194.5 96.5t-71.5 268.5zM365 395 q0 -68 23.5 -108.5t66.5 -40.5q92 0 202 137l56 322q-28 57 -67 89.5t-81 32.5q-46 0 -85.5 -43t-63.5 -109t-37.5 -139.5t-13.5 -140.5z" />
<glyph unicode="&#x112;" horiz-adv-x="1083" d="M14 0l252 1434h883l-53 -295h-547l-49 -277h444l-51 -289h-444l-52 -278h559l-51 -295h-891zM469 1567l35 192h532l-35 -192h-532z" />
<glyph unicode="&#x113;" horiz-adv-x="999" d="M33 412q0 198 66 352.5t196 244t305 89.5q166 0 265.5 -83t99.5 -222q0 -87 -30 -153t-78 -105t-119 -63.5t-142.5 -33t-159.5 -8.5h-82v-22q0 -183 121 -183q38 0 94.5 18.5t100.5 39t121 59.5l92 -227q-80 -45 -216.5 -91.5t-267.5 -46.5q-171 0 -268.5 106t-97.5 329z M375 1257l35 193h532l-35 -193h-532zM377 606h65q105 0 166.5 44.5t61.5 119.5q0 40 -24 65t-66 25q-75 0 -126 -71.5t-77 -182.5z" />
<glyph unicode="&#x116;" horiz-adv-x="1083" d="M14 0l252 1434h883l-53 -295h-547l-49 -277h444l-51 -289h-444l-52 -278h559l-51 -295h-891zM606 1536l47 262h248l-45 -262h-250z" />
<glyph unicode="&#x117;" horiz-adv-x="999" d="M33 412q0 198 66 352.5t196 244t305 89.5q166 0 265.5 -83t99.5 -222q0 -87 -30 -153t-78 -105t-119 -63.5t-142.5 -33t-159.5 -8.5h-82v-22q0 -183 121 -183q38 0 94.5 18.5t100.5 39t121 59.5l92 -227q-80 -45 -216.5 -91.5t-267.5 -46.5q-171 0 -268.5 106t-97.5 329z M377 606h65q105 0 166.5 44.5t61.5 119.5q0 40 -24 65t-66 25q-75 0 -126 -71.5t-77 -182.5zM512 1227l47 262h248l-45 -262h-250z" />
<glyph unicode="&#x118;" horiz-adv-x="1083" d="M14 0l252 1434h883l-53 -295h-547l-49 -277h444l-51 -289h-444l-52 -278h559l-51 -295h-8q-40 -28 -64.5 -47t-55.5 -47t-46.5 -56t-15.5 -55q0 -13 4 -23t12.5 -15.5t16.5 -9t21 -4.5t20 -1.5t20.5 0t15.5 0.5l-55 -148q-85 0 -123 8q-135 30 -135 156q0 137 201 242 h-699z" />
<glyph unicode="&#x119;" horiz-adv-x="999" d="M33 412q0 198 66 352.5t196 244t305 89.5q166 0 265.5 -83t99.5 -222q0 -87 -30 -153t-78 -105t-119 -63.5t-142.5 -33t-159.5 -8.5h-82v-22q0 -183 121 -183q38 0 94.5 18.5t100.5 39t121 59.5l92 -227q-48 -27 -134 -61.5t-180 -55.5q-180 -118 -180 -203q0 -13 4 -23 t13 -15.5t17 -9t21 -4.5t20 -1.5t20.5 0t15.5 0.5l-56 -148q-85 0 -123 8q-135 30 -135 156t164 222q-150 14 -233.5 119.5t-83.5 312.5zM377 606h65q105 0 166.5 44.5t61.5 119.5q0 40 -24 65t-66 25q-75 0 -126 -71.5t-77 -182.5z" />
<glyph unicode="&#x11a;" horiz-adv-x="1083" d="M14 0l252 1434h883l-53 -295h-547l-49 -277h444l-51 -289h-444l-52 -278h559l-51 -295h-891zM449 1802h200l92 -145l140 145h225l-234 -286h-292z" />
<glyph unicode="&#x11b;" horiz-adv-x="999" d="M33 412q0 198 66 352.5t196 244t305 89.5q166 0 265.5 -83t99.5 -222q0 -87 -30 -153t-78 -105t-119 -63.5t-142.5 -33t-159.5 -8.5h-82v-22q0 -183 121 -183q38 0 94.5 18.5t100.5 39t121 59.5l92 -227q-80 -45 -216.5 -91.5t-267.5 -46.5q-171 0 -268.5 106t-97.5 329z M356 1493h201l92 -145l139 145h226l-234 -287h-293zM377 606h65q105 0 166.5 44.5t61.5 119.5q0 40 -24 65t-66 25q-75 0 -126 -71.5t-77 -182.5z" />
<glyph unicode="&#x11e;" horiz-adv-x="1241" d="M76 510q0 150 26 289t78.5 258.5t127 208.5t177 139.5t222.5 50.5q78 0 153 -17.5t150 -54.5t122 -65t123 -78l-178 -246q-146 88 -202 112q-79 34 -138 34q-76 0 -138.5 -56t-101.5 -146t-60 -196t-21 -211q0 -258 151 -258q59 0 125.5 42t118.5 96l27 147h-242l47 275 h551l-147 -834h-308l23 133q-156 -156 -318 -156q-168 0 -268 137.5t-100 395.5zM522 1778h189q-6 -38 17 -61t67 -23q59 0 97 23t42 61h188q-22 -124 -109.5 -193t-226.5 -69q-146 0 -214.5 72.5t-49.5 189.5z" />
<glyph unicode="&#x11f;" horiz-adv-x="1116" d="M-61 -350l108 258q82 -34 179.5 -58t170.5 -24q94 0 135.5 45.5t55.5 128.5l20 119q-158 -142 -305 -142q-123 0 -194.5 96.5t-71.5 268.5q0 140 31 274t87.5 242t145 174t193.5 66q86 0 147.5 -37.5t114.5 -99.5l20 114h322l-187 -1059q-24 -135 -62.5 -223.5 t-99 -139.5t-136 -71t-183.5 -20q-237 0 -491 88zM365 395q0 -68 23.5 -108.5t68.5 -40.5q87 0 198 135l58 328q-28 56 -66.5 87t-81.5 31q-46 0 -85.5 -43t-63.5 -109t-37.5 -139.5t-13.5 -140.5zM414 1468h188q-6 -38 17 -61t67 -23q59 0 97 23t42 61h189 q-22 -124 -109.5 -193t-226.5 -69q-146 0 -214.5 72.5t-49.5 189.5z" />
<glyph unicode="&#x120;" horiz-adv-x="1241" d="M76 510q0 150 26 289t78.5 258.5t127 208.5t177 139.5t222.5 50.5q78 0 153 -17.5t150 -54.5t122 -65t123 -78l-178 -246q-146 88 -202 112q-79 34 -138 34q-76 0 -138.5 -56t-101.5 -146t-60 -196t-21 -211q0 -258 151 -258q59 0 125.5 42t118.5 96l27 147h-242l47 275 h551l-147 -834h-308l23 133q-156 -156 -318 -156q-168 0 -268 137.5t-100 395.5zM655 1536l47 262h248l-45 -262h-250z" />
<glyph unicode="&#x121;" horiz-adv-x="1116" d="M-61 -350l108 258q82 -34 179.5 -58t170.5 -24q94 0 135.5 45.5t55.5 128.5l20 119q-158 -142 -305 -142q-123 0 -194.5 96.5t-71.5 268.5q0 140 31 274t87.5 242t145 174t193.5 66q86 0 147.5 -37.5t114.5 -99.5l20 114h322l-187 -1059q-24 -135 -62.5 -223.5 t-99 -139.5t-136 -71t-183.5 -20q-237 0 -491 88zM365 395q0 -68 23.5 -108.5t68.5 -40.5q87 0 198 135l58 328q-28 56 -66.5 87t-81.5 31q-46 0 -85.5 -43t-63.5 -109t-37.5 -139.5t-13.5 -140.5zM545 1227l47 262h248l-45 -262h-250z" />
<glyph unicode="&#x122;" horiz-adv-x="1241" d="M76 510q0 150 26 289t78.5 258.5t127 208.5t177 139.5t222.5 50.5q78 0 153 -17.5t150 -54.5t122 -65t123 -78l-178 -246q-146 88 -202 112q-79 34 -138 34q-76 0 -138.5 -56t-101.5 -146t-60 -196t-21 -211q0 -258 151 -258q59 0 125.5 42t118.5 96l27 147h-242l47 275 h551l-147 -834h-308l23 133q-156 -156 -318 -156q-168 0 -268 137.5t-100 395.5zM324 -543l129 168h-97l45 262h224l-41 -290l-215 -218z" />
<glyph unicode="&#x123;" horiz-adv-x="1116" d="M-61 -350l108 258q82 -34 179.5 -58t170.5 -24q94 0 135.5 45.5t55.5 128.5l20 119q-158 -142 -305 -142q-123 0 -194.5 96.5t-71.5 268.5q0 140 31 274t87.5 242t145 174t193.5 66q86 0 147.5 -37.5t114.5 -99.5l20 114h322l-187 -1059q-24 -135 -62.5 -223.5 t-99 -139.5t-136 -71t-183.5 -20q-237 0 -491 88zM365 395q0 -68 23.5 -108.5t68.5 -40.5q87 0 198 135l58 328q-28 56 -66.5 87t-81.5 31q-46 0 -85.5 -43t-63.5 -109t-37.5 -139.5t-13.5 -140.5zM571 1227l41 291l215 217l45 -78l-129 -168h97l-45 -262h-224z" />
<glyph unicode="&#x126;" horiz-adv-x="1325" d="M35 0l184 1053h-123l35 192h123l33 189h334l-35 -189h372l33 189h332l-33 -189h129l-35 -192h-129l-184 -1053h-332l107 608h-373l-106 -608h-332zM524 897h373l27 156h-373z" />
<glyph unicode="&#x127;" horiz-adv-x="1101" d="M-8 0l207 1178h-99l37 192h94l23 123h319l-22 -123h285l-37 -192h-281l-39 -220q184 140 328 140q140 0 198 -92t27 -269l-131 -737h-321l120 682q30 156 -55 156q-46 0 -103 -35t-106 -84l-125 -719h-319z" />
<glyph unicode="&#x128;" horiz-adv-x="579" d="M14 0l252 1434h334l-254 -1434h-332zM131 1612q29 46 42 65.5t39.5 53t46 48t49 26.5t61.5 12q31 0 65.5 -15.5t59 -34t52 -34t46.5 -15.5q43 0 106 99l123 -91q-29 -46 -42 -66.5t-39 -53.5t-46 -47.5t-49.5 -26.5t-62.5 -12q-38 0 -81.5 24.5t-80 49t-58.5 24.5 q-45 0 -108 -96z" />
<glyph unicode="&#x129;" horiz-adv-x="520" d="M-10 0l190 1075h320l-191 -1075h-319zM45 1303q29 45 42 65t39 53t46 47.5t49.5 26.5t61.5 12q39 0 83 -24.5t80.5 -49t59.5 -24.5q43 0 106 98l123 -90l-35 -56t-32 -47t-37 -44t-37.5 -30t-46 -23.5t-51.5 -6.5q-38 0 -81.5 25t-80 49.5t-58.5 24.5q-44 0 -108 -97z " />
<glyph unicode="&#x12a;" horiz-adv-x="577" d="M14 0l252 1434h334l-254 -1434h-332zM190 1567l35 192h533l-35 -192h-533z" />
<glyph unicode="&#x12b;" horiz-adv-x="518" d="M-10 0l190 1075h320l-191 -1075h-319zM102 1257l35 193h533l-35 -193h-533z" />
<glyph unicode="&#x12c;" horiz-adv-x="577" d="M14 0l252 1434h334l-254 -1434h-332zM195 1778h188q-6 -38 17 -61t67 -23q59 0 97 23t42 61h189q-22 -124 -109.5 -193t-226.5 -69q-146 0 -214.5 72.5t-49.5 189.5z" />
<glyph unicode="&#x12d;" horiz-adv-x="518" d="M-10 0l190 1075h320l-191 -1075h-319zM109 1468h188q-6 -38 17 -61t67 -23q59 0 97 23t42 61h189q-22 -124 -109.5 -193t-226.5 -69q-146 0 -214.5 72.5t-49.5 189.5z" />
<glyph unicode="&#x12e;" horiz-adv-x="577" d="M-47 -242q0 137 201 242h-140l252 1434h334l-254 -1434h-8q-40 -28 -64.5 -47t-55.5 -47t-46.5 -56t-15.5 -55q0 -13 4 -23t12.5 -15.5t16.5 -9t21 -4.5t20 -1.5t20.5 0t15.5 0.5l-55 -148q-85 0 -123 8q-135 30 -135 156z" />
<glyph unicode="&#x12f;" horiz-adv-x="516" d="M-82 -242q0 137 201 242h-129l190 1075h320l-191 -1075h-6q-40 -28 -64.5 -47t-55.5 -47t-46.5 -56t-15.5 -55q0 -13 4 -23t12.5 -15.5t16.5 -9t21 -4.5t20 -1.5t20.5 0t15.5 0.5l-55 -148q-85 0 -123 8q-135 30 -135 156zM197 1212l49 275h332l-48 -275h-333z" />
<glyph unicode="&#x130;" horiz-adv-x="577" d="M14 0l252 1434h334l-254 -1434h-332zM326 1536l47 262h248l-46 -262h-249z" />
<glyph unicode="&#x131;" horiz-adv-x="518" d="M-10 0l190 1075h320l-191 -1075h-319z" />
<glyph unicode="&#x132;" horiz-adv-x="1155" d="M14 0l252 1434h334l-254 -1434h-332zM375 -115q77 28 118.5 49t67 50.5t34 56t19.5 82.5l230 1311h334l-228 -1293q-31 -170 -54 -230q-41 -104 -140 -167q-100 -64 -307 -121z" />
<glyph unicode="&#x133;" horiz-adv-x="1034" d="M-10 0l190 1075h320l-191 -1075h-319zM197 1212l49 275h332l-48 -275h-333zM268 -217q64 24 102.5 43t64 35.5t39 42t20 48t14.5 68.5l186 1055h320l-180 -1026q-12 -69 -19 -102.5t-21 -85.5t-28.5 -77.5t-40.5 -62.5t-59 -58t-81 -47t-109.5 -45.5t-141.5 -39.5z M713 1212l47 275h334l-50 -275h-331z" />
<glyph unicode="&#x134;" horiz-adv-x="577" d="M-203 -115q62 23 100.5 42t63.5 36t39 43t21 49t16 68l229 1311h334l-227 -1293q-31 -170 -55 -231q-41 -104 -140 -167t-307 -120zM117 1516l235 286h291l131 -286h-199l-92 143l-139 -143h-227z" />
<glyph unicode="&#x135;" horiz-adv-x="518" d="M-246 -217q80 30 122 50.5t68 49.5t34 55t18 82l184 1055h320l-181 -1026q-14 -80 -21.5 -116.5t-25 -94t-38 -85t-56 -66.5t-84.5 -62t-118.5 -48.5t-161.5 -47.5zM31 1206l235 287h291l131 -287h-199l-92 144l-139 -144h-227z" />
<glyph unicode="&#x136;" horiz-adv-x="1239" d="M14 0l252 1434h334l-94 -533l444 533h428l-598 -660l355 -774h-369l-215 520l-139 -153l-66 -367h-332zM299 -543l129 168h-96l45 262h223l-41 -290l-215 -218z" />
<glyph unicode="&#x137;" horiz-adv-x="1032" d="M-8 0l262 1493h319l-135 -764l260 346h383l-393 -438l250 -637h-328l-137 395l-117 -131l-45 -264h-319zM209 -543l129 168h-96l45 262h223l-41 -290l-215 -218z" />
<glyph unicode="&#x138;" horiz-adv-x="1032" d="M-8 0l188 1075h320l-62 -346l260 346h383l-393 -438l250 -637h-328l-137 395l-117 -131l-45 -264h-319z" />
<glyph unicode="&#x139;" horiz-adv-x="1009" d="M14 0l252 1434h334l-203 -1141h533l-49 -293h-867zM242 1516l260 286h358l-342 -286h-276z" />
<glyph unicode="&#x13a;" horiz-adv-x="522" d="M-6 0l262 1493h319l-262 -1493h-319zM221 1575l260 287h359l-342 -287h-277z" />
<glyph unicode="&#x13b;" horiz-adv-x="1009" d="M14 0l252 1434h334l-203 -1141h533l-49 -293h-867zM227 -543l129 168h-96l45 262h223l-41 -290l-215 -218z" />
<glyph unicode="&#x13c;" horiz-adv-x="524" d="M-51 -543l129 168h-96l45 262h223l-41 -290l-215 -218zM-6 0l262 1493h319l-262 -1493h-319z" />
<glyph unicode="&#x13d;" horiz-adv-x="1011" d="M14 0l252 1434h334l-203 -1141h533l-49 -293h-867zM598 1004l129 167h-96l45 263h223l-41 -291l-215 -217z" />
<glyph unicode="&#x13e;" horiz-adv-x="649" d="M-6 0l262 1493h319l-262 -1493h-319zM575 1063l130 168h-97l45 262h224l-41 -291l-215 -217z" />
<glyph unicode="&#x13f;" horiz-adv-x="1011" d="M14 0l252 1434h334l-203 -1141h533l-49 -293h-867zM668 625l47 262h248l-45 -262h-250z" />
<glyph unicode="&#x140;" horiz-adv-x="714" d="M-6 0l262 1493h319l-262 -1493h-319zM494 625l47 262h247l-45 -262h-249z" />
<glyph unicode="&#x141;" horiz-adv-x="1028" d="M-10 385l53 303l125 72l119 674h334l-82 -461l243 141l-53 -305l-246 -141l-65 -375h532l-49 -293h-866l80 457z" />
<glyph unicode="&#x142;" horiz-adv-x="608" d="M18 428l54 303l110 64l123 698h320l-88 -494l112 64l-53 -305l-113 -64l-121 -694h-319l86 492z" />
<glyph unicode="&#x143;" horiz-adv-x="1308" d="M14 0l252 1434h334l246 -871l151 871h332l-252 -1434h-334l-245 870l-152 -870h-332zM616 1516l261 286h358l-342 -286h-277z" />
<glyph unicode="&#x144;" horiz-adv-x="1103" d="M-8 0l188 1075h320l-21 -117q184 140 328 140q140 0 198 -93t27 -270l-131 -735h-319l120 684q15 62 3.5 108t-60.5 46q-46 0 -103 -35t-106 -84l-125 -719h-319zM451 1206l260 287h358l-342 -287h-276z" />
<glyph unicode="&#x145;" horiz-adv-x="1308" d="M14 0l252 1434h334l246 -871l151 871h332l-252 -1434h-334l-245 870l-152 -870h-332zM350 -543l129 168h-96l45 262h223l-41 -290l-215 -218z" />
<glyph unicode="&#x146;" horiz-adv-x="1101" d="M-8 0l188 1075h320l-21 -117q184 140 328 140q140 0 198 -93t27 -270l-131 -735h-319l120 684q15 62 3.5 108t-60.5 46q-46 0 -103 -35t-106 -84l-125 -719h-319zM240 -543l129 168h-97l45 262h224l-41 -290l-215 -218z" />
<glyph unicode="&#x147;" horiz-adv-x="1308" d="M14 0l252 1434h334l246 -871l151 871h332l-252 -1434h-334l-245 870l-152 -870h-332zM545 1802h200l93 -145l139 145h225l-233 -286h-293z" />
<glyph unicode="&#x148;" horiz-adv-x="1101" d="M-8 0l188 1075h320l-21 -117q184 140 328 140q140 0 198 -93t27 -270l-131 -735h-319l120 684q15 62 3.5 108t-60.5 46q-46 0 -103 -35t-106 -84l-125 -719h-319zM379 1493h201l92 -145l139 145h225l-233 -287h-293z" />
<glyph unicode="&#x149;" horiz-adv-x="1101" d="M-8 0l188 1075h320l-21 -117q184 140 328 140q140 0 198 -93t27 -270l-131 -735h-319l120 684q15 62 3.5 108t-60.5 46q-46 0 -103 -35t-106 -84l-125 -719h-319zM205 1223l129 168h-96l45 262h223l-41 -291l-215 -217z" />
<glyph unicode="&#x14a;" horiz-adv-x="1308" d="M14 0l252 1434h334l246 -869l151 869h332l-231 -1323q-11 -60 -19 -94.5t-22 -79t-29.5 -70t-41.5 -58t-59 -53.5t-80 -45.5t-107 -45t-138 -42.5l-74 262q96 36 141.5 63t69.5 66l-241 856l-152 -870h-332z" />
<glyph unicode="&#x14b;" horiz-adv-x="1101" d="M-8 0l188 1075h320l-21 -119q177 142 328 142q140 0 198.5 -93t26.5 -270l-121 -686q-32 -173 -57 -236q-43 -110 -145 -173q-100 -61 -297 -109l-66 252q53 20 87.5 35t61 32.5t40 30.5t24.5 37t15.5 44t11.5 58l116 662q15 63 3.5 109.5t-60.5 46.5q-45 0 -102.5 -36 t-106.5 -85l-125 -717h-319z" />
<glyph unicode="&#x14c;" horiz-adv-x="1347" d="M78 543q0 78 10.5 160.5t35.5 172.5t61.5 172.5t92 157.5t123.5 130t160 87.5t197 32.5q259 0 404 -142t145 -419q0 -78 -11 -161.5t-36 -173.5t-61.5 -173t-92 -158.5t-123.5 -131t-160.5 -88t-197.5 -32.5q-259 0 -403 143.5t-144 422.5zM416 545q0 -271 219 -271 q71 0 130.5 50.5t95.5 124.5t61 162t35 158.5t10 119.5q0 270 -219 270q-71 0 -130.5 -50.5t-95.5 -124t-61 -161.5t-35 -158.5t-10 -119.5zM575 1567l35 192h533l-35 -192h-533z" />
<glyph unicode="&#x14d;" horiz-adv-x="1095" d="M37 416q0 92 17.5 183.5t58.5 182.5t101.5 160.5t154.5 112.5t209 43q73 0 138 -15t123.5 -48.5t101 -83.5t67 -125t24.5 -167t-17.5 -183.5t-58.5 -182.5t-101 -160.5t-153.5 -112.5t-207.5 -43q-93 0 -172.5 24.5t-144.5 75t-102.5 137.5t-37.5 202zM356 408 q0 -86 32 -130.5t106 -44.5q56 0 100.5 48t69 119t37 141t12.5 127q0 86 -32 130t-106 44q-56 0 -100.5 -47.5t-69 -119t-37 -141t-12.5 -126.5zM393 1257l35 193h533l-35 -193h-533z" />
<glyph unicode="&#x14e;" horiz-adv-x="1347" d="M78 543q0 78 10.5 160.5t35.5 172.5t61.5 172.5t92 157.5t123.5 130t160 87.5t197 32.5q259 0 404 -142t145 -419q0 -78 -11 -161.5t-36 -173.5t-61.5 -173t-92 -158.5t-123.5 -131t-160.5 -88t-197.5 -32.5q-259 0 -403 143.5t-144 422.5zM416 545q0 -271 219 -271 q71 0 130.5 50.5t95.5 124.5t61 162t35 158.5t10 119.5q0 270 -219 270q-71 0 -130.5 -50.5t-95.5 -124t-61 -161.5t-35 -158.5t-10 -119.5zM580 1778h188q-6 -38 17 -61t67 -23q59 0 97 23t42 61h189q-22 -124 -109.5 -193t-226.5 -69q-146 0 -214.5 72.5t-49.5 189.5z" />
<glyph unicode="&#x14f;" horiz-adv-x="1095" d="M37 416q0 92 17.5 183.5t58.5 182.5t101.5 160.5t154.5 112.5t209 43q73 0 138 -15t123.5 -48.5t101 -83.5t67 -125t24.5 -167t-17.5 -183.5t-58.5 -182.5t-101 -160.5t-153.5 -112.5t-207.5 -43q-93 0 -172.5 24.5t-144.5 75t-102.5 137.5t-37.5 202zM356 408 q0 -86 32 -130.5t106 -44.5q56 0 100.5 48t69 119t37 141t12.5 127q0 86 -32 130t-106 44q-56 0 -100.5 -47.5t-69 -119t-37 -141t-12.5 -126.5zM399 1468h189q-6 -38 17 -61t67 -23q59 0 97 23t42 61h188q-22 -124 -109 -193t-226 -69q-146 0 -215 72.5t-50 189.5z" />
<glyph unicode="&#x150;" horiz-adv-x="1349" d="M78 543q0 78 10.5 160.5t35.5 172.5t61.5 172.5t92 157.5t123.5 130t160 87.5t197 32.5q259 0 404 -142t145 -419q0 -78 -11 -161.5t-36 -173.5t-61.5 -173t-92 -158.5t-123.5 -131t-160.5 -88t-197.5 -32.5q-259 0 -403 143.5t-144 422.5zM416 545q0 -271 219 -271 q71 0 130.5 50.5t95.5 124.5t61 162t35 158.5t10 119.5q0 270 -219 270q-71 0 -130.5 -50.5t-95.5 -124t-61 -161.5t-35 -158.5t-10 -119.5zM547 1516l186 286h271l-269 -286h-188zM877 1516l186 286h270l-268 -286h-188z" />
<glyph unicode="&#x151;" horiz-adv-x="1095" d="M37 416q0 92 17.5 183.5t58.5 182.5t101.5 160.5t154.5 112.5t209 43q73 0 138 -15t123.5 -48.5t101 -83.5t67 -125t24.5 -167t-17.5 -183.5t-58.5 -182.5t-101 -160.5t-153.5 -112.5t-207.5 -43q-93 0 -172.5 24.5t-144.5 75t-102.5 137.5t-37.5 202zM356 408 q0 -86 32 -130.5t106 -44.5q56 0 100.5 48t69 119t37 141t12.5 127q0 86 -32 130t-106 44q-56 0 -100.5 -47.5t-69 -119t-37 -141t-12.5 -126.5zM365 1206l186 287h270l-268 -287h-188zM694 1206l187 287h270l-268 -287h-189z" />
<glyph unicode="&#x152;" horiz-adv-x="1908" d="M78 543q0 78 10.5 160.5t35.5 172.5t61.5 172.5t92 157.5t123.5 130t160 87.5t197 32.5q190 0 323 -80l11 58h882l-53 -295h-547l-49 -277h444l-51 -289h-444l-51 -278h559l-51 -295h-891l2 18q-103 -41 -217 -41q-259 0 -403 143.5t-144 422.5zM416 545q0 -271 219 -271 q71 0 130.5 50.5t95.5 124.5t61 162t35 158.5t10 119.5q0 270 -219 270q-71 0 -130.5 -50.5t-95.5 -124t-61 -161.5t-35 -158.5t-10 -119.5z" />
<glyph unicode="&#x153;" horiz-adv-x="1667" d="M37 416q0 92 17.5 183.5t58.5 182.5t101.5 160.5t154.5 112.5t209 43q217 0 340 -123q145 123 350 123q166 0 265 -83t99 -222q0 -87 -29.5 -153t-77.5 -105t-119 -63.5t-142.5 -33t-159.5 -8.5h-82v-22q0 -183 121 -183q38 0 95 19t99.5 38.5t120.5 59.5l92 -227 q-81 -45 -216.5 -91.5t-266.5 -46.5q-174 0 -268 103q-128 -103 -305 -103q-93 0 -172.5 24.5t-144.5 75t-102.5 137.5t-37.5 202zM356 408q0 -86 32 -130.5t106 -44.5q56 0 100.5 48t69 119t37 141t12.5 127q0 86 -32 130t-106 44q-56 0 -100.5 -47.5t-69 -119t-37 -141 t-12.5 -126.5zM1044 606h66q105 0 166 44.5t61 119.5q0 40 -24 65t-66 25q-75 0 -126 -71.5t-77 -182.5z" />
<glyph unicode="&#x154;" horiz-adv-x="1245" d="M14 0l252 1434h496q493 0 493 -373q0 -73 -19.5 -145.5t-61 -144.5t-118 -129t-179.5 -83l196 -559h-346l-166 539h-119l-96 -539h-332zM489 811h173q126 0 188.5 60.5t62.5 158.5q0 72 -48 101.5t-138 29.5h-176zM604 1516l260 286h359l-342 -286h-277z" />
<glyph unicode="&#x155;" horiz-adv-x="768" d="M-8 0l188 1075h320l-39 -223q14 26 30 50.5t50.5 63t72 65t93.5 44t116 12.5l-55 -315q-59 0 -112.5 -21t-91.5 -54t-70 -73t-52.5 -80.5t-34.5 -73.5t-20 -54l-6 -21l-70 -395h-319zM317 1206l261 287h358l-342 -287h-277z" />
<glyph unicode="&#x156;" horiz-adv-x="1245" d="M14 0l252 1434h496q493 0 493 -373q0 -73 -19.5 -145.5t-61 -144.5t-118 -129t-179.5 -83l196 -559h-346l-166 539h-119l-96 -539h-332zM301 -543l129 168h-96l45 262h223l-41 -290l-215 -218zM489 811h173q126 0 188.5 60.5t62.5 158.5q0 72 -48 101.5t-138 29.5h-176z " />
<glyph unicode="&#x157;" horiz-adv-x="768" d="M-55 -543l129 168h-97l46 262h223l-41 -290l-215 -218zM-8 0l188 1075h320l-39 -223q14 26 30 50.5t50.5 63t72 65t93.5 44t116 12.5l-55 -315q-59 0 -112.5 -21t-91.5 -54t-70 -73t-52.5 -80.5t-34.5 -73.5t-20 -54l-6 -21l-70 -395h-319z" />
<glyph unicode="&#x158;" horiz-adv-x="1245" d="M14 0l252 1434h496q493 0 493 -373q0 -73 -19.5 -145.5t-61 -144.5t-118 -129t-179.5 -83l196 -559h-346l-166 539h-119l-96 -539h-332zM489 811h173q126 0 188.5 60.5t62.5 158.5q0 72 -48 101.5t-138 29.5h-176zM532 1802h201l92 -145l140 145h225l-234 -286h-292z" />
<glyph unicode="&#x159;" horiz-adv-x="765" d="M-8 0l188 1075h320l-39 -223q14 26 30 50.5t50.5 63t72 65t93.5 44t116 12.5l-55 -315q-59 0 -112.5 -21t-91.5 -54t-70 -73t-52.5 -80.5t-34.5 -73.5t-20 -54l-6 -21l-70 -395h-319zM246 1493h200l93 -145l139 145h225l-233 -287h-293z" />
<glyph unicode="&#x15a;" horiz-adv-x="1138" d="M-25 188l185 238q95 -64 199 -111t184 -47q65 0 107 33.5t42 91.5q0 30 -13 54t-42.5 46t-56.5 37t-78 40.5t-82 43.5q-134 84 -206.5 179.5t-72.5 228.5q0 88 32 166t92.5 138t154 95t209.5 35q268 0 540 -172l-186 -240q-75 48 -170.5 84.5t-165.5 36.5q-61 0 -103 -31 t-42 -92q0 -28 11 -49.5t38.5 -41.5t52.5 -33.5t76.5 -39t85.5 -44.5q48 -30 85 -57t77 -66.5t66 -80.5t42.5 -96t16.5 -116q0 -88 -33.5 -166.5t-95 -140t-159 -98t-216.5 -36.5q-160 0 -309 61t-265 150zM516 1516l260 286h359l-342 -286h-277z" />
<glyph unicode="&#x15b;" horiz-adv-x="954" d="M-37 137l150 223q76 -48 170.5 -86t158.5 -38q43 0 68 18t25 47q0 16 -7 29.5t-17.5 22.5t-30.5 19.5t-36.5 17t-46 18t-49.5 20.5q-55 24 -96.5 49t-83 63.5t-64 92t-22.5 119.5q0 151 108 248.5t299 97.5q119 0 236 -39t205 -92l-148 -219q-174 94 -280 94 q-42 0 -66 -18t-24 -46q0 -19 7.5 -33.5t28 -26.5t36 -19.5t52 -21.5t56.5 -22q44 -19 77.5 -37t72 -47.5t64 -62t42 -79.5t16.5 -101q0 -153 -111 -252t-307 -99q-247 0 -483 160zM383 1206l260 287h358l-342 -287h-276z" />
<glyph unicode="&#x15c;" horiz-adv-x="1138" d="M-25 188l185 238q95 -64 199 -111t184 -47q65 0 107 33.5t42 91.5q0 30 -13 54t-42.5 46t-56.5 37t-78 40.5t-82 43.5q-134 84 -206.5 179.5t-72.5 228.5q0 88 32 166t92.5 138t154 95t209.5 35q268 0 540 -172l-186 -240q-75 48 -170.5 84.5t-165.5 36.5q-61 0 -103 -31 t-42 -92q0 -28 11 -49.5t38.5 -41.5t52.5 -33.5t76.5 -39t85.5 -44.5q48 -30 85 -57t77 -66.5t66 -80.5t42.5 -96t16.5 -116q0 -88 -33.5 -166.5t-95 -140t-159 -98t-216.5 -36.5q-160 0 -309 61t-265 150zM395 1516l236 286h291l131 -286h-199l-92 143l-139 -143h-228z" />
<glyph unicode="&#x15d;" horiz-adv-x="954" d="M-37 137l150 223q76 -48 170.5 -86t158.5 -38q43 0 68 18t25 47q0 16 -7 29.5t-17.5 22.5t-30.5 19.5t-36.5 17t-46 18t-49.5 20.5q-55 24 -96.5 49t-83 63.5t-64 92t-22.5 119.5q0 151 108 248.5t299 97.5q119 0 236 -39t205 -92l-148 -219q-174 94 -280 94 q-42 0 -66 -18t-24 -46q0 -19 7.5 -33.5t28 -26.5t36 -19.5t52 -21.5t56.5 -22q44 -19 77.5 -37t72 -47.5t64 -62t42 -79.5t16.5 -101q0 -153 -111 -252t-307 -99q-247 0 -483 160zM262 1206l236 287h290l132 -287h-199l-92 144l-140 -144h-227z" />
<glyph unicode="&#x15e;" horiz-adv-x="1138" d="M-25 188l185 238q95 -64 199 -111t184 -47q65 0 107 33.5t42 91.5q0 30 -13 54t-42.5 46t-56.5 37t-78 40.5t-82 43.5q-134 84 -206.5 179.5t-72.5 228.5q0 88 32 166t92.5 138t154 95t209.5 35q268 0 540 -172l-186 -240q-75 48 -170.5 84.5t-165.5 36.5q-61 0 -103 -31 t-42 -92q0 -28 11 -49.5t38.5 -41.5t52.5 -33.5t76.5 -39t85.5 -44.5q48 -30 85 -57t77 -66.5t66 -80.5t42.5 -96t16.5 -116q0 -114 -52.5 -209.5t-161 -158.5t-255.5 -70q26 -59 26 -132q0 -113 -66.5 -172t-164.5 -59q-102 0 -162 47l88 160q38 -23 76 -23q35 0 58.5 21.5 t23.5 71.5q0 27 -17 92q-254 33 -471 202z" />
<glyph unicode="&#x15f;" horiz-adv-x="954" d="M-37 137l150 223q76 -48 170.5 -86t158.5 -38q43 0 68 18t25 47q0 16 -7 29.5t-17.5 22.5t-30.5 19.5t-36.5 17t-46 18t-49.5 20.5q-55 24 -96.5 49t-83 63.5t-64 92t-22.5 119.5q0 151 108 248.5t299 97.5q119 0 236 -39t205 -92l-148 -219q-174 94 -280 94 q-42 0 -66 -18t-24 -46q0 -19 7.5 -33.5t28 -26.5t36 -19.5t52 -21.5t56.5 -22q44 -19 77.5 -37t72 -47.5t64 -62t42 -79.5t16.5 -101q0 -139 -92 -234t-258 -112q27 -61 27 -134q0 -113 -67 -172t-165 -59q-102 0 -162 47l89 160q38 -23 75 -23q35 0 58.5 21.5t23.5 71.5 q0 42 -16 88q-218 21 -414 155z" />
<glyph unicode="&#x160;" horiz-adv-x="1138" d="M-25 188l185 238q95 -64 199 -111t184 -47q65 0 107 33.5t42 91.5q0 30 -13 54t-42.5 46t-56.5 37t-78 40.5t-82 43.5q-134 84 -206.5 179.5t-72.5 228.5q0 88 32 166t92.5 138t154 95t209.5 35q268 0 540 -172l-186 -240q-75 48 -170.5 84.5t-165.5 36.5q-61 0 -103 -31 t-42 -92q0 -28 11 -49.5t38.5 -41.5t52.5 -33.5t76.5 -39t85.5 -44.5q48 -30 85 -57t77 -66.5t66 -80.5t42.5 -96t16.5 -116q0 -88 -33.5 -166.5t-95 -140t-159 -98t-216.5 -36.5q-160 0 -309 61t-265 150zM446 1802h201l92 -145l140 145h225l-234 -286h-292z" />
<glyph unicode="&#x161;" horiz-adv-x="954" d="M-37 137l150 223q76 -48 170.5 -86t158.5 -38q43 0 68 18t25 47q0 16 -7 29.5t-17.5 22.5t-30.5 19.5t-36.5 17t-46 18t-49.5 20.5q-55 24 -96.5 49t-83 63.5t-64 92t-22.5 119.5q0 151 108 248.5t299 97.5q119 0 236 -39t205 -92l-148 -219q-174 94 -280 94 q-42 0 -66 -18t-24 -46q0 -19 7.5 -33.5t28 -26.5t36 -19.5t52 -21.5t56.5 -22q44 -19 77.5 -37t72 -47.5t64 -62t42 -79.5t16.5 -101q0 -153 -111 -252t-307 -99q-247 0 -483 160zM309 1493h201l92 -145l139 145h226l-234 -287h-293z" />
<glyph unicode="&#x162;" horiz-adv-x="1038" d="M119 1139l51 295h987l-53 -295h-324l-200 -1139h-101q5 -8 12 -25.5t15 -54t8 -72.5q0 -113 -66.5 -172t-164.5 -59q-102 0 -162 47l88 160q38 -23 76 -23q35 0 58.5 21.5t23.5 71.5q0 37 -23 106h-98l200 1139h-327z" />
<glyph unicode="&#x163;" horiz-adv-x="768" d="M35 -336l88 160q38 -23 76 -23q35 0 58.5 21.5t23.5 71.5q0 33 -19 96q-205 56 -143 405l76 434h-119l43 246h119l47 258l329 53l-55 -311h234l-43 -246h-234l-82 -460q-11 -59 2.5 -79t40.5 -20q32 0 127 41l70 -258q-143 -59 -273 -71q27 -61 27 -134 q0 -113 -66.5 -172t-164.5 -59q-102 0 -162 47z" />
<glyph unicode="&#x164;" horiz-adv-x="1038" d="M119 1139l51 295h987l-53 -295h-324l-200 -1139h-334l200 1139h-327zM399 1802h201l92 -145l139 145h226l-234 -286h-293z" />
<glyph unicode="&#x165;" horiz-adv-x="768" d="M76 829l43 246h119l47 258l329 53l-55 -311h234l-43 -246h-234l-82 -460q-11 -59 2.5 -79t40.5 -20q32 0 127 41l70 -258q-186 -76 -328 -76q-148 0 -205 106.5t-22 311.5l76 434h-119zM657 1223l129 168h-96l45 262h223l-40 -291l-216 -217z" />
<glyph unicode="&#x166;" horiz-adv-x="1054" d="M125 1139l51 295h987l-53 -295h-324l-92 -521h144l-33 -192h-146l-73 -426h-334l74 426h-140l35 192h139l93 521h-328z" />
<glyph unicode="&#x167;" horiz-adv-x="768" d="M53 504l35 194h82l25 131h-119l43 246h119l47 258l329 53l-55 -311h234l-43 -246h-234l-24 -131h182l-33 -194h-184l-23 -135q-11 -59 2.5 -79t40.5 -20q32 0 127 41l70 -258q-186 -76 -328 -76q-148 0 -205 106.5t-22 311.5l18 109h-84z" />
<glyph unicode="&#x168;" horiz-adv-x="1261" d="M79.5 393q1.5 85 20.5 193l150 848h332l-160 -912q-10 -55 -10 -96t13 -77t48 -54.5t92 -18.5q111 0 162.5 64.5t71.5 181.5l162 912h333l-161 -908q-17 -99 -41 -174.5t-68 -149t-105 -120.5t-153.5 -76t-212.5 -29q-135 0 -229.5 32t-146.5 85t-75.5 133.5t-22 165.5z M465 1612q19 30 23.5 37t21.5 33t23 33t22.5 27.5t25.5 26.5t25.5 19t29.5 17t30.5 8t35.5 4q39 0 83 -24.5t81 -49.5t60 -25q43 0 106 99l123 -91q-23 -38 -34.5 -55.5t-33 -47t-37 -43.5t-38 -30.5t-46 -23t-51.5 -6.5q-38 0 -81.5 24.5t-79.5 49t-58 24.5q-45 0 -108 -96 z" />
<glyph unicode="&#x169;" horiz-adv-x="1101" d="M43 340l129 735h322l-121 -682q-16 -65 -4 -110t61 -45q47 0 104.5 35t102.5 83l127 719h321l-190 -1075h-320l21 117q-184 -140 -328 -140q-140 0 -198 93t-27 270zM348 1303q29 45 42 65t39 53t46 47.5t49.5 26.5t61.5 12q39 0 83 -24.5t80.5 -49t59.5 -24.5 q43 0 106 98l123 -90l-35 -56t-32 -47t-37 -44t-37.5 -30t-46 -23.5t-51.5 -6.5q-38 0 -81.5 25t-79.5 49.5t-58 24.5q-45 0 -109 -97z" />
<glyph unicode="&#x16a;" horiz-adv-x="1261" d="M79.5 393q1.5 85 20.5 193l150 848h332l-160 -912q-10 -55 -10 -96t13 -77t48 -54.5t92 -18.5q111 0 162.5 64.5t71.5 181.5l162 912h333l-161 -908q-17 -99 -41 -174.5t-68 -149t-105 -120.5t-153.5 -76t-212.5 -29q-135 0 -229.5 32t-146.5 85t-75.5 133.5t-22 165.5z M526 1567l35 192h533l-35 -192h-533z" />
<glyph unicode="&#x16b;" horiz-adv-x="1101" d="M43 340l129 735h322l-121 -682q-16 -65 -4 -110t61 -45q47 0 104.5 35t102.5 83l127 719h321l-190 -1075h-320l21 117q-184 -140 -328 -140q-140 0 -198 93t-27 270zM393 1257l35 193h533l-35 -193h-533z" />
<glyph unicode="&#x16c;" horiz-adv-x="1261" d="M79.5 393q1.5 85 20.5 193l150 848h332l-160 -912q-10 -55 -10 -96t13 -77t48 -54.5t92 -18.5q111 0 162.5 64.5t71.5 181.5l162 912h333l-161 -908q-17 -99 -41 -174.5t-68 -149t-105 -120.5t-153.5 -76t-212.5 -29q-135 0 -229.5 32t-146.5 85t-75.5 133.5t-22 165.5z M530 1778h189q-6 -38 17 -61t67 -23q59 0 97 23t42 61h188q-22 -124 -109 -193t-226 -69q-146 0 -215 72.5t-50 189.5z" />
<glyph unicode="&#x16d;" horiz-adv-x="1101" d="M43 340l129 735h322l-121 -682q-16 -65 -4 -110t61 -45q47 0 104.5 35t102.5 83l127 719h321l-190 -1075h-320l21 117q-184 -140 -328 -140q-140 0 -198 93t-27 270zM395 1468h189q-6 -38 17 -61t67 -23q59 0 97 23t42 61h188q-22 -124 -109.5 -193t-226.5 -69 q-146 0 -214.5 72.5t-49.5 189.5z" />
<glyph unicode="&#x16e;" horiz-adv-x="1261" d="M79.5 393q1.5 85 20.5 193l150 848h332l-160 -912q-10 -55 -10 -96t13 -77t48 -54.5t92 -18.5q111 0 162.5 64.5t71.5 181.5l162 912h333l-161 -908q-17 -99 -41 -174.5t-68 -149t-105 -120.5t-153.5 -76t-212.5 -29q-135 0 -229.5 32t-146.5 85t-75.5 133.5t-22 165.5z M604 1714q0 92 63.5 156.5t155.5 64.5q91 0 156 -64.5t65 -156.5q0 -91 -65 -155t-156 -64q-92 0 -155.5 64t-63.5 155zM752 1714q0 -30 20.5 -51t50.5 -21q29 0 51.5 21.5t22.5 50.5q0 30 -22 52t-52 22t-50.5 -21.5t-20.5 -52.5z" />
<glyph unicode="&#x16f;" horiz-adv-x="1101" d="M43 340l129 735h322l-121 -682q-16 -65 -4 -110t61 -45q47 0 104.5 35t102.5 83l127 719h321l-190 -1075h-320l21 117q-184 -140 -328 -140q-140 0 -198 93t-27 270zM469 1405q0 92 63.5 156.5t155.5 64.5q91 0 156 -64.5t65 -156.5q0 -91 -65 -155t-156 -64 q-92 0 -155.5 64t-63.5 155zM616 1405q0 -30 21 -51t51 -21q29 0 51.5 21.5t22.5 50.5q0 30 -22 52t-52 22q-31 0 -51.5 -21.5t-20.5 -52.5z" />
<glyph unicode="&#x170;" horiz-adv-x="1261" d="M79.5 393q1.5 85 20.5 193l150 848h332l-160 -912q-10 -55 -10 -96t13 -77t48 -54.5t92 -18.5q111 0 162.5 64.5t71.5 181.5l162 912h333l-161 -908q-17 -99 -41 -174.5t-68 -149t-105 -120.5t-153.5 -76t-212.5 -29q-135 0 -229.5 32t-146.5 85t-75.5 133.5t-22 165.5z M500 1516l186 286h270l-268 -286h-188zM829 1516l187 286h270l-268 -286h-189z" />
<glyph unicode="&#x171;" horiz-adv-x="1101" d="M43 340l129 735h322l-121 -682q-16 -65 -4 -110t61 -45q47 0 104.5 35t102.5 83l127 719h321l-190 -1075h-320l21 117q-184 -140 -328 -140q-140 0 -198 93t-27 270zM362 1206l187 287h270l-268 -287h-189zM692 1206l187 287h270l-268 -287h-189z" />
<glyph unicode="&#x172;" horiz-adv-x="1261" d="M80 397.5q2 83.5 20 188.5l150 848h332l-160 -912q-10 -55 -10 -96t13 -77t48 -54.5t92 -18.5q111 0 162.5 64.5t71.5 181.5l162 912h333l-161 -908q-15 -81 -33.5 -146t-50 -130t-73 -112t-102.5 -84.5t-137 -55.5q-180 -118 -180 -203q0 -13 4 -23t13 -15.5t17 -9 t21 -4.5t20 -1.5t20.5 0t15.5 0.5l-56 -148q-85 0 -123 8q-134 32 -135 156q0 123 160 219q-124 4 -211.5 38t-135 87t-68.5 132.5t-19 163z" />
<glyph unicode="&#x173;" horiz-adv-x="1101" d="M43 340l129 735h322l-121 -682q-16 -65 -4 -110t61 -45q47 0 104.5 35t102.5 83l127 719h321l-190 -1075h-8q-40 -28 -64.5 -47t-55.5 -47t-46.5 -56t-15.5 -55q0 -13 4 -23t12.5 -15.5t16.5 -9t21 -4.5t20 -1.5t20.5 0t15.5 0.5l-55 -148q-85 0 -123 8q-135 30 -135 156 q0 138 200 242h-127l21 117q-184 -140 -328 -140q-140 0 -198 93t-27 270z" />
<glyph unicode="&#x174;" horiz-adv-x="1687" d="M164 1434h366l-12 -875l326 875h262l18 -869l293 869h387l-577 -1434h-316l-26 893l-332 -893h-315zM670 1516l235 286h291l131 -286h-199l-92 143l-139 -143h-227z" />
<glyph unicode="&#x175;" horiz-adv-x="1466" d="M104 1075h334l-6 -643l256 643h240l26 -643l220 643h346l-457 -1075h-293l-37 621l-258 -621h-293zM504 1206l235 287h291l131 -287h-198l-93 144l-139 -144h-227z" />
<glyph unicode="&#x177;" horiz-adv-x="1030" d="M-20 -211q101 41 159.5 74.5t106.5 87.5l-154 1124h332l41 -674l280 674h347l-519 -1075q-39 -79 -61 -120.5t-68.5 -105.5t-94.5 -102t-125.5 -77t-174.5 -62zM285 1206l235 287h291l131 -287h-199l-92 144l-139 -144h-227z" />
<glyph unicode="&#x178;" horiz-adv-x="1161" d="M139 1434h355l118 -541l306 541h385l-568 -861l-98 -573h-334l100 571zM455 1536l45 258h241l-45 -258h-241zM786 1536l45 258h242l-45 -258h-242z" />
<glyph unicode="&#x179;" horiz-adv-x="1112" d="M-53 0l45 264l702 875h-512l51 295h949l-47 -263l-703 -876h559l-51 -295h-993zM516 1516l260 286h359l-342 -286h-277z" />
<glyph unicode="&#x17a;" horiz-adv-x="999" d="M-53 0l41 231l547 568h-431l50 276h864l-41 -231l-547 -568h447l-50 -276h-880zM393 1206l260 287h359l-342 -287h-277z" />
<glyph unicode="&#x17b;" horiz-adv-x="1112" d="M-53 0l45 264l702 875h-512l51 295h949l-47 -263l-703 -876h559l-51 -295h-993zM602 1536l47 262h248l-45 -262h-250z" />
<glyph unicode="&#x17c;" horiz-adv-x="999" d="M-53 0l41 231l547 568h-431l50 276h864l-41 -231l-547 -568h447l-50 -276h-880zM479 1227l47 262h248l-45 -262h-250z" />
<glyph unicode="&#x17d;" horiz-adv-x="1112" d="M-53 0l45 264l702 875h-512l51 295h949l-47 -263l-703 -876h559l-51 -295h-993zM442 1802h201l92 -145l139 145h226l-234 -286h-293z" />
<glyph unicode="&#x17e;" horiz-adv-x="999" d="M-53 0l41 231l547 568h-431l50 276h864l-41 -231l-547 -568h447l-50 -276h-880zM322 1493h200l92 -145l140 145h225l-234 -287h-292z" />
<glyph unicode="&#x17f;" horiz-adv-x="622" d="M-182 -221q40 15 68 27t52.5 26.5t39 25t28 29.5t20.5 32t14.5 41t11.5 48.5t11 61.5l134 759h-115l43 246h117l4 25q33 202 110 297.5t222 95.5q157 0 346 -111l-148 -215q-92 37 -131 37q-61 0 -78 -92l-178 -1016q-14 -81 -21 -118t-22.5 -95t-30 -84t-41 -66 t-59 -60.5t-81 -48.5t-109.5 -48.5t-142 -42.5z" />
<glyph unicode="&#x192;" horiz-adv-x="1062" d="M-129 -418l451 1247h-119l94 246h113l14 37q35 101 68.5 166.5t79 117t105.5 74.5t140 23q52 0 110 -13.5t107 -35.5t79.5 -37.5t53.5 -30.5l-188 -217q-104 45 -145 41q-29 -3 -50.5 -27.5t-40.5 -76.5l-8 -21h236l-94 -246h-230l-452 -1247h-324z" />
<glyph unicode="&#x1fc;" horiz-adv-x="1859" d="M-162 0l1032 1434h1055l-53 -295h-547l-49 -277h444l-51 -289h-444l-51 -278h559l-52 -295h-890l45 262h-400l-178 -262h-420zM631 545h254l88 502zM944 1516l260 286h359l-342 -286h-277z" />
<glyph unicode="&#x1fd;" horiz-adv-x="1634" d="M37 342q0 140 31 274t87.5 242t145 174t193.5 66q46 0 85.5 -11.5t73 -35t55 -43t50.5 -50.5l20 117h295q84 23 164 23q166 0 265.5 -83t99.5 -222q0 -87 -30 -153t-78 -105t-119 -63.5t-142.5 -33t-159.5 -8.5h-82v-22q0 -183 121 -183q38 0 95 19t99.5 38.5t120.5 59.5 l93 -227q-80 -45 -216.5 -91.5t-267.5 -46.5q-72 0 -143 23h-305l20 121q-160 -144 -305 -144q-123 0 -194.5 96.5t-71.5 268.5zM365 395q0 -68 23.5 -108.5t66.5 -40.5q89 0 200 135l17 90q6 125 39 225l2 11q-28 56 -67 88t-81 32q-46 0 -85.5 -43t-63.5 -109 t-37.5 -139.5t-13.5 -140.5zM702 1206l261 287h358l-342 -287h-277zM1014 606h65q105 0 166.5 44.5t61.5 119.5q0 40 -24 65t-66 25q-75 0 -126 -71.5t-77 -182.5z" />
<glyph unicode="&#x1fe;" horiz-adv-x="1347" d="M-10 0l168 203q-80 133 -80 340q0 78 10.5 160.5t35.5 172.5t61.5 172.5t92 157.5t123.5 130t160 87.5t197 32.5q216 0 350 -98l63 76h224l-168 -205q80 -135 80 -334q0 -78 -11 -161.5t-36 -173.5t-61.5 -173t-92 -158.5t-123.5 -131t-160.5 -88t-197.5 -32.5 q-210 0 -349 97l-61 -74h-225zM416 516l483 588q-52 55 -151 55q-71 0 -130.5 -50.5t-95.5 -124t-61 -161.5t-35 -158.5t-10 -119.5v-29zM483 326q55 -52 152 -52q71 0 130.5 50.5t95.5 124.5t61 162t35 158.5t10 119.5v24zM629 1516l260 286h358l-342 -286h-276z" />
<glyph unicode="&#x1ff;" horiz-adv-x="1095" d="M-31 0l135 156q-67 103 -67 260q0 92 17.5 183.5t58.5 182.5t101.5 160.5t154.5 112.5t209 43q165 0 280 -76l47 53h176l-125 -145q76 -110 76 -271q0 -92 -17.5 -183.5t-58.5 -182.5t-101 -160.5t-153.5 -112.5t-207.5 -43q-174 0 -293 80l-49 -57h-183zM356 446 l316 361q-35 35 -97 35q-51 0 -93.5 -40.5t-67.5 -103.5t-39.5 -127.5t-18.5 -124.5zM389 274q35 -41 105 -41q53 0 96 43.5t68 110.5t39 134t16 126zM428 1206l260 287h359l-342 -287h-277z" />
<glyph unicode="&#x218;" horiz-adv-x="1138" d="M-25 188l185 238q95 -64 199 -111t184 -47q65 0 107 33.5t42 91.5q0 30 -13 54t-42.5 46t-56.5 37t-78 40.5t-82 43.5q-134 84 -206.5 179.5t-72.5 228.5q0 88 32 166t92.5 138t154 95t209.5 35q268 0 540 -172l-186 -240q-75 48 -170.5 84.5t-165.5 36.5q-61 0 -103 -31 t-42 -92q0 -28 11 -49.5t38.5 -41.5t52.5 -33.5t76.5 -39t85.5 -44.5q48 -30 85 -57t77 -66.5t66 -80.5t42.5 -96t16.5 -116q0 -88 -33.5 -166.5t-95 -140t-159 -98t-216.5 -36.5q-160 0 -309 61t-265 150zM254 -543l129 168h-96l45 262h223l-41 -290l-215 -218z" />
<glyph unicode="&#x219;" horiz-adv-x="954" d="M-37 137l150 223q76 -48 170.5 -86t158.5 -38q43 0 68 18t25 47q0 16 -7 29.5t-17.5 22.5t-30.5 19.5t-36.5 17t-46 18t-49.5 20.5q-55 24 -96.5 49t-83 63.5t-64 92t-22.5 119.5q0 151 108 248.5t299 97.5q119 0 236 -39t205 -92l-148 -219q-174 94 -280 94 q-42 0 -66 -18t-24 -46q0 -19 7.5 -33.5t28 -26.5t36 -19.5t52 -21.5t56.5 -22q44 -19 77.5 -37t72 -47.5t64 -62t42 -79.5t16.5 -101q0 -153 -111 -252t-307 -99q-247 0 -483 160zM158 -543l129 168h-97l46 262h223l-41 -290l-215 -218z" />
<glyph unicode="&#x21a;" horiz-adv-x="1038" d="M119 1139l51 295h987l-53 -295h-324l-200 -1139h-334l200 1139h-327zM209 -543l129 168h-96l45 262h223l-41 -290l-215 -218z" />
<glyph unicode="&#x21b;" horiz-adv-x="768" d="M29 -543l129 168h-97l45 262h224l-41 -290l-215 -218zM76 829l43 246h119l47 258l329 53l-55 -311h234l-43 -246h-234l-82 -460q-11 -59 2.5 -79t40.5 -20q32 0 127 41l70 -258q-186 -76 -328 -76q-148 0 -205 106.5t-22 311.5l76 434h-119z" />
<glyph unicode="&#x2b0;" horiz-adv-x="735" d="M109 788l157 895h215l-55 -315q111 80 203 80q89 0 126 -57t17 -166l-78 -437h-215l72 400q9 35 3 60.5t-34 25.5t-62.5 -19.5t-60.5 -48.5l-73 -418h-215z" />
<glyph unicode="&#x2b2;" horiz-adv-x="641" d="M121 670q66 25 94 42.5t37.5 36t17.5 62.5l109 623h215l-107 -603q-15 -86 -26 -123t-43.5 -83t-92 -72.5t-161.5 -50.5zM389 1505l31 176h221l-31 -176h-221z" />
<glyph unicode="&#x2b7;" horiz-adv-x="782" d="M82 1434h221l-2 -367l150 367h157l19 -365l125 365h231l-283 -646h-194l-25 353l-151 -353h-195z" />
<glyph unicode="&#x2b8;" horiz-adv-x="714" d="M121 674q44 17 65 26.5t49 26t48 35.5l-99 672h222l24 -385l164 385h231l-321 -646q-23 -46 -37.5 -71t-44 -64.5t-60.5 -63t-81.5 -47.5t-112.5 -38z" />
<glyph unicode="&#x2c6;" horiz-adv-x="522" d="M141 1206l236 287h291l131 -287h-199l-92 144l-139 -144h-228z" />
<glyph unicode="&#x2c7;" horiz-adv-x="524" d="M195 1493h200l92 -145l140 145h225l-234 -287h-292z" />
<glyph unicode="&#x2d8;" horiz-adv-x="495" d="M205 1468h188q-6 -38 17 -61t67 -23q59 0 97 23t42 61h189q-22 -124 -109.5 -193t-226.5 -69q-146 0 -214.5 72.5t-49.5 189.5z" />
<glyph unicode="&#x2d9;" horiz-adv-x="192" d="M182 1227l47 262h248l-45 -262h-250z" />
<glyph unicode="&#x2da;" horiz-adv-x="430" d="M123 1405q0 92 63.5 156.5t155.5 64.5q91 0 156 -64.5t65 -156.5q0 -91 -65 -155t-156 -64q-92 0 -155.5 64t-63.5 155zM270 1405q0 -30 21 -51t51 -21q29 0 51.5 21.5t22.5 50.5q0 30 -22 52t-52 22q-31 0 -51.5 -21.5t-20.5 -52.5z" />
<glyph unicode="&#x2db;" horiz-adv-x="288" d="M-100 -242q0 84 65.5 147.5t179.5 117.5l144 -21q-40 -27 -66 -47t-57.5 -48.5t-47.5 -56.5t-16 -55q0 -13 4 -23t13 -15.5t17 -9t21 -4.5t20 -1.5t20.5 0t15.5 0.5l-55 -148q-85 0 -123 8q-135 30 -135 156z" />
<glyph unicode="&#x2dc;" horiz-adv-x="528" d="M156 1303q25 40 35 55t32 46t37 44t37 30t45.5 23t50.5 6q39 0 83 -24.5t80.5 -49t59.5 -24.5q44 0 107 98l123 -90q-28 -46 -41.5 -66.5t-39.5 -53.5t-46.5 -48t-50 -27t-62.5 -12q-38 0 -81.5 25t-79.5 49.5t-58 24.5q-44 0 -108 -97z" />
<glyph unicode="&#x2dd;" horiz-adv-x="612" d="M147 1206l187 287h270l-268 -287h-189zM477 1206l187 287h270l-268 -287h-189z" />
<glyph unicode="&#x2e3;" horiz-adv-x="724" d="M51 788l266 324l-139 322h223l58 -189l127 189h250l-256 -322l153 -324h-229l-62 193l-127 -193h-264z" />
<glyph unicode="&#x3c0;" horiz-adv-x="1005" d="M55 0l140 793h-134l52 282h942l-49 -282h-136l-139 -793h-270l139 793h-135l-139 -793h-271z" />
<glyph unicode="&#x1e80;" horiz-adv-x="1687" d="M164 1434h366l-12 -875l326 875h262l18 -869l293 869h387l-577 -1434h-316l-26 893l-332 -893h-315zM702 1802h326l162 -286h-246z" />
<glyph unicode="&#x1e81;" horiz-adv-x="1466" d="M104 1075h334l-6 -643l256 643h240l26 -643l220 643h346l-457 -1075h-293l-37 621l-258 -621h-293zM541 1493h325l162 -287h-246z" />
<glyph unicode="&#x1e82;" horiz-adv-x="1687" d="M164 1434h366l-12 -875l326 875h262l18 -869l293 869h387l-577 -1434h-316l-26 893l-332 -893h-315zM791 1516l260 286h358l-342 -286h-276z" />
<glyph unicode="&#x1e83;" horiz-adv-x="1466" d="M104 1075h334l-6 -643l256 643h240l26 -643l220 643h346l-457 -1075h-293l-37 621l-258 -621h-293zM629 1206l260 287h358l-342 -287h-276z" />
<glyph unicode="&#x1e84;" horiz-adv-x="1687" d="M164 1434h366l-12 -875l326 875h262l18 -869l293 869h387l-577 -1434h-316l-26 893l-332 -893h-315zM719 1530l45 258h242l-45 -258h-242zM1051 1530l45 258h241l-45 -258h-241z" />
<glyph unicode="&#x1e85;" horiz-adv-x="1466" d="M104 1075h334l-6 -643l256 643h240l26 -643l220 643h346l-457 -1075h-293l-37 621l-258 -621h-293zM555 1227l45 258h242l-45 -258h-242zM887 1227l45 258h242l-46 -258h-241z" />
<glyph unicode="&#x1e9e;" horiz-adv-x="1456" d="M14 0l158 891q17 100 44 178t72.5 148.5t107.5 116.5t152.5 73t205.5 27h655l-41 -230l-299 -338q147 -48 229 -150.5t82 -248.5q0 -94 -34 -180.5t-98 -156.5t-165.5 -111.5t-226.5 -41.5q-212 0 -407 129l172 240q117 -80 221 -80q83 0 137.5 53t54.5 132 q0 176 -291 176h-90l39 217l262 295h-202q-107 0 -168.5 -70t-91.5 -240l-146 -829h-332z" />
<glyph unicode="&#x1ef2;" horiz-adv-x="1161" d="M139 1434h355l118 -541l306 541h385l-568 -861l-98 -573h-334l100 571zM440 1802h326l162 -286h-246z" />
<glyph unicode="&#x1ef3;" horiz-adv-x="1030" d="M-20 -211q101 41 159.5 74.5t106.5 87.5l-154 1124h332l41 -674l280 674h347l-519 -1075q-39 -79 -61 -120.5t-68.5 -105.5t-94.5 -102t-125.5 -77t-174.5 -62zM322 1493h325l162 -287h-246z" />
<glyph unicode="&#x2000;" horiz-adv-x="967" />
<glyph unicode="&#x2001;" horiz-adv-x="1935" />
<glyph unicode="&#x2002;" horiz-adv-x="967" />
<glyph unicode="&#x2003;" horiz-adv-x="1935" />
<glyph unicode="&#x2004;" horiz-adv-x="645" />
<glyph unicode="&#x2005;" horiz-adv-x="483" />
<glyph unicode="&#x2006;" horiz-adv-x="322" />
<glyph unicode="&#x2007;" horiz-adv-x="322" />
<glyph unicode="&#x2008;" horiz-adv-x="241" />
<glyph unicode="&#x2009;" horiz-adv-x="387" />
<glyph unicode="&#x200a;" horiz-adv-x="107" />
<glyph unicode="&#x2010;" horiz-adv-x="768" d="M70 449l45 268h571l-45 -268h-571z" />
<glyph unicode="&#x2011;" horiz-adv-x="768" d="M70 449l45 268h571l-45 -268h-571z" />
<glyph unicode="&#x2012;" horiz-adv-x="768" d="M70 449l45 268h571l-45 -268h-571z" />
<glyph unicode="&#x2013;" horiz-adv-x="980" d="M68 451l47 264h784l-47 -264h-784z" />
<glyph unicode="&#x2014;" horiz-adv-x="1157" d="M68 451l47 264h962l-45 -264h-964z" />
<glyph unicode="&#x2018;" horiz-adv-x="501" d="M119 764l55 410l309 301l62 -111l-185 -234h140l-64 -366h-317z" />
<glyph unicode="&#x2019;" horiz-adv-x="485" d="M121 831l184 234h-139l63 367h318l-55 -410l-310 -301z" />
<glyph unicode="&#x201a;" horiz-adv-x="518" d="M-55 -233l184 233h-139l63 367h318l-56 -410l-309 -301z" />
<glyph unicode="&#x201c;" horiz-adv-x="929" d="M119 764l55 410l309 301l62 -111l-185 -234h140l-64 -366h-317zM547 764l55 410l309 301l62 -111l-185 -234h140l-64 -366h-317z" />
<glyph unicode="&#x201d;" horiz-adv-x="913" d="M121 831l184 234h-139l63 367h318l-55 -410l-310 -301zM547 831l184 234h-139l63 367h318l-55 -410l-310 -301z" />
<glyph unicode="&#x201e;" horiz-adv-x="944" d="M-55 -233l184 233h-139l63 367h318l-56 -410l-309 -301zM373 -233l184 233h-139l63 367h318l-56 -410l-309 -301z" />
<glyph unicode="&#x2020;" horiz-adv-x="1050" d="M72 748l47 268l352 -31l80 449h237l-79 -449l366 31l-47 -268l-354 30l-211 -1196h-238l211 1196z" />
<glyph unicode="&#x2021;" horiz-adv-x="1093" d="M-2 211l47 270l354 -32l58 329l-365 -30l47 268l355 -31l79 449h238l-80 -449l365 31l-47 -268l-353 30l-59 -329l364 32l-47 -270l-354 31l-115 -660h-239l116 660z" />
<glyph unicode="&#x2022;" horiz-adv-x="917" d="M121 584q0 138 97 234.5t235 96.5q137 0 233 -96.5t96 -234.5q0 -137 -96.5 -233.5t-232.5 -96.5q-138 0 -235 96.5t-97 233.5z" />
<glyph unicode="&#x2026;" horiz-adv-x="1425" d="M-10 0l65 367h318l-66 -367h-317zM446 0l66 367h317l-65 -367h-318zM905 0l66 367h317l-65 -367h-318z" />
<glyph unicode="&#x202f;" horiz-adv-x="387" />
<glyph unicode="&#x2030;" horiz-adv-x="2500" d="M129 991q0 81 23 160.5t66.5 149t118 112.5t167.5 43q65 0 122 -18t102 -54t71 -95t26 -136q0 -64 -13.5 -128t-43 -125t-72 -108t-106 -75.5t-139.5 -28.5q-137 0 -229.5 77.5t-92.5 225.5zM342 0l850 1434h242l-848 -1434h-244zM360 991q0 -114 95 -114q35 0 63.5 31 t44 77t23.5 90t8 78q0 115 -94 115q-35 0 -63.5 -31t-44.5 -77t-24 -90.5t-8 -78.5zM954 281q0 64 13.5 128t44 125t73.5 107.5t106.5 75t139.5 28.5q137 0 228.5 -77t91.5 -226q0 -64 -13.5 -128t-43.5 -125t-72.5 -108t-106 -75.5t-139.5 -28.5q-65 0 -122 18.5 t-102.5 54.5t-71.5 95.5t-26 135.5zM1186 281q0 -57 22.5 -86t73.5 -29q35 0 63.5 31t44 77t23.5 90t8 78q0 57 -22.5 86t-73.5 29q-35 0 -63.5 -31t-44 -77t-23.5 -90t-8 -78zM1706 281q0 64 13.5 128t44 125t73.5 107.5t106.5 75t139.5 28.5q137 0 229 -77t92 -226 q0 -64 -13.5 -128t-43.5 -125t-72.5 -108t-106 -75.5t-138.5 -28.5q-138 0 -231 78t-93 226zM1939 281q0 -115 95 -115q35 0 63.5 31t44 77t23.5 90t8 78q0 115 -94 115q-46 0 -80 -53.5t-47 -114t-13 -108.5z" />
<glyph unicode="&#x2039;" horiz-adv-x="651" d="M23 449l34 200l582 430l-64 -354l-288 -197l223 -192l-55 -316z" />
<glyph unicode="&#x203a;" horiz-adv-x="651" d="M-8 20l63 355l289 196l-223 193l55 315l432 -428l-35 -200z" />
<glyph unicode="&#x2044;" horiz-adv-x="385" d="M-303 0l792 1434h238l-793 -1434h-237z" />
<glyph unicode="&#x205f;" horiz-adv-x="483" />
<glyph unicode="&#x2070;" horiz-adv-x="794" d="M156 1085q0 31 3.5 70.5t14.5 96.5t28.5 111.5t48.5 110t70.5 96.5t98.5 67t129 26q86 0 148 -26.5t94.5 -73t46.5 -98t14 -113.5q0 -31 -3.5 -70.5t-14.5 -96.5t-28.5 -111.5t-48.5 -110t-70.5 -96.5t-98.5 -67t-129 -26q-86 0 -148 26.5t-94.5 73t-46.5 98t-14 113.5z M375 1065q0 -57 16.5 -85t67.5 -28q44 0 80 55t55 131t29 139.5t10 94.5q0 55 -16.5 83t-67.5 28q-44 0 -80 -55.5t-55 -131t-29 -138.5t-10 -93z" />
<glyph unicode="&#x2074;" horiz-adv-x="794" d="M90 938l27 162l411 549h297l-92 -519h109l-33 -192h-109l-26 -150h-221l26 150h-389zM340 1130h172l53 304z" />
<glyph unicode="&#x2075;" horiz-adv-x="720" d="M90 911l125 146q31 -25 49.5 -38.5t56 -28.5t74.5 -15q53 0 89 30.5t36 84.5q0 38 -22.5 61t-65.5 23q-63 0 -133 -46l-115 78l117 443h516l-33 -193h-325l-23 -100q35 6 70 6q118 0 181 -73t63 -181q0 -135 -90.5 -234.5t-247.5 -99.5q-179 0 -322 137z" />
<glyph unicode="&#x2076;" horiz-adv-x="759" d="M147 1102q0 147 66 274.5t191 207t282 79.5q46 0 86 -7.5t57 -14.5l17 -7l-84 -168q-31 7 -72 7q-86 0 -157.5 -44.5t-112.5 -123.5q54 43 137 43q104 0 166.5 -68.5t62.5 -177.5q0 -87 -36.5 -160.5t-111.5 -120.5t-175 -47q-150 0 -233 94t-83 234zM371 1090 q0 -58 23 -91.5t67 -33.5q51 0 76.5 36.5t25.5 88.5q0 38 -21.5 62t-66.5 24q-31 0 -59 -17.5t-45 -40.5v-28z" />
<glyph unicode="&#x2077;" horiz-adv-x="620" d="M133 788q15 87 56.5 185.5t83 170.5t97 150t78 106t46.5 56h-306l33 193h553l-31 -181q-13 -14 -34.5 -40t-79.5 -104.5t-105.5 -155.5t-93.5 -182.5t-63 -197.5h-234z" />
<glyph unicode="&#x2078;" horiz-adv-x="763" d="M119 999q0 167 209 265q-82 73 -82 166q0 102 80.5 167.5t222.5 65.5q130 0 198 -56t68 -145q0 -126 -149 -213q122 -77 122 -205q0 -120 -95.5 -195t-264.5 -75q-151 0 -230 60.5t-79 164.5zM344 1026q0 -37 25 -56.5t71 -19.5q55 0 90 28t35 75q0 63 -82 116 q-66 -29 -102.5 -62t-36.5 -81zM453 1413q0 -47 53 -80q46 21 72 44.5t26 58.5q0 26 -17.5 42.5t-47.5 16.5q-38 0 -62 -25t-24 -57z" />
<glyph unicode="&#x2079;" horiz-adv-x="759" d="M125 803l84 168q31 -6 72 -6q86 0 157.5 44t114.5 124q-58 -43 -139 -43q-103 0 -165.5 68.5t-62.5 176.5q0 135 87.5 231.5t234.5 96.5q150 0 232.5 -94t82.5 -234q0 -148 -65.5 -275t-190 -206.5t-282.5 -79.5q-46 0 -86 7t-57 15zM408 1348q0 -38 21.5 -62t66.5 -24 q33 0 62 17.5t44 41.5v27q0 57 -23.5 91t-68.5 34q-51 0 -76.5 -36.5t-25.5 -88.5z" />
<glyph unicode="&#x207a;" horiz-adv-x="636" d="M129 1118l29 160h196l37 205h162l-37 -205h199l-29 -160h-199l-34 -203h-160l35 203h-199z" />
<glyph unicode="&#x207d;" horiz-adv-x="438" d="M120.5 792.5q-1.5 62.5 16.5 153.5l96 551q7 35 11 54t11 46.5t13.5 42t17 35.5t23 32.5t30 27t38.5 25t49 21t61.5 20.5t75.5 18l31 -127q-73 -29 -95.5 -56t-33.5 -88l-119 -671q-13 -59 -1.5 -90.5t65.5 -59.5l-60 -115q-122 31 -175 74.5t-54.5 106z" />
<glyph unicode="&#x207e;" horiz-adv-x="436" d="M53 739q73 29 95.5 56t33.5 88l119 671q14 58 2.5 90t-65.5 60l59 115q122 -31 175 -74.5t54.5 -106t-16.5 -153.5l-96 -551q-7 -35 -11 -54t-11 -46.5t-13.5 -42t-17 -35.5t-23 -32.5t-30 -27t-38.5 -25t-49 -21t-61.5 -20.5t-75.5 -18z" />
<glyph unicode="&#x207f;" horiz-adv-x="735" d="M109 788l114 646h215l-12 -66q110 80 203 80q89 0 126 -57t17 -166l-78 -437h-213l72 402q8 34 1 59t-36 25q-55 0 -121 -66l-73 -420h-215z" />
<glyph unicode="&#x2080;" horiz-adv-x="794" d="M-37 -10q0 31 3.5 70.5t14.5 96.5t28.5 111t48.5 109.5t70.5 96.5t98.5 67t129 26q86 0 148 -26.5t94.5 -73t46.5 -98t14 -113.5q0 -31 -3.5 -70.5t-14.5 -96.5t-28.5 -111.5t-48.5 -110t-70.5 -96.5t-98.5 -67t-129 -26t-123.5 18t-87 47.5t-55 71t-29.5 84t-8 91.5z M182 -31q0 -57 16.5 -84.5t67.5 -27.5q44 0 80 55t55 131t29 139t10 94q0 55 -16.5 83t-67.5 28q-44 0 -80 -55.5t-55 -131t-29 -138.5t-10 -93z" />
<glyph unicode="&#x2081;" horiz-adv-x="595" d="M-33 412l246 141h211l-152 -860h-221l113 633l-121 -66z" />
<glyph unicode="&#x2082;" horiz-adv-x="720" d="M-117 -307l17 96q11 64 39.5 119t73.5 100t81.5 73.5t91.5 65.5q39 25 55.5 36t46 31t41.5 31t28 26.5t22 28t6 24.5q0 49 -68 49q-70 0 -202 -76l-82 158q160 112 323 112q125 0 189.5 -63t64.5 -158q0 -49 -20 -96t-46.5 -80t-69 -67.5t-72 -53.5t-70.5 -43 q-70 -41 -101.5 -68.5t-37.5 -52.5h335l-32 -192h-613z" />
<glyph unicode="&#x2083;" horiz-adv-x="716" d="M-119 -184l117 141q128 -82 211 -82q52 0 82.5 23.5t30.5 62.5q0 86 -172 86h-29l33 193h34q28 0 56.5 4.5t54.5 13.5t42.5 26.5t16.5 39.5t-15.5 35.5t-45.5 13.5q-82 0 -199 -70l-71 156q160 108 323 108q116 0 176 -54.5t60 -137.5q0 -137 -156 -213 q54 -28 84.5 -78.5t30.5 -116.5q0 -50 -17.5 -98.5t-53.5 -92.5t-100 -71t-147 -27q-187 0 -346 138z" />
<glyph unicode="&#x2084;" horiz-adv-x="794" d="M-102 -158l26 162l412 549h297l-92 -518h108l-33 -193h-108l-27 -149h-221l27 149h-389zM147 35h172l54 303z" />
<glyph unicode="&#x2085;" horiz-adv-x="720" d="M-102 -184l125 145q31 -25 49.5 -38.5t56 -28.5t74.5 -15q53 0 89 30.5t36 84.5q0 38 -22.5 61t-65.5 23q-66 0 -134 -45l-114 78l117 442h516l-33 -193h-326l-22 -100q35 6 69 6q118 0 181 -73t63 -181q0 -135 -90.5 -234.5t-247.5 -99.5q-177 0 -321 138z" />
<glyph unicode="&#x2086;" horiz-adv-x="759" d="M-47 6q0 147 66 274.5t191 207t282 79.5q46 0 86 -7t56 -14l17 -7l-84 -168q-30 6 -71 6q-86 0 -158 -44.5t-113 -123.5q54 43 137 43q104 0 167 -68.5t63 -177.5q0 -87 -37 -160.5t-112 -120.5t-175 -47q-150 0 -232.5 94t-82.5 234zM176 -6q0 -58 23 -91.5t67 -33.5 q51 0 77 36.5t26 88.5q0 38 -21.5 62t-66.5 24q-31 0 -59.5 -17t-45.5 -40v-29z" />
<glyph unicode="&#x2087;" horiz-adv-x="618" d="M-61 -307q15 87 56.5 185.5t83 170.5t97 150t77.5 105.5t46 55.5h-305l33 193h553l-31 -180q-13 -14 -35 -40t-80 -104.5t-105 -155.5t-93.5 -182.5t-63.5 -197.5h-233z" />
<glyph unicode="&#x2088;" horiz-adv-x="763" d="M-74 -96q0 166 209 264q-82 73 -82 166q0 102 80.5 167.5t222.5 65.5q130 0 198.5 -55.5t68.5 -144.5q0 -125 -150 -213q123 -78 123 -205q0 -120 -95.5 -195.5t-264.5 -75.5q-151 0 -230.5 61t-79.5 165zM152 -70q0 -75 96 -75q55 0 90 27.5t35 74.5q0 64 -82 117 q-66 -29 -102.5 -62.5t-36.5 -81.5zM260 317q0 -46 53 -79q47 21 73 44t26 58q0 25 -18 42t-48 17q-38 0 -62 -25t-24 -57z" />
<glyph unicode="&#x2089;" horiz-adv-x="759" d="M-68 -293l84 168q31 -6 72 -6q86 0 157.5 44t114.5 124q-58 -43 -139 -43q-103 0 -165 68.5t-62 177.5q0 135 87 231t234 96q150 0 233 -93.5t83 -233.5q0 -110 -39 -211.5t-107.5 -179.5t-171 -124.5t-221.5 -46.5q-46 0 -86 7t-57 15zM215 252q0 -38 21.5 -62t66.5 -24 q33 0 62.5 17.5t44.5 41.5v27q0 57 -24 91t-69 34q-51 0 -76.5 -36.5t-25.5 -88.5z" />
<glyph unicode="&#x208a;" horiz-adv-x="636" d="M-66 23l29 159h197l37 205h161l-36 -205h198l-28 -159h-199l-35 -203h-160l35 203h-199z" />
<glyph unicode="&#x208d;" horiz-adv-x="438" d="M-71.5 -303.5q-1.5 62.5 16.5 153.5l96 551q7 35 11 54t11 46.5t13.5 42t17 35.5t23 32.5t30 27t38.5 25t49 21t61.5 20.5t75.5 18l30 -127q-73 -29 -95.5 -56t-33.5 -87l-118 -672q-14 -58 -2.5 -90t65.5 -60l-59 -114q-122 31 -175 74t-54.5 105.5z" />
<glyph unicode="&#x208e;" horiz-adv-x="436" d="M-139 -356q73 29 95.5 56t33.5 87l119 672q13 59 1.5 90t-65.5 59l59 115q122 -31 175 -74.5t54.5 -106t-16.5 -153.5l-96 -551q-8 -39 -12.5 -59.5t-12.5 -50.5t-16 -45t-21 -37t-29 -34t-38.5 -27.5t-51.5 -25.5t-66 -21t-83 -21z" />
<glyph unicode="&#x20a1;" horiz-adv-x="997" d="M88 578q0 171 41.5 308t110 220.5t152 127.5t173.5 44q22 0 68 -4l59 160h127l-69 -189q30 -9 41 -14l73 203h127l-92 -254l109 -64l-150 -227q-7 4 -39.5 24t-49 29t-44.5 23t-51 20t-43 6q-64 0 -114 -57.5t-75.5 -143t-25.5 -178.5q0 -168 116 -168q29 0 81 18.5 t79.5 31.5t89.5 43l95 -254q-221 -100 -347 -119l-59 -164h-127l57 160q-1 0 -43 6l-61 -166h-127l78 211q-160 103 -160 367z" />
<glyph unicode="&#x20a4;" horiz-adv-x="1040" d="M-12 0l41 233q6 2 16 7t38.5 23t54 39t56 56t50.5 74h-162l29 162h174v6q0 19 -9 80h-151l29 164h82q-27 110 -27 194q0 193 104.5 305.5t292.5 112.5q244 0 484 -205l-170 -202q-148 118 -250 118q-64 0 -98.5 -43t-34.5 -110q0 -59 34 -170h318l-29 -164h-258 q2 -10 2 -31q0 -19 -4 -55h246l-29 -162h-262q-43 -97 -104 -143h448l-49 -289h-862z" />
<glyph unicode="&#x20a7;" horiz-adv-x="1263" d="M41 0l158 895h-47l22 131h47l72 408h448q500 0 500 -400v-8h41l-22 -131h-35q-41 -180 -186.5 -291.5t-389.5 -111.5h-190l-86 -492h-332zM510 778h131q84 0 143.5 31t87.5 86h-342zM553 1026h344q-6 64 -51.5 91.5t-126.5 27.5h-144z" />
<glyph unicode="&#x20a9;" horiz-adv-x="1812" d="M53 508l33 194h176l-8 154h-139l35 195h94l-19 383h367l-6 -383h176l143 383h262l9 -383h174l129 383h387l-156 -383h102l-34 -195h-146l-61 -154h178l-33 -194h-223l-205 -508h-315l-27 893l-332 -893h-315l-27 508h-219zM580 559l110 297h-106zM1180 856l6 -289l98 289 h-104z" />
<glyph unicode="&#x20ac;" horiz-adv-x="1269" d="M47 479l31 174h92q2 36 14 115h-86l31 174h96q72 232 215 373t344 141q74 0 145.5 -17t142.5 -53t116 -63t117 -76l-179 -246q-105 70 -177 105t-136 35q-72 0 -129 -53.5t-98 -145.5h325l-32 -174h-351q-12 -57 -18 -115h350l-33 -174h-321q15 -188 149 -188 q102 0 342 133l129 -272q-163 -84 -294.5 -129.5t-258.5 -45.5q-191 0 -295.5 131.5t-113.5 370.5h-117z" />
<glyph unicode="&#x2116;" horiz-adv-x="2127" d="M29 0l252 1434h333l246 -871l152 871h331l-251 -1434h-334l-246 870l-152 -870h-331zM1300 283l35 192h621l-33 -192h-623zM1339 899q0 67 15 136t48.5 137.5t81.5 122t121.5 87t161.5 33.5q73 0 137 -20t116.5 -59.5t83 -106.5t30.5 -154q0 -67 -15 -136.5t-48.5 -138.5 t-81.5 -122.5t-121.5 -87t-161.5 -33.5q-74 0 -138 20t-116.5 60t-82.5 107t-30 155zM1616 895q0 -111 96 -111q37 0 67 34t46 83.5t24.5 95.5t8.5 80q0 111 -97 111q-38 0 -68 -34t-45.5 -83.5t-23.5 -95.5t-8 -80z" />
<glyph unicode="&#x2117;" horiz-adv-x="1603" d="M90 641q0 131 32.5 251.5t98 223t158 178.5t219 119t274.5 43q206 0 360.5 -84.5t235 -234.5t80.5 -344q0 -131 -32.5 -251.5t-98.5 -223.5t-158 -179t-219.5 -119t-275.5 -43q-309 0 -491.5 184t-182.5 480zM168 643q0 -171 70.5 -303t209 -208.5t324.5 -76.5 q160 0 293 58.5t220 159t135 234t48 284.5q0 127 -41 235t-117 186t-190 122t-254 44q-160 0 -293 -58.5t-221 -159t-136 -233.5t-48 -284zM518 285l152 862h284q117 0 185.5 -56.5t68.5 -168.5q0 -148 -95 -224.5t-253 -76.5h-186l-58 -336h-98zM688 707h191q98 0 164.5 58 t66.5 157q0 74 -46 107.5t-124 33.5h-188z" />
<glyph unicode="&#x2120;" horiz-adv-x="1132" d="M152 1032l69 90q79 -49 152 -49q57 0 57 31q0 11 -12.5 18t-46 18t-56.5 21q-108 47 -108 135q0 62 49.5 104t134.5 42q105 0 209 -58l-68 -86q-80 39 -131 39t-51 -32q0 -12 11.5 -19t44 -17.5t53.5 -19.5q112 -46 112 -137q0 -62 -51 -103.5t-141 -41.5 q-63 0 -125.5 19.5t-101.5 45.5zM592 975l80 459h129l65 -244l160 244h127l-82 -459h-123l43 250l-110 -174h-72l-49 170l-43 -246h-125z" />
<glyph unicode="&#x2122;" horiz-adv-x="1114" d="M225 1323l19 111h374l-20 -111h-125l-61 -348h-123l61 348h-125zM582 975l82 459h127l65 -244l158 244h129l-82 -459h-123l43 248l-111 -172h-69l-49 180l-45 -256h-125z" />
<glyph unicode="&#x2126;" horiz-adv-x="1361" d="M12 0l51 289h177q-62 47 -102 139.5t-40 208.5q0 102 23 210t76 218t130 196t195 140.5t260 54.5q261 0 400 -141t139 -402q0 -227 -89 -402t-204 -222h158l-51 -289h-517l56 299q72 14 132 79t96.5 155.5t56.5 188.5t20 187q0 248 -203 248q-60 0 -111 -27.5t-86 -71 t-62.5 -102t-44 -117.5t-27 -120t-14 -106.5t-3.5 -80.5q0 -95 35.5 -151t118.5 -82l-54 -299h-516z" />
<glyph unicode="&#x2153;" horiz-adv-x="1609" d="M158 1292l245 142h211l-151 -861h-221l112 633l-121 -65zM236 0l792 1434h238l-793 -1434h-237zM817 123l117 141q128 -82 211 -82q52 0 82 23.5t30 62.5q0 86 -172 86h-28l33 193h34q28 0 56.5 4.5t54.5 13.5t42.5 26.5t16.5 39.5t-15.5 35.5t-45.5 13.5q-82 0 -199 -70 l-71 156q160 108 323 108q116 0 176 -54.5t60 -137.5q0 -137 -156 -213q54 -28 84.5 -78.5t30.5 -116.5q0 -50 -17.5 -98.5t-53.5 -92t-100 -70.5t-147 -27q-188 0 -346 137z" />
<glyph unicode="&#x2154;" horiz-adv-x="1798" d="M61 573l17 97q9 52 31.5 99.5t48.5 81.5t65.5 69.5t68.5 57t73 50.5q58 37 81.5 53t57 42t46 44.5t13.5 36.5q0 49 -67 49q-72 0 -203 -75l-82 157q162 113 324 113q125 0 189 -63t64 -158q0 -49 -20 -96t-46.5 -80t-69 -67.5t-72 -53.5t-70.5 -43q-70 -41 -101.5 -68.5 t-37.5 -52.5h336l-33 -193h-613zM436 0l793 1434h237l-792 -1434h-238zM1016 123l117 141q70 -45 117.5 -63.5t92.5 -18.5q52 0 82.5 23.5t30.5 62.5q0 86 -172 86h-29l33 193h35q28 0 56.5 4.5t54.5 13.5t42.5 26.5t16.5 39.5t-15.5 35.5t-45.5 13.5q-82 0 -199 -70 l-72 156q160 108 324 108q116 0 175.5 -54.5t59.5 -137.5q0 -137 -155 -213q54 -28 84 -78.5t30 -116.5q0 -50 -17.5 -98.5t-53 -92t-99.5 -70.5t-147 -27q-188 0 -346 137z" />
<glyph unicode="&#x2155;" horiz-adv-x="1630" d="M158 1292l245 142h211l-151 -861h-221l112 633l-121 -65zM236 0l792 1434h238l-793 -1434h-237zM838 123l125 145q31 -25 49.5 -38.5t56 -28.5t74.5 -15q53 0 89 30.5t36 84.5q0 38 -22.5 61t-65.5 23q-65 0 -133 -45l-115 78l117 442h516l-33 -192h-326l-22 -101 q34 6 69 6q118 0 181 -73t63 -181q0 -135 -90.5 -234t-247.5 -99q-178 0 -321 137z" />
<glyph unicode="&#x2156;" horiz-adv-x="1812" d="M59 573l17 97q11 64 39.5 119t73.5 100t81.5 73.5t91.5 65.5q132 85 164 116q34 33 35 60q0 49 -67 49q-72 0 -203 -75l-82 157q162 113 323 113q125 0 189.5 -63t64.5 -158q0 -49 -20 -96t-46.5 -80t-69 -67.5t-72 -53.5t-70.5 -43q-70 -41 -101.5 -68.5t-37.5 -52.5 h336l-33 -193h-613zM432 0l793 1434h237l-792 -1434h-238zM1030 123l125 145q31 -25 49.5 -38.5t56 -28.5t74.5 -15q53 0 89 30.5t36 84.5q0 38 -22.5 61t-65.5 23q-65 0 -133 -45l-115 78l117 442h516l-33 -192h-325l-23 -101q34 6 70 6q118 0 181 -73t63 -181 q0 -135 -90.5 -234t-247.5 -99q-179 0 -322 137z" />
<glyph unicode="&#x2157;" horiz-adv-x="1781" d="M68 696l116 142q128 -82 211 -82q52 0 82.5 23.5t30.5 62.5q0 86 -172 86h-29l33 192h35q28 0 56.5 4.5t54.5 13.5t42.5 26.5t16.5 39.5t-16 35.5t-46 13.5q-83 0 -198 -69l-72 155q162 109 324 109q115 0 175 -54.5t60 -138.5q0 -137 -156 -213q115 -61 115 -194 q0 -50 -17.5 -98.5t-53 -92.5t-99.5 -71t-147 -27q-188 0 -346 137zM389 0l793 1434h237l-792 -1434h-238zM991 123l125 145q31 -25 49.5 -38.5t56 -28.5t74.5 -15q53 0 89 30.5t36 84.5q0 38 -22.5 61t-65.5 23q-65 0 -133 -45l-115 78l117 442h516l-32 -192h-326l-23 -101 q34 6 70 6q118 0 181 -73t63 -181q0 -135 -90.5 -234t-247.5 -99q-179 0 -322 137z" />
<glyph unicode="&#x2158;" horiz-adv-x="1855" d="M72 723l26 162l412 549h297l-92 -519h108l-32 -192h-109l-27 -150h-221l27 150h-389zM322 915h172l53 304zM467 0l793 1434h237l-792 -1434h-238zM1067 123l125 145q31 -25 49.5 -38.5t56 -28.5t74.5 -15q53 0 89 30.5t36 84.5q0 38 -22.5 61t-65.5 23q-65 0 -133 -45 l-115 78l117 442h516l-33 -192h-325l-23 -101q35 6 70 6q118 0 180.5 -72.5t62.5 -181.5q0 -135 -90 -234t-247 -99q-179 0 -322 137z" />
<glyph unicode="&#x2159;" horiz-adv-x="1603" d="M158 1292l245 142h211l-151 -861h-221l112 633l-121 -65zM236 0l792 1434h238l-793 -1434h-237zM838 313q0 110 39 211.5t108 179t171 124t220 46.5q46 0 86 -7t57 -14l17 -7l-84 -168q-31 6 -72 6q-86 0 -157.5 -44.5t-112.5 -123.5q54 43 137 43q104 0 167 -68.5 t63 -177.5q0 -87 -37 -160t-112 -120t-175 -47q-150 0 -232.5 93.5t-82.5 233.5zM1061 301q0 -58 23 -91.5t67 -33.5q51 0 76.5 36.5t25.5 88.5q0 38 -21.5 62t-66.5 24q-31 0 -59 -17t-45 -40v-29z" />
<glyph unicode="&#x215a;" horiz-adv-x="1726" d="M70 696l125 146q31 -25 49.5 -38.5t56 -28.5t74.5 -15q53 0 89 30t36 84q0 38 -22.5 61t-65.5 23q-65 0 -133 -45l-115 78l117 443h516l-33 -193h-326l-22 -100q34 6 69 6q118 0 181 -73t63 -181q0 -135 -90.5 -234.5t-247.5 -99.5q-178 0 -321 137zM367 0l792 1434h238 l-793 -1434h-237zM965 313q0 110 39 211.5t108 179t171 124t220 46.5q46 0 86 -7t57 -14l17 -7l-84 -168q-31 6 -72 6q-86 0 -157.5 -44.5t-112.5 -123.5q54 43 137 43q104 0 167 -68.5t63 -177.5q0 -87 -37 -160t-112 -120t-175 -47q-150 0 -232.5 93.5t-82.5 233.5z M1188 301q0 -58 23 -91.5t67 -33.5q51 0 76.5 36.5t25.5 88.5q0 38 -21.5 62t-66.5 24q-31 0 -59 -17t-45 -40v-29z" />
<glyph unicode="&#x215b;" horiz-adv-x="1624" d="M158 1292l245 142h211l-151 -861h-221l112 633l-121 -65zM236 0l792 1434h238l-793 -1434h-237zM825 211q0 166 209 264q-82 73 -82 166q0 102 80.5 167.5t222.5 65.5q130 0 198.5 -55.5t68.5 -144.5q0 -126 -150 -213q123 -78 123 -205q0 -120 -95.5 -195t-264.5 -75 q-151 0 -230.5 60.5t-79.5 164.5zM1051 238q0 -37 25 -56.5t71 -19.5q55 0 90 27.5t35 74.5q0 64 -82 117q-66 -29 -102.5 -62t-36.5 -81zM1159 625q0 -47 53 -80q47 21 73 44t26 58q0 26 -18 43t-48 17q-38 0 -62 -25t-24 -57z" />
<glyph unicode="&#x215c;" horiz-adv-x="1763" d="M68 696l116 142q128 -82 211 -82q52 0 82.5 23.5t30.5 62.5q0 86 -172 86h-29l33 192h35q28 0 56.5 4.5t54.5 13.5t42.5 26.5t16.5 39.5t-16 35.5t-46 13.5q-83 0 -198 -69l-72 155q162 109 324 109q115 0 175 -54.5t60 -138.5q0 -137 -156 -213q115 -61 115 -194 q0 -50 -17.5 -98.5t-53 -92.5t-99.5 -71t-147 -27q-188 0 -346 137zM389 0l793 1434h237l-792 -1434h-238zM973 211q0 166 209 264q-82 73 -82 166q0 102 80.5 167.5t222.5 65.5q130 0 198 -55.5t68 -144.5q0 -126 -149 -213q122 -77 122 -205q0 -120 -95.5 -195t-264.5 -75 q-151 0 -230 60.5t-79 164.5zM1198 238q0 -37 25 -56.5t71 -19.5q55 0 90 27.5t35 74.5q0 64 -82 117q-66 -29 -102.5 -62t-36.5 -81zM1307 625q0 -47 53 -80q46 21 72 44t26 58q0 26 -17.5 43t-47.5 17q-38 0 -62 -25t-24 -57z" />
<glyph unicode="&#x215d;" horiz-adv-x="1755" d="M70 696l125 146q31 -25 49.5 -38.5t56 -28.5t74.5 -15q53 0 89 30t36 84q0 38 -22.5 61t-65.5 23q-65 0 -133 -45l-115 78l117 443h516l-33 -193h-326l-22 -100q34 6 69 6q118 0 181 -73t63 -181q0 -135 -90.5 -234.5t-247.5 -99.5q-178 0 -321 137zM367 0l792 1434h238 l-793 -1434h-237zM963 211q0 166 208 264q-81 72 -81 166q0 102 80.5 167.5t222.5 65.5q130 0 198 -55.5t68 -144.5q0 -126 -150 -213q123 -78 123 -205q0 -120 -95.5 -195t-264.5 -75q-151 0 -230 60.5t-79 164.5zM1188 238q0 -37 25 -56.5t71 -19.5q55 0 90 27.5t35 74.5 q0 64 -82 117q-66 -29 -102.5 -62t-36.5 -81zM1296 625q0 -46 54 -80q46 21 72 44t26 58q0 26 -18 43t-48 17q-38 0 -62 -25t-24 -57z" />
<glyph unicode="&#x215e;" horiz-adv-x="1585" d="M113 573q15 87 56.5 185.5t83 170.5t96.5 150t78 106l46 56h-305l33 193h553l-31 -181q-13 -14 -35 -40t-80 -104.5t-105 -155.5t-93.5 -182.5t-63.5 -197.5h-233zM201 0l792 1434h238l-793 -1434h-237zM795 211q0 166 209 264q-82 73 -82 166q0 102 80.5 167.5 t222.5 65.5q130 0 198 -55.5t68 -144.5q0 -126 -150 -213q123 -78 123 -205q0 -120 -95.5 -195t-264.5 -75q-151 0 -230 60.5t-79 164.5zM1020 238q0 -37 25 -56.5t71 -19.5q55 0 90 27.5t35 74.5q0 64 -82 117q-66 -29 -102.5 -62t-36.5 -81zM1128 625q0 -46 54 -80 q46 21 72 44t26 58q0 26 -18 43t-48 17q-38 0 -62 -25t-24 -57z" />
<glyph unicode="&#x2202;" horiz-adv-x="1161" d="M41 410q0 152 63.5 282t174 206.5t241.5 76.5q55 0 102 -15t75 -34.5t50 -44.5t29.5 -38t11.5 -22q-5 75 -27 136.5t-61.5 109.5t-102.5 75t-146 27q-36 0 -76.5 -4t-62.5 -8l-23 -4l14 258q69 23 180 23q125 0 226.5 -38.5t170.5 -104.5t116 -156t68 -190.5t21 -211.5 q0 -156 -39 -292.5t-112.5 -240t-187 -163.5t-254.5 -60q-219 0 -335 119t-116 314zM375 403q0 -167 143 -167q47 0 85 20.5t62.5 53.5t41 75t23.5 83t7 81q0 76 -34 122t-111 46q-55 0 -98.5 -31.5t-68 -80.5t-37.5 -101.5t-13 -100.5z" />
<glyph unicode="&#x2206;" horiz-adv-x="1302" d="M-63 0l692 1434h346l186 -1434h-1224zM385 289h457l-88 796z" />
<glyph unicode="&#x220f;" horiz-adv-x="1273" d="M90 0l203 1149h-143l49 285h1159l-51 -285h-144l-202 -1149h-332l202 1149h-206l-201 -1149h-334z" />
<glyph unicode="&#x2211;" horiz-adv-x="1077" d="M-39 0l27 152l534 567l-336 563l27 152h922l-52 -289h-471l256 -428l-370 -428h434l-49 -289h-922z" />
<glyph unicode="&#x2212;" horiz-adv-x="1142" d="M123 557l45 252h872l-45 -252h-872z" />
<glyph unicode="&#x221a;" horiz-adv-x="1157" d="M18 696h332l68 -385l549 1123h340l-734 -1434h-387z" />
<glyph unicode="&#x221e;" horiz-adv-x="1570" d="M68 477q0 110 43 205t127 155t192 60q57 0 105 -15.5t91.5 -50.5t77 -71.5t80.5 -97.5q73 67 111.5 100.5t92 70t100.5 50.5t102 14q138 0 210.5 -91.5t72.5 -227.5q0 -110 -43.5 -204.5t-128 -154t-193.5 -59.5q-106 0 -182.5 56.5t-167.5 176.5q-74 -67 -112 -99.5 t-91.5 -69t-101.5 -50.5t-103 -14q-138 0 -210 91t-72 226zM299 500q0 -57 31 -89t76 -32q43 0 93.5 33.5t147.5 122.5q-67 81 -109.5 112t-80.5 31q-66 0 -112 -52t-46 -126zM893 520q65 -79 107.5 -110t84.5 -31q66 0 111 53t45 125q0 57 -30.5 89t-75.5 32 q-44 0 -96 -34.5t-146 -123.5z" />
<glyph unicode="&#x222b;" horiz-adv-x="712" d="M-131 -293l33 187h32q37 0 65 16t44.5 37.5t30 60t19 65t13.5 72.5l201 1149q42 241 150.5 332.5t343.5 91.5h76l-33 -186h-33q-26 0 -48 -8.5t-37 -20t-28.5 -34.5t-21.5 -40t-16.5 -48.5t-12 -49t-10.5 -51.5l-201 -1149q-44 -242 -150.5 -333t-340.5 -91h-76z" />
<glyph unicode="&#x2248;" horiz-adv-x="1142" d="M98 412q68 138 138.5 208t162.5 70q48 0 96.5 -20.5t82 -45t73.5 -45t74 -20.5q32 0 61.5 24t73.5 97l146 -70q-66 -134 -137.5 -206t-163.5 -72q-49 0 -98 21t-81.5 45.5t-73.5 45.5t-75 21q-31 0 -60 -24.5t-73 -98.5zM168 803q66 137 137 207.5t164 70.5 q48 0 96.5 -20.5t81.5 -45t73.5 -45t74.5 -20.5q31 0 60 24t73 97l145 -70q-66 -137 -137 -207.5t-164 -70.5q-48 0 -96.5 20.5t-81.5 45t-73.5 45t-74.5 20.5q-31 0 -60 -24t-73 -97z" />
<glyph unicode="&#x2260;" horiz-adv-x="1142" d="M90 362l45 252h291l74 144h-340l45 252h422l143 282l195 -84l-101 -198h211l-45 -252h-293l-73 -144h342l-45 -252h-424l-144 -284l-194 84l100 200h-209z" />
<glyph unicode="&#x2264;" horiz-adv-x="1142" d="M14 0l37 215h871l-37 -215h-871zM127 631l35 196l934 371l-52 -293l-542 -186l477 -189l-47 -268z" />
<glyph unicode="&#x2265;" horiz-adv-x="1142" d="M43 0l37 215h870l-37 -215h-870zM88 262l51 293l539 184l-473 189l49 270l805 -371l-33 -196z" />
<glyph unicode="&#x2318;" horiz-adv-x="1443" d="M45 369q0 127 89.5 208.5t219.5 81.5h138l22 115h-53q-120 0 -205.5 85.5t-85.5 205.5t85.5 205.5t205.5 85.5q116 0 202.5 -84t79.5 -217q-1 -17 -5 -49.5t-5 -47.5h101l22 132q19 105 89 181t181 83q32 3 70 -4q101 -19 168.5 -99.5t67.5 -185.5q0 -127 -89 -209 t-219 -82h-137l-20 -115h53q120 0 204.5 -85t84.5 -205t-84.5 -204.5t-204.5 -84.5t-205.5 85.5t-79.5 215.5q1 15 6.5 47t6.5 47h-101l-22 -131q-22 -119 -99.5 -191.5t-189.5 -72.5q-121 0 -206 84t-85 205zM229 369q0 -43 32 -74t75 -31t69.5 27.5t34.5 66.5l21 117h-125 q-43 0 -75 -31t-32 -75zM354 1065q0 -43 31.5 -75t75.5 -32h84q3 12 7 36t7 36q7 55 -16.5 98t-81.5 43q-44 0 -75.5 -31t-31.5 -75zM680 659h100l21 115h-101zM922 403q-10 -51 14.5 -95t83.5 -44q43 0 73.5 31t30.5 74q0 44 -30.5 75t-73.5 31h-86zM1020 958h123 q42 0 73 32t31 75q0 44 -30.5 75t-73.5 31q-44 0 -70.5 -31.5t-32.5 -66.5z" />
<glyph unicode="&#x25ca;" horiz-adv-x="1050" d="M76 717l434 717h319l183 -717l-434 -717h-320zM369 668l84 -349l268 447l-88 346z" />
<glyph unicode="&#xe000;" horiz-adv-x="1075" d="M0 0v1075h1075v-1075h-1075z" />
<glyph unicode="&#xf6c3;" horiz-adv-x="264" d="M-88 -543l129 168h-96l45 262h223l-41 -290l-215 -218z" />
<glyph unicode="&#xf6df;" horiz-adv-x="641" d="M-37 49q0 190 87.5 300t213.5 110h8l17 94h151l-22 -125q22 -9 127 -63l-96 -154q-102 57 -144 57q-56 0 -91.5 -58t-35.5 -136q0 -94 72 -94q49 0 153 49l64 -168q-125 -49 -160 -58l-20 -110h-150l17 96q-87 11 -139 75.5t-52 184.5z" />
<glyph unicode="&#xf6e0;" horiz-adv-x="638" d="M156 1145q0 190 87.5 299.5t213.5 109.5h8l16 95h152l-23 -125q22 -9 44 -20t48 -25t35 -19l-96 -153q-88 49 -125 55q-10 2 -18 2q-56 0 -91.5 -58t-35.5 -137q0 -94 71 -94q50 0 154 49l63 -168q-120 -47 -159 -57l-21 -111h-149l16 97q-87 11 -138.5 75.5t-51.5 184.5 z" />
<glyph unicode="&#xf6e1;" horiz-adv-x="362" d="M-113 -451l119 144h-94l41 237h211l-33 -268l-203 -184z" />
<glyph unicode="&#xf6e2;" horiz-adv-x="364" d="M82 645l119 143h-95l41 238h211l-32 -268l-203 -185z" />
<glyph unicode="&#xf6e3;" horiz-adv-x="739" d="M-106 -188l122 157q152 -96 246 -96q35 0 58.5 15.5t23.5 43.5q0 19 -15.5 35.5t-34 26t-58 27.5t-64.5 32q-178 102 -178 252q0 106 77 182t218 80l20 111h154l-23 -129q110 -27 213 -90l-121 -160q-50 29 -110.5 51.5t-104.5 22.5q-35 0 -58 -15.5t-23 -46.5 q0 -14 8 -25.5t26.5 -23t37 -20.5t50 -24.5t56.5 -29.5q80 -49 125 -103t45 -136q0 -108 -79 -186.5t-220 -84.5l-19 -108h-151l20 125q-127 33 -241 117z" />
<glyph unicode="&#xf6e4;" horiz-adv-x="739" d="M86 907l123 158q152 -96 246 -96q35 0 58.5 15.5t23.5 43.5q0 19 -15.5 35.5t-34 26t-58 27.5t-64.5 32q-179 103 -179 252q0 108 78 183.5t219 78.5l21 111h151l-22 -129q108 -26 213 -91l-121 -159q-49 29 -110 51t-105 22q-35 0 -58.5 -15.5t-23.5 -45.5 q0 -14 8 -25.5t26.5 -23t37 -20.5t50 -24.5t56.5 -29.5q37 -23 63.5 -43.5t53 -50t40 -66.5t13.5 -80q0 -108 -78.5 -186t-218.5 -84l-18 -108h-152l21 122q-134 34 -244 119z" />
<glyph unicode="&#xf6e7;" horiz-adv-x="360" d="M-86 -307l43 237h209l-41 -237h-211z" />
<glyph unicode="&#xf6e8;" horiz-adv-x="362" d="M109 788l43 238h208l-41 -238h-210z" />
<glyph unicode="&#xf6e9;" horiz-adv-x="751" d="M131 999q0 111 32.5 211.5t99 169t153.5 68.5q54 0 91 -21t73 -57l12 64h215l-115 -646h-213l13 68q-97 -82 -191 -82q-78 0 -124 60t-46 165zM350 1032q0 -78 51 -78q58 0 119 74l31 176q-15 30 -38 47t-46 17q-36 0 -63.5 -41t-40.5 -94t-13 -101z" />
<glyph unicode="&#xf6ea;" horiz-adv-x="751" d="M119 788l157 895h213l-55 -313q98 78 187 78q78 0 125 -60t47 -167q0 -106 -31.5 -206t-98.5 -170.5t-155 -70.5q-38 0 -71.5 12.5t-51.5 26t-43 37.5l-10 -62h-213zM371 1016q37 -62 88 -62q34 0 60.5 39.5t39 91.5t12.5 101q0 82 -53 82t-115 -72z" />
<glyph unicode="&#xf6eb;" horiz-adv-x="751" d="M131 999q0 111 32.5 211.5t99 169t153.5 68.5q37 0 71 -13.5t51 -27t42 -37.5l55 313h215l-158 -895h-215l10 66q-96 -80 -186 -80q-78 0 -124 60t-46 165zM350 1032q0 -78 51 -78q54 0 117 70l33 180q-36 64 -84 64q-36 0 -63.5 -41t-40.5 -94t-13 -101z" />
<glyph unicode="&#xf6ec;" horiz-adv-x="679" d="M131 1038q0 182 95 296t261 114q107 0 171.5 -52t64.5 -143q0 -66 -28 -110t-79 -65t-102.5 -28.5t-118.5 -7.5h-55q3 -102 76 -102q60 0 196 68l62 -154q-173 -80 -307 -80q-236 0 -236 264zM350 1157h49q61 0 94 22t33 64q0 47 -53 47q-45 0 -77 -36.5t-46 -96.5z" />
<glyph unicode="&#xf6ed;" horiz-adv-x="393" d="M119 788l114 646h213l-114 -646h-213zM242 1505l30 176h222l-31 -176h-221z" />
<glyph unicode="&#xf6ee;" horiz-adv-x="395" d="M119 788l157 895h216l-158 -895h-215z" />
<glyph unicode="&#xf6ef;" horiz-adv-x="1075" d="M117 788l114 646h215l-14 -74q92 88 184 88q60 0 95.5 -29t44.5 -80q37 43 92.5 76t112.5 33q87 0 122 -58t17 -159l-78 -443h-213l72 410q8 32 2.5 54t-31.5 22q-46 0 -100 -66l-76 -420h-213l72 410q18 76 -29 76q-46 0 -100 -66l-74 -420h-215z" />
<glyph unicode="&#xf6f0;" horiz-adv-x="722" d="M131 1042q0 69 18 136.5t56 130t107 101t159 38.5q59 0 110 -15t92.5 -45.5t65 -83.5t23.5 -124q0 -69 -18 -136.5t-55.5 -130t-106.5 -101t-160 -38.5q-59 0 -110 15t-92.5 45.5t-65 83.5t-23.5 124zM344 1038q0 -45 18 -68.5t62 -23.5q42 0 72.5 46t41.5 97.5t11 94.5 q0 45 -18 68.5t-62 23.5q-32 0 -57.5 -26.5t-39.5 -66t-21 -77.5t-7 -68z" />
<glyph unicode="&#xf6f1;" horiz-adv-x="540" d="M119 788l114 646h213l-22 -134q86 152 227 142l-37 -213q-37 0 -70.5 -12.5t-57.5 -32.5t-44 -44.5t-33 -49t-21.5 -44.5t-12.5 -32l-4 -13l-39 -213h-213z" />
<glyph unicode="&#xf6f2;" horiz-adv-x="657" d="M100 874l90 136q48 -30 108.5 -53t102.5 -23q54 0 54 39q0 10 -5 17.5t-17 13.5t-23 10t-31.5 11t-34.5 13q-36 14 -61 28t-53 37t-43 57t-15 77q0 91 67.5 151t188.5 60q139 0 283 -80l-88 -135q-108 57 -183 57q-51 0 -51 -39q0 -10 4.5 -17.5t16 -13.5t22 -10 t32.5 -11.5t36 -12.5q36 -15 60.5 -28.5t53 -36.5t43.5 -57t15 -77q0 -92 -69 -152.5t-193 -60.5q-87 0 -168.5 29.5t-141.5 70.5z" />
<glyph unicode="&#xf6f3;" horiz-adv-x="548" d="M150 1270l28 164h70l28 153l220 33l-33 -186h149l-28 -164h-150l-43 -242q-9 -57 25 -57q29 0 80 22l47 -172q-133 -47 -211 -47q-99 0 -137.5 69.5t-14.5 198.5l39 228h-69z" />
<glyph unicode="&#xf8ff;" horiz-adv-x="1794" d="M140.5 560.5q-2.5 11.5 15.5 21.5l57 41q2 1 3.5 2.5l3 3l2.5 2.5t2 3l1 1q19 16 37 -12l33 -64q6 -12 13.5 -15.5t14 2t9.5 17.5l18 70q4 19 18.5 21t26.5 -13l47 -53q13 -15 23.5 -11.5t11.5 23.5l4 70q3 20 15.5 25t27.5 -7l58 -43q17 -12 25.5 -6.5t4.5 25.5l-8 69 q-3 20 8.5 28t28.5 -1l64 -29q19 -9 26.5 -1.5t1.5 26.5l-22 67q-8 19 0.5 29t27.5 4l15 -2q40 -77 70 -202.5t30 -217.5q-15 -18 -34.5 -27.5t-59.5 -9.5h-8q0 46 -33 72q18 -21 18 -55v-15q-32 3 -32 39q0 43 -28 72t-77 29q-41 0 -68.5 -32t-27.5 -79q0 -60 49.5 -96.5 t138.5 -36.5q85 0 172 42t156.5 112t125 154.5t86 175.5t30.5 169q0 59 -37 98t-95 39q-48 0 -85 -33.5t-37 -84.5q0 -52 30.5 -82.5t87.5 -36.5q-30 -122 -59 -174q-12 96 -43.5 178t-75.5 129q91 -120 107 -330l-29 -41q0 156 -51 287t-131 172q-5 9 2 18.5t22 12.5l70 12 q19 3 21 13.5t-15 21.5l-59 39q-15 13 -13.5 26.5t19.5 20.5l63 29q14 4 19 10t0 13t-19 13l-63 27q-24 11 -21 29q13 6 15 16l35 62q9 19 20 18t16 -20l21 -68q6 -21 18.5 -24t26.5 14l47 53q12 15 23 12.5t12 -22.5l4 -72q1 -21 14.5 -26t28.5 8l57 43q15 12 24 5.5 t7 -26.5l-10 -70q-1 -20 10.5 -27.5t28.5 1.5l63 33q19 8 26.5 0t0.5 -29l-23 -64q-6 -20 3 -30t28 -4l70 14q20 6 26.5 -2t-4.5 -27l-37 -59q-12 -17 -5.5 -29.5t26.5 -11.5l71 4q21 0 25.5 -11t-8.5 -24l-49 -53q-14 -13 -10.5 -26.5t24.5 -16.5l70 -12q43 -10 6 -39 l-58 -39q-10 -7 -13 -15.5t2 -16.5t18 -13l63 -27q12 -5 16.5 -12t0 -13.5t-16.5 -11.5l-63 -26q-20 -7 -21.5 -22t14.5 -25l58 -41q11 -7 14.5 -14.5t-2 -13.5t-18.5 -9l-70 -13q-21 -3 -24.5 -16.5t10.5 -28.5l49 -49q13 -14 8.5 -24.5t-25.5 -10.5l-71 5q-20 0 -26.5 -12 t5.5 -29l37 -62q10 -17 4 -25.5t-26 -5.5l-70 19q-19 4 -28 -6t-3 -29l23 -68q8 -19 0 -26t-27 2l-63 31q-17 9 -28.5 1t-10.5 -30l10 -68q1 -21 -7.5 -25.5t-23.5 7.5l-57 43q-15 12 -28.5 5.5t-14.5 -26.5l-4 -69q-1 -20 -12 -23t-23 11l-47 55q-13 14 -26 12t-19 -22 l-21 -68q-3 -13 -9.5 -18t-13.5 -1t-13 15l-35 61q-9 19 -22 19t-25 -19l-31 -61q-6 -11 -13.5 -15t-14 1t-9.5 18l-20 68q-6 20 -19 22t-26 -12l-48 -55q-12 -14 -21.5 -11t-12.5 23l-5 69q-2 20 -15 26.5t-30 -5.5l-53 -43q-17 -13 -27 -8t-6 26l11 68q1 22 -10.5 30 t-30.5 -1l-62 -31q-19 -9 -26.5 -2t0.5 26l22 68q7 19 -2.5 29.5t-28.5 5.5l-69 -19q-20 -3 -26.5 5.5t3.5 25.5l39 62q11 17 4.5 29t-26.5 12l-72 -5q-21 0 -25 10.5t9 24.5l51 49q13 15 8.5 28.5t-25.5 16.5l-67 13q-21 4 -23.5 15.5zM616 281q44 -27 123 -27 q106 0 212.5 65t183.5 162t125.5 212t48.5 214q0 63 -41 101q24 -38 24 -84q0 -100 -47.5 -215t-126.5 -215q-85 -105 -188.5 -168.5t-212.5 -63.5q-58 0 -101 19z" />
<glyph unicode="&#xfb06;" horiz-adv-x="1714" d="M-37 137l150 223q76 -48 170.5 -86t158.5 -38q43 0 68 18t25 47q0 16 -7 29.5t-17.5 22.5t-30.5 19.5t-36.5 17t-46 18t-49.5 20.5q-55 24 -96.5 49t-83 63.5t-64 92t-22.5 119.5q0 151 108 248.5t299 97.5q111 0 224 -37q-6 30 -6 67q0 157 112 261t311 104 q201 0 306.5 -105.5t72.5 -293.5l-4 -19h234l-43 -246h-234l-82 -460q-9 -59 4 -79t39 -20q37 0 127 41l70 -258q-186 -76 -326 -76q-150 0 -207 106.5t-22 311.5l76 434h-117l43 246h119l6 37q21 118 -6 176t-119 58q-95 0 -159 -65.5t-64 -176.5q0 -60 18 -100l68 -37 l-148 -219q-174 94 -280 94q-42 0 -66 -18t-24 -46q0 -19 7.5 -33.5t28 -26.5t36 -19.5t52 -21.5t56.5 -22q44 -19 77.5 -37t72 -47.5t64 -62t42 -79.5t16.5 -101q0 -153 -111 -252t-307 -99q-247 0 -483 160z" />
<glyph horiz-adv-x="747" d="M88 588l84 168q31 -6 72 -6q86 0 157.5 44t114.5 124q-59 -44 -139 -44q-103 0 -165 68.5t-62 177.5q0 135 87 231.5t234 96.5q150 0 232.5 -94t82.5 -234q0 -148 -65.5 -275t-190 -206.5t-282.5 -79.5q-46 0 -86 7.5t-57 14.5zM371 1133q0 -38 21.5 -62t66.5 -24 q33 0 62 17.5t44 41.5v27q0 57 -23.5 90.5t-68.5 33.5q-51 0 -76.5 -36t-25.5 -88z" />
<glyph horiz-adv-x="1054" d="M-98 0l434 598l-211 578h334l90 -367l215 367h364l-415 -578l227 -598h-338l-100 360l-223 -360h-377z" />
<glyph horiz-adv-x="1419" d="M-184 -221q54 20 88 35t61 36t40 35.5t25 47.5t17.5 57.5t15.5 79.5l134 759h-117l45 246h115l4 25q35 202 111.5 297.5t222.5 95.5q152 0 346 -111l-148 -215q-92 37 -133 37q-24 0 -45.5 -20.5t-30.5 -71.5l-6 -37h207l-45 -246h-205l-129 -733q-35 -195 -60 -263 q-42 -111 -135 -175q-97 -67 -311 -125zM524 -221q54 20 88 35t61 35.5t41 36t26 47.5t17.5 58t14.5 79l133 759h-117l46 246h116l4 25q33 202 108.5 297.5t217.5 95.5q122 0 287 -90l-115 -227q-62 28 -100 28q-24 0 -45.5 -20.5t-30.5 -71.5l-6 -37h207l-45 -246h-205 l-129 -733q-14 -81 -21 -118t-22.5 -95t-30 -84t-41 -66t-59 -60.5t-81 -48.5t-109.5 -48.5t-142 -42.5z" />
<glyph horiz-adv-x="1341" d="M-184 -221q40 15 68 27t52.5 26.5t39 25t28 29.5t20.5 32t14.5 41t11.5 48.5t11 61.5l134 759h-113l43 246h113l2 4q37 205 120 299.5t234 94.5q149 0 379 -95q80 115 237 115q152 0 346 -111l-147 -215q-93 37 -133 37q-24 0 -45.5 -20.5t-30.5 -71.5l-6 -37h207 l-45 -246h-205l-129 -733q-35 -195 -60 -263q-42 -111 -135 -175q-97 -67 -311 -125l-67 246q54 20 88 35t61 36t40 35.5t25 47.5t17.5 57.5t15.5 79.5l133 759h-313l-129 -733q-14 -81 -21 -118t-22.5 -95t-30 -84t-41 -66t-59 -60.5t-81 -48.5t-109.5 -48.5t-142 -42.5z M559 1075h313l13 70q-159 39 -228 39q-33 0 -59.5 -22t-34.5 -70z" />
<glyph horiz-adv-x="2437" d="M-184 -221q40 15 68 27t52.5 26.5t39 25t28 29.5t20.5 32t14.5 41t11.5 48.5t11 61.5l134 759h-113l43 246h113l2 4q37 205 120 299.5t234 94.5q160 0 385 -97q85 117 252 117q144 0 338 -78l14 78h320l-93 -526q75 60 144.5 95.5t150.5 35.5q126 0 199.5 -96t73.5 -269 q0 -107 -18.5 -214t-56.5 -204.5t-91 -172.5t-127 -120t-160 -45q-47 0 -87.5 11t-74 33t-55.5 41.5t-49 48.5l-19 -111h-319l205 1165q-164 39 -232 39q-78 0 -94 -92l-6 -37h205l-45 -246h-205l-129 -733q-35 -195 -61 -264q-42 -111 -137 -176q-98 -65 -308 -123l-68 246 q54 20 87.5 35t60.5 35.5t40.5 36t26 47.5t18 57.5t15.5 79.5l133 759h-311l-129 -733q-14 -81 -21 -118t-22.5 -95t-30 -84t-41 -66t-59 -60.5t-81 -48.5t-109.5 -48.5t-142 -42.5zM559 1075h313l13 70q-159 39 -228 39q-33 0 -59.5 -22t-34.5 -70zM1704 362 q59 -114 147 -114q60 0 106.5 71.5t68.5 167.5t22 189q0 70 -23.5 111.5t-72.5 41.5q-83 0 -189 -124z" />
<glyph horiz-adv-x="2430" d="M-184 -221q40 15 68 27t52.5 26.5t39 25t28 29.5t20.5 32t14.5 41t11.5 48.5t11 61.5l134 759h-113l43 246h113l2 4q37 205 120 299.5t234 94.5q160 0 385 -97q85 117 252 117q144 0 338 -78l14 78h320l-95 -535q184 140 328 140q140 0 198 -92t27 -269l-131 -737h-321 l121 682q30 156 -56 156q-46 0 -103 -35t-106 -84l-125 -719h-319l205 1165q-164 39 -232 39q-78 0 -94 -92l-6 -37h205l-45 -246h-205l-129 -733q-35 -195 -61 -264q-42 -111 -137 -176q-98 -65 -308 -123l-68 246q54 20 87.5 35t60.5 35.5t40.5 36t26 47.5t18 57.5 t15.5 79.5l133 759h-311l-129 -733q-14 -81 -21 -118t-22.5 -95t-30 -84t-41 -66t-59 -60.5t-81 -48.5t-109.5 -48.5t-142 -42.5zM559 1075h313l13 70q-159 39 -228 39q-33 0 -59.5 -22t-34.5 -70z" />
<glyph horiz-adv-x="1789" d="M-184 -221q40 15 68 27t52.5 26.5t39 25t28 29.5t20.5 32t14.5 41t11.5 48.5t11 61.5l134 759h-113l43 246h113l2 4q37 205 120 299.5t234 94.5q152 0 387 -97q91 117 264 117q103 0 231 -33.5t230 -77.5l-131 -215q-180 37 -264 37q-39 0 -71 -22t-42 -70l-6 -37h580 l-191 -1075h-319l145 829h-260l-129 -733q-14 -81 -21 -118t-22.5 -95t-30 -84t-41 -66t-58.5 -60.5t-80.5 -48.5t-109 -48.5t-141.5 -42.5l-68 246q54 20 87.5 35t60.5 35.5t40.5 36t26 47.5t18 57.5t15.5 79.5l133 759h-311l-129 -733q-14 -81 -21 -118t-22.5 -95t-30 -84 t-41 -66t-59 -60.5t-81 -48.5t-109.5 -48.5t-142 -42.5zM559 1075h313l13 70q-159 39 -228 39q-33 0 -59.5 -22t-34.5 -70z" />
<glyph horiz-adv-x="1792" d="M-184 -221q40 15 68 27t52.5 26.5t39 25t28 29.5t20.5 32t14.5 41t11.5 48.5t11 61.5l134 759h-113l43 246h113l2 4q37 205 120 299.5t234 94.5q152 0 387 -97q91 117 264 117q103 0 231 -33.5t230 -77.5l-131 -215q-180 37 -264 37q-39 0 -71 -22t-42 -70l-6 -37h582 l-183 -1026q-14 -79 -21.5 -116t-24.5 -94t-37.5 -84.5t-55.5 -66t-83 -61.5t-116 -48.5t-159 -47.5l-66 252q53 20 87 35t60.5 32.5t40 30.5t24.5 37.5t16 43.5t12 58l141 809h-262l-129 -733q-14 -81 -21 -118t-22.5 -95t-30 -84t-41 -66t-58.5 -60.5t-80.5 -48.5 t-109 -48.5t-141.5 -42.5l-68 246q54 20 87.5 35t60.5 35.5t40.5 36t26 47.5t18 57.5t15.5 79.5l133 759h-311l-129 -733q-14 -81 -21 -118t-22.5 -95t-30 -84t-41 -66t-59 -60.5t-81 -48.5t-109.5 -48.5t-142 -42.5zM559 1075h313l13 70q-159 39 -228 39q-33 0 -59.5 -22 t-34.5 -70z" />
<glyph horiz-adv-x="2363" d="M-184 -221q40 15 68 27t52.5 26.5t39 25t28 29.5t20.5 32t14.5 41t11.5 48.5t11 61.5l134 759h-113l43 246h113l2 4q37 205 120 299.5t234 94.5q160 0 385 -97q85 117 252 117q144 0 338 -78l14 78h320l-136 -764l261 346h382l-393 -438l250 -637h-328l-137 395 l-116 -131l-46 -264h-319l205 1165q-164 39 -232 39q-78 0 -94 -92l-6 -37h205l-45 -246h-205l-129 -733q-35 -195 -61 -264q-42 -111 -137 -176q-98 -65 -308 -123l-68 246q54 20 87.5 35t60.5 35.5t40.5 36t26 47.5t18 57.5t15.5 79.5l133 759h-311l-129 -733 q-14 -81 -21 -118t-22.5 -95t-30 -84t-41 -66t-59 -60.5t-81 -48.5t-109.5 -48.5t-142 -42.5zM559 1075h313l13 70q-159 39 -228 39q-33 0 -59.5 -22t-34.5 -70z" />
<glyph horiz-adv-x="708" d="M-184 -221q46 17 77.5 31.5t56.5 28t41 32t27 33t19 44.5t13 53t13 69l134 759h-117l45 246h117l4 25q33 202 108 297.5t217 95.5q122 0 287 -90l-115 -227q-62 28 -100 28q-24 0 -45.5 -20.5t-30.5 -71.5l-6 -37h207l-45 -246h-205l-129 -733q-14 -81 -21 -118 t-22.5 -95t-30 -84t-41 -66t-59 -60.5t-81 -48.5t-109.5 -48.5t-142 -42.5z" />
<glyph horiz-adv-x="1855" d="M-184 -221q40 15 68 27t52.5 26.5t39 25t28 29.5t20.5 32t14.5 41t11.5 48.5t11 61.5l134 759h-113l43 246h113l2 4q37 205 120 299.5t234 94.5q160 0 385 -97q85 117 252 117q144 0 338 -78l14 78h320l-263 -1493h-319l205 1165q-164 39 -232 39q-78 0 -94 -92l-6 -37 h205l-45 -246h-205l-129 -733q-35 -195 -61 -264q-42 -111 -137 -176q-98 -65 -308 -123l-68 246q54 20 87.5 35t60.5 35.5t40.5 36t26 47.5t18 57.5t15.5 79.5l133 759h-311l-129 -733q-14 -81 -21 -118t-22.5 -95t-30 -84t-41 -66t-59 -60.5t-81 -48.5t-109.5 -48.5 t-142 -42.5zM559 1075h313l13 70q-159 39 -228 39q-33 0 -59.5 -22t-34.5 -70z" />
<glyph horiz-adv-x="2054" d="M-184 -221q40 15 68 27t52.5 26.5t39 25t28 29.5t20.5 32t14.5 41t11.5 48.5t11 61.5l134 759h-113l43 246h113l2 4q37 205 120 299.5t234 94.5q149 0 379 -95q77 115 233 115q157 0 346 -111l-147 -215q-87 37 -133 37q-59 0 -76 -92l-6 -37h336l47 258l330 53l-56 -311 h234l-43 -246h-234l-82 -460q-11 -59 2.5 -79t40.5 -20q32 0 127 41l70 -258q-186 -76 -328 -76q-148 0 -205 106.5t-22 311.5l76 434h-336l-129 -733q-35 -195 -61 -264q-42 -111 -137 -176q-98 -65 -308 -123l-66 246q54 20 87.5 35t60.5 35.5t40.5 36t25.5 47.5t17.5 58 t14.5 79l135 759h-311l-129 -733q-14 -81 -21 -118t-22.5 -95t-30 -84t-41 -66t-59 -60.5t-81 -48.5t-109.5 -48.5t-142 -42.5zM559 1075h313l13 70q-159 39 -228 39q-33 0 -59.5 -22t-34.5 -70z" />
<glyph horiz-adv-x="1798" d="M-184 -221q46 17 77.5 31.5t56.5 28t41 32t27 33t19 44.5t13 53t13 69l134 759h-117l45 246h117l4 25q37 204 119.5 298.5t232.5 94.5q148 0 338 -78l14 78h320l-94 -535q84 64 163 102t164 38q140 0 198.5 -92.5t27.5 -268.5l-132 -737h-321l121 682q30 156 -56 156 q-46 0 -102.5 -35t-105.5 -84l-125 -719h-320l205 1165q-164 39 -229 39q-79 0 -95 -92l-6 -37h205l-45 -246h-205l-129 -733q-35 -195 -60 -263q-42 -111 -135 -175q-97 -67 -311 -125z" />
<glyph horiz-adv-x="1130" d="M67 337.5q1 72.5 17 164.5l119 674h305l-131 -738q-16 -88 7.5 -135t113.5 -47t133.5 48t56.5 132l131 740h305l-129 -732q-15 -83 -35.5 -146.5t-59 -125t-91.5 -101.5t-134.5 -64.5t-187.5 -24.5q-119 0 -203 27.5t-130 73t-67 114t-20 141zM420 1518h188 q-6 -38 17 -61t67 -23q59 0 97 23t42 61h189q-22 -124 -109.5 -193.5t-226.5 -69.5q-145 0 -214 73t-50 190z" />
<glyph horiz-adv-x="1159" d="M-184 -221q46 17 77.5 31.5t56.5 28t41 32t27 33t19 44.5t13 53t13 69l134 759h-117l45 246h117l4 25q37 204 123.5 298.5t244.5 94.5q102 0 229 -33.5t232 -77.5l-133 -215q-174 37 -264 37q-37 0 -68 -22t-41 -70l-6 -37h578l-191 -1075h-319l145 829h-258l-129 -733 q-14 -81 -21 -118t-22.5 -95t-30 -84t-41 -66t-59 -60.5t-81 -48.5t-109.5 -48.5t-142 -42.5z" />
<glyph horiz-adv-x="1159" d="M-184 -221q46 17 77.5 31.5t56.5 28t41 32t27 33t19 44.5t13 53t13 69l134 759h-117l45 246h117l4 25q37 204 123.5 298.5t244.5 94.5q102 0 229 -33.5t232 -77.5l-133 -215q-174 37 -264 37q-37 0 -68 -22t-41 -70l-6 -37h580l-182 -1026q-30 -173 -56 -237 q-43 -109 -147 -173q-100 -60 -297 -108l-64 252q53 20 87 35t60.5 32.5t40 30.5t24.5 37.5t16 43.5t12 58l141 809h-260l-129 -733q-14 -81 -21 -118t-22.5 -95t-30 -84t-41 -66t-59 -60.5t-81 -48.5t-109.5 -48.5t-142 -42.5z" />
<glyph horiz-adv-x="1730" d="M-184 -221q54 20 88 35t61 36t40 35.5t25 47.5t17.5 57.5t15.5 79.5l134 759h-117l45 246h117l4 25q36 204 119 298.5t233 94.5q148 0 338 -78l14 78h320l-135 -764l260 346h383l-394 -438l250 -637h-327l-138 395l-116 -131l-45 -264h-320l205 1165q-164 39 -229 39 q-79 0 -95 -92l-6 -37h205l-45 -246h-205l-129 -733q-14 -81 -21 -118t-22.5 -95t-30 -84t-41 -66t-59 -60.5t-81 -48.5t-109.5 -48.5t-142 -42.5z" />
<glyph horiz-adv-x="413" d="M133 788l37 216h209l-37 -216h-209zM223 1079l35 570h260l-168 -570h-127z" />
<glyph horiz-adv-x="1222" d="M-184 -221q46 17 77.5 31.5t56.5 28t41 32t27 33t19 44.5t13 53t13 69l134 759h-117l45 246h117l4 25q37 204 119.5 298.5t232.5 94.5q148 0 338 -78l14 78h320l-262 -1493h-320l205 1165q-153 39 -229 39q-79 0 -95 -92l-6 -37h205l-45 -246h-205l-129 -733 q-35 -195 -60 -263q-42 -111 -135 -175q-97 -67 -311 -125z" />
<glyph horiz-adv-x="1425" d="M-184 -221q46 17 77.5 31.5t56.5 28t41 32t27 33t19 44.5t13 53t13 69l134 759h-117l45 246h117l4 25q33 202 109.5 297.5t222.5 95.5q152 0 346 -111l-148 -215q-92 37 -133 37q-24 0 -45.5 -20.5t-30.5 -71.5l-6 -37h336l47 258l330 53l-55 -311h233l-43 -246h-233 l-82 -460q-11 -59 2.5 -79t40.5 -20q32 0 127 41l69 -258q-186 -76 -327 -76q-149 0 -206 106.5t-22 311.5l76 434h-336l-129 -733q-35 -195 -60 -263q-42 -111 -135 -175q-97 -67 -311 -125z" />
<glyph horiz-adv-x="548" d="M-190 -426q51 18 76.5 31t42.5 33.5t22.5 40.5t13.5 65l76 430h-72l31 164h70q23 129 71.5 189.5t143.5 60.5q108 0 223 -70l-98 -143q-55 22 -78 22q-35 0 -45 -49l-2 -10h125l-29 -164h-125l-74 -412q-25 -136 -47 -182q-33 -72 -119 -115q-57 -29 -159 -57z" />
<glyph horiz-adv-x="1130" d="M67 337.5q1 72.5 17 164.5l119 674h305l-131 -738q-16 -88 7.5 -135t113.5 -47t133.5 48t56.5 132l131 740h305l-129 -732q-15 -83 -35.5 -146.5t-59 -125t-91.5 -101.5t-134.5 -64.5t-187.5 -24.5q-119 0 -203 27.5t-130 73t-67 114t-20 141zM467 1255l260 287h358 l-342 -287h-276z" />
<glyph horiz-adv-x="722" d="M-47 123l125 145q31 -25 49.5 -38.5t56 -28.5t74.5 -15q53 0 89 30.5t36 84.5q0 38 -22.5 61t-65.5 23q-65 0 -133 -45l-115 78l117 442h516l-33 -192h-325l-23 -101q35 6 70 6q118 0 180.5 -72.5t62.5 -181.5q0 -135 -90.5 -234t-247.5 -99q-178 0 -321 137z" />
<glyph horiz-adv-x="722" d="M53 696l125 146q31 -25 49.5 -38.5t56 -28.5t74.5 -15q53 0 89 30t36 84q0 38 -22.5 61t-65.5 23q-65 0 -133 -45l-115 78l117 443h516l-32 -193h-326l-23 -100q34 6 70 6q118 0 181 -73t63 -181q0 -135 -90.5 -234.5t-247.5 -99.5q-179 0 -322 137z" />
<glyph horiz-adv-x="1077" d="M-82 -63l188 217q153 -136 281 -136q92 0 156.5 62t64.5 164q0 72 -38.5 118t-114.5 46q-53 0 -100.5 -20t-112.5 -60l-174 116l192 732h803l-51 -289h-514l-45 -211q55 12 116 12q95 0 169 -33t119.5 -91t69 -132t23.5 -160q0 -85 -22 -165.5t-67 -150.5t-107.5 -123 t-150.5 -83.5t-189 -30.5q-278 0 -496 218z" />
<glyph d="M27 195l188 217q153 -136 281 -136q92 0 156.5 62t64.5 164q0 72 -39 118t-115 46q-53 0 -100.5 -20t-112.5 -60l-174 116l193 732h802l-51 -289h-514l-45 -211q55 12 117 12q95 0 169 -33t119.5 -91t69 -132t23.5 -160q0 -85 -22 -165.5t-67 -150.5t-108 -123 t-151 -83.5t-189 -30.5q-277 0 -495 218z" />
<glyph horiz-adv-x="413" d="M-59 -307l36 215h209l-36 -215h-209zM31 -16l35 569h260l-168 -569h-127z" />
<glyph horiz-adv-x="1505" d="M45 569l98 115q82 -68 158 -68q49 0 84 26t35 73q0 35 -21.5 55.5t-62.5 20.5q-61 0 -117 -39l-94 63l98 361h436l-24 -154h-287l-20 -90q30 6 65 6q102 0 155.5 -59t53.5 -148q0 -110 -77 -191t-210 -81q-154 0 -270 110zM301 0l684 1176h189l-685 -1176h-188zM807 174 q0 136 182 215q-76 57 -76 137q0 84 69.5 137.5t188.5 53.5q110 0 169 -46t59 -118q0 -102 -133 -174q106 -69 106 -172q0 -96 -81 -157.5t-222 -61.5q-127 0 -194.5 50t-67.5 136zM987 195q0 -32 24 -50t66 -18q52 0 86.5 24.5t34.5 63.5q0 32 -21 54.5t-59 45.5 q-63 -26 -97 -53t-34 -67zM1079 514q0 -42 54 -72q45 18 70.5 38.5t25.5 49.5q0 25 -17.5 39.5t-46.5 14.5q-38 0 -62 -21t-24 -49z" />
<glyph horiz-adv-x="411" d="M106 788l168 570h127l-34 -570h-261zM246 1434l37 215h209l-37 -215h-209z" />
<glyph horiz-adv-x="1486" d="M45 569l100 115q77 -68 156 -68q49 0 85 26t36 73q0 35 -22 55.5t-62 20.5q-63 0 -119 -39l-94 63l100 361h434l-24 -154h-287l-20 -90q30 6 65 6q102 0 155.5 -59t53.5 -148q0 -110 -77 -191t-210 -81q-149 0 -270 110zM301 0l682 1176h188l-684 -1176h-186zM807 258 q0 120 56.5 224.5t162.5 169.5t238 65q38 0 71.5 -5.5t47.5 -11.5l14 -6l-66 -135q-28 8 -61 8q-80 0 -145.5 -39.5t-102.5 -109.5q53 39 127 39q91 0 145 -56t54 -145q0 -110 -74.5 -189t-200.5 -79t-196 77.5t-70 192.5zM983 250q0 -49 22.5 -80t65.5 -31q48 0 74 32 t26 75q0 34 -20.5 55t-63.5 21q-33 0 -62 -16.5t-42 -37.5v-18z" />
<glyph horiz-adv-x="413" d="M-86 -307l168 569h127l-35 -569h-260zM53 338l37 215h209l-37 -215h-209z" />
<glyph horiz-adv-x="1128" d="M65 337.5q1 72.5 17 164.5l119 674h305l-131 -738q-16 -88 7.5 -135t113.5 -47t133.5 48t56.5 132l131 740h305l-129 -732q-15 -83 -35.5 -146.5t-59 -125t-91.5 -101.5t-134.5 -64.5t-187.5 -24.5q-119 0 -203 27.5t-130 73t-67 114t-20 141z" />
<glyph horiz-adv-x="675" d="M172 1452l33 197h629l-35 -197h-201l-119 -664h-221l117 664h-203z" />
<glyph horiz-adv-x="792" d="M-49 150l26 161l412 549h297l-92 -518h108l-32 -192h-109l-26 -150h-222l27 150h-389zM201 342h172l53 303z" />
<glyph horiz-adv-x="794" d="M51 723l27 162l411 549h297l-92 -519h109l-33 -192h-108l-27 -150h-221l26 150h-389zM301 915h172l53 304z" />
<glyph horiz-adv-x="1200" d="M-74 4l43 244l670 928h444l-155 -883h176l-51 -289h-176l-46 -262h-333l45 262h-617zM299 293h295l96 543z" />
<glyph d="M-12 262l43 244l669 928h422l-155 -883h161l-51 -289h-162l-45 -262h-329l45 262h-598zM356 551h281l90 514z" />
<glyph horiz-adv-x="1593" d="M49 596l21 127l360 453h238l-80 -428h96l-27 -152h-96l-22 -125h-177l23 125h-336zM254 748h158l47 262zM385 0l684 1176h191l-687 -1176h-188zM897 98l98 117q84 -70 156 -70q50 0 85.5 27t35.5 74q0 35 -21.5 55.5t-62.5 20.5q-57 0 -119 -41l-92 63l98 361h434 l-24 -152h-285l-22 -94q31 8 67 8q102 0 155.5 -59t53.5 -148q0 -110 -78 -191t-209 -81q-148 0 -270 110z" />
<glyph horiz-adv-x="536" d="M-20 0l229 776h174l-45 -776h-358zM170 879l51 297h289l-49 -297h-291z" />
<glyph horiz-adv-x="1130" d="M67 337.5q1 72.5 17 164.5l119 674h305l-131 -738q-16 -88 7.5 -135t113.5 -47t133.5 48t56.5 132l131 740h305l-129 -732q-15 -83 -35.5 -146.5t-59 -125t-91.5 -101.5t-134.5 -64.5t-187.5 -24.5q-119 0 -203 27.5t-130 73t-67 114t-20 141zM342 1255l236 287h290 l131 -287h-198l-92 144l-140 -144h-227z" />
<glyph horiz-adv-x="532" d="M14 0l49 297h291l-51 -297h-289zM141 399l45 777h359l-230 -777h-174z" />
<glyph horiz-adv-x="1128" d="M-4 203l33 194h121l182 1037h882l-53 -295h-547l-49 -279h430l-51 -289h-430l-33 -174h299l-35 -194h-299l-34 -203h-332l35 203h-119z" />
<glyph horiz-adv-x="1009" d="M-14 154l30 174h107l149 848h777l-48 -273h-471l-32 -184h368l-47 -264h-368l-23 -127h256l-31 -174h-256l-26 -154h-305l26 154h-106z" />
<glyph horiz-adv-x="729" d="M-92 -195l22 127h76l111 621h563l-35 -197h-340l-26 -137h266l-33 -192h-266l-17 -95h187l-23 -127h-186l-21 -112h-221l21 112h-78z" />
<glyph horiz-adv-x="729" d="M100 901l23 127h76l110 621h563l-34 -197h-340l-27 -137h266l-32 -193h-267l-16 -94h186l-22 -127h-187l-20 -113h-221l18 113h-76z" />
<glyph horiz-adv-x="516" d="M33 670q51 18 76.5 31t42.5 33.5t22.5 40.5t13.5 65l76 430h-71l30 164h70q23 128 71.5 188.5t143.5 60.5q109 0 223 -69l-98 -144q-57 23 -78 23q-35 0 -45 -49l-2 -10h125l-29 -164h-125l-73 -412q-18 -96 -29.5 -136t-45 -88t-91 -74.5t-160.5 -55.5z" />
<glyph horiz-adv-x="677" d="M-20 356l32 197h629l-35 -197h-200l-119 -663h-221l116 663h-202z" />
<glyph horiz-adv-x="1069" d="M6 0l207 1176h305l-31 -177h99q438 0 438 -333q0 -69 -17 -132.5t-56 -122t-96 -102t-142 -69t-189 -25.5h-174l-39 -215h-305zM395 477h119q98 0 148.5 46t50.5 116q0 54 -38.5 75t-111.5 21h-123z" />
<glyph horiz-adv-x="925" d="M66 -336l88 160q38 -23 75 -23q35 0 58.5 21.5t23.5 71.5q0 40 -22 106h-86l159 903h-280l47 273h864l-47 -273h-278l-158 -903h-86q5 -8 12 -25.5t15 -54t8 -72.5q0 -113 -67 -172t-165 -59q-101 0 -161 47z" />
<glyph horiz-adv-x="925" d="M82 903l47 273h864l-47 -273h-278l-158 -903h-307l159 903h-280zM295 1542h201l92 -145l139 145h225l-233 -287h-293z" />
<glyph horiz-adv-x="937" d="M88 903l47 273h864l-47 -273h-278l-68 -389h121l-31 -174h-121l-59 -340h-307l59 340h-118l30 174h119l70 389h-281z" />
<glyph horiz-adv-x="849" d="M-90 -307l100 565q13 75 36.5 131t65 104t110 73.5t161.5 25.5q82 0 144 -20t97 -53t51.5 -71t16.5 -79q0 -43 -17 -80t-33 -53l-17 -15q-85 -20 -104 -51q-7 -11 -7 -23q0 -20 16.5 -34.5t49 -35.5t53.5 -44q57 -60 57 -139q0 -90 -71 -153t-183 -63q-123 0 -256 78 l94 133q92 -47 142 -47q27 0 41 11.5t14 29.5q0 28 -35 49q-2 1 -21.5 13t-29.5 19t-28 24t-28 33.5t-18 42t-8 53.5q0 134 180 209q4 12 4 24q0 34 -26 54t-78 20q-69 0 -106.5 -41t-55.5 -141l-96 -549h-215z" />
<glyph horiz-adv-x="872" d="M113 788l100 566q13 75 36.5 131t65 104t110 73.5t161.5 25.5q82 0 144 -20t97 -53.5t51.5 -71.5t16.5 -79q0 -43 -17 -79.5t-34 -52.5l-17 -15q-110 -26 -110 -74q0 -20 16.5 -35t49 -36t53.5 -44q57 -60 57 -139q0 -90 -71 -152.5t-183 -62.5q-123 0 -256 78l94 133 q92 -47 141 -47q27 0 41.5 11.5t14.5 29.5q0 28 -35 49q-2 2 -21 13.5t-29.5 18.5t-28.5 23.5t-28 33t-18 42t-8 53.5q0 134 180 209q4 12 4 25q0 34 -26 54t-78 20q-68 0 -105.5 -41.5t-56.5 -141.5l-96 -549h-215z" />
<glyph horiz-adv-x="745" d="M-119 -516l70 172q129 -51 223 -51q56 0 81.5 25t33.5 73l10 55q-96 -80 -190 -80q-77 0 -122.5 60.5t-45.5 165.5q0 111 32.5 211.5t99.5 168.5t154 68q88 0 162 -78l12 64h215l-110 -625q-15 -84 -39.5 -139t-63.5 -86.5t-87.5 -44t-118.5 -12.5q-162 0 -316 53z M160 -63q0 -78 53 -78q56 0 117 71l30 179q-31 63 -84 63q-36 0 -63.5 -41t-40 -93.5t-12.5 -100.5z" />
<glyph horiz-adv-x="925" d="M82 903l47 273h864l-47 -273h-278l-158 -903h-307l159 903h-280z" />
<glyph horiz-adv-x="757" d="M96 907l123 158q152 -96 246 -96q35 0 58.5 15.5t23.5 43.5q0 19 -15.5 35.5t-34 26t-58 27.5t-64.5 32q-178 102 -178 252q0 110 81.5 186t227.5 76q169 0 350 -109l-121 -159q-49 29 -110 51t-105 22q-35 0 -58.5 -15.5t-23.5 -45.5q0 -14 8 -25.5t26.5 -23t37 -20.5 t50 -24.5t56.5 -29.5q37 -23 63.5 -43.5t53 -50t40 -66.5t13.5 -80q0 -112 -84 -191t-233 -79q-196 0 -373 133z" />
<glyph horiz-adv-x="1130" d="M67 337.5q1 72.5 17 164.5l119 674h305l-131 -738q-16 -88 7.5 -135t113.5 -47t133.5 48t56.5 132l131 740h305l-129 -732q-15 -83 -35.5 -146.5t-59 -125t-91.5 -101.5t-134.5 -64.5t-187.5 -24.5q-119 0 -203 27.5t-130 73t-67 114t-20 141zM393 1276l45 258h242 l-45 -258h-242zM725 1276l45 258h242l-45 -258h-242z" />
<glyph horiz-adv-x="757" d="M82 580l70 172q131 -52 223 -52q56 0 81 25.5t33 73.5l11 55q-96 -80 -191 -80q-77 0 -122.5 60t-45.5 165q0 111 33 212t100 169t154 68q88 0 162 -78l12 64h215l-110 -625q-20 -111 -59.5 -173.5t-98 -86t-152.5 -23.5q-158 0 -315 54zM360 1032q0 -78 54 -78t116 72 l31 178q-31 64 -84 64q-36 0 -63.5 -41t-40.5 -94t-13 -101z" />
<glyph horiz-adv-x="759" d="M-96 -188l123 157q152 -96 245 -96q35 0 58.5 15.5t23.5 43.5q0 19 -15.5 35.5t-34 26t-58 27.5t-64.5 32q-178 102 -178 252q0 110 81.5 186t227.5 76q172 0 351 -108l-121 -160q-50 29 -110.5 51.5t-104.5 22.5q-35 0 -58.5 -16t-23.5 -46q0 -14 8 -25.5t26.5 -23 t37 -20.5t50 -24.5t56.5 -29.5q80 -49 125 -103t45 -136q0 -112 -84.5 -191.5t-233.5 -79.5q-193 0 -372 134z" />
<glyph horiz-adv-x="1024" d="M-29 162l168 217q211 -131 340 -131q49 0 81 22.5t32 61.5q0 25 -23 47t-51.5 36t-83.5 40t-90 45q-114 67 -174.5 144t-60.5 187q0 73 27.5 138t79 115.5t134 80t185.5 29.5q238 0 485 -147l-170 -220q-176 101 -299 101q-45 0 -78 -21t-33 -61q0 -20 12 -36.5t38 -32.5 t51.5 -28.5t69.5 -33t75 -37.5q53 -31 92 -60.5t75 -69.5t54.5 -90t18.5 -108q0 -72 -28.5 -137.5t-82 -117.5t-139 -82.5t-191.5 -30.5q-145 0 -277.5 51.5t-236.5 128.5zM199 -543l129 168h-97l45 262h224l-41 -290l-215 -218z" />
<glyph horiz-adv-x="1130" d="M67 337.5q1 72.5 17 164.5l119 674h305l-131 -738q-16 -88 7.5 -135t113.5 -47t133.5 48t56.5 132l131 740h305l-129 -732q-15 -83 -35.5 -146.5t-59 -125t-91.5 -101.5t-134.5 -64.5t-187.5 -24.5q-119 0 -203 27.5t-130 73t-67 114t-20 141zM379 1542h326l161 -287 h-245z" />
<glyph horiz-adv-x="1130" d="M67 337.5q1 72.5 17 164.5l119 674h305l-131 -738q-16 -88 7.5 -135t113.5 -47t133.5 48t56.5 132l131 740h305l-129 -732q-15 -83 -35.5 -146.5t-59 -125t-91.5 -101.5t-134.5 -64.5t-187.5 -24.5q-119 0 -203 27.5t-130 73t-67 114t-20 141zM387 1255l186 287h271 l-269 -287h-188zM717 1255l186 287h271l-269 -287h-188z" />
<glyph horiz-adv-x="1024" d="M-29 162l168 217q211 -131 340 -131q49 0 81 22.5t32 61.5q0 25 -23 47t-51.5 36t-83.5 40t-90 45q-114 67 -174.5 144t-60.5 187q0 73 27.5 138t79 115.5t134 80t185.5 29.5q238 0 485 -147l-170 -220q-176 101 -299 101q-45 0 -78 -21t-33 -61q0 -20 12 -36.5t38 -32.5 t51.5 -28.5t69.5 -33t75 -37.5q53 -31 92 -60.5t75 -69.5t54.5 -90t18.5 -108q0 -72 -28.5 -137.5t-82 -117.5t-139 -82.5t-191.5 -30.5q-145 0 -277.5 51.5t-236.5 128.5zM295 1255l235 287h291l131 -287h-198l-92 144l-140 -144h-227z" />
<glyph horiz-adv-x="1024" d="M-29 162l168 217q211 -131 340 -131q49 0 81 22.5t32 61.5q0 25 -23 47t-51.5 36t-83.5 40t-90 45q-114 67 -174.5 144t-60.5 187q0 73 27.5 138t79 115.5t134 80t185.5 29.5q238 0 485 -147l-170 -220q-176 101 -299 101q-45 0 -78 -21t-33 -61q0 -20 12 -36.5t38 -32.5 t51.5 -28.5t69.5 -33t75 -37.5q53 -31 92 -60.5t75 -69.5t54.5 -90t18.5 -108q0 -69 -26 -132t-74.5 -113t-125.5 -82.5t-172 -38.5q27 -73 27 -136q0 -113 -66.5 -172t-164.5 -59q-102 0 -162 47l88 160q38 -23 76 -23q35 0 58.5 21.5t23.5 71.5q0 31 -19 94 q-219 26 -418 174z" />
<glyph horiz-adv-x="718" d="M-74 -307l158 895h215l-55 -316q111 80 202 80q89 0 126.5 -57t17.5 -166l-78 -436h-215l72 399q9 35 3 60.5t-34 25.5q-29 0 -63.5 -19t-59.5 -48l-74 -418h-215z" />
<glyph horiz-adv-x="1024" d="M-29 162l168 217q211 -131 340 -131q49 0 81 22.5t32 61.5q0 25 -23 47t-51.5 36t-83.5 40t-90 45q-114 67 -174.5 144t-60.5 187q0 73 27.5 138t79 115.5t134 80t185.5 29.5q238 0 485 -147l-170 -220q-176 101 -299 101q-45 0 -78 -21t-33 -61q0 -20 12 -36.5t38 -32.5 t51.5 -28.5t69.5 -33t75 -37.5q53 -31 92 -60.5t75 -69.5t54.5 -90t18.5 -108q0 -72 -28.5 -137.5t-82 -117.5t-139 -82.5t-191.5 -30.5q-145 0 -277.5 51.5t-236.5 128.5zM344 1542h201l92 -145l139 145h225l-233 -287h-293z" />
<glyph horiz-adv-x="845" d="M-24.5 -61.5q0.5 53.5 12.5 120.5l90 494h221l-96 -539q-12 -65 4.5 -100t81.5 -35q66 0 96.5 34.5t40.5 98.5l96 541h223l-96 -537q-14 -77 -35.5 -132.5t-62 -105t-108 -75t-162.5 -25.5q-87 0 -148 20t-94.5 53.5t-48.5 83.5t-14.5 103.5z" />
<glyph horiz-adv-x="1026" d="M-29 162l168 217q211 -131 340 -131q49 0 81 22.5t32 61.5q0 25 -23 47t-51.5 36t-83.5 40t-90 45q-114 67 -174.5 144t-60.5 187q0 73 27.5 138t79 115.5t134 80t185.5 29.5q238 0 485 -147l-170 -220q-176 101 -299 101q-45 0 -78 -21t-33 -61q0 -20 12 -36.5t38 -32.5 t51.5 -28.5t69.5 -33t75 -37.5q53 -31 92 -60.5t75 -69.5t54.5 -90t18.5 -108q0 -72 -28.5 -137.5t-82 -117.5t-139 -82.5t-191.5 -30.5q-145 0 -277.5 51.5t-236.5 128.5zM418 1255l260 287h358l-342 -287h-276z" />
<glyph horiz-adv-x="1024" d="M-29 162l168 217q211 -131 340 -131q49 0 81 22.5t32 61.5q0 25 -23 47t-51.5 36t-83.5 40t-90 45q-114 67 -174.5 144t-60.5 187q0 73 27.5 138t79 115.5t134 80t185.5 29.5q238 0 485 -147l-170 -220q-176 101 -299 101q-45 0 -78 -21t-33 -61q0 -20 12 -36.5t38 -32.5 t51.5 -28.5t69.5 -33t75 -37.5q53 -31 92 -60.5t75 -69.5t54.5 -90t18.5 -108q0 -72 -28.5 -137.5t-82 -117.5t-139 -82.5t-191.5 -30.5q-145 0 -277.5 51.5t-236.5 128.5z" />
<glyph horiz-adv-x="837" d="M133 788l152 861h321q165 0 239.5 -63.5t74.5 -170.5q0 -45 -12.5 -89t-38 -86.5t-73 -75.5t-110.5 -48l123 -328h-231l-103 314h-65l-56 -314h-221zM442 1282h109q71 0 107 33t36 82q0 40 -27 55.5t-81 15.5h-113z" />
<glyph horiz-adv-x="837" d="M-59 -307l151 860h322q165 0 239 -63.5t74 -170.5q0 -45 -12 -89t-38 -86.5t-73 -75.5t-110 -48l122 -327h-231l-102 313h-66l-55 -313h-221zM250 186h108q71 0 107.5 33t36.5 82q0 40 -27.5 56t-81.5 16h-112z" />
<glyph horiz-adv-x="1120" d="M6 0l207 1176h444q433 0 433 -314q0 -56 -15.5 -114.5t-50 -119t-100.5 -110t-156 -72.5l172 -446h-319l-142 428h-92l-76 -428h-305zM240 -543l129 168h-97l45 262h224l-41 -290l-215 -218zM432 676h148q100 0 149 45t49 115q0 52 -39.5 72t-113.5 20h-150z" />
<glyph horiz-adv-x="1118" d="M6 0l207 1176h444q433 0 433 -314q0 -56 -15.5 -114.5t-50 -119t-100.5 -110t-156 -72.5l172 -446h-319l-142 428h-92l-76 -428h-305zM416 1542h200l93 -145l139 145h225l-233 -287h-293zM432 676h148q100 0 149 45t49 115q0 52 -39.5 72t-113.5 20h-150z" />
<glyph horiz-adv-x="1120" d="M6 0l207 1176h444q433 0 433 -314q0 -56 -15.5 -114.5t-50 -119t-100.5 -110t-156 -72.5l172 -446h-319l-142 428h-92l-76 -428h-305zM432 676h148q100 0 149 45t49 115q0 52 -39.5 72t-113.5 20h-150zM485 1255l260 287h359l-342 -287h-277z" />
<glyph horiz-adv-x="395" d="M-70 -307l115 645h213l-115 -645h-213zM53 410l31 176h221l-31 -176h-221z" />
<glyph horiz-adv-x="1120" d="M6 0l207 1176h444q433 0 433 -314q0 -56 -15.5 -114.5t-50 -119t-100.5 -110t-156 -72.5l172 -446h-319l-142 428h-92l-76 -428h-305zM432 676h148q100 0 149 45t49 115q0 52 -39.5 72t-113.5 20h-150z" />
<glyph horiz-adv-x="886" d="M158 1122q0 56 9.5 114.5t29.5 120.5t55 116t81 97t112 68t145 25q165 0 257.5 -87.5t92.5 -256.5q0 -143 -57.5 -284t-175.5 -210l102 -112l-164 -138l-147 199q-160 3 -250 91.5t-90 256.5zM385 1124q0 -72 29.5 -111.5t101.5 -39.5q52 0 93.5 40.5t63 99t32 111 t10.5 89.5q0 151 -133 151q-52 0 -93 -40.5t-62 -99t-31.5 -111t-10.5 -89.5z" />
<glyph horiz-adv-x="1130" d="M67 337.5q1 72.5 17 164.5l119 674h305l-131 -738q-16 -88 7.5 -135t113.5 -47t133.5 48t56.5 132l131 740h305l-129 -732q-15 -83 -35.5 -146.5t-59 -125t-91.5 -101.5t-134.5 -64.5t-187.5 -24.5q-119 0 -203 27.5t-130 73t-67 114t-20 141zM416 1307l35 192h532 l-35 -192h-532z" />
<glyph horiz-adv-x="1130" d="M66.5 345q1.5 70 17.5 157l119 674h305l-131 -738q-16 -88 7.5 -135t113.5 -47t133.5 48t56.5 132l131 740h305l-129 -732q-13 -70 -29 -124.5t-43.5 -110t-64.5 -95t-92 -70.5t-125 -46q-52 -36 -85 -62.5t-63 -66.5t-30 -74q0 -13 4 -23t12.5 -15.5t16.5 -9t21 -4.5 t20 -1.5t20.5 0t15.5 0.5l-55 -148q-85 0 -123 8q-134 32 -135 156q0 127 170 226q-103 6 -176 36t-113 76t-58 112.5t-16.5 136.5z" />
<glyph horiz-adv-x="886" d="M-35 27q0 68 13 138t45.5 143.5t80 130t123.5 92.5t170 36q165 0 258 -88t93 -256q0 -65 -13 -133t-39 -136.5t-73 -128t-109 -95.5l102 -113l-163 -137l-148 198q-160 3 -250 92t-90 257zM193 29q0 -72 29.5 -112t101.5 -40q52 0 93.5 40.5t62.5 99t31.5 111t10.5 89.5 q0 152 -133 152q-52 0 -93 -40.5t-62 -99t-31 -111t-10 -89.5z" />
<glyph horiz-adv-x="663" d="M-59 -57q0 182 95 295.5t261 113.5q107 0 171 -51.5t64 -142.5q0 -53 -19.5 -92.5t-50 -61.5t-75.5 -35.5t-87 -17.5t-95 -4h-55q3 -103 75 -103q61 0 197 68l61 -154q-173 -80 -307 -80q-235 0 -235 265zM160 61h49q61 0 94 22t33 64q0 21 -13 34.5t-40 13.5 q-45 0 -77 -37t-46 -97z" />
<glyph d="M57 461q0 77 13 156.5t40.5 163.5t75 157t110 131t153.5 91.5t198 33.5q229 0 359.5 -120.5t130.5 -352.5q0 -90 -18 -183t-54.5 -186.5t-101.5 -174t-150 -128.5l141 -153l-225 -189l-205 275q-220 6 -343.5 127.5t-123.5 351.5zM369 459q0 -96 41.5 -150.5t142.5 -54.5 q74 0 131 55.5t85.5 136t42 151t13.5 120.5q0 205 -186 205q-60 0 -109 -38t-78 -93t-48.5 -121.5t-27 -119.5t-7.5 -91z" />
<glyph horiz-adv-x="794" d="M133 788l152 861h297q313 0 313 -244q0 -143 -92.5 -236.5t-267.5 -93.5h-127l-54 -287h-221zM438 1264h86q67 0 105.5 32.5t38.5 85.5q0 42 -27 58t-82 16h-86z" />
<glyph horiz-adv-x="796" d="M-59 -307l151 860h297q313 0 313 -244q0 -143 -92.5 -236t-267.5 -93h-127l-53 -287h-221zM246 168h86q66 0 104.5 33t38.5 86q0 42 -26.5 57.5t-81.5 15.5h-86z" />
<glyph horiz-adv-x="397" d="M-217 -426q66 25 94 42.5t37.5 36t17.5 62.5l109 623h215l-106 -602q-7 -39 -11 -58t-11.5 -49.5t-15 -45.5t-20.5 -38t-28.5 -35.5t-38 -29t-51 -28t-65.5 -23.5t-83 -23zM51 410l31 176h221l-31 -176h-221z" />
<glyph d="M37 346q0 67 20 127t51.5 105t78 85.5t92 69t100.5 55.5q-139 117 -139 279q0 170 129 279.5t352 109.5q200 0 308 -90.5t108 -235.5q0 -217 -254 -362q202 -137 202 -346q0 -198 -152 -321.5t-417 -123.5q-234 0 -356.5 98t-122.5 271zM377 385q0 -67 41.5 -106 t116.5 -39q92 0 153.5 55.5t61.5 140.5q0 116 -140 205q-108 -50 -170.5 -110t-62.5 -146zM553 1044q0 -85 94 -147q78 37 123 83.5t45 113.5q0 46 -28 77t-82 31q-67 0 -109.5 -48t-42.5 -110z" />
<glyph horiz-adv-x="1071" d="M6 0l207 1176h403q439 0 439 -336q0 -87 -29 -165t-87 -143.5t-157.5 -104t-228.5 -38.5h-174l-68 -389h-305zM426 651h117q98 0 148 46t50 116q0 54 -37.5 76t-109.5 22h-123z" />
<glyph d="M55 461q0 93 18 189t62.5 195.5t110 175.5t169.5 124.5t232 48.5q229 0 359.5 -120.5t130.5 -352.5q0 -78 -13.5 -158.5t-40.5 -165t-75 -158t-111 -131.5t-153.5 -92t-198.5 -34q-230 0 -360 122t-130 357zM369 459q0 -96 41.5 -150.5t142.5 -54.5q60 0 109 38t78.5 93 t49.5 121.5t27.5 119.5t7.5 91q0 205 -186 205q-60 0 -109 -38t-78 -93t-48.5 -121.5t-27 -119.5t-7.5 -91zM395 1352q29 45 42 65t39 53t46 47.5t49.5 26.5t61.5 12q39 0 83 -24.5t80.5 -49t59.5 -24.5q44 0 107 98l122 -90q-29 -46 -42 -66.5t-39 -53.5t-46 -47.5 t-49.5 -26.5t-62.5 -12q-38 0 -81.5 24.5t-79.5 49t-58 24.5q-46 0 -109 -96z" />
<glyph horiz-adv-x="884" d="M158 1122q0 56 9.5 114.5t29.5 120.5t54.5 116t80.5 97t112.5 68t145.5 25q163 0 256.5 -88t93.5 -256q0 -69 -13 -139.5t-45 -144.5t-79.5 -131t-123 -93.5t-169.5 -36.5q-165 0 -258.5 88.5t-93.5 259.5zM385 1124q0 -72 29 -111.5t100 -39.5q43 0 79 27.5t58 68t37 89 t21 88t6 67.5q0 151 -133 151q-52 0 -93 -40.5t-62 -99t-31.5 -111t-10.5 -89.5z" />
<glyph horiz-adv-x="692" d="M-74 -307l158 895h215l-78 -441l148 191h256l-246 -264l160 -381h-220l-83 227l-68 -74l-27 -153h-215z" />
<glyph horiz-adv-x="737" d="M119 788l157 895h216l-78 -440l147 191h256l-246 -265l160 -381h-219l-84 228l-68 -74l-26 -154h-215z" />
<glyph d="M-12 0l143 166q-76 118 -76 295q0 93 18 189t62.5 195.5t110 175.5t169.5 124.5t232 48.5q184 0 305 -80l54 62h202l-145 -170q74 -117 74 -285q0 -78 -13.5 -158.5t-40.5 -165t-75 -158t-111 -131.5t-153.5 -92t-198.5 -34q-182 0 -303 77l-52 -59h-202zM369 440 l389 449q-48 33 -119 33q-60 0 -109 -38t-78 -93t-48.5 -121.5t-27 -119.5t-7.5 -91v-19zM436 285q42 -31 117 -31q60 0 109 38t78.5 93t49.5 121.5t27.5 119.5t7.5 91v16zM508 1255l260 287h358l-342 -287h-276z" />
<glyph horiz-adv-x="1171" d="M23 346q0 67 20 127t51.5 105t78 85.5t92 69t100.5 55.5q-140 118 -140 279q0 170 129.5 279.5t352.5 109.5q200 0 307.5 -90.5t107.5 -235.5q0 -217 -254 -362q93 -63 148 -145.5t55 -200.5q0 -198 -152 -321.5t-417 -123.5q-234 0 -356.5 98t-122.5 271zM362 385 q0 -67 41.5 -106t116.5 -39q92 0 153.5 55.5t61.5 140.5q0 117 -139 205q-51 -24 -89 -47.5t-73 -54.5t-53.5 -70t-18.5 -84zM539 1044q0 -85 94 -147q78 37 123 83.5t45 113.5q0 46 -28.5 77t-82.5 31q-67 0 -109 -48t-42 -110z" />
<glyph d="M55 461q0 93 18 189t62.5 195.5t110 175.5t169.5 124.5t232 48.5q229 0 359.5 -120.5t130.5 -352.5q0 -78 -13.5 -158.5t-40.5 -165t-75 -158t-111 -131.5t-153.5 -92t-198.5 -34q-230 0 -360 122t-130 357zM369 459q0 -96 41.5 -150.5t142.5 -54.5q60 0 109 38t78.5 93 t49.5 121.5t27.5 119.5t7.5 91q0 205 -186 205q-60 0 -109 -38t-78 -93t-48.5 -121.5t-27 -119.5t-7.5 -91zM455 1307l34 192h533l-35 -192h-532z" />
<glyph horiz-adv-x="884" d="M-35 27q0 68 13 138t45 143.5t79.5 130t124 92.5t170.5 36q164 0 257.5 -88t93.5 -256q0 -69 -13 -139.5t-45 -144.5t-79.5 -131t-123.5 -93.5t-170 -36.5q-165 0 -258.5 89t-93.5 260zM193 29q0 -152 129 -152q53 0 94.5 40.5t63 99t32 111t10.5 89.5q0 152 -133 152 q-52 0 -93 -40.5t-62 -99t-31 -111t-10 -89.5z" />
<glyph horiz-adv-x="1200" d="M55 461q0 93 18 189t62.5 195.5t110 175.5t169.5 124.5t232 48.5q229 0 359.5 -120.5t130.5 -352.5q0 -78 -13.5 -158.5t-40.5 -165t-75 -158t-111 -131.5t-153.5 -92t-198.5 -34q-230 0 -360 122t-130 357zM369 459q0 -96 41.5 -150.5t142.5 -54.5q60 0 109 38t78.5 93 t49.5 121.5t27.5 119.5t7.5 91q0 205 -186 205q-60 0 -109 -38t-78 -93t-48.5 -121.5t-27 -119.5t-7.5 -91zM430 1255l186 287h271l-269 -287h-188zM760 1255l186 287h271l-269 -287h-188z" />
<glyph d="M55 461q0 93 18 189t62.5 195.5t110 175.5t169.5 124.5t232 48.5q229 0 359.5 -120.5t130.5 -352.5q0 -78 -13.5 -158.5t-40.5 -165t-75 -158t-111 -131.5t-153.5 -92t-198.5 -34q-230 0 -360 122t-130 357zM369 459q0 -96 41.5 -150.5t142.5 -54.5q60 0 109 38t78.5 93 t49.5 121.5t27.5 119.5t7.5 91q0 205 -186 205q-60 0 -109 -38t-78 -93t-48.5 -121.5t-27 -119.5t-7.5 -91zM420 1542h325l162 -287h-245z" />
<glyph horiz-adv-x="765" d="M82 784q0 167 209 265q-82 73 -82 165q0 102 80.5 168t222.5 66q130 0 198 -56t68 -145q0 -126 -149 -213q123 -78 123 -205q0 -120 -96 -195t-265 -75q-151 0 -230 60.5t-79 164.5zM307 811q0 -37 25 -56.5t71 -19.5q55 0 90 28t35 75q0 63 -82 116q-66 -29 -102.5 -62 t-36.5 -81zM416 1198q0 -47 53 -80q46 21 72 44.5t26 58.5q0 26 -17.5 42.5t-47.5 16.5q-38 0 -62 -25t-24 -57z" />
<glyph horiz-adv-x="389" d="M-74 -307l158 895h215l-158 -895h-215z" />
<glyph horiz-adv-x="768" d="M-18 211q0 166 208 264q-81 72 -81 166q0 102 80.5 167.5t222.5 65.5q130 0 198 -55.5t68 -144.5q0 -126 -150 -213q123 -78 123 -205q0 -120 -95.5 -195t-264.5 -75q-151 0 -230 60.5t-79 164.5zM207 238q0 -37 25 -56.5t71 -19.5q55 0 90 27.5t35 74.5q0 64 -82 117 q-66 -29 -102.5 -62t-36.5 -81zM315 625q0 -46 54 -80q46 21 72 44t26 58q0 26 -18 43t-48 17q-38 0 -62 -25t-24 -57z" />
<glyph horiz-adv-x="937" d="M-18 0l36 213q5 2 14.5 5t35 16t48 28.5t48.5 43t43 59.5h-146l25 135h150q-3 32 -9 61h-131l25 135h67q-20 75 -20 152q0 160 91.5 253t256.5 93q217 0 428 -176l-153 -184q-130 94 -216 94q-52 0 -79 -29t-27 -76q0 -34 29 -127h276l-24 -135h-224q2 -10 2 -29 q0 -22 -2 -32h213l-24 -135h-228q-39 -73 -81 -101h382l-47 -264h-759z" />
<glyph horiz-adv-x="677" d="M-94 -307l28 155q4 1 10.5 3.5t25 12t35 21.5t35.5 33t30 45h-105l17 92h108q0 1 -6 49h-94l16 95h51q-16 53 -16 114q0 118 66 186t184 68q51 0 99.5 -12t89.5 -35t66 -40t56 -42l-110 -135q-94 70 -156 70q-37 0 -56.5 -21.5t-19.5 -54.5q0 -25 25 -98h194l-16 -95 h-156q2 -8 2 -22q0 -5 -1 -14t-1 -13h148l-17 -92h-162q-18 -33 -63 -78h276l-32 -192h-551z" />
<glyph horiz-adv-x="677" d="M98 788l29 156q4 1 10.5 3.5t25 12t34.5 21.5t35 33t30 45h-104l16 92h109q0 9 -3.5 27t-3.5 22h-94l17 94h51q-17 56 -17 115q0 118 66 186t184 68q67 0 133.5 -24.5t101.5 -47.5t77 -57l-111 -135q-93 69 -156 69q-37 0 -56 -21t-19 -54q0 -29 24 -99h195l-17 -94h-155 q2 -8 2 -22q0 -5 -1 -14t-1 -13h147l-16 -92h-162q-18 -33 -63 -78h276l-33 -193h-551z" />
<glyph d="M55 461q0 93 18 189t62.5 195.5t110 175.5t169.5 124.5t232 48.5q229 0 359.5 -120.5t130.5 -352.5q0 -78 -13.5 -158.5t-40.5 -165t-75 -158t-111 -131.5t-153.5 -92t-198.5 -34q-230 0 -360 122t-130 357zM369 459q0 -96 41.5 -150.5t142.5 -54.5q60 0 109 38t78.5 93 t49.5 121.5t27.5 119.5t7.5 91q0 205 -186 205q-60 0 -109 -38t-78 -93t-48.5 -121.5t-27 -119.5t-7.5 -91zM434 1278l45 258h242l-45 -258h-242zM766 1278l45 258h242l-45 -258h-242z" />
<glyph d="M55 461q0 93 18 189t62.5 195.5t110 175.5t169.5 124.5t232 48.5q229 0 359.5 -120.5t130.5 -352.5q0 -78 -13.5 -158.5t-40.5 -165t-75 -158t-111 -131.5t-153.5 -92t-198.5 -34q-230 0 -360 122t-130 357zM369 459q0 -96 41.5 -150.5t142.5 -54.5q60 0 109 38t78.5 93 t49.5 121.5t27.5 119.5t7.5 91q0 205 -186 205q-60 0 -109 -38t-78 -93t-48.5 -121.5t-27 -119.5t-7.5 -91zM385 1255l236 287h290l131 -287h-198l-92 144l-140 -144h-227z" />
<glyph horiz-adv-x="1130" d="M67 337.5q1 72.5 17 164.5l119 674h305l-131 -738q-16 -88 7.5 -135t113.5 -47t133.5 48t56.5 132l131 740h305l-129 -732q-15 -83 -35.5 -146.5t-59 -125t-91.5 -101.5t-134.5 -64.5t-187.5 -24.5q-119 0 -203 27.5t-130 73t-67 114t-20 141zM483 1454q0 92 63.5 156.5 t155.5 64.5q91 0 156.5 -64.5t65.5 -156.5q0 -90 -65.5 -154.5t-156.5 -64.5q-92 0 -155.5 64t-63.5 155zM631 1454q0 -30 20.5 -51t50.5 -21q29 0 51.5 21.5t22.5 50.5q0 30 -22 52t-52 22t-50.5 -21.5t-20.5 -52.5z" />
<glyph d="M55 461q0 93 18 189t62.5 195.5t110 175.5t169.5 124.5t232 48.5q229 0 359.5 -120.5t130.5 -352.5q0 -78 -13.5 -158.5t-40.5 -165t-75 -158t-111 -131.5t-153.5 -92t-198.5 -34q-230 0 -360 122t-130 357zM369 459q0 -96 41.5 -150.5t142.5 -54.5q60 0 109 38t78.5 93 t49.5 121.5t27.5 119.5t7.5 91q0 205 -186 205q-60 0 -109 -38t-78 -93t-48.5 -121.5t-27 -119.5t-7.5 -91zM461 1518h188q-6 -38 17 -61t67 -23q59 0 97 23t42 61h189q-22 -124 -109.5 -193.5t-226.5 -69.5q-145 0 -214 73t-50 190z" />
<glyph horiz-adv-x="854" d="M173.5 1034.5q0.5 53.5 12.5 120.5l90 494h222l-97 -539q-12 -65 4.5 -100t81.5 -35q66 0 97 35t41 98l96 541h223l-96 -537q-11 -61 -26 -107.5t-43 -91.5t-66.5 -74t-98 -47t-135.5 -18q-87 0 -148 20t-94.5 53.5t-48.5 83.5t-14.5 103.5z" />
<glyph d="M55 461q0 93 18 189t62.5 195.5t110 175.5t169.5 124.5t232 48.5q229 0 359.5 -120.5t130.5 -352.5q0 -78 -13.5 -158.5t-40.5 -165t-75 -158t-111 -131.5t-153.5 -92t-198.5 -34q-230 0 -360 122t-130 357zM369 459q0 -96 41.5 -150.5t142.5 -54.5q60 0 109 38t78.5 93 t49.5 121.5t27.5 119.5t7.5 91q0 205 -186 205q-60 0 -109 -38t-78 -93t-48.5 -121.5t-27 -119.5t-7.5 -91zM506 1255l260 287h358l-342 -287h-276z" />
<glyph horiz-adv-x="1685" d="M55 461q0 93 18 189t62.5 195.5t110 175.5t169.5 124.5t232 48.5q161 0 273 -59l8 41h776l-47 -273h-471l-33 -182h381l-47 -264h-379l-35 -187h477l-49 -270h-780v8q-86 -26 -176 -26q-230 0 -360 122t-130 357zM369 459q0 -96 41.5 -150.5t142.5 -54.5q60 0 109 38 t78.5 93t49.5 121.5t27.5 119.5t7.5 91q0 205 -186 205q-60 0 -109 -38t-78 -93t-48.5 -121.5t-27 -119.5t-7.5 -91z" />
<glyph horiz-adv-x="1048" d="M-82 -307l115 645h215l-15 -74q92 88 185 88q119 0 139 -108q37 42 92.5 75t112.5 33q87 0 122 -58t17 -159l-78 -442h-213l72 409q8 32 2.5 54t-31.5 22q-47 0 -100 -65l-76 -420h-213l72 409q18 76 -29 76t-100 -65l-74 -420h-215z" />
<glyph horiz-adv-x="1130" d="M67 337.5q1 72.5 17 164.5l119 674h305l-131 -738q-16 -88 7.5 -135t113.5 -47t133.5 48t56.5 132l131 740h305l-129 -732q-15 -83 -35.5 -146.5t-59 -125t-91.5 -101.5t-134.5 -64.5t-187.5 -24.5q-119 0 -203 27.5t-130 73t-67 114t-20 141zM356 1352q29 45 42 65 t39 53t46 47.5t49.5 26.5t61.5 12q39 0 83 -24.5t80.5 -49t59.5 -24.5q44 0 107 98l123 -90q-23 -38 -34.5 -55.5t-33 -47t-37 -43.5t-38 -30.5t-46 -23t-51.5 -6.5q-38 0 -81.5 24.5t-79.5 49t-58 24.5q-46 0 -109 -96z" />
<glyph horiz-adv-x="1114" d="M115 1176h336l51 -795l327 795h361l-576 -1176h-338z" />
<glyph d="M55 461q0 93 18 189t62.5 195.5t110 175.5t169.5 124.5t232 48.5q229 0 359.5 -120.5t130.5 -352.5q0 -78 -13.5 -158.5t-40.5 -165t-75 -158t-111 -131.5t-153.5 -92t-198.5 -34q-230 0 -360 122t-130 357zM369 459q0 -96 41.5 -150.5t142.5 -54.5q60 0 109 38t78.5 93 t49.5 121.5t27.5 119.5t7.5 91q0 205 -186 205q-60 0 -109 -38t-78 -93t-48.5 -121.5t-27 -119.5t-7.5 -91z" />
<glyph horiz-adv-x="1169" d="M6 0l207 1176h307l207 -682l119 682h307l-207 -1176h-307l-209 684l-119 -684h-305zM387 1352q29 45 42 65t39 53t46 47.5t49.5 26.5t61.5 12q39 0 83 -24.5t80.5 -49t59.5 -24.5q43 0 106 98l123 -90q-29 -46 -42 -66.5t-39 -53.5t-46 -47.5t-49.5 -26.5t-62.5 -12 q-38 0 -81.5 24.5t-80 49t-58.5 24.5q-45 0 -108 -96z" />
<glyph horiz-adv-x="884" d="M133 788l152 861h223l147 -488l86 488h224l-152 -861h-223l-150 494l-86 -494h-221z" />
<glyph horiz-adv-x="884" d="M-59 -307l151 860h223l148 -487l86 487h223l-151 -860h-224l-149 493l-86 -493h-221z" />
<glyph horiz-adv-x="1169" d="M6 0l207 1176h307l207 -682l119 682h307l-207 -1176h-307l-209 684l-119 -684h-305zM268 -543l129 168h-96l45 262h223l-41 -290l-215 -218z" />
<glyph horiz-adv-x="1169" d="M6 0l207 1176h307l207 -682l119 682h307l-207 -1176h-307l-209 684l-119 -684h-305zM426 1542h201l92 -145l139 145h225l-233 -287h-293z" />
<glyph horiz-adv-x="1169" d="M6 0l207 1176h307l207 -682l119 682h307l-207 -1176h-307l-209 684l-119 -684h-305zM569 1255l260 287h359l-342 -287h-277z" />
<glyph horiz-adv-x="1169" d="M6 0l207 1176h307l207 -682l119 682h307l-207 -1176h-307l-209 684l-119 -684h-305z" />
<glyph horiz-adv-x="747" d="M-12 14l84 168q30 -6 71 -6q86 0 158 44.5t115 123.5q-58 -43 -140 -43q-103 0 -165 68.5t-62 177.5q0 135 87.5 231t234.5 96q150 0 232.5 -93.5t82.5 -233.5q0 -147 -65.5 -274.5t-190.5 -207t-283 -79.5q-46 0 -86 7t-57 14zM270 559q0 -38 21.5 -62t66.5 -24 q33 0 62.5 17.5t44.5 41.5v27q0 57 -23.5 91t-68.5 34q-51 0 -77 -36.5t-26 -88.5z" />
<glyph horiz-adv-x="792" d="M-4 553h244l34 -586l240 586h262l-420 -860h-243z" />
<glyph horiz-adv-x="1126" d="M-27 -240l131 254q47 -14 113 -14q146 0 264.5 87t186.5 241q-96 -84 -234 -84q-163 0 -260.5 113.5t-97.5 287.5q0 107 35 205.5t98.5 175t162 122.5t216.5 46q94 0 173.5 -28t136.5 -77t97 -115.5t59 -144.5t19 -163q0 -185 -62.5 -357.5t-171.5 -304t-270.5 -210.5 t-347.5 -79q-72 0 -134 11.5t-88 22.5zM410 666q0 -70 36 -117t107 -47q55 0 105 35t77 79q4 23 4 68q0 100 -39.5 162.5t-113.5 62.5q-84 0 -130 -72.5t-46 -170.5z" />
<glyph d="M53 23l131 253q47 -14 113 -14q146 0 264.5 87t186.5 241q-96 -84 -234 -84q-163 0 -260.5 113.5t-97.5 287.5q0 107 35 205.5t98.5 175t162 122.5t216.5 46q94 0 173.5 -28t136.5 -77t97 -115.5t59 -144.5t19 -163q0 -185 -62.5 -357.5t-171.5 -304t-270.5 -210.5 t-347.5 -79q-72 0 -134 11.5t-88 23.5zM489 928q0 -70 36.5 -117t107.5 -47q55 0 105 35.5t77 79.5q4 23 4 67q0 100 -39.5 162.5t-113.5 62.5q-84 0 -130.5 -72.5t-46.5 -170.5z" />
<glyph horiz-adv-x="792" d="M188 1649h244l35 -586l240 586h262l-420 -861h-244z" />
<glyph horiz-adv-x="1507" d="M127 1176h336l-6 -684l262 684h239l23 -684l233 684h355l-490 -1176h-288l-29 707l-270 -707h-289z" />
<glyph horiz-adv-x="729" d="M-80 -307l115 645h215l-12 -66q110 80 202 80q89 0 126.5 -57t17.5 -166l-78 -436h-213l72 401q8 34 1 59t-36 25q-56 0 -121 -65l-74 -420h-215z" />
<glyph horiz-adv-x="1507" d="M127 1176h336l-6 -684l262 684h239l23 -684l233 684h355l-490 -1176h-288l-29 707l-270 -707h-289zM655 1255l260 287h359l-342 -287h-277z" />
<glyph horiz-adv-x="1060" d="M-12 162l168 217q211 -131 340 -131q49 0 80.5 22.5t31.5 61.5q0 25 -23 47t-51.5 36t-83.5 40t-90 45q-114 67 -174.5 144t-60.5 187q0 149 106.5 253t300.5 110l29 152h207l-31 -177q152 -36 299 -122l-170 -220q-176 101 -299 101q-45 0 -77.5 -21t-32.5 -61 q0 -20 12 -36.5t38 -32.5t51.5 -28.5t69 -33t74.5 -37.5q53 -31 92 -60.5t75 -69.5t54.5 -90t18.5 -108q0 -70 -27 -134t-77.5 -115t-131 -83t-180.5 -36l-24 -150h-209l31 170q-182 44 -336 160z" />
<glyph horiz-adv-x="1001" d="M133 788l152 861h223l90 -437l258 437h223l-151 -861h-221l79 459l-180 -315h-102l-68 332l-82 -476h-221z" />
<glyph horiz-adv-x="1001" d="M-59 -307l151 860h223l91 -436l258 436h223l-152 -860h-221l80 459l-180 -316h-103l-67 332l-82 -475h-221z" />
<glyph horiz-adv-x="1105" d="M0 242l41 229h174l74 234h-146l39 229h176l76 242h223l-75 -242h147l76 242h225l-76 -242h144l-41 -229h-172l-74 -234h143l-39 -229h-176l-73 -242h-226l74 242h-147l-74 -242h-223l73 242h-143zM438 471h148l73 234h-147z" />
<glyph horiz-adv-x="800" d="M-84 -129l29 166h125l51 172h-103l31 168h123l55 176h162l-55 -176h108l56 176h161l-55 -176h105l-31 -168h-125l-51 -172h104l-28 -166h-127l-54 -178h-164l54 178h-107l-53 -178h-162l53 178h-102zM231 37h107l53 172h-108z" />
<glyph horiz-adv-x="800" d="M111 967l28 166h125l51 172h-102l31 168h123l55 176h162l-56 -176h109l55 176h162l-55 -176h104l-31 -168h-124l-52 -172h105l-29 -166h-127l-53 -179h-164l53 179h-106l-53 -179h-162l53 179h-102zM426 1133h106l54 172h-109z" />
<glyph horiz-adv-x="1329" d="M6 0l207 1176h309l127 -594l352 594h312l-207 -1176h-305l112 643l-258 -446h-131l-96 467l-117 -664h-305z" />
<glyph horiz-adv-x="675" d="M133 788l152 861h221l-117 -666h330l-33 -195h-553z" />
<glyph horiz-adv-x="919" d="M-20 299l49 276l110 62l94 539h306l-62 -351l207 117l-49 -280l-207 -115l-49 -279h459l-47 -268h-764l63 360z" />
<glyph horiz-adv-x="677" d="M-59 -307l151 860h221l-116 -666h329l-32 -194h-553z" />
<glyph horiz-adv-x="909" d="M6 0l207 1176h305l-160 -908h459l-47 -268h-764zM567 500l47 262h248l-45 -262h-250z" />
<glyph horiz-adv-x="905" d="M6 0l207 1176h305l-160 -908h459l-47 -268h-764zM176 -543l129 168h-96l45 262h223l-41 -290l-215 -218z" />
<glyph horiz-adv-x="1507" d="M127 1176h336l-6 -684l262 684h239l23 -684l233 684h355l-490 -1176h-288l-29 707l-270 -707h-289zM535 1255l235 287h291l131 -287h-199l-92 144l-139 -144h-227z" />
<glyph horiz-adv-x="905" d="M6 0l207 1176h305l-160 -908h459l-47 -268h-764zM506 745l129 168h-96l45 263h223l-41 -291l-215 -217z" />
<glyph horiz-adv-x="905" d="M6 0l207 1176h305l-160 -908h459l-47 -268h-764zM168 1255l260 287h358l-342 -287h-276z" />
<glyph horiz-adv-x="712" d="M-53 -53q0 69 18 136.5t56 129.5t106.5 100.5t159.5 38.5q59 0 110 -15t92.5 -45.5t65 -83.5t23.5 -124q0 -69 -18 -136.5t-55.5 -130t-106.5 -101t-160 -38.5q-80 0 -143.5 25.5t-105.5 88t-42 155.5zM160 -57q0 -46 18 -69.5t62 -23.5q42 0 72.5 46t41.5 97.5t11 94.5 q0 45 -18 68.5t-62 23.5q-32 0 -57.5 -26.5t-39.5 -65.5t-21 -77t-7 -68z" />
<glyph horiz-adv-x="905" d="M6 0l207 1176h305l-160 -908h459l-47 -268h-764z" />
<glyph horiz-adv-x="829" d="M133 788l152 861h221l-53 -303l262 303h284l-370 -396l223 -465h-246l-131 302l-84 -89l-37 -213h-221z" />
<glyph horiz-adv-x="595" d="M20 719l246 141h211l-151 -860h-222l113 633l-121 -66z" />
<glyph horiz-adv-x="593" d="M123 1292l246 142h211l-152 -861h-221l112 633l-120 -65z" />
<glyph horiz-adv-x="784" d="M63 950l383 226h318l-209 -1176h-332l148 834l-199 -113z" />
<glyph d="M6 0l51 289h340l142 803l-224 -127l-108 229l407 240h318l-203 -1145h348l-51 -289h-1020z" />
<glyph horiz-adv-x="735" d="M-76 -96q0 111 32.5 211.5t99 168.5t153.5 68q37 0 71 -13.5t51 -27t42 -37.5l55 314h215l-158 -895h-215l11 65q-96 -80 -187 -80q-78 0 -124 60.5t-46 165.5zM143 -63q0 -78 52 -78q54 0 116 69l33 181q-35 63 -84 63q-36 0 -63.5 -41t-40.5 -93.5t-13 -100.5z" />
<glyph horiz-adv-x="1384" d="M117 1063l207 113h168l-127 -705h-177l99 526l-109 -55zM176 0l684 1176h189l-684 -1176h-189zM682 174q0 135 180 217q-74 58 -74 135q0 84 69.5 137.5t189.5 53.5q110 0 167.5 -45.5t57.5 -118.5q0 -104 -133 -174q110 -69 110 -172q0 -96 -82 -157.5t-223 -61.5 q-127 0 -194.5 50t-67.5 136zM860 195q0 -32 24 -50t66 -18q52 0 86.5 24.5t34.5 63.5q0 32 -21 55t-59 45q-63 -27 -97 -53.5t-34 -66.5zM954 514q0 -44 54 -70q94 35 94 86q0 25 -17 39.5t-47 14.5q-37 0 -60.5 -21t-23.5 -49z" />
<glyph horiz-adv-x="1390" d="M117 1063l207 113h168l-127 -705h-177l99 526l-109 -55zM178 0l684 1176h189l-684 -1176h-189zM692 98l99 117q84 -70 155 -70q49 0 85 27t36 74q0 35 -21.5 55.5t-62.5 20.5q-57 0 -119 -41l-92 63l98 361h435l-25 -152h-285l-22 -94q31 8 67 8q101 0 154 -59t53 -148 q0 -110 -76 -191t-208 -81q-149 0 -271 110z" />
<glyph horiz-adv-x="829" d="M-59 -307l151 860h221l-53 -303l262 303h285l-371 -395l223 -465h-245l-131 301l-84 -88l-37 -213h-221z" />
<glyph horiz-adv-x="1390" d="M117 1063l205 113h167l-124 -705h-177l97 526l-109 -55zM176 0l684 1176h191l-684 -1176h-191zM686 0l14 76q7 43 26 82.5t41 67.5t56.5 58t59 47t63.5 42q50 29 71.5 42.5t51 35t40.5 37.5t11 32q0 43 -65 43q-69 0 -176 -61l-66 125q140 90 270 90q106 0 161.5 -52 t55.5 -128q0 -40 -17.5 -78.5t-40 -65.5t-60.5 -56t-62.5 -44.5t-62.5 -36.5q-67 -37 -94 -58.5t-33 -43.5h297l-25 -154h-516z" />
<glyph horiz-adv-x="1507" d="M127 1176h336l-6 -684l262 684h239l23 -684l233 684h355l-490 -1176h-288l-29 707l-270 -707h-289zM582 1276l45 258h241l-45 -258h-241zM913 1276l45 258h242l-45 -258h-242z" />
<glyph horiz-adv-x="1114" d="M6 0l207 1176h305l-74 -416l363 416h393l-512 -541l311 -635h-340l-182 414l-115 -123l-51 -291h-305zM236 -543l129 168h-97l45 262h224l-41 -290l-215 -218z" />
<glyph horiz-adv-x="1361" d="M117 1063l207 113h168l-127 -705h-177l97 526l-107 -55zM178 0l684 1176h189l-684 -1176h-189zM608 125l19 127l362 453h236l-78 -426h94l-24 -154h-97l-22 -125h-178l22 125h-334zM813 279h158l47 264z" />
<glyph horiz-adv-x="1374" d="M117 1063l207 113h168l-127 -705h-177l99 526l-109 -55zM178 0l684 1176h191l-684 -1176h-191zM690 258q0 120 56.5 224.5t162 169.5t236.5 65q38 0 71.5 -5.5t47.5 -11.5l14 -6l-66 -135q-26 8 -61 8q-80 0 -145.5 -39.5t-102.5 -109.5q59 39 129 39q91 0 144 -56 t53 -145q0 -110 -74.5 -189t-200.5 -79t-195 77.5t-69 192.5zM864 250q0 -49 23.5 -80t66.5 -31q47 0 73 32t26 75q0 34 -20.5 55t-63.5 21q-32 0 -60.5 -16.5t-44.5 -37.5v-18z" />
<glyph horiz-adv-x="1114" d="M6 0l207 1176h305l-74 -416l363 416h393l-512 -541l311 -635h-340l-182 414l-115 -123l-51 -291h-305z" />
<glyph horiz-adv-x="1507" d="M127 1176h336l-6 -684l262 684h239l23 -684l233 684h355l-490 -1176h-288l-29 707l-270 -707h-289zM569 1542h326l162 -287h-246z" />
<glyph horiz-adv-x="1372" d="M117 1063l205 113h167l-124 -705h-179l99 526l-109 -55zM178 0l684 1176h189l-684 -1176h-189zM676 98l92 111q106 -66 180 -66q50 0 79.5 21.5t29.5 54.5q0 76 -154 76h-22l24 151h31q56 0 103.5 19t47.5 55q0 19 -15.5 31t-43.5 12q-73 0 -170 -57l-59 123 q130 88 268 88q99 0 151 -44.5t52 -113.5q0 -111 -137 -176q47 -21 75.5 -63.5t28.5 -96.5q0 -41 -15.5 -80.5t-46 -75t-85.5 -57.5t-125 -22q-158 0 -289 110z" />
<glyph horiz-adv-x="425" d="M-4 727q90 31 115 56t34 85l140 781h221l-135 -768q-22 -121 -43 -163q-34 -71 -129 -114q-58 -27 -154 -53z" />
<glyph horiz-adv-x="425" d="M-197 -369q90 31 115.5 56.5t34.5 85.5l139 780h221l-135 -768q-22 -120 -42 -162q-34 -71 -126 -114q-59 -28 -157 -54z" />
<glyph horiz-adv-x="534" d="M-180 -84q66 23 102 40t58 40.5t29.5 46t15.5 66.5l188 1067h305l-184 -1049q-14 -80 -21.5 -116t-27 -89.5t-46 -79t-73.5 -59.5t-114 -58t-163 -49zM47 1255l236 287h290l132 -287h-199l-92 144l-140 -144h-227z" />
<glyph horiz-adv-x="534" d="M-180 -84q66 23 102 40t58 40.5t29.5 46t15.5 66.5l188 1067h305l-184 -1049q-14 -80 -21.5 -116t-27 -89.5t-46 -79t-73.5 -59.5t-114 -58t-163 -49z" />
<glyph horiz-adv-x="1077" d="M4 553h246l-6 -494l188 494h174l17 -498l168 498h258l-357 -860h-211l-18 510l-195 -510h-211z" />
<glyph horiz-adv-x="536" d="M6 0l207 1176h305l-207 -1176h-305zM59 1352q29 45 42 65t39 53t46 47.5t49.5 26.5t61.5 12q39 0 83 -24.5t80.5 -49t59.5 -24.5q44 0 107 98l123 -90q-23 -38 -34.5 -55.5t-33 -47t-37 -43.5t-38 -30.5t-46 -23t-51.5 -6.5q-38 0 -81.5 24.5t-79.5 49t-58 24.5 q-46 0 -109 -96z" />
<glyph horiz-adv-x="425" d="M133 788l152 861h221l-152 -861h-221z" />
<glyph horiz-adv-x="534" d="M-82 -242q0 137 201 242h-113l207 1176h305l-207 -1176h-8q-40 -28 -64.5 -47t-55.5 -47t-46.5 -56t-15.5 -55q0 -13 4 -23t12.5 -15.5t16.5 -9t21 -4.5t20 -1.5t20.5 0t15.5 0.5l-55 -148q-85 0 -123 8q-135 30 -135 156z" />
<glyph horiz-adv-x="1181" d="M66 672q0 216 138.5 360t360.5 144h252l-262 -1487h-240l111 630q-160 0 -260 90t-100 263zM647 -311l262 1487h242l-262 -1487h-242z" />
<glyph horiz-adv-x="532" d="M6 0l207 1176h305l-207 -1176h-305zM117 1307l35 192h532l-35 -192h-532z" />
<glyph horiz-adv-x="600" d="M19.5 6q-2.5 86 19.5 211l131 750q14 79 23.5 119t30 92t48 78.5t74.5 57.5t113.5 52.5t161.5 42.5l45 -176q-101 -41 -132 -77.5t-45 -117.5l-163 -917q-17 -81 -1.5 -123t91.5 -80l-84 -158q-167 43 -238.5 101.5t-74 144.5z" />
<glyph horiz-adv-x="1079" d="M199 1649h245l-6 -494l189 494h174l16 -498l168 498h258l-356 -861h-211l-19 510l-194 -510h-211z" />
<glyph horiz-adv-x="630" d="M131 1036q0 190 88.5 301t214.5 111q27 0 55.5 -5.5t48 -10.5t50.5 -18.5t41 -18.5t42 -22.5t34 -18.5l-99 -154q-84 55 -135 55q-54 0 -88.5 -57.5t-34.5 -136.5q0 -94 70 -94q41 0 145 49l64 -168q-167 -74 -267 -74q-102 0 -165.5 65t-63.5 197z" />
<glyph horiz-adv-x="425" d="M-59 -307l151 860h221l-151 -860h-221z" />
<glyph horiz-adv-x="602" d="M-76 -63q101 41 131.5 77t44.5 117l164 918q17 81 1.5 122.5t-91.5 79.5l84 158q167 -43 238.5 -101.5t74 -144.5t-19.5 -211l-131 -749q-14 -79 -23.5 -119.5t-30 -92t-48 -78t-74.5 -58t-113.5 -53t-161.5 -42.5z" />
<glyph horiz-adv-x="1415" d="M63 535q0 132 45 250.5t129 210t214.5 145t289.5 53.5q276 0 438 -152.5t162 -400.5q0 -133 -45 -251t-128.5 -209.5t-214 -145t-289.5 -53.5q-276 0 -438.5 152.5t-162.5 400.5zM133 535q0 -217 143.5 -353.5t391.5 -136.5q139 0 254.5 47t191 128.5t117 189.5t41.5 231 q0 217 -143 353t-392 136q-139 0 -254.5 -47t-191 -128t-117 -189t-41.5 -231zM373 508q-7 104 19.5 189.5t76.5 140t117 84.5t143 30q141 0 289 -112l-57 -56q-34 27 -57 42.5t-74 34t-103 18.5q-119 0 -196 -104.5t-68 -260.5q6 -101 51.5 -159t120.5 -58q127 0 266 90 l49 -61q-51 -31 -85 -48.5t-99 -37t-127 -19.5q-111 0 -185.5 76t-80.5 211z" />
<glyph horiz-adv-x="1804" d="M-184 -221q46 17 77.5 31.5t56.5 28t41 32t27 33t19 44.5t13 53t13 69l134 759h-117l45 246h117l4 25q37 204 119.5 298.5t232.5 94.5q148 0 338 -78l14 78h320l-92 -526q75 60 144.5 95.5t150.5 35.5q126 0 199 -96t73 -269q0 -107 -18.5 -214t-56.5 -204.5t-91 -172.5 t-127 -120t-160 -45q-47 0 -87.5 11t-74 33t-55.5 41.5t-49 48.5l-18 -111h-320l205 1165q-153 39 -229 39q-79 0 -95 -92l-6 -37h205l-45 -246h-205l-129 -733q-35 -195 -60 -263q-42 -111 -135 -175q-97 -67 -311 -125zM1071 362q28 -54 66.5 -84t81.5 -30 q60 0 106.5 71.5t68 167.5t21.5 189q0 70 -23.5 111.5t-72.5 41.5q-83 0 -189 -124z" />
<glyph horiz-adv-x="770" d="M-154 -307l318 434l-152 426h244l63 -264l154 264h264l-301 -422l164 -438h-248l-69 260l-160 -260h-277z" />
<glyph horiz-adv-x="534" d="M6 0l207 1176h305l-207 -1176h-305zM80 1542h326l161 -287h-245z" />
<glyph horiz-adv-x="1536" d="M94 815q0 52 11.5 104t37.5 102t63 88t92.5 61.5t121.5 23.5q77 0 139.5 -25.5t104 -84t41.5 -140.5q0 -67 -19.5 -131.5t-57 -121t-102.5 -91.5t-147 -35q-121 0 -203 64t-82 186zM285 0l729 1176h223l-731 -1176h-221zM305 817q0 -82 80 -82q29 0 52 23.5t35 58.5 t18 67.5t6 57.5q0 82 -80 82q-29 0 -52 -23.5t-35 -58.5t-18 -67.5t-6 -57.5zM821 231q0 52 11.5 104t37.5 102t63 88t92.5 61.5t121.5 23.5q121 0 203 -64t82 -186q0 -66 -19.5 -130.5t-57 -121t-102.5 -91.5t-147 -35q-77 0 -139.5 25.5t-104 83.5t-41.5 140zM1032 233 q0 -81 80 -81q38 0 64.5 41t36.5 85.5t10 79.5q0 82 -80 82q-29 0 -52 -23.5t-35 -58.5t-18 -67.5t-6 -57.5z" />
<glyph horiz-adv-x="1083" d="M-31 289q0 48 14 95.5t41.5 89t75 67.5t107.5 26q86 0 145.5 -47t59.5 -137q0 -48 -14 -95.5t-41.5 -89t-74.5 -67t-106 -25.5q-88 0 -147.5 46.5t-59.5 136.5zM109 -307l526 860h162l-529 -860h-159zM123 289q0 -58 55 -58q28 0 47.5 31t26 63t6.5 58q0 59 -55 59 q-27 0 -46.5 -30.5t-26.5 -63.5t-7 -59zM494 -139q0 48 14 95.5t41 89t74 67.5t106 26q88 0 147.5 -46.5t59.5 -135.5q0 -49 -14 -96.5t-41.5 -89.5t-75 -67.5t-107.5 -25.5q-88 0 -146 47t-58 136zM647 -137q0 -30 12.5 -45t42.5 -15q27 0 46.5 30.5t26.5 63.5t7 58 q0 59 -55 59q-28 0 -47.5 -30.5t-26 -62.5t-6.5 -58z" />
<glyph horiz-adv-x="1083" d="M164 1384q0 48 14 95.5t41 89.5t74.5 68t107.5 26q86 0 145.5 -47t59.5 -137q0 -48 -14 -95.5t-41 -89t-74 -67t-106 -25.5q-89 0 -148 46t-59 136zM303 788l526 861h162l-528 -861h-160zM317 1384q0 -57 56 -57q28 0 47.5 31t26 63t6.5 58q0 59 -56 59 q-27 0 -46.5 -30.5t-26.5 -64t-7 -59.5zM688 956q0 48 14 95.5t41.5 89.5t74.5 68t106 26q88 0 147 -46.5t59 -135.5q0 -49 -14 -96.5t-41 -89.5t-74.5 -67.5t-107.5 -25.5q-88 0 -146.5 46.5t-58.5 135.5zM842 958q0 -30 12.5 -44.5t42.5 -14.5q27 0 46.5 30.5t26.5 63.5 t7 58q0 59 -55 59q-28 0 -47.5 -31t-26 -63t-6.5 -58z" />
<glyph horiz-adv-x="534" d="M6 0l207 1176h305l-207 -1176h-305zM98 1276l45 258h242l-45 -258h-242zM430 1276l45 258h242l-45 -258h-242z" />
<glyph horiz-adv-x="534" d="M6 0l207 1176h305l-207 -1176h-305zM43 1255l236 287h290l131 -287h-198l-92 144l-140 -144h-227z" />
<glyph horiz-adv-x="395" d="M125 788l43 238h209l-41 -238h-211zM186 1153l43 238h209l-41 -238h-211z" />
<glyph horiz-adv-x="641" d="M156 1145q0 190 88 299.5t213 109.5q29 0 41 -2l37 97h81l-43 -113l25 -8l45 121h84l-57 -154l69 -37l-98 -151q-98 55 -143 55q-56 0 -91.5 -57.5t-35.5 -135.5q0 -96 71 -96q43 0 156 51l61 -170q-117 -53 -217 -67l-36 -99h-84l34 95l-24 4l-37 -99h-82l47 125 q-104 61 -104 232z" />
<glyph horiz-adv-x="641" d="M-37 49q0 190 88 300t213 110q29 0 41 -2l37 96h82l-43 -113l25 -8l45 121h84l-58 -154l70 -37l-98 -151q-98 55 -144 55q-56 0 -91.5 -57t-35.5 -135q0 -97 72 -97q41 0 156 52l61 -170q-120 -54 -217 -68l-37 -98h-84l35 94l-25 4l-37 -98h-82l48 125q-105 62 -105 231 z" />
<glyph horiz-adv-x="2199" d="M94 815q0 66 19.5 130.5t58 121.5t103.5 92t147 35q77 0 139.5 -25.5t104 -84t41.5 -140.5q0 -67 -19.5 -131.5t-57 -121t-102.5 -91.5t-147 -35q-122 0 -204.5 64t-82.5 186zM287 0l729 1176h221l-729 -1176h-221zM305 817q0 -82 80 -82q29 0 52.5 23.5t36 58.5 t18.5 67.5t6 57.5q0 82 -82 82q-29 0 -52 -23.5t-35 -58.5t-18 -67.5t-6 -57.5zM821 231q0 66 19.5 130.5t58 121.5t103.5 92t147 35q77 0 139.5 -25.5t104 -84t41.5 -140.5q0 -66 -19.5 -130.5t-57 -121t-102.5 -91.5t-147 -35q-122 0 -204.5 63.5t-82.5 185.5zM1032 233 q0 -81 82 -81q38 0 64.5 41t36.5 85.5t10 79.5q0 82 -80 82q-30 0 -53.5 -23.5t-35.5 -58.5t-18 -67.5t-6 -57.5zM1481 231q0 66 19.5 130.5t57.5 121.5t103 92t147 35q77 0 139.5 -25.5t104 -84t41.5 -140.5q0 -66 -19.5 -130.5t-57 -121t-102.5 -91.5t-147 -35 q-122 0 -204 63.5t-82 185.5zM1692 233q0 -81 80 -81q29 0 52 23.5t35 58.5t17.5 67t5.5 57q0 82 -80 82q-29 0 -52 -23.5t-35 -58.5t-17.5 -67.5t-5.5 -57.5z" />
<glyph horiz-adv-x="899" d="M68 477q0 113 23.5 208.5t63.5 161.5t93 112.5t112 68t121 21.5q12 0 62 -5l49 132h115l-58 -154l33 -12l63 166h113l-80 -209q19 -9 50.5 -26t43.5 -23l-133 -211q-136 79 -196 79q-53 0 -94.5 -44t-61.5 -106t-20 -126q0 -119 96 -119q61 0 215 70l86 -234 q-198 -80 -299 -94l-51 -133h-115l49 131q-15 0 -35 4l-51 -135h-115l64 172q-143 83 -143 305z" />
<glyph horiz-adv-x="1130" d="M29 0l129 739h-37l14 84h37l64 353h403q438 0 438 -336v-17h37l-16 -84h-31q-15 -72 -51.5 -133.5t-95 -111t-147 -77.5t-198.5 -28h-174l-67 -389h-305zM449 651h116q133 0 180 88h-282zM477 823h287q-4 48 -41.5 68t-106.5 20h-122z" />
<glyph horiz-adv-x="808" d="M-57 -307l94 536h-29l12 68h29l45 256h297q167 0 240.5 -66t73.5 -178v-12h22l-12 -68h-19q-24 -113 -113.5 -181t-238.5 -68h-127l-53 -287h-221zM248 168h86q93 0 129 61h-205zM270 297h207q-4 35 -31 49t-77 14h-86z" />
<glyph horiz-adv-x="808" d="M135 788l94 537h-26l10 68h29l45 256h297q313 0 313 -244v-12h25l-13 -68h-20q-25 -113 -114 -181.5t-238 -68.5h-127l-54 -287h-221zM440 1264h86q93 0 129 61h-204zM463 1393h207q-4 35 -31.5 49t-77.5 14h-86z" />
<glyph horiz-adv-x="395" d="M-68 -307l43 237h209l-41 -237h-211zM-6 57l43 238h209l-41 -238h-211z" />
</font>
</defs>
</svg>
