<?xml version="1.0" standalone="no"?>
<!DOCTYPE svg PUBLIC "-//W3C//DTD SVG 1.1//EN" "http://www.w3.org/Graphics/SVG/1.1/DTD/svg11.dtd" >
<svg xmlns="http://www.w3.org/2000/svg">
<metadata></metadata>
<defs>
<font id="verbexcondlight_italic" horiz-adv-x="1028" >
<font-face units-per-em="2048" ascent="1638" descent="-410" />
<missing-glyph horiz-adv-x="454" />
<glyph unicode="ff" horiz-adv-x="1204" d="M-168 -322q40 14 68.5 25.5t53 26.5t40 26.5t29.5 33.5t21 37.5t15.5 49.5t13.5 59.5t13 75.5l168 961h-119l21 102h116l33 180q22 126 71.5 182t141.5 56q58 0 133.5 -23t124.5 -47l-59 -90q-35 14 -95.5 30.5t-91.5 16.5q-78 0 -100 -123l-33 -182h238l-19 -102h-237 l-166 -957q-32 -179 -55 -236q-32 -82 -107 -128q-62 -38 -192 -78zM434 -322q40 14 68.5 25.5t53 26.5t40 26.5t29.5 33.5t21 37.5t15.5 49.5t13.5 59.5t13 75.5l168 961h-119l21 102h116l33 180q22 126 71.5 182t141.5 56q58 0 133.5 -23t124.5 -47l-59 -90 q-35 14 -95 30.5t-91 16.5q-79 0 -101 -123l-33 -182h238l-18 -102h-238l-166 -957q-32 -179 -55 -236q-32 -82 -107 -128q-62 -38 -192 -78z" />
<glyph unicode="fi" horiz-adv-x="1032" d="M-168 -322q40 14 68.5 25.5t53 26.5t40 26.5t29.5 33.5t21 37.5t15.5 49.5t13.5 59.5t13 75.5l168 961h-119l21 102h116l33 180q23 126 71 182t134 56t217 -55l-53 -92q-94 34 -144 34q-78 0 -100 -123l-33 -182h238l-19 -102h-237l-166 -957q-31 -178 -53 -235 q-33 -83 -109 -129q-61 -38 -192 -78zM645 0l191 1075h122l-188 -1075h-125zM868 1309l33 178h139l-32 -178h-140z" />
<glyph unicode="fl" horiz-adv-x="1050" d="M-168 -322q40 14 68.5 25.5t53 26.5t40 26.5t29.5 33.5t21 37.5t15.5 49.5t13.5 59.5t13 75.5l168 961h-119l21 102h116l33 180q23 126 71 182t134 56t217 -55l-53 -92q-94 34 -144 34q-78 0 -100 -123l-33 -182h238l-19 -102h-237l-166 -957q-31 -178 -53 -235 q-33 -83 -109 -129q-61 -38 -192 -78zM655 0l265 1493h122l-264 -1493h-123z" />
<glyph unicode="ffi" horiz-adv-x="1634" d="M-168 -322q40 14 68.5 25.5t53 26.5t40 26.5t29.5 33.5t21 37.5t15.5 49.5t13.5 59.5t13 75.5l168 961h-119l21 102h116l33 180q22 126 71.5 182t141.5 56q58 0 133.5 -23t124.5 -47l-59 -90q-35 14 -95.5 30.5t-91.5 16.5q-78 0 -100 -123l-33 -182h238l-19 -102h-237 l-166 -957q-32 -179 -55 -236q-32 -82 -107 -128q-62 -38 -192 -78zM434 -322q40 14 68.5 25.5t53 26.5t40 26.5t29.5 33.5t21 37.5t15.5 49.5t13.5 59.5t13 75.5l168 961h-119l21 102h116l33 180q23 126 71 182t134 56t217 -55l-53 -92q-94 34 -143 34q-79 0 -101 -123 l-33 -182h238l-18 -102h-238l-166 -957q-31 -178 -53 -235q-33 -83 -109 -129q-61 -38 -192 -78zM1247 0l191 1075h123l-189 -1075h-125zM1470 1309l33 178h139l-32 -178h-140z" />
<glyph unicode="ffl" horiz-adv-x="1652" d="M-168 -322q40 14 68.5 25.5t53 26.5t40 26.5t29.5 33.5t21 37.5t15.5 49.5t13.5 59.5t13 75.5l168 961h-119l21 102h116l33 180q22 126 71.5 182t141.5 56q58 0 133.5 -23t124.5 -47l-59 -90q-35 14 -95.5 30.5t-91.5 16.5q-78 0 -100 -123l-33 -182h238l-19 -102h-237 l-166 -957q-32 -179 -55 -236q-32 -82 -107 -128q-62 -38 -192 -78zM434 -322q40 14 68.5 25.5t53 26.5t40 26.5t29.5 33.5t21 37.5t15.5 49.5t13.5 59.5t13 75.5l168 961h-119l21 102h116l33 180q23 126 71 182t134 56t217 -55l-53 -92q-94 34 -143 34q-79 0 -101 -123 l-33 -182h238l-18 -102h-238l-166 -957q-31 -178 -53 -235q-33 -83 -109 -129q-61 -38 -192 -78zM1257 0l265 1493h123l-265 -1493h-123z" />
<glyph unicode="ffb" horiz-adv-x="2230" d="M-168 -322q40 14 68.5 25.5t53 26.5t40 26.5t29.5 33.5t21 37.5t15.5 49.5t13.5 59.5t13 75.5l168 961h-119l21 102h116l33 180q22 126 71.5 182t141.5 56q58 0 133.5 -23t124.5 -47l-59 -90q-35 14 -95.5 30.5t-91.5 16.5q-78 0 -100 -123l-33 -182h238l-19 -102h-237 l-166 -957q-32 -179 -55 -236q-32 -82 -107 -128q-62 -38 -192 -78zM434 -322q40 14 68.5 25.5t53 26.5t40 26.5t29.5 33.5t21 37.5t15.5 49.5t13.5 59.5t13 75.5l168 961h-119l21 102h116l33 180q23 126 71 182t134 56t217 -55l-53 -92q-94 34 -143 34q-79 0 -101 -123 l-33 -182h238l-18 -102h-238l-166 -957q-31 -178 -53 -235q-33 -83 -109 -129q-61 -38 -192 -78zM1247 0l264 1493h123l-100 -565q170 170 321 170q55 0 102.5 -20t86.5 -60t61.5 -109.5t22.5 -160.5q0 -208 -52 -383t-150 -281.5t-222 -106.5q-51 0 -97.5 16t-85.5 45.5 t-65 55.5t-57 62l-27 -156h-125zM1419 270q128 -182 267 -182q92 0 165.5 99.5t110.5 245t37 298.5q0 122 -43.5 189t-132.5 67q-79 0 -152.5 -48t-157.5 -134z" />
<glyph unicode="ffh" horiz-adv-x="2232" d="M-168 -322q40 14 68.5 25.5t53 26.5t40 26.5t29.5 33.5t21 37.5t15.5 49.5t13.5 59.5t13 75.5l168 961h-119l21 102h116l33 180q22 126 71.5 182t141.5 56q58 0 133.5 -23t124.5 -47l-59 -90q-35 14 -95.5 30.5t-91.5 16.5q-78 0 -100 -123l-33 -182h238l-19 -102h-237 l-166 -957q-32 -179 -55 -236q-32 -82 -107 -128q-62 -38 -192 -78zM434 -322q40 14 68.5 25.5t53 26.5t40 26.5t29.5 33.5t21 37.5t15.5 49.5t13.5 59.5t13 75.5l168 961h-119l21 102h116l33 180q23 126 71 182t134 56t217 -55l-53 -92q-94 34 -143 34q-79 0 -101 -123 l-33 -182h238l-18 -102h-238l-166 -957q-31 -178 -53 -235q-33 -83 -109 -129q-61 -38 -192 -78zM1247 0l264 1493h123l-100 -571q218 176 385 176q125 0 174 -86t23 -230l-138 -782h-125l136 768q43 221 -111 221q-87 0 -191 -61t-176 -129l-139 -799h-125z" />
<glyph unicode="fb" horiz-adv-x="1630" d="M-168 -322q40 14 68.5 25.5t53 26.5t40 26.5t29.5 33.5t21 37.5t15.5 49.5t13.5 59.5t13 75.5l168 961h-119l21 102h116l33 180q23 126 71 182t134 56t217 -55l-53 -92q-94 34 -144 34q-78 0 -100 -123l-33 -182h238l-19 -102h-237l-166 -957q-31 -178 -53 -235 q-33 -83 -109 -129q-61 -38 -192 -78zM645 0l264 1493h123l-100 -565q170 170 321 170q55 0 102.5 -20t86.5 -60t61.5 -109.5t22.5 -160.5q0 -208 -52 -383t-150 -281.5t-222 -106.5q-51 0 -97.5 16t-85.5 45.5t-65 55.5t-57 62l-27 -156h-125zM817 270q128 -182 266 -182 q92 0 166 99.5t111 245t37 298.5q0 122 -43.5 189t-132.5 67q-79 0 -152.5 -48t-157.5 -134z" />
<glyph unicode="ffj" horiz-adv-x="1638" d="M-168 -322q40 14 68.5 25.5t53 26.5t40 26.5t29.5 33.5t21 37.5t15.5 49.5t13.5 59.5t13 75.5l168 961h-119l21 102h116l33 180q22 126 71.5 182t141.5 56q58 0 133.5 -23t124.5 -47l-59 -90q-35 14 -95.5 30.5t-91.5 16.5q-78 0 -100 -123l-33 -182h238l-19 -102h-237 l-166 -957q-32 -179 -55 -236q-32 -82 -107 -128q-62 -38 -192 -78zM434 -322q40 14 68.5 25.5t53 26.5t40 26.5t29.5 33.5t21 37.5t15.5 49.5t13.5 59.5t13 75.5l168 961h-119l21 102h116l33 180q23 126 71 182t134 56t217 -55l-53 -92q-94 34 -143 34q-79 0 -101 -123 l-33 -182h238l-18 -102h-238l-166 -957q-31 -178 -53 -235q-33 -83 -109 -129q-61 -38 -192 -78zM995 -322q53 19 88 34t61 34t40 33t24.5 41.5t15 48.5t11.5 63l203 1143h125l-203 -1138q-24 -133 -44 -179q-33 -72 -118 -117q-62 -33 -178 -67zM1470 1309l33 178h139 l-32 -178h-140z" />
<glyph unicode="ffk" horiz-adv-x="2084" d="M-168 -322q40 14 68.5 25.5t53 26.5t40 26.5t29.5 33.5t21 37.5t15.5 49.5t13.5 59.5t13 75.5l168 961h-119l21 102h116l33 180q22 126 71.5 182t141.5 56q58 0 133.5 -23t124.5 -47l-59 -90q-35 14 -95.5 30.5t-91.5 16.5q-78 0 -100 -123l-33 -182h238l-19 -102h-237 l-166 -957q-32 -179 -55 -236q-32 -82 -107 -128q-62 -38 -192 -78zM434 -322q40 14 68.5 25.5t53 26.5t40 26.5t29.5 33.5t21 37.5t15.5 49.5t13.5 59.5t13 75.5l168 961h-119l21 102h116l33 180q23 126 71 182t134 56t217 -55l-53 -92q-94 34 -143 34q-79 0 -101 -123 l-33 -182h238l-18 -102h-238l-166 -957q-31 -178 -53 -235q-33 -83 -109 -129q-61 -38 -192 -78zM1247 0l264 1493h123l-174 -993l471 575h152l-381 -442l242 -633h-127l-199 537l-191 -222l-55 -315h-125z" />
<glyph unicode="fft" horiz-adv-x="1839" d="M-168 -322q40 14 68.5 25.5t53 26.5t40 26.5t29.5 33.5t21 37.5t15.5 49.5t13.5 59.5t13 75.5l168 961h-119l21 102h116l33 180q22 126 71.5 182t141.5 56q58 0 133.5 -23t124.5 -47l-59 -90q-35 14 -95.5 30.5t-91.5 16.5q-78 0 -100 -123l-33 -182h238l-19 -102h-237 l-166 -957q-32 -179 -55 -236q-32 -82 -107 -128q-62 -38 -192 -78zM434 -322q40 14 68.5 25.5t53 26.5t40 26.5t29.5 33.5t21 37.5t15.5 49.5t13.5 59.5t13 75.5l168 961h-119l21 102h116l33 180q22 126 71.5 182t141.5 56q58 0 133.5 -23t124.5 -47l-59 -90 q-35 14 -95 30.5t-91 16.5q-79 0 -101 -123l-33 -182h238l-18 -102h-238l-166 -957q-32 -179 -55 -236q-32 -82 -107 -128q-62 -38 -192 -78zM1321 229l131 744h-123l19 102h122l50 271l131 40l-56 -311h240l-18 -102h-240l-135 -762q-21 -121 59 -121q46 0 176 60l35 -103 q-159 -70 -239 -70q-85 0 -130.5 58t-21.5 194z" />
<glyph unicode="fh" horiz-adv-x="1630" d="M-168 -322q40 14 68.5 25.5t53 26.5t40 26.5t29.5 33.5t21 37.5t15.5 49.5t13.5 59.5t13 75.5l168 961h-119l21 102h116l33 180q23 126 71 182t134 56t217 -55l-53 -92q-94 34 -144 34q-78 0 -100 -123l-33 -182h238l-19 -102h-237l-166 -957q-31 -178 -53 -235 q-33 -83 -109 -129q-61 -38 -192 -78zM645 0l264 1493h123l-100 -571q218 176 385 176q125 0 173.5 -86t22.5 -230l-137 -782h-125l135 768q43 221 -110 221q-87 0 -191 -61t-176 -129l-139 -799h-125z" />
<glyph unicode="fj" horiz-adv-x="1036" d="M-168 -322q40 14 68.5 25.5t53 26.5t40 26.5t29.5 33.5t21 37.5t15.5 49.5t13.5 59.5t13 75.5l168 961h-119l21 102h116l33 180q23 126 71 182t134 56t217 -55l-53 -92q-94 34 -144 34q-78 0 -100 -123l-33 -182h238l-19 -102h-237l-166 -957q-31 -178 -53 -235 q-33 -83 -109 -129q-61 -38 -192 -78zM393 -322q53 19 88 34t61 34t40 33t24.5 41.5t15 48.5t11.5 63l203 1143h125l-203 -1138q-24 -133 -44 -179q-33 -72 -118 -117q-62 -33 -178 -67zM868 1309l33 178h139l-32 -178h-140z" />
<glyph unicode="fk" horiz-adv-x="1482" d="M-168 -322q40 14 68.5 25.5t53 26.5t40 26.5t29.5 33.5t21 37.5t15.5 49.5t13.5 59.5t13 75.5l168 961h-119l21 102h116l33 180q23 126 71 182t134 56t217 -55l-53 -92q-94 34 -144 34q-78 0 -100 -123l-33 -182h238l-19 -102h-237l-166 -957q-31 -178 -53 -235 q-33 -83 -109 -129q-61 -38 -192 -78zM645 0l264 1493h123l-174 -993l471 575h152l-381 -442l241 -633h-127l-198 537l-191 -222l-55 -315h-125z" />
<glyph unicode="ft" horiz-adv-x="1236" d="M-168 -322q40 14 68.5 25.5t53 26.5t40 26.5t29.5 33.5t21 37.5t15.5 49.5t13.5 59.5t13 75.5l168 961h-119l21 102h116l33 180q22 126 71.5 182t141.5 56q58 0 133.5 -23t124.5 -47l-59 -90q-35 14 -95.5 30.5t-91.5 16.5q-78 0 -100 -123l-33 -182h238l-19 -102h-237 l-166 -957q-32 -179 -55 -236q-32 -82 -107 -128q-62 -38 -192 -78zM719 229l131 744h-123l18 102h123l50 271l131 40l-56 -311h240l-19 -102h-239l-135 -762q-21 -121 59 -121q46 0 176 60l35 -103q-159 -70 -240 -70q-85 0 -130 58t-21 194z" />
<glyph unicode=" "  horiz-adv-x="454" />
<glyph unicode="&#x09;" horiz-adv-x="454" />
<glyph unicode="&#xa0;" horiz-adv-x="454" />
<glyph unicode="!" horiz-adv-x="493" d="M66 0l36 211h148l-37 -211h-147zM172 418l143 1016h150l-215 -1016h-78z" />
<glyph unicode="&#x22;" horiz-adv-x="708" d="M207 911l67 523h136l-117 -523h-86zM516 911l68 523h135l-117 -523h-86z" />
<glyph unicode="#" horiz-adv-x="1271" d="M53 381l19 106h239l140 457h-226l19 107h237l117 383h109l-117 -383h328l116 383h105l-117 -383h231l-18 -107h-246l-137 -457h231l-18 -106h-246l-114 -381h-105l115 381h-328l-115 -381h-106l115 381h-228zM420 487h328l137 457h-328z" />
<glyph unicode="$" horiz-adv-x="1056" d="M23 143l79 99q151 -112 285 -140l107 594q-55 32 -90.5 55t-77 58.5t-64.5 71t-39 85t-16 107.5q0 173 120 278t298 105h4l33 184h98l-35 -192q145 -24 309 -123l-78 -96q-127 79 -251 102l-97 -547q58 -34 94 -58t80.5 -63t70 -77t43 -91.5t17.5 -115.5 q0 -123 -64 -216.5t-163 -139.5t-215 -46h-6l-33 -182h-98l33 193q-176 31 -344 155zM342 1077q0 -82 40.5 -131t135.5 -108l90 501q-112 -5 -189 -74t-77 -188zM485 94q124 3 209.5 79t85.5 198q0 47 -14 87t-43.5 73t-61.5 58t-79 54z" />
<glyph unicode="%" horiz-adv-x="1673" d="M160 987q0 84 21.5 166t62.5 150.5t107 110.5t147 42q127 0 202.5 -76t75.5 -223q0 -84 -21.5 -166t-62 -150.5t-106.5 -110.5t-148 -42q-125 0 -201.5 76t-76.5 223zM268 981q0 -201 172 -201q56 0 102 38.5t73 97.5t41 123.5t14 123.5q0 201 -174 201q-56 0 -101.5 -38 t-72 -97.5t-40.5 -124t-14 -123.5zM365 0l864 1434h112l-862 -1434h-114zM932 276q0 84 22 166t63 150.5t107.5 110.5t147.5 42q125 0 201.5 -76t76.5 -223q0 -85 -21.5 -166.5t-62 -150t-107.5 -110.5t-149 -42q-125 0 -201.5 76t-76.5 223zM1042 270q0 -102 42.5 -151 t129.5 -49q56 0 101.5 38t72 97.5t40.5 124t14 123.5q0 200 -172 200q-56 0 -101.5 -38t-72 -97.5t-40.5 -124t-14 -123.5z" />
<glyph unicode="&#x26;" horiz-adv-x="1183" d="M90 293q0 67 19 129t47.5 109t75 96.5t86.5 83.5t98 77q-49 84 -74 155.5t-25 156.5q0 89 28 159.5t74.5 112t101.5 63t114 21.5q106 0 179 -65.5t73 -186.5q0 -68 -24.5 -129t-76 -118.5t-96 -96t-119.5 -96.5l244 -383q102 164 164 375h129q-76 -276 -225 -482 l176 -274h-144l-112 176q-185 -199 -400 -199q-143 0 -228 82.5t-85 233.5zM215 303q0 -40 10 -76.5t31.5 -69t62 -52t95.5 -19.5q170 0 325 190l-264 414q-59 -47 -100.5 -85.5t-80.5 -87t-59 -102.5t-20 -112zM438 1102q0 -124 74 -244q61 44 99.5 77t78.5 76.5t59 90.5 t19 98q0 67 -35.5 108.5t-103.5 41.5q-90 0 -140.5 -70.5t-50.5 -177.5z" />
<glyph unicode="'" horiz-adv-x="399" d="M207 911l67 523h136l-117 -523h-86z" />
<glyph unicode="(" horiz-adv-x="546" d="M52.5 -98q-3.5 62 13.5 153l235 1317q10 55 17.5 86t22.5 68t36 59t56.5 47t85 45t120.5 41l25 -98q-73 -27 -113.5 -48t-66 -52t-36 -61.5t-20.5 -88.5l-233 -1315q-9 -50 -12.5 -73.5t-2 -51.5t8.5 -40t27 -29.5t44.5 -29t69.5 -30.5l-43 -94q-125 42 -178 87.5 t-56.5 107.5z" />
<glyph unicode=")" horiz-adv-x="544" d="M-82 -195q73 27 113.5 48t66 52t36 61.5t20.5 88.5l233 1315q9 50 12.5 73.5t2 51.5t-8.5 40t-27 29.5t-44.5 29t-69.5 30.5l43 94q125 -42 178 -87.5t56.5 -107.5t-13.5 -153l-235 -1317q-10 -55 -17.5 -86t-22.5 -68t-36 -59t-56.5 -47t-85 -45t-120.5 -41z" />
<glyph unicode="*" horiz-adv-x="915" d="M184 1010l295 77l-248 177l74 88l211 -222l23 304l114 -21l-80 -291l273 135l37 -112l-291 -78l248 -174l-76 -90l-209 217l-25 -301l-112 18l82 295l-275 -133z" />
<glyph unicode="+" horiz-adv-x="1048" d="M111 629l20 106h358l68 377h107l-68 -377h367l-21 -106h-364l-66 -375h-106l65 375h-360z" />
<glyph unicode="," horiz-adv-x="440" d="M-8 -207l114 207h-67l39 217h145l-20 -225l-174 -246z" />
<glyph unicode="-" horiz-adv-x="755" d="M129 526l21 115h464l-20 -115h-465z" />
<glyph unicode="." horiz-adv-x="436" d="M39 0l39 217h147l-39 -217h-147z" />
<glyph unicode="/" horiz-adv-x="776" d="M-82 -184l868 1802h111l-870 -1802h-109z" />
<glyph unicode="0" horiz-adv-x="1142" d="M127 430q0 64 8.5 145t29 180t50.5 196t76.5 189t103 161.5t134.5 112t167 42.5q355 0 355 -452q0 -64 -8.5 -145t-29 -180.5t-50.5 -196t-76.5 -189t-102.5 -162t-134 -112t-167 -42.5q-356 0 -356 453zM258 426q0 -57 4.5 -101t18.5 -90t38 -76.5t65 -49.5t97 -19 q94 0 172.5 77.5t126.5 190t81.5 244.5t47 236t13.5 170q0 56 -4.5 100.5t-19 90.5t-38 76t-65 49t-97.5 19q-94 0 -172.5 -77.5t-126.5 -189.5t-81.5 -244.5t-46.5 -236t-13 -169.5z" />
<glyph unicode="1" horiz-adv-x="636" d="M162 1253l309 181h117l-254 -1434h-129l227 1284l-221 -129z" />
<glyph unicode="2" horiz-adv-x="993" d="M-4 0l18 104q15 86 47 161t64.5 124.5t95 108.5t101 89.5t119.5 89.5q10 8 16 12t14.5 10.5t15.5 11.5q64 47 108 81.5t92.5 80.5t77 86.5t47.5 89.5t19 98q2 85 -50.5 138.5t-153.5 53.5q-85 0 -172 -36t-148 -80l-51 96q187 137 381 137q150 0 238 -78.5t88 -222.5 q0 -42 -9 -83t-21.5 -75t-37 -71.5t-45 -65t-56.5 -62.5t-60 -57t-67 -55.5t-67 -50.5t-69.5 -50.5t-65.5 -47.5q-139 -102 -208.5 -193t-94.5 -227h624l-20 -117h-770z" />
<glyph unicode="3" horiz-adv-x="1013" d="M-2 119l78 92q87 -62 149 -87q78 -30 158 -30q151 0 248.5 97t97.5 241q0 73 -27.5 131.5t-74.5 93.5t-105 53.5t-123 18.5h-45l23 119h53q87 0 172.5 42.5t142 117.5t56.5 159q0 79 -53 125.5t-142 46.5q-79 0 -160 -32.5t-141 -75.5l-45 96q21 15 51.5 33t80 41.5 t113 39t124.5 15.5q143 0 223 -76.5t80 -195.5q0 -117 -79.5 -227t-234.5 -171q104 -29 173 -125.5t69 -228.5q0 -88 -31.5 -169t-89.5 -145t-150 -102.5t-204 -38.5q-212 0 -387 142z" />
<glyph unicode="4" horiz-adv-x="1060" d="M23 330l18 106l737 998h170l-176 -988h180l-20 -116h-180l-58 -330h-127l58 330h-602zM178 446h467l150 836z" />
<glyph unicode="5" horiz-adv-x="1001" d="M18 127l74 92q94 -76 171 -103q57 -20 112 -20q63 0 125.5 27.5t114.5 77.5t84 130t32 175q0 127 -60 203.5t-171 76.5q-50 0 -106 -19t-83 -34t-69 -41l-70 37l186 705h623l-20 -117h-515l-112 -467q100 51 203 51q153 0 240 -110t87 -281q0 -107 -34.5 -204t-96 -170 t-153 -116t-199.5 -43q-65 0 -123.5 14.5t-105.5 41t-74.5 46.5t-59.5 48z" />
<glyph unicode="6" horiz-adv-x="1067" d="M113 446q0 265 99.5 497.5t272 372.5t373.5 140q44 0 86.5 -8t63.5 -16l20 -7l-53 -102q-47 18 -117 18q-129 0 -247.5 -82t-202.5 -217t-129 -301q143 172 331 172q80 0 144 -33t103.5 -87.5t60 -122t20.5 -140.5q0 -103 -31 -201.5t-87.5 -177t-144 -126.5t-192.5 -48 q-92 0 -165 40.5t-116.5 108t-66 149.5t-22.5 171zM240 449q0 -92 25 -171t82 -132.5t136 -53.5q97 0 172.5 63.5t113.5 161.5t38 209q0 71 -22 131.5t-74 103t-127 42.5q-109 0 -206 -79t-132 -161q-6 -59 -6 -114z" />
<glyph unicode="7" horiz-adv-x="858" d="M129 0q23 127 69 266t96.5 253t119 240t116.5 205.5t111 171.5t82 117.5t47 63.5h-588l19 117h747l-18 -101q-11 -14 -31 -39t-79 -106.5t-114.5 -166.5t-127 -211.5t-128.5 -249.5t-107.5 -272.5t-74.5 -287.5h-139z" />
<glyph unicode="8" horiz-adv-x="1085" d="M66 313q0 63 16.5 119.5t47.5 101.5t66.5 81.5t82 67t85.5 51.5t85 42q-177 114 -177 303q0 166 117.5 271.5t288.5 105.5q150 0 235.5 -84t85.5 -213q0 -249 -311 -393q48 -29 85.5 -59t76 -74.5t59.5 -104t21 -129.5q0 -94 -40 -174t-107 -133.5t-156 -84t-187 -30.5 q-169 0 -271.5 88t-102.5 248zM199 319q0 -113 67 -171t178 -58q142 0 247.5 87t105.5 226q0 56 -19.5 105t-56 87t-73 64.5t-85.5 53.5q-62 -28 -106.5 -52t-96.5 -61t-84.5 -75.5t-54.5 -92t-22 -113.5zM399 1075q0 -150 172 -248q301 122 301 322q0 86 -53.5 141.5 t-146.5 55.5q-113 0 -193 -80.5t-80 -190.5z" />
<glyph unicode="9" horiz-adv-x="1067" d="M74 8l53 103q49 -19 117 -19q128 0 246 81.5t202.5 216t128.5 300.5q-141 -170 -327 -170q-81 0 -145.5 33t-104 87.5t-60 122t-20.5 140.5q0 103 31.5 201.5t88 177t144.5 126.5t193 48q92 0 165 -40.5t116.5 -108t66 -149.5t22.5 -171q0 -265 -100 -497.5t-273 -372.5 t-374 -140q-44 0 -86.5 7.5t-63.5 15.5zM295 907q0 -52 13 -99.5t39 -88t70.5 -64.5t102.5 -24q108 0 204.5 78.5t131.5 160.5q6 56 6 115q0 92 -25 170.5t-82 132t-137 53.5q-97 0 -172 -63.5t-113 -161.5t-38 -209z" />
<glyph unicode=":" horiz-adv-x="442" d="M39 0l39 217h147l-39 -217h-147zM166 715l39 217h147l-39 -217h-147z" />
<glyph unicode=";" horiz-adv-x="464" d="M0 -207l115 207h-68l39 217h145l-20 -225l-174 -246zM174 715l39 217h147l-38 -217h-148z" />
<glyph unicode="&#x3c;" horiz-adv-x="1048" d="M86 631l18 104l906 432l-25 -139l-762 -352l637 -350l-20 -127z" />
<glyph unicode="=" horiz-adv-x="1048" d="M78 449l18 108h830l-19 -108h-829zM141 813l21 107h829l-20 -107h-830z" />
<glyph unicode="&#x3e;" horiz-adv-x="1048" d="M61 201l25 139l762 352l-637 350l20 127l754 -432l-18 -104z" />
<glyph unicode="?" horiz-adv-x="860" d="M176 0l37 211h147l-36 -211h-148zM188 1319q197 137 373 137q130 0 217.5 -71.5t87.5 -210.5q0 -87 -37 -162t-101.5 -129.5t-137.5 -93.5t-158 -66l-63 -305h-93l54 383q82 25 150 56t128.5 74.5t94.5 102.5t34 127q0 88 -53 133t-137 45q-76 0 -147 -30t-156 -84z" />
<glyph unicode="@" horiz-adv-x="1673" d="M84 344q0 130 28 259.5t80 247.5t131 219.5t176 175.5t220.5 116.5t259.5 42.5q111 0 203 -29t158 -83.5t114 -131t70 -172t26.5 -206.5t-16.5 -234q-20 -121 -53.5 -222.5t-83.5 -186.5t-121 -133t-156 -48q-58 0 -96.5 24t-52 60t-19 78t1.5 78q-150 -150 -299 -150 q-85 0 -145.5 65t-60.5 181q0 167 90 264.5t217 97.5q44 0 93.5 -10t110 -28t64.5 -19l23 123q19 110 -6 161.5t-115 51.5q-99 0 -279 -86l-35 92q83 41 172.5 65.5t157.5 24.5q123 0 180 -72t29 -225l-76 -438q-22 -127 -12 -177q14 -73 82 -73q37 0 79.5 28.5t86.5 84.5 t81.5 157.5t57.5 231.5q18 127 17 241.5t-34 211.5t-90 168t-152 111t-218 40q-144 0 -272 -54.5t-223.5 -149t-166 -218t-106 -266t-35.5 -289.5q0 -175 53.5 -315t165.5 -226t266 -86q86 0 167.5 24.5t119.5 48.5l39 24l41 -70q-6 -5 -17 -12t-48.5 -26.5t-77.5 -34 t-102 -26.5t-124 -12q-177 0 -308 96t-196 255.5t-65 359.5zM557 299q0 -78 37 -116t98 -38t134.5 45t144.5 117l39 221q-8 2 -54.5 14t-87.5 19.5t-77 7.5q-50 0 -91 -17t-67 -44t-43.5 -63.5t-25 -72.5t-7.5 -73z" />
<glyph unicode="A" horiz-adv-x="1157" d="M-47 0l702 1434h144l196 -1434h-135l-45 373h-541l-174 -373h-147zM328 487h475l-96 807z" />
<glyph unicode="B" horiz-adv-x="1159" d="M76 0l254 1434h375q174 0 268 -81.5t94 -222.5q0 -84 -29.5 -154.5t-75 -114t-93 -69t-91.5 -32.5q28 -6 56.5 -18t61.5 -36.5t58 -57t41.5 -83.5t16.5 -112q0 -210 -124.5 -331.5t-344.5 -121.5h-467zM225 113h316q163 0 253.5 100t90.5 246q0 116 -74 177.5t-199 61.5 h-282zM348 809h268q51 0 105.5 19.5t104 55.5t81 97.5t31.5 136.5q0 93 -62 148t-188 55h-250z" />
<glyph unicode="C" horiz-adv-x="1103" d="M129 520q0 164 31 311t86.5 259.5t129.5 195.5t163.5 126.5t185.5 43.5q52 0 102.5 -14t89.5 -33t82.5 -51.5t71 -57.5t66.5 -63l-80 -88q-93 95 -169 140.5t-157 45.5q-125 0 -232.5 -105.5t-172 -294t-64.5 -415.5q0 -214 65 -318t173 -104q150 0 391 187l63 -101 q-137 -96 -251 -151.5t-226 -55.5q-158 0 -253 133.5t-95 409.5z" />
<glyph unicode="D" horiz-adv-x="1210" d="M76 0l254 1434h262q249 0 388.5 -132.5t139.5 -392.5q0 -196 -50.5 -362.5t-143.5 -288t-234 -190t-313 -68.5h-303zM225 117h146q277 0 446.5 212.5t169.5 577.5q0 216 -107 313t-307 97h-135z" />
<glyph unicode="E" horiz-adv-x="1026" d="M76 0l254 1434h725l-23 -117h-594l-94 -541h494l-23 -117h-491l-99 -542h611l-23 -117h-737z" />
<glyph unicode="F" horiz-adv-x="980" d="M76 0l254 1434h725l-23 -117h-594l-94 -543h475l-20 -115h-475l-119 -659h-129z" />
<glyph unicode="G" horiz-adv-x="1210" d="M129 500q0 224 50 408.5t134 302.5t190 181.5t222 63.5q65 0 128.5 -21t120 -59t97 -74t86.5 -83l-84 -86q-34 33 -43.5 42t-46 42t-59 46.5t-58 34t-69.5 29t-68 8.5q-125 0 -231.5 -104.5t-170 -293.5t-63.5 -421q0 -197 60 -308.5t174 -111.5q160 0 395 223l59 336 h-325l20 113h451l-135 -768h-125l30 182q-102 -94 -197.5 -149.5t-197.5 -55.5q-153 0 -248.5 132.5t-95.5 390.5z" />
<glyph unicode="H" horiz-adv-x="1224" d="M76 0l254 1434h129l-111 -625h596l111 625h129l-254 -1434h-129l123 694h-596l-123 -694h-129z" />
<glyph unicode="I" horiz-adv-x="499" d="M76 0l254 1434h129l-254 -1434h-129z" />
<glyph unicode="J" horiz-adv-x="499" d="M-150 -172q52 18 87 33t60.5 33t39.5 32t24.5 40.5t15 47t11.5 62.5l242 1358h129l-240 -1354q-25 -132 -44 -176q-32 -72 -116 -117q-62 -34 -180 -70z" />
<glyph unicode="K" horiz-adv-x="1110" d="M76 0l254 1434h129l-144 -807l691 807h165l-600 -686l400 -748h-148l-338 649l-206 -237l-74 -412h-129z" />
<glyph unicode="L" horiz-adv-x="935" d="M76 0l254 1434h129l-234 -1317h582l-21 -117h-710z" />
<glyph unicode="M" horiz-adv-x="1437" d="M76 0l254 1434h137l213 -1022l582 1022h137l-254 -1434h-129l207 1165l-525 -925h-84l-198 954l-211 -1194h-129z" />
<glyph unicode="N" horiz-adv-x="1251" d="M76 0l254 1434h133l401 -1221l217 1221h129l-254 -1434h-133l-401 1223l-217 -1223h-129z" />
<glyph unicode="O" horiz-adv-x="1280" d="M127 494q0 66 9.5 145t32 172.5t55.5 183.5t83.5 174t112 147.5t145.5 101.5t180 38q218 0 330.5 -129.5t112.5 -386.5q0 -65 -9.5 -144.5t-32.5 -173t-56 -183t-83.5 -174t-112 -148t-145.5 -102t-180 -38.5q-218 0 -330 130t-112 387zM258 494q0 -400 313 -400 q105 0 191.5 69t139.5 170t89.5 222t51 218.5t14.5 166.5q0 399 -314 399q-105 0 -191.5 -69t-139 -169.5t-89 -221.5t-51 -218.5t-14.5 -166.5z" />
<glyph unicode="P" horiz-adv-x="1116" d="M76 0l254 1434h370q187 0 293.5 -83t106.5 -261q0 -250 -150 -383.5t-395 -133.5h-248l-102 -573h-129zM328 690h233q83 0 155 24t129 71t89.5 123.5t32.5 174.5q0 121 -72 177.5t-197 56.5h-260z" />
<glyph unicode="Q" horiz-adv-x="1280" d="M127 494q0 66 9.5 145t32 172.5t55.5 183.5t83.5 174t112 147.5t145.5 101.5t180 38q218 0 330.5 -129.5t112.5 -386.5q0 -85 -16 -190.5t-55 -228t-94.5 -228t-144.5 -188.5t-196 -111l176 -213l-102 -82l-203 278q-210 5 -318 135t-108 382zM258 494q0 -400 313 -400 q105 0 191.5 69t139.5 170t89.5 222t51 218.5t14.5 166.5q0 399 -314 399q-105 0 -191.5 -69t-139 -169.5t-89 -221.5t-51 -218.5t-14.5 -166.5z" />
<glyph unicode="R" horiz-adv-x="1175" d="M76 0l254 1434h415q186 0 292 -79.5t106 -246.5q0 -197 -111.5 -320t-296.5 -153l217 -635h-133l-203 625h-299l-112 -625h-129zM336 739h278q181 0 287.5 95t106.5 266q0 113 -73 167t-200 54h-297z" />
<glyph unicode="S" horiz-adv-x="1048" d="M18 143l80 99q200 -148 371 -148q129 0 218 76t89 201q0 34 -8.5 65.5t-19.5 54.5t-35.5 49t-41.5 41t-54.5 39.5t-57 36t-65.5 37.5q-48 28 -77.5 47t-67.5 47t-60.5 55t-44 62t-31.5 77t-10 91q0 173 120 278t298 105q199 0 409 -131l-78 -96q-73 48 -165 79t-169 31 q-116 0 -198 -69.5t-82 -192.5q0 -26 3.5 -48t14.5 -42.5t19 -35t30 -34t34.5 -29.5t45.5 -31t48.5 -30t58.5 -34q60 -35 97 -59.5t84 -64t73 -78t44.5 -94t18.5 -118.5q0 -123 -64 -216.5t-163 -139.5t-215 -46q-125 0 -242 49t-207 117z" />
<glyph unicode="T" horiz-adv-x="956" d="M168 1317l20 117h869l-21 -117h-370l-234 -1317h-129l234 1317h-369z" />
<glyph unicode="U" horiz-adv-x="1208" d="M132 313q2 75 15 160l172 961h130l-173 -965q-12 -67 -14 -117q-1 -11 -1 -22q-1 -40 7 -80q10 -50 35 -82t74 -52t121 -20q89 0 157.5 28.5t112 81.5t70 117t41.5 146l170 965h129l-172 -971q-15 -85 -39.5 -154.5t-65.5 -132.5t-96.5 -106t-134.5 -68t-176 -25 t-168 24.5t-111.5 68.5t-62.5 106q-20 58 -20 127v10z" />
<glyph unicode="V" horiz-adv-x="1150" d="M195 1434h137l153 -1280l600 1280h152l-702 -1434h-144z" />
<glyph unicode="W" horiz-adv-x="1583" d="M213 1434h139l33 -1241l483 1241h125l39 -1246l471 1246h148l-574 -1434h-139l-43 1221l-473 -1221h-141z" />
<glyph unicode="X" horiz-adv-x="1050" d="M-53 0l528 713l-258 721h141l197 -619l414 619h155l-510 -719l279 -715h-143l-215 610l-426 -610h-162z" />
<glyph unicode="Y" horiz-adv-x="1064" d="M182 1434h135l218 -750l475 750h153l-579 -865l-99 -569h-129l99 567z" />
<glyph unicode="Z" horiz-adv-x="1044" d="M-29 0l21 109l909 1208h-659l20 117h825l-18 -107l-913 -1210h710l-20 -117h-875z" />
<glyph unicode="[" horiz-adv-x="600" d="M14 -295l357 2013h354l-18 -100h-226l-319 -1813h223l-16 -100h-355z" />
<glyph unicode="\" horiz-adv-x="745" d="M221 1618h101l237 -1802h-100z" />
<glyph unicode="]" horiz-adv-x="600" d="M-92 -295l18 100h226l319 1813h-223l16 100h354l-356 -2013h-354z" />
<glyph unicode="^" horiz-adv-x="1048" d="M168 725l440 709h129l193 -709h-129l-142 594l-346 -594h-145z" />
<glyph unicode="_" horiz-adv-x="1204" d="M-14 -279l18 103h916l-19 -103h-915z" />
<glyph unicode="`" horiz-adv-x="368" d="M262 1493h166l166 -260h-98z" />
<glyph unicode="a" horiz-adv-x="1034" d="M82 328q0 209 54 384t154.5 280.5t227.5 105.5q47 0 91.5 -16.5t82.5 -47t64 -57t55 -62.5l29 160h125l-191 -1075h-125l31 176q-181 -199 -352 -199q-105 0 -175.5 87t-70.5 264zM211 342q0 -120 38 -187t111 -67q89 0 170.5 57.5t171.5 159.5l89 496q-122 186 -254 186 q-97 0 -173.5 -99.5t-114.5 -245t-38 -300.5z" />
<glyph unicode="b" d="M43 0l264 1493h123l-100 -565q170 170 321 170q55 0 102.5 -20t86.5 -60t61.5 -109.5t22.5 -160.5q0 -208 -52 -383t-150 -281.5t-222 -106.5q-51 0 -97.5 16t-85.5 45.5t-65 55.5t-57 62l-27 -156h-125zM215 270q128 -182 266 -182q92 0 166 99.5t111 245t37 298.5 q0 122 -44 189t-133 67q-78 0 -151.5 -48t-157.5 -134z" />
<glyph unicode="c" horiz-adv-x="886" d="M80 397q0 130 27 244.5t73 196.5t105.5 142t125.5 89t132 29q28 0 56.5 -5t51.5 -12t49.5 -20.5t43 -22.5t41 -26.5t34 -25t31 -25t24.5 -19.5l-71 -84q-4 3 -24 19.5t-33.5 27.5t-39 27.5t-46.5 27t-49 18t-54 7.5q-88 0 -168 -73t-131 -207.5t-51 -296.5 q0 -152 50 -235t144 -83q36 0 82.5 16.5t77 33.5t74 44t49.5 31l51 -98q-4 -2 -35.5 -21t-45.5 -27t-46.5 -25.5t-55.5 -26t-54 -19.5t-60.5 -16t-58.5 -5q-134 0 -216.5 112.5t-82.5 307.5z" />
<glyph unicode="d" horiz-adv-x="1034" d="M82 328q0 209 54 384t154.5 280.5t227.5 105.5q47 0 91.5 -16.5t82.5 -47t64 -57t55 -62.5l102 578h125l-264 -1493h-125l31 176q-181 -199 -352 -199q-105 0 -175.5 87t-70.5 264zM211 342q0 -120 38 -187t111 -67q89 0 170.5 57.5t171.5 159.5l89 496 q-122 186 -254 186q-97 0 -173.5 -99.5t-114.5 -245t-38 -300.5z" />
<glyph unicode="e" horiz-adv-x="954" d="M82 418q0 193 64 348t181 243.5t267 88.5q135 0 211 -71t76 -187q0 -172 -149 -271.5t-429 -99.5h-92l-2 -55q0 -159 52 -244.5t151 -85.5q30 0 64 8.5t60 18t62.5 30t52.5 30.5t51 33t39 25l52 -92q-232 -160 -400 -160q-144 0 -227.5 112.5t-83.5 328.5zM219 563h98 q216 0 327.5 77t111.5 198q0 74 -47.5 114.5t-122.5 40.5q-134 0 -235 -119t-132 -311z" />
<glyph unicode="f" horiz-adv-x="602" d="M-168 -322q40 14 68.5 25.5t53 26.5t40 26.5t29.5 33.5t21 37.5t15.5 49.5t13.5 59.5t13 75.5l168 961h-119l21 102h116l33 180q22 126 71.5 182t141.5 56q58 0 133.5 -23t124.5 -47l-59 -90q-35 14 -95.5 30.5t-91.5 16.5q-78 0 -100 -123l-33 -182h238l-19 -102h-237 l-166 -957q-32 -179 -55 -236q-32 -82 -107 -128q-62 -38 -192 -78z" />
<glyph unicode="g" horiz-adv-x="1034" d="M-16 -365l45 111q204 -76 338 -76q67 0 118 23.5t80.5 63t45.5 79t24 84.5l45 256q-181 -199 -352 -199q-105 0 -175.5 87t-70.5 264q0 209 54.5 384t155 280.5t226.5 105.5q47 0 91.5 -16.5t82.5 -47t64 -57t55 -62.5l29 160h123l-205 -1159q-18 -102 -54 -173 t-88.5 -109.5t-111.5 -55t-133 -16.5q-87 0 -192.5 20t-194.5 53zM211 342q0 -120 38 -187t113 -67q87 0 168 57t172 158l89 498q-122 186 -254 186q-97 0 -173.5 -99.5t-114.5 -245t-38 -300.5z" />
<glyph unicode="h" d="M43 0l264 1493h123l-100 -571q218 176 385 176q125 0 173 -86q32 -56 32 -137q0 -43 -9 -93l-137 -782h-125l135 768q9 48 9 86q0 135 -119 135q-87 0 -191 -61t-176 -129l-139 -799h-125z" />
<glyph unicode="i" horiz-adv-x="430" d="M43 0l190 1075h123l-188 -1075h-125zM266 1309l33 178h139l-32 -178h-140z" />
<glyph unicode="j" horiz-adv-x="430" d="M-209 -322q53 19 88 34t61 34t40 33t24.5 41.5t15 48.5t11.5 63l202 1143h125l-202 -1138q-24 -133 -44 -179q-33 -72 -118 -117q-62 -33 -178 -67zM266 1309l33 178h139l-32 -178h-140z" />
<glyph unicode="k" horiz-adv-x="880" d="M43 0l264 1493h123l-174 -993l471 575h152l-381 -442l241 -633h-127l-198 537l-191 -222l-55 -315h-125z" />
<glyph unicode="l" horiz-adv-x="448" d="M53 0l264 1493h123l-264 -1493h-123z" />
<glyph unicode="m" horiz-adv-x="1550" d="M43 0l190 1075h123l-28 -164q187 187 346 187q99 0 148.5 -57.5t54.5 -147.5q190 205 364 205q64 0 108.5 -25t65 -68t26.5 -101q2 -18 1 -37q0 -41 -8 -85l-140 -782h-123l138 768q7 45 7 80q0 141 -116 141q-82 0 -171 -63.5t-163 -147.5l-137 -778h-123l137 768 q8 45 8 81q0 140 -116 140q-81 0 -169 -62.5t-161 -144.5l-137 -782h-125z" />
<glyph unicode="n" d="M43 0l190 1075h123l-26 -153q218 176 385 176q126 0 174 -86q31 -56 31 -137q0 -44 -9 -95l-137 -780h-123l135 768q8 45 8 80q0 141 -120 141q-87 0 -191 -61t-176 -129l-139 -799h-125z" />
<glyph unicode="o" horiz-adv-x="1034" d="M80 383q0 127 31.5 251.5t89.5 229t152 169.5t208 65q168 0 267.5 -101t99.5 -305q0 -100 -19 -201t-59 -193.5t-96 -164t-135 -114t-170 -42.5q-168 0 -268.5 101t-100.5 305zM207 381q0 -297 239 -297q88 0 159.5 64t112.5 160.5t63 197.5t22 188q0 297 -242 297 q-71 0 -131.5 -42.5t-100.5 -109.5t-68.5 -149.5t-41 -161.5t-12.5 -147z" />
<glyph unicode="p" d="M-31 -418l264 1493h123l-26 -147q170 170 321 170q55 0 102.5 -20t86.5 -60t61.5 -109.5t22.5 -160.5q0 -208 -52 -383t-150 -281.5t-222 -106.5q-51 0 -97.5 16t-85.5 45.5t-65 55.5t-57 62l-101 -574h-125zM215 272q127 -184 266 -184q94 0 167.5 99.5t110 244.5 t36.5 299q0 122 -43.5 189t-130.5 67q-80 0 -154 -48t-160 -134z" />
<glyph unicode="q" horiz-adv-x="1034" d="M82 328q0 209 54 384t154.5 280.5t227.5 105.5q47 0 91.5 -16.5t82.5 -47t64 -57t55 -62.5l29 160h125l-265 -1493h-125l105 594q-181 -199 -352 -199q-105 0 -175.5 87t-70.5 264zM211 342q0 -120 38 -187t111 -67q89 0 170.5 57.5t171.5 159.5l89 496 q-122 186 -254 186q-97 0 -173.5 -99.5t-114.5 -245t-38 -300.5z" />
<glyph unicode="r" horiz-adv-x="651" d="M43 0l190 1075h123l-41 -231q11 20 24.5 41t50 63.5t76.5 71.5q40 30 100 52q47 17 96 16q14 0 28 -1l-22 -122q-58 0 -110.5 -19t-91 -49t-71.5 -66.5t-54 -73t-36.5 -66.5t-22.5 -49l-6 -19l-108 -623h-125z" />
<glyph unicode="s" horiz-adv-x="876" d="M4 115l72 88q167 -119 301 -119q91 0 159 52t68 147q0 18 -3.5 34t-7 28.5t-14.5 26t-16.5 22t-23.5 21t-24 18t-30 18t-30.5 16t-35 18t-34.5 17.5q-38 19 -61 32t-55.5 34.5t-52.5 43t-39.5 49.5t-28.5 63.5t-9 76.5q0 137 96.5 217t237.5 80q171 0 340 -115l-68 -88 q-139 96 -270 96q-89 0 -150 -47.5t-61 -132.5q0 -28 6.5 -52t23 -44t29.5 -33t41 -29t40.5 -22t45.5 -21q9 -4 13 -6q68 -34 111 -61t82 -64.5t57 -84t18 -105.5q0 -98 -49.5 -170t-128 -107t-172.5 -35q-183 0 -377 138z" />
<glyph unicode="t" horiz-adv-x="634" d="M117 229l131 744h-123l18 102h123l49 271l131 40l-55 -311h240l-19 -102h-239l-135 -762q-4 -25 -4 -45q0 -76 63 -76q46 0 176 60l35 -103q-159 -70 -240 -70q-85 0 -130 58q-29 38 -29 109q0 38 8 85z" />
<glyph unicode="u" d="M88 293l137 782h125l-137 -768q-7 -43 -7 -78q0 -143 122 -143q86 0 187.5 59.5t174.5 126.5l144 803h122l-188 -1075h-125l27 152q-219 -175 -383 -175q-125 1 -175 87q-32 57 -33 137q0 43 9 92z" />
<glyph unicode="v" horiz-adv-x="940" d="M137 1075h129l111 -928l440 928h141l-540 -1075h-123z" />
<glyph unicode="w" horiz-adv-x="1370" d="M147 1075h129l48 -911l383 911h112l55 -909l369 909h135l-463 -1075h-122l-58 891l-379 -891h-123z" />
<glyph unicode="x" horiz-adv-x="966" d="M-63 0l464 541l-256 534h138l192 -446l352 446h160l-444 -534l272 -541h-139l-207 457l-369 -457h-163z" />
<glyph unicode="y" horiz-adv-x="940" d="M-39 -315q139 54 203.5 112.5t132.5 190.5l-160 1087h129l115 -913l438 913h139l-538 -1075q-85 -169 -122 -223q-64 -90 -167 -144q-57 -29 -141 -59z" />
<glyph unicode="z" horiz-adv-x="858" d="M-29 0l21 104l690 861h-524l22 110h672l-18 -104l-691 -860h541l-22 -111h-691z" />
<glyph unicode="{" horiz-adv-x="686" d="M78 647l22 131q45 -1 81 16.5t58.5 45t38 63.5t22.5 68.5t9 64.5l13 193q14 238 120 363.5t328 125.5h43l-18 -100h-31q-281 0 -307 -361l-15 -198q-12 -154 -71 -238.5t-170 -109.5q199 -63 121 -349l-52 -188q-14 -55 -21.5 -95t-10.5 -85.5t7.5 -76t32.5 -57.5t64 -40 t102 -13h31l-18 -100h-31q-207 0 -279 130.5t-6 363.5l54 188q20 73 21 124.5t-17.5 80t-47.5 41t-73 12.5z" />
<glyph unicode="|" horiz-adv-x="454" d="M23 -252l342 1927h100l-342 -1927h-100z" />
<glyph unicode="}" horiz-adv-x="686" d="M-92 -293l18 100h31q281 0 307 361l15 199q12 154 71 238.5t170 109.5q-199 63 -121 348l52 188q14 54 21.5 94.5t10.5 85.5t-8 76.5t-33 58t-64 39.5t-102 13h-30l18 100h31q207 0 279 -130t6 -363l-54 -189q-20 -73 -21 -124.5t17.5 -80t47.5 -41t73 -12.5l-22 -131 q-45 1 -81 -16.5t-58.5 -45t-38 -63.5t-22.5 -68.5t-9 -64.5l-13 -192q-14 -238 -120 -364t-328 -126h-43z" />
<glyph unicode="~" horiz-adv-x="1048" d="M49 475q125 219 285 219q55 0 109.5 -24t91 -52.5t84.5 -52.5t92 -24q43 0 86 30t96 113l86 -43q-124 -217 -285 -217q-56 0 -110.5 24t-91.5 53t-85 53t-92 24q-42 0 -84.5 -31t-93.5 -113z" />
<glyph unicode="&#xa1;" horiz-adv-x="491" d="M63 0l216 1016h77l-143 -1016h-150zM279 1223l36 211h148l-37 -211h-147z" />
<glyph unicode="&#xa2;" horiz-adv-x="964" d="M131 578q0 162 41.5 298t108 221.5t147.5 133t164 47.5l29 156h100l-31 -170q23 -7 46 -16.5t45 -22.5t38.5 -23t37 -26.5t30.5 -24.5t29.5 -25t23.5 -20l-72 -82q-1 1 -14 12.5t-18.5 16.5t-21 17.5t-25 19.5t-26 18t-29.5 18.5t-29.5 15.5t-32.5 13l-154 -874 q26 8 54.5 20.5t56.5 28.5t47.5 27.5t44.5 28.5t31 20l51 -97q-3 -2 -30.5 -19t-38.5 -23.5t-39 -23t-47 -25.5t-46 -21t-53 -20t-51 -13l-29 -164h-100l26 160q-120 12 -192 123t-72 295zM258 588q0 -137 41 -219t117 -97l155 889q-126 -23 -219.5 -184.5t-93.5 -388.5z " />
<glyph unicode="&#xa3;" horiz-adv-x="948" d="M14 0l17 98q9 8 25 22t58.5 60.5t77.5 95t70 120.5t49 141h-182l16 100h177q-2 73 -41 210.5t-39 219.5q0 174 101.5 281.5t268.5 107.5q57 0 109 -12.5t104 -41t74.5 -43.5t71.5 -50l-78 -86q-160 116 -272 116q-108 0 -180 -78t-72 -200q0 -74 38.5 -206.5t38.5 -217.5 h275l-19 -100h-266q-39 -224 -235 -420h538l-20 -117h-705z" />
<glyph unicode="&#xa5;" horiz-adv-x="1120" d="M123 358l18 99h324l20 110l-16 49h-299l16 99h252l-225 719h135l217 -750l475 750h154l-483 -719h256l-19 -99h-303l-31 -47l-20 -112h328l-21 -99h-323l-62 -358h-129l62 358h-326z" />
<glyph unicode="&#xa6;" horiz-adv-x="458" d="M25 -252l147 846h100l-149 -846h-98zM215 829l150 846h100l-150 -846h-100z" />
<glyph unicode="&#xa7;" horiz-adv-x="950" d="M41 -33l70 88q139 -96 268 -96q90 0 151.5 47.5t61.5 132.5q0 41 -14 72.5t-46.5 56t-53.5 36t-68 33.5q-13 6 -19 9q-141 66 -204.5 139.5t-63.5 171.5q0 108 66.5 178.5t175.5 96.5q-57 42 -88 95t-31 130q0 137 97 218t237 81q94 0 184.5 -34.5t157.5 -80.5l-70 -88 q-141 97 -268 97q-90 0 -151.5 -48t-61.5 -133q0 -20 3.5 -37.5t12 -33t15.5 -27.5t23.5 -24.5t24.5 -20t29.5 -19t29 -15t32.5 -15t30 -14.5q131 -63 199 -133.5t68 -178.5q0 -109 -66.5 -179t-175.5 -95q121 -88 121 -227q0 -136 -96.5 -216.5t-237.5 -80.5 q-94 0 -184.5 34.5t-157.5 79.5zM248 672q0 -41 13 -72t47.5 -57.5t57.5 -40t79 -40.5q17 -9 26 -13l18 -11q94 6 159 58t65 141q0 41 -13 72t-47 58t-57.5 40.5t-79.5 40.5l-24 12l-21 8q-94 -7 -158.5 -57.5t-64.5 -138.5z" />
<glyph unicode="&#xa8;" horiz-adv-x="397" d="M213 1253l33 174h131l-31 -174h-133zM494 1253l30 174h131l-30 -174h-131z" />
<glyph unicode="&#xa9;" horiz-adv-x="1695" d="M137 641q0 131 32.5 251.5t98.5 223t158.5 178.5t219 119t274.5 43q206 0 360 -84.5t234.5 -234.5t80.5 -344q0 -131 -32.5 -251.5t-98.5 -223.5t-158 -179t-219.5 -119t-275.5 -43q-309 0 -491.5 184t-182.5 480zM213 643q0 -262 162.5 -427t443.5 -165q161 0 294.5 59 t221.5 160t136.5 235.5t48.5 285.5q0 172 -71 305t-210 209.5t-326 76.5q-129 0 -241.5 -38t-195.5 -106t-143 -160.5t-90 -203t-30 -231.5zM487 618q-5 126 27 230.5t90 172t134.5 104t162.5 36.5q54 0 104.5 -12.5t94.5 -37t69.5 -42.5t59.5 -45l-55 -59 q-27 23 -48.5 38.5t-57.5 36.5t-79 32t-88 11q-144 0 -237 -130.5t-86 -329.5q5 -127 58.5 -200t143.5 -73q153 0 316 115l47 -68q-53 -35 -95 -58t-115.5 -46t-144.5 -23q-126 0 -210.5 91.5t-90.5 256.5z" />
<glyph unicode="&#xaa;" horiz-adv-x="763" d="M190 993q0 191 76.5 323t196.5 132q39 0 76.5 -19.5t56.5 -37.5t47 -48l16 91h99l-113 -646h-98l16 99q-109 -113 -215 -113q-69 0 -113.5 54t-44.5 165zM291 1004q0 -67 23 -105.5t65 -38.5q53 0 100 32t101 89l49 279q-71 102 -150 102q-56 0 -100 -55t-66 -136 t-22 -167z" />
<glyph unicode="&#xab;" horiz-adv-x="1161" d="M59 535l17 88l588 460l-29 -155l-461 -363l336 -356l-25 -135zM526 535l17 88l587 460l-28 -155l-461 -363l336 -356l-25 -135z" />
<glyph unicode="&#xac;" horiz-adv-x="1048" d="M43 629l20 106h953l-96 -551h-115l78 445h-840z" />
<glyph unicode="&#xad;" horiz-adv-x="755" d="M129 526l21 115h464l-20 -115h-465z" />
<glyph unicode="&#xae;" horiz-adv-x="960" d="M184 1069q0 81 26 154t74.5 129.5t123.5 89.5t167 33q154 0 245 -91.5t91 -240.5q0 -110 -43.5 -200.5t-134 -148t-211.5 -57.5q-155 0 -246.5 92t-91.5 240zM252 1071q0 -118 73 -193t201 -75q148 0 236 97t88 241q0 118 -76 194t-203 76q-147 0 -233 -97.5t-86 -242.5z M383 926l66 370h161q53 0 84 -27.5t31 -68.5q0 -46 -32.5 -76.5t-84.5 -38.5l62 -159h-66l-57 157h-74l-27 -157h-63zM485 1141h93q41 0 61 16.5t20 42.5q0 37 -51 37h-106z" />
<glyph unicode="&#xaf;" horiz-adv-x="491" d="M233 1284l17 92h483l-16 -92h-484z" />
<glyph unicode="&#xb0;" horiz-adv-x="823" d="M186 1128q0 126 90.5 216t217.5 90q125 0 215 -90t90 -216t-90 -215.5t-215 -89.5q-127 0 -217.5 89.5t-90.5 215.5zM279 1128q0 -88 62.5 -150.5t150.5 -62.5t150.5 62.5t62.5 150.5t-62.5 151.5t-150.5 63.5t-150.5 -63.5t-62.5 -151.5z" />
<glyph unicode="&#xb1;" horiz-adv-x="1048" d="M0 0l18 100h832l-19 -100h-831zM111 625l18 106h358l60 330h106l-59 -330h367l-19 -106h-367l-57 -334h-106l57 334h-358z" />
<glyph unicode="&#xb2;" horiz-adv-x="665" d="M106 788l13 68q8 53 28 98.5t43 77.5t59.5 65.5t66 55.5t74.5 53q5 3 7.5 5t7 5l7.5 5q54 37 85 61t64.5 56t48.5 63t15 65q0 46 -31.5 75.5t-89.5 29.5q-101 0 -201 -72l-41 76q124 88 252 88q99 0 156 -50.5t57 -139.5q0 -25 -5.5 -50t-13 -45t-24 -43.5t-27.5 -39 t-35 -37.5t-36.5 -33t-42 -33t-40.5 -29.5t-43.5 -29.5t-39.5 -27q-85 -58 -125 -106t-53 -121h383l-17 -91h-502z" />
<glyph unicode="&#xb3;" horiz-adv-x="673" d="M106 868l58 70q102 -72 198 -72q87 0 143 52t56 131q0 81 -59.5 122t-143.5 41h-28l16 93h35q82 0 151.5 50.5t69.5 121.5q0 44 -30 69t-83 25q-92 0 -190 -66l-35 76q132 82 246 82q92 0 144.5 -48.5t52.5 -121.5q0 -70 -48.5 -134t-140.5 -99q64 -18 106 -75t42 -136 q0 -70 -32 -131t-102 -102.5t-165 -41.5q-137 0 -261 94z" />
<glyph unicode="&#xb4;" horiz-adv-x="368" d="M211 1233l240 260h190l-317 -260h-113z" />
<glyph unicode="&#xb5;" horiz-adv-x="1089" d="M-6 -418l264 1493h125l-137 -768q-9 -62 -6.5 -111t32.5 -79.5t88 -30.5q86 0 188 59.5t175 126.5l143 803h123l-188 -1075h-125l26 152q-219 -175 -383 -175q-72 0 -126 33l-76 -428h-123z" />
<glyph unicode="&#xb6;" horiz-adv-x="1085" d="M133 920q0 229 134.5 371.5t355.5 142.5h112l-319 -1813h-113l170 961q-158 0 -249 88.5t-91 249.5zM606 -379l322 1813h112l-321 -1813h-113z" />
<glyph unicode="&#xb7;" horiz-adv-x="438" d="M119 475l39 217h147l-39 -217h-147z" />
<glyph unicode="&#xb8;" horiz-adv-x="284" d="M-57 -307l47 84q42 -27 86 -27q45 0 76.5 31t31.5 96q0 27 -5.5 59t-10.5 50l-6 18h61q41 -68 41 -154q0 -87 -51.5 -140.5t-138.5 -53.5q-73 0 -131 37z" />
<glyph unicode="&#xb9;" horiz-adv-x="501" d="M203 1534l200 115h93l-154 -861h-100l133 748l-137 -76z" />
<glyph unicode="&#xba;" horiz-adv-x="755" d="M190 1026q0 76 19.5 149.5t56 135t96.5 99.5t134 38q109 0 174 -63t65 -189q0 -76 -19.5 -149.5t-55.5 -135t-96 -99.5t-134 -38q-109 0 -174.5 63t-65.5 189zM289 1026q0 -168 141 -168q51 0 93 35.5t65.5 89t36 109t12.5 104.5q0 168 -141 168q-51 0 -93 -35.5 t-65.5 -89t-36 -109t-12.5 -104.5z" />
<glyph unicode="&#xbb;" horiz-adv-x="1161" d="M20 74l29 155l461 363l-336 356l25 135l426 -460l-17 -88zM487 74l29 155l461 363l-336 356l25 135l426 -460l-17 -88z" />
<glyph unicode="&#xbc;" horiz-adv-x="1353" d="M162 0l805 1434h106l-805 -1434h-106zM180 1319l201 115h92l-154 -861h-100l133 748l-137 -76zM606 190l12 80l453 590h135l-104 -579h112l-16 -91h-113l-32 -190h-101l33 190h-379zM727 281h274l84 471z" />
<glyph unicode="&#xbd;" horiz-adv-x="1404" d="M162 0l805 1434h106l-805 -1434h-106zM180 1319l201 115h92l-154 -861h-100l133 748l-137 -76zM690 0l12 68q10 65 33 116t68.5 96t73.5 67t94 68q5 4 8 6l7.5 5t8.5 6q109 75 161 128.5t52 117.5q0 46 -31.5 75t-89.5 29q-53 0 -107 -21.5t-93 -49.5l-41 75 q124 88 252 88q99 0 156 -50.5t57 -139.5q0 -25 -5.5 -50t-13 -45t-24 -43.5t-27.5 -39t-35 -37.5t-36.5 -33t-42 -33t-40.5 -29.5t-43.5 -29.5t-39.5 -27q-86 -58 -126 -106.5t-53 -120.5h383l-16 -90h-502z" />
<glyph unicode="&#xbe;" horiz-adv-x="1556" d="M94 653l58 70q102 -72 198 -72q87 0 143 52t56 131q0 81 -59.5 122t-143.5 41h-29l17 93h35q82 0 151.5 50.5t69.5 121.5q0 44 -30 69t-83 25q-92 0 -190 -66l-35 76q132 82 246 82q92 0 144 -48.5t52 -121.5q0 -70 -48 -134.5t-140 -99.5q64 -18 105.5 -74.5 t41.5 -135.5q0 -70 -32 -131t-102 -102.5t-165 -41.5q-136 0 -260 94zM371 0l805 1434h106l-805 -1434h-106zM813 190l12 80l453 590h135l-104 -579h112l-16 -91h-113l-32 -190h-101l33 190h-379zM934 281h274l84 471z" />
<glyph unicode="&#xbf;" horiz-adv-x="858" d="M31 260q0 87 37 162t101.5 129.5t137.5 93.5t158 66l63 305h93l-54 -383q-82 -25 -150 -56.5t-128.5 -75t-94.5 -102.5t-34 -127q0 -88 53 -133t137 -45q76 0 146.5 30.5t156.5 84.5l56 -94q-199 -138 -373 -138q-62 0 -115.5 17t-96.5 50.5t-68 89t-25 126.5zM537 1223 l36 211h148l-37 -211h-147z" />
<glyph unicode="&#xc0;" horiz-adv-x="1157" d="M-47 0l702 1434h144l196 -1434h-135l-45 373h-541l-174 -373h-147zM328 487h475l-96 807zM539 1802h166l165 -260h-98z" />
<glyph unicode="&#xc1;" horiz-adv-x="1157" d="M-47 0l702 1434h144l196 -1434h-135l-45 373h-541l-174 -373h-147zM328 487h475l-96 807zM623 1542l239 260h191l-318 -260h-112z" />
<glyph unicode="&#xc2;" horiz-adv-x="1157" d="M-47 0l702 1434h144l196 -1434h-135l-45 373h-541l-174 -373h-147zM328 487h475l-96 807zM508 1542l209 260h151l117 -260h-88l-113 182l-174 -182h-102z" />
<glyph unicode="&#xc3;" horiz-adv-x="1157" d="M-47 0l702 1434h144l196 -1434h-135l-45 373h-541l-174 -373h-147zM328 487h475l-96 807zM508 1610q47 78 83 111.5t85 33.5q37 0 71.5 -25t64 -50t52.5 -25q20 0 42 19t57 77l65 -47q-47 -78 -83 -111.5t-85 -33.5q-37 0 -71.5 25t-64 50t-52.5 25q-22 0 -43 -17.5 t-56 -74.5z" />
<glyph unicode="&#xc4;" horiz-adv-x="1157" d="M-47 0l702 1434h144l196 -1434h-135l-45 373h-541l-174 -373h-147zM328 487h475l-96 807zM543 1563l32 174h132l-31 -174h-133zM823 1563l31 174h131l-31 -174h-131z" />
<glyph unicode="&#xc5;" horiz-adv-x="1161" d="M-45 0l702 1434h144l196 -1434h-135l-45 373h-541l-174 -373h-147zM330 487h475l-96 807zM578 1714q0 80 55.5 137.5t136.5 57.5t138 -57.5t57 -137.5q0 -81 -56.5 -136.5t-138.5 -55.5t-137 55t-55 137zM657 1714q0 -47 33 -81t80 -34q49 0 83 33.5t34 81.5t-34 81.5 t-83 33.5q-47 0 -80 -34t-33 -81z" />
<glyph unicode="&#xc6;" horiz-adv-x="1681" d="M-106 0l1052 1434h764l-22 -117h-594l-95 -541h494l-23 -117h-491l-98 -542h610l-23 -117h-737l66 373h-471l-267 -373h-165zM408 487h409l133 756z" />
<glyph unicode="&#xc7;" horiz-adv-x="1103" d="M129 520q0 164 31 311t86.5 259.5t129.5 195.5t163.5 126.5t185.5 43.5q52 0 102.5 -14t89.5 -33t82.5 -51.5t71 -57.5t66.5 -63l-80 -88q-93 95 -169 140.5t-157 45.5q-125 0 -232.5 -105.5t-172 -294t-64.5 -415.5q0 -214 65 -318t173 -104q150 0 391 187l63 -101 q-120 -85 -225 -138t-207 -64q29 -65 29 -132q0 -87 -52 -140.5t-139 -53.5q-73 0 -131 37l47 84q42 -27 86 -27q45 0 77 31t32 96q0 42 -14 100q-150 8 -239 142t-89 401z" />
<glyph unicode="&#xc8;" horiz-adv-x="1026" d="M76 0l254 1434h725l-23 -117h-594l-94 -541h494l-23 -117h-491l-99 -542h611l-23 -117h-737zM510 1802h166l166 -260h-99z" />
<glyph unicode="&#xc9;" d="M76 0l254 1434h725l-23 -117h-594l-94 -541h494l-23 -117h-491l-99 -542h611l-23 -117h-737zM590 1542l239 260h191l-318 -260h-112z" />
<glyph unicode="&#xca;" horiz-adv-x="1026" d="M76 0l254 1434h725l-23 -117h-594l-94 -541h494l-23 -117h-491l-99 -542h611l-23 -117h-737zM479 1542l209 260h152l116 -260h-88l-112 182l-174 -182h-103z" />
<glyph unicode="&#xcb;" horiz-adv-x="1026" d="M76 0l254 1434h725l-23 -117h-594l-94 -541h494l-23 -117h-491l-99 -542h611l-23 -117h-737zM516 1563l33 174h131l-31 -174h-133zM797 1563l30 174h131l-30 -174h-131z" />
<glyph unicode="&#xcc;" horiz-adv-x="501" d="M76 0l254 1434h129l-254 -1434h-129zM209 1802h166l166 -260h-99z" />
<glyph unicode="&#xcd;" horiz-adv-x="499" d="M76 0l254 1434h129l-254 -1434h-129zM287 1542l239 260h191l-318 -260h-112z" />
<glyph unicode="&#xce;" horiz-adv-x="499" d="M76 0l254 1434h129l-254 -1434h-129zM176 1542l209 260h152l116 -260h-88l-112 182l-174 -182h-103z" />
<glyph unicode="&#xcf;" horiz-adv-x="501" d="M76 0l254 1434h129l-254 -1434h-129zM213 1563l33 174h131l-31 -174h-133zM494 1563l30 174h131l-30 -174h-131z" />
<glyph unicode="&#xd0;" horiz-adv-x="1224" d="M82 659l20 115h125l117 660h262q249 0 389 -132.5t140 -392.5q0 -262 -86.5 -466.5t-256.5 -323.5t-399 -119h-303l117 659h-125zM240 117h145q277 0 446.5 212.5t169.5 577.5q0 216 -106.5 313t-306.5 97h-135l-97 -543h285l-18 -115h-287z" />
<glyph unicode="&#xd1;" horiz-adv-x="1251" d="M76 0l254 1434h133l401 -1221l217 1221h129l-254 -1434h-133l-401 1223l-217 -1223h-129zM561 1610q47 78 83 111.5t85 33.5q37 0 72 -25t64.5 -50t52.5 -25q20 0 41.5 19t56.5 77l65 -47q-47 -78 -83 -111.5t-85 -33.5q-37 0 -71.5 25t-64 50t-52.5 25q-21 0 -42 -17.5 t-56 -74.5z" />
<glyph unicode="&#xd2;" horiz-adv-x="1280" d="M127 494q0 66 9.5 145t32 172.5t55.5 183.5t83.5 174t112 147.5t145.5 101.5t180 38q218 0 330.5 -129.5t112.5 -386.5q0 -65 -9.5 -144.5t-32.5 -173t-56 -183t-83.5 -174t-112 -148t-145.5 -102t-180 -38.5q-218 0 -330 130t-112 387zM258 494q0 -400 313 -400 q105 0 191.5 69t139.5 170t89.5 222t51 218.5t14.5 166.5q0 399 -314 399q-105 0 -191.5 -69t-139 -169.5t-89 -221.5t-51 -218.5t-14.5 -166.5zM596 1802h166l166 -260h-99z" />
<glyph unicode="&#xd3;" horiz-adv-x="1280" d="M127 494q0 66 9.5 145t32 172.5t55.5 183.5t83.5 174t112 147.5t145.5 101.5t180 38q218 0 330.5 -129.5t112.5 -386.5q0 -65 -9.5 -144.5t-32.5 -173t-56 -183t-83.5 -174t-112 -148t-145.5 -102t-180 -38.5q-218 0 -330 130t-112 387zM258 494q0 -400 313 -400 q105 0 191.5 69t139.5 170t89.5 222t51 218.5t14.5 166.5q0 399 -314 399q-105 0 -191.5 -69t-139 -169.5t-89 -221.5t-51 -218.5t-14.5 -166.5zM676 1542l239 260h191l-318 -260h-112z" />
<glyph unicode="&#xd4;" horiz-adv-x="1280" d="M127 494q0 66 9.5 145t32 172.5t55.5 183.5t83.5 174t112 147.5t145.5 101.5t180 38q218 0 330.5 -129.5t112.5 -386.5q0 -65 -9.5 -144.5t-32.5 -173t-56 -183t-83.5 -174t-112 -148t-145.5 -102t-180 -38.5q-218 0 -330 130t-112 387zM258 494q0 -400 313 -400 q105 0 191.5 69t139.5 170t89.5 222t51 218.5t14.5 166.5q0 399 -314 399q-105 0 -191.5 -69t-139 -169.5t-89 -221.5t-51 -218.5t-14.5 -166.5zM567 1542l209 260h152l116 -260h-88l-112 182l-174 -182h-103z" />
<glyph unicode="&#xd5;" horiz-adv-x="1280" d="M127 494q0 66 9.5 145t32 172.5t55.5 183.5t83.5 174t112 147.5t145.5 101.5t180 38q218 0 330.5 -129.5t112.5 -386.5q0 -65 -9.5 -144.5t-32.5 -173t-56 -183t-83.5 -174t-112 -148t-145.5 -102t-180 -38.5q-218 0 -330 130t-112 387zM258 494q0 -400 313 -400 q105 0 191.5 69t139.5 170t89.5 222t51 218.5t14.5 166.5q0 399 -314 399q-105 0 -191.5 -69t-139 -169.5t-89 -221.5t-51 -218.5t-14.5 -166.5zM561 1610q47 78 83 111.5t85 33.5q37 0 72 -25t64.5 -50t52.5 -25q20 0 41.5 19t56.5 77l65 -47q-47 -78 -83 -111.5t-85 -33.5 q-37 0 -71.5 25t-64 50t-52.5 25q-21 0 -42 -17.5t-56 -74.5z" />
<glyph unicode="&#xd6;" horiz-adv-x="1280" d="M127 494q0 66 9.5 145t32 172.5t55.5 183.5t83.5 174t112 147.5t145.5 101.5t180 38q218 0 330.5 -129.5t112.5 -386.5q0 -65 -9.5 -144.5t-32.5 -173t-56 -183t-83.5 -174t-112 -148t-145.5 -102t-180 -38.5q-218 0 -330 130t-112 387zM258 494q0 -400 313 -400 q105 0 191.5 69t139.5 170t89.5 222t51 218.5t14.5 166.5q0 399 -314 399q-105 0 -191.5 -69t-139 -169.5t-89 -221.5t-51 -218.5t-14.5 -166.5zM602 1563l33 174h131l-31 -174h-133zM883 1563l30 174h131l-30 -174h-131z" />
<glyph unicode="&#xd7;" horiz-adv-x="1050" d="M154 403l311 287l-211 291l84 61l205 -280l305 280l72 -75l-316 -289l213 -289l-86 -61l-205 278l-303 -278z" />
<glyph unicode="&#xd8;" horiz-adv-x="1277" d="M43 0l143 186q-59 121 -59 308q0 66 9.5 145t32 172.5t55.5 183.5t83.5 174t112 147.5t145.5 101.5t180 38q214 0 326 -127l82 105h115l-142 -185q62 -121 62 -309q0 -65 -9.5 -144.5t-32.5 -173t-56 -183t-83.5 -174t-112 -148t-145.5 -102t-180 -38.5q-218 0 -329 129 l-82 -106h-115zM258 494q0 -111 23 -187l708 916q-77 116 -246 116q-105 0 -191.5 -69t-139 -169.5t-89 -221.5t-51 -218.5t-14.5 -166.5zM322 213q77 -119 249 -119q105 0 191.5 69t139.5 170t89.5 222t51 218.5t14.5 166.5q0 104 -25 190z" />
<glyph unicode="&#xd9;" horiz-adv-x="1208" d="M132.5 313q1.5 75 14.5 160l172 961h130l-173 -965q-12 -67 -14.5 -117.5t7 -101t34.5 -82.5t74 -52t121 -20q89 0 157.5 28.5t112 81.5t70 117t41.5 146l170 965h129l-172 -971q-15 -85 -39.5 -154.5t-65.5 -132.5t-96.5 -106t-134.5 -68t-176 -25t-168 24.5 t-111.5 68.5t-62 106t-20 137zM561 1802h166l166 -260h-98z" />
<glyph unicode="&#xda;" horiz-adv-x="1208" d="M132.5 313q1.5 75 14.5 160l172 961h130l-173 -965q-12 -67 -14.5 -117.5t7 -101t34.5 -82.5t74 -52t121 -20q89 0 157.5 28.5t112 81.5t70 117t41.5 146l170 965h129l-172 -971q-15 -85 -39.5 -154.5t-65.5 -132.5t-96.5 -106t-134.5 -68t-176 -25t-168 24.5 t-111.5 68.5t-62 106t-20 137zM639 1542l240 260h190l-317 -260h-113z" />
<glyph unicode="&#xdb;" horiz-adv-x="1208" d="M132.5 313q1.5 75 14.5 160l172 961h130l-173 -965q-12 -67 -14.5 -117.5t7 -101t34.5 -82.5t74 -52t121 -20q89 0 157.5 28.5t112 81.5t70 117t41.5 146l170 965h129l-172 -971q-15 -85 -39.5 -154.5t-65.5 -132.5t-96.5 -106t-134.5 -68t-176 -25t-168 24.5 t-111.5 68.5t-62 106t-20 137zM528 1542l209 260h152l117 -260h-88l-113 182l-174 -182h-103z" />
<glyph unicode="&#xdc;" horiz-adv-x="1208" d="M132.5 313q1.5 75 14.5 160l172 961h130l-173 -965q-12 -67 -14.5 -117.5t7 -101t34.5 -82.5t74 -52t121 -20q89 0 157.5 28.5t112 81.5t70 117t41.5 146l170 965h129l-172 -971q-15 -85 -39.5 -154.5t-65.5 -132.5t-96.5 -106t-134.5 -68t-176 -25t-168 24.5 t-111.5 68.5t-62 106t-20 137zM567 1563l33 174h131l-31 -174h-133zM848 1563l31 174h131l-31 -174h-131z" />
<glyph unicode="&#xdd;" horiz-adv-x="1064" d="M182 1434h135l218 -750l475 750h153l-579 -865l-99 -569h-129l99 567zM563 1542l240 260h190l-317 -260h-113z" />
<glyph unicode="&#xde;" horiz-adv-x="1126" d="M76 0l254 1434h129l-45 -265h243q187 0 292.5 -83t105.5 -261q0 -250 -149 -383t-394 -133h-252l-55 -309h-129zM281 426h237q174 0 289 100.5t115 292.5q0 121 -72 177.5t-195 56.5h-262z" />
<glyph unicode="&#xdf;" horiz-adv-x="1089" d="M43 0l184 1049q22 124 63.5 213t99.5 139.5t125 73t149 22.5q154 0 243.5 -74t89.5 -206q0 -64 -21.5 -120t-43.5 -80l-21 -24q-217 -73 -217 -215q0 -17 2.5 -31.5t10 -30.5t12.5 -26t20.5 -29t22.5 -27.5t29.5 -33.5l31.5 -35q67 -70 101 -130.5t34 -145.5 q0 -141 -95.5 -226.5t-229.5 -85.5q-144 0 -309 111l71 88q125 -88 230 -88q83 0 146 54t63 145q0 53 -25.5 99.5t-85.5 109.5q-8 8 -32.5 33.5t-36 38t-30.5 39t-28.5 47.5t-17 52t-7.5 64q0 47 13 87.5t38.5 71.5t49.5 53t62 42t58 29t54 22q31 64 31 129 q0 88 -55.5 137.5t-155.5 49.5q-253 0 -314 -349l-184 -1042h-125z" />
<glyph unicode="&#xe0;" horiz-adv-x="1034" d="M82 328q0 209 54 384t154.5 280.5t227.5 105.5q47 0 91.5 -16.5t82.5 -47t64 -57t55 -62.5l29 160h125l-191 -1075h-125l31 176q-181 -199 -352 -199q-105 0 -175.5 87t-70.5 264zM211 342q0 -120 38 -187t111 -67q89 0 170.5 57.5t171.5 159.5l89 496q-122 186 -254 186 q-97 0 -173.5 -99.5t-114.5 -245t-38 -300.5zM440 1493h166l166 -260h-98z" />
<glyph unicode="&#xe1;" horiz-adv-x="1032" d="M82 328q0 209 54 384t154.5 280.5t227.5 105.5q47 0 91.5 -16.5t82.5 -47t64 -57t55 -62.5l29 160h125l-191 -1075h-125l31 176q-181 -199 -352 -199q-105 0 -175.5 87t-70.5 264zM211 342q0 -120 38 -187t111 -67q89 0 170.5 57.5t171.5 159.5l89 496q-122 186 -254 186 q-97 0 -173.5 -99.5t-114.5 -245t-38 -300.5zM487 1233l240 260h191l-318 -260h-113z" />
<glyph unicode="&#xe2;" horiz-adv-x="1034" d="M82 328q0 209 54 384t154.5 280.5t227.5 105.5q47 0 91.5 -16.5t82.5 -47t64 -57t55 -62.5l29 160h125l-191 -1075h-125l31 176q-181 -199 -352 -199q-105 0 -175.5 87t-70.5 264zM211 342q0 -120 38 -187t111 -67q89 0 170.5 57.5t171.5 159.5l89 496q-122 186 -254 186 q-97 0 -173.5 -99.5t-114.5 -245t-38 -300.5zM408 1233l208 260h152l117 -260h-88l-113 182l-174 -182h-102z" />
<glyph unicode="&#xe3;" horiz-adv-x="1034" d="M82 328q0 209 54 384t154.5 280.5t227.5 105.5q47 0 91.5 -16.5t82.5 -47t64 -57t55 -62.5l29 160h125l-191 -1075h-125l31 176q-181 -199 -352 -199q-105 0 -175.5 87t-70.5 264zM211 342q0 -120 38 -187t111 -67q89 0 170.5 57.5t171.5 159.5l89 496q-122 186 -254 186 q-97 0 -173.5 -99.5t-114.5 -245t-38 -300.5zM410 1300q47 78 83 112t85 34q37 0 71.5 -25t64 -50t52.5 -25q20 0 41.5 19t56.5 77l66 -47q-47 -78 -83 -112t-85 -34q-37 0 -72 25.5t-64.5 50.5t-52.5 25q-21 0 -41.5 -18t-56.5 -75z" />
<glyph unicode="&#xe4;" horiz-adv-x="1034" d="M82 328q0 209 54 384t154.5 280.5t227.5 105.5q47 0 91.5 -16.5t82.5 -47t64 -57t55 -62.5l29 160h125l-191 -1075h-125l31 176q-181 -199 -352 -199q-105 0 -175.5 87t-70.5 264zM211 342q0 -120 38 -187t111 -67q89 0 170.5 57.5t171.5 159.5l89 496q-122 186 -254 186 q-97 0 -173.5 -99.5t-114.5 -245t-38 -300.5zM449 1253l32 174h131l-30 -174h-133zM729 1253l31 174h131l-31 -174h-131z" />
<glyph unicode="&#xe5;" horiz-adv-x="1034" d="M82 328q0 209 54 384t154.5 280.5t227.5 105.5q47 0 91.5 -16.5t82.5 -47t64 -57t55 -62.5l29 160h125l-191 -1075h-125l31 176q-181 -199 -352 -199q-105 0 -175.5 87t-70.5 264zM211 342q0 -120 38 -187t111 -67q89 0 170.5 57.5t171.5 159.5l89 496q-122 186 -254 186 q-97 0 -173.5 -99.5t-114.5 -245t-38 -300.5zM487 1405q0 80 56 137t137 57t137.5 -57t56.5 -137q0 -82 -56 -137.5t-138 -55.5t-137.5 55.5t-55.5 137.5zM567 1405q0 -47 33 -81t80 -34q49 0 83 33.5t34 81.5t-34 81.5t-83 33.5q-47 0 -80 -34t-33 -81z" />
<glyph unicode="&#xe6;" horiz-adv-x="1579" d="M82 328q0 209 54 384t154.5 280.5t227.5 105.5q47 0 91.5 -16.5t82.5 -47t64 -57t55 -62.5l29 160h125l-13 -65q122 88 265 88q135 0 210.5 -70.5t75.5 -187.5q0 -172 -148.5 -271.5t-428.5 -99.5h-92q-3 -27 -3 -55q0 -159 52 -244.5t151 -85.5q30 0 64.5 8.5t59.5 18 t63 30t53 30t51.5 33.5t38.5 25l51 -92q-232 -160 -399 -160q-146 0 -228 111l-14 -88h-123l31 178q-183 -201 -354 -201q-105 0 -175.5 87t-70.5 264zM211 342q0 -120 38 -187t111 -67q89 0 171.5 58t173.5 161l4 25q-4 45 -4 86q0 220 81 387q-122 182 -249 182 q-97 0 -173.5 -99.5t-114.5 -245t-38 -300.5zM842 563h98q216 0 327 77t111 198q0 74 -47.5 114.5t-122.5 40.5q-134 0 -234.5 -119t-131.5 -311z" />
<glyph unicode="&#xe7;" horiz-adv-x="886" d="M80 397q0 130 27 244.5t73 196.5t105.5 142t125.5 89t132 29q28 0 56.5 -5t51.5 -12t49.5 -20.5t43 -22.5t41 -26.5t34 -25t31 -25t24.5 -19.5l-71 -84q-4 3 -24 19.5t-33.5 27.5t-39 27.5t-46.5 27t-49 18t-54 7.5q-88 0 -168 -73t-131 -207.5t-51 -296.5 q0 -152 50 -235t144 -83q36 0 82.5 16.5t77 33.5t74 44t49.5 31l51 -98q-3 -2 -25.5 -15.5t-31 -18.5t-32 -18t-37 -19.5t-37 -18t-42 -17.5t-40.5 -13t-44 -11t-43 -6q29 -65 29 -130q0 -87 -51.5 -140.5t-138.5 -53.5q-73 0 -131 37l47 84q42 -27 86 -27q45 0 76.5 31 t31.5 96q0 38 -16 105q-117 15 -186.5 125t-69.5 290z" />
<glyph unicode="&#xe8;" horiz-adv-x="954" d="M82 418q0 193 64 348t181 243.5t267 88.5q135 0 211 -71t76 -187q0 -172 -149 -271.5t-429 -99.5h-92l-2 -55q0 -159 52 -244.5t151 -85.5q30 0 64 8.5t60 18t62.5 30t52.5 30.5t51 33t39 25l52 -92q-232 -160 -400 -160q-144 0 -227.5 112.5t-83.5 328.5zM219 563h98 q216 0 327.5 77t111.5 198q0 74 -47.5 114.5t-122.5 40.5q-134 0 -235 -119t-132 -311zM414 1493h166l165 -260h-98z" />
<glyph unicode="&#xe9;" horiz-adv-x="956" d="M82 418q0 193 64 348t181 243.5t267 88.5q135 0 211 -71t76 -187q0 -172 -149 -271.5t-429 -99.5h-92l-2 -55q0 -159 52 -244.5t151 -85.5q30 0 64 8.5t60 18t62.5 30t52.5 30.5t51 33t39 25l52 -92q-232 -160 -400 -160q-144 0 -227.5 112.5t-83.5 328.5zM219 563h98 q216 0 327.5 77t111.5 198q0 74 -47.5 114.5t-122.5 40.5q-134 0 -235 -119t-132 -311zM492 1233l239 260h191l-318 -260h-112z" />
<glyph unicode="&#xea;" horiz-adv-x="954" d="M82 418q0 193 64 348t181 243.5t267 88.5q135 0 211 -71t76 -187q0 -172 -149 -271.5t-429 -99.5h-92l-2 -55q0 -159 52 -244.5t151 -85.5q30 0 64 8.5t60 18t62.5 30t52.5 30.5t51 33t39 25l52 -92q-232 -160 -400 -160q-144 0 -227.5 112.5t-83.5 328.5zM219 563h98 q216 0 327.5 77t111.5 198q0 74 -47.5 114.5t-122.5 40.5q-134 0 -235 -119t-132 -311zM381 1233l209 260h151l117 -260h-88l-113 182l-174 -182h-102z" />
<glyph unicode="&#xeb;" horiz-adv-x="954" d="M82 418q0 193 64 348t181 243.5t267 88.5q135 0 211 -71t76 -187q0 -172 -149 -271.5t-429 -99.5h-92l-2 -55q0 -159 52 -244.5t151 -85.5q30 0 64 8.5t60 18t62.5 30t52.5 30.5t51 33t39 25l52 -92q-232 -160 -400 -160q-144 0 -227.5 112.5t-83.5 328.5zM219 563h98 q216 0 327.5 77t111.5 198q0 74 -47.5 114.5t-122.5 40.5q-134 0 -235 -119t-132 -311zM418 1253l33 174h131l-31 -174h-133zM698 1253l31 174h131l-31 -174h-131z" />
<glyph unicode="&#xec;" horiz-adv-x="428" d="M43 0l190 1075h123l-188 -1075h-125zM117 1493h166l166 -260h-99z" />
<glyph unicode="&#xed;" horiz-adv-x="430" d="M43 0l190 1075h123l-188 -1075h-125zM197 1233l239 260h191l-318 -260h-112z" />
<glyph unicode="&#xee;" horiz-adv-x="428" d="M43 0l190 1075h123l-188 -1075h-125zM84 1233l209 260h151l117 -260h-88l-113 182l-174 -182h-102z" />
<glyph unicode="&#xef;" horiz-adv-x="432" d="M43 0l190 1075h123l-188 -1075h-125zM123 1253l33 174h131l-31 -174h-133zM403 1253l31 174h131l-30 -174h-132z" />
<glyph unicode="&#xf0;" horiz-adv-x="1044" d="M72 381q0 122 36 232t98 189.5t149 126t184 46.5q59 0 109.5 -18.5t80 -43t53 -55t31.5 -47t12 -27.5q-2 154 -46 287.5t-136 200.5l-127 -105h-143l180 148q-45 10 -82 10q-31 0 -64 -4.5t-50 -8.5l-17 -5l-4 108q63 19 145 19q96 0 174 -35l117 94h141l-176 -145 q100 -80 152.5 -229.5t52.5 -356.5q0 -359 -141 -572t-373 -213q-166 0 -261 105.5t-95 298.5zM201 377q0 -133 55 -212t176 -79q74 0 135.5 32t102.5 83.5t69.5 117.5t41 132t12.5 129q0 133 -60 209.5t-176 76.5q-67 0 -125 -27.5t-99.5 -75t-71.5 -110t-45 -133 t-15 -143.5z" />
<glyph unicode="&#xf1;" d="M43 0l190 1075h123l-26 -153q218 176 385 176q126 0 174 -86.5t22 -231.5l-137 -780h-123l135 768q38 221 -112 221q-87 0 -191 -61t-176 -129l-139 -799h-125zM387 1300q47 78 83 112t85 34q37 0 71.5 -25t64 -50t52.5 -25q20 0 42 19t57 77l65 -47q-47 -78 -83 -112 t-85 -34q-29 0 -57.5 16t-47.5 34.5t-41.5 34.5t-41.5 16q-21 0 -41.5 -18t-56.5 -75z" />
<glyph unicode="&#xf2;" horiz-adv-x="1034" d="M80 383q0 127 31.5 251.5t89.5 229t152 169.5t208 65q168 0 267.5 -101t99.5 -305q0 -100 -19 -201t-59 -193.5t-96 -164t-135 -114t-170 -42.5q-168 0 -268.5 101t-100.5 305zM207 381q0 -297 239 -297q88 0 159.5 64t112.5 160.5t63 197.5t22 188q0 297 -242 297 q-71 0 -131.5 -42.5t-100.5 -109.5t-68.5 -149.5t-41 -161.5t-12.5 -147zM420 1493h166l166 -260h-99z" />
<glyph unicode="&#xf3;" horiz-adv-x="1036" d="M80 383q0 127 31.5 251.5t89.5 229t152 169.5t208 65q168 0 267.5 -101t99.5 -305q0 -100 -19 -201t-59 -193.5t-96 -164t-135 -114t-170 -42.5q-168 0 -268.5 101t-100.5 305zM207 381q0 -297 239 -297q88 0 159.5 64t112.5 160.5t63 197.5t22 188q0 297 -242 297 q-71 0 -131.5 -42.5t-100.5 -109.5t-68.5 -149.5t-41 -161.5t-12.5 -147zM500 1233l239 260h191l-318 -260h-112z" />
<glyph unicode="&#xf4;" horiz-adv-x="1034" d="M80 383q0 127 31.5 251.5t89.5 229t152 169.5t208 65q168 0 267.5 -101t99.5 -305q0 -100 -19 -201t-59 -193.5t-96 -164t-135 -114t-170 -42.5q-168 0 -268.5 101t-100.5 305zM207 381q0 -297 239 -297q88 0 159.5 64t112.5 160.5t63 197.5t22 188q0 297 -242 297 q-71 0 -131.5 -42.5t-100.5 -109.5t-68.5 -149.5t-41 -161.5t-12.5 -147zM389 1233l209 260h152l116 -260h-88l-112 182l-174 -182h-103z" />
<glyph unicode="&#xf5;" horiz-adv-x="1034" d="M80 383q0 127 31.5 251.5t89.5 229t152 169.5t208 65q168 0 267.5 -101t99.5 -305q0 -100 -19 -201t-59 -193.5t-96 -164t-135 -114t-170 -42.5q-168 0 -268.5 101t-100.5 305zM207 381q0 -297 239 -297q88 0 159.5 64t112.5 160.5t63 197.5t22 188q0 297 -242 297 q-71 0 -131.5 -42.5t-100.5 -109.5t-68.5 -149.5t-41 -161.5t-12.5 -147zM387 1300q47 78 83 112t85 34q37 0 71.5 -25t64 -50t52.5 -25q20 0 42 19t57 77l65 -47q-47 -78 -83 -112t-85 -34q-29 0 -57.5 16t-47.5 34.5t-41.5 34.5t-41.5 16q-21 0 -41.5 -18t-56.5 -75z" />
<glyph unicode="&#xf6;" horiz-adv-x="1034" d="M80 383q0 127 31.5 251.5t89.5 229t152 169.5t208 65q168 0 267.5 -101t99.5 -305q0 -100 -19 -201t-59 -193.5t-96 -164t-135 -114t-170 -42.5q-168 0 -268.5 101t-100.5 305zM207 381q0 -297 239 -297q88 0 159.5 64t112.5 160.5t63 197.5t22 188q0 297 -242 297 q-71 0 -131.5 -42.5t-100.5 -109.5t-68.5 -149.5t-41 -161.5t-12.5 -147zM426 1253l33 174h131l-31 -174h-133zM707 1253l30 174h131l-30 -174h-131z" />
<glyph unicode="&#xf7;" horiz-adv-x="1048" d="M109 629l18 106h831l-18 -106h-831zM381 350q0 38 27 66t65 28t66 -28t28 -66t-28 -65t-66 -27t-65 27t-27 65zM498 1016q0 38 28 66t66 28t65 -28t27 -66t-27 -66t-65 -28t-66 28t-28 66z" />
<glyph unicode="&#xf8;" horiz-adv-x="1034" d="M23 0l112 139q-55 96 -55 244q0 127 31.5 251.5t89.5 229t152 169.5t208 65q165 0 262 -97l58 74h104l-113 -139q56 -98 56 -244q0 -100 -19 -201t-59 -193.5t-96 -164t-135 -114t-170 -42.5q-163 0 -263 95l-57 -72h-106zM207 381q0 -79 14 -131l527 659q-58 82 -187 82 q-71 0 -131.5 -42.5t-100.5 -109.5t-68.5 -149.5t-41 -161.5t-12.5 -147zM260 166q58 -82 186 -82q88 0 159.5 64t112.5 160.5t63 197.5t22 188q0 68 -17 131z" />
<glyph unicode="&#xf9;" d="M88 293l137 782h125l-137 -768q-37 -221 115 -221q86 0 187.5 59.5t174.5 126.5l144 803h122l-188 -1075h-125l27 152q-219 -175 -383 -175q-126 0 -175.5 86.5t-23.5 229.5zM412 1493h166l165 -260h-98z" />
<glyph unicode="&#xfa;" d="M88 293l137 782h125l-137 -768q-37 -221 115 -221q86 0 187.5 59.5t174.5 126.5l144 803h122l-188 -1075h-125l27 152q-219 -175 -383 -175q-126 0 -175.5 86.5t-23.5 229.5zM492 1233l239 260h191l-318 -260h-112z" />
<glyph unicode="&#xfb;" d="M88 293l137 782h125l-137 -768q-37 -221 115 -221q86 0 187.5 59.5t174.5 126.5l144 803h122l-188 -1075h-125l27 152q-219 -175 -383 -175q-126 0 -175.5 86.5t-23.5 229.5zM381 1233l209 260h151l117 -260h-88l-113 182l-174 -182h-102z" />
<glyph unicode="&#xfc;" d="M88 293l137 782h125l-137 -768q-37 -221 115 -221q86 0 187.5 59.5t174.5 126.5l144 803h122l-188 -1075h-125l27 152q-219 -175 -383 -175q-126 0 -175.5 86.5t-23.5 229.5zM418 1253l33 174h131l-31 -174h-133zM698 1253l31 174h131l-31 -174h-131z" />
<glyph unicode="&#xfd;" horiz-adv-x="940" d="M-39 -315q139 54 203.5 112.5t132.5 190.5l-160 1087h129l115 -913l438 913h139l-538 -1075q-85 -169 -122 -223q-64 -90 -167 -144q-57 -29 -141 -59zM451 1233l239 260h191l-318 -260h-112z" />
<glyph unicode="&#xfe;" d="M-31 -418l338 1911h123l-100 -565q170 170 321 170q55 0 102.5 -20t86.5 -60t61.5 -109.5t22.5 -160.5q0 -208 -52 -383t-150 -281.5t-222 -106.5q-51 0 -97.5 16t-85.5 45.5t-65 55.5t-57 62l-101 -574h-125zM215 272q127 -184 266 -184q94 0 167.5 99.5t110 244.5 t36.5 299q0 122 -43.5 189t-130.5 67q-79 0 -152.5 -48t-159.5 -134z" />
<glyph unicode="&#xff;" horiz-adv-x="940" d="M-39 -315q139 54 203.5 112.5t132.5 190.5l-160 1087h129l115 -913l438 913h139l-538 -1075q-85 -169 -122 -223q-64 -90 -167 -144q-57 -29 -141 -59zM375 1253l33 174h131l-31 -174h-133zM655 1253l31 174h131l-31 -174h-131z" />
<glyph unicode="&#x100;" horiz-adv-x="1157" d="M-47 0l702 1434h144l196 -1434h-135l-45 373h-541l-174 -373h-147zM328 487h475l-96 807zM512 1593l16 93h484l-17 -93h-483z" />
<glyph unicode="&#x101;" horiz-adv-x="1034" d="M82 328q0 209 54 384t154.5 280.5t227.5 105.5q47 0 91.5 -16.5t82.5 -47t64 -57t55 -62.5l29 160h125l-191 -1075h-125l31 176q-181 -199 -352 -199q-105 0 -175.5 87t-70.5 264zM211 342q0 -120 38 -187t111 -67q89 0 170.5 57.5t171.5 159.5l89 496q-122 186 -254 186 q-97 0 -173.5 -99.5t-114.5 -245t-38 -300.5zM416 1284l16 92h483l-16 -92h-483z" />
<glyph unicode="&#x102;" horiz-adv-x="1157" d="M-47 0l702 1434h144l196 -1434h-135l-45 373h-541l-174 -373h-147zM328 487h475l-96 807zM551 1751h92q-9 -62 16.5 -89.5t88.5 -27.5q150 0 170 117h94q-17 -98 -87.5 -153.5t-181.5 -55.5q-106 0 -157.5 57t-34.5 152z" />
<glyph unicode="&#x103;" horiz-adv-x="1034" d="M82 328q0 209 54 384t154.5 280.5t227.5 105.5q47 0 91.5 -16.5t82.5 -47t64 -57t55 -62.5l29 160h125l-191 -1075h-125l31 176q-181 -199 -352 -199q-105 0 -175.5 87t-70.5 264zM211 342q0 -120 38 -187t111 -67q89 0 170.5 57.5t171.5 159.5l89 496q-122 186 -254 186 q-97 0 -173.5 -99.5t-114.5 -245t-38 -300.5zM449 1442h92q-9 -62 16.5 -89.5t87.5 -27.5q69 0 114.5 28.5t55.5 88.5h94q-17 -98 -87 -153.5t-181 -55.5q-106 0 -157.5 57t-34.5 152z" />
<glyph unicode="&#x104;" horiz-adv-x="1157" d="M-47 0l702 1434h144l196 -1434h-6q-107 -66 -154 -114.5t-47 -102.5q0 -21 9 -34t29 -18t34 -6t42 -1h9l-32 -91q-22 0 -36 0.5t-40.5 4t-43.5 12t-35.5 22t-28 37.5t-9.5 55q0 71 50 127t149 109h-25l-45 373h-541l-174 -373h-147zM328 487h475l-96 807z" />
<glyph unicode="&#x105;" horiz-adv-x="1034" d="M82 328q0 209 54 384t154.5 280.5t227.5 105.5q47 0 91.5 -16.5t82.5 -47t64 -57t55 -62.5l29 160h125l-191 -1075h-8q-107 -66 -154 -114.5t-47 -102.5q0 -21 9 -34t29 -18t34 -6t42 -1h9l-33 -91q-27 0 -44.5 1t-48.5 7.5t-50 19.5t-34 39.5t-15 63.5q0 71 50 127 t149 109h-13l31 176q-181 -199 -352 -199q-105 0 -175.5 87t-70.5 264zM211 342q0 -120 38 -187t111 -67q89 0 170.5 57.5t171.5 159.5l89 496q-122 186 -254 186q-97 0 -173.5 -99.5t-114.5 -245t-38 -300.5z" />
<glyph unicode="&#x106;" horiz-adv-x="1103" d="M129 520q0 164 31 311t86.5 259.5t129.5 195.5t163.5 126.5t185.5 43.5q52 0 102.5 -14t89.5 -33t82.5 -51.5t71 -57.5t66.5 -63l-80 -88q-93 95 -169 140.5t-157 45.5q-125 0 -232.5 -105.5t-172 -294t-64.5 -415.5q0 -214 65 -318t173 -104q150 0 391 187l63 -101 q-137 -96 -251 -151.5t-226 -55.5q-158 0 -253 133.5t-95 409.5zM690 1542l240 260h190l-317 -260h-113z" />
<glyph unicode="&#x107;" horiz-adv-x="886" d="M80 397q0 130 27 244.5t73 196.5t105.5 142t125.5 89t132 29q28 0 56.5 -5t51.5 -12t49.5 -20.5t43 -22.5t41 -26.5t34 -25t31 -25t24.5 -19.5l-71 -84q-4 3 -24 19.5t-33.5 27.5t-39 27.5t-46.5 27t-49 18t-54 7.5q-88 0 -168 -73t-131 -207.5t-51 -296.5 q0 -152 50 -235t144 -83q36 0 82.5 16.5t77 33.5t74 44t49.5 31l51 -98q-4 -2 -35.5 -21t-45.5 -27t-46.5 -25.5t-55.5 -26t-54 -19.5t-60.5 -16t-58.5 -5q-134 0 -216.5 112.5t-82.5 307.5zM471 1233l240 260h190l-317 -260h-113z" />
<glyph unicode="&#x10a;" horiz-adv-x="1103" d="M129 520q0 164 31 311t86.5 259.5t129.5 195.5t163.5 126.5t185.5 43.5q52 0 102.5 -14t89.5 -33t82.5 -51.5t71 -57.5t66.5 -63l-80 -88q-93 95 -169 140.5t-157 45.5q-125 0 -232.5 -105.5t-172 -294t-64.5 -415.5q0 -214 65 -318t173 -104q150 0 391 187l63 -101 q-137 -96 -251 -151.5t-226 -55.5q-158 0 -253 133.5t-95 409.5zM698 1563l33 176h133l-33 -176h-133z" />
<glyph unicode="&#x10b;" horiz-adv-x="886" d="M80 397q0 130 27 244.5t73 196.5t105.5 142t125.5 89t132 29q28 0 56.5 -5t51.5 -12t49.5 -20.5t43 -22.5t41 -26.5t34 -25t31 -25t24.5 -19.5l-71 -84q-4 3 -24 19.5t-33.5 27.5t-39 27.5t-46.5 27t-49 18t-54 7.5q-88 0 -168 -73t-131 -207.5t-51 -296.5 q0 -152 50 -235t144 -83q36 0 82.5 16.5t77 33.5t74 44t49.5 31l51 -98q-4 -2 -35.5 -21t-45.5 -27t-46.5 -25.5t-55.5 -26t-54 -19.5t-60.5 -16t-58.5 -5q-134 0 -216.5 112.5t-82.5 307.5zM535 1253l32 177h133l-32 -177h-133z" />
<glyph unicode="&#x10c;" horiz-adv-x="1103" d="M129 520q0 164 31 311t86.5 259.5t129.5 195.5t163.5 126.5t185.5 43.5q52 0 102.5 -14t89.5 -33t82.5 -51.5t71 -57.5t66.5 -63l-80 -88q-93 95 -169 140.5t-157 45.5q-125 0 -232.5 -105.5t-172 -294t-64.5 -415.5q0 -214 65 -318t173 -104q150 0 391 187l63 -101 q-137 -96 -251 -151.5t-226 -55.5q-158 0 -253 133.5t-95 409.5zM588 1802h86l114 -182l175 182h100l-209 -260h-149z" />
<glyph unicode="&#x10d;" horiz-adv-x="884" d="M80 397q0 130 27 244.5t73 196.5t105.5 142t125.5 89t132 29q28 0 56.5 -5t51.5 -12t49.5 -20.5t43 -22.5t41 -26.5t34 -25t31 -25t24.5 -19.5l-71 -84q-4 3 -24 19.5t-33.5 27.5t-39 27.5t-46.5 27t-49 18t-54 7.5q-88 0 -168 -73t-131 -207.5t-51 -296.5 q0 -152 50 -235t144 -83q36 0 82.5 16.5t77 33.5t74 44t49.5 31l51 -98q-4 -2 -35.5 -21t-45.5 -27t-46.5 -25.5t-55.5 -26t-54 -19.5t-60.5 -16t-58.5 -5q-134 0 -216.5 112.5t-82.5 307.5zM406 1493h86l114 -182l174 182h101l-209 -260h-150z" />
<glyph unicode="&#x10e;" horiz-adv-x="1210" d="M76 0l254 1434h262q249 0 388.5 -132.5t139.5 -392.5q0 -196 -50.5 -362.5t-143.5 -288t-234 -190t-313 -68.5h-303zM225 117h146q277 0 446.5 212.5t169.5 577.5q0 216 -107 313t-307 97h-135zM604 1802h86l115 -182l174 182h100l-209 -260h-149z" />
<glyph unicode="&#x10f;" horiz-adv-x="1067" d="M82 328q0 209 54 384t154.5 280.5t227.5 105.5q47 0 91.5 -16.5t82.5 -47t64 -57t55 -62.5l102 578h125l-264 -1493h-125l31 176q-181 -199 -352 -199q-105 0 -175.5 87t-70.5 264zM211 342q0 -120 38 -187t111 -67q89 0 170.5 57.5t171.5 159.5l89 496 q-122 186 -254 186q-97 0 -173.5 -99.5t-114.5 -245t-38 -300.5zM1063 1133l102 178h-59l31 182h127l-19 -186l-147 -217z" />
<glyph unicode="&#x110;" horiz-adv-x="1224" d="M82 659l20 115h125l117 660h262q249 0 389 -132.5t140 -392.5q0 -262 -86.5 -466.5t-256.5 -323.5t-399 -119h-303l117 659h-125zM240 117h145q277 0 446.5 212.5t169.5 577.5q0 216 -106.5 313t-306.5 97h-135l-97 -543h285l-18 -115h-287z" />
<glyph unicode="&#x111;" horiz-adv-x="1036" d="M82 328q0 209 54 384t154.5 280.5t227.5 105.5q47 0 91.5 -16.5t82.5 -47t64 -57t55 -62.5l55 312h-282l16 94h283l30 172h125l-30 -172h108l-16 -94h-109l-217 -1227h-125l31 176q-181 -199 -352 -199q-105 0 -175.5 87t-70.5 264zM211 342q0 -120 38 -187t111 -67 q89 0 170.5 57.5t171.5 159.5l89 496q-122 186 -254 186q-97 0 -173.5 -99.5t-114.5 -245t-38 -300.5z" />
<glyph unicode="&#x112;" horiz-adv-x="1026" d="M76 0l254 1434h725l-23 -117h-594l-94 -541h494l-23 -117h-491l-99 -542h611l-23 -117h-737zM485 1593l17 93h483l-16 -93h-484z" />
<glyph unicode="&#x113;" horiz-adv-x="954" d="M82 418q0 193 64 348t181 243.5t267 88.5q135 0 211 -71t76 -187q0 -172 -149 -271.5t-429 -99.5h-92l-2 -55q0 -159 52 -244.5t151 -85.5q30 0 64 8.5t60 18t62.5 30t52.5 30.5t51 33t39 25l52 -92q-232 -160 -400 -160q-144 0 -227.5 112.5t-83.5 328.5zM219 563h98 q216 0 327.5 77t111.5 198q0 74 -47.5 114.5t-122.5 40.5q-134 0 -235 -119t-132 -311zM389 1284l17 92h483l-17 -92h-483z" />
<glyph unicode="&#x116;" horiz-adv-x="1026" d="M76 0l254 1434h725l-23 -117h-594l-94 -541h494l-23 -117h-491l-99 -542h611l-23 -117h-737zM655 1563l33 176h133l-33 -176h-133z" />
<glyph unicode="&#x117;" horiz-adv-x="954" d="M82 418q0 193 64 348t181 243.5t267 88.5q135 0 211 -71t76 -187q0 -172 -149 -271.5t-429 -99.5h-92l-2 -55q0 -159 52 -244.5t151 -85.5q30 0 64 8.5t60 18t62.5 30t52.5 30.5t51 33t39 25l52 -92q-232 -160 -400 -160q-144 0 -227.5 112.5t-83.5 328.5zM219 563h98 q216 0 327.5 77t111.5 198q0 74 -47.5 114.5t-122.5 40.5q-134 0 -235 -119t-132 -311zM555 1253l33 177h133l-33 -177h-133z" />
<glyph unicode="&#x118;" horiz-adv-x="1026" d="M76 0l254 1434h725l-23 -117h-594l-94 -541h494l-23 -117h-491l-99 -542h611l-23 -117h-6q-107 -66 -154 -114.5t-47 -102.5q0 -21 9 -34t29 -18t34 -6t42 -1h9l-33 -91q-27 0 -44.5 1t-48.5 7.5t-50 19.5t-34 39.5t-15 63.5q0 71 50 127t148 109h-626z" />
<glyph unicode="&#x119;" horiz-adv-x="954" d="M82 418q0 193 64 348t181 243.5t267 88.5q135 0 211 -71t76 -187q0 -172 -149 -271.5t-429 -99.5h-92l-2 -55q0 -159 52 -244.5t151 -85.5q30 0 64 8.5t60 18t62.5 30t52.5 30.5t51 33t39 25l52 -92q-149 -104 -269 -139q-106 -66 -152 -114t-46 -101q0 -21 9 -34t29 -18 t34 -6t42 -1h9l-33 -91q-22 0 -36 0.5t-40.5 4t-43.5 12t-35.5 22t-28 37.5t-9.5 55q0 119 160 213q-140 5 -220.5 116.5t-80.5 324.5zM219 563h98q216 0 327.5 77t111.5 198q0 74 -47.5 114.5t-122.5 40.5q-134 0 -235 -119t-132 -311z" />
<glyph unicode="&#x11a;" horiz-adv-x="1026" d="M76 0l254 1434h725l-23 -117h-594l-94 -541h494l-23 -117h-491l-99 -542h611l-23 -117h-737zM526 1802h86l115 -182l174 182h100l-208 -260h-150z" />
<glyph unicode="&#x11b;" horiz-adv-x="954" d="M82 418q0 193 64 348t181 243.5t267 88.5q135 0 211 -71t76 -187q0 -172 -149 -271.5t-429 -99.5h-92l-2 -55q0 -159 52 -244.5t151 -85.5q30 0 64 8.5t60 18t62.5 30t52.5 30.5t51 33t39 25l52 -92q-232 -160 -400 -160q-144 0 -227.5 112.5t-83.5 328.5zM219 563h98 q216 0 327.5 77t111.5 198q0 74 -47.5 114.5t-122.5 40.5q-134 0 -235 -119t-132 -311zM428 1493h86l115 -182l174 182h100l-209 -260h-149z" />
<glyph unicode="&#x11e;" horiz-adv-x="1210" d="M129 500q0 224 50 408.5t134 302.5t190 181.5t222 63.5q65 0 128.5 -21t120 -59t97 -74t86.5 -83l-84 -86q-34 33 -43.5 42t-46 42t-59 46.5t-58 34t-69.5 29t-68 8.5q-125 0 -231.5 -104.5t-170 -293.5t-63.5 -421q0 -197 60 -308.5t174 -111.5q160 0 395 223l59 336 h-325l20 113h451l-135 -768h-125l30 182q-102 -94 -197.5 -149.5t-197.5 -55.5q-153 0 -248.5 132.5t-95.5 390.5zM573 1751h93q-9 -62 16.5 -89.5t87.5 -27.5q150 0 170 117h94q-17 -98 -87 -153.5t-181 -55.5q-106 0 -158 57t-35 152z" />
<glyph unicode="&#x11f;" horiz-adv-x="1034" d="M-16 -365l45 111q204 -76 338 -76q67 0 118 23.5t80.5 63t45.5 79t24 84.5l45 256q-181 -199 -352 -199q-105 0 -175.5 87t-70.5 264q0 209 54.5 384t155 280.5t226.5 105.5q47 0 91.5 -16.5t82.5 -47t64 -57t55 -62.5l29 160h123l-205 -1159q-18 -102 -54 -173 t-88.5 -109.5t-111.5 -55t-133 -16.5q-87 0 -192.5 20t-194.5 53zM211 342q0 -120 38 -187t113 -67q87 0 168 57t172 158l89 498q-122 186 -254 186q-97 0 -173.5 -99.5t-114.5 -245t-38 -300.5zM434 1442h92q-9 -62 16.5 -89.5t88.5 -27.5q69 0 114.5 28.5t55.5 88.5h94 q-17 -98 -87 -153.5t-181 -55.5q-106 0 -158 57t-35 152z" />
<glyph unicode="&#x120;" horiz-adv-x="1210" d="M129 500q0 224 50 408.5t134 302.5t190 181.5t222 63.5q65 0 128.5 -21t120 -59t97 -74t86.5 -83l-84 -86q-34 33 -43.5 42t-46 42t-59 46.5t-58 34t-69.5 29t-68 8.5q-125 0 -231.5 -104.5t-170 -293.5t-63.5 -421q0 -197 60 -308.5t174 -111.5q160 0 395 223l59 336 h-325l20 113h451l-135 -768h-125l30 182q-102 -94 -197.5 -149.5t-197.5 -55.5q-153 0 -248.5 132.5t-95.5 390.5zM702 1563l33 176h133l-32 -176h-134z" />
<glyph unicode="&#x121;" horiz-adv-x="1034" d="M-16 -365l45 111q204 -76 338 -76q67 0 118 23.5t80.5 63t45.5 79t24 84.5l45 256q-181 -199 -352 -199q-105 0 -175.5 87t-70.5 264q0 209 54.5 384t155 280.5t226.5 105.5q47 0 91.5 -16.5t82.5 -47t64 -57t55 -62.5l29 160h123l-205 -1159q-18 -102 -54 -173 t-88.5 -109.5t-111.5 -55t-133 -16.5q-87 0 -192.5 20t-194.5 53zM211 342q0 -120 38 -187t113 -67q87 0 168 57t172 158l89 498q-122 186 -254 186q-97 0 -173.5 -99.5t-114.5 -245t-38 -300.5zM563 1253l33 177h133l-33 -177h-133z" />
<glyph unicode="&#x122;" horiz-adv-x="1210" d="M129 500q0 224 50 408.5t134 302.5t190 181.5t222 63.5q65 0 128.5 -21t120 -59t97 -74t86.5 -83l-84 -86q-34 33 -43.5 42t-46 42t-59 46.5t-58 34t-69.5 29t-68 8.5q-125 0 -231.5 -104.5t-170 -293.5t-63.5 -421q0 -197 60 -308.5t174 -111.5q160 0 395 223l59 336 h-325l20 113h451l-135 -768h-125l30 182q-102 -94 -197.5 -149.5t-197.5 -55.5q-153 0 -248.5 132.5t-95.5 390.5zM360 -494l103 179h-60l31 182h127l-18 -186l-148 -218z" />
<glyph unicode="&#x123;" horiz-adv-x="1034" d="M-16 -365l45 111q204 -76 338 -76q67 0 118 23.5t80.5 63t45.5 79t24 84.5l45 256q-181 -199 -352 -199q-105 0 -175.5 87t-70.5 264q0 209 54.5 384t155 280.5t226.5 105.5q47 0 91.5 -16.5t82.5 -47t64 -57t55 -62.5l29 160h123l-205 -1159q-18 -102 -54 -173 t-88.5 -109.5t-111.5 -55t-133 -16.5q-87 0 -192.5 20t-194.5 53zM211 342q0 -120 38 -187t113 -67q87 0 168 57t172 158l89 498q-122 186 -254 186q-97 0 -173.5 -99.5t-114.5 -245t-38 -300.5zM573 1253l19 187l147 217l35 -43l-102 -178h59l-31 -183h-127z" />
<glyph unicode="&#x126;" horiz-adv-x="1249" d="M88 0l188 1067h-122l16 94h123l49 273h129l-49 -273h596l49 273h129l-49 -273h129l-16 -94h-130l-188 -1067h-129l123 694h-596l-123 -694h-129zM360 809h596l45 258h-595z" />
<glyph unicode="&#x127;" d="M43 0l217 1227h-108l16 94h108l31 172h123l-31 -172h285l-16 -94h-285l-53 -305q218 176 385 176q125 0 173.5 -86t22.5 -230l-137 -782h-125l135 768q43 221 -110 221q-87 0 -191 -61t-176 -129l-139 -799h-125z" />
<glyph unicode="&#x128;" horiz-adv-x="501" d="M76 0l254 1434h129l-254 -1434h-129zM176 1610q47 78 83 111.5t85 33.5q37 0 71.5 -25t64 -50t52.5 -25q20 0 42 19t57 77l65 -47q-47 -78 -83 -111.5t-85 -33.5q-37 0 -71.5 25t-64 50t-52.5 25q-21 0 -42 -17.5t-56 -74.5z" />
<glyph unicode="&#x129;" horiz-adv-x="432" d="M43 0l190 1075h123l-188 -1075h-125zM86 1300q47 78 83 112t85 34q37 0 71.5 -25t64 -50t52.5 -25q20 0 42 19t57 77l65 -47q-47 -78 -83 -112t-85 -34q-29 0 -57.5 16t-47.5 34.5t-41.5 34.5t-41.5 16q-21 0 -41.5 -18t-56.5 -75z" />
<glyph unicode="&#x12a;" horiz-adv-x="499" d="M76 0l254 1434h129l-254 -1434h-129zM182 1593l17 93h483l-16 -93h-484z" />
<glyph unicode="&#x12b;" horiz-adv-x="430" d="M43 0l190 1075h123l-188 -1075h-125zM90 1284l16 92h484l-17 -92h-483z" />
<glyph unicode="&#x12c;" horiz-adv-x="499" d="M76 0l254 1434h129l-254 -1434h-129zM221 1751h92q-9 -62 16.5 -89.5t88.5 -27.5q150 0 170 117h94q-17 -98 -87 -153.5t-181 -55.5q-106 0 -158 57t-35 152z" />
<glyph unicode="&#x12d;" horiz-adv-x="428" d="M43 0l190 1075h123l-188 -1075h-125zM131 1442h92q-9 -62 16.5 -89.5t88.5 -27.5q150 0 170 117h94q-17 -98 -87 -153.5t-181 -55.5q-106 0 -158 57t-35 152z" />
<glyph unicode="&#x12e;" horiz-adv-x="497" d="M-104 -236q0 71 50 127t148 109h-18l254 1434h129l-254 -1434h-6q-107 -66 -154 -114.5t-47 -102.5q0 -21 9 -34t29 -18t34 -6t42 -1h9l-33 -91q-27 0 -44.5 1t-48.5 7.5t-50 19.5t-34 39.5t-15 63.5z" />
<glyph unicode="&#x12f;" horiz-adv-x="428" d="M-141 -236q0 71 50 127t148 109h-14l190 1075h123l-188 -1075h-6q-107 -66 -154 -114.5t-47 -102.5q0 -21 9 -34t29 -18t34 -6t42 -1h9l-33 -91q-27 0 -44.5 1t-48.5 7.5t-50 19.5t-34 39.5t-15 63.5zM266 1309l33 178h139l-32 -178h-140z" />
<glyph unicode="&#x130;" horiz-adv-x="499" d="M76 0l254 1434h129l-254 -1434h-129zM350 1563l33 176h133l-33 -176h-133z" />
<glyph unicode="&#x131;" horiz-adv-x="428" d="M43 0l190 1075h123l-188 -1075h-125z" />
<glyph unicode="&#x132;" horiz-adv-x="999" d="M76 0l254 1434h129l-254 -1434h-129zM350 -172q52 18 87 33t60.5 33t39.5 32t24.5 40.5t15 47t11.5 62.5l241 1358h129l-239 -1354q-25 -132 -44 -176q-32 -72 -116 -117q-62 -34 -180 -70z" />
<glyph unicode="&#x133;" horiz-adv-x="849" d="M43 0l190 1075h123l-188 -1075h-125zM209 -322q53 19 88 34t61 34t40 33t24.5 41.5t15 48.5t11.5 63l202 1143h125l-203 -1138q-24 -133 -44 -179q-33 -72 -118 -117q-62 -33 -178 -67zM266 1309l33 178h139l-32 -178h-140zM684 1309l33 178h139l-33 -178h-139z" />
<glyph unicode="&#x134;" horiz-adv-x="497" d="M-150 -172q52 18 87 33t60.5 33t39.5 32t24.5 40.5t15 47t11.5 62.5l242 1358h129l-240 -1354q-25 -132 -44 -176q-32 -72 -116 -117q-62 -34 -180 -70zM176 1542l209 260h152l116 -260h-88l-112 182l-174 -182h-103z" />
<glyph unicode="&#x135;" horiz-adv-x="430" d="M-209 -322q53 19 88 34t61 34t40 33t25 41.5t15.5 48t12.5 63.5l200 1143h125l-200 -1138q-25 -133 -45 -178q-33 -72 -117 -117q-63 -34 -180 -68zM84 1233l209 260h151l117 -260h-88l-113 182l-174 -182h-102z" />
<glyph unicode="&#x136;" horiz-adv-x="1110" d="M76 0l254 1434h129l-144 -807l691 807h165l-600 -686l400 -748h-148l-338 649l-206 -237l-74 -412h-129zM291 -494l102 179h-59l31 182h127l-19 -186l-147 -218z" />
<glyph unicode="&#x137;" horiz-adv-x="880" d="M43 0l264 1493h123l-174 -993l471 575h152l-381 -442l241 -633h-127l-198 537l-191 -222l-55 -315h-125zM193 -494l102 179h-59l30 182h127l-18 -186l-148 -218z" />
<glyph unicode="&#x138;" horiz-adv-x="880" d="M43 0l190 1075h123l-102 -575l473 575h152l-381 -442l241 -633h-127l-198 537l-191 -222l-55 -315h-125z" />
<glyph unicode="&#x139;" horiz-adv-x="935" d="M76 0l254 1434h129l-234 -1317h582l-21 -117h-710zM287 1542l239 260h191l-318 -260h-112z" />
<glyph unicode="&#x13a;" horiz-adv-x="448" d="M53 0l264 1493h123l-264 -1493h-123zM272 1602l240 260h190l-317 -260h-113z" />
<glyph unicode="&#x13b;" horiz-adv-x="935" d="M76 0l254 1434h129l-234 -1317h582l-21 -117h-710zM268 -494l103 179h-60l31 182h127l-18 -186l-148 -218z" />
<glyph unicode="&#x13c;" horiz-adv-x="448" d="M-43 -494l102 179h-59l31 182h127l-19 -186l-147 -218zM53 0l264 1493h123l-264 -1493h-123z" />
<glyph unicode="&#x13d;" horiz-adv-x="935" d="M76 0l254 1434h129l-234 -1317h582l-21 -117h-710zM485 1073l103 178h-60l31 183h127l-18 -187l-148 -217z" />
<glyph unicode="&#x13e;" horiz-adv-x="471" d="M53 0l264 1493h123l-264 -1493h-123zM469 1133l102 178h-59l31 182h127l-19 -186l-147 -217z" />
<glyph unicode="&#x13f;" horiz-adv-x="937" d="M76 0l254 1434h129l-234 -1317h582l-21 -117h-710zM666 653l32 176h133l-32 -176h-133z" />
<glyph unicode="&#x140;" horiz-adv-x="473" d="M53 0l264 1493h123l-264 -1493h-123zM391 653l33 176h133l-33 -176h-133z" />
<glyph unicode="&#x141;" horiz-adv-x="948" d="M55 492l25 131l135 77l129 734h129l-115 -650l258 154l-22 -133l-260 -152l-94 -536h581l-20 -117h-711l100 569z" />
<glyph unicode="&#x142;" horiz-adv-x="491" d="M61 565l25 133l129 74l127 721h123l-115 -641l131 76l-22 -133l-131 -76l-127 -719h-123l112 639z" />
<glyph unicode="&#x143;" horiz-adv-x="1251" d="M76 0l254 1434h133l401 -1221l217 1221h129l-254 -1434h-133l-401 1223l-217 -1223h-129zM672 1542l239 260h191l-318 -260h-112z" />
<glyph unicode="&#x144;" d="M43 0l190 1075h123l-26 -153q218 176 385 176q126 0 174 -86.5t22 -231.5l-137 -780h-123l135 768q38 221 -112 221q-87 0 -191 -61t-176 -129l-139 -799h-125zM500 1233l239 260h191l-318 -260h-112z" />
<glyph unicode="&#x145;" horiz-adv-x="1251" d="M76 0l254 1434h133l401 -1221l217 1221h129l-254 -1434h-133l-401 1223l-217 -1223h-129zM367 -494l102 179h-59l30 182h127l-18 -186l-148 -218z" />
<glyph unicode="&#x146;" d="M43 0l190 1075h123l-26 -153q218 176 385 176q126 0 174 -86.5t22 -231.5l-137 -780h-123l135 768q38 221 -112 221q-87 0 -191 -61t-176 -129l-139 -799h-125zM248 -494l102 179h-59l31 182h127l-19 -186l-147 -218z" />
<glyph unicode="&#x147;" horiz-adv-x="1251" d="M76 0l254 1434h133l401 -1221l217 1221h129l-254 -1434h-133l-401 1223l-217 -1223h-129zM608 1802h86l115 -182l174 182h100l-209 -260h-149z" />
<glyph unicode="&#x148;" d="M43 0l190 1075h123l-26 -153q218 176 385 176q126 0 174 -86.5t22 -231.5l-137 -780h-123l135 768q38 221 -112 221q-87 0 -191 -61t-176 -129l-139 -799h-125zM432 1493h86l115 -182l174 182h100l-209 -260h-149z" />
<glyph unicode="&#x149;" d="M43 0l190 1075h123l-26 -153q218 176 385 176q126 0 174 -86.5t22 -231.5l-137 -780h-123l135 768q38 221 -112 221q-87 0 -191 -61t-176 -129l-139 -799h-125zM252 1235l102 178h-59l31 182h127l-19 -186l-147 -217z" />
<glyph unicode="&#x14a;" horiz-adv-x="1249" d="M76 0l254 1434h133l401 -1219l217 1219h129l-239 -1358q-7 -39 -11 -58.5t-11.5 -49.5t-14 -44.5t-17.5 -37.5t-23 -34.5t-30.5 -29t-40.5 -28.5t-51.5 -25.5t-64 -26.5t-78.5 -25l-29 111q78 28 115.5 46t66 48.5t41.5 77.5l-401 1223l-217 -1223h-129z" />
<glyph unicode="&#x14b;" d="M43 0l190 1075h125l-26 -151q215 174 383 174q125 0 174 -86.5t22 -231.5l-147 -843q-12 -66 -18 -95t-21.5 -71.5t-35.5 -62.5t-55.5 -47t-86 -46t-123.5 -41l-27 104q53 19 88.5 34t62 34t40.5 33t25 41.5t15.5 48t12.5 63.5l145 836q8 60 7 109t-31 80.5t-88 31.5 q-86 0 -188.5 -60t-176.5 -128l-141 -801h-125z" />
<glyph unicode="&#x14c;" horiz-adv-x="1280" d="M127 494q0 66 9.5 145t32 172.5t55.5 183.5t83.5 174t112 147.5t145.5 101.5t180 38q218 0 330.5 -129.5t112.5 -386.5q0 -65 -9.5 -144.5t-32.5 -173t-56 -183t-83.5 -174t-112 -148t-145.5 -102t-180 -38.5q-218 0 -330 130t-112 387zM258 494q0 -400 313 -400 q105 0 191.5 69t139.5 170t89.5 222t51 218.5t14.5 166.5q0 399 -314 399q-105 0 -191.5 -69t-139 -169.5t-89 -221.5t-51 -218.5t-14.5 -166.5zM569 1593l17 93h483l-16 -93h-484z" />
<glyph unicode="&#x14d;" horiz-adv-x="1034" d="M80 383q0 127 31.5 251.5t89.5 229t152 169.5t208 65q168 0 267.5 -101t99.5 -305q0 -100 -19 -201t-59 -193.5t-96 -164t-135 -114t-170 -42.5q-168 0 -268.5 101t-100.5 305zM207 381q0 -297 239 -297q88 0 159.5 64t112.5 160.5t63 197.5t22 188q0 297 -242 297 q-71 0 -131.5 -42.5t-100.5 -109.5t-68.5 -149.5t-41 -161.5t-12.5 -147zM393 1284l17 92h483l-16 -92h-484z" />
<glyph unicode="&#x14e;" horiz-adv-x="1280" d="M127 494q0 66 9.5 145t32 172.5t55.5 183.5t83.5 174t112 147.5t145.5 101.5t180 38q218 0 330.5 -129.5t112.5 -386.5q0 -65 -9.5 -144.5t-32.5 -173t-56 -183t-83.5 -174t-112 -148t-145.5 -102t-180 -38.5q-218 0 -330 130t-112 387zM258 494q0 -400 313 -400 q105 0 191.5 69t139.5 170t89.5 222t51 218.5t14.5 166.5q0 399 -314 399q-105 0 -191.5 -69t-139 -169.5t-89 -221.5t-51 -218.5t-14.5 -166.5zM610 1751h92q-9 -62 16.5 -89.5t88.5 -27.5q69 0 114.5 28.5t55.5 88.5h94q-17 -98 -87 -153.5t-181 -55.5q-106 0 -158 57 t-35 152z" />
<glyph unicode="&#x14f;" horiz-adv-x="1034" d="M80 383q0 127 31.5 251.5t89.5 229t152 169.5t208 65q168 0 267.5 -101t99.5 -305q0 -100 -19 -201t-59 -193.5t-96 -164t-135 -114t-170 -42.5q-168 0 -268.5 101t-100.5 305zM207 381q0 -297 239 -297q88 0 159.5 64t112.5 160.5t63 197.5t22 188q0 297 -242 297 q-71 0 -131.5 -42.5t-100.5 -109.5t-68.5 -149.5t-41 -161.5t-12.5 -147zM434 1442h92q-9 -62 16.5 -89.5t88.5 -27.5q69 0 114.5 28.5t55.5 88.5h94q-17 -98 -87 -153.5t-181 -55.5q-106 0 -158 57t-35 152z" />
<glyph unicode="&#x150;" horiz-adv-x="1280" d="M127 494q0 66 9.5 145t32 172.5t55.5 183.5t83.5 174t112 147.5t145.5 101.5t180 38q218 0 330.5 -129.5t112.5 -386.5q0 -65 -9.5 -144.5t-32.5 -173t-56 -183t-83.5 -174t-112 -148t-145.5 -102t-180 -38.5q-218 0 -330 130t-112 387zM258 494q0 -400 313 -400 q105 0 191.5 69t139.5 170t89.5 222t51 218.5t14.5 166.5q0 399 -314 399q-105 0 -191.5 -69t-139 -169.5t-89 -221.5t-51 -218.5t-14.5 -166.5zM608 1542l166 260h160l-242 -260h-84zM854 1542l166 260h162l-244 -260h-84z" />
<glyph unicode="&#x151;" horiz-adv-x="1036" d="M80 383q0 127 31.5 251.5t89.5 229t152 169.5t208 65q168 0 267.5 -101t99.5 -305q0 -100 -19 -201t-59 -193.5t-96 -164t-135 -114t-170 -42.5q-168 0 -268.5 101t-100.5 305zM207 381q0 -297 239 -297q88 0 159.5 64t112.5 160.5t63 197.5t22 188q0 297 -242 297 q-71 0 -131.5 -42.5t-100.5 -109.5t-68.5 -149.5t-41 -161.5t-12.5 -147zM432 1233l166 260h160l-242 -260h-84zM678 1233l166 260h162l-244 -260h-84z" />
<glyph unicode="&#x152;" horiz-adv-x="1869" d="M127 494q0 66 9.5 145t32 172.5t55.5 183.5t83.5 174t112 147.5t145.5 101.5t180 38q288 0 390 -225l36 203h725l-22 -117h-594l-94 -541h493l-22 -117h-492l-98 -542h610l-22 -117h-737l30 178q-155 -201 -379 -201q-218 0 -330 130t-112 387zM258 494q0 -400 313 -400 q105 0 191.5 69t139.5 170t89.5 222t51 218.5t14.5 166.5q0 399 -314 399q-105 0 -191.5 -69t-139 -169.5t-89 -221.5t-51 -218.5t-14.5 -166.5z" />
<glyph unicode="&#x153;" horiz-adv-x="1660" d="M80 383q0 127 31.5 251.5t89.5 229t152 169.5t208 65q126 0 214.5 -57.5t125.5 -174.5q69 110 171 171t226 61q135 0 211 -71t76 -187q0 -172 -148.5 -271.5t-428.5 -99.5h-93l-2 -55q0 -159 52 -244.5t151 -85.5q30 0 64.5 8.5t59.5 18t63 30t53 30t51.5 33.5t38.5 25 l51 -92q-232 -160 -399 -160q-106 0 -180 60.5t-107 179.5q-140 -240 -362 -240q-168 0 -268.5 101t-100.5 305zM207 381q0 -297 239 -297q88 0 159.5 64t112.5 160.5t63 197.5t22 188q0 297 -242 297q-71 0 -131.5 -42.5t-100.5 -109.5t-68.5 -149.5t-41 -161.5t-12.5 -147 zM924 563h98q216 0 327 77t111 198q0 74 -47.5 114.5t-122.5 40.5q-134 0 -234.5 -119t-131.5 -311z" />
<glyph unicode="&#x154;" horiz-adv-x="1175" d="M76 0l254 1434h415q186 0 292 -79.5t106 -246.5q0 -197 -111.5 -320t-296.5 -153l217 -635h-133l-203 625h-299l-112 -625h-129zM336 739h278q181 0 287.5 95t106.5 266q0 113 -73 167t-200 54h-297zM659 1542l240 260h191l-318 -260h-113z" />
<glyph unicode="&#x155;" horiz-adv-x="651" d="M43 0l190 1075h123l-41 -231q11 20 24.5 41t50 63.5t76 72t100 51t124.5 15.5l-22 -122q-58 0 -110.5 -19t-91 -49t-71.5 -66.5t-54 -73t-36.5 -66.5t-22.5 -49l-6 -19l-108 -623h-125zM362 1233l240 260h191l-318 -260h-113z" />
<glyph unicode="&#x156;" horiz-adv-x="1175" d="M76 0l254 1434h415q186 0 292 -79.5t106 -246.5q0 -197 -111.5 -320t-296.5 -153l217 -635h-133l-203 625h-299l-112 -625h-129zM317 -494l103 179h-60l31 182h127l-18 -186l-148 -218zM336 739h278q181 0 287.5 95t106.5 266q0 113 -73 167t-200 54h-297z" />
<glyph unicode="&#x157;" horiz-adv-x="651" d="M-57 -494l102 179h-59l30 182h127l-18 -186l-148 -218zM43 0l190 1075h123l-41 -231q11 20 24.5 41t50 63.5t76 72t100 51t124.5 15.5l-22 -122q-58 0 -110.5 -19t-91 -49t-71.5 -66.5t-54 -73t-36.5 -66.5t-22.5 -49l-6 -19l-108 -623h-125z" />
<glyph unicode="&#x158;" horiz-adv-x="1175" d="M76 0l254 1434h415q186 0 292 -79.5t106 -246.5q0 -197 -111.5 -320t-296.5 -153l217 -635h-133l-203 625h-299l-112 -625h-129zM336 739h278q181 0 287.5 95t106.5 266q0 113 -73 167t-200 54h-297zM596 1802h86l115 -182l174 182h100l-209 -260h-149z" />
<glyph unicode="&#x159;" horiz-adv-x="651" d="M43 0l190 1075h123l-41 -231q11 20 24.5 41t50 63.5t76 72t100 51t124.5 15.5l-22 -122q-58 0 -110.5 -19t-91 -49t-71.5 -66.5t-54 -73t-36.5 -66.5t-22.5 -49l-6 -19l-108 -623h-125zM297 1493h86l115 -182l174 182h100l-209 -260h-149z" />
<glyph unicode="&#x15a;" horiz-adv-x="1048" d="M18 143l80 99q200 -148 371 -148q129 0 218 76t89 201q0 34 -8.5 65.5t-19.5 54.5t-35.5 49t-41.5 41t-54.5 39.5t-57 36t-65.5 37.5q-48 28 -77.5 47t-67.5 47t-60.5 55t-44 62t-31.5 77t-10 91q0 173 120 278t298 105q199 0 409 -131l-78 -96q-73 48 -165 79t-169 31 q-116 0 -198 -69.5t-82 -192.5q0 -26 3.5 -48t14.5 -42.5t19 -35t30 -34t34.5 -29.5t45.5 -31t48.5 -30t58.5 -34q60 -35 97 -59.5t84 -64t73 -78t44.5 -94t18.5 -118.5q0 -123 -64 -216.5t-163 -139.5t-215 -46q-125 0 -242 49t-207 117zM559 1542l240 260h190l-317 -260 h-113z" />
<glyph unicode="&#x15b;" horiz-adv-x="876" d="M4 115l72 88q167 -119 301 -119q91 0 159 52t68 147q0 18 -3.5 34t-7 28.5t-14.5 26t-16.5 22t-23.5 21t-24 18t-30 18t-30.5 16t-35 18t-34.5 17.5q-38 19 -61 32t-55.5 34.5t-52.5 43t-39.5 49.5t-28.5 63.5t-9 76.5q0 137 96.5 217t237.5 80q171 0 340 -115l-68 -88 q-139 96 -270 96q-89 0 -150 -47.5t-61 -132.5q0 -28 6.5 -52t23 -44t29.5 -33t41 -29t40.5 -22t45.5 -21q9 -4 13 -6q68 -34 111 -61t82 -64.5t57 -84t18 -105.5q0 -98 -49.5 -170t-128 -107t-172.5 -35q-183 0 -377 138zM424 1233l240 260h190l-317 -260h-113z" />
<glyph unicode="&#x15c;" horiz-adv-x="1048" d="M18 143l80 99q200 -148 371 -148q129 0 218 76t89 201q0 34 -8.5 65.5t-19.5 54.5t-35.5 49t-41.5 41t-54.5 39.5t-57 36t-65.5 37.5q-48 28 -77.5 47t-67.5 47t-60.5 55t-44 62t-31.5 77t-10 91q0 173 120 278t298 105q199 0 409 -131l-78 -96q-73 48 -165 79t-169 31 q-116 0 -198 -69.5t-82 -192.5q0 -26 3.5 -48t14.5 -42.5t19 -35t30 -34t34.5 -29.5t45.5 -31t48.5 -30t58.5 -34q60 -35 97 -59.5t84 -64t73 -78t44.5 -94t18.5 -118.5q0 -123 -64 -216.5t-163 -139.5t-215 -46q-125 0 -242 49t-207 117zM451 1542l208 260h152l117 -260 h-88l-113 182l-174 -182h-102z" />
<glyph unicode="&#x15d;" horiz-adv-x="876" d="M4 115l72 88q167 -119 301 -119q91 0 159 52t68 147q0 18 -3.5 34t-7 28.5t-14.5 26t-16.5 22t-23.5 21t-24 18t-30 18t-30.5 16t-35 18t-34.5 17.5q-38 19 -61 32t-55.5 34.5t-52.5 43t-39.5 49.5t-28.5 63.5t-9 76.5q0 137 96.5 217t237.5 80q171 0 340 -115l-68 -88 q-139 96 -270 96q-89 0 -150 -47.5t-61 -132.5q0 -28 6.5 -52t23 -44t29.5 -33t41 -29t40.5 -22t45.5 -21q9 -4 13 -6q68 -34 111 -61t82 -64.5t57 -84t18 -105.5q0 -98 -49.5 -170t-128 -107t-172.5 -35q-183 0 -377 138zM313 1233l209 260h152l117 -260h-89l-112 182 l-174 -182h-103z" />
<glyph unicode="&#x15e;" horiz-adv-x="1048" d="M18 143l80 99q200 -148 371 -148q129 0 218 76t89 201q0 34 -8.5 65.5t-19.5 54.5t-35.5 49t-41.5 41t-54.5 39.5t-57 36t-65.5 37.5q-48 28 -77.5 47t-67.5 47t-60.5 55t-44 62t-31.5 77t-10 91q0 173 120 278t298 105q199 0 409 -131l-78 -96q-73 48 -165 79t-169 31 q-116 0 -198 -69.5t-82 -192.5q0 -26 3.5 -48t14.5 -42.5t19 -35t30 -34t34.5 -29.5t45.5 -31t48.5 -30t58.5 -34q60 -35 97 -59.5t84 -64t73 -78t44.5 -94t18.5 -118.5q0 -118 -58.5 -208.5t-151 -137.5t-203.5 -53q28 -63 28 -130q0 -87 -51.5 -140.5t-138.5 -53.5 q-73 0 -131 37l47 84q42 -27 86 -27q45 0 76.5 31t31.5 96q0 45 -14 103q-214 13 -412 163z" />
<glyph unicode="&#x15f;" horiz-adv-x="876" d="M4 115l72 88q167 -119 301 -119q91 0 159 52t68 147q0 18 -3.5 34t-7 28.5t-14.5 26t-16.5 22t-23.5 21t-24 18t-30 18t-30.5 16t-35 18t-34.5 17.5q-38 19 -61 32t-55.5 34.5t-52.5 43t-39.5 49.5t-28.5 63.5t-9 76.5q0 137 96.5 217t237.5 80q171 0 340 -115l-68 -88 q-139 96 -270 96q-89 0 -150 -47.5t-61 -132.5q0 -28 6.5 -52t23 -44t29.5 -33t41 -29t40.5 -22t45.5 -21q9 -4 13 -6q68 -34 111 -61t82 -64.5t57 -84t18 -105.5q0 -138 -92 -219.5t-229 -89.5q28 -63 28 -130q0 -87 -51.5 -140.5t-138.5 -53.5q-73 0 -131 37l47 84 q42 -27 86 -27q45 0 76.5 31t31.5 96q0 45 -14 103q-168 12 -340 135z" />
<glyph unicode="&#x160;" horiz-adv-x="1048" d="M18 143l80 99q200 -148 371 -148q129 0 218 76t89 201q0 34 -8.5 65.5t-19.5 54.5t-35.5 49t-41.5 41t-54.5 39.5t-57 36t-65.5 37.5q-48 28 -77.5 47t-67.5 47t-60.5 55t-44 62t-31.5 77t-10 91q0 173 120 278t298 105q199 0 409 -131l-78 -96q-73 48 -165 79t-169 31 q-116 0 -198 -69.5t-82 -192.5q0 -26 3.5 -48t14.5 -42.5t19 -35t30 -34t34.5 -29.5t45.5 -31t48.5 -30t58.5 -34q60 -35 97 -59.5t84 -64t73 -78t44.5 -94t18.5 -118.5q0 -123 -64 -216.5t-163 -139.5t-215 -46q-125 0 -242 49t-207 117zM498 1802h86l114 -182l174 182h101 l-209 -260h-150z" />
<glyph unicode="&#x161;" horiz-adv-x="874" d="M4 115l72 88q167 -119 301 -119q91 0 159 52t68 147q0 18 -3.5 34t-7 28.5t-14.5 26t-16.5 22t-23.5 21t-24 18t-30 18t-30.5 16t-35 18t-34.5 17.5q-38 19 -61 32t-55.5 34.5t-52.5 43t-39.5 49.5t-28.5 63.5t-9 76.5q0 137 96.5 217t237.5 80q171 0 340 -115l-68 -88 q-139 96 -270 96q-89 0 -150 -47.5t-61 -132.5q0 -28 6.5 -52t23 -44t29.5 -33t41 -29t40.5 -22t45.5 -21q9 -4 13 -6q68 -34 111 -61t82 -64.5t57 -84t18 -105.5q0 -98 -49.5 -170t-128 -107t-172.5 -35q-183 0 -377 138zM358 1493h86l115 -182l174 182h101l-209 -260h-150 z" />
<glyph unicode="&#x162;" horiz-adv-x="956" d="M119 -307l47 84q42 -27 86 -27q45 0 76.5 31t31.5 96q0 53 -20 123h-37l234 1317h-369l20 117h869l-21 -117h-370l-234 -1317h-31q39 -65 39 -150q0 -87 -51.5 -140.5t-138.5 -53.5q-73 0 -131 37z" />
<glyph unicode="&#x163;" horiz-adv-x="636" d="M0 -307l47 84q42 -27 86 -27q45 0 77 31t32 96q0 34 -17 105q-148 30 -108 247l131 744h-123l18 102h123l49 271l131 40l-55 -311h240l-19 -102h-239l-135 -762q-21 -121 59 -121q46 0 176 60l35 -103q-136 -59 -215 -67q29 -65 29 -130q0 -87 -52 -140.5t-139 -53.5 q-73 0 -131 37z" />
<glyph unicode="&#x164;" horiz-adv-x="956" d="M168 1317l20 117h869l-21 -117h-370l-234 -1317h-129l234 1317h-369zM451 1802h86l114 -182l174 182h101l-209 -260h-150z" />
<glyph unicode="&#x165;" horiz-adv-x="634" d="M117 229l131 744h-123l18 102h123l49 271l131 40l-55 -311h240l-19 -102h-239l-135 -762q-21 -121 59 -121q46 0 176 60l35 -103q-159 -70 -240 -70q-85 0 -130 58t-21 194zM520 1235l103 178h-60l31 182h127l-19 -186l-147 -217z" />
<glyph unicode="&#x166;" horiz-adv-x="978" d="M178 1317l21 117h868l-20 -117h-371l-133 -744h188l-16 -92h-189l-84 -481h-129l84 481h-182l16 92h183l133 744h-369z" />
<glyph unicode="&#x167;" horiz-adv-x="634" d="M92 588l17 94h88l51 291h-123l18 102h123l49 271l131 40l-55 -311h240l-19 -102h-239l-54 -291h189l-14 -94h-191l-65 -377q-21 -121 59 -121q46 0 176 60l35 -103q-159 -70 -240 -70q-85 0 -130 58t-21 194l63 359h-88z" />
<glyph unicode="&#x168;" horiz-adv-x="1208" d="M132.5 313q1.5 75 14.5 160l172 961h130l-173 -965q-12 -67 -14.5 -117.5t7 -101t34.5 -82.5t74 -52t121 -20q89 0 157.5 28.5t112 81.5t70 117t41.5 146l170 965h129l-172 -971q-15 -85 -39.5 -154.5t-65.5 -132.5t-96.5 -106t-134.5 -68t-176 -25t-168 24.5 t-111.5 68.5t-62 106t-20 137zM530 1610q47 78 83 111.5t85 33.5q37 0 72 -25t64.5 -50t52.5 -25q20 0 41.5 19t56.5 77l66 -47q-47 -78 -83 -111.5t-85 -33.5q-37 0 -72 25t-64.5 50t-52.5 25q-21 0 -42 -17.5t-56 -74.5z" />
<glyph unicode="&#x169;" d="M88 293l137 782h125l-137 -768q-37 -221 115 -221q86 0 187.5 59.5t174.5 126.5l144 803h122l-188 -1075h-125l27 152q-219 -175 -383 -175q-126 0 -175.5 86.5t-23.5 229.5zM383 1300q47 78 83 112t85 34q37 0 71.5 -25t64 -50t52.5 -25q20 0 42 19t57 77l65 -47 q-47 -78 -83 -112t-85 -34q-29 0 -57.5 16t-47.5 34.5t-41.5 34.5t-41.5 16q-21 0 -41.5 -18t-56.5 -75z" />
<glyph unicode="&#x16a;" horiz-adv-x="1208" d="M132.5 313q1.5 75 14.5 160l172 961h130l-173 -965q-12 -67 -14.5 -117.5t7 -101t34.5 -82.5t74 -52t121 -20q89 0 157.5 28.5t112 81.5t70 117t41.5 146l170 965h129l-172 -971q-15 -85 -39.5 -154.5t-65.5 -132.5t-96.5 -106t-134.5 -68t-176 -25t-168 24.5 t-111.5 68.5t-62 106t-20 137zM535 1593l16 93h483l-16 -93h-483z" />
<glyph unicode="&#x16b;" d="M88 293l137 782h125l-137 -768q-37 -221 115 -221q86 0 187.5 59.5t174.5 126.5l144 803h122l-188 -1075h-125l27 152q-219 -175 -383 -175q-126 0 -175.5 86.5t-23.5 229.5zM385 1284l16 92h484l-17 -92h-483z" />
<glyph unicode="&#x16c;" horiz-adv-x="1208" d="M132.5 313q1.5 75 14.5 160l172 961h130l-173 -965q-12 -67 -14.5 -117.5t7 -101t34.5 -82.5t74 -52t121 -20q89 0 157.5 28.5t112 81.5t70 117t41.5 146l170 965h129l-172 -971q-15 -85 -39.5 -154.5t-65.5 -132.5t-96.5 -106t-134.5 -68t-176 -25t-168 24.5 t-111.5 68.5t-62 106t-20 137zM573 1751h93q-9 -62 16.5 -89.5t87.5 -27.5q150 0 170 117h94q-17 -98 -87 -153.5t-181 -55.5q-106 0 -158 57t-35 152z" />
<glyph unicode="&#x16d;" d="M88 293l137 782h125l-137 -768q-37 -221 115 -221q86 0 187.5 59.5t174.5 126.5l144 803h122l-188 -1075h-125l27 152q-219 -175 -383 -175q-126 0 -175.5 86.5t-23.5 229.5zM426 1442h92q-9 -62 16.5 -89.5t88.5 -27.5q69 0 114.5 28.5t55.5 88.5h94 q-17 -98 -87.5 -153.5t-181.5 -55.5q-106 0 -157.5 57t-34.5 152z" />
<glyph unicode="&#x16e;" horiz-adv-x="1208" d="M132.5 313q1.5 75 14.5 160l172 961h130l-173 -965q-12 -67 -14.5 -117.5t7 -101t34.5 -82.5t74 -52t121 -20q89 0 157.5 28.5t112 81.5t70 117t41.5 146l170 965h129l-172 -971q-15 -85 -39.5 -154.5t-65.5 -132.5t-96.5 -106t-134.5 -68t-176 -25t-168 24.5 t-111.5 68.5t-62 106t-20 137zM604 1714q0 80 56 137.5t137 57.5t137.5 -57.5t56.5 -137.5q0 -82 -56 -137t-138 -55t-137.5 55t-55.5 137zM684 1714q0 -47 33 -81t80 -34q49 0 82.5 33.5t33.5 81.5t-33.5 81.5t-82.5 33.5q-47 0 -80 -34t-33 -81z" />
<glyph unicode="&#x16f;" d="M88 293l137 782h125l-137 -768q-37 -221 115 -221q86 0 187.5 59.5t174.5 126.5l144 803h122l-188 -1075h-125l27 152q-219 -175 -383 -175q-126 0 -175.5 86.5t-23.5 229.5zM457 1405q0 80 55.5 137t136.5 57t138 -57t57 -137q0 -82 -56.5 -137.5t-138.5 -55.5 t-137 55.5t-55 137.5zM537 1405q0 -48 32.5 -81.5t79.5 -33.5q49 0 83 33.5t34 81.5t-34 81.5t-83 33.5q-47 0 -79.5 -33.5t-32.5 -81.5z" />
<glyph unicode="&#x170;" horiz-adv-x="1208" d="M132.5 313q1.5 75 14.5 160l172 961h130l-173 -965q-12 -67 -14.5 -117.5t7 -101t34.5 -82.5t74 -52t121 -20q89 0 157.5 28.5t112 81.5t70 117t41.5 146l170 965h129l-172 -971q-15 -85 -39.5 -154.5t-65.5 -132.5t-96.5 -106t-134.5 -68t-176 -25t-168 24.5 t-111.5 68.5t-62 106t-20 137zM573 1542l166 260h160l-242 -260h-84zM819 1542l166 260h162l-244 -260h-84z" />
<glyph unicode="&#x171;" d="M88 293l137 782h125l-137 -768q-37 -221 115 -221q86 0 187.5 59.5t174.5 126.5l144 803h122l-188 -1075h-125l27 152q-219 -175 -383 -175q-126 0 -175.5 86.5t-23.5 229.5zM422 1233l166 260h160l-242 -260h-84zM668 1233l166 260h161l-243 -260h-84z" />
<glyph unicode="&#x172;" horiz-adv-x="1208" d="M132.5 313q1.5 75 14.5 160l172 961h130l-173 -965q-12 -67 -14.5 -117.5t7 -101t34.5 -82.5t74 -52t121 -20q89 0 157.5 28.5t112 81.5t70 117t41.5 146l170 965h129l-172 -971q-68 -390 -355 -465q-103 -65 -148.5 -114t-45.5 -101q0 -21 9 -34t29 -18t34 -6t42 -1h9 l-33 -91q-22 0 -36 0.5t-40.5 4t-43.5 12t-35.5 22t-28 37.5t-9.5 55q0 119 160 213h-20q-97 0 -168 24.5t-111.5 68.5t-62 106t-20 137z" />
<glyph unicode="&#x173;" d="M88 293l137 782h125l-137 -768q-37 -221 115 -221q86 0 187.5 59.5t174.5 126.5l144 803h122l-188 -1075h-8q-107 -66 -154 -114.5t-47 -102.5q0 -21 9 -34t29 -18t34 -6t42 -1h9l-33 -91q-27 0 -44.5 1t-48.5 7.5t-50 19.5t-34 39.5t-15 63.5q0 71 50 127t148 109h-12 l27 152q-219 -175 -383 -175q-126 0 -175.5 86.5t-23.5 229.5z" />
<glyph unicode="&#x174;" horiz-adv-x="1583" d="M213 1434h139l33 -1241l483 1241h125l39 -1246l471 1246h148l-574 -1434h-139l-43 1221l-473 -1221h-141zM713 1542l209 260h151l117 -260h-88l-113 182l-174 -182h-102z" />
<glyph unicode="&#x175;" horiz-adv-x="1370" d="M147 1075h129l48 -911l383 911h112l55 -909l369 909h135l-463 -1075h-122l-58 891l-379 -891h-123zM553 1233l209 260h151l117 -260h-88l-113 182l-174 -182h-102z" />
<glyph unicode="&#x177;" horiz-adv-x="940" d="M-39 -315q139 54 203.5 112.5t132.5 190.5l-160 1087h129l115 -913l438 913h139l-538 -1075q-85 -169 -122 -223q-64 -90 -167 -144q-57 -29 -141 -59zM338 1233l209 260h151l117 -260h-88l-113 182l-174 -182h-102z" />
<glyph unicode="&#x178;" horiz-adv-x="1064" d="M182 1434h135l218 -750l475 750h153l-579 -865l-99 -569h-129l99 567zM487 1563l33 174h131l-30 -174h-134zM768 1563l31 174h131l-31 -174h-131z" />
<glyph unicode="&#x179;" horiz-adv-x="1044" d="M-29 0l21 109l909 1208h-659l20 117h825l-18 -107l-913 -1210h710l-20 -117h-875zM567 1542l240 260h190l-317 -260h-113z" />
<glyph unicode="&#x17a;" horiz-adv-x="858" d="M-29 0l21 104l690 861h-524l22 110h672l-18 -104l-691 -860h541l-22 -111h-691zM408 1233l239 260h191l-318 -260h-112z" />
<glyph unicode="&#x17b;" horiz-adv-x="1044" d="M-29 0l21 109l909 1208h-659l20 117h825l-18 -107l-913 -1210h710l-20 -117h-875zM631 1563l33 176h133l-33 -176h-133z" />
<glyph unicode="&#x17c;" horiz-adv-x="858" d="M-29 0l21 104l690 861h-524l22 110h672l-18 -104l-691 -860h541l-22 -111h-691zM471 1253l33 177h133l-33 -177h-133z" />
<glyph unicode="&#x17d;" horiz-adv-x="1044" d="M-29 0l21 109l909 1208h-659l20 117h825l-18 -107l-913 -1210h710l-20 -117h-875zM502 1802h86l114 -182l175 182h100l-209 -260h-150z" />
<glyph unicode="&#x17e;" horiz-adv-x="858" d="M-29 0l21 104l690 861h-524l22 110h672l-18 -104l-691 -860h541l-22 -111h-691zM344 1493h86l115 -182l174 182h100l-209 -260h-149z" />
<glyph unicode="&#x17f;" horiz-adv-x="512" d="M-168 -322q32 11 56.5 20.5t46.5 21.5t37 20t29 23.5t22.5 25t17.5 31.5t14 35.5t11.5 44.5t10.5 50.5t11 61.5l168 961h-121l21 102h116l33 180q22 126 71.5 182t141.5 56q57 0 132.5 -22.5t127.5 -47.5l-61 -90q-35 14 -95.5 30.5t-91.5 16.5q-78 0 -100 -123 l-217 -1241q-32 -179 -55 -236q-32 -82 -107 -128q-62 -38 -192 -78z" />
<glyph unicode="&#x192;" horiz-adv-x="911" d="M-104 -418l510 1391h-123l43 102h118l66 180q51 136 107 187t139 51q105 0 262 -80l-76 -86q-139 53 -182 51q-80 0 -123 -116l-70 -187h244l-43 -102h-238l-510 -1391h-124z" />
<glyph unicode="&#x1fc;" horiz-adv-x="1681" d="M-106 0l1052 1434h764l-22 -117h-594l-95 -541h494l-23 -117h-491l-98 -542h610l-23 -117h-737l66 373h-471l-267 -373h-165zM408 487h409l133 756zM948 1542l240 260h190l-317 -260h-113z" />
<glyph unicode="&#x1fd;" horiz-adv-x="1579" d="M82 328q0 209 54 384t154.5 280.5t227.5 105.5q47 0 91.5 -16.5t82.5 -47t64 -57t55 -62.5l29 160h125l-13 -65q122 88 265 88q135 0 210.5 -70.5t75.5 -187.5q0 -172 -148.5 -271.5t-428.5 -99.5h-92l-3 -55q0 -159 52 -244.5t151 -85.5q30 0 64.5 8.5t59.5 18t63 30 t53 30t51.5 33.5t38.5 25l51 -92q-232 -160 -399 -160q-146 0 -228 111l-14 -88h-123l31 178q-183 -201 -354 -201q-105 0 -175.5 87t-70.5 264zM211 342q0 -120 38 -187t111 -67q89 0 171.5 58t173.5 161l4 25q-4 41 -4 86q0 220 81 387q-122 182 -249 182 q-97 0 -173.5 -99.5t-114.5 -245t-38 -300.5zM797 1233l239 260h191l-318 -260h-112zM842 563h98q216 0 327 77t111 198q0 74 -47.5 114.5t-122.5 40.5q-134 0 -234.5 -119t-131.5 -311z" />
<glyph unicode="&#x1fe;" horiz-adv-x="1280" d="M41 0l145 186q-59 115 -59 308q0 66 9.5 145t32 172.5t55.5 183.5t83.5 174t112 147.5t145.5 101.5t180 38q213 0 326 -125l80 103h115l-142 -183q64 -119 64 -311q0 -65 -9.5 -144.5t-32.5 -173t-56 -183t-83.5 -174t-112 -148t-145.5 -102t-180 -38.5q-217 0 -331 129 l-82 -106h-115zM258 494q0 -108 23 -187l708 918q-78 114 -246 114q-105 0 -191.5 -69t-139 -169.5t-89 -221.5t-51 -218.5t-14.5 -166.5zM322 213q74 -119 249 -119q105 0 191.5 69t139.5 170t89.5 222t51 218.5t14.5 166.5q0 104 -25 193zM674 1542l239 260h191l-318 -260 h-112z" />
<glyph unicode="&#x1ff;" horiz-adv-x="1034" d="M23 0l112 139q-55 96 -55 244q0 127 31.5 251.5t89.5 229t152 169.5t208 65q165 0 262 -97l58 74h104l-113 -139q56 -98 56 -244q0 -100 -19 -201t-59 -193.5t-96 -164t-135 -114t-170 -42.5q-163 0 -263 95l-57 -72h-106zM207 381q0 -79 14 -131l527 659q-58 82 -187 82 q-71 0 -131.5 -42.5t-100.5 -109.5t-68.5 -149.5t-41 -161.5t-12.5 -147zM260 166q58 -82 186 -82q88 0 159.5 64t112.5 160.5t63 197.5t22 188q0 68 -17 131zM496 1233l239 260h191l-318 -260h-112z" />
<glyph unicode="&#x218;" horiz-adv-x="1048" d="M18 143l80 99q200 -148 371 -148q129 0 218 76t89 201q0 34 -8.5 65.5t-19.5 54.5t-35.5 49t-41.5 41t-54.5 39.5t-57 36t-65.5 37.5q-48 28 -77.5 47t-67.5 47t-60.5 55t-44 62t-31.5 77t-10 91q0 173 120 278t298 105q199 0 409 -131l-78 -96q-73 48 -165 79t-169 31 q-116 0 -198 -69.5t-82 -192.5q0 -26 3.5 -48t14.5 -42.5t19 -35t30 -34t34.5 -29.5t45.5 -31t48.5 -30t58.5 -34q60 -35 97 -59.5t84 -64t73 -78t44.5 -94t18.5 -118.5q0 -123 -64 -216.5t-163 -139.5t-215 -46q-125 0 -242 49t-207 117zM258 -494l102 179h-59l31 182h127 l-19 -186l-147 -218z" />
<glyph unicode="&#x219;" horiz-adv-x="876" d="M4 115l72 88q167 -119 301 -119q91 0 159 52t68 147q0 18 -3.5 34t-7 28.5t-14.5 26t-16.5 22t-23.5 21t-24 18t-30 18t-30.5 16t-35 18t-34.5 17.5q-38 19 -61 32t-55.5 34.5t-52.5 43t-39.5 49.5t-28.5 63.5t-9 76.5q0 137 96.5 217t237.5 80q171 0 340 -115l-68 -88 q-139 96 -270 96q-89 0 -150 -47.5t-61 -132.5q0 -28 6.5 -52t23 -44t29.5 -33t41 -29t40.5 -22t45.5 -21q9 -4 13 -6q68 -34 111 -61t82 -64.5t57 -84t18 -105.5q0 -98 -49.5 -170t-128 -107t-172.5 -35q-183 0 -377 138zM170 -494l102 179h-59l31 182h127l-19 -186 l-147 -218z" />
<glyph unicode="&#x21a;" horiz-adv-x="958" d="M168 1317l20 117h869l-21 -117h-370l-234 -1317h-129l234 1317h-369zM211 -494l102 179h-59l31 182h127l-19 -186l-147 -218z" />
<glyph unicode="&#x21b;" horiz-adv-x="636" d="M27 -494l102 179h-59l30 182h127l-18 -186l-148 -218zM117 229l131 744h-123l18 102h123l49 271l131 40l-55 -311h240l-19 -102h-239l-135 -762q-21 -121 59 -121q46 0 176 60l35 -103q-159 -70 -240 -70q-85 0 -130 58t-21 194z" />
<glyph unicode="&#x2b0;" horiz-adv-x="690" d="M139 788l158 895h98l-59 -337q128 102 235 102q79 0 111 -53t16 -144l-80 -463h-100l80 451q10 58 -3 91.5t-63 33.5q-51 0 -110 -33.5t-103 -73.5l-81 -469h-99z" />
<glyph unicode="&#x2b2;" horiz-adv-x="360" d="M8 608q92 32 116.5 58t35.5 92l119 676h98l-117 -670q-8 -43 -12.5 -62t-15 -47t-24 -41t-37.5 -30.5t-58 -30t-84 -25.5zM297 1563l20 118h107l-21 -118h-106z" />
<glyph unicode="&#x2b7;" horiz-adv-x="854" d="M174 1434h102l27 -525l223 525h86l35 -525l211 525h109l-287 -646h-94l-37 508l-223 -508h-95z" />
<glyph unicode="&#x2b8;" horiz-adv-x="618" d="M88 612q84 30 124 62t77 102l-103 658h101l69 -521l254 521h111l-332 -646q-20 -39 -24 -46.5t-21 -38t-22.5 -36.5t-22 -28.5t-26.5 -29t-29 -22t-37 -23t-42.5 -17.5t-53.5 -19z" />
<glyph unicode="&#x2c6;" horiz-adv-x="458" d="M209 1233l209 260h151l117 -260h-88l-113 182l-174 -182h-102z" />
<glyph unicode="&#x2c7;" horiz-adv-x="460" d="M258 1493h86l115 -182l174 182h100l-209 -260h-149z" />
<glyph unicode="&#x2d8;" horiz-adv-x="448" d="M250 1442h92q-9 -62 16.5 -89.5t87.5 -27.5q150 0 170 117h95q-17 -98 -87.5 -153.5t-181.5 -55.5q-106 0 -157.5 57t-34.5 152z" />
<glyph unicode="&#x2d9;" horiz-adv-x="133" d="M219 1253l33 177h133l-33 -177h-133z" />
<glyph unicode="&#x2da;" horiz-adv-x="409" d="M137 1405q0 80 56 137t137 57t137.5 -57t56.5 -137q0 -82 -56 -137.5t-138 -55.5t-137.5 55.5t-55.5 137.5zM217 1405q0 -47 33 -81t80 -34q49 0 82.5 33.5t33.5 81.5t-33.5 81.5t-82.5 33.5q-47 0 -80 -34t-33 -81z" />
<glyph unicode="&#x2db;" horiz-adv-x="251" d="M-53 -236q0 79 61.5 139.5t181.5 119.5l64 -21q-110 -68 -157.5 -117t-47.5 -102q0 -28 20 -41.5t38.5 -15.5t55.5 -2h9l-33 -91q-27 0 -44.5 1t-48.5 7.5t-50 19.5t-34 39.5t-15 63.5z" />
<glyph unicode="&#x2dc;" horiz-adv-x="489" d="M221 1300q47 78 83 112t85 34q37 0 72 -25t64.5 -50t52.5 -25q20 0 41.5 19t56.5 77l65 -47q-47 -78 -83 -112t-85 -34q-29 0 -57.5 16t-47.5 34.5t-41.5 34.5t-41.5 16q-21 0 -41.5 -18t-56.5 -75z" />
<glyph unicode="&#x2dd;" horiz-adv-x="514" d="M211 1233l166 260h160l-242 -260h-84zM457 1233l166 260h161l-243 -260h-84z" />
<glyph unicode="&#x2e3;" horiz-adv-x="653" d="M74 788l284 322l-159 324h106l113 -260l207 260h120l-272 -322l170 -324h-106l-125 265l-211 -265h-127z" />
<glyph unicode="&#x3c0;" horiz-adv-x="937" d="M90 0l170 961h-145l20 114h823l-20 -114h-150l-167 -961h-119l170 961h-295l-170 -961h-117z" />
<glyph unicode="&#x1e80;" horiz-adv-x="1583" d="M213 1434h139l33 -1241l483 1241h125l39 -1246l471 1246h148l-574 -1434h-139l-43 1221l-473 -1221h-141zM743 1802h166l166 -260h-98z" />
<glyph unicode="&#x1e81;" horiz-adv-x="1370" d="M147 1075h129l48 -911l383 911h112l55 -909l369 909h135l-463 -1075h-122l-58 891l-379 -891h-123zM584 1493h166l165 -260h-98z" />
<glyph unicode="&#x1e82;" horiz-adv-x="1583" d="M213 1434h139l33 -1241l483 1241h125l39 -1246l471 1246h148l-574 -1434h-139l-43 1221l-473 -1221h-141zM823 1542l240 260h190l-317 -260h-113z" />
<glyph unicode="&#x1e83;" horiz-adv-x="1370" d="M147 1075h129l48 -911l383 911h112l55 -909l369 909h135l-463 -1075h-122l-58 891l-379 -891h-123zM666 1233l239 260h191l-318 -260h-112z" />
<glyph unicode="&#x1e84;" horiz-adv-x="1583" d="M213 1434h139l33 -1241l483 1241h125l39 -1246l471 1246h148l-574 -1434h-139l-43 1221l-473 -1221h-141zM745 1540l33 174h131l-30 -174h-134zM1026 1540l31 174h131l-31 -174h-131z" />
<glyph unicode="&#x1e85;" horiz-adv-x="1370" d="M147 1075h129l48 -911l383 911h112l55 -909l369 909h135l-463 -1075h-122l-58 891l-379 -891h-123zM590 1253l33 174h131l-31 -174h-133zM870 1253l31 174h131l-31 -174h-131z" />
<glyph unicode="&#x1e9e;" horiz-adv-x="1355" d="M76 0l174 983q77 451 438 451h567l-16 -97l-436 -491q115 -11 202.5 -52t137 -100t74 -125t24.5 -137q0 -81 -30 -160t-86 -145.5t-148.5 -108t-206.5 -41.5q-205 0 -397 129l73 99q166 -111 318 -111q84 0 152 30t109 79t63 107.5t22 119.5q0 41 -9.5 80t-36.5 81 t-70 73t-115 51t-166 20h-88l16 96l430 486h-383q-118 0 -198 -80t-113 -268l-172 -969h-129z" />
<glyph unicode="&#x1ef2;" horiz-adv-x="1064" d="M182 1434h135l218 -750l475 750h153l-579 -865l-99 -569h-129l99 567zM483 1802h166l166 -260h-98z" />
<glyph unicode="&#x1ef3;" horiz-adv-x="940" d="M-39 -315q139 54 203.5 112.5t132.5 190.5l-160 1087h129l115 -913l438 913h139l-538 -1075q-85 -169 -122 -223q-64 -90 -167 -144q-57 -29 -141 -59zM369 1493h166l165 -260h-98z" />
<glyph unicode="&#x2000;" horiz-adv-x="954" />
<glyph unicode="&#x2001;" horiz-adv-x="1909" />
<glyph unicode="&#x2002;" horiz-adv-x="954" />
<glyph unicode="&#x2003;" horiz-adv-x="1909" />
<glyph unicode="&#x2004;" horiz-adv-x="636" />
<glyph unicode="&#x2005;" horiz-adv-x="477" />
<glyph unicode="&#x2006;" horiz-adv-x="318" />
<glyph unicode="&#x2007;" horiz-adv-x="318" />
<glyph unicode="&#x2008;" horiz-adv-x="238" />
<glyph unicode="&#x2009;" horiz-adv-x="381" />
<glyph unicode="&#x200a;" horiz-adv-x="106" />
<glyph unicode="&#x2010;" horiz-adv-x="755" d="M129 526l21 115h464l-20 -115h-465z" />
<glyph unicode="&#x2011;" horiz-adv-x="755" d="M129 526l21 115h464l-20 -115h-465z" />
<glyph unicode="&#x2012;" horiz-adv-x="755" d="M129 526l21 115h464l-20 -115h-465z" />
<glyph unicode="&#x2013;" horiz-adv-x="974" d="M129 526l21 115h684l-21 -115h-684z" />
<glyph unicode="&#x2014;" horiz-adv-x="1144" d="M129 526l21 115h854l-19 -115h-856z" />
<glyph unicode="&#x2018;" horiz-adv-x="421" d="M203 999l20 226l174 245l37 -47l-115 -206h68l-39 -218h-145z" />
<glyph unicode="&#x2019;" horiz-adv-x="411" d="M195 1010l114 207h-67l39 217h145l-20 -226l-175 -245z" />
<glyph unicode="&#x201a;" horiz-adv-x="440" d="M-8 -207l114 207h-67l39 217h145l-20 -225l-174 -246z" />
<glyph unicode="&#x201c;" horiz-adv-x="718" d="M203 999l20 226l174 245l37 -47l-115 -206h68l-39 -218h-145zM500 999l20 226l174 245l37 -47l-115 -206h68l-39 -218h-145z" />
<glyph unicode="&#x201d;" horiz-adv-x="706" d="M195 1010l114 207h-67l39 217h145l-20 -226l-175 -245zM489 1010l115 207h-67l38 217h146l-21 -226l-174 -245z" />
<glyph unicode="&#x201e;" horiz-adv-x="735" d="M-8 -207l114 207h-67l39 217h145l-20 -225l-174 -246zM287 -207l114 207h-67l39 217h145l-20 -225l-174 -246z" />
<glyph unicode="&#x2020;" horiz-adv-x="968" d="M96 823l21 119l368 -16l90 508h103l-90 -508l379 16l-21 -119l-375 17l-221 -1258h-100l221 1258z" />
<glyph unicode="&#x2021;" horiz-adv-x="1058" d="M47 287l21 119l370 -17l80 451l-377 -17l21 119l370 -16l91 508h102l-90 -508l377 16l-23 -119l-368 17l-80 -451l377 17l-23 -119l-371 16l-127 -721h-102l127 721z" />
<glyph unicode="&#x2022;" horiz-adv-x="833" d="M170 584q0 100 70 170.5t170 70.5t170.5 -70.5t70.5 -170.5t-70.5 -171t-170.5 -71t-170 71t-70 171z" />
<glyph unicode="&#x2026;" horiz-adv-x="1095" d="M39 0l39 217h147l-39 -217h-147zM371 0l39 217h147l-39 -217h-147zM698 0l39 217h148l-39 -217h-148z" />
<glyph unicode="&#x202f;" horiz-adv-x="381" />
<glyph unicode="&#x2030;" horiz-adv-x="2377" d="M160 987q0 84 21.5 166t62.5 150.5t107 110.5t147 42q127 0 202.5 -76t75.5 -223q0 -84 -21.5 -166t-62 -150.5t-106.5 -110.5t-148 -42q-125 0 -201.5 76t-76.5 223zM268 981q0 -201 172 -201q56 0 102 38.5t73 97.5t41 123.5t14 123.5q0 201 -174 201q-56 0 -101.5 -38 t-72 -97.5t-40.5 -124t-14 -123.5zM365 0l864 1434h112l-862 -1434h-114zM932 276q0 84 22 166t63 150.5t107.5 110.5t147.5 42q125 0 201.5 -76t76.5 -223q0 -85 -21.5 -166.5t-62 -150t-107.5 -110.5t-149 -42q-125 0 -201.5 76t-76.5 223zM1042 270q0 -102 42.5 -151 t129.5 -49q56 0 101.5 38t72 97.5t40.5 124t14 123.5q0 200 -172 200q-56 0 -101.5 -38t-72 -97.5t-40.5 -124t-14 -123.5zM1634 276q0 84 22 166t63 150.5t107.5 110.5t147.5 42q126 0 202.5 -76t76.5 -223q0 -85 -21.5 -166.5t-62 -150t-107.5 -110.5t-149 -42 q-126 0 -202.5 76t-76.5 223zM1743 270q0 -200 174 -200q56 0 101.5 38t71.5 97.5t40 124t14 123.5q0 200 -172 200q-45 0 -84 -25.5t-65 -66t-44.5 -92t-27 -102t-8.5 -97.5z" />
<glyph unicode="&#x2039;" horiz-adv-x="696" d="M59 535l17 88l588 460l-29 -155l-461 -363l336 -356l-25 -135z" />
<glyph unicode="&#x203a;" horiz-adv-x="696" d="M20 74l29 155l461 363l-336 356l25 135l426 -460l-17 -88z" />
<glyph unicode="&#x2044;" horiz-adv-x="260" d="M-307 0l805 1434h106l-805 -1434h-106z" />
<glyph unicode="&#x205f;" horiz-adv-x="477" />
<glyph unicode="&#x2070;" horiz-adv-x="755" d="M186 1059q0 37 5 84.5t17.5 106t31 115.5t47.5 111.5t64.5 95.5t86 66t107.5 25q235 0 235 -285q0 -55 -10 -125.5t-36.5 -156.5t-65 -156.5t-103.5 -118t-145 -47.5q-118 0 -176 74.5t-58 210.5zM287 1053q0 -41 4.5 -71.5t17.5 -60t41 -45.5t70 -16q69 0 122.5 65 t81 157.5t41 172t13.5 129.5q0 41 -4.5 71.5t-17.5 60t-40.5 45.5t-68.5 16q-56 0 -102.5 -44.5t-74.5 -108.5t-48 -139.5t-27.5 -134.5t-7.5 -97z" />
<glyph unicode="&#x2074;" horiz-adv-x="716" d="M123 979l12 80l453 590h135l-105 -580h113l-16 -90h-113l-33 -191h-100l33 191h-379zM244 1069h274l84 471z" />
<glyph unicode="&#x2075;" horiz-adv-x="667" d="M119 872l57 70q1 -1 14.5 -11t22.5 -15.5t27.5 -16t34 -16.5t37 -10.5t42.5 -4.5q79 0 143 60.5t64 161.5q0 71 -35 113t-100 42q-76 0 -160 -55l-53 33l113 426h409l-16 -90h-324l-59 -250q57 26 117 26q100 0 156.5 -68t56.5 -173q0 -133 -84 -226.5t-222 -93.5 q-126 0 -241 98z" />
<glyph unicode="&#x2076;" horiz-adv-x="708" d="M178 1069q0 156 62.5 292.5t172 219t238.5 82.5q31 0 59.5 -5.5t41.5 -10.5l12 -5l-37 -79q-33 10 -74 10q-117 0 -212.5 -92.5t-137.5 -235.5q79 94 199 94q99 0 155 -69.5t56 -167.5q0 -83 -33 -156.5t-100 -122.5t-154 -49q-121 0 -184.5 86t-63.5 209zM279 1067 q0 -85 37 -144t106 -59q87 0 137.5 70t50.5 166q0 64 -34 109.5t-101 45.5q-62 0 -115.5 -41t-78.5 -88q-2 -20 -2 -59z" />
<glyph unicode="&#x2077;" horiz-adv-x="583" d="M188 788q18 97 61.5 207.5t85.5 190t102 170t83.5 122t55.5 73.5q5 6 6 8h-363l17 90h479l-15 -80q-13 -16 -36 -44.5t-84 -117t-111 -176.5t-100 -211t-70 -232h-111z" />
<glyph unicode="&#x2078;" horiz-adv-x="714" d="M145 983q0 171 234 272q-107 72 -107 183q0 99 74.5 162t185.5 63q99 0 156 -52t57 -132q0 -142 -184 -232q148 -82 148 -217q0 -113 -91 -184.5t-223 -71.5q-115 0 -182.5 55t-67.5 154zM250 989q0 -63 40 -96t107 -33q83 0 145 48.5t62 123.5q0 61 -37.5 101t-101.5 75 q-48 -22 -79 -39t-66 -44t-52.5 -61t-17.5 -75zM371 1430q0 -81 98 -138q176 70 176 178q0 46 -31.5 77.5t-85.5 31.5q-66 0 -111.5 -43.5t-45.5 -105.5z" />
<glyph unicode="&#x2079;" horiz-adv-x="708" d="M156 795l41 79q28 -10 71 -10q116 0 211 92t137 234q-82 -92 -196 -92q-100 0 -155.5 69t-55.5 168q0 130 79 229t210 99q61 0 109 -25t77 -66.5t44 -93.5t15 -110q0 -156 -62.5 -292.5t-172 -219t-238.5 -82.5q-31 0 -59.5 5t-41.5 11zM309 1337q0 -63 34.5 -109 t100.5 -46q62 0 117.5 41.5t77.5 87.5q4 36 4 59q0 85 -37 144t-108 59q-86 0 -137.5 -70t-51.5 -166z" />
<glyph unicode="&#x207a;" horiz-adv-x="671" d="M168 1159l14 80h224l40 223h78l-39 -223h224l-13 -80h-225l-39 -225h-80l39 225h-223z" />
<glyph unicode="&#x207d;" horiz-adv-x="393" d="M146 740.5q-2 41.5 8 101.5l133 751q8 45 14.5 68.5t21 50.5t38 43t61 32.5t94.5 31.5l19 -70q-85 -30 -110 -57t-36 -93l-135 -768q-15 -73 -3 -97t83 -54l-29 -68q-84 26 -120.5 56.5t-38.5 72z" />
<glyph unicode="&#x207e;" horiz-adv-x="391" d="M70 682q85 30 109.5 56.5t35.5 92.5l135 768q15 73 3 97.5t-83 54.5l29 68q85 -26 121.5 -56.5t38.5 -72t-8 -101.5l-134 -751q-8 -45 -14.5 -68.5t-21 -50.5t-38 -43t-61 -32.5t-94.5 -31.5z" />
<glyph unicode="&#x207f;" horiz-adv-x="690" d="M139 788l115 646h98l-16 -86q138 100 235 100q79 0 111 -53t16 -144l-80 -463h-98l80 451q4 35 2.5 62.5t-19 45t-51.5 17.5q-50 0 -110 -33t-100 -71l-84 -472h-99z" />
<glyph unicode="&#x2080;" horiz-adv-x="755" d="M-6 -37q0 37 5 84.5t17.5 106t30.5 115.5t47 111.5t64.5 95.5t86 66t107.5 25q236 0 236 -284q0 -55 -10 -125.5t-36.5 -157t-65.5 -156.5t-104 -118t-145 -48q-118 0 -175.5 74.5t-57.5 210.5zM94 -43q0 -41 4.5 -71.5t17.5 -60t41 -45.5t70 -16q56 0 102 44.5t74 108.5 t47.5 140t27 135t7.5 97q0 41 -4.5 71.5t-17.5 60t-40.5 45t-68.5 15.5q-56 0 -102.5 -44.5t-74.5 -108.5t-48 -139.5t-27.5 -134.5t-7.5 -97z" />
<glyph unicode="&#x2081;" horiz-adv-x="501" d="M10 438l201 115h92l-153 -860h-101l133 747l-137 -75z" />
<glyph unicode="&#x2082;" horiz-adv-x="665" d="M-86 -307l12 67q8 53 28 98.5t43 77.5t59.5 65.5t66 55.5t74.5 53q15 10 22 15q109 75 161 128.5t52 117.5q0 46 -31.5 75t-89.5 29q-100 0 -200 -72l-41 76q124 88 252 88q99 0 156 -50.5t57 -139.5q0 -25 -5.5 -50t-13 -45.5t-23.5 -43t-28 -38.5t-35.5 -37.5 t-36.5 -33.5t-42 -33t-41 -29.5t-43 -29.5t-40 -27q-85 -58 -125 -106t-53 -121h383l-16 -90h-502z" />
<glyph unicode="&#x2083;" horiz-adv-x="673" d="M-88 -227l57 69q100 -71 199 -71q87 0 143 51.5t56 130.5q0 81 -59.5 122.5t-143.5 41.5h-29l17 92h34q82 0 152 50.5t70 121.5q0 44 -30 69t-83 25q-95 0 -191 -65l-34 75q132 82 245 82q92 0 144.5 -48.5t52.5 -121.5q0 -70 -48 -134t-140 -99q64 -18 105.5 -75 t41.5 -136q0 -70 -32 -131t-102 -102.5t-165 -41.5q-134 0 -260 95z" />
<glyph unicode="&#x2084;" horiz-adv-x="714" d="M-70 -117l13 80l452 590h135l-104 -580h113l-17 -90h-112l-33 -190h-101l33 190h-379zM51 -27h275l84 471z" />
<glyph unicode="&#x2085;" horiz-adv-x="667" d="M-74 -223l58 69q2 -1 12.5 -9t18 -13t21 -13.5t27 -14t29.5 -11.5t34 -9t36 -3q79 0 143 60t64 161q0 71 -35.5 113.5t-100.5 42.5q-74 0 -159 -56l-54 33l113 426h410l-17 -90h-323l-60 -250q59 27 117 27q100 0 156.5 -68.5t56.5 -173.5q0 -133 -83.5 -226.5 t-221.5 -93.5q-126 0 -242 99z" />
<glyph unicode="&#x2086;" horiz-adv-x="710" d="M-14 -27q0 156 62.5 292.5t172 219t238.5 82.5q31 0 59 -5t40 -10l13 -5l-36 -80q-33 10 -74 10q-117 0 -212.5 -92t-137.5 -235q79 94 198 94q99 0 155 -69.5t56 -168.5q0 -83 -33 -156.5t-100 -122.5t-154 -49q-121 0 -184 86t-63 209zM86 -29q0 -85 37 -143.5 t106 -58.5q87 0 138 69.5t51 165.5q0 64 -34 110t-101 46q-62 0 -116 -41t-79 -88q-2 -20 -2 -60z" />
<glyph unicode="&#x2087;" horiz-adv-x="583" d="M-6 -307q18 97 61.5 207.5t85.5 189.5t101.5 170t83 122.5t55.5 72.5q5 6 6 8h-362l16 90h479l-14 -80q-13 -16 -36 -44.5t-84 -116.5t-111.5 -176t-100.5 -211t-70 -232h-110z" />
<glyph unicode="&#x2088;" horiz-adv-x="714" d="M-47 -113q0 172 233 273q-106 71 -106 182q0 99 74.5 162t185.5 63q99 0 156 -52t57 -132q0 -141 -184 -231q147 -82 147 -218q0 -113 -90.5 -184.5t-222.5 -71.5q-115 0 -182.5 55t-67.5 154zM57 -106q0 -63 40.5 -96.5t107.5 -33.5q83 0 145 49t62 124q0 61 -38 101 t-102 75q-48 -22 -79 -39t-66 -44t-52.5 -61t-17.5 -75zM178 334q0 -80 98 -137q177 70 177 178q0 46 -31.5 77t-85.5 31q-66 0 -112 -43.5t-46 -105.5z" />
<glyph unicode="&#x2089;" horiz-adv-x="708" d="M-37 -301l41 80q29 -10 72 -10q116 0 211 91.5t137 233.5q-82 -92 -197 -92q-100 0 -155.5 69.5t-55.5 168.5q0 130 79 228.5t210 98.5q119 0 182.5 -86.5t63.5 -208.5q0 -156 -62.5 -292.5t-172 -219t-238.5 -82.5q-31 0 -60 5t-42 11zM117 242q0 -63 34.5 -109.5 t100.5 -46.5q62 0 117 41.5t77 87.5q5 45 5 59q0 85 -37.5 144t-108.5 59q-86 0 -137 -69.5t-51 -165.5z" />
<glyph unicode="&#x208a;" horiz-adv-x="669" d="M-27 63l15 80h223l41 224h78l-39 -224h223l-12 -80h-226l-38 -225h-80l39 225h-224z" />
<glyph unicode="&#x208d;" horiz-adv-x="393" d="M-47.5 -355.5q-2.5 41.5 8.5 101.5l133 752q10 55 19 83t33 57t65.5 47.5t112.5 37.5l18 -70q-85 -30 -109.5 -56.5t-35.5 -92.5l-136 -768q-15 -73 -3 -97.5t83 -54.5l-28 -67q-85 26 -121.5 56t-39 71.5z" />
<glyph unicode="&#x208e;" horiz-adv-x="391" d="M-125 -414q85 30 109.5 57t35.5 93l136 768q15 73 3 97t-83 54l28 68q85 -26 121.5 -56t39 -71.5t-8.5 -101.5l-133 -752q-10 -55 -19 -82.5t-32.5 -57t-65 -48t-112.5 -37.5z" />
<glyph unicode="&#x20a1;" horiz-adv-x="964" d="M131 578q0 162 41.5 298t108 221.5t147.5 133t164 47.5q15 0 43 -4l57 160h80l-63 -177q30 -9 57 -24l72 201h80l-87 -240q30 -21 109 -88l-72 -82q-53 46 -75 63l-295 -813q34 8 76.5 27.5t68 35t66 41.5t43.5 28l53 -97q-3 -2 -30.5 -19t-37.5 -23t-38.5 -22.5 t-45 -24.5t-45.5 -20.5t-50.5 -19t-48.5 -12.5t-52 -8l-58 -160h-80l58 162q-35 7 -60 18l-65 -180h-80l82 223q-123 110 -123 355zM258 588q0 -148 45 -228l291 805q-86 -6 -162.5 -80t-125 -206t-48.5 -291zM358 297q30 -20 60 -25l309 858q-31 17 -57 25z" />
<glyph unicode="&#x20a4;" horiz-adv-x="956" d="M23 0l16 98q7 5 18.5 15.5t44 44t62 69t64 89t57.5 106.5h-170l16 94h184q15 66 15 111q0 27 -2 41h-170l16 96h137q-6 24 -24.5 89.5t-27.5 114t-9 99.5q0 174 101.5 281.5t266.5 107.5q58 0 110.5 -12.5t104.5 -41t74.5 -43.5t71.5 -50l-78 -86q-160 116 -272 116 q-110 0 -182 -78t-72 -200q0 -50 9.5 -97t29 -109t26.5 -91h310l-17 -96h-280q2 -10 2 -31q0 -48 -15 -121h267l-17 -94h-276q-62 -162 -205 -305h539l-21 -117h-704z" />
<glyph unicode="&#x20a7;" horiz-adv-x="1148" d="M88 0l170 961h-51l14 81h51l70 392h371q187 0 293 -83t106 -261q0 -28 -2 -48h41l-14 -81h-37q-37 -189 -180 -288.5t-353 -99.5h-248l-102 -573h-129zM340 690h233q92 0 170 28.5t137 91t83 151.5h-576zM401 1042h576q2 12 2 41q0 122 -71.5 178t-196.5 56h-260z" />
<glyph unicode="&#x20a9;" horiz-adv-x="1722" d="M94 492l19 96h209l-13 258h-151l16 98h131l-22 490h139l12 -490h314l190 490h125l14 -490h309l187 490h147l-196 -490h135l-19 -98h-155l-103 -258h213l-16 -96h-236l-196 -492h-139l-43 1221l-473 -1221h-142l-24 492h-232zM438 846l6 -258h164l101 258h-271zM446 492 l9 -302l116 302h-125zM1081 846l9 -258h161l99 258h-269zM1092 492l10 -302l112 302h-122z" />
<glyph unicode="&#x20ac;" horiz-adv-x="1204" d="M80 492l18 94h99q6 133 30 250h-86l17 94h94q72 243 218 384.5t323 141.5q64 0 123 -18t113 -55t90 -67.5t85 -78.5l-80 -88q-94 95 -169 140.5t-156 45.5q-127 0 -236.5 -109.5t-171.5 -295.5h500l-17 -94h-509q-27 -117 -33 -250h499l-18 -94h-483q4 -200 68.5 -297 t168.5 -97q150 0 391 187l64 -101q-137 -96 -251 -151.5t-226 -55.5q-155 0 -249.5 126.5t-98.5 388.5h-117z" />
<glyph unicode="&#x2116;" horiz-adv-x="1918" d="M84 0l254 1434h133l401 -1221l218 1221h129l-254 -1434h-134l-401 1223l-217 -1223h-129zM1208 387l17 92h499l-16 -92h-500zM1251 897q0 61 12.5 128t40.5 137.5t68 126t101.5 91t134.5 35.5q125 0 201.5 -75t76.5 -222q0 -61 -12 -128t-40.5 -137.5t-68 -126t-101 -91 t-134.5 -35.5q-125 0 -202 75t-77 222zM1360 897q0 -199 174 -199q50 0 92 31.5t69 79t46 106t27 110.5t8 93q0 199 -172 199q-61 0 -110.5 -46.5t-77 -116t-42 -137t-14.5 -120.5z" />
<glyph unicode="&#x2117;" horiz-adv-x="1695" d="M137 641q0 131 32.5 251.5t98.5 223t158.5 178.5t219 119t274.5 43q206 0 360 -84.5t234.5 -234.5t80.5 -344q0 -131 -32.5 -251.5t-98.5 -223.5t-158 -179t-219.5 -119t-275.5 -43q-309 0 -491.5 184t-182.5 480zM213 643q0 -262 162.5 -427t443.5 -165q161 0 294.5 59 t221.5 160t136.5 235.5t48.5 285.5q0 172 -71 305t-210 209.5t-326 76.5q-129 0 -241.5 -38t-195.5 -106t-143 -160.5t-90 -203t-30 -231.5zM565 285l152 862h284q117 0 185.5 -56.5t68.5 -168.5q0 -148 -95 -224.5t-253 -76.5h-194l-58 -336h-90zM729 700h195q101 0 170 61 t69 161q0 75 -46.5 111t-127.5 36h-196z" />
<glyph unicode="&#x2120;" horiz-adv-x="1142" d="M207 1030l41 55q82 -51 149 -51q38 0 67.5 17t29.5 47q0 12 -5.5 22t-19.5 19t-25 14.5t-35 15t-36 15.5q-50 21 -79.5 50t-29.5 77q0 58 46.5 94.5t119.5 36.5q93 0 176 -53l-41 -52q-81 37 -131 37q-37 0 -61.5 -15.5t-24.5 -43.5q0 -11 4.5 -20t17.5 -17t22 -13 t32.5 -15t34.5 -15q52 -24 84 -54t32 -77q0 -62 -51 -99.5t-127 -37.5q-101 0 -190 63zM614 975l80 459h82l80 -293l191 293h79l-82 -459h-75l55 317l-156 -241h-49l-69 254l-58 -330h-78z" />
<glyph unicode="&#x2122;" horiz-adv-x="1130" d="M260 1364l10 70h346l-12 -70h-135l-68 -389h-75l67 389h-133zM602 975l80 459h80l80 -295l190 295h80l-80 -459h-78l58 321l-158 -245h-49l-68 254l-59 -330h-76z" />
<glyph unicode="&#x2126;" horiz-adv-x="1284" d="M63 0l21 117h203q-30 24 -53 50t-48 69t-39 105.5t-14 139.5q0 75 10 160t32.5 180t56.5 184.5t85 172t114 144t148.5 98t182.5 36.5q201 0 315.5 -118t114.5 -363q0 -181 -52 -365t-136 -317t-177 -176h195l-21 -117h-378l20 113q95 30 176 125t132 220t79.5 262 t28.5 261q0 179 -76.5 268.5t-224.5 89.5q-84 0 -155 -37.5t-120.5 -98t-89 -142t-63 -164t-39 -169t-21.5 -153.5t-6 -120q0 -141 51.5 -221.5t145.5 -120.5l-21 -113h-377z" />
<glyph unicode="&#x2153;" horiz-adv-x="1390" d="M164 0l805 1434h106l-805 -1434h-106zM182 1319l201 115h92l-153 -861h-101l133 748l-137 -76zM680 80l57 70q102 -72 199 -72q87 0 143 51.5t56 130.5q0 81 -59.5 122.5t-143.5 41.5h-29l17 92h34q82 0 152 50.5t70 121.5q0 44 -30 69t-83 25q-95 0 -191 -65l-34 76 q130 81 245 81q92 0 144.5 -48t52.5 -121q0 -70 -48 -134.5t-140 -99.5q64 -18 105.5 -75t41.5 -136q0 -110 -79 -192t-220 -82q-136 0 -260 94z" />
<glyph unicode="&#x2154;" horiz-adv-x="1619" d="M96 573l13 68q11 66 35.5 118.5t65 94t77.5 70.5t93 68q7 4 11.5 7.5t9.5 6.5q54 37 85 61t64.5 56t48.5 63t15 65q0 46 -31 75.5t-89 29.5q-101 0 -201 -72l-41 76q124 88 252 88q99 0 156 -51t57 -140q0 -25 -5.5 -50t-13 -45t-23.5 -43t-27.5 -39t-35 -37.5t-37 -33 t-42 -32.5t-40.5 -29.5t-43 -29.5t-40 -27q-86 -58 -126 -106.5t-53 -120.5h383l-16 -91h-502zM399 0l805 1434h107l-805 -1434h-107zM907 80l58 70q102 -72 198 -72q87 0 143 51.5t56 130.5q0 81 -59.5 122.5t-143.5 41.5h-29l17 92h35q82 0 151.5 50.5t69.5 121.5 q0 44 -30 69t-83 25q-94 0 -190 -65l-35 76q131 81 246 81q92 0 144 -48t52 -121q0 -70 -48 -134.5t-140 -99.5q64 -18 105.5 -75t41.5 -136q0 -110 -79 -192t-220 -82q-136 0 -260 94z" />
<glyph unicode="&#x2155;" horiz-adv-x="1400" d="M164 0l805 1434h106l-805 -1434h-106zM182 1319l201 115h92l-153 -861h-101l133 748l-137 -76zM692 84l58 70q1 -1 14.5 -11t22.5 -15.5t27.5 -16t34 -16.5t37 -10.5t42.5 -4.5q79 0 143 60t64 161q0 71 -35.5 113.5t-100.5 42.5q-74 0 -159 -56l-54 33l113 426h410 l-17 -90h-323l-60 -250q59 27 117 27q100 0 156.5 -68.5t56.5 -173.5q0 -133 -83.5 -226t-221.5 -93q-127 0 -242 98z" />
<glyph unicode="&#x2156;" horiz-adv-x="1632" d="M96 573l13 68q11 66 35.5 118.5t65 94t77.5 70.5t93 68q7 4 11.5 7.5t9.5 6.5q54 37 85 61t64.5 56t48.5 63t15 65q0 46 -31 75.5t-89 29.5q-101 0 -201 -72l-41 76q124 88 252 88q99 0 156 -51t57 -140q0 -25 -5.5 -50t-13 -45t-23.5 -43t-27.5 -39t-35 -37.5t-37 -33 t-42 -32.5t-40.5 -29.5t-43 -29.5t-40 -27q-86 -58 -126 -106.5t-53 -120.5h383l-16 -91h-502zM397 0l805 1434h107l-805 -1434h-107zM922 84l57 70q1 -1 14.5 -11t22.5 -15.5t27.5 -16t34 -16.5t37 -10.5t42.5 -4.5q79 0 143 60t64 161q0 71 -35 113.5t-100 42.5 q-75 0 -160 -56l-53 33l112 426h410l-16 -90h-324l-59 -250q59 27 116 27q100 0 156.5 -68.5t56.5 -173.5q0 -133 -83.5 -226t-221.5 -93q-126 0 -241 98z" />
<glyph unicode="&#x2157;" horiz-adv-x="1605" d="M94 653l58 70q102 -72 198 -72q87 0 143 52t56 131q0 81 -59.5 122t-143.5 41h-29l17 93h35q82 0 151.5 50.5t69.5 121.5q0 44 -30 69t-83 25q-92 0 -190 -66l-35 76q132 82 246 82q92 0 144 -48.5t52 -121.5q0 -70 -48 -134.5t-140 -99.5q64 -18 105.5 -74.5 t41.5 -135.5q0 -70 -32 -131t-102 -102.5t-165 -41.5q-136 0 -260 94zM371 0l805 1434h106l-805 -1434h-106zM895 84l57 70q1 -1 14.5 -11t22.5 -15.5t27.5 -16t34 -16.5t37 -10.5t42.5 -4.5q79 0 143 60t64 161q0 71 -35 113.5t-100 42.5q-75 0 -160 -56l-53 33l113 426 h409l-16 -90h-324l-59 -250q59 27 117 27q100 0 156.5 -68.5t56.5 -173.5q0 -133 -83.5 -226t-221.5 -93q-127 0 -242 98z" />
<glyph unicode="&#x2158;" horiz-adv-x="1638" d="M94 764l12 80l453 590h135l-104 -580h112l-16 -90h-113l-32 -191h-101l33 191h-379zM215 854h274l84 471zM406 0l804 1434h107l-805 -1434h-106zM928 84l57 70q1 -1 14.5 -11t22.5 -15.5t27.5 -16t34 -16.5t37 -10.5t42.5 -4.5q79 0 143 60t64 161q0 71 -35 113.5 t-100 42.5q-75 0 -160 -56l-53 33l113 426h409l-16 -90h-324l-59 -250q59 27 117 27q100 0 156.5 -68.5t56.5 -173.5q0 -133 -84 -226t-222 -93q-126 0 -241 98z" />
<glyph unicode="&#x2159;" horiz-adv-x="1372" d="M164 0l805 1434h106l-805 -1434h-106zM182 1319l201 115h92l-153 -861h-101l133 748l-137 -76zM684 281q0 156 62.5 292.5t172 218.5t238.5 82q31 0 59.5 -5t41.5 -10l12 -5l-37 -80q-33 10 -74 10q-117 0 -212.5 -92t-137.5 -235q79 94 199 94q99 0 155 -69.5t56 -168.5 q0 -83 -33 -156.5t-100 -122t-154 -48.5q-121 0 -184.5 86t-63.5 209zM784 279q0 -84 37.5 -143.5t106.5 -59.5q87 0 137.5 69.5t50.5 165.5q0 64 -34 110t-101 46q-62 0 -116 -41t-79 -88q-2 -20 -2 -59z" />
<glyph unicode="&#x215a;" horiz-adv-x="1542" d="M102 657l58 70q1 -1 14.5 -11t22.5 -15.5t27.5 -16t34 -16.5t37 -10.5t42.5 -4.5q79 0 143 60t64 161q0 71 -35 113.5t-100 42.5q-76 0 -160 -55l-53 33l112 426h410l-17 -91h-323l-60 -249q57 26 117 26q100 0 156.5 -68t56.5 -173q0 -133 -83.5 -226.5t-221.5 -93.5 q-127 0 -242 98zM338 0l805 1434h106l-805 -1434h-106zM854 281q0 156 62.5 292.5t172 218.5t238.5 82q31 0 59.5 -5t41.5 -10l12 -5l-37 -80q-33 10 -74 10q-117 0 -212.5 -92t-137.5 -235q79 94 199 94q99 0 155 -69.5t56 -168.5q0 -83 -33 -156.5t-100 -122t-154 -48.5 q-121 0 -184.5 86t-63.5 209zM954 279q0 -84 37.5 -143.5t106.5 -59.5q87 0 137.5 69.5t50.5 165.5q0 64 -34 110t-101 46q-62 0 -116 -41t-79 -88q-2 -20 -2 -59z" />
<glyph unicode="&#x215b;" horiz-adv-x="1402" d="M164 0l805 1434h106l-805 -1434h-106zM182 1319l201 115h92l-153 -861h-101l133 748l-137 -76zM686 195q0 171 234 272q-107 72 -107 182q0 99 74.5 162t185.5 63q99 0 156 -52t57 -132q0 -141 -184 -231q147 -82 147 -217q0 -113 -90.5 -184.5t-222.5 -71.5 q-115 0 -182.5 55t-67.5 154zM791 201q0 -63 40 -96t107 -33q83 0 145 48.5t62 123.5q0 61 -37.5 101t-101.5 75q-48 -22 -79 -39t-66 -44t-52.5 -61t-17.5 -75zM911 641q0 -79 99 -137q176 70 176 178q0 46 -31.5 77.5t-85.5 31.5q-66 0 -112 -44t-46 -106z" />
<glyph unicode="&#x215c;" horiz-adv-x="1603" d="M94 653l58 70q102 -72 198 -72q87 0 143 52t56 131q0 81 -59.5 122t-143.5 41h-29l17 93h35q82 0 151.5 50.5t69.5 121.5q0 44 -30 69t-83 25q-92 0 -190 -66l-35 76q132 82 246 82q92 0 144 -48.5t52 -121.5q0 -70 -48 -134.5t-140 -99.5q64 -18 105.5 -74.5 t41.5 -135.5q0 -70 -32 -131t-102 -102.5t-165 -41.5q-136 0 -260 94zM371 0l805 1434h106l-805 -1434h-106zM887 195q0 171 233 272q-106 71 -106 182q0 99 74.5 162t185.5 63q99 0 156 -52t57 -132q0 -141 -184 -231q147 -82 147 -217q0 -113 -90.5 -184.5t-222.5 -71.5 q-115 0 -182.5 55t-67.5 154zM991 201q0 -63 40.5 -96t107.5 -33q83 0 145 48.5t62 123.5q0 61 -38 101t-102 75q-48 -22 -79 -39t-66 -44t-52.5 -61t-17.5 -75zM1112 641q0 -80 98 -137q176 70 176 178q0 46 -31 77.5t-85 31.5q-66 0 -112 -44t-46 -106z" />
<glyph unicode="&#x215d;" horiz-adv-x="1574" d="M102 657l58 70q1 -1 14.5 -11t22.5 -15.5t27.5 -16t34 -16.5t37 -10.5t42.5 -4.5q79 0 143 60t64 161q0 71 -35 113.5t-100 42.5q-76 0 -160 -55l-53 33l112 426h410l-17 -91h-323l-60 -249q57 26 117 26q100 0 156.5 -68t56.5 -173q0 -133 -83.5 -226.5t-221.5 -93.5 q-127 0 -242 98zM336 0l805 1434h106l-805 -1434h-106zM856 195q0 171 234 272q-107 72 -107 182q0 99 74.5 162t185.5 63q99 0 156 -52t57 -132q0 -141 -184 -231q147 -82 147 -217q0 -113 -90.5 -184.5t-222.5 -71.5q-115 0 -182.5 55t-67.5 154zM961 201q0 -63 40 -96 t107 -33q83 0 145 48.5t62 123.5q0 61 -37.5 101t-101.5 75q-48 -22 -79 -39t-66 -44t-52.5 -61t-17.5 -75zM1081 641q0 -79 99 -137q176 70 176 178q0 46 -31.5 77.5t-85.5 31.5q-66 0 -112 -44t-46 -106z" />
<glyph unicode="&#x215e;" horiz-adv-x="1406" d="M162 573q18 97 61.5 207.5t85.5 189.5t101.5 170t83 122.5t55.5 72.5q5 6 6 8h-362l16 91h479l-14 -80q-13 -16 -36 -44.5t-84 -117t-111.5 -176.5t-100.5 -211t-70 -232h-110zM174 0l805 1434h106l-804 -1434h-107zM692 195q0 171 234 272q-107 72 -107 182 q0 99 74.5 162t185.5 63q99 0 156 -52t57 -132q0 -141 -184 -231q147 -82 147 -217q0 -113 -90.5 -184.5t-222.5 -71.5q-115 0 -182.5 55t-67.5 154zM797 201q0 -63 40 -96t107 -33q83 0 145 48.5t62 123.5q0 61 -37.5 101t-101.5 75q-48 -22 -79 -39t-66 -44t-52.5 -61 t-17.5 -75zM918 641q0 -80 98 -137q176 70 176 178q0 46 -31.5 77.5t-85.5 31.5q-66 0 -111.5 -44t-45.5 -106z" />
<glyph unicode="&#x2202;" horiz-adv-x="1062" d="M74 381q0 122 36 232t98 189.5t149 126t184 46.5q62 0 114 -19.5t82.5 -47.5t52 -56.5t29.5 -47.5l8 -20q-1 78 -12.5 152t-38 145.5t-66 125t-100.5 86t-137 32.5q-31 0 -64 -4.5t-50 -8.5l-17 -5l-4 108q63 19 145 19q219 0 340 -177.5t121 -494.5q0 -359 -141 -572 t-373 -213q-166 0 -261 105.5t-95 298.5zM203 377q0 -133 55 -212t176 -79q74 0 135.5 32t102.5 83.5t69.5 117.5t41 132t12.5 129q0 133 -60 209.5t-176 76.5q-67 0 -125 -27.5t-99.5 -75t-71.5 -110t-45 -133t-15 -143.5z" />
<glyph unicode="&#x2206;" horiz-adv-x="1144" d="M-51 0l702 1434h144l198 -1434h-1044zM141 117h715l-156 1159z" />
<glyph unicode="&#x220f;" horiz-adv-x="1173" d="M133 0l232 1319h-179l21 115h1038l-20 -115h-181l-231 -1319h-129l234 1319h-424l-234 -1319h-127z" />
<glyph unicode="&#x2211;" horiz-adv-x="950" d="M-4 0l20 115l572 610l-359 594l19 115h733l-20 -117h-586l364 -600l-555 -600h566l-21 -117h-733z" />
<glyph unicode="&#x2212;" horiz-adv-x="1048" d="M109 629l20 106h832l-21 -106h-831z" />
<glyph unicode="&#x221a;" horiz-adv-x="974" d="M70 696h131l112 -493l629 1231h139l-745 -1434h-92z" />
<glyph unicode="&#x221e;" horiz-adv-x="1579" d="M106 477q0 152 98.5 260.5t250.5 108.5q42 0 81.5 -14t69 -33t64 -55.5t57 -65t57.5 -76.5q73 69 116 105.5t95.5 73t99.5 51t99 14.5q120 0 184 -75t64 -191q0 -152 -98.5 -260.5t-245.5 -108.5q-54 0 -100.5 17.5t-88.5 55.5t-72 74.5t-73 96.5 q-141 -135 -225.5 -189.5t-182.5 -54.5q-121 0 -185.5 75t-64.5 191zM215 481q0 -68 40.5 -117t111.5 -49t145 50.5t199 166.5q-88 121 -139.5 165t-114.5 44q-111 0 -176.5 -81.5t-65.5 -178.5zM838 524q88 -122 139 -165.5t117 -43.5q76 0 132 42t81.5 100.5t25.5 120.5 q0 67 -40.5 115t-110.5 48q-73 0 -147 -50.5t-197 -166.5z" />
<glyph unicode="&#x222b;" horiz-adv-x="679" d="M-113 -293l17 96h39q55 0 95.5 19.5t63 40.5t43 80t27 90.5t22.5 119.5q1 3 1.5 5t1 5t0.5 5l200 1143q21 117 47 190.5t70 124.5t107.5 71.5t158.5 20.5h47l-16 -96h-39q-55 0 -95.5 -19.5t-63.5 -43t-43 -81t-28 -94t-23 -122.5q0 -1 -0.5 -2.5t-0.5 -2.5l-203 -1142 q-20 -118 -45.5 -191t-69 -124t-107.5 -72t-161 -21h-45z" />
<glyph unicode="&#x2248;" horiz-adv-x="1048" d="M74 430q61 108 124 155.5t136 47.5q52 0 102.5 -22t84.5 -48.5t78 -48.5t85 -22q91 0 170 131l78 -39q-115 -203 -262 -203q-52 0 -102.5 22t-84.5 48.5t-78.5 48.5t-85.5 22q-40 0 -79.5 -27t-87.5 -104zM137 793q116 200 264 200q42 0 82 -14.5t72 -34.5t62 -40.5 t64.5 -35t68.5 -14.5q42 0 82 26.5t88 102.5l77 -39q-116 -201 -264 -201q-42 0 -82 14.5t-72 35.5t-62.5 42t-64.5 35.5t-67 14.5q-41 0 -80.5 -27t-87.5 -104z" />
<glyph unicode="&#x2260;" horiz-adv-x="1048" d="M76 449l18 108h316l133 256h-404l21 107h438l184 350l84 -41l-161 -309h284l-20 -107h-322l-133 -256h410l-19 -108h-448l-181 -347l-81 41l159 306h-278z" />
<glyph unicode="&#x2264;" horiz-adv-x="1048" d="M-2 0l16 100h832l-19 -100h-829zM102 594l19 96l903 426l-25 -137l-761 -344l639 -344l-21 -123z" />
<glyph unicode="&#x2265;" horiz-adv-x="1048" d="M6 0l17 100h831l-18 -100h-830zM35 168l24 137l762 342l-641 346l23 123l755 -426l-18 -96z" />
<glyph unicode="&#x2318;" horiz-adv-x="1499" d="M86 342q0 69 26.5 121t73 82.5t104 45.5t124.5 15h145l39 221h-115q-109 0 -186.5 77.5t-77.5 185.5q0 110 77.5 188t186.5 78q39 0 78 -11t75.5 -36t62.5 -61t37 -90t1 -118q-12 -76 -16 -110h170l24 135q10 54 22.5 93.5t36 80.5t61.5 68.5t91 40.5q34 9 66 6 q106 -3 181 -80t75 -184q0 -89 -47 -150t-119 -87t-162 -26h-145l-39 -221h115q110 0 187 -77t77 -187q0 -109 -77 -185.5t-187 -76.5q-121 0 -198 91.5t-56 223.5l18 109h-170l-24 -135q-28 -145 -89 -217t-180 -72q-110 0 -188 76.5t-78 185.5zM188 342q0 -65 48.5 -112.5 t115.5 -47.5q64 0 104 37t54 107l31 178h-189q-68 0 -116 -47.5t-48 -114.5zM322 1090q0 -66 47 -113t114 -47h131q19 92 23 119q14 86 -29.5 145t-124.5 59q-68 0 -114.5 -47t-46.5 -116zM662 606h172l38 221h-172zM899 385q-17 -82 28 -142.5t124 -60.5q66 0 113.5 47.5 t47.5 112.5q0 67 -47.5 114.5t-113.5 47.5h-131zM995 930h187q68 0 116 47t48 113q0 69 -48 116t-116 47q-63 0 -105.5 -44.5t-50.5 -100.5z" />
<glyph unicode="&#x25ca;" horiz-adv-x="966" d="M111 717l442 717h149l191 -717l-444 -717h-148zM238 698l149 -575l381 614l-154 572z" />
<glyph unicode="&#xe000;" horiz-adv-x="1075" d="M0 0v1075h1075v-1075h-1075z" />
<glyph unicode="&#xf6c3;" horiz-adv-x="141" d="M-70 -494l103 179h-60l31 182h127l-18 -186l-148 -218z" />
<glyph unicode="&#xf6df;" horiz-adv-x="636" d="M-6 45q0 187 87.5 299.5t201.5 114.5l16 94h78l-19 -107q19 -6 37.5 -14t36 -19.5t29 -19t29 -21t22.5 -16.5l-53 -67q-4 3 -20.5 15t-29 21t-31.5 20t-36 17l-84 -479q24 7 49 20t53 30t33 20l37 -78q-1 -1 -15 -9t-18 -10t-17.5 -10t-21 -11t-21 -10t-23 -10.5 t-22.5 -8t-25.5 -8t-24.5 -5.5l-17 -100h-75l16 96q-78 9 -125 76t-47 180zM94 53q0 -74 22.5 -120t63.5 -56l86 490q-73 -19 -122.5 -106.5t-49.5 -207.5z" />
<glyph unicode="&#xf6e0;" horiz-adv-x="636" d="M186 1141q0 187 87.5 299t201.5 114l17 95h77l-18 -107q19 -6 37.5 -14t36 -19.5t29 -19t29 -21t22.5 -16.5l-54 -68q-2 2 -26.5 20.5t-46 32t-43.5 21.5l-84 -479q24 7 49 20t53 30t33 20l37 -78q-119 -69 -189 -82l-16 -101h-76l16 97q-78 9 -125 76t-47 180zM287 1149 q0 -74 22.5 -120t63.5 -56l86 489q-73 -19 -122.5 -106t-49.5 -207z" />
<glyph unicode="&#xf6e1;" horiz-adv-x="323" d="M-84 -434l78 127h-49l26 147h109l-14 -155l-123 -156z" />
<glyph unicode="&#xf6e2;" horiz-adv-x="325" d="M111 662l77 126h-49l27 148h108l-14 -156l-123 -155z" />
<glyph unicode="&#xf6e3;" horiz-adv-x="696" d="M-74 -215l60 74q99 -68 176 -84l57 323q-90 51 -136 102.5t-46 133.5q0 103 74.5 168t189.5 65l21 111h77l-20 -119q95 -18 194 -76l-57 -73q-71 39 -154 59l-53 -299q37 -22 59.5 -36.5t51.5 -38.5t45 -47t27.5 -55t11.5 -69q0 -111 -82.5 -178.5t-200.5 -67.5l-18 -108 h-76l20 117q-116 21 -221 98zM143 336q0 -42 23 -70.5t72 -56.5l47 264q-61 -5 -101.5 -41t-40.5 -96zM238 -231q68 5 113.5 44.5t45.5 102.5q0 48 -27 79.5t-81 63.5z" />
<glyph unicode="&#xf6e4;" horiz-adv-x="696" d="M119 881l59 73q91 -66 176 -84l58 324q-44 25 -72 45t-56 48.5t-41.5 63.5t-13.5 79q0 103 75 168t190 65l20 111h76l-21 -119q94 -17 197 -76l-57 -74q-83 46 -156 60l-53 -299q47 -27 75 -46.5t59.5 -50t46.5 -67t15 -82.5q0 -111 -82 -178.5t-200 -67.5l-19 -108h-76 l21 114q-116 21 -221 101zM336 1432q0 -42 22.5 -70.5t71.5 -56.5l47 264q-60 -5 -100.5 -41t-40.5 -96zM430 864q68 5 114 44.5t46 103.5q0 47 -27.5 79t-81.5 64z" />
<glyph unicode="&#xf6e7;" horiz-adv-x="319" d="M-55 -307l26 147h109l-25 -147h-110z" />
<glyph unicode="&#xf6e8;" horiz-adv-x="321" d="M139 788l27 148h108l-24 -148h-111z" />
<glyph unicode="&#xf6e9;" horiz-adv-x="690" d="M156 993q0 191 76 323t196 132q39 0 76.5 -19.5t56.5 -37.5t47 -48l17 91h98l-113 -646h-98l16 99q-109 -113 -215 -113q-69 0 -113 53.5t-44 165.5zM256 1004q0 -67 23 -105.5t65 -38.5q53 0 100 32t101 89l49 279q-71 102 -150 102q-56 0 -100 -55t-66 -136t-22 -167z " />
<glyph unicode="&#xf6ea;" horiz-adv-x="690" d="M141 788l158 895h98l-59 -331q105 96 199 96q73 0 122.5 -54.5t49.5 -166.5q0 -189 -74.5 -321t-192.5 -132q-41 0 -79.5 18t-60.5 37t-48 48l-14 -89h-99zM270 961q74 -101 156 -101q54 0 96.5 55t64 135.5t21.5 166.5q0 69 -26 107t-76 38q-48 0 -91 -27t-93 -75z" />
<glyph unicode="&#xf6eb;" horiz-adv-x="690" d="M156 993q0 191 76 323t196 132q39 0 76.5 -18.5t57.5 -36.5t46 -47l60 337h98l-158 -895h-98l16 95q-113 -109 -213 -109q-69 0 -113 53.5t-44 165.5zM256 1004q0 -67 23 -105.5t65 -38.5q52 0 99 31t100 86l49 285q-70 100 -148 100q-56 0 -100 -55t-66 -136t-22 -167z " />
<glyph unicode="&#xf6ec;" horiz-adv-x="636" d="M156 1044q0 175 89.5 289.5t235.5 114.5q88 0 138.5 -45t50.5 -119q0 -106 -92 -162.5t-263 -56.5h-59v-23q0 -186 121 -186q21 0 43 5t49 17.5t39.5 18.5t43.5 24.5t32 18.5l34 -72q-146 -94 -258 -94q-95 0 -149.5 68t-54.5 202zM262 1130h60q125 0 189 42.5t64 109.5 q0 41 -27.5 63.5t-74.5 22.5q-77 0 -134.5 -66t-76.5 -172z" />
<glyph unicode="&#xf6ed;" horiz-adv-x="319" d="M141 788l115 646h98l-114 -646h-99zM272 1563l21 118h106l-20 -118h-107z" />
<glyph unicode="&#xf6ee;" horiz-adv-x="319" d="M141 788l158 895h98l-157 -895h-99z" />
<glyph unicode="&#xf6ef;" horiz-adv-x="1021" d="M141 788l115 646h98l-16 -95q109 109 209 109q62 0 94 -33.5t37 -87.5q116 121 223 121q81 0 111 -54t14 -141l-80 -465h-98l80 451q22 125 -62 125q-85 0 -192 -117l-82 -459h-98l79 451q22 125 -63 125q-82 0 -188 -115l-82 -461h-99z" />
<glyph unicode="&#xf6f0;" horiz-adv-x="686" d="M158 1026q0 76 19.5 149.5t55.5 135t96 99.5t134 38q109 0 174 -63t65 -189q0 -76 -19.5 -149.5t-55.5 -135t-96 -99.5t-134 -38q-109 0 -174 63t-65 189zM256 1026q0 -168 141 -168q51 0 93 35.5t65.5 89t36 109t12.5 104.5q0 168 -141 168q-51 0 -93 -35.5t-65.5 -89 t-36 -109t-12.5 -104.5z" />
<glyph unicode="&#xf6f1;" horiz-adv-x="460" d="M141 788l115 646h98l-24 -140q5 11 15 26.5t31 39.5t46 42.5t62 30.5t77 9l-16 -96q-50 0 -93.5 -21.5t-70 -53t-45.5 -62.5t-27 -53l-8 -21l-61 -347h-99z" />
<glyph unicode="&#xf6f2;" horiz-adv-x="591" d="M115 860l51 66q105 -72 194 -72q51 0 89 27.5t38 76.5q0 11 -2 20.5t-7 18.5t-9 15.5t-13.5 13.5t-15 11.5t-19.5 11.5l-20 10t-23 11t-24 11q-36 16 -59 29t-49 35t-38.5 51.5t-12.5 67.5q0 83 61 133.5t154 50.5q111 0 225 -72l-47 -63q-103 57 -174 57 q-50 0 -85.5 -26.5t-35.5 -71.5q0 -10 2 -19t5 -16.5t9.5 -15t10.5 -12t14 -11t14 -9.5t17 -9t17 -8t18.5 -8t17.5 -7q86 -39 128 -80.5t42 -111.5q0 -88 -65 -139.5t-161 -51.5q-124 0 -247 86z" />
<glyph unicode="&#xf6f3;" horiz-adv-x="458" d="M180 1356l15 78h75l29 159l102 27l-32 -186h149l-14 -78h-150l-75 -424q-13 -68 36 -68q29 0 105 33l26 -80q-104 -43 -159 -43q-59 0 -89 41t-16 131l74 410h-76z" />
<glyph unicode="&#xf8ff;" horiz-adv-x="1804" d="M140.5 560.5q-2.5 11.5 15.5 21.5l57 41q2 1 3.5 2.5l3 3l2.5 2.5t2 3l1 1q19 16 37 -12l33 -64q6 -12 13.5 -15.5t14 2t9.5 17.5l18 70q4 19 18.5 21t26.5 -13l47 -53q13 -15 23.5 -11.5t11.5 23.5l4 70q3 20 15.5 25t27.5 -7l58 -43q17 -12 25.5 -6.5t4.5 25.5l-8 69 q-3 20 8.5 28t28.5 -1l64 -29q19 -9 26.5 -1.5t1.5 26.5l-22 67q-8 19 0.5 29t27.5 4l15 -2q40 -77 70 -202.5t30 -217.5q-15 -18 -34.5 -27.5t-59.5 -9.5h-8q0 46 -33 72q18 -21 18 -55v-15q-32 3 -32 39q0 43 -28 72t-77 29q-41 0 -68.5 -32t-27.5 -79q0 -60 49.5 -96.5 t138.5 -36.5q85 0 172 42t156.5 112t125 154.5t86 175.5t30.5 169q0 59 -37 98t-95 39q-48 0 -85 -33.5t-37 -84.5q0 -52 30.5 -82.5t87.5 -36.5q-30 -122 -59 -174q-12 96 -43.5 178t-75.5 129q91 -120 107 -330l-29 -41q0 156 -51 287t-131 172q-5 9 2 18.5t22 12.5l70 12 q19 3 21 13.5t-15 21.5l-59 39q-15 13 -13.5 26.5t19.5 20.5l63 29q14 4 19 10t0 13t-19 13l-63 27q-24 11 -21 29q13 6 15 16l35 62q9 19 20 18t16 -20l21 -68q6 -21 18.5 -24t26.5 14l47 53q12 15 23 12.5t12 -22.5l4 -72q1 -21 14.5 -26t28.5 8l57 43q15 12 24 5.5 t7 -26.5l-10 -70q-1 -20 10.5 -27.5t28.5 1.5l63 33q19 8 26.5 0t0.5 -29l-23 -64q-6 -20 3 -30t28 -4l70 14q20 6 26.5 -2t-4.5 -27l-37 -59q-12 -17 -5.5 -29.5t26.5 -11.5l71 4q21 0 25.5 -11t-8.5 -24l-49 -53q-14 -13 -10.5 -26.5t24.5 -16.5l70 -12q43 -10 6 -39 l-58 -39q-10 -7 -13 -15.5t2 -16.5t18 -13l63 -27q12 -5 16.5 -12t0 -13.5t-16.5 -11.5l-63 -26q-20 -7 -21.5 -22t14.5 -25l58 -41q11 -7 14.5 -14.5t-2 -13.5t-18.5 -9l-70 -13q-21 -3 -24.5 -16.5t10.5 -28.5l49 -49q13 -14 8.5 -24.5t-25.5 -10.5l-71 5q-20 0 -26.5 -12 t5.5 -29l37 -62q10 -17 4 -25.5t-26 -5.5l-70 19q-19 4 -28 -6t-3 -29l23 -68q8 -19 0 -26t-27 2l-63 31q-17 9 -28.5 1t-10.5 -30l10 -68q1 -21 -7.5 -25.5t-23.5 7.5l-57 43q-15 12 -28.5 5.5t-14.5 -26.5l-4 -69q-1 -20 -12 -23t-23 11l-47 55q-13 14 -26 12t-19 -22 l-21 -68q-3 -13 -9.5 -18t-13.5 -1t-13 15l-35 61q-9 19 -22 19t-25 -19l-31 -61q-6 -11 -13.5 -15t-14 1t-9.5 18l-20 68q-6 20 -19 22t-26 -12l-48 -55q-12 -14 -21.5 -11t-12.5 23l-5 69q-2 20 -15 26.5t-30 -5.5l-53 -43q-17 -13 -27 -8t-6 26l11 68q1 22 -10.5 30 t-30.5 -1l-62 -31q-19 -9 -26.5 -2t0.5 26l22 68q7 19 -2.5 29.5t-28.5 5.5l-69 -19q-20 -3 -26.5 5.5t3.5 25.5l39 62q11 17 4.5 29t-26.5 12l-72 -5q-21 0 -25 10.5t9 24.5l51 49q13 15 8.5 28.5t-25.5 16.5l-67 13q-21 4 -23.5 15.5zM616 281q44 -27 123 -27 q106 0 212.5 65t183.5 162t125.5 212t48.5 214q0 63 -41 101q24 -38 24 -84q0 -100 -47.5 -215t-126.5 -215q-85 -105 -188.5 -168.5t-212.5 -63.5q-58 0 -101 19z" />
<glyph unicode="&#xfb06;" horiz-adv-x="1511" d="M4 115l72 88q167 -119 301 -119q91 0 159 52t68 147q0 18 -3.5 34t-7 28.5t-14.5 26t-16.5 22t-23.5 21t-24 18t-30 18t-30.5 16t-35 18t-34.5 17.5q-38 19 -61 32t-55.5 34.5t-52.5 43t-39.5 49.5t-28.5 63.5t-9 76.5q0 137 96.5 217t237.5 80q94 0 191 -39q-7 40 -7 76 q0 156 98 257t253 101q153 0 225.5 -99t40.5 -268l-10 -51h241l-18 -102h-242l-133 -762q-21 -121 62 -121q51 0 174 60l34 -103q-159 -70 -239 -70q-84 0 -129.5 58.5t-20.5 193.5l131 744h-123l19 102h123l12 72q12 75 5 134t-49 95.5t-116 36.5q-118 0 -190 -84.5 t-72 -214.5q0 -52 12 -90q29 -15 68 -41l-68 -88q-139 96 -270 96q-89 0 -150 -47.5t-61 -132.5q0 -28 6.5 -52t23 -44t29.5 -33t41 -29t40.5 -22t45.5 -21q9 -4 13 -6q68 -34 111 -61t82 -64.5t57 -84t18 -105.5q0 -98 -49.5 -170t-128 -107t-172.5 -35q-183 0 -377 138z " />
<glyph horiz-adv-x="706" d="M119 580l41 79q28 -10 71 -10q116 0 211.5 92t137.5 234q-82 -92 -197 -92q-100 0 -155.5 69t-55.5 168q0 130 79 229t210 99q119 0 182.5 -86.5t63.5 -208.5q0 -156 -62.5 -292.5t-172.5 -219t-239 -82.5q-31 0 -59.5 5.5t-41.5 10.5zM272 1122q0 -63 35 -109t101 -46 q62 0 117 41.5t77 87.5q4 36 4 59q0 85 -37 144t-108 59q-86 0 -137.5 -70t-51.5 -166z" />
<glyph horiz-adv-x="942" d="M-53 0l450 588l-227 588h133l172 -500l346 500h150l-439 -592l248 -584h-135l-188 496l-357 -496h-153z" />
<glyph horiz-adv-x="1204" d="M-168 -322q40 14 68.5 25.5t53 26.5t40 26.5t29.5 33.5t21 37.5t15.5 49.5t13.5 59.5t13 75.5l168 961h-119l21 102h116l33 180q22 126 71.5 182t141.5 56q58 0 133.5 -23t124.5 -47l-59 -90q-35 14 -95.5 30.5t-91.5 16.5q-78 0 -100 -123l-33 -182h238l-19 -102h-237 l-166 -957q-32 -179 -55 -236q-32 -82 -107 -128q-62 -38 -192 -78zM434 -322q40 14 68.5 25.5t53 26.5t40 26.5t29.5 33.5t21 37.5t15.5 49.5t13.5 59.5t13 75.5l168 961h-119l21 102h116l33 180q23 126 71 182t134 56t217 -55l-53 -92q-94 34 -143 34q-79 0 -101 -123 l-33 -182h238l-18 -102h-238l-166 -957q-31 -178 -53 -235q-33 -83 -109 -129q-61 -38 -192 -78z" />
<glyph horiz-adv-x="1136" d="M-168 -322q40 14 68.5 25t53 27t39.5 26.5t29 33.5t21 37.5t16 50t13.5 59t13.5 75.5l170 961h-121l19 102h120l29 160q23 131 85 184.5t153 53.5q112 0 346 -70q52 90 166 90q58 0 133.5 -23t124.5 -47l-60 -90q-35 14 -95 30.5t-91 16.5q-78 0 -100 -123l-33 -182h237 l-18 -102h-238l-165 -957q-16 -91 -24.5 -130t-26.5 -93t-37 -75.5t-57 -52t-86.5 -49.5t-123.5 -42l-26 104q40 14 68.5 25.5t53 26.5t40 26.5t29.5 33.5t21 37.5t15.5 49.5t13.5 59.5t13 75.5l167 961h-409l-168 -957q-15 -89 -23 -128.5t-25.5 -93t-37 -75.5t-57.5 -53 t-86.5 -50t-124.5 -42zM397 1075h410l41 230q-200 55 -293 55q-104 0 -129 -123z" />
<glyph horiz-adv-x="2140" d="M-168 -322q40 14 68.5 25t53 27t39.5 26.5t29 33.5t21 37.5t16 50t13.5 59t13.5 75.5l170 961h-121l21 102h118l29 160q23 131 85 184.5t153 53.5q118 0 352 -70q60 90 186 90q116 0 328 -63l12 63h123l-100 -565q170 170 321 170q55 0 102.5 -20t86.5 -60t61.5 -109.5 t22.5 -160.5q0 -208 -52 -383t-150 -281.5t-222 -106.5q-51 0 -97.5 16t-85.5 45.5t-65 55.5t-57 62l-27 -156h-125l234 1323q-55 17 -149 37t-146 20q-109 0 -129 -123l-33 -182h235l-20 -102h-234l-168 -957q-31 -180 -54 -237q-32 -82 -108 -128q-60 -37 -190 -77 l-26 104q40 14 68.5 25.5t53 26.5t40 26.5t29.5 33.5t21 37.5t15.5 49.5t13.5 59.5t13 75.5l167 961h-409l-168 -957q-15 -89 -23 -128.5t-25.5 -93t-37 -75.5t-57.5 -53t-86.5 -50t-124.5 -42zM397 1075h410l41 230q-200 55 -293 55q-104 0 -129 -123zM1327 270 q128 -182 266 -182q92 0 166 99.5t111 245t37 298.5q0 122 -43.5 189t-132.5 67q-79 0 -152.5 -48t-157.5 -134z" />
<glyph horiz-adv-x="2140" d="M-168 -322q40 14 68.5 25t53 27t39.5 26.5t29 33.5t21 37.5t16 50t13.5 59t13.5 75.5l170 961h-121l21 102h118l29 160q23 131 85 184.5t153 53.5q118 0 352 -70q60 90 186 90q116 0 328 -63l12 63h123l-100 -571q218 176 385 176q125 0 173.5 -86t22.5 -230l-137 -782 h-125l135 768q43 221 -110 221q-87 0 -191 -61t-176 -129l-139 -799h-125l234 1323q-55 17 -149 37t-146 20q-109 0 -129 -123l-33 -182h235l-20 -102h-234l-168 -957q-31 -180 -54 -237q-32 -82 -108 -128q-60 -37 -190 -77l-26 104q40 14 68.5 25.5t53 26.5t40 26.5 t29.5 33.5t21 37.5t15.5 49.5t13.5 59.5t13 75.5l167 961h-409l-168 -957q-15 -89 -23 -128.5t-25.5 -93t-37 -75.5t-57.5 -53t-86.5 -50t-124.5 -42zM397 1075h410l41 230q-200 55 -293 55q-104 0 -129 -123z" />
<glyph horiz-adv-x="1497" d="M-168 -322q40 14 68.5 25t53 27t39.5 26.5t29 33.5t21 37.5t16 50t13.5 59t13.5 75.5l170 961h-121l21 102h118l29 160q23 131 85 184.5t153 53.5q118 0 352 -70q62 90 190 90t353 -70l-58 -94q-193 51 -280 51q-63 0 -94 -37.5t-39 -85.5l-33 -182h493l-188 -1075h-125 l172 973h-371l-165 -957q-16 -90 -24 -128.5t-25.5 -93t-37 -76t-57.5 -52.5t-86.5 -50t-124.5 -42l-26 104q32 11 56.5 20.5t46.5 21.5t37 20t29 23.5t22.5 25t17.5 31.5t14 35.5t11.5 44.5t10.5 50.5t11 61.5l168 961h-412l-168 -957q-15 -89 -23 -128.5t-25.5 -93 t-37 -75.5t-57.5 -53t-86.5 -50t-124.5 -42zM397 1075h410l41 230q-200 55 -293 55q-104 0 -129 -123z" />
<glyph horiz-adv-x="1499" d="M-168 -322q40 14 68.5 25t53 27t39.5 26.5t29 33.5t21 37.5t16 50t13.5 59t13.5 75.5l170 961h-121l21 102h118l29 160q23 131 85 184.5t153 53.5q118 0 352 -70q60 90 190 90q128 0 353 -70l-58 -94q-193 51 -280 51q-63 0 -94 -37.5t-39 -85.5l-33 -182h498l-203 -1138 q-25 -134 -45 -179q-34 -72 -118 -117q-64 -33 -177 -67l-27 104q53 19 88 34t61 34t40 33t25 41.5t15.5 48t12.5 63.5l182 1041h-371l-165 -957q-16 -90 -24 -128.5t-25.5 -93t-37 -76t-57.5 -52.5t-86.5 -50t-124.5 -42l-26 104q32 11 56.5 20.5t46.5 21.5t37 20t29 23.5 t22.5 25t17.5 31.5t14 35.5t11.5 44.5t10.5 50.5t11 61.5l168 961h-412l-168 -957q-15 -89 -23 -128.5t-25.5 -93t-37 -75.5t-57.5 -53t-86.5 -50t-124.5 -42zM397 1075h410l41 230q-200 55 -293 55q-104 0 -129 -123z" />
<glyph horiz-adv-x="1994" d="M-168 -322q40 14 68.5 25t53 27t39.5 26.5t29 33.5t21 37.5t16 50t13.5 59t13.5 75.5l170 961h-121l21 102h118l29 160q23 131 85 184.5t153 53.5q118 0 352 -70q60 90 186 90q116 0 328 -63l12 63h123l-174 -993l471 575h152l-381 -442l241 -633h-127l-198 537 l-191 -222l-55 -315h-125l234 1323q-55 17 -149 37t-146 20q-109 0 -129 -123l-33 -182h235l-20 -102h-234l-168 -957q-31 -180 -54 -237q-32 -82 -108 -128q-60 -37 -190 -77l-26 104q40 14 68.5 25.5t53 26.5t40 26.5t29.5 33.5t21 37.5t15.5 49.5t13.5 59.5t13 75.5 l167 961h-409l-168 -957q-15 -89 -23 -128.5t-25.5 -93t-37 -75.5t-57.5 -53t-86.5 -50t-124.5 -42zM397 1075h410l41 230q-200 55 -293 55q-104 0 -129 -123z" />
<glyph horiz-adv-x="602" d="M-168 -322q40 14 68.5 25.5t53 26.5t40 26.5t29.5 33.5t21 37.5t15.5 49.5t13.5 59.5t13 75.5l168 961h-119l21 102h116l33 180q23 126 71 182t134 56t217 -55l-53 -92q-94 34 -144 34q-78 0 -100 -123l-33 -182h238l-19 -102h-237l-166 -957q-31 -178 -53 -235 q-33 -83 -109 -129q-61 -38 -192 -78z" />
<glyph horiz-adv-x="1552" d="M-168 -322q40 14 68.5 25t53 27t39.5 26.5t29 33.5t21 37.5t16 50t13.5 59t13.5 75.5l170 961h-121l21 102h118l29 160q23 131 85 184.5t153 53.5q118 0 352 -70q60 90 186 90q116 0 328 -63l12 63h123l-264 -1493h-123l234 1323q-55 17 -149 37t-146 20 q-109 0 -129 -123l-33 -182h235l-20 -102h-234l-168 -957q-31 -180 -54 -237q-32 -82 -108 -128q-60 -37 -190 -77l-26 104q40 14 68.5 25.5t53 26.5t40 26.5t29.5 33.5t21 37.5t15.5 49.5t13.5 59.5t13 75.5l167 961h-409l-168 -957q-15 -89 -23 -128.5t-25.5 -93 t-37 -75.5t-57.5 -53t-86.5 -50t-124.5 -42zM397 1075h410l41 230q-200 55 -293 55q-104 0 -129 -123z" />
<glyph horiz-adv-x="1687" d="M-168 -322q40 14 68.5 25t53 27t39.5 26.5t29 33.5t21 37.5t16 50t13.5 59t13.5 75.5l170 961h-121l19 102h120l29 160q23 131 85 184.5t153 53.5q121 0 344 -68q50 88 166 88q58 0 134.5 -23t125.5 -47l-62 -90q-35 14 -95 30.5t-91 16.5q-78 0 -100 -123l-33 -182h389 l49 271l131 40l-55 -311h239l-18 -102h-240l-135 -762q-21 -121 60 -121q46 0 176 60l35 -103q-159 -70 -240 -70q-85 0 -130.5 58t-21.5 194l131 744h-389l-166 -957q-10 -55 -14.5 -82t-13.5 -67.5t-15.5 -59t-19 -47.5t-24.5 -42t-31.5 -33.5t-40.5 -31.5t-51.5 -26 t-64.5 -27t-79 -26l-24 104q32 11 56 20.5t45.5 21t36.5 20t29 24t22.5 25.5t17.5 31t14 35.5t11.5 44t10.5 51t11 61.5l167 961h-409l-168 -957q-15 -89 -23 -128.5t-25.5 -93t-37 -75.5t-57.5 -53t-86.5 -50t-124.5 -42zM397 1075h410l41 230q-200 55 -293 55 q-104 0 -129 -123z" />
<glyph horiz-adv-x="1605" d="M-168 -322q40 14 68.5 25.5t53 26.5t40 26.5t29.5 33.5t21 37.5t15.5 49.5t13.5 59.5t13 75.5l168 961h-119l21 102h116l33 180q25 132 86.5 185t153.5 53q115 0 327 -63l13 63h123l-101 -571q218 176 385 176q125 0 174 -86t23 -230l-137 -782h-125l135 768 q43 221 -111 221q-87 0 -190.5 -61t-175.5 -129l-140 -799h-124l233 1325q-210 55 -295 55q-109 0 -129 -123l-33 -182h238l-19 -102h-237l-166 -957q-32 -179 -55 -236q-32 -82 -107 -128q-62 -38 -192 -78z" />
<glyph horiz-adv-x="1073" d="M108.5 266q1.5 63 12.5 135l137 775h121l-139 -785q-10 -53 -12 -93t6 -80t29.5 -66t63.5 -42t103 -16q270 0 322 293l139 789h121l-138 -789q-16 -90 -46.5 -160t-82 -127t-131.5 -87.5t-186 -30.5q-87 0 -150 20.5t-98.5 58t-54 90t-17 115.5zM457 1493h92 q-9 -62 16.5 -89.5t87.5 -27.5q69 0 114.5 28.5t55.5 88.5h95q-17 -98 -87.5 -153.5t-181.5 -55.5q-106 0 -157.5 57t-34.5 152z" />
<glyph horiz-adv-x="962" d="M-168 -322q40 14 68.5 25.5t53 26.5t40 26.5t29.5 33.5t21 37.5t15.5 49.5t13.5 59.5t13 75.5l168 961h-119l21 102h116l33 180q23 131 86.5 184.5t157.5 53.5q127 0 352 -70l-57 -94q-193 51 -281 51q-63 0 -94 -37.5t-39 -85.5l-33 -182h494l-189 -1075h-124l172 973 h-371l-166 -957q-31 -177 -53 -234q-33 -83 -109 -130q-62 -38 -192 -78z" />
<glyph horiz-adv-x="964" d="M-168 -322q40 14 68.5 25.5t53 26.5t40 26.5t29.5 33.5t21 37.5t15.5 49.5t13.5 59.5t13 75.5l168 961h-119l21 102h116l33 180q23 131 86.5 184.5t157.5 53.5q127 0 352 -70l-57 -94q-193 51 -281 51q-63 0 -94 -37.5t-39 -85.5l-33 -182h498l-203 -1138 q-25 -133 -44 -177q-32 -73 -116 -118q-63 -34 -180 -68l-26 104q53 19 88 34t61 34t40 33t24.5 41.5t15 48t12.5 63.5l183 1041h-371l-166 -957q-31 -177 -53 -234q-33 -83 -109 -130q-62 -38 -192 -78z" />
<glyph horiz-adv-x="1460" d="M-168 -322q32 11 56.5 20.5t46 21t36.5 20t29 24t23 25.5t18 31t14 35.5t11.5 44t10.5 51t11 61.5l168 961h-121l21 102h116l33 180q25 132 86.5 185t153.5 53q115 0 327 -63l13 63h123l-174 -993l471 575h151l-381 -442l242 -633h-127l-199 537l-190 -222l-56 -315h-124 l233 1325q-210 55 -295 55q-109 0 -129 -123l-33 -182h238l-19 -102h-237l-166 -957q-15 -89 -23 -128.5t-25.5 -93t-37 -75.5t-57.5 -53t-86.5 -50t-124.5 -42z" />
<glyph horiz-adv-x="364" d="M158 788l24 142h111l-25 -142h-110zM227 1044l78 605h117l-133 -605h-62z" />
<glyph horiz-adv-x="1017" d="M-168 -322q40 14 68.5 25.5t53 26.5t40 26.5t29.5 33.5t21 37.5t15.5 49.5t13.5 59.5t13 75.5l168 961h-119l21 102h116l33 180q25 132 86.5 185t153.5 53q115 0 327 -63l13 63h123l-265 -1493h-122l233 1323q-208 57 -295 57q-109 0 -129 -123l-33 -182h238l-19 -102 h-237l-166 -957q-32 -179 -55 -236q-32 -82 -107 -128q-62 -38 -192 -78z" />
<glyph horiz-adv-x="1155" d="M-168 -322q40 14 68.5 25.5t53 26.5t40 26.5t29.5 33.5t21 37.5t15.5 49.5t13.5 59.5t13 75.5l168 961h-119l21 102h116l33 180q22 126 71.5 182t141.5 56q58 0 133.5 -23t124.5 -47l-59 -90q-35 14 -95.5 30.5t-91.5 16.5q-78 0 -100 -123l-33 -182h389l50 271l131 40 l-56 -311h240l-18 -102h-240l-135 -762q-21 -121 59 -121q46 0 176 60l35 -103q-159 -70 -240 -70q-85 0 -130 58t-21 194l131 744h-389l-166 -957q-32 -179 -55 -236q-32 -82 -107 -128q-62 -38 -192 -78z" />
<glyph horiz-adv-x="432" d="M-184 -487q41 14 64.5 26t39.5 24t25 35t14 44t12 67l97 551h-72l14 78h72l16 90q15 86 49 123t99 37q70 0 170 -45l-47 -70q-67 27 -109 27q-49 0 -63 -70l-17 -92h148l-17 -78h-145l-94 -547q-22 -123 -40 -159q-27 -56 -98 -87q-37 -17 -98 -34z" />
<glyph horiz-adv-x="1073" d="M108.5 266q1.5 63 12.5 135l137 775h121l-139 -785q-10 -53 -12 -93t6 -80t29.5 -66t63.5 -42t103 -16q270 0 322 293l139 789h121l-138 -789q-16 -90 -46.5 -160t-82 -127t-131.5 -87.5t-186 -30.5q-87 0 -150 20.5t-98.5 58t-54 90t-17 115.5zM524 1284l240 260h190 l-317 -260h-113z" />
<glyph horiz-adv-x="669" d="M-18 84l57 70q1 -1 14.5 -11t22.5 -15.5t27.5 -16t34 -16.5t37 -10.5t42.5 -4.5q79 0 143 60t64 161q0 71 -35 113.5t-100 42.5q-75 0 -160 -56l-53 33l112 426h410l-16 -90h-324l-59 -250q59 27 116 27q100 0 156.5 -68.5t56.5 -173.5q0 -133 -83.5 -226t-221.5 -93 q-126 0 -241 98z" />
<glyph horiz-adv-x="669" d="M82 657l57 70q1 -1 14.5 -11t22.5 -15.5t27.5 -16t34 -16.5t37 -10.5t42.5 -4.5q79 0 143 60t64 161q0 71 -35 113.5t-100 42.5q-76 0 -160 -55l-53 33l113 426h409l-16 -91h-324l-59 -249q57 26 117 26q100 0 156.5 -68t56.5 -173q0 -133 -83.5 -226.5t-221.5 -93.5 q-127 0 -242 98z" />
<glyph horiz-adv-x="985" d="M-35 -131l74 92q94 -76 171 -103q57 -20 112 -20q63 0 125.5 27.5t114.5 77.5t84 130t32 175q0 127 -60.5 203.5t-171.5 76.5q-50 0 -106 -19t-83 -34t-69 -41l-69 37l186 705h623l-21 -117h-514l-112 -467q100 51 202 51q153 0 240.5 -110t87.5 -281q0 -107 -34.5 -204 t-96 -170t-153 -116t-199.5 -43q-65 0 -123.5 14.5t-105.5 41t-74.5 46.5t-59.5 48z" />
<glyph horiz-adv-x="1056" d="M45 127l74 92q86 -70 155 -97q65 -26 127 -26q50 0 100.5 17t97 51.5t82 82.5t56.5 115t21 144q0 127 -60.5 203.5t-171.5 76.5q-50 0 -106 -19t-83 -34t-69 -41l-69 37l186 705h623l-21 -117h-514l-113 -467q100 51 203 51q153 0 240.5 -110t87.5 -281 q0 -107 -34.5 -204t-96 -170t-153 -116t-199.5 -43q-65 0 -123.5 14.5t-105.5 41t-74.5 46.5t-59.5 48z" />
<glyph horiz-adv-x="364" d="M-35 -307l25 141h110l-24 -141h-111zM35 -51l78 604h116l-133 -604h-61z" />
<glyph horiz-adv-x="1398" d="M82 541l49 61q79 -63 158 -63q69 0 122.5 47.5t53.5 128.5q0 57 -31 92t-88 35q-64 0 -137 -45l-47 30l94 349h356l-12 -78h-283l-49 -199q51 21 101 21q89 0 138.5 -57t49.5 -144q0 -107 -71.5 -183.5t-190.5 -76.5q-114 0 -213 82zM293 0l688 1176h94l-690 -1176h-92z M745 162q0 138 197 221q-92 61 -92 149q0 81 64 133t161 52q88 0 137.5 -43t49.5 -109q0 -114 -158 -188q129 -70 129 -180q0 -92 -77.5 -150.5t-192.5 -58.5q-99 0 -158.5 46t-59.5 128zM836 168q0 -52 35.5 -79.5t93.5 -27.5q71 0 124.5 39t53.5 99q0 49 -32.5 82 t-88.5 63q-42 -17 -69.5 -31t-57 -35t-44.5 -48.5t-15 -61.5zM936 526q0 -66 90 -112q148 54 148 141q0 39 -27.5 64.5t-73.5 25.5q-58 0 -97.5 -35.5t-39.5 -83.5z" />
<glyph horiz-adv-x="364" d="M156 788l133 605h61l-78 -605h-116zM285 1507l24 142h111l-25 -142h-110z" />
<glyph horiz-adv-x="1372" d="M84 541l49 61q71 -63 156 -63q70 0 123 47.5t53 128.5q0 57 -30 92t-87 35q-64 0 -137 -45l-49 30l96 349h354l-12 -78h-281l-49 -199q54 21 101 21q88 0 137 -57t49 -144q0 -107 -71.5 -183.5t-188.5 -76.5q-114 0 -213 82zM293 0l688 1176h94l-690 -1176h-92zM739 236 q0 127 53.5 237.5t148 177t206.5 66.5q26 0 50.5 -4.5t36.5 -8.5l11 -4l-33 -69q-28 8 -63 8q-101 0 -182 -72.5t-117 -187.5q74 74 168 74q88 0 137 -58t49 -141q0 -106 -67 -186t-181 -80q-106 0 -161.5 72t-55.5 176zM827 233q0 -70 33 -118.5t94 -48.5q73 0 117.5 55.5 t44.5 130.5q0 52 -30 89.5t-89 37.5q-56 0 -103 -34t-65 -71q-2 -14 -2 -41z" />
<glyph horiz-adv-x="362" d="M-39 -307l133 604h62l-78 -604h-117zM90 412l25 141h110l-24 -141h-111z" />
<glyph horiz-adv-x="1073" d="M108.5 266q1.5 63 12.5 135l137 775h121l-139 -785q-10 -53 -12 -93t6 -80t29.5 -66t63.5 -42t103 -16q270 0 322 293l139 789h121l-138 -789q-16 -90 -46.5 -160t-82 -127t-131.5 -87.5t-186 -30.5q-87 0 -150 20.5t-98.5 58t-54 90t-17 115.5z" />
<glyph horiz-adv-x="651" d="M213 1556l16 93h557l-16 -93h-227l-137 -768h-101l135 768h-227z" />
<glyph horiz-adv-x="712" d="M-16 190l12 80l453 590h135l-105 -579h113l-17 -91h-112l-33 -190h-100l32 190h-378zM104 281h275l84 471z" />
<glyph horiz-adv-x="714" d="M86 764l12 80l453 590h135l-104 -580h112l-16 -90h-113l-33 -191h-100l33 191h-379zM207 854h274l84 471z" />
<glyph horiz-adv-x="1056" d="M-23 72l19 106l737 998h170l-176 -988h180l-20 -116h-180l-58 -330h-127l58 330h-603zM133 188h467l150 836z" />
<glyph horiz-adv-x="1058" d="M23 330l20 106l737 998h164l-174 -988h178l-20 -116h-178l-58 -330h-129l58 330h-598zM178 446h463l147 830z" />
<glyph horiz-adv-x="1458" d="M78 625l12 67l385 484h121l-86 -474h98l-14 -77h-98l-27 -154h-90l27 154h-328zM186 702h234l69 383zM354 0l688 1176h95l-688 -1176h-95zM809 70l49 61q76 -61 156 -61q70 0 124 47.5t54 128.5q0 57 -31 92t-88 35q-55 0 -137 -45l-49 28l96 349h356l-12 -78h-283 l-49 -199q54 21 101 21q89 0 138.5 -56.5t49.5 -144.5q0 -107 -72.5 -183.5t-189.5 -76.5q-114 0 -213 82z" />
<glyph horiz-adv-x="483" d="M61 0l181 829h73l-110 -829h-144zM238 991l32 185h138l-33 -185h-137z" />
<glyph horiz-adv-x="1073" d="M108.5 266q1.5 63 12.5 135l137 775h121l-139 -785q-10 -53 -12 -93t6 -80t29.5 -66t63.5 -42t103 -16q270 0 322 293l139 789h121l-138 -789q-16 -90 -46.5 -160t-82 -127t-131.5 -87.5t-186 -30.5q-87 0 -150 20.5t-98.5 58t-54 90t-17 115.5zM414 1284l209 260h151 l117 -260h-88l-113 182l-174 -182h-102z" />
<glyph horiz-adv-x="481" d="M63 0l33 184h137l-32 -184h-138zM156 346l110 830h144l-181 -830h-73z" />
<glyph horiz-adv-x="1019" d="M53 283l17 94h96l188 1057h725l-22 -117h-594l-94 -543h475l-21 -115h-475l-51 -282h299l-16 -94h-299l-52 -283h-129l50 283h-97z" />
<glyph horiz-adv-x="925" d="M41 227l14 84h86l154 865h639l-23 -111h-514l-73 -424h411l-18 -109h-414l-39 -221h258l-14 -84h-258l-39 -227h-123l39 227h-86z" />
<glyph horiz-adv-x="675" d="M-57 -147l12 67h63l113 633h469l-16 -92h-369l-51 -293h293l-17 -90h-293l-28 -158h190l-12 -67h-191l-26 -160h-100l26 160h-63z" />
<glyph horiz-adv-x="675" d="M137 948l13 68h63l113 633h469l-17 -93h-368l-52 -292h293l-16 -90h-293l-29 -158h191l-12 -68h-191l-27 -160h-100l27 160h-64z" />
<glyph horiz-adv-x="425" d="M14 608q41 14 64.5 26.5t40 24.5t25.5 35t14 44.5t12 66.5l96 551h-71l14 78h72l16 90q15 86 48.5 122.5t98.5 36.5q70 0 170 -45l-47 -69q-65 26 -108 26q-51 0 -64 -69l-16 -92h147l-16 -78h-145l-95 -547q-23 -123 -40 -159q-26 -56 -95 -88q-38 -17 -100 -34z" />
<glyph horiz-adv-x="653" d="M20 461l17 92h557l-16 -92h-228l-137 -768h-100l135 768h-228z" />
<glyph horiz-adv-x="1001" d="M59 0l207 1176h123l-39 -213h209q166 0 260 -71.5t94 -219.5q0 -201 -129 -310.5t-342 -109.5h-217l-43 -252h-123zM244 360h202q146 0 242 79t96 227q0 186 -229 186h-223z" />
<glyph horiz-adv-x="856" d="M70 -307l47 84q42 -27 86 -27q45 0 76.5 31t31.5 96q0 53 -20 123h-33l188 1065h-319l20 111h758l-18 -111h-320l-186 -1065h-29q39 -65 39 -150q0 -87 -51.5 -140.5t-138.5 -53.5q-73 0 -131 37z" />
<glyph horiz-adv-x="856" d="M127 1065l20 111h758l-18 -111h-320l-186 -1065h-123l188 1065h-319zM354 1544h86l115 -182l174 182h100l-208 -260h-150z" />
<glyph horiz-adv-x="876" d="M135 1065l21 111h757l-18 -111h-320l-104 -590h162l-17 -86h-159l-68 -389h-123l68 389h-156l15 86h157l105 590h-320z" />
<glyph horiz-adv-x="735" d="M-55 -307l110 618q26 145 96.5 213t186.5 68q106 0 166.5 -49.5t60.5 -130.5q0 -25 -5.5 -47.5t-13.5 -37.5t-16.5 -26.5t-13.5 -16.5l-6 -5q-20 -7 -32.5 -11.5t-33.5 -15.5t-33 -22.5t-22 -30t-10 -39.5q0 -17 8 -34t16 -26.5t31 -32.5t33 -34q39 -41 59.5 -78 t20.5 -86q0 -85 -61.5 -138t-147.5 -53q-95 0 -203 70l47 66q82 -54 150 -54q47 0 82 29t35 78q0 29 -15 54t-51 59q-2 2 -16.5 15.5t-18.5 17.5t-16 17t-16.5 20t-12.5 20.5t-11 24t-6 25.5t-3 30q0 34 13.5 63t29 47t45 35.5t44 24t42.5 18.5q14 28 14 63q0 52 -33.5 80.5 t-93.5 28.5q-72 0 -122 -46t-70 -159l-107 -612h-100z" />
<glyph horiz-adv-x="737" d="M139 788l111 619q26 145 96 213t186 68q106 0 167 -50t61 -131q0 -39 -14 -72.5t-28 -46.5l-13 -14q-20 -7 -32.5 -11.5t-33.5 -15.5t-33.5 -22.5t-22.5 -30t-10 -39.5q0 -17 8 -34t16.5 -27t31 -32t33.5 -34q39 -40 59 -77t20 -86q0 -85 -61.5 -138t-147.5 -53 q-94 0 -202 70l47 65q80 -53 149 -53q47 0 82 29t35 78q0 30 -14.5 54t-50.5 58q-1 1 -19 17.5t-21.5 21t-17.5 19.5t-18 24t-12 24.5t-10.5 31t-2.5 32.5q0 34 13.5 63.5t29.5 47t44.5 35.5t44 25t42.5 18q15 30 15 63q0 52 -33.5 80.5t-93.5 28.5q-72 0 -122.5 -46 t-70.5 -159l-106 -613h-101z" />
<glyph horiz-adv-x="688" d="M-98 -524l32 84q132 -47 216 -47q76 0 113 41.5t46 99.5l25 137q-113 -113 -217 -113q-66 0 -111 54.5t-45 165.5q0 190 75.5 322t194.5 132q39 0 77 -18.5t58 -36t48 -47.5l16 88h98l-120 -684q-22 -125 -85 -174t-167 -49q-124 0 -254 45zM61 -92q0 -67 23.5 -105.5 t67.5 -38.5q52 0 98 31.5t100 89.5l49 279q-71 102 -149 102q-57 0 -101 -55t-66 -135.5t-22 -167.5z" />
<glyph horiz-adv-x="856" d="M127 1065l20 111h758l-18 -111h-320l-186 -1065h-123l188 1065h-319z" />
<glyph horiz-adv-x="706" d="M125 881l59 73q125 -90 236 -90q73 0 124.5 40.5t51.5 107.5q0 26 -10 48.5t-21 37t-38.5 33.5t-42.5 27.5t-53 28.5q-9 5 -13 7q-90 51 -136 102.5t-46 133.5q0 104 75 168.5t191 64.5q128 0 270 -84l-57 -74q-115 66 -211 66q-67 0 -114.5 -36.5t-47.5 -102.5 q0 -23 8.5 -42.5t18 -32.5t35.5 -30.5t42.5 -27t57.5 -31.5q48 -28 75.5 -47t60 -49.5t47.5 -68t15 -83.5q0 -111 -82 -178.5t-200 -67.5q-151 0 -295 107z" />
<glyph horiz-adv-x="1073" d="M108.5 266q1.5 63 12.5 135l137 775h121l-139 -785q-10 -53 -12 -93t6 -80t29.5 -66t63.5 -42t103 -16q270 0 322 293l139 789h121l-138 -789q-16 -90 -46.5 -160t-82 -127t-131.5 -87.5t-186 -30.5q-87 0 -150 20.5t-98.5 58t-54 90t-17 115.5zM449 1305l32 174h131 l-30 -174h-133zM729 1305l31 174h131l-31 -174h-131z" />
<glyph horiz-adv-x="692" d="M98 571l33 84q132 -47 215 -47q76 0 113.5 42t46.5 100l24 137q-113 -113 -217 -113q-66 0 -110.5 54t-44.5 165q0 190 75.5 322.5t194.5 132.5q39 0 77 -18.5t57 -36t48 -47.5l17 88h98l-121 -684q-22 -126 -85 -175t-167 -49q-124 0 -254 45zM258 1004q0 -67 23 -105.5 t67 -38.5q52 0 98.5 32t100.5 89l49 279q-71 102 -150 102q-57 0 -101 -55t-65.5 -135.5t-21.5 -167.5z" />
<glyph horiz-adv-x="706" d="M-70 -215l60 74q125 -90 235 -90q73 0 124.5 40t51.5 107q0 26 -10 48.5t-21 37t-38.5 33.5t-42.5 27.5t-53 28.5q-9 5 -13 7q-90 51 -136 102.5t-46 133.5q0 104 75 168.5t191 64.5q129 0 271 -84l-58 -73q-113 65 -211 65q-67 0 -114.5 -36.5t-47.5 -102.5 q0 -23 8.5 -42.5t18 -32.5t35.5 -30.5t42.5 -27t57.5 -31.5q48 -28 75.5 -47t60.5 -49.5t48 -68t15 -83.5q0 -111 -82.5 -178.5t-200.5 -67.5q-151 0 -295 107z" />
<glyph horiz-adv-x="935" d="M8 121l72 92q183 -123 328 -123q106 0 180 59t74 156q0 30 -8 56.5t-25 49t-35.5 40t-48.5 37t-54 33t-62 34.5q-10 5 -15 8q-62 34 -100 59.5t-77.5 63.5t-58 85.5t-18.5 107.5q0 140 103 227.5t259 87.5q95 0 191 -33t172 -80l-70 -88q-158 92 -295 92q-95 0 -163 -54 t-68 -148q0 -27 6 -49.5t22 -43.5t30.5 -35.5t46.5 -35t53 -32t67 -36.5q54 -30 85 -49.5t73 -52.5t64 -64t38.5 -76.5t16.5 -97.5q0 -100 -54.5 -176.5t-141 -114.5t-189.5 -38q-110 0 -214 41t-184 98zM199 -494l102 179h-59l30 182h127l-18 -186l-148 -218z" />
<glyph horiz-adv-x="1073" d="M108.5 266q1.5 63 12.5 135l137 775h121l-139 -785q-10 -53 -12 -93t6 -80t29.5 -66t63.5 -42t103 -16q270 0 322 293l139 789h121l-138 -789q-16 -90 -46.5 -160t-82 -127t-131.5 -87.5t-186 -30.5q-87 0 -150 20.5t-98.5 58t-54 90t-17 115.5zM444 1544h166l166 -260 h-98z" />
<glyph horiz-adv-x="1073" d="M108.5 266q1.5 63 12.5 135l137 775h121l-139 -785q-10 -53 -12 -93t6 -80t29.5 -66t63.5 -42t103 -16q270 0 322 293l139 789h121l-138 -789q-16 -90 -46.5 -160t-82 -127t-131.5 -87.5t-186 -30.5q-87 0 -150 20.5t-98.5 58t-54 90t-17 115.5zM457 1284l166 260h159 l-241 -260h-84zM702 1284l166 260h162l-244 -260h-84z" />
<glyph horiz-adv-x="935" d="M8 121l72 92q183 -123 328 -123q106 0 180 59t74 156q0 30 -8 56.5t-25 49t-35.5 40t-48.5 37t-54 33t-62 34.5q-10 5 -15 8q-62 34 -100 59.5t-77.5 63.5t-58 85.5t-18.5 107.5q0 140 103 227.5t259 87.5q95 0 191 -33t172 -80l-70 -88q-158 92 -295 92q-95 0 -163 -54 t-68 -148q0 -27 6 -49.5t22 -43.5t30.5 -35.5t46.5 -35t53 -32t67 -36.5q54 -30 85 -49.5t73 -52.5t64 -64t38.5 -76.5t16.5 -97.5q0 -100 -54.5 -176.5t-141 -114.5t-189.5 -38q-110 0 -214 41t-184 98zM346 1284l209 260h152l116 -260h-88l-112 182l-174 -182h-103z" />
<glyph horiz-adv-x="935" d="M8 121l72 92q183 -123 328 -123q106 0 180 59t74 156q0 30 -8 56.5t-25 49t-35.5 40t-48.5 37t-54 33t-62 34.5q-10 5 -15 8q-62 34 -100 59.5t-77.5 63.5t-58 85.5t-18.5 107.5q0 140 103 227.5t259 87.5q95 0 191 -33t172 -80l-70 -88q-158 92 -295 92q-95 0 -163 -54 t-68 -148q0 -27 6 -49.5t22 -43.5t30.5 -35.5t46.5 -35t53 -32t67 -36.5q54 -30 85 -49.5t73 -52.5t64 -64t38.5 -76.5t16.5 -97.5q0 -143 -104.5 -231t-256.5 -96q31 -70 31 -134q0 -87 -52 -140.5t-139 -53.5q-73 0 -131 37l47 84q42 -27 86 -27q45 0 77 31t32 96 q0 40 -16 107q-100 7 -193.5 46t-163.5 91z" />
<glyph horiz-adv-x="688" d="M-51 -307l157 895h99l-60 -338q128 102 236 102q79 0 111 -52.5t16 -143.5l-80 -463h-100l80 450q10 58 -3 91.5t-63 33.5q-51 0 -110.5 -33.5t-102.5 -72.5l-82 -469h-98z" />
<glyph horiz-adv-x="935" d="M8 121l72 92q183 -123 328 -123q106 0 180 59t74 156q0 30 -8 56.5t-25 49t-35.5 40t-48.5 37t-54 33t-62 34.5q-10 5 -15 8q-62 34 -100 59.5t-77.5 63.5t-58 85.5t-18.5 107.5q0 140 103 227.5t259 87.5q95 0 191 -33t172 -80l-70 -88q-158 92 -295 92q-95 0 -163 -54 t-68 -148q0 -27 6 -49.5t22 -43.5t30.5 -35.5t46.5 -35t53 -32t67 -36.5q54 -30 85 -49.5t73 -52.5t64 -64t38.5 -76.5t16.5 -97.5q0 -100 -54.5 -176.5t-141 -114.5t-189.5 -38q-110 0 -214 41t-184 98zM393 1544h86l115 -182l174 182h100l-209 -260h-149z" />
<glyph horiz-adv-x="802" d="M12 -4l97 557h102l-100 -567q-10 -43 -8.5 -81.5t12.5 -68t43.5 -46.5t85.5 -17q102 0 153 56t68 153l102 571h101l-101 -573q-12 -67 -34.5 -118.5t-59.5 -94.5t-95.5 -66t-135.5 -23q-289 0 -230 318z" />
<glyph horiz-adv-x="937" d="M8 121l72 92q183 -123 328 -123q106 0 180 59t74 156q0 30 -8 56.5t-25 49t-35.5 40t-48.5 37t-54 33t-62 34.5q-10 5 -15 8q-62 34 -100 59.5t-77.5 63.5t-58 85.5t-18.5 107.5q0 140 103 227.5t259 87.5q95 0 191 -33t172 -80l-70 -88q-158 92 -295 92q-95 0 -163 -54 t-68 -148q0 -27 6 -49.5t22 -43.5t30.5 -35.5t46.5 -35t53 -32t67 -36.5q54 -30 85 -49.5t73 -52.5t64 -64t38.5 -76.5t16.5 -97.5q0 -100 -54.5 -176.5t-141 -114.5t-189.5 -38q-110 0 -214 41t-184 98zM459 1284l239 260h191l-318 -260h-112z" />
<glyph horiz-adv-x="935" d="M8 121l72 92q183 -123 328 -123q106 0 180 59t74 156q0 30 -8 56.5t-25 49t-35.5 40t-48.5 37t-54 33t-62 34.5q-10 5 -15 8q-62 34 -100 59.5t-77.5 63.5t-58 85.5t-18.5 107.5q0 140 103 227.5t259 87.5q95 0 191 -33t172 -80l-70 -88q-158 92 -295 92q-95 0 -163 -54 t-68 -148q0 -27 6 -49.5t22 -43.5t30.5 -35.5t46.5 -35t53 -32t67 -36.5q54 -30 85 -49.5t73 -52.5t64 -64t38.5 -76.5t16.5 -97.5q0 -100 -54.5 -176.5t-141 -114.5t-189.5 -38q-110 0 -214 41t-184 98z" />
<glyph horiz-adv-x="780" d="M162 788l151 861h271q123 0 190.5 -51t67.5 -154q0 -113 -67 -189t-183 -96l137 -371h-106l-127 365h-168l-66 -365h-100zM342 1241h166q105 0 167 52.5t62 144.5q0 123 -164 123h-176z" />
<glyph horiz-adv-x="780" d="M-31 -307l152 860h270q123 0 190.5 -51t67.5 -154q0 -113 -67 -189t-183 -96l138 -370h-107l-127 364h-168l-65 -364h-101zM150 145h165q105 0 167.5 52.5t62.5 144.5q0 123 -164 123h-176z" />
<glyph horiz-adv-x="1046" d="M59 0l207 1176h367q166 0 259 -67.5t93 -207.5q0 -156 -95.5 -258t-254.5 -129l194 -514h-127l-180 506h-250l-90 -506h-123zM248 -494l102 179h-59l31 182h127l-19 -186l-147 -218zM289 612h237q153 0 242.5 75t89.5 208q0 89 -62.5 131.5t-170.5 42.5h-254z" />
<glyph horiz-adv-x="1046" d="M59 0l207 1176h367q166 0 259 -67.5t93 -207.5q0 -156 -95.5 -258t-254.5 -129l194 -514h-127l-180 506h-250l-90 -506h-123zM289 612h237q153 0 242.5 75t89.5 208q0 89 -62.5 131.5t-170.5 42.5h-254zM477 1544h86l115 -182l174 182h100l-209 -260h-149z" />
<glyph horiz-adv-x="1046" d="M59 0l207 1176h367q166 0 259 -67.5t93 -207.5q0 -156 -95.5 -258t-254.5 -129l194 -514h-127l-180 506h-250l-90 -506h-123zM289 612h237q153 0 242.5 75t89.5 208q0 89 -62.5 131.5t-170.5 42.5h-254zM541 1284l239 260h191l-318 -260h-112z" />
<glyph horiz-adv-x="319" d="M-51 -307l114 645h99l-115 -645h-98zM80 467l20 119h107l-21 -119h-106z" />
<glyph horiz-adv-x="1046" d="M59 0l207 1176h367q166 0 259 -67.5t93 -207.5q0 -156 -95.5 -258t-254.5 -129l194 -514h-127l-180 506h-250l-90 -506h-123zM289 612h237q153 0 242.5 75t89.5 208q0 89 -62.5 131.5t-170.5 42.5h-254z" />
<glyph horiz-adv-x="841" d="M186 1094q0 58 11.5 127.5t41 149t72 143.5t111.5 106.5t153 42.5q142 0 216.5 -80.5t74.5 -236.5q0 -52 -9 -113t-31.5 -132t-55 -132t-85 -110.5t-116.5 -70.5l107 -122l-78 -66l-129 174q-137 2 -210 83t-73 237zM291 1094q0 -228 188 -228q76 0 135 56.5t89.5 138.5 t45.5 155t15 125q0 230 -189 230q-62 0 -113 -38.5t-82 -95t-52 -124.5t-29 -123.5t-8 -95.5z" />
<glyph horiz-adv-x="1073" d="M108.5 266q1.5 63 12.5 135l137 775h121l-139 -785q-10 -53 -12 -93t6 -80t29.5 -66t63.5 -42t103 -16q270 0 322 293l139 789h121l-138 -789q-16 -90 -46.5 -160t-82 -127t-131.5 -87.5t-186 -30.5q-87 0 -150 20.5t-98.5 58t-54 90t-17 115.5zM418 1335l16 92h484 l-17 -92h-483z" />
<glyph horiz-adv-x="1073" d="M108.5 266q1.5 63 12.5 135l137 775h121l-139 -785q-10 -53 -12 -93t6 -80t29.5 -66t63.5 -42t103 -16q270 0 322 293l139 789h121l-138 -789q-61 -326 -307 -389q-105 -66 -150.5 -114t-45.5 -101q0 -21 9 -34t29 -18t34 -6t42 -1h9l-33 -91q-22 0 -36 0.5t-40.5 4 t-43.5 12t-35.5 22t-28 37.5t-9.5 55q0 122 166 218h-6q-87 0 -150 20.5t-98.5 58t-54 90t-17 115.5z" />
<glyph horiz-adv-x="841" d="M-6 -2q0 58 11.5 127.5t41 149t72 143.5t111.5 106.5t153 42.5q142 0 216.5 -80.5t74.5 -236.5q0 -52 -9 -113t-31.5 -131.5t-55 -131.5t-85 -110.5t-116.5 -70.5l106 -123l-77 -66l-130 174q-137 2 -209.5 83t-72.5 237zM98 -2q0 -227 189 -227q62 0 112.5 38.5t81.5 95 t52 124t29.5 122.5t8.5 95q0 229 -188 229q-62 0 -113.5 -38.5t-82 -95t-52 -124.5t-29.5 -123.5t-8 -95.5z" />
<glyph horiz-adv-x="634" d="M-37 -51q0 174 90 288.5t236 114.5q88 0 138 -44.5t50 -119.5q0 -106 -92 -162.5t-262 -56.5h-60v-22q0 -92 31 -139.5t90 -47.5q21 0 43 5t49 17.5t39.5 18.5t43.5 24.5t32 18.5l35 -71q-147 -95 -258 -95q-95 0 -150 68.5t-55 202.5zM70 35h59q125 0 189.5 42t64.5 109 q0 41 -27.5 63.5t-74.5 22.5q-77 0 -134.5 -65.5t-76.5 -171.5z" />
<glyph horiz-adv-x="1130" d="M98 416q0 55 8 119.5t27 140.5t47.5 148t71.5 140t96 118.5t125.5 81t155.5 30.5q193 0 295 -109t102 -323q0 -71 -13.5 -156.5t-45.5 -184t-78.5 -182.5t-121 -151t-163.5 -92l148 -170l-95 -78l-178 234q-187 5 -284 114.5t-97 319.5zM223 414q0 -322 273 -322 q64 0 120 28.5t96 75.5t73 108.5t53.5 125t34.5 128t20 115.5t6 89q0 321 -272 321q-74 0 -137.5 -38t-106 -99.5t-75 -135t-50.5 -150.5t-26.5 -139t-8.5 -107z" />
<glyph horiz-adv-x="745" d="M162 788l151 861h242q125 0 193.5 -53.5t68.5 -161.5q0 -148 -92.5 -230t-249.5 -82h-153l-60 -334h-100zM338 1212h137q103 0 170.5 55.5t67.5 159.5q0 68 -44 100t-118 32h-154z" />
<glyph horiz-adv-x="745" d="M-31 -307l152 860h241q125 0 194 -53.5t69 -161.5q0 -148 -92.5 -229.5t-249.5 -81.5h-154l-59 -334h-101zM145 117h138q103 0 170 55.5t67 159.5q0 68 -44 99.5t-118 31.5h-153z" />
<glyph horiz-adv-x="319" d="M-209 -487q49 17 76 30t43 31.5t21.5 35.5t11.5 52l118 676h99l-117 -670q-7 -37 -10.5 -53.5t-11.5 -42t-17.5 -37.5t-25.5 -29t-38.5 -27.5t-53.5 -22.5t-74 -23zM80 467l20 119h107l-21 -119h-106z" />
<glyph horiz-adv-x="1056" d="M51 313q0 63 16.5 119.5t47.5 101.5t66.5 81.5t82 67t85.5 51.5t85 42q-176 114 -176 303q0 166 117.5 271.5t288.5 105.5q150 0 235.5 -84t85.5 -213q0 -249 -311 -393q48 -29 85.5 -59t75.5 -74.5t59 -104t21 -129.5q0 -124 -68 -222t-178.5 -149t-242.5 -51 q-169 0 -272 88t-103 248zM184 319q0 -113 67.5 -171t178.5 -58q142 0 247 87t105 226q0 57 -19.5 105.5t-55.5 86t-72.5 64.5t-85.5 54q-62 -28 -106.5 -52t-97 -61t-85 -75.5t-54.5 -92t-22 -113.5zM385 1075q0 -150 172 -248q301 122 301 322q0 86 -54 141.5t-147 55.5 q-113 0 -192.5 -80.5t-79.5 -190.5z" />
<glyph horiz-adv-x="993" d="M59 0l207 1176h330q166 0 259 -71t93 -220q0 -201 -128 -310.5t-339 -109.5h-217l-82 -465h-123zM283 573h200q146 0 242 79t96 227q0 98 -61.5 143t-167.5 45h-223z" />
<glyph horiz-adv-x="1130" d="M98 416q0 55 8 119.5t27 140.5t47 148t71 140t96 118.5t126 81t156 30.5q193 0 295 -109t102 -323q0 -55 -8 -120t-27.5 -141t-47.5 -148.5t-71 -140t-96 -118.5t-125.5 -81.5t-154.5 -30.5q-194 0 -296 110t-102 324zM223 414q0 -322 273 -322q64 0 120 28.5t96 75.5 t73 108.5t53.5 125t34.5 128t20 115.5t6 89q0 321 -272 321q-74 0 -137.5 -38t-106 -99.5t-75 -135t-50.5 -150.5t-26.5 -139t-8.5 -107zM442 1352q47 78 83 111.5t85 33.5q37 0 72 -25t64.5 -50t52.5 -25q20 0 41.5 19t56.5 77l66 -47q-47 -78 -83 -112t-85 -34 q-29 0 -57.5 16t-48 34.5t-42 34.5t-41.5 16q-21 0 -42 -17.5t-56 -74.5z" />
<glyph horiz-adv-x="841" d="M188 1094q0 48 8.5 104.5t26.5 122t49.5 125t73 109t101.5 79t131 29.5q140 0 215 -80.5t75 -236.5q0 -59 -11.5 -129t-41 -150t-72 -144t-111.5 -106.5t-153 -42.5q-142 0 -216.5 81.5t-74.5 238.5zM291 1094q0 -228 190 -228q62 0 112.5 38.5t81 95t52 124t29.5 122.5 t8 95q0 230 -189 230q-62 0 -112.5 -38.5t-81.5 -95t-52 -124.5t-29.5 -123.5t-8.5 -95.5z" />
<glyph horiz-adv-x="604" d="M-51 -307l157 895h99l-103 -574l273 324h119l-238 -264l156 -381h-101l-121 307l-112 -125l-31 -182h-98z" />
<glyph horiz-adv-x="610" d="M141 788l158 895h98l-102 -573l272 324h119l-237 -265l155 -381h-100l-121 308l-113 -125l-30 -183h-99z" />
<glyph horiz-adv-x="1132" d="M18 0l132 162q-52 98 -52 254q0 55 8 119.5t27 140.5t47 148t71 140t96 118.5t126 81t156 30.5q184 0 282 -98l66 80h100l-114 -142q63 -108 63 -272q0 -55 -8 -120t-27.5 -141t-47.5 -148.5t-71 -140t-96 -118.5t-125.5 -81.5t-154.5 -30.5q-199 0 -301 114l-78 -96h-99 zM223 414q0 -84 17 -142l594 727q-68 84 -207 84q-74 0 -137.5 -38t-106 -99.5t-75 -135t-50.5 -150.5t-26.5 -139t-8.5 -107zM274 193q66 -101 222 -101q64 0 120 28.5t96 75.5t73 108.5t53.5 125t34.5 128t20 115.5t6 89q0 91 -25 164zM543 1284l239 260h191l-318 -260 h-112z" />
<glyph horiz-adv-x="1085" d="M66 313q0 63 16.5 119.5t47.5 101.5t66.5 81.5t82 67t85.5 51.5t85 42q-177 114 -177 303q0 166 117.5 271.5t288.5 105.5q150 0 235.5 -84t85.5 -213q0 -249 -311 -393q48 -29 85.5 -59t76 -74.5t59.5 -104t21 -129.5q0 -94 -40 -174t-107 -133.5t-156 -84t-187 -30.5 q-169 0 -271.5 88t-102.5 248zM199 319q0 -113 67 -171t178 -58q142 0 247.5 87t105.5 226q0 56 -19.5 105t-56 87t-73 64.5t-85.5 53.5q-62 -28 -106.5 -52t-96.5 -61t-84.5 -75.5t-54.5 -92t-22 -113.5zM399 1075q0 -150 172 -248q301 122 301 322q0 86 -53.5 141.5 t-146.5 55.5q-113 0 -193 -80.5t-80 -190.5z" />
<glyph horiz-adv-x="1130" d="M98 416q0 55 8 119.5t27 140.5t47 148t71 140t96 118.5t126 81t156 30.5q193 0 295 -109t102 -323q0 -55 -8 -120t-27.5 -141t-47.5 -148.5t-71 -140t-96 -118.5t-125.5 -81.5t-154.5 -30.5q-194 0 -296 110t-102 324zM223 414q0 -322 273 -322q64 0 120 28.5t96 75.5 t73 108.5t53.5 125t34.5 128t20 115.5t6 89q0 321 -272 321q-74 0 -137.5 -38t-106 -99.5t-75 -135t-50.5 -150.5t-26.5 -139t-8.5 -107zM449 1335l16 92h483l-16 -92h-483z" />
<glyph horiz-adv-x="841" d="M-4 -2q0 58 11.5 127.5t41 149t72 143.5t111.5 106.5t153 42.5q141 0 216 -80.5t75 -236.5q0 -59 -11.5 -129t-41 -150t-72 -144t-111.5 -106.5t-153 -42.5q-142 0 -216.5 81.5t-74.5 238.5zM98 -2q0 -227 191 -227q62 0 112.5 38.5t81 95t51.5 124.5t29 122.5t8 94.5 q0 229 -188 229q-62 0 -113 -38.5t-81.5 -95t-52 -124.5t-30 -123.5t-8.5 -95.5z" />
<glyph horiz-adv-x="1132" d="M98 416q0 55 8 119.5t27 140.5t47 148t71 140t96 118.5t126 81t156 30.5q193 0 295 -109t102 -323q0 -55 -8 -120t-27.5 -141t-47.5 -148.5t-71 -140t-96 -118.5t-125.5 -81.5t-154.5 -30.5q-194 0 -296 110t-102 324zM223 414q0 -322 273 -322q64 0 120 28.5t96 75.5 t73 108.5t53.5 125t34.5 128t20 115.5t6 89q0 321 -272 321q-74 0 -137.5 -38t-106 -99.5t-75 -135t-50.5 -150.5t-26.5 -139t-8.5 -107zM487 1284l166 260h160l-242 -260h-84zM733 1284l166 260h162l-244 -260h-84z" />
<glyph horiz-adv-x="1130" d="M98 416q0 55 8 119.5t27 140.5t47 148t71 140t96 118.5t126 81t156 30.5q193 0 295 -109t102 -323q0 -55 -8 -120t-27.5 -141t-47.5 -148.5t-71 -140t-96 -118.5t-125.5 -81.5t-154.5 -30.5q-194 0 -296 110t-102 324zM223 414q0 -322 273 -322q64 0 120 28.5t96 75.5 t73 108.5t53.5 125t34.5 128t20 115.5t6 89q0 321 -272 321q-74 0 -137.5 -38t-106 -99.5t-75 -135t-50.5 -150.5t-26.5 -139t-8.5 -107zM475 1544h166l166 -260h-98z" />
<glyph horiz-adv-x="718" d="M111 768q0 171 233 272q-106 71 -106 183q0 99 74.5 162t185.5 63q99 0 156 -52t57 -132q0 -142 -185 -232q148 -82 148 -217q0 -113 -91 -184.5t-223 -71.5q-115 0 -182 55t-67 154zM215 774q0 -63 40 -96t107 -33q83 0 145 48.5t62 123.5q0 61 -37.5 101t-101.5 75 q-48 -22 -79 -39t-66 -44t-52.5 -61t-17.5 -75zM336 1214q0 -80 98 -137q176 70 176 178q0 46 -31 77.5t-85 31.5q-66 0 -112 -44t-46 -106z" />
<glyph horiz-adv-x="319" d="M-51 -307l157 895h99l-158 -895h-98z" />
<glyph horiz-adv-x="718" d="M8 195q0 171 234 272q-107 72 -107 182q0 99 74.5 162t185.5 63q99 0 156 -52t57 -132q0 -141 -184 -231q147 -82 147 -217q0 -113 -90.5 -184.5t-222.5 -71.5q-115 0 -182.5 55t-67.5 154zM113 201q0 -63 40 -96t107 -33q83 0 145 48.5t62 123.5q0 61 -37.5 101 t-101.5 75q-48 -22 -79 -39t-66 -44t-52.5 -61t-17.5 -75zM233 641q0 -79 99 -137q176 70 176 178q0 46 -31.5 77.5t-85.5 31.5q-66 0 -112 -44t-46 -106z" />
<glyph horiz-adv-x="872" d="M20 0l17 90q6 4 16 12t38 34.5t52.5 55t54 71t48.5 85.5h-148l15 82h159q11 49 11 80q0 27 -2 39h-148l14 82h117q-5 15 -18 56t-19 63t-12 57t-6 67q0 143 88 231.5t233 88.5q66 0 133 -23.5t100 -44t85 -57.5l-70 -78q-140 94 -237 94q-93 0 -153 -60.5t-60 -156.5 q0 -39 9 -78t25 -85.5t23 -73.5h270l-14 -82h-244q2 -6 2 -29q0 -42 -10 -90h229l-14 -82h-239q-52 -127 -170 -239h464l-20 -109h-619z" />
<glyph horiz-adv-x="638" d="M-68 -307l13 76q4 3 11 8.5t27 23.5t37.5 37.5t38.5 49.5t35 61h-106l10 63h117q6 24 6 54q0 18 -2 28h-105l11 64h81q-2 8 -9.5 32t-10.5 35.5t-7.5 31.5t-6.5 38t-2 37q0 105 63 170t168 65q51 0 102 -18t75 -33.5t63 -44.5l-58 -65q-99 69 -170 69q-63 0 -104 -42 t-41 -109q0 -26 6 -53t17.5 -61t15.5 -52h194l-12 -64h-170v-20q0 -35 -6 -62h162l-10 -63h-172q-33 -84 -115 -166h328l-17 -90h-457z" />
<glyph horiz-adv-x="636" d="M125 788l12 76q11 8 29.5 23t58.5 62t62 95h-107l10 64h117q6 24 6 53q0 19 -2 29h-104l10 63h82q-2 6 -12 39t-13.5 46t-7.5 39.5t-4 49.5q0 105 63.5 170.5t168.5 65.5q39 0 74.5 -8.5t68.5 -26t49.5 -28.5t46.5 -33l-57 -66q-101 70 -170 70q-63 0 -104.5 -42.5 t-41.5 -109.5q0 -26 6 -53t17.5 -61t15.5 -52h195l-12 -63h-170v-21q0 -34 -6 -61h161l-10 -64h-172q-32 -82 -115 -165h328l-16 -91h-457z" />
<glyph horiz-adv-x="1130" d="M98 416q0 55 8 119.5t27 140.5t47 148t71 140t96 118.5t126 81t156 30.5q193 0 295 -109t102 -323q0 -55 -8 -120t-27.5 -141t-47.5 -148.5t-71 -140t-96 -118.5t-125.5 -81.5t-154.5 -30.5q-194 0 -296 110t-102 324zM223 414q0 -322 273 -322q64 0 120 28.5t96 75.5 t73 108.5t53.5 125t34.5 128t20 115.5t6 89q0 321 -272 321q-74 0 -137.5 -38t-106 -99.5t-75 -135t-50.5 -150.5t-26.5 -139t-8.5 -107zM479 1305l33 174h131l-31 -174h-133zM760 1305l31 174h131l-31 -174h-131z" />
<glyph horiz-adv-x="1130" d="M98 416q0 55 8 119.5t27 140.5t47 148t71 140t96 118.5t126 81t156 30.5q193 0 295 -109t102 -323q0 -55 -8 -120t-27.5 -141t-47.5 -148.5t-71 -140t-96 -118.5t-125.5 -81.5t-154.5 -30.5q-194 0 -296 110t-102 324zM223 414q0 -322 273 -322q64 0 120 28.5t96 75.5 t73 108.5t53.5 125t34.5 128t20 115.5t6 89q0 321 -272 321q-74 0 -137.5 -38t-106 -99.5t-75 -135t-50.5 -150.5t-26.5 -139t-8.5 -107zM444 1284l209 260h152l117 -260h-88l-113 182l-174 -182h-103z" />
<glyph horiz-adv-x="1073" d="M108.5 266q1.5 63 12.5 135l137 775h121l-139 -785q-10 -53 -12 -93t6 -80t29.5 -66t63.5 -42t103 -16q270 0 322 293l139 789h121l-138 -789q-16 -90 -46.5 -160t-82 -127t-131.5 -87.5t-186 -30.5q-87 0 -150 20.5t-98.5 58t-54 90t-17 115.5zM483 1456q0 80 56 137.5 t137 57.5t137.5 -57.5t56.5 -137.5q0 -82 -56 -137t-138 -55t-137.5 55t-55.5 137zM563 1456q0 -47 33 -81t80 -34q49 0 83 33.5t34 81.5t-34 81.5t-83 33.5q-47 0 -80 -34t-33 -81z" />
<glyph horiz-adv-x="1130" d="M98 416q0 55 8 119.5t27 140.5t47 148t71 140t96 118.5t126 81t156 30.5q193 0 295 -109t102 -323q0 -55 -8 -120t-27.5 -141t-47.5 -148.5t-71 -140t-96 -118.5t-125.5 -81.5t-154.5 -30.5q-194 0 -296 110t-102 324zM223 414q0 -322 273 -322q64 0 120 28.5t96 75.5 t73 108.5t53.5 125t34.5 128t20 115.5t6 89q0 321 -272 321q-74 0 -137.5 -38t-106 -99.5t-75 -135t-50.5 -150.5t-26.5 -139t-8.5 -107zM489 1493h93q-9 -62 16.5 -89.5t87.5 -27.5q150 0 170 117h94q-17 -98 -87 -153.5t-181 -55.5q-106 0 -158 57t-35 152z" />
<glyph horiz-adv-x="802" d="M207 1092l96 557h103l-101 -568q-10 -43 -8.5 -81.5t12.5 -68t43.5 -46.5t85.5 -17q102 0 153 56t68 153l103 572h100l-100 -574q-26 -140 -101.5 -220.5t-224.5 -80.5q-288 0 -229 318z" />
<glyph horiz-adv-x="1130" d="M98 416q0 55 8 119.5t27 140.5t47 148t71 140t96 118.5t126 81t156 30.5q193 0 295 -109t102 -323q0 -55 -8 -120t-27.5 -141t-47.5 -148.5t-71 -140t-96 -118.5t-125.5 -81.5t-154.5 -30.5q-194 0 -296 110t-102 324zM223 414q0 -322 273 -322q64 0 120 28.5t96 75.5 t73 108.5t53.5 125t34.5 128t20 115.5t6 89q0 321 -272 321q-74 0 -137.5 -38t-106 -99.5t-75 -135t-50.5 -150.5t-26.5 -139t-8.5 -107zM553 1284l240 260h190l-317 -260h-113z" />
<glyph horiz-adv-x="1640" d="M98 416q0 55 8 119.5t27 140.5t47 148t71 140t96 118.5t126 81t156 30.5q246 0 340 -172l26 154h639l-22 -111h-514l-74 -422h426l-18 -111h-426l-76 -421h524l-18 -111h-648l23 131q-132 -149 -315 -149q-194 0 -296 110t-102 324zM223 414q0 -322 273 -322 q64 0 120 28.5t96 75.5t73 108.5t53.5 125t34.5 128t20 115.5t6 89q0 321 -272 321q-74 0 -137.5 -38t-106 -99.5t-75 -135t-50.5 -150.5t-26.5 -139t-8.5 -107z" />
<glyph horiz-adv-x="1015" d="M-53 -307l114 645h99l-17 -94q108 108 209 108q62 0 94 -33.5t37 -87.5q45 47 104.5 84t119.5 37q81 0 110.5 -53.5t13.5 -140.5l-79 -465h-99l80 450q22 125 -61 125q-86 0 -193 -116l-82 -459h-98l80 450q22 125 -64 125q-83 0 -188 -114l-82 -461h-98z" />
<glyph horiz-adv-x="1073" d="M108.5 266q1.5 63 12.5 135l137 775h121l-139 -785q-10 -53 -12 -93t6 -80t29.5 -66t63.5 -42t103 -16q270 0 322 293l139 789h121l-138 -789q-16 -90 -46.5 -160t-82 -127t-131.5 -87.5t-186 -30.5q-87 0 -150 20.5t-98.5 58t-54 90t-17 115.5zM412 1352q47 78 83 111.5 t85 33.5q37 0 71.5 -25t64 -50t52.5 -25q20 0 41.5 19t56.5 77l66 -47q-47 -78 -83 -112t-85 -34q-29 0 -57.5 16t-48 34.5t-42 34.5t-41.5 16q-21 0 -42 -17.5t-56 -74.5z" />
<glyph horiz-adv-x="1040" d="M158 1176h129l139 -1041l502 1041h143l-596 -1176h-135z" />
<glyph horiz-adv-x="1130" d="M98 416q0 55 8 119.5t27 140.5t47 148t71 140t96 118.5t126 81t156 30.5q193 0 295 -109t102 -323q0 -55 -8 -120t-27.5 -141t-47.5 -148.5t-71 -140t-96 -118.5t-125.5 -81.5t-154.5 -30.5q-194 0 -296 110t-102 324zM223 414q0 -322 273 -322q64 0 120 28.5t96 75.5 t73 108.5t53.5 125t34.5 128t20 115.5t6 89q0 321 -272 321q-74 0 -137.5 -38t-106 -99.5t-75 -135t-50.5 -150.5t-26.5 -139t-8.5 -107z" />
<glyph horiz-adv-x="1112" d="M59 0l207 1176h127l352 -988l175 988h122l-206 -1176h-127l-353 987l-174 -987h-123zM442 1352q47 78 83 111.5t85 33.5q37 0 72 -25t64.5 -50t52.5 -25q20 0 41.5 19t56.5 77l66 -47q-47 -78 -83 -112t-85 -34q-29 0 -57.5 16t-48 34.5t-42 34.5t-41.5 16 q-21 0 -42 -17.5t-56 -74.5z" />
<glyph horiz-adv-x="833" d="M162 788l151 861h105l241 -701l123 701h101l-152 -861h-102l-244 699l-123 -699h-100z" />
<glyph horiz-adv-x="833" d="M-31 -307l152 860h104l242 -700l123 700h100l-151 -860h-103l-243 698l-123 -698h-101z" />
<glyph horiz-adv-x="1112" d="M59 0l207 1176h127l352 -988l175 988h122l-206 -1176h-127l-353 987l-174 -987h-123zM293 -494l102 179h-59l31 182h127l-19 -186l-147 -218z" />
<glyph horiz-adv-x="1112" d="M59 0l207 1176h127l352 -988l175 988h122l-206 -1176h-127l-353 987l-174 -987h-123zM492 1544h86l114 -182l174 182h101l-209 -260h-150z" />
<glyph horiz-adv-x="1112" d="M59 0l207 1176h127l352 -988l175 988h122l-206 -1176h-127l-353 987l-174 -987h-123zM561 1284l240 260h190l-317 -260h-113z" />
<glyph horiz-adv-x="1112" d="M59 0l207 1176h127l352 -988l175 988h122l-206 -1176h-127l-353 987l-174 -987h-123z" />
<glyph horiz-adv-x="708" d="M18 6l41 80q29 -10 72 -10q116 0 211 91.5t137 233.5q-82 -92 -196 -92q-100 0 -155.5 69.5t-55.5 168.5q0 130 78.5 228.5t209.5 98.5q119 0 182.5 -86t63.5 -208q0 -156 -62.5 -292.5t-172 -219t-238.5 -82.5q-31 0 -60 5t-42 10zM172 549q0 -63 34.5 -109.5 t100.5 -46.5q62 0 117.5 41.5t77.5 87.5q4 36 4 60q0 85 -37.5 143.5t-108.5 58.5q-86 0 -137 -69.5t-51 -165.5z" />
<glyph horiz-adv-x="755" d="M29 553h110l90 -748l355 748h118l-432 -860h-110z" />
<glyph horiz-adv-x="1048" d="M23 -254l53 102q49 -18 117 -18q128 0 246 81.5t202.5 216t128.5 300.5q-23 -27 -50 -52t-68.5 -54t-96.5 -46.5t-113 -17.5q-81 0 -145 33t-103.5 87.5t-60 122t-20.5 140.5q0 82 19.5 162t58.5 150.5t92.5 124t127.5 85t158 31.5q92 0 165 -40.5t117 -108t66.5 -149.5 t22.5 -171q0 -265 -100 -497.5t-273 -372.5t-374 -140q-44 0 -86.5 7.5t-62.5 15.5zM244 645q0 -52 13 -99.5t39 -88t70.5 -64.5t102.5 -24q108 0 204.5 78.5t131.5 160.5q6 56 6 115q0 92 -25 170.5t-82 132t-137 53.5q-97 0 -172 -63.5t-113 -161.5t-38 -209z" />
<glyph horiz-adv-x="1058" d="M70 8l53 103q49 -19 117 -19q128 0 246 81.5t202.5 216t128.5 300.5q-23 -27 -50 -52t-68.5 -54t-96.5 -46.5t-113 -17.5q-81 0 -145 33t-103.5 87.5t-60 122t-20.5 140.5q0 82 19.5 162t58.5 150.5t92.5 124t127.5 85t158 31.5q92 0 165 -40.5t117 -108t66.5 -149.5 t22.5 -171q0 -265 -100 -497.5t-273 -372.5t-374 -140q-44 0 -86.5 7.5t-63.5 15.5zM291 907q0 -52 13 -99.5t39 -88t70.5 -64.5t102.5 -24q108 0 204.5 78.5t131.5 160.5q6 56 6 115q0 92 -25 170.5t-82 132t-137 53.5q-97 0 -172 -63.5t-113 -161.5t-38 -209z" />
<glyph horiz-adv-x="755" d="M221 1649h111l90 -748l354 748h119l-432 -861h-111z" />
<glyph horiz-adv-x="1415" d="M172 1176h133l37 -1000l401 1000h115l45 -1002l389 1002h140l-486 -1176h-129l-49 983l-393 -983h-129z" />
<glyph horiz-adv-x="690" d="M-53 -307l114 645h99l-17 -86q138 100 236 100q79 0 111 -52.5t16 -143.5l-80 -463h-98l80 450q4 35 2.5 62.5t-19 45t-51.5 17.5q-50 0 -111 -33t-100 -71l-84 -471h-98z" />
<glyph horiz-adv-x="1415" d="M172 1176h133l37 -1000l401 1000h115l45 -1002l389 1002h140l-486 -1176h-129l-49 983l-393 -983h-129zM694 1284l240 260h190l-317 -260h-113z" />
<glyph horiz-adv-x="966" d="M23 121l71 92q129 -92 250 -115l82 465q-62 34 -99 59.5t-76.5 63.5t-58 85.5t-18.5 107.5q0 140 103.5 227.5t259.5 87.5h2l26 152h90l-28 -160q136 -23 272 -105l-70 -88q-107 63 -221 84l-76 -428q53 -30 84 -49.5t72 -52.5t63 -64t38 -75.5t16 -96.5 q0 -100 -54.5 -176.5t-141 -114.5t-189.5 -38h-4l-27 -150h-92l27 158q-156 25 -301 131zM303 883q0 -62 35 -103.5t111 -85.5l69 391q-90 -5 -152.5 -58.5t-62.5 -143.5zM434 90q102 3 172 62t70 153q0 69 -42.5 117t-123.5 96z" />
<glyph horiz-adv-x="952" d="M162 788l151 861h105l133 -590l346 590h104l-151 -861h-100l116 662l-305 -518h-59l-121 536l-119 -680h-100z" />
<glyph horiz-adv-x="950" d="M-31 -307l152 860h104l133 -590l347 590h104l-152 -860h-100l117 661l-305 -518h-60l-121 537l-118 -680h-101z" />
<glyph horiz-adv-x="1142" d="M47 307l16 96h209l113 367h-197l19 96h207l96 310h98l-96 -310h279l96 310h98l-96 -310h198l-18 -96h-211l-113 -367h199l-16 -96h-213l-94 -307h-97l94 307h-278l-94 -307h-99l95 307h-195zM371 403h278l113 367h-279z" />
<glyph horiz-adv-x="827" d="M-51 -88l12 82h148l79 256h-137l15 82h147l70 221h79l-67 -221h190l68 221h82l-68 -221h138l-15 -82h-149l-78 -256h139l-14 -82h-150l-67 -219h-80l65 219h-190l-68 -219h-82l68 219h-135zM190 -6h191l78 256h-191z" />
<glyph horiz-adv-x="827" d="M141 1008l13 82h147l80 256h-137l14 81h148l69 222h80l-68 -222h191l67 222h82l-67 -222h137l-14 -81h-150l-78 -256h140l-15 -82h-149l-68 -220h-80l66 220h-191l-67 -220h-82l67 220h-135zM383 1090h190l78 256h-190z" />
<glyph horiz-adv-x="1273" d="M59 0l207 1176h131l191 -822l487 822h131l-207 -1176h-122l163 938l-438 -741h-74l-176 766l-170 -963h-123z" />
<glyph horiz-adv-x="634" d="M162 788l151 861h101l-135 -770h358l-16 -91h-459z" />
<glyph horiz-adv-x="825" d="M33 395l22 123l119 66l105 592h122l-92 -517l223 123l-22 -123l-221 -122l-76 -428h502l-21 -109h-622l80 461z" />
<glyph horiz-adv-x="634" d="M-31 -307l152 860h100l-135 -770h358l-16 -90h-459z" />
<glyph horiz-adv-x="835" d="M59 0l207 1176h123l-188 -1067h501l-20 -109h-623zM557 528l33 177h133l-33 -177h-133z" />
<glyph horiz-adv-x="831" d="M59 0l207 1176h123l-188 -1067h501l-20 -109h-623zM211 -494l102 179h-59l31 182h127l-19 -186l-147 -218z" />
<glyph horiz-adv-x="1415" d="M172 1176h133l37 -1000l401 1000h115l45 -1002l389 1002h140l-486 -1176h-129l-49 983l-393 -983h-129zM582 1284l209 260h151l117 -260h-88l-113 182l-174 -182h-102z" />
<glyph horiz-adv-x="831" d="M59 0l207 1176h123l-188 -1067h501l-20 -109h-623zM395 815l103 178h-60l31 183h127l-18 -187l-148 -217z" />
<glyph horiz-adv-x="831" d="M59 0l207 1176h123l-188 -1067h501l-20 -109h-623zM213 1284l240 260h190l-317 -260h-113z" />
<glyph horiz-adv-x="684" d="M-33 -70q0 76 19.5 149.5t55.5 135t96 99.5t134 38q109 0 174.5 -63t65.5 -189q0 -76 -19.5 -149.5t-55.5 -135t-96 -99.5t-134 -38q-109 0 -174.5 63t-65.5 189zM66 -70q0 -168 141 -168q51 0 93 35.5t65.5 89t36 109t12.5 104.5q0 168 -142 168q-51 0 -92.5 -35 t-65 -89t-36 -109.5t-12.5 -104.5z" />
<glyph horiz-adv-x="831" d="M59 0l207 1176h123l-188 -1067h501l-20 -109h-623z" />
<glyph horiz-adv-x="747" d="M162 788l151 861h101l-82 -457l405 457h131l-372 -412l247 -449h-112l-203 375l-125 -137l-41 -238h-100z" />
<glyph horiz-adv-x="503" d="M66 745l200 115h92l-153 -860h-101l134 748l-138 -76z" />
<glyph horiz-adv-x="501" d="M166 1319l201 115h92l-154 -861h-100l133 748l-137 -76z" />
<glyph horiz-adv-x="628" d="M121 995l309 181h117l-209 -1176h-129l182 1026l-221 -129z" />
<glyph horiz-adv-x="1056" d="M45 0l21 117h337l207 1167l-309 -180l-47 98l395 232h117l-234 -1317h345l-21 -117h-811z" />
<glyph horiz-adv-x="686" d="M-41 -102q0 191 76 322.5t196 131.5q39 0 76.5 -18.5t58 -37t46.5 -46.5l59 338h98l-157 -895h-99l17 94q-113 -109 -213 -109q-69 0 -113.5 54t-44.5 166zM59 -92q0 -67 23 -105.5t65 -38.5q52 0 99 31t100 86l49 285q-70 100 -147 100q-56 0 -100.5 -55t-66.5 -136 t-22 -167z" />
<glyph horiz-adv-x="1247" d="M139 0l690 1176h95l-691 -1176h-94zM143 1081l174 95h82l-125 -705h-88l107 608l-117 -63zM594 162q0 138 197 221q-93 61 -93 149q0 81 64.5 133t161.5 52q88 0 137 -43t49 -109q0 -118 -158 -188q58 -32 93.5 -74t35.5 -106q0 -92 -77.5 -150.5t-192.5 -58.5 q-100 0 -158.5 46t-58.5 128zM684 168q0 -52 35.5 -79.5t93.5 -27.5q71 0 124.5 39t53.5 99q0 50 -33.5 82.5t-89.5 60.5q-41 -17 -68 -30.5t-56.5 -35t-44.5 -48.5t-15 -60zM786 526q0 -66 86 -112q65 25 107.5 57.5t42.5 83.5q0 39 -27 64.5t-73 25.5q-57 0 -96.5 -35.5 t-39.5 -83.5z" />
<glyph horiz-adv-x="1247" d="M141 0l688 1176h95l-688 -1176h-95zM145 1081l174 95h80l-123 -705h-90l109 608l-119 -63zM598 70l51 61q13 -11 31.5 -23t54 -25t70.5 -13q69 0 122.5 47.5t53.5 128.5q0 58 -30 92.5t-87 34.5q-55 0 -137 -45l-49 28l96 349h354l-12 -78h-282l-50 -199q54 21 103 21 q89 0 137.5 -56.5t48.5 -144.5q0 -107 -71.5 -183.5t-190.5 -76.5q-108 0 -213 82z" />
<glyph horiz-adv-x="749" d="M-31 -307l152 860h100l-82 -457l406 457h131l-373 -412l248 -448h-113l-202 375l-125 -138l-41 -237h-101z" />
<glyph horiz-adv-x="1253" d="M139 0l688 1176h99l-690 -1176h-97zM143 1081l174 95h80l-123 -705h-88l107 608l-117 -63zM602 0l8 55q9 55 30.5 98.5t57 78t67 57t81.5 55.5q5 3 8.5 5.5t7.5 4.5q48 32 73.5 51t55 45.5t42 52t11.5 52.5q0 37 -27 60.5t-77 23.5q-79 0 -176 -59l-35 63q105 74 219 74 q86 0 136.5 -43t50.5 -115q0 -38 -14.5 -73.5t-39 -64t-56 -54.5t-65.5 -49t-67 -44q-5 -3 -8 -4.5t-7.5 -4.5l-7.5 -5q-73 -47 -107 -86t-44 -96h332l-13 -78h-436z" />
<glyph horiz-adv-x="1415" d="M172 1176h133l37 -1000l401 1000h115l45 -1002l389 1002h140l-486 -1176h-129l-49 983l-393 -983h-129zM616 1305l33 174h131l-30 -174h-134zM897 1305l31 174h131l-31 -174h-131z" />
<glyph horiz-adv-x="993" d="M59 0l207 1176h123l-115 -648l578 648h160l-514 -564l350 -612h-139l-293 524l-176 -194l-58 -330h-123zM238 -494l102 179h-59l30 182h127l-18 -186l-148 -218z" />
<glyph horiz-adv-x="1204" d="M139 0l690 1176h97l-690 -1176h-97zM145 1081l174 95h80l-125 -705h-88l109 608l-119 -63zM526 154l13 67l387 484h118l-86 -474h97l-13 -77h-98l-26 -154h-91l27 154h-328zM637 231h231l70 379z" />
<glyph horiz-adv-x="1222" d="M141 0l688 1176h95l-688 -1176h-95zM145 1081l174 95h80l-123 -705h-90l109 608l-119 -63zM588 236q0 127 53.5 237.5t147.5 177t206 66.5q26 0 51 -4.5t36 -8.5l12 -4l-31 -69q-29 8 -64 8q-99 0 -181 -72.5t-118 -185.5q72 72 166 72q89 0 139 -58t50 -141 q0 -105 -67.5 -185.5t-180.5 -80.5q-106 0 -162.5 72.5t-56.5 175.5zM678 233q0 -70 33 -118.5t94 -48.5q73 0 116.5 55.5t43.5 130.5q0 53 -29 90t-88 37q-53 0 -99 -31.5t-69 -68.5q-2 -14 -2 -46z" />
<glyph horiz-adv-x="993" d="M59 0l207 1176h123l-115 -648l578 648h160l-514 -564l350 -612h-139l-293 524l-176 -194l-58 -330h-123z" />
<glyph horiz-adv-x="1415" d="M172 1176h133l37 -1000l401 1000h115l45 -1002l389 1002h140l-486 -1176h-129l-49 983l-393 -983h-129zM614 1544h166l166 -260h-98z" />
<glyph horiz-adv-x="1234" d="M141 0l688 1176h95l-691 -1176h-92zM143 1081l174 95h82l-125 -705h-88l107 608l-117 -63zM588 66l51 61q83 -59 172 -59q75 0 122.5 41t47.5 104q0 65 -51 99t-125 34h-25l13 78h30q71 0 131 40.5t60 96.5q0 37 -26.5 57.5t-72.5 20.5q-77 0 -165 -55l-31 65l11 7 q12 6 18.5 9.5t21.5 11t26 12t29 10.5t33.5 9.5t35 6t38.5 2.5q82 0 127 -40.5t45 -101.5q0 -57 -41 -109t-121 -81q57 -14 94 -61t37 -113q0 -89 -68.5 -156t-189.5 -67q-118 0 -227 78z" />
<glyph horiz-adv-x="362" d="M20 692q91 31 115 56.5t35 91.5l143 809h101l-142 -805l-8.5 -42.5t-8 -35t-10.5 -32t-14 -26t-20 -24.5t-26.5 -20t-36 -20t-46.5 -17.5t-59 -18.5z" />
<glyph horiz-adv-x="360" d="M-174 -403q91 31 114.5 56t34.5 91l144 809h100l-141 -805q-18 -95 -36 -127q-30 -52 -123 -86q-30 -11 -71 -22z" />
<glyph horiz-adv-x="460" d="M-133 -137q45 15 75 27.5t52 27.5t34 26.5t21 33.5t13 39t10 51l196 1108h123l-194 -1106q-22 -117 -42 -157q-32 -64 -120 -104q-53 -24 -141 -49zM104 1284l209 260h152l117 -260h-88l-113 182l-174 -182h-103z" />
<glyph horiz-adv-x="460" d="M-133 -137q45 15 75 27.5t52 27.5t34 26.5t21 33.5t13 39t10 51l196 1108h123l-194 -1106q-22 -117 -42 -157q-32 -64 -120 -104q-53 -24 -141 -49z" />
<glyph horiz-adv-x="1026" d="M41 553h111l20 -709l283 709h94l26 -715l273 715h117l-355 -860h-106l-29 700l-278 -700h-107z" />
<glyph horiz-adv-x="460" d="M59 0l207 1176h123l-207 -1176h-123zM109 1352q47 78 82.5 111.5t84.5 33.5q37 0 72 -25t64.5 -50t52.5 -25q20 0 41.5 19t56.5 77l66 -47q-47 -78 -83 -112t-85 -34q-29 0 -57.5 16t-48 34.5t-42 34.5t-41.5 16q-21 0 -42 -17.5t-56 -74.5z" />
<glyph horiz-adv-x="362" d="M162 788l151 861h101l-152 -861h-100z" />
<glyph horiz-adv-x="460" d="M-127 -236q0 71 50.5 127t148.5 109h-11l207 1176h123l-207 -1176h-8q-107 -66 -154 -114.5t-47 -102.5q0 -21 9 -34t29 -18t34 -6t42 -1h9l-32 -91q-22 0 -36 0.5t-40.5 4t-43.5 12t-35.5 22t-28 37.5t-9.5 55z" />
<glyph horiz-adv-x="978" d="M100 754q0 188 117 305t307 117h107l-262 -1487h-105l137 776q-140 0 -220.5 75t-80.5 214zM532 -311l263 1487h106l-262 -1487h-107z" />
<glyph horiz-adv-x="458" d="M59 0l207 1176h123l-207 -1176h-123zM115 1335l16 92h483l-16 -92h-483z" />
<glyph horiz-adv-x="540" d="M61 -72.5q-3 53.5 13 131.5l186 1053q8 47 14.5 75t20 59.5t32.5 50.5t50.5 40.5t76 38t107.5 33.5l23 -90q-62 -21 -97.5 -38t-57 -42.5t-30 -50t-16.5 -72.5l-188 -1065q-6 -35 -8.5 -52.5t-4.5 -38.5t3.5 -31.5t12.5 -22.5t23.5 -21t36 -18.5t51.5 -22.5l-39 -84 q-111 35 -158.5 74.5t-50.5 93z" />
<glyph horiz-adv-x="1030" d="M236 1649h110l21 -709l282 709h94l27 -715l272 715h117l-354 -861h-107l-28 701l-279 -701h-106z" />
<glyph horiz-adv-x="604" d="M158 1032q0 96 25.5 176.5t66.5 132t92 79.5t104 28q18 0 37 -3t34 -7.5t33 -12.5t29 -14t28 -17t23.5 -15.5t22 -16t17.5 -12.5l-54 -68q-1 1 -19 15t-29 21t-30 18t-38.5 16.5t-38.5 5.5q-80 0 -141.5 -92t-61.5 -226q0 -85 29 -130.5t86 -45.5q22 0 50.5 9.5t46.5 19 t47.5 26.5t33.5 19l37 -78q-103 -58 -160 -74q-41 -12 -76 -12q-88 0 -141 68t-53 190z" />
<glyph horiz-adv-x="362" d="M-31 -307l152 860h100l-151 -860h-101z" />
<glyph horiz-adv-x="540" d="M-53 -150q62 21 97.5 38t56.5 42.5t29.5 50t16.5 72.5l189 1065q7 40 10 59.5t1.5 42.5t-7.5 33t-22.5 24t-37.5 23.5t-59 24.5l39 84q111 -35 158.5 -74.5t51 -93t-12.5 -131.5l-187 -1053q-8 -47 -14.5 -75t-20 -59.5t-32.5 -50.5t-50.5 -40.5t-76 -38t-107.5 -33.5z " />
<glyph horiz-adv-x="1507" d="M111 535q0 133 45 251t128.5 209.5t214 145t289.5 53.5q276 0 438.5 -152.5t162.5 -400.5q0 -132 -45 -250.5t-129 -210t-214.5 -145t-289.5 -53.5q-276 0 -438 152.5t-162 400.5zM180 535q0 -217 143.5 -353.5t391.5 -136.5q139 0 254.5 47t191 128.5t117 189.5 t41.5 231q0 217 -143 353t-392 136q-139 0 -254.5 -47t-191 -128t-117 -189t-41.5 -231zM420 508q-7 104 19.5 189.5t76.5 140t117 84.5t143 30q141 0 289 -112l-57 -56q-34 27 -57 42.5t-74 34t-103 18.5q-119 0 -196 -104.5t-68 -260.5q6 -101 51.5 -159t120.5 -58 q127 0 266 90l49 -61q-51 -31 -85 -48.5t-99 -37t-127 -19.5q-111 0 -185.5 76t-80.5 211z" />
<glyph horiz-adv-x="1605" d="M-168 -322q40 14 68.5 25.5t53 26.5t40 26.5t29.5 33.5t21 37.5t15.5 49.5t13.5 59.5t13 75.5l168 961h-119l21 102h116l33 180q25 132 86.5 185t153.5 53q117 0 329 -63l13 63h123l-101 -565q170 170 322 170q116 0 194 -86.5t78 -263.5q0 -208 -52 -383t-150 -281.5 t-222 -106.5q-51 0 -97.5 16t-85.5 45.5t-65 55.5t-57 62l-26 -156h-125l233 1323q-60 17 -153 37t-144 20q-109 0 -129 -123l-33 -182h238l-19 -102h-237l-166 -957q-32 -179 -55 -236q-32 -82 -107 -128q-62 -38 -192 -78zM795 270q128 -182 266 -182q92 0 165.5 99.5 t110.5 245t37 298.5q0 122 -43.5 189t-132.5 67q-78 0 -151.5 -48t-157.5 -134z" />
<glyph horiz-adv-x="708" d="M-115 -307l326 428l-162 432h111l116 -356l242 356h123l-315 -430l176 -430h-113l-127 352l-250 -352h-127z" />
<glyph horiz-adv-x="458" d="M59 0l207 1176h123l-207 -1176h-123zM139 1544h166l166 -260h-98z" />
<glyph horiz-adv-x="1486" d="M129 815q0 69 18.5 135t53.5 121t92.5 89t128.5 34q111 0 179.5 -63.5t68.5 -186.5q0 -93 -31.5 -177.5t-101 -143t-162.5 -58.5q-111 0 -178.5 63.5t-67.5 186.5zM229 809q0 -162 148 -162q63 0 109 52.5t64.5 118.5t18.5 130q0 164 -149 164q-47 0 -85.5 -30t-60.5 -77 t-33.5 -98t-11.5 -98zM315 0l740 1176h104l-739 -1176h-105zM809 231q0 69 18.5 135t53.5 121t92.5 89t128.5 34q112 0 180 -63.5t68 -186.5q0 -69 -18.5 -134.5t-54 -121t-93 -89t-129.5 -33.5q-111 0 -178.5 63t-67.5 186zM909 227q0 -164 150 -164q47 0 85 30.5t60 77.5 t33.5 98t11.5 98q0 161 -149 161q-47 0 -85.5 -30t-60.5 -77t-33.5 -97.5t-11.5 -96.5z" />
<glyph horiz-adv-x="1081" d="M10 289q0 69 22.5 130.5t73 104.5t119.5 43q81 0 129.5 -47t48.5 -137q0 -69 -22.5 -130t-73 -104t-119.5 -43q-80 0 -129 47t-49 136zM90 287q0 -113 100 -113q44 0 76 37t45 83.5t13 90.5q0 115 -101 115q-43 0 -74.5 -37.5t-45 -84.5t-13.5 -91zM143 -307l535 860h84 l-535 -860h-84zM502 -139q0 69 23.5 131t74.5 104.5t119 42.5q80 0 129 -46.5t49 -135.5q0 -69 -23 -131t-74 -105t-120 -43q-78 0 -128 47.5t-50 135.5zM582 -139q0 -115 102 -115q43 0 74.5 37.5t45 84.5t13.5 91q0 113 -100 113q-44 0 -76 -37t-45.5 -83.5t-13.5 -90.5z " />
<glyph horiz-adv-x="1081" d="M203 1384q0 69 22.5 130.5t73 105t119.5 43.5q81 0 129.5 -47t48.5 -137q0 -69 -22.5 -130t-73 -104t-119.5 -43q-80 0 -129 46.5t-49 135.5zM283 1382q0 -112 100 -112q44 0 75.5 37t44.5 83.5t13 90.5q0 114 -100 114q-43 0 -74.5 -37.5t-45 -84.5t-13.5 -91zM336 788 l534 861h84l-534 -861h-84zM694 956q0 69 23.5 131.5t74.5 105t119 42.5q80 0 129.5 -46.5t49.5 -135.5q0 -69 -23.5 -131t-74.5 -105t-120 -43q-78 0 -128 47.5t-50 134.5zM774 956q0 -114 103 -114q43 0 74.5 37.5t45 84.5t13.5 91q0 112 -101 112q-44 0 -76 -37 t-45.5 -83.5t-13.5 -90.5z" />
<glyph horiz-adv-x="458" d="M59 0l207 1176h123l-207 -1176h-123zM143 1305l33 174h131l-31 -174h-133zM424 1305l31 174h131l-31 -174h-131z" />
<glyph horiz-adv-x="456" d="M59 0l207 1176h123l-207 -1176h-123zM106 1284l209 260h152l117 -260h-88l-113 182l-174 -182h-103z" />
<glyph horiz-adv-x="331" d="M143 788l27 148h109l-25 -148h-111zM215 1206l27 148h108l-24 -148h-111z" />
</font>
</defs>
</svg>
