<?xml version="1.0" standalone="no"?>
<!DOCTYPE svg PUBLIC "-//W3C//DTD SVG 1.1//EN" "http://www.w3.org/Graphics/SVG/1.1/DTD/svg11.dtd" >
<svg xmlns="http://www.w3.org/2000/svg">
<metadata></metadata>
<defs>
<font id="verbexcondregular_italic" horiz-adv-x="1042" >
<font-face units-per-em="2048" ascent="1638" descent="-410" />
<missing-glyph horiz-adv-x="448" />
<glyph unicode="ff" horiz-adv-x="1247" d="M-170 -301q149 53 186 105t66 219l162 921h-119l25 131h116l27 150q25 140 79.5 204t155.5 64q66 0 144.5 -25t134.5 -53l-78 -115q-115 46 -176 46q-76 0 -96 -117l-27 -154h232l-25 -131h-231l-158 -911q-11 -64 -17 -93.5t-16 -76t-19.5 -66.5t-24.5 -51.5t-34 -46.5 t-44 -36.5t-59 -35.5t-75 -29.5t-96 -31.5zM453 -301q149 53 186 105t66 219l161 921h-118l24 131h117l26 150q25 140 80 204t156 64q66 0 144.5 -25t134.5 -53l-78 -115q-115 46 -176 46q-77 0 -97 -117l-26 -154h231l-24 -131h-232l-158 -911q-11 -64 -17 -93.5t-16 -76 t-19.5 -66.5t-24.5 -51.5t-34 -46.5t-44 -36.5t-59 -35.5t-75 -29.5t-96 -31.5z" />
<glyph unicode="fi" horiz-adv-x="1071" d="M-170 -301q149 53 186 105t66 219l162 921h-119l25 131h116l27 150q25 141 78.5 204.5t150.5 63.5q54 0 120 -20t112 -43l-66 -119q-96 35 -135 35q-73 0 -96 -117l-27 -154h232l-25 -131h-231l-158 -911q-14 -81 -21.5 -117t-21.5 -89t-30.5 -76t-42 -55t-63 -50 t-87 -38.5t-119.5 -41.5zM657 0l191 1075h162l-189 -1075h-164zM877 1288l36 199h179l-37 -199h-178z" />
<glyph unicode="fl" horiz-adv-x="1087" d="M-170 -301q149 53 186 105t66 219l162 921h-119l25 131h116l27 150q25 141 78.5 204.5t150.5 63.5q54 0 120 -20t112 -43l-66 -119q-96 35 -135 35q-73 0 -96 -117l-27 -154h232l-25 -131h-231l-158 -911q-14 -81 -21.5 -117t-21.5 -89t-30.5 -76t-42 -55t-63 -50 t-87 -38.5t-119.5 -41.5zM664 0l264 1493h164l-265 -1493h-163z" />
<glyph unicode="ffi" horiz-adv-x="1693" d="M-170 -301q149 53 186 105t66 219l162 921h-119l25 131h116l27 150q25 140 79.5 204t155.5 64q66 0 144.5 -25t134.5 -53l-78 -115q-115 46 -176 46q-76 0 -96 -117l-27 -154h232l-25 -131h-231l-158 -911q-11 -64 -17 -93.5t-16 -76t-19.5 -66.5t-24.5 -51.5t-34 -46.5 t-44 -36.5t-59 -35.5t-75 -29.5t-96 -31.5zM453 -301q149 53 186 105t66 219l161 921h-118l24 131h117l26 150q25 141 79 204.5t151 63.5q53 0 119 -20t112 -43l-65 -119q-96 35 -135 35q-74 0 -97 -117l-26 -154h231l-24 -131h-232l-158 -911q-14 -81 -21.5 -117t-21.5 -89 t-30.5 -76t-42 -55t-63 -50t-87 -38.5t-119.5 -41.5zM1280 0l190 1075h162l-188 -1075h-164zM1499 1288l37 199h178l-37 -199h-178z" />
<glyph unicode="ffl" horiz-adv-x="1710" d="M-170 -301q149 53 186 105t66 219l162 921h-119l25 131h116l27 150q25 140 79.5 204t155.5 64q66 0 144.5 -25t134.5 -53l-78 -115q-115 46 -176 46q-76 0 -96 -117l-27 -154h232l-25 -131h-231l-158 -911q-11 -64 -17 -93.5t-16 -76t-19.5 -66.5t-24.5 -51.5t-34 -46.5 t-44 -36.5t-59 -35.5t-75 -29.5t-96 -31.5zM453 -301q149 53 186 105t66 219l161 921h-118l24 131h117l26 150q25 141 79 204.5t151 63.5q53 0 119 -20t112 -43l-65 -119q-96 35 -135 35q-74 0 -97 -117l-26 -154h231l-24 -131h-232l-158 -911q-14 -81 -21.5 -117t-21.5 -89 t-30.5 -76t-42 -55t-63 -50t-87 -38.5t-119.5 -41.5zM1288 0l264 1493h164l-264 -1493h-164z" />
<glyph unicode="ffb" horiz-adv-x="2289" d="M-170 -301q149 53 186 105t66 219l162 921h-119l25 131h116l27 150q25 140 79.5 204t155.5 64q66 0 144.5 -25t134.5 -53l-78 -115q-115 46 -176 46q-76 0 -96 -117l-27 -154h232l-25 -131h-231l-158 -911q-11 -64 -17 -93.5t-16 -76t-19.5 -66.5t-24.5 -51.5t-34 -46.5 t-44 -36.5t-59 -35.5t-75 -29.5t-96 -31.5zM453 -301q149 53 186 105t66 219l161 921h-118l24 131h117l26 150q25 141 79 204.5t151 63.5q53 0 119 -20t112 -43l-65 -119q-96 35 -135 35q-74 0 -97 -117l-26 -154h231l-24 -131h-232l-158 -911q-14 -81 -21.5 -117t-21.5 -89 t-30.5 -76t-42 -55t-63 -50t-87 -38.5t-119.5 -41.5zM1280 0l264 1493h162l-98 -555q173 160 315 160q119 0 195.5 -88.5t76.5 -266.5q0 -202 -51.5 -375.5t-151 -282t-227.5 -108.5q-49 0 -94 14.5t-83.5 43t-63.5 52t-56 58.5l-24 -145h-164zM1495 289q113 -170 242 -170 q86 0 154.5 94t102.5 230t34 278q0 110 -40 172.5t-120 62.5q-71 0 -140 -45t-147 -125z" />
<glyph unicode="ffh" horiz-adv-x="2289" d="M-170 -301q149 53 186 105t66 219l162 921h-119l25 131h116l27 150q25 140 79.5 204t155.5 64q66 0 144.5 -25t134.5 -53l-78 -115q-115 46 -176 46q-76 0 -96 -117l-27 -154h232l-25 -131h-231l-158 -911q-11 -64 -17 -93.5t-16 -76t-19.5 -66.5t-24.5 -51.5t-34 -46.5 t-44 -36.5t-59 -35.5t-75 -29.5t-96 -31.5zM453 -301q149 53 186 105t66 219l161 921h-118l24 131h117l26 150q25 141 79 204.5t151 63.5q53 0 119 -20t112 -43l-65 -119q-96 35 -135 35q-74 0 -97 -117l-26 -154h231l-24 -131h-232l-158 -911q-14 -81 -21.5 -117t-21.5 -89 t-30.5 -76t-42 -55t-63 -50t-87 -38.5t-119.5 -41.5zM1280 0l264 1493h162l-98 -563q204 168 372 168q127 0 178.5 -87t24.5 -237l-135 -774h-166l133 750q9 59 8 105t-28 74.5t-80 28.5q-78 0 -172 -55t-162 -119l-137 -784h-164z" />
<glyph unicode="fb" horiz-adv-x="1667" d="M-170 -301q149 53 186 105t66 219l162 921h-119l25 131h116l27 150q25 141 78.5 204.5t150.5 63.5q54 0 120 -20t112 -43l-66 -119q-96 35 -135 35q-73 0 -96 -117l-27 -154h232l-25 -131h-231l-158 -911q-14 -81 -21.5 -117t-21.5 -89t-30.5 -76t-42 -55t-63 -50 t-87 -38.5t-119.5 -41.5zM655 0l265 1493h161l-98 -555q173 160 315 160q119 0 196 -89t77 -266q0 -202 -51.5 -375.5t-151 -282t-227.5 -108.5q-49 0 -94 14.5t-83.5 43t-63.5 52t-56 58.5l-25 -145h-164zM870 289q113 -170 242 -170q86 0 154.5 94t102.5 230t34 278 q0 110 -40 172.5t-120 62.5q-71 0 -140 -45t-147 -125z" />
<glyph unicode="ffj" horiz-adv-x="1701" d="M-170 -301q149 53 186 105t66 219l162 921h-119l25 131h116l27 150q25 140 79.5 204t155.5 64q66 0 144.5 -25t134.5 -53l-78 -115q-115 46 -176 46q-76 0 -96 -117l-27 -154h232l-25 -131h-231l-158 -911q-11 -64 -17 -93.5t-16 -76t-19.5 -66.5t-24.5 -51.5t-34 -46.5 t-44 -36.5t-59 -35.5t-75 -29.5t-96 -31.5zM453 -301q149 53 186 105t66 219l161 921h-118l24 131h117l26 150q25 141 79 204.5t151 63.5q53 0 119 -20t112 -43l-65 -119q-96 35 -135 35q-74 0 -97 -117l-26 -154h231l-24 -131h-232l-158 -911q-14 -81 -21.5 -117t-21.5 -89 t-30.5 -76t-42 -55t-63 -50t-87 -38.5t-119.5 -41.5zM1030 -301q53 19 88 34t61 33.5t40 32.5t25 40.5t15.5 47t12.5 62.5l198 1126h164l-198 -1116q-26 -141 -48 -191q-35 -79 -126 -128q-70 -37 -199 -74zM1501 1288l35 199h178l-35 -199h-178z" />
<glyph unicode="ffk" horiz-adv-x="2158" d="M-170 -301q149 53 186 105t66 219l162 921h-119l25 131h116l27 150q25 140 79.5 204t155.5 64q66 0 144.5 -25t134.5 -53l-78 -115q-115 46 -176 46q-76 0 -96 -117l-27 -154h232l-25 -131h-231l-158 -911q-11 -64 -17 -93.5t-16 -76t-19.5 -66.5t-24.5 -51.5t-34 -46.5 t-44 -36.5t-59 -35.5t-75 -29.5t-96 -31.5zM453 -301q149 53 186 105t66 219l161 921h-118l24 131h117l26 150q25 141 79 204.5t151 63.5q53 0 119 -20t112 -43l-65 -119q-96 35 -135 35q-74 0 -97 -117l-26 -154h231l-24 -131h-232l-158 -911q-14 -81 -21.5 -117t-21.5 -89 t-30.5 -76t-42 -55t-63 -50t-87 -38.5t-119.5 -41.5zM1280 0l264 1493h162l-168 -950l430 532h199l-383 -440l244 -635h-168l-187 508l-176 -203l-53 -305h-164z" />
<glyph unicode="fft" horiz-adv-x="1908" d="M-170 -301q149 53 186 105t66 219l162 921h-119l25 131h116l27 150q25 140 79.5 204t155.5 64q66 0 144.5 -25t134.5 -53l-78 -115q-115 46 -176 46q-76 0 -96 -117l-27 -154h232l-25 -131h-231l-158 -911q-11 -64 -17 -93.5t-16 -76t-19.5 -66.5t-24.5 -51.5t-34 -46.5 t-44 -36.5t-59 -35.5t-75 -29.5t-96 -31.5zM453 -301q149 53 186 105t66 219l161 921h-118l24 131h117l26 150q25 140 80 204t156 64q66 0 144.5 -25t134.5 -53l-78 -115q-115 46 -176 46q-77 0 -97 -117l-26 -154h231l-24 -131h-232l-158 -911q-11 -64 -17 -93.5t-16 -76 t-19.5 -66.5t-24.5 -51.5t-34 -46.5t-44 -36.5t-59 -35.5t-75 -29.5t-96 -31.5zM1364 262l121 682h-121l22 131h123l47 268l170 43l-55 -311h240l-25 -131h-239l-123 -702q-20 -115 57 -115q13 0 30 3.5t39 11t34 12t36.5 15t26.5 11.5l41 -133q-164 -70 -258 -70 q-96 0 -144 68t-22 217z" />
<glyph unicode="fh" horiz-adv-x="1667" d="M-170 -301q149 53 186 105t66 219l162 921h-119l25 131h116l27 150q25 141 78.5 204.5t150.5 63.5q54 0 120 -20t112 -43l-66 -119q-96 35 -135 35q-73 0 -96 -117l-27 -154h232l-25 -131h-231l-158 -911q-14 -81 -21.5 -117t-21.5 -89t-30.5 -76t-42 -55t-63 -50 t-87 -38.5t-119.5 -41.5zM655 0l265 1493h161l-98 -563q204 168 373 168q127 0 178.5 -87t24.5 -237l-136 -774h-166l134 750q17 97 -3.5 152.5t-97.5 55.5q-78 0 -172 -55t-162 -119l-137 -784h-164z" />
<glyph unicode="fj" horiz-adv-x="1079" d="M-170 -301q149 53 186 105t66 219l162 921h-119l25 131h116l27 150q25 141 78.5 204.5t150.5 63.5q54 0 120 -20t112 -43l-66 -119q-96 35 -135 35q-73 0 -96 -117l-27 -154h232l-25 -131h-231l-158 -911q-14 -81 -21.5 -117t-21.5 -89t-30.5 -76t-42 -55t-63 -50 t-87 -38.5t-119.5 -41.5zM406 -301q63 23 102.5 42.5t64 36.5t39 45.5t20.5 52t15 73.5l199 1126h164l-199 -1116q-26 -141 -48 -191q-35 -79 -126 -128q-70 -37 -199 -74zM877 1288l34 199h179l-35 -199h-178z" />
<glyph unicode="fk" horiz-adv-x="1533" d="M-170 -301q149 53 186 105t66 219l162 921h-119l25 131h116l27 150q25 141 78.5 204.5t150.5 63.5q54 0 120 -20t112 -43l-66 -119q-96 35 -135 35q-73 0 -96 -117l-27 -154h232l-25 -131h-231l-158 -911q-14 -81 -21.5 -117t-21.5 -89t-30.5 -76t-42 -55t-63 -50 t-87 -38.5t-119.5 -41.5zM655 0l265 1493h161l-168 -950l430 532h199l-383 -440l244 -635h-168l-186 508l-177 -203l-53 -305h-164z" />
<glyph unicode="ft" horiz-adv-x="1286" d="M-170 -301q149 53 186 105t66 219l162 921h-119l25 131h116l27 150q25 140 79.5 204t155.5 64q66 0 144.5 -25t134.5 -53l-78 -115q-115 46 -176 46q-76 0 -96 -117l-27 -154h232l-25 -131h-231l-158 -911q-11 -64 -17 -93.5t-16 -76t-19.5 -66.5t-24.5 -51.5t-34 -46.5 t-44 -36.5t-59 -35.5t-75 -29.5t-96 -31.5zM741 262l121 682h-121l23 131h123l47 268l170 43l-55 -311h239l-24 -131h-240l-123 -702q-20 -115 57 -115q13 0 30 3.5t39 11t34 12t36.5 15t26.5 11.5l41 -133q-165 -70 -258 -70q-96 0 -144 68t-22 217z" />
<glyph unicode=" "  horiz-adv-x="448" />
<glyph unicode="&#x09;" horiz-adv-x="448" />
<glyph unicode="&#xa0;" horiz-adv-x="448" />
<glyph unicode="!" horiz-adv-x="507" d="M55 0l41 238h183l-41 -238h-183zM170 428l127 1006h199l-226 -1006h-100z" />
<glyph unicode="&#x22;" horiz-adv-x="729" d="M197 903l65 531h168l-125 -531h-108zM520 903l66 531h168l-125 -531h-109z" />
<glyph unicode="#" horiz-adv-x="1265" d="M45 367l25 135h233l129 428h-217l25 135h233l111 369h133l-111 -369h299l111 369h133l-111 -369h219l-24 -135h-236l-129 -428h219l-24 -135h-236l-110 -367h-133l110 367h-299l-110 -367h-133l110 367h-217zM436 502h299l129 428h-299z" />
<glyph unicode="$" horiz-adv-x="1079" d="M16 152l101 127q149 -110 278 -140l94 535l-4 4q-55 33 -91.5 57.5t-77.5 61t-64.5 72.5t-39 86t-15.5 108q0 175 121.5 284t310.5 109l33 184h122l-34 -196q158 -32 313 -127l-98 -125q-115 73 -242 100l-88 -493q72 -42 118 -75.5t94.5 -83.5t72.5 -113t24 -140 q0 -122 -62 -217t-165 -144t-228 -49l-30 -182h-125l35 195q-188 35 -353 162zM377 1071q0 -69 35 -115t112 -92l78 439q-95 -8 -160 -69t-65 -163zM516 131q107 8 178.5 73.5t71.5 170.5q0 77 -41.5 129.5t-122.5 105.5z" />
<glyph unicode="%" horiz-adv-x="1687" d="M154 987q0 84 22 165.5t63 150t109 111t152 42.5q128 0 207 -75.5t79 -223.5q0 -84 -22 -165.5t-63 -150t-109 -111t-152 -42.5q-128 0 -207 75.5t-79 223.5zM287 983q0 -184 157 -184q51 0 93 37t66 94t37 117t13 114q0 185 -155 185q-52 0 -94.5 -37t-66.5 -93.5 t-37 -117t-13 -115.5zM360 0l863 1434h137l-860 -1434h-140zM938 276q0 84 22 165.5t63 150t109 111t152 42.5q128 0 207.5 -76t79.5 -223q0 -84 -22 -165.5t-63 -150t-109 -111t-152 -42.5q-128 0 -207.5 76t-79.5 223zM1071 272q0 -184 158 -184q51 0 93 37t66 94 t37 117.5t13 114.5q0 184 -156 184q-52 0 -94.5 -37t-66.5 -93.5t-37 -117t-13 -115.5z" />
<glyph unicode="&#x26;" horiz-adv-x="1202" d="M80 301q0 65 18.5 125.5t47 107t74 94.5t86 81.5t97.5 74.5q-48 84 -72 155.5t-24 154.5q0 88 28.5 159t76 114t106.5 66t123 23q119 0 195.5 -69.5t76.5 -192.5q0 -67 -24.5 -128.5t-74 -117.5t-96 -96.5t-118.5 -95.5l219 -342q99 158 150 342h168q-76 -273 -230 -480 l180 -276h-184l-100 156q-184 -179 -393 -179q-150 0 -240 86t-90 238zM244 311q0 -37 9.5 -70t29 -62t56.5 -46.5t87 -17.5q151 0 297 166l-244 383q-73 -58 -120 -106t-81 -113.5t-34 -133.5zM459 1096q0 -113 65 -226q116 83 177 155.5t61 160.5q0 62 -32 99.5t-95 37.5 q-84 0 -130 -64t-46 -163z" />
<glyph unicode="'" horiz-adv-x="407" d="M197 903l65 531h168l-125 -531h-108z" />
<glyph unicode="(" horiz-adv-x="563" d="M44 -81q-3 69 17 171l222 1249q8 47 14 74t16 61.5t22 55t31.5 45.5t44 41.5t60 35.5t80.5 34.5t104 31.5l29 -119q-71 -26 -111 -47t-65 -51t-35 -60.5t-20 -88.5l-228 -1282q-6 -36 -9 -55.5t-4.5 -43t0.5 -35.5t8.5 -27.5t16 -24t27.5 -21t38.5 -22t51.5 -23.5 l-53 -111q-137 43 -195.5 93t-61.5 119z" />
<glyph unicode=")" horiz-adv-x="561" d="M-88 -174q71 26 111 47t65 51.5t34.5 61t20.5 88.5l228 1282q6 36 9 55.5t4.5 43t-0.5 35.5t-8.5 27.5t-16 24t-27.5 21t-38.5 22t-51.5 23.5l53 110q137 -43 195.5 -93t61.5 -119t-17 -171l-222 -1249q-8 -47 -14 -74t-16 -61.5t-22 -55t-31.5 -45.5t-44 -41.5 t-60 -35.5t-80.5 -34.5t-104 -31.5z" />
<glyph unicode="*" horiz-adv-x="919" d="M174 1016l301 65l-258 166l92 113l205 -232l12 308l144 -27l-92 -291l268 148l47 -142l-293 -65l254 -166l-94 -111l-201 226l-14 -303l-144 24l95 293l-271 -145z" />
<glyph unicode="+" horiz-adv-x="1067" d="M115 614l24 136h350l66 368h133l-65 -368h354l-23 -136h-356l-63 -366h-136l66 366h-350z" />
<glyph unicode="," horiz-adv-x="454" d="M-16 -211l127 211h-80l43 248h178l-27 -262l-200 -258z" />
<glyph unicode="-" horiz-adv-x="759" d="M117 510l26 145h486l-25 -145h-487z" />
<glyph unicode="." horiz-adv-x="450" d="M29 0l45 248h180l-43 -248h-182z" />
<glyph unicode="/" horiz-adv-x="792" d="M-86 -184l866 1802h138l-869 -1802h-135z" />
<glyph unicode="0" horiz-adv-x="1159" d="M121 440q0 61 8 139.5t28 177t49 194.5t76 188t104.5 162t138 112.5t173.5 42.5q377 0 377 -465q0 -61 -8 -139.5t-28 -177t-49 -194t-76 -187.5t-104.5 -161.5t-138 -112t-173.5 -42.5q-377 0 -377 463zM289 430q0 -67 8 -116.5t28.5 -96t63.5 -71.5t107 -25 q87 0 160.5 75t118 183.5t76 236t44 227t12.5 161.5q0 67 -8 116.5t-28.5 96t-63.5 71.5t-107 25q-87 0 -160.5 -75t-118 -183.5t-76 -236t-44 -227t-12.5 -161.5z" />
<glyph unicode="1" horiz-adv-x="667" d="M150 1243l323 191h158l-254 -1434h-170l221 1245l-217 -127z" />
<glyph unicode="2" horiz-adv-x="1013" d="M-12 0l20 113q12 73 34.5 136.5t57 116.5t69 94.5t86 86t91 74.5t101.5 75q7 5 11 7.5t10 7t11 8.5q65 47 107 79.5t90.5 77t76 81.5t46 82.5t18.5 90.5q2 77 -47 126t-139 49q-145 0 -320 -119l-65 125q193 145 405 145q157 0 248.5 -83.5t91.5 -227.5q0 -77 -30 -151 t-65 -125t-109 -117t-113 -94.5t-127 -90.5q-30 -22 -45 -32q-134 -96 -200.5 -179.5t-88.5 -203.5h608l-26 -152h-807z" />
<glyph unicode="3" horiz-adv-x="1032" d="M-10 133l96 117q42 -28 62 -40.5t65.5 -36t91 -34t94.5 -10.5q137 0 226.5 88t89.5 219q0 90 -47.5 152.5t-118 89.5t-154.5 27h-45l29 153h53q81 0 161.5 37.5t135.5 106.5t55 147q0 71 -47 113.5t-131 42.5q-136 0 -301 -109l-57 123q24 17 56 36t85 44t120.5 41 t133.5 16q150 0 232.5 -79t82.5 -201q0 -118 -77.5 -225t-225.5 -167q100 -30 166 -124.5t66 -223.5q0 -87 -30.5 -168t-88.5 -146.5t-152 -105t-210 -39.5q-231 0 -416 156z" />
<glyph unicode="4" horiz-adv-x="1091" d="M12 317l25 132l725 985h223l-172 -967h178l-26 -150h-179l-55 -317h-168l55 317h-606zM211 467h434l139 778z" />
<glyph unicode="5" horiz-adv-x="1019" d="M8 139l98 119q143 -127 281 -127q59 0 117.5 25.5t106 71.5t77 118.5t29.5 159.5q0 115 -55.5 185.5t-159.5 70.5q-108 0 -250 -92l-90 55l188 709h660l-27 -152h-518l-96 -410q90 39 184 39q159 0 248.5 -111.5t89.5 -285.5q0 -107 -35 -204t-97.5 -171t-156.5 -118 t-205 -44q-69 0 -132 15.5t-113.5 44.5t-79.5 50t-64 52z" />
<glyph unicode="6" horiz-adv-x="1085" d="M102 459q0 156 38 306t109 273.5t164.5 218t212 147t244.5 52.5q50 0 97 -8t69 -16l21 -9l-70 -133q-49 17 -115 17q-123 0 -235.5 -72.5t-194 -194t-125.5 -274.5q49 60 128 106t184 46q107 0 185 -57t114.5 -143.5t36.5 -189.5q0 -82 -20 -161.5t-60 -150t-95 -124 t-130.5 -84.5t-161.5 -31q-98 0 -175.5 41t-124.5 110t-71.5 153.5t-24.5 177.5zM272 457q0 -87 23.5 -160t76 -121.5t126.5 -48.5q88 0 157 57.5t103.5 147t34.5 190.5q0 65 -20.5 120.5t-69.5 94.5t-119 39q-98 0 -185.5 -70.5t-122.5 -146.5q-4 -66 -4 -102z" />
<glyph unicode="7" horiz-adv-x="874" d="M113 0q30 170 103.5 361.5t148 331.5t168 286.5t134 201.5t76.5 101h-571l27 152h772l-25 -134q-11 -14 -30.5 -38.5t-78 -104.5t-113 -163t-125.5 -206.5t-127 -243.5t-106 -265t-73 -279h-180z" />
<glyph unicode="8" horiz-adv-x="1103" d="M57 319q0 290 375 459q-168 115 -168 299q0 167 119 273t301 106q160 0 250 -85.5t90 -217.5q0 -240 -301 -387q235 -137 235 -360q0 -126 -67.5 -224.5t-182.5 -151.5t-255 -53q-182 0 -289 90t-107 252zM231 332q0 -103 62.5 -157t165.5 -54q133 0 229 80.5t96 208.5 q0 52 -18 97t-51.5 80.5t-66.5 60t-77 50.5q-58 -26 -100.5 -48.5t-90.5 -57t-78.5 -70.5t-50.5 -85t-20 -105zM426 1069q0 -43 14 -80t39.5 -64.5t49.5 -46t55 -36.5q274 116 274 297q0 77 -48.5 127.5t-133.5 50.5q-104 0 -177 -74t-73 -174z" />
<glyph unicode="9" horiz-adv-x="1085" d="M63 10l70 133q49 -16 115 -16q184 0 335.5 153.5t219.5 389.5q-50 -60 -128.5 -107t-182.5 -47q-106 0 -184 56.5t-115 143.5t-37 189q0 103 32 201t90.5 176.5t149 126t197.5 47.5q78 0 143.5 -27t111 -72.5t77 -107.5t46.5 -131t15 -143q0 -156 -38 -306t-109 -274 t-164.5 -218.5t-212 -147t-244.5 -52.5q-50 0 -97 8t-69 17zM328 911q0 -65 20.5 -120.5t69.5 -94.5t119 -39q98 0 184 69.5t121 145.5q6 52 6 105q0 88 -23.5 160.5t-75.5 121t-126 48.5q-88 0 -157 -58t-103.5 -147.5t-34.5 -190.5z" />
<glyph unicode=":" horiz-adv-x="462" d="M31 0l45 248h180l-43 -248h-182zM154 698l45 248h180l-43 -248h-182z" />
<glyph unicode=";" horiz-adv-x="481" d="M-6 -211l127 211h-80l43 248h178l-26 -262l-201 -258zM162 698l45 248h180l-43 -248h-182z" />
<glyph unicode="&#x3c;" horiz-adv-x="1067" d="M90 618l23 130l913 430l-31 -177l-731 -327l615 -326l-27 -158z" />
<glyph unicode="=" horiz-adv-x="1067" d="M80 432l24 135h838l-24 -135h-838zM145 801l25 135h838l-25 -135h-838z" />
<glyph unicode="&#x3e;" horiz-adv-x="1067" d="M63 190l31 177l731 327l-614 326l27 158l761 -428l-22 -129z" />
<glyph unicode="?" horiz-adv-x="880" d="M164 0l41 238h182l-41 -238h-182zM182 1317q200 139 387 139q139 0 230.5 -76t91.5 -217q0 -73 -27 -139t-70.5 -114t-103.5 -89t-119.5 -67.5t-124.5 -46.5l-61 -279h-111l52 377q391 113 391 338q0 79 -48 120.5t-126 41.5q-119 0 -293 -111z" />
<glyph unicode="@" horiz-adv-x="1667" d="M76 342q0 158 39 312t117 289t184.5 238.5t251 163.5t307.5 60q112 0 204.5 -29t158.5 -82t114 -128t70.5 -167t29 -198.5t-11.5 -222.5q-15 -93 -36.5 -176.5t-57 -167t-80.5 -144t-109.5 -98t-140.5 -37.5q-49 0 -84.5 16t-53 41.5t-29 58t-11 64.5t1.5 62 q-148 -148 -295 -148q-90 0 -150.5 66.5t-60.5 181.5q0 165 90.5 262.5t220.5 97.5q33 0 75.5 -7t71 -14t69 -18.5t49.5 -13.5l20 115q20 104 -4 152.5t-111 48.5q-97 0 -280 -84l-39 108q195 90 344 90q132 0 189.5 -75.5t29.5 -233.5l-72 -416q-23 -131 -15 -181 q13 -73 79 -73q85 0 175.5 139.5t123.5 383.5q12 84 13.5 162.5t-10 152.5t-35.5 137.5t-64 116.5t-94 90t-128 57.5t-163 20.5q-145 0 -273.5 -54.5t-224 -148.5t-165 -217.5t-105 -265t-35.5 -287.5q0 -102 19 -194t59 -170.5t97 -135.5t136.5 -89t173.5 -32 q86 0 167.5 24.5t119.5 48.5l39 24l43 -76q-6 -4 -17.5 -11.5t-49 -26.5t-78 -33t-102.5 -26t-124 -12q-136 0 -245.5 55.5t-180.5 152.5t-109 225t-38 276zM569 307q0 -72 34 -108.5t91 -36.5q112 0 267 151q32 196 34 207q-11 2 -54.5 14t-82.5 19.5t-72 7.5 q-58 0 -102 -23.5t-68 -62.5t-35.5 -81t-11.5 -87z" />
<glyph unicode="A" horiz-adv-x="1173" d="M-57 0l698 1434h186l193 -1434h-176l-37 350h-512l-160 -350h-192zM360 496h431l-80 766z" />
<glyph unicode="B" horiz-adv-x="1171" d="M63 0l254 1434h398q182 0 279.5 -82t97.5 -222q0 -83 -29.5 -153t-75 -113.5t-92.5 -70t-90 -33.5q36 -8 72 -26.5t73.5 -53t60.5 -93.5t23 -134q0 -212 -126 -332.5t-351 -120.5h-494zM258 143h287q153 0 238 91.5t85 230.5q0 106 -68 162.5t-188 56.5h-258zM379 821 h242q50 0 101 17.5t96 51t73.5 89.5t28.5 125q0 86 -57 136t-175 50h-227z" />
<glyph unicode="C" horiz-adv-x="1112" d="M117 520q0 199 47 374t127 297.5t191.5 193.5t236.5 71q66 0 126.5 -17.5t120.5 -56t93.5 -65t93.5 -78.5l-100 -119q-95 89 -171 132.5t-153 43.5q-119 0 -219.5 -104t-158.5 -281.5t-58 -386.5q0 -196 58.5 -291.5t160.5 -95.5q143 0 383 176l76 -135 q-147 -95 -262.5 -148t-229.5 -53q-167 0 -264.5 135t-97.5 408z" />
<glyph unicode="D" horiz-adv-x="1224" d="M63 0l254 1434h281q263 0 404 -135.5t141 -393.5q0 -145 -28.5 -277.5t-89 -247t-147 -199t-209.5 -133t-270 -48.5h-336zM260 154h131q262 0 421 205t159 540q0 201 -100.5 291t-290.5 90h-119z" />
<glyph unicode="E" horiz-adv-x="1038" d="M63 0l254 1434h756l-26 -154h-586l-86 -487h483l-27 -152h-483l-88 -487h600l-29 -154h-768z" />
<glyph unicode="F" horiz-adv-x="993" d="M63 0l254 1434h756l-26 -154h-586l-86 -487h467l-27 -152h-467l-115 -641h-170z" />
<glyph unicode="G" horiz-adv-x="1216" d="M119 502q0 217 48 398.5t130.5 302t192 187t231.5 66.5q67 0 133 -20t127 -59t102.5 -71.5t94.5 -80.5l-105 -119q-103 91 -153 123q-103 67 -191 67q-119 0 -219 -102.5t-157.5 -281t-57.5 -392.5q0 -182 55 -285.5t162 -103.5q47 0 102 21.5t106 57t87 65.5t70 63 l53 297h-309l24 147h471l-137 -782h-162l31 172q-208 -195 -381 -195q-157 0 -252.5 133.5t-95.5 391.5z" />
<glyph unicode="H" horiz-adv-x="1234" d="M63 0l254 1434h170l-108 -607h551l108 607h168l-252 -1434h-170l119 676h-551l-119 -676h-170z" />
<glyph unicode="I" horiz-adv-x="516" d="M63 0l254 1434h170l-254 -1434h-170z" />
<glyph unicode="J" horiz-adv-x="514" d="M-160 -162q45 16 76.5 30t55.5 27t40 29t26.5 29.5t18 37t11.5 42t10 53.5l239 1348h168l-235 -1342q-26 -140 -46 -187q-34 -79 -122 -128q-70 -39 -205 -78z" />
<glyph unicode="K" horiz-adv-x="1136" d="M63 0l254 1434h170l-133 -752l639 752h219l-598 -678l390 -756h-191l-315 625l-193 -222l-72 -403h-170z" />
<glyph unicode="L" horiz-adv-x="950" d="M63 0l254 1434h170l-227 -1282h571l-26 -152h-742z" />
<glyph unicode="M" horiz-adv-x="1449" d="M63 0l254 1434h179l198 -971l549 971h178l-254 -1434h-168l191 1092l-481 -852h-97l-180 886l-199 -1126h-170z" />
<glyph unicode="N" horiz-adv-x="1261" d="M63 0l254 1434h175l368 -1153l205 1153h170l-254 -1434h-172l-373 1161l-203 -1161h-170z" />
<glyph unicode="O" horiz-adv-x="1294" d="M117 504q0 68 10 148t33 172.5t56.5 181t85 170.5t114.5 144t148.5 99t183.5 37q226 0 345 -132t119 -392q0 -68 -10 -148.5t-33 -173.5t-56.5 -181.5t-85.5 -171t-114.5 -144.5t-148.5 -99t-184 -37q-225 0 -344 133.5t-119 393.5zM289 504q0 -373 295 -373 q98 0 179.5 65.5t130.5 161t83 210t47.5 206t13.5 156.5q0 373 -293 373q-99 0 -180.5 -65.5t-131 -161t-83.5 -210t-47.5 -206t-13.5 -156.5z" />
<glyph unicode="P" horiz-adv-x="1132" d="M63 0l254 1434h388q200 0 308.5 -88t108.5 -267q0 -247 -149.5 -384.5t-403.5 -137.5h-237l-99 -557h-170zM358 707h213q165 0 271 93t106 267q0 112 -67.5 163.5t-182.5 51.5h-237z" />
<glyph unicode="Q" horiz-adv-x="1294" d="M117 504q0 68 10 148t33 172.5t56.5 181t85 170.5t114.5 144t148.5 99t183.5 37q226 0 345 -132t119 -392q0 -86 -15.5 -188t-52 -220t-89.5 -219.5t-137.5 -184.5t-186.5 -118l172 -207l-133 -106l-205 288q-219 5 -333.5 137.5t-114.5 389.5zM289 504q0 -373 295 -373 q98 0 179.5 65.5t130.5 161t83 210t47.5 206t13.5 156.5q0 373 -293 373q-99 0 -180.5 -65.5t-131 -161t-83.5 -210t-47.5 -206t-13.5 -156.5z" />
<glyph unicode="R" horiz-adv-x="1189" d="M63 0l254 1434h433q200 0 307.5 -83t107.5 -251q0 -190 -108 -317.5t-293 -161.5l213 -621h-176l-197 608h-262l-109 -608h-170zM367 754h256q171 0 268.5 87.5t97.5 243.5q0 105 -68.5 154t-185.5 49h-274z" />
<glyph unicode="S" horiz-adv-x="1067" d="M10 152l101 127q207 -150 372 -150q117 0 197 67t80 179q0 42 -14 78t-36 63.5t-57 54t-70 48t-82 47.5q-15 8 -22 12q-56 33 -92 57.5t-77 61t-64.5 72.5t-39.5 86t-16 108q0 175 122 284t311 109q115 0 228.5 -40.5t205.5 -98.5l-99 -125q-74 47 -166.5 80t-168.5 33 q-104 0 -178 -62t-74 -172q0 -45 14.5 -79.5t47.5 -64t69.5 -53t97.5 -58.5q6 -3 9.5 -5t8.5 -5t9 -5q57 -34 95 -59t82.5 -64.5t71 -78.5t44.5 -94t18 -118q0 -122 -62 -217t-165 -144t-228 -49q-133 0 -256 51.5t-217 123.5z" />
<glyph unicode="T" horiz-adv-x="972" d="M158 1280l28 154h891l-28 -154h-361l-225 -1280h-170l225 1280h-360z" />
<glyph unicode="U" horiz-adv-x="1218" d="M124 330q2 78 15 166l166 938h170l-168 -955q-11 -61 -14 -109q-1 -12 -1 -24q0 -36 7 -70q9 -46 32.5 -77t69 -49.5t111.5 -18.5q82 0 145 26.5t103.5 76t64.5 109t37 136.5l170 955h170l-170 -959q-20 -110 -55.5 -195.5t-95.5 -156t-155 -108.5t-220 -38 q-105 0 -180.5 26t-118 72.5t-64.5 111.5q-20 58 -20 127q1 8 1 16z" />
<glyph unicode="V" horiz-adv-x="1169" d="M186 1434h183l131 -1237l565 1237h199l-699 -1434h-186z" />
<glyph unicode="W" horiz-adv-x="1603" d="M203 1434h184l23 -1178l454 1178h152l35 -1178l436 1178h194l-573 -1434h-176l-39 1155l-444 -1155h-177z" />
<glyph unicode="X" horiz-adv-x="1075" d="M-66 0l525 717l-252 717h186l176 -594l385 594h205l-506 -717l275 -717h-189l-194 586l-398 -586h-213z" />
<glyph unicode="Y" horiz-adv-x="1083" d="M174 1434h178l197 -713l442 713h199l-576 -863l-100 -571h-168l98 567z" />
<glyph unicode="Z" horiz-adv-x="1058" d="M-33 0l25 139l868 1141h-631l27 154h850l-25 -138l-868 -1142h678l-27 -154h-897z" />
<glyph unicode="[" horiz-adv-x="614" d="M2 -295l356 2013h387l-20 -119h-217l-313 -1775h217l-23 -119h-387z" />
<glyph unicode="\" horiz-adv-x="763" d="M217 1618h125l238 -1802h-125z" />
<glyph unicode="]" horiz-adv-x="614" d="M-96 -295l20 119h217l314 1775h-217l22 119h387l-356 -2013h-387z" />
<glyph unicode="^" horiz-adv-x="1067" d="M156 711l442 723h168l188 -723h-166l-122 571l-322 -571h-188z" />
<glyph unicode="_" horiz-adv-x="1208" d="M-27 -299l23 129h940l-23 -129h-940z" />
<glyph unicode="`" horiz-adv-x="380" d="M254 1493h199l163 -266h-129z" />
<glyph unicode="a" horiz-adv-x="1050" d="M74 330q0 205 53.5 379.5t155.5 281.5t231 107q62 0 121 -30t93.5 -63.5t72.5 -80.5l26 151h164l-190 -1075h-164l29 166q-180 -189 -342 -189q-109 0 -179.5 88.5t-70.5 264.5zM242 354q0 -110 35 -172.5t102 -62.5q81 0 156 53t159 147l82 463q-109 174 -233 174 q-89 0 -160 -94.5t-106 -230.5t-35 -277z" />
<glyph unicode="b" horiz-adv-x="1044" d="M33 0l264 1493h162l-99 -555q173 160 316 160q119 0 195.5 -88.5t76.5 -266.5q0 -202 -51.5 -375.5t-151 -282t-227.5 -108.5q-49 0 -94 14.5t-83.5 43t-63.5 52t-56 58.5l-24 -145h-164zM248 289q113 -170 241 -170q86 0 154.5 94t102.5 230t34 278q0 111 -39.5 173 t-119.5 62q-71 0 -140 -45t-147 -125z" />
<glyph unicode="c" horiz-adv-x="890" d="M72 397q0 163 41.5 299.5t108.5 222t149 132.5t166 47q39 0 79 -9t67 -18.5t65.5 -32t52 -31.5t49.5 -35.5t37 -27.5l-88 -115q-4 3 -25 20t-34 26.5t-38 25.5t-45 25.5t-46 16.5t-50 7q-127 0 -225 -157t-98 -381q0 -135 45.5 -211t132.5 -76q27 0 58.5 8.5t64.5 25 t56.5 29.5t54.5 32.5t38 23.5l62 -131q-2 -1 -28 -16t-35 -19.5t-36 -19t-42 -21t-41.5 -18t-46.5 -17.5t-45 -12.5t-48.5 -9.5t-46.5 -3q-138 0 -223.5 111.5t-85.5 308.5z" />
<glyph unicode="d" horiz-adv-x="1050" d="M74 330q0 205 53.5 379.5t155.5 281.5t231 107q62 0 121 -30t93.5 -63.5t72.5 -80.5l100 569h164l-264 -1493h-164l29 166q-180 -189 -342 -189q-109 0 -179.5 88.5t-70.5 264.5zM242 354q0 -110 35 -172.5t102 -62.5q81 0 156 53t159 147l82 463q-109 174 -233 174 q-89 0 -160 -94.5t-106 -230.5t-35 -277z" />
<glyph unicode="e" horiz-adv-x="962" d="M72 416q0 195 64 349.5t184 243.5t276 89q140 0 220.5 -73.5t80.5 -193.5q0 -180 -148 -275t-419 -95h-92v-47q0 -145 47 -223t139 -78q33 0 68.5 8.5t77 28.5t63.5 31.5t67.5 39.5t51.5 31l59 -119q-246 -156 -416 -156q-151 0 -237 111t-86 328zM250 571h92 q194 0 295.5 71t101.5 183q0 67 -43.5 104.5t-111.5 37.5q-120 0 -211 -111.5t-123 -284.5z" />
<glyph unicode="f" horiz-adv-x="622" d="M-170 -301q149 53 186 105t66 219l162 921h-119l25 131h116l27 150q25 140 79.5 204t155.5 64q66 0 144.5 -25t134.5 -53l-78 -115q-115 46 -176 46q-76 0 -96 -117l-27 -154h232l-25 -131h-231l-158 -911q-11 -64 -17 -93.5t-16 -76t-19.5 -66.5t-24.5 -51.5t-34 -46.5 t-44 -36.5t-59 -35.5t-75 -29.5t-96 -31.5z" />
<glyph unicode="g" horiz-adv-x="1050" d="M-27 -360l60 139q199 -78 340 -78q51 0 92.5 14.5t68.5 37.5t46.5 55.5t29.5 63t15 65.5l41 227q-178 -187 -342 -187q-109 0 -179.5 88.5t-70.5 264.5q0 205 53.5 379.5t155.5 281.5t231 107q62 0 121 -30t93.5 -63.5t72.5 -80.5l26 151h162l-201 -1138 q-19 -109 -55.5 -183.5t-90 -115.5t-116 -58.5t-143.5 -17.5q-193 0 -410 78zM242 354q0 -110 35 -172.5t104 -62.5q80 0 153.5 52.5t157.5 147.5l84 465q-49 76 -109.5 124t-123.5 48q-89 0 -160 -94.5t-106 -230.5t-35 -277z" />
<glyph unicode="h" d="M33 0l264 1493h162l-99 -563q204 168 373 168q127 0 179 -87q34 -57 33 -141q0 -44 -9 -96l-135 -774h-166l133 750q8 53 8 96v9q-1 46 -28 74.5t-80 28.5q-78 0 -172 -55t-162 -119l-137 -784h-164z" />
<glyph unicode="i" horiz-adv-x="446" d="M33 0l190 1075h162l-188 -1075h-164zM252 1288l37 199h178l-37 -199h-178z" />
<glyph unicode="j" horiz-adv-x="448" d="M-217 -301q53 19 88 34t61 33.5t40 32.5t25 40.5t15.5 47t12.5 62.5l198 1126h164l-199 -1116q-26 -141 -47 -190q-35 -80 -124 -128q-70 -38 -201 -75zM254 1288l35 199h178l-35 -199h-178z" />
<glyph unicode="k" horiz-adv-x="911" d="M33 0l264 1493h162l-168 -950l430 532h199l-383 -440l243 -635h-168l-186 508l-176 -203l-53 -305h-164z" />
<glyph unicode="l" horiz-adv-x="462" d="M41 0l264 1493h164l-264 -1493h-164z" />
<glyph unicode="m" horiz-adv-x="1560" d="M33 0l190 1075h162l-29 -157q180 180 338 180q98 0 149.5 -55t57.5 -144q189 199 356 199q128 0 175 -88q31 -58 31 -140q0 -44 -9 -94l-135 -776h-164l133 754q8 44 8 79q0 125 -104 125q-130 0 -303 -192l-133 -766h-164l135 754q8 44 8 78q0 126 -106 126 q-70 0 -149.5 -56.5t-147.5 -131.5l-135 -770h-164z" />
<glyph unicode="n" d="M33 0l190 1075h162l-27 -145q213 168 375 168q129 0 179 -88q33 -57 33 -140q0 -45 -9 -98l-135 -772h-164l133 752q7 51 7 93v10q-1 46 -28 74.5t-81 28.5q-78 0 -170 -54.5t-164 -119.5l-137 -784h-164z" />
<glyph unicode="o" horiz-adv-x="1046" d="M72 389q0 82 13.5 165t40 162.5t68 148.5t95 121t124.5 82t152 30q173 0 278 -102.5t105 -309.5q0 -99 -18.5 -198t-58.5 -191.5t-96.5 -163.5t-138.5 -113.5t-179 -42.5q-173 0 -279 102.5t-106 309.5zM236 387q0 -272 221 -272q66 0 122 40.5t92.5 103.5t63 141 t38 151.5t11.5 136.5q0 273 -221 273q-66 0 -122 -40.5t-92.5 -103.5t-63 -141t-38 -152t-11.5 -137z" />
<glyph unicode="p" horiz-adv-x="1044" d="M-41 -418l264 1493h162l-25 -139q171 162 318 162q117 0 193.5 -89t76.5 -266q0 -202 -51.5 -375.5t-151 -282t-227.5 -108.5q-50 0 -95.5 15t-83.5 43t-63.5 53t-54.5 59l-98 -565h-164zM246 289q113 -170 243 -170q66 0 122 55t92 142.5t56.5 193.5t20.5 211 q0 111 -39.5 173t-119.5 62q-73 0 -141 -45t-146 -127z" />
<glyph unicode="q" horiz-adv-x="1050" d="M74 330q0 205 53.5 379.5t155.5 281.5t231 107q62 0 121 -30t93.5 -63.5t72.5 -80.5l26 151h164l-264 -1493h-164l103 584q-180 -189 -342 -189q-109 0 -179.5 88.5t-70.5 264.5zM242 354q0 -110 35 -172.5t102 -62.5q81 0 156 53t159 147l82 463q-109 174 -233 174 q-89 0 -160 -94.5t-106 -230.5t-35 -277z" />
<glyph unicode="r" horiz-adv-x="673" d="M33 0l190 1075h162l-41 -229q57 92 111 142q108 100 233 100q15 0 29 -1l-29 -161q-80 0 -149.5 -36t-112 -87t-73.5 -102t-43 -87l-13 -36l-100 -578h-164z" />
<glyph unicode="s" horiz-adv-x="892" d="M-4 119l88 117q72 -50 154.5 -85.5t152.5 -35.5q81 0 140 46t59 126q0 16 -3 30.5t-7 26.5t-13.5 24t-16.5 20t-22 18.5t-24 16.5t-28.5 16.5t-29.5 15t-33.5 16t-33.5 16.5q-56 27 -93 49.5t-77.5 59t-61 85.5t-20.5 110q0 140 99 223.5t251 83.5q99 0 195 -35.5 t164 -83.5l-84 -113q-150 95 -273 95q-78 0 -132 -42.5t-54 -113.5q0 -16 3.5 -31t8 -27t14 -24t16.5 -20.5t21.5 -18.5t23.5 -16t26.5 -15t26 -13t29 -13.5t27.5 -12.5q65 -32 107.5 -58.5t82.5 -64.5t59.5 -86.5t19.5 -109.5q0 -147 -104 -232.5t-261 -85.5 q-197 0 -397 142z" />
<glyph unicode="t" horiz-adv-x="661" d="M117 262l121 682h-121l22 131h123l47 268l170 43l-55 -311h240l-25 -131h-240l-123 -702q-4 -23 -4 -42q0 -73 62 -73q13 0 30 3.5t39 11t34 12t36.5 15t26.5 11.5l41 -133q-165 -70 -258 -70q-96 0 -144 68q-31 44 -31 122q0 43 9 95z" />
<glyph unicode="u" d="M80 303l135 772h164l-133 -749q-8 -43 -7 -79q0 -43 11 -74q21 -56 98 -56t172 56t162 118l137 784h164l-190 -1075h-162l24 145q-209 -168 -372 -168q-129 -1 -179 87q-33 57 -33 141q0 45 9 98z" />
<glyph unicode="v" horiz-adv-x="958" d="M129 1075h168l96 -889l408 889h184l-539 -1075h-161z" />
<glyph unicode="w" horiz-adv-x="1390" d="M139 1075h170l35 -868l358 868h140l49 -862l338 862h178l-463 -1075h-156l-55 840l-354 -840h-156z" />
<glyph unicode="x" horiz-adv-x="985" d="M-72 0l457 541l-248 534h176l174 -428l326 428h203l-441 -534l269 -541h-180l-187 440l-338 -440h-211z" />
<glyph unicode="y" horiz-adv-x="958" d="M-35 -295q133 53 198.5 106.5t123.5 163.5l-158 1100h168l100 -872l408 872h180l-534 -1075l-38 -76t-34 -64.5t-35.5 -59.5t-36 -49t-42.5 -47t-47.5 -38t-59.5 -37.5t-70 -31t-86 -31.5z" />
<glyph unicode="z" horiz-adv-x="886" d="M-33 0l25 131l665 801h-510l27 143h711l-23 -131l-667 -801h528l-27 -143h-729z" />
<glyph unicode="{" horiz-adv-x="690" d="M68 639l24 145q55 0 96.5 24.5t63.5 65t33 80.5t14 82l12 197q15 239 125.5 362t333.5 123h51l-20 -116h-33q-255 0 -281 -340l-14 -195q-10 -162 -74 -246.5t-186 -109.5q214 -60 135 -361l-47 -172q-16 -62 -23.5 -107t-5.5 -94.5t20 -80.5t59 -51.5t106 -20.5h30 l-20 -117h-33q-205 0 -286 131t-17 365l53 186q27 93 18.5 148.5t-41 78.5t-93.5 23z" />
<glyph unicode="|" horiz-adv-x="456" d="M10 -252l342 1927h127l-342 -1927h-127z" />
<glyph unicode="}" horiz-adv-x="690" d="M-96 -293l20 117h33q255 0 281 340l14 194q10 162 74.5 247t185.5 110q-214 60 -135 360l47 172q16 62 23.5 107t5.5 94.5t-20 81t-59 52t-106 20.5h-30l20 116h33q205 0 286 -130.5t17 -364.5l-53 -187q-27 -93 -18.5 -148.5t41 -78.5t93.5 -23l-24 -145 q-55 0 -96.5 -24.5t-63.5 -65t-33 -80.5t-14 -82l-12 -196q-15 -239 -125.5 -362.5t-333.5 -123.5h-51z" />
<glyph unicode="~" horiz-adv-x="1067" d="M43 469q69 123 141.5 181.5t157.5 58.5q46 0 90 -15.5t79 -38t68.5 -45t70.5 -38t73 -15.5q42 0 82.5 29.5t93.5 113.5l105 -51q-68 -125 -140.5 -182t-158.5 -57q-56 0 -111.5 23.5t-93 52t-85.5 52t-91 23.5q-42 0 -83 -29.5t-94 -113.5z" />
<glyph unicode="&#xa1;" horiz-adv-x="505" d="M47 0l225 1006h101l-127 -1006h-199zM264 1196l41 238h182l-41 -238h-182z" />
<glyph unicode="&#xa2;" horiz-adv-x="970" d="M123 578q0 131 27 246t73 196.5t105.5 141t125.5 88t132 28.5h4l28 156h125l-32 -179q30 -10 59 -23.5t58.5 -32.5t45.5 -30t45.5 -34.5t34.5 -26.5l-88 -111q-1 1 -30.5 24.5t-45.5 35t-46.5 29.5t-57.5 28l-139 -795q28 10 62 27t57 30.5t53 32t39 23.5l59 -129 q-57 -34 -84.5 -49.5t-93 -44.5t-119.5 -41l-28 -168h-127l28 160q-124 15 -197 124.5t-73 293.5zM289 592q0 -117 33.5 -189.5t97.5 -91.5l143 811q-114 -32 -194 -181t-80 -349z" />
<glyph unicode="&#xa3;" horiz-adv-x="966" d="M8 0l21 125q9 7 24.5 19.5t56.5 54t75.5 85.5t69 111.5t48.5 134.5h-184l22 119h170q-4 64 -41 196.5t-37 215.5q0 179 102.5 287t272.5 108q50 0 101 -12t84.5 -24.5t79.5 -40t62.5 -39.5t57.5 -42l-96 -110q-162 117 -268 117q-100 0 -165 -71t-65 -181q0 -71 38 -198 t40 -206h271l-21 -119h-262q-13 -66 -41 -130.5t-63 -113.5t-61 -80t-50 -54h520l-27 -152h-735z" />
<glyph unicode="&#xa5;" horiz-adv-x="1146" d="M121 344l22 117h318l18 106l-12 41h-297l20 117h240l-221 709h178l197 -713l442 713h199l-473 -709h241l-20 -117h-299l-25 -37l-20 -110h317l-22 -117h-316l-59 -344h-168l59 344h-319z" />
<glyph unicode="&#xa6;" horiz-adv-x="458" d="M12 -252l150 846h125l-150 -846h-125zM203 829l149 846h127l-149 -846h-127z" />
<glyph unicode="&#xa7;" horiz-adv-x="968" d="M35 -29l86 113q148 -94 270 -94q80 0 134.5 42t54.5 113q0 30 -11.5 55.5t-24.5 41.5t-42.5 34.5t-45.5 26t-55 24.5q-13 6 -20 9q-132 61 -199 134.5t-67 178.5q0 104 63 176t168 101q-110 86 -110 221q0 141 99 225t251 84q99 0 195.5 -36t164.5 -83l-86 -112 q-148 94 -270 94q-80 0 -134.5 -42.5t-54.5 -113.5q0 -18 3 -34t11.5 -30t15.5 -24.5t22.5 -22.5t24 -18.5t29.5 -17t29.5 -14.5t32.5 -15t31 -14q132 -60 199 -132.5t67 -178.5q0 -105 -63 -177.5t-168 -101.5q110 -86 110 -221q0 -141 -99 -225t-249 -84q-100 0 -196 35 t-166 83zM276 672q0 -22 5.5 -40.5t12.5 -32.5t25.5 -30.5t30 -25.5t43 -26t47.5 -25l58 -29l10 -4q87 8 142 54t55 126q0 30 -10.5 54t-24 41t-48 38.5t-58.5 34t-79 39.5l-10 4q-87 -8 -143 -54t-56 -124z" />
<glyph unicode="&#xa8;" horiz-adv-x="405" d="M201 1247l35 193h153l-35 -193h-153zM492 1247l34 193h152l-33 -193h-153z" />
<glyph unicode="&#xa9;" horiz-adv-x="1677" d="M127 641q0 131 32.5 251.5t98 223t158 178.5t219 119t274.5 43q206 0 360.5 -84.5t235 -234.5t80.5 -344q0 -131 -32.5 -251.5t-98.5 -223.5t-158 -179t-219.5 -119t-275.5 -43q-309 0 -491.5 184t-182.5 480zM205 643q0 -172 70 -305t208.5 -210t325.5 -77 q161 0 294.5 59t221.5 160t136 235.5t48 285.5q0 128 -41.5 236t-117.5 186.5t-191 122.5t-256 44q-161 0 -294 -58.5t-220.5 -159t-135.5 -234t-48 -285.5zM477 618q-5 126 27 230.5t90 172t134.5 104t162.5 36.5q54 0 104.5 -12.5t94.5 -37t69.5 -42.5t59.5 -45l-56 -59 q-39 32 -67 51.5t-87 42t-118 22.5q-142 0 -235.5 -130t-86.5 -326q5 -128 58.5 -200.5t144.5 -72.5q153 0 313 113l48 -68q-53 -35 -95 -58t-115.5 -46t-144.5 -23q-126 0 -210.5 91.5t-90.5 256.5z" />
<glyph unicode="&#xaa;" horiz-adv-x="765" d="M180 993q0 188 77.5 321.5t199.5 133.5q38 0 74.5 -18t56 -35.5t45.5 -46.5l16 86h121l-113 -646h-122l16 93q-111 -107 -209 -107q-71 0 -116.5 55t-45.5 164zM305 1010q0 -61 21.5 -96t60.5 -35q83 0 182 110l47 260q-65 94 -137 94q-52 0 -93 -52t-61 -127.5 t-20 -153.5z" />
<glyph unicode="&#xab;" horiz-adv-x="1165" d="M53 518l19 109l587 454l-36 -194l-430 -328l317 -326l-31 -170zM532 518l19 109l588 454l-37 -194l-430 -328l317 -326l-31 -170z" />
<glyph unicode="&#xac;" horiz-adv-x="1067" d="M45 614l25 136h962l-100 -566h-144l76 430h-819z" />
<glyph unicode="&#xad;" horiz-adv-x="759" d="M117 510l26 145h486l-25 -145h-487z" />
<glyph unicode="&#xae;" horiz-adv-x="942" d="M176 1071q0 81 26 153.5t74 128.5t123.5 89t167.5 33q154 0 245 -91.5t91 -240.5q0 -81 -26 -154t-74 -129.5t-123 -89.5t-166 -33q-155 0 -246.5 92.5t-91.5 241.5zM242 1071q0 -118 74 -193t202 -75q147 0 234.5 97t87.5 241q0 118 -75.5 193t-203.5 75 q-146 0 -232.5 -97t-86.5 -241zM373 926l65 370h164q52 0 82.5 -27.5t30.5 -68.5q0 -46 -32 -76.5t-83 -38.5l62 -159h-68l-55 157h-74l-27 -157h-65zM477 1141h92q41 0 61.5 16.5t20.5 42.5q0 37 -51 37h-106z" />
<glyph unicode="&#xaf;" horiz-adv-x="501" d="M231 1278l21 113h493l-20 -113h-494z" />
<glyph unicode="&#xb0;" horiz-adv-x="815" d="M176 1122q0 129 91 220.5t220 91.5t220.5 -91.5t91.5 -220.5q0 -128 -91.5 -219.5t-220.5 -91.5t-220 91.5t-91 219.5zM287 1122q0 -82 58.5 -140t141.5 -58q82 0 140.5 58t58.5 140q0 83 -58.5 142t-140.5 59q-83 0 -141.5 -59t-58.5 -142z" />
<glyph unicode="&#xb1;" horiz-adv-x="1067" d="M6 0l23 123h837l-20 -123h-840zM115 618l24 136h348l58 317h135l-55 -317h354l-25 -136h-354l-55 -319h-137l55 319h-348z" />
<glyph unicode="&#xb2;" horiz-adv-x="677" d="M100 788l13 74q5 31 15.5 60t19 51t28 48t29 40t37.5 38.5t36.5 33t43 33t40 29t44.5 30.5q107 73 157.5 124t50.5 109q0 41 -28 66.5t-80 25.5q-95 0 -203 -71l-47 92q132 92 264 92q103 0 162 -54t59 -143q0 -58 -24.5 -109.5t-70.5 -95.5t-86 -73.5t-98 -67.5 q-15 -9 -22 -14q-82 -57 -120.5 -100.5t-49.5 -106.5h373l-18 -111h-525z" />
<glyph unicode="&#xb3;" horiz-adv-x="684" d="M100 877l70 86q105 -76 201 -76q79 0 130.5 46.5t51.5 117.5q0 74 -57.5 110.5t-139.5 36.5h-28l18 113h35q78 0 144.5 44.5t66.5 108.5q0 40 -28 63t-75 23q-91 0 -190 -65l-43 90q136 88 260 88q97 0 151 -49.5t54 -124.5q0 -71 -47 -133t-135 -96q62 -21 101.5 -77 t39.5 -132q0 -51 -18.5 -99.5t-54.5 -88.5t-95 -64.5t-133 -24.5q-151 0 -279 103z" />
<glyph unicode="&#xb4;" horiz-adv-x="380" d="M199 1227l243 266h224l-322 -266h-145z" />
<glyph unicode="&#xb5;" horiz-adv-x="1101" d="M-18 -418l264 1493h164l-134 -749q-17 -97 4.5 -153t98.5 -56t172 56t162 118l137 784h164l-191 -1075h-161l24 145q-209 -168 -373 -168q-53 0 -96 19l-74 -414h-161z" />
<glyph unicode="&#xb6;" horiz-adv-x="1132" d="M127 903q0 234 139 382.5t367 148.5h145l-321 -1813h-142l164 930q-163 0 -257.5 91t-94.5 261zM633 -379l321 1813h142l-320 -1813h-143z" />
<glyph unicode="&#xb7;" horiz-adv-x="452" d="M106 461l46 248h180l-43 -248h-183z" />
<glyph unicode="&#xb8;" horiz-adv-x="290" d="M-61 -313l53 98q41 -25 84 -25t73.5 29.5t30.5 91.5q0 26 -5.5 57t-10.5 48l-6 18h75q41 -68 41 -154q0 -93 -54.5 -147.5t-143.5 -54.5q-81 0 -137 39z" />
<glyph unicode="&#xb9;" horiz-adv-x="520" d="M195 1530l208 119h117l-153 -861h-125l129 725l-133 -73z" />
<glyph unicode="&#xba;" horiz-adv-x="751" d="M178 1030q0 74 19.5 146t56.5 134t99 100t139 38q112 0 180.5 -64t68.5 -192q0 -74 -19 -146t-56 -134t-98.5 -100t-137.5 -38q-113 0 -182.5 64t-69.5 192zM299 1028q0 -154 131 -154q48 0 86.5 34t60 85t33 103.5t11.5 97.5q0 154 -129 154q-48 0 -87 -34t-61 -85 t-33.5 -103.5t-11.5 -97.5z" />
<glyph unicode="&#xbb;" horiz-adv-x="1165" d="M14 63l37 195l430 328l-317 325l31 170l426 -454l-19 -109zM492 63l36 195l430 328l-317 325l31 170l426 -454l-19 -109z" />
<glyph unicode="&#xbc;" horiz-adv-x="1402" d="M176 0l803 1434h133l-803 -1434h-133zM176 1315l209 119h117l-154 -861h-125l129 725l-133 -73zM633 182l16 97l443 581h168l-103 -567h113l-21 -111h-110l-33 -182h-125l33 182h-381zM780 293h252l78 436z" />
<glyph unicode="&#xbd;" horiz-adv-x="1449" d="M176 0l803 1434h133l-803 -1434h-133zM176 1315l209 119h117l-154 -861h-125l129 725l-133 -73zM719 0l12 74q11 65 35.5 117t72 98t75.5 68.5t96 68.5q9 7 14 10q107 73 158 124.5t51 109.5q0 41 -28.5 66.5t-80.5 25.5q-93 0 -202 -72l-48 92q132 92 265 92 q103 0 162 -53.5t59 -142.5q0 -47 -18.5 -91.5t-43.5 -77t-67.5 -69t-73 -58t-78.5 -52.5q-4 -3 -6.5 -4.5t-6.5 -4t-7 -4.5q-83 -57 -121 -100.5t-49 -105.5h373l-19 -111h-524z" />
<glyph unicode="&#xbe;" horiz-adv-x="1597" d="M88 662l70 86q105 -76 200 -76q79 0 131 46.5t52 117.5q0 74 -57.5 110.5t-139.5 36.5h-29l19 113h35q78 0 144.5 44.5t66.5 108.5q0 40 -28 63t-75 23q-91 0 -190 -65l-43 90q136 88 260 88q97 0 151 -49.5t54 -124.5q0 -71 -47.5 -133.5t-135.5 -96.5q62 -21 102 -76.5 t40 -131.5q0 -51 -18.5 -99.5t-54.5 -88.5t-95 -64.5t-133 -24.5q-151 0 -279 103zM373 0l803 1434h133l-803 -1434h-133zM829 182l17 97l442 581h168l-102 -567h112l-20 -111h-111l-32 -182h-125l32 182h-381zM977 293h252l78 436z" />
<glyph unicode="&#xbf;" horiz-adv-x="876" d="M25 270q0 73 27 139t70.5 114.5t103 89.5t119 67.5t124.5 46.5l61 279h111l-51 -377q-391 -113 -391 -338q0 -79 48 -120.5t126 -41.5q119 0 293 111l67 -123q-201 -140 -387 -140q-138 0 -229.5 76t-91.5 217zM528 1196l41 238h183l-41 -238h-183z" />
<glyph unicode="&#xc0;" horiz-adv-x="1173" d="M-57 0l698 1434h186l193 -1434h-176l-37 350h-512l-160 -350h-192zM360 496h431l-80 766zM528 1802h199l164 -266h-129z" />
<glyph unicode="&#xc1;" horiz-adv-x="1173" d="M-57 0l698 1434h186l193 -1434h-176l-37 350h-512l-160 -350h-192zM360 496h431l-80 766zM616 1536l244 266h223l-321 -266h-146z" />
<glyph unicode="&#xc2;" horiz-adv-x="1173" d="M-57 0l698 1434h186l193 -1434h-176l-37 350h-512l-160 -350h-192zM360 496h431l-80 766zM498 1536l213 266h178l121 -266h-111l-108 176l-168 -176h-125z" />
<glyph unicode="&#xc3;" horiz-adv-x="1173" d="M-57 0l698 1434h186l193 -1434h-176l-37 350h-512l-160 -350h-192zM360 496h431l-80 766zM500 1610q51 84 88.5 120.5t91.5 36.5q38 0 74.5 -25t67 -50t52.5 -25q21 0 43.5 19.5t59.5 76.5l76 -55q-51 -83 -89.5 -119.5t-93.5 -36.5q-37 0 -73 25t-67 49.5t-54 24.5 q-20 0 -42.5 -18.5t-58.5 -76.5z" />
<glyph unicode="&#xc4;" horiz-adv-x="1173" d="M-57 0l698 1434h186l193 -1434h-176l-37 350h-512l-160 -350h-192zM360 496h431l-80 766zM535 1556l34 193h154l-35 -193h-153zM825 1556l35 193h152l-33 -193h-154z" />
<glyph unicode="&#xc5;" horiz-adv-x="1177" d="M-57 0l698 1434h186l193 -1434h-176l-37 350h-512l-160 -350h-192zM360 496h431l-80 766zM584 1714q0 84 57 141.5t141 57.5q83 0 141 -58t58 -141q0 -84 -57.5 -141t-141.5 -57q-85 0 -141.5 56.5t-56.5 141.5zM676 1714q0 -44 31 -75t75 -31q43 0 75 31t32 75t-32 75.5 t-75 31.5q-44 0 -75 -31.5t-31 -75.5z" />
<glyph unicode="&#xc6;" horiz-adv-x="1716" d="M-119 0l1051 1434h819l-27 -154h-585l-86 -487h483l-27 -152h-483l-88 -487h600l-29 -154h-768l62 350h-455l-248 -350h-219zM455 500h374l125 702z" />
<glyph unicode="&#xc7;" horiz-adv-x="1112" d="M117 520q0 199 47 374t127 297.5t191.5 193.5t236.5 71q66 0 126.5 -17.5t120.5 -56t93.5 -65t93.5 -78.5l-100 -119q-95 89 -171 132.5t-153 43.5q-119 0 -219.5 -104t-158.5 -281.5t-58 -386.5q0 -196 58.5 -291.5t160.5 -95.5q143 0 383 176l76 -135 q-131 -85 -234.5 -135t-206.5 -61q29 -65 29 -132q0 -93 -55 -147.5t-144 -54.5q-81 0 -137 39l53 98q41 -25 84 -25q44 0 74.5 29.5t30.5 91.5q0 41 -14 99q-156 11 -245 145t-89 395z" />
<glyph unicode="&#xc8;" horiz-adv-x="1038" d="M63 0l254 1434h756l-26 -154h-586l-86 -487h483l-27 -152h-483l-88 -487h600l-29 -154h-768zM496 1802h198l164 -266h-129z" />
<glyph unicode="&#xc9;" horiz-adv-x="1038" d="M63 0l254 1434h756l-26 -154h-586l-86 -487h483l-27 -152h-483l-88 -487h600l-29 -154h-768zM575 1536l244 266h223l-321 -266h-146z" />
<glyph unicode="&#xca;" horiz-adv-x="1038" d="M63 0l254 1434h756l-26 -154h-586l-86 -487h483l-27 -152h-483l-88 -487h600l-29 -154h-768zM463 1536l213 266h178l121 -266h-111l-108 176l-168 -176h-125z" />
<glyph unicode="&#xcb;" horiz-adv-x="1038" d="M63 0l254 1434h756l-26 -154h-586l-86 -487h483l-27 -152h-483l-88 -487h600l-29 -154h-768zM504 1556l35 193h153l-35 -193h-153zM795 1556l34 193h152l-33 -193h-153z" />
<glyph unicode="&#xcc;" horiz-adv-x="516" d="M63 0l254 1434h170l-254 -1434h-170zM199 1802h198l164 -266h-129z" />
<glyph unicode="&#xcd;" horiz-adv-x="516" d="M63 0l254 1434h170l-254 -1434h-170zM279 1536l243 266h223l-321 -266h-145z" />
<glyph unicode="&#xce;" horiz-adv-x="516" d="M63 0l254 1434h170l-254 -1434h-170zM164 1536l213 266h178l121 -266h-111l-108 176l-168 -176h-125z" />
<glyph unicode="&#xcf;" horiz-adv-x="516" d="M63 0l254 1434h170l-254 -1434h-170zM203 1556l35 193h153l-35 -193h-153zM494 1556l34 193h152l-33 -193h-153z" />
<glyph unicode="&#xd0;" horiz-adv-x="1241" d="M70 645l24 143h125l115 646h280q263 0 404 -135.5t141 -393.5q0 -145 -28.5 -277.5t-89 -247t-147 -199t-209 -133t-269.5 -48.5h-336l115 645h-125zM276 154h132q262 0 420.5 205t158.5 540q0 201 -100.5 291t-290.5 90h-119l-88 -492h273l-27 -143h-270z" />
<glyph unicode="&#xd1;" horiz-adv-x="1261" d="M63 0l254 1434h175l368 -1153l205 1153h170l-254 -1434h-172l-373 1161l-203 -1161h-170zM549 1610q51 84 88.5 120.5t91.5 36.5q30 0 60 -15.5t50 -34.5t43.5 -34.5t41.5 -15.5q21 0 43 19t59 77l76 -55q-51 -83 -89 -119.5t-93 -36.5q-37 0 -73.5 25t-67.5 49.5 t-54 24.5q-20 0 -42 -18.5t-58 -76.5z" />
<glyph unicode="&#xd2;" horiz-adv-x="1294" d="M117 504q0 68 10 148t33 172.5t56.5 181t85 170.5t114.5 144t148.5 99t183.5 37q226 0 345 -132t119 -392q0 -68 -10 -148.5t-33 -173.5t-56.5 -181.5t-85.5 -171t-114.5 -144.5t-148.5 -99t-184 -37q-225 0 -344 133.5t-119 393.5zM289 504q0 -373 295 -373 q98 0 179.5 65.5t130.5 161t83 210t47.5 206t13.5 156.5q0 373 -293 373q-99 0 -180.5 -65.5t-131 -161t-83.5 -210t-47.5 -206t-13.5 -156.5zM586 1802h198l164 -266h-129z" />
<glyph unicode="&#xd3;" horiz-adv-x="1294" d="M117 504q0 68 10 148t33 172.5t56.5 181t85 170.5t114.5 144t148.5 99t183.5 37q226 0 345 -132t119 -392q0 -68 -10 -148.5t-33 -173.5t-56.5 -181.5t-85.5 -171t-114.5 -144.5t-148.5 -99t-184 -37q-225 0 -344 133.5t-119 393.5zM289 504q0 -373 295 -373 q98 0 179.5 65.5t130.5 161t83 210t47.5 206t13.5 156.5q0 373 -293 373q-99 0 -180.5 -65.5t-131 -161t-83.5 -210t-47.5 -206t-13.5 -156.5zM666 1536l243 266h224l-322 -266h-145z" />
<glyph unicode="&#xd4;" horiz-adv-x="1294" d="M117 504q0 68 10 148t33 172.5t56.5 181t85 170.5t114.5 144t148.5 99t183.5 37q226 0 345 -132t119 -392q0 -68 -10 -148.5t-33 -173.5t-56.5 -181.5t-85.5 -171t-114.5 -144.5t-148.5 -99t-184 -37q-225 0 -344 133.5t-119 393.5zM289 504q0 -373 295 -373 q98 0 179.5 65.5t130.5 161t83 210t47.5 206t13.5 156.5q0 373 -293 373q-99 0 -180.5 -65.5t-131 -161t-83.5 -210t-47.5 -206t-13.5 -156.5zM555 1536l213 266h178l121 -266h-111l-108 176l-168 -176h-125z" />
<glyph unicode="&#xd5;" horiz-adv-x="1294" d="M117 504q0 68 10 148t33 172.5t56.5 181t85 170.5t114.5 144t148.5 99t183.5 37q226 0 345 -132t119 -392q0 -68 -10 -148.5t-33 -173.5t-56.5 -181.5t-85.5 -171t-114.5 -144.5t-148.5 -99t-184 -37q-225 0 -344 133.5t-119 393.5zM289 504q0 -373 295 -373 q98 0 179.5 65.5t130.5 161t83 210t47.5 206t13.5 156.5q0 373 -293 373q-99 0 -180.5 -65.5t-131 -161t-83.5 -210t-47.5 -206t-13.5 -156.5zM553 1610q51 84 88.5 120.5t91.5 36.5q30 0 60 -15.5t50 -34.5t43.5 -34.5t41.5 -15.5q21 0 43 19t59 77l76 -55 q-51 -83 -89 -119.5t-93 -36.5q-37 0 -73.5 25t-67.5 49.5t-54 24.5q-20 0 -42 -18.5t-58 -76.5z" />
<glyph unicode="&#xd6;" horiz-adv-x="1294" d="M117 504q0 68 10 148t33 172.5t56.5 181t85 170.5t114.5 144t148.5 99t183.5 37q226 0 345 -132t119 -392q0 -68 -10 -148.5t-33 -173.5t-56.5 -181.5t-85.5 -171t-114.5 -144.5t-148.5 -99t-184 -37q-225 0 -344 133.5t-119 393.5zM289 504q0 -373 295 -373 q98 0 179.5 65.5t130.5 161t83 210t47.5 206t13.5 156.5q0 373 -293 373q-99 0 -180.5 -65.5t-131 -161t-83.5 -210t-47.5 -206t-13.5 -156.5zM592 1556l35 193h153l-35 -193h-153zM883 1556l35 193h151l-33 -193h-153z" />
<glyph unicode="&#xd7;" horiz-adv-x="1073" d="M152 410l305 282l-207 285l110 80l197 -273l297 275l90 -98l-307 -285l207 -283l-111 -78l-196 269l-295 -271z" />
<glyph unicode="&#xd8;" horiz-adv-x="1292" d="M33 0l147 188q-63 120 -63 316q0 68 10 148t33 172.5t56.5 181t85 170.5t114.5 144t148.5 99t183.5 37q214 0 333 -119l76 97h135l-147 -187q67 -128 67 -315q0 -68 -10 -148.5t-33 -173.5t-56.5 -181.5t-85.5 -171t-114.5 -144.5t-148.5 -99t-184 -37q-216 0 -334 121 l-78 -98h-135zM289 504q0 -95 16 -158l668 854q-74 103 -228 103q-99 0 -180.5 -65.5t-131 -161t-83.5 -210t-47.5 -206t-13.5 -156.5zM352 236q75 -105 232 -105q98 0 179.5 65.5t130.5 161t83 210t47.5 206t13.5 156.5q0 82 -16 157z" />
<glyph unicode="&#xd9;" horiz-adv-x="1218" d="M123.5 329.5q2.5 77.5 15.5 166.5l166 938h170l-168 -955q-11 -61 -14 -109t6 -94.5t32.5 -77t69 -49t111.5 -18.5q82 0 145 26.5t103.5 76t64.5 109t37 136.5l170 955h170l-170 -959q-20 -110 -55.5 -195.5t-95.5 -156t-155 -108.5t-220 -38q-105 0 -180.5 26t-118 72.5 t-64.5 111.5t-19.5 142.5zM547 1802h198l164 -266h-129z" />
<glyph unicode="&#xda;" horiz-adv-x="1218" d="M123.5 329.5q2.5 77.5 15.5 166.5l166 938h170l-168 -955q-11 -61 -14 -109t6 -94.5t32.5 -77t69 -49t111.5 -18.5q82 0 145 26.5t103.5 76t64.5 109t37 136.5l170 955h170l-170 -959q-20 -110 -55.5 -195.5t-95.5 -156t-155 -108.5t-220 -38q-105 0 -180.5 26t-118 72.5 t-64.5 111.5t-19.5 142.5zM627 1536l243 266h224l-322 -266h-145z" />
<glyph unicode="&#xdb;" horiz-adv-x="1218" d="M123.5 329.5q2.5 77.5 15.5 166.5l166 938h170l-168 -955q-11 -61 -14 -109t6 -94.5t32.5 -77t69 -49t111.5 -18.5q82 0 145 26.5t103.5 76t64.5 109t37 136.5l170 955h170l-170 -959q-20 -110 -55.5 -195.5t-95.5 -156t-155 -108.5t-220 -38q-105 0 -180.5 26t-118 72.5 t-64.5 111.5t-19.5 142.5zM514 1536l213 266h178l121 -266h-111l-108 176l-168 -176h-125z" />
<glyph unicode="&#xdc;" horiz-adv-x="1218" d="M123.5 329.5q2.5 77.5 15.5 166.5l166 938h170l-168 -955q-11 -61 -14 -109t6 -94.5t32.5 -77t69 -49t111.5 -18.5q82 0 145 26.5t103.5 76t64.5 109t37 136.5l170 955h170l-170 -959q-20 -110 -55.5 -195.5t-95.5 -156t-155 -108.5t-220 -38q-105 0 -180.5 26t-118 72.5 t-64.5 111.5t-19.5 142.5zM555 1556l35 193h153l-34 -193h-154zM846 1556l35 193h151l-33 -193h-153z" />
<glyph unicode="&#xdd;" horiz-adv-x="1083" d="M174 1434h178l197 -713l442 713h199l-576 -863l-100 -571h-168l98 567zM557 1536l244 266h223l-322 -266h-145z" />
<glyph unicode="&#xde;" horiz-adv-x="1140" d="M63 0l254 1434h170l-45 -256h220q202 0 309.5 -87t107.5 -266q0 -247 -148.5 -385.5t-400.5 -138.5h-243l-54 -301h-170zM313 451h219q163 0 267 93t104 269q0 215 -248 215h-239z" />
<glyph unicode="&#xdf;" horiz-adv-x="1128" d="M33 0l182 1030q42 245 158 356t305 111q172 0 268 -80.5t96 -214.5q0 -42 -9.5 -81t-23 -64t-27 -44.5t-22.5 -28.5l-10 -9q-30 -11 -49.5 -19t-53 -26.5t-54 -38.5t-36.5 -51.5t-16 -67.5q0 -15 2 -27t9 -26t12.5 -23t21 -27t24.5 -28t33 -35.5t38 -40.5q63 -68 95 -128 t32 -140q0 -142 -99.5 -231t-240.5 -89q-153 0 -326 113l88 117q127 -88 229 -88q76 0 129.5 48t53.5 128q0 47 -23 87t-78 97q-5 4 -27 25.5t-29 28.5t-26 28t-26 32.5t-20 33.5t-18.5 40t-10 42.5t-4.5 50.5q0 55 19.5 102.5t45.5 78t68 58t71.5 42t71.5 30.5 q27 60 27 115q0 83 -53 129.5t-150 46.5q-54 0 -98.5 -15.5t-85.5 -52.5t-71.5 -105.5t-47.5 -166.5l-180 -1022h-164z" />
<glyph unicode="&#xe0;" horiz-adv-x="1050" d="M74 330q0 205 53.5 379.5t155.5 281.5t231 107q62 0 121 -30t93.5 -63.5t72.5 -80.5l26 151h164l-190 -1075h-164l29 166q-180 -189 -342 -189q-109 0 -179.5 88.5t-70.5 264.5zM242 354q0 -110 35 -172.5t102 -62.5q81 0 156 53t159 147l82 463q-109 174 -233 174 q-89 0 -160 -94.5t-106 -230.5t-35 -277zM432 1493h199l164 -266h-129z" />
<glyph unicode="&#xe1;" horiz-adv-x="1044" d="M74 330q0 205 53.5 379.5t155.5 281.5t231 107q62 0 121 -30t93.5 -63.5t72.5 -80.5l26 151h164l-190 -1075h-164l29 166q-180 -189 -342 -189q-109 0 -179.5 88.5t-70.5 264.5zM242 354q0 -110 35 -172.5t102 -62.5q81 0 156 53t159 147l82 463q-109 174 -233 174 q-89 0 -160 -94.5t-106 -230.5t-35 -277zM483 1227l244 266h223l-321 -266h-146z" />
<glyph unicode="&#xe2;" horiz-adv-x="1050" d="M74 330q0 205 53.5 379.5t155.5 281.5t231 107q62 0 121 -30t93.5 -63.5t72.5 -80.5l26 151h164l-190 -1075h-164l29 166q-180 -189 -342 -189q-109 0 -179.5 88.5t-70.5 264.5zM242 354q0 -110 35 -172.5t102 -62.5q81 0 156 53t159 147l82 463q-109 174 -233 174 q-89 0 -160 -94.5t-106 -230.5t-35 -277zM399 1227l213 266h179l120 -266h-110l-109 176l-168 -176h-125z" />
<glyph unicode="&#xe3;" horiz-adv-x="1050" d="M74 330q0 205 53.5 379.5t155.5 281.5t231 107q62 0 121 -30t93.5 -63.5t72.5 -80.5l26 151h164l-190 -1075h-164l29 166q-180 -189 -342 -189q-109 0 -179.5 88.5t-70.5 264.5zM242 354q0 -110 35 -172.5t102 -62.5q81 0 156 53t159 147l82 463q-109 174 -233 174 q-89 0 -160 -94.5t-106 -230.5t-35 -277zM403 1300q51 84 89 121t92 37q38 0 74.5 -25t67 -50t52.5 -25q21 0 43.5 19.5t59.5 76.5l75 -55q-51 -83 -89 -119.5t-93 -36.5q-37 0 -73 24.5t-67 49t-54 24.5q-20 0 -42.5 -18.5t-58.5 -75.5z" />
<glyph unicode="&#xe4;" horiz-adv-x="1050" d="M74 330q0 205 53.5 379.5t155.5 281.5t231 107q62 0 121 -30t93.5 -63.5t72.5 -80.5l26 151h164l-190 -1075h-164l29 166q-180 -189 -342 -189q-109 0 -179.5 88.5t-70.5 264.5zM242 354q0 -110 35 -172.5t102 -62.5q81 0 156 53t159 147l82 463q-109 174 -233 174 q-89 0 -160 -94.5t-106 -230.5t-35 -277zM442 1247l35 193h154l-35 -193h-154zM733 1247l35 193h152l-33 -193h-154z" />
<glyph unicode="&#xe5;" horiz-adv-x="1050" d="M74 330q0 205 53.5 379.5t155.5 281.5t231 107q62 0 121 -30t93.5 -63.5t72.5 -80.5l26 151h164l-190 -1075h-164l29 166q-180 -189 -342 -189q-109 0 -179.5 88.5t-70.5 264.5zM242 354q0 -110 35 -172.5t102 -62.5q81 0 156 53t159 147l82 463q-109 174 -233 174 q-89 0 -160 -94.5t-106 -230.5t-35 -277zM492 1405q0 84 57 141.5t141 57.5q83 0 141 -58t58 -141q0 -84 -57.5 -141.5t-141.5 -57.5q-85 0 -141.5 57t-56.5 142zM584 1405q0 -44 31 -75.5t75 -31.5q43 0 75 31.5t32 75.5t-32 75t-75 31q-44 0 -75 -31t-31 -75z" />
<glyph unicode="&#xe6;" horiz-adv-x="1589" d="M74 330q0 205 53.5 379.5t155.5 281.5t231 107q62 0 121 -30t93.5 -63.5t72.5 -80.5l26 151h164l-8 -41q109 64 238 64q140 0 220.5 -73.5t80.5 -193.5q0 -180 -148.5 -275t-419.5 -95h-92v-47q0 -145 47.5 -223t139.5 -78q33 0 68.5 8.5t76.5 28t64 32t67 39.5t51 31 l60 -119q-246 -156 -416 -156q-131 0 -209 78l-10 -55h-162l29 168q-182 -191 -344 -191q-109 0 -179.5 88.5t-70.5 264.5zM242 354q0 -110 35 -172.5t102 -62.5q82 0 157.5 53.5t157.5 149.5l4 24q-2 33 -2 70q0 211 76 372q-108 168 -229 168q-89 0 -160 -94.5 t-106 -230.5t-35 -277zM874 571h93q194 0 295.5 71t101.5 183q0 67 -44 104.5t-112 37.5q-120 0 -211 -111.5t-123 -284.5z" />
<glyph unicode="&#xe7;" horiz-adv-x="890" d="M72 397q0 163 41.5 299.5t108.5 222t149 132.5t166 47q39 0 79 -9t67 -18.5t65.5 -32t52 -31.5t49.5 -35.5t37 -27.5l-88 -115q-4 3 -25 20t-34 26.5t-38 25.5t-45 25.5t-46 16.5t-50 7q-127 0 -225 -157t-98 -381q0 -135 45.5 -211t132.5 -76q27 0 58.5 8.5t64.5 25 t56.5 29.5t54.5 32.5t38 23.5l62 -131q-3 -2 -24 -13.5t-28.5 -16t-29 -16t-33 -17t-33.5 -16t-37 -16t-37 -13t-39.5 -12t-38.5 -8.5t-40 -5q28 -63 28 -130q0 -93 -54.5 -147.5t-143.5 -54.5q-82 0 -138 39l54 98q41 -25 84 -25t73.5 29.5t30.5 91.5q0 40 -16 101 q-117 21 -186.5 129.5t-69.5 285.5z" />
<glyph unicode="&#xe8;" horiz-adv-x="962" d="M72 416q0 195 64 349.5t184 243.5t276 89q140 0 220.5 -73.5t80.5 -193.5q0 -180 -148 -275t-419 -95h-92v-47q0 -145 47 -223t139 -78q33 0 68.5 8.5t77 28.5t63.5 31.5t67.5 39.5t51.5 31l59 -119q-246 -156 -416 -156q-151 0 -237 111t-86 328zM250 571h92 q194 0 295.5 71t101.5 183q0 67 -43.5 104.5t-111.5 37.5q-120 0 -211 -111.5t-123 -284.5zM399 1493h199l164 -266h-129z" />
<glyph unicode="&#xe9;" horiz-adv-x="964" d="M72 416q0 195 64 349.5t184 243.5t276 89q140 0 220.5 -73.5t80.5 -193.5q0 -180 -148 -275t-419 -95h-92v-47q0 -145 47 -223t139 -78q33 0 68.5 8.5t77 28.5t63.5 31.5t67.5 39.5t51.5 31l59 -119q-246 -156 -416 -156q-151 0 -237 111t-86 328zM250 571h92 q194 0 295.5 71t101.5 183q0 67 -43.5 104.5t-111.5 37.5q-120 0 -211 -111.5t-123 -284.5zM479 1227l244 266h223l-321 -266h-146z" />
<glyph unicode="&#xea;" horiz-adv-x="962" d="M72 416q0 195 64 349.5t184 243.5t276 89q140 0 220.5 -73.5t80.5 -193.5q0 -180 -148 -275t-419 -95h-92v-47q0 -145 47 -223t139 -78q33 0 68.5 8.5t77 28.5t63.5 31.5t67.5 39.5t51.5 31l59 -119q-246 -156 -416 -156q-151 0 -237 111t-86 328zM250 571h92 q194 0 295.5 71t101.5 183q0 67 -43.5 104.5t-111.5 37.5q-120 0 -211 -111.5t-123 -284.5zM367 1227l213 266h178l121 -266h-111l-109 176l-167 -176h-125z" />
<glyph unicode="&#xeb;" horiz-adv-x="962" d="M72 416q0 195 64 349.5t184 243.5t276 89q140 0 220.5 -73.5t80.5 -193.5q0 -180 -148 -275t-419 -95h-92v-47q0 -145 47 -223t139 -78q33 0 68.5 8.5t77 28.5t63.5 31.5t67.5 39.5t51.5 31l59 -119q-246 -156 -416 -156q-151 0 -237 111t-86 328zM250 571h92 q194 0 295.5 71t101.5 183q0 67 -43.5 104.5t-111.5 37.5q-120 0 -211 -111.5t-123 -284.5zM406 1247l34 193h154l-35 -193h-153zM696 1247l35 193h152l-33 -193h-154z" />
<glyph unicode="&#xec;" horiz-adv-x="446" d="M33 0l190 1075h162l-188 -1075h-164zM109 1493h198l164 -266h-129z" />
<glyph unicode="&#xed;" horiz-adv-x="446" d="M33 0l190 1075h162l-188 -1075h-164zM188 1227l244 266h223l-321 -266h-146z" />
<glyph unicode="&#xee;" horiz-adv-x="446" d="M33 0l190 1075h162l-188 -1075h-164zM76 1227l213 266h178l121 -266h-111l-108 176l-168 -176h-125z" />
<glyph unicode="&#xef;" horiz-adv-x="448" d="M33 0l190 1075h162l-188 -1075h-164zM115 1247l35 193h153l-35 -193h-153zM406 1247l34 193h152l-33 -193h-153z" />
<glyph unicode="&#xf0;" horiz-adv-x="1060" d="M63 387q0 161 61.5 296t169.5 213.5t238 78.5q58 0 108 -18t79.5 -41.5t53 -53.5t31 -45t11.5 -26q-3 144 -47 266t-133 184l-111 -98h-164l164 145q-27 6 -59 6t-66.5 -4.5t-52.5 -9.5l-18 -4v139q65 19 151 19q93 0 172 -31l103 90h164l-166 -147q107 -83 162 -234.5 t55 -355.5q0 -232 -65 -408.5t-185.5 -273.5t-280.5 -97q-177 0 -276 108t-99 302zM233 383q0 -122 50.5 -195t162.5 -73q68 0 125.5 30t95 77.5t64 109t38 122.5t11.5 119q0 122 -56 193.5t-163 71.5q-101 0 -178 -69.5t-113.5 -171.5t-36.5 -214z" />
<glyph unicode="&#xf1;" d="M33 0l190 1075h162l-27 -145q213 168 375 168q129 0 179.5 -87.5t23.5 -238.5l-135 -772h-164l133 752q8 57 7 103t-28 74.5t-81 28.5q-78 0 -170 -54.5t-164 -119.5l-137 -784h-164zM379 1300q51 84 88.5 121t91.5 37q30 0 60 -15.5t50 -34.5t43.5 -34.5t41.5 -15.5 q21 0 43 19t59 77l76 -55q-51 -83 -89 -119.5t-93 -36.5q-37 0 -73.5 24.5t-67.5 49t-54 24.5q-20 0 -42 -18t-58 -76z" />
<glyph unicode="&#xf2;" horiz-adv-x="1046" d="M72 389q0 82 13.5 165t40 162.5t68 148.5t95 121t124.5 82t152 30q173 0 278 -102.5t105 -309.5q0 -99 -18.5 -198t-58.5 -191.5t-96.5 -163.5t-138.5 -113.5t-179 -42.5q-173 0 -279 102.5t-106 309.5zM236 387q0 -272 221 -272q66 0 122 40.5t92.5 103.5t63 141 t38 151.5t11.5 136.5q0 273 -221 273q-66 0 -122 -40.5t-92.5 -103.5t-63 -141t-38 -152t-11.5 -137zM408 1493h198l164 -266h-129z" />
<glyph unicode="&#xf3;" horiz-adv-x="1046" d="M72 389q0 82 13.5 165t40 162.5t68 148.5t95 121t124.5 82t152 30q173 0 278 -102.5t105 -309.5q0 -99 -18.5 -198t-58.5 -191.5t-96.5 -163.5t-138.5 -113.5t-179 -42.5q-173 0 -279 102.5t-106 309.5zM236 387q0 -272 221 -272q66 0 122 40.5t92.5 103.5t63 141 t38 151.5t11.5 136.5q0 273 -221 273q-66 0 -122 -40.5t-92.5 -103.5t-63 -141t-38 -152t-11.5 -137zM487 1227l244 266h223l-321 -266h-146z" />
<glyph unicode="&#xf4;" horiz-adv-x="1046" d="M72 389q0 82 13.5 165t40 162.5t68 148.5t95 121t124.5 82t152 30q173 0 278 -102.5t105 -309.5q0 -99 -18.5 -198t-58.5 -191.5t-96.5 -163.5t-138.5 -113.5t-179 -42.5q-173 0 -279 102.5t-106 309.5zM236 387q0 -272 221 -272q66 0 122 40.5t92.5 103.5t63 141 t38 151.5t11.5 136.5q0 273 -221 273q-66 0 -122 -40.5t-92.5 -103.5t-63 -141t-38 -152t-11.5 -137zM377 1227l213 266h178l121 -266h-111l-108 176l-168 -176h-125z" />
<glyph unicode="&#xf5;" horiz-adv-x="1046" d="M72 389q0 82 13.5 165t40 162.5t68 148.5t95 121t124.5 82t152 30q173 0 278 -102.5t105 -309.5q0 -99 -18.5 -198t-58.5 -191.5t-96.5 -163.5t-138.5 -113.5t-179 -42.5q-173 0 -279 102.5t-106 309.5zM236 387q0 -272 221 -272q66 0 122 40.5t92.5 103.5t63 141 t38 151.5t11.5 136.5q0 273 -221 273q-66 0 -122 -40.5t-92.5 -103.5t-63 -141t-38 -152t-11.5 -137zM377 1300q51 84 88.5 121t91.5 37q30 0 60 -15.5t50 -34.5t43.5 -34.5t41.5 -15.5q21 0 43 19t59 77l76 -55q-51 -83 -89 -119.5t-93 -36.5q-37 0 -73.5 24.5t-67.5 49 t-54 24.5q-20 0 -42 -18t-58 -76z" />
<glyph unicode="&#xf6;" horiz-adv-x="1046" d="M72 389q0 82 13.5 165t40 162.5t68 148.5t95 121t124.5 82t152 30q173 0 278 -102.5t105 -309.5q0 -99 -18.5 -198t-58.5 -191.5t-96.5 -163.5t-138.5 -113.5t-179 -42.5q-173 0 -279 102.5t-106 309.5zM236 387q0 -272 221 -272q66 0 122 40.5t92.5 103.5t63 141 t38 151.5t11.5 136.5q0 273 -221 273q-66 0 -122 -40.5t-92.5 -103.5t-63 -141t-38 -152t-11.5 -137zM416 1247l35 193h153l-35 -193h-153zM707 1247l34 193h152l-33 -193h-153z" />
<glyph unicode="&#xf7;" horiz-adv-x="1067" d="M111 614l24 136h840l-25 -136h-839zM379 344q0 41 30.5 71.5t73.5 30.5q41 0 72 -30.5t31 -71.5q0 -42 -31 -73t-72 -31q-43 0 -73.5 30.5t-30.5 73.5zM500 1022q0 43 29.5 73.5t72.5 30.5t74 -30.5t31 -73.5q0 -42 -31 -72t-74 -30t-72.5 29.5t-29.5 72.5z" />
<glyph unicode="&#xf8;" horiz-adv-x="1046" d="M12 0l117 143q-57 94 -57 246q0 82 13.5 165t40 162.5t68 148.5t95 121t124.5 82t152 30q164 0 264 -90l56 67h119l-115 -141q59 -92 59 -248q0 -99 -18.5 -198t-58.5 -191.5t-96.5 -163.5t-138.5 -113.5t-179 -42.5q-166 0 -269 93l-55 -70h-121zM236 387q0 -52 10 -100 l485 600q-56 74 -168 74q-66 0 -122 -40.5t-92.5 -103.5t-63 -141t-38 -152t-11.5 -137zM287 188q55 -73 170 -73q66 0 122 40.5t92.5 103.5t63 141t38 151.5t11.5 136.5q0 51 -10 103z" />
<glyph unicode="&#xf9;" d="M80 303l135 772h164l-133 -749q-17 -97 4 -153t98 -56t172 56t162 118l137 784h164l-190 -1075h-162l24 145q-209 -168 -372 -168q-129 0 -179.5 87.5t-23.5 238.5zM401 1493h199l164 -266h-129z" />
<glyph unicode="&#xfa;" d="M80 303l135 772h164l-133 -749q-17 -97 4 -153t98 -56t172 56t162 118l137 784h164l-190 -1075h-162l24 145q-209 -168 -372 -168q-129 0 -179.5 87.5t-23.5 238.5zM481 1227l244 266h223l-321 -266h-146z" />
<glyph unicode="&#xfb;" d="M80 303l135 772h164l-133 -749q-17 -97 4 -153t98 -56t172 56t162 118l137 784h164l-190 -1075h-162l24 145q-209 -168 -372 -168q-129 0 -179.5 87.5t-23.5 238.5zM369 1227l213 266h178l121 -266h-111l-108 176l-168 -176h-125z" />
<glyph unicode="&#xfc;" d="M80 303l135 772h164l-133 -749q-17 -97 4 -153t98 -56t172 56t162 118l137 784h164l-190 -1075h-162l24 145q-209 -168 -372 -168q-129 0 -179.5 87.5t-23.5 238.5zM408 1247l34 193h154l-35 -193h-153zM698 1247l35 193h152l-33 -193h-154z" />
<glyph unicode="&#xfd;" horiz-adv-x="958" d="M-35 -295q133 53 198.5 106.5t123.5 163.5l-158 1100h168l100 -872l408 872h180l-534 -1075l-38 -76t-34 -64.5t-35.5 -59.5t-36 -49t-42.5 -47t-47.5 -38t-59.5 -37.5t-70 -31t-86 -31.5zM442 1227l244 266h223l-321 -266h-146z" />
<glyph unicode="&#xfe;" horiz-adv-x="1044" d="M-41 -418l338 1911h162l-99 -557q171 162 318 162q117 0 193.5 -89t76.5 -266q0 -202 -51.5 -375.5t-151 -282t-227.5 -108.5q-50 0 -95.5 15t-83.5 43t-63.5 53t-54.5 59l-98 -565h-164zM248 289q113 -170 241 -170q66 0 122 55t92 142.5t56.5 193.5t20.5 211 q0 111 -39.5 173t-119.5 62q-72 0 -138 -44.5t-149 -127.5z" />
<glyph unicode="&#xff;" horiz-adv-x="958" d="M-35 -295q133 53 198.5 106.5t123.5 163.5l-158 1100h168l100 -872l408 872h180l-534 -1075l-38 -76t-34 -64.5t-35.5 -59.5t-36 -49t-42.5 -47t-47.5 -38t-59.5 -37.5t-70 -31t-86 -31.5zM367 1247l34 193h154l-35 -193h-153zM657 1247l35 193h152l-33 -193h-154z" />
<glyph unicode="&#x100;" horiz-adv-x="1173" d="M-57 0l698 1434h186l193 -1434h-176l-37 350h-512l-160 -350h-192zM360 496h431l-80 766zM514 1587l21 113h493l-20 -113h-494z" />
<glyph unicode="&#x101;" horiz-adv-x="1050" d="M74 330q0 205 53.5 379.5t155.5 281.5t231 107q62 0 121 -30t93.5 -63.5t72.5 -80.5l26 151h164l-190 -1075h-164l29 166q-180 -189 -342 -189q-109 0 -179.5 88.5t-70.5 264.5zM242 354q0 -110 35 -172.5t102 -62.5q81 0 156 53t159 147l82 463q-109 174 -233 174 q-89 0 -160 -94.5t-106 -230.5t-35 -277zM416 1278l20 113h494l-21 -113h-493z" />
<glyph unicode="&#x102;" horiz-adv-x="1173" d="M-57 0l698 1434h186l193 -1434h-176l-37 350h-512l-160 -350h-192zM360 496h431l-80 766zM547 1755h110q-7 -56 18 -82t83 -26q67 0 111 26.5t53 81.5h112q-17 -103 -90 -161t-190 -58q-115 0 -170.5 60t-36.5 159z" />
<glyph unicode="&#x103;" horiz-adv-x="1050" d="M74 330q0 205 53.5 379.5t155.5 281.5t231 107q62 0 121 -30t93.5 -63.5t72.5 -80.5l26 151h164l-190 -1075h-164l29 166q-180 -189 -342 -189q-109 0 -179.5 88.5t-70.5 264.5zM242 354q0 -110 35 -172.5t102 -62.5q81 0 156 53t159 147l82 463q-109 174 -233 174 q-89 0 -160 -94.5t-106 -230.5t-35 -277zM446 1446h111q-7 -56 17.5 -82.5t82.5 -26.5q67 0 111 27t53 82h113q-17 -103 -90.5 -161t-190.5 -58q-115 0 -170.5 60t-36.5 159z" />
<glyph unicode="&#x104;" horiz-adv-x="1173" d="M-57 0l698 1434h186l193 -1434h-4q-102 -63 -150.5 -112.5t-48.5 -102.5q0 -9 2.5 -17t5.5 -13.5t9.5 -9.5t11 -7t14 -5t14.5 -3t16.5 -1.5t16 -0.5h16.5h15l-37 -103q-23 0 -36 0.5t-42 4t-47.5 12t-39.5 23t-31.5 39.5t-10.5 58q0 73 52 130t149 108h-51l-37 350h-512 l-160 -350h-192zM360 496h431l-80 766z" />
<glyph unicode="&#x105;" horiz-adv-x="1050" d="M74 330q0 205 53.5 379.5t155.5 281.5t231 107q62 0 121 -30t93.5 -63.5t72.5 -80.5l26 151h164l-190 -1075h-6q-102 -63 -150.5 -112.5t-48.5 -102.5q0 -9 2.5 -17t5.5 -13.5t9.5 -9.5t11 -7t14 -5t14.5 -3t16.5 -1.5t16 -0.5h16.5h15l-37 -103q-23 0 -36 0.5t-42 4 t-47.5 12t-39.5 23t-31.5 39.5t-10.5 58q0 73 52 130t149 108h-37l29 166q-180 -189 -342 -189q-109 0 -179.5 88.5t-70.5 264.5zM242 354q0 -110 35 -172.5t102 -62.5q81 0 156 53t159 147l82 463q-109 174 -233 174q-89 0 -160 -94.5t-106 -230.5t-35 -277z" />
<glyph unicode="&#x106;" horiz-adv-x="1112" d="M117 520q0 199 47 374t127 297.5t191.5 193.5t236.5 71q66 0 126.5 -17.5t120.5 -56t93.5 -65t93.5 -78.5l-100 -119q-95 89 -171 132.5t-153 43.5q-119 0 -219.5 -104t-158.5 -281.5t-58 -386.5q0 -196 58.5 -291.5t160.5 -95.5q143 0 383 176l76 -135 q-147 -95 -262.5 -148t-229.5 -53q-167 0 -264.5 135t-97.5 408zM678 1536l244 266h223l-322 -266h-145z" />
<glyph unicode="&#x107;" horiz-adv-x="892" d="M72 397q0 163 41.5 299.5t108.5 222t149 132.5t166 47q39 0 79 -9t67 -18.5t65.5 -32t52 -31.5t49.5 -35.5t37 -27.5l-88 -115q-4 3 -25 20t-34 26.5t-38 25.5t-45 25.5t-46 16.5t-50 7q-127 0 -225 -157t-98 -381q0 -135 45.5 -211t132.5 -76q27 0 58.5 8.5t64.5 25 t56.5 29.5t54.5 32.5t38 23.5l62 -131q-2 -1 -28 -16t-35 -19.5t-36 -19t-42 -21t-41.5 -18t-46.5 -17.5t-45 -12.5t-48.5 -9.5t-46.5 -3q-138 0 -223.5 111.5t-85.5 308.5zM457 1227l243 266h224l-322 -266h-145z" />
<glyph unicode="&#x10a;" horiz-adv-x="1112" d="M117 520q0 199 47 374t127 297.5t191.5 193.5t236.5 71q66 0 126.5 -17.5t120.5 -56t93.5 -65t93.5 -78.5l-100 -119q-95 89 -171 132.5t-153 43.5q-119 0 -219.5 -104t-158.5 -281.5t-58 -386.5q0 -196 58.5 -291.5t160.5 -95.5q143 0 383 176l76 -135 q-147 -95 -262.5 -148t-229.5 -53q-167 0 -264.5 135t-97.5 408zM690 1556l35 195h156l-35 -195h-156z" />
<glyph unicode="&#x10b;" horiz-adv-x="890" d="M72 397q0 163 41.5 299.5t108.5 222t149 132.5t166 47q39 0 79 -9t67 -18.5t65.5 -32t52 -31.5t49.5 -35.5t37 -27.5l-88 -115q-4 3 -25 20t-34 26.5t-38 25.5t-45 25.5t-46 16.5t-50 7q-127 0 -225 -157t-98 -381q0 -135 45.5 -211t132.5 -76q27 0 58.5 8.5t64.5 25 t56.5 29.5t54.5 32.5t38 23.5l62 -131q-2 -1 -28 -16t-35 -19.5t-36 -19t-42 -21t-41.5 -18t-46.5 -17.5t-45 -12.5t-48.5 -9.5t-46.5 -3q-138 0 -223.5 111.5t-85.5 308.5zM524 1247l35 195h156l-35 -195h-156z" />
<glyph unicode="&#x10c;" horiz-adv-x="1112" d="M117 520q0 199 47 374t127 297.5t191.5 193.5t236.5 71q66 0 126.5 -17.5t120.5 -56t93.5 -65t93.5 -78.5l-100 -119q-95 89 -171 132.5t-153 43.5q-119 0 -219.5 -104t-158.5 -281.5t-58 -386.5q0 -196 58.5 -291.5t160.5 -95.5q143 0 383 176l76 -135 q-147 -95 -262.5 -148t-229.5 -53q-167 0 -264.5 135t-97.5 408zM569 1802h109l110 -176l166 176h127l-213 -266h-180z" />
<glyph unicode="&#x10d;" horiz-adv-x="890" d="M72 397q0 163 41.5 299.5t108.5 222t149 132.5t166 47q39 0 79 -9t67 -18.5t65.5 -32t52 -31.5t49.5 -35.5t37 -27.5l-88 -115q-4 3 -25 20t-34 26.5t-38 25.5t-45 25.5t-46 16.5t-50 7q-127 0 -225 -157t-98 -381q0 -135 45.5 -211t132.5 -76q27 0 58.5 8.5t64.5 25 t56.5 29.5t54.5 32.5t38 23.5l62 -131q-2 -1 -28 -16t-35 -19.5t-36 -19t-42 -21t-41.5 -18t-46.5 -17.5t-45 -12.5t-48.5 -9.5t-46.5 -3q-138 0 -223.5 111.5t-85.5 308.5zM389 1493h109l110 -176l166 176h127l-213 -266h-180z" />
<glyph unicode="&#x10e;" horiz-adv-x="1224" d="M63 0l254 1434h281q263 0 404 -135.5t141 -393.5q0 -145 -28.5 -277.5t-89 -247t-147 -199t-209.5 -133t-270 -48.5h-336zM260 154h131q262 0 421 205t159 540q0 201 -100.5 291t-290.5 90h-119zM592 1802h108l111 -176l166 176h127l-213 -266h-180z" />
<glyph unicode="&#x10f;" horiz-adv-x="1101" d="M74 330q0 205 53.5 379.5t155.5 281.5t231 107q62 0 121 -30t93.5 -63.5t72.5 -80.5l100 569h164l-264 -1493h-164l29 166q-180 -189 -342 -189q-109 0 -179.5 88.5t-70.5 264.5zM242 354q0 -110 35 -172.5t102 -62.5q81 0 156 53t159 147l82 463q-109 174 -233 174 q-89 0 -160 -94.5t-106 -230.5t-35 -277zM1083 1118l109 176h-68l35 199h146l-23 -207l-162 -217z" />
<glyph unicode="&#x110;" horiz-adv-x="1241" d="M70 645l24 143h125l115 646h280q263 0 404 -135.5t141 -393.5q0 -145 -28.5 -277.5t-89 -247t-147 -199t-209 -133t-269.5 -48.5h-336l115 645h-125zM276 154h132q262 0 420.5 205t158.5 540q0 201 -100.5 291t-290.5 90h-119l-88 -492h273l-27 -143h-270z" />
<glyph unicode="&#x111;" horiz-adv-x="1052" d="M74 330q0 205 53.5 379.5t155.5 281.5t231 107q62 0 121 -30t93.5 -63.5t72.5 -80.5l51 293h-283l21 114h282l29 162h164l-29 -162h105l-19 -114h-106l-215 -1217h-164l29 166q-180 -189 -342 -189q-109 0 -179.5 88.5t-70.5 264.5zM242 354q0 -110 35 -172.5t102 -62.5 q81 0 156 53t159 147l82 463q-109 174 -233 174q-89 0 -160 -94.5t-106 -230.5t-35 -277z" />
<glyph unicode="&#x112;" horiz-adv-x="1038" d="M63 0l254 1434h756l-26 -154h-586l-86 -487h483l-27 -152h-483l-88 -487h600l-29 -154h-768zM481 1587l21 113h493l-20 -113h-494z" />
<glyph unicode="&#x113;" horiz-adv-x="962" d="M72 416q0 195 64 349.5t184 243.5t276 89q140 0 220.5 -73.5t80.5 -193.5q0 -180 -148 -275t-419 -95h-92v-47q0 -145 47 -223t139 -78q33 0 68.5 8.5t77 28.5t63.5 31.5t67.5 39.5t51.5 31l59 -119q-246 -156 -416 -156q-151 0 -237 111t-86 328zM250 571h92 q194 0 295.5 71t101.5 183q0 67 -43.5 104.5t-111.5 37.5q-120 0 -211 -111.5t-123 -284.5zM385 1278l21 113h493l-20 -113h-494z" />
<glyph unicode="&#x116;" horiz-adv-x="1038" d="M63 0l254 1434h756l-26 -154h-586l-86 -487h483l-27 -152h-483l-88 -487h600l-29 -154h-768zM645 1556l35 195h156l-35 -195h-156z" />
<glyph unicode="&#x117;" horiz-adv-x="962" d="M72 416q0 195 64 349.5t184 243.5t276 89q140 0 220.5 -73.5t80.5 -193.5q0 -180 -148 -275t-419 -95h-92v-47q0 -145 47 -223t139 -78q33 0 68.5 8.5t77 28.5t63.5 31.5t67.5 39.5t51.5 31l59 -119q-246 -156 -416 -156q-151 0 -237 111t-86 328zM250 571h92 q194 0 295.5 71t101.5 183q0 67 -43.5 104.5t-111.5 37.5q-120 0 -211 -111.5t-123 -284.5zM549 1247l35 195h155l-34 -195h-156z" />
<glyph unicode="&#x118;" horiz-adv-x="1038" d="M63 0l254 1434h756l-26 -154h-586l-86 -487h483l-27 -152h-483l-88 -487h600l-29 -154h-6q-101 -62 -149.5 -112t-48.5 -103q0 -9 2.5 -17t5.5 -13.5t9.5 -9.5t11 -7t14 -5t14.5 -3t16.5 -1.5t16 -0.5h16.5h15l-37 -103q-23 0 -36 0.5t-42 4t-47.5 12t-39.5 23 t-31.5 39.5t-10.5 58q0 73 52 130t149 108h-642z" />
<glyph unicode="&#x119;" horiz-adv-x="964" d="M72 416q0 195 64 349.5t184 243.5t276 89q140 0 220.5 -73.5t80.5 -193.5q0 -180 -148 -275t-419 -95h-92v-47q0 -145 47 -223t139 -78q33 0 68.5 8.5t77 28.5t63.5 31.5t67.5 39.5t51.5 31l59 -119q-147 -97 -274 -133q-102 -63 -150.5 -112.5t-48.5 -102.5 q0 -9 2.5 -17t5.5 -13.5t9.5 -9.5t11 -7t14 -5t14.5 -3t16.5 -1.5t16 -0.5h16.5h15l-37 -103q-23 0 -36 0.5t-42 4t-47.5 12t-39.5 23t-31.5 39.5t-10.5 58q0 122 160 215q-141 8 -222 119t-81 320zM250 571h92q194 0 295.5 71t101.5 183q0 67 -43.5 104.5t-111.5 37.5 q-120 0 -211 -111.5t-123 -284.5z" />
<glyph unicode="&#x11a;" horiz-adv-x="1038" d="M63 0l254 1434h756l-26 -154h-586l-86 -487h483l-27 -152h-483l-88 -487h600l-29 -154h-768zM510 1802h108l111 -176l166 176h127l-213 -266h-180z" />
<glyph unicode="&#x11b;" horiz-adv-x="962" d="M72 416q0 195 64 349.5t184 243.5t276 89q140 0 220.5 -73.5t80.5 -193.5q0 -180 -148 -275t-419 -95h-92v-47q0 -145 47 -223t139 -78q33 0 68.5 8.5t77 28.5t63.5 31.5t67.5 39.5t51.5 31l59 -119q-246 -156 -416 -156q-151 0 -237 111t-86 328zM250 571h92 q194 0 295.5 71t101.5 183q0 67 -43.5 104.5t-111.5 37.5q-120 0 -211 -111.5t-123 -284.5zM414 1493h108l111 -176l166 176h127l-213 -266h-181z" />
<glyph unicode="&#x11e;" horiz-adv-x="1216" d="M119 502q0 217 48 398.5t130.5 302t192 187t231.5 66.5q67 0 133 -20t127 -59t102.5 -71.5t94.5 -80.5l-105 -119q-103 91 -153 123q-103 67 -191 67q-119 0 -219 -102.5t-157.5 -281t-57.5 -392.5q0 -182 55 -285.5t162 -103.5q47 0 102 21.5t106 57t87 65.5t70 63 l53 297h-309l24 147h471l-137 -782h-162l31 172q-208 -195 -381 -195q-157 0 -252.5 133.5t-95.5 391.5zM563 1755h111q-7 -56 17.5 -82t82.5 -26q67 0 111 26.5t53 81.5h113q-17 -103 -90.5 -161t-190.5 -58q-115 0 -170.5 60t-36.5 159z" />
<glyph unicode="&#x11f;" horiz-adv-x="1050" d="M-27 -360l60 139q199 -78 340 -78q51 0 92.5 14.5t68.5 37.5t46.5 55.5t29.5 63t15 65.5l41 227q-178 -187 -342 -187q-109 0 -179.5 88.5t-70.5 264.5q0 205 53.5 379.5t155.5 281.5t231 107q62 0 121 -30t93.5 -63.5t72.5 -80.5l26 151h162l-201 -1138 q-19 -109 -55.5 -183.5t-90 -115.5t-116 -58.5t-143.5 -17.5q-193 0 -410 78zM242 354q0 -110 35 -172.5t104 -62.5q80 0 153.5 52.5t157.5 147.5l84 465q-49 76 -109.5 124t-123.5 48q-89 0 -160 -94.5t-106 -230.5t-35 -277zM430 1446h111q-7 -56 17.5 -82.5t82.5 -26.5 q67 0 111 27t53 82h113q-17 -103 -90.5 -161t-190.5 -58q-115 0 -170.5 60t-36.5 159z" />
<glyph unicode="&#x120;" horiz-adv-x="1216" d="M119 502q0 217 48 398.5t130.5 302t192 187t231.5 66.5q67 0 133 -20t127 -59t102.5 -71.5t94.5 -80.5l-105 -119q-103 91 -153 123q-103 67 -191 67q-119 0 -219 -102.5t-157.5 -281t-57.5 -392.5q0 -182 55 -285.5t162 -103.5q47 0 102 21.5t106 57t87 65.5t70 63 l53 297h-309l24 147h471l-137 -782h-162l31 172q-208 -195 -381 -195q-157 0 -252.5 133.5t-95.5 391.5zM694 1556l35 195h156l-35 -195h-156z" />
<glyph unicode="&#x121;" horiz-adv-x="1050" d="M-27 -360l60 139q199 -78 340 -78q51 0 92.5 14.5t68.5 37.5t46.5 55.5t29.5 63t15 65.5l41 227q-178 -187 -342 -187q-109 0 -179.5 88.5t-70.5 264.5q0 205 53.5 379.5t155.5 281.5t231 107q62 0 121 -30t93.5 -63.5t72.5 -80.5l26 151h162l-201 -1138 q-19 -109 -55.5 -183.5t-90 -115.5t-116 -58.5t-143.5 -17.5q-193 0 -410 78zM242 354q0 -110 35 -172.5t104 -62.5q80 0 153.5 52.5t157.5 147.5l84 465q-49 76 -109.5 124t-123.5 48q-89 0 -160 -94.5t-106 -230.5t-35 -277zM561 1247l35 195h156l-35 -195h-156z" />
<glyph unicode="&#x122;" horiz-adv-x="1216" d="M119 502q0 217 48 398.5t130.5 302t192 187t231.5 66.5q67 0 133 -20t127 -59t102.5 -71.5t94.5 -80.5l-105 -119q-103 91 -153 123q-103 67 -191 67q-119 0 -219 -102.5t-157.5 -281t-57.5 -392.5q0 -182 55 -285.5t162 -103.5q47 0 102 21.5t106 57t87 65.5t70 63 l53 297h-309l24 147h471l-137 -782h-162l31 172q-208 -195 -381 -195q-157 0 -252.5 133.5t-95.5 391.5zM352 -504l109 176h-68l35 199h145l-22 -207l-162 -217z" />
<glyph unicode="&#x123;" horiz-adv-x="1050" d="M-27 -360l60 139q199 -78 340 -78q51 0 92.5 14.5t68.5 37.5t46.5 55.5t29.5 63t15 65.5l41 227q-178 -187 -342 -187q-109 0 -179.5 88.5t-70.5 264.5q0 205 53.5 379.5t155.5 281.5t231 107q62 0 121 -30t93.5 -63.5t72.5 -80.5l26 151h162l-201 -1138 q-19 -109 -55.5 -183.5t-90 -115.5t-116 -58.5t-143.5 -17.5q-193 0 -410 78zM242 354q0 -110 35 -172.5t104 -62.5q80 0 153.5 52.5t157.5 147.5l84 465q-49 76 -109.5 124t-123.5 48q-89 0 -160 -94.5t-106 -230.5t-35 -277zM573 1247l23 207l162 217l37 -49l-109 -176h68 l-35 -199h-146z" />
<glyph unicode="&#x126;" horiz-adv-x="1263" d="M78 0l188 1065h-125l21 113h125l45 256h170l-45 -256h551l45 256h168l-45 -256h129l-21 -113h-129l-186 -1065h-170l119 676h-551l-119 -676h-170zM393 827h551l43 238h-551z" />
<glyph unicode="&#x127;" d="M33 0l215 1217h-107l21 114h106l29 162h162l-29 -162h285l-21 -114h-284l-50 -287q204 168 373 168q127 0 178.5 -87t24.5 -237l-135 -774h-166l133 750q9 59 8 105t-28 74.5t-80 28.5q-78 0 -172 -55t-162 -119l-137 -784h-164z" />
<glyph unicode="&#x128;" horiz-adv-x="518" d="M63 0l254 1434h170l-254 -1434h-170zM168 1610q51 84 88.5 120.5t91.5 36.5q30 0 60 -15.5t50 -34.5t43.5 -34.5t41.5 -15.5q21 0 43 19t59 77l76 -55q-51 -83 -89 -119.5t-93 -36.5q-37 0 -73.5 25t-67.5 49.5t-54 24.5q-20 0 -42 -18.5t-58 -76.5z" />
<glyph unicode="&#x129;" horiz-adv-x="448" d="M33 0l190 1075h162l-188 -1075h-164zM78 1300q51 84 88.5 121t91.5 37q30 0 60 -15.5t50 -34.5t43.5 -34.5t41.5 -15.5q21 0 43 19t59 77l76 -55q-51 -83 -89 -119.5t-93 -36.5q-37 0 -73.5 24.5t-67.5 49t-54 24.5q-20 0 -42 -18t-58 -76z" />
<glyph unicode="&#x12a;" horiz-adv-x="516" d="M63 0l254 1434h170l-254 -1434h-170zM182 1587l21 113h493l-20 -113h-494z" />
<glyph unicode="&#x12b;" horiz-adv-x="446" d="M33 0l190 1075h162l-188 -1075h-164zM92 1278l21 113h493l-20 -113h-494z" />
<glyph unicode="&#x12c;" horiz-adv-x="516" d="M63 0l254 1434h170l-254 -1434h-170zM217 1755h111q-7 -56 17.5 -82t82.5 -26q67 0 111 26.5t53 81.5h113q-17 -103 -90.5 -161t-190.5 -58q-115 0 -170.5 60t-36.5 159z" />
<glyph unicode="&#x12d;" horiz-adv-x="446" d="M33 0l190 1075h162l-188 -1075h-164zM127 1446h111q-7 -56 17.5 -82.5t82.5 -26.5q67 0 111 27t53 82h112q-17 -103 -90 -161t-190 -58q-115 0 -170.5 60t-36.5 159z" />
<glyph unicode="&#x12e;" horiz-adv-x="514" d="M-94 -238q0 73 51.5 130t148.5 108h-43l254 1434h170l-254 -1434h-6q-101 -62 -149.5 -112t-48.5 -103q0 -9 2.5 -17t5.5 -13.5t9.5 -9.5t11 -7t14 -5t14.5 -3t16.5 -1.5t16 -0.5h16.5h15l-37 -103q-23 0 -36 0.5t-42 4t-47.5 12t-39.5 23t-31.5 39.5t-10.5 58z" />
<glyph unicode="&#x12f;" horiz-adv-x="446" d="M-129 -238q0 73 52 130t149 108h-39l190 1075h162l-188 -1075h-4q-102 -63 -150.5 -112.5t-48.5 -102.5q0 -9 2.5 -17t5.5 -13.5t9.5 -9.5t11 -7t14 -5t14.5 -3t16.5 -1.5t16 -0.5h16.5h15l-37 -103q-23 0 -36 0.5t-42 4t-47.5 12t-39.5 23t-31.5 39.5t-10.5 58z M252 1288l37 199h178l-37 -199h-178z" />
<glyph unicode="&#x130;" horiz-adv-x="516" d="M63 0l254 1434h170l-254 -1434h-170zM348 1556l35 195h156l-35 -195h-156z" />
<glyph unicode="&#x131;" horiz-adv-x="446" d="M33 0l190 1075h162l-188 -1075h-164z" />
<glyph unicode="&#x132;" horiz-adv-x="1030" d="M63 0l254 1434h170l-254 -1434h-170zM356 -162q45 16 76.5 30t55.5 27t40 29t26.5 29.5t18 37t11.5 42t10 53.5l240 1348h167l-235 -1342q-26 -140 -46 -187q-34 -79 -122 -128q-70 -39 -205 -78z" />
<glyph unicode="&#x133;" horiz-adv-x="886" d="M33 0l190 1075h162l-188 -1075h-164zM219 -301q53 19 88 34t61 33.5t40 32.5t25 40.5t15.5 47t12.5 62.5l198 1126h164l-198 -1116q-26 -141 -48 -191q-35 -79 -126 -128q-70 -37 -199 -74zM252 1288l37 199h178l-37 -199h-178zM690 1288l35 199h178l-35 -199h-178z" />
<glyph unicode="&#x134;" horiz-adv-x="514" d="M-160 -162q45 16 76.5 30t55.5 27t40 29t26.5 29.5t18 37t11.5 42t10 53.5l239 1348h168l-235 -1342q-26 -140 -46 -187q-34 -79 -122 -128q-70 -39 -205 -78zM166 1536l213 266h178l121 -266h-111l-108 176l-168 -176h-125z" />
<glyph unicode="&#x135;" horiz-adv-x="446" d="M-217 -301q79 28 122 49.5t68 52.5t33.5 59t18.5 89l198 1126h164l-197 -1116q-26 -141 -48 -190q-35 -80 -126 -129q-70 -38 -202 -76zM74 1227l213 266h178l121 -266h-111l-108 176l-168 -176h-125z" />
<glyph unicode="&#x136;" horiz-adv-x="1136" d="M63 0l254 1434h170l-133 -752l639 752h219l-598 -678l390 -756h-191l-315 625l-193 -222l-72 -403h-170zM293 -504l108 176h-67l35 199h145l-22 -207l-162 -217z" />
<glyph unicode="&#x137;" horiz-adv-x="911" d="M33 0l264 1493h162l-168 -950l430 532h199l-383 -440l243 -635h-168l-186 508l-176 -203l-53 -305h-164zM195 -504l108 176h-67l34 199h146l-23 -207l-162 -217z" />
<glyph unicode="&#x138;" horiz-adv-x="911" d="M33 0l190 1075h162l-94 -534l430 534h199l-383 -440l243 -635h-168l-186 508l-176 -203l-53 -305h-164z" />
<glyph unicode="&#x139;" horiz-adv-x="950" d="M63 0l254 1434h170l-227 -1282h571l-26 -152h-742zM279 1536l243 266h223l-321 -266h-145z" />
<glyph unicode="&#x13a;" horiz-adv-x="464" d="M41 0l264 1493h164l-264 -1493h-164zM262 1595l244 267h223l-321 -267h-146z" />
<glyph unicode="&#x13b;" horiz-adv-x="950" d="M63 0l254 1434h170l-227 -1282h571l-26 -152h-742zM258 -504l109 176h-68l35 199h145l-22 -207l-162 -217z" />
<glyph unicode="&#x13c;" horiz-adv-x="464" d="M-45 -504l108 176h-67l35 199h145l-22 -207l-162 -217zM41 0l264 1493h164l-264 -1493h-164z" />
<glyph unicode="&#x13d;" horiz-adv-x="950" d="M63 0l254 1434h170l-227 -1282h571l-26 -152h-742zM508 1059l108 176h-67l35 199h145l-22 -207l-162 -217z" />
<glyph unicode="&#x13e;" horiz-adv-x="505" d="M41 0l264 1493h164l-264 -1493h-164zM489 1118l109 176h-68l35 199h146l-23 -207l-162 -217z" />
<glyph unicode="&#x13f;" horiz-adv-x="954" d="M63 0l254 1434h170l-227 -1282h571l-26 -152h-742zM668 647l34 195h156l-35 -195h-155z" />
<glyph unicode="&#x140;" horiz-adv-x="520" d="M41 0l264 1493h164l-264 -1493h-164zM414 647l35 195h155l-35 -195h-155z" />
<glyph unicode="&#x141;" horiz-adv-x="964" d="M43 471l29 166l133 76l127 721h170l-109 -611l256 150l-28 -166l-256 -150l-91 -505h572l-27 -152h-741l96 547z" />
<glyph unicode="&#x142;" horiz-adv-x="516" d="M53 537l31 168l123 71l127 717h164l-109 -610l125 73l-29 -170l-127 -73l-125 -713h-163l106 608z" />
<glyph unicode="&#x143;" horiz-adv-x="1261" d="M63 0l254 1434h175l368 -1153l205 1153h170l-254 -1434h-172l-373 1161l-203 -1161h-170zM659 1536l244 266h223l-321 -266h-146z" />
<glyph unicode="&#x144;" d="M33 0l190 1075h162l-27 -145q213 168 375 168q129 0 179.5 -87.5t23.5 -238.5l-135 -772h-164l133 752q8 57 7 103t-28 74.5t-81 28.5q-78 0 -170 -54.5t-164 -119.5l-137 -784h-164zM489 1227l244 266h223l-321 -266h-146z" />
<glyph unicode="&#x145;" horiz-adv-x="1261" d="M63 0l254 1434h175l368 -1153l205 1153h170l-254 -1434h-172l-373 1161l-203 -1161h-170zM362 -504l109 176h-68l35 199h146l-23 -207l-162 -217z" />
<glyph unicode="&#x146;" d="M33 0l190 1075h162l-27 -145q213 168 375 168q129 0 179.5 -87.5t23.5 -238.5l-135 -772h-164l133 752q8 57 7 103t-28 74.5t-81 28.5q-78 0 -170 -54.5t-164 -119.5l-137 -784h-164zM246 -504l108 176h-67l35 199h145l-23 -207l-161 -217z" />
<glyph unicode="&#x147;" horiz-adv-x="1261" d="M63 0l254 1434h175l368 -1153l205 1153h170l-254 -1434h-172l-373 1161l-203 -1161h-170zM596 1802h109l110 -176l166 176h127l-213 -266h-180z" />
<glyph unicode="&#x148;" d="M33 0l190 1075h162l-27 -145q213 168 375 168q129 0 179.5 -87.5t23.5 -238.5l-135 -772h-164l133 752q8 57 7 103t-28 74.5t-81 28.5q-78 0 -170 -54.5t-164 -119.5l-137 -784h-164zM422 1493h108l111 -176l166 176h127l-213 -266h-180z" />
<glyph unicode="&#x149;" d="M33 0l190 1075h162l-27 -145q213 168 375 168q129 0 179.5 -87.5t23.5 -238.5l-135 -772h-164l133 752q8 57 7 103t-28 74.5t-81 28.5q-78 0 -170 -54.5t-164 -119.5l-137 -784h-164zM242 1231l108 176h-67l34 199h146l-23 -207l-161 -217z" />
<glyph unicode="&#x14a;" horiz-adv-x="1261" d="M63 0l254 1434h175l368 -1151l203 1151h170l-238 -1352q-8 -41 -12 -62t-12 -52.5t-15 -47.5t-19 -40.5t-25 -37t-33 -31.5t-43.5 -30.5t-55.5 -26.5t-70 -28t-85 -27l-39 139q109 40 155 71.5t68 90.5l-371 1161l-205 -1161h-170z" />
<glyph unicode="&#x14b;" d="M33 0l190 1075h164l-27 -143q211 166 373 166q127 0 178.5 -88t24.5 -238l-141 -813q-8 -43 -12 -63.5t-12 -54.5t-15 -49.5t-19 -41.5t-25 -39t-33.5 -32.5t-44 -31t-55.5 -27t-70.5 -28t-86.5 -26.5l-35 133q79 28 122 49.5t68 52.5t33.5 59t18.5 89l141 801 q8 58 7 104t-28 75t-81 29q-77 0 -169.5 -54t-162.5 -118l-139 -786h-164z" />
<glyph unicode="&#x14c;" horiz-adv-x="1294" d="M117 504q0 68 10 148t33 172.5t56.5 181t85 170.5t114.5 144t148.5 99t183.5 37q226 0 345 -132t119 -392q0 -68 -10 -148.5t-33 -173.5t-56.5 -181.5t-85.5 -171t-114.5 -144.5t-148.5 -99t-184 -37q-225 0 -344 133.5t-119 393.5zM289 504q0 -373 295 -373 q98 0 179.5 65.5t130.5 161t83 210t47.5 206t13.5 156.5q0 373 -293 373q-99 0 -180.5 -65.5t-131 -161t-83.5 -210t-47.5 -206t-13.5 -156.5zM569 1587l21 113h493l-20 -113h-494z" />
<glyph unicode="&#x14d;" horiz-adv-x="1046" d="M72 389q0 82 13.5 165t40 162.5t68 148.5t95 121t124.5 82t152 30q173 0 278 -102.5t105 -309.5q0 -99 -18.5 -198t-58.5 -191.5t-96.5 -163.5t-138.5 -113.5t-179 -42.5q-173 0 -279 102.5t-106 309.5zM236 387q0 -272 221 -272q66 0 122 40.5t92.5 103.5t63 141 t38 151.5t11.5 136.5q0 273 -221 273q-66 0 -122 -40.5t-92.5 -103.5t-63 -141t-38 -152t-11.5 -137zM393 1278l21 113h493l-20 -113h-494z" />
<glyph unicode="&#x14e;" horiz-adv-x="1294" d="M117 504q0 68 10 148t33 172.5t56.5 181t85 170.5t114.5 144t148.5 99t183.5 37q226 0 345 -132t119 -392q0 -68 -10 -148.5t-33 -173.5t-56.5 -181.5t-85.5 -171t-114.5 -144.5t-148.5 -99t-184 -37q-225 0 -344 133.5t-119 393.5zM289 504q0 -373 295 -373 q98 0 179.5 65.5t130.5 161t83 210t47.5 206t13.5 156.5q0 373 -293 373q-99 0 -180.5 -65.5t-131 -161t-83.5 -210t-47.5 -206t-13.5 -156.5zM604 1755h111q-7 -56 17.5 -82t82.5 -26q67 0 111 26.5t53 81.5h113q-17 -103 -90.5 -161t-190.5 -58q-115 0 -170.5 60 t-36.5 159z" />
<glyph unicode="&#x14f;" horiz-adv-x="1046" d="M72 389q0 82 13.5 165t40 162.5t68 148.5t95 121t124.5 82t152 30q173 0 278 -102.5t105 -309.5q0 -99 -18.5 -198t-58.5 -191.5t-96.5 -163.5t-138.5 -113.5t-179 -42.5q-173 0 -279 102.5t-106 309.5zM236 387q0 -272 221 -272q66 0 122 40.5t92.5 103.5t63 141 t38 151.5t11.5 136.5q0 273 -221 273q-66 0 -122 -40.5t-92.5 -103.5t-63 -141t-38 -152t-11.5 -137zM428 1446h111q-7 -56 17.5 -82.5t82.5 -26.5q67 0 111 27t53 82h112q-17 -103 -90 -161t-190 -58q-115 0 -170.5 60t-36.5 159z" />
<glyph unicode="&#x150;" horiz-adv-x="1294" d="M117 504q0 68 10 148t33 172.5t56.5 181t85 170.5t114.5 144t148.5 99t183.5 37q226 0 345 -132t119 -392q0 -68 -10 -148.5t-33 -173.5t-56.5 -181.5t-85.5 -171t-114.5 -144.5t-148.5 -99t-184 -37q-225 0 -344 133.5t-119 393.5zM289 504q0 -373 295 -373 q98 0 179.5 65.5t130.5 161t83 210t47.5 206t13.5 156.5q0 373 -293 373q-99 0 -180.5 -65.5t-131 -161t-83.5 -210t-47.5 -206t-13.5 -156.5zM596 1536l170 266h182l-248 -266h-104zM858 1536l170 266h182l-247 -266h-105z" />
<glyph unicode="&#x151;" horiz-adv-x="1048" d="M72 389q0 82 13.5 165t40 162.5t68 148.5t95 121t124.5 82t152 30q173 0 278 -102.5t105 -309.5q0 -99 -18.5 -198t-58.5 -191.5t-96.5 -163.5t-138.5 -113.5t-179 -42.5q-173 0 -279 102.5t-106 309.5zM236 387q0 -272 221 -272q66 0 122 40.5t92.5 103.5t63 141 t38 151.5t11.5 136.5q0 273 -221 273q-66 0 -122 -40.5t-92.5 -103.5t-63 -141t-38 -152t-11.5 -137zM420 1227l170 266h182l-248 -266h-104zM682 1227l170 266h182l-248 -266h-104z" />
<glyph unicode="&#x152;" horiz-adv-x="1878" d="M117 504q0 68 10 148t33 172.5t56.5 181t85 170.5t114.5 144t148.5 99t183.5 37q267 0 380 -180l29 158h756l-27 -154h-586l-86 -487h484l-27 -152h-483l-88 -487h600l-29 -154h-768l23 127q-147 -150 -346 -150q-225 0 -344 133.5t-119 393.5zM289 504q0 -373 295 -373 q98 0 179.5 65.5t130.5 161t83 210t47.5 206t13.5 156.5q0 373 -293 373q-99 0 -180.5 -65.5t-131 -161t-83.5 -210t-47.5 -206t-13.5 -156.5z" />
<glyph unicode="&#x153;" horiz-adv-x="1660" d="M72 389q0 82 13.5 165t40 162.5t68 148.5t95 121t124.5 82t152 30q120 0 210 -50t134 -151q69 96 167.5 148.5t217.5 52.5q140 0 220.5 -73.5t80.5 -193.5q0 -180 -148 -275t-419 -95h-92v-47q0 -145 47 -223t139 -78q33 0 68.5 8.5t77 28.5t63.5 31.5t67.5 39.5t51.5 31 l59 -119q-246 -156 -415 -156q-101 0 -175 50.5t-112 150.5q-139 -201 -350 -201q-173 0 -279 102.5t-106 309.5zM236 387q0 -272 221 -272q66 0 122 40.5t92.5 103.5t63 141t38 151.5t11.5 136.5q0 273 -221 273q-66 0 -122 -40.5t-92.5 -103.5t-63 -141t-38 -152 t-11.5 -137zM948 571h92q194 0 296 71t102 183q0 67 -44 104.5t-112 37.5q-120 0 -211 -111.5t-123 -284.5z" />
<glyph unicode="&#x154;" horiz-adv-x="1189" d="M63 0l254 1434h433q200 0 307.5 -83t107.5 -251q0 -190 -108 -317.5t-293 -161.5l213 -621h-176l-197 608h-262l-109 -608h-170zM367 754h256q171 0 268.5 87.5t97.5 243.5q0 105 -68.5 154t-185.5 49h-274zM647 1536l244 266h223l-321 -266h-146z" />
<glyph unicode="&#x155;" horiz-adv-x="675" d="M33 0l190 1075h162l-41 -229q57 92 111 142q120 112 262 99l-29 -161q-80 0 -149.5 -36t-112 -87t-73.5 -102t-43 -87l-13 -36l-100 -578h-164zM354 1227l244 266h223l-321 -266h-146z" />
<glyph unicode="&#x156;" horiz-adv-x="1189" d="M63 0l254 1434h433q200 0 307.5 -83t107.5 -251q0 -190 -108 -317.5t-293 -161.5l213 -621h-176l-197 608h-262l-109 -608h-170zM313 -504l109 176h-68l35 199h146l-23 -207l-162 -217zM367 754h256q171 0 268.5 87.5t97.5 243.5q0 105 -68.5 154t-185.5 49h-274z" />
<glyph unicode="&#x157;" horiz-adv-x="673" d="M-57 -504l108 176h-67l34 199h146l-23 -207l-161 -217zM33 0l190 1075h162l-41 -229q57 92 111 142q120 112 262 99l-29 -161q-80 0 -149.5 -36t-112 -87t-73.5 -102t-43 -87l-13 -36l-100 -578h-164z" />
<glyph unicode="&#x158;" horiz-adv-x="1189" d="M63 0l254 1434h433q200 0 307.5 -83t107.5 -251q0 -190 -108 -317.5t-293 -161.5l213 -621h-176l-197 608h-262l-109 -608h-170zM367 754h256q171 0 268.5 87.5t97.5 243.5q0 105 -68.5 154t-185.5 49h-274zM584 1802h108l111 -176l166 176h127l-213 -266h-181z" />
<glyph unicode="&#x159;" horiz-adv-x="673" d="M33 0l190 1075h162l-41 -229q57 92 111 142q120 112 262 99l-29 -161q-80 0 -149.5 -36t-112 -87t-73.5 -102t-43 -87l-13 -36l-100 -578h-164zM287 1493h108l111 -176l166 176h127l-213 -266h-180z" />
<glyph unicode="&#x15a;" horiz-adv-x="1067" d="M10 152l101 127q207 -150 372 -150q117 0 197 67t80 179q0 42 -14 78t-36 63.5t-57 54t-70 48t-82 47.5q-15 8 -22 12q-56 33 -92 57.5t-77 61t-64.5 72.5t-39.5 86t-16 108q0 175 122 284t311 109q115 0 228.5 -40.5t205.5 -98.5l-99 -125q-74 47 -166.5 80t-168.5 33 q-104 0 -178 -62t-74 -172q0 -45 14.5 -79.5t47.5 -64t69.5 -53t97.5 -58.5q6 -3 9.5 -5t8.5 -5t9 -5q57 -34 95 -59t82.5 -64.5t71 -78.5t44.5 -94t18 -118q0 -122 -62 -217t-165 -144t-228 -49q-133 0 -256 51.5t-217 123.5zM551 1536l244 266h223l-322 -266h-145z" />
<glyph unicode="&#x15b;" horiz-adv-x="892" d="M-4 119l88 117q72 -50 154.5 -85.5t152.5 -35.5q81 0 140 46t59 126q0 16 -3 30.5t-7 26.5t-13.5 24t-16.5 20t-22 18.5t-24 16.5t-28.5 16.5t-29.5 15t-33.5 16t-33.5 16.5q-56 27 -93 49.5t-77.5 59t-61 85.5t-20.5 110q0 140 99 223.5t251 83.5q99 0 195 -35.5 t164 -83.5l-84 -113q-150 95 -273 95q-78 0 -132 -42.5t-54 -113.5q0 -16 3.5 -31t8 -27t14 -24t16.5 -20.5t21.5 -18.5t23.5 -16t26.5 -15t26 -13t29 -13.5t27.5 -12.5q65 -32 107.5 -58.5t82.5 -64.5t59.5 -86.5t19.5 -109.5q0 -147 -104 -232.5t-261 -85.5 q-197 0 -397 142zM416 1227l243 266h224l-322 -266h-145z" />
<glyph unicode="&#x15c;" horiz-adv-x="1067" d="M10 152l101 127q207 -150 372 -150q117 0 197 67t80 179q0 42 -14 78t-36 63.5t-57 54t-70 48t-82 47.5q-15 8 -22 12q-56 33 -92 57.5t-77 61t-64.5 72.5t-39.5 86t-16 108q0 175 122 284t311 109q115 0 228.5 -40.5t205.5 -98.5l-99 -125q-74 47 -166.5 80t-168.5 33 q-104 0 -178 -62t-74 -172q0 -45 14.5 -79.5t47.5 -64t69.5 -53t97.5 -58.5q6 -3 9.5 -5t8.5 -5t9 -5q57 -34 95 -59t82.5 -64.5t71 -78.5t44.5 -94t18 -118q0 -122 -62 -217t-165 -144t-228 -49q-133 0 -256 51.5t-217 123.5zM440 1536l213 266h178l121 -266h-110l-109 176 l-168 -176h-125z" />
<glyph unicode="&#x15d;" horiz-adv-x="892" d="M-4 119l88 117q72 -50 154.5 -85.5t152.5 -35.5q81 0 140 46t59 126q0 16 -3 30.5t-7 26.5t-13.5 24t-16.5 20t-22 18.5t-24 16.5t-28.5 16.5t-29.5 15t-33.5 16t-33.5 16.5q-56 27 -93 49.5t-77.5 59t-61 85.5t-20.5 110q0 140 99 223.5t251 83.5q99 0 195 -35.5 t164 -83.5l-84 -113q-150 95 -273 95q-78 0 -132 -42.5t-54 -113.5q0 -16 3.5 -31t8 -27t14 -24t16.5 -20.5t21.5 -18.5t23.5 -16t26.5 -15t26 -13t29 -13.5t27.5 -12.5q65 -32 107.5 -58.5t82.5 -64.5t59.5 -86.5t19.5 -109.5q0 -147 -104 -232.5t-261 -85.5 q-197 0 -397 142zM305 1227l213 266h178l121 -266h-110l-109 176l-168 -176h-125z" />
<glyph unicode="&#x15e;" horiz-adv-x="1067" d="M10 152l101 127q207 -150 372 -150q117 0 197 67t80 179q0 42 -14 78t-36 63.5t-57 54t-70 48t-82 47.5q-15 8 -22 12q-56 33 -92 57.5t-77 61t-64.5 72.5t-39.5 86t-16 108q0 175 122 284t311 109q115 0 228.5 -40.5t205.5 -98.5l-99 -125q-74 47 -166.5 80t-168.5 33 q-104 0 -178 -62t-74 -172q0 -45 14.5 -79.5t47.5 -64t69.5 -53t97.5 -58.5q6 -3 9.5 -5t8.5 -5t9 -5q57 -34 95 -59t82.5 -64.5t71 -78.5t44.5 -94t18 -118q0 -176 -121.5 -287t-302.5 -120q29 -65 29 -130q0 -93 -55 -147.5t-144 -54.5q-81 0 -137 39l53 98q41 -25 84 -25 q44 0 74.5 29.5t30.5 91.5q0 34 -17 99q-120 10 -230 59t-192 113z" />
<glyph unicode="&#x15f;" horiz-adv-x="892" d="M-4 119l88 117q72 -50 154.5 -85.5t152.5 -35.5q81 0 140 46t59 126q0 16 -3 30.5t-7 26.5t-13.5 24t-16.5 20t-22 18.5t-24 16.5t-28.5 16.5t-29.5 15t-33.5 16t-33.5 16.5q-56 27 -93 49.5t-77.5 59t-61 85.5t-20.5 110q0 140 99 223.5t251 83.5q99 0 195 -35.5 t164 -83.5l-84 -113q-150 95 -273 95q-78 0 -132 -42.5t-54 -113.5q0 -16 3.5 -31t8 -27t14 -24t16.5 -20.5t21.5 -18.5t23.5 -16t26.5 -15t26 -13t29 -13.5t27.5 -12.5q65 -32 107.5 -58.5t82.5 -64.5t59.5 -86.5t19.5 -109.5q0 -137 -92.5 -221.5t-235.5 -93.5 q29 -65 29 -130q0 -93 -55 -147.5t-144 -54.5q-81 0 -137 39l53 98q41 -25 84 -25q44 0 74.5 29.5t30.5 91.5q0 41 -15 99q-184 15 -354 139z" />
<glyph unicode="&#x160;" horiz-adv-x="1067" d="M10 152l101 127q207 -150 372 -150q117 0 197 67t80 179q0 42 -14 78t-36 63.5t-57 54t-70 48t-82 47.5q-15 8 -22 12q-56 33 -92 57.5t-77 61t-64.5 72.5t-39.5 86t-16 108q0 175 122 284t311 109q115 0 228.5 -40.5t205.5 -98.5l-99 -125q-74 47 -166.5 80t-168.5 33 q-104 0 -178 -62t-74 -172q0 -45 14.5 -79.5t47.5 -64t69.5 -53t97.5 -58.5q6 -3 9.5 -5t8.5 -5t9 -5q57 -34 95 -59t82.5 -64.5t71 -78.5t44.5 -94t18 -118q0 -122 -62 -217t-165 -144t-228 -49q-133 0 -256 51.5t-217 123.5zM487 1802h109l111 -176l165 176h127l-213 -266 h-180z" />
<glyph unicode="&#x161;" horiz-adv-x="890" d="M-4 119l88 117q72 -50 154.5 -85.5t152.5 -35.5q81 0 140 46t59 126q0 16 -3 30.5t-7 26.5t-13.5 24t-16.5 20t-22 18.5t-24 16.5t-28.5 16.5t-29.5 15t-33.5 16t-33.5 16.5q-56 27 -93 49.5t-77.5 59t-61 85.5t-20.5 110q0 140 99 223.5t251 83.5q99 0 195 -35.5 t164 -83.5l-84 -113q-150 95 -273 95q-78 0 -132 -42.5t-54 -113.5q0 -16 3.5 -31t8 -27t14 -24t16.5 -20.5t21.5 -18.5t23.5 -16t26.5 -15t26 -13t29 -13.5t27.5 -12.5q65 -32 107.5 -58.5t82.5 -64.5t59.5 -86.5t19.5 -109.5q0 -147 -104 -232.5t-261 -85.5 q-197 0 -397 142zM348 1493h109l110 -176l166 176h127l-213 -266h-180z" />
<glyph unicode="&#x162;" horiz-adv-x="972" d="M121 -313l53 98q41 -25 84 -25t73.5 29.5t30.5 91.5q0 49 -20 119h-49l225 1280h-360l28 154h891l-28 -154h-361l-225 -1280h-45q39 -65 39 -150q0 -93 -55 -147.5t-144 -54.5q-81 0 -137 39z" />
<glyph unicode="&#x163;" horiz-adv-x="663" d="M8 -313l53 98q41 -25 84 -25q44 0 74.5 29.5t30.5 91.5q0 32 -17 103q-73 15 -106 82.5t-10 195.5l121 682h-121l22 131h123l47 268l170 43l-55 -311h240l-25 -131h-240l-123 -702q-20 -115 58 -115q13 0 30 3.5t39 11t34 12t36.5 15t26.5 11.5l41 -133 q-124 -55 -226 -67q29 -65 29 -130q0 -93 -55 -147.5t-144 -54.5q-81 0 -137 39z" />
<glyph unicode="&#x164;" horiz-adv-x="972" d="M158 1280l28 154h891l-28 -154h-361l-225 -1280h-170l225 1280h-360zM440 1802h109l110 -176l166 176h127l-213 -266h-180z" />
<glyph unicode="&#x165;" horiz-adv-x="661" d="M117 262l121 682h-121l22 131h123l47 268l170 43l-55 -311h240l-25 -131h-240l-123 -702q-20 -115 58 -115q13 0 30 3.5t39 11t34 12t36.5 15t26.5 11.5l41 -133q-165 -70 -258 -70q-96 0 -144 68t-22 217zM547 1231l108 176h-67l35 199h145l-23 -207l-161 -217z" />
<glyph unicode="&#x166;" horiz-adv-x="993" d="M166 1280l29 154h890l-28 -154h-361l-123 -696h179l-19 -115h-180l-82 -469h-170l82 469h-174l20 115h174l123 696h-360z" />
<glyph unicode="&#x167;" horiz-adv-x="661" d="M84 571l20 113h86l48 260h-121l22 131h123l47 268l170 43l-55 -311h240l-25 -131h-240l-47 -260h191l-21 -113h-188l-58 -329q-20 -115 58 -115q13 0 30 3.5t39 11t34 12t36.5 15t26.5 11.5l41 -133q-165 -70 -258 -70q-96 0 -144 68t-22 217l55 309h-88z" />
<glyph unicode="&#x168;" horiz-adv-x="1218" d="M123.5 329.5q2.5 77.5 15.5 166.5l166 938h170l-168 -955q-11 -61 -14 -109t6 -94.5t32.5 -77t69 -49t111.5 -18.5q82 0 145 26.5t103.5 76t64.5 109t37 136.5l170 955h170l-170 -959q-20 -110 -55.5 -195.5t-95.5 -156t-155 -108.5t-220 -38q-105 0 -180.5 26t-118 72.5 t-64.5 111.5t-19.5 142.5zM518 1610q51 84 88.5 120.5t91.5 36.5q30 0 60 -15.5t50 -34.5t43.5 -34.5t41.5 -15.5q21 0 43 19t59 77l76 -55q-51 -83 -89 -119.5t-93 -36.5q-37 0 -73.5 25t-67.5 49.5t-54 24.5q-20 0 -42 -18.5t-58 -76.5z" />
<glyph unicode="&#x169;" d="M80 303l135 772h164l-133 -749q-17 -97 4 -153t98 -56t172 56t162 118l137 784h164l-190 -1075h-162l24 145q-209 -168 -372 -168q-129 0 -179.5 87.5t-23.5 238.5zM377 1300q51 84 88.5 121t91.5 37q30 0 60 -15.5t50 -34.5t43.5 -34.5t41.5 -15.5q21 0 43 19t59 77 l76 -55q-51 -83 -89 -119.5t-93 -36.5q-37 0 -73.5 24.5t-67.5 49t-54 24.5q-20 0 -42 -18t-58 -76z" />
<glyph unicode="&#x16a;" horiz-adv-x="1218" d="M123.5 329.5q2.5 77.5 15.5 166.5l166 938h170l-168 -955q-11 -61 -14 -109t6 -94.5t32.5 -77t69 -49t111.5 -18.5q82 0 145 26.5t103.5 76t64.5 109t37 136.5l170 955h170l-170 -959q-20 -110 -55.5 -195.5t-95.5 -156t-155 -108.5t-220 -38q-105 0 -180.5 26t-118 72.5 t-64.5 111.5t-19.5 142.5zM532 1587l21 113h494l-21 -113h-494z" />
<glyph unicode="&#x16b;" d="M80 303l135 772h164l-133 -749q-17 -97 4 -153t98 -56t172 56t162 118l137 784h164l-190 -1075h-162l24 145q-209 -168 -372 -168q-129 0 -179.5 87.5t-23.5 238.5zM385 1278l21 113h493l-20 -113h-494z" />
<glyph unicode="&#x16c;" horiz-adv-x="1218" d="M123.5 329.5q2.5 77.5 15.5 166.5l166 938h170l-168 -955q-11 -61 -14 -109t6 -94.5t32.5 -77t69 -49t111.5 -18.5q82 0 145 26.5t103.5 76t64.5 109t37 136.5l170 955h170l-170 -959q-20 -110 -55.5 -195.5t-95.5 -156t-155 -108.5t-220 -38q-105 0 -180.5 26t-118 72.5 t-64.5 111.5t-19.5 142.5zM567 1755h111q-7 -56 17.5 -82t82.5 -26q67 0 111 26.5t53 81.5h113q-17 -103 -90.5 -161t-190.5 -58q-115 0 -170.5 60t-36.5 159z" />
<glyph unicode="&#x16d;" d="M80 303l135 772h164l-133 -749q-17 -97 4 -153t98 -56t172 56t162 118l137 784h164l-190 -1075h-162l24 145q-209 -168 -372 -168q-129 0 -179.5 87.5t-23.5 238.5zM420 1446h110q-14 -109 101 -109q67 0 111 27t53 82h112q-17 -103 -90 -161t-190 -58q-115 0 -170.5 60 t-36.5 159z" />
<glyph unicode="&#x16e;" horiz-adv-x="1218" d="M123.5 329.5q2.5 77.5 15.5 166.5l166 938h170l-168 -955q-11 -61 -14 -109t6 -94.5t32.5 -77t69 -49t111.5 -18.5q82 0 145 26.5t103.5 76t64.5 109t37 136.5l170 955h170l-170 -959q-20 -110 -55.5 -195.5t-95.5 -156t-155 -108.5t-220 -38q-105 0 -180.5 26t-118 72.5 t-64.5 111.5t-19.5 142.5zM606 1714q0 84 57.5 141.5t141.5 57.5q83 0 141 -58t58 -141q0 -84 -57.5 -141t-141.5 -57q-85 0 -142 56.5t-57 141.5zM698 1714q0 -44 31.5 -75t75.5 -31q43 0 74.5 31t31.5 75t-31.5 75.5t-74.5 31.5q-44 0 -75.5 -31.5t-31.5 -75.5z" />
<glyph unicode="&#x16f;" d="M80 303l135 772h164l-133 -749q-17 -97 4 -153t98 -56t172 56t162 118l137 784h164l-190 -1075h-162l24 145q-209 -168 -372 -168q-129 0 -179.5 87.5t-23.5 238.5zM459 1405q0 84 57 141.5t141 57.5q83 0 141 -58t58 -141q0 -84 -57.5 -141.5t-141.5 -57.5 q-85 0 -141.5 57t-56.5 142zM551 1405q0 -44 31 -75.5t75 -31.5q43 0 75 31.5t32 75.5t-32 75t-75 31q-44 0 -75 -31t-31 -75z" />
<glyph unicode="&#x170;" horiz-adv-x="1218" d="M123.5 329.5q2.5 77.5 15.5 166.5l166 938h170l-168 -955q-11 -61 -14 -109t6 -94.5t32.5 -77t69 -49t111.5 -18.5q82 0 145 26.5t103.5 76t64.5 109t37 136.5l170 955h170l-170 -959q-20 -110 -55.5 -195.5t-95.5 -156t-155 -108.5t-220 -38q-105 0 -180.5 26t-118 72.5 t-64.5 111.5t-19.5 142.5zM559 1536l170 266h182l-247 -266h-105zM821 1536l170 266h183l-248 -266h-105z" />
<glyph unicode="&#x171;" d="M80 303l135 772h164l-133 -749q-17 -97 4 -153t98 -56t172 56t162 118l137 784h164l-190 -1075h-162l24 145q-209 -168 -372 -168q-129 0 -179.5 87.5t-23.5 238.5zM412 1227l170 266h182l-248 -266h-104zM674 1227l170 266h182l-248 -266h-104z" />
<glyph unicode="&#x172;" horiz-adv-x="1218" d="M123.5 329.5q2.5 77.5 15.5 166.5l166 938h170l-168 -955q-11 -61 -14 -109t6 -94.5t32.5 -77t69 -49t111.5 -18.5q82 0 145 26.5t103.5 76t64.5 109t37 136.5l170 955h170l-170 -959q-72 -401 -362 -477q-101 -63 -148 -111.5t-47 -101.5q0 -9 2.5 -17t5.5 -13.5 t9.5 -9.5t11 -7t14 -5t14.5 -3t16.5 -1.5t16 -0.5h16.5h15l-37 -103q-23 0 -36 0.5t-42 4t-47.5 12t-39.5 23t-31.5 39.5t-10.5 58q0 122 160 215h-6q-105 0 -180.5 26t-118 72.5t-64.5 111.5t-19.5 142.5z" />
<glyph unicode="&#x173;" d="M80 303l135 772h164l-133 -749q-17 -97 4 -153t98 -56t172 56t162 118l137 784h164l-190 -1075h-7q-101 -62 -149.5 -112t-48.5 -103q0 -9 2.5 -17t5.5 -13.5t9.5 -9.5t11 -7t14 -5t14.5 -3t16.5 -1.5t16 -0.5h16.5h15l-37 -103q-23 0 -36 0.5t-42 4t-47.5 12t-39.5 23 t-31.5 39.5t-10.5 58q0 73 52 130t149 108h-35l24 145q-209 -168 -372 -168q-129 0 -179.5 87.5t-23.5 238.5z" />
<glyph unicode="&#x174;" horiz-adv-x="1603" d="M203 1434h184l23 -1178l454 1178h152l35 -1178l436 1178h194l-573 -1434h-176l-39 1155l-444 -1155h-177zM707 1536l213 266h178l121 -266h-111l-109 176l-168 -176h-124z" />
<glyph unicode="&#x175;" horiz-adv-x="1390" d="M139 1075h170l35 -868l358 868h140l49 -862l338 862h178l-463 -1075h-156l-55 840l-354 -840h-156zM545 1227l213 266h178l121 -266h-111l-108 176l-168 -176h-125z" />
<glyph unicode="&#x177;" horiz-adv-x="958" d="M-35 -295q133 53 198.5 106.5t123.5 163.5l-158 1100h168l100 -872l408 872h180l-534 -1075l-38 -76t-34 -64.5t-35.5 -59.5t-36 -49t-42.5 -47t-47.5 -38t-59.5 -37.5t-70 -31t-86 -31.5zM328 1227l213 266h178l121 -266h-111l-108 176l-168 -176h-125z" />
<glyph unicode="&#x178;" horiz-adv-x="1083" d="M174 1434h178l197 -713l442 713h199l-576 -863l-100 -571h-168l98 567zM481 1556l35 193h154l-35 -193h-154zM772 1556l35 193h151l-32 -193h-154z" />
<glyph unicode="&#x179;" horiz-adv-x="1058" d="M-33 0l25 139l868 1141h-631l27 154h850l-25 -138l-868 -1142h678l-27 -154h-897zM557 1536l244 266h223l-322 -266h-145z" />
<glyph unicode="&#x17a;" horiz-adv-x="886" d="M-33 0l25 131l665 801h-510l27 143h711l-23 -131l-667 -801h528l-27 -143h-729zM406 1227l243 266h223l-321 -266h-145z" />
<glyph unicode="&#x17b;" horiz-adv-x="1058" d="M-33 0l25 139l868 1141h-631l27 154h850l-25 -138l-868 -1142h678l-27 -154h-897zM627 1556l35 195h155l-35 -195h-155z" />
<glyph unicode="&#x17c;" horiz-adv-x="886" d="M-33 0l25 131l665 801h-510l27 143h711l-23 -131l-667 -801h528l-27 -143h-729zM473 1247l35 195h156l-35 -195h-156z" />
<glyph unicode="&#x17d;" horiz-adv-x="1058" d="M-33 0l25 139l868 1141h-631l27 154h850l-25 -138l-868 -1142h678l-27 -154h-897zM489 1802h109l111 -176l165 176h127l-213 -266h-180z" />
<glyph unicode="&#x17e;" horiz-adv-x="886" d="M-33 0l25 131l665 801h-510l27 143h711l-23 -131l-667 -801h528l-27 -143h-729zM340 1493h109l110 -176l166 176h127l-213 -266h-180z" />
<glyph unicode="&#x17f;" horiz-adv-x="534" d="M-170 -301q149 53 186 105t66 219l162 921h-119l25 131h116l27 150q25 140 79.5 204t155.5 64q66 0 144.5 -25t134.5 -53l-78 -115q-115 46 -176 46q-73 0 -96 -117l-209 -1196q-11 -64 -17 -93.5t-16 -76t-19.5 -66.5t-24.5 -51.5t-34 -46.5t-44 -36.5t-59 -35.5 t-75 -29.5t-96 -31.5z" />
<glyph unicode="&#x192;" horiz-adv-x="942" d="M-109 -418l498 1362h-123l53 131h119l56 152q53 149 114.5 207.5t159.5 58.5q69 0 148 -29t133 -59l-99 -113q-123 53 -176 51q-73 -3 -117 -114l-57 -154h242l-51 -131h-238l-498 -1362h-164z" />
<glyph unicode="&#x1fc;" horiz-adv-x="1716" d="M-119 0l1051 1434h819l-27 -154h-585l-86 -487h483l-27 -152h-483l-88 -487h600l-29 -154h-768l62 350h-455l-248 -350h-219zM455 500h374l125 702zM948 1536l244 266h223l-321 -266h-146z" />
<glyph unicode="&#x1fd;" horiz-adv-x="1589" d="M74 330q0 205 53.5 379.5t155.5 281.5t231 107q62 0 121 -30t93.5 -63.5t72.5 -80.5l26 151h164l-8 -41q109 64 238 64q140 0 220.5 -73.5t80.5 -193.5q0 -180 -148.5 -275t-419.5 -95h-92v-47q0 -145 47.5 -223t139.5 -78q33 0 68.5 8.5t76.5 28t64 32t67 39.5t51 31 l60 -119q-246 -156 -416 -156q-131 0 -209 78l-10 -55h-162l29 168q-182 -191 -344 -191q-109 0 -179.5 88.5t-70.5 264.5zM242 354q0 -110 35 -172.5t102 -62.5q82 0 157.5 53.5t157.5 149.5l4 24q-2 33 -2 70q0 211 76 372q-108 168 -229 168q-89 0 -160 -94.5 t-106 -230.5t-35 -277zM778 1227l244 266h223l-321 -266h-146zM874 571h93q194 0 295.5 71t101.5 183q0 67 -44 104.5t-112 37.5q-120 0 -211 -111.5t-123 -284.5z" />
<glyph unicode="&#x1fe;" horiz-adv-x="1294" d="M31 0l149 190q-63 126 -63 314q0 68 10 148t33 172.5t56.5 181t85 170.5t114.5 144t148.5 99t183.5 37q215 0 331 -119l76 97h135l-145 -187q67 -122 67 -315q0 -68 -10 -148.5t-33 -173.5t-56.5 -181.5t-85.5 -171t-114.5 -144.5t-148.5 -99t-184 -37q-216 0 -334 121 l-78 -98h-137zM289 504q0 -90 14 -156l670 852q-73 103 -228 103q-99 0 -180.5 -65.5t-131 -161t-83.5 -210t-47.5 -206t-13.5 -156.5zM352 236q72 -105 232 -105q98 0 179.5 65.5t130.5 161t83 210t47.5 206t13.5 156.5q0 97 -16 160zM666 1536l243 266h224l-322 -266h-145 z" />
<glyph unicode="&#x1ff;" horiz-adv-x="1046" d="M12 0l117 143q-57 94 -57 246q0 82 13.5 165t40 162.5t68 148.5t95 121t124.5 82t152 30q164 0 264 -90l56 67h119l-115 -141q59 -92 59 -248q0 -99 -18.5 -198t-58.5 -191.5t-96.5 -163.5t-138.5 -113.5t-179 -42.5q-166 0 -269 93l-55 -70h-121zM236 387q0 -52 10 -100 l485 600q-56 74 -168 74q-66 0 -122 -40.5t-92.5 -103.5t-63 -141t-38 -152t-11.5 -137zM287 188q55 -73 170 -73q66 0 122 40.5t92.5 103.5t63 141t38 151.5t11.5 136.5q0 51 -10 103zM481 1227l244 266h223l-321 -266h-146z" />
<glyph unicode="&#x218;" horiz-adv-x="1067" d="M10 152l101 127q207 -150 372 -150q117 0 197 67t80 179q0 42 -14 78t-36 63.5t-57 54t-70 48t-82 47.5q-15 8 -22 12q-56 33 -92 57.5t-77 61t-64.5 72.5t-39.5 86t-16 108q0 175 122 284t311 109q115 0 228.5 -40.5t205.5 -98.5l-99 -125q-74 47 -166.5 80t-168.5 33 q-104 0 -178 -62t-74 -172q0 -45 14.5 -79.5t47.5 -64t69.5 -53t97.5 -58.5q6 -3 9.5 -5t8.5 -5t9 -5q57 -34 95 -59t82.5 -64.5t71 -78.5t44.5 -94t18 -118q0 -122 -62 -217t-165 -144t-228 -49q-133 0 -256 51.5t-217 123.5zM256 -504l109 176h-68l35 199h145l-22 -207 l-162 -217z" />
<glyph unicode="&#x219;" horiz-adv-x="892" d="M-4 119l88 117q72 -50 154.5 -85.5t152.5 -35.5q81 0 140 46t59 126q0 16 -3 30.5t-7 26.5t-13.5 24t-16.5 20t-22 18.5t-24 16.5t-28.5 16.5t-29.5 15t-33.5 16t-33.5 16.5q-56 27 -93 49.5t-77.5 59t-61 85.5t-20.5 110q0 140 99 223.5t251 83.5q99 0 195 -35.5 t164 -83.5l-84 -113q-150 95 -273 95q-78 0 -132 -42.5t-54 -113.5q0 -16 3.5 -31t8 -27t14 -24t16.5 -20.5t21.5 -18.5t23.5 -16t26.5 -15t26 -13t29 -13.5t27.5 -12.5q65 -32 107.5 -58.5t82.5 -64.5t59.5 -86.5t19.5 -109.5q0 -147 -104 -232.5t-261 -85.5 q-197 0 -397 142zM166 -504l108 176h-67l35 199h145l-22 -207l-162 -217z" />
<glyph unicode="&#x21a;" horiz-adv-x="974" d="M158 1280l28 154h891l-28 -154h-361l-225 -1280h-170l225 1280h-360zM209 -504l108 176h-67l35 199h145l-22 -207l-162 -217z" />
<glyph unicode="&#x21b;" horiz-adv-x="661" d="M27 -504l108 176h-67l34 199h146l-23 -207l-162 -217zM117 262l121 682h-121l22 131h123l47 268l170 43l-55 -311h240l-25 -131h-240l-123 -702q-20 -115 58 -115q13 0 30 3.5t39 11t34 12t36.5 15t26.5 11.5l41 -133q-165 -70 -258 -70q-96 0 -144 68t-22 217z" />
<glyph unicode="&#x2b0;" horiz-adv-x="698" d="M133 788l158 895h123l-60 -331q130 96 228 96q83 0 116 -54t15 -149l-80 -457h-123l80 441q9 55 -3 86t-57 31q-46 0 -101.5 -31t-92.5 -68l-80 -459h-123z" />
<glyph unicode="&#x2b2;" horiz-adv-x="417" d="M31 621q93 32 116.5 57t34.5 90l117 666h121l-115 -656q-6 -31 -9 -45.5t-9 -38.5t-11.5 -35t-15.5 -28.5t-22 -26.5t-29.5 -22t-39.5 -22t-50 -18.5t-64 -19.5zM315 1550l23 131h129l-23 -131h-129z" />
<glyph unicode="&#x2b7;" horiz-adv-x="839" d="M156 1434h125l20 -496l211 496h100l29 -498l197 498h131l-285 -646h-115l-34 476l-207 -476h-115z" />
<glyph unicode="&#x2b8;" horiz-adv-x="636" d="M94 625q82 30 122 58t73 87l-105 664h127l60 -496l235 496h135l-329 -646q-19 -37 -26 -49.5t-23.5 -42t-26 -40.5t-27.5 -32.5t-34.5 -31.5t-40 -25t-51.5 -25t-62 -20z" />
<glyph unicode="&#x2c6;" horiz-adv-x="471" d="M197 1227l213 266h178l121 -266h-111l-109 176l-167 -176h-125z" />
<glyph unicode="&#x2c7;" horiz-adv-x="475" d="M246 1493h108l111 -176l166 176h127l-213 -266h-180z" />
<glyph unicode="&#x2d8;" horiz-adv-x="458" d="M242 1446h110q-14 -109 101 -109q66 0 110 27t53 82h113q-17 -103 -90 -161t-190 -58q-115 0 -170.5 60t-36.5 159z" />
<glyph unicode="&#x2d9;" horiz-adv-x="145" d="M213 1247l35 195h155l-34 -195h-156z" />
<glyph unicode="&#x2da;" horiz-adv-x="413" d="M135 1405q0 84 57.5 141.5t141.5 57.5q83 0 140.5 -58t57.5 -141q0 -85 -57 -142t-141 -57q-85 0 -142 57t-57 142zM227 1405q0 -44 31.5 -75.5t75.5 -31.5q43 0 74.5 31.5t31.5 75.5t-31.5 75t-74.5 31q-44 0 -75.5 -31t-31.5 -75z" />
<glyph unicode="&#x2db;" horiz-adv-x="258" d="M-63 -238q0 81 62.5 142t182.5 119l80 -21q-104 -65 -153.5 -114.5t-49.5 -102.5q0 -9 2.5 -17t5.5 -13.5t9.5 -9.5t11 -7t14 -5t14.5 -3t16.5 -1.5t16 -0.5h16.5h15l-37 -103q-23 0 -36 0.5t-42 4t-47.5 12t-39 23t-31 39.5t-10.5 58z" />
<glyph unicode="&#x2dc;" horiz-adv-x="497" d="M209 1300q51 84 88.5 121t91.5 37q30 0 60 -15.5t50 -34.5t43.5 -34.5t41.5 -15.5q21 0 43 19t59 77l76 -55q-51 -83 -89 -119.5t-93 -36.5q-37 0 -73.5 24.5t-67.5 49t-54 24.5q-20 0 -42 -18t-58 -76z" />
<glyph unicode="&#x2dd;" horiz-adv-x="534" d="M199 1227l170 266h182l-248 -266h-104zM461 1227l170 266h182l-248 -266h-104z" />
<glyph unicode="&#x2e3;" horiz-adv-x="667" d="M68 788l282 324l-155 322h129l102 -248l190 248h148l-268 -322l166 -324h-132l-110 254l-197 -254h-155z" />
<glyph unicode="&#x3c0;" horiz-adv-x="952" d="M84 0l164 926h-144l27 149h848l-29 -149h-145l-164 -926h-147l163 926h-262l-164 -926h-147z" />
<glyph unicode="&#x1e80;" horiz-adv-x="1603" d="M203 1434h184l23 -1178l454 1178h152l35 -1178l436 1178h194l-573 -1434h-176l-39 1155l-444 -1155h-177zM735 1802h199l164 -266h-129z" />
<glyph unicode="&#x1e81;" horiz-adv-x="1390" d="M139 1075h170l35 -868l358 868h140l49 -862l338 862h178l-463 -1075h-156l-55 840l-354 -840h-156zM578 1493h198l164 -266h-129z" />
<glyph unicode="&#x1e82;" horiz-adv-x="1603" d="M203 1434h184l23 -1178l454 1178h152l35 -1178l436 1178h194l-573 -1434h-176l-39 1155l-444 -1155h-177zM817 1536l244 266h223l-321 -266h-146z" />
<glyph unicode="&#x1e83;" horiz-adv-x="1390" d="M139 1075h170l35 -868l358 868h140l49 -862l338 862h178l-463 -1075h-156l-55 840l-354 -840h-156zM657 1227l244 266h223l-321 -266h-146z" />
<glyph unicode="&#x1e84;" horiz-adv-x="1603" d="M203 1434h184l23 -1178l454 1178h152l35 -1178l436 1178h194l-573 -1434h-176l-39 1155l-444 -1155h-177zM739 1538l35 193h154l-35 -193h-154zM1030 1538l35 193h152l-33 -193h-154z" />
<glyph unicode="&#x1e85;" horiz-adv-x="1390" d="M139 1075h170l35 -868l358 868h140l49 -862l338 862h178l-463 -1075h-156l-55 840l-354 -840h-156zM584 1247l34 193h154l-35 -193h-153zM874 1247l35 193h152l-33 -193h-154z" />
<glyph unicode="&#x1e9e;" horiz-adv-x="1376" d="M63 0l170 965q43 246 161.5 357.5t307.5 111.5h584l-22 -123l-406 -457q105 -15 185.5 -56t128.5 -98.5t72 -123.5t24 -138q0 -83 -30.5 -163t-88 -147.5t-152.5 -109t-211 -41.5q-209 0 -397 129l92 127q155 -104 297 -104q76 0 138 27t100.5 71t59 97.5t20.5 109.5 q0 39 -9 74.5t-35 74.5t-66.5 67t-109 46.5t-157.5 18.5h-88l20 119l396 446h-347q-116 0 -192.5 -78t-108.5 -262l-166 -940h-170z" />
<glyph unicode="&#x1ef2;" horiz-adv-x="1083" d="M174 1434h178l197 -713l442 713h199l-576 -863l-100 -571h-168l98 567zM475 1802h199l164 -266h-129z" />
<glyph unicode="&#x1ef3;" horiz-adv-x="958" d="M-35 -295q133 53 198.5 106.5t123.5 163.5l-158 1100h168l100 -872l408 872h180l-534 -1075l-38 -76t-34 -64.5t-35.5 -59.5t-36 -49t-42.5 -47t-47.5 -38t-59.5 -37.5t-70 -31t-86 -31.5zM360 1493h199l164 -266h-129z" />
<glyph unicode="&#x2000;" horiz-adv-x="956" />
<glyph unicode="&#x2001;" horiz-adv-x="1913" />
<glyph unicode="&#x2002;" horiz-adv-x="956" />
<glyph unicode="&#x2003;" horiz-adv-x="1913" />
<glyph unicode="&#x2004;" horiz-adv-x="637" />
<glyph unicode="&#x2005;" horiz-adv-x="478" />
<glyph unicode="&#x2006;" horiz-adv-x="318" />
<glyph unicode="&#x2007;" horiz-adv-x="318" />
<glyph unicode="&#x2008;" horiz-adv-x="239" />
<glyph unicode="&#x2009;" horiz-adv-x="382" />
<glyph unicode="&#x200a;" horiz-adv-x="106" />
<glyph unicode="&#x2010;" horiz-adv-x="759" d="M117 510l26 145h486l-25 -145h-487z" />
<glyph unicode="&#x2011;" horiz-adv-x="759" d="M117 510l26 145h486l-25 -145h-487z" />
<glyph unicode="&#x2012;" horiz-adv-x="759" d="M117 510l26 145h486l-25 -145h-487z" />
<glyph unicode="&#x2013;" horiz-adv-x="974" d="M117 512l26 143h703l-25 -143h-704z" />
<glyph unicode="&#x2014;" horiz-adv-x="1146" d="M117 512l24 143h877l-25 -143h-876z" />
<glyph unicode="&#x2018;" horiz-adv-x="438" d="M188 950l27 262l201 258l41 -61l-127 -211h80l-43 -248h-179z" />
<glyph unicode="&#x2019;" horiz-adv-x="425" d="M180 975l127 211h-80l43 248h179l-27 -263l-201 -258z" />
<glyph unicode="&#x201a;" horiz-adv-x="454" d="M-16 -211l127 211h-80l43 248h178l-27 -262l-200 -258z" />
<glyph unicode="&#x201c;" horiz-adv-x="759" d="M188 950l27 262l201 258l41 -61l-127 -211h80l-43 -248h-179zM510 950l27 262l200 258l41 -61l-127 -211h80l-43 -248h-178z" />
<glyph unicode="&#x201d;" horiz-adv-x="747" d="M180 975l127 211h-80l43 248h179l-27 -263l-201 -258zM502 975l127 211h-80l43 248h178l-27 -263l-200 -258z" />
<glyph unicode="&#x201e;" horiz-adv-x="778" d="M-16 -211l127 211h-80l43 248h178l-27 -262l-200 -258zM305 -211l127 211h-80l43 248h178l-26 -262l-201 -258z" />
<glyph unicode="&#x2020;" horiz-adv-x="985" d="M90 809l29 149l364 -20l88 496h129l-88 -498l377 22l-26 -149l-371 18l-219 -1245h-129l219 1245z" />
<glyph unicode="&#x2021;" horiz-adv-x="1064" d="M37 270l26 150l365 -19l76 426l-373 -18l27 149l366 -20l88 496h129l-88 -496l375 20l-27 -149l-368 18l-76 -428l377 21l-27 -150l-368 21l-125 -709h-129l125 709z" />
<glyph unicode="&#x2022;" horiz-adv-x="849" d="M160 584q0 107 76 183.5t182 76.5q107 0 183.5 -76.5t76.5 -183.5t-76.5 -182.5t-183.5 -75.5q-106 0 -182 75.5t-76 182.5z" />
<glyph unicode="&#x2026;" horiz-adv-x="1163" d="M29 0l45 248h180l-43 -248h-182zM385 0l45 248h180l-43 -248h-182zM739 0l45 248h181l-43 -248h-183z" />
<glyph unicode="&#x202f;" horiz-adv-x="382" />
<glyph unicode="&#x2030;" horiz-adv-x="2402" d="M154 987q0 84 22 165.5t63 150t109 111t152 42.5q128 0 207 -75.5t79 -223.5q0 -84 -22 -165.5t-63 -150t-109 -111t-152 -42.5q-128 0 -207 75.5t-79 223.5zM287 983q0 -184 157 -184q51 0 93 37t66 94t37 117t13 114q0 185 -155 185q-52 0 -94.5 -37t-66.5 -93.5 t-37 -117t-13 -115.5zM360 0l863 1434h137l-860 -1434h-140zM938 276q0 84 22 165.5t63 150t109 111t152 42.5q128 0 207.5 -76t79.5 -223q0 -84 -22 -165.5t-63 -150t-109 -111t-152 -42.5q-128 0 -207.5 76t-79.5 223zM1071 272q0 -184 158 -184q51 0 93 37t66 94 t37 117.5t13 114.5q0 184 -156 184q-52 0 -94.5 -37t-66.5 -93.5t-37 -117t-13 -115.5zM1649 276q0 84 22 165.5t64 150t110 111t152 42.5q128 0 207.5 -76t79.5 -223q0 -84 -22 -165.5t-63.5 -150t-109.5 -111t-152 -42.5q-129 0 -208.5 75.5t-79.5 223.5zM1782 272 q0 -184 157 -184q52 0 94.5 37t66.5 94t37 117.5t13 114.5q0 184 -155 184q-52 0 -94.5 -37t-67.5 -93.5t-38 -117.5t-13 -115z" />
<glyph unicode="&#x2039;" horiz-adv-x="688" d="M53 518l19 109l587 454l-36 -194l-430 -328l317 -326l-31 -170z" />
<glyph unicode="&#x203a;" horiz-adv-x="688" d="M14 63l37 195l430 328l-317 325l31 170l426 -454l-19 -109z" />
<glyph unicode="&#x2044;" horiz-adv-x="284" d="M-307 0l803 1434h133l-803 -1434h-133z" />
<glyph unicode="&#x205f;" horiz-adv-x="478" />
<glyph unicode="&#x2070;" horiz-adv-x="763" d="M180 1063q0 43 7 99t22.5 125.5t44.5 134.5t67.5 120t97 88t128.5 33q128 0 188 -77.5t60 -213.5q0 -43 -7 -98.5t-22.5 -125t-44.5 -134t-67.5 -119.5t-97 -88t-128.5 -33q-128 0 -188 77t-60 212zM305 1055q0 -39 4 -66.5t16 -54.5t38 -41t65 -14q51 0 94.5 43 t69.5 105t44.5 135t26 129t7.5 91q0 30 -2 53t-10 47.5t-20.5 40.5t-35.5 26t-55 10q-63 0 -113.5 -63.5t-76.5 -152.5t-39 -165.5t-13 -122.5z" />
<glyph unicode="&#x2074;" horiz-adv-x="731" d="M117 971l16 96l442 582h168l-102 -568h113l-21 -110h-110l-33 -183h-125l33 183h-381zM264 1081h252l78 437z" />
<glyph unicode="&#x2075;" horiz-adv-x="679" d="M113 881l71 86q92 -78 178 -78q73 0 132 55t59 146q0 65 -32.5 103t-94.5 38q-71 0 -152 -53l-67 43l115 428h430l-21 -111h-323l-50 -217q46 18 105 18q104 0 161.5 -68t57.5 -173q0 -134 -84.5 -229t-226.5 -95q-140 0 -258 107z" />
<glyph unicode="&#x2076;" horiz-adv-x="718" d="M172 1075q0 154 63 289t175.5 217t246.5 82q35 0 65.5 -5.5t43.5 -11.5l14 -6l-47 -98q-31 10 -74 10q-111 0 -201 -82t-132 -213q79 84 186 84q101 0 158 -69t57 -170q0 -131 -80.5 -229.5t-214.5 -98.5q-126 0 -193 88t-67 213zM297 1071q0 -79 34.5 -132.5t98.5 -53.5 q79 0 124.5 63t45.5 150q0 59 -31 100t-94 41q-55 0 -103.5 -35.5t-72.5 -77.5q-2 -18 -2 -55z" />
<glyph unicode="&#x2077;" horiz-adv-x="589" d="M178 788q18 99 63.5 212t90.5 194.5t104 169t82 117t45 57.5h-350l20 111h494l-18 -101q-13 -16 -36 -43.5t-83.5 -114t-110.5 -172t-99.5 -205t-68.5 -225.5h-133z" />
<glyph unicode="&#x2078;" horiz-adv-x="724" d="M141 985q0 169 228 272q-103 73 -103 179q0 100 76 163.5t195 63.5q105 0 164 -52.5t59 -133.5q0 -139 -178 -228q143 -85 143 -217q0 -114 -92 -186t-232 -72q-122 0 -191 56t-69 155zM268 997q0 -58 37.5 -88t100.5 -30q78 0 134 43.5t56 113.5q0 92 -125 164 q-44 -19 -75 -36t-63 -42t-48.5 -56.5t-16.5 -68.5zM387 1427q0 -32 16 -58.5t32.5 -39.5t43.5 -29q158 66 158 162q0 43 -29 72t-78 29q-60 0 -101.5 -40.5t-41.5 -95.5z" />
<glyph unicode="&#x2079;" horiz-adv-x="718" d="M150 797l49 98q30 -10 71 -10q111 0 202.5 82t133.5 213q-79 -84 -188 -84q-100 0 -156.5 69t-56.5 170q0 131 80.5 229.5t214.5 98.5q84 0 144 -44t87 -110.5t27 -146.5q0 -154 -63 -289t-175.5 -217t-247.5 -82q-34 0 -64.5 6t-43.5 12zM330 1339q0 -58 31.5 -99.5 t93.5 -41.5q57 0 106 37t72 80q2 16 2 51q0 79 -35 132.5t-100 53.5q-78 0 -124 -63t-46 -150z" />
<glyph unicode="&#x207a;" horiz-adv-x="663" d="M160 1151l18 94h217l39 221h96l-38 -221h219l-17 -94h-219l-39 -221h-96l39 221h-219z" />
<glyph unicode="&#x207d;" horiz-adv-x="401" d="M141 750.5q-2 45.5 11 111.5l124 711q9 50 16 75.5t22.5 55.5t40.5 47t66 34.5t103 33.5l23 -82q-83 -29 -106.5 -56t-34.5 -92l-134 -749q-14 -70 -1.5 -96t79.5 -56l-37 -76q-91 27 -130.5 60t-41.5 78.5z" />
<glyph unicode="&#x207e;" horiz-adv-x="399" d="M66 694q83 29 106.5 56t34.5 92l133 749q14 70 1.5 96t-79.5 56l37 76q91 -27 131 -60t42 -78.5t-11 -111.5l-125 -711q-9 -50 -16 -75.5t-22.5 -55.5t-40.5 -47t-66 -34.5t-103 -33.5z" />
<glyph unicode="&#x207f;" horiz-adv-x="700" d="M133 788l115 646h123l-15 -82q126 96 226 96q83 0 116 -54t15 -149l-80 -457h-121l78 441q9 55 -3 86t-57 31q-47 0 -100 -30t-92 -67l-82 -461h-123z" />
<glyph unicode="&#x2080;" horiz-adv-x="763" d="M-12 -33q0 54 9.5 123t35.5 155t65 156t106 118t150 48q128 0 188 -77.5t60 -213.5q0 -53 -9.5 -121.5t-35.5 -155t-65 -156t-106 -117.5t-150 -48q-128 0 -188 77t-60 212zM113 -41q0 -39 4 -66.5t16 -54.5t38 -41t65 -14q51 0 94.5 43t69.5 105.5t44.5 135.5t25.5 129 t7 91q0 39 -4 66.5t-16 54.5t-38 41t-65 14q-51 0 -94.5 -43t-69.5 -105.5t-44.5 -135.5t-25.5 -129t-7 -91z" />
<glyph unicode="&#x2081;" horiz-adv-x="520" d="M2 434l209 119h117l-154 -860h-125l129 725l-133 -74z" />
<glyph unicode="&#x2082;" horiz-adv-x="677" d="M-92 -307l12 74q11 65 35.5 117t72 98t75.5 68.5t96 68.5q9 7 14 10q107 73 158 124t51 109q0 41 -28.5 67t-80.5 26q-93 0 -202 -72l-48 92q132 92 265 92q103 0 162 -53.5t59 -142.5q0 -47 -18.5 -91.5t-43.5 -77t-67.5 -69t-73 -58t-78.5 -52.5q-13 -9 -20 -13 q-82 -57 -120.5 -100.5t-49.5 -106.5h373l-19 -110h-524z" />
<glyph unicode="&#x2083;" horiz-adv-x="681" d="M-94 -219l69 86q105 -76 201 -76q79 0 130.5 46.5t51.5 117.5q0 74 -57 110.5t-139 36.5h-29l19 113h34q78 0 144.5 45t66.5 109q0 40 -27.5 63t-74.5 23q-91 0 -191 -66l-43 90q136 88 261 88q97 0 150.5 -49t53.5 -125q0 -71 -47 -133t-135 -96q62 -21 101.5 -77 t39.5 -132q0 -51 -18.5 -99.5t-54.5 -88.5t-95 -64.5t-133 -24.5q-150 0 -278 103z" />
<glyph unicode="&#x2084;" horiz-adv-x="731" d="M-76 -125l17 96l442 582h168l-102 -567h112l-20 -111h-111l-33 -182h-125l33 182h-381zM72 -14h252l77 436z" />
<glyph unicode="&#x2085;" horiz-adv-x="677" d="M-80 -215l72 86q92 -78 178 -78q73 0 131.5 55t58.5 146q0 65 -32.5 103t-94.5 38q-70 0 -151 -53l-68 43l115 428h430l-20 -111h-324l-49 -217q49 19 104 19q104 0 161.5 -68t57.5 -174q0 -134 -84.5 -229t-226.5 -95q-140 0 -258 107z" />
<glyph unicode="&#x2086;" horiz-adv-x="720" d="M-20 -20q0 154 63 289t175 216.5t247 81.5q35 0 65.5 -5.5t43.5 -11.5l14 -5l-47 -99q-31 11 -74 11q-111 0 -201.5 -82t-132.5 -213q79 84 186 84q101 0 158.5 -69.5t57.5 -170.5q0 -131 -80.5 -229.5t-214.5 -98.5q-85 0 -145.5 44t-87.5 111t-27 147zM104 -25 q0 -79 35 -132.5t99 -53.5q79 0 124.5 63t45.5 150q0 59 -31 100t-94 41q-55 0 -104 -35t-73 -77q-2 -18 -2 -56z" />
<glyph unicode="&#x2087;" horiz-adv-x="589" d="M-16 -307q18 99 63.5 212t90.5 194.5t104.5 169t81.5 116.5t45 57h-351l21 111h493l-18 -100q-13 -16 -36 -43.5t-83 -114t-110 -172t-99.5 -205t-68.5 -225.5h-133z" />
<glyph unicode="&#x2088;" horiz-adv-x="724" d="M-51 -111q0 170 227 273q-102 72 -102 178q0 100 75.5 163.5t194.5 63.5q105 0 164 -52.5t59 -133.5q0 -138 -178 -227q143 -85 143 -217q0 -114 -92 -186.5t-231 -72.5q-122 0 -191 56t-69 155zM76 -98q0 -58 37.5 -88.5t99.5 -30.5q78 0 134 44t56 114q0 92 -124 163 q-44 -19 -75 -36t-63 -41.5t-48.5 -56t-16.5 -68.5zM195 332q0 -32 16 -58.5t32.5 -39.5t43.5 -29q157 66 157 162q0 43 -28.5 71.5t-77.5 28.5q-61 0 -102 -40t-41 -95z" />
<glyph unicode="&#x2089;" horiz-adv-x="718" d="M-43 -299l49 98q31 -10 72 -10q111 0 202.5 82t133.5 213q-79 -84 -189 -84q-100 0 -156.5 69.5t-56.5 170.5q0 131 80.5 229t214.5 98q84 0 144 -44t87 -110.5t27 -146.5q0 -154 -63 -289t-175.5 -217t-246.5 -82q-34 0 -64.5 6t-44.5 12zM137 244q0 -58 31.5 -100 t93.5 -42q57 0 106 37t72 80q2 16 2 51q0 79 -35 133t-100 54q-78 0 -124 -63t-46 -150z" />
<glyph unicode="&#x208a;" horiz-adv-x="663" d="M-35 55l19 95h217l39 221h96l-39 -221h219l-16 -95h-219l-39 -221h-97l39 221h-219z" />
<glyph unicode="&#x208d;" horiz-adv-x="403" d="M-52 -344.5q-2 45.5 11 111.5l125 710q9 50 16 75.5t22.5 55.5t40.5 47t66 34.5t103 33.5l22 -82q-83 -30 -106.5 -56t-34.5 -91l-133 -750q-14 -70 -1.5 -96t79.5 -56l-37 -75q-91 27 -131 60t-42 78.5z" />
<glyph unicode="&#x208e;" horiz-adv-x="399" d="M-129 -401q83 30 106.5 56t34.5 91l133 750q14 70 2 95.5t-79 55.5l36 76q91 -27 131 -60t42 -78.5t-11 -111.5l-125 -711q-7 -42 -12.5 -64t-16.5 -49.5t-26 -42.5t-41 -32.5t-62.5 -30.5t-88.5 -26z" />
<glyph unicode="&#x20a1;" horiz-adv-x="970" d="M123 578q0 132 27 246.5t73 196t106 141t126 88t133 28.5q15 0 47 -4l57 160h90l-65 -179q27 -9 53 -22l74 201h88l-88 -244q48 -32 110 -82l-88 -111q-46 40 -71 58l-269 -742q31 9 68 26.5t62 31.5t59.5 35t42.5 26l61 -129q-2 -1 -50 -28.5t-70 -38t-66 -31t-83.5 -31 t-78.5 -14.5l-57 -160h-90l57 162q-27 3 -57 16l-64 -178h-88l80 221q-129 113 -129 357zM289 592q0 -114 30 -184l263 718q-119 -21 -206 -173.5t-87 -360.5zM381 332q26 -20 53 -25l289 793q-33 15 -55 22z" />
<glyph unicode="&#x20a4;" horiz-adv-x="972" d="M14 0l23 125q6 5 17.5 14t42.5 39.5t59.5 63t62 82.5t55.5 100h-165l18 108h182q10 48 10 91q0 35 -2 47h-165l18 110h127q-3 13 -17 63.5t-20 74t-12 65t-6 78.5q0 178 102 286.5t272 108.5q61 0 118 -14t110 -43t81 -48t74 -53l-94 -110q-162 117 -268 117 q-100 0 -164.5 -71t-64.5 -181q0 -45 8 -87t26 -104t23 -82h313l-20 -110h-277q2 -10 2 -31q0 -52 -10 -107h260l-18 -108h-275q-57 -147 -182 -272h520l-26 -152h-738z" />
<glyph unicode="&#x20a7;" horiz-adv-x="1171" d="M78 0l168 946h-51l16 94h51l70 394h387q200 0 309 -88t109 -267q0 -27 -2 -39h43l-17 -94h-39q-38 -187 -179.5 -288t-358.5 -101h-238l-98 -557h-170zM373 707h213q133 0 229.5 60.5t130.5 178.5h-530zM432 1040h529q2 14 2 27q0 112 -67.5 163.5t-182.5 51.5h-238z" />
<glyph unicode="&#x20a9;" horiz-adv-x="1738" d="M86 494l20 116h203l-10 238h-149l20 117h123l-23 469h185l8 -469h287l182 469h151l15 -469h282l174 469h195l-188 -469h129l-23 -117h-151l-97 -238h207l-20 -116h-234l-196 -494h-177l-38 1155l-445 -1155h-176l-25 494h-229zM465 848l6 -238h143l91 238h-240zM473 494 l4 -238l92 238h-96zM1100 848l8 -238h141l88 238h-237zM1110 494l8 -240l88 240h-96z" />
<glyph unicode="&#x20ac;" horiz-adv-x="1218" d="M74 489l20 109h96q6 117 27 225h-84l19 109h94q71 240 217 382t328 142q66 0 126.5 -17.5t120.5 -56t93.5 -65t93.5 -78.5l-101 -119q-95 89 -170.5 132.5t-152.5 43.5q-116 0 -213.5 -98.5t-157.5 -265.5h465l-18 -109h-480q-24 -109 -30 -225h471l-21 -109h-452 q4 -179 63 -265.5t156 -86.5q143 0 383 176l75 -135q-147 -96 -262 -148.5t-229 -52.5q-162 0 -259.5 127.5t-103.5 384.5h-114z" />
<glyph unicode="&#x2116;" horiz-adv-x="1959" d="M74 0l254 1434h174l368 -1153l205 1153h170l-254 -1434h-172l-373 1161l-202 -1161h-170zM1227 367l20 112h525l-21 -112h-524zM1268 897q0 62 13 129.5t42.5 137.5t71 125.5t105 90.5t138.5 35q132 0 214.5 -77t82.5 -228q0 -62 -12.5 -129.5t-42 -137.5t-71 -125.5 t-105 -90.5t-139.5 -35q-131 0 -214 77t-83 228zM1411 897q0 -182 158 -182q57 0 102.5 44t70.5 109t37.5 128.5t12.5 113.5q0 180 -158 180q-56 0 -101.5 -44t-70.5 -109t-38 -128t-13 -112z" />
<glyph unicode="&#x2117;" horiz-adv-x="1677" d="M127 641q0 131 32.5 251.5t98 223t158 178.5t219 119t274.5 43q206 0 360.5 -84.5t235 -234.5t80.5 -344q0 -131 -32.5 -251.5t-98.5 -223.5t-158 -179t-219.5 -119t-275.5 -43q-309 0 -491.5 184t-182.5 480zM205 643q0 -172 70 -305t208.5 -210t325.5 -77 q161 0 294.5 59t221.5 160t136 235.5t48 285.5q0 128 -41.5 236t-117.5 186.5t-191 122.5t-256 44q-161 0 -294 -58.5t-220.5 -159t-135.5 -234t-48 -285.5zM555 285l152 862h284q117 0 185.5 -56.5t68.5 -168.5q0 -148 -95 -224.5t-253 -76.5h-192l-58 -336h-92zM721 700 h192q101 0 170.5 61t69.5 161q0 75 -46.5 111t-127.5 36h-195z" />
<glyph unicode="&#x2120;" horiz-adv-x="1140" d="M195 1030l49 62q84 -52 147 -52q35 0 62.5 16t27.5 42q0 12 -5.5 21t-19.5 17.5t-25.5 13.5t-34.5 14t-36 14q-49 23 -77.5 52.5t-28.5 76.5q0 59 47 97t121 38q99 0 182 -53l-45 -60q-76 39 -131 39q-34 0 -57 -15t-23 -40q0 -11 4.5 -19t17 -15.5t22 -12t32.5 -13.5 t35 -14q52 -23 83 -53.5t31 -79.5q0 -62 -50.5 -100.5t-129.5 -38.5q-105 0 -198 63zM610 975l80 459h90l78 -283l184 283h88l-79 -459h-86l53 305l-148 -229h-53l-67 237l-54 -313h-86z" />
<glyph unicode="&#x2122;" horiz-adv-x="1126" d="M252 1356l14 78h350l-12 -78h-133l-68 -381h-86l68 381h-133zM598 975l80 459h90l78 -283l182 283h90l-80 -459h-86l54 305l-148 -229h-53l-66 239l-55 -315h-86z" />
<glyph unicode="&#x2126;" horiz-adv-x="1298" d="M53 0l27 152h199q-152 115 -152 360q0 75 10 158t33.5 175.5t58 178.5t87 165.5t116 138t150 93.5t184.5 35q213 0 333 -122t120 -371q0 -175 -50.5 -349.5t-131.5 -297.5t-169 -164h187l-27 -152h-405l26 150q90 27 167 115.5t125 207t74.5 248t26.5 246.5 q0 166 -71 251t-209 85q-79 0 -146 -35.5t-113.5 -92.5t-84 -134t-59.5 -154.5t-36.5 -159t-20 -144t-5.5 -112.5q0 -132 48 -208t140 -113l-26 -150h-406z" />
<glyph unicode="&#x2153;" horiz-adv-x="1433" d="M178 0l803 1434h133l-803 -1434h-133zM178 1315l209 119h117l-154 -861h-125l129 725l-133 -73zM707 88l69 86q105 -76 201 -76q79 0 130.5 46.5t51.5 117.5q0 74 -57 111t-139 37h-29l18 112h35q78 0 144.5 45t66.5 109q0 40 -27.5 63t-74.5 23q-91 0 -191 -66l-43 90 q136 88 260 88q97 0 151 -49.5t54 -124.5q0 -71 -47 -133t-135 -96q62 -21 101.5 -77t39.5 -132q0 -51 -18.5 -99.5t-54.5 -88.5t-95 -64t-133 -24q-151 0 -278 102z" />
<glyph unicode="&#x2154;" horiz-adv-x="1654" d="M88 573l12 74q5 31 15.5 60t19 51t28 48t29 40t37.5 38.5t36.5 33t43 33t40 29t44.5 30.5q107 73 158 124t51 109q0 41 -28 66.5t-80 25.5q-95 0 -203 -71l-47 92q132 92 264 92q103 0 162 -54t59 -143q0 -58 -24.5 -109.5t-70.5 -95.5t-86 -73.5t-98 -67.5 q-15 -9 -22 -14q-82 -57 -120.5 -100.5t-49.5 -106.5h373l-19 -111h-524zM406 0l802 1434h133l-802 -1434h-133zM930 88l69 86q105 -76 201 -76q79 0 130.5 46.5t51.5 117.5q0 74 -57 111t-139 37h-29l19 112h34q78 0 144.5 45t66.5 109q0 40 -27.5 63t-74.5 23 q-91 0 -191 -66l-43 90q136 88 261 88q97 0 150.5 -49t53.5 -125q0 -71 -47 -133t-135 -96q62 -21 101.5 -77t39.5 -132q0 -51 -18.5 -99.5t-54.5 -88.5t-95 -64t-133 -24q-151 0 -278 102z" />
<glyph unicode="&#x2155;" horiz-adv-x="1447" d="M178 0l803 1434h133l-803 -1434h-133zM178 1315l209 119h117l-154 -861h-125l129 725l-133 -73zM721 92l72 86q92 -78 178 -78q73 0 131.5 55t58.5 146q0 65 -32.5 103t-94.5 38q-70 0 -151 -53l-68 43l115 428h430l-21 -110h-323l-49 -218q49 19 104 19q104 0 161.5 -68 t57.5 -174q0 -134 -84.5 -228.5t-226.5 -94.5q-141 0 -258 106z" />
<glyph unicode="&#x2156;" horiz-adv-x="1667" d="M88 573l12 74q5 31 15.5 60t19 51t28 48t29 40t37.5 38.5t36.5 33t43 33t40 29t44.5 30.5q107 73 158 124t51 109q0 41 -28 66.5t-80 25.5q-95 0 -203 -71l-47 92q132 92 264 92q103 0 162 -54t59 -143q0 -58 -24.5 -109.5t-70.5 -95.5t-86 -73.5t-98 -67.5 q-15 -9 -22 -14q-82 -57 -120.5 -100.5t-49.5 -106.5h373l-19 -111h-524zM403 0l803 1434h133l-802 -1434h-134zM944 92l72 86q92 -78 178 -78q73 0 131.5 55t58.5 146q0 65 -32.5 103t-94.5 38q-70 0 -151 -53l-68 43l115 428h430l-20 -110h-324l-49 -218q49 19 104 19 q104 0 161.5 -68t57.5 -174q0 -134 -84.5 -228.5t-226.5 -94.5q-141 0 -258 106z" />
<glyph unicode="&#x2157;" horiz-adv-x="1640" d="M88 662l70 86q105 -76 200 -76q79 0 131 46.5t52 117.5q0 74 -57.5 110.5t-139.5 36.5h-29l19 113h35q78 0 144.5 44.5t66.5 108.5q0 40 -28 63t-75 23q-91 0 -190 -65l-43 90q136 88 260 88q97 0 151 -49.5t54 -124.5q0 -71 -47.5 -133.5t-135.5 -96.5q62 -21 102 -76.5 t40 -131.5q0 -51 -18.5 -99.5t-54.5 -88.5t-95 -64.5t-133 -24.5q-151 0 -279 103zM373 0l803 1434h133l-803 -1434h-133zM913 92l72 86q92 -78 178 -78q73 0 132 55t59 146q0 65 -32.5 103t-94.5 38q-71 0 -152 -53l-67 43l114 428h430l-20 -110h-324l-49 -218 q49 19 105 19q104 0 161.5 -68t57.5 -174q0 -134 -85 -228.5t-227 -94.5q-141 0 -258 106z" />
<glyph unicode="&#x2158;" horiz-adv-x="1681" d="M90 756l16 96l443 582h168l-103 -568h113l-20 -110h-111l-33 -183h-125l33 183h-381zM238 866h251l78 437zM416 0l803 1434h133l-803 -1434h-133zM954 92l72 86q92 -78 178 -78q73 0 132 55t59 146q0 65 -32.5 103t-94.5 38q-71 0 -152 -53l-67 43l114 428h430l-20 -110 h-324l-49 -218q49 19 105 19q104 0 161.5 -68t57.5 -174q0 -134 -85 -228.5t-227 -94.5q-141 0 -258 106z" />
<glyph unicode="&#x2159;" horiz-adv-x="1419" d="M178 0l803 1434h133l-803 -1434h-133zM178 1315l209 119h117l-154 -861h-125l129 725l-133 -73zM715 287q0 154 63 289t175 216.5t247 81.5q35 0 65.5 -5.5t44.5 -10.5l13 -6l-47 -98q-31 10 -74 10q-111 0 -201.5 -82t-132.5 -213q79 84 187 84q101 0 158 -69.5 t57 -170.5q0 -131 -80.5 -229t-214.5 -98q-126 0 -193 88t-67 213zM840 283q0 -79 34.5 -133t98.5 -54q79 0 124.5 63t45.5 150q0 59 -31 100.5t-94 41.5q-55 0 -103.5 -35.5t-72.5 -77.5q-2 -18 -2 -55z" />
<glyph unicode="&#x215a;" horiz-adv-x="1579" d="M96 666l72 86q92 -78 178 -78q74 0 132.5 54.5t58.5 145.5q0 65 -33 103.5t-94 38.5q-71 0 -152 -53l-68 43l115 428h430l-20 -111h-324l-49 -217q46 18 104 18q104 0 162 -68t58 -173q0 -134 -85 -229t-227 -95q-140 0 -258 107zM342 0l803 1434h133l-803 -1434h-133z M877 287q0 154 63 289t175 216.5t247 81.5q35 0 65.5 -5.5t44.5 -10.5l13 -6l-47 -98q-31 10 -74 10q-111 0 -201.5 -82t-132.5 -213q79 84 187 84q101 0 158 -69.5t57 -170.5q0 -131 -80.5 -229t-214.5 -98q-126 0 -193 88t-67 213zM1001 283q0 -79 35 -133t99 -54 q79 0 124.5 63t45.5 150q0 59 -31 100.5t-94 41.5q-55 0 -103.5 -35.5t-72.5 -77.5q-3 -27 -3 -55z" />
<glyph unicode="&#x215b;" horiz-adv-x="1445" d="M178 0l803 1434h133l-803 -1434h-133zM178 1315l209 119h117l-154 -861h-125l129 725l-133 -73zM715 197q0 52 20 97t55.5 77.5t71 55t80.5 42.5q-102 72 -102 178q0 100 75.5 163.5t194.5 63.5q105 0 164 -52.5t59 -133.5q0 -138 -178 -227q143 -85 143 -217 q0 -114 -91.5 -186t-231.5 -72q-122 0 -191 56t-69 155zM842 209q0 -58 37.5 -88.5t99.5 -30.5q78 0 134 44t56 114q0 92 -125 164q-93 -40 -147.5 -86.5t-54.5 -116.5zM961 639q0 -32 16 -58.5t32.5 -39.5t43.5 -29q157 66 157 162q0 43 -28.5 71.5t-77.5 28.5 q-61 0 -102 -40t-41 -95z" />
<glyph unicode="&#x215c;" horiz-adv-x="1634" d="M88 662l70 86q105 -76 200 -76q79 0 131 46.5t52 117.5q0 74 -57.5 110.5t-139.5 36.5h-29l19 113h35q78 0 144.5 44.5t66.5 108.5q0 40 -28 63t-75 23q-91 0 -190 -65l-43 90q136 88 260 88q97 0 151 -49.5t54 -124.5q0 -71 -47.5 -133.5t-135.5 -96.5q62 -21 102 -76.5 t40 -131.5q0 -51 -18.5 -99.5t-54.5 -88.5t-95 -64.5t-133 -24.5q-151 0 -279 103zM373 0l803 1434h133l-803 -1434h-133zM905 197q0 169 228 272q-103 73 -103 178q0 100 75.5 163.5t194.5 63.5q105 0 164.5 -52.5t59.5 -133.5q0 -138 -178 -227q143 -85 143 -217 q0 -114 -92 -186t-232 -72q-122 0 -191 56t-69 155zM1032 209q0 -58 37.5 -88.5t99.5 -30.5q78 0 134.5 44t56.5 114q0 92 -125 164q-44 -19 -75 -36t-63 -42t-48.5 -56.5t-16.5 -68.5zM1151 639q0 -32 16 -58.5t32.5 -39.5t43.5 -29q158 66 158 162q0 43 -29 71.5t-78 28.5 q-61 0 -102 -40t-41 -95z" />
<glyph unicode="&#x215d;" horiz-adv-x="1609" d="M94 666l72 86q92 -78 178 -78q74 0 132.5 54.5t58.5 145.5q0 65 -33 103.5t-94 38.5q-71 0 -152 -53l-68 43l115 428h430l-20 -111h-324l-49 -217q47 18 104 18q104 0 162 -68t58 -173q0 -134 -85 -229t-227 -95q-140 0 -258 107zM342 0l803 1434h133l-803 -1434h-133z M879 197q0 52 20 97t55.5 77.5t71 55t80.5 42.5q-102 72 -102 178q0 100 75.5 163.5t194.5 63.5q105 0 164 -52.5t59 -133.5q0 -138 -178 -227q143 -85 143 -217q0 -114 -91.5 -186t-231.5 -72q-122 0 -191 56t-69 155zM1006 209q0 -58 37.5 -88.5t99.5 -30.5q78 0 134 44 t56 114q0 92 -125 164q-93 -40 -147.5 -86.5t-54.5 -116.5zM1124 639q0 -32 16.5 -58.5t33 -39t43.5 -29.5q157 66 157 162q0 43 -28.5 71.5t-77.5 28.5q-61 0 -102.5 -40t-41.5 -95z" />
<glyph unicode="&#x215e;" horiz-adv-x="1441" d="M152 573q18 99 63.5 212t90.5 194.5t104 169t82 117t45 57.5h-351l21 111h493l-18 -101q-13 -16 -36 -43.5t-83 -114t-110 -172t-99.5 -205t-68.5 -225.5h-133zM178 0l803 1434h133l-803 -1434h-133zM715 197q0 52 20 97t55.5 77.5t71 55t80.5 42.5q-102 72 -102 178 q0 100 75.5 163.5t194.5 63.5q105 0 164 -52.5t59 -133.5q0 -138 -178 -227q143 -85 143 -217q0 -114 -91.5 -186t-231.5 -72q-122 0 -191 56t-69 155zM842 209q0 -58 37.5 -88.5t99.5 -30.5q78 0 134 44t56 114q0 92 -125 164q-93 -40 -147.5 -86.5t-54.5 -116.5zM961 639 q0 -32 16 -58.5t32.5 -39.5t43.5 -29q157 66 157 162q0 43 -28.5 71.5t-77.5 28.5q-61 0 -102 -40t-41 -95z" />
<glyph unicode="&#x2202;" horiz-adv-x="1083" d="M68 387q0 161 61.5 296t169.5 213.5t238 78.5q58 0 108 -18t79 -41.5t52.5 -53.5t31 -45t11.5 -26q-2 94 -21.5 179.5t-59 160t-109 119t-160.5 44.5q-32 0 -66.5 -4.5t-52.5 -9.5l-18 -4v139q65 19 151 19q237 0 363.5 -182t126.5 -496q0 -232 -65 -408.5t-185.5 -273.5 t-280.5 -97q-177 0 -275.5 108t-98.5 302zM238 383q0 -122 50.5 -195t162.5 -73q68 0 125.5 30t95 77.5t63.5 109t37.5 122.5t11.5 119q0 122 -56 193.5t-163 71.5q-77 0 -140.5 -40.5t-103.5 -106t-61.5 -145.5t-21.5 -163z" />
<glyph unicode="&#x2206;" horiz-adv-x="1175" d="M-53 0l700 1434h184l195 -1434h-1079zM190 152h662l-141 1085z" />
<glyph unicode="&#x220f;" horiz-adv-x="1193" d="M125 0l225 1284h-170l25 150h1063l-27 -150h-172l-227 -1284h-168l225 1284h-379l-227 -1284h-168z" />
<glyph unicode="&#x2211;" horiz-adv-x="974" d="M-10 0l20 123l565 600l-356 590l23 121h770l-27 -152h-563l342 -565l-518 -565h540l-26 -152h-770z" />
<glyph unicode="&#x2212;" horiz-adv-x="1067" d="M111 614l24 136h840l-25 -136h-839z" />
<glyph unicode="&#x221a;" horiz-adv-x="1009" d="M59 696h172l103 -471l612 1209h180l-743 -1434h-152z" />
<glyph unicode="&#x221e;" horiz-adv-x="1576" d="M98 477q0 155 99.5 267t253.5 112q53 0 98.5 -17.5t88 -55.5t72 -73.5t74.5 -95.5q75 70 116 105t94.5 72t99.5 51t98 14q124 0 190 -78t66 -198q0 -101 -43.5 -187.5t-124 -139t-180.5 -52.5q-54 0 -100.5 17t-88.5 53.5t-73 73t-74 95.5q-140 -132 -225 -185.5 t-185 -53.5q-124 0 -190 78t-66 198zM231 485q0 -66 39 -111.5t105 -45.5t134.5 46.5t188.5 157.5q-84 113 -134 155t-107 42q-102 0 -164 -76t-62 -168zM848 524q80 -112 131.5 -154t114.5 -42q68 0 120 38.5t76.5 93t24.5 113.5q0 66 -38 111t-103 45q-68 0 -138.5 -47 t-187.5 -158z" />
<glyph unicode="&#x222b;" horiz-adv-x="686" d="M-117 -293l21 115h37q52 0 90 18.5t59.5 39.5t40 76t25 86t20.5 112q1 7 2 10l203 1145q21 118 48.5 192.5t74 125t113.5 71t167 20.5h54l-21 -114h-37q-52 0 -90 -19.5t-59.5 -40t-40.5 -77.5t-25 -87t-21 -114q-1 -1 -1 -2v-2l-203 -1145q-21 -118 -48.5 -192.5 t-74 -125.5t-113.5 -71.5t-167 -20.5h-54z" />
<glyph unicode="&#x2248;" horiz-adv-x="1067" d="M78 428q63 112 128 163.5t142 51.5q51 0 101 -21.5t83.5 -47t77 -47t82.5 -21.5q40 0 78.5 26t85.5 101l90 -45q-120 -215 -270 -215q-51 0 -101 21.5t-83.5 48t-77 48t-82.5 21.5q-38 0 -75.5 -26.5t-86.5 -102.5zM143 795q120 217 271 217q51 0 101.5 -22t84 -48 t77.5 -48t83 -22q38 0 76 26.5t86 102.5l90 -45q-62 -113 -128 -165t-143 -52q-51 0 -101 22t-83.5 48t-77 48t-82.5 22t-76 -26t-85 -103z" />
<glyph unicode="&#x2260;" horiz-adv-x="1067" d="M78 432l24 135h312l121 234h-392l25 135h436l176 338l107 -49l-150 -289h269l-25 -135h-315l-121 -234h395l-25 -135h-440l-174 -336l-106 51l147 285h-264z" />
<glyph unicode="&#x2264;" horiz-adv-x="1067" d="M0 0l23 123h837l-22 -123h-838zM106 602l23 117l909 414l-28 -168l-727 -314l614 -311l-25 -154z" />
<glyph unicode="&#x2265;" horiz-adv-x="1067" d="M12 0l23 123h839l-22 -123h-840zM45 186l31 168l725 312l-615 313l27 154l766 -414l-23 -117z" />
<glyph unicode="&#x2318;" horiz-adv-x="1488" d="M78 348q0 132 92.5 200t232.5 68h142l37 201h-103q-112 0 -190 78.5t-78 189.5q0 113 78 192t190 79q40 0 79.5 -11.5t76.5 -36.5t63 -61t38 -88.5t3 -114.5q-12 -76 -16 -108h156l24 135q10 52 24 92.5t39 80.5t65.5 67t94.5 39q37 6 66 4q106 -6 179 -84t73 -185 q0 -131 -92 -199.5t-232 -68.5h-141l-37 -201h102q113 0 191 -78t78 -190t-78 -190t-191 -78q-121 0 -199.5 90t-60.5 221q14 84 17 107h-156l-24 -136q-26 -139 -90.5 -210.5t-182.5 -71.5q-111 0 -190.5 78t-79.5 190zM197 348q0 -61 44.5 -105t106.5 -44q123 0 148 135 l28 164h-176q-62 0 -106.5 -43.5t-44.5 -106.5zM330 1085q0 -62 43 -105.5t106 -43.5h123l19 108q12 80 -27.5 136.5t-114.5 56.5q-63 0 -106 -44.5t-43 -107.5zM666 616h157l35 201h-158zM903 389q-15 -76 25.5 -133t115.5 -57q62 0 106 44t44 105q0 63 -44 106.5 t-106 43.5h-122zM999 936h177q62 0 105.5 44t43.5 105q0 63 -43.5 107.5t-105.5 44.5q-60 0 -100 -42t-48 -95z" />
<glyph unicode="&#x25ca;" horiz-adv-x="983" d="M102 717l443 717h182l191 -717l-443 -717h-184zM262 692l137 -530l359 581l-140 527z" />
<glyph unicode="&#xe000;" horiz-adv-x="1075" d="M0 0v1075h1075v-1075h-1075z" />
<glyph unicode="&#xf6c3;" horiz-adv-x="165" d="M-74 -504l109 176h-68l35 199h145l-22 -207l-162 -217z" />
<glyph unicode="&#xf6df;" horiz-adv-x="638" d="M-12 47q0 188 89 300t204 112l16 94h92l-20 -111q57 -18 149 -84l-61 -84q-4 3 -19.5 14.5t-26.5 19t-28 17t-33 15.5l-76 -434q21 7 43.5 18.5t47 25.5t30.5 17l43 -94q-111 -62 -182 -78l-18 -102h-91l17 94q-79 9 -127.5 76.5t-48.5 183.5zM113 57q0 -129 69 -157 l78 444q-64 -22 -105.5 -101.5t-41.5 -185.5z" />
<glyph unicode="&#xf6e0;" horiz-adv-x="636" d="M180 1143q0 95 25.5 175t67.5 130.5t94 78t106 27.5l16 95h93l-21 -111q58 -19 150 -84l-62 -84q-1 1 -24.5 18.5t-42.5 29t-39 18.5l-76 -435q21 7 44 19t46.5 25.5t30.5 17.5l43 -94q-111 -62 -182 -78l-19 -103h-90l16 95q-79 9 -127.5 76.5t-48.5 183.5zM305 1153 q0 -130 70 -158l78 445q-64 -22 -106 -101.5t-42 -185.5z" />
<glyph unicode="&#xf6e1;" horiz-adv-x="331" d="M-90 -436l86 129h-57l28 166h129l-18 -178l-139 -162z" />
<glyph unicode="&#xf6e2;" horiz-adv-x="333" d="M104 659l86 129h-57l29 166h129l-19 -178l-139 -162z" />
<glyph unicode="&#xf6e3;" horiz-adv-x="704" d="M-80 -211l72 92q92 -63 174 -84l51 289l-6 4q-89 50 -135.5 103t-46.5 135q0 105 76 172t196 67l21 111h90l-23 -119q95 -19 203 -82l-72 -90q-69 40 -149 59l-47 -270l4 -2q44 -25 72.5 -44.5t59 -49.5t45.5 -68t15 -84q0 -109 -81 -178.5t-203 -71.5l-19 -108h-90 l20 117q-122 24 -227 102zM162 332q0 -36 19.5 -61t60.5 -50l41 232q-53 -6 -87 -37.5t-34 -83.5zM256 -211q58 8 94.5 42.5t36.5 88.5q0 70 -88 121z" />
<glyph unicode="&#xf6e4;" horiz-adv-x="706" d="M111 885l71 92q92 -63 174 -84l52 289l-7 4q-89 50 -135.5 102.5t-46.5 134.5q0 105 76.5 172.5t196.5 67.5l20 111h90l-22 -119q94 -19 202 -82l-71 -90q-68 40 -150 59l-47 -270l4 -2q44 -25 72.5 -44.5t59.5 -49.5t46 -68t15 -84q0 -109 -81.5 -178.5t-203.5 -71.5 l-18 -108h-91l21 116q-120 24 -227 103zM352 1427q0 -36 19 -60.5t61 -49.5l41 231q-53 -6 -87 -37.5t-34 -83.5zM446 885q58 8 95 42.5t37 88.5q0 69 -89 121z" />
<glyph unicode="&#xf6e7;" horiz-adv-x="327" d="M-61 -307l28 166h131l-28 -166h-131z" />
<glyph unicode="&#xf6e8;" horiz-adv-x="329" d="M133 788l29 166h131l-29 -166h-131z" />
<glyph unicode="&#xf6e9;" horiz-adv-x="702" d="M150 993q0 188 77 321.5t199 133.5q38 0 74.5 -18t56 -35.5t45.5 -46.5l16 86h121l-112 -646h-123l16 93q-111 -107 -209 -107q-71 0 -116 54.5t-45 164.5zM274 1010q0 -61 21.5 -96t60.5 -35q84 0 183 110l47 260q-65 94 -137 94q-52 0 -93 -52t-61.5 -127.5 t-20.5 -153.5z" />
<glyph unicode="&#xf6ea;" horiz-adv-x="702" d="M137 788l158 895h121l-60 -329q103 94 197 94q75 0 123.5 -55t48.5 -166q0 -119 -31.5 -221.5t-94 -167t-142.5 -64.5q-98 0 -185 96l-14 -82h-121zM291 973q65 -94 141 -94q49 0 89 51.5t59.5 126.5t19.5 153q0 133 -92 133q-70 0 -170 -96z" />
<glyph unicode="&#xf6eb;" horiz-adv-x="702" d="M150 993q0 188 77 321.5t199 133.5q38 0 74 -17t56.5 -35t45.5 -46l60 333h120l-157 -895h-121l16 93q-111 -107 -209 -107q-71 0 -116 54.5t-45 164.5zM274 1010q0 -61 21.5 -96t60.5 -35q84 0 183 110l47 260q-65 94 -137 94q-52 0 -93 -52t-61.5 -127.5t-20.5 -153.5z " />
<glyph unicode="&#xf6ec;" horiz-adv-x="645" d="M152 1042q0 176 90.5 291t240.5 115q91 0 144 -46.5t53 -123.5q0 -109 -91.5 -163t-256.5 -54h-60v-17q0 -84 29.5 -128t83.5 -44q31 0 73 15.5t65.5 28.5t64.5 38l41 -90q-143 -90 -267 -90q-99 0 -154.5 67t-55.5 201zM281 1137h57q112 0 169.5 37.5t57.5 99.5 q0 38 -24.5 59t-67.5 21q-71 0 -122.5 -60.5t-69.5 -156.5z" />
<glyph unicode="&#xf6ed;" horiz-adv-x="333" d="M137 788l113 646h123l-115 -646h-121zM266 1550l23 131h129l-23 -131h-129z" />
<glyph unicode="&#xf6ee;" horiz-adv-x="335" d="M137 788l158 895h121l-158 -895h-121z" />
<glyph unicode="&#xf6ef;" horiz-adv-x="1032" d="M135 788l115 646h123l-17 -91q105 105 205 105q61 0 94 -32t39 -87q114 119 219 119q81 0 112 -54.5t15 -144.5l-79 -461h-121l78 443q22 115 -56 115q-74 0 -176 -111l-78 -447h-121l80 443q18 115 -57 115q-42 0 -88.5 -32t-83.5 -75l-80 -451h-123z" />
<glyph unicode="&#xf6f0;" horiz-adv-x="694" d="M152 1030q0 74 19.5 146t56 134t98.5 100t139 38q112 0 181 -64t69 -192q0 -58 -11.5 -116.5t-37 -113t-61.5 -96t-88 -67t-114 -25.5q-113 0 -182 64t-69 192zM272 1028q0 -154 131 -154q48 0 86.5 34t60 85t33 103.5t11.5 97.5q0 154 -129 154q-48 0 -87 -34t-61 -85 t-33.5 -103.5t-11.5 -97.5z" />
<glyph unicode="&#xf6f1;" horiz-adv-x="477" d="M137 788l115 646h121l-25 -138q9 17 23.5 37t43.5 49.5t72.5 46.5t92.5 13l-21 -121q-50 0 -94 -22t-70 -53.5t-45.5 -62.5t-27.5 -53l-7 -22l-57 -320h-121z" />
<glyph unicode="&#xf6f2;" horiz-adv-x="606" d="M113 864l57 78q109 -72 199 -72q46 0 79 24.5t33 66.5q0 11 -3 21t-6.5 17.5t-12.5 15.5t-15 12.5t-20 12t-21 10.5t-25.5 11.5t-25.5 11.5q-38 17 -59.5 29t-49 34t-40.5 52t-13 69q0 86 62.5 138.5t161.5 52.5q121 0 235 -74l-55 -78q-98 58 -174 58q-45 0 -76 -23 t-31 -63q0 -11 3.5 -21t7 -17.5t13 -15.5t14.5 -12t19 -11t19.5 -9.5t23 -9.5t21.5 -9q83 -36 126.5 -78.5t43.5 -115.5q0 -88 -65 -141.5t-166 -53.5q-133 0 -260 90z" />
<glyph unicode="&#xf6f3;" horiz-adv-x="477" d="M174 1337l16 97h74l29 159l127 27l-33 -186h150l-17 -97h-151l-68 -385q-10 -67 35 -67q29 0 98 30l31 -96q-106 -45 -168 -45q-67 0 -99 47t-16 144l66 372h-74z" />
<glyph unicode="&#xf8ff;" horiz-adv-x="1802" d="M140.5 560.5q-2.5 11.5 15.5 21.5l57 41q2 1 3.5 2.5l3 3l2.5 2.5t2 3l1 1q19 16 37 -12l33 -64q6 -12 13.5 -15.5t14 2t9.5 17.5l18 70q4 19 18.5 21t26.5 -13l47 -53q13 -15 23.5 -11.5t11.5 23.5l4 70q3 20 15.5 25t27.5 -7l58 -43q17 -12 25.5 -6.5t4.5 25.5l-8 69 q-3 20 8.5 28t28.5 -1l64 -29q19 -9 26.5 -1.5t1.5 26.5l-22 67q-8 19 0.5 29t27.5 4l15 -2q40 -77 70 -202.5t30 -217.5q-15 -18 -34.5 -27.5t-59.5 -9.5h-8q0 46 -33 72q18 -21 18 -55v-15q-32 3 -32 39q0 43 -28 72t-77 29q-41 0 -68.5 -32t-27.5 -79q0 -60 49.5 -96.5 t138.5 -36.5q85 0 172 42t156.5 112t125 154.5t86 175.5t30.5 169q0 59 -37 98t-95 39q-48 0 -85 -33.5t-37 -84.5q0 -52 30.5 -82.5t87.5 -36.5q-30 -122 -59 -174q-12 96 -43.5 178t-75.5 129q91 -120 107 -330l-29 -41q0 156 -51 287t-131 172q-5 9 2 18.5t22 12.5l70 12 q19 3 21 13.5t-15 21.5l-59 39q-15 13 -13.5 26.5t19.5 20.5l63 29q14 4 19 10t0 13t-19 13l-63 27q-24 11 -21 29q13 6 15 16l35 62q9 19 20 18t16 -20l21 -68q6 -21 18.5 -24t26.5 14l47 53q12 15 23 12.5t12 -22.5l4 -72q1 -21 14.5 -26t28.5 8l57 43q15 12 24 5.5 t7 -26.5l-10 -70q-1 -20 10.5 -27.5t28.5 1.5l63 33q19 8 26.5 0t0.5 -29l-23 -64q-6 -20 3 -30t28 -4l70 14q20 6 26.5 -2t-4.5 -27l-37 -59q-12 -17 -5.5 -29.5t26.5 -11.5l71 4q21 0 25.5 -11t-8.5 -24l-49 -53q-14 -13 -10.5 -26.5t24.5 -16.5l70 -12q43 -10 6 -39 l-58 -39q-10 -7 -13 -15.5t2 -16.5t18 -13l63 -27q12 -5 16.5 -12t0 -13.5t-16.5 -11.5l-63 -26q-20 -7 -21.5 -22t14.5 -25l58 -41q11 -7 14.5 -14.5t-2 -13.5t-18.5 -9l-70 -13q-21 -3 -24.5 -16.5t10.5 -28.5l49 -49q13 -14 8.5 -24.5t-25.5 -10.5l-71 5q-20 0 -26.5 -12 t5.5 -29l37 -62q10 -17 4 -25.5t-26 -5.5l-70 19q-19 4 -28 -6t-3 -29l23 -68q8 -19 0 -26t-27 2l-63 31q-17 9 -28.5 1t-10.5 -30l10 -68q1 -21 -7.5 -25.5t-23.5 7.5l-57 43q-15 12 -28.5 5.5t-14.5 -26.5l-4 -69q-1 -20 -12 -23t-23 11l-47 55q-13 14 -26 12t-19 -22 l-21 -68q-3 -13 -9.5 -18t-13.5 -1t-13 15l-35 61q-9 19 -22 19t-25 -19l-31 -61q-6 -11 -13.5 -15t-14 1t-9.5 18l-20 68q-6 20 -19 22t-26 -12l-48 -55q-12 -14 -21.5 -11t-12.5 23l-5 69q-2 20 -15 26.5t-30 -5.5l-53 -43q-17 -13 -27 -8t-6 26l11 68q1 22 -10.5 30 t-30.5 -1l-62 -31q-19 -9 -26.5 -2t0.5 26l22 68q7 19 -2.5 29.5t-28.5 5.5l-69 -19q-20 -3 -26.5 5.5t3.5 25.5l39 62q11 17 4.5 29t-26.5 12l-72 -5q-21 0 -25 10.5t9 24.5l51 49q13 15 8.5 28.5t-25.5 16.5l-67 13q-21 4 -23.5 15.5zM616 281q44 -27 123 -27 q106 0 212.5 65t183.5 162t125.5 212t48.5 214q0 63 -41 101q24 -38 24 -84q0 -100 -47.5 -215t-126.5 -215q-85 -105 -188.5 -168.5t-212.5 -63.5q-58 0 -101 19z" />
<glyph unicode="&#xfb06;" horiz-adv-x="1552" d="M-4 119l88 117q72 -50 154.5 -85.5t152.5 -35.5q81 0 140 46t59 126q0 16 -3 30.5t-7 26.5t-13.5 24t-16.5 20t-22 18.5t-24 16.5t-28.5 16.5t-29.5 15t-33.5 16t-33.5 16.5q-56 27 -93 49.5t-77.5 59t-61 85.5t-20.5 110q0 140 99 223.5t251 83.5q102 0 197 -37 q-6 30 -6 72q0 156 100.5 258t263.5 102t242 -100t47 -273l-8 -45h239l-22 -131h-240l-123 -702q-20 -115 56 -115q43 0 166 53l41 -133q-164 -70 -256 -70q-98 0 -145.5 68t-20.5 217l120 682h-122l22 131h123l12 66q22 119 -13.5 189.5t-139.5 70.5q-113 0 -184.5 -82 t-71.5 -207q0 -56 14 -94q28 -13 68 -39l-84 -113q-150 95 -273 95q-78 0 -132 -42.5t-54 -113.5q0 -16 3.5 -31t8 -27t14 -24t16.5 -20.5t21.5 -18.5t23.5 -16t26.5 -15t26 -13t29 -13.5t27.5 -12.5q65 -32 107.5 -58.5t82.5 -64.5t59.5 -86.5t19.5 -109.5 q0 -147 -104 -232.5t-261 -85.5q-197 0 -397 142z" />
<glyph horiz-adv-x="714" d="M113 582l49 98q30 -10 71 -10q111 0 202.5 82t133.5 213q-79 -84 -188 -84q-100 0 -156.5 69t-56.5 170q0 131 80.5 229.5t214.5 98.5q84 0 144 -44t87 -110.5t27 -146.5q0 -154 -63 -289t-175.5 -217t-246.5 -82q-34 0 -64.5 5.5t-44.5 11.5zM293 1124q0 -58 31.5 -99.5 t93.5 -41.5q57 0 106 37t72 80q2 16 2 51q0 79 -35 132.5t-100 53.5q-78 0 -124 -63t-46 -150z" />
<glyph horiz-adv-x="964" d="M-63 0l448 590l-223 586h172l155 -478l322 478h190l-432 -588l244 -588h-176l-170 471l-330 -471h-200z" />
<glyph horiz-adv-x="1247" d="M-170 -301q149 53 186 105t66 219l162 921h-119l25 131h116l27 150q25 140 79.5 204t155.5 64q66 0 144.5 -25t134.5 -53l-78 -115q-115 46 -176 46q-76 0 -96 -117l-27 -154h232l-25 -131h-231l-158 -911q-11 -64 -17 -93.5t-16 -76t-19.5 -66.5t-24.5 -51.5t-34 -46.5 t-44 -36.5t-59 -35.5t-75 -29.5t-96 -31.5zM453 -301q149 53 186 105t66 219l161 921h-118l24 131h117l26 150q25 141 79 204.5t151 63.5q53 0 119 -20t112 -43l-65 -119q-96 35 -135 35q-74 0 -97 -117l-26 -154h231l-24 -131h-232l-158 -911q-14 -81 -21.5 -117t-21.5 -89 t-30.5 -76t-42 -55t-63 -50t-87 -38.5t-119.5 -41.5z" />
<glyph horiz-adv-x="1177" d="M-172 -301q148 53 185.5 104.5t68.5 219.5l162 921h-121l27 131h118l23 129q25 146 91 207.5t169 61.5q111 0 354 -74q58 94 178 94q66 0 144.5 -25t134.5 -53l-78 -115q-115 46 -176 46q-76 0 -96 -117l-27 -154h232l-25 -131h-231l-158 -911q-11 -64 -17 -93.5t-16 -76 t-19.5 -66.5t-24.5 -51.5t-34 -46.5t-44 -36.5t-59 -35.5t-75 -29.5t-96 -31.5l-33 133q149 53 186 105t66 219l162 921h-391l-160 -911q-17 -94 -25 -134t-27 -97.5t-40.5 -81t-62.5 -56.5t-94.5 -53.5t-135.5 -44.5zM430 1075h391l35 197q-216 53 -281 53 q-102 0 -120 -117z" />
<glyph horiz-adv-x="2199" d="M-172 -301q148 53 185.5 104.5t68.5 219.5l162 921h-119l25 131h118l23 129q25 146 91 207.5t169 61.5q122 0 358 -76q67 96 199 96q107 0 332 -68l12 68h162l-98 -555q173 160 315 160q119 0 195.5 -88.5t76.5 -266.5q0 -202 -51.5 -375.5t-151 -282t-227.5 -108.5 q-49 0 -94 14.5t-83.5 43t-63.5 52t-56 58.5l-24 -145h-164l227 1292q-192 54 -282 54q-56 0 -85 -34.5t-36 -82.5l-27 -154h229l-26 -131h-227l-160 -911q-11 -64 -17 -93.5t-16 -76t-19.5 -66.5t-24.5 -51.5t-34 -46.5t-44 -36.5t-59 -35.5t-75 -29.5t-96 -31.5l-33 133 q54 19 88 34t61.5 37t41 38.5t26.5 54t19 67.5t16 93l162 921h-389l-160 -911q-17 -94 -25 -134t-27 -97.5t-40.5 -81t-62.5 -56.5t-94.5 -53.5t-135.5 -44.5zM430 1075h391l35 197q-216 53 -281 53q-102 0 -120 -117zM1403 289q113 -170 242 -170q86 0 154 94t102 230 t34 278q0 111 -39.5 173t-119.5 62q-71 0 -140 -45t-147 -125z" />
<glyph horiz-adv-x="2197" d="M-172 -301q148 53 185.5 104.5t68.5 219.5l162 921h-119l25 131h118l23 129q25 146 91 207.5t169 61.5q122 0 358 -76q67 96 199 96q107 0 332 -68l12 68h162l-98 -563q204 168 372 168q127 0 178.5 -87t24.5 -237l-135 -774h-166l133 750q9 59 8 105t-28 74.5t-80 28.5 q-78 0 -172 -55t-162 -119l-137 -784h-164l227 1292q-192 54 -282 54q-56 0 -85 -34.5t-36 -82.5l-27 -154h229l-26 -131h-227l-160 -911q-11 -64 -17 -93.5t-16 -76t-19.5 -66.5t-24.5 -51.5t-34 -46.5t-44 -36.5t-59 -35.5t-75 -29.5t-96 -31.5l-33 133q54 19 88 34 t61.5 37t41 38.5t26.5 54t19 67.5t16 93l162 921h-389l-160 -911q-17 -94 -25 -134t-27 -97.5t-40.5 -81t-62.5 -56.5t-94.5 -53.5t-135.5 -44.5zM430 1075h391l35 197q-216 53 -281 53q-102 0 -120 -117z" />
<glyph horiz-adv-x="1556" d="M-172 -301q148 53 185.5 104.5t68.5 219.5l162 921h-119l25 131h118l23 129q25 146 91 207.5t169 61.5q110 0 360 -76q67 96 205 96q137 0 373 -78l-72 -119q-196 50 -276 50q-58 0 -90 -35t-39 -82l-27 -154h510l-188 -1075h-164l166 944h-348l-160 -911 q-16 -92 -24.5 -133.5t-27 -98t-40 -80.5t-62.5 -56.5t-94.5 -53.5t-134.5 -45l-35 133q40 14 68.5 25.5t53 27t40 26.5t29.5 32.5t21 36.5t15.5 47.5t13.5 56.5t13 72l162 921h-391l-160 -911q-17 -94 -25 -134t-27 -97.5t-40.5 -81t-62.5 -56.5t-94.5 -53.5t-135.5 -44.5z M430 1075h391l35 197q-216 53 -281 53q-102 0 -120 -117z" />
<glyph horiz-adv-x="1558" d="M-172 -301q148 53 185.5 104.5t68.5 219.5l162 921h-119l25 131h118l23 129q25 146 91 207.5t169 61.5q110 0 360 -76q67 96 205 96q137 0 373 -78l-72 -119q-196 50 -276 50q-58 0 -90 -35t-39 -82l-27 -154h512l-199 -1116q-26 -142 -47 -191q-36 -79 -125 -128 q-69 -37 -198 -74l-35 133q53 19 88 34t61 33.5t40 32.5t25 40.5t15.5 47t12.5 62.5l174 995h-348l-160 -911q-16 -92 -24.5 -133.5t-27 -98t-40 -80.5t-62.5 -56.5t-94.5 -53.5t-134.5 -45l-35 133q40 14 68.5 25.5t53 27t40 26.5t29.5 32.5t21 36.5t15.5 47.5t13.5 56.5 t13 72l162 921h-391l-160 -911q-17 -94 -25 -134t-27 -97.5t-40.5 -81t-62.5 -56.5t-94.5 -53.5t-135.5 -44.5zM430 1075h391l35 197q-216 53 -281 53q-102 0 -120 -117z" />
<glyph horiz-adv-x="2068" d="M-172 -301q148 53 185.5 104.5t68.5 219.5l162 921h-119l25 131h118l23 129q25 146 91 207.5t169 61.5q122 0 358 -76q67 96 199 96q107 0 332 -68l12 68h162l-168 -950l430 532h199l-383 -440l243 -635h-168l-186 508l-176 -203l-53 -305h-164l227 1292q-192 54 -282 54 q-56 0 -85 -34.5t-36 -82.5l-27 -154h229l-26 -131h-227l-160 -911q-11 -64 -17 -93.5t-16 -76t-19.5 -66.5t-24.5 -51.5t-34 -46.5t-44 -36.5t-59 -35.5t-75 -29.5t-96 -31.5l-33 133q54 19 88 34t61.5 37t41 38.5t26.5 54t19 67.5t16 93l162 921h-389l-160 -911 q-17 -94 -25 -134t-27 -97.5t-40.5 -81t-62.5 -56.5t-94.5 -53.5t-135.5 -44.5zM430 1075h391l35 197q-216 53 -281 53q-102 0 -120 -117z" />
<glyph horiz-adv-x="622" d="M-170 -301q149 53 186 105t66 219l162 921h-119l25 131h116l27 150q25 141 78.5 204.5t150.5 63.5q54 0 120 -20t112 -43l-66 -119q-96 35 -135 35q-73 0 -96 -117l-27 -154h232l-25 -131h-231l-158 -911q-14 -81 -21.5 -117t-21.5 -89t-30.5 -76t-42 -55t-63 -50 t-87 -38.5t-119.5 -41.5z" />
<glyph horiz-adv-x="1611" d="M-172 -301q148 53 185.5 104.5t68.5 219.5l162 921h-119l25 131h118l23 129q25 146 91 207.5t169 61.5q122 0 358 -76q67 96 199 96q107 0 332 -68l12 68h164l-264 -1493h-164l227 1292q-192 54 -282 54q-56 0 -85 -34.5t-36 -82.5l-27 -154h229l-26 -131h-227l-160 -911 q-11 -64 -17 -93.5t-16 -76t-19.5 -66.5t-24.5 -51.5t-34 -46.5t-44 -36.5t-59 -35.5t-75 -29.5t-96 -31.5l-33 133q54 19 88 34t61.5 37t41 38.5t26.5 54t19 67.5t16 93l162 921h-389l-160 -911q-17 -94 -25 -134t-27 -97.5t-40.5 -81t-62.5 -56.5t-94.5 -53.5 t-135.5 -44.5zM430 1075h391l35 197q-216 53 -281 53q-102 0 -120 -117z" />
<glyph horiz-adv-x="1761" d="M-172 -301q148 53 185.5 104.5t68.5 219.5l162 921h-121l27 131h118l23 129q25 146 91 207.5t169 61.5q109 0 352 -74q58 94 178 94q64 0 143 -25t134 -53l-78 -115q-115 46 -174 46q-76 0 -96 -117l-27 -154h379l47 268l170 43l-55 -311h239l-24 -131h-240l-123 -702 q-20 -115 58 -115q13 0 30 3.5t38 11t34.5 12.5t36.5 15t26 11l41 -133q-164 -70 -258 -70q-96 0 -143.5 68t-21.5 217l120 682h-379l-159 -911q-14 -81 -21.5 -117.5t-21.5 -89.5t-30.5 -76t-42 -55t-62.5 -50t-86 -38t-119 -41l-35 133q40 14 68.5 25.5t53 27t40 26.5 t29.5 32.5t21 36.5t15.5 47.5t13.5 56.5t13 72l162 921h-389l-160 -911q-17 -94 -25 -134t-27 -97.5t-40.5 -81t-62.5 -56.5t-94.5 -53.5t-135.5 -44.5zM430 1075h389l35 197q-5 1 -40 9.5t-60.5 14.5t-61.5 13.5t-66 11.5t-51 4q-56 0 -84.5 -34.5t-35.5 -82.5z" />
<glyph horiz-adv-x="1644" d="M-170 -301q149 53 186 105t66 219l162 921h-119l25 131h116l27 150q28 146 93.5 207t168.5 61q107 0 332 -68l12 68h162l-98 -563q204 168 372 168q127 0 178.5 -87t24.5 -237l-135 -774h-166l133 750q9 59 8 105t-28 74.5t-80 28.5q-78 0 -172 -55t-162 -119l-137 -784 h-164l227 1292q-192 54 -282 54q-101 0 -123 -117l-27 -154h232l-25 -131h-231l-158 -911q-11 -64 -17 -93.5t-16 -76t-19.5 -66.5t-24.5 -51.5t-34 -46.5t-44 -36.5t-59 -35.5t-75 -29.5t-96 -31.5z" />
<glyph horiz-adv-x="1085" d="M100 281q2 66 13 141l133 754h160l-138 -775q-9 -50 -11 -87t5 -74.5t27 -61t59 -38.5t96 -15q246 0 295 272l138 779h157l-137 -779q-16 -92 -46.5 -163t-83 -130t-135 -90.5t-192.5 -31.5q-93 0 -160.5 22t-105 61.5t-57 94.5t-17.5 121zM451 1497h110q-7 -56 18 -82 t83 -26q67 0 110.5 26.5t52.5 81.5h113q-17 -103 -90.5 -161t-190.5 -58q-114 0 -169.5 60t-36.5 159z" />
<glyph horiz-adv-x="1001" d="M-170 -301q149 53 186 105t66 219l162 921h-119l25 131h118l27 150q25 146 92 207t174 61q132 0 375 -78l-72 -119q-204 50 -278 50q-57 0 -87.5 -34.5t-39.5 -82.5l-27 -154h508l-188 -1075h-164l166 944h-346l-160 -911q-17 -94 -25 -134t-27 -97.5t-40.5 -81 t-62.5 -56.5t-94.5 -53.5t-135.5 -44.5z" />
<glyph horiz-adv-x="1003" d="M-170 -301q149 53 186 105t66 219l162 921h-119l25 131h118l27 150q25 146 92 207t174 61q132 0 375 -78l-72 -119q-204 50 -278 50q-57 0 -87.5 -34.5t-39.5 -82.5l-27 -154h512l-199 -1116q-26 -141 -45 -187q-34 -81 -121 -129q-71 -39 -206 -77l-33 133q53 19 88 34 t61 33.5t40 32.5t25 40.5t15.5 47t12.5 62.5l174 995h-348l-160 -911q-17 -94 -25 -134t-27 -97.5t-40.5 -81t-62.5 -56.5t-94.5 -53.5t-135.5 -44.5z" />
<glyph horiz-adv-x="1513" d="M-170 -301q149 53 186 105t66 219l162 921h-119l25 131h116l27 150q26 146 92 207t170 61q107 0 332 -68l12 68h162l-168 -950l430 532h199l-383 -440l243 -635h-168l-186 508l-176 -203l-53 -305h-164l227 1292q-192 54 -282 54q-101 0 -123 -117l-27 -154h232l-25 -131 h-231l-158 -911q-13 -79 -21 -116.5t-21.5 -89t-30.5 -75.5t-42.5 -55.5t-63 -50t-87 -39t-119.5 -41.5z" />
<glyph horiz-adv-x="374" d="M154 788l26 156h129l-26 -156h-129zM227 1053l68 596h147l-141 -596h-74z" />
<glyph horiz-adv-x="1058" d="M-170 -301q149 53 186 105t66 219l162 921h-119l25 131h116l27 150q28 146 93.5 207t168.5 61q107 0 332 -68l12 68h164l-264 -1493h-164l227 1292q-212 54 -282 54q-101 0 -123 -117l-27 -154h232l-25 -131h-231l-158 -911q-11 -64 -17 -93.5t-16 -76t-19.5 -66.5 t-24.5 -51.5t-34 -46.5t-44 -36.5t-59 -35.5t-75 -29.5t-96 -31.5z" />
<glyph horiz-adv-x="1210" d="M-170 -301q149 53 186 105t66 219l162 921h-119l25 131h116l27 150q25 141 79.5 204.5t155.5 63.5q66 0 144.5 -25t134.5 -53l-78 -115q-115 46 -176 46q-73 0 -96 -117l-27 -154h379l47 268l170 43l-55 -311h239l-24 -131h-240l-123 -702q-20 -115 58 -115q13 0 30 3.5 t39 11t34 12t36.5 15t26.5 11.5l40 -133q-165 -70 -258 -70q-96 0 -143.5 68t-21.5 217l120 682h-378l-158 -911q-11 -64 -17 -93.5t-16 -76t-19.5 -66.5t-24.5 -51.5t-34 -46.5t-44 -36.5t-59 -35.5t-75 -29.5t-96 -31.5z" />
<glyph horiz-adv-x="454" d="M-184 -475q50 18 76 30.5t42.5 36.5t22 46.5t14.5 76.5l92 527h-71l16 96h74l12 72q15 94 52 136t108 42q77 0 182 -51l-57 -84q-75 26 -105 26q-48 0 -57 -67l-14 -74h141l-16 -96h-142l-92 -518q-6 -37 -9 -52.5t-9.5 -43.5t-11 -39t-13 -31.5t-17 -29t-22.5 -23 t-29.5 -22t-37.5 -18.5t-47 -19t-58 -17z" />
<glyph horiz-adv-x="1085" d="M100 281q2 66 13 141l133 754h160l-138 -775q-9 -50 -11 -87t5 -74.5t27 -61t59 -38.5t96 -15q246 0 295 272l138 779h157l-137 -779q-16 -92 -46.5 -163t-83 -130t-135 -90.5t-192.5 -31.5q-93 0 -160.5 22t-105 61.5t-57 94.5t-17.5 121zM512 1278l244 266h223 l-322 -266h-145z" />
<glyph horiz-adv-x="679" d="M-25 92l72 86q92 -78 178 -78q73 0 132 55t59 146q0 65 -32.5 103t-94.5 38q-71 0 -152 -53l-67 43l114 428h430l-20 -110h-324l-49 -218q49 19 105 19q104 0 161.5 -68t57.5 -174q0 -134 -85 -228.5t-227 -94.5q-141 0 -258 106z" />
<glyph horiz-adv-x="679" d="M76 666l71 86q92 -78 179 -78q74 0 132 54.5t58 145.5q0 65 -33 103.5t-94 38.5q-70 0 -151 -53l-68 43l115 428h430l-21 -111h-323l-49 -217q46 18 104 18q104 0 161.5 -68t57.5 -173q0 -134 -84.5 -229t-226.5 -95q-140 0 -258 107z" />
<glyph horiz-adv-x="1003" d="M-45 -119l98 119q143 -127 281 -127q59 0 117.5 25.5t106 71.5t77 118.5t29.5 159.5q0 115 -55.5 185.5t-159.5 70.5q-108 0 -250 -92l-90 55l188 709h659l-26 -152h-518l-97 -410q90 39 185 39q159 0 248.5 -111.5t89.5 -285.5q0 -107 -35 -204t-97.5 -171t-156.5 -118 t-205 -44q-69 0 -132 15.5t-113.5 44.5t-79.5 50t-64 52z" />
<glyph horiz-adv-x="1085" d="M41 139l98 119q143 -127 281 -127q59 0 117.5 25.5t106 71.5t77 118.5t29.5 159.5q0 115 -55.5 185.5t-159.5 70.5q-108 0 -250 -92l-90 55l188 709h659l-26 -152h-518l-97 -410q90 39 185 39q159 0 248.5 -111.5t89.5 -285.5q0 -107 -35 -204t-97.5 -171t-156.5 -118 t-205 -44q-69 0 -132 15.5t-113.5 44.5t-79.5 50t-64 52z" />
<glyph horiz-adv-x="374" d="M-39 -307l27 155h129l-27 -155h-129zM35 -43l67 596h148l-141 -596h-74z" />
<glyph horiz-adv-x="1419" d="M76 547l59 71q81 -63 156 -63q65 0 115.5 43t50.5 117q0 54 -29.5 85t-83.5 31q-59 0 -133 -43l-57 37l96 351h373l-17 -95h-282l-41 -174q46 17 90 17q92 0 142 -57t50 -146q0 -108 -72.5 -185t-193.5 -77q-124 0 -223 88zM295 0l686 1176h113l-686 -1176h-113zM758 164 q0 139 194 221q-88 62 -88 147q0 80 65 132.5t167 52.5q91 0 141.5 -43.5t50.5 -110.5q0 -113 -151 -186q125 -68 125 -178q0 -93 -78.5 -152t-198.5 -59q-105 0 -166 46.5t-61 129.5zM866 172q0 -48 33 -72t88 -24q69 0 117.5 35t48.5 92q0 46 -30 76.5t-81 58.5 q-40 -17 -66 -30.5t-54 -33.5t-42 -45.5t-14 -56.5zM965 524q0 -60 82 -104q139 53 139 131q0 36 -25.5 59t-68.5 23q-53 0 -90 -32.5t-37 -76.5z" />
<glyph horiz-adv-x="374" d="M145 788l142 596h73l-67 -596h-148zM279 1493l26 156h129l-26 -156h-129z" />
<glyph horiz-adv-x="1394" d="M76 547l59 71q81 -63 156 -63q65 0 115.5 43t50.5 117q0 54 -28.5 85t-82.5 31q-64 0 -133 -43l-57 37l96 351h371l-17 -95h-280l-43 -174q46 17 92 17q92 0 142 -57t50 -146q0 -108 -73 -185t-193 -77t-225 88zM295 0l686 1176h113l-688 -1176h-111zM754 240 q0 126 53.5 235.5t149.5 175.5t212 66q29 0 56 -4.5t39 -8.5l12 -4l-41 -84q-26 9 -61 9q-97 0 -176 -67t-115 -175q65 70 161 70q88 0 138.5 -57.5t50.5 -141.5q0 -107 -68.5 -186.5t-185.5 -79.5q-109 0 -167 73.5t-58 178.5zM858 236q0 -65 31.5 -110.5t89.5 -45.5 q67 0 107 51t40 121q0 48 -27.5 81.5t-82.5 33.5q-52 0 -96 -30t-62 -63v-38z" />
<glyph horiz-adv-x="372" d="M-49 -307l141 596h74l-68 -596h-147zM84 397l27 156h129l-27 -156h-129z" />
<glyph horiz-adv-x="1085" d="M100 281q2 66 13 141l133 754h160l-138 -775q-9 -50 -11 -87t5 -74.5t27 -61t59 -38.5t96 -15q246 0 295 272l138 779h157l-137 -779q-16 -92 -46.5 -163t-83 -130t-135 -90.5t-192.5 -31.5q-93 0 -160.5 22t-105 61.5t-57 94.5t-17.5 121z" />
<glyph horiz-adv-x="655" d="M205 1536l20 113h570l-19 -113h-223l-131 -748h-127l133 748h-223z" />
<glyph horiz-adv-x="729" d="M-23 182l17 97l442 581h168l-102 -567h112l-20 -111h-111l-32 -182h-125l32 182h-381zM125 293h252l78 436z" />
<glyph horiz-adv-x="731" d="M80 756l16 96l443 582h168l-103 -568h113l-21 -110h-110l-33 -183h-125l33 183h-381zM227 866h252l78 437z" />
<glyph horiz-adv-x="1085" d="M-35 59l25 131l725 986h223l-172 -967h178l-26 -150h-179l-55 -317h-168l55 317h-606zM164 209h434l139 778z" />
<glyph horiz-adv-x="1087" d="M16 317l25 132l723 985h217l-172 -967h174l-27 -150h-174l-55 -317h-168l55 317h-598zM213 467h428l137 768z" />
<glyph horiz-adv-x="1484" d="M72 618l14 80l381 478h143l-86 -465h99l-17 -93h-98l-27 -147h-104l26 147h-331zM199 711h221l63 358zM360 0l689 1176h112l-688 -1176h-113zM825 76l62 71q81 -63 155 -63q65 0 115.5 44t50.5 118q0 53 -29 84.5t-83 31.5q-56 0 -133 -45l-58 37l96 351h371l-14 -93 h-283l-43 -176q46 17 92 17q92 0 142.5 -57t50.5 -146q0 -108 -72.5 -185t-193.5 -77q-115 0 -226 88z" />
<glyph horiz-adv-x="493" d="M45 0l188 819h95l-99 -819h-184zM223 969l37 207h168l-37 -207h-168z" />
<glyph horiz-adv-x="1085" d="M100 281q2 66 13 141l133 754h160l-138 -775q-9 -50 -11 -87t5 -74.5t27 -61t59 -38.5t96 -15q246 0 295 272l138 779h157l-137 -779q-16 -92 -46.5 -163t-83 -130t-135 -90.5t-192.5 -31.5q-93 0 -160.5 22t-105 61.5t-57 94.5t-17.5 121zM399 1278l213 266h179 l120 -266h-110l-109 176l-168 -176h-125z" />
<glyph horiz-adv-x="491" d="M53 0l37 207h168l-37 -207h-168zM154 356l98 820h184l-188 -820h-94z" />
<glyph d="M41 266l20 115h103l186 1053h756l-27 -154h-585l-86 -487h466l-26 -152h-467l-47 -260h299l-21 -115h-299l-47 -266h-170l47 266h-102z" />
<glyph horiz-adv-x="942" d="M31 213l16 100h92l152 863h665l-26 -144h-506l-66 -375h404l-25 -139h-403l-37 -205h256l-16 -100h-258l-37 -213h-158l37 213h-90z" />
<glyph horiz-adv-x="686" d="M-63 -156l14 78h65l113 631h489l-20 -113h-362l-48 -262h289l-20 -110h-289l-27 -146h189l-13 -78h-188l-27 -151h-125l27 151h-67z" />
<glyph horiz-adv-x="688" d="M131 940l14 78h64l113 631h489l-20 -113h-363l-47 -262h289l-21 -111h-289l-26 -145h190l-14 -78h-188l-27 -152h-125l27 152h-66z" />
<glyph horiz-adv-x="444" d="M18 621q50 18 76 30.5t43 36.5t22.5 47t14.5 76l92 526h-71l16 97h74l12 71q15 94 52 136t108 42q77 0 182 -51l-57 -84q-78 27 -105 27q-48 0 -57 -68l-14 -73h141l-17 -97h-141l-92 -518q-6 -37 -9 -52.5t-9.5 -43.5t-11 -39t-13 -31.5t-17 -29t-22.5 -23t-29.5 -22 t-37.5 -18.5t-47 -19t-58 -17z" />
<glyph horiz-adv-x="657" d="M12 440l21 113h569l-18 -113h-224l-131 -747h-127l134 747h-224z" />
<glyph horiz-adv-x="1013" d="M49 0l207 1176h160l-37 -205h186q180 0 275.5 -75.5t95.5 -225.5q0 -198 -128.5 -312t-348.5 -114h-209l-43 -244h-158zM274 383h187q136 0 222.5 72t86.5 204q0 170 -213 170h-203z" />
<glyph horiz-adv-x="870" d="M70 -313l53 98q41 -25 84 -25t73.5 29.5t30.5 91.5q0 49 -20 119h-43l182 1032h-311l24 144h781l-25 -144h-311l-182 -1032h-39q39 -65 39 -150q0 -93 -55 -147.5t-144 -54.5q-81 0 -137 39z" />
<glyph horiz-adv-x="870" d="M119 1032l24 144h781l-25 -144h-311l-182 -1032h-158l182 1032h-311zM342 1544h109l110 -176l166 176h127l-213 -266h-180z" />
<glyph horiz-adv-x="888" d="M127 1032l25 144h780l-25 -144h-311l-98 -549h153l-18 -104h-154l-65 -379h-158l66 379h-150l18 104h150l98 549h-311z" />
<glyph horiz-adv-x="757" d="M-61 -307l106 608q26 148 100 219.5t203 71.5q116 0 179 -53t63 -136q0 -40 -14.5 -74.5t-29.5 -48.5l-14 -14q-126 -38 -126 -108q0 -18 8.5 -34.5t19 -27t32 -30.5t34.5 -33q75 -78 75 -160q0 -85 -63.5 -140t-155.5 -55q-101 0 -213 70l58 80q82 -51 147 -51 q42 0 73.5 25t31.5 67q0 48 -60 102q-4 4 -22 19.5t-25 22.5t-21.5 23.5t-20.5 30t-11.5 34t-5.5 42.5q0 34 12.5 63t28.5 47.5t44 36t44.5 25.5t44.5 19q14 28 14 59q0 47 -33 74t-94 27q-71 0 -117 -45.5t-65 -155.5l-107 -600h-120z" />
<glyph horiz-adv-x="765" d="M135 788l107 609q26 148 100 219.5t203 71.5q116 0 178.5 -53t62.5 -136q0 -25 -6 -48.5t-14 -39t-16.5 -27t-14.5 -16.5l-6 -6q-127 -38 -127 -109q0 -18 8.5 -34.5t19 -27t32 -30.5t34.5 -33q37 -39 56.5 -75.5t19.5 -83.5q0 -85 -63.5 -140t-155.5 -55q-101 0 -213 70 l57 80q84 -52 148 -52q42 0 73 25.5t31 67.5q0 49 -59 102q-5 4 -22.5 19.5t-25 22.5t-21.5 23.5t-20.5 30t-12 34t-5.5 42.5q0 34 12.5 63t28.5 47.5t44 36t44.5 25.5t44.5 19q15 30 15 59q0 46 -33 73t-94 27q-71 0 -117.5 -45.5t-65.5 -154.5l-106 -601h-121z" />
<glyph horiz-adv-x="700" d="M-102 -522l41 102q131 -49 217 -49q127 0 149 133l21 121q-107 -107 -209 -107q-69 0 -114.5 55.5t-45.5 164.5q0 122 33.5 225t96.5 166t144 63q39 0 76 -17.5t57 -36t46 -46.5l16 86h121l-119 -672q-23 -133 -87.5 -184t-174.5 -51q-135 0 -268 47zM82 -86 q0 -61 21 -96t61 -35q78 0 182 108l47 261q-63 96 -137 96q-53 0 -94 -52.5t-60.5 -127.5t-19.5 -154z" />
<glyph horiz-adv-x="870" d="M119 1032l24 144h781l-25 -144h-311l-182 -1032h-158l182 1032h-311z" />
<glyph horiz-adv-x="716" d="M119 885l71 92q137 -92 238 -92q67 0 112.5 35.5t45.5 95.5q0 37 -24.5 67.5t-48 45t-81.5 45.5q-15 8 -22 12q-90 50 -136.5 102.5t-46.5 134.5q0 105 77 172.5t198 67.5q138 0 289 -90l-72 -90q-113 67 -213 67q-61 0 -103.5 -32.5t-42.5 -90.5q0 -14 3.5 -26 t7.5 -21.5t15.5 -20t18 -17t25 -18t27 -16t33.5 -18.5t36 -20q44 -25 72.5 -44.5t59.5 -49.5t46 -68t15 -84q0 -109 -83 -179.5t-206 -70.5q-154 0 -311 111z" />
<glyph horiz-adv-x="1085" d="M100 281q2 66 13 141l133 754h160l-138 -775q-9 -50 -11 -87t5 -74.5t27 -61t59 -38.5t96 -15q246 0 295 272l138 779h157l-137 -779q-16 -92 -46.5 -163t-83 -130t-135 -90.5t-192.5 -31.5q-93 0 -160.5 22t-105 61.5t-57 94.5t-17.5 121zM438 1298l35 193h154l-35 -193 h-154zM729 1298l35 193h151l-32 -193h-154z" />
<glyph horiz-adv-x="704" d="M94 573l41 103q131 -49 217 -49q71 0 106 38.5t44 94.5l20 121q-107 -107 -209 -107q-69 0 -114 55t-45 164q0 122 33.5 225t96.5 166.5t144 63.5q39 0 76 -18t56.5 -35.5t45.5 -46.5l17 86h120l-118 -672q-23 -133 -88 -184.5t-175 -51.5q-135 0 -268 47zM279 1010 q0 -131 81 -131q79 0 183 108l47 260q-63 96 -137 96q-53 0 -94 -52.5t-60.5 -127t-19.5 -153.5z" />
<glyph horiz-adv-x="716" d="M-76 -211l72 92q137 -92 237 -92q67 0 112.5 35.5t45.5 95.5q0 37 -24.5 67.5t-48 45t-81.5 45.5q-15 8 -22 12q-89 50 -135.5 103t-46.5 135q0 105 76.5 172t197.5 67q138 0 289 -90l-72 -90q-115 68 -213 68q-61 0 -103 -32t-42 -91q0 -12 2 -22.5t8 -21l10 -17.5 t16 -16.5t18.5 -15t23.5 -16t25.5 -15t30.5 -16.5t32 -18q44 -25 72.5 -44.5t59 -49.5t45.5 -68t15 -84q0 -109 -82.5 -179.5t-205.5 -70.5q-155 0 -312 111z" />
<glyph horiz-adv-x="954" d="M0 129l92 117q188 -123 330 -123q96 0 160.5 51t64.5 137q0 17 -4 33.5t-8.5 29.5t-16.5 27.5t-19.5 23.5t-26.5 23t-28 21t-33.5 21t-34 19.5t-38.5 21t-39 20.5q-60 33 -98 59.5t-76.5 65t-56.5 86.5t-18 108q0 142 105 233t269 91q189 0 389 -119l-92 -114 q-67 39 -148 65.5t-147 26.5q-85 0 -146 -47t-61 -132q0 -35 13 -62t43.5 -51.5t61.5 -43t85 -46.5q18 -9 27 -14q64 -37 102.5 -63.5t81.5 -68t63.5 -92.5t20.5 -114q0 -151 -113.5 -244t-281.5 -93q-117 0 -227.5 43t-194.5 104zM199 -504l108 176h-67l34 199h146 l-23 -207l-161 -217z" />
<glyph horiz-adv-x="1085" d="M100 281q2 66 13 141l133 754h160l-138 -775q-9 -50 -11 -87t5 -74.5t27 -61t59 -38.5t96 -15q246 0 295 272l138 779h157l-137 -779q-16 -92 -46.5 -163t-83 -130t-135 -90.5t-192.5 -31.5q-93 0 -160.5 22t-105 61.5t-57 94.5t-17.5 121zM432 1544h199l164 -266h-129z " />
<glyph horiz-adv-x="1085" d="M100 281q2 66 13 141l133 754h160l-138 -775q-9 -50 -11 -87t5 -74.5t27 -61t59 -38.5t96 -15q246 0 295 272l138 779h157l-137 -779q-16 -92 -46.5 -163t-83 -130t-135 -90.5t-192.5 -31.5q-93 0 -160.5 22t-105 61.5t-57 94.5t-17.5 121zM442 1278l170 266h183 l-248 -266h-105zM705 1278l169 266h183l-248 -266h-104z" />
<glyph horiz-adv-x="954" d="M0 129l92 117q188 -123 330 -123q96 0 160.5 51t64.5 137q0 17 -4 33.5t-8.5 29.5t-16.5 27.5t-19.5 23.5t-26.5 23t-28 21t-33.5 21t-34 19.5t-38.5 21t-39 20.5q-60 33 -98 59.5t-76.5 65t-56.5 86.5t-18 108q0 142 105 233t269 91q189 0 389 -119l-92 -114 q-67 39 -148 65.5t-147 26.5q-85 0 -146 -47t-61 -132q0 -35 13 -62t43.5 -51.5t61.5 -43t85 -46.5q18 -9 27 -14q64 -37 102.5 -63.5t81.5 -68t63.5 -92.5t20.5 -114q0 -151 -113.5 -244t-281.5 -93q-117 0 -227.5 43t-194.5 104zM338 1278l213 266h178l121 -266h-111 l-108 176l-168 -176h-125z" />
<glyph horiz-adv-x="954" d="M0 129l92 117q188 -123 330 -123q96 0 160.5 51t64.5 137q0 17 -4 33.5t-8.5 29.5t-16.5 27.5t-19.5 23.5t-26.5 23t-28 21t-33.5 21t-34 19.5t-38.5 21t-39 20.5q-60 33 -98 59.5t-76.5 65t-56.5 86.5t-18 108q0 142 105 233t269 91q189 0 389 -119l-92 -114 q-67 39 -148 65.5t-147 26.5q-85 0 -146 -47t-61 -132q0 -35 13 -62t43.5 -51.5t61.5 -43t85 -46.5q18 -9 27 -14q64 -37 102.5 -63.5t81.5 -68t63.5 -92.5t20.5 -114q0 -145 -104.5 -236t-263.5 -99q30 -67 30 -134q0 -93 -54.5 -147.5t-143.5 -54.5q-82 0 -138 39l54 98 q41 -25 84 -25t73.5 29.5t30.5 91.5q0 42 -16 103q-194 18 -369 145z" />
<glyph horiz-adv-x="694" d="M-55 -307l157 895h123l-59 -332q130 96 227 96q83 0 116 -53.5t15 -148.5l-80 -457h-122l79 440q9 55 -2.5 86t-56.5 31q-47 0 -103 -31t-92 -67l-79 -459h-123z" />
<glyph horiz-adv-x="954" d="M0 129l92 117q188 -123 330 -123q96 0 160.5 51t64.5 137q0 17 -4 33.5t-8.5 29.5t-16.5 27.5t-19.5 23.5t-26.5 23t-28 21t-33.5 21t-34 19.5t-38.5 21t-39 20.5q-60 33 -98 59.5t-76.5 65t-56.5 86.5t-18 108q0 142 105 233t269 91q189 0 389 -119l-92 -114 q-67 39 -148 65.5t-147 26.5q-85 0 -146 -47t-61 -132q0 -35 13 -62t43.5 -51.5t61.5 -43t85 -46.5q18 -9 27 -14q64 -37 102.5 -63.5t81.5 -68t63.5 -92.5t20.5 -114q0 -151 -113.5 -244t-281.5 -93q-117 0 -227.5 43t-194.5 104zM385 1544h109l110 -176l166 176h127 l-213 -266h-180z" />
<glyph horiz-adv-x="811" d="M-1.5 -121q-5.5 60 9.5 129l96 545h125l-100 -563q-9 -40 -7.5 -75.5t12 -62.5t41 -43t79.5 -16q173 0 205 195l100 565h125l-100 -567q-12 -68 -34 -120.5t-60 -96.5t-98.5 -67.5t-141.5 -23.5q-86 0 -142.5 25.5t-80 70.5t-29 105z" />
<glyph horiz-adv-x="954" d="M0 129l92 117q188 -123 330 -123q96 0 160.5 51t64.5 137q0 17 -4 33.5t-8.5 29.5t-16.5 27.5t-19.5 23.5t-26.5 23t-28 21t-33.5 21t-34 19.5t-38.5 21t-39 20.5q-60 33 -98 59.5t-76.5 65t-56.5 86.5t-18 108q0 142 105 233t269 91q189 0 389 -119l-92 -114 q-67 39 -148 65.5t-147 26.5q-85 0 -146 -47t-61 -132q0 -35 13 -62t43.5 -51.5t61.5 -43t85 -46.5q18 -9 27 -14q64 -37 102.5 -63.5t81.5 -68t63.5 -92.5t20.5 -114q0 -151 -113.5 -244t-281.5 -93q-117 0 -227.5 43t-194.5 104zM451 1278l243 266h224l-322 -266h-145z " />
<glyph horiz-adv-x="954" d="M0 129l92 117q188 -123 330 -123q96 0 160.5 51t64.5 137q0 17 -4 33.5t-8.5 29.5t-16.5 27.5t-19.5 23.5t-26.5 23t-28 21t-33.5 21t-34 19.5t-38.5 21t-39 20.5q-60 33 -98 59.5t-76.5 65t-56.5 86.5t-18 108q0 142 105 233t269 91q189 0 389 -119l-92 -114 q-67 39 -148 65.5t-147 26.5q-85 0 -146 -47t-61 -132q0 -35 13 -62t43.5 -51.5t61.5 -43t85 -46.5q18 -9 27 -14q64 -37 102.5 -63.5t81.5 -68t63.5 -92.5t20.5 -114q0 -151 -113.5 -244t-281.5 -93q-117 0 -227.5 43t-194.5 104z" />
<glyph horiz-adv-x="792" d="M156 788l151 861h281q131 0 200.5 -53.5t69.5 -155.5q0 -109 -65.5 -187.5t-182.5 -101.5l135 -363h-131l-120 355h-150l-63 -355h-125zM362 1249h154q99 0 156 48.5t57 132.5q0 112 -151 112h-164z" />
<glyph horiz-adv-x="790" d="M-37 -307l152 860h280q131 0 201 -53.5t70 -155.5q0 -109 -65.5 -187.5t-182.5 -101.5l135 -362h-131l-121 354h-149l-64 -354h-125zM170 154h154q99 0 156 48t57 132q0 112 -152 112h-164z" />
<glyph horiz-adv-x="1060" d="M49 0l207 1176h381q179 0 274 -71t95 -212q0 -150 -91.5 -256t-252.5 -135l190 -502h-166l-172 492h-219l-88 -492h-158zM246 -504l108 176h-67l35 199h145l-23 -207l-161 -217zM317 625h220q142 0 223.5 68.5t81.5 189.5q0 157 -217 157h-234z" />
<glyph horiz-adv-x="1060" d="M49 0l207 1176h381q179 0 274 -71t95 -212q0 -150 -91.5 -256t-252.5 -135l190 -502h-166l-172 492h-219l-88 -492h-158zM317 625h220q142 0 223.5 68.5t81.5 189.5q0 157 -217 157h-234zM465 1544h108l111 -176l166 176h127l-213 -266h-180z" />
<glyph horiz-adv-x="1060" d="M49 0l207 1176h381q179 0 274 -71t95 -212q0 -150 -91.5 -256t-252.5 -135l190 -502h-166l-172 492h-219l-88 -492h-158zM317 625h220q142 0 223.5 68.5t81.5 189.5q0 157 -217 157h-234zM530 1278l244 266h223l-321 -266h-146z" />
<glyph horiz-adv-x="335" d="M-55 -307l112 645h123l-114 -645h-121zM74 455l22 131h129l-22 -131h-129z" />
<glyph horiz-adv-x="1060" d="M49 0l207 1176h381q179 0 274 -71t95 -212q0 -150 -91.5 -256t-252.5 -135l190 -502h-166l-172 492h-219l-88 -492h-158zM317 625h220q142 0 223.5 68.5t81.5 189.5q0 157 -217 157h-234z" />
<glyph horiz-adv-x="849" d="M180 1100q0 60 12 130t42.5 148t74.5 140.5t114.5 103.5t156.5 41q146 0 224.5 -82t78.5 -242q0 -66 -15.5 -143t-46.5 -158.5t-89.5 -148.5t-133.5 -96l104 -117l-94 -80l-135 178q-141 3 -217 85.5t-76 240.5zM309 1100q0 -211 178 -211q58 0 105.5 36t76.5 89 t49 116.5t28 115.5t8 89q0 213 -179 213q-58 0 -105.5 -36t-76.5 -89t-48.5 -117t-27.5 -116t-8 -90z" />
<glyph horiz-adv-x="1085" d="M100 281q2 66 13 141l133 754h160l-138 -775q-9 -50 -11 -87t5 -74.5t27 -61t59 -38.5t96 -15q246 0 295 272l138 779h157l-137 -779q-16 -92 -46.5 -163t-83 -130t-135 -90.5t-192.5 -31.5q-93 0 -160.5 22t-105 61.5t-57 94.5t-17.5 121zM416 1329l20 113h494l-21 -113 h-493z" />
<glyph horiz-adv-x="1085" d="M100 282.5q2 65.5 13 139.5l133 754h160l-138 -775q-9 -50 -11 -87t5 -74.5t27 -61t59 -38.5t96 -15q246 0 295 272l138 779h157l-137 -779q-14 -76 -36 -136.5t-58 -114t-90 -91t-125 -55.5q-103 -65 -151 -114t-48 -101q0 -9 2.5 -17t5.5 -13.5t9.5 -9.5t11 -7t14 -5 t14.5 -3t16.5 -1.5t16 -0.5h16.5h15l-37 -103q-23 0 -36 0.5t-42 4t-47.5 12t-39.5 23t-31.5 39.5t-10.5 58q0 122 166 220q-92 1 -157.5 23.5t-102 62t-55.5 94.5t-17 120.5z" />
<glyph horiz-adv-x="849" d="M-12 4q0 60 12 130t42 148t74 140.5t114.5 103.5t156.5 41q146 0 224.5 -81.5t78.5 -241.5q0 -52 -9 -111.5t-30 -127.5t-52.5 -127t-81.5 -108.5t-111 -72.5l104 -117l-94 -80l-135 178q-141 3 -217 85.5t-76 240.5zM117 4q0 -211 178 -211q58 0 105.5 36t76.5 89 t48.5 117t27.5 116t8 89q0 213 -178 213q-58 0 -105.5 -36t-76.5 -89t-48.5 -117t-27.5 -116.5t-8 -90.5z" />
<glyph horiz-adv-x="641" d="M-41 -53q0 176 91 290.5t241 114.5q91 0 143.5 -46.5t52.5 -123.5q0 -109 -91.5 -163t-256.5 -54h-59v-16q0 -84 29.5 -128t83.5 -44q31 0 73 16t64.5 28.5t64.5 37.5l41 -90q-145 -91 -266 -91q-99 0 -155 67.5t-56 201.5zM88 41h57q112 0 170 38t58 99q0 38 -24.5 59 t-67.5 21q-71 0 -123 -60.5t-70 -156.5z" />
<glyph horiz-adv-x="1144" d="M90 424q0 57 8 122.5t27.5 141t48 146.5t72.5 137t98 115t128 78.5t159 29.5q202 0 309 -111t107 -329q0 -71 -12.5 -153.5t-42.5 -177t-74.5 -175.5t-114.5 -148t-156 -96l146 -164l-121 -100l-185 242q-192 5 -294.5 117t-102.5 325zM252 424q0 -299 256 -299 q83 0 150.5 51t108.5 125t69 164t38.5 162.5t10.5 124.5q0 299 -256 299q-83 0 -150.5 -51t-108.5 -125t-69 -164t-38.5 -162.5t-10.5 -124.5z" />
<glyph horiz-adv-x="755" d="M156 788l151 861h254q132 0 202.5 -57t70.5 -165q0 -145 -94 -229t-253 -84h-147l-59 -326h-125zM358 1223h127q95 0 156 50.5t61 143.5q0 121 -149 121h-139z" />
<glyph horiz-adv-x="755" d="M-37 -307l152 860h254q132 0 202 -56.5t70 -164.5q0 -146 -93.5 -230t-252.5 -84h-148l-59 -325h-125zM166 127h127q95 0 156 51t61 144q0 120 -150 120h-139z" />
<glyph horiz-adv-x="335" d="M-211 -475q93 32 117 57t35 90l116 666h121l-115 -655q-7 -36 -10 -51t-10 -41.5t-14.5 -38t-20.5 -30t-29 -28t-40 -23t-54.5 -23.5t-70.5 -21zM74 455l22 131h129l-22 -131h-129z" />
<glyph horiz-adv-x="1085" d="M49 319q0 290 375 459q-168 115 -168 299q0 167 119 273t301 106q160 0 250 -85.5t90 -217.5q0 -240 -301 -387q235 -137 235 -360q0 -126 -68 -224.5t-183 -151.5t-255 -53q-182 0 -288.5 90t-106.5 252zM223 332q0 -103 62.5 -157t165.5 -54q133 0 229 80.5t96 208.5 q0 52 -18 97t-51.5 80.5t-66.5 60t-77 50.5q-58 -26 -100.5 -48.5t-90.5 -57t-78.5 -70.5t-50.5 -85t-20 -105zM418 1069q0 -56 26.5 -103.5t57 -73t73.5 -50.5q275 117 275 297q0 77 -48.5 127.5t-133.5 50.5q-104 0 -177 -74t-73 -174z" />
<glyph horiz-adv-x="1009" d="M49 0l207 1176h344q180 0 275.5 -75.5t95.5 -226.5q0 -196 -127.5 -309.5t-347.5 -113.5h-209l-80 -451h-158zM311 588h185q136 0 222.5 72.5t86.5 205.5q0 170 -211 170h-205z" />
<glyph horiz-adv-x="1144" d="M90 424q0 57 8 122.5t27.5 141t48 146.5t72.5 137t98 115t128 78.5t159 29.5q202 0 309 -111t107 -329q0 -83 -16 -178.5t-57 -202.5t-100 -192.5t-155 -142t-213 -56.5q-201 0 -308.5 112t-107.5 330zM252 424q0 -299 256 -299q83 0 150.5 51t108.5 125t69 164 t38.5 162.5t10.5 124.5q0 299 -256 299q-83 0 -150.5 -51t-108.5 -125t-69 -164t-38.5 -162.5t-10.5 -124.5zM434 1352q51 84 88.5 120.5t91.5 36.5q30 0 60 -15.5t50 -34.5t43.5 -34.5t41.5 -15.5q21 0 43 19t59 77l76 -55q-51 -83 -89 -119.5t-93 -36.5q-37 0 -73.5 25 t-67.5 49.5t-54 24.5q-20 0 -42 -18.5t-58 -76.5z" />
<glyph horiz-adv-x="849" d="M182 1100q0 60 12 130t42 148t73.5 140.5t114 103.5t156.5 41q146 0 224.5 -82t78.5 -242q0 -60 -12 -130t-42 -148.5t-73.5 -141.5t-114 -104t-156.5 -41q-146 0 -224.5 82.5t-78.5 243.5zM309 1100q0 -211 178 -211q58 0 105.5 36t76.5 89t49 116.5t28 115.5t8 89 q0 213 -176 213q-58 0 -106 -36t-77.5 -89t-49.5 -117t-28 -116t-8 -90z" />
<glyph horiz-adv-x="622" d="M-55 -307l157 895h121l-96 -547l246 297h147l-239 -264l155 -381h-123l-114 291l-103 -113l-30 -178h-121z" />
<glyph horiz-adv-x="634" d="M137 788l158 895h121l-97 -546l246 297h148l-240 -265l156 -381h-123l-115 291l-102 -112l-31 -179h-121z" />
<glyph horiz-adv-x="1144" d="M12 0l133 162q-55 101 -55 262q0 57 8 122.5t27.5 141t48 146.5t72.5 137t98 115t128 78.5t159 29.5q187 0 291 -94l61 76h121l-123 -150q66 -107 66 -272q0 -83 -16 -178.5t-57 -202.5t-100 -192.5t-155 -142t-213 -56.5q-196 0 -303 104l-72 -86h-119zM252 424 q0 -77 12 -119l555 672q-61 74 -190 74q-83 0 -150.5 -51t-108.5 -125t-69 -164t-38.5 -162.5t-10.5 -124.5zM305 211q64 -86 203 -86q83 0 150.5 51t108.5 125t69 164t38.5 162.5t10.5 124.5q0 72 -19 137zM535 1278l243 266h223l-321 -266h-145z" />
<glyph horiz-adv-x="1101" d="M57 319q0 290 375 459q-168 115 -168 299q0 167 119 273t301 106q160 0 250 -85.5t90 -217.5q0 -240 -301 -387q235 -137 235 -360q0 -126 -67.5 -224.5t-182.5 -151.5t-255 -53q-182 0 -289 90t-107 252zM231 332q0 -103 62.5 -157t165.5 -54q133 0 229 80.5t96 208.5 q0 52 -18 97t-51.5 80.5t-66.5 60t-77 50.5q-58 -26 -100.5 -48.5t-90.5 -57t-78.5 -70.5t-50.5 -85t-20 -105zM426 1069q0 -43 14 -80t39.5 -64.5t49.5 -46t55 -36.5q274 116 274 297q0 77 -48.5 127.5t-133.5 50.5q-104 0 -177 -74t-73 -174z" />
<glyph horiz-adv-x="1144" d="M90 424q0 57 8 122.5t27.5 141t48 146.5t72.5 137t98 115t128 78.5t159 29.5q202 0 309 -111t107 -329q0 -83 -16 -178.5t-57 -202.5t-100 -192.5t-155 -142t-213 -56.5q-201 0 -308.5 112t-107.5 330zM252 424q0 -299 256 -299q83 0 150.5 51t108.5 125t69 164 t38.5 162.5t10.5 124.5q0 299 -256 299q-83 0 -150.5 -51t-108.5 -125t-69 -164t-38.5 -162.5t-10.5 -124.5zM449 1329l20 113h494l-21 -113h-493z" />
<glyph horiz-adv-x="849" d="M-10 4q0 49 9 106.5t27 122t50 123t74 106.5t103.5 76.5t133.5 28.5q146 0 224.5 -81.5t78.5 -241.5q0 -50 -9 -107t-27 -122t-50 -124t-74 -107.5t-103.5 -77t-133.5 -28.5q-146 0 -224.5 82.5t-78.5 243.5zM117 4q0 -211 178 -211q58 0 105.5 36t76.5 89t48.5 117 t27.5 116t8 89q0 213 -176 213q-58 0 -106 -36t-77 -89t-49 -117t-28 -116.5t-8 -90.5z" />
<glyph horiz-adv-x="1146" d="M90 424q0 57 8 122.5t27.5 141t48 146.5t72.5 137t98 115t128 78.5t159 29.5q202 0 309 -111t107 -329q0 -83 -16 -178.5t-57 -202.5t-100 -192.5t-155 -142t-213 -56.5q-201 0 -308.5 112t-107.5 330zM252 424q0 -299 256 -299q83 0 150.5 51t108.5 125t69 164 t38.5 162.5t10.5 124.5q0 299 -256 299q-83 0 -150.5 -51t-108.5 -125t-69 -164t-38.5 -162.5t-10.5 -124.5zM477 1278l170 266h182l-247 -266h-105zM739 1278l170 266h183l-248 -266h-105z" />
<glyph horiz-adv-x="1144" d="M90 424q0 57 8 122.5t27.5 141t48 146.5t72.5 137t98 115t128 78.5t159 29.5q202 0 309 -111t107 -329q0 -83 -16 -178.5t-57 -202.5t-100 -192.5t-155 -142t-213 -56.5q-201 0 -308.5 112t-107.5 330zM252 424q0 -299 256 -299q83 0 150.5 51t108.5 125t69 164 t38.5 162.5t10.5 124.5q0 299 -256 299q-83 0 -150.5 -51t-108.5 -125t-69 -164t-38.5 -162.5t-10.5 -124.5zM465 1544h199l163 -266h-129z" />
<glyph horiz-adv-x="729" d="M106 770q0 169 228 272q-103 73 -103 179q0 100 76 163.5t195 63.5q105 0 164 -52.5t59 -133.5q0 -139 -178 -228q143 -85 143 -217q0 -114 -91.5 -186t-231.5 -72q-122 0 -191.5 56t-69.5 155zM233 782q0 -58 37.5 -88t100.5 -30q78 0 134 43.5t56 113.5q0 92 -125 164 q-44 -19 -75 -36t-63 -42t-48.5 -56.5t-16.5 -68.5zM352 1212q0 -32 16 -58.5t32.5 -39.5t43.5 -29q158 66 158 162q0 43 -28.5 72t-77.5 29q-61 0 -102.5 -40.5t-41.5 -95.5z" />
<glyph horiz-adv-x="333" d="M-55 -307l157 895h121l-157 -895h-121z" />
<glyph horiz-adv-x="727" d="M4 197q0 52 20 97t55.5 77.5t71 55t80.5 42.5q-102 72 -102 178q0 100 75.5 163.5t194.5 63.5q105 0 164.5 -52.5t59.5 -133.5q0 -138 -179 -227q144 -86 144 -217q0 -114 -92 -186t-232 -72q-122 0 -191 56t-69 155zM131 209q0 -58 37.5 -88.5t99.5 -30.5q78 0 134.5 44 t56.5 114q0 92 -125 164q-44 -19 -75 -36t-63 -42t-48.5 -56.5t-16.5 -68.5zM250 639q0 -32 16 -58.5t32.5 -39.5t43.5 -29q158 66 158 162q0 43 -29 71.5t-78 28.5q-61 0 -102 -40t-41 -95z" />
<glyph horiz-adv-x="886" d="M14 0l19 115q15 10 40 29.5t80 80.5t85 125h-146l14 94h162q6 30 6 62q0 17 -4 45h-143l16 94h107q-2 5 -8.5 26t-9 27.5t-8 25.5t-7.5 28t-6 26.5t-5.5 30.5t-3 29t-1.5 32q0 146 88.5 235t236.5 89q71 0 142 -24.5t110.5 -49t87.5 -61.5l-86 -101q-138 95 -233 95 q-85 0 -138 -54.5t-53 -140.5q0 -35 8 -69t23 -78t21 -66h270l-16 -94h-238q2 -10 2 -29q0 -45 -8 -78h225l-16 -94h-238q-49 -121 -151 -211h446l-25 -139h-645z" />
<glyph horiz-adv-x="647" d="M-74 -307l17 92q4 3 11 7.5t26.5 21.5t36.5 35t37.5 45.5t33.5 56.5h-104l12 69h115q4 24 4 41q0 23 -2 35h-105l12 70h76q-2 6 -8.5 28.5t-9.5 33.5t-7 30t-6 36t-2 34q0 108 64.5 173.5t171.5 65.5q54 0 107.5 -19t80 -36.5t66.5 -46.5l-68 -80q-101 70 -168 70 q-57 0 -94 -38t-37 -98q0 -25 5.5 -49.5t16.5 -56t15 -47.5h193l-13 -70h-165v-20q0 -28 -7 -56h160l-12 -69h-168q-33 -74 -107 -148h318l-21 -110h-475z" />
<glyph horiz-adv-x="645" d="M119 788l16 93q11 7 29 20.5t57 57t60 88.5h-105l12 69h115q4 24 4 41q0 23 -2 35h-104l12 70h76q-2 7 -8.5 28.5t-9.5 33t-7 30t-6 35.5t-2 34q0 108 64.5 174t171.5 66q41 0 79 -9t72.5 -27.5t53 -31t48.5 -34.5l-67 -80q-99 69 -168 69q-57 0 -94 -37.5t-37 -97.5 q0 -25 5.5 -49.5t16.5 -56t15 -47.5h192l-12 -70h-166v-21q0 -31 -6 -55h160l-13 -69h-168q-34 -76 -106 -148h317l-20 -111h-475z" />
<glyph horiz-adv-x="1144" d="M90 424q0 57 8 122.5t27.5 141t48 146.5t72.5 137t98 115t128 78.5t159 29.5q202 0 309 -111t107 -329q0 -83 -16 -178.5t-57 -202.5t-100 -192.5t-155 -142t-213 -56.5q-201 0 -308.5 112t-107.5 330zM252 424q0 -299 256 -299q83 0 150.5 51t108.5 125t69 164 t38.5 162.5t10.5 124.5q0 299 -256 299q-83 0 -150.5 -51t-108.5 -125t-69 -164t-38.5 -162.5t-10.5 -124.5zM471 1298l35 193h153l-34 -193h-154zM762 1298l35 193h151l-33 -193h-153z" />
<glyph horiz-adv-x="1144" d="M90 424q0 57 8 122.5t27.5 141t48 146.5t72.5 137t98 115t128 78.5t159 29.5q202 0 309 -111t107 -329q0 -83 -16 -178.5t-57 -202.5t-100 -192.5t-155 -142t-213 -56.5q-201 0 -308.5 112t-107.5 330zM252 424q0 -299 256 -299q83 0 150.5 51t108.5 125t69 164 t38.5 162.5t10.5 124.5q0 299 -256 299q-83 0 -150.5 -51t-108.5 -125t-69 -164t-38.5 -162.5t-10.5 -124.5zM434 1278l213 266h178l121 -266h-110l-109 176l-168 -176h-125z" />
<glyph horiz-adv-x="1085" d="M100 281q2 66 13 141l133 754h160l-138 -775q-9 -50 -11 -87t5 -74.5t27 -61t59 -38.5t96 -15q246 0 295 272l138 779h157l-137 -779q-16 -92 -46.5 -163t-83 -130t-135 -90.5t-192.5 -31.5q-93 0 -160.5 22t-105 61.5t-57 94.5t-17.5 121zM483 1456q0 84 57.5 141.5 t141.5 57.5q83 0 141 -58t58 -141q0 -84 -57.5 -141.5t-141.5 -57.5q-85 0 -142 57t-57 142zM575 1456q0 -44 31.5 -75t75.5 -31q43 0 74.5 31t31.5 75t-31.5 75.5t-74.5 31.5q-44 0 -75.5 -31.5t-31.5 -75.5z" />
<glyph horiz-adv-x="1144" d="M90 424q0 57 8 122.5t27.5 141t48 146.5t72.5 137t98 115t128 78.5t159 29.5q202 0 309 -111t107 -329q0 -83 -16 -178.5t-57 -202.5t-100 -192.5t-155 -142t-213 -56.5q-201 0 -308.5 112t-107.5 330zM252 424q0 -299 256 -299q83 0 150.5 51t108.5 125t69 164 t38.5 162.5t10.5 124.5q0 299 -256 299q-83 0 -150.5 -51t-108.5 -125t-69 -164t-38.5 -162.5t-10.5 -124.5zM485 1497h111q-7 -56 17.5 -82t82.5 -26q67 0 111 26.5t53 81.5h113q-17 -103 -90.5 -161t-190.5 -58q-115 0 -170.5 60t-36.5 159z" />
<glyph horiz-adv-x="813" d="M193.5 975q-5.5 60 9.5 129l96 545h125l-100 -564q-9 -40 -7.5 -75.5t12 -62.5t41 -42.5t79.5 -15.5q172 0 204 194l101 566h125l-101 -568q-12 -68 -34 -120.5t-60 -96t-98.5 -67t-141.5 -23.5q-86 0 -142.5 25.5t-79.5 70.5t-28.5 105z" />
<glyph horiz-adv-x="1144" d="M90 424q0 57 8 122.5t27.5 141t48 146.5t72.5 137t98 115t128 78.5t159 29.5q202 0 309 -111t107 -329q0 -83 -16 -178.5t-57 -202.5t-100 -192.5t-155 -142t-213 -56.5q-201 0 -308.5 112t-107.5 330zM252 424q0 -299 256 -299q83 0 150.5 51t108.5 125t69 164 t38.5 162.5t10.5 124.5q0 299 -256 299q-83 0 -150.5 -51t-108.5 -125t-69 -164t-38.5 -162.5t-10.5 -124.5zM545 1278l243 266h224l-322 -266h-145z" />
<glyph horiz-adv-x="1650" d="M90 424q0 57 8 122.5t27.5 141t48 146.5t72.5 137t98 115t128 78.5t159 29.5q222 0 330 -135l20 117h666l-27 -144h-506l-65 -375h417l-24 -139h-418l-66 -377h515l-25 -141h-674l14 88q-119 -106 -282 -106q-201 0 -308.5 112t-107.5 330zM252 424q0 -299 256 -299 q83 0 150.5 51t108.5 125t69 164t38.5 162.5t10.5 124.5q0 299 -256 299q-83 0 -150.5 -51t-108.5 -125t-69 -164t-38.5 -162.5t-10.5 -124.5z" />
<glyph horiz-adv-x="1021" d="M-59 -307l114 645h123l-16 -90q104 104 205 104q61 0 94 -32t39 -87q114 119 219 119q81 0 112 -54t15 -144l-80 -461h-121l78 442q22 115 -55 115q-74 0 -176 -111l-78 -446h-121l80 442q18 115 -58 115q-42 0 -88.5 -32t-83.5 -75l-80 -450h-122z" />
<glyph horiz-adv-x="1085" d="M100 281q2 66 13 141l133 754h160l-138 -775q-9 -50 -11 -87t5 -74.5t27 -61t59 -38.5t96 -15q246 0 295 272l138 779h157l-137 -779q-16 -92 -46.5 -163t-83 -130t-135 -90.5t-192.5 -31.5q-93 0 -160.5 22t-105 61.5t-57 94.5t-17.5 121zM401 1352q50 83 88.5 120 t92.5 37q38 0 74.5 -25t67 -50t52.5 -25q21 0 43.5 19.5t59.5 76.5l75 -55q-51 -83 -89 -119.5t-93 -36.5q-37 0 -73 25t-67 49.5t-54 24.5q-20 0 -42.5 -18.5t-58.5 -76.5z" />
<glyph horiz-adv-x="1054" d="M147 1176h172l121 -1002l467 1002h189l-592 -1176h-176z" />
<glyph horiz-adv-x="1144" d="M90 424q0 57 8 122.5t27.5 141t48 146.5t72.5 137t98 115t128 78.5t159 29.5q202 0 309 -111t107 -329q0 -83 -16 -178.5t-57 -202.5t-100 -192.5t-155 -142t-213 -56.5q-201 0 -308.5 112t-107.5 330zM252 424q0 -299 256 -299q83 0 150.5 51t108.5 125t69 164 t38.5 162.5t10.5 124.5q0 299 -256 299q-83 0 -150.5 -51t-108.5 -125t-69 -164t-38.5 -162.5t-10.5 -124.5z" />
<glyph horiz-adv-x="1122" d="M49 0l207 1176h162l323 -934l164 934h160l-207 -1176h-164l-323 932l-164 -932h-158zM432 1352q51 84 88.5 120.5t91.5 36.5q30 0 60 -15.5t50 -34.5t43.5 -34.5t41.5 -15.5q21 0 43 19t59 77l76 -55q-51 -83 -89 -119.5t-93 -36.5q-37 0 -73.5 25t-67.5 49.5t-54 24.5 q-20 0 -42 -18.5t-58 -76.5z" />
<glyph horiz-adv-x="843" d="M156 788l151 861h127l223 -662l117 662h125l-151 -861h-127l-224 662l-116 -662h-125z" />
<glyph horiz-adv-x="843" d="M-37 -307l152 860h127l223 -662l117 662h125l-152 -860h-127l-223 661l-117 -661h-125z" />
<glyph horiz-adv-x="1122" d="M49 0l207 1176h162l323 -934l164 934h160l-207 -1176h-164l-323 932l-164 -932h-158zM289 -504l108 176h-67l35 199h145l-23 -207l-161 -217z" />
<glyph horiz-adv-x="1122" d="M49 0l207 1176h162l323 -934l164 934h160l-207 -1176h-164l-323 932l-164 -932h-158zM479 1544h109l110 -176l166 176h127l-213 -266h-180z" />
<glyph horiz-adv-x="1122" d="M49 0l207 1176h162l323 -934l164 934h160l-207 -1176h-164l-323 932l-164 -932h-158zM563 1278l244 266h223l-321 -266h-146z" />
<glyph horiz-adv-x="1122" d="M49 0l207 1176h162l323 -934l164 934h160l-207 -1176h-164l-323 932l-164 -932h-158z" />
<glyph horiz-adv-x="716" d="M12 8l49 98q31 -10 72 -10q111 0 202.5 82t133.5 213q-79 -84 -188 -84q-100 0 -156.5 69.5t-56.5 170.5q0 131 80 229t214 98q84 0 144.5 -44t87.5 -110.5t27 -146.5q0 -115 -37.5 -222.5t-101.5 -188t-155 -128.5t-192 -48q-34 0 -64.5 5.5t-44.5 10.5zM193 551 q0 -58 31 -99.5t93 -41.5q57 0 107 37t72 79q2 16 2 52q0 79 -35 132.5t-101 53.5q-78 0 -123.5 -63t-45.5 -150z" />
<glyph horiz-adv-x="761" d="M23 553h137l78 -721l331 721h148l-430 -860h-137z" />
<glyph horiz-adv-x="1064" d="M12 -252l70 133q49 -16 115 -16q184 0 335.5 153.5t219.5 389.5q-50 -60 -129 -107t-183 -47q-106 0 -184 56.5t-115 143.5t-37 189q0 103 32 201t90.5 176.5t149 126t197.5 47.5q97 0 174 -40.5t124 -109.5t71.5 -153.5t24.5 -177.5q0 -156 -38 -306t-109 -274 t-164.5 -218.5t-212 -147t-244.5 -52.5q-50 0 -97 8.5t-68 16.5zM276 649q0 -65 20.5 -120.5t69.5 -94.5t119 -39q98 0 184.5 69.5t121.5 145.5q6 52 6 105q0 87 -23.5 160t-76 121t-126.5 48q-88 0 -157 -57.5t-103.5 -147t-34.5 -190.5z" />
<glyph horiz-adv-x="1087" d="M66 10l69 133q49 -16 115 -16q184 0 335.5 153.5t219.5 389.5q-50 -60 -128.5 -107t-182.5 -47q-106 0 -184 56.5t-115 143.5t-37 189q0 103 32 201t90.5 176.5t149 126t197.5 47.5q78 0 143.5 -27t111 -72.5t77 -107.5t46.5 -131t15 -143q0 -156 -38 -306t-109 -274 t-164.5 -218.5t-212 -147t-244.5 -52.5q-50 0 -96.5 8t-67.5 17zM330 911q0 -65 20.5 -120.5t69.5 -94.5t119 -39q98 0 184 69.5t121 145.5q6 52 6 105q0 88 -23.5 160.5t-75.5 121t-126 48.5q-88 0 -157 -58t-103.5 -147.5t-34.5 -190.5z" />
<glyph horiz-adv-x="761" d="M215 1649h137l78 -721l332 721h147l-430 -861h-137z" />
<glyph horiz-adv-x="1433" d="M162 1176h174l26 -945l375 945h142l39 -947l358 947h184l-487 -1176h-162l-43 930l-371 -930h-159z" />
<glyph horiz-adv-x="696" d="M-59 -307l114 645h123l-14 -82q126 96 225 96q83 0 116 -53.5t15 -148.5l-80 -457h-121l78 440q9 55 -2.5 86t-56.5 31q-47 0 -101 -30t-92 -66l-82 -461h-122z" />
<glyph horiz-adv-x="1433" d="M162 1176h174l26 -945l375 945h142l39 -947l358 947h184l-487 -1176h-162l-43 930l-371 -930h-159zM686 1278l244 266h223l-322 -266h-145z" />
<glyph horiz-adv-x="985" d="M14 129l92 117q129 -88 244 -113l72 412l-8 6q-60 33 -98 59.5t-76.5 65t-57 86.5t-18.5 108q0 142 105.5 233t269.5 91l26 152h113l-29 -162q135 -26 279 -109l-92 -114q-111 62 -211 81l-68 -383l8 -4q51 -29 82 -49t70.5 -52.5t61 -63.5t37 -75.5t15.5 -95.5 q0 -150 -113 -242.5t-280 -94.5l-26 -150h-115l29 162q-165 30 -312 135zM334 874q0 -51 29.5 -86.5t89.5 -70.5l59 334q-76 -6 -127 -52.5t-51 -124.5zM463 123q87 8 143 58t56 130q0 57 -34.5 98t-101.5 80z" />
<glyph horiz-adv-x="962" d="M156 788l151 861h129l123 -559l330 559h129l-152 -861h-125l109 621l-279 -477h-69l-109 498l-112 -642h-125z" />
<glyph horiz-adv-x="960" d="M-37 -307l152 860h129l123 -559l329 559h129l-151 -860h-125l108 620l-278 -477h-70l-108 498l-113 -641h-125z" />
<glyph horiz-adv-x="1136" d="M37 295l22 123h201l105 340h-185l21 123h202l93 295h122l-92 -295h252l92 295h123l-92 -295h189l-23 -123h-205l-104 -340h188l-20 -123h-207l-90 -295h-121l90 295h-254l-90 -295h-123l90 295h-184zM383 418h254l104 340h-254z" />
<glyph horiz-adv-x="821" d="M-57 -96l16 98h143l74 240h-131l16 98h146l65 213h97l-66 -213h174l66 213h96l-66 -213h134l-19 -98h-145l-72 -240h131l-16 -98h-146l-63 -211h-98l63 211h-174l-64 -211h-96l64 211h-129zM199 2h174l73 240h-174z" />
<glyph horiz-adv-x="821" d="M135 999l17 99h143l74 239h-131l16 99h145l66 213h96l-65 -213h174l65 213h96l-65 -213h133l-18 -99h-146l-71 -239h131l-17 -99h-145l-64 -211h-98l64 211h-175l-63 -211h-96l63 211h-129zM391 1098h174l74 239h-174z" />
<glyph horiz-adv-x="1286" d="M49 0l207 1176h166l178 -777l461 777h166l-207 -1176h-158l156 883l-404 -686h-88l-159 708l-160 -905h-158z" />
<glyph horiz-adv-x="643" d="M156 788l151 861h125l-131 -750h352l-20 -111h-477z" />
<glyph horiz-adv-x="843" d="M23 375l26 153l119 66l102 582h160l-86 -484l219 123l-28 -153l-220 -123l-69 -398h493l-24 -141h-652l78 440z" />
<glyph horiz-adv-x="643" d="M-37 -307l152 860h125l-131 -750h352l-21 -110h-477z" />
<glyph horiz-adv-x="849" d="M49 0l207 1176h160l-185 -1035h494l-25 -141h-651zM561 522l35 195h156l-35 -195h-156z" />
<glyph horiz-adv-x="845" d="M49 0l207 1176h160l-185 -1035h494l-25 -141h-651zM203 -504l108 176h-67l35 199h145l-23 -207l-161 -217z" />
<glyph horiz-adv-x="1433" d="M162 1176h174l26 -945l375 945h142l39 -947l358 947h184l-487 -1176h-162l-43 930l-371 -930h-159zM573 1278l213 266h179l120 -266h-110l-109 176l-168 -176h-125z" />
<glyph horiz-adv-x="845" d="M49 0l207 1176h160l-185 -1035h494l-25 -141h-651zM418 801l108 176h-67l35 199h145l-23 -207l-161 -217z" />
<glyph horiz-adv-x="845" d="M49 0l207 1176h160l-185 -1035h494l-25 -141h-651zM203 1278l243 266h224l-322 -266h-145z" />
<glyph horiz-adv-x="690" d="M-39 -66q0 74 19.5 146t56 134t98.5 100t139 38q112 0 181 -64t69 -192q0 -74 -19 -146t-56 -134t-98.5 -100t-137.5 -38q-113 0 -182.5 64t-69.5 192zM82 -68q0 -153 131 -153q39 0 71.5 22.5t54 57.5t36.5 78.5t21.5 84.5t6.5 76q0 154 -129 154q-48 0 -86.5 -34 t-60.5 -85t-33.5 -103.5t-11.5 -97.5z" />
<glyph horiz-adv-x="845" d="M49 0l207 1176h160l-185 -1035h494l-25 -141h-651z" />
<glyph horiz-adv-x="763" d="M156 788l151 861h125l-76 -428l377 428h160l-371 -408l244 -453h-139l-189 361l-116 -129l-41 -232h-125z" />
<glyph horiz-adv-x="522" d="M57 741l209 119h117l-154 -860h-125l129 725l-133 -74z" />
<glyph horiz-adv-x="520" d="M158 1315l209 119h116l-153 -861h-125l129 725l-133 -73z" />
<glyph horiz-adv-x="659" d="M109 985l325 191h156l-207 -1176h-170l174 987l-217 -127z" />
<glyph horiz-adv-x="1085" d="M37 0l26 152h340l193 1093l-293 -170l-59 125l399 234h156l-226 -1282h345l-27 -152h-854z" />
<glyph horiz-adv-x="696" d="M-49 -102q0 188 77 321t199 133q38 0 74 -17t56.5 -35t45.5 -46l60 334h121l-158 -895h-121l17 92q-111 -107 -209 -107q-71 0 -116.5 55t-45.5 165zM76 -86q0 -61 21.5 -96t60.5 -35q82 0 182 111l47 260q-65 94 -137 94q-52 0 -93 -52.5t-61 -127.5t-20 -154z" />
<glyph horiz-adv-x="1275" d="M139 1077l180 99h99l-125 -705h-107l107 592l-117 -62zM147 0l689 1176h112l-688 -1176h-113zM610 164q0 139 195 221q-88 62 -88 147q0 80 65 132.5t166 52.5q92 0 143.5 -43.5t51.5 -110.5q0 -111 -154 -186q125 -68 125 -178q0 -93 -78.5 -152t-197.5 -59 q-105 0 -166.5 46.5t-61.5 129.5zM719 172q0 -48 33 -72t88 -24q69 0 117.5 35t48.5 92q0 46 -30 76.5t-81 58.5q-40 -17 -65 -30t-54 -33.5t-43 -46t-14 -56.5zM819 524q0 -37 22 -60.5t58 -43.5q139 53 139 131q0 36 -25.5 59t-68.5 23q-53 0 -89 -32.5t-36 -76.5z" />
<glyph horiz-adv-x="1275" d="M139 1077l180 99h99l-125 -705h-107l107 592l-115 -62zM150 0l686 1176h114l-688 -1176h-112zM618 76l60 71q81 -63 156 -63q65 0 115 44t50 118q0 53 -28.5 84.5t-83.5 31.5t-133 -45l-58 37l97 351h370l-14 -93h-283l-41 -176q46 17 93 17q90 0 140 -57t50 -146 q0 -108 -72.5 -185t-193.5 -77q-119 0 -224 88z" />
<glyph horiz-adv-x="763" d="M-37 -307l152 860h125l-76 -428l377 428h159l-370 -408l243 -452h-139l-188 360l-117 -129l-41 -231h-125z" />
<glyph horiz-adv-x="1280" d="M139 1077l180 99h97l-123 -705h-107l105 592l-115 -62zM147 0l687 1176h116l-690 -1176h-113zM618 0l11 59q9 54 30 97.5t58.5 79.5t66.5 57.5t81 55.5q9 6 14 9q48 31 73 48.5t54.5 43t41.5 49t11 48.5q0 34 -24.5 55t-71.5 21q-84 0 -175 -60l-43 78q115 76 230 76 q90 0 142 -44.5t52 -117.5q0 -28 -8.5 -55t-19.5 -47.5t-34.5 -44.5t-38.5 -38.5t-47 -37t-46 -31.5t-49 -31q-13 -8 -19 -12q-71 -44 -104 -79t-43 -85h325l-14 -94h-453z" />
<glyph horiz-adv-x="1433" d="M162 1176h174l26 -945l375 945h142l39 -947l358 947h184l-487 -1176h-162l-43 930l-371 -930h-159zM610 1298l35 193h154l-35 -193h-154zM901 1298l35 193h151l-32 -193h-154z" />
<glyph horiz-adv-x="1017" d="M49 0l207 1176h160l-109 -605l537 605h205l-514 -558l344 -618h-181l-270 502l-164 -178l-57 -324h-158zM236 -504l108 176h-68l35 199h146l-23 -207l-162 -217z" />
<glyph horiz-adv-x="1236" d="M139 1077l180 99h99l-125 -705h-107l107 592l-117 -62zM147 0l689 1176h114l-688 -1176h-115zM543 147l14 80l381 478h141l-82 -463h95l-15 -95h-96l-27 -147h-108l26 147h-329zM672 242h217l63 354z" />
<glyph horiz-adv-x="1253" d="M139 1077l180 99h99l-125 -705h-107l107 592l-115 -62zM150 0l686 1176h114l-688 -1176h-112zM608 240q0 126 54 235.5t151 175.5t213 66q28 0 54 -4.5t38 -8.5l12 -4l-38 -84q-27 9 -64 9q-97 0 -175 -66t-114 -172q71 66 162 66q88 0 138.5 -57.5t50.5 -141.5 q0 -106 -69 -186t-185 -80q-109 0 -168.5 73.5t-59.5 178.5zM715 236q0 -65 31.5 -110.5t89.5 -45.5q67 0 106 51t39 121q0 48 -26.5 81.5t-82.5 33.5q-49 0 -92 -27.5t-63 -60.5q-2 -14 -2 -43z" />
<glyph horiz-adv-x="1017" d="M49 0l207 1176h160l-109 -605l537 605h205l-514 -558l344 -618h-181l-270 502l-164 -178l-57 -324h-158z" />
<glyph horiz-adv-x="1433" d="M162 1176h174l26 -945l375 945h142l39 -947l358 947h184l-487 -1176h-162l-43 930l-371 -930h-159zM606 1544h199l164 -266h-129z" />
<glyph horiz-adv-x="1263" d="M139 1077l180 99h99l-125 -705h-107l105 592l-115 -62zM147 0l689 1176h112l-688 -1176h-113zM606 72l58 71q90 -61 174 -61q70 0 114.5 37.5t44.5 93.5q0 62 -50.5 92.5t-123.5 30.5h-22l14 92h31q67 0 124.5 36t57.5 89q0 34 -23.5 52t-66.5 18q-66 0 -166 -54l-37 76 q121 72 223 72q86 0 132.5 -41.5t46.5 -104.5q0 -57 -40 -106.5t-116 -79.5q54 -15 89.5 -62t35.5 -110q0 -90 -68 -157.5t-192 -67.5q-122 0 -240 84z" />
<glyph horiz-adv-x="374" d="M16 698q91 31 115 56.5t35 91.5l141 803h125l-139 -797q-5 -29 -7.5 -41t-8 -35t-10 -32.5t-12.5 -27t-16.5 -25t-22 -21t-29.5 -21t-38 -18t-48 -18.5t-58 -17z" />
<glyph horiz-adv-x="372" d="M-178 -397q91 31 114.5 56t34.5 91l142 803h125l-140 -797q-5 -29 -7.5 -41t-8 -35t-10 -32.5t-12.5 -27t-16.5 -25t-22 -21t-29.5 -21t-38 -18t-48 -18.5t-58 -17z" />
<glyph horiz-adv-x="475" d="M-143 -127q45 15 75 27.5t52 27.5t34.5 26.5t21.5 33t13 38.5t10 50l193 1100h162l-195 -1094q-10 -61 -16 -88t-20.5 -66.5t-33.5 -58t-54 -44t-84 -43.5t-121 -38zM94 1278l213 266h178l121 -266h-110l-109 176l-168 -176h-125z" />
<glyph horiz-adv-x="475" d="M-143 -127q45 15 75 27.5t52 27.5t34.5 26.5t21.5 33t13 38.5t10 50l193 1100h162l-195 -1094q-10 -61 -16 -88t-20.5 -66.5t-33.5 -58t-54 -44t-84 -43.5t-121 -38z" />
<glyph horiz-adv-x="1036" d="M33 553h139l14 -674l265 674h108l27 -672l250 672h145l-354 -860h-127l-27 661l-262 -661h-127z" />
<glyph horiz-adv-x="475" d="M49 0l207 1176h160l-209 -1176h-158zM100 1352q50 83 88.5 120t92.5 37q38 0 74.5 -25t67 -50t52.5 -25q21 0 43.5 19.5t59.5 76.5l75 -55q-51 -83 -89 -119.5t-93 -36.5q-37 0 -73.5 25t-67.5 49.5t-54 24.5q-20 0 -42 -18.5t-58 -76.5z" />
<glyph horiz-adv-x="374" d="M156 788l151 861h125l-151 -861h-125z" />
<glyph horiz-adv-x="475" d="M-119 -238q0 73 52 130t149 108h-31l207 1176h160l-209 -1176h-6q-102 -63 -150.5 -112.5t-48.5 -102.5q0 -9 2.5 -17t5.5 -13.5t9.5 -9.5t11 -7t14 -5t14.5 -3t16.5 -1.5t16 -0.5h16.5h15l-37 -103q-23 0 -36 0.5t-42 4t-47.5 12t-39.5 23t-31.5 39.5t-10.5 58z" />
<glyph horiz-adv-x="1019" d="M94 737q0 193 121.5 316t316.5 123h136l-262 -1487h-132l132 747q-144 0 -228 77.5t-84 223.5zM555 -311l262 1487h133l-262 -1487h-133z" />
<glyph horiz-adv-x="473" d="M49 0l207 1176h160l-209 -1176h-158zM115 1329l20 113h494l-21 -113h-493z" />
<glyph horiz-adv-x="552" d="M53.5 -57q-2.5 60 14.5 147l174 993q9 53 16 83t22 65.5t36 56.5t55.5 44.5t83.5 41t118 35.5l27 -106q-61 -21 -95.5 -38t-55.5 -42t-29.5 -49.5t-16.5 -71.5l-182 -1036q-21 -99 -4 -133t115 -74l-49 -99q-122 36 -174.5 79.5t-55 103.5z" />
<glyph horiz-adv-x="1038" d="M227 1649h140l14 -674l264 674h109l26 -672l250 672h146l-355 -861h-127l-26 662l-262 -662h-127z" />
<glyph horiz-adv-x="610" d="M152 1034q0 188 88 301t204 113q17 0 33 -2t32.5 -7t29 -9t29 -12.5t25.5 -12.5t25 -15t21 -14t20.5 -14.5t16.5 -11.5l-62 -84q-2 2 -19.5 14.5t-29 19.5t-30 17t-36.5 15t-36 5q-75 0 -132 -85t-57 -208q0 -76 28 -117.5t79 -41.5q16 0 35 4.5t40 13.5t35 16t35.5 18.5 t26.5 14.5l41 -94q-148 -84 -240 -84q-91 0 -146.5 67.5t-55.5 192.5z" />
<glyph horiz-adv-x="374" d="M-37 -307l152 860h125l-152 -860h-125z" />
<glyph horiz-adv-x="552" d="M-59 -133q61 21 95.5 38t55 42t29 49.5t16.5 71.5l182 1036q7 38 10 58t2 42t-7.5 33t-22 25t-36 24t-56.5 25l49 98q122 -36 174.5 -79.5t55 -103.5t-14.5 -147l-174 -993q-9 -53 -16.5 -83t-22 -65.5t-35.5 -56.5t-56 -44t-84 -41t-118 -36z" />
<glyph horiz-adv-x="1488" d="M100 535q0 132 45 250.5t129 210t214.5 145t289.5 53.5q276 0 438 -152.5t162 -400.5q0 -132 -45 -250.5t-129 -210t-214.5 -145t-289.5 -53.5q-276 0 -438 152.5t-162 400.5zM170 535q0 -217 143.5 -353.5t391.5 -136.5q139 0 254.5 47t191 128.5t117 189.5t41.5 231 q0 217 -143 353t-392 136q-139 0 -254.5 -47t-191 -128t-117 -189t-41.5 -231zM410 508q-7 104 19.5 189.5t76.5 140t117 84.5t143 30q141 0 289 -112l-58 -56q-26 20 -41.5 31t-47.5 28.5t-68 26.5t-76 9q-119 0 -196 -104.5t-68 -260.5q6 -101 51.5 -159t120.5 -58 q127 0 266 90l49 -61q-51 -31 -85 -48.5t-99 -37t-127 -19.5q-111 0 -185.5 76t-80.5 211z" />
<glyph horiz-adv-x="1646" d="M-170 -301q149 53 186 105t66 219l162 921h-119l25 131h116l27 150q28 146 93.5 207t168.5 61q107 0 332 -68l12 68h162l-98 -555q173 160 315 160q119 0 195.5 -88.5t76.5 -266.5q0 -202 -51.5 -375.5t-151 -282t-227.5 -108.5q-49 0 -94 14.5t-83.5 43t-63.5 52 t-56 58.5l-24 -145h-164l227 1292q-212 54 -282 54q-101 0 -123 -117l-27 -154h232l-25 -131h-231l-158 -911q-11 -64 -17 -93.5t-16 -76t-19.5 -66.5t-24.5 -51.5t-34 -46.5t-44 -36.5t-59 -35.5t-75 -29.5t-96 -31.5zM850 289q113 -170 242 -170q86 0 154 94t102 230 t34 278q0 111 -39.5 173t-119.5 62q-71 0 -140 -45t-147 -125z" />
<glyph horiz-adv-x="720" d="M-123 -307l326 430l-162 430h137l107 -340l225 340h149l-313 -428l176 -432h-141l-115 336l-231 -336h-158z" />
<glyph horiz-adv-x="473" d="M49 0l207 1176h160l-209 -1176h-158zM129 1544h199l164 -266h-130z" />
<glyph horiz-adv-x="1497" d="M121 815q0 68 19 134t55 121.5t95 89.5t132 34q113 0 183.5 -64t70.5 -186q0 -54 -11.5 -107t-35.5 -102.5t-58.5 -87t-84.5 -60t-109 -22.5q-113 0 -184.5 64t-71.5 186zM244 811q0 -147 135 -147q44 0 79.5 29t55.5 73.5t30.5 91.5t10.5 90q0 146 -135 146 q-44 0 -79.5 -29t-55.5 -73.5t-30.5 -91t-10.5 -89.5zM309 0l738 1176h129l-738 -1176h-129zM811 231q0 68 19 134t55 121.5t95 89.5t132 34q113 0 183.5 -64t70.5 -186q0 -68 -18.5 -133.5t-54.5 -121t-95 -89.5t-133 -34q-112 0 -183 63.5t-71 185.5zM934 227 q0 -145 135 -145q44 0 79 29t55.5 73.5t31 91.5t10.5 89q0 147 -135 147q-44 0 -79.5 -29t-55.5 -74t-30.5 -92t-10.5 -90z" />
<glyph horiz-adv-x="1081" d="M2 289q0 68 23 129.5t74.5 105t121.5 43.5q82 0 133.5 -47t51.5 -137q0 -50 -13.5 -98t-39.5 -88.5t-69.5 -65.5t-97.5 -25q-82 0 -133 46.5t-51 136.5zM98 287q0 -103 90 -103q58 0 90.5 66.5t32.5 134.5q0 104 -92 104q-40 0 -69 -36t-40.5 -80.5t-11.5 -85.5z M137 -307l533 860h100l-532 -860h-101zM502 -139q0 69 23 130.5t74.5 104.5t121.5 43q82 0 133 -46t51 -136q0 -68 -23 -129.5t-75 -105.5t-123 -44q-80 0 -131 47t-51 136zM596 -139q0 -105 92 -105q40 0 69 36.5t40.5 81t11.5 85.5q0 102 -90 102q-59 0 -91 -65.5 t-32 -134.5z" />
<glyph horiz-adv-x="1081" d="M195 1384q0 68 23 130t74.5 105.5t121.5 43.5q82 0 133 -47t51 -137q0 -68 -22.5 -129t-74 -104.5t-122.5 -43.5q-82 0 -133 46t-51 136zM291 1382q0 -102 90 -102q58 0 90.5 66.5t32.5 134.5q0 104 -92 104q-40 0 -69 -36.5t-40.5 -81t-11.5 -85.5zM330 788l532 861h101 l-533 -861h-100zM694 956q0 69 23 130.5t74.5 105t121.5 43.5q82 0 133.5 -46t51.5 -136q0 -68 -23 -129.5t-75 -105.5t-123 -44q-81 0 -132 46.5t-51 135.5zM788 956q0 -104 93 -104q40 0 68.5 36.5t40 80.5t11.5 86q0 102 -90 102q-59 0 -91 -66t-32 -135z" />
<glyph horiz-adv-x="473" d="M49 0l207 1176h160l-209 -1176h-158zM135 1298l35 193h154l-35 -193h-154zM426 1298l35 193h151l-32 -193h-154z" />
<glyph horiz-adv-x="473" d="M49 0l207 1176h160l-209 -1176h-158zM96 1278l213 266h178l121 -266h-110l-109 176l-168 -176h-125z" />
<glyph horiz-adv-x="344" d="M139 788l29 166h131l-29 -166h-131zM209 1196l29 166h131l-29 -166h-131z" />
<glyph horiz-adv-x="638" d="M182 1143q0 188 88 299.5t203 111.5l29 -2l37 97h61l-41 -109l31 -12l45 121h61l-55 -148l72 -49l-62 -84q-27 22 -47 35l-149 -406q22 6 46.5 18t52 28t34.5 20l43 -96q-135 -74 -219 -84l-35 -95h-62l35 97q-22 4 -33 8l-38 -105h-62l49 134q-84 68 -84 221zM305 1153 q0 -57 14 -92l142 379q-66 -19 -111 -99t-45 -188zM358 1006q17 -10 33 -13l162 439q-19 8 -31 10z" />
<glyph horiz-adv-x="641" d="M-10 47q0 188 88 300t203 112l28 -2l37 96h62l-41 -109l30 -12l45 121h62l-55 -147l71 -50l-61 -84q-27 22 -47 35l-150 -405q22 6 46.5 18t52.5 28t34 19l43 -96q-135 -74 -219 -84l-35 -94h-61l35 96q-22 4 -33 8l-39 -104h-61l49 133q-84 68 -84 221zM113 57 q0 -57 14 -92l141 379q-66 -19 -110.5 -99t-44.5 -188zM166 -90q15 -9 33 -12l161 438q-20 8 -30 10z" />
</font>
</defs>
</svg>
