<?xml version="1.0" standalone="no"?>
<!DOCTYPE svg PUBLIC "-//W3C//DTD SVG 1.1//EN" "http://www.w3.org/Graphics/SVG/1.1/DTD/svg11.dtd" >
<svg xmlns="http://www.w3.org/2000/svg">
<metadata></metadata>
<defs>
<font id="verbcompregular" horiz-adv-x="901" >
<font-face units-per-em="2048" ascent="1638" descent="-410" />
<missing-glyph horiz-adv-x="401" />
<glyph unicode="ff" horiz-adv-x="1093" d="M59 944v131h103v148q0 145 45.5 207.5t130.5 62.5q101 0 242 -72l-58 -121q-115 46 -145 46q-62 0 -62 -109v-162h193v-131h-193v-944h-153v944h-103zM606 944v131h103v148q0 145 45.5 207.5t130.5 62.5q100 0 241 -72l-57 -121q-115 46 -145 46q-62 0 -62 -109v-162h193 v-131h-193v-944h-153v944h-103z" />
<glyph unicode="fi" horiz-adv-x="952" d="M59 944v131h103v148q0 145 45.5 207.5t128.5 62.5q76 0 196 -55l-38 -127q-94 35 -117 35q-62 0 -62 -109v-162h193v-131h-193v-944h-153v944h-103zM666 1288v199h165v-199h-165zM672 0v1075h153v-1075h-153z" />
<glyph unicode="fl" horiz-adv-x="966" d="M59 944v131h103v148q0 145 45.5 207.5t128.5 62.5q76 0 196 -55l-38 -127q-94 35 -117 35q-62 0 -62 -109v-162h193v-131h-193v-944h-153v944h-103zM678 0v1493h156v-1493h-156z" />
<glyph unicode="ffi" horiz-adv-x="1499" d="M59 944v131h103v148q0 145 45.5 207.5t130.5 62.5q101 0 242 -72l-58 -121q-115 46 -145 46q-62 0 -62 -109v-162h193v-131h-193v-944h-153v944h-103zM606 944v131h103v148q0 145 45.5 207.5t128.5 62.5q76 0 196 -55l-39 -127q-94 35 -116 35q-62 0 -62 -109v-162h193 v-131h-193v-944h-153v944h-103zM1214 1288v199h166v-199h-166zM1221 0v1075h153v-1075h-153z" />
<glyph unicode="ffl" horiz-adv-x="1513" d="M59 944v131h103v148q0 145 45.5 207.5t130.5 62.5q101 0 242 -72l-58 -121q-115 46 -145 46q-62 0 -62 -109v-162h193v-131h-193v-944h-153v944h-103zM606 944v131h103v148q0 145 45.5 207.5t128.5 62.5q76 0 196 -55l-39 -127q-94 35 -116 35q-62 0 -62 -109v-162h193 v-131h-193v-944h-153v944h-103zM1225 0v1493h155v-1493h-155z" />
<glyph unicode="ffk" horiz-adv-x="1900" d="M59 944v131h103v148q0 145 45.5 207.5t130.5 62.5q101 0 242 -72l-58 -121q-115 46 -145 46q-62 0 -62 -109v-162h193v-131h-193v-944h-153v944h-103zM606 944v131h103v148q0 145 45.5 207.5t128.5 62.5q76 0 196 -55l-39 -127q-94 35 -116 35q-62 0 -62 -109v-162h193 v-131h-193v-944h-153v944h-103zM1219 0v1493h153v-958l281 540h176l-258 -436l301 -639h-164l-223 492l-113 -189v-303h-153z" />
<glyph unicode="ffj" horiz-adv-x="1497" d="M59 944v131h103v148q0 145 45.5 207.5t130.5 62.5q101 0 242 -72l-58 -121q-115 46 -145 46q-62 0 -62 -109v-162h193v-131h-193v-944h-153v944h-103zM606 944v131h103v148q0 145 45.5 207.5t128.5 62.5q76 0 196 -55l-39 -127q-94 35 -116 35q-62 0 -62 -109v-162h193 v-131h-193v-944h-153v944h-103zM1053 -307q33 16 55 26.5t41 24.5t29.5 22t19.5 25.5t12.5 27.5t6 35.5t2.5 42v54.5v1124h153v-1116q0 -71 -1 -102.5t-9 -77t-23.5 -67t-46 -51t-75.5 -51t-113 -46.5zM1212 1288v199h166v-199h-166z" />
<glyph unicode="fft" horiz-adv-x="1683" d="M59 944v131h103v148q0 145 45.5 207.5t130.5 62.5q101 0 242 -72l-58 -121q-115 46 -145 46q-62 0 -62 -109v-162h193v-131h-193v-944h-153v944h-103zM606 944v131h103v148q0 145 45.5 207.5t130.5 62.5q100 0 241 -72l-57 -121q-115 46 -145 46q-62 0 -62 -109v-162h193 v-131h-193v-944h-153v944h-103zM1151 944v131h100v260l156 51v-311h201v-131h-201v-704q0 -64 16.5 -88.5t46.5 -24.5q48 0 127 49l60 -123q-129 -76 -225 -76q-87 0 -134 60t-47 201v706h-100z" />
<glyph unicode="fh" horiz-adv-x="1456" d="M59 944v131h103v148q0 145 45.5 207.5t128.5 62.5q76 0 196 -55l-38 -127q-94 35 -117 35q-62 0 -62 -109v-162h193v-131h-193v-944h-153v944h-103zM672 0v1493h153v-569q37 37 63 60t67.5 53.5t86.5 45.5t91 15q103 0 152.5 -77.5t49.5 -203.5v-817h-153v791 q0 167 -109 167q-38 0 -78 -19.5t-74 -51.5t-55.5 -56.5t-40.5 -50.5v-780h-153z" />
<glyph unicode="fj" horiz-adv-x="948" d="M59 944v131h103v148q0 145 45.5 207.5t128.5 62.5q76 0 196 -55l-38 -127q-94 35 -117 35q-62 0 -62 -109v-162h193v-131h-193v-944h-153v944h-103zM506 -307q33 16 55 26.5t41 24.5t29.5 22t19.5 25.5t12.5 27.5t6 35.5t2.5 42v54.5v1124h153v-1116q0 -71 -1 -102.5 t-9 -77t-23.5 -67t-46 -51t-75.5 -51t-113 -46.5zM666 1288v199h165v-199h-165z" />
<glyph unicode="fk" horiz-adv-x="1353" d="M59 944v131h103v148q0 145 45.5 207.5t128.5 62.5q76 0 196 -55l-38 -127q-94 35 -117 35q-62 0 -62 -109v-162h193v-131h-193v-944h-153v944h-103zM672 0v1493h153v-958l281 540h176l-258 -436l301 -639h-164l-223 492l-113 -189v-303h-153z" />
<glyph unicode="ft" horiz-adv-x="1134" d="M59 944v131h103v148q0 145 45.5 207.5t130.5 62.5q101 0 242 -72l-58 -121q-115 46 -145 46q-62 0 -62 -109v-162h193v-131h-193v-944h-153v944h-103zM602 944v131h100v260l156 51v-311h201v-131h-201v-704q0 -113 64 -113q48 0 127 49l59 -123q-129 -76 -225 -76 q-87 0 -134 60t-47 201v706h-100z" />
<glyph unicode="ffh" horiz-adv-x="2002" d="M59 944v131h103v148q0 145 45.5 207.5t130.5 62.5q101 0 242 -72l-58 -121q-115 46 -145 46q-62 0 -62 -109v-162h193v-131h-193v-944h-153v944h-103zM606 944v131h103v148q0 145 45.5 207.5t128.5 62.5q76 0 196 -55l-39 -127q-94 35 -116 35q-62 0 -62 -109v-162h193 v-131h-193v-944h-153v944h-103zM1219 0v1493h153v-569q38 38 63 60.5t67 53t86.5 45.5t90.5 15q103 0 153 -77.5t50 -203.5v-817h-153v791q0 167 -109 167q-38 0 -78 -19.5t-74 -51.5t-55.5 -56.5t-40.5 -50.5v-780h-153z" />
<glyph unicode="ffb" horiz-adv-x="1998" d="M59 944v131h103v148q0 145 45.5 207.5t130.5 62.5q101 0 242 -72l-58 -121q-115 46 -145 46q-62 0 -62 -109v-162h193v-131h-193v-944h-153v944h-103zM606 944v131h103v148q0 145 45.5 207.5t128.5 62.5q76 0 196 -55l-39 -127q-94 35 -116 35q-62 0 -62 -109v-162h193 v-131h-193v-944h-153v944h-103zM1219 0v1493h153v-557q56 72 117 117t137 45q129 0 207 -138.5t78 -422.5q0 -283 -78 -421.5t-207 -138.5q-131 0 -254 162v-139h-153zM1372 291q41 -75 97.5 -123.5t113.5 -48.5q84 0 127 110t43 308q0 199 -42.5 309t-127.5 110 q-57 0 -114 -49t-97 -125v-491z" />
<glyph unicode="fb" horiz-adv-x="1452" d="M59 944v131h103v148q0 145 45.5 207.5t128.5 62.5q76 0 196 -55l-38 -127q-94 35 -117 35q-62 0 -62 -109v-162h193v-131h-193v-944h-153v944h-103zM672 0v1493h153v-557q56 72 117 117t137 45q129 0 207 -138.5t78 -422.5q0 -283 -78 -421.5t-207 -138.5 q-131 0 -254 162v-139h-153zM825 291q41 -75 97.5 -123.5t113.5 -48.5q84 0 127 110t43 308q0 199 -42.5 309t-127.5 110q-57 0 -114 -49t-97 -125v-491z" />
<glyph unicode=" "  horiz-adv-x="401" />
<glyph unicode="&#x09;" horiz-adv-x="401" />
<glyph unicode="&#xa0;" horiz-adv-x="401" />
<glyph unicode="!" horiz-adv-x="471" d="M141 1434h189l-47 -1006h-97zM152 0v236h167v-236h-167z" />
<glyph unicode="&#x22;" horiz-adv-x="645" d="M104 1434h158l-29 -531h-100zM383 1434h158l-29 -531h-100z" />
<glyph unicode="#" horiz-adv-x="1087" d="M82 369v131h192l48 432h-181v133h195l39 369h123l-39 -369h241l39 369h123l-39 -369h183v-133h-197l-45 -432h180v-131h-194l-39 -369h-123l39 369h-244l-39 -369h-123l39 369h-178zM397 500h244l45 432h-242z" />
<glyph unicode="$" horiz-adv-x="935" d="M84 135l82 127q49 -32 80 -51t78.5 -42t87.5 -32v541l-21 14q-54 37 -86.5 62t-75 66t-66 79.5t-40.5 93t-17 115.5q0 148 84.5 241t221.5 105v186h116v-190q140 -21 285 -113l-82 -129q-122 70 -203 88v-499l11 -6q54 -37 86.5 -61.5t80 -70t74.5 -88t47.5 -104 t20.5 -129.5q0 -158 -90 -252.5t-230 -105.5v-185h-116v191q-164 25 -328 149zM274 1110q0 -69 35.5 -123t102.5 -106v417q-61 -14 -99.5 -62t-38.5 -126zM528 133q66 14 109 67t43 138q0 77 -39 136.5t-113 119.5v-461z" />
<glyph unicode="%" horiz-adv-x="1445" d="M76 1075q0 176 64.5 278.5t197.5 102.5t197.5 -102.5t64.5 -278.5q0 -177 -65 -282t-197 -105t-197 105t-65 282zM201 1075q0 -272 137 -272q135 0 135 272q0 266 -135 266q-137 0 -137 -266zM401 0l512 1434h127l-512 -1434h-127zM846 365q0 176 64.5 278t197.5 102 t197.5 -102t64.5 -278q0 -177 -65 -282.5t-197 -105.5t-197 105.5t-65 282.5zM971 365q0 -273 137 -273q135 0 135 273q0 266 -135 266q-137 0 -137 -266z" />
<glyph unicode="&#x26;" horiz-adv-x="1048" d="M119 338q0 123 54 222t153 210q-65 97 -101.5 184.5t-36.5 192.5q0 151 78 230t191 79t182.5 -78.5t69.5 -203.5q0 -110 -52 -203.5t-149 -206.5l229 -338q53 149 66 330h155q-8 -107 -40 -233t-84 -236l196 -287h-182l-100 147q-129 -170 -304 -170q-140 0 -232.5 101 t-92.5 260zM270 358q0 -54 16.5 -107t59.5 -95.5t105 -42.5q121 0 215 155l-258 381q-66 -79 -102 -149t-36 -142zM330 1145q0 -118 98 -264q67 76 103 142.5t36 139.5q0 66 -28.5 113t-85.5 47q-58 0 -90.5 -50.5t-32.5 -127.5z" />
<glyph unicode="'" horiz-adv-x="366" d="M104 1434h158l-29 -531h-100z" />
<glyph unicode="(" horiz-adv-x="509" d="M137 88v1249q0 37 0.5 58.5t2.5 51t5.5 46.5t10.5 40.5t17 37.5t25 32.5t35 31.5t46 28t58.5 28t72.5 27l43 -112q-30 -15 -51 -26t-38 -24.5t-27.5 -22t-18.5 -25.5t-11 -27t-5.5 -34.5t-2.5 -40.5v-52v-1282v-52t2.5 -40.5t5.5 -34.5t11 -27t18.5 -25.5t27.5 -22 t38 -24.5t51 -26l-43 -113q-40 14 -72.5 27t-58.5 28t-46 28t-35 31.5t-25 32.5t-17 37.5t-10.5 40.5t-5.5 46.5t-2.5 51t-0.5 58.5z" />
<glyph unicode=")" horiz-adv-x="509" d="M57 -180q30 15 51 26t38 24.5t27.5 22t18.5 25.5t11 27t5.5 34.5t2.5 40.5v52v1282v52t-2.5 40.5t-5.5 34.5t-11 27t-18.5 25.5t-27.5 22t-38 24.5t-51 26l43 112q40 -14 72.5 -27t58.5 -28t46 -28t35 -31.5t25 -32.5t17 -37.5t10.5 -40.5t5.5 -46.5t2.5 -51t0.5 -58.5 v-1249q0 -37 -0.5 -58.5t-2.5 -51t-5.5 -46.5t-10.5 -40.5t-17 -37.5t-25 -32.5t-35 -31.5t-46 -28t-58.5 -28t-72.5 -27z" />
<glyph unicode="*" horiz-adv-x="854" d="M102 969l267 110l-267 113l68 119l227 -183l-39 289h138l-37 -287l223 181l68 -121l-261 -111l261 -112l-68 -117l-223 174l37 -283h-138l39 287l-227 -178z" />
<glyph unicode="+" d="M92 616v134h291v331h131v-331h291v-134h-291v-331h-131v331h-291z" />
<glyph unicode="," horiz-adv-x="411" d="M111 -211l84 211h-76v246h166l16 -260l-139 -254z" />
<glyph unicode="-" horiz-adv-x="659" d="M121 512v143h420v-143h-420z" />
<glyph unicode="." horiz-adv-x="405" d="M119 0v246h168v-246h-168z" />
<glyph unicode="/" horiz-adv-x="661" d="M39 -184l463 1802h123l-465 -1802h-121z" />
<glyph unicode="0" horiz-adv-x="989" d="M106 717q0 739 388 739q389 0 389 -739q0 -740 -389 -740q-388 0 -388 740zM270 717q0 -143 12 -250t37.5 -186t69.5 -119.5t105 -40.5q82 0 133 73.5t71.5 201.5t20.5 321q0 192 -20.5 320t-71.5 202t-133 74q-61 0 -105 -40.5t-69.5 -119.5t-37.5 -186t-12 -250z" />
<glyph unicode="1" horiz-adv-x="608" d="M43 1243l250 191h149v-1434h-159v1255l-166 -125z" />
<glyph unicode="2" horiz-adv-x="886" d="M86 0v113q0 57 8.5 111t19.5 95t35 86.5t40 72t50 68t49.5 58.5t55.5 58t51 53q221 235 221 403q0 85 -48.5 136t-125.5 51q-102 0 -249 -111l-80 117q174 145 348 145q143 0 231 -92t88 -242q0 -67 -19.5 -135t-48.5 -122t-71 -111t-78 -98t-79 -87q-14 -15 -21 -22 q-54 -57 -82.5 -92t-57 -83.5t-40 -100.5t-11.5 -119h510v-152h-696z" />
<glyph unicode="3" horiz-adv-x="890" d="M66 111l81 122q138 -102 256 -102q98 0 162 73.5t64 196.5q0 79 -30.5 140.5t-78.5 96t-100 52t-103 17.5h-26v151h35q99 0 180.5 71.5t81.5 188.5q0 87 -46 137t-126 50q-109 0 -230 -97l-75 109q156 139 333 139q143 0 224.5 -91t81.5 -224q0 -106 -56.5 -201 t-161.5 -147q116 -39 188.5 -146t72.5 -254q0 -79 -22.5 -151.5t-65.5 -132.5t-116 -96t-165 -36q-110 0 -206 43t-152 91z" />
<glyph unicode="4" horiz-adv-x="954" d="M61 317v132l461 985h211v-967h150v-150h-150v-317h-162v317h-510zM209 467h362v774z" />
<glyph unicode="5" horiz-adv-x="882" d="M80 125l78 129q147 -123 245 -123q92 0 157 89.5t65 230.5q0 132 -57 221.5t-158 89.5q-88 0 -197 -90l-88 49l53 713h574v-152h-439l-18 -408q69 37 154 37q106 0 185 -64t118 -167t39 -229q0 -93 -23 -176.5t-67 -151t-115 -107t-160 -39.5q-176 0 -346 148z" />
<glyph unicode="6" horiz-adv-x="929" d="M102 582q-1 166 27.5 308t78.5 245t118 176t148.5 109t168.5 36q36 0 71 -5.5t52 -10.5l16 -6l-39 -144q-43 17 -96 17q-49 0 -95.5 -19.5t-91.5 -62.5t-81.5 -106t-63.5 -155.5t-39 -205.5q16 26 36 50t50.5 50t73 41.5t90.5 15.5q146 0 233 -129.5t87 -322.5 q0 -133 -42 -242.5t-126 -176.5t-195 -67q-95 0 -169.5 51t-119.5 137t-68 192t-24 225zM266 571q0 -125 24 -223.5t74.5 -159.5t120.5 -61q64 0 110.5 50t67.5 123.5t21 158.5q0 82 -19 151t-64.5 117.5t-111.5 48.5q-80 0 -139.5 -61.5t-83.5 -136.5v-7z" />
<glyph unicode="7" horiz-adv-x="761" d="M59 1282v152h660v-134q-8 -13 -20.5 -37.5t-50 -103.5t-71.5 -162t-75.5 -206t-71 -243t-50 -266t-20.5 -282h-170q0 170 35 361.5t80 337t101.5 286t86.5 203t48 94.5h-482z" />
<glyph unicode="8" horiz-adv-x="954" d="M94 350q0 256 256 422q-194 140 -194 356q0 143 89.5 235.5t231.5 92.5t232 -92.5t90 -235.5q0 -215 -195 -356q254 -165 254 -422q0 -171 -105 -272t-276 -101q-172 0 -277.5 101t-105.5 272zM258 358q0 -112 61.5 -175.5t157.5 -63.5t157.5 63.5t61.5 175.5 q0 60 -18 112t-51 92.5t-68 70.5t-82 59q-47 -29 -82 -59t-68 -70.5t-51 -92.5t-18 -112zM309 1114q0 -164 166 -268q170 103 170 268q0 84 -47 143.5t-121 59.5t-121 -59.5t-47 -143.5z" />
<glyph unicode="9" horiz-adv-x="929" d="M84 969q0 134 42.5 244t126 176.5t193.5 66.5q95 0 169.5 -50.5t119.5 -136.5t68.5 -192.5t23.5 -224.5q1 -207 -42 -375.5t-117.5 -276.5t-172 -165.5t-208.5 -57.5q-36 0 -70 5.5t-51 11.5l-16 6l36 143q44 -16 97 -16q49 0 95.5 19.5t91 62t80.5 105t63 154.5t40 204 q-98 -156 -250 -156q-97 0 -171 62.5t-111 164.5t-37 226zM246 975q0 -82 19 -151.5t64.5 -118t110.5 -48.5q79 0 139.5 61t84.5 136v8q0 192 -57.5 318.5t-160.5 126.5q-65 0 -112 -50.5t-67.5 -124t-20.5 -157.5z" />
<glyph unicode=":" horiz-adv-x="417" d="M125 0v246h168v-246h-168zM125 698v246h168v-246h-168z" />
<glyph unicode=";" horiz-adv-x="438" d="M123 -211l84 211h-76v246h166l16 -260l-139 -254zM131 698v246h168v-246h-168z" />
<glyph unicode="&#x3c;" d="M74 621v127l710 430v-179l-559 -315l559 -319v-175z" />
<glyph unicode="=" d="M92 432v135h713v-135h-713zM92 801v135h713v-135h-713z" />
<glyph unicode="&#x3e;" d="M117 190v179l559 315l-559 320v174l710 -430v-127z" />
<glyph unicode="?" horiz-adv-x="765" d="M61 1319q152 137 322 137q130 0 220.5 -83t90.5 -230q0 -261 -311 -414l-12 -301h-105l-14 391q280 117 280 307q0 82 -48.5 130.5t-123.5 48.5q-40 0 -83 -16.5t-70 -33.5t-64 -45zM236 0v236h165v-236h-165z" />
<glyph unicode="@" horiz-adv-x="1415" d="M92 516q0 189 43.5 351.5t123 282t199 187.5t263.5 68q185 0 319 -113t202 -311t69 -461q0 -163 -28.5 -287.5t-91.5 -201t-155 -76.5q-49 0 -86 23t-57 61t-30 75.5t-13 78.5q-105 -146 -223 -146q-41 0 -78.5 16t-70.5 50t-52.5 94t-19.5 139q0 154 66.5 232.5 t164.5 78.5q25 0 58.5 -6.5t56.5 -13.5t56.5 -18t41.5 -13v127q0 98 -27 142.5t-96 44.5q-88 0 -227 -80l-49 102q163 92 297 92q225 0 225 -291v-434q0 -36 0.5 -58.5t3 -56t8 -55t14.5 -42.5t24.5 -31.5t35.5 -10.5q29 0 56.5 24t52.5 75t40 146t15 222q0 228 -54 404 t-169.5 282.5t-280.5 106.5q-128 0 -231.5 -63.5t-169.5 -173.5t-101 -254.5t-35 -309.5q0 -222 59.5 -401t175 -285.5t267.5 -106.5q71 0 135.5 22.5t93.5 44.5l29 22l49 -68q-4 -4 -13 -11.5t-38.5 -26.5t-62.5 -33t-85.5 -26t-107.5 -12q-175 0 -311 117t-208.5 317.5 t-72.5 448.5zM528 352q0 -96 37 -143t94 -47q53 0 98 38t93 109v211q-10 2 -45 14t-67 19.5t-58 7.5q-79 0 -115.5 -59t-36.5 -150z" />
<glyph unicode="A" horiz-adv-x="1021" d="M47 0l375 1434h176l377 -1434h-174l-82 350h-418l-80 -350h-174zM336 496h348l-174 751z" />
<glyph unicode="B" horiz-adv-x="1013" d="M150 0v1434h321q193 0 295 -91t102 -260q0 -73 -20.5 -133.5t-52.5 -98.5t-66 -61t-67 -30q31 -5 63 -19t68 -43.5t64 -69.5t46.5 -104t18.5 -141q0 -182 -97.5 -282.5t-287.5 -100.5h-387zM311 143h203q124 0 186 73t62 194q0 135 -75 204.5t-214 69.5h-162v-541z M311 821h150q115 0 181.5 59.5t66.5 178.5q0 106 -60 168.5t-180 62.5h-158v-469z" />
<glyph unicode="C" horiz-adv-x="954" d="M100 717q0 151 20 274.5t55.5 209t85.5 143.5t109 85t126 27q54 0 106 -15.5t106.5 -49.5t90 -60.5t94.5 -75.5l-86 -120q-4 3 -26 21t-28 23t-27 21t-29.5 22t-28 19.5t-31 18.5t-29 14t-31 12.5t-29 6.5t-30.5 3q-115 0 -182.5 -153t-67.5 -426t67.5 -426.5 t182.5 -153.5q21 0 42 4.5t45.5 16.5t41 20.5t44.5 29t39 29t42 33t37 29.5l84 -121q-59 -49 -94.5 -75.5t-90 -60.5t-106.5 -49.5t-106 -15.5q-85 0 -155.5 44t-125 131.5t-85 232t-30.5 332.5z" />
<glyph unicode="D" horiz-adv-x="1052" d="M150 0v1434h264q129 0 227 -40.5t168.5 -125.5t106.5 -223.5t36 -327.5t-36 -327.5t-106.5 -223.5t-168.5 -125.5t-227 -40.5h-264zM311 154h107q190 0 280 134.5t90 428.5q0 293 -90 428t-280 135h-107v-1126z" />
<glyph unicode="E" d="M150 0v1434h655v-154h-494v-487h406v-152h-406v-487h500v-154h-661z" />
<glyph unicode="F" horiz-adv-x="860" d="M150 0v1434h655v-154h-494v-487h391v-152h-391v-641h-161z" />
<glyph unicode="G" horiz-adv-x="1042" d="M100 719q0 150 20.5 273.5t57 208.5t87 143t109.5 85t126 27q58 0 115 -18t111.5 -52.5t94 -65.5t90.5 -77l-84 -123q-9 7 -52.5 42.5t-64 50.5t-58 39t-69.5 34t-63 10q-117 0 -184.5 -154.5t-67.5 -432.5q0 -266 67 -422t183 -156q125 0 256 209v295h-254v147h408v-782 h-154v160q-71 -85 -141 -134t-150 -49q-62 0 -117.5 27t-104.5 85t-84.5 143.5t-56 210t-20.5 276.5z" />
<glyph unicode="H" horiz-adv-x="1069" d="M150 0v1434h161v-607h447v607h160v-1434h-160v676h-447v-676h-161z" />
<glyph unicode="I" horiz-adv-x="462" d="M150 0v1434h161v-1434h-161z" />
<glyph unicode="J" horiz-adv-x="460" d="M-14 -166q33 16 54.5 26.5t40 24.5t29.5 22t19.5 25t12 26.5t6 34.5t2.5 41v52v1348h161v-1342q0 -61 -1 -88.5t-5.5 -69.5t-15 -61t-29 -47.5t-48.5 -46.5t-72 -39t-101 -43z" />
<glyph unicode="K" horiz-adv-x="995" d="M150 0v1434h161v-752l424 752h195l-406 -674l439 -760h-193l-338 608l-121 -200v-408h-161z" />
<glyph unicode="L" horiz-adv-x="833" d="M150 0v1434h161v-1280h477v-154h-638z" />
<glyph unicode="M" horiz-adv-x="1251" d="M150 0v1434h169l306 -945l305 945h170v-1434h-160v1094l-272 -854h-86l-271 852v-1092h-161z" />
<glyph unicode="N" horiz-adv-x="1091" d="M150 0v1434h165l465 -1123v1123h160v-1434h-164l-465 1122v-1122h-161z" />
<glyph unicode="O" horiz-adv-x="1099" d="M100 717q0 739 451 739q448 0 448 -739q0 -740 -448 -740q-451 0 -451 740zM266 717q0 -131 13 -230.5t44 -183t88.5 -128t139.5 -44.5q66 0 116 30t81 81.5t51 128t27.5 160t7.5 186.5t-7.5 186.5t-27.5 160t-51 128t-81 81.5t-116 30q-82 0 -139.5 -44.5t-88.5 -128 t-44 -183t-13 -230.5z" />
<glyph unicode="P" horiz-adv-x="978" d="M150 0v1434h319q211 0 323.5 -104.5t112.5 -334.5q0 -231 -112 -334.5t-324 -103.5h-158v-557h-161zM311 707h164q264 0 264 288q0 287 -264 287h-164v-575z" />
<glyph unicode="Q" horiz-adv-x="1099" d="M100 717q0 739 451 739q448 0 448 -739q0 -596 -290 -713l174 -197l-111 -118l-221 288q-451 0 -451 740zM266 717q0 -131 13 -230.5t44 -183t88.5 -128t139.5 -44.5q66 0 116 30t81 81.5t51 128t27.5 160t7.5 186.5t-7.5 186.5t-27.5 160t-51 128t-81 81.5t-116 30 q-82 0 -139.5 -44.5t-88.5 -128t-44 -183t-13 -230.5z" />
<glyph unicode="R" horiz-adv-x="1030" d="M150 0v1434h350q436 0 436 -414q0 -327 -270 -393l270 -627h-174l-256 608h-195v-608h-161zM311 754h191q270 0 270 266q0 140 -71 204t-193 64h-197v-534z" />
<glyph unicode="S" horiz-adv-x="919" d="M76 135l82 127q198 -133 315 -133q83 0 141 54.5t58 154.5q0 29 -5 55.5t-19 52t-25 44.5t-37.5 44t-40.5 39t-51 41t-52 37.5t-59 40.5q-54 37 -86.5 62t-75 66t-66 79.5t-40.5 93t-17 115.5q0 160 96.5 254t249.5 94q92 0 188.5 -34.5t172.5 -84.5l-82 -129 q-165 97 -266 97q-80 0 -135.5 -50t-55.5 -145q0 -50 18 -92.5t57 -81t77.5 -67.5t100.5 -71q7 -5 11 -7q54 -37 86.5 -61.5t80.5 -70t75 -88t47.5 -104t20.5 -129.5q0 -167 -101 -264t-254 -97q-109 0 -216.5 46.5t-192.5 111.5z" />
<glyph unicode="T" horiz-adv-x="851" d="M45 1280v154h762v-154h-299v-1280h-162v1280h-301z" />
<glyph unicode="U" horiz-adv-x="1056" d="M141 436v998h162v-1004q0 -67 9.5 -117t33.5 -93t69.5 -66t112.5 -23t112.5 23t69.5 66t34 93.5t10 116.5v1004h161v-998q0 -101 -18 -179.5t-60.5 -144t-120 -100.5t-188.5 -35t-188.5 35t-120 100.5t-60.5 144t-18 179.5z" />
<glyph unicode="V" horiz-adv-x="1017" d="M45 1434h176l287 -1225l289 1225h176l-377 -1434h-176z" />
<glyph unicode="W" horiz-adv-x="1392" d="M61 1434h181l184 -1147l201 1147h137l199 -1149l188 1149h180l-274 -1434h-164l-199 1124l-196 -1124h-164z" />
<glyph unicode="X" horiz-adv-x="942" d="M41 0l338 717l-322 717h185l229 -586l229 586h183l-320 -715l336 -719h-188l-242 567l-238 -567h-190z" />
<glyph unicode="Y" horiz-adv-x="946" d="M35 1434h180l258 -699l260 699h178l-358 -871v-563h-162v569z" />
<glyph unicode="Z" horiz-adv-x="921" d="M72 0v139l569 1141h-539v154h729v-138l-569 -1142h578v-154h-768z" />
<glyph unicode="[" horiz-adv-x="550" d="M147 -295v2013h342v-119h-180v-1775h180v-119h-342z" />
<glyph unicode="\" horiz-adv-x="661" d="M37 1618h121l465 -1802h-123z" />
<glyph unicode="]" horiz-adv-x="550" d="M61 -176h181v1775h-181v119h342v-2013h-342v119z" />
<glyph unicode="^" horiz-adv-x="899" d="M104 711l267 723h157l267 -723h-164l-182 587l-183 -587h-162z" />
<glyph unicode="_" horiz-adv-x="1040" d="M117 -170h805v-129h-805v129z" />
<glyph unicode="`" horiz-adv-x="313" d="M-27 1493h191l174 -266h-127z" />
<glyph unicode="a" horiz-adv-x="868" d="M76 317q0 176 76.5 265.5t195.5 89.5q29 0 67 -7t61 -13.5t68 -20t50 -15.5v150q0 101 -31 148t-108 47q-39 0 -89 -14.5t-78 -27t-104 -47.5l-59 123q211 103 356 103q269 0 269 -316v-782h-156v141q-123 -164 -268 -164q-107 0 -178.5 84.5t-71.5 255.5zM236 328 q0 -107 38 -158t103 -51q112 0 217 155v240q-125 45 -193 45q-86 0 -125.5 -64t-39.5 -167z" />
<glyph unicode="b" horiz-adv-x="903" d="M125 0v1493h154v-557q56 72 116.5 117t136.5 45q129 0 207 -138.5t78 -422.5q0 -283 -78 -421.5t-207 -138.5q-130 0 -253 162v-139h-154zM279 291q41 -75 97 -123.5t113 -48.5q84 0 127 110t43 308q0 199 -42.5 309t-127.5 110q-57 0 -113 -49t-97 -125v-491z" />
<glyph unicode="c" horiz-adv-x="770" d="M84 539q0 136 26.5 244.5t72 176t103.5 103t124 35.5q118 0 290 -134q8 -5 11 -8l-74 -118q-9 6 -40 30.5t-52 39t-53.5 28.5t-59.5 14q-84 0 -136 -112t-52 -299q0 -188 52 -301t136 -113q28 0 62 15t53 28t54 41t36 29l74 -119q-98 -75 -154 -103q-78 -39 -147 -39 q-66 0 -124 36t-103.5 104t-72 177t-26.5 245z" />
<glyph unicode="d" horiz-adv-x="903" d="M86 537q0 284 78 422.5t207 138.5q53 0 103.5 -27.5t81.5 -58.5t69 -78v559h155v-1493h-155v139q-57 -73 -117.5 -117.5t-136.5 -44.5q-129 0 -207 138.5t-78 421.5zM246 537q0 -199 42 -308.5t126 -109.5q57 0 112.5 48t98.5 124v491q-42 77 -98 125.5t-113 48.5 q-84 0 -126 -109.5t-42 -309.5z" />
<glyph unicode="e" horiz-adv-x="854" d="M84 537q0 267 96.5 414t259.5 147q156 0 241 -128.5t85 -336.5q0 -36 -2.5 -70.5t-5.5 -51.5l-2 -17h-512q6 -177 56.5 -279t139.5 -102q13 0 26.5 2.5t25 5.5t27.5 10.5t25.5 12t27.5 16t25 16t26 18.5t24 17.5t25 19t22 17.5l76 -103q-39 -32 -71 -55.5t-79.5 -52.5 t-97.5 -44.5t-98 -15.5q-148 0 -244 145.5t-96 414.5zM244 602h377v12q0 353 -177 353q-90 0 -141 -97t-59 -268z" />
<glyph unicode="f" horiz-adv-x="546" d="M59 944v131h103v148q0 145 45.5 207.5t130.5 62.5q101 0 242 -72l-58 -121q-115 46 -145 46q-62 0 -62 -109v-162h193v-131h-193v-944h-153v944h-103z" />
<glyph unicode="g" horiz-adv-x="903" d="M86 537q0 284 78 422.5t207 138.5q53 0 103.5 -27.5t81.5 -58.5t69 -78v141h155v-1147q0 -197 -75.5 -281.5t-221.5 -84.5q-78 0 -176.5 21.5t-187.5 56.5l45 135q188 -74 291 -74q87 0 128.5 53t41.5 172v213q-57 -73 -117.5 -117.5t-136.5 -44.5q-129 0 -207 138.5 t-78 421.5zM246 537q0 -199 42 -308.5t126 -109.5q57 0 112.5 48t98.5 124v491q-42 77 -98 125.5t-113 48.5q-84 0 -126 -109.5t-42 -309.5z" />
<glyph unicode="h" horiz-adv-x="909" d="M125 0v1493h154v-569q38 38 63 60.5t67 53t86.5 45.5t90.5 15q103 0 152.5 -77.5t49.5 -203.5v-817h-153v791q0 167 -109 167q-38 0 -78 -19.5t-74 -51.5t-55 -56.5t-40 -50.5v-780h-154z" />
<glyph unicode="i" horiz-adv-x="405" d="M119 1288v199h166v-199h-166zM125 0v1075h154v-1075h-154z" />
<glyph unicode="j" horiz-adv-x="401" d="M-41 -307q33 16 55 26.5t41 24.5t29.5 22t19.5 25.5t12.5 27.5t6 35.5t2.5 42v54.5v1124h154v-1116q0 -71 -1 -102.5t-9 -77t-24 -67t-46.5 -51t-75.5 -51t-113 -46.5zM119 1288v199h166v-199h-166z" />
<glyph unicode="k" horiz-adv-x="806" d="M125 0v1493h154v-958l280 540h176l-258 -436l301 -639h-164l-223 492l-112 -189v-303h-154z" />
<glyph unicode="l" horiz-adv-x="417" d="M131 0v1493h156v-1493h-156z" />
<glyph unicode="m" horiz-adv-x="1347" d="M125 0v1075h154v-162q132 185 274 185q58 0 100.5 -31.5t62.5 -72t29 -89.5q131 193 285 193q99 0 148 -78.5t49 -202.5v-817h-154v780q0 178 -104 178q-60 0 -116 -54.5t-99 -129.5v-774h-156v780q0 178 -104 178q-61 0 -116.5 -55t-98.5 -129v-774h-154z" />
<glyph unicode="n" horiz-adv-x="909" d="M125 0v1075h154v-151q35 36 62 60t68 53.5t86 45t91 15.5q103 0 152.5 -77.5t49.5 -203.5v-817h-153v791q0 167 -109 167q-38 0 -78 -19.5t-74 -51.5t-55 -56.5t-40 -50.5v-780h-154z" />
<glyph unicode="o" horiz-adv-x="892" d="M84 537q0 265 92.5 413t269.5 148t270 -148t93 -413q0 -266 -92 -413t-271 -147q-177 0 -269.5 147.5t-92.5 412.5zM242 537q0 -422 204 -422q205 0 205 422q0 424 -205 424q-204 0 -204 -424z" />
<glyph unicode="p" horiz-adv-x="903" d="M125 -418v1493h154v-139q56 72 116.5 117t136.5 45q129 0 207 -138.5t78 -422.5q0 -283 -78 -421.5t-207 -138.5q-130 0 -253 162v-557h-154zM279 291q41 -75 97 -123.5t113 -48.5q84 0 127 110t43 308q0 199 -42.5 309t-127.5 110q-57 0 -113 -49t-97 -125v-491z" />
<glyph unicode="q" horiz-adv-x="903" d="M86 537q0 284 78 422.5t207 138.5q53 0 103.5 -27.5t81.5 -58.5t69 -78v141h155v-1493h-155v557q-57 -73 -117.5 -117.5t-136.5 -44.5q-129 0 -207 138.5t-78 421.5zM246 537q0 -199 42 -308.5t126 -109.5q57 0 112.5 48t98.5 124v491q-42 77 -98 125.5t-113 48.5 q-84 0 -126 -109.5t-42 -309.5z" />
<glyph unicode="r" horiz-adv-x="598" d="M125 0v1075h154v-229q36 94 73 143q74 99 180 99q12 0 25 -1v-161q-51 0 -94 -18.5t-70.5 -48.5t-49.5 -66t-33.5 -72t-19 -66t-9.5 -49l-2 -18v-588h-154z" />
<glyph unicode="s" horiz-adv-x="774" d="M72 109l71 118q61 -44 135 -78t130 -34q57 0 97 37.5t40 105.5q0 43 -16.5 78.5t-50 63t-60 43.5t-70.5 38q-45 23 -75 40t-68.5 48t-62 63t-40 79t-16.5 102q0 127 76 206t200 79q145 0 310 -109l-76 -115q-125 84 -219 84q-61 0 -99 -37t-38 -100q0 -18 3.5 -35t8 -30 t15 -27t16.5 -22.5t22 -20.5t22 -17t25.5 -16t23.5 -13t25.5 -12.5t22.5 -11.5q139 -69 208.5 -153.5t69.5 -202.5q0 -130 -79 -206.5t-203 -76.5q-91 0 -186 40t-162 92z" />
<glyph unicode="t" horiz-adv-x="589" d="M57 944v131h101v260l155 51v-311h201v-131h-201v-704q0 -113 64 -113q48 0 127 49l59 -123q-129 -76 -225 -76q-87 0 -133.5 60t-46.5 201v706h-101z" />
<glyph unicode="u" horiz-adv-x="909" d="M121 256v819h153v-792q0 -166 109 -166q107 0 248 176v782h153v-1075h-153v152q-35 -36 -61.5 -60t-68 -54t-86.5 -45.5t-91 -15.5q-103 0 -153 77.5t-50 201.5z" />
<glyph unicode="v" horiz-adv-x="833" d="M45 1075h168l203 -878l207 878h165l-296 -1075h-152z" />
<glyph unicode="w" horiz-adv-x="1202" d="M55 1075h166l148 -837l170 837h125l165 -846l150 846h166l-230 -1075h-149l-166 821l-166 -821h-147z" />
<glyph unicode="x" horiz-adv-x="862" d="M37 0l303 541l-289 534h180l201 -434l201 434h178l-289 -534l305 -541h-186l-211 446l-209 -446h-184z" />
<glyph unicode="y" horiz-adv-x="833" d="M45 1075h168l203 -866l205 866h167l-409 -1493h-168l133 398z" />
<glyph unicode="z" horiz-adv-x="778" d="M70 0v129l458 803h-444v143h618v-129l-456 -803h456v-143h-632z" />
<glyph unicode="{" horiz-adv-x="604" d="M55 639v145q80 0 115 58t23 194l-19 191q-22 234 67 362.5t275 128.5h25v-116h-25q-203 0 -180 -349l16 -186q12 -154 -31.5 -240t-142.5 -116q99 -28 142.5 -114.5t31.5 -238.5l-16 -186q-23 -348 180 -348h25v-117h-25q-186 0 -275.5 128.5t-66.5 363.5l19 190 q12 136 -23 193t-115 57z" />
<glyph unicode="|" horiz-adv-x="417" d="M150 -252v1927h118v-1927h-118z" />
<glyph unicode="}" horiz-adv-x="606" d="M63 -176h25q203 0 180 348l-16 186q-12 154 31.5 240.5t142.5 116.5q-99 28 -142.5 114t-31.5 238l16 186q23 349 -180 349h-25v116h25q186 0 275.5 -128t66.5 -363l-18 -191q-12 -136 22.5 -193t114.5 -57v-145q-80 0 -114.5 -58t-22.5 -194l18 -190q22 -234 -67.5 -363 t-274.5 -129h-25v117z" />
<glyph unicode="~" d="M51 469q78 240 234 240q38 0 77 -15.5t71 -38t62.5 -45t64 -38t63.5 -15.5q36 0 66.5 28t62.5 109l96 -45q-75 -241 -232 -241q-37 0 -75.5 15.5t-71 37.5t-64 44.5t-65.5 38t-64 15.5q-35 0 -65 -28t-61 -109z" />
<glyph unicode="&#xa1;" horiz-adv-x="475" d="M143 0l47 1006h97l45 -1006h-189zM154 1198v236h168v-236h-168z" />
<glyph unicode="&#xa2;" horiz-adv-x="833" d="M100 719q0 253 85 398t214 159v158h117v-170q17 -6 35 -14t32 -15t33 -19t29 -18.5t29 -20.5t24 -18.5t23.5 -19t19.5 -15.5l-75 -118q-4 3 -36.5 29.5t-60 45.5t-53.5 31v-790q21 9 45.5 25.5t38 27t39 32t27.5 23.5l75 -119q-1 -1 -15 -12.5t-18.5 -14.5t-19 -14 t-21.5 -16t-21.5 -15.5t-24 -16t-24.5 -14t-26.5 -14t-26 -11.5t-28.5 -11v-172h-117v158q-129 14 -214 159.5t-85 401.5zM258 719q0 -161 38 -267t103 -137v803q-65 -30 -103 -135t-38 -264z" />
<glyph unicode="&#xa3;" horiz-adv-x="839" d="M102 0v125q6 7 17 19.5t38.5 54t49 85.5t41 111.5t22.5 134.5h-153v119h145q-11 69 -44.5 155t-59 168.5t-25.5 166.5q0 149 76.5 233t206.5 84q50 0 99.5 -13t95 -37.5t76 -44.5t67.5 -48l-84 -115q-139 107 -226 107q-69 0 -109 -49t-40 -136q0 -67 25.5 -141.5 t57.5 -161t42 -168.5h223v-119h-219q-5 -115 -44 -219t-77 -159h434v-152h-635z" />
<glyph unicode="&#xa5;" horiz-adv-x="995" d="M59 1434h181l258 -699l260 699h178l-291 -705h197v-117h-244l-20 -49v-102h264v-117h-264v-344h-162v344h-262v117h262v108l-19 43h-243v117h196z" />
<glyph unicode="&#xa6;" horiz-adv-x="419" d="M152 -252v846h116v-846h-116zM152 829v846h116v-846h-116z" />
<glyph unicode="&#xa7;" horiz-adv-x="835" d="M94 682q0 87 42 148.5t116 89.5q-129 99 -129 251q0 127 76 206t200 79q147 0 310 -108l-74 -113q-132 84 -221 84q-61 0 -98 -37.5t-37 -101.5q0 -18 3.5 -35.5t8.5 -30.5t15.5 -27t17.5 -23.5t22 -21t22 -17t25 -15.5t23.5 -13t24 -12t20.5 -10q280 -137 280 -350 q0 -87 -41.5 -148.5t-115.5 -89.5q129 -99 129 -250q0 -126 -77.5 -205t-201.5 -79q-81 0 -162.5 32t-144.5 76l74 113q125 -84 219 -84q62 0 99.5 37.5t37.5 101.5q0 18 -3.5 35t-8.5 30t-15 27t-17.5 23t-22 20.5t-22.5 17t-25 15.5t-23 13l-24 12t-21 10 q-133 66 -207 150t-74 200zM246 696q0 -43 16 -78t50 -63t61.5 -44.5t75.5 -41.5l6 -4q58 7 96.5 44.5t38.5 104.5q0 34 -12.5 64.5t-29 51t-47.5 43t-53.5 35t-62.5 32.5l-6 2q-58 -6 -95.5 -43.5t-37.5 -102.5z" />
<glyph unicode="&#xa8;" horiz-adv-x="333" d="M-25 1247v191h138v-191h-138zM223 1247v191h135v-191h-135z" />
<glyph unicode="&#xa9;" horiz-adv-x="1658" d="M98 717q0 156 49 290.5t140 234.5t230.5 157t311.5 57t311.5 -57t230 -157t139.5 -234.5t49 -290.5t-49 -290.5t-139.5 -234.5t-230 -157.5t-311.5 -57.5t-311.5 57.5t-230.5 157.5t-140 234.5t-49 290.5zM178 717q0 -141 43 -262t124 -211.5t205 -141.5t277 -51 q155 0 280 51t206.5 141t125.5 211.5t44 262.5t-43.5 262t-125.5 210t-207 140t-280 51q-153 0 -277 -51t-205 -140t-124 -210t-43 -262zM459 715q0 212 101.5 329t254.5 117q72 0 143 -23t109 -45.5t90 -58.5l-53 -65q-44 32 -73 50.5t-90 40t-122 21.5q-118 0 -192 -100.5 t-74 -265.5q0 -163 74 -263t192 -100q57 0 113.5 18t90 37t70.5 44q2 2 3.5 3t3.5 2.5t4 2.5l53 -62q-52 -36 -90 -58.5t-109 -45.5t-143 -23q-152 0 -254 117t-102 328z" />
<glyph unicode="&#xaa;" horiz-adv-x="645" d="M90 981q0 104 47.5 158.5t122.5 54.5q44 0 152 -35v80q0 57 -19 84t-65 27q-8 0 -16 -0.5t-17.5 -3t-16 -3.5t-18 -5t-17 -6t-19.5 -8t-18.5 -7.5t-22 -9t-21.5 -9.5l-41 88q137 62 229 62q87 0 131.5 -48t44.5 -153v-459h-114v82q-83 -96 -164 -96q-69 0 -113.5 53 t-44.5 154zM205 989q0 -57 22 -84.5t58 -27.5q65 0 127 84v131q-69 24 -111 24q-50 0 -73 -35t-23 -92z" />
<glyph unicode="&#xab;" horiz-adv-x="993" d="M63 516v111l426 454v-196l-305 -314l305 -311v-197zM467 516v111l426 454v-196l-305 -314l305 -311v-197z" />
<glyph unicode="&#xac;" d="M35 614v136h817v-566h-137v430h-680z" />
<glyph unicode="&#xad;" horiz-adv-x="659" d="M121 512v143h420v-143h-420z" />
<glyph unicode="&#xae;" horiz-adv-x="862" d="M96 1137q0 147 89.5 242.5t244.5 95.5q156 0 246 -95.5t90 -242.5t-90 -242.5t-246 -95.5q-155 0 -244.5 95.5t-89.5 242.5zM164 1137q0 -123 68.5 -200t197.5 -77q130 0 199 77t69 200q0 120 -69.5 198t-198.5 78q-128 0 -197 -78t-69 -198zM305 971v340h158 q53 0 84 -27.5t31 -71.5q0 -37 -22.5 -61.5t-59.5 -32.5l77 -147h-65l-78 143h-65v-143h-60zM365 1167h98q55 0 55 45q0 22 -11.5 32.5t-41.5 10.5h-100v-88z" />
<glyph unicode="&#xaf;" horiz-adv-x="419" d="M0 1278v113h420v-113h-420z" />
<glyph unicode="&#xb0;" horiz-adv-x="737" d="M84 1151q0 117 84 200t201 83t199.5 -83t82.5 -200t-82.5 -201t-199.5 -84t-201 84t-84 201zM195 1151q0 -72 50 -122t122 -50t123 50.5t51 121.5t-51 121.5t-123 50.5t-122 -50.5t-50 -121.5z" />
<glyph unicode="&#xb1;" d="M92 0v123h713v-123h-713zM92 618v136h291v301h131v-301h291v-136h-291v-301h-131v301h-291z" />
<glyph unicode="&#xb2;" horiz-adv-x="591" d="M63 788v72q0 34 5.5 66.5t12 56t22.5 52.5l24 43.5t32 42t31 35t34.5 35.5t31.5 32q139 139 139 227q0 46 -28 74t-72 28q-64 0 -160 -67l-55 84q115 94 229 94q93 0 149 -58t56 -151q0 -50 -16 -97.5t-50 -93t-56.5 -70.5t-63.5 -66l-13 -13q-43 -44 -62.5 -68 t-35.5 -63t-16 -86h313v-109h-451z" />
<glyph unicode="&#xb3;" horiz-adv-x="595" d="M53 860l60 90q89 -65 161 -65q57 0 94.5 40.5t37.5 106.5q0 44 -18.5 78.5t-48 53t-60.5 27.5t-62 9h-18v109h22q60 0 109 38t49 105q0 46 -26 73t-72 27q-66 0 -146 -59l-53 80q112 90 219 90q92 0 143.5 -56.5t51.5 -136.5q0 -66 -33.5 -121t-95.5 -85 q70 -24 113.5 -87t43.5 -149q0 -104 -59.5 -179t-175.5 -75q-125 0 -236 86z" />
<glyph unicode="&#xb4;" horiz-adv-x="313" d="M-27 1227l174 266h191l-236 -266h-129z" />
<glyph unicode="&#xb5;" horiz-adv-x="970" d="M150 -418v1493h153v-792q0 -166 109 -166q106 0 247 176v782h154v-1075h-154v152q-35 -36 -61.5 -60t-68 -54t-86.5 -45.5t-91 -15.5q-22 0 -47 7v-402h-155z" />
<glyph unicode="&#xb6;" horiz-adv-x="999" d="M61 991q0 218 96 330.5t271 112.5h131v-1813h-133v930q-163 0 -264 113.5t-101 326.5zM700 -379v1813h136v-1813h-136z" />
<glyph unicode="&#xb7;" horiz-adv-x="409" d="M121 459v246h168v-246h-168z" />
<glyph unicode="&#xb8;" horiz-adv-x="249" d="M-8 -313l35 102q42 -29 67 -29q74 0 74 95q0 34 -10 71t-20 58l-9 20h72q6 -10 15.5 -27t25.5 -66t16 -93q0 -79 -42 -124.5t-107 -45.5q-64 0 -117 39z" />
<glyph unicode="&#xb9;" horiz-adv-x="466" d="M35 1530l162 119h110v-861h-117v734l-102 -74z" />
<glyph unicode="&#xba;" horiz-adv-x="647" d="M90 1110q0 160 59.5 249t172.5 89q115 0 175 -89t60 -249q0 -159 -60 -247.5t-175 -88.5q-113 0 -172.5 88.5t-59.5 247.5zM205 1110q0 -236 117 -236q118 0 118 236q0 238 -118 238q-117 0 -117 -238z" />
<glyph unicode="&#xbb;" horiz-adv-x="993" d="M100 63v197l306 313l-306 312v196l426 -452v-111zM504 63v197l305 313l-305 312v196l426 -452v-111z" />
<glyph unicode="&#xbc;" horiz-adv-x="1228" d="M53 1315l162 119h111v-861h-117v734l-103 -74zM258 0l467 1434h123l-465 -1434h-125zM627 182v94l282 584h156v-569h94v-109h-94v-182h-117v182h-321zM735 291h213v438z" />
<glyph unicode="&#xbd;" horiz-adv-x="1259" d="M53 1315l162 119h111v-861h-117v734l-103 -74zM258 0l467 1434h123l-465 -1434h-125zM715 0v72q0 34 5.5 66.5t11.5 56t22.5 52t24.5 43t31.5 42t30.5 35t34.5 35.5t31.5 32q140 140 140 228q0 46 -28.5 74t-72.5 28q-62 0 -160 -68l-55 84q115 94 230 94 q93 0 148.5 -57.5t55.5 -150.5q0 -43 -15 -87.5t-30 -72.5t-52 -71.5t-48.5 -55.5t-52.5 -53q-44 -45 -63 -68.5t-35.5 -62.5t-16.5 -86h313v-109h-450z" />
<glyph unicode="&#xbe;" horiz-adv-x="1380" d="M78 645l59 90q89 -65 162 -65q57 0 94 40.5t37 106.5q0 44 -18.5 78.5t-47.5 53t-60 27.5t-62 9h-19v109h23q60 0 108.5 38t48.5 105q0 46 -26 73t-72 27q-65 0 -145 -59l-54 80q112 90 220 90q92 0 143 -56.5t51 -136.5q0 -66 -33.5 -121t-95.5 -85q70 -24 114 -87.5 t44 -148.5q0 -104 -60 -179t-176 -75q-124 0 -235 86zM414 0l467 1434h123l-465 -1434h-125zM780 182v94l283 584h156v-569h94v-109h-94v-182h-117v182h-322zM889 291h213v438z" />
<glyph unicode="&#xbf;" horiz-adv-x="763" d="M72 291q0 261 311 414l12 301h105l14 -392q-281 -117 -281 -307q0 -81 49 -129.5t124 -48.5q40 0 83 16t70.5 33.5t63.5 44.5l82 -108q-153 -138 -322 -138q-130 0 -220.5 83.5t-90.5 230.5zM365 1198v236h165v-236h-165z" />
<glyph unicode="&#xc0;" horiz-adv-x="1021" d="M47 0l375 1434h176l377 -1434h-174l-82 350h-418l-80 -350h-174zM270 1802h191l174 -266h-127zM336 496h348l-174 751z" />
<glyph unicode="&#xc1;" horiz-adv-x="1021" d="M47 0l375 1434h176l377 -1434h-174l-82 350h-418l-80 -350h-174zM336 496h348l-174 751zM385 1536l174 266h191l-236 -266h-129z" />
<glyph unicode="&#xc2;" horiz-adv-x="1021" d="M47 0l375 1434h176l377 -1434h-174l-82 350h-418l-80 -350h-174zM285 1536l143 266h164l143 -266h-110l-115 174l-113 -174h-112zM336 496h348l-174 751z" />
<glyph unicode="&#xc3;" horiz-adv-x="1021" d="M47 0l375 1434h176l377 -1434h-174l-82 350h-418l-80 -350h-174zM270 1597q33 87 64 129.5t80 42.5q32 0 68 -25t67 -50t49 -25t34.5 19t37.5 75l75 -39q-31 -88 -61.5 -131t-79.5 -43q-25 0 -53.5 16t-49.5 34.5t-44.5 34.5t-38.5 16q-34 0 -70 -95zM336 496h348 l-174 751z" />
<glyph unicode="&#xc4;" horiz-adv-x="1021" d="M47 0l375 1434h176l377 -1434h-174l-82 350h-418l-80 -350h-174zM319 1559v190h138v-190h-138zM336 496h348l-174 751zM567 1559v190h135v-190h-135z" />
<glyph unicode="&#xc5;" horiz-adv-x="1021" d="M47 0l375 1434h176l377 -1434h-174l-82 350h-418l-80 -350h-174zM324 1702q0 77 54.5 132.5t131.5 55.5q79 0 133.5 -55.5t54.5 -132.5q0 -79 -54 -132.5t-134 -53.5q-78 0 -132 53.5t-54 132.5zM336 496h348l-174 751zM414 1702q0 -41 27.5 -69.5t68.5 -28.5t70.5 28.5 t29.5 69.5t-29.5 69.5t-70.5 28.5t-68.5 -28.5t-27.5 -69.5z" />
<glyph unicode="&#xc6;" horiz-adv-x="1490" d="M0 0l674 1434h719v-154h-494v-487h406v-152h-406v-487h500v-154h-662v350h-389l-158 -350h-190zM416 500h321v710z" />
<glyph unicode="&#xc7;" horiz-adv-x="954" d="M100 717q0 151 20 274.5t55.5 209t85.5 143.5t109 85t126 27q54 0 106 -15.5t106.5 -49.5t90 -60.5t94.5 -75.5l-86 -120q-4 3 -26 21t-28 23t-27 21t-29.5 22t-28 19.5t-31 18.5t-29 14t-31 12.5t-29 6.5t-30.5 3q-115 0 -182.5 -153t-67.5 -426t67.5 -426.5 t182.5 -153.5q21 0 42 4.5t45.5 16.5t41 20.5t44.5 29t39 29t42 33t37 29.5l84 -121q-69 -57 -111 -88.5t-108.5 -65.5t-126.5 -42q45 -87 45 -164q0 -79 -42.5 -124.5t-107.5 -45.5q-63 0 -116 39l34 102q42 -29 68 -29q74 0 74 95q0 47 -27 125q-81 5 -148 51 t-118.5 133.5t-80 228.5t-28.5 324z" />
<glyph unicode="&#xc8;" d="M150 0v1434h655v-154h-494v-487h406v-152h-406v-487h500v-154h-661zM240 1802h190l174 -266h-127z" />
<glyph unicode="&#xc9;" d="M150 0v1434h655v-154h-494v-487h406v-152h-406v-487h500v-154h-661zM356 1536l174 266h191l-236 -266h-129z" />
<glyph unicode="&#xca;" d="M150 0v1434h655v-154h-494v-487h406v-152h-406v-487h500v-154h-661zM256 1536l143 266h164l144 -266h-111l-115 174l-112 -174h-113z" />
<glyph unicode="&#xcb;" d="M150 0v1434h655v-154h-494v-487h406v-152h-406v-487h500v-154h-661zM291 1556v191h137v-191h-137zM539 1556v191h135v-191h-135z" />
<glyph unicode="&#xcc;" horiz-adv-x="460" d="M-10 1802h190l174 -266h-127zM150 0v1434h161v-1434h-161z" />
<glyph unicode="&#xcd;" horiz-adv-x="462" d="M106 1536l175 266h190l-235 -266h-130zM150 0v1434h161v-1434h-161z" />
<glyph unicode="&#xce;" horiz-adv-x="462" d="M6 1536l144 266h163l144 -266h-111l-115 174l-112 -174h-113zM150 0v1434h161v-1434h-161z" />
<glyph unicode="&#xcf;" horiz-adv-x="460" d="M39 1554v191h137v-191h-137zM150 0v1434h161v-1434h-161zM287 1554v191h135v-191h-135z" />
<glyph unicode="&#xd0;" horiz-adv-x="1062" d="M53 647v139h105v648h264q263 0 401 -172t138 -545t-138 -545t-401 -172h-264v647h-105zM319 154h107q191 0 281 134.5t90 428.5q0 293 -90.5 428t-280.5 135h-107v-494h222v-139h-222v-493z" />
<glyph unicode="&#xd1;" horiz-adv-x="1091" d="M150 0v1434h165l465 -1123v1123h160v-1434h-164l-465 1122v-1122h-161zM315 1602q33 87 64 129.5t80 42.5q32 0 68 -25t67 -50.5t49 -25.5t34.5 19t37.5 75l76 -38q-31 -87 -62 -131t-80 -44q-25 0 -53.5 16t-49.5 34.5t-44.5 34.5t-38.5 16q-16 0 -32.5 -19t-37.5 -75z " />
<glyph unicode="&#xd2;" horiz-adv-x="1099" d="M100 717q0 739 451 739q448 0 448 -739q0 -740 -448 -740q-451 0 -451 740zM266 717q0 -131 13 -230.5t44 -183t88.5 -128t139.5 -44.5q66 0 116 30t81 81.5t51 128t27.5 160t7.5 186.5t-7.5 186.5t-27.5 160t-51 128t-81 81.5t-116 30q-82 0 -139.5 -44.5t-88.5 -128 t-44 -183t-13 -230.5zM309 1802h191l174 -266h-127z" />
<glyph unicode="&#xd3;" horiz-adv-x="1099" d="M100 717q0 739 451 739q448 0 448 -739q0 -740 -448 -740q-451 0 -451 740zM266 717q0 -131 13 -230.5t44 -183t88.5 -128t139.5 -44.5q66 0 116 30t81 81.5t51 128t27.5 160t7.5 186.5t-7.5 186.5t-27.5 160t-51 128t-81 81.5t-116 30q-82 0 -139.5 -44.5t-88.5 -128 t-44 -183t-13 -230.5zM426 1536l174 266h191l-236 -266h-129z" />
<glyph unicode="&#xd4;" horiz-adv-x="1099" d="M100 717q0 739 451 739q448 0 448 -739q0 -740 -448 -740q-451 0 -451 740zM266 717q0 -131 13 -230.5t44 -183t88.5 -128t139.5 -44.5q66 0 116 30t81 81.5t51 128t27.5 160t7.5 186.5t-7.5 186.5t-27.5 160t-51 128t-81 81.5t-116 30q-82 0 -139.5 -44.5t-88.5 -128 t-44 -183t-13 -230.5zM324 1536l143 266h164l143 -266h-110l-115 174l-113 -174h-112z" />
<glyph unicode="&#xd5;" horiz-adv-x="1099" d="M100 717q0 739 451 739q448 0 448 -739q0 -740 -448 -740q-451 0 -451 740zM266 717q0 -131 13 -230.5t44 -183t88.5 -128t139.5 -44.5q66 0 116 30t81 81.5t51 128t27.5 160t7.5 186.5t-7.5 186.5t-27.5 160t-51 128t-81 81.5t-116 30q-82 0 -139.5 -44.5t-88.5 -128 t-44 -183t-13 -230.5zM311 1597q33 87 64 129.5t80 42.5q32 0 68 -25t67 -50t49 -25t34.5 19t37.5 75l75 -39q-31 -88 -61.5 -131t-79.5 -43q-25 0 -53.5 16t-49.5 34.5t-44.5 34.5t-38.5 16q-34 0 -70 -95z" />
<glyph unicode="&#xd6;" horiz-adv-x="1099" d="M100 717q0 739 451 739q448 0 448 -739q0 -740 -448 -740q-451 0 -451 740zM266 717q0 -131 13 -230.5t44 -183t88.5 -128t139.5 -44.5q66 0 116 30t81 81.5t51 128t27.5 160t7.5 186.5t-7.5 186.5t-27.5 160t-51 128t-81 81.5t-116 30q-82 0 -139.5 -44.5t-88.5 -128 t-44 -183t-13 -230.5zM358 1556v191h138v-191h-138zM606 1556v191h135v-191h-135z" />
<glyph unicode="&#xd7;" d="M152 965l106 82l191 -252l190 247l106 -79l-213 -277l216 -278l-107 -82l-192 252l-191 -248l-104 80l211 276z" />
<glyph unicode="&#xd8;" horiz-adv-x="1097" d="M98 717q0 739 451 739q166 0 270 -104l43 82h121l-92 -177q106 -183 106 -540q0 -740 -448 -740q-167 0 -273 103l-40 -80h-121l90 172q-107 185 -107 545zM264 717q0 -225 37 -359l438 840q-68 105 -190 105q-82 0 -139.5 -44.5t-88.5 -128t-44 -183t-13 -230.5z M356 231q68 -100 193 -100q82 0 138.5 44.5t87 128t43.5 183t13 230.5q0 223 -36 354z" />
<glyph unicode="&#xd9;" horiz-adv-x="1056" d="M141 436v998h162v-1004q0 -67 9.5 -117t33.5 -93t69.5 -66t112.5 -23t112.5 23t69.5 66t34 93.5t10 116.5v1004h161v-998q0 -101 -18 -179.5t-60.5 -144t-120 -100.5t-188.5 -35t-188.5 35t-120 100.5t-60.5 144t-18 179.5zM289 1802h190l174 -266h-127z" />
<glyph unicode="&#xda;" horiz-adv-x="1056" d="M141 436v998h162v-1004q0 -67 9.5 -117t33.5 -93t69.5 -66t112.5 -23t112.5 23t69.5 66t34 93.5t10 116.5v1004h161v-998q0 -101 -18 -179.5t-60.5 -144t-120 -100.5t-188.5 -35t-188.5 35t-120 100.5t-60.5 144t-18 179.5zM403 1536l175 266h190l-236 -266h-129z" />
<glyph unicode="&#xdb;" horiz-adv-x="1056" d="M141 436v998h162v-1004q0 -67 9.5 -117t33.5 -93t69.5 -66t112.5 -23t112.5 23t69.5 66t34 93.5t10 116.5v1004h161v-998q0 -101 -18 -179.5t-60.5 -144t-120 -100.5t-188.5 -35t-188.5 35t-120 100.5t-60.5 144t-18 179.5zM303 1536l143 266h164l144 -266h-111l-115 174 l-112 -174h-113z" />
<glyph unicode="&#xdc;" horiz-adv-x="1056" d="M141 436v998h162v-1004q0 -67 9.5 -117t33.5 -93t69.5 -66t112.5 -23t112.5 23t69.5 66t34 93.5t10 116.5v1004h161v-998q0 -101 -18 -179.5t-60.5 -144t-120 -100.5t-188.5 -35t-188.5 35t-120 100.5t-60.5 144t-18 179.5zM336 1556v191h137v-191h-137zM584 1556v191 h135v-191h-135z" />
<glyph unicode="&#xdd;" horiz-adv-x="946" d="M35 1434h180l258 -699l260 699h178l-358 -871v-563h-162v569zM348 1536l174 266h191l-236 -266h-129z" />
<glyph unicode="&#xde;" horiz-adv-x="987" d="M150 0v1434h161v-256h158q212 0 324 -103.5t112 -333.5q0 -231 -112 -335.5t-324 -104.5h-158v-301h-161zM311 451h162q266 0 266 290q0 154 -70.5 219.5t-195.5 65.5h-162v-575z" />
<glyph unicode="&#xdf;" horiz-adv-x="985" d="M125 0v1065q0 226 89.5 329t260.5 103q168 0 260 -89t92 -243q0 -56 -11.5 -103t-23.5 -66l-12 -19q-29 -13 -47.5 -23.5t-45 -31.5t-40.5 -50.5t-14 -66.5q0 -32 14 -62.5t28.5 -48.5t52.5 -59t58 -64q47 -52 73 -87t49.5 -96t23.5 -128q0 -130 -73 -206.5t-189 -76.5 q-128 0 -291 99l72 119q113 -80 196 -80q54 0 91.5 39t37.5 108q0 45 -22.5 92.5t-83.5 114.5q-14 15 -49.5 51t-53 57t-41 56t-33.5 73.5t-10 84.5q0 50 14 93.5t32.5 71t47.5 52t47.5 35.5t43.5 24q10 42 10 86q0 100 -51 155.5t-146 55.5q-98 0 -150 -70.5t-52 -236.5 v-1057h-154z" />
<glyph unicode="&#xe0;" horiz-adv-x="868" d="M76 317q0 176 76.5 265.5t195.5 89.5q29 0 67 -7t61 -13.5t68 -20t50 -15.5v150q0 101 -31 148t-108 47q-39 0 -89 -14.5t-78 -27t-104 -47.5l-59 123q211 103 356 103q269 0 269 -316v-782h-156v141q-123 -164 -268 -164q-107 0 -178.5 84.5t-71.5 255.5zM197 1493h190 l174 -266h-127zM236 328q0 -107 38 -158t103 -51q112 0 217 155v240q-125 45 -193 45q-86 0 -125.5 -64t-39.5 -167z" />
<glyph unicode="&#xe1;" horiz-adv-x="868" d="M76 317q0 176 76.5 265.5t195.5 89.5q29 0 67 -7t61 -13.5t68 -20t50 -15.5v150q0 101 -31 148t-108 47q-39 0 -89 -14.5t-78 -27t-104 -47.5l-59 123q211 103 356 103q269 0 269 -316v-782h-156v141q-123 -164 -268 -164q-107 0 -178.5 84.5t-71.5 255.5zM236 328 q0 -107 38 -158t103 -51q112 0 217 155v240q-125 45 -193 45q-86 0 -125.5 -64t-39.5 -167zM313 1227l174 266h191l-236 -266h-129z" />
<glyph unicode="&#xe2;" horiz-adv-x="868" d="M76 317q0 176 76.5 265.5t195.5 89.5q29 0 67 -7t61 -13.5t68 -20t50 -15.5v150q0 101 -31 148t-108 47q-39 0 -89 -14.5t-78 -27t-104 -47.5l-59 123q211 103 356 103q269 0 269 -316v-782h-156v141q-123 -164 -268 -164q-107 0 -178.5 84.5t-71.5 255.5zM211 1227 l143 266h164l144 -266h-111l-115 174l-112 -174h-113zM236 328q0 -107 38 -158t103 -51q112 0 217 155v240q-125 45 -193 45q-86 0 -125.5 -64t-39.5 -167z" />
<glyph unicode="&#xe3;" horiz-adv-x="868" d="M76 317q0 176 76.5 265.5t195.5 89.5q29 0 67 -7t61 -13.5t68 -20t50 -15.5v150q0 101 -31 148t-108 47q-39 0 -89 -14.5t-78 -27t-104 -47.5l-59 123q211 103 356 103q269 0 269 -316v-782h-156v141q-123 -164 -268 -164q-107 0 -178.5 84.5t-71.5 255.5zM199 1288 q34 87 64 129.5t79 42.5q32 0 68 -25t67 -50t49 -25t34.5 19t37.5 75l76 -39q-31 -87 -62 -130.5t-80 -43.5q-32 0 -68.5 25t-67.5 50t-50 25q-16 0 -32.5 -19t-37.5 -75zM236 328q0 -107 38 -158t103 -51q112 0 217 155v240q-125 45 -193 45q-86 0 -125.5 -64t-39.5 -167z " />
<glyph unicode="&#xe4;" horiz-adv-x="868" d="M76 317q0 176 76.5 265.5t195.5 89.5q29 0 67 -7t61 -13.5t68 -20t50 -15.5v150q0 101 -31 148t-108 47q-39 0 -89 -14.5t-78 -27t-104 -47.5l-59 123q211 103 356 103q269 0 269 -316v-782h-156v141q-123 -164 -268 -164q-107 0 -178.5 84.5t-71.5 255.5zM236 328 q0 -107 38 -158t103 -51q112 0 217 155v240q-125 45 -193 45q-86 0 -125.5 -64t-39.5 -167zM248 1247v191h137v-191h-137zM496 1247v191h135v-191h-135z" />
<glyph unicode="&#xe5;" horiz-adv-x="868" d="M76 317q0 176 76.5 265.5t195.5 89.5q29 0 67 -7t61 -13.5t68 -20t50 -15.5v150q0 101 -31 148t-108 47q-39 0 -89 -14.5t-78 -27t-104 -47.5l-59 123q211 103 356 103q269 0 269 -316v-782h-156v141q-123 -164 -268 -164q-107 0 -178.5 84.5t-71.5 255.5zM236 328 q0 -107 38 -158t103 -51q112 0 217 155v240q-125 45 -193 45q-86 0 -125.5 -64t-39.5 -167zM250 1393q0 77 54.5 132.5t131.5 55.5q79 0 134 -55.5t55 -132.5q0 -79 -54.5 -133t-134.5 -54q-78 0 -132 54t-54 133zM340 1393q0 -42 27.5 -70.5t68.5 -28.5t71 29t30 70 t-29.5 69.5t-71.5 28.5q-41 0 -68.5 -28.5t-27.5 -69.5z" />
<glyph unicode="&#xe6;" horiz-adv-x="1339" d="M76 319q0 175 73.5 264t188.5 89q80 0 233 -64q2 71 21 162q-3 98 -35.5 144.5t-105.5 46.5q-17 0 -33.5 -2t-37.5 -8t-34 -10t-40 -15t-37.5 -16t-44.5 -20t-44 -20l-55 125q211 103 352 103q155 0 217 -109q92 109 232 109q156 0 240.5 -128.5t84.5 -336.5 q0 -36 -2.5 -70.5t-4.5 -51.5l-3 -17h-512q6 -177 57 -279t140 -102q13 0 26.5 2.5t25 5.5t27.5 10.5t25.5 12t27.5 16t25 16t26 18.5t24 17.5t25 19t22 17.5l75 -103q-39 -32 -71 -55.5t-79.5 -52.5t-97.5 -44.5t-98 -15.5q-90 0 -162.5 54t-117.5 159q-142 -213 -303 -213 q-107 0 -178.5 84.5t-71.5 257.5zM236 330q0 -109 37.5 -160t101.5 -51q117 0 221 168q-24 106 -27 215q-10 4 -38.5 17t-46 20t-43 13.5t-44.5 6.5q-85 0 -123 -63.5t-38 -165.5zM729 602h377q3 365 -176 365q-90 0 -141.5 -97t-59.5 -268z" />
<glyph unicode="&#xe7;" horiz-adv-x="768" d="M82 539q0 136 26.5 244.5t72 176t103.5 103t124 35.5q118 0 290 -134q8 -5 11 -8l-74 -118q-9 6 -40 30.5t-52 39t-53.5 28.5t-59.5 14q-84 0 -136 -112t-52 -299q0 -188 52 -301t136 -113q28 0 62 15t53 28t54 41t36 29l74 -119q-42 -33 -70.5 -53.5t-85.5 -48.5 t-107 -35q43 -89 43 -164q0 -79 -42 -124.5t-107 -45.5q-64 0 -117 39l35 102q42 -29 68 -29q73 0 73 95q0 59 -28 127q-124 18 -206.5 163t-82.5 394z" />
<glyph unicode="&#xe8;" horiz-adv-x="854" d="M84 537q0 267 96.5 414t259.5 147q156 0 241 -128.5t85 -336.5q0 -36 -2.5 -70.5t-5.5 -51.5l-2 -17h-512q6 -177 56.5 -279t139.5 -102q13 0 26.5 2.5t25 5.5t27.5 10.5t25.5 12t27.5 16t25 16t26 18.5t24 17.5t25 19t22 17.5l76 -103q-39 -32 -71 -55.5t-79.5 -52.5 t-97.5 -44.5t-98 -15.5q-148 0 -244 145.5t-96 414.5zM201 1493h190l174 -266h-127zM244 602h377q3 365 -177 365q-90 0 -141 -97t-59 -268z" />
<glyph unicode="&#xe9;" horiz-adv-x="854" d="M84 537q0 267 96.5 414t259.5 147q156 0 241 -128.5t85 -336.5q0 -36 -2.5 -70.5t-5.5 -51.5l-2 -17h-512q6 -177 56.5 -279t139.5 -102q13 0 26.5 2.5t25 5.5t27.5 10.5t25.5 12t27.5 16t25 16t26 18.5t24 17.5t25 19t22 17.5l76 -103q-39 -32 -71 -55.5t-79.5 -52.5 t-97.5 -44.5t-98 -15.5q-148 0 -244 145.5t-96 414.5zM244 602h377q3 365 -177 365q-90 0 -141 -97t-59 -268zM315 1227l174 266h191l-236 -266h-129z" />
<glyph unicode="&#xea;" horiz-adv-x="854" d="M84 537q0 267 96.5 414t259.5 147q156 0 241 -128.5t85 -336.5q0 -36 -2.5 -70.5t-5.5 -51.5l-2 -17h-512q6 -177 56.5 -279t139.5 -102q13 0 26.5 2.5t25 5.5t27.5 10.5t25.5 12t27.5 16t25 16t26 18.5t24 17.5t25 19t22 17.5l76 -103q-39 -32 -71 -55.5t-79.5 -52.5 t-97.5 -44.5t-98 -15.5q-148 0 -244 145.5t-96 414.5zM215 1227l143 266h164l144 -266h-111l-115 174l-112 -174h-113zM244 602h377q3 365 -177 365q-90 0 -141 -97t-59 -268z" />
<glyph unicode="&#xeb;" horiz-adv-x="854" d="M84 537q0 267 96.5 414t259.5 147q156 0 241 -128.5t85 -336.5q0 -36 -2.5 -70.5t-5.5 -51.5l-2 -17h-512q6 -177 56.5 -279t139.5 -102q13 0 26.5 2.5t25 5.5t27.5 10.5t25.5 12t27.5 16t25 16t26 18.5t24 17.5t25 19t22 17.5l76 -103q-39 -32 -71 -55.5t-79.5 -52.5 t-97.5 -44.5t-98 -15.5q-148 0 -244 145.5t-96 414.5zM244 602h377q3 365 -177 365q-90 0 -141 -97t-59 -268zM250 1247v191h137v-191h-137zM498 1247v191h135v-191h-135z" />
<glyph unicode="&#xec;" horiz-adv-x="403" d="M-39 1493h191l174 -266h-127zM125 0v1075h154v-1075h-154z" />
<glyph unicode="&#xed;" horiz-adv-x="403" d="M76 1227l174 266h190l-235 -266h-129zM125 0v1075h154v-1075h-154z" />
<glyph unicode="&#xee;" horiz-adv-x="403" d="M-25 1227l144 266h164l143 -266h-111l-114 174l-113 -174h-113zM125 0v1075h154v-1075h-154z" />
<glyph unicode="&#xef;" horiz-adv-x="403" d="M10 1247v191h137v-191h-137zM127 0v1075h154v-1075h-154zM258 1247v191h135v-191h-135z" />
<glyph unicode="&#xf0;" horiz-adv-x="909" d="M84 475q0 225 91 362.5t237 137.5q47 0 88.5 -15t65.5 -32.5t45.5 -43.5t27.5 -36t12 -23q-22 127 -75.5 240t-133.5 174l-82 -98h-141l121 147q-24 6 -49 6q-28 0 -56 -4.5t-41 -9.5l-14 -4l-22 133q53 25 137 25q67 0 143 -27l70 86h143l-114 -139q135 -98 209.5 -303 t74.5 -473q0 -132 -18.5 -235t-51 -171t-79.5 -112.5t-101.5 -63.5t-119.5 -19q-169 0 -268 135.5t-99 362.5zM246 475q0 -166 52.5 -263t156.5 -97q103 0 157 95.5t54 266.5q0 170 -53 265.5t-158 95.5q-104 0 -156.5 -99t-52.5 -264z" />
<glyph unicode="&#xf1;" horiz-adv-x="909" d="M125 0v1075h154v-151q35 36 62 60t68 53.5t86 45t91 15.5q103 0 152.5 -77.5t49.5 -203.5v-817h-153v791q0 167 -109 167q-38 0 -78 -19.5t-74 -51.5t-55 -56.5t-40 -50.5v-780h-154zM217 1288q34 87 64 129.5t79 42.5q32 0 68.5 -25t67.5 -50t49 -25q17 0 33.5 19 t37.5 75l76 -39q-31 -88 -61.5 -131t-79.5 -43q-32 0 -68.5 25t-67.5 50t-50 25q-16 0 -32.5 -19t-37.5 -75z" />
<glyph unicode="&#xf2;" horiz-adv-x="892" d="M84 537q0 265 92.5 413t269.5 148t270 -148t93 -413q0 -266 -92 -413t-271 -147q-177 0 -269.5 147.5t-92.5 412.5zM207 1493h190l174 -266h-127zM242 537q0 -422 204 -422q205 0 205 422q0 424 -205 424q-204 0 -204 -424z" />
<glyph unicode="&#xf3;" horiz-adv-x="892" d="M84 537q0 265 92.5 413t269.5 148t270 -148t93 -413q0 -266 -92 -413t-271 -147q-177 0 -269.5 147.5t-92.5 412.5zM242 537q0 -422 204 -422q205 0 205 422q0 424 -205 424q-204 0 -204 -424zM322 1227l174 266h190l-235 -266h-129z" />
<glyph unicode="&#xf4;" horiz-adv-x="892" d="M84 537q0 265 92.5 413t269.5 148t270 -148t93 -413q0 -266 -92 -413t-271 -147q-177 0 -269.5 147.5t-92.5 412.5zM221 1227l144 266h163l144 -266h-111l-115 174l-112 -174h-113zM242 537q0 -422 204 -422q205 0 205 422q0 424 -205 424q-204 0 -204 -424z" />
<glyph unicode="&#xf5;" horiz-adv-x="892" d="M84 537q0 265 92.5 413t269.5 148t270 -148t93 -413q0 -266 -92 -413t-271 -147q-177 0 -269.5 147.5t-92.5 412.5zM209 1288q34 87 64 129.5t79 42.5q32 0 68.5 -25t67.5 -50t49 -25q17 0 33.5 19t37.5 75l76 -39q-31 -88 -61.5 -131t-79.5 -43q-32 0 -68.5 25t-68 50 t-50.5 25q-16 0 -32 -19t-37 -75zM242 537q0 -422 204 -422q205 0 205 422q0 424 -205 424q-204 0 -204 -424z" />
<glyph unicode="&#xf6;" horiz-adv-x="892" d="M84 537q0 265 92.5 413t269.5 148t270 -148t93 -413q0 -266 -92 -413t-271 -147q-177 0 -269.5 147.5t-92.5 412.5zM242 537q0 -422 204 -422q205 0 205 422q0 424 -205 424q-204 0 -204 -424zM256 1247v191h137v-191h-137zM504 1247v191h135v-191h-135z" />
<glyph unicode="&#xf7;" d="M92 614v136h713v-136h-713zM358 354q0 38 27.5 65t65.5 27t65 -27t27 -65t-27 -65t-65 -27t-65.5 27t-27.5 65zM358 1012q0 38 27.5 65t65.5 27t65 -27t27 -65t-27 -65t-65 -27t-65.5 27t-27.5 65z" />
<glyph unicode="&#xf8;" horiz-adv-x="890" d="M82 537q0 265 92.5 413t269.5 148q127 0 211 -78l31 55h102l-71 -131q90 -146 90 -407q0 -266 -92 -413t-271 -147q-129 0 -213 78l-28 -55h-107l72 133q-86 145 -86 404zM240 537q0 -147 22 -234l318 580q-53 78 -136 78q-204 0 -204 -424zM307 190q51 -75 137 -75 q205 0 205 422q0 140 -24 239z" />
<glyph unicode="&#xf9;" horiz-adv-x="909" d="M121 256v819h153v-792q0 -166 109 -166q107 0 248 176v782h153v-1075h-153v152q-35 -36 -61.5 -60t-68 -54t-86.5 -45.5t-91 -15.5q-103 0 -153 77.5t-50 201.5zM213 1493h190l175 -266h-127z" />
<glyph unicode="&#xfa;" horiz-adv-x="909" d="M121 256v819h153v-792q0 -166 109 -166q107 0 248 176v782h153v-1075h-153v152q-35 -36 -61.5 -60t-68 -54t-86.5 -45.5t-91 -15.5q-103 0 -153 77.5t-50 201.5zM328 1227l174 266h190l-235 -266h-129z" />
<glyph unicode="&#xfb;" horiz-adv-x="909" d="M121 256v819h153v-792q0 -166 109 -166q107 0 248 176v782h153v-1075h-153v152q-35 -36 -61.5 -60t-68 -54t-86.5 -45.5t-91 -15.5q-103 0 -153 77.5t-50 201.5zM227 1227l144 266h164l143 -266h-111l-114 174l-113 -174h-113z" />
<glyph unicode="&#xfc;" horiz-adv-x="909" d="M121 256v819h153v-792q0 -166 109 -166q107 0 248 176v782h153v-1075h-153v152q-35 -36 -61.5 -60t-68 -54t-86.5 -45.5t-91 -15.5q-103 0 -153 77.5t-50 201.5zM260 1247v191h137v-191h-137zM508 1247v191h135v-191h-135z" />
<glyph unicode="&#xfd;" horiz-adv-x="833" d="M45 1075h168l203 -866l205 866h167l-409 -1493h-168l133 398zM291 1227l174 266h190l-235 -266h-129z" />
<glyph unicode="&#xfe;" horiz-adv-x="903" d="M125 -418v1911h154v-557q56 72 116.5 117t136.5 45q129 0 207 -138.5t78 -422.5q0 -283 -78 -421.5t-207 -138.5q-130 0 -253 162v-557h-154zM279 291q41 -75 97 -123.5t113 -48.5q84 0 127 110t43 308q0 199 -42.5 309t-127.5 110q-57 0 -113 -49t-97 -125v-491z" />
<glyph unicode="&#xff;" horiz-adv-x="833" d="M45 1075h168l203 -866l205 866h167l-409 -1493h-168l133 398zM227 1247v191h138v-191h-138zM475 1247v191h135v-191h-135z" />
<glyph unicode="&#x100;" horiz-adv-x="1021" d="M47 0l375 1434h176l377 -1434h-174l-82 350h-418l-80 -350h-174zM301 1587v113h420v-113h-420zM336 496h348l-174 751z" />
<glyph unicode="&#x101;" horiz-adv-x="868" d="M76 317q0 176 76.5 265.5t195.5 89.5q29 0 67 -7t61 -13.5t68 -20t50 -15.5v150q0 101 -31 148t-108 47q-39 0 -89 -14.5t-78 -27t-104 -47.5l-59 123q211 103 356 103q269 0 269 -316v-782h-156v141q-123 -164 -268 -164q-107 0 -178.5 84.5t-71.5 255.5zM227 1278v113 h420v-113h-420zM236 328q0 -107 38 -158t103 -51q112 0 217 155v240q-125 45 -193 45q-86 0 -125.5 -64t-39.5 -167z" />
<glyph unicode="&#x102;" horiz-adv-x="1021" d="M47 0l375 1434h176l377 -1434h-174l-82 350h-418l-80 -350h-174zM295 1755h104q0 -108 111 -108q113 0 113 108h100q0 -102 -56 -160.5t-157 -58.5t-158 58.5t-57 160.5zM336 496h348l-174 751z" />
<glyph unicode="&#x103;" horiz-adv-x="868" d="M76 317q0 176 76.5 265.5t195.5 89.5q29 0 67 -7t61 -13.5t68 -20t50 -15.5v150q0 101 -31 148t-108 47q-39 0 -89 -14.5t-78 -27t-104 -47.5l-59 123q211 103 356 103q269 0 269 -316v-782h-156v141q-123 -164 -268 -164q-107 0 -178.5 84.5t-71.5 255.5zM225 1446h105 q0 -109 110 -109q113 0 113 109h100q0 -102 -56 -160.5t-157 -58.5t-158 58.5t-57 160.5zM236 328q0 -107 38 -158t103 -51q112 0 217 155v240q-125 45 -193 45q-86 0 -125.5 -64t-39.5 -167z" />
<glyph unicode="&#x104;" horiz-adv-x="1021" d="M47 0l375 1434h176l377 -1434h-4q-71 -60 -96 -93q-39 -52 -39 -104q0 -16 3.5 -28t8 -20t13.5 -13.5t15.5 -8.5t18 -4t17.5 -1.5t18 0t14 0.5l-16 -103h-26.5t-33.5 3t-40 8.5t-37 17t-34.5 28t-22 43t-9.5 60.5q0 121 139 215h-63l-82 350h-418l-80 -350h-174zM336 496 h348l-174 751z" />
<glyph unicode="&#x105;" horiz-adv-x="868" d="M76 317q0 176 76.5 265.5t195.5 89.5q29 0 67 -7t61 -13.5t68 -20t50 -15.5v150q0 101 -31 148t-108 47q-39 0 -89 -14.5t-78 -27t-104 -47.5l-59 123q211 103 356 103q269 0 269 -316v-782h-5q-71 -60 -96 -93q-39 -52 -39 -104q0 -18 3.5 -31.5t12.5 -21t15.5 -13 t21 -7t19 -2.5t20.5 0h17l-17 -103h-26.5t-33.5 3t-40 8.5t-36.5 17t-34 28t-22 43t-9.5 60.5q0 121 139 215h-45v141q-123 -164 -268 -164q-107 0 -178.5 84.5t-71.5 255.5zM236 328q0 -107 38 -158t103 -51q112 0 217 155v240q-125 45 -193 45q-86 0 -125.5 -64 t-39.5 -167z" />
<glyph unicode="&#x106;" horiz-adv-x="954" d="M100 717q0 151 20 274.5t55.5 209t85.5 143.5t109 85t126 27q54 0 106 -15.5t106.5 -49.5t90 -60.5t94.5 -75.5l-86 -120q-4 3 -26 21t-28 23t-27 21t-29.5 22t-28 19.5t-31 18.5t-29 14t-31 12.5t-29 6.5t-30.5 3q-115 0 -182.5 -153t-67.5 -426t67.5 -426.5 t182.5 -153.5q21 0 42 4.5t45.5 16.5t41 20.5t44.5 29t39 29t42 33t37 29.5l84 -121q-59 -49 -94.5 -75.5t-90 -60.5t-106.5 -49.5t-106 -15.5q-85 0 -155.5 44t-125 131.5t-85 232t-30.5 332.5zM432 1536l174 266h191l-236 -266h-129z" />
<glyph unicode="&#x107;" horiz-adv-x="770" d="M84 539q0 136 26.5 244.5t72 176t103.5 103t124 35.5q118 0 290 -134q8 -5 11 -8l-74 -118q-9 6 -40 30.5t-52 39t-53.5 28.5t-59.5 14q-84 0 -136 -112t-52 -299q0 -188 52 -301t136 -113q28 0 62 15t53 28t54 41t36 29l74 -119q-98 -75 -154 -103q-78 -39 -147 -39 q-66 0 -124 36t-103.5 104t-72 177t-26.5 245zM295 1227l174 266h190l-235 -266h-129z" />
<glyph unicode="&#x10a;" horiz-adv-x="954" d="M100 717q0 151 20 274.5t55.5 209t85.5 143.5t109 85t126 27q54 0 106 -15.5t106.5 -49.5t90 -60.5t94.5 -75.5l-86 -120q-4 3 -26 21t-28 23t-27 21t-29.5 22t-28 19.5t-31 18.5t-29 14t-31 12.5t-29 6.5t-30.5 3q-115 0 -182.5 -153t-67.5 -426t67.5 -426.5 t182.5 -153.5q21 0 42 4.5t45.5 16.5t41 20.5t44.5 29t39 29t42 33t37 29.5l84 -121q-59 -49 -94.5 -75.5t-90 -60.5t-106.5 -49.5t-106 -15.5q-85 0 -155.5 44t-125 131.5t-85 232t-30.5 332.5zM442 1556v191h138v-191h-138z" />
<glyph unicode="&#x10b;" horiz-adv-x="770" d="M84 539q0 136 26.5 244.5t72 176t103.5 103t124 35.5q118 0 290 -134q8 -5 11 -8l-74 -118q-9 6 -40 30.5t-52 39t-53.5 28.5t-59.5 14q-84 0 -136 -112t-52 -299q0 -188 52 -301t136 -113q28 0 62 15t53 28t54 41t36 29l74 -119q-98 -75 -154 -103q-78 -39 -147 -39 q-66 0 -124 36t-103.5 104t-72 177t-26.5 245zM350 1247v191h137v-191h-137z" />
<glyph unicode="&#x10c;" horiz-adv-x="954" d="M100 717q0 151 20 274.5t55.5 209t85.5 143.5t109 85t126 27q54 0 106 -15.5t106.5 -49.5t90 -60.5t94.5 -75.5l-86 -120q-4 3 -26 21t-28 23t-27 21t-29.5 22t-28 19.5t-31 18.5t-29 14t-31 12.5t-29 6.5t-30.5 3q-115 0 -182.5 -153t-67.5 -426t67.5 -426.5 t182.5 -153.5q21 0 42 4.5t45.5 16.5t41 20.5t44.5 29t39 29t42 33t37 29.5l84 -121q-59 -49 -94.5 -75.5t-90 -60.5t-106.5 -49.5t-106 -15.5q-85 0 -155.5 44t-125 131.5t-85 232t-30.5 332.5zM295 1802h113l112 -176l115 176h110l-143 -266h-164z" />
<glyph unicode="&#x10d;" horiz-adv-x="770" d="M84 539q0 136 26.5 244.5t72 176t103.5 103t124 35.5q118 0 290 -134q8 -5 11 -8l-74 -118q-9 6 -40 30.5t-52 39t-53.5 28.5t-59.5 14q-84 0 -136 -112t-52 -299q0 -188 52 -301t136 -113q28 0 62 15t53 28t54 41t36 29l74 -119q-98 -75 -154 -103q-78 -39 -147 -39 q-66 0 -124 36t-103.5 104t-72 177t-26.5 245zM193 1493h112l113 -176l114 176h111l-143 -266h-164z" />
<glyph unicode="&#x10e;" horiz-adv-x="1052" d="M150 0v1434h264q129 0 227 -40.5t168.5 -125.5t106.5 -223.5t36 -327.5t-36 -327.5t-106.5 -223.5t-168.5 -125.5t-227 -40.5h-264zM311 154h107q190 0 280 134.5t90 428.5q0 293 -90 428t-280 135h-107v-1126zM326 1802h112l113 -176l115 176h110l-143 -266h-164z" />
<glyph unicode="&#x10f;" horiz-adv-x="948" d="M86 537q0 284 78 422.5t207 138.5q53 0 103.5 -27.5t81.5 -58.5t69 -78v559h155v-1493h-155v139q-57 -73 -117.5 -117.5t-136.5 -44.5q-129 0 -207 138.5t-78 421.5zM246 537q0 -199 42 -308.5t126 -109.5q57 0 112.5 48t98.5 124v491q-42 77 -98 125.5t-113 48.5 q-84 0 -126 -109.5t-42 -309.5zM852 1118l66 176h-60v199h131l15 -207l-111 -213z" />
<glyph unicode="&#x110;" horiz-adv-x="1062" d="M53 647v139h105v648h264q263 0 401 -172t138 -545t-138 -545t-401 -172h-264v647h-105zM319 154h107q191 0 281 134.5t90 428.5q0 293 -90.5 428t-280.5 135h-107v-494h222v-139h-222v-493z" />
<glyph unicode="&#x111;" horiz-adv-x="903" d="M86 537q0 284 78 422.5t207 138.5q53 0 103.5 -27.5t81.5 -58.5t69 -78v283h-240v114h240v162h155v-162h88v-114h-88v-1217h-155v139q-57 -73 -117.5 -117.5t-136.5 -44.5q-129 0 -207 138.5t-78 421.5zM246 537q0 -199 42 -308.5t126 -109.5q57 0 112.5 48t98.5 124v491 q-42 77 -98 125.5t-113 48.5q-84 0 -126 -109.5t-42 -309.5z" />
<glyph unicode="&#x112;" d="M150 0v1434h655v-154h-494v-487h406v-152h-406v-487h500v-154h-661zM270 1587v113h420v-113h-420z" />
<glyph unicode="&#x113;" horiz-adv-x="854" d="M84 537q0 267 96.5 414t259.5 147q156 0 241 -128.5t85 -336.5q0 -36 -2.5 -70.5t-5.5 -51.5l-2 -17h-512q6 -177 56.5 -279t139.5 -102q13 0 26.5 2.5t25 5.5t27.5 10.5t25.5 12t27.5 16t25 16t26 18.5t24 17.5t25 19t22 17.5l76 -103q-39 -32 -71 -55.5t-79.5 -52.5 t-97.5 -44.5t-98 -15.5q-148 0 -244 145.5t-96 414.5zM231 1278v113h420v-113h-420zM244 602h377q3 365 -177 365q-90 0 -141 -97t-59 -268z" />
<glyph unicode="&#x116;" d="M150 0v1434h655v-154h-494v-487h406v-152h-406v-487h500v-154h-661zM412 1556v191h137v-191h-137z" />
<glyph unicode="&#x117;" horiz-adv-x="854" d="M84 537q0 267 96.5 414t259.5 147q156 0 241 -128.5t85 -336.5q0 -36 -2.5 -70.5t-5.5 -51.5l-2 -17h-512q6 -177 56.5 -279t139.5 -102q13 0 26.5 2.5t25 5.5t27.5 10.5t25.5 12t27.5 16t25 16t26 18.5t24 17.5t25 19t22 17.5l76 -103q-39 -32 -71 -55.5t-79.5 -52.5 t-97.5 -44.5t-98 -15.5q-148 0 -244 145.5t-96 414.5zM244 602h377q3 365 -177 365q-90 0 -141 -97t-59 -268zM373 1247v191h137v-191h-137z" />
<glyph unicode="&#x118;" d="M150 0v1434h655v-154h-494v-487h406v-152h-406v-487h500v-154h-4q-71 -60 -96 -93q-39 -52 -39 -104q0 -16 3.5 -28t8 -20t13.5 -13.5t15.5 -8.5t18 -4t17.5 -1.5t18 0t14 0.5l-16 -103h-26.5t-33.5 3t-40 8.5t-37 17t-34.5 28t-22 43t-9.5 60.5q0 121 139 215h-550z" />
<glyph unicode="&#x119;" horiz-adv-x="854" d="M84 537q0 267 96.5 414t259.5 147q156 0 241 -128.5t85 -336.5q0 -36 -2.5 -70.5t-5.5 -51.5l-2 -17h-512q6 -177 56.5 -279t139.5 -102q13 0 26.5 2.5t25 5.5t27.5 10.5t25.5 12t27.5 16t25 16t26 18.5t24 17.5t25 19t22 17.5l76 -103q-132 -109 -233 -145 q-31 -26 -45.5 -39.5t-40 -42t-37 -57t-11.5 -58.5q0 -18 3.5 -31.5t12.5 -21t15.5 -13t21 -7t19 -2.5t21.5 0h16l-16 -103h-26.5t-33.5 3t-40 8.5t-37 17t-34.5 28t-22 43t-9.5 60.5q0 108 108 195q-140 9 -228.5 153.5t-88.5 403.5zM244 602h377q3 365 -177 365 q-90 0 -141 -97t-59 -268z" />
<glyph unicode="&#x11a;" d="M150 0v1434h655v-154h-494v-487h406v-152h-406v-487h500v-154h-661zM256 1786h113l112 -176l115 176h111l-144 -266h-164z" />
<glyph unicode="&#x11b;" horiz-adv-x="854" d="M84 537q0 267 96.5 414t259.5 147q156 0 241 -128.5t85 -336.5q0 -36 -2.5 -70.5t-5.5 -51.5l-2 -17h-512q6 -177 56.5 -279t139.5 -102q13 0 26.5 2.5t25 5.5t27.5 10.5t25.5 12t27.5 16t25 16t26 18.5t24 17.5t25 19t22 17.5l76 -103q-39 -32 -71 -55.5t-79.5 -52.5 t-97.5 -44.5t-98 -15.5q-148 0 -244 145.5t-96 414.5zM215 1493h113l112 -176l115 176h111l-144 -266h-164zM244 602h377q3 365 -177 365q-90 0 -141 -97t-59 -268z" />
<glyph unicode="&#x11e;" horiz-adv-x="1042" d="M100 719q0 150 20.5 273.5t57 208.5t87 143t109.5 85t126 27q58 0 115 -18t111.5 -52.5t94 -65.5t90.5 -77l-84 -123q-9 7 -52.5 42.5t-64 50.5t-58 39t-69.5 34t-63 10q-117 0 -184.5 -154.5t-67.5 -432.5q0 -266 67 -422t183 -156q125 0 256 209v295h-254v147h408v-782 h-154v160q-71 -85 -141 -134t-150 -49q-62 0 -117.5 27t-104.5 85t-84.5 143.5t-56 210t-20.5 276.5zM301 1755h105q0 -108 110 -108q113 0 113 108h100q0 -102 -56 -160.5t-157 -58.5t-158 58.5t-57 160.5z" />
<glyph unicode="&#x11f;" horiz-adv-x="903" d="M86 537q0 284 78 422.5t207 138.5q53 0 103.5 -27.5t81.5 -58.5t69 -78v141h155v-1147q0 -197 -75.5 -281.5t-221.5 -84.5q-78 0 -176.5 21.5t-187.5 56.5l45 135q188 -74 291 -74q87 0 128.5 53t41.5 172v213q-57 -73 -117.5 -117.5t-136.5 -44.5q-129 0 -207 138.5 t-78 421.5zM238 1446h104q0 -109 111 -109q112 0 112 109h101q0 -102 -56 -160.5t-157 -58.5t-158 58.5t-57 160.5zM246 537q0 -199 42 -308.5t126 -109.5q57 0 112.5 48t98.5 124v491q-42 77 -98 125.5t-113 48.5q-84 0 -126 -109.5t-42 -309.5z" />
<glyph unicode="&#x120;" horiz-adv-x="1042" d="M100 719q0 150 20.5 273.5t57 208.5t87 143t109.5 85t126 27q58 0 115 -18t111.5 -52.5t94 -65.5t90.5 -77l-84 -123q-9 7 -52.5 42.5t-64 50.5t-58 39t-69.5 34t-63 10q-117 0 -184.5 -154.5t-67.5 -432.5q0 -266 67 -422t183 -156q125 0 256 209v295h-254v147h408v-782 h-154v160q-71 -85 -141 -134t-150 -49q-62 0 -117.5 27t-104.5 85t-84.5 143.5t-56 210t-20.5 276.5zM446 1556v191h138v-191h-138z" />
<glyph unicode="&#x121;" horiz-adv-x="903" d="M86 537q0 284 78 422.5t207 138.5q53 0 103.5 -27.5t81.5 -58.5t69 -78v141h155v-1147q0 -197 -75.5 -281.5t-221.5 -84.5q-78 0 -176.5 21.5t-187.5 56.5l45 135q188 -74 291 -74q87 0 128.5 53t41.5 172v213q-57 -73 -117.5 -117.5t-136.5 -44.5q-129 0 -207 138.5 t-78 421.5zM246 537q0 -199 42 -308.5t126 -109.5q57 0 112.5 48t98.5 124v491q-42 77 -98 125.5t-113 48.5q-84 0 -126 -109.5t-42 -309.5zM381 1247v191h137v-191h-137z" />
<glyph unicode="&#x122;" horiz-adv-x="1042" d="M100 719q0 150 20.5 273.5t57 208.5t87 143t109.5 85t126 27q58 0 115 -18t111.5 -52.5t94 -65.5t90.5 -77l-84 -123q-9 7 -52.5 42.5t-64 50.5t-58 39t-69.5 34t-63 10q-117 0 -184.5 -154.5t-67.5 -432.5q0 -266 67 -422t183 -156q125 0 256 209v295h-254v147h408v-782 h-154v160q-71 -85 -141 -134t-150 -49q-62 0 -117.5 27t-104.5 85t-84.5 143.5t-56 210t-20.5 276.5zM469 -504l66 176h-60v199h131l15 -207l-111 -213z" />
<glyph unicode="&#x123;" horiz-adv-x="903" d="M86 537q0 284 78 422.5t207 138.5q53 0 103.5 -27.5t81.5 -58.5t69 -78v141h155v-1147q0 -197 -75.5 -281.5t-221.5 -84.5q-78 0 -176.5 21.5t-187.5 56.5l45 135q188 -74 291 -74q87 0 128.5 53t41.5 172v213q-57 -73 -117.5 -117.5t-136.5 -44.5q-129 0 -207 138.5 t-78 421.5zM246 537q0 -199 42 -308.5t126 -109.5q57 0 112.5 48t98.5 124v491q-42 77 -98 125.5t-113 48.5q-84 0 -126 -109.5t-42 -309.5zM373 1454l110 213l41 -45l-65 -176h59v-199h-131z" />
<glyph unicode="&#x126;" horiz-adv-x="1097" d="M57 1065v113h105v256h162v-256h446v256h160v-256h108v-113h-108v-1065h-160v676h-446v-676h-162v1065h-105zM324 827h446v238h-446v-238z" />
<glyph unicode="&#x127;" horiz-adv-x="909" d="M35 1217v114h90v162h154v-162h239v-114h-239v-293q38 38 63 60.5t67 53t86.5 45.5t90.5 15q103 0 152.5 -77.5t49.5 -203.5v-817h-153v791q0 167 -109 167q-38 0 -78 -19.5t-74 -51.5t-55 -56.5t-40 -50.5v-780h-154v1217h-90z" />
<glyph unicode="&#x128;" horiz-adv-x="462" d="M-8 1597q34 87 64 129.5t79 42.5q32 0 68 -25t67 -50t49 -25t34.5 19t37.5 75l76 -39q-31 -88 -61.5 -131t-79.5 -43q-32 0 -68.5 25t-68 50.5t-50.5 25.5q-16 0 -32 -19.5t-37 -75.5zM150 0v1434h161v-1434h-161z" />
<glyph unicode="&#x129;" horiz-adv-x="405" d="M-37 1288q34 87 64 129.5t79 42.5q32 0 68.5 -25t67.5 -50t49 -25q17 0 33.5 19t37.5 75l76 -39q-31 -88 -61.5 -131t-79.5 -43q-32 0 -68.5 25t-67.5 50t-50 25q-16 0 -32.5 -19t-37.5 -75zM125 0v1075h154v-1075h-154z" />
<glyph unicode="&#x12a;" horiz-adv-x="462" d="M20 1587v113h420v-113h-420zM150 0v1434h161v-1434h-161z" />
<glyph unicode="&#x12b;" horiz-adv-x="405" d="M-8 1278v113h420v-113h-420zM125 0v1075h154v-1075h-154z" />
<glyph unicode="&#x12c;" horiz-adv-x="462" d="M16 1755h105q0 -108 110 -108q113 0 113 108h100q0 -102 -56 -160.5t-157 -58.5t-158 58.5t-57 160.5zM150 0v1434h161v-1434h-161z" />
<glyph unicode="&#x12d;" horiz-adv-x="405" d="M-14 1446h104q0 -109 111 -109q112 0 112 109h101q0 -102 -56 -160.5t-157 -58.5t-158 58.5t-57 160.5zM125 0v1075h154v-1075h-154z" />
<glyph unicode="&#x12e;" horiz-adv-x="462" d="M63 -215q0 120 140 215h-51v1434h161v-1434h-4q-71 -60 -96 -93q-39 -52 -39 -104q0 -18 3.5 -31.5t12.5 -21t15.5 -13t21 -7t19 -2.5t20.5 0h17l-17 -103h-26.5t-33.5 3t-40 8.5t-37 17t-34.5 28t-22 43t-9.5 60.5z" />
<glyph unicode="&#x12f;" horiz-adv-x="403" d="M29 -215q0 121 139 215h-43v1075h154v-1075h-5q-71 -60 -96 -93q-39 -52 -39 -104q0 -18 3.5 -31.5t12.5 -21t15.5 -13t21 -7t19 -2.5t21.5 0h16l-17 -103h-26.5t-33.5 3t-40 8.5t-36.5 17t-34 28t-22 43t-9.5 60.5zM119 1288v199h166v-199h-166z" />
<glyph unicode="&#x130;" horiz-adv-x="462" d="M150 0v1434h161v-1434h-161zM162 1556v191h137v-191h-137z" />
<glyph unicode="&#x131;" horiz-adv-x="405" d="M125 0v1075h154v-1075h-154z" />
<glyph unicode="&#x132;" horiz-adv-x="923" d="M150 0v1434h161v-1434h-161zM449 -166q33 16 54.5 26.5t40 24.5t29 22t19 25t12 26.5t6 34.5t2.5 40.5v52.5v1348h162v-1342q0 -61 -1 -88.5t-5.5 -69.5t-15 -61t-29 -47.5t-48.5 -46.5t-72 -39t-101 -43z" />
<glyph unicode="&#x133;" horiz-adv-x="796" d="M119 1288v199h166v-199h-166zM125 0v1075h154v-1075h-154zM352 -307q33 16 55 26.5t41 24.5t29.5 22t19.5 25.5t12.5 27.5t6 35.5t2.5 42v54.5v1124h154v-1116q0 -71 -1 -102.5t-9 -77t-24 -67t-46.5 -51t-75.5 -51t-113 -46.5zM512 1288v199h166v-199h-166z" />
<glyph unicode="&#x134;" horiz-adv-x="460" d="M-14 -166q33 16 54.5 26.5t40 24.5t29.5 22t19.5 25t12 26.5t6 34.5t2.5 41v52v1348h161v-1342q0 -61 -1 -88.5t-5.5 -69.5t-15 -61t-29 -47.5t-48.5 -46.5t-72 -39t-101 -43zM4 1536l143 266h164l144 -266h-111l-115 174l-112 -174h-113z" />
<glyph unicode="&#x135;" horiz-adv-x="403" d="M-41 -307q33 16 55 26.5t41 24.5t29.5 22t19.5 25.5t12.5 27.5t6 35.5t2.5 42v54.5v1124h154v-1116q0 -83 -2.5 -120.5t-15 -87t-41.5 -75.5t-79 -55t-131 -57zM-25 1227l144 266h164l143 -266h-111l-114 174l-113 -174h-113z" />
<glyph unicode="&#x136;" horiz-adv-x="995" d="M150 0v1434h161v-752l424 752h195l-406 -674l439 -760h-193l-338 608l-121 -200v-408h-161zM426 -504l66 176h-60v199h131l15 -207l-111 -213z" />
<glyph unicode="&#x137;" horiz-adv-x="806" d="M125 0v1493h154v-958l280 540h176l-258 -436l301 -639h-164l-223 492l-112 -189v-303h-154zM344 -504l66 176h-60v199h131l15 -207l-111 -213z" />
<glyph unicode="&#x138;" horiz-adv-x="806" d="M125 0v1075h154v-540l280 540h176l-258 -436l301 -639h-164l-223 492l-112 -189v-303h-154z" />
<glyph unicode="&#x139;" horiz-adv-x="833" d="M106 1536l175 266h190l-235 -266h-130zM150 0v1434h161v-1280h477v-154h-638z" />
<glyph unicode="&#x13a;" horiz-adv-x="417" d="M84 1597l174 267h191l-236 -267h-129zM131 0v1493h156v-1493h-156z" />
<glyph unicode="&#x13b;" horiz-adv-x="833" d="M150 0v1434h161v-1280h477v-154h-638zM391 -504l66 176h-60v199h131l15 -207l-111 -213z" />
<glyph unicode="&#x13c;" horiz-adv-x="419" d="M131 0v1493h156v-1493h-156zM139 -504l66 176h-60v199h131l15 -207l-111 -213z" />
<glyph unicode="&#x13d;" horiz-adv-x="833" d="M150 0v1434h161v-1280h477v-154h-638zM385 1059l66 176h-60v199h131l15 -207l-111 -213z" />
<glyph unicode="&#x13e;" horiz-adv-x="458" d="M131 0v1493h156v-1493h-156zM360 1118l66 176h-59v199h131l14 -207l-111 -213z" />
<glyph unicode="&#x13f;" horiz-adv-x="835" d="M150 0v1434h161v-1280h477v-154h-638zM569 649v191h138v-191h-138z" />
<glyph unicode="&#x140;" horiz-adv-x="483" d="M131 0v1493h156v-1493h-156zM369 649v191h137v-191h-137z" />
<glyph unicode="&#x141;" horiz-adv-x="845" d="M63 471v166l99 74v723h162v-603l190 142v-168l-190 -141v-510h477v-154h-639v543z" />
<glyph unicode="&#x142;" horiz-adv-x="454" d="M57 539v166l93 67v721h155v-606l92 67v-168l-92 -67v-719h-155v606z" />
<glyph unicode="&#x143;" horiz-adv-x="1091" d="M150 0v1434h165l465 -1123v1123h160v-1434h-164l-465 1122v-1122h-161zM428 1536l174 266h191l-236 -266h-129z" />
<glyph unicode="&#x144;" horiz-adv-x="909" d="M125 0v1075h154v-151q35 36 62 60t68 53.5t86 45t91 15.5q103 0 152.5 -77.5t49.5 -203.5v-817h-153v791q0 167 -109 167q-38 0 -78 -19.5t-74 -51.5t-55 -56.5t-40 -50.5v-780h-154zM332 1227l174 266h190l-235 -266h-129z" />
<glyph unicode="&#x145;" horiz-adv-x="1091" d="M150 0v1434h165l465 -1123v1123h160v-1434h-164l-465 1122v-1122h-161zM483 -504l66 176h-60v199h132l14 -207l-111 -213z" />
<glyph unicode="&#x146;" horiz-adv-x="909" d="M125 0v1075h154v-151q35 36 62 60t68 53.5t86 45t91 15.5q103 0 152.5 -77.5t49.5 -203.5v-817h-153v791q0 167 -109 167q-38 0 -78 -19.5t-74 -51.5t-55 -56.5t-40 -50.5v-780h-154zM385 -504l66 176h-60v199h131l15 -207l-111 -213z" />
<glyph unicode="&#x147;" horiz-adv-x="1091" d="M150 0v1434h165l465 -1123v1123h160v-1434h-164l-465 1122v-1122h-161zM328 1802h112l113 -176l115 176h110l-143 -266h-164z" />
<glyph unicode="&#x148;" horiz-adv-x="909" d="M125 0v1075h154v-151q35 36 62 60t68 53.5t86 45t91 15.5q103 0 152.5 -77.5t49.5 -203.5v-817h-153v791q0 167 -109 167q-38 0 -78 -19.5t-74 -51.5t-55 -56.5t-40 -50.5v-780h-154zM227 1493h113l113 -176l114 176h111l-143 -266h-164z" />
<glyph unicode="&#x149;" horiz-adv-x="909" d="M117 1231l65 176h-59v199h131l14 -207l-110 -213zM125 0v1075h154v-151q35 36 62 60t68 53.5t86 45t91 15.5q103 0 152.5 -77.5t49.5 -203.5v-817h-153v791q0 167 -109 167q-38 0 -78 -19.5t-74 -51.5t-55 -56.5t-40 -50.5v-780h-154z" />
<glyph unicode="&#x14a;" horiz-adv-x="1091" d="M150 0v1434h165l465 -1123v1123h160v-1342q0 -70 -1.5 -102.5t-9.5 -77t-23.5 -66t-46.5 -51t-76 -51t-113 -47.5l-56 137q95 45 125.5 74.5t36.5 91.5l-465 1122v-1122h-161z" />
<glyph unicode="&#x14b;" horiz-adv-x="907" d="M125 0v1075h154v-151q35 36 62 60t68 53.5t86 45t91 15.5q103 0 152.5 -77.5t49.5 -203.5v-858q0 -84 -2.5 -120t-14.5 -85t-41 -74.5t-79 -55.5t-131 -60l-51 129q33 16 55 26.5t41 24.5t29.5 22t19.5 25.5t12.5 27.5t6 35.5t2.5 42v54.5v840q0 167 -109 167 q-38 0 -78 -19.5t-74 -51.5t-55 -56.5t-40 -50.5v-780h-154z" />
<glyph unicode="&#x14c;" horiz-adv-x="1099" d="M100 717q0 739 451 739q448 0 448 -739q0 -740 -448 -740q-451 0 -451 740zM266 717q0 -131 13 -230.5t44 -183t88.5 -128t139.5 -44.5q66 0 116 30t81 81.5t51 128t27.5 160t7.5 186.5t-7.5 186.5t-27.5 160t-51 128t-81 81.5t-116 30q-82 0 -139.5 -44.5t-88.5 -128 t-44 -183t-13 -230.5zM340 1587v113h420v-113h-420z" />
<glyph unicode="&#x14d;" horiz-adv-x="892" d="M84 537q0 265 92.5 413t269.5 148t270 -148t93 -413q0 -266 -92 -413t-271 -147q-177 0 -269.5 147.5t-92.5 412.5zM238 1278v113h419v-113h-419zM242 537q0 -422 204 -422q205 0 205 422q0 424 -205 424q-204 0 -204 -424z" />
<glyph unicode="&#x14e;" horiz-adv-x="1099" d="M100 717q0 739 451 739q448 0 448 -739q0 -740 -448 -740q-451 0 -451 740zM266 717q0 -131 13 -230.5t44 -183t88.5 -128t139.5 -44.5q66 0 116 30t81 81.5t51 128t27.5 160t7.5 186.5t-7.5 186.5t-27.5 160t-51 128t-81 81.5t-116 30q-82 0 -139.5 -44.5t-88.5 -128 t-44 -183t-13 -230.5zM336 1755h104q0 -108 111 -108q113 0 113 108h100q0 -102 -56 -160.5t-157 -58.5t-158 58.5t-57 160.5z" />
<glyph unicode="&#x14f;" horiz-adv-x="892" d="M84 537q0 265 92.5 413t269.5 148t270 -148t93 -413q0 -266 -92 -413t-271 -147q-177 0 -269.5 147.5t-92.5 412.5zM231 1446h105q0 -109 110 -109q113 0 113 109h100q0 -102 -56 -160.5t-157 -58.5t-158 58.5t-57 160.5zM242 537q0 -422 204 -422q205 0 205 422 q0 424 -205 424q-204 0 -204 -424z" />
<glyph unicode="&#x150;" horiz-adv-x="1099" d="M100 717q0 739 451 739q448 0 448 -739q0 -740 -448 -740q-451 0 -451 740zM266 717q0 -131 13 -230.5t44 -183t88.5 -128t139.5 -44.5q66 0 116 30t81 81.5t51 128t27.5 160t7.5 186.5t-7.5 186.5t-27.5 160t-51 128t-81 81.5t-116 30q-82 0 -139.5 -44.5t-88.5 -128 t-44 -183t-13 -230.5zM362 1536l111 266h160l-176 -266h-95zM594 1536l111 266h157l-174 -266h-94z" />
<glyph unicode="&#x151;" horiz-adv-x="892" d="M84 537q0 265 92.5 413t269.5 148t270 -148t93 -413q0 -266 -92 -413t-271 -147q-177 0 -269.5 147.5t-92.5 412.5zM242 537q0 -422 204 -422q205 0 205 422q0 424 -205 424q-204 0 -204 -424zM258 1227l111 266h159l-176 -266h-94zM489 1227l111 266h158l-174 -266h-95z " />
<glyph unicode="&#x152;" horiz-adv-x="1589" d="M100 717q0 739 451 739q176 0 287 -121v99h655v-154h-494v-487h406v-152h-406v-487h500v-154h-661v96q-110 -119 -287 -119q-451 0 -451 740zM266 717q0 -131 13 -230.5t44 -183t88.5 -128t139.5 -44.5q66 0 116 30t81 81.5t51 128t27.5 160t7.5 186.5t-7.5 186.5 t-27.5 160t-51 128t-81 81.5t-116 30q-82 0 -139.5 -44.5t-88.5 -128t-44 -183t-13 -230.5z" />
<glyph unicode="&#x153;" horiz-adv-x="1421" d="M84 537q0 265 92.5 413t269.5 148q191 0 285 -174q45 85 116.5 129.5t160.5 44.5q156 0 240.5 -128.5t84.5 -336.5q0 -36 -2.5 -70.5t-4.5 -51.5l-3 -17h-512q6 -177 57 -279t140 -102q13 0 26.5 2.5t25 5.5t27.5 10.5t25.5 12t27.5 16t25 16t26 18.5t24 17.5t25 19 t22 17.5l75 -103q-39 -32 -71 -55.5t-79.5 -52.5t-97.5 -44.5t-98 -15.5q-79 0 -147 44t-113 129q-95 -173 -285 -173q-177 0 -269.5 147.5t-92.5 412.5zM242 537q0 -422 204 -422q205 0 205 422v26q-7 398 -205 398q-204 0 -204 -424zM811 602h377q3 365 -176 365 q-90 0 -141.5 -97t-59.5 -268z" />
<glyph unicode="&#x154;" horiz-adv-x="1030" d="M150 0v1434h350q436 0 436 -414q0 -327 -270 -393l270 -627h-174l-256 608h-195v-608h-161zM311 754h191q270 0 270 266q0 140 -71 204t-193 64h-197v-534zM418 1536l174 266h190l-235 -266h-129z" />
<glyph unicode="&#x155;" horiz-adv-x="598" d="M125 0v1075h154v-229q36 94 73 143q83 111 205 98v-161q-51 0 -94 -18.5t-70.5 -48.5t-49.5 -66t-33.5 -72t-19 -66t-9.5 -49l-2 -18v-588h-154zM217 1227l174 266h191l-236 -266h-129z" />
<glyph unicode="&#x156;" horiz-adv-x="1030" d="M150 0v1434h350q436 0 436 -414q0 -327 -270 -393l270 -627h-174l-256 608h-195v-608h-161zM311 754h191q270 0 270 266q0 140 -71 204t-193 64h-197v-534zM442 -504l66 176h-59v199h131l14 -207l-111 -213z" />
<glyph unicode="&#x157;" horiz-adv-x="598" d="M125 0v1075h154v-229q36 94 73 143q83 111 205 98v-161q-51 0 -94 -18.5t-70.5 -48.5t-49.5 -66t-33.5 -72t-19 -66t-9.5 -49l-2 -18v-588h-154zM131 -504l66 176h-60v199h131l15 -207l-111 -213z" />
<glyph unicode="&#x158;" horiz-adv-x="1030" d="M150 0v1434h350q436 0 436 -414q0 -327 -270 -393l270 -627h-174l-256 608h-195v-608h-161zM311 754h191q270 0 270 266q0 140 -71 204t-193 64h-197v-534zM317 1802h113l113 -176l114 176h111l-143 -266h-164z" />
<glyph unicode="&#x159;" horiz-adv-x="598" d="M115 1493h112l113 -176l115 176h110l-143 -266h-164zM125 0v1075h154v-229q36 94 73 143q83 111 205 98v-161q-51 0 -94 -18.5t-70.5 -48.5t-49.5 -66t-33.5 -72t-19 -66t-9.5 -49l-2 -18v-588h-154z" />
<glyph unicode="&#x15a;" horiz-adv-x="919" d="M76 135l82 127q198 -133 315 -133q83 0 141 54.5t58 154.5q0 29 -5 55.5t-19 52t-25 44.5t-37.5 44t-40.5 39t-51 41t-52 37.5t-59 40.5q-54 37 -86.5 62t-75 66t-66 79.5t-40.5 93t-17 115.5q0 160 96.5 254t249.5 94q92 0 188.5 -34.5t172.5 -84.5l-82 -129 q-165 97 -266 97q-80 0 -135.5 -50t-55.5 -145q0 -50 18 -92.5t57 -81t77.5 -67.5t100.5 -71q7 -5 11 -7q54 -37 86.5 -61.5t80.5 -70t75 -88t47.5 -104t20.5 -129.5q0 -167 -101 -264t-254 -97q-109 0 -216.5 46.5t-192.5 111.5zM332 1536l174 266h190l-235 -266h-129z" />
<glyph unicode="&#x15b;" horiz-adv-x="774" d="M72 109l71 118q61 -44 135 -78t130 -34q57 0 97 37.5t40 105.5q0 43 -16.5 78.5t-50 63t-60 43.5t-70.5 38q-45 23 -75 40t-68.5 48t-62 63t-40 79t-16.5 102q0 127 76 206t200 79q145 0 310 -109l-76 -115q-125 84 -219 84q-61 0 -99 -37t-38 -100q0 -18 3.5 -35t8 -30 t15 -27t16.5 -22.5t22 -20.5t22 -17t25.5 -16t23.5 -13t25.5 -12.5t22.5 -11.5q139 -69 208.5 -153.5t69.5 -202.5q0 -130 -79 -206.5t-203 -76.5q-91 0 -186 40t-162 92zM262 1227l174 266h191l-236 -266h-129z" />
<glyph unicode="&#x15c;" horiz-adv-x="919" d="M76 135l82 127q198 -133 315 -133q83 0 141 54.5t58 154.5q0 29 -5 55.5t-19 52t-25 44.5t-37.5 44t-40.5 39t-51 41t-52 37.5t-59 40.5q-54 37 -86.5 62t-75 66t-66 79.5t-40.5 93t-17 115.5q0 160 96.5 254t249.5 94q92 0 188.5 -34.5t172.5 -84.5l-82 -129 q-165 97 -266 97q-80 0 -135.5 -50t-55.5 -145q0 -50 18 -92.5t57 -81t77.5 -67.5t100.5 -71q7 -5 11 -7q54 -37 86.5 -61.5t80.5 -70t75 -88t47.5 -104t20.5 -129.5q0 -167 -101 -264t-254 -97q-109 0 -216.5 46.5t-192.5 111.5zM233 1536l144 266h164l143 -266h-111 l-114 174l-113 -174h-113z" />
<glyph unicode="&#x15d;" horiz-adv-x="774" d="M72 109l71 118q61 -44 135 -78t130 -34q57 0 97 37.5t40 105.5q0 43 -16.5 78.5t-50 63t-60 43.5t-70.5 38q-45 23 -75 40t-68.5 48t-62 63t-40 79t-16.5 102q0 127 76 206t200 79q145 0 310 -109l-76 -115q-125 84 -219 84q-61 0 -99 -37t-38 -100q0 -18 3.5 -35t8 -30 t15 -27t16.5 -22.5t22 -20.5t22 -17t25.5 -16t23.5 -13t25.5 -12.5t22.5 -11.5q139 -69 208.5 -153.5t69.5 -202.5q0 -130 -79 -206.5t-203 -76.5q-91 0 -186 40t-162 92zM162 1227l143 266h164l143 -266h-110l-115 174l-113 -174h-112z" />
<glyph unicode="&#x15e;" horiz-adv-x="919" d="M76 135l82 127q198 -133 315 -133q83 0 141 54.5t58 154.5q0 29 -5 55.5t-19 52t-25 44.5t-37.5 44t-40.5 39t-51 41t-52 37.5t-59 40.5q-54 37 -86.5 62t-75 66t-66 79.5t-40.5 93t-17 115.5q0 160 96.5 254t249.5 94q92 0 188.5 -34.5t172.5 -84.5l-82 -129 q-165 97 -266 97q-80 0 -135.5 -50t-55.5 -145q0 -50 18 -92.5t57 -81t77.5 -67.5t100.5 -71q7 -5 11 -7q54 -37 86.5 -61.5t80.5 -70t75 -88t47.5 -104t20.5 -129.5q0 -152 -84 -246t-217 -110q45 -87 45 -164q0 -79 -42.5 -124.5t-107.5 -45.5q-64 0 -117 39l35 102 q42 -29 68 -29q74 0 74 95q0 44 -27 122q-105 4 -208 50t-183 108z" />
<glyph unicode="&#x15f;" horiz-adv-x="772" d="M72 109l71 118q61 -44 135 -78t130 -34q57 0 97 37.5t40 105.5q0 43 -16.5 78.5t-50 63t-60 43.5t-70.5 38q-45 23 -75 40t-68.5 48t-62 63t-40 79t-16.5 102q0 127 76 206t200 79q145 0 310 -109l-76 -115q-125 84 -219 84q-61 0 -99 -37t-38 -100q0 -18 3.5 -35t8 -30 t15 -27t16.5 -22.5t22 -20.5t22 -17t25.5 -16t23.5 -13t25.5 -12.5t22.5 -11.5q139 -69 208.5 -153.5t69.5 -202.5q0 -117 -65.5 -190.5t-171.5 -87.5q43 -89 43 -164q0 -79 -42.5 -124.5t-107.5 -45.5q-63 0 -116 39l34 102q42 -29 68 -29q74 0 74 95q0 47 -27 125 q-86 6 -172 43.5t-147 85.5z" />
<glyph unicode="&#x160;" horiz-adv-x="919" d="M76 135l82 127q198 -133 315 -133q83 0 141 54.5t58 154.5q0 29 -5 55.5t-19 52t-25 44.5t-37.5 44t-40.5 39t-51 41t-52 37.5t-59 40.5q-54 37 -86.5 62t-75 66t-66 79.5t-40.5 93t-17 115.5q0 160 96.5 254t249.5 94q92 0 188.5 -34.5t172.5 -84.5l-82 -129 q-165 97 -266 97q-80 0 -135.5 -50t-55.5 -145q0 -50 18 -92.5t57 -81t77.5 -67.5t100.5 -71q7 -5 11 -7q54 -37 86.5 -61.5t80.5 -70t75 -88t47.5 -104t20.5 -129.5q0 -167 -101 -264t-254 -97q-109 0 -216.5 46.5t-192.5 111.5zM233 1802h113l113 -176l114 176h111 l-143 -266h-164z" />
<glyph unicode="&#x161;" horiz-adv-x="774" d="M72 109l71 118q61 -44 135 -78t130 -34q57 0 97 37.5t40 105.5q0 43 -16.5 78.5t-50 63t-60 43.5t-70.5 38q-45 23 -75 40t-68.5 48t-62 63t-40 79t-16.5 102q0 127 76 206t200 79q145 0 310 -109l-76 -115q-125 84 -219 84q-61 0 -99 -37t-38 -100q0 -18 3.5 -35t8 -30 t15 -27t16.5 -22.5t22 -20.5t22 -17t25.5 -16t23.5 -13t25.5 -12.5t22.5 -11.5q139 -69 208.5 -153.5t69.5 -202.5q0 -130 -79 -206.5t-203 -76.5q-91 0 -186 40t-162 92zM160 1493h112l113 -176l115 176h110l-143 -266h-164z" />
<glyph unicode="&#x162;" horiz-adv-x="851" d="M45 1280v154h762v-154h-299v-1280h-45q8 -11 19 -33t23.5 -65t12.5 -84q0 -79 -42 -124.5t-107 -45.5q-64 0 -117 39l35 102q42 -29 67 -29q74 0 74 95q0 71 -37 145h-45v1280h-301z" />
<glyph unicode="&#x163;" horiz-adv-x="589" d="M57 944v131h101v260l155 51v-311h201v-131h-201v-704q0 -113 64 -113q48 0 127 49l59 -123q-94 -57 -184 -71q45 -93 45 -164q0 -79 -42.5 -124.5t-107.5 -45.5q-63 0 -116 39l35 102q42 -29 67 -29q74 0 74 95q0 60 -29 125q-71 10 -109 70t-38 188v706h-101z" />
<glyph unicode="&#x164;" horiz-adv-x="851" d="M45 1280v154h762v-154h-299v-1280h-162v1280h-301zM201 1802h112l113 -176l115 176h110l-143 -266h-164z" />
<glyph unicode="&#x165;" horiz-adv-x="589" d="M57 944v131h101v260l155 51v-311h201v-131h-201v-704q0 -113 64 -113q48 0 127 49l59 -123q-129 -76 -225 -76q-87 0 -133.5 60t-46.5 201v706h-101zM389 1231l66 176h-60v199h131l15 -207l-111 -213z" />
<glyph unicode="&#x166;" horiz-adv-x="868" d="M53 1280v154h762v-154h-299v-696h143v-115h-143v-469h-162v469h-145v115h145v696h-301z" />
<glyph unicode="&#x167;" horiz-adv-x="587" d="M57 944v131h101v260l155 51v-311h201v-131h-201v-260h158v-113h-158v-331q0 -113 64 -113q48 0 127 49l59 -123q-129 -76 -225 -76q-87 0 -133.5 60t-46.5 201v333h-72v113h72v260h-101z" />
<glyph unicode="&#x168;" horiz-adv-x="1056" d="M141 436v998h162v-1004q0 -67 9.5 -117t33.5 -93t69.5 -66t112.5 -23t112.5 23t69.5 66t34 93.5t10 116.5v1004h161v-998q0 -101 -18 -179.5t-60.5 -144t-120 -100.5t-188.5 -35t-188.5 35t-120 100.5t-60.5 144t-18 179.5zM289 1597q34 87 64 129.5t79 42.5q32 0 68 -25 t67 -50t49 -25t34.5 19t37.5 75l76 -39q-31 -88 -61.5 -131t-79.5 -43q-32 0 -68.5 25t-68 50.5t-50.5 25.5q-16 0 -32 -19.5t-37 -75.5z" />
<glyph unicode="&#x169;" horiz-adv-x="909" d="M121 256v819h153v-792q0 -166 109 -166q107 0 248 176v782h153v-1075h-153v152q-35 -36 -61.5 -60t-68 -54t-86.5 -45.5t-91 -15.5q-103 0 -153 77.5t-50 201.5zM227 1288q33 87 64 129.5t80 42.5q32 0 68 -25t67 -50t49 -25t34.5 19t37.5 75l75 -39q-31 -88 -61.5 -131 t-79.5 -43q-32 0 -68.5 25t-67.5 50t-50 25q-16 0 -32.5 -19t-37.5 -75z" />
<glyph unicode="&#x16a;" horiz-adv-x="1056" d="M141 436v998h162v-1004q0 -67 9.5 -117t33.5 -93t69.5 -66t112.5 -23t112.5 23t69.5 66t34 93.5t10 116.5v1004h161v-998q0 -101 -18 -179.5t-60.5 -144t-120 -100.5t-188.5 -35t-188.5 35t-120 100.5t-60.5 144t-18 179.5zM317 1587v113h420v-113h-420z" />
<glyph unicode="&#x16b;" horiz-adv-x="909" d="M121 256v819h153v-792q0 -166 109 -166q107 0 248 176v782h153v-1075h-153v152q-35 -36 -61.5 -60t-68 -54t-86.5 -45.5t-91 -15.5q-103 0 -153 77.5t-50 201.5zM242 1278v113h420v-113h-420z" />
<glyph unicode="&#x16c;" horiz-adv-x="1056" d="M141 436v998h162v-1004q0 -67 9.5 -117t33.5 -93t69.5 -66t112.5 -23t112.5 23t69.5 66t34 93.5t10 116.5v1004h161v-998q0 -101 -18 -179.5t-60.5 -144t-120 -100.5t-188.5 -35t-188.5 35t-120 100.5t-60.5 144t-18 179.5zM313 1755h105q0 -108 110 -108q113 0 113 108 h100q0 -102 -56 -160.5t-157 -58.5t-158 58.5t-57 160.5z" />
<glyph unicode="&#x16d;" horiz-adv-x="909" d="M121 256v819h153v-792q0 -166 109 -166q107 0 248 176v782h153v-1075h-153v152q-35 -36 -61.5 -60t-68 -54t-86.5 -45.5t-91 -15.5q-103 0 -153 77.5t-50 201.5zM238 1446h104q0 -109 111 -109q112 0 112 109h101q0 -102 -56 -160.5t-157 -58.5t-158 58.5t-57 160.5z" />
<glyph unicode="&#x16e;" horiz-adv-x="1056" d="M141 436v998h162v-1004q0 -67 9.5 -117t33.5 -93t69.5 -66t112.5 -23t112.5 23t69.5 66t34 93.5t10 116.5v1004h161v-998q0 -101 -18 -179.5t-60.5 -144t-120 -100.5t-188.5 -35t-188.5 35t-120 100.5t-60.5 144t-18 179.5zM342 1702q0 77 54.5 132.5t131.5 55.5 q79 0 134 -55.5t55 -132.5q0 -79 -54.5 -132.5t-134.5 -53.5q-78 0 -132 53.5t-54 132.5zM432 1702q0 -41 27.5 -69.5t68.5 -28.5q42 0 71.5 28.5t29.5 69.5t-29.5 69.5t-71.5 28.5q-41 0 -68.5 -28.5t-27.5 -69.5z" />
<glyph unicode="&#x16f;" horiz-adv-x="909" d="M121 256v819h153v-792q0 -166 109 -166q107 0 248 176v782h153v-1075h-153v152q-35 -36 -61.5 -60t-68 -54t-86.5 -45.5t-91 -15.5q-103 0 -153 77.5t-50 201.5zM266 1393q0 77 54.5 132.5t132.5 55.5q79 0 133.5 -55.5t54.5 -132.5q0 -79 -54 -133t-134 -54 q-78 0 -132.5 54t-54.5 133zM356 1393q0 -41 28 -70t69 -29t70.5 29t29.5 70t-29.5 69.5t-70.5 28.5t-69 -28.5t-28 -69.5z" />
<glyph unicode="&#x170;" horiz-adv-x="1056" d="M141 436v998h162v-1004q0 -67 9.5 -117t33.5 -93t69.5 -66t112.5 -23t112.5 23t69.5 66t34 93.5t10 116.5v1004h161v-998q0 -101 -18 -179.5t-60.5 -144t-120 -100.5t-188.5 -35t-188.5 35t-120 100.5t-60.5 144t-18 179.5zM340 1536l111 266h159l-176 -266h-94z M571 1536l111 266h158l-174 -266h-95z" />
<glyph unicode="&#x171;" horiz-adv-x="909" d="M121 256v819h153v-792q0 -166 109 -166q107 0 248 176v782h153v-1075h-153v152q-35 -36 -61.5 -60t-68 -54t-86.5 -45.5t-91 -15.5q-103 0 -153 77.5t-50 201.5zM262 1227l111 266h159l-176 -266h-94zM494 1227l110 266h158l-174 -266h-94z" />
<glyph unicode="&#x172;" horiz-adv-x="1056" d="M141 436v998h162v-1004q0 -67 9.5 -117t33.5 -93t69.5 -66t112.5 -23t112.5 23t69.5 66t34 93.5t10 116.5v1004h161v-998q0 -114 -21 -198.5t-79 -151.5t-153 -92q-28 -24 -43.5 -38.5t-38.5 -41t-34 -54t-11 -57.5q0 -16 3.5 -28t8 -20t13.5 -13.5t15.5 -8.5t18 -4 t17.5 -1.5t18 0t14 0.5l-16 -103h-26.5t-33.5 3t-40 8.5t-37 17t-34.5 28t-22 43t-9.5 60.5q0 105 108 192h-4q-111 0 -188.5 35t-120 100.5t-60.5 144t-18 179.5z" />
<glyph unicode="&#x173;" horiz-adv-x="909" d="M121 256v819h153v-792q0 -166 109 -166q107 0 248 176v782h153v-1075h-4q-71 -60 -96 -93q-39 -52 -39 -104q0 -18 3.5 -31.5t12.5 -21t15.5 -13t21 -7t19 -2.5t21.5 0h16l-17 -103h-26.5t-33.5 3t-40 8.5t-36.5 17t-34 28t-22 43t-9.5 60.5q0 121 139 215h-43v152 q-35 -36 -61.5 -60t-68 -54t-86.5 -45.5t-91 -15.5q-103 0 -153 77.5t-50 201.5z" />
<glyph unicode="&#x174;" horiz-adv-x="1392" d="M61 1434h181l184 -1147l201 1147h137l199 -1149l188 1149h180l-274 -1434h-164l-199 1124l-196 -1124h-164zM469 1536l143 266h164l144 -266h-111l-115 174l-112 -174h-113z" />
<glyph unicode="&#x175;" horiz-adv-x="1202" d="M55 1075h166l148 -837l170 837h125l165 -846l150 846h166l-230 -1075h-149l-166 821l-166 -821h-147zM375 1227l143 266h164l143 -266h-110l-115 174l-113 -174h-112z" />
<glyph unicode="&#x177;" horiz-adv-x="833" d="M45 1075h168l203 -866l205 866h167l-409 -1493h-168l133 398zM190 1227l144 266h164l143 -266h-111l-114 174l-113 -174h-113z" />
<glyph unicode="&#x178;" horiz-adv-x="946" d="M35 1434h180l258 -699l260 699h178l-358 -871v-563h-162v569zM283 1556v191h137v-191h-137zM530 1556v191h136v-191h-136z" />
<glyph unicode="&#x179;" horiz-adv-x="921" d="M72 0v139l569 1141h-539v154h729v-138l-569 -1142h578v-154h-768zM342 1536l174 266h191l-236 -266h-129z" />
<glyph unicode="&#x17a;" horiz-adv-x="778" d="M70 0v129l458 803h-444v143h618v-129l-456 -803h456v-143h-632zM260 1227l174 266h191l-236 -266h-129z" />
<glyph unicode="&#x17b;" horiz-adv-x="921" d="M72 0v139l569 1141h-539v154h729v-138l-569 -1142h578v-154h-768zM399 1554v191h138v-191h-138z" />
<glyph unicode="&#x17c;" horiz-adv-x="778" d="M70 0v129l458 803h-444v143h618v-129l-456 -803h456v-143h-632zM315 1247v191h138v-191h-138z" />
<glyph unicode="&#x17d;" horiz-adv-x="921" d="M72 0v139l569 1141h-539v154h729v-138l-569 -1142h578v-154h-768zM242 1802h112l113 -176l115 176h110l-143 -266h-164z" />
<glyph unicode="&#x17e;" horiz-adv-x="778" d="M70 0v129l458 803h-444v143h618v-129l-456 -803h456v-143h-632zM160 1493h112l113 -176l115 176h110l-143 -266h-164z" />
<glyph unicode="&#x17f;" horiz-adv-x="481" d="M59 944v131h103v148q0 145 45.5 207.5t130.5 62.5q101 0 242 -72l-58 -121q-115 46 -145 46q-62 0 -62 -109v-1237h-153v944h-103z" />
<glyph unicode="&#x192;" horiz-adv-x="802" d="M61 -418l220 1362h-105l27 131h98l25 152q24 148 73.5 207t141.5 59q100 0 241 -76l-75 -123q-109 49 -150 49q-32 0 -50.5 -27t-27.5 -87l-24 -154h207l-27 -131h-201l-217 -1362h-156z" />
<glyph unicode="&#x1fc;" horiz-adv-x="1490" d="M0 0l674 1434h719v-154h-494v-487h406v-152h-406v-487h500v-154h-662v350h-389l-158 -350h-190zM416 500h321v710zM682 1536l174 266h191l-236 -266h-129z" />
<glyph unicode="&#x1fd;" horiz-adv-x="1339" d="M76 319q0 175 73.5 264t188.5 89q80 0 233 -64q2 71 21 162q-3 98 -35.5 144.5t-105.5 46.5q-17 0 -33.5 -2t-37.5 -8t-34 -10t-40 -15t-37.5 -16t-44.5 -20t-44 -20l-55 125q211 103 352 103q155 0 217 -109q92 109 232 109q156 0 240.5 -128.5t84.5 -336.5 q0 -36 -2.5 -70.5t-4.5 -51.5l-3 -17h-512q6 -177 57 -279t140 -102q13 0 26.5 2.5t25 5.5t27.5 10.5t25.5 12t27.5 16t25 16t26 18.5t24 17.5t25 19t22 17.5l75 -103q-39 -32 -71 -55.5t-79.5 -52.5t-97.5 -44.5t-98 -15.5q-90 0 -162.5 54t-117.5 159q-142 -213 -303 -213 q-107 0 -178.5 84.5t-71.5 257.5zM236 330q0 -109 37.5 -160t101.5 -51q117 0 221 168q-24 106 -27 215q-10 4 -38.5 17t-46 20t-43 13.5t-44.5 6.5q-85 0 -123 -63.5t-38 -165.5zM541 1227l174 266h190l-235 -266h-129zM729 602h377q3 365 -176 365q-90 0 -141.5 -97 t-59.5 -268z" />
<glyph unicode="&#x1fe;" horiz-adv-x="1097" d="M98 717q0 739 451 739q166 0 270 -104l43 82h121l-92 -177q106 -183 106 -540q0 -740 -448 -740q-167 0 -273 103l-40 -80h-121l90 172q-107 185 -107 545zM264 717q0 -225 37 -359l438 840q-68 105 -190 105q-82 0 -139.5 -44.5t-88.5 -128t-44 -183t-13 -230.5z M356 231q68 -100 193 -100q82 0 138.5 44.5t87 128t43.5 183t13 230.5q0 223 -36 354zM424 1536l174 266h190l-235 -266h-129z" />
<glyph unicode="&#x1ff;" horiz-adv-x="890" d="M82 537q0 265 92.5 413t269.5 148q124 0 209 -76l31 53h102l-69 -129q90 -146 90 -409q0 -266 -92 -413t-271 -147q-129 0 -213 78l-30 -55h-105l72 133q-86 145 -86 404zM240 537q0 -143 22 -234l318 582q-48 76 -136 76q-204 0 -204 -424zM305 193q53 -78 139 -78 q205 0 205 422q0 139 -24 241zM313 1227l174 266h191l-236 -266h-129z" />
<glyph unicode="&#x218;" horiz-adv-x="919" d="M76 135l82 127q198 -133 315 -133q83 0 141 54.5t58 154.5q0 29 -5 55.5t-19 52t-25 44.5t-37.5 44t-40.5 39t-51 41t-52 37.5t-59 40.5q-54 37 -86.5 62t-75 66t-66 79.5t-40.5 93t-17 115.5q0 160 96.5 254t249.5 94q92 0 188.5 -34.5t172.5 -84.5l-82 -129 q-165 97 -266 97q-80 0 -135.5 -50t-55.5 -145q0 -50 18 -92.5t57 -81t77.5 -67.5t100.5 -71q7 -5 11 -7q54 -37 86.5 -61.5t80.5 -70t75 -88t47.5 -104t20.5 -129.5q0 -167 -101 -264t-254 -97q-109 0 -216.5 46.5t-192.5 111.5zM393 -504l66 176h-60v199h131l15 -207 l-111 -213z" />
<glyph unicode="&#x219;" horiz-adv-x="774" d="M72 109l71 118q61 -44 135 -78t130 -34q57 0 97 37.5t40 105.5q0 43 -16.5 78.5t-50 63t-60 43.5t-70.5 38q-45 23 -75 40t-68.5 48t-62 63t-40 79t-16.5 102q0 127 76 206t200 79q145 0 310 -109l-76 -115q-125 84 -219 84q-61 0 -99 -37t-38 -100q0 -18 3.5 -35t8 -30 t15 -27t16.5 -22.5t22 -20.5t22 -17t25.5 -16t23.5 -13t25.5 -12.5t22.5 -11.5q139 -69 208.5 -153.5t69.5 -202.5q0 -130 -79 -206.5t-203 -76.5q-91 0 -186 40t-162 92zM311 -504l66 176h-60v199h132l14 -207l-111 -213z" />
<glyph unicode="&#x21a;" horiz-adv-x="851" d="M45 1280v154h762v-154h-299v-1280h-162v1280h-301zM356 -504l66 176h-60v199h132l14 -207l-111 -213z" />
<glyph unicode="&#x21b;" horiz-adv-x="589" d="M57 944v131h101v260l155 51v-311h201v-131h-201v-704q0 -113 64 -113q48 0 127 49l59 -123q-129 -76 -225 -76q-87 0 -133.5 60t-46.5 201v706h-101zM199 -504l65 176h-59v199h131l14 -207l-110 -213z" />
<glyph unicode="&#x2b0;" horiz-adv-x="616" d="M94 788v895h115v-335q31 30 52 47t59 35t75 18q66 0 98.5 -48t32.5 -126v-486h-114v463q0 97 -62 97q-39 0 -77 -31t-64 -66v-463h-115z" />
<glyph unicode="&#x2b2;" horiz-adv-x="301" d="M-8 614q33 15 51 27t29.5 21t15.5 27.5t5 31.5t1 49v664h113v-658q0 -35 -0.5 -50.5t-2.5 -41t-6.5 -36.5t-13 -29t-21 -27.5t-31.5 -23t-44 -24t-59 -22.5zM90 1550v131h121v-131h-121z" />
<glyph unicode="&#x2b7;" horiz-adv-x="776" d="M41 1434h119l84 -482l100 482h88l98 -488l84 488h121l-143 -646h-105l-100 465l-96 -465h-107z" />
<glyph unicode="&#x2b8;" horiz-adv-x="538" d="M31 1434h121l118 -496l117 496h121l-254 -895h-121l82 233z" />
<glyph unicode="&#x2c6;" horiz-adv-x="391" d="M-31 1227l144 266h163l144 -266h-111l-114 174l-113 -174h-113z" />
<glyph unicode="&#x2c7;" horiz-adv-x="391" d="M-31 1493h113l113 -176l114 176h111l-144 -266h-163z" />
<glyph unicode="&#x2d8;" horiz-adv-x="380" d="M-25 1446h105q0 -109 110 -109q113 0 113 109h100q0 -102 -56 -160.5t-157 -58.5t-158 58.5t-57 160.5z" />
<glyph unicode="&#x2d9;" horiz-adv-x="114" d="M-10 1247v191h137v-191h-137z" />
<glyph unicode="&#x2da;" horiz-adv-x="360" d="M-8 1393q0 77 54.5 132.5t131.5 55.5q79 0 134 -55.5t55 -132.5q0 -79 -54.5 -133t-134.5 -54q-78 0 -132 54t-54 133zM82 1393q0 -42 27.5 -70.5t68.5 -28.5t71 29t30 70t-29.5 69.5t-71.5 28.5q-41 0 -68.5 -28.5t-27.5 -69.5z" />
<glyph unicode="&#x2db;" horiz-adv-x="223" d="M-25 -215q0 70 49 131t126 107l73 -21q-72 -61 -98 -95q-39 -52 -39 -104q0 -18 3.5 -31.5t12.5 -21t15.5 -13t21 -7t19 -2.5t20.5 0h17l-17 -103h-26.5t-33.5 3t-40 8.5t-37 17t-34.5 28t-22 43t-9.5 60.5z" />
<glyph unicode="&#x2dc;" horiz-adv-x="411" d="M-33 1288q33 87 64 129.5t80 42.5q32 0 68 -25t67 -50t49 -25t34.5 19t37.5 75l75 -39q-31 -88 -61.5 -131t-79.5 -43q-32 0 -68.5 25t-67.5 50t-50 25q-16 0 -32.5 -19t-37.5 -75z" />
<glyph unicode="&#x2dd;" horiz-adv-x="446" d="M-27 1227l111 266h160l-176 -266h-95zM205 1227l110 266h158l-174 -266h-94z" />
<glyph unicode="&#x2e3;" horiz-adv-x="579" d="M33 788l188 326l-180 320h133l115 -236l117 236h133l-181 -322l191 -324h-137l-123 242l-119 -242h-137z" />
<glyph unicode="&#x3c0;" horiz-adv-x="829" d="M51 926v149h725v-149h-119v-926h-137v926h-213v-926h-137v926h-119z" />
<glyph unicode="&#x1e80;" horiz-adv-x="1392" d="M61 1434h181l184 -1147l201 1147h137l199 -1149l188 1149h180l-274 -1434h-164l-199 1124l-196 -1124h-164zM455 1802h190l174 -266h-127z" />
<glyph unicode="&#x1e81;" horiz-adv-x="1202" d="M55 1075h166l148 -837l170 837h125l165 -846l150 846h166l-230 -1075h-149l-166 821l-166 -821h-147zM360 1493h191l174 -266h-127z" />
<glyph unicode="&#x1e82;" horiz-adv-x="1392" d="M61 1434h181l184 -1147l201 1147h137l199 -1149l188 1149h180l-274 -1434h-164l-199 1124l-196 -1124h-164zM569 1536l174 266h191l-236 -266h-129z" />
<glyph unicode="&#x1e83;" horiz-adv-x="1202" d="M55 1075h166l148 -837l170 837h125l165 -846l150 846h166l-230 -1075h-149l-166 821l-166 -821h-147zM475 1227l174 266h191l-236 -266h-129z" />
<glyph unicode="&#x1e84;" horiz-adv-x="1392" d="M61 1434h181l184 -1147l201 1147h137l199 -1149l188 1149h180l-274 -1434h-164l-199 1124l-196 -1124h-164zM504 1556v191h137v-191h-137zM752 1556v191h135v-191h-135z" />
<glyph unicode="&#x1e85;" horiz-adv-x="1202" d="M55 1075h166l148 -837l170 837h125l165 -846l150 846h166l-230 -1075h-149l-166 821l-166 -821h-147zM410 1247v191h137v-191h-137zM657 1247v191h136v-191h-136z" />
<glyph unicode="&#x1e9e;" horiz-adv-x="1193" d="M150 0v1001q0 433 352 433h483v-123l-276 -457q102 -15 181.5 -59.5t127 -107.5t72 -137.5t24.5 -154.5q0 -78 -22.5 -150.5t-66 -133.5t-116.5 -97.5t-166 -36.5q-153 0 -327 109l73 129q128 -86 234 -86q56 0 100.5 23.5t71.5 62.5t41 87t14 101q0 40 -7.5 78t-30.5 82 t-59.5 76.5t-100.5 54t-148 21.5h-76v119l271 446h-289q-64 0 -106 -27t-67.5 -97t-25.5 -185v-971h-161z" />
<glyph unicode="&#x1ef2;" horiz-adv-x="946" d="M35 1434h180l258 -699l260 699h178l-358 -871v-563h-162v569zM233 1802h191l174 -266h-127z" />
<glyph unicode="&#x1ef3;" horiz-adv-x="833" d="M45 1075h168l203 -866l205 866h167l-409 -1493h-168l133 398zM176 1493h191l174 -266h-127z" />
<glyph unicode="&#x2000;" horiz-adv-x="945" />
<glyph unicode="&#x2001;" horiz-adv-x="1890" />
<glyph unicode="&#x2002;" horiz-adv-x="945" />
<glyph unicode="&#x2003;" horiz-adv-x="1890" />
<glyph unicode="&#x2004;" horiz-adv-x="630" />
<glyph unicode="&#x2005;" horiz-adv-x="472" />
<glyph unicode="&#x2006;" horiz-adv-x="315" />
<glyph unicode="&#x2007;" horiz-adv-x="315" />
<glyph unicode="&#x2008;" horiz-adv-x="236" />
<glyph unicode="&#x2009;" horiz-adv-x="378" />
<glyph unicode="&#x200a;" horiz-adv-x="105" />
<glyph unicode="&#x2010;" horiz-adv-x="659" d="M121 512v143h420v-143h-420z" />
<glyph unicode="&#x2011;" horiz-adv-x="659" d="M121 512v143h420v-143h-420z" />
<glyph unicode="&#x2012;" horiz-adv-x="659" d="M121 512v143h420v-143h-420z" />
<glyph unicode="&#x2013;" horiz-adv-x="841" d="M119 512v143h602v-143h-602z" />
<glyph unicode="&#x2014;" horiz-adv-x="989" d="M119 512v143h751v-143h-751z" />
<glyph unicode="&#x2018;" horiz-adv-x="395" d="M98 1212l140 254l51 -57l-84 -211h76v-246h-166z" />
<glyph unicode="&#x2019;" horiz-adv-x="382" d="M104 975l84 211h-75v246h166l16 -261l-139 -253z" />
<glyph unicode="&#x201a;" horiz-adv-x="411" d="M111 -211l84 211h-76v246h166l16 -260l-139 -254z" />
<glyph unicode="&#x201c;" horiz-adv-x="679" d="M98 1212l140 254l51 -57l-84 -211h76v-246h-166zM383 1212l139 254l51 -57l-84 -211h76v-246h-166z" />
<glyph unicode="&#x201d;" horiz-adv-x="667" d="M104 975l84 211h-75v246h166l16 -261l-139 -253zM389 975l84 211h-76v246h166l17 -261l-140 -253z" />
<glyph unicode="&#x201e;" horiz-adv-x="694" d="M111 -211l84 211h-76v246h166l16 -260l-139 -254zM393 -211l84 211h-76v246h166l17 -260l-140 -254z" />
<glyph unicode="&#x2020;" horiz-adv-x="856" d="M55 807v149l312 -18v496h120v-496l314 18v-149l-314 20v-1245h-120v1245z" />
<glyph unicode="&#x2021;" horiz-adv-x="923" d="M90 270v150l311 -19v426l-311 -20v149l311 -18v496h121v-496l314 18v-149l-314 20v-426l314 19v-150l-314 21v-709h-121v709z" />
<glyph unicode="&#x2022;" horiz-adv-x="811" d="M152 584q0 105 74.5 179.5t179.5 74.5q104 0 178.5 -75t74.5 -179t-74.5 -179t-178.5 -75q-105 0 -179.5 74.5t-74.5 179.5z" />
<glyph unicode="&#x2026;" horiz-adv-x="1030" d="M119 0v246h168v-246h-168zM432 0v246h168v-246h-168zM741 0v246h168v-246h-168z" />
<glyph unicode="&#x202f;" horiz-adv-x="378" />
<glyph unicode="&#x2030;" horiz-adv-x="2048" d="M76 1075q0 176 64.5 278.5t197.5 102.5t197.5 -102.5t64.5 -278.5q0 -177 -65 -282t-197 -105t-197 105t-65 282zM201 1075q0 -272 137 -272q135 0 135 272q0 266 -135 266q-137 0 -137 -266zM401 0l512 1434h127l-512 -1434h-127zM846 365q0 176 64.5 278t197.5 102 t197.5 -102t64.5 -278q0 -177 -65 -282.5t-197 -105.5t-197 105.5t-65 282.5zM971 365q0 -273 137 -273q135 0 135 273q0 266 -135 266q-137 0 -137 -266zM1450 362q0 176 64.5 278.5t197.5 102.5t197.5 -102.5t64.5 -278.5q0 -177 -65 -282t-197 -105t-197 105t-65 282z M1575 362q0 -272 137 -272q135 0 135 272q0 267 -135 267q-137 0 -137 -267z" />
<glyph unicode="&#x2039;" horiz-adv-x="589" d="M63 516v111l426 454v-196l-305 -314l305 -311v-197z" />
<glyph unicode="&#x203a;" horiz-adv-x="589" d="M100 63v197l306 313l-306 312v196l426 -452v-111z" />
<glyph unicode="&#x2044;" horiz-adv-x="247" d="M-170 0l467 1434h123l-465 -1434h-125z" />
<glyph unicode="&#x205f;" horiz-adv-x="472" />
<glyph unicode="&#x2070;" horiz-adv-x="657" d="M78 1219q0 444 250 444t250 -444q0 -445 -250 -445t-250 445zM197 1219q0 -169 30.5 -255.5t100.5 -86.5t100.5 86.5t30.5 255.5t-30.5 254.5t-100.5 85.5t-100.5 -85.5t-30.5 -254.5z" />
<glyph unicode="&#x2074;" horiz-adv-x="643" d="M53 971v94l283 584h156v-570h94v-108h-94v-183h-117v183h-322zM162 1079h213v439z" />
<glyph unicode="&#x2075;" horiz-adv-x="591" d="M61 868l56 95q1 -1 8.5 -7t11 -8.5t12.5 -9.5t14.5 -10.5t15.5 -10t17.5 -10t17.5 -8t19 -7t19 -4t20 -1.5q54 0 90.5 48.5t36.5 125.5q0 72 -32.5 122t-92.5 50q-56 0 -120 -51l-64 37l35 430h371v-109h-275l-8 -219q41 18 90 18q102 0 159.5 -80t57.5 -198 q0 -44 -8.5 -85.5t-27.5 -78t-45.5 -64t-65 -43.5t-84.5 -16q-117 0 -228 94z" />
<glyph unicode="&#x2076;" horiz-adv-x="616" d="M76 1139q-1 243 98.5 383.5t249.5 140.5q24 0 46.5 -3.5t33.5 -7.5l10 -3l-27 -105q-28 10 -61 10q-76 0 -139.5 -75t-83.5 -224q55 84 149 84q90 0 145.5 -77.5t55.5 -192.5q0 -126 -62.5 -210.5t-168.5 -84.5q-82 0 -139.5 53.5t-82 133.5t-24.5 178zM195 1130 q0 -111 33 -180t91 -69q57 0 87 55t30 129q0 72 -28 123t-84 51q-47 0 -81 -32t-48 -72v-5z" />
<glyph unicode="&#x2077;" horiz-adv-x="518" d="M51 1540v109h424v-99q-9 -15 -24 -43t-53.5 -113.5t-68 -171.5t-53.5 -206t-24 -228h-123q0 329 217 752h-295z" />
<glyph unicode="&#x2078;" horiz-adv-x="628" d="M68 1004q0 153 155 247q-117 89 -117 211q0 87 57 144t150 57q94 0 151.5 -56.5t57.5 -144.5q0 -126 -116 -211q69 -45 112 -102.5t43 -144.5q0 -106 -67 -168t-181 -62q-111 0 -178 62.5t-67 167.5zM186 1010q0 -61 36.5 -98.5t90.5 -37.5q57 0 93 37t36 99 q0 109 -127 188q-129 -78 -129 -188zM217 1452q0 -91 96 -149q99 59 99 149q0 46 -27.5 78.5t-71.5 32.5q-43 0 -69.5 -32.5t-26.5 -78.5z" />
<glyph unicode="&#x2079;" horiz-adv-x="616" d="M63 1368q0 125 63.5 210t170.5 85q80 0 137.5 -53.5t83 -134t25.5 -177.5q0 -243 -99.5 -383.5t-250.5 -140.5q-23 0 -45 3.5t-33 6.5l-11 4l27 105q26 -12 59 -12q78 0 142 76t84 227q-58 -88 -152 -88q-91 0 -146 78t-55 194zM180 1372q0 -71 29.5 -123.5t85.5 -52.5 q45 0 80 34t49 75v2q0 108 -34 177.5t-93 69.5q-56 0 -86.5 -54.5t-30.5 -127.5z" />
<glyph unicode="&#x207a;" horiz-adv-x="577" d="M63 1151v94h179v197h92v-197h180v-94h-180v-199h-92v199h-179z" />
<glyph unicode="&#x207d;" horiz-adv-x="362" d="M96 860v713q0 34 1 53t4.5 44t10.5 39t20 31.5t33 29.5t48 24.5t66 24.5l30 -78q-66 -31 -80 -55.5t-14 -94.5v-749q0 -71 14 -95.5t80 -56.5l-30 -78q-53 16 -87.5 35t-54 36.5t-28.5 48t-11 55.5t-2 73z" />
<glyph unicode="&#x207e;" horiz-adv-x="362" d="M53 690q66 31 80 55.5t14 94.5v749q0 71 -14 95.5t-80 56.5l31 78q53 -16 87.5 -35t53.5 -36.5t28 -48t11 -55t2 -73.5v-713q0 -34 -1 -53t-4 -44t-10.5 -39t-20 -31.5t-32.5 -29.5t-48 -24.5t-66 -24.5z" />
<glyph unicode="&#x207f;" horiz-adv-x="616" d="M94 788v646h115v-86q31 30 52 47t59 35t75 18q66 0 98.5 -48t32.5 -126v-486h-114v463q0 97 -62 97q-39 0 -77 -31t-64 -66v-463h-115z" />
<glyph unicode="&#x2080;" horiz-adv-x="657" d="M78 123q0 444 250 444t250 -444q0 -445 -250 -445t-250 445zM197 123q0 -169 30.5 -255.5t100.5 -86.5t100.5 86.5t30.5 255.5t-30.5 254.5t-100.5 85.5t-100.5 -85.5t-30.5 -254.5z" />
<glyph unicode="&#x2081;" horiz-adv-x="466" d="M35 434l162 119h110v-860h-117v733l-102 -74z" />
<glyph unicode="&#x2082;" horiz-adv-x="591" d="M63 -236q0 34 5.5 66.5t12 56t22.5 52.5l24 43.5t32 42t31 35t34.5 35.5t31.5 32q139 139 139 227q0 46 -28.5 74.5t-71.5 28.5q-62 0 -160 -68l-55 84q115 94 229 94q93 0 149 -58t56 -151q0 -50 -16 -97.5t-50 -93t-56.5 -70.5t-63.5 -66l-13 -13q-43 -44 -62.5 -68 t-35.5 -63t-16 -86h313v-108h-451v71z" />
<glyph unicode="&#x2083;" horiz-adv-x="598" d="M53 -236l60 91q90 -66 161 -66q57 0 94.5 41t37.5 107q0 58 -32.5 98t-73 54.5t-83.5 14.5h-18v109h22q60 0 109 38t49 105q0 46 -26.5 73.5t-71.5 27.5q-65 0 -146 -60l-53 80q113 90 219 90q92 0 143.5 -56t51.5 -136q0 -66 -33.5 -121.5t-95.5 -85.5q70 -24 113.5 -87 t43.5 -149q0 -104 -59.5 -179t-175.5 -75q-125 0 -236 86z" />
<glyph unicode="&#x2084;" horiz-adv-x="643" d="M53 -31l283 584h156v-569h94v-109h-94v-182h-117v182h-322v94zM162 -16h213v438z" />
<glyph unicode="&#x2085;" horiz-adv-x="591" d="M61 -227l56 94q1 -1 8.5 -7t11 -8.5t12.5 -9.5t14.5 -10.5t15.5 -10t17.5 -10t17.5 -8t19 -7t19 -4t20 -1.5q54 0 90.5 48.5t36.5 125.5q0 72 -32.5 122t-92.5 50q-56 0 -120 -51l-64 37l35 430h371v-109h-275l-8 -219q43 19 90 19q102 0 159.5 -80.5t57.5 -198.5 q0 -44 -8.5 -85.5t-27.5 -78t-45.5 -64t-65 -43.5t-84.5 -16q-116 0 -228 95z" />
<glyph unicode="&#x2086;" horiz-adv-x="616" d="M76 43q-1 243 98.5 383.5t249.5 140.5q24 0 46.5 -3.5t33.5 -7.5l10 -3l-27 -104q-28 10 -61 10q-76 0 -139.5 -75t-83.5 -224q55 84 149 84q90 0 145.5 -78t55.5 -193q0 -126 -62.5 -210.5t-168.5 -84.5q-82 0 -139.5 53.5t-82 133.5t-24.5 178zM195 35 q0 -111 33 -180.5t91 -69.5q57 0 87 55t30 129q0 72 -28 123t-84 51q-47 0 -81 -32t-48 -72v-4z" />
<glyph unicode="&#x2087;" horiz-adv-x="518" d="M51 444v109h424v-98q-9 -15 -24 -43t-53.5 -113.5t-68 -171.5t-53.5 -206t-24 -228h-123q0 328 217 751h-295z" />
<glyph unicode="&#x2088;" horiz-adv-x="628" d="M68 -92q0 154 155 248q-117 89 -117 211q0 87 57 143.5t150 56.5q94 0 151.5 -56.5t57.5 -143.5q0 -126 -116 -211q155 -101 155 -248q0 -106 -67 -168t-181 -62q-111 0 -178 62.5t-67 167.5zM186 -86q0 -61 36.5 -98t90.5 -37q57 0 93 36.5t36 98.5q0 109 -127 188 q-129 -78 -129 -188zM217 356q0 -91 96 -149q99 59 99 149q0 46 -27.5 78.5t-71.5 32.5q-43 0 -69.5 -32.5t-26.5 -78.5z" />
<glyph unicode="&#x2089;" horiz-adv-x="616" d="M63 272q0 125 63.5 210t170.5 85q80 0 137.5 -53t83 -133.5t25.5 -177.5q0 -243 -99.5 -384t-250.5 -141q-23 0 -45 4t-33 8l-11 3l27 104q26 -12 59 -12q78 0 142 76t84 227q-58 -88 -152 -88q-91 0 -146 78t-55 194zM180 276q0 -71 29.5 -123.5t85.5 -52.5q45 0 80 34 t49 75v2q0 109 -34 178.5t-93 69.5q-56 0 -86.5 -55t-30.5 -128z" />
<glyph unicode="&#x208a;" horiz-adv-x="577" d="M63 55v95h179v196h92v-196h180v-95h-180v-198h-92v198h-179z" />
<glyph unicode="&#x208d;" horiz-adv-x="362" d="M96 -236v713q0 34 1 53t4.5 44t10.5 39t20 31.5t33 29.5t48 24.5t66 24.5l30 -78q-66 -31 -80 -55t-14 -94v-750q0 -71 14 -95.5t80 -56.5l-30 -77q-44 14 -75 27.5t-51.5 31.5t-32 33.5t-17 43t-6.5 49.5t-1 62z" />
<glyph unicode="&#x208e;" horiz-adv-x="362" d="M51 -406q66 31 80 55.5t14 94.5v750q0 71 -14 94.5t-80 56.5l31 78q53 -16 87.5 -35t53.5 -36.5t28 -48t11 -55t2 -73.5v-713q0 -34 -1 -53t-4 -44t-10.5 -38.5t-20 -31t-32.5 -29.5t-48 -24.5t-66 -24.5z" />
<glyph unicode="&#x20a1;" horiz-adv-x="831" d="M100 719q0 136 26.5 244.5t72 176t103.5 103t124 35.5l18 -2l25 158h82l-29 -172l45 -19l31 191h80l-37 -234q24 -16 60 -44.5t40 -31.5l-75 -118l-50 41l-116 -732q19 7 39 18t39.5 25.5t32.5 25t31.5 26.5t23.5 20l75 -119q-47 -38 -72 -57.5t-83.5 -51t-110.5 -40.5 l-24 -162h-80l24 160q-32 5 -45 10l-26 -170h-82l32 211q-80 61 -127 190.5t-47 317.5zM258 719q0 -188 51 -299l111 706q-73 -19 -117.5 -127.5t-44.5 -279.5zM375 330q21 -15 45 -21l125 789q-26 15 -45 22z" />
<glyph unicode="&#x20a4;" horiz-adv-x="845" d="M109 0v125q4 5 12 14t29 39.5t39.5 63.5t39 82.5t31.5 99.5h-137v108h153v25q0 61 -12 113h-141v110h110q-9 26 -30.5 82.5t-32.5 89.5t-21 85.5t-10 101.5q0 149 76.5 233t206.5 84q50 0 99 -13t95 -38t75 -43.5t69 -48.5l-84 -115q-72 54 -125 80.5t-102 26.5 q-68 0 -108 -49t-40 -136q0 -53 14 -105.5t42 -124.5t40 -110h252v-110h-225q8 -66 8 -107q0 -21 -2 -31h219v-108h-231q-18 -84 -50 -157t-59 -115h434v-152h-634z" />
<glyph unicode="&#x20a7;" horiz-adv-x="1021" d="M127 946v94h41v394h319q416 0 435 -394h36v-94h-36q-12 -205 -123 -297t-312 -92h-157v-557h-162v946h-41zM330 707h164q241 0 262 239h-426v-239zM330 1040h426q-22 242 -262 242h-164v-242z" />
<glyph unicode="&#x20a9;" horiz-adv-x="1503" d="M100 487v117h174l-45 238h-129v116h107l-90 476h180l76 -476h225l84 476h137l82 -476h227l78 476h180l-92 -476h107v-116h-129l-45 -238h174v-117h-197l-92 -487h-164l-198 1124l-197 -1124h-164l-92 487h-197zM391 842l39 -238h107l41 238h-187zM449 487l32 -200l35 200 h-67zM922 842l41 -238h108l39 238h-188zM983 487l35 -200l33 200h-68z" />
<glyph unicode="&#x20ac;" horiz-adv-x="1050" d="M86 489v109h84q-2 37 -2 119q0 71 2 106h-84v109h92q31 261 134 392.5t251 131.5q54 0 106.5 -15.5t107 -49.5t90 -60.5t94.5 -75.5l-87 -120q-4 3 -28.5 23.5t-31.5 25.5t-30 23t-33.5 24.5t-31 20t-34 19t-32 13t-35 10t-32.5 2.5q-89 0 -151 -94.5t-87 -269.5h369 v-109h-379q-2 -35 -2 -106q0 -45 4 -119h377v-109h-367q25 -168 86.5 -260t149.5 -92q21 0 42 4.5t45.5 16.5t41 20.5t44.5 29t39 29t42 33t37 29.5l84 -121q-59 -49 -94.5 -75.5t-90 -60.5t-107 -49.5t-106.5 -15.5q-146 0 -248.5 127.5t-134.5 384.5h-94z" />
<glyph unicode="&#x2116;" horiz-adv-x="1695" d="M164 0v1434h166l465 -1123v1123h159v-1434h-163l-465 1122v-1122h-162zM1047 1004q0 200 71 305.5t207 105.5q137 0 208 -105.5t71 -305.5q0 -202 -70.5 -307t-208.5 -105q-136 0 -207 105.5t-71 306.5zM1098 367v110h452v-110h-452zM1188 1004q0 -146 32 -217.5 t105 -71.5t106 72t33 217q0 143 -33 214.5t-106 71.5t-105 -71t-32 -215z" />
<glyph unicode="&#x2117;" horiz-adv-x="1658" d="M98 717q0 156 49 290.5t140 234.5t230.5 157t311.5 57t311.5 -57t230 -157t139.5 -234.5t49 -290.5t-49 -290.5t-139.5 -234.5t-230 -157.5t-311.5 -57.5t-311.5 57.5t-230.5 157.5t-140 234.5t-49 290.5zM176 717q0 -190 74 -339t223.5 -238t353.5 -89q155 0 280 51 t206.5 141t125.5 211.5t44 262.5t-44 262t-125.5 211t-206.5 141t-280 51q-154 0 -278.5 -51t-205 -141t-124 -211t-43.5 -262zM604 285v862h287q299 0 299 -262q0 -264 -299 -264h-186v-336h-101zM705 707h188q199 0 199 178t-199 178h-188v-356z" />
<glyph unicode="&#x2120;" horiz-adv-x="983" d="M109 1022l36 61q68 -45 127 -45q29 0 48.5 13t19.5 39q0 8 -2.5 14.5t-5 12t-9.5 11.5t-11.5 9.5t-16 10t-17.5 9.5t-20.5 10t-21.5 11q-119 52 -119 139q0 56 39 90.5t102 34.5q72 0 152 -43l-35 -60q-68 31 -109 31q-27 0 -46 -12t-19 -37q0 -8 2 -15t7.5 -13t11 -10.5 t16 -10.5t17.5 -9.5t22 -10.5t24 -11q26 -12 44 -22.5t38.5 -28t31.5 -42t11 -54.5q0 -58 -41.5 -92.5t-105.5 -34.5q-45 0 -92.5 16.5t-77.5 38.5zM473 975v459h86l107 -275l106 275h84v-459h-78v305l-90 -229h-45l-88 219v-295h-82z" />
<glyph unicode="&#x2122;" horiz-adv-x="987" d="M121 1356v78h301v-78h-113v-381h-78v381h-110zM473 975v459h84l107 -279l108 279h84v-459h-80v303l-90 -227h-45l-88 219v-295h-80z" />
<glyph unicode="&#x2126;" horiz-adv-x="1114" d="M109 733q0 124 14 229t47 197.5t84 157t128 102t175 37.5q122 0 211 -56t140 -157t74.5 -227.5t23.5 -282.5q0 -122 -19.5 -226.5t-51 -173.5t-65 -113.5t-67.5 -67.5h174v-152h-354v150q217 114 217 569q0 107 -8.5 194t-29 161t-53 123.5t-81 77.5t-111.5 28t-112 -28 t-81 -77.5t-52.5 -123.5t-29 -160t-8.5 -193q0 -453 218 -571v-150h-355v152h172q-33 25 -65.5 69t-64 113t-51 173t-19.5 226z" />
<glyph unicode="&#x2153;" horiz-adv-x="1249" d="M53 1315l162 119h111v-861h-117v734l-103 -74zM258 0l467 1434h123l-465 -1434h-125zM696 72l60 90q90 -66 162 -66q57 0 94 41t37 107q0 44 -18.5 78.5t-48 53t-60.5 27.5t-62 9h-18v108h22q60 0 109 38.5t49 105.5q0 46 -26 73t-72 27q-66 0 -146 -59l-53 79 q113 90 219 90q92 0 143.5 -56t51.5 -136q0 -66 -33.5 -121.5t-95.5 -85.5q70 -24 113.5 -87t43.5 -148q0 -104 -59.5 -179t-175.5 -75q-125 0 -236 86z" />
<glyph unicode="&#x2154;" horiz-adv-x="1435" d="M88 573v72q0 34 5.5 66.5t12 56t22.5 52.5l24 43.5t32 42t31 35t34.5 35.5t31.5 32q139 139 139 227q0 46 -28.5 74t-72.5 28q-63 0 -159 -67l-56 84q115 94 230 94q93 0 149 -58t56 -151q0 -50 -16 -97.5t-50 -93t-56.5 -70.5t-63.5 -66l-13 -13q-44 -45 -63 -68.5 t-35.5 -62.5t-16.5 -86h314v-109h-451zM446 0l467 1434h123l-465 -1434h-125zM887 72l59 90q90 -66 162 -66q57 0 94 41t37 107q0 44 -18.5 78.5t-47.5 53t-60 27.5t-62 9h-19v108h23q60 0 108.5 38.5t48.5 105.5q0 46 -26 73t-72 27q-65 0 -145 -59l-54 79q113 90 220 90 q92 0 143 -56t51 -136q0 -66 -33.5 -121.5t-95.5 -85.5q70 -24 114 -87t44 -148q0 -104 -60 -179t-176 -75q-124 0 -235 86z" />
<glyph unicode="&#x2155;" horiz-adv-x="1261" d="M53 1315l162 119h111v-861h-117v734l-103 -74zM258 0l467 1434h123l-465 -1434h-125zM709 80l55 94q95 -76 156 -76q54 0 90.5 48.5t36.5 125.5q0 72 -32.5 122t-92.5 50q-57 0 -121 -51l-64 37l35 430h371v-108h-275l-8 -220q43 19 90 19q102 0 159.5 -80.5t57.5 -198.5 q0 -76 -24 -139t-78 -105t-129 -42q-116 0 -227 94z" />
<glyph unicode="&#x2156;" horiz-adv-x="1445" d="M86 573v72q0 34 5.5 66.5t12 56t22.5 52.5l24 43.5t32 42t31 35t34.5 35.5t31.5 32q139 139 139 227q0 46 -28.5 74t-72.5 28q-63 0 -159 -67l-56 84q115 94 230 94q93 0 149 -58t56 -151q0 -50 -16 -97.5t-50 -93t-56.5 -70.5t-63.5 -66l-13 -13q-44 -45 -63 -68.5 t-35.5 -62.5t-16.5 -86h314v-109h-451zM446 0l467 1434h123l-465 -1434h-125zM899 80l55 94q95 -76 156 -76q54 0 90.5 48.5t36.5 125.5q0 72 -32.5 122t-92.5 50q-57 0 -121 -51l-63 37l35 430h370v-108h-274l-8 -220q43 19 90 19q102 0 159.5 -80.5t57.5 -198.5 q0 -76 -24 -139t-78.5 -105t-129.5 -42q-116 0 -227 94z" />
<glyph unicode="&#x2157;" horiz-adv-x="1415" d="M78 645l59 90q89 -65 162 -65q57 0 94 40.5t37 106.5q0 44 -18.5 78.5t-47.5 53t-60 27.5t-62 9h-19v109h23q60 0 108.5 38t48.5 105q0 46 -26 73t-72 27q-65 0 -145 -59l-54 80q112 90 220 90q92 0 143 -56.5t51 -136.5q0 -66 -33.5 -121t-95.5 -85q70 -24 114 -87.5 t44 -148.5q0 -104 -60 -179t-176 -75q-124 0 -235 86zM414 0l467 1434h123l-465 -1434h-125zM864 80l56 94q1 -1 8.5 -7t11 -8.5t12.5 -9.5t14.5 -10.5t15.5 -10t17.5 -10t17.5 -8t19 -7t19 -4t20 -1.5q54 0 90.5 48.5t36.5 125.5q0 72 -32.5 122t-92.5 50q-57 0 -121 -51 l-63 37l35 430h370v-108h-274l-8 -220q43 19 90 19q102 0 159.5 -80.5t57.5 -198.5q0 -76 -24 -139t-78 -105t-129 -42q-117 0 -228 94z" />
<glyph unicode="&#x2158;" horiz-adv-x="1460" d="M63 756v94l283 584h156v-570h94v-108h-94v-183h-117v183h-322zM172 864h213v439zM457 0l467 1434h123l-465 -1434h-125zM909 80l56 94q1 -1 8.5 -7t11 -8.5t12.5 -9.5t14.5 -10.5t15.5 -10t17.5 -10t17.5 -8t19 -7t19 -4t20 -1.5q54 0 90.5 48.5t36.5 125.5 q0 72 -32.5 122t-92.5 50q-57 0 -121 -51l-63 37l35 430h370v-108h-274l-8 -220q43 19 90 19q102 0 159.5 -80.5t57.5 -198.5q0 -76 -24 -139t-78 -105t-129 -42q-117 0 -228 94z" />
<glyph unicode="&#x2159;" horiz-adv-x="1226" d="M53 1315l162 119h111v-861h-117v734l-103 -74zM258 0l467 1434h123l-465 -1434h-125zM664 350q-1 243 98.5 383.5t249.5 140.5q24 0 46.5 -3.5t33.5 -6.5l10 -4l-27 -104q-28 10 -61 10q-76 0 -139.5 -75t-83.5 -224q55 84 149 84q90 0 145.5 -77.5t55.5 -192.5 q0 -126 -63 -210.5t-169 -84.5q-62 0 -110.5 30.5t-77 82.5t-43 115.5t-14.5 135.5zM782 342q0 -110 33 -180t92 -70q57 0 87 55t30 129q0 72 -28.5 123.5t-84.5 51.5q-46 0 -80.5 -32.5t-48.5 -72.5v-4z" />
<glyph unicode="&#x215a;" horiz-adv-x="1353" d="M80 653l55 95q95 -76 156 -76q54 0 90.5 48.5t36.5 125.5q0 72 -32.5 122t-92.5 50q-57 0 -121 -51l-63 37l34 430h371v-109h-274l-9 -219q40 18 91 18q102 0 159.5 -80t57.5 -198q0 -76 -24 -139t-78.5 -105.5t-129.5 -42.5q-116 0 -227 94zM387 0l467 1434h123 l-465 -1434h-125zM795 350q-1 243 98.5 383.5t249.5 140.5q24 0 46.5 -3.5t32.5 -6.5l11 -4l-27 -104q-28 10 -61 10q-76 0 -139.5 -75t-83.5 -224q55 84 149 84q90 0 145.5 -77.5t55.5 -192.5q0 -126 -63 -210.5t-169 -84.5q-62 0 -110.5 30.5t-77 82.5t-43 115.5 t-14.5 135.5zM913 342q0 -110 33 -180t92 -70q57 0 87 55t30 129q0 72 -28.5 123.5t-84.5 51.5q-46 0 -80.5 -32.5t-48.5 -72.5v-4z" />
<glyph unicode="&#x215b;" horiz-adv-x="1257" d="M53 1315l162 119h111v-861h-117v734l-103 -74zM258 0l467 1434h123l-465 -1434h-125zM688 215q0 153 156 248q-117 89 -117 211q0 87 57 143.5t150 56.5q94 0 151.5 -56.5t57.5 -143.5q0 -126 -117 -211q69 -45 112.5 -103t43.5 -145q0 -106 -67 -167.5t-181 -61.5 q-111 0 -178.5 62t-67.5 167zM807 221q0 -61 36.5 -98t90.5 -37q57 0 93 36.5t36 98.5q0 110 -127 189q-129 -78 -129 -189zM838 664q0 -92 96 -150q98 59 98 150q0 46 -27 78t-71 32q-43 0 -69.5 -32t-26.5 -78z" />
<glyph unicode="&#x215c;" horiz-adv-x="1411" d="M78 645l59 90q89 -65 162 -65q57 0 94 40.5t37 106.5q0 44 -18.5 78.5t-47.5 53t-60 27.5t-62 9h-19v109h23q60 0 108.5 38t48.5 105q0 46 -26 73t-72 27q-65 0 -145 -59l-54 80q112 90 220 90q92 0 143 -56.5t51 -136.5q0 -66 -33.5 -121t-95.5 -85q70 -24 114 -87.5 t44 -148.5q0 -104 -60 -179t-176 -75q-124 0 -235 86zM414 0l467 1434h123l-465 -1434h-125zM844 215q0 154 155 248q-116 88 -116 211q0 87 57 143.5t150 56.5q94 0 151 -56t57 -144q0 -126 -116 -211q155 -101 155 -248q0 -106 -66.5 -167.5t-180.5 -61.5 q-111 0 -178.5 62t-67.5 167zM963 221q0 -61 36.5 -98t90.5 -37q57 0 93 36.5t36 98.5q0 110 -127 189q-129 -78 -129 -189zM993 664q0 -92 97 -150q98 59 98 150q0 46 -27 78t-71 32q-43 0 -70 -32t-27 -78z" />
<glyph unicode="&#x215d;" horiz-adv-x="1386" d="M80 653l55 95q95 -76 156 -76q54 0 90.5 48.5t36.5 125.5q0 72 -32.5 122t-92.5 50q-57 0 -121 -51l-63 37l34 430h371v-109h-274l-9 -219q40 18 91 18q102 0 159.5 -80t57.5 -198q0 -76 -24 -139t-78.5 -105.5t-129.5 -42.5q-116 0 -227 94zM387 0l467 1434h123 l-465 -1434h-125zM817 215q0 153 156 248q-117 89 -117 211q0 87 57 143.5t150 56.5q94 0 151.5 -56.5t57.5 -143.5q0 -126 -117 -211q69 -45 112.5 -103t43.5 -145q0 -106 -67 -167.5t-181 -61.5q-111 0 -178.5 62t-67.5 167zM936 221q0 -61 36.5 -98t90.5 -37 q57 0 93 36.5t36 98.5q0 110 -127 189q-129 -78 -129 -189zM967 664q0 -92 96 -150q98 59 98 150q0 46 -27 78t-71 32q-43 0 -69.5 -32t-26.5 -78z" />
<glyph unicode="&#x215e;" horiz-adv-x="1253" d="M63 1325v109h424v-99q-9 -15 -24 -43t-53.5 -113.5t-68 -171.5t-53.5 -206t-24 -228h-123q0 329 217 752h-295zM256 0l467 1434h123l-465 -1434h-125zM686 215q0 153 156 248q-117 89 -117 211q0 87 57 143.5t150 56.5q94 0 151.5 -56.5t57.5 -143.5q0 -126 -117 -211 q69 -45 112.5 -103t43.5 -145q0 -106 -67 -167.5t-181 -61.5q-111 0 -178.5 62t-67.5 167zM805 221q0 -61 36.5 -98t90.5 -37q57 0 93 36.5t36 98.5q0 110 -127 189q-129 -78 -129 -189zM836 664q0 -92 96 -150q98 59 98 150q0 46 -27 78t-71 32q-43 0 -69.5 -32t-26.5 -78z " />
<glyph unicode="&#x2202;" horiz-adv-x="927" d="M88 475q0 225 91 362.5t237 137.5q47 0 88.5 -15t65.5 -32.5t45.5 -43.5t27.5 -36t12 -23q-11 66 -31 130.5t-52 126.5t-71.5 108.5t-93 75t-112.5 28.5q-28 0 -56 -4.5t-41 -9.5l-14 -4l-22 133q53 25 137 25q161 0 281 -110.5t182.5 -304t62.5 -441.5 q0 -132 -18.5 -235t-51 -171t-79.5 -112.5t-101.5 -63.5t-119.5 -19q-169 0 -268 135.5t-99 362.5zM250 475q0 -166 52.5 -263t156.5 -97q103 0 157 95.5t54 266.5q0 170 -53 265.5t-158 95.5q-104 0 -156.5 -99t-52.5 -264z" />
<glyph unicode="&#x2206;" horiz-adv-x="1009" d="M41 0l377 1434h174l377 -1434h-928zM236 152h536l-266 1087z" />
<glyph unicode="&#x220f;" horiz-adv-x="1036" d="M63 1282v152h910v-152h-146v-1282h-157v1282h-303v-1282h-158v1282h-146z" />
<glyph unicode="&#x2211;" horiz-adv-x="849" d="M86 0v121l387 596l-387 596v121h668v-152h-463l368 -565l-368 -565h463v-152h-668z" />
<glyph unicode="&#x2212;" d="M92 614v136h713v-136h-713z" />
<glyph unicode="&#x221a;" horiz-adv-x="890" d="M47 696h168l152 -471l333 1209h166l-415 -1434h-154z" />
<glyph unicode="&#x221e;" horiz-adv-x="1341" d="M104 528q0 140 74.5 234t194.5 94q79 0 147 -57t152 -174q28 38 37.5 50.5t35.5 45t40 45.5t39.5 35t46 31t48 16.5t56.5 7.5q114 0 188 -94t74 -234q0 -139 -74 -233t-192 -94q-85 0 -150 54t-149 175q-86 -120 -153 -174.5t-152 -54.5q-115 0 -189 94t-74 233zM227 528 q0 -76 42.5 -138t109.5 -62q19 0 36.5 5t35 18t30 23.5t31 33.5t28.5 36t31.5 44t30.5 44q-73 106 -120 151.5t-101 45.5q-69 0 -111.5 -62.5t-42.5 -138.5zM739 528q32 -46 47.5 -67t41.5 -52.5t44 -45t42 -24.5t49 -11q67 0 110 62.5t43 137.5q0 76 -43.5 138.5 t-111.5 62.5q-55 0 -101.5 -46t-120.5 -155z" />
<glyph unicode="&#x222b;" horiz-adv-x="606" d="M47 -180h31q24 0 43 5.5t33.5 13t25.5 24t18 29.5t12 39.5t7.5 44t4 52.5t1.5 55v62v1164q0 229 68.5 319t247.5 90h20v-112h-31q-26 0 -47 -5.5t-36 -19t-25.5 -27.5t-17.5 -40.5t-11 -46.5t-5.5 -57t-2 -62t-0.5 -70v-1161q0 -229 -68 -319.5t-247 -90.5h-21v113z" />
<glyph unicode="&#x2248;" horiz-adv-x="899" d="M92 426q71 217 209 217q41 0 85 -21.5t75.5 -47t71 -47t73.5 -21.5q33 0 60 25t55 100l84 -43q-66 -217 -205 -217q-43 0 -88 21.5t-76.5 48t-71 48t-73.5 21.5q-31 0 -58 -25.5t-55 -99.5zM92 795q72 217 209 217q41 0 85 -22t75.5 -48t71 -48t73.5 -22q33 0 60 25 t55 100l84 -41q-33 -110 -85.5 -163.5t-119.5 -53.5q-42 0 -86.5 22t-76.5 48t-72 48t-74 22q-31 0 -58 -26t-55 -101z" />
<glyph unicode="&#x2260;" d="M92 432v135h264l68 234h-332v135h371l96 328l105 -37l-86 -291h227v-135h-266l-68 -234h334v-135h-375l-94 -326l-103 39l84 287h-225z" />
<glyph unicode="&#x2264;" d="M88 0v123h713v-123h-713zM88 600v119l713 414v-164l-570 -310l570 -311v-162z" />
<glyph unicode="&#x2265;" d="M100 0v123h713v-123h-713zM100 186v162l570 311l-570 310v164l713 -414v-119z" />
<glyph unicode="&#x2318;" horiz-adv-x="1404" d="M111 350q0 111 79 189.5t191 78.5h149v201h-149q-112 0 -191 78.5t-79 189.5q0 112 78.5 190.5t191.5 78.5q111 0 189.5 -78.5t78.5 -190.5v-149h109v149q0 113 78 191t190 78t190 -78t78 -191q0 -111 -78 -189.5t-190 -78.5h-149v-201h149q112 0 190 -78.5t78 -189.5 q0 -112 -78 -190t-190 -78t-190 78t-78 190v150h-109v-150q0 -112 -78.5 -190t-189.5 -78q-113 0 -191.5 78t-78.5 190zM229 350q0 -63 44.5 -106t107.5 -43q62 0 105.5 43t43.5 106v150h-149q-63 0 -107.5 -44t-44.5 -106zM229 1087q0 -62 44.5 -105.5t107.5 -43.5h149v149 q0 63 -43.5 106.5t-105.5 43.5q-63 0 -107.5 -43.5t-44.5 -106.5zM649 618h109v201h-109v-201zM877 350q0 -63 43.5 -106t105.5 -43t106 43t44 106q0 62 -44 106t-106 44h-149v-150zM877 938h149q62 0 106 44t44 105q0 63 -44 106.5t-106 43.5t-105.5 -43.5t-43.5 -106.5 v-149z" />
<glyph unicode="&#x25ca;" horiz-adv-x="854" d="M78 717l264 717h170l266 -717l-266 -717h-170zM229 717l199 -539l199 539l-199 538z" />
<glyph unicode="&#xe000;" horiz-adv-x="1075" d="M0 0v1075h1075v-1075h-1075z" />
<glyph unicode="&#xf639;" horiz-adv-x="917" d="M70 717q0 739 387 739q389 0 389 -739q0 -740 -389 -740q-387 0 -387 740zM233 717q0 -143 12 -250t37.5 -186t69.5 -119.5t105 -40.5q82 0 133 73.5t71.5 201.5t20.5 321q0 192 -20.5 320t-71.5 202t-133 74q-61 0 -105 -40.5t-69.5 -119.5t-37.5 -186t-12 -250z" />
<glyph unicode="&#xf63a;" horiz-adv-x="919" d="M100 0v113q0 57 8.5 111t20 95t35 86t40 72.5t50 68t50 58.5t55.5 58t51 53q221 235 221 403q0 85 -48.5 136t-125.5 51q-103 0 -250 -111l-80 117q174 145 348 145q143 0 231.5 -92t88.5 -242q0 -49 -11.5 -99t-24 -87.5t-43.5 -88.5t-46.5 -75.5t-59 -75.5t-54.5 -63 t-57 -62q-4 -4 -6 -6.5t-5 -5.5t-5.5 -6t-5.5 -6q-53 -57 -82 -92.5t-57 -83.5t-39.5 -100t-11.5 -119h510v-152h-697z" />
<glyph unicode="&#xf63b;" horiz-adv-x="917" d="M78 111l82 122q138 -102 256 -102q98 0 161.5 73.5t63.5 196.5q0 64 -20.5 116.5t-52.5 87t-73.5 58t-83 34t-81.5 10.5h-27v151h35q99 0 180.5 71.5t81.5 188.5q0 87 -46 137t-126 50q-108 0 -229 -97l-76 109q156 139 334 139q143 0 224 -91t81 -224q0 -106 -56 -201 t-161 -147q116 -39 188 -146t72 -254q0 -79 -22.5 -151.5t-65.5 -132.5t-116 -96t-165 -36q-110 0 -206 43t-152 91z" />
<glyph unicode="&#xf63c;" horiz-adv-x="919" d="M47 317v132l461 985h205v-967h145v-150h-145v-317h-162v317h-504zM193 467h358v766z" />
<glyph unicode="&#xf63d;" horiz-adv-x="919" d="M96 125l78 129q147 -123 246 -123q92 0 156.5 89.5t64.5 230.5q0 132 -57 221.5t-158 89.5q-88 0 -197 -90l-88 49l54 713h573v-152h-438l-19 -408q69 37 154 37q106 0 185 -64t118 -167t39 -229q0 -93 -23 -176.5t-67 -151t-115 -107t-160 -39.5q-176 0 -346 148z" />
<glyph unicode="&#xf63e;" horiz-adv-x="919" d="M96 582q-1 166 27.5 308t78.5 245t118 176t148.5 109t168.5 36q36 0 71 -5.5t52 -10.5l16 -6l-39 -144q-43 17 -96 17q-49 0 -95.5 -19.5t-91.5 -62.5t-81.5 -106t-63.5 -155.5t-39 -205.5q16 26 36 50t50.5 50t73 41.5t90.5 15.5q146 0 233 -129.5t87 -322.5 q0 -133 -42 -242.5t-126 -176.5t-195 -67q-95 0 -169.5 51t-119.5 137t-68 192t-24 225zM260 571q0 -125 24 -223.5t74.5 -159.5t120.5 -61q64 0 110.5 50t67.5 123.5t21 158.5q0 82 -19 151t-64.5 117.5t-111.5 48.5q-80 0 -139.5 -61.5t-83.5 -136.5v-7z" />
<glyph unicode="&#xf63f;" horiz-adv-x="917" d="M135 1282v152h660v-134q-8 -13 -20.5 -37.5t-50 -103.5t-71.5 -162t-75.5 -206t-71 -243t-50 -266t-20.5 -282h-170q0 170 34.5 361.5t80 337t101.5 286t86.5 203t47.5 94.5h-481z" />
<glyph unicode="&#xf640;" horiz-adv-x="917" d="M74 350q0 256 256 422q-195 141 -195 356q0 143 90 235.5t232 92.5t231.5 -92.5t89.5 -235.5q0 -216 -194 -356q254 -165 254 -422q0 -171 -105 -272t-276 -101q-172 0 -277.5 101t-105.5 272zM238 358q0 -112 61.5 -175.5t157.5 -63.5t157.5 63.5t61.5 175.5 q0 60 -18 112t-51 92.5t-68 70.5t-82 59q-47 -29 -82 -59t-68 -70.5t-51 -92.5t-18 -112zM289 1114q0 -164 166 -268q170 103 170 268q0 84 -47 143.5t-121 59.5t-121 -59.5t-47 -143.5z" />
<glyph unicode="&#xf641;" horiz-adv-x="919" d="M78 969q0 134 42.5 244t126 176.5t193.5 66.5q95 0 169.5 -50.5t119.5 -136.5t68.5 -192.5t23.5 -224.5q1 -207 -42 -375.5t-117.5 -276.5t-172 -165.5t-208.5 -57.5q-36 0 -70.5 5.5t-50.5 11.5l-17 6l37 143q43 -16 96 -16q61 0 119 32t109.5 95.5t89 171t53.5 246.5 q-98 -156 -250 -156q-97 0 -171 62.5t-111 164.5t-37 226zM240 975q0 -82 19 -151.5t64.5 -118t110.5 -48.5q79 0 139 61t84 136v8q0 192 -57 318.5t-160 126.5q-65 0 -112 -50.5t-67.5 -124t-20.5 -157.5z" />
<glyph unicode="&#xf6c3;" horiz-adv-x="147" d="M2 -504l66 176h-60v199h131l15 -207l-111 -213z" />
<glyph unicode="&#xf6dc;" horiz-adv-x="919" d="M113 0v152h286v1103l-213 -163l-73 114l299 228h149v-1282h289v-152h-737z" />
<glyph unicode="&#xf6df;" horiz-adv-x="550" d="M74 125q0 154 53 239t135 93v96h84v-104q51 -16 137 -80l-51 -88q-71 50 -86 57v-432q15 7 31 18t33 24t22 17l51 -88q-82 -61 -137 -80v-104h-84v94q-82 10 -135 96.5t-53 241.5zM188 125q0 -178 74 -221v436q-74 -43 -74 -215z" />
<glyph unicode="&#xf6e0;" horiz-adv-x="550" d="M74 1221q0 153 53 238t135 93v97h84v-105q51 -16 137 -80l-51 -88l-22 16.5t-33.5 24t-30.5 17.5v-433q15 7 31 18.5t32.5 24.5t22.5 17l51 -88q-82 -61 -137 -80v-105h-84v95q-82 10 -135 96.5t-53 241.5zM188 1221q0 -179 74 -222v437q-74 -43 -74 -215z" />
<glyph unicode="&#xf6e1;" horiz-adv-x="299" d="M84 -436l57 129h-53v166h119l10 -178l-98 -160z" />
<glyph unicode="&#xf6e2;" horiz-adv-x="301" d="M84 659l57 129h-53v166h119l10 -178l-98 -160z" />
<glyph unicode="&#xf6e3;" horiz-adv-x="612" d="M59 -219l60 92q80 -58 147 -76v293l-18 12q-83 54 -128.5 110.5t-45.5 139.5q0 91 51.5 147.5t140.5 65.5v113h82v-115q88 -16 182 -71l-57 -95q-66 39 -125 54v-273l17 -10q39 -25 66 -47t58 -56t47.5 -76t16.5 -91q0 -91 -56.5 -150t-148.5 -67v-111h-82v115 q-110 19 -207 96zM197 350q0 -58 69 -114v215q-69 -25 -69 -101zM348 33v-240q36 10 58 37.5t22 71.5q0 68 -80 131z" />
<glyph unicode="&#xf6e4;" horiz-adv-x="610" d="M59 877l60 92q84 -61 147 -78v295l-18 12q-83 54 -128.5 110.5t-45.5 139.5q0 91 51.5 147.5t140.5 65.5v113h82v-115q86 -15 182 -72l-57 -94q-63 37 -125 53v-272l17 -10q39 -25 66 -47.5t58 -56t47.5 -76t16.5 -91.5q0 -92 -57 -151.5t-148 -67.5v-108h-82v112 q-111 19 -207 99zM197 1446q0 -59 69 -115v215q-69 -25 -69 -100zM348 889q35 8 57.5 36t22.5 72q0 65 -80 131v-239z" />
<glyph unicode="&#xf6e7;" horiz-adv-x="296" d="M88 -141h121v-166h-121v166z" />
<glyph unicode="&#xf6e8;" horiz-adv-x="296" d="M88 788v166h121v-166h-121z" />
<glyph unicode="&#xf6e9;" horiz-adv-x="581" d="M55 981q0 104 47.5 158.5t122.5 54.5q44 0 152 -35v80q0 57 -19 84t-65 27q-8 0 -16 -0.5t-17.5 -3t-16 -3.5t-18 -5t-17 -6t-19.5 -8t-18.5 -7.5t-22 -9t-21.5 -9.5l-41 88q137 62 229 62q177 0 177 -201v-459h-115v82q-83 -96 -164 -96q-69 0 -113.5 53t-44.5 154z M170 989q0 -57 22 -84.5t58 -27.5q65 0 127 84v131q-69 24 -111 24q-50 0 -73 -35t-23 -92z" />
<glyph unicode="&#xf6ea;" horiz-adv-x="608" d="M94 788v895h115v-329q77 94 156 94q81 0 129.5 -84t48.5 -254q0 -168 -48.5 -252t-129.5 -84q-80 0 -156 92v-78h-115zM209 971q57 -92 121 -92q96 0 96 231q0 233 -96 233q-62 0 -121 -94v-278z" />
<glyph unicode="&#xf6eb;" horiz-adv-x="608" d="M63 1110q0 170 49.5 254t131.5 84q32 0 62.5 -16t49 -33.5t43.5 -46.5v331h113v-895h-113v82q-37 -44 -73 -70t-82 -26q-82 0 -131.5 84t-49.5 252zM180 1110q0 -231 96 -231q65 0 123 96v272q-58 96 -123 96q-96 0 -96 -233z" />
<glyph unicode="&#xf6ec;" horiz-adv-x="569" d="M66 1110q0 161 60.5 249.5t164.5 88.5q101 0 156 -78.5t55 -204.5q0 -22 -1.5 -43t-2.5 -31l-2 -10h-314q10 -209 113 -209q24 0 55.5 14.5t49 26t53.5 37.5l51 -73q-123 -103 -223 -103q-94 0 -154.5 87t-60.5 249zM182 1155h213q0 199 -100 199q-103 0 -113 -199z" />
<glyph unicode="&#xf6ed;" horiz-adv-x="303" d="M92 1550v131h121v-131h-121zM96 788v646h113v-646h-113z" />
<glyph unicode="&#xf6ee;" horiz-adv-x="301" d="M94 788v895h113v-895h-113z" />
<glyph unicode="&#xf6ef;" horiz-adv-x="890" d="M96 788v646h113v-95q81 109 168 109q52 0 81 -34t40 -83q84 117 174 117q64 0 95.5 -48.5t31.5 -125.5v-486h-113v457q0 103 -59 103q-33 0 -66 -31.5t-57 -73.5v-455h-113v457q0 103 -59 103q-35 0 -67.5 -31.5t-55.5 -73.5v-455h-113z" />
<glyph unicode="&#xf6f0;" horiz-adv-x="593" d="M63 1110q0 160 59.5 249t172.5 89q115 0 175 -89t60 -249q0 -159 -60 -247.5t-175 -88.5q-113 0 -172.5 88.5t-59.5 247.5zM178 1110q0 -236 117 -236q119 0 119 236q0 238 -119 238q-117 0 -117 -238z" />
<glyph unicode="&#xf6f1;" horiz-adv-x="419" d="M94 788v646h115v-138q4 13 9.5 26.5t20.5 38.5t32.5 42.5t46.5 29.5t63 9v-119q-44 0 -78 -21t-51 -51.5t-27.5 -60.5t-12.5 -51l-3 -21v-330h-115z" />
<glyph unicode="&#xf6f2;" horiz-adv-x="522" d="M57 854l47 84q35 -27 83 -48.5t85 -21.5q33 0 55.5 21t22.5 59q0 24 -9.5 43t-29 34t-36 24t-44.5 22q-34 16 -57.5 29.5t-51 37.5t-42 57t-14.5 75q0 78 48.5 128t129.5 50q101 0 200 -68l-47 -77q-78 51 -139 51q-35 0 -57.5 -20t-22.5 -56q0 -23 9 -40.5t27.5 -31 t31 -20.5t36.5 -17q6 -3 9 -4q86 -40 131 -90.5t45 -122.5q0 -81 -51 -129.5t-133 -48.5q-59 0 -120.5 24.5t-105.5 55.5z" />
<glyph unicode="&#xf6f3;" horiz-adv-x="417" d="M45 1339v95h61v155l115 31v-186h125v-95h-125v-389q0 -65 37 -65q31 0 78 28l41 -92q-91 -47 -148 -47q-123 0 -123 174v391h-61z" />
<glyph unicode="&#xf8ff;" horiz-adv-x="1677" d="M107.5 560.5q-2.5 11.5 15.5 21.5l57 41q3 2 13 12q19 16 36 -12l33 -64q6 -12 13.5 -15.5t14 2t9.5 17.5l18 70q4 19 18.5 21t26.5 -13l48 -53q14 -15 23 -11.5t11 23.5l5 70q3 20 15.5 25t27.5 -7l57 -43q17 -12 26 -6.5t5 25.5l-9 69q-3 20 8.5 28t28.5 -1l64 -29 q19 -9 26.5 -1.5t1.5 26.5l-22 67q-8 19 1 29t28 4l14 -2q40 -77 70 -202.5t30 -217.5q-15 -18 -34.5 -27.5t-59.5 -9.5h-8q0 46 -33 72q19 -22 19 -55v-15q-33 3 -33 39q0 43 -28 72t-77 29q-41 0 -68.5 -32t-27.5 -79q0 -60 49.5 -96.5t138.5 -36.5q85 0 172 42t156.5 112 t125 154.5t86 175.5t30.5 169q0 59 -36.5 98t-94.5 39q-48 0 -85.5 -33.5t-37.5 -84.5q0 -106 119 -119q-29 -119 -60 -174q-12 96 -43.5 178t-75.5 129q91 -120 107 -330l-29 -41q0 156 -51 287t-131 172q-5 9 2.5 18.5t22.5 12.5l69 12q19 3 21 13.5t-15 21.5l-59 39 q-15 13 -13.5 26.5t19.5 20.5l64 29q14 4 19 10t0 13t-19 13l-64 27q-23 10 -20 29q11 6 14 16l35 62q9 19 20.5 18t16.5 -20l20 -68q6 -21 18.5 -24t26.5 14l47 53q12 15 23 12.5t12 -22.5l4 -72q1 -21 14.5 -26t28.5 8l58 43q15 12 23.5 6t6.5 -27l-10 -70 q-1 -20 10.5 -27.5t28.5 1.5l63 33q19 8 26.5 0t0.5 -29l-22 -64q-6 -20 2.5 -30t27.5 -4l70 14q20 6 26.5 -2t-4.5 -27l-36 -59q-12 -17 -6 -29.5t26 -11.5l72 4q21 0 25 -11t-9 -24l-49 -53q-14 -13 -10.5 -26.5t24.5 -16.5l70 -12q43 -10 6 -39l-57 -39q-16 -10 -15 -24 t21 -21l63 -27q12 -5 16.5 -12t0 -13.5t-16.5 -11.5l-63 -26q-20 -7 -21 -22t15 -25l57 -41q11 -7 14.5 -14.5t-2 -13.5t-18.5 -9l-70 -13q-21 -3 -24.5 -16.5t10.5 -28.5l49 -49q13 -14 9 -24.5t-25 -10.5l-72 5q-20 0 -26 -12t6 -29l36 -62q10 -17 4 -25.5t-26 -5.5 l-70 19q-19 4 -27.5 -6t-2.5 -29l22 -68q8 -19 0 -26t-27 2l-63 31q-17 9 -28.5 1t-10.5 -30l10 -68q1 -21 -7 -25.5t-23 7.5l-58 43q-15 12 -28.5 5.5t-14.5 -26.5l-4 -69q-1 -20 -12 -23t-23 11l-47 55q-13 14 -26 12t-19 -22l-20 -68q-3 -13 -9.5 -18t-14 -1t-13.5 15 l-35 61q-9 19 -22 19t-25 -19l-31 -61q-6 -11 -13.5 -15t-14 1t-9.5 18l-20 68q-6 20 -19 22t-26 -12l-47 -55q-12 -14 -22 -11t-13 23l-4 69q-2 20 -15 26.5t-30 -5.5l-54 -43q-17 -13 -26.5 -8t-5.5 26l10 68q1 22 -10.5 30t-30.5 -1l-62 -31q-19 -9 -26.5 -2t0.5 26 l22 68q7 19 -2 29.5t-28 5.5l-70 -19q-20 -3 -26 5.5t4 25.5l38 62q11 17 4.5 29t-26.5 12l-72 -5q-21 0 -25 10.5t9 24.5l51 49q13 15 9 28.5t-25 16.5l-68 13q-21 4 -23.5 15.5zM584 281q44 -27 123 -27q106 0 212.5 65t183.5 162t125 212t48 214q0 63 -41 101 q25 -39 25 -84q0 -99 -47.5 -214.5t-127.5 -215.5q-85 -105 -188.5 -168.5t-212.5 -63.5q-57 0 -100 19z" />
<glyph unicode="&#xfb06;" horiz-adv-x="1359" d="M72 109l71 118q61 -44 135 -78t130 -34q57 0 97 37.5t40 105.5q0 43 -16.5 78.5t-50 63t-60 43.5t-70.5 38q-45 23 -75 40t-68.5 48t-62 63t-40 79t-16.5 102q0 127 76 206t200 79q70 0 154 -31q-14 49 -14 117q0 143 74 226t204 83q147 0 226 -100t79 -275v-43h201v-131 h-201v-704q0 -113 64 -113q43 0 127 49l59 -123q-129 -76 -225 -76q-87 0 -133.5 60t-46.5 201v706h-101v131h101v64q0 262 -170 262q-85 0 -131.5 -63.5t-46.5 -172.5q0 -81 24 -137q5 -2 66 -39l-76 -115q-125 84 -219 84q-61 0 -99 -37t-38 -100q0 -18 3.5 -35t8 -30 t15 -27t16.5 -22.5t22 -20.5t22 -17t25.5 -16t23.5 -13t25.5 -12.5t22.5 -11.5q139 -69 208.5 -153.5t69.5 -202.5q0 -130 -79 -206.5t-203 -76.5q-91 0 -186 40t-162 92z" />
<glyph horiz-adv-x="618" d="M63 1153q0 125 63.5 210t170.5 85q80 0 137.5 -53.5t83 -134t25.5 -177.5q0 -243 -99.5 -383.5t-250.5 -140.5q-23 0 -45 3.5t-33 7.5l-11 3l27 105q26 -12 59 -12q78 0 142 76t84 227q-58 -88 -152 -88q-91 0 -146 78t-55 194zM180 1157q0 -71 29.5 -123.5t85.5 -52.5 q45 0 80 34t49 75v2q0 108 -34 177.5t-93 69.5q-56 0 -86.5 -54.5t-30.5 -127.5z" />
<glyph horiz-adv-x="931" d="M55 1434q0 105 41.5 167t126.5 62q84 0 125 -62t41 -167q0 -107 -41 -169.5t-125 -62.5q-86 0 -127 62.5t-41 169.5zM143 1434q0 -152 80 -152q78 0 78 152q0 147 -78 147q-80 0 -80 -147zM260 788l320 861h90l-320 -861h-90zM541 1006q0 107 41 168t127 61 q84 0 124.5 -61t40.5 -168q0 -106 -40.5 -169t-124.5 -63q-85 0 -126.5 63t-41.5 169zM629 1006q0 -150 80 -150q77 0 77 150q0 149 -77 149q-80 0 -80 -149z" />
<glyph horiz-adv-x="1808" d="M59 944v131h103v127q0 146 55 208.5t158 62.5q126 0 311 -70q50 90 176 90q114 0 264 -55v55h154v-958l281 540h176l-258 -436l301 -639h-164l-223 492l-113 -189v-303h-154v1292q-174 54 -237 54q-35 0 -59.5 -27.5t-24.5 -87.5v-156h190v-131h-190v-944h-156v944h-334 v-944h-153v944h-103zM315 1075h334v197q-178 53 -248 53q-37 0 -61.5 -27.5t-24.5 -87.5v-135z" />
<glyph horiz-adv-x="1413" d="M59 944v131h103v127q0 146 55 208.5t158 62.5q126 0 311 -70q50 90 176 90q112 0 262 -55v55h156v-1493h-156v1292q-181 54 -235 54q-35 0 -59.5 -27.5t-24.5 -87.5v-156h190v-131h-190v-944h-156v944h-334v-944h-153v944h-103zM315 1075h334v197q-178 53 -248 53 q-37 0 -61.5 -27.5t-24.5 -87.5v-135z" />
<glyph horiz-adv-x="1544" d="M59 944v131h103v127q0 146 55 208.5t158 62.5q125 0 305 -68q43 88 156 88q90 0 231 -72l-53 -125q-104 50 -146 50q-65 0 -65 -115v-156h309v260l156 51v-311h200v-131h-200v-704q0 -64 16.5 -88.5t46.5 -24.5q48 0 127 49l60 -123q-129 -76 -226 -76q-87 0 -133.5 60 t-46.5 201v706h-309v-944h-154v944h-334v-944h-153v944h-103zM315 1075h334v197q-178 53 -248 53q-37 0 -61.5 -27.5t-24.5 -87.5v-135z" />
<glyph horiz-adv-x="1423" d="M59 944v131h103v148q0 146 55 208t158 62q104 0 264 -57v57h154v-569q38 38 63 60.5t67 53t86.5 45.5t90.5 15q103 0 153 -77.5t50 -203.5v-817h-154v791q0 167 -109 167q-38 0 -78 -19.5t-74 -51.5t-55 -56.5t-40 -50.5v-780h-154v1292q-185 54 -238 54 q-37 0 -61.5 -27.5t-24.5 -87.5v-156h193v-131h-193v-944h-153v944h-103z" />
<glyph horiz-adv-x="1366" d="M59 944v131h103v127q0 146 55 208.5t158 62.5q135 0 311 -70q53 90 182 90q127 0 312 -72l-54 -125q-179 50 -231 50q-37 0 -63.5 -28t-26.5 -87v-156h436v-1075h-154v944h-282v-944h-156v944h-334v-944h-153v944h-103zM315 1075h334v197q-178 53 -248 53 q-37 0 -61.5 -27.5t-24.5 -87.5v-135z" />
<glyph horiz-adv-x="878" d="M59 944v131h103v148q0 146 56 208t161 62q135 0 313 -72l-55 -125q-179 50 -229 50q-39 0 -66 -28t-27 -87v-156h439v-1075h-154v944h-285v-944h-153v944h-103z" />
<glyph horiz-adv-x="878" d="M59 944v131h103v148q0 146 56 208t161 62q135 0 313 -72l-55 -125q-179 50 -229 50q-39 0 -66 -28t-27 -87v-156h439v-1116q0 -83 -2.5 -120.5t-15 -87t-41.5 -75.5t-79 -55t-131 -57l-51 129q26 12 44.5 21.5t35.5 20.5t28 17.5t20.5 19t15 19.5t10 23t6 25t3 31.5 t1.5 36v44.5v993h-283v-944h-153v944h-103z" />
<glyph horiz-adv-x="1320" d="M59 944v131h103v148q0 146 55 208t158 62q104 0 264 -57v57h154v-958l280 540h176l-258 -436l301 -639h-164l-223 492l-112 -189v-303h-154v1292q-185 54 -238 54q-37 0 -61.5 -27.5t-24.5 -87.5v-156h193v-131h-193v-944h-153v944h-103z" />
<glyph horiz-adv-x="1910" d="M59 944v131h103v127q0 146 55 208.5t158 62.5q126 0 311 -70q50 90 176 90q114 0 264 -55v55h154v-569q38 38 63 60.5t67 53t86.5 45.5t90.5 15q103 0 153 -77.5t50 -203.5v-817h-154v791q0 167 -108 167q-38 0 -78 -19.5t-74 -51.5t-55.5 -56.5t-40.5 -50.5v-780h-154 v1292q-174 54 -237 54q-35 0 -59.5 -27.5t-24.5 -87.5v-156h190v-131h-190v-944h-156v944h-334v-944h-153v944h-103zM315 1075h334v197q-178 53 -248 53q-37 0 -61.5 -27.5t-24.5 -87.5v-135z" />
<glyph horiz-adv-x="925" d="M59 944v131h103v148q0 146 55 208t158 62q108 0 262 -55v55h156v-1493h-156v1292q-166 54 -236 54q-37 0 -61.5 -27.5t-24.5 -87.5v-156h193v-131h-193v-944h-153v944h-103z" />
<glyph horiz-adv-x="1056" d="M59 944v131h103v148q0 146 46 208t134 62q97 0 238 -72l-58 -123q-108 48 -143 48q-64 0 -64 -115v-156h308v260l155 51v-311h201v-131h-201v-704q0 -113 64 -113q48 0 127 49l59 -123q-129 -76 -225 -76q-87 0 -133.5 60t-46.5 201v706h-308v-944h-153v944h-103z" />
<glyph horiz-adv-x="382" d="M51 244v94h64v72q0 95 30 136.5t91 41.5q59 0 157 -45l-43 -88q-60 24 -84 24q-39 0 -39 -61v-80h117v-94h-117v-551h-112v551h-64z" />
<glyph horiz-adv-x="937" d="M129 369v807h152v-816q0 -53 8 -92t27.5 -73t58 -52t94.5 -18q108 0 149 62.5t41 172.5v816h152v-807q0 -86 -16 -152t-53 -121t-106 -84.5t-167 -29.5t-166.5 29.5t-105.5 84.5t-52.5 121t-15.5 152zM344 1278l174 266h191l-236 -266h-129z" />
<glyph horiz-adv-x="589" d="M59 80l56 94q1 -1 8.5 -7t11 -8.5t12.5 -9.5t14.5 -10.5t15.5 -10t17.5 -10t17.5 -8t19 -7t19 -4t20 -1.5q54 0 90.5 48.5t36.5 125.5q0 72 -32.5 122t-92.5 50q-56 0 -120 -51l-64 37l35 430h371v-108h-275l-8 -220q43 19 90 19q102 0 159.5 -80.5t57.5 -198.5 q0 -76 -24 -139t-78 -105t-129 -42q-117 0 -228 94z" />
<glyph horiz-adv-x="589" d="M59 653l56 95q1 -1 8.5 -7t11 -8.5t12.5 -9.5t14.5 -10.5t15.5 -10t17.5 -10t17.5 -8t19 -7t19 -4t20 -1.5q54 0 90.5 48.5t36.5 125.5q0 72 -32.5 122t-92.5 50q-56 0 -120 -51l-64 37l35 430h371v-109h-275l-8 -219q41 18 90 18q102 0 159.5 -80t57.5 -198 q0 -44 -8.5 -85.5t-27.5 -78t-45.5 -64t-65 -43.5t-84.5 -16q-117 0 -228 94z" />
<glyph horiz-adv-x="870" d="M74 -133l78 129q147 -123 245 -123q92 0 156.5 89.5t64.5 230.5q0 132 -57 221.5t-158 89.5q-87 0 -196 -90l-88 49l53 713h573v-152h-438l-18 -408q69 37 153 37q106 0 185 -64t118 -167t39 -229q0 -93 -23 -176.5t-66.5 -151t-114.5 -107t-160 -39.5q-176 0 -346 148z " />
<glyph horiz-adv-x="1904" d="M59 944v131h103v127q0 146 55 208.5t158 62.5q126 0 311 -70q50 90 176 90q114 0 264 -55v55h154v-557q56 72 117 117t137 45q129 0 207 -138.5t78 -422.5q0 -283 -78 -421.5t-207 -138.5q-131 0 -254 162v-139h-154v1292q-174 54 -237 54q-35 0 -59.5 -27.5t-24.5 -87.5 v-156h190v-131h-190v-944h-156v944h-334v-944h-153v944h-103zM315 1075h334v197q-178 53 -248 53q-37 0 -61.5 -27.5t-24.5 -87.5v-135zM1280 291q41 -75 97.5 -123.5t113.5 -48.5q84 0 127 110t43 308q0 199 -42.5 309t-127.5 110q-57 0 -114 -49t-97 -125v-491z" />
<glyph horiz-adv-x="1220" d="M80 537l47 79q81 -63 135 -63q47 0 80 39t33 102q0 58 -29 99t-82 41q-44 0 -104 -43l-54 32l27 353h324v-93h-240l-8 -176q39 17 80 17q87 0 137.5 -66.5t50.5 -163.5q0 -98 -53 -166.5t-150 -68.5q-93 0 -194 78zM352 0l404 1176h106l-405 -1176h-105zM719 176 q0 126 135 205q-100 69 -100 172q0 72 48.5 118t129.5 46t130.5 -46.5t49.5 -117.5q0 -105 -102 -172q137 -80 137 -205q0 -86 -59 -137t-156 -51q-96 0 -154.5 51t-58.5 137zM821 182q0 -50 31 -79t80 -29t82 29.5t33 78.5q0 52 -31.5 88t-83.5 66q-111 -62 -111 -154z M846 543q0 -70 86 -121q84 50 84 121q0 37 -23 64.5t-61 27.5q-37 0 -61.5 -27.5t-24.5 -64.5z" />
<glyph horiz-adv-x="1193" d="M82 537l47 79q70 -63 135 -63q47 0 79 39t32 102q0 59 -28.5 99.5t-82.5 40.5q-40 0 -104 -43l-54 32l29 353h322v-93h-238l-8 -176q39 17 78 17q88 0 138 -66.5t50 -163.5q0 -98 -52.5 -166.5t-148.5 -68.5q-99 0 -194 78zM352 0l406 1176h104l-403 -1176h-107zM696 287 q0 199 87 314.5t216 115.5q20 0 39 -3t28 -6l9 -3l-20 -89q-27 11 -54 11q-68 0 -123 -61.5t-73 -184.5q50 72 133 72q78 0 125 -64t47 -160q0 -102 -54.5 -171.5t-146.5 -69.5q-104 0 -158.5 87t-54.5 212zM799 281q0 -91 29 -147t81 -56q49 0 75 44t26 103q0 60 -24 102 t-73 42q-42 0 -73 -27t-41 -61z" />
<glyph horiz-adv-x="1036" d="M59 944v131h103v127q0 146 55 208.5t158 62.5q125 0 305 -68q43 88 145 88q101 0 242 -72l-57 -121q-115 46 -146 46q-61 0 -61 -109v-162h192v-131h-192v-944h-154v944h-334v-944h-153v944h-103zM315 1075h334v197q-178 53 -248 53q-37 0 -61.5 -27.5t-24.5 -87.5v-135z " />
<glyph horiz-adv-x="937" d="M129 369v807h152v-816q0 -53 8 -92t27.5 -73t58 -52t94.5 -18q108 0 149 62.5t41 172.5v816h152v-807q0 -86 -16 -152t-53 -121t-106 -84.5t-167 -29.5t-166.5 29.5t-105.5 84.5t-52.5 121t-15.5 152z" />
<glyph horiz-adv-x="577" d="M45 1536v113h485v-113h-182v-748h-119v748h-184z" />
<glyph horiz-adv-x="638" d="M51 182v94l283 584h155v-569h95v-109h-95v-182h-116v182h-322zM160 291h213v438z" />
<glyph horiz-adv-x="638" d="M51 756v94l283 584h155v-570h95v-108h-95v-183h-116v183h-322zM160 864h213v439z" />
<glyph horiz-adv-x="950" d="M57 59v131l461 986h211v-967h150v-150h-150v-317h-162v317h-510zM205 209h362v774z" />
<glyph horiz-adv-x="1093" d="M59 944v131h103v148q0 145 45.5 207.5t130.5 62.5q101 0 242 -72l-58 -121q-115 46 -145 46q-62 0 -62 -109v-162h193v-131h-193v-944h-153v944h-103zM606 944v131h103v148q0 145 45.5 207.5t128.5 62.5q76 0 196 -55l-39 -127q-94 35 -116 35q-62 0 -62 -109v-162h193 v-131h-193v-944h-153v944h-103z" />
<glyph horiz-adv-x="1284" d="M68 618v80l249 478h127v-465h82v-93h-82v-147h-96v147h-280zM158 711h190v362zM412 0l403 1176h103l-404 -1176h-102zM799 66l45 79q23 -21 60 -41t73 -20q50 0 83.5 39t33.5 102q0 58 -29.5 97.5t-83.5 39.5q-53 0 -107 -43l-53 33l31 353h319v-93h-241l-8 -178 q48 19 84 19q88 0 138 -66t50 -162q0 -99 -53 -168t-150 -69t-192 78z" />
<glyph horiz-adv-x="1417" d="M59 944v131h103v148q0 146 55 208t158 62q104 0 264 -57v57h154v-557q56 72 117 117t137 45q129 0 206.5 -138.5t77.5 -422.5q0 -283 -77.5 -421.5t-206.5 -138.5q-131 0 -254 162v-139h-154v1292q-185 54 -238 54q-37 0 -61.5 -27.5t-24.5 -87.5v-156h193v-131h-193 v-944h-153v944h-103zM793 291q41 -75 97.5 -123.5t113.5 -48.5q84 0 127 110t43 308q0 199 -42.5 309t-127.5 110q-57 0 -114 -49t-97 -125v-491z" />
<glyph horiz-adv-x="546" d="M59 944v131h103v148q0 145 45.5 207.5t128.5 62.5q76 0 196 -55l-38 -127q-94 35 -117 35q-62 0 -62 -109v-162h193v-131h-193v-944h-153v944h-103z" />
<glyph horiz-adv-x="905" d="M96 266v115h86v1053h656v-154h-494v-487h391v-152h-391v-260h252v-115h-252v-266h-162v266h-86z" />
<glyph horiz-adv-x="819" d="M96 211v102h76v863h576v-144h-424v-375h335v-139h-335v-205h219v-102h-219v-211h-152v211h-76z" />
<glyph horiz-adv-x="600" d="M68 -78h55v631h422v-113h-305v-262h241v-110h-241v-146h161v-78h-161v-151h-117v151h-55v78z" />
<glyph horiz-adv-x="602" d="M70 940v78h55v631h422v-113h-305v-262h241v-111h-241v-145h159v-78h-159v-152h-117v152h-55z" />
<glyph horiz-adv-x="382" d="M51 1339v95h64v71q0 95 30 136.5t91 41.5q59 0 157 -45l-43 -88q-62 25 -84 25q-39 0 -39 -62v-79h117v-95h-117v-551h-112v551h-64z" />
<glyph horiz-adv-x="577" d="M45 440v113h485v-113h-182v-747h-119v747h-184z" />
<glyph horiz-adv-x="878" d="M137 0v1176h152v-207h131q187 0 284 -86.5t97 -274.5q0 -190 -97 -277t-284 -87h-131v-244h-152zM289 383h133q225 0 225 225q0 120 -59 170.5t-166 50.5h-133v-446z" />
<glyph horiz-adv-x="757" d="M45 1032v144h668v-144h-256v-1032h-39q8 -11 19 -33t23.5 -65t12.5 -84q0 -79 -42 -124.5t-107 -45.5q-64 0 -117 39l35 102q42 -29 67 -29q74 0 74 95q0 71 -37 145h-41v1032h-260z" />
<glyph horiz-adv-x="757" d="M45 1032v144h668v-144h-256v-1032h-152v1032h-260zM152 1544h112l113 -176l115 176h110l-143 -266h-164z" />
<glyph horiz-adv-x="772" d="M51 1032v144h668v-144h-256v-549h121v-104h-121v-379h-152v379h-123v104h123v549h-260z" />
<glyph horiz-adv-x="692" d="M96 -307v624q0 275 236 275q113 0 173 -57.5t60 -151.5q0 -34 -7 -63t-14 -42l-7 -12q-93 -30 -93 -94q0 -18 9 -35t19.5 -28t34 -33.5t38.5 -38.5q88 -91 88 -184q0 -77 -48 -126t-124 -49q-85 0 -191 62l43 82q78 -47 129 -47q31 0 52.5 20t21.5 58q0 52 -61 110 q-6 6 -30.5 27.5t-35 33.5t-27 34t-23.5 47t-7 55q0 110 117 170q6 21 6 45q0 56 -30.5 87.5t-88.5 31.5q-62 0 -94.5 -42t-32.5 -141v-618h-113z" />
<glyph horiz-adv-x="692" d="M96 788v625q0 275 236 275q113 0 173 -57.5t60 -151.5q0 -34 -7 -63t-14 -42l-7 -12q-93 -30 -93 -94q0 -18 9 -35t19.5 -28t34 -33.5t38.5 -38.5q88 -91 88 -185q0 -77 -48 -125.5t-124 -48.5q-85 0 -191 62l43 82q79 -48 129 -48q31 0 52.5 20t21.5 58q0 53 -61 111 q-7 7 -30.5 27.5t-35 33t-27.5 34t-23 46.5t-7 55q0 110 117 170q6 21 6 45q0 56 -30.5 87.5t-88.5 31.5q-62 0 -94.5 -41.5t-32.5 -140.5v-619h-113z" />
<glyph horiz-adv-x="608" d="M63 14q0 170 49.5 254t131.5 84q32 0 62.5 -16t49 -33.5t43.5 -46.5v82h113v-678q0 -122 -47.5 -175.5t-142.5 -53.5q-118 0 -238 47l31 98q110 -45 182 -45q53 0 77.5 30t24.5 97v117q-37 -45 -73 -71t-82 -26q-82 0 -131.5 84t-49.5 252zM180 14q0 -231 96 -231 q65 0 123 96v273q-58 96 -123 96q-96 0 -96 -234z" />
<glyph horiz-adv-x="757" d="M45 1032v144h668v-144h-256v-1032h-152v1032h-260z" />
<glyph horiz-adv-x="622" d="M66 877l59 92q117 -84 194 -84q49 0 82 29t33 83t-39 94t-122 95q-13 8 -19 12q-83 54 -128.5 110.5t-45.5 139.5q0 98 61 156.5t162 58.5q113 0 234 -76l-58 -94q-101 59 -166 59q-46 0 -78 -27.5t-32 -78.5q0 -35 23 -66.5t53 -53.5t77 -53l15 -9q39 -25 66 -47.5 t58 -56t47.5 -76t16.5 -91.5q0 -98 -64.5 -158.5t-164.5 -60.5q-70 0 -140.5 30.5t-123.5 72.5z" />
<glyph horiz-adv-x="937" d="M129 369v807h152v-816q0 -53 8 -92t27.5 -73t58 -52t94.5 -18q108 0 149 62.5t41 172.5v816h152v-807q0 -86 -16 -152t-53 -121t-106 -84.5t-167 -29.5t-166.5 29.5t-105.5 84.5t-52.5 121t-15.5 152zM254 1497h104q0 -108 111 -108q113 0 113 108h100q0 -102 -56 -160.5 t-157 -58.5t-158 58.5t-57 160.5z" />
<glyph horiz-adv-x="608" d="M63 1110q0 170 49.5 254t131.5 84q32 0 62.5 -16t49 -33.5t43.5 -46.5v82h113v-678q0 -122 -47.5 -176t-142.5 -54q-118 0 -238 47l31 99q110 -45 182 -45q53 0 77.5 30t24.5 97v116q-37 -44 -73 -70t-82 -26q-82 0 -131.5 84t-49.5 252zM180 1110q0 -231 96 -231 q65 0 123 96v272q-58 96 -123 96q-96 0 -96 -233z" />
<glyph horiz-adv-x="622" d="M63 -219l60 92q117 -84 194 -84q49 0 82 29.5t33 83.5q0 29 -11 53.5t-37 48.5t-47.5 40t-63.5 44q-14 9 -21 14q-83 54 -128.5 110.5t-45.5 139.5q0 98 61 156.5t162 58.5q114 0 234 -75l-58 -95q-103 60 -166 60q-46 0 -78 -28t-32 -79q0 -35 23 -66.5t53 -53.5t77 -53 l15 -9q39 -25 66 -47t58 -56t47.5 -76t16.5 -91q0 -98 -64.5 -159t-164.5 -61q-70 0 -141 30.5t-124 72.5z" />
<glyph horiz-adv-x="821" d="M74 117l76 114q177 -110 272 -110q71 0 119.5 42.5t48.5 121.5q0 41 -15 75.5t-51 67.5t-67.5 56t-90.5 61q-18 12 -28 18q-59 38 -93.5 65t-74.5 69.5t-59 93t-19 112.5q0 132 85 211.5t220 79.5q83 0 168 -28.5t152 -71.5l-74 -121q-153 80 -233 80q-68 0 -114 -39 t-46 -113q0 -38 14.5 -70t46.5 -62t64 -53t85 -57q13 -8 19 -12q58 -37 95.5 -65.5t81.5 -74.5t66.5 -102.5t22.5 -123.5q0 -135 -88 -217t-223 -82q-97 0 -192.5 40t-167.5 95zM348 -504l66 176h-60v199h131l15 -207l-111 -213z" />
<glyph horiz-adv-x="335" d="M100 1649h138l-33 -596h-72zM109 788v156h120v-156h-120z" />
<glyph horiz-adv-x="335" d="M100 553h138l-33 -596h-72zM109 -152h120v-155h-120v155z" />
<glyph horiz-adv-x="821" d="M74 117l76 114q177 -110 272 -110q71 0 119.5 42.5t48.5 121.5q0 41 -15 75.5t-51 67.5t-67.5 56t-90.5 61q-18 12 -28 18q-59 38 -93.5 65t-74.5 69.5t-59 93t-19 112.5q0 132 85 211.5t220 79.5q83 0 168 -28.5t152 -71.5l-74 -121q-153 80 -233 80q-68 0 -114 -39 t-46 -113q0 -38 14.5 -70t46.5 -62t64 -53t85 -57q13 -8 19 -12q58 -37 95.5 -65.5t81.5 -74.5t66.5 -102.5t22.5 -123.5q0 -135 -88 -217t-223 -82q-97 0 -192.5 40t-167.5 95zM186 1278l144 266h164l143 -266h-111l-114 174l-113 -174h-113z" />
<glyph horiz-adv-x="821" d="M74 117l76 114q177 -110 272 -110q71 0 119.5 42.5t48.5 121.5q0 41 -15 75.5t-51 67.5t-67.5 56t-90.5 61q-18 12 -28 18q-59 38 -93.5 65t-74.5 69.5t-59 93t-19 112.5q0 132 85 211.5t220 79.5q83 0 168 -28.5t152 -71.5l-74 -121q-153 80 -233 80q-68 0 -114 -39 t-46 -113q0 -38 14.5 -70t46.5 -62t64 -53t85 -57q13 -8 19 -12q58 -37 95.5 -65.5t81.5 -74.5t66.5 -102.5t22.5 -123.5q0 -122 -73 -201.5t-189 -93.5q47 -91 47 -168q0 -79 -42 -124.5t-107 -45.5q-64 0 -117 39l35 102q42 -29 68 -29q73 0 73 95q0 48 -28 129 q-92 4 -181.5 42.5t-156.5 90.5z" />
<glyph horiz-adv-x="616" d="M94 -307v895h115v-336q31 30 52 47t59 35t75 18q66 0 98.5 -48t32.5 -126v-485h-114v463q0 96 -62 96q-39 0 -77.5 -31t-63.5 -65v-463h-115z" />
<glyph horiz-adv-x="821" d="M74 117l76 114q177 -110 272 -110q71 0 119.5 42.5t48.5 121.5q0 41 -15 75.5t-51 67.5t-67.5 56t-90.5 61q-18 12 -28 18q-59 38 -93.5 65t-74.5 69.5t-59 93t-19 112.5q0 132 85 211.5t220 79.5q83 0 168 -28.5t152 -71.5l-74 -121q-153 80 -233 80q-68 0 -114 -39 t-46 -113q0 -38 14.5 -70t46.5 -62t64 -53t85 -57q13 -8 19 -12q58 -37 95.5 -65.5t81.5 -74.5t66.5 -102.5t22.5 -123.5q0 -135 -88 -217t-223 -82q-97 0 -192.5 40t-167.5 95zM186 1544h113l113 -176l114 176h111l-143 -266h-164z" />
<glyph horiz-adv-x="335" d="M98 788l33 596h72l33 -596h-138zM106 1493v156h121v-156h-121z" />
<glyph horiz-adv-x="821" d="M74 117l76 114q177 -110 272 -110q71 0 119.5 42.5t48.5 121.5q0 41 -15 75.5t-51 67.5t-67.5 56t-90.5 61q-18 12 -28 18q-59 38 -93.5 65t-74.5 69.5t-59 93t-19 112.5q0 132 85 211.5t220 79.5q83 0 168 -28.5t152 -71.5l-74 -121q-153 80 -233 80q-68 0 -114 -39 t-46 -113q0 -38 14.5 -70t46.5 -62t64 -53t85 -57q13 -8 19 -12q58 -37 95.5 -65.5t81.5 -74.5t66.5 -102.5t22.5 -123.5q0 -135 -88 -217t-223 -82q-97 0 -192.5 40t-167.5 95zM287 1278l174 266h190l-235 -266h-129z" />
<glyph horiz-adv-x="821" d="M74 117l76 114q177 -110 272 -110q71 0 119.5 42.5t48.5 121.5q0 41 -15 75.5t-51 67.5t-67.5 56t-90.5 61q-18 12 -28 18q-59 38 -93.5 65t-74.5 69.5t-59 93t-19 112.5q0 132 85 211.5t220 79.5q83 0 168 -28.5t152 -71.5l-74 -121q-153 80 -233 80q-68 0 -114 -39 t-46 -113q0 -38 14.5 -70t46.5 -62t64 -53t85 -57q13 -8 19 -12q58 -37 95.5 -65.5t81.5 -74.5t66.5 -102.5t22.5 -123.5q0 -135 -88 -217t-223 -82q-97 0 -192.5 40t-167.5 95z" />
<glyph horiz-adv-x="690" d="M111 788v861h229q276 0 276 -252q0 -197 -165 -240l167 -369h-126l-156 357h-109v-357h-116zM227 1247h113q158 0 158 150q0 147 -156 147h-115v-297z" />
<glyph horiz-adv-x="690" d="M111 -307v860h229q276 0 276 -252q0 -197 -165 -240l167 -368h-126l-156 356h-109v-356h-116zM227 152h113q158 0 158 149q0 148 -156 148h-115v-297z" />
<glyph horiz-adv-x="921" d="M137 0v1176h309q383 0 383 -345q0 -264 -231 -323l231 -508h-161l-219 492h-160v-492h-152zM289 625h160q227 0 227 206q0 209 -223 209h-164v-415zM383 -504l66 176h-60v199h131l15 -207l-111 -213z" />
<glyph horiz-adv-x="921" d="M137 0v1176h309q383 0 383 -345q0 -264 -231 -323l231 -508h-161l-219 492h-160v-492h-152zM258 1544h113l112 -176l115 176h111l-144 -266h-164zM289 625h160q227 0 227 206q0 209 -223 209h-164v-415z" />
<glyph horiz-adv-x="921" d="M137 0v1176h309q383 0 383 -345q0 -264 -231 -323l231 -508h-161l-219 492h-160v-492h-152zM289 625h160q227 0 227 206q0 209 -223 209h-164v-415zM358 1278l174 266h191l-236 -266h-129z" />
<glyph horiz-adv-x="303" d="M92 455v131h121v-131h-121zM96 -307v645h113v-645h-113z" />
<glyph horiz-adv-x="921" d="M137 0v1176h309q383 0 383 -345q0 -264 -231 -323l231 -508h-161l-219 492h-160v-492h-152zM289 625h160q227 0 227 206q0 209 -223 209h-164v-415z" />
<glyph horiz-adv-x="729" d="M76 1219q0 444 289 444q288 0 288 -444q0 -342 -174 -422l107 -115l-78 -88l-143 180q-289 0 -289 445zM197 1219q0 -101 13.5 -170.5t52 -115.5t102.5 -46q63 0 101 46t51 115.5t13 170.5q0 74 -7.5 131t-25.5 103.5t-51 71.5t-81 25t-82 -25t-52 -71.5t-26 -103.5 t-8 -131z" />
<glyph horiz-adv-x="333" d="M98 -307l33 596h72l33 -596h-138zM106 397v156h121v-156h-121z" />
<glyph horiz-adv-x="460" d="M141 0l43 819h92l43 -819h-178zM152 969v207h155v-207h-155z" />
<glyph horiz-adv-x="729" d="M76 123q0 444 289 444q288 0 288 -444q0 -342 -174 -422l107 -115l-78 -88l-143 180q-289 0 -289 445zM197 123q0 -101 13.5 -170.5t52 -115.5t102.5 -46q63 0 101 46t51 115.5t13 170.5t-13 170.5t-51 115.5t-101 46q-64 0 -102.5 -46t-52 -115.5t-13.5 -170.5z" />
<glyph horiz-adv-x="937" d="M129 369v807h152v-816q0 -53 8 -92t27.5 -73t58 -52t94.5 -18q108 0 149 62.5t41 172.5v816h152v-807q0 -86 -16 -152t-53 -121t-106 -84.5t-167 -29.5t-166.5 29.5t-105.5 84.5t-52.5 121t-15.5 152zM244 1278l143 266h164l143 -266h-110l-115 174l-113 -174h-112z" />
<glyph horiz-adv-x="974" d="M92 588q0 606 395 606q109 0 188 -46.5t123.5 -131.5t64.5 -190.5t20 -237.5q0 -473 -244 -578l145 -160l-100 -110l-197 242q-395 0 -395 606zM248 588q0 -104 11 -183t37 -145t74 -100.5t117 -34.5q56 0 98 23.5t68.5 64t43.5 100.5t23.5 126.5t6.5 148.5t-6.5 147.5 t-23.5 125.5t-43.5 100.5t-68.5 64t-98 23.5q-69 0 -117 -34.5t-74 -100t-37 -144.5t-11 -182z" />
<glyph horiz-adv-x="655" d="M111 788v861h211q276 0 276 -269q0 -139 -70 -203.5t-206 -64.5h-95v-324h-116zM227 1223h97q153 0 153 157q0 158 -153 158h-97v-315z" />
<glyph horiz-adv-x="655" d="M111 -307v860h211q276 0 276 -268q0 -269 -276 -269h-95v-323h-116zM227 127h97q153 0 153 158q0 157 -153 157h-97v-315z" />
<glyph horiz-adv-x="301" d="M-8 -481q33 16 51 27t29.5 20.5t15.5 28t5 31t1 48.5v664h113v-657q0 -35 -0.5 -50.5t-2.5 -41t-6.5 -36.5t-13 -29t-21 -27.5t-31.5 -23t-44 -24t-59 -22.5zM90 455v131h121v-131h-121z" />
<glyph horiz-adv-x="458" d="M139 1176h178l-43 -820h-92zM152 0v207h155v-207h-155z" />
<glyph horiz-adv-x="874" d="M137 0v1176h283q187 0 284 -88t97 -277q0 -188 -97 -275t-284 -87h-131v-449h-152zM289 588h135q223 0 223 223t-223 223h-135v-446z" />
<glyph horiz-adv-x="974" d="M92 588q0 606 395 606q109 0 188 -46.5t123.5 -131.5t64.5 -190.5t20 -237.5t-20 -237.5t-64.5 -190.5t-123.5 -131.5t-188 -46.5q-395 0 -395 606zM248 588q0 -104 11 -183t37 -145t74 -100.5t117 -34.5q56 0 98 23.5t68.5 64t43.5 100.5t23.5 126.5t6.5 148.5 t-6.5 147.5t-23.5 125.5t-43.5 100.5t-68.5 64t-98 23.5q-69 0 -117 -34.5t-74 -100t-37 -144.5t-11 -182zM250 1339q34 87 64 129.5t79 42.5q32 0 68.5 -25t67.5 -50t49 -25q17 0 33.5 19t37.5 75l76 -39q-31 -88 -61.5 -131t-79.5 -43q-32 0 -68.5 25t-68 50.5t-50.5 25.5 q-16 0 -32 -19.5t-37 -75.5z" />
<glyph horiz-adv-x="729" d="M76 1219q0 444 289 444q288 0 288 -444q0 -445 -288 -445q-289 0 -289 445zM197 1219q0 -101 13.5 -170.5t52 -115.5t102.5 -46q63 0 101 46t51 115.5t13 170.5q0 74 -7.5 131t-25.5 103.5t-51 71.5t-81 25t-82 -25t-52 -71.5t-26 -103.5t-8 -131z" />
<glyph horiz-adv-x="552" d="M94 -307v895h115v-551l160 301h129l-162 -260l188 -385h-118l-134 282l-63 -106v-176h-115z" />
<glyph horiz-adv-x="552" d="M94 788v895h115v-550l160 301h129l-162 -260l188 -386h-118l-134 283l-63 -106v-177h-115z" />
<glyph horiz-adv-x="970" d="M90 588q0 606 395 606q144 0 238 -84l37 66h108l-82 -146q95 -155 95 -442q0 -132 -20 -237.5t-64.5 -190.5t-123.5 -131.5t-188 -46.5q-147 0 -235 79l-35 -61h-109l78 139q-94 149 -94 449zM246 588q0 -182 30 -281l369 664q-59 78 -160 78q-69 0 -117 -34.5t-74 -100 t-37 -144.5t-11 -182zM326 201q57 -76 159 -76q56 0 98 23.5t68.5 64t43.5 100.5t23.5 126.5t6.5 148.5q0 172 -31 274zM362 1278l175 266h190l-235 -266h-130z" />
<glyph horiz-adv-x="937" d="M129 369v807h152v-816q0 -53 8 -92t27.5 -73t58 -52t94.5 -18q108 0 149 62.5t41 172.5v816h152v-807q0 -86 -16 -152t-53 -121t-106 -84.5t-167 -29.5t-166.5 29.5t-105.5 84.5t-52.5 121t-15.5 152zM279 1298v191h137v-191h-137zM526 1298v191h136v-191h-136z" />
<glyph horiz-adv-x="974" d="M92 588q0 606 395 606q109 0 188 -46.5t123.5 -131.5t64.5 -190.5t20 -237.5t-20 -237.5t-64.5 -190.5t-123.5 -131.5t-188 -46.5q-395 0 -395 606zM248 588q0 -104 11 -183t37 -145t74 -100.5t117 -34.5q56 0 98 23.5t68.5 64t43.5 100.5t23.5 126.5t6.5 148.5 t-6.5 147.5t-23.5 125.5t-43.5 100.5t-68.5 64t-98 23.5q-69 0 -117 -34.5t-74 -100t-37 -144.5t-11 -182zM279 1329v113h419v-113h-419z" />
<glyph horiz-adv-x="729" d="M76 123q0 444 289 444q288 0 288 -444q0 -445 -288 -445q-289 0 -289 445zM197 123q0 -101 13.5 -170.5t52 -115.5t102.5 -46q63 0 101 46t51 115.5t13 170.5t-13 170.5t-51 115.5t-101 46q-64 0 -102.5 -46t-52 -115.5t-13.5 -170.5z" />
<glyph horiz-adv-x="974" d="M92 588q0 606 395 606q109 0 188 -46.5t123.5 -131.5t64.5 -190.5t20 -237.5t-20 -237.5t-64.5 -190.5t-123.5 -131.5t-188 -46.5q-395 0 -395 606zM248 588q0 -104 11 -183t37 -145t74 -100.5t117 -34.5q56 0 98 23.5t68.5 64t43.5 100.5t23.5 126.5t6.5 148.5 t-6.5 147.5t-23.5 125.5t-43.5 100.5t-68.5 64t-98 23.5q-69 0 -117 -34.5t-74 -100t-37 -144.5t-11 -182zM301 1278l111 266h159l-176 -266h-94zM532 1278l111 266h158l-174 -266h-95z" />
<glyph horiz-adv-x="974" d="M92 588q0 606 395 606q109 0 188 -46.5t123.5 -131.5t64.5 -190.5t20 -237.5t-20 -237.5t-64.5 -190.5t-123.5 -131.5t-188 -46.5q-395 0 -395 606zM248 588q0 -104 11 -183t37 -145t74 -100.5t117 -34.5q56 0 98 23.5t68.5 64t43.5 100.5t23.5 126.5t6.5 148.5 t-6.5 147.5t-23.5 125.5t-43.5 100.5t-68.5 64t-98 23.5q-69 0 -117 -34.5t-74 -100t-37 -144.5t-11 -182zM248 1544h190l174 -266h-127z" />
<glyph horiz-adv-x="937" d="M129 369v807h152v-816q0 -53 8 -92t27.5 -73t58 -52t94.5 -18q108 0 149 62.5t41 172.5v816h152v-807q0 -86 -16 -152t-53 -121t-106 -84.5t-167 -29.5t-166.5 29.5t-105.5 84.5t-52.5 121t-15.5 152zM229 1544h191l174 -266h-127z" />
<glyph horiz-adv-x="301" d="M94 -307v895h113v-895h-113z" />
<glyph horiz-adv-x="937" d="M129 369v807h152v-816q0 -53 8 -92t27.5 -73t58 -52t94.5 -18q108 0 149 62.5t41 172.5v816h152v-807q0 -86 -16 -152t-53 -121t-106 -84.5t-167 -29.5t-166.5 29.5t-105.5 84.5t-52.5 121t-15.5 152zM281 1278l110 266h160l-176 -266h-94zM512 1278l111 266h157 l-174 -266h-94z" />
<glyph horiz-adv-x="768" d="M106 0v115q11 10 27.5 29.5t52.5 80t52 123.5h-119v94h133v13q0 44 -10 96h-123v96h92q-3 9 -20.5 50.5t-23 58t-16 50.5t-14.5 64t-4 62q0 122 66.5 192t181.5 70q58 0 119.5 -22.5t97 -44.5t82.5 -56l-76 -104q-123 86 -194 86q-60 0 -93.5 -36.5t-33.5 -105.5 q0 -41 12 -82t36 -97t34 -85h219v-96h-195q8 -58 8 -88v-21h187v-94h-201q-28 -120 -90 -209h373v-139h-560z" />
<glyph horiz-adv-x="565" d="M80 -217q8 7 20.5 21t39 58.5t38.5 90.5h-90v67h98v5q0 35 -10 73h-88v68h68q-2 5 -10 23t-10.5 25t-9.5 23.5t-9.5 25.5t-7 24.5t-6.5 27.5t-3.5 27.5t-1.5 30.5q0 90 49.5 142t133.5 52q101 0 219 -94l-60 -82q-82 66 -139 66q-39 0 -61.5 -27t-22.5 -74q0 -31 7.5 -59 t25.5 -71.5t24 -59.5h158v-68h-141q6 -30 6 -67v-11h135v-67h-143q-17 -87 -64 -152h264v-108h-409v90z" />
<glyph horiz-adv-x="567" d="M82 788v91q8 7 20.5 21t39 58.5t38.5 90.5h-90v67h98v4q0 36 -10 74h-88v68h68q-2 5 -11.5 26.5t-12 28.5t-10 26t-10.5 30t-7 28.5t-5.5 33.5t-1.5 33q0 90 49.5 142.5t133.5 52.5q101 0 219 -94l-60 -82q-81 65 -139 65q-39 0 -61.5 -26.5t-22.5 -73.5q0 -31 7.5 -59 t25.5 -71.5t24 -59.5h158v-68h-141q6 -30 6 -68v-10h135v-67h-143q-17 -87 -64 -152h265v-109h-410z" />
<glyph horiz-adv-x="974" d="M92 588q0 606 395 606q109 0 188 -46.5t123.5 -131.5t64.5 -190.5t20 -237.5t-20 -237.5t-64.5 -190.5t-123.5 -131.5t-188 -46.5q-395 0 -395 606zM248 588q0 -104 11 -183t37 -145t74 -100.5t117 -34.5q56 0 98 23.5t68.5 64t43.5 100.5t23.5 126.5t6.5 148.5 t-6.5 147.5t-23.5 125.5t-43.5 100.5t-68.5 64t-98 23.5q-69 0 -117 -34.5t-74 -100t-37 -144.5t-11 -182zM297 1298v191h137v-191h-137zM545 1298v191h135v-191h-135z" />
<glyph horiz-adv-x="974" d="M92 588q0 606 395 606q109 0 188 -46.5t123.5 -131.5t64.5 -190.5t20 -237.5t-20 -237.5t-64.5 -190.5t-123.5 -131.5t-188 -46.5q-395 0 -395 606zM248 588q0 -104 11 -183t37 -145t74 -100.5t117 -34.5q56 0 98 23.5t68.5 64t43.5 100.5t23.5 126.5t6.5 148.5 t-6.5 147.5t-23.5 125.5t-43.5 100.5t-68.5 64t-98 23.5q-69 0 -117 -34.5t-74 -100t-37 -144.5t-11 -182zM262 1278l144 266h163l144 -266h-111l-115 174l-112 -174h-113z" />
<glyph horiz-adv-x="708" d="M104 -33v586h117v-592q0 -81 28 -125.5t103 -44.5q76 0 104.5 45t28.5 125v592h117v-586q0 -64 -11 -112.5t-38 -90.5t-77.5 -64t-123.5 -22q-58 0 -102 15t-71.5 40.5t-44.5 63.5t-23.5 79t-6.5 91z" />
<glyph horiz-adv-x="974" d="M92 588q0 606 395 606q109 0 188 -46.5t123.5 -131.5t64.5 -190.5t20 -237.5t-20 -237.5t-64.5 -190.5t-123.5 -131.5t-188 -46.5q-395 0 -395 606zM248 588q0 -104 11 -183t37 -145t74 -100.5t117 -34.5q56 0 98 23.5t68.5 64t43.5 100.5t23.5 126.5t6.5 148.5 t-6.5 147.5t-23.5 125.5t-43.5 100.5t-68.5 64t-98 23.5q-69 0 -117 -34.5t-74 -100t-37 -144.5t-11 -182zM272 1497h105q0 -108 110 -108q113 0 113 108h100q0 -102 -56 -160.5t-157 -58.5t-158 58.5t-57 160.5z" />
<glyph horiz-adv-x="937" d="M129 369v807h152v-816q0 -53 8 -92t27.5 -73t58 -52t94.5 -18q108 0 149 62.5t41 172.5v816h152v-807q0 -86 -16 -152t-53 -121t-106 -84.5t-167 -29.5t-166.5 29.5t-105.5 84.5t-52.5 121t-15.5 152zM258 1329v113h420v-113h-420z" />
<glyph horiz-adv-x="974" d="M92 588q0 606 395 606q109 0 188 -46.5t123.5 -131.5t64.5 -190.5t20 -237.5t-20 -237.5t-64.5 -190.5t-123.5 -131.5t-188 -46.5q-395 0 -395 606zM248 588q0 -104 11 -183t37 -145t74 -100.5t117 -34.5q56 0 98 23.5t68.5 64t43.5 100.5t23.5 126.5t6.5 148.5 t-6.5 147.5t-23.5 125.5t-43.5 100.5t-68.5 64t-98 23.5q-69 0 -117 -34.5t-74 -100t-37 -144.5t-11 -182zM362 1278l175 266h190l-235 -266h-130z" />
<glyph horiz-adv-x="1402" d="M92 588q0 606 395 606q151 0 244 -90v72h576v-144h-424v-375h348v-139h-348v-377h430v-141h-582v70q-94 -88 -244 -88q-395 0 -395 606zM248 588q0 -104 11 -183t37 -145t74 -100.5t117 -34.5q56 0 98 23.5t68.5 64t43.5 100.5t23.5 126.5t6.5 148.5t-6.5 147.5 t-23.5 125.5t-43.5 100.5t-68.5 64t-98 23.5q-69 0 -117 -34.5t-74 -100t-37 -144.5t-11 -182z" />
<glyph horiz-adv-x="890" d="M96 -307v645h113v-94q80 108 168 108q52 0 81 -33.5t40 -82.5q83 116 174 116q64 0 95.5 -48.5t31.5 -125.5v-485h-113v457q0 102 -59 102q-33 0 -66 -31.5t-57 -73.5v-454h-113v457q0 102 -59 102q-35 0 -67.5 -31.5t-55.5 -73.5v-454h-113z" />
<glyph horiz-adv-x="937" d="M129 369v807h152v-816q0 -53 8 -92t27.5 -73t58 -52t94.5 -18q108 0 149 62.5t41 172.5v816h152v-807q0 -317 -225 -373q-28 -24 -44 -39t-39 -41.5t-34.5 -54.5t-11.5 -58q0 -16 3.5 -28t8 -20t13.5 -13.5t15.5 -8.5t18 -4t17.5 -1.5t18 0t14 0.5l-16 -103h-26.5 t-33.5 3t-40 8.5t-37 17t-34.5 28t-22 43t-9.5 60.5q0 106 113 197q-77 1 -135 21.5t-94.5 54.5t-59.5 84t-32 105t-9 122z" />
<glyph horiz-adv-x="565" d="M63 14q0 161 61 249.5t165 88.5q101 0 156 -78t55 -204q0 -22 -1.5 -43t-2.5 -31l-2 -10h-314q10 -209 113 -209q24 0 55.5 14.5t49 26t53.5 37.5l51 -74q-123 -103 -223 -103q-94 0 -155 87t-61 249zM180 59h213q0 199 -100 199q-103 0 -113 -199z" />
<glyph horiz-adv-x="974" d="M92 588q0 606 395 606q109 0 188 -46.5t123.5 -131.5t64.5 -190.5t20 -237.5t-20 -237.5t-64.5 -190.5t-123.5 -131.5t-188 -46.5q-395 0 -395 606zM248 588q0 -104 11 -183t37 -145t74 -100.5t117 -34.5q56 0 98 23.5t68.5 64t43.5 100.5t23.5 126.5t6.5 148.5 t-6.5 147.5t-23.5 125.5t-43.5 100.5t-68.5 64t-98 23.5q-69 0 -117 -34.5t-74 -100t-37 -144.5t-11 -182z" />
<glyph horiz-adv-x="970" d="M137 0v1176h154l391 -900v900h152v-1176h-154l-391 897v-897h-152zM254 1339q34 87 64 129.5t79 42.5q32 0 68.5 -25t67.5 -50t49 -25q17 0 33.5 19t37.5 75l76 -39q-31 -88 -61.5 -131t-79.5 -43q-32 0 -68.5 25t-68 50.5t-50.5 25.5q-16 0 -32 -19.5t-37 -75.5z" />
<glyph horiz-adv-x="733" d="M113 788v861h120l271 -635v635h117v-861h-119l-273 639v-639h-116z" />
<glyph horiz-adv-x="733" d="M113 -307v860h120l271 -635v635h117v-860h-119l-273 639v-639h-116z" />
<glyph horiz-adv-x="970" d="M137 0v1176h154l391 -900v900h152v-1176h-154l-391 897v-897h-152zM416 -504l65 176h-59v199h131l14 -207l-110 -213z" />
<glyph horiz-adv-x="970" d="M137 0v1176h154l391 -900v900h152v-1176h-154l-391 897v-897h-152zM268 1544h113l113 -176l114 176h111l-144 -266h-163z" />
<glyph horiz-adv-x="970" d="M137 0v1176h154l391 -900v900h152v-1176h-154l-391 897v-897h-152zM360 1278l175 266h190l-236 -266h-129z" />
<glyph horiz-adv-x="970" d="M137 0v1176h154l391 -900v900h152v-1176h-154l-391 897v-897h-152z" />
<glyph horiz-adv-x="618" d="M63 580q0 124 63.5 209t170.5 85q80 0 137.5 -53t83 -133.5t25.5 -177.5q0 -243 -99.5 -383.5t-250.5 -140.5q-23 0 -45 3.5t-33 6.5l-11 4l27 104q26 -12 59 -12q78 0 142 76t84 227q-58 -88 -152 -88q-91 0 -146 78.5t-55 194.5zM180 584q0 -71 29.5 -123.5t85.5 -52.5 q45 0 80 33.5t49 74.5v2q0 109 -34 178.5t-93 69.5q-56 0 -86.5 -54.5t-30.5 -127.5z" />
<glyph horiz-adv-x="954" d="M94 350q0 256 256 422q-194 140 -194 356q0 143 89.5 235.5t231.5 92.5t232 -92.5t90 -235.5q0 -215 -195 -356q254 -165 254 -422q0 -171 -105 -272t-276 -101q-172 0 -277.5 101t-105.5 272zM258 358q0 -112 61.5 -175.5t157.5 -63.5t157.5 63.5t61.5 175.5 q0 60 -18 112t-51 92.5t-68 70.5t-82 59q-47 -29 -82 -59t-68 -70.5t-51 -92.5t-18 -112zM309 1114q0 -164 166 -268q170 103 170 268q0 84 -47 143.5t-121 59.5t-121 -59.5t-47 -143.5z" />
<glyph horiz-adv-x="913" d="M78 707q0 134 42.5 244t126 176.5t193.5 66.5q95 0 169.5 -50.5t119.5 -136.5t68.5 -192.5t23.5 -224.5q1 -207 -42 -375.5t-117.5 -276.5t-172 -165.5t-208.5 -57.5q-36 0 -70.5 6t-50.5 11l-17 6l37 143q43 -16 96 -16q61 0 119 32t109.5 95.5t89 171t53.5 246.5 q-98 -156 -250 -156q-97 0 -171 62.5t-111 164.5t-37 226zM240 713q0 -82 19 -151.5t64.5 -118t110.5 -48.5q79 0 139 61t84 136v8q0 192 -57 318t-160 126q-65 0 -112 -50.5t-67.5 -123.5t-20.5 -157z" />
<glyph horiz-adv-x="630" d="M70 788q0 154 155 248q-116 88 -116 211q0 87 56.5 144t149.5 57q94 0 151.5 -56.5t57.5 -144.5q0 -126 -116 -211q155 -101 155 -248q0 -106 -67 -167.5t-181 -61.5q-111 0 -178 62t-67 167zM188 795q0 -61 36.5 -98.5t90.5 -37.5q57 0 93 37t36 99q0 109 -127 188 q-129 -78 -129 -188zM219 1237q0 -92 96 -150q99 59 99 150q0 46 -27.5 78.5t-71.5 32.5q-43 0 -69.5 -32.5t-26.5 -78.5z" />
<glyph horiz-adv-x="630" d="M70 215q0 154 155 248q-116 88 -116 211q0 87 56.5 143.5t149.5 56.5q94 0 151.5 -56.5t57.5 -143.5q0 -126 -116 -211q155 -101 155 -248q0 -106 -67 -167.5t-181 -61.5q-111 0 -178 62t-67 167zM188 221q0 -61 36.5 -98t90.5 -37q57 0 93 36.5t36 98.5q0 110 -127 189 q-129 -78 -129 -189zM219 664q0 -92 96 -150q99 59 99 150q0 46 -27.5 78t-71.5 32q-43 0 -69.5 -32t-26.5 -78z" />
<glyph horiz-adv-x="937" d="M129 369v807h152v-816q0 -53 8 -92t27.5 -73t58 -52t94.5 -18q108 0 149 62.5t41 172.5v816h152v-807q0 -86 -16 -152t-53 -121t-106 -84.5t-167 -29.5t-166.5 29.5t-105.5 84.5t-52.5 121t-15.5 152zM281 1444q0 77 54.5 132.5t131.5 55.5q79 0 133.5 -55.5t54.5 -132.5 q0 -79 -54 -133t-134 -54q-78 0 -132 54t-54 133zM371 1444q0 -41 27.5 -69.5t68.5 -28.5t70.5 28.5t29.5 69.5t-29.5 69.5t-70.5 28.5t-68.5 -28.5t-27.5 -69.5z" />
<glyph horiz-adv-x="616" d="M94 -307v645h115v-86q31 30 52 47t59 35t75 18q66 0 98.5 -48t32.5 -126v-485h-114v463q0 96 -62 96q-39 0 -77.5 -31t-63.5 -65v-463h-115z" />
<glyph horiz-adv-x="708" d="M104 1063v586h117v-592q0 -81 28 -125.5t103 -44.5q76 0 104.5 45t28.5 125v592h117v-586q0 -64 -11 -112.5t-38 -90.5t-77.5 -64t-123.5 -22q-58 0 -102 15t-71.5 40.5t-44.5 63.5t-23.5 79t-6.5 91z" />
<glyph horiz-adv-x="937" d="M129 369v807h152v-816q0 -53 8 -92t27.5 -73t58 -52t94.5 -18q108 0 149 62.5t41 172.5v816h152v-807q0 -86 -16 -152t-53 -121t-106 -84.5t-167 -29.5t-166.5 29.5t-105.5 84.5t-52.5 121t-15.5 152zM229 1339q33 87 64 129.5t80 42.5q32 0 68 -25t67 -50t49 -25 t34.5 19t37.5 75l76 -39q-31 -87 -62 -130.5t-80 -43.5q-25 0 -53.5 16t-49.5 34.5t-44.5 34.5t-38.5 16q-34 0 -70 -95z" />
<glyph horiz-adv-x="833" d="M113 788v861h120l183 -541l182 541h123v-861h-117v623l-158 -479h-61l-156 477v-621h-116z" />
<glyph horiz-adv-x="833" d="M113 -307v860h120l183 -541l182 541h123v-860h-117v622l-158 -479h-61l-156 477v-620h-116z" />
<glyph horiz-adv-x="978" d="M86 295v123h166l39 340h-154v121h166l35 297h115l-35 -297h205l34 297h113l-35 -297h156v-121h-168l-39 -340h156v-123h-168l-33 -295h-115l33 295h-205l-33 -295h-112l33 295h-154zM367 418h204l39 340h-204z" />
<glyph horiz-adv-x="708" d="M66 2h116l27 240h-107v98h117l25 213h90l-25 -213h140l24 213h88l-24 -213h108v-98h-119l-26 -240h108v-98h-119l-22 -211h-90l22 211h-139l-22 -211h-88l22 211h-106v98zM272 2h140l26 240h-139z" />
<glyph horiz-adv-x="710" d="M66 999v99h116l27 239h-107v99h117l25 213h90l-25 -213h140l24 213h88l-24 -213h108v-99h-119l-26 -239h108v-99h-119l-22 -211h-90l22 211h-139l-22 -211h-88l22 211h-106zM272 1098h140l26 239h-139z" />
<glyph horiz-adv-x="1110" d="M137 0v1176h158l258 -756l260 756h158v-1176h-152v870l-227 -673h-78l-225 671v-868h-152z" />
<glyph horiz-adv-x="567" d="M111 788v861h116v-748h295v-113h-411z" />
<glyph horiz-adv-x="755" d="M59 375v153l88 62v586h152v-478l164 117v-156l-164 -116v-402h410v-141h-562v436z" />
<glyph horiz-adv-x="567" d="M111 -307v860h116v-748h295v-112h-411z" />
<glyph horiz-adv-x="747" d="M137 0v1176h152v-1035h409v-141h-561zM500 524v191h137v-191h-137z" />
<glyph horiz-adv-x="743" d="M137 0v1176h152v-1035h409v-141h-561zM340 -504l66 176h-60v199h131l15 -207l-111 -213z" />
<glyph horiz-adv-x="915" d="M49 1176h168l240 -988l243 988h166l-325 -1176h-166z" />
<glyph horiz-adv-x="743" d="M137 0v1176h152v-1035h409v-141h-561zM340 801l66 176h-60v199h131l15 -207l-111 -213z" />
<glyph horiz-adv-x="743" d="M86 1278l174 266h191l-236 -266h-129zM137 0v1176h152v-1035h409v-141h-561z" />
<glyph horiz-adv-x="591" d="M61 14q0 160 59.5 249t172.5 89q115 0 175 -89t60 -249q0 -159 -60 -247.5t-175 -88.5q-113 0 -172.5 88.5t-59.5 247.5zM176 14q0 -235 117 -235q119 0 119 235q0 238 -119 238q-117 0 -117 -238z" />
<glyph horiz-adv-x="743" d="M137 0v1176h152v-1035h409v-141h-561z" />
<glyph horiz-adv-x="671" d="M111 788v861h116v-432l252 432h142l-254 -404l272 -457h-141l-199 349l-72 -115v-234h-116z" />
<glyph horiz-adv-x="468" d="M37 741l162 119h110v-860h-116v733l-103 -74z" />
<glyph horiz-adv-x="468" d="M37 1315l162 119h110v-861h-116v734l-103 -74z" />
<glyph horiz-adv-x="602" d="M47 985l250 191h152v-1176h-162v997l-164 -125z" />
<glyph horiz-adv-x="667" d="M37 553h131l164 -709l170 709h129l-232 -860h-131z" />
<glyph horiz-adv-x="667" d="M37 1649h131l164 -709l170 709h129l-232 -861h-131z" />
<glyph horiz-adv-x="1105" d="M57 1077l140 99h94v-705h-101v598l-90 -61zM233 0l408 1176h104l-405 -1176h-107zM602 176q0 126 135 205q-100 69 -100 172q0 71 49.5 117.5t128.5 46.5q82 0 131 -46t49 -118q0 -103 -102 -174q137 -80 137 -203q0 -86 -59 -137t-156 -51q-96 0 -154.5 51t-58.5 137z M702 182q0 -49 32.5 -78.5t80.5 -29.5q50 0 81.5 29t31.5 79q0 91 -113 154q-113 -65 -113 -154zM731 543q0 -71 84 -121q86 53 86 121q0 37 -24.5 64.5t-61.5 27.5t-60.5 -27.5t-23.5 -64.5z" />
<glyph horiz-adv-x="1107" d="M57 1077l140 99h94v-705h-101v598l-90 -61zM233 0l408 1176h104l-405 -1176h-107zM621 66l47 79q70 -63 135 -63q47 0 78.5 40t31.5 103q0 58 -28 97.5t-82 39.5q-45 0 -105 -40l-53 30l29 353h321v-93h-237l-8 -176q39 17 77 17q89 0 139 -66.5t50 -163.5 q0 -98 -52 -166.5t-149 -68.5q-99 0 -194 78z" />
<glyph horiz-adv-x="671" d="M111 -307v860h116v-432l252 432h142l-254 -403l272 -457h-141l-199 348l-72 -115v-233h-116z" />
<glyph horiz-adv-x="1105" d="M59 1077l140 99h94v-705h-100v598l-91 -61zM236 0l405 1176h107l-406 -1176h-106zM627 0v59q0 25 3 48t10.5 44t13.5 37.5t19.5 35.5t20.5 29.5t25 29t24.5 25t26.5 25.5t25 23q120 111 120 187q0 36 -25 58t-65 22q-56 0 -137 -56l-47 72q107 78 197 78q81 0 129.5 -48 t48.5 -124q0 -41 -15 -80.5t-41.5 -74.5t-49.5 -59.5t-54 -53.5q-8 -7 -12 -11q-55 -51 -78 -86t-23 -90h273v-90h-389z" />
<glyph horiz-adv-x="1243" d="M63 1176h170l154 -916l170 916h127l168 -920l156 920h170l-240 -1176h-150l-167 901l-168 -901h-152z" />
<glyph horiz-adv-x="892" d="M137 0v1176h152v-601l356 601h182l-352 -553l379 -623h-180l-285 485l-100 -157v-328h-152zM375 -504l65 176h-59v199h131l14 -207l-110 -213z" />
<glyph horiz-adv-x="1081" d="M59 1077l140 99h94v-705h-100v598l-91 -61zM236 0l405 1176h107l-406 -1176h-106zM547 147v80l246 478h133v-465h80v-93h-80v-147h-101v147h-278zM641 240h184v360z" />
<glyph horiz-adv-x="1079" d="M57 1077l140 99h94v-705h-101v598l-90 -61zM233 0l408 1176h104l-405 -1176h-107zM580 287q0 199 86 314.5t215 115.5q21 0 40 -3t28 -6l9 -3l-22 -89q-24 11 -53 11q-68 0 -123.5 -61.5t-73.5 -184.5q50 72 135 72q77 0 124.5 -64t47.5 -160q0 -102 -54.5 -171.5 t-145.5 -69.5q-104 0 -158.5 87t-54.5 212zM680 279q0 -90 30 -145.5t83 -55.5q49 0 74.5 44t25.5 103q0 60 -24.5 102t-73.5 42q-41 0 -72 -28t-43 -62z" />
<glyph horiz-adv-x="892" d="M137 0v1176h152v-601l356 601h182l-352 -553l379 -623h-180l-285 485l-100 -157v-328h-152z" />
<glyph horiz-adv-x="1243" d="M63 1176h170l154 -916l170 916h127l168 -920l156 920h170l-240 -1176h-150l-167 901l-168 -901h-152zM496 1278l174 266h190l-235 -266h-129z" />
<glyph horiz-adv-x="1097" d="M59 1077l140 99h94v-705h-100v598l-91 -61zM236 0l405 1176h107l-406 -1176h-106zM608 59l49 74q81 -51 142 -51q51 0 83.5 32.5t32.5 86.5q0 69 -51.5 102t-113.5 33h-15v90h19q51 0 94 31.5t43 85.5q0 37 -23 58.5t-63 21.5q-61 0 -125 -50l-47 70q1 0 12.5 8.5 t18.5 13.5t22 14t28.5 14.5t31.5 11.5t37.5 9t39.5 3q80 0 124 -45.5t44 -112.5q0 -55 -28.5 -99.5t-83.5 -70.5q60 -19 98.5 -70.5t38.5 -121.5q0 -85 -52 -147t-153 -62q-93 0 -203 71z" />
<glyph horiz-adv-x="335" d="M6 694q33 15 51 26t30.5 21t17 26.5t5.5 30.5t1 46v805h116v-799q0 -45 -1 -65t-6 -49.5t-15.5 -43.5t-31 -33t-51.5 -33t-77 -30z" />
<glyph horiz-adv-x="335" d="M6 -401q33 15 51 26t30.5 20.5t17 26.5t5.5 30.5t1 45.5v805h116v-799q0 -45 -1 -65t-6 -49.5t-15.5 -43.5t-31 -33t-51.5 -33t-77 -30z" />
<glyph horiz-adv-x="425" d="M-12 1278l143 266h164l143 -266h-110l-115 174l-113 -174h-112zM-4 -131q38 18 60 29t39 26.5t24.5 25t12 32.5t5 39t0.5 55v1100h152v-1094q0 -61 -1 -88t-8 -66.5t-21.5 -57.5t-42 -43.5t-68.5 -44t-103 -40.5z" />
<glyph horiz-adv-x="425" d="M-4 -131q38 18 60 29t39 26.5t24.5 25t12 32.5t5 39t0.5 55v1100h152v-1094q0 -61 -1 -88t-8 -66.5t-21.5 -57.5t-42 -43.5t-68.5 -44t-103 -40.5z" />
<glyph horiz-adv-x="845" d="M86 117l76 114q123 -80 211 -102v420l-23 14q-59 38 -93.5 65t-74.5 69.5t-59 93t-19 112.5q0 123 74 200.5t195 88.5v154h106v-158q130 -19 250 -94l-74 -121q-112 57 -176 71v-389l13 -8q58 -37 95.5 -65.5t81.5 -74.5t66.5 -102.5t22.5 -123.5q0 -127 -78 -206.5 t-201 -90.5v-152h-106v156q-152 24 -287 129zM262 901q0 -53 28 -93.5t83 -80.5v320q-50 -13 -80.5 -50t-30.5 -96zM479 125q55 13 89 53.5t34 106.5q0 58 -31 102.5t-92 89.5v-352z" />
<glyph horiz-adv-x="425" d="M-27 1339q33 87 64 129.5t80 42.5q32 0 68 -25t67 -50t49 -25t34.5 19t37.5 75l76 -39q-31 -87 -62 -130.5t-80 -43.5q-25 0 -53.5 16t-49.5 34.5t-44.5 34.5t-38.5 16q-34 0 -70 -95zM137 0v1176h152v-1176h-152z" />
<glyph horiz-adv-x="337" d="M111 788v861h116v-861h-116z" />
<glyph horiz-adv-x="425" d="M37 -215q0 121 139 215h-37v1176h152v-1176h-8q-70 -60 -94 -90q-42 -53 -42 -107q0 -18 3.5 -31.5t12.5 -21t15.5 -13t21 -7t19 -2.5t21.5 0h16l-16 -103h-26.5t-33.5 3t-40 8.5t-37 17t-34.5 28t-22 43t-9.5 60.5z" />
<glyph horiz-adv-x="899" d="M59 805q0 184 85 277.5t239 93.5h121v-1487h-125v747q-142 0 -231 95t-89 274zM621 -311v1487h127v-1487h-127z" />
<glyph horiz-adv-x="423" d="M2 1329v113h420v-113h-420zM137 0v1176h152v-1176h-152z" />
<glyph horiz-adv-x="497" d="M145 88v991q0 33 0.5 50.5t2 44.5t4.5 41t9 35t15 32.5t22 28t30.5 27.5t41 24t52.5 24.5t65 22.5l39 -100q-25 -12 -42.5 -21t-32 -20t-23 -18.5t-15 -21.5t-9.5 -22.5t-5 -29t-2 -33.5v-43v-1032v-42t2 -33t5 -28.5t9.5 -22.5t15 -21.5t23 -18.5t32 -20t42.5 -21 l-39 -101q-36 11 -65 22t-52.5 24t-41 23.5t-30.5 27t-22 28t-15 32.5t-9 35t-4.5 41t-2 44.5t-0.5 50.5z" />
<glyph horiz-adv-x="1243" d="M63 1176h170l154 -916l170 916h127l168 -920l156 920h170l-240 -1176h-150l-167 901l-168 -901h-152zM395 1278l144 266h163l144 -266h-111l-114 174l-113 -174h-113z" />
<glyph horiz-adv-x="608" d="M63 14q0 170 49.5 254t131.5 84q32 0 62.5 -16t49 -33.5t43.5 -46.5v332h113v-895h-113v82q-37 -45 -73 -71t-82 -26q-82 0 -131.5 84t-49.5 252zM180 14q0 -231 96 -231q65 0 123 96v273q-58 96 -123 96q-96 0 -96 -234z" />
<glyph horiz-adv-x="337" d="M111 -307v860h116v-860h-116z" />
<glyph horiz-adv-x="499" d="M74 -139q25 12 42.5 21t32 20t23 18.5t15 21.5t9.5 22.5t5 29t2 33.5v43v1032v42t-2 33t-5 28.5t-9.5 22.5t-15 21.5t-23 18.5t-32 20t-42.5 21l39 100q36 -11 65 -22t52 -24t40.5 -23.5t31 -27t22 -28t14.5 -33t9 -35t4.5 -40.5t2 -44t0.5 -51v-991q0 -34 -0.5 -51 t-2 -44t-4.5 -40.5t-9 -35t-14.5 -33t-22 -28.5t-31 -27.5t-40.5 -23.5t-52 -24.5t-65 -22.5z" />
<glyph horiz-adv-x="1243" d="M63 1176h170l154 -916l170 916h127l168 -920l156 920h170l-240 -1176h-150l-167 901l-168 -901h-152zM436 1298v191h137v-191h-137zM684 1298v191h135v-191h-135z" />
<glyph horiz-adv-x="1243" d="M63 1176h170l154 -916l170 916h127l168 -920l156 920h170l-240 -1176h-150l-167 901l-168 -901h-152zM381 1544h190l174 -266h-127z" />
<glyph horiz-adv-x="903" d="M45 553h133l105 -653l120 653h97l116 -647l107 647h133l-172 -860h-117l-116 645l-117 -645h-117z" />
<glyph horiz-adv-x="423" d="M-29 1544h191l174 -266h-127zM137 0v1176h152v-1176h-152z" />
<glyph horiz-adv-x="1284" d="M76 881q0 145 56 229t173 84t173.5 -84t56.5 -229q0 -144 -57 -230t-173 -86t-172.5 85.5t-56.5 230.5zM188 881q0 -213 117 -213q115 0 115 213q0 209 -115 209q-117 0 -117 -209zM358 0l445 1176h117l-445 -1176h-117zM748 299q0 144 56 227.5t173 83.5t173 -83.5 t56 -227.5q0 -146 -56.5 -231.5t-172.5 -85.5t-172.5 85.5t-56.5 231.5zM860 299q0 -213 117 -213q115 0 115 213q0 209 -115 209q-117 0 -117 -209z" />
<glyph horiz-adv-x="931" d="M55 338q0 105 41.5 167t126.5 62q84 0 125 -62t41 -167q0 -107 -41 -169.5t-125 -62.5q-86 0 -127 62.5t-41 169.5zM143 338q0 -152 80 -152q78 0 78 152q0 147 -78 147q-80 0 -80 -147zM260 -307l320 860h90l-320 -860h-90zM541 -90q0 107 41 168t127 61q84 0 124.5 -61 t40.5 -168q0 -106 -40.5 -169t-124.5 -63q-85 0 -126.5 63t-41.5 169zM629 -90q0 -150 80 -150q77 0 77 150q0 149 -77 149q-80 0 -80 -149z" />
<glyph horiz-adv-x="1366" d="M59 944v131h103v127q0 146 55 208.5t158 62.5q135 0 311 -70q53 90 182 90q127 0 312 -72l-54 -125q-179 50 -231 50q-37 0 -63.5 -28t-26.5 -87v-156h436v-1116v-64t-2 -54t-5.5 -49.5t-10 -41.5t-16 -39t-24.5 -32.5t-34 -31.5t-45 -27.5t-58 -28.5t-73 -27l-51 129 q33 16 54.5 26.5t40 24.5t29 22t19 26t12 27.5t6 35.5t2.5 41.5v54.5v993h-280v-944h-156v944h-334v-944h-153v944h-103zM315 1075h334v197q-178 53 -248 53q-37 0 -61.5 -27.5t-24.5 -87.5v-135z" />
<glyph horiz-adv-x="423" d="M20 1298v191h138v-191h-138zM137 0v1176h152v-1176h-152zM268 1298v191h135v-191h-135z" />
<glyph horiz-adv-x="425" d="M-14 1278l143 266h164l143 -266h-110l-115 174l-113 -174h-112zM137 0v1176h152v-1176h-152z" />
<glyph horiz-adv-x="903" d="M45 1649h133l105 -654l120 654h97l116 -648l107 648h133l-172 -861h-117l-116 646l-117 -646h-117z" />
<glyph horiz-adv-x="516" d="M61 1112q0 162 59 249t148 87q37 0 79.5 -17.5t62 -30t53.5 -36.5l-53 -88q-4 3 -25 17.5t-32.5 21.5t-31.5 14.5t-36 7.5q-48 0 -77.5 -61.5t-29.5 -163.5q0 -104 29.5 -166.5t77.5 -62.5q16 0 36.5 8t32.5 16t32.5 22.5t23.5 16.5l53 -88q-34 -24 -53.5 -36.5t-62 -30 t-79.5 -17.5q-89 0 -148 88t-59 250z" />
<glyph horiz-adv-x="1409" d="M94 588q0 128 41 238t117.5 192t193.5 129t261 47q143 0 259 -47t191 -129t115.5 -192t40.5 -238t-40.5 -238t-115.5 -192t-191 -129t-259 -47q-144 0 -261 47t-193.5 129t-117.5 192t-41 238zM164 588q0 -237 143.5 -390t397.5 -153q169 0 293.5 72.5t186.5 194.5 t62 276t-62 275.5t-186.5 194t-293.5 72.5q-170 0 -294.5 -72.5t-185.5 -194t-61 -275.5zM395 586q0 174 85.5 270t213.5 96q60 0 119 -19t91 -37.5t75 -47.5l-53 -60q-35 26 -58 41t-72.5 32.5t-99.5 17.5q-96 0 -155.5 -81t-59.5 -212q0 -130 59.5 -209.5t155.5 -79.5 q50 0 99 16.5t73.5 32t57.5 39.5l53 -59q-44 -30 -75 -48t-91 -37.5t-119 -19.5q-128 0 -213.5 96t-85.5 269z" />
<glyph horiz-adv-x="1810" d="M76 881q0 145 56 229t173 84t173.5 -84t56.5 -229q0 -144 -57 -230t-173 -86t-172.5 85.5t-56.5 230.5zM188 881q0 -213 117 -213q115 0 115 213q0 209 -115 209q-117 0 -117 -209zM358 0l445 1176h117l-445 -1176h-117zM748 299q0 144 56 227.5t173 83.5t173 -83.5 t56 -227.5q0 -146 -56.5 -231.5t-172.5 -85.5t-172.5 85.5t-56.5 231.5zM860 299q0 -213 117 -213q115 0 115 213q0 209 -115 209q-117 0 -117 -209zM1274 297q0 145 57 229t174 84q116 0 173 -84.5t57 -228.5t-57.5 -230.5t-172.5 -86.5q-116 0 -173.5 86.5t-57.5 230.5z M1389 297q0 -213 116 -213q113 0 113 213q0 209 -113 209q-116 0 -116 -209z" />
<glyph horiz-adv-x="847" d="M45 0l289 590l-275 586h172l193 -469l190 469h172l-276 -586l291 -590h-176l-203 459l-201 -459h-176z" />
<glyph horiz-adv-x="919" d="M121 774v72h37v330h282q362 0 379 -330h35v-72h-35q-9 -169 -105.5 -247t-273.5 -78h-131v-449h-151v774h-37zM309 588h135q203 0 222 186h-357v-186zM309 846h357q-16 188 -222 188h-135v-188z" />
<glyph horiz-adv-x="673" d="M88 252v61h25v240h211q260 0 274 -240h27v-61h-27q-7 -123 -76.5 -179.5t-197.5 -56.5h-95v-323h-116v559h-25zM229 127h97q65 0 103.5 28.5t47.5 96.5h-248v-125zM229 313h248q-13 129 -151 129h-97v-129z" />
<glyph horiz-adv-x="673" d="M88 1348v61h25v240h211q260 0 274 -240h27v-61h-27q-7 -123 -76.5 -179.5t-197.5 -56.5h-95v-324h-116v560h-25zM229 1223h97q65 0 103.5 28.5t47.5 96.5h-248v-125zM229 1409h248q-13 129 -151 129h-97v-129z" />
<glyph horiz-adv-x="634" d="M41 -307l209 432l-199 428h135l131 -336l136 336h133l-199 -430l209 -430h-139l-140 325l-137 -325h-139z" />
<glyph horiz-adv-x="608" d="M94 338h115v-80q74 94 156 94q81 0 129.5 -84t48.5 -254q0 -168 -48.5 -252t-129.5 -84q-80 0 -156 93v-328h-115v895zM209 -125q57 -92 121 -92q96 0 96 231q0 234 -96 234q-62 0 -121 -94v-279z" />
<glyph horiz-adv-x="423" d="M-4 1497h104q0 -108 111 -108q113 0 113 108h100q0 -102 -56 -160.5t-157 -58.5t-158 58.5t-57 160.5zM137 0v1176h152v-1176h-152z" />
<glyph horiz-adv-x="423" d="M86 1278l174 266h191l-236 -266h-129zM137 0v1176h152v-1176h-152z" />
<glyph horiz-adv-x="313" d="M96 788v166h121v-166h-121zM96 1196v166h121v-166h-121z" />
<glyph horiz-adv-x="552" d="M76 1221q0 162 58.5 247.5t146.5 85.5h14l16 95h54l-19 -107l27 -8l18 115h55l-24 -142q27 -16 63 -43l-49 -88l-30 21l-66 -398q22 9 57 35.5t39 28.5l49 -90q-2 -1 -14 -10t-17 -12.5t-18 -12t-20.5 -13t-21 -11.5t-24 -11.5t-23.5 -8.5t-25 -7l-17 -99h-55l14 95 l-24 4l-17 -99h-55l20 123q-112 80 -112 310zM190 1221q0 -92 23 -156l63 377q-40 -12 -63 -70.5t-23 -150.5zM258 1001q8 -8 25 -12l71 441l-24 10z" />
<glyph horiz-adv-x="608" d="M94 539v895h115v-80q74 94 156 94q81 0 129.5 -84t48.5 -254q0 -168 -48.5 -252t-129.5 -84q-80 0 -156 92v-327h-115zM209 971q57 -92 121 -92q96 0 96 231q0 233 -96 233q-62 0 -121 -94v-278z" />
<glyph horiz-adv-x="849" d="M137 0v1176h152v-1176h-152zM420 -131q38 18 60 29t39 26.5t24.5 25t12 32.5t5 39t0.5 55v1100h152v-1094q0 -61 -1 -88t-8 -66.5t-21.5 -57.5t-42 -43.5t-68.5 -44t-103 -40.5z" />
<glyph horiz-adv-x="608" d="M63 14q0 170 49.5 254t131.5 84q32 0 62.5 -16t49 -33.5t43.5 -46.5v82h113v-895h-113v332q-37 -45 -73 -71t-82 -26q-82 0 -131.5 84t-49.5 252zM180 14q0 -231 96 -231q65 0 123 96v273q-58 96 -123 96q-96 0 -96 -234z" />
<glyph horiz-adv-x="608" d="M63 1110q0 170 49.5 254t131.5 84q32 0 62.5 -16t49 -33.5t43.5 -46.5v82h113v-895h-113v331q-37 -44 -73 -70t-82 -26q-82 0 -131.5 84t-49.5 252zM180 1110q0 -231 96 -231q65 0 123 96v272q-58 96 -123 96q-96 0 -96 -233z" />
<glyph horiz-adv-x="423" d="M137 0v1176h152v-1176h-152z" />
<glyph horiz-adv-x="684" d="M59 1079q51 45 124.5 80t158.5 35q115 0 193.5 -70t78.5 -194q0 -216 -270 -342l-12 -232h-96l-13 316q114 44 177 101.5t63 139.5q0 63 -40.5 101.5t-105.5 38.5q-81 0 -184 -78zM207 0v207h153v-207h-153z" />
<glyph horiz-adv-x="718" d="M111 788v861h116v-355h262v355h117v-861h-117v398h-262v-398h-116z" />
<glyph horiz-adv-x="686" d="M72 246q0 216 270 342l12 231h97l12 -315q-113 -44 -176.5 -102t-63.5 -140q0 -63 40.5 -101t105.5 -38q81 0 184 78l74 -105q-50 -44 -124 -79t-159 -35q-115 0 -193.5 70t-78.5 194zM326 969v207h153v-207h-153z" />
<glyph horiz-adv-x="501" d="M55 -125q0 160 197 252l8 162h74l8 -228q-81 -32 -125.5 -73t-44.5 -99q0 -45 27.5 -72.5t72.5 -27.5q61 0 131 57l58 -82q-96 -86 -207 -86q-85 0 -142 52.5t-57 144.5zM238 397v156h118v-156h-118z" />
<glyph horiz-adv-x="503" d="M55 971q0 160 197 252l8 161h74l8 -227q-81 -32 -125.5 -73t-44.5 -99q0 -45 27.5 -72.5t72.5 -27.5q61 0 131 57l58 -82q-96 -86 -207 -86q-85 0 -142 52.5t-57 144.5zM238 1493v156h118v-156h-118z" />
<glyph horiz-adv-x="501" d="M41 481q96 86 207 86q85 0 141.5 -52t56.5 -144q0 -160 -196 -252l-8 -162h-74l-8 227q81 32 125.5 73t44.5 99q0 45 -28 73t-73 28q-60 0 -131 -58zM145 -152h119v-155h-119v155z" />
<glyph horiz-adv-x="505" d="M43 1577q96 86 207 86q85 0 142 -52.5t57 -144.5q0 -160 -197 -252l-8 -161h-74l-8 227q81 32 125.5 73t44.5 99q0 45 -28 72.5t-73 27.5q-61 0 -131 -57zM147 788v156h119v-156h-119z" />
<glyph horiz-adv-x="718" d="M111 -307v860h116v-354h262v354h117v-860h-117v397h-262v-397h-116z" />
<glyph horiz-adv-x="550" d="M76 125q0 162 59 248t146 86h14l16 94h54l-19 -107l27 -8l18 115h55l-24 -141q27 -16 63 -43l-49 -88l-30 20l-66 -397q17 7 34.5 18.5t38.5 27.5t23 17l49 -90q-2 -1 -14 -10t-17 -12.5t-18 -12t-20.5 -13t-21 -11.5t-24 -11.5t-23.5 -8.5t-25 -7l-17 -98h-55l14 94 l-24 4l-17 -98h-55l20 123q-112 80 -112 309zM190 125q0 -92 23 -156l63 377q-40 -12 -63 -70.5t-23 -150.5zM258 -94q8 -8 25 -12l71 440l-24 10z" />
<glyph horiz-adv-x="753" d="M98 590q0 221 81.5 340t201.5 119l18 -2l23 129h72l-25 -144q26 -7 39 -14l27 158h73l-33 -193l89 -59l-68 -113q-12 9 -45 31l-94 -566q19 8 41.5 21.5t35.5 23t36 27t26 19.5l68 -115q-100 -71 -159 -96q-38 -16 -73 -23l-22 -133h-72l20 129q-30 5 -39 8l-22 -137h-72 l29 170q-71 50 -113.5 156.5t-42.5 263.5zM246 590q0 -146 39 -232l92 549q-60 -15 -95.5 -99.5t-35.5 -217.5zM344 283q18 -12 39 -15l102 617q-12 8 -36 16z" />
<glyph horiz-adv-x="313" d="M96 100v166h121v-166h-121zM96 -141h121v-166h-121v166z" />
<glyph horiz-adv-x="634" d="M41 788l209 433l-199 428h135l131 -336l136 336h133l-199 -430l209 -431h-139l-140 326l-137 -326h-139z" />
<glyph horiz-adv-x="522" d="M61 16q0 162 59 249t148 87q37 0 79.5 -17.5t62 -30t53.5 -36.5l-53 -88q-5 3 -25 17t-32.5 22t-32 15.5t-35.5 7.5q-48 0 -77.5 -62t-29.5 -164q0 -104 29.5 -166.5t77.5 -62.5q16 0 36.5 8t32.5 16t32.5 22.5t23.5 16.5l53 -88q-34 -24 -53.5 -36.5t-62 -30 t-79.5 -17.5q-89 0 -148 88t-59 250z" />
<glyph horiz-adv-x="751" d="M94 590q0 210 75 328t189 129v129h107v-142q17 -5 33.5 -11.5t34 -16t29 -16t30 -19t24 -16t24.5 -17.5l19 -14l-69 -111q-2 1 -49 34.5t-76 47.5v-614q22 10 45 25.5t48 34.5t32 24l69 -113l-23 -16q-22 -17 -29 -22t-29 -19t-36.5 -21.5t-35.5 -17t-41 -15.5v-141h-107 v129q-114 11 -189 130t-75 331zM242 590q0 -126 30.5 -208.5t85.5 -107.5v627q-54 -25 -85 -107t-31 -204z" />
<glyph horiz-adv-x="976" d="M57 870v105h95v201h151v-201h373v201h151v-201h93v-105h-93v-870h-151v547h-373v-547h-151v870h-95zM303 686h373v184h-373v-184z" />
<glyph horiz-adv-x="952" d="M139 0v1176h152v-490h373v490h151v-1176h-151v547h-373v-547h-152z" />
<glyph horiz-adv-x="692" d="M78 1221q0 220 70 331t184 111q67 0 130 -34.5t134 -92.5l-59 -92q-3 2 -21.5 16t-24 18l-22 16t-25 16.5t-23.5 13t-25.5 11.5t-24 6t-25.5 3q-69 0 -108 -87t-39 -245q0 -149 39 -237t108 -88q67 0 148 114v158h-152v107h264v-478h-112v91q-90 -105 -177 -105 q-103 0 -171 113t-68 334z" />
<glyph horiz-adv-x="854" d="M41 1176h168l217 -562l219 562h166l-309 -711v-465h-152v469z" />
<glyph horiz-adv-x="694" d="M78 125q0 220 70 331t184 111q67 0 130 -34.5t134 -92.5l-59 -92q-3 3 -24 19t-28 20.5t-25.5 17.5t-29 18t-26.5 12.5t-30 10.5t-28 3q-69 0 -108 -87t-39 -245q0 -149 39 -237.5t108 -88.5q67 0 148 115v157h-152v107h264v-477h-112v90q-90 -105 -177 -105 q-103 0 -171 113t-68 334z" />
<glyph horiz-adv-x="927" d="M94 590q0 301 96.5 452.5t251.5 151.5q95 0 180.5 -46.5t182.5 -125.5l-78 -119q-9 6 -46.5 35t-55.5 40.5t-50 30.5t-59 27t-53 8q-100 0 -157.5 -122t-57.5 -342q0 -207 57 -331t156 -124q98 0 213 162v225h-215v135h360v-647h-145v127q-126 -145 -248 -145 q-68 0 -126.5 36t-105 108t-73.5 191t-27 273zM389 1298v191h137v-191h-137z" />
<glyph horiz-adv-x="927" d="M94 590q0 301 96.5 452.5t251.5 151.5q95 0 180.5 -46.5t182.5 -125.5l-78 -119q-9 6 -46.5 35t-55.5 40.5t-50 30.5t-59 27t-53 8q-100 0 -157.5 -122t-57.5 -342q0 -207 57 -331t156 -124q98 0 213 162v225h-215v135h360v-647h-145v127q-126 -145 -248 -145 q-68 0 -126.5 36t-105 108t-73.5 191t-27 273zM403 -504l66 176h-59v199h131l14 -207l-111 -213z" />
<glyph horiz-adv-x="419" d="M94 -307v645h115v-137q4 13 9.5 26.5t20.5 38.5t32.5 42t46.5 29t63 9v-119q-44 0 -78 -21t-51 -51t-27.5 -60t-12.5 -51l-3 -21v-330h-115z" />
<glyph horiz-adv-x="854" d="M41 1176h168l217 -562l219 562h166l-309 -711v-465h-152v469zM303 1278l174 266h191l-236 -266h-129z" />
<glyph horiz-adv-x="854" d="M41 1176h168l217 -562l219 562h166l-309 -711v-465h-152v469zM236 1298v191h137v-191h-137zM483 1298v191h135v-191h-135z" />
<glyph horiz-adv-x="927" d="M94 590q0 301 96.5 452.5t251.5 151.5q95 0 180.5 -46.5t182.5 -125.5l-78 -119q-9 6 -46.5 35t-55.5 40.5t-50 30.5t-59 27t-53 8q-100 0 -157.5 -122t-57.5 -342q0 -207 57 -331t156 -124q98 0 213 162v225h-215v135h360v-647h-145v127q-126 -145 -248 -145 q-68 0 -126.5 36t-105 108t-73.5 191t-27 273zM240 1497h104q0 -108 111 -108q112 0 112 108h101q0 -102 -56 -160.5t-157 -58.5t-158 58.5t-57 160.5z" />
<glyph horiz-adv-x="1683" d="M72 109l71 118q61 -44 135 -78t130 -34q57 0 97 37.5t40 105.5q0 43 -16.5 78.5t-50 63t-60 43.5t-70.5 38q-45 23 -75 40t-68.5 48t-62 63t-40 79t-16.5 102q0 127 76 206t200 79q70 0 154 -31q-14 49 -14 119q0 144 64.5 225.5t183.5 81.5h303v-569q38 38 63 60.5 t67 53t86.5 45.5t90.5 15q103 0 153 -77.5t50 -203.5v-817h-154v791q0 167 -109 167q-38 0 -78 -19.5t-74 -51.5t-55 -56.5t-40 -50.5v-780h-154v1401h-151q-76 0 -121 -64t-45 -170q0 -81 22 -139q15 -7 68 -39l-76 -115q-125 84 -219 84q-61 0 -99 -37t-38 -100 q0 -18 3.5 -35t8 -30t15 -27t16.5 -22.5t22 -20.5t22 -17t25.5 -16t23.5 -13t25.5 -12.5t22.5 -11.5q139 -69 208.5 -153.5t69.5 -202.5q0 -130 -79 -206.5t-203 -76.5q-91 0 -186 40t-162 92z" />
<glyph horiz-adv-x="1581" d="M72 109l71 118q61 -44 135 -78t130 -34q57 0 97 37.5t40 105.5q0 43 -16.5 78.5t-50 63t-60 43.5t-70.5 38q-45 23 -75 40t-68.5 48t-62 63t-40 79t-16.5 102q0 127 76 206t200 79q70 0 154 -31q-14 49 -14 119q0 144 64.5 225.5t183.5 81.5h303v-958l280 540h176 l-258 -436l301 -639h-163l-224 492l-112 -189v-303h-154v1401h-151q-76 0 -121 -64t-45 -170q0 -81 22 -139q15 -7 68 -39l-76 -115q-125 84 -219 84q-61 0 -99 -37t-38 -100q0 -18 3.5 -35t8 -30t15 -27t16.5 -22.5t22 -20.5t22 -17t25.5 -16t23.5 -13t25.5 -12.5 t22.5 -11.5q139 -69 208.5 -153.5t69.5 -202.5q0 -130 -79 -206.5t-203 -76.5q-91 0 -186 40t-162 92z" />
<glyph horiz-adv-x="1191" d="M72 109l71 118q61 -44 135 -78t130 -34q57 0 97 37.5t40 105.5q0 43 -16.5 78.5t-50 63t-60 43.5t-70.5 38q-45 23 -75 40t-68.5 48t-62 63t-40 79t-16.5 102q0 127 76 206t200 79q70 0 154 -31q-14 49 -14 119q0 144 64.5 225.5t183.5 81.5h311v-1493h-156v1401h-157 q-76 0 -121 -64t-45 -170q0 -81 22 -139q15 -7 68 -39l-76 -115q-125 84 -219 84q-61 0 -99 -37t-38 -100q0 -18 3.5 -35t8 -30t15 -27t16.5 -22.5t22 -20.5t22 -17t25.5 -16t23.5 -13t25.5 -12.5t22.5 -11.5q139 -69 208.5 -153.5t69.5 -202.5q0 -130 -79 -206.5 t-203 -76.5q-91 0 -186 40t-162 92z" />
<glyph horiz-adv-x="854" d="M41 1176h168l217 -562l219 562h166l-309 -711v-465h-152v469zM193 1544h190l174 -266h-127z" />
<glyph horiz-adv-x="927" d="M94 590q0 301 96.5 452.5t251.5 151.5q95 0 180.5 -46.5t182.5 -125.5l-78 -119q-9 6 -46.5 35t-55.5 40.5t-50 30.5t-59 27t-53 8q-100 0 -157.5 -122t-57.5 -342q0 -207 57 -331t156 -124q98 0 213 162v225h-215v135h360v-647h-145v127q-126 -145 -248 -145 q-68 0 -126.5 36t-105 108t-73.5 191t-27 273z" />
<glyph horiz-adv-x="583" d="M111 788v861h421v-113h-305v-262h242v-111h-242v-375h-116z" />
<glyph horiz-adv-x="583" d="M111 -307v860h421v-113h-305v-262h242v-110h-242v-375h-116z" />
<glyph horiz-adv-x="770" d="M137 0v1176h576v-144h-424v-375h336v-139h-336v-518h-152z" />
<glyph horiz-adv-x="686" d="M63 1083v70h58q-2 20 -2 66q0 39 2 59h-58v70h62q20 158 84 236.5t160 78.5q45 0 93.5 -19.5t80.5 -41t80 -58.5l-58 -92q-5 4 -24 17.5t-26.5 19t-24.5 16.5t-27 16t-25 11.5t-27.5 9t-25.5 2.5q-52 0 -87.5 -51t-49.5 -145h217v-70h-223q-2 -18 -2 -59q0 -46 2 -66h223 v-70h-215q13 -92 48.5 -141t86.5 -49q13 0 25.5 2.5t27.5 9t25 11.5t27 16t24.5 16.5t26.5 19t24 17.5l58 -92q-48 -37 -80 -58.5t-80.5 -41t-93.5 -19.5q-94 0 -158 77t-84 232h-64z" />
<glyph horiz-adv-x="686" d="M63 -12v69h58q-2 20 -2 66q0 39 2 59h-58v70h62q20 158 84 236.5t160 78.5q65 0 123 -30.5t131 -87.5l-58 -93q-5 3 -28 20t-31 23t-28.5 18.5t-32.5 17.5t-28.5 9.5t-31.5 4.5q-52 0 -87.5 -51.5t-49.5 -145.5h217v-70h-223q-2 -18 -2 -59q0 -46 2 -66h223v-69h-215 q14 -91 49 -141t86 -50q13 0 25.5 2.5t27.5 9t25 11.5t27 16t24.5 16.5t26.5 19t24 17.5l58 -92q-48 -37 -80 -58.5t-80.5 -41t-93.5 -19.5q-94 0 -158 78t-84 232h-64z" />
<glyph horiz-adv-x="946" d="M86 403v91h76q-2 29 -2 94q0 57 2 84h-76v90h84q25 216 114.5 324t219.5 108q62 0 128.5 -26t111 -55.5t110.5 -80.5l-78 -117q-6 5 -33 24.5t-37 26.5t-33.5 23t-38 23t-35 16t-39 12.5t-36.5 3.5q-75 0 -127.5 -73.5t-72.5 -208.5h315v-90h-324q-2 -27 -2 -84 q0 -65 2 -94h324v-91h-313q22 -132 73 -202t125 -70q21 0 45 7t41 13.5t46 24.5t39.5 25t43 31t37.5 28l78 -117q-100 -78 -180 -119.5t-170 -41.5q-129 0 -217.5 104.5t-116.5 316.5h-84z" />
<glyph horiz-adv-x="323" d="M96 -436l58 129h-54v166h119l10 -178l-98 -160zM100 100v166h121v-166h-121z" />
<glyph horiz-adv-x="323" d="M96 659l58 129h-54v166h119l10 -178l-98 -160zM100 1196v166h121v-166h-121z" />
<glyph horiz-adv-x="618" d="M27 553h133l149 -399l150 399h131l-223 -524v-336h-117v336z" />
<glyph horiz-adv-x="1359" d="M84 539q0 136 26.5 244.5t72 176t103.5 103t124 35.5q56 0 131 -33q-15 52 -15 119q0 142 73.5 225.5t195.5 83.5q135 0 211.5 -101.5t76.5 -273.5v-43h203v-131h-203v-704q0 -113 64 -113q45 0 129 49l57 -123q-129 -76 -223 -76q-89 0 -135.5 60t-46.5 201v706h-101 v131h101v64q0 120 -38 191t-116 71q-77 0 -122.5 -64.5t-45.5 -169.5q0 -97 35 -159l70 -52l-74 -118q-9 6 -40 30.5t-52 39t-53.5 28.5t-59.5 14q-84 0 -136 -112t-52 -299q0 -188 52 -301t136 -113q28 0 62 15t53 28t54 41t36 29l74 -119q-98 -75 -154 -103 q-78 -39 -147 -39q-66 0 -124 36t-103.5 104t-72 177t-26.5 245z" />
<glyph horiz-adv-x="518" d="M51 752v108h424v-98q-9 -15 -24 -43t-53.5 -113.5t-68 -171.5t-53.5 -206t-24 -228h-123q0 329 217 752h-295z" />
<glyph horiz-adv-x="518" d="M51 1325v109h424v-99q-9 -15 -24 -43t-53.5 -113.5t-68 -171.5t-53.5 -206t-24 -228h-123q0 329 217 752h-295z" />
<glyph horiz-adv-x="757" d="M55 1024v152h660v-134q-8 -13 -20.5 -37.5t-50 -103.5t-71.5 -162t-75.5 -206t-71 -243t-50 -266t-20.5 -282h-170q0 170 35 361.5t80 337t101.5 286t86.5 203t48 94.5h-482z" />
<glyph horiz-adv-x="1189" d="M84 539q0 136 26.5 244.5t72 176t103.5 103t124 35.5q54 0 133 -33q-17 59 -17 121q0 144 62.5 225.5t177.5 81.5h291v-1493h-156v1401h-135q-73 0 -116.5 -63.5t-43.5 -168.5q0 -91 33 -159l72 -54l-74 -118q-9 6 -40 30.5t-52 39t-53.5 28.5t-59.5 14q-84 0 -136 -112 t-52 -299q0 -188 52 -301t136 -113q28 0 62 15t53 28t54 41t36 29l74 -119q-98 -75 -154 -103q-78 -39 -147 -39q-66 0 -124 36t-103.5 104t-72 177t-26.5 245z" />
<glyph horiz-adv-x="1576" d="M84 539q0 136 26.5 244.5t72 176t103.5 103t124 35.5q54 0 133 -33q-17 59 -17 121q0 144 62.5 225.5t177.5 81.5h283v-958l280 540h176l-258 -436l301 -639h-164l-223 492l-112 -189v-303h-154v1401h-129q-73 0 -116.5 -63.5t-43.5 -168.5q0 -91 33 -159l72 -54 l-74 -118q-9 6 -40 30.5t-52 39t-53.5 28.5t-59.5 14q-84 0 -136 -112t-52 -299q0 -188 52 -301t136 -113q28 0 62 15t53 28t54 41t36 29l74 -119q-98 -75 -154 -103q-78 -39 -147 -39q-66 0 -124 36t-103.5 104t-72 177t-26.5 245z" />
<glyph horiz-adv-x="1105" d="M66 1083v93h366v-82q-8 -13 -21 -35.5t-46.5 -93t-59 -140.5t-46.5 -168t-21 -186h-105q0 98 25.5 206.5t64 197t61.5 135t40 73.5h-258zM238 0l403 1176h107l-406 -1176h-104zM604 176q0 126 135 205q-100 69 -100 172q0 72 48.5 118t129.5 46t130.5 -46.5t49.5 -117.5 q0 -105 -102 -172q137 -80 137 -205q0 -86 -59 -137t-156 -51q-96 0 -154.5 51t-58.5 137zM707 182q0 -50 31.5 -79t78.5 -29q49 0 82 29.5t33 78.5q0 52 -31.5 88t-83.5 66q-110 -62 -110 -154zM731 543q0 -70 86 -121q84 50 84 121q0 37 -23 64.5t-61 27.5 q-37 0 -61.5 -27.5t-24.5 -64.5z" />
<glyph horiz-adv-x="1679" d="M84 539q0 136 26.5 244.5t72 176t103.5 103t124 35.5q54 0 133 -33q-17 59 -17 121q0 144 62.5 225.5t177.5 81.5h283v-569q38 38 63 60.5t67 53t86.5 45.5t90.5 15q103 0 153 -77.5t50 -203.5v-817h-154v791q0 167 -109 167q-38 0 -78 -19.5t-74 -51.5t-55 -56.5 t-40 -50.5v-780h-154v1401h-129q-73 0 -116.5 -63.5t-43.5 -168.5q0 -91 33 -159l72 -54l-74 -118q-9 6 -40 30.5t-52 39t-53.5 28.5t-59.5 14q-84 0 -136 -112t-52 -299q0 -188 52 -301t136 -113q28 0 62 15t53 28t54 41t36 29l74 -119q-98 -75 -154 -103q-78 -39 -147 -39 q-66 0 -124 36t-103.5 104t-72 177t-26.5 245z" />
<glyph horiz-adv-x="622" d="M29 1649h133l149 -400l150 400h131l-223 -525v-336h-117v336z" />
<glyph horiz-adv-x="522" d="M57 -242l47 84q35 -26 83 -47.5t85 -21.5q33 0 55.5 21t22.5 59q0 24 -9 42.5t-29 33.5t-36.5 24t-44.5 22q-34 16 -57.5 29.5t-51 37.5t-42 57t-14.5 75q0 78 48.5 128t129.5 50q103 0 200 -67l-47 -78q-78 51 -139 51q-35 0 -57.5 -20t-22.5 -56q0 -11 2 -21t7.5 -18.5 t9.5 -15t14 -14t14 -11t17 -10l16 -8t17.5 -8t15.5 -6.5q86 -40 131 -90.5t45 -122.5q0 -81 -51 -130t-133 -49q-59 0 -120.5 24.5t-105.5 55.5z" />
<glyph horiz-adv-x="946" d="M53 520v135h90v521h236q230 0 349.5 -141t119.5 -447t-119.5 -447t-349.5 -141h-236v520h-90zM295 141h86q161 0 238 106.5t77 340.5q0 233 -76.5 338.5t-238.5 105.5h-86v-377h188v-135h-188v-379z" />
<glyph horiz-adv-x="618" d="M78 350q-1 243 98.5 383.5t249.5 140.5q24 0 46.5 -3.5t33.5 -6.5l10 -4l-27 -104q-28 10 -61 10q-76 0 -139.5 -75t-83.5 -224q55 84 149 84q90 0 145.5 -77.5t55.5 -192.5q0 -126 -62.5 -210.5t-168.5 -84.5q-82 0 -139.5 53.5t-82 133t-24.5 177.5zM197 342 q0 -110 33 -180t92 -70q57 0 86.5 55t29.5 129q0 72 -28 123.5t-84 51.5q-46 0 -80.5 -32.5t-48.5 -72.5v-4z" />
<glyph horiz-adv-x="618" d="M78 924q-1 243 98.5 383.5t249.5 140.5q24 0 46.5 -3.5t33.5 -6.5l10 -4l-27 -105q-28 10 -61 10q-76 0 -139.5 -75t-83.5 -224q55 84 149 84q90 0 145.5 -77.5t55.5 -192.5q0 -126 -62.5 -210.5t-168.5 -84.5q-82 0 -139.5 53.5t-82 133.5t-24.5 178zM197 915 q0 -110 33 -179.5t92 -69.5q57 0 86.5 55t29.5 129q0 72 -28 123t-84 51q-47 0 -81 -32t-48 -72v-5z" />
<glyph horiz-adv-x="929" d="M102 582q-1 166 27.5 308t78.5 245t118 176t148.5 109t168.5 36q36 0 71 -5.5t52 -10.5l16 -6l-39 -144q-43 17 -96 17q-49 0 -95.5 -19.5t-91.5 -62.5t-81.5 -106t-63.5 -155.5t-39 -205.5q16 26 36 50t50.5 50t73 41.5t90.5 15.5q146 0 233 -129.5t87 -322.5 q0 -133 -42 -242.5t-126 -176.5t-195 -67q-95 0 -169.5 51t-119.5 137t-68 192t-24 225zM266 571q0 -125 24 -223.5t74.5 -159.5t120.5 -61q64 0 110.5 50t67.5 123.5t21 158.5q0 82 -19 151t-64.5 117.5t-111.5 48.5q-80 0 -139.5 -61.5t-83.5 -136.5v-7z" />
<glyph horiz-adv-x="428" d="M160 -207v694h108v-694h-108zM160 680v694h108v-694h-108z" />
<glyph horiz-adv-x="825" d="M72 0v129l485 903h-459v144h639v-127l-487 -908h495v-141h-673z" />
<glyph horiz-adv-x="391" d="M57 612v82h111v1043h-111v82h228v-1207h-228z" />
<glyph horiz-adv-x="608" d="M111 788v861h421v-113h-305v-262h252v-111h-252v-262h310v-113h-426z" />
<glyph horiz-adv-x="604" d="M41 -152l401 1479h113l-401 -1479h-113z" />
<glyph horiz-adv-x="808" d="M137 0v1176h576v-144h-424v-375h348v-139h-348v-377h430v-141h-2q-71 -60 -96 -93q-39 -52 -39 -104q0 -16 3.5 -28t8 -20t13.5 -13.5t15.5 -8.5t18 -4t17.5 -1.5t18 0t14 0.5l-16 -103h-26.5t-33.5 3t-40 8.5t-37 17t-34.5 28t-22 43t-9.5 60.5q0 121 139 215h-473z" />
<glyph horiz-adv-x="278" />
<glyph horiz-adv-x="278" />
<glyph horiz-adv-x="391" d="M57 -401h111v1042h-111v82h228v-1206h-228v82z" />
<glyph horiz-adv-x="970" d="M137 0v1176h154l391 -897v897h152v-1096q0 -44 -0.5 -67t-4 -54.5t-9.5 -48t-18 -39t-29.5 -36t-43.5 -31t-59.5 -32t-79.5 -30.5l-51 127q81 35 108 59.5t31 75.5l-389 895v-899h-152z" />
<glyph horiz-adv-x="763" d="M102 0v115l14.5 14.5t33 41.5t42 66t35 87t19.5 106h-131v109h125q-10 52 -39 121.5t-50.5 136t-21.5 135.5q0 122 66.5 192t181.5 70q58 0 119.5 -22.5t97 -44.5t82.5 -56l-76 -104q-123 86 -197 86q-59 0 -91.5 -36.5t-32.5 -105.5q0 -64 47.5 -180.5t58.5 -191.5h195 v-109h-191q-5 -89 -37 -167.5t-63 -123.5h373v-139h-560z" />
<glyph horiz-adv-x="559" d="M76 -217q4 3 10.5 9.5t23 28.5t29.5 46.5t25 62t14 76.5h-94v84h88q-6 28 -42 122.5t-36 160.5q0 91 48.5 142.5t131.5 51.5q99 0 222 -94l-60 -82q-85 66 -139 66q-39 0 -61.5 -27t-22.5 -74q0 -46 34 -129t42 -137h137v-84h-135q-4 -62 -26 -117.5t-44 -87.5h264v-108 h-409v90z" />
<glyph horiz-adv-x="559" d="M78 788v91q4 3 10.5 9.5t23 28.5t29.5 46.5t25 62t14 76.5h-94v84h88q-6 29 -42 122.5t-36 159.5q0 91 48.5 143t131.5 52q99 0 222 -94l-60 -82q-84 65 -139 65q-39 0 -61.5 -26.5t-22.5 -73.5q0 -46 34 -129t42 -137h137v-84h-135q-4 -62 -26 -117.5t-44 -87.5h264 v-109h-409z" />
<glyph horiz-adv-x="538" d="M76 -135h153v1438h-153v106h305v-1651h-305v107z" />
<glyph horiz-adv-x="808" d="M137 0v1176h576v-144h-424v-375h348v-139h-348v-377h430v-141h-582zM217 1329v113h420v-113h-420z" />
<glyph horiz-adv-x="608" d="M111 -307v860h421v-113h-305v-262h252v-110h-252v-263h310v-112h-426z" />
<glyph horiz-adv-x="808" d="M137 0v1176h576v-144h-424v-375h348v-139h-348v-377h430v-141h-582zM188 1544h191l174 -266h-127z" />
<glyph horiz-adv-x="808" d="M137 0v1176h576v-144h-424v-375h348v-139h-348v-377h430v-141h-582zM358 1298v191h138v-191h-138z" />
<glyph horiz-adv-x="808" d="M137 0v1176h576v-144h-424v-375h348v-139h-348v-377h430v-141h-582zM236 1298v191h137v-191h-137zM483 1298v191h135v-191h-135z" />
<glyph horiz-adv-x="808" d="M137 0v1176h576v-144h-424v-375h348v-139h-348v-377h430v-141h-582zM203 1278l143 266h164l143 -266h-110l-115 174l-113 -174h-112z" />
<glyph horiz-adv-x="595" d="M51 72l60 90q90 -66 161 -66q57 0 94 41t37 107q0 44 -18.5 78.5t-47.5 53t-60 27.5t-62 9h-18v108h22q60 0 109 38.5t49 105.5q0 46 -26 73t-72 27q-66 0 -146 -59l-53 79q112 90 219 90q92 0 143.5 -56t51.5 -136q0 -66 -33.5 -121.5t-95.5 -85.5q70 -24 113.5 -87 t43.5 -148q0 -104 -59.5 -179t-175.5 -75q-125 0 -236 86z" />
<glyph horiz-adv-x="595" d="M51 645l60 90q89 -65 161 -65q57 0 94 40.5t37 106.5q0 44 -18.5 78.5t-47.5 53t-60 27.5t-62 9h-18v109h22q60 0 109 38t49 105q0 46 -26 73t-72 27q-66 0 -146 -59l-53 80q112 90 219 90q92 0 143.5 -56.5t51.5 -136.5q0 -66 -33.5 -121t-95.5 -85q70 -24 113.5 -87 t43.5 -149q0 -104 -59.5 -179t-175.5 -75q-125 0 -236 86z" />
<glyph horiz-adv-x="878" d="M61 -152l82 123q138 -102 256 -102q98 0 162 73.5t64 196.5q0 79 -30.5 140.5t-78.5 95.5t-100 51.5t-103 17.5h-26v152h35q99 0 180.5 71.5t81.5 188.5q0 87 -46 136.5t-126 49.5q-111 0 -230 -96l-76 109q156 139 334 139q143 0 224 -91t81 -224q0 -106 -56 -201.5 t-161 -147.5q116 -39 188 -145.5t72 -253.5q0 -79 -22 -151.5t-65.5 -133t-116 -96t-164.5 -35.5q-110 0 -206.5 43t-152.5 90z" />
<glyph horiz-adv-x="827" d="M72 0v129l485 903h-459v144h639v-127l-487 -908h495v-141h-673zM293 1278l174 266h190l-235 -266h-129z" />
<glyph horiz-adv-x="391" d="M106 612v1207h228v-82h-111v-1043h111v-82h-228z" />
<glyph horiz-adv-x="1241" d="M76 530l49 74q77 -51 141 -51q49 0 82 32t33 85q0 69 -51.5 102t-112.5 33h-16v92h20q50 0 93.5 31t43.5 84q0 38 -23 60t-63 22q-55 0 -127 -50l-47 68q1 0 12.5 9t19 13.5t22.5 14t29 15t31.5 12t37 9.5t39.5 3q81 0 125.5 -46.5t44.5 -113.5q0 -53 -29.5 -97.5 t-83.5 -70.5q60 -19 97.5 -71t37.5 -121q0 -87 -51 -148t-151 -61q-63 0 -117 23t-86 48zM373 0l403 1176h105l-404 -1176h-104zM741 176q0 124 133 205q-100 69 -100 172q0 71 49.5 117.5t130.5 46.5t130 -46t49 -118q0 -104 -103 -172q137 -80 137 -205q0 -86 -58.5 -137 t-154.5 -51q-97 0 -155 51t-58 137zM842 182q0 -50 31.5 -79t80.5 -29t81 29t32 79q0 90 -115 154q-110 -64 -110 -154zM868 543q0 -69 84 -121q86 51 86 121q0 37 -23.5 64.5t-60.5 27.5q-38 0 -62 -27.5t-24 -64.5z" />
</font>
</defs>
</svg>
