<?xml version="1.0" standalone="no"?>
<!DOCTYPE svg PUBLIC "-//W3C//DTD SVG 1.1//EN" "http://www.w3.org/Graphics/SVG/1.1/DTD/svg11.dtd" >
<svg xmlns="http://www.w3.org/2000/svg">
<metadata></metadata>
<defs>
<font id="verbcomplight" horiz-adv-x="880" >
<font-face units-per-em="2048" ascent="1638" descent="-410" />
<missing-glyph horiz-adv-x="413" />
<glyph unicode="ff" horiz-adv-x="1050" d="M66 973v102h100v178q0 240 158 240q80 0 229 -66l-49 -94q-111 47 -154 47q-65 0 -65 -114v-191h198v-102h-198v-973h-119v973h-100zM592 973v102h100v178q0 240 158 240q80 0 229 -66l-49 -94q-111 47 -153 47q-66 0 -66 -114v-191h199v-102h-199v-973h-119v973h-100z " />
<glyph unicode="fi" horiz-adv-x="911" d="M66 973v102h100v178q0 240 158 240q64 0 184 -51l-35 -99q-77 37 -123 37q-65 0 -65 -114v-191h198v-102h-198v-973h-119v973h-100zM653 1309v178h129v-178h-129zM659 0v1075h119v-1075h-119z" />
<glyph unicode="fl" horiz-adv-x="927" d="M66 973v102h100v178q0 240 158 240q64 0 184 -51l-35 -99q-77 37 -123 37q-65 0 -65 -114v-191h198v-102h-198v-973h-119v973h-100zM668 0v1493h118v-1493h-118z" />
<glyph unicode="ffi" horiz-adv-x="1437" d="M66 973v102h100v178q0 240 158 240q80 0 229 -66l-49 -94q-111 47 -154 47q-65 0 -65 -114v-191h198v-102h-198v-973h-119v973h-100zM592 973v102h100v178q0 240 158 240q64 0 184 -51l-35 -99q-77 37 -122 37q-66 0 -66 -114v-191h199v-102h-199v-973h-119v973h-100z M1178 1309v178h129v-178h-129zM1184 0v1075h119v-1075h-119z" />
<glyph unicode="ffl" horiz-adv-x="1452" d="M66 973v102h100v178q0 240 158 240q80 0 229 -66l-49 -94q-111 47 -154 47q-65 0 -65 -114v-191h198v-102h-198v-973h-119v973h-100zM592 973v102h100v178q0 240 158 240q64 0 184 -51l-35 -99q-77 37 -122 37q-66 0 -66 -114v-191h199v-102h-199v-973h-119v973h-100z M1192 0v1493h119v-1493h-119z" />
<glyph unicode="ffk" horiz-adv-x="1826" d="M66 973v102h100v178q0 240 158 240q80 0 229 -66l-49 -94q-111 47 -154 47q-65 0 -65 -114v-191h198v-102h-198v-973h-119v973h-100zM592 973v102h100v178q0 240 158 240q64 0 184 -51l-35 -99q-77 37 -122 37q-66 0 -66 -114v-191h199v-102h-199v-973h-119v973h-100z M1184 0v1493h119v-995l309 577h135l-256 -438l301 -637h-129l-240 524l-120 -209v-315h-119z" />
<glyph unicode="ffj" horiz-adv-x="1433" d="M66 973v102h100v178q0 240 158 240q80 0 229 -66l-49 -94q-111 47 -154 47q-65 0 -65 -114v-191h198v-102h-198v-973h-119v973h-100zM592 973v102h100v178q0 240 158 240q64 0 184 -51l-35 -99q-77 37 -122 37q-66 0 -66 -114v-191h199v-102h-199v-973h-119v973h-100z M1018 -326q45 21 70.5 34t46 32t29 30.5t14 41t6 50t0.5 70.5v1143h119v-1138q0 -78 -2 -111.5t-13.5 -78t-38 -68t-72 -50.5t-120.5 -55zM1178 1309v178h129v-178h-129z" />
<glyph unicode="fft" horiz-adv-x="1613" d="M66 973v102h100v178q0 240 158 240q80 0 229 -66l-49 -94q-111 47 -154 47q-65 0 -65 -114v-191h198v-102h-198v-973h-119v973h-100zM592 973v102h100v178q0 240 158 240q80 0 229 -66l-49 -94q-111 47 -153 47q-66 0 -66 -114v-191h199v-102h-199v-973h-119v973h-100z M1110 973v102h102v264l119 47v-311h203v-102h-203v-764q0 -119 68 -119q50 0 135 53l49 -94q-119 -72 -211 -72q-160 0 -160 234v762h-102z" />
<glyph unicode="fh" horiz-adv-x="1419" d="M66 973v102h100v178q0 240 158 240q64 0 184 -51l-35 -99q-77 37 -123 37q-65 0 -65 -114v-191h198v-102h-198v-973h-119v973h-100zM659 0v1493h119v-578q35 37 62 62t69.5 56.5t88.5 48t94 16.5q69 0 115 -39t64.5 -98t18.5 -136v-825h-119v809q0 180 -118 180 q-41 0 -85 -21t-81.5 -55t-62.5 -61t-46 -55v-797h-119z" />
<glyph unicode="fj" horiz-adv-x="907" d="M66 973v102h100v178q0 240 158 240q64 0 184 -51l-35 -99q-77 37 -123 37q-65 0 -65 -114v-191h198v-102h-198v-973h-119v973h-100zM494 -326q33 16 54.5 26.5t40.5 24t29.5 21.5t19.5 25.5t12.5 27t6 35t2.5 41.5v54v3v1143h119v-1138q0 -78 -2 -111.5t-13.5 -78 t-38 -68t-72 -50.5t-120.5 -55zM653 1309v178h129v-178h-129z" />
<glyph unicode="fk" horiz-adv-x="1302" d="M66 973v102h100v178q0 240 158 240q64 0 184 -51l-35 -99q-77 37 -123 37q-65 0 -65 -114v-191h198v-102h-198v-973h-119v973h-100zM659 0v1493h119v-995l309 577h136l-256 -438l301 -637h-129l-240 524l-121 -209v-315h-119z" />
<glyph unicode="ft" horiz-adv-x="1087" d="M66 973v102h100v178q0 240 158 240q80 0 229 -66l-49 -94q-111 47 -154 47q-65 0 -65 -114v-191h198v-102h-198v-973h-119v973h-100zM584 973v102h102v264l119 47v-311h203v-102h-203v-764q0 -119 67 -119q51 0 136 53l49 -94q-119 -72 -211 -72q-160 0 -160 234v762 h-102z" />
<glyph unicode="ffh" horiz-adv-x="1943" d="M66 973v102h100v178q0 240 158 240q80 0 229 -66l-49 -94q-111 47 -154 47q-65 0 -65 -114v-191h198v-102h-198v-973h-119v973h-100zM592 973v102h100v178q0 240 158 240q64 0 184 -51l-35 -99q-77 37 -122 37q-66 0 -66 -114v-191h199v-102h-199v-973h-119v973h-100z M1184 0v1493h119v-578q36 38 62.5 62.5t68.5 56t88 48t94 16.5q102 0 150.5 -77t48.5 -196v-825h-119v809q0 180 -119 180q-41 0 -85 -21t-81.5 -55t-62 -61t-45.5 -55v-797h-119z" />
<glyph unicode="ffb" horiz-adv-x="1937" d="M66 973v102h100v178q0 240 158 240q80 0 229 -66l-49 -94q-111 47 -154 47q-65 0 -65 -114v-191h198v-102h-198v-973h-119v973h-100zM592 973v102h100v178q0 240 158 240q64 0 184 -51l-35 -99q-77 37 -122 37q-66 0 -66 -114v-191h199v-102h-199v-973h-119v973h-100z M1184 0v1493h119v-565q124 170 260 170q125 0 202.5 -137.5t77.5 -423.5q0 -285 -77.5 -422.5t-202.5 -137.5q-137 0 -260 168v-145h-119zM1303 270q42 -78 105.5 -130t127.5 -52q92 0 138 118.5t46 330.5q0 214 -46 332t-138 118q-64 0 -127 -53t-106 -131v-533z" />
<glyph unicode="fb" horiz-adv-x="1413" d="M66 973v102h100v178q0 240 158 240q64 0 184 -51l-35 -99q-77 37 -123 37q-65 0 -65 -114v-191h198v-102h-198v-973h-119v973h-100zM659 0v1493h119v-565q124 170 260 170q125 0 203 -137.5t78 -423.5q0 -285 -78 -422.5t-203 -137.5q-137 0 -260 168v-145h-119zM778 270 q42 -78 105.5 -130t128.5 -52q92 0 138 118.5t46 330.5q0 214 -46 332t-138 118q-64 0 -127.5 -53t-106.5 -131v-533z" />
<glyph unicode=" "  horiz-adv-x="413" />
<glyph unicode="&#x09;" horiz-adv-x="413" />
<glyph unicode="&#xa0;" horiz-adv-x="413" />
<glyph unicode="!" horiz-adv-x="454" d="M154 1434h145l-35 -1016h-76zM158 0v211h139v-211h-139z" />
<glyph unicode="&#x22;" horiz-adv-x="622" d="M115 1434h127l-25 -523h-78zM381 1434h127l-25 -523h-77z" />
<glyph unicode="#" horiz-adv-x="1091" d="M86 383v102h201l49 461h-191v103h203l41 385h98l-41 -385h269l41 385h98l-41 -385h191v-103h-203l-49 -461h192v-102h-203l-41 -383h-96l41 383h-270l-41 -383h-98l40 383h-190zM385 485h270l50 461h-271z" />
<glyph unicode="$" horiz-adv-x="915" d="M90 127l66 98q153 -106 258 -127v596l-13 8q-55 37 -87 61t-75.5 65t-67 79t-41 92.5t-17.5 116.5q0 152 84 240.5t217 97.5v186h92v-188q141 -19 278 -109l-65 -98q-125 72 -213 88v-549q41 -28 62 -42.5t60 -45.5t61 -54.5t51 -60.5t44 -72t26 -82t11 -97 q0 -159 -90.5 -249.5t-224.5 -100.5v-185h-92v189q-88 11 -173 51.5t-151 91.5zM242 1120q0 -86 43 -147t129 -123v485q-76 -11 -124 -65.5t-48 -149.5zM506 96q81 11 134.5 71.5t53.5 162.5q0 93 -47.5 161.5t-140.5 137.5v-533z" />
<glyph unicode="%" horiz-adv-x="1435" d="M82 1077q0 114 26 197t84.5 132.5t145.5 49.5q127 0 189.5 -102.5t62.5 -276.5q0 -177 -63 -283t-189 -106q-129 0 -192.5 106t-63.5 283zM184 1077q0 -85 14 -148.5t49.5 -105t90.5 -41.5q78 0 113.5 81.5t35.5 213.5q0 285 -149 285q-154 0 -154 -285zM408 0l516 1434 h102l-516 -1434h-102zM844 367q0 174 63 276t193 102q128 0 191 -102t63 -276q0 -177 -63 -283.5t-191 -106.5q-129 0 -192.5 106.5t-63.5 283.5zM946 367q0 -85 14 -148.5t49.5 -105t90.5 -41.5q78 0 113.5 81.5t35.5 213.5q0 284 -149 284q-154 0 -154 -284z" />
<glyph unicode="&#x26;" horiz-adv-x="1030" d="M125 336q0 125 54.5 225.5t154.5 214.5q-65 97 -101 184t-36 195q0 77 22 136.5t58.5 94.5t80 52.5t91.5 17.5q103 0 168 -75t65 -197q0 -111 -53 -206t-150 -208l256 -377q59 170 76 363h121q-24 -262 -123 -473l195 -283h-146l-113 166q-129 -189 -305 -189 q-135 0 -225 99.5t-90 259.5zM244 356q0 -42 11 -86t32.5 -86.5t62 -70t92.5 -27.5q136 0 236 180l-279 412q-74 -88 -114.5 -164t-40.5 -158zM311 1153q0 -77 28 -144t75 -141q74 85 113.5 156.5t39.5 151.5q0 71 -31 122.5t-92 51.5q-63 0 -98 -55.5t-35 -141.5z" />
<glyph unicode="'" horiz-adv-x="356" d="M115 1434h127l-25 -523h-78z" />
<glyph unicode="(" horiz-adv-x="491" d="M147 53v1317q0 68 2.5 101t14.5 75.5t38 67t72.5 51.5t118.5 53l37 -94q-25 -12 -43 -21t-34.5 -19.5t-27 -17.5t-20 -19t-15 -19t-10 -22.5t-6 -25t-3 -30.5t-1.5 -36v-44v-1315v-44t1.5 -36t3 -30.5t6 -25t10 -22.5t15 -19t20 -19t27 -17.5t34.5 -19.5t43 -21l-37 -94 q-36 13 -65.5 25.5t-53 26.5t-41.5 25.5t-31.5 28.5t-22.5 30t-15 34t-9.5 36t-5 42t-2 45.5t-0.5 52.5z" />
<glyph unicode=")" horiz-adv-x="491" d="M61 -199q25 12 43 21t34.5 19.5t27 17.5t20 19t15 19t10 22.5t6 25t3 30.5t1.5 36v44v1315v44t-1.5 36t-3 30.5t-6 25t-10 22.5t-15 19t-20 19t-27 17.5t-34.5 19.5t-43 21l37 94q36 -13 65.5 -25.5t53 -26.5t41.5 -25.5t31.5 -28.5t22.5 -30t15 -34t9.5 -36t5 -42 t2 -45.5t0.5 -52.5v-1317q0 -68 -2.5 -101t-14.5 -75.5t-38 -67t-72.5 -51.5t-118.5 -53z" />
<glyph unicode="*" horiz-adv-x="854" d="M113 965l260 120l-258 123l53 92l231 -170l-28 287h110l-26 -284l231 167l53 -96l-258 -119l258 -122l-55 -95l-227 168l24 -286h-110l28 288l-231 -170z" />
<glyph unicode="+" d="M86 629v106h301v342h102v-342h304v-106h-304v-340h-102v340h-301z" />
<glyph unicode="," horiz-adv-x="393" d="M117 -207l71 207h-63v217h135l16 -225l-114 -242z" />
<glyph unicode="-" horiz-adv-x="655" d="M127 526v113h401v-113h-401z" />
<glyph unicode="." horiz-adv-x="389" d="M125 0v217h139v-217h-139z" />
<glyph unicode="/" horiz-adv-x="643" d="M41 -184l467 1802h96l-465 -1802h-98z" />
<glyph unicode="0" horiz-adv-x="970" d="M115 717q0 739 370 739q371 0 371 -739q0 -740 -371 -740q-370 0 -370 740zM240 717q0 -147 13 -259t41 -197t76 -129t115 -44q246 0 246 629q0 147 -13 258.5t-41.5 195.5t-76.5 128t-115 44q-130 0 -187.5 -162.5t-57.5 -463.5z" />
<glyph unicode="1" horiz-adv-x="579" d="M53 1253l238 181h112v-1434h-124v1292l-166 -129z" />
<glyph unicode="2" horiz-adv-x="866" d="M92 0v104q0 59 8.5 113t20.5 96t34.5 85.5t41.5 73t50 67t51.5 58.5t55.5 57.5t52 54.5q223 244 223 426q0 94 -54 149t-139 55q-117 0 -254 -108l-63 92q164 133 327 133q135 0 221.5 -86t86.5 -235q0 -67 -19.5 -134t-47.5 -120.5t-71.5 -112.5t-80 -100t-83.5 -93 q-19 -20 -28 -30q-55 -60 -83.5 -96.5t-57.5 -88.5t-40.5 -109.5t-11.5 -133.5h525v-117h-664z" />
<glyph unicode="3" horiz-adv-x="872" d="M74 98l65 97q136 -101 254 -101q107 0 177.5 82t70.5 217q0 86 -31 153.5t-81 106t-105 57.5t-109 19h-26v119h33q107 0 191.5 79.5t84.5 207.5q0 97 -50.5 150.5t-137.5 53.5q-114 0 -232 -94l-59 84q146 127 309 127q139 0 217 -88.5t78 -218.5q0 -108 -57 -205 t-170 -151q120 -36 196 -145t76 -261q0 -79 -22.5 -151t-65 -130.5t-113.5 -93.5t-161 -35q-101 0 -191 39t-141 82z" />
<glyph unicode="4" horiz-adv-x="923" d="M66 330v106l471 998h161v-988h152v-116h-152v-330h-123v330h-509zM182 446h393v834z" />
<glyph unicode="5" horiz-adv-x="862" d="M90 115l60 102q139 -121 247 -121q98 0 169 98t71 252q0 144 -61.5 242t-169.5 98q-94 0 -207 -92l-66 35l53 705h539v-117h-436l-25 -463q78 47 168 47q101 0 178 -62.5t115.5 -165t38.5 -227.5q0 -91 -22.5 -174t-64.5 -149.5t-111 -106t-154 -39.5q-162 0 -322 138z " />
<glyph unicode="6" horiz-adv-x="915" d="M111 573q-1 171 27 316.5t76.5 248.5t114.5 175.5t141.5 107.5t156.5 35q34 0 66.5 -5.5t48.5 -10.5l16 -6l-29 -111q-45 18 -98 18q-65 0 -126.5 -36t-116 -106.5t-93.5 -189t-53 -270.5q16 28 37 54t53.5 55t78 47t95.5 18q98 0 171 -63.5t108.5 -165.5t35.5 -225 q0 -130 -40.5 -239t-120 -176t-183.5 -67q-91 0 -162.5 51t-114.5 136.5t-65.5 189.5t-23.5 219zM236 569q0 -129 25 -234.5t81 -174t135 -68.5q71 0 123 55.5t75 136.5t23 175q0 87 -20.5 162t-70.5 128.5t-122 53.5q-47 0 -91 -22.5t-74.5 -57.5t-52 -74t-31.5 -76v-4z " />
<glyph unicode="7" horiz-adv-x="745" d="M61 1317v117h637v-101q-15 -27 -39 -74.5t-86 -197t-109.5 -299t-86.5 -360.5t-39 -402h-131q0 172 34.5 367t79 343.5t100.5 294t86.5 211t49.5 101.5h-496z" />
<glyph unicode="8" horiz-adv-x="935" d="M102 346q0 255 263 424q-203 141 -203 363q0 142 86 232.5t219 90.5t220 -90.5t87 -232.5q0 -221 -205 -363q40 -26 72.5 -51t70 -65t63 -83t42.5 -101.5t17 -123.5q0 -171 -103 -270t-264 -99q-160 0 -262.5 99t-102.5 270zM229 350q0 -122 68 -191t170 -69 q104 0 172 69t68 191q0 53 -14 100.5t-36 83t-55.5 69.5t-64 57.5t-70.5 48.5q-50 -32 -87 -63t-74 -75t-57 -100t-20 -121zM283 1120q0 -174 184 -289q186 113 186 289q0 96 -52 161t-134 65t-133 -65t-51 -161z" />
<glyph unicode="9" horiz-adv-x="915" d="M92 975q0 130 40.5 238.5t120.5 175.5t185 67q91 0 163 -51t115 -136.5t65.5 -189.5t23.5 -219q1 -171 -27 -316.5t-76.5 -248.5t-114.5 -175.5t-141.5 -107.5t-156.5 -35q-34 0 -66.5 5.5t-48.5 11.5l-16 6l28 111q46 -19 99 -19q64 0 125 35.5t114.5 105.5t92.5 188 t53 269q-36 -64 -102 -117t-158 -53q-146 0 -232 132.5t-86 322.5zM217 975q0 -88 20.5 -163t70.5 -128t122 -53q88 0 155 68.5t93 150.5v14q0 128 -25.5 234t-80.5 174.5t-132 68.5q-72 0 -124.5 -55t-75.5 -136t-23 -175z" />
<glyph unicode=":" horiz-adv-x="397" d="M129 0v217h139v-217h-139zM129 715v217h139v-217h-139z" />
<glyph unicode=";" horiz-adv-x="419" d="M129 -207l72 207h-64v217h135l17 -225l-115 -242zM137 715v217h139v-217h-139z" />
<glyph unicode="&#x3c;" d="M68 633v102l704 432v-139l-588 -346l588 -344v-139z" />
<glyph unicode="=" d="M86 449v108h707v-108h-707zM86 813v107h707v-107h-707z" />
<glyph unicode="&#x3e;" d="M109 201v139l587 346l-587 344v139l704 -434v-102z" />
<glyph unicode="?" horiz-adv-x="749" d="M68 1325q56 52 135.5 91.5t169.5 39.5q124 0 211.5 -78.5t87.5 -222.5q0 -253 -301 -403l-13 -334h-88l-12 399q133 58 212 137t79 191q0 91 -54 142.5t-137 51.5q-100 0 -225 -96zM246 0v211h137v-211h-137z" />
<glyph unicode="@" horiz-adv-x="1421" d="M100 516q0 251 74 451.5t217.5 319t333.5 118.5q183 0 316 -112.5t201 -311t69 -461.5q0 -164 -29.5 -289t-91 -198.5t-148.5 -73.5q-48 0 -83 23t-54 61.5t-28.5 75.5t-12.5 80q-105 -150 -225 -150q-40 0 -76 15t-69 47.5t-52.5 93t-19.5 141.5q0 153 65.5 232 t161.5 79q25 0 59 -7t55.5 -14t58 -19.5t42.5 -14.5v139q0 102 -29 148.5t-100 46.5q-87 0 -225 -80l-45 84q151 92 285 92q215 0 215 -278v-457q0 -35 0.5 -54.5t2.5 -54t8 -54.5t15 -42t25 -32.5t37 -10.5q30 0 58.5 23t55.5 74t43.5 148t16.5 228q0 231 -54.5 408 t-170.5 284t-281 107q-169 0 -293 -112t-184 -292.5t-60 -402.5q0 -223 60.5 -403t176.5 -287t269 -107q70 0 134 22t93 44l29 22l47 -61q-4 -5 -12.5 -12t-38 -26.5t-62 -34t-84 -26.5t-106.5 -12q-175 0 -310.5 118t-207.5 318t-72 447zM520 346q0 -101 41 -151t103 -50 q58 0 105 41.5t95 116.5v225q-10 2 -47 14t-71 19.5t-62 7.5q-44 0 -77 -18.5t-51.5 -50.5t-27 -70.5t-8.5 -83.5z" />
<glyph unicode="A" horiz-adv-x="1003" d="M53 0l381 1434h135l379 -1434h-133l-92 373h-444l-91 -373h-135zM307 487h387l-192 787z" />
<glyph unicode="B" horiz-adv-x="999" d="M160 0v1434h301q184 0 283.5 -91.5t99.5 -259.5q0 -74 -21 -135t-53.5 -99t-67.5 -60.5t-69 -28.5q32 -6 64.5 -19.5t70 -43t65.5 -69.5t47 -104.5t19 -142.5q0 -179 -96 -280t-277 -101h-366zM285 113h231q129 0 194.5 79t65.5 209q0 146 -80 221.5t-231 75.5h-180v-585 zM285 809h170q121 0 194.5 65t73.5 193q0 116 -65 185t-195 69h-178v-512z" />
<glyph unicode="C" horiz-adv-x="946" d="M111 717q0 189 30 333t83 231.5t121.5 131t150.5 43.5q52 0 103 -16.5t102.5 -50.5t86.5 -62.5t89 -77.5l-72 -86q-6 5 -35.5 30.5t-41 35t-38.5 31t-44.5 31t-42.5 22t-47.5 17.5t-45.5 5q-124 0 -198 -164t-74 -454t74.5 -454.5t197.5 -164.5q18 0 35.5 3t37 11.5 t34 14t36 21t32 22t34 26.5t29.5 24.5t31.5 27t27.5 24.5l70 -88q-54 -49 -89 -77.5t-86.5 -62.5t-102.5 -50.5t-103 -16.5q-82 0 -150.5 43.5t-121.5 131t-83 232t-30 333.5z" />
<glyph unicode="D" horiz-adv-x="1038" d="M160 0v1434h243q525 0 525 -717t-525 -717h-243zM285 117h118q205 0 302.5 146t97.5 454t-97.5 454t-302.5 146h-118v-1200z" />
<glyph unicode="E" horiz-adv-x="888" d="M160 0v1434h624v-117h-499v-543h413v-115h-413v-542h508v-117h-633z" />
<glyph unicode="F" horiz-adv-x="845" d="M160 0v1434h624v-117h-499v-543h399v-117h-399v-657h-125z" />
<glyph unicode="G" horiz-adv-x="1034" d="M111 717q0 152 20.5 276t56 209t84.5 143t106 84.5t122 26.5q56 0 111 -19t107 -55t89.5 -68t85.5 -79l-72 -90q-6 6 -35 32.5t-42 37.5t-41 34t-47.5 34.5t-45.5 25.5t-51 20t-49 6q-124 0 -198 -164.5t-74 -457.5q0 -285 74.5 -452t197.5 -167q127 0 281 221v340h-271 v113h389v-768h-118v170q-154 -193 -302 -193q-77 0 -143.5 43.5t-120 130.5t-84 232t-30.5 334z" />
<glyph unicode="H" horiz-adv-x="1054" d="M160 0v1434h125v-625h485v625h125v-1434h-125v694h-485v-694h-125z" />
<glyph unicode="I" horiz-adv-x="444" d="M160 0v1434h125v-1434h-125z" />
<glyph unicode="J" horiz-adv-x="444" d="M-6 -178q33 16 55 26.5t41 24.5t29.5 22t19.5 25t12.5 27t6 35t2.5 41v53v1358h125v-1354q0 -78 -2 -111.5t-13.5 -78t-38.5 -68t-73 -50.5t-121 -55z" />
<glyph unicode="K" horiz-adv-x="970" d="M160 0v1434h125v-799l456 799h150l-408 -682l449 -752h-152l-366 635l-129 -215v-420h-125z" />
<glyph unicode="L" horiz-adv-x="817" d="M160 0v1434h125v-1317h483v-117h-608z" />
<glyph unicode="M" horiz-adv-x="1236" d="M160 0v1434h133l325 -1000l326 1000h133v-1434h-123v1161l-299 -921h-73l-297 915v-1155h-125z" />
<glyph unicode="N" horiz-adv-x="1077" d="M160 0v1434h127l506 -1186v1186h125v-1434h-130l-503 1184v-1184h-125z" />
<glyph unicode="O" horiz-adv-x="1085" d="M109 717q0 739 434 739q432 0 432 -739q0 -740 -432 -740q-434 0 -434 740zM238 717q0 -109 8.5 -197.5t29.5 -169t55 -135.5t87.5 -87t124.5 -32t124.5 32t87 86.5t54.5 135.5t29 169.5t8 197.5q0 137 -14 242.5t-46.5 194t-93.5 136t-149 47.5q-71 0 -124.5 -32 t-87.5 -87t-55 -135.5t-29.5 -169t-8.5 -196.5z" />
<glyph unicode="P" horiz-adv-x="960" d="M160 0v1434h305q96 0 169.5 -22t130 -71t86.5 -133.5t30 -203.5t-30 -204t-86.5 -133.5t-130 -71t-169.5 -22.5h-180v-573h-125zM285 690h186q283 0 283 314q0 165 -76.5 239t-206.5 74h-186v-627z" />
<glyph unicode="Q" horiz-adv-x="1085" d="M109 717q0 739 434 739q432 0 432 -739q0 -623 -309 -721l176 -205l-86 -92l-213 278q-434 0 -434 740zM238 717q0 -109 8.5 -197.5t29.5 -169t55 -135.5t87.5 -87t124.5 -32t124.5 32t87 86.5t54.5 135.5t29 169.5t8 197.5q0 137 -14 242.5t-46.5 194t-93.5 136 t-149 47.5q-71 0 -124.5 -32t-87.5 -87t-55 -135.5t-29.5 -169t-8.5 -196.5z" />
<glyph unicode="R" horiz-adv-x="1015" d="M160 0v1434h336q417 0 417 -404q0 -330 -278 -393l278 -637h-135l-266 625h-227v-625h-125zM285 739h211q134 0 211 70t77 221q0 150 -76 219.5t-206 69.5h-217v-580z" />
<glyph unicode="S" horiz-adv-x="901" d="M84 127l66 98q191 -131 313 -131q94 0 159.5 61t65.5 175q0 37 -8.5 70.5t-20.5 60t-36.5 55.5t-43.5 48t-56 47.5t-60 44.5t-68 46q-55 37 -87 61t-76 65t-67.5 79t-41 92.5t-17.5 116.5q0 160 94 250t238 90q86 0 177 -32.5t163 -80.5l-65 -98q-157 94 -269 94 q-89 0 -148.5 -55.5t-59.5 -163.5q0 -56 17.5 -101t58.5 -87t78 -70t106 -74q40 -27 62.5 -42.5t61.5 -46t61.5 -54.5t51.5 -61t44.5 -73t26.5 -83t11 -98q0 -113 -49.5 -195t-126 -120t-168.5 -38q-102 0 -203.5 44t-183.5 106z" />
<glyph unicode="T" horiz-adv-x="837" d="M49 1317v117h739v-117h-309v-1317h-123v1317h-307z" />
<glyph unicode="U" horiz-adv-x="1044" d="M152 422v1012h122v-1012q0 -58 6 -103.5t22.5 -88.5t43.5 -71.5t71 -45.5t103 -17q73 0 123 25t76.5 71.5t37.5 101.5t11 128v1012h125v-1012q0 -445 -373 -445q-368 0 -368 445z" />
<glyph unicode="V" horiz-adv-x="999" d="M51 1434h137l312 -1268l311 1268h135l-379 -1434h-135z" />
<glyph unicode="W" horiz-adv-x="1372" d="M70 1434h137l205 -1211l215 1211h116l213 -1211l207 1211h137l-272 -1434h-131l-213 1186l-211 -1186h-131z" />
<glyph unicode="X" horiz-adv-x="917" d="M51 0l340 713l-323 721h141l250 -609l250 609h141l-324 -719l340 -715h-145l-262 596l-262 -596h-146z" />
<glyph unicode="Y" horiz-adv-x="927" d="M43 1434h137l283 -742l285 742h137l-361 -871v-563h-123v569z" />
<glyph unicode="Z" horiz-adv-x="909" d="M76 0v109l594 1208h-564v117h709v-107l-596 -1210h604v-117h-747z" />
<glyph unicode="[" horiz-adv-x="534" d="M158 -295v2013h311v-100h-186v-1813h186v-100h-311z" />
<glyph unicode="\" horiz-adv-x="643" d="M39 1618h96l469 -1802h-98z" />
<glyph unicode="]" horiz-adv-x="534" d="M66 -195h186v1813h-186v100h311v-2013h-311v100z" />
<glyph unicode="^" horiz-adv-x="878" d="M113 725l266 709h121l266 -709h-127l-201 596l-200 -596h-125z" />
<glyph unicode="_" horiz-adv-x="1032" d="M125 -176h782v-103h-782v103z" />
<glyph unicode="`" horiz-adv-x="301" d="M-16 1493h159l174 -262h-98z" />
<glyph unicode="a" horiz-adv-x="851" d="M84 315q0 178 76 267.5t190 89.5q30 0 70.5 -8t63 -14.5t71 -22.5t51.5 -17v172q0 106 -33.5 157.5t-115.5 51.5q-42 0 -92.5 -15t-82 -29.5t-100.5 -49.5l-49 98q208 103 338 103q122 0 187 -71t65 -228v-799h-117v147q-131 -170 -276 -170q-48 0 -90 18t-78 56 t-57 105.5t-21 158.5zM207 319q0 -117 42.5 -173t112.5 -56q128 0 244 170v264q-142 51 -215 51q-66 0 -109 -37.5t-59 -92t-16 -126.5z" />
<glyph unicode="b" horiz-adv-x="886" d="M133 0v1493h119v-565q124 170 260 170q125 0 203 -137.5t78 -423.5q0 -285 -78 -422.5t-203 -137.5q-137 0 -260 168v-145h-119zM252 270q42 -78 105 -130t128 -52q92 0 138.5 118.5t46.5 330.5q0 214 -46.5 332t-138.5 118q-64 0 -127 -53t-106 -131v-533z" />
<glyph unicode="c" horiz-adv-x="765" d="M92 539q0 267 92 413t226 146q26 0 51.5 -5t51 -16t45 -21t43.5 -27t36 -26t34 -27t27 -22l-63 -90q-3 3 -23 20t-31 26.5t-34 26t-40.5 25.5t-40 16t-42.5 7q-91 0 -150 -121.5t-59 -324.5t58.5 -326t148.5 -123q20 0 43.5 7.5t41.5 16.5t41 25t35 25.5t31 26t21 18.5 l63 -88l-20 -17q-20 -16 -25.5 -20.5t-26 -20.5t-31.5 -22t-31.5 -19t-36.5 -18.5t-36.5 -13t-40.5 -10.5t-40 -3q-134 0 -226 147.5t-92 414.5z" />
<glyph unicode="d" horiz-adv-x="886" d="M94 537q0 286 77.5 423.5t203.5 137.5q133 0 262 -170v565h117v-1493h-117v145q-127 -168 -262 -168q-126 0 -203.5 137.5t-77.5 422.5zM217 537q0 -212 46 -330.5t138 -118.5q65 0 127 51.5t109 130.5v533q-47 79 -109 131.5t-127 52.5q-92 0 -138 -118t-46 -332z" />
<glyph unicode="e" horiz-adv-x="843" d="M92 539q0 267 94.5 413t249.5 146q149 0 231.5 -128t82.5 -333q0 -35 -2 -68.5t-4 -50.5l-3 -16h-524q5 -191 61 -304.5t152 -113.5q23 0 48.5 7.5t44.5 16t48 27.5t41 28t42 33t34 27l66 -78q-194 -168 -334 -168q-142 0 -235 147.5t-93 414.5zM217 592h418v12 q0 389 -195 389q-101 0 -158 -106.5t-65 -294.5z" />
<glyph unicode="f" horiz-adv-x="526" d="M66 973v102h100v178q0 240 158 240q80 0 229 -66l-49 -94q-111 47 -154 47q-65 0 -65 -114v-191h198v-102h-198v-973h-119v973h-100z" />
<glyph unicode="g" horiz-adv-x="886" d="M94 537q0 286 77.5 423.5t203.5 137.5q133 0 262 -170v147h117v-1161q0 -99 -20 -168.5t-58.5 -109t-87.5 -57t-113 -17.5q-74 0 -168.5 20t-179.5 53l39 109q179 -74 289 -74q91 0 136.5 58t45.5 184v233q-127 -168 -262 -168q-126 0 -203.5 137.5t-77.5 422.5zM217 537 q0 -212 46 -330.5t138 -118.5q65 0 127 51.5t109 130.5v533q-47 79 -109 131.5t-127 52.5q-92 0 -138 -118t-46 -332z" />
<glyph unicode="h" horiz-adv-x="892" d="M133 0v1493h119v-578q36 38 62.5 62.5t68.5 56t88 48t94 16.5q102 0 150.5 -77t48.5 -196v-825h-119v809q0 180 -119 180q-41 0 -85 -21t-81.5 -55t-62 -61t-45.5 -55v-797h-119z" />
<glyph unicode="i" horiz-adv-x="385" d="M127 1309v178h129v-178h-129zM133 0v1075h119v-1075h-119z" />
<glyph unicode="j" horiz-adv-x="382" d="M-33 -326q45 21 70.5 34t46 32t29 30.5t14 41t6 50t0.5 70.5v1143h119v-1138q0 -78 -2 -111.5t-13.5 -78t-38 -68t-72 -50.5t-120.5 -55zM127 1309v178h129v-178h-129z" />
<glyph unicode="k" horiz-adv-x="776" d="M133 0v1493h119v-995l309 577h135l-256 -438l301 -637h-129l-239 524l-121 -209v-315h-119z" />
<glyph unicode="l" horiz-adv-x="401" d="M141 0v1493h119v-1493h-119z" />
<glyph unicode="m" horiz-adv-x="1333" d="M133 0v1075h119v-168q136 191 280 191q46 0 82.5 -19.5t57.5 -51.5t33 -63t18 -65q140 199 289 199q50 0 88 -22t60 -61t33 -86.5t11 -103.5v-825h-119v803q0 83 -27 134.5t-87 51.5q-118 0 -244 -201v-788h-117v803q0 83 -28 134.5t-88 51.5q-67 0 -130 -58.5 t-112 -137.5v-793h-119z" />
<glyph unicode="n" horiz-adv-x="892" d="M133 0v1075h119v-160q33 36 61 62t69.5 57t88 47.5t94.5 16.5q102 0 150.5 -77t48.5 -196v-825h-119v809q0 180 -119 180q-41 0 -85 -21t-81.5 -55t-62 -61t-45.5 -55v-797h-119z" />
<glyph unicode="o" d="M92 537q0 263 90 412t258 149q169 0 258.5 -148.5t89.5 -412.5t-89.5 -412t-258.5 -148q-168 0 -258 148.5t-90 411.5zM215 537q0 -451 225 -451q116 0 171 119t55 332t-55 332.5t-171 119.5q-225 0 -225 -452z" />
<glyph unicode="p" horiz-adv-x="886" d="M133 -418v1493h119v-147q124 170 260 170q125 0 203 -137.5t78 -423.5q0 -285 -78 -422.5t-203 -137.5q-137 0 -260 168v-563h-119zM252 270q42 -78 105 -130t128 -52q92 0 138.5 118.5t46.5 330.5q0 214 -46.5 332t-138.5 118q-64 0 -127 -53t-106 -131v-533z" />
<glyph unicode="q" horiz-adv-x="886" d="M94 537q0 286 77.5 423.5t203.5 137.5q133 0 262 -170v147h117v-1493h-117v563q-127 -168 -262 -168q-126 0 -203.5 137.5t-77.5 422.5zM217 537q0 -212 46 -330.5t138 -118.5q65 0 127 51.5t109 130.5v533q-47 79 -109 131.5t-127 52.5q-92 0 -138 -118t-46 -332z" />
<glyph unicode="r" horiz-adv-x="573" d="M133 0v1075h119v-231q6 20 14 41t32 63.5t53 72t77 51.5q38 17 80 16q12 0 24 -1v-122q-71 0 -126 -35t-83 -84.5t-45.5 -99t-21.5 -84.5l-4 -35v-627h-119z" />
<glyph unicode="s" horiz-adv-x="755" d="M78 106l61 91q157 -113 260 -113q65 0 111.5 43t46.5 123q0 48 -17.5 87.5t-52.5 70t-64 49t-75 41.5q-45 23 -70.5 37.5t-66 45.5t-62.5 61t-39.5 77t-17.5 102q0 125 73.5 201t190.5 76q134 0 291 -107l-61 -86q-130 86 -221 86q-69 0 -111.5 -43t-42.5 -117 q0 -46 16 -83t48.5 -64t54 -40t59.5 -32q4 -2 6.5 -3.5t5.5 -2.5q145 -72 211 -159t66 -197q0 -126 -76.5 -199.5t-191.5 -73.5q-85 0 -174 38.5t-158 90.5z" />
<glyph unicode="t" horiz-adv-x="563" d="M59 973v102h103v264l119 47v-311h202v-102h-202v-764q0 -119 67 -119q50 0 135 53l49 -94q-119 -72 -210 -72q-160 0 -160 234v762h-103z" />
<glyph unicode="u" horiz-adv-x="892" d="M129 250v825h119v-809q0 -180 119 -180q41 0 84.5 20.5t81.5 54t62 59.5t46 54v801h119v-1075h-119v158q-167 -181 -313 -181q-102 0 -150.5 77t-48.5 196z" />
<glyph unicode="v" horiz-adv-x="815" d="M53 1075h129l226 -913l225 913h129l-297 -1075h-117z" />
<glyph unicode="w" horiz-adv-x="1181" d="M63 1075h125l168 -889l183 889h104l180 -893l168 893h127l-231 -1075h-119l-178 866l-178 -866h-117z" />
<glyph unicode="x" horiz-adv-x="843" d="M43 0l309 541l-295 534h142l223 -446l221 446h141l-295 -530l310 -545h-146l-231 457l-234 -457h-145z" />
<glyph unicode="y" horiz-adv-x="815" d="M53 1075h129l226 -907l225 907h129l-414 -1493h-129l131 406z" />
<glyph unicode="z" horiz-adv-x="751" d="M74 0v104l467 863h-453v108h584v-102l-467 -862h467v-111h-598z" />
<glyph unicode="{" horiz-adv-x="595" d="M63 647v131q78 0 114 58t22 200l-19 191q-22 232 61 361.5t265 129.5h26v-100h-26q-229 0 -199 -365l17 -194q27 -290 -156 -346q183 -59 156 -346l-17 -195q-30 -365 199 -365h26v-100h-26q-182 0 -265 130t-61 362l19 190q14 142 -22 200t-114 58z" />
<glyph unicode="|" horiz-adv-x="413" d="M160 -252v1927h94v-1927h-94z" />
<glyph unicode="}" horiz-adv-x="600" d="M66 -193h26q229 0 199 365l-17 195q-27 290 156 346q-183 59 -156 346l17 194q30 365 -199 365h-26v100h26q182 0 265 -129.5t61 -361.5l-19 -191q-14 -142 22 -200t114 -58v-131q-78 0 -114 -58t-22 -200l19 -190q22 -232 -61 -362t-265 -130h-26v100z" />
<glyph unicode="~" d="M55 475q71 219 217 219q38 0 77 -15.5t70.5 -38t62.5 -44.5t65.5 -37.5t66.5 -15.5q38 0 69 27.5t62 109.5l80 -39q-71 -217 -219 -217q-45 0 -93.5 23.5t-84 52t-80 52t-82.5 23.5t-68.5 -28t-60.5 -109z" />
<glyph unicode="&#xa1;" horiz-adv-x="456" d="M158 0l35 1016h75l35 -1016h-145zM160 1223v211h139v-211h-139z" />
<glyph unicode="&#xa2;" horiz-adv-x="827" d="M106 719q0 255 85 400.5t212 156.5v158h95v-166q20 -6 40.5 -14.5t40.5 -20.5t35 -22t35 -25.5t29 -23t28.5 -23.5t22.5 -19l-63 -88q-5 4 -39 32.5t-66 51t-63 35.5v-868q24 9 52 27t45 32t41.5 35.5t29.5 25.5l63 -88l-22 -19q-22 -18 -29 -23.5t-28.5 -22.5 t-35.5 -25.5t-35 -21t-41 -21t-40 -14.5v-168h-95v158q-128 13 -212.5 158.5t-84.5 402.5zM229 719q0 -185 48 -303t126 -142v885q-78 -22 -126 -139.5t-48 -300.5z" />
<glyph unicode="&#xa3;" horiz-adv-x="825" d="M109 0v98q7 8 17.5 22t38.5 60t50 94.5t41.5 120.5t22.5 142h-156v100h149q-10 75 -44 164t-61.5 175t-27.5 171q0 146 74 227.5t199 81.5q63 0 127.5 -23.5t103.5 -48.5t88 -63l-67 -88q-74 54 -128 80t-106 26q-76 0 -122 -53.5t-46 -150.5q0 -71 27.5 -151t61 -171.5 t42.5 -175.5h225v-100h-223q-5 -127 -47 -241.5t-82 -178.5h449v-117h-606z" />
<glyph unicode="&#xa5;" horiz-adv-x="972" d="M66 1434h137l282 -742l285 742h137l-297 -717h207v-99h-248l-22 -55v-106h270v-99h-270v-358h-123v358h-272v99h272v112l-21 49h-251v99h210z" />
<glyph unicode="&#xa6;" horiz-adv-x="417" d="M162 -252v846h94v-846h-94zM162 829v846h94v-846h-94z" />
<glyph unicode="&#xa7;" horiz-adv-x="817" d="M102 692q0 88 44.5 148t119.5 86q-135 97 -135 256q0 123 73.5 198.5t190.5 75.5q135 0 291 -106l-63 -86q-123 86 -220 86q-69 0 -111 -42.5t-42 -117.5q0 -46 16 -83t48.5 -64t54 -40t59.5 -32q4 -2 6.5 -3.5t5.5 -2.5q277 -139 277 -349q0 -89 -45.5 -149t-120.5 -84 q135 -100 135 -256q0 -123 -73.5 -198.5t-188.5 -75.5q-140 0 -291 106l62 86q123 -86 219 -86q69 0 111 42.5t42 117.5q0 28 -7.5 54t-16.5 44t-29 37.5t-31.5 29.5t-37.5 24.5t-34 18.5l-34 17q-275 136 -275 348zM219 700q0 -39 14 -73t31.5 -57t51 -47.5t55.5 -37 t61 -32.5l14 -9q64 5 108 46t44 116q0 39 -14 74t-32.5 58.5t-51 48t-54.5 37.5t-59 32l-16 8q-65 -5 -108.5 -47t-43.5 -117z" />
<glyph unicode="&#xa8;" horiz-adv-x="323" d="M-16 1251v176h118v-176h-118zM223 1251v176h115v-176h-115z" />
<glyph unicode="&#xa9;" horiz-adv-x="1673" d="M106 717q0 156 49 290.5t140.5 234.5t231 157t311.5 57t311 -57t230 -157t139.5 -234.5t48.5 -290.5t-48.5 -290.5t-139.5 -234.5t-230 -157.5t-311 -57.5t-311.5 57.5t-231 157.5t-140.5 234.5t-49 290.5zM184 717q0 -141 43.5 -262t124.5 -211.5t205.5 -141.5 t278.5 -51q155 0 280 51t206.5 141.5t125 211.5t43.5 262t-43.5 262t-125 211t-206.5 141t-280 51q-154 0 -278.5 -51t-205.5 -141t-124.5 -211t-43.5 -262zM467 715q0 212 101.5 329t254.5 117q72 0 143 -23t109 -45.5t90 -58.5l-53 -63q-33 24 -52 36t-59.5 33.5t-83.5 32 t-90 10.5q-118 0 -193 -101.5t-75 -266.5q0 -164 75 -264.5t193 -100.5q38 0 77 9t63 17t60 29t45 27t40 27l53 -62q-52 -36 -90 -58.5t-109 -45.5t-143 -23q-152 0 -254 117t-102 328z" />
<glyph unicode="&#xaa;" horiz-adv-x="641" d="M98 981q0 104 47.5 157.5t120.5 53.5q42 0 156 -35v92q0 61 -19.5 89t-68.5 28q-25 0 -56.5 -9t-48.5 -16t-65 -28l-35 73q137 62 219 62q166 0 166 -193v-467h-92v84q-81 -98 -168 -98q-66 0 -111 51t-45 156zM193 983q0 -63 24.5 -94t63.5 -31q69 0 141 94v146 q-81 26 -125 26q-104 0 -104 -141z" />
<glyph unicode="&#xab;" horiz-adv-x="991" d="M68 535v88l428 460v-157l-332 -348l332 -349v-155zM461 535v88l428 460v-157l-332 -348l332 -349v-155z" />
<glyph unicode="&#xac;" d="M31 629v106h809v-551h-109v445h-700z" />
<glyph unicode="&#xad;" horiz-adv-x="655" d="M127 526v113h401v-113h-401z" />
<glyph unicode="&#xae;" horiz-adv-x="878" d="M104 1137q0 147 89.5 242.5t244.5 95.5q156 0 246 -95.5t90 -242.5t-90 -242.5t-246 -95.5q-155 0 -244.5 95.5t-89.5 242.5zM172 1137q0 -123 68 -201t198 -78q131 0 201 78t70 201q0 121 -70 198.5t-201 77.5q-130 0 -198 -77t-68 -199zM313 971v340h158q53 0 84 -27.5 t31 -71.5q0 -36 -23 -61t-61 -33l80 -147h-64l-78 145h-67v-145h-60zM373 1167h98q55 0 55 45q0 22 -11.5 33.5t-41.5 11.5h-100v-90z" />
<glyph unicode="&#xaf;" horiz-adv-x="409" d="M0 1282v94h410v-94h-410z" />
<glyph unicode="&#xb0;" horiz-adv-x="743" d="M92 1155q0 115 82 197t197 82q114 0 196 -82t82 -197q0 -114 -82 -195t-196 -81q-115 0 -197 81t-82 195zM184 1155q0 -76 54 -130t131 -54q76 0 131 54.5t55 129.5q0 78 -54.5 133t-131.5 55t-131 -55t-54 -133z" />
<glyph unicode="&#xb1;" d="M86 0v100h707v-100h-707zM86 625v106h303v311h100v-311h304v-106h-304v-314h-100v314h-303z" />
<glyph unicode="&#xb2;" horiz-adv-x="581" d="M70 788v68q0 35 5.5 67.5t11.5 56.5t22.5 52.5t24.5 43t32 41.5t30.5 34.5t35 35.5t32.5 32q139 142 139 241q0 51 -32 82t-80 31q-76 0 -160 -68l-45 70q103 88 215 88q88 0 143.5 -55.5t55.5 -147.5q0 -27 -6.5 -55t-13.5 -49.5t-24 -49.5t-27 -43t-34 -43.5 t-32.5 -37.5t-36 -37.5t-31.5 -32.5q-65 -65 -91 -111t-26 -124h322v-89h-430z" />
<glyph unicode="&#xb3;" horiz-adv-x="587" d="M59 854l50 72q85 -62 159 -62q63 0 104.5 44.5t41.5 119.5q0 49 -19 86t-50 57.5t-64 30.5t-66 10h-16v91h22q64 0 115 42.5t51 114.5q0 55 -29 84t-79 29q-67 0 -148 -60l-43 66q69 54 125 72q40 12 80 12q89 0 138.5 -54.5t49.5 -133.5q0 -65 -34.5 -122.5 t-100.5 -88.5q72 -22 118 -86.5t46 -153.5q0 -103 -58.5 -176.5t-170.5 -73.5q-116 0 -222 80z" />
<glyph unicode="&#xb4;" horiz-adv-x="301" d="M-16 1231l172 262h161l-233 -262h-100z" />
<glyph unicode="&#xb5;" horiz-adv-x="956" d="M160 -418v1493h119v-809q0 -180 118 -180q41 0 85 20.5t81.5 54t62 59.5t46.5 54v801h119v-1075h-119v158q-167 -181 -314 -181q-40 0 -79 17v-412h-119z" />
<glyph unicode="&#xb6;" horiz-adv-x="956" d="M68 1008q0 209 89.5 317.5t260.5 108.5h104v-1813h-106v961q-158 0 -253 111t-95 315zM678 -379v1813h106v-1813h-106z" />
<glyph unicode="&#xb7;" horiz-adv-x="393" d="M127 475v217h139v-217h-139z" />
<glyph unicode="&#xb8;" horiz-adv-x="243" d="M-6 -307l31 86q42 -29 69 -29q36 0 58 25t22 75q0 35 -11 73.5t-21 59.5l-11 21h62q6 -9 15 -26t24.5 -65.5t15.5 -92.5q0 -75 -39.5 -119.5t-102.5 -44.5q-57 0 -112 37z" />
<glyph unicode="&#xb9;" horiz-adv-x="446" d="M41 1534l156 115h86v-861h-93v756l-106 -78z" />
<glyph unicode="&#xba;" horiz-adv-x="647" d="M96 1110q0 159 58.5 248.5t167.5 89.5t167 -89.5t58 -248.5t-58 -247.5t-167 -88.5t-167.5 88.5t-58.5 247.5zM190 1110q0 -254 132 -254q131 0 131 254q0 256 -131 256q-132 0 -132 -256z" />
<glyph unicode="&#xbb;" horiz-adv-x="993" d="M102 72v157l332 349l-332 348v155l428 -460v-89zM496 72v157l331 349l-331 348v155l428 -460v-89z" />
<glyph unicode="&#xbc;" horiz-adv-x="1183" d="M59 1319l156 115h86v-861h-92v756l-107 -78zM244 0l469 1434h100l-469 -1434h-100zM600 190v78l289 592h125v-581h94v-89h-94v-190h-94v190h-320zM690 279h230v471z" />
<glyph unicode="&#xbd;" horiz-adv-x="1220" d="M59 1319l156 115h86v-861h-92v756l-107 -78zM244 0l469 1434h100l-469 -1434h-100zM692 0v68q0 35 5.5 67.5t12 56.5t22 52t25 43.5t32 41t31.5 35t35 35t32 31.5q139 142 139 242q0 51 -32 81.5t-81 30.5q-76 0 -159 -67l-45 69q103 88 215 88q88 0 143 -55t55 -147 q0 -27 -6.5 -55.5t-13 -49.5t-24.5 -49.5t-26.5 -42.5t-34 -43.5t-32 -37t-36 -38t-31.5 -32.5q-64 -64 -90.5 -111t-26.5 -125h321v-88h-430z" />
<glyph unicode="&#xbe;" horiz-adv-x="1345" d="M84 639l49 72q85 -62 160 -62q63 0 104 44.5t41 119.5q0 49 -19 86t-49.5 57.5t-63.5 30.5t-66 10h-17v90h23q64 0 115 43t51 115q0 55 -29 84t-80 29q-66 0 -147 -60l-43 66l8 6q8 7 12 10t14 10t17 11.5t19.5 11.5t22.5 11t24 9t27 8t29 5t31 2q89 0 139 -55t50 -133 q0 -65 -34.5 -122.5t-100.5 -88.5q72 -22 118 -86.5t46 -153.5q0 -48 -14 -92t-41 -80t-72 -57t-103 -21q-115 0 -221 80zM410 0l469 1434h100l-469 -1434h-100zM762 190v78l289 592h125v-581h94v-89h-94v-190h-95v190h-319zM852 279h229v471z" />
<glyph unicode="&#xbf;" horiz-adv-x="745" d="M78 279q0 253 301 403l12 334h88l13 -400q-63 -28 -112 -58t-91 -69.5t-65 -90t-23 -109.5q0 -91 54 -143t136 -52q100 0 225 96l66 -81q-56 -52 -136 -92t-169 -40q-124 0 -211.5 79t-87.5 223zM367 1223v211h137v-211h-137z" />
<glyph unicode="&#xc0;" horiz-adv-x="1003" d="M53 0l381 1434h135l379 -1434h-133l-92 373h-444l-91 -373h-135zM279 1802h159l174 -262h-98zM307 487h387l-192 787z" />
<glyph unicode="&#xc1;" horiz-adv-x="1003" d="M53 0l381 1434h135l379 -1434h-133l-92 373h-444l-91 -373h-135zM307 487h387l-192 787zM389 1540l172 262h162l-234 -262h-100z" />
<glyph unicode="&#xc2;" horiz-adv-x="1003" d="M53 0l381 1434h135l379 -1434h-133l-92 373h-444l-91 -373h-135zM293 1540l139 262h135l142 -262h-91l-118 184l-119 -184h-88zM307 487h387l-192 787z" />
<glyph unicode="&#xc3;" horiz-adv-x="1003" d="M53 0l381 1434h135l379 -1434h-133l-92 373h-444l-91 -373h-135zM279 1597q30 80 58.5 119t72.5 39q31 0 66 -24.5t64.5 -49t47.5 -24.5q19 0 33 17.5t36 76.5l66 -33q-31 -83 -58.5 -121t-72.5 -38q-31 0 -66 25t-65 50t-49 25q-16 0 -31.5 -19t-36.5 -75zM307 487h387 l-192 787z" />
<glyph unicode="&#xc4;" horiz-adv-x="1003" d="M53 0l381 1434h135l379 -1434h-133l-92 373h-444l-91 -373h-135zM307 487h387l-192 787zM324 1563v176h118v-176h-118zM563 1563v176h115v-176h-115z" />
<glyph unicode="&#xc5;" horiz-adv-x="1003" d="M53 0l381 1434h135l379 -1434h-133l-92 373h-444l-91 -373h-135zM307 487h387l-192 787zM322 1702q0 76 52 129t128 53t130 -53.5t54 -128.5q0 -76 -53.5 -129t-130.5 -53q-76 0 -128 52.5t-52 129.5zM397 1702q0 -44 30.5 -74.5t74.5 -30.5t75 30.5t31 74.5t-31 75 t-75 31t-74.5 -31t-30.5 -75z" />
<glyph unicode="&#xc6;" horiz-adv-x="1456" d="M10 0l676 1434h666v-117h-500v-543h414v-115h-414v-542h508v-117h-633v373h-403l-170 -373h-144zM377 487h350v762z" />
<glyph unicode="&#xc7;" horiz-adv-x="946" d="M111 717q0 189 30 333t83 231.5t121.5 131t150.5 43.5q52 0 103 -16.5t102.5 -50.5t86.5 -62.5t89 -77.5l-72 -86q-6 5 -35.5 30.5t-41 35t-38.5 31t-44.5 31t-42.5 22t-47.5 17.5t-45.5 5q-124 0 -198 -164t-74 -454t74.5 -454.5t197.5 -164.5q18 0 35.5 3t37 11.5 t34 14t36 21t32 22t34 26.5t29.5 24.5t31.5 27t27.5 24.5l70 -88q-94 -87 -172 -138.5t-164 -63.5q43 -83 43 -162q0 -75 -39.5 -119.5t-102.5 -44.5q-57 0 -112 37l30 86q42 -29 70 -29q36 0 58 25t22 75q0 52 -31 127q-79 4 -144.5 49.5t-116 133.5t-79 230.5t-28.5 326.5 z" />
<glyph unicode="&#xc8;" horiz-adv-x="888" d="M160 0v1434h624v-117h-499v-543h413v-115h-413v-542h508v-117h-633zM254 1802h160l174 -262h-99z" />
<glyph unicode="&#xc9;" horiz-adv-x="888" d="M160 0v1434h624v-117h-499v-543h413v-115h-413v-542h508v-117h-633zM365 1540l172 262h161l-233 -262h-100z" />
<glyph unicode="&#xca;" horiz-adv-x="888" d="M160 0v1434h624v-117h-499v-543h413v-115h-413v-542h508v-117h-633zM268 1540l140 262h135l141 -262h-90l-119 184l-119 -184h-88z" />
<glyph unicode="&#xcb;" horiz-adv-x="888" d="M160 0v1434h624v-117h-499v-543h413v-115h-413v-542h508v-117h-633zM299 1561v176h119v-176h-119zM539 1561v176h114v-176h-114z" />
<glyph unicode="&#xcc;" horiz-adv-x="444" d="M0 1802h160l174 -262h-98zM160 0v1434h125v-1434h-125z" />
<glyph unicode="&#xcd;" horiz-adv-x="444" d="M111 1540l172 262h161l-233 -262h-100zM160 0v1434h125v-1434h-125z" />
<glyph unicode="&#xce;" horiz-adv-x="446" d="M14 1540l140 262h135l141 -262h-90l-119 184l-119 -184h-88zM160 0v1434h125v-1434h-125z" />
<glyph unicode="&#xcf;" horiz-adv-x="442" d="M43 1561v176h119v-176h-119zM160 0v1434h125v-1434h-125zM283 1561v176h114v-176h-114z" />
<glyph unicode="&#xd0;" horiz-adv-x="1044" d="M59 662v110h105v662h244q524 0 524 -717t-524 -717h-244v662h-105zM289 117h119q205 0 302 146t97 454t-97 454t-302 146h-119v-545h235v-110h-235v-545z" />
<glyph unicode="&#xd1;" horiz-adv-x="1077" d="M160 0v1434h127l506 -1186v1186h125v-1434h-130l-503 1184v-1184h-125zM324 1599q30 80 58.5 119t72.5 39q31 0 66 -24.5t64.5 -49t47.5 -24.5q19 0 33 17.5t36 76.5l66 -33q-31 -83 -58.5 -121t-72.5 -38q-31 0 -66 25t-65 50t-49 25q-16 0 -31.5 -19t-36.5 -75z" />
<glyph unicode="&#xd2;" horiz-adv-x="1085" d="M109 717q0 739 434 739q432 0 432 -739q0 -740 -432 -740q-434 0 -434 740zM238 717q0 -109 8.5 -197.5t29.5 -169t55 -135.5t87.5 -87t124.5 -32t124.5 32t87 86.5t54.5 135.5t29 169.5t8 197.5q0 137 -14 242.5t-46.5 194t-93.5 136t-149 47.5q-71 0 -124.5 -32 t-87.5 -87t-55 -135.5t-29.5 -169t-8.5 -196.5zM322 1802h159l174 -262h-98z" />
<glyph unicode="&#xd3;" horiz-adv-x="1085" d="M109 717q0 739 434 739q432 0 432 -739q0 -740 -432 -740q-434 0 -434 740zM238 717q0 -109 8.5 -197.5t29.5 -169t55 -135.5t87.5 -87t124.5 -32t124.5 32t87 86.5t54.5 135.5t29 169.5t8 197.5q0 137 -14 242.5t-46.5 194t-93.5 136t-149 47.5q-71 0 -124.5 -32 t-87.5 -87t-55 -135.5t-29.5 -169t-8.5 -196.5zM432 1540l172 262h162l-234 -262h-100z" />
<glyph unicode="&#xd4;" horiz-adv-x="1085" d="M109 717q0 739 434 739q432 0 432 -739q0 -740 -432 -740q-434 0 -434 740zM238 717q0 -109 8.5 -197.5t29.5 -169t55 -135.5t87.5 -87t124.5 -32t124.5 32t87 86.5t54.5 135.5t29 169.5t8 197.5q0 137 -14 242.5t-46.5 194t-93.5 136t-149 47.5q-71 0 -124.5 -32 t-87.5 -87t-55 -135.5t-29.5 -169t-8.5 -196.5zM336 1540l139 262h135l142 -262h-90l-119 184l-119 -184h-88z" />
<glyph unicode="&#xd5;" horiz-adv-x="1085" d="M109 717q0 739 434 739q432 0 432 -739q0 -740 -432 -740q-434 0 -434 740zM238 717q0 -109 8.5 -197.5t29.5 -169t55 -135.5t87.5 -87t124.5 -32t124.5 32t87 86.5t54.5 135.5t29 169.5t8 197.5q0 137 -14 242.5t-46.5 194t-93.5 136t-149 47.5q-71 0 -124.5 -32 t-87.5 -87t-55 -135.5t-29.5 -169t-8.5 -196.5zM319 1597q30 80 59 119t73 39q31 0 66 -24.5t64.5 -49t47.5 -24.5q19 0 33 17.5t36 76.5l66 -33q-31 -83 -58.5 -121t-72.5 -38q-31 0 -66 25t-65 50t-49 25q-16 0 -31.5 -19t-36.5 -75z" />
<glyph unicode="&#xd6;" horiz-adv-x="1085" d="M109 717q0 739 434 739q432 0 432 -739q0 -740 -432 -740q-434 0 -434 740zM238 717q0 -109 8.5 -197.5t29.5 -169t55 -135.5t87.5 -87t124.5 -32t124.5 32t87 86.5t54.5 135.5t29 169.5t8 197.5q0 137 -14 242.5t-46.5 194t-93.5 136t-149 47.5q-71 0 -124.5 -32 t-87.5 -87t-55 -135.5t-29.5 -169t-8.5 -196.5zM362 1561v176h119v-176h-119zM602 1561v176h115v-176h-115z" />
<glyph unicode="&#xd7;" d="M154 973l82 61l202 -264l203 262l82 -63l-219 -285l221 -285l-82 -63l-205 264l-200 -260l-82 63l217 283z" />
<glyph unicode="&#xd8;" horiz-adv-x="1081" d="M106 717q0 739 435 739q166 0 270 -113l47 91h100l-90 -174q105 -187 105 -543q0 -740 -432 -740q-168 0 -273 111l-45 -88h-98l86 170q-105 187 -105 547zM236 717q0 -262 49 -406l465 910q-74 116 -209 116q-71 0 -124.5 -32t-87.5 -87t-55 -135.5t-29.5 -169 t-8.5 -196.5zM332 211q75 -115 209 -115q71 0 124.5 32t87 86.5t54.5 135.5t29 169.5t8 197.5q0 253 -47 399z" />
<glyph unicode="&#xd9;" horiz-adv-x="1044" d="M152 422v1012h122v-1012q0 -58 6 -103.5t22.5 -88.5t43.5 -71.5t71 -45.5t103 -17q73 0 123 25t76.5 71.5t37.5 101.5t11 128v1012h125v-1012q0 -445 -373 -445q-368 0 -368 445zM299 1802h160l174 -262h-98z" />
<glyph unicode="&#xda;" horiz-adv-x="1044" d="M152 422v1012h122v-1012q0 -58 6 -103.5t22.5 -88.5t43.5 -71.5t71 -45.5t103 -17q73 0 123 25t76.5 71.5t37.5 101.5t11 128v1012h125v-1012q0 -445 -373 -445q-368 0 -368 445zM410 1540l172 262h161l-233 -262h-100z" />
<glyph unicode="&#xdb;" horiz-adv-x="1044" d="M152 422v1012h122v-1012q0 -58 6 -103.5t22.5 -88.5t43.5 -71.5t71 -45.5t103 -17q73 0 123 25t76.5 71.5t37.5 101.5t11 128v1012h125v-1012q0 -445 -373 -445q-368 0 -368 445zM313 1540l140 262h135l141 -262h-90l-119 184l-119 -184h-88z" />
<glyph unicode="&#xdc;" horiz-adv-x="1044" d="M152 422v1012h122v-1012q0 -58 6 -103.5t22.5 -88.5t43.5 -71.5t71 -45.5t103 -17q73 0 123 25t76.5 71.5t37.5 101.5t11 128v1012h125v-1012q0 -445 -373 -445q-368 0 -368 445zM342 1561v176h119v-176h-119zM582 1561v176h114v-176h-114z" />
<glyph unicode="&#xdd;" horiz-adv-x="927" d="M43 1434h137l283 -742l285 742h137l-361 -871v-563h-123v569zM352 1540l172 262h162l-233 -262h-101z" />
<glyph unicode="&#xde;" horiz-adv-x="970" d="M160 0v1434h125v-265h180q96 0 169.5 -21.5t130.5 -69.5t86.5 -132t29.5 -203t-30 -204.5t-86.5 -135t-130 -72t-169.5 -22.5h-180v-309h-125zM285 426h184q285 0 285 317q0 310 -285 310h-184v-627z" />
<glyph unicode="&#xdf;" horiz-adv-x="944" d="M133 0v1090q0 407 324 407q150 0 235.5 -83t85.5 -236q0 -53 -10 -98.5t-20 -65.5l-11 -19q-23 -10 -38.5 -18t-39 -24.5t-37.5 -34.5t-25 -47t-11 -62q0 -19 3 -35.5t11.5 -35t14.5 -30t23.5 -32.5t25.5 -30.5t32.5 -36.5t34.5 -38q77 -87 113.5 -157.5t36.5 -161.5 q0 -130 -69 -202.5t-177 -72.5q-119 0 -273 97l62 90q117 -80 199 -80q59 0 100 43.5t41 124.5q0 54 -25 104.5t-92 128.5q-13 15 -42 47.5t-42.5 48.5t-35 45.5t-31 53t-17.5 56.5t-8 69q0 59 18 106.5t50 79.5t55.5 48.5t56.5 33.5q13 59 13 98q0 105 -54 162.5t-151 57.5 q-99 0 -153 -70t-54 -238v-1083h-119z" />
<glyph unicode="&#xe0;" horiz-adv-x="851" d="M84 315q0 178 76 267.5t190 89.5q30 0 70.5 -8t63 -14.5t71 -22.5t51.5 -17v172q0 106 -33.5 157.5t-115.5 51.5q-42 0 -92.5 -15t-82 -29.5t-100.5 -49.5l-49 98q208 103 338 103q122 0 187 -71t65 -228v-799h-117v147q-131 -170 -276 -170q-48 0 -90 18t-78 56 t-57 105.5t-21 158.5zM207 319q0 -117 42.5 -173t112.5 -56q128 0 244 170v264q-142 51 -215 51q-66 0 -109 -37.5t-59 -92t-16 -126.5zM207 1493h160l174 -262h-99z" />
<glyph unicode="&#xe1;" horiz-adv-x="851" d="M84 315q0 178 76 267.5t190 89.5q30 0 70.5 -8t63 -14.5t71 -22.5t51.5 -17v172q0 106 -33.5 157.5t-115.5 51.5q-42 0 -92.5 -15t-82 -29.5t-100.5 -49.5l-49 98q208 103 338 103q122 0 187 -71t65 -228v-799h-117v147q-131 -170 -276 -170q-48 0 -90 18t-78 56 t-57 105.5t-21 158.5zM207 319q0 -117 42.5 -173t112.5 -56q128 0 244 170v264q-142 51 -215 51q-66 0 -109 -37.5t-59 -92t-16 -126.5zM317 1231l172 262h162l-233 -262h-101z" />
<glyph unicode="&#xe2;" horiz-adv-x="851" d="M84 315q0 178 76 267.5t190 89.5q30 0 70.5 -8t63 -14.5t71 -22.5t51.5 -17v172q0 106 -33.5 157.5t-115.5 51.5q-42 0 -92.5 -15t-82 -29.5t-100.5 -49.5l-49 98q208 103 338 103q122 0 187 -71t65 -228v-799h-117v147q-131 -170 -276 -170q-48 0 -90 18t-78 56 t-57 105.5t-21 158.5zM207 319q0 -117 42.5 -173t112.5 -56q128 0 244 170v264q-142 51 -215 51q-66 0 -109 -37.5t-59 -92t-16 -126.5zM221 1231l139 262h136l141 -262h-90l-119 184l-119 -184h-88z" />
<glyph unicode="&#xe3;" horiz-adv-x="851" d="M84 315q0 178 76 267.5t190 89.5q30 0 70.5 -8t63 -14.5t71 -22.5t51.5 -17v172q0 106 -33.5 157.5t-115.5 51.5q-42 0 -92.5 -15t-82 -29.5t-100.5 -49.5l-49 98q208 103 338 103q122 0 187 -71t65 -228v-799h-117v147q-131 -170 -276 -170q-48 0 -90 18t-78 56 t-57 105.5t-21 158.5zM207 319q0 -117 42.5 -173t112.5 -56q128 0 244 170v264q-142 51 -215 51q-66 0 -109 -37.5t-59 -92t-16 -126.5zM207 1288q30 80 58.5 119t72.5 39q31 0 66 -24.5t64.5 -49t47.5 -24.5q19 0 33.5 17.5t36.5 76.5l65 -33q-31 -83 -58.5 -121.5 t-72.5 -38.5q-31 0 -66 25.5t-65 50.5t-49 25q-16 0 -31.5 -19t-36.5 -76z" />
<glyph unicode="&#xe4;" horiz-adv-x="851" d="M84 315q0 178 76 267.5t190 89.5q30 0 70.5 -8t63 -14.5t71 -22.5t51.5 -17v172q0 106 -33.5 157.5t-115.5 51.5q-42 0 -92.5 -15t-82 -29.5t-100.5 -49.5l-49 98q208 103 338 103q122 0 187 -71t65 -228v-799h-117v147q-131 -170 -276 -170q-48 0 -90 18t-78 56 t-57 105.5t-21 158.5zM207 319q0 -117 42.5 -173t112.5 -56q128 0 244 170v264q-142 51 -215 51q-66 0 -109 -37.5t-59 -92t-16 -126.5zM252 1251v176h119v-176h-119zM492 1251v176h114v-176h-114z" />
<glyph unicode="&#xe5;" horiz-adv-x="851" d="M84 315q0 178 76 267.5t190 89.5q30 0 70.5 -8t63 -14.5t71 -22.5t51.5 -17v172q0 106 -33.5 157.5t-115.5 51.5q-42 0 -92.5 -15t-82 -29.5t-100.5 -49.5l-49 98q208 103 338 103q122 0 187 -71t65 -228v-799h-117v147q-131 -170 -276 -170q-48 0 -90 18t-78 56 t-57 105.5t-21 158.5zM207 319q0 -117 42.5 -173t112.5 -56q128 0 244 170v264q-142 51 -215 51q-66 0 -109 -37.5t-59 -92t-16 -126.5zM248 1393q0 76 52 129t128 53t130 -53.5t54 -128.5q0 -76 -53.5 -129.5t-130.5 -53.5q-76 0 -128 53t-52 130zM324 1393q0 -44 30 -74.5 t74 -30.5t75.5 30.5t31.5 74.5t-31.5 75t-75.5 31t-74 -31t-30 -75z" />
<glyph unicode="&#xe6;" horiz-adv-x="1331" d="M84 317q0 177 72.5 266t183.5 89q78 0 238 -70q6 101 24 180q-3 107 -37.5 158t-113.5 51q-38 0 -89.5 -16t-81 -29.5t-102.5 -48.5l-45 98q208 103 336 103q156 0 215 -129q94 129 238 129q149 0 231 -128t82 -333q0 -35 -2 -68.5t-4 -50.5l-2 -16h-525 q5 -191 61 -304.5t152 -113.5q23 0 49 8t44 16t48 27.5t41 27.5t43 33t34 27l65 -78q-194 -168 -334 -168q-85 0 -154.5 54.5t-113.5 158.5q-147 -213 -305 -213q-49 0 -91 18t-78.5 55.5t-57.5 106t-21 160.5zM207 322q0 -118 42 -175t111 -57q72 0 130.5 48.5t117.5 135.5 q-27 102 -30 236q-6 2 -41.5 18.5t-53 23.5t-47 15t-51.5 8q-64 0 -105.5 -37t-57 -91t-15.5 -125zM702 592h418q3 401 -194 401q-101 0 -158.5 -106.5t-65.5 -294.5z" />
<glyph unicode="&#xe7;" horiz-adv-x="763" d="M90 539q0 267 92 413t226 146q26 0 51.5 -5t51 -16t45 -21t43.5 -27t36 -26t34 -27t27 -22l-63 -90q-3 3 -23 20t-31 26.5t-34 26t-40.5 25.5t-40 16t-42.5 7q-91 0 -150 -121.5t-59 -324.5t58.5 -326t148.5 -123q20 0 43.5 7.5t41.5 16.5t41 25t35 25.5t31 26t21 18.5 l63 -88q-89 -73 -140 -99q-61 -33 -118 -40q43 -83 43 -162q0 -75 -39 -119.5t-102 -44.5q-58 0 -113 37l31 86q42 -29 70 -29q36 0 58 25t22 75q0 55 -31 130q-124 16 -205.5 162t-81.5 397z" />
<glyph unicode="&#xe8;" horiz-adv-x="843" d="M92 539q0 267 94.5 413t249.5 146q149 0 231.5 -128t82.5 -333q0 -35 -2 -68.5t-4 -50.5l-3 -16h-524q5 -191 61 -304.5t152 -113.5q23 0 48.5 7.5t44.5 16t48 27.5t41 28t42 33t34 27l66 -78q-194 -168 -334 -168q-142 0 -235 147.5t-93 414.5zM215 1493h160l174 -262 h-98zM217 592h418q3 401 -195 401q-101 0 -158 -106.5t-65 -294.5z" />
<glyph unicode="&#xe9;" horiz-adv-x="843" d="M92 539q0 267 94.5 413t249.5 146q149 0 231.5 -128t82.5 -333q0 -35 -2 -68.5t-4 -50.5l-3 -16h-524q5 -191 61 -304.5t152 -113.5q23 0 48.5 7.5t44.5 16t48 27.5t41 28t42 33t34 27l66 -78q-194 -168 -334 -168q-142 0 -235 147.5t-93 414.5zM217 592h418 q3 401 -195 401q-101 0 -158 -106.5t-65 -294.5zM326 1231l172 262h161l-233 -262h-100z" />
<glyph unicode="&#xea;" horiz-adv-x="843" d="M92 539q0 267 94.5 413t249.5 146q149 0 231.5 -128t82.5 -333q0 -35 -2 -68.5t-4 -50.5l-3 -16h-524q5 -191 61 -304.5t152 -113.5q23 0 48.5 7.5t44.5 16t48 27.5t41 28t42 33t34 27l66 -78q-194 -168 -334 -168q-142 0 -235 147.5t-93 414.5zM217 592h418 q3 401 -195 401q-101 0 -158 -106.5t-65 -294.5zM229 1231l140 262h135l141 -262h-90l-119 184l-119 -184h-88z" />
<glyph unicode="&#xeb;" horiz-adv-x="843" d="M92 539q0 267 94.5 413t249.5 146q149 0 231.5 -128t82.5 -333q0 -35 -2 -68.5t-4 -50.5l-3 -16h-524q5 -191 61 -304.5t152 -113.5q23 0 48.5 7.5t44.5 16t48 27.5t41 28t42 33t34 27l66 -78q-194 -168 -334 -168q-142 0 -235 147.5t-93 414.5zM217 592h418 q3 401 -195 401q-101 0 -158 -106.5t-65 -294.5zM258 1251v176h119v-176h-119zM498 1251v176h114v-176h-114z" />
<glyph unicode="&#xec;" horiz-adv-x="382" d="M-29 1493h160l174 -262h-98zM133 0v1075h119v-1075h-119z" />
<glyph unicode="&#xed;" horiz-adv-x="382" d="M82 1231l172 262h162l-234 -262h-100zM133 0v1075h119v-1075h-119z" />
<glyph unicode="&#xee;" horiz-adv-x="385" d="M-14 1231l139 262h135l141 -262h-90l-118 184l-119 -184h-88zM133 0v1075h119v-1075h-119z" />
<glyph unicode="&#xef;" horiz-adv-x="382" d="M14 1251v176h119v-176h-119zM135 0v1075h119v-1075h-119zM254 1251v176h115v-176h-115z" />
<glyph unicode="&#xf0;" horiz-adv-x="894" d="M92 475q0 225 89.5 362.5t232.5 137.5q51 0 95.5 -16.5t71.5 -40.5t47 -48t28 -40l8 -17q-23 138 -79.5 264.5t-140.5 192.5l-94 -105h-121l133 150q-38 10 -69 10q-26 0 -53.5 -4.5t-41.5 -8.5l-14 -5l-18 102q53 25 129 25q74 0 147 -31l82 90h123l-125 -139 q130 -99 202.5 -304.5t72.5 -478.5q0 -134 -18.5 -237.5t-50.5 -170t-78 -109t-96 -60t-110 -17.5q-163 0 -257.5 135.5t-94.5 362.5zM215 475q0 -181 58.5 -285t170.5 -104q110 0 171 102.5t61 288.5q0 187 -59 288t-173 101q-112 0 -170.5 -106.5t-58.5 -284.5z" />
<glyph unicode="&#xf1;" horiz-adv-x="892" d="M133 0v1075h119v-160q33 36 61 62t69.5 57t88 47.5t94.5 16.5q102 0 150.5 -77t48.5 -196v-825h-119v809q0 180 -119 180q-41 0 -85 -21t-81.5 -55t-62 -61t-45.5 -55v-797h-119zM225 1288q30 80 58.5 119t72.5 39q31 0 66 -24.5t65 -49t48 -24.5q19 0 33 17.5t36 76.5 l66 -33q-31 -83 -58.5 -121.5t-72.5 -38.5q-31 0 -66 25.5t-65.5 50.5t-49.5 25q-15 0 -30.5 -19t-36.5 -76z" />
<glyph unicode="&#xf2;" d="M92 537q0 263 90 412t258 149q169 0 258.5 -148.5t89.5 -412.5t-89.5 -412t-258.5 -148q-168 0 -258 148.5t-90 411.5zM215 537q0 -451 225 -451q116 0 171 119t55 332t-55 332.5t-171 119.5q-225 0 -225 -452zM219 1493h160l174 -262h-98z" />
<glyph unicode="&#xf3;" d="M92 537q0 263 90 412t258 149q169 0 258.5 -148.5t89.5 -412.5t-89.5 -412t-258.5 -148q-168 0 -258 148.5t-90 411.5zM215 537q0 -451 225 -451q116 0 171 119t55 332t-55 332.5t-171 119.5q-225 0 -225 -452zM330 1231l172 262h162l-234 -262h-100z" />
<glyph unicode="&#xf4;" d="M92 537q0 263 90 412t258 149q169 0 258.5 -148.5t89.5 -412.5t-89.5 -412t-258.5 -148q-168 0 -258 148.5t-90 411.5zM215 537q0 -451 225 -451q116 0 171 119t55 332t-55 332.5t-171 119.5q-225 0 -225 -452zM233 1231l140 262h135l141 -262h-90l-119 184l-118 -184 h-89z" />
<glyph unicode="&#xf5;" d="M92 537q0 263 90 412t258 149q169 0 258.5 -148.5t89.5 -412.5t-89.5 -412t-258.5 -148q-168 0 -258 148.5t-90 411.5zM215 537q0 -451 225 -451q116 0 171 119t55 332t-55 332.5t-171 119.5q-225 0 -225 -452zM217 1288q30 80 58.5 119t72.5 39q31 0 66 -24.5t64.5 -49 t47.5 -24.5q19 0 33.5 17.5t36.5 76.5l66 -33q-31 -82 -59 -121t-73 -39q-31 0 -66 25.5t-65 50.5t-49 25q-15 0 -30.5 -19t-36.5 -76z" />
<glyph unicode="&#xf6;" d="M92 537q0 263 90 412t258 149q169 0 258.5 -148.5t89.5 -412.5t-89.5 -412t-258.5 -148q-168 0 -258 148.5t-90 411.5zM215 537q0 -451 225 -451q116 0 171 119t55 332t-55 332.5t-171 119.5q-225 0 -225 -452zM262 1251v176h119v-176h-119zM502 1251v176h114v-176h-114z " />
<glyph unicode="&#xf7;" d="M86 629v106h707v-106h-707zM356 360q0 35 24.5 59.5t59.5 24.5q34 0 58 -24.5t24 -59.5q0 -34 -24 -57.5t-58 -23.5q-35 0 -59.5 23.5t-24.5 57.5zM356 1006q0 34 24.5 57.5t59.5 23.5q34 0 58 -23.5t24 -57.5q0 -35 -24 -59.5t-58 -24.5q-35 0 -59.5 24.5t-24.5 59.5z " />
<glyph unicode="&#xf8;" horiz-adv-x="876" d="M90 537q0 263 90 412t258 149q126 0 209 -86l35 63h88l-72 -131q88 -151 88 -407q0 -264 -89.5 -412t-258.5 -148q-125 0 -211 86l-32 -63h-91l72 133q-86 145 -86 404zM213 537q0 -172 33 -275l344 641q-58 86 -152 86q-225 0 -225 -452zM285 170q59 -84 153 -84 q116 0 171 119t55 332q0 163 -35 276z" />
<glyph unicode="&#xf9;" horiz-adv-x="892" d="M129 250v825h119v-809q0 -180 119 -180q41 0 84.5 20.5t81.5 54t62 59.5t46 54v801h119v-1075h-119v158q-167 -181 -313 -181q-102 0 -150.5 77t-48.5 196zM223 1493h160l174 -262h-98z" />
<glyph unicode="&#xfa;" horiz-adv-x="892" d="M129 250v825h119v-809q0 -180 119 -180q41 0 84.5 20.5t81.5 54t62 59.5t46 54v801h119v-1075h-119v158q-167 -181 -313 -181q-102 0 -150.5 77t-48.5 196zM334 1231l172 262h162l-234 -262h-100z" />
<glyph unicode="&#xfb;" horiz-adv-x="892" d="M129 250v825h119v-809q0 -180 119 -180q41 0 84.5 20.5t81.5 54t62 59.5t46 54v801h119v-1075h-119v158q-167 -181 -313 -181q-102 0 -150.5 77t-48.5 196zM238 1231l139 262h135l141 -262h-90l-119 184l-118 -184h-88z" />
<glyph unicode="&#xfc;" horiz-adv-x="892" d="M129 250v825h119v-809q0 -180 119 -180q41 0 84.5 20.5t81.5 54t62 59.5t46 54v801h119v-1075h-119v158q-167 -181 -313 -181q-102 0 -150.5 77t-48.5 196zM266 1251v176h119v-176h-119zM506 1251v176h115v-176h-115z" />
<glyph unicode="&#xfd;" horiz-adv-x="815" d="M53 1075h129l226 -907l225 907h129l-414 -1493h-129l131 406zM297 1231l172 262h162l-234 -262h-100z" />
<glyph unicode="&#xfe;" horiz-adv-x="886" d="M133 -418v1911h119v-565q124 170 260 170q125 0 203 -137.5t78 -423.5q0 -285 -78 -422.5t-203 -137.5q-137 0 -260 168v-563h-119zM252 270q42 -78 105 -130t128 -52q92 0 138.5 118.5t46.5 330.5q0 214 -46.5 332t-138.5 118q-64 0 -127 -53t-106 -131v-533z" />
<glyph unicode="&#xff;" horiz-adv-x="815" d="M53 1075h129l226 -907l225 907h129l-414 -1493h-129l131 406zM229 1251v176h119v-176h-119zM469 1251v176h115v-176h-115z" />
<glyph unicode="&#x100;" horiz-adv-x="1003" d="M53 0l381 1434h135l379 -1434h-133l-92 373h-444l-91 -373h-135zM295 1591v95h410v-95h-410zM307 487h387l-192 787z" />
<glyph unicode="&#x101;" horiz-adv-x="851" d="M84 315q0 178 76 267.5t190 89.5q30 0 70.5 -8t63 -14.5t71 -22.5t51.5 -17v172q0 106 -33.5 157.5t-115.5 51.5q-42 0 -92.5 -15t-82 -29.5t-100.5 -49.5l-49 98q208 103 338 103q122 0 187 -71t65 -228v-799h-117v147q-131 -170 -276 -170q-48 0 -90 18t-78 56 t-57 105.5t-21 158.5zM207 319q0 -117 42.5 -173t112.5 -56q128 0 244 170v264q-142 51 -215 51q-66 0 -109 -37.5t-59 -92t-16 -126.5zM223 1282v94h410v-94h-410z" />
<glyph unicode="&#x102;" horiz-adv-x="1003" d="M53 0l381 1434h135l379 -1434h-133l-92 373h-444l-91 -373h-135zM301 1751h84q0 -117 117 -117q116 0 116 117h84q0 -98 -53 -154.5t-147 -56.5q-95 0 -148 56.5t-53 154.5zM307 487h387l-192 787z" />
<glyph unicode="&#x103;" horiz-adv-x="851" d="M84 315q0 178 76 267.5t190 89.5q30 0 70.5 -8t63 -14.5t71 -22.5t51.5 -17v172q0 106 -33.5 157.5t-115.5 51.5q-42 0 -92.5 -15t-82 -29.5t-100.5 -49.5l-49 98q208 103 338 103q122 0 187 -71t65 -228v-799h-117v147q-131 -170 -276 -170q-48 0 -90 18t-78 56 t-57 105.5t-21 158.5zM207 319q0 -117 42.5 -173t112.5 -56q128 0 244 170v264q-142 51 -215 51q-66 0 -109 -37.5t-59 -92t-16 -126.5zM229 1442h84q0 -117 117 -117t117 117h84q0 -98 -53 -154.5t-148 -56.5t-148 56.5t-53 154.5z" />
<glyph unicode="&#x104;" horiz-adv-x="1003" d="M53 0l381 1434h135l379 -1434h-4q-3 -2 -18.5 -15t-21 -18t-20 -18t-21 -21t-18 -21t-17 -24t-12 -24.5t-9 -27.5t-2.5 -28q0 -16 3.5 -29t8 -21.5t14 -14t16 -8.5t19 -4.5t18 -2t19 0t15.5 0.5l-15 -91q-17 0 -26.5 0.5t-32 3t-37 8t-33.5 16.5t-30.5 27t-20 41.5 t-8.5 57.5q0 120 137 213h-37l-92 373h-444l-91 -373h-135zM307 487h387l-192 787z" />
<glyph unicode="&#x105;" horiz-adv-x="851" d="M84 315q0 178 76 267.5t190 89.5q30 0 70.5 -8t63 -14.5t71 -22.5t51.5 -17v172q0 106 -33.5 157.5t-115.5 51.5q-42 0 -92.5 -15t-82 -29.5t-100.5 -49.5l-49 98q208 103 338 103q122 0 187 -71t65 -228v-799h-4q-3 -2 -18.5 -15t-21 -18t-20 -18t-21 -21t-18 -21 t-17 -24t-12 -24.5t-9 -27.5t-2.5 -28q0 -16 3.5 -29t8 -21.5t14 -14t15.5 -8.5t18.5 -4.5t18 -2t19 0t15.5 0.5l-14 -91q-24 0 -39.5 1t-47 8.5t-51 22.5t-35.5 46.5t-16 75.5q0 119 138 213h-21v147q-131 -170 -276 -170q-48 0 -90 18t-78 56t-57 105.5t-21 158.5z M207 319q0 -117 42.5 -173t112.5 -56q128 0 244 170v264q-142 51 -215 51q-66 0 -109 -37.5t-59 -92t-16 -126.5z" />
<glyph unicode="&#x106;" horiz-adv-x="946" d="M111 717q0 189 30 333t83 231.5t121.5 131t150.5 43.5q52 0 103 -16.5t102.5 -50.5t86.5 -62.5t89 -77.5l-72 -86q-6 5 -35.5 30.5t-41 35t-38.5 31t-44.5 31t-42.5 22t-47.5 17.5t-45.5 5q-124 0 -198 -164t-74 -454t74.5 -454.5t197.5 -164.5q18 0 35.5 3t37 11.5 t34 14t36 21t32 22t34 26.5t29.5 24.5t31.5 27t27.5 24.5l70 -88q-54 -49 -89 -77.5t-86.5 -62.5t-102.5 -50.5t-103 -16.5q-82 0 -150.5 43.5t-121.5 131t-83 232t-30 333.5zM442 1540l172 262h162l-233 -262h-101z" />
<glyph unicode="&#x107;" horiz-adv-x="765" d="M92 539q0 267 92 413t226 146q26 0 51.5 -5t51 -16t45 -21t43.5 -27t36 -26t34 -27t27 -22l-63 -90q-3 3 -23 20t-31 26.5t-34 26t-40.5 25.5t-40 16t-42.5 7q-91 0 -150 -121.5t-59 -324.5t58.5 -326t148.5 -123q20 0 43.5 7.5t41.5 16.5t41 25t35 25.5t31 26t21 18.5 l63 -88l-20 -17q-20 -16 -25.5 -20.5t-26 -20.5t-31.5 -22t-31.5 -19t-36.5 -18.5t-36.5 -13t-40.5 -10.5t-40 -3q-134 0 -226 147.5t-92 414.5zM307 1231l172 262h162l-233 -262h-101z" />
<glyph unicode="&#x10a;" horiz-adv-x="946" d="M111 717q0 189 30 333t83 231.5t121.5 131t150.5 43.5q52 0 103 -16.5t102.5 -50.5t86.5 -62.5t89 -77.5l-72 -86q-6 5 -35.5 30.5t-41 35t-38.5 31t-44.5 31t-42.5 22t-47.5 17.5t-45.5 5q-124 0 -198 -164t-74 -454t74.5 -454.5t197.5 -164.5q18 0 35.5 3t37 11.5 t34 14t36 21t32 22t34 26.5t29.5 24.5t31.5 27t27.5 24.5l70 -88q-54 -49 -89 -77.5t-86.5 -62.5t-102.5 -50.5t-103 -16.5q-82 0 -150.5 43.5t-121.5 131t-83 232t-30 333.5zM449 1561v176h116v-176h-116z" />
<glyph unicode="&#x10b;" horiz-adv-x="765" d="M92 539q0 267 92 413t226 146q26 0 51.5 -5t51 -16t45 -21t43.5 -27t36 -26t34 -27t27 -22l-63 -90q-3 3 -23 20t-31 26.5t-34 26t-40.5 25.5t-40 16t-42.5 7q-91 0 -150 -121.5t-59 -324.5t58.5 -326t148.5 -123q20 0 43.5 7.5t41.5 16.5t41 25t35 25.5t31 26t21 18.5 l63 -88l-20 -17q-20 -16 -25.5 -20.5t-26 -20.5t-31.5 -22t-31.5 -19t-36.5 -18.5t-36.5 -13t-40.5 -10.5t-40 -3q-134 0 -226 147.5t-92 414.5zM356 1251v176h117v-176h-117z" />
<glyph unicode="&#x10c;" horiz-adv-x="946" d="M111 717q0 189 30 333t83 231.5t121.5 131t150.5 43.5q52 0 103 -16.5t102.5 -50.5t86.5 -62.5t89 -77.5l-72 -86q-6 5 -35.5 30.5t-41 35t-38.5 31t-44.5 31t-42.5 22t-47.5 17.5t-45.5 5q-124 0 -198 -164t-74 -454t74.5 -454.5t197.5 -164.5q18 0 35.5 3t37 11.5 t34 14t36 21t32 22t34 26.5t29.5 24.5t31.5 27t27.5 24.5l70 -88q-54 -49 -89 -77.5t-86.5 -62.5t-102.5 -50.5t-103 -16.5q-82 0 -150.5 43.5t-121.5 131t-83 232t-30 333.5zM313 1802h88l119 -182l119 182h90l-141 -262h-135z" />
<glyph unicode="&#x10d;" horiz-adv-x="765" d="M92 539q0 267 92 413t226 146q26 0 51.5 -5t51 -16t45 -21t43.5 -27t36 -26t34 -27t27 -22l-63 -90q-3 3 -23 20t-31 26.5t-34 26t-40.5 25.5t-40 16t-42.5 7q-91 0 -150 -121.5t-59 -324.5t58.5 -326t148.5 -123q20 0 43.5 7.5t41.5 16.5t41 25t35 25.5t31 26t21 18.5 l63 -88l-20 -17q-20 -16 -25.5 -20.5t-26 -20.5t-31.5 -22t-31.5 -19t-36.5 -18.5t-36.5 -13t-40.5 -10.5t-40 -3q-134 0 -226 147.5t-92 414.5zM209 1493h88l119 -182l119 182h90l-142 -262h-135z" />
<glyph unicode="&#x10e;" horiz-adv-x="1038" d="M160 0v1434h243q525 0 525 -717t-525 -717h-243zM285 117h118q205 0 302.5 146t97.5 454t-97.5 454t-302.5 146h-118v-1200zM338 1802h88l119 -182l119 182h90l-142 -262h-135z" />
<glyph unicode="&#x10f;" horiz-adv-x="915" d="M94 537q0 286 77.5 423.5t203.5 137.5q133 0 262 -170v565h117v-1493h-117v145q-127 -168 -262 -168q-126 0 -203.5 137.5t-77.5 422.5zM217 537q0 -212 46 -330.5t138 -118.5q65 0 127 51.5t109 130.5v533q-47 79 -109 131.5t-127 52.5q-92 0 -138 -118t-46 -332z M829 1133l62 178h-51v182h112l15 -186l-97 -213z" />
<glyph unicode="&#x110;" horiz-adv-x="1044" d="M59 662v110h105v662h244q524 0 524 -717t-524 -717h-244v662h-105zM289 117h119q205 0 302 146t97 454t-97 454t-302 146h-119v-545h235v-110h-235v-545z" />
<glyph unicode="&#x111;" horiz-adv-x="886" d="M94 537q0 286 77.5 423.5t203.5 137.5q133 0 262 -170v299h-240v94h240v172h117v-172h92v-94h-92v-1227h-117v145q-127 -168 -262 -168q-126 0 -203.5 137.5t-77.5 422.5zM217 537q0 -212 46 -330.5t138 -118.5q65 0 127 51.5t109 130.5v533q-47 79 -109 131.5t-127 52.5 q-92 0 -138 -118t-46 -332z" />
<glyph unicode="&#x112;" horiz-adv-x="888" d="M160 0v1434h624v-117h-499v-543h413v-115h-413v-542h508v-117h-633zM270 1591v95h410v-95h-410z" />
<glyph unicode="&#x113;" horiz-adv-x="843" d="M92 539q0 267 94.5 413t249.5 146q149 0 231.5 -128t82.5 -333q0 -35 -2 -68.5t-4 -50.5l-3 -16h-524q5 -191 61 -304.5t152 -113.5q23 0 48.5 7.5t44.5 16t48 27.5t41 28t42 33t34 27l66 -78q-194 -168 -334 -168q-142 0 -235 147.5t-93 414.5zM217 592h418 q3 401 -195 401q-101 0 -158 -106.5t-65 -294.5zM233 1282v94h410v-94h-410z" />
<glyph unicode="&#x116;" horiz-adv-x="888" d="M160 0v1434h624v-117h-499v-543h413v-115h-413v-542h508v-117h-633zM418 1561v176h117v-176h-117z" />
<glyph unicode="&#x117;" horiz-adv-x="843" d="M92 539q0 267 94.5 413t249.5 146q149 0 231.5 -128t82.5 -333q0 -35 -2 -68.5t-4 -50.5l-3 -16h-524q5 -191 61 -304.5t152 -113.5q23 0 48.5 7.5t44.5 16t48 27.5t41 28t42 33t34 27l66 -78q-194 -168 -334 -168q-142 0 -235 147.5t-93 414.5zM217 592h418 q3 401 -195 401q-101 0 -158 -106.5t-65 -294.5zM379 1251v176h117v-176h-117z" />
<glyph unicode="&#x118;" horiz-adv-x="888" d="M160 0v1434h624v-117h-499v-543h413v-115h-413v-542h508v-117h-5q-3 -2 -18.5 -15t-21 -18t-20 -18t-21 -21t-18 -21t-17 -24t-12 -24.5t-9 -27.5t-2.5 -28q0 -16 3.5 -29t8 -21.5t14 -14t16 -8.5t19 -4.5t18 -2t19 0t15.5 0.5l-14 -91q-24 0 -39.5 1t-47 8.5t-51 22.5 t-35.5 46.5t-16 75.5q0 120 137 213h-536z" />
<glyph unicode="&#x119;" horiz-adv-x="843" d="M92 539q0 267 94.5 413t249.5 146q149 0 231.5 -128t82.5 -333q0 -35 -2 -68.5t-4 -50.5l-3 -16h-524q5 -191 61 -304.5t152 -113.5q23 0 48.5 7.5t44.5 16t48 27.5t41 28t42 33t34 27l66 -78q-125 -110 -230 -147q-71 -61 -96 -93q-39 -51 -39 -102q0 -16 3.5 -29 t8 -21.5t14 -14t16 -8.5t19 -4.5t18 -2t19 0t15.5 0.5l-15 -91q-17 0 -26.5 0.5t-32 3t-37 8t-33.5 16.5t-30.5 27t-20 41.5t-8.5 57.5q0 101 107 190q-137 8 -225.5 154.5t-88.5 407.5zM217 592h418q3 401 -195 401q-101 0 -158 -106.5t-65 -294.5z" />
<glyph unicode="&#x11a;" horiz-adv-x="888" d="M160 0v1434h624v-117h-499v-543h413v-115h-413v-542h508v-117h-633zM268 1784h88l119 -182l119 182h90l-141 -262h-135z" />
<glyph unicode="&#x11b;" horiz-adv-x="843" d="M92 539q0 267 94.5 413t249.5 146q149 0 231.5 -128t82.5 -333q0 -35 -2 -68.5t-4 -50.5l-3 -16h-524q5 -191 61 -304.5t152 -113.5q23 0 48.5 7.5t44.5 16t48 27.5t41 28t42 33t34 27l66 -78q-194 -168 -334 -168q-142 0 -235 147.5t-93 414.5zM217 592h418 q3 401 -195 401q-101 0 -158 -106.5t-65 -294.5zM229 1493h88l119 -182l119 182h90l-141 -262h-135z" />
<glyph unicode="&#x11e;" horiz-adv-x="1034" d="M111 717q0 152 20.5 276t56 209t84.5 143t106 84.5t122 26.5q56 0 111 -19t107 -55t89.5 -68t85.5 -79l-72 -90q-6 6 -35 32.5t-42 37.5t-41 34t-47.5 34.5t-45.5 25.5t-51 20t-49 6q-124 0 -198 -164.5t-74 -457.5q0 -285 74.5 -452t197.5 -167q127 0 281 221v340h-271 v113h389v-768h-118v170q-154 -193 -302 -193q-77 0 -143.5 43.5t-120 130.5t-84 232t-30.5 334zM311 1751h84q0 -117 117 -117t117 117h84q0 -98 -53 -154.5t-148 -56.5t-148 56.5t-53 154.5z" />
<glyph unicode="&#x11f;" horiz-adv-x="886" d="M94 537q0 286 77.5 423.5t203.5 137.5q133 0 262 -170v147h117v-1161q0 -99 -20 -168.5t-58.5 -109t-87.5 -57t-113 -17.5q-74 0 -168.5 20t-179.5 53l39 109q179 -74 289 -74q91 0 136.5 58t45.5 184v233q-127 -168 -262 -168q-126 0 -203.5 137.5t-77.5 422.5zM217 537 q0 -212 46 -330.5t138 -118.5q65 0 127 51.5t109 130.5v533q-47 79 -109 131.5t-127 52.5q-92 0 -138 -118t-46 -332zM242 1442h84q0 -117 116 -117q117 0 117 117h84q0 -98 -53 -154.5t-148 -56.5q-94 0 -147 56.5t-53 154.5z" />
<glyph unicode="&#x120;" horiz-adv-x="1034" d="M111 717q0 152 20.5 276t56 209t84.5 143t106 84.5t122 26.5q56 0 111 -19t107 -55t89.5 -68t85.5 -79l-72 -90q-6 6 -35 32.5t-42 37.5t-41 34t-47.5 34.5t-45.5 25.5t-51 20t-49 6q-124 0 -198 -164.5t-74 -457.5q0 -285 74.5 -452t197.5 -167q127 0 281 221v340h-271 v113h389v-768h-118v170q-154 -193 -302 -193q-77 0 -143.5 43.5t-120 130.5t-84 232t-30.5 334zM451 1561v176h116v-176h-116z" />
<glyph unicode="&#x121;" horiz-adv-x="886" d="M94 537q0 286 77.5 423.5t203.5 137.5q133 0 262 -170v147h117v-1161q0 -99 -20 -168.5t-58.5 -109t-87.5 -57t-113 -17.5q-74 0 -168.5 20t-179.5 53l39 109q179 -74 289 -74q91 0 136.5 58t45.5 184v233q-127 -168 -262 -168q-126 0 -203.5 137.5t-77.5 422.5zM217 537 q0 -212 46 -330.5t138 -118.5q65 0 127 51.5t109 130.5v533q-47 79 -109 131.5t-127 52.5q-92 0 -138 -118t-46 -332zM383 1251v176h117v-176h-117z" />
<glyph unicode="&#x122;" horiz-adv-x="1034" d="M111 717q0 152 20.5 276t56 209t84.5 143t106 84.5t122 26.5q56 0 111 -19t107 -55t89.5 -68t85.5 -79l-72 -90q-6 6 -35 32.5t-42 37.5t-41 34t-47.5 34.5t-45.5 25.5t-51 20t-49 6q-124 0 -198 -164.5t-74 -457.5q0 -285 74.5 -452t197.5 -167q127 0 281 221v340h-271 v113h389v-768h-118v170q-154 -193 -302 -193q-77 0 -143.5 43.5t-120 130.5t-84 232t-30.5 334zM471 -494l61 179h-51v182h113l14 -186l-96 -213z" />
<glyph unicode="&#x123;" horiz-adv-x="886" d="M94 537q0 286 77.5 423.5t203.5 137.5q133 0 262 -170v147h117v-1161q0 -99 -20 -168.5t-58.5 -109t-87.5 -57t-113 -17.5q-74 0 -168.5 20t-179.5 53l39 109q179 -74 289 -74q91 0 136.5 58t45.5 184v233q-127 -168 -262 -168q-126 0 -203.5 137.5t-77.5 422.5zM217 537 q0 -212 46 -330.5t138 -118.5q65 0 127 51.5t109 130.5v533q-47 79 -109 131.5t-127 52.5q-92 0 -138 -118t-46 -332zM373 1438l96 213l41 -39l-61 -178h51v-183h-113z" />
<glyph unicode="&#x126;" horiz-adv-x="1079" d="M66 1067v94h106v273h125v-273h485v273h125v-273h105v-94h-105v-1067h-125v694h-485v-694h-125v1067h-106zM297 809h485v258h-485v-258z" />
<glyph unicode="&#x127;" horiz-adv-x="892" d="M41 1227v94h92v172h119v-172h237v-94h-237v-312q36 38 62.5 62.5t68.5 56t88 48t94 16.5q102 0 150.5 -77t48.5 -196v-825h-119v809q0 180 -119 180q-41 0 -85 -21t-81.5 -55t-62 -61t-45.5 -55v-797h-119v1227h-92z" />
<glyph unicode="&#x128;" horiz-adv-x="446" d="M-2 1597q30 80 58.5 119t72.5 39q31 0 66 -24.5t64.5 -49t47.5 -24.5q19 0 33.5 17.5t36.5 76.5l65 -33q-31 -83 -58.5 -121t-72.5 -38q-31 0 -66 25t-65 50t-49 25q-16 0 -31.5 -19t-36.5 -75zM160 0v1434h125v-1434h-125z" />
<glyph unicode="&#x129;" horiz-adv-x="385" d="M-31 1288q30 80 58.5 119t72.5 39q31 0 66 -24.5t65 -49t48 -24.5q19 0 33 17.5t36 76.5l66 -33q-31 -83 -58.5 -121.5t-72.5 -38.5q-31 0 -66 25.5t-65.5 50.5t-49.5 25q-15 0 -30.5 -19t-36.5 -76zM133 0v1075h119v-1075h-119z" />
<glyph unicode="&#x12a;" horiz-adv-x="446" d="M16 1591v95h410v-95h-410zM160 0v1434h125v-1434h-125z" />
<glyph unicode="&#x12b;" horiz-adv-x="385" d="M-14 1282v94h409v-94h-409zM133 0v1075h119v-1075h-119z" />
<glyph unicode="&#x12c;" horiz-adv-x="446" d="M20 1751h84q0 -117 117 -117t117 117h84q0 -98 -53 -154.5t-148 -56.5t-148 56.5t-53 154.5zM160 0v1434h125v-1434h-125z" />
<glyph unicode="&#x12d;" horiz-adv-x="385" d="M-8 1442h84q0 -117 117 -117q116 0 116 117h84q0 -98 -53 -154.5t-147 -56.5q-95 0 -148 56.5t-53 154.5zM133 0v1075h119v-1075h-119z" />
<glyph unicode="&#x12e;" horiz-adv-x="446" d="M51 -213q0 120 137 213h-26v1434h125v-1434h-6q-2 -2 -20.5 -17.5t-24 -20.5t-22.5 -20.5t-23.5 -24t-18.5 -24.5t-17 -28.5t-9.5 -29t-4.5 -32.5t3.5 -29t8 -21.5t14 -14t16 -8.5t19 -4.5t18 -2t19 0t15.5 0.5l-14 -91q-24 0 -39.5 1t-47 8.5t-51 22.5t-35.5 46.5 t-16 75.5z" />
<glyph unicode="&#x12f;" horiz-adv-x="382" d="M18 -213q0 119 138 213h-23v1075h119v-1075h-4q-3 -2 -18.5 -15t-21 -18t-20 -18t-21 -21t-18 -21t-17 -24t-12 -24.5t-9 -27.5t-2.5 -28q0 -16 3.5 -29t8 -21.5t14 -14t15.5 -8.5t18.5 -4.5t18 -2t19 0t15.5 0.5l-14 -91q-24 0 -39.5 1t-47 8.5t-51 22.5t-35.5 46.5 t-16 75.5zM127 1309v178h129v-178h-129z" />
<glyph unicode="&#x130;" horiz-adv-x="444" d="M160 0v1434h125v-1434h-125zM164 1561v176h117v-176h-117z" />
<glyph unicode="&#x131;" horiz-adv-x="385" d="M133 0v1075h119v-1075h-119z" />
<glyph unicode="&#x132;" horiz-adv-x="888" d="M160 0v1434h125v-1434h-125zM438 -178q33 16 55 26.5t41 24.5t29.5 22t19.5 25t12.5 27t6 35t2.5 41v53v1358h125v-1354q0 -78 -2 -111.5t-13.5 -78t-38.5 -68t-73 -50.5t-121 -55z" />
<glyph unicode="&#x133;" horiz-adv-x="757" d="M127 1309v178h129v-178h-129zM133 0v1075h119v-1075h-119zM340 -326q45 21 70.5 34t46 32t29 30.5t14 41t6 50t0.5 70.5v1143h119v-1138q0 -78 -2 -111.5t-13.5 -78t-38 -68t-72 -50.5t-120.5 -55zM500 1309v178h129v-178h-129z" />
<glyph unicode="&#x134;" horiz-adv-x="442" d="M-6 -178q33 16 55 26.5t41 24.5t29.5 22t19.5 25t12.5 27t6 35t2.5 41v53v1358h125v-1354q0 -78 -2 -111.5t-13.5 -78t-38.5 -68t-73 -50.5t-121 -55zM12 1540l140 262h135l141 -262h-90l-119 184l-119 -184h-88z" />
<glyph unicode="&#x135;" horiz-adv-x="382" d="M-33 -326q45 21 70.5 34t46 32t29 30.5t14 41t6 50t0.5 70.5v1143h119v-1138q0 -78 -2 -112t-13.5 -79.5t-38 -69t-72.5 -50t-120 -52.5zM-14 1231l139 262h135l141 -262h-90l-118 184l-119 -184h-88z" />
<glyph unicode="&#x136;" horiz-adv-x="970" d="M160 0v1434h125v-799l456 799h150l-408 -682l449 -752h-152l-366 635l-129 -215v-420h-125zM420 -494l61 179h-51v182h113l14 -186l-96 -213z" />
<glyph unicode="&#x137;" horiz-adv-x="776" d="M133 0v1493h119v-995l309 577h135l-256 -438l301 -637h-129l-239 524l-121 -209v-315h-119zM338 -494l61 179h-51v182h113l14 -186l-96 -213z" />
<glyph unicode="&#x138;" horiz-adv-x="776" d="M133 0v1075h119v-577l309 577h135l-256 -438l301 -637h-129l-239 524l-121 -209v-315h-119z" />
<glyph unicode="&#x139;" horiz-adv-x="817" d="M111 1540l172 262h161l-233 -262h-100zM160 0v1434h125v-1317h483v-117h-608z" />
<glyph unicode="&#x13a;" horiz-adv-x="401" d="M90 1599l172 263h162l-234 -263h-100zM141 0v1493h119v-1493h-119z" />
<glyph unicode="&#x13b;" horiz-adv-x="817" d="M160 0v1434h125v-1317h483v-117h-608zM395 -494l62 179h-51v182h112l14 -186l-96 -213z" />
<glyph unicode="&#x13c;" horiz-adv-x="403" d="M135 -494l62 179h-52v182h113l14 -186l-96 -213zM141 0v1493h119v-1493h-119z" />
<glyph unicode="&#x13d;" horiz-adv-x="817" d="M160 0v1434h125v-1317h483v-117h-608zM358 1073l62 178h-51v183h112l15 -187l-97 -213z" />
<glyph unicode="&#x13e;" horiz-adv-x="423" d="M141 0v1493h119v-1493h-119zM336 1133l61 178h-51v182h113l14 -186l-96 -213z" />
<glyph unicode="&#x13f;" horiz-adv-x="819" d="M160 0v1434h125v-1317h483v-117h-608zM565 651v176h117v-176h-117z" />
<glyph unicode="&#x140;" horiz-adv-x="438" d="M141 0v1493h119v-1493h-119zM346 651v176h117v-176h-117z" />
<glyph unicode="&#x141;" horiz-adv-x="829" d="M70 492v131l102 75v736h125v-641l192 143v-131l-192 -143v-545h483v-117h-608v567z" />
<glyph unicode="&#x142;" horiz-adv-x="436" d="M63 565v131l95 70v727h118v-639l97 72v-131l-97 -72v-723h-118v635z" />
<glyph unicode="&#x143;" horiz-adv-x="1077" d="M160 0v1434h127l506 -1186v1186h125v-1434h-130l-503 1184v-1184h-125zM436 1540l172 262h162l-233 -262h-101z" />
<glyph unicode="&#x144;" horiz-adv-x="892" d="M133 0v1075h119v-160q33 36 61 62t69.5 57t88 47.5t94.5 16.5q102 0 150.5 -77t48.5 -196v-825h-119v809q0 180 -119 180q-41 0 -85 -21t-81.5 -55t-62 -61t-45.5 -55v-797h-119zM338 1231l172 262h162l-234 -262h-100z" />
<glyph unicode="&#x145;" horiz-adv-x="1077" d="M160 0v1434h127l506 -1186v1186h125v-1434h-130l-503 1184v-1184h-125zM481 -494l62 179h-51v182h112l14 -186l-96 -213z" />
<glyph unicode="&#x146;" horiz-adv-x="892" d="M133 0v1075h119v-160q33 36 61 62t69.5 57t88 47.5t94.5 16.5q102 0 150.5 -77t48.5 -196v-825h-119v809q0 180 -119 180q-41 0 -85 -21t-81.5 -55t-62 -61t-45.5 -55v-797h-119zM381 -494l61 179h-51v182h113l14 -186l-96 -213z" />
<glyph unicode="&#x147;" horiz-adv-x="1077" d="M160 0v1434h127l506 -1186v1186h125v-1434h-130l-503 1184v-1184h-125zM338 1802h88l119 -182l119 182h90l-142 -262h-135z" />
<glyph unicode="&#x148;" horiz-adv-x="892" d="M133 0v1075h119v-160q33 36 61 62t69.5 57t88 47.5t94.5 16.5q102 0 150.5 -77t48.5 -196v-825h-119v809q0 180 -119 180q-41 0 -85 -21t-81.5 -55t-62 -61t-45.5 -55v-797h-119zM238 1493h88l118 -182l119 182h90l-141 -262h-135z" />
<glyph unicode="&#x149;" horiz-adv-x="892" d="M123 1235l61 178h-51v182h113l14 -186l-96 -213zM133 0v1075h119v-160q33 36 61 62t69.5 57t88 47.5t94.5 16.5q102 0 150.5 -77t48.5 -196v-825h-119v809q0 180 -119 180q-41 0 -85 -21t-81.5 -55t-62 -61t-45.5 -55v-797h-119z" />
<glyph unicode="&#x14a;" horiz-adv-x="1077" d="M160 0v1434h127l506 -1184v1184h125v-1354q0 -48 -0.5 -73t-4 -59t-9.5 -51.5t-18.5 -42t-30 -38.5t-44 -32.5t-60.5 -33.5t-81 -33l-41 105q98 48 128 78.5t34 95.5l-506 1188v-1184h-125z" />
<glyph unicode="&#x14b;" horiz-adv-x="890" d="M133 0v1075h119v-160q33 36 61 62t69.5 57t88 47.5t94.5 16.5q102 0 150.5 -77t48.5 -196v-888v-59t-2 -50t-5 -45t-9 -37.5t-14.5 -34.5t-22 -29t-31 -29t-41.5 -25.5t-53 -27t-66 -26.5l-39 100q33 16 54.5 26.5t40.5 24.5t29.5 22t19 25t12 27t6 35.5t2.5 42.5v55v877 q0 180 -119 180q-41 0 -85 -21t-81.5 -55t-62 -61t-45.5 -55v-797h-119z" />
<glyph unicode="&#x14c;" horiz-adv-x="1085" d="M109 717q0 739 434 739q432 0 432 -739q0 -740 -432 -740q-434 0 -434 740zM238 717q0 -109 8.5 -197.5t29.5 -169t55 -135.5t87.5 -87t124.5 -32t124.5 32t87 86.5t54.5 135.5t29 169.5t8 197.5q0 137 -14 242.5t-46.5 194t-93.5 136t-149 47.5q-71 0 -124.5 -32 t-87.5 -87t-55 -135.5t-29.5 -169t-8.5 -196.5zM338 1591v95h410v-95h-410z" />
<glyph unicode="&#x14d;" d="M92 537q0 263 90 412t258 149q169 0 258.5 -148.5t89.5 -412.5t-89.5 -412t-258.5 -148q-168 0 -258 148.5t-90 411.5zM215 537q0 -451 225 -451q116 0 171 119t55 332t-55 332.5t-171 119.5q-225 0 -225 -452zM236 1282v94h409v-94h-409z" />
<glyph unicode="&#x14e;" horiz-adv-x="1085" d="M109 717q0 739 434 739q432 0 432 -739q0 -740 -432 -740q-434 0 -434 740zM238 717q0 -109 8.5 -197.5t29.5 -169t55 -135.5t87.5 -87t124.5 -32t124.5 32t87 86.5t54.5 135.5t29 169.5t8 197.5q0 137 -14 242.5t-46.5 194t-93.5 136t-149 47.5q-71 0 -124.5 -32 t-87.5 -87t-55 -135.5t-29.5 -169t-8.5 -196.5zM342 1751h84q0 -117 117 -117q116 0 116 117h84q0 -98 -53 -154.5t-147 -56.5q-95 0 -148 56.5t-53 154.5z" />
<glyph unicode="&#x14f;" d="M92 537q0 263 90 412t258 149q169 0 258.5 -148.5t89.5 -412.5t-89.5 -412t-258.5 -148q-168 0 -258 148.5t-90 411.5zM215 537q0 -451 225 -451q116 0 171 119t55 332t-55 332.5t-171 119.5q-225 0 -225 -452zM240 1442h84q0 -117 116 -117q117 0 117 117h84 q0 -98 -53 -154.5t-148 -56.5q-94 0 -147 56.5t-53 154.5z" />
<glyph unicode="&#x150;" horiz-adv-x="1085" d="M109 717q0 739 434 739q432 0 432 -739q0 -740 -432 -740q-434 0 -434 740zM238 717q0 -109 8.5 -197.5t29.5 -169t55 -135.5t87.5 -87t124.5 -32t124.5 32t87 86.5t54.5 135.5t29 169.5t8 197.5q0 137 -14 242.5t-46.5 194t-93.5 136t-149 47.5q-71 0 -124.5 -32 t-87.5 -87t-55 -135.5t-29.5 -169t-8.5 -196.5zM371 1540l110 262h135l-170 -262h-75zM586 1540l108 262h137l-172 -262h-73z" />
<glyph unicode="&#x151;" d="M92 537q0 263 90 412t258 149q169 0 258.5 -148.5t89.5 -412.5t-89.5 -412t-258.5 -148q-168 0 -258 148.5t-90 411.5zM215 537q0 -451 225 -451q116 0 171 119t55 332t-55 332.5t-171 119.5q-225 0 -225 -452zM268 1231l111 262h135l-170 -262h-76zM483 1231l109 262 h137l-172 -262h-74z" />
<glyph unicode="&#x152;" horiz-adv-x="1581" d="M109 717q0 739 434 739q200 0 309 -164v142h625v-117h-500v-543h414v-115h-414v-542h508v-117h-633v139q-108 -162 -309 -162q-434 0 -434 740zM238 717q0 -109 8.5 -197.5t29.5 -169t55 -135.5t87.5 -87t124.5 -32t124.5 32t87 86.5t54.5 135.5t29 169.5t8 197.5 q0 137 -14 242.5t-46.5 194t-93.5 136t-149 47.5q-71 0 -124.5 -32t-87.5 -87t-55 -135.5t-29.5 -169t-8.5 -196.5z" />
<glyph unicode="&#x153;" horiz-adv-x="1421" d="M92 537q0 263 90 412t258 149q100 0 173.5 -54t115.5 -155q45 102 118.5 155.5t164.5 53.5q149 0 231 -128t82 -333q0 -35 -2 -68.5t-4 -50.5l-2 -16h-524q5 -191 61 -304.5t152 -113.5q23 0 48.5 7.5t44.5 16t48 27.5t41 28t42 33t34 27l65 -78q-194 -168 -334 -168 q-83 0 -152.5 53t-113.5 154q-86 -207 -289 -207q-168 0 -258 148.5t-90 411.5zM215 537q0 -451 225 -451q116 0 171 119t55 332t-55 332.5t-171 119.5q-225 0 -225 -452zM793 592h417q3 401 -194 401q-101 0 -158 -106.5t-65 -294.5z" />
<glyph unicode="&#x154;" horiz-adv-x="1015" d="M160 0v1434h336q417 0 417 -404q0 -330 -278 -393l278 -637h-135l-266 625h-227v-625h-125zM285 739h211q134 0 211 70t77 221q0 150 -76 219.5t-206 69.5h-217v-580zM424 1540l172 262h162l-234 -262h-100z" />
<glyph unicode="&#x155;" horiz-adv-x="573" d="M133 0v1075h119v-231q6 20 14 41t32 63.5t53 72t77.5 51t103.5 15.5v-122q-71 0 -126 -35t-83 -84.5t-45.5 -99t-21.5 -84.5l-4 -35v-627h-119zM221 1231l172 262h162l-233 -262h-101z" />
<glyph unicode="&#x156;" horiz-adv-x="1015" d="M160 0v1434h336q417 0 417 -404q0 -330 -278 -393l278 -637h-135l-266 625h-227v-625h-125zM285 739h211q134 0 211 70t77 221q0 150 -76 219.5t-206 69.5h-217v-580zM440 -494l62 179h-51v182h112l15 -186l-97 -213z" />
<glyph unicode="&#x157;" horiz-adv-x="573" d="M127 -494l61 179h-51v182h113l14 -186l-96 -213zM133 0v1075h119v-231q6 20 14 41t32 63.5t53 72t77.5 51t103.5 15.5v-122q-71 0 -126 -35t-83 -84.5t-45.5 -99t-21.5 -84.5l-4 -35v-627h-119z" />
<glyph unicode="&#x158;" horiz-adv-x="1015" d="M160 0v1434h336q417 0 417 -404q0 -330 -278 -393l278 -637h-135l-266 625h-227v-625h-125zM285 739h211q134 0 211 70t77 221q0 150 -76 219.5t-206 69.5h-217v-580zM328 1802h88l119 -182l118 182h90l-141 -262h-135z" />
<glyph unicode="&#x159;" horiz-adv-x="573" d="M125 1493h88l119 -182l119 182h90l-142 -262h-135zM133 0v1075h119v-231q6 20 14 41t32 63.5t53 72t77.5 51t103.5 15.5v-122q-71 0 -126 -35t-83 -84.5t-45.5 -99t-21.5 -84.5l-4 -35v-627h-119z" />
<glyph unicode="&#x15a;" horiz-adv-x="901" d="M84 127l66 98q191 -131 313 -131q94 0 159.5 61t65.5 175q0 37 -8.5 70.5t-20.5 60t-36.5 55.5t-43.5 48t-56 47.5t-60 44.5t-68 46q-55 37 -87 61t-76 65t-67.5 79t-41 92.5t-17.5 116.5q0 160 94 250t238 90q86 0 177 -32.5t163 -80.5l-65 -98q-157 94 -269 94 q-89 0 -148.5 -55.5t-59.5 -163.5q0 -56 17.5 -101t58.5 -87t78 -70t106 -74q40 -27 62.5 -42.5t61.5 -46t61.5 -54.5t51.5 -61t44.5 -73t26.5 -83t11 -98q0 -113 -49.5 -195t-126 -120t-168.5 -38q-102 0 -203.5 44t-183.5 106zM338 1540l172 262h162l-234 -262h-100z" />
<glyph unicode="&#x15b;" horiz-adv-x="755" d="M78 106l61 91q157 -113 260 -113q65 0 111.5 43t46.5 123q0 48 -17.5 87.5t-52.5 70t-64 49t-75 41.5q-45 23 -70.5 37.5t-66 45.5t-62.5 61t-39.5 77t-17.5 102q0 125 73.5 201t190.5 76q134 0 291 -107l-61 -86q-130 86 -221 86q-69 0 -111.5 -43t-42.5 -117 q0 -46 16 -83t48.5 -64t54 -40t59.5 -32q4 -2 6.5 -3.5t5.5 -2.5q145 -72 211 -159t66 -197q0 -126 -76.5 -199.5t-191.5 -73.5q-85 0 -174 38.5t-158 90.5zM266 1231l172 262h162l-233 -262h-101z" />
<glyph unicode="&#x15c;" horiz-adv-x="901" d="M84 127l66 98q191 -131 313 -131q94 0 159.5 61t65.5 175q0 37 -8.5 70.5t-20.5 60t-36.5 55.5t-43.5 48t-56 47.5t-60 44.5t-68 46q-55 37 -87 61t-76 65t-67.5 79t-41 92.5t-17.5 116.5q0 160 94 250t238 90q86 0 177 -32.5t163 -80.5l-65 -98q-157 94 -269 94 q-89 0 -148.5 -55.5t-59.5 -163.5q0 -56 17.5 -101t58.5 -87t78 -70t106 -74q40 -27 62.5 -42.5t61.5 -46t61.5 -54.5t51.5 -61t44.5 -73t26.5 -83t11 -98q0 -113 -49.5 -195t-126 -120t-168.5 -38q-102 0 -203.5 44t-183.5 106zM242 1540l139 262h135l141 -262h-90 l-118 184l-119 -184h-88z" />
<glyph unicode="&#x15d;" horiz-adv-x="755" d="M78 106l61 91q157 -113 260 -113q65 0 111.5 43t46.5 123q0 48 -17.5 87.5t-52.5 70t-64 49t-75 41.5q-45 23 -70.5 37.5t-66 45.5t-62.5 61t-39.5 77t-17.5 102q0 125 73.5 201t190.5 76q134 0 291 -107l-61 -86q-130 86 -221 86q-69 0 -111.5 -43t-42.5 -117 q0 -46 16 -83t48.5 -64t54 -40t59.5 -32q4 -2 6.5 -3.5t5.5 -2.5q145 -72 211 -159t66 -197q0 -126 -76.5 -199.5t-191.5 -73.5q-85 0 -174 38.5t-158 90.5zM172 1231l139 262h135l142 -262h-90l-119 184l-119 -184h-88z" />
<glyph unicode="&#x15e;" horiz-adv-x="901" d="M84 127l66 98q191 -131 313 -131q94 0 159.5 61t65.5 175q0 37 -8.5 70.5t-20.5 60t-36.5 55.5t-43.5 48t-56 47.5t-60 44.5t-68 46q-55 37 -87 61t-76 65t-67.5 79t-41 92.5t-17.5 116.5q0 160 94 250t238 90q86 0 177 -32.5t163 -80.5l-65 -98q-157 94 -269 94 q-89 0 -148.5 -55.5t-59.5 -163.5q0 -56 17.5 -101t58.5 -87t78 -70t106 -74q40 -27 62.5 -42.5t61.5 -46t61.5 -54.5t51.5 -61t44.5 -73t26.5 -83t11 -98q0 -152 -83.5 -243t-209.5 -105q43 -83 43 -162q0 -75 -39 -119.5t-102 -44.5q-58 0 -113 37l31 86q42 -29 70 -29 q36 0 58 25t22 75q0 52 -31 127q-100 3 -200 46.5t-177 103.5z" />
<glyph unicode="&#x15f;" horiz-adv-x="753" d="M78 106l61 91q157 -113 260 -113q65 0 111.5 43t46.5 123q0 48 -17.5 87.5t-52.5 70t-64 49t-75 41.5q-45 23 -70.5 37.5t-66 45.5t-62.5 61t-39.5 77t-17.5 102q0 125 73.5 201t190.5 76q134 0 291 -107l-61 -86q-130 86 -221 86q-69 0 -111.5 -43t-42.5 -117 q0 -46 16 -83t48.5 -64t54 -40t59.5 -32q4 -2 6.5 -3.5t5.5 -2.5q145 -72 211 -159t66 -197q0 -116 -65.5 -186.5t-166.5 -83.5q41 -79 41 -160q0 -75 -39 -119.5t-102 -44.5q-58 0 -113 37l31 86q42 -29 70 -29q36 0 58 25t22 75q0 55 -31 130q-80 5 -161.5 42t-143.5 84z " />
<glyph unicode="&#x160;" horiz-adv-x="901" d="M84 127l66 98q191 -131 313 -131q94 0 159.5 61t65.5 175q0 37 -8.5 70.5t-20.5 60t-36.5 55.5t-43.5 48t-56 47.5t-60 44.5t-68 46q-55 37 -87 61t-76 65t-67.5 79t-41 92.5t-17.5 116.5q0 160 94 250t238 90q86 0 177 -32.5t163 -80.5l-65 -98q-157 94 -269 94 q-89 0 -148.5 -55.5t-59.5 -163.5q0 -56 17.5 -101t58.5 -87t78 -70t106 -74q40 -27 62.5 -42.5t61.5 -46t61.5 -54.5t51.5 -61t44.5 -73t26.5 -83t11 -98q0 -113 -49.5 -195t-126 -120t-168.5 -38q-102 0 -203.5 44t-183.5 106zM242 1802h88l119 -182l118 182h90l-141 -262 h-135z" />
<glyph unicode="&#x161;" horiz-adv-x="755" d="M78 106l61 91q157 -113 260 -113q65 0 111.5 43t46.5 123q0 48 -17.5 87.5t-52.5 70t-64 49t-75 41.5q-45 23 -70.5 37.5t-66 45.5t-62.5 61t-39.5 77t-17.5 102q0 125 73.5 201t190.5 76q134 0 291 -107l-61 -86q-130 86 -221 86q-69 0 -111.5 -43t-42.5 -117 q0 -46 16 -83t48.5 -64t54 -40t59.5 -32q4 -2 6.5 -3.5t5.5 -2.5q145 -72 211 -159t66 -197q0 -126 -76.5 -199.5t-191.5 -73.5q-85 0 -174 38.5t-158 90.5zM170 1493h88l119 -182l119 182h90l-142 -262h-135z" />
<glyph unicode="&#x162;" horiz-adv-x="837" d="M49 1317v117h739v-117h-309v-1317h-28q53 -85 53 -180q0 -75 -39.5 -119.5t-102.5 -44.5q-57 0 -112 37l31 86q42 -29 69 -29q36 0 58 25t22 75q0 78 -41 150h-33v1317h-307z" />
<glyph unicode="&#x163;" horiz-adv-x="563" d="M59 973v102h103v264l119 47v-311h202v-102h-202v-764q0 -119 67 -119q50 0 135 53l49 -94q-90 -56 -174 -67q43 -83 43 -162q0 -75 -39 -119.5t-102 -44.5q-58 0 -113 37l31 86q42 -29 70 -29q36 0 58 25t22 75q0 55 -31 130q-135 14 -135 231v762h-103z" />
<glyph unicode="&#x164;" horiz-adv-x="837" d="M49 1317v117h739v-117h-309v-1317h-123v1317h-307zM211 1802h88l119 -182l119 182h90l-142 -262h-135z" />
<glyph unicode="&#x165;" horiz-adv-x="563" d="M59 973v102h103v264l119 47v-311h202v-102h-202v-764q0 -119 67 -119q50 0 135 53l49 -94q-119 -72 -210 -72q-160 0 -160 234v762h-103zM362 1235l62 178h-51v182h112l15 -186l-97 -213z" />
<glyph unicode="&#x166;" horiz-adv-x="851" d="M57 1317v117h740v-117h-310v-744h154v-92h-154v-481h-122v481h-152v92h152v744h-308z" />
<glyph unicode="&#x167;" horiz-adv-x="563" d="M59 973v102h103v264l119 47v-311h202v-102h-202v-291h159v-94h-159v-379q0 -119 67 -119q50 0 135 53l49 -94q-119 -72 -210 -72q-160 0 -160 234v377h-74v94h74v291h-103z" />
<glyph unicode="&#x168;" horiz-adv-x="1044" d="M152 422v1012h122v-1012q0 -58 6 -103.5t22.5 -88.5t43.5 -71.5t71 -45.5t103 -17q73 0 123 25t76.5 71.5t37.5 101.5t11 128v1012h125v-1012q0 -445 -373 -445q-368 0 -368 445zM297 1597q30 80 58.5 119t72.5 39q31 0 66 -24.5t64.5 -49t47.5 -24.5q19 0 33.5 17.5 t36.5 76.5l65 -33q-31 -83 -58.5 -121t-72.5 -38q-31 0 -66 25t-65 50t-49 25q-16 0 -31.5 -19t-36.5 -75z" />
<glyph unicode="&#x169;" horiz-adv-x="892" d="M129 250v825h119v-809q0 -180 119 -180q41 0 84.5 20.5t81.5 54t62 59.5t46 54v801h119v-1075h-119v158q-167 -181 -313 -181q-102 0 -150.5 77t-48.5 196zM236 1288q30 80 58.5 119t72.5 39q31 0 66 -24.5t64.5 -49t47.5 -24.5q19 0 33 17.5t36 76.5l66 -33 q-31 -83 -58.5 -121.5t-72.5 -38.5q-31 0 -66 25.5t-65 50.5t-49 25q-16 0 -31.5 -19t-36.5 -76z" />
<glyph unicode="&#x16a;" horiz-adv-x="1044" d="M152 422v1012h122v-1012q0 -58 6 -103.5t22.5 -88.5t43.5 -71.5t71 -45.5t103 -17q73 0 123 25t76.5 71.5t37.5 101.5t11 128v1012h125v-1012q0 -445 -373 -445q-368 0 -368 445zM315 1591v95h410v-95h-410z" />
<glyph unicode="&#x16b;" horiz-adv-x="892" d="M129 250v825h119v-809q0 -180 119 -180q41 0 84.5 20.5t81.5 54t62 59.5t46 54v801h119v-1075h-119v158q-167 -181 -313 -181q-102 0 -150.5 77t-48.5 196zM240 1282v94h409v-94h-409z" />
<glyph unicode="&#x16c;" horiz-adv-x="1044" d="M152 422v1012h122v-1012q0 -58 6 -103.5t22.5 -88.5t43.5 -71.5t71 -45.5t103 -17q73 0 123 25t76.5 71.5t37.5 101.5t11 128v1012h125v-1012q0 -445 -373 -445q-368 0 -368 445zM319 1751h84q0 -117 117 -117t117 117h84q0 -98 -53 -154.5t-148 -56.5t-148 56.5 t-53 154.5z" />
<glyph unicode="&#x16d;" horiz-adv-x="892" d="M129 250v825h119v-809q0 -180 119 -180q41 0 84.5 20.5t81.5 54t62 59.5t46 54v801h119v-1075h-119v158q-167 -181 -313 -181q-102 0 -150.5 77t-48.5 196zM244 1442h84q0 -117 116 -117q117 0 117 117h84q0 -98 -53 -154.5t-148 -56.5q-94 0 -147 56.5t-53 154.5z" />
<glyph unicode="&#x16e;" horiz-adv-x="1044" d="M152 422v1012h122v-1012q0 -58 6 -103.5t22.5 -88.5t43.5 -71.5t71 -45.5t103 -17q73 0 123 25t76.5 71.5t37.5 101.5t11 128v1012h125v-1012q0 -445 -373 -445q-368 0 -368 445zM342 1702q0 76 52 129t128 53t130.5 -53.5t54.5 -128.5q0 -76 -54 -129t-131 -53 q-76 0 -128 52.5t-52 129.5zM418 1702q0 -44 30 -74.5t74 -30.5t75.5 30.5t31.5 74.5t-31.5 75t-75.5 31t-74 -31t-30 -75z" />
<glyph unicode="&#x16f;" horiz-adv-x="892" d="M129 250v825h119v-809q0 -180 119 -180q41 0 84.5 20.5t81.5 54t62 59.5t46 54v801h119v-1075h-119v158q-167 -181 -313 -181q-102 0 -150.5 77t-48.5 196zM264 1393q0 76 52 129t128 53t130.5 -53.5t54.5 -128.5q0 -76 -54 -129.5t-131 -53.5q-76 0 -128 53t-52 130z M340 1393q0 -44 30 -74.5t74 -30.5t75.5 30.5t31.5 74.5t-31.5 75t-75.5 31t-74 -31t-30 -75z" />
<glyph unicode="&#x170;" horiz-adv-x="1044" d="M152 422v1012h122v-1012q0 -58 6 -103.5t22.5 -88.5t43.5 -71.5t71 -45.5t103 -17q73 0 123 25t76.5 71.5t37.5 101.5t11 128v1012h125v-1012q0 -445 -373 -445q-368 0 -368 445zM350 1540l111 262h135l-170 -262h-76zM565 1540l109 262h137l-172 -262h-74z" />
<glyph unicode="&#x171;" horiz-adv-x="892" d="M129 250v825h119v-809q0 -180 119 -180q41 0 84.5 20.5t81.5 54t62 59.5t46 54v801h119v-1075h-119v158q-167 -181 -313 -181q-102 0 -150.5 77t-48.5 196zM272 1231l111 262h135l-170 -262h-76zM487 1231l109 262h137l-172 -262h-74z" />
<glyph unicode="&#x172;" horiz-adv-x="1044" d="M152 422v1012h122v-1012q0 -58 6 -103.5t22.5 -88.5t43.5 -71.5t71 -45.5t103 -17q73 0 123 25t76.5 71.5t37.5 101.5t11 128v1012h125v-1012q0 -360 -244 -428q-32 -27 -44.5 -39t-38.5 -40t-37 -55t-11 -57q0 -16 3.5 -29t8 -21.5t14 -14t16 -8.5t19 -4.5t18 -2t19 0 t15.5 0.5l-15 -91q-17 0 -26.5 0.5t-32 3t-37 8t-33.5 16.5t-30.5 27t-20 41.5t-8.5 57.5q0 101 107 190h-15q-368 0 -368 445z" />
<glyph unicode="&#x173;" horiz-adv-x="892" d="M129 250v825h119v-809q0 -180 119 -180q41 0 84.5 20.5t81.5 54t62 59.5t46 54v801h119v-1075h-4q-2 -2 -20.5 -17.5t-24 -20.5t-22.5 -20.5t-23.5 -24t-18.5 -24.5t-17 -28.5t-9.5 -29t-4.5 -32.5t3.5 -29t8 -21.5t14 -14t16 -8.5t19 -4.5t18 -2t19 0t15.5 0.5l-14 -91 q-24 0 -39.5 1t-47 8.5t-51 22.5t-35.5 46.5t-16 75.5q0 119 138 213h-23v158q-167 -181 -313 -181q-102 0 -150.5 77t-48.5 196z" />
<glyph unicode="&#x174;" horiz-adv-x="1372" d="M70 1434h137l205 -1211l215 1211h116l213 -1211l207 1211h137l-272 -1434h-131l-213 1186l-211 -1186h-131zM477 1540l139 262h136l141 -262h-90l-119 184l-119 -184h-88z" />
<glyph unicode="&#x175;" horiz-adv-x="1181" d="M63 1075h125l168 -889l183 889h104l180 -893l168 893h127l-231 -1075h-119l-178 866l-178 -866h-117zM383 1231l139 262h135l142 -262h-90l-119 184l-119 -184h-88z" />
<glyph unicode="&#x177;" horiz-adv-x="815" d="M53 1075h129l226 -907l225 907h129l-414 -1493h-129l131 406zM201 1231l139 262h135l141 -262h-90l-118 184l-119 -184h-88z" />
<glyph unicode="&#x178;" horiz-adv-x="927" d="M43 1434h137l283 -742l285 742h137l-361 -871v-563h-123v569zM285 1561v176h118v-176h-118zM524 1561v176h115v-176h-115z" />
<glyph unicode="&#x179;" horiz-adv-x="909" d="M76 0v109l594 1208h-564v117h709v-107l-596 -1210h604v-117h-747zM350 1540l172 262h162l-233 -262h-101z" />
<glyph unicode="&#x17a;" horiz-adv-x="751" d="M74 0v104l467 863h-453v108h584v-102l-467 -862h467v-111h-598zM262 1231l172 262h162l-234 -262h-100z" />
<glyph unicode="&#x17b;" horiz-adv-x="909" d="M76 0v109l594 1208h-564v117h709v-107l-596 -1210h604v-117h-747zM403 1559v176h117v-176h-117z" />
<glyph unicode="&#x17c;" horiz-adv-x="751" d="M74 0v104l467 863h-453v108h584v-102l-467 -862h467v-111h-598zM311 1251v176h117v-176h-117z" />
<glyph unicode="&#x17d;" horiz-adv-x="909" d="M76 0v109l594 1208h-564v117h709v-107l-596 -1210h604v-117h-747zM254 1802h88l119 -182l119 182h90l-142 -262h-135z" />
<glyph unicode="&#x17e;" horiz-adv-x="751" d="M74 0v104l467 863h-453v108h584v-102l-467 -862h467v-111h-598zM166 1493h88l119 -182l119 182h90l-142 -262h-135z" />
<glyph unicode="&#x17f;" horiz-adv-x="458" d="M66 973v102h100v178q0 240 158 240q80 0 229 -66l-49 -94q-111 47 -154 47q-65 0 -65 -114v-1266h-119v973h-100z" />
<glyph unicode="&#x192;" horiz-adv-x="774" d="M66 -418l223 1391h-105l23 102h98l31 180q22 135 67 186.5t123 51.5q87 0 228 -72l-60 -94q-103 53 -157 53q-32 0 -51.5 -28t-30.5 -90l-31 -187h207l-21 -102h-202l-224 -1391h-118z" />
<glyph unicode="&#x1fc;" horiz-adv-x="1456" d="M10 0l676 1434h666v-117h-500v-543h414v-115h-414v-542h508v-117h-633v373h-403l-170 -373h-144zM377 487h350v762zM680 1540l172 262h162l-234 -262h-100z" />
<glyph unicode="&#x1fd;" horiz-adv-x="1331" d="M84 317q0 177 72.5 266t183.5 89q20 0 43.5 -4t42 -8.5t45 -14t39.5 -15t39 -16t31 -12.5q6 96 24 172q-3 111 -37.5 164t-115.5 53q-38 0 -89.5 -16t-81 -29.5t-102.5 -48.5l-45 98q208 103 336 103q158 0 217 -129q91 129 238 129q149 0 231 -128t82 -333 q0 -35 -2 -68.5t-4 -50.5l-2 -16h-524q5 -191 61 -304.5t152 -113.5q23 0 48.5 7.5t44.5 16t48 27.5t41 28t42 33t34 27l65 -78q-194 -168 -334 -168q-86 0 -156 55t-114 161q-143 -216 -305 -216q-49 0 -91 18t-78.5 55.5t-57.5 106t-21 160.5zM207 322q0 -118 42 -175 t111 -57q72 0 131.5 49.5t116.5 136.5q-25 103 -28 234q-6 3 -41.5 19t-53 23t-47.5 15t-53 8q-64 0 -105.5 -37t-57 -91t-15.5 -125zM551 1231l172 262h162l-234 -262h-100zM705 592h417q3 401 -194 401q-101 0 -158 -106.5t-65 -294.5z" />
<glyph unicode="&#x1fe;" horiz-adv-x="1081" d="M106 717q0 739 435 739q166 0 270 -113l47 91h100l-90 -174q105 -187 105 -543q0 -740 -432 -740q-168 0 -273 111l-45 -88h-98l86 170q-105 187 -105 547zM236 717q0 -262 49 -406l465 910q-74 116 -209 116q-71 0 -124.5 -32t-87.5 -87t-55 -135.5t-29.5 -169 t-8.5 -196.5zM332 211q75 -115 209 -115q71 0 124.5 32t87 86.5t54.5 135.5t29 169.5t8 197.5q0 253 -47 399zM430 1540l172 262h162l-234 -262h-100z" />
<glyph unicode="&#x1ff;" horiz-adv-x="876" d="M90 537q0 263 90 412t258 149q122 0 209 -84l33 61h88l-70 -129q88 -146 88 -409q0 -264 -89.5 -412t-258.5 -148q-125 0 -211 86l-32 -63h-93l72 133q-84 147 -84 404zM213 537q0 -161 31 -273l344 641q-55 84 -150 84q-225 0 -225 -452zM285 170q59 -84 153 -84 q116 0 171 119t55 332q0 174 -35 278zM322 1231l172 262h161l-233 -262h-100z" />
<glyph unicode="&#x218;" horiz-adv-x="901" d="M84 127l66 98q191 -131 313 -131q94 0 159.5 61t65.5 175q0 37 -8.5 70.5t-20.5 60t-36.5 55.5t-43.5 48t-56 47.5t-60 44.5t-68 46q-55 37 -87 61t-76 65t-67.5 79t-41 92.5t-17.5 116.5q0 160 94 250t238 90q86 0 177 -32.5t163 -80.5l-65 -98q-157 94 -269 94 q-89 0 -148.5 -55.5t-59.5 -163.5q0 -56 17.5 -101t58.5 -87t78 -70t106 -74q40 -27 62.5 -42.5t61.5 -46t61.5 -54.5t51.5 -61t44.5 -73t26.5 -83t11 -98q0 -113 -49.5 -195t-126 -120t-168.5 -38q-102 0 -203.5 44t-183.5 106zM387 -494l62 179h-52v182h113l14 -186 l-96 -213z" />
<glyph unicode="&#x219;" horiz-adv-x="755" d="M78 106l61 91q157 -113 260 -113q65 0 111.5 43t46.5 123q0 48 -17.5 87.5t-52.5 70t-64 49t-75 41.5q-45 23 -70.5 37.5t-66 45.5t-62.5 61t-39.5 77t-17.5 102q0 125 73.5 201t190.5 76q134 0 291 -107l-61 -86q-130 86 -221 86q-69 0 -111.5 -43t-42.5 -117 q0 -46 16 -83t48.5 -64t54 -40t59.5 -32q4 -2 6.5 -3.5t5.5 -2.5q145 -72 211 -159t66 -197q0 -126 -76.5 -199.5t-191.5 -73.5q-85 0 -174 38.5t-158 90.5zM311 -494l62 179h-51v182h112l15 -186l-97 -213z" />
<glyph unicode="&#x21a;" horiz-adv-x="837" d="M49 1317v117h739v-117h-309v-1317h-123v1317h-307zM352 -494l62 179h-52v182h113l14 -186l-96 -213z" />
<glyph unicode="&#x21b;" horiz-adv-x="563" d="M59 973v102h103v264l119 47v-311h202v-102h-202v-764q0 -119 67 -119q50 0 135 53l49 -94q-119 -72 -210 -72q-160 0 -160 234v762h-103zM195 -494l61 179h-51v182h112l15 -186l-96 -213z" />
<glyph unicode="&#x2b0;" horiz-adv-x="606" d="M98 788v895h92v-342q31 31 52.5 49.5t61.5 38t79 19.5q64 0 95.5 -47t31.5 -123v-490h-92v474q0 104 -68 104q-44 0 -87.5 -35t-72.5 -74v-469h-92z" />
<glyph unicode="&#x2b2;" horiz-adv-x="288" d="M-4 604q28 13 44 20.5t28.5 19.5t17.5 18t8.5 24.5t3.5 29.5v42v676h92v-670q0 -33 -0.5 -47t-2 -38t-5.5 -34.5t-12 -27.5t-20 -26t-29.5 -21.5t-41 -22.5t-54.5 -21zM94 1563v118h101v-118h-101z" />
<glyph unicode="&#x2b7;" horiz-adv-x="765" d="M45 1434h96l95 -512l108 512h78l104 -510l97 510h98l-146 -646h-88l-104 492l-107 -492h-88z" />
<glyph unicode="&#x2b8;" horiz-adv-x="528" d="M35 1434h98l131 -516l131 516h99l-258 -895h-99l82 241z" />
<glyph unicode="&#x2c6;" horiz-adv-x="378" d="M-18 1231l139 262h135l141 -262h-90l-119 184l-118 -184h-88z" />
<glyph unicode="&#x2c7;" horiz-adv-x="378" d="M-18 1493h88l118 -182l119 182h90l-141 -262h-135z" />
<glyph unicode="&#x2d8;" horiz-adv-x="372" d="M-14 1442h84q0 -117 116 -117q117 0 117 117h84q0 -98 -53 -154.5t-148 -56.5q-94 0 -147 56.5t-53 154.5z" />
<glyph unicode="&#x2d9;" horiz-adv-x="104" d="M-6 1251v176h117v-176h-117z" />
<glyph unicode="&#x2da;" horiz-adv-x="354" d="M-4 1393q0 76 52 129t128 53t130 -53.5t54 -128.5q0 -76 -53.5 -129.5t-130.5 -53.5q-76 0 -128 53t-52 130zM72 1393q0 -44 30 -74.5t74 -30.5t75.5 30.5t31.5 74.5t-31.5 75t-75.5 31t-74 -31t-30 -75z" />
<glyph unicode="&#x2db;" horiz-adv-x="217" d="M-14 -213q0 69 49 130.5t125 105.5l57 -21q-2 -2 -18.5 -15.5t-21.5 -18l-20 -18t-21 -21.5t-18 -21.5t-17.5 -24t-12.5 -24.5t-9.5 -28t-2.5 -28q0 -16 3.5 -29t8 -21.5t14 -14t15.5 -8.5t18.5 -4.5t18 -2t19 0t15.5 0.5l-14 -91q-17 0 -26.5 0.5t-32 3t-37 8 t-33.5 16.5t-30.5 27t-20 41.5t-8.5 57.5z" />
<glyph unicode="&#x2dc;" horiz-adv-x="403" d="M-20 1288q30 80 58.5 119t72.5 39q31 0 66 -24.5t64.5 -49t47.5 -24.5q19 0 33 17.5t36 76.5l66 -33q-31 -83 -58.5 -121.5t-72.5 -38.5q-31 0 -66 25.5t-65 50.5t-49 25q-16 0 -31.5 -19t-36.5 -76z" />
<glyph unicode="&#x2dd;" horiz-adv-x="428" d="M-16 1231l110 262h135l-170 -262h-75zM199 1231l108 262h137l-172 -262h-73z" />
<glyph unicode="&#x2e3;" horiz-adv-x="569" d="M39 788l192 324l-184 322h111l127 -254l129 254h108l-182 -322l192 -324h-112l-135 263l-133 -263h-113z" />
<glyph unicode="&#x3c0;" horiz-adv-x="813" d="M55 958v117h703v-117h-121v-958h-111v958h-239v-958h-111v958h-121z" />
<glyph unicode="&#x1e80;" horiz-adv-x="1372" d="M70 1434h137l205 -1211l215 1211h116l213 -1211l207 1211h137l-272 -1434h-131l-213 1186l-211 -1186h-131zM463 1802h160l174 -262h-99z" />
<glyph unicode="&#x1e81;" horiz-adv-x="1181" d="M63 1075h125l168 -889l183 889h104l180 -893l168 893h127l-231 -1075h-119l-178 866l-178 -866h-117zM369 1493h159l174 -262h-98z" />
<glyph unicode="&#x1e82;" horiz-adv-x="1372" d="M70 1434h137l205 -1211l215 1211h116l213 -1211l207 1211h137l-272 -1434h-131l-213 1186l-211 -1186h-131zM573 1540l172 262h162l-233 -262h-101z" />
<glyph unicode="&#x1e83;" horiz-adv-x="1181" d="M63 1075h125l168 -889l183 889h104l180 -893l168 893h127l-231 -1075h-119l-178 866l-178 -866h-117zM479 1231l172 262h162l-233 -262h-101z" />
<glyph unicode="&#x1e84;" horiz-adv-x="1372" d="M70 1434h137l205 -1211l215 1211h116l213 -1211l207 1211h137l-272 -1434h-131l-213 1186l-211 -1186h-131zM508 1561v176h119v-176h-119zM748 1561v176h114v-176h-114z" />
<glyph unicode="&#x1e85;" horiz-adv-x="1181" d="M63 1075h125l168 -889l183 889h104l180 -893l168 893h127l-231 -1075h-119l-178 866l-178 -866h-117zM414 1251v176h118v-176h-118zM653 1251v176h115v-176h-115z" />
<glyph unicode="&#x1e9e;" horiz-adv-x="1175" d="M160 0v1026q0 408 325 408h469v-97l-295 -491q91 -8 164.5 -39.5t121.5 -76t81 -102t47 -116.5t14 -121q0 -61 -13 -119t-41.5 -112t-70 -94.5t-102.5 -64.5t-135 -24q-153 0 -326 113l62 98q142 -94 252 -94q82 0 141 46.5t84 112.5t25 142q0 43 -8.5 84.5t-33 89.5 t-63.5 83.5t-107.5 59t-156.5 23.5h-76v96l293 486h-322q-99 0 -151.5 -71t-52.5 -240v-1006h-125z" />
<glyph unicode="&#x1ef2;" horiz-adv-x="927" d="M43 1434h137l283 -742l285 742h137l-361 -871v-563h-123v569zM242 1802h159l174 -262h-98z" />
<glyph unicode="&#x1ef3;" horiz-adv-x="815" d="M53 1075h129l226 -907l225 907h129l-414 -1493h-129l131 406zM186 1493h160l174 -262h-98z" />
<glyph unicode="&#x2000;" horiz-adv-x="942" />
<glyph unicode="&#x2001;" horiz-adv-x="1884" />
<glyph unicode="&#x2002;" horiz-adv-x="942" />
<glyph unicode="&#x2003;" horiz-adv-x="1884" />
<glyph unicode="&#x2004;" horiz-adv-x="628" />
<glyph unicode="&#x2005;" horiz-adv-x="471" />
<glyph unicode="&#x2006;" horiz-adv-x="314" />
<glyph unicode="&#x2007;" horiz-adv-x="314" />
<glyph unicode="&#x2008;" horiz-adv-x="235" />
<glyph unicode="&#x2009;" horiz-adv-x="376" />
<glyph unicode="&#x200a;" horiz-adv-x="104" />
<glyph unicode="&#x2010;" horiz-adv-x="655" d="M127 526v113h401v-113h-401z" />
<glyph unicode="&#x2011;" horiz-adv-x="655" d="M127 526v113h401v-113h-401z" />
<glyph unicode="&#x2012;" horiz-adv-x="655" d="M127 526v113h401v-113h-401z" />
<glyph unicode="&#x2013;" horiz-adv-x="837" d="M127 526v113h584v-113h-584z" />
<glyph unicode="&#x2014;" horiz-adv-x="985" d="M127 526v113h731v-113h-731z" />
<glyph unicode="&#x2018;" horiz-adv-x="378" d="M106 1225l115 241l45 -43l-71 -206h63v-218h-135z" />
<glyph unicode="&#x2019;" horiz-adv-x="366" d="M113 1010l71 207h-63v217h135l16 -226l-114 -241z" />
<glyph unicode="&#x201a;" horiz-adv-x="393" d="M117 -207l71 207h-63v217h135l16 -225l-114 -242z" />
<glyph unicode="&#x201c;" horiz-adv-x="636" d="M106 1225l115 241l45 -43l-71 -206h63v-218h-135zM365 1225l114 241l45 -43l-71 -206h63v-218h-135z" />
<glyph unicode="&#x201d;" horiz-adv-x="626" d="M113 1010l71 207h-63v217h135l16 -226l-114 -241zM371 1010l71 207h-63v217h135l16 -226l-114 -241z" />
<glyph unicode="&#x201e;" horiz-adv-x="653" d="M117 -207l71 207h-63v217h135l16 -225l-114 -242zM377 -207l72 207h-64v217h135l17 -225l-115 -242z" />
<glyph unicode="&#x2020;" horiz-adv-x="841" d="M57 823v119l316 -16v508h94v-508l317 16v-119l-317 17v-1258h-94v1256z" />
<glyph unicode="&#x2021;" horiz-adv-x="917" d="M96 287v119l314 -17v449l-314 -15v119l314 -16v508h96v-508l315 16v-119l-315 17v-451l315 17v-119l-315 16v-721h-96v719z" />
<glyph unicode="&#x2022;" horiz-adv-x="796" d="M160 584q0 98 69.5 168.5t167.5 70.5q99 0 169.5 -70.5t70.5 -168.5t-70 -168t-170 -70q-98 0 -167.5 70t-69.5 168z" />
<glyph unicode="&#x2026;" horiz-adv-x="966" d="M125 0v217h139v-217h-139zM414 0v217h139v-217h-139zM702 0v217h140v-217h-140z" />
<glyph unicode="&#x202f;" horiz-adv-x="376" />
<glyph unicode="&#x2030;" horiz-adv-x="2029" d="M82 1077q0 114 26 197t84.5 132.5t145.5 49.5q127 0 189.5 -102.5t62.5 -276.5q0 -177 -63 -283t-189 -106q-129 0 -192.5 106t-63.5 283zM184 1077q0 -85 14 -148.5t49.5 -105t90.5 -41.5q78 0 113.5 81.5t35.5 213.5q0 285 -149 285q-154 0 -154 -285zM408 0l516 1434 h102l-516 -1434h-102zM844 367q0 174 63 276t193 102q128 0 191 -102t63 -276q0 -177 -63 -283.5t-191 -106.5q-129 0 -192.5 106.5t-63.5 283.5zM946 367q0 -85 14 -148.5t49.5 -105t90.5 -41.5q78 0 113.5 81.5t35.5 213.5q0 284 -149 284q-154 0 -154 -284zM1442 365 q0 175 62.5 276.5t191.5 101.5q128 0 191 -102t63 -276q0 -177 -63 -283.5t-191 -106.5q-87 0 -145 52t-83.5 137.5t-25.5 200.5zM1542 365q0 -85 14 -148.5t49.5 -105t90.5 -41.5q78 0 113.5 81.5t35.5 213.5q0 284 -149 284q-154 0 -154 -284z" />
<glyph unicode="&#x2039;" horiz-adv-x="598" d="M68 535v88l428 460v-157l-332 -348l332 -349v-155z" />
<glyph unicode="&#x203a;" horiz-adv-x="598" d="M102 72v157l332 349l-332 348v155l428 -460v-89z" />
<glyph unicode="&#x2044;" horiz-adv-x="227" d="M-170 0l469 1434h100l-469 -1434h-100z" />
<glyph unicode="&#x205f;" horiz-adv-x="471" />
<glyph unicode="&#x2070;" horiz-adv-x="647" d="M84 1219q0 444 240 444q239 0 239 -444q0 -445 -239 -445q-240 0 -240 445zM180 1219q0 -361 144 -361q76 0 109.5 92.5t33.5 268.5q0 175 -33.5 267.5t-109.5 92.5q-144 0 -144 -360z" />
<glyph unicode="&#x2074;" horiz-adv-x="626" d="M57 979v78l289 592h125v-582h94v-88h-94v-191h-94v191h-320zM147 1067h230v471z" />
<glyph unicode="&#x2075;" horiz-adv-x="581" d="M68 862l43 78q1 -1 12 -10t17.5 -13.5t19.5 -14t24.5 -15t25.5 -11.5t29 -9t29 -3q58 0 99 54.5t41 140.5q0 79 -36.5 133.5t-101.5 54.5q-24 0 -52 -11t-37.5 -17.5t-35.5 -24.5l-51 29l35 426h352v-88h-274l-12 -250q46 24 98 24q97 0 154 -80t57 -196q0 -75 -23 -138 t-75 -105t-125 -42q-114 0 -213 88z" />
<glyph unicode="&#x2076;" horiz-adv-x="608" d="M80 1135q-1 247 96 387.5t238 140.5q22 0 43.5 -3.5t32.5 -7.5l10 -3l-23 -84q-28 10 -61 10q-81 0 -148 -84t-86 -248q23 37 63.5 66.5t96.5 29.5q90 0 144.5 -79t54.5 -195q0 -121 -62 -206t-162 -85q-78 0 -133.5 54t-79.5 133.5t-24 173.5zM176 1130q0 -114 37 -191 t102 -77q62 0 95.5 60t33.5 141q0 77 -32 134.5t-93 57.5q-53 0 -91.5 -39.5t-51.5 -85.5z" />
<glyph unicode="&#x2077;" horiz-adv-x="509" d="M55 1561v88h408v-78q-9 -16 -24 -44.5t-53.5 -116.5t-68 -176.5t-53.5 -211.5t-24 -234h-101q0 122 29 258.5t72.5 249t70 171t45.5 94.5h-301z" />
<glyph unicode="&#x2078;" horiz-adv-x="616" d="M74 999q0 154 157 252q-120 86 -120 213q0 88 55 143.5t143 55.5q89 0 144 -55.5t55 -143.5q0 -128 -123 -213q162 -99 162 -252q0 -104 -66 -164.5t-172 -60.5t-170.5 60.5t-64.5 164.5zM170 1004q0 -67 39.5 -106.5t99.5 -39.5q61 0 101.5 39.5t40.5 106.5 q0 69 -38.5 115.5t-103.5 86.5q-64 -39 -101.5 -86t-37.5 -116zM201 1456q0 -95 106 -162q109 65 109 162q0 52 -30.5 88.5t-76.5 36.5q-48 0 -78 -36t-30 -89z" />
<glyph unicode="&#x2079;" horiz-adv-x="608" d="M70 1372q0 122 60 206.5t161 84.5q78 0 133.5 -53.5t79.5 -133t24 -173.5q1 -247 -95.5 -388t-237.5 -141q-22 0 -43.5 3.5t-31.5 6.5l-11 4l22 84q28 -10 59 -10q82 0 149.5 84t86.5 248q-63 -96 -160 -96q-91 0 -143.5 78.5t-52.5 195.5zM162 1374q0 -77 32.5 -134.5 t94.5 -57.5q53 0 91 38.5t52 86.5q0 114 -37 191t-102 77q-62 0 -96.5 -61t-34.5 -140z" />
<glyph unicode="&#x207a;" horiz-adv-x="581" d="M70 1159v78h184v205h74v-205h186v-78h-186v-205h-74v205h-184z" />
<glyph unicode="&#x207d;" horiz-adv-x="352" d="M102 840v753q0 36 1 55.5t6 44.5t15.5 39t29 31t47 30t69.5 26l25 -66q-70 -33 -84 -56t-14 -95v-771q0 -72 14 -95.5t84 -57.5l-25 -66q-49 16 -80.5 33.5t-49.5 33.5t-26 44t-10 50.5t-2 66.5z" />
<glyph unicode="&#x207e;" horiz-adv-x="352" d="M57 678q70 33 84.5 56.5t14.5 94.5v770q0 72 -14.5 96t-84.5 58l25 66q49 -16 80.5 -33.5t49.5 -33.5t26 -44t10 -50.5t2 -66.5v-753q0 -36 -1 -55.5t-6 -44.5t-15.5 -39t-29 -31t-47 -30t-69.5 -26z" />
<glyph unicode="&#x207f;" horiz-adv-x="606" d="M98 788v646h92v-93q102 107 193 107q64 0 95.5 -47t31.5 -123v-490h-92v474q0 104 -68 104q-44 0 -87.5 -35t-72.5 -74v-469h-92z" />
<glyph unicode="&#x2080;" horiz-adv-x="647" d="M84 123q0 444 240 444q239 0 239 -444q0 -445 -239 -445q-240 0 -240 445zM180 123q0 -361 144 -361q76 0 109.5 92.5t33.5 268.5q0 175 -33.5 267.5t-109.5 92.5q-144 0 -144 -360z" />
<glyph unicode="&#x2081;" horiz-adv-x="448" d="M41 438l156 115h86v-860h-93v756l-106 -78z" />
<glyph unicode="&#x2082;" horiz-adv-x="581" d="M70 -240q0 35 5.5 67.5t11.5 56.5t22.5 52.5t24.5 43t32 41.5t30.5 34.5t35 35.5t32.5 32q139 142 139 242q0 51 -31.5 81.5t-80.5 30.5q-77 0 -160 -67l-45 69q103 88 215 88q88 0 143.5 -55t55.5 -147q0 -27 -6.5 -55.5t-13 -49.5t-24.5 -49.5t-26.5 -43t-34.5 -44 t-32.5 -37t-36 -38t-31.5 -32.5q-65 -65 -91 -111t-26 -124h322v-88h-430v67z" />
<glyph unicode="&#x2083;" horiz-adv-x="587" d="M59 -242l50 72q84 -61 159 -61q63 0 104.5 44t41.5 119q0 49 -19 86.5t-50 58t-64 30.5t-66 10h-16v90h22q64 0 115 43t51 115q0 55 -28.5 83.5t-79.5 28.5q-68 0 -148 -59l-43 65q69 54 125 72q40 12 80 12q89 0 138.5 -54.5t49.5 -133.5q0 -65 -34.5 -122.5 t-100.5 -88.5q72 -22 118 -86.5t46 -153.5q0 -103 -58.5 -176.5t-170.5 -73.5q-116 0 -222 80z" />
<glyph unicode="&#x2084;" horiz-adv-x="626" d="M57 -39l289 592h125v-582h94v-88h-94v-190h-94v190h-320v78zM147 -29h230v471z" />
<glyph unicode="&#x2085;" horiz-adv-x="581" d="M68 -233l43 77q1 -1 10.5 -8.5t14.5 -11t16.5 -12t20 -13t21 -11t23.5 -10.5t24.5 -6.5t26.5 -2.5q59 0 99.5 54t40.5 140q0 79 -36.5 134t-101.5 55q-10 0 -20 -1.5t-17.5 -4t-17.5 -6.5t-16 -7t-16 -9t-13.5 -8.5t-13 -9.5t-11.5 -8l-51 29l35 426h352v-88h-274 l-12 -250q48 25 98 25q97 0 154 -80.5t57 -196.5q0 -75 -23 -138t-75 -105t-125 -42q-113 0 -213 89z" />
<glyph unicode="&#x2086;" horiz-adv-x="608" d="M80 39q-1 247 96 387.5t238 140.5q22 0 43.5 -3.5t32.5 -7.5l10 -3l-23 -84q-28 10 -61 10q-81 0 -148 -84t-86 -248q23 37 63.5 67t96.5 30q90 0 144.5 -79.5t54.5 -195.5q0 -121 -62 -206t-162 -85q-78 0 -133.5 54t-79.5 133.5t-24 173.5zM176 35q0 -114 37 -191 t102 -77q62 0 95.5 59.5t33.5 140.5q0 77 -32 135t-93 58q-53 0 -91.5 -39.5t-51.5 -85.5z" />
<glyph unicode="&#x2087;" horiz-adv-x="509" d="M55 465v88h408v-78q-9 -16 -24 -44.5t-53.5 -116.5t-68 -176t-53.5 -211t-24 -234h-101q0 122 29 258t73 249t70 171t45 94h-301z" />
<glyph unicode="&#x2088;" horiz-adv-x="616" d="M74 -96q0 154 157 252q-120 86 -120 213q0 88 55 143t143 55q89 0 144 -55t55 -143q0 -128 -123 -213q162 -99 162 -252q0 -104 -66 -165t-172 -61t-170.5 61t-64.5 165zM170 -92q0 -67 39.5 -106.5t99.5 -39.5q61 0 101.5 39.5t40.5 106.5q0 69 -38.5 116t-103.5 87 q-64 -39 -101.5 -86.5t-37.5 -116.5zM201 360q0 -94 106 -161q109 65 109 161q0 52 -30.5 88.5t-76.5 36.5q-48 0 -78 -36t-30 -89z" />
<glyph unicode="&#x2089;" horiz-adv-x="608" d="M70 276q0 122 60 206.5t161 84.5q78 0 133.5 -53.5t79.5 -133t24 -173.5q1 -247 -95.5 -388t-237.5 -141q-22 0 -43.5 4t-31.5 8l-11 3l22 84q28 -10 59 -10q83 0 150 83.5t86 247.5q-63 -96 -160 -96q-91 0 -143.5 78.5t-52.5 195.5zM162 279q0 -77 33 -135t94 -58 q53 0 91 38.5t52 86.5q0 114 -37 191t-102 77q-62 0 -96.5 -60.5t-34.5 -139.5z" />
<glyph unicode="&#x208a;" horiz-adv-x="581" d="M70 63v78h184v205h74v-205h186v-78h-186v-204h-74v204h-184z" />
<glyph unicode="&#x208d;" horiz-adv-x="352" d="M102 -256v754q0 36 1 55.5t6 44.5t15.5 39t29 30.5t47 29.5t69.5 26l25 -66q-70 -33 -84 -56t-14 -95v-770q0 -72 14 -96t84 -58l-25 -65q-35 11 -61 23t-44 23t-30 27t-18.5 29t-10 36t-4 40t-0.5 49z" />
<glyph unicode="&#x208e;" horiz-adv-x="350" d="M55 -418q70 33 84.5 56.5t14.5 95.5v770q0 71 -14.5 95t-84.5 58l25 66q35 -11 61 -23t44 -23t30 -27t18.5 -29t10 -36t4 -40t0.5 -49v-754q0 -36 -1 -55.5t-6 -44.5t-15.5 -39t-29 -30.5t-47 -29.5t-69.5 -26z" />
<glyph unicode="&#x20a1;" horiz-adv-x="825" d="M106 719q0 267 92 413t226 146l18 -2l27 158h72l-27 -172q28 -11 49 -21l31 193h72l-37 -232q31 -22 100 -82l-63 -88q-46 39 -58 47l-127 -803q16 5 32 13t32.5 18.5t29.5 19.5t29 22t24 20t22 19.5t16 14.5l63 -88q-44 -39 -70 -60.5t-84.5 -54t-111.5 -40.5l-25 -160 h-71l24 160q-21 3 -51 14l-27 -174h-71l32 213q-77 63 -122.5 191.5t-45.5 314.5zM229 719q0 -223 70 -350l127 796q-87 -9 -142 -129.5t-55 -316.5zM360 297q21 -18 50 -25l135 854q-25 18 -49 27z" />
<glyph unicode="&#x20a4;" horiz-adv-x="829" d="M113 0v98q12 15 31.5 43.5t61 113t60.5 167.5h-139v94h154q0 7 1 21t1 22q0 45 -11 109h-145v96h121q-9 29 -42 111.5t-48 143t-15 128.5q0 145 75 227t200 82q62 0 126 -23.5t103 -48.5t88 -63l-67 -88q-74 54 -128 80t-106 26q-76 0 -121 -53.5t-45 -150.5 q0 -58 16.5 -117t46 -134t42.5 -120h252v-96h-230q8 -66 8 -105q0 -8 -1 -24t-1 -23h224v-94h-236q-19 -95 -55 -178.5t-64 -126.5h449v-117h-606z" />
<glyph unicode="&#x20a7;" horiz-adv-x="1001" d="M133 961v81h43v392h305q189 0 297 -91.5t117 -300.5h39v-81h-39q-10 -207 -118.5 -297.5t-295.5 -90.5h-180v-573h-125v961h-43zM301 690h186q262 0 281 271h-467v-271zM301 1042h467q-9 144 -84 209.5t-197 65.5h-186v-275z" />
<glyph unicode="&#x20a9;" horiz-adv-x="1482" d="M109 487v99h178l-49 258h-129v96h110l-94 494h137l84 -494h248l88 494h117l86 -494h250l84 494h137l-94 -494h112v-96h-131l-49 -258h180v-99h-198l-93 -487h-131l-213 1186l-211 -1186h-131l-92 487h-196zM362 844l44 -258h124l48 258h-216zM422 487l45 -264l47 264h-92 zM903 844l45 -258h125l45 258h-215zM967 487l45 -264l45 264h-90z" />
<glyph unicode="&#x20ac;" horiz-adv-x="1040" d="M92 492v94h88q-4 41 -4 131q0 80 2 119h-86v94h94q29 264 130 395t245 131q52 0 103 -16.5t102.5 -50.5t86.5 -62.5t89 -77.5l-72 -86q-6 5 -35.5 30.5t-41 35t-38.5 31t-44.5 31t-42.5 22t-47.5 17.5t-45.5 5q-99 0 -167 -105.5t-93 -299.5h400v-94h-410q-2 -39 -2 -119 q0 -90 4 -131h408v-94h-398q26 -189 93.5 -291.5t164.5 -102.5q18 0 35.5 3t37 11.5t34 14t36 21t32 22t34 26.5t29.5 24.5t31.5 27t27.5 24.5l70 -88q-54 -49 -89 -77.5t-86.5 -62.5t-102.5 -50.5t-103 -16.5q-142 0 -242 128.5t-131 386.5h-96z" />
<glyph unicode="&#x2116;" horiz-adv-x="1658" d="M176 0v1434h127l506 -1186v1186h125v-1434h-129l-504 1184v-1184h-125zM1032 1008q0 198 67.5 302.5t194.5 104.5q129 0 197 -104.5t68 -302.5q0 -199 -68 -303.5t-197 -104.5q-128 0 -195 104.5t-67 303.5zM1077 387v92h432v-92h-432zM1141 1008q0 -156 36.5 -233 t116.5 -77q81 0 117.5 77t36.5 233q0 155 -36.5 232t-117.5 77q-80 0 -116.5 -77.5t-36.5 -231.5z" />
<glyph unicode="&#x2117;" horiz-adv-x="1673" d="M106 717q0 156 49 290.5t140.5 234.5t231 157t311.5 57t311 -57t230 -157t139.5 -234.5t48.5 -290.5t-48.5 -290.5t-139.5 -234.5t-230 -157.5t-311 -57.5t-311.5 57.5t-231 157.5t-140.5 234.5t-49 290.5zM184 717q0 -141 43.5 -262t124.5 -211.5t205.5 -141.5 t278.5 -51q155 0 280 51t206.5 141.5t125 211.5t43.5 262t-43.5 262t-125 211t-206.5 141t-280 51q-154 0 -278.5 -51t-205.5 -141t-124.5 -211t-43.5 -262zM612 285v862h287q299 0 299 -262q0 -264 -299 -264h-184v-336h-103zM715 707h186q197 0 197 178q0 176 -197 176 h-186v-354z" />
<glyph unicode="&#x2120;" horiz-adv-x="980" d="M119 1020l31 53q72 -45 126 -45q32 0 53 15t21 44q0 21 -14.5 38t-29.5 25.5t-52 26.5q-4 2 -7.5 3.5t-6.5 3.5q-53 26 -83 55.5t-30 79.5q0 55 37.5 89t99.5 34q64 0 144 -41l-33 -53q-59 32 -107 32q-30 0 -49.5 -13.5t-19.5 -41.5q0 -10 4 -19.5t8.5 -15.5t17 -14 t19.5 -12t25.5 -13t27.5 -14q27 -14 42.5 -23.5t36.5 -27.5t31.5 -42t10.5 -54q0 -57 -39.5 -90t-101.5 -33q-43 0 -88 16t-74 37zM475 975v459h76l108 -287l113 287h74v-459h-70v319l-94 -243h-43l-94 237v-313h-70z" />
<glyph unicode="&#x2122;" horiz-adv-x="987" d="M127 1364v70h295v-70h-115v-389h-67v389h-113zM477 975v459h72l110 -291l115 291h74v-459h-72v317l-94 -241h-41l-96 243v-319h-68z" />
<glyph unicode="&#x2126;" horiz-adv-x="1095" d="M115 725q0 163 23 291.5t72.5 229.5t135.5 155.5t203 54.5q94 0 167.5 -36t122.5 -100.5t81.5 -157t46.5 -200.5t14 -237q0 -131 -20.5 -240.5t-54 -181t-67.5 -116t-69 -70.5h180v-117h-329v113q107 61 169 210t62 396q0 143 -15.5 252.5t-50 194t-94 129t-143.5 44.5 q-85 0 -145 -44.5t-94.5 -129t-50 -194t-15.5 -252.5q0 -247 62 -396t169 -210v-113h-330v117h179q-34 28 -66.5 72t-66.5 115.5t-55 181t-21 239.5z" />
<glyph unicode="&#x2153;" horiz-adv-x="1206" d="M59 1319l156 115h86v-861h-92v756l-107 -78zM244 0l469 1434h100l-469 -1434h-100zM672 66l49 71q84 -61 160 -61q63 0 104 44.5t41 119.5q0 49 -19 86t-50 57.5t-64 30.5t-66 10h-16v90h23q64 0 114.5 43t50.5 115q0 54 -28.5 83t-79.5 29q-68 0 -148 -59l-43 66 q106 83 205 83q89 0 139 -55t50 -133q0 -65 -35 -122.5t-101 -88.5q73 -22 118.5 -86.5t45.5 -152.5q0 -103 -58.5 -176.5t-170.5 -73.5q-115 0 -221 80z" />
<glyph unicode="&#x2154;" horiz-adv-x="1400" d="M96 573v68q0 35 5.5 67.5t12 56.5t22.5 52.5t24.5 43.5t31.5 41t31.5 35t35.5 35.5t32 31.5q139 142 139 241q0 51 -32 82t-81 31q-75 0 -159 -68l-45 70q103 88 215 88q88 0 143 -55t55 -148q0 -27 -6.5 -55.5t-13 -49.5t-24.5 -49.5t-26.5 -42.5t-34 -43.5t-32 -37 t-36 -38t-31.5 -32.5q-65 -65 -91 -111t-26 -124h321v-89h-430zM440 0l469 1434h101l-469 -1434h-101zM866 66l49 71q84 -61 160 -61q63 0 104.5 44.5t41.5 119.5q0 49 -19 86t-50 57.5t-64 30.5t-66 10h-16v90h22q64 0 115 43t51 115q0 54 -29 83t-80 29q-67 0 -147 -59 l-43 66q106 83 205 83q89 0 138.5 -54.5t49.5 -133.5q0 -65 -34.5 -122.5t-100.5 -88.5q73 -22 118.5 -86.5t45.5 -152.5q0 -48 -14 -92t-41 -80t-72 -57t-103 -21q-115 0 -221 80z" />
<glyph unicode="&#x2155;" horiz-adv-x="1218" d="M59 1319l156 115h86v-861h-92v756l-107 -78zM244 0l469 1434h100l-469 -1434h-100zM682 74l43 78q1 -1 10 -8.5t14.5 -11.5t17 -12t20 -13t21.5 -11.5t24 -10.5t24.5 -6.5t26.5 -2.5q58 0 98.5 54t40.5 140q0 79 -36 134t-101 55q-24 0 -52 -11t-37.5 -17.5t-35.5 -24.5 l-51 28l34 426h353v-88h-275l-12 -250q48 25 98 25q97 0 154 -80.5t57 -196.5q0 -75 -23.5 -138t-75 -104.5t-124.5 -41.5q-114 0 -213 88z" />
<glyph unicode="&#x2156;" horiz-adv-x="1411" d="M96 573v68q0 35 5.5 67.5t12 56.5t22.5 52.5t24.5 43.5t31.5 41t31.5 35t35.5 35.5t32 31.5q139 142 139 241q0 51 -32 82t-81 31q-75 0 -159 -68l-45 70q103 88 215 88q88 0 143 -55t55 -148q0 -27 -6.5 -55.5t-13 -49.5t-24.5 -49.5t-26.5 -42.5t-34 -43.5t-32 -37 t-36 -38t-31.5 -32.5q-65 -65 -91 -111t-26 -124h321v-89h-430zM438 0l469 1434h101l-469 -1434h-101zM877 74l43 78q1 -1 12 -10t17.5 -13.5t19.5 -14t24.5 -15t25.5 -11.5t29 -9t29 -3q59 0 99.5 54t40.5 140q0 79 -36.5 134t-101.5 55q-24 0 -52 -11t-37.5 -17.5 t-35.5 -24.5l-51 28l35 426h352v-88h-274l-12 -250q48 25 98 25q97 0 154 -80.5t57 -196.5q0 -75 -23.5 -138t-75 -104.5t-124.5 -41.5q-114 0 -213 88z" />
<glyph unicode="&#x2157;" horiz-adv-x="1382" d="M84 639l49 72q85 -62 160 -62q63 0 104 44.5t41 119.5q0 49 -19 86t-49.5 57.5t-63.5 30.5t-66 10h-17v90h23q64 0 115 43t51 115q0 55 -29 84t-80 29q-66 0 -147 -60l-43 66l8 6q8 7 12 10t14 10t17 11.5t19.5 11.5t22.5 11t24 9t27 8t29 5t31 2q89 0 139 -55t50 -133 q0 -65 -34.5 -122.5t-100.5 -88.5q72 -22 118 -86.5t46 -153.5q0 -48 -14 -92t-41 -80t-72 -57t-103 -21q-115 0 -221 80zM410 0l469 1434h100l-469 -1434h-100zM848 74l43 78q1 -1 10 -8.5t14.5 -11.5t17 -12t20 -13t21.5 -11.5t24 -10.5t24.5 -6.5t26.5 -2.5q58 0 98.5 54 t40.5 140q0 79 -36 134t-101 55q-24 0 -52 -11t-37.5 -17.5t-35.5 -24.5l-52 28l35 426h353v-88h-275l-12 -250q48 25 98 25q97 0 154 -80.5t57 -196.5q0 -75 -23.5 -138t-75 -104.5t-124.5 -41.5q-114 0 -213 88z" />
<glyph unicode="&#x2158;" horiz-adv-x="1419" d="M68 764v78l288 592h125v-582h94v-88h-94v-191h-94v191h-319zM158 852h229v471zM446 0l469 1434h101l-469 -1434h-101zM885 74l43 78q1 -1 12 -10t17.5 -13.5t19.5 -14t24.5 -15t25.5 -11.5t29 -9t29 -3q59 0 99.5 54t40.5 140q0 79 -36.5 134t-101.5 55q-10 0 -20 -1.5 t-17.5 -3.5t-17.5 -6.5t-15.5 -7t-16 -9t-13.5 -8.5t-13 -9t-11 -8l-52 28l35 426h352v-88h-274l-12 -250q48 25 98 25q97 0 154 -80.5t57 -196.5q0 -75 -23.5 -138t-75 -104.5t-124.5 -41.5q-114 0 -213 88z" />
<glyph unicode="&#x2159;" horiz-adv-x="1185" d="M59 1319l156 115h86v-861h-92v756l-107 -78zM244 0l469 1434h100l-469 -1434h-100zM635 346q-1 247 96 387.5t238 140.5q22 0 43.5 -3.5t31.5 -6.5l11 -4l-23 -84q-28 10 -61 10q-81 0 -148 -83.5t-86 -247.5q23 37 63.5 66.5t96.5 29.5q90 0 144.5 -79.5t54.5 -195.5 q0 -121 -62 -205.5t-162 -84.5q-78 0 -133.5 53.5t-79.5 133t-24 173.5zM731 342q0 -114 37 -191t102 -77q62 0 95.5 59.5t33.5 140.5q0 77 -32 135t-93 58q-53 0 -91.5 -39.5t-51.5 -85.5z" />
<glyph unicode="&#x215a;" horiz-adv-x="1323" d="M88 647l43 78q1 -1 10 -8.5t14.5 -11.5t17 -12t20 -13t21.5 -11.5t24 -10.5t24.5 -6.5t26.5 -2.5q58 0 98.5 54.5t40.5 140.5q0 79 -36 133.5t-101 54.5q-24 0 -52 -11t-37.5 -17.5t-35.5 -24.5l-51 29l35 426h352v-88h-275l-12 -250q46 24 98 24q97 0 154 -80t57 -196 q0 -75 -23 -138t-75 -105t-125 -42q-114 0 -213 88zM383 0l469 1434h100l-469 -1434h-100zM774 346q-1 247 96 387.5t238 140.5q22 0 43.5 -3.5t32.5 -6.5l10 -4l-23 -84q-28 10 -61 10q-81 0 -147.5 -83.5t-85.5 -247.5q60 96 159 96q90 0 144.5 -79.5t54.5 -195.5 q0 -121 -61.5 -205.5t-161.5 -84.5q-78 0 -133.5 53.5t-80 133t-24.5 173.5zM870 342q0 -114 37.5 -191t102.5 -77q62 0 95.5 59.5t33.5 140.5q0 77 -32 135t-93 58q-53 0 -92 -39.5t-52 -85.5z" />
<glyph unicode="&#x215b;" horiz-adv-x="1214" d="M59 1319l156 115h86v-861h-92v756l-107 -78zM244 0l469 1434h100l-469 -1434h-100zM662 211q0 154 157 252q-121 87 -121 213q0 88 55.5 143t143.5 55q89 0 144 -55t55 -143q0 -128 -123 -213q162 -99 162 -252q0 -104 -66 -164.5t-172 -60.5t-170.5 60.5t-64.5 164.5z M758 215q0 -67 39.5 -106t99.5 -39q61 0 101 39t40 106q0 37 -11.5 68.5t-33.5 56t-44 42.5t-52 36q-64 -39 -101.5 -86.5t-37.5 -116.5zM788 668q0 -95 107 -162q109 65 109 162q0 52 -30.5 88.5t-76.5 36.5q-48 0 -78.5 -36.5t-30.5 -88.5z" />
<glyph unicode="&#x215c;" horiz-adv-x="1380" d="M84 639l49 72q85 -62 160 -62q63 0 104 44.5t41 119.5q0 49 -19 86t-49.5 57.5t-63.5 30.5t-66 10h-17v90h23q64 0 115 43t51 115q0 55 -29 84t-80 29q-66 0 -147 -60l-43 66l8 6q8 7 12 10t14 10t17 11.5t19.5 11.5t22.5 11t24 9t27 8t29 5t31 2q89 0 139 -55t50 -133 q0 -65 -34.5 -122.5t-100.5 -88.5q72 -22 118 -86.5t46 -153.5q0 -48 -14 -92t-41 -80t-72 -57t-103 -21q-115 0 -221 80zM410 0l469 1434h100l-469 -1434h-100zM829 211q0 153 158 252q-121 87 -121 213q0 88 55.5 143t143.5 55q89 0 144 -55t55 -143q0 -128 -123 -213 q162 -99 162 -252q0 -104 -66 -164.5t-172 -60.5t-171 60.5t-65 164.5zM926 215q0 -67 39.5 -106t99.5 -39q61 0 101 39t40 106q0 37 -11.5 68.5t-33.5 56t-44 42.5t-52 36q-64 -39 -101.5 -86.5t-37.5 -116.5zM956 668q0 -95 107 -162q108 65 108 162q0 52 -30 88.5 t-76 36.5q-48 0 -78.5 -36.5t-30.5 -88.5z" />
<glyph unicode="&#x215d;" horiz-adv-x="1351" d="M88 647l43 78q1 -1 10 -8.5t14.5 -11.5t17 -12t20 -13t21.5 -11.5t24 -10.5t24.5 -6.5t26.5 -2.5q58 0 98.5 54.5t40.5 140.5q0 79 -36 133.5t-101 54.5q-24 0 -52 -11t-37.5 -17.5t-35.5 -24.5l-51 29l35 426h352v-88h-275l-12 -250q46 24 98 24q97 0 154 -80t57 -196 q0 -75 -23 -138t-75 -105t-125 -42q-114 0 -213 88zM383 0l469 1434h100l-469 -1434h-100zM801 211q0 154 157 252q-120 86 -120 213q0 88 55 143t143 55q89 0 144 -55t55 -143q0 -128 -123 -213q162 -99 162 -252q0 -104 -66 -164.5t-172 -60.5t-170.5 60.5t-64.5 164.5z M897 215q0 -67 39.5 -106t99.5 -39q61 0 101.5 39t40.5 106q0 69 -38.5 116t-103.5 87q-64 -39 -101.5 -86.5t-37.5 -116.5zM928 668q0 -95 106 -162q109 65 109 162q0 52 -30.5 88.5t-76.5 36.5q-48 0 -78 -36t-30 -89z" />
<glyph unicode="&#x215e;" horiz-adv-x="1220" d="M70 1346v88h407v-78q-9 -16 -24 -44.5t-53.5 -116.5t-68 -176.5t-53.5 -211.5t-24 -234h-100q0 122 29 258.5t72.5 249t70 171t45.5 94.5h-301zM250 0l469 1434h100l-469 -1434h-100zM668 211q0 154 157 252q-120 86 -120 213q0 88 55 143t143 55q89 0 144 -55t55 -143 q0 -128 -123 -213q162 -99 162 -252q0 -104 -66 -164.5t-172 -60.5t-170.5 60.5t-64.5 164.5zM764 215q0 -67 39.5 -106t99.5 -39q61 0 101 39t40 106q0 37 -11.5 68.5t-33.5 56t-44 42.5t-52 36q-64 -39 -101.5 -86.5t-37.5 -116.5zM795 668q0 -95 106 -162q109 65 109 162 q0 52 -30.5 88.5t-76.5 36.5q-48 0 -78 -36t-30 -89z" />
<glyph unicode="&#x2202;" horiz-adv-x="911" d="M96 475q0 225 89.5 362.5t232.5 137.5q51 0 95.5 -16.5t71.5 -40.5t47 -48t28 -40l8 -17q-15 91 -44 176t-73 163t-110.5 125.5t-143.5 47.5q-26 0 -53.5 -4.5t-41.5 -8.5l-14 -5l-18 102q53 25 129 25q150 0 264.5 -110t176 -305.5t61.5 -447.5q0 -134 -18.5 -237.5 t-50.5 -170t-77.5 -109t-95.5 -60t-110 -17.5q-163 0 -258 135.5t-95 362.5zM219 475q0 -181 59 -285t171 -104q110 0 170.5 102.5t60.5 288.5q0 187 -58.5 288t-172.5 101q-112 0 -171 -106.5t-59 -284.5z" />
<glyph unicode="&#x2206;" horiz-adv-x="980" d="M43 0l381 1434h135l379 -1434h-895zM197 117h585l-290 1159z" />
<glyph unicode="&#x220f;" horiz-adv-x="1015" d="M66 1317v117h884v-117h-149v-1317h-121v1317h-344v-1317h-121v1317h-149z" />
<glyph unicode="&#x2211;" horiz-adv-x="827" d="M94 0v115l393 602l-393 602v115h631v-117h-485l393 -600l-393 -600h485v-117h-631z" />
<glyph unicode="&#x2212;" d="M86 629v106h707v-106h-707z" />
<glyph unicode="&#x221a;" horiz-adv-x="856" d="M55 696h131l164 -491l344 1229h129l-417 -1434h-101z" />
<glyph unicode="&#x221e;" horiz-adv-x="1341" d="M111 528q0 135 74 226.5t190 91.5q79 0 146.5 -59.5t150.5 -178.5q80 112 116 149q87 88 185 89q112 0 186 -92t74 -226t-74.5 -225.5t-189.5 -91.5q-85 0 -149 55t-148 178q-86 -122 -151.5 -177.5t-149.5 -55.5q-113 0 -186.5 91.5t-73.5 225.5zM213 528q0 -79 45 -146 t119 -67q24 0 47 10t39.5 21t40 38t35 42t38.5 52.5t37 51.5q-80 117 -127.5 164t-107.5 47q-77 0 -121.5 -67.5t-44.5 -145.5zM727 528q83 -117 117 -152q62 -61 125 -61q73 0 118.5 68t45.5 145q0 78 -46 145.5t-120 67.5q-61 0 -111 -49t-129 -164z" />
<glyph unicode="&#x222b;" horiz-adv-x="593" d="M47 -199h31q24 0 43.5 3.5t34.5 13.5t27 19.5t20.5 28.5t14.5 33t10 42t6 46t3 54t1 56.5v62.5v1153q0 227 61 316t227 89h21v-94h-31q-26 0 -47 -6t-36.5 -14t-27.5 -26t-20 -32t-13 -43t-8 -48t-4.5 -58t-1.5 -61.5v-69.5v-1153q0 -226 -62.5 -316t-227.5 -90h-21v94z " />
<glyph unicode="&#x2248;" horiz-adv-x="878" d="M86 430q69 203 201 203q43 0 87.5 -22t76 -48.5t73 -48.5t78.5 -22q34 0 61.5 25t57.5 101l72 -34q-66 -203 -199 -203q-44 0 -89.5 22t-77.5 48.5t-73.5 48.5t-77.5 22q-33 0 -60.5 -26.5t-55.5 -102.5zM86 793q68 200 201 200q35 0 70 -14.5t64.5 -34.5t57.5 -40.5 t60.5 -35t62.5 -14.5q34 0 61.5 25.5t57.5 101.5l72 -37q-66 -201 -199 -201q-35 0 -70.5 14.5t-65.5 35.5t-59 42t-61 35.5t-62 14.5q-33 0 -60.5 -26.5t-55.5 -102.5z" />
<glyph unicode="&#x2260;" d="M86 449v108h266l76 256h-342v107h373l102 344l84 -33l-92 -311h240v-107h-273l-76 -256h349v-108h-379l-101 -340l-82 32l91 308h-236z" />
<glyph unicode="&#x2264;" d="M82 0v100h706v-100h-706zM84 594v96l704 426v-133l-591 -342l591 -342v-131z" />
<glyph unicode="&#x2265;" d="M92 0v100h707v-100h-707zM92 168v131l592 342l-592 342v133l705 -426v-96z" />
<glyph unicode="&#x2318;" horiz-adv-x="1404" d="M119 346q0 107 77.5 184.5t186.5 77.5h162v221h-162q-109 0 -186.5 78t-77.5 187t77.5 185.5t186.5 76.5t186.5 -76.5t77.5 -185.5v-162h113v162q0 109 77 185.5t187 76.5q109 0 185.5 -76.5t76.5 -185.5t-77 -187t-185 -78h-162v-221h162q108 0 185 -77t77 -185 q0 -110 -76.5 -187t-185.5 -77q-110 0 -187 77t-77 187v160h-113v-160q0 -110 -77.5 -187t-186.5 -77t-186.5 77t-77.5 187zM221 346q0 -68 47.5 -115t114.5 -47q66 0 114 47.5t48 114.5v160h-162q-67 0 -114.5 -47t-47.5 -113zM221 1094q0 -68 47.5 -115t114.5 -47h162v162 q0 66 -48 112.5t-114 46.5q-67 0 -114.5 -46.5t-47.5 -112.5zM647 608h113v221h-113v-221zM862 346q0 -68 47 -115t115 -47q66 0 113 47.5t47 114.5q0 66 -47 113t-113 47h-162v-160zM862 932h162q66 0 113 47.5t47 114.5q0 66 -47 112.5t-113 46.5q-67 0 -114.5 -46.5 t-47.5 -112.5v-162z" />
<glyph unicode="&#x25ca;" horiz-adv-x="837" d="M84 717l266 717h139l267 -717l-267 -717h-139zM203 717l217 -580l217 580l-217 579z" />
<glyph unicode="&#xe000;" horiz-adv-x="1075" d="M0 0v1075h1075v-1075h-1075z" />
<glyph unicode="&#xf639;" horiz-adv-x="886" d="M72 717q0 739 370 739q371 0 371 -739q0 -740 -371 -740q-370 0 -370 740zM197 717q0 -147 13 -259t41 -197t76 -129t115 -44q246 0 246 629q0 147 -13 258.5t-41.5 195.5t-76.5 128t-115 44q-130 0 -187.5 -162.5t-57.5 -463.5z" />
<glyph unicode="&#xf63a;" horiz-adv-x="888" d="M102 0v104q0 59 8.5 113t20.5 96t34.5 85.5t41.5 73t50 67t51.5 58.5t55.5 57.5t52 54.5q223 244 223 426q0 94 -54 149t-139 55q-116 0 -253 -108l-64 92q164 133 328 133q135 0 221 -86t86 -235q0 -67 -19.5 -134t-47.5 -120.5t-71.5 -112.5t-80 -100t-83.5 -93 q-19 -20 -28 -30q-54 -60 -83 -96.5t-57.5 -88.5t-40 -109.5t-11.5 -133.5h524v-117h-664z" />
<glyph unicode="&#xf63b;" horiz-adv-x="886" d="M82 98l65 97q136 -101 254 -101q107 0 177.5 82t70.5 217q0 86 -31 153.5t-80.5 106t-104.5 57.5t-109 19h-27v119h33q107 0 191.5 79.5t84.5 207.5q0 97 -50.5 150.5t-137.5 53.5q-114 0 -232 -94l-59 84q146 127 309 127q139 0 217 -88.5t78 -218.5q0 -108 -57 -205 t-170 -151q120 -36 196 -145t76 -261q0 -79 -22.5 -151t-65 -130.5t-113.5 -93.5t-161 -35q-101 0 -191 39t-141 82z" />
<glyph unicode="&#xf63c;" horiz-adv-x="888" d="M49 330v106l471 998h158v-988h149v-116h-149v-330h-123v330h-506zM166 446h389v826z" />
<glyph unicode="&#xf63d;" horiz-adv-x="888" d="M102 115l60 102q139 -121 248 -121q98 0 168.5 98t70.5 252q0 144 -61.5 242t-169.5 98q-94 0 -207 -92l-66 35l54 705h538v-117h-436l-25 -463q78 47 168 47q101 0 178 -62.5t115.5 -165t38.5 -227.5q0 -91 -22.5 -174t-64.5 -149.5t-111 -106t-154 -39.5 q-162 0 -322 138z" />
<glyph unicode="&#xf63e;" horiz-adv-x="890" d="M98 573q-1 171 27 316.5t76.5 248.5t114.5 175.5t141.5 107.5t156.5 35q34 0 66.5 -5.5t48.5 -10.5l16 -6l-28 -111q-46 18 -99 18q-65 0 -126.5 -36t-116 -106.5t-93.5 -189t-53 -270.5q16 28 37 54t54 55t78.5 47t95.5 18q98 0 171 -63.5t108.5 -165.5t35.5 -225 q0 -130 -40.5 -239t-120 -176t-183.5 -67q-91 0 -163 51t-115 136.5t-65.5 189.5t-23.5 219zM223 569q0 -128 25.5 -234t81.5 -174.5t135 -68.5q71 0 123 55.5t75 136.5t23 175q0 87 -20.5 162t-70.5 128.5t-122 53.5q-62 0 -117.5 -39t-87 -89.5t-45.5 -101.5v-4z" />
<glyph unicode="&#xf63f;" horiz-adv-x="886" d="M131 1317v117h637v-101q-15 -27 -39 -74.5t-86 -197t-109.5 -299t-86.5 -360.5t-39 -402h-132q0 172 34.5 367t79.5 343.5t101 294t86.5 211t49.5 101.5h-496z" />
<glyph unicode="&#xf640;" horiz-adv-x="886" d="M78 346q0 80 23.5 149t65.5 121t82 86.5t91 67.5q-203 141 -203 363q0 142 86 232.5t219 90.5t220.5 -90.5t87.5 -232.5q0 -221 -205 -363q40 -26 72.5 -51t69.5 -65t62.5 -83t42.5 -101.5t17 -123.5q0 -171 -103 -270t-264 -99q-159 0 -261.5 99t-102.5 270zM205 350 q0 -122 67.5 -191t169.5 -69q104 0 172 69t68 191q0 53 -14 100.5t-36 83t-55.5 69.5t-64 57.5t-70.5 48.5q-50 -32 -87 -63t-73.5 -75t-56.5 -100t-20 -121zM258 1120q0 -174 184 -289q187 114 187 289q0 95 -52.5 160.5t-134.5 65.5t-133 -65t-51 -161z" />
<glyph unicode="&#xf641;" horiz-adv-x="890" d="M80 975q0 130 40.5 238.5t120.5 175.5t185 67q91 0 163 -51t115 -136.5t65.5 -189.5t23.5 -219q1 -171 -27 -316.5t-77 -248.5t-115 -175.5t-141.5 -107.5t-156.5 -35q-34 0 -66.5 5.5t-48.5 11.5l-16 6l29 111q45 -19 98 -19q64 0 125 35.5t114.5 105.5t92.5 188t53 269 q-36 -64 -102 -117t-158 -53q-98 0 -171.5 64t-109.5 166t-36 225zM205 975q0 -88 20.5 -163t70.5 -128t122 -53q88 0 155 68.5t93 150.5v14q0 128 -25.5 234t-80.5 174.5t-132 68.5q-72 0 -124.5 -55t-75.5 -136t-23 -175z" />
<glyph unicode="&#xf6c3;" horiz-adv-x="124" d="M0 -494l61 179h-51v182h113l14 -186l-96 -213z" />
<glyph unicode="&#xf6dc;" horiz-adv-x="888" d="M117 0v117h289v1175l-228 -176l-61 90l299 228h112v-1317h289v-117h-700z" />
<glyph unicode="&#xf6df;" horiz-adv-x="546" d="M78 125q0 153 54 239.5t134 92.5v96h70v-102q17 -5 33 -12.5t34 -19t26.5 -17t28.5 -20.5l19 -15l-45 -70q-4 3 -23 17.5t-37.5 27t-35.5 20.5v-479q14 6 29.5 16t25.5 17.5t24 19.5t17 15l45 -70q-86 -69 -141 -86v-102h-70v94q-80 8 -134 95.5t-54 242.5zM172 125 q0 -100 25.5 -166.5t68.5 -81.5v492q-43 -17 -68.5 -82t-25.5 -162z" />
<glyph unicode="&#xf6e0;" horiz-adv-x="546" d="M78 1221q0 153 54 239t134 92v97h70v-103q17 -5 33 -12.5t34 -19t26.5 -17t28.5 -20.5l19 -15l-45 -69q-4 3 -23 17.5t-37.5 27t-35.5 20.5v-479q14 6 29.5 16t25.5 17.5t24 19.5t17 15l45 -70q-86 -69 -141 -86v-103h-70v95q-80 8 -134 95.5t-54 242.5zM172 1221 q0 -100 25.5 -166.5t68.5 -81.5v491q-43 -17 -68.5 -81.5t-25.5 -161.5z" />
<glyph unicode="&#xf6e1;" horiz-adv-x="290" d="M88 -434l51 127h-45v147h99l10 -155l-84 -152z" />
<glyph unicode="&#xf6e2;" horiz-adv-x="290" d="M88 662l51 126h-45v148h99l10 -156l-84 -151z" />
<glyph unicode="&#xf6e3;" horiz-adv-x="602" d="M63 -225l52 75q82 -59 153 -75v323l-12 11q-42 28 -67 47.5t-54 50t-43 67.5t-14 82q0 91 52 146t138 63v113h68v-115q86 -10 178 -67l-49 -78q-76 43 -129 53v-301l8 -4q32 -20 54 -36t50.5 -42.5t46 -53t30 -63t12.5 -77.5q0 -93 -56.5 -150t-144.5 -63v-111h-68v113 q-99 15 -205 92zM178 358q0 -75 90 -141v254q-40 -8 -65 -37t-25 -76zM336 53v-278q45 8 73.5 39.5t28.5 83.5q0 47 -26 82.5t-76 72.5z" />
<glyph unicode="&#xf6e4;" horiz-adv-x="600" d="M63 870l52 76q89 -64 153 -76v324l-12 10q-42 27 -67.5 47t-54 51t-42.5 68t-14 82q0 91 52 146t138 63v113h68v-115q84 -10 178 -68l-49 -78q-79 44 -129 54v-301l8 -4q40 -26 67.5 -47.5t60 -55.5t49 -77t16.5 -93q0 -94 -56.5 -151.5t-144.5 -63.5v-108h-68v112 q-105 16 -205 92zM178 1454q0 -75 90 -141v254q-40 -8 -65 -37t-25 -76zM336 868q44 8 73 40t29 85q0 82 -102 156v-281z" />
<glyph unicode="&#xf6e7;" horiz-adv-x="286" d="M94 -160h101v-147h-101v147z" />
<glyph unicode="&#xf6e8;" horiz-adv-x="288" d="M94 788v148h101v-148h-101z" />
<glyph unicode="&#xf6e9;" horiz-adv-x="569" d="M59 981q0 104 47.5 157.5t120.5 53.5q42 0 156 -35v92q0 61 -19.5 89t-68.5 28q-25 0 -56.5 -9t-48.5 -16t-65 -28l-35 73q137 62 219 62q166 0 166 -193v-467h-92v84q-81 -98 -168 -98q-66 0 -111 51t-45 156zM154 983q0 -63 24.5 -94t63.5 -31q69 0 141 94v146 q-81 26 -125 26q-104 0 -104 -141z" />
<glyph unicode="&#xf6ea;" horiz-adv-x="595" d="M98 788v895h92v-333q81 98 160 98q80 0 128 -83t48 -255q0 -169 -48 -252.5t-128 -83.5q-81 0 -160 96v-82h-92zM190 963q27 -46 62.5 -75.5t73.5 -29.5q106 0 106 252q0 254 -106 254q-38 0 -73.5 -29t-62.5 -75v-297z" />
<glyph unicode="&#xf6eb;" horiz-adv-x="595" d="M70 1110q0 172 48 255t128 83q48 0 85.5 -26.5t74.5 -71.5v333h90v-895h-90v82q-25 -28 -43.5 -46t-50.5 -34t-66 -16q-80 0 -128 83.5t-48 252.5zM162 1110q0 -119 27.5 -185.5t80.5 -66.5q35 0 71.5 28t64.5 72v304q-28 45 -64.5 73.5t-71.5 28.5q-53 0 -80.5 -66.5 t-27.5 -187.5z" />
<glyph unicode="&#xf6ec;" horiz-adv-x="563" d="M70 1112q0 160 60.5 248t160.5 88q97 0 150 -77.5t53 -203.5q0 -21 -2 -41.5t-4 -30.5l-3 -10h-319q3 -106 35 -168.5t88 -62.5q55 0 162 82l45 -59q-121 -103 -215 -103q-91 0 -151 88t-60 250zM166 1149h240q0 221 -113 221q-58 0 -90 -58.5t-37 -162.5z" />
<glyph unicode="&#xf6ed;" horiz-adv-x="290" d="M96 1563v118h99v-118h-99zM100 788v646h93v-646h-93z" />
<glyph unicode="&#xf6ee;" horiz-adv-x="288" d="M98 788v895h92v-895h-92z" />
<glyph unicode="&#xf6ef;" d="M100 788v646h93v-97q83 111 169 111q54 0 83 -35.5t38 -83.5q85 119 179 119q62 0 92 -47.5t30 -122.5v-490h-92v469q0 109 -65 109q-37 0 -74.5 -34.5t-65.5 -80.5v-463h-92v469q0 109 -65 109q-69 0 -137 -111v-467h-93z" />
<glyph unicode="&#xf6f0;" horiz-adv-x="587" d="M68 1110q0 159 58 248.5t167 89.5t167 -89.5t58 -248.5t-58 -247.5t-167 -88.5t-167 88.5t-58 247.5zM162 1110q0 -254 131 -254t131 254q0 256 -131 256t-131 -256z" />
<glyph unicode="&#xf6f1;" horiz-adv-x="405" d="M98 788v646h92v-140q4 15 14 35.5t30 50.5t54.5 48t76.5 14v-96q-32 0 -59 -11t-44.5 -29t-31.5 -40t-21 -43.5t-11.5 -39.5t-5.5 -29l-2 -11v-355h-92z" />
<glyph unicode="&#xf6f2;" horiz-adv-x="512" d="M61 854l41 68q36 -27 83 -48.5t83 -21.5q38 0 64 24t26 68q0 26 -10.5 47.5t-32 38t-39 26.5t-45.5 23q-33 16 -55.5 29.5t-50 37t-41.5 56.5t-14 74q0 76 47.5 124t122.5 48q91 0 190 -68l-41 -61q-78 51 -139 51q-39 0 -63.5 -23.5t-24.5 -64.5q0 -16 3.5 -29.5 t12.5 -25t15.5 -19t21 -16.5t21 -13t23.5 -12t20 -10q87 -42 129.5 -91t42.5 -120q0 -80 -49 -126t-126 -46q-103 0 -215 80z" />
<glyph unicode="&#xf6f3;" horiz-adv-x="403" d="M47 1356v78h64v157l90 29v-186h127v-78h-127v-426q0 -68 41 -68q32 0 82 33l34 -76q-86 -45 -137 -45q-110 0 -110 158v424h-64z" />
<glyph unicode="&#xf8ff;" horiz-adv-x="1677" d="M107.5 560.5q-2.5 11.5 15.5 21.5l57 41q3 2 13 12q19 16 36 -12l33 -64q6 -12 13.5 -15.5t14 2t9.5 17.5l18 70q4 19 18.5 21t26.5 -13l48 -53q14 -15 23 -11.5t11 23.5l5 70q3 20 15.5 25t27.5 -7l57 -43q17 -12 26 -6.5t5 25.5l-9 69q-3 20 8.5 28t28.5 -1l64 -29 q19 -9 26.5 -1.5t1.5 26.5l-22 67q-8 19 1 29t28 4l14 -2q40 -77 70 -202.5t30 -217.5q-15 -18 -34.5 -27.5t-59.5 -9.5h-8q0 46 -33 72q19 -22 19 -55v-15q-33 3 -33 39q0 43 -28 72t-77 29q-41 0 -68.5 -32t-27.5 -79q0 -60 49.5 -96.5t138.5 -36.5q85 0 172 42t156.5 112 t125 154.5t86 175.5t30.5 169q0 59 -36.5 98t-94.5 39q-48 0 -85.5 -33.5t-37.5 -84.5q0 -106 119 -119q-29 -119 -60 -174q-12 96 -43.5 178t-75.5 129q91 -120 107 -330l-29 -41q0 156 -51 287t-131 172q-5 9 2.5 18.5t22.5 12.5l69 12q19 3 21 13.5t-15 21.5l-59 39 q-15 13 -13.5 26.5t19.5 20.5l64 29q14 4 19 10t0 13t-19 13l-64 27q-23 10 -20 29q11 6 14 16l35 62q9 19 20.5 18t16.5 -20l20 -68q6 -21 18.5 -24t26.5 14l47 53q12 15 23 12.5t12 -22.5l4 -72q1 -21 14.5 -26t28.5 8l58 43q15 12 23.5 6t6.5 -27l-10 -70 q-1 -20 10.5 -27.5t28.5 1.5l63 33q19 8 26.5 0t0.5 -29l-22 -64q-6 -20 2.5 -30t27.5 -4l70 14q20 6 26.5 -2t-4.5 -27l-36 -59q-12 -17 -6 -29.5t26 -11.5l72 4q21 0 25 -11t-9 -24l-49 -53q-14 -13 -10.5 -26.5t24.5 -16.5l70 -12q43 -10 6 -39l-57 -39q-16 -10 -15 -24 t21 -21l63 -27q12 -5 16.5 -12t0 -13.5t-16.5 -11.5l-63 -26q-20 -7 -21 -22t15 -25l57 -41q11 -7 14.5 -14.5t-2 -13.5t-18.5 -9l-70 -13q-21 -3 -24.5 -16.5t10.5 -28.5l49 -49q13 -14 9 -24.5t-25 -10.5l-72 5q-20 0 -26 -12t6 -29l36 -62q10 -17 4 -25.5t-26 -5.5 l-70 19q-19 4 -27.5 -6t-2.5 -29l22 -68q8 -19 0 -26t-27 2l-63 31q-17 9 -28.5 1t-10.5 -30l10 -68q1 -21 -7 -25.5t-23 7.5l-58 43q-15 12 -28.5 5.5t-14.5 -26.5l-4 -69q-1 -20 -12 -23t-23 11l-47 55q-13 14 -26 12t-19 -22l-20 -68q-3 -13 -9.5 -18t-14 -1t-13.5 15 l-35 61q-9 19 -22 19t-25 -19l-31 -61q-6 -11 -13.5 -15t-14 1t-9.5 18l-20 68q-6 20 -19 22t-26 -12l-47 -55q-12 -14 -22 -11t-13 23l-4 69q-2 20 -15 26.5t-30 -5.5l-54 -43q-17 -13 -26.5 -8t-5.5 26l10 68q1 22 -10.5 30t-30.5 -1l-62 -31q-19 -9 -26.5 -2t0.5 26 l22 68q7 19 -2 29.5t-28 5.5l-70 -19q-20 -3 -26 5.5t4 25.5l38 62q11 17 4.5 29t-26.5 12l-72 -5q-21 0 -25 10.5t9 24.5l51 49q13 15 9 28.5t-25 16.5l-68 13q-21 4 -23.5 15.5zM584 281q44 -27 123 -27q106 0 212.5 65t183.5 162t125 212t48 214q0 63 -41 101 q25 -39 25 -84q0 -99 -47.5 -214.5t-127.5 -215.5q-85 -105 -188.5 -168.5t-212.5 -63.5q-57 0 -100 19z" />
<glyph unicode="&#xfb06;" horiz-adv-x="1318" d="M78 106l61 91q157 -113 260 -113q65 0 111.5 43t46.5 123q0 48 -17.5 87.5t-52.5 70t-64 49t-75 41.5q-45 23 -70.5 37.5t-66 45.5t-62.5 61t-39.5 77t-17.5 102q0 125 73.5 201t190.5 76q67 0 148 -31q-15 53 -15 117q0 144 71.5 226.5t195.5 82.5q138 0 209 -98 t71 -269v-51h205v-102h-205v-764q0 -119 68 -119q46 0 137 53l47 -94q-119 -72 -209 -72q-161 0 -161 234v762h-101v102h101v72q0 266 -177 266q-88 0 -136 -66.5t-48 -177.5q0 -81 25 -139q11 -5 22.5 -12t24 -15t18.5 -12l-61 -86q-130 86 -221 86q-69 0 -111.5 -43 t-42.5 -117q0 -46 16 -83t48.5 -64t54 -40t59.5 -32q4 -2 6.5 -3.5t5.5 -2.5q145 -72 211 -159t66 -197q0 -126 -76.5 -199.5t-191.5 -73.5q-85 0 -174 38.5t-158 90.5z" />
<glyph horiz-adv-x="610" d="M70 1157q0 122 60 206.5t161 84.5q78 0 133.5 -54t79.5 -133.5t24 -173.5q1 -247 -95.5 -387.5t-237.5 -140.5q-22 0 -43.5 3.5t-31.5 7.5l-11 3l22 84q28 -10 59 -10q82 0 149.5 84t86.5 248q-63 -96 -160 -96q-91 0 -143.5 78.5t-52.5 195.5zM162 1159 q0 -77 32.5 -134.5t94.5 -57.5q53 0 91 38.5t52 86.5q0 114 -37 191t-102 77q-62 0 -96.5 -61t-34.5 -140z" />
<glyph horiz-adv-x="929" d="M61 1434q0 105 40.5 167t121.5 62q83 0 123.5 -62t40.5 -167q0 -107 -40.5 -169.5t-123.5 -62.5q-81 0 -121.5 63t-40.5 169zM137 1434q0 -166 86 -166q88 0 88 166q0 159 -88 159q-86 0 -86 -159zM264 788l322 861h78l-322 -861h-78zM541 1008q0 104 41 165.5t123 61.5 t122.5 -61.5t40.5 -165.5q0 -106 -41 -170t-122 -64q-82 0 -123 64t-41 170zM616 1008q0 -166 89 -166q86 0 86 166q0 159 -86 159q-89 0 -89 -159z" />
<glyph horiz-adv-x="1736" d="M66 973v102h100v158q0 132 52 186t144 54q90 0 306 -66q43 86 163 86q105 0 263 -55v55h118v-995l310 577h135l-256 -438l301 -637h-129l-240 524l-121 -209v-315h-118v1325q-48 16 -128.5 35.5t-121.5 19.5q-38 0 -64 -28.5t-26 -87.5v-189h198v-102h-198v-973h-117v973 h-352v-973h-119v973h-100zM285 1075h352v178q0 36 2 52q-185 55 -264 55q-39 0 -64.5 -29t-25.5 -88v-168z" />
<glyph horiz-adv-x="1355" d="M66 973v102h100v158q0 132 52 186t144 54q90 0 306 -66q43 86 163 86q105 0 263 -55v55h118v-1493h-118v1325q-48 16 -128.5 35.5t-121.5 19.5q-38 0 -64 -28.5t-26 -87.5v-189h198v-102h-198v-973h-117v973h-352v-973h-119v973h-100zM285 1075h352v178q0 36 2 52 q-185 55 -264 55q-39 0 -64.5 -29t-25.5 -88v-168z" />
<glyph horiz-adv-x="1476" d="M66 973v102h100v158q0 132 52 186t144 54q102 0 297 -64q39 84 144 84q69 0 219 -66l-45 -96q-118 49 -154 49q-69 0 -69 -116v-189h321v264l119 47v-311h203v-102h-203v-764q0 -119 68 -119q50 0 135 53l49 -94q-119 -72 -211 -72q-160 0 -160 234v762h-321v-973h-119 v973h-350v-973h-119v973h-100zM285 1075h350v178q0 36 2 52q-193 55 -262 55q-39 0 -64.5 -29t-25.5 -88v-168z" />
<glyph horiz-adv-x="1386" d="M66 973v102h100v178q0 132 52 186t144 54q84 0 265 -55v55h118v-578q35 37 62 62t69.5 56.5t88.5 48t94 16.5q69 0 115 -39t64.5 -98t18.5 -136v-825h-118v809q0 180 -119 180q-41 0 -85 -21t-81.5 -55t-62.5 -61t-46 -55v-797h-118v1325q-177 55 -252 55 q-39 0 -64.5 -28.5t-25.5 -87.5v-189h198v-102h-198v-973h-119v973h-100z" />
<glyph horiz-adv-x="1310" d="M66 973v102h100v158q0 132 52 186t144 54q90 0 306 -66q46 86 166 86q105 0 292 -66l-43 -98q-5 1 -34.5 9.5t-51.5 14t-52 12.5t-55.5 11t-43.5 4q-38 0 -65 -29t-27 -87v-189h424v-1075h-119v973h-305v-973h-117v973h-352v-973h-119v973h-100zM285 1075h352v178 q0 36 2 52q-185 55 -264 55q-39 0 -64.5 -29t-25.5 -88v-168z" />
<glyph horiz-adv-x="839" d="M66 973v102h100v178q0 132 52.5 186t146.5 54q100 0 294 -66l-45 -98q-6 2 -34.5 10t-50.5 13.5t-51.5 12.5t-55 11t-43.5 4q-39 0 -66.5 -28.5t-27.5 -87.5v-189h424v-1075h-119v973h-305v-973h-119v973h-100z" />
<glyph horiz-adv-x="839" d="M66 973v102h100v178q0 132 52.5 186t146.5 54q100 0 294 -66l-45 -98q-6 2 -34.5 10t-50.5 13.5t-51.5 12.5t-55 11t-43.5 4q-39 0 -66.5 -28.5t-27.5 -87.5v-189h422v-1138q0 -78 -2 -112t-13.5 -79.5t-37.5 -69t-71.5 -50t-119.5 -52.5l-39 100q45 21 70.5 34t46 32 t29 30.5t14 41t6 50t0.5 70.5v1041h-305v-973h-119v973h-100z" />
<glyph horiz-adv-x="1269" d="M66 973v102h100v178q0 132 52 186t144 54q84 0 265 -55v55h118v-995l310 577h135l-256 -438l301 -637h-129l-240 524l-121 -209v-315h-118v1325q-177 55 -252 55q-39 0 -64.5 -28.5t-25.5 -87.5v-189h198v-102h-198v-973h-119v973h-100z" />
<glyph horiz-adv-x="1853" d="M66 973v102h100v158q0 132 52 186t144 54q90 0 306 -66q43 86 163 86q105 0 263 -55v55h118v-578q35 37 62 62t69.5 56.5t88.5 48t94 16.5q69 0 115 -39t64.5 -98t18.5 -136v-825h-118v809q0 180 -119 180q-41 0 -85 -21t-81.5 -55t-62.5 -61t-46 -55v-797h-118v1325 q-48 16 -128.5 35.5t-121.5 19.5q-38 0 -64 -28.5t-26 -87.5v-189h198v-102h-198v-973h-117v973h-352v-973h-119v973h-100zM285 1075h352v178q0 36 2 52q-185 55 -264 55q-39 0 -64.5 -29t-25.5 -88v-168z" />
<glyph horiz-adv-x="886" d="M66 973v102h100v178q0 132 52 186t144 54q84 0 265 -55v55h118v-1493h-118v1325q-177 55 -252 55q-39 0 -64.5 -28.5t-25.5 -87.5v-189h198v-102h-198v-973h-119v973h-100z" />
<glyph horiz-adv-x="1007" d="M66 973v102h100v178q0 132 43 186t119 54q75 0 225 -66l-47 -94q-121 47 -154 47q-67 0 -67 -116v-189h319v264l119 47v-311h203v-102h-203v-764q0 -119 68 -119q50 0 135 53l49 -94q-119 -72 -211 -72q-160 0 -160 234v762h-319v-973h-119v973h-100z" />
<glyph horiz-adv-x="370" d="M53 260v78h64v90q0 87 27.5 123.5t80.5 36.5q13 0 28.5 -2.5t27.5 -5.5t28.5 -8.5t25 -8.5t23 -9t17.5 -7l-35 -74q-58 29 -92 29q-39 0 -39 -66v-98h121v-78h-121v-567h-92v567h-64z" />
<glyph horiz-adv-x="925" d="M137 356v820h117v-824q0 -58 9 -101.5t30.5 -80.5t63.5 -56.5t104 -19.5t104 19.5t64.5 56.5t31.5 80.5t9 101.5v824h118v-820q0 -374 -327 -374q-92 0 -156.5 28.5t-100.5 81t-51.5 117t-15.5 147.5zM350 1282l172 262h162l-233 -262h-101z" />
<glyph horiz-adv-x="579" d="M66 74l43 78q1 -1 12 -10t17.5 -13.5t19.5 -14t24.5 -15t25.5 -11.5t29 -9t29 -3q59 0 99.5 54t40.5 140q0 79 -36.5 134t-101.5 55q-24 0 -52 -11t-37.5 -17.5t-35.5 -24.5l-51 28l35 426h352v-88h-274l-12 -250q48 25 98 25q97 0 154 -80.5t57 -196.5q0 -75 -23.5 -138 t-75 -104.5t-124.5 -41.5q-114 0 -213 88z" />
<glyph horiz-adv-x="579" d="M66 647l43 78q1 -1 12 -10t17.5 -13.5t19.5 -14t24.5 -15t25.5 -11.5t29 -9t29 -3q58 0 99 54.5t41 140.5q0 79 -36.5 133.5t-101.5 54.5q-24 0 -52 -11t-37.5 -17.5t-35.5 -24.5l-51 29l35 426h352v-88h-274l-12 -250q46 24 98 24q97 0 154 -80t57 -196q0 -75 -23 -138 t-75 -105t-125 -42q-114 0 -213 88z" />
<glyph horiz-adv-x="849" d="M84 -143l59 102q139 -121 248 -121q98 0 169 98t71 252q0 143 -62 241.5t-170 98.5q-93 0 -206 -92l-66 35l53 705h539v-117h-436l-25 -463q78 47 168 47q101 0 178 -62.5t115.5 -165t38.5 -227.5q0 -91 -22.5 -174t-64.5 -149.5t-111 -106t-154 -39.5q-162 0 -322 138z " />
<glyph horiz-adv-x="1849" d="M66 973v102h100v158q0 132 52 186t144 54q90 0 306 -66q43 86 163 86q105 0 263 -55v55h118v-565q124 170 261 170q125 0 202.5 -137.5t77.5 -423.5q0 -285 -77.5 -422.5t-202.5 -137.5q-138 0 -261 168v-145h-118v1325q-48 16 -128.5 35.5t-121.5 19.5q-38 0 -64 -28.5 t-26 -87.5v-189h198v-102h-198v-973h-117v973h-352v-973h-119v973h-100zM285 1075h352v178q0 36 2 52q-185 55 -264 55q-39 0 -64.5 -29t-25.5 -88v-168zM1212 270q42 -78 105.5 -130t128.5 -52q92 0 138 118.5t46 330.5q0 214 -46 332t-138 118q-64 0 -127.5 -53 t-106.5 -131v-533z" />
<glyph horiz-adv-x="1200" d="M88 530l39 70q69 -61 137 -61q49 0 84 42.5t35 110.5q0 64 -31 108t-88 44q-21 0 -44.5 -9.5t-31.5 -14.5t-32 -21l-43 26l28 351h308v-76h-238l-10 -201q44 21 84 21q85 0 134.5 -66t49.5 -162t-52 -164.5t-145 -68.5q-90 0 -184 71zM348 0l408 1176h86l-406 -1176h-88z M707 174q0 128 139 205q-107 69 -107 176q0 71 49 116.5t125 45.5t124 -45.5t48 -116.5q0 -107 -106 -176q139 -77 139 -205q0 -86 -57 -136t-148 -50q-92 0 -149 50t-57 136zM793 178q0 -54 34 -86.5t86 -32.5t86.5 32.5t34.5 86.5q0 95 -123 166q-118 -70 -118 -166z M819 547q0 -76 92 -133q93 55 93 133q0 41 -25.5 70.5t-65.5 29.5q-42 0 -68 -29.5t-26 -70.5z" />
<glyph horiz-adv-x="1173" d="M90 530l39 70q69 -61 135 -61q51 0 86 42t35 111q0 64 -31.5 108t-87.5 44q-46 0 -108 -45l-43 26l26 351h310v-76h-240l-10 -201q44 21 86 21q85 0 134.5 -66t49.5 -162t-52 -164.5t-145 -68.5q-90 0 -184 71zM350 0l406 1176h88l-406 -1176h-88zM686 285 q-1 202 82.5 317t206.5 115q19 0 38 -3t29 -6l9 -3l-19 -74q-26 10 -55 10q-70 0 -127.5 -67.5t-73.5 -200.5q18 30 53 54t84 24q79 0 125.5 -64t46.5 -160q0 -100 -53 -169.5t-141 -69.5q-99 0 -152 87t-53 210zM770 276q0 -91 32 -152t87 -61t83.5 48.5t28.5 113.5 q0 64 -26.5 109t-79.5 45q-47 0 -81.5 -33.5t-43.5 -69.5z" />
<glyph horiz-adv-x="995" d="M66 973v102h100v158q0 132 52 186t144 54q102 0 297 -64q39 84 134 84q80 0 229 -66l-49 -94q-111 47 -154 47q-65 0 -65 -114v-191h198v-102h-198v-973h-119v973h-350v-973h-119v973h-100zM285 1075h350v178q0 36 2 52q-193 55 -262 55q-39 0 -64.5 -29t-25.5 -88v-168z " />
<glyph horiz-adv-x="925" d="M137 356v820h117v-824q0 -58 9 -101.5t30.5 -80.5t63.5 -56.5t104 -19.5t104 19.5t64.5 56.5t31.5 80.5t9 101.5v824h118v-820q0 -374 -327 -374q-92 0 -156.5 28.5t-100.5 81t-51.5 117t-15.5 147.5z" />
<glyph horiz-adv-x="571" d="M47 1559v90h475v-90h-190v-771h-94v771h-191z" />
<glyph horiz-adv-x="622" d="M55 190v78l289 592h125v-581h94v-89h-94v-190h-94v190h-320zM145 279h230v471z" />
<glyph horiz-adv-x="622" d="M55 764v78l289 592h125v-582h94v-88h-94v-191h-94v191h-320zM145 852h230v471z" />
<glyph horiz-adv-x="921" d="M63 72v106l472 998h161v-988h152v-116h-152v-330h-123v330h-510zM180 188h393v834z" />
<glyph horiz-adv-x="1050" d="M66 973v102h100v178q0 240 158 240q80 0 229 -66l-49 -94q-111 47 -154 47q-65 0 -65 -114v-191h198v-102h-198v-973h-119v973h-100zM592 973v102h100v178q0 240 158 240q64 0 184 -51l-35 -99q-77 37 -122 37q-66 0 -66 -114v-191h199v-102h-199v-973h-119v973h-100z " />
<glyph horiz-adv-x="1259" d="M72 625v67l256 484h104v-476h82v-75h-82v-154h-80v154h-280zM147 700h205v390zM403 0l406 1176h86l-406 -1176h-86zM780 61l37 68q78 -61 135 -61q52 0 88.5 43t36.5 112q0 63 -31.5 106.5t-87.5 43.5q-55 0 -110 -43l-45 24l31 351h305v-76h-242l-12 -203q48 23 90 23 q86 0 136 -65.5t50 -160.5q0 -98 -51.5 -166.5t-144.5 -68.5q-83 0 -185 73z" />
<glyph horiz-adv-x="1380" d="M66 973v102h100v178q0 132 52 186t144 54q84 0 265 -55v55h118v-565q124 170 261 170q125 0 202.5 -137.5t77.5 -423.5q0 -285 -77.5 -422.5t-202.5 -137.5q-138 0 -261 168v-145h-118v1325q-177 55 -252 55q-39 0 -64.5 -28.5t-25.5 -87.5v-189h198v-102h-198v-973h-119 v973h-100zM745 270q42 -78 105.5 -130t128.5 -52q92 0 138 118.5t46 330.5q0 214 -46 332t-138 118q-64 0 -127.5 -53t-106.5 -131v-533z" />
<glyph horiz-adv-x="526" d="M66 973v102h100v178q0 240 158 240q64 0 184 -51l-35 -99q-77 37 -123 37q-65 0 -65 -114v-191h198v-102h-198v-973h-119v973h-100z" />
<glyph horiz-adv-x="882" d="M102 283v94h84v1057h625v-117h-500v-543h400v-117h-400v-280h252v-94h-252v-283h-125v283h-84z" />
<glyph horiz-adv-x="802" d="M102 225v86h74v865h551v-111h-434v-424h344v-109h-344v-221h219v-86h-219v-225h-117v225h-74z" />
<glyph horiz-adv-x="589" d="M72 -80h53v633h403v-90h-309v-295h248v-90h-248v-158h162v-67h-162v-160h-94v160h-53v67z" />
<glyph horiz-adv-x="591" d="M74 948v68h53v633h403v-90h-309v-295h248v-90h-248v-158h162v-68h-162v-160h-94v160h-53z" />
<glyph horiz-adv-x="370" d="M53 1356v78h64v90q0 86 27.5 122.5t80.5 36.5q13 0 28.5 -2.5t27.5 -5.5t28.5 -8.5t25 -8.5t23 -9t17.5 -7l-35 -73q-56 28 -92 28q-39 0 -39 -65v-98h121v-78h-121v-568h-92v568h-64z" />
<glyph horiz-adv-x="571" d="M47 463v90h475v-90h-190v-770h-94v770h-191z" />
<glyph horiz-adv-x="864" d="M145 0v1176h117v-213h152q174 0 269 -82.5t95 -270.5q0 -192 -94.5 -276t-269.5 -84h-152v-250h-117zM262 358h156q112 0 176.5 60t64.5 192q0 242 -241 242h-156v-494z" />
<glyph horiz-adv-x="743" d="M49 1065v111h647v-111h-264v-1065h-26q53 -85 53 -180q0 -75 -39.5 -119.5t-102.5 -44.5q-57 0 -112 37l31 86q42 -29 69 -29q36 0 58 25t22 75q0 78 -41 150h-31v1065h-264z" />
<glyph horiz-adv-x="743" d="M49 1065v111h647v-111h-264v-1065h-119v1065h-264zM164 1544h88l119 -182l118 182h91l-142 -262h-135z" />
<glyph horiz-adv-x="759" d="M57 1065v111h648v-111h-265v-590h127v-86h-127v-389h-118v389h-132v86h132v590h-265z" />
<glyph horiz-adv-x="665" d="M100 -307v639q0 260 219 260q103 0 160.5 -54t57.5 -147q0 -33 -6.5 -61t-13.5 -40l-7 -11q-94 -36 -94 -105q0 -18 8.5 -36t17.5 -29t32 -35t36 -39q44 -44 68 -86.5t24 -100.5q0 -77 -45.5 -123.5t-118.5 -46.5q-81 0 -180 60l39 69q78 -47 129 -47q34 0 58 23.5 t24 69.5q0 52 -68 120q-7 8 -30.5 30t-33.5 34t-25 33.5t-21 45t-6 50.5q0 114 116 168q6 42 6 53q0 58 -32.5 90.5t-91.5 32.5q-63 0 -96 -42t-33 -142v-633h-93z" />
<glyph horiz-adv-x="665" d="M100 788v639q0 261 219 261q103 0 160.5 -54t57.5 -147q0 -33 -6.5 -61t-13.5 -40l-7 -12q-94 -36 -94 -104q0 -18 8.5 -36t17.5 -29t32.5 -36t35.5 -39q44 -44 68 -86t24 -100q0 -77 -45.5 -123.5t-118.5 -46.5q-81 0 -180 60l39 69q78 -47 129 -47q34 0 58 23t24 69 q0 53 -68 121q-7 8 -30.5 30t-33.5 34t-25 33.5t-21 45t-6 50.5q0 114 116 168q6 42 6 53q0 58 -32.5 90.5t-91.5 32.5q-63 0 -96 -42t-33 -143v-633h-93z" />
<glyph horiz-adv-x="595" d="M70 14q0 172 48 255t128 83q48 0 85.5 -26.5t74.5 -71.5v84h90v-686q0 -119 -46.5 -170t-134.5 -51q-108 0 -225 45q3 15 12.5 42.5t12.5 39.5q110 -45 182 -45q56 0 82.5 32t26.5 105v125q-25 -29 -43.5 -46.5t-50.5 -34t-66 -16.5q-80 0 -128 83.5t-48 252.5zM162 14 q0 -119 27.5 -185.5t80.5 -66.5q35 0 71.5 28.5t64.5 72.5v303q-28 45 -64.5 73.5t-71.5 28.5q-53 0 -80.5 -66.5t-27.5 -187.5z" />
<glyph horiz-adv-x="743" d="M49 1065v111h647v-111h-264v-1065h-119v1065h-264z" />
<glyph horiz-adv-x="612" d="M70 870l51 76q113 -80 192 -80q55 0 93 33t38 94q0 60 -40.5 102t-125.5 99q-11 6 -16 10q-42 27 -67.5 47t-54 51t-42.5 68t-14 82q0 98 60 154.5t157 56.5q106 0 219 -72l-49 -78q-99 58 -164 58q-51 0 -87 -30t-36 -87q0 -25 10 -48.5t21 -38.5t39 -37.5t42.5 -32 t53.5 -35.5q40 -26 67.5 -47.5t60 -55.5t49 -77t16.5 -93q0 -99 -63 -157t-158 -58q-122 0 -252 96z" />
<glyph horiz-adv-x="925" d="M137 356v820h117v-824q0 -58 9 -101.5t30.5 -80.5t63.5 -56.5t104 -19.5t104 19.5t64.5 56.5t31.5 80.5t9 101.5v824h118v-820q0 -374 -327 -374q-92 0 -156.5 28.5t-100.5 81t-51.5 117t-15.5 147.5zM260 1493h84q0 -117 117 -117t117 117h84q0 -98 -53 -154.5 t-148 -56.5t-148 56.5t-53 154.5z" />
<glyph horiz-adv-x="595" d="M70 1110q0 172 48 255t128 83q48 0 85.5 -26.5t74.5 -71.5v84h90v-686q0 -119 -46.5 -170.5t-134.5 -51.5q-108 0 -225 45q3 15 12.5 42.5t12.5 39.5q110 -45 182 -45q56 0 82.5 32t26.5 105v125q-25 -28 -43.5 -46t-50.5 -34t-66 -16q-80 0 -128 83.5t-48 252.5z M162 1110q0 -119 27.5 -185.5t80.5 -66.5q35 0 71.5 28t64.5 72v304q-28 45 -64.5 73.5t-71.5 28.5q-53 0 -80.5 -66.5t-27.5 -187.5z" />
<glyph horiz-adv-x="610" d="M68 -225l51 75q111 -79 192 -79q55 0 93 33t38 94q0 60 -40.5 102t-125.5 99q-11 6 -16 10q-42 28 -67 47.5t-54 50t-43 67.5t-14 82q0 98 60 154.5t157 56.5q107 0 219 -71l-49 -78q-97 57 -164 57q-51 0 -87 -30t-36 -87q0 -25 10 -48.5t21 -38.5t39 -37.5t42.5 -32 t53.5 -35.5q32 -20 54 -36t50.5 -42.5t46 -53t30 -63t12.5 -77.5q0 -99 -63.5 -157.5t-158.5 -58.5q-120 0 -251 97z" />
<glyph horiz-adv-x="802" d="M80 109l61 90q171 -109 273 -109q79 0 134.5 48t55.5 136q0 40 -14.5 76t-33 61.5t-58 57.5t-67.5 50.5t-83 53.5q-47 30 -75 49.5t-65.5 53.5t-57.5 65t-35 76t-15 96q0 130 82 205.5t209 75.5q149 0 301 -94l-61 -94q-140 79 -234 79q-73 0 -124.5 -45t-51.5 -129 q0 -35 12 -66.5t28.5 -54.5t51 -50.5t60.5 -44.5t76 -48q48 -30 77 -50.5t71.5 -58t66 -72t41.5 -85.5t18 -107q0 -138 -87 -215t-216 -77q-162 0 -340 127zM344 -494l62 179h-52v182h113l14 -186l-96 -213z" />
<glyph horiz-adv-x="325" d="M106 1649h111l-24 -605h-58zM113 788v140h100v-140h-100z" />
<glyph horiz-adv-x="325" d="M106 553h111l-24 -604h-58zM113 -168h100v-139h-100v139z" />
<glyph horiz-adv-x="802" d="M80 109l61 90q171 -109 273 -109q79 0 134.5 48t55.5 136q0 40 -14.5 76t-33 61.5t-58 57.5t-67.5 50.5t-83 53.5q-47 30 -75 49.5t-65.5 53.5t-57.5 65t-35 76t-15 96q0 130 82 205.5t209 75.5q149 0 301 -94l-61 -94q-140 79 -234 79q-73 0 -124.5 -45t-51.5 -129 q0 -35 12 -66.5t28.5 -54.5t51 -50.5t60.5 -44.5t76 -48q48 -30 77 -50.5t71.5 -58t66 -72t41.5 -85.5t18 -107q0 -138 -87 -215t-216 -77q-162 0 -340 127zM195 1282l139 262h135l141 -262h-90l-119 184l-118 -184h-88z" />
<glyph horiz-adv-x="802" d="M80 109l61 90q171 -109 273 -109q79 0 134.5 48t55.5 136q0 40 -14.5 76t-33 61.5t-58 57.5t-67.5 50.5t-83 53.5q-47 30 -75 49.5t-65.5 53.5t-57.5 65t-35 76t-15 96q0 130 82 205.5t209 75.5q149 0 301 -94l-61 -94q-140 79 -234 79q-73 0 -124.5 -45t-51.5 -129 q0 -35 12 -66.5t28.5 -54.5t51 -50.5t60.5 -44.5t76 -48q48 -30 77 -50.5t71.5 -58t66 -72t41.5 -85.5t18 -107q0 -125 -73 -200t-185 -88q43 -83 43 -166q0 -75 -39 -119.5t-102 -44.5q-58 0 -113 37l31 86q42 -29 69 -29q36 0 58 25t22 75q0 52 -33 132q-156 7 -321 127z " />
<glyph horiz-adv-x="606" d="M98 -307v895h92v-342q30 30 52.5 49t62 38t78.5 19q64 0 95.5 -47t31.5 -123v-489h-92v473q0 104 -68 104q-44 0 -87.5 -35t-72.5 -73v-469h-92z" />
<glyph horiz-adv-x="802" d="M80 109l61 90q171 -109 273 -109q79 0 134.5 48t55.5 136q0 40 -14.5 76t-33 61.5t-58 57.5t-67.5 50.5t-83 53.5q-47 30 -75 49.5t-65.5 53.5t-57.5 65t-35 76t-15 96q0 130 82 205.5t209 75.5q149 0 301 -94l-61 -94q-140 79 -234 79q-73 0 -124.5 -45t-51.5 -129 q0 -35 12 -66.5t28.5 -54.5t51 -50.5t60.5 -44.5t76 -48q48 -30 77 -50.5t71.5 -58t66 -72t41.5 -85.5t18 -107q0 -138 -87 -215t-216 -77q-162 0 -340 127zM195 1544h88l118 -182l119 182h90l-141 -262h-135z" />
<glyph horiz-adv-x="325" d="M109 788l24 605h57l29 -605h-110zM113 1509v140h100v-140h-100z" />
<glyph horiz-adv-x="802" d="M80 109l61 90q171 -109 273 -109q79 0 134.5 48t55.5 136q0 40 -14.5 76t-33 61.5t-58 57.5t-67.5 50.5t-83 53.5q-47 30 -75 49.5t-65.5 53.5t-57.5 65t-35 76t-15 96q0 130 82 205.5t209 75.5q149 0 301 -94l-61 -94q-140 79 -234 79q-73 0 -124.5 -45t-51.5 -129 q0 -35 12 -66.5t28.5 -54.5t51 -50.5t60.5 -44.5t76 -48q48 -30 77 -50.5t71.5 -58t66 -72t41.5 -85.5t18 -107q0 -138 -87 -215t-216 -77q-162 0 -340 127zM291 1282l172 262h162l-234 -262h-100z" />
<glyph horiz-adv-x="802" d="M80 109l61 90q171 -109 273 -109q79 0 134.5 48t55.5 136q0 40 -14.5 76t-33 61.5t-58 57.5t-67.5 50.5t-83 53.5q-47 30 -75 49.5t-65.5 53.5t-57.5 65t-35 76t-15 96q0 130 82 205.5t209 75.5q149 0 301 -94l-61 -94q-140 79 -234 79q-73 0 -124.5 -45t-51.5 -129 q0 -35 12 -66.5t28.5 -54.5t51 -50.5t60.5 -44.5t76 -48q48 -30 77 -50.5t71.5 -58t66 -72t41.5 -85.5t18 -107q0 -138 -87 -215t-216 -77q-162 0 -340 127z" />
<glyph horiz-adv-x="677" d="M115 788v861h223q264 0 264 -248q0 -197 -170 -238l170 -375h-102l-164 367h-127v-367h-94zM209 1239h125q78 0 124 39t46 123t-45 123t-121 39h-129v-324z" />
<glyph horiz-adv-x="677" d="M115 -307v860h223q264 0 264 -248q0 -196 -170 -237l170 -375h-102l-164 366h-127v-366h-94zM209 143h125q78 0 124 39t46 123t-45 123t-121 39h-129v-324z" />
<glyph horiz-adv-x="905" d="M145 0v1176h297q365 0 365 -336q0 -270 -238 -322l238 -518h-127l-227 506h-191v-506h-117zM262 612h180q244 0 244 228q0 119 -65 174t-175 55h-184v-457zM381 -494l61 179h-51v182h113l14 -186l-96 -213z" />
<glyph horiz-adv-x="905" d="M145 0v1176h297q365 0 365 -336q0 -270 -238 -322l238 -518h-127l-227 506h-191v-506h-117zM262 612h180q244 0 244 228q0 119 -65 174t-175 55h-184v-457zM268 1544h88l119 -182l119 182h90l-141 -262h-135z" />
<glyph horiz-adv-x="905" d="M145 0v1176h297q365 0 365 -336q0 -270 -238 -322l238 -518h-127l-227 506h-191v-506h-117zM262 612h180q244 0 244 228q0 119 -65 174t-175 55h-184v-457zM365 1282l172 262h161l-233 -262h-100z" />
<glyph horiz-adv-x="290" d="M96 467v119h99v-119h-99zM100 -307v645h93v-645h-93z" />
<glyph horiz-adv-x="905" d="M145 0v1176h297q365 0 365 -336q0 -270 -238 -322l238 -518h-127l-227 506h-191v-506h-117zM262 612h180q244 0 244 228q0 119 -65 174t-175 55h-184v-457z" />
<glyph horiz-adv-x="718" d="M80 1219q0 96 14 173t45.5 139.5t86.5 97t132 34.5q279 0 279 -444q0 -360 -184 -428l110 -119l-65 -70l-140 172q-77 0 -132 34t-86.5 97t-45.5 140t-14 174zM180 1219q0 -79 8.5 -139t27.5 -110.5t55 -77t87 -26.5q52 0 88.5 26.5t56 76.5t28 110.5t8.5 139.5t-8.5 139 t-28 110t-56 76.5t-88.5 26.5q-51 0 -87 -26.5t-55 -76.5t-27.5 -110t-8.5 -139z" />
<glyph horiz-adv-x="321" d="M106 -307l25 604h57l29 -604h-111zM111 414v139h100v-139h-100z" />
<glyph horiz-adv-x="448" d="M156 0l32 829h72l33 -829h-137zM160 991v185h129v-185h-129z" />
<glyph horiz-adv-x="718" d="M80 123q0 96 14 173t45.5 139.5t86.5 97t132 34.5q279 0 279 -444q0 -360 -184 -428l110 -119l-65 -70l-140 172q-77 0 -132 34t-86.5 97t-45.5 140t-14 174zM180 123q0 -79 8.5 -139t27.5 -110t55 -76.5t87 -26.5q52 0 88.5 26.5t56 76.5t28 110t8.5 139t-8.5 139 t-28 110t-56 76.5t-88.5 26.5q-51 0 -87 -26.5t-55 -76.5t-27.5 -110t-8.5 -139z" />
<glyph horiz-adv-x="925" d="M137 356v820h117v-824q0 -58 9 -101.5t30.5 -80.5t63.5 -56.5t104 -19.5t104 19.5t64.5 56.5t31.5 80.5t9 101.5v824h118v-820q0 -374 -327 -374q-92 0 -156.5 28.5t-100.5 81t-51.5 117t-15.5 147.5zM254 1282l139 262h135l142 -262h-90l-119 184l-119 -184h-88z" />
<glyph horiz-adv-x="960" d="M100 588q0 606 381 606q379 0 379 -606q0 -504 -262 -588l152 -164l-82 -86l-187 232q-381 0 -381 606zM221 588q0 -109 12 -193.5t40.5 -155t81 -108t126.5 -37.5t126 37.5t79.5 108t39 154.5t11.5 194t-11.5 194t-39 154t-79.5 107.5t-126 37.5t-126.5 -37.5 t-81 -107.5t-40.5 -154.5t-12 -193.5z" />
<glyph horiz-adv-x="643" d="M115 788v861h202q128 0 196.5 -62.5t68.5 -202.5q0 -139 -68.5 -200.5t-196.5 -61.5h-108v-334h-94zM209 1212h110q164 0 164 172q0 93 -44.5 135t-119.5 42h-110v-349z" />
<glyph horiz-adv-x="643" d="M115 -307v860h202q128 0 196.5 -62t68.5 -202q0 -139 -68.5 -200.5t-196.5 -61.5h-108v-334h-94zM209 117h110q164 0 164 172q0 93 -44.5 134.5t-119.5 41.5h-110v-348z" />
<glyph horiz-adv-x="288" d="M-4 -492q28 13 44 20.5t28.5 19.5t17.5 18t8.5 24.5t3.5 29.5v42v676h92v-670v-38.5t-1 -32t-3 -29.5t-6 -24.5t-10 -22.5t-15 -19.5t-21 -19.5t-28 -16.5t-36 -17.5t-45 -17zM94 467v119h101v-119h-101z" />
<glyph horiz-adv-x="444" d="M154 1176h137l-33 -830h-72zM158 0v184h129v-184h-129z" />
<glyph horiz-adv-x="856" d="M145 0v1176h269q174 0 269 -84t95 -273t-94.5 -271.5t-269.5 -82.5h-152v-465h-117zM262 573h158q110 0 174.5 58t64.5 188t-64.5 189t-174.5 59h-158v-494z" />
<glyph horiz-adv-x="960" d="M100 588q0 606 381 606q379 0 379 -606t-379 -606q-381 0 -381 606zM221 588q0 -109 12 -193.5t40.5 -155t81 -108t126.5 -37.5t126 37.5t79.5 108t39 154.5t11.5 194t-11.5 194t-39 154t-79.5 107.5t-126 37.5t-126.5 -37.5t-81 -107.5t-40.5 -154.5t-12 -193.5z M258 1339q30 80 58.5 119t72.5 39q31 0 66 -24.5t64.5 -49t47.5 -24.5q19 0 33.5 17.5t36.5 76.5l65 -33q-31 -83 -58.5 -121.5t-72.5 -38.5q-24 0 -51.5 16t-48 34.5t-43 34.5t-37.5 16q-16 0 -31 -18.5t-36 -75.5z" />
<glyph horiz-adv-x="718" d="M80 1219q0 96 14 173t45.5 139.5t86.5 97t132 34.5q279 0 279 -444q0 -445 -279 -445q-77 0 -132 34t-86.5 97t-45.5 140t-14 174zM180 1219q0 -79 8.5 -139t27.5 -110.5t55 -77t87 -26.5q52 0 88.5 26.5t56 76.5t28 110.5t8.5 139.5t-8.5 139t-28 110t-56 76.5 t-88.5 26.5q-51 0 -87 -26.5t-55 -76.5t-27.5 -110t-8.5 -139z" />
<glyph horiz-adv-x="534" d="M98 -307v895h92v-576l179 326h104l-160 -262l189 -383h-99l-143 299l-70 -115v-184h-92z" />
<glyph horiz-adv-x="534" d="M98 788v895h92v-575l179 326h104l-160 -263l189 -383h-99l-143 299l-70 -114v-185h-92z" />
<glyph horiz-adv-x="956" d="M98 588q0 606 381 606q144 0 236 -92l41 74h90l-78 -144q90 -151 90 -444q0 -606 -379 -606q-146 0 -237 88l-37 -70h-92l75 139q-90 151 -90 449zM219 588q0 -206 41 -320l393 723q-62 90 -174 90q-74 0 -126.5 -37.5t-81 -107.5t-40.5 -154.5t-12 -193.5zM303 182 q66 -88 176 -88q74 0 126 37.5t79.5 108t39 154.5t11.5 194q0 199 -39 315zM369 1282l172 262h161l-233 -262h-100z" />
<glyph horiz-adv-x="925" d="M137 356v820h117v-824q0 -58 9 -101.5t30.5 -80.5t63.5 -56.5t104 -19.5t104 19.5t64.5 56.5t31.5 80.5t9 101.5v824h118v-820q0 -374 -327 -374q-92 0 -156.5 28.5t-100.5 81t-51.5 117t-15.5 147.5zM285 1303v176h118v-176h-118zM524 1303v176h115v-176h-115z" />
<glyph horiz-adv-x="960" d="M100 588q0 606 381 606q379 0 379 -606t-379 -606q-381 0 -381 606zM221 588q0 -109 12 -193.5t40.5 -155t81 -108t126.5 -37.5t126 37.5t79.5 108t39 154.5t11.5 194t-11.5 194t-39 154t-79.5 107.5t-126 37.5t-126.5 -37.5t-81 -107.5t-40.5 -154.5t-12 -193.5z M274 1333v94h410v-94h-410z" />
<glyph horiz-adv-x="718" d="M80 123q0 96 14 173t45.5 139.5t86.5 97t132 34.5q279 0 279 -444q0 -445 -279 -445q-77 0 -132 34t-86.5 97t-45.5 140t-14 174zM180 123q0 -79 8.5 -139t27.5 -110t55 -76.5t87 -26.5q52 0 88.5 26.5t56 76.5t28 110t8.5 139t-8.5 139t-28 110t-56 76.5t-88.5 26.5 q-51 0 -87 -26.5t-55 -76.5t-27.5 -110t-8.5 -139z" />
<glyph horiz-adv-x="960" d="M100 588q0 606 381 606q379 0 379 -606t-379 -606q-381 0 -381 606zM221 588q0 -109 12 -193.5t40.5 -155t81 -108t126.5 -37.5t126 37.5t79.5 108t39 154.5t11.5 194t-11.5 194t-39 154t-79.5 107.5t-126 37.5t-126.5 -37.5t-81 -107.5t-40.5 -154.5t-12 -193.5z M309 1282l111 262h135l-170 -262h-76zM524 1282l109 262h137l-172 -262h-74z" />
<glyph horiz-adv-x="960" d="M100 588q0 606 381 606q379 0 379 -606t-379 -606q-381 0 -381 606zM221 588q0 -109 12 -193.5t40.5 -155t81 -108t126.5 -37.5t126 37.5t79.5 108t39 154.5t11.5 194t-11.5 194t-39 154t-79.5 107.5t-126 37.5t-126.5 -37.5t-81 -107.5t-40.5 -154.5t-12 -193.5z M260 1544h160l174 -262h-98z" />
<glyph horiz-adv-x="925" d="M137 356v820h117v-824q0 -58 9 -101.5t30.5 -80.5t63.5 -56.5t104 -19.5t104 19.5t64.5 56.5t31.5 80.5t9 101.5v824h118v-820q0 -374 -327 -374q-92 0 -156.5 28.5t-100.5 81t-51.5 117t-15.5 147.5zM240 1544h159l174 -262h-98z" />
<glyph horiz-adv-x="288" d="M98 -307v895h92v-895h-92z" />
<glyph horiz-adv-x="925" d="M137 356v820h117v-824q0 -58 9 -101.5t30.5 -80.5t63.5 -56.5t104 -19.5t104 19.5t64.5 56.5t31.5 80.5t9 101.5v824h118v-820q0 -374 -327 -374q-92 0 -156.5 28.5t-100.5 81t-51.5 117t-15.5 147.5zM291 1282l110 262h136l-170 -262h-76zM506 1282l108 262h138 l-172 -262h-74z" />
<glyph horiz-adv-x="753" d="M113 0v90q4 4 10.5 12t25 34.5t35 54.5t34.5 70.5t28 84.5h-121v84h133q2 8 2 27q0 44 -10 92h-125v84h100q-8 24 -27 70.5t-29.5 75t-20 73t-9.5 86.5q0 120 65 188t175 68q55 0 113.5 -21t90 -40t79.5 -52l-64 -84q-125 88 -201 88q-66 0 -103.5 -41.5t-37.5 -117.5 q0 -47 13 -92.5t38.5 -107t36.5 -93.5h219v-84h-198q8 -54 8 -86q0 -23 -2 -33h192v-84h-205q-17 -76 -47 -142t-53 -95h389v-109h-534z" />
<glyph horiz-adv-x="555" d="M84 -233q8 8 20.5 23t39 63t38.5 96h-90v61h98v15q0 25 -8 71h-90v62h72q-5 12 -20.5 49.5t-21.5 55.5t-13 50.5t-7 63.5q0 88 48.5 139t128.5 51q41 0 83.5 -16t67 -31.5t57.5 -40.5l-49 -67q-87 65 -145 65q-43 0 -68.5 -29.5t-25.5 -82.5q0 -32 9 -64t27 -76.5 t25 -66.5h158v-62h-144q7 -35 7 -65v-21h137v-61h-148q-18 -92 -67 -168h274v-88h-393v74z" />
<glyph horiz-adv-x="557" d="M86 788v74q8 8 20.5 23t39 63t38.5 96h-90v62h99v14q0 20 -9 72h-90v61h72q-4 11 -20 49t-22 56t-13 51t-7 64q0 88 48.5 139t128.5 51q41 0 83.5 -16t67 -31.5t57.5 -40.5l-49 -68q-89 66 -145 66q-43 0 -68.5 -30t-25.5 -83q0 -32 9 -64t27 -76.5t25 -66.5h158v-61 h-144q7 -35 7 -66v-20h137v-62h-148q-18 -91 -67 -167h274v-89h-393z" />
<glyph horiz-adv-x="960" d="M100 588q0 606 381 606q379 0 379 -606t-379 -606q-381 0 -381 606zM221 588q0 -109 12 -193.5t40.5 -155t81 -108t126.5 -37.5t126 37.5t79.5 108t39 154.5t11.5 194t-11.5 194t-39 154t-79.5 107.5t-126 37.5t-126.5 -37.5t-81 -107.5t-40.5 -154.5t-12 -193.5z M301 1303v176h119v-176h-119zM541 1303v176h114v-176h-114z" />
<glyph horiz-adv-x="960" d="M100 588q0 606 381 606q379 0 379 -606t-379 -606q-381 0 -381 606zM221 588q0 -109 12 -193.5t40.5 -155t81 -108t126.5 -37.5t126 37.5t79.5 108t39 154.5t11.5 194t-11.5 194t-39 154t-79.5 107.5t-126 37.5t-126.5 -37.5t-81 -107.5t-40.5 -154.5t-12 -193.5z M274 1282l140 262h135l141 -262h-90l-119 184l-119 -184h-88z" />
<glyph horiz-adv-x="696" d="M109 -41v594h94v-596q0 -88 31 -137t114 -49q82 0 114 49.5t32 136.5v596h94v-594q0 -281 -240 -281q-239 0 -239 281z" />
<glyph horiz-adv-x="960" d="M100 588q0 606 381 606q379 0 379 -606t-379 -606q-381 0 -381 606zM221 588q0 -109 12 -193.5t40.5 -155t81 -108t126.5 -37.5t126 37.5t79.5 108t39 154.5t11.5 194t-11.5 194t-39 154t-79.5 107.5t-126 37.5t-126.5 -37.5t-81 -107.5t-40.5 -154.5t-12 -193.5z M281 1493h84q0 -117 116 -117q117 0 117 117h84q0 -98 -53 -154.5t-148 -56.5q-94 0 -147 56.5t-53 154.5z" />
<glyph horiz-adv-x="925" d="M137 356v820h117v-824q0 -58 9 -101.5t30.5 -80.5t63.5 -56.5t104 -19.5t104 19.5t64.5 56.5t31.5 80.5t9 101.5v824h118v-820q0 -374 -327 -374q-92 0 -156.5 28.5t-100.5 81t-51.5 117t-15.5 147.5zM256 1333v94h410v-94h-410z" />
<glyph horiz-adv-x="960" d="M100 588q0 606 381 606q379 0 379 -606t-379 -606q-381 0 -381 606zM221 588q0 -109 12 -193.5t40.5 -155t81 -108t126.5 -37.5t126 37.5t79.5 108t39 154.5t11.5 194t-11.5 194t-39 154t-79.5 107.5t-126 37.5t-126.5 -37.5t-81 -107.5t-40.5 -154.5t-12 -193.5z M369 1282l172 262h161l-233 -262h-100z" />
<glyph horiz-adv-x="1392" d="M100 588q0 606 381 606q169 0 262 -123v105h551v-111h-434v-422h359v-111h-359v-421h440v-111h-557v102q-93 -120 -262 -120q-381 0 -381 606zM221 588q0 -109 12 -193.5t40.5 -155t81 -108t126.5 -37.5t126 37.5t79.5 108t39 154.5t11.5 194t-11.5 194t-39 154 t-79.5 107.5t-126 37.5t-126.5 -37.5t-81 -107.5t-40.5 -154.5t-12 -193.5z" />
<glyph d="M100 -307v645h93v-96q82 110 169 110q54 0 83 -35.5t38 -83.5q85 119 179 119q62 0 92 -47.5t30 -122.5v-489h-92v469q0 108 -65 108q-37 0 -74.5 -34t-65.5 -80v-463h-92v469q0 108 -65 108q-69 0 -137 -110v-467h-93z" />
<glyph horiz-adv-x="925" d="M137 356v820h117v-824q0 -58 9 -101.5t30.5 -80.5t63.5 -56.5t104 -19.5t104 19.5t64.5 56.5t31.5 80.5t9 101.5v824h118v-820q0 -303 -213 -360q-32 -27 -45 -39.5t-39 -40.5t-37.5 -55.5t-11.5 -57.5q0 -16 3.5 -29t8 -21.5t14 -14t16 -8.5t19 -4.5t18 -2t19 0 t15.5 0.5l-14 -91q-24 0 -39.5 1t-47 8.5t-51 22.5t-35.5 46.5t-16 75.5q0 108 113 195h-4q-92 0 -156.5 28.5t-100.5 81t-51.5 117t-15.5 147.5z" />
<glyph horiz-adv-x="559" d="M68 16q0 160 60.5 248t160.5 88q97 0 150 -77.5t53 -202.5q0 -21 -2 -41.5t-4 -30.5l-3 -10h-319q3 -107 35 -169.5t88 -62.5q55 0 162 82l45 -59q-121 -103 -215 -103q-91 0 -151 88t-60 250zM164 53h239q0 221 -112 221q-58 0 -90 -58.5t-37 -162.5z" />
<glyph horiz-adv-x="960" d="M100 588q0 606 381 606q379 0 379 -606t-379 -606q-381 0 -381 606zM221 588q0 -109 12 -193.5t40.5 -155t81 -108t126.5 -37.5t126 37.5t79.5 108t39 154.5t11.5 194t-11.5 194t-39 154t-79.5 107.5t-126 37.5t-126.5 -37.5t-81 -107.5t-40.5 -154.5t-12 -193.5z" />
<glyph horiz-adv-x="958" d="M145 0v1176h119l428 -949v949h119v-1176h-121l-428 952v-952h-117zM264 1339q30 80 58.5 119t72.5 39q31 0 66 -24.5t64.5 -49t47.5 -24.5q19 0 33.5 17.5t36.5 76.5l66 -33q-31 -83 -58.5 -121.5t-72.5 -38.5q-31 0 -66 25t-65.5 50.5t-49.5 25.5q-16 0 -31 -18.5 t-36 -75.5z" />
<glyph horiz-adv-x="722" d="M117 788v861h98l297 -678v678h94v-861h-98l-297 674v-674h-94z" />
<glyph horiz-adv-x="722" d="M117 -307v860h98l297 -678v678h94v-860h-98l-297 674v-674h-94z" />
<glyph horiz-adv-x="958" d="M145 0v1176h119l428 -949v949h119v-1176h-121l-428 952v-952h-117zM418 -494l61 179h-51v182h113l14 -186l-96 -213z" />
<glyph horiz-adv-x="958" d="M145 0v1176h119l428 -949v949h119v-1176h-121l-428 952v-952h-117zM279 1544h88l118 -182l119 182h90l-141 -262h-135z" />
<glyph horiz-adv-x="958" d="M145 0v1176h119l428 -949v949h119v-1176h-121l-428 952v-952h-117zM367 1282l172 262h161l-233 -262h-100z" />
<glyph horiz-adv-x="958" d="M145 0v1176h119l428 -949v949h119v-1176h-121l-428 952v-952h-117z" />
<glyph horiz-adv-x="610" d="M70 584q0 122 60 206t161 84q78 0 133.5 -53.5t79.5 -133t24 -173.5q1 -247 -95.5 -387.5t-237.5 -140.5q-22 0 -43.5 3.5t-31.5 6.5l-11 4l22 84q28 -10 59 -10q82 0 149.5 84t86.5 248q-64 -97 -160 -97q-91 0 -143.5 79t-52.5 196zM162 586q0 -77 33 -135t94 -58 q53 0 91 38.5t52 86.5q0 114 -37 191t-102 77q-62 0 -96.5 -60.5t-34.5 -139.5z" />
<glyph horiz-adv-x="935" d="M102 346q0 255 263 424q-203 141 -203 363q0 142 86 232.5t219 90.5t220 -90.5t87 -232.5q0 -221 -205 -363q40 -26 72.5 -51t70 -65t63 -83t42.5 -101.5t17 -123.5q0 -171 -103 -270t-264 -99q-160 0 -262.5 99t-102.5 270zM229 350q0 -122 68 -191t170 -69 q104 0 172 69t68 191q0 53 -14 100.5t-36 83t-55.5 69.5t-64 57.5t-70.5 48.5q-50 -32 -87 -63t-74 -75t-57 -100t-20 -121zM283 1120q0 -174 184 -289q186 113 186 289q0 96 -52 161t-134 65t-133 -65t-51 -161z" />
<glyph horiz-adv-x="899" d="M86 713q0 130 40.5 238.5t120.5 175.5t185 67q91 0 163 -51t115 -136.5t65.5 -189.5t23.5 -219q1 -171 -27 -316.5t-76.5 -248.5t-114.5 -175.5t-141.5 -107.5t-156.5 -35q-34 0 -66.5 6t-48.5 11l-16 6l28 110q46 -18 99 -18q64 0 125 35.5t114.5 105.5t92.5 188t53 269 q-36 -64 -102.5 -117t-158.5 -53q-98 0 -171.5 64t-109.5 166t-36 225zM211 713q0 -88 20.5 -163t70.5 -128t122 -53q88 0 155 68.5t93 150.5v14q0 128 -25.5 234t-80.5 174.5t-132 68.5q-72 0 -124.5 -55t-75.5 -136t-23 -175z" />
<glyph horiz-adv-x="620" d="M76 784q0 154 157 252q-120 86 -120 213q0 88 55 143.5t143 55.5q89 0 144 -55.5t55 -143.5q0 -128 -123 -213q162 -99 162 -252q0 -104 -66 -164.5t-172 -60.5t-170.5 60.5t-64.5 164.5zM172 788q0 -67 39.5 -106t99.5 -39q61 0 101.5 39t40.5 106q0 69 -38.5 116 t-103.5 87q-64 -39 -101.5 -86.5t-37.5 -116.5zM203 1241q0 -95 106 -162q109 65 109 162q0 52 -30.5 88.5t-76.5 36.5q-48 0 -78 -36t-30 -89z" />
<glyph horiz-adv-x="620" d="M76 211q0 154 157 252q-120 86 -120 213q0 88 55 143t143 55q89 0 144 -55t55 -143q0 -128 -123 -213q162 -99 162 -252q0 -104 -66 -164.5t-172 -60.5t-170.5 60.5t-64.5 164.5zM172 215q0 -67 39.5 -106t99.5 -39q61 0 101.5 39t40.5 106q0 69 -38.5 116t-103.5 87 q-64 -39 -101.5 -86.5t-37.5 -116.5zM203 668q0 -95 106 -162q109 65 109 162q0 52 -30.5 88.5t-76.5 36.5q-48 0 -78 -36t-30 -89z" />
<glyph horiz-adv-x="925" d="M137 356v820h117v-824q0 -58 9 -101.5t30.5 -80.5t63.5 -56.5t104 -19.5t104 19.5t64.5 56.5t31.5 80.5t9 101.5v824h118v-820q0 -374 -327 -374q-92 0 -156.5 28.5t-100.5 81t-51.5 117t-15.5 147.5zM281 1444q0 76 52 129t128 53t130 -53.5t54 -128.5q0 -76 -53.5 -129 t-130.5 -53q-76 0 -128 52.5t-52 129.5zM356 1444q0 -44 30.5 -74.5t74.5 -30.5t75 30.5t31 74.5t-31 75t-75 31t-74.5 -31t-30.5 -75z" />
<glyph horiz-adv-x="606" d="M98 -307v645h92v-92q101 106 193 106q64 0 95.5 -47t31.5 -123v-489h-92v473q0 104 -68 104q-44 0 -87.5 -35t-72.5 -73v-469h-92z" />
<glyph horiz-adv-x="696" d="M109 1055v594h94v-596q0 -88 31 -137.5t114 -49.5q56 0 89.5 26t45 65t11.5 96v596h94v-594q0 -281 -240 -281q-239 0 -239 281z" />
<glyph horiz-adv-x="925" d="M137 356v820h117v-824q0 -58 9 -101.5t30.5 -80.5t63.5 -56.5t104 -19.5t104 19.5t64.5 56.5t31.5 80.5t9 101.5v824h118v-820q0 -374 -327 -374q-92 0 -156.5 28.5t-100.5 81t-51.5 117t-15.5 147.5zM238 1339q30 80 58.5 119t72.5 39q31 0 66 -24.5t64.5 -49 t47.5 -24.5q19 0 33 17.5t36 76.5l66 -33q-31 -83 -58.5 -121.5t-72.5 -38.5q-24 0 -51.5 16t-48 34.5t-43 34.5t-37.5 16q-16 0 -31.5 -19t-36.5 -75z" />
<glyph horiz-adv-x="821" d="M117 788v861h100l193 -574l196 574h99v-861h-95v660l-174 -516h-53l-172 514v-658h-94z" />
<glyph horiz-adv-x="821" d="M117 -307v860h100l193 -573l196 573h99v-860h-95v659l-174 -516h-53l-172 514v-657h-94z" />
<glyph horiz-adv-x="985" d="M92 307v96h172l41 367h-162v96h174l35 310h92l-34 -310h227l35 310h92l-37 -310h166v-96h-176l-43 -367h166v-96h-176l-35 -307h-88l32 307h-227l-35 -307h-92l35 307h-162zM356 403h230l41 367h-230z" />
<glyph horiz-adv-x="712" d="M70 -8h120l29 260h-115v78h125l25 223h72l-25 -223h156l24 223h74l-25 -223h115v-78h-125l-28 -260h114v-78h-123l-24 -221h-72l25 221h-156l-25 -221h-73l24 221h-112v78zM264 -8h156l29 260h-156z" />
<glyph horiz-adv-x="712" d="M70 1010v77h120l29 261h-115v77h125l25 224h72l-25 -224h156l24 224h74l-25 -224h115v-77h-125l-28 -261h114v-77h-123l-24 -222h-72l25 222h-156l-25 -222h-73l24 222h-112zM264 1087h156l29 261h-156z" />
<glyph horiz-adv-x="1095" d="M145 0v1176h125l277 -805l276 805h127v-1176h-119v930l-249 -733h-70l-250 733v-930h-117z" />
<glyph horiz-adv-x="557" d="M115 788v861h94v-770h299v-91h-393z" />
<glyph horiz-adv-x="741" d="M66 395v123l90 64v594h116v-512l166 118v-123l-166 -118v-430h420v-111h-536v459z" />
<glyph horiz-adv-x="557" d="M115 -307v860h94v-770h299v-90h-393z" />
<glyph horiz-adv-x="731" d="M145 0v1176h117v-1065h420v-111h-537zM498 526v176h116v-176h-116z" />
<glyph horiz-adv-x="729" d="M145 0v1176h117v-1065h420v-111h-537zM344 -494l62 179h-52v182h113l14 -186l-96 -213z" />
<glyph horiz-adv-x="899" d="M57 1176h129l263 -1029l264 1029h129l-330 -1176h-127z" />
<glyph horiz-adv-x="729" d="M145 0v1176h117v-1065h420v-111h-537zM317 815l62 178h-51v183h112l15 -187l-97 -213z" />
<glyph horiz-adv-x="729" d="M92 1282l172 262h162l-233 -262h-101zM145 0v1176h117v-1065h420v-111h-537z" />
<glyph horiz-adv-x="583" d="M66 14q0 159 58 248.5t167 89.5t167 -89.5t58 -248.5t-58 -247.5t-167 -88.5t-167 88.5t-58 247.5zM160 14q0 -254 131 -254t131 254q0 256 -131 256t-131 -256z" />
<glyph horiz-adv-x="729" d="M145 0v1176h117v-1065h420v-111h-537z" />
<glyph horiz-adv-x="655" d="M115 788v861h94v-459l272 459h115l-254 -408l274 -453h-114l-215 365l-78 -127v-238h-94z" />
<glyph horiz-adv-x="448" d="M43 745l156 115h86v-860h-92v756l-107 -78z" />
<glyph horiz-adv-x="448" d="M43 1319l156 115h86v-861h-92v756l-107 -78z" />
<glyph horiz-adv-x="571" d="M57 995l238 181h113v-1176h-125v1034l-166 -129z" />
<glyph horiz-adv-x="657" d="M41 553h106l181 -733l184 733h104l-235 -860h-105z" />
<glyph horiz-adv-x="659" d="M41 1649h106l181 -734l184 734h104l-235 -861h-105z" />
<glyph horiz-adv-x="1079" d="M63 1081l134 95h77v-705h-84v614l-90 -63zM225 0l408 1176h88l-406 -1176h-90zM586 174q0 128 139 205q-107 69 -107 176q0 71 47.5 116.5t122.5 45.5q78 0 127.5 -45.5t49.5 -116.5q0 -105 -109 -176q141 -78 141 -205q0 -86 -57.5 -136t-151.5 -50q-91 0 -146.5 50 t-55.5 136zM670 178q0 -54 33.5 -86.5t84.5 -32.5q54 0 88.5 32.5t34.5 86.5q0 97 -120 166q-121 -72 -121 -166zM698 547q0 -78 93 -133q92 57 92 133q0 41 -26.5 70.5t-68.5 29.5q-39 0 -64.5 -29.5t-25.5 -70.5z" />
<glyph horiz-adv-x="1081" d="M63 1081l134 95h77v-705h-84v614l-90 -63zM225 0l408 1176h88l-406 -1176h-90zM602 61l39 68q78 -61 135 -61q51 0 86 43t35 112q0 63 -31.5 106.5t-87.5 43.5q-48 0 -108 -43l-43 24l28 351h308v-76h-240l-10 -201q44 21 86 21q85 0 134.5 -66t49.5 -162t-51.5 -164.5 t-145.5 -68.5q-95 0 -184 73z" />
<glyph horiz-adv-x="655" d="M115 -307v860h94v-459l272 459h115l-254 -408l274 -452h-114l-215 364l-78 -127v-237h-94z" />
<glyph horiz-adv-x="1081" d="M63 1081l136 95h77v-705h-83v614l-91 -63zM227 0l408 1176h88l-406 -1176h-90zM612 0v55q0 29 5 56t10 46.5t19 43t21 35.5t27 34t27 28.5t31 29t28 26.5q121 117 121 195q0 41 -27 65.5t-69 24.5q-13 0 -28 -3t-25.5 -6.5t-26.5 -11.5t-22 -11.5t-22 -13t-17 -9.5 l-37 59q94 74 186 74q77 0 124.5 -46t47.5 -122q0 -20 -3 -39t-12 -39t-14.5 -34t-21.5 -35t-22 -30t-27.5 -31t-25.5 -26.5t-28 -27.5l-24 -23q-38 -36 -55 -56.5t-31 -54.5t-14 -77h278v-76h-373z" />
<glyph horiz-adv-x="1224" d="M72 1176h131l172 -973l182 973h109l180 -973l174 973h131l-238 -1176h-122l-181 952l-178 -952h-123z" />
<glyph horiz-adv-x="868" d="M145 0v1176h117v-646l389 646h140l-351 -558l385 -618h-143l-309 512l-111 -176v-336h-117zM371 -494l61 179h-51v182h113l14 -186l-96 -213z" />
<glyph horiz-adv-x="1050" d="M63 1081l136 95h77v-705h-83v614l-91 -63zM227 0l408 1176h88l-406 -1176h-90zM530 154v67l250 484h109v-476h82v-75h-82v-154h-84v154h-275zM608 229h197v379z" />
<glyph horiz-adv-x="1054" d="M63 1081l134 95h77v-705h-84v614l-90 -63zM225 0l408 1176h88l-406 -1176h-90zM563 285q-1 202 82.5 317t206.5 115q19 0 38 -3t28 -6l10 -3l-21 -74q-24 10 -53 10q-70 0 -126.5 -66.5t-74.5 -197.5q51 74 138 74q78 0 125 -64.5t47 -159.5q0 -100 -53.5 -169.5 t-141.5 -69.5q-99 0 -152 87t-53 210zM647 279q0 -92 32 -154t87 -62t84 48.5t29 113.5q0 63 -27.5 108.5t-79.5 45.5q-45 0 -79 -30t-46 -66v-4z" />
<glyph horiz-adv-x="868" d="M145 0v1176h117v-646l389 646h140l-351 -558l385 -618h-143l-309 512l-111 -176v-336h-117z" />
<glyph horiz-adv-x="1224" d="M72 1176h131l172 -973l182 973h109l180 -973l174 973h131l-238 -1176h-122l-181 952l-178 -952h-123zM502 1282l172 262h162l-234 -262h-100z" />
<glyph horiz-adv-x="1071" d="M63 1081l136 95h77v-705h-83v614l-91 -63zM227 0l408 1176h88l-406 -1176h-90zM592 55l41 62q78 -51 141 -51q54 0 89.5 35.5t35.5 95.5q0 52 -29 87.5t-66 48.5t-77 13h-14v76h18q56 0 99.5 34.5t43.5 94.5q0 41 -25 64.5t-67 23.5q-37 0 -72.5 -16t-54.5 -33l-39 57 q90 70 179 70q78 0 120.5 -45t42.5 -111q0 -53 -30 -100t-86 -72q62 -19 101.5 -71t39.5 -123q0 -85 -51 -146t-150 -61q-100 0 -190 67z" />
<glyph horiz-adv-x="321" d="M10 688q33 15 51 26t30.5 20.5t17 26.5t5.5 31.5t1 47.5v809h94v-805q0 -32 -0.5 -47t-2.5 -38.5t-6 -34t-12 -27.5t-19.5 -26t-29.5 -21.5t-41.5 -22.5t-54.5 -21z" />
<glyph horiz-adv-x="321" d="M10 -408q33 15 51 26t30.5 20.5t17 26.5t5.5 31.5t1 47.5v809h94v-805q0 -42 -0.5 -61t-5.5 -46.5t-14.5 -40.5t-28.5 -30.5t-47 -30.5t-70 -28z" />
<glyph horiz-adv-x="409" d="M-4 1282l139 262h135l142 -262h-90l-119 184l-119 -184h-88zM2 -141q39 18 61 29t39.5 26.5t25 24.5t12 32.5t5 40t0.5 56.5v1108h119v-1106q0 -66 -2 -95t-12 -67.5t-34 -58.5t-65 -43t-108 -46z" />
<glyph horiz-adv-x="409" d="M2 -141q39 18 61 29t39.5 26.5t25 24.5t12 32.5t5 40t0.5 56.5v1108h119v-1106q0 -66 -2 -95t-12 -67.5t-34 -58.5t-65 -43t-108 -46z" />
<glyph horiz-adv-x="829" d="M92 109l62 90q134 -87 221 -105v469l-15 10q-47 30 -75 50t-65 53t-57 64.5t-35 76.5t-15 96q0 123 73 197t189 82v154h84v-156q127 -17 246 -90l-62 -94q-108 60 -184 73v-430q49 -31 78 -51.5t72 -58.5t66.5 -72.5t41.5 -85.5t18 -107q0 -131 -78.5 -206.5 t-197.5 -83.5v-152h-84v154q-140 20 -283 123zM233 911q0 -66 35.5 -114t106.5 -97v381q-62 -10 -102 -53.5t-40 -116.5zM459 92q68 10 112.5 56.5t44.5 125.5q0 71 -40 126t-117 110v-418z" />
<glyph horiz-adv-x="407" d="M-20 1339q30 80 58.5 119t72.5 39q31 0 66 -24.5t64.5 -49t47.5 -24.5q19 0 33 17.5t36 76.5l66 -33q-31 -83 -58.5 -121.5t-72.5 -38.5q-24 0 -51.5 16t-48 34.5t-43 34.5t-37.5 16q-16 0 -31.5 -19t-36.5 -75zM145 0v1176h117v-1176h-117z" />
<glyph horiz-adv-x="323" d="M115 788v861h94v-861h-94z" />
<glyph horiz-adv-x="407" d="M29 -213q0 120 137 213h-19v1176h117v-1176h-6q-3 -2 -18.5 -15t-21 -18t-20 -18t-21 -21t-18 -21t-17 -24t-12 -24.5t-9 -27.5t-2.5 -28q0 -16 3.5 -29t8 -21.5t14 -14t15.5 -8.5t18.5 -4.5t18 -2t19 0t15.5 0.5l-14 -91q-17 0 -26.5 0.5t-32 3t-37 8t-33.5 16.5 t-30.5 27t-20 41.5t-8.5 57.5z" />
<glyph horiz-adv-x="864" d="M66 819q0 176 79.5 266.5t229.5 90.5h96v-1487h-100v776q-138 0 -221.5 92t-83.5 262zM602 -311v1487h100v-1487h-100z" />
<glyph horiz-adv-x="405" d="M-2 1333v94h410v-94h-410zM145 0v1176h117v-1176h-117z" />
<glyph horiz-adv-x="485" d="M156 59v1051q0 38 0.5 57t3 47.5t8.5 43t16.5 35.5t26 33t38.5 28t54 28.5t72 26.5l33 -84q-36 -17 -56.5 -28t-37.5 -26t-24 -25.5t-12 -32.5t-5.5 -40.5t-0.5 -56.5v-1065q0 -38 0.5 -56t5.5 -40t12 -32.5t23.5 -25.5t38 -26t56.5 -27l-33 -84q-41 14 -72 26.5 t-54 28.5t-38.5 28t-26 33t-16.5 35.5t-8.5 43t-3 47.5t-0.5 57z" />
<glyph horiz-adv-x="1224" d="M72 1176h131l172 -973l182 973h109l180 -973l174 973h131l-238 -1176h-122l-181 952l-178 -952h-123zM406 1282l139 262h135l141 -262h-90l-119 184l-118 -184h-88z" />
<glyph horiz-adv-x="595" d="M70 14q0 172 48 255t128 83q48 0 85.5 -26.5t74.5 -71.5v334h90v-895h-90v82q-25 -29 -43.5 -46.5t-50.5 -34t-66 -16.5q-80 0 -128 83.5t-48 252.5zM162 14q0 -119 27.5 -185.5t80.5 -66.5q35 0 71.5 28.5t64.5 72.5v303q-28 45 -64.5 73.5t-71.5 28.5 q-53 0 -80.5 -66.5t-27.5 -187.5z" />
<glyph horiz-adv-x="323" d="M115 -307v860h94v-860h-94z" />
<glyph horiz-adv-x="485" d="M78 -156q36 17 56.5 28t37 26t24 25t12 33t5 40.5t0.5 56.5v1065q0 38 -0.5 55.5t-5 40.5t-12 33t-23.5 25t-37.5 26t-56.5 27l33 84q41 -14 72 -26.5t54 -28.5t38.5 -28t26 -33t16.5 -35.5t8.5 -43t3 -47.5t0.5 -57v-1051q0 -38 -0.5 -57t-3 -47.5t-8.5 -43t-16.5 -35.5 t-26 -33t-38.5 -28t-54 -28.5t-72 -26.5z" />
<glyph horiz-adv-x="1224" d="M72 1176h131l172 -973l182 973h109l180 -973l174 973h131l-238 -1176h-122l-181 952l-178 -952h-123zM442 1303v176h119v-176h-119zM682 1303v176h115v-176h-115z" />
<glyph horiz-adv-x="1224" d="M72 1176h131l172 -973l182 973h109l180 -973l174 973h131l-238 -1176h-122l-181 952l-178 -952h-123zM391 1544h160l174 -262h-98z" />
<glyph horiz-adv-x="890" d="M51 553h107l118 -694l127 694h84l125 -688l121 688h107l-172 -860h-97l-127 678l-125 -678h-98z" />
<glyph horiz-adv-x="405" d="M-18 1544h159l174 -262h-98zM145 0v1176h117v-1176h-117z" />
<glyph horiz-adv-x="1275" d="M82 883q0 143 55.5 227t167.5 84t166.5 -83.5t54.5 -227.5q0 -145 -54.5 -231.5t-166.5 -86.5t-167.5 87t-55.5 231zM176 883q0 -67 11.5 -117.5t41.5 -83.5t76 -33q66 0 96.5 65t30.5 169q0 225 -127 225q-129 0 -129 -225zM365 0l448 1176h92l-444 -1176h-96zM748 301 q0 143 54.5 226t168.5 83q112 0 167.5 -83.5t55.5 -225.5q0 -146 -55.5 -232.5t-167.5 -86.5q-113 0 -168 86.5t-55 232.5zM840 301q0 -105 31 -169t100 -64q66 0 96.5 64.5t30.5 168.5q0 102 -30.5 163.5t-96.5 61.5q-131 0 -131 -225z" />
<glyph horiz-adv-x="929" d="M61 338q0 105 40.5 167t121.5 62q83 0 123.5 -62t40.5 -167q0 -107 -40.5 -169.5t-123.5 -62.5q-81 0 -121.5 63t-40.5 169zM137 338q0 -166 86 -166q88 0 88 166q0 160 -88 160q-86 0 -86 -160zM264 -307l322 860h78l-322 -860h-78zM541 -88q0 104 41 165.5t123 61.5 t122.5 -61.5t40.5 -165.5q0 -106 -41 -170t-122 -64q-82 0 -123 64t-41 170zM616 -88q0 -166 89 -166q86 0 86 166q0 160 -86 160q-89 0 -89 -160z" />
<glyph horiz-adv-x="1310" d="M66 973v102h100v158q0 132 52 186t144 54q90 0 306 -66q46 86 166 86q105 0 292 -66l-43 -98q-5 1 -34.5 9.5t-51.5 14t-52 12.5t-55.5 11t-43.5 4q-38 0 -65 -29t-27 -87v-189h424v-1138q0 -78 -2 -112t-13.5 -79.5t-37.5 -69t-71.5 -50t-119.5 -52.5l-41 100 q33 16 54.5 26.5t40.5 24.5t29.5 22t19 25t12 27t6 35.5t2.5 42.5v55v1041h-303v-973h-117v973h-352v-973h-119v973h-100zM285 1075h352v178q0 36 2 52q-185 55 -264 55q-39 0 -64.5 -29t-25.5 -88v-168z" />
<glyph horiz-adv-x="405" d="M25 1303v176h118v-176h-118zM145 0v1176h117v-1176h-117zM264 1303v176h115v-176h-115z" />
<glyph horiz-adv-x="407" d="M-4 1282l139 262h135l142 -262h-90l-119 184l-119 -184h-88zM145 0v1176h117v-1176h-117z" />
<glyph horiz-adv-x="890" d="M51 1649h107l118 -695l127 695h84l125 -688l121 688h107l-172 -861h-97l-127 678l-125 -678h-98z" />
<glyph horiz-adv-x="514" d="M68 1112q0 161 57.5 248.5t142.5 87.5q11 0 23 -2t22 -4t22.5 -7t20.5 -8.5t20.5 -11t18 -10.5t17.5 -11.5t15.5 -11t15 -11t12.5 -9.5l-45 -70q-2 2 -18 14.5t-25.5 19t-25.5 16t-31 14t-29 4.5q-53 0 -87 -68t-34 -180q0 -114 34 -182t87 -68q18 0 39.5 9t34 17.5 t33.5 24.5t22 17l45 -70q-1 -1 -12.5 -9.5t-15 -11t-15.5 -11t-17.5 -11.5t-18 -10.5t-20.5 -11t-20.5 -8.5t-22.5 -7t-22 -4t-23 -2q-85 0 -142.5 88.5t-57.5 249.5z" />
<glyph horiz-adv-x="1423" d="M102 588q0 128 41 238t117.5 192t193.5 129t261 47q143 0 259 -47t191 -129t115.5 -192t40.5 -238t-40.5 -238t-115.5 -192t-191 -129t-259 -47q-144 0 -261 47t-193.5 129t-117.5 192t-41 238zM172 588q0 -237 143.5 -390t397.5 -153q169 0 293.5 72.5t186.5 194.5 t62 276t-62 275.5t-186.5 194t-293.5 72.5q-170 0 -294.5 -72.5t-185.5 -194t-61 -275.5zM403 586q0 174 85.5 270t213.5 96q60 0 119 -19t91 -37.5t75 -47.5l-53 -60q-36 27 -58 41.5t-71.5 32t-99.5 17.5q-96 0 -156 -81t-60 -212q0 -130 60 -209.5t156 -79.5 q50 0 98.5 16.5t73 31.5t57.5 40l53 -59q-44 -30 -75 -48t-91 -37.5t-119 -19.5q-128 0 -213.5 96t-85.5 269z" />
<glyph horiz-adv-x="1796" d="M82 883q0 143 55.5 227t167.5 84t166.5 -83.5t54.5 -227.5q0 -145 -54.5 -231.5t-166.5 -86.5t-167.5 87t-55.5 231zM176 883q0 -67 11.5 -117.5t41.5 -83.5t76 -33q66 0 96.5 65t30.5 169q0 225 -127 225q-129 0 -129 -225zM365 0l448 1176h92l-444 -1176h-96zM748 301 q0 143 54.5 226t168.5 83q112 0 167.5 -83.5t55.5 -225.5q0 -146 -55.5 -232.5t-167.5 -86.5q-113 0 -168 86.5t-55 232.5zM840 301q0 -105 31 -169t100 -64q66 0 96.5 64.5t30.5 168.5q0 102 -30.5 163.5t-96.5 61.5q-131 0 -131 -225zM1268 299q0 144 54.5 227.5 t168.5 83.5q112 0 166.5 -83.5t54.5 -227.5q0 -146 -54.5 -232.5t-166.5 -86.5q-113 0 -168 86.5t-55 232.5zM1362 299q0 -233 129 -233q66 0 96.5 64.5t30.5 168.5q0 225 -127 225q-129 0 -129 -225z" />
<glyph horiz-adv-x="825" d="M51 0l295 586l-280 590h135l211 -492l211 492h133l-279 -590l293 -586h-137l-223 483l-220 -483h-139z" />
<glyph horiz-adv-x="903" d="M129 784v68h39v324h268q347 0 363 -324h35v-68h-35q-9 -170 -102.5 -244.5t-260.5 -74.5h-151v-465h-117v784h-39zM285 573h157q222 0 238 211h-395v-211zM285 852h395q-16 215 -238 215h-157v-215z" />
<glyph horiz-adv-x="661" d="M90 258v59h27v236h202q252 0 263 -236h28v-59h-28q-7 -122 -75 -176.5t-188 -54.5h-108v-334h-94v565h-27zM211 117h111q148 0 161 141h-272v-141zM211 317h272q-14 148 -161 148h-111v-148z" />
<glyph horiz-adv-x="661" d="M90 1354v59h27v236h202q252 0 263 -236h28v-59h-28q-14 -232 -263 -232h-108v-334h-94v566h-27zM211 1212h111q148 0 161 142h-272v-142zM211 1413h272q-14 148 -161 148h-111v-148z" />
<glyph horiz-adv-x="620" d="M47 -307l211 428l-201 432h109l145 -352l148 352h106l-200 -430l210 -430h-110l-154 344l-151 -344h-113z" />
<glyph horiz-adv-x="595" d="M98 338h92v-84q77 98 160 98q80 0 128 -83t48 -255q0 -169 -48 -252.5t-128 -83.5t-160 97v-332h-92v895zM190 -133q27 -46 62.5 -75.5t73.5 -29.5q106 0 106 252q0 254 -106 254q-38 0 -73.5 -29t-62.5 -75v-297z" />
<glyph horiz-adv-x="405" d="M2 1493h84q0 -117 117 -117q116 0 116 117h84q0 -98 -53 -154.5t-147 -56.5q-95 0 -148 56.5t-53 154.5zM145 0v1176h117v-1176h-117z" />
<glyph horiz-adv-x="407" d="M92 1282l172 262h162l-233 -262h-101zM145 0v1176h117v-1176h-117z" />
<glyph horiz-adv-x="299" d="M100 788v148h101v-148h-101zM100 1206v148h101v-148h-101z" />
<glyph horiz-adv-x="550" d="M80 1221q0 160 58 246.5t143 86.5h14l16 95h47l-18 -105l29 -12l20 117h51l-24 -142l63 -45l-45 -69l-33 24l-71 -442q14 6 31.5 16.5t27.5 18.5t27 22t18 15l45 -70q-3 -2 -23.5 -18t-31.5 -23t-31 -19.5t-39.5 -20t-38.5 -11.5l-16 -97h-51l14 95q-18 4 -29 8l-16 -103 h-49l20 125q-50 37 -79 115.5t-29 192.5zM174 1221q0 -119 35 -187l72 432q-47 -8 -77 -74.5t-30 -170.5zM248 983q16 -10 28 -12l80 477l-28 14z" />
<glyph horiz-adv-x="595" d="M98 539v895h92v-84q77 98 160 98q80 0 128 -83t48 -255q0 -169 -48 -252.5t-128 -83.5q-81 0 -160 96v-331h-92zM190 963q27 -46 62.5 -75.5t73.5 -29.5q106 0 106 252q0 254 -106 254q-38 0 -73.5 -29t-62.5 -75v-297z" />
<glyph horiz-adv-x="815" d="M145 0v1176h117v-1176h-117zM408 -141q39 18 61 29t39.5 26.5t25 24.5t12 32.5t5 40t0.5 56.5v1108h119v-1106q0 -66 -2 -95t-12 -67.5t-34 -58.5t-65 -43t-108 -46z" />
<glyph horiz-adv-x="595" d="M70 14q0 172 48 255t128 83q48 0 85.5 -26.5t74.5 -71.5v84h90v-895h-90v332q-25 -29 -43.5 -46.5t-50.5 -34t-66 -16.5q-80 0 -128 83.5t-48 252.5zM162 14q0 -119 27.5 -185.5t80.5 -66.5q35 0 71.5 28.5t64.5 72.5v303q-28 45 -64.5 73.5t-71.5 28.5 q-53 0 -80.5 -66.5t-27.5 -187.5z" />
<glyph horiz-adv-x="595" d="M70 1110q0 172 48 255t128 83q48 0 85.5 -26.5t74.5 -71.5v84h90v-895h-90v331q-25 -28 -43.5 -46t-50.5 -34t-66 -16q-80 0 -128 83.5t-48 252.5zM162 1110q0 -119 27.5 -185.5t80.5 -66.5q35 0 71.5 28t64.5 72v304q-28 45 -64.5 73.5t-71.5 28.5q-53 0 -80.5 -66.5 t-27.5 -187.5z" />
<glyph horiz-adv-x="405" d="M145 0v1176h117v-1176h-117z" />
<glyph horiz-adv-x="671" d="M63 1083q131 111 271 111q108 0 184 -66t76 -186q0 -212 -262 -334l-13 -262h-77l-15 324q252 101 252 260q0 71 -46 113t-116 42q-35 0 -73.5 -13.5t-61 -27t-59.5 -38.5zM217 0v184h127v-184h-127z" />
<glyph horiz-adv-x="706" d="M115 788v861h94v-365h287v365h94v-861h-94v408h-287v-408h-94z" />
<glyph horiz-adv-x="673" d="M78 233q0 212 262 334l12 262h78l14 -323q-251 -101 -251 -260q0 -72 45.5 -114t115.5 -42q35 0 74 14t61 27.5t60 38.5l59 -78q-130 -110 -270 -110q-109 0 -184.5 65.5t-75.5 185.5zM328 991v185h127v-185h-127z" />
<glyph horiz-adv-x="497" d="M59 -131q0 158 193 244l6 184h66l6 -236q-176 -70 -176 -184q0 -50 31 -79t79 -29q62 0 137 59l50 -66q-94 -84 -199 -84q-81 0 -137 50.5t-56 140.5zM240 414v139h102v-139h-102z" />
<glyph horiz-adv-x="497" d="M59 965q0 157 193 243l6 185h66l6 -236q-176 -70 -176 -184q0 -50 31 -79.5t79 -29.5q60 0 137 60l50 -66q-94 -84 -199 -84q-81 0 -137 50.5t-56 140.5zM240 1509v140h102v-140h-102z" />
<glyph horiz-adv-x="495" d="M45 483q94 84 199 84q81 0 136.5 -50t55.5 -140q0 -158 -192 -244l-6 -184h-66l-6 235q176 70 176 185q0 50 -31 79t-80 29q-62 0 -137 -59zM154 -168h102v-139h-102v139z" />
<glyph horiz-adv-x="499" d="M47 1579q94 84 199 84q81 0 136.5 -50t55.5 -140q0 -158 -192 -244l-6 -185h-66l-6 236q176 70 176 184q0 50 -31.5 79.5t-79.5 29.5q-60 0 -137 -60zM156 788v140h102v-140h-102z" />
<glyph horiz-adv-x="706" d="M115 -307v860h94v-365h287v365h94v-860h-94v407h-287v-407h-94z" />
<glyph horiz-adv-x="548" d="M80 125q0 160 58 247t143 87h14l16 94h47l-18 -104l29 -13l20 117h51l-24 -141l63 -45l-45 -70l-33 25l-71 -443q14 6 31.5 16.5t27.5 18.5t27 22t18 15l45 -70q-3 -2 -23.5 -18t-31.5 -23t-31 -19.5t-39.5 -20t-38.5 -11.5l-16 -96h-51l14 94q-18 4 -29 8l-16 -102h-49 l20 125q-108 81 -108 307zM174 125q0 -118 35 -186l72 432q-47 -8 -77 -75t-30 -171zM248 -113q16 -10 28 -12l80 477l-28 15z" />
<glyph horiz-adv-x="751" d="M104 590q0 219 80.5 339t198.5 120h14l23 127h65l-24 -140q17 -5 43 -16l26 156h66l-33 -191q57 -37 88 -65l-57 -84l-49 38l-107 -634q18 6 36.5 15t38 23t30.5 22.5t30 24t21 17.5l57 -86q-91 -72 -146 -98q-44 -20 -85 -27l-23 -131h-63l20 131q-29 4 -43 10l-22 -141 h-66l29 174q-68 52 -108 157.5t-40 258.5zM219 590q0 -177 55 -273l107 625q-70 -8 -116 -104t-46 -248zM330 252q23 -13 43 -16l112 677q-14 10 -41 21z" />
<glyph horiz-adv-x="299" d="M100 111v147h101v-147h-101zM100 -160h101v-147h-101v147z" />
<glyph horiz-adv-x="620" d="M47 788l211 429l-201 432h109l145 -353l148 353h106l-200 -430l210 -431h-110l-154 345l-151 -345h-113z" />
<glyph horiz-adv-x="522" d="M68 16q0 161 57.5 248.5t142.5 87.5q11 0 23 -2t22 -4t22.5 -7t20.5 -8.5t20.5 -11t18 -10.5t17.5 -11.5t15.5 -11t15 -11t12.5 -9.5l-45 -69q-1 1 -18 14t-26 19t-25.5 15.5t-31 14t-28.5 4.5q-53 0 -87 -68t-34 -180q0 -114 34 -181.5t87 -67.5q18 0 39.5 9t33.5 16.5 t34 24.5l22 17l45 -70q-1 -1 -12.5 -9.5t-15 -11t-15.5 -11t-17.5 -11.5t-18 -10.5t-20.5 -11t-20.5 -8.5t-22.5 -7t-22 -4t-23 -2q-85 0 -142.5 88.5t-57.5 249.5z" />
<glyph horiz-adv-x="749" d="M102 590q0 210 74 328.5t186 128.5v129h84v-138q86 -23 203 -118l-59 -84q-2 1 -25.5 20.5t-36.5 29.5t-37 25t-45 23v-690q55 22 144 98l59 -86q-2 -2 -15 -12t-18.5 -14t-19 -14t-22 -15.5t-22.5 -14.5t-25 -14.5l-25 -12.5t-28 -12.5t-28 -9.5v-137h-84v129 q-111 10 -185.5 129.5t-74.5 331.5zM217 590q0 -147 39.5 -240t105.5 -112v702q-66 -19 -105.5 -112.5t-39.5 -237.5z" />
<glyph horiz-adv-x="960" d="M66 874v84h94v218h116v-218h410v218h119v-218h90v-84h-90v-874h-119v561h-410v-561h-116v874h-94zM276 672h410v202h-410v-202z" />
<glyph horiz-adv-x="940" d="M147 0v1176h117v-504h410v504h119v-1176h-119v561h-410v-561h-117z" />
<glyph horiz-adv-x="686" d="M82 1219q0 221 69.5 332.5t178.5 111.5q47 0 97 -22t82 -46t77 -63l-51 -72q-3 3 -23 19l-27.5 22t-26 19.5t-29.5 19.5t-27.5 14.5t-31 11.5t-28.5 3q-74 0 -117 -93t-43 -259q0 -162 42.5 -256.5t115.5 -94.5q78 0 166 125v178h-162v88h252v-469h-90v99 q-94 -113 -184 -113q-102 0 -171 112.5t-69 332.5z" />
<glyph horiz-adv-x="837" d="M49 1176h131l238 -596l239 596h129l-311 -715v-461h-117v469z" />
<glyph horiz-adv-x="686" d="M82 123q0 221 69.5 332.5t178.5 111.5q47 0 97 -22t82 -46t77 -63l-51 -71q-3 3 -20 16.5t-23.5 18.5t-22.5 17.5t-25 18t-24.5 14.5t-26.5 12.5t-25 7t-26 3.5q-74 0 -117 -93t-43 -259q0 -162 42.5 -256t115.5 -94q78 0 166 125v178h-162v88h252v-469h-90v98 q-94 -113 -184 -113q-102 0 -171 112.5t-69 332.5z" />
<glyph horiz-adv-x="919" d="M100 588q0 302 96 454t244 152q49 0 97 -15t95 -44.5t79.5 -54.5t76.5 -64l-67 -90q-4 3 -27 23t-31 26.5t-31 24t-35.5 25.5t-33.5 20.5t-37 18.5t-35.5 10.5t-37.5 4.5q-105 0 -168.5 -131.5t-63.5 -363.5q0 -226 63.5 -358t168.5 -132q109 0 237 176v260h-229v107h342 v-637h-113v135q-134 -153 -258 -153q-67 0 -125.5 35.5t-105.5 106.5t-74 190.5t-27 273.5zM393 1303v176h117v-176h-117z" />
<glyph horiz-adv-x="919" d="M100 588q0 302 96 454t244 152q49 0 97 -15t95 -44.5t79.5 -54.5t76.5 -64l-67 -90q-4 3 -27 23t-31 26.5t-31 24t-35.5 25.5t-33.5 20.5t-37 18.5t-35.5 10.5t-37.5 4.5q-105 0 -168.5 -131.5t-63.5 -363.5q0 -226 63.5 -358t168.5 -132q109 0 237 176v260h-229v107h342 v-637h-113v135q-134 -153 -258 -153q-67 0 -125.5 35.5t-105.5 106.5t-74 190.5t-27 273.5zM406 -494l61 179h-51v182h112l15 -186l-97 -213z" />
<glyph horiz-adv-x="405" d="M98 -307v645h92v-139q4 15 14 35.5t29.5 50t54.5 47.5t77 14v-96q-32 0 -59 -11t-44.5 -29t-31.5 -39.5t-21 -43.5t-11.5 -40t-5.5 -29l-2 -11v-354h-92z" />
<glyph horiz-adv-x="837" d="M49 1176h131l238 -596l239 596h129l-311 -715v-461h-117v469zM309 1282l172 262h162l-233 -262h-101z" />
<glyph horiz-adv-x="837" d="M49 1176h131l238 -596l239 596h129l-311 -715v-461h-117v469zM242 1303v176h118v-176h-118zM481 1303v176h115v-176h-115z" />
<glyph horiz-adv-x="919" d="M100 588q0 302 96 454t244 152q49 0 97 -15t95 -44.5t79.5 -54.5t76.5 -64l-67 -90q-4 3 -27 23t-31 26.5t-31 24t-35.5 25.5t-33.5 20.5t-37 18.5t-35.5 10.5t-37.5 4.5q-105 0 -168.5 -131.5t-63.5 -363.5q0 -226 63.5 -358t168.5 -132q109 0 237 176v260h-229v107h342 v-637h-113v135q-134 -153 -258 -153q-67 0 -125.5 35.5t-105.5 106.5t-74 190.5t-27 273.5zM250 1493h84q0 -117 117 -117q116 0 116 117h84q0 -98 -53 -154.5t-147 -56.5q-95 0 -148 56.5t-53 154.5z" />
<glyph horiz-adv-x="1648" d="M78 106l61 91q157 -113 260 -113q65 0 111.5 43t46.5 123q0 48 -17.5 87.5t-52.5 70t-64 49t-75 41.5q-45 23 -70.5 37.5t-66 45.5t-62.5 61t-39.5 77t-17.5 102q0 125 73.5 201t190.5 76q67 0 148 -31q-15 53 -15 119q0 145 63 226t177 81h279v-578q36 38 62.5 62.5 t68.5 56t88 48t94 16.5q102 0 150.5 -77t48.5 -196v-825h-119v809q0 180 -119 180q-41 0 -85 -21t-81.5 -55t-62 -61t-45.5 -55v-797h-119v1413h-162q-79 0 -124.5 -67t-45.5 -177q0 -81 25 -139q11 -5 22.5 -12t24 -15t18.5 -12l-61 -86q-130 86 -221 86q-69 0 -111.5 -43 t-42.5 -117q0 -46 16 -83t48.5 -64t54 -40t59.5 -32q4 -2 6.5 -3.5t5.5 -2.5q145 -72 211 -159t66 -197q0 -126 -76.5 -199.5t-191.5 -73.5q-85 0 -174 38.5t-158 90.5z" />
<glyph horiz-adv-x="1531" d="M78 106l61 91q157 -113 260 -113q65 0 111.5 43t46.5 123q0 48 -17.5 87.5t-52.5 70t-64 49t-75 41.5q-45 23 -70.5 37.5t-66 45.5t-62.5 61t-39.5 77t-17.5 102q0 125 73.5 201t190.5 76q67 0 148 -31q-15 53 -15 119q0 145 63 226t177 81h279v-995l309 577h135 l-256 -438l301 -637h-129l-240 524l-120 -209v-315h-119v1413h-162q-79 0 -124.5 -67t-45.5 -177q0 -81 25 -139q11 -5 22.5 -12t24 -15t18.5 -12l-61 -86q-130 86 -221 86q-69 0 -111.5 -43t-42.5 -117q0 -46 16 -83t48.5 -64t54 -40t59.5 -32q4 -2 6.5 -3.5t5.5 -2.5 q145 -72 211 -159t66 -197q0 -126 -76.5 -199.5t-191.5 -73.5q-85 0 -174 38.5t-158 90.5z" />
<glyph horiz-adv-x="1159" d="M78 106l61 91q157 -113 260 -113q65 0 111.5 43t46.5 123q0 48 -17.5 87.5t-52.5 70t-64 49t-75 41.5q-45 23 -70.5 37.5t-66 45.5t-62.5 61t-39.5 77t-17.5 102q0 125 73.5 201t190.5 76q67 0 148 -31q-15 53 -15 119q0 145 63 226t177 81h287v-1493h-119v1413h-170 q-79 0 -124.5 -67t-45.5 -177q0 -81 25 -139q11 -5 22.5 -12t24 -15t18.5 -12l-61 -86q-130 86 -221 86q-69 0 -111.5 -43t-42.5 -117q0 -46 16 -83t48.5 -64t54 -40t59.5 -32q4 -2 6.5 -3.5t5.5 -2.5q145 -72 211 -159t66 -197q0 -126 -76.5 -199.5t-191.5 -73.5 q-85 0 -174 38.5t-158 90.5z" />
<glyph horiz-adv-x="837" d="M49 1176h131l238 -596l239 596h129l-311 -715v-461h-117v469zM203 1544h159l175 -262h-99z" />
<glyph horiz-adv-x="919" d="M100 588q0 302 96 454t244 152q49 0 97 -15t95 -44.5t79.5 -54.5t76.5 -64l-67 -90q-4 3 -27 23t-31 26.5t-31 24t-35.5 25.5t-33.5 20.5t-37 18.5t-35.5 10.5t-37.5 4.5q-105 0 -168.5 -131.5t-63.5 -363.5q0 -226 63.5 -358t168.5 -132q109 0 237 176v260h-229v107h342 v-637h-113v135q-134 -153 -258 -153q-67 0 -125.5 35.5t-105.5 106.5t-74 190.5t-27 273.5z" />
<glyph horiz-adv-x="575" d="M115 788v861h403v-90h-309v-295h248v-90h-248v-386h-94z" />
<glyph horiz-adv-x="575" d="M115 -307v860h403v-90h-309v-295h248v-90h-248v-385h-94z" />
<glyph horiz-adv-x="757" d="M145 0v1176h551v-111h-434v-424h344v-109h-344v-532h-117z" />
<glyph horiz-adv-x="684" d="M68 1083v64h57q-2 23 -2 72q0 45 2 65h-57v64h61q20 157 84 236t156 79q44 0 92 -21.5t74 -40.5t79 -61l-51 -72l-27.5 22t-31 24t-28.5 20t-33 19.5t-30.5 10.5t-33.5 5q-56 0 -95.5 -58t-52.5 -163h234v-64h-240q-2 -20 -2 -65q0 -49 2 -72h240v-64h-234 q15 -104 53.5 -159.5t94.5 -55.5q14 0 27.5 3t29 10.5t26 13t28.5 18.5t24.5 18t26 21t22.5 19l51 -74q-53 -42 -79 -61t-74 -40.5t-92 -21.5q-92 0 -155 77t-83 232h-63z" />
<glyph horiz-adv-x="684" d="M68 -12v63h57q-2 23 -2 72q0 45 2 65h-57v64h61q20 157 84 236t156 79q44 0 92 -21.5t74 -40.5t79 -61l-51 -71q-5 4 -23.5 18.5t-26 20.5t-24.5 18t-28 17.5t-26 12.5t-28.5 10t-27.5 3q-56 0 -95.5 -58t-52.5 -163h234v-64h-240q-2 -20 -2 -65q0 -49 2 -72h240v-63 h-234q15 -103 53.5 -159t94.5 -56q12 0 25 3t23.5 6.5t25 12t23 13t24 16.5t21 16.5t22.5 18t20 16.5l51 -74q-53 -42 -79 -61t-74 -40.5t-92 -21.5q-91 0 -154.5 78t-83.5 232h-63z" />
<glyph horiz-adv-x="940" d="M94 403v80h76q-2 33 -2 105q0 63 2 94h-76v80h84q25 215 113 323.5t213 108.5q88 0 165 -44t171 -124l-66 -86q-4 3 -31.5 25.5t-36.5 29t-33.5 24.5t-38.5 25t-35.5 17t-40.5 14t-38 4q-84 0 -141.5 -82.5t-79.5 -234.5h340v-80h-348q-2 -31 -2 -94q0 -39 4 -105h346 v-80h-338q23 -148 80 -227.5t139 -79.5q19 0 38.5 4t40.5 14t36.5 18.5t38.5 25.5t34 25.5t36 28.5t32 26l64 -88q-61 -52 -103.5 -83t-107 -58t-125.5 -27q-123 0 -210.5 104.5t-115.5 316.5h-84z" />
<glyph horiz-adv-x="311" d="M98 -434l52 127h-46v147h99l10 -155l-84 -152zM104 111v147h101v-147h-101z" />
<glyph horiz-adv-x="311" d="M98 662l52 126h-46v148h99l10 -156l-84 -151zM104 1206v148h101v-148h-101z" />
<glyph horiz-adv-x="608" d="M33 553h106l164 -426l166 426h106l-223 -524v-336h-94v336z" />
<glyph horiz-adv-x="1327" d="M92 539q0 267 92 413t226 146q61 0 129 -35q-15 53 -15 121q0 144 69 226.5t185 82.5q126 0 196 -99.5t70 -267.5v-51h205v-102h-205v-764q0 -119 68 -119q46 0 137 53l49 -94q-119 -72 -211 -72q-159 0 -159 234v762h-103v102h103v72q0 120 -41 193t-123 73 q-79 0 -124.5 -66.5t-45.5 -175.5q0 -95 31 -159q10 -8 26 -21t27 -22t20 -15l-63 -90q-3 3 -23 20t-31 26.5t-34 26t-40.5 25.5t-40 16t-42.5 7q-91 0 -150 -121.5t-59 -324.5t58.5 -326t148.5 -123q20 0 43.5 7.5t41.5 16.5t41 25t35 25.5t31 26t21 18.5l63 -88l-20 -17 q-20 -16 -25.5 -20.5t-26 -20.5t-31.5 -22t-31.5 -19t-36.5 -18.5t-36.5 -13t-40.5 -10.5t-40 -3q-134 0 -226 147.5t-92 414.5z" />
<glyph horiz-adv-x="509" d="M55 772v88h408v-78q-9 -16 -24 -44.5t-53.5 -116.5t-68 -176t-53.5 -211t-24 -234h-101q0 122 29 258t73 249t70 171t45 94h-301z" />
<glyph horiz-adv-x="509" d="M55 1346v88h408v-78q-9 -16 -24 -44.5t-53.5 -116.5t-68 -176.5t-53.5 -211.5t-24 -234h-101q0 122 29 258.5t72.5 249t70 171t45.5 94.5h-301z" />
<glyph horiz-adv-x="741" d="M59 1059v117h637v-101q-15 -27 -39 -74.5t-86 -197t-109.5 -299t-86.5 -360.5t-39 -402h-131q0 172 34.5 367t79 343.5t100.5 294t86.5 211t49.5 101.5h-496z" />
<glyph horiz-adv-x="1167" d="M92 539q0 267 92 413t226 146q59 0 131 -35q-17 60 -17 123q0 144 61 225.5t169 81.5h272v-1493h-119v1413h-151q-75 0 -118.5 -66.5t-43.5 -175.5q0 -102 33 -161q17 -12 44 -34l27 -22l-63 -90q-3 3 -23 20t-31 26.5t-34 26t-40.5 25.5t-40 16t-42.5 7 q-91 0 -150 -121.5t-59 -324.5t58.5 -326t148.5 -123q20 0 43.5 7.5t41.5 16.5t41 25t35 25.5t31 26t21 18.5l63 -88l-20 -17q-20 -16 -25.5 -20.5t-26 -20.5t-31.5 -22t-31.5 -19t-36.5 -18.5t-36.5 -13t-40.5 -10.5t-40 -3q-134 0 -226 147.5t-92 414.5z" />
<glyph horiz-adv-x="1542" d="M92 539q0 267 92 413t226 146q59 0 131 -35q-17 60 -17 123q0 144 61 225.5t169 81.5h264v-995l309 577h135l-256 -438l301 -637h-129l-239 524l-121 -209v-315h-119v1413h-143q-75 0 -118.5 -66.5t-43.5 -175.5q0 -102 33 -161q17 -12 44 -34l27 -22l-63 -90 q-3 3 -23 20t-31 26.5t-34 26t-40.5 25.5t-40 16t-42.5 7q-91 0 -150 -121.5t-59 -324.5t58.5 -326t148.5 -123q20 0 43.5 7.5t41.5 16.5t41 25t35 25.5t31 26t21 18.5l63 -88l-20 -17q-20 -16 -25.5 -20.5t-26 -20.5t-31.5 -22t-31.5 -19t-36.5 -18.5t-36.5 -13 t-40.5 -10.5t-40 -3q-134 0 -226 147.5t-92 414.5z" />
<glyph horiz-adv-x="1085" d="M70 1100v76h356v-68q-8 -13 -21 -36.5t-46.5 -95.5t-59.5 -144t-47 -172t-21 -189h-90q0 83 20.5 179t43 162.5t58.5 145t45.5 96.5t25.5 46h-264zM236 0l405 1176h88l-405 -1176h-88zM594 174q0 126 137 205q-104 70 -104 176q0 71 48 116.5t124 45.5t125 -45.5 t49 -116.5q0 -107 -107 -176q140 -78 140 -205q0 -86 -57.5 -136t-149.5 -50t-148.5 50t-56.5 136zM678 178q0 -54 35 -86.5t86 -32.5q53 0 88 32.5t35 86.5q0 95 -123 166q-121 -69 -121 -166zM707 547q0 -79 92 -133q92 57 92 133q0 41 -26 70.5t-66 29.5t-66 -29.5 t-26 -70.5z" />
<glyph horiz-adv-x="1658" d="M92 539q0 267 92 413t226 146q59 0 131 -35q-17 60 -17 123q0 144 61 225.5t169 81.5h264v-578q36 38 62.5 62.5t68.5 56t88 48t94 16.5q102 0 150.5 -77t48.5 -196v-825h-119v809q0 180 -119 180q-41 0 -85 -21t-81.5 -55t-62 -61t-45.5 -55v-797h-119v1413h-143 q-75 0 -118.5 -66.5t-43.5 -175.5q0 -102 33 -161q17 -12 44 -34l27 -22l-63 -90q-3 3 -23 20t-31 26.5t-34 26t-40.5 25.5t-40 16t-42.5 7q-91 0 -150 -121.5t-59 -324.5t58.5 -326t148.5 -123q20 0 43.5 7.5t41.5 16.5t41 25t35 25.5t31 26t21 18.5l63 -88l-20 -17 q-20 -16 -25.5 -20.5t-26 -20.5t-31.5 -22t-31.5 -19t-36.5 -18.5t-36.5 -13t-40.5 -10.5t-40 -3q-134 0 -226 147.5t-92 414.5z" />
<glyph horiz-adv-x="612" d="M35 1649h106l164 -426l166 426h107l-224 -525v-336h-94v336z" />
<glyph horiz-adv-x="512" d="M61 -242l41 68q36 -27 83 -48.5t83 -21.5q38 0 64 24t26 68q0 26 -10.5 48t-31.5 38.5t-39 26.5t-46 23q-34 16 -56 29.5t-49.5 37t-41.5 56t-14 73.5q0 76 47.5 124t122.5 48q93 0 190 -67l-41 -62q-78 51 -139 51q-39 0 -63.5 -23.5t-24.5 -64.5q0 -16 3.5 -29.5 t12.5 -25t15.5 -19t21 -16.5t21 -13t23.5 -12t20 -10q87 -42 129.5 -91t42.5 -120q0 -80 -49 -126t-126 -46q-103 0 -215 80z" />
<glyph horiz-adv-x="929" d="M57 532v111h93v533h219q456 0 456 -588t-456 -588h-219v532h-93zM266 111h101q174 0 257 115.5t83 361.5t-83 361.5t-257 115.5h-101v-422h201v-111h-201v-421z" />
<glyph horiz-adv-x="610" d="M82 346q-1 247 96 387.5t238 140.5q22 0 43.5 -3.5t32.5 -6.5l10 -4l-23 -84q-28 10 -61 10q-81 0 -148 -83.5t-86 -247.5q23 37 63.5 66.5t96.5 29.5q90 0 144.5 -79.5t54.5 -195.5q0 -121 -62 -205.5t-162 -84.5q-78 0 -133.5 53.5t-79.5 133t-24 173.5zM178 342 q0 -114 37 -191t102 -77q62 0 95.5 59.5t33.5 140.5q0 78 -31.5 135.5t-92.5 57.5q-53 0 -92 -39.5t-52 -85.5z" />
<glyph horiz-adv-x="610" d="M82 920q-1 247 96 387.5t238 140.5q22 0 43.5 -3.5t32.5 -6.5l10 -4l-23 -84q-28 10 -61 10q-81 0 -148 -84t-86 -248q23 37 63.5 66.5t96.5 29.5q90 0 144.5 -79t54.5 -195q0 -121 -62 -206t-162 -85q-78 0 -133.5 54t-79.5 133.5t-24 173.5zM178 915q0 -114 37 -191 t102 -77q62 0 95.5 60t33.5 141q0 78 -31.5 135t-92.5 57q-53 0 -92 -39.5t-52 -85.5z" />
<glyph horiz-adv-x="915" d="M111 573q-1 171 27 316.5t76.5 248.5t114.5 175.5t141.5 107.5t156.5 35q34 0 66.5 -5.5t48.5 -10.5l16 -6l-29 -111q-45 18 -98 18q-65 0 -126.5 -36t-116 -106.5t-93.5 -189t-53 -270.5q16 28 37 54t53.5 55t78 47t95.5 18q98 0 171 -63.5t108.5 -165.5t35.5 -225 q0 -130 -40.5 -239t-120 -176t-183.5 -67q-91 0 -162.5 51t-114.5 136.5t-65.5 189.5t-23.5 219zM236 569q0 -129 25 -234.5t81 -174t135 -68.5q71 0 123 55.5t75 136.5t23 175q0 87 -20.5 162t-70.5 128.5t-122 53.5q-47 0 -91 -22.5t-74.5 -57.5t-52 -74t-31.5 -76v-4z " />
<glyph horiz-adv-x="425" d="M170 -207v694h88v-694h-88zM170 680v694h88v-694h-88z" />
<glyph horiz-adv-x="813" d="M74 0v100l508 965h-482v111h621v-99l-510 -966h516v-111h-653z" />
<glyph horiz-adv-x="378" d="M59 612v72h115v1065h-115v70h209v-1207h-209z" />
<glyph horiz-adv-x="598" d="M115 788v861h403v-90h-309v-295h256v-90h-256v-295h313v-91h-407z" />
<glyph horiz-adv-x="589" d="M43 -152l403 1479h93l-404 -1479h-92z" />
<glyph horiz-adv-x="794" d="M145 0v1176h551v-111h-434v-422h359v-111h-359v-421h440v-111h-4q-3 -2 -18.5 -15t-21 -18t-20 -18t-21 -21t-18 -21t-17 -24t-12 -24.5t-9 -27.5t-2.5 -28q0 -16 3.5 -29t8 -21.5t14 -14t16 -8.5t19 -4.5t18 -2t19 0t15.5 0.5l-15 -91q-17 0 -26.5 0.5t-32 3t-37 8 t-33.5 16.5t-30.5 27t-20 41.5t-8.5 57.5q0 120 137 213h-461z" />
<glyph horiz-adv-x="288" />
<glyph horiz-adv-x="288" />
<glyph horiz-adv-x="378" d="M59 -412h115v1065h-115v70h209v-1206h-209v71z" />
<glyph horiz-adv-x="958" d="M145 0v1176h119l428 -949v949h119v-1108q0 -54 -1 -80.5t-8 -61t-20 -52t-38 -39.5t-62 -39t-92 -36l-39 99q84 39 110 63.5t29 77.5l-428 952v-952h-117z" />
<glyph horiz-adv-x="751" d="M109 0v90q5 6 14.5 17t33 47t42.5 74.5t35.5 95t19.5 112.5h-133v92h127q-10 57 -39 129.5t-51.5 142t-22.5 138.5q0 120 65 188t175 68q55 0 113.5 -21t87.5 -39t79 -53l-61 -84q-125 88 -201 88q-66 0 -103.5 -41.5t-37.5 -117.5q0 -70 51.5 -194.5t61.5 -203.5h194 v-92h-192q-5 -100 -42 -191t-71 -136h389v-109h-534z" />
<glyph horiz-adv-x="548" d="M78 -233q4 4 11 11.5t24.5 32.5t31 51.5t25.5 67t14 80.5h-98v72h92q-7 39 -44.5 134t-37.5 161q0 88 48.5 139t127.5 51q42 0 85 -16t67 -31.5t57 -40.5l-49 -67q-87 65 -145 65q-43 0 -67.5 -29t-24.5 -83q0 -49 34 -138t41 -145h142v-72h-138q-4 -69 -28 -131t-47 -98 h272v-88h-393v74z" />
<glyph horiz-adv-x="548" d="M80 788v74q4 4 11 11.5t24.5 33t31 52t25.5 67t14 80.5h-98v72h92q-7 39 -44.5 134t-37.5 161q0 88 48.5 139t127.5 51q42 0 85 -16t67 -31.5t57 -40.5l-49 -68q-89 66 -145 66q-43 0 -67.5 -29.5t-24.5 -83.5q0 -49 34 -137.5t41 -144.5h142v-72h-138q-4 -69 -28 -131 t-47 -98h272v-89h-393z" />
<glyph horiz-adv-x="524" d="M80 -152h160v1471h-160v90h276v-1651h-276v90z" />
<glyph horiz-adv-x="794" d="M145 0v1176h551v-111h-434v-422h359v-111h-359v-421h440v-111h-557zM217 1333v94h410v-94h-410z" />
<glyph horiz-adv-x="598" d="M115 -307v860h403v-90h-309v-295h256v-90h-256v-295h313v-90h-407z" />
<glyph horiz-adv-x="794" d="M145 0v1176h551v-111h-434v-422h359v-111h-359v-421h440v-111h-557zM201 1544h159l175 -262h-99z" />
<glyph horiz-adv-x="794" d="M145 0v1176h551v-111h-434v-422h359v-111h-359v-421h440v-111h-557zM365 1303v176h116v-176h-116z" />
<glyph horiz-adv-x="794" d="M145 0v1176h551v-111h-434v-422h359v-111h-359v-421h440v-111h-557zM244 1303v176h118v-176h-118zM483 1303v176h115v-176h-115z" />
<glyph horiz-adv-x="794" d="M145 0v1176h551v-111h-434v-422h359v-111h-359v-421h440v-111h-557zM215 1282l139 262h135l142 -262h-90l-119 184l-119 -184h-88z" />
<glyph horiz-adv-x="585" d="M57 66l49 71q84 -61 160 -61q63 0 104.5 44.5t41.5 119.5q0 49 -19 86t-50 57.5t-64 30.5t-66 10h-16v90h22q64 0 115 43t51 115q0 54 -29 83t-80 29q-67 0 -147 -59l-43 66q106 83 205 83q89 0 138.5 -54.5t49.5 -133.5q0 -65 -34.5 -122.5t-100.5 -88.5 q73 -22 118.5 -86.5t45.5 -152.5q0 -103 -58.5 -176.5t-170.5 -73.5q-116 0 -222 80z" />
<glyph horiz-adv-x="585" d="M57 639l49 72q85 -62 160 -62q63 0 104.5 44.5t41.5 119.5q0 49 -19 86t-50 57.5t-64 30.5t-66 10h-16v90h22q64 0 115 43t51 115q0 55 -29.5 84t-79.5 29q-66 0 -147 -60l-43 66q69 54 125 72q40 12 80 12q89 0 138.5 -54.5t49.5 -133.5q0 -65 -34.5 -122.5 t-100.5 -88.5q72 -22 118 -86.5t46 -153.5q0 -103 -58.5 -176.5t-170.5 -73.5q-116 0 -222 80z" />
<glyph horiz-adv-x="860" d="M70 -164l65 96q134 -100 254 -100q107 0 177.5 82t70.5 217q0 86 -31 153.5t-81 106t-105 57.5t-109 19h-26v119h32q107 0 192 79t85 207q0 97 -50.5 151t-137.5 54q-114 0 -232 -94l-59 84q146 127 309 127q139 0 217 -88.5t78 -218.5q0 -108 -57 -205.5t-170 -151.5 q120 -36 196 -145t76 -260q0 -79 -22.5 -151t-65.5 -130.5t-114 -93.5t-161 -35q-101 0 -190.5 39t-140.5 82z" />
<glyph horiz-adv-x="813" d="M74 0v100l508 965h-482v111h621v-99l-510 -966h516v-111h-653zM301 1282l172 262h162l-234 -262h-100z" />
<glyph horiz-adv-x="378" d="M111 612v1207h208v-72h-114v-1065h114v-70h-208z" />
</font>
</defs>
</svg>
