<?xml version="1.0" standalone="no"?>
<!DOCTYPE svg PUBLIC "-//W3C//DTD SVG 1.1//EN" "http://www.w3.org/Graphics/SVG/1.1/DTD/svg11.dtd" >
<svg xmlns="http://www.w3.org/2000/svg">
<metadata></metadata>
<defs>
<font id="verbexcondbold_italic" horiz-adv-x="1087" >
<font-face units-per-em="2048" ascent="1638" descent="-410" />
<missing-glyph horiz-adv-x="428" />
<glyph unicode="ff" horiz-adv-x="1376" d="M-180 -242q41 15 69 27t52.5 27t39.5 25t28.5 30t20 33t14.5 42.5t12 50.5t12 64l139 801h-115l39 217h115l10 55q32 187 103.5 275t205.5 88q150 0 330 -102l-131 -191q-85 39 -143 39q-63 0 -82 -98l-13 -66h215l-41 -217h-211l-137 -778q-12 -70 -18.5 -102.5t-18 -85 t-23 -75.5l-30 -60t-41.5 -55t-55 -44t-74 -43t-94.5 -36t-120.5 -38zM508 -242q41 15 69 27t52.5 27t39.5 25t28.5 30t20 33t14.5 42.5t12 50.5t12 64l139 801h-115l39 217h115l10 55q32 187 103.5 275t205.5 88q150 0 330 -102l-131 -191q-85 39 -143 39q-63 0 -82 -98 l-13 -66h216l-41 -217h-211l-138 -778q-12 -70 -18.5 -102.5t-18 -85t-23 -75.5l-30 -60t-41.5 -55t-55 -44t-74 -43t-94.5 -36t-120.5 -38z" />
<glyph unicode="fi" horiz-adv-x="1189" d="M-180 -242q41 15 69 27t52.5 27t39.5 25t28.5 30t20 33t14.5 42.5t12 50.5t12 64l141 801h-117l39 217h117l10 55q32 187 101.5 275t199.5 88q120 0 272 -82l-102 -201q-75 29 -108 29q-28 0 -50 -23t-30 -75l-13 -66h213l-41 -217h-211l-137 -778q-33 -191 -58 -258 q-40 -106 -132 -167q-91 -60 -285 -114zM688 0l191 1075h280l-190 -1075h-281zM899 1231l45 256h295l-45 -256h-295z" />
<glyph unicode="fl" horiz-adv-x="1196" d="M-180 -242q41 15 69 27t52.5 27t39.5 25t28.5 30t20 33t14.5 42.5t12 50.5t12 64l141 801h-117l39 217h117l10 55q32 187 101.5 275t199.5 88q120 0 272 -82l-102 -201q-75 29 -108 29q-28 0 -50 -23t-30 -75l-13 -66h213l-41 -217h-211l-137 -778q-33 -191 -58 -258 q-40 -106 -132 -167q-91 -60 -285 -114zM694 0l262 1493h281l-262 -1493h-281z" />
<glyph unicode="ffi" horiz-adv-x="1878" d="M-180 -242q41 15 69 27t52.5 27t39.5 25t28.5 30t20 33t14.5 42.5t12 50.5t12 64l139 801h-115l39 217h115l10 55q32 187 103.5 275t205.5 88q150 0 330 -102l-131 -191q-85 39 -143 39q-63 0 -82 -98l-13 -66h215l-41 -217h-211l-137 -778q-12 -70 -18.5 -102.5t-18 -85 t-23 -75.5l-30 -60t-41.5 -55t-55 -44t-74 -43t-94.5 -36t-120.5 -38zM508 -242q41 15 69 27t52.5 27t39.5 25t28.5 30t20 33t14.5 42.5t12 50.5t12 64l141 801h-117l39 217h117l10 55q32 187 101.5 275t199.5 88q121 0 273 -82l-103 -201q-75 29 -108 29q-28 0 -50 -23 t-30 -75l-12 -66h213l-41 -217h-211l-138 -778q-33 -191 -58 -258q-40 -106 -132 -167q-91 -60 -285 -114zM1376 0l191 1075h280l-190 -1075h-281zM1587 1231l45 256h295l-45 -256h-295z" />
<glyph unicode="ffl" horiz-adv-x="1884" d="M-180 -242q41 15 69 27t52.5 27t39.5 25t28.5 30t20 33t14.5 42.5t12 50.5t12 64l139 801h-115l39 217h115l10 55q32 187 103.5 275t205.5 88q150 0 330 -102l-131 -191q-85 39 -143 39q-63 0 -82 -98l-13 -66h215l-41 -217h-211l-137 -778q-12 -70 -18.5 -102.5t-18 -85 t-23 -75.5l-30 -60t-41.5 -55t-55 -44t-74 -43t-94.5 -36t-120.5 -38zM508 -242q41 15 69 27t52.5 27t39.5 25t28.5 30t20 33t14.5 42.5t12 50.5t12 64l141 801h-117l39 217h117l10 55q32 187 101.5 275t199.5 88q121 0 273 -82l-103 -201q-75 29 -108 29q-28 0 -50 -23 t-30 -75l-12 -66h213l-41 -217h-211l-138 -778q-33 -191 -58 -258q-40 -106 -132 -167q-91 -60 -285 -114zM1382 0l263 1493h280l-262 -1493h-281z" />
<glyph unicode="ffb" horiz-adv-x="2467" d="M-180 -242q41 15 69 27t52.5 27t39.5 25t28.5 30t20 33t14.5 42.5t12 50.5t12 64l139 801h-115l39 217h115l10 55q32 187 103.5 275t205.5 88q150 0 330 -102l-131 -191q-85 39 -143 39q-63 0 -82 -98l-13 -66h215l-41 -217h-211l-137 -778q-12 -70 -18.5 -102.5t-18 -85 t-23 -75.5l-30 -60t-41.5 -55t-55 -44t-74 -43t-94.5 -36t-120.5 -38zM508 -242q41 15 69 27t52.5 27t39.5 25t28.5 30t20 33t14.5 42.5t12 50.5t12 64l141 801h-117l39 217h117l10 55q32 187 101.5 275t199.5 88q121 0 273 -82l-103 -201q-75 29 -108 29q-28 0 -50 -23 t-30 -75l-12 -66h213l-41 -217h-211l-138 -778q-33 -191 -58 -258q-40 -106 -132 -167q-91 -60 -285 -114zM1378 0l262 1493h281l-94 -535q161 140 301 140q123 0 197.5 -94.5t74.5 -268.5q0 -138 -30 -271.5t-85 -243t-142 -176.5t-191 -67q-47 0 -88.5 12t-75.5 35t-58 45 t-51 52l-20 -121h-281zM1718 344q33 -60 77.5 -94.5t94.5 -34.5q66 0 118 77t77.5 183.5t25.5 212.5q0 79 -28 125.5t-84 46.5q-94 0 -213 -133z" />
<glyph unicode="ffh" horiz-adv-x="2461" d="M-180 -242q41 15 69 27t52.5 27t39.5 25t28.5 30t20 33t14.5 42.5t12 50.5t12 64l139 801h-115l39 217h115l10 55q32 187 103.5 275t205.5 88q150 0 330 -102l-131 -191q-85 39 -143 39q-63 0 -82 -98l-13 -66h215l-41 -217h-211l-137 -778q-12 -70 -18.5 -102.5t-18 -85 t-23 -75.5l-30 -60t-41.5 -55t-55 -44t-74 -43t-94.5 -36t-120.5 -38zM508 -242q41 15 69 27t52.5 27t39.5 25t28.5 30t20 33t14.5 42.5t12 50.5t12 64l141 801h-117l39 217h117l10 55q32 187 101.5 275t199.5 88q121 0 273 -82l-103 -201q-75 29 -108 29q-28 0 -50 -23 t-30 -75l-12 -66h213l-41 -217h-211l-138 -778q-33 -191 -58 -258q-40 -106 -132 -167q-91 -60 -285 -114zM1378 0l262 1493h281l-96 -541q193 146 340 146q136 0 193 -92t26 -261l-131 -745h-283l123 700q7 46 8 83.5t-17 61t-56 23.5q-55 0 -122 -41t-118 -94l-129 -733 h-281z" />
<glyph unicode="fb" horiz-adv-x="1779" d="M-180 -242q41 15 69 27t52.5 27t39.5 25t28.5 30t20 33t14.5 42.5t12 50.5t12 64l141 801h-117l39 217h117l10 55q32 187 101.5 275t199.5 88q120 0 272 -82l-102 -201q-75 29 -108 29q-28 0 -50 -23t-30 -75l-13 -66h213l-41 -217h-211l-137 -778q-33 -191 -58 -258 q-40 -106 -132 -167q-91 -60 -285 -114zM690 0l262 1493h281l-94 -535q161 140 301 140q123 0 197.5 -94.5t74.5 -268.5q0 -138 -30 -271.5t-85 -243t-142 -176.5t-191 -67q-47 0 -88.5 12t-75.5 35t-58 45t-51 52l-20 -121h-281zM1030 344q33 -60 77.5 -94.5t94.5 -34.5 q66 0 118 77t77.5 183.5t25.5 212.5q0 79 -28 125.5t-84 46.5q-94 0 -213 -133z" />
<glyph unicode="ffj" horiz-adv-x="1894" d="M-180 -242q41 15 69 27t52.5 27t39.5 25t28.5 30t20 33t14.5 42.5t12 50.5t12 64l139 801h-115l39 217h115l10 55q32 187 103.5 275t205.5 88q150 0 330 -102l-131 -191q-85 39 -143 39q-63 0 -82 -98l-13 -66h215l-41 -217h-211l-137 -778q-12 -70 -18.5 -102.5t-18 -85 t-23 -75.5l-30 -60t-41.5 -55t-55 -44t-74 -43t-94.5 -36t-120.5 -38zM508 -242q41 15 69 27t52.5 27t39.5 25t28.5 30t20 33t14.5 42.5t12 50.5t12 64l141 801h-117l39 217h117l10 55q32 187 101.5 275t199.5 88q121 0 273 -82l-103 -201q-75 29 -108 29q-28 0 -50 -23 t-30 -75l-12 -66h213l-41 -217h-211l-138 -778q-33 -191 -58 -258q-40 -106 -132 -167q-91 -60 -285 -114zM1139 -238q53 20 87.5 35t60.5 33t39.5 31t24.5 38t15.5 45t11.5 60l189 1071h280l-184 -1048q-30 -165 -54 -225q-42 -103 -143 -163q-92 -55 -272 -100zM1587 1231 l45 256h295l-45 -256h-295z" />
<glyph unicode="ffk" horiz-adv-x="2377" d="M-180 -242q41 15 69 27t52.5 27t39.5 25t28.5 30t20 33t14.5 42.5t12 50.5t12 64l139 801h-115l39 217h115l10 55q32 187 103.5 275t205.5 88q150 0 330 -102l-131 -191q-85 39 -143 39q-63 0 -82 -98l-13 -66h215l-41 -217h-211l-137 -778q-12 -70 -18.5 -102.5t-18 -85 t-23 -75.5l-30 -60t-41.5 -55t-55 -44t-74 -43t-94.5 -36t-120.5 -38zM508 -242q41 15 69 27t52.5 27t39.5 25t28.5 30t20 33t14.5 42.5t12 50.5t12 64l141 801h-117l39 217h117l10 55q32 187 101.5 275t199.5 88q121 0 273 -82l-103 -201q-75 29 -108 29q-28 0 -50 -23 t-30 -75l-12 -66h213l-41 -217h-211l-138 -778q-33 -191 -58 -258q-40 -106 -132 -167q-91 -60 -285 -114zM1378 0l262 1493h281l-143 -813l303 395h336l-389 -438l247 -637h-286l-150 424l-131 -148l-49 -276h-281z" />
<glyph unicode="fft" horiz-adv-x="2115" d="M-180 -242q41 15 69 27t52.5 27t39.5 25t28.5 30t20 33t14.5 42.5t12 50.5t12 64l139 801h-115l39 217h115l10 55q32 187 103.5 275t205.5 88q150 0 330 -102l-131 -191q-85 39 -143 39q-63 0 -82 -98l-13 -66h215l-41 -217h-211l-137 -778q-12 -70 -18.5 -102.5t-18 -85 t-23 -75.5l-30 -60t-41.5 -55t-55 -44t-74 -43t-94.5 -36t-120.5 -38zM508 -242q41 15 69 27t52.5 27t39.5 25t28.5 30t20 33t14.5 42.5t12 50.5t12 64l139 801h-115l39 217h115l10 55q32 187 103.5 275t205.5 88q150 0 330 -102l-131 -191q-85 39 -143 39q-63 0 -82 -98 l-13 -66h216l-41 -217h-211l-138 -778q-12 -70 -18.5 -102.5t-18 -85t-23 -75.5l-30 -60t-41.5 -55t-55 -44t-74 -43t-94.5 -36t-120.5 -38zM1462 858l39 217h119l47 260l289 51l-55 -311h235l-39 -217h-235l-90 -520q-19 -105 45 -105q12 0 25.5 3t30.5 9t28 10.5t29.5 13 t23.5 10.5l61 -228q-186 -74 -307 -74q-136 0 -191 96.5t-22 288.5l88 496h-121z" />
<glyph unicode="fh" horiz-adv-x="1773" d="M-180 -242q41 15 69 27t52.5 27t39.5 25t28.5 30t20 33t14.5 42.5t12 50.5t12 64l141 801h-117l39 217h117l10 55q32 187 101.5 275t199.5 88q120 0 272 -82l-102 -201q-75 29 -108 29q-28 0 -50 -23t-30 -75l-13 -66h213l-41 -217h-211l-137 -778q-33 -191 -58 -258 q-40 -106 -132 -167q-91 -60 -285 -114zM690 0l262 1493h281l-96 -541q193 146 340 146q136 0 193 -92t26 -261l-131 -745h-283l123 700q7 46 8 83.5t-17.5 61t-56.5 23.5q-55 0 -121 -41t-118 -94l-129 -733h-281z" />
<glyph unicode="fj" horiz-adv-x="1208" d="M-180 -242q41 15 69 27t52.5 27t39.5 25t28.5 30t20 33t14.5 42.5t12 50.5t12 64l141 801h-117l39 217h117l10 55q32 187 101.5 275t199.5 88q120 0 272 -82l-102 -201q-75 29 -108 29q-28 0 -50 -23t-30 -75l-13 -66h213l-41 -217h-211l-137 -778q-33 -191 -58 -258 q-40 -106 -132 -167q-91 -60 -285 -114zM451 -238q53 20 87.5 35t60.5 33t39.5 31t24.5 38t15.5 45t11.5 60l189 1071h280l-184 -1048q-30 -165 -54 -225q-42 -103 -143 -163q-92 -55 -272 -100zM899 1231l45 256h295l-45 -256h-295z" />
<glyph unicode="fk" horiz-adv-x="1689" d="M-180 -242q41 15 69 27t52.5 27t39.5 25t28.5 30t20 33t14.5 42.5t12 50.5t12 64l141 801h-117l39 217h117l10 55q32 187 101.5 275t199.5 88q120 0 272 -82l-102 -201q-75 29 -108 29q-28 0 -50 -23t-30 -75l-13 -66h213l-41 -217h-211l-137 -778q-33 -191 -58 -258 q-40 -106 -132 -167q-91 -60 -285 -114zM690 0l262 1493h281l-143 -813l303 395h336l-390 -438l248 -637h-287l-149 424l-131 -148l-49 -276h-281z" />
<glyph unicode="ft" horiz-adv-x="1429" d="M-180 -242q41 15 69 27t52.5 27t39.5 25t28.5 30t20 33t14.5 42.5t12 50.5t12 64l139 801h-115l39 217h115l10 55q32 187 103.5 275t205.5 88q150 0 330 -102l-131 -191q-85 39 -143 39q-63 0 -82 -98l-13 -66h215l-41 -217h-211l-137 -778q-12 -70 -18.5 -102.5t-18 -85 t-23 -75.5l-30 -60t-41.5 -55t-55 -44t-74 -43t-94.5 -36t-120.5 -38zM776 858l39 217h119l47 260l289 51l-56 -311h236l-39 -217h-235l-91 -520q-19 -105 45 -105q12 0 25.5 3t31 9t27.5 10.5t30.5 13.5t23.5 10l61 -228q-186 -74 -307 -74q-136 0 -191 96.5t-22 288.5 l88 496h-121z" />
<glyph unicode=" "  horiz-adv-x="428" />
<glyph unicode="&#x09;" horiz-adv-x="428" />
<glyph unicode="&#xa0;" horiz-adv-x="428" />
<glyph unicode="!" horiz-adv-x="548" d="M25 0l55 311h285l-56 -311h-284zM164 463l84 971h342l-258 -971h-168z" />
<glyph unicode="&#x22;" horiz-adv-x="792" d="M170 874l53 560h266l-145 -560h-174zM532 874l54 560h266l-145 -560h-175z" />
<glyph unicode="#" horiz-adv-x="1251" d="M18 324l41 221h209l103 342h-183l39 223h209l99 324h217l-99 -324h213l99 324h217l-99 -324h185l-41 -223h-209l-103 -342h183l-39 -221h-211l-96 -324h-217l96 324h-213l-96 -324h-218l97 324h-183zM485 545h213l103 342h-213z" />
<glyph unicode="$" horiz-adv-x="1146" d="M-4 180l164 209q92 -63 195.5 -109.5t185.5 -46.5q77 0 128.5 42t51.5 114q0 28 -11 52.5t-26.5 42t-46 38.5t-54 34t-67.5 36.5t-70 38.5q-136 84 -208 176t-72 225q0 86 31.5 162t89 133.5t145.5 92t195 36.5l32 184h203l-37 -206q158 -39 330 -142l-166 -211 q-75 48 -170 83.5t-166 35.5q-72 0 -122 -38.5t-50 -110.5q0 -26 9.5 -48t22 -37.5t41.5 -35t50 -31t66 -35.5t73 -39q64 -39 109 -74t91 -85.5t69.5 -114t23.5 -139.5q0 -87 -32.5 -164t-91.5 -136t-148.5 -95t-196.5 -40l-32 -182h-201l35 205q-204 48 -373 180z" />
<glyph unicode="%" horiz-adv-x="1730" d="M135 989q0 82 22.5 162.5t65.5 149.5t116 112t165 43q134 0 222.5 -77t88.5 -224q0 -82 -22 -162.5t-65 -149.5t-115.5 -112t-163.5 -43q-135 0 -224.5 77t-89.5 224zM342 989q0 -131 111 -131q40 0 72 32.5t49.5 80.5t26.5 96.5t9 87.5q0 131 -110 131q-40 0 -72 -32.5 t-50 -80.5t-27 -96.5t-9 -87.5zM346 0l854 1434h215l-852 -1434h-217zM950 279q0 65 13.5 129.5t43.5 125.5t72 107.5t104.5 75t135.5 28.5q134 0 223.5 -77t89.5 -224q0 -82 -22.5 -162.5t-65.5 -149.5t-116 -112t-164 -43q-135 0 -224.5 77.5t-89.5 224.5zM1157 279 q0 -132 111 -132q40 0 72 32.5t49.5 80.5t26.5 96.5t9 87.5q0 66 -26.5 98.5t-83.5 32.5q-40 0 -72 -32t-50 -80.5t-27 -96.5t-9 -87z" />
<glyph unicode="&#x26;" horiz-adv-x="1259" d="M55 319q0 76 25 144t73 125t97 99t119 91q-97 161 -97 295q0 174 111.5 278.5t282.5 104.5q153 0 241 -82.5t88 -208.5q0 -66 -24.5 -127t-73 -116.5t-95.5 -97t-118 -95.5l150 -223q69 119 106 250h281q-30 -110 -92 -234.5t-148 -232.5l195 -289h-304l-71 109 q-175 -132 -373 -132q-172 0 -272.5 94.5t-100.5 247.5zM330 336q0 -57 32.5 -97t98.5 -40q102 0 215 104l-184 281q-162 -134 -162 -248zM520 1075q0 -75 47 -164q85 61 129.5 115.5t44.5 116.5q0 43 -21.5 72.5t-68.5 29.5q-61 0 -96 -50t-35 -120z" />
<glyph unicode="'" horiz-adv-x="430" d="M170 874l53 560h266l-145 -560h-174z" />
<glyph unicode="(" horiz-adv-x="614" d="M22.5 -27.5q-2.5 90.5 20.5 222.5l186 1046q9 50 14.5 79t15 68t19 61.5t24.5 52t32.5 47t43 40t56 37.5t70.5 32t88 31t108 29l43 -178q-65 -26 -102 -47t-59.5 -50.5t-32 -58.5t-19.5 -84l-211 -1183q-15 -69 -11.5 -114t29.5 -73.5t93 -62.5l-82 -160 q-175 49 -249 112t-76.5 153.5z" />
<glyph unicode=")" horiz-adv-x="608" d="M-98 -115q65 26 102 47t59.5 50.5t32 58.5t19.5 84l211 1184q15 69 11.5 114t-29.5 73.5t-93 62.5l82 159q175 -49 249 -112t77 -153t-21 -222l-186 -1047q-9 -50 -14.5 -79t-15 -68t-19 -61.5t-24.5 -52t-32.5 -47t-43 -40t-56 -37.5t-70.5 -32t-88 -31t-108 -29z" />
<glyph unicode="*" horiz-adv-x="929" d="M147 1032l314 31l-283 139l150 178l184 -258l-25 316l232 -41l-129 -287l256 180l80 -223l-301 -31l270 -137l-150 -178l-178 246l21 -305l-232 38l131 289l-260 -178z" />
<glyph unicode="+" horiz-adv-x="1124" d="M123 573l41 220h317l62 340h221l-62 -340h324l-39 -220h-323l-60 -340h-221l59 340h-319z" />
<glyph unicode="," horiz-adv-x="499" d="M-45 -227l170 227h-125l57 338h285l-49 -375l-281 -289z" />
<glyph unicode="-" horiz-adv-x="765" d="M82 465l41 237h549l-41 -237h-549z" />
<glyph unicode="." horiz-adv-x="497" d="M0 0l59 338h283l-59 -338h-283z" />
<glyph unicode="/" horiz-adv-x="841" d="M-98 -184l856 1802h219l-856 -1802h-219z" />
<glyph unicode="0" horiz-adv-x="1210" d="M96 473q0 54 6.5 125t25 167t46.5 189t76.5 185t109.5 161.5t150.5 112.5t194.5 43q123 0 212 -39.5t138 -110t71.5 -155.5t22.5 -190q0 -54 -6.5 -125t-25 -167.5t-46.5 -189.5t-76 -185.5t-108.5 -162t-149.5 -113t-194 -43.5q-100 0 -177.5 26.5t-127.5 71.5 t-82.5 110t-46 136t-13.5 154zM383 442q0 -51 5.5 -87.5t21 -70.5t48 -51.5t81.5 -17.5q68 0 125.5 67.5t93 164.5t60.5 209.5t35.5 198.5t10.5 134q0 51 -5.5 88t-21 71.5t-48.5 52.5t-82 18q-67 0 -124.5 -67.5t-93 -165t-60.5 -210t-35.5 -199t-10.5 -135.5z" />
<glyph unicode="1" horiz-adv-x="757" d="M113 1217l368 217h277l-252 -1434h-293l201 1128l-203 -114z" />
<glyph unicode="2" horiz-adv-x="1079" d="M-39 0l25 141q11 64 33 123t46.5 105t63.5 94t70 80t81 73t82.5 65t86.5 62q71 49 106.5 74.5t85.5 66t73.5 68t41.5 63t18 68.5q0 52 -34.5 85.5t-100.5 33.5q-128 0 -320 -127l-106 211q54 39 114.5 72.5t163 65.5t201.5 32q183 0 282 -96t99 -246q0 -47 -10.5 -93 t-26 -83.5t-44 -78t-51.5 -69.5t-63.5 -65t-65.5 -57t-70 -52.5t-66 -45.5t-64 -42q-121 -81 -176.5 -141t-68.5 -133h557l-43 -254h-920z" />
<glyph unicode="3" horiz-adv-x="1083" d="M-37 176l158 189q100 -65 176.5 -97t148.5 -32q100 0 163 59t63 149q0 54 -25 93t-68.5 60t-91 30.5t-102.5 9.5h-45l45 254h55q64 0 129.5 21t115.5 69t50 111q0 49 -32 78.5t-93 29.5q-124 0 -307 -113l-96 207q241 162 475 162q175 0 265.5 -85.5t90.5 -217.5 q0 -119 -72 -215.5t-194 -155.5q88 -40 141.5 -127t53.5 -204q0 -67 -17 -132t-56 -127.5t-95.5 -109.5t-142.5 -76t-189 -29q-268 0 -504 199z" />
<glyph unicode="4" horiz-adv-x="1179" d="M-14 276l37 216l684 942h389l-160 -904h176l-45 -254h-176l-49 -276h-291l49 276h-614zM315 530h330l107 603z" />
<glyph unicode="5" horiz-adv-x="1073" d="M-18 180l163 193q30 -25 50 -40.5t60.5 -41t84 -38.5t88.5 -13q99 0 172.5 72t73.5 190q0 83 -42 135.5t-126 52.5q-39 0 -82 -14t-69.5 -28.5t-69.5 -41.5l-154 103l191 725h768l-46 -254h-516l-57 -260q65 18 133 18q122 0 207.5 -57t124.5 -148t39 -207 q0 -85 -22 -165t-66.5 -149.5t-106 -122t-147 -82.5t-184.5 -30q-264 0 -467 203z" />
<glyph unicode="6" horiz-adv-x="1138" d="M76 494q0 150 39 293t113 263.5t174.5 211.5t231 142.5t273.5 51.5q67 0 125 -11t82 -21l25 -11l-115 -223q-50 16 -113 16q-156 0 -284.5 -103.5t-196.5 -279.5q112 103 256 103q163 0 258.5 -114.5t95.5 -285.5q0 -106 -34 -204t-96 -175t-158.5 -123.5t-212.5 -46.5 q-112 0 -202 42.5t-146 115t-85.5 164.5t-29.5 195zM369 479q0 -109 44.5 -180.5t127.5 -71.5q95 0 149.5 85.5t54.5 197.5q0 78 -39.5 132t-117.5 54q-68 0 -128 -44t-89 -97q-2 -25 -2 -76z" />
<glyph unicode="7" horiz-adv-x="923" d="M63 0q27 155 96 330t140 304.5t159.5 263.5t129 187t74.5 95h-515l43 254h846l-43 -236q-11 -13 -30 -36t-75 -98t-109 -152.5t-121 -192t-121.5 -224.5t-100 -242.5t-67.5 -252.5h-306z" />
<glyph unicode="8" horiz-adv-x="1157" d="M31 338q0 287 350 448q-145 119 -145 283q0 170 126 278.5t338 108.5q192 0 295 -89t103 -232q0 -223 -267 -367q45 -29 79.5 -60t66 -73.5t48.5 -97.5t17 -119q0 -196 -150.5 -318.5t-402.5 -122.5q-221 0 -339.5 96.5t-118.5 264.5zM330 373q0 -76 46 -119t128 -43 q103 0 173.5 62t70.5 157q0 129 -158 227q-57 -27 -98.5 -52t-81 -59.5t-60 -78t-20.5 -94.5zM512 1051q0 -98 109 -166q194 86 194 219q0 55 -33.5 91t-95.5 36q-77 0 -125.5 -54t-48.5 -126z" />
<glyph unicode="9" horiz-adv-x="1138" d="M35 20l115 222q49 -15 112 -15q156 0 283 103.5t196 279.5q-106 -102 -254 -102q-163 0 -258.5 114t-95.5 285q0 105 34.5 203.5t97 175.5t159 123.5t211.5 46.5q112 0 202 -42.5t146 -114.5t85.5 -164t29.5 -195q0 -188 -62 -363t-170 -307.5t-264.5 -212.5t-335.5 -80 q-67 0 -124.5 10.5t-81.5 21.5zM428 924q0 -78 40.5 -132.5t119.5 -54.5q66 0 125 44.5t88 97.5q4 25 4 75q0 109 -44.5 180.5t-127.5 71.5q-95 0 -150 -85t-55 -197z" />
<glyph unicode=":" horiz-adv-x="520" d="M10 0l60 338h282l-59 -338h-283zM123 645l59 338h283l-59 -338h-283z" />
<glyph unicode=";" horiz-adv-x="530" d="M-33 -227l170 227h-125l58 338h284l-49 -375l-280 -289zM125 645l59 338h283l-59 -338h-283z" />
<glyph unicode="&#x3c;" horiz-adv-x="1124" d="M100 582l35 202l936 420l-47 -278l-621 -254l529 -256l-43 -254z" />
<glyph unicode="=" horiz-adv-x="1124" d="M88 379l39 223h862l-39 -223h-862zM156 768l39 223h864l-41 -223h-862z" />
<glyph unicode="&#x3e;" horiz-adv-x="1124" d="M78 162l47 278l620 254l-528 256l43 254l789 -420l-35 -202z" />
<glyph unicode="?" horiz-adv-x="942" d="M131 0l53 311h285l-55 -311h-283zM166 1311q216 145 428 145q165 0 264.5 -88.5t99.5 -239.5q0 -82 -32 -154.5t-80.5 -123t-113.5 -92t-124.5 -66t-120.5 -39.5l-47 -190h-174l45 354q170 44 259 107t89 157q0 56 -33.5 88.5t-97.5 32.5q-96 0 -258 -100z" />
<glyph unicode="@" horiz-adv-x="1646" d="M51 338q0 133 28 263.5t81 249t133 220t178.5 176t224.5 116.5t265 42q136 0 243.5 -40.5t177 -109.5t112 -164t56.5 -202t4 -225q-6 -57 -14.5 -113t-26 -130.5t-40 -138.5t-58 -129t-79 -111t-104 -74.5t-130.5 -28.5q-53 0 -92.5 17t-61 42.5t-34.5 60t-16 65t-1 62.5 q-139 -139 -285 -139q-103 0 -163 72.5t-60 189.5q0 158 92 255.5t232 97.5q43 0 90 -8t106.5 -24t61.5 -16q2 13 4.5 27t6 32t5.5 29q14 89 -8 128.5t-94 39.5q-114 0 -285 -77l-53 155q207 90 385 90q160 0 222.5 -84.5t31.5 -259.5l-60 -342q-8 -44 -12.5 -72t-8 -63.5 t-1 -57t9.5 -42t22 -30t38 -9.5q59 0 118 79.5t102 215.5t54 291q4 63 4.5 127t-14 126t-36.5 118.5t-62.5 104.5t-92.5 83t-126.5 55t-164.5 20q-147 0 -276.5 -54.5t-223.5 -148.5t-162 -217t-102 -262t-34 -282q0 -96 18 -183t56.5 -162.5t94.5 -130.5t136 -86.5 t176 -31.5q86 0 167.5 22t119.5 44l39 22l47 -88q-6 -4 -17.5 -11.5t-50 -26t-79.5 -32.5t-103.5 -25.5t-124.5 -11.5q-142 0 -255 56.5t-184.5 153.5t-109 223.5t-37.5 271.5zM600 332q0 -57 27 -87t75 -30q94 0 218 121l30 166q-7 2 -36.5 9t-48 11.5t-45.5 8.5t-48 4 q-85 0 -128.5 -60.5t-43.5 -142.5z" />
<glyph unicode="A" horiz-adv-x="1222" d="M-86 0l686 1434h320l180 -1434h-309l-19 285h-414l-116 -285h-328zM459 526h297l-41 617z" />
<glyph unicode="B" horiz-adv-x="1208" d="M27 0l252 1434h466q207 0 312.5 -83t105.5 -227q0 -78 -28.5 -146t-72.5 -111t-89.5 -69.5t-85.5 -33.5q35 -10 68.5 -29.5t70 -54.5t58.5 -94.5t22 -134.5q0 -215 -132 -333t-372 -118h-575zM360 238h193q128 0 199 64t71 177q0 162 -209 162h-182zM471 862h166 q92 0 160.5 52.5t68.5 150.5q0 131 -178 131h-160z" />
<glyph unicode="C" horiz-adv-x="1134" d="M86 520q0 184 42.5 352t119 298.5t195 208t259.5 77.5q72 0 140 -17t138 -54.5t110 -63t112 -76.5l-160 -215q-98 74 -173 112t-142 38q-101 0 -181.5 -99.5t-120.5 -245t-40 -300.5q0 -283 168 -283q116 0 352 145l117 -239q-157 -86 -285.5 -133.5t-253.5 -47.5 q-191 0 -294 140.5t-103 402.5z" />
<glyph unicode="D" horiz-adv-x="1265" d="M27 0l252 1434h339q155 0 270.5 -39t185.5 -112t104 -171t34 -223q0 -76 -10 -155t-34.5 -168t-62.5 -168.5t-98 -153t-135.5 -127t-181 -85.5t-229.5 -32h-434zM365 260h88q113 0 203.5 52t146.5 139t85.5 195.5t29.5 227.5q0 158 -79.5 229t-238.5 71h-74z" />
<glyph unicode="E" horiz-adv-x="1073" d="M27 0l252 1434h851l-47 -260h-557l-59 -330h457l-45 -254h-457l-57 -330h567l-45 -260h-860z" />
<glyph unicode="F" horiz-adv-x="1026" d="M27 0l252 1434h851l-47 -260h-557l-59 -330h440l-45 -256h-440l-103 -588h-292z" />
<glyph unicode="G" horiz-adv-x="1234" d="M86 508q0 195 43.5 367.5t122.5 301.5t198 204t261 75q75 0 147.5 -18t144 -56t117 -67t115.5 -78l-158 -213q-8 5 -45 29t-50.5 32.5t-46 28t-52 27.5t-47.5 19t-52.5 15.5t-48.5 4.5q-79 0 -146 -57.5t-110.5 -150.5t-67.5 -209t-24 -235q0 -290 166 -290 q66 0 140 47.5t134 107.5l33 187h-258l41 241h533l-146 -821h-272l24 143q-79 -79 -158.5 -122.5t-172.5 -43.5q-166 0 -265.5 136t-99.5 395z" />
<glyph unicode="H" horiz-adv-x="1269" d="M27 0l252 1434h292l-98 -555h416l98 555h293l-254 -1434h-291l109 625h-416l-109 -625h-292z" />
<glyph unicode="I" horiz-adv-x="561" d="M27 0l252 1434h292l-252 -1434h-292z" />
<glyph unicode="J" horiz-adv-x="563" d="M-193 -125q52 18 86 33t60 32.5t40 31t25 38t16.5 45t12.5 58.5l232 1321h292l-229 -1305q-29 -162 -53 -220q-39 -98 -137 -158q-92 -56 -281 -109z" />
<glyph unicode="K" horiz-adv-x="1214" d="M27 0l252 1434h292l-104 -588l494 588h376l-600 -664l365 -770h-326l-237 547l-154 -168l-66 -379h-292z" />
<glyph unicode="L" horiz-adv-x="995" d="M27 0l252 1434h292l-206 -1178h540l-43 -256h-835z" />
<glyph unicode="M" horiz-adv-x="1480" d="M27 0l252 1434h299l157 -818l457 818h299l-252 -1434h-293l154 874l-355 -634h-137l-129 673l-160 -913h-292z" />
<glyph unicode="N" horiz-adv-x="1296" d="M27 0l252 1434h294l275 -947l166 947h293l-254 -1434h-293l-277 944l-164 -944h-292z" />
<glyph unicode="O" horiz-adv-x="1335" d="M86 532q0 75 10.5 157.5t35 173.5t60.5 175t90.5 160.5t121.5 133.5t157.5 90.5t194.5 33.5q251 0 388.5 -139.5t137.5 -411.5q0 -76 -10.5 -158.5t-35 -174t-60 -176t-90 -161.5t-121 -134t-157 -90.5t-194.5 -33.5q-251 0 -389.5 141t-138.5 414zM385 535 q0 -297 238 -297q78 0 142.5 54t104 133.5t66.5 174t38 170.5t11 129q0 297 -237 297q-78 0 -143 -54t-104.5 -133.5t-67 -174t-38 -170.5t-10.5 -129z" />
<glyph unicode="P" horiz-adv-x="1181" d="M27 0l252 1434h434q479 0 479 -387q0 -113 -36.5 -210t-107.5 -171t-184 -116t-256 -42h-200l-89 -508h-292zM453 760h151q133 0 210 70t77 192q0 158 -197 158h-168z" />
<glyph unicode="Q" horiz-adv-x="1335" d="M86 532q0 75 10.5 157.5t35 173.5t60.5 175t90.5 160.5t121.5 133.5t157.5 90.5t194.5 33.5q251 0 388.5 -139.5t137.5 -411.5q0 -110 -23 -230.5t-69.5 -244.5t-130 -230t-191.5 -163l168 -195l-219 -180l-223 315q-241 6 -374.5 146t-133.5 409zM385 535 q0 -297 238 -297q78 0 142.5 54t104 133.5t66.5 174t38 170.5t11 129q0 297 -237 297q-78 0 -143 -54t-104.5 -133.5t-67 -174t-38 -170.5t-10.5 -129z" />
<glyph unicode="R" horiz-adv-x="1230" d="M27 0l252 1434h481q473 0 473 -363q0 -79 -21.5 -154t-65.5 -144t-120.5 -122t-175.5 -78l201 -573h-306l-172 555h-157l-97 -555h-292zM459 797h192q137 0 210 67.5t73 179.5q0 80 -53.5 114t-151.5 34h-201z" />
<glyph unicode="S" horiz-adv-x="1120" d="M-16 180l163 209q92 -63 195.5 -109.5t185.5 -46.5q77 0 129 42.5t52 113.5q0 28 -11 52.5t-26.5 42t-46 38.5t-54 34t-67.5 36.5t-70 38.5q-136 84 -208 176t-72 225q0 88 32 164.5t91 134.5t149.5 91.5t200.5 33.5q252 0 516 -164l-166 -211q-75 48 -170 83.5 t-166 35.5q-72 0 -122 -38.5t-50 -110.5q0 -26 9.5 -48t22 -37.5t41.5 -35t50 -31t66 -35.5t73 -39q64 -39 109 -74t91 -85.5t69.5 -114t23.5 -139.5q0 -89 -34 -168t-96 -138.5t-156 -94t-206 -34.5q-153 0 -295 58.5t-253 144.5z" />
<glyph unicode="T" horiz-adv-x="1021" d="M129 1174l45 260h963l-47 -260h-332l-207 -1174h-293l207 1174h-336z" />
<glyph unicode="U" horiz-adv-x="1251" d="M92 376q1 82 19 187l153 871h293l-164 -922q-11 -50 -11 -94q0 -6 1 -12q2 -50 15.5 -86.5t52.5 -58t102 -21.5q122 0 181.5 71.5t82.5 200.5l164 922h291l-162 -920q-14 -79 -33.5 -143.5t-49.5 -127.5t-73 -109.5t-100.5 -83t-136 -55t-174.5 -18.5q-127 0 -217 30.5 t-140 81.5t-72 128q-22 74 -22 152v7z" />
<glyph unicode="V" horiz-adv-x="1218" d="M158 1434h319l74 -1074l448 1074h344l-684 -1434h-321z" />
<glyph unicode="W" horiz-adv-x="1667" d="M174 1434h322l-7 -957l359 957h235l23 -957l330 957h338l-578 -1434h-281l-28 958l-361 -958h-280z" />
<glyph unicode="X" horiz-adv-x="1146" d="M-96 0l514 723l-244 711h322l122 -500l295 500h351l-494 -709l262 -725h-323l-138 494l-305 -494h-362z" />
<glyph unicode="Y" horiz-adv-x="1142" d="M147 1434h312l137 -590l340 590h338l-567 -861l-101 -573h-291l99 569z" />
<glyph unicode="Z" horiz-adv-x="1097" d="M-49 0l41 233l743 941h-540l45 260h923l-41 -232l-745 -942h590l-45 -260h-971z" />
<glyph unicode="[" horiz-adv-x="659" d="M-33 -293l357 2011h487l-31 -176h-196l-293 -1661h196l-32 -174h-488z" />
<glyph unicode="\" horiz-adv-x="815" d="M209 1618h197l233 -1802h-197z" />
<glyph unicode="]" horiz-adv-x="659" d="M-117 -293l31 176h197l292 1661h-196l33 174h487l-356 -2011h-488z" />
<glyph unicode="^" horiz-adv-x="1126" d="M121 670l444 764h289l176 -764h-282l-74 481l-240 -481h-313z" />
<glyph unicode="_" horiz-adv-x="1224" d="M-66 -358l37 211h1012l-37 -211h-1012z" />
<glyph unicode="`" horiz-adv-x="419" d="M225 1493h295l162 -283h-215z" />
<glyph unicode="a" horiz-adv-x="1099" d="M47 340q0 144 31 279t87 242t143.5 172t191.5 65q86 0 148 -40.5t120 -107.5l23 125h280l-188 -1075h-281l23 133q-164 -156 -318 -156q-119 0 -189.5 94.5t-70.5 268.5zM334 385q0 -79 26 -124.5t76 -45.5q57 0 112.5 39t117.5 111l63 360q-73 135 -170 135 q-51 0 -95 -46t-71.5 -117.5t-43 -153.5t-15.5 -158z" />
<glyph unicode="b" horiz-adv-x="1091" d="M2 0l262 1493h281l-94 -535q161 140 301 140q123 0 197.5 -94.5t74.5 -268.5q0 -110 -18.5 -218t-56.5 -205.5t-90.5 -172t-126 -118.5t-157.5 -44q-88 0 -150.5 39t-121.5 105l-20 -121h-281zM342 344q33 -60 77.5 -94.5t94.5 -34.5q66 0 118 77t77.5 183.5t25.5 212.5 q0 79 -28 125.5t-84 46.5q-94 0 -213 -133z" />
<glyph unicode="c" horiz-adv-x="905" d="M43 397q0 136 27.5 252t74 197t107.5 139t128.5 85.5t137.5 27.5q38 0 74 -5t71 -16t61 -20t60 -27.5t50 -27t49.5 -29.5t40.5 -25l-136 -203q-5 3 -33 22t-44 28.5t-42.5 23.5t-50.5 20.5t-47 6.5q-67 0 -123.5 -60t-87 -156t-30.5 -202q0 -93 33 -146t98 -53q20 0 44 6 t54 19.5t49.5 23t53 27.5t43.5 23l86 -226q-51 -25 -84.5 -40t-92.5 -38t-115.5 -35t-107.5 -12q-156 0 -252 107.5t-96 312.5z" />
<glyph unicode="d" horiz-adv-x="1099" d="M47 340q0 144 31 279t87 242t143.5 172t191.5 65q46 0 86.5 -12.5t75 -37.5t56.5 -46t50 -52l96 543h281l-262 -1493h-281l23 133q-164 -156 -318 -156q-119 0 -189.5 94.5t-70.5 268.5zM334 385q0 -79 26 -124.5t76 -45.5q57 0 112.5 39t117.5 111l63 360 q-73 135 -170 135q-51 0 -95 -46t-71.5 -117.5t-43 -153.5t-15.5 -158z" />
<glyph unicode="e" horiz-adv-x="989" d="M43 414q0 197 65.5 351t192.5 243.5t297 89.5q161 0 255.5 -80.5t94.5 -214.5q0 -365 -538 -365h-84v-28q0 -213 137 -213q16 0 35.5 3.5t35.5 7t40.5 13.5t38 15t43 19.5t40 20t44 22.5t40.5 21l84 -200q-80 -47 -209.5 -94.5t-255.5 -47.5q-167 0 -261.5 107.5 t-94.5 329.5zM346 598h72q128 0 198 50.5t70 135.5q0 47 -28.5 75t-75.5 28q-87 0 -147 -81.5t-89 -207.5z" />
<glyph unicode="f" horiz-adv-x="688" d="M-180 -242q41 15 69 27t52.5 27t39.5 25t28.5 30t20 33t14.5 42.5t12 50.5t12 64l139 801h-115l39 217h115l10 55q32 187 103.5 275t205.5 88q150 0 330 -102l-131 -191q-85 39 -143 39q-63 0 -82 -98l-13 -66h215l-41 -217h-211l-137 -778q-12 -70 -18.5 -102.5t-18 -85 t-23 -75.5l-30 -60t-41.5 -55t-55 -44t-74 -43t-94.5 -36t-120.5 -38z" />
<glyph unicode="g" horiz-adv-x="1099" d="M-53 -352l96 227q203 -80 348 -80q52 0 90.5 15t61 43.5t35.5 60t20 72.5l25 145q-162 -154 -316 -154q-119 0 -189.5 94.5t-70.5 268.5q0 143 31.5 278.5t87.5 242.5t143.5 172t190.5 65q85 0 147.5 -40.5t118.5 -105.5l22 123h281l-188 -1079q-23 -129 -61 -214 t-97 -133t-131 -67.5t-174 -19.5q-230 0 -471 86zM334 385q0 -79 26 -124.5t76 -45.5q56 0 111 38.5t117 108.5l63 367q-72 131 -168 131q-51 0 -95 -46t-71.5 -117.5t-43 -153.5t-15.5 -158z" />
<glyph unicode="h" d="M2 0l262 1493h281l-96 -541q193 146 339 146q136 0 194 -92q37 -60 37 -152q0 -50 -11 -109l-131 -745h-283l123 700q8 53 8 87q1 35 -17 57q-18 24 -57 24q-55 0 -121 -41t-118 -94l-129 -733h-281z" />
<glyph unicode="i" horiz-adv-x="499" d="M0 0l190 1075h281l-190 -1075h-281zM211 1231l45 256h295l-45 -256h-295z" />
<glyph unicode="j" horiz-adv-x="499" d="M-238 -238q80 30 121 50.5t67 50t34 56.5t18 85l188 1071h281l-184 -1048q-30 -165 -54 -225q-42 -103 -143 -163q-92 -55 -272 -100zM211 1231l45 256h295l-45 -256h-295z" />
<glyph unicode="k" horiz-adv-x="1001" d="M2 0l262 1493h281l-144 -813l304 395h335l-389 -438l248 -637h-287l-149 424l-131 -148l-49 -276h-281z" />
<glyph unicode="l" horiz-adv-x="507" d="M6 0l262 1493h281l-262 -1493h-281z" />
<glyph unicode="m" horiz-adv-x="1597" d="M2 0l188 1075h281l-25 -135q158 158 308 158q98 0 152 -50.5t65 -138.5q67 75 155.5 132t180.5 57q136 0 188 -93q34 -61 35 -151q0 -46 -10 -100l-134 -754h-280l125 711q9 36 9 66q0 25 -6 45q-14 46 -67 46q-49 0 -104 -41.5t-102 -99.5l-127 -727h-281l127 711 q6 45 6 80t-18 56t-54 21q-84 0 -204 -137l-127 -731h-281z" />
<glyph unicode="n" d="M2 0l188 1075h281l-22 -125q190 148 339 148q137 0 194 -92q37 -60 37 -151q0 -50 -11 -110l-131 -745h-281l123 700q7 39 7 70q0 98 -75 98q-55 0 -121 -41t-118 -94l-129 -733h-281z" />
<glyph unicode="o" horiz-adv-x="1083" d="M47 410q0 94 17.5 187.5t58.5 184.5t100 160.5t149.5 112.5t200.5 43q90 0 166.5 -24.5t138 -74.5t97 -135t35.5 -198q0 -94 -17.5 -187.5t-58.5 -185t-100.5 -161t-150 -112.5t-200.5 -43q-90 0 -166 24.5t-138 74.5t-97 135.5t-35 198.5zM328 401q0 -97 36.5 -146.5 t120.5 -49.5q61 0 110.5 50.5t77 126.5t42 152t14.5 138q0 99 -37 148.5t-121 49.5q-61 0 -110.5 -50.5t-77 -127t-41.5 -152.5t-14 -139z" />
<glyph unicode="p" horiz-adv-x="1093" d="M-72 -418l262 1493h281l-20 -119q158 142 301 142q125 0 198.5 -94t73.5 -269q0 -110 -18.5 -218t-56 -205.5t-89.5 -172t-125 -118.5t-157 -44q-89 0 -152.5 39t-122.5 105l-94 -539h-281zM342 346q76 -131 174 -131q67 0 118.5 77t76 183t24.5 213q0 79 -28 125.5 t-84 46.5q-97 0 -213 -137z" />
<glyph unicode="q" horiz-adv-x="1099" d="M47 340q0 144 31 279t87 242t143.5 172t191.5 65q86 0 148 -40.5t120 -107.5l23 125h280l-264 -1493h-279l97 551q-164 -156 -318 -156q-119 0 -189.5 94.5t-70.5 268.5zM334 385q0 -79 26 -124.5t76 -45.5q57 0 112.5 39t117.5 111l63 360q-73 135 -170 135 q-51 0 -95 -46t-71.5 -117.5t-43 -153.5t-15.5 -158z" />
<glyph unicode="r" horiz-adv-x="743" d="M2 0l188 1075h281l-39 -225q14 26 29 48.5t50.5 62.5t72.5 67q38 28 95 46q45 15 92 14q13 0 26 -1l-49 -276q-59 0 -112.5 -20.5t-91.5 -53t-70 -72t-52.5 -79.5t-35 -72.5t-20.5 -53.5l-6 -20l-77 -440h-281z" />
<glyph unicode="s" horiz-adv-x="940" d="M-29 133l135 195q75 -48 167 -85.5t157 -37.5q53 0 86 26t33 68q0 18 -8 33.5t-17.5 26t-32 22.5t-37.5 19t-48 20.5t-50 21.5q-44 20 -77 38t-69.5 47t-60.5 60.5t-39.5 76.5t-15.5 98q0 148 105 242t286 94q114 0 225.5 -37.5t196.5 -89.5l-133 -193q-64 38 -141.5 66 t-136.5 28q-52 0 -83.5 -24t-31.5 -64q0 -18 7.5 -34t17 -26t31 -22t35.5 -18t46 -19t47 -20q58 -25 101 -51t85 -64.5t64.5 -92t22.5 -118.5q0 -152 -109.5 -247t-296.5 -95q-128 0 -249 46t-212 110z" />
<glyph unicode="t" horiz-adv-x="741" d="M86 858l39 217h119l47 260l289 51l-56 -311h236l-39 -217h-236l-90 -520q-4 -24 -4 -43q0 -62 49 -62q12 0 25.5 3t31 9t27.5 10.5t30.5 13.5t23.5 10l61 -228q-186 -74 -307 -74q-136 1 -191 97q-34 60 -34 157q0 59 12 131l88 496h-121z" />
<glyph unicode="u" d="M53 330l131 745h281l-125 -700q-7 -39 -7 -69q0 -99 77 -99q54 0 121 40t118 91l129 737h281l-189 -1075h-280l20 123q-195 -146 -338 -146q-138 -1 -194 91q-36 59 -36 151q0 51 11 111z" />
<glyph unicode="v" horiz-adv-x="1013" d="M102 1075h289l51 -747l314 747h311l-535 -1075h-276z" />
<glyph unicode="w" horiz-adv-x="1447" d="M113 1075h293l2 -706l284 706h213l33 -706l250 706h303l-459 -1075h-258l-41 674l-280 -674h-260z" />
<glyph unicode="x" horiz-adv-x="1042" d="M-100 0l438 539l-229 536h297l116 -358l244 358h334l-420 -536l248 -539h-303l-123 369l-252 -369h-350z" />
<glyph unicode="y" horiz-adv-x="1011" d="M-25 -231q107 43 169 81.5t112 102.5l-154 1122h289l58 -727l311 727h305l-522 -1075q-24 -48 -34.5 -69.5t-33.5 -63.5t-38 -62.5t-41.5 -55t-49.5 -53.5t-57.5 -45.5t-70.5 -43.5t-82 -35t-99 -31z" />
<glyph unicode="z" horiz-adv-x="970" d="M-49 0l37 205l579 626h-452l45 244h825l-37 -205l-581 -626h471l-43 -244h-844z" />
<glyph unicode="{" horiz-adv-x="704" d="M37 621l33 184q181 0 198 231l15 203q18 247 139.5 363t345.5 116h80l-29 -170h-35q-187 0 -202 -272l-15 -184q-13 -188 -88.5 -273t-222.5 -110q62 -15 103 -43t66.5 -76t25 -116t-22.5 -163l-33 -125q-16 -61 -22 -109t-1.5 -97t35.5 -76t87 -27h28l-28 -170h-31 q-98 0 -177 31t-133 93t-68.5 156t17.5 220l52 182q34 113 7.5 172.5t-124.5 59.5z" />
<glyph unicode="|" horiz-adv-x="460" d="M-25 -252l340 1927h205l-340 -1927h-205z" />
<glyph unicode="}" horiz-adv-x="702" d="M-109 -293l29 170h35q188 0 203 273l14 184q13 188 88.5 273t222.5 110q-127 31 -172 123.5t0 273.5l33 125q13 48 19.5 87t7 82t-10.5 72.5t-39.5 48.5t-74.5 19h-29l29 170h30q132 0 227 -54.5t137 -165.5t-3 -279l-51 -183q-34 -112 -8 -171.5t124 -59.5l-32 -184 q-181 0 -199 -232l-14 -203q-18 -246 -140 -362.5t-346 -116.5h-80z" />
<glyph unicode="~" horiz-adv-x="1124" d="M27 446q76 152 158 231t186 79q47 0 92.5 -16t81.5 -38.5t70 -45t70.5 -38.5t70.5 -16q40 0 76.5 28.5t89.5 114.5l157 -75q-78 -154 -160 -232t-186 -78q-47 0 -92.5 16t-81.5 38.5t-70 45t-71 38.5t-72 16q-38 0 -73.5 -28.5t-88.5 -114.5z" />
<glyph unicode="&#xa1;" horiz-adv-x="548" d="M-4 0l258 971h168l-84 -971h-342zM221 1122l55 312h285l-55 -312h-285z" />
<glyph unicode="&#xa2;" horiz-adv-x="991" d="M96 578q0 136 27.5 252t74 197t107.5 138.5t128.5 85t137.5 27.5h9l28 156h203l-35 -199q40 -16 76 -35t87 -51t56 -35l-135 -199q-2 1 -47.5 31t-65 40.5t-56.5 25t-64 14.5q-68 0 -125 -60t-88 -155.5t-31 -202.5q0 -94 33 -146t100 -52q21 0 47 6.5t57.5 19.5t52.5 23 t57 28l46 23l86 -221l-40 -19q-41 -20 -56 -26.5t-50.5 -21.5t-65.5 -25.5t-60 -18.5l-31 -178h-203l29 162q-133 19 -211 125.5t-78 290.5z" />
<glyph unicode="&#xa3;" horiz-adv-x="1015" d="M-14 0l34 207q8 4 22 12t51.5 36t68.5 60t63.5 85t46.5 110h-178l31 178h151q-3 20 -35 146t-32 210q0 190 103.5 301t287.5 111q75 0 145 -18t130.5 -51t99 -59.5t84.5 -63.5l-152 -181q-153 119 -254 119q-72 0 -114.5 -51t-42.5 -129q0 -57 31 -163.5t36 -170.5h264 l-30 -178h-250q-24 -86 -68.5 -154t-85.5 -102h467l-45 -254h-829z" />
<glyph unicode="&#xa5;" horiz-adv-x="1226" d="M115 297l30 174h295l19 98l-6 17h-287l31 174h202l-206 674h311l137 -590l340 590h338l-445 -674h201l-31 -174h-284l-8 -13l-19 -102h291l-33 -174h-289l-51 -297h-291l52 297h-297z" />
<glyph unicode="&#xa6;" horiz-adv-x="464" d="M-25 -252l150 846h205l-150 -846h-205zM168 829l147 846h205l-149 -846h-203z" />
<glyph unicode="&#xa7;" horiz-adv-x="1024" d="M16 -20l134 192q66 -38 143.5 -66t134.5 -28q52 0 83.5 24t31.5 64q0 18 -8 34t-17.5 26t-32 22t-36.5 18t-47.5 19t-49.5 20q-56 23 -98.5 48.5t-83 63t-62.5 89.5t-22 115q0 98 54.5 172t154.5 112q-88 81 -88 211q0 148 106 244t287 96q114 0 225.5 -37.5t196.5 -89.5 l-135 -192q-61 37 -140 65.5t-137 28.5q-52 0 -83 -24t-31 -64q0 -18 8 -34t17 -26t32 -22t36.5 -18t47.5 -19.5t49 -19.5q56 -23 98.5 -48.5t83 -63t62.5 -89.5t22 -115q0 -100 -54.5 -175t-154.5 -112q86 -83 86 -208q0 -149 -105.5 -244.5t-285.5 -95.5 q-114 0 -225.5 37.5t-196.5 89.5zM358 672q0 -17 4 -31.5t16.5 -27.5t21.5 -21t32 -20t34.5 -17.5t43.5 -19t45 -19.5q60 12 91.5 44.5t31.5 76.5q0 21 -8.5 38.5t-19 29.5t-37 27t-45 23t-59.5 26q-18 8 -28 12q-59 -12 -91 -44.5t-32 -76.5z" />
<glyph unicode="&#xa8;" horiz-adv-x="436" d="M162 1231l43 242h219l-41 -242h-221zM483 1231l43 242h219l-43 -242h-219z" />
<glyph unicode="&#xa9;" horiz-adv-x="1622" d="M98 641q0 131 32.5 251.5t98.5 223t158.5 178.5t219 119t274.5 43q206 0 360 -84.5t234.5 -234.5t80.5 -344q0 -131 -32.5 -251.5t-98.5 -223.5t-158 -179t-219.5 -119t-275.5 -43q-309 0 -491.5 184t-182.5 480zM178 643q0 -171 70 -303.5t208 -209.5t324 -77 q161 0 294.5 59t221 160t135.5 234.5t48 284.5q0 261 -162 425t-443 164q-129 0 -240.5 -38t-194 -106t-142 -160t-89.5 -202.5t-30 -230.5zM449 618q-5 127 26.5 231t89.5 171.5t134.5 104t162.5 36.5q54 0 104.5 -12.5t94.5 -37t69.5 -42.5t59.5 -45l-60 -63 q-31 25 -48.5 37.5t-54.5 35t-78.5 33t-86.5 10.5q-138 0 -230 -129t-85 -323q5 -125 57 -197t141 -72q147 0 310 113l49 -72q-53 -35 -95 -58t-115 -46t-144 -23q-126 0 -210.5 91.5t-90.5 256.5z" />
<glyph unicode="&#xaa;" horiz-adv-x="770" d="M152 999q0 113 32.5 214t98.5 168t151 67q38 0 72.5 -14.5t51.5 -28t44 -39.5l12 68h193l-115 -646h-190l12 72q-107 -86 -195 -86q-76 0 -121.5 59t-45.5 166zM346 1026q0 -42 16 -66t46 -24q63 0 133 80l34 198q-40 72 -96 72q-40 0 -72 -43.5t-46.5 -102t-14.5 -114.5 z" />
<glyph unicode="&#xab;" horiz-adv-x="1173" d="M29 467l32 178l584 434l-57 -313l-328 -227l250 -228l-49 -280zM543 467l32 178l584 434l-57 -313l-328 -227l250 -228l-49 -280z" />
<glyph unicode="&#xac;" horiz-adv-x="1124" d="M49 571l39 224h989l-108 -611h-232l68 387h-756z" />
<glyph unicode="&#xad;" horiz-adv-x="765" d="M82 465l41 237h549l-41 -237h-549z" />
<glyph unicode="&#xae;" horiz-adv-x="884" d="M150 1069q0 110 43.5 200.5t134.5 148t213 57.5q154 0 245 -92t91 -240q0 -170 -105.5 -288t-286.5 -118q-153 0 -244 92t-91 240zM217 1071q0 -118 73 -192t199 -74q148 0 235 96t87 240q0 118 -74.5 193t-201.5 75q-146 0 -232 -97.5t-86 -240.5zM346 926l66 370h163 q51 0 82 -27.5t31 -68.5q0 -48 -31.5 -77.5t-83.5 -37.5l60 -159h-68l-57 157h-68l-28 -157h-66zM451 1143h92q40 0 60 15.5t20 41.5q0 37 -52 37h-104z" />
<glyph unicode="&#xaf;" horiz-adv-x="530" d="M229 1262l31 174h522l-30 -174h-523z" />
<glyph unicode="&#xb0;" horiz-adv-x="792" d="M143 1106q0 136 96.5 233t233.5 97t233.5 -97t96.5 -233q0 -137 -97 -234.5t-233 -97.5t-233 97.5t-97 234.5zM313 1106q0 -66 47 -113t113 -47q64 0 111 47.5t47 112.5q0 66 -46.5 113t-111.5 47q-66 0 -113 -47t-47 -113z" />
<glyph unicode="&#xb1;" horiz-adv-x="1124" d="M23 0l32 193h865l-33 -193h-864zM129 604l39 223h319l50 277h223l-49 -277h321l-39 -223h-321l-47 -278h-226l50 278h-320z" />
<glyph unicode="&#xb2;" horiz-adv-x="708" d="M82 788l14 91q10 53 32.5 101t47 81t66 69.5t69 56.5t74.5 52q126 83 157 112q44 41 44 76q0 29 -19.5 45.5t-58.5 16.5q-77 0 -201 -76l-76 141q162 109 312 109q119 0 182 -61t63 -154q0 -36 -10.5 -70.5t-25.5 -61t-41.5 -55.5t-47.5 -48t-55 -43t-52.5 -36t-51.5 -32 q-75 -46 -108 -76.5t-40 -64.5h344l-28 -173h-590z" />
<glyph unicode="&#xb3;" horiz-adv-x="708" d="M82 901l106 129q64 -43 111.5 -62.5t95.5 -19.5q59 0 94 30t35 77q0 102 -178 102h-29l31 172h35q66 0 123 26.5t57 74.5q0 27 -19 43t-52 16q-84 0 -197 -68l-66 140q155 102 308 102q113 0 171 -53t58 -135q0 -72 -44.5 -128t-117.5 -90q54 -26 87.5 -77.5t33.5 -118.5 q0 -51 -18 -99.5t-53.5 -91.5t-98 -69.5t-143.5 -26.5q-59 0 -114 13.5t-100.5 38.5t-66 39t-49.5 36z" />
<glyph unicode="&#xb4;" horiz-adv-x="421" d="M162 1210l256 283h325l-337 -283h-244z" />
<glyph unicode="&#xb5;" horiz-adv-x="1138" d="M-55 -418l266 1493h281l-125 -700q-30 -168 69 -168q54 0 121.5 40t118.5 91l129 737h280l-188 -1075h-281l21 123q-195 -146 -338 -146h-4l-70 -395h-280z" />
<glyph unicode="&#xb6;" horiz-adv-x="1273" d="M104 850q0 251 155 417.5t403 166.5h243l-319 -1813h-234l146 834q-177 0 -285.5 101t-108.5 294zM713 -379l321 1813h232l-320 -1813h-233z" />
<glyph unicode="&#xb7;" horiz-adv-x="499" d="M72 416l59 338h283l-60 -338h-282z" />
<glyph unicode="&#xb8;" horiz-adv-x="311" d="M-78 -330l82 146q39 -25 76 -25q38 0 63 23t25 77q0 24 -6 52t-12 45l-7 16h121q39 -68 39 -156q0 -107 -64 -165t-159 -58q-97 0 -158 45z" />
<glyph unicode="&#xb9;" horiz-adv-x="575" d="M168 1513l235 136h189l-152 -861h-198l118 656l-124 -68z" />
<glyph unicode="&#xba;" horiz-adv-x="741" d="M150 1040q0 55 10.5 110t36 109.5t62.5 96t94.5 67t127.5 25.5q123 0 203 -66t80 -200q0 -55 -11 -110t-36.5 -109.5t-63 -96t-95.5 -67t-128 -25.5q-122 0 -201 66t-79 200zM338 1036q0 -54 21.5 -81t70.5 -27q37 0 66 28.5t45 71t24 84t8 74.5q0 54 -21.5 81t-70.5 27 q-36 0 -65 -28.5t-45 -71t-24.5 -84t-8.5 -74.5z" />
<glyph unicode="&#xbb;" horiz-adv-x="1175" d="M-4 31l57 313l328 227l-250 228l49 280l432 -436l-32 -178zM510 31l57 313l328 227l-250 228l49 280l432 -436l-32 -178z" />
<glyph unicode="&#xbc;" horiz-adv-x="1552" d="M162 1298l235 136h189l-152 -861h-198l118 656l-125 -68zM221 0l795 1434h211l-797 -1434h-209zM711 158l24 145l420 557h264l-94 -530h111l-31 -172h-111l-26 -158h-199l27 158h-385zM936 330h190l60 336z" />
<glyph unicode="&#xbd;" horiz-adv-x="1585" d="M162 1298l235 136h189l-152 -861h-198l118 656l-125 -68zM221 0l795 1434h211l-797 -1434h-209zM801 0l14 90q12 66 40 120.5t74 100.5t81 73t94 67q126 83 157 112q44 41 44 76q0 61 -78 61q-79 0 -201 -75l-76 141q161 108 312 108q119 0 182 -61t63 -154 q0 -36 -10.5 -70.5t-25.5 -61t-41.5 -55.5t-47.5 -48t-55 -43t-52.5 -36t-51.5 -32q-75 -46 -108 -76.5t-40 -64.5h344l-28 -172h-590z" />
<glyph unicode="&#xbe;" horiz-adv-x="1714" d="M72 686l106 129q64 -43 111.5 -62.5t95.5 -19.5q59 0 94 30t35 77q0 102 -178 102h-29l31 172h35q67 0 123.5 26t56.5 74q0 27 -19.5 43.5t-52.5 16.5q-83 0 -196 -68l-66 140q155 102 307 102q113 0 171.5 -53t58.5 -135q0 -72 -44.5 -128t-117.5 -90q54 -26 87.5 -77.5 t33.5 -118.5q0 -51 -18 -100t-54 -91.5t-98.5 -69t-143.5 -26.5q-59 0 -114 13.5t-100.5 38.5t-65.5 38.5t-49 36.5zM387 0l795 1434h211l-797 -1434h-209zM879 158l24 145l420 557h264l-94 -530h111l-31 -172h-111l-26 -158h-199l27 158h-385zM1104 330h190l60 336z" />
<glyph unicode="&#xbf;" horiz-adv-x="937" d="M16 305q0 82 32 154.5t80.5 123t113.5 92t124.5 66t120.5 39.5l48 191h174l-45 -355q-170 -44 -259.5 -107t-89.5 -157q0 -56 33.5 -88.5t97.5 -32.5q96 0 259 101l104 -209q-218 -146 -428 -146q-165 0 -265 88.5t-100 239.5zM506 1122l55 312h283l-53 -312h-285z" />
<glyph unicode="&#xc0;" horiz-adv-x="1222" d="M-86 0l686 1434h320l180 -1434h-309l-19 285h-414l-116 -285h-328zM459 526h297l-41 617zM498 1802h295l161 -282h-215z" />
<glyph unicode="&#xc1;" horiz-adv-x="1222" d="M-86 0l686 1434h320l180 -1434h-309l-19 285h-414l-116 -285h-328zM459 526h297l-41 617zM598 1520l256 282h326l-338 -282h-244z" />
<glyph unicode="&#xc2;" horiz-adv-x="1222" d="M-86 0l686 1434h320l180 -1434h-309l-19 285h-414l-116 -285h-328zM459 526h297l-41 617zM465 1520l229 282h264l127 -282h-176l-96 153l-145 -153h-203z" />
<glyph unicode="&#xc3;" horiz-adv-x="1222" d="M-86 0l686 1434h320l180 -1434h-309l-19 285h-414l-116 -285h-328zM459 526h297l-41 617zM473 1612q31 51 49.5 76.5t47 57t59 45t67.5 13.5q38 0 80.5 -24.5t77.5 -49t57 -24.5q42 0 105 96l112 -80q-26 -41 -40.5 -63t-38 -51.5t-43 -44t-46.5 -25t-57 -10.5 q-38 0 -80 24.5t-76.5 49t-56.5 24.5q-43 0 -106 -96z" />
<glyph unicode="&#xc4;" horiz-adv-x="1222" d="M-86 0l686 1434h320l180 -1434h-309l-19 285h-414l-116 -285h-328zM459 526h297l-41 617zM508 1540l43 242h219l-41 -242h-221zM829 1540l43 242h220l-43 -242h-220z" />
<glyph unicode="&#xc5;" horiz-adv-x="1224" d="M-88 0l686 1434h320l180 -1434h-310l-18 285h-414l-116 -285h-328zM457 526h297l-41 617zM594 1714q0 89 63 152t152 63t152 -63t63 -152t-63 -152t-152 -63t-152 63t-63 152zM727 1714q0 -34 24 -57t58 -23t58 23t24 57t-24 58t-58 24t-58 -24t-24 -58z" />
<glyph unicode="&#xc6;" horiz-adv-x="1824" d="M-152 0l1039 1434h995l-47 -260h-557l-59 -330h456l-45 -254h-456l-58 -330h567l-45 -260h-860l49 285h-411l-197 -285h-371zM586 532h284l99 553z" />
<glyph unicode="&#xc7;" horiz-adv-x="1134" d="M86 520q0 184 42.5 352t119 298.5t195 208t259.5 77.5q72 0 140 -17t138 -54.5t110 -63t112 -76.5l-160 -215q-98 74 -173 112t-142 38q-101 0 -181.5 -99.5t-120.5 -245t-40 -300.5q0 -283 168 -283q116 0 352 145l117 -239q-134 -74 -247 -119t-222 -57q29 -60 29 -134 q0 -107 -64.5 -165t-159.5 -58q-96 0 -157 45l82 146q39 -25 75 -25q38 0 63 23t25 77q0 45 -16 91q-166 19 -255 156.5t-89 381.5z" />
<glyph unicode="&#xc8;" horiz-adv-x="1073" d="M27 0l252 1434h851l-47 -260h-557l-59 -330h457l-45 -254h-457l-57 -330h567l-45 -260h-860zM449 1802h294l162 -282h-215z" />
<glyph unicode="&#xc9;" horiz-adv-x="1073" d="M27 0l252 1434h851l-47 -260h-557l-59 -330h457l-45 -254h-457l-57 -330h567l-45 -260h-860zM535 1520l256 282h325l-338 -282h-243z" />
<glyph unicode="&#xca;" horiz-adv-x="1073" d="M27 0l252 1434h851l-47 -260h-557l-59 -330h457l-45 -254h-457l-57 -330h567l-45 -260h-860zM414 1520l229 282h264l127 -282h-176l-96 153l-146 -153h-202z" />
<glyph unicode="&#xcb;" horiz-adv-x="1073" d="M27 0l252 1434h851l-47 -260h-557l-59 -330h457l-45 -254h-457l-57 -330h567l-45 -260h-860zM459 1540l43 242h219l-41 -242h-221zM780 1540l43 242h219l-43 -242h-219z" />
<glyph unicode="&#xcc;" horiz-adv-x="563" d="M27 0l252 1434h292l-252 -1434h-292zM166 1802h295l162 -282h-215z" />
<glyph unicode="&#xcd;" horiz-adv-x="561" d="M27 0l252 1434h292l-252 -1434h-292zM250 1520l256 282h325l-337 -282h-244z" />
<glyph unicode="&#xce;" horiz-adv-x="561" d="M27 0l252 1434h292l-252 -1434h-292zM129 1520l229 282h265l127 -282h-177l-96 153l-145 -153h-203z" />
<glyph unicode="&#xcf;" horiz-adv-x="563" d="M27 0l252 1434h292l-252 -1434h-292zM174 1540l43 242h219l-41 -242h-221zM496 1540l43 242h219l-43 -242h-219z" />
<glyph unicode="&#xd0;" horiz-adv-x="1286" d="M31 598l41 238h123l104 598h340q155 0 270.5 -39t185.5 -112t104 -171t34 -223q0 -76 -10 -155t-35 -168t-62.5 -168.5t-97.5 -153t-136 -127t-181.5 -85.5t-229.5 -32h-434l105 598h-121zM385 260h88q113 0 203.5 52t146.5 139t85.5 195.5t29.5 227.5q0 159 -79 229.5 t-238 70.5h-74l-62 -338h232l-41 -238h-232z" />
<glyph unicode="&#xd1;" horiz-adv-x="1296" d="M27 0l252 1434h294l275 -947l166 947h293l-254 -1434h-293l-277 944l-164 -944h-292zM516 1612q31 51 49.5 76.5t47 57t59 45t67.5 13.5q38 0 80.5 -24.5t77.5 -49t57 -24.5q42 0 105 96l112 -80q-26 -41 -40.5 -63t-38 -51.5t-43 -44t-46.5 -25t-57 -10.5 q-38 0 -80 24.5t-76.5 49t-56.5 24.5q-43 0 -106 -96z" />
<glyph unicode="&#xd2;" horiz-adv-x="1335" d="M86 532q0 75 10.5 157.5t35 173.5t60.5 175t90.5 160.5t121.5 133.5t157.5 90.5t194.5 33.5q251 0 388.5 -139.5t137.5 -411.5q0 -76 -10.5 -158.5t-35 -174t-60 -176t-90 -161.5t-121 -134t-157 -90.5t-194.5 -33.5q-251 0 -389.5 141t-138.5 414zM385 535 q0 -297 238 -297q78 0 142.5 54t104 133.5t66.5 174t38 170.5t11 129q0 297 -237 297q-78 0 -143 -54t-104.5 -133.5t-67 -174t-38 -170.5t-10.5 -129zM549 1802h295l162 -282h-215z" />
<glyph unicode="&#xd3;" horiz-adv-x="1335" d="M86 532q0 75 10.5 157.5t35 173.5t60.5 175t90.5 160.5t121.5 133.5t157.5 90.5t194.5 33.5q251 0 388.5 -139.5t137.5 -411.5q0 -76 -10.5 -158.5t-35 -174t-60 -176t-90 -161.5t-121 -134t-157 -90.5t-194.5 -33.5q-251 0 -389.5 141t-138.5 414zM385 535 q0 -297 238 -297q78 0 142.5 54t104 133.5t66.5 174t38 170.5t11 129q0 297 -237 297q-78 0 -143 -54t-104.5 -133.5t-67 -174t-38 -170.5t-10.5 -129zM635 1520l256 282h326l-338 -282h-244z" />
<glyph unicode="&#xd4;" horiz-adv-x="1335" d="M86 532q0 75 10.5 157.5t35 173.5t60.5 175t90.5 160.5t121.5 133.5t157.5 90.5t194.5 33.5q251 0 388.5 -139.5t137.5 -411.5q0 -76 -10.5 -158.5t-35 -174t-60 -176t-90 -161.5t-121 -134t-157 -90.5t-194.5 -33.5q-251 0 -389.5 141t-138.5 414zM385 535 q0 -297 238 -297q78 0 142.5 54t104 133.5t66.5 174t38 170.5t11 129q0 297 -237 297q-78 0 -143 -54t-104.5 -133.5t-67 -174t-38 -170.5t-10.5 -129zM518 1520l230 282h264l127 -282h-176l-97 153l-145 -153h-203z" />
<glyph unicode="&#xd5;" horiz-adv-x="1335" d="M86 532q0 75 10.5 157.5t35 173.5t60.5 175t90.5 160.5t121.5 133.5t157.5 90.5t194.5 33.5q251 0 388.5 -139.5t137.5 -411.5q0 -76 -10.5 -158.5t-35 -174t-60 -176t-90 -161.5t-121 -134t-157 -90.5t-194.5 -33.5q-251 0 -389.5 141t-138.5 414zM385 535 q0 -297 238 -297q78 0 142.5 54t104 133.5t66.5 174t38 170.5t11 129q0 297 -237 297q-78 0 -143 -54t-104.5 -133.5t-67 -174t-38 -170.5t-10.5 -129zM524 1612q31 50 50 76.5t47.5 57.5t59 44.5t67.5 13.5q38 0 80.5 -24.5t77.5 -49t57 -24.5q41 0 104 96l113 -80 q-32 -51 -51 -78t-48 -58t-59.5 -44.5t-67.5 -13.5q-38 0 -80 24.5t-76.5 49t-56.5 24.5q-43 0 -106 -96z" />
<glyph unicode="&#xd6;" horiz-adv-x="1335" d="M86 532q0 75 10.5 157.5t35 173.5t60.5 175t90.5 160.5t121.5 133.5t157.5 90.5t194.5 33.5q251 0 388.5 -139.5t137.5 -411.5q0 -76 -10.5 -158.5t-35 -174t-60 -176t-90 -161.5t-121 -134t-157 -90.5t-194.5 -33.5q-251 0 -389.5 141t-138.5 414zM385 535 q0 -297 238 -297q78 0 142.5 54t104 133.5t66.5 174t38 170.5t11 129q0 297 -237 297q-78 0 -143 -54t-104.5 -133.5t-67 -174t-38 -170.5t-10.5 -129zM561 1540l43 242h219l-41 -242h-221zM883 1540l43 242h219l-43 -242h-219z" />
<glyph unicode="&#xd7;" horiz-adv-x="1138" d="M143 430l291 270l-192 269l182 131l176 -246l268 252l150 -160l-291 -270l195 -270l-183 -132l-178 246l-268 -250z" />
<glyph unicode="&#xd8;" horiz-adv-x="1335" d="M0 0l162 201q-76 133 -76 331q0 75 10.5 157.5t35 173.5t60.5 175t90.5 160.5t121.5 133.5t157.5 90.5t194.5 33.5q214 0 346 -102l65 80h201l-162 -199q76 -133 76 -330q0 -76 -10.5 -158.5t-35 -174t-60 -176t-90 -161.5t-121 -134t-157 -90.5t-194.5 -33.5 q-213 0 -346 103l-65 -80h-203zM385 535q0 -40 2 -58l533 651q-59 68 -172 68q-78 0 -143 -54t-104.5 -133.5t-67 -174t-38 -170.5t-10.5 -129zM449 303q59 -65 174 -65q78 0 142.5 54t104 133.5t66.5 174t38 170.5t11 129q0 23 -4 59z" />
<glyph unicode="&#xd9;" horiz-adv-x="1249" d="M90 376.5q1 82.5 19 186.5l153 871h293l-164 -922q-12 -56 -10.5 -105.5t15.5 -86.5t53 -58.5t102 -21.5q122 0 181.5 71.5t82.5 200.5l164 922h291l-162 -920q-14 -79 -33.5 -143.5t-49.5 -127.5t-73 -109.5t-100.5 -83t-136 -55t-174.5 -18.5q-127 0 -217 30.5 t-140 81.5t-72.5 128t-21.5 159.5zM504 1802h295l162 -282h-216z" />
<glyph unicode="&#xda;" horiz-adv-x="1249" d="M90 376.5q1 82.5 19 186.5l153 871h293l-164 -922q-12 -56 -10.5 -105.5t15.5 -86.5t53 -58.5t102 -21.5q122 0 181.5 71.5t82.5 200.5l164 922h291l-162 -920q-14 -79 -33.5 -143.5t-49.5 -127.5t-73 -109.5t-100.5 -83t-136 -55t-174.5 -18.5q-127 0 -217 30.5 t-140 81.5t-72.5 128t-21.5 159.5zM590 1520l256 282h325l-337 -282h-244z" />
<glyph unicode="&#xdb;" horiz-adv-x="1249" d="M90 376.5q1 82.5 19 186.5l153 871h293l-164 -922q-12 -56 -10.5 -105.5t15.5 -86.5t53 -58.5t102 -21.5q122 0 181.5 71.5t82.5 200.5l164 922h291l-162 -920q-14 -79 -33.5 -143.5t-49.5 -127.5t-73 -109.5t-100.5 -83t-136 -55t-174.5 -18.5q-127 0 -217 30.5 t-140 81.5t-72.5 128t-21.5 159.5zM471 1520l229 282h265l127 -282h-177l-96 153l-145 -153h-203z" />
<glyph unicode="&#xdc;" horiz-adv-x="1249" d="M90 376.5q1 82.5 19 186.5l153 871h293l-164 -922q-12 -56 -10.5 -105.5t15.5 -86.5t53 -58.5t102 -21.5q122 0 181.5 71.5t82.5 200.5l164 922h291l-162 -920q-14 -79 -33.5 -143.5t-49.5 -127.5t-73 -109.5t-100.5 -83t-136 -55t-174.5 -18.5q-127 0 -217 30.5 t-140 81.5t-72.5 128t-21.5 159.5zM516 1540l43 242h219l-41 -242h-221zM838 1540l43 242h219l-43 -242h-219z" />
<glyph unicode="&#xdd;" horiz-adv-x="1142" d="M147 1434h312l137 -590l340 590h338l-567 -861l-101 -573h-291l99 569zM535 1520l256 282h325l-338 -282h-243z" />
<glyph unicode="&#xde;" horiz-adv-x="1181" d="M27 0l252 1434h292l-41 -230h148q475 0 475 -385q0 -113 -35.5 -210t-104 -171t-179.5 -116.5t-252 -42.5h-213l-50 -279h-292zM412 530h163q131 0 204 70.5t73 192.5q0 83 -50.5 119t-144.5 36h-172z" />
<glyph unicode="&#xdf;" horiz-adv-x="1247" d="M2 0l170 975q21 126 60 218.5t103.5 162.5t162 105.5t227.5 35.5q115 0 204 -28t141 -76.5t78 -108t26 -127.5q0 -44 -11 -85.5t-26 -68.5t-30.5 -48t-26.5 -31l-11 -9q-30 -8 -59 -19.5t-59.5 -30t-49 -45.5t-18.5 -58q0 -33 20 -57.5t68.5 -64t81.5 -75.5 q102 -114 102 -241q0 -148 -109.5 -247.5t-275.5 -99.5q-185 0 -377 123l135 195q47 -31 111.5 -56.5t116.5 -25.5q50 0 81 26.5t31 71.5q0 59 -71 119q-8 7 -36.5 29t-44 35t-40 40t-38 52t-24 62.5t-10.5 78.5q0 50 13.5 93t39.5 76.5t51.5 58.5t64 47t60.5 33t56 26 q12 40 12 69q0 66 -43.5 105t-134.5 39q-110 0 -175.5 -71.5t-96.5 -246.5l-168 -956h-281z" />
<glyph unicode="&#xe0;" horiz-adv-x="1099" d="M47 340q0 144 31 279t87 242t143.5 172t191.5 65q86 0 148 -40.5t120 -107.5l23 125h280l-188 -1075h-281l23 133q-164 -156 -318 -156q-119 0 -189.5 94.5t-70.5 268.5zM334 385q0 -79 26 -124.5t76 -45.5q57 0 112.5 39t117.5 111l63 360q-73 135 -170 135 q-51 0 -95 -46t-71.5 -117.5t-43 -153.5t-15.5 -158zM401 1493h295l162 -283h-215z" />
<glyph unicode="&#xe1;" horiz-adv-x="1085" d="M47 340q0 144 31 279t87 242t143.5 172t191.5 65q86 0 148 -40.5t120 -107.5l23 125h280l-188 -1075h-281l23 133q-164 -156 -318 -156q-119 0 -189.5 94.5t-70.5 268.5zM334 385q0 -79 26 -124.5t76 -45.5q57 0 112.5 39t117.5 111l63 360q-73 135 -170 135 q-51 0 -95 -46t-71.5 -117.5t-43 -153.5t-15.5 -158zM467 1210l256 283h326l-338 -283h-244z" />
<glyph unicode="&#xe2;" horiz-adv-x="1099" d="M47 340q0 144 31 279t87 242t143.5 172t191.5 65q86 0 148 -40.5t120 -107.5l23 125h280l-188 -1075h-281l23 133q-164 -156 -318 -156q-119 0 -189.5 94.5t-70.5 268.5zM334 385q0 -79 26 -124.5t76 -45.5q57 0 112.5 39t117.5 111l63 360q-73 135 -170 135 q-51 0 -95 -46t-71.5 -117.5t-43 -153.5t-15.5 -158zM367 1210l229 283h264l127 -283h-176l-96 154l-146 -154h-202z" />
<glyph unicode="&#xe3;" horiz-adv-x="1099" d="M47 340q0 144 31 279t87 242t143.5 172t191.5 65q86 0 148 -40.5t120 -107.5l23 125h280l-188 -1075h-281l23 133q-164 -156 -318 -156q-119 0 -189.5 94.5t-70.5 268.5zM334 385q0 -79 26 -124.5t76 -45.5q57 0 112.5 39t117.5 111l63 360q-73 135 -170 135 q-51 0 -95 -46t-71.5 -117.5t-43 -153.5t-15.5 -158zM381 1303q31 51 49.5 76.5t47 57t59 45t67.5 13.5q38 0 80.5 -24.5t77.5 -49t57 -24.5q42 0 105 96l112 -80q-26 -41 -40.5 -63t-38 -51.5t-43 -44t-46.5 -25t-57 -10.5q-38 0 -80 24.5t-76.5 49t-56.5 24.5 q-43 0 -106 -96z" />
<glyph unicode="&#xe4;" horiz-adv-x="1099" d="M47 340q0 144 31 279t87 242t143.5 172t191.5 65q86 0 148 -40.5t120 -107.5l23 125h280l-188 -1075h-281l23 133q-164 -156 -318 -156q-119 0 -189.5 94.5t-70.5 268.5zM334 385q0 -79 26 -124.5t76 -45.5q57 0 112.5 39t117.5 111l63 360q-73 135 -170 135 q-51 0 -95 -46t-71.5 -117.5t-43 -153.5t-15.5 -158zM424 1231l43 242h219l-41 -242h-221zM745 1231l43 242h220l-43 -242h-220z" />
<glyph unicode="&#xe5;" horiz-adv-x="1099" d="M47 340q0 144 31 279t87 242t143.5 172t191.5 65q86 0 148 -40.5t120 -107.5l23 125h280l-188 -1075h-281l23 133q-164 -156 -318 -156q-119 0 -189.5 94.5t-70.5 268.5zM334 385q0 -79 26 -124.5t76 -45.5q57 0 112.5 39t117.5 111l63 360q-73 135 -170 135 q-51 0 -95 -46t-71.5 -117.5t-43 -153.5t-15.5 -158zM504 1405q0 89 63 152t152 63t152 -63t63 -152t-63 -152t-152 -63t-152 63t-63 152zM637 1405q0 -34 24 -57t58 -23t58 23t24 57t-24 58t-58 24t-58 -24t-24 -58z" />
<glyph unicode="&#xe6;" horiz-adv-x="1624" d="M47 340q0 144 31 279t87 242t143.5 172t191.5 65q86 0 148 -40.5t120 -107.5l23 125h280v-2q77 25 162 25q161 0 255.5 -80.5t94.5 -214.5q0 -365 -539 -365h-83v-28q0 -213 137 -213q16 0 35.5 3.5t35.5 7t40.5 13.5t38 15t43 19.5t40 20t44 22.5t40.5 21l84 -200 q-80 -47 -209.5 -94.5t-255.5 -47.5q-77 0 -153 27v-4h-281l23 131q-162 -154 -316 -154q-119 0 -189.5 94.5t-70.5 268.5zM334 385q0 -79 26 -124.5t76 -45.5q102 0 228 147l14 80q3 152 51 285q-73 133 -170 133q-51 0 -95 -46t-71.5 -117.5t-43 -153.5t-15.5 -158z M981 598h72q128 0 198 50.5t70 135.5q0 47 -28.5 75t-75.5 28q-87 0 -147 -81.5t-89 -207.5z" />
<glyph unicode="&#xe7;" horiz-adv-x="905" d="M43 397q0 136 27.5 252t74 197t107.5 139t128.5 85.5t137.5 27.5q38 0 74 -5t71 -16t61 -20t60 -27.5t50 -27t49.5 -29.5t40.5 -25l-136 -203q-5 3 -33 22t-44 28.5t-42.5 23.5t-50.5 20.5t-47 6.5q-67 0 -123.5 -60t-87 -156t-30.5 -202q0 -93 33 -146t98 -53q20 0 44 6 t54 19.5t49.5 23t53 27.5t43.5 23l86 -226q-225 -110 -361 -122q27 -73 27 -132q0 -107 -64.5 -165t-159.5 -58q-96 0 -157 45l82 146q39 -25 75 -25q38 0 63.5 23t25.5 77q0 24 -19 97q-120 27 -190 131t-70 278z" />
<glyph unicode="&#xe8;" horiz-adv-x="989" d="M43 414q0 197 65.5 351t192.5 243.5t297 89.5q161 0 255.5 -80.5t94.5 -214.5q0 -365 -538 -365h-84v-28q0 -213 137 -213q16 0 35.5 3.5t35.5 7t40.5 13.5t38 15t43 19.5t40 20t44 22.5t40.5 21l84 -200q-80 -47 -209.5 -94.5t-255.5 -47.5q-167 0 -261.5 107.5 t-94.5 329.5zM346 598h72q128 0 198 50.5t70 135.5q0 47 -28.5 75t-75.5 28q-87 0 -147 -81.5t-89 -207.5zM354 1493h295l162 -283h-215z" />
<glyph unicode="&#xe9;" horiz-adv-x="991" d="M43 414q0 197 65.5 351t192.5 243.5t297 89.5q161 0 255.5 -80.5t94.5 -214.5q0 -365 -538 -365h-84v-28q0 -213 137 -213q16 0 35.5 3.5t35.5 7t40.5 13.5t38 15t43 19.5t40 20t44 22.5t40.5 21l84 -200q-80 -47 -209.5 -94.5t-255.5 -47.5q-167 0 -261.5 107.5 t-94.5 329.5zM346 598h72q128 0 198 50.5t70 135.5q0 47 -28.5 75t-75.5 28q-87 0 -147 -81.5t-89 -207.5zM440 1210l256 283h326l-338 -283h-244z" />
<glyph unicode="&#xea;" horiz-adv-x="989" d="M43 414q0 197 65.5 351t192.5 243.5t297 89.5q161 0 255.5 -80.5t94.5 -214.5q0 -365 -538 -365h-84v-28q0 -213 137 -213q16 0 35.5 3.5t35.5 7t40.5 13.5t38 15t43 19.5t40 20t44 22.5t40.5 21l84 -200q-80 -47 -209.5 -94.5t-255.5 -47.5q-167 0 -261.5 107.5 t-94.5 329.5zM319 1210l230 283h264l127 -283h-176l-96 154l-146 -154h-203zM346 598h72q128 0 198 50.5t70 135.5q0 47 -28.5 75t-75.5 28q-87 0 -147 -81.5t-89 -207.5z" />
<glyph unicode="&#xeb;" horiz-adv-x="989" d="M43 414q0 197 65.5 351t192.5 243.5t297 89.5q161 0 255.5 -80.5t94.5 -214.5q0 -365 -538 -365h-84v-28q0 -213 137 -213q16 0 35.5 3.5t35.5 7t40.5 13.5t38 15t43 19.5t40 20t44 22.5t40.5 21l84 -200q-80 -47 -209.5 -94.5t-255.5 -47.5q-167 0 -261.5 107.5 t-94.5 329.5zM346 598h72q128 0 198 50.5t70 135.5q0 47 -28.5 75t-75.5 28q-87 0 -147 -81.5t-89 -207.5zM369 1231l43 242h219l-41 -242h-221zM690 1231l43 242h219l-43 -242h-219z" />
<glyph unicode="&#xec;" horiz-adv-x="501" d="M0 0l190 1075h281l-190 -1075h-281zM78 1493h295l162 -283h-216z" />
<glyph unicode="&#xed;" horiz-adv-x="499" d="M0 0l190 1075h281l-190 -1075h-281zM162 1210l256 283h325l-337 -283h-244z" />
<glyph unicode="&#xee;" horiz-adv-x="499" d="M0 0l190 1075h281l-190 -1075h-281zM43 1210l229 283h265l127 -283h-177l-96 154l-145 -154h-203z" />
<glyph unicode="&#xef;" horiz-adv-x="499" d="M0 0l190 1075h281l-190 -1075h-281zM88 1231l43 242h219l-41 -242h-221zM410 1231l43 242h219l-43 -242h-219z" />
<glyph unicode="&#xf0;" horiz-adv-x="1103" d="M33 403q0 154 63 285.5t173 209t241 77.5q56 0 104 -16t76 -36.5t51 -47t30 -39.5t11 -23q-6 110 -46 199.5t-115 138.5l-70 -78h-227l112 127q-34 0 -71 -4t-57 -8l-21 -4l8 229q70 21 174 21q74 0 160 -21l69 80h228l-138 -154q126 -89 190 -247.5t64 -354.5 q0 -160 -38.5 -298t-110.5 -241t-182 -162t-246 -59q-209 0 -320.5 116t-111.5 310zM326 397q0 -192 161 -192q64 0 114 34.5t78 89t42 112.5t14 114q0 88 -39.5 140.5t-124.5 52.5q-79 0 -137 -59t-83 -136.5t-25 -155.5z" />
<glyph unicode="&#xf1;" d="M2 0l188 1075h281l-22 -125q190 148 339 148q137 0 194 -92t26 -261l-131 -745h-281l123 700q30 168 -68 168q-55 0 -121 -41t-118 -94l-129 -733h-281zM350 1303q31 51 49.5 76.5t47 57t59 45t67.5 13.5q38 0 80.5 -24.5t77.5 -49t57 -24.5q42 0 105 96l113 -80 q-32 -51 -51 -78t-48 -58t-59.5 -44.5t-67.5 -13.5q-38 0 -80 24.5t-76.5 49t-56.5 24.5q-43 0 -106 -96z" />
<glyph unicode="&#xf2;" horiz-adv-x="1083" d="M47 410q0 94 17.5 187.5t58.5 184.5t100 160.5t149.5 112.5t200.5 43q90 0 166.5 -24.5t138 -74.5t97 -135t35.5 -198q0 -94 -17.5 -187.5t-58.5 -185t-100.5 -161t-150 -112.5t-200.5 -43q-90 0 -166 24.5t-138 74.5t-97 135.5t-35 198.5zM328 401q0 -97 36.5 -146.5 t120.5 -49.5q61 0 110.5 50.5t77 126.5t42 152t14.5 138q0 99 -37 148.5t-121 49.5q-61 0 -110.5 -50.5t-77 -127t-41.5 -152.5t-14 -139zM369 1493h295l161 -283h-215z" />
<glyph unicode="&#xf3;" horiz-adv-x="1083" d="M47 410q0 94 17.5 187.5t58.5 184.5t100 160.5t149.5 112.5t200.5 43q90 0 166.5 -24.5t138 -74.5t97 -135t35.5 -198q0 -94 -17.5 -187.5t-58.5 -185t-100.5 -161t-150 -112.5t-200.5 -43q-90 0 -166 24.5t-138 74.5t-97 135.5t-35 198.5zM328 401q0 -97 36.5 -146.5 t120.5 -49.5q61 0 110.5 50.5t77 126.5t42 152t14.5 138q0 99 -37 148.5t-121 49.5q-61 0 -110.5 -50.5t-77 -127t-41.5 -152.5t-14 -139zM455 1210l256 283h325l-338 -283h-243z" />
<glyph unicode="&#xf4;" horiz-adv-x="1083" d="M47 410q0 94 17.5 187.5t58.5 184.5t100 160.5t149.5 112.5t200.5 43q90 0 166.5 -24.5t138 -74.5t97 -135t35.5 -198q0 -94 -17.5 -187.5t-58.5 -185t-100.5 -161t-150 -112.5t-200.5 -43q-90 0 -166 24.5t-138 74.5t-97 135.5t-35 198.5zM328 401q0 -97 36.5 -146.5 t120.5 -49.5q61 0 110.5 50.5t77 126.5t42 152t14.5 138q0 99 -37 148.5t-121 49.5q-61 0 -110.5 -50.5t-77 -127t-41.5 -152.5t-14 -139zM336 1210l229 283h264l127 -283h-176l-96 154l-145 -154h-203z" />
<glyph unicode="&#xf5;" horiz-adv-x="1083" d="M47 410q0 94 17.5 187.5t58.5 184.5t100 160.5t149.5 112.5t200.5 43q90 0 166.5 -24.5t138 -74.5t97 -135t35.5 -198q0 -94 -17.5 -187.5t-58.5 -185t-100.5 -161t-150 -112.5t-200.5 -43q-90 0 -166 24.5t-138 74.5t-97 135.5t-35 198.5zM328 401q0 -97 36.5 -146.5 t120.5 -49.5q61 0 110.5 50.5t77 126.5t42 152t14.5 138q0 99 -37 148.5t-121 49.5q-61 0 -110.5 -50.5t-77 -127t-41.5 -152.5t-14 -139zM348 1303q31 51 49.5 76.5t47 57t59 45t67.5 13.5q38 0 80.5 -24.5t77.5 -49t57 -24.5q42 0 105 96l113 -80q-32 -51 -51 -78t-48 -58 t-59.5 -44.5t-67.5 -13.5q-38 0 -80 24.5t-76.5 49t-56.5 24.5q-43 0 -106 -96z" />
<glyph unicode="&#xf6;" horiz-adv-x="1083" d="M47 410q0 94 17.5 187.5t58.5 184.5t100 160.5t149.5 112.5t200.5 43q90 0 166.5 -24.5t138 -74.5t97 -135t35.5 -198q0 -94 -17.5 -187.5t-58.5 -185t-100.5 -161t-150 -112.5t-200.5 -43q-90 0 -166 24.5t-138 74.5t-97 135.5t-35 198.5zM328 401q0 -97 36.5 -146.5 t120.5 -49.5q61 0 110.5 50.5t77 126.5t42 152t14.5 138q0 99 -37 148.5t-121 49.5q-61 0 -110.5 -50.5t-77 -127t-41.5 -152.5t-14 -139zM383 1231l43 242h219l-41 -242h-221zM705 1231l43 242h219l-43 -242h-219z" />
<glyph unicode="&#xf7;" horiz-adv-x="1124" d="M121 571l41 224h864l-41 -224h-864zM375 324q0 56 38.5 94.5t94.5 38.5t95.5 -39t39.5 -94t-39.5 -94.5t-95.5 -39.5q-55 0 -94 39t-39 95zM502 1042q0 57 38.5 96.5t94.5 39.5t95.5 -39.5t39.5 -96.5q0 -55 -39.5 -94t-95.5 -39q-55 0 -94 38.5t-39 94.5z" />
<glyph unicode="&#xf8;" horiz-adv-x="1083" d="M-18 0l131 154q-66 101 -66 256q0 94 17.5 187.5t58.5 184.5t100 160.5t149.5 112.5t200.5 43q166 0 279 -80l47 57h162l-123 -145q72 -106 72 -264q0 -94 -17.5 -187.5t-58.5 -185t-100.5 -161t-150 -112.5t-200.5 -43q-172 0 -284 82l-52 -59h-165zM328 406l358 419 q-39 45 -115 45q-61 0 -110.5 -50t-77 -125t-41.5 -150.5t-14 -138.5zM365 254q37 -49 120 -49q61 0 110.5 50.5t77 126.5t42 152t14.5 138v12z" />
<glyph unicode="&#xf9;" d="M53 330l131 745h281l-125 -700q-30 -168 70 -168q54 0 121 40t118 91l129 737h281l-189 -1075h-280l20 123q-195 -146 -338 -146q-137 0 -193.5 91.5t-25.5 261.5zM365 1493h294l162 -283h-215z" />
<glyph unicode="&#xfa;" d="M53 330l131 745h281l-125 -700q-30 -168 70 -168q54 0 121 40t118 91l129 737h281l-189 -1075h-280l20 123q-195 -146 -338 -146q-137 0 -193.5 91.5t-25.5 261.5zM453 1210l256 283h325l-338 -283h-243z" />
<glyph unicode="&#xfb;" d="M53 330l131 745h281l-125 -700q-30 -168 70 -168q54 0 121 40t118 91l129 737h281l-189 -1075h-280l20 123q-195 -146 -338 -146q-137 0 -193.5 91.5t-25.5 261.5zM332 1210l229 283h264l127 -283h-176l-96 154l-145 -154h-203z" />
<glyph unicode="&#xfc;" d="M53 330l131 745h281l-125 -700q-30 -168 70 -168q54 0 121 40t118 91l129 737h281l-189 -1075h-280l20 123q-195 -146 -338 -146q-137 0 -193.5 91.5t-25.5 261.5zM379 1231l43 242h219l-41 -242h-221zM700 1231l43 242h220l-43 -242h-220z" />
<glyph unicode="&#xfd;" horiz-adv-x="1011" d="M-25 -231q107 43 169 81.5t112 102.5l-154 1122h289l58 -727l311 727h305l-522 -1075q-24 -48 -34.5 -69.5t-33.5 -63.5t-38 -62.5t-41.5 -55t-49.5 -53.5t-57.5 -45.5t-70.5 -43.5t-82 -35t-99 -31zM416 1210l256 283h325l-338 -283h-243z" />
<glyph unicode="&#xfe;" horiz-adv-x="1093" d="M-72 -418l336 1911h281l-94 -537q158 142 301 142q125 0 198.5 -94t73.5 -269q0 -110 -18.5 -218t-56 -205.5t-89.5 -172t-125 -118.5t-157 -44q-62 0 -117.5 24t-86.5 50.5t-71 69.5l-94 -539h-281zM342 346q76 -131 174 -131q67 0 118.5 77t76 183t24.5 213 q0 79 -28 125.5t-84 46.5q-97 0 -213 -137z" />
<glyph unicode="&#xff;" horiz-adv-x="1011" d="M-25 -231q107 43 169 81.5t112 102.5l-154 1122h289l58 -727l311 727h305l-522 -1075q-24 -48 -34.5 -69.5t-33.5 -63.5t-38 -62.5t-41.5 -55t-49.5 -53.5t-57.5 -45.5t-70.5 -43.5t-82 -35t-99 -31zM342 1231l43 242h219l-41 -242h-221zM664 1231l43 242h219l-43 -242 h-219z" />
<glyph unicode="&#x100;" horiz-adv-x="1222" d="M-86 0l686 1434h320l180 -1434h-309l-19 285h-414l-116 -285h-328zM459 526h297l-41 617zM522 1571l31 174h522l-31 -174h-522z" />
<glyph unicode="&#x101;" horiz-adv-x="1099" d="M47 340q0 144 31 279t87 242t143.5 172t191.5 65q86 0 148 -40.5t120 -107.5l23 125h280l-188 -1075h-281l23 133q-164 -156 -318 -156q-119 0 -189.5 94.5t-70.5 268.5zM334 385q0 -79 26 -124.5t76 -45.5q57 0 112.5 39t117.5 111l63 360q-73 135 -170 135 q-51 0 -95 -46t-71.5 -117.5t-43 -153.5t-15.5 -158zM426 1262l31 174h522l-31 -174h-522z" />
<glyph unicode="&#x102;" horiz-adv-x="1222" d="M-86 0l686 1434h320l180 -1434h-309l-19 285h-414l-116 -285h-328zM459 526h297l-41 617zM535 1772h167q-6 -43 18 -67t71 -24q61 0 100 24.5t45 66.5h170q-20 -118 -105 -185t-219 -67q-136 0 -201 70t-46 182z" />
<glyph unicode="&#x103;" horiz-adv-x="1099" d="M47 340q0 144 31 279t87 242t143.5 172t191.5 65q86 0 148 -40.5t120 -107.5l23 125h280l-188 -1075h-281l23 133q-164 -156 -318 -156q-119 0 -189.5 94.5t-70.5 268.5zM334 385q0 -79 26 -124.5t76 -45.5q57 0 112.5 39t117.5 111l63 360q-73 135 -170 135 q-51 0 -95 -46t-71.5 -117.5t-43 -153.5t-15.5 -158zM434 1462h168q-6 -43 17.5 -66.5t70.5 -23.5q61 0 100.5 24t45.5 66h170q-20 -118 -105 -185t-219 -67q-136 0 -201.5 70t-46.5 182z" />
<glyph unicode="&#x104;" horiz-adv-x="1222" d="M-86 0l686 1434h320l180 -1434h-8q-86 -56 -137.5 -106.5t-51.5 -100.5q0 -11 4 -20t9 -15t14.5 -10t16.5 -6t19.5 -3t18.5 -1h18.5h14.5l-51 -135h-19h-26t-29.5 1.5t-34 4t-32.5 8t-32.5 13.5t-28 20t-24 27t-14.5 35.5t-6 45.5q0 76 53 133.5t150 108.5h-133l-19 285 h-414l-116 -285h-328zM459 526h297l-41 617z" />
<glyph unicode="&#x105;" horiz-adv-x="1099" d="M47 340q0 144 31 279t87 242t143.5 172t191.5 65q86 0 148 -40.5t120 -107.5l23 125h280l-188 -1075h-9q-86 -56 -137 -106.5t-51 -100.5q0 -11 4 -20t9 -15t14.5 -10t16.5 -6t19.5 -3t18.5 -1h18.5h14.5l-51 -135h-18h-27t-29.5 1.5t-34 4t-32.5 8t-32.5 13.5t-28 20 t-24 27t-14.5 35.5t-6 45.5q0 76 53 133.5t150 108.5h-105l23 133q-164 -156 -318 -156q-119 0 -189.5 94.5t-70.5 268.5zM334 385q0 -79 26 -124.5t76 -45.5q57 0 112.5 39t117.5 111l63 360q-73 135 -170 135q-51 0 -95 -46t-71.5 -117.5t-43 -153.5t-15.5 -158z" />
<glyph unicode="&#x106;" horiz-adv-x="1134" d="M86 520q0 184 42.5 352t119 298.5t195 208t259.5 77.5q72 0 140 -17t138 -54.5t110 -63t112 -76.5l-160 -215q-98 74 -173 112t-142 38q-101 0 -181.5 -99.5t-120.5 -245t-40 -300.5q0 -283 168 -283q116 0 352 145l117 -239q-157 -86 -285.5 -133.5t-253.5 -47.5 q-191 0 -294 140.5t-103 402.5zM635 1520l256 282h326l-338 -282h-244z" />
<glyph unicode="&#x107;" horiz-adv-x="907" d="M43 397q0 136 27.5 252t74 197t107.5 139t128.5 85.5t137.5 27.5q38 0 74 -5t71 -16t61 -20t60 -27.5t50 -27t49.5 -29.5t40.5 -25l-136 -203q-5 3 -33 22t-44 28.5t-42.5 23.5t-50.5 20.5t-47 6.5q-67 0 -123.5 -60t-87 -156t-30.5 -202q0 -93 33 -146t98 -53q20 0 44 6 t54 19.5t49.5 23t53 27.5t43.5 23l86 -226q-51 -25 -84.5 -40t-92.5 -38t-115.5 -35t-107.5 -12q-156 0 -252 107.5t-96 312.5zM410 1210l256 283h325l-338 -283h-243z" />
<glyph unicode="&#x10a;" horiz-adv-x="1134" d="M86 520q0 184 42.5 352t119 298.5t195 208t259.5 77.5q72 0 140 -17t138 -54.5t110 -63t112 -76.5l-160 -215q-98 74 -173 112t-142 38q-101 0 -181.5 -99.5t-120.5 -245t-40 -300.5q0 -283 168 -283q116 0 352 145l117 -239q-157 -86 -285.5 -133.5t-253.5 -47.5 q-191 0 -294 140.5t-103 402.5zM662 1540l43 246h225l-43 -246h-225z" />
<glyph unicode="&#x10b;" horiz-adv-x="905" d="M43 397q0 136 27.5 252t74 197t107.5 139t128.5 85.5t137.5 27.5q38 0 74 -5t71 -16t61 -20t60 -27.5t50 -27t49.5 -29.5t40.5 -25l-136 -203q-5 3 -33 22t-44 28.5t-42.5 23.5t-50.5 20.5t-47 6.5q-67 0 -123.5 -60t-87 -156t-30.5 -202q0 -93 33 -146t98 -53q20 0 44 6 t54 19.5t49.5 23t53 27.5t43.5 23l86 -226q-51 -25 -84.5 -40t-92.5 -38t-115.5 -35t-107.5 -12q-156 0 -252 107.5t-96 312.5zM492 1231l43 246h225l-43 -246h-225z" />
<glyph unicode="&#x10c;" horiz-adv-x="1134" d="M86 520q0 184 42.5 352t119 298.5t195 208t259.5 77.5q72 0 140 -17t138 -54.5t110 -63t112 -76.5l-160 -215q-98 74 -173 112t-142 38q-101 0 -181.5 -99.5t-120.5 -245t-40 -300.5q0 -283 168 -283q116 0 352 145l117 -239q-157 -86 -285.5 -133.5t-253.5 -47.5 q-191 0 -294 140.5t-103 402.5zM514 1802h178l96 -151l146 151h203l-230 -282h-264z" />
<glyph unicode="&#x10d;" horiz-adv-x="905" d="M43 397q0 136 27.5 252t74 197t107.5 139t128.5 85.5t137.5 27.5q38 0 74 -5t71 -16t61 -20t60 -27.5t50 -27t49.5 -29.5t40.5 -25l-136 -203q-5 3 -33 22t-44 28.5t-42.5 23.5t-50.5 20.5t-47 6.5q-67 0 -123.5 -60t-87 -156t-30.5 -202q0 -93 33 -146t98 -53q20 0 44 6 t54 19.5t49.5 23t53 27.5t43.5 23l86 -226q-51 -25 -84.5 -40t-92.5 -38t-115.5 -35t-107.5 -12q-156 0 -252 107.5t-96 312.5zM338 1493h178l96 -152l146 152h203l-230 -283h-264z" />
<glyph unicode="&#x10e;" horiz-adv-x="1265" d="M27 0l252 1434h339q155 0 270.5 -39t185.5 -112t104 -171t34 -223q0 -76 -10 -155t-34.5 -168t-62.5 -168.5t-98 -153t-135.5 -127t-181 -85.5t-229.5 -32h-434zM365 260h88q113 0 203.5 52t146.5 139t85.5 195.5t29.5 227.5q0 158 -79.5 229t-238.5 71h-74zM551 1802 h178l96 -151l146 151h203l-230 -282h-264z" />
<glyph unicode="&#x10f;" horiz-adv-x="1206" d="M47 340q0 144 31 279t87 242t143.5 172t191.5 65q46 0 86.5 -12.5t75 -37.5t56.5 -46t50 -52l96 543h281l-262 -1493h-281l23 133q-164 -156 -318 -156q-119 0 -189.5 94.5t-70.5 268.5zM334 385q0 -79 26 -124.5t76 -45.5q57 0 112.5 39t117.5 111l63 360 q-73 135 -170 135q-51 0 -95 -46t-71.5 -117.5t-43 -153.5t-15.5 -158zM1147 1077l123 170h-90l43 246h204l-36 -270l-203 -217z" />
<glyph unicode="&#x110;" horiz-adv-x="1286" d="M31 598l41 238h123l104 598h340q155 0 270.5 -39t185.5 -112t104 -171t34 -223q0 -76 -10 -155t-35 -168t-62.5 -168.5t-97.5 -153t-136 -127t-181.5 -85.5t-229.5 -32h-434l105 598h-121zM385 260h88q113 0 203.5 52t146.5 139t85.5 195.5t29.5 227.5q0 159 -79 229.5 t-238 70.5h-74l-62 -338h232l-41 -238h-232z" />
<glyph unicode="&#x111;" horiz-adv-x="1099" d="M47 340q0 144 31 279t87 242t143.5 172t191.5 65q46 0 86.5 -12.5t75 -37.5t56.5 -46t50 -52l41 238h-283l31 172h283l24 133h281l-25 -133h99l-29 -172h-98l-209 -1188h-281l23 133q-164 -156 -318 -156q-119 0 -189.5 94.5t-70.5 268.5zM334 385q0 -79 26 -124.5 t76 -45.5q57 0 112.5 39t117.5 111l63 360q-73 135 -170 135q-51 0 -95 -46t-71.5 -117.5t-43 -153.5t-15.5 -158z" />
<glyph unicode="&#x112;" horiz-adv-x="1073" d="M27 0l252 1434h851l-47 -260h-557l-59 -330h457l-45 -254h-457l-57 -330h567l-45 -260h-860zM473 1571l31 174h522l-31 -174h-522z" />
<glyph unicode="&#x113;" horiz-adv-x="989" d="M43 414q0 197 65.5 351t192.5 243.5t297 89.5q161 0 255.5 -80.5t94.5 -214.5q0 -365 -538 -365h-84v-28q0 -213 137 -213q16 0 35.5 3.5t35.5 7t40.5 13.5t38 15t43 19.5t40 20t44 22.5t40.5 21l84 -200q-80 -47 -209.5 -94.5t-255.5 -47.5q-167 0 -261.5 107.5 t-94.5 329.5zM346 598h72q128 0 198 50.5t70 135.5q0 47 -28.5 75t-75.5 28q-87 0 -147 -81.5t-89 -207.5zM379 1262l31 174h522l-31 -174h-522z" />
<glyph unicode="&#x116;" horiz-adv-x="1073" d="M27 0l252 1434h851l-47 -260h-557l-59 -330h457l-45 -254h-457l-57 -330h567l-45 -260h-860zM616 1540l43 246h226l-43 -246h-226z" />
<glyph unicode="&#x117;" horiz-adv-x="989" d="M43 414q0 197 65.5 351t192.5 243.5t297 89.5q161 0 255.5 -80.5t94.5 -214.5q0 -365 -538 -365h-84v-28q0 -213 137 -213q16 0 35.5 3.5t35.5 7t40.5 13.5t38 15t43 19.5t40 20t44 22.5t40.5 21l84 -200q-80 -47 -209.5 -94.5t-255.5 -47.5q-167 0 -261.5 107.5 t-94.5 329.5zM346 598h72q128 0 198 50.5t70 135.5q0 47 -28.5 75t-75.5 28q-87 0 -147 -81.5t-89 -207.5zM522 1231l43 246h226l-43 -246h-226z" />
<glyph unicode="&#x118;" horiz-adv-x="1073" d="M27 0l252 1434h851l-47 -260h-557l-59 -330h457l-45 -254h-457l-57 -330h567l-45 -260h-6q-86 -56 -137.5 -106.5t-51.5 -100.5q0 -11 4 -20t9 -15t14.5 -10t16.5 -6t19.5 -3t18.5 -1h18.5h14.5l-51 -135h-18h-27t-29.5 1.5t-34 4t-32.5 8t-32.5 13.5t-28 20t-24 27 t-14.5 35.5t-6 45.5q0 76 53 133.5t150 108.5h-686z" />
<glyph unicode="&#x119;" horiz-adv-x="991" d="M43 414q0 197 65.5 351t192.5 243.5t297 89.5q161 0 255.5 -80.5t94.5 -214.5q0 -365 -538 -365h-84v-28q0 -213 137 -213q16 0 35.5 3.5t35.5 7t40.5 13.5t38 15t43 19.5t40 20t44 22.5t40.5 21l84 -200q-48 -29 -131 -64.5t-174 -56.5q-184 -119 -184 -205q0 -11 4 -20 t9 -15t14.5 -10t16 -6t19 -3t18.5 -1h18.5h14.5l-51 -135h-18h-27t-29.5 1.5t-33.5 4t-32.5 8t-33 13.5t-27.5 20t-23.5 27t-14.5 35.5t-6 45.5q0 125 163 222q-147 13 -230 119.5t-83 314.5zM346 598h72q128 0 198 50.5t70 135.5q0 47 -28.5 75t-75.5 28q-87 0 -147 -81.5 t-89 -207.5z" />
<glyph unicode="&#x11a;" horiz-adv-x="1073" d="M27 0l252 1434h851l-47 -260h-557l-59 -330h457l-45 -254h-457l-57 -330h567l-45 -260h-860zM463 1802h178l96 -151l146 151h202l-229 -282h-264z" />
<glyph unicode="&#x11b;" horiz-adv-x="989" d="M43 414q0 197 65.5 351t192.5 243.5t297 89.5q161 0 255.5 -80.5t94.5 -214.5q0 -365 -538 -365h-84v-28q0 -213 137 -213q16 0 35.5 3.5t35.5 7t40.5 13.5t38 15t43 19.5t40 20t44 22.5t40.5 21l84 -200q-80 -47 -209.5 -94.5t-255.5 -47.5q-167 0 -261.5 107.5 t-94.5 329.5zM346 598h72q128 0 198 50.5t70 135.5q0 47 -28.5 75t-75.5 28q-87 0 -147 -81.5t-89 -207.5zM371 1493h178l96 -152l146 152h202l-229 -283h-264z" />
<glyph unicode="&#x11e;" horiz-adv-x="1234" d="M86 508q0 195 43.5 367.5t122.5 301.5t198 204t261 75q75 0 147.5 -18t144 -56t117 -67t115.5 -78l-158 -213q-8 5 -45 29t-50.5 32.5t-46 28t-52 27.5t-47.5 19t-52.5 15.5t-48.5 4.5q-79 0 -146 -57.5t-110.5 -150.5t-67.5 -209t-24 -235q0 -290 166 -290 q66 0 140 47.5t134 107.5l33 187h-258l41 241h533l-146 -821h-272l24 143q-79 -79 -158.5 -122.5t-172.5 -43.5q-166 0 -265.5 136t-99.5 395zM532 1772h168q-6 -43 17.5 -67t70.5 -24q61 0 100.5 24.5t45.5 66.5h170q-20 -118 -105 -185t-219 -67q-136 0 -201.5 70 t-46.5 182z" />
<glyph unicode="&#x11f;" horiz-adv-x="1099" d="M-53 -352l96 227q203 -80 348 -80q52 0 90.5 15t61 43.5t35.5 60t20 72.5l25 145q-162 -154 -316 -154q-119 0 -189.5 94.5t-70.5 268.5q0 143 31.5 278.5t87.5 242.5t143.5 172t190.5 65q85 0 147.5 -40.5t118.5 -105.5l22 123h281l-188 -1079q-23 -129 -61 -214 t-97 -133t-131 -67.5t-174 -19.5q-230 0 -471 86zM334 385q0 -79 26 -124.5t76 -45.5q56 0 111 38.5t117 108.5l63 367q-72 131 -168 131q-51 0 -95 -46t-71.5 -117.5t-43 -153.5t-15.5 -158zM418 1462h168q-6 -43 17.5 -66.5t70.5 -23.5q61 0 100 24t45 66h170 q-20 -118 -104.5 -185t-218.5 -67q-136 0 -201.5 70t-46.5 182z" />
<glyph unicode="&#x120;" horiz-adv-x="1234" d="M86 508q0 195 43.5 367.5t122.5 301.5t198 204t261 75q75 0 147.5 -18t144 -56t117 -67t115.5 -78l-158 -213q-8 5 -45 29t-50.5 32.5t-46 28t-52 27.5t-47.5 19t-52.5 15.5t-48.5 4.5q-79 0 -146 -57.5t-110.5 -150.5t-67.5 -209t-24 -235q0 -290 166 -290 q66 0 140 47.5t134 107.5l33 187h-258l41 241h533l-146 -821h-272l24 143q-79 -79 -158.5 -122.5t-172.5 -43.5q-166 0 -265.5 136t-99.5 395zM666 1540l43 246h225l-43 -246h-225z" />
<glyph unicode="&#x121;" horiz-adv-x="1099" d="M-53 -352l96 227q203 -80 348 -80q52 0 90.5 15t61 43.5t35.5 60t20 72.5l25 145q-162 -154 -316 -154q-119 0 -189.5 94.5t-70.5 268.5q0 143 31.5 278.5t87.5 242.5t143.5 172t190.5 65q85 0 147.5 -40.5t118.5 -105.5l22 123h281l-188 -1079q-23 -129 -61 -214 t-97 -133t-131 -67.5t-174 -19.5q-230 0 -471 86zM334 385q0 -79 26 -124.5t76 -45.5q56 0 111 38.5t117 108.5l63 367q-72 131 -168 131q-51 0 -95 -46t-71.5 -117.5t-43 -153.5t-15.5 -158zM549 1231l43 246h225l-43 -246h-225z" />
<glyph unicode="&#x122;" horiz-adv-x="1234" d="M86 508q0 195 43.5 367.5t122.5 301.5t198 204t261 75q75 0 147.5 -18t144 -56t117 -67t115.5 -78l-158 -213q-8 5 -45 29t-50.5 32.5t-46 28t-52 27.5t-47.5 19t-52.5 15.5t-48.5 4.5q-79 0 -146 -57.5t-110.5 -150.5t-67.5 -209t-24 -235q0 -290 166 -290 q66 0 140 47.5t134 107.5l33 187h-258l41 241h533l-146 -821h-272l24 143q-79 -79 -158.5 -122.5t-172.5 -43.5q-166 0 -265.5 136t-99.5 395zM332 -532l123 170h-90l43 245h204l-37 -270l-202 -217z" />
<glyph unicode="&#x123;" horiz-adv-x="1099" d="M-53 -352l96 227q203 -80 348 -80q52 0 90.5 15t61 43.5t35.5 60t20 72.5l25 145q-162 -154 -316 -154q-119 0 -189.5 94.5t-70.5 268.5q0 143 31.5 278.5t87.5 242.5t143.5 172t190.5 65q85 0 147.5 -40.5t118.5 -105.5l22 123h281l-188 -1079q-23 -129 -61 -214 t-97 -133t-131 -67.5t-174 -19.5q-230 0 -471 86zM334 385q0 -79 26 -124.5t76 -45.5q56 0 111 38.5t117 108.5l63 367q-72 131 -168 131q-51 0 -95 -46t-71.5 -117.5t-43 -153.5t-15.5 -158zM571 1231l37 270l203 217l41 -71l-123 -170h90l-43 -246h-205z" />
<glyph unicode="&#x126;" horiz-adv-x="1308" d="M45 0l184 1055h-123l31 174h123l37 205h293l-37 -205h416l37 205h292l-36 -205h129l-31 -174h-129l-187 -1055h-290l108 625h-416l-108 -625h-293zM492 879h415l31 176h-416z" />
<glyph unicode="&#x127;" d="M2 0l209 1188h-100l32 172h97l24 133h281l-25 -133h285l-33 -172h-283l-40 -236q193 146 339 146q136 0 193.5 -92t26.5 -261l-131 -745h-283l123 700q7 46 8 83.5t-17.5 61t-56.5 23.5q-55 0 -121 -41t-118 -94l-129 -733h-281z" />
<glyph unicode="&#x128;" horiz-adv-x="563" d="M27 0l252 1434h292l-252 -1434h-292zM141 1612q31 50 50 76.5t47.5 57.5t59 44.5t67.5 13.5q38 0 80.5 -24.5t77.5 -49t57 -24.5q41 0 104 96l113 -80q-32 -51 -51 -78t-48 -58t-59.5 -44.5t-67.5 -13.5q-38 0 -80 24.5t-76.5 49t-56.5 24.5q-43 0 -106 -96z" />
<glyph unicode="&#x129;" horiz-adv-x="501" d="M0 0l190 1075h281l-190 -1075h-281zM55 1303q31 50 50 76.5t47.5 57.5t59 44.5t67.5 13.5q38 0 80.5 -24.5t77.5 -49t57 -24.5q41 0 104 96l113 -80q-32 -51 -51 -78t-48 -58t-59.5 -44.5t-67.5 -13.5q-38 0 -80 24.5t-76.5 49t-56.5 24.5q-43 0 -106 -96z" />
<glyph unicode="&#x12a;" horiz-adv-x="563" d="M27 0l252 1434h292l-252 -1434h-292zM190 1571l31 174h522l-30 -174h-523z" />
<glyph unicode="&#x12b;" horiz-adv-x="499" d="M0 0l190 1075h281l-190 -1075h-281zM100 1262l31 174h522l-30 -174h-523z" />
<glyph unicode="&#x12c;" horiz-adv-x="563" d="M27 0l252 1434h292l-252 -1434h-292zM201 1772h168q-6 -43 17.5 -67t70.5 -24q61 0 100 24.5t45 66.5h170q-20 -118 -104.5 -185t-218.5 -67q-136 0 -201.5 70t-46.5 182z" />
<glyph unicode="&#x12d;" horiz-adv-x="499" d="M0 0l190 1075h281l-190 -1075h-281zM115 1462h168q-6 -43 17.5 -66.5t70.5 -23.5q61 0 100 24t45 66h170q-20 -118 -105 -185t-219 -67q-136 0 -201 70t-46 182z" />
<glyph unicode="&#x12e;" horiz-adv-x="561" d="M-59 -242q0 76 53 133.5t149 108.5h-116l252 1434h292l-252 -1434h-8q-86 -56 -137 -106.5t-51 -100.5q0 -11 4 -20t9 -15t14.5 -10t16.5 -6t19.5 -3t18.5 -1h18.5h14.5l-52 -135h-18h-27t-29.5 1.5t-33.5 4t-32.5 8t-33 13.5t-27.5 20t-23.5 27t-14.5 35.5t-6 45.5z" />
<glyph unicode="&#x12f;" horiz-adv-x="499" d="M-94 -242q0 76 53 133.5t150 108.5h-109l190 1075h281l-190 -1075h-5q-86 -56 -137 -106.5t-51 -100.5q0 -11 4 -20t9 -15t14.5 -10t16.5 -6t19.5 -3t18.5 -1h18.5h14.5l-51 -135h-18h-27t-29.5 1.5t-34 4t-32.5 8t-32.5 13.5t-28 20t-24 27t-14.5 35.5t-6 45.5z M211 1231l45 256h295l-45 -256h-295z" />
<glyph unicode="&#x130;" horiz-adv-x="563" d="M27 0l252 1434h292l-252 -1434h-292zM332 1540l43 246h225l-43 -246h-225z" />
<glyph unicode="&#x131;" horiz-adv-x="499" d="M0 0l190 1075h281l-190 -1075h-281z" />
<glyph unicode="&#x132;" horiz-adv-x="1124" d="M27 0l252 1434h292l-252 -1434h-292zM369 -125q77 28 118.5 48t67 50t34 56.5t19.5 83.5l232 1321h293l-230 -1305q-29 -162 -53 -220q-39 -98 -137 -158q-92 -56 -281 -109z" />
<glyph unicode="&#x133;" horiz-adv-x="997" d="M0 0l190 1075h281l-190 -1075h-281zM211 1231l45 256h295l-45 -256h-295zM258 -238q80 30 121 50.5t67 50t34 56.5t18 85l188 1071h281l-185 -1048q-30 -165 -54 -225q-42 -103 -143 -163q-92 -55 -272 -100zM707 1231l45 256h295l-46 -256h-294z" />
<glyph unicode="&#x134;" horiz-adv-x="561" d="M-193 -125q52 18 86 33t60 32.5t40 31t25 38t16.5 45t12.5 58.5l232 1321h292l-229 -1305q-29 -162 -53 -220q-39 -98 -137 -158q-92 -56 -281 -109zM129 1520l229 282h265l127 -282h-177l-96 153l-145 -153h-203z" />
<glyph unicode="&#x135;" horiz-adv-x="499" d="M-238 -238q80 30 121 50.5t67 50t34.5 56.5t19.5 85l186 1071h281l-184 -1048q-15 -85 -24 -126t-30 -98.5t-49.5 -86.5t-78 -65.5t-120 -61.5t-171.5 -50zM41 1210l229 283h265l127 -283h-177l-96 154l-145 -154h-203z" />
<glyph unicode="&#x136;" horiz-adv-x="1214" d="M27 0l252 1434h292l-104 -588l494 588h376l-600 -664l365 -770h-326l-237 547l-154 -168l-66 -379h-292zM297 -532l123 170h-90l43 245h205l-37 -270l-203 -217z" />
<glyph unicode="&#x137;" horiz-adv-x="1001" d="M2 0l262 1493h281l-144 -813l304 395h335l-389 -438l248 -637h-287l-149 424l-131 -148l-49 -276h-281zM205 -532l123 170h-90l43 245h204l-36 -270l-203 -217z" />
<glyph unicode="&#x138;" horiz-adv-x="1001" d="M2 0l188 1075h281l-70 -395l304 395h335l-389 -438l248 -637h-287l-149 424l-133 -150l-47 -274h-281z" />
<glyph unicode="&#x139;" horiz-adv-x="995" d="M27 0l252 1434h292l-206 -1178h540l-43 -256h-835zM250 1520l256 282h325l-337 -282h-244z" />
<glyph unicode="&#x13a;" horiz-adv-x="507" d="M6 0l262 1493h281l-262 -1493h-281zM231 1579l256 283h326l-338 -283h-244z" />
<glyph unicode="&#x13b;" horiz-adv-x="995" d="M27 0l252 1434h292l-206 -1178h540l-43 -256h-835zM236 -532l122 170h-90l43 245h205l-37 -270l-203 -217z" />
<glyph unicode="&#x13c;" horiz-adv-x="509" d="M-49 -532l123 170h-90l43 245h204l-36 -270l-203 -217zM6 0l262 1493h281l-262 -1493h-281z" />
<glyph unicode="&#x13d;" horiz-adv-x="995" d="M27 0l252 1434h292l-206 -1178h540l-43 -256h-835zM575 1018l123 170h-90l43 246h205l-37 -271l-203 -217z" />
<glyph unicode="&#x13e;" horiz-adv-x="614" d="M6 0l262 1493h281l-262 -1493h-281zM553 1077l123 170h-90l43 246h205l-37 -270l-203 -217z" />
<glyph unicode="&#x13f;" horiz-adv-x="997" d="M27 0l252 1434h292l-206 -1178h540l-43 -256h-835zM668 629l43 245h225l-43 -245h-225z" />
<glyph unicode="&#x140;" horiz-adv-x="665" d="M6 0l262 1493h281l-262 -1493h-281zM473 629l43 245h225l-43 -245h-225z" />
<glyph unicode="&#x141;" horiz-adv-x="1011" d="M2 406l49 270l125 72l121 686h293l-88 -498l248 143l-48 -270l-247 -143l-72 -410h541l-43 -256h-836l84 479z" />
<glyph unicode="&#x142;" horiz-adv-x="583" d="M27 455l47 270l116 66l123 702h281l-92 -522l112 65l-47 -270l-112 -66l-123 -700h-281l90 520z" />
<glyph unicode="&#x143;" horiz-adv-x="1296" d="M27 0l252 1434h294l275 -947l166 947h293l-254 -1434h-293l-277 944l-164 -944h-292zM627 1520l256 282h325l-338 -282h-243z" />
<glyph unicode="&#x144;" d="M2 0l188 1075h281l-22 -125q190 148 339 148q137 0 194 -92t26 -261l-131 -745h-281l123 700q30 168 -68 168q-55 0 -121 -41t-118 -94l-129 -733h-281zM461 1210l256 283h325l-337 -283h-244z" />
<glyph unicode="&#x145;" horiz-adv-x="1296" d="M27 0l252 1434h294l275 -947l166 947h293l-254 -1434h-293l-277 944l-164 -944h-292zM354 -532l123 170h-90l43 245h205l-37 -270l-203 -217z" />
<glyph unicode="&#x146;" d="M2 0l188 1075h281l-22 -125q190 148 339 148q137 0 194 -92t26 -261l-131 -745h-281l123 700q30 168 -68 168q-55 0 -121 -41t-118 -94l-129 -733h-281zM242 -532l123 170h-91l43 245h205l-37 -270l-202 -217z" />
<glyph unicode="&#x147;" horiz-adv-x="1296" d="M27 0l252 1434h294l275 -947l166 947h293l-254 -1434h-293l-277 944l-164 -944h-292zM557 1802h178l96 -151l146 151h203l-230 -282h-264z" />
<glyph unicode="&#x148;" horiz-adv-x="1085" d="M2 0l188 1075h281l-22 -125q190 148 339 148q137 0 194 -92t26 -261l-131 -745h-281l123 700q30 168 -68 168q-55 0 -121 -41t-118 -94l-129 -733h-281zM389 1493h178l97 -152l145 152h203l-230 -283h-264z" />
<glyph unicode="&#x149;" d="M2 0l188 1075h281l-22 -125q190 148 339 148q137 0 194 -92t26 -261l-131 -745h-281l123 700q30 168 -68 168q-55 0 -121 -41t-118 -94l-129 -733h-281zM215 1225l123 170h-90l43 245h205l-37 -270l-203 -217z" />
<glyph unicode="&#x14a;" horiz-adv-x="1296" d="M27 0l252 1434h294l275 -947l166 947h293l-236 -1330q-10 -57 -17.5 -90t-20.5 -75t-27.5 -66t-38.5 -54.5t-55 -50t-75 -43t-100 -43t-129 -40.5l-65 233q101 37 147 65t66 72l-273 932l-164 -944h-292z" />
<glyph unicode="&#x14b;" d="M2 0l188 1075h281l-22 -125q190 148 339 148q138 0 194.5 -92t25.5 -263l-127 -716q-15 -86 -23.5 -126t-29.5 -98t-49 -87t-76.5 -65.5t-118.5 -61.5t-170 -50l-58 223q64 24 102.5 43t64 36t39 43t20 49t14.5 71l125 696q6 46 6.5 83.5t-18.5 61t-58 23.5 q-55 0 -121 -41t-118 -94l-129 -733h-281z" />
<glyph unicode="&#x14c;" horiz-adv-x="1335" d="M86 532q0 75 10.5 157.5t35 173.5t60.5 175t90.5 160.5t121.5 133.5t157.5 90.5t194.5 33.5q251 0 388.5 -139.5t137.5 -411.5q0 -76 -10.5 -158.5t-35 -174t-60 -176t-90 -161.5t-121 -134t-157 -90.5t-194.5 -33.5q-251 0 -389.5 141t-138.5 414zM385 535 q0 -297 238 -297q78 0 142.5 54t104 133.5t66.5 174t38 170.5t11 129q0 297 -237 297q-78 0 -143 -54t-104.5 -133.5t-67 -174t-38 -170.5t-10.5 -129zM575 1571l31 174h522l-30 -174h-523z" />
<glyph unicode="&#x14d;" horiz-adv-x="1083" d="M47 410q0 94 17.5 187.5t58.5 184.5t100 160.5t149.5 112.5t200.5 43q90 0 166.5 -24.5t138 -74.5t97 -135t35.5 -198q0 -94 -17.5 -187.5t-58.5 -185t-100.5 -161t-150 -112.5t-200.5 -43q-90 0 -166 24.5t-138 74.5t-97 135.5t-35 198.5zM328 401q0 -97 36.5 -146.5 t120.5 -49.5q61 0 110.5 50.5t77 126.5t42 152t14.5 138q0 99 -37 148.5t-121 49.5q-61 0 -110.5 -50.5t-77 -127t-41.5 -152.5t-14 -139zM395 1262l31 174h522l-30 -174h-523z" />
<glyph unicode="&#x14e;" horiz-adv-x="1335" d="M86 532q0 75 10.5 157.5t35 173.5t60.5 175t90.5 160.5t121.5 133.5t157.5 90.5t194.5 33.5q251 0 388.5 -139.5t137.5 -411.5q0 -76 -10.5 -158.5t-35 -174t-60 -176t-90 -161.5t-121 -134t-157 -90.5t-194.5 -33.5q-251 0 -389.5 141t-138.5 414zM385 535 q0 -297 238 -297q78 0 142.5 54t104 133.5t66.5 174t38 170.5t11 129q0 297 -237 297q-78 0 -143 -54t-104.5 -133.5t-67 -174t-38 -170.5t-10.5 -129zM588 1772h168q-6 -43 17.5 -67t70.5 -24q61 0 100 24.5t45 66.5h170q-20 -118 -104.5 -185t-218.5 -67q-136 0 -201.5 70 t-46.5 182z" />
<glyph unicode="&#x14f;" horiz-adv-x="1083" d="M47 410q0 94 17.5 187.5t58.5 184.5t100 160.5t149.5 112.5t200.5 43q90 0 166.5 -24.5t138 -74.5t97 -135t35.5 -198q0 -94 -17.5 -187.5t-58.5 -185t-100.5 -161t-150 -112.5t-200.5 -43q-90 0 -166 24.5t-138 74.5t-97 135.5t-35 198.5zM328 401q0 -97 36.5 -146.5 t120.5 -49.5q61 0 110.5 50.5t77 126.5t42 152t14.5 138q0 99 -37 148.5t-121 49.5q-61 0 -110.5 -50.5t-77 -127t-41.5 -152.5t-14 -139zM408 1462h167q-6 -43 17.5 -66.5t71.5 -23.5q61 0 100 24t45 66h170q-20 -118 -105 -185t-219 -67q-136 0 -201 70t-46 182z" />
<glyph unicode="&#x150;" horiz-adv-x="1335" d="M86 532q0 75 10.5 157.5t35 173.5t60.5 175t90.5 160.5t121.5 133.5t157.5 90.5t194.5 33.5q251 0 388.5 -139.5t137.5 -411.5q0 -76 -10.5 -158.5t-35 -174t-60 -176t-90 -161.5t-121 -134t-157 -90.5t-194.5 -33.5q-251 0 -389.5 141t-138.5 414zM385 535 q0 -297 238 -297q78 0 142.5 54t104 133.5t66.5 174t38 170.5t11 129q0 297 -237 297q-78 0 -143 -54t-104.5 -133.5t-67 -174t-38 -170.5t-10.5 -129zM559 1520l182 282h250l-264 -282h-168zM872 1520l183 282h248l-263 -282h-168z" />
<glyph unicode="&#x151;" horiz-adv-x="1083" d="M47 410q0 94 17.5 187.5t58.5 184.5t100 160.5t149.5 112.5t200.5 43q90 0 166.5 -24.5t138 -74.5t97 -135t35.5 -198q0 -94 -17.5 -187.5t-58.5 -185t-100.5 -161t-150 -112.5t-200.5 -43q-90 0 -166 24.5t-138 74.5t-97 135.5t-35 198.5zM328 401q0 -97 36.5 -146.5 t120.5 -49.5q61 0 110.5 50.5t77 126.5t42 152t14.5 138q0 99 -37 148.5t-121 49.5q-61 0 -110.5 -50.5t-77 -127t-41.5 -152.5t-14 -139zM379 1210l182 283h250l-264 -283h-168zM692 1210l182 283h248l-262 -283h-168z" />
<glyph unicode="&#x152;" horiz-adv-x="1900" d="M86 532q0 75 10.5 157.5t35 173.5t60.5 175t90.5 160.5t121.5 133.5t157.5 90.5t194.5 33.5q207 0 338 -96l14 74h852l-47 -260h-557l-60 -330h457l-45 -254h-457l-57 -330h567l-45 -260h-860l6 33q-115 -56 -248 -56q-251 0 -389.5 141t-138.5 414zM385 535 q0 -297 238 -297q78 0 142.5 54t104 133.5t66.5 174t38 170.5t11 129q0 297 -237 297q-78 0 -143 -54t-104.5 -133.5t-67 -174t-38 -170.5t-10.5 -129z" />
<glyph unicode="&#x153;" horiz-adv-x="1665" d="M47 410q0 94 17.5 187.5t58.5 184.5t100 160.5t149.5 112.5t200.5 43q222 0 342 -140q146 140 359 140q161 0 255.5 -80.5t94.5 -214.5q0 -365 -539 -365h-84v-28q0 -213 138 -213q16 0 35.5 3.5t35.5 7t40.5 13.5t38 15t43 19.5t40 20t44 22.5t40.5 21l84 -200 q-80 -47 -209.5 -94.5t-255.5 -47.5q-186 0 -274 121q-131 -121 -318 -121q-90 0 -166 24.5t-138 74.5t-97 135.5t-35 198.5zM328 401q0 -97 36.5 -146.5t120.5 -49.5q61 0 110.5 50.5t77 126.5t42 152t14.5 138q0 99 -37 148.5t-121 49.5q-61 0 -110.5 -50.5t-77 -127 t-41.5 -152.5t-14 -139zM1022 598h72q128 0 198 50.5t70 135.5q0 47 -29 75t-76 28q-87 0 -146.5 -81.5t-88.5 -207.5z" />
<glyph unicode="&#x154;" horiz-adv-x="1230" d="M27 0l252 1434h481q473 0 473 -363q0 -79 -21.5 -154t-65.5 -144t-120.5 -122t-175.5 -78l201 -573h-306l-172 555h-157l-97 -555h-292zM459 797h192q137 0 210 67.5t73 179.5q0 80 -53.5 114t-151.5 34h-201zM614 1520l256 282h326l-338 -282h-244z" />
<glyph unicode="&#x155;" horiz-adv-x="743" d="M2 0l188 1075h281l-39 -225q14 26 29 48.5t50.5 62.5t73 67t94.5 45.5t118 13.5l-49 -276q-59 0 -112.5 -20.5t-91.5 -53t-70 -72t-52.5 -79.5t-35 -72.5t-20.5 -53.5l-6 -20l-77 -440h-281zM326 1210l256 283h325l-338 -283h-243z" />
<glyph unicode="&#x156;" horiz-adv-x="1230" d="M27 0l252 1434h481q473 0 473 -363q0 -79 -21.5 -154t-65.5 -144t-120.5 -122t-175.5 -78l201 -573h-306l-172 555h-157l-97 -555h-292zM305 -532l123 170h-90l43 245h205l-37 -270l-203 -217zM459 797h192q137 0 210 67.5t73 179.5q0 80 -53.5 114t-151.5 34h-201z" />
<glyph unicode="&#x157;" horiz-adv-x="745" d="M-55 -532l123 170h-91l43 245h205l-37 -270l-202 -217zM2 0l188 1075h281l-39 -225q14 26 29 48.5t50.5 62.5t73 67t94.5 45.5t118 13.5l-49 -276q-59 0 -112.5 -20.5t-91.5 -53t-70 -72t-52.5 -79.5t-35 -72.5t-20.5 -53.5l-6 -20l-77 -440h-281z" />
<glyph unicode="&#x158;" horiz-adv-x="1230" d="M27 0l252 1434h481q473 0 473 -363q0 -79 -21.5 -154t-65.5 -144t-120.5 -122t-175.5 -78l201 -573h-306l-172 555h-157l-97 -555h-292zM459 797h192q137 0 210 67.5t73 179.5q0 80 -53.5 114t-151.5 34h-201zM545 1802h178l96 -151l146 151h202l-229 -282h-264z" />
<glyph unicode="&#x159;" horiz-adv-x="743" d="M2 0l188 1075h281l-39 -225q14 26 29 48.5t50.5 62.5t73 67t94.5 45.5t118 13.5l-49 -276q-59 0 -112.5 -20.5t-91.5 -53t-70 -72t-52.5 -79.5t-35 -72.5t-20.5 -53.5l-6 -20l-77 -440h-281zM256 1493h178l96 -152l146 152h203l-230 -283h-264z" />
<glyph unicode="&#x15a;" horiz-adv-x="1120" d="M-16 180l163 209q92 -63 195.5 -109.5t185.5 -46.5q77 0 129 42.5t52 113.5q0 28 -11 52.5t-26.5 42t-46 38.5t-54 34t-67.5 36.5t-70 38.5q-136 84 -208 176t-72 225q0 88 32 164.5t91 134.5t149.5 91.5t200.5 33.5q252 0 516 -164l-166 -211q-75 48 -170 83.5 t-166 35.5q-72 0 -122 -38.5t-50 -110.5q0 -26 9.5 -48t22 -37.5t41.5 -35t50 -31t66 -35.5t73 -39q64 -39 109 -74t91 -85.5t69.5 -114t23.5 -139.5q0 -89 -34 -168t-96 -138.5t-156 -94t-206 -34.5q-153 0 -295 58.5t-253 144.5zM526 1520l256 282h326l-338 -282h-244z " />
<glyph unicode="&#x15b;" horiz-adv-x="940" d="M-29 133l135 195q75 -48 167 -85.5t157 -37.5q53 0 86 26t33 68q0 18 -8 33.5t-17.5 26t-32 22.5t-37.5 19t-48 20.5t-50 21.5q-44 20 -77 38t-69.5 47t-60.5 60.5t-39.5 76.5t-15.5 98q0 148 105 242t286 94q114 0 225.5 -37.5t196.5 -89.5l-133 -193q-64 38 -141.5 66 t-136.5 28q-52 0 -83.5 -24t-31.5 -64q0 -18 7.5 -34t17 -26t31 -22t35.5 -18t46 -19t47 -20q58 -25 101 -51t85 -64.5t64.5 -92t22.5 -118.5q0 -152 -109.5 -247t-296.5 -95q-128 0 -249 46t-212 110zM391 1210l256 283h326l-338 -283h-244z" />
<glyph unicode="&#x15c;" horiz-adv-x="1120" d="M-16 180l163 209q92 -63 195.5 -109.5t185.5 -46.5q77 0 129 42.5t52 113.5q0 28 -11 52.5t-26.5 42t-46 38.5t-54 34t-67.5 36.5t-70 38.5q-136 84 -208 176t-72 225q0 88 32 164.5t91 134.5t149.5 91.5t200.5 33.5q252 0 516 -164l-166 -211q-75 48 -170 83.5 t-166 35.5q-72 0 -122 -38.5t-50 -110.5q0 -26 9.5 -48t22 -37.5t41.5 -35t50 -31t66 -35.5t73 -39q64 -39 109 -74t91 -85.5t69.5 -114t23.5 -139.5q0 -89 -34 -168t-96 -138.5t-156 -94t-206 -34.5q-153 0 -295 58.5t-253 144.5zM408 1520l229 282h264l127 -282h-176 l-96 153l-146 -153h-202z" />
<glyph unicode="&#x15d;" horiz-adv-x="940" d="M-29 133l135 195q75 -48 167 -85.5t157 -37.5q53 0 86 26t33 68q0 18 -8 33.5t-17.5 26t-32 22.5t-37.5 19t-48 20.5t-50 21.5q-44 20 -77 38t-69.5 47t-60.5 60.5t-39.5 76.5t-15.5 98q0 148 105 242t286 94q114 0 225.5 -37.5t196.5 -89.5l-133 -193q-64 38 -141.5 66 t-136.5 28q-52 0 -83.5 -24t-31.5 -64q0 -18 7.5 -34t17 -26t31 -22t35.5 -18t46 -19t47 -20q58 -25 101 -51t85 -64.5t64.5 -92t22.5 -118.5q0 -152 -109.5 -247t-296.5 -95q-128 0 -249 46t-212 110zM272 1210l230 283h264l127 -283h-176l-96 154l-146 -154h-203z" />
<glyph unicode="&#x15e;" horiz-adv-x="1120" d="M-16 180l163 209q92 -63 195.5 -109.5t185.5 -46.5q77 0 129 42.5t52 113.5q0 28 -11 52.5t-26.5 42t-46 38.5t-54 34t-67.5 36.5t-70 38.5q-136 84 -208 176t-72 225q0 88 32 164.5t91 134.5t149.5 91.5t200.5 33.5q252 0 516 -164l-166 -211q-75 48 -170 83.5 t-166 35.5q-72 0 -122 -38.5t-50 -110.5q0 -26 9.5 -48t22 -37.5t41.5 -35t50 -31t66 -35.5t73 -39q64 -39 109 -74t91 -85.5t69.5 -114t23.5 -139.5q0 -115 -54 -210t-159 -155t-244 -67q27 -73 27 -132q0 -107 -64 -165t-159 -58q-97 0 -158 45l82 146q39 -25 76 -25 q38 0 63 23t25 77q0 36 -17 93q-130 16 -248.5 70t-209.5 126z" />
<glyph unicode="&#x15f;" horiz-adv-x="940" d="M-29 133l135 195q75 -48 167 -85.5t157 -37.5q53 0 86 26t33 68q0 18 -8 33.5t-17.5 26t-32 22.5t-37.5 19t-48 20.5t-50 21.5q-44 20 -77 38t-69.5 47t-60.5 60.5t-39.5 76.5t-15.5 98q0 148 105 242t286 94q114 0 225.5 -37.5t196.5 -89.5l-133 -193q-64 38 -141.5 66 t-136.5 28q-52 0 -83.5 -24t-31.5 -64q0 -18 7.5 -34t17 -26t31 -22t35.5 -18t46 -19t47 -20q58 -25 101 -51t85 -64.5t64.5 -92t22.5 -118.5q0 -138 -91.5 -230t-252.5 -107q28 -63 28 -134q0 -107 -64 -165t-159 -58q-97 0 -158 45l82 146q39 -25 76 -25q38 0 63 23t25 77 q0 43 -16 89q-211 21 -400 153z" />
<glyph unicode="&#x160;" horiz-adv-x="1120" d="M-16 180l163 209q92 -63 195.5 -109.5t185.5 -46.5q77 0 129 42.5t52 113.5q0 28 -11 52.5t-26.5 42t-46 38.5t-54 34t-67.5 36.5t-70 38.5q-136 84 -208 176t-72 225q0 88 32 164.5t91 134.5t149.5 91.5t200.5 33.5q252 0 516 -164l-166 -211q-75 48 -170 83.5 t-166 35.5q-72 0 -122 -38.5t-50 -110.5q0 -26 9.5 -48t22 -37.5t41.5 -35t50 -31t66 -35.5t73 -39q64 -39 109 -74t91 -85.5t69.5 -114t23.5 -139.5q0 -89 -34 -168t-96 -138.5t-156 -94t-206 -34.5q-153 0 -295 58.5t-253 144.5zM457 1802h178l96 -151l146 151h202 l-229 -282h-264z" />
<glyph unicode="&#x161;" horiz-adv-x="937" d="M-29 133l135 195q75 -48 167 -85.5t157 -37.5q53 0 86 26t33 68q0 18 -8 33.5t-17.5 26t-32 22.5t-37.5 19t-48 20.5t-50 21.5q-44 20 -77 38t-69.5 47t-60.5 60.5t-39.5 76.5t-15.5 98q0 148 105 242t286 94q114 0 225.5 -37.5t196.5 -89.5l-133 -193q-64 38 -141.5 66 t-136.5 28q-52 0 -83.5 -24t-31.5 -64q0 -18 7.5 -34t17 -26t31 -22t35.5 -18t46 -19t47 -20q58 -25 101 -51t85 -64.5t64.5 -92t22.5 -118.5q0 -152 -109.5 -247t-296.5 -95q-128 0 -249 46t-212 110zM317 1493h179l96 -152l145 152h203l-229 -283h-265z" />
<glyph unicode="&#x162;" horiz-adv-x="1021" d="M121 -330l82 146q39 -25 76 -25q38 0 63 23t25 77q0 40 -23 109h-86l207 1174h-336l45 260h963l-47 -260h-332l-207 -1174h-86q5 -9 12.5 -26t16 -53.5t8.5 -72.5q0 -107 -64 -165t-159 -58q-97 0 -158 45z" />
<glyph unicode="&#x163;" horiz-adv-x="741" d="M29 -330l82 146q39 -25 75 -25q38 0 63 23t25 77q0 50 -18 95q-195 51 -137 376l88 496h-121l39 217h119l47 260l289 51l-56 -311h236l-39 -217h-236l-90 -520q-19 -105 45 -105q12 0 25.5 3t31 9t27.5 10.5t30.5 13.5t23.5 10l61 -228q-142 -57 -258 -69q29 -65 29 -134 q0 -107 -64.5 -165t-159.5 -58q-96 0 -157 45z" />
<glyph unicode="&#x164;" horiz-adv-x="1021" d="M129 1174l45 260h963l-47 -260h-332l-207 -1174h-293l207 1174h-336zM410 1802h178l96 -151l145 151h203l-229 -282h-264z" />
<glyph unicode="&#x165;" horiz-adv-x="741" d="M86 858l39 217h119l47 260l289 51l-56 -311h236l-39 -217h-236l-90 -520q-19 -105 45 -105q12 0 25.5 3t31 9t27.5 10.5t30.5 13.5t23.5 10l61 -228q-186 -74 -307 -74q-136 0 -191 96.5t-22 288.5l88 496h-121zM631 1225l123 170h-90l43 245h204l-37 -270l-202 -217z " />
<glyph unicode="&#x166;" horiz-adv-x="1038" d="M137 1174l45 260h963l-47 -260h-332l-100 -564h151l-31 -174h-151l-76 -436h-293l76 436h-149l30 174h150l100 564h-336z" />
<glyph unicode="&#x167;" horiz-adv-x="741" d="M61 520l31 174h84l31 164h-121l39 217h119l47 260l289 51l-56 -311h236l-39 -217h-236l-28 -164h184l-31 -174h-184l-31 -182q-19 -105 45 -105q12 0 25.5 3t31 9t27.5 10.5t30.5 13.5t23.5 10l61 -228q-186 -74 -307 -74q-136 0 -191 96.5t-22 288.5l26 158h-84z" />
<glyph unicode="&#x168;" horiz-adv-x="1249" d="M90 376.5q1 82.5 19 186.5l153 871h293l-164 -922q-12 -56 -10.5 -105.5t15.5 -86.5t53 -58.5t102 -21.5q122 0 181.5 71.5t82.5 200.5l164 922h291l-162 -920q-14 -79 -33.5 -143.5t-49.5 -127.5t-73 -109.5t-100.5 -83t-136 -55t-174.5 -18.5q-127 0 -217 30.5 t-140 81.5t-72.5 128t-21.5 159.5zM479 1612q31 51 49.5 76.5t47 57t59 45t67.5 13.5q38 0 80.5 -24.5t78 -49t57.5 -24.5q41 0 104 96l113 -80q-32 -51 -51 -78t-48 -58t-59.5 -44.5t-67.5 -13.5q-38 0 -80 24.5t-76.5 49t-56.5 24.5q-43 0 -106 -96z" />
<glyph unicode="&#x169;" d="M53 330l131 745h281l-125 -700q-30 -168 70 -168q54 0 121 40t118 91l129 737h281l-189 -1075h-280l20 123q-195 -146 -338 -146q-137 0 -193.5 91.5t-25.5 261.5zM356 1303q31 50 50 76.5t47.5 57.5t59 44.5t67.5 13.5q38 0 80.5 -24.5t77.5 -49t57 -24.5q41 0 104 96 l113 -80q-32 -51 -51 -78t-48 -58t-59.5 -44.5t-67.5 -13.5q-38 0 -80 24.5t-76.5 49t-56.5 24.5q-43 0 -106 -96z" />
<glyph unicode="&#x16a;" horiz-adv-x="1249" d="M90 376.5q1 82.5 19 186.5l153 871h293l-164 -922q-12 -56 -10.5 -105.5t15.5 -86.5t53 -58.5t102 -21.5q122 0 181.5 71.5t82.5 200.5l164 922h291l-162 -920q-14 -79 -33.5 -143.5t-49.5 -127.5t-73 -109.5t-100.5 -83t-136 -55t-174.5 -18.5q-127 0 -217 30.5 t-140 81.5t-72.5 128t-21.5 159.5zM528 1571l31 174h522l-30 -174h-523z" />
<glyph unicode="&#x16b;" d="M53 330l131 745h281l-125 -700q-30 -168 70 -168q54 0 121 40t118 91l129 737h281l-189 -1075h-280l20 123q-195 -146 -338 -146q-137 0 -193.5 91.5t-25.5 261.5zM391 1262l31 174h522l-31 -174h-522z" />
<glyph unicode="&#x16c;" horiz-adv-x="1249" d="M90 376.5q1 82.5 19 186.5l153 871h293l-164 -922q-12 -56 -10.5 -105.5t15.5 -86.5t53 -58.5t102 -21.5q122 0 181.5 71.5t82.5 200.5l164 922h291l-162 -920q-14 -79 -33.5 -143.5t-49.5 -127.5t-73 -109.5t-100.5 -83t-136 -55t-174.5 -18.5q-127 0 -217 30.5 t-140 81.5t-72.5 128t-21.5 159.5zM541 1772h168q-6 -43 17.5 -67t70.5 -24q61 0 100 24.5t45 66.5h170q-20 -118 -105 -185t-219 -67q-136 0 -201 70t-46 182z" />
<glyph unicode="&#x16d;" d="M53 330l131 745h281l-125 -700q-30 -168 70 -168q54 0 121 40t118 91l129 737h281l-189 -1075h-280l20 123q-195 -146 -338 -146q-137 0 -193.5 91.5t-25.5 261.5zM403 1462h168q-6 -43 17.5 -66.5t70.5 -23.5q61 0 100.5 24t45.5 66h170q-20 -118 -105 -185t-219 -67 q-136 0 -201.5 70t-46.5 182z" />
<glyph unicode="&#x16e;" horiz-adv-x="1249" d="M90 376.5q1 82.5 19 186.5l153 871h293l-164 -922q-12 -56 -10.5 -105.5t15.5 -86.5t53 -58.5t102 -21.5q122 0 181.5 71.5t82.5 200.5l164 922h291l-162 -920q-14 -79 -33.5 -143.5t-49.5 -127.5t-73 -109.5t-100.5 -83t-136 -55t-174.5 -18.5q-127 0 -217 30.5 t-140 81.5t-72.5 128t-21.5 159.5zM602 1714q0 89 63 152t152 63t152 -63t63 -152t-63 -152t-152 -63t-152 63t-63 152zM735 1714q0 -34 24 -57t58 -23t58 23t24 57t-24 58t-58 24t-58 -24t-24 -58z" />
<glyph unicode="&#x16f;" d="M53 330l131 745h281l-125 -700q-30 -168 70 -168q54 0 121 40t118 91l129 737h281l-189 -1075h-280l20 123q-195 -146 -338 -146q-137 0 -193.5 91.5t-25.5 261.5zM467 1405q0 89 63 152t152 63t152 -63t63 -152t-63 -152t-152 -63t-152 63t-63 152zM600 1405 q0 -34 24 -57t58 -23t58 23t24 57t-24 58t-58 24t-58 -24t-24 -58z" />
<glyph unicode="&#x170;" horiz-adv-x="1249" d="M90 376.5q1 82.5 19 186.5l153 871h293l-164 -922q-12 -56 -10.5 -105.5t15.5 -86.5t53 -58.5t102 -21.5q122 0 181.5 71.5t82.5 200.5l164 922h291l-162 -920q-14 -79 -33.5 -143.5t-49.5 -127.5t-73 -109.5t-100.5 -83t-136 -55t-174.5 -18.5q-127 0 -217 30.5 t-140 81.5t-72.5 128t-21.5 159.5zM514 1520l182 282h250l-264 -282h-168zM827 1520l183 282h247l-262 -282h-168z" />
<glyph unicode="&#x171;" d="M53 330l131 745h281l-125 -700q-30 -168 70 -168q54 0 121 40t118 91l129 737h281l-189 -1075h-280l20 123q-195 -146 -338 -146q-137 0 -193.5 91.5t-25.5 261.5zM375 1210l182 283h250l-264 -283h-168zM688 1210l182 283h248l-262 -283h-168z" />
<glyph unicode="&#x172;" horiz-adv-x="1251" d="M91.5 380q1.5 81 19.5 183l153 871h293l-164 -922q-12 -56 -10.5 -105.5t15.5 -86.5t53 -58.5t102 -21.5q122 0 181.5 71.5t82.5 200.5l164 922h291l-162 -920q-18 -100 -44.5 -176.5t-70.5 -147.5t-112.5 -119t-159.5 -71q-87 -58 -136.5 -107.5t-49.5 -99.5 q0 -11 4 -20t9 -15t14.5 -10t16 -6t19 -3t18.5 -1h18.5h14.5l-51 -135h-18h-27t-29.5 1.5t-34 4t-32.5 8t-32.5 13.5t-28 20t-24 27t-14.5 35.5t-6 45.5q0 126 162 219q-120 3 -205 35t-132 83t-68 127.5t-19.5 157.5z" />
<glyph unicode="&#x173;" d="M53 330l131 745h281l-125 -700q-30 -168 70 -168q54 0 121 40t118 91l129 737h281l-189 -1075h-8q-86 -56 -137 -106.5t-51 -100.5q0 -11 4 -20t9 -15t14.5 -10t16 -6t19 -3t18.5 -1h18.5h14.5l-51 -135h-19h-26t-29.5 1.5t-33.5 4t-32.5 8t-33 13.5t-27.5 20t-23.5 27 t-14.5 35.5t-6 45.5q0 76 53 133.5t149 108.5h-104l20 123q-195 -146 -338 -146q-137 0 -193.5 91.5t-25.5 261.5z" />
<glyph unicode="&#x174;" horiz-adv-x="1667" d="M174 1434h322l-7 -957l359 957h235l23 -957l330 957h338l-578 -1434h-281l-28 958l-361 -958h-280zM680 1520l229 282h265l126 -282h-176l-96 153l-145 -153h-203z" />
<glyph unicode="&#x175;" horiz-adv-x="1447" d="M113 1075h293l2 -706l284 706h213l33 -706l250 706h303l-459 -1075h-258l-41 674l-280 -674h-260zM514 1210l229 283h265l127 -283h-177l-96 154l-145 -154h-203z" />
<glyph unicode="&#x177;" horiz-adv-x="1011" d="M-25 -231q107 43 169 81.5t112 102.5l-154 1122h289l58 -727l311 727h305l-522 -1075q-24 -48 -34.5 -69.5t-33.5 -63.5t-38 -62.5t-41.5 -55t-49.5 -53.5t-57.5 -45.5t-70.5 -43.5t-82 -35t-99 -31zM297 1210l229 283h265l127 -283h-177l-96 154l-145 -154h-203z" />
<glyph unicode="&#x178;" horiz-adv-x="1142" d="M147 1434h312l137 -590l340 590h338l-567 -861l-101 -573h-291l99 569zM461 1540l43 242h219l-41 -242h-221zM782 1540l43 242h219l-43 -242h-219z" />
<glyph unicode="&#x179;" horiz-adv-x="1097" d="M-49 0l41 233l743 941h-540l45 260h923l-41 -232l-745 -942h590l-45 -260h-971zM526 1520l256 282h326l-338 -282h-244z" />
<glyph unicode="&#x17a;" horiz-adv-x="970" d="M-49 0l37 205l579 626h-452l45 244h825l-37 -205l-581 -626h471l-43 -244h-844zM397 1210l256 283h326l-338 -283h-244z" />
<glyph unicode="&#x17b;" horiz-adv-x="1097" d="M-49 0l41 233l743 941h-540l45 260h923l-41 -232l-745 -942h590l-45 -260h-971zM608 1540l43 246h226l-43 -246h-226z" />
<glyph unicode="&#x17c;" horiz-adv-x="970" d="M-49 0l37 205l579 626h-452l45 244h825l-37 -205l-581 -626h471l-43 -244h-844zM479 1231l43 246h226l-43 -246h-226z" />
<glyph unicode="&#x17d;" horiz-adv-x="1097" d="M-49 0l41 233l743 941h-540l45 260h923l-41 -232l-745 -942h590l-45 -260h-971zM455 1802h178l96 -151l145 151h203l-229 -282h-264z" />
<glyph unicode="&#x17e;" horiz-adv-x="970" d="M-49 0l37 205l579 626h-452l45 244h825l-37 -205l-581 -626h471l-43 -244h-844zM326 1493h178l96 -152l145 152h203l-229 -283h-264z" />
<glyph unicode="&#x17f;" horiz-adv-x="600" d="M-180 -242q41 15 69 27t52.5 27t39.5 25t28.5 30t20.5 33t15 42.5t12.5 50.5t12.5 64l139 801h-117l39 217h117l10 55q32 188 102.5 275.5t204.5 87.5q150 0 330 -102l-129 -191q-90 39 -143 39q-66 0 -82 -98l-187 -1061q-34 -192 -60 -259q-40 -106 -131 -166 q-89 -60 -284 -114z" />
<glyph unicode="&#x192;" horiz-adv-x="1032" d="M-125 -418l463 1276h-119l84 217h113l24 66q33 94 65 156t74.5 108.5t97.5 67t128 20.5q138 0 334 -109l-166 -192q-109 47 -154 43q-31 -2 -54.5 -27t-43.5 -80l-21 -53h238l-84 -217h-231l-463 -1276h-285z" />
<glyph unicode="&#x1fc;" horiz-adv-x="1824" d="M-152 0l1039 1434h995l-47 -260h-557l-59 -330h456l-45 -254h-456l-58 -330h567l-45 -260h-860l49 285h-411l-197 -285h-371zM586 532h284l99 553zM944 1520l256 282h326l-338 -282h-244z" />
<glyph unicode="&#x1fd;" horiz-adv-x="1624" d="M47 340q0 144 31 279t87 242t143.5 172t191.5 65q86 0 148 -40.5t120 -107.5l23 125h280v-2q77 25 160 25q161 0 255.5 -80.5t94.5 -214.5q0 -365 -539 -365h-84v-28q0 -213 138 -213q16 0 35.5 3.5t35.5 7t40.5 13.5t38 15t43 19.5t40 20t44 22.5t40.5 21l84 -200 q-80 -47 -209.5 -94.5t-255.5 -47.5q-84 0 -151 27v-4h-281l23 131q-162 -154 -316 -154q-119 0 -189.5 94.5t-70.5 268.5zM334 385q0 -79 26 -124.5t76 -45.5q102 0 228 147l12 68q3 171 51 299q-74 131 -168 131q-51 0 -95 -46t-71.5 -117.5t-43 -153.5t-15.5 -158z M721 1210l256 283h326l-338 -283h-244zM979 598h72q128 0 198 50.5t70 135.5q0 47 -29 75t-76 28q-87 0 -146.5 -81.5t-88.5 -207.5z" />
<glyph unicode="&#x1fe;" horiz-adv-x="1335" d="M0 0l162 201q-76 133 -76 331q0 75 10.5 157.5t35 173.5t60.5 175t90.5 160.5t121.5 133.5t157.5 90.5t194.5 33.5q214 0 346 -102l65 80h203l-164 -201q76 -133 76 -328q0 -76 -10.5 -158.5t-35 -174t-60 -176t-90 -161.5t-121 -134t-157 -90.5t-194.5 -33.5 q-217 0 -346 103l-65 -80h-203zM385 535q0 -40 2 -58l533 651q-59 68 -172 68q-78 0 -143 -54t-104.5 -133.5t-67 -174t-38 -170.5t-10.5 -129zM451 303q59 -65 172 -65q78 0 142.5 54t104 133.5t66.5 174t38 170.5t11 129q0 21 -4 57zM637 1520l256 282h326l-338 -282h-244 z" />
<glyph unicode="&#x1ff;" horiz-adv-x="1083" d="M-18 0l131 154q-66 101 -66 256q0 94 17.5 187.5t58.5 184.5t100 160.5t149.5 112.5t200.5 43q166 0 279 -80l47 57h162l-123 -145q72 -106 72 -264q0 -94 -17.5 -187.5t-58.5 -185t-100.5 -161t-150 -112.5t-200.5 -43q-172 0 -284 82l-52 -59h-165zM328 406l358 419 q-39 45 -115 45q-61 0 -110.5 -50t-77 -125t-41.5 -150.5t-14 -138.5zM365 254q37 -49 120 -49q61 0 110.5 50.5t77 126.5t42 152t14.5 138v12zM442 1210l256 283h326l-338 -283h-244z" />
<glyph unicode="&#x218;" horiz-adv-x="1120" d="M-16 180l163 209q92 -63 195.5 -109.5t185.5 -46.5q77 0 129 42.5t52 113.5q0 28 -11 52.5t-26.5 42t-46 38.5t-54 34t-67.5 36.5t-70 38.5q-136 84 -208 176t-72 225q0 88 32 164.5t91 134.5t149.5 91.5t200.5 33.5q252 0 516 -164l-166 -211q-75 48 -170 83.5 t-166 35.5q-72 0 -122 -38.5t-50 -110.5q0 -26 9.5 -48t22 -37.5t41.5 -35t50 -31t66 -35.5t73 -39q64 -39 109 -74t91 -85.5t69.5 -114t23.5 -139.5q0 -89 -34 -168t-96 -138.5t-156 -94t-206 -34.5q-153 0 -295 58.5t-253 144.5zM256 -532l123 170h-90l43 245h205 l-37 -270l-203 -217z" />
<glyph unicode="&#x219;" horiz-adv-x="940" d="M-29 133l135 195q75 -48 167 -85.5t157 -37.5q53 0 86 26t33 68q0 18 -8 33.5t-17.5 26t-32 22.5t-37.5 19t-48 20.5t-50 21.5q-44 20 -77 38t-69.5 47t-60.5 60.5t-39.5 76.5t-15.5 98q0 148 105 242t286 94q114 0 225.5 -37.5t196.5 -89.5l-133 -193q-64 38 -141.5 66 t-136.5 28q-52 0 -83.5 -24t-31.5 -64q0 -18 7.5 -34t17 -26t31 -22t35.5 -18t46 -19t47 -20q58 -25 101 -51t85 -64.5t64.5 -92t22.5 -118.5q0 -152 -109.5 -247t-296.5 -95q-128 0 -249 46t-212 110zM160 -532l123 170h-90l43 245h204l-37 -270l-202 -217z" />
<glyph unicode="&#x21a;" horiz-adv-x="1021" d="M129 1174l45 260h963l-47 -260h-332l-207 -1174h-293l207 1174h-336zM209 -532l123 170h-90l43 245h204l-36 -270l-203 -217z" />
<glyph unicode="&#x21b;" horiz-adv-x="741" d="M29 -532l123 170h-91l43 245h205l-37 -270l-202 -217zM86 858l39 217h119l47 260l289 51l-56 -311h236l-39 -217h-236l-90 -520q-19 -105 45 -105q12 0 25.5 3t31 9t27.5 10.5t30.5 13.5t23.5 10l61 -228q-186 -74 -307 -74q-136 0 -191 96.5t-22 288.5l88 496h-121z" />
<glyph unicode="&#x2b0;" horiz-adv-x="727" d="M115 788l157 895h191l-57 -321q120 86 210 86q88 0 124.5 -56.5t17.5 -160.5l-78 -443h-193l74 410q9 38 1 66t-40 28q-33 0 -72.5 -22.5t-68.5 -52.5l-76 -429h-190z" />
<glyph unicode="&#x2b2;" horiz-adv-x="585" d="M98 657q66 24 94.5 42t38 37.5t17.5 64.5l112 633h191l-109 -617q-7 -37 -10.5 -55t-10.5 -46.5t-14 -42.5t-19 -35.5t-27 -33t-36 -27.5t-48 -26t-62 -21.5t-78 -21.5zM371 1516l28 165h199l-29 -165h-198z" />
<glyph unicode="&#x2b7;" horiz-adv-x="796" d="M100 1434h199v-400l166 400h145l21 -398l143 398h205l-283 -646h-174l-26 388l-168 -388h-174z" />
<glyph unicode="&#x2b8;" horiz-adv-x="696" d="M115 662q47 18 69.5 28t51 29t49.5 43l-101 672h197l33 -414l182 414h209l-324 -646q-25 -49 -38.5 -73t-42.5 -63t-58.5 -61t-77 -45.5t-106.5 -37.5z" />
<glyph unicode="&#x2c6;" horiz-adv-x="509" d="M156 1210l229 283h264l127 -283h-176l-96 154l-146 -154h-202z" />
<glyph unicode="&#x2c7;" horiz-adv-x="512" d="M207 1493h178l96 -152l146 152h202l-229 -283h-264z" />
<glyph unicode="&#x2d8;" horiz-adv-x="485" d="M215 1462h168q-6 -43 17.5 -66.5t70.5 -23.5q61 0 100 24t45 66h170q-20 -118 -104.5 -185t-218.5 -67q-136 0 -201.5 70t-46.5 182z" />
<glyph unicode="&#x2d9;" horiz-adv-x="180" d="M190 1231l43 246h226l-43 -246h-226z" />
<glyph unicode="&#x2da;" horiz-adv-x="425" d="M125 1405q0 89 63 152t152 63t152 -63t63 -152t-63 -152t-152 -63t-152 63t-63 152zM258 1405q0 -34 24 -57t58 -23t58 23t24 57t-24 58t-58 24t-58 -24t-24 -58z" />
<glyph unicode="&#x2db;" horiz-adv-x="280" d="M-92 -242q0 84 65 146t183 119l127 -21q-90 -59 -141.5 -109t-51.5 -100q0 -11 4 -20t9 -15t14.5 -10t16.5 -6t19.5 -3t18.5 -1h18.5h14.5l-51 -135h-18h-27t-29.5 1.5t-34 4t-32.5 8t-32.5 13.5t-28 20t-24 27t-14.5 35.5t-6 45.5z" />
<glyph unicode="&#x2dc;" horiz-adv-x="520" d="M170 1303q31 51 49.5 76.5t47 57t59 45t67.5 13.5q38 0 80.5 -24.5t77.5 -49t57 -24.5q42 0 105 96l112 -80q-26 -41 -40.5 -63t-38 -51.5t-43 -44t-46.5 -25t-57 -10.5q-38 0 -80 24.5t-76.5 49t-56.5 24.5q-43 0 -106 -96z" />
<glyph unicode="&#x2dd;" horiz-adv-x="593" d="M160 1210l182 283h250l-264 -283h-168zM473 1210l182 283h248l-262 -283h-168z" />
<glyph unicode="&#x2e3;" horiz-adv-x="710" d="M55 788l271 324l-144 322h201l70 -207l141 207h223l-258 -322l156 -324h-205l-74 211l-143 -211h-238z" />
<glyph unicode="&#x3c0;" horiz-adv-x="991" d="M63 0l146 825h-135l43 250h919l-45 -250h-137l-145 -825h-240l145 825h-168l-143 -825h-240z" />
<glyph unicode="&#x1e80;" horiz-adv-x="1667" d="M174 1434h322l-7 -957l359 957h235l23 -957l330 957h338l-578 -1434h-281l-28 958l-361 -958h-280zM711 1802h295l161 -282h-215z" />
<glyph unicode="&#x1e81;" horiz-adv-x="1447" d="M113 1075h293l2 -706l284 706h213l33 -706l250 706h303l-459 -1075h-258l-41 674l-280 -674h-260zM549 1493h295l162 -283h-215z" />
<glyph unicode="&#x1e82;" horiz-adv-x="1667" d="M174 1434h322l-7 -957l359 957h235l23 -957l330 957h338l-578 -1434h-281l-28 958l-361 -958h-280zM799 1520l256 282h325l-338 -282h-243z" />
<glyph unicode="&#x1e83;" horiz-adv-x="1447" d="M113 1075h293l2 -706l284 706h213l33 -706l250 706h303l-459 -1075h-258l-41 674l-280 -674h-260zM635 1210l256 283h326l-338 -283h-244z" />
<glyph unicode="&#x1e84;" horiz-adv-x="1667" d="M174 1434h322l-7 -957l359 957h235l23 -957l330 957h338l-578 -1434h-281l-28 958l-361 -958h-280zM723 1530l43 242h219l-41 -242h-221zM1044 1530l43 242h220l-43 -242h-220z" />
<glyph unicode="&#x1e85;" horiz-adv-x="1447" d="M113 1075h293l2 -706l284 706h213l33 -706l250 706h303l-459 -1075h-258l-41 674l-280 -674h-260zM561 1231l43 242h219l-41 -242h-221zM883 1231l43 242h219l-43 -242h-219z" />
<glyph unicode="&#x1e9e;" horiz-adv-x="1435" d="M27 0l159 909q22 126 61.5 219t104 163.5t162 106.5t227.5 36h637l-37 -203l-323 -365q159 -46 246.5 -152t87.5 -253q0 -92 -33 -177.5t-95.5 -154.5t-162 -110.5t-221.5 -41.5q-220 0 -408 129l154 213q127 -88 241 -88q99 0 160.5 62.5t61.5 152.5q0 29 -7 55t-28 54 t-54.5 48t-90.5 33t-132 13h-90l35 193l293 332h-236q-110 0 -174.5 -71t-95.5 -245l-150 -858h-292z" />
<glyph unicode="&#x1ef2;" horiz-adv-x="1142" d="M147 1434h312l137 -590l340 590h338l-567 -861l-101 -573h-291l99 569zM449 1802h294l162 -282h-215z" />
<glyph unicode="&#x1ef3;" horiz-adv-x="1011" d="M-25 -231q107 43 169 81.5t112 102.5l-154 1122h289l58 -727l311 727h305l-522 -1075q-24 -48 -34.5 -69.5t-33.5 -63.5t-38 -62.5t-41.5 -55t-49.5 -53.5t-57.5 -45.5t-70.5 -43.5t-82 -35t-99 -31zM330 1493h295l161 -283h-215z" />
<glyph unicode="&#x2000;" horiz-adv-x="964" />
<glyph unicode="&#x2001;" horiz-adv-x="1929" />
<glyph unicode="&#x2002;" horiz-adv-x="964" />
<glyph unicode="&#x2003;" horiz-adv-x="1929" />
<glyph unicode="&#x2004;" horiz-adv-x="643" />
<glyph unicode="&#x2005;" horiz-adv-x="482" />
<glyph unicode="&#x2006;" horiz-adv-x="321" />
<glyph unicode="&#x2007;" horiz-adv-x="321" />
<glyph unicode="&#x2008;" horiz-adv-x="241" />
<glyph unicode="&#x2009;" horiz-adv-x="385" />
<glyph unicode="&#x200a;" horiz-adv-x="107" />
<glyph unicode="&#x2010;" horiz-adv-x="765" d="M82 465l41 237h549l-41 -237h-549z" />
<glyph unicode="&#x2011;" horiz-adv-x="765" d="M82 465l41 237h549l-41 -237h-549z" />
<glyph unicode="&#x2012;" horiz-adv-x="765" d="M82 465l41 237h549l-41 -237h-549z" />
<glyph unicode="&#x2013;" horiz-adv-x="978" d="M80 465l41 235h766l-41 -235h-766z" />
<glyph unicode="&#x2014;" horiz-adv-x="1155" d="M80 465l41 235h942l-41 -235h-942z" />
<glyph unicode="&#x2018;" horiz-adv-x="485" d="M135 809l49 375l281 289l57 -99l-170 -227h125l-57 -338h-285z" />
<glyph unicode="&#x2019;" horiz-adv-x="471" d="M135 868l170 228h-125l58 338h284l-49 -375l-280 -289z" />
<glyph unicode="&#x201a;" horiz-adv-x="501" d="M-45 -227l170 227h-125l57 338h285l-49 -375l-281 -289z" />
<glyph unicode="&#x201c;" horiz-adv-x="886" d="M135 809l49 375l281 289l57 -99l-170 -227h125l-57 -338h-285zM537 809l49 375l280 289l58 -99l-170 -227h125l-58 -338h-284z" />
<glyph unicode="&#x201d;" horiz-adv-x="872" d="M135 868l170 228h-125l58 338h284l-49 -375l-280 -289zM537 868l170 228h-125l57 338h285l-50 -375l-280 -289z" />
<glyph unicode="&#x201e;" horiz-adv-x="903" d="M-45 -227l170 227h-125l57 338h285l-49 -375l-281 -289zM356 -227l170 227h-125l58 338h284l-49 -375l-280 -289z" />
<glyph unicode="&#x2020;" horiz-adv-x="1034" d="M76 764l43 237l356 -28l82 461h209l-82 -461l369 28l-41 -237l-359 27l-213 -1209h-211l213 1211z" />
<glyph unicode="&#x2021;" horiz-adv-x="1085" d="M8 227l41 238l357 -29l63 355l-367 -27l41 237l359 -28l82 461h209l-82 -461l368 28l-43 -237l-356 27l-64 -355l369 29l-43 -238l-356 27l-119 -672h-211l119 672z" />
<glyph unicode="&#x2022;" horiz-adv-x="901" d="M131 584q0 130 91.5 221.5t221.5 91.5q129 0 221.5 -91.5t92.5 -221.5q0 -129 -92.5 -220.5t-221.5 -91.5q-130 0 -221.5 91.5t-91.5 220.5z" />
<glyph unicode="&#x2026;" horiz-adv-x="1359" d="M0 0l59 338h283l-59 -338h-283zM432 0l60 338h282l-59 -338h-283zM864 0l60 338h282l-59 -338h-283z" />
<glyph unicode="&#x202f;" horiz-adv-x="385" />
<glyph unicode="&#x2030;" horiz-adv-x="2476" d="M135 989q0 82 22.5 162.5t65.5 149.5t116 112t165 43q134 0 222.5 -77t88.5 -224q0 -82 -22 -162.5t-65 -149.5t-115.5 -112t-163.5 -43q-135 0 -224.5 77t-89.5 224zM342 989q0 -131 111 -131q40 0 72 32.5t49.5 80.5t26.5 96.5t9 87.5q0 131 -110 131q-40 0 -72 -32.5 t-50 -80.5t-27 -96.5t-9 -87.5zM346 0l854 1434h215l-852 -1434h-217zM950 279q0 65 13.5 129.5t43.5 125.5t72 107.5t104.5 75t135.5 28.5q134 0 223.5 -77t89.5 -224q0 -82 -22.5 -162.5t-65.5 -149.5t-116 -112t-164 -43q-135 0 -224.5 77.5t-89.5 224.5zM1157 279 q0 -132 111 -132q40 0 72 32.5t49.5 80.5t26.5 96.5t9 87.5q0 66 -26.5 98.5t-83.5 32.5q-40 0 -72 -32t-50 -80.5t-27 -96.5t-9 -87zM1692 279q0 65 13.5 129.5t43 125.5t71.5 107.5t104.5 75t135.5 28.5q135 0 224.5 -77t89.5 -224q0 -82 -22.5 -162.5t-65.5 -149.5 t-116 -112t-165 -43q-87 0 -156 31.5t-113 101t-44 169.5zM1901 279q0 -132 110 -132q39 0 70.5 32.5t49.5 80.5t27 96.5t9 87.5q0 131 -109 131q-40 0 -72 -32t-49.5 -80.5t-26.5 -96.5t-9 -87z" />
<glyph unicode="&#x2039;" horiz-adv-x="661" d="M29 467l32 178l584 434l-57 -313l-328 -227l250 -228l-49 -280z" />
<glyph unicode="&#x203a;" horiz-adv-x="661" d="M-4 31l57 313l328 227l-250 228l49 280l432 -436l-32 -178z" />
<glyph unicode="&#x2044;" horiz-adv-x="360" d="M-303 0l795 1434h210l-796 -1434h-209z" />
<glyph unicode="&#x205f;" horiz-adv-x="482" />
<glyph unicode="&#x2070;" horiz-adv-x="786" d="M162 1079q0 32 4 73.5t15.5 98.5t29 112t47.5 110.5t69 96.5t96 67t124 26q81 0 140 -25t90.5 -70t46 -97t14.5 -115q0 -31 -4 -72.5t-15.5 -98.5t-29 -111.5t-48 -110t-69.5 -96.5t-96 -67t-125 -26q-80 0 -138.5 25t-90 69.5t-46 96.5t-14.5 114zM356 1061 q0 -61 19.5 -94t75.5 -33q40 0 74 39t55 94.5t36 119.5t21 112.5t6 74.5q0 63 -19 96t-75 33q-49 0 -89 -57.5t-61 -137t-32 -146t-11 -101.5z" />
<glyph unicode="&#x2074;" horiz-adv-x="778" d="M96 946l25 146l420 557h264l-94 -531h110l-30 -172h-111l-27 -158h-198l26 158h-385zM322 1118h190l59 336z" />
<glyph unicode="&#x2075;" horiz-adv-x="710" d="M96 903l111 131q28 -23 47 -37t57 -29.5t76 -15.5q58 0 99.5 37t41.5 101q0 45 -24.5 71.5t-73.5 26.5q-64 0 -137 -47l-103 69l117 439h494l-31 -172h-324l-28 -131q42 10 78 10q115 0 176 -71t61 -179q0 -135 -89.5 -233.5t-242.5 -98.5q-164 0 -305 129z" />
<glyph unicode="&#x2076;" horiz-adv-x="749" d="M154 1096q0 149 65 278t186.5 209t272.5 80q44 0 81.5 -7.5t53.5 -14.5l16 -7l-73 -149q-33 8 -72 8q-94 0 -171 -53.5t-118 -145.5q64 52 150 52q104 0 165.5 -68.5t61.5 -175.5q0 -134 -86 -231t-231 -97q-144 0 -222.5 92.5t-78.5 229.5zM352 1085q0 -63 26 -102 t75 -39q58 0 89 43.5t31 104.5q0 42 -24.5 71t-73.5 29q-38 0 -70.5 -21.5t-52.5 -50.5v-35z" />
<glyph unicode="&#x2077;" horiz-adv-x="612" d="M145 788q16 90 58.5 193t84.5 177t99 155.5t78 108t45 55.5h-315l30 172h537l-27 -160q-13 -15 -35 -41t-81 -107t-107 -160.5t-95.5 -188.5t-64.5 -204h-207z" />
<glyph unicode="&#x2078;" horiz-adv-x="755" d="M125 995q0 171 213 267q-88 72 -88 168q0 102 80 167.5t215 65.5q124 0 190 -55t66 -142q0 -131 -158 -217q129 -79 129 -209q0 -118 -94.5 -192t-257.5 -74q-143 0 -219 59.5t-76 161.5zM326 1020q0 -42 28 -65t78 -23q60 0 100.5 32t40.5 85q0 70 -94 129 q-73 -33 -113 -69t-40 -89zM436 1417q0 -54 62 -92q53 24 83.5 51t30.5 66q0 30 -19.5 49.5t-55.5 19.5q-43 0 -72 -28t-29 -66z" />
<glyph unicode="&#x2079;" horiz-adv-x="749" d="M131 803l76 149q31 -8 72 -8q94 0 170.5 53.5t117.5 147.5q-61 -53 -151 -53q-104 0 -165 68t-61 175q0 133 86 230.5t230 97.5t222.5 -92.5t78.5 -229.5q0 -149 -65 -278t-186.5 -209t-272.5 -80q-44 0 -82 7t-54 15zM389 1346q0 -43 23.5 -72t72.5 -29q38 0 72 23 t51 51q2 10 2 33q0 63 -26.5 102t-75.5 39q-57 0 -88 -43.5t-31 -103.5z" />
<glyph unicode="&#x207a;" horiz-adv-x="643" d="M137 1126l25 144h203l36 209h146l-37 -209h205l-27 -144h-203l-36 -206h-144l35 206h-203z" />
<glyph unicode="&#x207d;" horiz-adv-x="428" d="M125.5 781.5q-2.5 58.5 13.5 144.5l105 590q7 33 10.5 50.5t10.5 43.5t12.5 39.5t16 33.5t21.5 30.5t27.5 25t36.5 23.5t46 20t57.5 19.5t70.5 17.5l31 -117q-76 -30 -99 -56t-34 -87l-123 -691q-13 -62 -1.5 -92t68.5 -59l-55 -105q-113 30 -162.5 70.5t-52 99z" />
<glyph unicode="&#x207e;" horiz-adv-x="425" d="M55 729q76 30 99 56t34 87l123 691q13 62 1.5 92t-68.5 59l55 105q113 -30 162.5 -70.5t52 -99t-13.5 -144.5l-105 -590q-7 -33 -10.5 -50.5t-10.5 -43.5t-12.5 -39.5t-16 -33.5t-21.5 -30.5t-27.5 -25t-36.5 -23.5t-46 -20t-57.5 -19.5t-70.5 -17.5z" />
<glyph unicode="&#x207f;" horiz-adv-x="727" d="M115 788l114 646h191l-12 -72q110 86 208 86q88 0 124.5 -56.5t17.5 -160.5l-78 -443h-191l72 412q9 37 1 64.5t-40 27.5q-68 0 -141 -73v-2l-76 -429h-190z" />
<glyph unicode="&#x2080;" horiz-adv-x="788" d="M-31 -16q0 32 4 73t15.5 98.5t29 112.5t47.5 110t69 96t96 67t124 26q81 0 140 -25t90.5 -70t46 -97t14.5 -115q0 -31 -4 -72.5t-15.5 -98.5t-29 -111.5t-48 -110t-69.5 -96.5t-96 -67t-125 -26q-80 0 -138.5 25t-90 70t-46 97t-14.5 114zM164 -35q0 -62 19 -94.5 t75 -32.5q49 0 89 57.5t61 136.5t32 145.5t11 101.5q0 63 -19.5 96t-75.5 33q-49 0 -89 -57.5t-60.5 -137.5t-31.5 -146.5t-11 -101.5z" />
<glyph unicode="&#x2081;" horiz-adv-x="577" d="M-25 418l236 135h188l-151 -860h-199l119 655l-125 -67z" />
<glyph unicode="&#x2082;" horiz-adv-x="710" d="M-111 -307l15 90q10 53 32.5 101t47 81t66 69.5t69 56.5t74.5 52q128 84 161 117q39 39 39 72q0 61 -78 61q-76 0 -200 -76l-76 142q161 108 311 108q119 0 182.5 -61t63.5 -154q0 -49 -20.5 -96t-46 -79.5t-72 -69.5t-73 -54.5t-73.5 -46.5q-75 -46 -107.5 -76.5 t-39.5 -64.5h344l-29 -172h-590z" />
<glyph unicode="&#x2083;" horiz-adv-x="708" d="M-113 -195l107 129q64 -42 111 -61.5t96 -19.5q59 0 94 29.5t35 76.5q0 102 -178 102h-29l31 172h34q66 0 123.5 26.5t57.5 74.5q0 27 -19.5 43t-52.5 16q-85 0 -197 -67l-65 139q155 102 307 102q113 0 171 -53t58 -135q0 -72 -44 -127.5t-117 -89.5q54 -26 87 -78 t33 -119q0 -51 -18 -99.5t-53.5 -91.5t-98 -69.5t-143.5 -26.5q-59 0 -114 13.5t-100.5 38.5t-66 39t-49.5 36z" />
<glyph unicode="&#x2084;" horiz-adv-x="778" d="M-96 -150l24 146l420 557h264l-94 -530h111l-31 -173h-111l-26 -157h-199l27 157h-385zM129 23h190l60 335z" />
<glyph unicode="&#x2085;" horiz-adv-x="710" d="M-96 -193l110 132q27 -23 47 -37.5t58 -29.5t76 -15q58 0 99.5 36.5t41.5 100.5q0 45 -24.5 71.5t-73.5 26.5q-65 0 -138 -47l-102 70l117 438h493l-30 -172h-324l-29 -131q42 10 78 10q115 0 176.5 -71.5t61.5 -178.5q0 -135 -89.5 -233.5t-242.5 -98.5q-164 0 -305 129 z" />
<glyph unicode="&#x2086;" horiz-adv-x="749" d="M-41 0q0 149 65 278t186.5 209t272.5 80q44 0 82 -7t54 -14l16 -7l-74 -150q-33 8 -72 8q-94 0 -170.5 -53t-117.5 -145q63 51 149 51q104 0 166 -69t62 -175q0 -86 -36 -159.5t-110 -121t-172 -47.5q-144 0 -222.5 92.5t-78.5 229.5zM158 -10q0 -63 25.5 -102.5 t74.5 -39.5q58 0 89.5 44t31.5 104q0 42 -24.5 71t-73.5 29q-38 0 -70.5 -21t-52.5 -50v-35z" />
<glyph unicode="&#x2087;" horiz-adv-x="610" d="M-49 -307q16 90 58.5 193t84.5 177t98.5 155t77.5 107.5t45 55.5h-315l31 172h536l-26 -160q-13 -15 -35 -41t-81 -106.5t-107 -160t-95.5 -188.5t-64.5 -204h-207z" />
<glyph unicode="&#x2088;" horiz-adv-x="755" d="M-68 -100q0 170 213 266q-88 72 -88 168q0 102 80 167.5t215 65.5q124 0 190 -54.5t66 -141.5q0 -131 -157 -217q129 -79 129 -209q0 -118 -95 -192.5t-258 -74.5q-143 0 -219 60t-76 162zM133 -76q0 -42 28.5 -65t78.5 -23q60 0 100.5 32t40.5 85q0 70 -94 129 q-74 -33 -114 -69t-40 -89zM244 322q0 -56 61 -93q54 25 84.5 51.5t30.5 65.5q0 30 -20 50t-56 20q-43 0 -71.5 -28t-28.5 -66z" />
<glyph unicode="&#x2089;" horiz-adv-x="749" d="M-61 -293l75 150q31 -9 72 -9q94 0 171 53.5t118 147.5q-61 -53 -152 -53q-104 0 -164.5 68.5t-60.5 175.5q0 133 85.5 230t229.5 97t222.5 -92t78.5 -229q0 -111 -38.5 -214t-106 -181.5t-167 -125.5t-212.5 -47q-44 0 -81.5 7t-53.5 15zM197 250q0 -43 23.5 -71.5 t72.5 -28.5q38 0 72 22.5t51 50.5q2 10 2 33q0 62 -27 101.5t-76 39.5q-57 0 -87.5 -43.5t-30.5 -103.5z" />
<glyph unicode="&#x208a;" horiz-adv-x="643" d="M-57 31l24 143h203l37 209h145l-37 -209h205l-26 -143h-203l-37 -207h-143l34 207h-202z" />
<glyph unicode="&#x208d;" horiz-adv-x="430" d="M-66.5 -314q-2.5 59 13.5 144l104 590q7 33 10.5 50.5t10.5 43.5t12.5 39.5t16 33.5t21.5 30.5t27.5 25t36.5 23.5t46 20t57.5 19.5t70.5 17.5l31 -117q-76 -30 -99 -56t-34 -87l-123 -690q-13 -62 -1 -92.5t69 -59.5l-56 -104q-113 30 -162 70t-51.5 99z" />
<glyph unicode="&#x208e;" horiz-adv-x="425" d="M-139 -367q76 30 99 56t34 88l123 690q13 62 1 92t-69 59l55 105q113 -30 162.5 -70t52 -99t-13.5 -144l-104 -590q-6 -33 -10 -50.5t-11 -43.5t-13 -39.5t-16 -33t-21.5 -30.5t-28 -25.5t-36.5 -24t-46 -20t-57.5 -19t-70.5 -17.5z" />
<glyph unicode="&#x20a1;" horiz-adv-x="991" d="M96 578q0 136 27 251.5t73.5 197t107.5 139t129 85t138 27.5q22 0 62 -4l59 160h119l-68 -187q30 -9 41 -14l74 201h119l-92 -252l108 -68l-133 -199q-2 1 -47.5 31t-65 40.5t-56.5 25t-64 14.5q-68 0 -125 -60t-88 -155.5t-31 -202.5q0 -94 33 -146t100 -52q21 0 47 6.5 t57.5 19.5t52.5 23t57 28l46 23l86 -221q-66 -32 -101 -48.5t-110.5 -43t-136.5 -35.5l-57 -162h-119l57 160q-34 5 -45 8l-61 -168h-119l78 215q-71 49 -111.5 141t-40.5 222z" />
<glyph unicode="&#x20a4;" horiz-adv-x="1024" d="M-6 0l37 207q6 3 16 9t39.5 27t55.5 45t57.5 62.5t52.5 79.5h-164l27 148h176q2 8 2 28q0 34 -6 72h-156l27 149h92q-33 136 -33 217q0 189 104 300.5t287 111.5q75 0 145 -18t130.5 -51t99 -59.5t84.5 -63.5l-152 -181q-153 119 -253 119q-72 0 -115 -51t-43 -129 q0 -16 2 -34t4 -31t7.5 -33.5t8 -30t10 -34t9.5 -32.5h315l-26 -149h-263q2 -10 2 -31q0 -35 -6 -69h250l-26 -148h-265q-51 -118 -125 -176h467l-43 -254h-831z" />
<glyph unicode="&#x20a7;" horiz-adv-x="1241" d="M49 0l160 907h-47l22 123h45l72 404h434q479 0 479 -387v-17h43l-22 -123h-37q-40 -181 -184.5 -290t-382.5 -109h-201l-88 -508h-293zM475 760h152q98 0 166.5 38t97.5 109h-391zM522 1030h391q-5 150 -196 150h-168z" />
<glyph unicode="&#x20a9;" horiz-adv-x="1794" d="M61 504l31 176h182l-8 174h-143l31 174h104l-20 406h321l-2 -406h203l151 406h236l10 -406h203l139 406h338l-164 -406h109l-33 -174h-145l-72 -174h186l-30 -176h-226l-202 -504h-281l-29 958l-360 -958h-281l-24 504h-224zM553 477l141 377h-139zM1161 854l8 -377 l129 377h-137z" />
<glyph unicode="&#x20ac;" horiz-adv-x="1257" d="M53 481l29 160h92q5 59 19 141h-87l29 158h94q72 233 216.5 374.5t340.5 141.5q72 0 140 -17t138 -54.5t110 -63t112 -76.5l-160 -215q-98 74 -173 112t-142 38q-83 0 -150 -65t-114 -175h360l-28 -158h-381q-22 -102 -25 -141h381l-29 -160h-354q15 -229 166 -229 q116 0 352 145l117 -239q-157 -86 -285.5 -133.5t-253.5 -47.5q-185 0 -287.5 130t-109.5 374h-117z" />
<glyph unicode="&#x2116;" horiz-adv-x="2084" d="M39 0l252 1434h295l274 -947l166 947h293l-254 -1434h-293l-276 944l-164 -944h-293zM1282 303l33 174h596l-31 -174h-598zM1321 899q0 65 14.5 134t47.5 138t79.5 123t117.5 87.5t155 33.5q71 0 132.5 -19.5t111 -58.5t78 -104.5t28.5 -149.5q0 -83 -24.5 -170 t-72 -166.5t-130.5 -130.5t-187 -51q-71 0 -132.5 20t-111 59t-78 105t-28.5 150zM1565 897q0 -129 112 -129q42 0 75.5 36t51.5 89t27.5 103.5t9.5 88.5q0 129 -112 129q-42 0 -75.5 -36.5t-51.5 -89.5t-27.5 -103.5t-9.5 -87.5z" />
<glyph unicode="&#x2117;" horiz-adv-x="1622" d="M98 641q0 131 32.5 251.5t98.5 223t158.5 178.5t219 119t274.5 43q206 0 360 -84.5t234.5 -234.5t80.5 -344q0 -131 -32.5 -251.5t-98.5 -223.5t-158 -179t-219.5 -119t-275.5 -43q-309 0 -491.5 184t-182.5 480zM178 643q0 -171 70 -303.5t208 -209.5t324 -77 q161 0 294.5 59t221 160t135.5 234.5t48 284.5q0 261 -162 425t-443 164q-129 0 -240.5 -38t-194 -106t-142 -160t-89.5 -202.5t-30 -230.5zM526 285l152 862h285q117 0 185.5 -56.5t68.5 -168.5q0 -148 -95.5 -224.5t-253.5 -76.5h-186l-59 -336h-97zM696 705h191 q99 0 166 58.5t67 158.5q0 74 -45.5 108.5t-124.5 34.5h-190z" />
<glyph unicode="&#x2120;" horiz-adv-x="1134" d="M162 1032l65 82q79 -49 150 -49q26 0 45.5 9.5t19.5 27.5q0 13 -12.5 21t-47 20.5t-54.5 21.5q-109 51 -109 133q0 62 48.5 103t131.5 41q105 0 201 -56l-61 -79q-74 36 -129 36q-60 0 -60 -36q0 -8 5 -14.5t16 -11.5t22 -9t30.5 -11t35.5 -14q50 -22 81 -53.5t31 -83.5 q0 -61 -51 -102t-137 -41q-61 0 -121 19.5t-100 45.5zM596 975l82 459h119l67 -254l166 254h117l-80 -459h-115l45 264l-118 -188h-68l-53 188l-47 -264h-115z" />
<glyph unicode="&#x2122;" horiz-adv-x="1116" d="M231 1331l19 103h368l-18 -103h-127l-63 -356h-115l63 356h-127zM586 975l82 459h116l70 -254l164 254h119l-82 -459h-113l45 264l-119 -188h-67l-53 192l-48 -268h-114z" />
<glyph unicode="&#x2126;" horiz-adv-x="1347" d="M23 0l45 254h182q-63 49 -103.5 139.5t-40.5 212.5q0 72 11.5 150t37 161t62.5 160.5t92.5 146.5t122 120.5t156 81.5t190.5 30q250 0 384 -136.5t134 -393.5q0 -236 -94 -427.5t-213 -244.5h164l-45 -254h-487l47 262q77 17 141 88t103 168.5t60 203.5t21 202 q0 270 -221 270q-75 0 -136.5 -38.5t-101 -102t-68 -137t-43.5 -153t-21.5 -139.5t-6.5 -106q0 -105 39 -166.5t123 -89.5l-45 -262h-489z" />
<glyph unicode="&#x2153;" horiz-adv-x="1566" d="M162 1298l235 136h189l-152 -861h-198l118 656l-125 -68zM221 0l795 1434h211l-797 -1434h-209zM788 113l107 129q64 -43 111.5 -62.5t95.5 -19.5q59 0 94 29.5t35 76.5q0 103 -178 103h-29l31 172h35q67 0 123.5 26t56.5 74q0 27 -19.5 43t-52.5 16q-85 0 -197 -67 l-65 139q155 102 307 102q113 0 171.5 -53t58.5 -135q0 -72 -44.5 -127.5t-117.5 -89.5q54 -26 87.5 -78t33.5 -119q0 -51 -18 -99.5t-54 -91.5t-98.5 -69t-143.5 -26q-59 0 -114 13.5t-100.5 38.5t-66 39t-49.5 36z" />
<glyph unicode="&#x2154;" horiz-adv-x="1763" d="M68 573l14 91q10 53 32.5 101t47 81t66 69.5t69 56.5t74.5 52q126 83 158 114q42 40 42 74q0 62 -77 62t-201 -76l-76 141q162 109 311 109q119 0 182.5 -61t63.5 -154q0 -49 -20.5 -96t-46 -79.5t-72 -69.5t-73 -54.5t-73.5 -46.5q-74 -46 -107 -77t-40 -65h344 l-29 -172h-589zM428 0l795 1434h211l-797 -1434h-209zM993 113l107 129q64 -43 111.5 -62.5t95.5 -19.5q59 0 94 29.5t35 76.5q0 56 -51.5 79.5t-127.5 23.5h-28l31 172h34q67 0 124 26t57 74q0 27 -19.5 43t-52.5 16q-85 0 -197 -67l-65 139q155 102 307 102q113 0 171 -53 t58 -135q0 -72 -44 -127.5t-117 -89.5q54 -26 87 -78t33 -119q0 -51 -18 -99.5t-53.5 -91.5t-98 -69t-143.5 -26q-59 0 -114 13.5t-100.5 38.5t-66 39t-49.5 36z" />
<glyph unicode="&#x2155;" horiz-adv-x="1585" d="M162 1298l235 136h189l-152 -861h-198l118 656l-125 -68zM221 0l795 1434h211l-797 -1434h-209zM809 115l111 131q28 -23 47 -37t57 -29.5t76 -15.5q58 0 99.5 36.5t41.5 100.5q0 45 -24.5 71.5t-73.5 26.5q-64 0 -137 -47l-103 70l117 438h493l-30 -172h-324l-29 -131 q42 10 78 10q115 0 176.5 -71.5t61.5 -178.5q0 -135 -89.5 -233t-242.5 -98q-164 0 -305 129z" />
<glyph unicode="&#x2156;" horiz-adv-x="1775" d="M66 573l14 91q10 53 32.5 101t47 81t66 69.5t69 56.5t74.5 52q126 83 158 114q42 40 42 74q0 62 -77 62t-201 -76l-76 141q162 109 311 109q119 0 182.5 -61t63.5 -154q0 -49 -20.5 -96t-46 -79.5t-72 -69.5t-73 -54.5t-73.5 -46.5q-74 -46 -107 -77t-40 -65h344 l-29 -172h-589zM426 0l795 1434h211l-797 -1434h-209zM1008 115l110 131q28 -23 47 -37t57 -29.5t76 -15.5q58 0 100 36.5t42 100.5q0 45 -25 71.5t-74 26.5q-64 0 -137 -47l-102 70l117 438h493l-31 -172h-323l-29 -131q42 10 78 10q115 0 176.5 -71.5t61.5 -178.5 q0 -135 -89.5 -233t-242.5 -98q-164 0 -305 129z" />
<glyph unicode="&#x2157;" horiz-adv-x="1744" d="M72 686l106 129q64 -43 111.5 -62.5t95.5 -19.5q59 0 94 30t35 77q0 102 -178 102h-29l31 172h35q67 0 123.5 26t56.5 74q0 27 -19.5 43.5t-52.5 16.5q-83 0 -196 -68l-66 140q155 102 307 102q113 0 171.5 -53t58.5 -135q0 -72 -44.5 -128t-117.5 -90q54 -26 87.5 -77.5 t33.5 -118.5q0 -51 -18 -100t-54 -91.5t-98.5 -69t-143.5 -26.5q-59 0 -114 13.5t-100.5 38.5t-65.5 38.5t-49 36.5zM387 0l795 1434h211l-797 -1434h-209zM973 115l110 131q27 -23 47 -37.5t58 -29.5t76 -15q58 0 99.5 36.5t41.5 100.5q0 45 -24.5 71.5t-73.5 26.5 q-65 0 -138 -47l-102 70l117 438h493l-30 -172h-324l-29 -131q42 10 78 10q115 0 176.5 -71.5t61.5 -178.5q0 -135 -89.5 -233t-242.5 -98q-164 0 -305 129z" />
<glyph unicode="&#x2158;" horiz-adv-x="1812" d="M76 731l24 146l420 557h264l-94 -531h111l-31 -172h-111l-26 -158h-199l27 158h-385zM301 903h191l59 336zM455 0l794 1434h211l-796 -1434h-209zM1038 115l111 131q28 -23 47 -37t57 -29.5t76 -15.5q58 0 99.5 36.5t41.5 100.5q0 45 -24.5 71.5t-73.5 26.5 q-64 0 -137 -47l-102 70l116 438h494l-31 -172h-323l-29 -131q42 10 78 10q115 0 176 -71t61 -179q0 -135 -89.5 -233t-242.5 -98q-164 0 -305 129z" />
<glyph unicode="&#x2159;" horiz-adv-x="1556" d="M162 1298l235 136h189l-152 -861h-198l118 656l-125 -68zM221 0l795 1434h211l-797 -1434h-209zM807 307q0 149 65 278t186.5 209t272.5 80q44 0 82 -7t54 -14l16 -7l-74 -150q-33 9 -72 9q-93 0 -170 -53t-118 -146q63 51 149 51q104 0 165.5 -68.5t61.5 -175.5 q0 -134 -86 -230.5t-231 -96.5q-144 0 -222.5 92t-78.5 229zM1006 297q0 -63 25.5 -102t74.5 -39q58 0 89.5 43.5t31.5 103.5q0 42 -25 71t-74 29q-38 0 -70 -21t-52 -50v-35z" />
<glyph unicode="&#x215a;" horiz-adv-x="1689" d="M76 688l110 131q27 -23 47 -37.5t58 -29.5t76 -15q58 0 99.5 36.5t41.5 100.5q0 45 -24.5 72t-73.5 27q-65 0 -138 -47l-102 69l117 439h493l-30 -172h-324l-29 -132q46 11 78 11q115 0 176.5 -71.5t61.5 -178.5q0 -135 -89.5 -233.5t-242.5 -98.5q-164 0 -305 129z M362 0l795 1434h211l-797 -1434h-209zM942 307q0 149 65 278t186.5 209t272.5 80q44 0 82 -7t54 -14l16 -7l-74 -150q-32 9 -71 9q-94 0 -171 -53.5t-118 -145.5q63 51 149 51q104 0 166 -69t62 -175q0 -133 -86 -230t-232 -97q-144 0 -222.5 92t-78.5 229zM1141 297 q0 -63 25.5 -102t74.5 -39q58 0 89.5 43.5t31.5 103.5q0 42 -24.5 71t-73.5 29q-38 0 -70.5 -21t-52.5 -50v-35z" />
<glyph unicode="&#x215b;" horiz-adv-x="1579" d="M162 1298l235 136h189l-152 -861h-198l118 656l-125 -68zM221 0l795 1434h211l-797 -1434h-209zM799 207q0 170 213 266q-88 72 -88 168q0 102 80 167.5t215 65.5q124 0 190 -54.5t66 -141.5q0 -131 -158 -217q129 -79 129 -209q0 -118 -94.5 -192t-257.5 -74 q-143 0 -219 59.5t-76 161.5zM999 231q0 -42 28.5 -65t78.5 -23q60 0 100.5 32t40.5 85q0 70 -94 129q-74 -33 -114 -69t-40 -89zM1110 629q0 -55 61 -92q54 25 84.5 51t30.5 65q0 30 -20 50t-56 20q-43 0 -71.5 -28t-28.5 -66z" />
<glyph unicode="&#x215c;" horiz-adv-x="1730" d="M72 686l106 129q64 -43 111.5 -62.5t95.5 -19.5q59 0 94 30t35 77q0 102 -178 102h-29l31 172h35q67 0 123.5 26t56.5 74q0 27 -19.5 43.5t-52.5 16.5q-83 0 -196 -68l-66 140q155 102 307 102q113 0 171.5 -53t58.5 -135q0 -72 -44.5 -128t-117.5 -90q54 -26 87.5 -77.5 t33.5 -118.5q0 -51 -18 -100t-54 -91.5t-98.5 -69t-143.5 -26.5q-59 0 -114 13.5t-100.5 38.5t-65.5 38.5t-49 36.5zM387 0l795 1434h211l-797 -1434h-209zM956 207q0 170 213 266q-88 72 -88 168q0 102 80 167.5t215 65.5q124 0 190 -54.5t66 -141.5q0 -131 -157 -217 q129 -79 129 -209q0 -118 -95 -192t-258 -74q-143 0 -219 59.5t-76 161.5zM1157 231q0 -42 28.5 -65t78.5 -23q60 0 100.5 32t40.5 85q0 70 -94 129q-74 -33 -114 -69t-40 -89zM1268 629q0 -55 61 -92q54 25 84.5 51t30.5 65q0 30 -20 50t-56 20q-43 0 -71.5 -28t-28.5 -66z " />
<glyph unicode="&#x215d;" horiz-adv-x="1720" d="M76 688l110 131q27 -23 47 -37.5t58 -29.5t76 -15q58 0 99.5 36.5t41.5 100.5q0 45 -24.5 72t-73.5 27q-65 0 -138 -47l-102 69l117 439h493l-30 -172h-324l-29 -132q46 11 78 11q115 0 176.5 -71.5t61.5 -178.5q0 -135 -89.5 -233.5t-242.5 -98.5q-164 0 -305 129z M360 0l795 1434h211l-797 -1434h-209zM942 207q0 170 213 266q-88 72 -88 168q0 102 80 167.5t215 65.5q124 0 190 -54.5t66 -141.5q0 -131 -158 -217q129 -79 129 -209q0 -118 -94.5 -192t-257.5 -74q-143 0 -219 59.5t-76 161.5zM1143 231q0 -42 28 -65t78 -23 q60 0 101 32t41 85q0 69 -95 129q-73 -33 -113 -69t-40 -89zM1253 629q0 -54 62 -92q54 25 84.5 51t30.5 65q0 30 -20 50t-56 20q-43 0 -72 -28t-29 -66z" />
<glyph unicode="&#x215e;" horiz-adv-x="1550" d="M123 573q16 90 58.5 193t84.5 177.5t98 155t78 108t45 55.5h-315l31 172h536l-26 -160q-13 -15 -35 -41t-81 -107t-107 -160.5t-95.5 -188.5t-64.5 -204h-207zM197 0l794 1434h211l-796 -1434h-209zM774 207q0 170 213 266q-88 72 -88 168q0 102 80 167.5t215 65.5 q124 0 190 -54.5t66 -141.5q0 -131 -158 -217q129 -79 129 -209q0 -118 -94.5 -192t-257.5 -74q-143 0 -219 59.5t-76 161.5zM975 231q0 -42 28 -65t78 -23q60 0 101 32t41 85q0 69 -95 129q-73 -33 -113 -69t-40 -89zM1085 629q0 -54 62 -92q54 25 84.5 51t30.5 65 q0 30 -20 50t-56 20q-43 0 -72 -28t-29 -66z" />
<glyph unicode="&#x2202;" horiz-adv-x="1142" d="M47 403q0 154 63 285.5t173 209t241 77.5q56 0 104 -16t76.5 -36.5t51 -47t30 -39.5t11.5 -23q-5 80 -26.5 147.5t-61 122.5t-105 86t-149.5 31q-35 0 -73.5 -4t-59.5 -8l-21 -4l8 229q70 21 174 21q117 0 213 -37t162.5 -101t111.5 -152.5t66 -190.5t21 -216 q0 -215 -66 -385t-199 -272.5t-313 -102.5q-209 0 -320.5 116t-111.5 310zM340 397q0 -86 38 -139t124 -53q64 0 114 34.5t78 89t42 112.5t14 114q0 88 -39.5 140.5t-124.5 52.5q-60 0 -109 -34t-77.5 -87.5t-44 -113t-15.5 -116.5z" />
<glyph unicode="&#x2206;" horiz-adv-x="1269" d="M-61 0l694 1434h305l190 -1434h-1189zM338 254h506l-101 870z" />
<glyph unicode="&#x220f;" horiz-adv-x="1253" d="M98 0l209 1184h-149l43 250h1134l-45 -250h-151l-207 -1184h-291l207 1184h-250l-207 -1184h-293z" />
<glyph unicode="&#x2211;" horiz-adv-x="1050" d="M-33 0l27 145l541 576l-340 569l24 144h885l-45 -254h-494l277 -463l-408 -463h461l-43 -254h-885z" />
<glyph unicode="&#x2212;" horiz-adv-x="1124" d="M121 571l39 224h864l-39 -224h-864z" />
<glyph unicode="&#x221a;" horiz-adv-x="1120" d="M29 696h293l75 -405l564 1143h301l-736 -1434h-327z" />
<glyph unicode="&#x221e;" horiz-adv-x="1572" d="M76 477q0 108 43 200.5t126.5 151t190.5 58.5q56 0 103.5 -16t91 -52t75 -71.5t78.5 -96.5q59 55 90 82.5t76.5 63t78.5 51t75 27.5t86 12q135 0 205.5 -88t70.5 -221q0 -107 -43.5 -199.5t-127 -150.5t-189.5 -58t-182 57.5t-166 178.5q-69 -65 -111.5 -101.5t-94 -71 t-99 -49t-101.5 -14.5q-135 0 -205.5 87.5t-70.5 219.5zM283 496q0 -59 32 -94t82 -35t105 36.5t160 131.5q-70 87 -116 121t-89 34q-75 0 -124.5 -57.5t-49.5 -136.5zM881 522q70 -87 114.5 -121t91.5 -34q74 0 123.5 58t49.5 136q0 60 -32 94.5t-83 34.5 q-50 0 -105.5 -36.5t-158.5 -131.5z" />
<glyph unicode="&#x222b;" horiz-adv-x="706" d="M-127 -293l29 170h35q29 0 53 9t40.5 20.5t31 35.5t22.5 42t17 53t13 54t11 59l201 1148q43 238 145 329t326 91h69l-28 -170h-33q-34 0 -61 -9.5t-46 -31.5t-31.5 -42.5t-23.5 -58.5t-16 -61.5t-13 -68.5l-202 -1149q-43 -239 -143.5 -329.5t-325.5 -90.5h-70z" />
<glyph unicode="&#x2248;" horiz-adv-x="1124" d="M94 416q65 131 135 197.5t158 66.5q49 0 98 -21t82 -45.5t74 -45.5t76 -21q34 0 65.5 25t75.5 98l133 -64q-66 -130 -136 -197t-159 -67q-49 0 -97.5 21t-81 45.5t-73.5 45.5t-77 21q-33 0 -64.5 -24.5t-77.5 -98.5zM162 801q65 131 134.5 196.5t158.5 65.5 q49 0 97.5 -21t81.5 -45.5t74.5 -45.5t77.5 -21q32 0 64 25.5t76 97.5l133 -64q-67 -130 -137 -196t-158 -66q-49 0 -98 21t-82 45.5t-74 45.5t-76 21q-33 0 -64 -24.5t-77 -98.5z" />
<glyph unicode="&#x2260;" horiz-adv-x="1124" d="M88 379l39 223h297l84 166h-352l39 223h426l151 297l174 -76l-112 -221h225l-41 -223h-299l-84 -166h354l-39 -223h-428l-151 -297l-172 76l112 221h-223z" />
<glyph unicode="&#x2264;" horiz-adv-x="1124" d="M10 0l35 193h862l-35 -193h-862zM121 625l33 176l927 381l-45 -262l-594 -218l516 -219l-40 -239z" />
<glyph unicode="&#x2265;" horiz-adv-x="1124" d="M35 0l35 193h862l-33 -193h-864zM78 244l47 260l592 217l-516 221l43 240l796 -381l-32 -176z" />
<glyph unicode="&#x2318;" horiz-adv-x="1454" d="M53 362q0 128 91 207.5t223 79.5h139l24 135h-65q-118 0 -201.5 84t-83.5 201q0 119 83.5 203t201.5 84q73 0 138 -34.5t106 -105.5t34 -163q-1 -7 -6 -44.5t-6 -56.5h113l24 133q19 105 84 181t174 86q29 5 68 -2q103 -15 172.5 -94.5t69.5 -186.5q0 -127 -90.5 -206 t-221.5 -79h-139l-24 -135h65q118 0 201.5 -84t83.5 -203q0 -117 -83.5 -199.5t-201.5 -82.5q-120 0 -203.5 86.5t-74.5 216.5q1 11 4 31t5 36t3 31h-113l-24 -131q-22 -124 -96 -197t-187 -73q-119 0 -203 82t-84 200zM221 362q0 -47 35.5 -80.5t83.5 -33.5q47 0 76 29 t39 75l22 129h-137q-48 0 -83.5 -35t-35.5 -84zM348 1069q0 -48 34 -82.5t83 -34.5h94q6 25 14 82q10 61 -18 107.5t-90 46.5q-49 0 -83 -34.5t-34 -84.5zM676 649h115l24 135h-115zM918 399q-12 -58 16.5 -104.5t91.5 -46.5q48 0 82.5 33.5t34.5 80.5q0 49 -34.5 84 t-82.5 35h-94zM1016 952h135q47 0 82 35t35 82q0 49 -34.5 84t-82.5 35q-47 0 -77.5 -34.5t-37.5 -72.5z" />
<glyph unicode="&#x25ca;" horiz-adv-x="1034" d="M82 717l436 717h287l182 -717l-436 -717h-285zM342 674l98 -395l289 481l-100 393z" />
<glyph unicode="&#xe000;" horiz-adv-x="1075" d="M0 0v1075h1075v-1075h-1075z" />
<glyph unicode="&#xf6c3;" horiz-adv-x="239" d="M-84 -532l123 170h-90l43 245h205l-37 -270l-203 -217z" />
<glyph unicode="&#xf6df;" horiz-adv-x="641" d="M-31 49q0 190 87.5 300t211.5 110h6l17 94h135l-23 -121q24 -9 47 -20.5t52.5 -28.5t36.5 -21l-88 -135q-2 1 -20.5 12t-24.5 14.5t-23.5 12.5t-28 12.5t-25 7t-26.5 3.5q-62 0 -101.5 -64.5t-39.5 -154.5q0 -54 21 -82.5t59 -28.5q47 0 159 55l58 -151q-99 -46 -166 -62 l-19 -108h-135l17 96q-85 11 -136 76t-51 184z" />
<glyph unicode="&#xf6e0;" horiz-adv-x="638" d="M162 1145q0 189 87.5 299t211.5 110h6l16 95h135l-22 -121q24 -9 47.5 -21t51.5 -28t36 -21l-88 -135q-3 2 -17.5 10.5t-20.5 12t-19.5 11t-23 11t-21.5 8t-23 6.5t-22 2q-62 0 -102 -64.5t-40 -154.5q0 -110 80 -110q48 0 160 55l57 -152q-95 -44 -166 -61l-18 -109 h-135l16 97q-84 11 -135 76t-51 184z" />
<glyph unicode="&#xf6e1;" horiz-adv-x="354" d="M-106 -446l110 139h-86l39 219h190l-30 -246l-187 -178z" />
<glyph unicode="&#xf6e2;" horiz-adv-x="356" d="M88 649l111 139h-86l39 220h190l-31 -246l-186 -178z" />
<glyph unicode="&#xf6e3;" horiz-adv-x="731" d="M-98 -195l110 142q55 -37 122.5 -65.5t121.5 -28.5q43 0 71.5 20t28.5 57q0 18 -8 32t-27 27t-36 21.5t-50 24.5t-53 26q-85 50 -131.5 109t-46.5 139q0 106 77.5 180.5t211.5 77.5l20 111h136l-23 -127q108 -24 213 -88l-109 -141q-49 29 -109 50t-106 21 q-41 0 -69.5 -20t-28.5 -56q0 -16 8 -29t26 -25.5t35.5 -22t50.5 -26.5t56 -30q84 -49 130 -102.5t46 -136.5q0 -109 -80.5 -186t-216.5 -81l-18 -108h-135l20 123q-120 29 -237 112z" />
<glyph unicode="&#xf6e4;" horiz-adv-x="731" d="M94 901l111 141q55 -37 122.5 -65.5t121.5 -28.5q43 0 71.5 20.5t28.5 57.5q0 18 -8 32t-27 27t-36 21.5t-50 24.5t-53 26q-85 50 -131.5 109t-46.5 139q0 106 77 180.5t211 77.5l21 111h137l-22 -127q105 -24 210 -88l-108 -142q-49 29 -109 50.5t-106 21.5 q-41 0 -69.5 -20t-28.5 -56q0 -16 8 -29t26 -25.5t35.5 -22t50.5 -26.5t56 -30q83 -49 129.5 -103t46.5 -137q0 -109 -80.5 -185.5t-216.5 -80.5l-19 -108h-135l21 122q-132 32 -238 113z" />
<glyph unicode="&#xf6e7;" horiz-adv-x="352" d="M-80 -307l39 219h191l-39 -219h-191z" />
<glyph unicode="&#xf6e8;" horiz-adv-x="354" d="M115 788l39 220h190l-39 -220h-190z" />
<glyph unicode="&#xf6e9;" horiz-adv-x="739" d="M135 999q0 113 32.5 214t99 168t151.5 67q38 0 72.5 -14.5t51.5 -28t44 -39.5l12 68h193l-115 -646h-191l13 72q-107 -86 -195 -86q-77 0 -122.5 59t-45.5 166zM330 1026q0 -90 61 -90q63 0 133 80l35 198q-40 72 -96 72q-40 0 -72 -43.5t-46.5 -102t-14.5 -114.5z" />
<glyph unicode="&#xf6ea;" horiz-adv-x="739" d="M123 788l158 895h190l-57 -317q98 82 188 82q77 0 124.5 -59t47.5 -166q0 -109 -31 -209.5t-96 -170t-151 -69.5q-94 0 -170 84l-13 -70h-190zM350 1006q44 -70 101 -70q39 0 69.5 42.5t45 100t14.5 113.5q0 94 -64 94q-61 0 -129 -78z" />
<glyph unicode="&#xf6eb;" horiz-adv-x="739" d="M135 999q0 113 32.5 214t99 168t151.5 67q55 0 93 -22.5t73 -59.5l57 317h193l-158 -895h-193l13 70q-104 -84 -193 -84q-77 0 -122.5 59t-45.5 166zM330 1026q0 -90 61 -90q60 0 131 78l37 203q-40 69 -96 69q-40 0 -72 -43.5t-46.5 -102t-14.5 -114.5z" />
<glyph unicode="&#xf6ec;" horiz-adv-x="671" d="M135 1040q0 179 94.5 293.5t257.5 114.5q103 0 164.5 -50t61.5 -138q0 -51 -19 -89.5t-49.5 -61.5t-75 -37.5t-90 -19.5t-100.5 -5h-55q0 -123 84 -123q60 0 198 69l56 -135q-45 -27 -130 -55.5t-167 -28.5q-107 0 -168.5 64.5t-61.5 201.5zM334 1151h51q72 0 112 26.5 t40 73.5q0 54 -64 54q-53 0 -89 -43t-50 -111z" />
<glyph unicode="&#xf6ed;" horiz-adv-x="376" d="M123 788l115 646h190l-115 -646h-190zM248 1516l28 165h199l-29 -165h-198z" />
<glyph unicode="&#xf6ee;" horiz-adv-x="378" d="M125 788l158 895h190l-158 -895h-190z" />
<glyph unicode="&#xf6ef;" horiz-adv-x="1064" d="M121 788l115 646h192l-14 -78q96 92 188 92q119 0 139 -111q41 43 96.5 77t110.5 34q87 0 121 -57t16 -156l-77 -447h-191l74 418q8 37 0.5 61.5t-37.5 24.5q-56 0 -119 -75l-76 -429h-190l74 418q18 86 -37 86q-52 0 -117 -73l-76 -431h-192z" />
<glyph unicode="&#xf6f0;" horiz-adv-x="716" d="M137 1040q0 70 18.5 138.5t55.5 130.5t104 100.5t154 38.5q123 0 203 -66t80 -200q0 -55 -11 -110t-36.5 -109.5t-63 -96t-95.5 -67t-128 -25.5q-122 0 -201.5 66t-79.5 200zM326 1036q0 -54 21.5 -81t70.5 -27q37 0 66 28.5t45 71t24 84t8 74.5q0 54 -21.5 81t-70.5 27 q-36 0 -65 -28.5t-45 -71t-24.5 -84t-8.5 -74.5z" />
<glyph unicode="&#xf6f1;" horiz-adv-x="524" d="M123 788l115 646h190l-22 -136q8 15 18 30.5t31.5 38.5t45 39.5t59 27.5t73.5 8l-33 -189q-50 0 -94 -23t-70 -56.5t-45.5 -66.5t-26.5 -56l-8 -23l-43 -240h-190z" />
<glyph unicode="&#xf6f2;" horiz-adv-x="645" d="M102 872l82 121q49 -30 107 -52.5t102 -22.5q29 0 49.5 13.5t20.5 37.5q0 12 -5.5 21.5t-18.5 17t-24 12.5t-33 13t-36 14q-37 16 -60.5 29t-52 36t-43 56t-14.5 75q0 88 67 146.5t183 58.5q134 0 270 -78l-82 -121q-102 56 -178 56q-30 0 -47.5 -13t-17.5 -37 q0 -12 4.5 -21t17.5 -16.5t22 -11.5t33 -13t35 -13q37 -15 62 -29t53 -37.5t42.5 -57t14.5 -75.5q0 -89 -68.5 -148t-187.5 -59q-153 0 -297 98z" />
<glyph unicode="&#xf6f3;" horiz-adv-x="530" d="M156 1286l26 148h70l29 153l196 33l-33 -186h150l-27 -148h-149l-49 -278q-9 -60 28 -60q10 0 24 4t34 12t24 9l43 -152q-118 -47 -200 -47q-90 0 -127 64t-15 186l47 262h-71z" />
<glyph unicode="&#xf8ff;" horiz-adv-x="1796" d="M140.5 560.5q-2.5 11.5 15.5 21.5l57 41q2 1 3.5 2.5l3 3l2.5 2.5t2 3l1 1q19 16 37 -12l33 -64q6 -12 13.5 -15.5t14 2t9.5 17.5l18 70q4 19 18.5 21t26.5 -13l47 -53q13 -15 23.5 -11.5t11.5 23.5l4 70q3 20 15.5 25t27.5 -7l58 -43q17 -12 25.5 -6.5t4.5 25.5l-8 69 q-3 20 8.5 28t28.5 -1l64 -29q19 -9 26.5 -1.5t1.5 26.5l-22 67q-8 19 0.5 29t27.5 4l15 -2q40 -77 70 -202.5t30 -217.5q-15 -18 -34.5 -27.5t-59.5 -9.5h-8q0 46 -33 72q18 -21 18 -55v-15q-32 3 -32 39q0 43 -28 72t-77 29q-41 0 -68.5 -32t-27.5 -79q0 -60 49.5 -96.5 t138.5 -36.5q85 0 172 42t156.5 112t125 154.5t86 175.5t30.5 169q0 59 -37 98t-95 39q-48 0 -85 -33.5t-37 -84.5q0 -52 30.5 -82.5t87.5 -36.5q-30 -122 -59 -174q-12 96 -43.5 178t-75.5 129q91 -120 107 -330l-29 -41q0 156 -51 287t-131 172q-5 9 2 18.5t22 12.5l70 12 q19 3 21 13.5t-15 21.5l-59 39q-15 13 -13.5 26.5t19.5 20.5l63 29q14 4 19 10t0 13t-19 13l-63 27q-24 11 -21 29q13 6 15 16l35 62q9 19 20 18t16 -20l21 -68q6 -21 18.5 -24t26.5 14l47 53q12 15 23 12.5t12 -22.5l4 -72q1 -21 14.5 -26t28.5 8l57 43q15 12 24 5.5 t7 -26.5l-10 -70q-1 -20 10.5 -27.5t28.5 1.5l63 33q19 8 26.5 0t0.5 -29l-23 -64q-6 -20 3 -30t28 -4l70 14q20 6 26.5 -2t-4.5 -27l-37 -59q-12 -17 -5.5 -29.5t26.5 -11.5l71 4q21 0 25.5 -11t-8.5 -24l-49 -53q-14 -13 -10.5 -26.5t24.5 -16.5l70 -12q43 -10 6 -39 l-58 -39q-10 -7 -13 -15.5t2 -16.5t18 -13l63 -27q12 -5 16.5 -12t0 -13.5t-16.5 -11.5l-63 -26q-20 -7 -21.5 -22t14.5 -25l58 -41q11 -7 14.5 -14.5t-2 -13.5t-18.5 -9l-70 -13q-21 -3 -24.5 -16.5t10.5 -28.5l49 -49q13 -14 8.5 -24.5t-25.5 -10.5l-71 5q-20 0 -26.5 -12 t5.5 -29l37 -62q10 -17 4 -25.5t-26 -5.5l-70 19q-19 4 -28 -6t-3 -29l23 -68q8 -19 0 -26t-27 2l-63 31q-17 9 -28.5 1t-10.5 -30l10 -68q1 -21 -7.5 -25.5t-23.5 7.5l-57 43q-15 12 -28.5 5.5t-14.5 -26.5l-4 -69q-1 -20 -12 -23t-23 11l-47 55q-13 14 -26 12t-19 -22 l-21 -68q-3 -13 -9.5 -18t-13.5 -1t-13 15l-35 61q-9 19 -22 19t-25 -19l-31 -61q-6 -11 -13.5 -15t-14 1t-9.5 18l-20 68q-6 20 -19 22t-26 -12l-48 -55q-12 -14 -21.5 -11t-12.5 23l-5 69q-2 20 -15 26.5t-30 -5.5l-53 -43q-17 -13 -27 -8t-6 26l11 68q1 22 -10.5 30 t-30.5 -1l-62 -31q-19 -9 -26.5 -2t0.5 26l22 68q7 19 -2.5 29.5t-28.5 5.5l-69 -19q-20 -3 -26.5 5.5t3.5 25.5l39 62q11 17 4.5 29t-26.5 12l-72 -5q-21 0 -25 10.5t9 24.5l51 49q13 15 8.5 28.5t-25.5 16.5l-67 13q-21 4 -23.5 15.5zM616 281q44 -27 123 -27 q106 0 212.5 65t183.5 162t125.5 212t48.5 214q0 63 -41 101q24 -38 24 -84q0 -100 -47.5 -215t-126.5 -215q-85 -105 -188.5 -168.5t-212.5 -63.5q-58 0 -101 19z" />
<glyph unicode="&#xfb06;" horiz-adv-x="1673" d="M-29 133l135 195q75 -48 167 -85.5t157 -37.5q53 0 86 26t33 68q0 18 -8 33.5t-17.5 26t-32 22.5t-37.5 19t-48 20.5t-50 21.5q-44 20 -77 38t-69.5 47t-60.5 60.5t-39.5 76.5t-15.5 98q0 148 105 242t286 94q111 0 220 -37q-7 35 -7 67q0 158 109 261.5t299 103.5 q191 0 290 -104.5t66 -288.5l-4 -25h236l-39 -217h-236l-92 -520q-10 -62 4 -83.5t43 -21.5q34 0 135 46l64 -228q-186 -74 -309 -74q-136 0 -191 96.5t-22 288.5l86 496h-119l39 217h119l8 43q23 118 -7 180t-124 62q-100 0 -166 -69.5t-66 -184.5q0 -52 17 -98 q28 -13 69 -37l-133 -193q-64 38 -141.5 66t-136.5 28q-52 0 -83.5 -24t-31.5 -64q0 -18 7.5 -34t17 -26t31 -22t35.5 -18t46 -19t47 -20q58 -25 101 -51t85 -64.5t64.5 -92t22.5 -118.5q0 -152 -109.5 -247t-296.5 -95q-128 0 -249 46t-212 110z" />
<glyph horiz-adv-x="739" d="M94 588l76 149q31 -8 72 -8q94 0 170.5 53.5t117.5 147.5q-61 -53 -151 -53q-104 0 -164.5 68t-60.5 175q0 134 85.5 231t229.5 97t222.5 -92.5t78.5 -229.5q0 -149 -65 -278t-186.5 -209t-272.5 -80q-44 0 -82 7.5t-54 14.5zM352 1130q0 -42 24 -71t73 -29 q38 0 71.5 22.5t50.5 51.5q2 10 2 33q0 63 -26.5 102t-75.5 39q-57 0 -88 -44t-31 -104z" />
<glyph horiz-adv-x="1032" d="M-90 0l438 596l-215 580h295l104 -398l244 398h322l-422 -582l231 -594h-297l-116 391l-250 -391h-334z" />
<glyph horiz-adv-x="1376" d="M-180 -242q41 15 69 27t52.5 27t39.5 25t28.5 30t20 33t14.5 42.5t12 50.5t12 64l139 801h-115l39 217h115l10 55q32 187 103.5 275t205.5 88q150 0 330 -102l-131 -191q-85 39 -143 39q-63 0 -82 -98l-13 -66h215l-41 -217h-211l-137 -778q-12 -70 -18.5 -102.5t-18 -85 t-23 -75.5l-30 -60t-41.5 -55t-55 -44t-74 -43t-94.5 -36t-120.5 -38zM508 -242q41 15 69 27t52.5 27t39.5 25t28.5 30t20 33t14.5 42.5t12 50.5t12 64l141 801h-117l39 217h117l10 55q32 187 101.5 275t199.5 88q121 0 273 -82l-103 -201q-75 29 -108 29q-28 0 -50 -23 t-30 -75l-12 -66h213l-41 -217h-211l-138 -778q-33 -191 -58 -258q-40 -106 -132 -167q-91 -60 -285 -114z" />
<glyph horiz-adv-x="1300" d="M-182 -242q41 15 69 27t52.5 27t39.5 25t28.5 30t20.5 33t15 42.5t12.5 50.5t12.5 64l139 801h-115l39 217h115l6 35q34 189 113.5 276t218.5 87q140 0 370 -89q77 109 224 109q149 0 329 -102l-131 -191q-85 39 -143 39q-63 0 -82 -98l-12 -66h215l-41 -217h-211 l-137 -778q-13 -78 -20 -114.5t-21.5 -92.5t-28.5 -80.5t-39 -63t-55.5 -57.5t-76 -45t-102.5 -45.5t-133 -40.5l-57 217q41 15 69 27t52.5 27t39.5 25t28.5 30t20 33t14.5 42.5t12 50.5t12 64l139 801h-330l-137 -778q-12 -69 -18.5 -102t-18.5 -84.5t-23 -75.5 t-29.5 -60.5t-42 -55t-55.5 -44.5t-74 -43t-94.5 -36t-119.5 -38zM528 1075h330l19 103q-167 41 -240 41q-82 0 -100 -99z" />
<glyph horiz-adv-x="2377" d="M-182 -242q41 15 69 27t52.5 27t39.5 25t28.5 30t20.5 33t15 42.5t12.5 50.5t12.5 64l139 801h-115l39 217h115l6 35q34 189 113.5 276t218.5 87q146 0 377 -91q83 111 239 111q137 0 336 -76l14 76h281l-94 -535q161 140 301 140q123 0 197.5 -94.5t74.5 -268.5 q0 -138 -30 -271.5t-85 -243t-142 -176.5t-191 -67q-47 0 -88.5 12t-75.5 35t-58 45t-51 52l-20 -121h-281l209 1196q-153 43 -244 43q-39 0 -66 -25t-34 -73l-12 -66h211l-39 -217h-211l-137 -778q-15 -88 -23.5 -129.5t-25.5 -100.5t-37 -87t-52.5 -65.5t-79 -60 t-109 -47.5t-149.5 -49l-59 217q54 20 88 35t61.5 36t41 36.5t26 48.5t18 60t15.5 83l139 801h-330l-137 -778q-12 -69 -18.5 -102t-18.5 -84.5t-23 -75.5t-29.5 -60.5t-42 -55t-55.5 -44.5t-74 -43t-94.5 -36t-119.5 -38zM528 1075h330l19 101q-163 43 -240 43 q-82 0 -100 -99zM1628 344q33 -60 77.5 -94.5t94.5 -34.5q66 0 118 77t77.5 183.5t25.5 212.5q0 79 -28 125.5t-84 46.5q-94 0 -213 -133z" />
<glyph horiz-adv-x="2371" d="M-182 -242q41 15 69 27t52.5 27t39.5 25t28.5 30t20.5 33t15 42.5t12.5 50.5t12.5 64l139 801h-115l39 217h115l6 35q34 189 113.5 276t218.5 87q146 0 377 -91q83 111 239 111q137 0 336 -76l14 76h281l-96 -541q193 146 340 146q136 0 193 -92t26 -261l-131 -745h-283 l123 700q7 46 8 83.5t-17.5 61t-56.5 23.5q-55 0 -121 -41t-118 -94l-129 -733h-281l209 1196q-153 43 -244 43q-39 0 -66 -25t-34 -73l-12 -66h211l-39 -217h-211l-137 -778q-15 -88 -23.5 -129.5t-25.5 -100.5t-37 -87t-52.5 -65.5t-79 -60t-109 -47.5t-149.5 -49l-59 217 q54 20 88 35t61.5 36t41 36.5t26 48.5t18 60t15.5 83l139 801h-330l-137 -778q-12 -69 -18.5 -102t-18.5 -84.5t-23 -75.5t-29.5 -60.5t-42 -55t-55.5 -44.5t-74 -43t-94.5 -36t-119.5 -38zM528 1075h330l19 101q-163 43 -240 43q-82 0 -100 -99z" />
<glyph horiz-adv-x="1730" d="M-182 -242q41 15 69 27t52.5 27t39.5 25t28.5 30t20.5 33t15 42.5t12.5 50.5t12.5 64l139 801h-115l39 217h115l6 35q34 189 113.5 276t218.5 87q145 0 381 -93q85 113 247 113q95 0 216 -30.5t225 -71.5l-119 -193q-161 41 -266 41q-43 0 -75 -25t-42 -73l-12 -66h563 l-191 -1075h-280l151 858h-280l-137 -778q-15 -87 -23.5 -128.5t-25.5 -101t-37 -87t-52.5 -65.5t-79 -60.5t-109 -47.5t-149.5 -49l-59 217q54 20 88 35t61.5 36t41 36.5t26 48.5t18 60t15.5 83l139 801h-330l-137 -778q-12 -69 -18.5 -102t-18.5 -84.5t-23 -75.5 t-29.5 -60.5t-42 -55t-55.5 -44.5t-74 -43t-94.5 -36t-119.5 -38zM528 1075h330l19 101q-169 43 -240 43q-82 0 -100 -99z" />
<glyph horiz-adv-x="1734" d="M-182 -242q41 15 69 27t52.5 27t39.5 25t28.5 30t20.5 33t15 42.5t12.5 50.5t12.5 64l139 801h-115l39 217h115l6 35q34 189 113.5 276t218.5 87q143 0 379 -93q83 113 249 113q95 0 216 -30.5t225 -71.5l-119 -193q-161 41 -266 41q-43 0 -75 -25t-42 -73l-12 -66h565 l-186 -1048q-15 -86 -23.5 -126t-29.5 -98t-49 -87t-76.5 -65.5t-118.5 -61.5t-170 -50l-58 223q64 24 102.5 43t64 36t39 43t20 49t14.5 71l151 854h-282l-137 -778q-15 -87 -23.5 -128.5t-25.5 -101t-37 -87t-52.5 -65.5t-79 -60.5t-109 -47.5t-149.5 -49l-59 217 q54 20 88 35t61.5 36t41 36.5t26 48.5t18 60t15.5 83l139 801h-330l-137 -778q-12 -69 -18.5 -102t-18.5 -84.5t-23 -75.5t-29.5 -60.5t-42 -55t-55.5 -44.5t-74 -43t-94.5 -36t-119.5 -38zM528 1075h330l19 101q-169 43 -240 43q-82 0 -100 -99z" />
<glyph horiz-adv-x="2289" d="M-182 -242q41 15 69 27t52.5 27t39.5 25t28.5 30t20.5 33t15 42.5t12.5 50.5t12.5 64l139 801h-115l39 217h115l6 35q34 189 113.5 276t218.5 87q146 0 377 -91q83 111 239 111q137 0 336 -76l14 76h281l-143 -813l303 395h336l-390 -438l248 -637h-287l-149 424 l-131 -148l-49 -276h-281l209 1196q-153 43 -244 43q-39 0 -66 -25t-34 -73l-12 -66h211l-39 -217h-211l-137 -778q-15 -88 -23.5 -129.5t-25.5 -100.5t-37 -87t-52.5 -65.5t-79 -60t-109 -47.5t-149.5 -49l-59 217q54 20 88 35t61.5 36t41 36.5t26 48.5t18 60t15.5 83 l139 801h-330l-137 -778q-12 -69 -18.5 -102t-18.5 -84.5t-23 -75.5t-29.5 -60.5t-42 -55t-55.5 -44.5t-74 -43t-94.5 -36t-119.5 -38zM528 1075h330l19 101q-163 43 -240 43q-82 0 -100 -99z" />
<glyph horiz-adv-x="688" d="M-180 -242q41 15 69 27t52.5 27t39.5 25t28.5 30t20 33t14.5 42.5t12 50.5t12 64l141 801h-117l39 217h117l10 55q32 187 101.5 275t199.5 88q120 0 272 -82l-102 -201q-75 29 -108 29q-28 0 -50 -23t-30 -75l-13 -66h213l-41 -217h-211l-137 -778q-33 -191 -58 -258 q-40 -106 -132 -167q-91 -60 -285 -114z" />
<glyph horiz-adv-x="1794" d="M-182 -242q41 15 69 27t52.5 27t39.5 25t28.5 30t20.5 33t15 42.5t12.5 50.5t12.5 64l139 801h-115l39 217h115l6 35q34 189 113.5 276t218.5 87q146 0 377 -91q83 111 239 111q137 0 336 -76l14 76h281l-262 -1493h-281l209 1196q-153 43 -244 43q-39 0 -66 -25t-34 -73 l-12 -66h211l-39 -217h-211l-137 -778q-15 -88 -23.5 -129.5t-25.5 -100.5t-37 -87t-52.5 -65.5t-79 -60t-109 -47.5t-149.5 -49l-59 217q54 20 88 35t61.5 36t41 36.5t26 48.5t18 60t15.5 83l139 801h-330l-137 -778q-12 -69 -18.5 -102t-18.5 -84.5t-23 -75.5t-29.5 -60.5 t-42 -55t-55.5 -44.5t-74 -43t-94.5 -36t-119.5 -38zM528 1075h330l19 101q-163 43 -240 43q-82 0 -100 -99z" />
<glyph horiz-adv-x="1982" d="M-182 -242q41 15 69 27t52.5 27t39.5 25t28.5 30t20.5 33t15 42.5t12.5 50.5t12.5 64l139 801h-115l39 217h115l6 35q34 189 113.5 276t218.5 87q140 0 370 -89q74 109 222 109q149 0 329 -102l-131 -191q-28 14 -72 26.5t-71 12.5q-63 0 -82 -98l-12 -66h348l47 260 l289 51l-56 -311h236l-39 -217h-236l-90 -520q-19 -105 45 -105q12 0 25.5 3t31 9t27.5 10.5t30.5 13.5t23.5 10l61 -228q-186 -74 -307 -74q-136 0 -191 96.5t-22 288.5l88 496h-348l-137 -778q-15 -88 -23.5 -129.5t-25.5 -100.5t-37 -87t-52.5 -65.5t-79 -60t-109 -47.5 t-149.5 -49l-57 217q54 20 87.5 35t60.5 36t40.5 36.5t26 48.5t18 60t15.5 83l141 801h-330l-137 -778q-12 -69 -18.5 -102t-18.5 -84.5t-23 -75.5t-29.5 -60.5t-42 -55t-55.5 -44.5t-74 -43t-94.5 -36t-119.5 -38zM528 1075h330l19 101q-163 43 -240 43q-38 0 -64.5 -25.5 t-35.5 -73.5z" />
<glyph horiz-adv-x="1759" d="M-180 -242q41 15 69 27t52.5 27t39.5 25t28.5 30t20 33t14.5 42.5t12 50.5t12 64l141 801h-117l39 217h117l10 55q34 189 113 276t217 87q137 0 336 -76l14 76h281l-97 -541q193 146 340 146q136 0 193 -92t26 -261l-131 -745h-282l123 700q7 46 8 83.5t-17.5 61 t-56.5 23.5q-55 0 -122 -41t-118 -94l-129 -733h-280l209 1196q-153 43 -244 43q-38 0 -64.5 -25t-35.5 -73l-13 -66h213l-41 -217h-211l-137 -778q-12 -70 -18.5 -102.5t-18 -85t-23 -75.5l-30 -60t-41.5 -55t-55 -44t-74 -43t-94.5 -36t-120.5 -38z" />
<glyph horiz-adv-x="1118" d="M75.5 323q0.5 70 16.5 158l121 695h268l-131 -748q-7 -37 -8 -65t5 -55.5t21 -45t44.5 -28.5t72.5 -11q183 0 215 203l134 750h268l-131 -744q-14 -80 -34.5 -142.5t-58.5 -122.5t-90.5 -99t-131.5 -62.5t-181 -23.5q-112 0 -192 26t-124 70t-64 109.5t-19.5 135.5z M428 1511h168q-6 -43 17.5 -66.5t70.5 -23.5q61 0 100 24t45 66h170q-20 -118 -104.5 -184.5t-218.5 -66.5q-136 0 -201.5 69.5t-46.5 181.5z" />
<glyph horiz-adv-x="1120" d="M-180 -242q41 15 69 27t52.5 27t39.5 25t28.5 30t20 33t14.5 42.5t12 50.5t12 64l141 801h-117l39 217h117l10 55q34 189 115.5 276t226.5 87q179 0 440 -102l-118 -193q-56 14 -137 27.5t-130 13.5q-42 0 -72.5 -25t-39.5 -73l-13 -66h562l-191 -1075h-280l151 858h-280 l-138 -778q-34 -191 -60 -258q-40 -107 -132 -167q-90 -60 -285 -114z" />
<glyph horiz-adv-x="1120" d="M-180 -242q41 15 69 27t52.5 27t39.5 25t28.5 30t20 33t14.5 42.5t12 50.5t12 64l141 801h-117l39 217h117l10 55q34 189 115.5 276t226.5 87q179 0 440 -102l-118 -193q-56 14 -137 27.5t-130 13.5q-42 0 -72.5 -25t-39.5 -73l-13 -66h564l-187 -1048q-30 -166 -54 -226 q-42 -103 -143 -163q-93 -55 -270 -99l-57 223q80 30 121 50.5t67 50t34 56.5t18 85l149 854h-280l-138 -778q-34 -191 -60 -258q-40 -107 -132 -167q-90 -60 -285 -114z" />
<glyph horiz-adv-x="1675" d="M-180 -242q41 15 69 27t52.5 27t39.5 25t28.5 30t20 33t14.5 42.5t12 50.5t12 64l141 801h-117l39 217h117l10 55q34 189 113 276t217 87q137 0 336 -76l14 76h281l-144 -813l303 395h336l-389 -438l248 -637h-287l-149 424l-131 -148l-50 -276h-280l209 1196 q-153 43 -244 43q-38 0 -64.5 -25t-35.5 -73l-13 -66h213l-41 -217h-208l-138 -778q-13 -77 -20.5 -113.5t-22 -92t-28 -81t-39 -63.5t-55.5 -57.5t-76 -45.5t-103 -45.5t-133 -40.5z" />
<glyph horiz-adv-x="403" d="M137 788l35 201h190l-34 -201h-191zM225 1073l43 576h232l-162 -576h-113z" />
<glyph horiz-adv-x="1181" d="M-180 -242q41 15 69 27t52.5 27t39.5 25t28.5 30t20 33t14.5 42.5t12 50.5t12 64l141 801h-117l39 217h117l10 55q34 189 113 276t217 87q130 0 334 -74l14 74h281l-263 -1493h-280l209 1196q-169 43 -242 43q-38 0 -64.5 -25t-35.5 -73l-13 -66h213l-41 -217h-211 l-137 -778q-12 -70 -18.5 -102.5t-18 -85t-23 -75.5l-30 -60t-41.5 -55t-55 -44t-74 -43t-94.5 -36t-120.5 -38z" />
<glyph horiz-adv-x="1372" d="M-180 -242q41 15 69 27t52.5 27t39.5 25t28.5 30t20 33t14.5 42.5t12 50.5t12 64l141 801h-117l39 217h117l10 55q32 188 102.5 275.5t204.5 87.5q150 0 330 -102l-131 -191q-85 39 -143 39q-28 0 -50 -23t-30 -75l-13 -66h346l48 260l288 51l-55 -311h236l-39 -217h-236 l-90 -520q-19 -105 45 -105q12 0 25.5 3t30.5 9t28 10.5t29.5 13t23.5 10.5l62 -228q-186 -74 -307 -74q-136 0 -191 96.5t-22 288.5l88 496h-349l-137 -778q-12 -70 -18.5 -102.5t-18 -85t-23 -75.5l-30 -60t-41.5 -55t-55 -44t-74 -43t-94.5 -36t-120.5 -38z" />
<glyph horiz-adv-x="524" d="M-186 -438q50 19 75 31t42 33.5t22.5 43t13.5 68.5l80 452h-72l27 148h70l4 16q23 122 68.5 178t134.5 56q93 0 213 -66l-89 -127q-66 23 -86 23q-37 0 -47 -58l-4 -22h129l-26 -148h-129l-78 -438q-25 -133 -45 -176q-32 -69 -113 -109q-55 -27 -151 -53z" />
<glyph horiz-adv-x="1118" d="M75.5 323q0.5 70 16.5 158l121 695h268l-131 -748q-7 -37 -8 -65t5 -55.5t21 -45t44.5 -28.5t72.5 -11q183 0 215 203l134 750h268l-131 -744q-14 -80 -34.5 -142.5t-58.5 -122.5t-90.5 -99t-131.5 -62.5t-181 -23.5q-112 0 -192 26t-124 70t-64 109.5t-19.5 135.5z M477 1260l256 282h326l-338 -282h-244z" />
<glyph horiz-adv-x="712" d="M-41 115l111 131q28 -23 47 -37t57 -29.5t76 -15.5q58 0 99.5 36.5t41.5 100.5q0 45 -24.5 71.5t-73.5 26.5q-64 0 -137 -47l-103 70l117 438h494l-31 -172h-324l-28 -131q42 10 77 10q115 0 176.5 -71.5t61.5 -178.5q0 -135 -89.5 -233t-242.5 -98q-164 0 -305 129z" />
<glyph horiz-adv-x="712" d="M59 688l111 131q28 -23 47 -37t57 -29.5t76 -15.5q58 0 100 36.5t42 100.5q0 45 -25 72t-74 27q-64 0 -137 -47l-102 69l116 439h494l-31 -172h-323l-29 -132q46 11 78 11q115 0 176 -71t61 -179q0 -135 -89 -233.5t-242 -98.5q-165 0 -306 129z" />
<glyph horiz-adv-x="1058" d="M-72 -78l164 193q30 -25 50 -40.5t60.5 -41t84 -38.5t88.5 -13q99 0 172.5 72t73.5 190q0 83 -42 135.5t-126 52.5q-39 0 -82 -14t-70 -29t-70 -41l-153 103l190 725h768l-45 -254h-516l-57 -260q64 18 133 18q122 0 207.5 -57t124.5 -148t39 -207q0 -85 -22 -165 t-66.5 -149.5t-106.5 -122t-147.5 -82.5t-184.5 -30q-264 0 -467 203z" />
<glyph horiz-adv-x="1171" d="M31 180l164 193q42 -35 70 -56.5t91 -49t121 -27.5q99 0 172.5 72t73.5 190q0 83 -42 135.5t-126 52.5q-39 0 -82 -14t-69.5 -28.5t-69.5 -41.5l-154 103l191 725h768l-45 -254h-516l-58 -260q64 18 133 18q122 0 207.5 -57t124.5 -148t39 -207q0 -85 -22 -165 t-66.5 -149.5t-106 -122t-147 -82.5t-184.5 -30q-264 0 -467 203z" />
<glyph horiz-adv-x="403" d="M-55 -307l35 201h190l-35 -201h-190zM33 -23l43 576h231l-162 -576h-112z" />
<glyph horiz-adv-x="1482" d="M53 563l88 105q76 -66 158 -66q53 0 92 30t39 83q0 39 -23.5 62.5t-68.5 23.5q-62 0 -121 -41l-84 57l98 359h418l-22 -138h-285l-27 -112q46 8 72 8q100 0 153.5 -58.5t53.5 -148.5q0 -109 -76.5 -188.5t-206.5 -79.5q-148 0 -258 104zM299 0l684 1176h170l-684 -1176 h-170zM795 172q0 137 184 217q-78 58 -78 139t69 135t183 54q103 0 160 -45.5t57 -116.5q0 -104 -137 -178q113 -67 113 -172q0 -95 -81 -156t-216 -61q-122 0 -188 49t-66 135zM956 188q0 -36 26.5 -54.5t72.5 -18.5q56 0 93.5 26.5t37.5 69.5q0 36 -23 61.5t-65 49.5 q-67 -28 -104.5 -58.5t-37.5 -75.5zM1051 516q0 -48 59 -78q107 39 107 97q0 28 -18.5 44.5t-51.5 16.5q-43 0 -69.5 -24t-26.5 -56z" />
<glyph horiz-adv-x="403" d="M117 788l162 576h112l-43 -576h-231zM254 1448l35 201h190l-35 -201h-190z" />
<glyph horiz-adv-x="1464" d="M53 563l88 105q81 -66 158 -66q53 0 92 30t39 83q0 39 -23.5 62.5t-66.5 23.5q-64 0 -123 -41l-84 57l98 359h420l-24 -138h-283l-27 -112q46 8 72 8q98 0 151.5 -58.5t53.5 -148.5q0 -109 -76.5 -188.5t-206.5 -79.5q-143 0 -258 104zM299 0l684 1176h170l-686 -1176 h-168zM795 254q0 121 55.5 226.5t159 171t231.5 65.5q36 0 67 -5.5t44 -11.5l14 -6l-59 -121q-27 9 -62 9q-84 0 -152.5 -46t-105.5 -126q53 45 135 45q92 0 144.5 -55.5t52.5 -143.5q0 -109 -72.5 -188.5t-195.5 -79.5t-189.5 76.5t-66.5 189.5zM952 246q0 -54 24.5 -87.5 t72.5 -33.5q52 0 81 36.5t29 86.5q0 37 -22 61.5t-68 24.5q-36 0 -68.5 -20t-48.5 -44v-24z" />
<glyph horiz-adv-x="403" d="M-78 -307l162 575h113l-43 -575h-232zM59 352l35 201h191l-35 -201h-191z" />
<glyph horiz-adv-x="1118" d="M73.5 323q0.5 70 16.5 158l121 695h268l-131 -748q-7 -37 -8 -65t5 -55.5t21 -45t44.5 -28.5t72.5 -11q183 0 215 203l133 750h269l-131 -744q-14 -80 -34.5 -142.5t-58.5 -122.5t-90.5 -99t-131.5 -62.5t-181 -23.5q-112 0 -192 26t-124 70t-64 109.5t-19.5 135.5z" />
<glyph horiz-adv-x="671" d="M180 1473l31 176h612l-30 -176h-205l-123 -685h-197l119 685h-207z" />
<glyph horiz-adv-x="778" d="M-43 158l25 145l419 557h265l-95 -530h111l-31 -172h-110l-27 -158h-199l27 158h-385zM182 330h191l59 336z" />
<glyph horiz-adv-x="778" d="M57 731l25 146l420 557h264l-94 -531h110l-30 -172h-111l-27 -158h-198l26 158h-385zM283 903h190l59 336z" />
<glyph horiz-adv-x="1171" d="M-63 18l36 215l684 943h390l-160 -904h176l-45 -254h-176l-49 -276h-291l49 276h-614zM266 272h330l106 602z" />
<glyph horiz-adv-x="1173" d="M-6 276l39 216l684 942h370l-159 -904h164l-45 -254h-164l-49 -276h-289l49 276h-600zM322 530h317l102 580z" />
<glyph horiz-adv-x="1566" d="M55 602l19 115l366 459h213l-80 -437h97l-25 -137h-98l-23 -131h-157l22 131h-334zM242 739h172l53 287zM379 0l686 1176h170l-686 -1176h-170zM879 92l90 107q78 -68 155 -68q54 0 92.5 31t38.5 84q0 40 -23 63t-67 23q-55 0 -123 -41l-84 55l99 359h418l-21 -138h-285 l-26 -112q46 8 71 8q99 0 152 -58t53 -147q0 -109 -75.5 -189.5t-204.5 -80.5q-138 0 -260 104z" />
<glyph horiz-adv-x="524" d="M-4 0l219 786h156l-60 -786h-315zM184 901l47 275h258l-45 -275h-260z" />
<glyph horiz-adv-x="1118" d="M75.5 323q0.5 70 16.5 158l121 695h268l-131 -748q-7 -37 -8 -65t5 -55.5t21 -45t44.5 -28.5t72.5 -11q183 0 215 203l134 750h268l-131 -744q-14 -80 -34.5 -142.5t-58.5 -122.5t-90.5 -99t-131.5 -62.5t-181 -23.5q-112 0 -192 26t-124 70t-64 109.5t-19.5 135.5z M358 1260l230 282h264l127 -282h-176l-96 153l-146 -153h-203z" />
<glyph horiz-adv-x="522" d="M25 0l45 274h260l-47 -274h-258zM143 389l60 787h315l-219 -787h-156z" />
<glyph horiz-adv-x="1107" d="M8 219l29 174h117l182 1041h852l-47 -260h-557l-60 -330h441l-45 -256h-441l-35 -195h299l-30 -174h-299l-37 -219h-293l39 219h-115z" />
<glyph horiz-adv-x="993" d="M-2 168l27 158h102l149 850h750l-43 -240h-479l-41 -234h377l-41 -231h-377l-27 -145h256l-26 -158h-258l-29 -168h-268l28 168h-100z" />
<glyph horiz-adv-x="718" d="M-86 -184l20 114h76l111 623h545l-31 -176h-346l-33 -168h272l-28 -172h-273l-20 -107h186l-20 -114h-187l-20 -123h-197l23 123h-78z" />
<glyph horiz-adv-x="718" d="M109 911l20 115h74l110 623h545l-31 -176h-346l-32 -168h272l-29 -172h-272l-21 -107h189l-21 -115h-188l-21 -123h-196l20 123h-73z" />
<glyph horiz-adv-x="497" d="M31 657q50 19 75 31.5t42 34t22.5 43t13.5 68.5l80 452h-71l26 148h70l4 16q23 122 68.5 177.5t134.5 55.5q95 0 213 -65l-88 -127q-63 22 -86 22q-38 0 -48 -57l-4 -22h129l-26 -148h-129l-78 -438q-25 -133 -45 -176q-32 -69 -113 -109q-55 -27 -151 -53z" />
<glyph horiz-adv-x="671" d="M-12 377l30 176h613l-31 -176h-205l-123 -684h-196l119 684h-207z" />
<glyph horiz-adv-x="1054" d="M16 0l207 1176h269l-31 -183h121q419 0 419 -325q0 -90 -29.5 -168.5t-88 -142t-155 -100t-220.5 -36.5h-182l-41 -221h-269zM365 453h135q108 0 167.5 52.5t59.5 137.5q0 115 -166 115h-141z" />
<glyph horiz-adv-x="911" d="M66 -330l81 146q39 -25 76 -25q38 0 63 23t25 77q0 43 -22 109h-74l164 936h-289l43 240h844l-43 -240h-287l-164 -936h-73q5 -9 12 -26t15.5 -53.5t8.5 -72.5q0 -107 -64 -165t-159 -58q-96 0 -157 45z" />
<glyph horiz-adv-x="911" d="M90 936l43 240h844l-43 -240h-287l-164 -936h-268l164 936h-289zM307 1542h178l97 -151l145 151h203l-230 -282h-264z" />
<glyph horiz-adv-x="925" d="M96 936l43 240h844l-43 -240h-287l-75 -430h131l-29 -156h-129l-62 -350h-268l62 350h-127l26 156h127l76 430h-289z" />
<glyph horiz-adv-x="827" d="M-82 -307l100 575q14 75 38 130.5t64.5 101t104.5 69t150 23.5q148 0 220.5 -62.5t72.5 -150.5q0 -43 -16.5 -80t-33.5 -53l-16 -15q-1 0 -9 -2t-12.5 -3t-14 -4t-15.5 -5t-15.5 -6.5t-15.5 -8.5t-13 -9.5t-11 -12t-6.5 -14t-2.5 -16.5q0 -21 15.5 -37t47 -38t50.5 -42 q62 -65 62 -146q0 -86 -69.5 -147.5t-174.5 -61.5q-114 0 -246 76l84 119q88 -47 143 -47q32 0 50 16t18 39q0 35 -41 62q-4 3 -21.5 15t-27.5 19.5t-26.5 24t-26 32t-16.5 39.5t-7 50q0 43 16.5 78t46.5 59t55 38t58 28q6 15 6 32q0 82 -108 82q-70 0 -109 -41.5 t-59 -144.5l-98 -561h-191z" />
<glyph horiz-adv-x="845" d="M119 788l100 576q11 59 27.5 106t45 89t66.5 69.5t93 43.5t124 16q148 0 220.5 -62.5t72.5 -150.5q0 -27 -6.5 -52t-16 -41.5t-19.5 -29.5t-16 -19l-7 -6q-78 -19 -101 -46q-14 -17 -14 -36q0 -21 15.5 -37t47 -38t50.5 -42q61 -64 61 -145q0 -86 -69.5 -147.5 t-174.5 -61.5q-113 0 -245 76l84 119q88 -47 143 -47q32 0 50 16t18 39q0 34 -41 61q-3 2 -21.5 14.5t-28 20t-26 24t-25.5 32.5t-16.5 40t-7.5 50q0 43 16.5 77.5t46.5 58.5t55 38t58 28q6 15 6 33q0 82 -109 82q-69 0 -108 -41.5t-59 -144.5l-99 -562h-190z" />
<glyph horiz-adv-x="733" d="M-115 -518l62 153q129 -49 221 -49q106 0 125 107l12 71q-103 -86 -194 -86q-75 0 -120.5 59.5t-45.5 166.5q0 113 32.5 214t98.5 167.5t151 66.5q38 0 73 -15.5t50.5 -28.5t44.5 -40l13 70h190l-113 -637q-28 -155 -96.5 -212.5t-200.5 -57.5q-152 0 -303 51zM139 -70 q0 -42 15.5 -66t44.5 -24q62 0 135 80l35 197q-42 73 -99 73q-39 0 -70.5 -43.5t-46 -102t-14.5 -114.5z" />
<glyph horiz-adv-x="911" d="M90 936l43 240h844l-43 -240h-287l-164 -936h-268l164 936h-289z" />
<glyph horiz-adv-x="747" d="M102 901l111 141q55 -37 122.5 -65.5t121.5 -28.5q43 0 71.5 20.5t28.5 57.5q0 18 -8 32t-27 27t-36 21.5t-50 24.5t-53 26q-85 50 -131.5 109t-46.5 139q0 109 80 183.5t221 74.5q163 0 334 -104l-109 -142q-49 29 -109 50.5t-106 21.5q-41 0 -69.5 -20t-28.5 -56 q0 -16 8 -29t26 -25.5t35.5 -22t50.5 -26.5t56 -30q83 -49 129.5 -103t46.5 -137q0 -112 -83.5 -189t-227.5 -77q-182 0 -357 127z" />
<glyph horiz-adv-x="1118" d="M75.5 323q0.5 70 16.5 158l121 695h268l-131 -748q-7 -37 -8 -65t5 -55.5t21 -45t44.5 -28.5t72.5 -11q183 0 215 203l134 750h268l-131 -744q-14 -80 -34.5 -142.5t-58.5 -122.5t-90.5 -99t-131.5 -62.5t-181 -23.5q-112 0 -192 26t-124 70t-64 109.5t-19.5 135.5z M403 1280l43 242h220l-41 -242h-222zM725 1280l43 242h219l-43 -242h-219z" />
<glyph horiz-adv-x="743" d="M86 578l61 153q129 -49 222 -49q106 0 125 106l12 72q-103 -86 -195 -86q-75 0 -120.5 59t-45.5 166q0 113 32.5 214t99 168t151.5 67q38 0 73 -15.5t50.5 -28.5t44.5 -40l12 70h191l-113 -637q-28 -155 -96.5 -213t-200.5 -58q-149 0 -303 52zM340 1026q0 -42 15 -66 t44 -24q63 0 136 80l34 196q-43 74 -98 74q-39 0 -70.5 -43.5t-46 -102t-14.5 -114.5z" />
<glyph horiz-adv-x="747" d="M-90 -195l110 142q55 -37 122.5 -65.5t121.5 -28.5q43 0 72 20t29 57q0 18 -8 32t-27.5 27t-36.5 22t-50 24t-53 26q-85 50 -131.5 109t-46.5 139q0 109 80 183.5t221 74.5q163 0 334 -104l-108 -141q-49 29 -109 50t-106 21q-41 0 -70 -20t-29 -56q0 -16 8 -29t26 -25.5 t35.5 -22t50.5 -26.5t56 -30q84 -49 130.5 -102.5t46.5 -136.5q0 -112 -84 -189.5t-228 -77.5q-181 0 -356 127z" />
<glyph horiz-adv-x="1007" d="M-20 154l147 192q208 -129 338 -129q61 0 101 29t40 80q0 20 -10 37.5t-25 31t-41.5 29t-49.5 27t-59.5 29.5t-62.5 32q-116 69 -177.5 144t-61.5 186q0 150 110 251t303 101q229 0 461 -141l-149 -193q-175 98 -299 98q-56 0 -95.5 -26.5t-39.5 -77.5q0 -23 11 -41.5 t37 -36.5t49 -30.5t69 -35.5t75 -38q55 -31 94.5 -60.5t76.5 -69t56 -90t19 -110.5q0 -152 -115.5 -256t-312.5 -104q-137 0 -262.5 49.5t-226.5 122.5zM199 -532l123 170h-91l43 245h205l-37 -270l-202 -217z" />
<glyph horiz-adv-x="1118" d="M75.5 323q0.5 70 16.5 158l121 695h268l-131 -748q-7 -37 -8 -65t5 -55.5t21 -45t44.5 -28.5t72.5 -11q183 0 215 203l134 750h268l-131 -744q-14 -80 -34.5 -142.5t-58.5 -122.5t-90.5 -99t-131.5 -62.5t-181 -23.5q-112 0 -192 26t-124 70t-64 109.5t-19.5 135.5z M391 1542h295l162 -282h-215z" />
<glyph horiz-adv-x="1118" d="M75.5 323q0.5 70 16.5 158l121 695h268l-131 -748q-7 -37 -8 -65t5 -55.5t21 -45t44.5 -28.5t72.5 -11q183 0 215 203l134 750h268l-131 -744q-14 -80 -34.5 -142.5t-58.5 -122.5t-90.5 -99t-131.5 -62.5t-181 -23.5q-112 0 -192 26t-124 70t-64 109.5t-19.5 135.5z M401 1260l183 282h250l-265 -282h-168zM715 1260l182 282h248l-262 -282h-168z" />
<glyph horiz-adv-x="1007" d="M-20 154l147 192q208 -129 338 -129q61 0 101 29t40 80q0 20 -10 37.5t-25 31t-41.5 29t-49.5 27t-59.5 29.5t-62.5 32q-116 69 -177.5 144t-61.5 186q0 150 110 251t303 101q229 0 461 -141l-149 -193q-175 98 -299 98q-56 0 -95.5 -26.5t-39.5 -77.5q0 -23 11 -41.5 t37 -36.5t49 -30.5t69 -35.5t75 -38q55 -31 94.5 -60.5t76.5 -69t56 -90t19 -110.5q0 -152 -115.5 -256t-312.5 -104q-137 0 -262.5 49.5t-226.5 122.5zM307 1260l230 282h264l127 -282h-176l-97 153l-145 -153h-203z" />
<glyph horiz-adv-x="1005" d="M-20 154l147 192q208 -129 338 -129q61 0 101 29t40 80q0 20 -10 37.5t-25 31t-41.5 29t-49.5 27t-59.5 29.5t-62.5 32q-116 69 -177.5 144t-61.5 186q0 150 110 251t303 101q229 0 461 -141l-149 -193q-175 98 -299 98q-56 0 -95.5 -26.5t-39.5 -77.5q0 -23 11 -41.5 t37 -36.5t49 -30.5t69 -35.5t75 -38q55 -31 94.5 -60.5t76.5 -69t56 -90t19 -110.5q0 -145 -104.5 -246.5t-284.5 -111.5q29 -65 29 -136q0 -107 -64.5 -165t-159.5 -58q-96 0 -157 45l82 146q39 -25 75 -25q38 0 63 23t25 77q0 45 -18 97q-208 23 -403 166z" />
<glyph horiz-adv-x="712" d="M-70 -307l158 895h191l-58 -322q120 86 211 86q87 0 123.5 -56t17.5 -161l-77 -442h-193l74 409q9 38 1 66.5t-40 28.5q-33 0 -72.5 -22.5t-68.5 -53.5l-76 -428h-191z" />
<glyph horiz-adv-x="1007" d="M-20 154l147 192q208 -129 338 -129q61 0 101 29t40 80q0 20 -10 37.5t-25 31t-41.5 29t-49.5 27t-59.5 29.5t-62.5 32q-116 69 -177.5 144t-61.5 186q0 150 110 251t303 101q229 0 461 -141l-149 -193q-175 98 -299 98q-56 0 -95.5 -26.5t-39.5 -77.5q0 -23 11 -41.5 t37 -36.5t49 -30.5t69 -35.5t75 -38q55 -31 94.5 -60.5t76.5 -69t56 -90t19 -110.5q0 -152 -115.5 -256t-312.5 -104q-137 0 -262.5 49.5t-226.5 122.5zM354 1542h178l97 -151l145 151h203l-229 -282h-265z" />
<glyph horiz-adv-x="835" d="M-20.5 -70.5q0.5 51.5 12.5 115.5l90 508h199l-99 -545q-6 -43 -4.5 -76.5t27 -54t74.5 -20.5q72 0 106.5 39t46.5 110l98 547h199l-96 -545q-11 -59 -26 -104.5t-43 -89.5t-65.5 -72.5t-95 -46t-131.5 -17.5q-83 0 -141.5 19.5t-90.5 51.5t-46.5 80.5t-14 100z" />
<glyph horiz-adv-x="1007" d="M-20 154l147 192q208 -129 338 -129q61 0 101 29t40 80q0 20 -10 37.5t-25 31t-41.5 29t-49.5 27t-59.5 29.5t-62.5 32q-116 69 -177.5 144t-61.5 186q0 150 110 251t303 101q229 0 461 -141l-149 -193q-175 98 -299 98q-56 0 -95.5 -26.5t-39.5 -77.5q0 -23 11 -41.5 t37 -36.5t49 -30.5t69 -35.5t75 -38q55 -31 94.5 -60.5t76.5 -69t56 -90t19 -110.5q0 -152 -115.5 -256t-312.5 -104q-137 0 -262.5 49.5t-226.5 122.5zM426 1260l256 282h326l-338 -282h-244z" />
<glyph horiz-adv-x="1007" d="M-20 154l147 192q208 -129 338 -129q61 0 101 29t40 80q0 20 -10 37.5t-25 31t-41.5 29t-49.5 27t-59.5 29.5t-62.5 32q-116 69 -177.5 144t-61.5 186q0 150 110 251t303 101q229 0 461 -141l-149 -193q-175 98 -299 98q-56 0 -95.5 -26.5t-39.5 -77.5q0 -23 11 -41.5 t37 -36.5t49 -30.5t69 -35.5t75 -38q55 -31 94.5 -60.5t76.5 -69t56 -90t19 -110.5q0 -152 -115.5 -256t-312.5 -104q-137 0 -262.5 49.5t-226.5 122.5z" />
<glyph horiz-adv-x="825" d="M139 788l152 861h311q157 0 229 -61t72 -167q0 -101 -57.5 -184.5t-177.5 -112.5l127 -336h-209l-107 324h-86l-57 -324h-197zM422 1274h121q77 0 118 36.5t41 94.5q0 45 -30 63.5t-88 18.5h-125z" />
<glyph horiz-adv-x="825" d="M-53 -307l151 860h312q157 0 229 -60.5t72 -166.5q0 -100 -58 -184t-178 -113l127 -336h-209l-106 323h-86l-58 -323h-196zM229 178h121q77 0 118.5 36.5t41.5 94.5q0 45 -30.5 63.5t-88.5 18.5h-125z" />
<glyph horiz-adv-x="1103" d="M16 0l207 1176h430q216 0 316 -81t100 -225q0 -60 -17.5 -120t-54 -118.5t-102 -104t-152.5 -66.5l175 -461h-281l-148 444h-124l-80 -444h-269zM242 -532l123 170h-91l43 245h205l-37 -270l-202 -217zM403 664h166q111 0 168.5 50.5t57.5 131.5q0 110 -170 110h-170z " />
<glyph horiz-adv-x="1103" d="M16 0l207 1176h430q216 0 316 -81t100 -225q0 -60 -17.5 -120t-54 -118.5t-102 -104t-152.5 -66.5l175 -461h-281l-148 444h-124l-80 -444h-269zM403 664h166q111 0 168.5 50.5t57.5 131.5q0 110 -170 110h-170zM426 1542h178l96 -151l146 151h203l-230 -282h-264z" />
<glyph horiz-adv-x="1103" d="M16 0l207 1176h430q216 0 316 -81t100 -225q0 -60 -17.5 -120t-54 -118.5t-102 -104t-152.5 -66.5l175 -461h-281l-148 444h-124l-80 -444h-269zM403 664h166q111 0 168.5 50.5t57.5 131.5q0 110 -170 110h-170zM498 1260l256 282h325l-338 -282h-243z" />
<glyph horiz-adv-x="380" d="M-66 -307l115 645h191l-115 -645h-191zM59 420l29 166h199l-29 -166h-199z" />
<glyph horiz-adv-x="1103" d="M16 0l207 1176h430q216 0 316 -81t100 -225q0 -60 -17.5 -120t-54 -118.5t-102 -104t-152.5 -66.5l175 -461h-281l-148 444h-124l-80 -444h-269zM403 664h166q111 0 168.5 50.5t57.5 131.5q0 110 -170 110h-170z" />
<glyph horiz-adv-x="876" d="M164 1116q0 66 12.5 136.5t44.5 145t78.5 132.5t121.5 95.5t167 37.5q160 0 249 -86t89 -252q0 -66 -13.5 -136.5t-41 -142.5t-77 -134t-114.5 -97l102 -113l-145 -122l-145 194q-155 3 -241.5 89.5t-86.5 252.5zM367 1118q0 -166 141 -166q57 0 102 43.5t68.5 106.5 t35 120t11.5 97q0 166 -143 166q-47 0 -85.5 -29.5t-61.5 -73t-39 -96t-22.5 -95t-6.5 -73.5z" />
<glyph horiz-adv-x="1118" d="M75.5 323q0.5 70 16.5 158l121 695h268l-131 -748q-7 -37 -8 -65t5 -55.5t21 -45t44.5 -28.5t72.5 -11q183 0 215 203l134 750h268l-131 -744q-14 -80 -34.5 -142.5t-58.5 -122.5t-90.5 -99t-131.5 -62.5t-181 -23.5q-112 0 -192 26t-124 70t-64 109.5t-19.5 135.5z M416 1311l30 174h523l-31 -174h-522z" />
<glyph horiz-adv-x="1118" d="M76 329q1 68 16 152l121 695h268l-131 -748q-7 -37 -8 -65t5 -55.5t21 -45t44.5 -28.5t72.5 -11q183 0 215 203l134 750h268l-131 -744q-15 -84 -38 -149t-61.5 -125t-99.5 -101t-143 -59q-185 -120 -185 -205q0 -11 4 -20t9 -15t14.5 -10t16.5 -6t19.5 -3t18.5 -1h18.5 h14.5l-51 -135h-18h-27t-29.5 1.5t-34 4t-32.5 8t-32.5 13.5t-28 20t-24 27t-14.5 35.5t-6 45.5q0 127 170 226q-101 5 -172.5 33t-110.5 72t-56.5 108t-16.5 132z" />
<glyph horiz-adv-x="876" d="M-29 20q0 66 12.5 136.5t44.5 145t78.5 132.5t121.5 95.5t167 37.5q160 0 249 -86t89 -252q0 -66 -13.5 -136.5t-41 -142.5t-77 -134t-114.5 -97l103 -112l-146 -123l-145 194q-155 3 -241.5 89.5t-86.5 252.5zM174 23q0 -166 141 -166q57 0 102 43.5t68.5 106t35 119.5 t11.5 97q0 166 -143 166q-47 0 -85.5 -29.5t-61.5 -72.5t-39 -95.5t-22.5 -95t-6.5 -73.5z" />
<glyph horiz-adv-x="657" d="M-55 -55q0 179 94.5 293t257.5 114q103 0 164 -50t61 -138q0 -51 -19 -89.5t-49.5 -61.5t-75 -37.5t-90 -19.5t-100.5 -5h-55q0 -123 84 -123q59 0 199 70l55 -136q-45 -27 -130 -55.5t-167 -28.5q-107 0 -168 65t-61 202zM143 55h52q72 0 111.5 27t39.5 74q0 53 -63 53 q-53 0 -89.5 -43t-50.5 -111z" />
<glyph horiz-adv-x="1187" d="M66 451q0 74 13 153.5t39.5 164.5t73 160t107.5 135t150 95t194 35q222 0 346.5 -118.5t124.5 -346.5q0 -91 -18.5 -187t-56.5 -194t-107 -181t-160 -130l141 -156l-198 -166l-199 267q-214 5 -332 123.5t-118 345.5zM338 451q0 -230 205 -230q65 0 119 41t86 101 t53.5 132.5t30 130.5t8.5 99q0 229 -203 229q-65 0 -119 -41t-86.5 -101t-54.5 -132t-30.5 -130t-8.5 -99z" />
<glyph horiz-adv-x="786" d="M139 788l152 861h284q158 0 232 -64t74 -174q0 -144 -94 -235t-265 -91h-133l-53 -297h-197zM418 1253h96q74 0 118 37.5t44 100.5q0 48 -29.5 67t-87.5 19h-102z" />
<glyph horiz-adv-x="786" d="M-53 -307l151 860h285q158 0 231.5 -64t73.5 -174q0 -144 -93.5 -234.5t-264.5 -90.5h-133l-54 -297h-196zM225 158h97q74 0 117.5 37t43.5 100q0 48 -29 67t-87 19h-103z" />
<glyph horiz-adv-x="382" d="M-215 -438q50 18 76 30t41.5 29.5t20.5 33t11 50.5l113 633h191l-109 -617q-7 -37 -10.5 -55t-10.5 -46.5t-14 -42.5t-19 -35.5t-27 -33t-36 -27.5t-48 -26t-62 -21.5t-78 -21.5zM57 420l29 166h199l-29 -166h-199z" />
<glyph horiz-adv-x="1171" d="M39 338q0 287 350 448q-145 119 -145 283q0 170 126.5 278.5t338.5 108.5q192 0 294.5 -88.5t102.5 -232.5q0 -223 -266 -367q45 -29 79.5 -60t66 -73.5t48.5 -97.5t17 -119q0 -196 -150.5 -318.5t-402.5 -122.5q-221 0 -340 96.5t-119 264.5zM338 373q0 -76 46 -119 t128 -43q103 0 173.5 62t70.5 157q0 129 -158 227q-57 -27 -98.5 -52t-81 -59.5t-60 -78t-20.5 -94.5zM520 1051q0 -98 109 -166q194 86 194 219q0 55 -33.5 91t-95.5 36q-77 0 -125.5 -54t-48.5 -126z" />
<glyph horiz-adv-x="1056" d="M16 0l207 1176h389q422 0 422 -328q0 -89 -30 -167t-88.5 -140.5t-155.5 -98.5t-221 -36h-183l-71 -406h-269zM397 637h133q108 0 168 51.5t60 136.5q0 117 -164 117h-143z" />
<glyph horiz-adv-x="1187" d="M63 451q0 74 13 153.5t39.5 164.5t73.5 160t108.5 135t151 95t194.5 35q222 0 346.5 -118.5t124.5 -346.5q0 -76 -13 -155.5t-39.5 -165t-73 -161t-108 -135.5t-151 -95t-194.5 -35q-223 0 -347.5 119.5t-124.5 349.5zM338 451q0 -230 205 -230q65 0 119 41t86 101 t53.5 132.5t30 130.5t8.5 99q0 229 -203 229q-65 0 -119 -41t-86.5 -101t-54.5 -132t-30.5 -130t-8.5 -99zM408 1352q31 51 49.5 76.5t47 57t59 45t67.5 13.5q38 0 80.5 -24.5t77.5 -49t57 -24.5q41 0 104 96l113 -80q-26 -41 -40.5 -63t-38 -51.5t-43 -44t-46.5 -25 t-57 -10.5q-38 0 -80 24.5t-76.5 49t-56.5 24.5q-44 0 -107 -96z" />
<glyph horiz-adv-x="876" d="M164 1116q0 66 13 136.5t44.5 145t78 132.5t121 95.5t165.5 37.5q160 0 250 -86t90 -252q0 -67 -13 -138t-44.5 -146t-78 -133.5t-121 -96t-165.5 -37.5q-160 0 -250 87t-90 255zM367 1118q0 -166 141 -166q47 0 85.5 29.5t61.5 73t39 96t22.5 95t6.5 73.5 q0 166 -143 166q-57 0 -101.5 -43.5t-67 -106.5t-33.5 -119.5t-11 -97.5z" />
<glyph horiz-adv-x="675" d="M-68 -307l158 895h191l-82 -467l170 217h229l-244 -264l160 -381h-197l-90 241l-75 -81l-29 -160h-191z" />
<glyph horiz-adv-x="710" d="M125 788l158 895h190l-82 -466l170 217h230l-244 -265l160 -381h-197l-90 242l-76 -82l-29 -160h-190z" />
<glyph horiz-adv-x="1187" d="M-6 0l141 166q-72 110 -72 285q0 74 13 153.5t39.5 164.5t73.5 160t108.5 135t151 95t194.5 35q184 0 303 -84l55 66h181l-142 -164q74 -117 74 -283q0 -76 -13 -155.5t-39.5 -165t-73 -161t-108 -135.5t-151 -95t-194.5 -35q-189 0 -304 81l-55 -63h-182zM338 451 q0 -34 2 -48l434 506q-51 45 -137 45q-65 0 -119 -41t-86.5 -101t-54.5 -132t-30.5 -130t-8.5 -99zM401 264q53 -43 142 -43q65 0 119 41t86 101t53.5 132.5t30 130.5t8.5 99q0 33 -2 47zM514 1260l256 282h326l-338 -282h-244z" />
<glyph horiz-adv-x="1153" d="M31 338q0 287 350 448q-145 119 -145 283q0 170 126 278.5t338 108.5q192 0 295 -89t103 -232q0 -223 -267 -367q45 -29 79.5 -60t66 -73.5t48.5 -97.5t17 -119q0 -196 -150.5 -318.5t-402.5 -122.5q-221 0 -339.5 96.5t-118.5 264.5zM330 373q0 -76 46 -119t128 -43 q103 0 173.5 62t70.5 157q0 129 -158 227q-57 -27 -98.5 -52t-81 -59.5t-60 -78t-20.5 -94.5zM512 1051q0 -98 109 -166q194 86 194 219q0 55 -33.5 91t-95.5 36q-77 0 -125.5 -54t-48.5 -126z" />
<glyph horiz-adv-x="1187" d="M63 451q0 74 13 153.5t39.5 164.5t73.5 160t108.5 135t151 95t194.5 35q222 0 346.5 -118.5t124.5 -346.5q0 -76 -13 -155.5t-39.5 -165t-73 -161t-108 -135.5t-151 -95t-194.5 -35q-223 0 -347.5 119.5t-124.5 349.5zM338 451q0 -230 205 -230q65 0 119 41t86 101 t53.5 132.5t30 130.5t8.5 99q0 229 -203 229q-65 0 -119 -41t-86.5 -101t-54.5 -132t-30.5 -130t-8.5 -99zM455 1311l30 174h523l-31 -174h-522z" />
<glyph horiz-adv-x="876" d="M-29 20q0 66 13 136.5t44.5 145t78 132.5t121 95.5t165.5 37.5q160 0 250 -86t90 -252q0 -67 -13 -138t-44.5 -146t-78 -133.5t-121 -96t-165.5 -37.5q-160 0 -250 87t-90 255zM174 23q0 -166 141 -166q47 0 85.5 29.5t61.5 72.5t39 95.5t22.5 95t6.5 73.5 q0 166 -143 166q-57 0 -101.5 -43t-67 -106.5t-33.5 -119.5t-11 -97z" />
<glyph horiz-adv-x="1187" d="M63 451q0 74 13 153.5t39.5 164.5t73.5 160t108.5 135t151 95t194.5 35q222 0 346.5 -118.5t124.5 -346.5q0 -76 -13 -155.5t-39.5 -165t-73 -161t-108 -135.5t-151 -95t-194.5 -35q-223 0 -347.5 119.5t-124.5 349.5zM338 451q0 -230 205 -230q65 0 119 41t86 101 t53.5 132.5t30 130.5t8.5 99q0 229 -203 229q-65 0 -119 -41t-86.5 -101t-54.5 -132t-30.5 -130t-8.5 -99zM440 1260l183 282h249l-264 -282h-168zM754 1260l182 282h248l-262 -282h-168z" />
<glyph horiz-adv-x="1187" d="M63 451q0 74 13 153.5t39.5 164.5t73.5 160t108.5 135t151 95t194.5 35q222 0 346.5 -118.5t124.5 -346.5q0 -76 -13 -155.5t-39.5 -165t-73 -161t-108 -135.5t-151 -95t-194.5 -35q-223 0 -347.5 119.5t-124.5 349.5zM338 451q0 -230 205 -230q65 0 119 41t86 101 t53.5 132.5t30 130.5t8.5 99q0 229 -203 229q-65 0 -119 -41t-86.5 -101t-54.5 -132t-30.5 -130t-8.5 -99zM430 1542h295l162 -282h-215z" />
<glyph horiz-adv-x="757" d="M88 780q0 171 213 267q-88 72 -88 167q0 102 80 168t215 66q124 0 190 -55t66 -142q0 -131 -158 -217q129 -79 129 -209q0 -118 -94.5 -192t-257.5 -74q-143 0 -219 59.5t-76 161.5zM289 805q0 -42 28 -65t78 -23q60 0 101 32t41 85q0 69 -95 129q-73 -33 -113 -69 t-40 -89zM399 1202q0 -54 62 -92q53 24 83.5 51t30.5 66q0 30 -19.5 49.5t-55.5 19.5q-43 0 -72 -28t-29 -66z" />
<glyph horiz-adv-x="376" d="M-68 -307l158 895h191l-158 -895h-191z" />
<glyph horiz-adv-x="757" d="M-12 207q0 170 213 266q-88 72 -88 168q0 102 80 167.5t215 65.5q124 0 190 -54.5t66 -141.5q0 -131 -158 -217q129 -79 129 -209q0 -118 -94.5 -192t-257.5 -74q-143 0 -219 59.5t-76 161.5zM188 231q0 -42 28.5 -65t78.5 -23q60 0 100.5 32t40.5 85q0 70 -94 129 q-74 -33 -114 -69t-40 -89zM299 629q0 -55 61 -92q54 25 84.5 51t30.5 65q0 30 -20 50t-56 20q-43 0 -71.5 -28t-28.5 -66z" />
<glyph horiz-adv-x="925" d="M-10 0l33 188q5 2 14.5 6t35 19.5t48.5 33.5t50 48.5t44 64.5h-145l22 125h154v7q0 21 -8 67h-134l23 125h76q-27 95 -27 170q0 157 90.5 248.5t251.5 91.5q205 0 406 -166l-136 -164q-138 97 -221 97q-59 0 -93 -36.5t-34 -93.5q0 -12 1.5 -25.5t3 -23t6 -25.5t6.5 -23 t8 -25.5t8 -24.5h277l-23 -125h-227q2 -10 2 -31q0 -31 -2 -43h215l-23 -125h-229q-45 -88 -101 -127h400l-41 -233h-731z" />
<glyph horiz-adv-x="669" d="M-88 -307l25 139q11 4 28 13t54.5 42.5t56.5 73.5h-107l17 86h110v4q0 27 -6 51h-94l14 88h58q-21 65 -21 127q0 115 65 182.5t181 67.5q149 0 297 -123l-101 -120q-93 69 -157 69q-42 0 -66 -25.5t-24 -66.5q0 -33 28 -111h193l-14 -88h-160q2 -8 2 -22q0 -23 -2 -33 h149l-16 -86h-162q-26 -53 -74 -96h287l-31 -172h-530z" />
<glyph horiz-adv-x="669" d="M104 788l25 140q11 4 28 13t54.5 42.5t56.5 73.5h-106l16 86h111v4q0 27 -6 51h-95l15 88h57q-20 62 -20 127q0 115 64.5 182.5t180.5 67.5q149 0 297 -123l-100 -121q-94 70 -158 70q-42 0 -66 -25.5t-24 -66.5q0 -30 29 -111h192l-14 -88h-160q2 -8 2 -22q0 -23 -2 -33 h150l-17 -86h-161q-26 -53 -74 -96h287l-31 -173h-531z" />
<glyph horiz-adv-x="1187" d="M63 451q0 74 13 153.5t39.5 164.5t73.5 160t108.5 135t151 95t194.5 35q222 0 346.5 -118.5t124.5 -346.5q0 -76 -13 -155.5t-39.5 -165t-73 -161t-108 -135.5t-151 -95t-194.5 -35q-223 0 -347.5 119.5t-124.5 349.5zM338 451q0 -230 205 -230q65 0 119 41t86 101 t53.5 132.5t30 130.5t8.5 99q0 229 -203 229q-65 0 -119 -41t-86.5 -101t-54.5 -132t-30.5 -130t-8.5 -99zM442 1282l43 242h220l-41 -242h-222zM764 1282l43 242h219l-43 -242h-219z" />
<glyph horiz-adv-x="1187" d="M63 451q0 74 13 153.5t39.5 164.5t73.5 160t108.5 135t151 95t194.5 35q222 0 346.5 -118.5t124.5 -346.5q0 -76 -13 -155.5t-39.5 -165t-73 -161t-108 -135.5t-151 -95t-194.5 -35q-223 0 -347.5 119.5t-124.5 349.5zM338 451q0 -230 205 -230q65 0 119 41t86 101 t53.5 132.5t30 130.5t8.5 99q0 229 -203 229q-65 0 -119 -41t-86.5 -101t-54.5 -132t-30.5 -130t-8.5 -99zM397 1260l230 282h264l127 -282h-176l-97 153l-145 -153h-203z" />
<glyph horiz-adv-x="1118" d="M75.5 323q0.5 70 16.5 158l121 695h268l-131 -748q-7 -37 -8 -65t5 -55.5t21 -45t44.5 -28.5t72.5 -11q183 0 215 203l134 750h268l-131 -744q-14 -80 -34.5 -142.5t-58.5 -122.5t-90.5 -99t-131.5 -62.5t-181 -23.5q-112 0 -192 26t-124 70t-64 109.5t-19.5 135.5z M481 1454q0 89 63 152t152 63t152 -63t63 -152t-63 -152t-152 -63t-152 63t-63 152zM614 1454q0 -34 24 -57t58 -23t58 23t24 57t-24 58t-58 24t-58 -24t-24 -58z" />
<glyph horiz-adv-x="1187" d="M63 451q0 74 13 153.5t39.5 164.5t73.5 160t108.5 135t151 95t194.5 35q222 0 346.5 -118.5t124.5 -346.5q0 -76 -13 -155.5t-39.5 -165t-73 -161t-108 -135.5t-151 -95t-194.5 -35q-223 0 -347.5 119.5t-124.5 349.5zM338 451q0 -230 205 -230q65 0 119 41t86 101 t53.5 132.5t30 130.5t8.5 99q0 229 -203 229q-65 0 -119 -41t-86.5 -101t-54.5 -132t-30.5 -130t-8.5 -99zM469 1511h168q-6 -43 17.5 -66.5t70.5 -23.5q61 0 100 24t45 66h170q-20 -118 -104.5 -184.5t-218.5 -66.5q-136 0 -201.5 69.5t-46.5 181.5z" />
<glyph horiz-adv-x="843" d="M177.5 1025.5q0.5 51.5 12.5 115.5l91 508h198l-98 -545q-6 -43 -4.5 -77t26.5 -54.5t74 -20.5q72 0 107 39.5t47 110.5l98 547h199l-97 -545q-14 -75 -35.5 -129.5t-61.5 -102.5t-106 -73t-157 -25q-83 0 -141.5 19.5t-90.5 51.5t-47 80.5t-14.5 100z" />
<glyph horiz-adv-x="1187" d="M63 451q0 74 13 153.5t39.5 164.5t73.5 160t108.5 135t151 95t194.5 35q222 0 346.5 -118.5t124.5 -346.5q0 -76 -13 -155.5t-39.5 -165t-73 -161t-108 -135.5t-151 -95t-194.5 -35q-223 0 -347.5 119.5t-124.5 349.5zM338 451q0 -230 205 -230q65 0 119 41t86 101 t53.5 132.5t30 130.5t8.5 99q0 229 -203 229q-65 0 -119 -41t-86.5 -101t-54.5 -132t-30.5 -130t-8.5 -99zM516 1260l256 282h326l-338 -282h-244z" />
<glyph horiz-adv-x="1677" d="M63 451q0 74 13 153.5t39.5 164.5t73.5 160t108.5 135t151 95t194.5 35q174 0 289 -74l10 56h750l-43 -240h-480l-41 -231h392l-43 -234h-390l-40 -231h485l-43 -240h-754l4 20q-90 -38 -204 -38q-223 0 -347.5 119.5t-124.5 349.5zM338 451q0 -230 205 -230q65 0 119 41 t86 101t53.5 132.5t30 130.5t8.5 99q0 229 -203 229q-65 0 -119 -41t-86.5 -101t-54.5 -132t-30.5 -130t-8.5 -99z" />
<glyph horiz-adv-x="1042" d="M-76 -307l115 645h192l-14 -78q96 92 189 92q120 0 139 -110q41 43 96.5 76.5t110.5 33.5q87 0 121 -57t16 -156l-78 -446h-190l73 418q8 37 0.5 61.5t-37.5 24.5q-54 0 -118 -76l-76 -428h-191l74 418q18 86 -37 86q-50 0 -116 -74l-76 -430h-193z" />
<glyph horiz-adv-x="1118" d="M75.5 323q0.5 70 16.5 158l121 695h268l-131 -748q-7 -37 -8 -65t5 -55.5t21 -45t44.5 -28.5t72.5 -11q183 0 215 203l134 750h268l-131 -744q-14 -80 -34.5 -142.5t-58.5 -122.5t-90.5 -99t-131.5 -62.5t-181 -23.5q-112 0 -192 26t-124 70t-64 109.5t-19.5 135.5z M369 1352q31 51 49.5 76.5t47 57t59 45t67.5 13.5q38 0 80.5 -24.5t77.5 -49t57 -24.5q41 0 104 96l113 -80q-26 -41 -40.5 -63t-38 -51.5t-43 -44t-46.5 -25t-57 -10.5q-38 0 -80 24.5t-76.5 49t-56.5 24.5q-44 0 -107 -96z" />
<glyph horiz-adv-x="1099" d="M123 1176h295l67 -857l365 857h315l-579 -1176h-295z" />
<glyph horiz-adv-x="1187" d="M63 451q0 74 13 153.5t39.5 164.5t73.5 160t108.5 135t151 95t194.5 35q222 0 346.5 -118.5t124.5 -346.5q0 -76 -13 -155.5t-39.5 -165t-73 -161t-108 -135.5t-151 -95t-194.5 -35q-223 0 -347.5 119.5t-124.5 349.5zM338 451q0 -230 205 -230q65 0 119 41t86 101 t53.5 132.5t30 130.5t8.5 99q0 229 -203 229q-65 0 -119 -41t-86.5 -101t-54.5 -132t-30.5 -130t-8.5 -99z" />
<glyph horiz-adv-x="1157" d="M16 0l207 1176h271l235 -752l133 752h268l-206 -1176h-273l-235 748l-131 -748h-269zM399 1352q31 50 50 76.5t47.5 57.5t59 44.5t67.5 13.5q38 0 80.5 -24.5t77.5 -49t57 -24.5q41 0 104 96l113 -80q-32 -51 -51 -78t-48 -58t-59.5 -44.5t-67.5 -13.5q-38 0 -80 24.5 t-76.5 49t-56.5 24.5q-43 0 -106 -96z" />
<glyph horiz-adv-x="874" d="M139 788l152 861h198l166 -533l95 533h198l-151 -861h-201l-166 539l-94 -539h-197z" />
<glyph horiz-adv-x="874" d="M-53 -307l151 860h199l166 -533l94 533h199l-152 -860h-201l-165 538l-95 -538h-196z" />
<glyph horiz-adv-x="1157" d="M16 0l207 1176h271l235 -752l133 752h268l-206 -1176h-273l-235 748l-131 -748h-269zM272 -532l123 170h-90l43 245h205l-37 -270l-203 -217z" />
<glyph horiz-adv-x="1157" d="M16 0l207 1176h271l235 -752l133 752h268l-206 -1176h-273l-235 748l-131 -748h-269zM438 1542h178l97 -151l145 151h203l-230 -282h-264z" />
<glyph horiz-adv-x="1157" d="M16 0l207 1176h271l235 -752l133 752h268l-206 -1176h-273l-235 748l-131 -748h-269zM567 1260l256 282h326l-338 -282h-244z" />
<glyph horiz-adv-x="1157" d="M16 0l207 1176h271l235 -752l133 752h268l-206 -1176h-273l-235 748l-131 -748h-269z" />
<glyph horiz-adv-x="739" d="M-6 14l76 150q30 -8 71 -8q94 0 171 53t118 147q-61 -53 -151 -53q-104 0 -165 68.5t-61 175.5q0 133 86 230t230 97t222.5 -92t78.5 -229q0 -149 -65.5 -278t-187 -209t-272.5 -80q-44 0 -81.5 7t-53.5 14zM252 557q0 -43 23.5 -71.5t72.5 -28.5q38 0 72 22.5t51 50.5 q2 10 2 33q0 63 -26.5 102.5t-75.5 39.5q-57 0 -88 -44t-31 -104z" />
<glyph horiz-adv-x="784" d="M2 553h217l47 -621l260 621h236l-424 -860h-217z" />
<glyph horiz-adv-x="1110" d="M-16 -242l114 222q50 -15 113 -15q156 0 283 103.5t196 279.5q-106 -102 -254 -102q-163 0 -258.5 114t-95.5 285q0 105 34.5 203.5t97 175.5t159 123.5t211.5 46.5q112 0 202 -42.5t146 -114.5t85.5 -164t29.5 -195q0 -188 -62 -363t-170 -307.5t-264.5 -212.5 t-335.5 -80q-67 0 -124.5 10.5t-82.5 21.5zM377 662q0 -78 40.5 -132.5t119.5 -54.5q66 0 125 44t88 97q4 25 4 76q0 109 -44.5 180.5t-127.5 71.5q-95 0 -150 -85t-55 -197z" />
<glyph horiz-adv-x="1173" d="M57 20l115 222q50 -15 113 -15q156 0 283 103.5t196 279.5q-106 -102 -254 -102q-163 0 -258.5 114t-95.5 285q0 106 34.5 204t96.5 175t158.5 123.5t211.5 46.5q112 0 202 -42.5t146 -114.5t85.5 -164t29.5 -195q0 -188 -62 -363t-169.5 -307.5t-264.5 -212.5t-335 -80 q-67 0 -125 10.5t-82 21.5zM451 924q0 -78 40 -132.5t119 -54.5q66 0 125 44.5t88 97.5q4 25 4 75q0 109 -44.5 180.5t-127.5 71.5q-95 0 -149.5 -85t-54.5 -197z" />
<glyph horiz-adv-x="784" d="M195 1649h217l47 -621l260 621h235l-424 -861h-217z" />
<glyph horiz-adv-x="1488" d="M135 1176h297v-752l291 752h215l27 -752l264 752h313l-489 -1176h-258l-31 762l-295 -762h-256z" />
<glyph horiz-adv-x="720" d="M-74 -307l115 645h190l-12 -72q110 86 209 86q87 0 123.5 -56t17.5 -161l-77 -442h-191l72 411q9 37 1 65t-40 28q-67 0 -141 -74v-2l-76 -428h-191z" />
<glyph horiz-adv-x="1488" d="M135 1176h297v-752l291 752h215l27 -752l264 752h313l-489 -1176h-258l-31 762l-295 -762h-256zM664 1260l256 282h325l-338 -282h-243z" />
<glyph horiz-adv-x="1042" d="M-4 154l147 192q208 -129 338 -129q61 0 101.5 29t40.5 80q0 20 -10 37.5t-25 31t-41.5 29t-49.5 27t-59.5 29.5t-62.5 32q-56 33 -95.5 63.5t-74.5 70.5t-52.5 89t-17.5 107q0 95 45 172.5t137 127t218 52.5l26 152h184l-30 -172q147 -32 295 -121l-150 -193 q-175 98 -299 98q-56 0 -95.5 -26.5t-39.5 -77.5q0 -23 11 -41.5t37.5 -36.5t49.5 -30.5t69 -35t75 -38.5q55 -31 94.5 -60.5t76 -69t55.5 -90t19 -110.5q0 -148 -109 -251t-298 -109l-27 -150h-184l29 168q-177 42 -328 154z" />
<glyph horiz-adv-x="991" d="M139 788l152 861h198l99 -467l276 467h201l-152 -861h-198l90 502l-209 -358h-92l-78 377l-90 -521h-197z" />
<glyph horiz-adv-x="991" d="M-53 -307l151 860h199l98 -467l277 467h200l-151 -860h-199l90 502l-209 -359h-92l-78 377l-90 -520h-196z" />
<glyph horiz-adv-x="1114" d="M10 256l35 201h180l82 260h-155l36 205h183l78 254h198l-78 -254h174l78 254h199l-78 -254h154l-37 -205h-180l-82 -260h155l-34 -201h-183l-80 -256h-196l78 256h-175l-79 -256h-199l80 256h-154zM424 457h174l82 260h-174z" />
<glyph horiz-adv-x="804" d="M-78 -121l25 150h131l57 188h-110l26 150h129l58 186h147l-57 -186h123l57 186h145l-57 -186h111l-27 -150h-129l-57 -188h110l-24 -150h-131l-56 -186h-147l55 186h-123l-57 -186h-146l56 186h-109zM223 29h125l58 188h-125z" />
<glyph horiz-adv-x="806" d="M117 975l24 149h131l58 189h-111l27 149h129l57 187h148l-58 -187h123l57 187h146l-57 -187h110l-27 -149h-129l-57 -189h111l-25 -149h-131l-55 -187h-148l56 187h-123l-58 -187h-145l55 187h-108zM418 1124h125l57 189h-125z" />
<glyph horiz-adv-x="1318" d="M16 0l207 1176h275l139 -639l379 639h276l-207 -1176h-270l123 700l-293 -503h-121l-112 532l-127 -729h-269z" />
<glyph horiz-adv-x="667" d="M139 788l152 861h196l-120 -686h335l-30 -175h-533z" />
<glyph horiz-adv-x="899" d="M-10 317l45 248l108 62l99 549h268l-68 -383l211 116l-43 -247l-211 -117l-53 -309h467l-43 -236h-735l65 379z" />
<glyph horiz-adv-x="667" d="M-53 -307l151 860h197l-121 -686h336l-31 -174h-532z" />
<glyph horiz-adv-x="894" d="M16 0l207 1176h269l-164 -940h467l-43 -236h-736zM565 504l43 246h226l-43 -246h-226z" />
<glyph horiz-adv-x="890" d="M16 0l207 1176h269l-164 -940h467l-43 -236h-736zM184 -532l123 170h-90l43 245h205l-37 -270l-203 -217z" />
<glyph horiz-adv-x="1488" d="M135 1176h297v-752l291 752h215l27 -752l264 752h313l-489 -1176h-258l-31 762l-295 -762h-256zM545 1260l229 282h264l127 -282h-176l-96 153l-145 -153h-203z" />
<glyph horiz-adv-x="890" d="M16 0l207 1176h269l-164 -940h467l-43 -236h-736zM483 760l123 170h-90l43 246h205l-37 -271l-203 -217z" />
<glyph horiz-adv-x="890" d="M16 0l207 1176h269l-164 -940h467l-43 -236h-736zM178 1260l256 282h326l-338 -282h-244z" />
<glyph horiz-adv-x="706" d="M-49 -55q0 55 11 110t36 109t62.5 95.5t95 67t127.5 25.5q123 0 202.5 -66t79.5 -200q0 -55 -11 -110t-36.5 -109.5t-63 -96t-95.5 -67t-128 -25.5q-122 0 -201 66.5t-79 200.5zM139 -59q0 -55 21.5 -82t70.5 -27q37 0 66 28.5t45 71t24.5 84t8.5 74.5q0 55 -21.5 82 t-70.5 27q-47 0 -82 -49.5t-48.5 -106t-13.5 -102.5z" />
<glyph horiz-adv-x="890" d="M16 0l207 1176h269l-164 -940h467l-43 -236h-736z" />
<glyph horiz-adv-x="813" d="M139 788l152 861h196l-59 -336l291 336h254l-371 -398l227 -463h-219l-143 318l-94 -102l-37 -216h-197z" />
<glyph horiz-adv-x="577" d="M29 725l235 135h189l-152 -860h-199l119 655l-125 -67z" />
<glyph horiz-adv-x="575" d="M131 1298l236 136h188l-152 -861h-198l119 656l-125 -68z" />
<glyph horiz-adv-x="753" d="M74 958l368 218h277l-207 -1176h-291l154 870l-203 -114z" />
<glyph horiz-adv-x="1171" d="M14 0l45 254h340l154 874l-240 -137l-98 203l406 240h276l-207 -1180h346l-45 -254h-977z" />
<glyph horiz-adv-x="724" d="M-70 -96q0 113 32.5 214t99 167.5t151.5 66.5q55 0 93 -22.5t73 -59.5l57 318h193l-158 -895h-192l12 69q-104 -84 -193 -84q-76 0 -122 59.5t-46 166.5zM125 -70q0 -90 61 -90q60 0 131 78l37 203q-40 69 -96 69q-40 0 -72 -43.5t-46.5 -102t-14.5 -114.5z" />
<glyph horiz-adv-x="1355" d="M123 1067l199 109h151l-127 -705h-158l99 543l-109 -58zM170 0l684 1176h170l-684 -1176h-170zM664 172q0 137 184 217q-78 58 -78 139t69 135t183 54q105 0 161 -45.5t56 -116.5q0 -104 -137 -178q112 -66 112 -172q0 -96 -80 -156.5t-216 -60.5q-122 0 -188 49t-66 135 zM825 188q0 -36 26.5 -54.5t72.5 -18.5q56 0 93.5 26.5t37.5 69.5q0 36 -23 61.5t-65 49.5q-67 -28 -104.5 -58.5t-37.5 -75.5zM922 516q0 -48 59 -78q104 39 104 97q0 28 -18 44.5t-51 16.5q-41 0 -67.5 -24t-26.5 -56z" />
<glyph horiz-adv-x="1361" d="M123 1067l199 109h151l-127 -705h-158l101 543l-111 -58zM170 0l686 1176h170l-686 -1176h-170zM674 92l88 107q83 -68 158 -68q51 0 90 31t39 84q0 40 -23.5 63t-67.5 23q-52 0 -120 -41l-84 55l98 359h418l-23 -138h-284l-27 -112q33 8 74 8q98 0 150 -58t52 -147 q0 -110 -75 -190t-205 -80q-136 0 -258 104z" />
<glyph horiz-adv-x="813" d="M-53 -307l151 860h197l-59 -336l290 336h254l-370 -397l227 -463h-219l-144 317l-94 -102l-37 -215h-196z" />
<glyph horiz-adv-x="1363" d="M123 1067l199 109h149l-125 -705h-160l101 543l-111 -58zM170 0l684 1176h172l-686 -1176h-170zM670 0l12 72q7 44 26 83.5t40 66.5t57 57.5t60 46.5t65 43q51 31 72 44.5t51 36t41 40.5t10 36q2 24 -17 38t-55 14q-71 0 -176 -62l-59 113q128 88 260 88q101 0 156 -50 t55 -126q0 -40 -18 -79t-40 -65.5t-62 -57t-63.5 -45t-64.5 -38.5q-67 -38 -96.5 -63.5t-36.5 -55.5h305l-23 -137h-499z" />
<glyph horiz-adv-x="1488" d="M135 1176h297v-752l291 752h215l27 -752l264 752h313l-489 -1176h-258l-31 762l-295 -762h-256zM588 1280l43 242h219l-41 -242h-221zM909 1280l43 242h219l-43 -242h-219z" />
<glyph horiz-adv-x="1089" d="M16 0l207 1176h269l-82 -463l405 463h346l-512 -545l320 -631h-299l-203 434l-131 -137l-51 -297h-269zM238 -532l122 170h-90l43 245h205l-37 -270l-202 -217z" />
<glyph horiz-adv-x="1331" d="M123 1067l199 109h151l-127 -705h-158l99 543l-111 -58zM170 0l684 1176h172l-686 -1176h-170zM592 131l18 115l367 459h211l-80 -437h96l-22 -137h-99l-22 -131h-160l23 131h-332zM778 268h172l54 289z" />
<glyph horiz-adv-x="1343" d="M123 1067l199 109h151l-127 -705h-158l101 543l-111 -58zM172 0l684 1176h170l-684 -1176h-170zM670 254q0 121 55.5 226.5t158.5 171t230 65.5q36 0 68 -5.5t46 -11.5l13 -6l-59 -121q-27 9 -62 9q-84 0 -152.5 -46t-105.5 -126q53 45 135 45q92 0 144.5 -55.5 t52.5 -143.5q0 -109 -72.5 -188.5t-195.5 -79.5t-189.5 76.5t-66.5 189.5zM827 246q0 -53 25.5 -87t71.5 -34q52 0 81 36.5t29 86.5q0 37 -22 61.5t-68 24.5q-36 0 -67.5 -19.5t-49.5 -44.5v-24z" />
<glyph horiz-adv-x="1089" d="M16 0l207 1176h269l-82 -463l405 463h346l-512 -545l320 -631h-299l-203 434l-131 -137l-51 -297h-269z" />
<glyph horiz-adv-x="1488" d="M135 1176h297v-752l291 752h215l27 -752l264 752h313l-489 -1176h-258l-31 762l-295 -762h-256zM578 1542h294l162 -282h-215z" />
<glyph horiz-adv-x="1345" d="M123 1067l199 109h149l-125 -705h-160l101 543l-111 -58zM170 0l684 1176h170l-684 -1176h-170zM657 92l84 101q103 -64 181 -64q55 0 87.5 25t32.5 65q0 86 -157 86h-25l23 137h30q60 0 110 22.5t50 63.5q0 50 -67 50q-75 0 -170 -56l-54 111q128 84 258 84 q95 0 146 -43.5t51 -110.5q0 -59 -38.5 -105t-104.5 -73q51 -21 80.5 -64t29.5 -100q0 -41 -15.5 -80.5t-46.5 -74.5t-85 -56.5t-123 -21.5q-153 0 -277 104z" />
<glyph horiz-adv-x="413" d="M0 721q91 31 116 55.5t36 85.5l137 787h198l-137 -777q-8 -43 -11.5 -61t-12 -50t-17 -45.5t-24.5 -36t-36 -34.5t-49.5 -28t-67 -28.5t-87.5 -25.5z" />
<glyph horiz-adv-x="411" d="M-193 -375q91 31 116 56t36 86l137 786h199l-137 -776q-8 -43 -11.5 -61t-12 -50t-17 -45.5t-24.5 -36t-36 -34.5t-49.5 -28t-67 -28.5t-87.5 -25.5z" />
<glyph horiz-adv-x="518" d="M-170 -94q66 23 102 39.5t57.5 40.5t29 46.5t16.5 67.5l188 1076h271l-187 -1061q-27 -146 -50 -198q-38 -86 -134 -139q-80 -44 -234 -85zM59 1260l230 282h264l127 -282h-176l-96 153l-146 -153h-203z" />
<glyph horiz-adv-x="520" d="M-170 -94q66 23 102 39.5t57.5 40.5t29 46.5t16.5 67.5l188 1076h271l-187 -1061q-27 -146 -50 -198q-38 -86 -134 -139q-80 -44 -234 -85z" />
<glyph horiz-adv-x="1067" d="M10 553h221l-2 -541l207 541h158l18 -543l189 543h231l-356 -860h-189l-20 551l-213 -551h-191z" />
<glyph horiz-adv-x="520" d="M16 0l207 1176h269l-207 -1176h-269zM70 1352q31 51 49.5 76.5t47 57t59 45t67.5 13.5q38 0 80.5 -24.5t77.5 -49t57 -24.5q41 0 104 96l113 -80q-26 -41 -40.5 -63t-38 -51.5t-43 -44t-46.5 -25t-57 -10.5q-38 0 -80 24.5t-76.5 49t-56.5 24.5q-44 0 -107 -96z" />
<glyph horiz-adv-x="413" d="M139 788l152 861h196l-151 -861h-197z" />
<glyph horiz-adv-x="520" d="M-92 -242q0 76 53 133.5t150 108.5h-95l207 1176h269l-207 -1176h-6q-86 -56 -137.5 -106.5t-51.5 -100.5q0 -11 4 -20t9 -15t14.5 -10t16.5 -6t19.5 -3t18.5 -1h18.5h14.5l-51 -135h-18h-27t-29.5 1.5t-34 4t-32.5 8t-32.5 13.5t-28 20t-24 27t-14.5 35.5t-6 45.5z" />
<glyph horiz-adv-x="1140" d="M72 688q0 210 135 349t350 139h223l-262 -1487h-213l117 659q-157 0 -253.5 87t-96.5 253zM625 -311l262 1487h213l-262 -1487h-213z" />
<glyph horiz-adv-x="518" d="M16 0l207 1176h269l-207 -1176h-269zM117 1311l30 174h523l-31 -174h-522z" />
<glyph horiz-adv-x="589" d="M27 -10q-3 79 18 194l143 811q8 43 13 69t13.5 60t17 53.5t21.5 45t29 41t38.5 35t49.5 32.5t63 27.5t79 26.5t96 24l41 -160q-72 -27 -108 -53t-49.5 -54.5t-24.5 -86.5l-168 -949q-19 -84 -2.5 -124.5t98.5 -79.5l-76 -142q-155 41 -222 96t-70 134z" />
<glyph horiz-adv-x="1069" d="M205 1649h221l-2 -541l207 541h157l19 -543l188 543h232l-357 -861h-188l-20 551l-213 -551h-191z" />
<glyph horiz-adv-x="626" d="M137 1036q0 190 87.5 301t211.5 111q23 0 45 -3t45 -10.5t38.5 -12.5t40 -18t33 -17.5t33.5 -19t27 -15.5l-90 -135q-2 1 -7 4q-85 52 -132 55q-59 0 -99 -64.5t-40 -154.5q0 -54 21 -82.5t59 -28.5q14 0 35.5 6t36.5 12t43 19t36 16l57 -149q-166 -76 -258 -76 q-99 0 -161 66t-62 196z" />
<glyph horiz-adv-x="411" d="M-53 -307l151 860h197l-152 -860h-196z" />
<glyph horiz-adv-x="589" d="M-72 -80q104 39 135.5 75.5t47.5 119.5l168 948q19 84 2 125t-99 80l76 141q155 -41 222 -96t70 -134t-18 -194l-143 -811q-8 -43 -13 -69t-13.5 -60t-17 -53.5t-21.5 -45t-29 -41t-38.5 -35t-49.5 -32.5t-63 -27.5t-79 -26.5t-96 -24z" />
<glyph horiz-adv-x="1433" d="M74 535q0 132 45 250.5t129 210t214.5 145t289.5 53.5q276 0 438 -152.5t162 -400.5q0 -132 -45 -250.5t-129 -210t-214.5 -145t-289.5 -53.5q-276 0 -438 152.5t-162 400.5zM143 535q0 -217 143.5 -353.5t391.5 -136.5q139 0 254.5 47t191 128.5t117 189.5t41.5 231 q0 217 -143 353t-391 136q-139 0 -254.5 -47t-191.5 -128t-117.5 -189t-41.5 -231zM383 508q-7 104 19.5 189.5t76.5 140t117 84.5t143 30q141 0 289 -112l-57 -56q-34 27 -57 42.5t-74 34t-103 18.5q-119 0 -196 -104.5t-68 -260.5q6 -101 51.5 -159t120.5 -58 q127 0 266 90l50 -61q-51 -30 -85.5 -48t-99.5 -37.5t-127 -19.5q-111 0 -185.5 76t-80.5 211z" />
<glyph horiz-adv-x="1765" d="M-180 -242q41 15 69 27t52.5 27t39.5 25t28.5 30t20 33t14.5 42.5t12 50.5t12 64l141 801h-117l39 217h117l10 55q34 189 113 276t217 87q137 0 336 -76l14 76h281l-95 -535q161 140 301 140q124 0 198.5 -94.5t74.5 -268.5q0 -110 -18.5 -218t-56.5 -205.5t-90.5 -172 t-126 -118.5t-157.5 -44q-88 0 -150.5 39t-121.5 105l-21 -121h-280l209 1196q-163 43 -244 43q-38 0 -64.5 -25t-35.5 -73l-13 -66h213l-41 -217h-211l-137 -778q-12 -70 -18.5 -102.5t-18 -85t-23 -75.5l-30 -60t-41.5 -55t-55 -44t-74 -43t-94.5 -36t-120.5 -38z M1016 344q33 -60 77.5 -94.5t94.5 -34.5q66 0 118 77t77.5 183.5t25.5 212.5q0 79 -28.5 125.5t-84.5 46.5q-94 0 -213 -133z" />
<glyph horiz-adv-x="757" d="M-145 -307l319 434l-156 426h220l73 -285l170 285h238l-305 -422l166 -438h-220l-81 282l-179 -282h-245z" />
<glyph horiz-adv-x="520" d="M16 0l207 1176h269l-207 -1176h-269zM92 1542h295l162 -282h-215z" />
<glyph horiz-adv-x="1525" d="M100 815q0 66 19.5 131t56.5 121.5t100.5 91.5t143.5 35q119 0 198.5 -64t79.5 -186q0 -66 -19.5 -131t-56.5 -121.5t-100.5 -91.5t-142.5 -35q-119 0 -199 64t-80 186zM289 815q0 -98 94 -98q33 0 59 25t40 62t21 73.5t7 66.5q0 96 -94 96q-33 0 -59 -24.5t-40 -61.5 t-21 -73t-7 -66zM291 0l731 1176h199l-732 -1176h-198zM819 231q0 66 19.5 131t56.5 121.5t100.5 91.5t143.5 35q118 0 197 -64t79 -186q0 -53 -11.5 -105t-37 -101.5t-61.5 -87.5t-90.5 -61t-118.5 -23q-119 0 -198 63.5t-79 185.5zM1008 231q0 -96 94 -96q42 0 73 43 t42.5 92t11.5 90q0 47 -24 73t-70 26q-43 0 -74 -43.5t-42 -92.5t-11 -92z" />
<glyph horiz-adv-x="1083" d="M-23 289q0 67 23 128t78 105.5t131 44.5q86 0 143.5 -47t57.5 -137q0 -49 -14 -96.5t-41 -88.5t-73 -66.5t-104 -25.5q-87 0 -144 47t-57 136zM115 -307l528 860h145l-528 -860h-145zM117 289q0 -70 63 -70q31 0 53.5 32t30.5 67.5t8 64.5q0 72 -65 72q-31 0 -53 -32.5 t-29.5 -68t-7.5 -65.5zM496 -139q0 49 14 96.5t40.5 89t72.5 67t104 25.5q86 0 143.5 -46.5t57.5 -135.5q0 -39 -8.5 -77.5t-27.5 -75t-45.5 -64.5t-66 -45t-86.5 -17q-85 0 -141.5 47t-56.5 136zM633 -137q0 -72 65 -72q31 0 53 32.5t29.5 68t7.5 65.5q0 70 -63 70 q-31 0 -53.5 -32t-30.5 -67.5t-8 -64.5z" />
<glyph horiz-adv-x="1083" d="M172 1384q0 49 14 96.5t40.5 89.5t72.5 67.5t104 25.5q86 0 143.5 -47t57.5 -137q0 -49 -14 -96.5t-40.5 -88.5t-72.5 -66.5t-104 -25.5q-87 0 -144 46.5t-57 135.5zM309 788l529 861h145l-528 -861h-146zM311 1384q0 -69 64 -69q31 0 53.5 32t30.5 67.5t8 64.5 q0 71 -66 71q-31 0 -53 -32.5t-29.5 -68t-7.5 -65.5zM690 956q0 49 14 96.5t41 89.5t73 67.5t104 25.5q85 0 142.5 -46.5t57.5 -135.5q0 -39 -8.5 -77.5t-27 -75t-45 -64.5t-66 -45t-86.5 -17q-85 0 -142 46.5t-57 135.5zM827 958q0 -71 66 -71q31 0 53 32.5t29.5 68 t7.5 65.5q0 69 -63 69q-24 0 -43 -18.5t-29.5 -45.5t-15.5 -53t-5 -47z" />
<glyph horiz-adv-x="520" d="M16 0l207 1176h269l-207 -1176h-269zM106 1280l44 242h219l-41 -242h-222zM428 1280l43 242h219l-43 -242h-219z" />
<glyph horiz-adv-x="518" d="M16 0l207 1176h269l-207 -1176h-269zM57 1260l230 282h264l127 -282h-176l-96 153l-146 -153h-203z" />
<glyph horiz-adv-x="380" d="M127 788l39 220h190l-39 -220h-190zM193 1163l38 219h191l-39 -219h-190z" />
<glyph horiz-adv-x="638" d="M162 1143q0 190 88 300.5t211 110.5q15 0 39 -4l37 99h75l-43 -113q8 -2 27 -8l45 121h78l-57 -152q16 -8 41 -22.5t28 -16.5l-88 -137q-98 63 -147 63q-60 0 -101 -65t-41 -154q0 -112 80 -112q12 0 27.5 3.5t34.5 10.5t32.5 12.5t35.5 15.5t30 13l57 -150 q-135 -61 -219 -73l-35 -97h-75l34 95l-28 6l-37 -101h-78l47 127q-98 65 -98 228z" />
<glyph horiz-adv-x="641" d="M-31 47q0 190 88 301t211 111q15 0 39 -4l37 98h76l-43 -113q5 -1 26 -8l46 121h77l-57 -152q45 -23 70 -39l-88 -137q-32 20 -47 29.5t-46.5 22t-54.5 12.5q-60 0 -100.5 -64.5t-40.5 -154.5q0 -113 80 -113q15 0 38.5 6.5t38 12.5t46 20t36.5 16l58 -149 q-139 -63 -219 -74l-35 -96h-76l35 94l-29 6l-37 -100h-78l48 127q-99 65 -99 227z" />
</font>
</defs>
</svg>
