<?xml version="1.0" standalone="no"?>
<!DOCTYPE svg PUBLIC "-//W3C//DTD SVG 1.1//EN" "http://www.w3.org/Graphics/SVG/1.1/DTD/svg11.dtd" >
<svg xmlns="http://www.w3.org/2000/svg">
<metadata></metadata>
<defs>
<font id="verbexcondextralight" horiz-adv-x="1028" >
<font-face units-per-em="2048" ascent="1638" descent="-410" />
<missing-glyph horiz-adv-x="481" />
<glyph unicode="ff" horiz-adv-x="1159" d="M76 1001v74h123v209q0 119 44.5 164t118.5 45q72 0 244 -61l-37 -68q-142 51 -200 51q-86 0 -86 -121v-219h245v-74h-245v-1001h-84v1001h-123zM655 1001v74h123v209q0 119 45 164t119 45q72 0 244 -61l-37 -68q-142 51 -201 51q-86 0 -86 -121v-219h246v-74h-246v-1001 h-84v1001h-123z" />
<glyph unicode="fi" horiz-adv-x="991" d="M76 1001v74h123v209q0 209 159 209q72 0 201 -47l-33 -68q-115 37 -157 37q-86 0 -86 -121v-219h245v-74h-245v-1001h-84v1001h-123zM735 1327v160h101v-160h-101zM743 0v1075h84v-1075h-84z" />
<glyph unicode="fl" horiz-adv-x="1013" d="M76 1001v74h123v209q0 209 159 209q72 0 201 -47l-33 -68q-115 37 -157 37q-86 0 -86 -121v-219h245v-74h-245v-1001h-84v1001h-123zM756 0v1493h84v-1493h-84z" />
<glyph unicode="ffi" horiz-adv-x="1570" d="M76 1001v74h123v209q0 119 44.5 164t118.5 45q72 0 244 -61l-37 -68q-142 51 -200 51q-86 0 -86 -121v-219h245v-74h-245v-1001h-84v1001h-123zM655 1001v74h123v209q0 209 160 209q72 0 201 -47l-33 -68q-115 37 -158 37q-86 0 -86 -121v-219h246v-74h-246v-1001h-84 v1001h-123zM1315 1327v160h100v-160h-100zM1323 0v1075h84v-1075h-84z" />
<glyph unicode="ffl" horiz-adv-x="1593" d="M76 1001v74h123v209q0 119 44.5 164t118.5 45q72 0 244 -61l-37 -68q-142 51 -200 51q-86 0 -86 -121v-219h245v-74h-245v-1001h-84v1001h-123zM655 1001v74h123v209q0 209 160 209q72 0 201 -47l-33 -68q-115 37 -158 37q-86 0 -86 -121v-219h246v-74h-246v-1001h-84 v1001h-123zM1335 0v1493h84v-1493h-84z" />
<glyph unicode="ffk" horiz-adv-x="2021" d="M76 1001v74h123v209q0 119 44.5 164t118.5 45q72 0 244 -61l-37 -68q-142 51 -200 51q-86 0 -86 -121v-219h245v-74h-245v-1001h-84v1001h-123zM655 1001v74h123v209q0 209 160 209q72 0 201 -47l-33 -68q-115 37 -158 37q-86 0 -86 -121v-219h246v-74h-246v-1001h-84 v1001h-123zM1323 0v1493h84v-1051l416 633h98l-303 -440l356 -635h-92l-313 561l-162 -237v-324h-84z" />
<glyph unicode="ffj" horiz-adv-x="1568" d="M76 1001v74h123v209q0 119 44.5 164t118.5 45q72 0 244 -61l-37 -68q-142 51 -200 51q-86 0 -86 -121v-219h245v-74h-245v-1001h-84v1001h-123zM655 1001v74h123v209q0 209 160 209q72 0 201 -47l-33 -68q-115 37 -158 37q-86 0 -86 -121v-219h246v-74h-246v-1001h-84 v1001h-123zM1126 -346q40 16 65.5 26.5t48.5 24.5t35 21.5t23 25t15 27.5t7 36t3 43v56v1161h84v-1161q0 -72 -2.5 -102.5t-13.5 -71.5t-38.5 -62t-74 -45.5t-123.5 -50.5zM1315 1327v160h100v-160h-100z" />
<glyph unicode="fft" horiz-adv-x="1777" d="M76 1001v74h123v209q0 119 44.5 164t118.5 45q72 0 244 -61l-37 -68q-142 51 -200 51q-86 0 -86 -121v-219h245v-74h-245v-1001h-84v1001h-123zM655 1001v74h123v209q0 119 45 164t119 45q72 0 244 -61l-37 -68q-142 51 -201 51q-86 0 -86 -121v-219h246v-74h-246v-1001 h-84v1001h-123zM1229 1001v74h123v271l84 40v-311h245v-74h-245v-825q0 -121 86 -121q67 0 180 58l37 -68q-132 -68 -223 -68q-164 0 -164 209v815h-123z" />
<glyph unicode="fh" horiz-adv-x="1601" d="M76 1001v74h123v209q0 209 159 209q72 0 201 -47l-33 -68q-115 37 -157 37q-86 0 -86 -121v-219h245v-74h-245v-1001h-84v1001h-123zM743 0v1493h84v-586q31 30 66 57.5t86.5 60.5t111 53t115.5 20q66 0 114 -24.5t74 -68t38 -94.5t12 -112v-799h-84v791q0 229 -168 229 q-65 0 -145 -40.5t-131 -82.5t-89 -82v-815h-84z" />
<glyph unicode="fj" horiz-adv-x="989" d="M76 1001v74h123v209q0 209 159 209q72 0 201 -47l-33 -68q-115 37 -157 37q-86 0 -86 -121v-219h245v-74h-245v-1001h-84v1001h-123zM547 -346q40 16 65 26.5t48.5 24.5t35.5 21.5t22.5 25t14.5 27t7 36.5t3 43v56v1161h84v-1161q0 -72 -2.5 -102.5t-13.5 -71.5 t-38.5 -62t-74 -45.5t-123.5 -50.5zM735 1327v160h101v-160h-101z" />
<glyph unicode="fk" horiz-adv-x="1441" d="M76 1001v74h123v209q0 209 159 209q72 0 201 -47l-33 -68q-115 37 -157 37q-86 0 -86 -121v-219h245v-74h-245v-1001h-84v1001h-123zM743 0v1493h84v-1051l416 633h98l-303 -440l357 -635h-92l-314 561l-162 -237v-324h-84z" />
<glyph unicode="ft" horiz-adv-x="1200" d="M76 1001v74h123v209q0 119 44.5 164t118.5 45q72 0 244 -61l-37 -68q-142 51 -200 51q-86 0 -86 -121v-219h245v-74h-245v-1001h-84v1001h-123zM649 1001v74h123v271l84 40v-311h246v-74h-246v-825q0 -121 86 -121q67 0 180 58l37 -68q-132 -68 -223 -68q-164 0 -164 209 v815h-123z" />
<glyph unicode="ffh" horiz-adv-x="2181" d="M76 1001v74h123v209q0 119 44.5 164t118.5 45q72 0 244 -61l-37 -68q-142 51 -200 51q-86 0 -86 -121v-219h245v-74h-245v-1001h-84v1001h-123zM655 1001v74h123v209q0 209 160 209q72 0 201 -47l-33 -68q-115 37 -158 37q-86 0 -86 -121v-219h246v-74h-246v-1001h-84 v1001h-123zM1323 0v1493h84v-586q31 30 66 57.5t86.5 60.5t111 53t115.5 20q66 0 114 -24.5t74 -68t37.5 -94t11.5 -112.5v-799h-84v791q0 229 -167 229q-65 0 -145 -40.5t-131 -82.5t-89 -82v-815h-84z" />
<glyph unicode="ffb" horiz-adv-x="2174" d="M76 1001v74h123v209q0 119 44.5 164t118.5 45q72 0 244 -61l-37 -68q-142 51 -200 51q-86 0 -86 -121v-219h245v-74h-245v-1001h-84v1001h-123zM655 1001v74h123v209q0 209 160 209q72 0 201 -47l-33 -68q-115 37 -158 37q-86 0 -86 -121v-219h246v-74h-246v-1001h-84 v1001h-123zM1323 0v1493h84v-573q151 178 319 178q54 0 102 -18.5t90.5 -61t73 -106.5t48.5 -159.5t18 -215.5q0 -148 -26.5 -259t-73.5 -175t-105 -95t-127 -31q-169 0 -319 177v-154h-84zM1407 252q58 -84 141.5 -140.5t173.5 -56.5q121 0 184.5 128t63.5 354 q0 227 -63.5 355t-184.5 128q-90 0 -173.5 -56.5t-141.5 -140.5v-571z" />
<glyph unicode="fb" horiz-adv-x="1595" d="M76 1001v74h123v209q0 209 159 209q72 0 201 -47l-33 -68q-115 37 -157 37q-86 0 -86 -121v-219h245v-74h-245v-1001h-84v1001h-123zM743 0v1493h84v-573q151 178 320 178q54 0 102 -18.5t90.5 -61t73 -106.5t48.5 -159.5t18 -215.5q0 -148 -26.5 -259t-73.5 -175 t-105 -95t-127 -31q-170 0 -320 177v-154h-84zM827 252q58 -83 142 -140t174 -57q121 0 184.5 128t63.5 354q0 227 -63.5 355t-184.5 128q-90 0 -174 -57t-142 -140v-571z" />
<glyph unicode=" "  horiz-adv-x="481" />
<glyph unicode="&#x09;" horiz-adv-x="481" />
<glyph unicode="&#xa0;" horiz-adv-x="481" />
<glyph unicode="!" horiz-adv-x="499" d="M193 0v186h114v-186h-114zM199 1434h100l-23 -1028h-55z" />
<glyph unicode="&#x22;" horiz-adv-x="690" d="M145 1434h103l-19 -512h-65zM442 1434h103l-19 -512h-65z" />
<glyph unicode="#" horiz-adv-x="1292" d="M102 395v78h254l62 485h-242v78h252l51 398h76l-51 -398h364l52 398h75l-51 -398h244v-78h-254l-62 -485h244v-78h-254l-51 -395h-76l51 395h-364l-51 -395h-76l51 395h-244zM432 473h365l61 485h-364z" />
<glyph unicode="$" horiz-adv-x="1040" d="M111 131l47 72q184 -121 327 -140v648q-39 19 -58 28t-55 28t-54.5 32t-47.5 35t-45 41t-35.5 46t-29 55t-16.5 62.5t-7 73.5q0 160 100 249.5t248 94.5v184h72v-188q81 -10 168.5 -41.5t155.5 -71.5l-47 -69q-139 79 -277 98v-590q44 -20 75 -36.5t72.5 -41.5 t70.5 -49.5t60 -58.5t50 -70.5t31 -84t12 -99.5q0 -90 -32 -160.5t-86 -112.5t-118.5 -64t-134.5 -24v-182h-72v187q-185 21 -374 149zM225 1116q0 -60 18 -106.5t57.5 -82.5t79.5 -60.5t105 -55.5v563q-110 -3 -185 -69t-75 -189zM557 59q118 3 200.5 75t82.5 202 q0 62 -20.5 113.5t-61.5 92.5t-87.5 72t-113.5 64v-619z" />
<glyph unicode="%" horiz-adv-x="1675" d="M96 1073q0 182 78 282.5t215 100.5q136 0 213.5 -100.5t77.5 -282.5q0 -181 -77.5 -283t-213.5 -102q-137 0 -215 102t-78 283zM182 1073q0 -142 53 -226.5t154 -84.5q100 0 153.5 85t53.5 226q0 143 -53 226t-154 83q-102 0 -154.5 -82.5t-52.5 -226.5zM485 0l621 1434 h82l-619 -1434h-84zM995 362q0 182 77 282.5t214 100.5t215 -100.5t78 -282.5q0 -181 -78 -283t-215 -102t-214 102t-77 283zM1079 362q0 -141 53.5 -226t153.5 -85t153.5 85t53.5 226q0 143 -53.5 226.5t-153.5 83.5t-153.5 -83.5t-53.5 -226.5z" />
<glyph unicode="&#x26;" horiz-adv-x="1177" d="M152 340q0 58 15 112.5t36.5 95.5t58.5 86.5t67 75t77 72.5q-51 64 -82 110t-58.5 120.5t-27.5 150.5q0 77 25.5 136.5t67.5 92t87.5 48.5t93.5 16q104 0 177 -73.5t73 -202.5q0 -62 -18.5 -119t-55.5 -109.5t-72.5 -90.5t-89.5 -89l336 -424q83 178 109 408h88 q-10 -110 -45 -239t-94 -241l221 -276h-113l-156 195q-150 -218 -364 -218q-151 0 -253.5 99t-102.5 264zM240 356q0 -47 13.5 -95t42.5 -95t83.5 -77t126.5 -30q184 0 311 205l-356 449q-51 -45 -85 -80.5t-68 -81t-51 -94.5t-17 -101zM328 1163q0 -63 26.5 -130t51 -102.5 t67.5 -90.5q47 44 77.5 76t61.5 75.5t46.5 90.5t15.5 98q0 83 -41 138.5t-125 55.5q-85 0 -132.5 -59t-47.5 -152z" />
<glyph unicode="'" horiz-adv-x="393" d="M145 1434h103l-19 -512h-65z" />
<glyph unicode="(" horiz-adv-x="544" d="M184 20v1385q0 51 1.5 78t9.5 60.5t23.5 52.5t44.5 42t71 41t104 39l31 -76q-40 -16 -65.5 -26.5t-48.5 -24t-35 -21.5t-23 -25t-15 -27t-7 -35.5t-3 -42v-54.5v-1347v-54.5t3 -42t7 -35.5t15 -27t23 -25t35 -21.5t48.5 -24t65.5 -26.5l-31 -76q-62 21 -104 39t-71 41 t-44.5 42t-23.5 52.5t-9.5 60.5t-1.5 78z" />
<glyph unicode=")" horiz-adv-x="544" d="M76 -217q32 13 53.5 21.5t42.5 20t33.5 17.5t24.5 18.5t18 18.5t11.5 22.5t7.5 25t3.5 31.5t1.5 36v45v1347v45t-1.5 36t-3.5 31.5t-7.5 25t-11.5 22.5t-18 18.5t-24.5 18.5t-33.5 17.5t-42.5 20t-53.5 21.5l30 76q62 -21 104 -39t71 -41t44.5 -42t23.5 -52.5t9.5 -60.5 t1.5 -78v-1385q0 -51 -1.5 -78t-9.5 -60.5t-23.5 -52.5t-44.5 -42t-71 -41t-104 -39z" />
<glyph unicode="*" horiz-adv-x="925" d="M141 930l269 139l-267 141l41 76l254 -172l-18 303h86l-14 -301l249 168l41 -78l-270 -137l270 -141l-43 -74l-247 170l14 -303h-86l18 303l-254 -168z" />
<glyph unicode="+" d="M98 643v78h377v385h76v-385h379v-78h-379v-383h-76v383h-377z" />
<glyph unicode="," horiz-adv-x="425" d="M141 -201l68 201h-55v186h110l19 -186l-101 -238z" />
<glyph unicode="-" horiz-adv-x="757" d="M156 541v86h446v-86h-446z" />
<glyph unicode="." horiz-adv-x="423" d="M154 0v186h114v-186h-114z" />
<glyph unicode="/" horiz-adv-x="737" d="M51 -184l561 1802h78l-561 -1802h-78z" />
<glyph unicode="0" horiz-adv-x="1112" d="M139 717q0 360 104.5 549.5t311.5 189.5q209 0 313.5 -189.5t104.5 -549.5t-104.5 -550t-313.5 -190q-207 0 -311.5 190t-104.5 550zM229 717q0 -149 18 -267t56 -207.5t102 -137.5t150 -48q87 0 151 48t102.5 137.5t56.5 207.5t18 267t-18 267t-56.5 207t-102.5 137 t-151 48q-86 0 -150 -48t-102 -137t-56 -207t-18 -267z" />
<glyph unicode="1" horiz-adv-x="622" d="M68 1262l266 172h76v-1434h-91v1329l-206 -135z" />
<glyph unicode="2" horiz-adv-x="980" d="M113 0v94q0 52 6 98.5t20.5 87.5t29 74t41 68t46 59t54.5 56.5t56 51t61 52.5l60 51q130 115 200.5 218t70.5 216t-70 180.5t-188 67.5q-88 0 -170.5 -37.5t-136.5 -81.5l-48 68q169 133 357 133q152 0 249 -88t97 -244q0 -50 -11.5 -98.5t-28.5 -88t-48.5 -83.5t-57 -75 t-70 -74t-72.5 -67.5t-78 -67.5q-29 -25 -44 -38q-66 -59 -102.5 -97.5t-71.5 -92t-49 -116t-14 -144.5h649v-82h-737z" />
<glyph unicode="3" horiz-adv-x="995" d="M92 96l49 74q36 -31 129 -71t189 -40q135 0 226 90.5t91 239.5q0 92 -37.5 164.5t-97.5 114.5t-127.5 63t-136.5 21h-43v86h53q136 0 237 83.5t101 219.5q0 110 -68.5 171.5t-181.5 61.5q-146 0 -285 -106l-43 61q17 15 42.5 32t70 41t103.5 39t120 15q153 0 241.5 -92 t88.5 -223q0 -104 -62 -200.5t-194 -149.5q136 -35 223.5 -143t87.5 -259q0 -79 -26 -152t-74.5 -131.5t-127 -93.5t-175.5 -35q-109 0 -210.5 38.5t-162.5 80.5z" />
<glyph unicode="4" horiz-adv-x="1040" d="M80 344v78l577 1012h113v-1008h182v-82h-182v-344h-88v344h-602zM170 426h512v899z" />
<glyph unicode="5" horiz-adv-x="976" d="M113 104l43 74q161 -119 295 -119q129 0 222 107.5t93 275.5q0 157 -81.5 263t-221.5 106q-121 0 -258 -96l-47 20l63 699h592v-82h-520l-39 -529q100 70 221 70q113 0 201.5 -61.5t135 -164.5t46.5 -227q0 -89 -26 -171t-74.5 -147.5t-126.5 -105t-174 -39.5 q-168 0 -344 127z" />
<glyph unicode="6" horiz-adv-x="1046" d="M135 567q-1 175 31 323t87.5 250.5t130 175t157 106.5t168.5 34q36 0 72.5 -5.5t54.5 -10.5l18 -6l-20 -78q-55 18 -121 18q-65 0 -127.5 -24t-121.5 -75.5t-106 -126.5t-80.5 -183.5t-46.5 -239.5q19 29 44.5 56.5t66 59t97.5 51t120 19.5q90 0 162.5 -37.5 t117.5 -101.5t69 -145t24 -172q0 -129 -45.5 -236.5t-135 -174.5t-206.5 -67q-82 0 -150 34t-115 91t-80 133.5t-48.5 160t-16.5 171.5zM225 567q0 -98 19 -186.5t56.5 -161.5t101 -116.5t143.5 -43.5q95 0 165 59.5t102 148t32 190.5q0 54 -9.5 105.5t-32 100.5t-55 85.5 t-81.5 58.5t-109 22q-63 0 -121 -24t-99.5 -61.5t-70 -79.5t-41.5 -82v-15z" />
<glyph unicode="7" horiz-adv-x="847" d="M70 1352v82h725v-66q-9 -14 -25 -39.5t-61 -108.5t-86.5 -170.5t-92 -217t-86.5 -255.5t-61 -280t-25 -297h-96q0 175 42 374.5t94.5 349.5t123 304t104 216.5t60.5 107.5h-616z" />
<glyph unicode="8" horiz-adv-x="1069" d="M125 350q0 267 309 420q-241 123 -241 354q0 149 98 240.5t244 91.5t244 -91.5t98 -240.5q0 -229 -244 -354q311 -152 311 -420q0 -173 -117.5 -273t-291.5 -100t-292 100t-118 273zM217 350q0 -135 91 -213t227 -78q135 0 226 78t91 213q0 72 -27.5 132.5t-78.5 106.5 t-99 76.5t-112 61.5q-65 -31 -113.5 -61.5t-99 -76.5t-78 -106.5t-27.5 -132.5zM283 1118q0 -193 249 -303q254 110 254 303q0 108 -71.5 182t-179.5 74t-180 -74t-72 -182z" />
<glyph unicode="9" horiz-adv-x="1046" d="M113 979q0 128 45.5 236t135 174.5t206.5 66.5q101 0 181.5 -51.5t129 -136.5t74 -188t26.5 -214q1 -175 -31.5 -323t-88 -250.5t-129.5 -175t-156 -106.5t-168 -34q-37 0 -74 5.5t-56 11.5l-18 6l23 78q53 -19 121 -19q81 0 157.5 39t143.5 115.5t114.5 204.5t63.5 291 q-17 -28 -43.5 -56.5t-66.5 -60t-97.5 -51t-120.5 -19.5q-118 0 -204.5 65.5t-127 167.5t-40.5 224zM201 977q0 -68 16.5 -132t49 -119t89.5 -88.5t131 -33.5q120 0 211.5 78.5t122.5 167.5v16q0 98 -19 186.5t-56.5 161.5t-100.5 116.5t-143 43.5q-73 0 -131.5 -34t-95 -91 t-55.5 -127t-19 -145z" />
<glyph unicode=":" horiz-adv-x="425" d="M154 0v186h114v-186h-114zM154 733v187h114v-187h-114z" />
<glyph unicode=";" horiz-adv-x="454" d="M156 -201l67 201h-55v186h111l18 -186l-100 -238zM168 733v187h115v-187h-115z" />
<glyph unicode="&#x3c;" d="M76 645v78l827 436v-100l-735 -375l735 -375v-100z" />
<glyph unicode="=" d="M98 467v78h832v-78h-832zM98 823v78h832v-78h-832z" />
<glyph unicode="&#x3e;" d="M125 209v100l735 375l-735 375v100l827 -436v-78z" />
<glyph unicode="?" horiz-adv-x="851" d="M80 1319q67 55 160 96t190 41q63 0 121 -19t106 -55.5t76.5 -98.5t28.5 -140q0 -275 -354 -400l-11 -337h-71l-13 389q81 25 142 54.5t113 70.5t79 96.5t27 122.5q0 113 -71 174t-177 61q-132 0 -295 -112zM305 0v186h113v-186h-113z" />
<glyph unicode="@" horiz-adv-x="1685" d="M123 518q0 186 51.5 348t145 281.5t232.5 188.5t306 69q165 0 297 -65t218 -182.5t132 -279.5t47 -358q-2 -250 -85 -402.5t-226 -152.5q-182 0 -197 238q-134 -154 -280 -154q-43 0 -83.5 14.5t-78.5 46t-61 92.5t-23 144q0 80 21.5 141t58 97t80.5 53.5t94 17.5 q30 0 71.5 -7t71.5 -15t73.5 -20t55.5 -15v139q0 114 -36 164.5t-131 50.5q-113 0 -269 -84l-41 72q170 90 316 90q241 0 241 -276v-471q0 -28 0.5 -44t2.5 -45.5t6.5 -47t13 -40t21 -35t31.5 -21.5t44 -9q28 0 57.5 13t61.5 47t56.5 86t40.5 138.5t16 194.5 q0 175 -38.5 320.5t-114 255t-195 170.5t-273.5 61q-124 0 -230 -42.5t-183 -118t-131.5 -177.5t-81.5 -222t-27 -251q0 -223 75 -405.5t217 -291t326 -108.5q56 0 109.5 9.5t89.5 23t64 27t42 23.5l13 9l45 -59q-5 -5 -15 -12t-44 -26.5t-73 -34t-101 -26.5t-128 -12 q-206 0 -366.5 118.5t-246 319t-85.5 447.5zM598 344q0 -110 50 -163.5t128 -53.5t140.5 44.5t127.5 123.5v237q-5 1 -60.5 15.5t-99 22.5t-81.5 8q-56 0 -97.5 -19.5t-64 -54t-33 -74t-10.5 -86.5z" />
<glyph unicode="A" horiz-adv-x="1148" d="M68 0l460 1434h95l460 -1434h-96l-125 395h-577l-123 -395h-94zM311 477h527l-265 842z" />
<glyph unicode="B" horiz-adv-x="1148" d="M197 0v1434h354q192 0 299.5 -92t107.5 -259q0 -74 -22.5 -136t-57.5 -100t-72 -60.5t-73 -28.5q35 -6 70.5 -19.5t76.5 -42.5t72 -69t51.5 -104t20.5 -142q0 -180 -101.5 -280.5t-287.5 -100.5h-438zM285 82h352q147 0 223 85.5t76 223.5q0 157 -97 239.5t-278 82.5 h-276v-631zM285 795h264q143 0 233 71t90 211q0 125 -78 200t-233 75h-276v-557z" />
<glyph unicode="C" horiz-adv-x="1101" d="M135 717q0 153 24 277.5t66 209.5t99.5 142.5t122.5 83.5t137 26q111 0 212.5 -58t213.5 -155l-58 -59q-45 38 -76 62.5t-83 58.5t-104.5 51.5t-102.5 17.5q-158 0 -258.5 -175t-100.5 -482t100.5 -482.5t258.5 -175.5q50 0 102 17t105.5 53t82.5 58t78 63l56 -60 q-112 -97 -213.5 -155t-212.5 -58q-91 0 -170 43t-142.5 129.5t-100 232t-36.5 335.5z" />
<glyph unicode="D" horiz-adv-x="1196" d="M197 0v1434h303q131 0 232.5 -40.5t176 -125.5t113.5 -223.5t39 -327.5t-39 -327.5t-113.5 -223.5t-176 -125.5t-232.5 -40.5h-303zM285 82h215q243 0 355 156t112 479t-112 479t-355 156h-215v-1270z" />
<glyph unicode="E" horiz-adv-x="1019" d="M197 0v1434h698v-82h-610v-594h508v-82h-508v-594h620v-82h-708z" />
<glyph unicode="F" horiz-adv-x="968" d="M197 0v1434h698v-82h-610v-594h489v-82h-489v-676h-88z" />
<glyph unicode="G" horiz-adv-x="1200" d="M135 717q0 190 37 335.5t100.5 231.5t142.5 129t169 43q64 0 127.5 -19.5t121 -56t101 -71.5t92.5 -82l-57 -62q-111 98 -172 137q-114 72 -211 72q-158 0 -258.5 -175t-100.5 -482q0 -304 100.5 -481t258.5 -177q170 0 377 238v377h-349v82h435v-756h-86v182 q-90 -92 -182.5 -148.5t-196.5 -56.5q-90 0 -169 43t-142.5 129.5t-100.5 232t-37 335.5z" />
<glyph unicode="H" horiz-adv-x="1214" d="M197 0v1434h88v-641h645v641h90v-1434h-90v711h-645v-711h-88z" />
<glyph unicode="I" horiz-adv-x="479" d="M197 0v1434h88v-1434h-88z" />
<glyph unicode="J" horiz-adv-x="479" d="M-2 -188q40 16 65.5 26.5t49 24t36 21.5t23.5 25t15 27t7 35.5t3 42v54.5v1366h88v-1366v-54.5t-2 -46t-5 -41t-9.5 -34t-15.5 -32t-23 -26.5t-32 -26t-43 -23.5t-55 -24.5t-69 -24z" />
<glyph unicode="K" horiz-adv-x="1097" d="M197 0v1434h88v-869l598 869h106l-483 -693l545 -741h-111l-485 670l-170 -246v-424h-88z" />
<glyph unicode="L" horiz-adv-x="931" d="M197 0v1434h88v-1352h592v-82h-680z" />
<glyph unicode="M" horiz-adv-x="1433" d="M197 0v1434h96l424 -1074l424 1074h98v-1434h-88v1247l-399 -1007h-70l-397 1005v-1245h-88z" />
<glyph unicode="N" horiz-adv-x="1241" d="M197 0v1434h92l669 -1274v1274h89v-1434h-95l-667 1270v-1270h-88z" />
<glyph unicode="O" horiz-adv-x="1251" d="M135 717q0 126 15.5 233t51.5 202t91.5 161t140 104.5t191.5 38.5t191.5 -38.5t139.5 -104.5t91 -161t51.5 -202t15.5 -233q0 -125 -15.5 -232t-51.5 -202t-91 -162t-139.5 -105.5t-191.5 -38.5t-191.5 38.5t-140 105.5t-91.5 162t-51.5 202t-15.5 232zM227 717 q0 -113 12 -207.5t40.5 -179.5t73.5 -143.5t114 -93t158 -34.5q397 0 397 658q0 657 -397 657q-89 0 -158 -34t-114 -93t-73.5 -144t-40.5 -179t-12 -207z" />
<glyph unicode="P" horiz-adv-x="1099" d="M197 0v1434h366q438 0 438 -422t-438 -422h-278v-590h-88zM285 672h286q155 0 246.5 81t91.5 259t-91.5 259t-246.5 81h-286v-680z" />
<glyph unicode="Q" horiz-adv-x="1251" d="M135 717q0 126 15.5 233t51.5 202t91.5 161t140 104.5t191.5 38.5t191.5 -38.5t139.5 -104.5t91 -161t51.5 -202t15.5 -233q0 -143 -21 -262.5t-66 -219.5t-123 -165t-185 -84l215 -213l-66 -66l-243 270q-107 0 -191.5 38.5t-140 105.5t-91.5 162t-51.5 202t-15.5 232z M227 717q0 -113 12 -207.5t40.5 -179.5t73.5 -143.5t114 -93t158 -34.5q397 0 397 658q0 657 -397 657q-89 0 -158 -34t-114 -93t-73.5 -144t-40.5 -179t-12 -207z" />
<glyph unicode="R" horiz-adv-x="1165" d="M197 0v1434h403q74 0 136.5 -12t120 -40.5t97 -73t63 -113.5t23.5 -157q0 -183 -92.5 -276.5t-245.5 -114.5l338 -647h-100l-328 643h-327v-643h-88zM285 725h315q161 0 254.5 76t93.5 237t-92 237.5t-246 76.5h-325v-627z" />
<glyph unicode="S" horiz-adv-x="1030" d="M106 131l48 72q218 -144 389 -144q122 0 207.5 72t85.5 205q0 57 -18.5 105.5t-47 84.5t-77 70.5t-94.5 58.5t-112 54q-51 24 -75.5 36t-69.5 37.5t-68.5 45t-55 51.5t-47 64t-27 75.5t-11.5 93.5q0 164 105 254t256 90q92 0 197 -34t186 -83l-48 -69q-82 47 -172 75.5 t-163 28.5q-114 0 -193.5 -65.5t-79.5 -192.5q0 -44 9.5 -81t33 -67.5t45 -51.5t65 -46t71 -39t83.5 -40q49 -23 78.5 -37.5t76 -41.5t76 -50.5t64 -59.5t54.5 -73t33.5 -86.5t13.5 -104.5q0 -91 -33.5 -162.5t-89.5 -113.5t-122 -63.5t-138 -21.5q-111 0 -227.5 46 t-207.5 108z" />
<glyph unicode="T" horiz-adv-x="958" d="M55 1352v82h848v-82h-381v-1352h-88v1352h-379z" />
<glyph unicode="U" horiz-adv-x="1200" d="M186 451v983h88v-977q0 -89 14 -156t48.5 -124t101 -87.5t162.5 -30.5t162 30.5t100.5 87.5t49 124.5t14.5 155.5v977h90v-983q0 -103 -22 -186t-69.5 -149t-130 -102.5t-194.5 -36.5q-91 0 -162 24t-118 66.5t-77.5 103t-43.5 129.5t-13 151z" />
<glyph unicode="V" horiz-adv-x="1144" d="M66 1434h94l411 -1319l414 1319h96l-463 -1434h-92z" />
<glyph unicode="W" horiz-adv-x="1585" d="M86 1434h96l281 -1311l280 1311h97l280 -1311l281 1311h96l-323 -1434h-105l-278 1278l-277 -1278h-102z" />
<glyph unicode="X" horiz-adv-x="1040" d="M66 0l411 711l-391 723h102l332 -641l332 641h102l-391 -725l412 -709h-107l-348 629l-348 -629h-106z" />
<glyph unicode="Y" horiz-adv-x="1056" d="M53 1434h99l376 -785l377 785h101l-435 -869v-565h-88v569z" />
<glyph unicode="Z" horiz-adv-x="1046" d="M88 0v78l743 1274h-704v82h809v-76l-746 -1276h754v-82h-856z" />
<glyph unicode="[" horiz-adv-x="595" d="M197 -295v2013h321v-82h-233v-1849h233v-82h-321z" />
<glyph unicode="\" horiz-adv-x="737" d="M47 1618h76l563 -1802h-78z" />
<glyph unicode="]" horiz-adv-x="595" d="M78 -213h233v1849h-233v82h321v-2013h-321v82z" />
<glyph unicode="^" d="M150 739l321 695h86l322 -695h-99l-266 611l-268 -611h-96z" />
<glyph unicode="_" horiz-adv-x="1204" d="M154 -184h899v-74h-899v74z" />
<glyph unicode="`" horiz-adv-x="339" d="M-4 1493h143l205 -256h-74z" />
<glyph unicode="a" horiz-adv-x="972" d="M104 315q0 92 25.5 162.5t69 111.5t96 61t111.5 20q28 0 62.5 -4t75 -13t66 -15t69.5 -18t52 -14v168q0 126 -43.5 186t-152.5 60q-49 0 -112.5 -17t-101 -31.5t-118.5 -49.5l-39 73q231 103 373 103q130 0 204 -73.5t74 -231.5v-793h-84v156q-160 -179 -338 -179 q-41 0 -79.5 9.5t-77.5 33.5t-67.5 61t-46.5 97t-18 137zM193 313q0 -130 56.5 -191t153.5 -61q96 0 175 50t153 137v289q-8 2 -55.5 13.5t-78.5 18.5t-77.5 14t-81.5 7q-68 0 -117.5 -23t-76 -63.5t-39 -87.5t-12.5 -103z" />
<glyph unicode="b" horiz-adv-x="1015" d="M164 0v1493h84v-573q151 178 319 178q54 0 102 -18.5t90.5 -61t73 -106.5t48.5 -159.5t18 -215.5q0 -148 -26.5 -259t-73.5 -175t-105 -95t-127 -31q-169 0 -319 177v-154h-84zM248 252q58 -84 141.5 -140.5t173.5 -56.5q121 0 184.5 128t63.5 354q0 227 -63.5 355 t-184.5 128q-90 0 -173.5 -56.5t-141.5 -140.5v-571z" />
<glyph unicode="c" horiz-adv-x="890" d="M115 539q0 263 106.5 411t261.5 148q25 0 52 -5t47.5 -11t47.5 -19t42 -21t41 -25.5t34 -23t32.5 -24t25.5 -19.5l-49 -61q-2 2 -20.5 16t-31 23t-35.5 24.5t-43 25.5t-44.5 20.5t-49.5 16t-49 5.5q-119 0 -199.5 -131.5t-80.5 -349.5q0 -219 80.5 -351.5t199.5 -132.5 q24 0 49 5.5t49.5 16t44.5 20.5t43 25.5t35.5 24.5t31 23t20.5 16l49 -61q-1 -1 -25.5 -19.5t-32.5 -24t-34 -23t-41 -25.5t-42 -21t-47.5 -19t-47.5 -11t-52 -5q-155 0 -261.5 149.5t-106.5 412.5z" />
<glyph unicode="d" horiz-adv-x="1015" d="M117 537q0 120 17.5 215.5t48 159.5t73 106.5t90.5 61t103 18.5q168 0 319 -178v573h84v-1493h-84v154q-154 -177 -319 -177q-55 0 -103 18.5t-90.5 61.5t-73 106.5t-48 159t-17.5 214.5zM205 537q0 -226 63 -354t185 -128q88 0 171.5 57t143.5 140v571 q-60 83 -143.5 140t-171.5 57q-122 0 -185 -127.5t-63 -355.5z" />
<glyph unicode="e" horiz-adv-x="976" d="M115 539q0 267 109.5 413t283.5 146q167 0 259.5 -127.5t92.5 -331.5q0 -33 -2.5 -65.5t-5.5 -49.5l-2 -16h-645q6 -204 83 -328.5t197 -124.5q45 0 92 14.5t97 45t72 45t65 47.5l53 -62q-111 -81 -171 -112q-110 -56 -208 -56q-158 0 -264 148.5t-106 413.5zM205 584 h567v24q0 206 -66 306q-70 106 -200 106q-132 0 -212 -118t-89 -318z" />
<glyph unicode="f" horiz-adv-x="579" d="M76 1001v74h123v209q0 119 44.5 164t118.5 45q72 0 244 -61l-37 -68q-142 51 -200 51q-86 0 -86 -121v-219h245v-74h-245v-1001h-84v1001h-123z" />
<glyph unicode="g" horiz-adv-x="1015" d="M117 537q0 120 17.5 215.5t48 159.5t73 106.5t90.5 61t103 18.5q168 0 319 -178v155h84v-1175q0 -338 -311 -338q-172 0 -385 71l26 82q222 -75 355 -75q231 0 231 260v254q-154 -177 -319 -177q-55 0 -103 18.5t-90.5 61.5t-73 106.5t-48 159t-17.5 214.5zM205 537 q0 -226 63 -354t185 -128q88 0 171.5 57t143.5 140v571q-60 83 -143.5 140t-171.5 57q-122 0 -185 -127.5t-63 -355.5z" />
<glyph unicode="h" horiz-adv-x="1021" d="M164 0v1493h84v-586q31 30 66 57.5t86.5 60.5t111 53t115.5 20q66 0 114 -24.5t74 -68t37.5 -94t11.5 -112.5v-799h-84v791q0 229 -168 229q-50 0 -107.5 -22.5t-107.5 -57.5t-86 -66t-63 -59v-815h-84z" />
<glyph unicode="i" horiz-adv-x="413" d="M156 1327v160h100v-160h-100zM164 0v1075h84v-1075h-84z" />
<glyph unicode="j" horiz-adv-x="411" d="M-33 -346q40 16 65.5 26.5t48.5 24.5t35 21.5t23 25t15 27.5t7 36t3 43v56v1161h84v-1161q0 -72 -2.5 -102.5t-13.5 -71.5t-38.5 -62t-74 -45.5t-123.5 -50.5zM156 1327v160h100v-160h-100z" />
<glyph unicode="k" horiz-adv-x="862" d="M164 0v1493h84v-1051l416 633h98l-303 -440l356 -635h-92l-313 561l-162 -237v-324h-84z" />
<glyph unicode="l" horiz-adv-x="434" d="M176 0v1493h84v-1493h-84z" />
<glyph unicode="m" horiz-adv-x="1550" d="M164 0v1075h84v-172q174 195 340 195q47 0 85 -14.5t61.5 -36t41 -51t25.5 -55t12 -52.5q37 47 83.5 90t121 81t145.5 38q64 0 110.5 -24.5t71.5 -68.5t36.5 -94.5t11.5 -111.5v-799h-84v791q0 229 -162 229q-61 0 -128.5 -38.5t-113.5 -83.5t-86 -97v-801h-84v791 q0 103 -38 166t-124 63t-171 -64t-154 -149v-807h-84z" />
<glyph unicode="n" horiz-adv-x="1021" d="M164 0v1075h84v-168q31 30 66 57.5t86.5 60.5t111 53t115.5 20q66 0 114 -24.5t74 -68t37.5 -94t11.5 -112.5v-799h-84v791q0 229 -168 229q-50 0 -107.5 -22.5t-107.5 -57.5t-86 -66t-63 -59v-815h-84z" />
<glyph unicode="o" horiz-adv-x="1015" d="M115 537q0 262 102 411.5t291 149.5q188 0 289.5 -149.5t101.5 -411.5t-101.5 -411t-289.5 -149q-189 0 -291 149t-102 411zM203 537q0 -227 74 -354.5t231 -127.5q155 0 229 127.5t74 354.5t-74 355t-229 128q-157 0 -231 -128t-74 -355z" />
<glyph unicode="p" horiz-adv-x="1015" d="M164 -418v1493h84v-155q147 178 319 178q54 0 102 -18.5t90.5 -61t73 -106.5t48.5 -159.5t18 -215.5q0 -148 -26.5 -259t-73.5 -175t-105 -95t-127 -31q-169 0 -319 177v-572h-84zM248 252q58 -84 141.5 -140.5t173.5 -56.5q121 0 184.5 128t63.5 354q0 227 -63.5 355 t-184.5 128q-90 0 -173.5 -56.5t-141.5 -140.5v-571z" />
<glyph unicode="q" horiz-adv-x="1015" d="M117 537q0 120 17.5 215.5t48 159.5t73 106.5t90.5 61t103 18.5q168 0 319 -178v155h84v-1493h-84v572q-154 -177 -319 -177q-55 0 -103 18.5t-90.5 61.5t-73 106.5t-48 159t-17.5 214.5zM205 537q0 -226 63 -354t185 -128q88 0 171.5 57t143.5 140v571 q-60 83 -143.5 140t-171.5 57q-122 0 -185 -127.5t-63 -355.5z" />
<glyph unicode="r" horiz-adv-x="634" d="M164 0v1075h84v-233q4 11 9 23.5t20.5 40t32.5 51t45.5 50.5t60.5 45t76 28q32 8 66 8q13 0 26 -1v-83q-61 0 -113 -18.5t-85.5 -48t-60 -65.5t-40.5 -72t-23 -65.5t-12 -48.5l-2 -18v-668h-84z" />
<glyph unicode="s" horiz-adv-x="860" d="M98 104l45 68q72 -48 156 -82.5t156 -34.5q90 0 156.5 51t66.5 146q0 33 -10 62.5t-23.5 51t-39.5 42.5t-44.5 34t-52 28.5t-49.5 22t-49 19.5q-37 14 -58.5 23t-56.5 26.5t-56 33t-47 40.5t-40.5 51t-24.5 62t-10 77q0 128 83.5 200.5t209.5 72.5q146 0 317 -105 l-49 -65q-151 92 -270 92q-91 0 -150 -50.5t-59 -138.5q0 -31 8.5 -58t20.5 -46.5t33.5 -38.5t37 -30t44 -24.5t41.5 -18.5t40 -15q3 -1 5 -2t5.5 -2t5.5 -2q167 -64 244.5 -144t77.5 -196q0 -70 -25.5 -124.5t-69 -87t-96 -49t-110.5 -16.5q-169 0 -363 127z" />
<glyph unicode="t" horiz-adv-x="620" d="M70 1001v74h123v271l83 40v-311h246v-74h-246v-825q0 -121 86 -121q35 0 89.5 19.5t91.5 38.5l37 -68q-132 -68 -224 -68q-163 0 -163 209v815h-123z" />
<glyph unicode="u" horiz-adv-x="1021" d="M158 274v801h84v-792q0 -228 168 -228q66 0 145 40t130 81.5t89 81.5v817h84v-1075h-84v168q-70 -70 -172.5 -130.5t-206.5 -60.5q-66 0 -114 24.5t-74 67.5t-37.5 93.5t-11.5 111.5z" />
<glyph unicode="v" horiz-adv-x="925" d="M66 1075h94l303 -958l301 958h96l-358 -1075h-80z" />
<glyph unicode="w" horiz-adv-x="1361" d="M78 1075h90l231 -954l238 954h90l234 -958l231 958h92l-278 -1075h-91l-235 942l-234 -942h-90z" />
<glyph unicode="x" horiz-adv-x="960" d="M57 0l377 541l-360 534h108l299 -461l297 461h109l-361 -534l377 -541h-108l-314 471l-315 -471h-109z" />
<glyph unicode="y" horiz-adv-x="925" d="M66 1075h94l303 -960l301 960h96l-498 -1493h-96l154 418z" />
<glyph unicode="z" horiz-adv-x="841" d="M88 0v80l561 917h-543v78h642v-80l-562 -917h562v-78h-660z" />
<glyph unicode="{" horiz-adv-x="686" d="M78 653v119q43 0 74.5 12t56.5 40t33.5 81.5t-0.5 130.5l-23 191q-26 232 62 361.5t299 129.5h30v-82h-30q-88 0 -147 -30t-87 -85t-36 -120t-1 -148l23 -202q28 -282 -150 -338q178 -56 150 -338l-23 -203q-7 -83 1 -148t36 -120t87 -85t147 -30h30v-82h-30 q-211 0 -299 130t-62 362l23 190q9 77 0.5 130.5t-33.5 81.5t-56.5 40t-74.5 12z" />
<glyph unicode="|" horiz-adv-x="468" d="M197 -252v1927h73v-1927h-73z" />
<glyph unicode="}" horiz-adv-x="688" d="M76 -211h30q88 0 147 30t87 85t36 120t1 148l-23 203q-28 282 150 338q-178 56 -150 338l23 202q7 83 -1 148t-36 120t-87 85t-147 30h-30v82h30q211 0 299 -129.5t62 -361.5l-23 -191q-9 -77 -0.5 -130.5t33.5 -81.5t56.5 -40t74.5 -12v-119q-43 0 -74.5 -12t-56.5 -40 t-33.5 -81.5t0.5 -130.5l23 -190q26 -232 -62 -362t-299 -130h-30v82z" />
<glyph unicode="~" d="M76 483q79 195 237 195q56 0 114.5 -24t100.5 -52t96 -52t101 -24t86 29t74 111l69 -31q-79 -195 -237 -195q-56 0 -114.5 24t-100.5 52t-96 52t-101 24t-85 -28.5t-73 -110.5z" />
<glyph unicode="&#xa1;" horiz-adv-x="499" d="M195 1247v187h114v-187h-114zM203 0l22 1028h56l22 -1028h-100z" />
<glyph unicode="&#xa2;" horiz-adv-x="960" d="M131 719q0 254 101 401.5t249 157.5v156h72v-162q18 -3 37 -8.5t35 -11t34.5 -15t31.5 -16.5t31 -19t27.5 -18.5t27 -20t22.5 -17.5t21.5 -17.5t17.5 -14.5l-52 -59q-3 2 -22 17.5t-32 25t-37 26t-44.5 28t-47 23t-50.5 17.5v-950q15 4 30.5 9.5t29 11.5t29 14.5t27 15.5 t26.5 17t23.5 16.5t21.5 17t18 14.5t16 13t12 10l52 -59q-3 -3 -11 -9q-43 -35 -73 -57.5t-88.5 -53t-112.5 -40.5v-162h-72v158q-148 10 -249 158t-101 403zM219 719q0 -209 75 -340.5t187 -142.5v962q-113 -11 -187.5 -140.5t-74.5 -338.5z" />
<glyph unicode="&#xa3;" horiz-adv-x="940" d="M129 0v72q8 9 21.5 25t47.5 67t61 103t50 128t25 148h-187v82h181q-9 64 -36.5 132.5t-55 117.5t-49 118.5t-21.5 139.5q0 147 87 235t228 88q64 0 134 -22t112 -44.5t100 -58.5l-51 -69q-89 56 -158.5 84t-134.5 28q-106 0 -167.5 -69.5t-61.5 -178.5q0 -61 22.5 -126.5 t50 -115t55.5 -120.5t36 -139h274v-82h-270q-3 -74 -24.5 -152t-53 -141t-54.5 -101.5t-44 -66.5h561v-82h-678z" />
<glyph unicode="&#xa5;" horiz-adv-x="1105" d="M78 1434h98l377 -785l377 785h100l-366 -732h268v-77h-307l-29 -60v-112h336v-78h-336v-375h-88v375h-336v78h336v116l-29 56h-307v77h268z" />
<glyph unicode="&#xa6;" horiz-adv-x="473" d="M199 -252v846h73v-846h-73zM199 829v846h73v-846h-73z" />
<glyph unicode="&#xa7;" horiz-adv-x="927" d="M123 692q0 97 53 156.5t141 81.5q-159 89 -159 254q0 127 84 199.5t211 72.5q149 0 315 -104l-47 -66q-151 92 -268 92q-93 0 -152 -50t-59 -138q0 -23 5 -44.5t11.5 -38t21 -33t24 -27.5t29.5 -24t30 -19t33.5 -16.5t30 -13.5t30.5 -12t26 -10q167 -64 245.5 -144 t78.5 -194q0 -95 -55 -154t-142 -83q160 -91 160 -252q0 -128 -83 -200t-210 -72q-151 0 -317 104l47 66q153 -93 270 -93q92 0 150.5 50.5t58.5 138.5q0 42 -16 77.5t-38.5 58.5t-55.5 42.5t-58.5 30.5t-56.5 22q-12 4 -17 6q-165 63 -243 142t-78 194zM209 698 q0 -33 10 -62.5t23.5 -51t39.5 -42.5t44.5 -34t52 -28.5t49.5 -22t49 -19.5l35 -14q86 3 147.5 50.5t61.5 135.5q0 45 -19 84t-43 63.5t-67.5 49t-69.5 35.5t-71 28l-35 15q-88 -5 -147.5 -52t-59.5 -135z" />
<glyph unicode="&#xa8;" horiz-adv-x="370" d="M-4 1257v160h110v-160h-110zM266 1257v160h109v-160h-109z" />
<glyph unicode="&#xa9;" horiz-adv-x="1720" d="M131 717q0 156 49 290.5t140 234.5t230.5 157t311.5 57t311 -57t230 -157t139.5 -234.5t48.5 -290.5t-48.5 -290.5t-139.5 -234.5t-230 -157.5t-311 -57.5t-311.5 57.5t-230.5 157.5t-140 234.5t-49 290.5zM209 717q0 -190 74 -339t223.5 -238t353.5 -89q155 0 280 51 t206.5 141t125.5 211.5t44 262.5t-44 262t-125.5 211t-206.5 141t-280 51q-154 0 -278.5 -51t-205 -141t-124 -211t-43.5 -262zM492 715q0 212 101.5 329t254.5 117q72 0 143 -23t109 -45.5t90 -58.5l-51 -61q-90 63 -146 85q-70 27 -141 27q-119 0 -194.5 -102t-75.5 -268 q0 -165 75.5 -266t194.5 -101q19 0 39 2.5t36 5t35 9t31 10.5t30.5 13.5t26.5 13t26.5 15t22.5 14t21.5 14.5t18.5 12l51 -60q-52 -36 -90 -58.5t-109 -45.5t-143 -23q-152 0 -254 117t-102 328z" />
<glyph unicode="&#xaa;" horiz-adv-x="741" d="M121 979q0 106 55 159.5t137 53.5q54 0 199 -37v90q0 71 -26.5 104t-92.5 33q-65 0 -205 -55l-30 59q154 62 243 62q185 0 185 -195v-465h-74v91q-96 -105 -209 -105q-75 0 -128.5 49.5t-53.5 155.5zM199 981q0 -70 32 -103.5t88 -33.5q98 0 193 102v156q-109 31 -172 31 q-141 0 -141 -152z" />
<glyph unicode="&#xab;" horiz-adv-x="1169" d="M80 551v65l512 467v-106l-430 -393l430 -394v-106zM537 551v65l512 467v-106l-431 -393l431 -394v-106z" />
<glyph unicode="&#xac;" d="M33 643v78h956v-537h-86v459h-870z" />
<glyph unicode="&#xad;" horiz-adv-x="757" d="M156 541v86h446v-86h-446z" />
<glyph unicode="&#xae;" horiz-adv-x="987" d="M129 1106q0 160 97.5 264.5t267.5 104.5q169 0 266.5 -104.5t97.5 -264.5t-97.5 -264.5t-266.5 -104.5q-170 0 -267.5 104.5t-97.5 264.5zM199 1106q0 -134 76 -219.5t219 -85.5t218.5 85.5t75.5 219.5t-75.5 219.5t-218.5 85.5t-219 -85.5t-76 -219.5zM356 926v370h172 q58 0 91.5 -30t33.5 -78q0 -39 -25.5 -66t-66.5 -35l88 -161h-69l-84 157h-76v-157h-64zM420 1141h108q60 0 60 47q0 25 -12.5 38t-45.5 13h-110v-98z" />
<glyph unicode="&#xaf;" horiz-adv-x="475" d="M0 1288v74h475v-74h-475z" />
<glyph unicode="&#xb0;" horiz-adv-x="829" d="M115 1135q0 123 88 211t211 88t212 -88t89 -211t-89 -211t-212 -88t-211 88t-88 211zM186 1135q0 -94 67 -160t161 -66q92 0 159.5 67t67.5 159q0 93 -67 160t-160 67q-94 0 -161 -66.5t-67 -160.5z" />
<glyph unicode="&#xb1;" d="M98 0v78h830v-78h-830zM98 629v78h375v344h76v-344h379v-78h-379v-346h-76v346h-375z" />
<glyph unicode="&#xb2;" horiz-adv-x="661" d="M82 788v64q0 28 4 54t9 46.5t16.5 43t19.5 37t26 35t27 30.5t32 30t32 27t35 28t34 27q82 68 125 125.5t43 120.5q0 62 -40 98.5t-109 36.5q-55 0 -108 -22.5t-87 -48.5l-39 57q119 86 238 86q100 0 162.5 -56t62.5 -151q0 -29 -7 -57t-15.5 -50t-28.5 -48.5t-32.5 -42 t-40.5 -42t-41 -37t-46 -38t-43 -35.5q-52 -43 -78.5 -71.5t-45.5 -73.5t-19 -103h397v-70h-483z" />
<glyph unicode="&#xb3;" horiz-adv-x="671" d="M72 852l41 59q32 -22 87.5 -43.5t112.5 -21.5q80 0 133.5 48.5t53.5 131.5q0 52 -23 92t-59.5 62.5t-77.5 33.5t-82 11h-29v73h33q83 0 144 44.5t61 121.5q0 60 -38.5 93.5t-104.5 33.5q-91 0 -181 -63l-37 53q18 15 42 29.5t77.5 33.5t106.5 19q99 0 156 -56.5 t57 -136.5q0 -64 -38 -120t-116 -86q83 -23 136 -86.5t53 -151.5q0 -104 -67 -178t-191 -74q-128 0 -250 78z" />
<glyph unicode="&#xb4;" horiz-adv-x="339" d="M-4 1237l203 256h145l-274 -256h-74z" />
<glyph unicode="&#xb5;" horiz-adv-x="1099" d="M197 -418v1493h84v-792q0 -228 168 -228q66 0 145 40t130 81.5t89 81.5v817h84v-1075h-84v168q-70 -70 -172.5 -130.5t-206.5 -60.5q-94 0 -153 52v-447h-84z" />
<glyph unicode="&#xb6;" horiz-adv-x="1056" d="M80 1024q0 200 98.5 305t296.5 105h80v-1813h-84v993q-182 0 -286.5 107.5t-104.5 302.5zM764 -379v1813h84v-1813h-84z" />
<glyph unicode="&#xb7;" horiz-adv-x="425" d="M154 489v187h114v-187h-114z" />
<glyph unicode="&#xb8;" horiz-adv-x="280" d="M0 -301l27 72q23 -13 32 -17.5t23.5 -9t30.5 -4.5q47 0 74.5 26.5t27.5 79.5q0 36 -13.5 75.5t-26.5 60.5l-13 22h51q8 -9 19.5 -26t31 -64.5t19.5 -91.5q0 -71 -44.5 -114.5t-115.5 -43.5q-64 0 -123 35z" />
<glyph unicode="&#xb9;" horiz-adv-x="489" d="M51 1540l174 109h70v-861h-78v775l-129 -80z" />
<glyph unicode="&#xba;" horiz-adv-x="755" d="M121 1110q0 159 66 248.5t190 89.5q123 0 188.5 -89.5t65.5 -248.5q0 -158 -65.5 -247t-188.5 -89q-124 0 -190 89t-66 247zM199 1110q0 -270 178 -270q90 0 134 71.5t44 198.5q0 128 -43.5 200t-134.5 72q-178 0 -178 -272z" />
<glyph unicode="&#xbb;" horiz-adv-x="1169" d="M123 84v106l430 394l-430 393v106l512 -467v-65zM578 84v106l430 394l-430 393v106l512 -467v-65z" />
<glyph unicode="&#xbc;" horiz-adv-x="1323" d="M70 1325l174 109h69v-861h-77v775l-130 -80zM264 0l563 1434h80l-561 -1434h-82zM666 199v63l356 598h102v-592h115v-69h-115v-199h-77v199h-381zM745 268h302v508z" />
<glyph unicode="&#xbd;" horiz-adv-x="1378" d="M70 1325l174 109h69v-861h-77v775l-130 -80zM264 0l563 1434h80l-561 -1434h-82zM780 0v63q0 28 4 54t9 46.5t17 43t19.5 37t26 35t27.5 31t32 30.5t32 27t35 28t34 27q82 68 125 125.5t43 120.5q0 62 -40.5 98.5t-109.5 36.5q-55 0 -107 -22.5t-87 -49.5l-39 57 q119 86 237 86q100 0 163 -55.5t63 -150.5q0 -29 -7 -57.5t-15.5 -50t-28.5 -48.5t-32 -42t-41 -42t-40.5 -37t-46.5 -38.5t-43 -35.5q-53 -43 -79.5 -71t-45.5 -73t-19 -103h398v-70h-484z" />
<glyph unicode="&#xbe;" horiz-adv-x="1531" d="M100 637l41 59q32 -22 88 -43.5t113 -21.5q80 0 133 48.5t53 131.5q0 52 -22.5 92t-59.5 62.5t-77.5 33.5t-81.5 11h-29v73h33q83 0 144 44.5t61 121.5q0 60 -39 93.5t-105 33.5q-90 0 -180 -63l-37 53q103 82 225 82q99 0 156 -56.5t57 -136.5q0 -64 -37.5 -120 t-115.5 -86q82 -23 135 -86.5t53 -151.5q0 -104 -67 -178t-191 -74q-128 0 -250 78zM473 0l563 1434h80l-561 -1434h-82zM872 199v63l357 598h102v-592h115v-69h-115v-199h-78v199h-381zM952 268h301v508z" />
<glyph unicode="&#xbf;" horiz-adv-x="847" d="M90 291q0 274 354 399l11 338h71l13 -389q-81 -25 -142 -54.5t-113 -70.5t-79 -96.5t-27 -122.5q0 -113 71 -174.5t177 -61.5q131 0 295 113l51 -57q-67 -55 -160 -96.5t-190 -41.5q-63 0 -121 19t-106 56t-76.5 99t-28.5 140zM434 1247v187h113v-187h-113z" />
<glyph unicode="&#xc0;" horiz-adv-x="1148" d="M68 0l460 1434h95l460 -1434h-96l-125 395h-577l-123 -395h-94zM311 477h527l-265 842zM338 1802h143l205 -256h-74z" />
<glyph unicode="&#xc1;" horiz-adv-x="1148" d="M68 0l460 1434h95l460 -1434h-96l-125 395h-577l-123 -395h-94zM311 477h527l-265 842zM463 1546l203 256h145l-274 -256h-74z" />
<glyph unicode="&#xc2;" horiz-adv-x="1148" d="M68 0l460 1434h95l460 -1434h-96l-125 395h-577l-123 -395h-94zM311 477h527l-265 842zM354 1546l160 256h121l162 -256h-72l-152 191l-147 -191h-72z" />
<glyph unicode="&#xc3;" horiz-adv-x="1148" d="M68 0l460 1434h95l460 -1434h-96l-125 395h-577l-123 -395h-94zM311 477h527l-265 842zM334 1597q31 74 62 110t77 36q35 0 73.5 -25.5t72 -50.5t55.5 -25t39 18.5t43 76.5l59 -25q-33 -75 -63.5 -110t-77.5 -35q-35 0 -73.5 25t-72 50t-55.5 25t-39 -18t-43 -76z" />
<glyph unicode="&#xc4;" horiz-adv-x="1148" d="M68 0l460 1434h95l460 -1434h-96l-125 395h-577l-123 -395h-94zM311 477h527l-265 842zM385 1567v159h111v-159h-111zM655 1567v159h109v-159h-109z" />
<glyph unicode="&#xc5;" horiz-adv-x="1148" d="M68 0l460 1434h95l460 -1434h-96l-125 395h-577l-123 -395h-94zM311 477h527l-265 842zM389 1712q0 80 53.5 135.5t132.5 55.5t135 -55.5t56 -135.5q0 -78 -55.5 -132t-135.5 -54q-79 0 -132.5 54t-53.5 132zM453 1712q0 -51 35.5 -86t86.5 -35q53 0 89 35t36 86 q0 52 -36 88.5t-89 36.5q-51 0 -86.5 -36.5t-35.5 -88.5z" />
<glyph unicode="&#xc6;" horiz-adv-x="1660" d="M12 0l813 1434h709v-82h-610v-594h508v-82h-508v-594h620v-82h-708v395h-504l-219 -395h-101zM379 477h457v819z" />
<glyph unicode="&#xc7;" horiz-adv-x="1101" d="M135 717q0 153 24 277.5t66 209.5t99.5 142.5t122.5 83.5t137 26q111 0 212.5 -58t213.5 -155l-58 -59q-45 38 -76 62.5t-83 58.5t-104.5 51.5t-102.5 17.5q-158 0 -258.5 -175t-100.5 -482t100.5 -482.5t258.5 -175.5q50 0 102 17t105.5 53t82.5 58t78 63l56 -60 q-101 -88 -194 -143.5t-195 -66.5q53 -82 53 -158q0 -71 -44.5 -114.5t-115.5 -43.5q-64 0 -123 35l27 72q23 -13 32 -17.5t23.5 -9t30.5 -4.5q47 0 74.5 26.5t27.5 79.5q0 54 -37 131q-89 4 -165 48.5t-137.5 131t-96.5 230.5t-35 330z" />
<glyph unicode="&#xc8;" horiz-adv-x="1019" d="M197 0v1434h698v-82h-610v-594h508v-82h-508v-594h620v-82h-708zM313 1802h144l205 -256h-74z" />
<glyph unicode="&#xc9;" horiz-adv-x="1019" d="M197 0v1434h698v-82h-610v-594h508v-82h-508v-594h620v-82h-708zM440 1546l203 256h145l-274 -256h-74z" />
<glyph unicode="&#xca;" horiz-adv-x="1019" d="M197 0v1434h698v-82h-610v-594h508v-82h-508v-594h620v-82h-708zM330 1546l159 256h121l162 -256h-72l-151 191l-148 -191h-71z" />
<glyph unicode="&#xcb;" horiz-adv-x="1019" d="M197 0v1434h698v-82h-610v-594h508v-82h-508v-594h620v-82h-708zM360 1567v159h111v-159h-111zM631 1567v159h108v-159h-108z" />
<glyph unicode="&#xcc;" horiz-adv-x="479" d="M4 1802h143l205 -256h-73zM197 0v1434h88v-1434h-88z" />
<glyph unicode="&#xcd;" horiz-adv-x="479" d="M129 1546l203 256h145l-274 -256h-74zM197 0v1434h88v-1434h-88z" />
<glyph unicode="&#xce;" horiz-adv-x="481" d="M20 1546l160 256h121l162 -256h-72l-151 191l-148 -191h-72zM197 0v1434h88v-1434h-88z" />
<glyph unicode="&#xcf;" horiz-adv-x="479" d="M49 1567v159h111v-159h-111zM197 0v1434h88v-1434h-88zM319 1567v159h109v-159h-109z" />
<glyph unicode="&#xd0;" horiz-adv-x="1200" d="M72 676v82h129v676h303q131 0 232.5 -40.5t176 -125.5t113.5 -223.5t39 -327.5t-39 -327.5t-113.5 -223.5t-176 -125.5t-232.5 -40.5h-303v676h-129zM289 82h215q243 0 355 156t112 479t-112 479t-355 156h-215v-594h299v-82h-299v-594z" />
<glyph unicode="&#xd1;" horiz-adv-x="1241" d="M197 0v1434h92l669 -1274v1274h89v-1434h-95l-667 1270v-1270h-88zM391 1597q31 74 62 110t77 36q35 0 73.5 -25.5t72 -50.5t55.5 -25t39 18.5t43 76.5l59 -25q-33 -75 -63.5 -110t-77.5 -35q-35 0 -73.5 25t-72 50t-55.5 25t-38.5 -18t-42.5 -76z" />
<glyph unicode="&#xd2;" horiz-adv-x="1251" d="M135 717q0 126 15.5 233t51.5 202t91.5 161t140 104.5t191.5 38.5t191.5 -38.5t139.5 -104.5t91 -161t51.5 -202t15.5 -233q0 -125 -15.5 -232t-51.5 -202t-91 -162t-139.5 -105.5t-191.5 -38.5t-191.5 38.5t-140 105.5t-91.5 162t-51.5 202t-15.5 232zM227 717 q0 -113 12 -207.5t40.5 -179.5t73.5 -143.5t114 -93t158 -34.5q397 0 397 658q0 657 -397 657q-89 0 -158 -34t-114 -93t-73.5 -144t-40.5 -179t-12 -207zM389 1802h143l205 -256h-73z" />
<glyph unicode="&#xd3;" horiz-adv-x="1251" d="M135 717q0 126 15.5 233t51.5 202t91.5 161t140 104.5t191.5 38.5t191.5 -38.5t139.5 -104.5t91 -161t51.5 -202t15.5 -233q0 -125 -15.5 -232t-51.5 -202t-91 -162t-139.5 -105.5t-191.5 -38.5t-191.5 38.5t-140 105.5t-91.5 162t-51.5 202t-15.5 232zM227 717 q0 -113 12 -207.5t40.5 -179.5t73.5 -143.5t114 -93t158 -34.5q397 0 397 658q0 657 -397 657q-89 0 -158 -34t-114 -93t-73.5 -144t-40.5 -179t-12 -207zM514 1546l203 256h145l-274 -256h-74z" />
<glyph unicode="&#xd4;" horiz-adv-x="1251" d="M135 717q0 126 15.5 233t51.5 202t91.5 161t140 104.5t191.5 38.5t191.5 -38.5t139.5 -104.5t91 -161t51.5 -202t15.5 -233q0 -125 -15.5 -232t-51.5 -202t-91 -162t-139.5 -105.5t-191.5 -38.5t-191.5 38.5t-140 105.5t-91.5 162t-51.5 202t-15.5 232zM227 717 q0 -113 12 -207.5t40.5 -179.5t73.5 -143.5t114 -93t158 -34.5q397 0 397 658q0 657 -397 657q-89 0 -158 -34t-114 -93t-73.5 -144t-40.5 -179t-12 -207zM403 1546l160 256h121l162 -256h-72l-151 191l-148 -191h-72z" />
<glyph unicode="&#xd5;" horiz-adv-x="1251" d="M135 717q0 126 15.5 233t51.5 202t91.5 161t140 104.5t191.5 38.5t191.5 -38.5t139.5 -104.5t91 -161t51.5 -202t15.5 -233q0 -125 -15.5 -232t-51.5 -202t-91 -162t-139.5 -105.5t-191.5 -38.5t-191.5 38.5t-140 105.5t-91.5 162t-51.5 202t-15.5 232zM227 717 q0 -113 12 -207.5t40.5 -179.5t73.5 -143.5t114 -93t158 -34.5q397 0 397 658q0 657 -397 657q-89 0 -158 -34t-114 -93t-73.5 -144t-40.5 -179t-12 -207zM385 1597q31 74 62 110t77 36q35 0 73.5 -25.5t72 -50.5t55.5 -25t39 18.5t43 76.5l59 -25q-33 -75 -63.5 -110 t-77.5 -35q-35 0 -73.5 25t-72 50t-55.5 25t-39 -18t-43 -76z" />
<glyph unicode="&#xd6;" horiz-adv-x="1251" d="M135 717q0 126 15.5 233t51.5 202t91.5 161t140 104.5t191.5 38.5t191.5 -38.5t139.5 -104.5t91 -161t51.5 -202t15.5 -233q0 -125 -15.5 -232t-51.5 -202t-91 -162t-139.5 -105.5t-191.5 -38.5t-191.5 38.5t-140 105.5t-91.5 162t-51.5 202t-15.5 232zM227 717 q0 -113 12 -207.5t40.5 -179.5t73.5 -143.5t114 -93t158 -34.5q397 0 397 658q0 657 -397 657q-89 0 -158 -34t-114 -93t-73.5 -144t-40.5 -179t-12 -207zM434 1567v159h111v-159h-111zM705 1567v159h108v-159h-108z" />
<glyph unicode="&#xd7;" d="M193 979l55 51l264 -289l262 285l57 -51l-268 -291l271 -293l-58 -49l-262 287l-262 -285l-57 51l266 291z" />
<glyph unicode="&#xd8;" horiz-adv-x="1243" d="M131 717q0 126 15.5 233t51.5 202t91.5 161t140 104.5t191.5 38.5q201 0 321 -133l66 111h86l-105 -174q121 -190 121 -543q0 -125 -15.5 -232t-51.5 -202t-91 -162t-139.5 -105.5t-191.5 -38.5q-200 0 -320 129l-63 -106h-86l102 170q-123 191 -123 547zM223 717 q0 -296 82 -461l590 987q-97 131 -274 131q-89 0 -158 -34t-114 -93t-73.5 -144t-40.5 -179t-12 -207zM348 186q97 -127 273 -127q397 0 397 658q0 290 -80 457z" />
<glyph unicode="&#xd9;" horiz-adv-x="1200" d="M186 451v983h88v-977q0 -89 14 -156t48.5 -124t101 -87.5t162.5 -30.5t162 30.5t100.5 87.5t49 124.5t14.5 155.5v977h90v-983q0 -103 -22 -186t-69.5 -149t-130 -102.5t-194.5 -36.5q-91 0 -162 24t-118 66.5t-77.5 103t-43.5 129.5t-13 151zM365 1802h143l205 -256h-74 z" />
<glyph unicode="&#xda;" horiz-adv-x="1200" d="M186 451v983h88v-977q0 -89 14 -156t48.5 -124t101 -87.5t162.5 -30.5t162 30.5t100.5 87.5t49 124.5t14.5 155.5v977h90v-983q0 -103 -22 -186t-69.5 -149t-130 -102.5t-194.5 -36.5q-91 0 -162 24t-118 66.5t-77.5 103t-43.5 129.5t-13 151zM489 1546l203 256h146 l-275 -256h-74z" />
<glyph unicode="&#xdb;" horiz-adv-x="1200" d="M186 451v983h88v-977q0 -89 14 -156t48.5 -124t101 -87.5t162.5 -30.5t162 30.5t100.5 87.5t49 124.5t14.5 155.5v977h90v-983q0 -103 -22 -186t-69.5 -149t-130 -102.5t-194.5 -36.5q-91 0 -162 24t-118 66.5t-77.5 103t-43.5 129.5t-13 151zM379 1546l160 256h120 l162 -256h-71l-152 191l-147 -191h-72z" />
<glyph unicode="&#xdc;" horiz-adv-x="1200" d="M186 451v983h88v-977q0 -89 14 -156t48.5 -124t101 -87.5t162.5 -30.5t162 30.5t100.5 87.5t49 124.5t14.5 155.5v977h90v-983q0 -103 -22 -186t-69.5 -149t-130 -102.5t-194.5 -36.5q-91 0 -162 24t-118 66.5t-77.5 103t-43.5 129.5t-13 151zM408 1567v159h110v-159 h-110zM678 1567v159h108v-159h-108z" />
<glyph unicode="&#xdd;" horiz-adv-x="1056" d="M53 1434h99l376 -785l377 785h101l-435 -869v-565h-88v569zM418 1546l203 256h145l-274 -256h-74z" />
<glyph unicode="&#xde;" horiz-adv-x="1110" d="M197 0v1434h88v-273h278q95 0 169.5 -19.5t137.5 -65t97 -130t34 -203.5q0 -426 -438 -426h-278v-317h-88zM285 399h286q74 0 133.5 19t106.5 58.5t72.5 107t25.5 159.5t-25.5 158.5t-72.5 104.5t-106.5 55.5t-133.5 17.5h-286v-680z" />
<glyph unicode="&#xdf;" horiz-adv-x="1044" d="M164 0v1065q0 101 20.5 179t53 125t79 76.5t93 40.5t100.5 11q147 0 242.5 -80.5t95.5 -232.5q0 -51 -11 -93.5t-23 -59.5l-11 -17q-37 -15 -60 -27.5t-56.5 -37t-51 -60t-17.5 -80.5q0 -47 22.5 -89t49 -68.5t88.5 -80.5q41 -36 55.5 -49.5t48 -50.5t47.5 -64.5 t27 -70.5t13 -90q0 -127 -75.5 -198t-186.5 -71q-139 0 -310 103l45 67q151 -92 260 -92q76 0 129.5 51.5t53.5 145.5q0 67 -34 118.5t-124 133.5q-7 6 -32.5 29t-33 30.5t-28.5 28t-28 31t-22 30t-21 34.5l-14 35t-10.5 41t-2.5 44q0 48 16 90t37 69t54 51t55.5 35.5 t52.5 24.5q16 58 16 105q0 112 -69.5 174.5t-184.5 62.5q-264 0 -264 -354v-1065h-84z" />
<glyph unicode="&#xe0;" horiz-adv-x="972" d="M104 315q0 92 25.5 162.5t69 111.5t96 61t111.5 20q28 0 62.5 -4t75 -13t66 -15t69.5 -18t52 -14v168q0 126 -43.5 186t-152.5 60q-49 0 -112.5 -17t-101 -31.5t-118.5 -49.5l-39 73q231 103 373 103q130 0 204 -73.5t74 -231.5v-793h-84v156q-160 -179 -338 -179 q-41 0 -79.5 9.5t-77.5 33.5t-67.5 61t-46.5 97t-18 137zM193 313q0 -130 56.5 -191t153.5 -61q96 0 175 50t153 137v289q-8 2 -55.5 13.5t-78.5 18.5t-77.5 14t-81.5 7q-68 0 -117.5 -23t-76 -63.5t-39 -87.5t-12.5 -103zM254 1493h143l205 -256h-74z" />
<glyph unicode="&#xe1;" horiz-adv-x="972" d="M104 315q0 92 25.5 162.5t69 111.5t96 61t111.5 20q28 0 62.5 -4t75 -13t66 -15t69.5 -18t52 -14v168q0 126 -43.5 186t-152.5 60q-49 0 -112.5 -17t-101 -31.5t-118.5 -49.5l-39 73q231 103 373 103q130 0 204 -73.5t74 -231.5v-793h-84v156q-160 -179 -338 -179 q-41 0 -79.5 9.5t-77.5 33.5t-67.5 61t-46.5 97t-18 137zM193 313q0 -130 56.5 -191t153.5 -61q96 0 175 50t153 137v289q-8 2 -55.5 13.5t-78.5 18.5t-77.5 14t-81.5 7q-68 0 -117.5 -23t-76 -63.5t-39 -87.5t-12.5 -103zM379 1237l203 256h145l-274 -256h-74z" />
<glyph unicode="&#xe2;" horiz-adv-x="972" d="M104 315q0 92 25.5 162.5t69 111.5t96 61t111.5 20q28 0 62.5 -4t75 -13t66 -15t69.5 -18t52 -14v168q0 126 -43.5 186t-152.5 60q-49 0 -112.5 -17t-101 -31.5t-118.5 -49.5l-39 73q231 103 373 103q130 0 204 -73.5t74 -231.5v-793h-84v156q-160 -179 -338 -179 q-41 0 -79.5 9.5t-77.5 33.5t-67.5 61t-46.5 97t-18 137zM193 313q0 -130 56.5 -191t153.5 -61q96 0 175 50t153 137v289q-8 2 -55.5 13.5t-78.5 18.5t-77.5 14t-81.5 7q-68 0 -117.5 -23t-76 -63.5t-39 -87.5t-12.5 -103zM270 1237l160 256h121l162 -256h-72l-152 190 l-147 -190h-72z" />
<glyph unicode="&#xe3;" horiz-adv-x="972" d="M104 315q0 92 25.5 162.5t69 111.5t96 61t111.5 20q28 0 62.5 -4t75 -13t66 -15t69.5 -18t52 -14v168q0 126 -43.5 186t-152.5 60q-49 0 -112.5 -17t-101 -31.5t-118.5 -49.5l-39 73q231 103 373 103q130 0 204 -73.5t74 -231.5v-793h-84v156q-160 -179 -338 -179 q-41 0 -79.5 9.5t-77.5 33.5t-67.5 61t-46.5 97t-18 137zM193 313q0 -130 56.5 -191t153.5 -61q96 0 175 50t153 137v289q-8 2 -55.5 13.5t-78.5 18.5t-77.5 14t-81.5 7q-68 0 -117.5 -23t-76 -63.5t-39 -87.5t-12.5 -103zM250 1288q31 74 62 110t77 36q28 0 58.5 -16 t52.5 -34.5t47 -34.5t43 -16q22 0 39 18t43 76l59 -24q-33 -76 -63.5 -111t-77.5 -35q-35 0 -73.5 25.5t-72 50.5t-55.5 25t-39 -18t-43 -76z" />
<glyph unicode="&#xe4;" horiz-adv-x="972" d="M104 315q0 92 25.5 162.5t69 111.5t96 61t111.5 20q28 0 62.5 -4t75 -13t66 -15t69.5 -18t52 -14v168q0 126 -43.5 186t-152.5 60q-49 0 -112.5 -17t-101 -31.5t-118.5 -49.5l-39 73q231 103 373 103q130 0 204 -73.5t74 -231.5v-793h-84v156q-160 -179 -338 -179 q-41 0 -79.5 9.5t-77.5 33.5t-67.5 61t-46.5 97t-18 137zM193 313q0 -130 56.5 -191t153.5 -61q96 0 175 50t153 137v289q-8 2 -55.5 13.5t-78.5 18.5t-77.5 14t-81.5 7q-68 0 -117.5 -23t-76 -63.5t-39 -87.5t-12.5 -103zM301 1257v160h111v-160h-111zM571 1257v160h109 v-160h-109z" />
<glyph unicode="&#xe5;" horiz-adv-x="972" d="M104 315q0 92 25.5 162.5t69 111.5t96 61t111.5 20q28 0 62.5 -4t75 -13t66 -15t69.5 -18t52 -14v168q0 126 -43.5 186t-152.5 60q-49 0 -112.5 -17t-101 -31.5t-118.5 -49.5l-39 73q231 103 373 103q130 0 204 -73.5t74 -231.5v-793h-84v156q-160 -179 -338 -179 q-41 0 -79.5 9.5t-77.5 33.5t-67.5 61t-46.5 97t-18 137zM193 313q0 -130 56.5 -191t153.5 -61q96 0 175 50t153 137v289q-8 2 -55.5 13.5t-78.5 18.5t-77.5 14t-81.5 7q-68 0 -117.5 -23t-76 -63.5t-39 -87.5t-12.5 -103zM303 1403q0 80 53.5 135t132.5 55 q80 0 135.5 -55.5t55.5 -134.5q0 -78 -55.5 -132t-135.5 -54q-79 0 -132.5 54t-53.5 132zM367 1403q0 -51 35.5 -86t86.5 -35q53 0 89 35t36 86q0 53 -36 89t-89 36q-51 0 -86.5 -36.5t-35.5 -88.5z" />
<glyph unicode="&#xe6;" horiz-adv-x="1558" d="M104 315q0 92 24.5 162.5t67 111.5t94.5 61t111 20q18 0 39 -2.5t38.5 -5t41.5 -8.5t38.5 -10t39.5 -12t35 -12t34 -12t29 -10q5 95 33 190q-5 119 -49.5 175.5t-149.5 56.5q-48 0 -110 -16.5t-100.5 -32t-118.5 -49.5l-37 73q231 103 371 103q201 0 256 -168 q109 168 299 168q167 0 259.5 -127.5t92.5 -331.5q0 -33 -2.5 -65.5t-5.5 -49.5l-2 -16h-646q6 -204 83.5 -328.5t197.5 -124.5q45 0 92 14.5t97 45t72 45t65 47.5l53 -62q-111 -81 -171 -112q-110 -56 -208 -56q-95 0 -173.5 55.5t-129.5 160.5q-78 -96 -173 -156t-198 -60 q-41 0 -79.5 9.5t-77.5 33.5t-67.5 61t-46.5 97t-18 137zM193 313q0 -130 56.5 -191t153.5 -61q95 0 175.5 53.5t156.5 147.5q-36 113 -39 256q-8 3 -55.5 21t-71.5 25.5t-63.5 16.5t-69.5 9q-68 0 -117 -23t-75.5 -63.5t-38.5 -87.5t-12 -103zM786 584h568q4 223 -67 329.5 t-200 106.5q-132 0 -212 -118t-89 -318z" />
<glyph unicode="&#xe7;" horiz-adv-x="888" d="M115 539q0 263 106.5 411t261.5 148q25 0 52 -5t47.5 -11t47.5 -19t42 -21t41 -25.5t34 -23t32.5 -24t25.5 -19.5l-49 -61q-2 2 -20.5 16t-31 23t-35.5 24.5t-43 25.5t-44.5 20.5t-49.5 16t-49 5.5q-119 0 -199.5 -131.5t-80.5 -349.5q0 -219 80.5 -351.5t199.5 -132.5 q24 0 49 5.5t49.5 16t44.5 20.5t43 25.5t35.5 24.5t31 23t20.5 16l49 -61q-101 -77 -162 -106q-70 -34 -135 -39q51 -84 51 -158q0 -71 -44.5 -114.5t-115.5 -43.5q-64 0 -123 35l27 72q23 -13 32 -17.5t23.5 -9t30.5 -4.5q47 0 75 26.5t28 79.5q0 63 -39 134 q-144 14 -241 161.5t-97 397.5z" />
<glyph unicode="&#xe8;" horiz-adv-x="976" d="M115 539q0 267 109.5 413t283.5 146q167 0 259.5 -127.5t92.5 -331.5q0 -33 -2.5 -65.5t-5.5 -49.5l-2 -16h-645q6 -204 83 -328.5t197 -124.5q45 0 92 14.5t97 45t72 45t65 47.5l53 -62q-111 -81 -171 -112q-110 -56 -208 -56q-158 0 -264 148.5t-106 413.5zM205 584 h567q4 223 -66.5 329.5t-199.5 106.5q-132 0 -212 -118t-89 -318zM268 1493h144l204 -256h-73z" />
<glyph unicode="&#xe9;" horiz-adv-x="976" d="M115 539q0 267 109.5 413t283.5 146q167 0 259.5 -127.5t92.5 -331.5q0 -33 -2.5 -65.5t-5.5 -49.5l-2 -16h-645q6 -204 83 -328.5t197 -124.5q45 0 92 14.5t97 45t72 45t65 47.5l53 -62q-111 -81 -171 -112q-110 -56 -208 -56q-158 0 -264 148.5t-106 413.5zM205 584 h567q4 223 -66.5 329.5t-199.5 106.5q-132 0 -212 -118t-89 -318zM393 1237l203 256h145l-274 -256h-74z" />
<glyph unicode="&#xea;" horiz-adv-x="976" d="M115 539q0 267 109.5 413t283.5 146q167 0 259.5 -127.5t92.5 -331.5q0 -33 -2.5 -65.5t-5.5 -49.5l-2 -16h-645q6 -204 83 -328.5t197 -124.5q45 0 92 14.5t97 45t72 45t65 47.5l53 -62q-111 -81 -171 -112q-110 -56 -208 -56q-158 0 -264 148.5t-106 413.5zM205 584 h567q4 223 -66.5 329.5t-199.5 106.5q-132 0 -212 -118t-89 -318zM285 1237l159 256h121l162 -256h-72l-151 190l-148 -190h-71z" />
<glyph unicode="&#xeb;" horiz-adv-x="976" d="M115 539q0 267 109.5 413t283.5 146q167 0 259.5 -127.5t92.5 -331.5q0 -33 -2.5 -65.5t-5.5 -49.5l-2 -16h-645q6 -204 83 -328.5t197 -124.5q45 0 92 14.5t97 45t72 45t65 47.5l53 -62q-111 -81 -171 -112q-110 -56 -208 -56q-158 0 -264 148.5t-106 413.5zM205 584 h567q4 223 -66.5 329.5t-199.5 106.5q-132 0 -212 -118t-89 -318zM313 1257v160h111v-160h-111zM584 1257v160h108v-160h-108z" />
<glyph unicode="&#xec;" horiz-adv-x="411" d="M-31 1493h144l204 -256h-73zM164 0v1075h84v-1075h-84z" />
<glyph unicode="&#xed;" horiz-adv-x="411" d="M96 1237l203 256h145l-274 -256h-74zM164 0v1075h84v-1075h-84z" />
<glyph unicode="&#xee;" horiz-adv-x="413" d="M-14 1237l159 256h121l162 -256h-72l-151 190l-148 -190h-71zM164 0v1075h84v-1075h-84z" />
<glyph unicode="&#xef;" horiz-adv-x="411" d="M16 1257v160h111v-160h-111zM164 0v1075h84v-1075h-84zM287 1257v160h108v-160h-108z" />
<glyph unicode="&#xf0;" d="M117 475q0 226 104.5 363t276.5 137q62 0 117 -18t88 -43.5t57.5 -51t34.5 -43.5l10 -18q-26 152 -96.5 292.5t-178.5 209.5l-135 -113h-112l176 147q-67 19 -109 19q-30 0 -61 -5t-47 -9l-15 -5l-20 72q61 25 145 25q91 0 174 -39l119 98h115l-164 -137 q143 -98 227 -307t84 -484q0 -136 -22 -240.5t-58 -169.5t-87.5 -106t-105 -56.5t-116.5 -15.5q-186 0 -293.5 135.5t-107.5 362.5zM205 475q0 -195 81 -307.5t226 -112.5q143 0 225 110t82 312t-79.5 311t-227.5 109q-146 0 -226.5 -114.5t-80.5 -307.5z" />
<glyph unicode="&#xf1;" horiz-adv-x="1021" d="M164 0v1075h84v-168q31 30 66 57.5t86.5 60.5t111 53t115.5 20q66 0 114 -24.5t74 -68t37.5 -94t11.5 -112.5v-799h-84v791q0 229 -168 229q-50 0 -107.5 -22.5t-107.5 -57.5t-86 -66t-63 -59v-815h-84zM274 1288q30 74 62 110t78 36q28 0 58 -16t52 -34.5t47 -34.5 t43 -16q22 0 39 18t43 76l60 -24q-33 -75 -64 -110.5t-78 -35.5q-35 0 -73.5 25.5t-71.5 50.5t-55 25t-39 -18t-43 -76z" />
<glyph unicode="&#xf2;" horiz-adv-x="1015" d="M115 537q0 262 102 411.5t291 149.5q188 0 289.5 -149.5t101.5 -411.5t-101.5 -411t-289.5 -149q-189 0 -291 149t-102 411zM203 537q0 -227 74 -354.5t231 -127.5q155 0 229 127.5t74 354.5t-74 355t-229 128q-157 0 -231 -128t-74 -355zM272 1493h144l205 -256h-74z " />
<glyph unicode="&#xf3;" horiz-adv-x="1015" d="M115 537q0 262 102 411.5t291 149.5q188 0 289.5 -149.5t101.5 -411.5t-101.5 -411t-289.5 -149q-189 0 -291 149t-102 411zM203 537q0 -227 74 -354.5t231 -127.5q155 0 229 127.5t74 354.5t-74 355t-229 128q-157 0 -231 -128t-74 -355zM397 1237l203 256h145 l-274 -256h-74z" />
<glyph unicode="&#xf4;" horiz-adv-x="1015" d="M115 537q0 262 102 411.5t291 149.5q188 0 289.5 -149.5t101.5 -411.5t-101.5 -411t-289.5 -149q-189 0 -291 149t-102 411zM203 537q0 -227 74 -354.5t231 -127.5q155 0 229 127.5t74 354.5t-74 355t-229 128q-157 0 -231 -128t-74 -355zM287 1237l159 256h121l162 -256 h-72l-151 190l-148 -190h-71z" />
<glyph unicode="&#xf5;" horiz-adv-x="1015" d="M115 537q0 262 102 411.5t291 149.5q188 0 289.5 -149.5t101.5 -411.5t-101.5 -411t-289.5 -149q-189 0 -291 149t-102 411zM203 537q0 -227 74 -354.5t231 -127.5q155 0 229 127.5t74 354.5t-74 355t-229 128q-157 0 -231 -128t-74 -355zM268 1288q30 74 62 110t78 36 q28 0 58 -16t52 -34.5t47 -34.5t43 -16q22 0 39 18t43 76l60 -24q-33 -75 -64 -110.5t-78 -35.5q-35 0 -73.5 25.5t-71.5 50.5t-55 25t-39 -18t-43 -76z" />
<glyph unicode="&#xf6;" horiz-adv-x="1015" d="M115 537q0 262 102 411.5t291 149.5q188 0 289.5 -149.5t101.5 -411.5t-101.5 -411t-289.5 -149q-189 0 -291 149t-102 411zM203 537q0 -227 74 -354.5t231 -127.5q155 0 229 127.5t74 354.5t-74 355t-229 128q-157 0 -231 -128t-74 -355zM317 1257v160h111v-160h-111z M588 1257v160h108v-160h-108z" />
<glyph unicode="&#xf7;" d="M98 643v78h832v-78h-832zM430 358q0 34 25.5 58t60.5 24q34 0 59 -24t25 -58q0 -35 -25 -59.5t-59 -24.5q-35 0 -60.5 24.5t-25.5 59.5zM430 1008q0 35 25.5 59.5t60.5 24.5q34 0 59 -24.5t25 -59.5q0 -34 -25 -58t-59 -24q-35 0 -60.5 24t-25.5 58z" />
<glyph unicode="&#xf8;" horiz-adv-x="1009" d="M113 537q0 262 102 411.5t291 149.5q146 0 246 -97l45 74h82l-82 -131q100 -148 100 -407q0 -262 -101.5 -411t-289.5 -149q-151 0 -246 95l-45 -72h-84l80 129q-98 143 -98 408zM201 537q0 -210 59 -328l447 721q-74 90 -201 90q-157 0 -231 -128t-74 -355zM303 143 q73 -88 203 -88q155 0 229 127.5t74 354.5q0 209 -59 327z" />
<glyph unicode="&#xf9;" horiz-adv-x="1021" d="M158 274v801h84v-792q0 -228 168 -228q66 0 145 40t130 81.5t89 81.5v817h84v-1075h-84v168q-70 -70 -172.5 -130.5t-206.5 -60.5q-66 0 -114 24.5t-74 67.5t-37.5 93.5t-11.5 111.5zM272 1493h144l205 -256h-74z" />
<glyph unicode="&#xfa;" horiz-adv-x="1021" d="M158 274v801h84v-792q0 -228 168 -228q66 0 145 40t130 81.5t89 81.5v817h84v-1075h-84v168q-70 -70 -172.5 -130.5t-206.5 -60.5q-66 0 -114 24.5t-74 67.5t-37.5 93.5t-11.5 111.5zM397 1237l203 256h145l-274 -256h-74z" />
<glyph unicode="&#xfb;" horiz-adv-x="1021" d="M158 274v801h84v-792q0 -228 168 -228q66 0 145 40t130 81.5t89 81.5v817h84v-1075h-84v168q-70 -70 -172.5 -130.5t-206.5 -60.5q-66 0 -114 24.5t-74 67.5t-37.5 93.5t-11.5 111.5zM287 1237l159 256h121l162 -256h-72l-151 190l-148 -190h-71z" />
<glyph unicode="&#xfc;" horiz-adv-x="1021" d="M158 274v801h84v-792q0 -228 168 -228q66 0 145 40t130 81.5t89 81.5v817h84v-1075h-84v168q-70 -70 -172.5 -130.5t-206.5 -60.5q-66 0 -114 24.5t-74 67.5t-37.5 93.5t-11.5 111.5zM317 1257v160h111v-160h-111zM588 1257v160h108v-160h-108z" />
<glyph unicode="&#xfd;" horiz-adv-x="925" d="M66 1075h94l303 -960l301 960h96l-498 -1493h-96l154 418zM352 1237l203 256h145l-274 -256h-74z" />
<glyph unicode="&#xfe;" horiz-adv-x="1015" d="M164 -418v1911h84v-573q147 178 319 178q54 0 102 -18.5t90.5 -61t73 -106.5t48.5 -159.5t18 -215.5q0 -148 -26.5 -259t-73.5 -175t-105 -95t-127 -31q-169 0 -319 177v-572h-84zM248 252q58 -84 141.5 -140.5t173.5 -56.5q121 0 184.5 128t63.5 354q0 227 -63.5 355 t-184.5 128q-90 0 -173.5 -56.5t-141.5 -140.5v-571z" />
<glyph unicode="&#xff;" horiz-adv-x="925" d="M66 1075h94l303 -960l301 960h96l-498 -1493h-96l154 418zM274 1257v160h111v-160h-111zM545 1257v160h108v-160h-108z" />
<glyph unicode="&#x100;" horiz-adv-x="1148" d="M68 0l460 1434h95l460 -1434h-96l-125 395h-577l-123 -395h-94zM311 477h527l-265 842zM336 1597v74h475v-74h-475z" />
<glyph unicode="&#x101;" horiz-adv-x="972" d="M104 315q0 92 25.5 162.5t69 111.5t96 61t111.5 20q28 0 62.5 -4t75 -13t66 -15t69.5 -18t52 -14v168q0 126 -43.5 186t-152.5 60q-49 0 -112.5 -17t-101 -31.5t-118.5 -49.5l-39 73q231 103 373 103q130 0 204 -73.5t74 -231.5v-793h-84v156q-160 -179 -338 -179 q-41 0 -79.5 9.5t-77.5 33.5t-67.5 61t-46.5 97t-18 137zM193 313q0 -130 56.5 -191t153.5 -61q96 0 175 50t153 137v289q-8 2 -55.5 13.5t-78.5 18.5t-77.5 14t-81.5 7q-68 0 -117.5 -23t-76 -63.5t-39 -87.5t-12.5 -103zM252 1288v74h475v-74h-475z" />
<glyph unicode="&#x102;" horiz-adv-x="1148" d="M68 0l460 1434h95l460 -1434h-96l-125 395h-577l-123 -395h-94zM311 477h527l-265 842zM354 1745h74q0 -123 145 -123q150 0 150 123h72q0 -91 -59 -145t-163 -54q-102 0 -160.5 54t-58.5 145z" />
<glyph unicode="&#x103;" horiz-adv-x="972" d="M104 315q0 92 25.5 162.5t69 111.5t96 61t111.5 20q28 0 62.5 -4t75 -13t66 -15t69.5 -18t52 -14v168q0 126 -43.5 186t-152.5 60q-49 0 -112.5 -17t-101 -31.5t-118.5 -49.5l-39 73q231 103 373 103q130 0 204 -73.5t74 -231.5v-793h-84v156q-160 -179 -338 -179 q-41 0 -79.5 9.5t-77.5 33.5t-67.5 61t-46.5 97t-18 137zM193 313q0 -130 56.5 -191t153.5 -61q96 0 175 50t153 137v289q-8 2 -55.5 13.5t-78.5 18.5t-77.5 14t-81.5 7q-68 0 -117.5 -23t-76 -63.5t-39 -87.5t-12.5 -103zM272 1436h74q0 -123 146 -123q149 0 149 123h72 q0 -92 -59 -145.5t-162 -53.5q-102 0 -161 54t-59 145z" />
<glyph unicode="&#x104;" horiz-adv-x="1148" d="M68 0l460 1434h95l460 -1434h-6q-4 -3 -28 -19.5t-33.5 -24t-30.5 -24t-30.5 -29t-22.5 -30t-18 -35.5t-5 -37q0 -13 3 -24t6.5 -19t11 -14.5t13 -10.5t16.5 -7t17 -4.5t19 -2t17.5 -0.5h18.5h16l-15 -77q-28 0 -46 1t-51.5 8.5t-54 22t-37 44t-16.5 71.5q0 115 166 211 h-6l-125 395h-577l-123 -395h-94zM311 477h527l-265 842z" />
<glyph unicode="&#x105;" horiz-adv-x="972" d="M104 315q0 92 25.5 162.5t69 111.5t96 61t111.5 20q28 0 62.5 -4t75 -13t66 -15t69.5 -18t52 -14v168q0 126 -43.5 186t-152.5 60q-49 0 -112.5 -17t-101 -31.5t-118.5 -49.5l-39 73q231 103 373 103q130 0 204 -73.5t74 -231.5v-793h-6q-4 -3 -28 -19.5t-33.5 -24 t-30.5 -24t-30.5 -29t-22.5 -30t-18 -35.5t-5 -37q0 -13 3 -24t6.5 -19t11 -14.5t13 -10.5t16.5 -7l16.5 -4.5t18.5 -2t17.5 -0.5h18.5h16l-14 -77q-28 0 -46 1t-51.5 8.5t-54 22t-37 44t-16.5 71.5q0 61 48 116.5t124 96.5v154q-160 -179 -338 -179q-41 0 -79.5 9.5 t-77.5 33.5t-67.5 61t-46.5 97t-18 137zM193 313q0 -130 56.5 -191t153.5 -61q96 0 175 50t153 137v289q-8 2 -55.5 13.5t-78.5 18.5t-77.5 14t-81.5 7q-68 0 -117.5 -23t-76 -63.5t-39 -87.5t-12.5 -103z" />
<glyph unicode="&#x106;" horiz-adv-x="1101" d="M135 717q0 153 24 277.5t66 209.5t99.5 142.5t122.5 83.5t137 26q111 0 212.5 -58t213.5 -155l-58 -59q-45 38 -76 62.5t-83 58.5t-104.5 51.5t-102.5 17.5q-158 0 -258.5 -175t-100.5 -482t100.5 -482.5t258.5 -175.5q50 0 102 17t105.5 53t82.5 58t78 63l56 -60 q-112 -97 -213.5 -155t-212.5 -58q-91 0 -170 43t-142.5 129.5t-100 232t-36.5 335.5zM535 1546l202 256h146l-275 -256h-73z" />
<glyph unicode="&#x107;" horiz-adv-x="890" d="M115 539q0 263 106.5 411t261.5 148q25 0 52 -5t47.5 -11t47.5 -19t42 -21t41 -25.5t34 -23t32.5 -24t25.5 -19.5l-49 -61q-2 2 -20.5 16t-31 23t-35.5 24.5t-43 25.5t-44.5 20.5t-49.5 16t-49 5.5q-119 0 -199.5 -131.5t-80.5 -349.5q0 -219 80.5 -351.5t199.5 -132.5 q24 0 49 5.5t49.5 16t44.5 20.5t43 25.5t35.5 24.5t31 23t20.5 16l49 -61q-1 -1 -25.5 -19.5t-32.5 -24t-34 -23t-41 -25.5t-42 -21t-47.5 -19t-47.5 -11t-52 -5q-155 0 -261.5 149.5t-106.5 412.5zM375 1237l203 256h145l-274 -256h-74z" />
<glyph unicode="&#x10a;" horiz-adv-x="1101" d="M135 717q0 153 24 277.5t66 209.5t99.5 142.5t122.5 83.5t137 26q111 0 212.5 -58t213.5 -155l-58 -59q-45 38 -76 62.5t-83 58.5t-104.5 51.5t-102.5 17.5q-158 0 -258.5 -175t-100.5 -482t100.5 -482.5t258.5 -175.5q50 0 102 17t105.5 53t82.5 58t78 63l56 -60 q-112 -97 -213.5 -155t-212.5 -58q-91 0 -170 43t-142.5 129.5t-100 232t-36.5 335.5zM537 1567v159h108v-159h-108z" />
<glyph unicode="&#x10b;" horiz-adv-x="890" d="M115 539q0 263 106.5 411t261.5 148q25 0 52 -5t47.5 -11t47.5 -19t42 -21t41 -25.5t34 -23t32.5 -24t25.5 -19.5l-49 -61q-2 2 -20.5 16t-31 23t-35.5 24.5t-43 25.5t-44.5 20.5t-49.5 16t-49 5.5q-119 0 -199.5 -131.5t-80.5 -349.5q0 -219 80.5 -351.5t199.5 -132.5 q24 0 49 5.5t49.5 16t44.5 20.5t43 25.5t35.5 24.5t31 23t20.5 16l49 -61q-1 -1 -25.5 -19.5t-32.5 -24t-34 -23t-41 -25.5t-42 -21t-47.5 -19t-47.5 -11t-52 -5q-155 0 -261.5 149.5t-106.5 412.5zM430 1257v160h109v-160h-109z" />
<glyph unicode="&#x10c;" horiz-adv-x="1101" d="M135 717q0 153 24 277.5t66 209.5t99.5 142.5t122.5 83.5t137 26q111 0 212.5 -58t213.5 -155l-58 -59q-45 38 -76 62.5t-83 58.5t-104.5 51.5t-102.5 17.5q-158 0 -258.5 -175t-100.5 -482t100.5 -482.5t258.5 -175.5q50 0 102 17t105.5 53t82.5 58t78 63l56 -60 q-112 -97 -213.5 -155t-212.5 -58q-91 0 -170 43t-142.5 129.5t-100 232t-36.5 335.5zM387 1802h72l147 -190l152 190h71l-161 -256h-121z" />
<glyph unicode="&#x10d;" horiz-adv-x="890" d="M115 539q0 263 106.5 411t261.5 148q25 0 52 -5t47.5 -11t47.5 -19t42 -21t41 -25.5t34 -23t32.5 -24t25.5 -19.5l-49 -61q-2 2 -20.5 16t-31 23t-35.5 24.5t-43 25.5t-44.5 20.5t-49.5 16t-49 5.5q-119 0 -199.5 -131.5t-80.5 -349.5q0 -219 80.5 -351.5t199.5 -132.5 q24 0 49 5.5t49.5 16t44.5 20.5t43 25.5t35.5 24.5t31 23t20.5 16l49 -61q-1 -1 -25.5 -19.5t-32.5 -24t-34 -23t-41 -25.5t-42 -21t-47.5 -19t-47.5 -11t-52 -5q-155 0 -261.5 149.5t-106.5 412.5zM264 1493h72l147 -190l152 190h72l-162 -256h-121z" />
<glyph unicode="&#x10e;" horiz-adv-x="1196" d="M197 0v1434h303q131 0 232.5 -40.5t176 -125.5t113.5 -223.5t39 -327.5t-39 -327.5t-113.5 -223.5t-176 -125.5t-232.5 -40.5h-303zM285 82h215q243 0 355 156t112 479t-112 479t-355 156h-215v-1270zM408 1802h71l148 -190l151 190h72l-162 -256h-121z" />
<glyph unicode="&#x10f;" horiz-adv-x="1026" d="M117 537q0 120 17.5 215.5t48 159.5t73 106.5t90.5 61t103 18.5q168 0 319 -178v573h84v-1493h-84v154q-154 -177 -319 -177q-55 0 -103 18.5t-90.5 61.5t-73 106.5t-48 159t-17.5 214.5zM205 537q0 -226 63 -354t185 -128q88 0 171.5 57t143.5 140v571 q-60 83 -143.5 140t-171.5 57q-122 0 -185 -127.5t-63 -355.5zM946 1147l64 180h-52v166h109l16 -166l-98 -217z" />
<glyph unicode="&#x110;" horiz-adv-x="1200" d="M72 676v82h129v676h303q131 0 232.5 -40.5t176 -125.5t113.5 -223.5t39 -327.5t-39 -327.5t-113.5 -223.5t-176 -125.5t-232.5 -40.5h-303v676h-129zM289 82h215q243 0 355 156t112 479t-112 479t-355 156h-215v-594h299v-82h-299v-594z" />
<glyph unicode="&#x111;" horiz-adv-x="1015" d="M117 537q0 120 17.5 215.5t48 159.5t73 106.5t90.5 61t103 18.5q168 0 319 -178v317h-285v74h285v182h84v-182h113v-74h-113v-1237h-84v154q-154 -177 -319 -177q-55 0 -103 18.5t-90.5 61.5t-73 106.5t-48 159t-17.5 214.5zM205 537q0 -226 63 -354t185 -128 q88 0 171.5 57t143.5 140v571q-60 83 -143.5 140t-171.5 57q-122 0 -185 -127.5t-63 -355.5z" />
<glyph unicode="&#x112;" horiz-adv-x="1019" d="M197 0v1434h698v-82h-610v-594h508v-82h-508v-594h620v-82h-708zM311 1597v74h475v-74h-475z" />
<glyph unicode="&#x113;" horiz-adv-x="976" d="M115 539q0 267 109.5 413t283.5 146q167 0 259.5 -127.5t92.5 -331.5q0 -33 -2.5 -65.5t-5.5 -49.5l-2 -16h-645q6 -204 83 -328.5t197 -124.5q45 0 92 14.5t97 45t72 45t65 47.5l53 -62q-111 -81 -171 -112q-110 -56 -208 -56q-158 0 -264 148.5t-106 413.5zM205 584 h567q4 223 -66.5 329.5t-199.5 106.5q-132 0 -212 -118t-89 -318zM270 1288v74h475v-74h-475z" />
<glyph unicode="&#x116;" horiz-adv-x="1019" d="M197 0v1434h698v-82h-610v-594h508v-82h-508v-594h620v-82h-708zM496 1567v159h108v-159h-108z" />
<glyph unicode="&#x117;" horiz-adv-x="976" d="M115 539q0 267 109.5 413t283.5 146q167 0 259.5 -127.5t92.5 -331.5q0 -33 -2.5 -65.5t-5.5 -49.5l-2 -16h-645q6 -204 83 -328.5t197 -124.5q45 0 92 14.5t97 45t72 45t65 47.5l53 -62q-111 -81 -171 -112q-110 -56 -208 -56q-158 0 -264 148.5t-106 413.5zM205 584 h567q4 223 -66.5 329.5t-199.5 106.5q-132 0 -212 -118t-89 -318zM451 1257v160h108v-160h-108z" />
<glyph unicode="&#x118;" horiz-adv-x="1019" d="M197 0v1434h698v-82h-610v-594h508v-82h-508v-594h620v-82h-4q-4 -3 -28 -19.5t-33.5 -24t-30.5 -24t-30.5 -29t-22.5 -30t-18 -35.5t-5 -37q0 -13 3 -24t6.5 -19t11 -14.5t13 -10.5t16.5 -7l16.5 -4.5t18.5 -2t17.5 -0.5h18.5h16l-14 -77q-28 0 -46 1t-51.5 8.5t-54 22 t-37 44t-16.5 71.5q0 115 166 211h-620z" />
<glyph unicode="&#x119;" horiz-adv-x="976" d="M115 539q0 267 109.5 413t283.5 146q167 0 259.5 -127.5t92.5 -331.5q0 -33 -2.5 -65.5t-5.5 -49.5l-2 -16h-645q6 -204 83 -328.5t197 -124.5q45 0 92 14.5t97 45t72 45t65 47.5l53 -62q-151 -114 -260 -147q-3 -2 -24.5 -17.5t-28 -20t-26 -20t-27.5 -24.5t-22 -24.5 t-20 -28.5t-11 -29.5t-5 -32.5q0 -13 3 -24t6.5 -19t11 -14.5t13 -10.5t16.5 -7t17 -4.5t19 -2t17.5 -0.5h18.5h16l-15 -77q-28 0 -46 1t-51.5 8.5t-54 22t-37 44t-16.5 71.5q0 52 35.5 100.5t95.5 87.5h-4q-158 0 -264 148.5t-106 413.5zM205 584h567q4 223 -66.5 329.5 t-199.5 106.5q-132 0 -212 -118t-89 -318z" />
<glyph unicode="&#x11a;" horiz-adv-x="1019" d="M197 0v1434h698v-82h-610v-594h508v-82h-508v-594h620v-82h-708zM330 1782h71l148 -191l151 191h72l-162 -256h-121z" />
<glyph unicode="&#x11b;" horiz-adv-x="976" d="M115 539q0 267 109.5 413t283.5 146q167 0 259.5 -127.5t92.5 -331.5q0 -33 -2.5 -65.5t-5.5 -49.5l-2 -16h-645q6 -204 83 -328.5t197 -124.5q45 0 92 14.5t97 45t72 45t65 47.5l53 -62q-111 -81 -171 -112q-110 -56 -208 -56q-158 0 -264 148.5t-106 413.5zM205 584 h567q4 223 -66.5 329.5t-199.5 106.5q-132 0 -212 -118t-89 -318zM285 1493h71l148 -190l151 190h72l-162 -256h-121z" />
<glyph unicode="&#x11e;" horiz-adv-x="1200" d="M135 717q0 190 37 335.5t100.5 231.5t142.5 129t169 43q64 0 127.5 -19.5t121 -56t101 -71.5t92.5 -82l-57 -62q-111 98 -172 137q-114 72 -211 72q-158 0 -258.5 -175t-100.5 -482q0 -304 100.5 -481t258.5 -177q170 0 377 238v377h-349v82h435v-756h-86v182 q-90 -92 -182.5 -148.5t-196.5 -56.5q-90 0 -169 43t-142.5 129.5t-100.5 232t-37 335.5zM375 1745h74q0 -123 145 -123q149 0 149 123h72q0 -92 -59 -145.5t-162 -53.5q-102 0 -160.5 54t-58.5 145z" />
<glyph unicode="&#x11f;" horiz-adv-x="1015" d="M117 537q0 120 17.5 215.5t48 159.5t73 106.5t90.5 61t103 18.5q168 0 319 -178v155h84v-1175q0 -338 -311 -338q-172 0 -385 71l26 82q222 -75 355 -75q231 0 231 260v254q-154 -177 -319 -177q-55 0 -103 18.5t-90.5 61.5t-73 106.5t-48 159t-17.5 214.5zM205 537 q0 -226 63 -354t185 -128q88 0 171.5 57t143.5 140v571q-60 83 -143.5 140t-171.5 57q-122 0 -185 -127.5t-63 -355.5zM287 1436h73q0 -123 146 -123q149 0 149 123h72q0 -92 -59 -145.5t-162 -53.5q-102 0 -160.5 54t-58.5 145z" />
<glyph unicode="&#x120;" horiz-adv-x="1200" d="M135 717q0 190 37 335.5t100.5 231.5t142.5 129t169 43q64 0 127.5 -19.5t121 -56t101 -71.5t92.5 -82l-57 -62q-111 98 -172 137q-114 72 -211 72q-158 0 -258.5 -175t-100.5 -482q0 -304 100.5 -481t258.5 -177q170 0 377 238v377h-349v82h435v-756h-86v182 q-90 -92 -182.5 -148.5t-196.5 -56.5q-90 0 -169 43t-142.5 129.5t-100.5 232t-37 335.5zM539 1567v159h108v-159h-108z" />
<glyph unicode="&#x121;" horiz-adv-x="1015" d="M117 537q0 120 17.5 215.5t48 159.5t73 106.5t90.5 61t103 18.5q168 0 319 -178v155h84v-1175q0 -338 -311 -338q-172 0 -385 71l26 82q222 -75 355 -75q231 0 231 260v254q-154 -177 -319 -177q-55 0 -103 18.5t-90.5 61.5t-73 106.5t-48 159t-17.5 214.5zM205 537 q0 -226 63 -354t185 -128q88 0 171.5 57t143.5 140v571q-60 83 -143.5 140t-171.5 57q-122 0 -185 -127.5t-63 -355.5zM451 1257v160h108v-160h-108z" />
<glyph unicode="&#x122;" horiz-adv-x="1200" d="M135 717q0 190 37 335.5t100.5 231.5t142.5 129t169 43q64 0 127.5 -19.5t121 -56t101 -71.5t92.5 -82l-57 -62q-111 98 -172 137q-114 72 -211 72q-158 0 -258.5 -175t-100.5 -482q0 -304 100.5 -481t258.5 -177q170 0 377 238v377h-349v82h435v-756h-86v182 q-90 -92 -182.5 -148.5t-196.5 -56.5q-90 0 -169 43t-142.5 129.5t-100.5 232t-37 335.5zM561 -483l64 180h-52v166h109l16 -166l-98 -217z" />
<glyph unicode="&#x123;" horiz-adv-x="1015" d="M117 537q0 120 17.5 215.5t48 159.5t73 106.5t90.5 61t103 18.5q168 0 319 -178v155h84v-1175q0 -338 -311 -338q-172 0 -385 71l26 82q222 -75 355 -75q231 0 231 260v254q-154 -177 -319 -177q-55 0 -103 18.5t-90.5 61.5t-73 106.5t-48 159t-17.5 214.5zM205 537 q0 -226 63 -354t185 -128q88 0 171.5 57t143.5 140v571q-60 83 -143.5 140t-171.5 57q-122 0 -185 -127.5t-63 -355.5zM434 1423l98 217l39 -36l-63 -181h51v-166h-108z" />
<glyph unicode="&#x126;" horiz-adv-x="1241" d="M82 1071v74h127v289h88v-289h645v289h90v-289h127v-74h-127v-1071h-90v711h-645v-711h-88v1071h-127zM297 793h645v278h-645v-278z" />
<glyph unicode="&#x127;" horiz-adv-x="1021" d="M51 1237v74h113v182h84v-182h284v-74h-284v-330q31 30 66 57.5t86.5 60.5t111 53t115.5 20q66 0 114 -24.5t74 -68t37.5 -94t11.5 -112.5v-799h-84v791q0 229 -168 229q-50 0 -107.5 -22.5t-107.5 -57.5t-86 -66t-63 -59v-815h-84v1237h-113z" />
<glyph unicode="&#x128;" horiz-adv-x="481" d="M0 1597q31 74 62 110t77 36q35 0 73.5 -25.5t72 -50.5t55.5 -25t39 18.5t43 76.5l59 -25q-33 -75 -63.5 -110t-77.5 -35q-35 0 -73.5 25t-72 50t-55.5 25t-39 -18t-43 -76zM197 0v1434h88v-1434h-88z" />
<glyph unicode="&#x129;" horiz-adv-x="413" d="M-35 1288q31 74 62 110t77 36q28 0 58.5 -16t52.5 -34.5t47 -34.5t43 -16q22 0 39 18t43 76l59 -24q-33 -76 -63.5 -111t-77.5 -35q-35 0 -73.5 25.5t-72 50.5t-55.5 25t-38.5 -18t-42.5 -76zM164 0v1075h84v-1075h-84z" />
<glyph unicode="&#x12a;" horiz-adv-x="481" d="M2 1597v74h475v-74h-475zM197 0v1434h88v-1434h-88z" />
<glyph unicode="&#x12b;" horiz-adv-x="413" d="M-33 1288v74h475v-74h-475zM164 0v1075h84v-1075h-84z" />
<glyph unicode="&#x12c;" horiz-adv-x="481" d="M20 1745h74q0 -123 146 -123q149 0 149 123h72q0 -92 -59 -145.5t-162 -53.5q-102 0 -161 54t-59 145zM197 0v1434h88v-1434h-88z" />
<glyph unicode="&#x12d;" horiz-adv-x="413" d="M-14 1436h73q0 -123 146 -123q149 0 149 123h72q0 -92 -59 -145.5t-162 -53.5q-102 0 -160.5 54t-58.5 145zM164 0v1075h84v-1075h-84z" />
<glyph unicode="&#x12e;" horiz-adv-x="481" d="M29 -211q0 114 168 211v1434h88v-1434h-6q-4 -3 -28 -19.5t-33.5 -24t-30.5 -24t-30.5 -29t-22.5 -30t-18 -35.5t-5 -37q0 -13 3 -24t6.5 -19t11 -14.5t13 -10.5t16.5 -7l16.5 -4.5t18.5 -2t17.5 -0.5h18.5h16l-15 -77q-23 0 -37 1t-42 4.5t-46.5 13t-38.5 25t-30 42 t-10 61.5z" />
<glyph unicode="&#x12f;" horiz-adv-x="411" d="M-6 -211q0 60 47 115t123 96v1075h84v-1075h-4q-4 -3 -28 -19.5t-33.5 -24t-30.5 -24t-30.5 -29t-22.5 -30t-18 -35.5t-5 -37q0 -13 3 -24t6.5 -19t11 -14.5t13 -10.5t16.5 -7l16.5 -4.5t18.5 -2t17.5 -0.5h18.5h16l-14 -77q-28 0 -46 1t-51.5 8.5t-54 22t-37 44 t-16.5 71.5zM156 1327v160h100v-160h-100z" />
<glyph unicode="&#x130;" horiz-adv-x="479" d="M186 1567v159h109v-159h-109zM197 0v1434h88v-1434h-88z" />
<glyph unicode="&#x131;" horiz-adv-x="413" d="M164 0v1075h84v-1075h-84z" />
<glyph unicode="&#x132;" horiz-adv-x="960" d="M197 0v1434h88v-1434h-88zM477 -188q40 16 65.5 26.5t49 24t36 21.5t23.5 25t15 27t7 35.5t3 42v54.5v1366h88v-1366v-54.5t-2 -46t-5 -41t-9.5 -34t-15.5 -32t-23 -26.5t-32 -26t-43 -23.5t-55 -24.5t-69 -24z" />
<glyph unicode="&#x133;" horiz-adv-x="811" d="M156 1327v160h100v-160h-100zM164 0v1075h84v-1075h-84zM367 -346q40 16 65 26.5t48.5 24.5t35.5 21.5t22.5 25t14.5 27t7 36.5t3 43v56v1161h84v-1161q0 -72 -2.5 -102.5t-13.5 -71.5t-38.5 -62t-74 -45.5t-123.5 -50.5zM555 1327v160h100v-160h-100z" />
<glyph unicode="&#x134;" horiz-adv-x="479" d="M-2 -188q40 16 65.5 26.5t49 24t36 21.5t23.5 25t15 27t7 35.5t3 42v54.5v1366h88v-1366v-54.5t-2 -46t-5 -41t-9.5 -34t-15.5 -32t-23 -26.5t-32 -26t-43 -23.5t-55 -24.5t-69 -24zM18 1546l160 256h121l162 -256h-72l-151 191l-148 -191h-72z" />
<glyph unicode="&#x135;" horiz-adv-x="411" d="M-33 -346q40 16 65.5 26.5t48.5 24.5t35 21.5t23 25t15 27.5t7 36t3 43v56v1161h84v-1161q0 -72 -2.5 -102.5t-13.5 -71.5t-38.5 -62t-74 -45.5t-123.5 -50.5zM-14 1237l159 256h121l162 -256h-72l-151 190l-148 -190h-71z" />
<glyph unicode="&#x136;" horiz-adv-x="1097" d="M197 0v1434h88v-869l598 869h106l-483 -693l545 -741h-111l-485 670l-170 -246v-424h-88zM483 -483l64 180h-51v166h108l17 -166l-99 -217z" />
<glyph unicode="&#x137;" horiz-adv-x="862" d="M164 0v1493h84v-1051l416 633h98l-303 -440l356 -635h-92l-313 561l-162 -237v-324h-84zM385 -483l64 180h-52v166h109l16 -166l-98 -217z" />
<glyph unicode="&#x138;" horiz-adv-x="862" d="M164 0v1075h84v-633l416 633h98l-303 -440l356 -635h-92l-313 561l-162 -237v-324h-84z" />
<glyph unicode="&#x139;" horiz-adv-x="931" d="M129 1546l203 256h145l-274 -256h-74zM197 0v1434h88v-1352h592v-82h-680z" />
<glyph unicode="&#x13a;" horiz-adv-x="434" d="M106 1606l203 256h146l-275 -256h-74zM176 0v1493h84v-1493h-84z" />
<glyph unicode="&#x13b;" horiz-adv-x="931" d="M197 0v1434h88v-1352h592v-82h-680zM469 -483l63 180h-51v166h109l16 -166l-98 -217z" />
<glyph unicode="&#x13c;" horiz-adv-x="436" d="M152 -483l63 180h-51v166h108l17 -166l-99 -217zM176 0v1493h84v-1493h-84z" />
<glyph unicode="&#x13d;" horiz-adv-x="931" d="M197 0v1434h88v-1352h592v-82h-680zM379 1087l63 181h-51v166h109l16 -166l-98 -217z" />
<glyph unicode="&#x13e;" horiz-adv-x="436" d="M176 0v1493h84v-1493h-84zM354 1147l64 180h-51v166h108l17 -166l-99 -217z" />
<glyph unicode="&#x13f;" horiz-adv-x="935" d="M197 0v1434h88v-1352h592v-82h-680zM659 657v160h109v-160h-109z" />
<glyph unicode="&#x140;" horiz-adv-x="430" d="M176 0v1493h84v-1493h-84zM369 657v160h108v-160h-108z" />
<glyph unicode="&#x141;" horiz-adv-x="946" d="M84 512v100l127 82v740h88v-682l233 151v-100l-233 -152v-569h592v-82h-680v594z" />
<glyph unicode="&#x142;" horiz-adv-x="471" d="M76 592v100l121 78v723h84v-668l116 76v-100l-116 -76v-725h-84v670z" />
<glyph unicode="&#x143;" horiz-adv-x="1241" d="M197 0v1434h92l669 -1274v1274h89v-1434h-95l-667 1270v-1270h-88zM520 1546l203 256h145l-274 -256h-74z" />
<glyph unicode="&#x144;" horiz-adv-x="1021" d="M164 0v1075h84v-168q31 30 66 57.5t86.5 60.5t111 53t115.5 20q66 0 114 -24.5t74 -68t37.5 -94t11.5 -112.5v-799h-84v791q0 229 -168 229q-50 0 -107.5 -22.5t-107.5 -57.5t-86 -66t-63 -59v-815h-84zM403 1237l203 256h146l-275 -256h-74z" />
<glyph unicode="&#x145;" horiz-adv-x="1241" d="M197 0v1434h92l669 -1274v1274h89v-1434h-95l-667 1270v-1270h-88zM563 -483l64 180h-52v166h109l16 -166l-98 -217z" />
<glyph unicode="&#x146;" horiz-adv-x="1021" d="M164 0v1075h84v-168q31 30 66 57.5t86.5 60.5t111 53t115.5 20q66 0 114 -24.5t74 -68t37.5 -94t11.5 -112.5v-799h-84v791q0 229 -168 229q-50 0 -107.5 -22.5t-107.5 -57.5t-86 -66t-63 -59v-815h-84zM446 -483l64 180h-51v166h108l17 -166l-99 -217z" />
<glyph unicode="&#x147;" horiz-adv-x="1241" d="M197 0v1434h92l669 -1274v1274h89v-1434h-95l-667 1270v-1270h-88zM410 1802h71l148 -190l151 190h72l-162 -256h-121z" />
<glyph unicode="&#x148;" horiz-adv-x="1021" d="M164 0v1075h84v-168q31 30 66 57.5t86.5 60.5t111 53t115.5 20q66 0 114 -24.5t74 -68t37.5 -94t11.5 -112.5v-799h-84v791q0 229 -168 229q-50 0 -107.5 -22.5t-107.5 -57.5t-86 -66t-63 -59v-815h-84zM289 1493h71l148 -190l151 190h72l-162 -256h-120z" />
<glyph unicode="&#x149;" horiz-adv-x="1021" d="M152 1237l63 180h-51v166h108l17 -166l-99 -217zM164 0v1075h84v-168q31 30 66 57.5t86.5 60.5t111 53t115.5 20q66 0 114 -24.5t74 -68t37.5 -94t11.5 -112.5v-799h-84v791q0 229 -168 229q-50 0 -107.5 -22.5t-107.5 -57.5t-86 -66t-63 -59v-815h-84z" />
<glyph unicode="&#x14a;" horiz-adv-x="1241" d="M197 0v1434h92l669 -1274v1274h89v-1366q0 -87 -4 -124t-28.5 -80.5t-75.5 -69.5t-146 -58l-33 76q122 48 157 79.5t39 100.5l-671 1278v-1270h-88z" />
<glyph unicode="&#x14b;" horiz-adv-x="1019" d="M164 0v1075h84v-168q31 30 66 57.5t86.5 60.5t111 53t115.5 20q66 0 114 -24.5t74 -68t37.5 -94t11.5 -112.5v-887q0 -88 -3.5 -123.5t-28 -79t-74.5 -69t-146 -58.5l-28 72q32 13 53.5 22t42.5 20t33.5 17t24.5 19t18 18.5t11.5 22.5t7.5 25.5t3.5 32t1.5 37v46.5v877 q0 229 -168 229q-50 0 -107.5 -22.5t-107.5 -57.5t-86 -66t-63 -59v-815h-84z" />
<glyph unicode="&#x14c;" horiz-adv-x="1251" d="M135 717q0 126 15.5 233t51.5 202t91.5 161t140 104.5t191.5 38.5t191.5 -38.5t139.5 -104.5t91 -161t51.5 -202t15.5 -233q0 -125 -15.5 -232t-51.5 -202t-91 -162t-139.5 -105.5t-191.5 -38.5t-191.5 38.5t-140 105.5t-91.5 162t-51.5 202t-15.5 232zM227 717 q0 -113 12 -207.5t40.5 -179.5t73.5 -143.5t114 -93t158 -34.5q397 0 397 658q0 657 -397 657q-89 0 -158 -34t-114 -93t-73.5 -144t-40.5 -179t-12 -207zM387 1597v74h475v-74h-475z" />
<glyph unicode="&#x14d;" horiz-adv-x="1015" d="M115 537q0 262 102 411.5t291 149.5q188 0 289.5 -149.5t101.5 -411.5t-101.5 -411t-289.5 -149q-189 0 -291 149t-102 411zM203 537q0 -227 74 -354.5t231 -127.5q155 0 229 127.5t74 354.5t-74 355t-229 128q-157 0 -231 -128t-74 -355zM270 1288v74h475v-74h-475z" />
<glyph unicode="&#x14e;" horiz-adv-x="1251" d="M135 717q0 126 15.5 233t51.5 202t91.5 161t140 104.5t191.5 38.5t191.5 -38.5t139.5 -104.5t91 -161t51.5 -202t15.5 -233q0 -125 -15.5 -232t-51.5 -202t-91 -162t-139.5 -105.5t-191.5 -38.5t-191.5 38.5t-140 105.5t-91.5 162t-51.5 202t-15.5 232zM227 717 q0 -113 12 -207.5t40.5 -179.5t73.5 -143.5t114 -93t158 -34.5q397 0 397 658q0 657 -397 657q-89 0 -158 -34t-114 -93t-73.5 -144t-40.5 -179t-12 -207zM403 1745h74q0 -123 146 -123q149 0 149 123h72q0 -92 -59 -145.5t-162 -53.5q-102 0 -161 54t-59 145z" />
<glyph unicode="&#x14f;" horiz-adv-x="1015" d="M115 537q0 262 102 411.5t291 149.5q188 0 289.5 -149.5t101.5 -411.5t-101.5 -411t-289.5 -149q-189 0 -291 149t-102 411zM203 537q0 -227 74 -354.5t231 -127.5q155 0 229 127.5t74 354.5t-74 355t-229 128q-157 0 -231 -128t-74 -355zM287 1436h73q0 -123 146 -123 q149 0 149 123h72q0 -92 -59 -145.5t-162 -53.5q-102 0 -160.5 54t-58.5 145z" />
<glyph unicode="&#x150;" horiz-adv-x="1251" d="M135 717q0 126 15.5 233t51.5 202t91.5 161t140 104.5t191.5 38.5t191.5 -38.5t139.5 -104.5t91 -161t51.5 -202t15.5 -233q0 -125 -15.5 -232t-51.5 -202t-91 -162t-139.5 -105.5t-191.5 -38.5t-191.5 38.5t-140 105.5t-91.5 162t-51.5 202t-15.5 232zM227 717 q0 -113 12 -207.5t40.5 -179.5t73.5 -143.5t114 -93t158 -34.5q397 0 397 658q0 657 -397 657q-89 0 -158 -34t-114 -93t-73.5 -144t-40.5 -179t-12 -207zM449 1546l129 256h129l-199 -256h-59zM682 1546l127 256h129l-199 -256h-57z" />
<glyph unicode="&#x151;" horiz-adv-x="1015" d="M115 537q0 262 102 411.5t291 149.5q188 0 289.5 -149.5t101.5 -411.5t-101.5 -411t-289.5 -149q-189 0 -291 149t-102 411zM203 537q0 -227 74 -354.5t231 -127.5q155 0 229 127.5t74 354.5t-74 355t-229 128q-157 0 -231 -128t-74 -355zM330 1237l129 256h129 l-199 -256h-59zM563 1237l127 256h129l-198 -256h-58z" />
<glyph unicode="&#x152;" horiz-adv-x="1853" d="M135 717q0 126 15.5 233t51.5 202t91.5 161t140 104.5t191.5 38.5q284 0 405 -264v242h699v-82h-611v-594h508v-82h-508v-594h621v-82h-709v242q-121 -265 -405 -265q-107 0 -191.5 38.5t-140 105.5t-91.5 162t-51.5 202t-15.5 232zM227 717q0 -113 12 -207.5 t40.5 -179.5t73.5 -143.5t114 -93t158 -34.5q397 0 397 658q0 657 -397 657q-89 0 -158 -34t-114 -93t-73.5 -144t-40.5 -179t-12 -207z" />
<glyph unicode="&#x153;" horiz-adv-x="1675" d="M115 537q0 262 102 411.5t291 149.5q128 0 216.5 -72t133.5 -205q47 135 138.5 206t211.5 71q167 0 260 -127.5t93 -331.5q0 -33 -2.5 -65.5t-5.5 -49.5l-3 -16h-645q6 -204 83.5 -328.5t197.5 -124.5q37 0 79 12.5t70 25t71.5 40.5t55.5 37t49 37l54 -62 q-111 -81 -171 -112q-110 -56 -208 -56q-107 0 -194.5 71.5t-133.5 203.5q-45 -133 -133.5 -204t-216.5 -71q-189 0 -291 149t-102 411zM203 537q0 -227 74 -354.5t231 -127.5q155 0 229 127.5t74 354.5t-74 355t-229 128q-157 0 -231 -128t-74 -355zM905 584h568 q4 223 -67 329.5t-200 106.5q-132 0 -212 -118t-89 -318z" />
<glyph unicode="&#x154;" horiz-adv-x="1165" d="M197 0v1434h403q74 0 136.5 -12t120 -40.5t97 -73t63 -113.5t23.5 -157q0 -183 -92.5 -276.5t-245.5 -114.5l338 -647h-100l-328 643h-327v-643h-88zM285 725h315q161 0 254.5 76t93.5 237t-92 237.5t-246 76.5h-325v-627zM508 1546l203 256h145l-274 -256h-74z" />
<glyph unicode="&#x155;" horiz-adv-x="634" d="M164 0v1075h84v-233q4 11 9 23.5t20.5 40t32.5 51t45.5 50.5t60.5 45t76 28.5t92 6.5v-83q-61 0 -113 -18.5t-85.5 -48t-60 -65.5t-40.5 -72t-23 -65.5t-12 -48.5l-2 -18v-668h-84zM264 1237l203 256h145l-274 -256h-74z" />
<glyph unicode="&#x156;" horiz-adv-x="1165" d="M197 0v1434h403q74 0 136.5 -12t120 -40.5t97 -73t63 -113.5t23.5 -157q0 -183 -92.5 -276.5t-245.5 -114.5l338 -647h-100l-328 643h-327v-643h-88zM285 725h315q161 0 254.5 76t93.5 237t-92 237.5t-246 76.5h-325v-627zM514 -483l64 180h-52v166h109l16 -166l-98 -217 z" />
<glyph unicode="&#x157;" horiz-adv-x="634" d="M139 -483l64 180h-51v166h108l16 -166l-98 -217zM164 0v1075h84v-233q4 11 9 23.5t20.5 40t32.5 51t45.5 50.5t60.5 45t76 28.5t92 6.5v-83q-61 0 -113 -18.5t-85.5 -48t-60 -65.5t-40.5 -72t-23 -65.5t-12 -48.5l-2 -18v-668h-84z" />
<glyph unicode="&#x158;" horiz-adv-x="1165" d="M197 0v1434h403q74 0 136.5 -12t120 -40.5t97 -73t63 -113.5t23.5 -157q0 -183 -92.5 -276.5t-245.5 -114.5l338 -647h-100l-328 643h-327v-643h-88zM285 725h315q161 0 254.5 76t93.5 237t-92 237.5t-246 76.5h-325v-627zM397 1802h72l147 -190l152 190h72l-162 -256 h-121z" />
<glyph unicode="&#x159;" horiz-adv-x="634" d="M154 1493h71l148 -190l151 190h72l-162 -256h-121zM164 0v1075h84v-233q4 11 9 23.5t20.5 40t32.5 51t45.5 50.5t60.5 45t76 28.5t92 6.5v-83q-61 0 -113 -18.5t-85.5 -48t-60 -65.5t-40.5 -72t-23 -65.5t-12 -48.5l-2 -18v-668h-84z" />
<glyph unicode="&#x15a;" horiz-adv-x="1030" d="M106 131l48 72q218 -144 389 -144q122 0 207.5 72t85.5 205q0 57 -18.5 105.5t-47 84.5t-77 70.5t-94.5 58.5t-112 54q-51 24 -75.5 36t-69.5 37.5t-68.5 45t-55 51.5t-47 64t-27 75.5t-11.5 93.5q0 164 105 254t256 90q92 0 197 -34t186 -83l-48 -69q-82 47 -172 75.5 t-163 28.5q-114 0 -193.5 -65.5t-79.5 -192.5q0 -44 9.5 -81t33 -67.5t45 -51.5t65 -46t71 -39t83.5 -40q49 -23 78.5 -37.5t76 -41.5t76 -50.5t64 -59.5t54.5 -73t33.5 -86.5t13.5 -104.5q0 -91 -33.5 -162.5t-89.5 -113.5t-122 -63.5t-138 -21.5q-111 0 -227.5 46 t-207.5 108zM403 1546l203 256h146l-275 -256h-74z" />
<glyph unicode="&#x15b;" horiz-adv-x="860" d="M98 104l45 68q72 -48 156 -82.5t156 -34.5q90 0 156.5 51t66.5 146q0 33 -10 62.5t-23.5 51t-39.5 42.5t-44.5 34t-52 28.5t-49.5 22t-49 19.5q-37 14 -58.5 23t-56.5 26.5t-56 33t-47 40.5t-40.5 51t-24.5 62t-10 77q0 128 83.5 200.5t209.5 72.5q146 0 317 -105 l-49 -65q-151 92 -270 92q-91 0 -150 -50.5t-59 -138.5q0 -31 8.5 -58t20.5 -46.5t33.5 -38.5t37 -30t44 -24.5t41.5 -18.5t40 -15q3 -1 5 -2t5.5 -2t5.5 -2q167 -64 244.5 -144t77.5 -196q0 -70 -25.5 -124.5t-69 -87t-96 -49t-110.5 -16.5q-169 0 -363 127zM319 1237 l203 256h146l-275 -256h-74z" />
<glyph unicode="&#x15c;" horiz-adv-x="1030" d="M106 131l48 72q218 -144 389 -144q122 0 207.5 72t85.5 205q0 57 -18.5 105.5t-47 84.5t-77 70.5t-94.5 58.5t-112 54q-51 24 -75.5 36t-69.5 37.5t-68.5 45t-55 51.5t-47 64t-27 75.5t-11.5 93.5q0 164 105 254t256 90q92 0 197 -34t186 -83l-48 -69q-82 47 -172 75.5 t-163 28.5q-114 0 -193.5 -65.5t-79.5 -192.5q0 -44 9.5 -81t33 -67.5t45 -51.5t65 -46t71 -39t83.5 -40q49 -23 78.5 -37.5t76 -41.5t76 -50.5t64 -59.5t54.5 -73t33.5 -86.5t13.5 -104.5q0 -91 -33.5 -162.5t-89.5 -113.5t-122 -63.5t-138 -21.5q-111 0 -227.5 46 t-207.5 108zM295 1546l160 256h120l162 -256h-71l-152 191l-147 -191h-72z" />
<glyph unicode="&#x15d;" horiz-adv-x="860" d="M98 104l45 68q72 -48 156 -82.5t156 -34.5q90 0 156.5 51t66.5 146q0 33 -10 62.5t-23.5 51t-39.5 42.5t-44.5 34t-52 28.5t-49.5 22t-49 19.5q-37 14 -58.5 23t-56.5 26.5t-56 33t-47 40.5t-40.5 51t-24.5 62t-10 77q0 128 83.5 200.5t209.5 72.5q146 0 317 -105 l-49 -65q-151 92 -270 92q-91 0 -150 -50.5t-59 -138.5q0 -31 8.5 -58t20.5 -46.5t33.5 -38.5t37 -30t44 -24.5t41.5 -18.5t40 -15q3 -1 5 -2t5.5 -2t5.5 -2q167 -64 244.5 -144t77.5 -196q0 -70 -25.5 -124.5t-69 -87t-96 -49t-110.5 -16.5q-169 0 -363 127zM211 1237 l160 256h121l161 -256h-71l-152 190l-147 -190h-72z" />
<glyph unicode="&#x15e;" horiz-adv-x="1030" d="M106 131l48 72q218 -144 389 -144q122 0 207.5 72t85.5 205q0 57 -18.5 105.5t-47 84.5t-77 70.5t-94.5 58.5t-112 54q-51 24 -75.5 36t-69.5 37.5t-68.5 45t-55 51.5t-47 64t-27 75.5t-11.5 93.5q0 164 105 254t256 90q92 0 197 -34t186 -83l-48 -69q-82 47 -172 75.5 t-163 28.5q-114 0 -193.5 -65.5t-79.5 -192.5q0 -44 9.5 -81t33 -67.5t45 -51.5t65 -46t71 -39t83.5 -40q49 -23 78.5 -37.5t76 -41.5t76 -50.5t64 -59.5t54.5 -73t33.5 -86.5t13.5 -104.5q0 -84 -28 -151t-76.5 -109t-107 -66.5t-124.5 -31.5q53 -82 53 -158 q0 -71 -44.5 -114.5t-115.5 -43.5q-64 0 -123 35l27 72q23 -13 32 -17.5t23.5 -9t30.5 -4.5q47 0 74.5 26.5t27.5 79.5q0 56 -36 131q-111 1 -227 47t-204 107z" />
<glyph unicode="&#x15f;" horiz-adv-x="858" d="M98 104l45 68q72 -48 156 -82.5t156 -34.5q90 0 156.5 51t66.5 146q0 33 -10 62.5t-23.5 51t-39.5 42.5t-44.5 34t-52 28.5t-49.5 22t-49 19.5q-37 14 -58.5 23t-56.5 26.5t-56 33t-47 40.5t-40.5 51t-24.5 62t-10 77q0 128 83.5 200.5t209.5 72.5q146 0 317 -105 l-49 -65q-151 92 -270 92q-91 0 -150 -50.5t-59 -138.5q0 -31 8.5 -58t20.5 -46.5t33.5 -38.5t37 -30t44 -24.5t41.5 -18.5t40 -15q3 -1 5 -2t5.5 -2t5.5 -2q167 -64 244.5 -144t77.5 -196q0 -127 -78 -196.5t-192 -77.5q51 -84 51 -158q0 -71 -44.5 -114.5t-115.5 -43.5 q-64 0 -123 35l27 72q23 -13 32 -17.5t23.5 -9t30.5 -4.5q47 0 74.5 26.5t27.5 79.5q0 57 -37 134q-164 7 -340 124z" />
<glyph unicode="&#x160;" horiz-adv-x="1030" d="M106 131l48 72q218 -144 389 -144q122 0 207.5 72t85.5 205q0 57 -18.5 105.5t-47 84.5t-77 70.5t-94.5 58.5t-112 54q-51 24 -75.5 36t-69.5 37.5t-68.5 45t-55 51.5t-47 64t-27 75.5t-11.5 93.5q0 164 105 254t256 90q92 0 197 -34t186 -83l-48 -69q-82 47 -172 75.5 t-163 28.5q-114 0 -193.5 -65.5t-79.5 -192.5q0 -44 9.5 -81t33 -67.5t45 -51.5t65 -46t71 -39t83.5 -40q49 -23 78.5 -37.5t76 -41.5t76 -50.5t64 -59.5t54.5 -73t33.5 -86.5t13.5 -104.5q0 -91 -33.5 -162.5t-89.5 -113.5t-122 -63.5t-138 -21.5q-111 0 -227.5 46 t-207.5 108zM295 1802h72l147 -190l152 190h71l-162 -256h-120z" />
<glyph unicode="&#x161;" horiz-adv-x="860" d="M98 104l45 68q72 -48 156 -82.5t156 -34.5q90 0 156.5 51t66.5 146q0 33 -10 62.5t-23.5 51t-39.5 42.5t-44.5 34t-52 28.5t-49.5 22t-49 19.5q-37 14 -58.5 23t-56.5 26.5t-56 33t-47 40.5t-40.5 51t-24.5 62t-10 77q0 128 83.5 200.5t209.5 72.5q146 0 317 -105 l-49 -65q-151 92 -270 92q-91 0 -150 -50.5t-59 -138.5q0 -31 8.5 -58t20.5 -46.5t33.5 -38.5t37 -30t44 -24.5t41.5 -18.5t40 -15q3 -1 5 -2t5.5 -2t5.5 -2q167 -64 244.5 -144t77.5 -196q0 -70 -25.5 -124.5t-69 -87t-96 -49t-110.5 -16.5q-169 0 -363 127zM209 1493h72 l147 -190l152 190h71l-162 -256h-120z" />
<glyph unicode="&#x162;" horiz-adv-x="958" d="M55 1352v82h848v-82h-381v-1352h-16q10 -11 23 -32.5t27.5 -63.5t14.5 -82q0 -72 -44 -115t-115 -43q-64 0 -123 35l26 72q23 -13 32 -17.5t23.5 -9t30.5 -4.5q47 0 75 26.5t28 79.5q0 47 -17.5 90t-33.5 64h-19v1352h-379z" />
<glyph unicode="&#x163;" horiz-adv-x="620" d="M70 1001v74h123v271l83 40v-311h246v-74h-246v-825q0 -121 86 -121q35 0 89.5 19.5t91.5 38.5l37 -68q-105 -54 -191 -65q53 -82 53 -158q0 -72 -44 -115t-115 -43q-64 0 -123 35l26 72q23 -13 32 -17.5t23.5 -9t30.5 -4.5q47 0 75 26.5t28 79.5q0 57 -37 134 q-145 8 -145 206v815h-123z" />
<glyph unicode="&#x164;" horiz-adv-x="958" d="M55 1352v82h848v-82h-381v-1352h-88v1352h-379zM258 1802h72l147 -190l152 190h71l-161 -256h-121z" />
<glyph unicode="&#x165;" horiz-adv-x="620" d="M70 1001v74h123v271l83 40v-311h246v-74h-246v-825q0 -121 86 -121q35 0 89.5 19.5t91.5 38.5l37 -68q-132 -68 -224 -68q-163 0 -163 209v815h-123zM385 1237l64 180h-52v166h109l16 -166l-98 -217z" />
<glyph unicode="&#x166;" horiz-adv-x="978" d="M66 1352v82h847v-82h-381v-787h197v-73h-197v-492h-88v492h-194v73h194v787h-378z" />
<glyph unicode="&#x167;" horiz-adv-x="620" d="M72 1001v74h123v271l84 40v-311h245v-74h-245v-323h192v-74h-192v-428q0 -121 86 -121q67 0 180 58l37 -68q-132 -68 -224 -68q-163 0 -163 209v418h-89v74h89v323h-123z" />
<glyph unicode="&#x168;" horiz-adv-x="1200" d="M186 451v983h88v-977q0 -89 14 -156t48.5 -124t101 -87.5t162.5 -30.5t162 30.5t100.5 87.5t49 124.5t14.5 155.5v977h90v-983q0 -103 -22 -186t-69.5 -149t-130 -102.5t-194.5 -36.5q-91 0 -162 24t-118 66.5t-77.5 103t-43.5 129.5t-13 151zM360 1597q30 74 62 110 t78 36q35 0 73.5 -25.5t71.5 -50.5t55 -25t39 18.5t43 76.5l60 -25q-33 -75 -63.5 -110t-78.5 -35q-35 0 -73.5 25t-71.5 50t-55 25t-39 -18t-43 -76z" />
<glyph unicode="&#x169;" horiz-adv-x="1021" d="M158 274v801h84v-792q0 -228 168 -228q66 0 145 40t130 81.5t89 81.5v817h84v-1075h-84v168q-70 -70 -172.5 -130.5t-206.5 -60.5q-66 0 -114 24.5t-74 67.5t-37.5 93.5t-11.5 111.5zM285 1288q31 74 62 110t77 36q28 0 58.5 -16t52.5 -34.5t47 -34.5t43 -16q22 0 39 18 t43 76l59 -24q-33 -76 -63.5 -111t-77.5 -35q-35 0 -73.5 25.5t-72 50.5t-55.5 25t-39 -18t-43 -76z" />
<glyph unicode="&#x16a;" horiz-adv-x="1200" d="M186 451v983h88v-977q0 -89 14 -156t48.5 -124t101 -87.5t162.5 -30.5t162 30.5t100.5 87.5t49 124.5t14.5 155.5v977h90v-983q0 -103 -22 -186t-69.5 -149t-130 -102.5t-194.5 -36.5q-91 0 -162 24t-118 66.5t-77.5 103t-43.5 129.5t-13 151zM362 1597v74h476v-74h-476z " />
<glyph unicode="&#x16b;" horiz-adv-x="1021" d="M158 274v801h84v-792q0 -228 168 -228q66 0 145 40t130 81.5t89 81.5v817h84v-1075h-84v168q-70 -70 -172.5 -130.5t-206.5 -60.5q-66 0 -114 24.5t-74 67.5t-37.5 93.5t-11.5 111.5zM268 1288v74h475v-74h-475z" />
<glyph unicode="&#x16c;" horiz-adv-x="1200" d="M186 451v983h88v-977q0 -89 14 -156t48.5 -124t101 -87.5t162.5 -30.5t162 30.5t100.5 87.5t49 124.5t14.5 155.5v977h90v-983q0 -103 -22 -186t-69.5 -149t-130 -102.5t-194.5 -36.5q-91 0 -162 24t-118 66.5t-77.5 103t-43.5 129.5t-13 151zM379 1745h74 q0 -123 145 -123q150 0 150 123h71q0 -92 -59 -145.5t-162 -53.5q-102 0 -160.5 54t-58.5 145z" />
<glyph unicode="&#x16d;" horiz-adv-x="1021" d="M158 274v801h84v-792q0 -228 168 -228q66 0 145 40t130 81.5t89 81.5v817h84v-1075h-84v168q-70 -70 -172.5 -130.5t-206.5 -60.5q-66 0 -114 24.5t-74 67.5t-37.5 93.5t-11.5 111.5zM287 1436h73q0 -123 146 -123q149 0 149 123h72q0 -92 -59 -145.5t-162 -53.5 q-102 0 -160.5 54t-58.5 145z" />
<glyph unicode="&#x16e;" horiz-adv-x="1200" d="M186 451v983h88v-977q0 -89 14 -156t48.5 -124t101 -87.5t162.5 -30.5t162 30.5t100.5 87.5t49 124.5t14.5 155.5v977h90v-983q0 -103 -22 -186t-69.5 -149t-130 -102.5t-194.5 -36.5q-91 0 -162 24t-118 66.5t-77.5 103t-43.5 129.5t-13 151zM416 1712q0 80 53.5 135.5 t132.5 55.5q80 0 135.5 -55.5t55.5 -135.5q0 -78 -55.5 -132t-135.5 -54q-79 0 -132.5 54t-53.5 132zM479 1712q0 -51 36 -86t87 -35q53 0 89 35t36 86q0 52 -36.5 88.5t-88.5 36.5q-51 0 -87 -36.5t-36 -88.5z" />
<glyph unicode="&#x16f;" horiz-adv-x="1021" d="M158 274v801h84v-792q0 -228 168 -228q66 0 145 40t130 81.5t89 81.5v817h84v-1075h-84v168q-70 -70 -172.5 -130.5t-206.5 -60.5q-66 0 -114 24.5t-74 67.5t-37.5 93.5t-11.5 111.5zM322 1403q0 80 53.5 135t132.5 55q80 0 135 -55.5t55 -134.5q0 -78 -55 -132t-135 -54 q-79 0 -132.5 54t-53.5 132zM385 1403q0 -51 36 -86t87 -35q53 0 89 35t36 86q0 53 -36.5 89t-88.5 36q-51 0 -87 -36.5t-36 -88.5z" />
<glyph unicode="&#x170;" horiz-adv-x="1200" d="M186 451v983h88v-977q0 -89 14 -156t48.5 -124t101 -87.5t162.5 -30.5t162 30.5t100.5 87.5t49 124.5t14.5 155.5v977h90v-983q0 -103 -22 -186t-69.5 -149t-130 -102.5t-194.5 -36.5q-91 0 -162 24t-118 66.5t-77.5 103t-43.5 129.5t-13 151zM422 1546l129 256h129 l-199 -256h-59zM655 1546l127 256h129l-198 -256h-58z" />
<glyph unicode="&#x171;" horiz-adv-x="1021" d="M158 274v801h84v-792q0 -228 168 -228q66 0 145 40t130 81.5t89 81.5v817h84v-1075h-84v168q-70 -70 -172.5 -130.5t-206.5 -60.5q-66 0 -114 24.5t-74 67.5t-37.5 93.5t-11.5 111.5zM330 1237l129 256h129l-199 -256h-59zM563 1237l127 256h129l-198 -256h-58z" />
<glyph unicode="&#x172;" horiz-adv-x="1200" d="M186 451v983h88v-977q0 -89 14 -156t48.5 -124t101 -87.5t162.5 -30.5t162 30.5t100.5 87.5t49 124.5t14.5 155.5v977h90v-983q0 -114 -25 -202.5t-86.5 -156t-156.5 -94.5q-3 -2 -24.5 -17.5t-28 -20t-26 -20t-27.5 -24.5t-22 -24.5t-20 -28.5t-11 -29.5t-5 -32.5 q0 -13 3 -24t6.5 -19t11 -14.5t13 -10.5t16.5 -7l16.5 -4.5t18.5 -2t17.5 -0.5h18.5h16l-14 -77q-28 0 -46 1t-51.5 8.5t-54 22t-37 44t-16.5 71.5q0 103 131 191q-15 -3 -33 -3q-91 0 -162 24t-118 66.5t-77.5 103t-43.5 129.5t-13 151z" />
<glyph unicode="&#x173;" horiz-adv-x="1021" d="M158 274v801h84v-792q0 -228 168 -228q66 0 145 40t130 81.5t89 81.5v817h84v-1075h-6q-4 -3 -28 -19.5t-33.5 -24t-30.5 -24t-30.5 -29t-22.5 -30t-18 -35.5t-5 -37q0 -13 3 -24t6.5 -19t11 -14.5t13 -10.5t16.5 -7l16.5 -4.5t18.5 -2t17.5 -0.5h18.5h16l-14 -77 q-28 0 -46 1t-51.5 8.5t-54 22t-37 44t-16.5 71.5q0 61 48 116.5t124 96.5v166q-70 -70 -172.5 -130.5t-206.5 -60.5q-66 0 -114 24.5t-74 67.5t-37.5 93.5t-11.5 111.5z" />
<glyph unicode="&#x174;" horiz-adv-x="1585" d="M86 1434h96l281 -1311l280 1311h97l280 -1311l281 1311h96l-323 -1434h-105l-278 1278l-277 -1278h-102zM571 1546l160 256h121l162 -256h-72l-151 191l-148 -191h-72z" />
<glyph unicode="&#x175;" horiz-adv-x="1361" d="M78 1075h90l231 -954l238 954h90l234 -958l231 958h92l-278 -1075h-91l-235 942l-234 -942h-90zM461 1237l160 256h120l162 -256h-72l-151 190l-148 -190h-71z" />
<glyph unicode="&#x177;" horiz-adv-x="925" d="M66 1075h94l303 -960l301 960h96l-498 -1493h-96l154 418zM242 1237l159 256h121l162 -256h-72l-151 190l-148 -190h-71z" />
<glyph unicode="&#x178;" horiz-adv-x="1056" d="M53 1434h99l376 -785l377 785h101l-435 -869v-565h-88v569zM340 1567v159h111v-159h-111zM610 1567v159h109v-159h-109z" />
<glyph unicode="&#x179;" horiz-adv-x="1046" d="M88 0v78l743 1274h-704v82h809v-76l-746 -1276h754v-82h-856zM422 1546l203 256h145l-274 -256h-74z" />
<glyph unicode="&#x17a;" horiz-adv-x="841" d="M88 0v80l561 917h-543v78h642v-80l-562 -917h562v-78h-660zM307 1237l203 256h145l-274 -256h-74z" />
<glyph unicode="&#x17b;" horiz-adv-x="1046" d="M88 0v78l743 1274h-704v82h809v-76l-746 -1276h754v-82h-856zM477 1565v159h109v-159h-109z" />
<glyph unicode="&#x17c;" horiz-adv-x="841" d="M88 0v80l561 917h-543v78h642v-80l-562 -917h562v-78h-660zM360 1257v160h109v-160h-109z" />
<glyph unicode="&#x17d;" horiz-adv-x="1046" d="M88 0v78l743 1274h-704v82h809v-76l-746 -1276h754v-82h-856zM311 1802h72l147 -190l152 190h72l-162 -256h-121z" />
<glyph unicode="&#x17e;" horiz-adv-x="841" d="M88 0v80l561 917h-543v78h642v-80l-562 -917h562v-78h-660zM197 1493h71l148 -190l151 190h72l-162 -256h-121z" />
<glyph unicode="&#x17f;" horiz-adv-x="487" d="M76 1001v74h123v209q0 119 45 164t118 45q72 0 244 -61l-37 -68q-142 51 -200 51q-86 0 -86 -121v-1294h-84v1001h-123z" />
<glyph unicode="&#x192;" horiz-adv-x="874" d="M80 -418l276 1419h-125l17 74h123l41 209q25 124 69.5 166.5t120.5 42.5q97 0 246 -68l-47 -63q-132 53 -197 53q-82 0 -106 -121l-43 -219h243l-14 -74h-244l-276 -1419h-84z" />
<glyph unicode="&#x1fc;" horiz-adv-x="1660" d="M12 0l813 1434h709v-82h-610v-594h508v-82h-508v-594h620v-82h-708v395h-504l-219 -395h-101zM379 477h457v819zM795 1546l202 256h146l-275 -256h-73z" />
<glyph unicode="&#x1fd;" horiz-adv-x="1558" d="M104 315q0 92 24.5 162.5t67 111.5t94.5 61t111 20q18 0 39 -2.5t38.5 -5t41.5 -8.5t38.5 -10t39.5 -12t35 -12t34 -12t29 -10q5 95 33 190q-5 119 -49.5 175.5t-149.5 56.5q-48 0 -110 -16.5t-100.5 -32t-118.5 -49.5l-37 73q231 103 371 103q201 0 256 -168 q109 168 299 168q167 0 259.5 -127.5t92.5 -331.5q0 -33 -2.5 -65.5t-5.5 -49.5l-2 -16h-646q6 -204 83.5 -328.5t197.5 -124.5q45 0 92 14.5t97 45t72 45t65 47.5l53 -62q-111 -81 -171 -112q-110 -56 -208 -56q-95 0 -173.5 55.5t-129.5 160.5q-78 -96 -173 -156t-198 -60 q-41 0 -79.5 9.5t-77.5 33.5t-67.5 61t-46.5 97t-18 137zM193 313q0 -130 56.5 -191t153.5 -61q95 0 175.5 53.5t156.5 147.5q-36 113 -39 256q-8 3 -55.5 21t-71.5 25.5t-63.5 16.5t-69.5 9q-68 0 -117 -23t-75.5 -63.5t-38.5 -87.5t-12 -103zM664 1237l202 256h146 l-275 -256h-73zM786 584h568q4 223 -67 329.5t-200 106.5q-132 0 -212 -118t-89 -318z" />
<glyph unicode="&#x1fe;" horiz-adv-x="1243" d="M131 717q0 126 15.5 233t51.5 202t91.5 161t140 104.5t191.5 38.5q201 0 321 -133l66 111h86l-105 -174q121 -190 121 -543q0 -125 -15.5 -232t-51.5 -202t-91 -162t-139.5 -105.5t-191.5 -38.5q-200 0 -320 129l-63 -106h-86l102 170q-123 191 -123 547zM223 717 q0 -296 82 -461l590 987q-97 131 -274 131q-89 0 -158 -34t-114 -93t-73.5 -144t-40.5 -179t-12 -207zM348 186q97 -127 273 -127q397 0 397 658q0 290 -80 457zM512 1546l203 256h145l-274 -256h-74z" />
<glyph unicode="&#x1ff;" horiz-adv-x="1009" d="M113 537q0 262 102 411.5t291 149.5q147 0 244 -97l45 74h82l-80 -129q100 -148 100 -409q0 -262 -101.5 -411t-289.5 -149q-151 0 -248 97l-45 -74h-84l82 131q-98 143 -98 406zM201 537q0 -208 59 -326l447 721q-78 88 -201 88q-157 0 -231 -128t-74 -355zM301 145 q77 -90 205 -90q155 0 229 127.5t74 354.5q0 213 -61 329zM393 1237l203 256h145l-274 -256h-74z" />
<glyph unicode="&#x218;" horiz-adv-x="1030" d="M106 131l48 72q218 -144 389 -144q122 0 207.5 72t85.5 205q0 57 -18.5 105.5t-47 84.5t-77 70.5t-94.5 58.5t-112 54q-51 24 -75.5 36t-69.5 37.5t-68.5 45t-55 51.5t-47 64t-27 75.5t-11.5 93.5q0 164 105 254t256 90q92 0 197 -34t186 -83l-48 -69q-82 47 -172 75.5 t-163 28.5q-114 0 -193.5 -65.5t-79.5 -192.5q0 -44 9.5 -81t33 -67.5t45 -51.5t65 -46t71 -39t83.5 -40q49 -23 78.5 -37.5t76 -41.5t76 -50.5t64 -59.5t54.5 -73t33.5 -86.5t13.5 -104.5q0 -91 -33.5 -162.5t-89.5 -113.5t-122 -63.5t-138 -21.5q-111 0 -227.5 46 t-207.5 108zM451 -483l63 180h-51v166h108l17 -166l-99 -217z" />
<glyph unicode="&#x219;" horiz-adv-x="860" d="M98 104l45 68q72 -48 156 -82.5t156 -34.5q90 0 156.5 51t66.5 146q0 33 -10 62.5t-23.5 51t-39.5 42.5t-44.5 34t-52 28.5t-49.5 22t-49 19.5q-37 14 -58.5 23t-56.5 26.5t-56 33t-47 40.5t-40.5 51t-24.5 62t-10 77q0 128 83.5 200.5t209.5 72.5q146 0 317 -105 l-49 -65q-151 92 -270 92q-91 0 -150 -50.5t-59 -138.5q0 -31 8.5 -58t20.5 -46.5t33.5 -38.5t37 -30t44 -24.5t41.5 -18.5t40 -15q3 -1 5 -2t5.5 -2t5.5 -2q167 -64 244.5 -144t77.5 -196q0 -70 -25.5 -124.5t-69 -87t-96 -49t-110.5 -16.5q-169 0 -363 127zM365 -483 l63 180h-51v166h108l17 -166l-99 -217z" />
<glyph unicode="&#x21a;" horiz-adv-x="958" d="M55 1352v82h848v-82h-381v-1352h-88v1352h-379zM412 -483l63 180h-51v166h108l17 -166l-98 -217z" />
<glyph unicode="&#x21b;" horiz-adv-x="620" d="M70 1001v74h123v271l83 40v-311h246v-74h-246v-825q0 -121 86 -121q35 0 89.5 19.5t91.5 38.5l37 -68q-132 -68 -224 -68q-163 0 -163 209v815h-123zM221 -483l64 180h-52v166h109l16 -166l-98 -217z" />
<glyph unicode="&#x2b0;" horiz-adv-x="690" d="M117 788v895h73v-346q122 111 234 111q154 0 154 -184v-476h-74v465q0 129 -98 129q-57 0 -119 -38.5t-97 -77.5v-478h-73z" />
<glyph unicode="&#x2b2;" horiz-adv-x="307" d="M-6 594q33 13 52.5 20.5t34.5 19.5t21.5 18t10.5 25t4 30v43v684h73v-682q0 -35 -0.5 -50.5t-3.5 -39t-9.5 -34.5t-18.5 -26.5t-31 -25.5t-45.5 -21.5t-63.5 -22.5zM113 1573v108h84v-108h-84z" />
<glyph unicode="&#x2b7;" horiz-adv-x="880" d="M51 1434h80l133 -551l139 551h72l139 -551l134 551h79l-172 -646h-75l-142 539l-137 -539h-76z" />
<glyph unicode="&#x2b8;" horiz-adv-x="602" d="M43 1434h80l176 -547l178 547h82l-309 -895h-82l96 249z" />
<glyph unicode="&#x2c6;" horiz-adv-x="434" d="M-4 1237l160 256h120l162 -256h-71l-152 190l-147 -190h-72z" />
<glyph unicode="&#x2c7;" horiz-adv-x="434" d="M-4 1493h72l147 -190l152 190h71l-162 -256h-120z" />
<glyph unicode="&#x2d8;" horiz-adv-x="432" d="M-4 1436h74q0 -123 145 -123q150 0 150 123h71q0 -92 -59 -145.5t-162 -53.5q-102 0 -160.5 54t-58.5 145z" />
<glyph unicode="&#x2d9;" horiz-adv-x="108" d="M0 1257v160h109v-160h-109z" />
<glyph unicode="&#x2da;" horiz-adv-x="374" d="M0 1403q0 80 53.5 135t132.5 55q80 0 135.5 -55.5t55.5 -134.5q0 -78 -55.5 -132t-135.5 -54q-79 0 -132.5 54t-53.5 132zM63 1403q0 -51 36 -86t87 -35q53 0 89 35t36 86q0 53 -36.5 89t-88.5 36q-51 0 -87 -36.5t-36 -88.5z" />
<glyph unicode="&#x2db;" horiz-adv-x="249" d="M-4 -211q0 68 60 129t151 105l43 -21q-5 -4 -28.5 -20t-34 -24t-31 -24.5t-31 -29.5t-23.5 -30.5t-18.5 -35.5t-5.5 -37q0 -13 3 -24t6.5 -19t11 -14.5t13 -10.5t16.5 -7l16.5 -4.5t18.5 -2t17.5 -0.5h18.5h16l-14 -77q-28 0 -46 1t-51.5 8.5t-54 22t-37 44t-16.5 71.5z " />
<glyph unicode="&#x2dc;" horiz-adv-x="471" d="M-4 1288q31 74 62 110t77 36q28 0 58.5 -16t52.5 -34.5t47 -34.5t43 -16q22 0 39 18t43 76l59 -24q-33 -76 -63.5 -111t-77.5 -35q-35 0 -73.5 25.5t-72 50.5t-55.5 25t-39 -18t-43 -76z" />
<glyph unicode="&#x2dd;" horiz-adv-x="481" d="M-4 1237l129 256h129l-199 -256h-59zM229 1237l127 256h129l-198 -256h-58z" />
<glyph unicode="&#x2e3;" horiz-adv-x="647" d="M47 788l234 326l-224 320h93l174 -271l174 271h92l-223 -320l235 -326h-94l-184 277l-183 -277h-94z" />
<glyph unicode="&#x3c0;" horiz-adv-x="935" d="M66 993v82h804v-82h-149v-993h-88v993h-330v-993h-88v993h-149z" />
<glyph unicode="&#x1e80;" horiz-adv-x="1585" d="M86 1434h96l281 -1311l280 1311h97l280 -1311l281 1311h96l-323 -1434h-105l-278 1278l-277 -1278h-102zM555 1802h143l205 -256h-74z" />
<glyph unicode="&#x1e81;" horiz-adv-x="1361" d="M78 1075h90l231 -954l238 954h90l234 -958l231 958h92l-278 -1075h-91l-235 942l-234 -942h-90zM444 1493h144l205 -256h-74z" />
<glyph unicode="&#x1e82;" horiz-adv-x="1585" d="M86 1434h96l281 -1311l280 1311h97l280 -1311l281 1311h96l-323 -1434h-105l-278 1278l-277 -1278h-102zM680 1546l203 256h145l-274 -256h-74z" />
<glyph unicode="&#x1e83;" horiz-adv-x="1361" d="M78 1075h90l231 -954l238 954h90l234 -958l231 958h92l-278 -1075h-91l-235 942l-234 -942h-90zM571 1237l203 256h146l-275 -256h-74z" />
<glyph unicode="&#x1e84;" horiz-adv-x="1585" d="M86 1434h96l281 -1311l280 1311h97l280 -1311l281 1311h96l-323 -1434h-105l-278 1278l-277 -1278h-102zM602 1567v159h111v-159h-111zM872 1567v159h109v-159h-109z" />
<glyph unicode="&#x1e85;" horiz-adv-x="1361" d="M78 1075h90l231 -954l238 954h90l234 -958l231 958h92l-278 -1075h-91l-235 942l-234 -942h-90zM492 1257v160h110v-160h-110zM762 1257v160h108v-160h-108z" />
<glyph unicode="&#x1e9e;" horiz-adv-x="1339" d="M197 0v1001q0 101 20.5 179t53 125t79 77t93 41t100.5 11h536v-70l-377 -524q123 -3 219.5 -34t156 -77t98.5 -106.5t54 -119t15 -118.5q0 -74 -23 -143.5t-69 -130t-125.5 -97.5t-181.5 -37q-199 0 -400 129l50 72q184 -119 346 -119q80 0 142.5 29.5t98.5 78t54 104 t18 114.5q0 39 -8 77t-27 82t-54.5 81t-85.5 67.5t-127 48t-171 17.5h-90v71l377 523h-424q-260 0 -260 -353v-999h-88z" />
<glyph unicode="&#x1ef2;" horiz-adv-x="1056" d="M53 1434h99l376 -785l377 785h101l-435 -869v-565h-88v569zM293 1802h143l205 -256h-74z" />
<glyph unicode="&#x1ef3;" horiz-adv-x="925" d="M66 1075h94l303 -960l301 960h96l-498 -1493h-96l154 418zM227 1493h144l204 -256h-73z" />
<glyph unicode="&#x2000;" horiz-adv-x="951" />
<glyph unicode="&#x2001;" horiz-adv-x="1903" />
<glyph unicode="&#x2002;" horiz-adv-x="951" />
<glyph unicode="&#x2003;" horiz-adv-x="1903" />
<glyph unicode="&#x2004;" horiz-adv-x="634" />
<glyph unicode="&#x2005;" horiz-adv-x="475" />
<glyph unicode="&#x2006;" horiz-adv-x="317" />
<glyph unicode="&#x2007;" horiz-adv-x="317" />
<glyph unicode="&#x2008;" horiz-adv-x="237" />
<glyph unicode="&#x2009;" horiz-adv-x="380" />
<glyph unicode="&#x200a;" horiz-adv-x="105" />
<glyph unicode="&#x2010;" horiz-adv-x="757" d="M156 541v86h446v-86h-446z" />
<glyph unicode="&#x2011;" horiz-adv-x="757" d="M156 541v86h446v-86h-446z" />
<glyph unicode="&#x2012;" horiz-adv-x="757" d="M156 541v86h446v-86h-446z" />
<glyph unicode="&#x2013;" horiz-adv-x="976" d="M156 541v86h665v-86h-665z" />
<glyph unicode="&#x2014;" horiz-adv-x="1150" d="M156 541v86h839v-86h-839z" />
<glyph unicode="&#x2018;" horiz-adv-x="407" d="M131 1233l100 237l41 -36l-67 -201h55v-186h-110z" />
<glyph unicode="&#x2019;" horiz-adv-x="397" d="M135 1047l68 200h-56v187h111l18 -187l-100 -237z" />
<glyph unicode="&#x201a;" horiz-adv-x="425" d="M141 -201l68 201h-55v186h110l19 -186l-101 -238z" />
<glyph unicode="&#x201c;" horiz-adv-x="679" d="M131 1233l100 237l41 -36l-67 -201h55v-186h-110zM401 1233l101 237l41 -36l-68 -201h55v-186h-110z" />
<glyph unicode="&#x201d;" horiz-adv-x="667" d="M135 1047l68 200h-56v187h111l18 -187l-100 -237zM408 1047l67 200h-55v187h110l19 -187l-100 -237z" />
<glyph unicode="&#x201e;" horiz-adv-x="698" d="M141 -201l68 201h-55v186h110l19 -186l-101 -238zM414 -201l67 201h-55v186h111l18 -186l-100 -238z" />
<glyph unicode="&#x2020;" horiz-adv-x="968" d="M68 838v90l378 -15v521h74v-521l381 15v-90l-381 12v-1268h-74v1268z" />
<glyph unicode="&#x2021;" horiz-adv-x="1067" d="M117 301v90l379 -14v473l-379 -12v90l379 -15v521h73v-519l381 13v-90l-381 12v-471l381 12v-90l-381 12v-731h-73v731z" />
<glyph unicode="&#x2022;" horiz-adv-x="819" d="M186 584q0 92 66 157.5t158 65.5t157.5 -65.5t65.5 -157.5t-65.5 -158t-157.5 -66t-158 66t-66 158z" />
<glyph unicode="&#x2026;" horiz-adv-x="1038" d="M154 0v186h114v-186h-114zM461 0v186h114v-186h-114zM768 0v186h115v-186h-115z" />
<glyph unicode="&#x202f;" horiz-adv-x="380" />
<glyph unicode="&#x2030;" horiz-adv-x="2373" d="M96 1073q0 182 78 282.5t215 100.5q136 0 213.5 -100.5t77.5 -282.5q0 -181 -77.5 -283t-213.5 -102q-137 0 -215 102t-78 283zM182 1073q0 -142 53 -226.5t154 -84.5q100 0 153.5 85t53.5 226q0 143 -53 226t-154 83q-102 0 -154.5 -82.5t-52.5 -226.5zM487 0l619 1434 h82l-619 -1434h-82zM995 362q0 182 77 282.5t214 100.5t215 -100.5t78 -282.5q0 -181 -78 -283t-215 -102t-214 102t-77 283zM1079 362q0 -141 53.5 -226t153.5 -85t153.5 85t53.5 226q0 143 -53.5 226.5t-153.5 83.5t-153.5 -83.5t-53.5 -226.5zM1694 362q0 181 78 282 t215 101q136 0 213 -101t77 -282t-77.5 -283t-212.5 -102q-137 0 -215 102t-78 283zM1778 362q0 -142 53.5 -226.5t155.5 -84.5q100 0 152 84t52 227q0 144 -52 227t-152 83q-102 0 -155.5 -83.5t-53.5 -226.5z" />
<glyph unicode="&#x2039;" horiz-adv-x="714" d="M80 551v65l512 467v-106l-430 -393l430 -394v-106z" />
<glyph unicode="&#x203a;" horiz-adv-x="714" d="M123 84v106l430 394l-430 393v106l512 -467v-65z" />
<glyph unicode="&#x2044;" horiz-adv-x="241" d="M-201 0l563 1434h80l-561 -1434h-82z" />
<glyph unicode="&#x205f;" horiz-adv-x="475" />
<glyph unicode="&#x2070;" horiz-adv-x="743" d="M100 1219q0 216 68.5 330t202.5 114q135 0 203.5 -114t68.5 -330q0 -215 -68.5 -330t-203.5 -115t-203 114.5t-68 330.5zM180 1219q0 -377 191 -377q192 0 192 377q0 376 -192 376q-191 0 -191 -376z" />
<glyph unicode="&#x2074;" horiz-adv-x="708" d="M66 987v64l356 598h102v-592h115v-70h-115v-199h-78v199h-380zM145 1057h301v508z" />
<glyph unicode="&#x2075;" horiz-adv-x="661" d="M82 858l37 62q106 -74 186 -74q76 0 131.5 59.5t55.5 151.5q0 87 -48 145t-133 58q-70 0 -157 -56l-41 23l39 422h391v-70h-328l-20 -285q68 35 131 35q112 0 179.5 -79t67.5 -193q0 -116 -68.5 -199.5t-191.5 -83.5q-109 0 -231 84z" />
<glyph unicode="&#x2076;" horiz-adv-x="698" d="M96 1147q-1 230 106 373t269 143q24 0 48 -3.5t36 -7.5l12 -3l-16 -68q-37 12 -78 12q-111 0 -192 -94.5t-101 -263.5q78 100 201 100q109 0 172 -79t63 -193q0 -120 -69 -204.5t-182 -84.5q-88 0 -150.5 53.5t-90.5 136t-28 183.5zM176 1135q0 -128 49 -209.5t137 -81.5 q84 0 130.5 66t46.5 153q0 51 -16.5 96.5t-56 78t-95.5 32.5q-71 0 -124 -43t-71 -92z" />
<glyph unicode="&#x2077;" horiz-adv-x="583" d="M61 1579v70h469v-60q-11 -16 -29.5 -45.5t-65.5 -119.5t-82.5 -180.5t-65 -216.5t-29.5 -239h-82q0 101 26 217t58.5 204t76 177.5t65 127.5t38.5 65h-379z" />
<glyph unicode="&#x2078;" horiz-adv-x="704" d="M86 1004q0 157 188 247q-145 76 -145 211q0 90 62.5 145.5t160.5 55.5q99 0 162.5 -55.5t63.5 -145.5q0 -137 -148 -211q37 -19 65.5 -38.5t59 -49.5t47 -70.5t16.5 -88.5q0 -106 -75 -168t-191 -62t-191 62t-75 168zM166 1006q0 -76 53.5 -120t132.5 -44q81 0 135 44 t54 120q0 40 -16 73.5t-45.5 59t-59 43t-68.5 35.5q-39 -18 -67 -35t-58 -42.5t-45.5 -59.5t-15.5 -74zM205 1454q0 -104 147 -168q146 66 146 168q0 59 -41 100t-105 41t-105.5 -41t-41.5 -100z" />
<glyph unicode="&#x2079;" horiz-adv-x="698" d="M82 1374q0 120 69.5 204.5t184.5 84.5q86 0 148 -53.5t90 -136t28 -183.5q1 -230 -106 -373t-269 -143q-24 0 -48 3.5t-36 6.5l-12 4l19 68q34 -12 73 -12q113 0 195 95t100 267q-26 -39 -77 -71.5t-124 -32.5q-111 0 -173 78.5t-62 193.5zM160 1374q0 -82 43 -144.5 t127 -62.5q70 0 123 44t71 94q-2 128 -51 208t-137 80q-83 0 -129.5 -66t-46.5 -153z" />
<glyph unicode="&#x207a;" horiz-adv-x="690" d="M82 1165v66h231v227h64v-227h231v-66h-231v-227h-64v227h-231z" />
<glyph unicode="&#x207d;" horiz-adv-x="391" d="M125 821v791q0 41 2 61t10.5 45t27 39.5t51 30.5t83.5 31l23 -58q-62 -23 -85.5 -40t-29.5 -37.5t-6 -73.5v-787q0 -41 1.5 -57.5t14.5 -35.5t35.5 -30t69.5 -30l-23 -58q-51 15 -83.5 31t-51 30.5t-27 40t-10.5 46t-2 61.5z" />
<glyph unicode="&#x207e;" horiz-adv-x="391" d="M70 670q32 12 50.5 20t33.5 19t21 18t10 23.5t4.5 29t0.5 41.5v787q0 29 -0.5 41.5t-4.5 29t-10 24t-21 18.5t-33.5 19t-50.5 21l22 58q51 -15 83.5 -31t51 -30.5t27 -40t10.5 -46t2 -61.5v-791q0 -41 -2 -61t-10.5 -45t-27 -39.5t-51 -30.5t-83.5 -31z" />
<glyph unicode="&#x207f;" horiz-adv-x="690" d="M117 788v646h73v-97q122 111 234 111q154 0 154 -184v-476h-74v465q0 129 -98 129q-57 0 -119 -38.5t-97 -77.5v-478h-73z" />
<glyph unicode="&#x2080;" horiz-adv-x="743" d="M100 123q0 216 68.5 330t202.5 114q135 0 203.5 -114t68.5 -330q0 -215 -68.5 -330t-203.5 -115t-203 114.5t-68 330.5zM180 123q0 -377 191 -377q192 0 192 377t-192 377q-191 0 -191 -377z" />
<glyph unicode="&#x2081;" horiz-adv-x="489" d="M51 444l174 109h70v-860h-78v774l-129 -80z" />
<glyph unicode="&#x2082;" horiz-adv-x="661" d="M82 -244q0 28 4 54t8.5 46.5t17 43t19.5 37t26 35.5t27 30.5t32 30t32 27t35 28.5t34 27q82 68 125 125t43 120q0 62 -40 99t-109 37q-55 0 -107.5 -22.5t-87.5 -49.5l-39 57q119 86 238 86q100 0 162.5 -56t62.5 -151q0 -29 -7 -57t-15.5 -50t-28.5 -48.5t-32.5 -42 t-40.5 -42t-41 -37t-46 -38t-43 -35.5q-52 -43 -78.5 -71.5t-45.5 -73.5t-19 -103h397v-69h-483v63z" />
<glyph unicode="&#x2083;" horiz-adv-x="671" d="M72 -244l41 60q32 -22 88 -44t112 -22q80 0 133.5 48.5t53.5 131.5q0 52 -23 92t-59.5 62.5t-77.5 33.5t-82 11h-29v74h33q83 0 144 44.5t61 121.5q0 60 -38.5 93.5t-104.5 33.5q-89 0 -181 -64l-37 53q18 15 42 29.5t77.5 33.5t106.5 19q100 0 156.5 -56t56.5 -136 q0 -64 -38 -120.5t-116 -86.5q83 -23 136 -86.5t53 -151.5q0 -104 -67 -178t-191 -74q-128 0 -250 78z" />
<glyph unicode="&#x2084;" horiz-adv-x="708" d="M66 -45l356 598h102v-592h115v-70h-115v-198h-78v198h-380v64zM145 -39h301v508z" />
<glyph unicode="&#x2085;" horiz-adv-x="661" d="M82 -238l37 62q106 -74 186 -74q76 0 131.5 59.5t55.5 151.5q0 87 -48 145t-133 58q-72 0 -157 -55l-41 22l39 422h391v-70h-328l-20 -284q66 34 131 34q112 0 179.5 -79t67.5 -193q0 -116 -68.5 -199.5t-191.5 -83.5q-109 0 -231 84z" />
<glyph unicode="&#x2086;" horiz-adv-x="698" d="M96 51q-1 230 106 373t269 143q24 0 48 -3.5t36 -7.5l12 -3l-16 -68q-37 13 -78 13q-111 0 -192 -95t-101 -264q79 101 201 101q109 0 172 -79t63 -194q0 -120 -69 -204.5t-182 -84.5q-88 0 -150.5 53.5t-90.5 136t-28 183.5zM176 39q0 -128 49 -209.5t137 -81.5 q84 0 130.5 66t46.5 153q0 51 -16.5 96.5t-56 78t-95.5 32.5q-71 0 -124 -43t-71 -92z" />
<glyph unicode="&#x2087;" horiz-adv-x="583" d="M61 483v70h469v-59q-11 -16 -29.5 -45.5t-65.5 -119.5t-82.5 -180.5t-65 -216.5t-29.5 -239h-82q0 101 26 217t58.5 203.5t76 177.5t65 127.5t38.5 64.5h-379z" />
<glyph unicode="&#x2088;" horiz-adv-x="704" d="M86 -92q0 158 188 248q-145 76 -145 211q0 90 62.5 145t160.5 55q99 0 162.5 -55t63.5 -145q0 -137 -148 -211q37 -19 65.5 -39t59 -50t47 -70.5t16.5 -88.5q0 -106 -75 -168t-191 -62t-191 62t-75 168zM166 -90q0 -76 53.5 -120t132.5 -44q81 0 135 44t54 120 q0 40 -16 73.5t-45.5 59t-59 43t-68.5 35.5q-39 -18 -67 -35t-58 -42.5t-45.5 -59.5t-15.5 -74zM205 358q0 -104 147 -168q146 66 146 168q0 60 -41 101t-105 41t-105.5 -41.5t-41.5 -100.5z" />
<glyph unicode="&#x2089;" horiz-adv-x="698" d="M82 279q0 120 69.5 204t184.5 84q86 0 148 -53t90 -135.5t28 -183.5q1 -230 -106.5 -373.5t-268.5 -143.5q-24 0 -48 4t-36 8l-12 3l19 67q34 -12 73 -12q113 0 195 95.5t100 267.5q-27 -39 -77.5 -72t-123.5 -33q-111 0 -173 79t-62 194zM160 279q0 -82 43 -144.5 t127 -62.5q70 0 123 44t71 93q-2 128 -51 208.5t-137 80.5q-83 0 -129.5 -66t-46.5 -153z" />
<glyph unicode="&#x208a;" horiz-adv-x="688" d="M80 70v65h231v227h64v-227h231v-65h-231v-228h-64v228h-231z" />
<glyph unicode="&#x208d;" horiz-adv-x="389" d="M125 -274v790q0 41 2 61t10.5 45t27 39.5t51 30.5t83.5 31l23 -57q-47 -18 -69.5 -29t-35.5 -29.5t-14.5 -35.5t-1.5 -58v-786q0 -41 1.5 -58t14.5 -36t35.5 -30t69.5 -30l-23 -57q-51 15 -83.5 31t-51 30.5t-27 40t-10.5 46t-2 61.5z" />
<glyph unicode="&#x208e;" horiz-adv-x="389" d="M68 -426q62 23 85.5 40.5t29 38t5.5 73.5v786q0 41 -1.5 58t-14 36t-35 30t-69.5 30l22 57q51 -15 83.5 -31t51 -30.5t27 -40t10.5 -46t2 -61.5v-790q0 -41 -2 -61t-10.5 -45t-27 -39.5t-51 -30.5t-83.5 -31z" />
<glyph unicode="&#x20a1;" horiz-adv-x="958" d="M131 719q0 133 30.5 241.5t82 176.5t117.5 104.5t139 36.5l18 -2l31 158h69l-32 -168q25 -6 67 -27l37 195h72l-43 -230q64 -43 119 -90l-52 -59q-29 25 -84 65l-167 -882q102 17 243 136q6 5 8 7l52 -59q-1 -1 -19.5 -16t-24 -19.5t-25.5 -19.5t-30.5 -21.5t-31 -20 t-34.5 -20t-35.5 -16.5t-39 -15t-39 -10t-41.5 -6l-29 -158h-69l31 162q-43 7 -68 20l-35 -182h-72l41 221q-86 66 -136 193t-50 305zM219 719q0 -271 117 -404l168 885h-4q-119 0 -200 -131.5t-81 -349.5zM397 264q42 -22 68 -26l174 921q-31 16 -68 29z" />
<glyph unicode="&#x20a4;" horiz-adv-x="944" d="M135 0v72q5 6 14.5 17.5t35 48t48 75t47.5 95.5t39 112h-167v82h182q4 36 4 57q0 57 -12 107h-174v82h149q-14 35 -52 112t-57.5 139t-19.5 134q0 147 86.5 235t228.5 88q149 0 344 -125l-49 -69q-92 56 -160.5 84t-132.5 28q-107 0 -168 -69.5t-61 -178.5 q0 -64 21 -124.5t58.5 -134.5t53.5 -119h305v-82h-282q10 -55 10 -105q0 -23 -4 -59h276v-82h-288q-17 -74 -51.5 -150t-60 -117t-48.5 -71h563v-82h-678z" />
<glyph unicode="&#x20a7;" horiz-adv-x="1142" d="M160 973v74h55v387h367q420 0 438 -387h43v-74h-45q-18 -383 -436 -383h-279v-590h-88v973h-55zM303 672h287q146 0 236 71.5t100 229.5h-623v-301zM303 1047h623q-9 159 -99.5 232t-236.5 73h-287v-305z" />
<glyph unicode="&#x20a9;" horiz-adv-x="1720" d="M131 487v78h219l-63 279h-156v78h139l-116 512h96l108 -512h342l111 512h96l109 -512h342l110 512h97l-117 -512h143v-78h-159l-64 -279h223v-78h-239l-111 -487h-104l-279 1278l-276 -1278h-103l-110 487h-238zM375 844l59 -279h191l59 279h-309zM451 487l79 -364 l78 364h-157zM1032 844l60 -279h190l59 279h-309zM1108 487l80 -364l78 364h-158z" />
<glyph unicode="&#x20ac;" horiz-adv-x="1206" d="M111 494v77h106q-6 68 -6 146q0 47 4 133h-104v78h112q35 264 154.5 396t281.5 132q111 0 212.5 -58t213.5 -155l-57 -59q-45 38 -76 62.5t-83 58.5t-104.5 51.5t-102.5 17.5q-128 0 -220.5 -117t-124.5 -329h525v-78h-535q-4 -43 -4 -133q0 -79 6 -146h533v-77h-523 q33 -208 125 -321.5t218 -113.5q50 0 102 17t105.5 53t82.5 58t78 63l55 -60q-112 -97 -213.5 -155t-212.5 -58q-76 0 -145 30.5t-127.5 91.5t-100.5 162t-61 233h-114z" />
<glyph unicode="&#x2116;" horiz-adv-x="1898" d="M215 0v1434h92l670 -1274v1274h88v-1434h-94l-668 1270v-1270h-88zM1194 1012q0 196 75 299.5t216 103.5q142 0 216.5 -103t74.5 -300q0 -198 -74 -301t-217 -103q-141 0 -216 103.5t-75 300.5zM1245 408v71h479v-71h-479zM1278 1012q0 -166 49.5 -249t157.5 -83 t157.5 83t49.5 249q0 165 -49.5 248t-157.5 83t-157.5 -83t-49.5 -248z" />
<glyph unicode="&#x2117;" horiz-adv-x="1720" d="M131 717q0 156 49 290.5t140 234.5t230.5 157t311.5 57t311 -57t230 -157t139.5 -234.5t48.5 -290.5t-48.5 -290.5t-139.5 -234.5t-230 -157.5t-311 -57.5t-311.5 57.5t-230.5 157.5t-140 234.5t-49 290.5zM209 717q0 -190 74 -339t223.5 -238t353.5 -89q155 0 280 51 t206.5 141t125.5 211.5t44 262.5t-44 262t-125.5 211t-206.5 141t-280 51q-154 0 -278.5 -51t-205 -141t-124 -211t-43.5 -262zM637 285v862h287q299 0 299 -262q0 -264 -299 -264h-191v-336h-96zM733 705h193q198 0 198 180t-198 180h-193v-360z" />
<glyph unicode="&#x2120;" horiz-adv-x="1148" d="M145 1024l31 49q84 -47 154 -47q39 0 67.5 17t28.5 47q0 22 -19.5 39.5t-37.5 25.5t-65 24q-13 5 -19 7q-30 12 -47 21t-39 24.5t-32.5 37t-10.5 48.5q0 57 42 91t107 34q90 0 170 -45l-33 -47q-73 32 -133 32q-37 0 -61.5 -15t-24.5 -44q0 -14 5.5 -24.5t20.5 -19.5 t26.5 -14t38 -15t40.5 -15q29 -11 48.5 -20.5t43.5 -26.5t36 -40.5t12 -53.5q0 -58 -46.5 -92.5t-113.5 -34.5q-98 0 -189 57zM559 975v459h74l139 -304l141 304h72v-459h-67v340l-123 -264h-43l-125 268v-344h-68z" />
<glyph unicode="&#x2122;" horiz-adv-x="1150" d="M143 1372v62h344v-62h-139v-397h-67v397h-138zM557 975v459h70l141 -304l143 304h70v-459h-66v340l-124 -264h-43l-125 268v-344h-66z" />
<glyph unicode="&#x2126;" horiz-adv-x="1259" d="M139 717q0 168 26.5 300t83.5 232t153 153.5t227 53.5t227 -53.5t152.5 -153.5t83 -231.5t26.5 -300.5q0 -138 -25 -253t-66 -189.5t-80.5 -120t-80.5 -72.5h217v-82h-352v76q131 69 213 225.5t82 415.5q0 153 -20 269t-65 206t-123.5 137t-188.5 47q-109 0 -187.5 -47 t-124 -137t-66 -206.5t-20.5 -268.5q0 -134 23.5 -244t66 -186t94 -127.5t113.5 -83.5v-76h-352v82h211q-31 23 -60 53.5t-65 86t-61.5 121.5t-43.5 164t-18 210z" />
<glyph unicode="&#x2153;" horiz-adv-x="1361" d="M70 1325l174 109h69v-861h-77v775l-130 -80zM264 0l563 1434h80l-561 -1434h-82zM752 63l41 60q32 -22 88 -44t112 -22q80 0 133.5 49t53.5 132q0 52 -23 92t-59.5 62t-77 33t-82.5 11h-29v74h33q83 0 144 44.5t61 121.5q0 60 -38.5 93.5t-104.5 33.5q-89 0 -181 -64 l-37 54q18 14 42 29t77.5 33.5t106.5 18.5q100 0 156.5 -56t56.5 -136q0 -64 -38 -120.5t-116 -86.5q83 -23 136 -86t53 -151q0 -104 -67.5 -178t-191.5 -74q-129 0 -249 77z" />
<glyph unicode="&#x2154;" horiz-adv-x="1601" d="M115 573v64q0 28 4 54t9 46.5t16.5 43t19.5 37t26 35t27 30.5t32 30t32 27t35 28t34 27q82 68 125 125.5t43 120.5q0 62 -40 98.5t-109 36.5q-55 0 -108 -22.5t-87 -48.5l-39 57q119 86 238 86q100 0 162.5 -56t62.5 -151q0 -29 -7 -57t-15.5 -50t-28.5 -48.5t-32.5 -42 t-40.5 -42t-41 -37t-46 -38t-43 -35.5q-52 -43 -78.5 -71.5t-45.5 -73.5t-19 -103h397v-70h-483zM504 0l563 1434h80l-561 -1434h-82zM991 63l41 60q32 -22 88 -44t113 -22q80 0 133 49t53 132q0 52 -22.5 92t-59.5 62t-77.5 33t-81.5 11h-29v74h33q82 0 143 44.5t61 121.5 q0 60 -38.5 93.5t-104.5 33.5q-88 0 -180 -64l-37 54q18 14 41.5 29t77 33.5t106.5 18.5q100 0 156.5 -56t56.5 -136q0 -64 -37.5 -120.5t-115.5 -86.5q83 -23 135.5 -86t52.5 -151q0 -104 -67 -178t-191 -74q-130 0 -250 77z" />
<glyph unicode="&#x2155;" horiz-adv-x="1372" d="M70 1325l174 109h69v-861h-77v775l-130 -80zM264 0l563 1434h80l-561 -1434h-82zM764 70l37 61q106 -74 186 -74q76 0 131.5 59.5t55.5 151.5q0 87 -48 145t-133 58q-72 0 -157 -55l-41 22l39 422h391v-69h-328l-20 -285q68 35 131 35q112 0 179.5 -79.5t67.5 -193.5 q0 -116 -68.5 -199t-191.5 -83q-109 0 -231 84z" />
<glyph unicode="&#x2156;" horiz-adv-x="1611" d="M115 573v64q0 28 4 54t9 46.5t16.5 43t19.5 37t26 35t27 30.5t32 30t32 27t35 28t34 27q82 68 125 125.5t43 120.5q0 62 -40 98.5t-109 36.5q-55 0 -108 -22.5t-87 -48.5l-39 57q119 86 238 86q100 0 162.5 -56t62.5 -151q0 -29 -7 -57t-15.5 -50t-28.5 -48.5t-32.5 -42 t-40.5 -42t-41 -37t-46 -38t-43 -35.5q-52 -43 -78.5 -71.5t-45.5 -73.5t-19 -103h397v-70h-483zM504 0l563 1434h80l-561 -1434h-82zM1004 70l36 61q106 -74 187 -74q76 0 131 59t55 152q0 87 -47.5 145t-132.5 58q-73 0 -158 -55l-41 22l39 422h391v-69h-327l-21 -285 q68 35 131 35q112 0 180 -79.5t68 -193.5q0 -116 -68.5 -199t-191.5 -83q-109 0 -231 84z" />
<glyph unicode="&#x2157;" horiz-adv-x="1581" d="M100 637l41 59q32 -22 88 -43.5t113 -21.5q80 0 133 48.5t53 131.5q0 52 -22.5 92t-59.5 62.5t-77.5 33.5t-81.5 11h-29v73h33q83 0 144 44.5t61 121.5q0 60 -39 93.5t-105 33.5q-90 0 -180 -63l-37 53q103 82 225 82q99 0 156 -56.5t57 -136.5q0 -64 -37.5 -120 t-115.5 -86q82 -23 135 -86.5t53 -151.5q0 -104 -67 -178t-191 -74q-128 0 -250 78zM473 0l563 1434h80l-561 -1434h-82zM973 70l37 61q106 -74 186 -74q76 0 131 59t55 152q0 87 -47.5 145t-132.5 58q-73 0 -158 -55l-40 22l38 422h392v-69h-328l-21 -285q68 35 132 35 q112 0 179.5 -79.5t67.5 -193.5q0 -116 -68.5 -199t-191.5 -83q-109 0 -231 84z" />
<glyph unicode="&#x2158;" horiz-adv-x="1613" d="M78 772v64l356 598h103v-592h114v-70h-114v-199h-78v199h-381zM158 842h301v508zM506 0l563 1434h80l-561 -1434h-82zM1006 70l36 61q106 -74 187 -74q76 0 131 59t55 152q0 87 -47.5 145t-132.5 58q-73 0 -158 -55l-41 22l39 422h391v-69h-327l-21 -285q68 35 131 35 q112 0 180 -79.5t68 -193.5q0 -116 -68.5 -199t-191.5 -83q-109 0 -231 84z" />
<glyph unicode="&#x2159;" horiz-adv-x="1337" d="M70 1325l174 109h69v-861h-77v775l-130 -80zM264 0l563 1434h80l-561 -1434h-82zM711 358q-1 231 106 373.5t268 142.5q24 0 48.5 -3.5t36.5 -6.5l12 -4l-17 -67q-37 12 -78 12q-111 0 -191.5 -95t-100.5 -264q79 101 200 101q109 0 172.5 -79.5t63.5 -193.5 q0 -120 -69.5 -204t-182.5 -84q-88 0 -150.5 53.5t-90 135.5t-27.5 183zM791 346q0 -128 49 -209.5t137 -81.5q84 0 130 66t46 153q0 51 -16.5 96.5t-56 78t-95.5 32.5q-71 0 -123.5 -43t-70.5 -92z" />
<glyph unicode="&#x215a;" horiz-adv-x="1513" d="M106 643l37 62q106 -74 187 -74q76 0 131 59t55 152q0 87 -47.5 144.5t-132.5 57.5q-73 0 -158 -55l-41 23l39 422h391v-70h-327l-21 -285q68 35 131 35q112 0 180 -79t68 -193q0 -116 -68.5 -199.5t-191.5 -83.5q-110 0 -232 84zM438 0l563 1434h80l-561 -1434h-82z M885 358q-1 230 106 373t269 143q24 0 48 -3.5t36 -6.5l12 -4l-17 -67q-36 12 -77 12q-111 0 -192 -95t-101 -264q79 101 200 101q109 0 172.5 -79.5t63.5 -193.5q0 -120 -69.5 -204t-182.5 -84q-88 0 -150.5 53.5t-90 135.5t-27.5 183zM965 346q0 -128 49 -209.5t137 -81.5 q84 0 130 66t46 153q0 51 -16.5 96.5t-56 78t-95.5 32.5q-71 0 -123.5 -43t-70.5 -92z" />
<glyph unicode="&#x215b;" horiz-adv-x="1370" d="M70 1325l174 109h69v-861h-77v775l-130 -80zM264 0l563 1434h80l-561 -1434h-82zM739 215q0 158 189 248q-146 76 -146 211q0 90 63 145t161 55q99 0 162 -55t63 -145q0 -137 -148 -211q37 -19 66 -39t59 -50t47 -70.5t17 -88.5q0 -106 -75 -167.5t-191 -61.5 t-191.5 61.5t-75.5 167.5zM819 217q0 -75 53.5 -119.5t133.5 -44.5q81 0 134.5 44t53.5 120q0 40 -16 73.5t-45.5 59t-58.5 43t-68 35.5q-39 -18 -67 -35t-58 -42.5t-46 -59.5t-16 -74zM858 666q0 -103 148 -168q145 66 145 168q0 60 -40.5 100.5t-104.5 40.5t-106 -41 t-42 -100z" />
<glyph unicode="&#x215c;" horiz-adv-x="1583" d="M100 637l41 59q32 -22 88 -43.5t113 -21.5q80 0 133 48.5t53 131.5q0 52 -22.5 92t-59.5 62.5t-77.5 33.5t-81.5 11h-29v73h33q83 0 144 44.5t61 121.5q0 60 -39 93.5t-105 33.5q-90 0 -180 -63l-37 53q103 82 225 82q99 0 156 -56.5t57 -136.5q0 -64 -37.5 -120 t-115.5 -86q82 -23 135 -86.5t53 -151.5q0 -104 -67 -178t-191 -74q-128 0 -250 78zM473 0l563 1434h80l-561 -1434h-82zM952 215q0 158 189 248q-146 76 -146 211q0 90 63 145t161 55q99 0 162 -55t63 -145q0 -137 -148 -211q37 -19 66 -39t59 -50t47 -70.5t17 -88.5 q0 -106 -75 -167.5t-191 -61.5t-191.5 61.5t-75.5 167.5zM1032 217q0 -75 53.5 -119.5t133.5 -44.5q81 0 134.5 44t53.5 120q0 40 -16 73.5t-45.5 59t-58.5 43t-68 35.5q-39 -18 -67 -35t-58 -42.5t-46 -59.5t-16 -74zM1071 666q0 -103 148 -168q145 66 145 168 q0 60 -41 100.5t-104 40.5q-64 0 -106 -41t-42 -100z" />
<glyph unicode="&#x215d;" horiz-adv-x="1544" d="M106 643l37 62q106 -74 187 -74q76 0 131 59t55 152q0 87 -47.5 144.5t-132.5 57.5q-73 0 -158 -55l-41 23l39 422h391v-70h-327l-21 -285q68 35 131 35q112 0 180 -79t68 -193q0 -116 -68.5 -199.5t-191.5 -83.5q-110 0 -232 84zM438 0l563 1434h80l-561 -1434h-82z M915 215q0 158 189 248q-146 76 -146 211q0 90 63 145t161 55q99 0 162 -55t63 -145q0 -138 -147 -211q37 -19 65.5 -39t59 -50t47 -70.5t16.5 -88.5q0 -106 -75 -167.5t-191 -61.5t-191.5 61.5t-75.5 167.5zM995 217q0 -75 53.5 -119.5t133.5 -44.5q81 0 134.5 44t53.5 120 q0 40 -16 73.5t-45.5 59t-58.5 43t-68 35.5q-39 -18 -67 -35t-58 -42.5t-46 -59.5t-16 -74zM1034 666q0 -103 148 -168q145 66 145 168q0 60 -40.5 100.5t-104.5 40.5t-106 -41t-42 -100z" />
<glyph unicode="&#x215e;" horiz-adv-x="1392" d="M78 1364v70h469v-60q-11 -16 -29.5 -45.5t-65.5 -119.5t-83 -180.5t-65.5 -216.5t-29.5 -239h-81q0 101 26 217t58.5 204t76 177.5t65 127.5t38.5 65h-379zM285 0l563 1434h80l-561 -1434h-82zM762 215q0 158 188 248q-145 76 -145 211q0 90 62.5 145t160.5 55 q99 0 162 -55t63 -145q0 -138 -147 -211q37 -19 65.5 -39t59 -50t47 -70.5t16.5 -88.5q0 -106 -75 -167.5t-191 -61.5t-191 61.5t-75 167.5zM842 217q0 -76 53.5 -120t132.5 -44q81 0 135 44t54 120q0 40 -16 73.5t-45.5 59t-59 43t-68.5 35.5q-39 -18 -67 -35t-58 -42.5 t-45.5 -59.5t-15.5 -74zM881 666q0 -104 147 -168q146 66 146 168q0 59 -41 100t-105 41t-105.5 -41t-41.5 -100z" />
<glyph unicode="&#x2202;" horiz-adv-x="1040" d="M115 475q0 226 104.5 363t276.5 137q62 0 117 -18t88 -43.5t57.5 -51t34.5 -43.5l10 -18q-13 76 -36.5 150t-63 148.5t-89 130.5t-119 91t-147.5 35q-30 0 -61 -5t-47 -9l-15 -5l-20 72q61 25 145 25q160 0 286 -109t197.5 -307.5t71.5 -452.5q0 -136 -22 -240.5 t-58 -169.5t-87.5 -106t-105 -56.5t-116.5 -15.5q-186 0 -293.5 135.5t-107.5 362.5zM203 475q0 -195 81 -307.5t226 -112.5q143 0 225 110t82 312t-79.5 311t-227.5 109q-146 0 -226.5 -114.5t-80.5 -307.5z" />
<glyph unicode="&#x2206;" horiz-adv-x="1114" d="M49 0l457 1434h102l457 -1434h-1016zM170 82h774l-387 1231z" />
<glyph unicode="&#x220f;" horiz-adv-x="1165" d="M72 1352v82h1022v-82h-189v-1352h-86v1352h-473v-1352h-86v1352h-188z" />
<glyph unicode="&#x2211;" horiz-adv-x="933" d="M113 0v106l473 611l-473 610v107h700v-82h-606l493 -635l-493 -635h606v-82h-700z" />
<glyph unicode="&#x2212;" d="M98 643v78h832v-78h-832z" />
<glyph unicode="&#x221a;" horiz-adv-x="948" d="M70 696h94l217 -514l428 1252h96l-502 -1434h-32z" />
<glyph unicode="&#x221e;" horiz-adv-x="1585" d="M133 528q0 128 83.5 218t211.5 90q56 0 107 -19.5t99.5 -61.5t79 -75t79.5 -92q90 109 135 149q110 99 231 99q126 0 210.5 -90t84.5 -218t-85 -217.5t-212 -89.5q-53 0 -98.5 15.5t-91 52t-82 74.5t-92.5 104q-51 -61 -86 -98.5t-82 -75t-95.5 -55t-103.5 -17.5 q-127 0 -210 89.5t-83 217.5zM219 528q0 -37 12.5 -75t36.5 -72.5t64 -56t90 -21.5q28 0 55 6t53.5 22t45.5 28t46 39.5t39.5 40.5t41.5 46t38 43q-53 61 -85 94.5t-73 68t-79 49t-80 14.5q-51 0 -92 -22t-64.5 -56.5t-36 -73t-12.5 -74.5zM844 528q31 -36 40.5 -47.5 t38.5 -43.5t44 -44.5t42.5 -34.5t49 -30.5t49 -16.5t55.5 -8q65 0 114 37.5t70 87.5t21 100q0 29 -7.5 59t-24.5 60t-40.5 54t-58.5 38.5t-76 14.5q-79 0 -147 -53t-170 -173z" />
<glyph unicode="&#x222b;" horiz-adv-x="675" d="M49 -213h39q51 0 87 10t58.5 37.5t35.5 52t18.5 78.5t6.5 89.5t1 110.5v7v1143q0 114 13.5 187t49 123.5t94.5 71.5t152 21h23v-80h-39q-50 0 -86 -10t-58.5 -37.5t-35 -52t-18 -78.5t-6.5 -89.5t-1 -110.5v-7v-1142q0 -114 -14 -187.5t-49.5 -124t-95 -71.5t-152.5 -21 h-23v80z" />
<glyph unicode="&#x2248;" d="M98 434q78 187 228 187q52 0 107 -22.5t94.5 -49.5t91 -49.5t96.5 -22.5q43 0 78 26.5t69 104.5l68 -30q-76 -187 -225 -187q-52 0 -107.5 22.5t-95 49.5t-91.5 49.5t-98 22.5q-41 0 -76 -27t-69 -105zM98 791q78 186 228 186q52 0 107 -22.5t94.5 -49t91 -49t96.5 -22.5 q43 0 78 26.5t69 104.5l68 -31q-75 -186 -225 -186q-52 0 -107.5 22.5t-95 49t-91.5 49t-98 22.5q-42 0 -76.5 -27t-68.5 -104z" />
<glyph unicode="&#x2260;" d="M98 467v78h328l98 278h-426v78h455l127 363l63 -29l-118 -334h305v-78h-334l-98 -278h432v-78h-459l-127 -358l-61 28l116 330h-301z" />
<glyph unicode="&#x2264;" d="M94 0v78h832v-78h-832zM96 586v78l830 436v-101l-738 -374l738 -375v-100z" />
<glyph unicode="&#x2265;" d="M102 0v78h832v-78h-832zM102 150v100l738 375l-738 374v101l830 -436v-78z" />
<glyph unicode="&#x2318;" horiz-adv-x="1503" d="M141 340q0 106 76.5 182t183.5 76h172v242h-172q-107 0 -183.5 76t-76.5 182q0 107 76.5 182.5t183.5 75.5q106 0 182 -75.5t76 -182.5v-172h187v172q0 107 75.5 182.5t182.5 75.5t182.5 -75.5t75.5 -182.5q0 -106 -75.5 -182t-182.5 -76h-172v-242h172q107 0 182.5 -76 t75.5 -182q0 -107 -75.5 -182.5t-182.5 -75.5t-182.5 75.5t-75.5 182.5v172h-187v-172q0 -107 -76 -182.5t-182 -75.5q-107 0 -183.5 75.5t-76.5 182.5zM227 340q0 -72 51 -122t123 -50q71 0 121.5 50t50.5 122v172h-172q-72 0 -123 -50.5t-51 -121.5zM227 1098 q0 -71 51 -121.5t123 -50.5h172v172q0 72 -50.5 122t-121.5 50q-72 0 -123 -50t-51 -122zM659 598h187v242h-187v-242zM932 340q0 -72 50.5 -122t121.5 -50t121.5 50t50.5 122q0 70 -51 121t-121 51h-172v-172zM932 926h172q70 0 121 51t51 121q0 72 -50.5 122t-121.5 50 t-121.5 -50t-50.5 -122v-172z" />
<glyph unicode="&#x25ca;" horiz-adv-x="954" d="M98 717l322 717h115l321 -717l-321 -717h-115zM195 717l282 -631l283 631l-283 629z" />
<glyph unicode="&#xe000;" horiz-adv-x="1075" d="M0 0v1075h1075v-1075h-1075z" />
<glyph unicode="&#xf639;" d="M96 717q0 360 104.5 549.5t311.5 189.5q209 0 313.5 -189.5t104.5 -549.5t-104.5 -550t-313.5 -190q-207 0 -311.5 190t-104.5 550zM186 717q0 -149 18 -267t56 -207.5t102 -137.5t150 -48q87 0 151 48t102.5 137.5t56.5 207.5t18 267t-18 267t-56.5 207t-102.5 137 t-151 48q-86 0 -150 -48t-102 -137t-56 -207t-18 -267z" />
<glyph unicode="&#xf63a;" d="M135 0v94q0 47 6 90t15 78.5t26 71t32.5 62t40.5 57.5t44 51.5t50 49t51.5 46t55 46.5t54.5 46q84 74 138.5 136t93 141t38.5 157q0 113 -70 180.5t-188 67.5q-88 0 -170.5 -37.5t-136.5 -81.5l-47 68q169 133 356 133q152 0 249 -88t97 -244q0 -112 -62.5 -222 t-120.5 -167.5t-184 -165.5q-9 -8 -14 -12.5t-13 -11.5t-15 -13q-53 -47 -84 -77.5t-64.5 -73.5t-50.5 -83t-28 -95t-11 -121h649v-82h-737z" />
<glyph unicode="&#xf63b;" d="M109 96l49 74q36 -31 128.5 -71t188.5 -40q136 0 227 90.5t91 239.5q0 92 -37.5 164.5t-98 114.5t-128 63t-136.5 21h-43v86h53q136 0 237 83.5t101 219.5q0 110 -68 171.5t-181 61.5q-146 0 -285 -106l-43 61q17 15 42.5 32t70 41t103.5 39t120 15q153 0 241 -91.5 t88 -223.5q0 -104 -62 -200.5t-194 -149.5q136 -35 224 -143t88 -259q0 -79 -26 -152t-75 -131.5t-127.5 -93.5t-175.5 -35q-109 0 -210 38t-162 81z" />
<glyph unicode="&#xf63c;" d="M74 344v78l577 1012h113v-1008h182v-82h-182v-344h-88v344h-602zM164 426h512v899z" />
<glyph unicode="&#xf63d;" d="M137 104l43 74q161 -119 295 -119q129 0 222.5 107.5t93.5 275.5q0 157 -82 263t-222 106q-121 0 -258 -96l-47 20l64 699h592v-82h-521l-38 -529q100 70 221 70q113 0 201.5 -61.5t135 -164.5t46.5 -227q0 -89 -26 -171t-74.5 -147.5t-127 -105t-174.5 -39.5 q-168 0 -344 127z" />
<glyph unicode="&#xf63e;" horiz-adv-x="1030" d="M127 567q-1 175 31 323t87.5 250.5t129.5 175t156.5 106.5t168.5 34q36 0 72.5 -5.5t55.5 -10.5l18 -6l-21 -78q-54 18 -120 18q-65 0 -127.5 -24t-121.5 -75.5t-106 -126.5t-80.5 -183.5t-46.5 -239.5q19 29 44.5 56.5t66 59t97.5 51t120 19.5q90 0 162.5 -37.5 t117.5 -101.5t69 -145t24 -172q0 -129 -45.5 -236.5t-135 -174.5t-206.5 -67q-82 0 -150 34t-115 91t-80 133.5t-48.5 160t-16.5 171.5zM217 567q0 -98 19 -186.5t56.5 -161.5t101 -116.5t143.5 -43.5q95 0 165 59.5t102 148t32 190.5q0 54 -9.5 105.5t-32 100.5t-55 85.5 t-81.5 58.5t-109 22q-63 0 -121 -24t-99.5 -61.5t-70 -79.5t-41.5 -82v-15z" />
<glyph unicode="&#xf63f;" d="M160 1352v82h725v-66q-9 -14 -24.5 -39.5t-61 -108.5t-86.5 -170.5t-91.5 -217t-86.5 -255.5t-61 -280t-25 -297h-97q0 175 42 374.5t94.5 349.5t123 304t104 216.5t60.5 107.5h-616z" />
<glyph unicode="&#xf640;" d="M104 350q0 266 310 420q-242 124 -242 354q0 149 98 240.5t244 91.5t244 -91.5t98 -240.5q0 -229 -244 -354q312 -153 312 -420q0 -173 -118 -273t-292 -100t-292 100t-118 273zM197 350q0 -135 90.5 -213t226.5 -78q135 0 226 78t91 213q0 72 -27.5 132.5t-78.5 106.5 t-99 76.5t-112 61.5q-64 -31 -113 -61.5t-99 -76.5t-77.5 -106.5t-27.5 -132.5zM262 1118q0 -192 250 -303q254 110 254 303q0 108 -72 182t-180 74t-180 -74t-72 -182z" />
<glyph unicode="&#xf641;" horiz-adv-x="1030" d="M104 979q0 128 45.5 236t135.5 174.5t207 66.5q101 0 181.5 -51.5t129 -136.5t74 -188t26.5 -214q1 -175 -31.5 -323t-88 -250.5t-129.5 -175t-156 -106.5t-168 -34q-37 0 -74 5.5t-56 11.5l-18 6l23 78q53 -19 121 -19q81 0 157.5 39t143.5 115.5t114.5 204.5t63.5 291 q-17 -28 -43.5 -56.5t-66.5 -60t-97.5 -51t-120.5 -19.5q-118 0 -204.5 65.5t-127.5 167.5t-41 224zM193 977q0 -68 16.5 -132t49 -119t89.5 -88.5t131 -33.5q120 0 211.5 78.5t122.5 167.5v16q0 98 -19 186.5t-56.5 161.5t-100.5 116.5t-143 43.5q-73 0 -131.5 -34t-95 -91 t-55.5 -127t-19 -145z" />
<glyph unicode="&#xf6c3;" horiz-adv-x="112" d="M0 -483l63 180h-51v166h109l16 -166l-98 -217z" />
<glyph unicode="&#xf6dc;" d="M156 0v82h342v1247l-299 -194l-43 67l354 232h76v-1352h344v-82h-774z" />
<glyph unicode="&#xf6df;" horiz-adv-x="632" d="M92 123q0 153 63 240.5t158 93.5v96h60v-98q26 -6 55.5 -19t46.5 -23.5t44 -29t32 -21.5l-41 -53q-5 3 -23.5 16t-33.5 23t-37.5 21t-42.5 16v-526q25 7 51.5 22t54.5 35.5t31 22.5l41 -58q-3 -2 -32 -21.5t-44.5 -29t-45 -22t-56.5 -17.5v-98h-60v94q-94 8 -157.5 96.5 t-63.5 239.5zM170 123q0 -112 40 -183.5t103 -82.5v532q-63 -11 -103 -82t-40 -184z" />
<glyph unicode="&#xf6e0;" horiz-adv-x="634" d="M92 1219q0 153 63 240t158 93v97h60v-99q27 -6 56 -19t45.5 -22.5t44.5 -29t32 -21.5l-41 -53q-5 3 -23.5 16t-33.5 23t-37.5 21t-42.5 16v-527q25 7 51.5 22t54.5 35.5t31 22.5l41 -57q-3 -2 -32 -21.5t-44.5 -29t-45 -22t-56.5 -17.5v-99h-60v95q-94 8 -157.5 96.5 t-63.5 239.5zM170 1219q0 -112 40 -184t103 -83v533q-63 -11 -103 -82t-40 -184z" />
<glyph unicode="&#xf6e1;" horiz-adv-x="319" d="M106 -430l48 123h-41v131h88l12 -135l-78 -150z" />
<glyph unicode="&#xf6e2;" horiz-adv-x="319" d="M106 666l48 122h-41v132h88l12 -136l-78 -149z" />
<glyph unicode="&#xf6e3;" horiz-adv-x="686" d="M76 -223l41 61q103 -68 198 -84v352l-6 5q-50 22 -80.5 39t-66 46t-53 67.5t-17.5 88.5q0 97 63 153.5t160 61.5v111h60v-115q107 -12 205 -69l-39 -62q-84 45 -166 60v-326q40 -19 65 -32.5t61 -38.5t56 -50t35.5 -63t15.5 -82q0 -101 -67.5 -159t-165.5 -63v-108h-60 v113q-126 16 -239 94zM172 356q0 -58 35.5 -92.5t107.5 -68.5v301q-62 -5 -102.5 -40.5t-40.5 -99.5zM375 78v-328q66 5 110.5 43.5t44.5 106.5q0 60 -39.5 100t-115.5 78z" />
<glyph unicode="&#xf6e4;" horiz-adv-x="686" d="M76 872l41 62q96 -67 198 -84v352l-6 4q-49 22 -80 39.5t-66.5 46t-53 67.5t-17.5 89q0 97 63 153.5t160 61.5v111h60v-115q105 -11 205 -70l-39 -61q-81 43 -166 59v-325q51 -24 82.5 -42.5t71 -51t59.5 -76t20 -97.5q0 -102 -67.5 -160t-165.5 -61v-108h-60v110 q-122 16 -239 96zM172 1452q0 -58 35.5 -93t107.5 -69v301q-62 -5 -102.5 -40t-40.5 -99zM375 846q66 3 110.5 41t44.5 108q0 59 -40.5 100.5t-114.5 78.5v-328z" />
<glyph unicode="&#xf6e7;" horiz-adv-x="315" d="M113 -176h90v-131h-90v131z" />
<glyph unicode="&#xf6e8;" horiz-adv-x="315" d="M113 788v132h90v-132h-90z" />
<glyph unicode="&#xf6e9;" horiz-adv-x="649" d="M72 979q0 106 55 159.5t137 53.5q54 0 199 -37v90q0 71 -26.5 104t-92.5 33q-65 0 -205 -55l-30 59q154 62 243 62q185 0 185 -195v-465h-74v91q-96 -105 -209 -105q-75 0 -128.5 49.5t-53.5 155.5zM150 981q0 -70 32 -103.5t88 -33.5q98 0 193 102v156q-109 31 -172 31 q-141 0 -141 -152z" />
<glyph unicode="&#xf6ea;" horiz-adv-x="681" d="M117 788v895h73v-337q102 102 199 102q93 0 151 -83t58 -255q0 -170 -58 -253t-151 -83q-100 0 -199 103v-89h-73zM190 952q36 -47 85 -78.5t102 -31.5q71 0 108 70.5t37 197.5q0 128 -37 199t-108 71q-54 0 -103 -31.5t-84 -80.5v-316z" />
<glyph unicode="&#xf6eb;" horiz-adv-x="681" d="M82 1110q0 172 59 255t152 83q103 0 196 -102v337h74v-895h-74v86q-96 -100 -196 -100q-93 0 -152 83t-59 253zM160 1110q0 -127 37 -197.5t108 -70.5q51 0 99 30.5t85 77.5v320q-87 110 -184 110q-71 0 -108 -71t-37 -199z" />
<glyph unicode="&#xf6ec;" horiz-adv-x="651" d="M82 1112q0 158 71 247t183 89q109 0 169 -77.5t60 -201.5q0 -20 -1.5 -39.5t-3.5 -29.5l-1 -10h-399q5 -114 49.5 -182t116.5 -68q77 0 202 86l41 -49q-138 -103 -247 -103q-102 0 -171 89t-69 249zM160 1145h329q3 121 -38 180t-115 59q-77 0 -123.5 -64.5t-52.5 -174.5 z" />
<glyph unicode="&#xf6ed;" horiz-adv-x="309" d="M115 1573v108h84v-108h-84zM119 788v646h74v-646h-74z" />
<glyph unicode="&#xf6ee;" horiz-adv-x="307" d="M117 788v895h73v-895h-73z" />
<glyph unicode="&#xf6ef;" horiz-adv-x="1021" d="M119 788v646h74v-99q103 113 208 113q66 0 99 -37t43 -86q41 47 98 85t119 38q79 0 114 -51.5t35 -132.5v-476h-75v465q0 129 -95 129q-50 0 -100.5 -37t-89.5 -85v-472h-74v465q0 129 -94 129q-89 0 -188 -118v-476h-74z" />
<glyph unicode="&#xf6f0;" horiz-adv-x="675" d="M82 1110q0 159 66 248.5t190 89.5q123 0 188.5 -89.5t65.5 -248.5q0 -158 -65.5 -247t-188.5 -89q-124 0 -190 89t-66 247zM160 1110q0 -270 178 -270q90 0 134 71.5t44 198.5q0 128 -43.5 200t-134.5 72q-178 0 -178 -272z" />
<glyph unicode="&#xf6f1;" horiz-adv-x="450" d="M117 788v646h73v-140q5 13 11 25t24.5 38.5t40 44t58 30.5t77.5 10v-74q-53 0 -94 -21t-62 -50.5t-34.5 -59.5t-16.5 -51l-4 -21v-377h-73z" />
<glyph unicode="&#xf6f2;" horiz-adv-x="579" d="M72 852l34 57q114 -71 199 -71q54 0 91.5 27.5t37.5 78.5q0 30 -14.5 54t-44 41t-49.5 25.5t-56 20.5q-32 12 -52.5 21t-49 26t-45 35.5t-29 47.5t-12.5 63q0 78 53.5 124t138.5 46q102 0 211 -66l-36 -53q-89 55 -170 55q-54 0 -88.5 -27t-34.5 -75q0 -28 13.5 -50.5 t35.5 -36t45 -23t46 -16.5q8 -2 11 -3q103 -38 152 -86.5t49 -120.5q0 -83 -57 -127.5t-140 -44.5q-109 0 -239 78z" />
<glyph unicode="&#xf6f3;" horiz-adv-x="446" d="M53 1372v62h76v161l74 25v-186h153v-62h-153v-459q0 -69 53 -69q40 0 106 33l31 -60q-99 -43 -149 -43q-115 0 -115 146v452h-76z" />
<glyph unicode="&#xf8ff;" horiz-adv-x="1720" d="M128 560.5q-2 11.5 15 21.5l58 41q2 1 3.5 2.5l3 3l2.5 2.5t2 3l1 1q19 16 37 -12l33 -64q6 -12 13.5 -15.5t13.5 2t9 17.5l19 70q4 19 18.5 21t26.5 -13l47 -53q13 -15 23.5 -11.5t11.5 23.5l4 70q3 20 15.5 25t27.5 -7l57 -43q17 -12 26 -6.5t5 25.5l-8 69 q-3 20 8.5 28t28.5 -1l63 -29q19 -9 27 -1.5t2 26.5l-23 67q-8 19 1 29t28 4l14 -2q40 -77 70.5 -203t30.5 -217q-15 -18 -34.5 -27.5t-59.5 -9.5h-9q0 47 -32 72q18 -21 18 -55v-15q-33 3 -33 39q0 43 -27.5 72t-76.5 29q-41 0 -68.5 -32t-27.5 -79q0 -60 49.5 -96.5 t138.5 -36.5q106 0 212.5 65t183.5 162.5t125 212.5t48 213q0 59 -36.5 98t-94.5 39q-48 0 -85.5 -33.5t-37.5 -84.5q0 -106 119 -119q-30 -122 -59 -174q-12 96 -43.5 178t-75.5 129q90 -119 106 -330l-28 -41q0 156 -51 287t-132 172q-5 9 2.5 18.5t22.5 12.5l70 12 q19 3 21 13.5t-15 21.5l-60 39q-15 13 -13.5 26.5t20.5 20.5l63 29q14 4 19 10t0 13t-19 13l-63 27q-24 11 -21 29q11 6 14 16l35 62q9 19 20.5 18t16.5 -20l21 -68q6 -21 18.5 -24t26.5 14l47 53q12 15 23 12.5t12 -22.5l4 -72q1 -21 14.5 -26t28.5 8l57 43q15 12 24 5.5 t7 -26.5l-10 -70q-1 -20 10 -27.5t28 1.5l64 33q19 8 26.5 0t0.5 -29l-23 -64q-6 -20 3 -30t28 -4l69 14q20 6 26.5 -2t-3.5 -27l-37 -59q-12 -17 -5.5 -29.5t26.5 -11.5l71 4q21 0 25.5 -11t-8.5 -24l-50 -53q-14 -13 -10 -26.5t25 -16.5l69 -12q13 -3 18.5 -8.5t2.5 -13.5 t-14 -17l-58 -39q-16 -10 -15 -24t21 -21l64 -27q12 -5 16.5 -12t0 -13.5t-16.5 -11.5l-64 -26q-20 -7 -21 -22t15 -25l58 -41q11 -7 14.5 -14.5t-2.5 -13.5t-19 -9l-69 -13q-21 -3 -25 -16.5t10 -28.5l50 -49q13 -14 8.5 -24.5t-25.5 -10.5l-71 5q-20 0 -26.5 -12t5.5 -29 l37 -62q10 -17 3.5 -25.5t-26.5 -5.5l-69 19q-19 4 -28 -6t-3 -29l23 -68q8 -19 0 -26t-27 2l-64 31q-17 9 -28 1t-10 -30l10 -68q1 -21 -7.5 -25.5t-23.5 7.5l-57 43q-15 12 -28.5 5.5t-14.5 -26.5l-4 -69q-1 -20 -12 -23t-23 11l-47 55q-13 14 -26 12t-19 -22l-21 -68 q-3 -13 -9.5 -18t-14 -1t-13.5 15l-35 61q-9 19 -22 19t-25 -19l-30 -61q-6 -11 -13.5 -15t-14 1t-9.5 18l-21 68q-6 20 -19 22t-26 -12l-47 -55q-12 -14 -22 -11t-13 23l-4 69q-2 20 -15 26.5t-30 -5.5l-53 -43q-17 -13 -27 -8t-6 26l10 68q1 22 -10.5 30t-30.5 -1l-61 -31 q-19 -9 -27 -2t0 26l23 68q7 19 -2.5 29.5t-28.5 5.5l-69 -19q-20 -3 -26.5 5.5t3.5 25.5l39 62q11 17 4 29t-27 12l-71 -5q-21 0 -25.5 10.5t8.5 24.5l52 49q13 15 8.5 28.5t-25.5 16.5l-67 13q-22 4 -24 15.5zM604 281q43 -27 123 -27q106 0 212.5 65t183.5 162t125 212 t48 214q0 63 -41 101q25 -39 25 -84q0 -100 -47.5 -215t-126.5 -215q-85 -105 -188.5 -168.5t-212.5 -63.5q-58 0 -101 19z" />
<glyph unicode="&#xfb06;" horiz-adv-x="1480" d="M98 104l45 68q72 -48 156 -82.5t156 -34.5q90 0 156.5 51t66.5 146q0 33 -10 62.5t-23.5 51t-39.5 42.5t-44.5 34t-52 28.5t-49.5 22t-49 19.5q-37 14 -58.5 23t-56.5 26.5t-56 33t-47 40.5t-40.5 51t-24.5 62t-10 77q0 128 83.5 200.5t209.5 72.5q75 0 163 -31 q-18 49 -18 119q0 144 78 225.5t209 81.5q147 0 221 -96.5t74 -263.5v-58h243v-74h-243v-825q0 -121 86 -121q67 0 180 58l37 -68q-132 -68 -223 -68q-164 0 -164 209v815h-123v74h123v78q0 124 -51 199t-164 75q-105 0 -161 -68.5t-56 -184.5q0 -78 26 -138l80 -43l-49 -65 q-151 92 -270 92q-91 0 -150 -50.5t-59 -138.5q0 -31 8.5 -58t20.5 -46.5t33.5 -38.5t37 -30t44 -24.5t41.5 -18.5t40 -15q3 -1 5 -2t5.5 -2t5.5 -2q167 -64 244.5 -144t77.5 -196q0 -70 -25.5 -124.5t-69 -87t-96 -49t-110.5 -16.5q-169 0 -363 127z" />
<glyph horiz-adv-x="700" d="M82 1159q0 120 69.5 204.5t184.5 84.5q86 0 148 -53.5t90 -136t28 -183.5q1 -230 -106 -373t-269 -143q-24 0 -48 3.5t-36 7.5l-12 3l19 68q34 -12 73 -12q113 0 195 95t100 267q-26 -39 -77 -71.5t-124 -32.5q-111 0 -173 78.5t-62 193.5zM160 1159q0 -82 43 -144.5 t127 -62.5q70 0 123 44t71 94q-2 128 -51 208t-137 80q-83 0 -129.5 -66t-46.5 -153z" />
<glyph horiz-adv-x="1091" d="M74 1432q0 109 49.5 170t138.5 61q88 0 137.5 -61t49.5 -170q0 -107 -49.5 -168.5t-137.5 -61.5q-89 0 -138.5 61t-49.5 169zM141 1432q0 -80 31 -127.5t90 -47.5t90 47.5t31 127.5q0 82 -30.5 128t-90.5 46t-90.5 -46t-30.5 -128zM313 780l394 869h67l-393 -869h-68z M641 1006q0 108 50.5 168.5t139.5 60.5q88 0 137.5 -60.5t49.5 -168.5t-50 -170t-137 -62q-89 0 -139.5 62t-50.5 170zM709 1006q0 -80 30.5 -127.5t91.5 -47.5q58 0 88.5 48t30.5 127q0 80 -30.5 127t-88.5 47q-61 0 -91.5 -46.5t-30.5 -127.5z" />
<glyph horiz-adv-x="1939" d="M76 1001v74h123v189q0 62 17 105.5t47.5 65t64 30t75.5 8.5q92 0 347 -60q50 80 178 80q115 0 313 -55v55h84v-1051l416 633h98l-303 -440l356 -635h-92l-313 561l-162 -237v-324h-84v1358q-248 57 -321 57q-49 0 -82 -30.5t-33 -90.5v-219h246v-74h-246v-1001h-84v1001 h-438v-1001h-84v1001h-123zM283 1075h438v209q0 39 4 55q-252 56 -328 56q-50 0 -82 -30.5t-32 -90.5v-199z" />
<glyph horiz-adv-x="1501" d="M76 1001v74h123v189q0 62 17 105.5t47.5 65t64 30t75.5 8.5q92 0 347 -60q50 80 178 80q115 0 313 -55v55h84v-1493h-84v1358q-248 57 -321 57q-49 0 -82 -30.5t-33 -90.5v-219h246v-74h-246v-1001h-84v1001h-438v-1001h-84v1001h-123zM283 1075h438v209q0 39 4 55 q-252 56 -328 56q-50 0 -82 -30.5t-32 -90.5v-199z" />
<glyph horiz-adv-x="1634" d="M76 1001v74h123v189q0 62 17 105.5t47.5 65t64 30t75.5 8.5q100 0 340 -60q37 80 146 80q83 0 239 -61l-34 -68q-142 51 -201 51q-88 0 -88 -121v-219h401v271l84 40v-311h246v-74h-246v-825q0 -121 86 -121q67 0 180 58l37 -68q-132 -68 -223 -68q-164 0 -164 209v815 h-401v-1001h-84v1001h-438v-1001h-84v1001h-123zM283 1075h438v209q0 39 2 55q-252 56 -326 56q-50 0 -82 -30.5t-32 -90.5v-199z" />
<glyph horiz-adv-x="1576" d="M76 1001v74h123v209q0 62 17 105.5t47.5 65t64 30t75.5 8.5q118 0 316 -55v55h84v-586q31 30 66 57.5t86.5 60.5t111 53t115.5 20q66 0 114 -24.5t74 -68t37.5 -94t11.5 -112.5v-799h-84v791q0 229 -168 229q-50 0 -107.5 -22.5t-107.5 -57.5t-86 -66t-63 -59v-815h-84 v1358q-248 57 -322 57q-50 0 -82 -30.5t-32 -90.5v-219h245v-74h-245v-1001h-84v1001h-123z" />
<glyph horiz-adv-x="1449" d="M76 1001v74h123v189q0 62 17 105.5t47.5 65t64 30t75.5 8.5q92 0 347 -60q50 80 178 80q117 0 319 -61l-39 -70q-201 53 -288 53q-49 0 -82 -30.5t-33 -90.5v-219h481v-1075h-84v1001h-397v-1001h-84v1001h-438v-1001h-84v1001h-123zM283 1075h438v209q0 39 4 55 q-252 56 -328 56q-50 0 -82 -30.5t-32 -90.5v-199z" />
<glyph horiz-adv-x="925" d="M76 1001v74h123v209q0 62 17 105.5t47.5 65t64 30t75.5 8.5q120 0 322 -61l-39 -70q-208 53 -289 53q-49 0 -81.5 -30.5t-32.5 -90.5v-219h479v-1075h-84v1001h-395v-1001h-84v1001h-123z" />
<glyph horiz-adv-x="925" d="M76 1001v74h123v209q0 62 17 105.5t47.5 65t64 30t75.5 8.5q120 0 322 -61l-39 -70q-208 53 -289 53q-49 0 -81.5 -30.5t-32.5 -90.5v-219h479v-1161v-54.5t-2 -46t-5 -41t-9 -34t-15 -32t-23 -26.5t-32 -26t-42.5 -23.5t-54 -24.5t-67.5 -24l-31 72q40 16 65.5 26.5 t48.5 24.5t35 21.5t23 25t15 27.5t7 36t3 43v56v1087h-395v-1001h-84v1001h-123z" />
<glyph horiz-adv-x="1417" d="M76 1001v74h123v209q0 62 17 105.5t47.5 65t64 30t75.5 8.5q118 0 316 -55v55h84v-1051l416 633h98l-303 -440l356 -635h-92l-313 561l-162 -237v-324h-84v1358q-248 57 -322 57q-50 0 -82 -30.5t-32 -90.5v-219h245v-74h-245v-1001h-84v1001h-123z" />
<glyph horiz-adv-x="2099" d="M76 1001v74h123v189q0 62 17 105.5t47.5 65t64 30t75.5 8.5q92 0 347 -60q50 80 178 80q115 0 313 -55v55h84v-586q31 30 66 57.5t86.5 60.5t111 53t115.5 20q66 0 114 -24.5t74 -68t38 -94.5t12 -112v-799h-84v791q0 229 -168 229q-65 0 -145 -40.5t-131 -82.5t-89 -82 v-815h-84v1358q-248 57 -321 57q-49 0 -82 -30.5t-33 -90.5v-219h246v-74h-246v-1001h-84v1001h-438v-1001h-84v1001h-123zM283 1075h438v209q0 39 4 55q-252 56 -328 56q-50 0 -82 -30.5t-32 -90.5v-199z" />
<glyph horiz-adv-x="978" d="M76 1001v74h123v209q0 62 17 105.5t47.5 65t64 30t75.5 8.5q98 0 318 -55v55h84v-1493h-84v1358q-240 57 -324 57q-50 0 -82 -30.5t-32 -90.5v-219h245v-74h-245v-1001h-84v1001h-123z" />
<glyph horiz-adv-x="1112" d="M76 1001v74h123v209q0 119 44.5 164t118.5 45q80 0 244 -61l-37 -68q-142 51 -200 51q-86 0 -86 -121v-219h401v271l84 40v-311h246v-74h-246v-825q0 -121 86 -121q67 0 180 58l37 -68q-132 -68 -223 -68q-164 0 -164 209v815h-401v-1001h-84v1001h-123z" />
<glyph horiz-adv-x="409" d="M59 276v62h76v106q0 80 31 112t86 32q59 0 160 -39l-31 -57q-81 28 -119 28q-53 0 -53 -69v-113h151v-62h-151v-583h-74v583h-76z" />
<glyph horiz-adv-x="1064" d="M168 377v799h86v-795q0 -72 11.5 -125.5t41 -99.5t86 -70.5t139.5 -24.5q81 0 138 24.5t86.5 70.5t42 100t12.5 125v795h86v-799q0 -69 -11.5 -126.5t-38.5 -108t-68 -85.5t-104 -55t-143 -20q-364 0 -364 395zM422 1288l203 256h145l-274 -256h-74z" />
<glyph horiz-adv-x="659" d="M82 70l37 61q106 -74 186 -74q76 0 131.5 59.5t55.5 151.5q0 87 -48 145t-133 58q-72 0 -157 -55l-41 22l39 422h391v-69h-328l-20 -285q68 35 131 35q112 0 179.5 -79.5t67.5 -193.5q0 -116 -68.5 -199t-191.5 -83q-109 0 -231 84z" />
<glyph horiz-adv-x="659" d="M82 643l37 62q106 -74 186 -74q76 0 131.5 59.5t55.5 151.5q0 87 -48 144.5t-133 57.5q-72 0 -157 -55l-41 23l39 422h391v-70h-328l-20 -285q68 35 131 35q112 0 179.5 -79t67.5 -193q0 -116 -68.5 -199.5t-191.5 -83.5q-109 0 -231 84z" />
<glyph horiz-adv-x="964" d="M104 -154l43 74q161 -119 295 -119q129 0 222.5 107.5t93.5 275.5q0 157 -81.5 263t-221.5 106q-121 0 -258 -96l-47 20l63 699h592v-82h-520l-39 -529q100 70 221 70q113 0 201.5 -61.5t135 -164.5t46.5 -227q0 -89 -26 -171t-74.5 -147.5t-126.5 -105t-174 -39.5 q-169 0 -345 127z" />
<glyph horiz-adv-x="2093" d="M76 1001v74h123v189q0 62 17 105.5t47.5 65t64 30t75.5 8.5q92 0 347 -60q50 80 178 80q115 0 313 -55v55h84v-573q151 178 320 178q54 0 102 -18.5t90.5 -61t73 -106.5t48 -159.5t17.5 -215.5q0 -148 -26.5 -259t-73.5 -175t-104.5 -95t-126.5 -31q-170 0 -320 177v-154 h-84v1358q-248 57 -321 57q-49 0 -82 -30.5t-33 -90.5v-219h246v-74h-246v-1001h-84v1001h-438v-1001h-84v1001h-123zM283 1075h438v209q0 39 4 55q-252 56 -328 56q-50 0 -82 -30.5t-32 -90.5v-199zM1325 252q58 -84 141.5 -140.5t173.5 -56.5q121 0 184.5 128t63.5 354 q0 227 -63.5 355t-184.5 128q-90 0 -173.5 -56.5t-141.5 -140.5v-571z" />
<glyph horiz-adv-x="1382" d="M109 528l32 56q14 -11 34.5 -23t58 -25.5t71.5 -13.5q64 0 111 47t47 121q0 71 -41 117.5t-113 46.5q-61 0 -137 -45l-37 20l33 347h344v-64h-287l-16 -225q51 28 113 28q98 0 156.5 -65.5t58.5 -159.5q0 -95 -59.5 -163t-166.5 -68q-94 0 -202 69zM399 0l488 1176h76 l-490 -1176h-74zM813 176q0 128 162 205q-125 61 -125 170q0 74 55.5 120t141.5 46q87 0 141.5 -45.5t54.5 -120.5q0 -110 -127 -172q164 -73 164 -203q0 -87 -65.5 -137.5t-167.5 -50.5q-100 0 -167 50.5t-67 137.5zM885 178q0 -59 46.5 -94t115.5 -35q70 0 115.5 34.5 t45.5 94.5q0 32 -13.5 59.5t-39 48.5t-50.5 35.5t-58 28.5q-72 -31 -117 -71t-45 -101zM920 545q0 -84 124 -137q130 48 130 137q0 47 -36.5 80.5t-90.5 33.5t-90.5 -33.5t-36.5 -80.5z" />
<glyph horiz-adv-x="1351" d="M109 528l34 56q80 -62 162 -62q65 0 112.5 47t47.5 121q0 70 -41.5 117t-114.5 47q-59 0 -135 -45l-39 20l35 347h342v-64h-285l-16 -225q51 28 113 28q97 0 156 -65.5t59 -159.5q0 -95 -60 -163t-168 -68q-94 0 -202 69zM401 0l488 1176h74l-490 -1176h-72zM788 293 q-1 190 93 307t235 117q22 0 43 -3t31 -6l10 -3l-14 -58q-33 8 -68 8q-97 0 -167 -75.5t-87 -212.5q65 82 174 82q94 0 149.5 -65t55.5 -159q0 -99 -60.5 -168t-160.5 -69q-114 0 -174 88t-60 217zM860 281q2 -101 45 -165.5t117 -64.5q71 0 110 52t39 122q0 66 -36 115 t-107 49q-61 0 -107.5 -34.5t-60.5 -73.5z" />
<glyph horiz-adv-x="1101" d="M76 1001v74h123v189q0 62 17 105.5t47.5 65t64 30t75.5 8.5q100 0 340 -60q39 80 142 80q71 0 243 -61l-36 -68q-142 51 -201 51q-86 0 -86 -121v-219h246v-74h-246v-1001h-84v1001h-438v-1001h-84v1001h-123zM283 1075h438v209q0 39 2 55q-252 56 -326 56 q-50 0 -82 -30.5t-32 -90.5v-199z" />
<glyph horiz-adv-x="1064" d="M168 377v799h86v-795q0 -72 11.5 -125.5t41 -99.5t86 -70.5t139.5 -24.5q81 0 138 24.5t86.5 70.5t42 100t12.5 125v795h86v-799q0 -69 -11.5 -126.5t-38.5 -108t-68 -85.5t-104 -55t-143 -20q-364 0 -364 395z" />
<glyph horiz-adv-x="659" d="M55 1577v72h547v-72h-235v-789h-78v789h-234z" />
<glyph horiz-adv-x="704" d="M66 199v63l356 598h102v-592h115v-69h-115v-199h-78v199h-380zM145 268h301v508z" />
<glyph horiz-adv-x="704" d="M66 772v64l356 598h102v-592h115v-70h-115v-199h-78v199h-380zM145 842h301v508z" />
<glyph horiz-adv-x="1040" d="M80 86v78l577 1012h113v-1008h182v-82h-182v-344h-88v344h-602zM170 168h512v899z" />
<glyph horiz-adv-x="1159" d="M76 1001v74h123v209q0 119 44.5 164t118.5 45q72 0 244 -61l-37 -68q-142 51 -200 51q-86 0 -86 -121v-219h245v-74h-245v-1001h-84v1001h-123zM655 1001v74h123v209q0 209 160 209q72 0 201 -47l-33 -68q-115 37 -158 37q-86 0 -86 -121v-219h246v-74h-246v-1001h-84 v1001h-123z" />
<glyph horiz-adv-x="1441" d="M86 631v55l311 490h88v-484h101v-61h-101v-160h-67v160h-332zM156 692h262v414zM461 0l487 1176h74l-487 -1176h-74zM897 57l33 56q13 -10 32.5 -21.5t57 -25t70.5 -13.5q67 0 114 47t47 121q0 69 -40.5 115.5t-112.5 46.5t-140 -45l-36 20l34 347h342v-62h-288l-17 -229 q58 30 117 30q98 0 156.5 -64.5t58.5 -158.5q0 -96 -59.5 -164.5t-167.5 -68.5q-93 0 -201 69z" />
<glyph horiz-adv-x="1570" d="M76 1001v74h123v209q0 62 17 105.5t47.5 65t64 30t75.5 8.5q118 0 316 -55v55h84v-573q151 178 319 178q54 0 102 -18.5t90.5 -61t73 -106.5t48.5 -159.5t18 -215.5q0 -148 -26.5 -259t-73.5 -175t-105 -95t-127 -31q-169 0 -319 177v-154h-84v1358q-248 57 -322 57 q-50 0 -82 -30.5t-32 -90.5v-219h245v-74h-245v-1001h-84v1001h-123zM803 252q58 -84 141.5 -140.5t173.5 -56.5q121 0 184.5 128t63.5 354q0 227 -63.5 355t-184.5 128q-90 0 -173.5 -56.5t-141.5 -140.5v-571z" />
<glyph horiz-adv-x="579" d="M76 1001v74h123v209q0 209 159 209q72 0 201 -47l-33 -68q-115 37 -157 37q-86 0 -86 -121v-219h245v-74h-245v-1001h-84v1001h-123z" />
<glyph horiz-adv-x="1003" d="M127 299v74h94v1061h699v-82h-611v-594h490v-82h-490v-303h301v-74h-301v-299h-88v299h-94z" />
<glyph horiz-adv-x="915" d="M127 240v67h82v869h614v-78h-528v-471h422v-78h-422v-242h262v-67h-262v-240h-86v240h-82z" />
<glyph horiz-adv-x="671" d="M86 -82h61v635h457v-72h-379v-323h303v-70h-303v-170h191v-55h-191v-170h-78v170h-61v55z" />
<glyph horiz-adv-x="673" d="M88 958v56h62v635h456v-72h-379v-324h303v-69h-303v-170h191v-56h-191v-170h-77v170h-62z" />
<glyph horiz-adv-x="409" d="M59 1372v62h76v106q0 80 31 111.5t86 31.5q62 0 160 -38l-31 -58q-83 29 -119 29q-53 0 -53 -70v-112h151v-62h-151v-584h-74v584h-76z" />
<glyph horiz-adv-x="659" d="M55 481v72h547v-72h-235v-788h-78v788h-234z" />
<glyph horiz-adv-x="987" d="M178 0v1176h86v-222h238q383 0 383 -344q0 -352 -383 -352h-238v-258h-86zM264 336h244q132 0 210.5 65.5t78.5 208.5q0 267 -289 267h-244v-541z" />
<glyph horiz-adv-x="854" d="M55 1098v78h744v-78h-328v-1098h-14q10 -11 23 -32.5t27.5 -63.5t14.5 -82q0 -71 -44.5 -114.5t-115.5 -43.5q-63 0 -122 35l26 72q23 -13 32 -17.5t23.5 -9t30.5 -4.5q47 0 75 26.5t28 79.5q0 47 -18 90t-34 64h-18v1098h-330z" />
<glyph horiz-adv-x="854" d="M55 1098v78h744v-78h-328v-1098h-86v1098h-330zM205 1544h71l148 -190l151 190h72l-162 -256h-120z" />
<glyph horiz-adv-x="874" d="M66 1098v78h743v-78h-328v-631h166v-68h-166v-399h-86v399h-170v68h170v631h-329z" />
<glyph horiz-adv-x="724" d="M119 -307v626q0 273 229 273q102 0 166 -52.5t64 -144.5q0 -31 -8 -57t-16 -36l-7 -11q-22 -9 -36 -16t-34.5 -21t-31.5 -34.5t-11 -45.5q0 -12 2 -22t8.5 -20.5t11.5 -17.5t16.5 -18.5t18.5 -17.5t23.5 -20t24.5 -21q36 -31 56 -51.5t39 -59t19 -82.5 q0 -77 -48.5 -121.5t-123.5 -44.5q-89 0 -202 64l32 55q95 -55 164 -55q44 0 74.5 27t30.5 77q0 39 -21.5 68.5t-71.5 71.5q-3 3 -24.5 20t-27 22.5t-22 21t-22 25.5t-14.5 25.5t-12 32t-3 35.5q0 114 136 168q8 32 8 55q0 64 -42 100.5t-112 36.5q-159 0 -159 -211v-624 h-74z" />
<glyph horiz-adv-x="724" d="M119 788v627q0 273 229 273q102 0 166 -52.5t64 -144.5q0 -31 -8 -57.5t-16 -37.5l-7 -10q-18 -7 -28.5 -11.5t-28.5 -15.5t-28.5 -22t-19 -28.5t-8.5 -38.5q0 -12 2 -22t8.5 -20.5t11.5 -17.5t16.5 -18.5t18.5 -17.5t23.5 -20t24.5 -21q36 -31 56 -51.5t39 -59t19 -82.5 q0 -77 -48.5 -121.5t-123.5 -44.5q-89 0 -202 64l32 55q95 -55 164 -55q44 0 74.5 27t30.5 77q0 38 -21 67t-72 72q-4 4 -21.5 18t-23 19t-20.5 18.5t-20.5 21t-15 21.5t-13.5 25.5t-7.5 27.5t-3.5 32q0 114 136 168q8 32 8 55q0 64 -42 100.5t-112 36.5q-159 0 -159 -211 v-625h-74z" />
<glyph horiz-adv-x="681" d="M82 14q0 172 59 255t152 83q103 0 196 -102v88h74v-692q0 -215 -203 -215q-113 0 -251 43q6 27 18 67q137 -45 223 -45q69 0 104 35t35 113v135q-97 -101 -196 -101q-93 0 -152 83t-59 253zM160 14q0 -127 37 -197.5t108 -70.5q98 0 184 109v319q-88 111 -184 111 q-71 0 -108 -71.5t-37 -199.5z" />
<glyph horiz-adv-x="854" d="M55 1098v78h744v-78h-328v-1098h-86v1098h-330z" />
<glyph horiz-adv-x="700" d="M84 872l41 62q135 -88 244 -88q71 0 120.5 38.5t49.5 110.5q0 23 -7 43.5t-15.5 36t-29 32.5t-33 26.5t-43 26t-44.5 23t-50 23.5q-49 22 -80 39.5t-66.5 46t-53 67.5t-17.5 89q0 101 67.5 158t168.5 57q62 0 131 -21.5t121 -52.5l-39 -61q-119 63 -209 63 q-67 0 -113.5 -35.5t-46.5 -103.5q0 -29 11.5 -53.5t24.5 -40t46 -35t51 -28t64 -29.5q52 -24 84 -42.5t73 -51.5t61.5 -77.5t20.5 -99.5q0 -105 -72 -163t-175 -58q-137 0 -285 98z" />
<glyph horiz-adv-x="1064" d="M168 377v799h86v-795q0 -72 11.5 -125.5t41 -99.5t86 -70.5t139.5 -24.5q81 0 138 24.5t86.5 70.5t42 100t12.5 125v795h86v-799q0 -69 -11.5 -126.5t-38.5 -108t-68 -85.5t-104 -55t-143 -20q-364 0 -364 395zM311 1487h74q0 -123 145 -123q150 0 150 123h72 q0 -91 -59 -145t-163 -54q-102 0 -160.5 54t-58.5 145z" />
<glyph horiz-adv-x="681" d="M82 1110q0 172 59 255t152 83q103 0 196 -102v88h74v-693q0 -215 -203 -215q-113 0 -251 43q7 31 18 68q137 -45 223 -45q70 0 104.5 35t34.5 112v135q-96 -100 -196 -100q-93 0 -152 83t-59 253zM160 1110q0 -127 37 -197.5t108 -70.5q51 0 99 30.5t85 77.5v320 q-87 110 -184 110q-71 0 -108 -71t-37 -199z" />
<glyph horiz-adv-x="698" d="M84 -223l41 61q135 -88 244 -88q71 0 120.5 39t49.5 111q0 23 -7 43.5t-15.5 36t-29 32.5t-33 26.5t-43 26t-44.5 23t-50 23.5q-50 22 -80.5 39t-66 46t-53 67.5t-17.5 88.5q0 101 67.5 158t168.5 57q62 0 131 -21.5t121 -51.5l-39 -62q-121 64 -209 64q-67 0 -113.5 -36 t-46.5 -104q0 -29 11.5 -53.5t24.5 -40t46 -35t51 -28t64 -29.5q41 -19 66.5 -32t62.5 -38.5t57.5 -51.5t36.5 -64.5t16 -83.5q0 -105 -72 -163.5t-175 -58.5q-135 0 -285 99z" />
<glyph horiz-adv-x="917" d="M100 109l45 67q196 -117 338 -117q104 0 178 56.5t74 160.5q0 46 -17 85.5t-41.5 67.5t-69 57t-81 47t-96.5 45q-45 20 -66 30t-60.5 31t-59.5 36.5t-47 42t-40.5 52.5t-23.5 61.5t-10 75.5q0 136 91.5 211.5t223.5 75.5q84 0 177 -28t163 -68l-43 -68q-168 86 -297 86 q-95 0 -162 -52.5t-67 -152.5q0 -51 16.5 -89t60.5 -70t74 -48t102 -48q10 -5 15 -7q60 -26 96 -43.5t88.5 -52.5t82.5 -69.5t52.5 -88.5t22.5 -116q0 -75 -29 -133.5t-78 -93t-107 -52.5t-122 -18q-97 0 -199.5 38t-183.5 89zM401 -483l64 180h-51v166h108l17 -166 l-99 -217z" />
<glyph horiz-adv-x="356" d="M133 788v127h90v-127h-90zM133 1649h90l-20 -611h-47z" />
<glyph horiz-adv-x="356" d="M133 -180h90v-127h-90v127zM133 553h90l-20 -610h-47z" />
<glyph horiz-adv-x="917" d="M100 109l45 67q196 -117 338 -117q104 0 178 56.5t74 160.5q0 46 -17 85.5t-41.5 67.5t-69 57t-81 47t-96.5 45q-45 20 -66 30t-60.5 31t-59.5 36.5t-47 42t-40.5 52.5t-23.5 61.5t-10 75.5q0 136 91.5 211.5t223.5 75.5q84 0 177 -28t163 -68l-43 -68q-168 86 -297 86 q-95 0 -162 -52.5t-67 -152.5q0 -51 16.5 -89t60.5 -70t74 -48t102 -48q10 -5 15 -7q60 -26 96 -43.5t88.5 -52.5t82.5 -69.5t52.5 -88.5t22.5 -116q0 -75 -29 -133.5t-78 -93t-107 -52.5t-122 -18q-97 0 -199.5 38t-183.5 89zM240 1288l159 256h121l162 -256h-72l-151 191 l-148 -191h-71z" />
<glyph horiz-adv-x="917" d="M100 109l45 67q196 -117 338 -117q104 0 178 56.5t74 160.5q0 46 -17 85.5t-41.5 67.5t-69 57t-81 47t-96.5 45q-45 20 -66 30t-60.5 31t-59.5 36.5t-47 42t-40.5 52.5t-23.5 61.5t-10 75.5q0 136 91.5 211.5t223.5 75.5q84 0 177 -28t163 -68l-43 -68q-168 86 -297 86 q-95 0 -162 -52.5t-67 -152.5q0 -51 16.5 -89t60.5 -70t74 -48t102 -48q10 -5 15 -7q60 -26 96 -43.5t88.5 -52.5t82.5 -69.5t52.5 -88.5t22.5 -116q0 -135 -87.5 -210t-213.5 -85q53 -82 53 -162q0 -72 -44 -115t-115 -43q-64 0 -123 35l26 72q23 -13 32 -17.5t23.5 -9 t30.5 -4.5q47 0 75 26.5t28 79.5q0 55 -39 136q-178 8 -365 127z" />
<glyph horiz-adv-x="690" d="M117 -307v895h73v-346q121 110 234 110q154 0 154 -184v-475h-74v465q0 129 -98 129q-57 0 -118.5 -38.5t-97.5 -78.5v-477h-73z" />
<glyph horiz-adv-x="917" d="M100 109l45 67q196 -117 338 -117q104 0 178 56.5t74 160.5q0 46 -17 85.5t-41.5 67.5t-69 57t-81 47t-96.5 45q-45 20 -66 30t-60.5 31t-59.5 36.5t-47 42t-40.5 52.5t-23.5 61.5t-10 75.5q0 136 91.5 211.5t223.5 75.5q84 0 177 -28t163 -68l-43 -68q-168 86 -297 86 q-95 0 -162 -52.5t-67 -152.5q0 -51 16.5 -89t60.5 -70t74 -48t102 -48q10 -5 15 -7q60 -26 96 -43.5t88.5 -52.5t82.5 -69.5t52.5 -88.5t22.5 -116q0 -75 -29 -133.5t-78 -93t-107 -52.5t-122 -18q-97 0 -199.5 38t-183.5 89zM240 1544h71l148 -190l151 190h72l-162 -256 h-121z" />
<glyph horiz-adv-x="356" d="M133 788l21 611h47l22 -611h-90zM133 1522v127h90v-127h-90z" />
<glyph horiz-adv-x="917" d="M100 109l45 67q196 -117 338 -117q104 0 178 56.5t74 160.5q0 46 -17 85.5t-41.5 67.5t-69 57t-81 47t-96.5 45q-45 20 -66 30t-60.5 31t-59.5 36.5t-47 42t-40.5 52.5t-23.5 61.5t-10 75.5q0 136 91.5 211.5t223.5 75.5q84 0 177 -28t163 -68l-43 -68q-168 86 -297 86 q-95 0 -162 -52.5t-67 -152.5q0 -51 16.5 -89t60.5 -70t74 -48t102 -48q10 -5 15 -7q60 -26 96 -43.5t88.5 -52.5t82.5 -69.5t52.5 -88.5t22.5 -116q0 -75 -29 -133.5t-78 -93t-107 -52.5t-122 -18q-97 0 -199.5 38t-183.5 89zM350 1288l203 256h145l-274 -256h-74z" />
<glyph horiz-adv-x="917" d="M100 109l45 67q196 -117 338 -117q104 0 178 56.5t74 160.5q0 46 -17 85.5t-41.5 67.5t-69 57t-81 47t-96.5 45q-45 20 -66 30t-60.5 31t-59.5 36.5t-47 42t-40.5 52.5t-23.5 61.5t-10 75.5q0 136 91.5 211.5t223.5 75.5q84 0 177 -28t163 -68l-43 -68q-168 86 -297 86 q-95 0 -162 -52.5t-67 -152.5q0 -51 16.5 -89t60.5 -70t74 -48t102 -48q10 -5 15 -7q60 -26 96 -43.5t88.5 -52.5t82.5 -69.5t52.5 -88.5t22.5 -116q0 -75 -29 -133.5t-78 -93t-107 -52.5t-122 -18q-97 0 -199.5 38t-183.5 89z" />
<glyph horiz-adv-x="776" d="M137 788v861h269q129 0 204.5 -57.5t75.5 -186.5q0 -108 -55.5 -166t-151.5 -72l209 -379h-86l-199 375h-188v-375h-78zM215 1233h188q94 0 148.5 41.5t54.5 130.5q0 90 -53.5 132t-144.5 42h-193v-346z" />
<glyph horiz-adv-x="776" d="M137 -307v860h269q129 0 204.5 -57.5t75.5 -186.5q0 -206 -207 -237l209 -379h-86l-199 375h-188v-375h-78zM215 137h188q94 0 148.5 41.5t54.5 130.5q0 90 -53.5 132t-144.5 42h-193v-346z" />
<glyph horiz-adv-x="1036" d="M178 0v1176h357q82 0 148.5 -16.5t120.5 -53t84 -102t30 -156.5q0 -281 -289 -322l291 -526h-97l-282 522h-277v-522h-86zM264 600h268q139 0 218 59.5t79 188.5t-77.5 189.5t-210.5 60.5h-277v-498zM444 -483l64 180h-51v166h108l17 -166l-99 -217z" />
<glyph horiz-adv-x="1036" d="M178 0v1176h357q82 0 148.5 -16.5t120.5 -53t84 -102t30 -156.5q0 -281 -289 -322l291 -526h-97l-282 522h-277v-522h-86zM264 600h268q139 0 218 59.5t79 188.5t-77.5 189.5t-210.5 60.5h-277v-498zM328 1544h71l148 -190l151 190h72l-162 -256h-121z" />
<glyph horiz-adv-x="1036" d="M178 0v1176h357q82 0 148.5 -16.5t120.5 -53t84 -102t30 -156.5q0 -281 -289 -322l291 -526h-97l-282 522h-277v-522h-86zM264 600h268q139 0 218 59.5t79 188.5t-77.5 189.5t-210.5 60.5h-277v-498zM438 1288l203 256h145l-274 -256h-74z" />
<glyph horiz-adv-x="309" d="M115 477v109h84v-109h-84zM119 -307v645h74v-645h-74z" />
<glyph horiz-adv-x="1036" d="M178 0v1176h357q82 0 148.5 -16.5t120.5 -53t84 -102t30 -156.5q0 -281 -289 -322l291 -526h-97l-282 522h-277v-522h-86zM264 600h268q139 0 218 59.5t79 188.5t-77.5 189.5t-210.5 60.5h-277v-498z" />
<glyph horiz-adv-x="829" d="M96 1219q0 95 17 173t53 140t99 96.5t149 34.5q85 0 147.5 -34.5t99 -96.5t53.5 -140t17 -173q0 -171 -56.5 -287.5t-178.5 -147.5l131 -120l-56 -58l-157 168q-86 0 -149 35t-99 97.5t-53 140t-17 172.5zM176 1219q0 -373 238 -373q65 0 112.5 29t74 81.5t38.5 117 t12 145.5q0 372 -237 372q-238 0 -238 -372z" />
<glyph horiz-adv-x="352" d="M131 -307l21 610h47l22 -610h-90zM131 426v127h90v-127h-90z" />
<glyph horiz-adv-x="495" d="M195 1014v162h106v-162h-106zM199 0l22 840h53l23 -840h-98z" />
<glyph horiz-adv-x="829" d="M96 123q0 95 17 173t53 140t99 96.5t149 34.5q85 0 147.5 -34.5t99 -96.5t53.5 -140t17 -173q0 -171 -56.5 -287t-178.5 -147l131 -121l-56 -57l-157 167q-86 0 -149 35t-99 97.5t-53 140t-17 172.5zM176 123q0 -373 238 -373q65 0 112.5 29t74 81.5t38.5 117t12 145.5 t-12 145.5t-38.5 117t-74 81.5t-112.5 29q-238 0 -238 -373z" />
<glyph horiz-adv-x="1064" d="M168 377v799h86v-795q0 -72 11.5 -125.5t41 -99.5t86 -70.5t139.5 -24.5q81 0 138 24.5t86.5 70.5t42 100t12.5 125v795h86v-799q0 -69 -11.5 -126.5t-38.5 -108t-68 -85.5t-104 -55t-143 -20q-364 0 -364 395zM311 1288l160 256h121l162 -256h-72l-152 191l-147 -191 h-72z" />
<glyph horiz-adv-x="1107" d="M125 588q0 104 13.5 192t45.5 165.5t80.5 131.5t122.5 85.5t168 31.5q93 0 166 -31.5t121.5 -85.5t80.5 -131.5t46 -166t14 -191.5q0 -115 -18.5 -212.5t-57 -178.5t-104.5 -134.5t-156 -70.5l182 -172l-61 -64l-215 226q-93 1 -166.5 32.5t-122 86t-80.5 132t-45.5 165 t-13.5 190.5zM213 588q0 -527 342 -527q338 0 338 527q0 526 -338 526q-342 0 -342 -526z" />
<glyph horiz-adv-x="737" d="M137 788v861h246q281 0 281 -258t-281 -258h-168v-345h-78zM215 1202h170q91 0 145 44.5t54 144.5q0 98 -54.5 143t-144.5 45h-170v-377z" />
<glyph horiz-adv-x="737" d="M137 -307v860h246q281 0 281 -258t-281 -258h-168v-344h-78zM215 106h170q91 0 145 44.5t54 144.5q0 98 -54.5 143t-144.5 45h-170v-377z" />
<glyph horiz-adv-x="307" d="M-6 -502q33 13 52.5 20.5t34.5 19.5t21.5 18t10.5 25t4 30v43v684h73v-682q0 -34 -0.5 -49.5t-3.5 -39.5t-9.5 -34.5t-18.5 -26.5t-31 -25.5t-45.5 -20.5t-63.5 -23zM113 477v109h84v-109h-84z" />
<glyph horiz-adv-x="493" d="M193 0v162h106v-162h-106zM197 1176h98l-23 -840h-53z" />
<glyph horiz-adv-x="978" d="M178 0v1176h324q383 0 383 -349q0 -348 -383 -348h-238v-479h-86zM264 557h244q132 0 210.5 64t78.5 206t-78.5 206.5t-210.5 64.5h-244v-541z" />
<glyph horiz-adv-x="1107" d="M125 588q0 104 13.5 192t45.5 165.5t80.5 131.5t122.5 85.5t168 31.5q93 0 166 -31.5t121.5 -85.5t80.5 -131.5t46 -166t14 -191.5t-14 -191t-46 -165.5t-80.5 -132t-121.5 -86t-166 -31.5q-94 0 -168 31.5t-122.5 86t-80.5 132t-45.5 165.5t-13.5 191zM213 588 q0 -527 342 -527q338 0 338 527q0 526 -338 526q-342 0 -342 -526zM313 1339q30 74 62 110t78 36q35 0 73.5 -25.5t71.5 -50.5t55 -25t39 18.5t43 76.5l60 -25q-33 -75 -63.5 -110t-78.5 -35q-35 0 -73.5 25t-71.5 50t-55 25t-39 -18t-43 -76z" />
<glyph horiz-adv-x="829" d="M96 1219q0 95 17 173t53 140t99 96.5t149 34.5q85 0 147.5 -34.5t99 -96.5t53.5 -140t17 -173q0 -94 -17 -172t-53.5 -140.5t-99 -97.5t-147.5 -35q-86 0 -149 35t-99 97.5t-53 140t-17 172.5zM176 1219q0 -373 238 -373q65 0 112.5 29t74 81.5t38.5 117t12 145.5 q0 372 -237 372q-238 0 -238 -372z" />
<glyph horiz-adv-x="593" d="M117 -307v895h73v-606l244 356h86l-188 -262l221 -383h-80l-186 321l-97 -133v-188h-73z" />
<glyph horiz-adv-x="593" d="M117 788v895h73v-606l244 357h86l-188 -263l221 -383h-80l-186 322l-97 -133v-189h-73z" />
<glyph horiz-adv-x="1101" d="M123 588q0 104 13.5 192t45.5 165.5t80.5 131.5t122.5 85.5t168 31.5q172 0 276 -107l58 89h78l-91 -144q107 -156 107 -444q0 -103 -14 -191t-46 -165.5t-80.5 -132t-121.5 -86t-166 -31.5q-175 0 -281 106l-55 -88h-78l90 141q-106 151 -106 447zM211 588 q0 -238 70 -367l501 793q-81 100 -229 100q-342 0 -342 -526zM319 162q85 -101 234 -101q338 0 338 527q0 234 -68 364zM440 1288l203 256h145l-274 -256h-74z" />
<glyph horiz-adv-x="1064" d="M168 377v799h86v-795q0 -72 11.5 -125.5t41 -99.5t86 -70.5t139.5 -24.5q81 0 138 24.5t86.5 70.5t42 100t12.5 125v795h86v-799q0 -69 -11.5 -126.5t-38.5 -108t-68 -85.5t-104 -55t-143 -20q-364 0 -364 395zM342 1309v159h111v-159h-111zM612 1309v159h109v-159h-109z " />
<glyph horiz-adv-x="1107" d="M125 588q0 104 13.5 192t45.5 165.5t80.5 131.5t122.5 85.5t168 31.5q93 0 166 -31.5t121.5 -85.5t80.5 -131.5t46 -166t14 -191.5t-14 -191t-46 -165.5t-80.5 -132t-121.5 -86t-166 -31.5q-94 0 -168 31.5t-122.5 86t-80.5 132t-45.5 165.5t-13.5 191zM213 588 q0 -527 342 -527q338 0 338 527q0 526 -338 526q-342 0 -342 -526zM315 1339v74h476v-74h-476z" />
<glyph horiz-adv-x="829" d="M96 123q0 95 17 173t53 140t99 96.5t149 34.5q85 0 147.5 -34.5t99 -96.5t53.5 -140t17 -173q0 -94 -17 -172t-53.5 -140.5t-99 -97.5t-147.5 -35q-86 0 -149 35t-99 97.5t-53 140t-17 172.5zM176 123q0 -373 238 -373q65 0 112.5 29t74 81.5t38.5 117t12 145.5 t-12 145.5t-38.5 117t-74 81.5t-112.5 29q-238 0 -238 -373z" />
<glyph horiz-adv-x="1107" d="M125 588q0 104 13.5 192t45.5 165.5t80.5 131.5t122.5 85.5t168 31.5q93 0 166 -31.5t121.5 -85.5t80.5 -131.5t46 -166t14 -191.5t-14 -191t-46 -165.5t-80.5 -132t-121.5 -86t-166 -31.5q-94 0 -168 31.5t-122.5 86t-80.5 132t-45.5 165.5t-13.5 191zM213 588 q0 -527 342 -527q338 0 338 527q0 526 -338 526q-342 0 -342 -526zM375 1288l129 256h129l-199 -256h-59zM608 1288l127 256h129l-198 -256h-58z" />
<glyph horiz-adv-x="1107" d="M125 588q0 104 13.5 192t45.5 165.5t80.5 131.5t122.5 85.5t168 31.5q93 0 166 -31.5t121.5 -85.5t80.5 -131.5t46 -166t14 -191.5t-14 -191t-46 -165.5t-80.5 -132t-121.5 -86t-166 -31.5q-94 0 -168 31.5t-122.5 86t-80.5 132t-45.5 165.5t-13.5 191zM213 588 q0 -527 342 -527q338 0 338 527q0 526 -338 526q-342 0 -342 -526zM317 1544h144l205 -256h-74z" />
<glyph horiz-adv-x="1064" d="M168 377v799h86v-795q0 -72 11.5 -125.5t41 -99.5t86 -70.5t139.5 -24.5q81 0 138 24.5t86.5 70.5t42 100t12.5 125v795h86v-799q0 -69 -11.5 -126.5t-38.5 -108t-68 -85.5t-104 -55t-143 -20q-364 0 -364 395zM295 1544h143l205 -256h-74z" />
<glyph horiz-adv-x="307" d="M117 -307v895h73v-895h-73z" />
<glyph horiz-adv-x="1064" d="M168 377v799h86v-795q0 -72 11.5 -125.5t41 -99.5t86 -70.5t139.5 -24.5q81 0 138 24.5t86.5 70.5t42 100t12.5 125v795h86v-799q0 -69 -11.5 -126.5t-38.5 -108t-68 -85.5t-104 -55t-143 -20q-364 0 -364 395zM354 1288l129 256h129l-198 -256h-60zM588 1288l127 256 h129l-199 -256h-57z" />
<glyph horiz-adv-x="862" d="M133 0v68q5 5 13 14t30.5 37.5t42 59t41 76t33.5 89.5h-143v74h157q2 12 2 39q0 42 -10 90h-149v71h124q-7 17 -43 86t-50.5 117.5t-14.5 106.5q0 121 75.5 193.5t200.5 72.5q57 0 118.5 -19t99 -38t88.5 -50l-48 -63q-161 92 -254 92q-92 0 -144 -54.5t-52 -141.5 q0 -51 17 -99t49.5 -109.5t45.5 -93.5h269v-71h-246q10 -45 10 -86q0 -29 -2 -43h238v-74h-252q-22 -83 -62 -154.5t-73 -111.5h485v-78h-596z" />
<glyph horiz-adv-x="636" d="M98 -248q9 9 23.5 25.5t45.5 67t46 100.5h-104v59h114q2 8 2 23q0 25 -8 65h-108v60h88q-7 16 -24 49t-26 52.5t-17.5 51.5t-8.5 64q0 90 56 144t149 54q98 0 227 -82l-41 -57q-109 68 -180 68q-62 0 -97.5 -38t-35.5 -98q0 -35 10.5 -67t33.5 -76.5t31 -64.5h195v-60 h-174q6 -30 6 -61q0 -19 -2 -27h170v-59h-180q-24 -91 -90 -183h342v-69h-443v59z" />
<glyph horiz-adv-x="638" d="M100 788v60q9 9 23.5 25t45.5 66.5t46 100.5h-104v60h114q2 8 2 22q0 26 -8 66h-108v59h88q-7 16 -24 49t-26 52.5t-17.5 51.5t-8.5 64q0 90 56 144.5t149 54.5q98 0 227 -82l-41 -57q-108 67 -180 67q-62 0 -97.5 -37.5t-35.5 -97.5q0 -35 10.5 -67t33.5 -77.5t31 -64.5 h195v-59h-174q6 -30 6 -62q0 -18 -2 -26h170v-60h-180q-23 -89 -90 -182h342v-70h-443z" />
<glyph horiz-adv-x="1107" d="M125 588q0 104 13.5 192t45.5 165.5t80.5 131.5t122.5 85.5t168 31.5q93 0 166 -31.5t121.5 -85.5t80.5 -131.5t46 -166t14 -191.5t-14 -191t-46 -165.5t-80.5 -132t-121.5 -86t-166 -31.5q-94 0 -168 31.5t-122.5 86t-80.5 132t-45.5 165.5t-13.5 191zM213 588 q0 -527 342 -527q338 0 338 527q0 526 -338 526q-342 0 -342 -526zM362 1309v159h111v-159h-111zM633 1309v159h108v-159h-108z" />
<glyph horiz-adv-x="1107" d="M125 588q0 104 13.5 192t45.5 165.5t80.5 131.5t122.5 85.5t168 31.5q93 0 166 -31.5t121.5 -85.5t80.5 -131.5t46 -166t14 -191.5t-14 -191t-46 -165.5t-80.5 -132t-121.5 -86t-166 -31.5q-94 0 -168 31.5t-122.5 86t-80.5 132t-45.5 165.5t-13.5 191zM213 588 q0 -527 342 -527q338 0 338 527q0 526 -338 526q-342 0 -342 -526zM334 1288l160 256h120l162 -256h-71l-152 191l-147 -191h-72z" />
<glyph horiz-adv-x="800" d="M129 -23v576h78v-576q0 -108 41.5 -167.5t152.5 -59.5q57 0 96 17t59.5 49.5t29 71t8.5 89.5v576h76v-576q0 -299 -269 -299q-272 0 -272 299z" />
<glyph horiz-adv-x="1107" d="M125 588q0 104 13.5 192t45.5 165.5t80.5 131.5t122.5 85.5t168 31.5q93 0 166 -31.5t121.5 -85.5t80.5 -131.5t46 -166t14 -191.5t-14 -191t-46 -165.5t-80.5 -132t-121.5 -86t-166 -31.5q-94 0 -168 31.5t-122.5 86t-80.5 132t-45.5 165.5t-13.5 191zM213 588 q0 -527 342 -527q338 0 338 527q0 526 -338 526q-342 0 -342 -526zM334 1487h74q0 -123 145 -123q149 0 149 123h72q0 -92 -59 -145.5t-162 -53.5q-102 0 -160.5 54t-58.5 145z" />
<glyph horiz-adv-x="1064" d="M168 377v799h86v-795q0 -72 11.5 -125.5t41 -99.5t86 -70.5t139.5 -24.5q81 0 138 24.5t86.5 70.5t42 100t12.5 125v795h86v-799q0 -69 -11.5 -126.5t-38.5 -108t-68 -85.5t-104 -55t-143 -20q-364 0 -364 395zM293 1339v74h475v-74h-475z" />
<glyph horiz-adv-x="1107" d="M125 588q0 104 13.5 192t45.5 165.5t80.5 131.5t122.5 85.5t168 31.5q93 0 166 -31.5t121.5 -85.5t80.5 -131.5t46 -166t14 -191.5t-14 -191t-46 -165.5t-80.5 -132t-121.5 -86t-166 -31.5q-94 0 -168 31.5t-122.5 86t-80.5 132t-45.5 165.5t-13.5 191zM213 588 q0 -527 342 -527q338 0 338 527q0 526 -338 526q-342 0 -342 -526zM440 1288l203 256h145l-274 -256h-74z" />
<glyph horiz-adv-x="1632" d="M125 588q0 104 13.5 192t45.5 165.5t80.5 131.5t122.5 85.5t168 31.5q233 0 344 -197v179h614v-78h-528v-471h438v-78h-438v-471h537v-78h-623v178q-110 -196 -344 -196q-94 0 -168 31.5t-122.5 86t-80.5 132t-45.5 165.5t-13.5 191zM213 588q0 -527 342 -527 q338 0 338 527q0 526 -338 526q-342 0 -342 -526z" />
<glyph horiz-adv-x="1021" d="M119 -307v645h74v-98q102 112 208 112q66 0 99 -37t43 -86q41 47 98 85t119 38q79 0 114 -51.5t35 -132.5v-475h-75v465q0 129 -95 129q-50 0 -100.5 -37t-89.5 -86v-471h-74v465q0 129 -94 129q-88 0 -188 -119v-475h-74z" />
<glyph horiz-adv-x="1064" d="M168 377v799h86v-795q0 -72 11.5 -125.5t41 -99.5t86 -70.5t139.5 -24.5q81 0 138 24.5t86.5 70.5t42 100t12.5 125v795h86v-799q0 -315 -233 -379q-86 -59 -115 -89q-51 -53 -51 -108q0 -13 3 -24t6.5 -19t11 -14.5t13 -10.5t16.5 -7l16.5 -4.5t18.5 -2t17.5 -0.5h18.5 h16l-14 -77q-28 0 -46 1t-51.5 8.5t-54 22t-37 44t-16.5 71.5q0 103 137 193h-21q-364 0 -364 395z" />
<glyph horiz-adv-x="647" d="M82 16q0 158 71 247t183 89q109 0 169 -77t60 -201l-6 -80h-399q5 -114 49.5 -182t116.5 -68q77 0 202 86l41 -49q-138 -103 -247 -103q-102 0 -171 89t-69 249zM160 49h329q3 121 -38 180.5t-115 59.5q-77 0 -123.5 -65t-52.5 -175z" />
<glyph horiz-adv-x="1107" d="M125 588q0 104 13.5 192t45.5 165.5t80.5 131.5t122.5 85.5t168 31.5q93 0 166 -31.5t121.5 -85.5t80.5 -131.5t46 -166t14 -191.5t-14 -191t-46 -165.5t-80.5 -132t-121.5 -86t-166 -31.5q-94 0 -168 31.5t-122.5 86t-80.5 132t-45.5 165.5t-13.5 191zM213 588 q0 -527 342 -527q338 0 338 527q0 526 -338 526q-342 0 -342 -526z" />
<glyph horiz-adv-x="1103" d="M178 0v1176h90l570 -1024v1024h88v-1176h-92l-570 1024v-1024h-86zM319 1339q30 74 62 110t78 36q35 0 73.5 -25.5t71.5 -50.5t55 -25t39 18.5t43 76.5l60 -25q-33 -75 -63.5 -110t-78.5 -35q-35 0 -73.5 25t-71.5 50t-55 25t-39 -18t-43 -76z" />
<glyph horiz-adv-x="829" d="M137 788v861h82l395 -725v725h78v-861h-82l-395 725v-725h-78z" />
<glyph horiz-adv-x="829" d="M137 -307v860h82l395 -725v725h78v-860h-82l-395 725v-725h-78z" />
<glyph horiz-adv-x="1103" d="M178 0v1176h90l570 -1024v1024h88v-1176h-92l-570 1024v-1024h-86zM492 -483l63 180h-51v166h108l17 -166l-99 -217z" />
<glyph horiz-adv-x="1103" d="M178 0v1176h90l570 -1024v1024h88v-1176h-92l-570 1024v-1024h-86zM340 1544h72l147 -190l152 190h71l-161 -256h-121z" />
<glyph horiz-adv-x="1103" d="M178 0v1176h90l570 -1024v1024h88v-1176h-92l-570 1024v-1024h-86zM440 1288l203 256h145l-274 -256h-74z" />
<glyph horiz-adv-x="1103" d="M178 0v1176h90l570 -1024v1024h88v-1176h-92l-570 1024v-1024h-86z" />
<glyph horiz-adv-x="700" d="M82 586q0 120 69.5 204t184.5 84q86 0 148 -53t90 -135.5t28 -183.5q1 -230 -106 -373t-269 -143q-24 0 -48 3.5t-36 6.5l-12 4l19 68q34 -13 73 -13q113 0 195 95.5t100 267.5q-27 -39 -77.5 -72t-123.5 -33q-111 0 -173 79t-62 194zM160 586q0 -82 43 -144.5t127 -62.5 q70 0 123 44t71 93q-2 128 -51 208.5t-137 80.5q-83 0 -129.5 -66t-46.5 -153z" />
<glyph horiz-adv-x="1069" d="M125 350q0 267 309 420q-241 123 -241 354q0 149 98 240.5t244 91.5t244 -91.5t98 -240.5q0 -229 -244 -354q311 -152 311 -420q0 -173 -117.5 -273t-291.5 -100t-292 100t-118 273zM217 350q0 -135 91 -213t227 -78q135 0 226 78t91 213q0 72 -27.5 132.5t-78.5 106.5 t-99 76.5t-112 61.5q-65 -31 -113.5 -61.5t-99 -76.5t-78 -106.5t-27.5 -132.5zM283 1118q0 -193 249 -303q254 110 254 303q0 108 -71.5 182t-179.5 74t-180 -74t-72 -182z" />
<glyph d="M106 717q0 128 45.5 236t135.5 174.5t207 66.5q101 0 181.5 -51.5t129 -136.5t74 -188t26.5 -214q1 -175 -31.5 -323t-88 -250.5t-129.5 -175t-156 -106.5t-168 -34q-37 0 -74 6t-56 11l-18 6l23 78q53 -19 121 -19q81 0 157.5 39t143.5 115.5t114.5 204t63.5 290.5 q-17 -28 -43.5 -56.5t-66.5 -59.5t-97.5 -50.5t-120.5 -19.5q-118 0 -204.5 65.5t-127.5 167.5t-41 224zM195 715q0 -68 16.5 -132t49 -119t89.5 -88.5t131 -33.5q120 0 211.5 78.5t122.5 167.5v16q0 98 -19 186.5t-56.5 161.5t-100.5 116.5t-143 43.5q-73 0 -131.5 -34 t-95 -91t-55.5 -127t-19 -145z" />
<glyph horiz-adv-x="708" d="M88 788q0 158 188 248q-145 76 -145 211q0 90 62.5 145.5t160.5 55.5q99 0 162.5 -55.5t63.5 -145.5q0 -137 -148 -211q37 -19 66 -39t59 -50t47 -70.5t17 -88.5q0 -106 -75.5 -167.5t-191.5 -61.5t-191 61.5t-75 167.5zM168 791q0 -76 53.5 -120t132.5 -44q81 0 135 44 t54 120q0 40 -16 73.5t-46 58.5t-58.5 42.5t-68.5 35.5q-40 -18 -67.5 -35t-57.5 -42.5t-45.5 -59t-15.5 -73.5zM207 1239q0 -104 147 -168q146 66 146 168q0 59 -41 100t-105 41t-105.5 -41t-41.5 -100z" />
<glyph horiz-adv-x="708" d="M88 215q0 158 188 248q-145 76 -145 211q0 90 62.5 145t160.5 55q99 0 162.5 -55t63.5 -145q0 -137 -148 -211q37 -19 66 -39t59 -50t47 -70.5t17 -88.5q0 -106 -75.5 -167.5t-191.5 -61.5t-191 61.5t-75 167.5zM168 217q0 -76 53.5 -120t132.5 -44q81 0 135 44t54 120 q0 40 -16 73.5t-45.5 59t-59 43t-68.5 35.5q-39 -18 -67 -35t-58 -42.5t-45.5 -59.5t-15.5 -74zM207 666q0 -104 147 -168q146 66 146 168q0 59 -41 100t-105 41t-105.5 -41t-41.5 -100z" />
<glyph horiz-adv-x="1064" d="M168 377v799h86v-795q0 -72 11.5 -125.5t41 -99.5t86 -70.5t139.5 -24.5q81 0 138 24.5t86.5 70.5t42 100t12.5 125v795h86v-799q0 -69 -11.5 -126.5t-38.5 -108t-68 -85.5t-104 -55t-143 -20q-364 0 -364 395zM344 1454q0 80 53.5 135.5t132.5 55.5q80 0 135.5 -55.5 t55.5 -135.5q0 -78 -55.5 -132t-135.5 -54q-79 0 -132.5 54t-53.5 132zM408 1454q0 -51 35.5 -86t86.5 -35q53 0 89 35t36 86q0 52 -36.5 88.5t-88.5 36.5q-51 0 -86.5 -36.5t-35.5 -88.5z" />
<glyph horiz-adv-x="690" d="M117 -307v645h73v-96q121 110 234 110q154 0 154 -184v-475h-74v465q0 129 -98 129q-57 0 -118.5 -38.5t-97.5 -78.5v-477h-73z" />
<glyph horiz-adv-x="800" d="M129 1073v576h78v-576q0 -108 41.5 -167.5t152.5 -59.5q57 0 96 17t59.5 49.5t29 71t8.5 89.5v576h76v-576q0 -299 -269 -299q-272 0 -272 299z" />
<glyph horiz-adv-x="1064" d="M168 377v799h86v-795q0 -72 11.5 -125.5t41 -99.5t86 -70.5t139.5 -24.5q81 0 138 24.5t86.5 70.5t42 100t12.5 125v795h86v-799q0 -69 -11.5 -126.5t-38.5 -108t-68 -85.5t-104 -55t-143 -20q-364 0 -364 395zM291 1339q31 74 62 110t77 36q35 0 73.5 -25.5t72 -50.5 t55.5 -25t39 18.5t43 76.5l59 -25q-33 -75 -63.5 -110t-77.5 -35q-35 0 -73.5 25t-72 50t-55.5 25t-39 -18t-43 -76z" />
<glyph horiz-adv-x="950" d="M137 788v861h82l254 -617l256 617h82v-861h-76v711l-233 -567h-53l-234 567v-711h-78z" />
<glyph horiz-adv-x="950" d="M137 -307v860h82l254 -616l256 616h82v-860h-76v710l-233 -567h-53l-234 567v-710h-78z" />
<glyph horiz-adv-x="1165" d="M109 319v74h219l53 389h-209v72h217l45 322h74l-45 -322h309l45 322h72l-45 -322h211v-72h-221l-54 -389h211v-74h-221l-43 -319h-70l43 319h-311l-43 -319h-72l43 319h-208zM399 393h312l53 389h-311z" />
<glyph horiz-adv-x="841" d="M78 -14h155l37 272h-147v66h156l30 229h62l-31 -229h215l31 229h61l-31 -229h148v-66h-158l-37 -272h148v-66h-156l-31 -227h-61l31 227h-213l-31 -227h-61l30 227h-147v66zM295 -14h213l37 272h-213z" />
<glyph horiz-adv-x="841" d="M78 1016v65h155l37 273h-147v65h156l30 230h62l-31 -230h215l31 230h61l-31 -230h148v-65h-158l-37 -273h148v-65h-156l-31 -228h-61l31 228h-213l-31 -228h-61l30 228h-147zM295 1081h213l37 273h-213z" />
<glyph horiz-adv-x="1269" d="M178 0v1176h92l365 -869l362 869h95v-1176h-86v1008l-340 -811h-64l-338 807v-1004h-86z" />
<glyph horiz-adv-x="636" d="M137 788v861h78v-789h367v-72h-445z" />
<glyph horiz-adv-x="845" d="M80 414v92l113 69v601h86v-547l198 123v-93l-198 -122v-459h512v-78h-598v483z" />
<glyph horiz-adv-x="636" d="M137 -307v860h78v-789h367v-71h-445z" />
<glyph horiz-adv-x="835" d="M178 0v1176h86v-1098h512v-78h-598zM580 532v160h108v-160h-108z" />
<glyph horiz-adv-x="831" d="M178 0v1176h86v-1098h512v-78h-598zM408 -483l63 180h-51v166h108l17 -166l-99 -217z" />
<glyph horiz-adv-x="1034" d="M72 1176h94l350 -1070l352 1070h95l-400 -1176h-94z" />
<glyph horiz-adv-x="831" d="M178 0v1176h86v-1098h512v-78h-598zM334 829l63 181h-51v166h109l16 -166l-98 -217z" />
<glyph horiz-adv-x="831" d="M109 1288l202 256h146l-275 -256h-73zM178 0v1176h86v-1098h512v-78h-598z" />
<glyph horiz-adv-x="671" d="M80 14q0 159 66 248.5t190 89.5q123 0 188.5 -89.5t65.5 -248.5q0 -158 -65.5 -247t-188.5 -89q-124 0 -190 89t-66 247zM158 14q0 -270 178 -270q90 0 134 71.5t44 198.5q0 128 -43.5 200.5t-134.5 72.5q-178 0 -178 -273z" />
<glyph horiz-adv-x="831" d="M178 0v1176h86v-1098h512v-78h-598z" />
<glyph horiz-adv-x="743" d="M137 788v861h78v-496l356 496h93l-302 -414l336 -447h-94l-287 386l-102 -142v-244h-78z" />
<glyph horiz-adv-x="491" d="M53 752l174 108h70v-860h-78v774l-129 -80z" />
<glyph horiz-adv-x="491" d="M53 1325l174 109h70v-861h-78v775l-129 -80z" />
<glyph horiz-adv-x="614" d="M72 1004l266 172h76v-1176h-90v1071l-207 -135z" />
<glyph horiz-adv-x="755" d="M49 553h86l242 -770l241 770h89l-287 -860h-86z" />
<glyph horiz-adv-x="757" d="M51 1649h86l242 -770l242 770h88l-287 -861h-86z" />
<glyph horiz-adv-x="1230" d="M76 1085l151 91h64v-705h-72v631l-113 -68zM248 0l487 1176h76l-489 -1176h-74zM662 176q0 129 161 205q-125 61 -125 170q0 74 55.5 120t141.5 46t141.5 -46t55.5 -120q0 -110 -127 -172q163 -73 163 -203q0 -87 -65.5 -137.5t-167.5 -50.5q-101 0 -167 50.5t-66 137.5z M733 178q0 -59 46.5 -94t115.5 -35q70 0 116 34.5t46 94.5q0 32 -14 59.5t-39.5 48.5t-50.5 35.5t-58 28.5q-72 -31 -117 -71t-45 -101zM768 545q0 -84 125 -137q127 47 127 137q0 47 -36 80.5t-89 33.5q-54 0 -90.5 -33.5t-36.5 -80.5z" />
<glyph horiz-adv-x="1228" d="M76 1085l151 91h64v-705h-72v631l-113 -68zM248 0l487 1176h76l-489 -1176h-74zM682 57l33 56q90 -60 164 -60q65 0 112 47t47 121q0 69 -41.5 115.5t-113.5 46.5q-71 0 -138 -45l-36 20l34 347h342v-62h-286l-17 -227q51 28 115 28q97 0 156 -64.5t59 -158.5 q0 -96 -59.5 -164.5t-167.5 -68.5q-95 0 -203 69z" />
<glyph horiz-adv-x="743" d="M137 -307v860h78v-496l356 496h93l-302 -414l336 -446h-94l-287 385l-102 -141v-244h-78z" />
<glyph horiz-adv-x="1232" d="M76 1085l151 91h64v-705h-70v631l-112 -68zM248 0l489 1176h74l-487 -1176h-76zM696 0v53q0 25 3 47.5t12 43.5t15.5 36.5t22.5 34t24.5 29t30 28.5t30 25t33.5 26.5t32 24.5q73 56 110.5 101.5t37.5 97.5q0 48 -35.5 78t-93.5 30q-88 0 -170 -61l-33 51q107 72 207 72 q87 0 141.5 -46.5t54.5 -123.5q0 -19 -4 -38t-9 -34.5t-16.5 -33.5t-19 -29.5t-25 -29l-26 -26t-30 -26t-29.5 -23.5t-32 -24.5t-30 -22.5q-66 -50 -94.5 -91t-28.5 -106h344v-63h-422z" />
<glyph horiz-adv-x="1415" d="M90 1176h92l240 -1059l242 1059h88l241 -1059l238 1059h94l-283 -1176h-98l-237 1028l-236 -1028h-100z" />
<glyph horiz-adv-x="980" d="M178 0v1176h86v-701l510 701h103l-418 -566l471 -610h-107l-413 543l-146 -199v-344h-86zM430 -483l64 180h-52v166h109l16 -166l-98 -217z" />
<glyph horiz-adv-x="1187" d="M76 1085l151 91h64v-705h-70v631l-112 -68zM248 0l489 1176h74l-487 -1176h-76zM596 162v55l309 488h92v-482h99v-61h-99v-162h-71v162h-330zM670 223h256v410z" />
<glyph horiz-adv-x="1200" d="M76 1085l151 91h64v-705h-72v631l-113 -68zM248 0l487 1176h76l-489 -1176h-74zM637 293q-1 190 92 307t234 117q22 0 43.5 -3t31.5 -6l11 -3l-17 -58q-32 8 -67 8q-97 0 -167 -76t-87 -214q67 84 174 84q94 0 149.5 -65t55.5 -159q0 -99 -60.5 -168t-159.5 -69 q-78 0 -132 44t-77.5 111t-23.5 150zM707 281q2 -102 44.5 -166t116.5 -64q71 0 110.5 52t39.5 122q0 66 -36.5 115t-107.5 49q-60 0 -106.5 -35t-60.5 -73z" />
<glyph horiz-adv-x="980" d="M178 0v1176h86v-701l510 701h103l-418 -566l471 -610h-107l-413 543l-146 -199v-344h-86z" />
<glyph horiz-adv-x="1415" d="M90 1176h92l240 -1059l242 1059h88l241 -1059l238 1059h94l-283 -1176h-98l-237 1028l-236 -1028h-100zM596 1288l203 256h145l-274 -256h-74z" />
<glyph horiz-adv-x="1220" d="M76 1085l151 91h64v-705h-70v631l-112 -68zM248 0l489 1176h74l-487 -1176h-76zM672 53l35 53q89 -55 176 -55q69 0 114 40t45 106q0 55 -34.5 92t-79 51t-94.5 14h-25v66h29q71 0 123.5 35t52.5 98q0 47 -33.5 74.5t-89.5 27.5q-78 0 -158 -55l-33 47q90 70 199 70 q88 0 137 -46t49 -112q0 -53 -33.5 -99t-101.5 -71q72 -18 118 -69.5t46 -124.5q0 -84 -58.5 -145.5t-166.5 -61.5q-98 0 -217 65z" />
<glyph horiz-adv-x="350" d="M12 682q40 15 61.5 26t36 20.5t19.5 27t6.5 32t1.5 48.5v813h78v-811q0 -27 -0.5 -39.5t-1.5 -33t-4.5 -30t-9 -24.5t-14.5 -22.5t-22 -18.5t-31 -18.5t-40.5 -16t-52.5 -17.5z" />
<glyph horiz-adv-x="350" d="M12 -414q40 15 61.5 26t36 20.5t19.5 27t6.5 32t1.5 48.5v813h78v-811q0 -40 -1 -57.5t-6 -43.5t-15 -38t-30 -28t-50 -27.5t-74 -24.5z" />
<glyph horiz-adv-x="440" d="M0 1288l160 256h121l161 -256h-71l-152 191l-147 -191h-72zM6 -152q35 13 57 22t42.5 20.5t31 18t20 20.5t12.5 22t6 29t3 34.5v44.5v1117h86v-1117q0 -39 -0.5 -57t-3 -46t-8.5 -40.5t-17 -32t-27 -30t-40.5 -25.5t-56.5 -26.5t-76 -24.5z" />
<glyph horiz-adv-x="440" d="M6 -152q35 13 57 22t42.5 20.5t31 18t20 20.5t12.5 22t6 29t3 34.5v44.5v1117h86v-1117q0 -39 -0.5 -57t-3 -46t-8.5 -40.5t-17 -32t-27 -30t-40.5 -25.5t-56.5 -26.5t-76 -24.5z" />
<glyph horiz-adv-x="948" d="M113 109l45 67q160 -96 282 -113v515l-66 30t-60.5 31t-58.5 37t-47 41.5t-40 52t-23 62t-10 75.5q0 133 88 208.5t217 78.5v152h66v-156q145 -14 285 -92l-43 -68q-137 69 -242 82v-471q54 -23 91.5 -42t85.5 -52t77 -68.5t50 -87.5t21 -112q0 -73 -28 -131t-75 -92.5 t-103.5 -53t-118.5 -20.5v-150h-66v154q-167 18 -327 123zM221 911q0 -47 15.5 -84t48.5 -65.5t66.5 -47.5t88.5 -44v446q-92 -3 -155.5 -55.5t-63.5 -149.5zM506 59q100 3 171 59.5t71 157.5q0 94 -61.5 154.5t-180.5 118.5v-490z" />
<glyph horiz-adv-x="440" d="M-20 1339q31 74 62 110t77 36q35 0 73.5 -25.5t71.5 -50.5t55 -25t39 18.5t43 76.5l60 -25q-33 -75 -63.5 -110t-78.5 -35q-35 0 -73.5 25t-71.5 50t-55 25t-39 -18t-43 -76zM178 0v1176h86v-1176h-86z" />
<glyph horiz-adv-x="350" d="M137 788v861h78v-861h-78z" />
<glyph horiz-adv-x="440" d="M8 -211q0 60 47 115t123 96v1176h86v-1176h-6q-4 -3 -28 -19.5t-33.5 -24t-30.5 -24t-30.5 -29t-22.5 -30t-18 -35.5t-5 -37q0 -13 3 -24t6.5 -19t11 -14.5t13 -10.5t16.5 -7l16.5 -4.5t18.5 -2t17.5 -0.5h18.5h16l-14 -77q-28 0 -46 1t-51.5 8.5t-54 22t-37 44 t-16.5 71.5z" />
<glyph horiz-adv-x="956" d="M78 834q0 167 88.5 254.5t261.5 87.5h74v-1487h-78v805q-160 0 -253 89t-93 251zM680 -311v1487h80v-1487h-80z" />
<glyph horiz-adv-x="438" d="M-18 1339v74h475v-74h-475zM178 0v1176h86v-1176h-86z" />
<glyph horiz-adv-x="540" d="M193 29v1112q0 44 1.5 67t8.5 52t20.5 45.5t39 36t63 35t92.5 32.5l28 -68q-34 -13 -55.5 -21.5t-41 -20t-30 -17.5t-19.5 -20.5t-12.5 -22.5t-6 -29.5t-2.5 -34.5v-45v-1093q0 -41 0.5 -57.5t6 -40.5t14 -33t29 -24.5t46.5 -26t71 -27.5l-28 -68q-47 15 -81.5 29.5 t-59 27.5t-40 31.5t-25 33.5t-13.5 41.5t-5 47t-1 58.5z" />
<glyph horiz-adv-x="1415" d="M90 1176h92l240 -1059l242 1059h88l241 -1059l238 1059h94l-283 -1176h-98l-237 1028l-236 -1028h-100zM487 1288l160 256h121l162 -256h-72l-151 191l-148 -191h-72z" />
<glyph horiz-adv-x="681" d="M82 14q0 172 59 255t152 83q103 0 196 -102v338h74v-895h-74v86q-97 -101 -196 -101q-93 0 -152 83t-59 253zM160 14q0 -127 37 -197.5t108 -70.5q98 0 184 109v319q-88 111 -184 111q-71 0 -108 -71.5t-37 -199.5z" />
<glyph horiz-adv-x="350" d="M137 -307v860h78v-860h-78z" />
<glyph horiz-adv-x="540" d="M94 -172q45 17 71 27.5t47 26t29.5 25t14 33.5t6 41t0.5 58v1094q0 40 -0.5 57t-6 40.5t-14 32.5t-29.5 24.5t-47 26t-71 27.5l29 68q55 -17 92.5 -32.5t63 -35t39 -36t20.5 -45.5t8.5 -52t1.5 -67v-1112q0 -38 -1 -58.5t-5 -47t-13.5 -41.5t-25 -33.5t-40 -31.5 t-59 -27.5t-81.5 -29.5z" />
<glyph horiz-adv-x="1415" d="M90 1176h92l240 -1059l242 1059h88l241 -1059l238 1059h94l-283 -1176h-98l-237 1028l-236 -1028h-100zM528 1309v159h111v-159h-111zM799 1309v159h108v-159h-108z" />
<glyph horiz-adv-x="1415" d="M90 1176h92l240 -1059l242 1059h88l241 -1059l238 1059h94l-283 -1176h-98l-237 1028l-236 -1028h-100zM471 1544h143l205 -256h-74z" />
<glyph horiz-adv-x="1030" d="M59 553h86l162 -750l170 750h74l168 -750l162 750h86l-203 -860h-86l-166 729l-164 -729h-84z" />
<glyph horiz-adv-x="440" d="M-16 1544h143l205 -256h-74zM178 0v1176h86v-1176h-86z" />
<glyph horiz-adv-x="1492" d="M98 881q0 149 67.5 231t188.5 82t188.5 -82t67.5 -231q0 -148 -68 -232t-188 -84t-188 84t-68 232zM178 881q0 -114 45.5 -182t130.5 -68t130.5 68t45.5 182q0 113 -45 179t-131 66t-131 -66t-45 -179zM438 0l537 1176h80l-539 -1176h-78zM883 297q0 149 67 231t189 82 q119 0 186.5 -82.5t67.5 -230.5t-67.5 -231.5t-186.5 -83.5q-121 0 -188.5 83.5t-67.5 231.5zM961 297q0 -113 45 -180.5t133 -67.5q85 0 129.5 67.5t44.5 180.5q0 116 -44 182t-130 66q-88 0 -133 -66t-45 -182z" />
<glyph horiz-adv-x="1091" d="M74 336q0 109 49.5 170t138.5 61q88 0 137.5 -61t49.5 -170q0 -107 -49.5 -168.5t-137.5 -61.5q-89 0 -138.5 61t-49.5 169zM141 336q0 -80 30.5 -127t90.5 -47t90.5 47t30.5 127q0 82 -30.5 128t-90.5 46t-90.5 -46t-30.5 -128zM313 -315l394 868h67l-393 -868h-68z M641 -90q0 108 50.5 168.5t139.5 60.5q88 0 137.5 -60.5t49.5 -168.5t-50 -170t-137 -62q-89 0 -139.5 62t-50.5 170zM709 -90q0 -80 30.5 -127t91.5 -47q58 0 88.5 47.5t30.5 126.5q0 80 -30.5 127t-88.5 47q-61 0 -91.5 -46.5t-30.5 -127.5z" />
<glyph horiz-adv-x="1449" d="M76 1001v74h123v189q0 62 17 105.5t47.5 65t64 30t75.5 8.5q92 0 347 -60q50 80 178 80q117 0 319 -61l-39 -70q-201 53 -288 53q-49 0 -82 -30.5t-33 -90.5v-219h481v-1161q0 -72 -2.5 -102.5t-13.5 -71.5t-38.5 -62t-74 -45.5t-123.5 -50.5l-30 72q40 16 65 26.5 t48.5 24.5t35.5 21.5t22.5 25t14.5 27t7 36.5t3 43v56v1087h-395v-1001h-84v1001h-438v-1001h-84v1001h-123zM283 1075h438v209q0 39 4 55q-252 56 -328 56q-50 0 -82 -30.5t-32 -90.5v-199z" />
<glyph horiz-adv-x="440" d="M29 1309v159h110v-159h-110zM178 0v1176h86v-1176h-86zM299 1309v159h109v-159h-109z" />
<glyph horiz-adv-x="440" d="M0 1288l160 256h121l161 -256h-71l-152 191l-147 -191h-72zM178 0v1176h86v-1176h-86z" />
<glyph horiz-adv-x="1032" d="M61 1649h86l162 -750l170 750h74l168 -750l162 750h86l-203 -861h-86l-166 730l-164 -730h-84z" />
<glyph horiz-adv-x="604" d="M80 1112q0 158 68.5 247t168.5 89q22 0 45.5 -5.5t41 -11.5t40.5 -18.5t34 -19t32 -21t25 -16.5l-41 -56q-2 1 -14.5 10t-20.5 14.5t-22.5 14.5t-27 15t-27.5 12t-30.5 9t-29.5 3q-71 0 -117.5 -73t-46.5 -193q0 -122 46.5 -195t117.5 -73q14 0 29.5 3t30.5 9t27.5 12 t27 15t22.5 14.5t20.5 14.5t14.5 10l41 -56q-4 -2 -25 -16.5t-32 -21t-34 -19t-40.5 -18.5t-41 -11.5t-45.5 -5.5q-100 0 -168.5 89t-68.5 249z" />
<glyph horiz-adv-x="1470" d="M127 588q0 172 70 308t210.5 217t331.5 81q143 0 259 -47t191.5 -129t116 -192t40.5 -238t-40.5 -238t-116 -192t-191.5 -129t-259 -47q-191 0 -331.5 81t-210.5 217t-70 308zM197 588q0 -237 143 -390t397 -153q128 0 231.5 42t171 115.5t104 172t36.5 213.5 q0 154 -62 275.5t-187 194t-294 72.5q-254 0 -397 -152.5t-143 -389.5zM428 586q0 174 85.5 270t213.5 96q60 0 119 -19t91 -37.5t75 -47.5l-54 -60q-36 27 -58 41.5t-71.5 32t-99.5 17.5q-96 0 -155.5 -81t-59.5 -212q0 -130 59.5 -209.5t155.5 -79.5q50 0 98.5 16.5 t73 31.5t57.5 40l54 -59q-44 -30 -75 -48t-91 -37.5t-119 -19.5q-128 0 -213.5 96t-85.5 269z" />
<glyph horiz-adv-x="2103" d="M98 881q0 149 67.5 231t188.5 82t188.5 -82t67.5 -231q0 -148 -68 -232t-188 -84t-188 84t-68 232zM178 881q0 -114 45.5 -182t130.5 -68t130.5 68t45.5 182q0 113 -45 179t-131 66t-131 -66t-45 -179zM438 0l537 1176h80l-539 -1176h-78zM883 297q0 149 67 231t189 82 q119 0 186.5 -82.5t67.5 -230.5t-67.5 -231.5t-186.5 -83.5q-121 0 -188.5 83.5t-67.5 231.5zM961 297q0 -113 45 -180.5t133 -67.5q85 0 129.5 67.5t44.5 180.5q0 116 -44 182t-130 66q-88 0 -133 -66t-45 -182zM1491 297q0 149 68 231t190 82q119 0 186.5 -82.5 t67.5 -230.5q0 -149 -67.5 -232t-186.5 -83q-122 0 -190 83t-68 232zM1571 297q0 -114 45 -181t133 -67q85 0 129.5 67t44.5 181q0 116 -44 182t-130 66q-88 0 -133 -66t-45 -182z" />
<glyph horiz-adv-x="931" d="M66 0l354 584l-338 592h98l285 -523l283 523h98l-338 -592l356 -584h-102l-297 512l-297 -512h-102z" />
<glyph horiz-adv-x="1032" d="M156 793v65h49v318h323q365 0 381 -318h41v-65h-41q-18 -314 -381 -314h-237v-479h-86v793h-49zM291 557h244q123 0 199.5 56t86.5 180h-530v-236zM291 858h530q-9 125 -85.5 182.5t-200.5 57.5h-244v-240z" />
<glyph horiz-adv-x="759" d="M106 264v58h33v231h246q266 0 279 -231h30v-58h-30q-16 -227 -279 -227h-168v-344h-78v571h-33zM217 106h170q181 0 197 158h-367v-158zM217 322h367q-7 84 -60.5 122.5t-136.5 38.5h-170v-161z" />
<glyph horiz-adv-x="759" d="M106 1360v57h33v232h246q266 0 279 -232h30v-57h-30q-16 -227 -279 -227h-168v-345h-78v572h-33zM217 1202h170q181 0 197 158h-367v-158zM217 1417h367q-7 84 -60.5 123t-136.5 39h-170v-162z" />
<glyph horiz-adv-x="704" d="M55 -307l256 426l-243 434h90l194 -371l197 371h90l-244 -432l256 -428h-94l-205 364l-202 -364h-95z" />
<glyph horiz-adv-x="681" d="M117 338h73v-88q102 102 199 102q93 0 151 -83t58 -255q0 -170 -58 -253t-151 -83q-100 0 -199 103v-338h-73v895zM190 -143q36 -48 85 -79.5t102 -31.5q71 0 108 70.5t37 197.5q0 128 -37 199.5t-108 71.5q-53 0 -102 -32t-85 -81v-315z" />
<glyph horiz-adv-x="438" d="M0 1487h74q0 -123 145 -123q150 0 150 123h71q0 -92 -59 -145.5t-162 -53.5q-102 0 -160.5 54t-58.5 145zM178 0v1176h86v-1176h-86z" />
<glyph horiz-adv-x="440" d="M109 1288l202 256h146l-275 -256h-73zM178 0v1176h86v-1176h-86z" />
<glyph horiz-adv-x="321" d="M115 788v132h90v-132h-90zM115 1217v131h90v-131h-90z" />
<glyph horiz-adv-x="638" d="M96 1219q0 159 68.5 247t167.5 88h10l18 95h52l-21 -103q26 -7 39 -14l23 117h51l-29 -140q37 -20 78 -51l-39 -53l-51 35l-96 -486q15 3 31 9t28.5 12.5t28 16.5t23.5 15.5t21 15.5t15 11l39 -57q-1 -1 -26.5 -18.5t-38.5 -25t-38.5 -21t-49.5 -20.5t-48 -9l-18 -95h-51 l18 97q-28 5 -39 10l-20 -107h-52l25 132q-55 40 -87 116.5t-32 182.5zM174 1219q0 -141 59 -213l95 481q-67 -5 -110.5 -77.5t-43.5 -190.5zM276 967q18 -12 39 -15l101 514q-16 8 -37 15z" />
<glyph horiz-adv-x="681" d="M117 539v895h73v-88q102 102 199 102q93 0 151 -83t58 -255q0 -170 -58 -253t-151 -83q-100 0 -199 103v-338h-73zM190 952q36 -47 85 -78.5t102 -31.5q71 0 108 70.5t37 197.5q0 128 -37 199t-108 71q-54 0 -103 -31.5t-84 -80.5v-316z" />
<glyph horiz-adv-x="880" d="M178 0v1176h86v-1176h-86zM446 -152q35 13 57 22t42.5 20.5t31 18t20 20.5t12.5 22t6 29t3 34.5v44.5v1117h87v-1117q0 -34 -0.5 -51t-2 -42.5t-6 -37.5t-12 -30.5t-19.5 -28.5t-28.5 -24t-40 -24t-53 -21t-68.5 -23z" />
<glyph horiz-adv-x="681" d="M82 14q0 172 59 255t152 83q103 0 196 -102v88h74v-895h-74v336q-97 -101 -196 -101q-93 0 -152 83t-59 253zM160 14q0 -127 37 -197.5t108 -70.5q98 0 184 109v319q-88 111 -184 111q-71 0 -108 -71.5t-37 -199.5z" />
<glyph horiz-adv-x="681" d="M82 1110q0 172 59 255t152 83q103 0 196 -102v88h74v-895h-74v335q-96 -100 -196 -100q-93 0 -152 83t-59 253zM160 1110q0 -127 37 -197.5t108 -70.5q51 0 99 30.5t85 77.5v320q-87 110 -184 110q-71 0 -108 -71t-37 -199z" />
<glyph horiz-adv-x="440" d="M178 0v1176h86v-1176h-86z" />
<glyph horiz-adv-x="765" d="M76 1081q58 45 140 79t169 34q118 0 203.5 -67.5t85.5 -192.5q0 -228 -307 -330l-11 -268h-67l-13 317q149 43 231.5 107t82.5 168q0 90 -60.5 139t-150.5 49q-116 0 -256 -94zM268 0v162h107v-162h-107z" />
<glyph horiz-adv-x="811" d="M137 788v861h78v-373h381v373h78v-861h-78v416h-381v-416h-78z" />
<glyph horiz-adv-x="768" d="M92 242q0 227 307 329l11 269h67l12 -318q-149 -43 -231 -106.5t-82 -167.5q0 -90 60.5 -139.5t150.5 -49.5q115 0 256 95l47 -60q-57 -45 -139 -78.5t-170 -33.5q-118 0 -203.5 67.5t-85.5 192.5zM391 1014v162h107v-162h-107z" />
<glyph horiz-adv-x="573" d="M74 -127q0 168 225 244l6 186h60l6 -229q-105 -31 -163 -76t-58 -117q0 -62 41.5 -96.5t105.5 -34.5q82 0 180 66l39 -52q-109 -86 -227 -86q-90 0 -152.5 51t-62.5 144zM289 426v127h92v-127h-92z" />
<glyph horiz-adv-x="575" d="M74 969q0 167 225 243l6 187h60l6 -230q-106 -31 -163.5 -76t-57.5 -116q0 -62 41.5 -96.5t105.5 -34.5q83 0 180 65l39 -51q-109 -86 -227 -86q-90 0 -152.5 51t-62.5 144zM289 1522v127h92v-127h-92z" />
<glyph horiz-adv-x="573" d="M59 481q109 86 228 86q90 0 152.5 -50.5t62.5 -143.5q0 -167 -226 -244l-6 -186h-59l-6 229q105 31 163 76t58 117q0 62 -41.5 96.5t-105.5 34.5q-83 0 -181 -66zM195 -180h92v-127h-92v127z" />
<glyph horiz-adv-x="577" d="M59 1577q109 86 228 86q90 0 152.5 -51t62.5 -144q0 -166 -226 -243l-6 -187h-59l-6 230q106 31 163.5 76t57.5 116q0 62 -41.5 96.5t-105.5 34.5q-84 0 -181 -65zM195 788v127h92v-127h-92z" />
<glyph horiz-adv-x="811" d="M137 -307v860h78v-373h381v373h78v-860h-78v416h-381v-416h-78z" />
<glyph horiz-adv-x="636" d="M96 123q0 159 68.5 247.5t167.5 88.5h10l18 94h52l-21 -102q21 -6 39 -15l23 117h51l-29 -139q32 -17 78 -52l-39 -53l-51 35l-96 -485q15 3 31 9t28.5 12.5t28 16.5t23.5 15.5t21 15.5t15 11l39 -58q-1 -1 -26.5 -18.5t-38.5 -25t-38.5 -21t-49.5 -20.5t-48 -9l-18 -94 h-51l18 96q-29 5 -39 10l-20 -106h-52l25 131q-55 40 -87 116.5t-32 182.5zM174 123q0 -141 59 -213l95 481q-67 -5 -110.5 -77.5t-43.5 -190.5zM276 -129q16 -11 39 -14l101 514q-10 5 -37 14z" />
<glyph horiz-adv-x="872" d="M127 590q0 215 94 337t228 122h16l27 127h63l-29 -140q32 -6 58 -18l32 158h64l-39 -189q31 -17 107 -72l-48 -59l-73 53l-142 -704q91 16 215 117l48 -60q-3 -2 -25.5 -18.5t-33.5 -24t-35 -23t-42.5 -24t-43 -19t-49.5 -16.5t-50 -8l-25 -129h-63l27 133q-37 4 -60 14 l-29 -147h-63l35 178q-76 55 -120 159.5t-44 252.5zM213 590q0 -213 96 -320l142 705q-101 0 -169.5 -105.5t-68.5 -279.5zM365 225q31 -17 57 -20l147 737q-23 13 -57 23z" />
<glyph horiz-adv-x="321" d="M115 121v131h90v-131h-90zM115 -176h90v-131h-90v131z" />
<glyph horiz-adv-x="704" d="M55 788l256 426l-243 435h90l194 -371l197 371h90l-244 -432l256 -429h-94l-205 365l-202 -365h-95z" />
<glyph horiz-adv-x="608" d="M80 16q0 158 68.5 247t168.5 89q22 0 45.5 -5.5t41 -11.5t40.5 -18.5t34 -19t32 -21t25 -16.5l-41 -55q-2 1 -14.5 10t-20.5 14.5t-22.5 14.5t-27 15t-27.5 12t-30.5 9t-29.5 3q-71 0 -117.5 -73t-46.5 -194q0 -122 46.5 -195t117.5 -73q14 0 29.5 3t30.5 9t27.5 12 t27 15t22.5 14.5t20.5 14.5t14.5 10l41 -55q-5 -3 -25 -16.5t-31.5 -21t-34 -19.5t-40.5 -18.5t-41.5 -12t-45.5 -5.5q-100 0 -168.5 89t-68.5 249z" />
<glyph horiz-adv-x="872" d="M127 590q0 207 87 328t216 131v127h70v-134q30 -5 59.5 -15.5t60.5 -28t47 -27.5t47.5 -32.5t33.5 -23.5l-48 -59l-31 23q-31 23 -50 35t-53.5 29.5t-65.5 25.5v-760q21 5 43.5 14t39.5 18t38.5 23t31 21.5t28 21.5t19.5 15l48 -60q-3 -2 -18 -13.5t-22 -16t-23 -16 t-26.5 -17.5t-27.5 -16t-31 -16t-31 -13.5t-34.5 -12.5t-34.5 -8v-133h-70v129q-129 8 -216 129.5t-87 331.5zM211 590q0 -167 62 -271.5t157 -115.5v770q-95 -9 -157 -113.5t-62 -269.5z" />
<glyph horiz-adv-x="1103" d="M80 877v67h110v232h86v-232h551v232h86v-232h111v-67h-111v-877h-86v578h-551v-578h-86v877h-110zM276 655h551v222h-551v-222z" />
<glyph horiz-adv-x="1079" d="M178 0v1176h86v-521h551v521h86v-1176h-86v578h-551v-578h-86z" />
<glyph horiz-adv-x="792" d="M98 1219q0 220 82 332t205 112q131 0 289 -137l-45 -56q-44 35 -69.5 53.5t-76.5 42t-92 23.5q-96 0 -153.5 -98t-57.5 -272q0 -171 58 -272t153 -101q96 0 221 131v203h-209v71h285v-463h-76v103q-121 -117 -231 -117q-120 0 -201.5 112.5t-81.5 332.5z" />
<glyph horiz-adv-x="960" d="M61 1176h99l319 -635l322 635h96l-375 -713v-463h-86v467z" />
<glyph horiz-adv-x="794" d="M98 123q0 220 82 332t205 112q131 0 289 -137l-45 -55q-44 35 -69.5 53.5t-76.5 42t-92 23.5q-95 0 -153 -98.5t-58 -272.5q0 -171 58 -272t153 -101q96 0 221 131v203h-209v72h285v-463h-76v102q-121 -117 -231 -117q-120 0 -201.5 112.5t-81.5 332.5z" />
<glyph horiz-adv-x="1062" d="M125 588q0 155 32 274.5t87 190t124 106t148 35.5q180 0 389 -188l-55 -62q-46 38 -68.5 55t-72.5 50.5t-97 49t-92 15.5q-137 0 -222 -139.5t-85 -386.5q0 -244 85.5 -385.5t221.5 -141.5q145 0 320 187v299h-297v78h383v-625h-86v147q-165 -165 -326 -165 q-79 0 -147 35.5t-123 106t-87 190t-32 274.5zM471 1309v159h109v-159h-109z" />
<glyph horiz-adv-x="1062" d="M125 588q0 155 32 274.5t87 190t124 106t148 35.5q180 0 389 -188l-55 -62q-46 38 -68.5 55t-72.5 50.5t-97 49t-92 15.5q-137 0 -222 -139.5t-85 -386.5q0 -244 85.5 -385.5t221.5 -141.5q145 0 320 187v299h-297v78h383v-625h-86v147q-165 -165 -326 -165 q-79 0 -147 35.5t-123 106t-87 190t-32 274.5zM483 -483l64 180h-51v166h108l17 -166l-99 -217z" />
<glyph horiz-adv-x="450" d="M117 -307v645h73v-139q5 13 11 25t24.5 38t40 44t58 30.5t77.5 9.5v-74q-53 0 -94 -21t-62 -50.5t-34.5 -59t-16.5 -50.5l-4 -21v-377h-73z" />
<glyph horiz-adv-x="960" d="M61 1176h99l319 -635l322 635h96l-375 -713v-463h-86v467zM371 1288l202 256h146l-275 -256h-73z" />
<glyph horiz-adv-x="960" d="M61 1176h99l319 -635l322 635h96l-375 -713v-463h-86v467zM291 1309v159h110v-159h-110zM561 1309v159h109v-159h-109z" />
<glyph horiz-adv-x="1062" d="M125 588q0 155 32 274.5t87 190t124 106t148 35.5q180 0 389 -188l-55 -62q-46 38 -68.5 55t-72.5 50.5t-97 49t-92 15.5q-137 0 -222 -139.5t-85 -386.5q0 -244 85.5 -385.5t221.5 -141.5q145 0 320 187v299h-297v78h383v-625h-86v147q-165 -165 -326 -165 q-79 0 -147 35.5t-123 106t-87 190t-32 274.5zM303 1487h74q0 -123 145 -123q150 0 150 123h71q0 -92 -59 -145.5t-162 -53.5q-102 0 -160.5 54t-58.5 145z" />
<glyph horiz-adv-x="1882" d="M98 104l45 68q72 -48 156 -82.5t156 -34.5q90 0 156.5 51t66.5 146q0 33 -10 62.5t-23.5 51t-39.5 42.5t-44.5 34t-52 28.5t-49.5 22t-49 19.5q-37 14 -58.5 23t-56.5 26.5t-56 33t-47 40.5t-40.5 51t-24.5 62t-10 77q0 128 83.5 200.5t209.5 72.5q75 0 163 -31 q-18 49 -18 119q0 145 73 226t199 81h281v-586q31 30 66 57.5t86.5 60.5t111 53t115.5 20q66 0 114 -24.5t74 -68t37.5 -94t11.5 -112.5v-799h-84v791q0 229 -167 229q-65 0 -145 -40.5t-131 -82.5t-89 -82v-815h-84v1427h-197q-98 0 -152 -69t-54 -184q0 -78 26 -138 l80 -43l-49 -65q-151 92 -270 92q-91 0 -150 -50.5t-59 -138.5q0 -31 8.5 -58t20.5 -46.5t33.5 -38.5t37 -30t44 -24.5t41.5 -18.5t40 -15q3 -1 5 -2t5.5 -2t5.5 -2q167 -64 244.5 -144t77.5 -196q0 -70 -25.5 -124.5t-69 -87t-96 -49t-110.5 -16.5q-169 0 -363 127z" />
<glyph horiz-adv-x="1722" d="M98 104l45 68q72 -48 156 -82.5t156 -34.5q90 0 156.5 51t66.5 146q0 33 -10 62.5t-23.5 51t-39.5 42.5t-44.5 34t-52 28.5t-49.5 22t-49 19.5q-37 14 -58.5 23t-56.5 26.5t-56 33t-47 40.5t-40.5 51t-24.5 62t-10 77q0 128 83.5 200.5t209.5 72.5q75 0 163 -31 q-18 49 -18 119q0 145 73 226t199 81h281v-1051l416 633h98l-303 -440l356 -635h-92l-313 561l-162 -237v-324h-84v1427h-197q-98 0 -152 -69t-54 -184q0 -78 26 -138l80 -43l-49 -65q-151 92 -270 92q-91 0 -150 -50.5t-59 -138.5q0 -31 8.5 -58t20.5 -46.5t33.5 -38.5 t37 -30t44 -24.5t41.5 -18.5t40 -15q3 -1 5 -2t5.5 -2t5.5 -2q167 -64 244.5 -144t77.5 -196q0 -70 -25.5 -124.5t-69 -87t-96 -49t-110.5 -16.5q-169 0 -363 127z" />
<glyph horiz-adv-x="1294" d="M98 104l45 68q72 -48 156 -82.5t156 -34.5q90 0 156.5 51t66.5 146q0 33 -10 62.5t-23.5 51t-39.5 42.5t-44.5 34t-52 28.5t-49.5 22t-49 19.5q-37 14 -58.5 23t-56.5 26.5t-56 33t-47 40.5t-40.5 51t-24.5 62t-10 77q0 128 83.5 200.5t209.5 72.5q75 0 163 -31 q-18 49 -18 119q0 145 73 226t199 81h293v-1493h-84v1427h-209q-98 0 -152 -69t-54 -184q0 -78 26 -138l80 -43l-49 -65q-151 92 -270 92q-91 0 -150 -50.5t-59 -138.5q0 -31 8.5 -58t20.5 -46.5t33.5 -38.5t37 -30t44 -24.5t41.5 -18.5t40 -15q3 -1 5 -2t5.5 -2t5.5 -2 q167 -64 244.5 -144t77.5 -196q0 -70 -25.5 -124.5t-69 -87t-96 -49t-110.5 -16.5q-169 0 -363 127z" />
<glyph horiz-adv-x="960" d="M61 1176h99l319 -635l322 635h96l-375 -713v-463h-86v467zM252 1544h143l205 -256h-74z" />
<glyph horiz-adv-x="1062" d="M125 588q0 155 32 274.5t87 190t124 106t148 35.5q180 0 389 -188l-55 -62q-46 38 -68.5 55t-72.5 50.5t-97 49t-92 15.5q-137 0 -222 -139.5t-85 -386.5q0 -244 85.5 -385.5t221.5 -141.5q145 0 320 187v299h-297v78h383v-625h-86v147q-165 -165 -326 -165 q-79 0 -147 35.5t-123 106t-87 190t-32 274.5z" />
<glyph horiz-adv-x="659" d="M137 788v861h457v-72h-379v-324h303v-69h-303v-396h-78z" />
<glyph horiz-adv-x="659" d="M137 -307v860h457v-72h-379v-323h303v-70h-303v-395h-78z" />
<glyph horiz-adv-x="866" d="M178 0v1176h615v-78h-529v-471h422v-78h-422v-549h-86z" />
<glyph horiz-adv-x="796" d="M82 1083v58h68q-3 37 -3 78q0 37 3 71h-68v58h74q22 157 97.5 236t178.5 79q51 0 106 -22t88 -44t85 -61l-43 -55q-40 31 -68.5 50t-75 38.5t-86.5 19.5q-74 0 -127 -62.5t-73 -178.5h309v-58h-316q-2 -23 -2 -71q0 -53 2 -78h316v-58h-307q20 -113 72 -174t126 -61 q40 0 87 20.5t74 39t69 50.5l43 -57q-52 -39 -85 -61t-88 -44t-106 -22q-101 0 -176.5 77.5t-99.5 231.5h-74z" />
<glyph horiz-adv-x="796" d="M82 -12v57h68q-3 37 -3 78q0 37 3 72h-68v57h74q22 157 97.5 236t178.5 79q51 0 106 -22t88 -44t85 -61l-43 -55q-41 32 -68.5 50.5t-74.5 38.5t-87 20q-74 0 -127 -63t-73 -179h309v-57h-316q-2 -23 -2 -72q0 -53 2 -78h316v-57h-307q20 -113 72 -174.5t126 -61.5 q40 0 87.5 21t73 39t69.5 51l43 -58q-52 -39 -85 -61t-88 -44t-106 -22q-101 0 -176.5 78t-99.5 232h-74z" />
<glyph horiz-adv-x="1093" d="M115 403v70h92q-4 70 -4 115q0 71 4 104h-92v70h100q31 216 134 324t243 108q99 0 189.5 -48t187.5 -128l-56 -57q-43 33 -68 51t-71 46.5t-89.5 42t-86.5 13.5q-110 0 -189 -92.5t-106 -259.5h449v-70h-457q-4 -66 -4 -104q0 -62 6 -115h455v-70h-447 q29 -164 106.5 -253t186.5 -89q43 0 86.5 14t91 43.5t71 46.5t68.5 52l54 -59q-97 -80 -187.5 -128t-189.5 -48q-138 0 -240.5 104.5t-136.5 316.5h-100z" />
<glyph horiz-adv-x="339" d="M117 -430l47 123h-41v131h88l12 -135l-78 -150zM123 121v131h90v-131h-90z" />
<glyph horiz-adv-x="339" d="M117 666l47 122h-41v132h88l12 -136l-78 -149zM123 1217v131h90v-131h-90z" />
<glyph horiz-adv-x="700" d="M43 553h86l221 -453l221 453h88l-270 -522v-338h-76v338z" />
<glyph horiz-adv-x="1509" d="M115 539q0 263 106.5 411t261.5 148q69 0 148 -35q-19 55 -19 123q0 144 75.5 225.5t199.5 81.5q135 0 207.5 -97.5t72.5 -262.5v-58h244v-74h-244v-825q0 -121 86 -121q35 0 89.5 19.5t91.5 38.5l36 -68q-132 -68 -223 -68q-164 0 -164 209v815h-122v74h122v78 q0 122 -49 198t-149 76q-99 0 -154 -69t-55 -182q0 -98 35 -158q19 -13 50.5 -36.5t43.5 -31.5l-49 -61q-2 2 -20.5 16t-31 23t-35.5 24.5t-43 25.5t-44.5 20.5t-49.5 16t-49 5.5q-119 0 -199.5 -131.5t-80.5 -349.5q0 -219 80.5 -351.5t199.5 -132.5q24 0 49 5.5t49.5 16 t44.5 20.5t43 25.5t35.5 24.5t31 23t20.5 16l49 -61q-1 -1 -25.5 -19.5t-32.5 -24t-34 -23t-41 -25.5t-42 -21t-47.5 -19t-47.5 -11t-52 -5q-155 0 -261.5 149.5t-106.5 412.5z" />
<glyph horiz-adv-x="583" d="M59 791v69h469v-59q-11 -16 -29.5 -45.5t-65.5 -119.5t-82.5 -180.5t-65 -216.5t-29.5 -239h-82q0 101 26 217t58.5 204t76 177.5t65 127.5t38.5 65h-379z" />
<glyph horiz-adv-x="583" d="M59 1364v70h469v-60q-11 -16 -29.5 -45.5t-65.5 -119.5t-82.5 -180.5t-65 -216.5t-29.5 -239h-82q0 101 26 217t58.5 204t76 177.5t65 127.5t38.5 65h-379z" />
</font>
</defs>
</svg>
