<svg version="1" xmlns="http://www.w3.org/2000/svg" width="1066.667" height="1066.667" viewBox="0 0 800.000000 800.000000"><path d="M62.4 2C48 5.3 35.3 12.2 24.4 22.7 12.7 34 5.2 47.7 1.9 63.5.1 72.2 0 84.3 0 400.5.1 721 .1 728.7 2 737.3c6.9 31.1 31.7 55.2 63.3 61.2 6.9 1.3 48.2 1.5 334.7 1.5 292.5 0 327.7-.2 335.1-1.6 8.4-1.6 19.4-5.5 23.9-8.4 1.4-.9 4.4-2.9 6.7-4.5 16.2-10.6 29.4-31.1 33.2-51.5.7-3.7.9-114 .8-336.5-.2-318.9-.3-331.2-2.1-337.5-2.6-9.2-8.7-21.7-13.7-28.1-12.8-16.3-26.2-24.8-48.4-30.6-1.6-.4-151.9-.9-334-1C84.2.2 70.2.2 62.4 2zM434 121.6c55.7 5.7 93.1 21.8 117.4 50.5 10.8 12.9 23.4 38.1 26 52.3.2 1.2.9 3.9 1.5 6.1 4.3 16 4.5 25.6 4.5 170.5 0 117.5-.4 150.4-1.8 152.9-.2.3-.7 3-1 6-1 8-5.2 24.1-8.7 32.9-15 37.8-43.4 62.7-87 76.1-8.9 2.7-26.2 6.6-33.9 7.5-4.3.5-11.2 1.5-16.5 2.3-2.2.3-52.5.8-111.7 1l-107.8.4V119.9l103.3.2c76 .1 106.5.5 115.7 1.5z"/><path d="M312.2 400l.3 182.5 46-.1c55.9 0 66.1-.6 83.1-4.9 10.8-2.7 17-5.4 24.4-10.6 9.8-6.9 16.7-18.4 18.9-31.6.6-3.6.9-56 .8-138.8l-.2-133-2.3-6.5c-3.2-9-6.2-13.8-12.2-19.7-4.2-4.2-15-10.9-19.4-12-.6-.2-5.1-1.4-10.1-2.7-16.7-4.4-23.8-4.9-80.8-5l-48.7-.1.2 182.5z"/></svg>