<?xml version="1.0" standalone="no"?>
<!DOCTYPE svg PUBLIC "-//W3C//DTD SVG 1.1//EN" "http://www.w3.org/Graphics/SVG/1.1/DTD/svg11.dtd" >
<svg xmlns="http://www.w3.org/2000/svg">
<metadata></metadata>
<defs>
<font id="verbexcondextralight_italic" horiz-adv-x="1028" >
<font-face units-per-em="2048" ascent="1638" descent="-410" />
<missing-glyph horiz-adv-x="460" />
<glyph unicode="ff" horiz-adv-x="1161" d="M-164 -342q80 28 121.5 49.5t69 66t37.5 84.5t28 142l174 1001h-121l17 74h119l36 211q20 112 63.5 159.5t125.5 47.5q89 0 242 -61l-43 -66q-35 14 -99.5 31.5t-97.5 17.5q-84 0 -107 -129l-36 -211h245l-16 -74h-244l-174 -1001q-15 -87 -22.5 -125t-24.5 -89t-34 -71 t-52 -48.5t-78 -45.5t-112 -39zM416 -342q80 28 121.5 49.5t69 66t37.5 84.5t28 142l174 1001h-121l16 74h119l37 211q20 112 63 159.5t125 47.5q89 0 242 -61l-43 -66q-35 14 -99.5 31.5t-97.5 17.5q-83 0 -106 -129l-37 -211h246l-16 -74h-244l-174 -1001 q-15 -86 -22.5 -125t-24.5 -89.5t-34.5 -71t-52 -48.5t-78 -45t-112.5 -39z" />
<glyph unicode="fi" horiz-adv-x="991" d="M-164 -342q40 14 68.5 25.5t53 27t40 27t29.5 34t21.5 38.5t16 51.5t13.5 61t14 77.5l174 1001h-121l17 74h119l36 211q20 111 63 159t118 48q73 0 202 -49l-41 -66q-102 37 -151 37q-84 0 -107 -129l-36 -211h245l-16 -74h-244l-174 -1001q-31 -175 -52 -229 q-30 -77 -101 -120q-56 -33 -170 -69zM633 0l190 1075h86l-190 -1075h-86zM860 1327l29 160h100l-28 -160h-101z" />
<glyph unicode="fl" horiz-adv-x="1013" d="M-164 -342q40 14 68.5 25.5t53 27t40 27t29.5 34t21.5 38.5t16 51.5t13.5 61t14 77.5l174 1001h-121l17 74h119l36 211q20 111 63 159t118 48q73 0 202 -49l-41 -66q-102 37 -151 37q-84 0 -107 -129l-36 -211h245l-16 -74h-244l-174 -1001q-31 -175 -52 -229 q-30 -77 -101 -120q-56 -33 -170 -69zM645 0l264 1493h84l-264 -1493h-84z" />
<glyph unicode="ffi" horiz-adv-x="1572" d="M-164 -342q80 28 121.5 49.5t69 66t37.5 84.5t28 142l174 1001h-121l17 74h119l36 211q20 112 63.5 159.5t125.5 47.5q89 0 242 -61l-43 -66q-35 14 -99.5 31.5t-97.5 17.5q-84 0 -107 -129l-36 -211h245l-16 -74h-244l-174 -1001q-15 -87 -22.5 -125t-24.5 -89t-34 -71 t-52 -48.5t-78 -45.5t-112 -39zM416 -342q40 14 68.5 25.5t53 27t40 27t29.5 34t21.5 38.5t16 51.5t13.5 61t14 77.5l174 1001h-121l16 74h119l37 211q20 111 62.5 159t117.5 48q73 0 203 -49l-41 -66q-102 37 -152 37q-83 0 -106 -129l-37 -211h246l-16 -74h-244 l-174 -1001q-31 -175 -52 -230q-31 -77 -104 -120q-55 -32 -168 -68zM1214 0l191 1075h86l-191 -1075h-86zM1442 1327l28 160h101l-29 -160h-100z" />
<glyph unicode="ffl" horiz-adv-x="1593" d="M-164 -342q80 28 121.5 49.5t69 66t37.5 84.5t28 142l174 1001h-121l17 74h119l36 211q20 112 63.5 159.5t125.5 47.5q89 0 242 -61l-43 -66q-35 14 -99.5 31.5t-97.5 17.5q-84 0 -107 -129l-36 -211h245l-16 -74h-244l-174 -1001q-15 -87 -22.5 -125t-24.5 -89t-34 -71 t-52 -48.5t-78 -45.5t-112 -39zM416 -342q40 14 68.5 25.5t53 27t40 27t29.5 34t21.5 38.5t16 51.5t13.5 61t14 77.5l174 1001h-121l16 74h119l37 211q20 111 62.5 159t117.5 48q73 0 203 -49l-41 -66q-102 37 -152 37q-83 0 -106 -129l-37 -211h246l-16 -74h-244 l-174 -1001q-31 -175 -52 -230q-31 -77 -104 -120q-55 -32 -168 -68zM1227 0l264 1493h84l-264 -1493h-84z" />
<glyph unicode="ffb" horiz-adv-x="2172" d="M-164 -342q80 28 121.5 49.5t69 66t37.5 84.5t28 142l174 1001h-121l17 74h119l36 211q20 112 63.5 159.5t125.5 47.5q89 0 242 -61l-43 -66q-35 14 -99.5 31.5t-97.5 17.5q-84 0 -107 -129l-36 -211h245l-16 -74h-244l-174 -1001q-15 -87 -22.5 -125t-24.5 -89t-34 -71 t-52 -48.5t-78 -45.5t-112 -39zM416 -342q40 14 68.5 25.5t53 27t40 27t29.5 34t21.5 38.5t16 51.5t13.5 61t14 77.5l174 1001h-121l16 74h119l37 211q20 111 62.5 159t117.5 48q73 0 203 -49l-41 -66q-102 37 -152 37q-83 0 -106 -129l-37 -211h246l-16 -74h-244 l-174 -1001q-31 -175 -52 -230q-31 -77 -104 -120q-55 -32 -168 -68zM1214 0l265 1493h86l-101 -567q172 172 324 172q54 0 101 -19t86 -58.5t62 -109t23 -161.5q0 -212 -52.5 -388t-149.5 -280.5t-218 -104.5q-51 0 -98.5 16.5t-88 48.5t-66 58t-58.5 64l-29 -164h-86z M1343 250q147 -195 291 -195q75 0 139.5 61.5t106.5 160t66 220t24 244.5q0 133 -47.5 206t-142.5 73q-84 0 -163.5 -52t-170.5 -143z" />
<glyph unicode="ffh" horiz-adv-x="2174" d="M-164 -342q80 28 121.5 49.5t69 66t37.5 84.5t28 142l174 1001h-121l17 74h119l36 211q20 112 63.5 159.5t125.5 47.5q89 0 242 -61l-43 -66q-35 14 -99.5 31.5t-97.5 17.5q-84 0 -107 -129l-36 -211h245l-16 -74h-244l-174 -1001q-15 -87 -22.5 -125t-24.5 -89t-34 -71 t-52 -48.5t-78 -45.5t-112 -39zM416 -342q40 14 68.5 25.5t53 27t40 27t29.5 34t21.5 38.5t16 51.5t13.5 61t14 77.5l174 1001h-121l16 74h119l37 211q20 111 62.5 159t117.5 48q73 0 203 -49l-41 -66q-102 37 -152 37q-83 0 -106 -129l-37 -211h246l-16 -74h-244 l-174 -1001q-31 -175 -52 -230q-31 -77 -104 -120q-55 -32 -168 -68zM1214 0l265 1493h86l-103 -578q80 67 186 125t207 58q123 0 171 -84t24 -221l-139 -793h-86l137 784q43 236 -123 236q-94 0 -205.5 -65.5t-189.5 -137.5l-144 -817h-86z" />
<glyph unicode="fb" horiz-adv-x="1591" d="M-164 -342q40 14 68.5 25.5t53 27t40 27t29.5 34t21.5 38.5t16 51.5t13.5 61t14 77.5l174 1001h-121l17 74h119l36 211q20 111 63 159t118 48q73 0 202 -49l-41 -66q-102 37 -151 37q-84 0 -107 -129l-36 -211h245l-16 -74h-244l-174 -1001q-31 -175 -52 -229 q-30 -77 -101 -120q-56 -33 -170 -69zM633 0l264 1493h86l-100 -567q172 172 323 172q115 0 194 -85t79 -263q0 -212 -52.5 -388t-149.5 -280.5t-218 -104.5q-51 0 -98.5 16.5t-88 48.5t-66 58t-58.5 64l-29 -164h-86zM762 250q147 -195 291 -195q75 0 139.5 61.5t106.5 160 t66 220t24 244.5q0 133 -48 206t-143 73q-84 0 -163.5 -52t-170.5 -143z" />
<glyph unicode="ffj" horiz-adv-x="1572" d="M-164 -342q80 28 121.5 49.5t69 66t37.5 84.5t28 142l174 1001h-121l17 74h119l36 211q20 112 63.5 159.5t125.5 47.5q89 0 242 -61l-43 -66q-35 14 -99.5 31.5t-97.5 17.5q-84 0 -107 -129l-36 -211h245l-16 -74h-244l-174 -1001q-15 -87 -22.5 -125t-24.5 -89t-34 -71 t-52 -48.5t-78 -45.5t-112 -39zM416 -342q40 14 68.5 25.5t53 27t40 27t29.5 34t21.5 38.5t16 51.5t13.5 61t14 77.5l174 1001h-121l16 74h119l37 211q20 111 62.5 159t117.5 48q73 0 203 -49l-41 -66q-102 37 -152 37q-83 0 -106 -129l-37 -211h246l-16 -74h-244 l-174 -1001q-31 -175 -52 -230q-31 -77 -104 -120q-55 -32 -168 -68zM958 -342q53 18 88 33t61 34t40 33.5t25 42.5t15.5 49t12.5 64l205 1161h86l-207 -1161q-23 -125 -42 -166q-31 -65 -113 -107q-55 -28 -152 -59zM1442 1327l28 160h101l-29 -160h-100z" />
<glyph unicode="ffk" horiz-adv-x="2011" d="M-164 -342q80 28 121.5 49.5t69 66t37.5 84.5t28 142l174 1001h-121l17 74h119l36 211q20 112 63.5 159.5t125.5 47.5q89 0 242 -61l-43 -66q-35 14 -99.5 31.5t-97.5 17.5q-84 0 -107 -129l-36 -211h245l-16 -74h-244l-174 -1001q-15 -87 -22.5 -125t-24.5 -89t-34 -71 t-52 -48.5t-78 -45.5t-112 -39zM416 -342q40 14 68.5 25.5t53 27t40 27t29.5 34t21.5 38.5t16 51.5t13.5 61t14 77.5l174 1001h-121l16 74h119l37 211q20 111 62.5 159t117.5 48q73 0 203 -49l-41 -66q-102 37 -152 37q-83 0 -106 -129l-37 -211h246l-16 -74h-244 l-174 -1001q-31 -175 -52 -230q-31 -77 -104 -120q-55 -32 -168 -68zM1214 0l265 1493h86l-185 -1034l514 616h105l-377 -440l240 -635h-88l-211 567l-205 -237l-58 -330h-86z" />
<glyph unicode="fft" horiz-adv-x="1769" d="M-164 -342q80 28 121.5 49.5t69 66t37.5 84.5t28 142l174 1001h-121l17 74h119l36 211q20 112 63.5 159.5t125.5 47.5q89 0 242 -61l-43 -66q-35 14 -99.5 31.5t-97.5 17.5q-84 0 -107 -129l-36 -211h245l-16 -74h-244l-174 -1001q-15 -87 -22.5 -125t-24.5 -89t-34 -71 t-52 -48.5t-78 -45.5t-112 -39zM416 -342q80 28 121.5 49.5t69 66t37.5 84.5t28 142l174 1001h-121l16 74h119l37 211q20 112 63 159.5t125 47.5q89 0 242 -61l-43 -66q-35 14 -99.5 31.5t-97.5 17.5q-83 0 -106 -129l-37 -211h246l-16 -74h-244l-174 -1001 q-15 -86 -22.5 -125t-24.5 -89.5t-34.5 -71t-52 -48.5t-78 -45t-112.5 -39zM1274.5 86q-5.5 43 3.5 111l143 804h-125l15 74h123l49 273l90 38l-55 -311h241l-14 -74h-242l-143 -823q-21 -123 63 -123q51 0 185 62l26 -72q-140 -68 -221 -68q-32 0 -58 9t-50.5 33t-30 67z " />
<glyph unicode="fh" horiz-adv-x="1593" d="M-164 -342q40 14 68.5 25.5t53 27t40 27t29.5 34t21.5 38.5t16 51.5t13.5 61t14 77.5l174 1001h-121l17 74h119l36 211q20 111 63 159t118 48q73 0 202 -49l-41 -66q-102 37 -151 37q-84 0 -107 -129l-36 -211h245l-16 -74h-244l-174 -1001q-31 -175 -52 -229 q-30 -77 -101 -120q-56 -33 -170 -69zM633 0l264 1493h86l-102 -578q80 67 186 125t207 58q123 0 170.5 -84t23.5 -221l-139 -793h-86l137 784q43 236 -123 236q-94 0 -205.5 -65.5t-189.5 -137.5l-143 -817h-86z" />
<glyph unicode="fj" horiz-adv-x="993" d="M-164 -342q40 14 68.5 25.5t53 27t40 27t29.5 34t21.5 38.5t16 51.5t13.5 61t14 77.5l174 1001h-121l17 74h119l36 211q20 111 63 159t118 48q73 0 202 -49l-41 -66q-102 37 -151 37q-84 0 -107 -129l-36 -211h245l-16 -74h-244l-174 -1001q-31 -175 -52 -229 q-30 -77 -101 -120q-56 -33 -170 -69zM377 -342q45 16 77.5 30t56.5 26.5t40 30t26.5 30.5t18 39t11.5 44t11 56l205 1161h86l-207 -1161q-23 -125 -42 -166q-31 -65 -113 -107q-54 -28 -152 -59zM860 1327l29 160h100l-28 -160h-101z" />
<glyph unicode="fk" horiz-adv-x="1429" d="M-164 -342q40 14 68.5 25.5t53 27t40 27t29.5 34t21.5 38.5t16 51.5t13.5 61t14 77.5l174 1001h-121l17 74h119l36 211q20 111 63 159t118 48q73 0 202 -49l-41 -66q-102 37 -151 37q-84 0 -107 -129l-36 -211h245l-16 -74h-244l-174 -1001q-31 -175 -52 -229 q-30 -77 -101 -120q-56 -33 -170 -69zM633 0l264 1493h86l-184 -1034l514 616h104l-377 -440l240 -635h-88l-211 567l-205 -237l-57 -330h-86z" />
<glyph unicode="ft" horiz-adv-x="1189" d="M-164 -342q80 28 121.5 49.5t69 66t37.5 84.5t28 142l174 1001h-121l17 74h119l36 211q20 112 63.5 159.5t125.5 47.5q89 0 242 -61l-43 -66q-35 14 -99.5 31.5t-97.5 17.5q-84 0 -107 -129l-36 -211h245l-16 -74h-244l-174 -1001q-15 -87 -22.5 -125t-24.5 -89t-34 -71 t-52 -48.5t-78 -45.5t-112 -39zM692.5 86q-5.5 43 3.5 111l144 804h-125l14 74h123l49 273l90 38l-55 -311h242l-15 -74h-241l-144 -823q-21 -123 64 -123q50 0 184 62l27 -72q-44 -21 -110.5 -44.5t-111.5 -23.5q-32 0 -58 9t-50.5 33t-30 67z" />
<glyph unicode=" "  horiz-adv-x="460" />
<glyph unicode="&#x09;" horiz-adv-x="460" />
<glyph unicode="&#xa0;" horiz-adv-x="460" />
<glyph unicode="!" horiz-adv-x="479" d="M76 0l33 186h112l-33 -186h-112zM174 406l158 1028h100l-203 -1028h-55z" />
<glyph unicode="&#x22;" horiz-adv-x="688" d="M215 922l72 512h102l-108 -512h-66zM510 922l72 512h102l-109 -512h-65z" />
<glyph unicode="#" horiz-adv-x="1275" d="M61 395l15 78h248l147 485h-238l15 78h246l120 398h80l-121 -398h357l121 398h77l-120 -398h241l-12 -78h-252l-147 -485h241l-12 -78h-254l-119 -395h-78l119 395h-356l-119 -395h-78l119 395h-240zM403 473h357l147 485h-356z" />
<glyph unicode="$" horiz-adv-x="1032" d="M27 133l59 72q152 -117 295 -139l117 649q-41 24 -64.5 38.5t-58 38.5t-54 43t-43 47.5t-35 56.5t-20 65t-8.5 79q0 115 56.5 201.5t147 129t199.5 42.5h11l33 184h71l-35 -190q146 -22 303 -119l-55 -65q-129 82 -262 102l-104 -596q57 -34 94 -58t80 -62t68 -75.5 t42 -90t17 -113.5q0 -95 -37.5 -172.5t-99.5 -125t-137.5 -73t-155.5 -25.5h-13l-30 -182h-74l33 189q-175 25 -340 149zM305 1083q0 -64 26 -113t66.5 -81.5t116.5 -77.5l100 563h-2q-126 0 -216.5 -77.5t-90.5 -213.5zM453 59h2q142 0 240 84t98 224q0 55 -17 101t-51 83 t-71 65t-91 60z" />
<glyph unicode="%" horiz-adv-x="1660" d="M164 987q0 85 22 167t62.5 150t105.5 110t144 42q123 0 195.5 -75.5t72.5 -223.5q0 -85 -21.5 -167t-61 -150t-104.5 -110t-145 -42q-123 0 -196.5 76t-73.5 223zM250 979q0 -219 188 -219q61 0 110 39.5t77.5 102t43.5 130.5t15 133q0 219 -188 219q-61 0 -110 -39.5 t-77.5 -102t-43.5 -130.5t-15 -133zM371 0l866 1434h86l-866 -1434h-86zM928 276q0 115 36 219.5t114 177t182 72.5q124 0 197 -75.5t73 -223.5q0 -85 -21.5 -167t-61 -150t-104.5 -110t-145 -42q-123 0 -196.5 76t-73.5 223zM1012 268q0 -113 47.5 -166t142.5 -53 q60 0 108.5 40t77 102t43.5 130.5t15 133.5q0 219 -186 219q-61 0 -110 -40t-78 -102t-44.5 -130.5t-15.5 -133.5z" />
<glyph unicode="&#x26;" horiz-adv-x="1165" d="M98 287q0 68 19.5 131.5t47.5 111t76 98t88 84t99 79.5q-49 79 -73.5 152.5t-24.5 164.5q0 90 27 159.5t71.5 109t95 59.5t103.5 20q60 0 111 -24t86.5 -80.5t35.5 -137.5q0 -56 -19 -109t-44.5 -92.5t-73.5 -87.5t-83 -76.5t-97 -76.5l266 -424q112 180 180 408h90 q-75 -279 -221 -488l170 -268h-102l-125 197q-181 -220 -404 -220q-135 0 -217 80.5t-82 229.5zM188 295q0 -44 10 -83.5t33 -75.5t66.5 -57.5t103.5 -21.5q190 0 353 213l-281 449q-66 -51 -109.5 -91.5t-87.5 -94t-66 -113t-22 -125.5zM418 1110q0 -133 80 -268 q54 41 86 67t73 65.5t63 73t38 77t16 89.5q0 74 -38 118t-111 44q-99 0 -153 -75t-54 -191z" />
<glyph unicode="'" horiz-adv-x="393" d="M215 922l72 512h102l-108 -512h-66z" />
<glyph unicode="(" horiz-adv-x="530" d="M60.5 -116q-3.5 55 11.5 136l245 1385q13 72 25 109.5t44 77.5t88 68t151 58l18 -80q-75 -26 -117.5 -47t-68 -52t-35.5 -62t-21 -91l-239 -1347l-10.5 -58.5t-4.5 -45t0.5 -36t10 -27t17.5 -23t30.5 -19.5t41 -21.5t56.5 -23.5l-33 -78q-112 40 -159 81t-50.5 96z" />
<glyph unicode=")" horiz-adv-x="528" d="M-78 -213q75 26 117.5 47t68 52t35.5 62t21 91l239 1347l10.5 58.5t4.5 45t-0.5 36t-10 27t-17.5 23t-30.5 19.5t-41 21.5t-56.5 23.5l33 78q112 -40 159.5 -81t51 -96t-11.5 -136l-246 -1385q-8 -48 -15 -76t-21 -60.5t-33.5 -53t-51.5 -43t-77 -41.5t-109 -39z" />
<glyph unicode="*" horiz-adv-x="911" d="M193 1004l290 90l-239 186l55 66l219 -213l35 301l84 -17l-66 -293l275 123l26 -84l-288 -88l241 -184l-57 -68l-215 211l-37 -301l-84 15l70 294l-279 -120z" />
<glyph unicode="+" d="M109 643l14 78h369l69 385h78l-70 -385h377l-14 -78h-377l-68 -383h-75l67 383h-370z" />
<glyph unicode="," horiz-adv-x="423" d="M2 -201l100 201h-53l33 186h113l-17 -186l-145 -238z" />
<glyph unicode="-" horiz-adv-x="753" d="M141 541l15 86h444l-14 -86h-445z" />
<glyph unicode="." horiz-adv-x="421" d="M49 0l33 186h115l-33 -186h-115z" />
<glyph unicode="/" horiz-adv-x="759" d="M-80 -184l875 1802h82l-873 -1802h-84z" />
<glyph unicode="0" horiz-adv-x="1126" d="M135 420q0 66 9 149.5t30 183t51.5 197.5t76.5 190t101.5 162t130.5 112t160 42q332 0 332 -442q0 -66 -9 -149.5t-30 -183.5t-51 -197.5t-76 -189.5t-101.5 -162t-131 -112.5t-160.5 -42.5q-332 0 -332 443zM225 422q0 -60 5 -108t20.5 -97.5t41.5 -82.5t70.5 -54 t104.5 -21q73 0 137.5 42t111 110.5t85 157.5t63 181t41.5 183t24 161t7 118q0 61 -5 108.5t-20 97t-40.5 82t-70 53.5t-104.5 21q-73 0 -138 -42t-111.5 -110.5t-85 -157.5t-63.5 -180.5t-42 -182.5t-24 -161t-7 -118z" />
<glyph unicode="1" horiz-adv-x="606" d="M174 1262l295 172h76l-254 -1434h-88l233 1323l-225 -133z" />
<glyph unicode="2" horiz-adv-x="970" d="M6 0l17 94q11 63 30 119t39.5 98t55.5 86.5t61 73t74.5 68t77 61t86.5 63.5q34 24 51 37q81 60 134.5 106.5t107 106t80 121.5t26.5 127q3 94 -54.5 153.5t-166.5 59.5q-90 0 -176 -36t-144 -81l-39 70q176 129 359 129q140 0 225.5 -74.5t85.5 -216.5q0 -42 -9 -83 t-22 -75.5t-37 -71.5t-46 -65.5t-57 -62.5t-61 -57.5t-68.5 -56.5t-68.5 -52t-71 -52t-68 -50q-95 -71 -153.5 -130t-101.5 -140.5t-62 -186.5h641l-15 -82h-731z" />
<glyph unicode="3" horiz-adv-x="997" d="M6 102l57 72q132 -115 304 -115q163 0 268.5 106t105.5 265q0 103 -49 178t-124.5 109.5t-166.5 34.5h-43l17 86h53q92 0 182 48t148.5 129.5t58.5 170.5q0 88 -57.5 138t-155.5 50q-82 0 -161 -32t-136 -74l-35 67q27 21 68.5 44.5t121.5 50t154 26.5q133 0 211 -75 t78 -191q0 -73 -30.5 -146t-106.5 -144.5t-188 -113.5q107 -24 180.5 -122.5t73.5 -235.5q0 -120 -54.5 -221.5t-164 -165.5t-253.5 -64q-194 0 -356 125z" />
<glyph unicode="4" horiz-adv-x="1030" d="M31 344l14 78l752 1012h114l-178 -1008h178l-14 -82h-178l-62 -344h-86l62 344h-602zM141 426h506l158 895z" />
<glyph unicode="5" horiz-adv-x="983" d="M29 113l51 67q77 -62 136 -88q74 -33 144 -33q67 0 134 30t123 84.5t91 142t35 192.5q0 137 -63.5 220t-181.5 83q-121 0 -267 -98l-49 22l187 699h585l-14 -82h-514l-129 -525q107 66 221 66q146 0 232 -109t86 -280q0 -144 -58 -263.5t-166.5 -191.5t-246.5 -72 q-61 0 -114.5 12.5t-97.5 37.5t-67.5 42t-56.5 44z" />
<glyph unicode="6" horiz-adv-x="1048" d="M121 434q0 268 99 504t266.5 377t359.5 141q39 0 77.5 -6.5t56.5 -13.5l19 -6l-36 -74q-47 18 -117 18q-135 0 -259.5 -91t-212 -237.5t-132.5 -324.5q22 28 49.5 55.5t71.5 60.5t103.5 53.5t123.5 20.5q65 0 119 -22t91 -59.5t63 -87t38 -103t12 -109.5q0 -81 -19 -161 t-57 -150.5t-90 -124.5t-124 -85.5t-154 -31.5q-71 0 -129.5 26t-98.5 70.5t-67.5 103.5t-40 123.5t-12.5 133.5zM207 440q0 -98 27 -182t88 -141.5t147 -57.5q105 0 187 68t124.5 174t42.5 227q0 56 -14 108t-41.5 96t-75.5 70.5t-110 26.5t-125 -27t-110.5 -68.5 t-82.5 -86.5t-51 -84q-6 -61 -6 -123z" />
<glyph unicode="7" horiz-adv-x="841" d="M145 0q27 152 83 316t127 308t139.5 266.5t140 228t105.5 153.5t59 80h-609l15 82h721l-13 -66q-11 -14 -31.5 -39.5t-80 -108.5t-115.5 -170.5t-128.5 -217t-130.5 -255.5t-109 -280t-76 -297h-97z" />
<glyph unicode="8" horiz-adv-x="1067" d="M74 307q0 56 14 107t36 90.5t55.5 76.5t66.5 64t74.5 53t74.5 42.5t72 33.5q-184 108 -184 309q0 164 114.5 268.5t276.5 104.5q140 0 220.5 -82.5t80.5 -208.5q0 -66 -24 -126t-57.5 -101t-81.5 -77.5t-85 -56.5t-78 -38q50 -29 88.5 -59t79.5 -75t63.5 -105.5 t22.5 -131.5q0 -93 -40 -173t-106.5 -132.5t-151.5 -82.5t-175 -30q-158 0 -257 86t-99 244zM166 307q0 -122 73 -185t189 -63q152 0 266.5 94t114.5 244q0 49 -15.5 93.5t-38.5 76.5t-59.5 64t-66.5 52t-72 44q-65 -30 -113 -55t-104 -64.5t-91 -80.5t-59 -98.5t-24 -121.5 zM371 1079q0 -166 190 -266q326 135 326 348q0 92 -59.5 152.5t-159.5 60.5q-123 0 -210 -86.5t-87 -208.5z" />
<glyph unicode="9" horiz-adv-x="1048" d="M84 4l37 74q49 -19 119 -19q134 0 257.5 90t210.5 236t132 322q-22 -28 -50 -54.5t-72 -59t-103 -52t-121 -19.5q-80 0 -143 33.5t-101 89t-58 122t-20 136.5q0 81 18.5 160.5t56.5 150t90 125t124.5 86t154.5 31.5q87 0 156 -40t110 -106t62 -145.5t21 -165.5 q0 -268 -99 -504t-266.5 -377t-359.5 -141q-40 0 -79 6.5t-58 13.5zM262 903q0 -55 14 -106.5t42 -95.5t76 -70.5t110 -26.5q80 0 160 46.5t131 105t73 112.5q9 61 9 125q0 97 -27 181.5t-88 142t-146 57.5q-105 0 -187 -68t-124.5 -174.5t-42.5 -228.5z" />
<glyph unicode=":" horiz-adv-x="423" d="M47 0l33 186h115l-33 -186h-115zM176 733l33 187h115l-33 -187h-115z" />
<glyph unicode=";" horiz-adv-x="448" d="M10 -201l101 201h-54l33 186h113l-17 -186l-145 -238zM186 733l33 187h115l-33 -187h-115z" />
<glyph unicode="&#x3c;" d="M84 645l14 78l897 436l-20 -106l-797 -375l664 -375l-17 -94z" />
<glyph unicode="=" horiz-adv-x="1030" d="M76 467l12 78h823l-14 -78h-821zM137 823l15 78h823l-14 -78h-824z" />
<glyph unicode="&#x3e;" d="M55 209l21 106l796 375l-663 375l16 94l742 -436l-15 -78z" />
<glyph unicode="?" horiz-adv-x="839" d="M186 0l33 186h115l-33 -186h-115zM195 1319q184 137 356 137q45 0 87 -9t80 -30t65.5 -51.5t44 -76.5t16.5 -103q0 -68 -24 -129t-63.5 -108t-95 -87.5t-114.5 -69t-127 -51.5l-70 -335h-71l55 393q83 25 152 57.5t133 78.5t100.5 109.5t36.5 137.5q0 96 -57.5 144 t-147.5 48q-79 0 -152 -31.5t-163 -87.5z" />
<glyph unicode="@" horiz-adv-x="1679" d="M92 346q0 156 39 309.5t116 288t182.5 238t249 163.5t304.5 60q218 0 357.5 -114t186 -312t3.5 -459q-46 -256 -149.5 -405.5t-256.5 -149.5q-184 0 -155 238q-159 -154 -301 -154q-82 0 -142.5 63t-60.5 179q0 170 89 267t214 97q33 0 76.5 -7.5t69.5 -14t72 -20.5 t50 -15l25 131q20 115 -4.5 169t-120.5 54q-101 0 -277 -88l-32 76q81 40 167 65t150 25q114 0 169.5 -69t29.5 -216l-82 -462q-17 -112 -11 -157q14 -86 89 -87q35 0 76 23.5t86.5 74.5t86.5 150.5t64 232.5q20 137 19.5 258t-33.5 222t-91 173.5t-152.5 113t-217.5 40.5 q-142 0 -270 -54.5t-224 -149t-167 -218.5t-107.5 -267.5t-36.5 -291.5q0 -133 32 -248t92 -201.5t153.5 -136t209.5 -49.5q55 0 108.5 10t91 24.5t67.5 29.5t44 25l15 10l41 -66q-6 -5 -17.5 -12t-49 -26.5t-78 -34t-102.5 -26.5t-124 -12q-173 0 -302.5 96t-195 256.5 t-65.5 360.5zM547 291q0 -83 39 -123.5t102 -40.5q130 0 297 174l41 234q-9 2 -44.5 11.5t-60 15t-61 11t-65.5 5.5q-66 0 -116.5 -27.5t-78 -71.5t-40.5 -91.5t-13 -96.5z" />
<glyph unicode="A" horiz-adv-x="1140" d="M-37 0l707 1434h98l201 -1434h-92l-54 395h-567l-190 -395h-103zM295 477h518l-111 846z" />
<glyph unicode="B" horiz-adv-x="1146" d="M88 0l254 1434h352q165 0 257.5 -81.5t92.5 -219.5q0 -69 -20 -129.5t-51 -102t-71 -73t-77.5 -48t-72.5 -22.5q36 -7 73 -25.5t75.5 -52.5t62.5 -93t24 -134q0 -208 -122 -330.5t-337 -122.5h-440zM190 82h349q171 0 265.5 108.5t94.5 264.5q0 124 -79 191t-208 67h-309 zM317 795h293q54 0 112.5 21t111.5 60t87.5 106t34.5 148q0 100 -67 161t-201 61h-272z" />
<glyph unicode="C" horiz-adv-x="1097" d="M139 520q0 209 49.5 387.5t132 297t189 185t221.5 66.5q61 0 117.5 -18.5t108 -55.5t85 -67.5t80.5 -79.5l-61 -55q-95 100 -171 147t-159 47q-98 0 -188.5 -63.5t-159.5 -174.5t-110.5 -272.5t-41.5 -345.5q0 -234 70 -346.5t184 -112.5q83 0 189.5 56t212.5 143l51 -68 q-132 -98 -243 -155.5t-220 -57.5q-150 0 -243 132t-93 411z" />
<glyph unicode="D" horiz-adv-x="1196" d="M88 0l254 1434h244q113 0 205.5 -31t161.5 -93t107 -162.5t38 -232.5q0 -211 -54.5 -383.5t-152 -289t-234 -179.5t-299.5 -63h-270zM190 82h162q142 0 261.5 55.5t207 159t136.5 262.5t49 356q0 437 -441 437h-149z" />
<glyph unicode="E" horiz-adv-x="1015" d="M88 0l254 1434h694l-16 -82h-604l-105 -594h504l-14 -82h-504l-107 -594h621l-16 -82h-707z" />
<glyph unicode="F" horiz-adv-x="970" d="M88 0l254 1434h694l-16 -82h-604l-105 -594h486l-15 -82h-485l-121 -676h-88z" />
<glyph unicode="G" horiz-adv-x="1204" d="M139 498q0 187 34 346t91.5 270t133.5 189.5t159.5 115.5t169.5 37q202 0 412 -242l-68 -53q-32 35 -48.5 52t-57 53.5t-72.5 55.5t-77.5 35.5t-88.5 16.5q-96 0 -186 -63t-158 -173.5t-109 -273.5t-41 -350q0 -214 65 -334.5t185 -120.5q171 0 426 242l66 373h-342 l14 82h430l-133 -756h-88l33 188q-108 -95 -208 -153t-204 -58q-71 0 -131.5 31t-107 93t-73 163.5t-26.5 233.5z" />
<glyph unicode="H" horiz-adv-x="1212" d="M88 0l254 1434h88l-115 -641h641l115 641h88l-254 -1434h-88l125 711h-641l-125 -711h-88z" />
<glyph unicode="I" horiz-adv-x="483" d="M88 0l254 1434h88l-254 -1434h-88z" />
<glyph unicode="J" horiz-adv-x="483" d="M-139 -184q40 14 69 25.5t52.5 25t38.5 23t27.5 27t19.5 28.5t13.5 35t9.5 39t9 49l242 1366h88l-242 -1366q-23 -124 -42 -165q-30 -65 -112 -107q-55 -28 -155 -60z" />
<glyph unicode="K" horiz-adv-x="1085" d="M88 0l254 1434h88l-151 -859l737 859h114l-600 -691l408 -743h-102l-367 674l-219 -252l-74 -422h-88z" />
<glyph unicode="L" horiz-adv-x="919" d="M88 0l254 1434h88l-240 -1352h592l-14 -82h-680z" />
<glyph unicode="M" horiz-adv-x="1427" d="M88 0l254 1434h98l228 -1076l610 1076h98l-254 -1434h-88l219 1235l-567 -995h-70l-217 1020l-223 -1260h-88z" />
<glyph unicode="N" horiz-adv-x="1239" d="M88 0l254 1434h94l434 -1284l228 1284h88l-254 -1434h-92l-437 1286l-227 -1286h-88z" />
<glyph unicode="O" horiz-adv-x="1267" d="M135 483q0 63 9.5 142t31.5 173t54.5 185.5t82.5 177.5t110.5 151t143 104.5t176.5 39.5q209 0 315.5 -127t106.5 -379q0 -63 -9.5 -142t-31.5 -173t-54.5 -185.5t-82.5 -177.5t-110.5 -151t-143 -104.5t-176.5 -39.5q-209 0 -315.5 127t-106.5 379zM225 483 q0 -424 332 -424q81 0 152 38.5t122.5 101t94 144.5t69.5 167t45.5 170.5t26.5 153t8 116.5q0 424 -332 424q-81 0 -152 -38.5t-122.5 -101t-94 -144.5t-69.5 -167t-45.5 -170.5t-26.5 -153t-8 -116.5z" />
<glyph unicode="P" horiz-adv-x="1097" d="M88 0l254 1434h356q65 0 120 -10.5t103.5 -35t82.5 -62.5t53.5 -95.5t19.5 -130.5q0 -130 -41.5 -229.5t-115.5 -160t-169.5 -90.5t-209.5 -30h-258l-107 -590h-88zM297 672h254q88 0 164 25.5t137.5 75.5t97 133.5t35.5 191.5q0 131 -77 192.5t-208 61.5h-284z" />
<glyph unicode="Q" horiz-adv-x="1267" d="M135 483q0 63 9.5 142t31.5 173t54.5 185.5t82.5 177.5t110.5 151t143 104.5t176.5 39.5q209 0 315.5 -127t106.5 -379q0 -59 -8.5 -132t-28 -161t-48 -174t-72.5 -170t-96.5 -150.5t-124.5 -114t-154 -62.5l180 -222l-74 -57l-194 270q-410 9 -410 506zM225 483 q0 -424 332 -424q81 0 152 38.5t122.5 101t94 144.5t69.5 167t45.5 170.5t26.5 153t8 116.5q0 424 -332 424q-81 0 -152 -38.5t-122.5 -101t-94 -144.5t-69.5 -167t-45.5 -170.5t-26.5 -153t-8 -116.5z" />
<glyph unicode="R" horiz-adv-x="1163" d="M88 0l254 1434h399q82 0 148.5 -17t119.5 -53t82 -98.5t29 -147.5q0 -105 -32.5 -189.5t-90.5 -140.5t-131 -90t-159 -47l221 -651h-90l-211 643h-336l-115 -643h-88zM305 725h299q194 0 309 101.5t115 287.5q0 121 -79 179.5t-212 58.5h-321z" />
<glyph unicode="S" horiz-adv-x="1032" d="M27 133l59 72q189 -146 369 -146q142 0 240 84t98 224q0 51 -16 94.5t-38.5 75t-64 65t-75.5 54.5t-91 53q-52 30 -78 46.5t-67 45.5t-62 54t-44 60.5t-32.5 77t-9.5 90.5q0 115 56.5 201.5t147 129t199.5 42.5q188 0 383 -125l-55 -65q-73 47 -164 77.5t-170 30.5 q-126 0 -216.5 -77.5t-90.5 -213.5q0 -43 12 -78.5t29 -61t53.5 -54.5t68 -49t89.5 -54q47 -28 72 -43.5t65 -43.5t62 -49t49.5 -53.5t41.5 -64t24 -72.5t10 -87q0 -95 -37.5 -172.5t-99.5 -125t-137.5 -73t-155.5 -25.5q-118 0 -228 46t-196 110z" />
<glyph unicode="T" horiz-adv-x="940" d="M178 1352l15 82h843l-14 -82h-379l-240 -1352h-88l240 1352h-377z" />
<glyph unicode="U" horiz-adv-x="1198" d="M158 451l174 983h88l-172 -975q-13 -71 -16 -125q-1 -13 -1 -25q0 -42 8 -83q10 -54 36.5 -89t79 -56.5t128.5 -21.5q339 0 410 400l172 975h88l-174 -983q-14 -82 -38.5 -151t-65.5 -129.5t-95.5 -103t-130.5 -66.5t-168 -24q-337 0 -337 328q0 66 14 146z" />
<glyph unicode="V" horiz-adv-x="1134" d="M205 1434h90l174 -1321l639 1321h102l-706 -1434h-98z" />
<glyph unicode="W" horiz-adv-x="1562" d="M221 1434h94l45 -1305l514 1305h97l43 -1313l506 1313h100l-571 -1434h-107l-45 1280l-502 -1280h-104z" />
<glyph unicode="X" horiz-adv-x="1026" d="M-43 0l532 711l-262 723h97l217 -641l440 641h109l-517 -723l285 -711h-98l-236 633l-454 -633h-113z" />
<glyph unicode="Y" horiz-adv-x="1046" d="M190 1434h91l239 -783l508 783h107l-580 -865l-100 -569h-88l98 565z" />
<glyph unicode="Z" horiz-adv-x="1032" d="M-23 0l15 78l952 1274h-690l14 82h801l-14 -76l-953 -1276h740l-15 -82h-850z" />
<glyph unicode="[" horiz-adv-x="585" d="M27 -295l356 2013h319l-14 -82h-231l-328 -1849h231l-14 -82h-319z" />
<glyph unicode="\" horiz-adv-x="729" d="M223 1618h76l240 -1802h-76z" />
<glyph unicode="]" horiz-adv-x="585" d="M-84 -295l14 82h232l327 1849h-231l14 82h320l-356 -2013h-320z" />
<glyph unicode="^" d="M178 739l443 695h88l196 -695h-90l-162 613l-370 -613h-105z" />
<glyph unicode="_" horiz-adv-x="1198" d="M-2 -258l14 74h891l-12 -74h-893z" />
<glyph unicode="`" horiz-adv-x="354" d="M270 1493h136l165 -256h-67z" />
<glyph unicode="a" horiz-adv-x="1017" d="M90 324q0 213 55 389.5t155 280.5t224 104q147 0 297 -191l31 168h84l-191 -1075h-83l32 188q-184 -211 -360 -211q-102 0 -173 84.5t-71 262.5zM178 332q0 -130 42 -203.5t122 -73.5q51 0 101 18.5t98.5 55t86 72t85.5 88.5l94 534q-138 197 -277 197q-78 0 -146 -61.5 t-112 -160.5t-69 -221t-25 -245z" />
<glyph unicode="b" horiz-adv-x="1011" d="M53 0l264 1493h86l-100 -567q172 172 324 172q54 0 101 -19t86 -58.5t62 -109t23 -161.5q0 -212 -52.5 -388t-149.5 -280.5t-218 -104.5q-51 0 -98.5 16.5t-88 48.5t-66 58t-58.5 64l-29 -164h-86zM182 250q147 -195 291 -195q75 0 139.5 61.5t106.5 160t66 220t24 244.5 q0 133 -48 206t-143 73q-83 0 -162 -51.5t-171 -143.5z" />
<glyph unicode="c" horiz-adv-x="880" d="M90 397q0 128 27 242t72.5 196.5t104.5 142.5t124 90t131 30q51 0 100.5 -16t95 -47.5t65 -47.5t52.5 -47l-57 -55q-74 70 -125 98q-65 37 -125 37q-70 0 -138 -46t-121.5 -125.5t-86.5 -197t-33 -250.5q0 -164 54.5 -255t154.5 -91q32 0 68.5 10t73 29.5t60 33.5 t56.5 36.5t35 23.5l43 -67l-39 -25q-40 -25 -54 -33.5t-54 -29.5t-66 -30t-63 -17.5t-70 -8.5q-129 0 -207 113.5t-78 306.5z" />
<glyph unicode="d" horiz-adv-x="1017" d="M90 324q0 213 55 389.5t155 280.5t224 104q147 0 297 -191l105 586h84l-265 -1493h-83l32 188q-184 -211 -360 -211q-102 0 -173 84.5t-71 262.5zM178 332q0 -130 42 -203.5t122 -73.5q51 0 101 18.5t98.5 55t86 72t85.5 88.5l94 534q-138 197 -277 197q-78 0 -146 -61.5 t-112 -160.5t-69 -221t-25 -245z" />
<glyph unicode="e" horiz-adv-x="946" d="M90 418q0 193 64 348t179.5 243.5t260.5 88.5q127 0 197.5 -68.5t70.5 -179.5q0 -167 -148 -270t-438 -103h-96q-2 -20 -2 -61q0 -176 57.5 -268.5t163.5 -92.5q27 0 56 5.5t58.5 18t52.5 23t52 29t43.5 28t40.5 28t29 20.5l43 -66q-49 -34 -74.5 -50.5t-84 -49 t-114.5 -48.5t-110 -16q-138 0 -219.5 114t-81.5 327zM188 555h103q238 0 360.5 83.5t122.5 213.5q0 80 -53 124t-135 44q-146 0 -257 -127.5t-141 -337.5z" />
<glyph unicode="f" horiz-adv-x="579" d="M-164 -342q80 28 121.5 49.5t69 66t37.5 84.5t28 142l174 1001h-121l17 74h119l36 211q20 112 63.5 159.5t125.5 47.5q89 0 242 -61l-43 -66q-35 14 -99.5 31.5t-97.5 17.5q-84 0 -107 -129l-36 -211h245l-16 -74h-244l-174 -1001q-15 -87 -22.5 -125t-24.5 -89t-34 -71 t-52 -48.5t-78 -45.5t-112 -39z" />
<glyph unicode="g" horiz-adv-x="1017" d="M-8 -367l35 82q196 -75 333 -75q57 0 104 17.5t77.5 44t52.5 63t33.5 70t17.5 69.5l49 286q-74 -87 -168 -150t-192 -63q-102 0 -173 84.5t-71 262.5q0 213 55 389.5t155 280.5t224 104q147 0 297 -191l31 168h84l-209 -1177q-59 -336 -367 -336q-172 0 -368 71zM178 332 q0 -130 42 -203.5t122 -73.5q51 0 101 18.5t98 55t86 72.5t86 88l94 534q-138 197 -277 197q-78 0 -146 -61.5t-112 -160.5t-69 -221t-25 -245z" />
<glyph unicode="h" horiz-adv-x="1013" d="M53 0l264 1493h86l-102 -578q80 67 186 125t207 58q123 0 171 -84q32 -56 32 -136q0 -40 -8 -85l-139 -793h-86l137 784q9 49 9 87q0 149 -132 149q-94 0 -205.5 -65.5t-189.5 -137.5l-144 -817h-86z" />
<glyph unicode="i" horiz-adv-x="411" d="M53 0l191 1075h86l-191 -1075h-86zM281 1327l28 160h101l-29 -160h-100z" />
<glyph unicode="j" horiz-adv-x="413" d="M-203 -342q53 18 88 33t61 34t40 33.5t25 42.5t15.5 49t12.5 64l205 1161h86l-207 -1161q-23 -125 -42 -166q-31 -65 -113 -107q-54 -28 -152 -59zM281 1327l28 160h101l-29 -160h-100z" />
<glyph unicode="k" horiz-adv-x="849" d="M53 0l264 1493h86l-184 -1034l514 616h105l-377 -440l239 -635h-88l-211 567l-204 -237l-58 -330h-86z" />
<glyph unicode="l" horiz-adv-x="434" d="M66 0l264 1493h84l-264 -1493h-84z" />
<glyph unicode="m" horiz-adv-x="1538" d="M53 0l191 1075h86l-31 -172q74 78 167 136.5t187 58.5q101 0 149 -60.5t50 -148.5q198 209 371 209q64 0 108 -24.5t63 -66.5q18 -42 24 -98q2 -17 2 -34q0 -41 -9 -84l-139 -791h-84l139 782q7 47 7 89v28q-4 53 -36 87t-90 34q-153 0 -366 -229l-137 -791h-84l139 782 q8 43 8 80q0 52 -16 91q-27 67 -113 67q-147 0 -358 -221l-142 -799h-86z" />
<glyph unicode="n" horiz-adv-x="1013" d="M53 0l191 1075h86l-29 -157q49 40 101.5 75.5t136.5 70t155 34.5q124 0 172 -86q32 -56 32 -134q0 -40 -9 -87l-139 -791h-86l139 784q9 48 9 86q0 150 -134 150q-94 0 -206 -66t-187 -137l-146 -817h-86z" />
<glyph unicode="o" horiz-adv-x="1024" d="M90 375q0 130 31.5 257t88.5 231.5t148.5 169.5t200.5 65q161 0 253.5 -100t92.5 -298q0 -130 -31.5 -257t-88.5 -231.5t-148 -169.5t-199 -65q-162 0 -255 100t-93 298zM176 375q0 -320 262 -320q76 0 140.5 44.5t108 114.5t74 157t44.5 171t14 158q0 320 -262 320 q-76 0 -140.5 -44.5t-108 -114.5t-74 -157t-44.5 -171t-14 -158z" />
<glyph unicode="p" horiz-adv-x="1011" d="M-20 -418l264 1493h86l-27 -149q172 172 324 172q54 0 101 -19t86 -58.5t62 -109t23 -161.5q0 -212 -52.5 -388t-149.5 -280.5t-218 -104.5q-51 0 -98.5 16.5t-88 48.5t-66 58t-58.5 64l-102 -582h-86zM182 250q147 -195 291 -195q100 0 178.5 105t118 260t39.5 321 q0 133 -48 206t-143 73q-83 0 -162 -51.5t-171 -143.5z" />
<glyph unicode="q" horiz-adv-x="1017" d="M90 324q0 213 55 389.5t155 280.5t224 104q147 0 297 -191l31 168h84l-264 -1493h-84l106 606q-184 -211 -360 -211q-102 0 -173 84.5t-71 262.5zM178 332q0 -130 42 -203.5t122 -73.5q51 0 101 18.5t98.5 55t86 72t85.5 88.5l94 534q-138 197 -277 197q-78 0 -146 -61.5 t-112 -160.5t-69 -221t-25 -245z" />
<glyph unicode="r" horiz-adv-x="628" d="M53 0l191 1075h86l-43 -233q137 232 327 245q12 1 25 1l25 -1l-17 -83q-57 0 -109.5 -18.5t-91 -48t-71 -65.5t-54 -72t-37 -65.5t-22.5 -48.5l-6 -18l-117 -668h-86z" />
<glyph unicode="s" horiz-adv-x="860" d="M12 111l56 61q164 -117 297 -117q46 0 89.5 13.5t80.5 40t59 71t22 99.5q0 44 -14.5 78t-47.5 61.5t-62 44.5t-83 45q-11 5 -16 8q-34 18 -52 27.5t-48.5 28.5t-47 34t-37.5 38t-31.5 46.5t-18.5 54.5t-8 66q0 134 94 210.5t227 76.5q89 0 174.5 -34t145.5 -79l-54 -61 q-136 96 -266 96q-97 0 -166 -54t-69 -149q0 -26 7 -50t14.5 -41t27 -36t29.5 -28t37.5 -25t35.5 -20t39 -19l12 -6q69 -34 113 -62t81.5 -65t55 -82t17.5 -102q0 -98 -50.5 -169t-124.5 -103t-161 -32q-172 0 -357 134z" />
<glyph unicode="t" horiz-adv-x="610" d="M114 86q-2 16 -3 36q0 33 6 75l143 804h-125l15 74h122l50 273l90 38l-56 -311h242l-14 -74h-242l-143 -823q-4 -25 -5 -44q0 -79 68 -79q50 0 184 62l27 -72q-140 -68 -221 -68q-32 0 -58 9t-50 33t-30 67z" />
<glyph unicode="u" horiz-adv-x="1013" d="M98 285l138 790h86l-140 -784q-8 -47 -9 -85q0 -151 134 -151q65 0 150 39.5t141.5 80t103.5 81.5l146 819h84l-191 -1075h-84l29 160q-226 -183 -395 -183q-123 0 -171 85q-31 56 -31 134q0 41 9 89z" />
<glyph unicode="v" horiz-adv-x="921" d="M145 1075h88l129 -960l469 960h101l-543 -1075h-84z" />
<glyph unicode="w" horiz-adv-x="1351" d="M156 1075h88l61 -954l404 954h90l59 -952l397 952h95l-465 -1075h-88l-64 942l-401 -942h-90z" />
<glyph unicode="x" horiz-adv-x="948" d="M-53 0l469 541l-262 534h98l213 -461l379 461h114l-452 -534l280 -541h-98l-229 471l-396 -471h-116z" />
<glyph unicode="y" horiz-adv-x="921" d="M-41 -336q77 29 125 55.5t87 68t66.5 86.5t67.5 128l-160 1073h88l129 -958l472 958h98l-541 -1075q-88 -173 -122 -221q-57 -83 -147 -133q-55 -30 -145 -64z" />
<glyph unicode="z" horiz-adv-x="829" d="M-23 0l15 80l713 917h-537l16 78h635l-14 -80l-713 -917h553l-16 -78h-652z" />
<glyph unicode="{" horiz-adv-x="681" d="M88 653l21 119q55 -1 97 26t65 70t34 85t14 83l11 191q7 114 33 201t76.5 153.5t133.5 101.5t197 35h33l-15 -82h-30q-304 0 -334 -383l-12 -202q-21 -289 -217 -340q37 -14 63.5 -39t43 -64t15.5 -98.5t-22 -134.5l-55 -203q-13 -49 -21 -86.5t-11.5 -79.5t1 -72t19 -59 t40.5 -46.5t67 -28.5t97 -11h31l-14 -82h-33q-105 0 -173.5 35t-98 100t-28 154.5t33.5 202.5l55 190q17 62 20 109t-5.5 76t-28.5 47t-45 25t-58 7z" />
<glyph unicode="|" horiz-adv-x="452" d="M35 -252l342 1927h74l-342 -1927h-74z" />
<glyph unicode="}" horiz-adv-x="679" d="M-86 -293l14 82h31q304 0 334 383l12 203q21 289 217 340q-37 14 -63.5 39t-43 64t-15.5 98.5t22 134.5l55 202q13 49 21 86.5t11.5 79.5t-1 72t-19 59t-40.5 46.5t-67 28.5t-97 11h-31l14 82h33q139 0 214 -61.5t83.5 -170.5t-31.5 -259l-55 -191q-17 -62 -20 -109 t5.5 -76t28.5 -47t45 -25t58 -7l-21 -119q-45 1 -81.5 -17.5t-59 -46.5t-38.5 -65t-23 -70t-9 -65l-10 -190q-7 -114 -33 -201t-76.5 -154t-133.5 -102t-197 -35h-33z" />
<glyph unicode="~" d="M53 483q64 107 130.5 151t140.5 44q55 0 109 -24t90 -52t83.5 -52t91.5 -24q46 0 91 31t96 113l69 -35q-64 -107 -130 -151t-140 -44q-56 0 -110 24t-90 52t-83.5 52t-91.5 24q-45 0 -89 -30.5t-95 -112.5z" />
<glyph unicode="&#xa1;" horiz-adv-x="479" d="M82 0l203 1028h55l-158 -1028h-100zM293 1247l33 187h112l-32 -187h-113z" />
<glyph unicode="&#xa2;" horiz-adv-x="956" d="M139 578q0 159 41 294t107 221.5t146.5 135t162.5 49.5l29 156h73l-30 -164q113 -27 239 -148q4 -3 11 -10l8 -8l-56 -53q-3 3 -20 18.5t-29 26t-34 27t-40.5 28.5t-43.5 23.5t-48 17.5l-168 -950q29 7 61 20t64 31.5t52.5 31.5t48.5 33.5t32 22.5l43 -68q-1 -1 -31 -21 t-40.5 -26.5t-40 -24.5t-49 -27t-47.5 -21.5t-54.5 -19.5t-52.5 -11l-29 -162h-73l26 158q-118 12 -188 124t-70 296zM225 582q0 -156 48.5 -246t138.5 -100l170 962q-67 -7 -131 -55t-114.5 -127t-81 -192.5t-30.5 -241.5z" />
<glyph unicode="&#xa3;" horiz-adv-x="931" d="M23 0l12 72q10 9 26.5 24.5t60.5 66t80 102.5t72 128.5t50 149.5h-187l15 82h180v8q0 80 -41 220.5t-41 219.5q0 170 101.5 276.5t262.5 106.5q51 0 97.5 -10.5t91.5 -34t67 -37.5t65 -44q9 -6 13 -9l-57 -64q-165 117 -279 117q-118 0 -197 -85.5t-79 -217.5 q0 -80 41 -216t41 -222v-8h274l-14 -82h-268q-38 -243 -256 -461h557l-15 -82h-673z" />
<glyph unicode="&#xa5;" horiz-adv-x="1093" d="M127 375l14 78h332l21 112l-19 60h-303l12 77h267l-232 732h90l240 -783l508 783h106l-491 -732h266l-14 -77h-303l-37 -56l-21 -116h332l-14 -78h-332l-66 -375h-88l66 375h-334z" />
<glyph unicode="&#xa6;" horiz-adv-x="456" d="M35 -252l149 846h76l-149 -846h-76zM227 829l150 846h76l-150 -846h-76z" />
<glyph unicode="&#xa7;" horiz-adv-x="931" d="M47 -35l53 62q141 -97 267 -97q99 0 168 53.5t69 149.5q0 45 -16 80.5t-48 61.5t-58.5 41.5t-67.5 35.5l-7 3.5t-6 2.5q-137 67 -202.5 135.5t-65.5 170.5q0 115 70.5 183.5t183.5 90.5q-133 86 -133 231q0 90 46.5 157t118.5 98.5t156 31.5q89 0 174.5 -34t145.5 -79 l-53 -61q-136 96 -267 96q-97 0 -166 -53.5t-69 -148.5q0 -45 16.5 -81t48.5 -62t59 -42t68 -36q7 -3 11 -5q137 -67 201.5 -135t64.5 -170q0 -115 -71 -184.5t-183 -89.5q133 -89 133 -232q0 -134 -93.5 -210t-225.5 -76q-90 0 -174.5 33.5t-147.5 78.5zM221 670 q0 -26 6.5 -49.5t15 -40.5t27.5 -35.5t33 -30t43.5 -28.5t46.5 -25.5l53 -26.5l27 -14q65 2 119.5 25t91.5 73t37 119q0 37 -12.5 68t-28 51.5t-50.5 44t-58.5 36t-73.5 37.5l-29 15q-101 -3 -174.5 -60t-73.5 -159z" />
<glyph unicode="&#xa8;" horiz-adv-x="387" d="M227 1257l29 160h109l-29 -160h-109zM496 1257l28 160h109l-29 -160h-108z" />
<glyph unicode="&#xa9;" horiz-adv-x="1716" d="M145 641q0 131 32.5 251.5t98.5 223t158.5 178.5t219 119t274.5 43q206 0 360.5 -84.5t235 -234.5t80.5 -344q0 -131 -32.5 -251.5t-98.5 -223.5t-158.5 -179t-220 -119t-275.5 -43q-309 0 -491.5 184t-182.5 480zM221 643q0 -262 162.5 -427t443.5 -165q161 0 294.5 59 t221.5 160t136.5 235.5t48.5 285.5q0 128 -41.5 236.5t-117.5 187t-191 123t-256 44.5q-161 0 -294.5 -58.5t-221.5 -159.5t-136.5 -235.5t-48.5 -285.5zM496 618q-5 127 26.5 231t89.5 171.5t134.5 104t162.5 36.5q54 0 104.5 -12.5t94.5 -37t69.5 -42.5t59.5 -45l-53 -57 q-27 23 -48.5 38.5t-58 36.5t-79.5 32t-89 11q-144 0 -238 -131.5t-87 -330.5q5 -128 58.5 -201.5t145.5 -73.5q155 0 318 115l45 -66q-53 -35 -95 -58t-115 -46t-144 -23q-126 0 -210.5 91.5t-90.5 256.5z" />
<glyph unicode="&#xaa;" horiz-adv-x="761" d="M201 991q0 193 76 325t194 132q93 0 184 -111l17 97h76l-113 -646h-76l19 105q-115 -119 -222 -119q-66 0 -110.5 52.5t-44.5 164.5zM279 997q0 -73 24.5 -114t71.5 -41q57 0 106.5 34t108.5 95l53 301q-78 108 -162 108q-60 0 -107 -58t-71 -144.5t-24 -180.5z" />
<glyph unicode="&#xab;" horiz-adv-x="1157" d="M68 551l12 65l588 467l-21 -116l-493 -394l356 -391l-16 -98zM522 551l13 65l587 467l-20 -116l-494 -394l357 -391l-17 -98z" />
<glyph unicode="&#xac;" d="M41 643l14 78h946l-94 -537h-86l82 459h-862z" />
<glyph unicode="&#xad;" horiz-adv-x="753" d="M141 541l15 86h444l-14 -86h-445z" />
<glyph unicode="&#xae;" horiz-adv-x="978" d="M195 1069q0 110 43.5 200.5t134.5 148t213 57.5q154 0 245 -92t91 -240q0 -170 -105.5 -288t-286.5 -118q-153 0 -244 92t-91 240zM260 1071q0 -118 74.5 -194t200.5 -76q148 0 235.5 97.5t87.5 242.5q0 118 -75 194t-203 76q-147 0 -233.5 -97.5t-86.5 -242.5zM391 926 l66 370h164q51 0 81.5 -27.5t30.5 -68.5q0 -46 -32 -76.5t-83 -38.5l60 -159h-64l-57 157h-74l-28 -157h-64zM494 1141h94q41 0 61.5 16.5t20.5 42.5q0 39 -52 39h-108z" />
<glyph unicode="&#xaf;" horiz-adv-x="481" d="M236 1288l12 74h473l-14 -74h-471z" />
<glyph unicode="&#xb0;" horiz-adv-x="831" d="M199 1135q0 123 87.5 211t211.5 88q123 0 211 -88t88 -211t-88 -211t-211 -88q-124 0 -211.5 88t-87.5 211zM270 1135q0 -94 66 -160t160 -66t160.5 66.5t66.5 159.5q0 94 -66.5 160.5t-160.5 66.5t-160 -66.5t-66 -160.5z" />
<glyph unicode="&#xb1;" d="M-6 0l14 78h823l-14 -78h-823zM104 629l15 78h370l62 344h76l-62 -344h377l-14 -78h-377l-59 -346h-78l61 346h-371z" />
<glyph unicode="&#xb2;" horiz-adv-x="655" d="M113 788l10 64q5 29 13.5 55.5t16 47.5t23.5 43.5t25 37t31.5 35.5t31.5 30t37.5 30t37 27t41 28.5t40.5 27.5q106 76 159.5 135t53.5 128q0 51 -33.5 82.5t-97.5 31.5q-103 0 -201 -69l-31 59q117 82 238 82q93 0 149 -48.5t56 -137.5q0 -31 -9 -61.5t-20.5 -54 t-35.5 -51.5t-40.5 -45t-51 -43.5t-51.5 -38.5t-56.5 -39t-51.5 -36q-86 -62 -128 -115.5t-56 -134.5h393l-12 -70h-481z" />
<glyph unicode="&#xb3;" horiz-adv-x="665" d="M113 858l45 57q99 -69 196 -69q94 0 155.5 57.5t61.5 143.5q0 87 -61 132.5t-150 45.5h-26l12 73h35q86 0 158.5 57.5t72.5 133.5q0 49 -33 75.5t-90 26.5q-92 0 -188 -63l-29 57q122 78 230 78q88 0 139 -47t51 -119q0 -69 -49 -135t-147 -102q67 -15 111 -74.5 t44 -141.5q0 -110 -79 -190t-216 -80q-124 0 -243 84z" />
<glyph unicode="&#xb4;" horiz-adv-x="354" d="M223 1237l236 256h155l-311 -256h-80z" />
<glyph unicode="&#xb5;" horiz-adv-x="1077" d="M6 -418l262 1493h86l-139 -784q-42 -236 125 -236q65 0 150 39.5t141.5 80t103.5 81.5l146 819h84l-191 -1075h-84l29 160q-226 -183 -395 -183q-100 0 -154 60l-80 -455h-84z" />
<glyph unicode="&#xb6;" horiz-adv-x="1038" d="M139 938q0 222 129.5 359t345.5 137h78l-319 -1813h-82l176 993q-155 0 -241.5 85t-86.5 239zM580 -379l321 1813h82l-319 -1813h-84z" />
<glyph unicode="&#xb7;" horiz-adv-x="421" d="M131 489l33 187h115l-33 -187h-115z" />
<glyph unicode="&#xb8;" horiz-adv-x="278" d="M-51 -301l37 68q42 -27 88 -27q48 0 81 32.5t33 102.5q0 28 -5.5 60t-10.5 51l-6 18h47q41 -67 41 -151t-47.5 -136.5t-132.5 -52.5q-72 0 -125 35z" />
<glyph unicode="&#xb9;" horiz-adv-x="483" d="M211 1540l190 109h70l-152 -861h-77l135 771l-137 -78z" />
<glyph unicode="&#xba;" horiz-adv-x="757" d="M199 1022q0 105 33 200.5t103 160.5t163 65q107 0 168 -62t61 -186q0 -106 -32.5 -201t-102 -160t-162.5 -65q-107 0 -169 62.5t-62 185.5zM274 1022q0 -182 154 -182q45 0 83.5 25t63.5 64t42.5 88t25.5 95.5t8 87.5q0 182 -153 182q-55 0 -100 -37.5t-71 -94 t-39.5 -116.5t-13.5 -112z" />
<glyph unicode="&#xbb;" horiz-adv-x="1157" d="M27 84l20 117l494 393l-357 391l17 98l426 -467l-13 -65zM481 84l21 117l493 393l-356 391l16 98l426 -467l-12 -65z" />
<glyph unicode="&#xbc;" horiz-adv-x="1302" d="M150 0l806 1434h80l-807 -1434h-79zM184 1325l191 109h69l-151 -861h-78l135 770l-137 -77zM580 199l10 63l461 598h102l-106 -592h112l-12 -69h-113l-35 -199h-75l34 199h-378zM676 268h295l88 502z" />
<glyph unicode="&#xbd;" horiz-adv-x="1359" d="M150 0l806 1434h80l-807 -1434h-79zM184 1325l191 109h69l-151 -861h-78l135 770l-137 -77zM664 0l10 63q11 65 35.5 116.5t63.5 91.5t75.5 68.5t92.5 66.5q20 13 30 20q107 77 160 135t53 127q0 52 -33.5 83.5t-97.5 31.5q-102 0 -201 -70l-31 60q116 81 238 81 q93 0 149 -48.5t56 -137.5q0 -31 -9 -61.5t-20.5 -54t-35.5 -51.5t-40.5 -45t-51 -43.5t-51.5 -38.5t-56.5 -39t-51.5 -36q-87 -62 -128.5 -115t-55.5 -134h393l-12 -70h-481z" />
<glyph unicode="&#xbe;" horiz-adv-x="1517" d="M98 643l45 57q99 -69 197 -69q94 0 155.5 57t61.5 143q0 87 -61 133t-150 46h-27l13 73h35q86 0 158.5 57.5t72.5 133.5q0 49 -33 75.5t-90 26.5q-92 0 -188 -63l-29 57q122 78 229 78q88 0 139.5 -47.5t51.5 -118.5q0 -69 -49.5 -135.5t-147.5 -102.5 q67 -16 111.5 -74.5t44.5 -140.5q0 -110 -79 -190t-216 -80q-125 0 -244 84zM367 0l807 1434h79l-807 -1434h-79zM797 199l10 63l461 598h102l-106 -592h112l-12 -69h-113l-34 -199h-76l35 199h-379zM893 268h295l88 502z" />
<glyph unicode="&#xbf;" horiz-adv-x="837" d="M33 248q0 84 35 156.5t97 126.5t134 93t158 68l69 336h72l-55 -393q-83 -25 -152 -57.5t-133 -78.5t-100.5 -109.5t-36.5 -137.5q0 -96 58 -144.5t147 -48.5q79 0 152 31.5t163 87.5l41 -63q-186 -138 -356 -138q-57 0 -108 15.5t-93.5 46.5t-67 85t-24.5 124zM543 1247 l32 187h115l-33 -187h-114z" />
<glyph unicode="&#xc0;" horiz-adv-x="1140" d="M-37 0l707 1434h98l201 -1434h-92l-54 395h-567l-190 -395h-103zM295 477h518l-111 846zM547 1802h135l166 -256h-68z" />
<glyph unicode="&#xc1;" horiz-adv-x="1140" d="M-37 0l707 1434h98l201 -1434h-92l-54 395h-567l-190 -395h-103zM295 477h518l-111 846zM629 1546l235 256h156l-311 -256h-80z" />
<glyph unicode="&#xc2;" horiz-adv-x="1140" d="M-37 0l707 1434h98l201 -1434h-92l-54 395h-567l-190 -395h-103zM295 477h518l-111 846zM520 1546l203 256h123l112 -256h-63l-117 191l-182 -191h-76z" />
<glyph unicode="&#xc3;" horiz-adv-x="1140" d="M-37 0l707 1434h98l201 -1434h-92l-54 395h-567l-190 -395h-103zM295 477h518l-111 846zM516 1610q42 72 75 102.5t77 30.5q29 0 56.5 -16t45.5 -34.5t39.5 -34.5t40.5 -16q21 0 41.5 18.5t56.5 76.5l53 -37q-44 -73 -77 -103t-76 -30q-37 0 -70.5 25t-61.5 50t-50 25 q-23 0 -43 -17.5t-56 -74.5z" />
<glyph unicode="&#xc4;" horiz-adv-x="1140" d="M-37 0l707 1434h98l201 -1434h-92l-54 395h-567l-190 -395h-103zM295 477h518l-111 846zM553 1567l29 159h108l-28 -159h-109zM821 1567l29 159h108l-28 -159h-109z" />
<glyph unicode="&#xc5;" horiz-adv-x="1144" d="M-35 0l707 1434h98l201 -1434h-92l-54 395h-567l-190 -395h-103zM297 477h518l-110 846zM575 1712q0 80 54 135.5t133 55.5t134.5 -55.5t55.5 -135.5q0 -78 -55 -132t-135 -54q-79 0 -133 54t-54 132zM639 1712q0 -51 36 -86t87 -35q53 0 89 35t36 86q0 52 -36.5 88.5 t-88.5 36.5q-51 0 -87 -36.5t-36 -88.5z" />
<glyph unicode="&#xc6;" horiz-adv-x="1646" d="M-96 0l1057 1434h706l-16 -82h-604l-105 -594h504l-14 -82h-504l-107 -594h621l-17 -82h-706l69 395h-483l-285 -395h-116zM365 477h438l141 803z" />
<glyph unicode="&#xc7;" horiz-adv-x="1097" d="M139 520q0 209 49.5 387.5t132 297t189 185t221.5 66.5q61 0 117.5 -18.5t108 -55.5t85 -67.5t80.5 -79.5l-61 -55q-95 100 -171 147t-159 47q-98 0 -188.5 -63.5t-159.5 -174.5t-110.5 -272.5t-41.5 -345.5q0 -234 70 -346.5t184 -112.5q83 0 189.5 56t212.5 143l51 -68 q-121 -89 -222 -144t-202 -66q29 -65 29 -127q0 -84 -47.5 -136.5t-133.5 -52.5q-71 0 -124 35l36 68q42 -27 88 -27q48 0 81.5 32.5t33.5 102.5q0 44 -14 102q-69 3 -126 34.5t-102.5 94t-70.5 168t-25 246.5z" />
<glyph unicode="&#xc8;" horiz-adv-x="1015" d="M88 0l254 1434h694l-16 -82h-604l-105 -594h504l-14 -82h-504l-107 -594h621l-16 -82h-707zM524 1802h135l166 -256h-67z" />
<glyph unicode="&#xc9;" horiz-adv-x="1015" d="M88 0l254 1434h694l-16 -82h-604l-105 -594h504l-14 -82h-504l-107 -594h621l-16 -82h-707zM604 1546l236 256h155l-311 -256h-80z" />
<glyph unicode="&#xca;" horiz-adv-x="1015" d="M88 0l254 1434h694l-16 -82h-604l-105 -594h504l-14 -82h-504l-107 -594h621l-16 -82h-707zM496 1546l202 256h123l113 -256h-64l-116 191l-183 -191h-75z" />
<glyph unicode="&#xcb;" horiz-adv-x="1015" d="M88 0l254 1434h694l-16 -82h-604l-105 -594h504l-14 -82h-504l-107 -594h621l-16 -82h-707zM532 1567l29 159h109l-29 -159h-109zM801 1567l28 159h109l-29 -159h-108z" />
<glyph unicode="&#xcc;" horiz-adv-x="485" d="M88 0l254 1434h88l-254 -1434h-88zM219 1802h135l166 -256h-67z" />
<glyph unicode="&#xcd;" horiz-adv-x="483" d="M88 0l254 1434h88l-254 -1434h-88zM295 1546l235 256h156l-311 -256h-80z" />
<glyph unicode="&#xce;" horiz-adv-x="483" d="M88 0l254 1434h88l-254 -1434h-88zM188 1546l203 256h123l113 -256h-64l-117 191l-182 -191h-76z" />
<glyph unicode="&#xcf;" horiz-adv-x="485" d="M88 0l254 1434h88l-254 -1434h-88zM223 1567l29 159h108l-28 -159h-109zM492 1567l28 159h109l-29 -159h-108z" />
<glyph unicode="&#xd0;" horiz-adv-x="1208" d="M94 676l15 82h124l121 676h244q113 0 205.5 -31t161.5 -93t107 -162.5t38 -232.5q0 -211 -54.5 -383.5t-151.5 -289t-233.5 -179.5t-299.5 -63h-271l119 676h-125zM203 82h162q142 0 261 55.5t206.5 159t136.5 262.5t49 356q0 230 -114.5 333.5t-325.5 103.5h-150 l-106 -594h301l-15 -82h-301z" />
<glyph unicode="&#xd1;" horiz-adv-x="1239" d="M88 0l254 1434h94l434 -1284l228 1284h88l-254 -1434h-92l-437 1286l-227 -1286h-88zM573 1610q42 72 75 102.5t77 30.5q29 0 56.5 -16t45.5 -34.5t39.5 -34.5t40.5 -16q21 0 42 19t57 76l53 -37q-44 -72 -77 -102.5t-77 -30.5q-37 0 -70.5 25t-61.5 50t-50 25t-42 -17 t-56 -75z" />
<glyph unicode="&#xd2;" horiz-adv-x="1267" d="M135 483q0 63 9.5 142t31.5 173t54.5 185.5t82.5 177.5t110.5 151t143 104.5t176.5 39.5q209 0 315.5 -127t106.5 -379q0 -63 -9.5 -142t-31.5 -173t-54.5 -185.5t-82.5 -177.5t-110.5 -151t-143 -104.5t-176.5 -39.5q-209 0 -315.5 127t-106.5 379zM225 483 q0 -424 332 -424q81 0 152 38.5t122.5 101t94 144.5t69.5 167t45.5 170.5t26.5 153t8 116.5q0 424 -332 424q-81 0 -152 -38.5t-122.5 -101t-94 -144.5t-69.5 -167t-45.5 -170.5t-26.5 -153t-8 -116.5zM606 1802h135l166 -256h-67z" />
<glyph unicode="&#xd3;" horiz-adv-x="1267" d="M135 483q0 63 9.5 142t31.5 173t54.5 185.5t82.5 177.5t110.5 151t143 104.5t176.5 39.5q209 0 315.5 -127t106.5 -379q0 -63 -9.5 -142t-31.5 -173t-54.5 -185.5t-82.5 -177.5t-110.5 -151t-143 -104.5t-176.5 -39.5q-209 0 -315.5 127t-106.5 379zM225 483 q0 -424 332 -424q81 0 152 38.5t122.5 101t94 144.5t69.5 167t45.5 170.5t26.5 153t8 116.5q0 424 -332 424q-81 0 -152 -38.5t-122.5 -101t-94 -144.5t-69.5 -167t-45.5 -170.5t-26.5 -153t-8 -116.5zM686 1546l236 256h155l-311 -256h-80z" />
<glyph unicode="&#xd4;" horiz-adv-x="1267" d="M135 483q0 63 9.5 142t31.5 173t54.5 185.5t82.5 177.5t110.5 151t143 104.5t176.5 39.5q209 0 315.5 -127t106.5 -379q0 -63 -9.5 -142t-31.5 -173t-54.5 -185.5t-82.5 -177.5t-110.5 -151t-143 -104.5t-176.5 -39.5q-209 0 -315.5 127t-106.5 379zM225 483 q0 -424 332 -424q81 0 152 38.5t122.5 101t94 144.5t69.5 167t45.5 170.5t26.5 153t8 116.5q0 424 -332 424q-81 0 -152 -38.5t-122.5 -101t-94 -144.5t-69.5 -167t-45.5 -170.5t-26.5 -153t-8 -116.5zM580 1546l202 256h123l113 -256h-64l-116 191l-183 -191h-75z" />
<glyph unicode="&#xd5;" horiz-adv-x="1267" d="M135 483q0 63 9.5 142t31.5 173t54.5 185.5t82.5 177.5t110.5 151t143 104.5t176.5 39.5q209 0 315.5 -127t106.5 -379q0 -63 -9.5 -142t-31.5 -173t-54.5 -185.5t-82.5 -177.5t-110.5 -151t-143 -104.5t-176.5 -39.5q-209 0 -315.5 127t-106.5 379zM225 483 q0 -424 332 -424q81 0 152 38.5t122.5 101t94 144.5t69.5 167t45.5 170.5t26.5 153t8 116.5q0 424 -332 424q-81 0 -152 -38.5t-122.5 -101t-94 -144.5t-69.5 -167t-45.5 -170.5t-26.5 -153t-8 -116.5zM573 1610q42 72 75 102.5t77 30.5q29 0 56.5 -16t45.5 -34.5 t39.5 -34.5t40.5 -16q21 0 42 19t57 76l53 -37q-44 -72 -77 -102.5t-77 -30.5q-37 0 -70.5 25t-61.5 50t-50 25t-42 -17t-56 -75z" />
<glyph unicode="&#xd6;" horiz-adv-x="1267" d="M135 483q0 63 9.5 142t31.5 173t54.5 185.5t82.5 177.5t110.5 151t143 104.5t176.5 39.5q209 0 315.5 -127t106.5 -379q0 -63 -9.5 -142t-31.5 -173t-54.5 -185.5t-82.5 -177.5t-110.5 -151t-143 -104.5t-176.5 -39.5q-209 0 -315.5 127t-106.5 379zM225 483 q0 -424 332 -424q81 0 152 38.5t122.5 101t94 144.5t69.5 167t45.5 170.5t26.5 153t8 116.5q0 424 -332 424q-81 0 -152 -38.5t-122.5 -101t-94 -144.5t-69.5 -167t-45.5 -170.5t-26.5 -153t-8 -116.5zM612 1567l29 159h109l-29 -159h-109zM881 1567l28 159h109l-29 -159 h-108z" />
<glyph unicode="&#xd7;" d="M156 395l317 291l-217 297l61 45l213 -291l314 289l51 -53l-322 -295l218 -293l-62 -43l-211 285l-311 -285z" />
<glyph unicode="&#xd8;" horiz-adv-x="1263" d="M53 0l140 180q-58 116 -58 303q0 63 9.5 142t31.5 173t54.5 185.5t82.5 177.5t110.5 151t143 104.5t176.5 39.5q214 0 322 -135l86 113h90l-135 -179q59 -118 59 -305q0 -63 -9.5 -142t-31.5 -173t-54.5 -185.5t-82.5 -177.5t-110.5 -151t-143 -104.5t-176.5 -39.5 q-219 0 -324 138l-88 -115h-92zM225 483q0 -137 31 -219l752 983q-81 127 -265 127q-81 0 -152 -38.5t-122.5 -101t-94 -144.5t-69.5 -167t-45.5 -170.5t-26.5 -153t-8 -116.5zM291 188q80 -129 266 -129q81 0 152 38.5t122.5 101t94 144.5t69.5 167t45.5 170.5t26.5 153 t8 116.5q0 134 -33 224z" />
<glyph unicode="&#xd9;" horiz-adv-x="1198" d="M158 451l174 983h88l-172 -975q-13 -70 -16 -124.5t7 -108.5t36.5 -89t79 -56.5t128.5 -21.5q339 0 410 400l172 975h88l-174 -983q-14 -82 -38.5 -151t-65.5 -129.5t-95.5 -103t-130.5 -66.5t-168 -24q-405 0 -323 474zM573 1802h136l165 -256h-67z" />
<glyph unicode="&#xda;" horiz-adv-x="1198" d="M158 451l174 983h88l-172 -975q-13 -70 -16 -124.5t7 -108.5t36.5 -89t79 -56.5t128.5 -21.5q339 0 410 400l172 975h88l-174 -983q-14 -82 -38.5 -151t-65.5 -129.5t-95.5 -103t-130.5 -66.5t-168 -24q-405 0 -323 474zM653 1546l236 256h155l-311 -256h-80z" />
<glyph unicode="&#xdb;" horiz-adv-x="1198" d="M158 451l174 983h88l-172 -975q-13 -70 -16 -124.5t7 -108.5t36.5 -89t79 -56.5t128.5 -21.5q339 0 410 400l172 975h88l-174 -983q-14 -82 -38.5 -151t-65.5 -129.5t-95.5 -103t-130.5 -66.5t-168 -24q-405 0 -323 474zM545 1546l203 256h122l113 -256h-63l-117 191 l-182 -191h-76z" />
<glyph unicode="&#xdc;" horiz-adv-x="1198" d="M158 451l174 983h88l-172 -975q-13 -70 -16 -124.5t7 -108.5t36.5 -89t79 -56.5t128.5 -21.5q339 0 410 400l172 975h88l-174 -983q-14 -82 -38.5 -151t-65.5 -129.5t-95.5 -103t-130.5 -66.5t-168 -24q-405 0 -323 474zM580 1567l28 159h109l-29 -159h-108zM848 1567 l29 159h108l-29 -159h-108z" />
<glyph unicode="&#xdd;" horiz-adv-x="1046" d="M190 1434h91l239 -783l508 783h107l-580 -865l-100 -569h-88l98 565zM571 1546l236 256h156l-312 -256h-80z" />
<glyph unicode="&#xde;" horiz-adv-x="1112" d="M88 0l254 1434h88l-47 -273h270q64 0 119 -10.5t103 -35t82 -62.5t53.5 -95.5t19.5 -130.5q0 -104 -27 -189.5t-75 -144.5t-115.5 -99t-146.5 -58.5t-170 -18.5h-263l-57 -317h-88zM248 399h256q88 0 164 25.5t137.5 75.5t97 133.5t35.5 191.5q0 131 -77 192.5t-208 61.5 h-284z" />
<glyph unicode="&#xdf;" horiz-adv-x="1050" d="M53 0l189 1067q73 430 405 430q137 0 222 -69t85 -199q0 -63 -20.5 -116.5t-41.5 -76.5l-20 -22q-35 -13 -55.5 -22t-57 -31t-57.5 -44.5t-38 -58.5t-17 -78q0 -39 17 -76.5t35.5 -61t66.5 -77.5q37 -39 55.5 -60.5t42.5 -58.5t34.5 -76.5t10.5 -86.5 q0 -141 -92.5 -223.5t-218.5 -82.5q-138 0 -291 107l55 61q130 -90 234 -90q91 0 160 62.5t69 165.5q0 59 -28 108t-95 119q-38 42 -55.5 63.5t-41 57.5t-33 71.5t-9.5 77.5q0 66 24 117t72.5 86t79 51t85.5 38q8 3 12 5q34 70 34 144q0 95 -58 146.5t-161 51.5 q-263 0 -323 -354l-189 -1065h-86z" />
<glyph unicode="&#xe0;" horiz-adv-x="1017" d="M90 324q0 213 55 389.5t155 280.5t224 104q147 0 297 -191l31 168h84l-191 -1075h-83l32 188q-184 -211 -360 -211q-102 0 -173 84.5t-71 262.5zM178 332q0 -130 42 -203.5t122 -73.5q51 0 101 18.5t98.5 55t86 72t85.5 88.5l94 534q-138 197 -277 197q-78 0 -146 -61.5 t-112 -160.5t-69 -221t-25 -245zM449 1493h135l166 -256h-68z" />
<glyph unicode="&#xe1;" horiz-adv-x="1017" d="M90 324q0 213 55 389.5t155 280.5t224 104q147 0 297 -191l31 168h84l-191 -1075h-83l32 188q-184 -211 -360 -211q-102 0 -173 84.5t-71 262.5zM178 332q0 -130 42 -203.5t122 -73.5q51 0 101 18.5t98.5 55t86 72t85.5 88.5l94 534q-138 197 -277 197q-78 0 -146 -61.5 t-112 -160.5t-69 -221t-25 -245zM494 1237l235 256h156l-312 -256h-79z" />
<glyph unicode="&#xe2;" horiz-adv-x="1017" d="M90 324q0 213 55 389.5t155 280.5t224 104q147 0 297 -191l31 168h84l-191 -1075h-83l32 188q-184 -211 -360 -211q-102 0 -173 84.5t-71 262.5zM178 332q0 -130 42 -203.5t122 -73.5q51 0 101 18.5t98.5 55t86 72t85.5 88.5l94 534q-138 197 -277 197q-78 0 -146 -61.5 t-112 -160.5t-69 -221t-25 -245zM420 1237l203 256h122l113 -256h-63l-117 190l-182 -190h-76z" />
<glyph unicode="&#xe3;" horiz-adv-x="1017" d="M90 324q0 213 55 389.5t155 280.5t224 104q147 0 297 -191l31 168h84l-191 -1075h-83l32 188q-184 -211 -360 -211q-102 0 -173 84.5t-71 262.5zM178 332q0 -130 42 -203.5t122 -73.5q51 0 101 18.5t98.5 55t86 72t85.5 88.5l94 534q-138 197 -277 197q-78 0 -146 -61.5 t-112 -160.5t-69 -221t-25 -245zM420 1300q43 73 75.5 103.5t75.5 30.5q29 0 57 -16t45.5 -34.5t39.5 -34.5t41 -16q21 0 41.5 18.5t56.5 75.5l53 -36q-45 -73 -77.5 -103.5t-75.5 -30.5q-37 0 -71 25.5t-62 50.5t-50 25t-42 -17t-56 -75z" />
<glyph unicode="&#xe4;" horiz-adv-x="1017" d="M90 324q0 213 55 389.5t155 280.5t224 104q147 0 297 -191l31 168h84l-191 -1075h-83l32 188q-184 -211 -360 -211q-102 0 -173 84.5t-71 262.5zM178 332q0 -130 42 -203.5t122 -73.5q51 0 101 18.5t98.5 55t86 72t85.5 88.5l94 534q-138 197 -277 197q-78 0 -146 -61.5 t-112 -160.5t-69 -221t-25 -245zM457 1257l28 160h109l-29 -160h-108zM725 1257l29 160h108l-28 -160h-109z" />
<glyph unicode="&#xe5;" horiz-adv-x="1017" d="M90 324q0 213 55 389.5t155 280.5t224 104q147 0 297 -191l31 168h84l-191 -1075h-83l32 188q-184 -211 -360 -211q-102 0 -173 84.5t-71 262.5zM178 332q0 -130 42 -203.5t122 -73.5q51 0 101 18.5t98.5 55t86 72t85.5 88.5l94 534q-138 197 -277 197q-78 0 -146 -61.5 t-112 -160.5t-69 -221t-25 -245zM483 1403q0 80 54 135t133 55q80 0 135 -55.5t55 -134.5q0 -78 -55 -132t-135 -54q-79 0 -133 54t-54 132zM547 1403q0 -51 36 -86t87 -35q53 0 89 35t36 86q0 53 -36.5 89t-88.5 36q-51 0 -87 -36.5t-36 -88.5z" />
<glyph unicode="&#xe6;" horiz-adv-x="1566" d="M90 324q0 213 55 389.5t155 280.5t224 104q147 0 297 -191l31 168h84l-16 -94q126 117 292 117q127 0 198 -69t71 -179q0 -167 -148 -270t-438 -103h-96q-2 -20 -2 -61q0 -176 57.5 -268.5t163.5 -92.5q27 0 56 5.5t58.5 18t52.5 23t52 29t43.5 28t40.5 28t29 20.5 l43 -66q-49 -34 -74.5 -50.5t-84 -49t-114.5 -48.5t-110 -16q-161 0 -242 146l-20 -123h-84l32 190q-186 -213 -362 -213q-102 0 -173 84.5t-71 262.5zM178 332q0 -130 42 -203.5t122 -73.5q51 0 101.5 19t99 56t86.5 73.5t86 89.5v8q-6 53 -6 117q0 235 94 409 q-138 193 -273 193q-78 0 -146 -61.5t-112 -160.5t-69 -221t-25 -245zM807 555h102q238 0 361 83.5t123 213.5q0 80 -53.5 124t-135.5 44q-146 0 -256.5 -127.5t-140.5 -337.5z" />
<glyph unicode="&#xe7;" horiz-adv-x="880" d="M90 397q0 128 27 242t72.5 196.5t104.5 142.5t124 90t131 30q51 0 100.5 -16t95 -47.5t65 -47.5t52.5 -47l-57 -55q-74 70 -125 98q-65 37 -125 37q-70 0 -138 -46t-121.5 -125.5t-86.5 -197t-33 -250.5q0 -164 54.5 -255t154.5 -91q32 0 68.5 10t73 29.5t60 33.5 t56.5 36.5t35 23.5l43 -67q-1 -1 -31.5 -20.5t-41.5 -25.5t-41.5 -24t-51 -26.5t-49.5 -20t-56.5 -17t-54.5 -7.5q29 -65 29 -127q0 -84 -47.5 -136.5t-132.5 -52.5q-72 0 -125 35l37 68q42 -27 88 -27q48 0 81 32.5t33 102.5q0 38 -16 105q-116 15 -184 125.5t-68 291.5z " />
<glyph unicode="&#xe8;" horiz-adv-x="946" d="M90 418q0 193 64 348t179.5 243.5t260.5 88.5q127 0 197.5 -68.5t70.5 -179.5q0 -167 -148 -270t-438 -103h-96q-2 -20 -2 -61q0 -176 57.5 -268.5t163.5 -92.5q27 0 56 5.5t58.5 18t52.5 23t52 29t43.5 28t40.5 28t29 20.5l43 -66q-49 -34 -74.5 -50.5t-84 -49 t-114.5 -48.5t-110 -16q-138 0 -219.5 114t-81.5 327zM188 555h103q238 0 360.5 83.5t122.5 213.5q0 80 -53 124t-135 44q-146 0 -257 -127.5t-141 -337.5zM426 1493h135l166 -256h-68z" />
<glyph unicode="&#xe9;" horiz-adv-x="946" d="M90 418q0 193 64 348t179.5 243.5t260.5 88.5q127 0 197.5 -68.5t70.5 -179.5q0 -167 -148 -270t-438 -103h-96q-2 -20 -2 -61q0 -176 57.5 -268.5t163.5 -92.5q27 0 56 5.5t58.5 18t52.5 23t52 29t43.5 28t40.5 28t29 20.5l43 -66q-49 -34 -74.5 -50.5t-84 -49 t-114.5 -48.5t-110 -16q-138 0 -219.5 114t-81.5 327zM188 555h103q238 0 360.5 83.5t122.5 213.5q0 80 -53 124t-135 44q-146 0 -257 -127.5t-141 -337.5zM504 1237l235 256h156l-311 -256h-80z" />
<glyph unicode="&#xea;" horiz-adv-x="946" d="M90 418q0 193 64 348t179.5 243.5t260.5 88.5q127 0 197.5 -68.5t70.5 -179.5q0 -167 -148 -270t-438 -103h-96q-2 -20 -2 -61q0 -176 57.5 -268.5t163.5 -92.5q27 0 56 5.5t58.5 18t52.5 23t52 29t43.5 28t40.5 28t29 20.5l43 -66q-49 -34 -74.5 -50.5t-84 -49 t-114.5 -48.5t-110 -16q-138 0 -219.5 114t-81.5 327zM188 555h103q238 0 360.5 83.5t122.5 213.5q0 80 -53 124t-135 44q-146 0 -257 -127.5t-141 -337.5zM397 1237l203 256h123l113 -256h-64l-117 190l-182 -190h-76z" />
<glyph unicode="&#xeb;" horiz-adv-x="946" d="M90 418q0 193 64 348t179.5 243.5t260.5 88.5q127 0 197.5 -68.5t70.5 -179.5q0 -167 -148 -270t-438 -103h-96q-2 -20 -2 -61q0 -176 57.5 -268.5t163.5 -92.5q27 0 56 5.5t58.5 18t52.5 23t52 29t43.5 28t40.5 28t29 20.5l43 -66q-49 -34 -74.5 -50.5t-84 -49 t-114.5 -48.5t-110 -16q-138 0 -219.5 114t-81.5 327zM188 555h103q238 0 360.5 83.5t122.5 213.5q0 80 -53 124t-135 44q-146 0 -257 -127.5t-141 -337.5zM432 1257l29 160h108l-28 -160h-109zM700 1257l29 160h109l-29 -160h-109z" />
<glyph unicode="&#xec;" horiz-adv-x="411" d="M53 0l191 1075h86l-191 -1075h-86zM125 1493h135l166 -256h-68z" />
<glyph unicode="&#xed;" horiz-adv-x="411" d="M53 0l191 1075h86l-191 -1075h-86zM205 1237l235 256h156l-311 -256h-80z" />
<glyph unicode="&#xee;" horiz-adv-x="411" d="M53 0l191 1075h86l-191 -1075h-86zM96 1237l203 256h123l113 -256h-64l-117 190l-182 -190h-76z" />
<glyph unicode="&#xef;" horiz-adv-x="413" d="M53 0l191 1075h86l-191 -1075h-86zM133 1257l29 160h108l-28 -160h-109zM401 1257l29 160h109l-29 -160h-109z" />
<glyph unicode="&#xf0;" horiz-adv-x="1030" d="M82 377q0 164 61 301t168 217t236 80q63 0 116 -20.5t84 -49.5t53 -58.5t30 -50.5l8 -20q0 103 -17.5 198.5t-61 185.5t-108.5 138l-145 -108h-121l197 147q-59 19 -103 19q-30 0 -61.5 -5t-47.5 -9l-16 -5l-6 78q61 19 137 19q95 0 172 -41l134 100h120l-190 -141 q95 -78 146 -226t51 -358q0 -367 -137.5 -579t-360.5 -212q-156 0 -247 103.5t-91 296.5zM170 373q0 -145 60.5 -231.5t189.5 -86.5q79 0 145.5 34.5t110.5 90t74.5 126t44.5 141.5t14 139q0 144 -66 227.5t-190 83.5q-88 0 -162 -44.5t-121.5 -118.5t-73.5 -167.5 t-26 -193.5z" />
<glyph unicode="&#xf1;" horiz-adv-x="1013" d="M53 0l191 1075h86l-29 -157q49 40 101.5 75.5t136.5 70t155 34.5q123 0 171.5 -85.5t23.5 -221.5l-139 -791h-86l139 784q43 236 -125 236q-94 0 -206 -66t-187 -137l-146 -817h-86zM397 1300q43 72 75.5 103t76.5 31q29 0 56.5 -16t45.5 -34.5t39.5 -34.5t40.5 -16 q21 0 41.5 18.5t56.5 75.5l54 -36q-44 -73 -77.5 -103.5t-76.5 -30.5q-29 0 -57 16t-46 34.5t-39.5 34.5t-39.5 16q-22 0 -42 -17t-56 -75z" />
<glyph unicode="&#xf2;" horiz-adv-x="1024" d="M90 375q0 130 31.5 257t88.5 231.5t148.5 169.5t200.5 65q161 0 253.5 -100t92.5 -298q0 -130 -31.5 -257t-88.5 -231.5t-148 -169.5t-199 -65q-162 0 -255 100t-93 298zM176 375q0 -320 262 -320q76 0 140.5 44.5t108 114.5t74 157t44.5 171t14 158q0 320 -262 320 q-76 0 -140.5 -44.5t-108 -114.5t-74 -157t-44.5 -171t-14 -158zM432 1493h135l166 -256h-67z" />
<glyph unicode="&#xf3;" horiz-adv-x="1024" d="M90 375q0 130 31.5 257t88.5 231.5t148.5 169.5t200.5 65q161 0 253.5 -100t92.5 -298q0 -130 -31.5 -257t-88.5 -231.5t-148 -169.5t-199 -65q-162 0 -255 100t-93 298zM176 375q0 -320 262 -320q76 0 140.5 44.5t108 114.5t74 157t44.5 171t14 158q0 320 -262 320 q-76 0 -140.5 -44.5t-108 -114.5t-74 -157t-44.5 -171t-14 -158zM510 1237l235 256h156l-311 -256h-80z" />
<glyph unicode="&#xf4;" horiz-adv-x="1024" d="M90 375q0 130 31.5 257t88.5 231.5t148.5 169.5t200.5 65q161 0 253.5 -100t92.5 -298q0 -130 -31.5 -257t-88.5 -231.5t-148 -169.5t-199 -65q-162 0 -255 100t-93 298zM176 375q0 -320 262 -320q76 0 140.5 44.5t108 114.5t74 157t44.5 171t14 158q0 320 -262 320 q-76 0 -140.5 -44.5t-108 -114.5t-74 -157t-44.5 -171t-14 -158zM403 1237l203 256h123l113 -256h-64l-116 190l-183 -190h-76z" />
<glyph unicode="&#xf5;" horiz-adv-x="1021" d="M90 375q0 130 31.5 257t88.5 231.5t148.5 169.5t200.5 65q161 0 253.5 -100t92.5 -298q0 -130 -31.5 -257t-88.5 -231.5t-148 -169.5t-199 -65q-162 0 -255 100t-93 298zM176 375q0 -320 262 -320q76 0 140.5 44.5t108 114.5t74 157t44.5 171t14 158q0 320 -262 320 q-76 0 -140.5 -44.5t-108 -114.5t-74 -157t-44.5 -171t-14 -158zM397 1300q43 72 75.5 103t76.5 31q29 0 56.5 -16t45.5 -34.5t39.5 -34.5t40.5 -16q21 0 41.5 18.5t56.5 75.5l54 -36q-44 -73 -77.5 -103.5t-76.5 -30.5q-29 0 -57 16t-46 34.5t-39.5 34.5t-39.5 16 q-22 0 -42 -17t-56 -75z" />
<glyph unicode="&#xf6;" horiz-adv-x="1024" d="M90 375q0 130 31.5 257t88.5 231.5t148.5 169.5t200.5 65q161 0 253.5 -100t92.5 -298q0 -130 -31.5 -257t-88.5 -231.5t-148 -169.5t-199 -65q-162 0 -255 100t-93 298zM176 375q0 -320 262 -320q76 0 140.5 44.5t108 114.5t74 157t44.5 171t14 158q0 320 -262 320 q-76 0 -140.5 -44.5t-108 -114.5t-74 -157t-44.5 -171t-14 -158zM438 1257l29 160h108l-28 -160h-109zM707 1257l28 160h109l-29 -160h-108z" />
<glyph unicode="&#xf7;" d="M104 643l15 78h823l-14 -78h-824zM383 356q0 34 24 59t58 25t59 -25t25 -59t-25 -58t-59 -24t-58 24t-24 58zM498 1008q0 35 24 59.5t58 24.5q35 0 59.5 -24.5t24.5 -59.5q0 -34 -24.5 -58t-59.5 -24q-34 0 -58 24t-24 58z" />
<glyph unicode="&#xf8;" horiz-adv-x="1021" d="M33 0l106 137q-49 88 -49 238q0 130 31.5 257t88.5 231.5t148.5 169.5t200.5 65q167 0 254 -103l64 80h90l-111 -141q49 -96 49 -234q0 -130 -31.5 -257t-88.5 -231.5t-148 -169.5t-199 -65q-167 0 -256 99l-59 -76h-90zM176 375q0 -91 23 -162l563 715q-68 92 -205 92 q-76 0 -140.5 -44.5t-108 -114.5t-74 -157t-44.5 -171t-14 -158zM236 143q64 -88 202 -88q76 0 140.5 44.5t108 114.5t74 157t44.5 171t14 158q0 87 -22 158z" />
<glyph unicode="&#xf9;" horiz-adv-x="1013" d="M98 285l138 790h86l-140 -784q-42 -236 125 -236q65 0 150 39.5t141.5 80t103.5 81.5l146 819h84l-191 -1075h-84l29 160q-226 -183 -395 -183q-123 0 -170.5 85t-22.5 223zM422 1493h135l166 -256h-68z" />
<glyph unicode="&#xfa;" horiz-adv-x="1013" d="M98 285l138 790h86l-140 -784q-42 -236 125 -236q65 0 150 39.5t141.5 80t103.5 81.5l146 819h84l-191 -1075h-84l29 160q-226 -183 -395 -183q-123 0 -170.5 85t-22.5 223zM502 1237l235 256h156l-311 -256h-80z" />
<glyph unicode="&#xfb;" horiz-adv-x="1013" d="M98 285l138 790h86l-140 -784q-42 -236 125 -236q65 0 150 39.5t141.5 80t103.5 81.5l146 819h84l-191 -1075h-84l29 160q-226 -183 -395 -183q-123 0 -170.5 85t-22.5 223zM393 1237l203 256h123l112 -256h-63l-117 190l-182 -190h-76z" />
<glyph unicode="&#xfc;" horiz-adv-x="1013" d="M98 285l138 790h86l-140 -784q-42 -236 125 -236q65 0 150 39.5t141.5 80t103.5 81.5l146 819h84l-191 -1075h-84l29 160q-226 -183 -395 -183q-123 0 -170.5 85t-22.5 223zM428 1257l29 160h108l-28 -160h-109zM696 1257l29 160h109l-29 -160h-109z" />
<glyph unicode="&#xfd;" horiz-adv-x="921" d="M-41 -336q77 29 125 55.5t87 68t66.5 86.5t67.5 128l-160 1073h88l129 -958l472 958h98l-541 -1075q-88 -173 -122 -221q-57 -83 -147 -133q-55 -30 -145 -64zM459 1237l235 256h156l-311 -256h-80z" />
<glyph unicode="&#xfe;" horiz-adv-x="1011" d="M-20 -418l337 1911h86l-100 -567q172 172 324 172q54 0 101 -19t86 -58.5t62 -109t23 -161.5q0 -212 -52.5 -388t-149.5 -280.5t-218 -104.5q-51 0 -98.5 16.5t-88 48.5t-66 58t-58.5 64l-102 -582h-86zM182 250q147 -195 291 -195q100 0 178.5 105t118 260t39.5 321 q0 133 -48 206t-143 73q-83 0 -162 -51.5t-171 -143.5z" />
<glyph unicode="&#xff;" horiz-adv-x="921" d="M-41 -336q77 29 125 55.5t87 68t66.5 86.5t67.5 128l-160 1073h88l129 -958l472 958h98l-541 -1075q-88 -173 -122 -221q-57 -83 -147 -133q-55 -30 -145 -64zM385 1257l29 160h108l-28 -160h-109zM653 1257l29 160h109l-29 -160h-109z" />
<glyph unicode="&#x100;" horiz-adv-x="1140" d="M-37 0l707 1434h98l201 -1434h-92l-54 395h-567l-190 -395h-103zM295 477h518l-111 846zM510 1597l12 74h473l-14 -74h-471z" />
<glyph unicode="&#x101;" horiz-adv-x="1017" d="M90 324q0 213 55 389.5t155 280.5t224 104q147 0 297 -191l31 168h84l-191 -1075h-83l32 188q-184 -211 -360 -211q-102 0 -173 84.5t-71 262.5zM178 332q0 -130 42 -203.5t122 -73.5q51 0 101 18.5t98.5 55t86 72t85.5 88.5l94 534q-138 197 -277 197q-78 0 -146 -61.5 t-112 -160.5t-69 -221t-25 -245zM414 1288l12 74h473l-14 -74h-471z" />
<glyph unicode="&#x102;" horiz-adv-x="1140" d="M-37 0l707 1434h98l201 -1434h-92l-54 395h-567l-190 -395h-103zM295 477h518l-111 846zM557 1745h72q-9 -67 17 -95t91 -28q154 0 176 123h76q-15 -92 -82.5 -145.5t-173.5 -53.5q-97 0 -145 54t-31 145z" />
<glyph unicode="&#x103;" horiz-adv-x="1017" d="M90 324q0 213 55 389.5t155 280.5t224 104q147 0 297 -191l31 168h84l-191 -1075h-83l32 188q-184 -211 -360 -211q-102 0 -173 84.5t-71 262.5zM178 332q0 -130 42 -203.5t122 -73.5q51 0 101 18.5t98.5 55t86 72t85.5 88.5l94 534q-138 197 -277 197q-78 0 -146 -61.5 t-112 -160.5t-69 -221t-25 -245zM455 1436h71q-9 -66 17 -94.5t92 -28.5q154 0 176 123h76q-15 -92 -82.5 -145.5t-173.5 -53.5q-97 0 -145 54t-31 145z" />
<glyph unicode="&#x104;" horiz-adv-x="1140" d="M-37 0l707 1434h98l201 -1434h-6q-113 -68 -160 -116.5t-47 -102.5q0 -15 4.5 -26.5t15.5 -18t20.5 -10.5t27.5 -5t27.5 -1.5t29.5 -0.5l-27 -77q-21 0 -35.5 1t-38.5 4t-40 11.5t-32.5 21t-25 34t-8.5 50.5q0 71 51.5 128t151.5 110l-54 393h-567l-190 -395h-103z M295 477h518l-111 846z" />
<glyph unicode="&#x105;" horiz-adv-x="1017" d="M90 324q0 213 55 389.5t155 280.5t224 104q147 0 297 -191l31 168h84l-191 -1075h-4q-113 -68 -159.5 -116.5t-46.5 -102.5q0 -15 4.5 -26.5t15.5 -18t20 -10.5t27 -5t27.5 -1.5t29.5 -0.5l-26 -77q-21 0 -35.5 1t-38.5 4t-40 11.5t-32.5 21t-25 34t-8.5 50.5 q0 73 53.5 131t155.5 111l32 182q-184 -211 -360 -211q-102 0 -173 84.5t-71 262.5zM178 332q0 -130 42 -203.5t122 -73.5q51 0 101 18.5t98.5 55t86 72t85.5 88.5l94 534q-138 197 -277 197q-78 0 -146 -61.5t-112 -160.5t-69 -221t-25 -245z" />
<glyph unicode="&#x106;" horiz-adv-x="1097" d="M139 520q0 209 49.5 387.5t132 297t189 185t221.5 66.5q61 0 117.5 -18.5t108 -55.5t85 -67.5t80.5 -79.5l-61 -55q-95 100 -171 147t-159 47q-98 0 -188.5 -63.5t-159.5 -174.5t-110.5 -272.5t-41.5 -345.5q0 -234 70 -346.5t184 -112.5q83 0 189.5 56t212.5 143l51 -68 q-132 -98 -243 -155.5t-220 -57.5q-150 0 -243 132t-93 411zM705 1546l235 256h156l-312 -256h-79z" />
<glyph unicode="&#x107;" horiz-adv-x="882" d="M90 397q0 128 27 242t72.5 196.5t104.5 142.5t124 90t131 30q51 0 100.5 -16t95 -47.5t65 -47.5t52.5 -47l-57 -55q-74 70 -125 98q-65 37 -125 37q-70 0 -138 -46t-121.5 -125.5t-86.5 -197t-33 -250.5q0 -164 54.5 -255t154.5 -91q32 0 68.5 10t73 29.5t60 33.5 t56.5 36.5t35 23.5l43 -67l-39 -25q-40 -25 -54 -33.5t-54 -29.5t-66 -30t-63 -17.5t-70 -8.5q-129 0 -207 113.5t-78 306.5zM487 1237l236 256h156l-312 -256h-80z" />
<glyph unicode="&#x10a;" horiz-adv-x="1097" d="M139 520q0 209 49.5 387.5t132 297t189 185t221.5 66.5q61 0 117.5 -18.5t108 -55.5t85 -67.5t80.5 -79.5l-61 -55q-95 100 -171 147t-159 47q-98 0 -188.5 -63.5t-159.5 -174.5t-110.5 -272.5t-41.5 -345.5q0 -234 70 -346.5t184 -112.5q83 0 189.5 56t212.5 143l51 -68 q-132 -98 -243 -155.5t-220 -57.5q-150 0 -243 132t-93 411zM709 1567l28 159h111l-29 -159h-110z" />
<glyph unicode="&#x10b;" horiz-adv-x="880" d="M90 397q0 128 27 242t72.5 196.5t104.5 142.5t124 90t131 30q51 0 100.5 -16t95 -47.5t65 -47.5t52.5 -47l-57 -55q-74 70 -125 98q-65 37 -125 37q-70 0 -138 -46t-121.5 -125.5t-86.5 -197t-33 -250.5q0 -164 54.5 -255t154.5 -91q32 0 68.5 10t73 29.5t60 33.5 t56.5 36.5t35 23.5l43 -67l-39 -25q-40 -25 -54 -33.5t-54 -29.5t-66 -30t-63 -17.5t-70 -8.5q-129 0 -207 113.5t-78 306.5zM545 1257l28 160h111l-29 -160h-110z" />
<glyph unicode="&#x10c;" horiz-adv-x="1097" d="M139 520q0 209 49.5 387.5t132 297t189 185t221.5 66.5q61 0 117.5 -18.5t108 -55.5t85 -67.5t80.5 -79.5l-61 -55q-95 100 -171 147t-159 47q-98 0 -188.5 -63.5t-159.5 -174.5t-110.5 -272.5t-41.5 -345.5q0 -234 70 -346.5t184 -112.5q83 0 189.5 56t212.5 143l51 -68 q-132 -98 -243 -155.5t-220 -57.5q-150 0 -243 132t-93 411zM606 1802h64l118 -190l183 190h73l-202 -256h-121z" />
<glyph unicode="&#x10d;" horiz-adv-x="880" d="M90 397q0 128 27 242t72.5 196.5t104.5 142.5t124 90t131 30q51 0 100.5 -16t95 -47.5t65 -47.5t52.5 -47l-57 -55q-74 70 -125 98q-65 37 -125 37q-70 0 -138 -46t-121.5 -125.5t-86.5 -197t-33 -250.5q0 -164 54.5 -255t154.5 -91q32 0 68.5 10t73 29.5t60 33.5 t56.5 36.5t35 23.5l43 -67l-39 -25q-40 -25 -54 -33.5t-54 -29.5t-66 -30t-63 -17.5t-70 -8.5q-129 0 -207 113.5t-78 306.5zM422 1493h63l119 -190l182 190h74l-203 -256h-120z" />
<glyph unicode="&#x10e;" horiz-adv-x="1196" d="M88 0l254 1434h244q113 0 205.5 -31t161.5 -93t107 -162.5t38 -232.5q0 -211 -54.5 -383.5t-152 -289t-234 -179.5t-299.5 -63h-270zM190 82h162q142 0 261.5 55.5t207 159t136.5 262.5t49 356q0 437 -441 437h-149zM616 1802h64l119 -190l182 190h74l-203 -256h-121z " />
<glyph unicode="&#x10f;" horiz-adv-x="1032" d="M90 324q0 213 55 389.5t155 280.5t224 104q147 0 297 -191l105 586h84l-265 -1493h-83l32 188q-184 -211 -360 -211q-102 0 -173 84.5t-71 262.5zM178 332q0 -130 42 -203.5t122 -73.5q51 0 101 18.5t98.5 55t86 72t85.5 88.5l94 534q-138 197 -277 197q-78 0 -146 -61.5 t-112 -160.5t-69 -221t-25 -245zM1040 1147l99 180h-54l29 166h109l-15 -166l-135 -217z" />
<glyph unicode="&#x110;" horiz-adv-x="1208" d="M94 676l15 82h124l121 676h244q113 0 205.5 -31t161.5 -93t107 -162.5t38 -232.5q0 -211 -54.5 -383.5t-151.5 -289t-233.5 -179.5t-299.5 -63h-271l119 676h-125zM203 82h162q142 0 261 55.5t206.5 159t136.5 262.5t49 356q0 230 -114.5 333.5t-325.5 103.5h-150 l-106 -594h301l-15 -82h-301z" />
<glyph unicode="&#x111;" horiz-adv-x="1019" d="M90 324q0 213 55 389.5t155 280.5t224 104q147 0 297 -191l58 330h-281l12 74h283l33 182h84l-33 -182h113l-13 -74h-112l-220 -1237h-83l32 188q-184 -211 -360 -211q-102 0 -173 84.5t-71 262.5zM178 332q0 -130 42 -203.5t122 -73.5q51 0 101 18.5t98.5 55t86 72 t85.5 88.5l94 534q-138 197 -277 197q-78 0 -146 -61.5t-112 -160.5t-69 -221t-25 -245z" />
<glyph unicode="&#x112;" horiz-adv-x="1015" d="M88 0l254 1434h694l-16 -82h-604l-105 -594h504l-14 -82h-504l-107 -594h621l-16 -82h-707zM489 1597l13 74h473l-14 -74h-472z" />
<glyph unicode="&#x113;" horiz-adv-x="946" d="M90 418q0 193 64 348t179.5 243.5t260.5 88.5q127 0 197.5 -68.5t70.5 -179.5q0 -167 -148 -270t-438 -103h-96q-2 -20 -2 -61q0 -176 57.5 -268.5t163.5 -92.5q27 0 56 5.5t58.5 18t52.5 23t52 29t43.5 28t40.5 28t29 20.5l43 -66q-49 -34 -74.5 -50.5t-84 -49 t-114.5 -48.5t-110 -16q-138 0 -219.5 114t-81.5 327zM188 555h103q238 0 360.5 83.5t122.5 213.5q0 80 -53 124t-135 44q-146 0 -257 -127.5t-141 -337.5zM393 1288l13 74h473l-15 -74h-471z" />
<glyph unicode="&#x116;" horiz-adv-x="1015" d="M88 0l254 1434h694l-16 -82h-604l-105 -594h504l-14 -82h-504l-107 -594h621l-16 -82h-707zM666 1567l28 159h111l-29 -159h-110z" />
<glyph unicode="&#x117;" horiz-adv-x="946" d="M90 418q0 193 64 348t179.5 243.5t260.5 88.5q127 0 197.5 -68.5t70.5 -179.5q0 -167 -148 -270t-438 -103h-96q-2 -20 -2 -61q0 -176 57.5 -268.5t163.5 -92.5q27 0 56 5.5t58.5 18t52.5 23t52 29t43.5 28t40.5 28t29 20.5l43 -66q-49 -34 -74.5 -50.5t-84 -49 t-114.5 -48.5t-110 -16q-138 0 -219.5 114t-81.5 327zM188 555h103q238 0 360.5 83.5t122.5 213.5q0 80 -53 124t-135 44q-146 0 -257 -127.5t-141 -337.5zM565 1257l29 160h111l-29 -160h-111z" />
<glyph unicode="&#x118;" horiz-adv-x="1015" d="M88 0l254 1434h694l-16 -82h-604l-105 -594h504l-14 -82h-504l-107 -594h621l-16 -82h-4q-113 -68 -160 -116.5t-47 -102.5q0 -15 4.5 -26.5t15.5 -18t20.5 -10.5t27.5 -5t27.5 -1.5t29.5 -0.5l-27 -77q-21 0 -35.5 1t-38.5 4t-40 11.5t-32.5 21t-25 34t-8.5 50.5 q0 71 50 127t148 109h-612z" />
<glyph unicode="&#x119;" horiz-adv-x="946" d="M90 418q0 193 64 348t179.5 243.5t260.5 88.5q127 0 197.5 -68.5t70.5 -179.5q0 -167 -148 -270t-438 -103h-96q-2 -20 -2 -61q0 -176 57.5 -268.5t163.5 -92.5q27 0 56 5.5t58.5 18t52.5 23t52 29t43.5 28t40.5 28t29 20.5l43 -66q-149 -106 -256 -141 q-113 -68 -160 -116.5t-47 -102.5q0 -15 4.5 -26.5t15.5 -18t20.5 -10.5t27.5 -5t27.5 -1.5t29.5 -0.5l-26 -77q-21 0 -36 1t-38.5 4t-40 11.5t-33 21t-25 34t-8.5 50.5q0 119 160 213q-139 2 -219 115t-80 326zM188 555h103q238 0 360.5 83.5t122.5 213.5q0 80 -53 124 t-135 44q-146 0 -257 -127.5t-141 -337.5z" />
<glyph unicode="&#x11a;" horiz-adv-x="1015" d="M88 0l254 1434h694l-16 -82h-604l-105 -594h504l-14 -82h-504l-107 -594h621l-16 -82h-707zM541 1802h63l119 -190l182 190h74l-203 -256h-121z" />
<glyph unicode="&#x11b;" horiz-adv-x="946" d="M90 418q0 193 64 348t179.5 243.5t260.5 88.5q127 0 197.5 -68.5t70.5 -179.5q0 -167 -148 -270t-438 -103h-96q-2 -20 -2 -61q0 -176 57.5 -268.5t163.5 -92.5q27 0 56 5.5t58.5 18t52.5 23t52 29t43.5 28t40.5 28t29 20.5l43 -66q-49 -34 -74.5 -50.5t-84 -49 t-114.5 -48.5t-110 -16q-138 0 -219.5 114t-81.5 327zM188 555h103q238 0 360.5 83.5t122.5 213.5q0 80 -53 124t-135 44q-146 0 -257 -127.5t-141 -337.5zM442 1493h64l119 -190l182 190h74l-203 -256h-121z" />
<glyph unicode="&#x11e;" horiz-adv-x="1204" d="M139 498q0 187 34 346t91.5 270t133.5 189.5t159.5 115.5t169.5 37q202 0 412 -242l-68 -53q-32 35 -48.5 52t-57 53.5t-72.5 55.5t-77.5 35.5t-88.5 16.5q-96 0 -186 -63t-158 -173.5t-109 -273.5t-41 -350q0 -214 65 -334.5t185 -120.5q171 0 426 242l66 373h-342 l14 82h430l-133 -756h-88l33 188q-108 -95 -208 -153t-204 -58q-71 0 -131.5 31t-107 93t-73 163.5t-26.5 233.5zM584 1745h71q-9 -66 17 -94.5t92 -28.5q154 0 176 123h76q-15 -92 -82.5 -145.5t-173.5 -53.5q-97 0 -145 54t-31 145z" />
<glyph unicode="&#x11f;" horiz-adv-x="1017" d="M-8 -367l35 82q196 -75 333 -75q57 0 104 17.5t77.5 44t52.5 63t33.5 70t17.5 69.5l49 286q-74 -87 -168 -150t-192 -63q-102 0 -173 84.5t-71 262.5q0 213 55 389.5t155 280.5t224 104q147 0 297 -191l31 168h84l-209 -1177q-59 -336 -367 -336q-172 0 -368 71zM178 332 q0 -130 42 -203.5t122 -73.5q51 0 101 18.5t98 55t86 72.5t86 88l94 534q-138 197 -277 197q-78 0 -146 -61.5t-112 -160.5t-69 -221t-25 -245zM440 1436h72q-9 -66 17 -94.5t92 -28.5q154 0 176 123h75q-15 -92 -82.5 -145.5t-173.5 -53.5q-97 0 -145 54t-31 145z" />
<glyph unicode="&#x120;" horiz-adv-x="1204" d="M139 498q0 187 34 346t91.5 270t133.5 189.5t159.5 115.5t169.5 37q202 0 412 -242l-68 -53q-32 35 -48.5 52t-57 53.5t-72.5 55.5t-77.5 35.5t-88.5 16.5q-96 0 -186 -63t-158 -173.5t-109 -273.5t-41 -350q0 -214 65 -334.5t185 -120.5q171 0 426 242l66 373h-342 l14 82h430l-133 -756h-88l33 188q-108 -95 -208 -153t-204 -58q-71 0 -131.5 31t-107 93t-73 163.5t-26.5 233.5zM713 1567l28 159h111l-29 -159h-110z" />
<glyph unicode="&#x121;" horiz-adv-x="1017" d="M-8 -367l35 82q196 -75 333 -75q57 0 104 17.5t77.5 44t52.5 63t33.5 70t17.5 69.5l49 286q-74 -87 -168 -150t-192 -63q-102 0 -173 84.5t-71 262.5q0 213 55 389.5t155 280.5t224 104q147 0 297 -191l31 168h84l-209 -1177q-59 -336 -367 -336q-172 0 -368 71zM178 332 q0 -130 42 -203.5t122 -73.5q51 0 101 18.5t98 55t86 72.5t86 88l94 534q-138 197 -277 197q-78 0 -146 -61.5t-112 -160.5t-69 -221t-25 -245zM567 1257l29 160h111l-29 -160h-111z" />
<glyph unicode="&#x122;" horiz-adv-x="1204" d="M139 498q0 187 34 346t91.5 270t133.5 189.5t159.5 115.5t169.5 37q202 0 412 -242l-68 -53q-32 35 -48.5 52t-57 53.5t-72.5 55.5t-77.5 35.5t-88.5 16.5q-96 0 -186 -63t-158 -173.5t-109 -273.5t-41 -350q0 -214 65 -334.5t185 -120.5q171 0 426 242l66 373h-342 l14 82h430l-133 -756h-88l33 188q-108 -95 -208 -153t-204 -58q-71 0 -131.5 31t-107 93t-73 163.5t-26.5 233.5zM367 -483l98 180h-53l28 166h109l-14 -166l-136 -217z" />
<glyph unicode="&#x123;" horiz-adv-x="1017" d="M-8 -367l35 82q196 -75 333 -75q57 0 104 17.5t77.5 44t52.5 63t33.5 70t17.5 69.5l49 286q-74 -87 -168 -150t-192 -63q-102 0 -173 84.5t-71 262.5q0 213 55 389.5t155 280.5t224 104q147 0 297 -191l31 168h84l-209 -1177q-59 -336 -367 -336q-172 0 -368 71zM178 332 q0 -130 42 -203.5t122 -73.5q51 0 101 18.5t98 55t86 72.5t86 88l94 534q-138 197 -277 197q-78 0 -146 -61.5t-112 -160.5t-69 -221t-25 -245zM575 1257l15 166l135 217l33 -36l-99 -181h54l-29 -166h-109z" />
<glyph unicode="&#x126;" horiz-adv-x="1232" d="M98 0l189 1071h-123l14 74h123l51 289h88l-51 -289h641l51 289h88l-51 -289h129l-14 -74h-129l-189 -1071h-88l125 711h-641l-125 -711h-88zM326 793h641l49 278h-641z" />
<glyph unicode="&#x127;" horiz-adv-x="1013" d="M53 0l219 1237h-110l12 74h111l32 182h86l-32 -182h284l-14 -74h-283l-57 -322q80 67 186 125t207 58q123 0 171 -84t24 -221l-139 -793h-86l137 784q43 236 -123 236q-94 0 -205.5 -65.5t-189.5 -137.5l-144 -817h-86z" />
<glyph unicode="&#x128;" horiz-adv-x="487" d="M88 0l254 1434h88l-254 -1434h-88zM186 1610q42 72 75 102.5t77 30.5q29 0 56.5 -16t45.5 -34.5t39.5 -34.5t40.5 -16q21 0 41.5 18.5t56.5 76.5l54 -37q-44 -72 -77 -102.5t-77 -30.5q-37 0 -70.5 25t-61.5 50t-50 25t-42 -17t-56 -75z" />
<glyph unicode="&#x129;" horiz-adv-x="413" d="M53 0l191 1075h86l-191 -1075h-86zM94 1300q43 72 75.5 103t76.5 31q29 0 56.5 -16t45.5 -34.5t39.5 -34.5t40.5 -16q21 0 41.5 18.5t56.5 75.5l54 -36q-44 -73 -77.5 -103.5t-76.5 -30.5q-29 0 -57 16t-46 34.5t-39.5 34.5t-39.5 16q-23 0 -43 -17.5t-56 -74.5z" />
<glyph unicode="&#x12a;" horiz-adv-x="485" d="M88 0l254 1434h88l-254 -1434h-88zM182 1597l13 74h473l-15 -74h-471z" />
<glyph unicode="&#x12b;" horiz-adv-x="411" d="M53 0l191 1075h86l-191 -1075h-86zM88 1288l12 74h473l-14 -74h-471z" />
<glyph unicode="&#x12c;" horiz-adv-x="483" d="M88 0l254 1434h88l-254 -1434h-88zM227 1745h72q-9 -66 17 -94.5t92 -28.5q154 0 176 123h75q-15 -92 -82.5 -145.5t-173.5 -53.5q-97 0 -145 54t-31 145z" />
<glyph unicode="&#x12d;" horiz-adv-x="411" d="M53 0l191 1075h86l-191 -1075h-86zM135 1436h72q-9 -67 17 -95t91 -28q155 0 177 123h75q-15 -92 -82.5 -145.5t-173.5 -53.5q-97 0 -145 54t-31 145z" />
<glyph unicode="&#x12e;" horiz-adv-x="481" d="M-117 -236q0 71 52 128t151 110l254 1432h88l-254 -1434h-2q-113 -68 -160 -116.5t-47 -102.5q0 -15 4.5 -26.5t15.5 -18t20.5 -10.5t27.5 -5t27.5 -1.5t29.5 -0.5l-27 -77q-21 0 -35.5 1t-38.5 4t-40 11.5t-32.5 21t-25 34t-8.5 50.5z" />
<glyph unicode="&#x12f;" horiz-adv-x="409" d="M-154 -236q0 72 53 129.5t154 110.5l191 1071h86l-191 -1075h-4q-113 -68 -160 -116.5t-47 -102.5q0 -15 4.5 -26.5t15.5 -18t20.5 -10.5t27.5 -5t27.5 -1.5t29.5 -0.5l-26 -77q-21 0 -36 1t-38.5 4t-40 11.5t-33 21t-25 34t-8.5 50.5zM281 1327l28 160h101l-29 -160 h-100z" />
<glyph unicode="&#x130;" horiz-adv-x="485" d="M88 0l254 1434h88l-254 -1434h-88zM356 1567l29 159h111l-29 -159h-111z" />
<glyph unicode="&#x131;" horiz-adv-x="411" d="M53 0l191 1075h86l-191 -1075h-86z" />
<glyph unicode="&#x132;" horiz-adv-x="966" d="M88 0l254 1434h88l-254 -1434h-88zM344 -184q40 14 69 25.5t52.5 25t39 23.5t28 27t19 28t13.5 34.5t10 39.5t9 49l241 1366h88l-241 -1366q-23 -125 -43 -166q-31 -65 -114 -107q-54 -28 -153 -59z" />
<glyph unicode="&#x133;" horiz-adv-x="813" d="M53 0l191 1075h86l-191 -1075h-86zM197 -342q45 16 77.5 30t56.5 26.5t40 30t26.5 30.5t18 39t11.5 44t11 56l205 1161h86l-207 -1161q-23 -125 -42 -166q-31 -65 -113 -107q-54 -28 -152 -59zM281 1327l28 160h101l-29 -160h-100zM680 1327l29 160h100l-29 -160h-100z " />
<glyph unicode="&#x134;" horiz-adv-x="481" d="M-139 -184q40 14 69 25.5t52.5 25t38.5 23t27.5 27t19.5 28.5t13.5 35t9.5 39t9 49l242 1366h88l-242 -1366q-23 -124 -42 -165q-30 -65 -112 -107q-55 -28 -155 -60zM188 1546l203 256h123l113 -256h-64l-117 191l-182 -191h-76z" />
<glyph unicode="&#x135;" horiz-adv-x="411" d="M-203 -342q53 18 88 33t61 34t40 33.5t25 42.5t15.5 49t12.5 64l205 1161h86l-205 -1161q-8 -46 -12.5 -67t-13.5 -54t-17.5 -47.5t-25 -37.5t-36 -35.5t-49.5 -29.5t-67.5 -31t-87.5 -30zM94 1237l203 256h123l112 -256h-63l-117 190l-182 -190h-76z" />
<glyph unicode="&#x136;" horiz-adv-x="1085" d="M88 0l254 1434h88l-151 -859l737 859h114l-600 -691l408 -743h-102l-367 674l-219 -252l-74 -422h-88zM289 -483l98 180h-53l28 166h109l-14 -166l-135 -217z" />
<glyph unicode="&#x137;" horiz-adv-x="849" d="M53 0l264 1493h86l-184 -1034l514 616h105l-377 -440l239 -635h-88l-211 567l-204 -237l-58 -330h-86zM188 -483l99 180h-54l29 166h109l-15 -166l-135 -217z" />
<glyph unicode="&#x138;" horiz-adv-x="849" d="M53 0l191 1075h86l-109 -616l512 616h105l-377 -440l239 -635h-88l-211 567l-204 -237l-58 -330h-86z" />
<glyph unicode="&#x139;" horiz-adv-x="919" d="M88 0l254 1434h88l-240 -1352h592l-14 -82h-680zM297 1546l235 256h156l-311 -256h-80z" />
<glyph unicode="&#x13a;" horiz-adv-x="434" d="M66 0l264 1493h84l-264 -1493h-84zM283 1606l235 256h156l-312 -256h-79z" />
<glyph unicode="&#x13b;" horiz-adv-x="919" d="M88 0l254 1434h88l-240 -1352h592l-14 -82h-680zM274 -483l99 180h-54l29 166h109l-15 -166l-135 -217z" />
<glyph unicode="&#x13c;" horiz-adv-x="434" d="M-45 -483l98 180h-53l29 166h108l-14 -166l-135 -217zM66 0l264 1493h84l-264 -1493h-84z" />
<glyph unicode="&#x13d;" horiz-adv-x="919" d="M88 0l254 1434h88l-240 -1352h592l-14 -82h-680zM463 1087l98 181h-53l29 166h108l-14 -166l-135 -217z" />
<glyph unicode="&#x13e;" horiz-adv-x="436" d="M66 0l264 1493h84l-264 -1493h-84zM446 1147l99 180h-53l28 166h109l-15 -166l-135 -217z" />
<glyph unicode="&#x13f;" horiz-adv-x="923" d="M88 0l254 1434h88l-240 -1352h592l-14 -82h-680zM666 657l28 160h111l-29 -160h-110z" />
<glyph unicode="&#x140;" horiz-adv-x="423" d="M66 0l264 1493h84l-264 -1493h-84zM373 657l28 160h111l-29 -160h-110z" />
<glyph unicode="&#x141;" horiz-adv-x="931" d="M68 512l18 98l137 80l131 744h88l-123 -686l265 155l-19 -98l-262 -156l-100 -567h592l-15 -82h-680l105 592z" />
<glyph unicode="&#x142;" horiz-adv-x="468" d="M72 592l18 100l129 76l129 725h84l-119 -672l136 80l-19 -100l-135 -80l-127 -721h-84l117 668z" />
<glyph unicode="&#x143;" horiz-adv-x="1239" d="M88 0l254 1434h94l434 -1284l228 1284h88l-254 -1434h-92l-437 1286l-227 -1286h-88zM682 1546l236 256h155l-311 -256h-80z" />
<glyph unicode="&#x144;" horiz-adv-x="1013" d="M53 0l191 1075h86l-29 -157q49 40 101.5 75.5t136.5 70t155 34.5q123 0 171.5 -85.5t23.5 -221.5l-139 -791h-86l139 784q43 236 -125 236q-94 0 -206 -66t-187 -137l-146 -817h-86zM510 1237l235 256h156l-311 -256h-80z" />
<glyph unicode="&#x145;" horiz-adv-x="1239" d="M88 0l254 1434h94l434 -1284l228 1284h88l-254 -1434h-92l-437 1286l-227 -1286h-88zM369 -483l98 180h-53l28 166h109l-14 -166l-136 -217z" />
<glyph unicode="&#x146;" horiz-adv-x="1013" d="M53 0l191 1075h86l-29 -157q49 40 101.5 75.5t136.5 70t155 34.5q123 0 171.5 -85.5t23.5 -221.5l-139 -791h-86l139 784q43 236 -125 236q-94 0 -206 -66t-187 -137l-146 -817h-86zM248 -483l98 180h-53l29 166h108l-14 -166l-135 -217z" />
<glyph unicode="&#x147;" horiz-adv-x="1239" d="M88 0l254 1434h94l434 -1284l228 1284h88l-254 -1434h-92l-437 1286l-227 -1286h-88zM621 1802h63l119 -190l182 190h74l-203 -256h-121z" />
<glyph unicode="&#x148;" horiz-adv-x="1011" d="M53 0l191 1075h86l-29 -157q49 40 101.5 75.5t136.5 70t155 34.5q123 0 171.5 -85.5t23.5 -221.5l-139 -791h-86l139 784q43 236 -125 236q-94 0 -206 -66t-187 -137l-146 -817h-86zM442 1493h64l119 -190l182 190h74l-203 -256h-121z" />
<glyph unicode="&#x149;" horiz-adv-x="1013" d="M53 0l191 1075h86l-29 -157q49 40 101.5 75.5t136.5 70t155 34.5q123 0 171.5 -85.5t23.5 -221.5l-139 -791h-86l139 784q43 236 -125 236q-94 0 -206 -66t-187 -137l-146 -817h-86zM260 1237l98 180h-53l29 166h108l-14 -166l-135 -217z" />
<glyph unicode="&#x14a;" horiz-adv-x="1239" d="M88 0l254 1434h94l434 -1282l228 1282h88l-242 -1366q-8 -46 -12.5 -67t-13.5 -54t-17.5 -47.5t-25 -38t-36 -36t-49.5 -29.5t-67.5 -30.5t-87.5 -29.5l-21 80q117 42 163 75t65 103l-439 1292l-227 -1286h-88z" />
<glyph unicode="&#x14b;" horiz-adv-x="1013" d="M53 0l191 1075h86l-29 -157q49 40 101.5 75.5t136.5 70t155 34.5q123 0 171 -85t24 -222l-154 -877q-8 -46 -12.5 -67t-13.5 -54t-17.5 -47.5t-25 -37.5t-36 -35.5t-49.5 -29.5t-67.5 -31t-87.5 -30l-18 76q46 16 78.5 30t56.5 26.5t40.5 30t27 30.5t18 39t11.5 44t11 56 l152 870q43 236 -125 236q-94 0 -206 -66t-187 -137l-146 -817h-86z" />
<glyph unicode="&#x14c;" horiz-adv-x="1267" d="M135 483q0 63 9.5 142t31.5 173t54.5 185.5t82.5 177.5t110.5 151t143 104.5t176.5 39.5q209 0 315.5 -127t106.5 -379q0 -63 -9.5 -142t-31.5 -173t-54.5 -185.5t-82.5 -177.5t-110.5 -151t-143 -104.5t-176.5 -39.5q-209 0 -315.5 127t-106.5 379zM225 483 q0 -424 332 -424q81 0 152 38.5t122.5 101t94 144.5t69.5 167t45.5 170.5t26.5 153t8 116.5q0 424 -332 424q-81 0 -152 -38.5t-122.5 -101t-94 -144.5t-69.5 -167t-45.5 -170.5t-26.5 -153t-8 -116.5zM569 1597l13 74h473l-15 -74h-471z" />
<glyph unicode="&#x14d;" horiz-adv-x="1024" d="M90 375q0 130 31.5 257t88.5 231.5t148.5 169.5t200.5 65q161 0 253.5 -100t92.5 -298q0 -130 -31.5 -257t-88.5 -231.5t-148 -169.5t-199 -65q-162 0 -255 100t-93 298zM176 375q0 -320 262 -320q76 0 140.5 44.5t108 114.5t74 157t44.5 171t14 158q0 320 -262 320 q-76 0 -140.5 -44.5t-108 -114.5t-74 -157t-44.5 -171t-14 -158zM395 1288l13 74h473l-15 -74h-471z" />
<glyph unicode="&#x14e;" horiz-adv-x="1267" d="M135 483q0 63 9.5 142t31.5 173t54.5 185.5t82.5 177.5t110.5 151t143 104.5t176.5 39.5q209 0 315.5 -127t106.5 -379q0 -63 -9.5 -142t-31.5 -173t-54.5 -185.5t-82.5 -177.5t-110.5 -151t-143 -104.5t-176.5 -39.5q-209 0 -315.5 127t-106.5 379zM225 483 q0 -424 332 -424q81 0 152 38.5t122.5 101t94 144.5t69.5 167t45.5 170.5t26.5 153t8 116.5q0 424 -332 424q-81 0 -152 -38.5t-122.5 -101t-94 -144.5t-69.5 -167t-45.5 -170.5t-26.5 -153t-8 -116.5zM616 1745h72q-9 -66 17 -94.5t92 -28.5q154 0 176 123h76 q-15 -92 -82.5 -145.5t-173.5 -53.5q-97 0 -145.5 54.5t-31.5 144.5z" />
<glyph unicode="&#x14f;" horiz-adv-x="1024" d="M90 375q0 130 31.5 257t88.5 231.5t148.5 169.5t200.5 65q161 0 253.5 -100t92.5 -298q0 -130 -31.5 -257t-88.5 -231.5t-148 -169.5t-199 -65q-162 0 -255 100t-93 298zM176 375q0 -320 262 -320q76 0 140.5 44.5t108 114.5t74 157t44.5 171t14 158q0 320 -262 320 q-76 0 -140.5 -44.5t-108 -114.5t-74 -157t-44.5 -171t-14 -158zM442 1436h72q-9 -66 17 -94.5t92 -28.5q154 0 176 123h75q-15 -92 -82.5 -145.5t-173.5 -53.5q-97 0 -145 54t-31 145z" />
<glyph unicode="&#x150;" horiz-adv-x="1265" d="M135 483q0 63 9.5 142t31.5 173t54.5 185.5t82.5 177.5t110.5 151t143 104.5t176.5 39.5q209 0 315.5 -127t106.5 -379q0 -63 -9.5 -142t-31.5 -173t-54.5 -185.5t-82.5 -177.5t-110.5 -151t-143 -104.5t-176.5 -39.5q-209 0 -315.5 127t-106.5 379zM225 483 q0 -424 332 -424q81 0 152 38.5t122.5 101t94 144.5t69.5 167t45.5 170.5t26.5 153t8 116.5q0 424 -332 424q-81 0 -152 -38.5t-122.5 -101t-94 -144.5t-69.5 -167t-45.5 -170.5t-26.5 -153t-8 -116.5zM621 1546l161 256h140l-238 -256h-63zM850 1546l162 256h139l-238 -256 h-63z" />
<glyph unicode="&#x151;" horiz-adv-x="1024" d="M90 375q0 130 31.5 257t88.5 231.5t148.5 169.5t200.5 65q161 0 253.5 -100t92.5 -298q0 -130 -31.5 -257t-88.5 -231.5t-148 -169.5t-199 -65q-162 0 -255 100t-93 298zM176 375q0 -320 262 -320q76 0 140.5 44.5t108 114.5t74 157t44.5 171t14 158q0 320 -262 320 q-76 0 -140.5 -44.5t-108 -114.5t-74 -157t-44.5 -171t-14 -158zM446 1237l162 256h140l-238 -256h-64zM676 1237l162 256h139l-238 -256h-63z" />
<glyph unicode="&#x152;" horiz-adv-x="1861" d="M135 483q0 63 9.5 142t31.5 173t54.5 185.5t82.5 177.5t110.5 151t143 104.5t176.5 39.5q318 0 398 -291l47 269h694l-16 -82h-604l-105 -594h504l-14 -82h-504l-107 -594h621l-17 -82h-706l45 260q-164 -283 -422 -283q-209 0 -315.5 127t-106.5 379zM225 483 q0 -424 332 -424q81 0 152 38.5t122.5 101t94 144.5t69.5 167t45.5 170.5t26.5 153t8 116.5q0 424 -332 424q-81 0 -152 -38.5t-122.5 -101t-94 -144.5t-69.5 -167t-45.5 -170.5t-26.5 -153t-8 -116.5z" />
<glyph unicode="&#x153;" horiz-adv-x="1658" d="M90 375q0 130 31.5 257t88.5 231.5t148.5 169.5t200.5 65q132 0 219.5 -69.5t114.5 -205.5q67 128 175 201.5t239 73.5q127 0 197.5 -68.5t70.5 -179.5q0 -167 -148 -270t-438 -103h-96q-2 -20 -2 -61q0 -176 57.5 -268.5t163.5 -92.5q27 0 56 5.5t58.5 18t52.5 23t52 29 t43.5 28t40.5 28t29 20.5l43 -66q-49 -34 -74.5 -50.5t-84 -49t-114.5 -48.5t-110 -16q-112 0 -187.5 74.5t-101.5 218.5q-62 -134 -158.5 -213.5t-218.5 -79.5q-162 0 -255 100t-93 298zM176 375q0 -320 262 -320q76 0 140.5 44.5t108 114.5t74 157t44.5 171t14 158 q0 320 -262 320q-76 0 -140.5 -44.5t-108 -114.5t-74 -157t-44.5 -171t-14 -158zM901 555h103q238 0 360.5 83.5t122.5 213.5q0 80 -53.5 124t-135.5 44q-146 0 -256.5 -127.5t-140.5 -337.5z" />
<glyph unicode="&#x154;" horiz-adv-x="1163" d="M88 0l254 1434h399q82 0 148.5 -17t119.5 -53t82 -98.5t29 -147.5q0 -105 -32.5 -189.5t-90.5 -140.5t-131 -90t-159 -47l221 -651h-90l-211 643h-336l-115 -643h-88zM305 725h299q194 0 309 101.5t115 287.5q0 121 -79 179.5t-212 58.5h-321zM670 1546l235 256h156 l-311 -256h-80z" />
<glyph unicode="&#x155;" horiz-adv-x="628" d="M53 0l191 1075h86l-43 -233q137 232 327 245q25 2 50 0l-17 -83q-57 0 -109.5 -18.5t-91 -48t-71 -65.5t-54 -72t-37 -65.5t-22.5 -48.5l-6 -18l-117 -668h-86zM373 1237l235 256h156l-311 -256h-80z" />
<glyph unicode="&#x156;" horiz-adv-x="1163" d="M88 0l254 1434h399q82 0 148.5 -17t119.5 -53t82 -98.5t29 -147.5q0 -105 -32.5 -189.5t-90.5 -140.5t-131 -90t-159 -47l221 -651h-90l-211 643h-336l-115 -643h-88zM305 725h299q194 0 309 101.5t115 287.5q0 121 -79 179.5t-212 58.5h-321zM319 -483l99 180h-53 l28 166h109l-15 -166l-135 -217z" />
<glyph unicode="&#x157;" horiz-adv-x="628" d="M-59 -483l98 180h-53l28 166h109l-14 -166l-136 -217zM53 0l191 1075h86l-43 -233q137 232 327 245q25 2 50 0l-17 -83q-57 0 -109.5 -18.5t-91 -48t-71 -65.5t-54 -72t-37 -65.5t-22.5 -48.5l-6 -18l-117 -668h-86z" />
<glyph unicode="&#x158;" horiz-adv-x="1163" d="M88 0l254 1434h399q82 0 148.5 -17t119.5 -53t82 -98.5t29 -147.5q0 -105 -32.5 -189.5t-90.5 -140.5t-131 -90t-159 -47l221 -651h-90l-211 643h-336l-115 -643h-88zM305 725h299q194 0 309 101.5t115 287.5q0 121 -79 179.5t-212 58.5h-321zM608 1802h64l119 -190 l182 190h74l-203 -256h-121z" />
<glyph unicode="&#x159;" horiz-adv-x="626" d="M53 0l191 1075h86l-43 -233q137 232 327 245q25 2 50 0l-17 -83q-57 0 -109.5 -18.5t-91 -48t-71 -65.5t-54 -72t-37 -65.5t-22.5 -48.5l-6 -18l-117 -668h-86zM307 1493h64l118 -190l183 190h73l-202 -256h-121z" />
<glyph unicode="&#x15a;" horiz-adv-x="1032" d="M27 133l59 72q189 -146 369 -146q142 0 240 84t98 224q0 51 -16 94.5t-38.5 75t-64 65t-75.5 54.5t-91 53q-52 30 -78 46.5t-67 45.5t-62 54t-44 60.5t-32.5 77t-9.5 90.5q0 115 56.5 201.5t147 129t199.5 42.5q188 0 383 -125l-55 -65q-73 47 -164 77.5t-170 30.5 q-126 0 -216.5 -77.5t-90.5 -213.5q0 -43 12 -78.5t29 -61t53.5 -54.5t68 -49t89.5 -54q47 -28 72 -43.5t65 -43.5t62 -49t49.5 -53.5t41.5 -64t24 -72.5t10 -87q0 -95 -37.5 -172.5t-99.5 -125t-137.5 -73t-155.5 -25.5q-118 0 -228 46t-196 110zM567 1546l236 256h155 l-311 -256h-80z" />
<glyph unicode="&#x15b;" horiz-adv-x="860" d="M12 111l56 61q164 -117 297 -117q46 0 89.5 13.5t80.5 40t59 71t22 99.5q0 44 -14.5 78t-47.5 61.5t-62 44.5t-83 45q-11 5 -16 8q-34 18 -52 27.5t-48.5 28.5t-47 34t-37.5 38t-31.5 46.5t-18.5 54.5t-8 66q0 134 94 210.5t227 76.5q89 0 174.5 -34t145.5 -79l-54 -61 q-136 96 -266 96q-97 0 -166 -54t-69 -149q0 -26 7 -50t14.5 -41t27 -36t29.5 -28t37.5 -25t35.5 -20t39 -19l12 -6q69 -34 113 -62t81.5 -65t55 -82t17.5 -102q0 -98 -50.5 -169t-124.5 -103t-161 -32q-172 0 -357 134zM432 1237l236 256h155l-311 -256h-80z" />
<glyph unicode="&#x15c;" horiz-adv-x="1032" d="M27 133l59 72q189 -146 369 -146q142 0 240 84t98 224q0 51 -16 94.5t-38.5 75t-64 65t-75.5 54.5t-91 53q-52 30 -78 46.5t-67 45.5t-62 54t-44 60.5t-32.5 77t-9.5 90.5q0 115 56.5 201.5t147 129t199.5 42.5q188 0 383 -125l-55 -65q-73 47 -164 77.5t-170 30.5 q-126 0 -216.5 -77.5t-90.5 -213.5q0 -43 12 -78.5t29 -61t53.5 -54.5t68 -49t89.5 -54q47 -28 72 -43.5t65 -43.5t62 -49t49.5 -53.5t41.5 -64t24 -72.5t10 -87q0 -95 -37.5 -172.5t-99.5 -125t-137.5 -73t-155.5 -25.5q-118 0 -228 46t-196 110zM461 1546l203 256h122 l113 -256h-63l-117 191l-182 -191h-76z" />
<glyph unicode="&#x15d;" horiz-adv-x="860" d="M12 111l56 61q164 -117 297 -117q46 0 89.5 13.5t80.5 40t59 71t22 99.5q0 44 -14.5 78t-47.5 61.5t-62 44.5t-83 45q-11 5 -16 8q-34 18 -52 27.5t-48.5 28.5t-47 34t-37.5 38t-31.5 46.5t-18.5 54.5t-8 66q0 134 94 210.5t227 76.5q89 0 174.5 -34t145.5 -79l-54 -61 q-136 96 -266 96q-97 0 -166 -54t-69 -149q0 -26 7 -50t14.5 -41t27 -36t29.5 -28t37.5 -25t35.5 -20t39 -19l12 -6q69 -34 113 -62t81.5 -65t55 -82t17.5 -102q0 -98 -50.5 -169t-124.5 -103t-161 -32q-172 0 -357 134zM326 1237l202 256h123l113 -256h-64l-116 190 l-183 -190h-75z" />
<glyph unicode="&#x15e;" horiz-adv-x="1032" d="M27 133l59 72q189 -146 369 -146q142 0 240 84t98 224q0 51 -16 94.5t-38.5 75t-64 65t-75.5 54.5t-91 53q-52 30 -78 46.5t-67 45.5t-62 54t-44 60.5t-32.5 77t-9.5 90.5q0 115 56.5 201.5t147 129t199.5 42.5q188 0 383 -125l-55 -65q-73 47 -164 77.5t-170 30.5 q-126 0 -216.5 -77.5t-90.5 -213.5q0 -43 12 -78.5t29 -61t53.5 -54.5t68 -49t89.5 -54q47 -28 72 -43.5t65 -43.5t62 -49t49.5 -53.5t41.5 -64t24 -72.5t10 -87q0 -92 -34.5 -166.5t-92.5 -122t-129 -74t-148 -30.5q29 -65 29 -127q0 -84 -47.5 -136.5t-132.5 -52.5 q-72 0 -125 35l37 68q42 -27 88 -27q48 0 81 32.5t33 102.5q0 44 -14 102q-204 10 -399 156z" />
<glyph unicode="&#x15f;" horiz-adv-x="860" d="M12 111l56 61q164 -117 297 -117q46 0 89.5 13.5t80.5 40t59 71t22 99.5q0 44 -14.5 78t-47.5 61.5t-62 44.5t-83 45q-11 5 -16 8q-34 18 -52 27.5t-48.5 28.5t-47 34t-37.5 38t-31.5 46.5t-18.5 54.5t-8 66q0 134 94 210.5t227 76.5q89 0 174.5 -34t145.5 -79l-54 -61 q-136 96 -266 96q-97 0 -166 -54t-69 -149q0 -26 7 -50t14.5 -41t27 -36t29.5 -28t37.5 -25t35.5 -20t39 -19l12 -6q69 -34 113 -62t81.5 -65t55 -82t17.5 -102q0 -94 -47 -163t-117.5 -102t-153.5 -36q29 -65 29 -127q0 -84 -47.5 -136.5t-132.5 -52.5q-72 0 -125 35l36 68 q42 -27 89 -27q48 0 81 32.5t33 102.5q0 47 -14 105q-160 12 -324 131z" />
<glyph unicode="&#x160;" horiz-adv-x="1032" d="M27 133l59 72q189 -146 369 -146q142 0 240 84t98 224q0 51 -16 94.5t-38.5 75t-64 65t-75.5 54.5t-91 53q-52 30 -78 46.5t-67 45.5t-62 54t-44 60.5t-32.5 77t-9.5 90.5q0 115 56.5 201.5t147 129t199.5 42.5q188 0 383 -125l-55 -65q-73 47 -164 77.5t-170 30.5 q-126 0 -216.5 -77.5t-90.5 -213.5q0 -43 12 -78.5t29 -61t53.5 -54.5t68 -49t89.5 -54q47 -28 72 -43.5t65 -43.5t62 -49t49.5 -53.5t41.5 -64t24 -72.5t10 -87q0 -95 -37.5 -172.5t-99.5 -125t-137.5 -73t-155.5 -25.5q-118 0 -228 46t-196 110zM506 1802h63l119 -190 l182 190h74l-203 -256h-120z" />
<glyph unicode="&#x161;" horiz-adv-x="858" d="M12 111l56 61q164 -117 297 -117q46 0 89.5 13.5t80.5 40t59 71t22 99.5q0 44 -14.5 78t-47.5 61.5t-62 44.5t-83 45q-11 5 -16 8q-34 18 -52 27.5t-48.5 28.5t-47 34t-37.5 38t-31.5 46.5t-18.5 54.5t-8 66q0 134 94 210.5t227 76.5q89 0 174.5 -34t145.5 -79l-54 -61 q-136 96 -266 96q-97 0 -166 -54t-69 -149q0 -26 7 -50t14.5 -41t27 -36t29.5 -28t37.5 -25t35.5 -20t39 -19l12 -6q69 -34 113 -62t81.5 -65t55 -82t17.5 -102q0 -98 -50.5 -169t-124.5 -103t-161 -32q-172 0 -357 134zM367 1493h63l119 -190l182 190h74l-203 -256h-121z " />
<glyph unicode="&#x162;" horiz-adv-x="940" d="M119 -301l37 68q42 -27 88 -27q48 0 81 32.5t33 102.5q0 55 -20 125h-23l240 1352h-377l15 82h843l-14 -82h-379l-240 -1352h-18q39 -65 39 -147q0 -84 -47.5 -136.5t-132.5 -52.5q-72 0 -125 35z" />
<glyph unicode="&#x163;" horiz-adv-x="610" d="M-6 -301l37 68q42 -27 88 -27q48 0 81 32.5t33 102.5q0 40 -16 107q-136 21 -100 215l143 804h-125l15 74h122l50 273l90 38l-56 -311h242l-14 -74h-242l-143 -823q-21 -123 63 -123q50 0 184 62l27 -72q-35 -18 -95.5 -39.5t-107.5 -25.5q29 -65 29 -127 q0 -84 -47.5 -136.5t-132.5 -52.5q-72 0 -125 35z" />
<glyph unicode="&#x164;" horiz-adv-x="940" d="M178 1352l15 82h843l-14 -82h-379l-240 -1352h-88l240 1352h-377zM461 1802h63l119 -190l182 190h74l-203 -256h-121z" />
<glyph unicode="&#x165;" horiz-adv-x="610" d="M113.5 86q-5.5 43 3.5 111l143 804h-125l15 74h122l50 273l90 38l-56 -311h242l-14 -74h-242l-143 -823q-21 -123 63 -123q50 0 184 62l27 -72q-140 -68 -221 -68q-32 0 -58 9t-50.5 33t-30 67zM492 1237l98 180h-53l28 166h109l-15 -166l-135 -217z" />
<glyph unicode="&#x166;" horiz-adv-x="962" d="M188 1352l15 82h844l-15 -82h-379l-139 -787h195l-13 -73h-196l-86 -492h-88l86 492h-191l12 73h193l139 787h-377z" />
<glyph unicode="&#x167;" horiz-adv-x="608" d="M100 604l13 74h90l57 323h-125l15 74h122l50 273l90 38l-56 -311h242l-14 -74h-242l-57 -323h190l-12 -74h-191l-73 -426q-21 -123 63 -123q50 0 184 62l27 -72q-140 -68 -221 -68q-32 0 -58 9t-50.5 33t-30 67t3.5 111l71 407h-88z" />
<glyph unicode="&#x168;" horiz-adv-x="1198" d="M158 451l174 983h88l-172 -975q-13 -70 -16 -124.5t7 -108.5t36.5 -89t79 -56.5t128.5 -21.5q339 0 410 400l172 975h88l-174 -983q-14 -82 -38.5 -151t-65.5 -129.5t-95.5 -103t-130.5 -66.5t-168 -24q-405 0 -323 474zM545 1610q42 72 74.5 102.5t76.5 30.5 q37 0 70.5 -25.5t61.5 -50.5t51 -25q21 0 41.5 18.5t56.5 76.5l53 -37q-44 -73 -77 -103t-76 -30q-29 0 -57 15.5t-46 34.5t-40 34.5t-40 15.5q-22 0 -42 -17t-56 -75z" />
<glyph unicode="&#x169;" horiz-adv-x="1013" d="M98 285l138 790h86l-140 -784q-42 -236 125 -236q65 0 150 39.5t141.5 80t103.5 81.5l146 819h84l-191 -1075h-84l29 160q-226 -183 -395 -183q-123 0 -170.5 85t-22.5 223zM391 1300q43 72 75.5 103t76.5 31q29 0 56.5 -16t45.5 -34.5t39.5 -34.5t40.5 -16 q21 0 41.5 18.5t56.5 75.5l54 -36q-44 -73 -77.5 -103.5t-76.5 -30.5q-29 0 -57 16t-46 34.5t-39.5 34.5t-39.5 16q-23 0 -43 -17.5t-56 -74.5z" />
<glyph unicode="&#x16a;" horiz-adv-x="1198" d="M158 451l174 983h88l-172 -975q-13 -70 -16 -124.5t7 -108.5t36.5 -89t79 -56.5t128.5 -21.5q339 0 410 400l172 975h88l-174 -983q-14 -82 -38.5 -151t-65.5 -129.5t-95.5 -103t-130.5 -66.5t-168 -24q-405 0 -323 474zM537 1597l12 74h473l-14 -74h-471z" />
<glyph unicode="&#x16b;" horiz-adv-x="1013" d="M98 285l138 790h86l-140 -784q-42 -236 125 -236q65 0 150 39.5t141.5 80t103.5 81.5l146 819h84l-191 -1075h-84l29 160q-226 -183 -395 -183q-123 0 -170.5 85t-22.5 223zM383 1288l12 74h473l-14 -74h-471z" />
<glyph unicode="&#x16c;" horiz-adv-x="1198" d="M158 451l174 983h88l-172 -975q-13 -70 -16 -124.5t7 -108.5t36.5 -89t79 -56.5t128.5 -21.5q339 0 410 400l172 975h88l-174 -983q-14 -82 -38.5 -151t-65.5 -129.5t-95.5 -103t-130.5 -66.5t-168 -24q-405 0 -323 474zM584 1745h71q-9 -66 17 -94.5t92 -28.5 q154 0 176 123h76q-15 -92 -82.5 -145.5t-173.5 -53.5q-97 0 -145 54t-31 145z" />
<glyph unicode="&#x16d;" horiz-adv-x="1013" d="M98 285l138 790h86l-140 -784q-42 -236 125 -236q65 0 150 39.5t141.5 80t103.5 81.5l146 819h84l-191 -1075h-84l29 160q-226 -183 -395 -183q-123 0 -170.5 85t-22.5 223zM432 1436h72q-9 -67 17 -95t91 -28q154 0 176 123h76q-15 -92 -82.5 -145.5t-173.5 -53.5 q-97 0 -145 54t-31 145z" />
<glyph unicode="&#x16e;" horiz-adv-x="1198" d="M158 451l174 983h88l-172 -975q-13 -70 -16 -124.5t7 -108.5t36.5 -89t79 -56.5t128.5 -21.5q339 0 410 400l172 975h88l-174 -983q-14 -82 -38.5 -151t-65.5 -129.5t-95.5 -103t-130.5 -66.5t-168 -24q-405 0 -323 474zM606 1712q0 80 54 135.5t133 55.5t134.5 -55.5 t55.5 -135.5q0 -78 -55 -132t-135 -54q-79 0 -133 54t-54 132zM670 1712q0 -51 36 -86t87 -35q53 0 89 35t36 86q0 52 -36 88.5t-89 36.5q-51 0 -87 -36.5t-36 -88.5z" />
<glyph unicode="&#x16f;" horiz-adv-x="1013" d="M98 285l138 790h86l-140 -784q-42 -236 125 -236q65 0 150 39.5t141.5 80t103.5 81.5l146 819h84l-191 -1075h-84l29 160q-226 -183 -395 -183q-123 0 -170.5 85t-22.5 223zM455 1403q0 80 53.5 135t132.5 55t134.5 -55.5t55.5 -134.5q0 -78 -55 -132t-135 -54 q-79 0 -132.5 54t-53.5 132zM518 1403q0 -51 36 -86t87 -35q53 0 89 35t36 86q0 53 -36 89t-89 36q-51 0 -87 -36.5t-36 -88.5z" />
<glyph unicode="&#x170;" horiz-adv-x="1198" d="M158 451l174 983h88l-172 -975q-13 -70 -16 -124.5t7 -108.5t36.5 -89t79 -56.5t128.5 -21.5q339 0 410 400l172 975h88l-174 -983q-14 -82 -38.5 -151t-65.5 -129.5t-95.5 -103t-130.5 -66.5t-168 -24q-405 0 -323 474zM588 1546l162 256h139l-238 -256h-63zM817 1546 l162 256h139l-237 -256h-64z" />
<glyph unicode="&#x171;" horiz-adv-x="1013" d="M98 285l138 790h86l-140 -784q-42 -236 125 -236q65 0 150 39.5t141.5 80t103.5 81.5l146 819h84l-191 -1075h-84l29 160q-226 -183 -395 -183q-123 0 -170.5 85t-22.5 223zM434 1237l162 256h139l-237 -256h-64zM664 1237l161 256h140l-238 -256h-63z" />
<glyph unicode="&#x172;" horiz-adv-x="1198" d="M160 451l174 983h88l-172 -975q-13 -70 -16 -124.5t7 -108.5t36.5 -89t79 -56.5t128.5 -21.5q339 0 410 400l172 975h88l-174 -983q-65 -379 -344 -453q-111 -69 -157 -116t-46 -101q0 -15 4.5 -26.5t15.5 -18t20.5 -10.5t27.5 -5t27.5 -1.5t29.5 -0.5l-27 -77 q-21 0 -35.5 1t-38.5 4t-40 11.5t-32.5 21t-25 34t-8.5 50.5q0 119 160 213h-29q-405 0 -323 474z" />
<glyph unicode="&#x173;" horiz-adv-x="1013" d="M98 285l138 790h86l-140 -784q-42 -236 125 -236q65 0 150 39.5t141.5 80t103.5 81.5l146 819h84l-191 -1075h-6q-113 -68 -160 -116.5t-47 -102.5q0 -15 4.5 -26.5t15.5 -18t20.5 -10.5t27.5 -5t27.5 -1.5t29.5 -0.5l-26 -77q-21 0 -36 1t-38.5 4t-40 11.5t-33 21 t-25 34t-8.5 50.5q0 73 54 131t157 111l29 154q-226 -183 -395 -183q-123 0 -170.5 85t-22.5 223z" />
<glyph unicode="&#x174;" horiz-adv-x="1562" d="M221 1434h94l45 -1305l514 1305h97l43 -1313l506 1313h100l-571 -1434h-107l-45 1280l-502 -1280h-104zM723 1546l203 256h123l112 -256h-63l-117 191l-182 -191h-76z" />
<glyph unicode="&#x175;" horiz-adv-x="1351" d="M156 1075h88l61 -954l404 954h90l59 -952l397 952h95l-465 -1075h-88l-64 942l-401 -942h-90zM563 1237l203 256h123l112 -256h-63l-117 190l-182 -190h-76z" />
<glyph unicode="&#x177;" horiz-adv-x="921" d="M-41 -336q77 29 125 55.5t87 68t66.5 86.5t67.5 128l-160 1073h88l129 -958l472 958h98l-541 -1075q-88 -173 -122 -221q-57 -83 -147 -133q-55 -30 -145 -64zM350 1237l203 256h123l112 -256h-63l-117 190l-182 -190h-76z" />
<glyph unicode="&#x178;" horiz-adv-x="1046" d="M190 1434h91l239 -783l508 783h107l-580 -865l-100 -569h-88l98 565zM496 1567l28 159h109l-29 -159h-108zM764 1567l29 159h108l-29 -159h-108z" />
<glyph unicode="&#x179;" horiz-adv-x="1032" d="M-23 0l15 78l952 1274h-690l14 82h801l-14 -76l-953 -1276h740l-15 -82h-850zM578 1546l235 256h156l-312 -256h-79z" />
<glyph unicode="&#x17a;" horiz-adv-x="829" d="M-23 0l15 80l713 917h-537l16 78h635l-14 -80l-713 -917h553l-16 -78h-652zM412 1237l235 256h156l-311 -256h-80z" />
<glyph unicode="&#x17b;" horiz-adv-x="1032" d="M-23 0l15 78l952 1274h-690l14 82h801l-14 -76l-953 -1276h740l-15 -82h-850zM639 1567l29 159h110l-28 -159h-111z" />
<glyph unicode="&#x17c;" horiz-adv-x="829" d="M-23 0l15 80l713 917h-537l16 78h635l-14 -80l-713 -917h553l-16 -78h-652zM471 1257l29 160h110l-28 -160h-111z" />
<glyph unicode="&#x17d;" horiz-adv-x="1032" d="M-23 0l15 78l952 1274h-690l14 82h801l-14 -76l-953 -1276h740l-15 -82h-850zM512 1802h63l119 -190l183 190h73l-202 -256h-121z" />
<glyph unicode="&#x17e;" horiz-adv-x="829" d="M-23 0l15 80l713 917h-537l16 78h635l-14 -80l-713 -917h553l-16 -78h-652zM348 1493h64l118 -190l183 190h73l-202 -256h-121z" />
<glyph unicode="&#x17f;" horiz-adv-x="491" d="M-164 -342q80 28 121.5 49.5t69 66t37.5 84.5t28 142l174 1001h-121l17 74h119l36 211q20 112 63.5 159.5t125.5 47.5q89 0 242 -61l-43 -66q-35 14 -99.5 31.5t-97.5 17.5q-84 0 -107 -129l-225 -1286q-15 -87 -22.5 -125t-24.5 -89t-34 -71t-52 -48.5t-78 -45.5 t-112 -39z" />
<glyph unicode="&#x192;" horiz-adv-x="880" d="M-100 -418l524 1419h-125l33 74h119l77 209q46 123 95.5 166t119.5 43q57 0 127 -24t119 -50l-55 -59q-138 55 -191 55q-81 0 -127 -121l-81 -219h243l-30 -74h-240l-522 -1419h-86z" />
<glyph unicode="&#x1fc;" horiz-adv-x="1646" d="M-96 0l1057 1434h706l-16 -82h-604l-105 -594h504l-14 -82h-504l-107 -594h621l-17 -82h-706l69 395h-483l-285 -395h-116zM365 477h438l141 803zM950 1546l236 256h155l-311 -256h-80z" />
<glyph unicode="&#x1fd;" horiz-adv-x="1566" d="M90 324q0 213 55 389.5t155 280.5t224 104q147 0 297 -191l31 168h84l-16 -94q126 117 292 117q127 0 198 -69t71 -179q0 -167 -148 -270t-438 -103h-96q-2 -20 -2 -61q0 -176 57.5 -268.5t163.5 -92.5q27 0 56 5.5t58.5 18t52.5 23t52 29t43.5 28t40.5 28t29 20.5 l43 -66q-49 -34 -74.5 -50.5t-84 -49t-114.5 -48.5t-110 -16q-161 0 -242 146l-20 -123h-84l32 190q-186 -213 -362 -213q-102 0 -173 84.5t-71 262.5zM178 332q0 -130 42 -203.5t122 -73.5q51 0 101.5 19t99 56t86.5 73.5t86 89.5v8q-6 53 -6 117q0 235 94 409 q-138 193 -273 193q-78 0 -146 -61.5t-112 -160.5t-69 -221t-25 -245zM807 555h102q238 0 361 83.5t123 213.5q0 80 -53.5 124t-135.5 44q-146 0 -256.5 -127.5t-140.5 -337.5zM815 1237l236 256h155l-311 -256h-80z" />
<glyph unicode="&#x1fe;" horiz-adv-x="1267" d="M51 0l139 182q-55 116 -55 301q0 63 9.5 142t31.5 173t54.5 185.5t82.5 177.5t110.5 151t143 104.5t176.5 39.5q211 0 320 -133l84 111h92l-135 -177q61 -116 61 -307q0 -63 -9.5 -142t-31.5 -173t-54.5 -185.5t-82.5 -177.5t-110.5 -151t-143 -104.5t-176.5 -39.5 q-216 0 -326 140l-88 -117h-92zM225 483q0 -129 29 -217l752 983q-82 125 -263 125q-81 0 -152 -38.5t-122.5 -101t-94 -144.5t-69.5 -167t-45.5 -170.5t-26.5 -153t-8 -116.5zM289 190q81 -131 268 -131q81 0 152 38.5t122.5 101t94 144.5t69.5 167t45.5 170.5t26.5 153 t8 116.5q0 136 -33 226zM684 1546l236 256h155l-311 -256h-80z" />
<glyph unicode="&#x1ff;" horiz-adv-x="1021" d="M33 0l106 137q-49 88 -49 238q0 130 31.5 257t88.5 231.5t148.5 169.5t200.5 65q167 0 254 -103l64 80h90l-111 -141q49 -96 49 -234q0 -130 -31.5 -257t-88.5 -231.5t-148 -169.5t-199 -65q-167 0 -256 99l-59 -76h-90zM176 375q0 -91 23 -162l563 715q-68 92 -205 92 q-76 0 -140.5 -44.5t-108 -114.5t-74 -157t-44.5 -171t-14 -158zM236 143q64 -88 202 -88q76 0 140.5 44.5t108 114.5t74 157t44.5 171t14 158q0 87 -22 158zM508 1237l235 256h156l-311 -256h-80z" />
<glyph unicode="&#x218;" horiz-adv-x="1032" d="M27 133l59 72q189 -146 369 -146q142 0 240 84t98 224q0 51 -16 94.5t-38.5 75t-64 65t-75.5 54.5t-91 53q-52 30 -78 46.5t-67 45.5t-62 54t-44 60.5t-32.5 77t-9.5 90.5q0 115 56.5 201.5t147 129t199.5 42.5q188 0 383 -125l-55 -65q-73 47 -164 77.5t-170 30.5 q-126 0 -216.5 -77.5t-90.5 -213.5q0 -43 12 -78.5t29 -61t53.5 -54.5t68 -49t89.5 -54q47 -28 72 -43.5t65 -43.5t62 -49t49.5 -53.5t41.5 -64t24 -72.5t10 -87q0 -95 -37.5 -172.5t-99.5 -125t-137.5 -73t-155.5 -25.5q-118 0 -228 46t-196 110zM256 -483l98 180h-53 l29 166h108l-14 -166l-135 -217z" />
<glyph unicode="&#x219;" horiz-adv-x="860" d="M12 111l56 61q164 -117 297 -117q46 0 89.5 13.5t80.5 40t59 71t22 99.5q0 44 -14.5 78t-47.5 61.5t-62 44.5t-83 45q-11 5 -16 8q-34 18 -52 27.5t-48.5 28.5t-47 34t-37.5 38t-31.5 46.5t-18.5 54.5t-8 66q0 134 94 210.5t227 76.5q89 0 174.5 -34t145.5 -79l-54 -61 q-136 96 -266 96q-97 0 -166 -54t-69 -149q0 -26 7 -50t14.5 -41t27 -36t29.5 -28t37.5 -25t35.5 -20t39 -19l12 -6q69 -34 113 -62t81.5 -65t55 -82t17.5 -102q0 -98 -50.5 -169t-124.5 -103t-161 -32q-172 0 -357 134zM170 -483l98 180h-53l29 166h108l-14 -166l-135 -217 z" />
<glyph unicode="&#x21a;" horiz-adv-x="942" d="M178 1352l15 82h843l-14 -82h-379l-240 -1352h-88l240 1352h-377zM209 -483l98 180h-53l29 166h108l-14 -166l-135 -217z" />
<glyph unicode="&#x21b;" horiz-adv-x="610" d="M25 -483l98 180h-53l28 166h109l-14 -166l-136 -217zM113.5 86q-5.5 43 3.5 111l143 804h-125l15 74h122l50 273l90 38l-56 -311h242l-14 -74h-242l-143 -823q-21 -123 63 -123q50 0 184 62l27 -72q-140 -68 -221 -68q-32 0 -58 9t-50.5 33t-30 67z" />
<glyph unicode="&#x2b0;" horiz-adv-x="681" d="M145 788l158 895h76l-60 -340q147 105 240 105q79 0 110 -53t15 -140l-82 -467h-76l82 461q22 133 -71 133q-56 0 -121 -36t-111 -78l-84 -480h-76z" />
<glyph unicode="&#x2b2;" horiz-adv-x="305" d="M-14 596q50 17 77 30t42.5 32.5t20.5 36t11 53.5l121 686h76l-121 -682q-7 -39 -11 -57t-13.5 -43.5t-22 -38t-35 -28.5t-53 -28t-76.5 -25zM281 1573l18 108h82l-19 -108h-81z" />
<glyph unicode="&#x2b7;" horiz-adv-x="868" d="M193 1434h77l35 -551l238 551h69l37 -549l232 549h82l-287 -646h-74l-41 537l-235 -537h-74z" />
<glyph unicode="&#x2b8;" horiz-adv-x="598" d="M82 600q87 32 125.5 66t81.5 118l-103 650h78l78 -547l272 547h86l-333 -646q-25 -48 -36 -69t-31 -52t-35 -44.5t-40.5 -32.5t-55 -31.5t-71.5 -26.5z" />
<glyph unicode="&#x2c6;" horiz-adv-x="446" d="M223 1237l203 256h123l113 -256h-64l-117 190l-182 -190h-76z" />
<glyph unicode="&#x2c7;" horiz-adv-x="448" d="M270 1493h64l119 -190l182 190h74l-203 -256h-121z" />
<glyph unicode="&#x2d8;" horiz-adv-x="440" d="M260 1436h72q-9 -67 17 -95t91 -28q154 0 176 123h76q-15 -92 -82.5 -145.5t-173.5 -53.5q-97 0 -145 54t-31 145z" />
<glyph unicode="&#x2d9;" horiz-adv-x="120" d="M227 1257l29 160h111l-29 -160h-111z" />
<glyph unicode="&#x2da;" horiz-adv-x="405" d="M141 1403q0 80 54 135t133 55q80 0 135 -55.5t55 -134.5q0 -78 -55 -132t-135 -54q-79 0 -133 54t-54 132zM205 1403q0 -51 36 -86t87 -35q53 0 89 35t36 86q0 53 -36.5 89t-88.5 36q-51 0 -87 -36.5t-36 -88.5z" />
<glyph unicode="&#x2db;" horiz-adv-x="243" d="M-45 -236q0 78 62 139t182 120l49 -21q-116 -69 -163.5 -118t-47.5 -103q0 -15 4.5 -26.5t15.5 -18t20.5 -10.5t27.5 -5t27.5 -1.5t29.5 -0.5l-27 -77q-21 0 -35.5 1t-38.5 4t-40 11.5t-32.5 21t-25 34t-8.5 50.5z" />
<glyph unicode="&#x2dc;" horiz-adv-x="481" d="M236 1300q43 73 75.5 103.5t75.5 30.5q29 0 56.5 -16t45.5 -34.5t39.5 -34.5t40.5 -16q21 0 42 18.5t57 75.5l53 -36q-44 -73 -77.5 -103.5t-76.5 -30.5q-29 0 -57 16t-46 34.5t-39.5 34.5t-39.5 16q-22 0 -42 -17t-56 -75z" />
<glyph unicode="&#x2dd;" horiz-adv-x="495" d="M223 1237l162 256h139l-237 -256h-64zM453 1237l161 256h140l-238 -256h-63z" />
<glyph unicode="&#x2e3;" horiz-adv-x="638" d="M78 788l289 326l-164 320h82l125 -269l221 269h98l-278 -322l174 -324h-82l-137 275l-230 -275h-98z" />
<glyph unicode="&#x3c0;" horiz-adv-x="925" d="M96 0l176 993h-147l16 82h799l-16 -82h-152l-174 -993h-88l176 993h-326l-176 -993h-88z" />
<glyph unicode="&#x1e80;" horiz-adv-x="1562" d="M221 1434h94l45 -1305l514 1305h97l43 -1313l506 1313h100l-571 -1434h-107l-45 1280l-502 -1280h-104zM750 1802h135l166 -256h-68z" />
<glyph unicode="&#x1e81;" horiz-adv-x="1351" d="M156 1075h88l61 -954l404 954h90l59 -952l397 952h95l-465 -1075h-88l-64 942l-401 -942h-90zM592 1493h135l166 -256h-68z" />
<glyph unicode="&#x1e82;" horiz-adv-x="1562" d="M221 1434h94l45 -1305l514 1305h97l43 -1313l506 1313h100l-571 -1434h-107l-45 1280l-502 -1280h-104zM829 1546l236 256h156l-312 -256h-80z" />
<glyph unicode="&#x1e83;" horiz-adv-x="1351" d="M156 1075h88l61 -954l404 954h90l59 -952l397 952h95l-465 -1075h-88l-64 942l-401 -942h-90zM674 1237l235 256h156l-311 -256h-80z" />
<glyph unicode="&#x1e84;" horiz-adv-x="1562" d="M221 1434h94l45 -1305l514 1305h97l43 -1313l506 1313h100l-571 -1434h-107l-45 1280l-502 -1280h-104zM752 1542l28 160h109l-29 -160h-108zM1020 1542l29 160h108l-29 -160h-108z" />
<glyph unicode="&#x1e85;" horiz-adv-x="1351" d="M156 1075h88l61 -954l404 954h90l59 -952l397 952h95l-465 -1075h-88l-64 942l-401 -942h-90zM600 1257l29 160h108l-28 -160h-109zM868 1257l29 160h109l-29 -160h-109z" />
<glyph unicode="&#x1e9e;" horiz-adv-x="1335" d="M88 0l176 1001q78 433 412 433h549l-13 -70l-464 -526q102 -5 183.5 -33t133 -70t85.5 -96t48 -107t14 -108q0 -77 -28.5 -154t-83 -143.5t-145.5 -108t-203 -41.5q-202 0 -394 129l54 70q178 -117 336 -117q93 0 167.5 33.5t118.5 87.5t67 117.5t23 128.5q0 45 -10 87 t-38.5 88t-73.5 79.5t-121 55.5t-174 22h-89l13 71l463 523h-418q-260 0 -324 -355l-176 -997h-88z" />
<glyph unicode="&#x1ef2;" horiz-adv-x="1046" d="M190 1434h91l239 -783l508 783h107l-580 -865l-100 -569h-88l98 565zM492 1802h135l166 -256h-68z" />
<glyph unicode="&#x1ef3;" horiz-adv-x="921" d="M-41 -336q77 29 125 55.5t87 68t66.5 86.5t67.5 128l-160 1073h88l129 -958l472 958h98l-541 -1075q-88 -173 -122 -221q-57 -83 -147 -133q-55 -30 -145 -64zM377 1493h135l166 -256h-68z" />
<glyph unicode="&#x2000;" horiz-adv-x="951" />
<glyph unicode="&#x2001;" horiz-adv-x="1903" />
<glyph unicode="&#x2002;" horiz-adv-x="951" />
<glyph unicode="&#x2003;" horiz-adv-x="1903" />
<glyph unicode="&#x2004;" horiz-adv-x="634" />
<glyph unicode="&#x2005;" horiz-adv-x="475" />
<glyph unicode="&#x2006;" horiz-adv-x="317" />
<glyph unicode="&#x2007;" horiz-adv-x="317" />
<glyph unicode="&#x2008;" horiz-adv-x="237" />
<glyph unicode="&#x2009;" horiz-adv-x="380" />
<glyph unicode="&#x200a;" horiz-adv-x="105" />
<glyph unicode="&#x2010;" horiz-adv-x="753" d="M141 541l15 86h444l-14 -86h-445z" />
<glyph unicode="&#x2011;" horiz-adv-x="753" d="M141 541l15 86h444l-14 -86h-445z" />
<glyph unicode="&#x2012;" horiz-adv-x="753" d="M141 541l15 86h444l-14 -86h-445z" />
<glyph unicode="&#x2013;" horiz-adv-x="972" d="M141 541l15 86h663l-14 -86h-664z" />
<glyph unicode="&#x2014;" horiz-adv-x="1142" d="M141 541l15 86h833l-14 -86h-834z" />
<glyph unicode="&#x2018;" horiz-adv-x="407" d="M219 1047l17 186l145 237l31 -36l-101 -201h54l-33 -186h-113z" />
<glyph unicode="&#x2019;" horiz-adv-x="397" d="M209 1047l100 200h-53l33 187h112l-16 -187l-145 -237z" />
<glyph unicode="&#x201a;" horiz-adv-x="423" d="M2 -201l100 201h-53l33 186h113l-17 -186l-145 -238z" />
<glyph unicode="&#x201c;" horiz-adv-x="675" d="M219 1047l17 186l145 237l31 -36l-101 -201h54l-33 -186h-113zM489 1047l17 186l145 237l31 -36l-100 -201h53l-33 -186h-113z" />
<glyph unicode="&#x201d;" horiz-adv-x="665" d="M209 1047l100 200h-53l33 187h112l-16 -187l-145 -237zM479 1047l101 200h-54l33 187h113l-17 -187l-145 -237z" />
<glyph unicode="&#x201e;" horiz-adv-x="694" d="M2 -201l100 201h-53l33 186h113l-17 -186l-145 -238zM272 -201l101 201h-54l33 186h113l-16 -186l-146 -238z" />
<glyph unicode="&#x2020;" horiz-adv-x="952" d="M100 838l17 90l372 -13l93 519h73l-92 -521l381 15l-16 -90l-377 12l-223 -1268h-74l223 1268z" />
<glyph unicode="&#x2021;" horiz-adv-x="1050" d="M57 301l17 90l370 -14l84 473l-376 -12l16 90l373 -15l92 521h74l-93 -521l381 15l-16 -90l-377 12l-84 -473l383 14l-16 -90l-377 12l-129 -731h-74l129 731z" />
<glyph unicode="&#x2022;" horiz-adv-x="817" d="M178 584q0 92 65.5 157.5t157.5 65.5t158 -65.5t66 -157.5t-66 -158t-158 -66t-157.5 66t-65.5 158z" />
<glyph unicode="&#x2026;" horiz-adv-x="1030" d="M49 0l33 186h115l-33 -186h-115zM354 0l33 186h115l-33 -186h-115zM659 0l33 186h115l-33 -186h-115z" />
<glyph unicode="&#x202f;" horiz-adv-x="380" />
<glyph unicode="&#x2030;" horiz-adv-x="2353" d="M164 987q0 85 22 167t62.5 150t105.5 110t144 42q123 0 195.5 -75.5t72.5 -223.5q0 -85 -21.5 -167t-61 -150t-104.5 -110t-145 -42q-123 0 -196.5 76t-73.5 223zM250 979q0 -219 188 -219q61 0 110 39.5t77.5 102t43.5 130.5t15 133q0 219 -188 219q-61 0 -110 -39.5 t-77.5 -102t-43.5 -130.5t-15 -133zM371 0l866 1434h86l-866 -1434h-86zM928 276q0 115 36 219.5t114 177t182 72.5q124 0 197 -75.5t73 -223.5q0 -85 -21.5 -167t-61 -150t-104.5 -110t-145 -42q-123 0 -196.5 76t-73.5 223zM1012 268q0 -113 47.5 -166t142.5 -53 q60 0 108.5 40t77 102t43.5 130.5t15 133.5q0 219 -186 219q-61 0 -110 -40t-78 -102t-44.5 -130.5t-15.5 -133.5zM1620 276q0 115 36 219.5t114 177t182 72.5q124 0 197 -75.5t73 -223.5q0 -85 -21.5 -167t-61 -150t-104.5 -110t-145 -42q-123 0 -196.5 76t-73.5 223z M1704 268q0 -219 188 -219q61 0 110 40t77.5 102t43.5 130.5t15 133.5q0 219 -186 219q-61 0 -110 -40t-78 -102t-44.5 -130.5t-15.5 -133.5z" />
<glyph unicode="&#x2039;" horiz-adv-x="706" d="M68 551l12 65l588 467l-21 -116l-493 -394l356 -391l-16 -98z" />
<glyph unicode="&#x203a;" horiz-adv-x="704" d="M27 84l20 117l494 393l-357 391l17 98l426 -467l-13 -65z" />
<glyph unicode="&#x2044;" horiz-adv-x="235" d="M-307 0l807 1434h80l-807 -1434h-80z" />
<glyph unicode="&#x205f;" horiz-adv-x="475" />
<glyph unicode="&#x2070;" horiz-adv-x="747" d="M190 1053q0 46 8 105t24 129t45 135.5t66.5 120t92.5 87.5t119 33q221 0 221 -279q0 -46 -8 -105t-24 -129t-44.5 -135.5t-65.5 -120t-91.5 -87.5t-118.5 -33q-111 0 -167.5 71.5t-56.5 207.5zM270 1049q0 -43 5 -75.5t19 -64.5t44.5 -49.5t75.5 -17.5q59 0 108.5 46 t79 112t50 145t28.5 141t8 103q0 34 -2.5 60.5t-11.5 55t-24.5 47.5t-42 31t-62.5 12q-59 0 -108.5 -45.5t-79 -112t-50.5 -145t-29 -140.5t-8 -103z" />
<glyph unicode="&#x2074;" horiz-adv-x="700" d="M129 987l10 64l461 598h102l-106 -592h113l-13 -70h-112l-35 -199h-76l35 199h-379zM225 1057h295l88 502z" />
<glyph unicode="&#x2075;" horiz-adv-x="657" d="M123 864l45 56q95 -74 178 -74q85 0 154 66.5t69 177.5q0 77 -38 123.5t-107 46.5q-68 0 -164 -58l-41 25l113 422h387l-12 -70h-324l-70 -283q68 33 129 33q96 0 151.5 -66.5t55.5 -170.5q0 -132 -82.5 -225t-216.5 -93q-53 0 -102.5 17.5t-71.5 32.5t-53 40z" />
<glyph unicode="&#x2076;" horiz-adv-x="698" d="M182 1061q0 159 62 297.5t169 221.5t230 83q28 0 54.5 -4.5t38.5 -8.5l12 -5l-29 -64q-31 12 -74 12q-120 0 -220 -101.5t-142 -254.5q89 100 206 100q100 0 154.5 -69t54.5 -166q0 -82 -32 -156t-97.5 -123t-150.5 -49q-59 0 -105 24.5t-74 65.5t-42.5 91.5t-14.5 105.5 zM260 1061q0 -89 40.5 -153t115.5 -64q93 0 149 77t56 181q0 68 -37.5 118t-108.5 50q-68 0 -127 -46t-84 -96q-4 -46 -4 -67z" />
<glyph unicode="&#x2077;" horiz-adv-x="575" d="M201 788q16 88 49 183t79 183t83.5 154t87 136t62.5 87.5t36 47.5h-373l13 70h464l-10 -60q-14 -16 -37 -45.5t-84.5 -119.5t-112.5 -180.5t-102 -216.5t-71 -239h-84z" />
<glyph unicode="&#x2078;" horiz-adv-x="704" d="M152 979q0 44 15.5 83.5t38.5 67t57 53t62.5 41t63.5 31.5q-110 68 -110 183q0 99 72.5 162t178.5 63q93 0 147 -51t54 -129q0 -150 -192 -236q153 -83 153 -219q0 -112 -89.5 -183t-213.5 -71q-107 0 -172 54t-65 151zM231 981q0 -68 43.5 -103.5t112.5 -35.5 q90 0 157.5 52t67.5 134q0 65 -41 108.5t-108 80.5q-50 -21 -84.5 -39.5t-72 -47.5t-56.5 -66.5t-19 -82.5zM354 1434q0 -91 111 -148q188 73 188 191q0 51 -34.5 84.5t-92.5 33.5q-72 0 -122 -47.5t-50 -113.5z" />
<glyph unicode="&#x2079;" horiz-adv-x="698" d="M162 793l31 63q30 -12 73 -12q120 0 220 101.5t141 254.5q-32 -38 -85 -69t-122 -31q-99 0 -153 69t-54 166q0 61 19.5 119t54 105t89 75.5t118.5 28.5q114 0 173.5 -85t59.5 -204q0 -157 -62 -295.5t-169 -221.5t-230 -83q-27 0 -53 5t-39 9zM291 1335q0 -68 36.5 -118 t106.5 -50q69 0 129.5 47.5t83.5 96.5q4 23 4 65q0 89 -40 153t-115 64q-91 0 -148 -77.5t-57 -180.5z" />
<glyph unicode="&#x207a;" horiz-adv-x="677" d="M176 1165l10 66h230l41 227h63l-41 -227h230l-11 -66h-231l-39 -227h-63l38 227h-227z" />
<glyph unicode="&#x207d;" horiz-adv-x="382" d="M150.5 728.5q-2.5 37.5 7.5 92.5l139 791q7 40 13 62t19.5 46t35 39t55.5 30t86 30l16 -60q-86 -30 -111 -56.5t-36 -92.5l-139 -787q-15 -76 -3 -99.5t86 -53.5l-24 -58q-77 25 -109.5 52t-35 64.5z" />
<glyph unicode="&#x207e;" horiz-adv-x="382" d="M72 672q86 30 111 56.5t36 92.5l139 787q15 76 2.5 99.5t-86.5 53.5l25 58q77 -25 109.5 -52t35 -64.5t-7.5 -92.5l-139 -791q-7 -40 -13 -62t-19.5 -46t-35 -39t-55.5 -30t-86 -30z" />
<glyph unicode="&#x207f;" horiz-adv-x="681" d="M145 788l115 646h76l-17 -91q139 105 240 105q79 0 110 -53t15 -140l-82 -467h-76l82 461q10 62 -3.5 97.5t-67.5 35.5q-56 0 -121 -36t-111 -78l-84 -480h-76z" />
<glyph unicode="&#x2080;" horiz-adv-x="747" d="M-2 -43q0 57 10.5 130t37.5 159t65.5 156.5t101.5 117.5t139 47q221 0 221 -278q0 -57 -10.5 -130t-37 -159t-65 -156.5t-101 -118t-138.5 -47.5q-111 0 -167 71.5t-56 207.5zM78 -47q0 -44 5 -76t18.5 -64t44 -49.5t75.5 -17.5q59 0 108.5 45.5t79 112.5t50.5 145.5 t29 140.5t8 103q0 43 -5.5 75.5t-19.5 64.5t-44 49.5t-75 17.5q-59 0 -108.5 -46t-79 -112t-50 -145t-28.5 -141t-8 -103z" />
<glyph unicode="&#x2081;" horiz-adv-x="483" d="M18 444l191 109h70l-152 -860h-78l135 770l-137 -78z" />
<glyph unicode="&#x2082;" horiz-adv-x="655" d="M-80 -307l10 63q11 65 35.5 116.5t63.5 91.5t75.5 68.5t92.5 66.5q20 13 30 20q107 77 160 135t53 127q0 52 -33.5 83.5t-97.5 31.5q-101 0 -200 -70l-31 59q117 82 237 82q93 0 149 -48.5t56 -137.5q0 -31 -9 -61.5t-20 -54t-35.5 -51.5t-40.5 -44.5t-51 -44t-51 -39 t-56 -39t-52 -35.5q-87 -62 -129 -115.5t-56 -134.5h394l-13 -69h-481z" />
<glyph unicode="&#x2083;" horiz-adv-x="663" d="M-82 -238l45 58q100 -70 197 -70q94 0 155.5 57.5t61.5 143.5q0 87 -61 132.5t-150 45.5h-27l13 74h34q86 0 159 57t73 133q0 49 -33.5 76t-89.5 27q-92 0 -189 -64l-28 57q122 78 229 78q88 0 139.5 -47.5t51.5 -118.5q0 -69 -49.5 -135t-147.5 -102q67 -16 111.5 -74.5 t44.5 -140.5q0 -110 -79 -190.5t-216 -80.5q-125 0 -244 84z" />
<glyph unicode="&#x2084;" horiz-adv-x="698" d="M-63 -109l10 64l461 598h102l-107 -592h113l-12 -70h-113l-35 -198h-75l34 198h-378zM33 -39h295l88 502z" />
<glyph unicode="&#x2085;" horiz-adv-x="657" d="M-70 -231l45 55q95 -74 179 -74q85 0 154 66.5t69 177.5q0 77 -38.5 123.5t-107.5 46.5q-33 0 -69.5 -12t-50.5 -20t-43 -26l-41 25l112 422h387l-12 -70h-324l-69 -282q66 32 129 32q96 0 151.5 -66.5t55.5 -170.5q0 -132 -82.5 -225t-216.5 -93q-53 0 -102.5 18t-72 33 t-53.5 40z" />
<glyph unicode="&#x2086;" horiz-adv-x="700" d="M-10 -35q0 159 62 297.5t169 221.5t230 83q28 0 54 -4.5t38 -8.5l12 -5l-29 -64q-30 13 -73 13q-120 0 -220.5 -102t-142.5 -255q89 101 207 101q100 0 154.5 -69.5t54.5 -166.5q0 -61 -19.5 -119t-54 -105t-89 -75.5t-118.5 -28.5q-77 0 -132 43t-79 106t-24 138z M68 -35q0 -89 40 -153t115 -64q93 0 149 77t56 181q0 68 -37 118t-108 50q-68 0 -127.5 -45.5t-83.5 -95.5q-4 -46 -4 -68z" />
<glyph unicode="&#x2087;" horiz-adv-x="575" d="M8 -307q64 361 395 785l1.5 3t1.5 2h-373l12 70h465l-10 -59q-14 -16 -37 -45.5t-84.5 -119.5t-113 -180.5t-102.5 -216.5t-71 -239h-84z" />
<glyph unicode="&#x2088;" horiz-adv-x="704" d="M-41 -117q0 55 22 101t61 79.5t74.5 55t80.5 41.5q-111 69 -111 182q0 99 73 162t179 63q93 0 147 -51t54 -129q0 -148 -193 -235q154 -83 154 -220q0 -112 -89.5 -183t-213.5 -71q-107 0 -172.5 54t-65.5 151zM39 -115q0 -68 43.5 -103.5t112.5 -35.5q90 0 157.5 52 t67.5 134q0 65 -41 108.5t-109 80.5q-50 -21 -84.5 -39.5t-71.5 -47.5t-56 -66.5t-19 -82.5zM162 338q0 -92 110 -148q189 73 189 191q0 51 -34.5 85t-92.5 34q-72 0 -122 -48t-50 -114z" />
<glyph unicode="&#x2089;" horiz-adv-x="698" d="M-31 -303l31 63q31 -12 74 -12q120 0 219.5 101.5t140.5 254.5q-32 -38 -85 -69t-122 -31q-98 0 -152.5 69.5t-54.5 166.5q0 82 32 155.5t98 122.5t151 49q114 0 174 -84.5t60 -203.5q0 -157 -62 -296t-169 -222t-230 -83q-27 0 -53.5 5t-38.5 9zM98 240q0 -68 37 -118 t107 -50q69 0 129.5 47t83.5 96q4 23 4 66q0 89 -40.5 153t-115.5 64q-91 0 -148 -77.5t-57 -180.5z" />
<glyph unicode="&#x208a;" horiz-adv-x="675" d="M-18 70l10 65h229l41 227h64l-41 -227h229l-10 -65h-232l-39 -228h-63l39 228h-227z" />
<glyph unicode="&#x208d;" horiz-adv-x="385" d="M-42.5 -366.5q-2.5 37.5 7.5 92.5l139 790q7 40 13 62t19.5 46t35 39t55.5 30t86 30l17 -59q-86 -30 -111.5 -57t-36.5 -93l-139 -786q-15 -76 -2.5 -100t86.5 -54l-25 -57q-77 25 -109.5 52t-35 64.5z" />
<glyph unicode="&#x208e;" horiz-adv-x="380" d="M-123 -424q86 30 111.5 57t36.5 93l139 786q15 76 2.5 100t-86.5 54l24 57q77 -25 110 -52t35.5 -64.5t-7.5 -92.5l-140 -790q-9 -50 -17 -75t-29.5 -52t-59.5 -44.5t-102 -35.5z" />
<glyph unicode="&#x20a1;" horiz-adv-x="958" d="M139 578q0 128 27 242t72.5 196t105 142t124.5 90t130 30q19 0 37 -2l57 158h72l-64 -174q25 -7 62 -27l72 201h69l-86 -236q37 -26 111 -94l-58 -53q-32 32 -79 71l-320 -884q20 3 42.5 10.5t41 15t41 20t37.5 21t36 23t30 20.5t27 19t19 14l43 -68q-2 -1 -39.5 -26 t-53 -34.5t-54 -31t-65.5 -32t-64 -20.5t-70 -11l-57 -158h-72l60 164q-41 7 -64 20l-67 -184h-70l82 227q-115 112 -115 351zM227 582q0 -176 60 -267l319 885h-2q-69 0 -136.5 -45.5t-121 -125t-86.5 -197t-33 -250.5zM338 264q31 -21 61 -26l336 923q-28 15 -61 27z" />
<glyph unicode="&#x20a4;" horiz-adv-x="940" d="M29 0l12 72q7 6 18.5 17t45 47.5t63.5 74.5t65 95.5t58 113.5h-170l14 82h184q19 78 19 131q0 23 -2 33h-172l14 82h148q-8 36 -27 100t-30 118t-11 107q0 169 101.5 276t263.5 107q24 0 47 -2t47 -9t40.5 -11t40.5 -16.5t34.5 -17t35.5 -20.5t30 -19t32 -21l26 -19 l-59 -64q-165 117 -276 117q-118 0 -197.5 -85.5t-79.5 -217.5q0 -55 11.5 -108t30 -115t26.5 -100h309l-14 -82h-285q2 -10 2 -33q0 -59 -14 -131h268l-14 -82h-279q-22 -60 -53 -116t-69 -103.5t-56 -67.5t-47 -51h557l-15 -82h-673z" />
<glyph unicode="&#x20a7;" horiz-adv-x="1126" d="M96 0l172 973h-51l12 74h52l69 387h357q65 0 120 -10.5t103.5 -35t82 -62.5t53 -95.5t19.5 -130.5q0 -37 -2 -53h41l-12 -74h-39q-37 -191 -178.5 -287t-345.5 -96h-258l-107 -590h-88zM305 672h254q154 0 268.5 75.5t151.5 225.5h-623zM371 1047h620q2 16 2 51 q0 131 -76.5 192.5t-207.5 61.5h-285z" />
<glyph unicode="&#x20a9;" horiz-adv-x="1703" d="M102 487l15 78h217l-12 279h-156l14 78h137l-24 512h94l19 -512h339l201 512h96l17 -512h334l198 512h101l-205 -512h141l-14 -78h-158l-110 -279h219l-15 -78h-235l-195 -487h-106l-45 1280l-502 -1280h-105l-24 487h-236zM408 844l10 -279h186l111 279h-307zM422 487 l12 -358l139 358h-151zM1061 844l10 -279h184l109 279h-303zM1073 487l12 -366l142 366h-154z" />
<glyph unicode="&#x20ac;" horiz-adv-x="1191" d="M88 494l14 77h101q6 138 35 279h-86l12 78h92q72 245 219.5 386.5t319.5 141.5q61 0 117.5 -18.5t108 -55.5t85 -67.5t80.5 -79.5l-62 -55q-96 101 -171 147.5t-158 46.5q-138 0 -257.5 -120.5t-183.5 -325.5h533l-13 -78h-542q-31 -134 -37 -279h530l-14 -77h-516 q3 -222 72.5 -328.5t181.5 -106.5q158 0 401 199l51 -68q-132 -98 -242.5 -155.5t-219.5 -57.5q-70 0 -128 29t-105 88.5t-74 161.5t-29 238h-115z" />
<glyph unicode="&#x2116;" horiz-adv-x="1878" d="M96 0l254 1434h94l435 -1284l227 1284h88l-254 -1434h-92l-436 1286l-228 -1286h-88zM1190 408l14 71h475l-14 -71h-475zM1233 897q0 59 12 126t39 137.5t65.5 126.5t97.5 92t128 36q119 0 190.5 -72.5t71.5 -216.5q0 -59 -12 -126t-39 -137.5t-65 -126.5t-97 -92 t-129 -36q-119 0 -190.5 73t-71.5 216zM1309 897q0 -215 188 -215q54 0 99.5 33t74.5 83t49.5 111.5t29.5 116.5t9 100q0 215 -188 215q-53 0 -98.5 -33t-74.5 -83t-50 -111.5t-30 -117t-9 -99.5z" />
<glyph unicode="&#x2117;" horiz-adv-x="1716" d="M145 641q0 131 32.5 251.5t98.5 223t158.5 178.5t219 119t274.5 43q206 0 360.5 -84.5t235 -234.5t80.5 -344q0 -131 -32.5 -251.5t-98.5 -223.5t-158.5 -179t-220 -119t-275.5 -43q-309 0 -491.5 184t-182.5 480zM221 643q0 -262 162.5 -427t443.5 -165q161 0 294.5 59 t221.5 160t136.5 235.5t48.5 285.5q0 128 -41.5 236.5t-117.5 187t-191 123t-256 44.5q-161 0 -294.5 -58.5t-221.5 -159.5t-136.5 -235.5t-48.5 -285.5zM573 285l152 862h285q117 0 185.5 -56.5t68.5 -168.5q0 -148 -95.5 -224.5t-253.5 -76.5h-194l-57 -336h-91zM735 698 h197q102 0 172 62t70 162q0 75 -47.5 112t-129.5 37h-196z" />
<glyph unicode="&#x2120;" horiz-adv-x="1144" d="M217 1028l37 49q82 -51 147 -51q40 0 72.5 19t32.5 51q0 10 -3 18.5t-11 16t-14 13t-20.5 12t-22 10t-26 11.5t-26.5 11q-50 24 -78.5 51.5t-28.5 73.5q0 58 46 93.5t116 35.5q84 0 170 -51l-37 -45q-79 36 -131 36q-40 0 -67 -17t-27 -48q0 -12 4.5 -21.5t18 -18.5 t22.5 -14t33 -15t35 -15q35 -17 57 -31t40.5 -40.5t18.5 -59.5q0 -62 -51 -98.5t-123 -36.5q-91 0 -184 61zM618 975l82 459h70l84 -306l197 306h69l-80 -459h-67l57 332l-166 -256h-43l-73 268l-62 -344h-68z" />
<glyph unicode="&#x2122;" horiz-adv-x="1132" d="M266 1372l10 62h340l-10 -62h-137l-70 -397h-67l69 397h-135zM604 975l82 459h70l84 -306l196 306h70l-80 -459h-68l60 334l-166 -258h-45l-74 272l-61 -348h-68z" />
<glyph unicode="&#x2126;" horiz-adv-x="1267" d="M74 0l14 82h209q-30 24 -52 48.5t-48.5 67.5t-41 107t-14.5 144q0 76 9.5 163t31.5 185.5t54.5 191t83 178t112 149.5t145.5 102t181 38q91 0 163.5 -26t128 -81t85.5 -146t30 -214q0 -187 -53.5 -381t-141 -336.5t-184.5 -189.5h201l-14 -82h-350l14 76 q100 33 185.5 133.5t139 233t83.5 277t30 275.5q0 189 -82 284t-237 95q-89 0 -164.5 -39.5t-127.5 -103.5t-94 -149.5t-67 -173t-41.5 -179.5t-22.5 -163t-6 -128q0 -149 54 -234.5t149 -127.5l-12 -76h-350z" />
<glyph unicode="&#x2153;" horiz-adv-x="1345" d="M152 0l806 1434h80l-807 -1434h-79zM186 1325l191 109h69l-151 -861h-78l135 770l-137 -77zM651 70l45 57q100 -70 197 -70q94 0 155.5 57.5t61.5 143.5q0 87 -61 132.5t-150 45.5h-27l13 74h35q86 0 158.5 57t72.5 133q0 49 -33.5 76t-89.5 27q-91 0 -188 -64l-29 58 q120 77 229 77q88 0 139.5 -47t51.5 -118q0 -69 -49.5 -135.5t-147.5 -102.5q67 -16 111.5 -74.5t44.5 -140.5q0 -110 -79 -190t-216 -80q-125 0 -244 84z" />
<glyph unicode="&#x2154;" horiz-adv-x="1583" d="M102 573l11 64q5 29 13.5 55.5t16 47.5t23.5 43.5t25 37t31.5 35.5t31.5 30t37.5 30t37 27t41 28.5t40.5 27.5q106 76 159.5 135t53.5 128q0 51 -33.5 82.5t-97.5 31.5q-103 0 -201 -69l-31 59q117 82 238 82q93 0 148.5 -48.5t55.5 -137.5q0 -31 -9 -61.5t-20 -54 t-35.5 -51.5t-40.5 -44.5t-51 -44t-51 -39t-56 -39t-52 -35.5q-86 -62 -128 -115.5t-56 -134.5h393l-12 -70h-482zM391 0l807 1434h80l-807 -1434h-80zM887 70l45 57q100 -70 196 -70q94 0 156 57.5t62 143.5q0 87 -61 132.5t-150 45.5h-27l12 74h35q86 0 158.5 57t72.5 133 q0 49 -33 76t-89 27q-92 0 -189 -64l-28 58q120 77 229 77q88 0 139 -47t51 -118q0 -70 -49 -136t-147 -102q67 -16 111 -74.5t44 -140.5q0 -110 -79 -190t-216 -80q-124 0 -243 84z" />
<glyph unicode="&#x2155;" horiz-adv-x="1355" d="M152 0l806 1434h80l-807 -1434h-79zM186 1325l191 109h69l-151 -861h-78l135 770l-137 -77zM659 76l46 55q95 -74 178 -74q85 0 154 66.5t69 177.5q0 77 -38 123.5t-107 46.5q-70 0 -164 -57l-41 24l112 422h387l-12 -69h-323l-70 -283q68 33 129 33q96 0 151.5 -67 t55.5 -171q0 -132 -82.5 -224.5t-216.5 -92.5q-53 0 -102.5 17.5t-72.5 33t-53 39.5z" />
<glyph unicode="&#x2156;" horiz-adv-x="1595" d="M102 573l11 64q5 29 13.5 55.5t16 47.5t23.5 43.5t25 37t31.5 35.5t31.5 30t37.5 30t37 27t41 28.5t40.5 27.5q106 76 159.5 135t53.5 128q0 51 -33.5 82.5t-97.5 31.5q-103 0 -201 -69l-31 59q117 82 238 82q93 0 148.5 -48.5t55.5 -137.5q0 -31 -9 -61.5t-20 -54 t-35.5 -51.5t-40.5 -44.5t-51 -44t-51 -39t-56 -39t-52 -35.5q-86 -62 -128 -115.5t-56 -134.5h393l-12 -70h-482zM391 0l807 1434h80l-807 -1434h-80zM899 76l45 55q95 -74 178 -74q86 0 155 66.5t69 177.5q0 77 -38.5 123.5t-107.5 46.5q-70 0 -164 -57l-41 24l113 422 h387l-12 -69h-324l-69 -283q68 33 129 33q96 0 151 -67t55 -171q0 -132 -82.5 -224.5t-216.5 -92.5q-53 0 -102.5 17.5t-71.5 32.5t-53 40z" />
<glyph unicode="&#x2157;" horiz-adv-x="1568" d="M98 643l45 57q99 -69 197 -69q94 0 155.5 57t61.5 143q0 87 -61 133t-150 46h-27l13 73h35q86 0 158.5 57.5t72.5 133.5q0 49 -33 75.5t-90 26.5q-92 0 -188 -63l-29 57q122 78 229 78q88 0 139.5 -47.5t51.5 -118.5q0 -69 -49.5 -135.5t-147.5 -102.5 q67 -16 111.5 -74.5t44.5 -140.5q0 -110 -79 -190t-216 -80q-125 0 -244 84zM367 0l807 1434h79l-807 -1434h-79zM874 76l46 55q95 -74 178 -74q85 0 154 66.5t69 177.5q0 77 -38 123.5t-107 46.5q-70 0 -164 -57l-41 24l112 422h387l-12 -69h-323l-70 -283q68 33 129 33 q96 0 151.5 -67t55.5 -171q0 -132 -82.5 -224.5t-216.5 -92.5q-53 0 -102.5 17.5t-72.5 33t-53 39.5z" />
<glyph unicode="&#x2158;" horiz-adv-x="1593" d="M98 772l11 64l460 598h103l-107 -592h113l-12 -70h-113l-35 -199h-76l35 199h-379zM195 842h294l89 501zM393 0l807 1434h80l-807 -1434h-80zM899 76l45 55q95 -74 178 -74q86 0 155 66.5t69 177.5q0 77 -38.5 123.5t-107.5 46.5q-70 0 -164 -57l-41 24l113 422h387 l-12 -69h-324l-69 -283q68 33 129 33q96 0 151 -67t55 -171q0 -132 -82.5 -224.5t-216.5 -92.5q-53 0 -102.5 17.5t-71.5 32.5t-53 40z" />
<glyph unicode="&#x2159;" horiz-adv-x="1327" d="M152 0l806 1434h80l-807 -1434h-79zM186 1325l191 109h69l-151 -861h-78l135 770l-137 -77zM651 272q0 159 62 297.5t169 221.5t230 83q28 0 54 -4.5t38 -9.5l13 -4l-29 -63q-31 12 -74 12q-120 0 -220 -101.5t-142 -254.5q89 100 206 100q100 0 154.5 -69.5t54.5 -166.5 q0 -82 -32 -155.5t-97.5 -122.5t-150.5 -49q-114 0 -175 84.5t-61 201.5zM729 272q0 -89 40.5 -153t115.5 -64q93 0 149 77t56 181q0 68 -37.5 118t-108.5 50q-68 0 -127.5 -45.5t-83.5 -95.5q-4 -46 -4 -68z" />
<glyph unicode="&#x215a;" horiz-adv-x="1505" d="M109 649l45 56q95 -74 178 -74q86 0 154.5 66t68.5 177q0 77 -38 123.5t-107 46.5q-70 0 -164 -57l-41 25l112 422h388l-13 -70h-323l-70 -283q68 33 129 33q96 0 151.5 -66.5t55.5 -170.5q0 -132 -82.5 -225t-216.5 -93q-53 0 -102.5 17.5t-71.5 32.5t-53 40zM332 0 l807 1434h80l-807 -1434h-80zM829 272q0 159 62 297.5t169 221.5t230 83q28 0 54 -4.5t38 -9.5l13 -4l-29 -63q-31 12 -74 12q-120 0 -220 -101.5t-142 -254.5q89 100 207 100q100 0 154.5 -69.5t54.5 -166.5q0 -82 -32 -155.5t-98 -122.5t-151 -49q-114 0 -175 84.5 t-61 201.5zM907 272q0 -89 40.5 -153t115.5 -64q93 0 149 77t56 181q0 68 -37.5 118t-108.5 50q-68 0 -127.5 -45.5t-83.5 -95.5q-4 -46 -4 -68z" />
<glyph unicode="&#x215b;" horiz-adv-x="1357" d="M152 0l806 1434h80l-807 -1434h-79zM186 1325l191 109h69l-151 -861h-78l135 770l-137 -77zM659 190q0 55 22 101t61 79.5t74.5 55t80.5 41.5q-111 69 -111 182q0 99 73 162t179 63q93 0 147 -51t54 -129q0 -149 -192 -235q153 -83 153 -219q0 -112 -89.5 -183 t-213.5 -71q-107 0 -172.5 53.5t-65.5 150.5zM739 193q0 -68 43.5 -104t112.5 -36q90 0 157.5 52.5t67.5 134.5q0 65 -40.5 108t-108.5 80q-50 -21 -84.5 -39.5t-72 -47t-56.5 -66t-19 -82.5zM862 645q0 -90 111 -147q188 73 188 190q0 51 -34.5 85t-92.5 34q-72 0 -122 -48 t-50 -114z" />
<glyph unicode="&#x215c;" horiz-adv-x="1570" d="M98 643l45 57q99 -69 197 -69q94 0 155.5 57t61.5 143q0 87 -61 133t-150 46h-27l13 73h35q86 0 158.5 57.5t72.5 133.5q0 49 -33 75.5t-90 26.5q-92 0 -188 -63l-29 57q122 78 229 78q88 0 139.5 -47.5t51.5 -118.5q0 -69 -49.5 -135.5t-147.5 -102.5 q67 -16 111.5 -74.5t44.5 -140.5q0 -110 -79 -190t-216 -80q-125 0 -244 84zM367 0l807 1434h79l-807 -1434h-79zM870 190q0 55 22 101t61 79.5t74.5 55t80.5 41.5q-111 69 -111 182q0 99 73 162t179 63q93 0 147 -51t54 -129q0 -148 -193 -235q154 -83 154 -219 q0 -112 -89.5 -183t-213.5 -71q-107 0 -172.5 53.5t-65.5 150.5zM950 193q0 -68 43.5 -104t112.5 -36q90 0 157.5 52.5t67.5 134.5q0 65 -40.5 108t-108.5 80q-50 -21 -84.5 -39.5t-72 -47t-56.5 -66t-19 -82.5zM1073 645q0 -90 111 -147q188 73 188 190q0 51 -34.5 85 t-92.5 34q-72 0 -122 -48t-50 -114z" />
<glyph unicode="&#x215d;" horiz-adv-x="1538" d="M106 649l46 56q95 -74 178 -74q86 0 154.5 66t68.5 177q0 77 -38 123.5t-107 46.5q-70 0 -164 -57l-41 25l112 422h387l-12 -70h-323l-70 -283q68 33 129 33q96 0 151.5 -66.5t55.5 -170.5q0 -132 -82.5 -225t-216.5 -93q-53 0 -102.5 17.5t-72.5 33t-53 39.5zM332 0 l807 1434h80l-807 -1434h-80zM836 190q0 44 15.5 83.5t38.5 67.5t57 53.5t62.5 41t63.5 31.5q-110 68 -110 182q0 99 72.5 162t178.5 63q93 0 147 -51t54 -129q0 -149 -192 -235q153 -83 153 -219q0 -112 -89.5 -183t-213.5 -71q-107 0 -172 53.5t-65 150.5zM915 193 q0 -68 43.5 -104t112.5 -36q90 0 157.5 52.5t67.5 134.5q0 65 -40.5 108t-108.5 80q-50 -21 -84.5 -39.5t-72 -47t-56.5 -66t-19 -82.5zM1038 645q0 -90 111 -147q188 73 188 190q0 51 -34.5 85t-92.5 34q-72 0 -122 -48t-50 -114z" />
<glyph unicode="&#x215e;" horiz-adv-x="1372" d="M170 0l807 1434h80l-807 -1434h-80zM172 573q16 88 49 183t79 183t83.5 154t87 136t62.5 87.5t36 47.5h-372l12 70h465l-10 -60q-14 -16 -37 -45.5t-84.5 -119.5t-113 -180.5t-102.5 -216.5t-71 -239h-84zM672 190q0 44 15.5 83.5t38.5 67.5t57 53.5t62.5 41t63.5 31.5 q-110 68 -110 182q0 99 73 162t179 63q93 0 146.5 -51t53.5 -129q0 -149 -192 -235q153 -83 153 -219q0 -112 -89.5 -183t-213.5 -71q-107 0 -172 53.5t-65 150.5zM752 193q0 -68 43 -104t112 -36q90 0 158 52.5t68 134.5q0 65 -41 108t-109 80q-50 -21 -84 -39.5t-71.5 -47 t-56.5 -66t-19 -82.5zM874 645q0 -90 111 -147q189 73 189 190q0 51 -34.5 85t-92.5 34q-72 0 -122.5 -48t-50.5 -114z" />
<glyph unicode="&#x2202;" horiz-adv-x="1044" d="M80 377q0 164 61 301t168 217t236 80q63 0 116 -20.5t84 -49.5t53 -58.5t30 -50.5l8 -20q0 82 -11 160.5t-38 155.5t-67 135t-102.5 93.5t-140.5 35.5q-30 0 -61.5 -5t-47.5 -9l-16 -5l-6 78q61 19 137 19q202 0 317 -173t115 -493q0 -367 -137 -579t-360 -212 q-156 0 -247 103.5t-91 296.5zM168 373q0 -145 60.5 -231.5t189.5 -86.5q79 0 145.5 34.5t110.5 90t74.5 126t44.5 141.5t14 139q0 144 -66 227.5t-190 83.5q-88 0 -162 -44.5t-121.5 -118.5t-73.5 -167.5t-26 -193.5z" />
<glyph unicode="&#x2206;" horiz-adv-x="1112" d="M-49 0l706 1434h103l201 -1434h-1010zM94 82h764l-168 1231z" />
<glyph unicode="&#x220f;" horiz-adv-x="1153" d="M141 0l240 1352h-186l14 82h1014l-15 -82h-188l-238 -1352h-86l238 1352h-467l-240 -1352h-86z" />
<glyph unicode="&#x2211;" horiz-adv-x="923" d="M4 0l19 106l579 619l-364 602l18 107h694l-14 -82h-610l387 -635l-592 -635h592l-15 -82h-694z" />
<glyph unicode="&#x2212;" d="M106 643l15 78h823l-14 -78h-824z" />
<glyph unicode="&#x221a;" horiz-adv-x="937" d="M80 696h90l123 -516l643 1254h100l-749 -1434h-33z" />
<glyph unicode="&#x221e;" horiz-adv-x="1581" d="M115 477q0 148 97.5 253.5t246.5 105.5q51 0 95.5 -18.5t86 -58t70.5 -75.5t71 -96q75 71 118.5 108t96.5 74t99 51.5t98 14.5q116 0 179 -72t63 -184q0 -148 -98 -253.5t-242 -105.5q-54 0 -100.5 18t-88 56.5t-71 75t-70.5 96.5q-60 -56 -95.5 -88t-80.5 -66.5t-79 -52 t-73.5 -28.5t-81.5 -11q-117 0 -179 71.5t-62 184.5zM199 477q0 -70 41.5 -122t117.5 -52q78 0 157.5 54t207.5 173q-94 132 -146.5 178t-121.5 46q-62 0 -112.5 -26.5t-80.5 -68t-46.5 -89t-16.5 -93.5zM827 524q94 -130 146.5 -175.5t122.5 -45.5q62 0 113 26.5t81 68 t46 89t16 93.5q0 70 -42.5 122t-117.5 52q-80 0 -159.5 -54.5t-205.5 -175.5z" />
<glyph unicode="&#x222b;" horiz-adv-x="673" d="M-109 -293l15 80h39q60 0 103 20t68 43.5t45.5 84.5t28.5 100t24 132q1 3 1 5l201 1143q20 116 43.5 187.5t64.5 123t101 72t151 20.5h41l-12 -80h-41q-59 0 -101.5 -20.5t-67 -41.5t-46 -85t-28.5 -97.5t-25 -131.5q-1 -6 -2 -9l-201 -1142q-20 -116 -44 -187.5 t-65 -123t-101.5 -72.5t-152.5 -21h-39z" />
<glyph unicode="&#x2248;" d="M68 434q111 187 254 187q52 0 103 -22.5t85 -49.5t79 -49.5t87 -22.5q93 0 178 133l64 -32q-111 -187 -254 -187q-52 0 -103.5 22.5t-86 49.5t-79.5 49.5t-86 22.5q-43 0 -84.5 -28t-91.5 -106zM131 791q111 186 256 186q52 0 103 -22.5t85 -49t79 -49t87 -22.5 q43 0 85.5 27.5t91.5 105.5l63 -33q-111 -186 -254 -186q-52 0 -103.5 22.5t-85.5 49t-79 49t-86 22.5q-43 0 -85 -27.5t-91 -105.5z" />
<glyph unicode="&#x2260;" horiz-adv-x="1030" d="M74 467l12 78h320l147 278h-418l15 78h444l192 365l62 -33l-176 -332h301l-15 -78h-327l-146 -278h424l-14 -78h-451l-190 -361l-61 33l172 328h-291z" />
<glyph unicode="&#x2264;" d="M-6 0l14 78h821l-14 -78h-821zM98 586l15 78l897 436l-19 -107l-798 -375l665 -374l-16 -94z" />
<glyph unicode="&#x2265;" d="M-2 0l14 78h824l-15 -78h-823zM25 150l18 106l797 373l-664 377l17 94l745 -436l-14 -78z" />
<glyph unicode="&#x2318;" horiz-adv-x="1509" d="M94 338q0 70 27 121.5t74.5 80.5t105 42.5t125.5 13.5h145l43 242h-127q-107 0 -182.5 76t-75.5 182q0 107 75.5 183.5t182.5 76.5q48 0 95.5 -18t88.5 -54t60 -100.5t4 -145.5l-18 -114h184l25 137q8 44 15.5 74.5t23 67.5t35 62t52 48t74.5 35q27 8 64 8 q107 0 183.5 -76.5t76.5 -183.5q0 -69 -27 -120t-74.5 -80.5t-105 -43.5t-125.5 -14h-145l-43 -242h127q107 0 182.5 -75.5t75.5 -182.5t-75.5 -182.5t-182.5 -75.5q-122 0 -197 92t-51 225l18 113h-184l-25 -137q-28 -151 -85.5 -222t-178.5 -71q-107 0 -183.5 75.5 t-76.5 182.5zM180 338q0 -71 51 -121.5t123 -50.5q141 0 168 153l33 191h-201q-72 0 -123 -50t-51 -122zM315 1096q0 -71 50 -121.5t122 -50.5h142q16 86 22 129q15 92 -32 154.5t-132 62.5q-72 0 -122 -51t-50 -123zM657 596h187l43 242h-187zM893 381q-19 -88 30.5 -151.5 t133.5 -63.5q71 0 121.5 51t50.5 121q0 72 -50.5 122t-121.5 50h-142zM989 924h201q72 0 123 50.5t51 121.5q0 72 -51 123t-123 51q-68 0 -113 -47t-55 -109z" />
<glyph unicode="&#x25ca;" horiz-adv-x="950" d="M117 717l446 717h115l190 -717l-444 -717h-115zM211 705l164 -621l401 647l-166 615z" />
<glyph unicode="&#xe000;" horiz-adv-x="1075" d="M0 0v1075h1075v-1075h-1075z" />
<glyph unicode="&#xf6c3;" horiz-adv-x="114" d="M-68 -483l99 180h-54l29 166h109l-15 -166l-135 -217z" />
<glyph unicode="&#xf6df;" horiz-adv-x="636" d="M0 45q0 184 87 297.5t198 116.5l16 94h64l-19 -102q15 -4 29.5 -9.5t28.5 -14t24 -14t24.5 -16.5t19.5 -15t19 -16t15 -12l-43 -49q-3 2 -16.5 13t-23.5 18.5t-25 18t-31.5 18t-32.5 12.5l-92 -526q26 7 55 22t59 34t35 22l33 -60q-3 -2 -23 -14t-30 -17.5t-31 -16 t-36 -16.5t-35.5 -12.5t-39.5 -9.5l-16 -98h-59l16 94q-78 9 -124 76.5t-46 181.5zM78 49q0 -173 102 -192l92 532q-79 -16 -136.5 -111.5t-57.5 -228.5z" />
<glyph unicode="&#xf6e0;" horiz-adv-x="636" d="M193 1141q0 184 86.5 297t197.5 116l17 95h63l-18 -103q13 -4 26.5 -9t24 -10t23 -13t20.5 -13t19.5 -14t16.5 -13t16 -13t13 -11l-43 -49q-3 2 -16.5 13t-23.5 18.5t-25 18t-31.5 18t-32.5 12.5l-92 -527q26 7 55 22t59.5 34t35.5 22l32 -59q-5 -3 -23.5 -14t-29 -17 t-31 -16.5t-36 -17t-35.5 -12.5t-39 -9l-16 -99h-60l16 95q-78 9 -123.5 76.5t-45.5 181.5zM270 1145q0 -85 26.5 -134.5t76.5 -58.5l92 533q-79 -16 -137 -112t-58 -228z" />
<glyph unicode="&#xf6e1;" horiz-adv-x="315" d="M-78 -430l70 123h-41l22 131h90l-12 -135l-106 -150z" />
<glyph unicode="&#xf6e2;" horiz-adv-x="317" d="M117 666l69 122h-41l23 132h90l-12 -136l-107 -149z" />
<glyph unicode="&#xf6e3;" horiz-adv-x="686" d="M-70 -221l47 57q102 -67 185 -84l63 357q-92 50 -137 99t-45 132q0 102 74.5 164.5t183.5 62.5h4l21 111h59l-20 -117q91 -14 192 -74l-45 -57q-84 48 -160 62l-57 -330q45 -26 73 -45.5t58 -49t44.5 -66.5t14.5 -83q0 -110 -81 -175t-193 -65h-2l-19 -108h-59l19 115 q-110 17 -220 94zM125 340q0 -51 26.5 -83t88.5 -67l53 308q-70 -3 -119 -45.5t-49 -112.5zM221 -252q79 3 132 48.5t53 117.5q0 55 -31.5 92t-93.5 72z" />
<glyph unicode="&#xf6e4;" horiz-adv-x="688" d="M123 874l47 58q89 -65 182 -84l64 358q-89 48 -134.5 98t-45.5 132q0 102 74.5 164.5t183.5 62.5h2l20 111h62l-21 -117q93 -15 193 -74l-45 -57q-81 47 -160 61l-60 -330q47 -26 74.5 -45t58.5 -48.5t45.5 -66.5t14.5 -83q0 -110 -81.5 -175t-193.5 -65h-4l-18 -108h-59 l18 112q-108 17 -217 96zM317 1436q0 -51 26.5 -83t86.5 -65l53 305q-70 -3 -118 -45t-48 -112zM412 844q79 3 132.5 48t53.5 118q0 55 -32 92t-95 74z" />
<glyph unicode="&#xf6e7;" horiz-adv-x="311" d="M-49 -307l22 131h90l-22 -131h-90z" />
<glyph unicode="&#xf6e8;" horiz-adv-x="313" d="M145 788l23 132h90l-22 -132h-91z" />
<glyph unicode="&#xf6e9;" horiz-adv-x="677" d="M160 991q0 193 76 325t194 132q93 0 184 -111l17 97h76l-113 -646h-76l19 105q-115 -119 -222 -119q-66 0 -110.5 52.5t-44.5 164.5zM238 997q0 -73 24.5 -114t71.5 -41q57 0 106.5 34t108.5 95l53 301q-78 108 -162 108q-60 0 -107 -58t-71 -144.5t-24 -180.5z" />
<glyph unicode="&#xf6ea;" horiz-adv-x="677" d="M145 788l158 895h76l-60 -335q109 100 201 100q72 0 122 -53.5t50 -165.5q0 -192 -73.5 -323.5t-188.5 -131.5q-42 0 -81.5 18.5t-61.5 38t-49 48.5l-17 -91h-76zM250 950q81 -108 170 -108q57 0 102.5 57.5t68.5 143.5t23 178q0 159 -112 159q-50 0 -95.5 -28.5 t-101.5 -81.5z" />
<glyph unicode="&#xf6eb;" horiz-adv-x="677" d="M160 991q0 193 76 325t194 132q91 0 182 -111l62 346h76l-158 -895h-76l19 103q-113 -117 -220 -117q-66 0 -110.5 52.5t-44.5 164.5zM238 997q0 -73 24.5 -114t71.5 -41q56 0 107 33.5t108 93.5l53 303q-78 108 -162 108q-60 0 -107 -58t-71 -144.5t-24 -180.5z" />
<glyph unicode="&#xf6ec;" horiz-adv-x="628" d="M162 1044q0 174 88.5 289t228.5 115q86 0 133 -43.5t47 -114.5q0 -103 -91.5 -162t-268.5 -59h-59v-29q0 -98 34 -149t97 -51q13 0 26 2t27 6t25 8t26 11.5t23.5 11.5t23.5 13.5t20 12.5t20 12.5t16 10.5l30 -58q-146 -96 -248 -96q-92 0 -145 69t-53 201zM246 1126h61 q138 0 207.5 46t69.5 118q0 45 -30 69.5t-79 24.5q-84 0 -147 -71.5t-82 -186.5z" />
<glyph unicode="&#xf6ed;" horiz-adv-x="305" d="M145 788l115 646h74l-113 -646h-76zM281 1573l18 108h82l-19 -108h-81z" />
<glyph unicode="&#xf6ee;" horiz-adv-x="305" d="M145 788l158 895h76l-158 -895h-76z" />
<glyph unicode="&#xf6ef;" horiz-adv-x="1011" d="M145 788l115 646h76l-19 -99q113 113 215 113q63 0 95 -34.5t35 -88.5q118 123 227 123q79 0 108.5 -53t14.5 -138l-82 -469h-76l82 459q26 135 -68 135t-211 -127l-82 -467h-75l82 459q12 60 -4 97.5t-66 37.5t-106.5 -38t-102.5 -87l-82 -469h-76z" />
<glyph unicode="&#xf6f0;" horiz-adv-x="677" d="M162 1022q0 105 33 200.5t103 160.5t163 65q107 0 168 -62t61 -186q0 -106 -32.5 -201t-102 -160t-162.5 -65q-107 0 -169 62.5t-62 185.5zM238 1022q0 -182 153 -182q45 0 83.5 25t63.5 64t42.5 88t25.5 95.5t8 87.5q0 182 -153 182q-55 0 -100 -37.5t-70.5 -94 t-39 -116.5t-13.5 -112z" />
<glyph unicode="&#xf6f1;" horiz-adv-x="446" d="M145 788l115 646h76l-25 -140q7 15 21.5 34.5t43.5 50.5t73.5 49t93.5 14l-13 -74q-49 0 -92.5 -21.5t-69.5 -52t-45.5 -60.5t-27.5 -52l-8 -21l-66 -373h-76z" />
<glyph unicode="&#xf6f2;" horiz-adv-x="579" d="M119 858l41 51q103 -71 190 -71q59 0 102.5 31t43.5 87q0 24 -9 42.5t-28 33.5t-37.5 25.5t-48.5 24.5l-6 3l-5 2.5t-6 2.5q-38 18 -59 30t-47.5 34t-38.5 50.5t-12 65.5q0 82 60.5 130t148.5 48q105 0 210 -72l-38 -49q-92 57 -172 57q-56 0 -95 -28.5t-39 -79.5 q0 -25 10 -44.5t28.5 -33.5t37 -23.5t41.5 -19.5q7 -3 10 -4q86 -40 127 -81t41 -109q0 -87 -62.5 -137t-152.5 -50q-117 0 -235 84z" />
<glyph unicode="&#xf6f3;" horiz-adv-x="442" d="M184 928l78 444h-76l11 62h77l29 161l78 25l-33 -186h152l-11 -62h-153l-80 -459q-13 -69 39 -69q31 0 111 35l22 -62q-90 -43 -149 -43q-51 0 -80 36t-15 118z" />
<glyph unicode="&#xf8ff;" horiz-adv-x="1806" d="M140.5 560.5q-2.5 11.5 15.5 21.5l57 41q2 1 3.5 2.5l3 3l2.5 2.5t2 3l1 1q19 16 37 -12l33 -64q6 -12 13.5 -15.5t14 2t9.5 17.5l18 70q4 19 18.5 21t26.5 -13l47 -53q13 -15 23.5 -11.5t11.5 23.5l4 70q3 20 15.5 25t27.5 -7l58 -43q17 -12 25.5 -6.5t4.5 25.5l-8 69 q-3 20 8.5 28t28.5 -1l64 -29q19 -9 26.5 -1.5t1.5 26.5l-22 67q-8 19 0.5 29t27.5 4l15 -2q40 -77 70 -202.5t30 -217.5q-15 -18 -34.5 -27.5t-59.5 -9.5h-8q0 46 -33 72q18 -21 18 -55v-15q-32 3 -32 39q0 43 -28 72t-77 29q-41 0 -68.5 -32t-27.5 -79q0 -60 49.5 -96.5 t138.5 -36.5q85 0 172 42t156.5 112t125 154.5t86 175.5t30.5 169q0 59 -37 98t-95 39q-48 0 -85 -33.5t-37 -84.5q0 -52 30.5 -82.5t87.5 -36.5q-30 -122 -59 -174q-12 96 -43.5 178t-75.5 129q91 -120 107 -330l-29 -41q0 156 -51 287t-131 172q-5 9 2 18.5t22 12.5l70 12 q19 3 21 13.5t-15 21.5l-59 39q-15 13 -13.5 26.5t19.5 20.5l63 29q14 4 19 10t0 13t-19 13l-63 27q-24 11 -21 29q13 6 15 16l35 62q9 19 20 18t16 -20l21 -68q6 -21 18.5 -24t26.5 14l47 53q12 15 23 12.5t12 -22.5l4 -72q1 -21 14.5 -26t28.5 8l57 43q15 12 24 5.5 t7 -26.5l-10 -70q-1 -20 10.5 -27.5t28.5 1.5l63 33q19 8 26.5 0t0.5 -29l-23 -64q-6 -20 3 -30t28 -4l70 14q20 6 26.5 -2t-4.5 -27l-37 -59q-12 -17 -5.5 -29.5t26.5 -11.5l71 4q21 0 25.5 -11t-8.5 -24l-49 -53q-14 -13 -10.5 -26.5t24.5 -16.5l70 -12q43 -10 6 -39 l-58 -39q-10 -7 -13 -15.5t2 -16.5t18 -13l63 -27q12 -5 16.5 -12t0 -13.5t-16.5 -11.5l-63 -26q-20 -7 -21.5 -22t14.5 -25l58 -41q11 -7 14.5 -14.5t-2 -13.5t-18.5 -9l-70 -13q-21 -3 -24.5 -16.5t10.5 -28.5l49 -49q13 -14 8.5 -24.5t-25.5 -10.5l-71 5q-20 0 -26.5 -12 t5.5 -29l37 -62q10 -17 4 -25.5t-26 -5.5l-70 19q-19 4 -28 -6t-3 -29l23 -68q8 -19 0 -26t-27 2l-63 31q-17 9 -28.5 1t-10.5 -30l10 -68q1 -21 -7.5 -25.5t-23.5 7.5l-57 43q-15 12 -28.5 5.5t-14.5 -26.5l-4 -69q-1 -20 -12 -23t-23 11l-47 55q-13 14 -26 12t-19 -22 l-21 -68q-3 -13 -9.5 -18t-13.5 -1t-13 15l-35 61q-9 19 -22 19t-25 -19l-31 -61q-6 -11 -13.5 -15t-14 1t-9.5 18l-20 68q-6 20 -19 22t-26 -12l-48 -55q-12 -14 -21.5 -11t-12.5 23l-5 69q-2 20 -15 26.5t-30 -5.5l-53 -43q-17 -13 -27 -8t-6 26l11 68q1 22 -10.5 30 t-30.5 -1l-62 -31q-19 -9 -26.5 -2t0.5 26l22 68q7 19 -2.5 29.5t-28.5 5.5l-69 -19q-20 -3 -26.5 5.5t3.5 25.5l39 62q11 17 4.5 29t-26.5 12l-72 -5q-21 0 -25 10.5t9 24.5l51 49q13 15 8.5 28.5t-25.5 16.5l-67 13q-21 4 -23.5 15.5zM616 281q44 -27 123 -27 q106 0 212.5 65t183.5 162t125.5 212t48.5 214q0 63 -41 101q24 -38 24 -84q0 -100 -47.5 -215t-126.5 -215q-85 -105 -188.5 -168.5t-212.5 -63.5q-58 0 -101 19z" />
<glyph unicode="&#xfb06;" horiz-adv-x="1470" d="M12 111l56 61q164 -117 297 -117q46 0 89.5 13.5t80.5 40t59 71t22 99.5q0 44 -14.5 78t-47.5 61.5t-62 44.5t-83 45q-11 5 -16 8q-34 18 -52 27.5t-48.5 28.5t-47 34t-37.5 38t-31.5 46.5t-18.5 54.5t-8 66q0 134 94 210.5t227 76.5q93 0 186 -39q-8 27 -8 76 q0 157 95 257.5t241 100.5q142 0 207.5 -97t36.5 -263l-10 -58h239l-12 -74h-242l-145 -823q-21 -123 63 -123q58 0 185 62l28 -72q-43 -21 -110.5 -44.5t-112.5 -23.5q-32 0 -58 9t-50.5 33t-30 67t3.5 111l141 804h-121l13 74h123l14 80q13 54 8.5 103.5t-21.5 87 t-56.5 59.5t-96.5 22q-122 0 -196 -89.5t-74 -221.5q0 -50 12 -88q16 -8 68 -43l-54 -61q-136 96 -266 96q-97 0 -166 -54t-69 -149q0 -26 7 -50t14.5 -41t27 -36t29.5 -28t37.5 -25t35.5 -20t39 -19l12 -6q69 -34 113 -62t81.5 -65t55 -82t17.5 -102q0 -98 -50.5 -169 t-124.5 -103t-161 -32q-172 0 -357 134z" />
<glyph horiz-adv-x="698" d="M125 578l31 63q30 -12 73 -12q120 0 220 101.5t141 254.5q-32 -38 -85 -69t-122 -31q-99 0 -153 69t-54 166q0 61 19.5 119t54 105t89 75.5t118.5 28.5q114 0 173.5 -85t59.5 -204q0 -157 -62 -295.5t-169 -221.5t-230 -83q-27 0 -53 4.5t-38 9.5zM254 1120 q0 -68 36.5 -118t106.5 -50q69 0 129.5 47.5t83.5 96.5q4 23 4 65q0 89 -40 153t-115 64q-91 0 -148 -77.5t-57 -180.5z" />
<glyph horiz-adv-x="919" d="M-45 0l457 586l-234 590h92l191 -523l373 523h104l-440 -592l252 -584h-97l-207 516l-380 -516h-111z" />
<glyph horiz-adv-x="1161" d="M-164 -342q80 28 121.5 49.5t69 66t37.5 84.5t28 142l174 1001h-121l17 74h119l36 211q20 112 63.5 159.5t125.5 47.5q89 0 242 -61l-43 -66q-35 14 -99.5 31.5t-97.5 17.5q-84 0 -107 -129l-36 -211h245l-16 -74h-244l-174 -1001q-15 -87 -22.5 -125t-24.5 -89t-34 -71 t-52 -48.5t-78 -45.5t-112 -39zM416 -342q40 14 68.5 25.5t53 27t40 27t29.5 34t21.5 38.5t16 51.5t13.5 61t14 77.5l174 1001h-121l16 74h119l37 211q20 111 62.5 159t117.5 48q73 0 203 -49l-41 -66q-102 37 -152 37q-83 0 -106 -129l-37 -211h246l-16 -74h-244 l-174 -1001q-31 -175 -52 -230q-31 -77 -104 -120q-55 -32 -168 -68z" />
<glyph horiz-adv-x="1095" d="M-166 -342q81 28 122.5 49.5t69.5 66t38 84.5t28 142l176 1001h-123l15 74h121l34 191q11 62 33 105t53 64t61.5 29.5t67.5 8.5q111 0 342 -64q44 84 150 84q90 0 242 -61l-43 -66q-35 14 -99.5 31.5t-97.5 17.5q-83 0 -106 -129l-37 -211h245l-16 -74h-244l-174 -1001 q-15 -87 -22.5 -125t-24.5 -89t-34 -71t-52 -48.5t-78 -45.5t-112 -39l-17 76q80 28 121.5 49.5t69 66t37.5 84.5t28 142l174 1001h-430l-176 -1001q-15 -86 -22.5 -123.5t-24.5 -89t-34 -71.5t-51.5 -48.5t-78 -46t-112.5 -39.5zM365 1075h432l47 260q-245 60 -309 60 q-113 0 -136 -129z" />
<glyph horiz-adv-x="2080" d="M-166 -342q81 28 122.5 49.5t69.5 66t38 84.5t28 142l176 1001h-123l17 74h119l34 191q11 62 33 105t53 64t61.5 29.5t67.5 8.5q101 0 347 -64q52 84 172 84q93 0 327 -59l10 59h87l-101 -567q172 172 324 172q54 0 101 -19t86 -58.5t62 -109t23 -161.5 q0 -212 -52.5 -388t-149.5 -280.5t-218 -104.5q-51 0 -98.5 16.5t-88 48.5t-66 58t-58.5 64l-29 -164h-86l240 1356q-218 59 -309 59q-30 0 -53.5 -9.5t-37.5 -23t-24 -32t-14 -33.5t-6 -31l-37 -211h241l-16 -74h-240l-174 -1001q-32 -176 -53 -229q-30 -77 -101 -120 q-54 -32 -169 -69l-19 76q150 52 187.5 106.5t68.5 235.5l176 1001h-430l-176 -1001q-15 -86 -22.5 -123.5t-24.5 -89t-34 -71.5t-51.5 -48.5t-78 -46t-112.5 -39.5zM365 1075h432l47 260q-225 60 -309 60q-113 0 -136 -129zM1251 250q147 -195 291 -195q75 0 139.5 61.5 t106.5 160t66 220t24 244.5q0 133 -47.5 206t-142.5 73q-84 0 -163.5 -52t-170.5 -143z" />
<glyph horiz-adv-x="2080" d="M-166 -342q81 28 122.5 49.5t69.5 66t38 84.5t28 142l176 1001h-123l17 74h119l34 191q11 62 33 105t53 64t61.5 29.5t67.5 8.5q101 0 347 -64q52 84 172 84q93 0 327 -59l10 59h87l-103 -578q80 67 186 125t207 58q123 0 171 -84t24 -221l-139 -793h-86l137 784 q43 236 -123 236q-94 0 -205.5 -65.5t-189.5 -137.5l-144 -817h-86l240 1356q-218 59 -309 59q-30 0 -53.5 -9.5t-37.5 -23t-24 -32t-14 -33.5t-6 -31l-37 -211h241l-16 -74h-240l-174 -1001q-32 -176 -53 -229q-30 -77 -101 -120q-54 -32 -169 -69l-19 76 q150 52 187.5 106.5t68.5 235.5l176 1001h-430l-176 -1001q-15 -86 -22.5 -123.5t-24.5 -89t-34 -71.5t-51.5 -48.5t-78 -46t-112.5 -39.5zM365 1075h432l47 260q-225 60 -309 60q-113 0 -136 -129z" />
<glyph horiz-adv-x="1439" d="M-166 -342q81 28 122.5 49.5t69.5 66t38 84.5t28 142l176 1001h-123l17 74h119l34 191q11 62 33 105t53 64t61.5 29.5t67.5 8.5q101 0 347 -64q53 84 174 84q114 0 329 -61l-41 -70q-193 53 -284 53q-36 0 -63 -13t-41.5 -35t-21.5 -41t-11 -40l-37 -211h477l-191 -1075 h-86l176 1001h-391l-174 -1001q-31 -174 -52 -228q-30 -78 -102 -121q-55 -33 -169 -69l-17 76q40 14 68.5 25.5t53 27t40 27t29.5 34t21.5 38.5t16 51.5t13.5 61t14 77.5l174 1001h-430l-176 -1001q-15 -86 -22.5 -123.5t-24.5 -89t-34 -71.5t-51.5 -48.5t-78 -46 t-112.5 -39.5zM365 1075h432l47 260q-245 60 -309 60q-113 0 -136 -129z" />
<glyph horiz-adv-x="1441" d="M-166 -342q81 28 122.5 49.5t69.5 66t38 84.5t28 142l176 1001h-123l17 74h119l34 191q11 62 33 105t53 64t61.5 29.5t67.5 8.5q101 0 347 -64q53 84 174 84q114 0 329 -61l-41 -70q-193 53 -284 53q-36 0 -63 -13t-41.5 -35t-21.5 -41t-11 -40l-37 -211h479l-207 -1161 q-8 -46 -12.5 -67t-13.5 -54t-17.5 -47.5t-25 -37.5t-36 -35.5t-49.5 -29.5t-67.5 -31t-87.5 -30l-19 76q53 18 89 33t62 34t40 33.5t25 42.5t15.5 49t12.5 64l188 1087h-391l-174 -1001q-31 -174 -52 -228q-30 -78 -102 -121q-55 -33 -169 -69l-17 76q40 14 68.5 25.5 t53 27t40 27t29.5 34t21.5 38.5t16 51.5t13.5 61t14 77.5l174 1001h-430l-176 -1001q-15 -86 -22.5 -123.5t-24.5 -89t-34 -71.5t-51.5 -48.5t-78 -46t-112.5 -39.5zM365 1075h432l47 260q-245 60 -309 60q-113 0 -136 -129z" />
<glyph horiz-adv-x="1921" d="M-166 -342q81 28 122.5 49.5t69.5 66t38 84.5t28 142l176 1001h-123l17 74h119l34 191q11 62 33 105t53 64t61.5 29.5t67.5 8.5q101 0 347 -64q52 84 172 84q93 0 327 -59l10 59h87l-185 -1034l514 616h105l-377 -440l239 -635h-88l-211 567l-204 -237l-58 -330h-86 l240 1356q-218 59 -309 59q-30 0 -53.5 -9.5t-37.5 -23t-24 -32t-14 -33.5t-6 -31l-37 -211h241l-16 -74h-240l-174 -1001q-32 -176 -53 -229q-30 -77 -101 -120q-54 -32 -169 -69l-19 76q150 52 187.5 106.5t68.5 235.5l176 1001h-430l-176 -1001q-15 -86 -22.5 -123.5 t-24.5 -89t-34 -71.5t-51.5 -48.5t-78 -46t-112.5 -39.5zM365 1075h432l47 260q-225 60 -309 60q-113 0 -136 -129z" />
<glyph horiz-adv-x="579" d="M-164 -342q40 14 68.5 25.5t53 27t40 27t29.5 34t21.5 38.5t16 51.5t13.5 61t14 77.5l174 1001h-121l17 74h119l36 211q20 111 63 159t118 48q73 0 202 -49l-41 -66q-102 37 -151 37q-84 0 -107 -129l-36 -211h245l-16 -74h-244l-174 -1001q-31 -175 -52 -229 q-30 -77 -101 -120q-56 -33 -170 -69z" />
<glyph horiz-adv-x="1490" d="M-166 -342q81 28 122.5 49.5t69.5 66t38 84.5t28 142l176 1001h-123l17 74h119l34 191q11 62 33 105t53 64t61.5 29.5t67.5 8.5q101 0 347 -64q52 84 172 84q93 0 327 -59l10 59h84l-264 -1493h-84l240 1356q-218 59 -309 59q-30 0 -53.5 -9.5t-37.5 -23t-24 -32 t-14 -33.5t-6 -31l-37 -211h241l-16 -74h-240l-174 -1001q-32 -176 -53 -229q-30 -77 -101 -120q-54 -32 -169 -69l-19 76q150 52 187.5 106.5t68.5 235.5l176 1001h-430l-176 -1001q-15 -86 -22.5 -123.5t-24.5 -89t-34 -71.5t-51.5 -48.5t-78 -46t-112.5 -39.5zM365 1075 h432l47 260q-225 60 -309 60q-113 0 -136 -129z" />
<glyph horiz-adv-x="1615" d="M-166 -342q81 28 122.5 49.5t69.5 66t38 84.5t28 142l176 1001h-123l15 74h121l34 191q11 62 33 105t53 64t61.5 29.5t67.5 8.5q102 0 340 -62q45 82 150 82q90 0 242 -61l-43 -66q-35 14 -99.5 31.5t-97.5 17.5q-84 0 -107 -129l-36 -211h399l49 273l90 38l-55 -311h242 l-15 -74h-241l-144 -823q-21 -123 64 -123q50 0 184 62l27 -72q-44 -21 -110.5 -44.5t-111.5 -23.5q-32 0 -58 9t-50.5 33t-30 67t3.5 111l144 804h-402l-174 -1001q-15 -87 -22.5 -125t-24.5 -89t-34 -71t-52 -48.5t-78 -45.5t-112 -39l-17 76q40 14 68.5 25.5t52.5 27 t39.5 27t29.5 34t22 39t16.5 51t13.5 61t14 77.5l174 1001h-428l-176 -1001q-15 -86 -22.5 -123.5t-24.5 -89t-34 -71.5t-51.5 -48.5t-78 -46t-112.5 -39.5zM365 1075h430l47 260q-235 60 -307 60q-113 0 -136 -129z" />
<glyph horiz-adv-x="1568" d="M-164 -342q40 14 68.5 25.5t53 27t40 27t29.5 34t21.5 38.5t16 51.5t13.5 61t14 77.5l174 1001h-121l17 74h119l36 211q23 119 79 163t136 44q96 0 330 -59l10 59h86l-102 -578q80 67 186 125t207 58q123 0 171 -84t24 -221l-139 -793h-86l137 784q43 236 -123 236 q-94 0 -205.5 -65.5t-189.5 -137.5l-144 -817h-86l240 1356q-218 59 -311 59q-113 0 -136 -129l-36 -211h245l-16 -74h-244l-174 -1001q-15 -87 -22.5 -125t-24.5 -89t-34 -71t-52 -48.5t-78 -45.5t-112 -39z" />
<glyph horiz-adv-x="1062" d="M129 381l139 795h86l-141 -795q-15 -65 -13 -123t19 -101.5t67 -69.5t132 -26q289 0 346 318l143 797h84l-141 -801q-69 -393 -434 -393q-356 0 -287 399zM465 1487h72q-9 -67 17 -95t91 -28q154 0 176 123h76q-15 -92 -82.5 -145.5t-173.5 -53.5q-97 0 -145 54t-31 145z " />
<glyph horiz-adv-x="923" d="M-164 -342q40 14 68.5 25.5t53 27t40 27t29.5 34t21.5 38.5t16 51.5t13.5 61t14 77.5l174 1001h-121l17 74h119l36 211q11 63 33.5 105.5t53.5 63.5t62 29.5t69 8.5q112 0 331 -61l-43 -70q-193 53 -284 53q-36 0 -63 -13t-42 -35t-22 -41t-11 -40l-36 -211h479 l-191 -1075h-86l176 1001h-393l-174 -1001q-31 -174 -52 -228q-30 -78 -102 -121q-55 -33 -169 -69z" />
<glyph horiz-adv-x="925" d="M-164 -342q40 14 68.5 25.5t53 27t40 27t29.5 34t21.5 38.5t16 51.5t13.5 61t14 77.5l174 1001h-121l17 74h119l36 211q11 63 33.5 105.5t53.5 63.5t62 29.5t69 8.5q112 0 331 -61l-43 -70q-193 53 -284 53q-36 0 -63 -13t-42 -35t-22 -41t-11 -40l-36 -211h479 l-207 -1161q-23 -124 -41 -164q-29 -65 -108 -107q-57 -29 -158 -61l-19 76q53 18 88 33t61 34t40 33.5t25 42.5t15.5 49t12.5 64l190 1087h-393l-174 -1001q-31 -174 -52 -228q-30 -78 -102 -121q-55 -33 -169 -69z" />
<glyph horiz-adv-x="1404" d="M-164 -342q80 28 121.5 49.5t69 66t37.5 84.5t28 142l174 1001h-121l17 74h119l36 211q11 62 33 105t53 64t61.5 29.5t67.5 8.5q96 0 330 -59l10 59h86l-184 -1034l514 616h105l-377 -440l239 -635h-88l-211 567l-204 -237l-58 -330h-86l240 1356q-218 59 -311 59 q-113 0 -136 -129l-36 -211h245l-16 -74h-242l-174 -1001q-15 -86 -22.5 -123.5t-24.5 -89t-34.5 -71.5t-52 -48.5t-78.5 -46t-113 -39.5z" />
<glyph horiz-adv-x="354" d="M164 788l22 127h90l-22 -127h-90zM229 1038l84 611h90l-127 -611h-47z" />
<glyph horiz-adv-x="976" d="M-164 -342q40 14 68.5 25.5t53 27t40 27t29.5 34t21.5 38.5t16 51.5t13.5 61t14 77.5l174 1001h-121l17 74h119l36 211q23 119 79 163t136 44q96 0 330 -59l10 59h84l-264 -1493h-84l240 1356q-231 59 -311 59q-113 0 -136 -129l-36 -211h245l-16 -74h-244l-174 -1001 q-15 -87 -22.5 -125t-24.5 -89t-34 -71t-52 -48.5t-78 -45.5t-112 -39z" />
<glyph horiz-adv-x="1101" d="M-164 -342q40 14 68.5 25.5t53 27t40 27t29.5 34t21.5 38.5t16 51.5t13.5 61t14 77.5l174 1001h-121l17 74h119l36 211q20 112 63.5 159.5t125.5 47.5q89 0 242 -61l-43 -66q-35 14 -99.5 31.5t-97.5 17.5q-84 0 -107 -129l-36 -211h399l49 273l90 38l-55 -311h242 l-15 -74h-241l-144 -823q-21 -123 64 -123q50 0 184 62l27 -72q-44 -21 -110.5 -44.5t-111.5 -23.5q-32 0 -58 9t-50.5 33t-30 67t3.5 111l144 804h-402l-174 -1001q-15 -87 -22.5 -125t-24.5 -89t-34 -71t-52 -48.5t-78 -45.5t-112 -39z" />
<glyph horiz-adv-x="409" d="M-182 -500q34 12 55 21t38 23t25.5 24t16.5 34t11.5 42t10.5 59l101 573h-74l12 62h72l20 108q14 77 44 109.5t90 32.5t159 -41l-37 -55q-80 28 -116 28q-52 0 -66 -74l-20 -108h153l-14 -62h-149l-101 -571q-6 -35 -8.5 -49.5t-8.5 -40.5t-9.5 -36t-11 -28.5t-15 -26 t-19.5 -20.5t-25 -19.5t-31.5 -16t-39.5 -16.5t-49 -15z" />
<glyph horiz-adv-x="1062" d="M129 381l139 795h86l-141 -795q-15 -65 -13 -123t19 -101.5t67 -69.5t132 -26q289 0 346 318l143 797h84l-141 -801q-69 -393 -434 -393q-356 0 -287 399zM537 1288l235 256h156l-312 -256h-79z" />
<glyph horiz-adv-x="659" d="M-14 76l45 55q95 -74 178 -74q85 0 154 66.5t69 177.5q0 77 -38 123.5t-107 46.5q-70 0 -164 -57l-41 24l113 422h387l-13 -69h-323l-70 -283q68 33 129 33q96 0 151.5 -67t55.5 -171q0 -132 -82.5 -224.5t-216.5 -92.5q-53 0 -102.5 17.5t-71.5 32.5t-53 40z" />
<glyph horiz-adv-x="659" d="M86 649l45 56q95 -74 178 -74q86 0 154.5 66t68.5 177q0 77 -38 123.5t-107 46.5q-70 0 -164 -57l-41 25l113 422h387l-12 -70h-324l-70 -283q68 33 130 33q96 0 151 -66.5t55 -170.5q0 -132 -82.5 -225t-216.5 -93q-53 0 -102.5 17.5t-71.5 32.5t-53 40z" />
<glyph horiz-adv-x="968" d="M-27 -145l52 67q77 -62 136 -88q74 -33 144 -33q67 0 134 30t123 84.5t91 142t35 192.5q0 136 -64 219.5t-182 83.5q-120 0 -266 -98l-49 22l186 699h586l-14 -82h-514l-129 -525q107 66 221 66q146 0 231.5 -109t85.5 -280q0 -144 -58 -263.5t-166.5 -191.5t-246.5 -72 q-61 0 -114.5 12.5t-97.5 37.5t-67.5 42t-56.5 44z" />
<glyph d="M51 113l51 67q1 -1 5 -4q143 -117 276 -117q67 0 134 30t123 84.5t91 142t35 192.5q0 136 -64 219.5t-182 83.5q-120 0 -266 -98l-49 22l186 699h586l-14 -82h-514l-130 -525q107 66 222 66q146 0 231.5 -109t85.5 -280q0 -144 -58 -263.5t-166.5 -191.5t-246.5 -72 q-61 0 -114.5 12.5t-97.5 37.5t-67.5 42t-56.5 44z" />
<glyph horiz-adv-x="354" d="M-31 -307l23 127h90l-23 -127h-90zM35 -57l84 610h90l-127 -610h-47z" />
<glyph horiz-adv-x="1378" d="M90 535l39 51q12 -11 30.5 -23t55 -25.5t70.5 -13.5q74 0 131 51.5t57 139.5q0 62 -32.5 99.5t-92.5 37.5q-65 0 -141 -47l-39 24l96 347h338l-10 -64h-281l-53 -221q53 24 107 24q85 0 133.5 -56t48.5 -142q0 -108 -70.5 -183t-185.5 -75q-108 0 -201 76zM291 0 l690 1176h74l-690 -1176h-74zM733 160q0 44 18 81.5t50.5 64t62.5 43.5t70 34q-96 55 -96 152q0 81 62.5 131.5t156.5 50.5q83 0 130.5 -43t47.5 -107q0 -115 -164 -190q59 -31 96 -73.5t37 -108.5q0 -91 -76.5 -149t-185.5 -58q-94 0 -151.5 45t-57.5 127zM805 162 q0 -55 38.5 -84t98.5 -29q75 0 131.5 41.5t56.5 106.5q0 54 -35 88.5t-94 64.5q-43 -18 -72 -33t-60.5 -37.5t-47.5 -52t-16 -65.5zM907 528q0 -75 94 -118q162 58 162 151q0 41 -28.5 68.5t-79.5 27.5q-61 0 -104.5 -38t-43.5 -91z" />
<glyph horiz-adv-x="354" d="M164 788l127 611h47l-84 -611h-90zM291 1522l22 127h90l-22 -127h-90z" />
<glyph horiz-adv-x="1347" d="M90 535l41 51q71 -62 156 -62q74 0 131 51.5t57 139.5q0 62 -32.5 99.5t-92.5 37.5q-65 0 -141 -47l-39 24l94 347h340l-10 -64h-281l-55 -223q58 26 107 26q86 0 135 -56t49 -142q0 -108 -70.5 -183t-185.5 -75q-104 0 -203 76zM291 0l690 1176h74l-690 -1176h-74z M725 231q0 128 53 240t145 179t199 67q24 0 47 -3.5t34 -7.5l11 -4l-26 -57q-27 8 -64 8q-104 0 -188.5 -79.5t-120.5 -202.5q74 80 176 80q87 0 136 -58t49 -139q0 -105 -66.5 -185.5t-177.5 -80.5q-101 0 -154 71t-53 172zM795 229q0 -74 35.5 -126t101.5 -52q78 0 125 60 t47 143q0 55 -31.5 95t-93.5 40q-60 0 -113 -38.5t-69 -78.5q-2 -14 -2 -43z" />
<glyph horiz-adv-x="352" d="M-31 -307l127 610h47l-84 -610h-90zM96 426l23 127h90l-23 -127h-90z" />
<glyph horiz-adv-x="1062" d="M129 381l139 795h86l-141 -795q-15 -65 -13 -123t19 -101.5t67 -69.5t132 -26q289 0 346 318l143 797h84l-141 -801q-69 -393 -434 -393q-356 0 -287 399z" />
<glyph horiz-adv-x="645" d="M221 1577l12 72h543l-12 -72h-234l-139 -789h-78l140 789h-232z" />
<glyph horiz-adv-x="696" d="M-10 199l10 63l461 598h102l-106 -592h112l-12 -69h-113l-34 -199h-76l35 199h-379zM86 268h295l88 502z" />
<glyph horiz-adv-x="698" d="M92 772l10 64l461 598h103l-107 -592h113l-13 -70h-112l-35 -199h-76l35 199h-379zM188 842h295l88 501z" />
<glyph d="M-14 86l14 78l752 1012h114l-178 -1008h178l-14 -82h-178l-62 -344h-86l62 344h-602zM96 168h506l158 895z" />
<glyph d="M31 344l14 78l752 1012h112l-178 -1008h180l-14 -82h-180l-62 -344h-88l62 344h-598zM139 426h504l156 887z" />
<glyph horiz-adv-x="1431" d="M84 631l8 57l393 488h97l-88 -482h98l-10 -63h-99l-28 -160h-72l29 160h-328zM172 694h250l72 402zM348 0l688 1176h76l-690 -1176h-74zM791 63l40 52q83 -62 156 -62q72 0 130.5 52.5t58.5 140.5q0 62 -33 99.5t-94 37.5t-140 -47l-39 22l95 347h340l-11 -64h-280 l-56 -223q58 26 107 26q87 0 135.5 -55t48.5 -143q0 -107 -70.5 -182.5t-185.5 -75.5q-105 0 -202 75z" />
<glyph horiz-adv-x="473" d="M80 0l168 840h53l-123 -840h-98zM252 1014l29 162h106l-29 -162h-106z" />
<glyph horiz-adv-x="1062" d="M129 381l139 795h86l-141 -795q-15 -65 -13 -123t19 -101.5t67 -69.5t132 -26q289 0 346 318l143 797h84l-141 -801q-69 -393 -434 -393q-356 0 -287 399zM428 1288l203 256h123l112 -256h-63l-117 191l-182 -191h-76z" />
<glyph horiz-adv-x="471" d="M74 0l28 162h107l-29 -162h-106zM160 336l123 840h98l-168 -840h-53z" />
<glyph horiz-adv-x="997" d="M66 299l12 74h92l188 1061h695l-17 -82h-604l-104 -594h485l-14 -82h-486l-55 -303h301l-12 -74h-301l-53 -299h-89l54 299h-92z" />
<glyph horiz-adv-x="909" d="M53 242l10 65h84l154 869h610l-16 -78h-524l-82 -471h420l-13 -78h-422l-43 -242h258l-12 -65h-258l-41 -242h-84l43 242h-84z" />
<glyph horiz-adv-x="665" d="M-49 -137l10 55h59l113 635h453l-15 -72h-372l-58 -323h299l-12 -70h-299l-31 -170h189l-8 -55h-191l-29 -170h-77l28 170h-59z" />
<glyph horiz-adv-x="665" d="M145 958l11 56h59l113 635h452l-14 -72h-373l-57 -324h299l-12 -69h-299l-31 -170h190l-10 -56h-190l-29 -170h-78l29 170h-60z" />
<glyph horiz-adv-x="409" d="M10 596q40 14 64 26.5t40 25t26 37t15 45.5t13 69l100 573h-73l12 62h72l20 108q14 77 43.5 109t89.5 32q61 0 160 -41l-37 -55q-83 29 -117 29q-51 0 -65 -74l-21 -108h154l-14 -62h-150l-100 -571q-8 -43 -11 -60.5t-10.5 -47.5t-13.5 -41t-17.5 -30.5t-25 -28t-34 -21 t-45.5 -21.5t-60 -19z" />
<glyph horiz-adv-x="647" d="M29 481l12 72h543l-13 -72h-233l-139 -788h-78l139 788h-231z" />
<glyph horiz-adv-x="987" d="M72 0l207 1176h83l-38 -222h229q153 0 245.5 -67t92.5 -213q0 -139 -63 -234.5t-165.5 -138.5t-236.5 -43h-225l-45 -258h-84zM215 336h217q75 0 140 20t117 60t82 105.5t30 150.5q0 107 -67 156t-181 49h-242z" />
<glyph horiz-adv-x="843" d="M72 -301l37 68q42 -27 88 -27q48 0 81 32.5t33 102.5q0 55 -20 125h-23l195 1098h-326l13 78h739l-15 -78h-327l-193 -1098h-16q39 -65 39 -147q0 -84 -47.5 -136.5t-132.5 -52.5q-72 0 -125 35z" />
<glyph horiz-adv-x="843" d="M137 1098l13 78h739l-15 -78h-327l-193 -1098h-86l195 1098h-326zM365 1544h63l119 -190l182 190h74l-203 -256h-121z" />
<glyph horiz-adv-x="864" d="M147 1098l13 78h739l-14 -78h-328l-111 -631h168l-12 -68h-168l-69 -399h-86l69 399h-166l13 68h165l113 631h-326z" />
<glyph horiz-adv-x="710" d="M-47 -307l110 629q49 270 269 270q95 0 152 -45.5t57 -126.5q0 -38 -13.5 -70.5t-27.5 -45.5l-13 -13q-23 -9 -33 -13t-33.5 -17t-35.5 -25t-22.5 -32.5t-10.5 -43.5q0 -10 1.5 -19.5t7 -19t9 -16t13 -17.5t14 -16.5t18.5 -19t19 -19.5q29 -30 44 -49t28.5 -51t13.5 -68 q0 -84 -60 -135.5t-141 -51.5q-87 0 -194 68l39 51q86 -55 151 -55q51 0 90 33.5t39 89.5q0 35 -16 60.5t-55 64.5q-27 27 -36 36.5t-26 33t-23.5 46t-6.5 50.5q0 24 7 46t15 37t25.5 30.5t28 23t33.5 19t30 14.5t29 12q20 33 20 76q0 54 -36 84t-99 30q-157 0 -195 -211 l-110 -624h-76z" />
<glyph horiz-adv-x="710" d="M145 788l111 629q49 271 268 271q95 0 152 -45.5t57 -126.5q0 -38 -13.5 -70.5t-26.5 -45.5l-13 -14q-23 -9 -33 -13t-33.5 -17t-35.5 -25t-22.5 -32.5t-10.5 -43.5q0 -10 1.5 -19.5t7 -19t9 -16t13 -17.5t14 -16.5t18.5 -19t19 -19.5q29 -30 44 -48.5t28.5 -50.5 t13.5 -68q0 -84 -60 -135.5t-141 -51.5q-88 0 -195 68l39 51q86 -55 152 -55q51 0 90 33.5t39 89.5q0 35 -16 59.5t-56 64.5q-27 27 -36 36.5t-26 33t-23.5 46t-6.5 50.5t7.5 52t23.5 42.5t29 31t38 25.5t35.5 17.5t34.5 14.5q21 35 21 75q0 54 -36.5 84.5t-99.5 30.5 q-156 0 -194 -211l-111 -625h-76z" />
<glyph horiz-adv-x="677" d="M-94 -526l26 67q130 -45 213 -45q42 0 74.5 14t51 37t28.5 46.5t14 50.5l27 155q-108 -121 -219 -121q-66 0 -111 53t-45 165q0 193 75.5 324.5t192.5 131.5q92 0 187 -110l16 96h76l-123 -694q-22 -119 -82.5 -166t-156.5 -47q-113 0 -244 43zM43 -98q0 -73 24.5 -114.5 t71.5 -41.5q56 0 106.5 34t108.5 95l54 301q-81 109 -164 109q-60 0 -107 -58t-70.5 -144.5t-23.5 -180.5z" />
<glyph horiz-adv-x="843" d="M137 1098l13 78h739l-15 -78h-327l-193 -1098h-86l195 1098h-326z" />
<glyph horiz-adv-x="696" d="M129 874l47 58q129 -88 234 -88q82 0 138 45.5t56 120.5q0 24 -5.5 44.5t-19.5 38.5t-26.5 30.5t-37.5 29t-41 25t-48 26.5q-45 25 -72 43.5t-56 46t-42.5 63t-13.5 79.5q0 102 74.5 164.5t183.5 62.5q124 0 256 -80l-45 -57q-110 67 -211 67q-73 0 -124.5 -42 t-51.5 -115q0 -31 9 -54t32.5 -43.5t46.5 -35t69 -39.5q50 -28 78 -46.5t61.5 -49.5t48.5 -68.5t15 -85.5q0 -110 -81 -175t-193 -65q-141 0 -281 100z" />
<glyph horiz-adv-x="1062" d="M129 381l139 795h86l-141 -795q-15 -65 -13 -123t19 -101.5t67 -69.5t132 -26q289 0 346 318l143 797h84l-141 -801q-69 -393 -434 -393q-356 0 -287 399zM463 1309l29 159h108l-29 -159h-108zM731 1309l29 159h108l-28 -159h-109z" />
<glyph horiz-adv-x="679" d="M100 569l27 68q130 -45 213 -45q42 0 74.5 13.5t51 36.5t28.5 46.5t14 50.5l27 156q-44 -49 -102 -85t-118 -36q-66 0 -110.5 52.5t-44.5 164.5q0 193 75.5 325t192.5 132q40 0 79 -20.5t60 -40.5t47 -50l17 97h76l-123 -695q-22 -119 -83 -166t-157 -47q-113 0 -244 43z M238 997q0 -73 24.5 -114t71.5 -41q56 0 106.5 34t108.5 95l53 301q-81 108 -164 108q-60 0 -106.5 -58t-70 -144.5t-23.5 -180.5z" />
<glyph horiz-adv-x="696" d="M-66 -221l48 57q129 -88 233 -88q82 0 138.5 46t56.5 120q0 35 -12.5 63t-42 52.5t-53 39t-71.5 40.5q-45 25 -72 43t-56 46t-42.5 63t-13.5 79q0 102 74.5 164.5t183.5 62.5q124 0 256 -80l-45 -57q-112 68 -211 68q-73 0 -124.5 -42.5t-51.5 -115.5q0 -58 34.5 -91 t123.5 -81q50 -28 78 -46.5t61 -49.5t48 -68.5t15 -85.5q0 -110 -81 -175t-193 -65q-140 0 -281 101z" />
<glyph horiz-adv-x="917" d="M14 113l56 65q175 -119 323 -119q119 0 201 65.5t82 174.5q0 41 -14 76.5t-33.5 60.5t-57 52t-66 43.5t-79.5 43.5q-52 29 -80.5 46.5t-68 48t-59.5 59t-35 70t-15 90.5q0 138 102.5 221.5t249.5 83.5q168 0 338 -104l-51 -64q-65 39 -144.5 64.5t-148.5 25.5 q-105 0 -180.5 -61t-75.5 -166q0 -44 13 -76.5t45.5 -61.5t66 -49.5t96.5 -54.5q56 -31 87.5 -50t75 -53t66 -65t39.5 -76.5t17 -97.5q0 -102 -56.5 -177.5t-140 -110.5t-178.5 -35q-187 0 -375 131zM197 -483l98 180h-53l28 166h109l-14 -166l-136 -217z" />
<glyph horiz-adv-x="1062" d="M129 381l139 795h86l-141 -795q-15 -65 -13 -123t19 -101.5t67 -69.5t132 -26q289 0 346 318l143 797h84l-141 -801q-69 -393 -434 -393q-356 0 -287 399zM457 1544h135l166 -256h-68z" />
<glyph horiz-adv-x="1062" d="M129 381l139 795h86l-141 -795q-15 -65 -13 -123t19 -101.5t67 -69.5t132 -26q289 0 346 318l143 797h84l-141 -801q-69 -393 -434 -393q-356 0 -287 399zM471 1288l162 256h139l-237 -256h-64zM700 1288l162 256h139l-237 -256h-64z" />
<glyph horiz-adv-x="917" d="M14 113l56 65q175 -119 323 -119q119 0 201 65.5t82 174.5q0 41 -14 76.5t-33.5 60.5t-57 52t-66 43.5t-79.5 43.5q-52 29 -80.5 46.5t-68 48t-59.5 59t-35 70t-15 90.5q0 138 102.5 221.5t249.5 83.5q168 0 338 -104l-51 -64q-65 39 -144.5 64.5t-148.5 25.5 q-105 0 -180.5 -61t-75.5 -166q0 -44 13 -76.5t45.5 -61.5t66 -49.5t96.5 -54.5q56 -31 87.5 -50t75 -53t66 -65t39.5 -76.5t17 -97.5q0 -102 -56.5 -177.5t-140 -110.5t-178.5 -35q-187 0 -375 131zM358 1288l203 256h123l113 -256h-64l-117 191l-182 -191h-76z" />
<glyph horiz-adv-x="917" d="M14 113l56 65q175 -119 323 -119q119 0 201 65.5t82 174.5q0 41 -14 76.5t-33.5 60.5t-57 52t-66 43.5t-79.5 43.5q-52 29 -80.5 46.5t-68 48t-59.5 59t-35 70t-15 90.5q0 138 102.5 221.5t249.5 83.5q168 0 338 -104l-51 -64q-65 39 -144.5 64.5t-148.5 25.5 q-105 0 -180.5 -61t-75.5 -166q0 -44 13 -76.5t45.5 -61.5t66 -49.5t96.5 -54.5q56 -31 87.5 -50t75 -53t66 -65t39.5 -76.5t17 -97.5q0 -74 -30 -135t-80.5 -100t-113 -61t-130.5 -25q30 -67 30 -131q0 -84 -47.5 -136.5t-132.5 -52.5q-72 0 -125 35l37 68q42 -27 88 -27 q48 0 81.5 32.5t33.5 102.5q0 38 -17 109q-173 10 -344 129z" />
<glyph horiz-adv-x="681" d="M-47 -307l158 895h75l-59 -340q146 104 240 104q79 0 110 -52.5t15 -139.5l-82 -467h-76l82 461q22 133 -72 133q-56 0 -120.5 -36.5t-110.5 -78.5l-84 -479h-76z" />
<glyph horiz-adv-x="917" d="M14 113l56 65q175 -119 323 -119q119 0 201 65.5t82 174.5q0 41 -14 76.5t-33.5 60.5t-57 52t-66 43.5t-79.5 43.5q-52 29 -80.5 46.5t-68 48t-59.5 59t-35 70t-15 90.5q0 138 102.5 221.5t249.5 83.5q168 0 338 -104l-51 -64q-65 39 -144.5 64.5t-148.5 25.5 q-105 0 -180.5 -61t-75.5 -166q0 -44 13 -76.5t45.5 -61.5t66 -49.5t96.5 -54.5q56 -31 87.5 -50t75 -53t66 -65t39.5 -76.5t17 -97.5q0 -102 -56.5 -177.5t-140 -110.5t-178.5 -35q-187 0 -375 131zM403 1544h64l119 -190l182 190h74l-203 -256h-121z" />
<glyph horiz-adv-x="794" d="M16 -16l101 569h78l-101 -573q-10 -63 -8.5 -114t38.5 -83.5t112 -32.5q109 0 164.5 60.5t74.5 166.5l103 576h75l-102 -582q-52 -293 -318 -293q-272 0 -217 306z" />
<glyph horiz-adv-x="919" d="M14 113l56 65q175 -119 323 -119q119 0 201 65.5t82 174.5q0 41 -14 76.5t-33.5 60.5t-57 52t-66 43.5t-79.5 43.5q-52 29 -80.5 46.5t-68 48t-59.5 59t-35 70t-15 90.5q0 138 102.5 221.5t249.5 83.5q168 0 338 -104l-51 -64q-65 39 -144.5 64.5t-148.5 25.5 q-105 0 -180.5 -61t-75.5 -166q0 -44 13 -76.5t45.5 -61.5t66 -49.5t96.5 -54.5q56 -31 87.5 -50t75 -53t66 -65t39.5 -76.5t17 -97.5q0 -102 -56.5 -177.5t-140 -110.5t-178.5 -35q-187 0 -375 131zM467 1288l235 256h156l-311 -256h-80z" />
<glyph horiz-adv-x="917" d="M14 113l56 65q175 -119 323 -119q119 0 201 65.5t82 174.5q0 41 -14 76.5t-33.5 60.5t-57 52t-66 43.5t-79.5 43.5q-52 29 -80.5 46.5t-68 48t-59.5 59t-35 70t-15 90.5q0 138 102.5 221.5t249.5 83.5q168 0 338 -104l-51 -64q-65 39 -144.5 64.5t-148.5 25.5 q-105 0 -180.5 -61t-75.5 -166q0 -44 13 -76.5t45.5 -61.5t66 -49.5t96.5 -54.5q56 -31 87.5 -50t75 -53t66 -65t39.5 -76.5t17 -97.5q0 -102 -56.5 -177.5t-140 -110.5t-178.5 -35q-187 0 -375 131z" />
<glyph horiz-adv-x="770" d="M166 788l151 861h261q116 0 181.5 -48.5t65.5 -150.5q0 -116 -69.5 -189.5t-182.5 -91.5l140 -381h-80l-131 375h-193l-65 -375h-78zM322 1233h176q114 0 182 56.5t68 156.5q0 68 -48.5 100.5t-128.5 32.5h-188z" />
<glyph horiz-adv-x="768" d="M-27 -307l152 860h260q116 0 182 -48.5t66 -150.5q0 -116 -69.5 -189t-182.5 -91l139 -381h-80l-131 375h-192l-66 -375h-78zM129 137h176q114 0 182 56.5t68 156.5q0 68 -48 100.5t-128 32.5h-189z" />
<glyph horiz-adv-x="1030" d="M72 0l207 1176h348q155 0 245.5 -64t90.5 -203q0 -164 -99 -261t-256 -120l199 -528h-88l-191 522h-280l-92 -522h-84zM248 -483l98 180h-53l29 166h108l-14 -166l-135 -217zM262 600h252q164 0 262 79.5t98 225.5q0 98 -68 145.5t-183 47.5h-273z" />
<glyph horiz-adv-x="1030" d="M72 0l207 1176h348q155 0 245.5 -64t90.5 -203q0 -164 -99 -261t-256 -120l199 -528h-88l-191 522h-280l-92 -522h-84zM262 600h252q164 0 262 79.5t98 225.5q0 98 -68 145.5t-183 47.5h-273zM487 1544h64l119 -190l182 190h74l-203 -256h-121z" />
<glyph horiz-adv-x="1030" d="M72 0l207 1176h348q155 0 245.5 -64t90.5 -203q0 -164 -99 -261t-256 -120l199 -528h-88l-191 522h-280l-92 -522h-84zM262 600h252q164 0 262 79.5t98 225.5q0 98 -68 145.5t-183 47.5h-273zM553 1288l235 256h156l-311 -256h-80z" />
<glyph horiz-adv-x="305" d="M-49 -307l115 645h73l-112 -645h-76zM86 477l18 109h82l-18 -109h-82z" />
<glyph horiz-adv-x="1030" d="M72 0l207 1176h348q155 0 245.5 -64t90.5 -203q0 -164 -99 -261t-256 -120l199 -528h-88l-191 522h-280l-92 -522h-84zM262 600h252q164 0 262 79.5t98 225.5q0 98 -68 145.5t-183 47.5h-273z" />
<glyph horiz-adv-x="831" d="M193 1087q0 46 8.5 102.5t25.5 123t48 127.5t71 111.5t99 81t128 30.5q137 0 208 -79t71 -234q0 -51 -9.5 -114.5t-33 -137.5t-58 -137t-89.5 -113t-121 -66l108 -125l-59 -51l-127 168q-132 2 -201 81t-69 232zM272 1087q0 -241 201 -241q65 0 118.5 40.5t86 100.5 t55 131.5t31 129.5t8.5 100q0 243 -199 243q-55 0 -102 -28.5t-79 -75t-56 -101.5t-37.5 -113t-20 -105t-6.5 -81z" />
<glyph horiz-adv-x="1062" d="M129 381l139 795h86l-141 -795q-15 -65 -13 -123t19 -101.5t67 -69.5t132 -26q289 0 346 318l143 797h84l-141 -801q-69 -393 -434 -393q-356 0 -287 399zM420 1339l12 74h473l-14 -74h-471z" />
<glyph horiz-adv-x="1062" d="M129 381l139 795h86l-141 -795q-15 -65 -13 -123t19 -101.5t67 -69.5t132 -26q289 0 346 318l143 797h84l-141 -801q-57 -312 -293 -375q-113 -68 -160 -116.5t-47 -102.5q0 -15 4.5 -26.5t15.5 -18t20.5 -10.5t27.5 -5t27.5 -1.5t29.5 -0.5l-26 -77q-21 0 -36 1t-38.5 4 t-40 11.5t-33 21t-25 34t-8.5 50.5q0 122 166 218h-18q-356 0 -287 399z" />
<glyph horiz-adv-x="833" d="M0 -8q0 57 11.5 126.5t40 150t70 146t109.5 109t150 43.5q137 0 207.5 -79t70.5 -234q0 -51 -9.5 -114t-33 -137t-58 -137.5t-89.5 -113t-121 -65.5l109 -125l-60 -51l-127 167q-132 2 -201 81.5t-69 232.5zM80 -8q0 -242 201 -242q65 0 118.5 40.5t86 100.5t55 131.5 t31 129.5t8.5 100q0 244 -199 244q-55 0 -102 -28.5t-79 -75t-56 -101.5t-37.5 -113t-20 -105t-6.5 -81z" />
<glyph horiz-adv-x="630" d="M-31 -51q0 173 89 288t229 115q86 0 133 -43t47 -114q0 -103 -92 -162.5t-269 -59.5h-59v-28q0 -98 34 -149.5t97 -51.5q13 0 26 2t27 6t25 8t26 11.5t23.5 11.5t23.5 13.5t20 12.5t20 12.5t16 10.5l31 -57q-147 -97 -248 -97q-92 0 -145.5 69.5t-53.5 201.5zM53 31h62 q138 0 207 46t69 118q0 45 -29.5 69.5t-78.5 24.5q-84 0 -147.5 -71.5t-82.5 -186.5z" />
<glyph horiz-adv-x="1118" d="M106 406q0 53 8 117t26.5 140.5t46 150.5t69.5 143t94 121.5t123 84t152 31.5q187 0 283 -107t96 -317q0 -71 -13.5 -159t-47.5 -191.5t-82.5 -191t-127.5 -154t-174 -84.5l154 -178l-70 -56l-174 226q-180 4 -271.5 112t-91.5 312zM195 406q0 -345 290 -345 q94 0 171 57.5t123.5 141.5t78.5 185.5t44.5 183.5t12.5 141q0 344 -290 344q-79 0 -146.5 -40t-113 -105.5t-80 -143t-53.5 -159t-28 -147t-9 -113.5z" />
<glyph horiz-adv-x="735" d="M166 788l151 861h234q116 0 184 -51t68 -158q0 -149 -93.5 -228t-246.5 -79h-158l-61 -345h-78zM317 1202h150q109 0 181.5 60t72.5 174q0 74 -46.5 108.5t-125.5 34.5h-166z" />
<glyph horiz-adv-x="735" d="M-27 -307l152 860h233q116 0 184 -51t68 -158q0 -149 -93.5 -228t-246.5 -79h-157l-62 -344h-78zM125 106h149q109 0 181.5 60t72.5 174q0 74 -46.5 108.5t-125.5 34.5h-166z" />
<glyph horiz-adv-x="305" d="M-207 -500q93 32 117 58t35 94l121 686h75l-121 -682q-7 -40 -11 -57.5t-13.5 -43t-21.5 -37.5t-34.5 -28t-53 -28t-76.5 -25zM88 477l18 109h82l-18 -109h-82z" />
<glyph d="M53 307q0 56 14 107t36 90.5t55.5 76.5t66.5 64t74.5 53t74.5 42.5t72 33.5q-184 108 -184 309q0 164 114.5 268.5t276.5 104.5q140 0 220.5 -82.5t80.5 -208.5q0 -66 -23.5 -126t-57.5 -101t-81.5 -77.5t-84.5 -56.5t-78 -38q50 -29 88.5 -59t79.5 -75t63.5 -105.5 t22.5 -131.5q0 -93 -40 -173t-106.5 -132.5t-151.5 -82.5t-175 -30q-158 0 -257.5 86t-99.5 244zM145 307q0 -122 73 -185t190 -63q152 0 266 94t114 244q0 49 -15.5 93.5t-38.5 76.5t-59 63.5t-66 52t-72 44.5q-66 -30 -113.5 -55t-103.5 -64.5t-91.5 -80.5t-59.5 -98.5 t-24 -121.5zM350 1079q0 -165 191 -266q325 134 325 348q0 92 -59.5 152.5t-159.5 60.5q-123 0 -210 -86.5t-87 -208.5z" />
<glyph horiz-adv-x="978" d="M72 0l207 1176h313q73 0 132 -15t106 -47.5t72.5 -88.5t25.5 -132q0 -138 -62.5 -233t-164.5 -138t-236 -43h-223l-86 -479h-84zM254 557h217q75 0 140 20t116.5 60t81 105.5t29.5 150.5q0 107 -66.5 156t-179.5 49h-244z" />
<glyph horiz-adv-x="1118" d="M106 406q0 53 8 117t26.5 140.5t46 150.5t69.5 143t94 121.5t123 84t152 31.5q187 0 283 -107t96 -317q0 -53 -8 -117.5t-26.5 -140.5t-46 -150t-70 -143t-94 -121.5t-122.5 -84t-152 -31.5q-187 0 -283 107.5t-96 316.5zM195 406q0 -345 290 -345q94 0 171 57.5 t123.5 141.5t78.5 185.5t44.5 183.5t12.5 141q0 344 -290 344q-79 0 -146.5 -40t-113 -105.5t-80 -143t-53.5 -159t-28 -147t-9 -113.5zM453 1352q42 72 74.5 102.5t76.5 30.5q29 0 56.5 -16t45.5 -34.5t39.5 -34.5t40.5 -16q21 0 42 19t57 76l53 -37q-44 -72 -77 -102.5 t-77 -30.5q-37 0 -70.5 25t-61.5 50t-50 25t-42 -17t-56 -75z" />
<glyph horiz-adv-x="831" d="M193 1087q0 46 8.5 102.5t25.5 123t48 127.5t71 111.5t99 81t128 30.5q137 0 209 -79.5t72 -233.5q0 -46 -8.5 -102.5t-26 -123t-48 -127.5t-71 -111.5t-99.5 -81t-128 -30.5q-137 0 -208.5 79t-71.5 234zM272 1087q0 -241 201 -241q55 0 102 28.5t79 75t56 101.5 t37.5 112.5t20 104t6.5 80.5q0 243 -201 243q-55 0 -102 -28.5t-79 -75t-56 -101.5t-37.5 -113t-20 -105t-6.5 -81z" />
<glyph horiz-adv-x="585" d="M-47 -307l158 895h75l-104 -594l293 344h92l-236 -264l154 -381h-76l-129 323l-119 -133l-32 -190h-76z" />
<glyph horiz-adv-x="583" d="M145 788l158 895h76l-105 -593l293 344h92l-235 -265l154 -381h-76l-129 324l-119 -133l-33 -191h-76z" />
<glyph horiz-adv-x="1118" d="M25 0l131 162q-47 94 -47 244q0 77 15.5 172t54.5 205.5t95.5 200.5t148.5 150t204 60q181 0 276 -102l68 84h80l-109 -136q64 -106 64 -270q0 -53 -8 -117.5t-26.5 -140.5t-46 -150t-70 -143t-94 -121.5t-122.5 -84t-152 -31.5q-204 0 -299 124l-86 -106h-77zM197 406 q0 -99 22 -164l629 782q-71 90 -221 90q-79 0 -146.5 -40t-113 -105.5t-80 -143t-53.5 -159t-28 -147t-9 -113.5zM246 178q71 -117 241 -117q94 0 171 57.5t123.5 141.5t79 185.5t45 183.5t12.5 141q0 120 -35 197zM549 1288l235 256h156l-311 -256h-80z" />
<glyph horiz-adv-x="1067" d="M74 307q0 56 14 107t36 90.5t55.5 76.5t66.5 64t74.5 53t74.5 42.5t72 33.5q-184 108 -184 309q0 164 114.5 268.5t276.5 104.5q140 0 220.5 -82.5t80.5 -208.5q0 -66 -24 -126t-57.5 -101t-81.5 -77.5t-85 -56.5t-78 -38q50 -29 88.5 -59t79.5 -75t63.5 -105.5 t22.5 -131.5q0 -93 -40 -173t-106.5 -132.5t-151.5 -82.5t-175 -30q-158 0 -257 86t-99 244zM166 307q0 -122 73 -185t189 -63q152 0 266.5 94t114.5 244q0 49 -15.5 93.5t-38.5 76.5t-59.5 64t-66.5 52t-72 44q-65 -30 -113 -55t-104 -64.5t-91 -80.5t-59 -98.5t-24 -121.5 zM371 1079q0 -166 190 -266q326 135 326 348q0 92 -59.5 152.5t-159.5 60.5q-123 0 -210 -86.5t-87 -208.5z" />
<glyph horiz-adv-x="1118" d="M106 406q0 53 8 117t26.5 140.5t46 150.5t69.5 143t94 121.5t123 84t152 31.5q187 0 283 -107t96 -317q0 -53 -8 -117.5t-26.5 -140.5t-46 -150t-70 -143t-94 -121.5t-122.5 -84t-152 -31.5q-187 0 -283 107.5t-96 316.5zM195 406q0 -345 290 -345q94 0 171 57.5 t123.5 141.5t78.5 185.5t44.5 183.5t12.5 141q0 344 -290 344q-79 0 -146.5 -40t-113 -105.5t-80 -143t-53.5 -159t-28 -147t-9 -113.5zM449 1339l12 74h473l-14 -74h-471z" />
<glyph horiz-adv-x="831" d="M0 -8q0 57 11.5 126.5t40 150t70 146t109.5 109t150 43.5q137 0 209 -79.5t72 -233.5q0 -46 -8.5 -102.5t-26 -123t-48 -127.5t-71 -111.5t-99.5 -81t-128 -30.5q-137 0 -209 79.5t-72 234.5zM80 -8q0 -242 201 -242q55 0 102 28.5t79 75t56 101.5t37.5 112.5t20 104 t6.5 80.5q0 244 -201 244q-55 0 -102 -28.5t-79 -75t-56 -101.5t-37.5 -113t-20 -105t-6.5 -81z" />
<glyph horiz-adv-x="1120" d="M106 406q0 53 8 117t26.5 140.5t46 150.5t69.5 143t94 121.5t123 84t152 31.5q187 0 283 -107t96 -317q0 -53 -8 -117.5t-26.5 -140.5t-46 -150t-70 -143t-94 -121.5t-122.5 -84t-152 -31.5q-187 0 -283 107.5t-96 316.5zM195 406q0 -345 290 -345q94 0 171 57.5 t123.5 141.5t78.5 185.5t44.5 183.5t12.5 141q0 344 -290 344q-79 0 -146.5 -40t-113 -105.5t-80 -143t-53.5 -159t-28 -147t-9 -113.5zM500 1288l162 256h139l-238 -256h-63zM729 1288l162 256h139l-237 -256h-64z" />
<glyph horiz-adv-x="1118" d="M106 406q0 53 8 117t26.5 140.5t46 150.5t69.5 143t94 121.5t123 84t152 31.5q187 0 283 -107t96 -317q0 -53 -8 -117.5t-26.5 -140.5t-46 -150t-70 -143t-94 -121.5t-122.5 -84t-152 -31.5q-187 0 -283 107.5t-96 316.5zM195 406q0 -345 290 -345q94 0 171 57.5 t123.5 141.5t78.5 185.5t44.5 183.5t12.5 141q0 344 -290 344q-79 0 -146.5 -40t-113 -105.5t-80 -143t-53.5 -159t-28 -147t-9 -113.5zM485 1544h136l165 -256h-67z" />
<glyph horiz-adv-x="708" d="M117 764q0 44 15.5 83.5t38.5 67t57 53t62.5 41t63.5 31.5q-110 68 -110 183q0 99 73 162t179 63q92 0 146 -51t54 -129q0 -150 -192 -236q153 -83 153 -219q0 -112 -89.5 -183t-213.5 -71q-107 0 -172 54t-65 151zM197 766q0 -68 43 -103.5t112 -35.5q90 0 158 52 t68 134q0 65 -41 108t-109 80q-50 -21 -84 -39.5t-71.5 -47t-56.5 -66t-19 -82.5zM319 1219q0 -91 111 -148q188 73 188 191q0 51 -34 84.5t-92 33.5q-72 0 -122.5 -47.5t-50.5 -113.5z" />
<glyph horiz-adv-x="305" d="M-47 -307l158 895h75l-157 -895h-76z" />
<glyph horiz-adv-x="708" d="M14 190q0 55 22 101t61 79.5t74.5 55t80.5 41.5q-111 69 -111 182q0 99 73 162t179 63q93 0 147 -51t54 -129q0 -148 -193 -235q154 -83 154 -219q0 -112 -89.5 -183t-213.5 -71q-107 0 -172.5 53.5t-65.5 150.5zM94 193q0 -68 43.5 -104t112.5 -36q90 0 157.5 52.5 t67.5 134.5q0 65 -40.5 108t-108.5 80q-50 -21 -84.5 -39.5t-72 -47t-56.5 -66t-19 -82.5zM217 645q0 -90 111 -147q188 73 188 190q0 51 -34.5 85t-92.5 34q-72 0 -122 -48t-50 -114z" />
<glyph horiz-adv-x="860" d="M29 0l12 66q6 5 16 14t38.5 38t54 59.5t55 76t49.5 90.5h-148l11 72h162q14 46 14 98q0 23 -2 33h-150l13 71h125q-7 28 -23.5 80t-26.5 96t-10 87q0 138 87 225.5t226 87.5q47 0 90 -10t84.5 -31.5t61.5 -34t59 -39.5l-51 -57q-144 94 -241 94q-101 0 -167.5 -66.5 t-66.5 -172.5q0 -43 10.5 -86.5t27 -93t23.5 -79.5h269l-13 -71h-245q2 -10 2 -29q0 -48 -13 -102h232l-12 -72h-242q-55 -140 -188 -266h481l-12 -78h-592z" />
<glyph horiz-adv-x="630" d="M-63 -307l10 59q4 3 11 9t27 26t38 41.5t39.5 53t35.5 63.5h-106l10 59h117q8 40 8 64q0 16 -2 24h-107l9 60h88q-3 11 -16.5 53t-19 70.5t-5.5 60.5q0 102 63.5 166.5t167.5 64.5q47 0 94 -17t69 -31t60 -42l-47 -51q-101 70 -172 70q-69 0 -114 -46t-45 -120 q0 -30 6.5 -59t19 -64.5t17.5 -54.5h192l-10 -60h-172v-20q0 -28 -8 -68h163l-10 -59h-172q-38 -94 -127 -183h338l-12 -69h-438z" />
<glyph horiz-adv-x="628" d="M129 788l10 60q11 9 29.5 25t59 66.5t63.5 100.5h-107l11 60h116q8 40 8 63q0 17 -2 25h-106l8 59h88q-3 10 -16.5 53t-19 71.5t-5.5 60.5q0 102 64 166.5t168 64.5q47 0 94 -17t69 -31t60 -42l-47 -51q-99 69 -172 69q-69 0 -114.5 -46t-45.5 -120q0 -30 6.5 -59 t19 -64.5t17.5 -54.5h193l-11 -59h-172v-21q0 -27 -8 -67h164l-10 -60h-172q-37 -92 -127 -182h338l-13 -70h-438z" />
<glyph horiz-adv-x="1118" d="M106 406q0 53 8 117t26.5 140.5t46 150.5t69.5 143t94 121.5t123 84t152 31.5q187 0 283 -107t96 -317q0 -53 -8 -117.5t-26.5 -140.5t-46 -150t-70 -143t-94 -121.5t-122.5 -84t-152 -31.5q-187 0 -283 107.5t-96 316.5zM195 406q0 -345 290 -345q94 0 171 57.5 t123.5 141.5t78.5 185.5t44.5 183.5t12.5 141q0 344 -290 344q-79 0 -146.5 -40t-113 -105.5t-80 -143t-53.5 -159t-28 -147t-9 -113.5zM492 1309l28 159h109l-29 -159h-108zM760 1309l28 159h109l-29 -159h-108z" />
<glyph horiz-adv-x="1118" d="M106 406q0 53 8 117t26.5 140.5t46 150.5t69.5 143t94 121.5t123 84t152 31.5q187 0 283 -107t96 -317q0 -53 -8 -117.5t-26.5 -140.5t-46 -150t-70 -143t-94 -121.5t-122.5 -84t-152 -31.5q-187 0 -283 107.5t-96 316.5zM195 406q0 -345 290 -345q94 0 171 57.5 t123.5 141.5t78.5 185.5t44.5 183.5t12.5 141q0 344 -290 344q-79 0 -146.5 -40t-113 -105.5t-80 -143t-53.5 -159t-28 -147t-9 -113.5zM457 1288l202 256h123l113 -256h-64l-116 191l-183 -191h-75z" />
<glyph horiz-adv-x="1062" d="M129 381l139 795h86l-141 -795q-15 -65 -13 -123t19 -101.5t67 -69.5t132 -26q289 0 346 318l143 797h84l-141 -801q-69 -393 -434 -393q-356 0 -287 399zM485 1454q0 80 54 135.5t133 55.5t134.5 -55.5t55.5 -135.5q0 -78 -55 -132t-135 -54q-79 0 -133 54t-54 132z M549 1454q0 -51 36 -86t87 -35q53 0 89 35t36 86q0 52 -36.5 88.5t-88.5 36.5q-51 0 -87 -36.5t-36 -88.5z" />
<glyph horiz-adv-x="1118" d="M106 406q0 53 8 117t26.5 140.5t46 150.5t69.5 143t94 121.5t123 84t152 31.5q187 0 283 -107t96 -317q0 -53 -8 -117.5t-26.5 -140.5t-46 -150t-70 -143t-94 -121.5t-122.5 -84t-152 -31.5q-187 0 -283 107.5t-96 316.5zM195 406q0 -345 290 -345q94 0 171 57.5 t123.5 141.5t78.5 185.5t44.5 183.5t12.5 141q0 344 -290 344q-79 0 -146.5 -40t-113 -105.5t-80 -143t-53.5 -159t-28 -147t-9 -113.5zM498 1487h71q-9 -66 17 -94.5t92 -28.5q154 0 176 123h76q-15 -92 -82.5 -145.5t-173.5 -53.5q-97 0 -145 54t-31 145z" />
<glyph horiz-adv-x="792" d="M209 1079l100 570h78l-100 -574q-10 -51 -10 -88.5t12.5 -71.5t47 -51.5t91.5 -17.5q109 0 165 60.5t75 166.5l102 576h76l-103 -582q-52 -293 -317 -293q-272 0 -217 305z" />
<glyph horiz-adv-x="1118" d="M106 406q0 53 8 117t26.5 140.5t46 150.5t69.5 143t94 121.5t123 84t152 31.5q187 0 283 -107t96 -317q0 -53 -8 -117.5t-26.5 -140.5t-46 -150t-70 -143t-94 -121.5t-122.5 -84t-152 -31.5q-187 0 -283 107.5t-96 316.5zM195 406q0 -345 290 -345q94 0 171 57.5 t123.5 141.5t78.5 185.5t44.5 183.5t12.5 141q0 344 -290 344q-79 0 -146.5 -40t-113 -105.5t-80 -143t-53.5 -159t-28 -147t-9 -113.5zM563 1288l236 256h155l-311 -256h-80z" />
<glyph horiz-adv-x="1632" d="M106 406q0 53 8 117t26.5 140.5t46 150.5t69.5 143t94 121.5t123 84t152 31.5q271 0 348 -223l37 205h610l-16 -78h-525l-82 -471h437l-15 -78h-436l-82 -471h535l-15 -78h-618l33 190q-138 -208 -351 -208q-187 0 -283 107.5t-96 316.5zM195 406q0 -345 290 -345 q94 0 171 57.5t123.5 141.5t78.5 185.5t44.5 183.5t12.5 141q0 344 -290 344q-79 0 -146.5 -40t-113 -105.5t-80 -143t-53.5 -159t-28 -147t-9 -113.5z" />
<glyph horiz-adv-x="1009" d="M-49 -307l115 645h75l-18 -98q112 112 215 112q63 0 94.5 -34.5t34.5 -88.5q118 123 227 123q79 0 108 -52.5t15 -137.5l-82 -469h-76l82 459q26 135 -67 135q-94 0 -211 -127l-82 -467h-76l82 459q12 60 -4 97.5t-66 37.5t-106 -37.5t-102 -87.5l-82 -469h-76z" />
<glyph horiz-adv-x="1062" d="M129 381l139 795h86l-141 -795q-15 -65 -13 -123t19 -101.5t67 -69.5t132 -26q289 0 346 318l143 797h84l-141 -801q-69 -393 -434 -393q-356 0 -287 399zM424 1352q42 72 74.5 102.5t76.5 30.5q37 0 70.5 -25.5t61.5 -50.5t51 -25q21 0 41.5 18.5t56.5 76.5l53 -37 q-44 -73 -77 -103t-76 -30q-29 0 -57 15.5t-46 34.5t-40 34.5t-40 15.5q-22 0 -42 -17t-56 -75z" />
<glyph horiz-adv-x="1026" d="M166 1176h88l158 -1076l534 1076h101l-601 -1176h-94z" />
<glyph horiz-adv-x="1118" d="M106 406q0 53 8 117t26.5 140.5t46 150.5t69.5 143t94 121.5t123 84t152 31.5q187 0 283 -107t96 -317q0 -53 -8 -117.5t-26.5 -140.5t-46 -150t-70 -143t-94 -121.5t-122.5 -84t-152 -31.5q-187 0 -283 107.5t-96 316.5zM195 406q0 -345 290 -345q94 0 171 57.5 t123.5 141.5t78.5 185.5t44.5 183.5t12.5 141q0 344 -290 344q-79 0 -146.5 -40t-113 -105.5t-80 -143t-53.5 -159t-28 -147t-9 -113.5z" />
<glyph horiz-adv-x="1099" d="M72 0l207 1176h88l383 -1041l184 1041h86l-207 -1176h-92l-383 1042l-182 -1042h-84zM455 1352q42 72 74.5 102.5t76.5 30.5q29 0 56.5 -16t45.5 -34.5t39.5 -34.5t40.5 -16q21 0 42 19t57 76l53 -37q-44 -72 -77 -102.5t-77 -30.5q-37 0 -70.5 25t-61.5 50t-50 25 t-42 -17t-56 -75z" />
<glyph horiz-adv-x="823" d="M166 788l151 861h82l260 -738l132 738h75l-151 -861h-80l-262 736l-129 -736h-78z" />
<glyph horiz-adv-x="823" d="M-27 -307l152 860h82l260 -737l131 737h76l-152 -860h-80l-262 735l-129 -735h-78z" />
<glyph horiz-adv-x="1099" d="M72 0l207 1176h88l383 -1041l184 1041h86l-207 -1176h-92l-383 1042l-182 -1042h-84zM297 -483l98 180h-53l29 166h108l-14 -166l-135 -217z" />
<glyph horiz-adv-x="1099" d="M72 0l207 1176h88l383 -1041l184 1041h86l-207 -1176h-92l-383 1042l-182 -1042h-84zM504 1544h63l119 -190l182 190h74l-203 -256h-121z" />
<glyph horiz-adv-x="1099" d="M72 0l207 1176h88l383 -1041l184 1041h86l-207 -1176h-92l-383 1042l-182 -1042h-84zM561 1288l236 256h155l-311 -256h-80z" />
<glyph horiz-adv-x="1099" d="M72 0l207 1176h88l383 -1041l184 1041h86l-207 -1176h-92l-383 1042l-182 -1042h-84z" />
<glyph horiz-adv-x="700" d="M25 4l30 64q31 -13 74 -13q120 0 219.5 102t140.5 255q-85 -101 -206 -101q-98 0 -152.5 69.5t-54.5 166.5q0 82 32 155.5t97.5 122.5t150.5 49q114 0 174 -84.5t60 -203.5q0 -157 -62 -295.5t-169 -221.5t-230 -83q-27 0 -53 4.5t-38 9.5zM154 547q0 -68 36.5 -118 t106.5 -50q69 0 129.5 47t83.5 96q4 23 4 66q0 89 -40.5 153t-115.5 64q-91 0 -147.5 -77t-56.5 -181z" />
<glyph horiz-adv-x="747" d="M37 553h82l102 -774l375 774h92l-436 -860h-84z" />
<glyph horiz-adv-x="1032" d="M33 -258l37 74q48 -19 118 -19q134 0 257.5 90t210.5 235.5t132 321.5q-22 -28 -50 -54.5t-72 -58.5t-102.5 -51.5t-121.5 -19.5q-80 0 -143 33.5t-101 89t-57.5 121.5t-19.5 137q0 81 18.5 160.5t56.5 150t90 125t124.5 86t154.5 31.5q87 0 156 -40t109.5 -106.5 t61.5 -145.5t21 -165q0 -268 -99 -504t-266.5 -377t-359.5 -141q-40 0 -78.5 6.5t-57.5 13.5zM211 641q0 -55 14 -106.5t42 -95.5t76 -70.5t110 -26.5q80 0 160 46.5t131 105t73 112.5q8 55 8 125q0 98 -27 182t-87.5 141.5t-145.5 57.5q-105 0 -187 -68t-124.5 -174.5 t-42.5 -228.5z" />
<glyph d="M74 4l37 74q48 -19 118 -19q134 0 257.5 90t210.5 236t132 322q-22 -28 -50 -54.5t-72 -59t-103 -52t-121 -19.5q-80 0 -143 33.5t-101 89t-57.5 121.5t-19.5 137q0 81 18.5 160.5t56.5 150t90 125t124.5 86t154.5 31.5q87 0 156 -40t109.5 -106.5t61.5 -145.5t21 -165 q0 -268 -99 -504t-266.5 -377t-359.5 -141q-40 0 -78.5 6.5t-57.5 13.5zM252 903q0 -55 14 -106.5t42 -95.5t76 -70.5t110 -26.5q80 0 160 46.5t131 105t73 112.5q8 55 8 125q0 98 -27 182t-87.5 141.5t-145.5 57.5q-105 0 -187 -68t-124.5 -174.5t-42.5 -228.5z" />
<glyph horiz-adv-x="747" d="M229 1649h82l103 -775l374 775h93l-437 -861h-84z" />
<glyph horiz-adv-x="1396" d="M180 1176h92l50 -1053l426 1053h90l49 -1057l422 1057h96l-485 -1176h-99l-51 1034l-418 -1034h-98z" />
<glyph horiz-adv-x="681" d="M-49 -307l115 645h75l-16 -90q138 104 240 104q79 0 109.5 -52.5t14.5 -139.5l-81 -467h-76l82 461q10 62 -4 97.5t-68 35.5q-56 0 -120.5 -36.5t-110.5 -78.5l-84 -479h-76z" />
<glyph horiz-adv-x="1396" d="M180 1176h92l50 -1053l426 1053h90l49 -1057l422 1057h96l-485 -1176h-99l-51 1034l-418 -1034h-98zM702 1288l236 256h156l-312 -256h-80z" />
<glyph horiz-adv-x="948" d="M29 113l55 65q130 -93 256 -115l90 517q-49 27 -78 45t-65.5 48t-56.5 58.5t-34 69t-14 88.5q0 138 103 221.5t250 83.5h6l26 152h68l-29 -158q130 -17 266 -98l-51 -64q-113 67 -229 84l-82 -473q51 -28 83 -48t71 -52t61 -63t37.5 -75t15.5 -94q0 -102 -56.5 -177.5 t-140 -110.5t-178.5 -35h-10l-26 -150h-68l27 156q-148 22 -297 125zM272 889q0 -75 40.5 -121t133.5 -96l80 444q-105 -2 -179.5 -62.5t-74.5 -164.5zM406 59h2q118 0 200 65.5t82 174.5q0 85 -49.5 140t-146.5 108z" />
<glyph horiz-adv-x="942" d="M166 788l151 861h82l142 -617l364 617h82l-151 -861h-78l123 697l-328 -553h-51l-131 575l-127 -719h-78z" />
<glyph horiz-adv-x="942" d="M-27 -307l152 860h82l141 -616l365 616h82l-152 -860h-78l123 696l-328 -553h-51l-131 576l-127 -719h-78z" />
<glyph horiz-adv-x="1150" d="M55 319l13 72h215l120 391h-204l12 72h215l100 322h74l-100 -322h305l98 322h74l-100 -322h208l-12 -72h-219l-121 -391h209l-12 -72h-219l-99 -319h-71l98 319h-305l-98 -319h-74l98 319h-205zM356 391h306l120 391h-305z" />
<glyph horiz-adv-x="833" d="M-47 -80l12 66h152l84 272h-144l11 66h153l72 229h63l-71 -229h211l69 229h64l-72 -229h148l-13 -66h-155l-82 -272h145l-12 -66h-154l-69 -227h-64l70 227h-209l-70 -227h-65l69 227h-143zM182 -14h209l84 272h-211z" />
<glyph horiz-adv-x="831" d="M145 1016l13 65h151l84 273h-143l10 65h154l71 230h64l-72 -230h211l70 230h63l-71 -230h147l-12 -65h-156l-82 -273h146l-13 -65h-153l-70 -228h-63l69 228h-209l-69 -228h-66l70 228h-144zM375 1081h209l84 273h-211z" />
<glyph horiz-adv-x="1263" d="M72 0l207 1176h94l202 -867l517 867h94l-207 -1176h-86l176 999l-477 -802h-64l-194 823l-178 -1020h-84z" />
<glyph horiz-adv-x="626" d="M166 788l151 861h78l-139 -791h365l-13 -70h-442z" />
<glyph horiz-adv-x="806" d="M45 414l16 92l123 67l107 603h84l-96 -549l223 125l-17 -93l-223 -124l-80 -457h508l-12 -78h-594l84 483z" />
<glyph horiz-adv-x="624" d="M-27 -307l152 860h78l-140 -791h365l-12 -69h-443z" />
<glyph horiz-adv-x="821" d="M72 0l207 1176h83l-192 -1098h508l-12 -78h-594zM557 532l29 160h110l-28 -160h-111z" />
<glyph horiz-adv-x="817" d="M72 0l207 1176h83l-192 -1098h508l-12 -78h-594zM215 -483l98 180h-53l29 166h108l-14 -166l-135 -217z" />
<glyph horiz-adv-x="1396" d="M180 1176h92l50 -1053l426 1053h90l49 -1057l422 1057h96l-485 -1176h-99l-51 1034l-418 -1034h-98zM594 1288l203 256h123l112 -256h-63l-117 191l-182 -191h-76z" />
<glyph horiz-adv-x="817" d="M72 0l207 1176h83l-192 -1098h508l-12 -78h-594zM371 829l98 181h-53l28 166h109l-14 -166l-136 -217z" />
<glyph horiz-adv-x="817" d="M72 0l207 1176h83l-192 -1098h508l-12 -78h-594zM221 1288l236 256h155l-311 -256h-80z" />
<glyph horiz-adv-x="677" d="M-31 -74q0 105 33 200.5t103 160.5t163 65q107 0 168.5 -62t61.5 -186q0 -106 -32.5 -201t-102 -160t-162.5 -65q-107 0 -169.5 62.5t-62.5 185.5zM45 -74q0 -182 154 -182q45 0 83.5 25t63.5 64t42.5 88t25.5 95.5t8 87.5q0 183 -154 183q-55 0 -100 -37.5t-70.5 -94.5 t-39 -117t-13.5 -112z" />
<glyph horiz-adv-x="817" d="M72 0l207 1176h83l-192 -1098h508l-12 -78h-594z" />
<glyph horiz-adv-x="731" d="M166 788l151 861h78l-86 -488l432 488h101l-373 -414l254 -447h-86l-219 390l-131 -146l-43 -244h-78z" />
<glyph horiz-adv-x="485" d="M74 752l190 108h70l-152 -860h-78l136 770l-138 -78z" />
<glyph horiz-adv-x="483" d="M174 1325l191 109h69l-151 -861h-78l135 770l-137 -77z" />
<glyph horiz-adv-x="595" d="M133 1004l295 172h76l-209 -1176h-88l188 1065l-227 -133z" />
<glyph d="M53 0l15 82h338l219 1241l-328 -190l-33 69l393 232h76l-239 -1352h344l-15 -82h-770z" />
<glyph horiz-adv-x="677" d="M-35 -104q0 193 76.5 324.5t194.5 131.5q92 0 182 -110l61 346h76l-158 -895h-75l18 102q-113 -117 -219 -117q-66 0 -111 53t-45 165zM43 -98q0 -73 24.5 -114.5t71.5 -41.5q56 0 107 33.5t108 93.5l54 303q-78 109 -162 109q-60 0 -107.5 -58t-71.5 -144.5t-24 -180.5z " />
<glyph horiz-adv-x="1220" d="M133 0l690 1176h74l-690 -1176h-74zM150 1085l167 91h64l-123 -705h-74l111 625l-119 -66zM575 160q0 44 18 81.5t51.5 64t63 43.5t68.5 34q-94 61 -94 152q0 80 62.5 131t154.5 51q83 0 130.5 -43t47.5 -107q0 -120 -164 -190q136 -71 136 -182q0 -91 -78 -149t-187 -58 q-93 0 -151 45.5t-58 126.5zM649 162q0 -55 37 -84t98 -29q77 0 134 41.5t57 106.5q0 54 -36 88.5t-95 62.5q-44 -18 -71.5 -32t-59.5 -37t-48 -52t-16 -65zM752 528q0 -73 92 -118q162 58 162 151q0 41 -29 68.5t-80 27.5q-61 0 -103 -38t-42 -91z" />
<glyph horiz-adv-x="1218" d="M133 0l690 1176h76l-690 -1176h-76zM150 1085l167 91h64l-123 -705h-72l109 625l-119 -66zM580 63l41 52q83 -62 157 -62q71 0 129 52.5t58 140.5q0 62 -32 99.5t-93 37.5q-57 0 -142 -47l-39 22l95 347h340l-11 -64h-280l-55 -223q58 26 108 26q87 0 134.5 -55 t47.5 -143q0 -107 -70.5 -182.5t-185.5 -75.5q-47 0 -91.5 15t-63 27t-47.5 33z" />
<glyph horiz-adv-x="733" d="M-27 -307l152 860h78l-86 -487l432 487h100l-373 -414l254 -446h-86l-219 389l-131 -145l-43 -244h-78z" />
<glyph horiz-adv-x="1224" d="M131 0l690 1176h78l-690 -1176h-78zM150 1085l167 91h62l-123 -705h-70l109 625l-119 -66zM586 0l8 53q4 24 10.5 45.5t13 39t20 36t21.5 30.5t26.5 29t27 25t31.5 24.5t32 22.5t35.5 24t34.5 23q94 63 138.5 108t43.5 101q0 40 -28.5 66t-81.5 26q-85 0 -177 -59l-28 53 q100 70 209 70q81 0 130.5 -41.5t49.5 -112.5q0 -23 -4.5 -44.5t-16 -42t-22 -37t-31 -35.5t-34 -31.5t-39.5 -31t-39 -27.5t-42.5 -28t-39.5 -26q-76 -49 -111.5 -91t-46.5 -106h340l-12 -63h-418z" />
<glyph horiz-adv-x="1396" d="M180 1176h92l50 -1053l426 1053h90l49 -1057l422 1057h96l-485 -1176h-99l-51 1034l-418 -1034h-98zM627 1309l28 159h109l-29 -159h-108zM895 1309l29 159h108l-28 -159h-109z" />
<glyph horiz-adv-x="970" d="M72 0l207 1176h83l-122 -693l622 693h111l-514 -568l358 -608h-98l-318 545l-186 -205l-59 -340h-84zM236 -483l98 180h-53l28 166h109l-15 -166l-135 -217z" />
<glyph horiz-adv-x="1173" d="M133 0l688 1176h80l-692 -1176h-76zM150 1085l167 91h64l-123 -705h-72l109 625l-119 -66zM510 160l10 57l393 488h95l-86 -482h96l-10 -63h-97l-28 -160h-74l29 160h-328zM600 223h248l74 402z" />
<glyph horiz-adv-x="1191" d="M133 0l690 1176h76l-690 -1176h-76zM150 1085l167 91h64l-123 -705h-72l109 625l-119 -66zM569 231q0 128 53 240t144.5 179t198.5 67q24 0 47 -3.5t34 -7.5l11 -4l-25 -57q-26 8 -63 8q-105 0 -190.5 -80.5t-121.5 -203.5q27 31 72.5 56.5t104.5 25.5q89 0 137.5 -58 t48.5 -139q0 -105 -66.5 -185.5t-177.5 -80.5q-101 0 -154 71t-53 172zM639 229q0 -74 35.5 -126t101.5 -52q76 0 123 60.5t47 142.5q0 56 -30 95.5t-93 39.5q-60 0 -110.5 -36t-71.5 -77q-2 -16 -2 -47z" />
<glyph horiz-adv-x="970" d="M72 0l207 1176h83l-122 -693l622 693h111l-514 -568l358 -608h-98l-318 545l-186 -205l-59 -340h-84z" />
<glyph horiz-adv-x="1396" d="M180 1176h92l50 -1053l426 1053h90l49 -1057l422 1057h96l-485 -1176h-99l-51 1034l-418 -1034h-98zM623 1544h135l166 -256h-68z" />
<glyph horiz-adv-x="1208" d="M133 0l690 1176h74l-690 -1176h-74zM150 1085l167 91h64l-123 -705h-74l111 625l-119 -66zM571 59l41 52q84 -58 170 -58q81 0 133 45t52 113q0 69 -54 106t-129 37h-22l8 66h31q74 0 136 44t62 105q0 40 -28.5 62t-79.5 22q-81 0 -162 -53l-27 53q1 1 15.5 9t25 13.5 t31.5 14t39 14t42.5 9.5t47.5 4q79 0 123.5 -39t44.5 -100q0 -56 -42 -109.5t-124 -83.5q57 -12 96 -60.5t39 -115.5q0 -90 -68.5 -155.5t-187.5 -65.5q-105 0 -213 71z" />
<glyph horiz-adv-x="348" d="M25 686q49 16 76 29t42.5 31.5t21 35.5t11.5 54l143 813h76l-143 -811q-5 -28 -7.5 -39.5t-7.5 -33t-9.5 -30t-12.5 -24t-18 -23t-24.5 -18.5t-33 -18.5t-42.5 -16t-54 -17.5z" />
<glyph horiz-adv-x="348" d="M-170 -410q49 16 76 29t43 31.5t21.5 36t11.5 53.5l143 813h76l-144 -811q-5 -26 -7 -36t-6.5 -30t-8 -28t-10 -23t-14 -21.5t-19 -17.5t-24.5 -17.5t-31 -15t-40 -15.5t-49 -15z" />
<glyph horiz-adv-x="446" d="M-125 -147q45 15 75.5 27t53 27.5t34.5 27t21 33.5t13 39.5t10 51.5l197 1117h88l-199 -1117q-7 -40 -10.5 -57t-11 -46t-15 -40.5t-22 -32t-31.5 -30.5t-44 -25t-60 -26.5t-78 -24.5zM117 1288l202 256h123l113 -256h-63l-117 191l-182 -191h-76z" />
<glyph horiz-adv-x="446" d="M-125 -147q45 15 75.5 27t53 27.5t34.5 27t21 33.5t13 39.5t10 51.5l197 1117h88l-199 -1117q-7 -40 -10.5 -57t-11 -46t-15 -40.5t-22 -32t-31.5 -30.5t-44 -25t-60 -26.5t-78 -24.5z" />
<glyph horiz-adv-x="1015" d="M45 553h84l29 -743l299 743h78l30 -752l291 752h88l-350 -860h-86l-33 735l-293 -735h-86z" />
<glyph horiz-adv-x="444" d="M72 0l207 1176h83l-206 -1176h-84zM119 1352q42 72 74.5 102.5t76.5 30.5q37 0 70.5 -25.5t61.5 -50.5t51 -25q21 0 41.5 18.5t56.5 76.5l53 -37q-44 -73 -77 -103t-76 -30q-29 0 -57 15.5t-46 34.5t-40 34.5t-40 15.5q-22 0 -42 -17t-56 -75z" />
<glyph horiz-adv-x="350" d="M166 788l151 861h78l-151 -861h-78z" />
<glyph horiz-adv-x="444" d="M-137 -236q0 73 54.5 131t156.5 111l207 1170h84l-207 -1176h-6q-113 -68 -160 -116.5t-47 -102.5q0 -15 4.5 -26.5t15.5 -18t20.5 -10.5t27.5 -5t27.5 -1.5t29.5 -0.5l-27 -77q-21 0 -35.5 1t-38.5 4t-40 11.5t-32.5 21t-25 34t-8.5 50.5z" />
<glyph horiz-adv-x="937" d="M106 770q0 183 113.5 294.5t296.5 111.5h78l-262 -1487h-78l141 805q-136 0 -212.5 72t-76.5 204zM510 -311l262 1487h78l-262 -1487h-78z" />
<glyph horiz-adv-x="442" d="M72 0l207 1176h83l-206 -1176h-84zM115 1339l12 74h473l-14 -74h-471z" />
<glyph horiz-adv-x="528" d="M70 -88.5q-3 47.5 12 117.5l194 1112q11 62 22 94.5t39 67t78 58t134 48.5l18 -72q-64 -21 -100.5 -38t-58.5 -42t-31 -50.5t-17 -73.5l-192 -1096q-7 -42 -10 -61.5t-1.5 -43t7.5 -32.5t24 -23t39 -23t62 -24l-31 -70q-100 33 -142.5 68.5t-45.5 83z" />
<glyph horiz-adv-x="1019" d="M242 1649h84l28 -744l299 744h78l31 -752l291 752h88l-350 -861h-86l-33 736l-293 -736h-86z" />
<glyph horiz-adv-x="600" d="M162 1032q0 95 25.5 175.5t67.5 132t92.5 80t101.5 28.5q34 0 67 -10t64.5 -30t44.5 -30t37 -30l-44 -50q-3 2 -19.5 15.5t-29 22t-31.5 19.5t-39 17t-40 6q-86 0 -152.5 -98t-66.5 -244q0 -93 31 -142.5t91 -49.5q17 0 36.5 4.5t35 10.5t35.5 16.5t30.5 17t27.5 17 t20 12.5l33 -58q-142 -90 -230 -90q-85 0 -136.5 68.5t-51.5 189.5z" />
<glyph horiz-adv-x="348" d="M-27 -307l152 860h78l-152 -860h-78z" />
<glyph horiz-adv-x="528" d="M-49 -168q64 21 100.5 38.5t58.5 42.5t31 50.5t17 73.5l192 1096q6 32 8.5 48t3.5 36.5t-0.5 29t-8.5 22t-15 19t-25.5 16t-35 17t-48.5 18.5l31 70q100 -33 142.5 -68t45.5 -82.5t-12 -117.5l-194 -1112q-7 -41 -13.5 -65.5t-18.5 -52.5t-29.5 -46t-46 -37.5t-69 -35 t-96.5 -32.5z" />
<glyph horiz-adv-x="1523" d="M119 535q0 132 45 250.5t129 210t214.5 145t289.5 53.5q276 0 438 -152.5t162 -400.5q0 -132 -45 -250.5t-129 -210t-214.5 -145t-289.5 -53.5q-276 0 -438 152.5t-162 400.5zM188 535q0 -217 143.5 -353.5t391.5 -136.5q139 0 254.5 47t191 128.5t117 189.5t41.5 231 q0 217 -143 353t-391 136q-139 0 -254.5 -47t-191.5 -128t-117.5 -189t-41.5 -231zM428 508q-7 104 19.5 189.5t76.5 140t117 84.5t143 30q141 0 289 -112l-57 -56q-34 27 -57 42.5t-74 34t-103 18.5q-119 0 -196 -104.5t-68 -260.5q6 -101 51.5 -159t120.5 -58 q127 0 266 90l50 -61q-51 -30 -85.5 -48t-99.5 -37.5t-127 -19.5q-111 0 -185.5 76t-80.5 211z" />
<glyph horiz-adv-x="1566" d="M-164 -342q40 14 68.5 25.5t53 27t40 27t29.5 34t21.5 38.5t16 51.5t13.5 61t14 77.5l174 1001h-121l17 74h119l36 211q23 119 79 163t136 44q96 0 330 -59l10 59h86l-100 -567q172 172 324 172q54 0 101 -19t86 -58.5t62 -109t23 -161.5q0 -212 -52.5 -388 t-149.5 -280.5t-218 -104.5q-51 0 -98.5 16.5t-88 48.5t-66 58t-58.5 64l-29 -164h-86l240 1356q-231 59 -311 59q-113 0 -136 -129l-36 -211h245l-16 -74h-244l-174 -1001q-15 -87 -22.5 -125t-24.5 -89t-34 -71t-52 -48.5t-78 -45.5t-112 -39zM737 250q147 -195 291 -195 q75 0 139.5 61.5t106.5 160t66 220t24 244.5q0 133 -47.5 206t-142.5 73q-84 0 -163.5 -52t-170.5 -143z" />
<glyph horiz-adv-x="696" d="M-111 -307l330 428l-166 432h84l129 -371l258 371h94l-317 -434l180 -426h-88l-137 366l-268 -366h-99z" />
<glyph horiz-adv-x="442" d="M72 0l207 1176h83l-206 -1176h-84zM150 1544h135l166 -256h-68z" />
<glyph horiz-adv-x="1476" d="M135 815q0 94 31 178.5t98.5 142.5t157.5 58q110 0 175 -63.5t65 -186.5q0 -94 -31 -178.5t-98.5 -142.5t-157.5 -58q-110 0 -175 63.5t-65 186.5zM213 807q0 -178 164 -178q51 0 92.5 31.5t65.5 81t36.5 103.5t12.5 105q0 178 -162 178q-51 0 -92.5 -31.5t-66 -80.5 t-37.5 -103.5t-13 -105.5zM322 0l741 1176h82l-742 -1176h-81zM807 231q0 94 31 178.5t98.5 142.5t157.5 58q110 0 173.5 -63t63.5 -187q0 -94 -30.5 -178t-97.5 -142t-159 -58q-109 0 -173 63t-64 186zM885 225q0 -91 40.5 -134.5t123.5 -43.5q66 0 115 54.5t70 125.5 t21 142q0 178 -163 178q-51 0 -92.5 -32t-65.5 -81.5t-36.5 -103.5t-12.5 -105z" />
<glyph horiz-adv-x="1081" d="M16 289q0 108 57 193t156 85q79 0 125.5 -47t46.5 -137q0 -110 -56 -193.5t-155 -83.5q-78 0 -126 47t-48 136zM84 285q0 -123 109 -123q68 0 105.5 72.5t37.5 152.5q0 125 -109 125q-47 0 -81 -39t-48 -89t-14 -99zM152 -307l534 860h70l-537 -860h-67zM504 -137 q0 68 23.5 129.5t73 104t114.5 42.5q81 0 127.5 -46t46.5 -136q0 -109 -56.5 -194t-154.5 -85q-79 0 -126.5 47.5t-47.5 137.5zM569 -141q0 -125 111 -125q47 0 81 39t48 89t14 99q0 123 -110 123q-68 0 -106 -72.5t-38 -152.5z" />
<glyph horiz-adv-x="1079" d="M209 1384q0 108 57 193.5t156 85.5q79 0 125.5 -47t46.5 -137q0 -110 -56 -193.5t-155 -83.5q-78 0 -126 46.5t-48 135.5zM276 1380q0 -123 109 -123q47 0 81 39t48 88.5t14 98.5q0 125 -108 125q-47 0 -81 -39.5t-48.5 -89.5t-14.5 -99zM344 788l535 861h69l-536 -861 h-68zM696 958q0 68 23.5 130t73 104.5t114.5 42.5q81 0 127.5 -46t46.5 -136q0 -109 -56.5 -194t-154.5 -85q-79 0 -126.5 47t-47.5 137zM762 954q0 -125 110 -125q47 0 81 39.5t48.5 89.5t14.5 99q0 123 -111 123q-47 0 -81 -39t-48 -88.5t-14 -98.5z" />
<glyph horiz-adv-x="442" d="M72 0l207 1176h83l-206 -1176h-84zM156 1309l28 159h109l-29 -159h-108zM424 1309l29 159h108l-29 -159h-108z" />
<glyph horiz-adv-x="442" d="M72 0l207 1176h83l-206 -1176h-84zM121 1288l203 256h122l113 -256h-63l-117 191l-182 -191h-76z" />
<glyph horiz-adv-x="317" d="M145 788l23 132h90l-22 -132h-91zM221 1217l23 131h90l-23 -131h-90z" />
<glyph horiz-adv-x="638" d="M195 1141q0 95 25.5 175t67 131t92 79t101.5 28q11 0 23 -2l37 97h51l-41 -107q26 -9 35 -14l45 121h51l-53 -146q29 -18 69 -53l-43 -49q-40 33 -51 41l-180 -490q18 3 37.5 10.5t38.5 18t32.5 18.5t30.5 19.5t21 13.5l32 -59q-39 -24 -61.5 -37t-70.5 -31.5t-87 -21.5 l-35 -95h-49l35 97q-2 0 -37 12l-41 -109h-49l49 136q-75 69 -75 217zM272 1145q0 -91 29 -139l178 481q-82 -8 -144.5 -106t-62.5 -236zM336 967q18 -12 37 -15l190 516q-22 11 -35 13z" />
</font>
</defs>
</svg>
