<?xml version="1.0" standalone="no"?>
<!DOCTYPE svg PUBLIC "-//W3C//DTD SVG 1.1//EN" "http://www.w3.org/Graphics/SVG/1.1/DTD/svg11.dtd" >
<svg xmlns="http://www.w3.org/2000/svg">
<metadata></metadata>
<defs>
<font id="verbcompblack_italic" horiz-adv-x="978" >
<font-face units-per-em="2048" ascent="1638" descent="-410" />
<missing-glyph horiz-adv-x="319" />
<glyph unicode="ff" horiz-adv-x="1312" d="M-168 -207q34 15 58 27t44 26t32.5 23.5t24 27t17 28.5t12 35.5t10 41t9.5 51.5l131 748h-98l49 274h96q36 209 113.5 313.5t210.5 104.5q130 0 323 -117l-157 -221q-64 31 -93 31q-41 0 -55 -78l-6 -33h164l-47 -274h-164l-125 -717q-15 -87 -23.5 -127t-25 -99 t-36.5 -86.5t-52.5 -66.5t-79 -64t-109.5 -54t-151 -60zM487 -207q34 15 58 27t44 26t32.5 23.5t24 27t17 28.5t12 35.5t10 41t9.5 51.5l131 748h-98l49 274h96q36 209 113.5 313.5t210.5 104.5q131 0 324 -117l-158 -221q-64 31 -92 31q-16 0 -32 -16.5t-24 -61.5l-6 -33 h164l-47 -274h-164l-125 -717q-15 -87 -23.5 -127t-25 -99t-36.5 -86.5t-52.5 -66.5t-79 -64t-109.5 -54t-151 -60z" />
<glyph unicode="fi" horiz-adv-x="1155" d="M-168 -207q34 15 58 27t44 26t32.5 23.5t24 27t17 28.5t12 35.5t10 41t9.5 51.5l131 748h-98l49 274h96q37 210 111 314t204 104q113 0 273 -94l-121 -242q-52 29 -70 29q-41 0 -55 -78l-6 -33h164l-47 -274h-164l-125 -717q-33 -188 -57 -253q-40 -106 -132 -171 q-90 -64 -288 -133zM629 0l190 1075h336l-190 -1075h-336zM836 1192l51 295h348l-53 -295h-346z" />
<glyph unicode="fl" horiz-adv-x="1155" d="M-168 -207q34 15 58 27t44 26t32.5 23.5t24 27t17 28.5t12 35.5t10 41t9.5 51.5l131 748h-98l49 274h96q37 210 111 314t204 104q113 0 273 -94l-121 -242q-52 29 -70 29q-41 0 -55 -78l-6 -33h164l-47 -274h-164l-125 -717q-33 -188 -57 -253q-40 -106 -132 -171 q-90 -64 -288 -133zM631 0l262 1493h336l-262 -1493h-336z" />
<glyph unicode="ffi" horiz-adv-x="1810" d="M-168 -207q34 15 58 27t44 26t32.5 23.5t24 27t17 28.5t12 35.5t10 41t9.5 51.5l131 748h-98l49 274h96q36 209 113.5 313.5t210.5 104.5q130 0 323 -117l-157 -221q-64 31 -93 31q-41 0 -55 -78l-6 -33h164l-47 -274h-164l-125 -717q-15 -87 -23.5 -127t-25 -99 t-36.5 -86.5t-52.5 -66.5t-79 -64t-109.5 -54t-151 -60zM487 -207q34 15 58 27t44 26t32.5 23.5t24 27t17 28.5t12 35.5t10 41t9.5 51.5l131 748h-98l49 274h96q36 210 111 314t205 104q69 0 133 -25t139 -69l-121 -242q-52 29 -69 29q-16 0 -32 -16.5t-24 -61.5l-6 -33h164 l-47 -274h-164l-125 -717q-33 -188 -57 -253q-40 -106 -132 -171q-90 -64 -288 -133zM1286 0l191 1075h335l-190 -1075h-336zM1493 1192l51 295h348l-53 -295h-346z" />
<glyph unicode="ffl" horiz-adv-x="1812" d="M-168 -207q34 15 58 27t44 26t32.5 23.5t24 27t17 28.5t12 35.5t10 41t9.5 51.5l131 748h-98l49 274h96q36 209 113.5 313.5t210.5 104.5q130 0 323 -117l-157 -221q-64 31 -93 31q-41 0 -55 -78l-6 -33h164l-47 -274h-164l-125 -717q-15 -87 -23.5 -127t-25 -99 t-36.5 -86.5t-52.5 -66.5t-79 -64t-109.5 -54t-151 -60zM487 -207q34 15 58 27t44 26t32.5 23.5t24 27t17 28.5t12 35.5t10 41t9.5 51.5l131 748h-98l49 274h96q36 210 111 314t205 104q69 0 133 -25t139 -69l-121 -242q-52 29 -69 29q-16 0 -32 -16.5t-24 -61.5l-6 -33h164 l-47 -274h-164l-125 -717q-33 -188 -57 -253q-40 -106 -132 -171q-90 -64 -288 -133zM1288 0l262 1493h336l-262 -1493h-336z" />
<glyph unicode="ffb" horiz-adv-x="2299" d="M-168 -207q34 15 58 27t44 26t32.5 23.5t24 27t17 28.5t12 35.5t10 41t9.5 51.5l131 748h-98l49 274h96q36 209 113.5 313.5t210.5 104.5q130 0 323 -117l-157 -221q-64 31 -93 31q-41 0 -55 -78l-6 -33h164l-47 -274h-164l-125 -717q-15 -87 -23.5 -127t-25 -99 t-36.5 -86.5t-52.5 -66.5t-79 -64t-109.5 -54t-151 -60zM487 -207q34 15 58 27t44 26t32.5 23.5t24 27t17 28.5t12 35.5t10 41t9.5 51.5l131 748h-98l49 274h96q36 210 111 314t205 104q69 0 133 -25t139 -69l-121 -242q-52 29 -69 29q-16 0 -32 -16.5t-24 -61.5l-6 -33h164 l-47 -274h-164l-125 -717q-33 -188 -57 -253q-40 -106 -132 -171q-90 -64 -288 -133zM1286 0l262 1493h336l-90 -518q68 63 120.5 93t117.5 30q66 0 112 -30t69 -81t32.5 -104t9.5 -115q0 -77 -12 -171.5t-42.5 -206t-75.5 -202t-119 -151t-165 -60.5q-67 0 -111 29.5 t-92 91.5l-16 -98h-336zM1688 379q26 -100 79 -100q43 0 77.5 82.5t49.5 172.5t15 150q0 113 -54 113q-48 0 -110 -101z" />
<glyph unicode="ffh" horiz-adv-x="2291" d="M-168 -207q34 15 58 27t44 26t32.5 23.5t24 27t17 28.5t12 35.5t10 41t9.5 51.5l131 748h-98l49 274h96q36 209 113.5 313.5t210.5 104.5q130 0 323 -117l-157 -221q-64 31 -93 31q-41 0 -55 -78l-6 -33h164l-47 -274h-164l-125 -717q-15 -87 -23.5 -127t-25 -99 t-36.5 -86.5t-52.5 -66.5t-79 -64t-109.5 -54t-151 -60zM487 -207q34 15 58 27t44 26t32.5 23.5t24 27t17 28.5t12 35.5t10 41t9.5 51.5l131 748h-98l49 274h96q36 210 111 314t205 104q69 0 133 -25t139 -69l-121 -242q-52 29 -69 29q-16 0 -32 -16.5t-24 -61.5l-6 -33h164 l-47 -274h-164l-125 -717q-33 -188 -57 -253q-40 -106 -132 -171q-90 -64 -288 -133zM1286 0l262 1493h336l-92 -528q75 65 140.5 99t138.5 34q235 0 174 -342l-134 -756h-335l116 670q13 51 11.5 94t-33.5 43q-28 0 -62 -27t-61 -69l-125 -711h-336z" />
<glyph unicode="fb" horiz-adv-x="1644" d="M-168 -207q34 15 58 27t44 26t32.5 23.5t24 27t17 28.5t12 35.5t10 41t9.5 51.5l131 748h-98l49 274h96q37 210 111 314t204 104q113 0 273 -94l-121 -242q-52 29 -70 29q-41 0 -55 -78l-6 -33h164l-47 -274h-164l-125 -717q-33 -188 -57 -253q-40 -106 -132 -171 q-90 -64 -288 -133zM629 0l262 1493h336l-90 -518q68 63 120 93t117 30q66 0 112 -30t69 -81t32.5 -104t9.5 -115q0 -77 -12 -171.5t-42.5 -206t-75 -202t-118.5 -151t-165 -60.5q-67 0 -111 29.5t-92 91.5l-16 -98h-336zM1030 379q26 -100 80 -100q43 0 77.5 82.5t49 172.5 t14.5 150q0 113 -53 113q-49 0 -111 -101z" />
<glyph unicode="ffj" horiz-adv-x="1867" d="M-168 -207q34 15 58 27t44 26t32.5 23.5t24 27t17 28.5t12 35.5t10 41t9.5 51.5l131 748h-98l49 274h96q36 209 113.5 313.5t210.5 104.5q130 0 323 -117l-157 -221q-64 31 -93 31q-41 0 -55 -78l-6 -33h164l-47 -274h-164l-125 -717q-15 -87 -23.5 -127t-25 -99 t-36.5 -86.5t-52.5 -66.5t-79 -64t-109.5 -54t-151 -60zM487 -207q34 15 58 27t44 26t32.5 23.5t24 27t17 28.5t12 35.5t10 41t9.5 51.5l131 748h-98l49 274h96q36 210 111 314t205 104q69 0 133 -25t139 -69l-121 -242q-52 29 -69 29q-16 0 -32 -16.5t-24 -61.5l-6 -33h164 l-47 -274h-164l-125 -717q-33 -188 -57 -253q-40 -106 -132 -171q-90 -64 -288 -133zM1085 -195q45 20 74 34.5t51.5 32t34 30t21.5 36.5t14.5 43t11.5 58l183 1036h335l-178 -1003q-13 -74 -19.5 -108.5t-20.5 -90.5t-28.5 -82.5t-39.5 -66.5t-56.5 -61.5t-76.5 -49.5 t-103 -48t-133 -40zM1491 1192l51 295h346l-51 -295h-346z" />
<glyph unicode="ffk" horiz-adv-x="2260" d="M-168 -207q34 15 58 27t44 26t32.5 23.5t24 27t17 28.5t12 35.5t10 41t9.5 51.5l131 748h-98l49 274h96q36 209 113.5 313.5t210.5 104.5q130 0 323 -117l-157 -221q-64 31 -93 31q-41 0 -55 -78l-6 -33h164l-47 -274h-164l-125 -717q-15 -87 -23.5 -127t-25 -99 t-36.5 -86.5t-52.5 -66.5t-79 -64t-109.5 -54t-151 -60zM487 -207q34 15 58 27t44 26t32.5 23.5t24 27t17 28.5t12 35.5t10 41t9.5 51.5l131 748h-98l49 274h96q36 210 111 314t205 104q69 0 133 -25t139 -69l-121 -242q-52 29 -69 29q-16 0 -32 -16.5t-24 -61.5l-6 -33h164 l-47 -274h-164l-125 -717q-33 -188 -57 -253q-40 -106 -132 -171q-90 -64 -288 -133zM1286 0l262 1493h336l-125 -705l178 287h385l-352 -438l197 -637h-346l-84 346l-70 -86l-45 -260h-336z" />
<glyph unicode="fft" horiz-adv-x="2021" d="M-168 -207q34 15 58 27t44 26t32.5 23.5t24 27t17 28.5t12 35.5t10 41t9.5 51.5l131 748h-98l49 274h96q36 209 113.5 313.5t210.5 104.5q130 0 323 -117l-157 -221q-64 31 -93 31q-41 0 -55 -78l-6 -33h164l-47 -274h-164l-125 -717q-15 -87 -23.5 -127t-25 -99 t-36.5 -86.5t-52.5 -66.5t-79 -64t-109.5 -54t-151 -60zM487 -207q34 15 58 27t44 26t32.5 23.5t24 27t17 28.5t12 35.5t10 41t9.5 51.5l131 748h-98l49 274h96q36 209 113.5 313.5t210.5 104.5q131 0 324 -117l-158 -221q-64 31 -92 31q-16 0 -32 -16.5t-24 -61.5l-6 -33 h164l-47 -274h-164l-125 -717q-15 -87 -23.5 -127t-25 -99t-36.5 -86.5t-52.5 -66.5t-79 -64t-109.5 -54t-151 -60zM1378 801l49 274h99l43 236l350 75l-55 -311h194l-49 -274h-194l-70 -400q-17 -96 24 -96q10 0 23 4t21.5 7.5t27.5 12.5t27 13l63 -289q-189 -76 -313 -76 q-146 0 -195.5 112t-11.5 331l68 381h-101z" />
<glyph unicode="fh" horiz-adv-x="1636" d="M-168 -207q34 15 58 27t44 26t32.5 23.5t24 27t17 28.5t12 35.5t10 41t9.5 51.5l131 748h-98l49 274h96q37 210 111 314t204 104q113 0 273 -94l-121 -242q-52 29 -70 29q-41 0 -55 -78l-6 -33h164l-47 -274h-164l-125 -717q-33 -188 -57 -253q-40 -106 -132 -171 q-90 -64 -288 -133zM629 0l262 1493h336l-92 -528q76 66 140.5 99.5t137.5 33.5q235 0 174 -342l-133 -756h-336l117 670q13 51 11 94t-34 43q-28 0 -61 -27t-61 -69l-125 -711h-336z" />
<glyph unicode="fj" horiz-adv-x="1212" d="M-168 -207q34 15 58 27t44 26t32.5 23.5t24 27t17 28.5t12 35.5t10 41t9.5 51.5l131 748h-98l49 274h96q37 210 111 314t204 104q113 0 273 -94l-121 -242q-52 29 -70 29q-41 0 -55 -78l-6 -33h164l-47 -274h-164l-125 -717q-33 -188 -57 -253q-40 -106 -132 -171 q-90 -64 -288 -133zM428 -195q45 20 74 34.5t51.5 32t34 30t21.5 36.5t14.5 43t11.5 58l182 1036h336l-178 -1003q-13 -74 -19.5 -108.5t-20.5 -90.5t-28.5 -82.5t-39.5 -66.5t-56.5 -61.5t-76.5 -49.5t-103 -48t-133 -40zM834 1192l51 295h346l-51 -295h-346z" />
<glyph unicode="fk" horiz-adv-x="1603" d="M-168 -207q34 15 58 27t44 26t32.5 23.5t24 27t17 28.5t12 35.5t10 41t9.5 51.5l131 748h-98l49 274h96q37 210 111 314t204 104q113 0 273 -94l-121 -242q-52 29 -70 29q-41 0 -55 -78l-6 -33h164l-47 -274h-164l-125 -717q-33 -188 -57 -253q-40 -106 -132 -171 q-90 -64 -288 -133zM629 0l262 1493h336l-125 -705l178 287h385l-352 -438l196 -637h-346l-84 346l-69 -86l-45 -260h-336z" />
<glyph unicode="ft" horiz-adv-x="1370" d="M-168 -207q34 15 58 27t44 26t32.5 23.5t24 27t17 28.5t12 35.5t10 41t9.5 51.5l131 748h-98l49 274h96q36 209 113.5 313.5t210.5 104.5q130 0 323 -117l-157 -221q-64 31 -93 31q-41 0 -55 -78l-6 -33h164l-47 -274h-164l-125 -717q-15 -87 -23.5 -127t-25 -99 t-36.5 -86.5t-52.5 -66.5t-79 -64t-109.5 -54t-151 -60zM727 801l49 274h98l44 236l350 75l-56 -311h195l-49 -274h-195l-69 -400q-17 -96 24 -96q10 0 23 4t21.5 7.5t27.5 12.5t27 13l63 -289q-189 -76 -313 -76q-146 0 -195.5 112t-11.5 331l67 381h-100z" />
<glyph unicode=" "  horiz-adv-x="319" />
<glyph unicode="&#x09;" horiz-adv-x="319" />
<glyph unicode="&#xa0;" horiz-adv-x="319" />
<glyph unicode="!" horiz-adv-x="557" d="M8 0l64 362h323l-63 -362h-324zM154 485l63 949h410l-273 -949h-200z" />
<glyph unicode="&#x22;" horiz-adv-x="753" d="M143 856l54 578h305l-156 -578h-203zM483 856l54 578h305l-156 -578h-203z" />
<glyph unicode="#" horiz-adv-x="1056" d="M-4 295l49 280h156l78 283h-127l49 283h157l82 293h252l-82 -293h107l82 293h252l-82 -293h127l-52 -283h-155l-78 -283h127l-49 -280h-156l-82 -295h-252l82 295h-108l-82 -295h-250l82 295h-127zM453 575h106l78 283h-107z" />
<glyph unicode="$" horiz-adv-x="1034" d="M-25 180l207 271q76 -60 157.5 -104t137.5 -44q40 0 65 23t25 65q0 24 -8.5 45t-29 42.5t-37 35.5t-52 41t-55.5 43q-132 103 -191 209t-59 225q0 83 26 156.5t76.5 132.5t133 95t186.5 40l33 184h235l-39 -213q161 -45 285 -127l-209 -274q-167 102 -258 102 q-39 0 -65.5 -20t-26.5 -66q0 -23 7 -42.5t28.5 -41.5t34.5 -33.5t53 -41t55 -41.5q258 -201 258 -439q0 -60 -15.5 -117t-49 -110t-82 -94.5t-118.5 -68.5t-153 -33l-32 -185h-234l35 207q-167 46 -324 178z" />
<glyph unicode="%" horiz-adv-x="1517" d="M115 977q0 50 7 104.5t28.5 124t56 123t96 90.5t141.5 37q34 0 68 -6t75 -25t71 -49.5t50.5 -84.5t20.5 -124q0 -33 -3.5 -70.5t-13 -85t-24.5 -91.5t-41 -87t-59.5 -74.5t-82 -51t-106.5 -19.5q-35 0 -69 6.5t-74.5 25.5t-70.5 49.5t-50 84t-20 123.5zM276 0l750 1434 h248l-748 -1434h-250zM346 961q0 -74 51 -74q33 0 57.5 60.5t34 125.5t9.5 111q0 76 -52 76q-33 0 -57.5 -60.5t-33.5 -125.5t-9 -113zM825 266q0 50 7 104.5t29 124t56.5 123t97 90.5t142.5 37q34 0 68 -6t74.5 -25t70 -49t50 -84t20.5 -124q0 -40 -5 -84.5t-17.5 -101.5 t-37 -107t-59 -93t-88.5 -68.5t-121 -25.5q-35 0 -69.5 6.5t-75 25.5t-71 49.5t-51 84t-20.5 123.5zM1059 250q0 -74 51 -74q33 0 57.5 60.5t33.5 125t9 111.5q0 76 -51 76q-33 0 -57.5 -60.5t-33.5 -125.5t-9 -113z" />
<glyph unicode="&#x26;" horiz-adv-x="1138" d="M31 317q0 71 21.5 135.5t62 120t84 98.5t102.5 91q-70 149 -70 282q0 182 112 297t286 115q80 0 141.5 -25.5t97.5 -68t54 -93.5t18 -108q0 -63 -22 -124t-65.5 -119t-86 -103t-104.5 -100l75 -135q33 75 51 176h332q-64 -240 -227 -453l172 -303h-373l-37 72 q-145 -95 -293 -95q-157 0 -244 98.5t-87 241.5zM352 346q0 -38 20 -65t54 -27q46 0 111 47l-103 203q-82 -89 -82 -158zM514 1063q0 -49 25 -119q112 94 112 180q0 29 -12.5 49.5t-40.5 20.5q-38 0 -61 -38.5t-23 -92.5z" />
<glyph unicode="'" horiz-adv-x="415" d="M143 856l54 578h305l-156 -578h-203z" />
<glyph unicode="(" horiz-adv-x="602" d="M2 8q2 103 29 254q1 8 2 12l160 912q33 177 57 240q45 116 148 182q99 63 286 110l43 -217q-50 -26 -79.5 -47.5t-48 -52t-26.5 -59t-18 -82.5l-199 -1123q-22 -95 -7.5 -145t93.5 -98l-112 -187q-181 54 -255.5 126t-72.5 175z" />
<glyph unicode=")" horiz-adv-x="587" d="M-102 -76q50 26 79.5 48t48 52t26.5 59t18 83l198 1122q22 95 7.5 145.5t-93.5 98.5l113 186q181 -54 255.5 -126t72.5 -175t-29 -254q-1 -8 -2 -12l-160 -911q-33 -178 -58 -241q-44 -116 -148 -183q-98 -62 -285 -109z" />
<glyph unicode="*" horiz-adv-x="878" d="M125 1065l303 8l-283 113l179 213l159 -262l-47 303l275 -49l-146 -271l234 193l96 -260l-287 -9l266 -110l-178 -211l-153 244l43 -289l-275 47l148 270l-240 -190z" />
<glyph unicode="+" horiz-adv-x="1003" d="M119 549l49 270h233l50 281h274l-49 -281h237l-47 -270h-239l-49 -283h-275l49 283h-233z" />
<glyph unicode="," horiz-adv-x="485" d="M-70 -238l183 238h-142l68 397h326l-64 -448l-311 -309z" />
<glyph unicode="-" horiz-adv-x="686" d="M51 434l51 297h521l-54 -297h-518z" />
<glyph unicode="." horiz-adv-x="489" d="M-25 0l70 397h324l-70 -397h-324z" />
<glyph unicode="/" horiz-adv-x="761" d="M-109 -184l766 1802h252l-768 -1802h-250z" />
<glyph unicode="0" horiz-adv-x="1089" d="M80 461q0 25 1.5 62t8 105.5t17 137.5t31 152.5t47.5 157.5t69.5 145t93.5 122t122.5 82t154.5 31q101 0 178 -30t122 -77.5t73.5 -114t38.5 -129.5t10 -134q0 -25 -1.5 -62t-8 -105.5t-17 -137.5t-31 -152.5t-47.5 -157.5t-69.5 -145.5t-93.5 -122.5t-122.5 -82 t-154.5 -31q-101 0 -178.5 30.5t-122.5 77.5t-73.5 114t-38 129.5t-9.5 134.5zM408 412q0 -73 20 -105.5t70 -32.5q49 0 93.5 104.5t70.5 242t41.5 250t15.5 149.5q0 72 -20 104.5t-70 32.5q-49 0 -94 -104.5t-71 -242t-41 -249.5t-15 -149z" />
<glyph unicode="1" horiz-adv-x="751" d="M94 1198l352 236h336l-252 -1434h-350l187 1055l-142 -92z" />
<glyph unicode="2" horiz-adv-x="995" d="M-59 0l30 160q17 96 58.5 186t101.5 165t112.5 128t118.5 109q12 10 39.5 33.5t43 36.5t41 35.5t40.5 37.5l35.5 35.5t32 36.5t23.5 33.5t17 33t5 29.5q0 32 -17 53t-53 21q-79 0 -258 -125l-133 260q36 28 77.5 55t105 60t141 53t153.5 20q89 0 157.5 -27.5t108.5 -75.5 t60 -106t20 -125q0 -76 -27.5 -153.5t-62.5 -133.5t-89 -116.5t-86.5 -90t-75.5 -66.5q-9 -8 -13 -11q-56 -48 -76.5 -66t-59 -55t-55 -61.5t-20.5 -44.5h432l-57 -324h-870z" />
<glyph unicode="3" horiz-adv-x="980" d="M-51 199l201 231q158 -121 247 -121q56 0 97 42.5t41 103.5q0 41 -21.5 69.5t-56.5 42.5t-67.5 19.5t-65.5 5.5h-37l57 317h45q37 0 83 13.5t87 48.5t41 84q0 30 -17 51.5t-55 21.5q-85 0 -243 -106l-121 254q251 180 475 180q160 0 244 -86t84 -219q0 -66 -20.5 -124 t-57 -102.5t-70.5 -74.5t-78 -59q148 -121 148 -312q0 -68 -17 -136.5t-54 -134.5t-90.5 -117t-133 -82.5t-174.5 -31.5q-68 0 -134 16.5t-115 40t-95.5 56.5t-74 57.5t-52.5 51.5z" />
<glyph unicode="4" horiz-adv-x="1095" d="M-33 250l47 268l570 916h467l-152 -861h145l-57 -323h-145l-43 -250h-350l43 250h-525zM332 573h217l84 482z" />
<glyph unicode="5" horiz-adv-x="980" d="M-35 203l203 241q39 -39 65.5 -62t70.5 -47t83 -24q66 0 112 56t46 141q0 57 -25.5 95t-81.5 38q-68 0 -164 -74l-174 119l187 748h737l-57 -324h-435l-28 -160q37 6 74 6q84 0 148 -31.5t102.5 -87.5t57.5 -126t19 -152q0 -109 -33 -212t-93.5 -186t-157 -133.5 t-213.5 -50.5q-251 0 -443 226z" />
<glyph unicode="6" horiz-adv-x="1056" d="M53 496q0 138 34 276t101.5 260.5t160 217.5t219 150.5t268.5 55.5q74 0 136.5 -14t88.5 -28l26 -13l-151 -281q-43 17 -100 17q-122 0 -212.5 -75t-146.5 -202q80 72 176 72q137 0 217 -109t80 -274q0 -110 -32 -212.5t-90.5 -182.5t-148.5 -128.5t-198 -48.5 q-138 0 -237 72.5t-145 188t-46 258.5zM403 479q0 -88 22.5 -136t66.5 -48q52 0 79 66t27 157q0 55 -20.5 92t-67.5 37q-32 0 -60 -25t-44 -61q-3 -41 -3 -82z" />
<glyph unicode="7" horiz-adv-x="841" d="M8 0q26 155 87.5 323.5t122.5 289.5t137 244t109.5 169.5t61.5 83.5h-395l57 324h777l-54 -304q-18 -23 -48.5 -63.5t-112.5 -167.5t-150 -254t-136.5 -305.5t-96.5 -339.5h-359z" />
<glyph unicode="8" horiz-adv-x="1058" d="M12 334q0 278 303 448q-110 116 -110 269q0 174 121.5 289.5t328.5 115.5q180 0 272.5 -90.5t92.5 -235.5q0 -122 -60.5 -208t-162.5 -152q164 -137 164 -336q0 -96 -34.5 -178.5t-99.5 -145t-166.5 -98t-228.5 -35.5q-213 0 -316.5 96.5t-103.5 260.5zM373 383 q0 -113 96 -113q65 0 103 48.5t38 123.5q0 97 -82 176q-155 -102 -155 -235zM524 1047q0 -70 60 -127q112 76 112 172q0 82 -69 82q-50 0 -76.5 -39t-26.5 -88z" />
<glyph unicode="9" horiz-adv-x="1054" d="M0 33l152 280q45 -18 100 -18q123 0 212.5 75t145.5 203q-71 -71 -174 -71q-138 0 -218.5 109t-80.5 274q0 88 20 171t60 155.5t95.5 127t132 86t163.5 31.5q104 0 186.5 -41.5t134 -113t78.5 -164.5t27 -199q0 -138 -34 -276t-101 -261t-159.5 -218t-218 -150.5 t-267.5 -55.5q-74 0 -137.5 14t-90.5 28zM492 913q0 -54 19.5 -90.5t66.5 -36.5q59 0 102 80q4 31 4 88q0 87 -22.5 135t-65.5 48q-34 0 -58.5 -33.5t-35 -83t-10.5 -107.5z" />
<glyph unicode=":" horiz-adv-x="526" d="M-8 0l69 397h324l-70 -397h-323zM98 610l70 398h324l-70 -398h-324z" />
<glyph unicode=";" horiz-adv-x="528" d="M-55 -238l182 238h-141l67 397h326l-64 -448l-311 -309zM94 610l70 398h323l-69 -398h-324z" />
<glyph unicode="&#x3c;" horiz-adv-x="1003" d="M94 557l45 252l819 414l-65 -373l-414 -178l352 -180l-61 -349z" />
<glyph unicode="=" horiz-adv-x="1003" d="M78 344l51 281h745l-51 -281h-745zM150 745l49 281h745l-49 -281h-745z" />
<glyph unicode="&#x3e;" horiz-adv-x="1003" d="M70 143l65 373l414 178l-352 180l61 349l676 -414l-45 -252z" />
<glyph unicode="?" horiz-adv-x="860" d="M70 0l63 362h326l-64 -362h-325zM139 1303q197 153 404 153q157 0 251.5 -90.5t94.5 -239.5q0 -53 -13 -103t-37 -91.5t-52 -77.5t-65 -66.5t-67.5 -53.5t-68.5 -44t-58.5 -32t-47.5 -23l-27 -12l-37 -138h-199l43 338q129 50 196.5 107t67.5 129q0 30 -16.5 52t-52.5 22 q-28 0 -65.5 -16t-53 -26.5t-53.5 -35.5z" />
<glyph unicode="@" horiz-adv-x="1402" d="M31 270q0 153 32.5 310.5t100 306t161 263.5t227 185t286.5 70q115 0 205 -37t146 -99t91.5 -149t48 -179.5t8.5 -197.5q-1 -32 -3.5 -68t-10 -95t-17.5 -115t-27.5 -123t-39.5 -124t-54.5 -111.5t-71.5 -93t-91.5 -62t-112.5 -23.5q-57 0 -97.5 25.5t-59 66.5t-25.5 81 t-4 79q-121 -135 -242 -135q-67 0 -111 38.5t-60.5 92.5t-16.5 123q0 95 34 177t104 135t161 53q79 0 207 -46l12 74q12 76 -4 111t-66 35q-89 0 -231 -68l-64 182q200 90 371 90q293 0 223 -360l-53 -303q-8 -50 -12.5 -78t-9 -66.5t-4 -60t4 -43t14 -30.5t26.5 -9 q47 0 97 100t82.5 252t35.5 299q2 49 0 95t-11 102t-25 103.5t-45.5 94t-69.5 78.5t-99.5 52t-132.5 20q-132 0 -246.5 -64t-194.5 -168.5t-137.5 -238t-85 -273.5t-27.5 -274q0 -70 9 -136.5t34.5 -138t65 -124.5t107 -87t155.5 -34q71 0 140.5 21t103.5 42l33 21l41 -96 q-5 -4 -14.5 -11t-41 -25.5t-66 -32t-88 -25t-108.5 -11.5q-107 0 -192 38.5t-139 100.5t-90 146.5t-51 171.5t-15 180zM539 326q0 -76 59 -76q61 0 154 104l24 133q-90 31 -119 31q-58 0 -88 -57.5t-30 -134.5z" />
<glyph unicode="A" horiz-adv-x="1099" d="M-98 0l604 1434h381l100 -1434h-375l2 240h-256l-79 -240h-377zM463 545h155l5 475z" />
<glyph unicode="B" horiz-adv-x="1079" d="M-8 0l252 1434h432q110 0 188.5 -21.5t122 -62.5t63 -92t19.5 -117q0 -80 -27.5 -150.5t-68.5 -115.5t-81.5 -72.5t-74.5 -34.5q27 -13 47 -25.5t48 -38.5t45.5 -56.5t30.5 -80.5t13 -110q0 -219 -135.5 -338t-382.5 -119h-491zM393 299h56q104 0 161.5 48.5t57.5 141.5 q0 62 -35.5 92.5t-122.5 30.5h-61zM496 889h49q73 0 119.5 39t46.5 110q0 47 -27 72t-98 25h-45z" />
<glyph unicode="C" horiz-adv-x="1003" d="M61 500q0 68 6.5 144.5t24.5 171t45 182.5t71.5 172.5t100.5 147t136.5 100.5t175.5 38q62 0 124 -15t125.5 -46.5t106.5 -56.5t108 -68l-184 -281q-192 115 -256 115q-58 0 -104.5 -69t-72 -170t-39 -197t-13.5 -166q0 -85 25 -128.5t83 -43.5q40 0 97 24t161 78 l121 -305q-153 -74 -261 -112t-206 -38q-81 0 -145.5 28t-107 75.5t-70.5 115t-40 142.5t-12 162z" />
<glyph unicode="D" horiz-adv-x="1136" d="M-8 0l252 1434h317q144 0 250.5 -38t169.5 -109t93 -164t30 -210q0 -63 -7 -133.5t-27.5 -161.5t-53 -174.5t-89 -166t-128.5 -142.5t-178.5 -97.5t-233.5 -37.5h-395zM397 332h39q70 0 131 50.5t100.5 130.5t62 176.5t22.5 191.5q0 117 -46 169t-147 52h-22z" />
<glyph unicode="E" horiz-adv-x="962" d="M-8 0l252 1434h794l-59 -332h-442l-41 -223h356l-57 -324h-357l-41 -223h453l-57 -332h-801z" />
<glyph unicode="F" horiz-adv-x="921" d="M-8 0l252 1434h794l-59 -332h-442l-41 -223h346l-58 -326h-346l-98 -553h-348z" />
<glyph unicode="G" horiz-adv-x="1089" d="M61 479q0 75 7 156.5t25 178.5t46 186t74 173.5t103.5 146t140.5 99t180 37.5q66 0 132 -15.5t133 -47.5t113.5 -58t114.5 -69l-178 -279q-13 7 -58.5 30t-67 33.5t-56.5 25.5t-61 21.5t-47 6.5q-51 0 -93.5 -45t-70 -114.5t-47 -154.5t-27.5 -161.5t-8 -139.5 q0 -180 90 -180q67 0 147 94l25 138h-170l55 307h496l-148 -848h-329l20 121q-58 -70 -116.5 -107t-131.5 -37q-138 0 -215.5 130t-77.5 372z" />
<glyph unicode="H" horiz-adv-x="1132" d="M-8 0l252 1434h350l-92 -521h233l92 521h349l-252 -1434h-349l103 590h-234l-104 -590h-348z" />
<glyph unicode="I" horiz-adv-x="550" d="M-8 0l252 1434h350l-254 -1434h-348z" />
<glyph unicode="J" horiz-adv-x="550" d="M-188 -111q26 12 47 22t38.5 21.5t30.5 19t24 20t17.5 19.5t13.5 22.5t10 23.5t8 28t6.5 30t6.5 36l230 1303h350l-227 -1280q-31 -179 -55 -242q-40 -105 -135 -171q-91 -64 -288 -134z" />
<glyph unicode="K" horiz-adv-x="1118" d="M-8 0l252 1434h350l-80 -445l326 445h430l-529 -654l269 -780h-394l-129 469l-84 -104l-63 -365h-348z" />
<glyph unicode="L" horiz-adv-x="903" d="M-8 0l252 1434h350l-197 -1102h434l-57 -332h-782z" />
<glyph unicode="M" horiz-adv-x="1306" d="M-8 0l252 1434h352l84 -664l319 664h353l-252 -1434h-350l122 702l-215 -462h-139l-53 473l-125 -713h-348z" />
<glyph unicode="N" horiz-adv-x="1155" d="M-8 0l252 1434h352l125 -729l129 729h348l-252 -1434h-350l-127 731l-129 -731h-348z" />
<glyph unicode="O" horiz-adv-x="1191" d="M66 532q0 60 7 131t26 162t48 177t77.5 169.5t109.5 145.5t149 100.5t191 38.5q104 0 189 -29.5t153.5 -92.5t106.5 -173t38 -260q0 -60 -7 -131t-26 -162t-48 -177t-77.5 -169.5t-109.5 -145.5t-149 -100.5t-191 -38.5q-105 0 -190.5 29.5t-153.5 92.5t-105.5 173 t-37.5 260zM418 504q0 -38 6.5 -70t21.5 -61.5t44 -46.5t69 -17q56 0 102 58t72 138.5t43.5 173.5t24 156.5t6.5 94.5q0 37 -6 68.5t-21 61.5t-44 47t-70 17q-47 0 -87 -40t-66 -104t-45.5 -137t-29.5 -145t-15 -121t-5 -73z" />
<glyph unicode="P" horiz-adv-x="1069" d="M-8 0l252 1434h389q114 0 198.5 -23.5t132.5 -59t76.5 -88.5t37.5 -102t9 -110q0 -269 -158.5 -422.5t-467.5 -153.5h-37l-84 -475h-348zM481 795h41q107 0 158 57t51 141q0 64 -35 90.5t-112 26.5h-47z" />
<glyph unicode="Q" horiz-adv-x="1191" d="M66 532q0 60 7 131t26 162t48 177t77.5 169.5t109.5 145.5t149 100.5t191 38.5q104 0 189 -29.5t153.5 -92.5t106.5 -173t38 -260q0 -65 -8 -143t-31 -178t-57.5 -190.5t-93.5 -177.5t-133 -142l143 -197l-276 -213l-179 317q-101 4 -181.5 35.5t-144.5 95t-99 171.5 t-35 253zM418 504q0 -38 6.5 -70t21.5 -61.5t44 -46.5t69 -17q56 0 102 58t72 138.5t43.5 173.5t24 156.5t6.5 94.5q0 37 -6 68.5t-21 61.5t-44 47t-70 17q-47 0 -87 -40t-66 -104t-45.5 -137t-29.5 -145t-15 -121t-5 -73z" />
<glyph unicode="R" horiz-adv-x="1105" d="M-8 0l252 1434h420q82 0 149 -11t114 -29.5t82.5 -45.5t56.5 -56.5t34 -66.5t17.5 -70t4.5 -72q0 -52 -6.5 -102.5t-28 -115t-55.5 -117.5t-95.5 -103t-141.5 -80l151 -565h-366l-119 520h-29l-92 -520h-348zM485 825h78q60 0 103 18.5t64 49.5t29.5 62t8.5 67 q0 59 -37 82.5t-113 23.5h-79z" />
<glyph unicode="S" horiz-adv-x="1017" d="M-33 180l207 271q76 -60 157.5 -104t137.5 -44q40 0 65 23t25 65q0 24 -8.5 45t-29 42.5t-37 35.5t-52 41t-55.5 43q-132 103 -191 209t-59 225q0 85 27.5 160.5t81 135t140.5 94t197 34.5q131 0 261 -45t229 -111l-209 -274q-167 102 -258 102q-39 0 -65.5 -20 t-26.5 -66q0 -23 7 -42.5t28.5 -41.5t34.5 -33.5t53 -41t55 -41.5q258 -201 258 -439q0 -79 -28.5 -153.5t-83.5 -136t-147 -99t-208 -37.5q-259 0 -506 203z" />
<glyph unicode="T" horiz-adv-x="923" d="M109 1102l59 332h872l-59 -332h-258l-193 -1102h-348l193 1102h-266z" />
<glyph unicode="U" horiz-adv-x="1116" d="M52 360q2 76 18 172l157 902h351l-170 -955q-6 -46 -6 -83.5t23.5 -61t72.5 -23.5q72 0 106.5 44.5t46.5 123.5l170 955h350l-163 -920q-17 -99 -38 -171t-60.5 -145t-94 -118.5t-140.5 -74t-198 -28.5q-122 0 -207.5 30t-131.5 79q-48 49 -68 123q-19 69 -19 140 q1 6 1 11z" />
<glyph unicode="V" horiz-adv-x="1095" d="M147 1434h379l-4 -920l322 920h387l-604 -1434h-381z" />
<glyph unicode="W" horiz-adv-x="1480" d="M160 1434h387l-39 -721l242 721h251l-10 -717l213 717h400l-529 -1434h-321l10 793l-266 -793h-316z" />
<glyph unicode="X" horiz-adv-x="1054" d="M-111 0l449 733l-180 701h387l49 -398l190 398h404l-428 -699l194 -735h-387l-61 387l-197 -387h-420z" />
<glyph unicode="Y" horiz-adv-x="1040" d="M143 1434h375l53 -463l211 463h398l-496 -859l-98 -575h-348l100 573z" />
<glyph unicode="Z" d="M-59 0l51 291l569 811h-397l57 332h838l-51 -289l-568 -813h437l-58 -332h-878z" />
<glyph unicode="[" horiz-adv-x="628" d="M-61 -293l354 2011h495l-38 -213h-144l-280 -1585h145l-37 -213h-495z" />
<glyph unicode="\" horiz-adv-x="727" d="M197 1618h229l135 -1802h-231z" />
<glyph unicode="]" horiz-adv-x="628" d="M-125 -293l39 213h143l281 1585h-145l36 213h496l-354 -2011h-496z" />
<glyph unicode="^" horiz-adv-x="1007" d="M82 641l397 793h346l117 -793h-328l-8 465l-170 -465h-354z" />
<glyph unicode="_" horiz-adv-x="1073" d="M-98 -397l47 264h913l-47 -264h-913z" />
<glyph unicode="`" horiz-adv-x="382" d="M209 1493h330l125 -293h-258z" />
<glyph unicode="a" horiz-adv-x="995" d="M25 307q0 88 13.5 188.5t45.5 209t78.5 195t118.5 142.5t159 56q67 0 110.5 -31t92.5 -96l19 104h335l-188 -1075h-336l19 109q-70 -66 -124.5 -99t-121.5 -33q-53 0 -93.5 21t-64 53.5t-38.5 78t-20 88t-5 89.5zM369 381q0 -102 51 -102q53 0 121 110l51 295 q-26 113 -78 113q-35 0 -64.5 -51.5t-46 -123.5t-25.5 -137t-9 -104z" />
<glyph unicode="b" horiz-adv-x="989" d="M-27 0l263 1493h335l-90 -518q68 63 120.5 93t117.5 30q66 0 112 -30t69 -81t32.5 -104t9.5 -115q0 -77 -12 -171.5t-42.5 -206t-75.5 -202t-119 -151t-165 -60.5q-67 0 -110 29.5t-92 91.5l-17 -98h-336zM375 379q26 -100 80 -100q43 0 77.5 82.5t49 172.5t14.5 150 q0 113 -53 113q-49 0 -111 -101z" />
<glyph unicode="c" horiz-adv-x="796" d="M23 369q0 178 37 321t98 230t136 132.5t155 45.5q49 0 93.5 -7.5t92 -27t69 -29.5t73.5 -40t57 -33l-160 -263q-5 3 -23.5 15.5t-27.5 18t-27 16t-30.5 15.5t-27.5 9t-28 4q-46 0 -81 -56.5t-52 -137.5t-17 -168q0 -115 70 -115q16 0 41.5 10t72.5 33.5t66 32.5l86 -287 q-233 -111 -364 -111q-138 0 -223.5 99t-85.5 293z" />
<glyph unicode="d" horiz-adv-x="995" d="M25 307q0 88 13.5 188.5t45.5 209t78.5 195t118.5 142.5t159 56q67 0 110.5 -31t92.5 -96l92 522h336l-262 -1493h-336l19 109q-70 -66 -124.5 -99t-121.5 -33q-53 0 -93.5 21t-64 53.5t-38.5 78t-20 88t-5 89.5zM369 381q0 -102 51 -102q53 0 121 110l53 295 q-26 113 -80 113q-35 0 -64.5 -51.5t-46 -123.5t-25.5 -137t-9 -104z" />
<glyph unicode="e" horiz-adv-x="880" d="M20 389q0 207 61 366.5t181 251t283 91.5q144 0 228.5 -82.5t84.5 -222.5q0 -93 -28 -162.5t-70 -108.5t-103.5 -62.5t-117 -30.5t-121.5 -7h-64v-25q0 -143 74 -143q37 0 93 25t155 81l94 -249q-57 -39 -187.5 -86.5t-248.5 -47.5q-144 0 -229 100t-85 312zM371 616h47 q67 0 107 41.5t40 112.5q0 64 -53 64q-99 0 -141 -218z" />
<glyph unicode="f" horiz-adv-x="655" d="M-168 -207q34 15 58 27t44 26t32.5 23.5t24 27t17 28.5t12 35.5t10 41t9.5 51.5l131 748h-98l49 274h96q36 209 113.5 313.5t210.5 104.5q130 0 323 -117l-157 -221q-64 31 -93 31q-41 0 -55 -78l-6 -33h164l-47 -274h-164l-125 -717q-15 -87 -23.5 -127t-25 -99 t-36.5 -86.5t-52.5 -66.5t-79 -64t-109.5 -54t-151 -60z" />
<glyph unicode="g" horiz-adv-x="997" d="M-78 -346l121 285q62 -32 147 -57t144 -25q68 0 97 39.5t42 123.5l14 84q-70 -65 -123 -96t-118 -31q-53 0 -93.5 21t-64 53.5t-38.5 78t-20 88t-5 89.5q0 88 13.5 188.5t45.5 209t78.5 195t118.5 142.5t159 56q66 0 110.5 -31t88.5 -92l18 100h336l-180 -1036 q-26 -144 -61 -235.5t-90 -145.5t-124 -75t-171 -21q-219 0 -445 92zM369 381q0 -102 53 -102q49 0 113 100l55 315q-26 103 -76 103q-35 0 -64.5 -51.5t-46 -123.5t-25.5 -137t-9 -104z" />
<glyph unicode="h" d="M-27 0l263 1493h335l-92 -528q75 65 140.5 99t138.5 34q187 0 186 -216q0 -56 -12 -126l-133 -756h-336l117 670q11 44 11 82v12q-2 43 -34 43q-28 0 -62 -27t-61 -69l-125 -711h-336z" />
<glyph unicode="i" horiz-adv-x="497" d="M-29 0l191 1075h336l-191 -1075h-336zM178 1192l51 295h349l-54 -295h-346z" />
<glyph unicode="j" horiz-adv-x="497" d="M-227 -195q45 20 74 34.5t51.5 32t34 30t21.5 36.5t14.5 43t11.5 58l182 1036h336l-179 -1003q-13 -74 -19.5 -108.5t-20.5 -90.5t-28.5 -82.5t-39.5 -66.5t-56.5 -61.5t-76.5 -49.5t-103 -48t-133 -40zM178 1192l51 295h346l-51 -295h-346z" />
<glyph unicode="k" horiz-adv-x="948" d="M-27 0l263 1493h335l-125 -705l179 287h385l-353 -438l197 -637h-346l-84 346l-70 -86l-45 -260h-336z" />
<glyph unicode="l" horiz-adv-x="499" d="M-25 0l263 1493h335l-262 -1493h-336z" />
<glyph unicode="m" horiz-adv-x="1402" d="M-27 0l189 1075h336l-21 -121q121 144 256 144q77 0 120 -46.5t52 -127.5q136 174 285 174q110 0 151 -92q25 -56 25 -133q0 -49 -10 -107l-135 -766h-336l123 705q7 31 7 55q0 10 -1 18q-4 29 -29 29q-42 0 -94 -86l-125 -721h-338l127 705q5 28 5 50q0 12 -2 23 q-4 29 -28 29q-44 0 -94 -84l-127 -723h-336z" />
<glyph unicode="n" d="M-27 0l189 1075h336l-21 -110q75 65 141.5 99t139.5 34q187 0 186 -216q0 -56 -12 -126l-133 -756h-336l117 672q11 41 11 79v12q-2 44 -34 44q-28 0 -62 -27t-61 -69l-125 -711h-336z" />
<glyph unicode="o" horiz-adv-x="966" d="M27 408q0 48 5 102t19.5 122.5t36.5 131.5t60 125t86.5 107.5t119.5 73.5t156 28q49 0 98 -9t107 -37.5t101 -73.5t72.5 -126t29.5 -186q0 -48 -5 -101.5t-19.5 -122t-36.5 -131.5t-60.5 -125t-87 -107.5t-119.5 -73.5t-156 -28q-40 0 -80 7t-88.5 23t-89 48t-75 77.5 t-54.5 116.5t-20 159zM360 371q0 -109 72 -109q39 0 70 53.5t48 129.5t25.5 145t8.5 115q0 108 -72 108q-39 0 -70 -53t-48 -129t-25.5 -145t-8.5 -115z" />
<glyph unicode="p" horiz-adv-x="989" d="M-100 -418l262 1493h336l-19 -100q68 63 121 93t119 30t112 -30t69 -81t32.5 -104t9.5 -115q0 -77 -12 -171.5t-42.5 -206t-75.5 -202t-119 -151t-165 -60.5q-67 0 -111.5 30t-90.5 91l-90 -516h-336zM375 381q26 -102 80 -102q43 0 77.5 82.5t49 172.5t14.5 150 q0 113 -53 113q-48 0 -113 -101z" />
<glyph unicode="q" horiz-adv-x="995" d="M25 307q0 88 13.5 188.5t45.5 209t78.5 195t118.5 142.5t159 56q67 0 110.5 -31t92.5 -96l19 104h335l-262 -1493h-336l93 527q-73 -68 -126 -100t-120 -32q-53 0 -93.5 21t-64 53.5t-38.5 78t-20 88t-5 89.5zM369 381q0 -102 51 -102q52 0 121 108l51 299 q-26 111 -78 111q-35 0 -64.5 -51.5t-46 -123.5t-25.5 -137t-9 -104z" />
<glyph unicode="r" horiz-adv-x="706" d="M-27 0l189 1075h336l-39 -221q15 26 20.5 35.5t26 41.5t36 49t43 43t52.5 38.5t59 20.5q23 6 48 6q11 0 22 -1l-61 -354q-69 0 -129 -39.5t-96 -95.5t-62 -112.5t-36 -95.5l-11 -40l-62 -350h-336z" />
<glyph unicode="s" horiz-adv-x="858" d="M-49 129l166 250q65 -43 141 -77t119 -34q24 0 38.5 10.5t14.5 30.5q0 15 -5 27t-19.5 23.5t-25.5 18t-38 21t-43 23.5q-48 28 -84 56.5t-72 69t-55.5 93t-19.5 113.5q0 149 102.5 246.5t284.5 97.5q180 0 395 -123l-160 -254q-57 34 -120.5 60t-102.5 26q-53 0 -53 -39 q0 -15 4.5 -27t19.5 -23.5t24.5 -17.5t38.5 -21t42 -22q235 -131 235 -331q0 -68 -24 -129.5t-70 -111.5t-122.5 -79t-172.5 -29q-218 0 -438 152z" />
<glyph unicode="t" horiz-adv-x="708" d="M66 801l49 274h98l43 236l350 75l-55 -311h194l-49 -274h-194l-70 -400q-5 -28 -5 -47q0 -49 30 -49q10 0 23 3.5t21.5 7.5t26.5 13t27 13l63 -289q-189 -76 -313 -76q-145 0 -195 112q-28 63 -29 161q0 75 17 170l68 381h-100z" />
<glyph unicode="u" d="M25 322l133 753h336l-119 -669q-10 -44 -11 -82q0 -6 1 -12q2 -44 34 -44q27 0 60.5 26.5t62.5 67.5l125 713h338l-188 -1075h-338l18 111q-75 -65 -140.5 -99.5t-137.5 -34.5q-109 0 -157 82q-29 49 -30 135q0 56 13 128z" />
<glyph unicode="v" horiz-adv-x="923" d="M90 1075h350l-14 -610l195 610h370l-477 -1075h-328z" />
<glyph unicode="w" horiz-adv-x="1290" d="M98 1075h357l-31 -520l188 520h222l4 -524l153 524h357l-412 -1075h-295l-10 547l-201 -547h-297z" />
<glyph unicode="x" horiz-adv-x="948" d="M-111 0l371 543l-166 532h359l39 -291l143 291h385l-350 -528l178 -547h-371l-39 301l-143 -301h-406z" />
<glyph unicode="y" horiz-adv-x="921" d="M-23 -190q134 65 209 133l-98 1132h346l-10 -641l211 641h352l-457 -1075q-30 -69 -51.5 -113t-63.5 -108t-87.5 -106t-116 -83t-156.5 -63z" />
<glyph unicode="z" horiz-adv-x="909" d="M-59 0l45 254l450 512h-348l57 309h791l-45 -254l-451 -512h361l-56 -309h-804z" />
<glyph unicode="{" horiz-adv-x="636" d="M20 606l37 213q46 0 79 17.5t51.5 50t28 68t13.5 81.5l19 209q48 473 442 473h92l-34 -205h-33q-95 0 -111 -227l-16 -178q-10 -104 -35 -177.5t-66 -118.5t-91 -69.5t-120 -35.5q121 -35 160.5 -132t-0.5 -288l-20 -94q-61 -281 26 -281h23l-37 -205h-25 q-78 0 -148.5 29t-126 90t-72.5 156t12 227l45 180q13 53 17 87.5t-2.5 66.5t-33.5 47.5t-74 15.5z" />
<glyph unicode="|" horiz-adv-x="434" d="M-55 -252l340 1927h237l-340 -1927h-237z" />
<glyph unicode="}" horiz-adv-x="636" d="M-111 -293l35 205h33q95 0 111 227l16 178q10 104 34.5 177.5t65.5 119t91.5 70t119.5 35.5q-80 23 -122.5 70.5t-54 134t17.5 215.5l20 94q61 280 -27 280h-22l37 205h24q78 0 148.5 -29t126.5 -89.5t73 -155.5t-12 -227l-45 -181q-10 -42 -15 -71t-3.5 -59t12.5 -47.5 t35.5 -28.5t62.5 -11l-37 -213q-46 0 -79 -17.5t-51.5 -50t-28 -68t-13.5 -81.5l-18 -209q-48 -473 -442 -473h-93z" />
<glyph unicode="~" horiz-adv-x="1003" d="M8 432q35 80 67.5 138t73.5 110t90 79t105 27q51 0 100 -24t81.5 -52.5t72 -52.5t72.5 -24q29 0 56 27.5t75 115.5l176 -92q-77 -173 -156 -263.5t-180 -90.5q-41 0 -81 16t-70.5 38t-59.5 44.5t-59 38.5t-58 16t-54.5 -27t-74.5 -116z" />
<glyph unicode="&#xa1;" horiz-adv-x="557" d="M-33 0l273 948h200l-63 -948h-410zM199 1071l63 363h324l-64 -363h-323z" />
<glyph unicode="&#xa2;" horiz-adv-x="872" d="M74 549q0 178 37 321t99 230t137 132.5t155 45.5h10l29 156h233l-37 -209q78 -38 160 -86l-160 -262q-15 8 -45 25t-48.5 27t-40.5 18.5t-36 8.5q-37 0 -67 -32.5t-49 -85.5t-29 -116t-10 -128q0 -56 16.5 -85.5t58.5 -29.5q29 0 189 78l86 -287q-89 -47 -207 -84 l-33 -186h-233l28 164q-112 23 -177.5 119t-65.5 266z" />
<glyph unicode="&#xa3;" horiz-adv-x="917" d="M-35 0l45 262q6 2 16.5 7.5t39.5 25t54 44t52 67.5t41 92h-145l36 217h117q-4 25 -16.5 84.5t-19.5 112t-7 108.5q0 202 93 319t264 117q224 0 440 -201l-182 -227q-120 105 -187 105q-42 0 -64 -38t-22 -94q0 -44 19 -135.5t22 -150.5h217l-37 -217h-204 q-38 -127 -95 -174h359l-56 -324h-780z" />
<glyph unicode="&#xa5;" horiz-adv-x="1112" d="M86 266l41 213h229l15 90h-230l41 213h144l-148 652h375l53 -463l211 463h397l-376 -652h145l-41 -213h-225l-15 -90h226l-43 -213h-219l-45 -266h-349l45 266h-231z" />
<glyph unicode="&#xa6;" horiz-adv-x="436" d="M-55 -252l149 846h238l-150 -846h-237zM135 829l150 846h237l-149 -846h-238z" />
<glyph unicode="&#xa7;" horiz-adv-x="942" d="M-8 -25l160 254q57 -34 120.5 -60t102.5 -26q53 0 53 43q0 14 -6 24.5t-21.5 20.5t-29 17t-42 20t-48.5 23q-218 111 -218 309q0 96 47.5 175t139.5 120q-68 78 -68 201q0 155 103 257.5t284 102.5q186 0 396 -123l-158 -254q-57 34 -120.5 60t-102.5 26q-54 0 -54 -43 q0 -14 6 -24.5t21.5 -20.5t29.5 -17t42.5 -20.5t48.5 -23.5q31 -16 56.5 -32t57 -44t53 -59t36 -76t14.5 -96q0 -96 -48 -175t-140 -120q67 -80 67 -201q0 -155 -102.5 -257.5t-284.5 -102.5t-395 122zM385 676q0 -12 2.5 -22.5t9.5 -20t13 -15.5t20 -15t23 -14t29.5 -16.5 t31.5 -17.5q59 24 59 78q0 11 -2.5 20t-6 16.5t-12 15.5t-14.5 12.5t-20 13t-21.5 12.5t-26 14t-28.5 15q-57 -20 -57 -76z" />
<glyph unicode="&#xa8;" horiz-adv-x="391" d="M143 1221l47 266h236l-47 -266h-236zM438 1221l47 266h234l-47 -266h-234z" />
<glyph unicode="&#xa9;" horiz-adv-x="1570" d="M74 641q0 131 32.5 251.5t98 223t158 178.5t219 119t274.5 43q206 0 360.5 -84.5t235 -234.5t80.5 -344q0 -131 -32.5 -251.5t-98.5 -223.5t-158 -179t-219.5 -119t-275.5 -43q-309 0 -491.5 184t-182.5 480zM152 643q0 -171 70.5 -303t209 -208.5t324.5 -76.5 q160 0 293 58.5t220 159t135 234t48 284.5q0 127 -41 235t-117 186t-190 122t-254 44q-160 0 -293 -58.5t-221 -159t-136 -233.5t-48 -284zM424 618q-5 126 27 230.5t90 172t134.5 104t162.5 36.5q54 0 104.5 -12.5t94 -37t69 -42t59.5 -45.5l-65 -66q-27 23 -46.5 37 t-55 35t-76.5 32t-86 11q-137 0 -227 -127.5t-83 -318.5q5 -125 56 -196t137 -71q147 0 307 111l53 -74q-53 -35 -95 -58t-115 -46t-144 -23q-126 0 -210.5 91.5t-90.5 256.5z" />
<glyph unicode="&#xaa;" horiz-adv-x="684" d="M131 973q0 51 8.5 110.5t28 125t48 118t74 87t99.5 34.5q42 0 68 -17t57 -53l10 56h221l-114 -646h-219l10 62q-45 -40 -77.5 -58t-74.5 -18t-71.5 19t-43 51.5t-19 63t-5.5 65.5zM352 1022q0 -49 31 -49q33 0 72 61l26 160q-15 55 -43 55q-39 0 -62.5 -87t-23.5 -140z " />
<glyph unicode="&#xab;" horiz-adv-x="1009" d="M8 432l39 223l502 422l-76 -418l-182 -131l137 -131l-66 -387zM471 432l39 223l502 422l-76 -418l-182 -131l137 -131l-66 -387z" />
<glyph unicode="&#xac;" horiz-adv-x="1003" d="M47 543l49 280h852l-112 -639h-281l63 359h-571z" />
<glyph unicode="&#xad;" horiz-adv-x="686" d="M51 434l51 297h521l-54 -297h-518z" />
<glyph unicode="&#xae;" horiz-adv-x="774" d="M123 1104q0 156 96 263.5t262 107.5q141 0 225.5 -85t84.5 -221q0 -155 -96.5 -262.5t-262.5 -107.5q-141 0 -225 84.5t-84 220.5zM190 1104q0 -104 66.5 -172t179.5 -68q131 0 209 87t78 216q0 105 -67 172.5t-179 67.5q-131 0 -209 -87t-78 -216zM305 971l60 340h149 q48 0 76 -25t28 -63q0 -91 -106 -105l55 -147h-67l-54 145h-51l-24 -145h-66zM406 1174h79q66 0 66 49q0 26 -41 26h-92z" />
<glyph unicode="&#xaf;" horiz-adv-x="471" d="M225 1251l37 215h467l-37 -215h-467z" />
<glyph unicode="&#xb0;" horiz-adv-x="710" d="M119 1124q0 129 91.5 221.5t221.5 92.5q127 0 218 -92.5t91 -221.5t-90.5 -220t-218.5 -91q-130 0 -221.5 91t-91.5 220zM326 1124q0 -42 31 -73t73 -31t73.5 31t31.5 73q0 43 -31 74t-74 31t-73.5 -31t-30.5 -74z" />
<glyph unicode="&#xb1;" horiz-adv-x="1003" d="M20 0l41 238h748l-41 -238h-748zM123 594l51 280h232l45 248h278l-43 -248h236l-52 -280h-233l-43 -248h-281l43 248h-233z" />
<glyph unicode="&#xb2;" horiz-adv-x="645" d="M68 788l18 101q31 181 244 352q108 85 137 116q33 36 33 58q2 16 -8 25.5t-31 9.5q-52 0 -162 -74l-90 168q160 119 307 119q110 0 165.5 -61t55.5 -146q0 -47 -19 -95.5t-41 -82t-59.5 -72t-53.5 -52t-44 -36.5q-33 -26 -46.5 -36.5t-36.5 -30t-33.5 -31.5t-12.5 -21 h266l-36 -211h-553z" />
<glyph unicode="&#xb3;" horiz-adv-x="643" d="M76 915l131 152q97 -76 153 -76q34 0 57 20.5t23 49.5q0 72 -131 72h-22l37 206h28q41 0 84 17.5t43 54.5t-41 37q-46 0 -153 -64l-76 164q154 115 303 115q100 0 153.5 -53.5t53.5 -134.5q0 -41 -12.5 -75.5t-36.5 -60.5t-43 -41.5t-47 -33.5q90 -77 90 -185 q0 -52 -17.5 -103.5t-51.5 -97.5t-93 -75t-133 -29q-164 0 -299 141z" />
<glyph unicode="&#xb4;" horiz-adv-x="387" d="M139 1200l232 293h358l-303 -293h-287z" />
<glyph unicode="&#xb5;" horiz-adv-x="1028" d="M-86 -418l268 1493h336l-119 -669q-12 -51 -9.5 -94.5t34.5 -43.5q27 0 60.5 26.5t62.5 67.5l125 713h338l-189 -1075h-338l19 111q-98 -85 -178 -115l-74 -414h-336z" />
<glyph unicode="&#xb6;" horiz-adv-x="1214" d="M82 807q0 78 16.5 159t57.5 166.5t101 151.5t156 108t214 42h266l-320 -1813h-270l135 770q-164 0 -260 109.5t-96 306.5zM647 -379l322 1813h268l-319 -1813h-271z" />
<glyph unicode="&#xb7;" horiz-adv-x="495" d="M45 385l70 397h323l-69 -397h-324z" />
<glyph unicode="&#xb8;" horiz-adv-x="276" d="M-88 -342l94 176q30 -22 57 -22q64 0 64 90q0 21 -4.5 46.5t-8.5 40.5l-5 15h139q26 -63 26 -147q0 -121 -64.5 -183.5t-150.5 -62.5q-92 0 -147 47z" />
<glyph unicode="&#xb9;" horiz-adv-x="557" d="M160 1503l223 146h219l-151 -861h-228l111 615l-88 -53z" />
<glyph unicode="&#xba;" horiz-adv-x="645" d="M127 1040q0 42 6.5 88t26.5 105.5t51.5 105t88.5 77.5t130 32q31 0 61.5 -5.5t67.5 -23t64.5 -45.5t46 -77.5t18.5 -114.5q0 -42 -6.5 -88t-26.5 -105.5t-51.5 -105t-88.5 -77.5t-130 -32q-31 0 -61.5 5.5t-67.5 22.5t-64.5 45t-46 78t-18.5 115zM344 1014q0 -53 41 -53 t63.5 88t22.5 159q0 54 -41 54t-63.5 -88.5t-22.5 -159.5z" />
<glyph unicode="&#xbb;" horiz-adv-x="1015" d="M-25 10l76 418l182 131l-137 131l66 387l354 -422l-39 -223zM440 10l76 418l182 131l-137 131l66 387l354 -422l-39 -223z" />
<glyph unicode="&#xbc;" horiz-adv-x="1460" d="M150 1288l223 146h219l-152 -861h-227l111 615l-88 -53zM219 0l705 1434h243l-704 -1434h-244zM674 143l28 174l351 543h305l-90 -506h90l-37 -211h-90l-25 -143h-227l25 143h-330zM913 354h127l50 273z" />
<glyph unicode="&#xbd;" horiz-adv-x="1478" d="M150 1288l223 146h219l-152 -861h-227l111 615l-88 -53zM219 0l705 1434h243l-704 -1434h-244zM748 0l18 100q31 182 244 353q108 85 137 116q33 36 33 58q2 16 -8 25.5t-31 9.5q-52 0 -162 -74l-90 168q158 118 307 118q110 0 165.5 -60.5t55.5 -145.5q0 -47 -19 -95.5 t-41 -82t-59.5 -72t-53.5 -52t-44 -36.5q-33 -26 -46.5 -36.5t-36.5 -30t-33.5 -31.5t-12.5 -21h266l-37 -211h-552z" />
<glyph unicode="&#xbe;" horiz-adv-x="1570" d="M57 700l131 152q97 -76 154 -76q34 0 57 20.5t23 49.5q0 72 -131 72h-23l37 206h29q41 0 84 17.5t43 54.5t-41 37q-47 0 -154 -64l-76 164q154 115 304 115q100 0 153 -53.5t53 -134.5q0 -41 -12.5 -75.5t-36.5 -60.5t-43 -41.5t-47 -33.5q90 -77 90 -185 q0 -52 -17.5 -103.5t-51.5 -97.5t-93 -75t-133 -29q-164 0 -299 141zM334 0l704 1434h244l-704 -1434h-244zM791 143l28 174l350 543h306l-91 -506h91l-37 -211h-90l-25 -143h-227l24 143h-329zM1030 354h127l49 273z" />
<glyph unicode="&#xbf;" horiz-adv-x="849" d="M-2 307q0 48 11 94t29.5 83t45.5 73t54 63.5t61 54t61 44t59.5 35.5t51 27t40 19t23.5 11l37 137h199l-43 -338q-130 -50 -197.5 -106.5t-67.5 -128.5q0 -29 17 -51.5t53 -22.5q28 0 65.5 16t53 26.5t53.5 35.5l144 -248q-198 -154 -404 -154q-157 0 -251.5 90.5 t-94.5 239.5zM428 1071l64 363h325l-63 -363h-326z" />
<glyph unicode="&#xc0;" horiz-adv-x="1099" d="M-98 0l604 1434h381l100 -1434h-375l2 240h-256l-79 -240h-377zM440 1802h330l125 -293h-258zM463 545h155l5 475z" />
<glyph unicode="&#xc1;" horiz-adv-x="1099" d="M-98 0l604 1434h381l100 -1434h-375l2 240h-256l-79 -240h-377zM463 545h155l5 475zM528 1509l232 293h358l-303 -293h-287z" />
<glyph unicode="&#xc2;" horiz-adv-x="1097" d="M-98 0l604 1434h381l100 -1434h-375l2 240h-256l-79 -240h-377zM403 1509l215 293h293l107 -293h-207l-63 138l-109 -138h-236zM463 545h155l5 475z" />
<glyph unicode="&#xc3;" horiz-adv-x="1099" d="M-98 0l604 1434h381l100 -1434h-375l2 240h-256l-79 -240h-377zM418 1612q27 47 39.5 68t38 56.5t45 51t47.5 28.5t59 13q34 0 73 -24t71 -48t51 -24q38 0 96 96l119 -98q-23 -41 -33 -57.5t-31.5 -49t-36.5 -47t-36.5 -32.5t-45 -25t-49.5 -7q-33 0 -71 24t-69.5 48.5 t-49.5 24.5q-40 0 -96 -99zM463 545h155l5 475z" />
<glyph unicode="&#xc4;" horiz-adv-x="1097" d="M-98 0l604 1434h381l100 -1434h-375l2 240h-256l-79 -240h-377zM449 1530l47 266h235l-47 -266h-235zM463 545h155l5 475zM743 1530l48 266h233l-47 -266h-234z" />
<glyph unicode="&#xc5;" horiz-adv-x="1097" d="M-104 0l604 1434h381l100 -1434h-375l2 240h-256l-80 -240h-376zM457 545h155l4 475zM528 1702q0 88 62 150.5t151 62.5q88 0 149.5 -62.5t61.5 -150.5q0 -89 -61.5 -151t-149.5 -62q-89 0 -151 62t-62 151zM680 1702q0 -26 17.5 -44t43.5 -18q25 0 43.5 18t18.5 44 q0 25 -18.5 43t-43.5 18q-26 0 -43.5 -18t-17.5 -43z" />
<glyph unicode="&#xc6;" horiz-adv-x="1650" d="M-156 0l899 1434h983l-59 -332h-442l-41 -223h356l-57 -324h-357l-41 -223h453l-57 -332h-801l41 240h-301l-141 -240h-435zM606 555h170l74 414z" />
<glyph unicode="&#xc7;" horiz-adv-x="1003" d="M61 500q0 68 6.5 144.5t24.5 171t45 182.5t71.5 172.5t100.5 147t136.5 100.5t175.5 38q62 0 124 -15t125.5 -46.5t106.5 -56.5t108 -68l-184 -281q-192 115 -256 115q-58 0 -104.5 -69t-72 -170t-39 -197t-13.5 -166q0 -85 25 -128.5t83 -43.5q40 0 97 24t161 78 l121 -305q-267 -131 -418 -147q19 -59 19 -123q0 -121 -64.5 -183.5t-150.5 -62.5q-93 0 -148 47l95 176q30 -22 57 -22q63 0 63 90q0 44 -14 86q-75 18 -130.5 65.5t-88 117.5t-47.5 151.5t-15 177.5z" />
<glyph unicode="&#xc8;" horiz-adv-x="962" d="M-8 0l252 1434h794l-59 -332h-442l-41 -223h356l-57 -324h-357l-41 -223h453l-57 -332h-801zM391 1802h330l125 -293h-258z" />
<glyph unicode="&#xc9;" horiz-adv-x="962" d="M-8 0l252 1434h794l-59 -332h-442l-41 -223h356l-57 -324h-357l-41 -223h453l-57 -332h-801zM459 1509l231 293h359l-304 -293h-286z" />
<glyph unicode="&#xca;" horiz-adv-x="962" d="M-8 0l252 1434h794l-59 -332h-442l-41 -223h356l-57 -324h-357l-41 -223h453l-57 -332h-801zM350 1509l215 293h293l107 -293h-207l-64 138l-108 -138h-236z" />
<glyph unicode="&#xcb;" horiz-adv-x="962" d="M-8 0l252 1434h794l-59 -332h-442l-41 -223h356l-57 -324h-357l-41 -223h453l-57 -332h-801zM399 1530l47 266h236l-47 -266h-236zM694 1530l47 266h234l-47 -266h-234z" />
<glyph unicode="&#xcc;" horiz-adv-x="552" d="M-8 0l252 1434h350l-254 -1434h-348zM164 1802h330l124 -293h-258z" />
<glyph unicode="&#xcd;" horiz-adv-x="550" d="M-8 0l252 1434h350l-254 -1434h-348zM231 1509l232 293h358l-303 -293h-287z" />
<glyph unicode="&#xce;" horiz-adv-x="548" d="M-8 0l252 1434h350l-254 -1434h-348zM121 1509l215 293h293l106 -293h-207l-63 138l-109 -138h-235z" />
<glyph unicode="&#xcf;" horiz-adv-x="550" d="M-8 0l252 1434h350l-254 -1434h-348zM174 1530l47 266h236l-47 -266h-236zM469 1530l47 266h234l-48 -266h-233z" />
<glyph unicode="&#xd0;" horiz-adv-x="1159" d="M8 569l53 297h103l100 568h318q144 0 250.5 -38t169.5 -109.5t92.5 -164t29.5 -209.5q0 -63 -7 -133.5t-27.5 -162t-53 -174.5t-88.5 -165.5t-128 -142.5t-178.5 -97.5t-233.5 -37.5h-396l101 569h-105zM418 332h39q93 0 167 86t111 210t37 253q0 118 -45.5 169.5 t-146.5 51.5h-23l-43 -236h160l-53 -297h-160z" />
<glyph unicode="&#xd1;" horiz-adv-x="1155" d="M-8 0l252 1434h352l125 -729l129 729h348l-252 -1434h-350l-127 731l-129 -731h-348zM451 1612q27 47 39.5 68t38 56.5t45 51t47.5 28.5t59 13q34 0 72.5 -24t70.5 -48t51 -24q39 0 97 96l119 -98q-23 -41 -33 -57.5t-31.5 -49t-36.5 -47t-36.5 -32.5t-45 -25t-49.5 -7 q-33 0 -71 24t-69.5 48.5t-49.5 24.5q-41 0 -97 -99z" />
<glyph unicode="&#xd2;" horiz-adv-x="1191" d="M66 532q0 60 7 131t26 162t48 177t77.5 169.5t109.5 145.5t149 100.5t191 38.5q104 0 189 -29.5t153.5 -92.5t106.5 -173t38 -260q0 -60 -7 -131t-26 -162t-48 -177t-77.5 -169.5t-109.5 -145.5t-149 -100.5t-191 -38.5q-105 0 -190.5 29.5t-153.5 92.5t-105.5 173 t-37.5 260zM418 504q0 -38 6.5 -70t21.5 -61.5t44 -46.5t69 -17q56 0 102 58t72 138.5t43.5 173.5t24 156.5t6.5 94.5q0 37 -6 68.5t-21 61.5t-44 47t-70 17q-47 0 -87 -40t-66 -104t-45.5 -137t-29.5 -145t-15 -121t-5 -73zM483 1802h330l125 -293h-258z" />
<glyph unicode="&#xd3;" horiz-adv-x="1191" d="M66 532q0 60 7 131t26 162t48 177t77.5 169.5t109.5 145.5t149 100.5t191 38.5q104 0 189 -29.5t153.5 -92.5t106.5 -173t38 -260q0 -60 -7 -131t-26 -162t-48 -177t-77.5 -169.5t-109.5 -145.5t-149 -100.5t-191 -38.5q-105 0 -190.5 29.5t-153.5 92.5t-105.5 173 t-37.5 260zM418 504q0 -38 6.5 -70t21.5 -61.5t44 -46.5t69 -17q56 0 102 58t72 138.5t43.5 173.5t24 156.5t6.5 94.5q0 37 -6 68.5t-21 61.5t-44 47t-70 17q-47 0 -87 -40t-66 -104t-45.5 -137t-29.5 -145t-15 -121t-5 -73zM553 1509l231 293h359l-303 -293h-287z" />
<glyph unicode="&#xd4;" horiz-adv-x="1191" d="M66 532q0 60 7 131t26 162t48 177t77.5 169.5t109.5 145.5t149 100.5t191 38.5q104 0 189 -29.5t153.5 -92.5t106.5 -173t38 -260q0 -60 -7 -131t-26 -162t-48 -177t-77.5 -169.5t-109.5 -145.5t-149 -100.5t-191 -38.5q-105 0 -190.5 29.5t-153.5 92.5t-105.5 173 t-37.5 260zM418 504q0 -38 6.5 -70t21.5 -61.5t44 -46.5t69 -17q56 0 102 58t72 138.5t43.5 173.5t24 156.5t6.5 94.5q0 37 -6 68.5t-21 61.5t-44 47t-70 17q-47 0 -87 -40t-66 -104t-45.5 -137t-29.5 -145t-15 -121t-5 -73zM446 1509l216 293h292l107 -293h-207l-63 138 l-109 -138h-236z" />
<glyph unicode="&#xd5;" horiz-adv-x="1191" d="M66 532q0 60 7 131t26 162t48 177t77.5 169.5t109.5 145.5t149 100.5t191 38.5q104 0 189 -29.5t153.5 -92.5t106.5 -173t38 -260q0 -60 -7 -131t-26 -162t-48 -177t-77.5 -169.5t-109.5 -145.5t-149 -100.5t-191 -38.5q-105 0 -190.5 29.5t-153.5 92.5t-105.5 173 t-37.5 260zM418 504q0 -38 6.5 -70t21.5 -61.5t44 -46.5t69 -17q56 0 102 58t72 138.5t43.5 173.5t24 156.5t6.5 94.5q0 37 -6 68.5t-21 61.5t-44 47t-70 17q-47 0 -87 -40t-66 -104t-45.5 -137t-29.5 -145t-15 -121t-5 -73zM461 1612q27 47 39.5 68t38 56.5t45 51 t47.5 28.5t59 13q34 0 73 -24t71 -48t51 -24q38 0 96 96l119 -98q-23 -41 -33 -57.5t-31.5 -49t-36.5 -47t-36.5 -32.5t-45 -25t-49.5 -7q-33 0 -71 24t-69.5 48.5t-49.5 24.5q-40 0 -96 -99z" />
<glyph unicode="&#xd6;" horiz-adv-x="1191" d="M66 532q0 60 7 131t26 162t48 177t77.5 169.5t109.5 145.5t149 100.5t191 38.5q104 0 189 -29.5t153.5 -92.5t106.5 -173t38 -260q0 -60 -7 -131t-26 -162t-48 -177t-77.5 -169.5t-109.5 -145.5t-149 -100.5t-191 -38.5q-105 0 -190.5 29.5t-153.5 92.5t-105.5 173 t-37.5 260zM418 504q0 -38 6.5 -70t21.5 -61.5t44 -46.5t69 -17q56 0 102 58t72 138.5t43.5 173.5t24 156.5t6.5 94.5q0 37 -6 68.5t-21 61.5t-44 47t-70 17q-47 0 -87 -40t-66 -104t-45.5 -137t-29.5 -145t-15 -121t-5 -73zM496 1530l47 266h235l-47 -266h-235zM791 1530 l47 266h233l-47 -266h-233z" />
<glyph unicode="&#xd7;" horiz-adv-x="1044" d="M117 434l254 273l-162 280l233 135l121 -209l195 209l198 -182l-251 -270l163 -281l-235 -135l-123 209l-197 -211z" />
<glyph unicode="&#xd8;" horiz-adv-x="1191" d="M-27 0l156 213q-61 125 -61 319q0 60 7 131t26 162t48 177t77.5 169.5t109.5 145.5t149 100.5t191 38.5q185 0 305 -90l49 68h225l-157 -213q65 -127 65 -320q0 -60 -7 -131t-26 -162t-48 -177t-77.5 -169.5t-109.5 -145.5t-149 -100.5t-191 -38.5q-185 0 -305 89 l-49 -66h-228zM428 616l340 463q-33 45 -100 45q-54 0 -98.5 -51.5t-72.5 -135.5t-44 -162.5t-25 -158.5zM461 352q32 -43 100 -43q54 0 98 51.5t71.5 134.5t43.5 161.5t25 158.5z" />
<glyph unicode="&#xd9;" horiz-adv-x="1116" d="M51.5 359.5q1.5 76.5 18.5 172.5l157 902h351l-170 -955q-6 -46 -6 -83.5t23.5 -61t72.5 -23.5q72 0 106.5 44.5t46.5 123.5l170 955h350l-163 -920q-17 -99 -38 -171t-60.5 -145t-94 -118.5t-140.5 -74t-198 -28.5q-122 0 -207.5 30t-132 79t-67 123t-19 150.5z M442 1802h330l125 -293h-258z" />
<glyph unicode="&#xda;" horiz-adv-x="1116" d="M51.5 359.5q1.5 76.5 18.5 172.5l157 902h351l-170 -955q-6 -46 -6 -83.5t23.5 -61t72.5 -23.5q72 0 106.5 44.5t46.5 123.5l170 955h350l-163 -920q-17 -99 -38 -171t-60.5 -145t-94 -118.5t-140.5 -74t-198 -28.5q-122 0 -207.5 30t-132 79t-67 123t-19 150.5z M508 1509l231 293h359l-303 -293h-287z" />
<glyph unicode="&#xdb;" horiz-adv-x="1114" d="M51.5 359.5q1.5 76.5 18.5 172.5l157 902h351l-170 -955q-6 -46 -6 -83.5t23.5 -61t72.5 -23.5q72 0 106.5 44.5t46.5 123.5l170 955h350l-163 -920q-17 -99 -38 -171t-60.5 -145t-94 -118.5t-140.5 -74t-198 -28.5q-122 0 -207.5 30t-132 79t-67 123t-19 150.5z M403 1509l215 293h293l107 -293h-207l-63 138l-109 -138h-236z" />
<glyph unicode="&#xdc;" horiz-adv-x="1116" d="M51.5 359.5q1.5 76.5 18.5 172.5l157 902h351l-170 -955q-6 -46 -6 -83.5t23.5 -61t72.5 -23.5q72 0 106.5 44.5t46.5 123.5l170 955h350l-163 -920q-17 -99 -38 -171t-60.5 -145t-94 -118.5t-140.5 -74t-198 -28.5q-122 0 -207.5 30t-132 79t-67 123t-19 150.5z M453 1530l47 266h235l-47 -266h-235zM748 1530l47 266h233l-47 -266h-233z" />
<glyph unicode="&#xdd;" horiz-adv-x="1040" d="M143 1434h375l53 -463l211 463h398l-496 -859l-98 -575h-348l100 573zM475 1509l232 293h358l-303 -293h-287z" />
<glyph unicode="&#xde;" horiz-adv-x="1062" d="M-8 0l252 1434h350l-39 -213h43q113 0 197.5 -23.5t132.5 -59t76.5 -88.5t37.5 -102t9 -110q0 -268 -159 -422t-468 -154h-37l-47 -262h-348zM442 582h43q108 0 158.5 56.5t50.5 141.5q0 64 -35 90.5t-112 26.5h-49z" />
<glyph unicode="&#xdf;" horiz-adv-x="1198" d="M-27 0l166 946q14 82 32.5 147t48 130.5t71.5 113t98 85t134.5 56.5t174.5 19q124 0 216.5 -31t144 -83.5t76 -113.5t24.5 -130q0 -47 -11 -90.5t-27 -72.5t-32 -51t-27 -32l-11 -10q-35 -9 -67 -24.5t-59.5 -43.5t-27.5 -59t25.5 -58.5t70.5 -66.5t72 -76 q72 -98 72 -217q0 -147 -106 -254t-275 -107q-175 0 -375 119l166 250q121 -80 184 -80q26 0 43 15t17 45q0 39 -41 75q-3 2 -35.5 28.5t-51 46.5t-45 55.5t-40 81t-13.5 98.5q0 224 260 344q9 36 9 51q0 52 -33 85.5t-107 33.5q-93 0 -142.5 -66.5t-78.5 -232.5l-164 -926 h-336z" />
<glyph unicode="&#xe0;" horiz-adv-x="995" d="M25 307q0 88 13.5 188.5t45.5 209t78.5 195t118.5 142.5t159 56q67 0 110.5 -31t92.5 -96l19 104h335l-188 -1075h-336l19 109q-70 -66 -124.5 -99t-121.5 -33q-53 0 -93.5 21t-64 53.5t-38.5 78t-20 88t-5 89.5zM356 1493h330l125 -293h-258zM369 381q0 -102 51 -102 q53 0 121 110l51 295q-26 113 -78 113q-35 0 -64.5 -51.5t-46 -123.5t-25.5 -137t-9 -104z" />
<glyph unicode="&#xe1;" horiz-adv-x="1210" d="M25 307q0 88 13.5 188.5t45.5 209t78.5 195t118.5 142.5t159 56q67 0 110.5 -31t92.5 -96l19 104h335l-188 -1075h-336l19 109q-70 -66 -124.5 -99t-121.5 -33q-53 0 -93.5 21t-64 53.5t-38.5 78t-20 88t-5 89.5zM369 381q0 -102 51 -102q53 0 121 110l51 295 q-26 113 -78 113q-35 0 -64.5 -51.5t-46 -123.5t-25.5 -137t-9 -104zM463 1200l231 293h359l-303 -293h-287z" />
<glyph unicode="&#xe2;" horiz-adv-x="995" d="M25 307q0 88 13.5 188.5t45.5 209t78.5 195t118.5 142.5t159 56q67 0 110.5 -31t92.5 -96l19 104h335l-188 -1075h-336l19 109q-70 -66 -124.5 -99t-121.5 -33q-53 0 -93.5 21t-64 53.5t-38.5 78t-20 88t-5 89.5zM315 1200l215 293h293l107 -293h-207l-64 137l-108 -137 h-236zM369 381q0 -102 51 -102q53 0 121 110l51 295q-26 113 -78 113q-35 0 -64.5 -51.5t-46 -123.5t-25.5 -137t-9 -104z" />
<glyph unicode="&#xe3;" horiz-adv-x="995" d="M25 307q0 88 13.5 188.5t45.5 209t78.5 195t118.5 142.5t159 56q67 0 110.5 -31t92.5 -96l19 104h335l-188 -1075h-336l19 109q-70 -66 -124.5 -99t-121.5 -33q-53 0 -93.5 21t-64 53.5t-38.5 78t-20 88t-5 89.5zM336 1303q27 47 39.5 68t38 56.5t45 51t47.5 28.5t59 13 q27 0 57.5 -15t52.5 -33.5t46 -33.5t39 -15q37 0 96 97l119 -99q-20 -34 -28.5 -49t-27 -43.5t-29.5 -42t-30 -32.5t-35.5 -27.5t-37.5 -15.5t-44 -7q-33 0 -71 24t-69.5 48t-49.5 24q-40 0 -96 -98zM369 381q0 -102 51 -102q53 0 121 110l51 295q-26 113 -78 113 q-35 0 -64.5 -51.5t-46 -123.5t-25.5 -137t-9 -104z" />
<glyph unicode="&#xe4;" horiz-adv-x="995" d="M25 307q0 88 13.5 188.5t45.5 209t78.5 195t118.5 142.5t159 56q67 0 110.5 -31t92.5 -96l19 104h335l-188 -1075h-336l19 109q-70 -66 -124.5 -99t-121.5 -33q-53 0 -93.5 21t-64 53.5t-38.5 78t-20 88t-5 89.5zM369 381q0 -102 51 -102q53 0 121 110l51 295 q-26 113 -78 113q-35 0 -64.5 -51.5t-46 -123.5t-25.5 -137t-9 -104zM379 1221l47 266h236l-48 -266h-235zM674 1221l47 266h233l-47 -266h-233z" />
<glyph unicode="&#xe5;" horiz-adv-x="995" d="M25 307q0 88 13.5 188.5t45.5 209t78.5 195t118.5 142.5t159 56q67 0 110.5 -31t92.5 -96l19 104h335l-188 -1075h-336l19 109q-70 -66 -124.5 -99t-121.5 -33q-53 0 -93.5 21t-64 53.5t-38.5 78t-20 88t-5 89.5zM369 381q0 -102 51 -102q53 0 121 110l51 295 q-26 113 -78 113q-35 0 -64.5 -51.5t-46 -123.5t-25.5 -137t-9 -104zM453 1393q0 88 62 150.5t151 62.5q88 0 149.5 -62.5t61.5 -150.5q0 -89 -61.5 -151t-149.5 -62q-89 0 -151 62t-62 151zM604 1393q0 -26 18 -44t44 -18q25 0 43 18t18 44q0 25 -18 43t-43 18 q-26 0 -44 -18t-18 -43z" />
<glyph unicode="&#xe6;" horiz-adv-x="1417" d="M25 307q0 88 13.5 188.5t45.5 209t78.5 195t118.5 142.5t159 56q67 0 110.5 -31t92.5 -96l19 104h270q74 23 149 23q144 0 229 -82.5t85 -222.5q0 -93 -28 -162.5t-70.5 -108.5t-104 -62.5t-117 -30.5t-121.5 -7h-63v-25q0 -143 74 -143q37 0 92.5 25t154.5 81l95 -249 q-57 -38 -188 -86t-249 -48q-64 0 -125 23h-272l19 109q-70 -66 -124.5 -99t-121.5 -33q-53 0 -93.5 21t-64 53.5t-38.5 78t-20 88t-5 89.5zM369 381q0 -102 51 -102q53 0 121 110l51 295q-26 113 -78 113q-35 0 -64.5 -51.5t-46 -123.5t-25.5 -137t-9 -104zM907 616h47 q67 0 107.5 41.5t40.5 112.5q0 64 -53 64q-100 0 -142 -218z" />
<glyph unicode="&#xe7;" horiz-adv-x="796" d="M23 369q0 178 37 321t98 230t136 132.5t155 45.5q49 0 93.5 -7.5t92 -27t69 -29.5t73.5 -40t57 -33l-160 -263q-5 3 -23.5 15.5t-27.5 18t-27 16t-30.5 15.5t-27.5 9t-28 4q-46 0 -81 -56.5t-52 -137.5t-17 -168q0 -115 70 -115q16 0 41.5 10t72.5 33.5t66 32.5l86 -287 q-201 -96 -323 -108q18 -56 18 -123q0 -121 -64.5 -183.5t-150.5 -62.5q-92 0 -147 47l94 176q30 -22 57 -22q64 0 64 90q0 41 -17 92q-95 31 -149.5 125t-54.5 250z" />
<glyph unicode="&#xe8;" horiz-adv-x="880" d="M20 389q0 207 61 366.5t181 251t283 91.5q144 0 228.5 -82.5t84.5 -222.5q0 -93 -28 -162.5t-70 -108.5t-103.5 -62.5t-117 -30.5t-121.5 -7h-64v-25q0 -143 74 -143q37 0 93 25t155 81l94 -249q-57 -39 -187.5 -86.5t-248.5 -47.5q-144 0 -229 100t-85 312zM301 1493 h330l125 -293h-258zM371 616h47q67 0 107 41.5t40 112.5q0 64 -53 64q-99 0 -141 -218z" />
<glyph unicode="&#xe9;" horiz-adv-x="882" d="M20 389q0 207 61 366.5t181 251t283 91.5q144 0 228.5 -82.5t84.5 -222.5q0 -93 -28 -162.5t-70 -108.5t-103.5 -62.5t-117 -30.5t-121.5 -7h-64v-25q0 -143 74 -143q37 0 93 25t155 81l94 -249q-57 -39 -187.5 -86.5t-248.5 -47.5q-144 0 -229 100t-85 312zM371 616h47 q67 0 107 41.5t40 112.5q0 64 -53 64q-99 0 -141 -218zM371 1200l231 293h359l-304 -293h-286z" />
<glyph unicode="&#xea;" horiz-adv-x="880" d="M20 389q0 207 61 366.5t181 251t283 91.5q144 0 228.5 -82.5t84.5 -222.5q0 -93 -28 -162.5t-70 -108.5t-103.5 -62.5t-117 -30.5t-121.5 -7h-64v-25q0 -143 74 -143q37 0 93 25t155 81l94 -249q-57 -39 -187.5 -86.5t-248.5 -47.5q-144 0 -229 100t-85 312zM260 1200 l215 293h293l106 -293h-206l-64 137l-108 -137h-236zM371 616h47q67 0 107 41.5t40 112.5q0 64 -53 64q-99 0 -141 -218z" />
<glyph unicode="&#xeb;" horiz-adv-x="878" d="M20 389q0 207 61 366.5t181 251t283 91.5q144 0 228.5 -82.5t84.5 -222.5q0 -93 -28 -162.5t-70 -108.5t-103.5 -62.5t-117 -30.5t-121.5 -7h-64v-25q0 -143 74 -143q37 0 93 25t155 81l94 -249q-57 -39 -187.5 -86.5t-248.5 -47.5q-144 0 -229 100t-85 312zM311 1221 l47 266h236l-47 -266h-236zM371 616h47q67 0 107 41.5t40 112.5q0 64 -53 64q-99 0 -141 -218zM606 1221l47 266h234l-47 -266h-234z" />
<glyph unicode="&#xec;" horiz-adv-x="499" d="M-29 0l191 1075h336l-191 -1075h-336zM84 1493h330l125 -293h-258z" />
<glyph unicode="&#xed;" horiz-adv-x="495" d="M-29 0l191 1075h336l-191 -1075h-336zM150 1200l231 293h358l-303 -293h-286z" />
<glyph unicode="&#xee;" horiz-adv-x="497" d="M-29 0l191 1075h336l-191 -1075h-336zM43 1200l215 293h293l106 -293h-206l-64 137l-108 -137h-236z" />
<glyph unicode="&#xef;" horiz-adv-x="497" d="M-29 0l191 1075h336l-191 -1075h-336zM92 1221l47 266h236l-47 -266h-236zM387 1221l47 266h234l-47 -266h-234z" />
<glyph unicode="&#xf0;" horiz-adv-x="995" d="M14 379q0 150 57.5 286t162.5 223t231 87q132 0 180 -96q-13 135 -94 202l-37 -55h-248l74 111q-24 -2 -48.5 -5.5t-37.5 -6.5l-12 -3l20 289q56 23 162 23q48 0 108 -11l48 70h243l-98 -147q67 -47 116 -117t75 -150t37.5 -156.5t11.5 -154.5q0 -94 -15 -187.5 t-43.5 -182.5t-75 -165t-105.5 -133.5t-138.5 -90t-171.5 -32.5q-89 0 -159 22.5t-115 60t-74.5 90t-41.5 109t-12 120.5zM362 373q0 -109 82 -109q43 0 75.5 35t49 88t24 102t7.5 91q0 49 -17 78.5t-65 29.5q-42 0 -75 -40t-49 -96.5t-24 -103.5t-8 -75z" />
<glyph unicode="&#xf1;" horiz-adv-x="980" d="M-27 0l189 1075h336l-21 -110q75 65 141.5 99t139.5 34q235 0 174 -342l-133 -756h-336l117 672q13 47 11 91t-34 44q-28 0 -62 -27t-61 -69l-125 -711h-336zM305 1303q33 57 50.5 84.5t48 64.5t62 52.5t69.5 15.5q34 0 72.5 -24t70.5 -48.5t51 -24.5q37 0 96 97l119 -99 q-28 -49 -40 -68.5t-37.5 -55.5t-45 -51.5t-48 -28.5t-60.5 -13q-33 0 -71.5 24t-70 48t-49.5 24q-40 0 -96 -98z" />
<glyph unicode="&#xf2;" horiz-adv-x="966" d="M27 408q0 48 5 102t19.5 122.5t36.5 131.5t60 125t86.5 107.5t119.5 73.5t156 28q49 0 98 -9t107 -37.5t101 -73.5t72.5 -126t29.5 -186q0 -48 -5 -101.5t-19.5 -122t-36.5 -131.5t-60.5 -125t-87 -107.5t-119.5 -73.5t-156 -28q-40 0 -80 7t-88.5 23t-89 48t-75 77.5 t-54.5 116.5t-20 159zM315 1493h330l125 -293h-258zM360 371q0 -109 72 -109q39 0 70 53.5t48 129.5t25.5 145t8.5 115q0 108 -72 108q-39 0 -70 -53t-48 -129t-25.5 -145t-8.5 -115z" />
<glyph unicode="&#xf3;" horiz-adv-x="966" d="M27 408q0 48 5 102t19.5 122.5t36.5 131.5t60 125t86.5 107.5t119.5 73.5t156 28q49 0 98 -9t107 -37.5t101 -73.5t72.5 -126t29.5 -186q0 -48 -5 -101.5t-19.5 -122t-36.5 -131.5t-60.5 -125t-87 -107.5t-119.5 -73.5t-156 -28q-40 0 -80 7t-88.5 23t-89 48t-75 77.5 t-54.5 116.5t-20 159zM360 371q0 -109 72 -109q39 0 70 53.5t48 129.5t25.5 145t8.5 115q0 108 -72 108q-39 0 -70 -53t-48 -129t-25.5 -145t-8.5 -115zM383 1200l231 293h359l-303 -293h-287z" />
<glyph unicode="&#xf4;" horiz-adv-x="966" d="M27 408q0 48 5 102t19.5 122.5t36.5 131.5t60 125t86.5 107.5t119.5 73.5t156 28q49 0 98 -9t107 -37.5t101 -73.5t72.5 -126t29.5 -186q0 -48 -5 -101.5t-19.5 -122t-36.5 -131.5t-60.5 -125t-87 -107.5t-119.5 -73.5t-156 -28q-40 0 -80 7t-88.5 23t-89 48t-75 77.5 t-54.5 116.5t-20 159zM276 1200l216 293h292l107 -293h-207l-63 137l-109 -137h-236zM360 371q0 -109 72 -109q39 0 70 53.5t48 129.5t25.5 145t8.5 115q0 108 -72 108q-39 0 -70 -53t-48 -129t-25.5 -145t-8.5 -115z" />
<glyph unicode="&#xf5;" horiz-adv-x="968" d="M27 408q0 48 5 102t19.5 122.5t36.5 131.5t60 125t86.5 107.5t119.5 73.5t156 28q49 0 98 -9t107 -37.5t101 -73.5t72.5 -126t29.5 -186q0 -48 -5 -101.5t-19.5 -122t-36.5 -131.5t-60.5 -125t-87 -107.5t-119.5 -73.5t-156 -28q-40 0 -80 7t-88.5 23t-89 48t-75 77.5 t-54.5 116.5t-20 159zM299 1303q27 47 39.5 68t38 56.5t45 51t47.5 28.5t59 13q27 0 57.5 -15t52.5 -33.5t46 -33.5t39 -15q37 0 96 97l119 -99q-28 -49 -40 -68.5t-37.5 -55.5t-45 -51.5t-48 -28.5t-60.5 -13q-33 0 -71.5 24t-70 48t-49.5 24q-40 0 -96 -98zM360 371 q0 -109 72 -109q39 0 70 53.5t48 129.5t25.5 145t8.5 115q0 108 -72 108q-39 0 -70 -53t-48 -129t-25.5 -145t-8.5 -115z" />
<glyph unicode="&#xf6;" horiz-adv-x="966" d="M27 408q0 48 5 102t19.5 122.5t36.5 131.5t60 125t86.5 107.5t119.5 73.5t156 28q49 0 98 -9t107 -37.5t101 -73.5t72.5 -126t29.5 -186q0 -48 -5 -101.5t-19.5 -122t-36.5 -131.5t-60.5 -125t-87 -107.5t-119.5 -73.5t-156 -28q-40 0 -80 7t-88.5 23t-89 48t-75 77.5 t-54.5 116.5t-20 159zM330 1221l47 266h235l-47 -266h-235zM360 371q0 -109 72 -109q39 0 70 53.5t48 129.5t25.5 145t8.5 115q0 108 -72 108q-39 0 -70 -53t-48 -129t-25.5 -145t-8.5 -115zM625 1221l47 266h233l-47 -266h-233z" />
<glyph unicode="&#xf7;" horiz-adv-x="1003" d="M113 543l51 280h749l-49 -280h-751zM311 326q0 57 40.5 97t97.5 40q58 0 98.5 -40t40.5 -97q0 -59 -40.5 -99.5t-98.5 -40.5q-57 0 -97.5 41t-40.5 99zM436 1042q0 57 40 98.5t97 41.5q58 0 99 -41.5t41 -98.5q0 -58 -40.5 -98.5t-99.5 -40.5q-57 0 -97 40.5t-40 98.5z " />
<glyph unicode="&#xf8;" horiz-adv-x="966" d="M-47 0l127 164q-53 98 -53 244q0 48 5 102t19.5 122.5t36.5 131.5t60 125t86.5 107.5t119.5 73.5t156 28q142 0 246 -70l37 47h174l-115 -147q66 -107 66 -262q0 -48 -5 -101.5t-19.5 -122t-36.5 -131.5t-60.5 -125t-87 -107.5t-119.5 -73.5t-156 -28q-153 0 -260 78 l-43 -55h-178zM369 305q16 -43 63 -43q28 0 52 27.5t40.5 74.5t28 97t18.5 106zM377 543l188 241q-16 29 -53 29q-34 0 -62.5 -42.5t-45 -99.5t-27.5 -128z" />
<glyph unicode="&#xf9;" d="M25 322l133 753h336l-119 -669q-12 -51 -10 -94.5t34 -43.5q27 0 60.5 26.5t62.5 67.5l125 713h338l-188 -1075h-338l18 111q-75 -65 -140.5 -99.5t-137.5 -34.5q-109 0 -157.5 82t-16.5 263zM319 1493h330l125 -293h-258z" />
<glyph unicode="&#xfa;" d="M25 322l133 753h336l-119 -669q-12 -51 -10 -94.5t34 -43.5q27 0 60.5 26.5t62.5 67.5l125 713h338l-188 -1075h-338l18 111q-75 -65 -140.5 -99.5t-137.5 -34.5q-109 0 -157.5 82t-16.5 263zM387 1200l231 293h359l-303 -293h-287z" />
<glyph unicode="&#xfb;" d="M25 322l133 753h336l-119 -669q-12 -51 -10 -94.5t34 -43.5q27 0 60.5 26.5t62.5 67.5l125 713h338l-188 -1075h-338l18 111q-75 -65 -140.5 -99.5t-137.5 -34.5q-109 0 -157.5 82t-16.5 263zM279 1200l215 293h292l107 -293h-207l-63 137l-109 -137h-235z" />
<glyph unicode="&#xfc;" d="M25 322l133 753h336l-119 -669q-12 -51 -10 -94.5t34 -43.5q27 0 60.5 26.5t62.5 67.5l125 713h338l-188 -1075h-338l18 111q-75 -65 -140.5 -99.5t-137.5 -34.5q-109 0 -157.5 82t-16.5 263zM332 1221l47 266h235l-47 -266h-235zM627 1221l47 266h233l-47 -266h-233z " />
<glyph unicode="&#xfd;" horiz-adv-x="921" d="M-23 -190q134 65 209 133l-98 1132h346l-10 -641l211 641h352l-457 -1075q-30 -69 -51.5 -113t-63.5 -108t-87.5 -106t-116 -83t-156.5 -63zM358 1200l232 293h358l-303 -293h-287z" />
<glyph unicode="&#xfe;" horiz-adv-x="989" d="M-100 -418l336 1911h335l-90 -518q68 63 120.5 93t117.5 30q66 0 112 -30t69 -81t32.5 -104t9.5 -115q0 -77 -12 -171.5t-42.5 -206t-75.5 -202t-119 -151t-165 -60.5q-67 0 -110 29.5t-92 91.5l-90 -516h-336zM375 379q26 -100 80 -100q43 0 77.5 82.5t49 172.5 t14.5 150q0 113 -53 113q-49 0 -111 -101z" />
<glyph unicode="&#xff;" horiz-adv-x="921" d="M-23 -190q134 65 209 133l-98 1132h346l-10 -641l211 641h352l-457 -1075q-30 -69 -51.5 -113t-63.5 -108t-87.5 -106t-116 -83t-156.5 -63zM299 1221l47 266h236l-47 -266h-236zM594 1221l47 266h233l-47 -266h-233z" />
<glyph unicode="&#x100;" horiz-adv-x="1097" d="M-98 0l604 1434h381l100 -1434h-375l2 240h-256l-79 -240h-377zM463 545h155l5 475zM485 1561l37 215h467l-37 -215h-467z" />
<glyph unicode="&#x101;" horiz-adv-x="995" d="M25 307q0 88 13.5 188.5t45.5 209t78.5 195t118.5 142.5t159 56q67 0 110.5 -31t92.5 -96l19 104h335l-188 -1075h-336l19 109q-70 -66 -124.5 -99t-121.5 -33q-53 0 -93.5 21t-64 53.5t-38.5 78t-20 88t-5 89.5zM369 381q0 -102 51 -102q53 0 121 110l51 295 q-26 113 -78 113q-35 0 -64.5 -51.5t-46 -123.5t-25.5 -137t-9 -104zM399 1251l37 215h467l-37 -215h-467z" />
<glyph unicode="&#x102;" horiz-adv-x="1097" d="M-98 0l604 1434h381l100 -1434h-375l2 240h-256l-79 -240h-377zM463 545h155l5 475zM483 1782h191q-5 -34 11.5 -55t47.5 -21q47 0 76.5 21t32.5 55h192q-23 -127 -105.5 -200t-207.5 -73q-134 0 -196.5 76t-41.5 197z" />
<glyph unicode="&#x103;" horiz-adv-x="995" d="M25 307q0 88 13.5 188.5t45.5 209t78.5 195t118.5 142.5t159 56q67 0 110.5 -31t92.5 -96l19 104h335l-188 -1075h-336l19 109q-70 -66 -124.5 -99t-121.5 -33q-53 0 -93.5 21t-64 53.5t-38.5 78t-20 88t-5 89.5zM369 381q0 -102 51 -102q53 0 121 110l51 295 q-26 113 -78 113q-35 0 -64.5 -51.5t-46 -123.5t-25.5 -137t-9 -104zM397 1473h191q-5 -34 11.5 -55t47.5 -21q47 0 76.5 21t32.5 55h192q-23 -127 -105.5 -200t-207.5 -73q-134 0 -196.5 76t-41.5 197z" />
<glyph unicode="&#x104;" horiz-adv-x="1099" d="M-98 0l604 1434h381l100 -1434h-4q-5 -5 -45 -41t-56.5 -54t-35.5 -49.5t-19 -58.5q0 -15 5.5 -25.5t13 -15.5t19.5 -8t19 -3t18.5 0.5t12.5 0.5l-59 -158q-1 0 -17 -0.5t-27 0t-32 2t-36.5 6t-35.5 11.5t-34 20t-27 29.5t-19.5 41t-6.5 54.5q0 141 178 248h-187l2 240 h-256l-79 -240h-377zM463 545h155l5 475z" />
<glyph unicode="&#x105;" horiz-adv-x="995" d="M25 307q0 88 13.5 188.5t45.5 209t78.5 195t118.5 142.5t159 56q67 0 110.5 -31t92.5 -96l19 104h335l-188 -1075h-6q-5 -5 -45 -41t-56.5 -54t-35.5 -49.5t-19 -58.5q0 -15 5.5 -25.5t13 -15.5t19.5 -8t19 -3t18.5 0.5t12.5 0.5l-59 -158q-1 0 -17 -0.5t-27 0t-32 2 t-37 6t-36 11.5t-34 20t-27 29.5t-19.5 41t-6.5 54.5q0 141 178 248h-145l19 109q-70 -66 -124.5 -99t-121.5 -33q-53 0 -93.5 21t-64 53.5t-38.5 78t-20 88t-5 89.5zM369 381q0 -102 51 -102q53 0 121 110l51 295q-26 113 -78 113q-35 0 -64.5 -51.5t-46 -123.5t-25.5 -137 t-9 -104z" />
<glyph unicode="&#x106;" horiz-adv-x="1003" d="M61 500q0 68 6.5 144.5t24.5 171t45 182.5t71.5 172.5t100.5 147t136.5 100.5t175.5 38q62 0 124 -15t125.5 -46.5t106.5 -56.5t108 -68l-184 -281q-192 115 -256 115q-58 0 -104.5 -69t-72 -170t-39 -197t-13.5 -166q0 -85 25 -128.5t83 -43.5q40 0 97 24t161 78 l121 -305q-153 -74 -261 -112t-206 -38q-81 0 -145.5 28t-107 75.5t-70.5 115t-40 142.5t-12 162zM541 1509l231 293h358l-303 -293h-286z" />
<glyph unicode="&#x107;" horiz-adv-x="796" d="M23 369q0 178 37 321t98 230t136 132.5t155 45.5q49 0 93.5 -7.5t92 -27t69 -29.5t73.5 -40t57 -33l-160 -263q-5 3 -23.5 15.5t-27.5 18t-27 16t-30.5 15.5t-27.5 9t-28 4q-46 0 -81 -56.5t-52 -137.5t-17 -168q0 -115 70 -115q16 0 41.5 10t72.5 33.5t66 32.5l86 -287 q-233 -111 -364 -111q-138 0 -223.5 99t-85.5 293zM336 1200l231 293h359l-303 -293h-287z" />
<glyph unicode="&#x10a;" horiz-adv-x="1003" d="M61 500q0 68 6.5 144.5t24.5 171t45 182.5t71.5 172.5t100.5 147t136.5 100.5t175.5 38q62 0 124 -15t125.5 -46.5t106.5 -56.5t108 -68l-184 -281q-192 115 -256 115q-58 0 -104.5 -69t-72 -170t-39 -197t-13.5 -166q0 -85 25 -128.5t83 -43.5q40 0 97 24t161 78 l121 -305q-153 -74 -261 -112t-206 -38q-81 0 -145.5 28t-107 75.5t-70.5 115t-40 142.5t-12 162zM573 1530l52 280h249l-49 -280h-252z" />
<glyph unicode="&#x10b;" horiz-adv-x="796" d="M23 369q0 178 37 321t98 230t136 132.5t155 45.5q49 0 93.5 -7.5t92 -27t69 -29.5t73.5 -40t57 -33l-160 -263q-5 3 -23.5 15.5t-27.5 18t-27 16t-30.5 15.5t-27.5 9t-28 4q-46 0 -81 -56.5t-52 -137.5t-17 -168q0 -115 70 -115q16 0 41.5 10t72.5 33.5t66 32.5l86 -287 q-233 -111 -364 -111q-138 0 -223.5 99t-85.5 293zM414 1221l51 280h250l-49 -280h-252z" />
<glyph unicode="&#x10c;" horiz-adv-x="1003" d="M61 500q0 68 6.5 144.5t24.5 171t45 182.5t71.5 172.5t100.5 147t136.5 100.5t175.5 38q62 0 124 -15t125.5 -46.5t106.5 -56.5t108 -68l-184 -281q-192 115 -256 115q-58 0 -104.5 -69t-72 -170t-39 -197t-13.5 -166q0 -85 25 -128.5t83 -43.5q40 0 97 24t161 78 l121 -305q-153 -74 -261 -112t-206 -38q-81 0 -145.5 28t-107 75.5t-70.5 115t-40 142.5t-12 162zM440 1802h205l66 -137l110 137h232l-211 -293h-297z" />
<glyph unicode="&#x10d;" horiz-adv-x="794" d="M23 369q0 178 37 321t98 230t136 132.5t155 45.5q49 0 93.5 -7.5t92 -27t69 -29.5t73.5 -40t57 -33l-160 -263q-5 3 -23.5 15.5t-27.5 18t-27 16t-30.5 15.5t-27.5 9t-28 4q-46 0 -81 -56.5t-52 -137.5t-17 -168q0 -115 70 -115q16 0 41.5 10t72.5 33.5t66 32.5l86 -287 q-233 -111 -364 -111q-138 0 -223.5 99t-85.5 293zM281 1493h204l66 -137l111 137h231l-211 -293h-297z" />
<glyph unicode="&#x10e;" horiz-adv-x="1136" d="M-8 0l252 1434h317q144 0 250.5 -38t169.5 -109t93 -164t30 -210q0 -63 -7 -133.5t-27.5 -161.5t-53 -174.5t-89 -166t-128.5 -142.5t-178.5 -97.5t-233.5 -37.5h-395zM397 332h39q70 0 131 50.5t100.5 130.5t62 176.5t22.5 191.5q0 117 -46 169t-147 52h-22zM483 1802 h205l66 -137l110 137h232l-211 -293h-297z" />
<glyph unicode="&#x10f;" horiz-adv-x="1122" d="M25 307q0 88 13.5 188.5t45.5 209t78.5 195t118.5 142.5t159 56q67 0 110.5 -31t92.5 -96l92 522h336l-262 -1493h-336l19 109q-70 -66 -124.5 -99t-121.5 -33q-53 0 -93.5 21t-64 53.5t-38.5 78t-20 88t-5 89.5zM369 381q0 -102 51 -102q53 0 121 110l53 295 q-26 113 -80 113q-35 0 -64.5 -51.5t-46 -123.5t-25.5 -137t-9 -104zM1047 1049l120 168h-92l47 276h221l-47 -311l-211 -217z" />
<glyph unicode="&#x110;" horiz-adv-x="1157" d="M8 569l55 297h99l100 568h318q144 0 250.5 -38t169.5 -109.5t92.5 -164t29.5 -209.5q0 -63 -7 -133.5t-27.5 -162t-53 -174.5t-88.5 -165.5t-128 -142.5t-178.5 -97.5t-233.5 -37.5h-396l101 569h-103zM416 332h39q93 0 167 86t111 210t37 253q0 118 -45.5 169.5 t-146.5 51.5h-23l-43 -236h162l-56 -297h-159z" />
<glyph unicode="&#x111;" horiz-adv-x="997" d="M25 307q0 88 13.5 188.5t45.5 209t78.5 195t118.5 142.5t159 56q67 0 110.5 -31t92.5 -96l35 196h-242l37 213h242l20 113h336l-20 -113h77l-38 -213h-76l-205 -1167h-336l19 109q-70 -66 -124.5 -99t-121.5 -33q-53 0 -93.5 21t-64 53.5t-38.5 78t-20 88t-5 89.5z M369 381q0 -102 51 -102q53 0 121 110l53 295q-26 113 -80 113q-35 0 -64.5 -51.5t-46 -123.5t-25.5 -137t-9 -104z" />
<glyph unicode="&#x112;" horiz-adv-x="962" d="M-8 0l252 1434h794l-59 -332h-442l-41 -223h356l-57 -324h-357l-41 -223h453l-57 -332h-801zM434 1561l37 215h467l-37 -215h-467z" />
<glyph unicode="&#x113;" horiz-adv-x="880" d="M20 389q0 207 61 366.5t181 251t283 91.5q144 0 228.5 -82.5t84.5 -222.5q0 -93 -28 -162.5t-70 -108.5t-103.5 -62.5t-117 -30.5t-121.5 -7h-64v-25q0 -143 74 -143q37 0 93 25t155 81l94 -249q-57 -39 -187.5 -86.5t-248.5 -47.5q-144 0 -229 100t-85 312zM342 1251 l37 215h467l-37 -215h-467zM371 616h47q67 0 107 41.5t40 112.5q0 64 -53 64q-99 0 -141 -218z" />
<glyph unicode="&#x116;" horiz-adv-x="962" d="M-8 0l252 1434h794l-59 -332h-442l-41 -223h356l-57 -324h-357l-41 -223h453l-57 -332h-801zM535 1530l51 280h250l-50 -280h-251z" />
<glyph unicode="&#x117;" horiz-adv-x="880" d="M20 389q0 207 61 366.5t181 251t283 91.5q144 0 228.5 -82.5t84.5 -222.5q0 -93 -28 -162.5t-70 -108.5t-103.5 -62.5t-117 -30.5t-121.5 -7h-64v-25q0 -143 74 -143q37 0 93 25t155 81l94 -249q-57 -39 -187.5 -86.5t-248.5 -47.5q-144 0 -229 100t-85 312zM371 616h47 q67 0 107 41.5t40 112.5q0 64 -53 64q-99 0 -141 -218zM444 1221l52 280h249l-49 -280h-252z" />
<glyph unicode="&#x118;" horiz-adv-x="962" d="M-8 0l252 1434h794l-59 -332h-442l-41 -223h356l-57 -324h-357l-41 -223h453l-57 -332h-5q-9 -9 -36 -33t-43 -40.5t-36 -39.5t-30 -45.5t-10 -44.5q0 -15 5.5 -25.5t13 -15.5t19.5 -8t19 -3t18.5 0.5t12.5 0.5l-59 -158q-1 0 -17 -0.5t-27 0t-32 2t-37 6t-36 11.5 t-34 20t-27 29.5t-19.5 41t-6.5 54.5q0 141 178 248h-612z" />
<glyph unicode="&#x119;" horiz-adv-x="880" d="M20 389q0 207 61 366.5t181 251t283 91.5q144 0 228.5 -82.5t84.5 -222.5q0 -93 -28 -162.5t-70 -108.5t-103.5 -62.5t-117 -30.5t-121.5 -7h-64v-25q0 -143 74 -143q37 0 93 25t155 81l94 -249q-32 -23 -111 -56.5t-167 -54.5q-9 -8 -36 -33t-43 -40.5t-36 -39 t-29.5 -46t-9.5 -44.5q0 -15 5.5 -25.5t13 -15.5t19.5 -8t19 -3t18.5 0.5t12.5 0.5l-59 -158q-1 0 -17 -0.5t-27 0t-32 2t-37 6t-36 11.5t-34 20t-27 29.5t-19.5 41t-6.5 54.5q0 127 148 230q-120 16 -189.5 116t-69.5 291zM371 616h47q67 0 107 41.5t40 112.5q0 64 -53 64 q-99 0 -141 -218z" />
<glyph unicode="&#x11a;" horiz-adv-x="962" d="M-8 0l252 1434h794l-59 -332h-442l-41 -223h356l-57 -324h-357l-41 -223h453l-57 -332h-801zM403 1802h205l66 -137l110 137h232l-211 -293h-297z" />
<glyph unicode="&#x11b;" horiz-adv-x="880" d="M20 389q0 207 61 366.5t181 251t283 91.5q144 0 228.5 -82.5t84.5 -222.5q0 -93 -28 -162.5t-70 -108.5t-103.5 -62.5t-117 -30.5t-121.5 -7h-64v-25q0 -143 74 -143q37 0 93 25t155 81l94 -249q-57 -39 -187.5 -86.5t-248.5 -47.5q-144 0 -229 100t-85 312zM315 1493 h205l66 -137l110 137h232l-211 -293h-297zM371 616h47q67 0 107 41.5t40 112.5q0 64 -53 64q-99 0 -141 -218z" />
<glyph unicode="&#x11e;" horiz-adv-x="1089" d="M61 479q0 75 7 156.5t25 178.5t46 186t74 173.5t103.5 146t140.5 99t180 37.5q66 0 132 -15.5t133 -47.5t113.5 -58t114.5 -69l-178 -279q-13 7 -58.5 30t-67 33.5t-56.5 25.5t-61 21.5t-47 6.5q-51 0 -93.5 -45t-70 -114.5t-47 -154.5t-27.5 -161.5t-8 -139.5 q0 -180 90 -180q67 0 147 94l25 138h-170l55 307h496l-148 -848h-329l20 121q-58 -70 -116.5 -107t-131.5 -37q-138 0 -215.5 130t-77.5 372zM473 1782h191q-5 -34 11.5 -55t47.5 -21q47 0 76 21t32 55h193q-23 -127 -105.5 -200t-207.5 -73q-134 0 -196.5 76t-41.5 197z " />
<glyph unicode="&#x11f;" horiz-adv-x="997" d="M-78 -346l121 285q62 -32 147 -57t144 -25q68 0 97 39.5t42 123.5l14 84q-70 -65 -123 -96t-118 -31q-53 0 -93.5 21t-64 53.5t-38.5 78t-20 88t-5 89.5q0 88 13.5 188.5t45.5 209t78.5 195t118.5 142.5t159 56q66 0 110.5 -31t88.5 -92l18 100h336l-180 -1036 q-26 -144 -61 -235.5t-90 -145.5t-124 -75t-171 -21q-219 0 -445 92zM369 381q0 -102 53 -102q49 0 113 100l55 315q-26 103 -76 103q-35 0 -64.5 -51.5t-46 -123.5t-25.5 -137t-9 -104zM381 1473h190q-4 -34 12.5 -55t47.5 -21q47 0 76 21t32 55h193q-23 -127 -106 -200 t-208 -73q-134 0 -196 76t-41 197z" />
<glyph unicode="&#x120;" horiz-adv-x="1089" d="M61 479q0 75 7 156.5t25 178.5t46 186t74 173.5t103.5 146t140.5 99t180 37.5q66 0 132 -15.5t133 -47.5t113.5 -58t114.5 -69l-178 -279q-13 7 -58.5 30t-67 33.5t-56.5 25.5t-61 21.5t-47 6.5q-51 0 -93.5 -45t-70 -114.5t-47 -154.5t-27.5 -161.5t-8 -139.5 q0 -180 90 -180q67 0 147 94l25 138h-170l55 307h496l-148 -848h-329l20 121q-58 -70 -116.5 -107t-131.5 -37q-138 0 -215.5 130t-77.5 372zM575 1530l52 280h250l-50 -280h-252z" />
<glyph unicode="&#x121;" horiz-adv-x="997" d="M-78 -346l121 285q62 -32 147 -57t144 -25q68 0 97 39.5t42 123.5l14 84q-70 -65 -123 -96t-118 -31q-53 0 -93.5 21t-64 53.5t-38.5 78t-20 88t-5 89.5q0 88 13.5 188.5t45.5 209t78.5 195t118.5 142.5t159 56q66 0 110.5 -31t88.5 -92l18 100h336l-180 -1036 q-26 -144 -61 -235.5t-90 -145.5t-124 -75t-171 -21q-219 0 -445 92zM369 381q0 -102 53 -102q49 0 113 100l55 315q-26 103 -76 103q-35 0 -64.5 -51.5t-46 -123.5t-25.5 -137t-9 -104zM483 1221l52 280h249l-49 -280h-252z" />
<glyph unicode="&#x122;" horiz-adv-x="1089" d="M61 479q0 75 7 156.5t25 178.5t46 186t74 173.5t103.5 146t140.5 99t180 37.5q66 0 132 -15.5t133 -47.5t113.5 -58t114.5 -69l-178 -279q-13 7 -58.5 30t-67 33.5t-56.5 25.5t-61 21.5t-47 6.5q-51 0 -93.5 -45t-70 -114.5t-47 -154.5t-27.5 -161.5t-8 -139.5 q0 -180 90 -180q67 0 147 94l25 138h-170l55 307h496l-148 -848h-329l20 121q-58 -70 -116.5 -107t-131.5 -37q-138 0 -215.5 130t-77.5 372zM246 -553l121 168h-93l48 276h221l-47 -311l-211 -217z" />
<glyph unicode="&#x123;" horiz-adv-x="997" d="M-78 -346l121 285q62 -32 147 -57t144 -25q68 0 97 39.5t42 123.5l14 84q-70 -65 -123 -96t-118 -31q-53 0 -93.5 21t-64 53.5t-38.5 78t-20 88t-5 89.5q0 88 13.5 188.5t45.5 209t78.5 195t118.5 142.5t159 56q66 0 110.5 -31t88.5 -92l18 100h336l-180 -1036 q-26 -144 -61 -235.5t-90 -145.5t-124 -75t-171 -21q-219 0 -445 92zM369 381q0 -102 53 -102q49 0 113 100l55 315q-26 103 -76 103q-35 0 -64.5 -51.5t-46 -123.5t-25.5 -137t-9 -104zM514 1221l47 311l211 217l39 -84l-121 -168h92l-47 -276h-221z" />
<glyph unicode="&#x126;" horiz-adv-x="1169" d="M8 0l185 1049h-103l37 215h102l31 170h350l-30 -170h233l31 170h348l-31 -170h111l-37 -215h-111l-184 -1049h-348l102 590h-233l-105 -590h-348zM518 913h234l22 136h-233z" />
<glyph unicode="&#x127;" d="M-27 0l205 1167h-80l43 213h74l21 113h335l-20 -113h240l-41 -213h-236l-35 -202q75 65 140.5 99t138.5 34q235 0 174 -342l-133 -756h-336l117 670q13 51 11 94t-34 43q-28 0 -62 -27t-61 -69l-125 -711h-336z" />
<glyph unicode="&#x128;" horiz-adv-x="552" d="M-8 0l252 1434h350l-254 -1434h-348zM141 1612q33 57 50.5 84.5t48 64.5t62 52.5t69.5 15.5q34 0 72.5 -24t70.5 -48t51 -24q39 0 97 96l118 -98q-21 -37 -28 -49t-27 -43.5t-30 -43t-29.5 -32t-35 -28.5t-37 -15t-44.5 -7q-26 0 -56 15t-52 33.5t-45 33.5t-38 15 q-40 0 -96 -99z" />
<glyph unicode="&#x129;" horiz-adv-x="499" d="M-29 0l191 1075h336l-191 -1075h-336zM61 1303q33 57 50.5 84.5t48 64.5t62 52.5t69.5 15.5q34 0 72.5 -24t70.5 -48.5t51 -24.5q38 0 97 97l118 -99q-28 -49 -40 -68.5t-37.5 -55.5t-45 -51.5t-48 -28.5t-60.5 -13q-33 0 -71 24t-69.5 48t-49.5 24q-41 0 -97 -98z" />
<glyph unicode="&#x12a;" horiz-adv-x="550" d="M-8 0l252 1434h350l-254 -1434h-348zM209 1561l37 215h467l-37 -215h-467z" />
<glyph unicode="&#x12b;" horiz-adv-x="497" d="M-29 0l191 1075h336l-191 -1075h-336zM127 1251l37 215h467l-37 -215h-467z" />
<glyph unicode="&#x12c;" horiz-adv-x="550" d="M-8 0l252 1434h350l-254 -1434h-348zM207 1782h190q-4 -34 12.5 -55t47.5 -21q47 0 76 21t32 55h193q-23 -127 -106 -200t-208 -73q-134 0 -196 76t-41 197z" />
<glyph unicode="&#x12d;" horiz-adv-x="497" d="M-29 0l191 1075h336l-191 -1075h-336zM125 1473h190q-4 -34 12.5 -55t47.5 -21q47 0 76 21t32 55h193q-23 -127 -106 -200t-208 -73q-134 0 -196 76t-41 197z" />
<glyph unicode="&#x12e;" horiz-adv-x="548" d="M-25 -248q0 140 179 248h-162l252 1434h350l-254 -1434h-2q-5 -5 -45 -41t-56.5 -54t-35.5 -49.5t-19 -58.5q0 -15 5.5 -25.5t13 -15.5t19.5 -8t19 -3t18.5 0.5t12.5 0.5l-59 -158q-1 0 -17 -0.5t-27 0t-32 2t-37 6t-36 11.5t-34 20t-27 29.5t-19.5 41t-6.5 54.5z" />
<glyph unicode="&#x12f;" horiz-adv-x="497" d="M-57 -248q0 141 178 248h-150l191 1075h336l-191 -1075h-2q-9 -9 -36 -33t-43 -40.5t-36 -39.5t-30 -45.5t-10 -44.5q0 -15 5.5 -25.5t13 -15.5t19.5 -8t19 -3t18.5 0.5t12.5 0.5l-60 -158q-1 0 -17 -0.5t-27 0t-32 2t-36.5 6t-35.5 11.5t-34 20t-27 29.5t-19.5 41 t-6.5 54.5zM178 1192l51 295h349l-54 -295h-346z" />
<glyph unicode="&#x130;" horiz-adv-x="550" d="M-8 0l252 1434h350l-254 -1434h-348zM307 1530l51 280h250l-49 -280h-252z" />
<glyph unicode="&#x131;" horiz-adv-x="497" d="M-29 0l191 1075h336l-191 -1075h-336z" />
<glyph unicode="&#x132;" horiz-adv-x="1099" d="M-8 0l252 1434h350l-254 -1434h-348zM362 -111q38 17 65 32t47 27t34 29.5t22 29t15 35.5t10.5 39t9.5 50l230 1303h350l-227 -1280q-31 -179 -55 -242q-40 -105 -135 -171q-93 -65 -288 -134z" />
<glyph unicode="&#x133;" horiz-adv-x="993" d="M-29 0l191 1075h336l-191 -1075h-336zM178 1192l51 295h349l-54 -295h-346zM268 -195q45 20 74 34.5t51.5 32t34 30t21.5 36.5t14.5 43t11.5 58l182 1036h336l-178 -1003q-13 -74 -19.5 -108.5t-20.5 -90.5t-28.5 -82.5t-39.5 -66.5t-56.5 -61.5t-76.5 -49.5t-103 -48 t-133 -40zM674 1192l51 295h346l-51 -295h-346z" />
<glyph unicode="&#x134;" horiz-adv-x="548" d="M-188 -111q26 12 47 22t38.5 21.5t30.5 19t24 20t17.5 19.5t13.5 22.5t10 23.5t8 28t6.5 30t6.5 36l230 1303h350l-227 -1280q-31 -179 -55 -242q-40 -105 -135 -171q-91 -64 -288 -134zM123 1509l215 293h293l106 -293h-207l-63 138l-109 -138h-235z" />
<glyph unicode="&#x135;" horiz-adv-x="495" d="M-227 -195q68 30 103 50t57.5 48.5t30 54t18.5 81.5l178 1036h338l-176 -1003q-14 -81 -22.5 -123t-26 -100.5t-38.5 -89.5t-56 -71t-82.5 -65t-114 -52t-154.5 -50zM39 1200l215 293h293l106 -293h-207l-63 137l-109 -137h-235z" />
<glyph unicode="&#x136;" horiz-adv-x="1118" d="M-8 0l252 1434h350l-80 -445l326 445h430l-529 -654l269 -780h-394l-129 469l-84 -104l-63 -365h-348zM240 -553l120 168h-92l47 276h222l-48 -311l-210 -217z" />
<glyph unicode="&#x137;" horiz-adv-x="948" d="M-27 0l263 1493h335l-125 -705l179 287h385l-353 -438l197 -637h-346l-84 346l-70 -86l-45 -260h-336zM164 -553l121 168h-92l47 276h221l-47 -311l-211 -217z" />
<glyph unicode="&#x138;" horiz-adv-x="948" d="M-27 0l189 1075h336l-52 -289l179 289h385l-353 -438l197 -637h-346l-84 346l-70 -86l-45 -260h-336z" />
<glyph unicode="&#x139;" horiz-adv-x="903" d="M-8 0l252 1434h350l-197 -1102h434l-57 -332h-782zM231 1509l232 293h358l-303 -293h-287z" />
<glyph unicode="&#x13a;" horiz-adv-x="497" d="M-25 0l263 1493h335l-262 -1493h-336zM213 1569l231 293h359l-303 -293h-287z" />
<glyph unicode="&#x13b;" horiz-adv-x="903" d="M-8 0l252 1434h350l-197 -1102h434l-57 -332h-782zM162 -553l121 168h-93l48 276h221l-47 -311l-211 -217z" />
<glyph unicode="&#x13c;" horiz-adv-x="499" d="M-61 -553l120 168h-92l47 276h222l-48 -311l-211 -217zM-25 0l263 1493h335l-262 -1493h-336z" />
<glyph unicode="&#x13d;" horiz-adv-x="905" d="M-8 0l252 1434h350l-197 -1102h434l-57 -332h-782zM571 989l121 168h-92l47 277h221l-47 -312l-211 -217z" />
<glyph unicode="&#x13e;" horiz-adv-x="628" d="M-25 0l263 1493h335l-262 -1493h-336zM551 1049l121 168h-92l47 276h221l-47 -311l-211 -217z" />
<glyph unicode="&#x13f;" horiz-adv-x="905" d="M-8 0l252 1434h350l-197 -1102h434l-57 -332h-782zM578 618l51 281h250l-50 -281h-251z" />
<glyph unicode="&#x140;" horiz-adv-x="700" d="M-25 0l263 1493h335l-262 -1493h-336zM467 618l51 281h250l-49 -281h-252z" />
<glyph unicode="&#x141;" horiz-adv-x="917" d="M-23 362l60 338l106 68l117 666h350l-73 -416l206 133l-59 -338l-209 -133l-61 -348h434l-57 -332h-783l76 430z" />
<glyph unicode="&#x142;" horiz-adv-x="548" d="M-16 399l59 336l92 58l123 700h336l-82 -459l92 58l-59 -340l-92 -58l-121 -694h-336l80 457z" />
<glyph unicode="&#x143;" horiz-adv-x="1155" d="M-8 0l252 1434h352l125 -729l129 729h348l-252 -1434h-350l-127 731l-129 -731h-348zM543 1509l231 293h359l-304 -293h-286z" />
<glyph unicode="&#x144;" horiz-adv-x="983" d="M-27 0l189 1075h336l-21 -110q75 65 141.5 99t139.5 34q235 0 174 -342l-133 -756h-336l117 672q13 47 11 91t-34 44q-28 0 -62 -27t-61 -69l-125 -711h-336zM395 1200l232 293h358l-303 -293h-287z" />
<glyph unicode="&#x145;" horiz-adv-x="1155" d="M-8 0l252 1434h352l125 -729l129 729h348l-252 -1434h-350l-127 731l-129 -731h-348zM276 -553l121 168h-92l47 276h221l-47 -311l-211 -217z" />
<glyph unicode="&#x146;" d="M-27 0l189 1075h336l-21 -110q75 65 141.5 99t139.5 34q235 0 174 -342l-133 -756h-336l117 672q13 47 11 91t-34 44q-28 0 -62 -27t-61 -69l-125 -711h-336zM182 -553l121 168h-92l47 276h221l-47 -311l-211 -217z" />
<glyph unicode="&#x147;" horiz-adv-x="1155" d="M-8 0l252 1434h352l125 -729l129 729h348l-252 -1434h-350l-127 731l-129 -731h-348zM487 1802h205l66 -137l110 137h232l-211 -293h-297z" />
<glyph unicode="&#x148;" d="M-27 0l189 1075h336l-21 -110q75 65 141.5 99t139.5 34q235 0 174 -342l-133 -756h-336l117 672q13 47 11 91t-34 44q-28 0 -62 -27t-61 -69l-125 -711h-336zM342 1493h205l65 -137l111 137h231l-211 -293h-297z" />
<glyph unicode="&#x149;" d="M-27 0l189 1075h336l-21 -110q75 65 141.5 99t139.5 34q235 0 174 -342l-133 -756h-336l117 672q13 47 11 91t-34 44q-28 0 -62 -27t-61 -69l-125 -711h-336zM193 1219l120 167h-92l47 277h221l-47 -311l-211 -217z" />
<glyph unicode="&#x14a;" horiz-adv-x="1155" d="M-8 0l252 1434h352l125 -729l129 729h348l-225 -1280q-31 -179 -54 -242q-40 -104 -134 -171q-91 -64 -285 -132l-82 280q75 34 116 61.5t60 61.5l-125 719l-129 -731h-348z" />
<glyph unicode="&#x14b;" d="M-27 0l189 1075h336l-21 -110q75 65 141.5 99t139.5 34q232 0 174 -342l-121 -684q-15 -84 -23 -123t-25.5 -99.5t-37.5 -90t-54 -70t-80 -65t-110.5 -50.5t-150.5 -49l-68 280q55 25 87 43t54 34.5t34 41t18 47t14 68.5l111 631q13 50 11 93.5t-34 43.5q-28 0 -62 -27 t-61 -69l-125 -711h-336z" />
<glyph unicode="&#x14c;" horiz-adv-x="1191" d="M66 532q0 60 7 131t26 162t48 177t77.5 169.5t109.5 145.5t149 100.5t191 38.5q104 0 189 -29.5t153.5 -92.5t106.5 -173t38 -260q0 -60 -7 -131t-26 -162t-48 -177t-77.5 -169.5t-109.5 -145.5t-149 -100.5t-191 -38.5q-105 0 -190.5 29.5t-153.5 92.5t-105.5 173 t-37.5 260zM418 504q0 -38 6.5 -70t21.5 -61.5t44 -46.5t69 -17q56 0 102 58t72 138.5t43.5 173.5t24 156.5t6.5 94.5q0 37 -6 68.5t-21 61.5t-44 47t-70 17q-47 0 -87 -40t-66 -104t-45.5 -137t-29.5 -145t-15 -121t-5 -73zM530 1561l37 215h467l-37 -215h-467z" />
<glyph unicode="&#x14d;" horiz-adv-x="966" d="M27 408q0 48 5 102t19.5 122.5t36.5 131.5t60 125t86.5 107.5t119.5 73.5t156 28q49 0 98 -9t107 -37.5t101 -73.5t72.5 -126t29.5 -186q0 -48 -5 -101.5t-19.5 -122t-36.5 -131.5t-60.5 -125t-87 -107.5t-119.5 -73.5t-156 -28q-40 0 -80 7t-88.5 23t-89 48t-75 77.5 t-54.5 116.5t-20 159zM360 371q0 -109 72 -109q39 0 70 53.5t48 129.5t25.5 145t8.5 115q0 108 -72 108q-39 0 -70 -53t-48 -129t-25.5 -145t-8.5 -115zM362 1251l37 215h467l-37 -215h-467z" />
<glyph unicode="&#x14e;" horiz-adv-x="1191" d="M66 532q0 60 7 131t26 162t48 177t77.5 169.5t109.5 145.5t149 100.5t191 38.5q104 0 189 -29.5t153.5 -92.5t106.5 -173t38 -260q0 -60 -7 -131t-26 -162t-48 -177t-77.5 -169.5t-109.5 -145.5t-149 -100.5t-191 -38.5q-105 0 -190.5 29.5t-153.5 92.5t-105.5 173 t-37.5 260zM418 504q0 -38 6.5 -70t21.5 -61.5t44 -46.5t69 -17q56 0 102 58t72 138.5t43.5 173.5t24 156.5t6.5 94.5q0 37 -6 68.5t-21 61.5t-44 47t-70 17q-47 0 -87 -40t-66 -104t-45.5 -137t-29.5 -145t-15 -121t-5 -73zM528 1782h191q-5 -34 11.5 -55t47.5 -21 q47 0 76.5 21t32.5 55h192q-23 -127 -105.5 -200t-207.5 -73q-134 0 -196.5 76t-41.5 197z" />
<glyph unicode="&#x14f;" horiz-adv-x="966" d="M27 408q0 48 5 102t19.5 122.5t36.5 131.5t60 125t86.5 107.5t119.5 73.5t156 28q49 0 98 -9t107 -37.5t101 -73.5t72.5 -126t29.5 -186q0 -48 -5 -101.5t-19.5 -122t-36.5 -131.5t-60.5 -125t-87 -107.5t-119.5 -73.5t-156 -28q-40 0 -80 7t-88.5 23t-89 48t-75 77.5 t-54.5 116.5t-20 159zM360 371q0 -109 72 -109q39 0 70 53.5t48 129.5t25.5 145t8.5 115q0 108 -72 108q-39 0 -70 -53t-48 -129t-25.5 -145t-8.5 -115zM362 1473h191q-5 -34 11.5 -55t47.5 -21q47 0 76.5 21t32.5 55h192q-23 -127 -105.5 -200t-207.5 -73q-134 0 -196.5 76 t-41.5 197z" />
<glyph unicode="&#x150;" horiz-adv-x="1189" d="M66 532q0 60 7 131t26 162t48 177t77.5 169.5t109.5 145.5t149 100.5t191 38.5q104 0 189 -29.5t153.5 -92.5t106.5 -173t38 -260q0 -60 -7 -131t-26 -162t-48 -177t-77.5 -169.5t-109.5 -145.5t-149 -100.5t-191 -38.5q-105 0 -190.5 29.5t-153.5 92.5t-105.5 173 t-37.5 260zM418 504q0 -38 6.5 -70t21.5 -61.5t44 -46.5t69 -17q56 0 102 58t72 138.5t43.5 173.5t24 156.5t6.5 94.5q0 37 -6 68.5t-21 61.5t-44 47t-70 17q-47 0 -87 -40t-66 -104t-45.5 -137t-29.5 -145t-15 -121t-5 -73zM479 1509l170 293h266l-243 -293h-193zM786 1509 l172 293h265l-242 -293h-195z" />
<glyph unicode="&#x151;" horiz-adv-x="968" d="M27 408q0 48 5 102t19.5 122.5t36.5 131.5t60 125t86.5 107.5t119.5 73.5t156 28q49 0 98 -9t107 -37.5t101 -73.5t72.5 -126t29.5 -186q0 -48 -5 -101.5t-19.5 -122t-36.5 -131.5t-60.5 -125t-87 -107.5t-119.5 -73.5t-156 -28q-40 0 -80 7t-88.5 23t-89 48t-75 77.5 t-54.5 116.5t-20 159zM313 1200l170 293h267l-244 -293h-193zM360 371q0 -109 72 -109q39 0 70 53.5t48 129.5t25.5 145t8.5 115q0 108 -72 108q-39 0 -70 -53t-48 -129t-25.5 -145t-8.5 -115zM621 1200l172 293h264l-242 -293h-194z" />
<glyph unicode="&#x152;" horiz-adv-x="1642" d="M66 532q0 60 7 131t26 162t48 177t77.5 169.5t109.5 145.5t149 100.5t191 38.5q141 0 244 -53l6 31h794l-59 -332h-442l-41 -223h356l-57 -324h-357l-41 -223h453l-57 -332h-773q-74 -23 -147 -23q-105 0 -190.5 29.5t-153.5 92.5t-105.5 173t-37.5 260zM418 504 q0 -38 6.5 -70t21.5 -61.5t44 -46.5t69 -17q56 0 102 58t72 138.5t43.5 173.5t24 156.5t6.5 94.5q0 37 -6 68.5t-21 61.5t-44 47t-70 17q-47 0 -87 -40t-66 -104t-45.5 -137t-29.5 -145t-15 -121t-5 -73z" />
<glyph unicode="&#x153;" horiz-adv-x="1431" d="M27 408q0 48 5 102t19.5 122.5t36.5 131.5t60 125t86.5 107.5t119.5 73.5t156 28q177 0 287 -105q124 105 299 105q144 0 228.5 -82.5t84.5 -222.5q0 -93 -28 -162.5t-70 -108.5t-103.5 -62.5t-117 -30.5t-121.5 -7h-64v-25q0 -143 74 -143q37 0 93 25t155 81l94 -249 q-57 -39 -187.5 -86.5t-248.5 -47.5q-131 0 -207 76q-102 -76 -244 -76q-40 0 -80 7t-88.5 23t-89 48t-75 77.5t-54.5 116.5t-20 159zM360 371q0 -109 72 -109q39 0 70 53.5t48 129.5t25.5 145t8.5 115q0 108 -72 108q-39 0 -70 -53t-48 -129t-25.5 -145t-8.5 -115zM922 616 h47q67 0 107 41.5t40 112.5q0 64 -53 64q-99 0 -141 -218z" />
<glyph unicode="&#x154;" horiz-adv-x="1105" d="M-8 0l252 1434h420q82 0 149 -11t114 -29.5t82.5 -45.5t56.5 -56.5t34 -66.5t17.5 -70t4.5 -72q0 -52 -6.5 -102.5t-28 -115t-55.5 -117.5t-95.5 -103t-141.5 -80l151 -565h-366l-119 520h-29l-92 -520h-348zM485 825h78q60 0 103 18.5t64 49.5t29.5 62t8.5 67 q0 59 -37 82.5t-113 23.5h-79zM532 1509l232 293h358l-303 -293h-287z" />
<glyph unicode="&#x155;" horiz-adv-x="706" d="M-27 0l189 1075h336l-39 -221q15 26 20.5 35.5t26 41.5t36 49t43 43t52.5 38.5t59.5 21t69.5 4.5l-61 -354q-69 0 -129 -39.5t-96 -95.5t-62 -112.5t-36 -95.5l-11 -40l-62 -350h-336zM285 1200l231 293h358l-303 -293h-286z" />
<glyph unicode="&#x156;" horiz-adv-x="1105" d="M-8 0l252 1434h420q82 0 149 -11t114 -29.5t82.5 -45.5t56.5 -56.5t34 -66.5t17.5 -70t4.5 -72q0 -52 -6.5 -102.5t-28 -115t-55.5 -117.5t-95.5 -103t-141.5 -80l151 -565h-366l-119 520h-29l-92 -520h-348zM233 -553l121 168h-92l47 276h221l-47 -311l-211 -217z M485 825h78q60 0 103 18.5t64 49.5t29.5 62t8.5 67q0 59 -37 82.5t-113 23.5h-79z" />
<glyph unicode="&#x157;" horiz-adv-x="706" d="M-61 -553l120 168h-92l47 276h222l-48 -311l-211 -217zM-27 0l189 1075h336l-39 -221q15 26 20.5 35.5t26 41.5t36 49t43 43t52.5 38.5t59.5 21t69.5 4.5l-61 -354q-69 0 -129 -39.5t-96 -95.5t-62 -112.5t-36 -95.5l-11 -40l-62 -350h-336z" />
<glyph unicode="&#x158;" horiz-adv-x="1105" d="M-8 0l252 1434h420q82 0 149 -11t114 -29.5t82.5 -45.5t56.5 -56.5t34 -66.5t17.5 -70t4.5 -72q0 -52 -6.5 -102.5t-28 -115t-55.5 -117.5t-95.5 -103t-141.5 -80l151 -565h-366l-119 520h-29l-92 -520h-348zM477 1802h205l66 -137l110 137h232l-211 -293h-297zM485 825 h78q60 0 103 18.5t64 49.5t29.5 62t8.5 67q0 59 -37 82.5t-113 23.5h-79z" />
<glyph unicode="&#x159;" horiz-adv-x="706" d="M-27 0l189 1075h336l-39 -221q15 26 20.5 35.5t26 41.5t36 49t43 43t52.5 38.5t59.5 21t69.5 4.5l-61 -354q-69 0 -129 -39.5t-96 -95.5t-62 -112.5t-36 -95.5l-11 -40l-62 -350h-336zM231 1493h205l66 -137l110 137h232l-211 -293h-297z" />
<glyph unicode="&#x15a;" horiz-adv-x="1017" d="M-33 180l207 271q76 -60 157.5 -104t137.5 -44q40 0 65 23t25 65q0 24 -8.5 45t-29 42.5t-37 35.5t-52 41t-55.5 43q-132 103 -191 209t-59 225q0 85 27.5 160.5t81 135t140.5 94t197 34.5q131 0 261 -45t229 -111l-209 -274q-167 102 -258 102q-39 0 -65.5 -20 t-26.5 -66q0 -23 7 -42.5t28.5 -41.5t34.5 -33.5t53 -41t55 -41.5q258 -201 258 -439q0 -79 -28.5 -153.5t-83.5 -136t-147 -99t-208 -37.5q-259 0 -506 203zM461 1509l231 293h359l-303 -293h-287z" />
<glyph unicode="&#x15b;" horiz-adv-x="858" d="M-49 129l166 250q65 -43 141 -77t119 -34q24 0 38.5 10.5t14.5 30.5q0 15 -5 27t-19.5 23.5t-25.5 18t-38 21t-43 23.5q-48 28 -84 56.5t-72 69t-55.5 93t-19.5 113.5q0 149 102.5 246.5t284.5 97.5q180 0 395 -123l-160 -254q-57 34 -120.5 60t-102.5 26q-53 0 -53 -39 q0 -15 4.5 -27t19.5 -23.5t24.5 -17.5t38.5 -21t42 -22q235 -131 235 -331q0 -68 -24 -129.5t-70 -111.5t-122.5 -79t-172.5 -29q-218 0 -438 152zM340 1200l231 293h359l-303 -293h-287z" />
<glyph unicode="&#x15c;" horiz-adv-x="1017" d="M-33 180l207 271q76 -60 157.5 -104t137.5 -44q40 0 65 23t25 65q0 24 -8.5 45t-29 42.5t-37 35.5t-52 41t-55.5 43q-132 103 -191 209t-59 225q0 85 27.5 160.5t81 135t140.5 94t197 34.5q131 0 261 -45t229 -111l-209 -274q-167 102 -258 102q-39 0 -65.5 -20 t-26.5 -66q0 -23 7 -42.5t28.5 -41.5t34.5 -33.5t53 -41t55 -41.5q258 -201 258 -439q0 -79 -28.5 -153.5t-83.5 -136t-147 -99t-208 -37.5q-259 0 -506 203zM354 1509l215 293h293l107 -293h-207l-64 138l-108 -138h-236z" />
<glyph unicode="&#x15d;" horiz-adv-x="858" d="M-49 129l166 250q65 -43 141 -77t119 -34q24 0 38.5 10.5t14.5 30.5q0 15 -5 27t-19.5 23.5t-25.5 18t-38 21t-43 23.5q-48 28 -84 56.5t-72 69t-55.5 93t-19.5 113.5q0 149 102.5 246.5t284.5 97.5q180 0 395 -123l-160 -254q-57 34 -120.5 60t-102.5 26q-53 0 -53 -39 q0 -15 4.5 -27t19.5 -23.5t24.5 -17.5t38.5 -21t42 -22q235 -131 235 -331q0 -68 -24 -129.5t-70 -111.5t-122.5 -79t-172.5 -29q-218 0 -438 152zM233 1200l216 293h292l107 -293h-207l-63 137l-109 -137h-236z" />
<glyph unicode="&#x15e;" horiz-adv-x="1017" d="M-33 180l207 271q76 -60 157.5 -104t137.5 -44q40 0 65 23t25 65q0 24 -8.5 45t-29 42.5t-37 35.5t-52 41t-55.5 43q-132 103 -191 209t-59 225q0 85 27.5 160.5t81 135t140.5 94t197 34.5q131 0 261 -45t229 -111l-209 -274q-167 102 -258 102q-39 0 -65.5 -20 t-26.5 -66q0 -23 7 -42.5t28.5 -41.5t34.5 -33.5t53 -41t55 -41.5q258 -201 258 -439q0 -75 -26 -146t-76 -131t-133 -99.5t-187 -46.5q19 -59 19 -123q0 -121 -64.5 -183.5t-150.5 -62.5q-93 0 -148 47l94 176q30 -22 58 -22q63 0 63 90q0 24 -12 84q-210 29 -410 194z" />
<glyph unicode="&#x15f;" horiz-adv-x="858" d="M-49 129l166 250q65 -43 141 -77t119 -34q24 0 38.5 10.5t14.5 30.5q0 15 -5 27t-19.5 23.5t-25.5 18t-38 21t-43 23.5q-48 28 -84 56.5t-72 69t-55.5 93t-19.5 113.5q0 149 102.5 246.5t284.5 97.5q180 0 395 -123l-160 -254q-57 34 -120.5 60t-102.5 26q-53 0 -53 -39 q0 -15 4.5 -27t19.5 -23.5t24.5 -17.5t38.5 -21t42 -22q235 -131 235 -331q0 -130 -81 -226.5t-234 -115.5q20 -63 20 -127q0 -121 -64.5 -183.5t-150.5 -62.5q-92 0 -147 47l94 176q30 -22 57 -22q64 0 64 90q0 40 -12 80q-192 21 -373 147z" />
<glyph unicode="&#x160;" horiz-adv-x="1017" d="M-33 180l207 271q76 -60 157.5 -104t137.5 -44q40 0 65 23t25 65q0 24 -8.5 45t-29 42.5t-37 35.5t-52 41t-55.5 43q-132 103 -191 209t-59 225q0 85 27.5 160.5t81 135t140.5 94t197 34.5q131 0 261 -45t229 -111l-209 -274q-167 102 -258 102q-39 0 -65.5 -20 t-26.5 -66q0 -23 7 -42.5t28.5 -41.5t34.5 -33.5t53 -41t55 -41.5q258 -201 258 -439q0 -79 -28.5 -153.5t-83.5 -136t-147 -99t-208 -37.5q-259 0 -506 203zM408 1802h204l66 -137l110 137h232l-211 -293h-297z" />
<glyph unicode="&#x161;" horiz-adv-x="856" d="M-49 129l166 250q65 -43 141 -77t119 -34q24 0 38.5 10.5t14.5 30.5q0 15 -5 27t-19.5 23.5t-25.5 18t-38 21t-43 23.5q-48 28 -84 56.5t-72 69t-55.5 93t-19.5 113.5q0 149 102.5 246.5t284.5 97.5q180 0 395 -123l-160 -254q-57 34 -120.5 60t-102.5 26q-53 0 -53 -39 q0 -15 4.5 -27t19.5 -23.5t24.5 -17.5t38.5 -21t42 -22q235 -131 235 -331q0 -68 -24 -129.5t-70 -111.5t-122.5 -79t-172.5 -29q-218 0 -438 152zM279 1493h204l66 -137l110 137h232l-211 -293h-297z" />
<glyph unicode="&#x162;" horiz-adv-x="923" d="M90 -342l94 176q30 -22 58 -22q63 0 63 90q0 50 -16 98h-107l193 1102h-266l59 332h872l-59 -332h-258l-193 -1102h-102q25 -62 25 -143q0 -121 -64.5 -183.5t-150.5 -62.5q-93 0 -148 47z" />
<glyph unicode="&#x163;" horiz-adv-x="710" d="M27 -342l94 176q30 -22 57 -22q64 0 64 90q0 36 -15 86q-196 54 -129 432l68 381h-100l49 274h98l43 236l350 75l-55 -311h194l-49 -274h-194l-70 -400q-17 -96 25 -96q10 0 23 3.5t21.5 7.5t26.5 13t27 13l63 -289q-145 -58 -247 -69q18 -56 18 -127 q0 -121 -64.5 -183.5t-150.5 -62.5q-92 0 -147 47z" />
<glyph unicode="&#x164;" horiz-adv-x="923" d="M109 1102l59 332h872l-59 -332h-258l-193 -1102h-348l193 1102h-266zM365 1802h204l66 -137l110 137h232l-211 -293h-297z" />
<glyph unicode="&#x165;" horiz-adv-x="708" d="M66 801l49 274h98l43 236l350 75l-55 -311h194l-49 -274h-194l-70 -400q-17 -96 25 -96q10 0 23 3.5t21.5 7.5t26.5 13t27 13l63 -289q-189 -76 -313 -76q-146 0 -195.5 112t-11.5 331l68 381h-100zM629 1219l121 167h-93l48 277h221l-47 -311l-211 -217z" />
<glyph unicode="&#x166;" horiz-adv-x="933" d="M113 1102l59 332h872l-59 -332h-258l-82 -473h109l-39 -215h-109l-71 -414h-349l72 414h-102l37 215h104l82 473h-266z" />
<glyph unicode="&#x167;" horiz-adv-x="710" d="M41 487l37 213h69l19 101h-100l49 274h98l43 236l350 75l-55 -311h194l-49 -274h-194l-19 -101h154l-37 -213h-154l-14 -86q-17 -96 25 -96q10 0 23 3.5t21.5 7.5t26.5 13t27 13l63 -289q-189 -76 -313 -76q-146 0 -195.5 112t-11.5 331l13 67h-70z" />
<glyph unicode="&#x168;" horiz-adv-x="1116" d="M51.5 359.5q1.5 76.5 18.5 172.5l157 902h351l-170 -955q-6 -46 -6 -83.5t23.5 -61t72.5 -23.5q72 0 106.5 44.5t46.5 123.5l170 955h350l-163 -920q-17 -99 -38 -171t-60.5 -145t-94 -118.5t-140.5 -74t-198 -28.5q-122 0 -207.5 30t-132 79t-67 123t-19 150.5z M416 1612q27 47 39.5 68t38 56.5t45 51t47.5 28.5t59 13q34 0 73 -24t71 -48t51 -24q38 0 96 96l119 -98q-23 -41 -33 -57.5t-31.5 -49t-36.5 -47t-36.5 -32.5t-45 -25t-49.5 -7q-33 0 -71 24t-69.5 48.5t-49.5 24.5q-40 0 -96 -99z" />
<glyph unicode="&#x169;" d="M25 322l133 753h336l-119 -669q-12 -51 -10 -94.5t34 -43.5q27 0 60.5 26.5t62.5 67.5l125 713h338l-188 -1075h-338l18 111q-75 -65 -140.5 -99.5t-137.5 -34.5q-109 0 -157.5 82t-16.5 263zM315 1303q33 57 50.5 84.5t48 64.5t62 52.5t69.5 15.5q34 0 72.5 -24 t70.5 -48.5t51 -24.5q38 0 97 97l118 -99q-28 -49 -40 -68.5t-37.5 -55.5t-45 -51.5t-48 -28.5t-60.5 -13q-33 0 -71.5 24t-70 48t-49.5 24q-40 0 -96 -98z" />
<glyph unicode="&#x16a;" horiz-adv-x="1116" d="M51.5 359.5q1.5 76.5 18.5 172.5l157 902h351l-170 -955q-6 -46 -6 -83.5t23.5 -61t72.5 -23.5q72 0 106.5 44.5t46.5 123.5l170 955h350l-163 -920q-17 -99 -38 -171t-60.5 -145t-94 -118.5t-140.5 -74t-198 -28.5q-122 0 -207.5 30t-132 79t-67 123t-19 150.5z M485 1561l37 215h467l-37 -215h-467z" />
<glyph unicode="&#x16b;" d="M25 322l133 753h336l-119 -669q-12 -51 -10 -94.5t34 -43.5q27 0 60.5 26.5t62.5 67.5l125 713h338l-188 -1075h-338l18 111q-75 -65 -140.5 -99.5t-137.5 -34.5q-109 0 -157.5 82t-16.5 263zM365 1251l36 215h467l-37 -215h-466z" />
<glyph unicode="&#x16c;" horiz-adv-x="1116" d="M51.5 359.5q1.5 76.5 18.5 172.5l157 902h351l-170 -955q-6 -46 -6 -83.5t23.5 -61t72.5 -23.5q72 0 106.5 44.5t46.5 123.5l170 955h350l-163 -920q-17 -99 -38 -171t-60.5 -145t-94 -118.5t-140.5 -74t-198 -28.5q-122 0 -207.5 30t-132 79t-67 123t-19 150.5z M485 1782h191q-5 -34 11.5 -55t47.5 -21q47 0 76.5 21t32.5 55h192q-23 -127 -105.5 -200t-207.5 -73q-134 0 -196.5 76t-41.5 197z" />
<glyph unicode="&#x16d;" d="M25 322l133 753h336l-119 -669q-12 -51 -10 -94.5t34 -43.5q27 0 60.5 26.5t62.5 67.5l125 713h338l-188 -1075h-338l18 111q-75 -65 -140.5 -99.5t-137.5 -34.5q-109 0 -157.5 82t-16.5 263zM362 1473h191q-5 -34 11.5 -55t47.5 -21q47 0 76.5 21t32.5 55h192 q-23 -127 -105.5 -200t-207.5 -73q-134 0 -196.5 76t-41.5 197z" />
<glyph unicode="&#x16e;" horiz-adv-x="1116" d="M51.5 359.5q1.5 76.5 18.5 172.5l157 902h351l-170 -955q-6 -46 -6 -83.5t23.5 -61t72.5 -23.5q72 0 106.5 44.5t46.5 123.5l170 955h350l-163 -920q-17 -99 -38 -171t-60.5 -145t-94 -118.5t-140.5 -74t-198 -28.5q-122 0 -207.5 30t-132 79t-67 123t-19 150.5z M535 1702q0 88 62 150.5t151 62.5q87 0 148.5 -62.5t61.5 -150.5q0 -89 -61 -151t-149 -62q-89 0 -151 62t-62 151zM686 1702q0 -26 18 -44t44 -18q25 0 43 18t18 44q0 25 -18 43t-43 18q-26 0 -44 -18t-18 -43z" />
<glyph unicode="&#x16f;" d="M25 322l133 753h336l-119 -669q-12 -51 -10 -94.5t34 -43.5q27 0 60.5 26.5t62.5 67.5l125 713h338l-188 -1075h-338l18 111q-75 -65 -140.5 -99.5t-137.5 -34.5q-109 0 -157.5 82t-16.5 263zM414 1393q0 88 62 150.5t151 62.5q88 0 149.5 -62.5t61.5 -150.5 q0 -89 -61.5 -151t-149.5 -62q-89 0 -151 62t-62 151zM565 1393q0 -26 18 -44t44 -18q25 0 43 18t18 44q0 25 -18 43t-43 18q-26 0 -44 -18t-18 -43z" />
<glyph unicode="&#x170;" horiz-adv-x="1116" d="M51.5 359.5q1.5 76.5 18.5 172.5l157 902h351l-170 -955q-6 -46 -6 -83.5t23.5 -61t72.5 -23.5q72 0 106.5 44.5t46.5 123.5l170 955h350l-163 -920q-17 -99 -38 -171t-60.5 -145t-94 -118.5t-140.5 -74t-198 -28.5q-122 0 -207.5 30t-132 79t-67 123t-19 150.5z M438 1509l170 293h266l-243 -293h-193zM745 1509l173 293h264l-242 -293h-195z" />
<glyph unicode="&#x171;" d="M25 322l133 753h336l-119 -669q-12 -51 -10 -94.5t34 -43.5q27 0 60.5 26.5t62.5 67.5l125 713h338l-188 -1075h-338l18 111q-75 -65 -140.5 -99.5t-137.5 -34.5q-109 0 -157.5 82t-16.5 263zM315 1200l170 293h267l-244 -293h-193zM623 1200l172 293h264l-242 -293h-194 z" />
<glyph unicode="&#x172;" horiz-adv-x="1116" d="M52 364q2 75 18 168l157 902h351l-170 -955q-6 -46 -6 -83.5t23.5 -61t72.5 -23.5q72 0 106.5 44.5t46.5 123.5l170 955h350l-163 -920q-14 -81 -30 -142t-43.5 -124.5t-63.5 -109t-90.5 -82.5t-123.5 -56q-9 -9 -36 -33t-43 -40.5t-36 -39.5t-30 -45.5t-10 -44.5 q0 -15 5.5 -25.5t13 -15.5t19.5 -8t19 -3t18.5 0.5t12.5 0.5l-60 -158q-1 0 -17 -0.5t-27 0t-32 2t-36.5 6t-35.5 11.5t-34 20t-27 29.5t-19.5 41t-6.5 54.5q0 127 143 225q-111 5 -189 37t-120 81.5t-60.5 121.5t-16.5 147z" />
<glyph unicode="&#x173;" d="M25 322l133 753h336l-119 -669q-12 -51 -10 -94.5t34 -43.5q27 0 60.5 26.5t62.5 67.5l125 713h338l-188 -1075h-11q-9 -9 -36 -33t-43 -40.5t-36 -39.5t-30 -45.5t-10 -44.5q0 -15 5.5 -25.5t13 -15.5t19.5 -8t19 -3t18.5 0.5t12.5 0.5l-60 -158q-1 0 -17 -0.5t-27 0 t-32 2t-36.5 6t-35.5 11.5t-34 20t-27 29.5t-19.5 41t-6.5 54.5q0 141 178 248h-143l18 111q-75 -65 -140.5 -99.5t-137.5 -34.5q-109 0 -157.5 82t-16.5 263z" />
<glyph unicode="&#x174;" horiz-adv-x="1480" d="M160 1434h387l-39 -721l242 721h251l-10 -717l213 717h400l-529 -1434h-321l10 793l-266 -793h-316zM588 1509l215 293h293l106 -293h-207l-63 138l-109 -138h-235z" />
<glyph unicode="&#x175;" horiz-adv-x="1290" d="M98 1075h357l-31 -520l188 520h222l4 -524l153 524h357l-412 -1075h-295l-10 547l-201 -547h-297zM436 1200l215 293h293l107 -293h-207l-64 137l-108 -137h-236z" />
<glyph unicode="&#x177;" horiz-adv-x="921" d="M-23 -190q134 65 209 133l-98 1132h346l-10 -641l211 641h352l-457 -1075q-30 -69 -51.5 -113t-63.5 -108t-87.5 -106t-116 -83t-156.5 -63zM252 1200l215 293h293l106 -293h-207l-63 137l-109 -137h-235z" />
<glyph unicode="&#x178;" horiz-adv-x="1040" d="M143 1434h375l53 -463l211 463h398l-496 -859l-98 -575h-348l100 573zM418 1530l47 266h235l-47 -266h-235zM713 1530l47 266h233l-47 -266h-233z" />
<glyph unicode="&#x179;" d="M-59 0l51 291l569 811h-397l57 332h838l-51 -289l-568 -813h437l-58 -332h-878zM453 1509l231 293h358l-303 -293h-286z" />
<glyph unicode="&#x17a;" horiz-adv-x="909" d="M-59 0l45 254l450 512h-348l57 309h791l-45 -254l-451 -512h361l-56 -309h-804zM352 1200l232 293h358l-303 -293h-287z" />
<glyph unicode="&#x17b;" d="M-61 0l51 291l569 811h-397l57 332h838l-51 -289l-568 -813h436l-57 -332h-878zM528 1530l52 280h249l-49 -280h-252z" />
<glyph unicode="&#x17c;" horiz-adv-x="909" d="M-59 0l45 254l450 512h-348l57 309h791l-45 -254l-451 -512h361l-56 -309h-804zM432 1221l51 280h250l-49 -280h-252z" />
<glyph unicode="&#x17d;" d="M-59 0l51 291l569 811h-397l57 332h838l-51 -289l-568 -813h437l-58 -332h-878zM399 1802h205l66 -137l110 137h232l-211 -293h-297z" />
<glyph unicode="&#x17e;" horiz-adv-x="909" d="M-59 0l45 254l450 512h-348l57 309h791l-45 -254l-451 -512h361l-56 -309h-804zM301 1493h205l65 -137l111 137h231l-211 -293h-296z" />
<glyph unicode="&#x17f;" horiz-adv-x="595" d="M-168 -207q34 15 58 27t44 26t32.5 23.5t24 27t17 28.5t12 35.5t10 41t9.5 51.5l131 748h-98l49 274h96q36 209 113.5 313.5t210.5 104.5q130 0 323 -117l-159 -237q-62 30 -93 30q-41 0 -55 -77l-176 -1008q-15 -87 -23.5 -127t-25 -99t-36.5 -86.5t-52.5 -66.5t-79 -64 t-109.5 -54t-151 -60z" />
<glyph unicode="&#x192;" horiz-adv-x="960" d="M-131 -418l399 1219h-102l98 274h94l2 6q32 107 63 177t75 126.5t103.5 82.5t139.5 26q61 0 137 -28t119 -53t72 -46l-195 -225q-69 41 -108 41q-26 0 -41.5 -24t-32.5 -79l-2 -4h207l-100 -274h-197l-397 -1219h-334z" />
<glyph unicode="&#x1fc;" horiz-adv-x="1650" d="M-156 0l899 1434h983l-59 -332h-442l-41 -223h356l-57 -324h-357l-41 -223h453l-57 -332h-801l41 240h-301l-141 -240h-435zM606 555h170l74 414zM831 1509l232 293h358l-303 -293h-287z" />
<glyph unicode="&#x1fd;" horiz-adv-x="1417" d="M25 307q0 88 13.5 188.5t45.5 209t78.5 195t118.5 142.5t159 56q67 0 110.5 -31t92.5 -96l19 104h270q74 23 149 23q144 0 229 -82.5t85 -222.5q0 -93 -28 -162.5t-70.5 -108.5t-104 -62.5t-117 -30.5t-121.5 -7h-63v-25q0 -143 74 -143q37 0 92.5 25t154.5 81l95 -249 q-57 -38 -188 -86t-249 -48q-64 0 -125 23h-272l19 109q-70 -66 -124.5 -99t-121.5 -33q-53 0 -93.5 21t-64 53.5t-38.5 78t-20 88t-5 89.5zM369 381q0 -102 51 -102q53 0 121 110l51 295q-26 113 -78 113q-35 0 -64.5 -51.5t-46 -123.5t-25.5 -137t-9 -104zM592 1200 l231 293h359l-303 -293h-287zM907 616h47q67 0 107.5 41.5t40.5 112.5q0 64 -53 64q-100 0 -142 -218z" />
<glyph unicode="&#x1fe;" horiz-adv-x="1191" d="M-25 0l154 209q-63 126 -63 323q0 60 7 131t26 162t48 177t77.5 169.5t109.5 145.5t149 100.5t191 38.5q188 0 305 -92l51 70h225l-157 -215q63 -132 63 -318q0 -60 -7 -131t-26 -162t-48 -177t-77.5 -169.5t-109.5 -145.5t-149 -100.5t-191 -38.5q-187 0 -303 86 l-47 -63h-228zM426 612l342 465q-37 47 -102 47q-55 0 -99.5 -52.5t-72 -137.5t-43.5 -163t-25 -159zM461 350q33 -41 98 -41q43 0 80.5 35t62.5 87t45 123.5t31 131t19 123.5zM555 1509l231 293h359l-303 -293h-287z" />
<glyph unicode="&#x1ff;" horiz-adv-x="966" d="M-47 0l127 164q-53 98 -53 244q0 48 5 102t19.5 122.5t36.5 131.5t60 125t86.5 107.5t119.5 73.5t156 28q142 0 246 -70l37 47h174l-115 -147q66 -107 66 -262q0 -48 -5 -101.5t-19.5 -122t-36.5 -131.5t-60.5 -125t-87 -107.5t-119.5 -73.5t-156 -28q-153 0 -260 78 l-43 -55h-178zM369 305q16 -43 63 -43q28 0 52 27.5t40.5 74.5t28 97t18.5 106zM369 1200l231 293h358l-303 -293h-286zM377 543l188 241q-16 29 -53 29q-34 0 -62.5 -42.5t-45 -99.5t-27.5 -128z" />
<glyph unicode="&#x218;" horiz-adv-x="1017" d="M-33 180l207 271q76 -60 157.5 -104t137.5 -44q40 0 65 23t25 65q0 24 -8.5 45t-29 42.5t-37 35.5t-52 41t-55.5 43q-132 103 -191 209t-59 225q0 85 27.5 160.5t81 135t140.5 94t197 34.5q131 0 261 -45t229 -111l-209 -274q-167 102 -258 102q-39 0 -65.5 -20 t-26.5 -66q0 -23 7 -42.5t28.5 -41.5t34.5 -33.5t53 -41t55 -41.5q258 -201 258 -439q0 -79 -28.5 -153.5t-83.5 -136t-147 -99t-208 -37.5q-259 0 -506 203zM197 -553l120 168h-92l47 276h222l-48 -311l-210 -217z" />
<glyph unicode="&#x219;" horiz-adv-x="858" d="M-49 129l166 250q65 -43 141 -77t119 -34q24 0 38.5 10.5t14.5 30.5q0 15 -5 27t-19.5 23.5t-25.5 18t-38 21t-43 23.5q-48 28 -84 56.5t-72 69t-55.5 93t-19.5 113.5q0 149 102.5 246.5t284.5 97.5q180 0 395 -123l-160 -254q-57 34 -120.5 60t-102.5 26q-53 0 -53 -39 q0 -15 4.5 -27t19.5 -23.5t24.5 -17.5t38.5 -21t42 -22q235 -131 235 -331q0 -68 -24 -129.5t-70 -111.5t-122.5 -79t-172.5 -29q-218 0 -438 152zM111 -553l120 168h-92l47 276h222l-48 -311l-210 -217z" />
<glyph unicode="&#x21a;" horiz-adv-x="923" d="M109 1102l59 332h872l-59 -332h-258l-193 -1102h-348l193 1102h-266zM154 -553l120 168h-92l47 276h222l-48 -311l-210 -217z" />
<glyph unicode="&#x21b;" horiz-adv-x="708" d="M6 -553l121 168h-92l47 276h221l-47 -311l-211 -217zM66 801l49 274h98l43 236l350 75l-55 -311h194l-49 -274h-194l-70 -400q-17 -96 25 -96q10 0 23 3.5t21.5 7.5t26.5 13t27 13l63 -289q-189 -76 -313 -76q-146 0 -195.5 112t-11.5 331l68 381h-100z" />
<glyph unicode="&#x2b0;" horiz-adv-x="661" d="M100 788l158 895h221l-55 -313q95 78 174 78q150 0 111 -211l-80 -449h-219l69 392q7 29 6.5 53t-16.5 24q-36 0 -74 -51l-73 -418h-222z" />
<glyph unicode="&#x2b2;" horiz-adv-x="622" d="M127 682q80 36 100 57.5t31 81.5l107 613h219l-105 -592q-7 -40 -11.5 -61t-12 -52t-15 -47.5t-20 -39.5t-27.5 -36.5t-36 -30.5t-48 -29t-61 -24.5t-76 -23.5zM371 1495l32 186h226l-33 -186h-225z" />
<glyph unicode="&#x2b7;" horiz-adv-x="681" d="M86 1434h231l-18 -293l111 293h143l2 -299l90 299h232l-256 -646h-193l-6 316l-121 -316h-192z" />
<glyph unicode="&#x2b8;" horiz-adv-x="653" d="M121 684q71 32 127 76l-62 674h226l-9 -367l125 367h230l-287 -646q-17 -39 -31 -66.5t-40.5 -65.5t-55.5 -65t-74.5 -52.5t-99.5 -38.5z" />
<glyph unicode="&#x2c6;" horiz-adv-x="458" d="M129 1200l215 293h293l106 -293h-206l-64 137l-108 -137h-236z" />
<glyph unicode="&#x2c7;" horiz-adv-x="460" d="M184 1493h205l66 -137l110 137h232l-211 -293h-297z" />
<glyph unicode="&#x2d8;" horiz-adv-x="432" d="M199 1473h190q-4 -34 12.5 -55t47.5 -21q47 0 76 21t32 55h193q-23 -127 -106 -200t-208 -73q-134 0 -196 76t-41 197z" />
<glyph unicode="&#x2d9;" horiz-adv-x="182" d="M174 1221l51 280h250l-49 -280h-252z" />
<glyph unicode="&#x2da;" horiz-adv-x="403" d="M137 1393q0 88 62 150.5t151 62.5q88 0 149.5 -62.5t61.5 -150.5q0 -89 -61.5 -151t-149.5 -62q-89 0 -151 62t-62 151zM289 1393q0 -26 17.5 -44t43.5 -18q25 0 43.5 18t18.5 44q0 25 -18.5 43t-43.5 18q-26 0 -43.5 -18t-17.5 -43z" />
<glyph unicode="&#x2db;" horiz-adv-x="256" d="M-109 -248q0 87 59 151t159 120l147 -21q-5 -5 -45.5 -41.5t-57 -54.5t-36 -50t-19.5 -59q0 -15 5.5 -25.5t13 -15.5t19.5 -8t19 -3t18.5 0.5t12.5 0.5l-59 -158q-1 0 -17 -0.5t-27 0t-32 2t-37 6t-36 11.5t-34 20t-27 29.5t-19.5 41t-6.5 54.5z" />
<glyph unicode="&#x2dc;" horiz-adv-x="454" d="M145 1303q33 57 50.5 84.5t48 64.5t62 52.5t69.5 15.5q34 0 72.5 -24t70.5 -48.5t51 -24.5q38 0 97 97l118 -99q-28 -49 -40 -68.5t-37.5 -55.5t-45 -51.5t-48 -28.5t-60.5 -13q-33 0 -71.5 24t-70 48t-49.5 24q-40 0 -96 -98z" />
<glyph unicode="&#x2dd;" horiz-adv-x="546" d="M135 1200l170 293h266l-243 -293h-193zM442 1200l172 293h265l-242 -293h-195z" />
<glyph unicode="&#x2e3;" horiz-adv-x="655" d="M51 788l230 324l-101 322h232l22 -168l84 168h248l-215 -318l108 -328h-239l-23 173l-82 -173h-264z" />
<glyph unicode="&#x3c0;" horiz-adv-x="894" d="M29 0l133 756h-105l56 319h833l-55 -319h-105l-133 -756h-274l133 756h-76l-133 -756h-274z" />
<glyph unicode="&#x1e80;" horiz-adv-x="1480" d="M160 1434h387l-39 -721l242 721h251l-10 -717l213 717h400l-529 -1434h-321l10 793l-266 -793h-316zM625 1802h329l125 -293h-258z" />
<glyph unicode="&#x1e81;" horiz-adv-x="1290" d="M98 1075h357l-31 -520l188 520h222l4 -524l153 524h357l-412 -1075h-295l-10 547l-201 -547h-297zM475 1493h330l125 -293h-258z" />
<glyph unicode="&#x1e82;" horiz-adv-x="1480" d="M160 1434h387l-39 -721l242 721h251l-10 -717l213 717h400l-529 -1434h-321l10 793l-266 -793h-316zM694 1509l232 293h358l-303 -293h-287z" />
<glyph unicode="&#x1e83;" horiz-adv-x="1290" d="M98 1075h357l-31 -520l188 520h222l4 -524l153 524h357l-412 -1075h-295l-10 547l-201 -547h-297zM543 1200l231 293h359l-304 -293h-286z" />
<glyph unicode="&#x1e84;" horiz-adv-x="1480" d="M160 1434h387l-39 -721l242 721h251l-10 -717l213 717h400l-529 -1434h-321l10 793l-266 -793h-316zM637 1526l47 266h236l-48 -266h-235zM932 1526l47 266h233l-47 -266h-233z" />
<glyph unicode="&#x1e85;" horiz-adv-x="1290" d="M98 1075h357l-31 -520l188 520h222l4 -524l153 524h357l-412 -1075h-295l-10 547l-201 -547h-297zM487 1221l48 266h235l-47 -266h-236zM782 1221l47 266h234l-47 -266h-234z" />
<glyph unicode="&#x1e9e;" horiz-adv-x="1290" d="M-8 0l155 885q17 98 41.5 174.5t68 149t103 120.5t147.5 76.5t200 28.5h575l-45 -256l-250 -314q110 -53 173 -150t63 -231q0 -97 -32.5 -186.5t-93 -161.5t-155.5 -115t-211 -43q-165 0 -323 95l174 278q71 -49 137 -49q58 0 99.5 44t41.5 116q0 145 -209 145h-76 l43 242l201 254h-117q-94 0 -142 -63.5t-79 -229.5l-141 -809h-348z" />
<glyph unicode="&#x1ef2;" horiz-adv-x="1040" d="M143 1434h375l53 -463l211 463h398l-496 -859l-98 -575h-348l100 573zM406 1802h329l125 -293h-258z" />
<glyph unicode="&#x1ef3;" horiz-adv-x="921" d="M-23 -190q134 65 209 133l-98 1132h346l-10 -641l211 641h352l-457 -1075q-30 -69 -51.5 -113t-63.5 -108t-87.5 -106t-116 -83t-156.5 -63zM291 1493h330l124 -293h-258z" />
<glyph unicode="&#x2000;" horiz-adv-x="957" />
<glyph unicode="&#x2001;" horiz-adv-x="1915" />
<glyph unicode="&#x2002;" horiz-adv-x="957" />
<glyph unicode="&#x2003;" horiz-adv-x="1915" />
<glyph unicode="&#x2004;" horiz-adv-x="638" />
<glyph unicode="&#x2005;" horiz-adv-x="478" />
<glyph unicode="&#x2006;" horiz-adv-x="319" />
<glyph unicode="&#x2007;" horiz-adv-x="319" />
<glyph unicode="&#x2008;" horiz-adv-x="239" />
<glyph unicode="&#x2009;" horiz-adv-x="383" />
<glyph unicode="&#x200a;" horiz-adv-x="106" />
<glyph unicode="&#x2010;" horiz-adv-x="686" d="M51 434l51 297h521l-54 -297h-518z" />
<glyph unicode="&#x2011;" horiz-adv-x="686" d="M51 434l51 297h521l-54 -297h-518z" />
<glyph unicode="&#x2012;" horiz-adv-x="686" d="M51 434l51 297h521l-54 -297h-518z" />
<glyph unicode="&#x2013;" horiz-adv-x="862" d="M51 434l51 297h695l-52 -297h-694z" />
<glyph unicode="&#x2014;" horiz-adv-x="1013" d="M49 434l51 297h850l-51 -297h-850z" />
<glyph unicode="&#x2018;" horiz-adv-x="479" d="M100 715l64 448l311 310l60 -123l-183 -238h142l-68 -397h-326z" />
<glyph unicode="&#x2019;" horiz-adv-x="464" d="M102 799l183 237h-142l68 398h326l-64 -449l-311 -309z" />
<glyph unicode="&#x201a;" horiz-adv-x="493" d="M-70 -238l183 238h-142l68 397h326l-64 -448l-311 -309z" />
<glyph unicode="&#x201c;" horiz-adv-x="882" d="M100 715l64 448l311 310l60 -123l-183 -238h142l-68 -397h-326zM504 715l63 448l312 310l59 -123l-182 -238h141l-68 -397h-325z" />
<glyph unicode="&#x201d;" horiz-adv-x="868" d="M102 799l183 237h-142l68 398h326l-64 -449l-311 -309zM506 799l182 237h-141l67 398h326l-63 -449l-312 -309z" />
<glyph unicode="&#x201e;" horiz-adv-x="899" d="M-70 -238l183 238h-142l68 397h326l-64 -448l-311 -309zM334 -238l182 238h-141l67 397h326l-63 -448l-312 -309z" />
<glyph unicode="&#x2020;" horiz-adv-x="921" d="M59 733l56 299l288 -33l78 435h248l-78 -435l305 33l-55 -299l-291 33l-207 -1184h-247l206 1184z" />
<glyph unicode="&#x2021;" horiz-adv-x="950" d="M-20 197l53 299l291 -33l53 303l-303 -33l55 299l289 -33l78 435h247l-77 -435l305 33l-56 -299l-290 33l-54 -303l303 33l-53 -299l-291 32l-112 -647h-248l113 647z" />
<glyph unicode="&#x2022;" horiz-adv-x="884" d="M106 584q0 138 95.5 234.5t232.5 96.5q138 0 235 -96.5t97 -234.5q0 -137 -97 -233.5t-235 -96.5q-136 0 -232 96.5t-96 233.5z" />
<glyph unicode="&#x2026;" horiz-adv-x="1341" d="M-25 0l70 397h324l-70 -397h-324zM403 0l70 397h324l-70 -397h-324zM829 0l70 397h324l-70 -397h-324z" />
<glyph unicode="&#x202f;" horiz-adv-x="383" />
<glyph unicode="&#x2030;" horiz-adv-x="2179" d="M115 977q0 50 7 104.5t28.5 124t56 123t96 90.5t141.5 37q34 0 68 -6t75 -25t71 -49.5t50.5 -84.5t20.5 -124q0 -33 -3.5 -70.5t-13 -85t-24.5 -91.5t-41 -87t-59.5 -74.5t-82 -51t-106.5 -19.5q-35 0 -69 6.5t-74.5 25.5t-70.5 49.5t-50 84t-20 123.5zM276 0l750 1434 h248l-748 -1434h-250zM346 961q0 -74 51 -74q33 0 57.5 60.5t34 125.5t9.5 111q0 76 -52 76q-33 0 -57.5 -60.5t-33.5 -125.5t-9 -113zM825 266q0 50 7 104.5t29 124t56.5 123t97 90.5t142.5 37q34 0 68 -6t74.5 -25t70 -49t50 -84t20.5 -124q0 -40 -5 -84.5t-17.5 -101.5 t-37 -107t-59 -93t-88.5 -68.5t-121 -25.5q-35 0 -69.5 6.5t-75 25.5t-71 49.5t-51 84t-20.5 123.5zM1059 250q0 -74 51 -74q33 0 57.5 60.5t33.5 125t9 111.5q0 76 -51 76q-33 0 -57.5 -60.5t-33.5 -125.5t-9 -113zM1479 266q0 40 5 85t17.5 101.5t37 106.5t59.5 93 t89.5 68t122.5 25q34 0 68 -6t74.5 -25t70 -49t50 -84t20.5 -124q0 -40 -5 -84.5t-17.5 -101.5t-37 -107t-59 -93t-88.5 -68.5t-121 -25.5q-35 0 -69.5 6.5t-75 25.5t-70.5 49.5t-50.5 84t-20.5 123.5zM1712 250q0 -74 51 -74q33 0 57.5 60.5t34 125.5t9.5 111q0 76 -52 76 q-33 0 -57.5 -60.5t-33.5 -125.5t-9 -113z" />
<glyph unicode="&#x2039;" horiz-adv-x="546" d="M8 432l39 223l502 422l-76 -418l-182 -131l137 -131l-66 -387z" />
<glyph unicode="&#x203a;" horiz-adv-x="548" d="M-25 10l76 418l182 131l-137 131l66 387l354 -422l-39 -223z" />
<glyph unicode="&#x2044;" horiz-adv-x="362" d="M-274 0l704 1434h244l-705 -1434h-243z" />
<glyph unicode="&#x205f;" horiz-adv-x="478" />
<glyph unicode="&#x2070;" horiz-adv-x="706" d="M147 1073q0 21 1.5 52t9.5 90.5t21.5 115t40 118t62 108.5t91 76t123.5 30q67 0 117.5 -19.5t79.5 -49.5t47 -72t24 -79.5t6 -80.5q0 -21 -1.5 -51t-9.5 -89.5t-21 -115.5t-39.5 -118t-62 -108t-91 -76t-123.5 -30q-66 0 -117 19.5t-80 49.5t-47.5 71.5t-24.5 79t-6 79.5 zM367 1040q0 -39 11 -55t40 -16q30 0 57 60t42.5 138.5t24.5 142.5t9 85q0 40 -11 56.5t-40 16.5q-30 0 -57 -60t-42.5 -139.5t-24.5 -143.5t-9 -85z" />
<glyph unicode="&#x2074;" horiz-adv-x="716" d="M84 932l29 174l350 543h305l-90 -506h90l-37 -211h-90l-25 -144h-227l25 144h-330zM324 1143h127l49 272z" />
<glyph unicode="&#x2075;" horiz-adv-x="645" d="M86 915l133 160q78 -82 135 -82q38 0 64 29t26 70q0 69 -61 69q-44 0 -102 -43l-111 80l115 451h469l-37 -211h-273l-12 -76q28 4 43 4q101 0 153 -68.5t52 -171.5q0 -89 -34.5 -167.5t-107.5 -131.5t-171 -53q-157 0 -281 141z" />
<glyph unicode="&#x2076;" horiz-adv-x="696" d="M139 1092q0 103 34 203.5t95.5 183t157 133.5t207.5 51q47 0 88 -9.5t59 -18.5l17 -9l-99 -180q-28 8 -63 8q-138 0 -213 -139q42 33 98 33q88 0 139.5 -65.5t51.5 -166.5q0 -138 -81 -240t-214 -102q-132 0 -204.5 91t-72.5 227zM367 1081q0 -98 53 -98q30 0 44.5 33.5 t14.5 81.5q0 65 -51 65q-20 0 -36.5 -13t-24.5 -32v-37z" />
<glyph unicode="&#x2077;" horiz-adv-x="557" d="M111 788q20 110 67.5 227t104.5 208t90.5 139.5t56.5 75.5h-244l37 211h492l-35 -199q-11 -13 -30 -37t-69.5 -98.5t-92.5 -149t-83.5 -179t-58.5 -198.5h-235z" />
<glyph unicode="&#x2078;" horiz-adv-x="684" d="M115 991q0 167 184 269q-66 66 -66 157q0 105 76.5 175.5t206.5 70.5q114 0 171.5 -55t57.5 -146q0 -128 -133 -211q99 -80 99 -200t-87.5 -198.5t-246.5 -78.5q-132 0 -197 59t-65 158zM346 1024q0 -59 55 -59q39 0 61.5 26t22.5 66q0 56 -49 98q-90 -58 -90 -131z M438 1413q0 -37 33 -67q66 42 66 92q0 41 -39 41q-28 0 -44 -20.5t-16 -45.5z" />
<glyph unicode="&#x2079;" horiz-adv-x="696" d="M111 811l100 180q26 -8 61 -8q138 0 213 139q-46 -32 -98 -32q-88 0 -138 64.5t-50 164.5q0 140 80 242t213 102q132 0 204 -90.5t72 -226.5q0 -82 -21 -163.5t-63.5 -155t-101 -130t-138.5 -90t-170 -33.5q-47 0 -88 9t-58 19zM428 1339q0 -67 53 -67q18 0 34 11.5 t24 29.5q2 14 2 43q0 98 -54 98q-29 0 -44 -34t-15 -81z" />
<glyph unicode="&#x207a;" horiz-adv-x="550" d="M119 1116l31 164h161l33 190h164l-35 -190h164l-27 -164h-168l-32 -188h-160l33 188h-164z" />
<glyph unicode="&#x207d;" horiz-adv-x="409" d="M110 806q2 67 21 165l90 516q23 125 43 169q37 77 134 120q54 23 137 43l30 -138q-58 -29 -76.5 -57t-29.5 -90l-117 -655q-13 -55 -4.5 -86.5t55.5 -59.5l-71 -121q-118 34 -166 80.5t-46 113.5z" />
<glyph unicode="&#x207e;" horiz-adv-x="405" d="M53 750q58 29 77 57t30 90l116 655q13 55 4.5 86.5t-55.5 59.5l72 121q118 -34 166 -80.5t45.5 -113.5t-21.5 -165l-90 -516q-23 -125 -43 -168q-35 -77 -130 -119q-55 -25 -140 -45z" />
<glyph unicode="&#x207f;" horiz-adv-x="661" d="M100 788l115 646h221l-10 -62q93 76 172 76q150 0 111 -211l-80 -449h-219l69 396q7 25 6.5 49t-18.5 24q-34 0 -72 -51l-73 -418h-222z" />
<glyph unicode="&#x2080;" horiz-adv-x="706" d="M-45 -23q0 21 1.5 52t9.5 90.5t21 115t39.5 118t62 108.5t91 76t123.5 30q67 0 118 -19.5t80 -49.5t47 -72t24 -79.5t6 -80.5q0 -21 -1.5 -51.5t-9.5 -89.5t-21.5 -115t-40 -118t-62 -108t-91 -76t-123.5 -30q-66 0 -116.5 19.5t-80 49.5t-47.5 71.5t-24 79t-6 79.5z M174 -55q0 -39 11 -55.5t40 -16.5q30 0 57 60t42.5 138.5t24.5 142.5t9 85q0 40 -11 57t-40 17q-30 0 -57 -60t-42.5 -139.5t-24.5 -143.5t-9 -85z" />
<glyph unicode="&#x2081;" horiz-adv-x="557" d="M-33 408l223 145h220l-152 -860h-227l110 614l-88 -53z" />
<glyph unicode="&#x2082;" horiz-adv-x="645" d="M-127 -307l18 100q31 181 244 352q108 85 137 116q32 36 33 58q2 16 -8 25.5t-31 9.5q-54 0 -162 -73l-90 168q158 118 308 118q110 0 165.5 -61t55.5 -146q0 -47 -19 -95.5t-40.5 -81.5t-59.5 -71.5t-53.5 -51.5t-44.5 -37q-33 -26 -46.5 -36.5t-36.5 -30t-33.5 -31.5 t-12.5 -21h266l-37 -211h-553z" />
<glyph unicode="&#x2083;" horiz-adv-x="643" d="M-119 -180l131 151q95 -75 154 -75q34 0 57 20t23 49q0 72 -131 72h-23l37 207h29q41 0 84 17t43 54t-41 37q-49 0 -154 -63l-76 164q153 114 303 114q100 0 153.5 -53.5t53.5 -134.5q0 -41 -12.5 -75.5t-36.5 -60.5t-43 -41.5t-47 -33.5q90 -77 90 -184 q0 -52 -17.5 -103.5t-51.5 -98t-93 -75.5t-133 -29q-163 0 -299 142z" />
<glyph unicode="&#x2084;" horiz-adv-x="716" d="M-111 -164l29 174l350 543h305l-90 -506h90l-36 -211h-91l-24 -143h-227l24 143h-330zM129 47h127l49 272z" />
<glyph unicode="&#x2085;" horiz-adv-x="643" d="M-109 -180l134 160q78 -82 135 -82q38 0 64 28.5t26 69.5q0 30 -14.5 50t-47.5 20q-44 0 -102 -43l-111 79l115 451h469l-37 -211h-272l-12 -76q28 4 43 4q101 0 152.5 -68t51.5 -171q0 -89 -34.5 -168t-107.5 -132t-171 -53q-156 0 -281 142z" />
<glyph unicode="&#x2086;" horiz-adv-x="696" d="M-53 -4q0 82 21 163t63.5 154.5t100.5 130t138 90t170 33.5q47 0 88 -9.5t58 -18.5l18 -9l-98 -180q-29 8 -64 8q-138 0 -213 -139q42 33 99 33q88 0 139 -65.5t51 -166.5q0 -138 -81 -240t-214 -102q-132 0 -204 91t-72 227zM174 -14q0 -99 53 -99q30 0 45 33.5t15 81.5 q0 66 -51 66q-20 0 -37 -13t-25 -32v-37z" />
<glyph unicode="&#x2087;" horiz-adv-x="552" d="M-84 -307q20 110 68 227t105 208t90.5 138.5t56.5 75.5h-244l37 211h491l-35 -199q-11 -13 -30 -37t-69.5 -98t-92 -148.5t-83 -179t-58.5 -198.5h-236z" />
<glyph unicode="&#x2088;" horiz-adv-x="681" d="M-80 -104q0 166 184 268q-65 65 -65 158q0 105 76.5 175t206.5 70q114 0 171.5 -54.5t57.5 -145.5q0 -128 -133 -211q98 -80 98 -201q0 -120 -87.5 -198.5t-246.5 -78.5q-132 0 -197 59.5t-65 158.5zM152 -72q0 -59 55 -59q39 0 61.5 26t22.5 66q0 56 -49 98 q-90 -58 -90 -131zM244 317q0 -38 32 -67q66 42 66 92q0 41 -39 41q-28 0 -43.5 -20.5t-15.5 -45.5z" />
<glyph unicode="&#x2089;" horiz-adv-x="696" d="M-82 -285l100 181q27 -9 62 -9q138 0 213 140q-47 -33 -98 -33q-88 0 -138.5 64.5t-50.5 164.5q0 140 80 242t213 102q132 0 204 -90.5t72 -226.5q0 -82 -21 -163.5t-63.5 -155t-100.5 -130t-138 -90t-170 -33.5q-47 0 -88 9t-58 19zM236 244q0 -68 53 -68q39 0 57 41 q2 14 2 43q0 98 -53 98q-29 0 -44 -33.5t-15 -80.5z" />
<glyph unicode="&#x208a;" horiz-adv-x="550" d="M-74 20l31 164h162l33 191h163l-34 -191h163l-26 -164h-168l-33 -188h-160l33 188h-164z" />
<glyph unicode="&#x208d;" horiz-adv-x="409" d="M-82.5 -290q2.5 67 21.5 165l90 516q23 125 43 168q35 77 130 119q55 25 140 45l31 -137q-58 -29 -77 -57.5t-30 -90.5l-116 -655q-13 -55 -4.5 -85.5t55.5 -59.5l-72 -121q-118 34 -166 80t-45.5 113z" />
<glyph unicode="&#x208e;" horiz-adv-x="407" d="M-141 -346q58 29 76.5 57t29.5 90l117 656q13 55 4.5 85.5t-55.5 59.5l71 121q118 -34 166 -80t46 -113t-21 -165l-90 -517q-23 -124 -43 -168q-36 -77 -132 -119q-55 -24 -139 -44z" />
<glyph unicode="&#x20a1;" horiz-adv-x="872" d="M74 549q0 178 37 321t99 230t137 132.5t155 45.5q28 0 53 -2l53 158h125l-63 -185l37 -12l65 197h123l-82 -248l84 -47l-158 -262q-14 7 -45 24.5t-49 27.5t-41 18.5t-37 8.5q-37 0 -67 -32.5t-48 -85.5t-28 -116t-10 -128q0 -56 16 -85.5t57 -29.5q7 0 17 2t23.5 7.5 t25.5 10t30 13.5t29.5 14t32.5 15.5l31 15.5l86 -287q-160 -80 -287 -104l-55 -166h-125l53 160q-21 0 -39 6l-55 -166h-123l72 215q-129 95 -129 334z" />
<glyph unicode="&#x20a4;" horiz-adv-x="923" d="M-27 0l43 262q13 5 34 16.5t69.5 55.5t77.5 100h-131l28 174h144v6q0 12 -5 70h-124l30 176h62q-15 88 -15 160q0 202 92.5 319t262.5 117q226 0 442 -201l-182 -227q-120 105 -187 105q-42 0 -64 -38t-22 -94q0 -38 21 -141h264l-33 -176h-209v-8q0 -28 -4 -68h201 l-31 -174h-215q-32 -82 -71 -110h358l-57 -324h-779z" />
<glyph unicode="&#x20a7;" horiz-adv-x="1124" d="M18 0l154 881h-37l25 143h39l71 410h389q114 0 198.5 -23.5t132.5 -59t77 -88.5t38 -102t9 -110v-27h37l-25 -143h-30q-45 -192 -199.5 -299t-409.5 -107h-36l-84 -475h-349zM508 795h41q128 0 180 86h-207zM547 1024h209q-7 46 -42.5 66t-103.5 20h-47z" />
<glyph unicode="&#x20a9;" horiz-adv-x="1583" d="M41 492l37 213h143l-2 133h-117l39 215h76l-6 381h387l-39 -721l242 721h252l-11 -717l213 717h400l-142 -381h84l-36 -215h-125l-50 -133h150l-37 -213h-192l-181 -492h-321l10 793l-266 -793h-316l-8 492h-184z" />
<glyph unicode="&#x20ac;" horiz-adv-x="1107" d="M37 477l33 191h71l13 88h-68l33 190h74q23 82 52.5 153t73.5 138.5t96.5 114.5t123.5 75.5t153 28.5q62 0 124 -15t126 -46.5t107 -57t108 -67.5l-184 -281q-192 115 -256 115q-89 0 -150 -158h226l-35 -190h-244q-6 -33 -14 -88h243l-34 -191h-222q6 -147 109 -147 q40 0 97 24t161 78l121 -305q-153 -74 -261 -112t-206 -38q-99 0 -172.5 39.5t-116 110t-63.5 157.5t-23 193h-96z" />
<glyph unicode="&#x2116;" horiz-adv-x="1884" d="M6 0l252 1434h352l125 -729l129 729h348l-251 -1434h-351l-127 731l-129 -731h-348zM1133 262l38 213h564l-37 -213h-565zM1182 889q0 33 3.5 72t14.5 91.5t28.5 100.5t47.5 97t69 84.5t97 58t127 22.5q40 0 79.5 -6.5t88.5 -28.5t85 -57.5t60.5 -99.5t24.5 -148 q0 -33 -3.5 -72t-14.5 -91.5t-28.5 -100.5t-48 -97t-69.5 -84.5t-97 -58t-128 -22.5q-40 0 -79.5 6.5t-88 28.5t-84 57.5t-60 99.5t-24.5 148zM1473 856q0 -57 45 -57q32 0 56 63.5t33 131t9 114.5q0 57 -45 57q-32 0 -56 -63.5t-33 -131t-9 -114.5z" />
<glyph unicode="&#x2117;" horiz-adv-x="1570" d="M74 641q0 131 32.5 251.5t98 223t158 178.5t219 119t274.5 43q206 0 360.5 -84.5t235 -234.5t80.5 -344q0 -131 -32.5 -251.5t-98.5 -223.5t-158 -179t-219.5 -119t-275.5 -43q-309 0 -491.5 184t-182.5 480zM152 643q0 -171 70.5 -303t209 -208.5t324.5 -76.5 q160 0 293 58.5t220 159t135 234t48 284.5q0 127 -41 235t-117 186t-190 122t-254 44q-160 0 -293 -58.5t-221 -159t-136 -233.5t-48 -284zM502 285l151 862h285q117 0 185.5 -56.5t68.5 -168.5q0 -148 -95 -224.5t-253 -76.5h-187l-57 -336h-98zM674 707h188q97 0 163.5 58 t66.5 157q0 74 -46 107.5t-122 33.5h-189z" />
<glyph unicode="&#x2120;" horiz-adv-x="1050" d="M137 1028l74 102q72 -47 129 -47q39 0 39 21q0 3 -1 6t-4.5 6t-6.5 5.5t-10 6t-12.5 6t-16 8t-19.5 9.5q-56 28 -87.5 60t-31.5 81q0 62 47.5 106t131.5 44q99 0 190 -51l-72 -95q-60 31 -108 31q-39 0 -39 -22q0 -4 1.5 -7.5t6 -7t8.5 -6t12 -6.5t12.5 -6.5t15.5 -7.5 t16 -7q32 -15 53.5 -28.5t42 -43.5t20.5 -67q0 -62 -45.5 -107.5t-134.5 -45.5q-57 0 -116.5 19t-94.5 44zM535 975l81 459h136l45 -226l127 226h135l-82 -459h-133l39 219l-80 -143h-68l-33 125l-34 -201h-133z" />
<glyph unicode="&#x2122;" horiz-adv-x="995" d="M209 1309l22 125h336l-22 -125h-103l-59 -334h-131l59 334h-102zM520 975l82 459h135l45 -226l127 226h135l-81 -459h-134l37 215l-75 -139h-68l-31 145l-39 -221h-133z" />
<glyph unicode="&#x2126;" horiz-adv-x="1204" d="M-8 0l55 324h150q-58 48 -85.5 145t-27.5 193q0 52 8.5 115.5t29 141t51 151.5t80 145t110 123.5t146.5 85t185 32.5q244 0 367 -138.5t123 -383.5q0 -219 -80.5 -394t-171.5 -216h123l-56 -324h-479l58 336q52 5 95 54t69.5 118.5t44.5 153.5t25 153.5t7 122.5 q0 184 -141 184q-61 0 -108.5 -55.5t-73 -131.5t-42 -167t-21.5 -151t-5 -95q0 -77 22.5 -122t81.5 -64l-59 -336h-481z" />
<glyph unicode="&#x2153;" horiz-adv-x="1458" d="M150 1288l223 146h219l-152 -861h-227l111 615l-88 -53zM219 0l705 1434h243l-704 -1434h-244zM745 127l132 152q97 -76 153 -76q34 0 57 20t23 49q0 72 -131 72h-23l37 207h29q41 0 84 17.5t43 54.5q0 36 -41 36q-49 0 -154 -63l-75 164q153 114 303 114 q100 0 153.5 -53.5t53.5 -134.5q0 -41 -13 -75.5t-37 -60.5t-43 -41.5t-47 -33.5q90 -77 90 -184q0 -52 -17.5 -103.5t-51.5 -97.5t-93 -75t-133 -29q-164 0 -299 141z" />
<glyph unicode="&#x2154;" horiz-adv-x="1607" d="M45 573l18 101q31 181 244 352q108 85 137 116q33 36 33 58q2 16 -8 25.5t-31 9.5q-52 0 -162 -74l-90 168q160 119 308 119q110 0 165.5 -61t55.5 -146q0 -47 -19 -95.5t-41 -82t-59.5 -72t-53.5 -52t-44 -36.5q-33 -26 -46.5 -36.5t-36.5 -30t-33.5 -31.5t-12.5 -21 h266l-37 -211h-553zM381 0l704 1434h244l-704 -1434h-244zM903 127l131 152q97 -76 154 -76q34 0 57 20t23 49q0 72 -131 72h-23l37 207h29q41 0 84 17.5t43 54.5q0 36 -41 36q-49 0 -154 -63l-76 164q153 114 303 114q100 0 153.5 -53.5t53.5 -134.5q0 -41 -12.5 -75.5 t-36.5 -60.5t-43 -41.5t-47 -33.5q90 -77 90 -184q0 -52 -17.5 -103.5t-51.5 -97.5t-93 -75t-133 -29q-164 0 -299 141z" />
<glyph unicode="&#x2155;" horiz-adv-x="1480" d="M150 1288l223 146h219l-152 -861h-227l111 615l-88 -53zM219 0l705 1434h243l-704 -1434h-244zM764 127l133 160q78 -82 135 -82q38 0 64 28.5t26 69.5q0 70 -61 70q-45 0 -103 -43l-110 80l115 450h469l-37 -211h-273l-12 -76q35 5 43 5q101 0 153 -68.5t52 -171.5 q0 -89 -34.5 -167.5t-108 -131.5t-171.5 -53q-156 0 -280 141z" />
<glyph unicode="&#x2156;" horiz-adv-x="1619" d="M43 573l18 101q31 181 244 352q108 85 137 116q33 36 33 58q2 16 -8 25.5t-31 9.5q-52 0 -162 -74l-90 168q160 119 308 119q110 0 165.5 -61t55.5 -146q0 -47 -19 -95.5t-41 -82t-59.5 -72t-53.5 -52t-44 -36.5q-33 -26 -46.5 -36.5t-36.5 -30t-33.5 -31.5t-12.5 -21 h266l-37 -211h-553zM377 0l704 1434h244l-704 -1434h-244zM915 127l134 160q78 -82 135 -82q38 0 64 28.5t26 69.5q0 30 -14.5 50t-47.5 20q-44 0 -102 -43l-111 80l115 450h469l-37 -211h-272l-12 -76q35 5 43 5q101 0 152.5 -68.5t51.5 -171.5q0 -89 -34.5 -167.5 t-107.5 -131.5t-171 -53q-157 0 -281 141z" />
<glyph unicode="&#x2157;" horiz-adv-x="1589" d="M57 700l131 152q97 -76 154 -76q34 0 57 20.5t23 49.5q0 72 -131 72h-23l37 206h29q41 0 84 17.5t43 54.5t-41 37q-47 0 -154 -64l-76 164q154 115 304 115q100 0 153 -53.5t53 -134.5q0 -41 -12.5 -75.5t-36.5 -60.5t-43 -41.5t-47 -33.5q90 -77 90 -185 q0 -52 -17.5 -103.5t-51.5 -97.5t-93 -75t-133 -29q-164 0 -299 141zM334 0l704 1434h244l-704 -1434h-244zM879 127l133 160q78 -82 135 -82q38 0 64 28.5t26 69.5q0 70 -61 70q-45 0 -103 -43l-110 80l114 450h469l-37 -211h-272l-12 -76q35 5 43 5q101 0 153 -68.5 t52 -171.5q0 -89 -34.5 -167.5t-108 -131.5t-171.5 -53q-156 0 -280 141z" />
<glyph unicode="&#x2158;" horiz-adv-x="1665" d="M57 717l29 174l350 543h305l-90 -506h90l-36 -211h-91l-24 -144h-228l25 144h-330zM297 928h127l49 272zM412 0l704 1434h244l-705 -1434h-243zM954 127l133 160q78 -82 136 -82q38 0 64 28.5t26 69.5q0 30 -14.5 50t-47.5 20q-44 0 -102 -43l-111 80l115 450h469 l-37 -211h-272l-13 -76q35 5 43 5q101 0 153 -68.5t52 -171.5q0 -89 -34.5 -167.5t-107.5 -131.5t-171 -53q-157 0 -281 141z" />
<glyph unicode="&#x2159;" horiz-adv-x="1456" d="M150 1288l223 146h219l-152 -861h-227l111 615l-88 -53zM219 0l705 1434h243l-704 -1434h-244zM772 303q0 103 34 203.5t95.5 183t157 133.5t207.5 51q47 0 88 -9t58 -18l18 -9l-99 -181q-28 9 -63 9q-138 0 -213 -140q42 33 98 33q88 0 139 -65t51 -166 q0 -138 -80.5 -240t-213.5 -102q-132 0 -204.5 90.5t-72.5 226.5zM999 293q0 -98 54 -98q30 0 44.5 33t14.5 81q0 66 -51 66q-20 0 -37 -13t-25 -32v-37z" />
<glyph unicode="&#x215a;" horiz-adv-x="1546" d="M57 700l133 160q78 -82 136 -82q38 0 64 29t26 70q0 69 -62 69q-44 0 -102 -43l-111 80l115 451h469l-37 -211h-272l-13 -76q28 4 43 4q101 0 153 -68.5t52 -171.5q0 -89 -34.5 -167.5t-107.5 -131.5t-171 -53q-157 0 -281 141zM319 0l705 1434h244l-705 -1434h-244z M866 303q0 103 34 203.5t95.5 183t157 133.5t207.5 51q47 0 88 -9t58 -18l18 -9l-99 -181q-28 9 -63 9q-138 0 -213 -140q42 33 98 33q89 0 140 -65t51 -166q0 -138 -81 -240t-214 -102q-132 0 -204.5 90.5t-72.5 226.5zM1094 293q0 -98 53 -98q30 0 44.5 33t14.5 81 q0 66 -51 66q-20 0 -36.5 -13t-24.5 -32v-37z" />
<glyph unicode="&#x215b;" horiz-adv-x="1468" d="M150 1288l223 146h219l-152 -861h-227l111 615l-88 -53zM219 0l705 1434h243l-704 -1434h-244zM754 203q0 166 184 268q-66 66 -66 158q0 105 76.5 175t206.5 70q114 0 171.5 -54.5t57.5 -145.5q0 -128 -133 -211q99 -80 99 -201q0 -120 -87.5 -198t-246.5 -78 q-132 0 -197 59t-65 158zM985 236q0 -60 55 -60q39 0 61.5 26t22.5 66q0 57 -49 99q-90 -58 -90 -131zM1077 625q0 -38 33 -68q66 42 66 92q0 41 -39 41q-28 0 -44 -20t-16 -45z" />
<glyph unicode="&#x215c;" horiz-adv-x="1568" d="M57 700l131 152q97 -76 154 -76q34 0 57 20.5t23 49.5q0 72 -131 72h-23l37 206h29q41 0 84 17.5t43 54.5t-41 37q-47 0 -154 -64l-76 164q154 115 304 115q100 0 153 -53.5t53 -134.5q0 -41 -12.5 -75.5t-36.5 -60.5t-43 -41.5t-47 -33.5q90 -77 90 -185 q0 -52 -17.5 -103.5t-51.5 -97.5t-93 -75t-133 -29q-164 0 -299 141zM334 0l704 1434h244l-704 -1434h-244zM860 203q0 166 184 268q-65 65 -65 158q0 105 76.5 175t206.5 70q114 0 171.5 -54.5t57.5 -145.5q0 -128 -133 -211q98 -80 98 -201q0 -120 -87.5 -198t-246.5 -78 q-132 0 -197 59t-65 158zM1092 236q0 -60 55 -60q39 0 61.5 26t22.5 66q0 57 -49 99q-90 -58 -90 -131zM1184 625q0 -38 33 -68q65 42 65 92q0 41 -39 41q-28 0 -43.5 -20t-15.5 -45z" />
<glyph unicode="&#x215d;" horiz-adv-x="1568" d="M57 700l133 160q78 -82 136 -82q38 0 64 29t26 70q0 69 -62 69q-44 0 -102 -43l-111 80l115 451h469l-37 -211h-272l-13 -76q28 4 43 4q101 0 153 -68.5t52 -171.5q0 -89 -34.5 -167.5t-107.5 -131.5t-171 -53q-157 0 -281 141zM319 0l705 1434h244l-705 -1434h-244z M858 203q0 166 184 268q-65 65 -65 158q0 105 76.5 175t206.5 70q114 0 171.5 -54.5t57.5 -145.5q0 -128 -133 -211q98 -80 98 -201q0 -120 -87.5 -198t-246.5 -78q-132 0 -197 59t-65 158zM1090 236q0 -60 55 -60q39 0 61.5 26t22.5 66q0 57 -49 99q-90 -58 -90 -131z M1182 625q0 -39 32 -68q66 42 66 92q0 41 -39 41q-28 0 -43.5 -20t-15.5 -45z" />
<glyph unicode="&#x215e;" horiz-adv-x="1427" d="M84 573q20 110 67.5 227t104.5 208t90.5 139.5t56.5 75.5h-243l37 211h491l-35 -199q-11 -13 -30 -37t-69.5 -98.5t-92.5 -149t-83.5 -179t-58.5 -198.5h-235zM180 0l705 1434h243l-704 -1434h-244zM719 203q0 166 184 268q-65 65 -65 158q0 105 76 175t206 70 q114 0 172 -54.5t58 -145.5q0 -128 -133 -211q98 -80 98 -201q0 -120 -87.5 -198t-246.5 -78q-132 0 -197 59t-65 158zM950 236q0 -60 56 -60q39 0 61.5 26t22.5 66q0 56 -50 99q-90 -58 -90 -131zM1042 625q0 -38 33 -68q66 42 66 92q0 41 -39 41q-28 0 -44 -20t-16 -45z " />
<glyph unicode="&#x2202;" horiz-adv-x="1038" d="M31 379q0 111 34 219t93 191.5t143.5 134.5t179.5 51q38 0 71 -10t51 -21t33 -28t18.5 -23t7.5 -14q-11 116 -76 188t-189 72q-31 0 -66 -4.5t-54 -8.5l-19 -4l21 289q55 23 161 23q91 0 168 -23t132 -61.5t97.5 -93t69 -113t44 -125.5t24 -127.5t6.5 -122.5 q0 -94 -15 -187.5t-43.5 -182.5t-75 -165t-105.5 -133.5t-138.5 -90t-171.5 -32.5q-89 0 -158.5 22.5t-114.5 60t-74.5 90t-41.5 109t-12 120.5zM379 373q0 -109 82 -109q43 0 75.5 35t48.5 88t23.5 102t7.5 91q0 50 -16.5 79t-64.5 29q-42 0 -75 -40t-49 -96.5t-24 -103.5 t-8 -75z" />
<glyph unicode="&#x2206;" horiz-adv-x="1155" d="M-72 0l619 1434h360l115 -1434h-1094zM395 324h297l-18 735z" />
<glyph unicode="&#x220f;" horiz-adv-x="1126" d="M55 0l195 1110h-109l58 324h1015l-57 -324h-108l-195 -1110h-350l194 1110h-98l-194 -1110h-351z" />
<glyph unicode="&#x2211;" horiz-adv-x="970" d="M-51 0l26 160l455 559l-258 557l29 158h839l-57 -324h-383l186 -393l-288 -393h346l-56 -324h-839z" />
<glyph unicode="&#x2212;" horiz-adv-x="1003" d="M111 543l51 280h749l-51 -280h-749z" />
<glyph unicode="&#x221a;" horiz-adv-x="1060" d="M14 696h357l28 -362l467 1100h351l-656 -1434h-426z" />
<glyph unicode="&#x221e;" horiz-adv-x="1347" d="M53 453q0 65 14 129.5t43 123t69 103.5t96 71.5t120 26.5q83 0 140.5 -51.5t138.5 -181.5q51 54 78.5 82t67.5 62.5t68.5 50t65.5 27t76 11.5q54 0 96 -19.5t67.5 -50t42 -71.5t22.5 -80.5t6 -81.5q0 -82 -23 -162t-64.5 -145.5t-107.5 -106t-145 -40.5q-86 0 -143 51 t-138 182q-60 -65 -97 -101t-82 -70t-87 -48t-90 -14q-54 0 -96 19t-67.5 49.5t-42 71.5t-22.5 80.5t-6 82.5zM293 496q0 -51 20 -78t47 -27q23 0 63 31.5t124 116.5q-79 127 -131 127q-45 0 -84 -52t-39 -118zM770 516q42 -66 72 -95.5t59 -29.5q45 0 84 52t39 118 q0 51 -20.5 78t-47.5 27q-22 0 -62 -31.5t-124 -118.5z" />
<glyph unicode="&#x222b;" horiz-adv-x="653" d="M-121 -293l37 205h25q24 0 43 11.5t30.5 27t20.5 41t13 44.5t9 46l222 1249q42 220 152.5 303.5t346.5 83.5h27l-35 -205h-25q-24 0 -43 -11.5t-30 -26t-20.5 -41.5t-13 -43.5t-9.5 -47.5l-221 -1249q-41 -221 -152 -304t-348 -83h-29z" />
<glyph unicode="&#x2248;" horiz-adv-x="1003" d="M90 410q61 143 124.5 217.5t145.5 74.5q41 0 81.5 -20t66.5 -44.5t58 -44.5t59 -20q23 0 44.5 23t59.5 96l145 -76q-23 -52 -43.5 -91.5t-47 -79t-53.5 -65t-60.5 -41t-69.5 -15.5q-41 0 -80.5 20t-65.5 44.5t-58 44.5t-60 20q-22 0 -43 -23t-60 -96zM162 805 q61 144 124 218.5t146 74.5q41 0 80.5 -20t65.5 -44.5t57.5 -44.5t58.5 -20q24 0 46 23t59 95l143 -75q-61 -143 -124.5 -218t-145.5 -75q-34 0 -66 13.5t-57 32t-47.5 37.5t-47 32.5t-46.5 13.5q-24 0 -44.5 -22.5t-58.5 -96.5z" />
<glyph unicode="&#x2260;" horiz-adv-x="1003" d="M78 344l51 281h233l54 120h-266l49 281h342l121 272l200 -94l-80 -178h162l-49 -281h-238l-53 -120h270l-51 -281h-344l-121 -272l-198 94l78 178h-160z" />
<glyph unicode="&#x2264;" horiz-adv-x="1003" d="M6 0l41 238h746l-41 -238h-746zM119 639l39 217l809 358l-58 -321l-422 -154l367 -157l-53 -301z" />
<glyph unicode="&#x2265;" horiz-adv-x="1003" d="M35 0l41 238h749l-41 -238h-749zM84 281l57 319l422 154l-368 157l55 303l686 -358l-39 -217z" />
<glyph unicode="&#x2318;" horiz-adv-x="1417" d="M35 373q0 127 88.5 212t216.5 85h135l19 94h-41q-121 0 -208 87t-87 208q0 123 86.5 210t208.5 87q118 0 205 -84t83 -213l-12 -94h80l25 131q19 102 94 178.5t188 79.5q34 3 68 -6q101 -22 167 -102.5t66 -186.5q0 -126 -87.5 -210.5t-215.5 -84.5h-135l-18 -94h40 q123 0 209 -87t86 -210q0 -122 -86 -207.5t-209 -85.5q-119 0 -205 84.5t-83 212.5l12 92h-80l-22 -129q-22 -115 -103 -187.5t-190 -72.5q-122 0 -208.5 85.5t-86.5 207.5zM236 373q0 -38 28 -65t66 -27t62.5 25.5t31.5 60.5l18 102h-112q-38 0 -66 -28t-28 -68zM358 1059 q0 -39 28 -66.5t67 -27.5h75l13 61q6 51 -14 90t-74 39q-40 0 -67.5 -28t-27.5 -68zM680 670h78l16 94h-78zM914.5 352.5q2.5 -28.5 25.5 -50t61 -21.5q39 0 67 27t28 65q0 39 -28 67.5t-67 28.5h-75l-11 -61q-3 -27 -0.5 -55.5zM1014 965h110q38 0 65.5 28t27.5 66 q0 40 -27.5 68t-65.5 28q-40 0 -64 -29t-30 -59z" />
<glyph unicode="&#x25ca;" horiz-adv-x="935" d="M66 717l385 717h325l131 -717l-383 -717h-327zM367 662l47 -259l196 369l-49 256z" />
<glyph unicode="&#xe000;" horiz-adv-x="1075" d="M0 0v1075h1075v-1075h-1075z" />
<glyph unicode="&#xf6c3;" horiz-adv-x="266" d="M-94 -553l121 168h-93l48 276h221l-47 -311l-211 -217z" />
<glyph unicode="&#xf6df;" horiz-adv-x="565" d="M-45 23q0 210 79 323t187 113h8l19 94h149l-22 -127q32 -12 98 -49l-102 -170q-11 5 -36 17.5t-42 19t-27 6.5q-42 0 -67 -62.5t-25 -134.5q0 -55 45 -55q23 0 115 41l55 -186q-70 -36 -129 -50l-18 -110h-152l19 98q-70 13 -112 71t-42 161z" />
<glyph unicode="&#xf6e0;" horiz-adv-x="563" d="M147 1118q0 210 79.5 323t187.5 113h8l18 95h150l-23 -127q35 -13 99 -49l-103 -170q-11 5 -36 17.5t-41.5 19t-26.5 6.5q-42 0 -67 -62.5t-25 -134.5q0 -55 45 -55q22 0 114 41l56 -187q-66 -34 -129 -49l-19 -111h-151l18 99q-70 13 -112 70.5t-42 160.5z" />
<glyph unicode="&#xf6e1;" horiz-adv-x="342" d="M-123 -453l117 146h-92l45 254h213l-41 -289l-203 -190z" />
<glyph unicode="&#xf6e2;" horiz-adv-x="344" d="M72 643l116 145h-92l45 254h213l-41 -288l-202 -191z" />
<glyph unicode="&#xf6e3;" horiz-adv-x="661" d="M-109 -195l136 177q124 -91 188 -91q47 0 47 43q0 12 -4.5 22t-16.5 20.5t-22 18t-34 23t-38 25.5q-159 117 -159 268q0 103 68 176.5t194 79.5l20 111h156l-25 -129q107 -27 185 -78l-137 -182q-104 63 -160 63q-22 0 -37.5 -10.5t-15.5 -30.5q0 -14 12 -29t27 -26.5 t46.5 -35t53.5 -40.5q68 -56 102.5 -112.5t34.5 -124.5q0 -63 -27 -119t-88.5 -96.5t-148.5 -46.5l-19 -111h-153l20 125q-103 30 -205 110z" />
<glyph unicode="&#xf6e4;" horiz-adv-x="661" d="M84 901l135 176q122 -90 189 -90q47 0 47 43q0 12 -4.5 22t-16.5 20.5t-22 18t-34 23t-38 25.5q-160 118 -160 268q0 103 68 176.5t194 79.5l21 111h155l-24 -129q106 -26 184 -78l-137 -183q-105 64 -160 64q-22 0 -37.5 -10.5t-15.5 -30.5q0 -14 12 -29t27 -26.5 t46.5 -35t53.5 -40.5q68 -57 103 -113.5t35 -124.5q0 -63 -27 -119.5t-89 -97.5t-149 -47l-18 -108h-154l21 125q-110 32 -205 110z" />
<glyph unicode="&#xf6e7;" horiz-adv-x="339" d="M-96 -307l45 254h209l-45 -254h-209z" />
<glyph unicode="&#xf6e8;" horiz-adv-x="342" d="M98 788l45 254h209l-45 -254h-209z" />
<glyph unicode="&#xf6e9;" horiz-adv-x="675" d="M127 973q0 51 8.5 110.5t28 125t48 118t74 87t99.5 34.5q42 0 68 -17t57 -53l10 56h221l-114 -646h-219l10 62q-45 -40 -77.5 -58t-74.5 -18t-71.5 19t-43 51.5t-19 63t-5.5 65.5zM348 1022q0 -49 31 -49q33 0 72 61l26 160q-15 55 -43 55q-39 0 -62.5 -87t-23.5 -140z " />
<glyph unicode="&#xf6ea;" horiz-adv-x="675" d="M109 788l157 895h219l-55 -307q32 26 50 38.5t45.5 23t56.5 10.5q42 0 71 -19t43 -51t19.5 -63.5t5.5 -67.5q0 -42 -7 -97.5t-26 -123t-47 -122.5t-75 -92.5t-105 -37.5q-40 0 -68 17.5t-55 52.5l-10 -56h-219zM369 1026q15 -53 45 -53q36 0 59 83t23 138t-31 55 q-33 0 -66 -55z" />
<glyph unicode="&#xf6eb;" horiz-adv-x="675" d="M127 973q0 51 8.5 110.5t28 125t48 118t74 87t99.5 34.5q42 0 68 -17.5t55 -54.5l55 307h221l-157 -895h-221l10 60q-43 -38 -76.5 -56t-75.5 -18q-41 0 -70 19t-42.5 51.5t-19 63t-5.5 65.5zM348 1022q0 -49 31 -49q29 0 67 55l29 166q-15 55 -41 55q-39 0 -62.5 -87 t-23.5 -140z" />
<glyph unicode="&#xf6ec;" horiz-adv-x="606" d="M125 1022q0 192 87.5 309t242.5 117q92 0 146 -51t54 -137q0 -58 -18 -101t-44 -66t-65.5 -36.5t-72.5 -17t-74 -3.5h-37v-10q0 -72 41 -72q39 0 154 62l61 -164q-40 -23 -120.5 -50.5t-155.5 -27.5q-92 0 -145.5 59.5t-53.5 188.5zM354 1161h27q36 0 59 21.5t23 60.5 q0 33 -31 33q-55 0 -78 -115z" />
<glyph unicode="&#xf6ed;" horiz-adv-x="378" d="M109 788l112 646h221l-114 -646h-219zM229 1495l33 186h225l-32 -186h-226z" />
<glyph unicode="&#xf6ee;" horiz-adv-x="378" d="M109 788l157 895h221l-157 -895h-221z" />
<glyph unicode="&#xf6ef;" horiz-adv-x="942" d="M104 788l115 646h219l-14 -74q80 88 164 88q48 0 75 -28t33 -77q30 42 76.5 73.5t99.5 31.5q70 0 97.5 -56t9.5 -147l-80 -457h-221l74 416q4 23 2.5 38t-15.5 15q-26 0 -55 -49l-74 -420h-219l72 416q6 23 3 38t-15 15q-26 0 -54 -47l-73 -422h-220z" />
<glyph unicode="&#xf6f0;" horiz-adv-x="645" d="M127 1040q0 42 6.5 88t26.5 105.5t51.5 105t88.5 77.5t130 32q31 0 61.5 -5.5t67.5 -23t64.5 -45.5t46 -77.5t18.5 -114.5q0 -42 -6.5 -88t-26.5 -105.5t-51.5 -105t-88.5 -77.5t-130 -32q-31 0 -61.5 5.5t-67.5 22.5t-64.5 45t-46 78t-18.5 115zM344 1014q0 -53 41 -53 t63.5 88t22.5 159q0 54 -41 54t-63.5 -88.5t-22.5 -159.5z" />
<glyph unicode="&#xf6f1;" horiz-adv-x="499" d="M109 788l114 646h219l-22 -134q78 153 190 142l-41 -234q-43 0 -80.5 -24t-60 -58t-39 -67.5t-23.5 -57.5l-6 -24l-32 -189h-219z" />
<glyph unicode="&#xf6f2;" horiz-adv-x="595" d="M96 866l97 150q112 -66 161 -66q14 0 24.5 7.5t10.5 19.5q0 10 -6 17.5t-14 11.5t-24.5 12.5t-27.5 15.5q-34 18 -55.5 33t-46 39.5t-37 57.5t-12.5 75q0 88 64 148.5t180 60.5q117 0 245 -76l-94 -151q-91 51 -137 51q-14 0 -24.5 -7.5t-10.5 -19.5q0 -8 3 -14t10.5 -11 t14.5 -8.5l21 -10.5t25 -13q31 -16 51 -29.5t46 -38t39 -58.5t13 -77q0 -85 -62.5 -148t-178.5 -63q-140 0 -275 92z" />
<glyph unicode="&#xf6f3;" horiz-adv-x="509" d="M145 1253l31 181h60l24 139l227 47l-34 -186h129l-33 -181h-127l-37 -209q-10 -53 16 -53q16 0 60 19l41 -187q-104 -49 -199 -49q-185 0 -133 283l35 196h-60z" />
<glyph unicode="&#xf8ff;" horiz-adv-x="1730" d="M134.5 560.5q-2.5 11.5 15.5 21.5l57 41q2 1 3.5 2.5l3 3l2.5 2.5t2 3l1 1q19 16 37 -12l33 -64q6 -12 13.5 -15.5t14 2t9.5 17.5l18 70q4 19 18.5 21t26.5 -13l47 -53q13 -15 23.5 -11.5t11.5 23.5l4 70q3 20 15.5 25t27.5 -7l57 -43q17 -12 26 -6.5t5 25.5l-8 69 q-3 20 8.5 28t28.5 -1l63 -29q19 -9 27 -1.5t2 26.5l-22 67q-8 19 0.5 29t27.5 4l15 -2q40 -77 70 -202.5t30 -217.5q-15 -18 -34.5 -27.5t-59.5 -9.5h-9q0 47 -32 72q18 -21 18 -55v-15q-33 3 -33 39q0 43 -27.5 72t-76.5 29q-41 0 -68.5 -32t-27.5 -79q0 -60 49.5 -96.5 t138.5 -36.5q106 0 212.5 65t183.5 162.5t125 212.5t48 213q0 59 -36.5 98t-94.5 39q-48 0 -85.5 -33.5t-37.5 -84.5q0 -106 119 -119q-30 -122 -59 -174q-12 96 -43.5 178t-75.5 129q91 -120 107 -330l-29 -41q0 156 -51 287t-131 172q-5 9 2 18.5t22 12.5l70 12 q19 3 21 13.5t-15 21.5l-59 39q-15 13 -13.5 26.5t19.5 20.5l63 29q14 4 19 10t0 13t-19 13l-63 27q-24 11 -21 29q13 6 15 16l34 62q9 19 20.5 18t16.5 -20l21 -68q6 -21 18.5 -24t26.5 14l47 53q12 15 23 12.5t12 -22.5l4 -72q1 -21 14.5 -26t28.5 8l57 43q15 12 24 5.5 t7 -26.5l-10 -70q-1 -20 10.5 -27.5t28.5 1.5l63 33q19 8 26.5 0t0.5 -29l-23 -64q-6 -20 3 -30t28 -4l70 14q20 6 26.5 -2t-4.5 -27l-37 -59q-12 -17 -5.5 -29.5t26.5 -11.5l71 4q21 0 25.5 -11t-8.5 -24l-49 -53q-14 -13 -10.5 -26.5t24.5 -16.5l70 -12q43 -10 6 -39 l-58 -39q-16 -10 -15 -24t21 -21l64 -27q12 -5 16.5 -12t0 -13.5t-16.5 -11.5l-64 -26q-20 -7 -21 -22t15 -25l58 -41q11 -7 14.5 -14.5t-2 -13.5t-18.5 -9l-70 -13q-21 -3 -24.5 -16.5t10.5 -28.5l49 -49q13 -14 8.5 -24.5t-25.5 -10.5l-71 5q-20 0 -26.5 -12t5.5 -29 l37 -62q10 -17 4 -25.5t-26 -5.5l-70 19q-19 4 -28 -6t-3 -29l23 -68q8 -19 0 -26t-27 2l-63 31q-17 9 -28.5 1t-10.5 -30l10 -68q1 -21 -7.5 -25.5t-23.5 7.5l-57 43q-15 12 -28.5 5.5t-14.5 -26.5l-4 -69q-1 -20 -12 -23t-23 11l-47 55q-13 14 -26 12t-19 -22l-21 -68 q-3 -13 -9.5 -18t-14 -1t-13.5 15l-34 61q-9 19 -22.5 19t-25.5 -19l-30 -61q-6 -11 -13.5 -15t-14 1t-9.5 18l-21 68q-6 20 -19 22t-26 -12l-47 -55q-12 -14 -22 -11t-13 23l-4 69q-2 20 -15 26.5t-30 -5.5l-53 -43q-17 -13 -27 -8t-6 26l11 68q1 22 -10.5 30t-30.5 -1 l-62 -31q-19 -9 -27 -2t0 26l23 68q7 19 -2.5 29.5t-28.5 5.5l-69 -19q-20 -3 -26.5 5.5t3.5 25.5l39 62q11 17 4.5 29t-26.5 12l-72 -5q-21 0 -25.5 10.5t8.5 24.5l52 49q13 15 8.5 28.5t-25.5 16.5l-67 13q-21 4 -23.5 15.5zM610 281q44 -27 123 -27q106 0 212.5 65 t183.5 162t125.5 212t48.5 214q0 63 -41 101q24 -38 24 -84q0 -100 -47.5 -215t-126.5 -215q-85 -105 -188.5 -168.5t-212.5 -63.5q-58 0 -101 19z" />
<glyph unicode="&#xfb06;" horiz-adv-x="1558" d="M-49 129l166 250q65 -43 141 -77t119 -34q24 0 38.5 10.5t14.5 30.5q0 15 -5 27t-19.5 23.5t-25.5 18t-38 21t-43 23.5q-48 28 -84 56.5t-72 69t-55.5 93t-19.5 113.5q0 149 102.5 246.5t284.5 97.5q84 0 196 -33q-4 18 -4 61q0 159 106.5 263t297.5 104t287 -106.5 t63 -296.5l-2 -15h194l-47 -274h-196l-70 -400q-10 -44 -3.5 -65.5t13 -26t17.5 -4.5q10 0 23 4t20.5 7t27 13t25.5 13l63 -289q-189 -76 -311 -76q-148 0 -197 112t-10 331l66 381h-99l48 274h98l6 29q22 112 0.5 170.5t-96.5 58.5q-80 0 -134.5 -60.5t-54.5 -170.5 q0 -60 15 -98l53 -29l-160 -254q-57 34 -120.5 60t-102.5 26q-53 0 -53 -39q0 -15 4.5 -27t19.5 -23.5t24.5 -17.5t38.5 -21t42 -22q235 -131 235 -331q0 -68 -24 -129.5t-70 -111.5t-122.5 -79t-172.5 -29q-218 0 -438 152z" />
<glyph horiz-adv-x="665" d="M74 596l100 180q27 -8 62 -8q138 0 213 139q-47 -33 -99 -33q-88 0 -138 65t-50 165q0 140 80 242t213 102q132 0 204 -91t72 -227q0 -82 -21 -163t-63.5 -154.5t-100.5 -130t-138 -90t-170 -33.5q-47 0 -88 9.5t-58 18.5zM391 1124q0 -67 53 -67q18 0 34 11.5t24 29.5 q2 14 2 43q0 98 -53 98q-29 0 -44.5 -34t-15.5 -81z" />
<glyph horiz-adv-x="950" d="M-102 0l381 602l-160 574h352l41 -310l152 310h366l-362 -576l172 -600h-355l-51 301l-155 -301h-381z" />
<glyph horiz-adv-x="1312" d="M-168 -207q34 15 58 27t44 26t32.5 23.5t24 27t17 28.5t12 35.5t10 41t9.5 51.5l131 748h-98l49 274h96q36 209 113.5 313.5t210.5 104.5q130 0 323 -117l-157 -221q-64 31 -93 31q-41 0 -55 -78l-6 -33h164l-47 -274h-164l-125 -717q-15 -87 -23.5 -127t-25 -99 t-36.5 -86.5t-52.5 -66.5t-79 -64t-109.5 -54t-151 -60zM487 -207q34 15 58 27t44 26t32.5 23.5t24 27t17 28.5t12 35.5t10 41t9.5 51.5l131 748h-98l49 274h96q36 210 111 314t205 104q69 0 133 -25t139 -69l-121 -242q-52 29 -69 29q-16 0 -32 -16.5t-24 -61.5l-6 -33h164 l-47 -274h-164l-125 -717q-33 -188 -57 -253q-40 -106 -132 -171q-90 -64 -288 -133z" />
<glyph horiz-adv-x="1220" d="M-174 -207q34 15 58 27t44 26t32.5 23.5t24 27t17 28.5t12 35.5t10 41t9.5 51.5l131 748h-92l49 274h92q39 202 122.5 300t221.5 98q126 0 328 -99q81 119 219 119q130 0 323 -117l-157 -221q-64 31 -92 31q-16 0 -32 -16.5t-24 -61.5l-6 -33h164l-47 -274h-164 l-125 -717q-15 -87 -23.5 -127t-25 -99t-36.5 -86.5t-52.5 -66.5t-79 -64t-109.5 -54t-151 -60l-72 266q34 15 58 27t44 26t32.5 23.5t24 27t17 28.5t12 35.5t10 41t9.5 51.5l131 748h-233l-125 -717q-17 -101 -26.5 -146t-31.5 -109t-49 -94t-77.5 -71t-119.5 -71t-171 -66 zM549 1075h231l17 78q-130 33 -164 33q-63 0 -78 -78z" />
<glyph horiz-adv-x="2183" d="M-174 -207q34 15 58 27t44 26t32.5 23.5t24 27t17 28.5t12 35.5t10 41t9.5 51.5l131 748h-92l49 274h92q39 202 122.5 300t221.5 98q132 0 334 -103q85 123 242 123q107 0 282 -80l15 80h335l-90 -518q68 63 120.5 93t117.5 30q66 0 112 -30t69 -81t32.5 -104t9.5 -115 q0 -77 -12 -171.5t-42.5 -206t-75.5 -202t-119 -151t-165 -60.5q-67 0 -110 29.5t-92 91.5l-17 -98h-336l203 1153q-122 33 -168 33q-61 0 -76 -78l-6 -33h162l-47 -274h-164l-125 -717q-33 -188 -58 -254q-39 -106 -132 -171q-90 -64 -285 -132l-74 266q34 15 58 27t44 26 t32.5 23.5t24 27t17 28.5t12 35.5t10 41t9.5 51.5l131 748h-235l-125 -717q-17 -101 -26.5 -146t-31.5 -109t-49 -94t-77.5 -71t-119.5 -71t-171 -66zM549 1075h233l17 78q-130 33 -166 33q-63 0 -78 -78zM1569 379q26 -100 80 -100q43 0 77.5 82.5t49 172.5t14.5 150 q0 113 -53 113q-49 0 -111 -101z" />
<glyph horiz-adv-x="2172" d="M-174 -207q34 15 58 27t44 26t32.5 23.5t24 27t17 28.5t12 35.5t10 41t9.5 51.5l131 748h-92l49 274h92q39 202 122.5 300t221.5 98q132 0 334 -103q85 123 242 123q107 0 282 -80l15 80h335l-92 -528q75 65 140.5 99t138.5 34q235 0 174 -342l-133 -756h-336l117 670 q13 51 11 94t-34 43q-28 0 -62 -27t-61 -69l-125 -711h-336l203 1153q-122 33 -168 33q-61 0 -76 -78l-6 -33h162l-47 -274h-164l-125 -717q-33 -188 -58 -254q-39 -106 -132 -171q-90 -64 -285 -132l-74 266q34 15 58 27t44 26t32.5 23.5t24 27t17 28.5t12 35.5t10 41 t9.5 51.5l131 748h-235l-125 -717q-17 -101 -26.5 -146t-31.5 -109t-49 -94t-77.5 -71t-119.5 -71t-171 -66zM549 1075h233l17 78q-130 33 -166 33q-63 0 -78 -78z" />
<glyph horiz-adv-x="1636" d="M-174 -207q34 15 58 27t44 26t32.5 23.5t24 27t17 28.5t12 35.5t10 41t9.5 51.5l131 748h-92l49 274h92q39 202 122.5 300t221.5 98q130 0 336 -105q91 125 256 125q157 0 414 -117l-144 -221q-164 31 -198 31q-77 0 -97 -78l-6 -33h520l-190 -1075h-336l141 801h-184 l-125 -717q-33 -188 -58 -254q-39 -106 -132 -171q-90 -64 -285 -132l-74 266q34 15 58 27t44 26t32.5 23.5t24 27t17 28.5t12 35.5t10 41t9.5 51.5l131 748h-233l-125 -717q-17 -101 -26.5 -146t-31.5 -109t-49 -94t-77.5 -71t-119.5 -71t-171 -66zM549 1075h231l19 78 q-130 33 -166 33q-63 0 -78 -78z" />
<glyph horiz-adv-x="1642" d="M-174 -207q34 15 58 27t44 26t32.5 23.5t24 27t17 28.5t12 35.5t10 41t9.5 51.5l131 748h-92l49 274h92q39 202 122.5 300t221.5 98q130 0 336 -105q91 125 256 125q157 0 414 -117l-144 -221q-164 31 -198 31q-77 0 -97 -78l-6 -33h524l-178 -1003q-33 -187 -60 -255 q-45 -118 -148 -184q-94 -61 -271 -108l-67 280q45 20 74 34.5t51 32t33.5 30t21 36.5t13.5 43t11 58l133 762h-186l-125 -717q-33 -188 -58 -254q-39 -106 -132 -171q-90 -64 -285 -132l-74 266q34 15 58 27t44 26t32.5 23.5t24 27t17 28.5t12 35.5t10 41t9.5 51.5l131 748 h-233l-125 -717q-17 -101 -26.5 -146t-31.5 -109t-49 -94t-77.5 -71t-119.5 -71t-171 -66zM549 1075h231l19 78q-130 33 -166 33q-63 0 -78 -78z" />
<glyph horiz-adv-x="2142" d="M-174 -207q34 15 58 27t44 26t32.5 23.5t24 27t17 28.5t12 35.5t10 41t9.5 51.5l131 748h-92l49 274h92q39 202 122.5 300t221.5 98q132 0 334 -103q85 123 242 123q107 0 282 -80l15 80h335l-125 -705l179 287h385l-353 -438l197 -637h-346l-84 346l-70 -86l-45 -260 h-336l203 1153q-122 33 -168 33q-61 0 -76 -78l-6 -33h162l-47 -274h-164l-125 -717q-33 -188 -58 -254q-39 -106 -132 -171q-90 -64 -285 -132l-74 266q34 15 58 27t44 26t32.5 23.5t24 27t17 28.5t12 35.5t10 41t9.5 51.5l131 748h-235l-125 -717q-17 -101 -26.5 -146 t-31.5 -109t-49 -94t-77.5 -71t-119.5 -71t-171 -66zM549 1075h233l17 78q-130 33 -166 33q-63 0 -78 -78z" />
<glyph horiz-adv-x="655" d="M-168 -207q34 15 58 27t44 26t32.5 23.5t24 27t17 28.5t12 35.5t10 41t9.5 51.5l131 748h-98l49 274h96q37 210 111 314t204 104q113 0 273 -94l-121 -242q-52 29 -70 29q-41 0 -55 -78l-6 -33h164l-47 -274h-164l-125 -717q-33 -188 -57 -253q-40 -106 -132 -171 q-90 -64 -288 -133z" />
<glyph horiz-adv-x="1693" d="M-174 -207q34 15 58 27t44 26t32.5 23.5t24 27t17 28.5t12 35.5t10 41t9.5 51.5l131 748h-92l49 274h92q39 202 122.5 300t221.5 98q132 0 334 -103q85 123 242 123q107 0 282 -80l15 80h335l-262 -1493h-336l203 1153q-122 33 -168 33q-61 0 -76 -78l-6 -33h162 l-47 -274h-164l-125 -717q-33 -188 -58 -254q-39 -106 -132 -171q-90 -64 -285 -132l-74 266q34 15 58 27t44 26t32.5 23.5t24 27t17 28.5t12 35.5t10 41t9.5 51.5l131 748h-235l-125 -717q-17 -101 -26.5 -146t-31.5 -109t-49 -94t-77.5 -71t-119.5 -71t-171 -66zM549 1075 h233l17 78q-130 33 -166 33q-63 0 -78 -78z" />
<glyph horiz-adv-x="1875" d="M-174 -207q34 15 58 27t44 26t32.5 23.5t24 27t17 28.5t12 35.5t10 41t9.5 51.5l131 748h-92l49 274h92q39 202 122.5 300t221.5 98q122 0 328 -101q80 121 219 121q130 0 323 -117l-157 -221q-64 31 -90 31q-44 0 -58 -78l-6 -33h262l43 236l351 75l-56 -311h195 l-49 -274h-195l-70 -400q-17 -96 25 -96q10 0 23 3.5t21.5 7.5t26.5 13t27 13l64 -289q-189 -76 -314 -76q-146 0 -195 112t-11 331l67 381h-262l-125 -717q-33 -188 -58 -254q-39 -106 -132 -171q-90 -64 -285 -132l-74 266q34 15 58 27t44 26t32.5 23.5t24 27t17 28.5 t12 35.5t10 41t9.5 51.5l131 748h-233l-125 -717q-17 -101 -26.5 -146t-31.5 -109t-49 -94t-77.5 -71t-119.5 -71t-171 -66zM549 1075h231l17 78q-130 33 -164 33q-63 0 -78 -78z" />
<glyph horiz-adv-x="1605" d="M-168 -207q34 15 58 27t44 26t32.5 23.5t24 27t17 28.5t12 35.5t10 41t9.5 51.5l131 748h-98l49 274h96q39 213 123 315.5t227 102.5q102 0 281 -78l14 78h336l-92 -528q76 66 140.5 99.5t137.5 33.5q109 0 158 -81t17 -261l-134 -756h-335l116 670q13 51 11.5 94 t-33.5 43q-28 0 -62 -27t-61 -69l-125 -711h-336l203 1153q-122 33 -166 33q-61 0 -76 -78l-6 -33h162l-47 -274h-164l-125 -717q-15 -87 -23.5 -127t-25 -99t-36.5 -86.5t-52.5 -66.5t-79 -64t-109.5 -54t-151 -60z" />
<glyph horiz-adv-x="1001" d="M44.5 314q0.5 66 14.5 147l127 715h320l-137 -777q-4 -31 -4.5 -56t17 -40.5t56.5 -15.5q58 0 83 29.5t34 82.5l137 777h322l-131 -738q-14 -84 -31 -144.5t-51 -123t-81.5 -101t-123 -63t-174.5 -24.5q-107 0 -182.5 26t-116.5 69t-60 107t-18.5 130zM383 1522h190 q-4 -34 12.5 -55t47.5 -21q47 0 76 21t32 55h193q-23 -127 -105.5 -200t-207.5 -73q-134 0 -196.5 76t-41.5 197z" />
<glyph horiz-adv-x="1073" d="M-168 -207q34 15 58 27t44 26t32.5 23.5t24 27t17 28.5t12 35.5t10 41t9.5 51.5l131 748h-98l49 274h96q39 213 128 315.5t241 102.5q156 0 413 -117l-143 -221q-164 31 -201 31q-76 0 -94 -78l-6 -33h518l-190 -1075h-336l141 801h-182l-125 -717q-33 -188 -57 -253 q-40 -106 -132 -171q-90 -64 -288 -133z" />
<glyph horiz-adv-x="1073" d="M-168 -207q34 15 58 27t44 26t32.5 23.5t24 27t17 28.5t12 35.5t10 41t9.5 51.5l131 748h-98l49 274h96q39 213 128 315.5t241 102.5q156 0 413 -117l-143 -221q-164 31 -201 31q-76 0 -94 -78l-6 -33h524l-178 -1003q-33 -187 -60 -255q-45 -118 -148 -184 q-95 -61 -271 -108l-70 280q55 25 87 43t54 34.5t34 41t18 47t14 68.5l133 762h-186l-125 -717q-33 -188 -57 -253q-40 -106 -132 -171q-90 -64 -288 -133z" />
<glyph horiz-adv-x="1574" d="M-168 -207q34 15 58 27t44 26t32.5 23.5t24 27t17 28.5t12 35.5t10 41t9.5 51.5l131 748h-98l49 274h96q39 213 123 315.5t227 102.5q102 0 281 -78l14 78h336l-125 -705l178 287h385l-352 -438l197 -637h-346l-84 346l-70 -86l-45 -260h-336l203 1153q-122 33 -166 33 q-61 0 -76 -78l-6 -33h162l-47 -274h-164l-125 -717q-33 -188 -57 -253q-40 -106 -132 -171q-90 -64 -288 -133z" />
<glyph horiz-adv-x="389" d="M121 788l39 230h209l-39 -230h-209zM211 1087l33 562h266l-170 -562h-129z" />
<glyph horiz-adv-x="1124" d="M-168 -207q34 15 58 27t44 26t32.5 23.5t24 27t17 28.5t12 35.5t10 41t9.5 51.5l131 748h-98l49 274h96q39 213 123 315.5t227 102.5q102 0 281 -78l14 78h336l-262 -1493h-336l203 1153q-130 33 -166 33q-61 0 -76 -78l-6 -33h162l-47 -274h-164l-125 -717 q-15 -87 -23.5 -127t-25 -99t-36.5 -86.5t-52.5 -66.5t-79 -64t-109.5 -54t-151 -60z" />
<glyph horiz-adv-x="1312" d="M-168 -207q34 15 58 27t44 26t32.5 23.5t24 27t17 28.5t12 35.5t10 41t9.5 51.5l131 748h-98l49 274h96q36 209 113.5 313.5t210.5 104.5q130 0 323 -117l-157 -221q-64 31 -93 31q-41 0 -55 -78l-6 -33h262l43 236l350 75l-55 -311h195l-50 -274h-194l-70 -400 q-17 -96 25 -96q10 0 23 3.5t21.5 7.5t26.5 13t27 13l64 -289q-189 -76 -314 -76q-146 0 -195.5 112t-11.5 331l68 381h-262l-125 -717q-15 -87 -23.5 -127t-25 -99t-36.5 -86.5t-52.5 -66.5t-79 -64t-109.5 -54t-151 -60z" />
<glyph horiz-adv-x="512" d="M-178 -424q76 35 96 61t33 93l74 428h-56l33 180h53q27 125 76.5 187.5t130.5 62.5q87 0 205 -74l-102 -139q-36 18 -54 18q-24 0 -32 -37l-5 -18h101l-31 -180h-100l-72 -408q-8 -43 -12 -62t-11.5 -51t-14.5 -46t-19 -37t-26.5 -35t-34.5 -29t-47 -29.5t-60 -27 t-76 -29.5z" />
<glyph horiz-adv-x="1001" d="M44.5 314q0.5 66 14.5 147l127 715h320l-137 -777q-4 -31 -4.5 -56t17 -40.5t56.5 -15.5q58 0 83 29.5t34 82.5l137 777h322l-131 -738q-14 -84 -31 -144.5t-51 -123t-81.5 -101t-123 -63t-174.5 -24.5q-107 0 -182.5 26t-116.5 69t-60 107t-18.5 130zM406 1249l231 293 h358l-303 -293h-286z" />
<glyph horiz-adv-x="645" d="M-53 127l133 160q78 -82 135 -82q38 0 64 28.5t26 69.5q0 70 -61 70q-45 0 -103 -43l-110 80l114 450h469l-36 -211h-273l-12 -76q35 5 43 5q101 0 153 -68.5t52 -171.5q0 -89 -34.5 -167.5t-108 -131.5t-171.5 -53q-156 0 -280 141z" />
<glyph horiz-adv-x="647" d="M49 700l133 160q78 -82 135 -82q38 0 64.5 29t26.5 70q0 69 -62 69q-44 0 -102 -43l-111 80l115 451h469l-37 -211h-272l-13 -76q28 4 43 4q101 0 153 -68.5t52 -171.5q0 -89 -34.5 -167.5t-107.5 -131.5t-171 -53q-157 0 -281 141z" />
<glyph horiz-adv-x="964" d="M-90 -55l203 241q39 -39 65.5 -62t70.5 -47t83 -24q65 0 111 56t46 141q0 58 -25 95.5t-81 37.5q-68 0 -164 -74l-174 119l186 748h738l-58 -324h-434l-28 -160q38 6 73 6q68 0 123 -21t92.5 -57.5t63.5 -87t37.5 -108.5t11.5 -123q0 -109 -33 -212t-94 -186 t-157.5 -133.5t-213.5 -50.5q-250 0 -442 226z" />
<glyph horiz-adv-x="1064" d="M6 203l203 241q39 -39 65.5 -62t70.5 -47t83 -24q66 0 112 56t46 141q0 57 -25.5 95t-81.5 38q-68 0 -164 -74l-174 119l187 748h737l-57 -324h-435l-28 -160q38 6 73 6q68 0 123 -21t92.5 -57.5t63.5 -87t37.5 -108.5t11.5 -123q0 -109 -33 -212t-93.5 -186t-157 -133.5 t-213.5 -50.5q-251 0 -443 226z" />
<glyph horiz-adv-x="391" d="M-72 -307l39 229h209l-39 -229h-209zM18 -8l33 561h266l-170 -561h-129z" />
<glyph horiz-adv-x="1333" d="M33 571l104 125q65 -65 119 -65q38 0 65 25t27 63q0 26 -15 43.5t-46 17.5q-43 0 -92 -37l-89 64l97 369h393l-29 -166h-239l-15 -72q28 4 43 4q89 0 132.5 -55.5t43.5 -141.5q0 -114 -71.5 -200t-194.5 -86q-137 0 -233 112zM252 0l610 1176h193l-613 -1176h-190z M707 166q0 138 161 221q-57 57 -57 129q0 87 65 144t173 57q96 0 144 -45t48 -119q0 -102 -119 -174q88 -66 88 -164t-74 -162.5t-206 -64.5q-111 0 -167 49t-56 129zM891 190q0 -51 57 -51q37 0 60.5 22.5t23.5 55.5q0 50 -51 90q-90 -55 -90 -117zM973 514q0 -35 35 -63 q65 40 65 84q0 38 -39 38q-28 0 -44.5 -18.5t-16.5 -40.5z" />
<glyph horiz-adv-x="389" d="M92 788l170 562h129l-33 -562h-266zM233 1419l39 230h209l-39 -230h-209z" />
<glyph horiz-adv-x="1335" d="M33 571l104 125q65 -65 119 -65q38 0 65 25t27 63q0 26 -15 43.5t-46 17.5q-43 0 -92 -37l-89 64l97 369h393l-29 -166h-239l-15 -72q28 4 43 4q89 0 132.5 -55.5t43.5 -141.5q0 -114 -71.5 -200t-194.5 -86q-137 0 -233 112zM252 0l610 1176h193l-613 -1176h-190z M713 248q0 85 29.5 168t81.5 150t133 109t176 42q38 0 71.5 -7.5t47.5 -14.5l14 -7l-80 -143q-22 8 -53 8q-127 0 -195 -125q48 29 94 29q75 0 118.5 -52.5t43.5 -136.5q0 -112 -68.5 -196t-181.5 -84q-111 0 -171 74.5t-60 185.5zM893 240q0 -86 53 -86q32 0 49 29t17 69 q0 61 -54 61q-21 0 -39 -11.5t-26 -29.5v-32z" />
<glyph horiz-adv-x="389" d="M-102 -307l170 561h129l-33 -561h-266zM39 324l39 229h209l-39 -229h-209z" />
<glyph horiz-adv-x="997" d="M40.5 314q0.5 66 14.5 147l127 715h320l-137 -777q-4 -31 -4.5 -56t17 -40.5t56.5 -15.5q58 0 83 29.5t34 82.5l137 777h322l-131 -738q-14 -84 -31 -144.5t-51 -123t-81.5 -101t-123 -63t-174.5 -24.5q-107 0 -182.5 26t-116.5 69t-60 107t-18.5 130z" />
<glyph horiz-adv-x="598" d="M166 1432l37 217h553l-35 -217h-162l-115 -644h-227l113 644h-164z" />
<glyph horiz-adv-x="716" d="M-55 143l28 174l351 543h305l-90 -506h90l-37 -211h-90l-25 -143h-227l24 143h-329zM184 354h127l49 273z" />
<glyph horiz-adv-x="718" d="M47 717l29 174l350 543h305l-90 -506h90l-37 -211h-90l-24 -144h-228l25 144h-330zM287 928h127l49 272z" />
<glyph horiz-adv-x="1081" d="M-84 -8l47 268l569 916h467l-151 -861h145l-57 -323h-145l-43 -250h-351l43 250h-524zM281 315h217l84 482z" />
<glyph horiz-adv-x="1067" d="M-31 250l47 268l570 916h442l-154 -861h136l-58 -323h-135l-43 -250h-348l43 250h-500zM328 573h198l78 441z" />
<glyph horiz-adv-x="1417" d="M37 590l24 137l310 449h241l-80 -420h80l-30 -166h-80l-23 -119h-178l23 119h-287zM233 756h121l45 241zM332 0l610 1176h195l-613 -1176h-192zM791 100l104 127q63 -67 119 -67q37 0 63.5 26t26.5 64q0 25 -14.5 43t-45.5 18q-46 0 -92 -37l-88 62l97 369h393l-31 -166 h-238l-14 -72q28 4 45 4q86 0 130 -56t44 -141q0 -114 -71.5 -200t-194.5 -86q-127 0 -233 112z" />
<glyph horiz-adv-x="524" d="M-35 0l234 766h182l-41 -766h-375zM158 856l55 320h295l-55 -320h-295z" />
<glyph horiz-adv-x="1001" d="M44.5 314q0.5 66 14.5 147l127 715h320l-137 -777q-4 -31 -4.5 -56t17 -40.5t56.5 -15.5q58 0 83 29.5t34 82.5l137 777h322l-131 -738q-14 -84 -31 -144.5t-51 -123t-81.5 -101t-123 -63t-174.5 -24.5q-107 0 -182.5 26t-116.5 69t-60 107t-18.5 130zM299 1249l215 293 h293l106 -293h-206l-64 137l-108 -137h-236z" />
<glyph horiz-adv-x="520" d="M4 0l55 319h295l-55 -319h-295zM131 410l41 766h375l-234 -766h-182z" />
<glyph horiz-adv-x="1009" d="M-18 188l38 213h109l182 1033h795l-59 -332h-443l-41 -223h346l-57 -326h-346l-27 -152h250l-37 -213h-252l-32 -188h-349l33 188h-110z" />
<glyph horiz-adv-x="899" d="M-29 139l35 193h96l150 844h700l-55 -304h-379l-24 -139h292l-51 -293h-293l-18 -108h213l-33 -193h-215l-22 -139h-322l25 139h-99z" />
<glyph horiz-adv-x="651" d="M-102 -203l26 140h70l108 616h506l-37 -217h-274l-25 -109h215l-34 -211h-215l-15 -79h154l-27 -140h-153l-19 -104h-227l18 104h-71z" />
<glyph horiz-adv-x="653" d="M90 893l27 139h69l109 617h506l-37 -217h-275l-24 -109h215l-35 -211h-215l-14 -80h153l-26 -139h-154l-18 -105h-228l19 105h-72z" />
<glyph horiz-adv-x="479" d="M41 672q76 35 96 60.5t33 92.5l74 428h-56l33 181h53q27 125 76.5 187t130.5 62q89 0 205 -73l-102 -140q-38 19 -54 19q-24 0 -32 -37l-4 -18h100l-31 -181h-100l-72 -407q-8 -43 -12 -62t-11.5 -51t-14.5 -46t-19 -37t-26.5 -35t-34.5 -29t-47 -29.5t-60 -27t-76 -29.5 z" />
<glyph horiz-adv-x="600" d="M-25 336l37 217h553l-35 -217h-161l-115 -643h-227l112 643h-164z" />
<glyph horiz-adv-x="952" d="M-14 0l207 1176h321l-31 -168h31q102 0 178 -21t117.5 -52t66.5 -76.5t32 -85t7 -87.5q0 -221 -139 -350t-411 -129h-21l-37 -207h-321zM395 500h29q86 0 127 41t41 92q0 44 -29 61t-96 17h-35z" />
<glyph horiz-adv-x="823" d="M39 -342l94 176q30 -22 57 -22q64 0 64 90q0 50 -16 98h-88l153 872h-227l53 304h766l-53 -304h-219l-154 -872h-92q24 -60 24 -143q0 -121 -64.5 -183.5t-150.5 -62.5q-92 0 -147 47z" />
<glyph horiz-adv-x="823" d="M76 872l53 304h766l-53 -304h-219l-154 -872h-319l153 872h-227zM272 1542h205l66 -137l110 137h232l-211 -293h-297z" />
<glyph horiz-adv-x="831" d="M78 872l53 304h766l-53 -304h-219l-62 -350h92l-34 -192h-93l-57 -330h-319l57 330h-86l33 192h88l61 350h-227z" />
<glyph horiz-adv-x="823" d="M-98 -307l98 555q11 61 25 106t40.5 92t63.5 77.5t95.5 49.5t133.5 19q80 0 140 -20t93 -54t48.5 -71.5t15.5 -79.5q0 -44 -17.5 -82.5t-34.5 -54.5l-17 -17q-94 -18 -94 -66q0 -20 16.5 -36.5t45 -39t46.5 -46.5q45 -54 45 -125q0 -90 -66.5 -156t-172.5 -66 q-114 0 -244 72l100 144q4 -2 21.5 -10.5t24.5 -12t21 -9t24.5 -7.5t21.5 -2q45 0 45 32q0 21 -25 39q-1 0 -16 11t-22 17t-22 19.5t-23.5 26.5t-18.5 31t-14.5 39t-4.5 45q0 137 164 213q4 12 4 20q0 29 -22 48.5t-66 19.5q-60 0 -89.5 -42t-47.5 -139l-96 -540h-219z" />
<glyph horiz-adv-x="823" d="M102 788l99 555q11 61 25 106t40.5 92.5t63.5 77.5t95.5 49.5t133.5 19.5q80 0 140 -20.5t93 -54t48.5 -71.5t15.5 -80q0 -44 -17.5 -82.5t-34.5 -54.5l-18 -16q-94 -18 -94 -66q0 -20 16.5 -36.5t45.5 -39.5t47 -47q45 -54 45 -125q0 -90 -66.5 -155.5t-173.5 -65.5 q-114 0 -244 72l101 143l22 -11t23.5 -11.5t21 -9t24 -7.5t21.5 -2q46 0 46 33q0 21 -25 39q-1 1 -16 11t-22 16.5t-22 19.5t-23.5 26t-18.5 31t-14.5 39t-4.5 45q0 137 164 213q4 12 4 21q0 29 -22 48t-66 19q-60 0 -89.5 -41.5t-47.5 -138.5l-96 -541h-220z" />
<glyph horiz-adv-x="671" d="M-125 -514l78 186q37 -20 90.5 -35.5t91.5 -15.5q41 0 59.5 22.5t26.5 69.5l6 37q-42 -37 -75.5 -54.5t-75.5 -17.5q-41 0 -69.5 19t-42.5 51t-19.5 63.5t-5.5 65.5q0 65 14.5 142t43.5 154t82 128t120 51q41 0 66.5 -16.5t56.5 -52.5l10 55h219l-109 -612 q-32 -174 -92 -234.5t-192 -60.5q-143 0 -283 55zM162 -74q0 -20 7 -34.5t21 -14.5q32 0 70 57l31 170q-15 50 -43 50q-39 0 -62.5 -87.5t-23.5 -140.5z" />
<glyph horiz-adv-x="823" d="M76 872l53 304h766l-53 -304h-219l-154 -872h-319l153 872h-227z" />
<glyph horiz-adv-x="675" d="M92 901l135 176q122 -90 189 -90q47 0 47 43q0 12 -4.5 22t-16.5 20.5t-22 18t-34 23t-38 25.5q-160 118 -160 268q0 107 73 181.5t210 74.5q84 0 168 -27.5t147 -68.5l-137 -183q-105 64 -160 64q-22 0 -37.5 -10.5t-15.5 -30.5q0 -14 12 -29t27 -26.5t46.5 -35 t53.5 -40.5q68 -57 103 -113.5t35 -124.5q0 -49 -17.5 -95t-52 -84.5t-92.5 -61.5t-131 -23q-171 0 -328 127z" />
<glyph horiz-adv-x="1001" d="M44.5 314q0.5 66 14.5 147l127 715h320l-137 -777q-4 -31 -4.5 -56t17 -40.5t56.5 -15.5q58 0 83 29.5t34 82.5l137 777h322l-131 -738q-14 -84 -31 -144.5t-51 -123t-81.5 -101t-123 -63t-174.5 -24.5q-107 0 -182.5 26t-116.5 69t-60 107t-18.5 130zM350 1270l47 266 h236l-47 -266h-236zM645 1270l47 266h234l-47 -266h-234z" />
<glyph horiz-adv-x="679" d="M74 582l78 186q37 -20 90.5 -35.5t91.5 -15.5q41 0 59.5 22.5t26.5 69.5l6 37q-42 -37 -76 -54.5t-76 -17.5q-41 0 -69.5 19t-42.5 51t-19.5 63.5t-5.5 65.5q0 65 14.5 142t43.5 154t82 128t120 51q40 0 66 -17t57 -53l10 56h220l-109 -613q-32 -174 -92.5 -234.5 t-192.5 -60.5q-139 0 -282 56zM360 1022q0 -19 7.5 -34t21.5 -15q32 0 70 57l30 170q-15 49 -43 49q-39 0 -62.5 -87t-23.5 -140z" />
<glyph horiz-adv-x="675" d="M-100 -195l135 177q124 -91 188 -91q47 0 47 43q0 12 -4 22t-16.5 21t-22 18t-33.5 22.5t-38 25.5q-160 118 -160 268q0 107 73 181.5t210 74.5q84 0 168 -27.5t147 -68.5l-137 -182q-104 63 -160 63q-22 0 -37.5 -10.5t-15.5 -30.5q0 -14 12 -29t27 -26.5t46.5 -35 t53.5 -40.5q68 -56 102.5 -112.5t34.5 -124.5q0 -49 -17.5 -95t-52 -84.5t-92.5 -62t-131 -23.5q-170 0 -327 127z" />
<glyph horiz-adv-x="915" d="M-37 154l187 249q70 -50 142.5 -86t119.5 -36q63 0 63 53q0 19 -17 40t-37 35.5t-61.5 42.5t-66.5 46q-108 82 -153.5 162.5t-45.5 175.5q0 74 23.5 137.5t70.5 113.5t123.5 78.5t175.5 28.5q118 0 236.5 -38.5t204.5 -94.5l-189 -252q-152 84 -227 84q-28 0 -49 -13 t-21 -40q0 -25 24 -49t84.5 -65t82.5 -58q196 -145 196 -326q0 -68 -24.5 -130t-72 -114.5t-128.5 -84t-184 -31.5q-235 0 -457 172zM147 -553l121 168h-92l47 276h221l-47 -311l-211 -217z" />
<glyph horiz-adv-x="1001" d="M44.5 314q0.5 66 14.5 147l127 715h320l-137 -777q-4 -31 -4.5 -56t17 -40.5t56.5 -15.5q58 0 83 29.5t34 82.5l137 777h322l-131 -738q-14 -84 -31 -144.5t-51 -123t-81.5 -101t-123 -63t-174.5 -24.5q-107 0 -182.5 26t-116.5 69t-60 107t-18.5 130zM338 1542h330 l125 -293h-258z" />
<glyph horiz-adv-x="1001" d="M44.5 314q0.5 66 14.5 147l127 715h320l-137 -777q-4 -31 -4.5 -56t17 -40.5t56.5 -15.5q58 0 83 29.5t34 82.5l137 777h322l-131 -738q-14 -84 -31 -144.5t-51 -123t-81.5 -101t-123 -63t-174.5 -24.5q-107 0 -182.5 26t-116.5 69t-60 107t-18.5 130zM334 1249l170 293 h266l-244 -293h-192zM641 1249l172 293h264l-241 -293h-195z" />
<glyph horiz-adv-x="915" d="M-37 154l187 249q70 -50 142.5 -86t119.5 -36q63 0 63 53q0 19 -17 40t-37 35.5t-61.5 42.5t-66.5 46q-108 82 -153.5 162.5t-45.5 175.5q0 74 23.5 137.5t70.5 113.5t123.5 78.5t175.5 28.5q118 0 236.5 -38.5t204.5 -94.5l-189 -252q-152 84 -227 84q-28 0 -49 -13 t-21 -40q0 -25 24 -49t84.5 -65t82.5 -58q196 -145 196 -326q0 -68 -24.5 -130t-72 -114.5t-128.5 -84t-184 -31.5q-235 0 -457 172zM262 1249l215 293h293l107 -293h-207l-64 137l-108 -137h-236z" />
<glyph horiz-adv-x="915" d="M-37 154l187 249q70 -50 142.5 -86t119.5 -36q63 0 63 53q0 19 -17 40t-37 35.5t-61.5 42.5t-66.5 46q-108 82 -153.5 162.5t-45.5 175.5q0 74 23.5 137.5t70.5 113.5t123.5 78.5t175.5 28.5q118 0 236.5 -38.5t204.5 -94.5l-189 -252q-152 84 -227 84q-28 0 -49 -13 t-21 -40q0 -25 24 -49t84.5 -65t82.5 -58q196 -145 196 -326q0 -64 -21.5 -123t-63.5 -109.5t-112.5 -84.5t-160.5 -41q21 -60 21 -127q0 -121 -65 -183.5t-151 -62.5q-92 0 -147 47l94 176q30 -22 58 -22q63 0 63 90q0 44 -14 86q-191 26 -367 166z" />
<glyph horiz-adv-x="641" d="M-84 -307l158 895h221l-55 -314q95 78 174 78q149 0 110 -211l-80 -448h-219l70 391q7 29 6.5 53.5t-16.5 24.5q-36 0 -74 -51l-74 -418h-221z" />
<glyph horiz-adv-x="915" d="M-37 154l187 249q70 -50 142.5 -86t119.5 -36q63 0 63 53q0 19 -17 40t-37 35.5t-61.5 42.5t-66.5 46q-108 82 -153.5 162.5t-45.5 175.5q0 74 23.5 137.5t70.5 113.5t123.5 78.5t175.5 28.5q118 0 236.5 -38.5t204.5 -94.5l-189 -252q-152 84 -227 84q-28 0 -49 -13 t-21 -40q0 -25 24 -49t84.5 -65t82.5 -58q196 -145 196 -326q0 -68 -24.5 -130t-72 -114.5t-128.5 -84t-184 -31.5q-235 0 -457 172zM313 1542h205l66 -137l110 137h232l-211 -293h-297z" />
<glyph horiz-adv-x="749" d="M-40.5 -82q0.5 48 11.5 107l99 528h227l-104 -567q-11 -35 0 -61.5t53 -26.5t61.5 23t28.5 65l104 567h228l-101 -543q-11 -61 -24 -105t-38 -89.5t-59 -73.5t-88.5 -46t-126.5 -18q-77 0 -132 19t-84.5 50t-42.5 77t-12.5 94z" />
<glyph horiz-adv-x="915" d="M-37 154l187 249q70 -50 142.5 -86t119.5 -36q63 0 63 53q0 19 -17 40t-37 35.5t-61.5 42.5t-66.5 46q-108 82 -153.5 162.5t-45.5 175.5q0 74 23.5 137.5t70.5 113.5t123.5 78.5t175.5 28.5q118 0 236.5 -38.5t204.5 -94.5l-189 -252q-152 84 -227 84q-28 0 -49 -13 t-21 -40q0 -25 24 -49t84.5 -65t82.5 -58q196 -145 196 -326q0 -68 -24.5 -130t-72 -114.5t-128.5 -84t-184 -31.5q-235 0 -457 172zM369 1249l231 293h358l-303 -293h-286z" />
<glyph horiz-adv-x="915" d="M-37 154l187 249q70 -50 142.5 -86t119.5 -36q63 0 63 53q0 19 -17 40t-37 35.5t-61.5 42.5t-66.5 46q-108 82 -153.5 162.5t-45.5 175.5q0 74 23.5 137.5t70.5 113.5t123.5 78.5t175.5 28.5q118 0 236.5 -38.5t204.5 -94.5l-189 -252q-152 84 -227 84q-28 0 -49 -13 t-21 -40q0 -25 24 -49t84.5 -65t82.5 -58q196 -145 196 -326q0 -68 -24.5 -130t-72 -114.5t-128.5 -84t-184 -31.5q-235 0 -457 172z" />
<glyph horiz-adv-x="745" d="M119 788l151 861h271q293 0 293 -213q0 -29 -4 -58.5t-17 -69t-34 -72.5t-59.5 -65t-88.5 -51l92 -332h-238l-71 304h-13l-57 -304h-225zM434 1290h45q48 0 77.5 19t37.5 40t8 44q0 32 -22 44.5t-68 12.5h-49z" />
<glyph horiz-adv-x="743" d="M-76 -307l152 860h270q293 0 293 -213q0 -38 -7.5 -76.5t-27 -85.5t-63 -88t-105.5 -65l92 -332h-237l-72 303h-12l-57 -303h-226zM240 195h45q69 0 96 32t27 70q0 32 -22.5 44.5t-68.5 12.5h-49z" />
<glyph horiz-adv-x="997" d="M-14 0l207 1176h378q73 0 132.5 -9.5t101 -25.5t72.5 -39.5t49.5 -48.5t29.5 -55.5t15 -57.5t4 -57q0 -39 -5 -78.5t-23 -93t-47 -98.5t-81.5 -88.5t-122.5 -69.5l129 -455h-333l-99 414h-12l-74 -414h-321zM182 -553l121 168h-92l47 276h221l-47 -311l-211 -217z M428 690h57q50 0 85.5 14t51.5 37t22.5 43.5t6.5 40.5q0 40 -29.5 57t-91.5 17h-65z" />
<glyph horiz-adv-x="995" d="M-14 0l207 1176h378q73 0 132.5 -9.5t101 -25.5t72.5 -39.5t49.5 -48.5t29.5 -55.5t15 -57.5t4 -57q0 -39 -5 -78.5t-23 -93t-47 -98.5t-81.5 -88.5t-122.5 -69.5l129 -455h-333l-99 414h-12l-74 -414h-321zM371 1542h204l66 -137l111 137h231l-211 -293h-297zM428 690 h57q50 0 85.5 14t51.5 37t22.5 43.5t6.5 40.5q0 40 -29.5 57t-91.5 17h-65z" />
<glyph horiz-adv-x="997" d="M-14 0l207 1176h378q73 0 132.5 -9.5t101 -25.5t72.5 -39.5t49.5 -48.5t29.5 -55.5t15 -57.5t4 -57q0 -39 -5 -78.5t-23 -93t-47 -98.5t-81.5 -88.5t-122.5 -69.5l129 -455h-333l-99 414h-12l-74 -414h-321zM426 1249l231 293h359l-303 -293h-287zM428 690h57 q50 0 85.5 14t51.5 37t22.5 43.5t6.5 40.5q0 40 -29.5 57t-91.5 17h-65z" />
<glyph horiz-adv-x="380" d="M-78 -307l113 645h221l-115 -645h-219zM43 399l33 187h225l-33 -187h-225z" />
<glyph horiz-adv-x="997" d="M-14 0l207 1176h378q73 0 132.5 -9.5t101 -25.5t72.5 -39.5t49.5 -48.5t29.5 -55.5t15 -57.5t4 -57q0 -39 -5 -78.5t-23 -93t-47 -98.5t-81.5 -88.5t-122.5 -69.5l129 -455h-333l-99 414h-12l-74 -414h-321zM428 690h57q50 0 85.5 14t51.5 37t22.5 43.5t6.5 40.5 q0 40 -29.5 57t-91.5 17h-65z" />
<glyph horiz-adv-x="782" d="M150 1116q0 45 7 97t22 116t45 121.5t70.5 106t103.5 77.5t139 29q66 0 120.5 -19t97.5 -58t67 -106.5t24 -158.5q0 -52 -9 -113t-29.5 -132t-61 -136t-95.5 -106l88 -115l-180 -139l-113 194q-134 3 -215 86t-81 256zM381 1098q0 -42 18.5 -74.5t65.5 -32.5 q42 0 74 46.5t47.5 111t22.5 115t7 75.5q0 41 -19.5 73t-66.5 32q-42 0 -74 -46.5t-46.5 -111t-21.5 -114t-7 -74.5z" />
<glyph horiz-adv-x="1001" d="M44.5 314q0.5 66 14.5 147l127 715h320l-137 -777q-4 -31 -4.5 -56t17 -40.5t56.5 -15.5q58 0 83 29.5t34 82.5l137 777h322l-131 -738q-14 -84 -31 -144.5t-51 -123t-81.5 -101t-123 -63t-174.5 -24.5q-107 0 -182.5 26t-116.5 69t-60 107t-18.5 130zM383 1300l37 216 h467l-37 -216h-467z" />
<glyph horiz-adv-x="1001" d="M46.5 322q1.5 63 14.5 139l127 715h320l-137 -777q-4 -31 -4.5 -56t17 -40.5t56.5 -15.5q58 0 83 29.5t34 82.5l137 777h322l-131 -738q-12 -70 -25.5 -122.5t-38 -108t-57 -94t-83 -69.5t-114.5 -46q-7 -7 -35.5 -33t-42.5 -40.5t-34.5 -38.5t-29.5 -46t-9 -43 q0 -15 5.5 -25.5t13 -15.5t19.5 -8t19 -3t18.5 0.5t12.5 0.5l-60 -158q-1 0 -17 -0.5t-27 0t-32 2t-36.5 6t-35.5 11.5t-34 20t-27 29.5t-19.5 41t-6.5 54.5q0 133 153 234q-90 7 -153.5 36t-98 72t-50 104t-14 124z" />
<glyph horiz-adv-x="784" d="M-43 20q0 45 7 97t22 116t45 121.5t70.5 106t103.5 77.5t139 29q66 0 120.5 -19t97.5 -58t67 -106.5t24 -158.5q0 -53 -9 -113.5t-29 -131.5t-60.5 -136t-95.5 -106l88 -115l-180 -139l-113 194q-134 3 -215.5 86t-81.5 256zM188 2q0 -42 18.5 -74t65.5 -32 q42 0 74.5 46.5t47.5 111t22.5 115t7.5 75.5q0 41 -19.5 72.5t-66.5 31.5q-42 0 -74 -46.5t-47 -111t-22 -114t-7 -74.5z" />
<glyph horiz-adv-x="591" d="M-63 -74q0 192 87 309t242 117q92 0 146.5 -51t54.5 -137q0 -58 -18 -101t-44 -65.5t-65.5 -36t-72 -17t-74.5 -3.5h-37v-11q0 -71 41 -71q40 0 153 61l62 -164q-39 -23 -120.5 -50.5t-156.5 -27.5q-92 0 -145 59.5t-53 188.5zM166 66h27q36 0 58.5 21t22.5 60 q0 33 -30 33q-56 0 -78 -114z" />
<glyph horiz-adv-x="1062" d="M47 453q0 53 6.5 112.5t23 132.5t42 141t67.5 133.5t95.5 114t130 78t166.5 29.5q93 0 168.5 -25.5t136 -79.5t94 -147t33.5 -219q0 -72 -13 -154.5t-41 -177.5t-83 -182.5t-130 -142.5l119 -156l-250 -197l-155 269q-89 3 -161 30.5t-129 81.5t-88.5 145.5t-31.5 213.5z M369 424q0 -17 2.5 -34t10 -36t20 -33.5t34 -24t49.5 -9.5q56 0 99 62t64 148t30.5 152.5t9.5 100.5q0 22 -5 43.5t-16.5 44.5t-36 37t-59.5 14q-46 0 -83 -42.5t-58.5 -102t-36 -128.5t-19.5 -117.5t-5 -74.5z" />
<glyph horiz-adv-x="710" d="M119 788l151 861h252q74 0 128.5 -15t85 -37.5t48.5 -55.5t23.5 -62t5.5 -64q0 -162 -100.5 -255t-296.5 -93h-17l-53 -279h-227zM432 1274h25q63 0 93 31t30 71q0 34 -22 48t-69 14h-28z" />
<glyph horiz-adv-x="708" d="M-76 -307l152 860h252q74 0 128.5 -15t84.5 -37.5t48 -55.5t23.5 -62t5.5 -64q0 -162 -100.5 -255t-296.5 -93h-16l-53 -278h-228zM238 178h24q63 0 93 31.5t30 71.5q0 34 -21.5 47.5t-68.5 13.5h-29z" />
<glyph horiz-adv-x="385" d="M-205 -414q80 36 100 58t31 82l107 612h219l-105 -592q-7 -40 -11.5 -61t-12 -52t-15 -47.5t-20 -39.5t-27.5 -36.5t-36 -30.5t-48 -29t-61 -24.5t-76 -23.5zM39 399l33 187h225l-33 -187h-225z" />
<glyph horiz-adv-x="1064" d="M18 334q0 278 304 448q-111 117 -111 269q0 174 122 289.5t329 115.5q180 0 272 -90t92 -236q0 -122 -60.5 -208t-162.5 -152q164 -137 164 -336q0 -96 -34.5 -178.5t-99.5 -145t-166.5 -98t-228.5 -35.5q-213 0 -316.5 96.5t-103.5 260.5zM379 383q0 -113 96 -113 q65 0 103 48.5t38 123.5q0 98 -81 176q-156 -102 -156 -235zM530 1047q0 -70 60 -127q112 76 112 172q0 82 -69 82q-50 0 -76.5 -39t-26.5 -88z" />
<glyph horiz-adv-x="958" d="M-14 0l207 1176h354q101 0 175.5 -21t116.5 -52t67 -76.5t32.5 -85t7.5 -87.5q0 -220 -139.5 -349.5t-411.5 -129.5h-22l-66 -375h-321zM424 668h29q87 0 126 40.5t39 92.5q0 45 -26.5 61.5t-91.5 16.5h-39z" />
<glyph horiz-adv-x="1062" d="M45 453q0 53 6 112.5t23 132.5t42 141t67.5 133.5t95.5 114t129.5 78t166.5 29.5q93 0 169.5 -25.5t137.5 -79.5t94.5 -147t33.5 -219q0 -53 -6.5 -112.5t-23.5 -132.5t-42.5 -141t-68 -133.5t-96 -114t-130 -78t-166.5 -29.5q-93 0 -169 25.5t-136.5 79.5t-93.5 147 t-33 219zM354 1352q33 57 50.5 84.5t48 64.5t62 52.5t69.5 15.5q34 0 72.5 -24t70.5 -48t51 -24q38 0 96 96l119 -99q-28 -49 -40 -68.5t-37.5 -55.5t-45 -51.5t-48 -28.5t-60.5 -13q-26 0 -56 15t-52 33.5t-45 33.5t-38 15q-40 0 -96 -99zM369 424q0 -17 2.5 -34t10 -36 t20 -33.5t34 -24t49.5 -9.5q45 0 82 42.5t58 102t36 128.5t20 117t5 73q0 22 -5 43.5t-16.5 44.5t-36 37t-59.5 14q-45 0 -82 -42.5t-58 -102t-35.5 -128.5t-19.5 -117.5t-5 -74.5z" />
<glyph horiz-adv-x="782" d="M150 1116q0 45 7 97t22 116t45 121.5t70.5 106t103.5 77.5t139 29q66 0 120.5 -19t97.5 -58t67 -106.5t24 -158.5q0 -56 -9 -120t-35.5 -142t-67.5 -139.5t-112 -103.5t-161 -42q-140 0 -225.5 82.5t-85.5 259.5zM381 1098q0 -42 18.5 -74.5t65.5 -32.5q42 0 74 46.5 t47.5 111t22.5 115t7 75.5q0 41 -19.5 73t-66.5 32q-41 0 -73 -46.5t-47 -111t-22 -114t-7 -74.5z" />
<glyph horiz-adv-x="638" d="M-84 -307l158 895h221l-72 -408l99 158h251l-219 -262l127 -383h-227l-53 198l-37 -47l-27 -151h-221z" />
<glyph horiz-adv-x="681" d="M109 788l157 895h221l-71 -407l98 158h252l-219 -263l127 -383h-228l-53 199l-37 -47l-26 -152h-221z" />
<glyph horiz-adv-x="1064" d="M-23 0l132 168q-64 112 -64 285q0 53 6 112.5t23 132.5t42 141t67.5 133.5t95.5 114t129.5 78t166.5 29.5q162 0 269 -74l43 56h205l-140 -181q58 -110 58 -272q0 -53 -6.5 -112.5t-23.5 -132.5t-42.5 -141t-68 -133.5t-96 -114t-130 -78t-166.5 -29.5q-152 0 -256 65 l-37 -47h-207zM375 514l270 348q-30 27 -76 27q-43 0 -79 -37.5t-58 -99.5t-35.5 -119.5t-21.5 -118.5zM418 305q24 -18 67 -18q41 0 75.5 34t56 90.5t35 111t22.5 114.5zM449 1249l231 293h358l-303 -293h-286z" />
<glyph horiz-adv-x="1050" d="M12 334q0 278 303 448q-110 116 -110 269q0 174 121.5 289.5t328.5 115.5q180 0 272.5 -90.5t92.5 -235.5q0 -122 -60.5 -208t-162.5 -152q164 -137 164 -336q0 -96 -34.5 -178.5t-99.5 -145t-166.5 -98t-228.5 -35.5q-213 0 -316.5 96.5t-103.5 260.5zM373 383 q0 -113 96 -113q65 0 103 48.5t38 123.5q0 97 -82 176q-155 -102 -155 -235zM524 1047q0 -70 60 -127q112 76 112 172q0 82 -69 82q-50 0 -76.5 -39t-26.5 -88z" />
<glyph horiz-adv-x="1062" d="M45 453q0 53 6 112.5t23 132.5t42 141t67.5 133.5t95.5 114t129.5 78t166.5 29.5q93 0 169.5 -25.5t137.5 -79.5t94.5 -147t33.5 -219q0 -53 -6.5 -112.5t-23.5 -132.5t-42.5 -141t-68 -133.5t-96 -114t-130 -78t-166.5 -29.5q-93 0 -169 25.5t-136.5 79.5t-93.5 147 t-33 219zM369 424q0 -17 2.5 -34t10 -36t20 -33.5t34 -24t49.5 -9.5q45 0 82 42.5t58 102t36 128.5t20 117t5 73q0 22 -5 43.5t-16.5 44.5t-36 37t-59.5 14q-45 0 -82 -42.5t-58 -102t-35.5 -128.5t-19.5 -117.5t-5 -74.5zM420 1300l37 216h467l-37 -216h-467z" />
<glyph horiz-adv-x="780" d="M-45 20q0 45 7 97t22 116t45 121.5t70.5 106t103.5 77.5t139 29q66 0 120.5 -19t97.5 -58t67 -106.5t24 -158.5q0 -56 -9 -120t-35.5 -142t-67.5 -139.5t-112 -103.5t-161 -42q-140 0 -225.5 82.5t-85.5 259.5zM186 2q0 -42 18.5 -74t65.5 -32q42 0 74.5 46.5t47.5 111 t22.5 115t7.5 75.5q0 41 -19.5 72.5t-66.5 31.5q-41 0 -73 -46.5t-47 -111t-22.5 -114.5t-7.5 -74z" />
<glyph horiz-adv-x="1062" d="M45 453q0 53 6 112.5t23 132.5t42 141t67.5 133.5t95.5 114t129.5 78t166.5 29.5q93 0 169.5 -25.5t137.5 -79.5t94.5 -147t33.5 -219q0 -53 -6.5 -112.5t-23.5 -132.5t-42.5 -141t-68 -133.5t-96 -114t-130 -78t-166.5 -29.5q-93 0 -169 25.5t-136.5 79.5t-93.5 147 t-33 219zM369 424q0 -17 2.5 -34t10 -36t20 -33.5t34 -24t49.5 -9.5q45 0 82 42.5t58 102t36 128.5t20 117t5 73q0 22 -5 43.5t-16.5 44.5t-36 37t-59.5 14q-45 0 -82 -42.5t-58 -102t-35.5 -128.5t-19.5 -117.5t-5 -74.5zM373 1249l170 293h266l-244 -293h-192zM680 1249 l172 293h264l-242 -293h-194z" />
<glyph horiz-adv-x="1062" d="M45 453q0 53 6 112.5t23 132.5t42 141t67.5 133.5t95.5 114t129.5 78t166.5 29.5q93 0 169.5 -25.5t137.5 -79.5t94.5 -147t33.5 -219q0 -53 -6.5 -112.5t-23.5 -132.5t-42.5 -141t-68 -133.5t-96 -114t-130 -78t-166.5 -29.5q-93 0 -169 25.5t-136.5 79.5t-93.5 147 t-33 219zM369 424q0 -17 2.5 -34t10 -36t20 -33.5t34 -24t49.5 -9.5q45 0 82 42.5t58 102t36 128.5t20 117t5 73q0 22 -5 43.5t-16.5 44.5t-36 37t-59.5 14q-45 0 -82 -42.5t-58 -102t-35.5 -128.5t-19.5 -117.5t-5 -74.5zM375 1542h330l124 -293h-258z" />
<glyph horiz-adv-x="684" d="M76 776q0 166 184 268q-65 65 -65 158q0 105 76.5 175.5t205.5 70.5q114 0 172 -55t58 -146q0 -127 -134 -211q99 -80 99 -200t-87.5 -198.5t-246.5 -78.5q-132 0 -197 59t-65 158zM307 809q0 -59 55 -59q39 0 61.5 26t22.5 66q0 56 -49 98q-90 -58 -90 -131zM399 1198 q0 -38 33 -68q66 42 66 93q0 41 -39 41q-28 0 -44 -20.5t-16 -45.5z" />
<glyph horiz-adv-x="374" d="M-86 -307l158 895h221l-158 -895h-221z" />
<glyph horiz-adv-x="684" d="M-25 203q0 165 185 268q-66 66 -66 158q0 105 76.5 175t206.5 70q114 0 171.5 -54.5t57.5 -145.5q0 -128 -133 -211q98 -80 98 -201q0 -120 -87 -198t-246 -78q-132 0 -197.5 59t-65.5 158zM207 236q0 -60 55 -60q39 0 61.5 26t22.5 66q0 57 -49 99q-90 -58 -90 -131z M299 625q0 -38 33 -68q65 42 65 92q0 41 -39 41q-28 0 -43.5 -20t-15.5 -45z" />
<glyph horiz-adv-x="837" d="M-35 0l41 238q4 1 11.5 3.5t28.5 13t40 24t41 37t37 51.5h-119l27 145h123l-7 51h-108l26 148h54q-10 58 -10 118q0 171 80 268t231 97q62 0 123 -17t112 -45.5t88.5 -55t69.5 -56.5l-166 -205q-103 82 -158 82q-34 0 -50.5 -25t-16.5 -59q0 -41 14 -102h232l-27 -148 h-182v-6q0 -31 -2 -45h176l-25 -145h-192q-24 -50 -54 -70h306l-54 -297h-690z" />
<glyph horiz-adv-x="606" d="M-100 -307l28 170q3 1 8.5 3t21 10t29.5 18.5t30 30t26 42.5h-86l16 99h88q0 12 -4 40h-75l16 101h41q-8 36 -8 92q0 125 57.5 196.5t163.5 71.5q148 0 280 -127l-114 -147q-71 61 -117 61q-49 0 -49 -65q0 -24 12 -82h164l-16 -101h-133v-6q0 -19 -3 -34h127l-16 -99 h-135q-15 -39 -43 -63h217l-37 -211h-489z" />
<glyph horiz-adv-x="606" d="M92 788l29 170q3 1 8.5 3t21 10.5t29.5 19t30 30t26 42.5h-86l16 98h88q0 13 -4 41h-76l16 101h41q-8 36 -8 92q0 125 57.5 196.5t163.5 71.5q149 0 281 -127l-115 -147q-71 61 -116 61q-26 0 -38 -19t-12 -47q0 -18 13 -81h164l-17 -101h-133v-6q0 -25 -2 -35h127 l-16 -98h-136q-16 -41 -43 -64h217l-36 -211h-490z" />
<glyph horiz-adv-x="1062" d="M45 453q0 53 6 112.5t23 132.5t42 141t67.5 133.5t95.5 114t129.5 78t166.5 29.5q93 0 169.5 -25.5t137.5 -79.5t94.5 -147t33.5 -219q0 -53 -6.5 -112.5t-23.5 -132.5t-42.5 -141t-68 -133.5t-96 -114t-130 -78t-166.5 -29.5q-93 0 -169 25.5t-136.5 79.5t-93.5 147 t-33 219zM369 424q0 -17 2.5 -34t10 -36t20 -33.5t34 -24t49.5 -9.5q45 0 82 42.5t58 102t36 128.5t20 117t5 73q0 22 -5 43.5t-16.5 44.5t-36 37t-59.5 14q-45 0 -82 -42.5t-58 -102t-35.5 -128.5t-19.5 -117.5t-5 -74.5zM387 1272l47 266h236l-47 -266h-236zM682 1272 l47 266h234l-48 -266h-233z" />
<glyph horiz-adv-x="1062" d="M45 453q0 53 6 112.5t23 132.5t42 141t67.5 133.5t95.5 114t129.5 78t166.5 29.5q93 0 169.5 -25.5t137.5 -79.5t94.5 -147t33.5 -219q0 -53 -6.5 -112.5t-23.5 -132.5t-42.5 -141t-68 -133.5t-96 -114t-130 -78t-166.5 -29.5q-93 0 -169 25.5t-136.5 79.5t-93.5 147 t-33 219zM338 1249l215 293h293l106 -293h-207l-63 137l-109 -137h-235zM369 424q0 -17 2.5 -34t10 -36t20 -33.5t34 -24t49.5 -9.5q45 0 82 42.5t58 102t36 128.5t20 117t5 73q0 22 -5 43.5t-16.5 44.5t-36 37t-59.5 14q-45 0 -82 -42.5t-58 -102t-35.5 -128.5 t-19.5 -117.5t-5 -74.5z" />
<glyph horiz-adv-x="1001" d="M44.5 314q0.5 66 14.5 147l127 715h320l-137 -777q-4 -31 -4.5 -56t17 -40.5t56.5 -15.5q58 0 83 29.5t34 82.5l137 777h322l-131 -738q-14 -84 -31 -144.5t-51 -123t-81.5 -101t-123 -63t-174.5 -24.5q-107 0 -182.5 26t-116.5 69t-60 107t-18.5 130zM422 1442 q0 88 62 150.5t151 62.5q88 0 149.5 -62.5t61.5 -150.5q0 -89 -61.5 -151t-149.5 -62q-89 0 -151 62t-62 151zM573 1442q0 -26 18 -44t44 -18q25 0 43 18t18 44q0 25 -18 43t-43 18q-26 0 -44 -18t-18 -43z" />
<glyph horiz-adv-x="1062" d="M45 453q0 53 6 112.5t23 132.5t42 141t67.5 133.5t95.5 114t129.5 78t166.5 29.5q93 0 169.5 -25.5t137.5 -79.5t94.5 -147t33.5 -219q0 -53 -6.5 -112.5t-23.5 -132.5t-42.5 -141t-68 -133.5t-96 -114t-130 -78t-166.5 -29.5q-93 0 -169 25.5t-136.5 79.5t-93.5 147 t-33 219zM369 424q0 -17 2.5 -34t10 -36t20 -33.5t34 -24t49.5 -9.5q45 0 82 42.5t58 102t36 128.5t20 117t5 73q0 22 -5 43.5t-16.5 44.5t-36 37t-59.5 14q-45 0 -82 -42.5t-58 -102t-35.5 -128.5t-19.5 -117.5t-5 -74.5zM420 1522h190q-4 -34 12.5 -55t47.5 -21 q47 0 76 21t32 55h193q-23 -127 -106 -200t-208 -73q-134 0 -196 76t-41 197z" />
<glyph horiz-adv-x="763" d="M158.5 1013q0.5 48 11.5 107l98 529h228l-105 -568q-11 -35 0 -61.5t53 -26.5t62 23t29 65l104 568h227l-100 -543q-11 -61 -24 -105t-38 -89.5t-59 -73.5t-88.5 -46t-126.5 -18q-77 0 -132 19t-84.5 49.5t-42.5 76.5t-12.5 94z" />
<glyph horiz-adv-x="1062" d="M45 453q0 53 6 112.5t23 132.5t42 141t67.5 133.5t95.5 114t129.5 78t166.5 29.5q93 0 169.5 -25.5t137.5 -79.5t94.5 -147t33.5 -219q0 -53 -6.5 -112.5t-23.5 -132.5t-42.5 -141t-68 -133.5t-96 -114t-130 -78t-166.5 -29.5q-93 0 -169 25.5t-136.5 79.5t-93.5 147 t-33 219zM369 424q0 -17 2.5 -34t10 -36t20 -33.5t34 -24t49.5 -9.5q45 0 82 42.5t58 102t36 128.5t20 117t5 73q0 22 -5 43.5t-16.5 44.5t-36 37t-59.5 14q-45 0 -82 -42.5t-58 -102t-35.5 -128.5t-19.5 -117.5t-5 -74.5zM444 1249l232 293h358l-303 -293h-287z" />
<glyph horiz-adv-x="1456" d="M45 453q0 53 6 112.5t23 132.5t42 141t67.5 133.5t95.5 114t129.5 78t166.5 29.5q121 0 207 -41l4 23h701l-55 -304h-379l-23 -137h301l-53 -295h-299l-25 -137h379l-53 -303h-670q-62 -18 -133 -18q-93 0 -169 25.5t-136.5 79.5t-93.5 147t-33 219zM369 424 q0 -17 2.5 -34t10 -36t20 -33.5t34 -24t49.5 -9.5q45 0 82 42.5t58 102t36 128.5t20 117t5 73q0 22 -5 43.5t-16.5 44.5t-36 37t-59.5 14q-45 0 -82 -42.5t-58 -102t-35.5 -128.5t-19.5 -117.5t-5 -74.5z" />
<glyph horiz-adv-x="917" d="M-94 -307l114 645h220l-15 -74q80 88 164 88q48 0 75.5 -27.5t33.5 -76.5q30 41 76.5 72.5t99.5 31.5q70 0 97 -55.5t9 -146.5l-80 -457h-221l74 416q5 23 3 38t-15 15q-27 0 -56 -49l-73 -420h-219l71 416q6 23 3 38t-15 15q-25 0 -53 -47l-74 -422h-219z" />
<glyph horiz-adv-x="1001" d="M44.5 314q0.5 66 14.5 147l127 715h320l-137 -777q-4 -31 -4.5 -56t17 -40.5t56.5 -15.5q58 0 83 29.5t34 82.5l137 777h322l-131 -738q-14 -84 -31 -144.5t-51 -123t-81.5 -101t-123 -63t-174.5 -24.5q-107 0 -182.5 26t-116.5 69t-60 107t-18.5 130zM317 1352 q33 57 50.5 84.5t48 64.5t62 52.5t69.5 15.5q34 0 72.5 -24t70.5 -48t51 -24q39 0 97 96l118 -99q-28 -49 -40 -68.5t-37.5 -55.5t-45 -51.5t-48 -28.5t-60.5 -13q-33 0 -71 24t-69.5 48.5t-49.5 24.5q-41 0 -97 -99z" />
<glyph horiz-adv-x="989" d="M111 1176h350v-715l254 715h354l-510 -1176h-350z" />
<glyph horiz-adv-x="1062" d="M45 453q0 53 6 112.5t23 132.5t42 141t67.5 133.5t95.5 114t129.5 78t166.5 29.5q93 0 169.5 -25.5t137.5 -79.5t94.5 -147t33.5 -219q0 -53 -6.5 -112.5t-23.5 -132.5t-42.5 -141t-68 -133.5t-96 -114t-130 -78t-166.5 -29.5q-93 0 -169 25.5t-136.5 79.5t-93.5 147 t-33 219zM369 424q0 -17 2.5 -34t10 -36t20 -33.5t34 -24t49.5 -9.5q45 0 82 42.5t58 102t36 128.5t20 117t5 73q0 22 -5 43.5t-16.5 44.5t-36 37t-59.5 14q-45 0 -82 -42.5t-58 -102t-35.5 -128.5t-19.5 -117.5t-5 -74.5z" />
<glyph horiz-adv-x="1034" d="M-14 0l207 1176h321l104 -560l99 560h319l-207 -1176h-321l-105 551l-96 -551h-321zM344 1352q27 47 39.5 68t38 56.5t45 51t47.5 28.5t59 13q34 0 73 -24t71 -48t51 -24q38 0 96 96l119 -99q-28 -49 -40 -68.5t-37.5 -55.5t-45 -51.5t-48 -28.5t-60.5 -13q-26 0 -56 15 t-52 33.5t-45 33.5t-38 15q-40 0 -96 -99z" />
<glyph horiz-adv-x="782" d="M119 788l151 861h230l75 -414l74 414h228l-150 -861h-229l-78 418l-74 -418h-227z" />
<glyph horiz-adv-x="782" d="M-76 -307l152 860h229l76 -414l74 414h227l-150 -860h-229l-78 418l-73 -418h-228z" />
<glyph horiz-adv-x="1034" d="M-14 0l207 1176h321l104 -560l99 560h319l-207 -1176h-321l-105 551l-96 -551h-321zM201 -553l121 168h-93l47 276h222l-47 -311l-211 -217z" />
<glyph horiz-adv-x="1034" d="M-14 0l207 1176h321l104 -560l99 560h319l-207 -1176h-321l-105 551l-96 -551h-321zM379 1542h205l65 -137l111 137h231l-211 -293h-297z" />
<glyph horiz-adv-x="1034" d="M-14 0l207 1176h321l104 -560l99 560h319l-207 -1176h-321l-105 551l-96 -551h-321zM516 1249l232 293h358l-303 -293h-287z" />
<glyph horiz-adv-x="1034" d="M-14 0l207 1176h321l104 -560l99 560h319l-207 -1176h-321l-105 551l-96 -551h-321z" />
<glyph horiz-adv-x="665" d="M-29 23l101 180q26 -8 61 -8q138 0 213 139q-47 -33 -98 -33q-88 0 -138.5 64.5t-50.5 164.5q0 140 80 242t213 102q132 0 204.5 -90.5t72.5 -226.5q0 -103 -34 -203.5t-95.5 -183t-157 -133.5t-207.5 -51q-47 0 -88 9t-59 19zM289 551q0 -68 53 -68q39 0 57 41 q2 14 2 43q0 99 -53 99q-29 0 -44 -34t-15 -81z" />
<glyph horiz-adv-x="704" d="M-4 553h250v-533l188 533h254l-373 -860h-249z" />
<glyph horiz-adv-x="1003" d="M-49 -229l151 280q46 -18 101 -18q123 0 212.5 75t145.5 203q-71 -71 -174 -71q-138 0 -218.5 109t-80.5 274q0 88 20 171t60 155.5t95.5 127t132 86t163.5 31.5q104 0 186.5 -41.5t134 -113t78.5 -164.5t27 -199q0 -138 -34 -276t-101 -261t-159.5 -218t-218 -150.5 t-267.5 -55.5q-74 0 -137.5 14t-89.5 28zM442 651q0 -54 19.5 -90.5t66.5 -36.5q60 0 103 80q4 31 4 88q0 86 -22.5 134t-65.5 48q-51 0 -78 -66t-27 -157z" />
<glyph horiz-adv-x="1067" d="M27 33l151 280q46 -18 101 -18q123 0 212.5 75t145.5 203q-71 -71 -174 -71q-138 0 -218.5 109t-80.5 274q0 88 20 171t60 155.5t95.5 127t132 86t163.5 31.5q104 0 186.5 -41.5t134 -113t78.5 -164.5t27 -199q0 -138 -34 -276t-101 -261t-159.5 -218t-218 -150.5 t-267.5 -55.5q-74 0 -137.5 14t-89.5 28zM518 913q0 -54 19.5 -90.5t66.5 -36.5q60 0 103 80q4 62 4 88q0 87 -22.5 135t-65.5 48q-51 0 -78 -66.5t-27 -157.5z" />
<glyph horiz-adv-x="704" d="M188 1649h250v-533l189 533h254l-373 -861h-250z" />
<glyph horiz-adv-x="1323" d="M121 1176h354l-29 -553l191 553h229l-4 -547l164 547h367l-447 -1176h-295l2 614l-211 -614h-288z" />
<glyph horiz-adv-x="651" d="M-88 -307l115 645h221l-10 -62q93 76 172 76q149 0 110 -211l-80 -448h-219l70 395q7 25 6.5 49.5t-18.5 24.5q-34 0 -72 -51l-74 -418h-221z" />
<glyph horiz-adv-x="1323" d="M121 1176h354l-29 -553l191 553h229l-4 -547l164 547h367l-447 -1176h-295l2 614l-211 -614h-288zM567 1249l232 293h358l-303 -293h-287z" />
<glyph horiz-adv-x="944" d="M-27 154l187 249q70 -50 142.5 -86t119.5 -36q63 0 63 53q0 19 -17 40t-37 35.5t-61.5 42.5t-66.5 46q-108 82 -153.5 162.5t-45.5 175.5q0 149 93 250t274 108l27 152h215l-31 -177q145 -39 256 -108l-188 -252q-152 84 -228 84q-28 0 -48.5 -13t-20.5 -40 q0 -25 23.5 -49t84.5 -65.5t82 -57.5q197 -146 197 -326q0 -64 -22 -124t-65 -111t-115.5 -84t-164.5 -39l-27 -152h-215l29 170q-146 41 -287 152z" />
<glyph horiz-adv-x="880" d="M119 788l151 861h230l53 -383l190 383h230l-152 -861h-227l68 396l-119 -252h-92l-33 264l-72 -408h-227z" />
<glyph horiz-adv-x="880" d="M-76 -307l152 860h229l53 -383l191 383h229l-151 -860h-228l68 395l-119 -252h-92l-33 264l-71 -407h-228z" />
<glyph horiz-adv-x="940" d="M-14 227l47 256h131l61 207h-104l45 258h135l68 228h229l-68 -228h82l68 228h229l-67 -228h104l-45 -258h-135l-59 -207h104l-45 -256h-135l-66 -227h-231l65 227h-82l-65 -227h-229l65 227h-102zM393 483h82l62 207h-82z" />
<glyph horiz-adv-x="684" d="M-90 -137l31 182h96l45 156h-78l33 184h96l49 168h164l-49 -168h61l50 168h163l-47 -168h76l-33 -184h-94l-45 -156h76l-31 -182h-96l-47 -170h-166l47 170h-61l-48 -170h-163l47 170h-76zM201 45h61l45 156h-61z" />
<glyph horiz-adv-x="686" d="M104 958l31 183h96l45 155h-77l32 185h97l49 168h164l-49 -168h61l49 168h164l-47 -168h76l-33 -185h-94l-45 -155h75l-30 -183h-97l-47 -170h-166l48 170h-62l-47 -170h-164l47 170h-76zM395 1141h62l45 155h-62z" />
<glyph horiz-adv-x="1167" d="M-14 0l207 1176h321l76 -514l258 514h323l-206 -1176h-322l94 541l-164 -344h-127l-45 346l-94 -543h-321z" />
<glyph horiz-adv-x="606" d="M119 788l151 861h228l-115 -643h268l-35 -218h-497z" />
<glyph horiz-adv-x="831" d="M-27 279l56 309l88 55l94 533h321l-55 -308l170 105l-53 -309l-170 -107l-45 -254h371l-56 -303h-690l57 334z" />
<glyph horiz-adv-x="606" d="M-76 -307l152 860h227l-115 -643h269l-35 -217h-498z" />
<glyph horiz-adv-x="817" d="M-14 0l207 1176h321l-154 -873h371l-55 -303h-690zM489 494l52 280h250l-50 -280h-252z" />
<glyph horiz-adv-x="811" d="M-14 0l207 1176h321l-154 -873h371l-55 -303h-690zM123 -553l121 168h-92l47 276h221l-47 -311l-211 -217z" />
<glyph horiz-adv-x="1323" d="M121 1176h354l-29 -553l191 553h229l-4 -547l164 547h367l-447 -1176h-295l2 614l-211 -614h-288zM463 1249l215 293h293l106 -293h-207l-63 137l-109 -137h-235z" />
<glyph horiz-adv-x="813" d="M-14 0l207 1176h321l-154 -873h371l-55 -303h-690zM483 731l121 168h-92l47 277h221l-47 -312l-211 -217z" />
<glyph horiz-adv-x="811" d="M-14 0l207 1176h321l-154 -873h371l-55 -303h-690zM164 1249l231 293h359l-303 -293h-287z" />
<glyph horiz-adv-x="634" d="M-57 -55q0 42 6.5 88t26.5 105t51.5 105t88.5 77.5t130 31.5q31 0 61.5 -5.5t67.5 -23t64.5 -45.5t46 -77.5t18.5 -114.5q0 -42 -6.5 -88t-26.5 -105.5t-51.5 -105t-88.5 -77.5t-130 -32q-31 0 -61.5 5.5t-67.5 23t-64.5 45.5t-46 78t-18.5 115zM160 -82q0 -53 41 -53 t63.5 88.5t22.5 159.5q0 53 -41 53t-63.5 -88.5t-22.5 -159.5z" />
<glyph horiz-adv-x="811" d="M-14 0l207 1176h321l-154 -873h371l-55 -303h-690z" />
<glyph horiz-adv-x="749" d="M119 788l151 861h228l-45 -256l192 256h281l-328 -392l170 -469h-256l-78 271l-51 -62l-37 -209h-227z" />
<glyph horiz-adv-x="559" d="M20 715l224 145h219l-152 -860h-227l111 614l-89 -53z" />
<glyph horiz-adv-x="557" d="M121 1288l223 146h219l-151 -861h-228l111 615l-88 -53z" />
<glyph horiz-adv-x="745" d="M55 940l353 236h335l-206 -1176h-351l142 797l-144 -92z" />
<glyph horiz-adv-x="1064" d="M-23 0l58 324h284l130 731l-152 -99l-131 236l362 242h336l-194 -1110h297l-58 -324h-932z" />
<glyph horiz-adv-x="659" d="M-80 -123q0 51 8.5 110.5t28 125t48 118t74 87t99.5 34.5q42 0 68.5 -17t54.5 -54l55 307h222l-158 -895h-221l10 59q-43 -38 -76.5 -56t-75.5 -18q-41 0 -70 19t-42.5 51.5t-19 63t-5.5 65.5zM141 -74q0 -49 31 -49q30 0 68 55l28 166q-15 56 -41 56q-39 0 -62.5 -87.5 t-23.5 -140.5z" />
<glyph horiz-adv-x="1232" d="M106 1059l187 117h174l-131 -705h-178l96 512l-80 -45zM154 0l612 1176h190l-610 -1176h-192zM606 166q0 138 162 221q-57 57 -57 129q0 87 63.5 144t173.5 57q96 0 143.5 -45t47.5 -119q0 -103 -117 -174q88 -66 88 -164t-74.5 -162.5t-206.5 -64.5q-112 0 -167.5 48.5 t-55.5 129.5zM788 190q0 -51 58 -51q38 0 62 22.5t24 55.5q0 50 -51 90q-93 -51 -93 -117zM872 514q0 -33 35 -61q66 36 66 82q0 38 -39 38q-28 0 -45 -19t-17 -40z" />
<glyph horiz-adv-x="1247" d="M109 1059l186 117h174l-131 -705h-178l96 512l-80 -45zM156 0l612 1176h190l-610 -1176h-192zM616 100l105 127q67 -67 121 -67q36 0 62 26t26 64q0 25 -14.5 43t-45.5 18q-43 0 -92 -37l-88 62l98 369h392l-29 -166h-240l-14 -72q28 4 45 4q86 0 130 -56t44 -141 q0 -114 -71.5 -200t-194.5 -86q-128 0 -234 112z" />
<glyph horiz-adv-x="747" d="M-76 -307l152 860h227l-45 -256l193 256h280l-328 -391l170 -469h-256l-77 270l-52 -61l-36 -209h-228z" />
<glyph horiz-adv-x="1245" d="M106 1059l187 117h174l-131 -705h-178l98 512l-82 -45zM154 0l612 1176h192l-612 -1176h-192zM602 0l16 80q30 159 211 289q106 79 132 109q20 23 20 38q2 14 -8.5 23.5t-32.5 9.5q-52 0 -141 -60l-70 132q122 96 252 96q92 0 139 -49t47 -119q0 -144 -194 -279 q-109 -81 -115 -104h238l-29 -166h-465z" />
<glyph horiz-adv-x="1323" d="M121 1176h354l-29 -553l191 553h229l-4 -547l164 547h367l-447 -1176h-295l2 614l-211 -614h-288zM512 1270l47 266h236l-47 -266h-236zM807 1270l47 266h233l-47 -266h-233z" />
<glyph horiz-adv-x="1005" d="M-14 0l207 1176h321l-59 -340l256 340h391l-451 -537l240 -639h-363l-106 367l-64 -78l-51 -289h-321zM184 -553l121 168h-92l47 276h221l-47 -311l-211 -217z" />
<glyph horiz-adv-x="1220" d="M106 1059l187 117h174l-131 -705h-178l98 512l-82 -45zM154 0l612 1176h192l-612 -1176h-192zM539 121l24 137l309 447h240l-78 -420h78l-29 -164h-77l-23 -121h-180l22 121h-286zM735 285h121l45 245z" />
<glyph horiz-adv-x="1251" d="M109 1059l186 117h174l-131 -705h-178l96 512l-80 -45zM156 0l612 1176h190l-610 -1176h-192zM623 248q0 84 29.5 167.5t81.5 150.5t132.5 109t173.5 42q38 0 71.5 -7.5t48.5 -14.5l14 -7l-76 -143q-25 8 -56 8q-124 0 -192 -125q41 29 90 29q76 0 120 -52.5t44 -136.5 q0 -112 -68.5 -196t-181.5 -84q-111 0 -171 74.5t-60 185.5zM803 240q0 -86 53 -86q32 0 48 28.5t16 69.5q0 61 -52 61q-42 0 -65 -39v-34z" />
<glyph horiz-adv-x="1005" d="M-14 0l207 1176h321l-59 -340l256 340h391l-451 -537l240 -639h-363l-106 367l-64 -78l-51 -289h-321z" />
<glyph horiz-adv-x="1323" d="M121 1176h354l-29 -553l191 553h229l-4 -547l164 547h367l-447 -1176h-295l2 614l-211 -614h-288zM500 1542h329l125 -293h-258z" />
<glyph horiz-adv-x="1226" d="M106 1059l187 117h174l-131 -705h-178l96 512l-80 -45zM154 0l612 1176h190l-610 -1176h-192zM600 100l105 119q79 -61 133 -61q34 0 57 18.5t23 46.5q0 64 -117 64h-21l31 164h25q39 0 77.5 15.5t38.5 47.5q0 33 -41 33q-51 0 -135 -51l-59 129q133 92 250 92 q85 0 130.5 -43.5t45.5 -110.5q0 -62 -35 -102t-92 -72q84 -61 84 -153q0 -42 -15 -84t-44.5 -79.5t-79.5 -61t-113 -23.5q-136 0 -248 112z" />
<glyph horiz-adv-x="401" d="M6 727q54 24 79 44.5t32 39t14 61.5l137 777h228l-134 -764q-21 -125 -41 -168q-30 -66 -113 -111q-54 -29 -151 -63z" />
<glyph horiz-adv-x="403" d="M-186 -369q41 18 63.5 32t35.5 32.5t17 33t9 48.5l137 776h227l-133 -764q-21 -125 -41 -168q-30 -66 -113 -111q-54 -29 -151 -63z" />
<glyph horiz-adv-x="505" d="M-170 -82q46 20 75 37t47 31t28.5 37t14.5 39.5t11 54.5l184 1059h322l-182 -1039q-28 -159 -50 -214q-38 -93 -130 -152q-81 -53 -246 -109zM55 1249l215 293h293l107 -293h-207l-64 137l-108 -137h-236z" />
<glyph horiz-adv-x="507" d="M-170 -82q46 20 75 37t47 31t28.5 37t14.5 39.5t11 54.5l184 1059h322l-182 -1039q-28 -159 -50 -214q-38 -93 -130 -152q-81 -53 -246 -109z" />
<glyph horiz-adv-x="950" d="M4 553h256l-22 -406l139 406h164l-4 -410l122 410h265l-328 -860h-211l4 457l-158 -457h-206z" />
<glyph horiz-adv-x="509" d="M-14 0l207 1176h321l-207 -1176h-321zM72 1352q27 47 39.5 68t38 56.5t45 51t47.5 28.5t59 13q34 0 73 -24t71 -48t51 -24q38 0 96 96l119 -99q-20 -34 -28.5 -49t-27 -43.5t-29.5 -42t-30 -32.5t-35.5 -27.5t-37.5 -15.5t-44 -7q-33 0 -71 24t-69.5 48.5t-49.5 24.5 q-40 0 -96 -99z" />
<glyph horiz-adv-x="403" d="M119 788l151 861h228l-152 -861h-227z" />
<glyph horiz-adv-x="507" d="M-61 -248q0 141 178 248h-131l207 1176h321l-207 -1176h-6q-5 -5 -45 -41t-56.5 -54t-35.5 -49.5t-19 -58.5q0 -15 5.5 -25.5t13 -15.5t19.5 -8t19 -3t18.5 0.5t12.5 0.5l-59 -158q-1 0 -17 -0.5t-27 0t-32 2t-36.5 6t-35.5 11.5t-34 20t-27 29.5t-19.5 41t-6.5 54.5z " />
<glyph horiz-adv-x="1085" d="M51 651q0 63 14 130t49.5 139t87.5 128t136 92t188 36h244l-262 -1487h-246l107 602q-145 0 -231.5 95.5t-86.5 264.5zM567 -311l262 1487h246l-262 -1487h-246z" />
<glyph horiz-adv-x="505" d="M-14 0l207 1176h321l-207 -1176h-321zM137 1300l37 216h467l-37 -216h-467z" />
<glyph horiz-adv-x="567" d="M1.5 27.5q1.5 93.5 25.5 230.5l123 688q13 79 21.5 118.5t28 94.5t46.5 83.5t72 63t110.5 58t157.5 45.5l41 -195q-56 -27 -85 -55t-40 -56.5t-21 -84.5l-155 -893q-19 -74 -7 -117t78 -82l-98 -166q-164 46 -231.5 110t-66 157.5z" />
<glyph horiz-adv-x="950" d="M197 1649h256l-23 -406l139 406h164l-4 -410l123 410h264l-328 -861h-210l4 457l-158 -457h-207z" />
<glyph horiz-adv-x="563" d="M127 1010q0 211 79.5 324.5t188.5 113.5q26 0 52.5 -4.5t45 -9t43.5 -15.5t36.5 -16.5t37 -19.5t31.5 -17l-104 -172q-74 43 -103 43q-40 0 -64 -63t-24 -134q0 -55 43 -55q27 0 111 43l57 -188q-145 -66 -233 -66q-87 0 -142 59.5t-55 176.5z" />
<glyph horiz-adv-x="401" d="M-76 -307l152 860h227l-151 -860h-228z" />
<glyph horiz-adv-x="567" d="M-70 -45q80 39 105.5 77t40.5 120l155 892q19 74 7 117t-78 82l98 166q164 -46 231.5 -110t66 -157.5t-25.5 -230.5l-122 -688q-13 -79 -22 -118.5t-28.5 -94t-46.5 -83.5t-72 -63.5t-110.5 -58t-157.5 -45.5z" />
<glyph horiz-adv-x="1384" d="M49 535q0 132 45 250.5t129 210t214.5 145t289.5 53.5q276 0 438 -152.5t162 -400.5q0 -132 -45 -250.5t-129 -210t-214.5 -145t-289.5 -53.5q-276 0 -438 152.5t-162 400.5zM119 535q0 -217 143 -353.5t391 -136.5q139 0 254.5 47t191 128.5t117 189.5t41.5 231 q0 217 -143 353t-391 136q-139 0 -254.5 -47t-191 -128t-117 -189t-41.5 -231zM358 508q-7 104 19.5 189.5t77 140t117.5 84.5t143 30q141 0 289 -112l-58 -56q-26 20 -41.5 31t-47.5 28.5t-68 26.5t-76 9q-119 0 -196 -104.5t-68 -260.5q6 -101 51.5 -159t120.5 -58 q127 0 266 90l49 -61q-51 -31 -85 -48.5t-99 -37t-127 -19.5q-111 0 -186 76t-81 211z" />
<glyph horiz-adv-x="1615" d="M-168 -207q34 15 58 27t44 26t32.5 23.5t24 27t17 28.5t12 35.5t10 41t9.5 51.5l131 748h-98l49 274h96q39 213 123 315.5t227 102.5q102 0 281 -78l14 78h336l-90 -518q68 63 120.5 93t117.5 30q66 0 112 -30t69 -81t32.5 -104t9.5 -115q0 -77 -12 -171.5t-42.5 -206 t-75.5 -202t-119 -151t-165 -60.5q-67 0 -111 29.5t-92 91.5l-16 -98h-336l203 1153q-130 33 -166 33q-61 0 -76 -78l-6 -33h162l-47 -274h-164l-125 -717q-15 -87 -23.5 -127t-25 -99t-36.5 -86.5t-52.5 -66.5t-79 -64t-109.5 -54t-151 -60zM1001 379q26 -100 80 -100 q43 0 77.5 82.5t49.5 172.5t15 150q0 113 -54 113q-48 0 -110 -101z" />
<glyph horiz-adv-x="690" d="M-154 -307l277 438l-115 422h252l31 -229l110 229h263l-265 -420l125 -440h-252l-39 223l-114 -223h-273z" />
<glyph horiz-adv-x="509" d="M-14 0l207 1176h321l-207 -1176h-321zM92 1542h330l125 -293h-258z" />
<glyph horiz-adv-x="1337" d="M80 801q0 27 3 57.5t11.5 69.5t22 75t36 71.5t52 61.5t72.5 42t94 16q30 0 59.5 -4.5t65.5 -20t62.5 -40t44.5 -69t18 -102.5q0 -40 -6 -84.5t-25 -102t-49 -101.5t-84.5 -74.5t-124.5 -30.5q-31 0 -60.5 5t-65.5 20t-63 40t-45 69t-18 102zM223 0l649 1176h226 l-647 -1176h-228zM291 788q0 -17 9 -31t30 -14q37 0 58.5 82t21.5 144q0 47 -37 47q-26 0 -46 -46.5t-28 -96.5t-8 -85zM707 217q0 33 4.5 69.5t15 83t32 87.5t51.5 76.5t78 56t107 20.5q30 0 59.5 -4.5t65.5 -19.5t62.5 -39.5t44.5 -69t18 -102.5q0 -40 -6 -84.5t-25 -102 t-49 -101.5t-84.5 -74.5t-124.5 -30.5q-31 0 -60.5 4.5t-65 20t-61.5 40t-44 68.5t-18 102zM918 207q0 -45 36 -45q20 0 36.5 26.5t26 65t14.5 74t5 59.5q0 18 -9 32.5t-30 14.5q-36 0 -57.5 -82.5t-21.5 -144.5z" />
<glyph horiz-adv-x="948" d="M-35 279q0 30 4.5 62.5t18 74.5t35.5 74t61 54.5t90 22.5q28 0 55.5 -7t57.5 -24.5t48.5 -54t18.5 -88.5q0 -39 -8.5 -81.5t-28.5 -92t-64 -81.5t-106 -32q-29 0 -57 7t-58 24.5t-48.5 54t-18.5 87.5zM68 -307l469 860h161l-469 -860h-161zM117 270q0 -34 28 -34 q27 0 43.5 60.5t16.5 104.5q0 15 -7.5 26t-21.5 11q-28 0 -43.5 -60t-15.5 -108zM416 -147q0 30 4.5 62.5t18 74t35.5 73.5t61 54t90 22q28 0 55.5 -7t57.5 -23.5t48.5 -53t18.5 -88.5q0 -30 -4.5 -63t-18 -75t-35.5 -74t-61 -54.5t-90 -22.5q-22 0 -44 4t-47.5 15.5 t-44.5 30t-31.5 51t-12.5 74.5zM567 -156q0 -37 27 -37q28 0 43.5 60.5t15.5 107.5q0 37 -26 37q-28 0 -44 -60.5t-16 -107.5z" />
<glyph horiz-adv-x="948" d="M160 1374q0 30 4.5 63t18 75t35.5 74t61 54.5t90 22.5q28 0 55.5 -7t57.5 -24.5t48.5 -54t18.5 -88.5q0 -39 -8.5 -81.5t-28.5 -92t-64 -81.5t-106 -32q-29 0 -57 7t-58 24t-48.5 53.5t-18.5 87.5zM262 788l469 861h162l-469 -861h-162zM311 1366q0 -35 29 -35 q27 0 43 60.5t16 105.5q0 37 -28 37t-44 -60.5t-16 -107.5zM610 948q0 24 3.5 50.5t11 60.5t23.5 64t37.5 56t56 41t77.5 15q28 0 55.5 -7t57.5 -23.5t48.5 -53t18.5 -88.5q0 -30 -4.5 -63t-18 -75t-35 -74t-60.5 -54.5t-90 -22.5q-29 0 -57 7t-57.5 24.5t-48 54t-18.5 88.5 zM762 940q0 -37 26 -37q28 0 44 61t16 107q0 37 -27 37q-28 0 -43.5 -60t-15.5 -108z" />
<glyph horiz-adv-x="509" d="M-14 0l207 1176h321l-207 -1176h-321zM106 1270l48 266h235l-47 -266h-236zM401 1270l48 266h233l-47 -266h-234z" />
<glyph horiz-adv-x="507" d="M-14 0l207 1176h321l-207 -1176h-321zM51 1249l215 293h293l107 -293h-207l-64 137l-108 -137h-236z" />
<glyph horiz-adv-x="372" d="M115 788l45 254h209l-45 -254h-209zM172 1143l45 254h209l-45 -254h-209z" />
<glyph horiz-adv-x="563" d="M147 1118q0 210 79.5 323t187.5 113q23 0 35 -2l32 97h80l-39 -111l23 -8l41 119h78l-52 -148l54 -28l-103 -170q-11 5 -36 17.5t-41.5 19t-26.5 6.5q-42 0 -67 -62.5t-25 -134.5q0 -55 45 -55q22 0 114 41l56 -187q-101 -47 -181 -61l-34 -99h-78l33 95l-23 4l-35 -99 h-78l43 127q-82 62 -82 203z" />
<glyph horiz-adv-x="565" d="M-45 23q0 210 79 323t187 113q23 0 35 -2l33 96h80l-39 -111l22 -8l41 119h78l-51 -147l53 -29l-102 -170q-11 5 -36 17.5t-42 19t-27 6.5q-42 0 -67 -62.5t-25 -134.5q0 -55 45 -55q23 0 115 41l55 -186q-105 -49 -180 -62l-35 -98h-78l33 94l-23 4l-34 -98h-78l43 127 q-82 62 -82 203z" />
<glyph horiz-adv-x="1914" d="M82 801q0 27 3 57.5t11.5 69.5t22 75t36 71.5t52 61.5t72.5 42t94 16q30 0 59 -4.5t65 -20t62 -40t44 -69t18 -102.5q0 -40 -6 -84.5t-25 -102t-49 -101.5t-84.5 -74.5t-124.5 -30.5q-30 0 -59.5 5t-65.5 20t-62.5 40t-44.5 69t-18 102zM225 0l649 1176h226l-647 -1176 h-228zM293 788q0 -17 9 -31t30 -14q37 0 58.5 82t21.5 144q0 47 -39 47q-36 0 -58 -83t-22 -145zM707 217q0 41 6 85.5t24.5 102t49 101t85 74t125.5 30.5q30 0 59.5 -4.5t65.5 -19.5t62.5 -39.5t44.5 -69t18 -102.5q0 -40 -6 -84.5t-25 -102t-49 -101.5t-84.5 -74.5 t-124.5 -30.5q-31 0 -60.5 4.5t-65.5 20t-62.5 40t-44.5 68.5t-18 102zM920 207q0 -45 36 -45q20 0 36.5 26.5t26 65t14.5 74t5 59.5q0 18 -9 32.5t-30 14.5q-37 0 -58 -81.5t-21 -145.5zM1280 217q0 41 6 85.5t25.5 101.5t49.5 101t84.5 74.5t125.5 30.5q30 0 59.5 -4.5 t65.5 -19.5t62.5 -39.5t44.5 -69t18 -102.5q0 -40 -6 -84.5t-25 -102t-49 -101.5t-84.5 -74.5t-124.5 -30.5q-31 0 -60.5 4.5t-65.5 20t-63 40t-45 68.5t-18 102zM1491 207q0 -45 39 -45q37 0 58.5 81.5t21.5 143.5q0 47 -37 47q-20 0 -36.5 -27t-26 -65.5t-14.5 -74.5 t-5 -60z" />
<glyph horiz-adv-x="788" d="M51 449q0 148 32.5 266t86 189t119 108t135.5 37q22 0 47 -2l47 129h113l-53 -150l28 -10l58 160h110l-72 -201q37 -16 74 -37l-143 -242q-16 7 -52.5 24t-59 25.5t-36.5 8.5q-40 0 -70 -43.5t-42.5 -100.5t-12.5 -116q0 -70 62 -70q32 0 160 55l77 -262 q-144 -64 -251 -82l-48 -135h-110l45 131q-13 0 -33 4l-47 -135h-111l62 174q-115 80 -115 275z" />
<glyph horiz-adv-x="1003" d="M6 0l129 731h-31l17 86h29l63 359h354q101 0 176 -21t116.5 -52t67 -76.5t33 -85t7.5 -87.5q0 -19 -2 -37h30l-16 -86h-25q-37 -167 -172 -261.5t-366 -94.5h-23l-65 -375h-322zM444 668h29q104 0 145 63h-163zM471 817h166q-4 35 -31.5 48.5t-85.5 13.5h-39z" />
<glyph horiz-adv-x="718" d="M-74 -307l94 532h-22l12 68h23l45 260h252q74 0 128.5 -15t85 -37.5t48.5 -55.5t23.5 -62t5.5 -64q0 -5 -3 -26h21l-12 -68h-17q-27 -120 -124.5 -187t-262.5 -67h-16l-53 -278h-228zM240 178h24q76 0 107 47h-123zM260 293h127q-4 27 -25.5 38t-64.5 11h-29z" />
<glyph horiz-adv-x="720" d="M121 788l94 533h-22l12 68h22l45 260h252q74 0 128.5 -15t85 -37.5t48.5 -55.5t23.5 -62t5.5 -64q0 -12 -2 -26h21l-13 -68h-16q-27 -120 -124.5 -187t-262.5 -67h-17l-53 -279h-227zM434 1274h25q75 0 106 47h-123zM455 1389h127q-4 27 -25.5 38t-64.5 11h-29z" />
<glyph horiz-adv-x="374" d="M-78 -307l45 254h209l-45 -254h-209zM-20 47l45 254h208l-45 -254h-208z" />
</font>
</defs>
</svg>
