<?xml version="1.0" standalone="no"?>
<!DOCTYPE svg PUBLIC "-//W3C//DTD SVG 1.1//EN" "http://www.w3.org/Graphics/SVG/1.1/DTD/svg11.dtd" >
<svg xmlns="http://www.w3.org/2000/svg">
<metadata></metadata>
<defs>
<font id="verbexcondmedium_italic" horiz-adv-x="1056" >
<font-face units-per-em="2048" ascent="1638" descent="-410" />
<missing-glyph horiz-adv-x="442" />
<glyph unicode="ff" horiz-adv-x="1290" d="M-174 -281q40 14 68.5 25.5t53 27t39.5 25.5t29 31.5t21 35.5t15.5 46.5t12.5 54.5t13 70l153 880h-118l30 160h117l21 119q27 156 87 227.5t173 71.5q71 0 152 -27t143 -59l-95 -139q-107 43 -166 43q-71 0 -90 -113l-22 -123h225l-31 -160h-223l-151 -868 q-33 -185 -57 -246q-36 -95 -120 -149q-76 -47 -237 -94zM471 -281q40 14 68.5 25.5t53 27t39.5 25.5t29 31.5t21 35.5t15.5 46.5t12.5 54.5t13 70l154 880h-119l30 160h117l21 119q27 156 87 227.5t173 71.5q71 0 152 -27t143 -59l-95 -139q-107 43 -165 43q-72 0 -91 -113 l-22 -123h225l-30 -160h-224l-151 -868q-33 -185 -57 -246q-36 -95 -120 -149q-76 -47 -237 -94z" />
<glyph unicode="fi" horiz-adv-x="1110" d="M-174 -281q41 14 69 25.5t52.5 26.5t40 26t29 31.5t21 35.5t15.5 46t12.5 55t12.5 70l155 880h-120l30 160h119l21 119q27 155 85.5 227t166.5 72q58 0 126 -22t117 -48l-76 -145q-91 33 -127 33q-71 0 -90 -113l-22 -123h225l-31 -160h-223l-151 -868q-33 -185 -57 -246 q-36 -95 -120 -149q-76 -47 -237 -94zM668 0l190 1075h201l-191 -1075h-200zM885 1270l37 217h217l-39 -217h-215z" />
<glyph unicode="fl" horiz-adv-x="1122" d="M-174 -281q41 14 69 25.5t52.5 26.5t40 26t29 31.5t21 35.5t15.5 46t12.5 55t12.5 70l155 880h-120l30 160h119l21 119q27 155 85.5 227t166.5 72q58 0 126 -22t117 -48l-76 -145q-91 33 -127 33q-71 0 -90 -113l-22 -123h225l-31 -160h-223l-151 -868q-33 -185 -57 -246 q-36 -95 -120 -149q-76 -47 -237 -94zM674 0l264 1493h203l-264 -1493h-203z" />
<glyph unicode="ffi" horiz-adv-x="1755" d="M-174 -281q40 14 68.5 25.5t53 27t39.5 25.5t29 31.5t21 35.5t15.5 46.5t12.5 54.5t13 70l153 880h-118l30 160h117l21 119q27 156 87 227.5t173 71.5q71 0 152 -27t143 -59l-95 -139q-107 43 -166 43q-71 0 -90 -113l-22 -123h225l-31 -160h-223l-151 -868 q-33 -185 -57 -246q-36 -95 -120 -149q-76 -47 -237 -94zM471 -281q41 14 69 25.5t52.5 26.5t40 26t29 31.5t21 35.5t15.5 46t12.5 55t12.5 70l156 880h-121l30 160h119l21 119q27 155 85.5 227t166.5 72q58 0 126 -22t117 -48l-75 -145q-91 33 -127 33q-72 0 -91 -113 l-22 -123h225l-30 -160h-224l-151 -868q-33 -185 -57 -246q-36 -95 -120 -149q-76 -47 -237 -94zM1313 0l190 1075h201l-191 -1075h-200zM1530 1270l37 217h217l-39 -217h-215z" />
<glyph unicode="ffl" horiz-adv-x="1767" d="M-174 -281q40 14 68.5 25.5t53 27t39.5 25.5t29 31.5t21 35.5t15.5 46.5t12.5 54.5t13 70l153 880h-118l30 160h117l21 119q27 156 87 227.5t173 71.5q71 0 152 -27t143 -59l-95 -139q-107 43 -166 43q-71 0 -90 -113l-22 -123h225l-31 -160h-223l-151 -868 q-33 -185 -57 -246q-36 -95 -120 -149q-76 -47 -237 -94zM471 -281q41 14 69 25.5t52.5 26.5t40 26t29 31.5t21 35.5t15.5 46t12.5 55t12.5 70l156 880h-121l30 160h119l21 119q27 155 85.5 227t166.5 72q58 0 126 -22t117 -48l-75 -145q-91 33 -127 33q-72 0 -91 -113 l-22 -123h225l-30 -160h-224l-151 -868q-33 -185 -57 -246q-36 -95 -120 -149q-76 -47 -237 -94zM1319 0l264 1493h203l-264 -1493h-203z" />
<glyph unicode="ffb" horiz-adv-x="2349" d="M-174 -281q40 14 68.5 25.5t53 27t39.5 25.5t29 31.5t21 35.5t15.5 46.5t12.5 54.5t13 70l153 880h-118l30 160h117l21 119q27 156 87 227.5t173 71.5q71 0 152 -27t143 -59l-95 -139q-107 43 -166 43q-71 0 -90 -113l-22 -123h225l-31 -160h-223l-151 -868 q-33 -185 -57 -246q-36 -95 -120 -149q-76 -47 -237 -94zM471 -281q41 14 69 25.5t52.5 26.5t40 26t29 31.5t21 35.5t15.5 46t12.5 55t12.5 70l156 880h-121l30 160h119l21 119q27 155 85.5 227t166.5 72q58 0 126 -22t117 -48l-75 -145q-91 33 -127 33q-72 0 -91 -113 l-22 -123h225l-30 -160h-224l-151 -868q-33 -185 -57 -246q-36 -95 -120 -149q-76 -47 -237 -94zM1313 0l264 1493h201l-97 -549q162 154 312 154q119 0 194.5 -90.5t75.5 -266.5q0 -198 -51 -370t-152.5 -283t-232.5 -111q-49 0 -92.5 13.5t-80.5 40t-61 48.5t-55 56 l-22 -135h-203zM1569 307q44 -69 101 -112t118 -43q79 0 141.5 88t93.5 214t31 255q0 101 -35.5 158t-107.5 57q-116 0 -260 -158z" />
<glyph unicode="ffh" horiz-adv-x="2347" d="M-174 -281q40 14 68.5 25.5t53 27t39.5 25.5t29 31.5t21 35.5t15.5 46.5t12.5 54.5t13 70l153 880h-118l30 160h117l21 119q27 156 87 227.5t173 71.5q71 0 152 -27t143 -59l-95 -139q-107 43 -166 43q-71 0 -90 -113l-22 -123h225l-31 -160h-223l-151 -868 q-33 -185 -57 -246q-36 -95 -120 -149q-76 -47 -237 -94zM471 -281q41 14 69 25.5t52.5 26.5t40 26t29 31.5t21 35.5t15.5 46t12.5 55t12.5 70l156 880h-121l30 160h119l21 119q27 155 85.5 227t166.5 72q58 0 126 -22t117 -48l-75 -145q-91 33 -127 33q-72 0 -91 -113 l-22 -123h225l-30 -160h-224l-151 -868q-33 -185 -57 -246q-36 -95 -120 -149q-76 -47 -237 -94zM1313 0l264 1493h201l-99 -555q204 160 363 160q131 0 184 -88.5t25 -245.5l-135 -764h-203l129 733q8 54 7 97.5t-25 70.5t-72 27q-70 0 -154 -49.5t-147 -110.5l-135 -768 h-203z" />
<glyph unicode="fb" horiz-adv-x="1703" d="M-174 -281q41 14 69 25.5t52.5 26.5t40 26t29 31.5t21 35.5t15.5 46t12.5 55t12.5 70l155 880h-120l30 160h119l21 119q27 155 85.5 227t166.5 72q58 0 126 -22t117 -48l-76 -145q-91 33 -127 33q-71 0 -90 -113l-22 -123h225l-31 -160h-223l-151 -868q-33 -185 -57 -246 q-36 -95 -120 -149q-76 -47 -237 -94zM668 0l264 1493h201l-97 -549q162 154 312 154q119 0 194.5 -90.5t75.5 -266.5q0 -198 -51 -370t-152.5 -283t-232.5 -111q-49 0 -92.5 13.5t-80.5 40t-61 48.5t-55 56l-23 -135h-202zM924 307q44 -69 101 -112t118 -43q79 0 141.5 88 t93.5 214t31 255q0 101 -35.5 158t-107.5 57q-116 0 -260 -158z" />
<glyph unicode="ffj" horiz-adv-x="1767" d="M-174 -281q40 14 68.5 25.5t53 27t39.5 25.5t29 31.5t21 35.5t15.5 46.5t12.5 54.5t13 70l153 880h-118l30 160h117l21 119q27 156 87 227.5t173 71.5q71 0 152 -27t143 -59l-95 -139q-107 43 -166 43q-71 0 -90 -113l-22 -123h225l-31 -160h-223l-151 -868 q-33 -185 -57 -246q-36 -95 -120 -149q-76 -47 -237 -94zM471 -281q41 14 69 25.5t52.5 26.5t40 26t29 31.5t21 35.5t15.5 46t12.5 55t12.5 70l156 880h-121l30 160h119l21 119q27 155 85.5 227t166.5 72q58 0 126 -22t117 -48l-75 -145q-91 33 -127 33q-72 0 -91 -113 l-22 -123h225l-30 -160h-224l-151 -868q-33 -185 -57 -246q-36 -95 -120 -149q-76 -47 -237 -94zM1067 -279q53 19 88 34t61 33t40 31.5t24.5 39.5t15 46.5t11.5 61.5l196 1108h203l-195 -1093q-27 -150 -49 -202q-37 -88 -130 -140q-78 -43 -224 -82zM1530 1270l39 217h217 l-39 -217h-217z" />
<glyph unicode="ffk" horiz-adv-x="2230" d="M-174 -281q40 14 68.5 25.5t53 27t39.5 25.5t29 31.5t21 35.5t15.5 46.5t12.5 54.5t13 70l153 880h-118l30 160h117l21 119q27 156 87 227.5t173 71.5q71 0 152 -27t143 -59l-95 -139q-107 43 -166 43q-71 0 -90 -113l-22 -123h225l-31 -160h-223l-151 -868 q-33 -185 -57 -246q-36 -95 -120 -149q-76 -47 -237 -94zM471 -281q41 14 69 25.5t52.5 26.5t40 26t29 31.5t21 35.5t15.5 46t12.5 55t12.5 70l156 880h-121l30 160h119l21 119q27 155 85.5 227t166.5 72q58 0 126 -22t117 -48l-75 -145q-91 33 -127 33q-72 0 -91 -113 l-22 -123h225l-30 -160h-224l-151 -868q-33 -185 -57 -246q-36 -95 -120 -149q-76 -47 -237 -94zM1313 0l264 1493h201l-160 -907l389 489h244l-387 -440l245 -635h-206l-174 479l-162 -184l-51 -295h-203z" />
<glyph unicode="fft" horiz-adv-x="1978" d="M-174 -281q40 14 68.5 25.5t53 27t39.5 25.5t29 31.5t21 35.5t15.5 46.5t12.5 54.5t13 70l153 880h-118l30 160h117l21 119q27 156 87 227.5t173 71.5q71 0 152 -27t143 -59l-95 -139q-107 43 -166 43q-71 0 -90 -113l-22 -123h225l-31 -160h-223l-151 -868 q-33 -185 -57 -246q-36 -95 -120 -149q-76 -47 -237 -94zM471 -281q40 14 68.5 25.5t53 27t39.5 25.5t29 31.5t21 35.5t15.5 46.5t12.5 54.5t13 70l154 880h-119l30 160h117l21 119q27 156 87 227.5t173 71.5q71 0 152 -27t143 -59l-95 -139q-107 43 -165 43q-72 0 -91 -113 l-22 -123h225l-30 -160h-224l-151 -868q-33 -185 -57 -246q-36 -95 -120 -149q-76 -47 -237 -94zM1397 915l28 160h121l47 264l209 47l-55 -311h238l-27 -160h-240l-112 -641q-17 -112 53 -112q38 0 156 51l49 -164q-166 -72 -275 -72t-159 77.5t-21 240.5l109 620h-121z " />
<glyph unicode="fh" horiz-adv-x="1701" d="M-174 -281q41 14 69 25.5t52.5 26.5t40 26t29 31.5t21 35.5t15.5 46t12.5 55t12.5 70l155 880h-120l30 160h119l21 119q27 155 85.5 227t166.5 72q58 0 126 -22t117 -48l-76 -145q-91 33 -127 33q-71 0 -90 -113l-22 -123h225l-31 -160h-223l-151 -868q-33 -185 -57 -246 q-36 -95 -120 -149q-76 -47 -237 -94zM668 0l264 1493h201l-99 -555q204 160 363 160q131 0 184 -88.5t25 -245.5l-136 -764h-202l129 733q8 54 7 97.5t-25 70.5t-72 27q-70 0 -154 -49.5t-147 -110.5l-136 -768h-202z" />
<glyph unicode="fj" horiz-adv-x="1122" d="M-174 -281q41 14 69 25.5t52.5 26.5t40 26t29 31.5t21 35.5t15.5 46t12.5 55t12.5 70l155 880h-120l30 160h119l21 119q27 155 85.5 227t166.5 72q58 0 126 -22t117 -48l-76 -145q-91 33 -127 33q-71 0 -90 -113l-22 -123h225l-31 -160h-223l-151 -868q-33 -185 -57 -246 q-36 -95 -120 -149q-76 -47 -237 -94zM422 -279q53 19 88 34t61 33t40 31.5t24.5 39.5t15 46.5t11.5 61.5l196 1108h203l-195 -1093q-27 -150 -49 -202q-37 -88 -130 -140q-77 -43 -224 -82zM885 1270l39 217h217l-39 -217h-217z" />
<glyph unicode="fk" horiz-adv-x="1587" d="M-174 -281q41 14 69 25.5t52.5 26.5t40 26t29 31.5t21 35.5t15.5 46t12.5 55t12.5 70l155 880h-120l30 160h119l21 119q27 155 85.5 227t166.5 72q58 0 126 -22t117 -48l-76 -145q-91 33 -127 33q-71 0 -90 -113l-22 -123h225l-31 -160h-223l-151 -868q-33 -185 -57 -246 q-36 -95 -120 -149q-76 -47 -237 -94zM668 0l264 1493h201l-160 -907l389 489h244l-387 -440l245 -635h-207l-174 479l-161 -184l-52 -295h-202z" />
<glyph unicode="ft" horiz-adv-x="1333" d="M-174 -281q40 14 68.5 25.5t53 27t39.5 25.5t29 31.5t21 35.5t15.5 46.5t12.5 54.5t13 70l153 880h-118l30 160h117l21 119q27 156 87 227.5t173 71.5q71 0 152 -27t143 -59l-95 -139q-107 43 -166 43q-71 0 -90 -113l-22 -123h225l-31 -160h-223l-151 -868 q-33 -185 -57 -246q-36 -95 -120 -149q-76 -47 -237 -94zM752 915l28 160h121l47 264l209 47l-55 -311h237l-26 -160h-240l-112 -641q-17 -112 53 -112q37 0 155 51l50 -164q-166 -72 -275 -72t-159 77.5t-21 240.5l108 620h-120z" />
<glyph unicode=" "  horiz-adv-x="442" />
<glyph unicode="&#x09;" horiz-adv-x="442" />
<glyph unicode="&#xa0;" horiz-adv-x="442" />
<glyph unicode="!" horiz-adv-x="522" d="M45 0l45 262h217l-45 -262h-217zM168 440l113 994h245l-235 -994h-123z" />
<glyph unicode="&#x22;" horiz-adv-x="749" d="M188 893l62 541h199l-130 -541h-131zM524 893l62 541h198l-129 -541h-131z" />
<glyph unicode="#" horiz-adv-x="1261" d="M37 352l29 164h225l121 399h-205l29 164h225l106 355h162l-106 -355h270l106 355h160l-106 -355h207l-29 -164h-227l-121 -399h209l-29 -164h-229l-105 -352h-162l107 352h-271l-106 -352h-162l107 352h-205zM453 516h270l121 399h-271z" />
<glyph unicode="$" horiz-adv-x="1101" d="M8 162l123 153q146 -104 270 -137l84 475l-12 9q-69 41 -114 75t-88 81t-64 105.5t-21 129.5q0 176 122 288t319 115l32 184h152l-35 -200q156 -34 318 -131l-121 -154q-106 69 -230 100l-79 -442l6 -4q55 -33 92.5 -58.5t81.5 -65.5t69.5 -79t43.5 -94t18 -117 q0 -183 -129.5 -299t-329.5 -119l-33 -182h-149l35 197q-188 40 -361 170zM412 1063q0 -57 27.5 -95.5t86.5 -76.5l68 375q-78 -11 -130 -64.5t-52 -138.5zM549 166q90 12 146.5 68.5t56.5 144.5q0 62 -33 107t-96 87z" />
<glyph unicode="%" horiz-adv-x="1701" d="M147 989q0 65 13.5 130t42 126t69.5 108t100.5 75t129.5 28q129 0 212 -76.5t83 -224.5q0 -65 -13.5 -130t-42 -126t-69.5 -108t-100.5 -75t-129.5 -28q-130 0 -212.5 76.5t-82.5 224.5zM305 985q0 -85 34.5 -125.5t106.5 -40.5q48 0 86.5 35.5t61 89t34 110t11.5 105.5 q0 166 -141 166q-48 0 -86.5 -35.5t-61 -89t-34 -110t-11.5 -105.5zM356 0l858 1434h164l-856 -1434h-166zM942 279q0 65 13.5 130t42 126t69 107.5t100 74.5t129.5 28q129 0 212 -76.5t83 -224.5q0 -65 -13.5 -130t-42 -126t-69 -108t-100 -75t-129.5 -28q-130 0 -212.5 77 t-82.5 225zM1100 274q0 -85 34.5 -125t106.5 -40q48 0 86.5 35.5t61 89t34 110t11.5 105.5q0 165 -142 165q-48 0 -86.5 -35.5t-60.5 -89t-33.5 -110t-11.5 -105.5z" />
<glyph unicode="&#x26;" horiz-adv-x="1220" d="M72 307q0 64 18 123.5t46 105.5t72.5 92.5t85.5 80t97 73.5q-48 82 -72 152.5t-24 152.5q0 172 103 270.5t251 98.5q130 0 211.5 -73.5t81.5 -196.5q0 -67 -24.5 -128.5t-74 -117.5t-96 -96.5t-118.5 -95.5l196 -304q94 162 136 312h202q-30 -115 -89.5 -241t-141.5 -234 l184 -281h-223l-90 139q-184 -162 -387 -162q-158 0 -251 88.5t-93 241.5zM272 319q0 -73 39.5 -125.5t124.5 -52.5q137 0 273 146l-226 350q-101 -81 -156 -156.5t-55 -161.5zM479 1090q0 -98 60 -205q106 75 161.5 141t55.5 145q0 56 -29 91.5t-86 35.5q-76 0 -119 -59.5 t-43 -148.5z" />
<glyph unicode="'" horiz-adv-x="415" d="M188 893l62 541h199l-130 -541h-131z" />
<glyph unicode="(" horiz-adv-x="581" d="M37 -63q-3 76 18 188l209 1182q9 51 15.5 81.5t17.5 68t24 59.5t34.5 49.5t48.5 45t65.5 37.5t87.5 36.5t113 33.5l35 -139q-92 -34 -136 -65.5t-60.5 -68t-29.5 -110.5l-221 -1249q-8 -46 -11.5 -69.5t-2.5 -50.5t8 -40.5t24.5 -30.5t41 -30t63.5 -31l-64 -127 q-149 45 -213 99.5t-67 130.5z" />
<glyph unicode=")" horiz-adv-x="577" d="M-92 -154q69 26 108.5 47t63.5 51t33.5 59.5t19.5 86.5l221 1249q8 46 11.5 69.5t2.5 50.5t-8 40.5t-24.5 30.5t-41 30t-63.5 31l64 127q149 -45 213 -99.5t67 -130.5t-18 -188l-209 -1181q-7 -41 -12 -66t-13.5 -57.5t-16.5 -52t-21 -44t-28 -40.5t-37 -35t-48.5 -32.5 t-60.5 -29t-75.5 -28.5t-92.5 -27z" />
<glyph unicode="*" horiz-adv-x="921" d="M166 1020l303 55l-264 158l110 133l199 -240l-2 310l174 -31l-104 -289l264 158l57 -168l-295 -53l260 -158l-114 -133l-193 231l-2 -303l-172 29l107 293l-269 -158z" />
<glyph unicode="+" horiz-adv-x="1085" d="M117 602l30 162h340l64 358h162l-64 -358h344l-28 -162h-344l-64 -358h-162l64 358h-342z" />
<glyph unicode="," horiz-adv-x="468" d="M-27 -217l144 217h-97l48 276h215l-35 -299l-228 -268z" />
<glyph unicode="-" horiz-adv-x="761" d="M104 496l31 176h508l-31 -176h-508z" />
<glyph unicode="." horiz-adv-x="466" d="M20 0l48 276h217l-49 -276h-216z" />
<glyph unicode="/" horiz-adv-x="808" d="M-90 -184l862 1802h164l-862 -1802h-164z" />
<glyph unicode="0" horiz-adv-x="1175" d="M113 451q0 59 7.5 135t27 174t48 192.5t76 187t106 162t142 112t180.5 42.5q107 0 185 -34t124.5 -98.5t68.5 -149.5t22 -193q0 -59 -7.5 -134.5t-27 -173.5t-48.5 -192.5t-76 -186.5t-106 -161.5t-142.5 -112.5t-180.5 -43q-208 0 -303.5 126t-95.5 348zM319 434 q0 -48 4 -85.5t16 -76t32.5 -63.5t55.5 -41t83 -16q81 0 149 72.5t109.5 177t71 226.5t41.5 217t12 152q0 48 -4 85.5t-16 76t-32 64t-55.5 41.5t-83.5 16q-81 0 -149 -72.5t-109.5 -177.5t-71 -227t-41.5 -217t-12 -152z" />
<glyph unicode="1" horiz-adv-x="696" d="M137 1235l340 199h197l-254 -1434h-211l213 1206l-211 -123z" />
<glyph unicode="2" horiz-adv-x="1036" d="M-20 0l20 123q16 88 49.5 165t73 132.5t99 111.5t109.5 94t122 90q5 3 8.5 5.5t7.5 5.5q83 59 132 98t101.5 90t76.5 99.5t24 99.5q2 69 -42.5 112.5t-127.5 43.5q-140 0 -320 -121l-80 154q216 153 433 153q165 0 258.5 -87t93.5 -234q0 -57 -15.5 -111.5t-38.5 -99 t-61.5 -90.5t-73.5 -80t-85.5 -74t-86.5 -65.5t-86 -60.5q-22 -15 -32 -22q-130 -93 -193 -168t-82 -178h592l-33 -186h-843z" />
<glyph unicode="3" horiz-adv-x="1048" d="M-18 147l116 142q82 -57 157 -90t159 -33q126 0 206 77t80 195q0 63 -26.5 112t-71 76.5t-97.5 41.5t-112 14h-47l35 186h53q75 0 151 32t129.5 93.5t53.5 134.5q0 65 -42 103.5t-118 38.5q-74 0 -156 -33.5t-147 -77.5l-72 152q211 145 422 145q158 0 244 -81.5 t86 -207.5q0 -118 -76.5 -221t-214.5 -162q96 -33 157.5 -126t61.5 -218q0 -86 -30 -166.5t-87.5 -147.5t-153.5 -108t-216 -41q-240 0 -444 170z" />
<glyph unicode="4" horiz-adv-x="1120" d="M4 303l29 160l710 971h279l-168 -945h178l-33 -186h-178l-53 -303h-209l53 303h-608zM246 489h399l127 721z" />
<glyph unicode="5" horiz-adv-x="1036" d="M0 154l119 143q151 -129 282 -129q117 0 209 92t92 244q0 104 -51 168.5t-147 64.5q-104 0 -240 -88l-112 70l188 715h696l-32 -187h-517l-81 -358q88 31 165 31q111 0 191.5 -54.5t119 -144t38.5 -203.5q0 -144 -59 -266t-176 -198.5t-269 -76.5q-225 0 -416 177z" />
<glyph unicode="6" horiz-adv-x="1103" d="M94 471q0 154 38.5 301t110 270t167.5 216t218.5 145.5t254.5 52.5q56 0 106 -9t72 -19l22 -9l-84 -162q-48 17 -114 17q-174 0 -318 -137t-213 -353q126 136 295 136q158 0 249 -114.5t91 -277.5q0 -105 -32.5 -203t-92 -176t-152 -125t-202.5 -47q-102 0 -183.5 41.5 t-131 111.5t-75.5 157t-26 184zM305 465q0 -128 53.5 -216.5t153.5 -88.5q80 0 142 53t92 133.5t30 171.5q0 95 -48 163.5t-142 68.5q-88 0 -166 -60.5t-111 -128.5q-4 -33 -4 -96z" />
<glyph unicode="7" horiz-adv-x="890" d="M96 0q29 166 100.5 351.5t146 323.5t164.5 277.5t133 197t75 97.5h-551l33 187h794l-28 -168q-11 -13 -30.5 -37t-77.5 -102t-112 -159.5t-124 -202t-125.5 -237t-104 -257.5t-70.5 -271h-223z" />
<glyph unicode="8" horiz-adv-x="1120" d="M47 326q0 72 23 136t58 110.5t86 88t97.5 68.5t102.5 53q-160 117 -160 293q0 167 122 274t314 107q171 0 265 -86.5t94 -222.5q0 -228 -287 -381q225 -138 225 -356q0 -192 -147 -312.5t-375 -120.5q-196 0 -307 92t-111 257zM264 346q0 -95 57 -145.5t154 -50.5 q122 0 209.5 74.5t87.5 191.5q0 47 -16 88t-46 74t-60.5 57t-71.5 49q-68 -32 -116.5 -60t-97.5 -69.5t-74.5 -94t-25.5 -114.5zM455 1063q0 -126 141 -207q248 102 248 270q0 71 -43.5 116.5t-122.5 45.5q-94 0 -158.5 -67t-64.5 -158z" />
<glyph unicode="9" horiz-adv-x="1103" d="M55 14l82 162q49 -16 117 -16q174 0 317.5 136.5t212.5 352.5q-125 -135 -295 -135q-158 0 -248.5 114t-90.5 277q0 83 20 163t61 150t97 123.5t133.5 84t165.5 30.5q102 0 183.5 -41t131.5 -111t76 -157t26 -184q0 -192 -60.5 -372t-164 -315.5t-251 -217t-312.5 -81.5 q-56 0 -106.5 9.5t-72.5 18.5zM360 915q0 -94 49.5 -162.5t145.5 -68.5q87 0 165 62.5t109 130.5q5 78 5 92q0 128 -53.5 216.5t-153.5 88.5q-81 0 -143 -53t-93 -134t-31 -172z" />
<glyph unicode=":" horiz-adv-x="481" d="M25 0l47 276h217l-49 -276h-215zM145 680l48 276h217l-50 -276h-215z" />
<glyph unicode=";" horiz-adv-x="497" d="M-16 -217l143 217h-96l47 276h215l-35 -299l-227 -268zM150 680l47 276h217l-49 -276h-215z" />
<glyph unicode="&#x3c;" horiz-adv-x="1085" d="M92 606l29 154l919 426l-36 -209l-695 -303l588 -303l-33 -191z" />
<glyph unicode="=" horiz-adv-x="1085" d="M82 414l29 166h847l-30 -166h-846zM147 791l31 163h846l-29 -163h-848z" />
<glyph unicode="&#x3e;" horiz-adv-x="1085" d="M70 182l36 209l695 303l-588 303l33 191l772 -426l-29 -154z" />
<glyph unicode="?" horiz-adv-x="901" d="M154 0l45 262h215l-45 -262h-215zM178 1315q198 141 400 141q147 0 241 -79.5t94 -225.5q0 -76 -28.5 -144t-73.5 -117t-106 -90t-120.5 -67.5t-123.5 -44.5l-58 -248h-133l49 369q379 107 379 313q0 71 -43 109.5t-118 38.5q-107 0 -279 -107z" />
<glyph unicode="@" horiz-adv-x="1660" d="M68 340q0 159 39 313.5t117 290t185 238.5t252 163t308 60q113 0 206.5 -29t159.5 -81t114.5 -125t71.5 -162t31 -190.5t-8 -211.5q-10 -73 -25 -142t-39 -146.5t-58.5 -141t-78 -116t-103.5 -82t-130 -29.5q-50 0 -87 16.5t-55.5 42.5t-30.5 58.5t-12 65t1 61.5 q-146 -146 -291 -146q-94 0 -155.5 69.5t-61.5 184.5q0 163 91.5 260.5t225.5 97.5q33 0 75.5 -7t69.5 -13.5t69 -18.5t48 -14q15 88 19 107q18 99 -5.5 144.5t-105.5 45.5q-104 0 -282 -82l-43 125q205 90 356 90q290 0 231 -321l-67 -391q-23 -138 -16 -188q10 -75 75 -75 q85 0 174 152.5t117 392.5q9 68 10 132t-6 127t-24.5 119.5t-44.5 106.5t-67 90t-90.5 69.5t-117.5 45t-145 15.5q-145 0 -274 -54.5t-224 -149t-164 -218t-104 -264t-35 -285.5q0 -127 30 -236t88.5 -194t152 -133.5t212.5 -48.5q54 0 107.5 9.5t91 23t67.5 27t45 22.5 l15 10l45 -78q-6 -4 -17.5 -11.5t-49.5 -26.5t-78.5 -33t-103 -26t-124.5 -12q-138 0 -249 56t-181.5 153t-108.5 224.5t-38 273.5zM580 315q0 -68 31.5 -101.5t84.5 -33.5q54 0 120 39t130 105l33 190q-9 2 -51 13.5t-78.5 18.5t-67.5 7q-54 0 -94.5 -22t-63 -58t-33.5 -76 t-11 -82z" />
<glyph unicode="A" horiz-adv-x="1189" d="M-68 0l695 1434h231l189 -1434h-222l-30 328h-480l-145 -328h-238zM393 506h385l-65 721z" />
<glyph unicode="B" horiz-adv-x="1183" d="M51 0l254 1434h420q189 0 290 -82.5t101 -223.5q0 -81 -29.5 -150.5t-74.5 -112.5t-92 -69.5t-89 -33.5q36 -9 71.5 -28t73 -54t60.5 -94.5t23 -134.5q0 -211 -128.5 -331t-357.5 -120h-522zM293 174h254q145 0 226 83t81 212q0 98 -62.5 149.5t-177.5 51.5h-233z M410 836h217q47 0 94 15.5t88 46t66.5 81t25.5 113.5q0 77 -51.5 122.5t-161.5 45.5h-205z" />
<glyph unicode="C" horiz-adv-x="1120" d="M106 520q0 194 45.5 366.5t125 298t193 198.5t243.5 73q56 0 111.5 -14t95.5 -31.5t92.5 -52t79 -55.5t77.5 -62l-118 -151q-98 84 -173.5 125.5t-148.5 41.5q-113 0 -207 -102.5t-146 -269t-52 -357.5q0 -179 53 -265.5t149 -86.5q127 0 373 164l88 -168 q-146 -91 -268 -143t-240 -52q-174 0 -273.5 137t-99.5 406z" />
<glyph unicode="D" horiz-adv-x="1239" d="M51 0l254 1434h299q277 0 420 -138.5t143 -396.5q0 -133 -26 -259t-84.5 -243t-143.5 -204.5t-212 -140t-281 -52.5h-369zM295 188h117q165 0 289 92.5t187.5 251t63.5 359.5q0 187 -92.5 270.5t-271.5 83.5h-107z" />
<glyph unicode="E" horiz-adv-x="1050" d="M51 0l254 1434h787l-33 -189h-578l-75 -436h475l-35 -184h-473l-78 -437h588l-33 -188h-799z" />
<glyph unicode="F" horiz-adv-x="1003" d="M51 0l254 1434h787l-33 -189h-578l-75 -436h458l-33 -186h-458l-111 -623h-211z" />
<glyph unicode="G" horiz-adv-x="1222" d="M109 504q0 210 46.5 388.5t127.5 301.5t193 192.5t241 69.5q71 0 139.5 -19.5t132 -57.5t107 -70t100.5 -80l-121 -150q-8 6 -40.5 31t-46.5 35.5t-45 32t-52.5 32t-50 23.5t-55.5 18.5t-54 5.5q-114 0 -207.5 -101t-145.5 -269.5t-52 -364.5q0 -166 49 -261t149 -95 q83 0 174.5 60t161.5 132l47 258h-293l31 179h492l-142 -795h-198l28 164q-194 -187 -364 -187q-159 0 -255.5 134t-96.5 393z" />
<glyph unicode="H" horiz-adv-x="1247" d="M51 0l254 1434h209l-104 -590h505l105 590h211l-252 -1434h-211l115 659h-506l-115 -659h-211z" />
<glyph unicode="I" horiz-adv-x="530" d="M51 0l254 1434h209l-252 -1434h-211z" />
<glyph unicode="J" horiz-adv-x="530" d="M-170 -150q52 18 86.5 33t60 33t40 32t25 39.5t15 46t11.5 60.5l237 1340h209l-233 -1330q-13 -76 -21 -110t-26 -84t-42 -73.5t-66.5 -55t-102.5 -54.5t-148 -49z" />
<glyph unicode="K" horiz-adv-x="1163" d="M51 0l254 1434h209l-123 -699l592 699h270l-598 -676l381 -758h-235l-287 598l-184 -205l-68 -393h-211z" />
<glyph unicode="L" horiz-adv-x="964" d="M51 0l254 1434h209l-219 -1248h561l-33 -186h-772z" />
<glyph unicode="M" horiz-adv-x="1460" d="M51 0l254 1434h217l185 -922l520 922h217l-252 -1434h-211l180 1024l-440 -784h-111l-164 817l-184 -1057h-211z" />
<glyph unicode="N" horiz-adv-x="1273" d="M51 0l254 1434h213l338 -1092l193 1092h208l-251 -1434h-213l-340 1087l-191 -1087h-211z" />
<glyph unicode="O" horiz-adv-x="1306" d="M106 514q0 70 10 151t33.5 172.5t58 178.5t87.5 167.5t117 140.5t151.5 96t186.5 36q234 0 359.5 -134.5t125.5 -397.5q0 -71 -10 -152t-33.5 -173.5t-58 -179.5t-87 -168t-116.5 -141.5t-151.5 -96.5t-186.5 -36q-235 0 -360.5 136t-125.5 401zM322 514q0 -79 14 -140 t44.5 -109t85 -73.5t130.5 -25.5q67 0 125.5 32.5t100.5 85.5t76.5 122.5t56.5 141.5t37 144.5t21.5 129.5t6.5 98q0 348 -275 348q-67 0 -125.5 -32.5t-100.5 -85.5t-76.5 -122.5t-56.5 -141.5t-37 -144.5t-21 -129.5t-6 -98z" />
<glyph unicode="P" horiz-adv-x="1148" d="M51 0l254 1434h402q438 0 438 -367q0 -241 -150 -383.5t-413 -142.5h-224l-96 -541h-211zM391 725h191q154 0 250 85.5t96 242.5q0 194 -232 194h-215z" />
<glyph unicode="Q" horiz-adv-x="1306" d="M106 514q0 70 10 151t33.5 172.5t58 178.5t87.5 167.5t117 140.5t151.5 96t186.5 36q234 0 359.5 -134.5t125.5 -397.5q0 -86 -14.5 -185.5t-49.5 -212.5t-85.5 -211t-130.5 -180.5t-177 -122.5l170 -200l-162 -131l-211 296q-227 5 -348 140.5t-121 396.5zM322 514 q0 -79 14 -140t44.5 -109t85 -73.5t130.5 -25.5q67 0 125.5 32.5t100.5 85.5t76.5 122.5t56.5 141.5t37 144.5t21.5 129.5t6.5 98q0 348 -275 348q-67 0 -125.5 -32.5t-100.5 -85.5t-76.5 -122.5t-56.5 -141.5t-37 -144.5t-21 -129.5t-6 -98z" />
<glyph unicode="R" horiz-adv-x="1204" d="M51 0l254 1434h447q215 0 325.5 -87t110.5 -257q0 -183 -103.5 -316t-291.5 -172l208 -602h-219l-188 590h-227l-105 -590h-211zM397 768h236q159 0 248.5 81.5t89.5 221.5q0 184 -238 184h-250z" />
<glyph unicode="S" horiz-adv-x="1085" d="M0 162l123 153q85 -62 185 -106.5t190 -44.5q105 0 175 58.5t70 156.5q0 21 -4 40t-10 34.5t-18.5 32t-22 28t-29 27t-31.5 24.5t-37.5 24.5t-38.5 23t-43 24.5t-44 25q-69 41 -114 75t-88 81t-64 105.5t-21 129.5q0 178 124 290.5t323 112.5q223 0 460 -147l-120 -154 q-74 47 -168 81t-168 34q-93 0 -159.5 -55t-66.5 -152q0 -18 3.5 -34.5t7.5 -29.5t15 -27.5t18.5 -24t26 -23.5t28 -21.5t34.5 -22.5t37 -21.5t43.5 -24t45.5 -25.5q55 -33 92.5 -58.5t81.5 -65.5t69.5 -79t43.5 -94t18 -117q0 -185 -132 -301.5t-335 -116.5 q-138 0 -267 53.5t-233 131.5z" />
<glyph unicode="T" horiz-adv-x="989" d="M147 1245l35 189h914l-33 -189h-352l-219 -1245h-211l221 1245h-355z" />
<glyph unicode="U" horiz-adv-x="1228" d="M112 345q2 81 17 173l164 916h209l-166 -945q-8 -47 -11 -85q-2 -20 -2 -41q-1 -17 1 -34q2 -38 15.5 -66t36.5 -50t61 -33.5t89 -11.5q76 0 133.5 24.5t94 70t59 100.5t35.5 126l166 945h211l-168 -945q-16 -91 -40 -163.5t-66.5 -139.5t-100 -111.5t-142 -71 t-190.5 -26.5q-112 0 -192.5 27t-125.5 76q-44 48 -67 116q-21 61 -21 133v16z" />
<glyph unicode="V" horiz-adv-x="1185" d="M176 1434h227l113 -1188l526 1188h248l-694 -1434h-231z" />
<glyph unicode="W" horiz-adv-x="1626" d="M193 1434h231l10 -1110l424 1110h180l31 -1108l399 1108h244l-575 -1434h-209l-35 1098l-420 -1098h-209z" />
<glyph unicode="X" horiz-adv-x="1099" d="M-76 0l522 719l-249 715h229l160 -566l354 566h254l-502 -715l271 -719h-234l-174 559l-369 -559h-262z" />
<glyph unicode="Y" horiz-adv-x="1103" d="M166 1434h221l176 -672l410 672h246l-574 -863l-100 -571h-209l98 569z" />
<glyph unicode="Z" horiz-adv-x="1071" d="M-39 0l31 172l827 1073h-602l33 189h874l-28 -170l-830 -1076h649l-32 -188h-922z" />
<glyph unicode="[" horiz-adv-x="630" d="M-8 -295l354 2013h422l-25 -137h-211l-307 -1737h211l-24 -139h-420z" />
<glyph unicode="\" horiz-adv-x="780" d="M215 1618h147l238 -1802h-149z" />
<glyph unicode="]" horiz-adv-x="630" d="M-104 -295l24 137h211l307 1737h-211l25 139h420l-355 -2013h-421z" />
<glyph unicode="^" horiz-adv-x="1087" d="M143 696l445 738h209l184 -738h-207l-104 547l-297 -547h-230z" />
<glyph unicode="_" horiz-adv-x="1214" d="M-41 -317l29 155h964l-28 -155h-965z" />
<glyph unicode="`" horiz-adv-x="393" d="M244 1493h231l162 -272h-156z" />
<glyph unicode="a" horiz-adv-x="1067" d="M63 334q0 201 53.5 373.5t157.5 281.5t236 109q86 0 153 -46t128 -118l24 141h203l-191 -1075h-200l26 156q-179 -179 -336 -179q-111 0 -182.5 90.5t-71.5 266.5zM272 365q0 -100 32.5 -156.5t94.5 -56.5q72 0 140.5 48.5t146.5 135.5l74 428q-43 71 -98 115.5 t-113 44.5q-82 0 -147.5 -89t-97.5 -215t-32 -255z" />
<glyph unicode="b" horiz-adv-x="1058" d="M23 0l264 1493h200l-96 -549q162 154 311 154q120 0 195.5 -90.5t75.5 -266.5q0 -198 -51 -370t-152.5 -283t-232.5 -111q-49 0 -92.5 13.5t-80.5 40t-61 48.5t-55 56l-23 -135h-202zM279 307q44 -69 101 -112t118 -43q79 0 141.5 88t93.5 214t31 255q0 101 -35.5 158 t-107.5 57q-117 0 -261 -158z" />
<glyph unicode="c" horiz-adv-x="894" d="M61 397q0 166 41.5 302.5t109 221.5t150 131t168.5 46q40 0 81.5 -9t70.5 -18.5t68 -31t55.5 -32t53 -35.5t40.5 -28l-102 -143q-4 3 -32 23.5t-45 31.5t-45.5 27t-56 24t-53.5 8q-119 0 -208 -146.5t-89 -350.5q0 -122 42 -190t122 -68q30 0 71 14t68.5 28.5t70.5 38.5 t52 29l68 -161q-4 -2 -45.5 -24t-59 -30.5t-60 -27t-71.5 -27t-68 -16t-73 -7.5q-144 0 -234 110t-90 310z" />
<glyph unicode="d" horiz-adv-x="1067" d="M63 334q0 201 53.5 373.5t157.5 281.5t236 109q47 0 89.5 -14.5t78.5 -41.5t61 -52t52 -58l98 561h203l-265 -1493h-200l26 156q-179 -179 -336 -179q-111 0 -182.5 90.5t-71.5 266.5zM272 365q0 -100 32.5 -156.5t94.5 -56.5q72 0 140.5 48.5t146.5 135.5l74 428 q-43 72 -97.5 116t-113.5 44q-82 0 -147.5 -89t-97.5 -215t-32 -255z" />
<glyph unicode="e" horiz-adv-x="972" d="M61 416q0 195 65 349.5t187.5 243.5t282.5 89q148 0 232.5 -75.5t84.5 -201.5q0 -186 -147.5 -277t-409.5 -91h-90v-41q0 -129 43 -200t129 -71q30 0 62.5 7.5t74 26.5t61.5 28.5t70.5 38.5t55.5 32l65 -145q-50 -32 -105 -61t-150.5 -60t-176.5 -31q-155 0 -244.5 110 t-89.5 329zM283 582h84q172 0 263 63t91 166q0 60 -38 94.5t-99 34.5q-110 0 -190 -101t-111 -257z" />
<glyph unicode="f" horiz-adv-x="645" d="M-174 -281q40 14 68.5 25.5t53 27t39.5 25.5t29 31.5t21 35.5t15.5 46.5t12.5 54.5t13 70l153 880h-118l30 160h117l21 119q27 156 87 227.5t173 71.5q71 0 152 -27t143 -59l-95 -139q-107 43 -166 43q-71 0 -90 -113l-22 -123h225l-31 -160h-223l-151 -868 q-33 -185 -57 -246q-36 -95 -120 -149q-76 -47 -237 -94z" />
<glyph unicode="g" horiz-adv-x="1067" d="M-35 -358l72 170q197 -80 342 -80q199 0 237 221l35 201q-177 -177 -334 -177q-111 0 -182.5 90.5t-71.5 266.5q0 200 54 373.5t158 282t235 108.5q46 0 88 -14.5t77.5 -41.5t60 -51t52.5 -57l27 141h201l-197 -1118q-20 -115 -57 -193.5t-92.5 -122t-121 -61.5 t-153.5 -18q-207 0 -430 80zM272 365q0 -100 32.5 -156.5t94.5 -56.5q72 0 141.5 48.5t143.5 133.5l76 432q-43 70 -98 114t-113 44q-82 0 -147.5 -89t-97.5 -215t-32 -255z" />
<glyph unicode="h" d="M23 0l264 1493h200l-98 -555q204 160 363 160q131 0 184 -88q35 -58 35 -146q0 -46 -10 -100l-136 -764h-202l129 733q7 48 7 88v9q-1 44 -25 71t-72 27q-71 0 -155.5 -49.5t-146.5 -110.5l-135 -768h-202z" />
<glyph unicode="i" horiz-adv-x="464" d="M23 0l190 1075h201l-191 -1075h-200zM240 1270l36 217h218l-39 -217h-215z" />
<glyph unicode="j" horiz-adv-x="464" d="M-223 -279q53 19 88 34t61 33t39.5 31.5t24 40t15 46.5t11.5 61l197 1108h203l-195 -1093q-27 -150 -49 -202q-37 -88 -130 -140q-77 -43 -224 -82zM240 1270l39 217h217l-39 -217h-217z" />
<glyph unicode="k" horiz-adv-x="942" d="M23 0l264 1493h200l-159 -907l389 489h244l-388 -440l246 -635h-207l-174 479l-162 -184l-51 -295h-202z" />
<glyph unicode="l" horiz-adv-x="479" d="M29 0l264 1493h203l-265 -1493h-202z" />
<glyph unicode="m" horiz-adv-x="1572" d="M23 0l190 1075h201l-27 -147q175 170 328 170q98 0 149.5 -54t59.5 -143q72 78 163.5 137.5t186.5 59.5q130 0 180 -91q32 -60 32 -144q0 -44 -9 -95l-136 -768h-202l131 739q7 41 7 73q0 116 -93 116q-114 0 -271 -176l-131 -752h-202l131 739q7 41 7 73q0 116 -93 116 q-64 0 -135 -51t-132 -121l-133 -756h-202z" />
<glyph unicode="n" d="M23 0l190 1075h201l-25 -139q201 162 363 162q131 0 184 -90q35 -59 35 -146q0 -46 -10 -100l-136 -762h-202l131 735q6 46 6 84v11q-1 43 -25.5 70.5t-72.5 27.5q-70 0 -155.5 -50.5t-148.5 -111.5l-133 -766h-202z" />
<glyph unicode="o" horiz-adv-x="1058" d="M63 395q0 80 13.5 161.5t39.5 160.5t68 147.5t96.5 121t128 82.5t158.5 30q86 0 157.5 -24.5t127 -73.5t86.5 -131t31 -189q0 -80 -13.5 -161.5t-39.5 -160.5t-68 -147.5t-96.5 -121t-128 -82.5t-158.5 -30t-156.5 24.5t-127 73.5t-87 131t-31.5 189zM266 391 q0 -248 201 -248q74 0 134 57.5t94.5 144t52.5 175.5t18 164q0 248 -201 248q-74 0 -134 -57.5t-94.5 -144t-52.5 -175.5t-18 -164z" />
<glyph unicode="p" horiz-adv-x="1060" d="M-51 -418l264 1493h201l-25 -133q169 156 313 156q121 0 197 -90.5t76 -266.5q0 -198 -51 -370t-152.5 -283t-232.5 -111q-64 0 -123 27t-94 57.5t-74 75.5l-96 -555h-203zM279 311q99 -159 221 -159q80 0 142.5 88.5t93 213.5t30.5 255q0 102 -36 158.5t-109 56.5 q-65 0 -127 -41t-136 -117z" />
<glyph unicode="q" horiz-adv-x="1067" d="M63 334q0 201 53.5 373.5t157.5 281.5t236 109q86 0 153 -46t128 -118l24 141h203l-264 -1493h-201l100 574q-179 -179 -336 -179q-111 0 -182.5 90.5t-71.5 266.5zM272 365q0 -100 32.5 -156.5t94.5 -56.5q73 0 140.5 48t144.5 136l76 428q-43 71 -98 115.5t-113 44.5 q-82 0 -147.5 -89t-97.5 -215t-32 -255z" />
<glyph unicode="r" horiz-adv-x="698" d="M23 0l190 1075h201l-41 -227q14 25 27 44.5t50 62.5t75 70.5t97 47.5q45 15 93 15q14 0 28 -1l-36 -200q-58 0 -111 -19.5t-91 -51t-71 -69t-53.5 -75.5t-35.5 -69.5t-21 -50.5l-7 -20l-92 -532h-202z" />
<glyph unicode="s" horiz-adv-x="907" d="M-12 125l106 141q71 -48 157.5 -83.5t154.5 -35.5q71 0 120 38t49 106q0 16 -2.5 29.5t-10.5 26t-14 22t-20.5 20t-23.5 17t-29.5 17.5t-31 16t-36 17t-36.5 17q-44 21 -75 38t-67.5 45t-59 58t-37.5 73t-15 93q0 144 100.5 231t261.5 87q104 0 205 -36t176 -85 l-102 -141q-63 39 -138 66.5t-137 27.5q-69 0 -114 -35.5t-45 -97.5q0 -18 5 -34t11 -28t20 -24.5t23 -20t30 -18.5t31 -15.5t35.5 -16t34.5 -15.5q50 -24 85 -44t72.5 -49.5t60.5 -60.5t37.5 -74t14.5 -94q0 -149 -104.5 -237.5t-271.5 -88.5q-214 0 -420 148z" />
<glyph unicode="t" horiz-adv-x="688" d="M106 915l29 160h121l47 264l209 47l-55 -311h237l-26 -160h-240l-113 -641q-3 -22 -4 -39q0 -73 58 -73q37 0 155 51l49 -164q-166 -72 -274 -72q-109 -1 -159 77q-32 49 -32 133q0 48 11 108l108 620h-121z" />
<glyph unicode="u" d="M70 311l135 764h203l-132 -733q-7 -40 -7 -73q0 -122 100 -122q68 0 152.5 49.5t148.5 108.5l137 770h201l-189 -1075h-203l25 137q-208 -160 -362 -160q-131 1 -183 89q-35 58 -35 146q0 46 9 99z" />
<glyph unicode="v" horiz-adv-x="976" d="M121 1075h209l78 -848l378 848h226l-537 -1075h-199z" />
<glyph unicode="w" horiz-adv-x="1409" d="M131 1075h211l23 -813l333 813h164l45 -815l307 815h222l-461 -1075h-191l-49 786l-332 -786h-190z" />
<glyph unicode="x" horiz-adv-x="1005" d="M-82 0l451 539l-242 536h217l154 -409l299 409h245l-432 -534l262 -541h-223l-166 420l-307 -420h-258z" />
<glyph unicode="y" horiz-adv-x="976" d="M-31 -274q122 48 187 97t120 142l-157 1110h211l84 -823l377 823h221l-531 -1075q-81 -163 -124 -222q-80 -110 -212 -171q-57 -27 -131 -49z" />
<glyph unicode="z" horiz-adv-x="913" d="M-39 0l29 156l641 743h-494l33 176h750l-29 -155l-641 -744h512l-33 -176h-768z" />
<glyph unicode="{" horiz-adv-x="694" d="M57 633l29 160q55 -1 95.5 22t62 61.5t32 77.5t13.5 82l12 199q17 241 131.5 362t335.5 121h61l-22 -135h-33q-233 0 -256 -315l-12 -193q-13 -169 -81 -254.5t-196 -111.5q228 -62 146 -371l-43 -158q-12 -47 -18.5 -83.5t-9.5 -77.5t5 -70.5t25.5 -55t51.5 -38.5 t83 -13h31l-25 -135h-31q-206 0 -296.5 131t-24.5 365l51 186q35 132 6 188t-123 56z" />
<glyph unicode="|" horiz-adv-x="458" d="M0 -252l340 1927h152l-340 -1927h-152z" />
<glyph unicode="}" horiz-adv-x="694" d="M-100 -293l22 135h33q233 0 256 316l12 192q13 170 81.5 255.5t195.5 111.5q-227 62 -146 370l43 158q12 47 18.5 83.5t9.5 77.5t-5 70.5t-25.5 55t-51.5 38.5t-83 13h-31l25 135h31q206 0 296.5 -130.5t24.5 -364.5l-51 -187q-35 -132 -6 -187.5t123 -55.5l-29 -160 q-55 1 -95.5 -22t-62 -62t-32 -78t-13.5 -82l-12 -199q-17 -241 -131.5 -362t-335.5 -121h-61z" />
<glyph unicode="~" horiz-adv-x="1085" d="M37 461q71 132 147 198t168 66q56 0 112 -24t94 -53t85.5 -53t89.5 -24q41 0 81 30t93 114l121 -60q-72 -133 -147.5 -197.5t-167.5 -64.5q-46 0 -90.5 15.5t-79.5 38t-68.5 45t-70.5 38t-72 15.5q-42 0 -80.5 -29t-91.5 -115z" />
<glyph unicode="&#xa1;" horiz-adv-x="520" d="M31 0l235 993h123l-113 -993h-245zM250 1171l45 263h217l-45 -263h-217z" />
<glyph unicode="&#xa2;" horiz-adv-x="976" d="M115 578q0 133 27 248.5t73 197t106 140t126.5 86.5t134.5 28h4l28 156h152l-33 -185q23 -9 48 -21t43 -22t43 -26.5t35.5 -23.5t35.5 -25t29 -21l-103 -141q-109 83 -162 106l-127 -715q20 8 42 18t44.5 22t37 20.5t37 22t28.5 16.5l70 -160q-4 -2 -27 -14.5t-32 -17.5 t-32.5 -17t-37 -18.5t-37 -17t-41.5 -17t-40.5 -13.5t-43.5 -12l-29 -172h-152l29 160q-127 18 -201.5 126t-74.5 292zM322 598q0 -203 102 -248l129 733q-98 -39 -164.5 -175t-66.5 -310z" />
<glyph unicode="&#xa3;" horiz-adv-x="983" d="M0 0l27 154q9 6 23.5 17t54.5 48t73 77t67 102t48 126h-182l24 140h166q-5 49 -40.5 177.5t-35.5 213.5q0 183 102.5 292t278.5 109q66 0 128 -15.5t116 -45.5t87.5 -52.5t76.5 -56.5l-113 -133q-158 117 -264 117q-91 0 -148 -64t-57 -164q0 -66 35.5 -184.5 t38.5 -193.5h268l-24 -140h-256q-24 -112 -84 -201.5t-113 -136.5h504l-33 -186h-768z" />
<glyph unicode="&#xa5;" horiz-adv-x="1173" d="M119 328l24 137h310l18 104l-10 31h-293l25 137h225l-215 697h221l176 -672l410 672h245l-462 -697h227l-25 -137h-295l-18 -29l-18 -106h309l-27 -137h-307l-57 -328h-209l55 328h-309z" />
<glyph unicode="&#xa6;" horiz-adv-x="460" d="M0 -252l150 846h151l-149 -846h-152zM190 829l150 846h154l-150 -846h-154z" />
<glyph unicode="&#xa7;" horiz-adv-x="987" d="M29 -27l104 142q62 -39 136.5 -67t136.5 -28q69 0 115 36t46 98q0 18 -5 34t-11 28t-20.5 24.5t-24 20t-30.5 18.5t-31.5 15.5t-36.5 16t-35 15.5q-130 57 -199.5 129.5t-69.5 183.5q0 102 60 175t164 106q-101 84 -101 217q0 144 101 231.5t262 87.5q106 0 205.5 -36 t175.5 -85l-103 -141q-64 39 -138 66.5t-136 27.5q-69 0 -114.5 -35.5t-45.5 -97.5q0 -18 5 -34t10.5 -27.5t21 -24.5t23.5 -20t31 -19t31.5 -15.5t37 -16t35.5 -15.5q130 -58 198 -130.5t68 -182.5q0 -102 -60 -176t-163 -105q102 -85 102 -217q0 -144 -101.5 -231.5 t-262.5 -87.5q-191 0 -381 120zM303 672q0 -20 5.5 -37t11.5 -29.5t24 -27.5t28.5 -23.5t42 -25t47 -24t58.5 -28.5q80 9 128 51t48 109q0 33 -11 57t-41.5 47t-56.5 36.5t-83 41.5q-17 8 -25 12q-80 -9 -128 -51t-48 -108z" />
<glyph unicode="&#xa8;" horiz-adv-x="415" d="M188 1241l37 209h176l-36 -209h-177zM489 1241l37 209h174l-36 -209h-175z" />
<glyph unicode="&#xa9;" horiz-adv-x="1658" d="M119 641q0 131 32.5 251.5t98 223t158 178.5t219 119t274.5 43q206 0 360.5 -84.5t235 -234.5t80.5 -344q0 -131 -32.5 -251.5t-98.5 -223.5t-158 -179t-219.5 -119t-275.5 -43q-309 0 -491.5 184t-182.5 480zM195 643q0 -172 70.5 -304.5t209.5 -209t326 -76.5 q160 0 293 58.5t221 159.5t136 235t48 285q0 262 -162 425.5t-442 163.5q-161 0 -294.5 -58.5t-221.5 -159t-136 -234.5t-48 -285zM469 618q-5 126 27 230.5t90 172t134.5 104t162.5 36.5q54 0 104.5 -12.5t94 -37t69 -42t59.5 -45.5l-59 -61q-131 116 -270 116 q-141 0 -233 -129t-85 -325q5 -126 57.5 -198.5t141.5 -72.5q153 0 313 113l49 -70q-53 -35 -95 -58t-115 -46t-144 -23q-126 0 -210.5 91.5t-90.5 256.5z" />
<glyph unicode="&#xaa;" horiz-adv-x="768" d="M172 995q0 119 33 221.5t98 167t148 64.5q38 0 74 -16.5t55 -33.5t45 -44l14 80h143l-112 -646h-146l15 84q-111 -98 -203 -98q-73 0 -118.5 56t-45.5 165zM319 1016q0 -56 19.5 -87.5t54.5 -31.5q43 0 83 27t85 75l43 238q-56 88 -125 88q-47 0 -85 -50t-56.5 -119.5 t-18.5 -139.5z" />
<glyph unicode="&#xab;" horiz-adv-x="1167" d="M45 500l23 133l585 448l-41 -235l-397 -295l295 -291l-37 -207zM535 500l22 133l586 448l-41 -235l-397 -295l294 -291l-36 -207z" />
<glyph unicode="&#xac;" horiz-adv-x="1085" d="M45 600l31 164h971l-103 -580h-174l74 416h-799z" />
<glyph unicode="&#xad;" horiz-adv-x="761" d="M104 496l31 176h508l-31 -176h-508z" />
<glyph unicode="&#xae;" horiz-adv-x="921" d="M166 1069q0 81 26 154t74.5 129.5t123.5 89.5t167 33q155 0 246.5 -92t91.5 -240q0 -81 -26 -154t-74.5 -129.5t-123.5 -89.5t-167 -33q-155 0 -246.5 92t-91.5 240zM233 1071q0 -118 74 -193t201 -75q148 0 234.5 96.5t86.5 241.5q0 118 -74.5 193t-201.5 75 q-147 0 -233.5 -97t-86.5 -241zM365 926l65 370h162q53 0 84 -27.5t31 -68.5q0 -46 -32.5 -76.5t-84.5 -38.5l61 -159h-65l-58 157h-71l-27 -157h-65zM467 1141h94q39 0 59.5 16.5t20.5 42.5q0 37 -51 37h-105z" />
<glyph unicode="&#xaf;" horiz-adv-x="509" d="M231 1272l23 135h504l-25 -135h-502z" />
<glyph unicode="&#xb0;" horiz-adv-x="806" d="M164 1116q0 132 93.5 226t225.5 94q131 0 224.5 -94t93.5 -226q0 -130 -93.5 -223.5t-224.5 -93.5q-132 0 -225.5 93t-93.5 224zM295 1116q0 -75 55 -129.5t131 -54.5t131.5 54.5t55.5 129.5q0 78 -55 133.5t-132 55.5t-131.5 -55.5t-54.5 -133.5z" />
<glyph unicode="&#xb1;" horiz-adv-x="1087" d="M10 0l27 145h848l-25 -145h-850zM119 614l28 164h340l56 305h164l-54 -305h344l-30 -164h-342l-54 -305h-165l53 305h-340z" />
<glyph unicode="&#xb2;" horiz-adv-x="688" d="M94 788l15 80q9 54 31 102t45.5 80.5t66 69.5t69.5 56t78 53q48 33 67.5 47t53 41t47.5 44t26 40.5t13 46.5q-2 37 -27 59.5t-73 22.5q-91 0 -201 -74l-57 109q133 98 280 98q108 0 169 -56.5t61 -146.5q0 -58 -23 -109t-74.5 -98.5t-83 -70.5t-98.5 -66l-18 -12 q-80 -53 -116 -92t-46 -92h365l-23 -132h-547z" />
<glyph unicode="&#xb3;" horiz-adv-x="692" d="M94 885l82 100q56 -38 102.5 -58t100.5 -20q73 0 118.5 41t45.5 105q0 67 -55.5 99t-135.5 32h-28l22 133h35q75 0 138 38.5t63 98.5q0 35 -25 55.5t-68 20.5q-87 0 -192 -66l-49 107q132 92 274 92q103 0 159 -51t56 -127q0 -72 -46.5 -132.5t-129.5 -95.5 q59 -21 96 -75t37 -127q0 -51 -18.5 -99.5t-54 -90t-96 -66.5t-136.5 -25q-150 0 -295 111z" />
<glyph unicode="&#xb4;" horiz-adv-x="395" d="M186 1221l248 272h258l-327 -272h-179z" />
<glyph unicode="&#xb5;" horiz-adv-x="1114" d="M-31 -418l264 1493h203l-131 -733q-33 -195 92 -195q68 0 152.5 49.5t148.5 108.5l138 770h200l-188 -1075h-203l25 137q-208 -160 -363 -160q-20 0 -65 9l-70 -404h-203z" />
<glyph unicode="&#xb6;" horiz-adv-x="1179" d="M119 885q0 240 144 394.5t378 154.5h178l-319 -1813h-172l157 897q-168 0 -267 94.5t-99 272.5zM659 -379l322 1813h172l-319 -1813h-175z" />
<glyph unicode="&#xb7;" horiz-adv-x="468" d="M96 444l47 277h217l-49 -277h-215z" />
<glyph unicode="&#xb8;" horiz-adv-x="296" d="M-68 -319l64 114q40 -24 82 -24t70 27t28 85q0 26 -5.5 56.5t-10.5 47.5l-6 17h90q39 -68 39 -154q0 -97 -57.5 -152.5t-147.5 -55.5q-87 0 -146 39z" />
<glyph unicode="&#xb9;" horiz-adv-x="538" d="M184 1524l219 125h142l-154 -861h-149l125 703l-129 -72z" />
<glyph unicode="&#xba;" horiz-adv-x="749" d="M170 1032q0 58 11.5 115.5t36.5 112t61 96t90.5 67t119.5 25.5q115 0 188 -64t73 -194q0 -58 -11.5 -115.5t-36.5 -112t-61.5 -96t-91 -67t-119.5 -25.5q-115 0 -187.5 64t-72.5 194zM313 1030q0 -137 117 -137q44 0 79.5 32t55 80t29.5 96.5t10 90.5q0 137 -117 137 q-43 0 -78.5 -32t-55 -80t-30 -97t-10.5 -90z" />
<glyph unicode="&#xbb;" horiz-adv-x="1169" d="M10 51l41 236l398 295l-295 290l36 207l428 -446l-22 -133zM500 51l41 236l397 295l-295 290l37 207l428 -446l-23 -133z" />
<glyph unicode="&#xbc;" horiz-adv-x="1452" d="M170 1309l219 125h141l-153 -861h-150l125 703l-129 -72zM193 0l798 1434h160l-801 -1434h-157zM657 174l21 113l436 573h199l-101 -555h113l-22 -131h-113l-31 -174h-147l30 174h-385zM834 305h231l72 406z" />
<glyph unicode="&#xbd;" horiz-adv-x="1495" d="M170 1309l219 125h141l-153 -861h-150l125 703l-129 -72zM193 0l798 1434h160l-801 -1434h-157zM745 0l15 80q6 39 19.5 75t28 63t40 56t43.5 47t52 43.5t52 38t56 37.5q39 27 56 39.5t47 35t43.5 36.5t30 33.5t23 37.5t6.5 37q-2 37 -27 59.5t-73 22.5q-93 0 -201 -73 l-57 108q133 98 281 98q108 0 168.5 -56t60.5 -146q0 -47 -18 -92t-45 -78.5t-67.5 -68t-74 -57.5t-76.5 -51q-11 -7 -16 -10q-80 -53 -116 -92t-46 -92h365l-23 -131h-547z" />
<glyph unicode="&#xbe;" horiz-adv-x="1636" d="M82 670l82 100q56 -38 102.5 -58t100.5 -20q73 0 118 41t45 105q0 67 -55.5 99t-134.5 32h-29l23 133h35q75 0 137.5 38.5t62.5 98.5q0 35 -24.5 55.5t-67.5 20.5q-87 0 -192 -66l-49 107q132 92 274 92q103 0 159 -51t56 -127q0 -72 -46.5 -132.5t-129.5 -95.5 q59 -21 96 -75t37 -127q0 -51 -18.5 -99.5t-54 -90t-96 -66.5t-136.5 -25q-150 0 -295 111zM379 0l799 1434h159l-800 -1434h-158zM844 174l20 113l436 573h199l-100 -555h112l-22 -131h-113l-30 -174h-148l31 174h-385zM1020 305h231l72 406z" />
<glyph unicode="&#xbf;" horiz-adv-x="897" d="M23 283q0 76 28.5 143.5t73.5 116.5t106.5 90.5t120.5 67.5t123 44l57 248h134l-50 -368q-378 -107 -378 -314q0 -71 43 -109t118 -38q109 0 279 106l80 -151q-199 -142 -400 -142q-147 0 -241 80t-94 226zM522 1171l45 263h215l-45 -263h-215z" />
<glyph unicode="&#xc0;" horiz-adv-x="1189" d="M-68 0l695 1434h231l189 -1434h-222l-30 328h-480l-145 -328h-238zM393 506h385l-65 721zM518 1802h232l161 -272h-155z" />
<glyph unicode="&#xc1;" horiz-adv-x="1189" d="M-68 0l695 1434h231l189 -1434h-222l-30 328h-480l-145 -328h-238zM393 506h385l-65 721zM610 1530l248 272h258l-328 -272h-178z" />
<glyph unicode="&#xc2;" horiz-adv-x="1189" d="M-68 0l695 1434h231l189 -1434h-222l-30 328h-480l-145 -328h-238zM393 506h385l-65 721zM487 1530l220 272h206l123 -272h-133l-104 168l-160 -168h-152z" />
<glyph unicode="&#xc3;" horiz-adv-x="1189" d="M-68 0l695 1434h231l189 -1434h-222l-30 328h-480l-145 -328h-238zM393 506h385l-65 721zM489 1610q56 90 97 130t100 40q38 0 76.5 -25t70.5 -49.5t54 -24.5q41 0 102 95l88 -64q-54 -89 -95 -128.5t-101 -39.5q-38 0 -76 24.5t-70 49t-55 24.5q-21 0 -43.5 -18.5 t-58.5 -75.5z" />
<glyph unicode="&#xc4;" horiz-adv-x="1189" d="M-68 0l695 1434h231l189 -1434h-222l-30 328h-480l-145 -328h-238zM393 506h385l-65 721zM526 1550l37 209h176l-37 -209h-176zM827 1550l37 209h174l-37 -209h-174z" />
<glyph unicode="&#xc5;" horiz-adv-x="1193" d="M-68 0l695 1434h231l189 -1434h-222l-30 328h-480l-145 -328h-238zM393 506h385l-65 721zM586 1714q0 85 59.5 145t145.5 60q85 0 144.5 -60t59.5 -145q0 -86 -59.5 -145.5t-144.5 -59.5q-86 0 -145.5 59.5t-59.5 145.5zM692 1714q0 -40 29 -69t70 -29q40 0 69 29t29 69 t-29 69t-69 29q-41 0 -70 -29t-29 -69z" />
<glyph unicode="&#xc6;" horiz-adv-x="1753" d="M-129 0l1044 1434h879l-33 -189h-577l-76 -436h475l-35 -184h-473l-78 -437h588l-33 -188h-798l57 328h-442l-230 -328h-268zM498 510h346l117 655z" />
<glyph unicode="&#xc7;" horiz-adv-x="1120" d="M106 520q0 194 45.5 366.5t125 298t193 198.5t243.5 73q56 0 111.5 -14t95.5 -31.5t92.5 -52t79 -55.5t77.5 -62l-118 -151q-98 84 -173.5 125.5t-148.5 41.5q-113 0 -207 -102.5t-146 -269t-52 -357.5q0 -179 53 -265.5t149 -86.5q127 0 373 164l88 -168 q-129 -81 -236.5 -130t-213.5 -60q28 -63 28 -132q0 -97 -57.5 -152.5t-147.5 -55.5q-86 0 -145 39l64 114q40 -24 81 -24q42 0 70.5 27t28.5 85q0 35 -15 97q-160 12 -249 148t-89 392z" />
<glyph unicode="&#xc8;" horiz-adv-x="1050" d="M51 0l254 1434h787l-33 -189h-578l-75 -436h475l-35 -184h-473l-78 -437h588l-33 -188h-799zM479 1802h232l161 -272h-155z" />
<glyph unicode="&#xc9;" horiz-adv-x="1050" d="M51 0l254 1434h787l-33 -189h-578l-75 -436h475l-35 -184h-473l-78 -437h588l-33 -188h-799zM561 1530l248 272h258l-328 -272h-178z" />
<glyph unicode="&#xca;" horiz-adv-x="1050" d="M51 0l254 1434h787l-33 -189h-578l-75 -436h475l-35 -184h-473l-78 -437h588l-33 -188h-799zM446 1530l220 272h206l123 -272h-133l-104 168l-160 -168h-152z" />
<glyph unicode="&#xcb;" horiz-adv-x="1050" d="M51 0l254 1434h787l-33 -189h-578l-75 -436h475l-35 -184h-473l-78 -437h588l-33 -188h-799zM489 1550l37 209h176l-36 -209h-177zM791 1550l36 209h174l-36 -209h-174z" />
<glyph unicode="&#xcc;" horiz-adv-x="532" d="M51 0l254 1434h209l-252 -1434h-211zM186 1802h232l162 -272h-156z" />
<glyph unicode="&#xcd;" horiz-adv-x="530" d="M51 0l254 1434h209l-252 -1434h-211zM268 1530l248 272h258l-328 -272h-178z" />
<glyph unicode="&#xce;" horiz-adv-x="530" d="M51 0l254 1434h209l-252 -1434h-211zM152 1530l219 272h207l122 -272h-133l-104 168l-160 -168h-151z" />
<glyph unicode="&#xcf;" horiz-adv-x="532" d="M51 0l254 1434h209l-252 -1434h-211zM195 1550l36 209h177l-37 -209h-176zM496 1550l36 209h175l-37 -209h-174z" />
<glyph unicode="&#xd0;" horiz-adv-x="1255" d="M57 629l29 176h125l113 629h299q277 0 420 -138.5t143 -396.5q0 -133 -26 -259t-84.5 -243t-143.5 -204.5t-212.5 -140t-281.5 -52.5h-368l110 629h-123zM313 188h117q165 0 289 92.5t188 251t64 359.5q0 187 -93 270.5t-272 83.5h-106l-78 -440h258l-31 -176h-258z" />
<glyph unicode="&#xd1;" horiz-adv-x="1273" d="M51 0l254 1434h213l338 -1092l193 1092h208l-251 -1434h-213l-340 1087l-191 -1087h-211zM537 1610q56 90 96.5 130t99.5 40q38 0 76.5 -25t70.5 -49.5t54 -24.5q41 0 102 95l88 -64q-54 -89 -95 -128.5t-101 -39.5q-38 0 -76 24.5t-70 49t-55 24.5q-21 0 -43.5 -18.5 t-58.5 -75.5z" />
<glyph unicode="&#xd2;" horiz-adv-x="1306" d="M106 514q0 70 10 151t33.5 172.5t58 178.5t87.5 167.5t117 140.5t151.5 96t186.5 36q234 0 359.5 -134.5t125.5 -397.5q0 -71 -10 -152t-33.5 -173.5t-58 -179.5t-87 -168t-116.5 -141.5t-151.5 -96.5t-186.5 -36q-235 0 -360.5 136t-125.5 401zM322 514q0 -79 14 -140 t44.5 -109t85 -73.5t130.5 -25.5q67 0 125.5 32.5t100.5 85.5t76.5 122.5t56.5 141.5t37 144.5t21.5 129.5t6.5 98q0 348 -275 348q-67 0 -125.5 -32.5t-100.5 -85.5t-76.5 -122.5t-56.5 -141.5t-37 -144.5t-21 -129.5t-6 -98zM573 1802h232l162 -272h-156z" />
<glyph unicode="&#xd3;" horiz-adv-x="1306" d="M106 514q0 70 10 151t33.5 172.5t58 178.5t87.5 167.5t117 140.5t151.5 96t186.5 36q234 0 359.5 -134.5t125.5 -397.5q0 -71 -10 -152t-33.5 -173.5t-58 -179.5t-87 -168t-116.5 -141.5t-151.5 -96.5t-186.5 -36q-235 0 -360.5 136t-125.5 401zM322 514q0 -79 14 -140 t44.5 -109t85 -73.5t130.5 -25.5q67 0 125.5 32.5t100.5 85.5t76.5 122.5t56.5 141.5t37 144.5t21.5 129.5t6.5 98q0 348 -275 348q-67 0 -125.5 -32.5t-100.5 -85.5t-76.5 -122.5t-56.5 -141.5t-37 -144.5t-21 -129.5t-6 -98zM655 1530l248 272h258l-327 -272h-179z" />
<glyph unicode="&#xd4;" horiz-adv-x="1306" d="M106 514q0 70 10 151t33.5 172.5t58 178.5t87.5 167.5t117 140.5t151.5 96t186.5 36q234 0 359.5 -134.5t125.5 -397.5q0 -71 -10 -152t-33.5 -173.5t-58 -179.5t-87 -168t-116.5 -141.5t-151.5 -96.5t-186.5 -36q-235 0 -360.5 136t-125.5 401zM322 514q0 -79 14 -140 t44.5 -109t85 -73.5t130.5 -25.5q67 0 125.5 32.5t100.5 85.5t76.5 122.5t56.5 141.5t37 144.5t21.5 129.5t6.5 98q0 348 -275 348q-67 0 -125.5 -32.5t-100.5 -85.5t-76.5 -122.5t-56.5 -141.5t-37 -144.5t-21 -129.5t-6 -98zM543 1530l219 272h207l123 -272h-134l-104 168 l-160 -168h-151z" />
<glyph unicode="&#xd5;" horiz-adv-x="1306" d="M106 514q0 70 10 151t33.5 172.5t58 178.5t87.5 167.5t117 140.5t151.5 96t186.5 36q234 0 359.5 -134.5t125.5 -397.5q0 -71 -10 -152t-33.5 -173.5t-58 -179.5t-87 -168t-116.5 -141.5t-151.5 -96.5t-186.5 -36q-235 0 -360.5 136t-125.5 401zM322 514q0 -79 14 -140 t44.5 -109t85 -73.5t130.5 -25.5q67 0 125.5 32.5t100.5 85.5t76.5 122.5t56.5 141.5t37 144.5t21.5 129.5t6.5 98q0 348 -275 348q-67 0 -125.5 -32.5t-100.5 -85.5t-76.5 -122.5t-56.5 -141.5t-37 -144.5t-21 -129.5t-6 -98zM543 1610q56 90 96.5 130t99.5 40 q38 0 76.5 -25t70.5 -49.5t54 -24.5q41 0 102 95l88 -64q-54 -89 -95 -128.5t-101 -39.5q-38 0 -76 24.5t-70 49t-55 24.5q-21 0 -43.5 -18.5t-58.5 -75.5z" />
<glyph unicode="&#xd6;" horiz-adv-x="1306" d="M106 514q0 70 10 151t33.5 172.5t58 178.5t87.5 167.5t117 140.5t151.5 96t186.5 36q234 0 359.5 -134.5t125.5 -397.5q0 -71 -10 -152t-33.5 -173.5t-58 -179.5t-87 -168t-116.5 -141.5t-151.5 -96.5t-186.5 -36q-235 0 -360.5 136t-125.5 401zM322 514q0 -79 14 -140 t44.5 -109t85 -73.5t130.5 -25.5q67 0 125.5 32.5t100.5 85.5t76.5 122.5t56.5 141.5t37 144.5t21.5 129.5t6.5 98q0 348 -275 348q-67 0 -125.5 -32.5t-100.5 -85.5t-76.5 -122.5t-56.5 -141.5t-37 -144.5t-21 -129.5t-6 -98zM584 1550l37 209h176l-37 -209h-176zM885 1550 l37 209h174l-37 -209h-174z" />
<glyph unicode="&#xd7;" horiz-adv-x="1093" d="M147 416l302 278l-201 281l133 96l190 -264l287 266l111 -117l-303 -280l204 -279l-135 -96l-190 262l-287 -264z" />
<glyph unicode="&#xd8;" horiz-adv-x="1306" d="M23 0l151 193q-68 124 -68 321q0 70 10 151t33.5 172.5t58 178.5t87.5 167.5t117 140.5t151.5 96t186.5 36q213 0 337 -115l74 93h158l-154 -193q70 -128 70 -317q0 -71 -10 -152t-33.5 -173.5t-58 -179.5t-87 -168t-116.5 -141.5t-151.5 -96.5t-186.5 -36 q-218 0 -340 113l-72 -90h-157zM322 514q0 -76 10 -125l624 787q-69 92 -211 92q-67 0 -125.5 -32.5t-100.5 -85.5t-76.5 -122.5t-56.5 -141.5t-37 -144.5t-21 -129.5t-6 -98zM385 258q69 -92 211 -92q67 0 125.5 32.5t100.5 85.5t76.5 122.5t56.5 141.5t37 144.5 t21.5 129.5t6.5 98q0 59 -10 124z" />
<glyph unicode="&#xd9;" horiz-adv-x="1228" d="M112.5 345q2.5 81 16.5 173l164 916h209l-166 -945q-8 -47 -11 -84.5t-0.5 -75.5t15.5 -66t36 -50t61 -33.5t89 -11.5q76 0 133.5 24.5t94 70t59 100.5t35.5 126l166 945h211l-168 -945q-16 -91 -40 -163.5t-66.5 -139.5t-100 -111.5t-142 -71t-190.5 -26.5 q-112 0 -192.5 27t-125 76t-67.5 116.5t-20.5 148.5zM532 1802h232l162 -272h-156z" />
<glyph unicode="&#xda;" horiz-adv-x="1228" d="M112.5 345q2.5 81 16.5 173l164 916h209l-166 -945q-8 -47 -11 -84.5t-0.5 -75.5t15.5 -66t36 -50t61 -33.5t89 -11.5q76 0 133.5 24.5t94 70t59 100.5t35.5 126l166 945h211l-168 -945q-16 -91 -40 -163.5t-66.5 -139.5t-100 -111.5t-142 -71t-190.5 -26.5 q-112 0 -192.5 27t-125 76t-67.5 116.5t-20.5 148.5zM614 1530l248 272h258l-327 -272h-179z" />
<glyph unicode="&#xdb;" horiz-adv-x="1228" d="M112.5 345q2.5 81 16.5 173l164 916h209l-166 -945q-8 -47 -11 -84.5t-0.5 -75.5t15.5 -66t36 -50t61 -33.5t89 -11.5q76 0 133.5 24.5t94 70t59 100.5t35.5 126l166 945h211l-168 -945q-16 -91 -40 -163.5t-66.5 -139.5t-100 -111.5t-142 -71t-190.5 -26.5 q-112 0 -192.5 27t-125 76t-67.5 116.5t-20.5 148.5zM500 1530l219 272h207l123 -272h-134l-104 168l-160 -168h-151z" />
<glyph unicode="&#xdc;" horiz-adv-x="1228" d="M112.5 345q2.5 81 16.5 173l164 916h209l-166 -945q-8 -47 -11 -84.5t-0.5 -75.5t15.5 -66t36 -50t61 -33.5t89 -11.5q76 0 133.5 24.5t94 70t59 100.5t35.5 126l166 945h211l-168 -945q-16 -91 -40 -163.5t-66.5 -139.5t-100 -111.5t-142 -71t-190.5 -26.5 q-112 0 -192.5 27t-125 76t-67.5 116.5t-20.5 148.5zM543 1550l37 209h176l-37 -209h-176zM844 1550l37 209h174l-37 -209h-174z" />
<glyph unicode="&#xdd;" horiz-adv-x="1103" d="M166 1434h221l176 -672l410 672h246l-574 -863l-100 -571h-209l98 569zM549 1530l248 272h258l-328 -272h-178z" />
<glyph unicode="&#xde;" horiz-adv-x="1155" d="M51 0l254 1434h209l-43 -248h197q436 0 436 -363q0 -244 -147.5 -387t-409.5 -143h-232l-53 -293h-211zM346 477h201q153 0 246.5 86t93.5 244q0 194 -232 194h-215z" />
<glyph unicode="&#xdf;" horiz-adv-x="1169" d="M23 0l178 1012q43 248 163 366.5t330 118.5q190 0 290.5 -85.5t100.5 -223.5q0 -43 -10 -83t-24 -66.5t-28 -46.5t-24 -29l-10 -9q-201 -64 -201 -184q0 -28 13 -53t29 -42t50.5 -50.5t57.5 -59.5q58 -61 88.5 -122.5t30.5 -137.5q0 -144 -102.5 -236t-252.5 -92 q-165 0 -344 117l107 142q126 -86 227 -86q66 0 112 39.5t46 107.5q0 81 -90 166q-9 8 -37 33.5t-40.5 37.5t-34.5 39t-32.5 49.5t-19 55.5t-8.5 70q0 58 21 107.5t48 81t71 60.5t71 41.5t67 28.5q23 52 23 100q0 75 -50 119.5t-145 44.5q-114 0 -187.5 -75t-105.5 -257 l-176 -999h-202z" />
<glyph unicode="&#xe0;" horiz-adv-x="1067" d="M63 334q0 201 53.5 373.5t157.5 281.5t236 109q86 0 153 -46t128 -118l24 141h203l-191 -1075h-200l26 156q-179 -179 -336 -179q-111 0 -182.5 90.5t-71.5 266.5zM272 365q0 -100 32.5 -156.5t94.5 -56.5q72 0 140.5 48.5t146.5 135.5l74 428q-43 71 -98 115.5 t-113 44.5q-82 0 -147.5 -89t-97.5 -215t-32 -255zM422 1493h231l162 -272h-156z" />
<glyph unicode="&#xe1;" horiz-adv-x="1058" d="M63 334q0 201 53.5 373.5t157.5 281.5t236 109q86 0 153 -46t128 -118l24 141h203l-191 -1075h-200l26 156q-179 -179 -336 -179q-111 0 -182.5 90.5t-71.5 266.5zM272 365q0 -100 32.5 -156.5t94.5 -56.5q72 0 140.5 48.5t146.5 135.5l74 428q-43 71 -98 115.5 t-113 44.5q-82 0 -147.5 -89t-97.5 -215t-32 -255zM477 1221l248 272h258l-328 -272h-178z" />
<glyph unicode="&#xe2;" horiz-adv-x="1067" d="M63 334q0 201 53.5 373.5t157.5 281.5t236 109q86 0 153 -46t128 -118l24 141h203l-191 -1075h-200l26 156q-179 -179 -336 -179q-111 0 -182.5 90.5t-71.5 266.5zM272 365q0 -100 32.5 -156.5t94.5 -56.5q72 0 140.5 48.5t146.5 135.5l74 428q-43 71 -98 115.5 t-113 44.5q-82 0 -147.5 -89t-97.5 -215t-32 -255zM387 1221l219 272h207l123 -272h-133l-105 168l-159 -168h-152z" />
<glyph unicode="&#xe3;" horiz-adv-x="1067" d="M63 334q0 201 53.5 373.5t157.5 281.5t236 109q86 0 153 -46t128 -118l24 141h203l-191 -1075h-200l26 156q-179 -179 -336 -179q-111 0 -182.5 90.5t-71.5 266.5zM272 365q0 -100 32.5 -156.5t94.5 -56.5q72 0 140.5 48.5t146.5 135.5l74 428q-43 71 -98 115.5 t-113 44.5q-82 0 -147.5 -89t-97.5 -215t-32 -255zM393 1300q56 90 97 130t100 40q38 0 76.5 -24.5t70.5 -49t54 -24.5q20 0 43 19t59 75l88 -63q-54 -88 -95.5 -128t-101.5 -40q-38 0 -75.5 24.5t-69.5 49t-55 24.5q-21 0 -44 -18.5t-59 -75.5z" />
<glyph unicode="&#xe4;" horiz-adv-x="1067" d="M63 334q0 201 53.5 373.5t157.5 281.5t236 109q86 0 153 -46t128 -118l24 141h203l-191 -1075h-200l26 156q-179 -179 -336 -179q-111 0 -182.5 90.5t-71.5 266.5zM272 365q0 -100 32.5 -156.5t94.5 -56.5q72 0 140.5 48.5t146.5 135.5l74 428q-43 71 -98 115.5 t-113 44.5q-82 0 -147.5 -89t-97.5 -215t-32 -255zM436 1241l37 209h176l-37 -209h-176zM737 1241l37 209h174l-37 -209h-174z" />
<glyph unicode="&#xe5;" horiz-adv-x="1067" d="M63 334q0 201 53.5 373.5t157.5 281.5t236 109q86 0 153 -46t128 -118l24 141h203l-191 -1075h-200l26 156q-179 -179 -336 -179q-111 0 -182.5 90.5t-71.5 266.5zM272 365q0 -100 32.5 -156.5t94.5 -56.5q72 0 140.5 48.5t146.5 135.5l74 428q-43 71 -98 115.5 t-113 44.5q-82 0 -147.5 -89t-97.5 -215t-32 -255zM496 1405q0 85 59 145t145 60q85 0 145 -60t60 -145q0 -86 -60 -145.5t-145 -59.5q-86 0 -145 59.5t-59 145.5zM602 1405q0 -40 28.5 -69t69.5 -29q40 0 69.5 29t29.5 69t-29.5 69t-69.5 29q-41 0 -69.5 -29t-28.5 -69z " />
<glyph unicode="&#xe6;" horiz-adv-x="1601" d="M63 334q0 201 53.5 373.5t157.5 281.5t236 109q86 0 153 -46t128 -118l24 141h203l-4 -24q96 47 211 47q148 0 232.5 -75.5t84.5 -201.5q0 -186 -147.5 -277t-409.5 -91h-90v-41q0 -129 43 -200t129 -71q30 0 62.5 7.5t74 26.5t61.5 28.5t70.5 38.5t55.5 32l65 -145 q-50 -32 -105 -61t-150.5 -60t-176.5 -31q-114 0 -190 58l-7 -35h-200l26 156q-179 -179 -336 -179q-111 0 -182.5 90.5t-71.5 266.5zM272 365q0 -100 32.5 -156.5t94.5 -56.5q72 0 140.5 48.5t146.5 135.5l4 31v49q0 191 68 352q-43 69 -97.5 112.5t-111.5 43.5 q-82 0 -147.5 -89t-97.5 -215t-32 -255zM911 582h84q172 0 263.5 63.5t91.5 165.5q0 60 -38.5 94.5t-99.5 34.5q-110 0 -190 -101t-111 -257z" />
<glyph unicode="&#xe7;" horiz-adv-x="894" d="M61 397q0 166 41.5 302.5t109 221.5t150 131t168.5 46q40 0 81.5 -9t70.5 -18.5t68 -31t55.5 -32t53 -35.5t40.5 -28l-102 -143q-4 3 -32 23.5t-45 31.5t-45.5 27t-56 24t-53.5 8q-119 0 -208 -146.5t-89 -350.5q0 -122 42 -190t122 -68q30 0 71 14t68.5 28.5t70.5 38.5 t52 29l68 -161q-4 -2 -31 -16.5t-38 -20l-39 -19.5t-45 -20.5t-45 -17.5t-49.5 -17t-48 -11t-50.5 -7q26 -70 26 -130q0 -97 -57 -152.5t-147 -55.5q-87 0 -146 39l64 114q40 -24 82 -24t70 27t28 85q0 36 -17 101q-119 24 -188.5 130t-69.5 283z" />
<glyph unicode="&#xe8;" horiz-adv-x="972" d="M61 416q0 195 65 349.5t187.5 243.5t282.5 89q148 0 232.5 -75.5t84.5 -201.5q0 -186 -147.5 -277t-409.5 -91h-90v-41q0 -129 43 -200t129 -71q30 0 62.5 7.5t74 26.5t61.5 28.5t70.5 38.5t55.5 32l65 -145q-50 -32 -105 -61t-150.5 -60t-176.5 -31q-155 0 -244.5 110 t-89.5 329zM283 582h84q172 0 263 63t91 166q0 60 -38 94.5t-99 34.5q-110 0 -190 -101t-111 -257zM383 1493h231l162 -272h-155z" />
<glyph unicode="&#xe9;" horiz-adv-x="972" d="M61 416q0 195 65 349.5t187.5 243.5t282.5 89q148 0 232.5 -75.5t84.5 -201.5q0 -186 -147.5 -277t-409.5 -91h-90v-41q0 -129 43 -200t129 -71q30 0 62.5 7.5t74 26.5t61.5 28.5t70.5 38.5t55.5 32l65 -145q-50 -32 -105 -61t-150.5 -60t-176.5 -31q-155 0 -244.5 110 t-89.5 329zM283 582h84q172 0 263 63t91 166q0 60 -38 94.5t-99 34.5q-110 0 -190 -101t-111 -257zM467 1221l248 272h258l-328 -272h-178z" />
<glyph unicode="&#xea;" horiz-adv-x="972" d="M61 416q0 195 65 349.5t187.5 243.5t282.5 89q148 0 232.5 -75.5t84.5 -201.5q0 -186 -147.5 -277t-409.5 -91h-90v-41q0 -129 43 -200t129 -71q30 0 62.5 7.5t74 26.5t61.5 28.5t70.5 38.5t55.5 32l65 -145q-50 -32 -105 -61t-150.5 -60t-176.5 -31q-155 0 -244.5 110 t-89.5 329zM283 582h84q172 0 263 63t91 166q0 60 -38 94.5t-99 34.5q-110 0 -190 -101t-111 -257zM350 1221l219 272h207l123 -272h-133l-104 168l-160 -168h-152z" />
<glyph unicode="&#xeb;" horiz-adv-x="970" d="M61 416q0 195 65 349.5t187.5 243.5t282.5 89q148 0 232.5 -75.5t84.5 -201.5q0 -186 -147.5 -277t-409.5 -91h-90v-41q0 -129 43 -200t129 -71q30 0 62.5 7.5t74 26.5t61.5 28.5t70.5 38.5t55.5 32l65 -145q-50 -32 -105 -61t-150.5 -60t-176.5 -31q-155 0 -244.5 110 t-89.5 329zM283 582h84q172 0 263 63t91 166q0 60 -38 94.5t-99 34.5q-110 0 -190 -101t-111 -257zM395 1241l37 209h176l-37 -209h-176zM696 1241l37 209h174l-37 -209h-174z" />
<glyph unicode="&#xec;" horiz-adv-x="464" d="M23 0l190 1075h201l-191 -1075h-200zM96 1493h232l161 -272h-155z" />
<glyph unicode="&#xed;" horiz-adv-x="464" d="M23 0l190 1075h201l-191 -1075h-200zM180 1221l248 272h258l-328 -272h-178z" />
<glyph unicode="&#xee;" horiz-adv-x="464" d="M23 0l190 1075h201l-191 -1075h-200zM63 1221l220 272h206l123 -272h-133l-104 168l-160 -168h-152z" />
<glyph unicode="&#xef;" horiz-adv-x="464" d="M23 0l190 1075h201l-191 -1075h-200zM106 1241l37 209h176l-36 -209h-177zM408 1241l36 209h174l-36 -209h-174z" />
<glyph unicode="&#xf0;" horiz-adv-x="1075" d="M53 393q0 158 61.5 291.5t170.5 212t239 78.5q57 0 106.5 -17t78.5 -39.5t52.5 -51t31.5 -43.5t12 -25q-5 134 -48 244.5t-128 168.5l-97 -92h-184l146 142l-39 2q-33 0 -68.5 -5t-54.5 -9l-19 -5l2 168q68 21 160 21q84 0 170 -27l90 86h185l-156 -150 q114 -85 171.5 -238t57.5 -355q0 -226 -65 -400.5t-190 -273.5t-292 -99q-187 0 -290 111t-103 305zM262 387q0 -110 47 -176t150 -66q78 0 139.5 41.5t96 106.5t52 135.5t17.5 138.5q0 111 -50 175.5t-151 64.5q-94 0 -165 -65.5t-103.5 -159t-32.5 -195.5z" />
<glyph unicode="&#xf1;" d="M23 0l190 1075h201l-25 -139q201 162 363 162q131 0 184 -89.5t25 -246.5l-136 -762h-202l131 735q7 52 6 95t-25.5 70.5t-72.5 27.5q-70 0 -155.5 -50.5t-148.5 -111.5l-133 -766h-202zM369 1300q56 90 96.5 130t99.5 40q38 0 76.5 -24.5t70.5 -49t54 -24.5q20 0 43 19 t59 75l88 -63q-54 -89 -95 -128.5t-101 -39.5q-38 0 -76 24.5t-70 49t-55 24.5q-21 0 -43.5 -18.5t-58.5 -75.5z" />
<glyph unicode="&#xf2;" horiz-adv-x="1058" d="M63 395q0 80 13.5 161.5t39.5 160.5t68 147.5t96.5 121t128 82.5t158.5 30q86 0 157.5 -24.5t127 -73.5t86.5 -131t31 -189q0 -80 -13.5 -161.5t-39.5 -160.5t-68 -147.5t-96.5 -121t-128 -82.5t-158.5 -30t-156.5 24.5t-127 73.5t-87 131t-31.5 189zM266 391 q0 -248 201 -248q74 0 134 57.5t94.5 144t52.5 175.5t18 164q0 248 -201 248q-74 0 -134 -57.5t-94.5 -144t-52.5 -175.5t-18 -164zM395 1493h232l161 -272h-155z" />
<glyph unicode="&#xf3;" horiz-adv-x="1058" d="M63 395q0 80 13.5 161.5t39.5 160.5t68 147.5t96.5 121t128 82.5t158.5 30q86 0 157.5 -24.5t127 -73.5t86.5 -131t31 -189q0 -80 -13.5 -161.5t-39.5 -160.5t-68 -147.5t-96.5 -121t-128 -82.5t-158.5 -30t-156.5 24.5t-127 73.5t-87 131t-31.5 189zM266 391 q0 -248 201 -248q74 0 134 57.5t94.5 144t52.5 175.5t18 164q0 248 -201 248q-74 0 -134 -57.5t-94.5 -144t-52.5 -175.5t-18 -164zM477 1221l248 272h258l-328 -272h-178z" />
<glyph unicode="&#xf4;" horiz-adv-x="1058" d="M63 395q0 80 13.5 161.5t39.5 160.5t68 147.5t96.5 121t128 82.5t158.5 30q86 0 157.5 -24.5t127 -73.5t86.5 -131t31 -189q0 -80 -13.5 -161.5t-39.5 -160.5t-68 -147.5t-96.5 -121t-128 -82.5t-158.5 -30t-156.5 24.5t-127 73.5t-87 131t-31.5 189zM266 391 q0 -248 201 -248q74 0 134 57.5t94.5 144t52.5 175.5t18 164q0 248 -201 248q-74 0 -134 -57.5t-94.5 -144t-52.5 -175.5t-18 -164zM362 1221l220 272h206l123 -272h-133l-104 168l-160 -168h-152z" />
<glyph unicode="&#xf5;" horiz-adv-x="1058" d="M63 395q0 80 13.5 161.5t39.5 160.5t68 147.5t96.5 121t128 82.5t158.5 30q86 0 157.5 -24.5t127 -73.5t86.5 -131t31 -189q0 -80 -13.5 -161.5t-39.5 -160.5t-68 -147.5t-96.5 -121t-128 -82.5t-158.5 -30t-156.5 24.5t-127 73.5t-87 131t-31.5 189zM266 391 q0 -248 201 -248q74 0 134 57.5t94.5 144t52.5 175.5t18 164q0 248 -201 248q-74 0 -134 -57.5t-94.5 -144t-52.5 -175.5t-18 -164zM367 1300q56 90 96.5 130t99.5 40q38 0 76.5 -24.5t70.5 -49t54 -24.5q20 0 43 19t59 75l88 -63q-54 -89 -95 -128.5t-101 -39.5 q-38 0 -76 24.5t-70 49t-55 24.5q-21 0 -43.5 -18.5t-58.5 -75.5z" />
<glyph unicode="&#xf6;" horiz-adv-x="1058" d="M63 395q0 80 13.5 161.5t39.5 160.5t68 147.5t96.5 121t128 82.5t158.5 30q86 0 157.5 -24.5t127 -73.5t86.5 -131t31 -189q0 -80 -13.5 -161.5t-39.5 -160.5t-68 -147.5t-96.5 -121t-128 -82.5t-158.5 -30t-156.5 24.5t-127 73.5t-87 131t-31.5 189zM266 391 q0 -248 201 -248q74 0 134 57.5t94.5 144t52.5 175.5t18 164q0 248 -201 248q-74 0 -134 -57.5t-94.5 -144t-52.5 -175.5t-18 -164zM406 1241l36 209h176l-36 -209h-176zM707 1241l36 209h175l-37 -209h-174z" />
<glyph unicode="&#xf7;" horiz-adv-x="1085" d="M115 600l28 164h848l-28 -164h-848zM379 336q0 47 33 81t80 34q46 0 79 -34t33 -81q0 -46 -33 -79.5t-79 -33.5q-47 0 -80 33.5t-33 79.5zM500 1030q0 46 33 79.5t79 33.5q47 0 81 -33.5t34 -79.5q0 -47 -34 -81t-81 -34q-46 0 -79 34t-33 81z" />
<glyph unicode="&#xf8;" horiz-adv-x="1058" d="M2 0l121 147q-60 102 -60 248q0 80 13.5 161.5t39.5 160.5t68 147.5t96.5 121t128 82.5t158.5 30q166 0 271 -86l53 63h133l-119 -143q64 -98 64 -252q0 -80 -13.5 -161.5t-39.5 -160.5t-68 -147.5t-96.5 -121t-128 -82.5t-158.5 -30q-170 0 -275 89l-53 -66h-135z M266 391q0 -47 4 -67l449 542q-51 66 -154 66q-74 0 -134 -57.5t-94.5 -144t-52.5 -175.5t-18 -164zM311 211q50 -68 156 -68q74 0 134 57.5t94.5 144t52.5 175.5t18 164q0 38 -6 72z" />
<glyph unicode="&#xf9;" d="M70 311l135 764h203l-132 -733q-33 -195 93 -195q68 0 152.5 49.5t148.5 108.5l137 770h201l-189 -1075h-203l25 137q-208 -160 -362 -160q-131 0 -183.5 88.5t-25.5 245.5zM389 1493h232l161 -272h-155z" />
<glyph unicode="&#xfa;" d="M70 311l135 764h203l-132 -733q-33 -195 93 -195q68 0 152.5 49.5t148.5 108.5l137 770h201l-189 -1075h-203l25 137q-208 -160 -362 -160q-131 0 -183.5 88.5t-25.5 245.5zM473 1221l248 272h258l-328 -272h-178z" />
<glyph unicode="&#xfb;" d="M70 311l135 764h203l-132 -733q-33 -195 93 -195q68 0 152.5 49.5t148.5 108.5l137 770h201l-189 -1075h-203l25 137q-208 -160 -362 -160q-131 0 -183.5 88.5t-25.5 245.5zM356 1221l219 272h207l123 -272h-133l-104 168l-160 -168h-152z" />
<glyph unicode="&#xfc;" d="M70 311l135 764h203l-132 -733q-33 -195 93 -195q68 0 152.5 49.5t148.5 108.5l137 770h201l-189 -1075h-203l25 137q-208 -160 -362 -160q-131 0 -183.5 88.5t-25.5 245.5zM399 1241l37 209h176l-37 -209h-176zM700 1241l37 209h174l-37 -209h-174z" />
<glyph unicode="&#xfd;" horiz-adv-x="976" d="M-31 -274q122 48 187 97t120 142l-157 1110h211l84 -823l377 823h221l-531 -1075q-81 -163 -124 -222q-80 -110 -212 -171q-57 -27 -131 -49zM434 1221l248 272h258l-328 -272h-178z" />
<glyph unicode="&#xfe;" horiz-adv-x="1060" d="M-51 -418l338 1911h200l-98 -551q169 156 313 156q121 0 197 -90.5t76 -266.5q0 -198 -51 -370t-152.5 -283t-232.5 -111q-64 0 -123 27t-94 57.5t-74 75.5l-96 -555h-203zM279 311q99 -159 221 -159q80 0 142.5 88.5t93 213.5t30.5 255q0 102 -36 158.5t-109 56.5 q-65 0 -127 -41t-136 -117z" />
<glyph unicode="&#xff;" horiz-adv-x="976" d="M-31 -274q122 48 187 97t120 142l-157 1110h211l84 -823l377 823h221l-531 -1075q-81 -163 -124 -222q-80 -110 -212 -171q-57 -27 -131 -49zM358 1241l37 209h176l-36 -209h-177zM659 1241l37 209h174l-36 -209h-175z" />
<glyph unicode="&#x100;" horiz-adv-x="1189" d="M-68 0l695 1434h231l189 -1434h-222l-30 328h-480l-145 -328h-238zM393 506h385l-65 721zM516 1581l23 135h503l-24 -135h-502z" />
<glyph unicode="&#x101;" horiz-adv-x="1067" d="M63 334q0 201 53.5 373.5t157.5 281.5t236 109q86 0 153 -46t128 -118l24 141h203l-191 -1075h-200l26 156q-179 -179 -336 -179q-111 0 -182.5 90.5t-71.5 266.5zM272 365q0 -100 32.5 -156.5t94.5 -56.5q72 0 140.5 48.5t146.5 135.5l74 428q-43 71 -98 115.5 t-113 44.5q-82 0 -147.5 -89t-97.5 -215t-32 -255zM420 1272l22 135h504l-24 -135h-502z" />
<glyph unicode="&#x102;" horiz-adv-x="1189" d="M-68 0l695 1434h231l189 -1434h-222l-30 328h-480l-145 -328h-238zM393 506h385l-65 721zM543 1761h131q-14 -102 96 -102q65 0 107 25t51 77h133q-19 -107 -96.5 -169t-200.5 -62q-121 0 -180 63.5t-41 167.5z" />
<glyph unicode="&#x103;" horiz-adv-x="1067" d="M63 334q0 201 53.5 373.5t157.5 281.5t236 109q86 0 153 -46t128 -118l24 141h203l-191 -1075h-200l26 156q-179 -179 -336 -179q-111 0 -182.5 90.5t-71.5 266.5zM272 365q0 -100 32.5 -156.5t94.5 -56.5q72 0 140.5 48.5t146.5 135.5l74 428q-43 71 -98 115.5 t-113 44.5q-82 0 -147.5 -89t-97.5 -215t-32 -255zM440 1452h131q-14 -102 97 -102q140 0 157 102h133q-19 -107 -96 -169t-200 -62q-121 0 -180.5 63.5t-41.5 167.5z" />
<glyph unicode="&#x104;" horiz-adv-x="1189" d="M-68 0l695 1434h231l189 -1434h-7q-96 -60 -145 -109.5t-49 -101.5q0 -14 3.5 -24t12.5 -16t16 -10t22 -5.5t21 -2t24 0t20 0.5l-41 -113q-93 0 -137 16q-84 34 -85 127q0 135 201 238h-78l-30 328h-480l-145 -328h-238zM393 506h385l-65 721z" />
<glyph unicode="&#x105;" horiz-adv-x="1067" d="M63 334q0 201 53.5 373.5t157.5 281.5t236 109q86 0 153 -46t128 -118l24 141h203l-191 -1075h-6q-96 -60 -145 -109.5t-49 -101.5q0 -14 3.5 -24t12.5 -16t15.5 -10t21.5 -5.5t21 -2t23.5 0t20.5 0.5l-40 -113q-93 0 -137 16q-84 34 -85 127q0 135 201 238h-57l26 156 q-179 -179 -336 -179q-111 0 -182.5 90.5t-71.5 266.5zM272 365q0 -100 32.5 -156.5t94.5 -56.5q72 0 140.5 48.5t146.5 135.5l74 428q-43 71 -98 115.5t-113 44.5q-82 0 -147.5 -89t-97.5 -215t-32 -255z" />
<glyph unicode="&#x106;" horiz-adv-x="1120" d="M106 520q0 194 45.5 366.5t125 298t193 198.5t243.5 73q56 0 111.5 -14t95.5 -31.5t92.5 -52t79 -55.5t77.5 -62l-118 -151q-98 84 -173.5 125.5t-148.5 41.5q-113 0 -207 -102.5t-146 -269t-52 -357.5q0 -179 53 -265.5t149 -86.5q127 0 373 164l88 -168 q-146 -91 -268 -143t-240 -52q-174 0 -273.5 137t-99.5 406zM664 1530l247 272h258l-327 -272h-178z" />
<glyph unicode="&#x107;" horiz-adv-x="897" d="M61 397q0 166 41.5 302.5t109 221.5t150 131t168.5 46q40 0 81.5 -9t70.5 -18.5t68 -31t55.5 -32t53 -35.5t40.5 -28l-102 -143q-4 3 -32 23.5t-45 31.5t-45.5 27t-56 24t-53.5 8q-119 0 -208 -146.5t-89 -350.5q0 -122 42 -190t122 -68q30 0 71 14t68.5 28.5t70.5 38.5 t52 29l68 -161q-4 -2 -45.5 -24t-59 -30.5t-60 -27t-71.5 -27t-68 -16t-73 -7.5q-144 0 -234 110t-90 310zM440 1221l248 272h258l-328 -272h-178z" />
<glyph unicode="&#x10a;" horiz-adv-x="1120" d="M106 520q0 194 45.5 366.5t125 298t193 198.5t243.5 73q56 0 111.5 -14t95.5 -31.5t92.5 -52t79 -55.5t77.5 -62l-118 -151q-98 84 -173.5 125.5t-148.5 41.5q-113 0 -207 -102.5t-146 -269t-52 -357.5q0 -179 53 -265.5t149 -86.5q127 0 373 164l88 -168 q-146 -91 -268 -143t-240 -52q-174 0 -273.5 137t-99.5 406zM680 1550l37 213h180l-37 -213h-180z" />
<glyph unicode="&#x10b;" horiz-adv-x="894" d="M61 397q0 166 41.5 302.5t109 221.5t150 131t168.5 46q40 0 81.5 -9t70.5 -18.5t68 -31t55.5 -32t53 -35.5t40.5 -28l-102 -143q-4 3 -32 23.5t-45 31.5t-45.5 27t-56 24t-53.5 8q-119 0 -208 -146.5t-89 -350.5q0 -122 42 -190t122 -68q30 0 71 14t68.5 28.5t70.5 38.5 t52 29l68 -161q-4 -2 -45.5 -24t-59 -30.5t-60 -27t-71.5 -27t-68 -16t-73 -7.5q-144 0 -234 110t-90 310zM512 1241l37 213h180l-37 -213h-180z" />
<glyph unicode="&#x10c;" horiz-adv-x="1120" d="M106 520q0 194 45.5 366.5t125 298t193 198.5t243.5 73q56 0 111.5 -14t95.5 -31.5t92.5 -52t79 -55.5t77.5 -62l-118 -151q-98 84 -173.5 125.5t-148.5 41.5q-113 0 -207 -102.5t-146 -269t-52 -357.5q0 -179 53 -265.5t149 -86.5q127 0 373 164l88 -168 q-146 -91 -268 -143t-240 -52q-174 0 -273.5 137t-99.5 406zM551 1802h133l104 -168l162 168h150l-217 -272h-207z" />
<glyph unicode="&#x10d;" horiz-adv-x="894" d="M61 397q0 166 41.5 302.5t109 221.5t150 131t168.5 46q40 0 81.5 -9t70.5 -18.5t68 -31t55.5 -32t53 -35.5t40.5 -28l-102 -143q-4 3 -32 23.5t-45 31.5t-45.5 27t-56 24t-53.5 8q-119 0 -208 -146.5t-89 -350.5q0 -122 42 -190t122 -68q30 0 71 14t68.5 28.5t70.5 38.5 t52 29l68 -161q-4 -2 -45.5 -24t-59 -30.5t-60 -27t-71.5 -27t-68 -16t-73 -7.5q-144 0 -234 110t-90 310zM371 1493h133l104 -168l162 168h150l-218 -272h-206z" />
<glyph unicode="&#x10e;" horiz-adv-x="1239" d="M51 0l254 1434h299q277 0 420 -138.5t143 -396.5q0 -133 -26 -259t-84.5 -243t-143.5 -204.5t-212 -140t-281 -52.5h-369zM295 188h117q165 0 289 92.5t187.5 251t63.5 359.5q0 187 -92.5 270.5t-271.5 83.5h-107zM578 1802h133l104 -168l162 168h149l-217 -272h-207z " />
<glyph unicode="&#x10f;" horiz-adv-x="1136" d="M63 334q0 201 53.5 373.5t157.5 281.5t236 109q47 0 89.5 -14.5t78.5 -41.5t61 -52t52 -58l98 561h203l-265 -1493h-200l26 156q-179 -179 -336 -179q-111 0 -182.5 90.5t-71.5 266.5zM272 365q0 -100 32.5 -156.5t94.5 -56.5q72 0 140.5 48.5t146.5 135.5l74 428 q-43 72 -97.5 116t-113.5 44q-82 0 -147.5 -89t-97.5 -215t-32 -255zM1104 1104l113 176h-74l37 213h166l-27 -227l-176 -219z" />
<glyph unicode="&#x110;" horiz-adv-x="1255" d="M57 629l31 176h121l113 629h299q277 0 420 -138.5t143 -396.5q0 -133 -26 -259t-84.5 -243t-143.5 -204.5t-212.5 -140t-281.5 -52.5h-368l110 629h-121zM311 188h117q165 0 289 92.5t188 251t64 359.5q0 187 -93 270.5t-272 83.5h-106l-78 -440h260l-31 -176h-260z" />
<glyph unicode="&#x111;" horiz-adv-x="1069" d="M63 334q0 201 53.5 373.5t157.5 281.5t236 109q47 0 89.5 -14.5t78.5 -41.5t61 -52t52 -58l47 274h-283l23 135h284l27 152h203l-27 -152h102l-22 -135h-105l-213 -1206h-200l26 156q-179 -179 -336 -179q-111 0 -182.5 90.5t-71.5 266.5zM272 365q0 -100 32.5 -156.5 t94.5 -56.5q72 0 140.5 48.5t146.5 135.5l74 428q-43 72 -97.5 116t-113.5 44q-82 0 -147.5 -89t-97.5 -215t-32 -255z" />
<glyph unicode="&#x112;" horiz-adv-x="1050" d="M51 0l254 1434h787l-33 -189h-578l-75 -436h475l-35 -184h-473l-78 -437h588l-33 -188h-799zM479 1581l23 135h504l-25 -135h-502z" />
<glyph unicode="&#x113;" horiz-adv-x="972" d="M61 416q0 195 65 349.5t187.5 243.5t282.5 89q148 0 232.5 -75.5t84.5 -201.5q0 -186 -147.5 -277t-409.5 -91h-90v-41q0 -129 43 -200t129 -71q30 0 62.5 7.5t74 26.5t61.5 28.5t70.5 38.5t55.5 32l65 -145q-50 -32 -105 -61t-150.5 -60t-176.5 -31q-155 0 -244.5 110 t-89.5 329zM283 582h84q172 0 263 63t91 166q0 60 -38 94.5t-99 34.5q-110 0 -190 -101t-111 -257zM385 1272l23 135h503l-24 -135h-502z" />
<glyph unicode="&#x116;" horiz-adv-x="1050" d="M51 0l254 1434h787l-33 -189h-578l-75 -436h475l-35 -184h-473l-78 -437h588l-33 -188h-799zM635 1550l37 213h180l-37 -213h-180z" />
<glyph unicode="&#x117;" horiz-adv-x="972" d="M61 416q0 195 65 349.5t187.5 243.5t282.5 89q148 0 232.5 -75.5t84.5 -201.5q0 -186 -147.5 -277t-409.5 -91h-90v-41q0 -129 43 -200t129 -71q30 0 62.5 7.5t74 26.5t61.5 28.5t70.5 38.5t55.5 32l65 -145q-50 -32 -105 -61t-150.5 -60t-176.5 -31q-155 0 -244.5 110 t-89.5 329zM283 582h84q172 0 263 63t91 166q0 60 -38 94.5t-99 34.5q-110 0 -190 -101t-111 -257zM539 1241l36 213h181l-37 -213h-180z" />
<glyph unicode="&#x118;" horiz-adv-x="1050" d="M51 0l254 1434h787l-33 -189h-578l-75 -436h475l-35 -184h-473l-78 -437h588l-33 -188h-6q-96 -60 -145.5 -109.5t-49.5 -101.5q0 -14 3.5 -24t12.5 -16t16 -10t22 -5.5t21 -2t24 0t20 0.5l-41 -113q-94 0 -137 17q-84 32 -84 126q0 135 201 238h-656z" />
<glyph unicode="&#x119;" horiz-adv-x="972" d="M61 416q0 195 65 349.5t187.5 243.5t282.5 89q148 0 232.5 -75.5t84.5 -201.5q0 -186 -147.5 -277t-409.5 -91h-90v-41q0 -129 43 -200t129 -71q30 0 62.5 7.5t74 26.5t61.5 28.5t70.5 38.5t55.5 32l65 -145q-141 -91 -284 -129q-97 -64 -145 -112t-48 -99q0 -14 3.5 -24 t12.5 -16t16 -10t22 -5.5t21 -2t24 0t20 0.5l-41 -113q-94 0 -137 17q-84 32 -84 126q0 122 162 218q-144 9 -226 117.5t-82 318.5zM283 582h84q172 0 263 63t91 166q0 60 -38 94.5t-99 34.5q-110 0 -190 -101t-111 -257z" />
<glyph unicode="&#x11a;" horiz-adv-x="1050" d="M51 0l254 1434h787l-33 -189h-578l-75 -436h475l-35 -184h-473l-78 -437h588l-33 -188h-799zM494 1802h133l104 -168l162 168h149l-217 -272h-207z" />
<glyph unicode="&#x11b;" horiz-adv-x="972" d="M61 416q0 195 65 349.5t187.5 243.5t282.5 89q148 0 232.5 -75.5t84.5 -201.5q0 -186 -147.5 -277t-409.5 -91h-90v-41q0 -129 43 -200t129 -71q30 0 62.5 7.5t74 26.5t61.5 28.5t70.5 38.5t55.5 32l65 -145q-50 -32 -105 -61t-150.5 -60t-176.5 -31q-155 0 -244.5 110 t-89.5 329zM283 582h84q172 0 263 63t91 166q0 60 -38 94.5t-99 34.5q-110 0 -190 -101t-111 -257zM397 1493h133l105 -168l162 168h149l-217 -272h-207z" />
<glyph unicode="&#x11e;" horiz-adv-x="1222" d="M109 504q0 210 46.5 388.5t127.5 301.5t193 192.5t241 69.5q71 0 139.5 -19.5t132 -57.5t107 -70t100.5 -80l-121 -150q-8 6 -40.5 31t-46.5 35.5t-45 32t-52.5 32t-50 23.5t-55.5 18.5t-54 5.5q-114 0 -207.5 -101t-145.5 -269.5t-52 -364.5q0 -166 49 -261t149 -95 q83 0 174.5 60t161.5 132l47 258h-293l31 179h492l-142 -795h-198l28 164q-194 -187 -364 -187q-159 0 -255.5 134t-96.5 393zM553 1761h131q-14 -102 96 -102q65 0 107 25t51 77h133q-19 -107 -96.5 -169t-200.5 -62q-121 0 -180 63.5t-41 167.5z" />
<glyph unicode="&#x11f;" horiz-adv-x="1067" d="M-35 -358l72 170q197 -80 342 -80q199 0 237 221l35 201q-177 -177 -334 -177q-111 0 -182.5 90.5t-71.5 266.5q0 200 54 373.5t158 282t235 108.5q46 0 88 -14.5t77.5 -41.5t60 -51t52.5 -57l27 141h201l-197 -1118q-20 -115 -57 -193.5t-92.5 -122t-121 -61.5 t-153.5 -18q-207 0 -430 80zM272 365q0 -100 32.5 -156.5t94.5 -56.5q72 0 141.5 48.5t143.5 133.5l76 432q-43 70 -98 114t-113 44q-82 0 -147.5 -89t-97.5 -215t-32 -255zM426 1452h131q-14 -102 96 -102q65 0 107 25t51 77h133q-19 -107 -96.5 -169t-200.5 -62 q-121 0 -180 63.5t-41 167.5z" />
<glyph unicode="&#x120;" horiz-adv-x="1222" d="M109 504q0 210 46.5 388.5t127.5 301.5t193 192.5t241 69.5q71 0 139.5 -19.5t132 -57.5t107 -70t100.5 -80l-121 -150q-8 6 -40.5 31t-46.5 35.5t-45 32t-52.5 32t-50 23.5t-55.5 18.5t-54 5.5q-114 0 -207.5 -101t-145.5 -269.5t-52 -364.5q0 -166 49 -261t149 -95 q83 0 174.5 60t161.5 132l47 258h-293l31 179h492l-142 -795h-198l28 164q-194 -187 -364 -187q-159 0 -255.5 134t-96.5 393zM684 1550l37 213h180l-37 -213h-180z" />
<glyph unicode="&#x121;" horiz-adv-x="1067" d="M-35 -358l72 170q197 -80 342 -80q199 0 237 221l35 201q-177 -177 -334 -177q-111 0 -182.5 90.5t-71.5 266.5q0 200 54 373.5t158 282t235 108.5q46 0 88 -14.5t77.5 -41.5t60 -51t52.5 -57l27 141h201l-197 -1118q-20 -115 -57 -193.5t-92.5 -122t-121 -61.5 t-153.5 -18q-207 0 -430 80zM272 365q0 -100 32.5 -156.5t94.5 -56.5q72 0 141.5 48.5t143.5 133.5l76 432q-43 70 -98 114t-113 44q-82 0 -147.5 -89t-97.5 -215t-32 -255zM555 1241l37 213h180l-37 -213h-180z" />
<glyph unicode="&#x122;" horiz-adv-x="1222" d="M109 504q0 210 46.5 388.5t127.5 301.5t193 192.5t241 69.5q71 0 139.5 -19.5t132 -57.5t107 -70t100.5 -80l-121 -150q-8 6 -40.5 31t-46.5 35.5t-45 32t-52.5 32t-50 23.5t-55.5 18.5t-54 5.5q-114 0 -207.5 -101t-145.5 -269.5t-52 -364.5q0 -166 49 -261t149 -95 q83 0 174.5 60t161.5 132l47 258h-293l31 179h492l-142 -795h-198l28 164q-194 -187 -364 -187q-159 0 -255.5 134t-96.5 393zM346 -514l113 176h-74l37 213h166l-27 -227l-176 -219z" />
<glyph unicode="&#x123;" horiz-adv-x="1067" d="M-35 -358l72 170q197 -80 342 -80q199 0 237 221l35 201q-177 -177 -334 -177q-111 0 -182.5 90.5t-71.5 266.5q0 200 54 373.5t158 282t235 108.5q46 0 88 -14.5t77.5 -41.5t60 -51t52.5 -57l27 141h201l-197 -1118q-20 -115 -57 -193.5t-92.5 -122t-121 -61.5 t-153.5 -18q-207 0 -430 80zM272 365q0 -100 32.5 -156.5t94.5 -56.5q72 0 141.5 48.5t143.5 133.5l76 432q-43 70 -98 114t-113 44q-82 0 -147.5 -89t-97.5 -215t-32 -255zM573 1241l27 227l176 220l39 -58l-113 -176h74l-37 -213h-166z" />
<glyph unicode="&#x126;" horiz-adv-x="1280" d="M68 0l188 1061h-125l23 135h125l43 238h208l-43 -238h506l43 238h211l-43 -238h129l-24 -135h-127l-187 -1061h-211l115 659h-506l-114 -659h-211zM426 844h506l39 217h-506z" />
<glyph unicode="&#x127;" d="M23 0l213 1206h-105l25 135h104l27 152h200l-26 -152h284l-24 -135h-285l-47 -268q204 160 363 160q131 0 184 -88.5t25 -245.5l-136 -764h-202l129 733q8 54 7 97.5t-25 70.5t-72 27q-71 0 -155.5 -49.5t-146.5 -110.5l-135 -768h-202z" />
<glyph unicode="&#x128;" horiz-adv-x="532" d="M51 0l254 1434h209l-252 -1434h-211zM158 1610q56 90 96.5 130t99.5 40q38 0 76.5 -25t70.5 -49.5t54 -24.5q41 0 102 95l88 -64q-54 -89 -95 -128.5t-101 -39.5q-38 0 -76 24.5t-70 49t-55 24.5q-21 0 -43.5 -18.5t-58.5 -75.5z" />
<glyph unicode="&#x129;" horiz-adv-x="466" d="M23 0l190 1075h201l-191 -1075h-200zM70 1300q56 90 96.5 130t99.5 40q38 0 76.5 -24.5t70.5 -49t54 -24.5q20 0 43 19t59 75l88 -63q-54 -89 -95 -128.5t-101 -39.5q-38 0 -76 24.5t-70 49t-55 24.5q-21 0 -43.5 -18.5t-58.5 -75.5z" />
<glyph unicode="&#x12a;" horiz-adv-x="532" d="M51 0l254 1434h209l-252 -1434h-211zM186 1581l23 135h504l-25 -135h-502z" />
<glyph unicode="&#x12b;" horiz-adv-x="464" d="M23 0l190 1075h201l-191 -1075h-200zM96 1272l23 135h504l-25 -135h-502z" />
<glyph unicode="&#x12c;" horiz-adv-x="530" d="M51 0l254 1434h209l-252 -1434h-211zM211 1761h131q-14 -102 96 -102q65 0 107 25t51 77h133q-19 -107 -96.5 -169t-200.5 -62q-121 0 -180 63.5t-41 167.5z" />
<glyph unicode="&#x12d;" horiz-adv-x="464" d="M23 0l190 1075h201l-191 -1075h-200zM121 1452h131q-14 -102 96 -102q65 0 107 25t51 77h133q-19 -107 -96.5 -169t-200.5 -62q-121 0 -180 63.5t-41 167.5z" />
<glyph unicode="&#x12e;" horiz-adv-x="528" d="M-82 -238q0 135 201 238h-68l254 1434h209l-252 -1434h-6q-96 -60 -145.5 -109.5t-49.5 -101.5q0 -14 3.5 -24t12.5 -16t16 -10t22 -5.5t21 -2t24 0t20 0.5l-41 -113q-94 0 -137 17q-84 32 -84 126z" />
<glyph unicode="&#x12f;" horiz-adv-x="462" d="M-119 -238q0 133 201 238h-59l190 1075h201l-191 -1075h-4q-96 -60 -145 -109.5t-49 -101.5q0 -14 3.5 -24t12.5 -16t15.5 -10t21.5 -5.5t21 -2t23.5 0t20.5 0.5l-41 -113q-94 0 -137 17q-84 32 -84 126zM240 1270l36 217h218l-39 -217h-215z" />
<glyph unicode="&#x130;" horiz-adv-x="532" d="M51 0l254 1434h209l-252 -1434h-211zM342 1550l37 213h180l-37 -213h-180z" />
<glyph unicode="&#x131;" horiz-adv-x="464" d="M23 0l190 1075h201l-191 -1075h-200z" />
<glyph unicode="&#x132;" horiz-adv-x="1060" d="M51 0l254 1434h209l-252 -1434h-211zM360 -150q52 18 86.5 33t60 33t40 32t25 39.5t15 46t11.5 60.5l238 1340h208l-233 -1330q-26 -148 -49 -201q-37 -85 -129 -137q-77 -44 -227 -88z" />
<glyph unicode="&#x133;" horiz-adv-x="923" d="M23 0l190 1075h201l-191 -1075h-200zM233 -279q53 19 88 34t61 33t40 31.5t24.5 39.5t15 46.5t11.5 61.5l197 1108h202l-194 -1093q-27 -150 -50 -203q-37 -88 -131 -140q-78 -42 -223 -81zM240 1270l36 217h218l-39 -217h-215zM696 1270l39 217h217l-39 -217h-217z" />
<glyph unicode="&#x134;" horiz-adv-x="530" d="M-170 -150q52 18 86.5 33t60 33t40 32t25 39.5t15 46t11.5 60.5l237 1340h209l-233 -1330q-13 -76 -21 -110t-26 -84t-42 -73.5t-66.5 -55t-102.5 -54.5t-148 -49zM152 1530l219 272h207l122 -272h-133l-104 168l-160 -168h-151z" />
<glyph unicode="&#x135;" horiz-adv-x="464" d="M-223 -279q53 19 88 33.5t61 33t40 32t24.5 40t15 46t12.5 61.5l193 1108h205l-195 -1093q-14 -76 -21.5 -110.5t-25.5 -85t-42 -74.5t-67 -56t-103.5 -54t-147.5 -46zM63 1221l220 272h206l123 -272h-133l-104 168l-160 -168h-152z" />
<glyph unicode="&#x136;" horiz-adv-x="1163" d="M51 0l254 1434h209l-123 -699l592 699h270l-598 -676l381 -758h-235l-287 598l-184 -205l-68 -393h-211zM293 -514l113 176h-74l37 213h166l-27 -227l-176 -219z" />
<glyph unicode="&#x137;" horiz-adv-x="942" d="M23 0l264 1493h200l-159 -907l389 489h244l-388 -440l246 -635h-207l-174 479l-162 -184l-51 -295h-202zM199 -514l112 176h-73l36 213h166l-26 -227l-176 -219z" />
<glyph unicode="&#x138;" horiz-adv-x="942" d="M23 0l190 1075h201l-86 -489l389 489h244l-388 -440l246 -635h-207l-174 479l-162 -184l-51 -295h-202z" />
<glyph unicode="&#x139;" horiz-adv-x="964" d="M51 0l254 1434h209l-219 -1248h561l-33 -186h-772zM268 1530l248 272h258l-328 -272h-178z" />
<glyph unicode="&#x13a;" horiz-adv-x="479" d="M29 0l264 1493h203l-265 -1493h-202zM252 1589l248 273h258l-328 -273h-178z" />
<glyph unicode="&#x13b;" horiz-adv-x="964" d="M51 0l254 1434h209l-219 -1248h561l-33 -186h-772zM250 -514l112 176h-73l37 213h166l-27 -227l-176 -219z" />
<glyph unicode="&#x13c;" horiz-adv-x="479" d="M-47 -514l113 176h-74l37 213h166l-27 -227l-176 -219zM29 0l264 1493h203l-265 -1493h-202z" />
<glyph unicode="&#x13d;" horiz-adv-x="964" d="M51 0l254 1434h209l-219 -1248h561l-33 -186h-772zM530 1044l113 177h-74l37 213h166l-27 -228l-176 -219z" />
<glyph unicode="&#x13e;" horiz-adv-x="542" d="M29 0l264 1493h203l-265 -1493h-202zM510 1104l113 176h-74l37 213h166l-27 -227l-176 -219z" />
<glyph unicode="&#x13f;" horiz-adv-x="968" d="M51 0l254 1434h209l-219 -1248h561l-33 -186h-772zM668 641l37 213h180l-37 -213h-180z" />
<glyph unicode="&#x140;" horiz-adv-x="569" d="M29 0l264 1493h203l-265 -1493h-202zM432 641l37 213h180l-37 -213h-180z" />
<glyph unicode="&#x141;" horiz-adv-x="980" d="M29 449l37 200l129 76l127 709h208l-102 -574l256 148l-37 -201l-254 -148l-82 -473h561l-32 -186h-772l92 524z" />
<glyph unicode="&#x142;" horiz-adv-x="538" d="M45 510l35 201l121 69l127 713h202l-102 -582l121 72l-37 -203l-121 -69l-125 -711h-203l103 580z" />
<glyph unicode="&#x143;" horiz-adv-x="1273" d="M51 0l254 1434h213l338 -1092l193 1092h208l-251 -1434h-213l-340 1087l-191 -1087h-211zM649 1530l248 272h258l-328 -272h-178z" />
<glyph unicode="&#x144;" horiz-adv-x="1058" d="M23 0l190 1075h201l-25 -139q201 162 363 162q131 0 184 -89.5t25 -246.5l-136 -762h-202l131 735q7 52 6 95t-25.5 70.5t-72.5 27.5q-70 0 -155.5 -50.5t-148.5 -111.5l-133 -766h-202zM481 1221l248 272h258l-328 -272h-178z" />
<glyph unicode="&#x145;" horiz-adv-x="1273" d="M51 0l254 1434h213l338 -1092l193 1092h208l-251 -1434h-213l-340 1087l-191 -1087h-211zM360 -514l113 176h-74l37 213h166l-27 -227l-176 -219z" />
<glyph unicode="&#x146;" d="M23 0l190 1075h201l-25 -139q201 162 363 162q131 0 184 -89.5t25 -246.5l-136 -762h-202l131 735q7 52 6 95t-25.5 70.5t-72.5 27.5q-70 0 -155.5 -50.5t-148.5 -111.5l-133 -766h-202zM244 -514l112 176h-73l36 213h166l-26 -227l-176 -219z" />
<glyph unicode="&#x147;" horiz-adv-x="1273" d="M51 0l254 1434h213l338 -1092l193 1092h208l-251 -1434h-213l-340 1087l-191 -1087h-211zM582 1802h133l104 -168l162 168h149l-217 -272h-206z" />
<glyph unicode="&#x148;" d="M23 0l190 1075h201l-25 -139q201 162 363 162q131 0 184 -89.5t25 -246.5l-136 -762h-202l131 735q7 52 6 95t-25.5 70.5t-72.5 27.5q-70 0 -155.5 -50.5t-148.5 -111.5l-133 -766h-202zM410 1493h133l104 -168l162 168h149l-217 -272h-206z" />
<glyph unicode="&#x149;" d="M23 0l190 1075h201l-25 -139q201 162 363 162q131 0 184 -89.5t25 -246.5l-136 -762h-202l131 735q7 52 6 95t-25.5 70.5t-72.5 27.5q-70 0 -155.5 -50.5t-148.5 -111.5l-133 -766h-202zM231 1229l113 176h-74l37 213h166l-27 -227l-176 -220z" />
<glyph unicode="&#x14a;" horiz-adv-x="1273" d="M51 0l254 1434h213l338 -1090l193 1090h208l-235 -1344q-19 -103 -34 -151t-57 -101.5t-114 -86.5t-199 -70l-47 169q106 38 152.5 69.5t67.5 86.5l-338 1084l-191 -1090h-211z" />
<glyph unicode="&#x14b;" horiz-adv-x="1058" d="M23 0l190 1075h201l-25 -139q201 162 363 162q131 0 184 -89t25 -247l-138 -780q-14 -76 -21.5 -110.5t-25.5 -85t-42 -74.5t-66.5 -55.5t-102.5 -53.5t-147 -45l-41 163q53 19 88 33.5t61 33t40 32t24.5 40t15 46t12.5 61.5l136 766q7 53 6 96.5t-25.5 71t-72.5 27.5 q-71 0 -157 -51.5t-147 -112.5l-133 -764h-202z" />
<glyph unicode="&#x14c;" horiz-adv-x="1306" d="M106 514q0 70 10 151t33.5 172.5t58 178.5t87.5 167.5t117 140.5t151.5 96t186.5 36q234 0 359.5 -134.5t125.5 -397.5q0 -71 -10 -152t-33.5 -173.5t-58 -179.5t-87 -168t-116.5 -141.5t-151.5 -96.5t-186.5 -36q-235 0 -360.5 136t-125.5 401zM322 514q0 -79 14 -140 t44.5 -109t85 -73.5t130.5 -25.5q67 0 125.5 32.5t100.5 85.5t76.5 122.5t56.5 141.5t37 144.5t21.5 129.5t6.5 98q0 348 -275 348q-67 0 -125.5 -32.5t-100.5 -85.5t-76.5 -122.5t-56.5 -141.5t-37 -144.5t-21 -129.5t-6 -98zM573 1581l23 135h504l-25 -135h-502z" />
<glyph unicode="&#x14d;" horiz-adv-x="1058" d="M63 395q0 80 13.5 161.5t39.5 160.5t68 147.5t96.5 121t128 82.5t158.5 30q86 0 157.5 -24.5t127 -73.5t86.5 -131t31 -189q0 -80 -13.5 -161.5t-39.5 -160.5t-68 -147.5t-96.5 -121t-128 -82.5t-158.5 -30t-156.5 24.5t-127 73.5t-87 131t-31.5 189zM266 391 q0 -248 201 -248q74 0 134 57.5t94.5 144t52.5 175.5t18 164q0 248 -201 248q-74 0 -134 -57.5t-94.5 -144t-52.5 -175.5t-18 -164zM393 1272l23 135h504l-25 -135h-502z" />
<glyph unicode="&#x14e;" horiz-adv-x="1306" d="M106 514q0 70 10 151t33.5 172.5t58 178.5t87.5 167.5t117 140.5t151.5 96t186.5 36q234 0 359.5 -134.5t125.5 -397.5q0 -71 -10 -152t-33.5 -173.5t-58 -179.5t-87 -168t-116.5 -141.5t-151.5 -96.5t-186.5 -36q-235 0 -360.5 136t-125.5 401zM322 514q0 -79 14 -140 t44.5 -109t85 -73.5t130.5 -25.5q67 0 125.5 32.5t100.5 85.5t76.5 122.5t56.5 141.5t37 144.5t21.5 129.5t6.5 98q0 348 -275 348q-67 0 -125.5 -32.5t-100.5 -85.5t-76.5 -122.5t-56.5 -141.5t-37 -144.5t-21 -129.5t-6 -98zM598 1761h131q-14 -102 96 -102q65 0 107 25 t51 77h133q-19 -107 -96.5 -169t-200.5 -62q-121 0 -180 63.5t-41 167.5z" />
<glyph unicode="&#x14f;" horiz-adv-x="1058" d="M63 395q0 80 13.5 161.5t39.5 160.5t68 147.5t96.5 121t128 82.5t158.5 30q86 0 157.5 -24.5t127 -73.5t86.5 -131t31 -189q0 -80 -13.5 -161.5t-39.5 -160.5t-68 -147.5t-96.5 -121t-128 -82.5t-158.5 -30t-156.5 24.5t-127 73.5t-87 131t-31.5 189zM266 391 q0 -248 201 -248q74 0 134 57.5t94.5 144t52.5 175.5t18 164q0 248 -201 248q-74 0 -134 -57.5t-94.5 -144t-52.5 -175.5t-18 -164zM420 1452h131q-14 -102 96 -102q65 0 107 25t51 77h133q-19 -107 -96.5 -169t-200.5 -62q-121 0 -180 63.5t-41 167.5z" />
<glyph unicode="&#x150;" horiz-adv-x="1306" d="M106 514q0 70 10 151t33.5 172.5t58 178.5t87.5 167.5t117 140.5t151.5 96t186.5 36q234 0 359.5 -134.5t125.5 -397.5q0 -71 -10 -152t-33.5 -173.5t-58 -179.5t-87 -168t-116.5 -141.5t-151.5 -96.5t-186.5 -36q-235 0 -360.5 136t-125.5 401zM322 514q0 -79 14 -140 t44.5 -109t85 -73.5t130.5 -25.5q67 0 125.5 32.5t100.5 85.5t76.5 122.5t56.5 141.5t37 144.5t21.5 129.5t6.5 98q0 348 -275 348q-67 0 -125.5 -32.5t-100.5 -85.5t-76.5 -122.5t-56.5 -141.5t-37 -144.5t-21 -129.5t-6 -98zM586 1530l172 272h207l-254 -272h-125z M864 1530l174 272h205l-254 -272h-125z" />
<glyph unicode="&#x151;" horiz-adv-x="1060" d="M63 395q0 80 13.5 161.5t39.5 160.5t68 147.5t96.5 121t128 82.5t158.5 30q86 0 157.5 -24.5t127 -73.5t86.5 -131t31 -189q0 -80 -13.5 -161.5t-39.5 -160.5t-68 -147.5t-96.5 -121t-128 -82.5t-158.5 -30t-156.5 24.5t-127 73.5t-87 131t-31.5 189zM266 391 q0 -248 201 -248q74 0 134 57.5t94.5 144t52.5 175.5t18 164q0 248 -201 248q-74 0 -134 -57.5t-94.5 -144t-52.5 -175.5t-18 -164zM406 1221l172 272h206l-254 -272h-124zM684 1221l174 272h205l-254 -272h-125z" />
<glyph unicode="&#x152;" horiz-adv-x="1886" d="M106 514q0 70 10 151t33.5 172.5t58 178.5t87.5 167.5t117 140.5t151.5 96t186.5 36q244 0 368 -145l23 123h786l-33 -189h-577l-76 -436h475l-35 -184h-473l-78 -437h588l-32 -188h-799l14 86q-135 -109 -309 -109q-235 0 -360.5 136t-125.5 401zM322 514q0 -79 14 -140 t44.5 -109t85 -73.5t130.5 -25.5q67 0 125.5 32.5t100.5 85.5t76.5 122.5t56.5 141.5t37 144.5t21.5 129.5t6.5 98q0 348 -275 348q-67 0 -125.5 -32.5t-100.5 -85.5t-76.5 -122.5t-56.5 -141.5t-37 -144.5t-21 -129.5t-6 -98z" />
<glyph unicode="&#x153;" horiz-adv-x="1662" d="M63 395q0 80 13.5 161.5t39.5 160.5t68 147.5t96.5 121t128 82.5t158.5 30q244 0 344 -176q146 176 375 176q148 0 233 -75.5t85 -201.5q0 -186 -147.5 -277t-409.5 -91h-91v-41q0 -129 43 -200t129 -71q30 0 62.5 7.5t74 26.5t61.5 28.5t70.5 38.5t55.5 32l66 -145 q-50 -32 -105 -61t-151 -60t-177 -31q-199 0 -282 168q-134 -168 -338 -168q-85 0 -156.5 24.5t-127 73.5t-87 131t-31.5 189zM266 391q0 -248 201 -248q74 0 134 57.5t94.5 144t52.5 175.5t18 164q0 248 -201 248q-74 0 -134 -57.5t-94.5 -144t-52.5 -175.5t-18 -164z M973 582h84q172 0 263 63t91 166q0 60 -38 94.5t-99 34.5q-110 0 -190 -101t-111 -257z" />
<glyph unicode="&#x154;" horiz-adv-x="1204" d="M51 0l254 1434h447q215 0 325.5 -87t110.5 -257q0 -183 -103.5 -316t-291.5 -172l208 -602h-219l-188 590h-227l-105 -590h-211zM397 768h236q159 0 248.5 81.5t89.5 221.5q0 184 -238 184h-250zM637 1530l248 272h258l-328 -272h-178z" />
<glyph unicode="&#x155;" horiz-adv-x="698" d="M23 0l190 1075h201l-41 -227q14 25 27 44.5t50 62.5t75 70.5t97 47.5t121 14l-36 -200q-58 0 -111 -19.5t-91 -51t-71 -69t-53.5 -75.5t-35.5 -69.5t-21 -50.5l-7 -20l-92 -532h-202zM344 1221l248 272h258l-328 -272h-178z" />
<glyph unicode="&#x156;" horiz-adv-x="1204" d="M51 0l254 1434h447q215 0 325.5 -87t110.5 -257q0 -183 -103.5 -316t-291.5 -172l208 -602h-219l-188 590h-227l-105 -590h-211zM311 -514l113 176h-74l37 213h166l-27 -227l-176 -219zM397 768h236q159 0 248.5 81.5t89.5 221.5q0 184 -238 184h-250z" />
<glyph unicode="&#x157;" horiz-adv-x="698" d="M-57 -514l112 176h-73l36 213h166l-26 -227l-176 -219zM23 0l190 1075h201l-41 -227q14 25 27 44.5t50 62.5t75 70.5t97 47.5t121 14l-36 -200q-58 0 -111 -19.5t-91 -51t-71 -69t-53.5 -75.5t-35.5 -69.5t-21 -50.5l-7 -20l-92 -532h-202z" />
<glyph unicode="&#x158;" horiz-adv-x="1204" d="M51 0l254 1434h447q215 0 325.5 -87t110.5 -257q0 -183 -103.5 -316t-291.5 -172l208 -602h-219l-188 590h-227l-105 -590h-211zM397 768h236q159 0 248.5 81.5t89.5 221.5q0 184 -238 184h-250zM569 1802h133l105 -168l162 168h149l-217 -272h-207z" />
<glyph unicode="&#x159;" horiz-adv-x="696" d="M23 0l190 1075h201l-41 -227q14 25 27 44.5t50 62.5t75 70.5t97 47.5t121 14l-36 -200q-58 0 -111 -19.5t-91 -51t-71 -69t-53.5 -75.5t-35.5 -69.5t-21 -50.5l-7 -20l-92 -532h-202zM276 1493h134l104 -168l162 168h149l-217 -272h-207z" />
<glyph unicode="&#x15a;" horiz-adv-x="1085" d="M0 162l123 153q85 -62 185 -106.5t190 -44.5q105 0 175 58.5t70 156.5q0 21 -4 40t-10 34.5t-18.5 32t-22 28t-29 27t-31.5 24.5t-37.5 24.5t-38.5 23t-43 24.5t-44 25q-69 41 -114 75t-88 81t-64 105.5t-21 129.5q0 178 124 290.5t323 112.5q223 0 460 -147l-120 -154 q-74 47 -168 81t-168 34q-93 0 -159.5 -55t-66.5 -152q0 -18 3.5 -34.5t7.5 -29.5t15 -27.5t18.5 -24t26 -23.5t28 -21.5t34.5 -22.5t37 -21.5t43.5 -24t45.5 -25.5q55 -33 92.5 -58.5t81.5 -65.5t69.5 -79t43.5 -94t18 -117q0 -185 -132 -301.5t-335 -116.5 q-138 0 -267 53.5t-233 131.5zM543 1530l248 272h258l-328 -272h-178z" />
<glyph unicode="&#x15b;" horiz-adv-x="907" d="M-12 125l106 141q71 -48 157.5 -83.5t154.5 -35.5q71 0 120 38t49 106q0 16 -2.5 29.5t-10.5 26t-14 22t-20.5 20t-23.5 17t-29.5 17.5t-31 16t-36 17t-36.5 17q-44 21 -75 38t-67.5 45t-59 58t-37.5 73t-15 93q0 144 100.5 231t261.5 87q104 0 205 -36t176 -85 l-102 -141q-63 39 -138 66.5t-137 27.5q-69 0 -114 -35.5t-45 -97.5q0 -18 5 -34t11 -28t20 -24.5t23 -20t30 -18.5t31 -15.5t35.5 -16t34.5 -15.5q50 -24 85 -44t72.5 -49.5t60.5 -60.5t37.5 -74t14.5 -94q0 -149 -104.5 -237.5t-271.5 -88.5q-214 0 -420 148zM408 1221 l247 272h258l-327 -272h-178z" />
<glyph unicode="&#x15c;" horiz-adv-x="1085" d="M0 162l123 153q85 -62 185 -106.5t190 -44.5q105 0 175 58.5t70 156.5q0 21 -4 40t-10 34.5t-18.5 32t-22 28t-29 27t-31.5 24.5t-37.5 24.5t-38.5 23t-43 24.5t-44 25q-69 41 -114 75t-88 81t-64 105.5t-21 129.5q0 178 124 290.5t323 112.5q223 0 460 -147l-120 -154 q-74 47 -168 81t-168 34q-93 0 -159.5 -55t-66.5 -152q0 -18 3.5 -34.5t7.5 -29.5t15 -27.5t18.5 -24t26 -23.5t28 -21.5t34.5 -22.5t37 -21.5t43.5 -24t45.5 -25.5q55 -33 92.5 -58.5t81.5 -65.5t69.5 -79t43.5 -94t18 -117q0 -185 -132 -301.5t-335 -116.5 q-138 0 -267 53.5t-233 131.5zM428 1530l219 272h207l123 -272h-133l-105 168l-159 -168h-152z" />
<glyph unicode="&#x15d;" horiz-adv-x="907" d="M-12 125l106 141q71 -48 157.5 -83.5t154.5 -35.5q71 0 120 38t49 106q0 16 -2.5 29.5t-10.5 26t-14 22t-20.5 20t-23.5 17t-29.5 17.5t-31 16t-36 17t-36.5 17q-44 21 -75 38t-67.5 45t-59 58t-37.5 73t-15 93q0 144 100.5 231t261.5 87q104 0 205 -36t176 -85 l-102 -141q-63 39 -138 66.5t-137 27.5q-69 0 -114 -35.5t-45 -97.5q0 -18 5 -34t11 -28t20 -24.5t23 -20t30 -18.5t31 -15.5t35.5 -16t34.5 -15.5q50 -24 85 -44t72.5 -49.5t60.5 -60.5t37.5 -74t14.5 -94q0 -149 -104.5 -237.5t-271.5 -88.5q-214 0 -420 148zM293 1221 l219 272h207l123 -272h-133l-105 168l-160 -168h-151z" />
<glyph unicode="&#x15e;" horiz-adv-x="1085" d="M0 162l123 153q85 -62 185 -106.5t190 -44.5q105 0 175 58.5t70 156.5q0 21 -4 40t-10 34.5t-18.5 32t-22 28t-29 27t-31.5 24.5t-37.5 24.5t-38.5 23t-43 24.5t-44 25q-69 41 -114 75t-88 81t-64 105.5t-21 129.5q0 178 124 290.5t323 112.5q223 0 460 -147l-120 -154 q-74 47 -168 81t-168 34q-93 0 -159.5 -55t-66.5 -152q0 -18 3.5 -34.5t7.5 -29.5t15 -27.5t18.5 -24t26 -23.5t28 -21.5t34.5 -22.5t37 -21.5t43.5 -24t45.5 -25.5q55 -33 92.5 -58.5t81.5 -65.5t69.5 -79t43.5 -94t18 -117q0 -178 -122.5 -292t-314.5 -123q27 -73 27 -130 q0 -97 -57.5 -152.5t-147.5 -55.5q-86 0 -145 39l63 114q40 -24 82 -24t70.5 27t28.5 85q0 28 -17 99q-225 20 -434 180z" />
<glyph unicode="&#x15f;" horiz-adv-x="907" d="M-12 125l106 141q71 -48 157.5 -83.5t154.5 -35.5q71 0 120 38t49 106q0 16 -2.5 29.5t-10.5 26t-14 22t-20.5 20t-23.5 17t-29.5 17.5t-31 16t-36 17t-36.5 17q-44 21 -75 38t-67.5 45t-59 58t-37.5 73t-15 93q0 144 100.5 231t261.5 87q104 0 205 -36t176 -85 l-102 -141q-63 39 -138 66.5t-137 27.5q-69 0 -114 -35.5t-45 -97.5q0 -18 5 -34t11 -28t20 -24.5t23 -20t30 -18.5t31 -15.5t35.5 -16t34.5 -15.5q50 -24 85 -44t72.5 -49.5t60.5 -60.5t37.5 -74t14.5 -94q0 -137 -91 -224t-240 -99q26 -70 26 -130q0 -97 -57.5 -152.5 t-147.5 -55.5q-86 0 -145 39l64 114q40 -24 81 -24q42 0 70.5 27t28.5 85q0 39 -15 97q-193 18 -370 145z" />
<glyph unicode="&#x160;" horiz-adv-x="1085" d="M0 162l123 153q85 -62 185 -106.5t190 -44.5q105 0 175 58.5t70 156.5q0 21 -4 40t-10 34.5t-18.5 32t-22 28t-29 27t-31.5 24.5t-37.5 24.5t-38.5 23t-43 24.5t-44 25q-69 41 -114 75t-88 81t-64 105.5t-21 129.5q0 178 124 290.5t323 112.5q223 0 460 -147l-120 -154 q-74 47 -168 81t-168 34q-93 0 -159.5 -55t-66.5 -152q0 -18 3.5 -34.5t7.5 -29.5t15 -27.5t18.5 -24t26 -23.5t28 -21.5t34.5 -22.5t37 -21.5t43.5 -24t45.5 -25.5q55 -33 92.5 -58.5t81.5 -65.5t69.5 -79t43.5 -94t18 -117q0 -185 -132 -301.5t-335 -116.5 q-138 0 -267 53.5t-233 131.5zM475 1802h133l105 -168l161 168h150l-217 -272h-207z" />
<glyph unicode="&#x161;" horiz-adv-x="905" d="M-12 125l106 141q71 -48 157.5 -83.5t154.5 -35.5q71 0 120 38t49 106q0 16 -2.5 29.5t-10.5 26t-14 22t-20.5 20t-23.5 17t-29.5 17.5t-31 16t-36 17t-36.5 17q-44 21 -75 38t-67.5 45t-59 58t-37.5 73t-15 93q0 144 100.5 231t261.5 87q104 0 205 -36t176 -85 l-102 -141q-63 39 -138 66.5t-137 27.5q-69 0 -114 -35.5t-45 -97.5q0 -18 5 -34t11 -28t20 -24.5t23 -20t30 -18.5t31 -15.5t35.5 -16t34.5 -15.5q50 -24 85 -44t72.5 -49.5t60.5 -60.5t37.5 -74t14.5 -94q0 -149 -104.5 -237.5t-271.5 -88.5q-214 0 -420 148zM336 1493 h133l104 -168l162 168h150l-217 -272h-207z" />
<glyph unicode="&#x162;" horiz-adv-x="989" d="M119 -319l63 114q40 -24 82 -24t70 27t28 85q0 47 -20 117h-61l221 1245h-355l35 189h914l-33 -189h-352l-219 -1245h-60q5 -9 12.5 -26t16 -53t8.5 -71q0 -97 -57.5 -152.5t-147.5 -55.5q-86 0 -145 39z" />
<glyph unicode="&#x163;" horiz-adv-x="690" d="M14 -319l64 114q40 -24 82 -24t70 27t28 85q0 55 -16 101q-172 39 -123 311l108 620h-121l29 160h121l47 264l209 47l-55 -311h237l-26 -160h-240l-113 -641q-17 -112 54 -112q37 0 155 51l49 -164q-136 -58 -235 -69q27 -73 27 -130q0 -97 -57.5 -152.5t-147.5 -55.5 q-87 0 -146 39z" />
<glyph unicode="&#x164;" horiz-adv-x="989" d="M147 1245l35 189h914l-33 -189h-352l-219 -1245h-211l221 1245h-355zM430 1802h133l105 -168l161 168h150l-217 -272h-207z" />
<glyph unicode="&#x165;" horiz-adv-x="688" d="M106 915l29 160h121l47 264l209 47l-55 -311h237l-26 -160h-240l-113 -641q-17 -112 54 -112q37 0 155 51l49 -164q-166 -72 -274 -72q-109 0 -159 77.5t-21 240.5l108 620h-121zM573 1229l113 176h-74l37 213h166l-27 -227l-176 -220z" />
<glyph unicode="&#x166;" horiz-adv-x="1007" d="M156 1245l34 189h914l-33 -189h-352l-115 -653h170l-24 -133h-170l-80 -459h-211l82 459h-166l22 133h166l117 653h-354z" />
<glyph unicode="&#x167;" horiz-adv-x="688" d="M76 555l24 133h86l41 227h-121l29 160h121l47 264l209 47l-55 -311h237l-26 -160h-240l-41 -227h188l-24 -133h-186l-50 -281q-17 -112 54 -112q37 0 155 51l49 -164q-166 -72 -274 -72q-109 0 -159 77.5t-21 240.5l45 260h-88z" />
<glyph unicode="&#x168;" horiz-adv-x="1228" d="M112.5 345q2.5 81 16.5 173l164 916h209l-166 -945q-8 -47 -11 -84.5t-0.5 -75.5t15.5 -66t36 -50t61 -33.5t89 -11.5q76 0 133.5 24.5t94 70t59 100.5t35.5 126l166 945h211l-168 -945q-16 -91 -40 -163.5t-66.5 -139.5t-100 -111.5t-142 -71t-190.5 -26.5 q-112 0 -192.5 27t-125 76t-67.5 116.5t-20.5 148.5zM504 1610q56 90 96.5 130t99.5 40q38 0 76.5 -25t70.5 -49.5t54 -24.5q42 0 103 95l88 -64q-54 -88 -95.5 -128t-101.5 -40q-38 0 -76 24.5t-70 49t-55 24.5q-21 0 -43.5 -18.5t-58.5 -75.5z" />
<glyph unicode="&#x169;" d="M70 311l135 764h203l-132 -733q-33 -195 93 -195q68 0 152.5 49.5t148.5 108.5l137 770h201l-189 -1075h-203l25 137q-208 -160 -362 -160q-131 0 -183.5 88.5t-25.5 245.5zM369 1300q56 90 96.5 130t99.5 40q38 0 76.5 -24.5t70.5 -49t54 -24.5q20 0 43 19t59 75l88 -63 q-54 -89 -95 -128.5t-101 -39.5q-38 0 -76 24.5t-70 49t-55 24.5q-21 0 -43.5 -18.5t-58.5 -75.5z" />
<glyph unicode="&#x16a;" horiz-adv-x="1228" d="M112.5 345q2.5 81 16.5 173l164 916h209l-166 -945q-8 -47 -11 -84.5t-0.5 -75.5t15.5 -66t36 -50t61 -33.5t89 -11.5q76 0 133.5 24.5t94 70t59 100.5t35.5 126l166 945h211l-168 -945q-16 -91 -40 -163.5t-66.5 -139.5t-100 -111.5t-142 -71t-190.5 -26.5 q-112 0 -192.5 27t-125 76t-67.5 116.5t-20.5 148.5zM532 1581l23 135h504l-25 -135h-502z" />
<glyph unicode="&#x16b;" d="M70 311l135 764h203l-132 -733q-33 -195 93 -195q68 0 152.5 49.5t148.5 108.5l137 770h201l-189 -1075h-203l25 137q-208 -160 -362 -160q-131 0 -183.5 88.5t-25.5 245.5zM389 1272l23 135h503l-24 -135h-502z" />
<glyph unicode="&#x16c;" horiz-adv-x="1228" d="M112.5 345q2.5 81 16.5 173l164 916h209l-166 -945q-8 -47 -11 -84.5t-0.5 -75.5t15.5 -66t36 -50t61 -33.5t89 -11.5q76 0 133.5 24.5t94 70t59 100.5t35.5 126l166 945h211l-168 -945q-16 -91 -40 -163.5t-66.5 -139.5t-100 -111.5t-142 -71t-190.5 -26.5 q-112 0 -192.5 27t-125 76t-67.5 116.5t-20.5 148.5zM557 1761h131q-14 -102 96 -102q65 0 107 25t51 77h133q-19 -107 -96.5 -169t-200.5 -62q-121 0 -180 63.5t-41 167.5z" />
<glyph unicode="&#x16d;" d="M70 311l135 764h203l-132 -733q-33 -195 93 -195q68 0 152.5 49.5t148.5 108.5l137 770h201l-189 -1075h-203l25 137q-208 -160 -362 -160q-131 0 -183.5 88.5t-25.5 245.5zM414 1452h131q-14 -102 96 -102q65 0 107 25t51 77h133q-19 -107 -96.5 -169t-200.5 -62 q-121 0 -180 63.5t-41 167.5z" />
<glyph unicode="&#x16e;" horiz-adv-x="1228" d="M112.5 345q2.5 81 16.5 173l164 916h209l-166 -945q-8 -47 -11 -84.5t-0.5 -75.5t15.5 -66t36 -50t61 -33.5t89 -11.5q76 0 133.5 24.5t94 70t59 100.5t35.5 126l166 945h211l-168 -945q-16 -91 -40 -163.5t-66.5 -139.5t-100 -111.5t-142 -71t-190.5 -26.5 q-112 0 -192.5 27t-125 76t-67.5 116.5t-20.5 148.5zM604 1714q0 85 59.5 145t145.5 60q85 0 145 -60t60 -145q0 -86 -60 -145.5t-145 -59.5q-86 0 -145.5 59.5t-59.5 145.5zM711 1714q0 -40 28.5 -69t69.5 -29q40 0 69 29t29 69t-29 69t-69 29q-41 0 -69.5 -29t-28.5 -69z " />
<glyph unicode="&#x16f;" d="M70 311l135 764h203l-132 -733q-33 -195 93 -195q68 0 152.5 49.5t148.5 108.5l137 770h201l-189 -1075h-203l25 137q-208 -160 -362 -160q-131 0 -183.5 88.5t-25.5 245.5zM461 1405q0 85 59.5 145t145.5 60q85 0 144.5 -60t59.5 -145q0 -86 -59.5 -145.5t-144.5 -59.5 q-86 0 -145.5 59.5t-59.5 145.5zM567 1405q0 -40 29 -69t70 -29q40 0 69 29t29 69t-29 69t-69 29q-41 0 -70 -29t-29 -69z" />
<glyph unicode="&#x170;" horiz-adv-x="1228" d="M112.5 345q2.5 81 16.5 173l164 916h209l-166 -945q-8 -47 -11 -84.5t-0.5 -75.5t15.5 -66t36 -50t61 -33.5t89 -11.5q76 0 133.5 24.5t94 70t59 100.5t35.5 126l166 945h211l-168 -945q-16 -91 -40 -163.5t-66.5 -139.5t-100 -111.5t-142 -71t-190.5 -26.5 q-112 0 -192.5 27t-125 76t-67.5 116.5t-20.5 148.5zM545 1530l172 272h207l-254 -272h-125zM823 1530l174 272h205l-254 -272h-125z" />
<glyph unicode="&#x171;" d="M70 311l135 764h203l-132 -733q-33 -195 93 -195q68 0 152.5 49.5t148.5 108.5l137 770h201l-189 -1075h-203l25 137q-208 -160 -362 -160q-131 0 -183.5 88.5t-25.5 245.5zM399 1221l172 272h207l-254 -272h-125zM678 1221l174 272h205l-254 -272h-125z" />
<glyph unicode="&#x172;" horiz-adv-x="1228" d="M113 373q2 66 16 145l164 916h209l-166 -945q-8 -47 -11 -84.5t-0.5 -75.5t15.5 -66t36 -50t61 -33.5t89 -11.5q76 0 133.5 24.5t94 70t59 100.5t35.5 126l166 945h211l-168 -945q-16 -95 -43 -170.5t-70.5 -142.5t-110 -113t-153.5 -67q-90 -58 -137 -107t-47 -100 q0 -14 3.5 -24t12.5 -16t15.5 -10t21.5 -5.5t21 -2t23.5 0t20.5 0.5l-41 -113q-94 0 -137 17q-84 32 -84 126q0 121 160 215q-92 1 -162.5 20t-116 55t-74 83.5t-38.5 109.5t-8 128z" />
<glyph unicode="&#x173;" d="M70 311l135 764h203l-132 -733q-33 -195 93 -195q68 0 152.5 49.5t148.5 108.5l137 770h201l-189 -1075h-8q-96 -60 -145.5 -109.5t-49.5 -101.5q0 -14 3.5 -24t12.5 -16t16 -10t22 -5.5t21 -2t24 0t20 0.5l-41 -113q-94 0 -137 17q-84 32 -84 126q0 135 201 238h-58 l25 137q-208 -160 -362 -160q-131 0 -183.5 88.5t-25.5 245.5z" />
<glyph unicode="&#x174;" horiz-adv-x="1626" d="M193 1434h231l10 -1110l424 1110h180l31 -1108l399 1108h244l-575 -1434h-209l-35 1098l-420 -1098h-209zM696 1530l219 272h207l123 -272h-133l-104 168l-160 -168h-152z" />
<glyph unicode="&#x175;" horiz-adv-x="1409" d="M131 1075h211l23 -813l333 813h164l45 -815l307 815h222l-461 -1075h-191l-49 786l-332 -786h-190zM535 1221l219 272h207l122 -272h-133l-104 168l-160 -168h-151z" />
<glyph unicode="&#x177;" horiz-adv-x="976" d="M-31 -274q122 48 187 97t120 142l-157 1110h211l84 -823l377 823h221l-531 -1075q-81 -163 -124 -222q-80 -110 -212 -171q-57 -27 -131 -49zM317 1221l220 272h206l123 -272h-133l-104 168l-160 -168h-152z" />
<glyph unicode="&#x178;" horiz-adv-x="1103" d="M166 1434h221l176 -672l410 672h246l-574 -863l-100 -571h-209l98 569zM475 1550l37 209h176l-37 -209h-176zM776 1550l37 209h174l-37 -209h-174z" />
<glyph unicode="&#x179;" horiz-adv-x="1071" d="M-39 0l31 172l827 1073h-602l33 189h874l-28 -170l-830 -1076h649l-32 -188h-922zM547 1530l248 272h258l-328 -272h-178z" />
<glyph unicode="&#x17a;" horiz-adv-x="913" d="M-39 0l29 156l641 743h-494l33 176h750l-29 -155l-641 -744h512l-33 -176h-768zM401 1221l248 272h258l-327 -272h-179z" />
<glyph unicode="&#x17b;" horiz-adv-x="1071" d="M-39 0l31 172l827 1073h-602l33 189h874l-28 -170l-830 -1076h649l-32 -188h-922zM621 1550l36 213h181l-37 -213h-180z" />
<glyph unicode="&#x17c;" horiz-adv-x="913" d="M-39 0l29 156l641 743h-494l33 176h750l-29 -155l-641 -744h512l-33 -176h-768zM475 1241l37 213h180l-37 -213h-180z" />
<glyph unicode="&#x17d;" horiz-adv-x="1071" d="M-39 0l31 172l827 1073h-602l33 189h874l-28 -170l-830 -1076h649l-32 -188h-922zM477 1802h133l105 -168l162 168h149l-217 -272h-207z" />
<glyph unicode="&#x17e;" horiz-adv-x="913" d="M-39 0l29 156l641 743h-494l33 176h750l-29 -155l-641 -744h512l-33 -176h-768zM334 1493h133l104 -168l162 168h150l-217 -272h-207z" />
<glyph unicode="&#x17f;" horiz-adv-x="557" d="M-174 -281q41 14 69 25.5t52.5 26.5t40 26t29 31.5t21 35.5t15.5 46t12.5 55t12.5 70l155 880h-118l28 160h119l21 119q27 156 86.5 227.5t171.5 71.5q71 0 152 -27t143 -59l-95 -139q-107 43 -166 43q-71 0 -90 -113l-202 -1151q-33 -185 -57 -246q-36 -95 -120 -149 q-76 -47 -237 -94z" />
<glyph unicode="&#x192;" horiz-adv-x="970" d="M-115 -418l486 1333h-121l63 160h117l45 123q60 163 126.5 229t178.5 66q122 0 299 -94l-123 -139q-118 51 -168 47q-68 0 -108 -111l-45 -121h239l-63 -160h-233l-488 -1333h-205z" />
<glyph unicode="&#x1fc;" horiz-adv-x="1753" d="M-129 0l1044 1434h879l-33 -189h-577l-76 -436h475l-35 -184h-473l-78 -437h588l-33 -188h-798l57 328h-442l-230 -328h-268zM498 510h346l117 655zM946 1530l248 272h258l-328 -272h-178z" />
<glyph unicode="&#x1fd;" horiz-adv-x="1601" d="M63 334q0 201 53.5 373.5t157.5 281.5t236 109q86 0 153 -46t128 -118l24 141h203l-4 -24q96 47 211 47q148 0 232.5 -75.5t84.5 -201.5q0 -186 -147.5 -277t-409.5 -91h-90v-41q0 -129 43 -200t129 -71q30 0 62.5 7.5t74 26.5t61.5 28.5t70.5 38.5t55.5 32l65 -145 q-50 -32 -105 -61t-150.5 -60t-176.5 -31q-114 0 -190 58l-7 -35h-200l26 156q-179 -179 -336 -179q-111 0 -182.5 90.5t-71.5 266.5zM272 365q0 -100 32.5 -156.5t94.5 -56.5q72 0 140.5 48.5t146.5 135.5l4 31v49q0 191 68 352q-43 69 -97.5 112.5t-111.5 43.5 q-82 0 -147.5 -89t-97.5 -215t-32 -255zM758 1221l248 272h258l-328 -272h-178zM911 582h84q172 0 263.5 63.5t91.5 165.5q0 60 -38.5 94.5t-99.5 34.5q-110 0 -190 -101t-111 -257z" />
<glyph unicode="&#x1fe;" horiz-adv-x="1306" d="M20 0l154 193q-68 127 -68 321q0 70 10 151t33.5 172.5t58 178.5t87.5 167.5t117 140.5t151.5 96t186.5 36q212 0 337 -113l72 91h158l-152 -191q70 -128 70 -319q0 -71 -10 -152t-33.5 -173.5t-58 -179.5t-87 -168t-116.5 -141.5t-151.5 -96.5t-186.5 -36 q-216 0 -340 115l-74 -92h-158zM322 514q0 -77 10 -123l622 785q-69 92 -209 92q-67 0 -125.5 -32.5t-100.5 -85.5t-76.5 -122.5t-56.5 -141.5t-37 -144.5t-21 -129.5t-6 -98zM383 260q69 -94 213 -94q67 0 125.5 32.5t100.5 85.5t76.5 122.5t56.5 141.5t37 144.5 t21.5 129.5t6.5 98q0 68 -12 127zM655 1530l248 272h258l-327 -272h-179z" />
<glyph unicode="&#x1ff;" horiz-adv-x="1058" d="M2 0l121 147q-60 102 -60 248q0 80 13.5 161.5t39.5 160.5t68 147.5t96.5 121t128 82.5t158.5 30q166 0 271 -86l53 63h133l-119 -143q64 -98 64 -252q0 -80 -13.5 -161.5t-39.5 -160.5t-68 -147.5t-96.5 -121t-128 -82.5t-158.5 -30q-170 0 -275 89l-53 -66h-135z M266 391q0 -47 4 -67l449 542q-51 66 -154 66q-74 0 -134 -57.5t-94.5 -144t-52.5 -175.5t-18 -164zM311 211q50 -68 156 -68q74 0 134 57.5t94.5 144t52.5 175.5t18 164q0 38 -6 72zM469 1221l248 272h258l-328 -272h-178z" />
<glyph unicode="&#x218;" horiz-adv-x="1085" d="M0 162l123 153q85 -62 185 -106.5t190 -44.5q105 0 175 58.5t70 156.5q0 21 -4 40t-10 34.5t-18.5 32t-22 28t-29 27t-31.5 24.5t-37.5 24.5t-38.5 23t-43 24.5t-44 25q-69 41 -114 75t-88 81t-64 105.5t-21 129.5q0 178 124 290.5t323 112.5q223 0 460 -147l-120 -154 q-74 47 -168 81t-168 34q-93 0 -159.5 -55t-66.5 -152q0 -18 3.5 -34.5t7.5 -29.5t15 -27.5t18.5 -24t26 -23.5t28 -21.5t34.5 -22.5t37 -21.5t43.5 -24t45.5 -25.5q55 -33 92.5 -58.5t81.5 -65.5t69.5 -79t43.5 -94t18 -117q0 -185 -132 -301.5t-335 -116.5 q-138 0 -267 53.5t-233 131.5zM256 -514l113 176h-74l37 213h166l-27 -227l-176 -219z" />
<glyph unicode="&#x219;" horiz-adv-x="907" d="M-12 125l106 141q71 -48 157.5 -83.5t154.5 -35.5q71 0 120 38t49 106q0 16 -2.5 29.5t-10.5 26t-14 22t-20.5 20t-23.5 17t-29.5 17.5t-31 16t-36 17t-36.5 17q-44 21 -75 38t-67.5 45t-59 58t-37.5 73t-15 93q0 144 100.5 231t261.5 87q104 0 205 -36t176 -85 l-102 -141q-63 39 -138 66.5t-137 27.5q-69 0 -114 -35.5t-45 -97.5q0 -18 5 -34t11 -28t20 -24.5t23 -20t30 -18.5t31 -15.5t35.5 -16t34.5 -15.5q50 -24 85 -44t72.5 -49.5t60.5 -60.5t37.5 -74t14.5 -94q0 -149 -104.5 -237.5t-271.5 -88.5q-214 0 -420 148zM164 -514 l112 176h-73l37 213h166l-27 -227l-176 -219z" />
<glyph unicode="&#x21a;" horiz-adv-x="989" d="M147 1245l35 189h914l-33 -189h-352l-219 -1245h-211l221 1245h-355zM209 -514l113 176h-74l37 213h166l-27 -227l-176 -219z" />
<glyph unicode="&#x21b;" horiz-adv-x="688" d="M27 -514l112 176h-73l36 213h166l-26 -227l-176 -219zM106 915l29 160h121l47 264l209 47l-55 -311h237l-26 -160h-240l-113 -641q-17 -112 54 -112q37 0 155 51l49 -164q-166 -72 -274 -72q-109 0 -159 77.5t-21 240.5l108 620h-121z" />
<glyph unicode="&#x2b0;" horiz-adv-x="708" d="M127 788l158 895h145l-59 -327q125 92 223 92q84 0 118 -54.5t15 -152.5l-78 -453h-145l76 431q18 108 -52 108q-42 0 -92 -27.5t-86 -62.5l-78 -449h-145z" />
<glyph unicode="&#x2b2;" horiz-adv-x="473" d="M53 633q66 24 95 42.5t39 38.5t18 66l114 654h146l-115 -643q-6 -37 -10 -55t-11 -45t-15 -40.5t-22 -32.5t-31.5 -30t-43 -24.5t-58 -24t-75.5 -21.5zM334 1540l24 141h154l-25 -141h-153z" />
<glyph unicode="&#x2b7;" horiz-adv-x="825" d="M137 1434h150l12 -467l197 467h114l29 -469l178 469h156l-285 -646h-135l-33 449l-192 -449h-135z" />
<glyph unicode="&#x2b8;" horiz-adv-x="657" d="M102 637q76 29 115 54.5t72 74.5l-105 668h150l51 -469l219 469h158l-328 -646q-33 -64 -50.5 -93.5t-52.5 -69.5t-82 -64t-116 -43z" />
<glyph unicode="&#x2c6;" horiz-adv-x="485" d="M182 1221l219 272h207l123 -272h-133l-104 168l-160 -168h-152z" />
<glyph unicode="&#x2c7;" horiz-adv-x="487" d="M231 1493h134l104 -168l162 168h149l-217 -272h-207z" />
<glyph unicode="&#x2d8;" horiz-adv-x="466" d="M231 1452h131q-14 -102 97 -102q140 0 157 102h134q-19 -107 -96.5 -169t-200.5 -62q-121 0 -180.5 63.5t-41.5 167.5z" />
<glyph unicode="&#x2d9;" horiz-adv-x="155" d="M205 1241l37 213h180l-37 -213h-180z" />
<glyph unicode="&#x2da;" horiz-adv-x="417" d="M131 1405q0 85 59.5 145t145.5 60q85 0 145 -60t60 -145q0 -86 -60 -145.5t-145 -59.5q-86 0 -145.5 59.5t-59.5 145.5zM238 1405q0 -40 28.5 -69t69.5 -29q40 0 69 29t29 69t-29 69t-69 29q-41 0 -69.5 -29t-28.5 -69z" />
<glyph unicode="&#x2db;" horiz-adv-x="266" d="M-74 -238q0 80 64 142t182 119l96 -21q-99 -62 -148.5 -111.5t-49.5 -101.5q0 -14 3.5 -24t12.5 -16t15.5 -10t21.5 -5.5t21 -2t23.5 0t20.5 0.5l-41 -113q-94 0 -137 17q-84 32 -84 126z" />
<glyph unicode="&#x2dc;" horiz-adv-x="505" d="M195 1300q56 90 96.5 130t99.5 40q38 0 76.5 -24.5t70.5 -49t54 -24.5q20 0 43 19t59 75l88 -63q-54 -89 -95 -128.5t-101 -39.5q-38 0 -76 24.5t-70 49t-55 24.5q-21 0 -43.5 -18.5t-58.5 -75.5z" />
<glyph unicode="&#x2dd;" horiz-adv-x="552" d="M186 1221l172 272h207l-254 -272h-125zM465 1221l174 272h205l-254 -272h-125z" />
<glyph unicode="&#x2e3;" horiz-adv-x="681" d="M63 788l279 322l-152 324h154l90 -238l174 238h174l-266 -322l162 -324h-156l-96 244l-180 -244h-183z" />
<glyph unicode="&#x3c0;" horiz-adv-x="964" d="M76 0l157 893h-139l33 182h870l-32 -182h-144l-157 -893h-179l158 893h-231l-158 -893h-178z" />
<glyph unicode="&#x1e80;" horiz-adv-x="1626" d="M193 1434h231l10 -1110l424 1110h180l31 -1108l399 1108h244l-575 -1434h-209l-35 1098l-420 -1098h-209zM727 1802h231l162 -272h-155z" />
<glyph unicode="&#x1e81;" horiz-adv-x="1409" d="M131 1075h211l23 -813l333 813h164l45 -815l307 815h222l-461 -1075h-191l-49 786l-332 -786h-190zM567 1493h232l162 -272h-156z" />
<glyph unicode="&#x1e82;" horiz-adv-x="1626" d="M193 1434h231l10 -1110l424 1110h180l31 -1108l399 1108h244l-575 -1434h-209l-35 1098l-420 -1098h-209zM811 1530l248 272h258l-328 -272h-178z" />
<glyph unicode="&#x1e83;" horiz-adv-x="1409" d="M131 1075h211l23 -813l333 813h164l45 -815l307 815h222l-461 -1075h-191l-49 786l-332 -786h-190zM651 1221l248 272h258l-328 -272h-178z" />
<glyph unicode="&#x1e84;" horiz-adv-x="1626" d="M193 1434h231l10 -1110l424 1110h180l31 -1108l399 1108h244l-575 -1434h-209l-35 1098l-420 -1098h-209zM735 1534l37 209h176l-37 -209h-176zM1036 1534l37 209h174l-37 -209h-174z" />
<glyph unicode="&#x1e85;" horiz-adv-x="1409" d="M131 1075h211l23 -813l333 813h164l45 -815l307 815h222l-461 -1075h-191l-49 786l-332 -786h-190zM578 1241l36 209h177l-37 -209h-176zM879 1241l36 209h175l-37 -209h-174z" />
<glyph unicode="&#x1e9e;" horiz-adv-x="1396" d="M51 0l166 946q44 250 166 369t332 119h602l-27 -150l-377 -426q187 -35 285 -148.5t98 -263.5q0 -86 -31.5 -168t-90.5 -150t-155 -109.5t-214 -41.5q-214 0 -402 129l113 156q142 -98 279 -98q132 0 208 81.5t76 192.5q0 35 -8.5 67.5t-32.5 67.5t-61.5 60.5t-102.5 42 t-149 16.5h-88l25 146l362 407h-309q-114 0 -187.5 -76t-105.5 -256l-160 -913h-211z" />
<glyph unicode="&#x1ef2;" horiz-adv-x="1103" d="M166 1434h221l176 -672l410 672h246l-574 -863l-100 -571h-209l98 569zM467 1802h231l162 -272h-155z" />
<glyph unicode="&#x1ef3;" horiz-adv-x="976" d="M-31 -274q122 48 187 97t120 142l-157 1110h211l84 -823l377 823h221l-531 -1075q-81 -163 -124 -222q-80 -110 -212 -171q-57 -27 -131 -49zM348 1493h232l161 -272h-155z" />
<glyph unicode="&#x2000;" horiz-adv-x="959" />
<glyph unicode="&#x2001;" horiz-adv-x="1919" />
<glyph unicode="&#x2002;" horiz-adv-x="959" />
<glyph unicode="&#x2003;" horiz-adv-x="1919" />
<glyph unicode="&#x2004;" horiz-adv-x="639" />
<glyph unicode="&#x2005;" horiz-adv-x="479" />
<glyph unicode="&#x2006;" horiz-adv-x="319" />
<glyph unicode="&#x2007;" horiz-adv-x="319" />
<glyph unicode="&#x2008;" horiz-adv-x="239" />
<glyph unicode="&#x2009;" horiz-adv-x="383" />
<glyph unicode="&#x200a;" horiz-adv-x="106" />
<glyph unicode="&#x2010;" horiz-adv-x="761" d="M104 496l31 176h508l-31 -176h-508z" />
<glyph unicode="&#x2011;" horiz-adv-x="761" d="M104 496l31 176h508l-31 -176h-508z" />
<glyph unicode="&#x2012;" horiz-adv-x="761" d="M104 496l31 176h508l-31 -176h-508z" />
<glyph unicode="&#x2013;" horiz-adv-x="976" d="M104 496l31 174h725l-31 -174h-725z" />
<glyph unicode="&#x2014;" horiz-adv-x="1150" d="M104 496l31 174h899l-30 -174h-900z" />
<glyph unicode="&#x2018;" horiz-adv-x="454" d="M170 905l35 299l227 269l47 -74l-143 -217h96l-47 -277h-215z" />
<glyph unicode="&#x2019;" horiz-adv-x="440" d="M166 940l143 217h-96l47 277h215l-35 -299l-227 -269z" />
<glyph unicode="&#x201a;" horiz-adv-x="471" d="M-27 -217l144 217h-97l48 276h215l-35 -299l-228 -268z" />
<glyph unicode="&#x201c;" horiz-adv-x="802" d="M170 905l35 299l227 269l47 -74l-143 -217h96l-47 -277h-215zM518 905l35 299l227 269l47 -74l-143 -217h96l-47 -277h-215z" />
<glyph unicode="&#x201d;" horiz-adv-x="788" d="M166 940l143 217h-96l47 277h215l-35 -299l-227 -269zM514 940l143 217h-96l47 277h215l-35 -299l-227 -269z" />
<glyph unicode="&#x201e;" horiz-adv-x="819" d="M-27 -217l144 217h-97l48 276h215l-35 -299l-228 -268zM322 -217l143 217h-96l47 276h215l-35 -299l-227 -268z" />
<glyph unicode="&#x2020;" horiz-adv-x="1001" d="M86 793l33 180l360 -25l86 486h158l-86 -486l373 25l-31 -180l-367 22l-217 -1233h-155l217 1233z" />
<glyph unicode="&#x2021;" horiz-adv-x="1073" d="M27 256l32 180l363 -24l72 403l-373 -22l33 180l362 -25l86 486h156l-86 -486l375 25l-33 -180l-365 22l-71 -403l372 24l-30 -180l-365 23l-123 -697h-156l123 697z" />
<glyph unicode="&#x2022;" horiz-adv-x="866" d="M150 584q0 115 81 196.5t195 81.5q116 0 197.5 -81.5t81.5 -196.5t-81.5 -196t-197.5 -81q-114 0 -195 81t-81 196z" />
<glyph unicode="&#x2026;" horiz-adv-x="1228" d="M20 0l48 276h217l-49 -276h-216zM401 0l48 276h217l-50 -276h-215zM782 0l47 276h218l-50 -276h-215z" />
<glyph unicode="&#x202f;" horiz-adv-x="383" />
<glyph unicode="&#x2030;" horiz-adv-x="2426" d="M147 989q0 65 13.5 130t42 126t69.5 108t100.5 75t129.5 28q129 0 212 -76.5t83 -224.5q0 -65 -13.5 -130t-42 -126t-69.5 -108t-100.5 -75t-129.5 -28q-130 0 -212.5 76.5t-82.5 224.5zM305 985q0 -85 34.5 -125.5t106.5 -40.5q48 0 86.5 35.5t61 89t34 110t11.5 105.5 q0 166 -141 166q-48 0 -86.5 -35.5t-61 -89t-34 -110t-11.5 -105.5zM356 0l858 1434h164l-856 -1434h-166zM942 279q0 65 13.5 130t42 126t69 107.5t100 74.5t129.5 28q129 0 212 -76.5t83 -224.5q0 -65 -13.5 -130t-42 -126t-69 -108t-100 -75t-129.5 -28q-130 0 -212.5 77 t-82.5 225zM1100 274q0 -85 34.5 -125t106.5 -40q48 0 86.5 35.5t61 89t34 110t11.5 105.5q0 165 -142 165q-48 0 -86.5 -35.5t-60.5 -89t-33.5 -110t-11.5 -105.5zM1663 279q0 65 13.5 130t42.5 126t69.5 107.5t100 74.5t128.5 28q130 0 212.5 -76.5t82.5 -224.5 q0 -83 -21.5 -163.5t-63 -149.5t-111 -111.5t-156.5 -42.5q-131 0 -214 77t-83 225zM1823 274q0 -85 34.5 -125t106.5 -40q48 0 86.5 35.5t61 89t34 110t11.5 105.5q0 165 -142 165q-48 0 -86.5 -35.5t-60.5 -89t-33.5 -110t-11.5 -105.5z" />
<glyph unicode="&#x2039;" horiz-adv-x="677" d="M45 500l23 133l585 448l-41 -235l-397 -295l295 -291l-37 -207z" />
<glyph unicode="&#x203a;" horiz-adv-x="677" d="M10 51l41 236l398 295l-295 290l36 207l428 -446l-22 -133z" />
<glyph unicode="&#x2044;" horiz-adv-x="309" d="M-305 0l799 1434h159l-800 -1434h-158z" />
<glyph unicode="&#x205f;" horiz-adv-x="479" />
<glyph unicode="&#x2070;" horiz-adv-x="770" d="M174 1069q0 35 4.5 79t16.5 102t29.5 114t47.5 111t67.5 96t91 66.5t116.5 25.5q138 0 200 -80t62 -215q0 -35 -4.5 -79t-16.5 -102t-29.5 -114t-47.5 -111t-67.5 -96t-91 -66.5t-116.5 -25.5q-138 0 -200 80t-62 215zM322 1057q0 -74 23 -117t91 -43q58 0 105 61 t71.5 147t37 159.5t12.5 115.5q0 74 -23.5 117t-91.5 43q-58 0 -105 -61t-71 -147t-36.5 -159t-12.5 -116z" />
<glyph unicode="&#x2074;" horiz-adv-x="747" d="M109 963l20 112l436 574h199l-100 -555h112l-22 -131h-113l-31 -175h-147l31 175h-385zM285 1094h231l72 405z" />
<glyph unicode="&#x2075;" horiz-adv-x="690" d="M106 889l87 100q92 -80 178 -80q68 0 121 49t53 132q0 59 -30 93t-87 34q-68 0 -147 -52l-80 52l116 432h451l-23 -131h-325l-43 -189q49 17 96 17q108 0 166.5 -69.5t58.5 -176.5q0 -133 -85.5 -229.5t-231.5 -96.5q-149 0 -275 115z" />
<glyph unicode="&#x2076;" horiz-adv-x="729" d="M166 1081q0 153 64 286t179.5 214.5t256.5 81.5q37 0 70 -6.5t47 -12.5l14 -6l-56 -114q-32 10 -73 10q-106 0 -193 -73t-129 -193q78 73 176 73q102 0 160.5 -68.5t58.5 -170.5q0 -85 -34 -158.5t-104 -121.5t-163 -48q-132 0 -203 89t-71 218zM315 1075 q0 -73 31.5 -122.5t91.5 -49.5q71 0 112.5 57t41.5 136q0 53 -29 90t-88 37q-50 0 -92.5 -30.5t-65.5 -68.5q-2 -16 -2 -49z" />
<glyph unicode="&#x2077;" horiz-adv-x="598" d="M166 788q17 97 62 206.5t89 188t103.5 164.5t81 114t45.5 57h-340l22 131h510l-22 -121q-13 -15 -35.5 -42.5t-82 -111.5t-108.5 -167.5t-98 -199.5t-67 -219h-160z" />
<glyph unicode="&#x2078;" horiz-adv-x="735" d="M135 989q0 170 223 271q-96 68 -96 174q0 101 76.5 165t200.5 64q113 0 174 -53.5t61 -136.5q0 -136 -172 -224q137 -84 137 -213q0 -117 -91.5 -189.5t-239.5 -72.5q-128 0 -200.5 57.5t-72.5 157.5zM287 1004q0 -53 34.5 -81t92.5 -28q73 0 123.5 40.5t50.5 104.5 q0 51 -31 86t-84 66q-87 -38 -136.5 -80.5t-49.5 -107.5zM403 1423q0 -66 82 -114q65 27 104.5 61.5t39.5 85.5q0 38 -26 63t-71 25q-55 0 -92 -35.5t-37 -85.5z" />
<glyph unicode="&#x2079;" horiz-adv-x="729" d="M143 799l58 114q30 -10 71 -10q106 0 192 72.5t130 191.5q-76 -71 -176 -71q-102 0 -160.5 68.5t-58.5 170.5q0 132 82.5 230t220.5 98q131 0 201.5 -89t70.5 -218q0 -153 -63.5 -286t-178.5 -214.5t-256 -81.5q-37 0 -70.5 6t-47.5 12zM348 1341q0 -52 29.5 -89.5 t87.5 -37.5q50 0 94.5 32t65.5 69q2 16 2 47q0 72 -32.5 122t-92.5 50q-70 0 -112 -57.5t-42 -135.5z" />
<glyph unicode="&#x207a;" horiz-adv-x="657" d="M154 1143l18 110h213l39 217h113l-39 -217h213l-19 -110h-215l-37 -217h-112l37 217h-211z" />
<glyph unicode="&#x207d;" horiz-adv-x="409" d="M135.5 761.5q-2.5 50.5 11.5 123.5l119 669q8 46 14 70t18 54t28.5 46.5t44.5 35t67.5 32t96.5 27.5l24 -93q-80 -30 -104 -57t-35 -90l-129 -729q-14 -68 -2 -95t76 -57l-41 -86q-100 28 -143 63.5t-45.5 86z" />
<glyph unicode="&#x207e;" horiz-adv-x="409" d="M61 705q80 30 104.5 57t35.5 90l129 729q14 68 2 95t-76 57l41 86q100 -28 143 -63.5t45 -86t-12 -123.5l-119 -669q-6 -34 -10 -53.5t-11.5 -44.5t-16 -39t-22.5 -32t-31.5 -29t-43.5 -23.5t-58 -23t-75 -20.5z" />
<glyph unicode="&#x207f;" horiz-adv-x="708" d="M127 788l115 646h145l-14 -78q125 92 221 92q84 0 118 -54.5t15 -152.5l-78 -453h-145l76 431q9 51 -1.5 79.5t-52.5 28.5q-76 0 -174 -88l-80 -451h-145z" />
<glyph unicode="&#x2080;" horiz-adv-x="772" d="M-18 -27q0 35 4.5 79t16 102t29.5 114t47.5 111t67 96t91 66.5t116.5 25.5q138 0 200 -80t62 -215q0 -35 -4.5 -79t-16 -102t-29.5 -114t-47.5 -111t-67 -96t-91 -66.5t-116.5 -25.5q-138 0 -200 80t-62 215zM129 -39q0 -74 23.5 -117t91.5 -43q58 0 105 61.5t71 147.5 t36.5 159t12.5 116q0 74 -23.5 116.5t-91.5 42.5q-58 0 -105 -61t-71 -147t-36.5 -159t-12.5 -116z" />
<glyph unicode="&#x2081;" horiz-adv-x="538" d="M-8 428l219 125h141l-153 -860h-150l125 702l-129 -71z" />
<glyph unicode="&#x2082;" horiz-adv-x="688" d="M-98 -307l14 80q6 39 19.5 75t28 63t40 56t43.5 47t52 43.5t52 38t56 37.5q48 33 67.5 47t53 41t47.5 44t26 40.5t13 46.5q-2 37 -27.5 59.5t-73.5 22.5q-90 0 -200 -74l-58 109q133 98 281 98q108 0 168.5 -56t60.5 -146q0 -47 -18 -92t-45 -78.5t-67.5 -68t-74 -57.5 t-76.5 -51q-11 -7 -16 -10q-80 -53 -116 -92t-46 -92h365l-22 -131h-547z" />
<glyph unicode="&#x2083;" horiz-adv-x="690" d="M-100 -211l82 100q56 -38 102 -57.5t100 -19.5q73 0 118.5 41t45.5 104q0 67 -55.5 99t-134.5 32h-29l23 133h34q75 0 138 38.5t63 98.5q0 35 -24.5 55.5t-67.5 20.5q-89 0 -193 -65l-49 106q132 92 275 92q103 0 159 -51t56 -127q0 -72 -46.5 -132t-129.5 -95 q59 -21 96 -75.5t37 -127.5q0 -51 -18.5 -99.5t-54 -90t-96 -66.5t-136.5 -25q-150 0 -295 111z" />
<glyph unicode="&#x2084;" horiz-adv-x="747" d="M-84 -133l21 113l436 573h198l-100 -555h113l-23 -131h-112l-31 -174h-148l31 174h-385zM92 -2h232l71 405z" />
<glyph unicode="&#x2085;" horiz-adv-x="690" d="M-86 -207l86 101q92 -80 178 -80q68 0 121 48.5t53 131.5q0 59 -29.5 93t-86.5 34q-70 0 -148 -51l-80 51l117 432h450l-22 -131h-326l-43 -189q49 17 97 17q108 0 166.5 -69.5t58.5 -176.5q0 -133 -86 -229.5t-232 -96.5q-148 0 -274 115z" />
<glyph unicode="&#x2086;" horiz-adv-x="729" d="M-27 -14q0 153 64 286t179.5 214t256.5 81q37 0 70 -6t47 -12l14 -6l-55 -115q-33 10 -74 10q-106 0 -192.5 -73t-128.5 -193q79 74 176 74q102 0 160.5 -68.5t58.5 -171.5q0 -85 -34 -158.5t-104 -121.5t-163 -48q-132 0 -203.5 89.5t-71.5 218.5zM123 -20 q0 -73 31.5 -123t91.5 -50q71 0 112 57t41 136q0 53 -28.5 90t-87.5 37q-50 0 -92.5 -30.5t-65.5 -67.5q-2 -16 -2 -49z" />
<glyph unicode="&#x2087;" horiz-adv-x="598" d="M-29 -307q17 97 62 206.5t89 187.5t103.5 164.5t80.5 113.5t46 57h-340l23 131h510l-23 -121q-13 -15 -35.5 -42.5t-82 -111.5t-108.5 -167.5t-98 -199t-67 -218.5h-160z" />
<glyph unicode="&#x2088;" horiz-adv-x="735" d="M-57 -106q0 169 223 270q-96 68 -96 174q0 101 76.5 165t199.5 64q113 0 174.5 -53.5t61.5 -136.5q0 -135 -172 -223q137 -84 137 -213q0 -117 -92 -190t-240 -73q-128 0 -200 58t-72 158zM94 -92q0 -53 34.5 -81t92.5 -28q72 0 123 41t51 105q0 51 -30.5 85.5 t-83.5 65.5q-87 -38 -137 -80.5t-50 -107.5zM211 328q0 -67 82 -115q143 59 143 147q0 38 -26 63.5t-70 25.5q-55 0 -92 -35.5t-37 -85.5z" />
<glyph unicode="&#x2089;" horiz-adv-x="729" d="M-49 -297l57 115q31 -11 72 -11q105 0 191 73t130 192q-77 -72 -176 -72q-102 0 -160.5 68.5t-58.5 171.5q0 132 82.5 229.5t220.5 97.5q131 0 202 -89t71 -218q0 -153 -63.5 -286t-178.5 -214.5t-256 -81.5q-37 0 -70.5 6t-47.5 12zM156 246q0 -52 29.5 -89.5 t86.5 -37.5q51 0 95 31.5t65 68.5q2 16 2 47q0 72 -32.5 122t-92.5 50q-70 0 -111.5 -57t-41.5 -135z" />
<glyph unicode="&#x208a;" horiz-adv-x="657" d="M-41 47l18 111h213l39 217h113l-39 -217h213l-18 -111h-215l-37 -217h-113l37 217h-211z" />
<glyph unicode="&#x208d;" horiz-adv-x="411" d="M-57 -334q-2 50 12 123l119 670q7 39 12 60.5t13.5 49t20.5 42.5t30.5 33t45 30t62 24.5t84.5 24.5l25 -92q-80 -30 -104.5 -57.5t-35.5 -90.5l-129 -729q-14 -68 -2 -94.5t76 -56.5l-41 -86q-100 28 -143 63.5t-45 85.5z" />
<glyph unicode="&#x208e;" horiz-adv-x="407" d="M-131 -391q80 30 104 57t35 90l129 729q14 68 2 95t-76 57l41 86q100 -28 143 -63.5t45.5 -85.5t-11.5 -123l-119 -670q-7 -39 -12 -60.5t-13.5 -49t-20.5 -42.5t-30.5 -33t-45 -30t-62 -24.5t-84.5 -24.5z" />
<glyph unicode="&#x20a1;" horiz-adv-x="976" d="M115 578q0 133 27 248.5t73 197t106 140t126.5 86.5t134.5 28q19 0 51 -4l59 160h101l-66 -183l47 -18l74 201h100l-90 -248q42 -26 109 -76l-103 -141l-67 51l-242 -668q22 8 46 18.5t49 24t41.5 22.5t41.5 23.5t31 18.5l70 -160q-66 -36 -100 -54t-110.5 -47.5 t-138.5 -37.5l-57 -160h-100l57 160q-41 10 -51 14l-64 -174h-100l80 219q-135 109 -135 359zM322 598q0 -76 16 -135l227 624q-103 -31 -173 -169.5t-70 -319.5zM403 362q18 -13 50 -20l262 727q-25 13 -47 18z" />
<glyph unicode="&#x20a4;" horiz-adv-x="989" d="M8 0l27 154q6 4 17 12t41.5 35t58.5 56.5t61 75.5t55 93h-166l21 121h182q6 35 6 69q0 22 -4 58h-162l21 123h115q-3 12 -15 57.5t-17 67.5t-10.5 60.5t-5.5 72.5q0 183 102.5 292t278.5 109q66 0 127 -15.5t116.5 -46t87 -52t77.5 -56.5l-113 -133q-162 117 -264 117 q-92 0 -148.5 -64t-56.5 -164q0 -40 7.5 -78.5t23 -90.5t21.5 -76h313l-21 -123h-272q2 -10 2 -33q0 -36 -8 -94h256l-21 -121h-270q-33 -79 -79.5 -141.5t-86.5 -98.5h504l-33 -186h-768z" />
<glyph unicode="&#x20a7;" horiz-adv-x="1193" d="M68 0l165 934h-49l19 102h49l70 398h401q438 0 438 -367v-31h43l-18 -102h-39q-39 -185 -182 -289t-367 -104h-223l-96 -541h-211zM408 725h190q121 0 208 54t120 155h-484zM461 1036h483v17q0 194 -231 194h-215z" />
<glyph unicode="&#x20a9;" horiz-adv-x="1757" d="M78 498l24 135h195l-10 217h-146l23 135h117l-23 449h231l5 -449h258l172 449h180l12 -449h256l162 449h244l-181 -449h123l-24 -135h-154l-86 -217h201l-25 -135h-231l-199 -498h-209l-35 1098l-419 -1098h-209l-25 498h-227zM494 850l2 -217h120l84 217h-206zM498 498 l2 -174l65 174h-67zM1120 850l6 -217h119l78 217h-203zM1130 498l5 -170l61 170h-66z" />
<glyph unicode="&#x20ac;" horiz-adv-x="1230" d="M68 487l22 125h94q6 95 25 197h-84l22 127h93q72 237 216.5 378.5t331.5 141.5q69 0 132.5 -17.5t126 -55t99 -64.5t99.5 -78l-119 -151q-98 84 -173 125.5t-148 41.5q-104 0 -192 -87t-144 -234h430l-22 -127h-447q-24 -107 -29 -197h441l-23 -125h-420 q6 -158 59 -234.5t144 -76.5q127 0 373 164l88 -168q-146 -91 -268 -143t-240 -52q-169 0 -268 128.5t-105 381.5h-114z" />
<glyph unicode="&#x2116;" horiz-adv-x="2002" d="M61 0l254 1434h213l338 -1092l193 1092h209l-252 -1434h-213l-340 1087l-191 -1087h-211zM1245 346l25 131h549l-25 -131h-549zM1286 897q0 64 13.5 132t43.5 138t73.5 124.5t109.5 89t145 34.5q65 0 121 -19t99.5 -56t68.5 -98t25 -140q0 -52 -9.5 -109t-29 -115.5 t-51.5 -111t-72.5 -93.5t-97.5 -65t-123 -24q-138 0 -227 79t-89 234zM1462 897q0 -164 144 -164q52 0 93 41.5t63.5 102.5t34 120t11.5 105q0 164 -141 164q-52 0 -93.5 -41.5t-64.5 -103t-35 -120.5t-12 -104z" />
<glyph unicode="&#x2117;" horiz-adv-x="1658" d="M119 641q0 131 32.5 251.5t98 223t158 178.5t219 119t274.5 43q206 0 360.5 -84.5t235 -234.5t80.5 -344q0 -131 -32.5 -251.5t-98.5 -223.5t-158 -179t-219.5 -119t-275.5 -43q-309 0 -491.5 184t-182.5 480zM195 643q0 -172 70.5 -304.5t209.5 -209t326 -76.5 q160 0 293 58.5t221 159.5t136 235t48 285q0 262 -162 425.5t-442 163.5q-161 0 -294.5 -58.5t-221.5 -159t-136 -234.5t-48 -285zM547 285l151 862h285q117 0 185.5 -56.5t68.5 -168.5q0 -148 -95 -224.5t-253 -76.5h-193l-57 -336h-92zM713 702h192q100 0 169 60t69 160 q0 74 -47 109.5t-127 35.5h-193z" />
<glyph unicode="&#x2120;" horiz-adv-x="1138" d="M184 1030l54 70q82 -51 149 -51q31 0 55.5 13.5t24.5 37.5q0 11 -5.5 19t-18.5 15.5t-24 12t-33 13t-36 14.5q-49 23 -78.5 53.5t-29.5 77.5q0 59 48 98t126 39q94 0 188 -53l-53 -68q-72 39 -129 39q-32 0 -53 -12.5t-21 -36.5q0 -10 5 -18t16.5 -14.5t22.5 -11 t32 -12.5t35 -14q24 -12 40.5 -22t35.5 -26t28.5 -37.5t9.5 -47.5q0 -62 -50.5 -101.5t-133.5 -39.5q-112 0 -205 63zM606 975l80 459h100l74 -275l178 275h99l-80 -459h-96l51 291l-140 -215h-57l-61 221l-54 -297h-94z" />
<glyph unicode="&#x2122;" horiz-adv-x="1122" d="M246 1348l14 86h356l-14 -86h-131l-65 -373h-97l66 373h-129zM594 975l80 459h100l74 -275l178 275h98l-80 -459h-96l51 291l-139 -215h-57l-62 225l-51 -301h-96z" />
<glyph unicode="&#x2126;" horiz-adv-x="1314" d="M43 0l33 186h192q-147 112 -147 357q0 74 10.5 155.5t34.5 171t59.5 172.5t88.5 159t117.5 132t152 89.5t186.5 33.5q225 0 349 -127.5t124 -378.5q0 -256 -102.5 -480.5t-233.5 -283.5h180l-32 -186h-434l34 186q86 24 158.5 107t117.5 194.5t70 233t25 231.5 q0 154 -65.5 234t-194.5 80q-74 0 -137 -33.5t-107 -87.5t-78.5 -126t-55.5 -145.5t-34.5 -150t-18.5 -134.5t-5 -104q0 -122 45.5 -194t134.5 -105l-33 -186h-434z" />
<glyph unicode="&#x2153;" horiz-adv-x="1478" d="M172 1309l219 125h141l-153 -861h-150l125 703l-129 -72zM193 0l798 1434h160l-801 -1434h-157zM735 96l82 101q56 -38 102.5 -58t100.5 -20q73 0 118.5 41t45.5 104q0 67 -55.5 99t-135.5 32h-28l22 133h35q74 0 137.5 39t63.5 99q0 35 -25 55t-68 20q-88 0 -192 -65 l-49 106q132 92 274 92q103 0 159 -51t56 -127q0 -72 -46.5 -132t-129.5 -95q59 -21 96 -75.5t37 -127.5q0 -51 -18.5 -99.5t-54 -89.5t-95.5 -66t-137 -25q-152 0 -295 110z" />
<glyph unicode="&#x2154;" horiz-adv-x="1691" d="M82 573l14 80q8 46 22.5 85.5t39 73.5t46 59t59 54t59.5 44.5t65 44.5q48 33 67.5 47t53 41t47.5 44t26 40.5t13 46.5q-2 37 -27 59.5t-73 22.5q-91 0 -201 -74l-57 109q133 98 280 98q108 0 168.5 -56.5t60.5 -146.5q0 -40 -11 -76.5t-35.5 -69.5t-47 -58t-60.5 -54 t-61 -45t-64 -42q-12 -7 -17 -11q-80 -53 -116 -92t-46 -92h364l-22 -132h-547zM414 0l798 1434h160l-801 -1434h-157zM950 96l82 101q56 -38 102.5 -58t100.5 -20q73 0 118.5 41t45.5 104q0 67 -55.5 99t-135.5 32h-28l22 133h35q74 0 137.5 39t63.5 99q0 35 -24.5 55 t-67.5 20q-89 0 -193 -65l-49 106q132 92 274 92q103 0 159 -51t56 -127q0 -72 -46.5 -132t-129.5 -95q59 -21 96 -75.5t37 -127.5q0 -51 -18.5 -99.5t-54 -89.5t-95.5 -66t-137 -25q-152 0 -295 110z" />
<glyph unicode="&#x2155;" horiz-adv-x="1492" d="M172 1309l219 125h141l-153 -861h-150l125 703l-129 -72zM193 0l798 1434h160l-801 -1434h-157zM750 100l86 101q92 -80 178 -80q68 0 121 48.5t53 131.5q0 59 -30 93t-87 34q-69 0 -147 -51l-80 51l117 432h450l-22 -131h-326l-43 -188q46 16 96 16q108 0 166.5 -69.5 t58.5 -176.5q0 -133 -85.5 -229t-231.5 -96q-149 0 -274 114z" />
<glyph unicode="&#x2156;" horiz-adv-x="1703" d="M80 573l14 80q8 46 22.5 85.5t39 73.5t46 59t59 54t59.5 44.5t65 44.5q48 33 67.5 47t53 41t47.5 44t26 40.5t13 46.5q-2 37 -27 59.5t-73 22.5q-91 0 -201 -74l-58 109q133 98 281 98q108 0 168.5 -56.5t60.5 -146.5q0 -58 -23 -109t-74.5 -98.5t-83 -70.5t-98.5 -66 q-4 -3 -6.5 -4.5t-5.5 -3.5l-6 -4q-79 -52 -115 -91.5t-46 -92.5h364l-22 -132h-547zM412 0l798 1434h160l-801 -1434h-157zM965 100l86 101q92 -80 178 -80q68 0 121 48.5t53 131.5q0 59 -30 93t-87 34q-69 0 -147 -51l-80 51l117 432h450l-22 -131h-326l-43 -188 q46 16 96 16q108 0 166.5 -69.5t58.5 -176.5q0 -133 -85.5 -229t-231.5 -96q-149 0 -274 114z" />
<glyph unicode="&#x2157;" horiz-adv-x="1675" d="M82 670l82 100q56 -38 102.5 -58t100.5 -20q73 0 118 41t45 105q0 67 -55.5 99t-134.5 32h-29l23 133h35q75 0 137.5 38.5t62.5 98.5q0 35 -24.5 55.5t-67.5 20.5q-87 0 -192 -66l-49 107q132 92 274 92q103 0 159 -51t56 -127q0 -72 -46.5 -132.5t-129.5 -95.5 q59 -21 96 -75t37 -127q0 -51 -18.5 -99.5t-54 -90t-96 -66.5t-136.5 -25q-150 0 -295 111zM379 0l799 1434h159l-800 -1434h-158zM932 100l86 101q92 -80 178 -80q68 0 121 48.5t53 131.5q0 59 -30 93t-87 34q-69 0 -147 -51l-80 51l117 432h450l-22 -131h-326l-43 -188 q46 16 96 16q108 0 167 -69.5t59 -176.5q0 -133 -86 -229t-232 -96q-149 0 -274 114z" />
<glyph unicode="&#x2158;" horiz-adv-x="1724" d="M84 748l20 112l437 574h198l-100 -555h113l-23 -131h-113l-30 -175h-148l31 175h-385zM260 879h232l71 405zM430 0l799 1434h160l-801 -1434h-158zM983 100l86 101q92 -80 178 -80q68 0 121 48.5t53 131.5q0 59 -29.5 93t-86.5 34q-70 0 -148 -51l-80 51l117 432h451 l-23 -131h-326l-43 -188q46 16 97 16q108 0 166.5 -69.5t58.5 -176.5q0 -133 -86 -229t-232 -96q-149 0 -274 114z" />
<glyph unicode="&#x2159;" horiz-adv-x="1464" d="M172 1309l219 125h141l-153 -861h-150l125 703l-129 -72zM193 0l798 1434h160l-801 -1434h-157zM745 293q0 153 64 286t179.5 214t256.5 81q37 0 70 -6t47 -12l14 -6l-55 -115q-33 10 -74 10q-106 0 -192.5 -73t-128.5 -193q79 74 176 74q102 0 160.5 -68.5t58.5 -171.5 q0 -85 -34 -158.5t-104 -121t-163 -47.5q-132 0 -203.5 89t-71.5 218zM895 287q0 -73 31.5 -122.5t91.5 -49.5q71 0 112 56.5t41 135.5q0 53 -28.5 90t-87.5 37q-50 0 -92.5 -30.5t-65.5 -67.5q-2 -16 -2 -49z" />
<glyph unicode="&#x215a;" horiz-adv-x="1615" d="M88 674l86 100q92 -80 178 -80q68 0 121 48.5t53 131.5q0 59 -29.5 93t-86.5 34q-70 0 -148 -51l-80 51l117 433h451l-23 -131h-326l-43 -189q46 16 97 16q108 0 166.5 -69t58.5 -176q0 -133 -86 -229.5t-232 -96.5q-148 0 -274 115zM350 0l799 1434h160l-801 -1434h-158 zM899 293q0 153 64 286t179.5 214t256.5 81q37 0 70 -6t47 -12l14 -6l-55 -115q-33 10 -74 10q-106 0 -193 -73t-129 -193q79 74 176 74q102 0 161 -69t59 -171q0 -85 -34 -158.5t-104 -121t-163 -47.5q-132 0 -203.5 89t-71.5 218zM1049 287q0 -73 31 -122.5t91 -49.5 q71 0 112.5 57t41.5 135q0 53 -29 90t-88 37q-50 0 -92 -30t-65 -68q-2 -16 -2 -49z" />
<glyph unicode="&#x215b;" horiz-adv-x="1490" d="M172 1309l219 125h141l-153 -861h-150l125 703l-129 -72zM193 0l798 1434h160l-801 -1434h-157zM741 201q0 169 224 270q-97 69 -97 174q0 101 76.5 165t200.5 64q113 0 174 -53.5t61 -136.5q0 -135 -172 -223q138 -85 138 -213q0 -117 -92 -189.5t-240 -72.5 q-128 0 -200.5 57.5t-72.5 157.5zM893 215q0 -53 34.5 -81t92.5 -28q72 0 123 41t51 105q0 51 -31 85.5t-84 65.5q-87 -38 -136.5 -80.5t-49.5 -107.5zM1010 635q0 -67 82 -115q143 59 143 148q0 38 -26 63t-70 25q-55 0 -92 -35.5t-37 -85.5z" />
<glyph unicode="&#x215c;" horiz-adv-x="1667" d="M82 670l82 100q56 -38 102.5 -58t100.5 -20q73 0 118 41t45 105q0 67 -55.5 99t-134.5 32h-29l23 133h35q75 0 137.5 38.5t62.5 98.5q0 35 -24.5 55.5t-67.5 20.5q-87 0 -192 -66l-49 107q132 92 274 92q103 0 159 -51t56 -127q0 -72 -46.5 -132.5t-129.5 -95.5 q59 -21 96 -75t37 -127q0 -51 -18.5 -99.5t-54 -90t-96 -66.5t-136.5 -25q-150 0 -295 111zM379 0l799 1434h159l-800 -1434h-158zM922 201q0 169 223 270q-96 68 -96 174q0 101 76.5 165t199.5 64q113 0 174.5 -53.5t61.5 -136.5q0 -135 -172 -223q137 -84 137 -213 q0 -117 -92 -189.5t-240 -72.5q-128 0 -200 57.5t-72 157.5zM1073 215q0 -53 34.5 -81t92.5 -28q72 0 123 41t51 105q0 51 -30.5 85.5t-83.5 65.5q-87 -38 -137 -80.5t-50 -107.5zM1190 635q0 -67 82 -115q143 59 143 148q0 38 -26 63t-70 25q-55 0 -92 -35.5t-37 -85.5z " />
<glyph unicode="&#x215d;" horiz-adv-x="1646" d="M88 674l86 100q92 -80 178 -80q68 0 121 48.5t53 131.5q0 59 -29.5 93t-86.5 34q-70 0 -148 -51l-80 51l117 433h451l-23 -131h-326l-43 -189q46 16 97 16q108 0 166.5 -69t58.5 -176q0 -133 -86 -229.5t-232 -96.5q-148 0 -274 115zM348 0l799 1434h160l-801 -1434h-158 zM899 201q0 169 223 270q-96 68 -96 174q0 101 76.5 165t200.5 64q113 0 174 -53.5t61 -136.5q0 -135 -172 -223q137 -84 137 -213q0 -117 -92 -189.5t-240 -72.5q-128 0 -200 57.5t-72 157.5zM1051 215q0 -53 34.5 -81t92.5 -28q72 0 123 41t51 105q0 51 -31 85.5t-84 65.5 q-87 -38 -136.5 -80.5t-49.5 -107.5zM1167 635q0 -67 82 -115q64 27 104 61.5t40 86.5q0 38 -26 63t-71 25q-55 0 -92 -35.5t-37 -85.5z" />
<glyph unicode="&#x215e;" horiz-adv-x="1478" d="M141 573q17 97 62 206.5t89 188t103.5 164.5t81 114t45.5 57h-340l23 131h510l-23 -121q-13 -15 -35.5 -42.5t-82 -111.5t-108.5 -167.5t-98 -199.5t-67 -219h-160zM184 0l799 1434h160l-801 -1434h-158zM733 201q0 169 223 270q-96 68 -96 174q0 101 76.5 165t200.5 64 q113 0 174 -53.5t61 -136.5q0 -135 -172 -223q137 -84 137 -213q0 -117 -91.5 -189.5t-239.5 -72.5q-128 0 -200.5 57.5t-72.5 157.5zM885 215q0 -53 34.5 -81t92.5 -28q72 0 123 41t51 105q0 51 -31 85.5t-84 65.5q-87 -38 -136.5 -80.5t-49.5 -107.5zM1001 635 q0 -67 82 -115q64 27 104 61.5t40 86.5q0 38 -26 63t-71 25q-55 0 -92 -35.5t-37 -85.5z" />
<glyph unicode="&#x2202;" horiz-adv-x="1103" d="M61 393q0 158 61.5 291.5t170.5 212t239 78.5q57 0 106.5 -17t78.5 -39.5t52.5 -51t31.5 -43.5t12 -25q-3 71 -15.5 135.5t-39.5 126t-66 105.5t-98 71t-131 27q-33 0 -68 -5t-54 -9l-19 -5l2 168q67 21 159 21q169 0 287.5 -89t174.5 -241t56 -354q0 -226 -65 -400.5 t-189.5 -273.5t-291.5 -99q-187 0 -290.5 111t-103.5 305zM270 387q0 -110 47 -176t150 -66q78 0 139.5 41.5t96 106.5t52 135.5t17.5 138.5q0 111 -50 175.5t-151 64.5q-94 0 -165 -65.5t-103.5 -159t-32.5 -195.5z" />
<glyph unicode="&#x2206;" horiz-adv-x="1208" d="M-55 0l698 1434h223l195 -1434h-1116zM240 186h610l-127 1014z" />
<glyph unicode="&#x220f;" horiz-adv-x="1214" d="M117 0l219 1251h-164l33 183h1085l-33 -183h-165l-220 -1251h-208l219 1251h-338l-219 -1251h-209z" />
<glyph unicode="&#x2211;" horiz-adv-x="999" d="M-18 0l22 129l557 594l-350 582l22 129h809l-32 -187h-541l322 -530l-482 -531h512l-30 -186h-809z" />
<glyph unicode="&#x2212;" horiz-adv-x="1085" d="M115 600l28 164h848l-28 -164h-848z" />
<glyph unicode="&#x221a;" horiz-adv-x="1046" d="M49 696h211l94 -450l598 1188h219l-741 -1434h-209z" />
<glyph unicode="&#x221e;" horiz-adv-x="1576" d="M90 477q0 159 99.5 274t254.5 115q54 0 101 -17t89.5 -53.5t74 -73t75.5 -95.5q73 68 114 102.5t94 71t100 51t100 14.5q127 0 194.5 -81t67.5 -205q0 -160 -99.5 -275t-252.5 -115q-44 0 -84.5 12.5t-71.5 31.5t-65.5 53t-59.5 64.5t-61 78.5q-71 -68 -113.5 -104.5 t-94 -72t-98.5 -49.5t-100 -14q-128 0 -196 81.5t-68 205.5zM248 487q0 -63 36.5 -105t96.5 -42t125 44.5t178 150.5q-80 105 -127 143.5t-100 38.5q-93 0 -151 -71t-58 -159zM858 524q77 -105 126.5 -144.5t107.5 -39.5q93 0 148.5 70t55.5 159q0 63 -36.5 105.5 t-96.5 42.5q-62 0 -128 -44t-177 -149z" />
<glyph unicode="&#x222b;" horiz-adv-x="692" d="M-121 -293l25 133h35q48 0 83.5 16.5t56.5 42.5t36.5 68.5t24.5 84t19 100.5q1 5 1 8l202 1145q40 234 130.5 323.5t295.5 89.5h58l-23 -133h-35q-40 0 -71 -10.5t-52.5 -31.5t-37 -48t-26 -64t-18.5 -74t-17 -84q-1 -5 -1 -7l-200 -1145q-21 -120 -50.5 -196 t-79.5 -126.5t-120.5 -71t-175.5 -20.5h-60z" />
<glyph unicode="&#x2248;" horiz-adv-x="1085" d="M84 424q62 118 128.5 174.5t147.5 56.5q50 0 100 -21.5t83.5 -47t76 -47t80.5 -21.5t74.5 26t81.5 101l107 -51q-65 -117 -132 -174.5t-147 -57.5q-50 0 -100 21.5t-83.5 47.5t-76.5 47.5t-82 21.5q-36 0 -71.5 -26t-82.5 -101zM150 797q64 119 130.5 175t147.5 56 q50 0 100 -21.5t83.5 -47t76 -47t80.5 -21.5q37 0 73 26t83 101l104 -51q-64 -118 -131 -175t-147 -57q-50 0 -100 21.5t-83.5 47t-76 47t-80.5 21.5q-37 0 -72 -26t-82 -101z" />
<glyph unicode="&#x2260;" horiz-adv-x="1085" d="M82 414l29 166h305l108 211h-377l31 163h432l168 326l129 -59l-137 -267h254l-29 -163h-311l-109 -211h383l-30 -166h-439l-165 -322l-127 60l135 262h-250z" />
<glyph unicode="&#x2264;" horiz-adv-x="1085" d="M4 0l27 145h846l-27 -145h-846zM113 608l24 137l916 404l-35 -201l-688 -278l588 -283l-31 -182z" />
<glyph unicode="&#x2265;" horiz-adv-x="1085" d="M20 0l25 145h848l-27 -145h-846zM57 205l35 201l684 278l-586 283l33 182l776 -404l-24 -137z" />
<glyph unicode="&#x2318;" horiz-adv-x="1476" d="M70 352q0 132 92 203.5t229 71.5h141l33 180h-90q-115 0 -194.5 79.5t-79.5 192.5q0 116 79.5 196.5t194.5 80.5q52 0 101.5 -19.5t90 -56t61.5 -97.5t11 -136l-14 -105h141l25 133q44 241 235 275q39 7 66 2q105 -9 177.5 -87.5t72.5 -185.5q0 -129 -92 -200.5 t-228 -71.5h-141l-33 -180h90q114 0 194.5 -80t80.5 -195q0 -114 -80.5 -193t-194.5 -79q-121 0 -201 89t-65 220q1 10 7 47t7 56h-141l-24 -134q-50 -278 -275 -278q-114 0 -195 79t-81 193zM205 352q0 -57 41 -97t100 -40q56 0 90 33t45 92l27 152h-162q-59 0 -100 -41 t-41 -99zM336 1079q0 -57 40.5 -97t98.5 -40h113q12 68 16 98q12 73 -23.5 127t-105.5 54q-58 0 -98.5 -41.5t-40.5 -100.5zM670 627h143l31 180h-144zM907 393q-14 -70 23 -124t108 -54q57 0 98.5 40t41.5 97q0 58 -41.5 99t-98.5 41h-112zM1006 942h161q57 0 98.5 40 t41.5 97q0 58 -41.5 100t-98.5 42q-56 0 -92 -39.5t-45 -87.5z" />
<glyph unicode="&#x25ca;" horiz-adv-x="999" d="M96 717l441 717h217l186 -717l-440 -717h-217zM289 686l125 -485l334 549l-127 481z" />
<glyph unicode="&#xe000;" horiz-adv-x="1075" d="M0 0v1075h1075v-1075h-1075z" />
<glyph unicode="&#xf6c3;" horiz-adv-x="190" d="M-78 -514l113 176h-74l37 213h166l-27 -227l-176 -219z" />
<glyph unicode="&#xf6df;" horiz-adv-x="638" d="M-18 47q0 188 88 300t206 112h3l16 94h106l-20 -115q17 -6 33.5 -13.5t33 -17.5t27 -16.5t27.5 -18t22 -14.5l-69 -100q-5 3 -24.5 16t-37.5 23.5t-35 17.5l-67 -385q18 6 37.5 16t40.5 22l28 16l47 -115l-26 -13t-34.5 -17t-34 -15t-41.5 -15.5t-40 -11.5l-18 -104h-105 l17 94q-81 9 -130.5 76t-49.5 184zM129 61q0 -110 55 -137l70 395q-55 -25 -90 -96t-35 -162z" />
<glyph unicode="&#xf6e0;" horiz-adv-x="638" d="M174 1143q0 188 88.5 299.5t206.5 111.5h2l16 95h107l-21 -115q17 -6 33.5 -13.5t34 -17.5t26.5 -16t28 -18.5t22 -14.5l-70 -100q-6 4 -24.5 16.5t-36.5 23t-35 17.5l-68 -385q18 6 37 15.5t41.5 22t28.5 15.5l47 -114l-26 -13t-34.5 -17t-34 -15t-41.5 -15.5t-40 -11.5 l-19 -105h-104l16 95q-81 9 -130.5 76t-49.5 184zM322 1157q0 -110 55 -137l69 395q-55 -25 -89.5 -96t-34.5 -162z" />
<glyph unicode="&#xf6e1;" horiz-adv-x="337" d="M-94 -440l92 133h-66l31 184h150l-23 -201l-153 -168z" />
<glyph unicode="&#xf6e2;" horiz-adv-x="339" d="M100 655l93 133h-66l31 185h149l-22 -201l-154 -168z" />
<glyph unicode="&#xf6e3;" horiz-adv-x="712" d="M-88 -205l86 109q81 -58 168 -84l45 252l-12 8q-88 51 -134.5 106t-46.5 136q0 105 77 174.5t202 70.5l20 111h107l-23 -123q98 -20 205 -82l-84 -108q-66 37 -143 59l-43 -240l12 -6q42 -24 70.5 -44.5t58 -50t44 -67t14.5 -82.5q0 -109 -80.5 -181t-208.5 -75l-19 -108 h-104l20 119q-120 26 -231 106zM180 326q0 -50 60 -88l34 192q-42 -8 -68 -35t-26 -69zM270 -186q46 8 75.5 37t29.5 73q0 55 -68 96z" />
<glyph unicode="&#xf6e4;" horiz-adv-x="714" d="M104 891l86 108q87 -63 168 -84l45 252l-12 9q-88 51 -134 105.5t-46 135.5q0 105 76.5 175t201.5 71l21 111h106l-22 -123q98 -20 205 -82l-84 -109q-69 38 -144 60l-43 -240l13 -6q42 -24 70.5 -44.5t57.5 -50t43.5 -67t14.5 -82.5q0 -109 -80.5 -181t-208.5 -75 l-18 -108h-105l21 118q-122 24 -232 107zM373 1421q0 -50 59 -88l35 193q-42 -8 -68 -35t-26 -70zM463 907q46 8 75 38t29 75q0 55 -67 96z" />
<glyph unicode="&#xf6e7;" horiz-adv-x="335" d="M-68 -307l33 184h150l-33 -184h-150z" />
<glyph unicode="&#xf6e8;" horiz-adv-x="337" d="M127 788l33 185h149l-33 -185h-149z" />
<glyph unicode="&#xf6e9;" horiz-adv-x="714" d="M145 995q0 119 33 221.5t98 167t148 64.5q38 0 74 -16.5t55 -33.5t45 -44l14 80h144l-113 -646h-145l14 84q-111 -98 -203 -98q-73 0 -118.5 56t-45.5 165zM293 1016q0 -56 19.5 -87.5t54.5 -31.5q43 0 83 27t85 75l43 238q-56 88 -125 88q-47 0 -85 -50t-56.5 -119.5 t-18.5 -139.5z" />
<glyph unicode="&#xf6ea;" horiz-adv-x="714" d="M131 788l158 895h145l-57 -323q101 88 192 88q75 0 123.5 -56.5t48.5 -166.5q0 -116 -31.5 -217.5t-94.5 -167.5t-146 -66q-97 0 -180 92l-13 -78h-145zM309 983q60 -86 129 -86q46 0 82.5 48.5t55 118t18.5 140.5q0 57 -21 89t-63 32q-66 0 -156 -90z" />
<glyph unicode="&#xf6eb;" horiz-adv-x="714" d="M145 995q0 119 33 221.5t98 167t148 64.5q38 0 74 -16.5t55 -33.5t45 -44l57 329h144l-158 -895h-143l14 84q-111 -98 -205 -98q-72 0 -117 56t-45 165zM293 1016q0 -56 19.5 -87.5t54.5 -31.5q43 0 83 27t85 75l43 238q-56 88 -125 88q-47 0 -85 -50t-56.5 -119.5 t-18.5 -139.5z" />
<glyph unicode="&#xf6ec;" horiz-adv-x="655" d="M145 1042q0 177 92 291.5t246 114.5q97 0 153 -47t56 -129q0 -215 -344 -215h-59v-10q0 -77 26.5 -117.5t77.5 -40.5q28 0 69.5 15t62 25.5t69.5 37.5l47 -105q-151 -88 -279 -88q-101 0 -159 66.5t-58 201.5zM297 1141h55q100 0 151.5 34t51.5 91q0 34 -22 52.5 t-60 18.5q-64 0 -111 -54.5t-65 -141.5z" />
<glyph unicode="&#xf6ed;" horiz-adv-x="348" d="M131 788l115 646h145l-115 -646h-145zM260 1540l25 141h151l-24 -141h-152z" />
<glyph unicode="&#xf6ee;" horiz-adv-x="350" d="M133 788l158 895h145l-157 -895h-146z" />
<glyph unicode="&#xf6ef;" horiz-adv-x="1042" d="M131 788l115 646h145l-16 -84q107 98 200 98q61 0 94.5 -31.5t39.5 -85.5q43 45 100.5 81t116.5 36q83 0 115 -55.5t16 -147.5l-80 -457h-146l78 435q18 104 -49 104q-69 0 -158 -98l-75 -441h-146l78 435q18 104 -51 104t-154 -94l-78 -445h-145z" />
<glyph unicode="&#xf6f0;" horiz-adv-x="700" d="M147 1032q0 58 11.5 115.5t36.5 112t61.5 96t91 67t119.5 25.5q115 0 187.5 -64t72.5 -194q0 -58 -11.5 -115.5t-36.5 -112t-61 -96t-90.5 -67t-119.5 -25.5q-115 0 -188 64t-73 194zM291 1030q0 -137 117 -137q44 0 79.5 32t55 80t29.5 96.5t10 90.5q0 137 -117 137 q-43 0 -78.5 -32t-55 -80t-30 -97t-10.5 -90z" />
<glyph unicode="&#xf6f1;" horiz-adv-x="493" d="M131 788l115 646h145l-22 -138q6 12 16 28.5t31 39.5t45.5 41t61 29t75.5 8l-25 -144q-50 0 -94 -22.5t-70.5 -54t-45.5 -63.5t-27 -54l-8 -23l-52 -293h-145z" />
<glyph unicode="&#xf6f2;" horiz-adv-x="618" d="M109 866l67 92q117 -73 201 -73q40 0 69 21t29 59q0 13 -5 24t-11 18t-21 15.5t-23.5 12.5t-31.5 14t-33 14q-38 17 -60 29.5t-49.5 35t-41 54t-13.5 71.5q0 86 63.5 140.5t168.5 54.5q121 0 248 -76l-66 -92q-96 57 -176 57q-39 0 -65.5 -19.5t-26.5 -53.5 q0 -10 3 -18.5t6.5 -15t12.5 -13.5t14.5 -11t18.5 -10t19 -8.5t22.5 -9.5t22.5 -9q39 -17 65.5 -32t52.5 -38t39 -54.5t13 -71.5q0 -89 -66.5 -144t-173.5 -55q-140 0 -272 92z" />
<glyph unicode="&#xf6f3;" horiz-adv-x="495" d="M168 1321l20 113h72l29 157l149 29l-32 -186h149l-18 -113h-152l-61 -350q-10 -64 32 -64q28 0 95 29l34 -117q-110 -45 -180 -45q-75 0 -109 53t-14 158l60 336h-74z" />
<glyph unicode="&#xf8ff;" horiz-adv-x="1800" d="M140.5 560.5q-2.5 11.5 15.5 21.5l57 41q2 1 3.5 2.5l3 3l2.5 2.5t2 3l1 1q19 16 37 -12l33 -64q6 -12 13.5 -15.5t14 2t9.5 17.5l18 70q4 19 18.5 21t26.5 -13l47 -53q13 -15 23.5 -11.5t11.5 23.5l4 70q3 20 15.5 25t27.5 -7l58 -43q17 -12 25.5 -6.5t4.5 25.5l-8 69 q-3 20 8.5 28t28.5 -1l64 -29q19 -9 26.5 -1.5t1.5 26.5l-22 67q-8 19 0.5 29t27.5 4l15 -2q40 -77 70 -202.5t30 -217.5q-15 -18 -34.5 -27.5t-59.5 -9.5h-8q0 46 -33 72q18 -21 18 -55v-15q-32 3 -32 39q0 43 -28 72t-77 29q-41 0 -68.5 -32t-27.5 -79q0 -60 49.5 -96.5 t138.5 -36.5q85 0 172 42t156.5 112t125 154.5t86 175.5t30.5 169q0 59 -37 98t-95 39q-48 0 -85 -33.5t-37 -84.5q0 -52 30.5 -82.5t87.5 -36.5q-30 -122 -59 -174q-12 96 -43.5 178t-75.5 129q91 -120 107 -330l-29 -41q0 156 -51 287t-131 172q-5 9 2 18.5t22 12.5l70 12 q19 3 21 13.5t-15 21.5l-59 39q-15 13 -13.5 26.5t19.5 20.5l63 29q14 4 19 10t0 13t-19 13l-63 27q-24 11 -21 29q13 6 15 16l35 62q9 19 20 18t16 -20l21 -68q6 -21 18.5 -24t26.5 14l47 53q12 15 23 12.5t12 -22.5l4 -72q1 -21 14.5 -26t28.5 8l57 43q15 12 24 5.5 t7 -26.5l-10 -70q-1 -20 10.5 -27.5t28.5 1.5l63 33q19 8 26.5 0t0.5 -29l-23 -64q-6 -20 3 -30t28 -4l70 14q20 6 26.5 -2t-4.5 -27l-37 -59q-12 -17 -5.5 -29.5t26.5 -11.5l71 4q21 0 25.5 -11t-8.5 -24l-49 -53q-14 -13 -10.5 -26.5t24.5 -16.5l70 -12q43 -10 6 -39 l-58 -39q-10 -7 -13 -15.5t2 -16.5t18 -13l63 -27q12 -5 16.5 -12t0 -13.5t-16.5 -11.5l-63 -26q-20 -7 -21.5 -22t14.5 -25l58 -41q11 -7 14.5 -14.5t-2 -13.5t-18.5 -9l-70 -13q-21 -3 -24.5 -16.5t10.5 -28.5l49 -49q13 -14 8.5 -24.5t-25.5 -10.5l-71 5q-20 0 -26.5 -12 t5.5 -29l37 -62q10 -17 4 -25.5t-26 -5.5l-70 19q-19 4 -28 -6t-3 -29l23 -68q8 -19 0 -26t-27 2l-63 31q-17 9 -28.5 1t-10.5 -30l10 -68q1 -21 -7.5 -25.5t-23.5 7.5l-57 43q-15 12 -28.5 5.5t-14.5 -26.5l-4 -69q-1 -20 -12 -23t-23 11l-47 55q-13 14 -26 12t-19 -22 l-21 -68q-3 -13 -9.5 -18t-13.5 -1t-13 15l-35 61q-9 19 -22 19t-25 -19l-31 -61q-6 -11 -13.5 -15t-14 1t-9.5 18l-20 68q-6 20 -19 22t-26 -12l-48 -55q-12 -14 -21.5 -11t-12.5 23l-5 69q-2 20 -15 26.5t-30 -5.5l-53 -43q-17 -13 -27 -8t-6 26l11 68q1 22 -10.5 30 t-30.5 -1l-62 -31q-19 -9 -26.5 -2t0.5 26l22 68q7 19 -2.5 29.5t-28.5 5.5l-69 -19q-20 -3 -26.5 5.5t3.5 25.5l39 62q11 17 4.5 29t-26.5 12l-72 -5q-21 0 -25 10.5t9 24.5l51 49q13 15 8.5 28.5t-25.5 16.5l-67 13q-21 4 -23.5 15.5zM616 281q44 -27 123 -27 q106 0 212.5 65t183.5 162t125.5 212t48.5 214q0 63 -41 101q24 -38 24 -84q0 -100 -47.5 -215t-126.5 -215q-85 -105 -188.5 -168.5t-212.5 -63.5q-58 0 -101 19z" />
<glyph unicode="&#xfb06;" horiz-adv-x="1593" d="M-12 125l106 141q71 -48 157.5 -83.5t154.5 -35.5q71 0 120 38t49 106q0 16 -2.5 29.5t-10.5 26t-14 22t-20.5 20t-23.5 17t-29.5 17.5t-31 16t-36 17t-36.5 17q-44 21 -75 38t-67.5 45t-59 58t-37.5 73t-15 93q0 144 100.5 231t261.5 87q104 0 205 -37q-6 34 -6 72 q0 156 104 258t275 102q172 0 257.5 -101.5t53.5 -279.5l-6 -37h237l-28 -160h-238l-112 -641q-20 -112 53 -112q38 0 156 51l47 -164q-166 -72 -273 -72q-110 0 -160.5 77.5t-21.5 240.5l108 620h-120l28 160h121l10 58q46 253 -145 253q-109 0 -178.5 -77.5t-69.5 -198.5 q0 -48 17 -94l67 -39l-102 -141q-63 39 -138 66.5t-137 27.5q-69 0 -114 -35.5t-45 -97.5q0 -18 5 -34t11 -28t20 -24.5t23 -20t30 -18.5t31 -15.5t35.5 -16t34.5 -15.5q50 -24 85 -44t72.5 -49.5t60.5 -60.5t37.5 -74t14.5 -94q0 -149 -104.5 -237.5t-271.5 -88.5 q-214 0 -420 148z" />
<glyph horiz-adv-x="722" d="M106 584l58 114q31 -10 72 -10q105 0 191 72.5t130 191.5q-76 -71 -176 -71q-102 0 -160.5 68.5t-58.5 170.5q0 132 82.5 230t220.5 98q131 0 201.5 -89t70.5 -218q0 -153 -63 -286t-178.5 -214.5t-255.5 -81.5q-37 0 -70.5 6.5t-48.5 12.5zM311 1126q0 -52 29.5 -89.5 t87.5 -37.5q50 0 94.5 32t65.5 69q2 16 2 47q0 72 -32.5 122t-92.5 50q-70 0 -112 -57.5t-42 -135.5z" />
<glyph horiz-adv-x="987" d="M-72 0l445 590l-221 586h213l139 -457l295 457h235l-430 -586l240 -590h-217l-150 449l-305 -449h-244z" />
<glyph horiz-adv-x="1290" d="M-174 -281q40 14 68.5 25.5t53 27t39.5 25.5t29 31.5t21 35.5t15.5 46.5t12.5 54.5t13 70l153 880h-118l30 160h117l21 119q27 156 87 227.5t173 71.5q71 0 152 -27t143 -59l-95 -139q-107 43 -166 43q-71 0 -90 -113l-22 -123h225l-31 -160h-223l-151 -868 q-33 -185 -57 -246q-36 -95 -120 -149q-76 -47 -237 -94zM471 -281q41 14 69 25.5t52.5 26.5t40 26t29 31.5t21 35.5t15.5 46t12.5 55t12.5 70l156 880h-121l30 160h119l21 119q27 155 85.5 227t166.5 72q58 0 126 -22t117 -48l-75 -145q-91 33 -127 33q-72 0 -91 -113 l-22 -123h225l-30 -160h-224l-151 -868q-33 -185 -57 -246q-36 -95 -120 -149q-76 -47 -237 -94z" />
<glyph horiz-adv-x="1218" d="M-176 -281q41 14 69 25.5t52.5 26.5t40 26t29 31.5t21 35.5t15.5 46t12.5 55t12.5 70l155 880h-118l30 160h117l19 99q28 159 98.5 229t183.5 70q131 0 359 -80q63 100 194 100q71 0 152 -27t143 -59l-94 -139q-107 43 -166 43q-71 0 -90 -113l-23 -123h226l-31 -160 h-223l-152 -868q-33 -185 -57 -246q-36 -95 -120 -149q-76 -47 -237 -94l-43 161q40 14 68.5 25.5t53 27t39.5 25.5t29 31.5t21 35.5t15.5 46.5t12.5 54.5t13 70l154 880h-371l-151 -868q-13 -73 -19.5 -106t-20 -84.5t-25.5 -73.5t-34 -57t-48 -51.5t-65.5 -40t-88.5 -40.5 t-115 -36zM463 1075h371l28 166q-7 2 -40 9.5t-57.5 13t-58.5 12.5t-62 10.5t-48 3.5q-50 0 -78.5 -31.5t-36.5 -80.5z" />
<glyph horiz-adv-x="2258" d="M-176 -281q41 14 69 25.5t52.5 26.5t40 26t29 31.5t21 35.5t15.5 46t12.5 55t12.5 70l155 880h-116l28 160h117l19 99q28 159 98.5 229t183.5 70q127 0 365 -82q72 102 213 102q122 0 334 -70l12 70h201l-97 -549q162 154 312 154q119 0 194.5 -90.5t75.5 -266.5 q0 -198 -51 -370t-152.5 -283t-232.5 -111q-49 0 -92.5 13.5t-80.5 40t-61 48.5t-55 56l-23 -135h-202l223 1260q-182 51 -270 51q-52 0 -80 -32t-35 -81l-23 -123h224l-29 -160h-223l-152 -868q-17 -96 -26 -138.5t-29.5 -101.5t-43.5 -84.5t-67 -60t-103 -56.5t-147 -48 l-41 161q40 14 68.5 25.5t53 27t39.5 25.5t29 31.5t21 35.5t15.5 46.5t12.5 54.5t13 70l154 880h-371l-151 -868q-13 -73 -19.5 -106t-20 -84.5t-25.5 -73.5t-34 -57t-48 -51.5t-65.5 -40t-88.5 -40.5t-115 -36zM463 1075h371l28 166q-7 2 -40 9.5t-57.5 13t-58.5 12.5 t-62 10.5t-48 3.5q-50 0 -78.5 -31.5t-36.5 -80.5zM1477 307q44 -69 101 -112t118 -43q79 0 141.5 88t93.5 214t31 255q0 101 -35.5 158t-107.5 57q-116 0 -260 -158z" />
<glyph horiz-adv-x="2256" d="M-176 -281q41 14 69 25.5t52.5 26.5t40 26t29 31.5t21 35.5t15.5 46t12.5 55t12.5 70l155 880h-116l28 160h117l19 99q28 159 98.5 229t183.5 70q127 0 365 -82q72 102 213 102q122 0 334 -70l12 70h201l-99 -555q204 160 363 160q131 0 184 -88.5t25 -245.5l-136 -764 h-202l129 733q8 54 7 97.5t-25 70.5t-72 27q-70 0 -154 -49.5t-147 -110.5l-136 -768h-202l223 1260q-182 51 -270 51q-52 0 -80 -32t-35 -81l-23 -123h224l-29 -160h-223l-152 -868q-17 -96 -26 -138.5t-29.5 -101.5t-43.5 -84.5t-67 -60t-103 -56.5t-147 -48l-41 161 q40 14 68.5 25.5t53 27t39.5 25.5t29 31.5t21 35.5t15.5 46.5t12.5 54.5t13 70l154 880h-371l-151 -868q-13 -73 -19.5 -106t-20 -84.5t-25.5 -73.5t-34 -57t-48 -51.5t-65.5 -40t-88.5 -40.5t-115 -36zM463 1075h371l28 166q-7 2 -40 9.5t-57.5 13t-58.5 12.5t-62 10.5 t-48 3.5q-50 0 -78.5 -31.5t-36.5 -80.5z" />
<glyph horiz-adv-x="1613" d="M-176 -281q41 14 69 25.5t52.5 26.5t40 26t29 31.5t21 35.5t15.5 46t12.5 55t12.5 70l155 880h-116l28 160h117l19 99q28 159 98.5 229t183.5 70q129 0 367 -82q75 102 221 102q150 0 395 -86l-88 -143q-198 47 -274 47q-52 0 -83.5 -33t-39.5 -80l-23 -123h529 l-191 -1075h-200l161 915h-327l-152 -868q-13 -73 -19.5 -106t-20 -84.5t-25.5 -73.5t-34 -57t-48 -51.5t-65.5 -40t-88.5 -40.5t-115 -36l-41 161q40 14 68.5 25.5t53 27t39.5 25.5t29 31.5t21 35.5t15.5 46.5t12.5 54.5t13 70l154 880h-371l-151 -868q-13 -73 -19.5 -106 t-20 -84.5t-25.5 -73.5t-34 -57t-48 -51.5t-65.5 -40t-88.5 -40.5t-115 -36zM463 1075h371l28 166q-9 2 -53 12.5t-75 17t-72 13t-66 6.5q-50 0 -78.5 -31.5t-36.5 -80.5z" />
<glyph horiz-adv-x="1615" d="M-176 -281q41 14 69 25.5t52.5 26.5t40 26t29 31.5t21 35.5t15.5 46t12.5 55t12.5 70l155 880h-116l28 160h117l19 99q28 159 98.5 229t183.5 70q129 0 367 -82q73 102 221 102q150 0 395 -86l-88 -143q-198 47 -274 47q-52 0 -83.5 -33t-39.5 -80l-23 -123h531 l-195 -1093q-14 -76 -21.5 -110.5t-25.5 -85t-42 -74.5t-66 -55.5t-102 -53.5t-146 -45l-43 163q53 19 88 34t61 33t40.5 32t25 39.5t15 46t11.5 61.5l166 948h-325l-152 -868q-13 -73 -19.5 -106t-20 -84.5t-25.5 -73.5t-34 -57t-48 -51.5t-65.5 -40t-88.5 -40.5t-115 -36 l-41 161q40 14 68.5 25.5t53 27t39.5 25.5t29 31.5t21 35.5t15.5 46.5t12.5 54.5t13 70l154 880h-371l-151 -868q-13 -73 -19.5 -106t-20 -84.5t-25.5 -73.5t-34 -57t-48 -51.5t-65.5 -40t-88.5 -40.5t-115 -36zM463 1075h371l28 166q-9 2 -53 12.5t-75 17t-72 13t-66 6.5 q-50 0 -78.5 -31.5t-36.5 -80.5z" />
<glyph horiz-adv-x="2142" d="M-176 -281q41 14 69 25.5t52.5 26.5t40 26t29 31.5t21 35.5t15.5 46t12.5 55t12.5 70l155 880h-116l28 160h117l19 99q28 159 98.5 229t183.5 70q127 0 365 -82q72 102 213 102q122 0 334 -70l12 70h201l-160 -907l389 489h244l-387 -440l245 -635h-207l-174 479 l-161 -184l-52 -295h-202l223 1260q-182 51 -270 51q-52 0 -80 -32t-35 -81l-23 -123h224l-29 -160h-223l-152 -868q-17 -96 -26 -138.5t-29.5 -101.5t-43.5 -84.5t-67 -60t-103 -56.5t-147 -48l-41 161q40 14 68.5 25.5t53 27t39.5 25.5t29 31.5t21 35.5t15.5 46.5 t12.5 54.5t13 70l154 880h-371l-151 -868q-13 -73 -19.5 -106t-20 -84.5t-25.5 -73.5t-34 -57t-48 -51.5t-65.5 -40t-88.5 -40.5t-115 -36zM463 1075h371l28 166q-7 2 -40 9.5t-57.5 13t-58.5 12.5t-62 10.5t-48 3.5q-50 0 -78.5 -31.5t-36.5 -80.5z" />
<glyph horiz-adv-x="645" d="M-174 -281q41 14 69 25.5t52.5 26.5t40 26t29 31.5t21 35.5t15.5 46t12.5 55t12.5 70l155 880h-120l30 160h119l21 119q27 155 85.5 227t166.5 72q58 0 126 -22t117 -48l-76 -145q-91 33 -127 33q-71 0 -90 -113l-22 -123h225l-31 -160h-223l-151 -868q-33 -185 -57 -246 q-36 -95 -120 -149q-76 -47 -237 -94z" />
<glyph horiz-adv-x="1673" d="M-176 -281q41 14 69 25.5t52.5 26.5t40 26t29 31.5t21 35.5t15.5 46t12.5 55t12.5 70l155 880h-116l28 160h117l19 99q28 159 98.5 229t183.5 70q127 0 365 -82q72 102 213 102q122 0 334 -70l12 70h203l-265 -1493h-202l223 1260q-182 51 -270 51q-52 0 -80 -32t-35 -81 l-23 -123h224l-29 -160h-223l-152 -868q-17 -96 -26 -138.5t-29.5 -101.5t-43.5 -84.5t-67 -60t-103 -56.5t-147 -48l-41 161q40 14 68.5 25.5t53 27t39.5 25.5t29 31.5t21 35.5t15.5 46.5t12.5 54.5t13 70l154 880h-371l-151 -868q-13 -73 -19.5 -106t-20 -84.5 t-25.5 -73.5t-34 -57t-48 -51.5t-65.5 -40t-88.5 -40.5t-115 -36zM463 1075h371l28 166q-7 2 -40 9.5t-57.5 13t-58.5 12.5t-62 10.5t-48 3.5q-50 0 -78.5 -31.5t-36.5 -80.5z" />
<glyph horiz-adv-x="1835" d="M-176 -281q41 14 69 25.5t52.5 26.5t40 26t29 31.5t21 35.5t15.5 46t12.5 55t12.5 70l155 880h-118l30 160h117l19 99q28 159 98.5 229t183.5 70q131 0 359 -80q63 100 192 100q71 0 152 -27t143 -59l-94 -139q-107 43 -166 43q-71 0 -90 -113l-23 -123h369l47 264 l209 47l-55 -311h237l-26 -160h-240l-113 -641q-17 -112 54 -112q37 0 155 51l49 -164q-166 -72 -274 -72q-109 0 -159 77.5t-21 240.5l108 620h-368l-152 -868q-13 -73 -19.5 -106.5t-20 -85t-25 -73.5t-34 -56.5t-48 -51t-65 -40t-88 -40.5t-114.5 -36l-43 161 q41 14 69 25.5t52.5 26.5t40 26t29 31.5t21 35.5t15.5 46t12.5 55t12.5 70l156 880h-371l-151 -868q-13 -73 -19.5 -106t-20 -84.5t-25.5 -73.5t-34 -57t-48 -51.5t-65.5 -40t-88.5 -40.5t-115 -36zM463 1075h371l28 166q-9 2 -53 12.5t-75 17t-72 13t-66 6.5 q-50 0 -78.5 -31.5t-36.5 -80.5z" />
<glyph horiz-adv-x="1683" d="M-174 -281q41 14 69 25.5t52.5 26.5t40 26t29 31.5t21 35.5t15.5 46t12.5 55t12.5 70l155 880h-120l30 160h119l21 119q28 159 98.5 229t183.5 70q130 0 336 -72l12 72h201l-98 -555q204 160 362 160q131 0 184 -88.5t25 -245.5l-135 -764h-203l129 733q8 54 7 97.5 t-25 70.5t-72 27q-70 0 -154 -49.5t-147 -110.5l-135 -768h-203l223 1260q-188 51 -272 51q-50 0 -78.5 -32t-36.5 -81l-22 -123h225l-31 -160h-223l-151 -868q-33 -185 -57 -246q-36 -95 -120 -149q-76 -47 -237 -94z" />
<glyph horiz-adv-x="1095" d="M90 294.5q2 68.5 14 145.5l129 736h197l-135 -766q-12 -51 -10.5 -97t15 -80.5t53.5 -54.5t104 -20q123 0 185 67.5t83 182.5l137 768h195l-135 -766q-16 -96 -46.5 -168.5t-84 -133.5t-139 -93.5t-201.5 -32.5q-99 0 -171 23t-111 65t-60 99t-19 125.5zM442 1503h131 q-14 -102 97 -102q140 0 157 102h134q-19 -107 -96.5 -169t-200.5 -62q-121 0 -180.5 63.5t-41.5 167.5z" />
<glyph horiz-adv-x="1040" d="M-174 -281q41 14 69 25.5t52.5 26.5t40 26t29 31.5t21 35.5t15.5 46t12.5 55t12.5 70l155 880h-120l30 160h119l21 119q28 159 100 229t190 70q153 0 398 -86l-88 -143q-198 47 -275 47q-51 0 -82 -32.5t-41 -80.5l-22 -123h528l-190 -1075h-201l162 915h-328l-151 -868 q-33 -183 -56 -244q-37 -96 -121 -150q-76 -48 -237 -95z" />
<glyph horiz-adv-x="1042" d="M-174 -281q41 14 69 25.5t52.5 26.5t40 26t29 31.5t21 35.5t15.5 46t12.5 55t12.5 70l155 880h-120l30 160h119l21 119q28 159 100 229t190 70q153 0 398 -86l-88 -143q-198 47 -275 47q-51 0 -82 -32.5t-41 -80.5l-22 -123h530l-194 -1093q-27 -150 -50 -203 q-37 -88 -131 -140q-78 -42 -223 -81l-41 163q53 19 88 34t61 33t40 31.5t24.5 39.5t15 46.5t11.5 61.5l168 948h-328l-151 -868q-33 -183 -56 -244q-37 -96 -121 -150q-76 -48 -237 -95z" />
<glyph horiz-adv-x="1566" d="M-174 -281q40 14 68.5 25.5t53 27t39.5 25.5t29 31.5t21 35.5t15.5 46.5t12.5 54.5t13 70l155 880h-120l30 160h119l21 119q28 159 98.5 229t183.5 70q122 0 334 -70l12 70h201l-160 -907l389 489h244l-387 -440l246 -635h-207l-174 479l-162 -184l-51 -295h-203 l223 1260q-188 51 -270 51q-50 0 -78.5 -32t-36.5 -81l-22 -123h225l-31 -160h-223l-151 -868q-14 -83 -22 -120t-22.5 -92t-32 -79.5t-45.5 -58.5t-68.5 -53.5t-94 -41.5t-129.5 -44z" />
<glyph horiz-adv-x="385" d="M147 788l31 170h150l-31 -170h-150zM227 1059l60 590h174l-148 -590h-86z" />
<glyph horiz-adv-x="1099" d="M-174 -281q41 14 69 25.5t52.5 26.5t40 26t29 31.5t21 35.5t15.5 46t12.5 55t12.5 70l155 880h-120l30 160h119l21 119q28 159 98.5 229t183.5 70q122 0 334 -70l12 70h203l-264 -1493h-203l223 1260q-193 51 -270 51q-50 0 -78.5 -32t-36.5 -81l-22 -123h225l-31 -160 h-223l-151 -868q-33 -185 -57 -246q-36 -95 -120 -149q-76 -47 -237 -94z" />
<glyph horiz-adv-x="1263" d="M-174 -281q41 14 69 25.5t52.5 26.5t40 26t29 31.5t21 35.5t15.5 46t12.5 55t12.5 70l155 880h-120l30 160h119l21 119q27 156 86 227.5t172 71.5q71 0 152 -27t143 -59l-95 -139q-107 43 -166 43q-71 0 -90 -113l-22 -123h368l48 264l208 47l-55 -311h238l-27 -160h-239 l-113 -641q-17 -112 53 -112q38 0 156 51l49 -164q-166 -72 -275 -72t-159 77.5t-21 240.5l109 620h-369l-151 -868q-33 -185 -57 -246q-36 -95 -120 -149q-76 -47 -237 -94z" />
<glyph horiz-adv-x="479" d="M-186 -463q40 14 64 26t40 24t25 34t14 41.5t12 61.5l88 501h-73l22 113h70l10 53q19 104 58.5 150.5t117.5 46.5q76 0 191 -56l-68 -98q-72 25 -96 25q-47 0 -56 -64l-10 -57h137l-20 -113h-137l-88 -491q-24 -130 -43 -171q-30 -63 -108 -99q-45 -21 -120 -42z" />
<glyph horiz-adv-x="1095" d="M90 294.5q2 68.5 14 145.5l129 736h197l-135 -766q-12 -51 -10.5 -97t15 -80.5t53.5 -54.5t104 -20q123 0 185 67.5t83 182.5l137 768h195l-135 -766q-16 -96 -46.5 -168.5t-84 -133.5t-139 -93.5t-201.5 -32.5q-99 0 -171 23t-111 65t-60 99t-19 125.5zM502 1272 l248 272h258l-328 -272h-178z" />
<glyph horiz-adv-x="690" d="M-31 100l86 101q92 -80 178 -80q69 0 122 48.5t53 131.5q0 59 -30 93t-87 34q-70 0 -148 -51l-80 51l117 432h451l-23 -131h-325l-43 -188q46 16 96 16q108 0 166.5 -69.5t58.5 -176.5q0 -133 -85.5 -229t-231.5 -96q-150 0 -275 114z" />
<glyph horiz-adv-x="692" d="M70 674l86 100q92 -80 178 -80q68 0 121 48.5t53 131.5q0 59 -30 93t-87 34q-69 0 -147 -51l-80 51l117 433h450l-22 -131h-326l-43 -189q46 16 96 16q108 0 167 -69.5t59 -175.5q0 -133 -86 -229.5t-232 -96.5q-148 0 -274 115z" />
<glyph horiz-adv-x="1021" d="M-53 -104l119 143q151 -129 282 -129q118 0 209.5 92t91.5 244q0 104 -51 168.5t-147 64.5q-104 0 -240 -88l-113 70l189 715h696l-33 -187h-516l-82 -358q88 31 166 31q111 0 191 -54.5t118.5 -144t38.5 -203.5q0 -144 -59 -266t-176 -198.5t-269 -76.5q-224 0 -415 177 z" />
<glyph horiz-adv-x="1114" d="M39 154l119 143q151 -129 282 -129q118 0 209.5 92t91.5 244q0 104 -51 168.5t-147 64.5q-104 0 -240 -88l-113 70l189 715h696l-33 -187h-516l-82 -358q88 31 166 31q111 0 191 -54.5t118.5 -144t38.5 -203.5q0 -144 -59 -266t-175.5 -198.5t-268.5 -76.5 q-225 0 -416 177z" />
<glyph horiz-adv-x="385" d="M-45 -307l31 170h149l-31 -170h-149zM35 -37l59 590h174l-147 -590h-86z" />
<glyph horiz-adv-x="1441" d="M68 551l69 84q83 -66 156 -66q61 0 107 39.5t46 106.5q0 49 -26.5 77.5t-77.5 28.5q-62 0 -129 -43l-66 43l97 355h387l-19 -109h-282l-37 -154q40 15 86 15q93 0 144.5 -58t51.5 -147q0 -108 -74 -186t-198 -78q-125 0 -235 92zM297 0l686 1176h131l-686 -1176h-131z M770 166q0 140 191 219q-84 63 -84 145t66 134.5t171 52.5q96 0 149.5 -44.5t53.5 -113.5q0 -105 -146 -182q117 -69 117 -176q0 -94 -79 -153.5t-203 -59.5q-110 0 -173 47.5t-63 130.5zM895 178q0 -43 32 -66.5t83 -23.5q64 0 108.5 32.5t44.5 84.5q0 42 -28 71.5 t-76 55.5q-78 -33 -121 -67.5t-43 -86.5zM993 522q0 -59 76 -96q127 52 127 119q0 33 -23.5 54.5t-62.5 21.5q-50 0 -83.5 -30t-33.5 -69z" />
<glyph horiz-adv-x="382" d="M135 788l148 590h86l-60 -590h-174zM268 1479l31 170h150l-31 -170h-150z" />
<glyph horiz-adv-x="1417" d="M68 551l69 84q83 -66 158 -66q60 0 107 39.5t47 106.5q0 49 -27 77.5t-78 28.5q-64 0 -131 -43l-66 43l97 355h387l-17 -109h-284l-35 -152q41 13 84 13q94 0 145 -58t51 -147q0 -109 -73.5 -186.5t-198.5 -77.5q-54 0 -106.5 18.5t-75.5 34t-53 39.5zM297 0l684 1176 h133l-688 -1176h-129zM766 244q0 125 54.5 233t153.5 174t220 66q31 0 59.5 -4.5t40.5 -9.5l13 -5l-47 -96q-29 8 -64 8q-93 0 -169 -60.5t-112 -158.5q62 62 156 62q89 0 140 -56.5t51 -142.5q0 -107 -70 -186.5t-188 -79.5q-115 0 -176.5 74t-61.5 182zM889 240 q0 -61 29 -103.5t83 -42.5q63 0 99.5 46.5t36.5 109.5q0 44 -25.5 75t-77.5 31q-48 0 -88.5 -27.5t-56.5 -58.5v-30z" />
<glyph horiz-adv-x="382" d="M-57 -307l147 590h86l-59 -590h-174zM76 383l30 170h150l-31 -170h-149z" />
<glyph horiz-adv-x="1095" d="M90 294.5q2 68.5 14 145.5l129 736h197l-135 -766q-12 -51 -10.5 -97t15 -80.5t53.5 -54.5t104 -20q123 0 185 67.5t83 182.5l137 768h195l-135 -766q-16 -96 -46.5 -168.5t-84 -133.5t-139 -93.5t-201.5 -32.5q-99 0 -171 23t-111 65t-60 99t-19 125.5z" />
<glyph horiz-adv-x="661" d="M197 1516l22 133h586l-23 -133h-217l-129 -728h-149l127 728h-217z" />
<glyph horiz-adv-x="745" d="M-31 174l21 113l436 573h199l-101 -555h113l-23 -131h-112l-31 -174h-147l30 174h-385zM145 305h232l72 406z" />
<glyph horiz-adv-x="745" d="M72 748l20 112l436 574h199l-100 -555h112l-22 -131h-113l-31 -175h-147l31 175h-385zM248 879h231l72 405z" />
<glyph horiz-adv-x="1114" d="M-43 45l29 160l710 971h279l-168 -945h178l-33 -186h-178l-53 -303h-209l53 303h-608zM199 231h399l127 721z" />
<glyph horiz-adv-x="1116" d="M8 303l29 160l711 971h268l-168 -945h172l-33 -186h-172l-53 -303h-207l53 303h-600zM250 489h391l123 703z" />
<glyph horiz-adv-x="1511" d="M66 612l16 93l375 471h168l-84 -455h98l-18 -109h-101l-24 -141h-123l24 141h-331zM213 721h205l59 336zM367 0l686 1176h133l-688 -1176h-131zM844 82l69 82q80 -64 156 -64q62 0 109 39.5t47 106.5q0 47 -28 76.5t-79 29.5q-55 0 -129 -43l-65 43l96 353h387l-16 -107 h-285l-37 -156q51 15 86 15q94 0 145.5 -57.5t51.5 -145.5q0 -109 -74.5 -187.5t-198.5 -78.5t-235 94z" />
<glyph horiz-adv-x="503" d="M29 0l198 809h115l-86 -809h-227zM209 946l41 230h199l-41 -230h-199z" />
<glyph horiz-adv-x="1095" d="M90 294.5q2 68.5 14 145.5l129 736h197l-135 -766q-12 -51 -10.5 -97t15 -80.5t53.5 -54.5t104 -20q123 0 185 67.5t83 182.5l137 768h195l-135 -766q-16 -96 -46.5 -168.5t-84 -133.5t-139 -93.5t-201.5 -32.5q-99 0 -171 23t-111 65t-60 99t-19 125.5zM385 1272 l219 272h207l123 -272h-133l-105 168l-159 -168h-152z" />
<glyph horiz-adv-x="501" d="M43 0l41 229h199l-41 -229h-199zM150 367l86 809h227l-199 -809h-114z" />
<glyph horiz-adv-x="1062" d="M31 252l22 133h107l186 1049h787l-33 -189h-578l-76 -436h459l-33 -186h-458l-43 -238h299l-25 -133h-297l-45 -252h-211l45 252h-106z" />
<glyph horiz-adv-x="958" d="M18 199l23 118h94l152 859h694l-33 -175h-497l-58 -329h395l-30 -170h-396l-32 -185h256l-21 -118h-256l-35 -199h-194l35 199h-97z" />
<glyph horiz-adv-x="696" d="M-72 -166l17 92h69l111 627h508l-25 -133h-356l-41 -232h283l-23 -131h-283l-24 -131h188l-16 -92h-189l-24 -141h-150l25 141h-70z" />
<glyph horiz-adv-x="698" d="M123 930l16 92h70l110 627h508l-24 -133h-357l-40 -232h282l-22 -131h-283l-25 -131h189l-19 -92h-186l-25 -142h-149l25 142h-70z" />
<glyph horiz-adv-x="462" d="M23 633q50 18 76 30.5t42.5 36t22 45.5t14.5 74l88 502h-73l22 113h70l10 53q19 104 58.5 150t117.5 46t191 -55l-68 -98q-69 24 -96 24q-47 0 -56 -63l-10 -57h137l-20 -113h-137l-88 -492q-7 -38 -10 -54.5t-9.5 -45.5t-11.5 -41t-14 -33.5t-18.5 -30.5t-24 -24.5 t-31.5 -23.5t-40 -19.5t-50 -20t-62 -18.5z" />
<glyph horiz-adv-x="661" d="M4 420l23 133h585l-22 -133h-217l-129 -727h-150l127 727h-217z" />
<glyph horiz-adv-x="1028" d="M39 0l207 1176h194l-34 -199h163q194 0 291.5 -78.5t97.5 -228.5q0 -195 -128 -314.5t-355 -119.5h-201l-41 -236h-194zM305 406h168q127 0 205 65.5t78 183.5q0 150 -197 150h-184z" />
<glyph horiz-adv-x="884" d="M68 -319l63 114q40 -24 82 -24t70 27t28 85q0 47 -20 117h-55l176 1001h-303l30 175h803l-31 -175h-303l-176 -1001h-51q5 -9 12.5 -26t16 -53t8.5 -71q0 -97 -57.5 -152.5t-147.5 -55.5q-86 0 -145 39z" />
<glyph horiz-adv-x="884" d="M109 1001l30 175h803l-31 -175h-303l-176 -1001h-196l176 1001h-303zM330 1544h133l104 -168l162 168h150l-217 -272h-207z" />
<glyph horiz-adv-x="901" d="M117 1001l30 175h803l-30 -175h-304l-90 -509h144l-21 -123h-145l-64 -369h-196l63 369h-141l22 123h142l90 509h-303z" />
<glyph horiz-adv-x="780" d="M-68 -307l107 598q25 150 101.5 225.5t217.5 75.5q127 0 192.5 -56t65.5 -141q0 -41 -15 -75.5t-29 -49.5l-15 -14q-19 -6 -26.5 -8t-30 -12t-34 -19.5t-22 -26.5t-10.5 -36q0 -22 12 -38t42 -40.5t47 -42.5q71 -74 71 -154q0 -86 -65.5 -143.5t-161.5 -57.5 q-101 0 -225 72l65 92q88 -49 148 -49q38 0 65 22t27 58q0 44 -53 88q-4 4 -22 18t-26 21.5t-23 24.5t-22.5 31t-13.5 36t-6 45q0 35 12.5 64.5t29.5 49t44 37.5t45.5 26.5t44.5 19.5q10 20 10 47q0 44 -31 69t-88 25q-70 0 -115.5 -43.5t-64.5 -150.5l-102 -588h-146z" />
<glyph horiz-adv-x="792" d="M129 788l107 598q25 151 101.5 226.5t217.5 75.5q127 0 192.5 -56t65.5 -141q0 -41 -14.5 -75.5t-29.5 -49.5l-15 -14q-22 -7 -34.5 -11.5t-37.5 -17.5t-38 -31.5t-13 -42.5q0 -22 11.5 -38t41.5 -41t47 -42q72 -75 72 -153q0 -86 -66 -143.5t-162 -57.5q-101 0 -225 72 l66 92q88 -49 147 -49q38 0 65 22t27 58q0 44 -53 88q-4 4 -22 18t-26 21.5t-23 24.5t-22.5 31t-13.5 36t-6 45q0 43 17 77t48.5 57.5t54.5 36t57 26.5q10 20 10 47q0 44 -31 69t-88 25q-70 0 -115.5 -44t-64.5 -151l-103 -588h-145z" />
<glyph horiz-adv-x="710" d="M-106 -520l47 119q130 -50 219 -50q120 0 141 123l18 107q-105 -101 -204 -101q-71 0 -116.5 56.5t-45.5 165.5q0 119 33 221.5t97 166.5t146 64q39 0 75.5 -17t53 -31.5t45.5 -43.5l15 78h145l-117 -660q-25 -142 -90.5 -194.5t-183.5 -52.5q-136 0 -278 49zM100 -80 q0 -56 19 -87.5t55 -31.5q42 0 81 26.5t85 74.5l43 241q-57 86 -123 86q-47 0 -85 -50t-56.5 -119.5t-18.5 -139.5z" />
<glyph horiz-adv-x="884" d="M109 1001l30 175h803l-31 -175h-303l-176 -1001h-196l176 1001h-303z" />
<glyph horiz-adv-x="727" d="M113 891l86 108q133 -94 239 -94q59 0 98 31t39 84q0 16 -4 29.5t-14.5 26t-19.5 21.5t-29 20.5t-31.5 18t-38 20t-39.5 20.5q-88 51 -134 105.5t-46 135.5q0 106 78.5 176t206.5 70q144 0 303 -94l-84 -109q-49 29 -108 49.5t-105 20.5q-55 0 -92 -28t-37 -81 q0 -14 3.5 -25.5t12.5 -22.5t17.5 -19t26.5 -19t29.5 -18t37.5 -21t41 -22q42 -24 70.5 -44.5t57.5 -50t43.5 -67t14.5 -82.5q0 -111 -83 -183.5t-214 -72.5q-163 0 -325 117z" />
<glyph horiz-adv-x="1095" d="M90 294.5q2 68.5 14 145.5l129 736h197l-135 -766q-12 -51 -10.5 -97t15 -80.5t53.5 -54.5t104 -20q123 0 185 67.5t83 182.5l137 768h195l-135 -766q-16 -96 -46.5 -168.5t-84 -133.5t-139 -93.5t-201.5 -32.5q-99 0 -171 23t-111 65t-60 99t-19 125.5zM428 1292l37 209 h176l-37 -209h-176zM729 1292l37 209h174l-37 -209h-174z" />
<glyph horiz-adv-x="718" d="M92 575l47 119q127 -49 219 -49q121 0 142 123l18 106q-104 -100 -205 -100q-71 0 -116 56t-45 165q0 119 33 221.5t97 167t146 64.5q39 0 75.5 -17t53 -31.5t45.5 -43.5l14 78h146l-117 -660q-25 -142 -90.5 -195t-183.5 -53q-137 0 -279 49zM299 1016q0 -56 19 -87.5 t55 -31.5q70 0 166 100l43 242q-57 86 -123 86q-47 0 -85 -50t-56.5 -119.5t-18.5 -139.5z" />
<glyph horiz-adv-x="727" d="M-82 -205l86 109q133 -94 240 -94q59 0 98 31t39 83q0 16 -4 29.5t-14.5 26t-19.5 21.5t-29 20.5t-31.5 18t-38 20t-39.5 20.5q-88 51 -134 106t-46 136q0 106 78 175.5t206 69.5q144 0 303 -94l-84 -108q-48 29 -107 49t-106 20q-55 0 -92 -27.5t-37 -80.5 q0 -14 3.5 -25.5t13 -23t17 -19t26 -19t30 -18t38 -21t40.5 -22.5q42 -24 70.5 -44.5t58 -50t44 -67t14.5 -82.5q0 -111 -83 -183.5t-214 -72.5q-164 0 -326 117z" />
<glyph horiz-adv-x="970" d="M-6 137l110 142q195 -125 332 -125q85 0 141 43.5t56 117.5q0 22 -6 41.5t-21.5 37.5t-28 30.5t-40.5 30t-44.5 26.5t-53.5 29t-54 29q-59 34 -97.5 61.5t-75.5 66t-55 86.5t-18 107q0 145 106.5 239.5t280.5 94.5q202 0 414 -127l-111 -141q-69 40 -150 68t-147 28 q-74 0 -128 -41t-54 -113q0 -17 5 -33t11 -28t22 -26.5t26 -23t35 -23t38 -22t46.5 -25t48.5 -25.5q48 -28 80.5 -49t70 -52.5t59.5 -63.5t37 -75.5t15 -93.5q0 -151 -114 -248.5t-292 -97.5q-125 0 -240.5 45t-203.5 110zM199 -514l112 176h-73l36 213h166l-26 -227 l-176 -219z" />
<glyph horiz-adv-x="1095" d="M90 294.5q2 68.5 14 145.5l129 736h197l-135 -766q-12 -51 -10.5 -97t15 -80.5t53.5 -54.5t104 -20q123 0 185 67.5t83 182.5l137 768h195l-135 -766q-16 -96 -46.5 -168.5t-84 -133.5t-139 -93.5t-201.5 -32.5q-99 0 -171 23t-111 65t-60 99t-19 125.5zM418 1544h231 l162 -272h-156z" />
<glyph horiz-adv-x="1095" d="M90 294.5q2 68.5 14 145.5l129 736h197l-135 -766q-12 -51 -10.5 -97t15 -80.5t53.5 -54.5t104 -20q123 0 185 67.5t83 182.5l137 768h195l-135 -766q-16 -96 -46.5 -168.5t-84 -133.5t-139 -93.5t-201.5 -32.5q-99 0 -171 23t-111 65t-60 99t-19 125.5zM430 1272 l172 272h207l-254 -272h-125zM709 1272l174 272h204l-253 -272h-125z" />
<glyph horiz-adv-x="970" d="M-6 137l110 142q195 -125 332 -125q85 0 141 43.5t56 117.5q0 22 -6 41.5t-21.5 37.5t-28 30.5t-40.5 30t-44.5 26.5t-53.5 29t-54 29q-59 34 -97.5 61.5t-75.5 66t-55 86.5t-18 107q0 145 106.5 239.5t280.5 94.5q202 0 414 -127l-111 -141q-69 40 -150 68t-147 28 q-74 0 -128 -41t-54 -113q0 -17 5 -33t11 -28t22 -26.5t26 -23t35 -23t38 -22t46.5 -25t48.5 -25.5q48 -28 80.5 -49t70 -52.5t59.5 -63.5t37 -75.5t15 -93.5q0 -151 -114 -248.5t-292 -97.5q-125 0 -240.5 45t-203.5 110zM328 1272l219 272h207l123 -272h-134l-104 168 l-160 -168h-151z" />
<glyph horiz-adv-x="970" d="M-6 137l110 142q195 -125 332 -125q85 0 141 43.5t56 117.5q0 22 -6 41.5t-21.5 37.5t-28 30.5t-40.5 30t-44.5 26.5t-53.5 29t-54 29q-59 34 -97.5 61.5t-75.5 66t-55 86.5t-18 107q0 145 106.5 239.5t280.5 94.5q202 0 414 -127l-111 -141q-69 40 -150 68t-147 28 q-74 0 -128 -41t-54 -113q0 -17 5 -33t11 -28t22 -26.5t26 -23t35 -23t38 -22t46.5 -25t48.5 -25.5q48 -28 80.5 -49t70 -52.5t59.5 -63.5t37 -75.5t15 -93.5q0 -144 -104.5 -239.5t-270.5 -104.5q29 -65 29 -134q0 -97 -57.5 -152.5t-147.5 -55.5q-87 0 -146 39l64 114 q40 -24 82 -24t70 27t28 85q0 42 -16 103q-108 10 -206.5 52t-174.5 99z" />
<glyph horiz-adv-x="700" d="M-59 -307l157 895h146l-60 -328q125 92 224 92q84 0 118 -54.5t15 -152.5l-78 -452h-146l76 430q9 51 -1.5 79.5t-49.5 28.5q-42 0 -92 -27.5t-86 -62.5l-78 -448h-145z" />
<glyph horiz-adv-x="970" d="M-6 137l110 142q195 -125 332 -125q85 0 141 43.5t56 117.5q0 22 -6 41.5t-21.5 37.5t-28 30.5t-40.5 30t-44.5 26.5t-53.5 29t-54 29q-59 34 -97.5 61.5t-75.5 66t-55 86.5t-18 107q0 145 106.5 239.5t280.5 94.5q202 0 414 -127l-111 -141q-69 40 -150 68t-147 28 q-74 0 -128 -41t-54 -113q0 -17 5 -33t11 -28t22 -26.5t26 -23t35 -23t38 -22t46.5 -25t48.5 -25.5q48 -28 80.5 -49t70 -52.5t59.5 -63.5t37 -75.5t15 -93.5q0 -151 -114 -248.5t-292 -97.5q-125 0 -240.5 45t-203.5 110zM373 1544h133l104 -168l162 168h150l-217 -272 h-207z" />
<glyph horiz-adv-x="819" d="M-9.5 -88.5q0.5 48.5 11.5 108.5l94 533h150l-99 -557q-9 -37 -7.5 -70t11 -58t37.5 -39.5t74 -14.5q158 0 187 180l100 559h149l-98 -559q-12 -71 -34.5 -124.5t-61 -98.5t-101.5 -69t-147 -24q-74 0 -126.5 18t-82 48t-43.5 74.5t-13.5 93z" />
<glyph horiz-adv-x="972" d="M-6 137l110 142q195 -125 332 -125q85 0 141 43.5t56 117.5q0 22 -6 41.5t-21.5 37.5t-28 30.5t-40.5 30t-44.5 26.5t-53.5 29t-54 29q-59 34 -97.5 61.5t-75.5 66t-55 86.5t-18 107q0 145 106.5 239.5t280.5 94.5q202 0 414 -127l-111 -141q-69 40 -150 68t-147 28 q-74 0 -128 -41t-54 -113q0 -17 5 -33t11 -28t22 -26.5t26 -23t35 -23t38 -22t46.5 -25t48.5 -25.5q48 -28 80.5 -49t70 -52.5t59.5 -63.5t37 -75.5t15 -93.5q0 -151 -114 -248.5t-292 -97.5q-125 0 -240.5 45t-203.5 110zM442 1272l248 272h258l-327 -272h-179z" />
<glyph horiz-adv-x="970" d="M-6 137l110 142q195 -125 332 -125q85 0 141 43.5t56 117.5q0 22 -6 41.5t-21.5 37.5t-28 30.5t-40.5 30t-44.5 26.5t-53.5 29t-54 29q-59 34 -97.5 61.5t-75.5 66t-55 86.5t-18 107q0 145 106.5 239.5t280.5 94.5q202 0 414 -127l-111 -141q-69 40 -150 68t-147 28 q-74 0 -128 -41t-54 -113q0 -17 5 -33t11 -28t22 -26.5t26 -23t35 -23t38 -22t46.5 -25t48.5 -25.5q48 -28 80.5 -49t70 -52.5t59.5 -63.5t37 -75.5t15 -93.5q0 -151 -114 -248.5t-292 -97.5q-125 0 -240.5 45t-203.5 110z" />
<glyph horiz-adv-x="802" d="M150 788l151 861h291q140 0 210 -56t70 -159q0 -106 -62 -187t-179 -106l131 -353h-158l-117 345h-127l-61 -345h-149zM381 1257h143q92 0 144.5 44.5t52.5 119.5q0 103 -141 103h-152z" />
<glyph horiz-adv-x="802" d="M-43 -307l152 860h290q140 0 210.5 -56t70.5 -159q0 -106 -62.5 -187t-179.5 -106l131 -352h-157l-117 344h-127l-62 -344h-149zM188 162h144q92 0 144 44.5t52 119.5q0 102 -141 102h-151z" />
<glyph horiz-adv-x="1075" d="M39 0l207 1176h397q190 0 286.5 -74.5t96.5 -216.5q0 -92 -36.5 -173t-114.5 -142t-187 -83l184 -487h-202l-164 475h-189l-84 -475h-194zM244 -514l112 176h-73l36 213h166l-26 -227l-176 -219zM346 639h201q132 0 205 62t73 169q0 142 -200 142h-213z" />
<glyph horiz-adv-x="1075" d="M39 0l207 1176h397q190 0 286.5 -74.5t96.5 -216.5q0 -92 -36.5 -173t-114.5 -142t-187 -83l184 -487h-202l-164 475h-189l-84 -475h-194zM346 639h201q132 0 205 62t73 169q0 142 -200 142h-213zM451 1544h133l104 -168l162 168h149l-217 -272h-207z" />
<glyph horiz-adv-x="1075" d="M39 0l207 1176h397q190 0 286.5 -74.5t96.5 -216.5q0 -92 -36.5 -173t-114.5 -142t-187 -83l184 -487h-202l-164 475h-189l-84 -475h-194zM346 639h201q132 0 205 62t73 169q0 142 -200 142h-213zM520 1272l248 272h258l-328 -272h-178z" />
<glyph horiz-adv-x="350" d="M-59 -307l114 645h146l-115 -645h-145zM70 444l24 142h152l-25 -142h-151z" />
<glyph horiz-adv-x="1075" d="M39 0l207 1176h397q190 0 286.5 -74.5t96.5 -216.5q0 -92 -36.5 -173t-114.5 -142t-187 -83l184 -487h-202l-164 475h-189l-84 -475h-194zM346 639h201q132 0 205 62t73 169q0 142 -200 142h-213z" />
<glyph horiz-adv-x="858" d="M176 1106q0 51 9 108.5t27.5 121.5t51.5 121.5t76 104t105.5 74t136.5 27.5q151 0 233 -83.5t82 -244.5q0 -67 -14.5 -141.5t-44.5 -153t-85.5 -143.5t-127.5 -96l104 -117l-111 -94l-139 184q-145 3 -224 87.5t-79 244.5zM328 1106q0 -197 166 -197q54 0 98.5 34 t71.5 84t45.5 110.5t26 109.5t7.5 84q0 197 -165 197q-54 0 -98.5 -34t-72 -84t-46 -110.5t-26 -109.5t-7.5 -84z" />
<glyph horiz-adv-x="1095" d="M90 294.5q2 68.5 14 145.5l129 736h197l-135 -766q-12 -51 -10.5 -97t15 -80.5t53.5 -54.5t104 -20q123 0 185 67.5t83 182.5l137 768h195l-135 -766q-16 -96 -46.5 -168.5t-84 -133.5t-139 -93.5t-201.5 -32.5q-99 0 -171 23t-111 65t-60 99t-19 125.5zM418 1323l22 135 h504l-24 -135h-502z" />
<glyph horiz-adv-x="1095" d="M91.5 296.5q0.5 64.5 14.5 143.5l130 736h196l-135 -766q-12 -51 -10.5 -97t15 -80.5t53.5 -54.5t104 -20q123 0 185 67.5t83 182.5l137 768h195l-135 -766q-14 -79 -37 -142t-60.5 -119t-95 -94.5t-133.5 -56.5q-94 -60 -142 -109.5t-48 -99.5q0 -14 3.5 -24t12.5 -16 t15.5 -10t21.5 -5.5t21 -2t23.5 0t20.5 0.5l-41 -113q-94 0 -137 17q-84 32 -84 126q0 123 166 220q-93 2 -160 27t-105 65.5t-56 99t-17.5 123z" />
<glyph horiz-adv-x="860" d="M-16 10q0 62 12 132t42.5 147t75 138t116 100.5t159.5 39.5q151 0 233.5 -83t82.5 -244q0 -67 -15 -142t-45 -153t-85.5 -143.5t-127.5 -96.5l105 -117l-111 -94l-139 184q-145 3 -224 87.5t-79 244.5zM135 10q0 -196 166 -196q54 0 98.5 34t72 84t46 110.5t26 109.5 t7.5 84q0 196 -166 196q-54 0 -98.5 -34t-72 -84t-46 -110.5t-26 -109.5t-7.5 -84z" />
<glyph horiz-adv-x="647" d="M-45 -53q0 177 92 291t246 114q97 0 153 -47t56 -129q0 -215 -344 -215h-60v-10q0 -77 27 -117.5t78 -40.5q9 0 19 1.5t19 3t21 6t19.5 7t21.5 9t20 9.5t21.5 11t19.5 10t20.5 11t18.5 10l48 -104q-153 -89 -279 -89q-101 0 -159 67t-58 202zM106 45h56q100 0 151.5 34 t51.5 91q0 34 -22 53t-60 19q-64 0 -111.5 -55t-65.5 -142z" />
<glyph horiz-adv-x="1159" d="M82 432q0 59 8.5 125.5t28.5 141t49 144.5t74 134t100 112t130.5 76.5t162.5 28.5q208 0 321 -114t113 -335q0 -71 -12 -150.5t-41 -169.5t-71 -167.5t-108 -143.5t-147 -100l144 -159l-148 -123l-188 250q-200 5 -308 119t-108 331zM281 432q0 -129 54.5 -201.5 t184.5 -72.5q77 0 140 47.5t100.5 117t63.5 153t36 151t10 116.5q0 275 -239 275q-64 0 -119 -33t-92 -87.5t-65 -118.5t-43.5 -132t-23 -122t-7.5 -93z" />
<glyph horiz-adv-x="765" d="M150 788l151 861h264q140 0 211.5 -59.5t71.5 -168.5q0 -144 -93 -230.5t-257 -86.5h-142l-57 -316h-149zM379 1233h117q88 0 143 46t55 130q0 109 -139 109h-127z" />
<glyph horiz-adv-x="765" d="M-43 -307l152 860h264q140 0 211 -59t71 -168q0 -144 -93 -231t-257 -87h-141l-58 -315h-149zM186 137h117q88 0 143.5 46t55.5 130q0 109 -140 109h-126z" />
<glyph horiz-adv-x="352" d="M-213 -463q50 18 76.5 30.5t42.5 31t21.5 35t11.5 51.5l114 653h146l-115 -643q-6 -37 -10 -55t-11 -45t-15 -40.5t-22 -32.5t-31.5 -30t-43 -24.5t-58 -24t-75.5 -21.5zM68 444l24 142h154l-25 -142h-153z" />
<glyph horiz-adv-x="1114" d="M43 326q0 72 23 136t58 110.5t86 88t97.5 68.5t102.5 53q-160 117 -160 293q0 167 122 274t314 107q171 0 264.5 -86.5t93.5 -222.5q0 -228 -286 -381q225 -138 225 -356q0 -192 -147 -312.5t-375 -120.5q-196 0 -307 92t-111 257zM260 346q0 -95 57 -145.5t154 -50.5 q122 0 209.5 74.5t87.5 191.5q0 47 -16 88t-46.5 74t-60.5 56.5t-72 49.5q-68 -31 -116 -59.5t-97 -70t-74.5 -94t-25.5 -114.5zM451 1063q0 -126 141 -207q248 102 248 270q0 71 -43.5 116.5t-122.5 45.5q-94 0 -158.5 -67t-64.5 -158z" />
<glyph horiz-adv-x="1026" d="M39 0l207 1176h358q192 0 289.5 -79t97.5 -231q0 -195 -127 -313.5t-354 -118.5h-199l-78 -434h-194zM340 604h168q128 0 205.5 65.5t77.5 182.5q0 152 -197 152h-184z" />
<glyph horiz-adv-x="1159" d="M80 432q0 59 8.5 125.5t28.5 141t49 144.5t74.5 134t100.5 112t131 76.5t163 28.5q208 0 321 -114t113 -335q0 -59 -8.5 -125.5t-28.5 -141t-49 -144.5t-74 -134.5t-100 -112.5t-130.5 -76.5t-162.5 -28.5q-210 0 -323 114t-113 336zM281 432q0 -129 54.5 -201.5 t184.5 -72.5q77 0 140 47.5t100.5 117t63.5 153t36 151t10 116.5q0 275 -239 275q-64 0 -119 -33t-92 -87.5t-65 -118.5t-43.5 -132t-23 -122t-7.5 -93zM424 1352q56 90 97 130t100 40q38 0 76 -25t70 -49.5t54 -24.5q42 0 103 95l88 -64q-54 -88 -95.5 -128t-101.5 -40 q-38 0 -76 24.5t-70 49t-55 24.5q-21 0 -43.5 -18.5t-58.5 -75.5z" />
<glyph horiz-adv-x="858" d="M176 1106q0 51 9 108.5t27.5 121.5t51.5 121.5t76 104t105.5 74t136.5 27.5q151 0 233 -83.5t82 -244.5q0 -63 -12 -133.5t-42.5 -148t-75 -138.5t-116 -101t-159.5 -40q-151 0 -233.5 84t-82.5 248zM330 1106q0 -197 164 -197q54 0 98.5 34t71.5 84t45.5 110.5t26 109.5 t7.5 84q0 197 -165 197q-54 0 -98.5 -34t-71.5 -84t-45.5 -110.5t-25.5 -109.5t-7 -84z" />
<glyph horiz-adv-x="638" d="M-59 -307l157 895h146l-92 -520l219 270h174l-240 -264l158 -381h-148l-106 274l-92 -102l-31 -172h-145z" />
<glyph horiz-adv-x="661" d="M133 788l158 895h145l-92 -520l219 271h174l-239 -265l157 -381h-147l-107 275l-92 -102l-30 -173h-146z" />
<glyph horiz-adv-x="1159" d="M6 0l135 162q-61 104 -61 270q0 59 8.5 125.5t28.5 141t49 144.5t74.5 134t100.5 112t131 76.5t163 28.5q182 0 295 -90l59 72h141l-129 -154q68 -109 68 -277q0 -59 -8.5 -125.5t-28.5 -141t-49 -144.5t-74 -134.5t-100 -112.5t-130.5 -76.5t-162.5 -28.5 q-192 0 -305 96l-66 -78h-139zM281 432q0 -55 8 -94l516 616q-64 64 -174 64q-64 0 -119 -33t-92 -87.5t-65 -118.5t-43.5 -132t-23 -122t-7.5 -93zM336 227q57 -69 184 -69q77 0 140 47.5t100.5 117t63.5 153t36 151t10 116.5q0 57 -12 107zM528 1272l248 272h258 l-327 -272h-179z" />
<glyph horiz-adv-x="1118" d="M47 326q0 72 23 136t58 110.5t86 88t97.5 68.5t102.5 53q-160 117 -160 293q0 167 122 274t314 107q171 0 265 -86.5t94 -222.5q0 -228 -287 -381q225 -138 225 -356q0 -192 -147 -312.5t-375 -120.5q-196 0 -307 92t-111 257zM264 346q0 -95 57 -145.5t154 -50.5 q122 0 209.5 74.5t87.5 191.5q0 47 -16 88t-46 74t-60.5 57t-71.5 49q-68 -32 -116.5 -60t-97.5 -69.5t-74.5 -94t-25.5 -114.5zM455 1063q0 -126 141 -207q248 102 248 270q0 71 -43.5 116.5t-122.5 45.5q-94 0 -158.5 -67t-64.5 -158z" />
<glyph horiz-adv-x="1159" d="M80 432q0 59 8.5 125.5t28.5 141t49 144.5t74.5 134t100.5 112t131 76.5t163 28.5q208 0 321 -114t113 -335q0 -59 -8.5 -125.5t-28.5 -141t-49 -144.5t-74 -134.5t-100 -112.5t-130.5 -76.5t-162.5 -28.5q-210 0 -323 114t-113 336zM281 432q0 -129 54.5 -201.5 t184.5 -72.5q77 0 140 47.5t100.5 117t63.5 153t36 151t10 116.5q0 275 -239 275q-64 0 -119 -33t-92 -87.5t-65 -118.5t-43.5 -132t-23 -122t-7.5 -93zM451 1323l22 135h504l-25 -135h-501z" />
<glyph horiz-adv-x="858" d="M-16 10q0 62 12 132t42.5 147t75 138t116 100.5t159.5 39.5q151 0 233.5 -83t82.5 -244q0 -52 -9 -110t-27.5 -122.5t-51.5 -122t-76 -104.5t-105.5 -75t-136.5 -28q-151 0 -233 84t-82 248zM137 10q0 -196 164 -196q54 0 98.5 34t72 84t46 110.5t26 109.5t7.5 84 q0 196 -166 196q-54 0 -98.5 -34t-71.5 -84t-45.5 -110.5t-25.5 -109.5t-7 -84z" />
<glyph horiz-adv-x="1161" d="M80 432q0 59 8.5 125.5t28.5 141t49 144.5t74.5 134t100.5 112t131 76.5t163 28.5q208 0 321 -114t113 -335q0 -59 -8.5 -125.5t-28.5 -141t-49 -144.5t-74 -134.5t-100 -112.5t-130.5 -76.5t-162.5 -28.5q-210 0 -323 114t-113 336zM281 432q0 -129 54.5 -201.5 t184.5 -72.5q77 0 140 47.5t100.5 117t63.5 153t36 151t10 116.5q0 275 -239 275q-64 0 -119 -33t-92 -87.5t-65 -118.5t-43.5 -132t-23 -122t-7.5 -93zM465 1272l172 272h207l-254 -272h-125zM743 1272l175 272h204l-254 -272h-125z" />
<glyph horiz-adv-x="1159" d="M80 432q0 59 8.5 125.5t28.5 141t49 144.5t74.5 134t100.5 112t131 76.5t163 28.5q208 0 321 -114t113 -335q0 -59 -8.5 -125.5t-28.5 -141t-49 -144.5t-74 -134.5t-100 -112.5t-130.5 -76.5t-162.5 -28.5q-210 0 -323 114t-113 336zM281 432q0 -129 54.5 -201.5 t184.5 -72.5q77 0 140 47.5t100.5 117t63.5 153t36 151t10 116.5q0 275 -239 275q-64 0 -119 -33t-92 -87.5t-65 -118.5t-43.5 -132t-23 -122t-7.5 -93zM453 1544h231l162 -272h-156z" />
<glyph horiz-adv-x="737" d="M98 774q0 169 224 270q-97 69 -97 175q0 101 76.5 165t200.5 64q113 0 174 -54t61 -137q0 -135 -172 -223q137 -84 137 -213q0 -117 -91.5 -189.5t-239.5 -72.5q-128 0 -200.5 57.5t-72.5 157.5zM250 788q0 -53 34 -80.5t93 -27.5q73 0 123.5 40.5t50.5 104.5 q0 51 -31 86t-84 66q-87 -38 -136.5 -81t-49.5 -108zM367 1208q0 -66 82 -114q143 59 143 147q0 38 -26 63t-70 25q-55 0 -92 -35.5t-37 -85.5z" />
<glyph horiz-adv-x="348" d="M-59 -307l157 895h146l-158 -895h-145z" />
<glyph horiz-adv-x="737" d="M-2 201q0 169 223 270q-96 68 -96 174q0 101 76.5 165t199.5 64q113 0 174.5 -53.5t61.5 -136.5q0 -135 -172 -223q137 -84 137 -213q0 -117 -92 -189.5t-240 -72.5q-128 0 -200 57.5t-72 157.5zM150 215q0 -53 34 -81t92 -28q73 0 124 41t51 105q0 51 -31 85.5t-84 65.5 q-87 -38 -136.5 -80.5t-49.5 -107.5zM266 635q0 -67 82 -115q64 27 104 61.5t40 86.5q0 38 -26 63t-71 25q-55 0 -92 -35.5t-37 -85.5z" />
<glyph horiz-adv-x="899" d="M6 0l25 139q5 3 14.5 9.5t36 27.5t50 44t51.5 59.5t46 74.5h-145l18 103h158q4 28 4 43q0 35 -4 53h-141l18 104h96q-1 4 -9 30.5t-10 34.5t-7.5 31t-7.5 37t-4 34.5t-2 39.5q0 150 89 240t242 90q58 0 113 -13.5t103 -38.5t78.5 -45t66.5 -48l-103 -121q-133 94 -227 94 q-76 0 -123 -48t-47 -124q0 -25 5 -52.5t9.5 -44t15.5 -50t15 -46.5h272l-18 -104h-235l2 -29q0 -32 -7 -67h222l-17 -103h-235q-52 -114 -135 -182h432l-31 -172h-674z" />
<glyph horiz-adv-x="655" d="M-78 -307l19 108q11 6 28.5 18t56.5 52t60 84h-106l12 74h114q3 12 3 28q0 26 -5 41h-100l12 76h70q-29 93 -29 150q0 111 65 177t175 66q58 0 114 -20t85.5 -39.5t68.5 -50.5l-78 -92q-96 69 -165 69q-52 0 -84.5 -33.5t-32.5 -87.5q0 -17 3.5 -36.5t7.5 -31.5t12.5 -37 t11.5 -34h192l-12 -76h-166q2 -8 2 -22q0 -19 -4 -47h154l-13 -74h-164q-36 -77 -98 -131h307l-22 -131h-494z" />
<glyph horiz-adv-x="653" d="M115 788l18 109q11 6 29 18t57 52t60 84h-107l12 73h115q2 10 2 29q0 29 -4 41h-100l12 76h70q-29 93 -29 149q0 111 64.5 177.5t174.5 66.5q58 0 114.5 -20.5t86 -40t68.5 -50.5l-78 -92q-97 70 -166 70q-52 0 -84.5 -33.5t-32.5 -87.5q0 -17 3.5 -36.5t7.5 -31.5 t12.5 -37t11.5 -34h193l-13 -76h-166q3 -12 3 -23q0 -12 -5 -47h154l-12 -73h-164q-36 -77 -98 -131h307l-23 -132h-493z" />
<glyph horiz-adv-x="1159" d="M80 432q0 59 8.5 125.5t28.5 141t49 144.5t74.5 134t100.5 112t131 76.5t163 28.5q208 0 321 -114t113 -335q0 -59 -8.5 -125.5t-28.5 -141t-49 -144.5t-74 -134.5t-100 -112.5t-130.5 -76.5t-162.5 -28.5q-210 0 -323 114t-113 336zM281 432q0 -129 54.5 -201.5 t184.5 -72.5q77 0 140 47.5t100.5 117t63.5 153t36 151t10 116.5q0 275 -239 275q-64 0 -119 -33t-92 -87.5t-65 -118.5t-43.5 -132t-23 -122t-7.5 -93zM463 1292l37 209h176l-37 -209h-176zM764 1292l37 209h174l-37 -209h-174z" />
<glyph horiz-adv-x="1159" d="M80 432q0 59 8.5 125.5t28.5 141t49 144.5t74.5 134t100.5 112t131 76.5t163 28.5q208 0 321 -114t113 -335q0 -59 -8.5 -125.5t-28.5 -141t-49 -144.5t-74 -134.5t-100 -112.5t-130.5 -76.5t-162.5 -28.5q-210 0 -323 114t-113 336zM281 432q0 -129 54.5 -201.5 t184.5 -72.5q77 0 140 47.5t100.5 117t63.5 153t36 151t10 116.5q0 275 -239 275q-64 0 -119 -33t-92 -87.5t-65 -118.5t-43.5 -132t-23 -122t-7.5 -93zM420 1272l219 272h207l123 -272h-133l-105 168l-160 -168h-151z" />
<glyph horiz-adv-x="1095" d="M90 294.5q2 68.5 14 145.5l129 736h197l-135 -766q-12 -51 -10.5 -97t15 -80.5t53.5 -54.5t104 -20q123 0 185 67.5t83 182.5l137 768h195l-135 -766q-16 -96 -46.5 -168.5t-84 -133.5t-139 -93.5t-201.5 -32.5q-99 0 -171 23t-111 65t-60 99t-19 125.5zM483 1456 q0 85 59.5 145t145.5 60q85 0 145 -60t60 -145q0 -86 -60 -145.5t-145 -59.5q-86 0 -145.5 59.5t-59.5 145.5zM590 1456q0 -40 28.5 -69t69.5 -29q40 0 69 29t29 69t-29 69t-69 29q-41 0 -69.5 -29t-28.5 -69z" />
<glyph horiz-adv-x="1159" d="M80 432q0 59 8.5 125.5t28.5 141t49 144.5t74.5 134t100.5 112t131 76.5t163 28.5q208 0 321 -114t113 -335q0 -59 -8.5 -125.5t-28.5 -141t-49 -144.5t-74 -134.5t-100 -112.5t-130.5 -76.5t-162.5 -28.5q-210 0 -323 114t-113 336zM281 432q0 -129 54.5 -201.5 t184.5 -72.5q77 0 140 47.5t100.5 117t63.5 153t36 151t10 116.5q0 275 -239 275q-64 0 -119 -33t-92 -87.5t-65 -118.5t-43.5 -132t-23 -122t-7.5 -93zM477 1503h131q-14 -102 97 -102q140 0 157 102h133q-19 -107 -96.5 -169t-200.5 -62q-121 0 -180 63.5t-41 167.5z" />
<glyph horiz-adv-x="823" d="M187.5 1007.5q0.5 48.5 11.5 108.5l94 533h149l-98 -557q-9 -37 -7.5 -70t11 -58t37.5 -40t74 -15q157 0 186 181l100 559h150l-98 -559q-12 -71 -34.5 -124.5t-61 -98.5t-101.5 -69t-147 -24q-74 0 -126.5 18t-82 48t-43.5 74.5t-13.5 93z" />
<glyph horiz-adv-x="1159" d="M80 432q0 59 8.5 125.5t28.5 141t49 144.5t74.5 134t100.5 112t131 76.5t163 28.5q208 0 321 -114t113 -335q0 -59 -8.5 -125.5t-28.5 -141t-49 -144.5t-74 -134.5t-100 -112.5t-130.5 -76.5t-162.5 -28.5q-210 0 -323 114t-113 336zM281 432q0 -129 54.5 -201.5 t184.5 -72.5q77 0 140 47.5t100.5 117t63.5 153t36 151t10 116.5q0 275 -239 275q-64 0 -119 -33t-92 -87.5t-65 -118.5t-43.5 -132t-23 -122t-7.5 -93zM535 1272l247 272h258l-327 -272h-178z" />
<glyph horiz-adv-x="1658" d="M80 432q0 59 8.5 125.5t28.5 141t49 144.5t74.5 134t100.5 112t131 76.5t163 28.5q206 0 317 -111l17 93h694l-33 -175h-497l-58 -327h408l-29 -172h-410l-57 -328h506l-33 -174h-698l10 59q-110 -77 -256 -77q-210 0 -323 114t-113 336zM281 432q0 -129 54.5 -201.5 t184.5 -72.5q77 0 140 47.5t100.5 117t63.5 153t36 151t10 116.5q0 275 -239 275q-64 0 -119 -33t-92 -87.5t-65 -118.5t-43.5 -132t-23 -122t-7.5 -93z" />
<glyph horiz-adv-x="1030" d="M-66 -307l115 645h146l-17 -84q107 98 201 98q61 0 94 -31t39 -85q43 45 100.5 80.5t116.5 35.5q83 0 115 -55t16 -147l-80 -457h-145l78 434q18 104 -49 104q-69 0 -158 -98l-76 -440h-145l77 434q18 104 -51 104q-68 0 -153 -94l-78 -444h-146z" />
<glyph horiz-adv-x="1095" d="M90 294.5q2 68.5 14 145.5l129 736h197l-135 -766q-12 -51 -10.5 -97t15 -80.5t53.5 -54.5t104 -20q123 0 185 67.5t83 182.5l137 768h195l-135 -766q-16 -96 -46.5 -168.5t-84 -133.5t-139 -93.5t-201.5 -32.5q-99 0 -171 23t-111 65t-60 99t-19 125.5zM389 1352 q56 90 97 130t100 40q38 0 76 -25t70 -49.5t54 -24.5q42 0 103 95l88 -64q-54 -88 -95.5 -128t-101.5 -40q-38 0 -75.5 24.5t-69.5 49t-55 24.5q-21 0 -44 -18.5t-59 -75.5z" />
<glyph horiz-adv-x="1069" d="M139 1176h213l103 -955l434 955h229l-588 -1176h-215z" />
<glyph horiz-adv-x="1159" d="M80 432q0 59 8.5 125.5t28.5 141t49 144.5t74.5 134t100.5 112t131 76.5t163 28.5q208 0 321 -114t113 -335q0 -59 -8.5 -125.5t-28.5 -141t-49 -144.5t-74 -134.5t-100 -112.5t-130.5 -76.5t-162.5 -28.5q-210 0 -323 114t-113 336zM281 432q0 -129 54.5 -201.5 t184.5 -72.5q77 0 140 47.5t100.5 117t63.5 153t36 151t10 116.5q0 275 -239 275q-64 0 -119 -33t-92 -87.5t-65 -118.5t-43.5 -132t-23 -122t-7.5 -93z" />
<glyph horiz-adv-x="1134" d="M39 0l207 1176h196l295 -877l154 877h194l-206 -1176h-199l-293 870l-154 -870h-194zM420 1352q56 90 96.5 130t99.5 40q38 0 76.5 -25t70.5 -49.5t54 -24.5q42 0 103 95l88 -64q-54 -88 -95.5 -128t-101.5 -40q-38 0 -76 24.5t-70 49t-55 24.5q-21 0 -43.5 -18.5 t-58.5 -75.5z" />
<glyph horiz-adv-x="854" d="M150 788l151 861h152l202 -621l111 621h149l-151 -861h-152l-204 621l-109 -621h-149z" />
<glyph horiz-adv-x="854" d="M-43 -307l152 860h151l203 -621l110 621h150l-152 -860h-151l-205 620l-109 -620h-149z" />
<glyph horiz-adv-x="1134" d="M39 0l207 1176h196l295 -877l154 877h194l-206 -1176h-199l-293 870l-154 -870h-194zM283 -514l112 176h-73l36 213h166l-26 -227l-176 -219z" />
<glyph horiz-adv-x="1134" d="M39 0l207 1176h196l295 -877l154 877h194l-206 -1176h-199l-293 870l-154 -870h-194zM465 1544h133l104 -168l162 168h150l-217 -272h-207z" />
<glyph horiz-adv-x="1134" d="M39 0l207 1176h196l295 -877l154 877h194l-206 -1176h-199l-293 870l-154 -870h-194zM565 1272l248 272h258l-328 -272h-178z" />
<glyph horiz-adv-x="1134" d="M39 0l207 1176h196l295 -877l154 877h194l-206 -1176h-199l-293 870l-154 -870h-194z" />
<glyph horiz-adv-x="724" d="M6 10l57 115q31 -10 72 -10q106 0 192 72.5t130 191.5q-77 -72 -176 -72q-102 0 -161 69t-59 171q0 132 83 229.5t221 97.5q131 0 201.5 -89t70.5 -218q0 -153 -63.5 -286t-178.5 -214t-256 -81q-37 0 -70.5 6t-48.5 12zM211 553q0 -52 29.5 -89.5t87.5 -37.5 q50 0 94 31.5t65 68.5q2 16 2 47q0 73 -32 122.5t-92 49.5q-70 0 -112 -57t-42 -135z" />
<glyph horiz-adv-x="770" d="M16 553h164l68 -690l307 690h176l-426 -860h-166z" />
<glyph horiz-adv-x="1079" d="M4 -248l82 162q49 -16 117 -16q174 0 317.5 136.5t212.5 352.5q-125 -135 -295 -135q-106 0 -185 55.5t-117 143t-38 192.5q0 83 20 163t61 150t97 123.5t133.5 84t165.5 30.5q102 0 184 -41.5t132 -111.5t76 -157t26 -184q0 -192 -60.5 -372t-164 -315t-251 -216.5 t-312.5 -81.5q-56 0 -106.5 9.5t-72.5 18.5zM309 653q0 -94 49.5 -162.5t145.5 -68.5q87 0 165 62t109 130q4 62 4 93q0 128 -53.5 216.5t-153.5 88.5q-80 0 -142.5 -53t-93 -134t-30.5 -172z" />
<glyph horiz-adv-x="1116" d="M66 14l81 162q49 -16 117 -16q174 0 318 136.5t213 352.5q-125 -135 -295 -135q-106 0 -185 55.5t-117 143t-38 192.5q0 83 20 163t61 150t97 123.5t133.5 84t165.5 30.5q82 0 151.5 -27t118 -74t82.5 -110t50 -134t16 -148q0 -154 -38.5 -301t-110 -270t-167.5 -216.5 t-218.5 -146t-254.5 -52.5q-56 0 -106 9.5t-72 18.5zM371 915q0 -94 49 -162.5t145 -68.5q87 0 165.5 62.5t109.5 130.5q4 62 4 92q0 128 -53.5 216.5t-153.5 88.5q-80 0 -142.5 -53t-93 -134t-30.5 -172z" />
<glyph horiz-adv-x="770" d="M209 1649h164l67 -691l308 691h176l-426 -861h-166z" />
<glyph horiz-adv-x="1452" d="M154 1176h215l16 -887l348 887h164l37 -887l328 887h225l-488 -1176h-194l-39 874l-344 -874h-193z" />
<glyph horiz-adv-x="704" d="M-63 -307l114 645h146l-15 -78q125 92 221 92q84 0 118.5 -54.5t15.5 -152.5l-78 -452h-146l76 430q11 44 0 76t-53 32q-76 0 -174 -88l-80 -450h-145z" />
<glyph horiz-adv-x="1452" d="M154 1176h215l16 -887l348 887h164l37 -887l328 887h225l-488 -1176h-194l-39 874l-344 -874h-193zM678 1272l248 272h258l-328 -272h-178z" />
<glyph horiz-adv-x="1003" d="M8 137l111 142q131 -85 237 -113l64 362l-21 11q-59 34 -97.5 61.5t-75.5 66t-54.5 86.5t-17.5 107q0 143 105.5 238t277.5 96l26 152h137l-30 -166q139 -29 284 -113l-110 -141q-101 59 -203 84l-59 -340l14 -8q48 -28 80.5 -49t70 -52.5t59.5 -63.5t37 -75.5t15 -93.5 q0 -149 -111 -246t-286 -100l-27 -150h-137l29 162q-172 33 -318 143zM365 868q0 -40 23 -70.5t69 -60.5l49 281q-61 -10 -101 -49t-40 -101zM492 156q69 11 112 52.5t43 106.5q0 79 -102 144z" />
<glyph horiz-adv-x="970" d="M150 788l151 861h154l114 -529l312 529h153l-151 -861h-152l103 582l-254 -438h-76l-98 459l-107 -603h-149z" />
<glyph horiz-adv-x="970" d="M-43 -307l152 860h153l115 -528l311 528h154l-152 -860h-151l102 581l-254 -438h-76l-98 459l-107 -602h-149z" />
<glyph horiz-adv-x="1128" d="M29 281l26 149h193l96 313h-174l27 150h194l88 283h150l-88 -283h225l88 283h150l-89 -283h177l-27 -150h-197l-96 -313h176l-26 -149h-197l-86 -281h-147l86 281h-228l-86 -281h-149l86 281h-172zM397 430h226l98 313h-227z" />
<glyph horiz-adv-x="817" d="M-63 -104l18 114h139l70 223h-125l20 117h140l63 203h113l-64 -203h158l63 203h113l-61 -203h123l-21 -117h-139l-68 -223h125l-20 -114h-140l-61 -203h-115l62 203h-158l-61 -203h-113l61 203h-122zM207 10h158l69 223h-158z" />
<glyph horiz-adv-x="817" d="M129 991l18 115h140l69 223h-125l21 117h139l64 203h112l-63 -203h158l63 203h113l-62 -203h123l-20 -117h-140l-67 -223h125l-21 -115h-139l-62 -203h-114l61 203h-157l-62 -203h-113l62 203h-123zM399 1106h158l70 223h-158z" />
<glyph horiz-adv-x="1296" d="M39 0l207 1176h200l166 -734l435 734h202l-207 -1176h-196l143 821l-364 -624h-99l-143 653l-150 -850h-194z" />
<glyph horiz-adv-x="651" d="M150 788l151 861h150l-129 -727h348l-23 -134h-497z" />
<glyph horiz-adv-x="862" d="M12 356l33 185l117 63l100 572h195l-80 -451l215 121l-31 -184l-217 -121l-63 -369h483l-31 -172h-678l74 422z" />
<glyph horiz-adv-x="651" d="M-43 -307l152 860h149l-129 -727h348l-22 -133h-498z" />
<glyph horiz-adv-x="864" d="M39 0l207 1176h194l-176 -1004h484l-31 -172h-678zM561 516l37 213h180l-37 -213h-180z" />
<glyph horiz-adv-x="860" d="M39 0l207 1176h194l-176 -1004h484l-31 -172h-678zM197 -514l112 176h-73l36 213h166l-26 -227l-176 -219z" />
<glyph horiz-adv-x="1452" d="M154 1176h215l16 -887l348 887h164l37 -887l328 887h225l-488 -1176h-194l-39 874l-344 -874h-193zM563 1272l219 272h207l123 -272h-133l-105 168l-159 -168h-152z" />
<glyph horiz-adv-x="862" d="M39 0l207 1176h194l-176 -1004h484l-31 -172h-678zM438 786l113 177h-74l37 213h166l-27 -228l-176 -219z" />
<glyph horiz-adv-x="860" d="M39 0l207 1176h194l-176 -1004h484l-31 -172h-678zM195 1272l247 272h258l-327 -272h-178z" />
<glyph horiz-adv-x="696" d="M-41 -63q0 74 19 145t56 132.5t100.5 99.5t144.5 38q115 0 187.5 -64t72.5 -194q0 -58 -11.5 -115.5t-36.5 -112t-61.5 -96t-91 -67t-119.5 -25.5q-115 0 -187.5 64.5t-72.5 194.5zM102 -66q0 -137 117 -137q44 0 79.5 32t55 80t29.5 96.5t10 90.5q0 137 -117 137 q-43 0 -78.5 -32t-55 -80t-30 -97t-10.5 -90z" />
<glyph horiz-adv-x="860" d="M39 0l207 1176h194l-176 -1004h484l-31 -172h-678z" />
<glyph horiz-adv-x="780" d="M150 788l151 861h150l-70 -398l348 398h191l-371 -406l237 -455h-165l-172 347l-109 -117l-41 -230h-149z" />
<glyph horiz-adv-x="540" d="M47 735l219 125h142l-154 -860h-150l125 702l-129 -71z" />
<glyph horiz-adv-x="538" d="M147 1309l220 125h141l-154 -861h-149l125 703l-129 -72z" />
<glyph horiz-adv-x="690" d="M98 977l338 199h197l-207 -1176h-211l168 948l-213 -123z" />
<glyph horiz-adv-x="1114" d="M29 0l32 186h340l181 1020l-275 -157l-71 149l399 236h196l-219 -1248h344l-32 -186h-895z" />
<glyph horiz-adv-x="706" d="M-55 -100q0 119 33 221.5t97.5 166.5t147.5 64q38 0 74 -16.5t55 -33.5t45 -44l58 330h143l-158 -895h-143l14 84q-112 -99 -205 -99q-71 0 -116 56.5t-45 165.5zM92 -80q0 -56 19.5 -87.5t54.5 -31.5q43 0 83 27t85 76l43 237q-56 88 -125 88q-47 0 -85 -50 t-56.5 -119.5t-18.5 -139.5z" />
<glyph horiz-adv-x="1302" d="M133 1073l186 103h117l-125 -705h-125l105 576l-115 -62zM156 0l686 1176h131l-686 -1176h-131zM629 166q0 141 190 219q-84 63 -84 145t66 134.5t172 52.5q96 0 148.5 -44.5t52.5 -113.5q0 -106 -144 -182q119 -68 119 -176q0 -94 -80 -153.5t-205 -59.5 q-110 0 -172.5 47.5t-62.5 130.5zM754 178q0 -43 31 -66.5t83 -23.5q64 0 109 32.5t45 84.5q0 42 -28 71.5t-76 55.5q-78 -33 -121 -67.5t-43 -86.5zM854 522q0 -58 74 -96q127 52 127 119q0 33 -23 54.5t-63 21.5q-50 0 -82.5 -29.5t-32.5 -69.5z" />
<glyph horiz-adv-x="1304" d="M133 1073l189 103h114l-125 -705h-125l105 576l-113 -62zM156 0l688 1176h131l-688 -1176h-131zM637 82l70 82q80 -64 155 -64q60 0 107 39.5t47 106.5q0 48 -27 77t-78 29q-55 0 -129 -43l-67 43l98 353h385l-16 -107h-283l-37 -156q51 15 86 15q93 0 144 -57.5 t51 -145.5q0 -110 -73.5 -188t-197.5 -78q-130 0 -235 94z" />
<glyph horiz-adv-x="780" d="M-43 -307l152 860h149l-70 -397l349 397h190l-371 -406l238 -454h-166l-172 346l-109 -117l-41 -229h-149z" />
<glyph horiz-adv-x="1308" d="M133 1073l186 103h115l-123 -705h-125l105 576l-115 -62zM154 0l688 1176h133l-688 -1176h-133zM635 0l12 63q9 56 31.5 100.5t63 82.5t69.5 59t86 57q91 57 134.5 96.5t43.5 82.5q0 30 -23 48.5t-67 18.5q-77 0 -174 -61l-49 90q121 80 239 80q94 0 147.5 -47t53.5 -121 q0 -37 -15.5 -73t-37.5 -62.5t-56.5 -54.5t-61.5 -46.5t-64 -41.5q-14 -9 -21 -13q-71 -44 -102.5 -75.5t-40.5 -73.5h319l-18 -109h-469z" />
<glyph horiz-adv-x="1452" d="M154 1176h215l16 -887l348 887h164l37 -887l328 887h225l-488 -1176h-194l-39 874l-344 -874h-193zM604 1292l37 209h176l-37 -209h-176zM905 1292l37 209h174l-37 -209h-174z" />
<glyph horiz-adv-x="1042" d="M39 0l207 1176h194l-98 -558l492 558h253l-514 -555l336 -621h-221l-246 479l-153 -166l-56 -313h-194zM236 -514l112 176h-74l37 213h166l-26 -227l-177 -219z" />
<glyph horiz-adv-x="1267" d="M133 1073l186 103h117l-125 -705h-125l105 576l-115 -62zM156 0l686 1176h135l-688 -1176h-133zM559 143l14 90l377 472h166l-82 -455h94l-16 -107h-98l-25 -143h-125l25 143h-330zM707 250h202l60 334z" />
<glyph horiz-adv-x="1284" d="M133 1073l189 103h114l-125 -705h-125l105 576l-113 -62zM156 0l688 1176h131l-686 -1176h-133zM629 244q0 124 54.5 232.5t153 174.5t218.5 66q32 0 60 -4.5t40 -9.5l12 -5l-45 -96q-26 8 -63 8q-93 0 -169 -59.5t-112 -157.5q65 60 154 60q91 0 141.5 -56t50.5 -143 q0 -106 -70.5 -186t-187.5 -80q-114 0 -175.5 74.5t-61.5 181.5zM752 240q0 -61 29 -103.5t83 -42.5q63 0 99 46.5t36 109.5q0 45 -25.5 75.5t-78.5 30.5q-47 0 -87 -27.5t-56 -58.5v-30z" />
<glyph horiz-adv-x="1042" d="M39 0l207 1176h194l-98 -558l492 558h253l-514 -555l336 -621h-221l-246 479l-153 -166l-56 -313h-194z" />
<glyph horiz-adv-x="1452" d="M154 1176h215l16 -887l348 887h164l37 -887l328 887h225l-488 -1176h-194l-39 874l-344 -874h-193zM596 1544h231l162 -272h-155z" />
<glyph horiz-adv-x="1290" d="M133 1073l186 103h117l-125 -705h-125l105 576l-115 -62zM156 0l686 1176h133l-688 -1176h-131zM623 80l67 80q96 -62 176 -62q65 0 105.5 33t40.5 84q0 57 -48.5 84t-119.5 27h-23l17 106h30q65 0 120.5 32t55.5 81q0 29 -22 46t-61 17q-80 0 -168 -55l-41 88 q122 76 233 76q90 0 138 -42t48 -106q0 -58 -40 -106.5t-113 -77.5q54 -18 87.5 -63t33.5 -105q0 -91 -69 -160t-196 -69q-134 0 -251 92z" />
<glyph horiz-adv-x="387" d="M10 707q92 31 116.5 56t33.5 89l141 797h150l-140 -791q-6 -37 -9.5 -54.5t-11 -44.5t-15 -40t-21.5 -32t-31.5 -29.5t-43 -24.5t-58.5 -24.5t-76 -22.5z" />
<glyph horiz-adv-x="387" d="M-184 -389q92 31 116 56t33 89l141 797h150l-139 -791q-6 -37 -9.5 -54.5t-11 -44.5t-15.5 -40t-22 -32t-31.5 -29.5t-43 -24.5t-58.5 -24.5t-76 -22.5z" />
<glyph horiz-adv-x="489" d="M-152 -115q66 22 102.5 39.5t58 42.5t28.5 47t16 70l193 1092h196l-190 -1084q-17 -95 -29 -135.5t-48.5 -90t-102 -79t-181.5 -61.5zM82 1272l219 272h207l123 -272h-133l-105 168l-160 -168h-151z" />
<glyph horiz-adv-x="489" d="M-152 -115q66 22 102.5 39.5t58 42.5t28.5 47t16 70l193 1092h196l-190 -1084q-17 -95 -29 -135.5t-48.5 -90t-102 -79t-181.5 -61.5z" />
<glyph horiz-adv-x="1046" d="M27 553h163l9 -633l247 633h125l23 -631l231 631h172l-354 -860h-147l-25 626l-246 -626h-147z" />
<glyph horiz-adv-x="491" d="M39 0l207 1176h194l-207 -1176h-194zM88 1352q55 90 96.5 130t100.5 40q38 0 76 -25t70 -49.5t54 -24.5q42 0 103 95l88 -64q-54 -88 -95.5 -128t-101.5 -40q-38 0 -75.5 24.5t-69.5 49t-55 24.5q-21 0 -44 -18.5t-59 -75.5z" />
<glyph horiz-adv-x="387" d="M150 788l151 861h150l-152 -861h-149z" />
<glyph horiz-adv-x="489" d="M-111 -238q0 133 201 238h-49l207 1176h194l-206 -1176h-9q-96 -60 -145 -109.5t-49 -101.5q0 -14 3.5 -24t12.5 -16t16 -10t22 -5.5t21 -2t24 0t20 0.5l-41 -113q-93 0 -137 16q-84 34 -85 127z" />
<glyph horiz-adv-x="1060" d="M86 721q0 199 126 327t329 128h166l-263 -1487h-159l127 719q-149 0 -237.5 80t-88.5 233zM578 -311l262 1487h159l-262 -1487h-159z" />
<glyph horiz-adv-x="487" d="M39 0l207 1176h194l-207 -1176h-194zM115 1323l22 135h504l-25 -135h-501z" />
<glyph horiz-adv-x="565" d="M43.5 -41.5q-3.5 66.5 15.5 164.5l164 932q9 51 15.5 80.5t18.5 65t28 56.5t41.5 45t61 40.5t83.5 33.5t113 33l32 -125q-59 -21 -92.5 -38.5t-54 -41.5t-29 -48.5t-16.5 -70.5l-176 -1005q-21 -94 -4.5 -130.5t108.5 -76.5l-57 -113q-133 38 -190.5 85t-61 113.5z" />
<glyph horiz-adv-x="1048" d="M221 1649h164l8 -633l248 633h125l22 -631l232 631h172l-354 -861h-148l-24 627l-246 -627h-148z" />
<glyph horiz-adv-x="616" d="M147 1034q0 96 25 175.5t66.5 131t93.5 79.5t108 28q48 0 101 -20t78 -35t65 -43l-72 -101q-1 1 -26.5 18t-38 24.5t-37 16.5t-45.5 9q-70 0 -121 -77.5t-51 -190.5q0 -69 25.5 -106.5t72.5 -37.5q18 0 43 8t41.5 16t45 22.5t34.5 17.5l47 -113q-156 -82 -246 -82 q-94 0 -151.5 67t-57.5 193z" />
<glyph horiz-adv-x="387" d="M-43 -307l152 860h149l-152 -860h-149z" />
<glyph horiz-adv-x="565" d="M-63 -115q59 21 92.5 38.5t54 41.5t29 48.5t16.5 70.5l176 1006q21 94 4.5 130t-108.5 76l57 113q134 -38 191 -84.5t60.5 -113t-15.5 -164.5l-164 -932q-10 -59 -18 -92.5t-24 -72.5t-38.5 -61.5t-60.5 -48t-91 -43.5t-129 -37z" />
<glyph horiz-adv-x="1470" d="M92 535q0 132 45 250.5t129 210t214.5 145t289.5 53.5q276 0 438 -152.5t162 -400.5q0 -132 -45 -250.5t-129 -210t-214.5 -145t-289.5 -53.5q-276 0 -438 152.5t-162 400.5zM162 535q0 -217 143 -353.5t391 -136.5q139 0 254.5 47t191 128.5t117 189.5t41.5 231 q0 217 -143 353t-391 136q-139 0 -254.5 -47t-191 -128t-117 -189t-41.5 -231zM401 508q-7 104 19.5 189.5t77 140t117.5 84.5t143 30q141 0 289 -112l-58 -56q-26 20 -41.5 31t-47.5 28.5t-68 26.5t-76 9q-119 0 -196 -104.5t-68 -260.5q6 -101 51.5 -159t120.5 -58 q127 0 266 90l49 -61q-51 -31 -85 -48.5t-99 -37t-127 -19.5q-111 0 -186 76t-81 211z" />
<glyph horiz-adv-x="1685" d="M-174 -281q41 14 69 25.5t52.5 26.5t40 26t29 31.5t21 35.5t15.5 46t12.5 55t12.5 70l155 880h-120l30 160h119l21 119q28 159 98.5 229t183.5 70q130 0 336 -72l12 72h201l-96 -549q162 154 311 154q119 0 194.5 -90.5t75.5 -266.5q0 -198 -51 -370t-152.5 -283 t-232.5 -111q-49 0 -92.5 13.5t-80.5 40t-61 48.5t-55 56l-22 -135h-203l223 1260q-217 51 -272 51q-50 0 -78.5 -32t-36.5 -81l-22 -123h225l-31 -160h-223l-151 -868q-33 -185 -57 -246q-36 -95 -120 -149q-76 -47 -237 -94zM905 307q44 -69 101 -112t118 -43q79 0 142 88 t94 214t31 255q0 101 -36 158t-108 57q-116 0 -260 -158z" />
<glyph horiz-adv-x="733" d="M-131 -307l324 432l-160 428h166l94 -324l207 324h180l-311 -428l172 -432h-166l-105 319l-213 -319h-188z" />
<glyph horiz-adv-x="489" d="M39 0l207 1176h194l-207 -1176h-194zM115 1544h231l162 -272h-156z" />
<glyph horiz-adv-x="1507" d="M115 815q0 68 19 133t55 121t96.5 90.5t136.5 34.5q114 0 188 -63.5t74 -186.5q0 -67 -19 -133t-55.5 -121.5t-97 -90t-135.5 -34.5q-115 0 -188.5 63.5t-73.5 186.5zM258 811q0 -129 123 -129q40 0 72.5 27.5t50.5 69.5t27.5 85.5t9.5 81.5q0 131 -123 131 q-40 0 -72.5 -27.5t-50.5 -70t-27.5 -86t-9.5 -82.5zM303 0l735 1176h152l-735 -1176h-152zM813 231q0 67 19 133t55.5 121.5t97 90t135.5 34.5q115 0 188.5 -63.5t73.5 -186.5q0 -68 -19 -133t-55 -121t-96.5 -90t-136.5 -34q-115 0 -188.5 63t-73.5 186zM958 229 q0 -131 121 -131q40 0 72.5 28t50.5 70t27.5 86t9.5 83q0 129 -121 129q-41 0 -73.5 -27.5t-50.5 -70t-27 -86t-9 -81.5z" />
<glyph horiz-adv-x="1081" d="M-6 289q0 67 23 128.5t76 105.5t126 44q83 0 136 -47t53 -137q0 -49 -14 -97t-40 -89t-70.5 -66t-99.5 -25q-83 0 -136.5 47t-53.5 136zM104 287q0 -90 82 -90q37 0 64 34.5t38 75.5t11 78q0 92 -84 92q-28 0 -50 -20t-35 -50.5t-19.5 -61.5t-6.5 -58zM131 -307l531 860 h114l-530 -860h-115zM500 -139q0 68 23 129.5t75.5 105t124.5 43.5q84 0 137 -46t53 -136q0 -68 -23 -129.5t-76 -105.5t-126 -44q-82 0 -135 47.5t-53 135.5zM608 -139q0 -92 84 -92q37 0 63.5 35t37 76t10.5 77q0 92 -82 92q-37 0 -64 -34.5t-38 -75.5t-11 -78z" />
</font>
</defs>
</svg>
