<?xml version="1.0" standalone="no"?>
<!DOCTYPE svg PUBLIC "-//W3C//DTD SVG 1.1//EN" "http://www.w3.org/Graphics/SVG/1.1/DTD/svg11.dtd" >
<svg xmlns="http://www.w3.org/2000/svg">
<metadata></metadata>
<defs>
<font id="verbcondextrabold" horiz-adv-x="1224" >
<font-face units-per-em="2048" ascent="1638" descent="-410" />
<missing-glyph horiz-adv-x="516" />
<glyph unicode="ff" horiz-adv-x="1540" d="M37 829v246h135v25q0 200 78.5 296.5t245.5 96.5q170 0 360 -90l-113 -240q-111 41 -157 41q-16 0 -27.5 -3t-24 -12t-19.5 -30t-7 -53v-31h207v-246h-207v-829h-336v829h-135zM807 829v246h135v25q0 200 78.5 296.5t245.5 96.5q170 0 360 -90l-113 -240q-111 41 -157 41 q-16 0 -27.5 -3t-24 -12t-19.5 -30t-7 -53v-31h238v-246h-238v-829h-336v829h-135z" />
<glyph unicode="fi" horiz-adv-x="1325" d="M37 829v246h135v25q0 200 79.5 296.5t244.5 96.5q132 0 284 -72l-73 -243q-81 26 -121 26q-16 0 -27.5 -3t-24 -12t-19.5 -30t-7 -53v-31h237v-246h-237v-829h-336v829h-135zM872 1212v275h351v-275h-351zM881 0v1075h336v-1075h-336z" />
<glyph unicode="fl" horiz-adv-x="1329" d="M37 829v246h135v25q0 200 79.5 296.5t244.5 96.5q132 0 284 -72l-73 -243q-81 26 -121 26q-16 0 -27.5 -3t-24 -12t-19.5 -30t-7 -53v-31h237v-246h-237v-829h-336v829h-135zM881 0v1493h338v-1493h-338z" />
<glyph unicode="ffi" horiz-adv-x="2095" d="M37 829v246h135v25q0 200 78.5 296.5t245.5 96.5q170 0 360 -90l-113 -240q-111 41 -157 41q-16 0 -27.5 -3t-24 -12t-19.5 -30t-7 -53v-31h207v-246h-207v-829h-336v829h-135zM807 829v246h135v25q0 200 79.5 296.5t244.5 96.5q132 0 284 -72l-73 -243q-81 26 -121 26 q-16 0 -27.5 -3t-24 -12t-19.5 -30t-7 -53v-31h238v-246h-238v-829h-336v829h-135zM1642 1212v275h351v-275h-351zM1651 0v1075h336v-1075h-336z" />
<glyph unicode="ffl" horiz-adv-x="2099" d="M37 829v246h135v25q0 200 78.5 296.5t245.5 96.5q170 0 360 -90l-113 -240q-111 41 -157 41q-16 0 -27.5 -3t-24 -12t-19.5 -30t-7 -53v-31h207v-246h-207v-829h-336v829h-135zM807 829v246h135v25q0 200 79.5 296.5t244.5 96.5q132 0 284 -72l-73 -243q-81 26 -121 26 q-16 0 -27.5 -3t-24 -12t-19.5 -30t-7 -53v-31h238v-246h-238v-829h-336v829h-135zM1651 0v1493h338v-1493h-338z" />
<glyph unicode="ffk" horiz-adv-x="2682" d="M37 829v246h135v25q0 200 78.5 296.5t245.5 96.5q170 0 360 -90l-113 -240q-111 41 -157 41q-16 0 -27.5 -3t-24 -12t-19.5 -30t-7 -53v-31h207v-246h-207v-829h-336v829h-135zM807 829v246h135v25q0 200 79.5 296.5t244.5 96.5q132 0 284 -72l-73 -243q-81 26 -121 26 q-16 0 -27.5 -3t-24 -12t-19.5 -30t-7 -53v-31h238v-246h-238v-829h-336v829h-135zM1649 0v1493h336v-805l266 387h389l-342 -426l397 -649h-352l-242 403l-116 -147v-256h-336z" />
<glyph unicode="ffj" horiz-adv-x="2093" d="M37 829v246h135v25q0 200 78.5 296.5t245.5 96.5q170 0 360 -90l-113 -240q-111 41 -157 41q-16 0 -27.5 -3t-24 -12t-19.5 -30t-7 -53v-31h207v-246h-207v-829h-336v829h-135zM807 829v246h135v25q0 200 79.5 296.5t244.5 96.5q132 0 284 -72l-73 -243q-81 26 -121 26 q-16 0 -27.5 -3t-24 -12t-19.5 -30t-7 -53v-31h238v-246h-238v-829h-336v829h-135zM1427 -227q57 20 93 35t62.5 33.5t38.5 31.5t19 40.5t8 47t1 64.5v1050h336v-1024q0 -57 -0.5 -83.5t-3 -72t-8.5 -67t-17 -56.5t-27.5 -53t-40.5 -44.5t-57 -42.5t-76 -36t-97.5 -35.5 t-121.5 -31.5zM1642 1212v275h351v-275h-351z" />
<glyph unicode="fft" horiz-adv-x="2381" d="M37 829v246h135v25q0 200 78.5 296.5t245.5 96.5q170 0 360 -90l-113 -240q-111 41 -157 41q-16 0 -27.5 -3t-24 -12t-19.5 -30t-7 -53v-31h207v-246h-207v-829h-336v829h-135zM807 829v246h135v25q0 200 78.5 296.5t245.5 96.5q170 0 360 -90l-113 -240q-111 41 -157 41 q-16 0 -27.5 -3t-24 -12t-19.5 -30t-7 -53v-31h207v-246h-207v-829h-336v829h-135zM1575 829v246h135v271l336 40v-311h270v-246h-270v-460q0 -32 7 -53t20 -30.5t25 -12.5t28 -3q36 0 139 45l117 -247q-199 -91 -348 -91q-165 0 -244.5 97t-79.5 297v458h-135z" />
<glyph unicode="fh" horiz-adv-x="1994" d="M37 829v246h135v25q0 200 79.5 296.5t244.5 96.5q132 0 284 -72l-73 -243q-81 26 -121 26q-16 0 -27.5 -3t-24 -12t-19.5 -30t-7 -53v-31h237v-246h-237v-829h-336v829h-135zM879 0v1493h335v-539q92 65 181.5 104.5t193.5 39.5q155 0 229 -89.5t74 -252.5v-756h-336v678 q0 77 -23 118.5t-83 41.5q-57 0 -122.5 -37.5t-113.5 -87.5v-713h-335z" />
<glyph unicode="fj" horiz-adv-x="1323" d="M37 829v246h135v25q0 200 79.5 296.5t244.5 96.5q132 0 284 -72l-73 -243q-81 26 -121 26q-16 0 -27.5 -3t-24 -12t-19.5 -30t-7 -53v-31h237v-246h-237v-829h-336v829h-135zM657 -227q57 20 93 35t62.5 33.5t38.5 31.5t19 40.5t8 47t1 64.5v1050h335v-1024 q0 -169 -14 -232q-25 -110 -119 -174q-98 -66 -315 -116zM872 1212v275h351v-275h-351z" />
<glyph unicode="fk" horiz-adv-x="1912" d="M37 829v246h135v25q0 200 79.5 296.5t244.5 96.5q132 0 284 -72l-73 -243q-81 26 -121 26q-16 0 -27.5 -3t-24 -12t-19.5 -30t-7 -53v-31h237v-246h-237v-829h-336v829h-135zM879 0v1493h335v-805l267 387h389l-342 -426l397 -649h-352l-242 403l-117 -147v-256h-335z " />
<glyph unicode="ft" horiz-adv-x="1611" d="M37 829v246h135v25q0 200 78.5 296.5t245.5 96.5q170 0 360 -90l-113 -240q-111 41 -157 41q-16 0 -27.5 -3t-24 -12t-19.5 -30t-7 -53v-31h207v-246h-207v-829h-336v829h-135zM805 829v246h135v271l336 40v-311h270v-246h-270v-460q0 -32 7 -53t20 -30.5t25 -12.5t28 -3 q36 0 139 45l117 -247q-199 -91 -348 -91q-165 0 -244.5 97t-79.5 297v458h-135z" />
<glyph unicode="ffh" horiz-adv-x="2764" d="M37 829v246h135v25q0 200 78.5 296.5t245.5 96.5q170 0 360 -90l-113 -240q-111 41 -157 41q-16 0 -27.5 -3t-24 -12t-19.5 -30t-7 -53v-31h207v-246h-207v-829h-336v829h-135zM807 829v246h135v25q0 200 79.5 296.5t244.5 96.5q132 0 284 -72l-73 -243q-81 26 -121 26 q-16 0 -27.5 -3t-24 -12t-19.5 -30t-7 -53v-31h238v-246h-238v-829h-336v829h-135zM1649 0v1493h336v-539q59 41 106 68t121 51.5t147 24.5q155 0 229 -89.5t74 -252.5v-756h-335v678q0 77 -23.5 118.5t-83.5 41.5q-57 0 -121.5 -37.5t-113.5 -87.5v-713h-336z" />
<glyph unicode="ffb" horiz-adv-x="2762" d="M37 829v246h135v25q0 200 78.5 296.5t245.5 96.5q170 0 360 -90l-113 -240q-111 41 -157 41q-16 0 -27.5 -3t-24 -12t-19.5 -30t-7 -53v-31h207v-246h-207v-829h-336v829h-135zM807 829v246h135v25q0 200 79.5 296.5t244.5 96.5q132 0 284 -72l-73 -243q-81 26 -121 26 q-16 0 -27.5 -3t-24 -12t-19.5 -30t-7 -53v-31h238v-246h-238v-829h-336v829h-135zM1649 0v1493h336v-528q77 64 150.5 98.5t172.5 34.5q182 0 287.5 -144t105.5 -417q0 -271 -106 -415.5t-287 -144.5q-100 0 -174.5 34.5t-148.5 99.5v-111h-336zM1985 373q99 -125 215 -125 q159 0 159 291q0 288 -159 288q-116 0 -215 -125v-329z" />
<glyph unicode="fb" horiz-adv-x="1992" d="M37 829v246h135v25q0 200 79.5 296.5t244.5 96.5q132 0 284 -72l-73 -243q-81 26 -121 26q-16 0 -27.5 -3t-24 -12t-19.5 -30t-7 -53v-31h237v-246h-237v-829h-336v829h-135zM879 0v1493h335v-528q76 64 150.5 98.5t173.5 34.5q182 0 287.5 -144t105.5 -417 q0 -271 -106 -415.5t-287 -144.5q-101 0 -176 34.5t-148 99.5v-111h-335zM1214 373q99 -125 216 -125q159 0 159 291q0 288 -159 288q-117 0 -216 -125v-329z" />
<glyph unicode=" "  horiz-adv-x="516" />
<glyph unicode="&#x09;" horiz-adv-x="516" />
<glyph unicode="&#xa0;" horiz-adv-x="516" />
<glyph unicode="!" horiz-adv-x="616" d="M102 1434h410l-104 -959h-203zM137 0v336h338v-336h-338z" />
<glyph unicode="&#x22;" horiz-adv-x="882" d="M74 1434h317l-55 -570h-207zM492 1434h317l-55 -570h-207z" />
<glyph unicode="#" horiz-adv-x="1404" d="M68 309v252h239l43 311h-203v252h240l43 310h256l-43 -310h236l43 310h256l-43 -310h202v-252h-239l-43 -311h202v-252h-239l-43 -309h-256l43 309h-236l-43 -309h-256l43 309h-202zM563 561h236l43 311h-236z" />
<glyph unicode="$" horiz-adv-x="1282" d="M66 176l153 248q95 -58 236.5 -108t234.5 -50q68 0 113 31t45 88q0 35 -20.5 61t-64 46t-89.5 35t-120 40t-132 49q-328 123 -328 412q0 177 113.5 293t324.5 133v186h240v-200q221 -37 406 -137l-156 -252q-86 44 -204.5 80t-199.5 36q-68 0 -110.5 -29t-42.5 -87 q0 -35 20.5 -59.5t62.5 -42.5t87.5 -32t116.5 -36.5t127 -46.5q51 -20 90.5 -40.5t88.5 -57t81.5 -79t55 -106.5t22.5 -139q0 -181 -117 -298t-328 -134v-185h-240v199q-133 22 -257 72.5t-209 109.5z" />
<glyph unicode="%" horiz-adv-x="1945" d="M59 1071q0 180 99 282.5t282 102.5q181 0 281 -102.5t100 -282.5t-99.5 -281.5t-281.5 -101.5q-183 0 -282 101.5t-99 281.5zM305 1071q0 -180 135 -180q66 0 102 45.5t36 134.5t-36 135.5t-102 46.5q-135 0 -135 -182zM502 0l682 1434h258l-684 -1434h-256zM1124 360 q0 180 99 282.5t280 102.5q183 0 283 -102.5t100 -282.5t-100 -281.5t-283 -101.5q-181 0 -280 101.5t-99 281.5zM1368 360q0 -180 135 -180q137 0 137 180q0 90 -35.5 136.5t-101.5 46.5q-65 0 -100 -46.5t-35 -136.5z" />
<glyph unicode="&#x26;" horiz-adv-x="1421" d="M102 365q0 65 21 123t60.5 106.5t81.5 85t100 76.5q-81 87 -124.5 169.5t-43.5 178.5q0 161 116.5 256.5t302.5 95.5q184 0 294 -96.5t110 -237.5q0 -112 -67.5 -204t-186.5 -185l199 -209q55 113 61 232h334q-13 -104 -59.5 -226.5t-124.5 -230.5l282 -299h-383l-98 102 q-183 -125 -414 -125q-201 0 -331 109t-130 279zM434 375q0 -59 42 -103.5t116 -44.5q96 0 196 78l-241 256q-113 -101 -113 -186zM496 1092q0 -76 100 -183q125 93 125 185q0 49 -27.5 87t-81.5 38q-55 0 -85.5 -38.5t-30.5 -88.5z" />
<glyph unicode="'" horiz-adv-x="464" d="M74 1434h317l-55 -570h-207z" />
<glyph unicode="(" horiz-adv-x="681" d="M113 223v979q0 61 0.5 90.5t4.5 77.5t12 71t23 59t38.5 55.5t57 45.5t79.5 43.5t105.5 37t135.5 36.5l82 -186q-55 -21 -89.5 -40.5t-55 -36.5t-29.5 -45t-11.5 -52t-2.5 -72v-1147q0 -48 2.5 -72t11.5 -51.5t29.5 -45t54.5 -36.5t90 -40l-82 -187q-76 17 -135.5 36.5 t-105.5 37t-79.5 43.5t-57 45.5t-38.5 55.5t-23 59t-12 71t-4.5 77.5t-0.5 90.5z" />
<glyph unicode=")" horiz-adv-x="681" d="M31 -106q56 21 90 40t54.5 36.5t29.5 45t11.5 51.5t2.5 72v1147q0 48 -2.5 72t-11.5 52t-29.5 45t-55 36.5t-89.5 40.5l82 186q76 -17 135.5 -36.5t105.5 -37t79.5 -43.5t57 -45.5t38.5 -55.5t23 -59t12 -71t4.5 -77.5t0.5 -90.5v-979q0 -61 -0.5 -90.5t-4.5 -77.5 t-12 -71t-23 -59t-38.5 -55.5t-57 -45.5t-79.5 -43.5t-105.5 -37t-135.5 -36.5z" />
<glyph unicode="*" horiz-adv-x="968" d="M74 944l325 76l-323 80l137 241l229 -245l-94 321h277l-95 -319l228 243l137 -241l-309 -76l309 -80l-139 -242l-221 232l90 -309h-277l94 321l-229 -244z" />
<glyph unicode="+" horiz-adv-x="1273" d="M141 557v252h369v365h252v-365h368v-252h-368v-364h-252v364h-369z" />
<glyph unicode="," horiz-adv-x="550" d="M100 -233l154 233h-150v367h336l21 -412l-273 -299z" />
<glyph unicode="-" horiz-adv-x="845" d="M106 449v268h635v-268h-635z" />
<glyph unicode="." horiz-adv-x="546" d="M104 0v367h338v-367h-338z" />
<glyph unicode="/" horiz-adv-x="935" d="M35 -184l618 1802h250l-618 -1802h-250z" />
<glyph unicode="0" horiz-adv-x="1329" d="M82 717q0 352 150 545.5t434 193.5t433.5 -193t149.5 -546t-150 -546.5t-435 -193.5q-284 0 -433 193t-149 547zM434 717q0 -245 58.5 -357t171.5 -112q231 0 231 469t-229 469q-232 0 -232 -469z" />
<glyph unicode="1" horiz-adv-x="858" d="M-2 1208l383 226h332v-1434h-351v1110l-227 -129z" />
<glyph unicode="2" horiz-adv-x="1206" d="M57 0v152q0 84 24.5 161t61.5 135t95 116.5t110 99t121 86.5q28 19 77.5 52t73 49t57 42.5t48.5 45.5t27 45t12 52q0 56 -42.5 93.5t-121.5 37.5q-142 0 -354 -133l-154 223q41 32 89 61t120.5 63t164 54.5t185.5 20.5q115 0 205 -31.5t146 -87t85 -128t29 -156.5 q0 -78 -26.5 -149.5t-58.5 -118t-97 -102t-102 -80.5t-113 -73q-17 -11 -25 -16q-53 -33 -83 -54.5t-64.5 -51.5t-50 -59t-15.5 -60h637v-289h-1061z" />
<glyph unicode="3" horiz-adv-x="1206" d="M29 164l153 237q245 -131 400 -131q93 0 144.5 41t51.5 117q0 46 -24.5 81t-60.5 54t-86.5 30.5t-92 15t-88.5 3.5h-57v289h67q49 0 94 6.5t92 21.5t75 47t28 77q0 54 -36 84t-107 30q-83 0 -179 -36.5t-174 -83.5l-141 217q257 192 549 192q111 0 196.5 -28t136.5 -77 t77 -111t26 -134q0 -209 -207 -315q117 -39 192 -140t75 -229q0 -68 -16 -130t-53.5 -120.5t-94 -101t-144.5 -68t-198 -25.5q-297 0 -598 187z" />
<glyph unicode="4" horiz-adv-x="1337" d="M37 262v242l588 930h465v-883h198v-289h-198v-262h-351v262h-702zM379 551h360v577z" />
<glyph unicode="5" horiz-adv-x="1202" d="M51 162l152 252q202 -138 354 -138q95 0 156 51.5t61 141.5q0 83 -54.5 140t-160.5 57q-110 0 -250 -78l-194 121l71 725h891v-289h-596l-12 -221q86 22 176 22q120 0 214 -38.5t152 -105.5t87.5 -151t29.5 -180q0 -98 -32 -185.5t-94 -157t-165 -110.5t-233 -41 q-280 0 -553 185z" />
<glyph unicode="6" horiz-adv-x="1245" d="M76 592q-1 195 60 357.5t170 273t261 172t330 61.5q56 0 108 -5.5t77 -10.5l24 -6l-82 -273q-55 13 -125 13q-68 0 -131 -18t-123 -57t-108.5 -110t-75.5 -168q123 105 299 105q189 0 309.5 -124.5t120.5 -322.5q0 -102 -37 -192.5t-104 -159.5t-169 -109.5t-225 -40.5 q-118 0 -215.5 34t-164 92t-112 137.5t-66.5 167.5t-21 184zM428 549q0 -139 65.5 -214t151.5 -75q98 0 146.5 61.5t48.5 143.5q0 87 -52.5 145t-142.5 58q-74 0 -129.5 -35.5t-87.5 -83.5z" />
<glyph unicode="7" horiz-adv-x="1038" d="M45 1145v289h973v-271q-10 -13 -27 -36.5t-66.5 -98t-95 -151.5t-100.5 -189t-94.5 -218.5t-66.5 -232t-27 -237.5h-361q0 145 46 313.5t103.5 295.5t134.5 259t113.5 185t65.5 92h-598z" />
<glyph unicode="8" horiz-adv-x="1290" d="M70 389q0 60 15.5 112.5t41.5 92.5t64 75.5t77.5 61t87.5 49.5q-200 126 -200 322q0 159 128.5 256.5t360.5 97.5q233 0 362.5 -97.5t129.5 -256.5q0 -193 -205 -322q62 -30 110 -64.5t90.5 -81t65.5 -109t23 -136.5q0 -192 -151 -302t-425 -110t-424.5 110t-150.5 302z M424 416q0 -77 61 -126.5t160 -49.5t160 49.5t61 126.5q0 75 -58.5 129.5t-162.5 101.5q-105 -47 -163 -101t-58 -130zM496 1069q0 -105 149 -172q150 67 150 172q0 51 -40 92t-110 41t-109.5 -41t-39.5 -92z" />
<glyph unicode="9" horiz-adv-x="1245" d="M55 954q0 102 37 192.5t104 159.5t169 109.5t225 40.5q118 0 215.5 -34t164 -92t112 -137t66.5 -167t21 -184q1 -195 -60 -357.5t-170 -273.5t-261 -172.5t-330 -61.5q-56 0 -108 5.5t-76 11.5l-25 6l82 272q55 -12 125 -12q68 0 130.5 18t123 57t109 109.5t75.5 167.5 q-123 -106 -299 -106q-188 0 -309 124.5t-121 323.5zM406 967q0 -86 52 -143.5t142 -57.5q72 0 128.5 35.5t88.5 81.5q-1 140 -66 215.5t-149 75.5q-98 0 -147 -62t-49 -145z" />
<glyph unicode=":" horiz-adv-x="579" d="M121 0v367h338v-367h-338zM121 627v366h338v-366h-338z" />
<glyph unicode=";" horiz-adv-x="591" d="M121 -233l153 233h-149v367h336l20 -412l-272 -299zM125 627v366h338v-366h-338z" />
<glyph unicode="&#x3c;" horiz-adv-x="1273" d="M117 569v228l987 415v-282l-645 -248l645 -250v-278z" />
<glyph unicode="=" horiz-adv-x="1273" d="M141 362v252h989v-252h-989zM141 758v250h989v-250h-989z" />
<glyph unicode="&#x3e;" horiz-adv-x="1273" d="M170 154v282l645 248l-645 250v278l987 -415v-228z" />
<glyph unicode="?" horiz-adv-x="1060" d="M51 1292q245 164 490 164q202 0 328 -104t126 -277q0 -78 -26 -143.5t-67 -111t-102 -83.5t-120 -61.5t-133 -44.5l-17 -156h-206l-19 336q191 40 264.5 83t73.5 126q0 64 -40.5 105.5t-121.5 41.5q-126 0 -288 -110zM258 0v336h338v-336h-338z" />
<glyph unicode="@" horiz-adv-x="1835" d="M74 518q0 257 101.5 456.5t298 315t460.5 115.5q195 0 351 -66t257.5 -184.5t155.5 -280t55 -354.5q0 -119 -20 -219t-63 -185t-121.5 -133.5t-186.5 -48.5q-72 0 -127.5 25t-86.5 65.5t-47 79t-22 78.5q-137 -137 -305 -137q-132 0 -216.5 82t-84.5 227q0 147 89 228.5 t229 81.5q44 0 99.5 -9t113 -21.5t73.5 -15.5v78q0 86 -33.5 122t-115.5 36q-135 0 -318 -78l-78 168q253 96 441 96q178 0 260 -83t82 -265v-327q0 -46 1 -76t4.5 -66t10.5 -57.5t19 -41.5t31 -29t44 -9q89 0 152 111t63 331q0 161 -43 297.5t-128 241.5t-222 165t-313 60 q-180 0 -323.5 -60t-235.5 -165.5t-140.5 -245t-48.5 -303.5q0 -222 83.5 -397t241.5 -276t366 -101q63 0 123 9t101 21.5t72.5 25t46.5 21.5l15 9l70 -90q-6 -4 -18 -11.5t-53 -26t-88 -32.5t-122.5 -25.5t-155.5 -11.5q-233 0 -415 114.5t-280.5 316t-98.5 454.5zM717 373 q0 -70 36.5 -105t96.5 -35q114 0 227 113v148q-157 32 -205 32q-79 0 -117 -41t-38 -112z" />
<glyph unicode="A" horiz-adv-x="1378" d="M4 0l492 1434h387l491 -1434h-377l-73 262h-469l-74 -262h-377zM530 535h318l-160 565z" />
<glyph unicode="B" horiz-adv-x="1349" d="M133 0v1434h574q258 0 387 -88.5t129 -260.5q0 -71 -21.5 -131t-54.5 -98t-68.5 -61t-68.5 -29q33 -5 68.5 -20t74.5 -45.5t70 -72t51 -104.5t20 -137q0 -184 -123.5 -285.5t-379.5 -101.5h-658zM483 268h232q233 0 233 176q0 95 -63 139t-193 44h-209v-359zM483 877h193 q201 0 201 147q0 141 -197 141h-197v-288z" />
<glyph unicode="C" horiz-adv-x="1259" d="M72 717q0 184 41.5 326.5t117 232t177 135t225.5 45.5q149 0 285.5 -53t308.5 -152l-160 -258q-128 74 -219 112t-170 38q-120 0 -184 -114t-64 -312t64 -312t184 -114q79 0 171 38t218 111l160 -258q-172 -99 -308.5 -152t-285.5 -53q-124 0 -225.5 45.5t-177 135 t-117 232t-41.5 327.5z" />
<glyph unicode="D" horiz-adv-x="1406" d="M133 0v1434h508q346 0 519 -171t173 -546t-173 -546t-519 -171h-508zM483 295h125q94 0 160 19.5t117 66.5t75.5 130.5t24.5 205.5t-24.5 205t-75 130t-117.5 67t-160 20h-125v-844z" />
<glyph unicode="E" horiz-adv-x="1202" d="M133 0v1434h983v-295h-633v-277h516v-289h-516v-278h645v-295h-995z" />
<glyph unicode="F" horiz-adv-x="1148" d="M133 0v1434h983v-295h-633v-279h500v-289h-500v-571h-350z" />
<glyph unicode="G" horiz-adv-x="1370" d="M72 715q0 185 42 327.5t118.5 232.5t180 135.5t230.5 45.5q158 0 302 -54.5t319 -154.5l-162 -258q-99 53 -153 79t-128.5 50.5t-132.5 24.5q-124 0 -191 -114t-67 -312q0 -204 63 -323.5t191 -119.5q126 0 272 152v133h-292v275h614v-834h-322v133q-170 -156 -354 -156 q-86 0 -164 28t-145 87.5t-116 145.5t-77 208t-28 269z" />
<glyph unicode="H" horiz-adv-x="1421" d="M133 0v1434h350v-537h457v537h350v-1434h-350v608h-457v-608h-350z" />
<glyph unicode="I" horiz-adv-x="614" d="M133 0v1434h350v-1434h-350z" />
<glyph unicode="J" horiz-adv-x="614" d="M-86 -123q57 21 93.5 36t62 34t38 31.5t19 39t7.5 45t1 60.5v1311h348v-1293q0 -168 -14 -232q-25 -108 -120 -171q-100 -67 -320 -117z" />
<glyph unicode="K" horiz-adv-x="1372" d="M133 0v1434h350v-603l453 603h426l-541 -664l559 -770h-415l-357 510l-125 -154v-356h-350z" />
<glyph unicode="L" horiz-adv-x="1122" d="M133 0v1434h350v-1139h613v-295h-963z" />
<glyph unicode="M" horiz-adv-x="1662" d="M133 0v1434h356l342 -795l345 795h356v-1434h-350v829l-258 -589h-185l-256 587v-827h-350z" />
<glyph unicode="N" horiz-adv-x="1452" d="M133 0v1434h354l484 -865v865h350v-1434h-354l-484 860v-860h-350z" />
<glyph unicode="O" horiz-adv-x="1474" d="M70 717q0 160 38 291t116 233t208.5 158.5t304.5 56.5q139 0 251.5 -37.5t189.5 -103.5t128.5 -159.5t75 -202.5t23.5 -236t-23.5 -236t-75 -203t-128.5 -160t-189.5 -103.5t-251.5 -37.5q-140 0 -252.5 37.5t-189 103.5t-128 160t-74.5 203t-23 236zM430 717 q0 -99 16.5 -177.5t52 -138.5t96 -92.5t142.5 -32.5q159 0 233 118t74 323q0 204 -74 322t-233 118q-82 0 -142.5 -32t-96 -92.5t-52 -138.5t-16.5 -177z" />
<glyph unicode="P" horiz-adv-x="1314" d="M133 0v1434h586q553 0 553 -473q0 -235 -136.5 -352t-416.5 -117h-236v-492h-350zM483 778h213q104 0 163 41t59 142q0 102 -59 143t-163 41h-213v-367z" />
<glyph unicode="Q" horiz-adv-x="1474" d="M70 717q0 160 38 291t116 233t208.5 158.5t304.5 56.5q139 0 251.5 -37.5t189.5 -103.5t128.5 -159.5t75 -202.5t23.5 -236q0 -229 -79 -401.5t-241 -260.5l213 -176l-229 -237l-332 335q-140 0 -252.5 37.5t-189 103.5t-128 160t-74.5 203t-23 236zM430 717 q0 -99 16.5 -177.5t52 -138.5t96 -92.5t142.5 -32.5q159 0 233 118t74 323q0 204 -74 322t-233 118q-82 0 -142.5 -32t-96 -92.5t-52 -138.5t-16.5 -177z" />
<glyph unicode="R" horiz-adv-x="1376" d="M133 0v1434h627q282 0 417.5 -110t135.5 -339q0 -175 -79.5 -279.5t-242.5 -144.5l324 -561h-381l-285 539h-166v-539h-350zM483 811h252q107 0 165 38t58 136t-58 137t-163 39h-254v-350z" />
<glyph unicode="S" horiz-adv-x="1245" d="M45 176l154 248q95 -58 236.5 -108t234.5 -50q68 0 112.5 31t44.5 88q0 35 -20.5 61t-64 46t-89.5 35t-120 40t-132 49q-327 122 -327 412q0 191 131 309.5t373 118.5q146 0 302.5 -43.5t276.5 -109.5l-156 -252q-86 44 -204 80t-199 36q-68 0 -111 -29t-43 -87 q0 -35 20.5 -59.5t62.5 -42.5t87.5 -32t116.5 -36.5t127 -46.5q51 -20 90.5 -40.5t88.5 -57t81.5 -79t55 -106.5t22.5 -139q0 -194 -135 -314.5t-375 -120.5q-174 0 -348.5 59.5t-292.5 139.5z" />
<glyph unicode="T" horiz-adv-x="1159" d="M27 1139v295h1106v-295h-377v-1139h-348v1139h-381z" />
<glyph unicode="U" horiz-adv-x="1400" d="M119 596v838h350v-869q0 -66 9.5 -114.5t33.5 -90t71 -63t117 -21.5q56 0 98 15t67.5 39.5t40.5 63t20.5 79t5.5 92.5v869h350v-838q0 -110 -14 -197t-53 -168.5t-103 -135.5t-168 -86t-244 -32t-244 32t-167.5 86t-102.5 135.5t-53 168t-14 197.5z" />
<glyph unicode="V" horiz-adv-x="1372" d="M2 1434h401l283 -1014l285 1014h401l-491 -1434h-387z" />
<glyph unicode="W" horiz-adv-x="1888" d="M23 1434h393l176 -938l215 938h276l213 -938l179 938h393l-371 -1434h-342l-211 897l-211 -897h-340z" />
<glyph unicode="X" horiz-adv-x="1298" d="M-4 0l438 725l-416 709h406l225 -478l228 478h403l-416 -711l439 -723h-416l-238 463l-237 -463h-416z" />
<glyph unicode="Y" horiz-adv-x="1286" d="M-6 1434h395l254 -541l256 541h395l-477 -869v-565h-348v569z" />
<glyph unicode="Z" horiz-adv-x="1241" d="M55 0v268l654 871h-613v295h1067v-267l-653 -872h664v-295h-1119z" />
<glyph unicode="[" horiz-adv-x="735" d="M129 -293v2011h569v-194h-221v-1624h221v-193h-569z" />
<glyph unicode="\" horiz-adv-x="935" d="M31 1618h250l618 -1802h-250z" />
<glyph unicode="]" horiz-adv-x="735" d="M35 -98h221v1624h-221v192h569v-2011h-569v195z" />
<glyph unicode="^" horiz-adv-x="1273" d="M111 655l354 779h344l354 -779h-362l-164 424l-164 -424h-362z" />
<glyph unicode="_" horiz-adv-x="1366" d="M100 -139h1166v-240h-1166v240z" />
<glyph unicode="`" horiz-adv-x="464" d="M-70 1493h365l240 -287h-275z" />
<glyph unicode="a" horiz-adv-x="1171" d="M47 332q0 163 103 254.5t272 91.5q39 0 89.5 -6t84 -12.5t81.5 -16.5t58 -12v65q0 82 -35 115t-125 33q-117 0 -358 -76l-104 229q302 101 530 101q230 0 330 -96.5t100 -323.5v-678h-338v121q-148 -144 -336 -144q-159 0 -255.5 98t-96.5 257zM387 362q0 -126 125 -126 q115 0 223 102v129q-135 33 -200 33q-71 0 -109.5 -36t-38.5 -102z" />
<glyph unicode="b" horiz-adv-x="1222" d="M109 0v1493h335v-528q76 64 151 98.5t173 34.5q183 0 288 -143.5t105 -417.5q0 -271 -105.5 -415.5t-287.5 -144.5q-99 0 -175 34.5t-149 99.5v-111h-335zM444 373q99 -125 215 -125q79 0 120.5 74t41.5 217q0 141 -41.5 214.5t-120.5 73.5q-116 0 -215 -125v-329z" />
<glyph unicode="c" horiz-adv-x="1009" d="M59 539q0 141 38 250.5t103.5 175.5t147 99.5t174.5 33.5q182 0 453 -127l-131 -250q-59 29 -86.5 41.5t-83 30.5t-94.5 18q-86 0 -132.5 -73t-46.5 -199t46.5 -200.5t132.5 -74.5q17 0 36 2.5t41 9.5t38.5 12t42 16t36.5 16t38 17.5t32 14.5l131 -248 q-271 -127 -451 -127q-94 0 -176 34t-147.5 100.5t-103.5 176.5t-38 251z" />
<glyph unicode="d" horiz-adv-x="1222" d="M63 537q0 274 105.5 417.5t288.5 143.5q97 0 171 -34.5t150 -98.5v528h338v-1493h-338v111q-73 -65 -148 -99.5t-173 -34.5q-183 0 -288.5 144.5t-105.5 415.5zM403 539q0 -143 41.5 -217t120.5 -74q111 0 213 125v329q-102 125 -213 125q-79 0 -120.5 -73.5 t-41.5 -214.5z" />
<glyph unicode="e" horiz-adv-x="1128" d="M59 535q0 266 135.5 414.5t380.5 148.5q239 0 365.5 -131.5t126.5 -345.5q0 -40 -4.5 -78.5t-8.5 -56.5l-5 -19h-648q11 -122 56 -182t131 -60q126 0 364 127l119 -209q-266 -166 -518 -166q-106 0 -194 33.5t-156 100.5t-106 175t-38 249zM403 643h336q-3 217 -161 217 q-153 0 -175 -217z" />
<glyph unicode="f" horiz-adv-x="770" d="M37 829v246h135v25q0 200 78.5 296.5t245.5 96.5q170 0 360 -90l-111 -240q-111 41 -157 41q-16 0 -27.5 -3t-25 -12t-20.5 -30t-7 -53v-31h237v-246h-237v-829h-336v829h-135z" />
<glyph unicode="g" horiz-adv-x="1222" d="M63 537q0 274 105.5 417.5t288.5 143.5q97 0 171 -34.5t150 -98.5v110h338v-1061q0 -231 -111 -341.5t-348 -110.5q-121 0 -271.5 24t-279.5 64l64 258q98 -33 220.5 -59.5t193.5 -26.5q111 0 152.5 40.5t41.5 135.5v113q-73 -65 -148 -99.5t-173 -34.5 q-183 0 -288.5 144.5t-105.5 415.5zM403 539q0 -143 41.5 -217t120.5 -74q111 0 213 125v329q-102 125 -213 125q-79 0 -120.5 -73.5t-41.5 -214.5z" />
<glyph unicode="h" d="M109 0v1493h335v-539q92 64 182 104t193 40q155 0 230 -90t75 -252v-756h-338v678q0 77 -23 118.5t-83 41.5q-57 0 -121 -37t-115 -88v-713h-335z" />
<glyph unicode="i" horiz-adv-x="552" d="M102 1212v275h351v-275h-351zM109 0v1075h335v-1075h-335z" />
<glyph unicode="j" horiz-adv-x="552" d="M-113 -227q34 12 59.5 21.5t47.5 21t37 19t27.5 19.5t20 19.5t13.5 23t8.5 24.5t4 30t1.5 33.5v40.5v1050h336v-1024q0 -169 -14 -232q-25 -110 -119 -174q-98 -66 -315 -116zM100 1212v275h351v-275h-351z" />
<glyph unicode="k" horiz-adv-x="1142" d="M109 0v1493h335v-805l267 387h389l-342 -426l399 -649h-354l-242 403l-117 -147v-256h-335z" />
<glyph unicode="l" horiz-adv-x="559" d="M111 0v1493h335v-1493h-335z" />
<glyph unicode="m" horiz-adv-x="1808" d="M109 0v1075h335v-133q165 156 328 156q212 0 279 -180q66 70 158.5 125t195.5 55q153 0 227 -89.5t74 -252.5v-756h-336v678q0 79 -19.5 119.5t-78.5 40.5q-50 0 -103 -37t-94 -88v-713h-336v678q0 78 -20 119t-78 41q-50 0 -103 -37t-94 -88v-713h-335z" />
<glyph unicode="n" d="M109 0v1075h335v-121q92 64 182 104t193 40q155 0 230 -90t75 -252v-756h-338v678q0 77 -23 118.5t-83 41.5q-57 0 -121 -37t-115 -88v-713h-335z" />
<glyph unicode="o" horiz-adv-x="1198" d="M59 539q0 267 140.5 413t400.5 146t400.5 -147t140.5 -414t-140 -413.5t-401 -146.5q-259 0 -400 147t-141 415zM399 539q0 -303 201 -303q199 0 199 301q0 303 -199 303q-201 0 -201 -301z" />
<glyph unicode="p" horiz-adv-x="1222" d="M109 -418v1493h335v-110q76 64 151 98.5t173 34.5q183 0 288 -143.5t105 -417.5q0 -271 -105.5 -415.5t-287.5 -144.5q-99 0 -175 34.5t-149 99.5v-529h-335zM444 373q99 -125 215 -125q79 0 120.5 74t41.5 217q0 141 -41.5 214.5t-120.5 73.5q-116 0 -215 -125v-329z " />
<glyph unicode="q" horiz-adv-x="1222" d="M63 537q0 274 105.5 417.5t288.5 143.5q97 0 171 -34.5t150 -98.5v110h338v-1493h-338v529q-73 -65 -148 -99.5t-173 -34.5q-183 0 -288.5 144.5t-105.5 415.5zM403 539q0 -143 41.5 -217t120.5 -74q111 0 213 125v329q-102 125 -213 125q-79 0 -120.5 -73.5 t-41.5 -214.5z" />
<glyph unicode="r" horiz-adv-x="843" d="M109 0v1075h335v-223q10 25 24 50t45.5 63.5t70.5 64.5q38 26 99 44q47 14 101 14q15 0 31 -1v-315q-68 0 -125.5 -19t-94.5 -49.5t-66 -67.5t-44.5 -74t-25 -67.5t-12.5 -49.5l-3 -19v-426h-335z" />
<glyph unicode="s" horiz-adv-x="1050" d="M43 119l129 235q90 -45 208.5 -83t194.5 -38q48 0 71.5 17.5t23.5 44.5q0 15 -7 27t-23 22.5t-31 18.5t-43.5 16.5t-47 14t-54.5 14.5t-54 14q-55 15 -99 32.5t-92.5 46.5t-81 64.5t-53.5 88.5t-21 116q0 146 106 237t302 91q126 0 260.5 -36t233.5 -83l-129 -219 q-76 32 -175.5 58t-164.5 26q-95 0 -95 -60q0 -21 12.5 -37t42 -28.5t53 -19.5t71.5 -18.5t73 -18.5q55 -15 100.5 -32.5t95.5 -47.5t83.5 -67t55.5 -91t22 -119q0 -151 -111 -239.5t-311 -88.5q-144 0 -296 43t-249 99z" />
<glyph unicode="t" horiz-adv-x="849" d="M43 829v246h133v271l338 40v-311h268v-246h-268v-460q0 -32 7 -53t19.5 -30.5t24 -12.5t27.5 -3q36 0 139 45l117 -247q-199 -91 -346 -91q-167 0 -246.5 97t-79.5 297v458h-133z" />
<glyph unicode="u" d="M102 317v758h336v-678q0 -77 23.5 -118t85.5 -41q56 0 119.5 36t113.5 86v715h336v-1075h-336v121q-199 -144 -372 -144q-156 0 -231 88.5t-75 251.5z" />
<glyph unicode="v" horiz-adv-x="1140" d="M12 1075h359l200 -692l199 692h360l-393 -1075h-331z" />
<glyph unicode="w" horiz-adv-x="1640" d="M27 1075h354l135 -694l174 694h262l172 -690l136 690h356l-307 -1075h-314l-174 641l-176 -641h-313z" />
<glyph unicode="x" horiz-adv-x="1183" d="M-4 0l385 537l-365 538h377l197 -327l196 327h377l-366 -536l389 -539h-389l-207 338l-205 -338h-389z" />
<glyph unicode="y" horiz-adv-x="1144" d="M12 1075h361l196 -663l199 663h360l-540 -1493h-361l176 414z" />
<glyph unicode="z" horiz-adv-x="1105" d="M61 0v231l525 568h-506v276h958v-231l-524 -568h524v-276h-977z" />
<glyph unicode="{" horiz-adv-x="774" d="M18 612v199q114 0 154 57.5t27 167.5l-25 191q-15 125 16 220.5t102.5 154t172.5 87.5t231 29h35v-188h-35q-198 0 -172 -277l19 -153q22 -178 -49 -268t-234 -121q162 -29 233.5 -119t49.5 -266l-19 -154q-26 -276 172 -276h35v-189h-35q-130 0 -231 29t-172.5 87.5 t-102.5 154t-16 221.5l25 190q13 110 -27 166.5t-154 56.5z" />
<glyph unicode="|" horiz-adv-x="503" d="M129 -252v1927h244v-1927h-244z" />
<glyph unicode="}" horiz-adv-x="776" d="M41 -104h35q198 0 172 276l-19 154q-22 178 49 268t234 121q-162 29 -233.5 119t-49.5 266l19 153q26 277 -172 277h-35v188h35q130 0 231 -29t172.5 -87t102.5 -153.5t16 -221.5l-25 -191q-13 -110 27 -166.5t154 -56.5v-199q-114 0 -154 -57.5t-27 -167.5l25 -190 q15 -125 -16 -220.5t-102.5 -154.5t-172.5 -88t-231 -29h-35v189z" />
<glyph unicode="~" horiz-adv-x="1273" d="M53 440q60 157 147 244.5t214 87.5q64 0 129.5 -23.5t111 -52t102 -52t105.5 -23.5q47 0 85.5 26.5t82.5 106.5l191 -78q-127 -332 -363 -332q-59 0 -124 24t-112 52t-106 52t-108 24q-46 0 -83 -27.5t-81 -106.5z" />
<glyph unicode="&#xa1;" horiz-adv-x="616" d="M104 0l105 958h203l102 -958h-410zM141 1098v336h338v-336h-338z" />
<glyph unicode="&#xa2;" horiz-adv-x="1097" d="M84 719q0 133 33.5 237.5t92.5 171t133 103.5t161 45v158h239v-185q115 -29 283 -108l-133 -248l-30 15q-30 14 -36 16.5t-34 15t-40 16.5t-36.5 13t-40.5 12.5t-35.5 6.5t-36.5 3q-85 0 -131.5 -73.5t-46.5 -198.5q0 -126 46.5 -200.5t131.5 -74.5q19 0 39.5 3t45.5 11 t41.5 13t46.5 18t39.5 17.5t42 20t34.5 16.5l133 -248q-151 -75 -283 -111v-184h-239v160q-87 8 -161 45t-133 103.5t-92.5 172t-33.5 238.5z" />
<glyph unicode="&#xa3;" horiz-adv-x="1140" d="M90 0v233q8 3 21.5 9t49.5 29.5t64.5 52t55 77t32.5 103.5h-202v196h163q-12 25 -44 83.5t-49 94.5t-32.5 96t-15.5 120q0 169 109 265.5t305 96.5q83 0 162 -16.5t150 -49t112 -55.5t100 -61l-149 -223q-189 116 -306 116q-65 0 -99 -34.5t-34 -92.5q0 -49 25.5 -102.5 t62.5 -118t54 -119.5h301v-196h-287q-11 -74 -44 -131.5t-69 -83.5h525v-289h-961z" />
<glyph unicode="&#xa5;" horiz-adv-x="1396" d="M49 1434h395l254 -541l256 541h396l-359 -650h213v-194h-319l-13 -25v-90h332v-194h-332v-281h-348v281h-331v194h331v94l-12 21h-319v194h213z" />
<glyph unicode="&#xa6;" horiz-adv-x="514" d="M135 -252v846h244v-846h-244zM135 829v846h244v-846h-244z" />
<glyph unicode="&#xa7;" horiz-adv-x="1132" d="M76 637q0 171 153 246q-118 93 -118 245q0 147 106 237.5t303 90.5q126 0 259.5 -36t232.5 -83l-129 -221q-75 32 -176 58t-166 26q-95 0 -95 -57q0 -21 13 -37t43 -28.5t54.5 -20t72.5 -19t73 -18.5q355 -99 355 -348q0 -168 -156 -248q121 -92 121 -244 q0 -146 -106 -236.5t-304 -90.5q-127 0 -261 35t-232 83l133 222q84 -34 180 -60.5t160 -26.5q92 0 92 58q0 16 -7 29t-21.5 23t-31 18t-42 15.5t-46 12.5t-53 13t-53.5 14q-53 15 -97.5 32t-94 46.5t-83.5 65t-56.5 88.5t-22.5 116zM397 676q0 -22 12.5 -40t31.5 -30.5 t49.5 -24t58.5 -19.5t66 -18q13 -3 20 -5q56 12 79 39t23 55q0 26 -16.5 46t-50 35t-66.5 25.5t-81 23.5q-18 5 -27 7q-56 -12 -77.5 -38.5t-21.5 -55.5z" />
<glyph unicode="&#xa8;" horiz-adv-x="487" d="M-61 1227v250h254v-250h-254zM295 1227v250h254v-250h-254z" />
<glyph unicode="&#xa9;" horiz-adv-x="1613" d="M78 717q0 156 49 290.5t140 234.5t230.5 157t311.5 57t311 -57t230 -157t139.5 -234.5t48.5 -290.5t-48.5 -290.5t-139.5 -234.5t-230 -157.5t-311 -57.5t-311.5 57.5t-230.5 157.5t-140 234.5t-49 290.5zM158 717q0 -141 43 -261.5t124 -210.5t205 -141t277 -51 q154 0 278.5 51t205 141t124 210.5t43.5 261.5t-43.5 261t-124 209.5t-205 140t-278.5 50.5q-203 0 -352 -88t-223 -236t-74 -337zM438 715q0 212 102 329t255 117q72 0 143 -23t109 -45.5t90 -58.5l-62 -71q-39 30 -69 50t-89 41t-118 21q-116 0 -187 -99t-71 -261 q0 -161 71 -259t187 -98q45 0 87 10t81 30.5t57 32t51 34.5l62 -68q-52 -36 -90 -58.5t-109 -45.5t-143 -23q-73 0 -137 29t-113.5 83.5t-78 140t-28.5 192.5z" />
<glyph unicode="&#xaa;" horiz-adv-x="819" d="M63 989q0 96 66 151.5t174 55.5q55 0 193 -27v31q0 44 -21.5 61t-75.5 17q-71 0 -225 -43l-70 151q195 62 340 62q149 0 214 -60.5t65 -201.5v-398h-227v68q-98 -82 -211 -82q-101 0 -161.5 61t-60.5 154zM293 1010q0 -31 18.5 -47.5t50.5 -16.5q73 0 134 53v62 q-93 18 -117 18q-86 0 -86 -69z" />
<glyph unicode="&#xab;" horiz-adv-x="1310" d="M53 449v200l576 430v-313l-314 -217l314 -215v-314zM631 449v200l575 430v-313l-313 -217l313 -215v-314z" />
<glyph unicode="&#xac;" horiz-adv-x="1273" d="M59 557v252h1131v-625h-268v373h-863z" />
<glyph unicode="&#xad;" horiz-adv-x="845" d="M106 449v268h635v-268h-635z" />
<glyph unicode="&#xae;" horiz-adv-x="927" d="M76 1081q0 171 104 282.5t285 111.5t285 -111.5t104 -282.5t-104 -282t-285 -111t-285 111t-104 282zM150 1081q0 -144 81 -234.5t234 -90.5t234 90.5t81 234.5t-81 235t-234 91t-234 -91t-81 -235zM319 889v395h185q61 0 97 -31.5t36 -83.5q0 -40 -28 -69.5t-72 -38.5 l94 -172h-74l-90 168h-80v-168h-68zM387 1118h115q65 0 65 51q0 54 -61 54h-119v-105z" />
<glyph unicode="&#xaf;" horiz-adv-x="598" d="M0 1257v193h598v-193h-598z" />
<glyph unicode="&#xb0;" horiz-adv-x="831" d="M55 1075q0 149 106 255t255 106q150 0 256 -106t106 -255q0 -150 -106 -256t-256 -106q-149 0 -255 106.5t-106 255.5zM246 1075q0 -69 50.5 -119.5t119.5 -50.5t118.5 50.5t49.5 119.5t-49.5 118.5t-118.5 49.5t-119.5 -49.5t-50.5 -118.5z" />
<glyph unicode="&#xb1;" horiz-adv-x="1273" d="M141 0v215h989v-215h-989zM141 600v250h367v270h252v-270h370v-250h-370v-270h-252v270h-367z" />
<glyph unicode="&#xb2;" horiz-adv-x="794" d="M45 788v97q0 61 21.5 115.5t61.5 99.5t80.5 78t94.5 67q21 13 58 35.5t53.5 33.5t37.5 27t29 31t8 31q0 28 -24.5 46.5t-69.5 18.5q-90 0 -225 -82l-102 150q177 127 362 127q145 0 221 -71t76 -179q0 -49 -17.5 -92.5t-41 -73.5t-64 -61t-69 -47.5t-72.5 -40.5 q-63 -37 -96 -63.5t-33 -51.5h395v-195h-684z" />
<glyph unicode="&#xb3;" horiz-adv-x="788" d="M25 893l102 158q151 -80 254 -80q55 0 85 20t30 58q0 31 -21 51t-59 28t-67.5 10.5t-69.5 2.5h-37v196h43q176 0 176 76q0 55 -82 55q-52 0 -113.5 -22.5t-107.5 -50.5l-97 145q163 123 357 123q139 0 208.5 -60.5t69.5 -152.5q0 -124 -127 -186q71 -26 117.5 -86 t46.5 -134q0 -41 -9.5 -78.5t-33.5 -73t-60 -61.5t-92.5 -41.5t-127.5 -15.5q-201 0 -385 119z" />
<glyph unicode="&#xb4;" horiz-adv-x="464" d="M-70 1206l238 287h367l-330 -287h-275z" />
<glyph unicode="&#xb5;" horiz-adv-x="1280" d="M129 -418v1493h336v-678q0 -77 23 -118t85 -41q56 0 120 36t114 86v715h336v-1075h-336v121q-184 -132 -342 -141v-398h-336z" />
<glyph unicode="&#xb6;" horiz-adv-x="1443" d="M51 928q0 131 40.5 229.5t114.5 158t171.5 89t218.5 29.5h278v-1813h-282v801q-88 0 -166.5 18t-147.5 57.5t-119 97.5t-79 143t-29 190zM1008 -381v1815h280v-1815h-280z" />
<glyph unicode="&#xb7;" horiz-adv-x="548" d="M106 399v367h338v-367h-338z" />
<glyph unicode="&#xb8;" horiz-adv-x="358" d="M-23 -336l64 162q49 -25 88 -25q84 0 84 72q0 27 -12.5 60t-25.5 52l-13 19h145q8 -10 20.5 -27.5t33 -68t20.5 -96.5q0 -97 -64.5 -146t-162.5 -49q-106 0 -177 47z" />
<glyph unicode="&#xb9;" horiz-adv-x="647" d="M2 1507l244 142h225v-861h-235v646l-142 -78z" />
<glyph unicode="&#xba;" horiz-adv-x="813" d="M61 1112q0 161 89.5 248.5t257.5 87.5q165 0 254.5 -88.5t89.5 -249.5q0 -160 -89.5 -248t-254.5 -88q-166 0 -256.5 88.5t-90.5 249.5zM289 1112q0 -164 119 -164q116 0 116 162q0 164 -116 164q-119 0 -119 -162z" />
<glyph unicode="&#xbb;" horiz-adv-x="1310" d="M104 20v314l314 217l-314 215v313l576 -428v-200zM680 20v314l313 217l-313 215v313l575 -428v-200z" />
<glyph unicode="&#xbc;" horiz-adv-x="1761" d="M43 1292l244 142h225v-861h-236v646l-141 -78zM365 0l620 1434h252l-621 -1434h-251zM889 150v161l366 549h312v-516h127v-194h-127v-150h-236v150h-442zM1122 344h209v320z" />
<glyph unicode="&#xbd;" horiz-adv-x="1773" d="M43 1292l244 142h225v-861h-236v646l-141 -78zM362 0l621 1434h252l-621 -1434h-252zM999 0v96q0 61 21.5 116t61.5 99.5t81 78t94 67.5q22 14 58 35.5t53.5 32.5t38 27t29 31t8.5 31q0 28 -24.5 47t-69.5 19q-91 0 -226 -82l-102 150q175 126 362 126q145 0 221 -70.5 t76 -178.5q0 -60 -23 -110.5t-68 -90t-81 -62.5t-92 -53q-43 -25 -65 -39.5t-43 -36t-21 -38.5h395v-195h-684z" />
<glyph unicode="&#xbe;" horiz-adv-x="1921" d="M57 678l103 158q151 -80 254 -80q54 0 84 20t30 58q0 31 -21 51t-59 28t-67.5 10.5t-69.5 2.5h-37v196h43q177 0 177 76q0 55 -82 55q-52 0 -114 -22.5t-108 -50.5l-96 145q163 123 357 123q139 0 208.5 -60.5t69.5 -152.5q0 -124 -127 -186q71 -26 117.5 -86t46.5 -134 q0 -52 -16.5 -98t-52.5 -86t-101.5 -63t-153.5 -23q-201 0 -385 119zM535 0l620 1434h252l-621 -1434h-251zM1061 150v161l366 549h312v-516h127v-194h-127v-150h-236v150h-442zM1294 344h209v320z" />
<glyph unicode="&#xbf;" horiz-adv-x="1056" d="M61 358q0 78 26 144t67 111.5t102 83.5t120.5 61.5t133.5 44.5l16 155h207l19 -335q-191 -40 -264.5 -83t-73.5 -126q0 -64 40 -106t121 -42q125 0 289 111l142 -236q-245 -164 -490 -164q-202 0 -328.5 104t-126.5 277zM461 1098v336h338v-336h-338z" />
<glyph unicode="&#xc0;" horiz-adv-x="1378" d="M4 0l492 1434h387l491 -1434h-377l-73 262h-469l-74 -262h-377zM303 1802h365l239 -286h-274zM530 535h318l-160 565z" />
<glyph unicode="&#xc1;" horiz-adv-x="1378" d="M4 0l492 1434h387l491 -1434h-377l-73 262h-469l-74 -262h-377zM473 1516l238 286h366l-329 -286h-275zM530 535h318l-160 565z" />
<glyph unicode="&#xc2;" horiz-adv-x="1378" d="M4 0l492 1434h387l491 -1434h-377l-73 262h-469l-74 -262h-377zM326 1516l206 286h312l207 -286h-228l-135 143l-135 -143h-227zM530 535h318l-160 565z" />
<glyph unicode="&#xc3;" horiz-adv-x="1378" d="M4 0l492 1434h387l491 -1434h-377l-73 262h-469l-74 -262h-377zM311 1595q18 38 27.5 57t27.5 51t34 49t38 36t47.5 27t55.5 8q47 0 103 -24.5t103 -49.5t72 -25q23 0 45.5 19t53.5 76l143 -72q-18 -39 -27.5 -56.5t-28 -50.5t-34 -49.5t-37.5 -35.5t-47.5 -27t-55.5 -8 q-45 0 -101 24.5t-103 49t-72 24.5q-23 0 -46 -18.5t-52 -75.5zM530 535h318l-160 565z" />
<glyph unicode="&#xc4;" horiz-adv-x="1378" d="M4 0l492 1434h387l491 -1434h-377l-73 262h-469l-74 -262h-377zM385 1544v250h254v-250h-254zM530 535h318l-160 565zM741 1544v250h254v-250h-254z" />
<glyph unicode="&#xc5;" horiz-adv-x="1378" d="M4 0l492 1434h387l491 -1434h-377l-73 262h-469l-74 -262h-377zM461 1724q0 97 67 164.5t162 67.5q97 0 164.5 -67.5t67.5 -164.5q0 -95 -67.5 -162t-164.5 -67q-95 0 -162 67t-67 162zM530 535h318l-160 565zM614 1724q0 -31 22.5 -53t53.5 -22q32 0 55 22t23 53 q0 32 -23 55t-55 23q-31 0 -53.5 -23t-22.5 -55z" />
<glyph unicode="&#xc6;" horiz-adv-x="2074" d="M-66 0l895 1434h1160v-295h-633v-277h516v-289h-516v-278h645v-295h-995v262h-498l-154 -262h-420zM674 545h332v563z" />
<glyph unicode="&#xc7;" horiz-adv-x="1259" d="M72 717q0 184 41.5 326.5t117 232t177 135t225.5 45.5q149 0 285.5 -53t308.5 -152l-160 -258q-128 74 -219 112t-170 38q-120 0 -184 -114t-64 -312t64 -312t184 -114q79 0 171 38t218 111l160 -258q-143 -82 -257 -131t-235 -65q60 -81 60 -174q0 -97 -65 -146 t-163 -49q-105 0 -176 47l64 162q49 -25 88 -25q84 0 84 72q0 39 -35 107q-238 14 -379 200.5t-141 536.5z" />
<glyph unicode="&#xc8;" horiz-adv-x="1202" d="M133 0v1434h983v-295h-633v-277h516v-289h-516v-278h645v-295h-995zM244 1802h364l240 -286h-275z" />
<glyph unicode="&#xc9;" horiz-adv-x="1202" d="M133 0v1434h983v-295h-633v-277h516v-289h-516v-278h645v-295h-995zM414 1516l237 286h367l-330 -286h-274z" />
<glyph unicode="&#xca;" horiz-adv-x="1202" d="M133 0v1434h983v-295h-633v-277h516v-289h-516v-278h645v-295h-995zM266 1516l207 286h311l207 -286h-227l-135 143l-135 -143h-228z" />
<glyph unicode="&#xcb;" horiz-adv-x="1202" d="M133 0v1434h983v-295h-633v-277h516v-289h-516v-278h645v-295h-995zM326 1536v250h254v-250h-254zM682 1536v250h254v-250h-254z" />
<glyph unicode="&#xcc;" horiz-adv-x="614" d="M-80 1802h365l239 -286h-274zM133 0v1434h350v-1434h-350z" />
<glyph unicode="&#xcd;" horiz-adv-x="614" d="M90 1516l238 286h366l-329 -286h-275zM133 0v1434h350v-1434h-350z" />
<glyph unicode="&#xce;" horiz-adv-x="614" d="M-57 1516l207 286h311l207 -286h-228l-135 143l-135 -143h-227zM131 0v1434h350v-1434h-350z" />
<glyph unicode="&#xcf;" horiz-adv-x="614" d="M2 1532v250h254v-250h-254zM133 0v1434h350v-1434h-350zM358 1532v250h254v-250h-254z" />
<glyph unicode="&#xd0;" horiz-adv-x="1433" d="M20 584v268h140v582h508q346 0 519 -171t173 -546t-173 -546t-519 -171h-508v584h-140zM510 295h125q94 0 160 19.5t117 66.5t75.5 130.5t24.5 205.5t-24.5 205t-75 130t-117.5 67t-160 20h-125v-287h254v-268h-254v-289z" />
<glyph unicode="&#xd1;" horiz-adv-x="1452" d="M133 0v1434h354l484 -865v865h350v-1434h-354l-484 860v-860h-350zM360 1610q21 45 33 68.5t35 59t43.5 53.5t51.5 32t67 14q47 0 103 -24.5t103 -49t72 -24.5q23 0 45.5 18.5t53.5 75.5l143 -72q-17 -35 -23.5 -48.5t-23 -44t-27.5 -44.5t-29.5 -35t-36 -30.5t-40.5 -17 t-49 -7.5q-45 0 -101 24.5t-103.5 49t-72.5 24.5q-23 0 -46 -18.5t-52 -75.5z" />
<glyph unicode="&#xd2;" horiz-adv-x="1474" d="M70 717q0 160 38 291t116 233t208.5 158.5t304.5 56.5q139 0 251.5 -37.5t189.5 -103.5t128.5 -159.5t75 -202.5t23.5 -236t-23.5 -236t-75 -203t-128.5 -160t-189.5 -103.5t-251.5 -37.5q-140 0 -252.5 37.5t-189 103.5t-128 160t-74.5 203t-23 236zM350 1802h365 l239 -286h-274zM430 717q0 -99 16.5 -177.5t52 -138.5t96 -92.5t142.5 -32.5q159 0 233 118t74 323q0 204 -74 322t-233 118q-82 0 -142.5 -32t-96 -92.5t-52 -138.5t-16.5 -177z" />
<glyph unicode="&#xd3;" horiz-adv-x="1474" d="M70 717q0 160 38 291t116 233t208.5 158.5t304.5 56.5q139 0 251.5 -37.5t189.5 -103.5t128.5 -159.5t75 -202.5t23.5 -236t-23.5 -236t-75 -203t-128.5 -160t-189.5 -103.5t-251.5 -37.5q-140 0 -252.5 37.5t-189 103.5t-128 160t-74.5 203t-23 236zM430 717 q0 -99 16.5 -177.5t52 -138.5t96 -92.5t142.5 -32.5q159 0 233 118t74 323q0 204 -74 322t-233 118q-82 0 -142.5 -32t-96 -92.5t-52 -138.5t-16.5 -177zM520 1516l238 286h366l-329 -286h-275z" />
<glyph unicode="&#xd4;" horiz-adv-x="1474" d="M70 717q0 160 38 291t116 233t208.5 158.5t304.5 56.5q139 0 251.5 -37.5t189.5 -103.5t128.5 -159.5t75 -202.5t23.5 -236t-23.5 -236t-75 -203t-128.5 -160t-189.5 -103.5t-251.5 -37.5q-140 0 -252.5 37.5t-189 103.5t-128 160t-74.5 203t-23 236zM373 1516l207 286 h311l207 -286h-228l-135 143l-135 -143h-227zM430 717q0 -99 16.5 -177.5t52 -138.5t96 -92.5t142.5 -32.5q159 0 233 118t74 323q0 204 -74 322t-233 118q-82 0 -142.5 -32t-96 -92.5t-52 -138.5t-16.5 -177z" />
<glyph unicode="&#xd5;" horiz-adv-x="1474" d="M70 717q0 160 38 291t116 233t208.5 158.5t304.5 56.5q139 0 251.5 -37.5t189.5 -103.5t128.5 -159.5t75 -202.5t23.5 -236t-23.5 -236t-75 -203t-128.5 -160t-189.5 -103.5t-251.5 -37.5q-140 0 -252.5 37.5t-189 103.5t-128 160t-74.5 203t-23 236zM358 1595 q18 38 27.5 57t27.5 51t34 49t38 36t47.5 27t55.5 8q47 0 103 -24.5t103 -49.5t72 -25q23 0 45.5 19t53.5 76l143 -72q-17 -35 -23.5 -48.5t-23 -44t-27.5 -44.5t-29.5 -35t-36 -30.5t-40.5 -17t-49 -7.5q-45 0 -101 24.5t-103.5 49t-72.5 24.5q-23 0 -46 -18.5t-52 -75.5z M430 717q0 -99 16.5 -177.5t52 -138.5t96 -92.5t142.5 -32.5q159 0 233 118t74 323q0 204 -74 322t-233 118q-82 0 -142.5 -32t-96 -92.5t-52 -138.5t-16.5 -177z" />
<glyph unicode="&#xd6;" horiz-adv-x="1474" d="M70 717q0 160 38 291t116 233t208.5 158.5t304.5 56.5q139 0 251.5 -37.5t189.5 -103.5t128.5 -159.5t75 -202.5t23.5 -236t-23.5 -236t-75 -203t-128.5 -160t-189.5 -103.5t-251.5 -37.5q-140 0 -252.5 37.5t-189 103.5t-128 160t-74.5 203t-23 236zM430 717 q0 -99 16.5 -177.5t52 -138.5t96 -92.5t142.5 -32.5q159 0 233 118t74 323q0 204 -74 322t-233 118q-82 0 -142.5 -32t-96 -92.5t-52 -138.5t-16.5 -177zM432 1536v250h254v-250h-254zM788 1536v250h254v-250h-254z" />
<glyph unicode="&#xd7;" horiz-adv-x="1273" d="M195 944l184 184l258 -258l256 254l184 -184l-256 -252l258 -254l-184 -184l-258 256l-256 -254l-184 184l256 252z" />
<glyph unicode="&#xd8;" horiz-adv-x="1472" d="M68 717q0 160 38 291t116 233t208.5 158.5t304.5 56.5q209 0 363 -88l47 66h237l-139 -189q160 -192 160 -528q0 -127 -23.5 -236t-75 -203t-128.5 -160t-189.5 -103.5t-251.5 -37.5q-208 0 -360 84l-45 -61h-238l135 184q-159 191 -159 533zM428 717q0 -129 27 -223 l450 612q-70 51 -170 51q-82 0 -142.5 -32t-96 -92.5t-52 -138.5t-16.5 -177zM567 324q70 -48 168 -48q159 0 233 118t74 323q0 126 -26 217z" />
<glyph unicode="&#xd9;" horiz-adv-x="1396" d="M117 596v838h350v-869q0 -66 9.5 -114.5t33.5 -90t71 -63t117 -21.5q56 0 98 15t67.5 39.5t40.5 63t20.5 79t5.5 92.5v869h350v-838q0 -110 -14 -197t-53 -168.5t-103 -135.5t-168 -86t-244 -32t-244 32t-167.5 86t-102.5 135.5t-53 168t-14 197.5zM311 1802h365 l239 -286h-274z" />
<glyph unicode="&#xda;" horiz-adv-x="1396" d="M117 596v838h350v-869q0 -66 9.5 -114.5t33.5 -90t71 -63t117 -21.5q56 0 98 15t67.5 39.5t40.5 63t20.5 79t5.5 92.5v869h350v-838q0 -110 -14 -197t-53 -168.5t-103 -135.5t-168 -86t-244 -32t-244 32t-167.5 86t-102.5 135.5t-53 168t-14 197.5zM481 1516l238 286h366 l-329 -286h-275z" />
<glyph unicode="&#xdb;" horiz-adv-x="1396" d="M117 596v838h350v-869q0 -66 9.5 -114.5t33.5 -90t71 -63t117 -21.5q56 0 98 15t67.5 39.5t40.5 63t20.5 79t5.5 92.5v869h350v-838q0 -110 -14 -197t-53 -168.5t-103 -135.5t-168 -86t-244 -32t-244 32t-167.5 86t-102.5 135.5t-53 168t-14 197.5zM334 1516l207 286h311 l207 -286h-228l-135 143l-135 -143h-227z" />
<glyph unicode="&#xdc;" horiz-adv-x="1396" d="M117 596v838h350v-869q0 -66 9.5 -114.5t33.5 -90t71 -63t117 -21.5q56 0 98 15t67.5 39.5t40.5 63t20.5 79t5.5 92.5v869h350v-838q0 -110 -14 -197t-53 -168.5t-103 -135.5t-168 -86t-244 -32t-244 32t-167.5 86t-102.5 135.5t-53 168t-14 197.5zM393 1536v250h254 v-250h-254zM750 1536v250h254v-250h-254z" />
<glyph unicode="&#xdd;" horiz-adv-x="1286" d="M-6 1434h395l254 -541l256 541h395l-477 -869v-565h-348v569zM428 1516l238 286h366l-330 -286h-274z" />
<glyph unicode="&#xde;" horiz-adv-x="1316" d="M133 0v1434h350v-222h236q553 0 553 -473q0 -235 -136.5 -352t-416.5 -117h-236v-270h-350zM483 555h168q140 0 203.5 39.5t63.5 144.5q0 106 -63 144.5t-204 38.5h-168v-367z" />
<glyph unicode="&#xdf;" horiz-adv-x="1392" d="M109 0v940q0 100 16 181t55 152.5t100.5 119.5t158 76t223.5 28q146 0 256.5 -35t173 -94t92.5 -127t30 -143q0 -59 -18 -110.5t-36 -73.5l-17 -21q-66 -16 -120 -48t-54 -79q0 -31 28.5 -53t92.5 -56.5t110 -70.5q154 -120 154 -281q0 -142 -102 -235t-273 -93 q-203 0 -447 125l130 236q66 -34 145 -62t129 -28q37 0 57.5 16t20.5 43q0 48 -86 92q-6 3 -39 18t-51.5 25.5t-52 31.5t-53.5 43.5t-42 53.5t-32.5 71.5t-10.5 86.5q0 211 238 320q4 20 4 34q0 66 -53 111t-160 45q-120 0 -176 -71.5t-56 -247.5v-920h-335z" />
<glyph unicode="&#xe0;" horiz-adv-x="1171" d="M47 332q0 163 103 254.5t272 91.5q39 0 89.5 -6t84 -12.5t81.5 -16.5t58 -12v65q0 82 -35 115t-125 33q-117 0 -358 -76l-104 229q302 101 530 101q230 0 330 -96.5t100 -323.5v-678h-338v121q-148 -144 -336 -144q-159 0 -255.5 98t-96.5 257zM207 1493h364l240 -287 h-274zM387 362q0 -126 125 -126q115 0 223 102v129q-135 33 -200 33q-71 0 -109.5 -36t-38.5 -102z" />
<glyph unicode="&#xe1;" horiz-adv-x="1171" d="M47 332q0 163 103 254.5t272 91.5q39 0 89.5 -6t84 -12.5t81.5 -16.5t58 -12v65q0 82 -35 115t-125 33q-117 0 -358 -76l-104 229q302 101 530 101q230 0 330 -96.5t100 -323.5v-678h-338v121q-148 -144 -336 -144q-159 0 -255.5 98t-96.5 257zM377 1206l237 287h367 l-330 -287h-274zM387 362q0 -126 125 -126q115 0 223 102v129q-135 33 -200 33q-71 0 -109.5 -36t-38.5 -102z" />
<glyph unicode="&#xe2;" horiz-adv-x="1171" d="M47 332q0 163 103 254.5t272 91.5q39 0 89.5 -6t84 -12.5t81.5 -16.5t58 -12v65q0 82 -35 115t-125 33q-117 0 -358 -76l-104 229q302 101 530 101q230 0 330 -96.5t100 -323.5v-678h-338v121q-148 -144 -336 -144q-159 0 -255.5 98t-96.5 257zM229 1206l207 287h312 l206 -287h-227l-135 144l-135 -144h-228zM387 362q0 -126 125 -126q115 0 223 102v129q-135 33 -200 33q-71 0 -109.5 -36t-38.5 -102z" />
<glyph unicode="&#xe3;" horiz-adv-x="1171" d="M47 332q0 163 103 254.5t272 91.5q39 0 89.5 -6t84 -12.5t81.5 -16.5t58 -12v65q0 82 -35 115t-125 33q-117 0 -358 -76l-104 229q302 101 530 101q230 0 330 -96.5t100 -323.5v-678h-338v121q-148 -144 -336 -144q-159 0 -255.5 98t-96.5 257zM219 1286q21 45 33 68.5 t35 59t43.5 53.5t51.5 32t67 14q47 0 103 -24.5t103 -49t72 -24.5q23 0 45 18.5t53 75.5l144 -71q-22 -47 -33 -68t-35 -58.5t-44 -55t-51.5 -32t-66.5 -14.5q-45 0 -101 25t-103 49.5t-72 24.5q-23 0 -46 -19t-52 -76zM387 362q0 -126 125 -126q115 0 223 102v129 q-135 33 -200 33q-71 0 -109.5 -36t-38.5 -102z" />
<glyph unicode="&#xe4;" horiz-adv-x="1171" d="M47 332q0 163 103 254.5t272 91.5q39 0 89.5 -6t84 -12.5t81.5 -16.5t58 -12v65q0 82 -35 115t-125 33q-117 0 -358 -76l-104 229q302 101 530 101q230 0 330 -96.5t100 -323.5v-678h-338v121q-148 -144 -336 -144q-159 0 -255.5 98t-96.5 257zM289 1227v250h254v-250 h-254zM387 362q0 -126 125 -126q115 0 223 102v129q-135 33 -200 33q-71 0 -109.5 -36t-38.5 -102zM645 1227v250h254v-250h-254z" />
<glyph unicode="&#xe5;" horiz-adv-x="1171" d="M47 332q0 163 103 254.5t272 91.5q39 0 89.5 -6t84 -12.5t81.5 -16.5t58 -12v65q0 82 -35 115t-125 33q-117 0 -358 -76l-104 229q302 101 530 101q230 0 330 -96.5t100 -323.5v-678h-338v121q-148 -144 -336 -144q-159 0 -255.5 98t-96.5 257zM365 1415q0 97 67 164.5 t162 67.5q97 0 164 -67.5t67 -164.5q0 -95 -67 -162t-164 -67q-95 0 -162 67t-67 162zM387 362q0 -126 125 -126q115 0 223 102v129q-135 33 -200 33q-71 0 -109.5 -36t-38.5 -102zM518 1415q0 -31 22.5 -53.5t53.5 -22.5q32 0 55 22.5t23 53.5q0 32 -23 55t-55 23 q-31 0 -53.5 -23t-22.5 -55z" />
<glyph unicode="&#xe6;" horiz-adv-x="1783" d="M47 332q0 163 103 254.5t272 91.5q95 0 297 -49q1 23 16 88q-5 70 -40.5 98.5t-119.5 28.5q-117 0 -358 -76l-104 229q302 101 530 101q197 0 301 -72q119 72 287 72q239 0 365 -131.5t126 -345.5q0 -40 -4.5 -78.5t-9.5 -56.5l-4 -19h-647q11 -122 55.5 -182t130.5 -60 q127 0 365 127l118 -209q-266 -166 -518 -166q-132 0 -238 52.5t-171 156.5q-179 -209 -400 -209q-159 0 -255.5 98t-96.5 257zM387 362q0 -126 125 -126q113 0 223 104q-12 59 -18 125q-5 1 -39 10t-51 12.5t-44.5 8t-47.5 4.5q-71 0 -109.5 -36t-38.5 -102zM1059 643h336 q-3 217 -162 217q-152 0 -174 -217z" />
<glyph unicode="&#xe7;" horiz-adv-x="1009" d="M59 539q0 141 38 250.5t103.5 175.5t147 99.5t174.5 33.5q182 0 453 -127l-131 -250q-59 29 -86.5 41.5t-83 30.5t-94.5 18q-86 0 -132.5 -73t-46.5 -199t46.5 -200.5t132.5 -74.5q17 0 36 2.5t41 9.5t38.5 12t42 16t36.5 16t38 17.5t32 14.5l131 -248 q-222 -103 -381 -122q57 -77 57 -170q0 -97 -64.5 -146t-162.5 -49q-105 0 -176 47l63 162q49 -25 88 -25q84 0 84 72q0 50 -39 111q-81 13 -149.5 52.5t-122 106t-83.5 168t-30 228.5z" />
<glyph unicode="&#xe8;" horiz-adv-x="1128" d="M59 535q0 266 135.5 414.5t380.5 148.5q239 0 365.5 -131.5t126.5 -345.5q0 -40 -4.5 -78.5t-8.5 -56.5l-5 -19h-648q11 -122 56 -182t131 -60q126 0 364 127l119 -209q-266 -166 -518 -166q-106 0 -194 33.5t-156 100.5t-106 175t-38 249zM197 1493h364l240 -287h-275z M403 643h336q-3 217 -161 217q-153 0 -175 -217z" />
<glyph unicode="&#xe9;" horiz-adv-x="1128" d="M59 535q0 266 135.5 414.5t380.5 148.5q239 0 365.5 -131.5t126.5 -345.5q0 -40 -4.5 -78.5t-8.5 -56.5l-5 -19h-648q11 -122 56 -182t131 -60q126 0 364 127l119 -209q-266 -166 -518 -166q-106 0 -194 33.5t-156 100.5t-106 175t-38 249zM367 1206l237 287h367 l-330 -287h-274zM403 643h336q-3 217 -161 217q-153 0 -175 -217z" />
<glyph unicode="&#xea;" horiz-adv-x="1128" d="M59 535q0 266 135.5 414.5t380.5 148.5q239 0 365.5 -131.5t126.5 -345.5q0 -40 -4.5 -78.5t-8.5 -56.5l-5 -19h-648q11 -122 56 -182t131 -60q126 0 364 127l119 -209q-266 -166 -518 -166q-106 0 -194 33.5t-156 100.5t-106 175t-38 249zM219 1206l207 287h311 l207 -287h-227l-135 144l-136 -144h-227zM403 643h336q-3 217 -161 217q-153 0 -175 -217z" />
<glyph unicode="&#xeb;" horiz-adv-x="1128" d="M59 535q0 266 135.5 414.5t380.5 148.5q239 0 365.5 -131.5t126.5 -345.5q0 -40 -4.5 -78.5t-8.5 -56.5l-5 -19h-648q11 -122 56 -182t131 -60q126 0 364 127l119 -209q-266 -166 -518 -166q-106 0 -194 33.5t-156 100.5t-106 175t-38 249zM279 1227v250h253v-250h-253z M403 643h336q-3 217 -161 217q-153 0 -175 -217zM635 1227v250h254v-250h-254z" />
<glyph unicode="&#xec;" horiz-adv-x="552" d="M-111 1493h365l240 -287h-275zM109 0v1075h335v-1075h-335z" />
<glyph unicode="&#xed;" horiz-adv-x="552" d="M59 1206l238 287h367l-330 -287h-275zM109 0v1075h335v-1075h-335z" />
<glyph unicode="&#xee;" horiz-adv-x="552" d="M-88 1206l207 287h311l207 -287h-227l-136 144l-135 -144h-227zM106 0v1075h336v-1075h-336z" />
<glyph unicode="&#xef;" horiz-adv-x="552" d="M-29 1227v250h254v-250h-254zM109 0v1075h335v-1075h-335zM328 1227v250h254v-250h-254z" />
<glyph unicode="&#xf0;" horiz-adv-x="1226" d="M57 477q0 223 129.5 360.5t327.5 137.5q61 0 115 -14t87.5 -33.5t58.5 -39.5t35 -34l11 -14q-27 97 -92.5 172t-163.5 116l-69 -86h-265l103 127q-37 -1 -73 -5t-53 -8l-18 -3l-34 258q73 23 204 23q86 0 179 -17l61 76h264l-116 -143q202 -99 308.5 -298t106.5 -452 q0 -300 -149.5 -461.5t-417.5 -161.5q-251 0 -395 135t-144 365zM408 475q0 -105 49 -172t161 -67t161.5 66.5t49.5 172.5q0 50 -10.5 91.5t-34 76.5t-65.5 54.5t-101 19.5t-101.5 -20.5t-65.5 -56t-33 -76t-10 -89.5z" />
<glyph unicode="&#xf1;" d="M109 0v1075h335v-121q92 64 182 104t193 40q155 0 230 -90t75 -252v-756h-338v678q0 77 -23 118.5t-83 41.5q-57 0 -121 -37t-115 -88v-713h-335zM238 1286q21 46 32.5 68.5t35 58.5t43.5 54t51 32t67 14q47 0 103 -24.5t103 -49t72 -24.5q23 0 45.5 18.5t53.5 75.5 l143 -71q-17 -35 -23.5 -48.5t-23.5 -44.5t-27.5 -44.5t-29 -35t-36 -30.5t-40.5 -17t-49 -8q-45 0 -101 25t-103.5 49.5t-72.5 24.5q-23 0 -46 -19t-52 -76z" />
<glyph unicode="&#xf2;" horiz-adv-x="1198" d="M59 539q0 267 140.5 413t400.5 146t400.5 -147t140.5 -414t-140 -413.5t-401 -146.5q-259 0 -400 147t-141 415zM213 1493h365l239 -287h-274zM399 539q0 -303 201 -303q199 0 199 301q0 303 -199 303q-201 0 -201 -301z" />
<glyph unicode="&#xf3;" horiz-adv-x="1198" d="M59 539q0 267 140.5 413t400.5 146t400.5 -147t140.5 -414t-140 -413.5t-401 -146.5q-259 0 -400 147t-141 415zM383 1206l238 287h366l-330 -287h-274zM399 539q0 -303 201 -303q199 0 199 301q0 303 -199 303q-201 0 -201 -301z" />
<glyph unicode="&#xf4;" horiz-adv-x="1198" d="M59 539q0 267 140.5 413t400.5 146t400.5 -147t140.5 -414t-140 -413.5t-401 -146.5q-259 0 -400 147t-141 415zM238 1206l206 287h312l207 -287h-228l-135 144l-135 -144h-227zM399 539q0 -303 201 -303q199 0 199 301q0 303 -199 303q-201 0 -201 -301z" />
<glyph unicode="&#xf5;" horiz-adv-x="1198" d="M59 539q0 267 140.5 413t400.5 146t400.5 -147t140.5 -414t-140 -413.5t-401 -146.5q-259 0 -400 147t-141 415zM225 1286q21 45 33 68.5t35 59t43.5 53.5t51.5 32t67 14q47 0 103 -24.5t103 -49t72 -24.5q23 0 45 18.5t53 75.5l144 -71q-22 -47 -33 -68t-35 -58.5 t-44 -55t-51.5 -32t-66.5 -14.5q-45 0 -101 25t-103 49.5t-72 24.5q-23 0 -46 -19t-52 -76zM399 539q0 -303 201 -303q199 0 199 301q0 303 -199 303q-201 0 -201 -301z" />
<glyph unicode="&#xf6;" horiz-adv-x="1198" d="M59 539q0 267 140.5 413t400.5 146t400.5 -147t140.5 -414t-140 -413.5t-401 -146.5q-259 0 -400 147t-141 415zM295 1227v250h254v-250h-254zM399 539q0 -303 201 -303q199 0 199 301q0 303 -199 303q-201 0 -201 -301zM651 1227v250h254v-250h-254z" />
<glyph unicode="&#xf7;" horiz-adv-x="1273" d="M141 557v252h989v-252h-989zM481 303q0 66 45 112t111 46q65 0 110.5 -46t45.5 -112q0 -64 -45.5 -108.5t-110.5 -44.5q-66 0 -111 44t-45 109zM481 1063q0 65 45.5 110.5t110.5 45.5t110.5 -45.5t45.5 -110.5t-45.5 -110.5t-110.5 -45.5t-110.5 45.5t-45.5 110.5z" />
<glyph unicode="&#xf8;" horiz-adv-x="1198" d="M59 539q0 267 140.5 413t400.5 146q165 0 287 -64l33 41h188l-102 -131q135 -147 135 -407q0 -267 -140 -413.5t-401 -146.5q-172 0 -295 66l-33 -43h-192l106 137q-127 145 -127 402zM399 539q0 -65 9 -117l301 385q-48 33 -109 33q-201 0 -201 -301zM483 272 q45 -36 117 -36q199 0 199 301q0 67 -13 127z" />
<glyph unicode="&#xf9;" d="M102 317v758h336v-678q0 -77 23.5 -118t85.5 -41q56 0 119.5 36t113.5 86v715h336v-1075h-336v121q-199 -144 -372 -144q-156 0 -231 88.5t-75 251.5zM221 1493h365l239 -287h-274z" />
<glyph unicode="&#xfa;" d="M102 317v758h336v-678q0 -77 23.5 -118t85.5 -41q56 0 119.5 36t113.5 86v715h336v-1075h-336v121q-199 -144 -372 -144q-156 0 -231 88.5t-75 251.5zM393 1206l238 287h366l-329 -287h-275z" />
<glyph unicode="&#xfb;" d="M102 317v758h336v-678q0 -77 23.5 -118t85.5 -41q56 0 119.5 36t113.5 86v715h336v-1075h-336v121q-199 -144 -372 -144q-156 0 -231 88.5t-75 251.5zM246 1206l207 287h311l207 -287h-228l-135 144l-135 -144h-227z" />
<glyph unicode="&#xfc;" d="M102 317v758h336v-678q0 -77 23.5 -118t85.5 -41q56 0 119.5 36t113.5 86v715h336v-1075h-336v121q-199 -144 -372 -144q-156 0 -231 88.5t-75 251.5zM305 1227v250h254v-250h-254zM662 1227v250h253v-250h-253z" />
<glyph unicode="&#xfd;" horiz-adv-x="1144" d="M12 1075h361l196 -663l199 663h360l-540 -1493h-361l176 414zM354 1206l238 287h366l-329 -287h-275z" />
<glyph unicode="&#xfe;" horiz-adv-x="1222" d="M109 -418v1911h335v-528q76 64 151 98.5t173 34.5q183 0 288 -143.5t105 -417.5q0 -271 -105.5 -415.5t-287.5 -144.5q-99 0 -175 34.5t-149 99.5v-529h-335zM444 373q99 -125 215 -125q79 0 120.5 74t41.5 217q0 141 -41.5 214.5t-120.5 73.5q-116 0 -215 -125v-329z " />
<glyph unicode="&#xff;" horiz-adv-x="1144" d="M12 1075h361l196 -663l199 663h360l-540 -1493h-361l176 414zM266 1227v250h254v-250h-254zM623 1227v250h254v-250h-254z" />
<glyph unicode="&#x100;" horiz-adv-x="1378" d="M4 0l492 1434h387l491 -1434h-377l-73 262h-469l-74 -262h-377zM389 1567v192h598v-192h-598zM530 535h318l-160 565z" />
<glyph unicode="&#x101;" horiz-adv-x="1171" d="M47 332q0 163 103 254.5t272 91.5q39 0 89.5 -6t84 -12.5t81.5 -16.5t58 -12v65q0 82 -35 115t-125 33q-117 0 -358 -76l-104 229q302 101 530 101q230 0 330 -96.5t100 -323.5v-678h-338v121q-148 -144 -336 -144q-159 0 -255.5 98t-96.5 257zM295 1257v193h598v-193 h-598zM387 362q0 -126 125 -126q115 0 223 102v129q-135 33 -200 33q-71 0 -109.5 -36t-38.5 -102z" />
<glyph unicode="&#x102;" horiz-adv-x="1378" d="M4 0l492 1434h387l491 -1434h-377l-73 262h-469l-74 -262h-377zM356 1778h201q0 -40 34.5 -62t96.5 -22t97.5 22t35.5 62h201q0 -123 -88 -192.5t-246 -69.5t-245 69.5t-87 192.5zM530 535h318l-160 565z" />
<glyph unicode="&#x103;" horiz-adv-x="1171" d="M47 332q0 163 103 254.5t272 91.5q39 0 89.5 -6t84 -12.5t81.5 -16.5t58 -12v65q0 82 -35 115t-125 33q-117 0 -358 -76l-104 229q302 101 530 101q230 0 330 -96.5t100 -323.5v-678h-338v121q-148 -144 -336 -144q-159 0 -255.5 98t-96.5 257zM262 1468h201 q0 -40 34.5 -62t96.5 -22t97.5 22t35.5 62h201q0 -123 -88 -192.5t-246 -69.5t-245 69.5t-87 192.5zM387 362q0 -126 125 -126q115 0 223 102v129q-135 33 -200 33q-71 0 -109.5 -36t-38.5 -102z" />
<glyph unicode="&#x104;" horiz-adv-x="1378" d="M4 0l492 1434h387l491 -1434h-6q-34 -21 -58.5 -39t-54 -43.5t-45.5 -53t-16 -54.5q0 -20 8.5 -33.5t19 -20.5t30 -10.5t29 -4t30.5 0t22 0.5l-28 -148q-105 0 -155 10q-164 36 -165 173q0 126 184 223h-172l-73 262h-469l-74 -262h-377zM530 535h318l-160 565z" />
<glyph unicode="&#x105;" horiz-adv-x="1171" d="M47 332q0 163 103 254.5t272 91.5q39 0 89.5 -6t84 -12.5t81.5 -16.5t58 -12v65q0 82 -35 115t-125 33q-117 0 -358 -76l-104 229q302 101 530 101q230 0 330 -96.5t100 -323.5v-678h-6q-34 -21 -58.5 -39t-54 -43.5t-45.5 -53t-16 -54.5q0 -20 8.5 -33.5t19 -20.5 t30 -10.5t29 -4t30.5 0t22 0.5l-28 -148q-105 0 -155 10q-165 34 -165 173q0 126 184 223h-133v121q-148 -144 -336 -144q-159 0 -255.5 98t-96.5 257zM387 362q0 -126 125 -126q115 0 223 102v129q-135 33 -200 33q-71 0 -109.5 -36t-38.5 -102z" />
<glyph unicode="&#x106;" horiz-adv-x="1259" d="M72 717q0 184 41.5 326.5t117 232t177 135t225.5 45.5q149 0 285.5 -53t308.5 -152l-160 -258q-128 74 -219 112t-170 38q-120 0 -184 -114t-64 -312t64 -312t184 -114q79 0 171 38t218 111l160 -258q-172 -99 -308.5 -152t-285.5 -53q-124 0 -225.5 45.5t-177 135 t-117 232t-41.5 327.5zM514 1516l238 286h366l-330 -286h-274z" />
<glyph unicode="&#x107;" horiz-adv-x="1009" d="M59 539q0 141 38 250.5t103.5 175.5t147 99.5t174.5 33.5q182 0 453 -127l-131 -250q-59 29 -86.5 41.5t-83 30.5t-94.5 18q-86 0 -132.5 -73t-46.5 -199t46.5 -200.5t132.5 -74.5q17 0 36 2.5t41 9.5t38.5 12t42 16t36.5 16t38 17.5t32 14.5l131 -248 q-271 -127 -451 -127q-94 0 -176 34t-147.5 100.5t-103.5 176.5t-38 251zM330 1206l237 287h367l-330 -287h-274z" />
<glyph unicode="&#x10a;" horiz-adv-x="1259" d="M72 717q0 184 41.5 326.5t117 232t177 135t225.5 45.5q149 0 285.5 -53t308.5 -152l-160 -258q-128 74 -219 112t-170 38q-120 0 -184 -114t-64 -312t64 -312t184 -114q79 0 171 38t218 111l160 -258q-172 -99 -308.5 -152t-285.5 -53q-124 0 -225.5 45.5t-177 135 t-117 232t-41.5 327.5zM543 1536v250h254v-250h-254z" />
<glyph unicode="&#x10b;" horiz-adv-x="1009" d="M59 539q0 141 38 250.5t103.5 175.5t147 99.5t174.5 33.5q182 0 453 -127l-131 -250q-59 29 -86.5 41.5t-83 30.5t-94.5 18q-86 0 -132.5 -73t-46.5 -199t46.5 -200.5t132.5 -74.5q17 0 36 2.5t41 9.5t38.5 12t42 16t36.5 16t38 17.5t32 14.5l131 -248 q-271 -127 -451 -127q-94 0 -176 34t-147.5 100.5t-103.5 176.5t-38 251zM418 1227v250h254v-250h-254z" />
<glyph unicode="&#x10c;" horiz-adv-x="1259" d="M72 717q0 184 41.5 326.5t117 232t177 135t225.5 45.5q149 0 285.5 -53t308.5 -152l-160 -258q-128 74 -219 112t-170 38q-120 0 -184 -114t-64 -312t64 -312t184 -114q79 0 171 38t218 111l160 -258q-172 -99 -308.5 -152t-285.5 -53q-124 0 -225.5 45.5t-177 135 t-117 232t-41.5 327.5zM311 1802h228l135 -145l135 145h227l-207 -286h-311z" />
<glyph unicode="&#x10d;" horiz-adv-x="1009" d="M59 539q0 141 38 250.5t103.5 175.5t147 99.5t174.5 33.5q182 0 453 -127l-131 -250q-59 29 -86.5 41.5t-83 30.5t-94.5 18q-86 0 -132.5 -73t-46.5 -199t46.5 -200.5t132.5 -74.5q17 0 36 2.5t41 9.5t38.5 12t42 16t36.5 16t38 17.5t32 14.5l131 -248 q-271 -127 -451 -127q-94 0 -176 34t-147.5 100.5t-103.5 176.5t-38 251zM182 1493h228l135 -145l135 145h227l-207 -287h-311z" />
<glyph unicode="&#x10e;" horiz-adv-x="1406" d="M133 0v1434h508q346 0 519 -171t173 -546t-173 -546t-519 -171h-508zM369 1802h227l135 -145l135 145h228l-207 -286h-312zM483 295h125q94 0 160 19.5t117 66.5t75.5 130.5t24.5 205.5t-24.5 205t-75 130t-117.5 67t-160 20h-125v-844z" />
<glyph unicode="&#x10f;" horiz-adv-x="1363" d="M63 537q0 274 105.5 417.5t288.5 143.5q97 0 171 -34.5t150 -98.5v528h338v-1493h-338v111q-73 -65 -148 -99.5t-173 -34.5q-183 0 -288.5 144.5t-105.5 415.5zM403 539q0 -143 41.5 -217t120.5 -74q111 0 213 125v329q-102 125 -213 125q-79 0 -120.5 -73.5 t-41.5 -214.5zM1204 1063l111 168h-107v262h240l14 -291l-196 -219z" />
<glyph unicode="&#x110;" horiz-adv-x="1433" d="M20 584v268h140v582h508q346 0 519 -171t173 -546t-173 -546t-519 -171h-508v584h-140zM510 295h125q94 0 160 19.5t117 66.5t75.5 130.5t24.5 205.5t-24.5 205t-75 130t-117.5 67t-160 20h-125v-287h254v-268h-254v-289z" />
<glyph unicode="&#x111;" horiz-adv-x="1222" d="M63 537q0 274 105.5 417.5t288.5 143.5q97 0 171 -34.5t150 -98.5v213h-321v192h321v123h338v-123h111v-192h-111v-1178h-338v111q-73 -65 -148 -99.5t-173 -34.5q-183 0 -288.5 144.5t-105.5 415.5zM403 539q0 -143 41.5 -217t120.5 -74q111 0 213 125v329 q-102 125 -213 125q-79 0 -120.5 -73.5t-41.5 -214.5z" />
<glyph unicode="&#x112;" horiz-adv-x="1202" d="M133 0v1434h983v-295h-633v-277h516v-289h-516v-278h645v-295h-995zM332 1567v192h598v-192h-598z" />
<glyph unicode="&#x113;" horiz-adv-x="1128" d="M59 535q0 266 135.5 414.5t380.5 148.5q239 0 365.5 -131.5t126.5 -345.5q0 -40 -4.5 -78.5t-8.5 -56.5l-5 -19h-648q11 -122 56 -182t131 -60q126 0 364 127l119 -209q-266 -166 -518 -166q-106 0 -194 33.5t-156 100.5t-106 175t-38 249zM283 1257v193h598v-193h-598z M403 643h336q-3 217 -161 217q-153 0 -175 -217z" />
<glyph unicode="&#x116;" horiz-adv-x="1202" d="M133 0v1434h983v-295h-633v-277h516v-289h-516v-278h645v-295h-995zM504 1536v250h254v-250h-254z" />
<glyph unicode="&#x117;" horiz-adv-x="1128" d="M59 535q0 266 135.5 414.5t380.5 148.5q239 0 365.5 -131.5t126.5 -345.5q0 -40 -4.5 -78.5t-8.5 -56.5l-5 -19h-648q11 -122 56 -182t131 -60q126 0 364 127l119 -209q-266 -166 -518 -166q-106 0 -194 33.5t-156 100.5t-106 175t-38 249zM403 643h336q-3 217 -161 217 q-153 0 -175 -217zM457 1227v250h254v-250h-254z" />
<glyph unicode="&#x118;" horiz-adv-x="1202" d="M133 0v1434h983v-295h-633v-277h516v-289h-516v-278h645v-295h-6q-34 -21 -58.5 -39t-54 -43.5t-45.5 -53t-16 -54.5q0 -20 8.5 -33.5t19 -20.5t30 -10.5t29 -4t30.5 0t22 0.5l-28 -148q-105 0 -155 10q-165 34 -165 173q0 125 185 223h-791z" />
<glyph unicode="&#x119;" horiz-adv-x="1128" d="M59 535q0 266 135.5 414.5t380.5 148.5q239 0 365.5 -131.5t126.5 -345.5q0 -40 -4.5 -78.5t-8.5 -56.5l-5 -19h-648q11 -122 56 -182t131 -60q126 0 364 127l119 -209q-167 -106 -346 -145q-170 -106 -170 -188q0 -20 8.5 -33.5t19 -20.5t30 -10.5t29 -4t30.5 0t22 0.5 l-28 -148q-105 0 -155 10q-164 36 -165 173q0 115 150 205q-197 16 -317 155.5t-120 397.5zM403 643h336q-3 217 -161 217q-153 0 -175 -217z" />
<glyph unicode="&#x11a;" horiz-adv-x="1202" d="M133 0v1434h983v-295h-633v-277h516v-289h-516v-278h645v-295h-995zM266 1796h228l135 -145l135 145h227l-207 -287h-311z" />
<glyph unicode="&#x11b;" horiz-adv-x="1128" d="M59 535q0 266 135.5 414.5t380.5 148.5q239 0 365.5 -131.5t126.5 -345.5q0 -40 -4.5 -78.5t-8.5 -56.5l-5 -19h-648q11 -122 56 -182t131 -60q126 0 364 127l119 -209q-266 -166 -518 -166q-106 0 -194 33.5t-156 100.5t-106 175t-38 249zM219 1493h227l136 -145 l135 145h227l-207 -287h-311zM403 643h336q-3 217 -161 217q-153 0 -175 -217z" />
<glyph unicode="&#x11e;" horiz-adv-x="1370" d="M72 715q0 185 42 327.5t118.5 232.5t180 135.5t230.5 45.5q158 0 302 -54.5t319 -154.5l-162 -258q-99 53 -153 79t-128.5 50.5t-132.5 24.5q-124 0 -191 -114t-67 -312q0 -204 63 -323.5t191 -119.5q126 0 272 152v133h-292v275h614v-834h-322v133q-170 -156 -354 -156 q-86 0 -164 28t-145 87.5t-116 145.5t-77 208t-28 269zM342 1778h201q0 -40 34.5 -62t96.5 -22t97.5 22t35.5 62h201q0 -123 -88 -192.5t-246 -69.5t-245 69.5t-87 192.5z" />
<glyph unicode="&#x11f;" horiz-adv-x="1222" d="M63 537q0 274 105.5 417.5t288.5 143.5q97 0 171 -34.5t150 -98.5v110h338v-1061q0 -231 -111 -341.5t-348 -110.5q-121 0 -271.5 24t-279.5 64l64 258q98 -33 220.5 -59.5t193.5 -26.5q111 0 152.5 40.5t41.5 135.5v113q-73 -65 -148 -99.5t-173 -34.5 q-183 0 -288.5 144.5t-105.5 415.5zM281 1468h200q0 -40 34.5 -62t96.5 -22t97.5 22t35.5 62h201q0 -123 -88 -192.5t-246 -69.5t-244.5 69t-86.5 193zM403 539q0 -143 41.5 -217t120.5 -74q111 0 213 125v329q-102 125 -213 125q-79 0 -120.5 -73.5t-41.5 -214.5z" />
<glyph unicode="&#x120;" horiz-adv-x="1370" d="M72 715q0 185 42 327.5t118.5 232.5t180 135.5t230.5 45.5q158 0 302 -54.5t319 -154.5l-162 -258q-99 53 -153 79t-128.5 50.5t-132.5 24.5q-124 0 -191 -114t-67 -312q0 -204 63 -323.5t191 -119.5q126 0 272 152v133h-292v275h614v-834h-322v133q-170 -156 -354 -156 q-86 0 -164 28t-145 87.5t-116 145.5t-77 208t-28 269zM547 1536v250h254v-250h-254z" />
<glyph unicode="&#x121;" horiz-adv-x="1222" d="M63 537q0 274 105.5 417.5t288.5 143.5q97 0 171 -34.5t150 -98.5v110h338v-1061q0 -231 -111 -341.5t-348 -110.5q-121 0 -271.5 24t-279.5 64l64 258q98 -33 220.5 -59.5t193.5 -26.5q111 0 152.5 40.5t41.5 135.5v113q-73 -65 -148 -99.5t-173 -34.5 q-183 0 -288.5 144.5t-105.5 415.5zM403 539q0 -143 41.5 -217t120.5 -74q111 0 213 125v329q-102 125 -213 125q-79 0 -120.5 -73.5t-41.5 -214.5zM483 1227v250h254v-250h-254z" />
<glyph unicode="&#x122;" horiz-adv-x="1370" d="M72 715q0 185 42 327.5t118.5 232.5t180 135.5t230.5 45.5q158 0 302 -54.5t319 -154.5l-162 -258q-99 53 -153 79t-128.5 50.5t-132.5 24.5q-124 0 -191 -114t-67 -312q0 -204 63 -323.5t191 -119.5q126 0 272 152v133h-292v275h614v-834h-322v133q-170 -156 -354 -156 q-86 0 -164 28t-145 87.5t-116 145.5t-77 208t-28 269zM582 -543l110 168h-106v262h239l15 -290l-197 -220z" />
<glyph unicode="&#x123;" horiz-adv-x="1222" d="M63 537q0 274 105.5 417.5t288.5 143.5q97 0 171 -34.5t150 -98.5v110h338v-1061q0 -231 -111 -341.5t-348 -110.5q-121 0 -271.5 24t-279.5 64l64 258q98 -33 220.5 -59.5t193.5 -26.5q111 0 152.5 40.5t41.5 135.5v113q-73 -65 -148 -99.5t-173 -34.5 q-183 0 -288.5 144.5t-105.5 415.5zM403 539q0 -143 41.5 -217t120.5 -74q111 0 213 125v329q-102 125 -213 125q-79 0 -120.5 -73.5t-41.5 -214.5zM481 1518l197 219l61 -80l-110 -168h106v-262h-239z" />
<glyph unicode="&#x126;" horiz-adv-x="1474" d="M16 1053v192h144v189h350v-189h457v189h350v-189h143v-192h-143v-1053h-350v608h-457v-608h-350v1053h-144zM510 897h457v156h-457v-156z" />
<glyph unicode="&#x127;" d="M-4 1178v192h113v123h335v-123h322v-192h-322v-224q92 64 182 104t193 40q155 0 230 -90t75 -252v-756h-338v678q0 77 -23 118.5t-83 41.5q-57 0 -121 -37t-115 -88v-713h-335v1178h-113z" />
<glyph unicode="&#x128;" horiz-adv-x="614" d="M-70 1595q18 38 27.5 57t27.5 51t34 49t38 36t47.5 27t55.5 8q47 0 103 -24.5t103 -49.5t72 -25q23 0 45.5 19t53.5 76l143 -72q-17 -35 -23.5 -48.5t-23 -44t-27.5 -44.5t-29.5 -35t-36 -30.5t-40.5 -17t-49 -7.5q-45 0 -101 24.5t-103.5 49t-72.5 24.5q-23 0 -46 -18.5 t-52 -75.5zM133 0v1434h350v-1434h-350z" />
<glyph unicode="&#x129;" horiz-adv-x="552" d="M-100 1286q21 46 32.5 68.5t35 58.5t43.5 54t51 32t67 14q47 0 103 -24.5t103.5 -49t72.5 -24.5q23 0 45 18.5t53 75.5l143 -71q-17 -35 -23.5 -48.5t-23.5 -44.5t-27.5 -44.5t-29 -35t-36 -30.5t-40.5 -17t-49 -8q-45 0 -101 25t-103.5 49.5t-72.5 24.5q-23 0 -46 -19 t-52 -76zM109 0v1075h335v-1075h-335z" />
<glyph unicode="&#x12a;" horiz-adv-x="614" d="M8 1567v192h598v-192h-598zM133 0v1434h350v-1434h-350z" />
<glyph unicode="&#x12b;" horiz-adv-x="552" d="M-23 1257v193h598v-193h-598zM109 0v1075h335v-1075h-335z" />
<glyph unicode="&#x12c;" horiz-adv-x="614" d="M-27 1778h201q0 -40 34.5 -62t96.5 -22t97.5 22t35.5 62h201q0 -123 -88 -192.5t-246 -69.5t-245 69.5t-87 192.5zM133 0v1434h350v-1434h-350z" />
<glyph unicode="&#x12d;" horiz-adv-x="552" d="M-57 1468h200q0 -40 34.5 -62t96.5 -22t98 22.5t36 61.5h200q0 -123 -88 -192.5t-246 -69.5t-244.5 69t-86.5 193zM109 0v1075h335v-1075h-335z" />
<glyph unicode="&#x12e;" horiz-adv-x="614" d="M94 -223q0 125 185 223h-146v1434h350v-1434h-6q-34 -21 -58.5 -39t-54 -43.5t-45.5 -53t-16 -54.5q0 -20 8.5 -33.5t19 -20.5t30 -10.5t29 -4t30.5 0t22 0.5l-28 -148q-105 0 -155 10q-165 34 -165 173z" />
<glyph unicode="&#x12f;" horiz-adv-x="552" d="M53 -223q0 125 185 223h-132v1075h336v-1075h-6q-34 -21 -58.5 -39t-54 -43.5t-45.5 -53t-16 -54.5q0 -20 8.5 -33.5t19 -20.5t30 -10.5t29 -4t30.5 0t22 0.5l-28 -148q-105 0 -155 10q-165 34 -165 173zM100 1212v275h351v-275h-351z" />
<glyph unicode="&#x130;" horiz-adv-x="614" d="M133 0v1434h350v-1434h-350zM180 1536v250h254v-250h-254z" />
<glyph unicode="&#x131;" horiz-adv-x="552" d="M109 0v1075h335v-1075h-335z" />
<glyph unicode="&#x132;" horiz-adv-x="1228" d="M133 0v1434h350v-1434h-350zM526 -123q38 14 66 25.5t51 22t39 22.5t27.5 20.5t18.5 24t11.5 25t6 30.5t2 34.5t0.5 41.5v1311h348v-1293q0 -63 -0.5 -92t-4.5 -78t-12 -72t-23 -59.5t-38 -55.5t-56.5 -45.5t-79.5 -44t-105.5 -37t-135.5 -36.5z" />
<glyph unicode="&#x133;" horiz-adv-x="1103" d="M102 1212v275h351v-275h-351zM109 0v1075h335v-1075h-335zM440 -227q34 12 59.5 21.5t47.5 21t37 19t27.5 19.5t20 19.5t13.5 23t8.5 24.5t4 30t1.5 33.5v40.5v1050h336v-1024q0 -169 -14 -232q-25 -110 -119 -174q-98 -66 -315 -116zM653 1212v275h351v-275h-351z" />
<glyph unicode="&#x134;" horiz-adv-x="614" d="M-86 -123q57 21 93.5 36t62 34t38 31.5t19 39t7.5 45t1 60.5v1311h348v-1293q0 -168 -14 -232q-25 -108 -120 -171q-100 -67 -320 -117zM-55 1516l207 286h311l207 -286h-228l-135 143l-135 -143h-227z" />
<glyph unicode="&#x135;" horiz-adv-x="552" d="M-113 -227q34 12 59.5 21.5t47.5 21t37 19t27.5 19.5t20 19.5t13.5 23t8.5 24.5t4 30t1.5 33.5v40.5v1050h336v-1024q0 -169 -14 -232q-25 -110 -119 -174q-98 -66 -315 -116zM-88 1206l207 287h311l207 -287h-227l-136 144l-135 -144h-227z" />
<glyph unicode="&#x136;" horiz-adv-x="1372" d="M133 0v1434h350v-603l453 603h426l-541 -664l559 -770h-415l-357 510l-125 -154v-356h-350zM555 -543l111 168h-107v262h240l14 -290l-197 -220z" />
<glyph unicode="&#x137;" horiz-adv-x="1142" d="M109 0v1493h335v-805l267 387h389l-342 -426l399 -649h-354l-242 403l-117 -147v-256h-335zM459 -543l110 168h-106v262h239l15 -290l-197 -220z" />
<glyph unicode="&#x138;" horiz-adv-x="1142" d="M109 0v1075h335v-387l267 387h389l-342 -426l399 -649h-354l-242 403l-117 -147v-256h-335z" />
<glyph unicode="&#x139;" horiz-adv-x="1122" d="M90 1516l238 286h366l-329 -286h-275zM133 0v1434h350v-1139h613v-295h-963z" />
<glyph unicode="&#x13a;" horiz-adv-x="559" d="M63 1579l238 287h367l-330 -287h-275zM113 0v1493h336v-1493h-336z" />
<glyph unicode="&#x13b;" horiz-adv-x="1122" d="M133 0v1434h350v-1139h613v-295h-963zM479 -543l111 168h-107v262h240l14 -290l-196 -220z" />
<glyph unicode="&#x13c;" horiz-adv-x="559" d="M111 0v1493h335v-1493h-335zM160 -543l110 168h-106v262h239l15 -290l-197 -220z" />
<glyph unicode="&#x13d;" horiz-adv-x="1122" d="M133 0v1434h350v-1139h613v-295h-963zM571 1004l111 167h-107v263h240l14 -291l-196 -219z" />
<glyph unicode="&#x13e;" horiz-adv-x="696" d="M111 0v1493h335v-1493h-335zM535 1063l110 168h-106v262h239l15 -291l-197 -219z" />
<glyph unicode="&#x13f;" horiz-adv-x="1124" d="M133 0v1434h350v-1139h613v-295h-963zM748 631v250h253v-250h-253z" />
<glyph unicode="&#x140;" horiz-adv-x="782" d="M111 0v1493h335v-1493h-335zM539 631v250h254v-250h-254z" />
<glyph unicode="&#x141;" horiz-adv-x="1148" d="M31 385v305l127 74v670h350v-465l248 145v-307l-248 -145v-367h612v-295h-962v459z" />
<glyph unicode="&#x142;" horiz-adv-x="645" d="M35 428v305l112 66v694h336v-498l115 68v-307l-115 -68v-688h-336v494z" />
<glyph unicode="&#x143;" horiz-adv-x="1452" d="M133 0v1434h354l484 -865v865h350v-1434h-354l-484 860v-860h-350zM520 1516l238 286h366l-329 -286h-275z" />
<glyph unicode="&#x144;" d="M109 0v1075h335v-121q92 64 182 104t193 40q155 0 230 -90t75 -252v-756h-338v678q0 77 -23 118.5t-83 41.5q-57 0 -121 -37t-115 -88v-713h-335zM399 1206l238 287h367l-330 -287h-275z" />
<glyph unicode="&#x145;" horiz-adv-x="1452" d="M133 0v1434h354l484 -865v865h350v-1434h-354l-484 860v-860h-350zM618 -543l111 168h-106v262h239l15 -290l-197 -220z" />
<glyph unicode="&#x146;" d="M109 0v1075h335v-121q92 64 182 104t193 40q155 0 230 -90t75 -252v-756h-338v678q0 77 -23 118.5t-83 41.5q-57 0 -121 -37t-115 -88v-713h-335zM498 -543l110 168h-106v262h239l15 -290l-197 -220z" />
<glyph unicode="&#x147;" horiz-adv-x="1452" d="M133 0v1434h354l484 -865v865h350v-1434h-354l-484 860v-860h-350zM375 1802h227l135 -145l135 145h228l-207 -286h-311z" />
<glyph unicode="&#x148;" d="M109 0v1075h335v-121q92 64 182 104t193 40q155 0 230 -90t75 -252v-756h-338v678q0 77 -23 118.5t-83 41.5q-57 0 -121 -37t-115 -88v-713h-335zM250 1493h227l135 -145l136 145h227l-207 -287h-311z" />
<glyph unicode="&#x149;" d="M104 1223l111 168h-106v262h239l14 -291l-196 -219zM109 0v1075h335v-121q92 64 182 104t193 40q155 0 230 -90t75 -252v-756h-338v678q0 77 -23 118.5t-83 41.5q-57 0 -121 -37t-115 -88v-713h-335z" />
<glyph unicode="&#x14a;" horiz-adv-x="1452" d="M133 0v1434h354l484 -865v865h350v-1348q0 -53 -2 -89t-9.5 -76.5t-21 -68t-36.5 -57.5t-56.5 -51.5t-80.5 -44t-109 -41.5t-142 -37l-112 256q108 38 153 64.5t58 64.5l-480 854v-860h-350z" />
<glyph unicode="&#x14b;" d="M109 0v1075h335v-121q92 64 182 104t193 40q155 0 230 -90t75 -252v-707q0 -168 -14 -232q-25 -108 -119 -172q-98 -65 -317 -116l-107 244q43 16 72.5 27.5t54 25.5t39 22.5t26 25.5t16 27t7.5 34t3.5 39.5t0.5 50.5v653q0 77 -23 118.5t-83 41.5q-57 0 -121 -37 t-115 -88v-713h-335z" />
<glyph unicode="&#x14c;" horiz-adv-x="1474" d="M70 717q0 160 38 291t116 233t208.5 158.5t304.5 56.5q139 0 251.5 -37.5t189.5 -103.5t128.5 -159.5t75 -202.5t23.5 -236t-23.5 -236t-75 -203t-128.5 -160t-189.5 -103.5t-251.5 -37.5q-140 0 -252.5 37.5t-189 103.5t-128 160t-74.5 203t-23 236zM430 717 q0 -99 16.5 -177.5t52 -138.5t96 -92.5t142.5 -32.5q159 0 233 118t74 323q0 204 -74 322t-233 118q-82 0 -142.5 -32t-96 -92.5t-52 -138.5t-16.5 -177zM438 1567v192h598v-192h-598z" />
<glyph unicode="&#x14d;" horiz-adv-x="1198" d="M59 539q0 267 140.5 413t400.5 146t400.5 -147t140.5 -414t-140 -413.5t-401 -146.5q-259 0 -400 147t-141 415zM301 1257v193h598v-193h-598zM399 539q0 -303 201 -303q199 0 199 301q0 303 -199 303q-201 0 -201 -301z" />
<glyph unicode="&#x14e;" horiz-adv-x="1474" d="M70 717q0 160 38 291t116 233t208.5 158.5t304.5 56.5q139 0 251.5 -37.5t189.5 -103.5t128.5 -159.5t75 -202.5t23.5 -236t-23.5 -236t-75 -203t-128.5 -160t-189.5 -103.5t-251.5 -37.5q-140 0 -252.5 37.5t-189 103.5t-128 160t-74.5 203t-23 236zM406 1778h200 q0 -40 34.5 -62t96.5 -22t97.5 22t35.5 62h201q0 -123 -88 -192.5t-246 -69.5t-244.5 69t-86.5 193zM430 717q0 -99 16.5 -177.5t52 -138.5t96 -92.5t142.5 -32.5q159 0 233 118t74 323q0 204 -74 322t-233 118q-82 0 -142.5 -32t-96 -92.5t-52 -138.5t-16.5 -177z" />
<glyph unicode="&#x14f;" horiz-adv-x="1198" d="M59 539q0 267 140.5 413t400.5 146t400.5 -147t140.5 -414t-140 -413.5t-401 -146.5q-259 0 -400 147t-141 415zM266 1468h201q0 -40 34.5 -62t96.5 -22t97.5 22t35.5 62h201q0 -123 -88 -192.5t-246 -69.5t-245 69.5t-87 192.5zM399 539q0 -303 201 -303q199 0 199 301 q0 303 -199 303q-201 0 -201 -301z" />
<glyph unicode="&#x150;" horiz-adv-x="1474" d="M70 717q0 160 38 291t116 233t208.5 158.5t304.5 56.5q139 0 251.5 -37.5t189.5 -103.5t128.5 -159.5t75 -202.5t23.5 -236t-23.5 -236t-75 -203t-128.5 -160t-189.5 -103.5t-251.5 -37.5q-140 0 -252.5 37.5t-189 103.5t-128 160t-74.5 203t-23 236zM426 1516l156 286 h290l-247 -286h-199zM430 717q0 -99 16.5 -177.5t52 -138.5t96 -92.5t142.5 -32.5q159 0 233 118t74 323q0 204 -74 322t-233 118q-82 0 -142.5 -32t-96 -92.5t-52 -138.5t-16.5 -177zM786 1516l156 286h289l-248 -286h-197z" />
<glyph unicode="&#x151;" horiz-adv-x="1198" d="M59 539q0 267 140.5 413t400.5 146t400.5 -147t140.5 -414t-140 -413.5t-401 -146.5q-259 0 -400 147t-141 415zM289 1206l155 287h291l-248 -287h-198zM399 539q0 -303 201 -303q199 0 199 301q0 303 -199 303q-201 0 -201 -301zM649 1206l156 287h289l-248 -287h-197z " />
<glyph unicode="&#x152;" horiz-adv-x="2117" d="M70 717q0 160 38 291t116 233t208.5 158.5t304.5 56.5q173 0 310 -59v37h983v-295h-633v-277h516v-289h-516v-278h645v-295h-995v37q-139 -60 -310 -60q-140 0 -252.5 37.5t-189 103.5t-128 160t-74.5 203t-23 236zM430 717q0 -99 16.5 -177.5t52 -138.5t96 -92.5 t142.5 -32.5q159 0 233 118t74 323q0 204 -74 322t-233 118q-82 0 -142.5 -32t-96 -92.5t-52 -138.5t-16.5 -177z" />
<glyph unicode="&#x153;" horiz-adv-x="1869" d="M59 539q0 267 140.5 413t400.5 146q232 0 369 -119q131 119 350 119q239 0 365 -131.5t126 -345.5q0 -40 -4.5 -78.5t-9.5 -56.5l-4 -19h-647q11 -122 55.5 -182t130.5 -60q127 0 365 127l119 -209q-266 -166 -519 -166q-202 0 -329 115q-136 -115 -367 -115 q-259 0 -400 147t-141 415zM399 539q0 -303 201 -303q199 0 199 301q0 303 -199 303q-201 0 -201 -301zM1147 643h336q-3 217 -162 217q-152 0 -174 -217z" />
<glyph unicode="&#x154;" horiz-adv-x="1376" d="M133 0v1434h627q282 0 417.5 -110t135.5 -339q0 -175 -79.5 -279.5t-242.5 -144.5l324 -561h-381l-285 539h-166v-539h-350zM483 811h252q107 0 165 38t58 136t-58 137t-163 39h-254v-350zM506 1516l237 286h367l-330 -286h-274z" />
<glyph unicode="&#x155;" horiz-adv-x="843" d="M109 0v1075h335v-223q10 25 24 50t45.5 63.5t70 65t99.5 44t132 12.5v-315q-68 0 -125.5 -19t-94.5 -49.5t-66 -67.5t-44.5 -74t-25 -67.5t-12.5 -49.5l-3 -19v-426h-335zM246 1206l237 287h367l-330 -287h-274z" />
<glyph unicode="&#x156;" horiz-adv-x="1376" d="M133 0v1434h627q282 0 417.5 -110t135.5 -339q0 -175 -79.5 -279.5t-242.5 -144.5l324 -561h-381l-285 539h-166v-539h-350zM483 811h252q107 0 165 38t58 136t-58 137t-163 39h-254v-350zM563 -543l111 168h-107v262h240l14 -290l-196 -220z" />
<glyph unicode="&#x157;" horiz-adv-x="843" d="M109 0v1075h335v-223q10 25 24 50t45.5 63.5t70 65t99.5 44t132 12.5v-315q-68 0 -125.5 -19t-94.5 -49.5t-66 -67.5t-44.5 -74t-25 -67.5t-12.5 -49.5l-3 -19v-426h-335zM158 -543l110 168h-106v262h239l15 -290l-197 -220z" />
<glyph unicode="&#x158;" horiz-adv-x="1376" d="M133 0v1434h627q282 0 417.5 -110t135.5 -339q0 -175 -79.5 -279.5t-242.5 -144.5l324 -561h-381l-285 539h-166v-539h-350zM360 1802h228l135 -145l135 145h227l-206 -286h-312zM483 811h252q107 0 165 38t58 136t-58 137t-163 39h-254v-350z" />
<glyph unicode="&#x159;" horiz-adv-x="843" d="M98 1493h228l135 -145l135 145h227l-207 -287h-311zM109 0v1075h335v-223q10 25 24 50t45.5 63.5t70 65t99.5 44t132 12.5v-315q-68 0 -125.5 -19t-94.5 -49.5t-66 -67.5t-44.5 -74t-25 -67.5t-12.5 -49.5l-3 -19v-426h-335z" />
<glyph unicode="&#x15a;" horiz-adv-x="1245" d="M45 176l154 248q95 -58 236.5 -108t234.5 -50q68 0 112.5 31t44.5 88q0 35 -20.5 61t-64 46t-89.5 35t-120 40t-132 49q-327 122 -327 412q0 191 131 309.5t373 118.5q146 0 302.5 -43.5t276.5 -109.5l-156 -252q-86 44 -204 80t-199 36q-68 0 -111 -29t-43 -87 q0 -35 20.5 -59.5t62.5 -42.5t87.5 -32t116.5 -36.5t127 -46.5q51 -20 90.5 -40.5t88.5 -57t81.5 -79t55 -106.5t22.5 -139q0 -194 -135 -314.5t-375 -120.5q-174 0 -348.5 59.5t-292.5 139.5zM403 1516l238 286h367l-330 -286h-275z" />
<glyph unicode="&#x15b;" horiz-adv-x="1050" d="M43 119l129 237q90 -45 208.5 -82.5t194.5 -37.5q95 0 95 59q0 15 -7 27t-23 22.5t-31 18.5t-43.5 16.5t-47 14t-54.5 14.5t-54 14q-55 15 -99 32.5t-92.5 46.5t-81 64.5t-53.5 88.5t-21 116q0 146 106 237t302 91q126 0 260.5 -36t233.5 -83l-129 -219q-76 32 -175.5 58 t-164.5 26q-95 0 -95 -60q0 -21 12.5 -37t42 -28.5t53 -19.5t71.5 -18.5t73 -18.5q55 -15 100.5 -32.5t95.5 -47.5t83.5 -67t55.5 -91t22 -119q0 -151 -111 -239.5t-311 -88.5q-144 0 -296 43t-249 99zM309 1206l238 287h366l-329 -287h-275z" />
<glyph unicode="&#x15c;" horiz-adv-x="1245" d="M45 176l154 248q95 -58 236.5 -108t234.5 -50q68 0 112.5 31t44.5 88q0 35 -20.5 61t-64 46t-89.5 35t-120 40t-132 49q-327 122 -327 412q0 191 131 309.5t373 118.5q146 0 302.5 -43.5t276.5 -109.5l-156 -252q-86 44 -204 80t-199 36q-68 0 -111 -29t-43 -87 q0 -35 20.5 -59.5t62.5 -42.5t87.5 -32t116.5 -36.5t127 -46.5q51 -20 90.5 -40.5t88.5 -57t81.5 -79t55 -106.5t22.5 -139q0 -194 -135 -314.5t-375 -120.5q-174 0 -348.5 59.5t-292.5 139.5zM258 1516l207 286h311l207 -286h-227l-135 143l-136 -143h-227z" />
<glyph unicode="&#x15d;" horiz-adv-x="1050" d="M43 119l129 237q90 -45 208.5 -82.5t194.5 -37.5q95 0 95 59q0 15 -7 27t-23 22.5t-31 18.5t-43.5 16.5t-47 14t-54.5 14.5t-54 14q-55 15 -99 32.5t-92.5 46.5t-81 64.5t-53.5 88.5t-21 116q0 146 106 237t302 91q126 0 260.5 -36t233.5 -83l-129 -219q-76 32 -175.5 58 t-164.5 26q-95 0 -95 -60q0 -21 12.5 -37t42 -28.5t53 -19.5t71.5 -18.5t73 -18.5q55 -15 100.5 -32.5t95.5 -47.5t83.5 -67t55.5 -91t22 -119q0 -151 -111 -239.5t-311 -88.5q-144 0 -296 43t-249 99zM164 1206l207 287h311l207 -287h-227l-136 144l-135 -144h-227z" />
<glyph unicode="&#x15e;" horiz-adv-x="1245" d="M45 176l154 248q95 -58 236.5 -108t234.5 -50q68 0 112.5 31t44.5 88q0 35 -20.5 61t-64 46t-89.5 35t-120 40t-132 49q-327 122 -327 412q0 191 131 309.5t373 118.5q146 0 302.5 -43.5t276.5 -109.5l-156 -252q-86 44 -204 80t-199 36q-68 0 -111 -29t-43 -87 q0 -35 20.5 -59.5t62.5 -42.5t87.5 -32t116.5 -36.5t127 -46.5q51 -20 90.5 -40.5t88.5 -57t81.5 -79t55 -106.5t22.5 -139q0 -177 -114 -294.5t-320 -135.5q57 -82 57 -170q0 -97 -64.5 -146t-162.5 -49q-105 0 -176 47l63 162q49 -25 88 -25q84 0 84 72q0 47 -37 109 q-158 11 -310.5 67t-258.5 127z" />
<glyph unicode="&#x15f;" horiz-adv-x="1050" d="M43 119l129 237q90 -45 208.5 -82.5t194.5 -37.5q95 0 95 59q0 15 -7 27t-23 22.5t-31 18.5t-43.5 16.5t-47 14t-54.5 14.5t-54 14q-55 15 -99 32.5t-92.5 46.5t-81 64.5t-53.5 88.5t-21 116q0 146 106 237t302 91q126 0 260.5 -36t233.5 -83l-129 -219q-76 32 -175.5 58 t-164.5 26q-95 0 -95 -60q0 -21 12.5 -37t42 -28.5t53 -19.5t71.5 -18.5t73 -18.5q55 -15 100.5 -32.5t95.5 -47.5t83.5 -67t55.5 -91t22 -119q0 -133 -87 -217.5t-247 -103.5q57 -94 57 -172q0 -97 -64.5 -146t-162.5 -49q-105 0 -176 47l63 162q49 -25 88 -25q84 0 84 72 q0 45 -35 107q-133 9 -268 49t-219 90z" />
<glyph unicode="&#x160;" horiz-adv-x="1245" d="M45 176l154 248q95 -58 236.5 -108t234.5 -50q68 0 112.5 31t44.5 88q0 35 -20.5 61t-64 46t-89.5 35t-120 40t-132 49q-327 122 -327 412q0 191 131 309.5t373 118.5q146 0 302.5 -43.5t276.5 -109.5l-156 -252q-86 44 -204 80t-199 36q-68 0 -111 -29t-43 -87 q0 -35 20.5 -59.5t62.5 -42.5t87.5 -32t116.5 -36.5t127 -46.5q51 -20 90.5 -40.5t88.5 -57t81.5 -79t55 -106.5t22.5 -139q0 -194 -135 -314.5t-375 -120.5q-174 0 -348.5 59.5t-292.5 139.5zM258 1802h227l136 -145l135 145h227l-207 -286h-311z" />
<glyph unicode="&#x161;" horiz-adv-x="1050" d="M43 119l129 237q90 -45 208.5 -82.5t194.5 -37.5q95 0 95 59q0 15 -7 27t-23 22.5t-31 18.5t-43.5 16.5t-47 14t-54.5 14.5t-54 14q-55 15 -99 32.5t-92.5 46.5t-81 64.5t-53.5 88.5t-21 116q0 146 106 237t302 91q126 0 260.5 -36t233.5 -83l-129 -219q-76 32 -175.5 58 t-164.5 26q-95 0 -95 -60q0 -21 12.5 -37t42 -28.5t53 -19.5t71.5 -18.5t73 -18.5q55 -15 100.5 -32.5t95.5 -47.5t83.5 -67t55.5 -91t22 -119q0 -151 -111 -239.5t-311 -88.5q-144 0 -296 43t-249 99zM168 1493h227l135 -145l136 145h227l-207 -287h-311z" />
<glyph unicode="&#x162;" horiz-adv-x="1159" d="M27 1139v295h1106v-295h-377v-1139h-103q11 -13 25 -34t30.5 -66.5t16.5 -87.5q0 -97 -64.5 -146t-162.5 -49q-105 0 -176 47l63 162q49 -25 88 -25q84 0 84 72q0 62 -49 127h-100v1139h-381z" />
<glyph unicode="&#x163;" horiz-adv-x="849" d="M43 829v246h133v271l338 40v-311h268v-246h-268v-460q0 -32 7 -53t19.5 -30.5t24 -12.5t27.5 -3q36 0 139 45l117 -247q-153 -73 -283 -86q58 -83 58 -170q0 -97 -65 -146t-163 -49q-105 0 -176 47l64 162q49 -25 88 -25q84 0 84 72q0 52 -39 113q-240 42 -240 385v458 h-133z" />
<glyph unicode="&#x164;" horiz-adv-x="1159" d="M27 1139v295h1106v-295h-377v-1139h-348v1139h-381zM217 1802h227l136 -145l135 145h227l-207 -286h-311z" />
<glyph unicode="&#x165;" horiz-adv-x="849" d="M43 829v246h133v271l338 40v-311h268v-246h-268v-460q0 -32 7 -53t19.5 -30.5t24 -12.5t27.5 -3q36 0 139 45l117 -247q-199 -91 -346 -91q-167 0 -246.5 97t-79.5 297v458h-133zM598 1223l111 168h-107v262h240l14 -291l-197 -219z" />
<glyph unicode="&#x166;" horiz-adv-x="1173" d="M35 1139v295h1106v-295h-377v-521h168v-192h-168v-426h-348v426h-170v192h170v521h-381z" />
<glyph unicode="&#x167;" horiz-adv-x="849" d="M43 829v246h133v271l338 40v-311h268v-246h-268v-131h209v-194h-209v-135q0 -32 7 -53t19.5 -30.5t24 -12.5t27.5 -3q36 0 139 45l117 -247q-199 -91 -346 -91q-167 0 -246.5 97t-79.5 297v133h-92v194h92v131h-133z" />
<glyph unicode="&#x168;" horiz-adv-x="1396" d="M117 596v838h350v-869q0 -66 9.5 -114.5t33.5 -90t71 -63t117 -21.5q56 0 98 15t67.5 39.5t40.5 63t20.5 79t5.5 92.5v869h350v-838q0 -110 -14 -197t-53 -168.5t-103 -135.5t-168 -86t-244 -32t-244 32t-167.5 86t-102.5 135.5t-53 168t-14 197.5zM319 1595 q18 38 27.5 57t27.5 51t34 49t38 36t47.5 27t55.5 8q47 0 103 -24.5t103 -49.5t72 -25q23 0 45.5 19t53.5 76l143 -72q-17 -35 -23.5 -48.5t-23 -44t-27.5 -44.5t-29.5 -35t-36 -30.5t-40.5 -17t-49 -7.5q-45 0 -101 24.5t-103.5 49t-72.5 24.5q-23 0 -46 -18.5t-52 -75.5z " />
<glyph unicode="&#x169;" d="M102 317v758h336v-678q0 -77 23.5 -118t85.5 -41q56 0 119.5 36t113.5 86v715h336v-1075h-336v121q-199 -144 -372 -144q-156 0 -231 88.5t-75 251.5zM252 1286q21 46 32.5 68.5t35 58.5t43.5 54t51 32t67 14q47 0 103 -24.5t103.5 -49t72.5 -24.5q23 0 45 18.5t53 75.5 l143 -71q-17 -35 -23.5 -48.5t-23.5 -44.5t-27.5 -44.5t-29 -35t-36 -30.5t-40.5 -17t-49 -8q-45 0 -101 25t-103 49.5t-72 24.5q-23 0 -46.5 -19t-52.5 -76z" />
<glyph unicode="&#x16a;" horiz-adv-x="1396" d="M117 596v838h350v-869q0 -66 9.5 -114.5t33.5 -90t71 -63t117 -21.5q56 0 98 15t67.5 39.5t40.5 63t20.5 79t5.5 92.5v869h350v-838q0 -110 -14 -197t-53 -168.5t-103 -135.5t-168 -86t-244 -32t-244 32t-167.5 86t-102.5 135.5t-53 168t-14 197.5zM399 1567v192h598 v-192h-598z" />
<glyph unicode="&#x16b;" d="M102 317v758h336v-678q0 -77 23.5 -118t85.5 -41q56 0 119.5 36t113.5 86v715h336v-1075h-336v121q-199 -144 -372 -144q-156 0 -231 88.5t-75 251.5zM309 1257v193h598v-193h-598z" />
<glyph unicode="&#x16c;" horiz-adv-x="1396" d="M117 596v838h350v-869q0 -66 9.5 -114.5t33.5 -90t71 -63t117 -21.5q56 0 98 15t67.5 39.5t40.5 63t20.5 79t5.5 92.5v869h350v-838q0 -110 -14 -197t-53 -168.5t-103 -135.5t-168 -86t-244 -32t-244 32t-167.5 86t-102.5 135.5t-53 168t-14 197.5zM367 1778h200 q0 -40 34.5 -62t96.5 -22t97.5 22t35.5 62h201q0 -123 -88 -192.5t-246 -69.5t-244.5 69t-86.5 193z" />
<glyph unicode="&#x16d;" d="M102 317v758h336v-678q0 -77 23.5 -118t85.5 -41q56 0 119.5 36t113.5 86v715h336v-1075h-336v121q-199 -144 -372 -144q-156 0 -231 88.5t-75 251.5zM276 1468h201q0 -40 34.5 -62t96.5 -22t97.5 22t35.5 62h201q0 -123 -88 -192.5t-246 -69.5t-245 69.5t-87 192.5z" />
<glyph unicode="&#x16e;" horiz-adv-x="1396" d="M117 596v838h350v-869q0 -66 9.5 -114.5t33.5 -90t71 -63t117 -21.5q56 0 98 15t67.5 39.5t40.5 63t20.5 79t5.5 92.5v869h350v-838q0 -110 -14 -197t-53 -168.5t-103 -135.5t-168 -86t-244 -32t-244 32t-167.5 86t-102.5 135.5t-53 168t-14 197.5zM471 1724 q0 97 67 164.5t162 67.5q97 0 164.5 -67.5t67.5 -164.5q0 -95 -67.5 -162t-164.5 -67q-95 0 -162 67t-67 162zM625 1724q0 -31 22 -53t53 -22q32 0 55 22t23 53q0 32 -23 55t-55 23q-31 0 -53 -23t-22 -55z" />
<glyph unicode="&#x16f;" d="M102 317v758h336v-678q0 -77 23.5 -118t85.5 -41q56 0 119.5 36t113.5 86v715h336v-1075h-336v121q-199 -144 -372 -144q-156 0 -231 88.5t-75 251.5zM379 1415q0 97 67 164.5t162 67.5q97 0 164.5 -67.5t67.5 -164.5q0 -95 -67.5 -162t-164.5 -67q-95 0 -162 67t-67 162 zM532 1415q0 -31 22.5 -53.5t53.5 -22.5q32 0 55 22.5t23 53.5q0 32 -23 55t-55 23q-31 0 -53.5 -23t-22.5 -55z" />
<glyph unicode="&#x170;" horiz-adv-x="1396" d="M117 596v838h350v-869q0 -66 9.5 -114.5t33.5 -90t71 -63t117 -21.5q56 0 98 15t67.5 39.5t40.5 63t20.5 79t5.5 92.5v869h350v-838q0 -110 -14 -197t-53 -168.5t-103 -135.5t-168 -86t-244 -32t-244 32t-167.5 86t-102.5 135.5t-53 168t-14 197.5zM389 1516l156 286h291 l-248 -286h-199zM750 1516l155 286h289l-248 -286h-196z" />
<glyph unicode="&#x171;" d="M102 317v758h336v-678q0 -77 23.5 -118t85.5 -41q56 0 119.5 36t113.5 86v715h336v-1075h-336v121q-199 -144 -372 -144q-156 0 -231 88.5t-75 251.5zM299 1206l156 287h290l-247 -287h-199zM659 1206l156 287h289l-248 -287h-197z" />
<glyph unicode="&#x172;" horiz-adv-x="1398" d="M119 596v838h350v-869q0 -66 9.5 -114.5t33.5 -90t71 -63t117 -21.5q56 0 98 15t67.5 39.5t40.5 63t20.5 79t5.5 92.5v869h350v-838q0 -114 -16.5 -204t-56 -171t-113.5 -136.5t-181 -82.5h3q-35 -22 -59.5 -39.5t-55.5 -44t-47.5 -54t-16.5 -54.5q0 -20 8.5 -33.5 t19 -20.5t30 -10.5t29.5 -4t31 0t22 0.5l-29 -148q-105 0 -155 10q-165 34 -165 173q0 111 146 200q-112 2 -200.5 25t-148.5 65t-101.5 95.5t-64.5 125.5t-32.5 145t-9.5 163z" />
<glyph unicode="&#x173;" d="M102 317v758h336v-678q0 -77 23.5 -118t85.5 -41q56 0 119.5 36t113.5 86v715h336v-1075h-4q-34 -21 -58.5 -39t-54 -43.5t-45.5 -53t-16 -54.5q0 -20 8.5 -33.5t19 -20.5t30 -10.5t29 -4t30.5 0t22 0.5l-28 -148q-105 0 -155 10q-165 34 -165 173q0 126 184 223h-133 v121q-199 -144 -372 -144q-156 0 -231 88.5t-75 251.5z" />
<glyph unicode="&#x174;" horiz-adv-x="1888" d="M23 1434h393l176 -938l215 938h276l213 -938l179 938h393l-371 -1434h-342l-211 897l-211 -897h-340zM582 1516l206 286h312l207 -286h-228l-135 143l-135 -143h-227z" />
<glyph unicode="&#x175;" horiz-adv-x="1640" d="M27 1075h354l135 -694l174 694h262l172 -690l136 690h356l-307 -1075h-314l-174 641l-176 -641h-313zM459 1206l207 287h311l207 -287h-228l-135 144l-135 -144h-227z" />
<glyph unicode="&#x177;" horiz-adv-x="1144" d="M12 1075h361l196 -663l199 663h360l-540 -1493h-361l176 414zM207 1206l207 287h311l207 -287h-227l-136 144l-135 -144h-227z" />
<glyph unicode="&#x178;" horiz-adv-x="1286" d="M-6 1434h395l254 -541l256 541h395l-477 -869v-565h-348v569zM340 1536v250h254v-250h-254zM696 1536v250h254v-250h-254z" />
<glyph unicode="&#x179;" horiz-adv-x="1241" d="M55 0v268l654 871h-613v295h1067v-267l-653 -872h664v-295h-1119zM412 1516l237 286h367l-330 -286h-274z" />
<glyph unicode="&#x17a;" horiz-adv-x="1105" d="M61 0v231l525 568h-506v276h958v-231l-524 -568h524v-276h-977zM334 1206l237 287h367l-330 -287h-274z" />
<glyph unicode="&#x17b;" horiz-adv-x="1241" d="M55 0v268l654 871h-613v295h1067v-267l-653 -872h664v-295h-1119zM502 1536v250h254v-250h-254z" />
<glyph unicode="&#x17c;" horiz-adv-x="1105" d="M61 0v231l525 568h-506v276h958v-231l-524 -568h524v-276h-977zM422 1227v250h254v-250h-254z" />
<glyph unicode="&#x17d;" horiz-adv-x="1241" d="M55 0v268l654 871h-613v295h1067v-267l-653 -872h664v-295h-1119zM266 1802h228l135 -145l135 145h227l-207 -286h-311z" />
<glyph unicode="&#x17e;" horiz-adv-x="1105" d="M61 0v231l525 568h-506v276h958v-231l-524 -568h524v-276h-977zM186 1493h228l135 -145l135 145h227l-206 -287h-312z" />
<glyph unicode="&#x17f;" horiz-adv-x="657" d="M37 829v246h135v25q0 200 79.5 296.5t244.5 96.5q170 0 360 -90l-111 -240q-111 41 -157 41q-16 0 -27.5 -3t-25 -12t-20.5 -30t-7 -53v-1106h-336v829h-135z" />
<glyph unicode="&#x192;" horiz-adv-x="1169" d="M55 -418l269 1247h-136l52 246h137l8 35q22 101 49 167t72.5 117.5t113.5 75t166 23.5q36 0 76.5 -6t71.5 -13t70 -19.5t58 -19.5t49.5 -19.5t31.5 -12.5l-156 -244q-8 2 -27 9t-30 10.5t-32.5 9.5t-33 7.5t-31 4t-28.5 -1.5q-70 -10 -88 -102l-4 -21h268l-51 -246h-271 l-268 -1247h-336z" />
<glyph unicode="&#x1fc;" horiz-adv-x="2074" d="M-66 0l895 1434h1160v-295h-633v-277h516v-289h-516v-278h645v-295h-995v262h-498l-154 -262h-420zM674 545h332v563zM893 1516l237 286h367l-330 -286h-274z" />
<glyph unicode="&#x1fd;" horiz-adv-x="1783" d="M47 332q0 163 103 254.5t272 91.5q95 0 297 -49q1 23 16 88q-5 70 -40.5 98.5t-119.5 28.5q-117 0 -358 -76l-104 229q302 101 530 101q197 0 301 -72q119 72 287 72q239 0 365 -131.5t126 -345.5q0 -40 -4.5 -78.5t-9.5 -56.5l-4 -19h-647q11 -122 55.5 -182t130.5 -60 q127 0 365 127l118 -209q-266 -166 -518 -166q-132 0 -238 52.5t-171 156.5q-179 -209 -400 -209q-159 0 -255.5 98t-96.5 257zM387 362q0 -126 125 -126q113 0 223 104q-12 59 -18 125q-5 1 -39 10t-51 12.5t-44.5 8t-47.5 4.5q-71 0 -109.5 -36t-38.5 -102zM670 1206 l237 287h367l-330 -287h-274zM1059 643h336q-3 217 -162 217q-152 0 -174 -217z" />
<glyph unicode="&#x1fe;" horiz-adv-x="1472" d="M68 717q0 160 38 291t116 233t208.5 158.5t304.5 56.5q209 0 363 -88l47 66h237l-139 -189q160 -192 160 -528q0 -127 -23.5 -236t-75 -203t-128.5 -160t-189.5 -103.5t-251.5 -37.5q-208 0 -360 84l-45 -61h-238l135 184q-159 191 -159 533zM428 717q0 -129 27 -223 l450 612q-70 51 -170 51q-82 0 -142.5 -32t-96 -92.5t-52 -138.5t-16.5 -177zM520 1516l238 286h366l-329 -286h-275zM567 324q70 -48 168 -48q159 0 233 118t74 323q0 126 -26 217z" />
<glyph unicode="&#x1ff;" horiz-adv-x="1198" d="M59 539q0 267 140.5 413t400.5 146q165 0 287 -64l33 41h188l-102 -131q135 -147 135 -407q0 -267 -140 -413.5t-401 -146.5q-172 0 -295 66l-33 -43h-192l106 137q-127 145 -127 402zM369 1206l237 287h367l-330 -287h-274zM399 539q0 -65 9 -117l301 385 q-48 33 -109 33q-201 0 -201 -301zM483 272q45 -36 117 -36q199 0 199 301q0 67 -13 127z" />
<glyph unicode="&#x218;" horiz-adv-x="1245" d="M45 176l154 248q95 -58 236.5 -108t234.5 -50q68 0 112.5 31t44.5 88q0 35 -20.5 61t-64 46t-89.5 35t-120 40t-132 49q-327 122 -327 412q0 191 131 309.5t373 118.5q146 0 302.5 -43.5t276.5 -109.5l-156 -252q-86 44 -204 80t-199 36q-68 0 -111 -29t-43 -87 q0 -35 20.5 -59.5t62.5 -42.5t87.5 -32t116.5 -36.5t127 -46.5q51 -20 90.5 -40.5t88.5 -57t81.5 -79t55 -106.5t22.5 -139q0 -194 -135 -314.5t-375 -120.5q-174 0 -348.5 59.5t-292.5 139.5zM512 -543l111 168h-107v262h240l14 -290l-197 -220z" />
<glyph unicode="&#x219;" horiz-adv-x="1050" d="M43 119l129 237q90 -45 208.5 -82.5t194.5 -37.5q95 0 95 59q0 15 -7 27t-23 22.5t-31 18.5t-43.5 16.5t-47 14t-54.5 14.5t-54 14q-55 15 -99 32.5t-92.5 46.5t-81 64.5t-53.5 88.5t-21 116q0 146 106 237t302 91q126 0 260.5 -36t233.5 -83l-129 -219q-76 32 -175.5 58 t-164.5 26q-95 0 -95 -60q0 -21 12.5 -37t42 -28.5t53 -19.5t71.5 -18.5t73 -18.5q55 -15 100.5 -32.5t95.5 -47.5t83.5 -67t55.5 -91t22 -119q0 -151 -111 -239.5t-311 -88.5q-144 0 -296 43t-249 99zM393 -543l111 168h-107v262h240l14 -290l-196 -220z" />
<glyph unicode="&#x21a;" horiz-adv-x="1159" d="M27 1139v295h1106v-295h-377v-1139h-348v1139h-381zM461 -543l110 168h-106v262h240l14 -290l-197 -220z" />
<glyph unicode="&#x21b;" horiz-adv-x="849" d="M43 829v246h133v271l338 40v-311h268v-246h-268v-460q0 -32 7 -53t19.5 -30.5t24 -12.5t27.5 -3q36 0 139 45l117 -247q-199 -91 -346 -91q-167 0 -246.5 97t-79.5 297v458h-133zM256 -543l111 168h-107v262h240l14 -290l-197 -220z" />
<glyph unicode="&#x2b0;" horiz-adv-x="823" d="M88 788v895h225v-319q115 84 234 84q192 0 192 -209v-451h-225v398q0 42 -13.5 64t-49.5 22q-68 0 -138 -66v-418h-225z" />
<glyph unicode="&#x2b2;" horiz-adv-x="405" d="M-49 664q36 12 58.5 21t39 20t24 18.5t12 24t5 27.5t0.5 38v621h225v-600q0 -122 -14 -166q-23 -73 -110 -115q-60 -28 -166 -51zM84 1503v178h238v-178h-238z" />
<glyph unicode="&#x2b7;" horiz-adv-x="1034" d="M10 1434h240l78 -396l102 396h176l101 -392l77 392h242l-192 -646h-211l-105 365l-104 -365h-211z" />
<glyph unicode="&#x2b8;" horiz-adv-x="708" d="M-4 1434h244l114 -373l117 373h242l-340 -895h-242l111 249z" />
<glyph unicode="&#x2c6;" horiz-adv-x="571" d="M-78 1206l207 287h311l207 -287h-227l-135 144l-135 -144h-228z" />
<glyph unicode="&#x2c7;" horiz-adv-x="571" d="M-78 1493h228l135 -145l135 145h227l-207 -287h-311z" />
<glyph unicode="&#x2d8;" horiz-adv-x="542" d="M-61 1468h200q0 -40 34.5 -62t96.5 -22t97.5 22t35.5 62h201q0 -123 -88 -192.5t-246 -69.5t-244.5 69t-86.5 193z" />
<glyph unicode="&#x2d9;" horiz-adv-x="192" d="M-31 1227v250h254v-250h-254z" />
<glyph unicode="&#x2da;" horiz-adv-x="423" d="M-18 1415q0 97 67 164.5t162 67.5q97 0 164 -67.5t67 -164.5q0 -95 -67 -162t-164 -67q-95 0 -162 67t-67 162zM135 1415q0 -31 22.5 -53.5t53.5 -22.5q32 0 55 22.5t23 53.5q0 32 -23 55t-55 23q-31 0 -53.5 -23t-22.5 -55z" />
<glyph unicode="&#x2db;" horiz-adv-x="325" d="M-61 -223q0 141 231 246l156 -21q-35 -22 -59.5 -39.5t-55.5 -44t-47.5 -54t-16.5 -54.5q0 -20 8.5 -33.5t19 -20.5t30 -10.5t29.5 -4t31 0t22 0.5l-29 -148h-12q-307 -4 -307 183z" />
<glyph unicode="&#x2dc;" horiz-adv-x="583" d="M-84 1286q21 46 32.5 68.5t35 58.5t43.5 54t51 32t67 14q47 0 103 -24.5t103.5 -49t72.5 -24.5q23 0 45 18.5t53 75.5l144 -71q-22 -47 -33 -68t-35 -58.5t-44 -55t-51.5 -32t-66.5 -14.5q-45 0 -101 25t-103 49.5t-72 24.5q-23 0 -46.5 -19t-52.5 -76z" />
<glyph unicode="&#x2dd;" horiz-adv-x="665" d="M-70 1206l156 287h291l-248 -287h-199zM291 1206l155 287h289l-248 -287h-196z" />
<glyph unicode="&#x2e3;" horiz-adv-x="763" d="M0 788l242 322l-228 324h252l117 -191l115 191h252l-228 -324l242 -322h-260l-123 195l-119 -195h-262z" />
<glyph unicode="&#x3c0;" horiz-adv-x="1124" d="M33 788v287h1059v-287h-154v-788h-287v788h-178v-788h-289v788h-151z" />
<glyph unicode="&#x1e80;" horiz-adv-x="1888" d="M23 1434h393l176 -938l215 938h276l213 -938l179 938h393l-371 -1434h-342l-211 897l-211 -897h-340zM557 1802h365l239 -286h-274z" />
<glyph unicode="&#x1e81;" horiz-adv-x="1640" d="M27 1075h354l135 -694l174 694h262l172 -690l136 690h356l-307 -1075h-314l-174 641l-176 -641h-313zM434 1493h365l239 -287h-274z" />
<glyph unicode="&#x1e82;" horiz-adv-x="1888" d="M23 1434h393l176 -938l215 938h276l213 -938l179 938h393l-371 -1434h-342l-211 897l-211 -897h-340zM727 1516l238 286h366l-330 -286h-274z" />
<glyph unicode="&#x1e83;" horiz-adv-x="1640" d="M27 1075h354l135 -694l174 694h262l172 -690l136 690h356l-307 -1075h-314l-174 641l-176 -641h-313zM604 1206l238 287h366l-329 -287h-275z" />
<glyph unicode="&#x1e84;" horiz-adv-x="1888" d="M23 1434h393l176 -938l215 938h276l213 -938l179 938h393l-371 -1434h-342l-211 897l-211 -897h-340zM641 1536v250h254v-250h-254zM997 1536v250h254v-250h-254z" />
<glyph unicode="&#x1e85;" horiz-adv-x="1640" d="M27 1075h354l135 -694l174 694h262l172 -690l136 690h356l-307 -1075h-314l-174 641l-176 -641h-313zM516 1227v250h254v-250h-254zM872 1227v250h254v-250h-254z" />
<glyph unicode="&#x1e9e;" horiz-adv-x="1603" d="M131 0v877q0 100 16 181t55 152.5t100.5 119.5t158 76t223.5 28h707v-230l-273 -327q206 -45 320 -161.5t114 -291.5q0 -90 -30.5 -169.5t-89.5 -142t-155.5 -99t-219.5 -36.5q-142 0 -267 43t-217 105l154 248q59 -42 138 -74.5t149 -32.5q81 0 130.5 47t49.5 121 q0 27 -7.5 51t-31.5 51t-63.5 46.5t-109.5 32t-163 12.5h-100v217l248 295h-256q-120 0 -175 -72t-55 -248v-819h-350z" />
<glyph unicode="&#x1ef2;" horiz-adv-x="1286" d="M-6 1434h395l254 -541l256 541h395l-477 -869v-565h-348v569zM258 1802h365l239 -286h-274z" />
<glyph unicode="&#x1ef3;" horiz-adv-x="1144" d="M12 1075h361l196 -663l199 663h360l-540 -1493h-361l176 414zM182 1493h365l239 -287h-274z" />
<glyph unicode="&#x2000;" horiz-adv-x="978" />
<glyph unicode="&#x2001;" horiz-adv-x="1956" />
<glyph unicode="&#x2002;" horiz-adv-x="978" />
<glyph unicode="&#x2003;" horiz-adv-x="1956" />
<glyph unicode="&#x2004;" horiz-adv-x="652" />
<glyph unicode="&#x2005;" horiz-adv-x="489" />
<glyph unicode="&#x2006;" horiz-adv-x="326" />
<glyph unicode="&#x2007;" horiz-adv-x="326" />
<glyph unicode="&#x2008;" horiz-adv-x="244" />
<glyph unicode="&#x2009;" horiz-adv-x="391" />
<glyph unicode="&#x200a;" horiz-adv-x="108" />
<glyph unicode="&#x2010;" horiz-adv-x="845" d="M106 449v268h635v-268h-635z" />
<glyph unicode="&#x2011;" horiz-adv-x="845" d="M106 449v268h635v-268h-635z" />
<glyph unicode="&#x2012;" horiz-adv-x="845" d="M106 449v268h635v-268h-635z" />
<glyph unicode="&#x2013;" horiz-adv-x="1085" d="M104 451v264h877v-264h-877z" />
<glyph unicode="&#x2014;" horiz-adv-x="1292" d="M104 451v264h1084v-264h-1084z" />
<glyph unicode="&#x2018;" horiz-adv-x="534" d="M80 1176l272 299l88 -111l-153 -234h149v-366h-336z" />
<glyph unicode="&#x2019;" horiz-adv-x="516" d="M90 831l154 234h-150v367h336l21 -412l-273 -299z" />
<glyph unicode="&#x201a;" horiz-adv-x="550" d="M100 -233l154 233h-150v367h336l21 -412l-273 -299z" />
<glyph unicode="&#x201c;" horiz-adv-x="1003" d="M80 1176l272 299l88 -111l-153 -234h149v-366h-336zM549 1176l272 299l88 -111l-153 -234h149v-366h-336z" />
<glyph unicode="&#x201d;" horiz-adv-x="983" d="M90 831l154 234h-150v367h336l21 -412l-273 -299zM559 831l154 234h-150v367h336l21 -412l-273 -299z" />
<glyph unicode="&#x201e;" horiz-adv-x="1019" d="M100 -233l154 233h-150v367h336l21 -412l-273 -299zM569 -233l154 233h-150v367h336l21 -412l-273 -299z" />
<glyph unicode="&#x2020;" horiz-adv-x="1177" d="M51 748v268l412 -31v449h252v-449l411 31v-268l-411 30v-1196h-252v1198z" />
<glyph unicode="&#x2021;" horiz-adv-x="1220" d="M74 211v268l411 -30v331l-411 -32v268l411 -31v449h252v-449l412 31v-268l-412 30v-329l412 30v-268l-412 31v-660h-252v662z" />
<glyph unicode="&#x2022;" horiz-adv-x="950" d="M131 584q0 142 100.5 243t243.5 101t243.5 -101t100.5 -243t-100.5 -243t-243.5 -101t-243.5 101t-100.5 243z" />
<glyph unicode="&#x2026;" horiz-adv-x="1552" d="M104 0v367h338v-367h-338zM608 0v367h338v-367h-338zM1110 0v367h338v-367h-338z" />
<glyph unicode="&#x202f;" horiz-adv-x="391" />
<glyph unicode="&#x2030;" horiz-adv-x="2793" d="M59 1071q0 180 99 282.5t282 102.5q181 0 281 -102.5t100 -282.5t-99.5 -281.5t-281.5 -101.5q-183 0 -282 101.5t-99 281.5zM305 1071q0 -180 135 -180q66 0 102 45.5t36 134.5t-36 135.5t-102 46.5q-135 0 -135 -182zM502 0l682 1434h258l-682 -1434h-258zM1124 360 q0 180 99 282.5t280 102.5q183 0 283 -102.5t100 -282.5t-100 -281.5t-283 -101.5q-181 0 -280 101.5t-99 281.5zM1368 360q0 -180 135 -180q137 0 137 180q0 90 -35.5 136.5t-101.5 46.5q-65 0 -100 -46.5t-35 -136.5zM1972 360q0 180 99 282.5t280 102.5q183 0 283 -102.5 t100 -282.5t-100 -281.5t-283 -101.5q-181 0 -280 101.5t-99 281.5zM2216 360q0 -180 135 -180q137 0 137 180q0 90 -35.5 136.5t-101.5 46.5q-65 0 -100 -46.5t-35 -136.5z" />
<glyph unicode="&#x2039;" horiz-adv-x="733" d="M53 449v200l576 430v-313l-314 -217l314 -215v-314z" />
<glyph unicode="&#x203a;" horiz-adv-x="733" d="M104 20v314l314 217l-314 215v313l576 -428v-200z" />
<glyph unicode="&#x2044;" horiz-adv-x="428" d="M-221 0l620 1434h252l-620 -1434h-252z" />
<glyph unicode="&#x205f;" horiz-adv-x="489" />
<glyph unicode="&#x2070;" horiz-adv-x="866" d="M59 1219q0 212 96 328t279 116q182 0 277.5 -116t95.5 -328t-96 -328.5t-279 -116.5q-182 0 -277.5 116.5t-95.5 328.5zM295 1219q0 -142 34.5 -202.5t102.5 -60.5t103.5 60.5t35.5 202.5t-34.5 202t-102.5 60t-103.5 -60.5t-35.5 -201.5z" />
<glyph unicode="&#x2074;" horiz-adv-x="878" d="M33 938v162l366 549h312v-516h127v-195h-127v-150h-236v150h-442zM266 1133h209v319z" />
<glyph unicode="&#x2075;" horiz-adv-x="796" d="M45 891l102 170q125 -86 226 -86q57 0 93 25.5t36 70.5q0 43 -32.5 73t-96.5 30q-70 0 -156 -46l-129 82l45 439h574v-195h-377l-6 -104q53 12 108 12q150 0 228.5 -83t78.5 -206q0 -126 -85.5 -212.5t-247.5 -86.5q-174 0 -361 117z" />
<glyph unicode="&#x2076;" horiz-adv-x="817" d="M57 1153q0 221 146.5 365.5t380.5 144.5q36 0 70 -3.5t50 -7.5l15 -3l-55 -183q-35 7 -78 7q-56 0 -106 -17t-95 -59.5t-68 -106.5q77 56 183 56q119 0 195.5 -74t76.5 -195q0 -128 -94 -215.5t-250 -87.5q-94 0 -167 31t-116.5 84.5t-65.5 120t-22 143.5zM293 1114 q1 -79 40.5 -114t88.5 -35q58 0 87.5 31t29.5 73q0 45 -32.5 73.5t-84.5 28.5q-77 0 -129 -57z" />
<glyph unicode="&#x2077;" horiz-adv-x="684" d="M39 1454v195h623v-183q-12 -15 -32.5 -41.5t-72 -106t-91 -157t-72 -181.5t-32.5 -192h-241q0 84 29 182.5t63 169.5t85 152t70 106.5t42 55.5h-371z" />
<glyph unicode="&#x2078;" horiz-adv-x="839" d="M51 1024q0 152 176 236q-123 75 -123 188q0 97 83.5 156t234.5 59q150 0 231.5 -59t81.5 -156q0 -113 -123 -191q81 -39 128.5 -93.5t47.5 -139.5q0 -116 -95 -183t-271 -67q-179 0 -275 67t-96 183zM289 1044q0 -41 36.5 -67.5t96.5 -26.5q58 0 93.5 27t35.5 67 q0 39 -33.5 68t-97.5 57q-64 -28 -97.5 -57t-33.5 -68zM334 1425q0 -55 86 -92q86 38 86 92q0 25 -22.5 46.5t-61.5 21.5q-42 0 -65 -21.5t-23 -46.5z" />
<glyph unicode="&#x2079;" horiz-adv-x="813" d="M45 1358q0 129 93 217t251 88q94 0 167 -31t116.5 -84.5t65.5 -120t22 -143.5q0 -222 -146 -366t-383 -144q-35 0 -67.5 3.5t-47.5 6.5l-16 4l52 183q36 -6 79 -6q87 0 159 42.5t106 135.5q-75 -51 -179 -51q-119 0 -195.5 73t-76.5 193zM281 1368q0 -45 30.5 -74.5 t83.5 -29.5q76 0 127 55q-1 56 -22.5 92.5t-48 49t-56.5 12.5q-58 0 -86 -32t-28 -73z" />
<glyph unicode="&#x207a;" horiz-adv-x="716" d="M45 1114v168h229v213h170v-213h228v-168h-228v-213h-170v213h-229z" />
<glyph unicode="&#x207d;" horiz-adv-x="475" d="M84 942v547q0 57 1.5 84.5t10 67t26.5 59t51.5 44.5t84.5 42t125 33l55 -123q-56 -20 -81.5 -40t-31.5 -41t-6 -65v-669q0 -62 19.5 -89.5t99.5 -56.5l-55 -123q-45 10 -81 20t-64.5 22.5t-50 23t-38 27t-27.5 28.5t-18.5 33.5t-11.5 36t-5.5 42t-2 45.5t-0.5 52z" />
<glyph unicode="&#x207e;" horiz-adv-x="477" d="M39 735q56 20 81.5 40t31.5 41t6 65v669q0 62 -19.5 89.5t-99.5 56.5l55 123q45 -10 81 -20t64.5 -22.5t50 -23t38 -27t27.5 -28.5t18.5 -33.5t11.5 -36t5.5 -42t2 -45.5t0.5 -52v-547q0 -57 -1.5 -84.5t-10 -67t-26.5 -59t-51.5 -44.5t-84.5 -42t-125 -33z" />
<glyph unicode="&#x207f;" horiz-adv-x="823" d="M88 788v646h225v-70q115 84 234 84q192 0 192 -209v-451h-225v398q0 42 -13.5 64t-49.5 22q-68 0 -138 -66v-418h-225z" />
<glyph unicode="&#x2080;" horiz-adv-x="866" d="M59 125q0 212 96 328t279 116q182 0 277.5 -116t95.5 -328t-96 -328t-279 -116q-182 0 -277.5 116t-95.5 328zM295 125q0 -142 34.5 -202t102.5 -60t103.5 60.5t35.5 201.5q0 142 -34.5 202t-102.5 60t-103.5 -60.5t-35.5 -201.5z" />
<glyph unicode="&#x2081;" horiz-adv-x="649" d="M4 412l244 141h225v-860h-235v645l-142 -78z" />
<glyph unicode="&#x2082;" horiz-adv-x="792" d="M43 -211q0 61 21.5 116t61.5 99.5t81 78t94 67.5q22 14 58.5 35.5t53.5 32.5t37.5 27t28.5 31t8 31q0 28 -24.5 47t-69.5 19q-90 0 -225 -82l-102 149q177 127 362 127q145 0 221 -71t76 -179q0 -49 -17.5 -92.5t-41 -73.5t-64 -61t-69 -47.5t-72.5 -40.5 q-63 -37 -96 -63.5t-33 -51.5h395v-194h-684v96z" />
<glyph unicode="&#x2083;" horiz-adv-x="790" d="M27 -203l102 158q151 -80 254 -80q55 0 85 20t30 58q0 31 -21 51t-59 28t-67.5 10.5t-69.5 2.5h-37v197h43q33 0 56.5 2t54.5 8.5t48 23t17 41.5q0 56 -82 56q-52 0 -113 -23t-108 -51l-97 145q163 123 357 123q139 0 208.5 -60.5t69.5 -152.5q0 -124 -127 -186 q71 -26 117.5 -85.5t46.5 -133.5q0 -52 -16.5 -98t-52 -86t-101 -63.5t-153.5 -23.5q-201 0 -385 119z" />
<glyph unicode="&#x2084;" horiz-adv-x="878" d="M33 4l366 549h312v-516h127v-195h-127v-149h-236v149h-442v162zM266 37h209v319z" />
<glyph unicode="&#x2085;" horiz-adv-x="796" d="M45 -205l102 170q125 -86 226 -86q57 0 93 25.5t36 70.5q0 43 -32.5 73t-96.5 30q-71 0 -156 -45l-129 82l45 438h574v-195h-377l-6 -104q52 12 108 12q150 0 228.5 -83t78.5 -206q0 -126 -85.5 -212.5t-247.5 -86.5q-174 0 -361 117z" />
<glyph unicode="&#x2086;" horiz-adv-x="815" d="M55 57q0 221 146.5 365.5t380.5 144.5q36 0 70 -3.5t50 -7.5l15 -3l-55 -182q-35 6 -78 6q-88 0 -161.5 -44t-107.5 -138q75 55 183 55q119 0 195.5 -73.5t76.5 -194.5q0 -128 -94 -216t-250 -88q-94 0 -167 31t-116.5 84.5t-65.5 120t-22 143.5zM291 18q1 -79 40.5 -114 t88.5 -35q58 0 87.5 31t29.5 73q0 45 -32.5 74t-84.5 29q-76 0 -129 -58z" />
<glyph unicode="&#x2087;" horiz-adv-x="684" d="M39 358v195h623v-182q-12 -15 -32.5 -41.5t-72 -106t-91 -157t-72 -181.5t-32.5 -192h-241q0 84 29 182.5t63 169t85.5 152t69.5 106t42 55.5h-371z" />
<glyph unicode="&#x2088;" horiz-adv-x="839" d="M51 -72q0 152 176 236q-123 75 -123 188q0 97 83.5 156t234.5 59q150 0 231.5 -59t81.5 -156q0 -112 -123 -190q81 -39 128.5 -94t47.5 -140q0 -116 -95 -183t-271 -67q-179 0 -275 67t-96 183zM289 -51q0 -41 36.5 -67.5t96.5 -26.5q58 0 93.5 27t35.5 67q0 39 -33.5 68 t-97.5 57q-64 -28 -97.5 -57t-33.5 -68zM334 330q0 -55 86 -92q86 38 86 92q0 25 -22.5 46t-61.5 21q-42 0 -65 -21t-23 -46z" />
<glyph unicode="&#x2089;" horiz-adv-x="813" d="M45 262q0 129 93 217t251 88q94 0 167 -31t116.5 -84.5t65.5 -120t22 -143.5q0 -222 -146 -366t-383 -144q-35 0 -67.5 4t-47.5 8l-16 3l52 182q36 -6 79 -6q87 0 159 42.5t106 135.5q-75 -51 -179 -51q-119 0 -195.5 73t-76.5 193zM281 272q0 -45 30.5 -74.5t83.5 -29.5 q76 0 127 55q-1 56 -22.5 92.5t-48 49t-56.5 12.5q-58 0 -86 -32t-28 -73z" />
<glyph unicode="&#x208a;" horiz-adv-x="714" d="M45 18v168h229v213h170v-213h228v-168h-228v-213h-170v213h-229z" />
<glyph unicode="&#x208d;" horiz-adv-x="473" d="M84 -154v547q0 57 1.5 84.5t10 67t26.5 59t51.5 44.5t84.5 42t125 33l55 -123q-80 -29 -99.5 -55.5t-19.5 -89.5v-670q0 -62 19.5 -89t99.5 -56l-55 -123q-49 11 -88 23t-69.5 23.5t-52.5 28t-37 29.5t-25 35.5t-15.5 37.5t-8 45t-3 49.5t-0.5 57.5z" />
<glyph unicode="&#x208e;" horiz-adv-x="475" d="M37 -360q80 29 99.5 55.5t19.5 89.5v670q0 62 -19.5 89t-99.5 56l55 123q45 -10 81 -20t64.5 -22.5t50 -23t38 -27t27.5 -28.5t18.5 -33.5t11.5 -36t5.5 -42t2 -45.5t0.5 -52v-547q0 -39 -0.5 -58.5t-3 -49.5t-8 -45t-15.5 -37.5t-25 -35t-37 -29t-52.5 -28t-69 -23.5 t-88.5 -23z" />
<glyph unicode="&#x20a1;" horiz-adv-x="1095" d="M82 719q0 141 38 250.5t104 175.5t148 99.5t175 33.5q23 0 33 -2l34 158h138l-39 -177l47 -12l41 189h137l-51 -232q31 -13 78 -34.5t59 -26.5l-131 -248q-9 3 -66 31l-96 -453q53 18 162 72l131 -248q-200 -98 -358 -127l-35 -168h-137l32 158q-15 0 -47 4l-35 -162 h-137l43 201q-123 57 -195.5 187.5t-72.5 330.5zM424 719q0 -65 12 -117l76 361q-88 -63 -88 -244zM543 457q24 -10 45 -13l114 529q-23 9 -47 12z" />
<glyph unicode="&#x20a4;" horiz-adv-x="1148" d="M100 0v233q6 2 16.5 7t40 22.5t54.5 38.5t53 56.5t43 74.5h-186v162h198q-5 35 -26 86h-172v164h86q-66 132 -66 250q0 169 110 265.5t306 96.5q67 0 135.5 -13t116.5 -29t107.5 -46t87 -46.5t77.5 -47.5l-151 -223q-186 116 -303 116q-67 0 -101 -34.5t-34 -92.5 q0 -33 13 -70.5t23 -56.5t39 -69h369v-164h-295q9 -41 12 -86h283v-162h-305q-36 -101 -96 -143h524v-289h-959z" />
<glyph unicode="&#x20a7;" horiz-adv-x="1406" d="M115 895v131h53v408h586q511 0 549 -408h51v-131h-51q-19 -202 -155 -302.5t-394 -100.5h-236v-492h-350v895h-53zM518 778h213q179 0 213 117h-426v-117zM518 1026h426q-35 119 -213 119h-213v-119z" />
<glyph unicode="&#x20a9;" horiz-adv-x="2031" d="M80 870v195h108l-94 369h393l70 -369h238l84 369h276l84 -369h238l69 369h393l-96 -369h109v-195h-160l-39 -155h199v-195h-250l-133 -520h-342l-211 897l-211 -897h-340l-135 520h-248v195h197l-39 155h-160zM594 870l70 -374l86 374h-156zM1282 870l86 -374l72 374 h-158z" />
<glyph unicode="&#x20ac;" horiz-adv-x="1409" d="M72 479v174h112v64v51h-112v174h131q45 254 188.5 384t353.5 130q149 0 285.5 -53t308.5 -152l-159 -258q-128 74 -219 112t-170 38q-160 0 -222 -201h387v-174h-413v-51q0 -44 2 -64h411v-174h-383q30 -90 85.5 -139t132.5 -49q79 0 171 38t218 111l159 -258 q-172 -99 -308.5 -152t-285.5 -53q-209 0 -351.5 127t-188.5 375h-133z" />
<glyph unicode="&#x2116;" horiz-adv-x="2359" d="M154 0v1434h354l483 -865v865h350v-1434h-354l-483 860v-860h-350zM1432 987q0 204 112 316t316 112q206 0 318 -111.5t112 -316.5q0 -206 -111.5 -317t-318.5 -111q-204 0 -316 111.5t-112 316.5zM1518 283v192h690v-192h-690zM1729 987q0 -102 31 -151.5t100 -49.5 q71 0 102 49.5t31 151.5q0 101 -31.5 150t-101.5 49q-69 0 -100 -49t-31 -150z" />
<glyph unicode="&#x2117;" horiz-adv-x="1613" d="M78 717q0 156 49 290.5t140 234.5t230.5 157t311.5 57t311 -57t230 -157t139.5 -234.5t48.5 -290.5t-48.5 -290.5t-139.5 -234.5t-230 -157.5t-311 -57.5t-311.5 57.5t-230.5 157.5t-140 234.5t-49 290.5zM158 717q0 -141 43 -261.5t124 -210.5t205 -141t277 -51 q154 0 278.5 51t205 141t124 210.5t43.5 261.5t-43.5 261t-124 209.5t-205 140t-278.5 50.5q-203 0 -352 -88t-223 -236t-74 -337zM584 285v862h286q299 0 299 -262q0 -264 -299 -264h-186v-336h-100zM684 707h188q197 0 197 178t-197 178h-188v-356z" />
<glyph unicode="&#x2120;" horiz-adv-x="1212" d="M82 1034l55 88q37 -19 93.5 -35t97.5 -16q28 0 47.5 8.5t19.5 22.5q0 15 -21.5 22.5t-69.5 17.5t-81 21q-26 9 -44 17.5t-40.5 24t-34.5 39.5t-12 54q0 62 50 103t137 41q98 0 225 -60l-58 -86q-98 41 -163 41q-26 0 -44 -8t-18 -22q0 -15 18.5 -22.5t66.5 -18t81 -21.5 q135 -39 135 -135q0 -62 -52.5 -102.5t-143.5 -40.5q-125 0 -244 67zM578 975v459h133l129 -250l133 250h131v-459h-127v262l-98 -186h-76l-98 188v-264h-127z" />
<glyph unicode="&#x2122;" horiz-adv-x="1216" d="M106 1327v107h416v-107h-145v-352h-127v352h-144zM571 975v459h131l132 -248l131 248h131v-459h-125v264l-99 -188h-77l-99 188v-264h-125z" />
<glyph unicode="&#x2126;" horiz-adv-x="1497" d="M84 768q0 112 25.5 213.5t80 188.5t132 150.5t187.5 99.5t241 36t241 -36t187 -99.5t130.5 -151t79 -188.5t25.5 -213q0 -181 -64 -310.5t-155 -168.5h182v-289h-569v299q129 32 190.5 147t61.5 279q0 202 -74.5 317t-234.5 115q-161 0 -236.5 -115t-75.5 -315 q0 -166 62 -280t190 -148v-299h-567v289h180q-91 41 -155 170t-64 309z" />
<glyph unicode="&#x2153;" horiz-adv-x="1769" d="M43 1292l244 142h225v-861h-236v646l-141 -78zM362 0l621 1434h252l-621 -1434h-252zM985 104l102 158q151 -80 254 -80q55 0 85 20t30 58q0 31 -21 51t-59 28t-67.5 10.5t-69.5 2.5h-37v197h43q176 0 176 76q0 55 -82 55q-52 0 -113 -23t-108 -51l-96 146 q161 122 356 122q140 0 209.5 -60t69.5 -152q0 -125 -127 -187q71 -26 117.5 -85.5t46.5 -133.5q0 -52 -16.5 -98t-52.5 -86t-101.5 -63t-153.5 -23q-203 0 -385 118z" />
<glyph unicode="&#x2154;" horiz-adv-x="1990" d="M74 573v97q0 61 21.5 115.5t61.5 99.5t80.5 78t94.5 67q21 13 58 35.5t53.5 33.5t37.5 27t29 31t8 31q0 28 -24.5 46.5t-69.5 18.5q-90 0 -225 -82l-103 150q177 127 363 127q145 0 221 -71t76 -179q0 -49 -17.5 -92.5t-41 -73.5t-64 -61t-69 -47.5t-72.5 -40.5 q-42 -25 -65 -40t-44 -36.5t-21 -38.5h396v-195h-684zM596 0l621 1434h251l-620 -1434h-252zM1221 104l102 158q151 -80 254 -80q55 0 85 20t30 58q0 31 -21 51t-59 28t-67.5 10.5t-69.5 2.5h-37v197h43q176 0 176 76q0 55 -82 55q-52 0 -113 -23t-108 -51l-97 146 q161 122 357 122q139 0 208.5 -60t69.5 -152q0 -125 -127 -187q71 -26 117.5 -85.5t46.5 -133.5q0 -41 -9.5 -78.5t-33.5 -73t-60 -61.5t-92.5 -41.5t-127.5 -15.5q-203 0 -385 118z" />
<glyph unicode="&#x2155;" horiz-adv-x="1792" d="M43 1292l244 142h225v-861h-236v646l-141 -78zM362 0l621 1434h252l-621 -1434h-252zM1008 102l102 170q125 -86 225 -86q57 0 93 26t36 71q0 43 -32.5 72.5t-96.5 29.5q-70 0 -155 -45l-129 82l45 438h573v-194h-377l-6 -105q52 12 109 12q150 0 228.5 -82.5 t78.5 -205.5q0 -126 -86 -212.5t-248 -86.5q-175 0 -360 116z" />
<glyph unicode="&#x2156;" horiz-adv-x="2002" d="M70 573v97q0 61 21.5 115.5t61.5 99.5t80.5 78t94.5 67q21 13 58 35.5t53.5 33.5t37.5 27t29 31t8 31q0 28 -24.5 46.5t-69.5 18.5q-90 0 -225 -82l-103 150q177 127 363 127q145 0 221 -71t76 -179q0 -49 -17.5 -92.5t-41.5 -73.5t-64.5 -61t-68.5 -47.5t-73 -40.5 q-63 -37 -96 -63.5t-33 -51.5h396v-195h-684zM592 0l620 1434h252l-620 -1434h-252zM1237 102l102 170q125 -86 226 -86q57 0 93 26t36 71q0 43 -32.5 72.5t-96.5 29.5q-71 0 -156 -45l-129 82l45 438h573v-194h-376l-6 -105q52 12 108 12q150 0 228.5 -82.5t78.5 -205.5 q0 -126 -86 -212.5t-248 -86.5q-175 0 -360 116z" />
<glyph unicode="&#x2157;" horiz-adv-x="1951" d="M57 678l103 158q151 -80 254 -80q54 0 84 20t30 58q0 31 -21 51t-59 28t-67.5 10.5t-69.5 2.5h-37v196h43q177 0 177 76q0 55 -82 55q-52 0 -114 -22.5t-108 -50.5l-96 145q163 123 357 123q139 0 208.5 -60.5t69.5 -152.5q0 -124 -127 -186q71 -26 117.5 -86t46.5 -134 q0 -52 -16.5 -98t-52.5 -86t-101.5 -63t-153.5 -23q-201 0 -385 119zM535 0l620 1434h252l-621 -1434h-251zM1180 102l102 170q125 -86 225 -86q57 0 93 26t36 71q0 43 -32.5 72.5t-96.5 29.5q-70 0 -155 -45l-129 82l45 438h573v-194h-377l-6 -105q52 12 109 12 q150 0 228.5 -82.5t78.5 -205.5q0 -126 -86 -212.5t-248 -86.5q-175 0 -360 116z" />
<glyph unicode="&#x2158;" horiz-adv-x="2048" d="M53 723v162l367 549h311v-516h127v-195h-127v-150h-235v150h-443zM287 918h209v319zM629 0l620 1434h252l-620 -1434h-252zM1276 102l102 170q125 -86 226 -86q57 0 93 26t36 71q0 43 -32.5 72.5t-96.5 29.5q-71 0 -156 -45l-129 82l45 438h573v-194h-376l-7 -105 q52 12 109 12q150 0 228.5 -82.5t78.5 -205.5q0 -126 -86 -212.5t-248 -86.5q-175 0 -360 116z" />
<glyph unicode="&#x2159;" horiz-adv-x="1732" d="M43 1292l244 142h225v-861h-236v646l-141 -78zM362 0l621 1434h252l-621 -1434h-252zM938 365q0 221 146 365t380 144q36 0 70 -3.5t50 -6.5l15 -4l-55 -182q-35 6 -78 6q-56 0 -105.5 -16.5t-94.5 -59t-68 -106.5q75 55 182 55q119 0 196 -73.5t77 -194.5 q0 -128 -94 -215.5t-250 -87.5q-94 0 -167 31t-116.5 84.5t-65.5 120t-22 143.5zM1174 326q1 -79 40.5 -114.5t88.5 -35.5q58 0 87 31.5t29 73.5q0 45 -32 73.5t-84 28.5q-77 0 -129 -57z" />
<glyph unicode="&#x215a;" horiz-adv-x="1865" d="M59 676l103 170q125 -86 225 -86q57 0 93 25.5t36 70.5q0 43 -32.5 72.5t-96.5 29.5q-71 0 -156 -45l-129 82l45 439h574v-195h-377l-6 -104q52 12 108 12q150 0 229 -83t79 -206q0 -126 -86 -212.5t-248 -86.5q-174 0 -361 117zM506 0l620 1434h252l-620 -1434h-252z M1081 365q0 221 146.5 365t380.5 144q36 0 70 -3.5t50 -6.5l15 -4l-55 -182q-35 6 -78 6q-88 0 -161.5 -44t-107.5 -138q75 55 183 55q119 0 195.5 -73.5t76.5 -194.5q0 -128 -94 -215.5t-250 -87.5q-94 0 -167 31t-116.5 84.5t-65.5 120t-22 143.5zM1317 326 q1 -79 40.5 -114.5t88.5 -35.5q58 0 87.5 31.5t29.5 73.5q0 45 -32.5 73.5t-84.5 28.5q-77 0 -129 -57z" />
<glyph unicode="&#x215b;" horiz-adv-x="1781" d="M43 1292l244 142h225v-861h-236v646l-141 -78zM362 0l621 1434h252l-621 -1434h-252zM975 236q0 151 176 235q-123 75 -123 188q0 97 83.5 156t234.5 59q150 0 231.5 -59t81.5 -156q0 -112 -123 -190q81 -39 128.5 -93.5t47.5 -139.5q0 -116 -95 -183t-271 -67 q-179 0 -275 67t-96 183zM1212 256q0 -41 37 -67.5t97 -26.5q58 0 93.5 27t35.5 67q0 39 -34 67.5t-98 57.5q-64 -28 -97.5 -57t-33.5 -68zM1257 637q0 -55 86 -92q87 39 87 92q0 25 -22.5 46.5t-61.5 21.5q-42 0 -65.5 -21.5t-23.5 -46.5z" />
<glyph unicode="&#x215c;" horiz-adv-x="1943" d="M57 678l103 158q151 -80 254 -80q54 0 84 20t30 58q0 31 -21 51t-59 28t-67.5 10.5t-69.5 2.5h-37v196h43q177 0 177 76q0 55 -82 55q-52 0 -114 -22.5t-108 -50.5l-96 145q163 123 357 123q139 0 208.5 -60.5t69.5 -152.5q0 -124 -127 -186q71 -26 117.5 -86t46.5 -134 q0 -52 -16.5 -98t-52.5 -86t-101.5 -63t-153.5 -23q-201 0 -385 119zM535 0l620 1434h252l-621 -1434h-251zM1147 236q0 151 176 235q-123 75 -123 188q0 97 83.5 156t234.5 59q150 0 231.5 -59t81.5 -156q0 -112 -123 -190q81 -39 128.5 -93.5t47.5 -139.5q0 -116 -95 -183 t-271 -67q-179 0 -275 67t-96 183zM1384 256q0 -41 37 -67.5t97 -26.5q58 0 93.5 27t35.5 67q0 39 -33.5 68t-97.5 57q-64 -29 -98 -57.5t-34 -67.5zM1430 637q0 -55 86 -92q86 38 86 92q0 25 -22.5 46.5t-61.5 21.5q-42 0 -65 -21.5t-23 -46.5z" />
<glyph unicode="&#x215d;" horiz-adv-x="1914" d="M59 676l103 170q125 -86 225 -86q57 0 93 25.5t36 70.5q0 43 -32.5 72.5t-96.5 29.5q-71 0 -156 -45l-129 82l45 439h574v-195h-377l-6 -104q52 12 108 12q150 0 229 -83t79 -206q0 -126 -86 -212.5t-248 -86.5q-174 0 -361 117zM506 0l620 1434h252l-620 -1434h-252z M1118 236q0 151 176 235q-123 75 -123 188q0 97 83.5 156t234.5 59q150 0 231.5 -59t81.5 -156q0 -112 -123 -190q81 -39 128.5 -93.5t47.5 -139.5q0 -116 -95 -183t-271 -67q-179 0 -275 67t-96 183zM1356 256q0 -41 36.5 -67.5t96.5 -26.5q58 0 93.5 27t35.5 67 q0 39 -33.5 68t-97.5 57q-64 -28 -97.5 -57t-33.5 -68zM1401 637q0 -55 86 -92q86 38 86 92q0 25 -22.5 46.5t-61.5 21.5q-42 0 -65 -21.5t-23 -46.5z" />
<glyph unicode="&#x215e;" horiz-adv-x="1738" d="M59 1239v195h623v-183q-12 -15 -32 -41.5t-72 -106t-91 -157t-71.5 -181.5t-32.5 -192h-242q0 84 29 182.5t63 169.5t85 152t70 106.5t42 55.5h-371zM332 0l620 1434h252l-620 -1434h-252zM944 236q0 151 176 235q-123 75 -123 188q0 97 83.5 156t234.5 59 q150 0 231.5 -59t81.5 -156q0 -112 -123 -190q81 -39 128.5 -93.5t47.5 -139.5q0 -116 -95 -183t-271 -67q-179 0 -275 67t-96 183zM1182 256q0 -41 36.5 -67.5t96.5 -26.5q58 0 93.5 27t35.5 67q0 39 -33.5 68t-97.5 57q-64 -28 -97.5 -57t-33.5 -68zM1227 637 q0 -55 86 -92q86 38 86 92q0 25 -22.5 46.5t-61.5 21.5q-42 0 -65 -21.5t-23 -46.5z" />
<glyph unicode="&#x2202;" horiz-adv-x="1259" d="M72 477q0 223 129 360.5t327 137.5q61 0 115 -14t87.5 -33.5t59 -39.5t36.5 -34l10 -14q-40 147 -163 238t-306 91q-42 0 -82.5 -4t-60.5 -8l-19 -4l-35 258q74 23 205 23q156 0 287.5 -43t225.5 -119t160 -181t98 -229t32 -262q0 -300 -150 -461.5t-418 -161.5 q-251 0 -394.5 135t-143.5 365zM422 475q0 -49 10.5 -89.5t34 -75.5t66 -54.5t100.5 -19.5q112 0 161.5 66.5t49.5 172.5q0 50 -10.5 91.5t-34 76.5t-65.5 54.5t-101 19.5t-101.5 -20.5t-65.5 -56t-33.5 -76t-10.5 -89.5z" />
<glyph unicode="&#x2206;" horiz-adv-x="1437" d="M35 0l504 1434h364l502 -1434h-1370zM440 289h557l-276 805z" />
<glyph unicode="&#x220f;" horiz-adv-x="1423" d="M59 1145v289h1303v-289h-168v-1145h-350v1145h-266v-1145h-351v1145h-168z" />
<glyph unicode="&#x2211;" horiz-adv-x="1183" d="M70 0v152l497 565l-497 565v152h1022v-289h-500l375 -428l-375 -428h500v-289h-1022z" />
<glyph unicode="&#x2212;" horiz-adv-x="1273" d="M141 557v252h989v-252h-989z" />
<glyph unicode="&#x221a;" horiz-adv-x="1269" d="M6 696h361l161 -383l410 1121h350l-551 -1434h-397z" />
<glyph unicode="&#x221e;" horiz-adv-x="1751" d="M88 528q0 162 99.5 265.5t265.5 103.5q118 0 215 -57t211 -168q113 112 207.5 168.5t213.5 56.5q166 0 264.5 -103t98.5 -266q0 -164 -98.5 -266t-266.5 -102q-114 0 -206.5 55t-212.5 170q-118 -113 -213.5 -169t-212.5 -56q-166 0 -265.5 103t-99.5 265zM334 528 q0 -67 44 -108t109 -41q58 0 109 34t135 115q-87 83 -137.5 116.5t-106.5 33.5q-65 0 -109 -41.5t-44 -108.5zM1024 528q80 -80 131 -114.5t109 -34.5q65 0 110 41t45 108t-44.5 108.5t-110.5 41.5q-56 0 -107 -34t-133 -116z" />
<glyph unicode="&#x222b;" horiz-adv-x="774" d="M18 -104h39q32 0 57 10t41.5 24t27.5 39t17 46t9 56t3.5 56.5t0.5 58.5v1082q0 131 26.5 216.5t89 138t156.5 74t238 21.5h33v-188h-39q-32 0 -57 -10t-41.5 -24t-27.5 -39.5t-17 -46.5t-9 -56.5t-3.5 -57.5t-0.5 -59v-1079q0 -131 -26.5 -216.5t-89 -138.5t-156.5 -74.5 t-238 -21.5h-33v189z" />
<glyph unicode="&#x2248;" horiz-adv-x="1273" d="M141 412q51 132 125 205t183 73q54 0 109 -20t93.5 -44.5t87 -44.5t90.5 -20q40 0 73.5 23.5t68.5 91.5l159 -66q-50 -132 -123 -205t-182 -73q-51 0 -106.5 20.5t-96 45t-91 45t-91.5 20.5q-37 0 -68.5 -24t-70.5 -93zM141 803q51 132 125 205t183 73q54 0 109 -20 t93.5 -44.5t87 -44.5t90.5 -20q41 0 74 22.5t68 90.5l159 -64q-49 -133 -122.5 -205.5t-182.5 -72.5q-51 0 -106.5 20t-96 44.5t-91 44.5t-91.5 20q-38 0 -69.5 -23.5t-69.5 -91.5z" />
<glyph unicode="&#x2260;" horiz-adv-x="1273" d="M141 362v252h346l56 144h-402v250h498l111 280l211 -80l-80 -200h249v-250h-346l-57 -144h403v-252h-501l-109 -280l-209 80l78 200h-248z" />
<glyph unicode="&#x2264;" horiz-adv-x="1273" d="M125 0v215h987v-215h-987zM125 631v196l987 371v-283l-567 -186l567 -190v-277z" />
<glyph unicode="&#x2265;" horiz-adv-x="1273" d="M160 0v215h987v-215h-987zM160 262v277l567 190l-567 186v283l987 -371v-196z" />
<glyph unicode="&#x2318;" horiz-adv-x="1466" d="M94 373q0 120 85.5 204.5t205.5 84.5h107v116h-107q-120 0 -205.5 85.5t-85.5 205.5t85.5 204.5t205.5 84.5t205.5 -84.5t85.5 -204.5v-106h115v106q0 120 85 204.5t205 84.5t204.5 -84.5t84.5 -204.5t-84.5 -205.5t-204.5 -85.5h-106v-116h106q120 0 204.5 -84.5 t84.5 -204.5q0 -121 -84.5 -206t-204.5 -85t-205 85t-85 206v104h-115v-104q0 -121 -85.5 -206t-205.5 -85t-205.5 85t-85.5 206zM279 373q0 -44 31 -75.5t75 -31.5q43 0 75 31.5t32 75.5v104h-107q-44 0 -75 -30.5t-31 -73.5zM279 1069q0 -44 31 -75t75 -31h107v106 q0 43 -32 74t-75 31q-44 0 -75 -31t-31 -74zM676 662h115v116h-115v-116zM975 373q0 -44 31 -75.5t75 -31.5q43 0 74 31.5t31 75.5q0 43 -31 73.5t-74 30.5h-106v-104zM975 963h106q43 0 74 31t31 75q0 43 -31 74t-74 31q-44 0 -75 -31t-31 -74v-106z" />
<glyph unicode="&#x25ca;" horiz-adv-x="1167" d="M59 717l353 717h340l354 -717l-354 -717h-340zM375 717l207 -414l206 414l-206 413z" />
<glyph unicode="&#xe000;" horiz-adv-x="1075" d="M0 0v1075h1075v-1075h-1075z" />
<glyph unicode="&#xf639;" horiz-adv-x="1335" d="M84 717q0 352 150 545.5t434 193.5t433.5 -193t149.5 -546t-150 -546.5t-435 -193.5q-284 0 -433 193t-149 547zM436 717q0 -245 58.5 -357t171.5 -112q231 0 231 469t-229 469q-232 0 -232 -469z" />
<glyph unicode="&#xf63a;" horiz-adv-x="1335" d="M121 0v152q0 84 24.5 161t61.5 135.5t94.5 116.5t109.5 98.5t121 86.5q28 19 77.5 52t73 49t57 42.5t48.5 45.5t27 45t12 52q0 56 -42 93.5t-121 37.5q-143 0 -355 -133l-153 223q41 32 89 61t120.5 63t164 54.5t185.5 20.5q115 0 205 -31.5t146 -87t85 -128t29 -156.5 q0 -78 -26.5 -149.5t-58.5 -118t-97 -102t-102 -80.5t-113 -73q-17 -11 -25 -16q-53 -33 -83 -54.5t-64.5 -51.5t-50 -59t-15.5 -60h637v-289h-1061z" />
<glyph unicode="&#xf63b;" horiz-adv-x="1335" d="M94 164l154 237q245 -131 399 -131q93 0 145 41t52 117q0 46 -24.5 81t-60.5 54t-86.5 30.5t-92 15t-88.5 3.5h-58v289h68q49 0 94 6.5t92 21.5t75 47t28 77q0 54 -36.5 84t-107.5 30q-83 0 -178 -36.5t-174 -83.5l-141 217q257 192 548 192q111 0 196.5 -28t137 -77 t77.5 -111t26 -134q0 -209 -207 -315q116 -39 191 -140t75 -229q0 -68 -16 -130t-53.5 -120.5t-94 -101t-144.5 -68t-198 -25.5q-297 0 -598 187z" />
<glyph unicode="&#xf63c;" horiz-adv-x="1335" d="M51 262v242l588 930h440v-883h187v-289h-187v-262h-342v262h-686zM379 551h358v575z" />
<glyph unicode="&#xf63d;" horiz-adv-x="1335" d="M117 162l151 252q202 -138 355 -138q95 0 156 51.5t61 141.5q0 83 -54.5 140t-160.5 57q-110 0 -250 -78l-195 121l72 725h891v-289h-596l-12 -221q86 22 176 22q120 0 214 -38.5t152 -105.5t87.5 -151t29.5 -180q0 -98 -32 -185.5t-94 -157t-165 -110.5t-233 -41 q-280 0 -553 185z" />
<glyph unicode="&#xf63e;" horiz-adv-x="1335" d="M121 592q-1 195 60 357.5t170 273t261 172t330 61.5q56 0 108 -5.5t76 -10.5l25 -6l-82 -273q-55 13 -125 13q-68 0 -131 -18t-123 -57t-108.5 -110t-75.5 -168q123 105 299 105q189 0 309.5 -124.5t120.5 -322.5q0 -102 -37 -192.5t-104 -159.5t-169 -109.5t-225 -40.5 q-118 0 -215.5 34t-164 92t-112 137.5t-66.5 167.5t-21 184zM473 549q0 -139 65.5 -214t151.5 -75q98 0 146.5 61.5t48.5 143.5q0 87 -52.5 145t-142.5 58q-74 0 -129.5 -35.5t-87.5 -83.5z" />
<glyph unicode="&#xf63f;" horiz-adv-x="1335" d="M193 1145v289h972v-271q-10 -13 -27 -36.5t-66.5 -98t-95 -151.5t-100.5 -189t-94.5 -218.5t-66.5 -232t-27 -237.5h-360q0 145 46 313.5t103.5 295.5t134.5 259t113.5 185t65.5 92h-598z" />
<glyph unicode="&#xf640;" horiz-adv-x="1335" d="M92 389q0 74 23 136.5t65 109t90 81t109 64.5q-201 127 -201 322q0 159 129 256.5t361 97.5t361.5 -97.5t129.5 -256.5q0 -193 -205 -322q62 -30 110 -64.5t90.5 -81t65.5 -109t23 -136.5q0 -192 -150.5 -302t-424.5 -110t-425 110t-151 302zM446 416q0 -77 61.5 -126.5 t160.5 -49.5t160 49.5t61 126.5q0 75 -58.5 129.5t-162.5 101.5q-105 -47 -163.5 -101t-58.5 -130zM518 1069q0 -105 150 -172q149 67 149 172q0 51 -39.5 92t-109.5 41t-110 -41t-40 -92z" />
<glyph unicode="&#xf641;" horiz-adv-x="1335" d="M100 954q0 102 37 192.5t104 159.5t169 109.5t225 40.5q118 0 215.5 -34t164 -92t112 -137t66.5 -167t21 -184q1 -195 -60 -357.5t-170 -273.5t-261 -172.5t-330 -61.5q-56 0 -108 5.5t-77 11.5l-24 6l82 272q55 -12 125 -12q68 0 130.5 18t123 57t109 109.5t75.5 167.5 q-123 -106 -299 -106q-188 0 -309 124.5t-121 323.5zM451 967q0 -86 52 -143.5t142 -57.5q72 0 128.5 35.5t88.5 81.5q-1 140 -66 215.5t-149 75.5q-98 0 -147 -62t-49 -145z" />
<glyph unicode="&#xf6c3;" horiz-adv-x="276" d="M6 -543l111 168h-107v262h240l14 -290l-196 -220z" />
<glyph unicode="&#xf6dc;" horiz-adv-x="1335" d="M125 0v289h391v821l-254 -143l-137 225l407 242h332v-1145h391v-289h-1130z" />
<glyph unicode="&#xf6df;" horiz-adv-x="702" d="M55 123q0 162 79.5 245.5t199.5 90.5v94h158v-115q67 -16 165 -61l-88 -166q-112 55 -178 55q-52 0 -78 -38t-26 -105q0 -66 26 -104.5t78 -38.5q66 0 178 55l88 -170q-83 -38 -165 -60v-112h-158v94q-122 6 -200.5 90.5t-78.5 245.5z" />
<glyph unicode="&#xf6e0;" horiz-adv-x="702" d="M55 1219q0 161 79 244.5t200 90.5v95h158v-115q67 -16 165 -61l-88 -166q-112 55 -178 55q-52 0 -78 -38t-26 -105q0 -66 26 -105t78 -39q66 0 178 55l88 -169q-83 -38 -165 -60v-113h-158v95q-122 6 -200.5 90.5t-78.5 245.5z" />
<glyph unicode="&#xf6e1;" horiz-adv-x="391" d="M78 -451l102 144h-100v237h225l12 -268l-180 -186z" />
<glyph unicode="&#xf6e2;" horiz-adv-x="393" d="M80 645l102 143h-100v238h225l12 -268l-180 -187z" />
<glyph unicode="&#xf6e3;" horiz-adv-x="808" d="M33 -199l104 168q59 -35 148.5 -65.5t150.5 -30.5q39 0 63.5 14t24.5 41q0 19 -13.5 32.5t-41 23.5t-57 18t-75.5 22t-83 29q-37 14 -70 33.5t-64.5 49t-50 71.5t-18.5 92q0 110 73 183t208 83v113h160v-121q132 -22 256 -84l-105 -170q-57 26 -130.5 48t-125.5 22 q-38 0 -63 -14t-25 -42t30.5 -43t107 -34.5t128.5 -40.5q39 -16 69 -33.5t64.5 -47t54 -73t19.5 -96.5q0 -109 -73.5 -183.5t-206.5 -84.5v-111h-160v119q-164 27 -299 112z" />
<glyph unicode="&#xf6e4;" horiz-adv-x="808" d="M33 897l104 168q59 -35 148.5 -65.5t150.5 -30.5q39 0 63.5 14t24.5 41q0 19 -13.5 32.5t-41 23.5t-57 18t-75.5 22t-83 29q-37 14 -70 33.5t-64.5 49t-50 71.5t-18.5 92q0 110 73 183t208 83v113h160v-121q132 -22 256 -84l-105 -170q-56 26 -130 47.5t-126 21.5 q-38 0 -63 -13.5t-25 -41.5t30.5 -43t107 -35t128.5 -41q39 -16 69 -33.5t64.5 -47t54 -73t19.5 -96.5q0 -110 -73.5 -184t-206.5 -84v-110h-160v118q-170 28 -299 113z" />
<glyph unicode="&#xf6e7;" horiz-adv-x="385" d="M80 -70h225v-237h-225v237z" />
<glyph unicode="&#xf6e8;" horiz-adv-x="389" d="M82 788v238h225v-238h-225z" />
<glyph unicode="&#xf6e9;" horiz-adv-x="774" d="M37 989q0 96 65.5 151.5t173.5 55.5q55 0 193 -27v31q0 44 -21 61t-75 17q-72 0 -226 -43l-69 151q195 62 340 62q149 0 213.5 -60.5t64.5 -201.5v-398h-227v68q-98 -82 -211 -82q-101 0 -161 61t-60 154zM266 1010q0 -30 18.5 -47t51.5 -17q72 0 133 53v62 q-93 18 -117 18q-86 0 -86 -69z" />
<glyph unicode="&#xf6ea;" horiz-adv-x="811" d="M88 788v895h225v-315q94 80 201 80q117 0 183.5 -88t66.5 -250q0 -161 -66.5 -248.5t-183.5 -87.5q-105 0 -201 78v-64h-225zM313 1022q60 -68 127 -68q95 0 95 158q0 154 -95 154q-67 0 -127 -68v-176z" />
<glyph unicode="&#xf6eb;" horiz-adv-x="811" d="M45 1110q0 162 67 250t183 88q62 0 107.5 -20.5t93.5 -59.5v315h225v-895h-225v64q-49 -38 -94 -58t-107 -20q-116 0 -183 88t-67 248zM274 1112q0 -158 95 -158q67 0 127 68v176q-60 68 -127 68q-95 0 -95 -154z" />
<glyph unicode="&#xf6ec;" horiz-adv-x="733" d="M41 1108q0 160 86 250t244 90q153 0 233 -79.5t80 -209.5q0 -24 -2.5 -47.5t-5.5 -35.5l-2 -11h-402q6 -64 31.5 -94.5t77.5 -30.5q81 0 229 74l78 -140q-31 -19 -71.5 -38.5t-115.5 -40.5t-145 -21q-140 0 -227.5 83.5t-87.5 250.5zM272 1180h193q-3 108 -94 108 q-84 0 -99 -108z" />
<glyph unicode="&#xf6ed;" horiz-adv-x="405" d="M84 1503v178h233v-178h-233zM88 788v646h227v-646h-227z" />
<glyph unicode="&#xf6ee;" horiz-adv-x="405" d="M88 788v895h225v-895h-225z" />
<glyph unicode="&#xf6ef;" horiz-adv-x="1189" d="M88 788v646h225v-76q99 90 205 90q131 0 176 -105q105 105 219 105q193 0 193 -209v-451h-227v398q0 44 -11 65t-45 21q-56 0 -112 -64v-420h-228v398q0 44 -11 65t-46 21q-29 0 -60 -19.5t-53 -46.5v-418h-225z" />
<glyph unicode="&#xf6f0;" horiz-adv-x="774" d="M43 1112q0 161 89 248.5t257 87.5q165 0 254.5 -88.5t89.5 -249.5q0 -160 -89.5 -248t-254.5 -88q-166 0 -256 88.5t-90 249.5zM270 1112q0 -164 119 -164q117 0 117 162q0 164 -117 164q-119 0 -119 -162z" />
<glyph unicode="&#xf6f1;" horiz-adv-x="571" d="M88 788v646h225v-134q8 20 22.5 41.5t41 48t71 41t99.5 11.5v-215q-59 0 -105 -21.5t-69 -51.5t-38 -60.5t-19 -51.5l-3 -22v-232h-225z" />
<glyph unicode="&#xf6f2;" horiz-adv-x="690" d="M35 860l80 146q55 -27 132 -49.5t122 -22.5q59 0 59 35q0 9 -9 16.5t-26 13.5t-35 10.5t-44.5 10.5t-45.5 12q-221 57 -221 213q0 89 67.5 146t194.5 57q83 0 169.5 -22.5t150.5 -51.5l-80 -133q-140 49 -217 49q-58 0 -58 -35q0 -11 7.5 -18.5t24.5 -13t33.5 -9.5 t45.5 -10.5t49 -11.5q44 -12 78.5 -26.5t69.5 -39t54 -62.5t19 -87q0 -93 -70 -148t-200 -55q-90 0 -187 26t-163 60z" />
<glyph unicode="&#xf6f3;" horiz-adv-x="567" d="M27 1268v166h84v161l227 25v-186h168v-166h-168v-240q0 -25 8.5 -38.5t17 -16t21.5 -2.5q12 0 29.5 5.5t35.5 13t19 7.5l78 -166q-116 -57 -223 -57q-111 0 -162 63t-51 191v240h-84z" />
<glyph unicode="&#xf8ff;" horiz-adv-x="1755" d="M146.5 560.5q-2.5 11.5 15.5 21.5l57 41q2 1 3.5 2.5l3 3l2.5 2.5t2 3l1 1q19 16 37 -12l33 -64q6 -12 13.5 -15.5t14 2t9.5 17.5l18 70q4 19 18.5 21t26.5 -13l48 -53q14 -15 23 -11.5t11 23.5l4 70q3 20 15.5 25t27.5 -7l58 -43q17 -12 25.5 -6.5t4.5 25.5l-8 69 q-3 20 8.5 28t28.5 -1l64 -29q19 -9 26.5 -1.5t1.5 26.5l-22 67q-8 19 0.5 29t27.5 4l15 -2q40 -77 70 -202.5t30 -217.5q-15 -18 -34.5 -27.5t-59.5 -9.5h-8q0 46 -33 72q18 -21 18 -55v-15q-32 3 -32 39q0 43 -28 72t-77 29q-41 0 -68.5 -32t-27.5 -79q0 -60 49.5 -96.5 t138.5 -36.5q85 0 172 42t156.5 112t125 154.5t86 175.5t30.5 169q0 59 -36.5 98t-94.5 39q-48 0 -85.5 -33.5t-37.5 -84.5q0 -106 119 -119q-29 -119 -60 -174q-12 96 -43.5 178t-75.5 129q91 -120 107 -330l-29 -41q0 156 -51 287t-131 172q-5 9 2 18.5t22 12.5l70 12 q19 3 21 13.5t-15 21.5l-59 39q-15 13 -13.5 26.5t19.5 20.5l64 29q14 4 19 10t0 13t-19 13l-64 27q-23 10 -20 29q11 6 14 16l35 62q9 19 20.5 18t16.5 -20l20 -68q6 -21 18.5 -24t26.5 14l47 53q12 15 23 12.5t12 -22.5l4 -72q1 -21 14.5 -26t28.5 8l57 43q15 12 24 5.5 t7 -26.5l-10 -70q-1 -20 10.5 -27.5t28.5 1.5l63 33q19 8 26.5 0t0.5 -29l-23 -64q-6 -20 3 -30t28 -4l70 14q20 6 26.5 -2t-4.5 -27l-37 -59q-12 -17 -5.5 -29.5t26.5 -11.5l72 4q21 0 25 -11t-9 -24l-49 -53q-14 -13 -10.5 -26.5t24.5 -16.5l70 -12q43 -10 6 -39l-57 -39 q-16 -10 -15 -24t21 -21l63 -27q12 -5 16.5 -12t0 -13.5t-16.5 -11.5l-63 -26q-20 -7 -21 -22t15 -25l57 -41q11 -7 14.5 -14.5t-2 -13.5t-18.5 -9l-70 -13q-21 -3 -24.5 -16.5t10.5 -28.5l49 -49q13 -14 9 -24.5t-25 -10.5l-72 5q-20 0 -26.5 -12t5.5 -29l37 -62 q10 -17 4 -25.5t-26 -5.5l-70 19q-19 4 -28 -6t-3 -29l23 -68q8 -19 0 -26t-27 2l-63 31q-17 9 -28.5 1t-10.5 -30l10 -68q1 -21 -7.5 -25.5t-23.5 7.5l-57 43q-15 12 -28.5 5.5t-14.5 -26.5l-4 -69q-1 -20 -12 -23t-23 11l-47 55q-13 14 -26 12t-19 -22l-20 -68 q-3 -13 -9.5 -18t-14 -1t-13.5 15l-35 61q-9 19 -22 19t-25 -19l-31 -61q-6 -11 -13.5 -15t-14 1t-9.5 18l-20 68q-6 20 -19 22t-26 -12l-47 -55q-12 -14 -22 -11t-13 23l-4 69q-2 20 -15 26.5t-30 -5.5l-54 -43q-17 -13 -26.5 -8t-5.5 26l10 68q1 22 -10.5 30t-30.5 -1 l-62 -31q-19 -9 -26.5 -2t0.5 26l22 68q7 19 -2 29.5t-28 5.5l-70 -19q-20 -3 -26.5 5.5t3.5 25.5l39 62q11 17 4.5 29t-26.5 12l-72 -5q-21 0 -25 10.5t9 24.5l51 49q13 15 9 28.5t-25 16.5l-68 13q-21 4 -23.5 15.5zM623 281q43 -27 122 -27q106 0 212.5 65t183.5 162 t125.5 212t48.5 214q0 63 -41 101q24 -38 24 -84q0 -100 -47.5 -215t-126.5 -215q-85 -105 -188.5 -168.5t-212.5 -63.5q-57 0 -100 19z" />
<glyph unicode="&#xfb06;" horiz-adv-x="1892" d="M43 119l129 237q90 -45 208.5 -82.5t194.5 -37.5q95 0 95 59q0 15 -7 27t-23 22.5t-31 18.5t-43.5 16.5t-47 14t-54.5 14.5t-54 14q-55 15 -99 32.5t-92.5 46.5t-81 64.5t-53.5 88.5t-21 116q0 146 106 237t302 91q114 0 246 -33q-12 46 -12 98q0 148 105 239t290 91 q220 0 338 -105.5t118 -295.5v-17h269v-246h-269v-460q0 -32 7 -53t19.5 -30.5t24 -12.5t27.5 -3q50 0 140 45l116 -247q-199 -91 -346 -91q-165 0 -245 97t-80 297v458h-134v246h134v37q0 121 -39.5 177.5t-135.5 56.5q-80 0 -135 -54.5t-55 -146.5q0 -71 23 -129 q45 -16 88 -37l-129 -219q-76 32 -175.5 58t-164.5 26q-95 0 -95 -60q0 -21 12.5 -37t42 -28.5t53 -19.5t71.5 -18.5t73 -18.5q55 -15 100.5 -32.5t95.5 -47.5t83.5 -67t55.5 -91t22 -119q0 -151 -111 -239.5t-311 -88.5q-144 0 -296 43t-249 99z" />
<glyph horiz-adv-x="817" d="M47 1143q0 129 93 217t251 88q94 0 167 -31t116.5 -84.5t65.5 -120t22 -143.5q0 -222 -146 -366t-383 -144q-35 0 -67.5 3.5t-47.5 7.5l-16 3l52 183q36 -6 79 -6q87 0 159 42.5t106 135.5q-75 -51 -179 -51q-119 0 -195.5 73t-76.5 193zM283 1153q0 -45 30.5 -74.5 t83.5 -29.5q76 0 127 55q-1 56 -22.5 92t-48 48.5t-56.5 12.5q-58 0 -86 -31.5t-28 -72.5z" />
<glyph horiz-adv-x="1216" d="M29 1432q0 109 61.5 170t179.5 61q120 0 182 -61t62 -170t-62 -169.5t-182 -60.5q-118 0 -179.5 60.5t-61.5 169.5zM193 1432q0 -97 77 -97q82 0 82 97q0 96 -82 96q-77 0 -77 -96zM301 774l436 875h170l-436 -875h-170zM702 1006q0 109 62 169t180 60q120 0 182 -60 t62 -169q0 -110 -62 -171t-182 -61q-118 0 -180 61t-62 171zM866 1006q0 -97 78 -97q80 0 80 97q0 94 -80 94q-78 0 -78 -94z" />
<glyph horiz-adv-x="2617" d="M37 829v246h135v4q0 200 86 297t264 97q199 0 434 -84q85 104 271 104q161 0 356 -59v59h336v-805l266 387h389l-342 -426l400 -649h-355l-241 403l-117 -147v-256h-336v1163q-12 2 -71 13.5t-112 19.5t-85 8q-103 0 -103 -98v-31h238v-246h-238v-829h-335v829h-369v-829 h-336v829h-135zM508 1075h369v68q-9 2 -53.5 10.5t-75.5 14t-72 11t-66 5.5q-102 0 -102 -99v-10z" />
<glyph horiz-adv-x="2039" d="M37 829v246h135v4q0 200 86 297t264 97q199 0 434 -84q85 104 271 104q161 0 356 -59v59h336v-1493h-336v1163q-12 2 -71 13.5t-112 19.5t-85 8q-103 0 -103 -98v-31h238v-246h-238v-829h-335v829h-369v-829h-336v829h-135zM508 1075h369v68q-9 2 -53.5 10.5t-75.5 14 t-72 11t-66 5.5q-102 0 -102 -99v-10z" />
<glyph horiz-adv-x="2256" d="M37 829v246h135v4q0 200 86 297t264 97q202 0 426 -80q78 100 250 100q166 0 361 -90l-113 -240q-111 41 -158 41q-16 0 -27.5 -3t-24 -12t-19.5 -30t-7 -53v-31h375v271l336 40v-311h270v-246h-270v-460q0 -32 7 -53t20 -30.5t25 -12.5t28 -3q35 0 139 45l117 -247 q-199 -91 -348 -91q-165 0 -244.5 97t-79.5 297v458h-375v-829h-336v829h-366v-829h-336v829h-135zM508 1075h366v70q-9 2 -54 10t-75 13.5t-70.5 10.5t-64.5 5q-102 0 -102 -99v-10z" />
<glyph horiz-adv-x="1994" d="M37 829v246h135v25q0 200 86 296.5t264 96.5q170 0 357 -59v59h335v-539q92 64 182 104t193 40q155 0 230 -90t75 -252v-756h-338v678q0 77 -23 118.5t-83 41.5q-57 0 -121 -37t-115 -88v-713h-335v1163q-11 2 -71 13.5t-113 19.5t-85 8q-44 0 -73 -19.5t-29 -78.5v-31 h237v-246h-237v-829h-336v829h-135z" />
<glyph horiz-adv-x="1966" d="M37 829v246h135v4q0 200 86 297t264 97q201 0 436 -84q91 104 285 104q231 0 488 -90l-109 -240q-209 41 -293 41q-117 0 -117 -98v-31h646v-1075h-336v829h-310v-829h-335v829h-369v-829h-336v829h-135zM508 1075h369v68q-9 2 -53.5 10.5t-75.5 14t-72 11t-66 5.5 q-102 0 -102 -99v-10z" />
<glyph horiz-adv-x="1261" d="M37 829v246h135v25q0 200 90 296.5t277 96.5q230 0 487 -90l-108 -240q-209 41 -293 41q-117 0 -117 -98v-31h645v-1075h-336v829h-309v-829h-336v829h-135z" />
<glyph horiz-adv-x="1261" d="M37 829v246h135v25q0 200 90 296.5t277 96.5q230 0 487 -90l-108 -240q-209 41 -293 41q-117 0 -117 -98v-31h645v-1024q0 -169 -14 -232q-25 -110 -119 -174q-98 -66 -315 -116l-109 244q34 12 60 21.5t48 21t37.5 19t28 19.5t20 19.5t13.5 23t8.5 24.5t4 30t1.5 33.5 v40.5v804h-309v-829h-336v829h-135z" />
<glyph horiz-adv-x="1912" d="M37 829v246h135v25q0 200 86 296.5t264 96.5q170 0 357 -59v59h335v-805l267 387h389l-342 -426l399 -649h-354l-242 403l-117 -147v-256h-335v1163q-11 2 -71 13.5t-113 19.5t-85 8q-44 0 -73 -19.5t-29 -78.5v-31h237v-246h-237v-829h-336v829h-135z" />
<glyph horiz-adv-x="2699" d="M37 829v246h135v4q0 200 86 297t264 97q199 0 434 -84q85 104 271 104q161 0 356 -59v59h336v-539q92 64 182 104t193 40q156 0 230.5 -89.5t74.5 -252.5v-756h-338v678q0 77 -23.5 118.5t-83.5 41.5q-57 0 -120.5 -37t-114.5 -88v-713h-336v1163q-12 2 -71 13.5 t-112 19.5t-85 8q-103 0 -103 -98v-31h238v-246h-238v-829h-335v829h-369v-829h-336v829h-135zM508 1075h369v68q-9 2 -53.5 10.5t-75.5 14t-72 11t-66 5.5q-102 0 -102 -99v-10z" />
<glyph horiz-adv-x="1335" d="M37 829v246h135v25q0 200 86 296.5t264 96.5q170 0 357 -59v59h335v-1493h-335v1163q-11 2 -71 13.5t-113 19.5t-85 8q-44 0 -73 -19.5t-29 -78.5v-31h237v-246h-237v-829h-336v829h-135z" />
<glyph horiz-adv-x="1554" d="M37 829v246h135v25q0 200 78.5 296.5t245.5 96.5q170 0 360 -90l-111 -240q-111 41 -157 41q-16 0 -27.5 -3t-25 -12t-20.5 -30t-7 -53v-31h377v271l336 40v-311h268v-246h-268v-460q0 -32 6.5 -53t19 -30.5t24 -12.5t27.5 -3q50 0 140 45l116 -247q-199 -91 -346 -91 q-166 0 -244.5 96.5t-78.5 297.5v458h-377v-829h-336v829h-135z" />
<glyph horiz-adv-x="520" d="M41 172v166h86q0 126 51 188t160 62q96 0 233 -56l-73 -161q-64 24 -97 24q-13 0 -21.5 -2.5t-17 -16t-8.5 -38.5h146v-166h-146v-479h-227v479h-86z" />
<glyph horiz-adv-x="1253" d="M113 504v672h321v-703q0 -105 40.5 -162t152.5 -57q58 0 97 16t59 48t28 68.5t8 86.5v703h322v-672q0 -94 -12.5 -167t-46.5 -142t-90 -114t-148.5 -72t-216.5 -27t-216.5 27t-148.5 72t-90 114t-46.5 142t-12.5 167zM410 1257l237 287h367l-330 -287h-274z" />
<glyph horiz-adv-x="796" d="M45 102l102 170q125 -86 226 -86q57 0 93 26t36 71q0 43 -32.5 72.5t-96.5 29.5q-71 0 -156 -45l-129 82l45 438h574v-194h-377l-6 -105q52 12 108 12q150 0 228.5 -82.5t78.5 -205.5q0 -126 -85.5 -212.5t-247.5 -86.5q-176 0 -361 116z" />
<glyph horiz-adv-x="796" d="M45 676l102 170q125 -86 226 -86q57 0 93 25.5t36 70.5q0 43 -32.5 72.5t-96.5 29.5q-71 0 -156 -45l-129 82l45 439h574v-195h-377l-6 -104q53 12 108 12q150 0 228.5 -83t78.5 -206q0 -126 -85.5 -212.5t-247.5 -86.5q-174 0 -361 117z" />
<glyph horiz-adv-x="1179" d="M39 -96l151 252q202 -138 355 -138q95 0 156 51.5t61 141.5q0 83 -54.5 140t-160.5 57q-110 0 -250 -78l-195 121l72 725h891v-289h-596l-12 -221q86 22 176 22q120 0 214 -38.5t152 -105.5t87.5 -151t29.5 -180q0 -98 -32 -185.5t-94 -157t-165 -110.5t-233 -41 q-280 0 -553 185z" />
<glyph horiz-adv-x="2697" d="M37 829v246h135v4q0 200 86 297t264 97q199 0 434 -84q85 104 271 104q161 0 356 -59v59h336v-528q76 64 151 98.5t173 34.5q183 0 288 -143.5t105 -417.5q0 -271 -105.5 -415.5t-287.5 -144.5q-99 0 -175 34.5t-149 99.5v-111h-336v1163q-12 2 -71 13.5t-112 19.5t-85 8 q-103 0 -103 -98v-31h238v-246h-238v-829h-335v829h-369v-829h-336v829h-135zM508 1075h369v68q-9 2 -53.5 10.5t-75.5 14t-72 11t-66 5.5q-102 0 -102 -99v-10zM1919 373q99 -125 215 -125q79 0 120.5 74t41.5 217q0 141 -41.5 214.5t-120.5 73.5q-116 0 -215 -125v-329z " />
<glyph horiz-adv-x="1646" d="M59 553l80 133q113 -70 197 -70q53 0 87 23t34 63q0 37 -31 61.5t-90 24.5q-67 0 -137 -34l-105 63l41 359h481v-154h-327l-4 -96q44 12 96 12q128 0 197 -68.5t69 -167.5q0 -102 -74 -172.5t-213 -70.5q-152 0 -301 94zM438 0l543 1176h199l-541 -1176h-201zM963 193 q0 70 41.5 115t113.5 77q-110 64 -110 158q0 77 71 125.5t197 48.5q125 0 196.5 -49t71.5 -125q0 -97 -110 -158q155 -70 155 -192q0 -95 -82.5 -150t-230.5 -55q-149 0 -231 55t-82 150zM1151 209q0 -35 35 -57.5t90 -22.5q54 0 89.5 22.5t35.5 57.5q0 36 -33 60t-92 48 q-62 -27 -93.5 -50t-31.5 -58zM1190 518q0 -45 86 -76q86 32 86 76q0 24 -23 44t-63 20q-39 0 -62.5 -20.5t-23.5 -43.5z" />
<glyph horiz-adv-x="1601" d="M59 553l80 133q113 -70 197 -70q53 0 87 23t34 63q0 37 -31 61.5t-90 24.5q-67 0 -137 -34l-105 63l41 359h481v-154h-327l-4 -96q44 12 96 12q128 0 197 -68.5t69 -167.5q0 -102 -74 -172.5t-213 -70.5q-152 0 -301 94zM438 0l543 1176h199l-541 -1176h-201zM930 299 q0 182 123 300t321 118q31 0 60.5 -3t43.5 -6l13 -3l-43 -144q-31 6 -72 6q-79 0 -143 -37.5t-94 -119.5q67 47 159 47q105 0 171.5 -60.5t66.5 -158.5q0 -105 -79.5 -177.5t-213.5 -72.5q-154 0 -233.5 89t-79.5 222zM1118 266q1 -65 36.5 -96t84.5 -31q56 0 83.5 26.5 t27.5 63.5q0 39 -29.5 64.5t-79.5 25.5q-43 0 -76 -16.5t-47 -36.5z" />
<glyph horiz-adv-x="1474" d="M37 829v246h135v4q0 200 86 297t264 97q198 0 428 -82q77 102 250 102q171 0 361 -90l-111 -240q-111 41 -158 41q-16 0 -27.5 -3t-25 -12t-20.5 -30t-7 -53v-31h238v-246h-238v-829h-335v829h-369v-829h-336v829h-135zM508 1075h369v68q-9 2 -53.5 10.5t-75.5 14t-72 11 t-66 5.5q-102 0 -102 -99v-10z" />
<glyph horiz-adv-x="1253" d="M113 504v672h321v-703q0 -105 40.5 -162t152.5 -57q58 0 97 16t59 48t28 68.5t8 86.5v703h322v-672q0 -94 -12.5 -167t-46.5 -142t-90 -114t-148.5 -72t-216.5 -27t-216.5 27t-148.5 72t-90 114t-46.5 142t-12.5 167z" />
<glyph horiz-adv-x="759" d="M27 1450v199h706v-199h-235v-662h-236v662h-235z" />
<glyph horiz-adv-x="878" d="M33 150v161l366 549h312v-516h127v-194h-127v-150h-236v150h-442zM266 344h209v320z" />
<glyph horiz-adv-x="878" d="M33 723v162l366 549h312v-516h127v-195h-127v-150h-236v150h-442zM266 918h209v319z" />
<glyph horiz-adv-x="1325" d="M29 4v242l587 930h465v-883h199v-289h-199v-262h-350v262h-702zM371 293h360v577z" />
<glyph horiz-adv-x="1540" d="M37 829v246h135v25q0 200 78.5 296.5t245.5 96.5q170 0 360 -90l-113 -240q-111 41 -157 41q-16 0 -27.5 -3t-24 -12t-19.5 -30t-7 -53v-31h237v-246h-237v-829h-336v829h-135zM807 829v246h135v25q0 200 79.5 296.5t244.5 96.5q132 0 284 -72l-73 -243q-81 26 -121 26 q-16 0 -27.5 -3t-24 -12t-19.5 -30t-7 -53v-31h238v-246h-238v-829h-336v829h-135z" />
<glyph horiz-adv-x="1759" d="M55 596v127l324 453h248v-428h110v-152h-110v-125h-187v125h-385zM246 748h194v282zM545 0l542 1176h199l-541 -1176h-200zM1098 84l82 133q98 -70 194 -70q53 0 87 22t34 62q0 37 -31 62.5t-90 25.5q-67 0 -137 -36l-104 65l41 357h483v-152h-328l-6 -98q47 12 96 12 q129 0 198 -67.5t69 -166.5q0 -104 -73.5 -174.5t-213.5 -70.5q-149 0 -301 96z" />
<glyph horiz-adv-x="1992" d="M37 829v246h135v25q0 200 86 296.5t264 96.5q170 0 357 -59v59h335v-528q76 64 151 98.5t173 34.5q183 0 288 -143.5t105 -417.5q0 -271 -105.5 -415.5t-287.5 -144.5q-99 0 -175 34.5t-149 99.5v-111h-335v1163q-11 2 -71 13.5t-113 19.5t-85 8q-44 0 -73 -19.5 t-29 -78.5v-31h237v-246h-237v-829h-336v829h-135zM1214 373q99 -125 216 -125q79 0 120 74t41 217q0 141 -41 214.5t-120 73.5q-53 0 -110 -31.5t-106 -93.5v-329z" />
<glyph horiz-adv-x="770" d="M37 829v246h135v25q0 200 79.5 296.5t244.5 96.5q132 0 284 -72l-73 -243q-81 26 -119 26q-16 0 -27.5 -3t-25 -12t-20.5 -30t-7 -53v-31h237v-246h-237v-829h-336v829h-135z" />
<glyph horiz-adv-x="1255" d="M80 203v194h131v1037h983v-295h-633v-279h500v-289h-500v-174h340v-194h-340v-203h-350v203h-131z" />
<glyph horiz-adv-x="1122" d="M76 154v174h117v848h870v-267h-549v-190h430v-264h-430v-127h297v-174h-297v-154h-321v154h-117z" />
<glyph horiz-adv-x="808" d="M53 -68h82v621h633v-199h-397v-135h311v-194h-311v-93h217v-127h-217v-112h-236v112h-82v127z" />
<glyph horiz-adv-x="808" d="M55 901v127h82v621h633v-199h-397v-135h311v-195h-311v-92h217v-127h-217v-113h-236v113h-82z" />
<glyph horiz-adv-x="520" d="M41 1268v166h86q0 126 51 187.5t160 61.5q98 0 233 -55l-73 -162q-67 25 -97 25q-13 0 -21.5 -2.5t-17 -16t-8.5 -38.5h146v-166h-146v-480h-227v480h-86z" />
<glyph horiz-adv-x="759" d="M27 354v199h706v-199h-235v-661h-236v661h-235z" />
<glyph horiz-adv-x="1177" d="M125 0v1176h321v-177h199q485 0 485 -393q0 -391 -485 -391h-199v-215h-321zM446 477h134q122 0 173.5 27t51.5 102q0 76 -51 102.5t-174 26.5h-134v-258z" />
<glyph horiz-adv-x="1038" d="M33 903v273h973v-273h-324v-903h-86q11 -13 25 -34t30.5 -66.5t16.5 -87.5q0 -97 -65 -146t-163 -49q-105 0 -176 47l64 162q49 -25 88 -25q84 0 84 72q0 62 -49 127h-91v903h-327z" />
<glyph horiz-adv-x="1038" d="M33 903v273h973v-273h-324v-903h-322v903h-327zM156 1544h227l135 -145l135 145h228l-207 -287h-312z" />
<glyph horiz-adv-x="1050" d="M39 903v273h973v-273h-324v-389h141v-174h-141v-340h-321v340h-142v174h142v389h-328z" />
<glyph horiz-adv-x="927" d="M88 250q0 74 16 132t54 107.5t110 76t176 26.5q96 0 168 -22.5t111.5 -60t58.5 -79.5t19 -86q0 -36 -11.5 -68t-22.5 -46l-11 -13q-39 -8 -73 -25.5t-34 -41.5q0 -17 20 -30.5t60 -33.5t68 -41q92 -65 92 -164q0 -88 -64.5 -145.5t-175.5 -57.5q-126 0 -287 76l80 146 q115 -54 174 -54q46 0 46 33q0 13 -10 22.5t-34 20.5q-83 29 -121 62q-64 56 -65 141q0 131 150 194l2 13q0 36 -32 62t-97 26q-75 0 -108.5 -42.5t-33.5 -144.5v-540h-225v557z" />
<glyph horiz-adv-x="927" d="M88 788v558q0 74 16 132t54 107.5t110 76t176 26.5q96 0 168 -22.5t111.5 -60t58.5 -79.5t19 -86q0 -36 -11.5 -68t-22.5 -46l-11 -13q-38 -7 -72.5 -25.5t-34.5 -42.5q0 -17 20 -30t60 -33t68 -41q92 -65 92 -164q0 -88 -64.5 -145.5t-175.5 -57.5q-126 0 -287 76 l80 145q113 -53 174 -53q46 0 46 33q0 13 -10 22.5t-34 20.5q-83 29 -121 62q-64 56 -65 141q0 131 150 194l2 12q0 37 -32 63t-97 26q-75 0 -108.5 -42.5t-33.5 -144.5v-541h-225z" />
<glyph horiz-adv-x="811" d="M45 14q0 162 67 250t183 88q62 0 107.5 -20.5t93.5 -59.5v66h225v-625q0 -143 -70.5 -212.5t-224.5 -69.5q-174 0 -352 53l43 172q59 -20 136.5 -36.5t121.5 -16.5q70 0 95.5 22.5t25.5 75.5v55q-49 -38 -94 -58t-107 -20q-116 0 -183 88t-67 248zM274 16q0 -157 95 -157 q68 0 127 67v176q-60 68 -127 68q-95 0 -95 -154z" />
<glyph horiz-adv-x="1038" d="M33 903v273h973v-273h-324v-903h-322v903h-327z" />
<glyph horiz-adv-x="831" d="M45 897l105 168q59 -35 148.5 -65.5t150.5 -30.5q39 0 63.5 14t24.5 41q0 19 -13.5 32.5t-41 23.5t-57.5 18t-76 22t-83 29q-37 14 -70 33.5t-64.5 49t-50 71.5t-18.5 92q0 119 83 193.5t237 74.5q98 0 198 -27t179 -67l-105 -170q-56 26 -130 47.5t-126 21.5 q-38 0 -63 -13.5t-25 -41.5t31 -43t107.5 -35t128.5 -41q30 -13 54 -25.5t54 -34.5t50 -47t34 -62.5t14 -80.5q0 -120 -84.5 -195t-238.5 -75q-114 0 -225.5 36.5t-190.5 86.5z" />
<glyph horiz-adv-x="1253" d="M113 504v672h321v-703q0 -105 40.5 -162t152.5 -57q58 0 97 16t59 48t28 68.5t8 86.5v703h322v-672q0 -94 -12.5 -167t-46.5 -142t-90 -114t-148.5 -72t-216.5 -27t-216.5 27t-148.5 72t-90 114t-46.5 142t-12.5 167zM293 1520h201q0 -40 34.5 -62t96.5 -22t97.5 22 t35.5 62h200q0 -123 -87.5 -193t-245.5 -70t-245 69.5t-87 193.5z" />
<glyph horiz-adv-x="811" d="M45 1110q0 162 67 250t183 88q62 0 107.5 -20.5t93.5 -59.5v66h225v-625q0 -143 -70.5 -213t-224.5 -70q-170 0 -352 54l43 172q60 -20 137.5 -37t120.5 -17q70 0 95.5 23t25.5 76v55q-49 -38 -94 -58t-107 -20q-116 0 -183 88t-67 248zM274 1112q0 -158 95 -158 q67 0 127 68v176q-60 68 -127 68q-95 0 -95 -154z" />
<glyph horiz-adv-x="831" d="M45 -199l105 168q59 -35 148.5 -65.5t150.5 -30.5q39 0 63.5 14t24.5 41q0 19 -13.5 32.5t-41 23.5t-57.5 18t-76 22t-83 29q-37 14 -70 33.5t-64.5 49t-50 71.5t-18.5 92q0 119 83 193.5t237 74.5q98 0 198 -27t179 -67l-105 -170q-57 26 -130.5 48t-125.5 22 q-38 0 -63 -14t-25 -42t31 -43t107 -34.5t129 -40.5q30 -13 54 -25.5t54 -34.5t50 -47t34 -62.5t14 -80.5q0 -120 -85 -195.5t-238 -75.5q-114 0 -225.5 36.5t-190.5 86.5z" />
<glyph horiz-adv-x="1120" d="M51 150l142 227q85 -49 207 -90t208 -41q51 0 86 20t35 60q0 24 -20 42t-59.5 32t-82.5 26t-104.5 31t-110.5 39q-54 21 -97 46t-86.5 65t-68 98.5t-24.5 130.5q0 158 115.5 258t328.5 100q130 0 269 -37t247 -92l-143 -231q-83 37 -184 65.5t-177 28.5q-50 0 -83 -18.5 t-33 -57.5q0 -38 45 -59.5t148.5 -48t170.5 -54.5q44 -17 79 -34.5t76 -48t69 -65t46.5 -86t18.5 -110.5q0 -160 -119 -262t-334 -102q-153 0 -308 50.5t-257 117.5zM453 -543l110 168h-106v262h239l15 -290l-197 -220z" />
<glyph horiz-adv-x="444" d="M84 1649h276l-69 -570h-135zM111 788v216h225v-216h-225z" />
<glyph horiz-adv-x="444" d="M84 553h276l-69 -569h-135zM111 -92h225v-215h-225v215z" />
<glyph horiz-adv-x="1120" d="M51 150l142 227q85 -49 207 -90t208 -41q51 0 86 20t35 60q0 24 -20 42t-59.5 32t-82.5 26t-104.5 31t-110.5 39q-54 21 -97 46t-86.5 65t-68 98.5t-24.5 130.5q0 158 115.5 258t328.5 100q130 0 269 -37t247 -92l-143 -231q-83 37 -184 65.5t-177 28.5q-50 0 -83 -18.5 t-33 -57.5q0 -38 45 -59.5t148.5 -48t170.5 -54.5q44 -17 79 -34.5t76 -48t69 -65t46.5 -86t18.5 -110.5q0 -160 -119 -262t-334 -102q-153 0 -308 50.5t-257 117.5zM199 1257l207 287h311l207 -287h-228l-135 144l-135 -144h-227z" />
<glyph horiz-adv-x="1120" d="M51 150l142 227q85 -49 207 -90t208 -41q51 0 86 20t35 60q0 24 -20 42t-59.5 32t-82.5 26t-104.5 31t-110.5 39q-54 21 -97 46t-86.5 65t-68 98.5t-24.5 130.5q0 158 115.5 258t328.5 100q130 0 269 -37t247 -92l-143 -231q-83 37 -184 65.5t-177 28.5q-50 0 -83 -18.5 t-33 -57.5q0 -38 45 -59.5t148.5 -48t170.5 -54.5q44 -17 79 -34.5t76 -48t69 -65t46.5 -86t18.5 -110.5q0 -142 -96 -240t-273 -118q62 -96 62 -176q0 -97 -64.5 -146t-162.5 -49q-106 0 -177 47l64 162q49 -25 88 -25q84 0 84 72q0 50 -39 111q-141 10 -278.5 58 t-225.5 108z" />
<glyph horiz-adv-x="823" d="M88 -307v895h225v-320q115 84 234 84q192 0 192 -209v-450h-225v397q0 42 -13.5 64t-49.5 22q-69 0 -138 -65v-418h-225z" />
<glyph horiz-adv-x="1120" d="M51 150l142 227q85 -49 207 -90t208 -41q51 0 86 20t35 60q0 24 -20 42t-59.5 32t-82.5 26t-104.5 31t-110.5 39q-54 21 -97 46t-86.5 65t-68 98.5t-24.5 130.5q0 158 115.5 258t328.5 100q130 0 269 -37t247 -92l-143 -231q-83 37 -184 65.5t-177 28.5q-50 0 -83 -18.5 t-33 -57.5q0 -38 45 -59.5t148.5 -48t170.5 -54.5q44 -17 79 -34.5t76 -48t69 -65t46.5 -86t18.5 -110.5q0 -160 -119 -262t-334 -102q-153 0 -308 50.5t-257 117.5zM197 1544h227l135 -145l135 145h228l-207 -287h-312z" />
<glyph horiz-adv-x="442" d="M82 788l70 570h135l71 -570h-276zM106 1434v215h226v-215h-226z" />
<glyph horiz-adv-x="1120" d="M51 150l142 227q85 -49 207 -90t208 -41q51 0 86 20t35 60q0 24 -20 42t-59.5 32t-82.5 26t-104.5 31t-110.5 39q-54 21 -97 46t-86.5 65t-68 98.5t-24.5 130.5q0 158 115.5 258t328.5 100q130 0 269 -37t247 -92l-143 -231q-83 37 -184 65.5t-177 28.5q-50 0 -83 -18.5 t-33 -57.5q0 -38 45 -59.5t148.5 -48t170.5 -54.5q44 -17 79 -34.5t76 -48t69 -65t46.5 -86t18.5 -110.5q0 -160 -119 -262t-334 -102q-153 0 -308 50.5t-257 117.5zM344 1257l238 287h366l-330 -287h-274z" />
<glyph horiz-adv-x="1120" d="M51 150l142 227q85 -49 207 -90t208 -41q51 0 86 20t35 60q0 24 -20 42t-59.5 32t-82.5 26t-104.5 31t-110.5 39q-54 21 -97 46t-86.5 65t-68 98.5t-24.5 130.5q0 158 115.5 258t328.5 100q130 0 269 -37t247 -92l-143 -231q-83 37 -184 65.5t-177 28.5q-50 0 -83 -18.5 t-33 -57.5q0 -38 45 -59.5t148.5 -48t170.5 -54.5q44 -17 79 -34.5t76 -48t69 -65t46.5 -86t18.5 -110.5q0 -160 -119 -262t-334 -102q-153 0 -308 50.5t-257 117.5z" />
<glyph horiz-adv-x="925" d="M111 788v861h403q181 0 266.5 -68t85.5 -207q0 -207 -196 -256l198 -330h-256l-174 314h-92v-314h-235zM346 1284h152q64 0 97.5 19t33.5 71q0 53 -33.5 72.5t-97.5 19.5h-152v-182z" />
<glyph horiz-adv-x="925" d="M111 -307v860h403q182 0 267 -67.5t85 -206.5q0 -207 -196 -256l198 -330h-256l-174 313h-92v-313h-235zM346 188h152q63 0 97 19.5t34 71.5q0 53 -33.5 72.5t-97.5 19.5h-152v-183z" />
<glyph horiz-adv-x="1239" d="M125 0v1176h555q250 0 368.5 -93t118.5 -282q0 -284 -274 -350l276 -451h-352l-237 428h-134v-428h-321zM446 676h211q89 0 137 27t48 98t-48 99t-135 28h-213v-252zM487 -543l111 168h-106v262h239l14 -290l-196 -220z" />
<glyph horiz-adv-x="1239" d="M125 0v1176h555q250 0 368.5 -93t118.5 -282q0 -284 -274 -350l276 -451h-352l-237 428h-134v-428h-321zM283 1544h227l135 -145l135 145h228l-207 -287h-312zM446 676h211q89 0 137 27t48 98t-48 99t-135 28h-213v-252z" />
<glyph horiz-adv-x="1239" d="M125 0v1176h555q250 0 368.5 -93t118.5 -282q0 -284 -274 -350l276 -451h-352l-237 428h-134v-428h-321zM428 1257l238 287h366l-330 -287h-274zM446 676h211q89 0 137 27t48 98t-48 99t-135 28h-213v-252z" />
<glyph horiz-adv-x="405" d="M84 408v178h233v-178h-233zM88 -307v645h227v-645h-227z" />
<glyph horiz-adv-x="1239" d="M125 0v1176h555q250 0 368.5 -93t118.5 -282q0 -284 -274 -350l276 -451h-352l-237 428h-134v-428h-321zM446 676h211q89 0 137 27t48 98t-48 99t-135 28h-213v-252z" />
<glyph horiz-adv-x="968" d="M57 1219q0 96 24.5 174.5t74.5 140t133.5 95.5t193.5 34t193 -34t133 -95.5t75 -140.5t25 -174q0 -281 -190 -390l131 -102l-154 -160l-213 207q-110 0 -193.5 34t-133.5 95.5t-74.5 140.5t-24.5 175zM297 1219q0 -113 45 -178.5t141 -65.5q97 0 142 65.5t45 178.5 q0 112 -45 177.5t-142 65.5q-96 0 -141 -65t-45 -178z" />
<glyph horiz-adv-x="444" d="M84 -307l70 569h135l71 -569h-276zM109 338v215h225v-215h-225z" />
<glyph horiz-adv-x="589" d="M106 0l97 776h184l96 -776h-377zM141 879v297h310v-297h-310z" />
<glyph horiz-adv-x="970" d="M59 123q0 96 24.5 174.5t74.5 140t133.5 95.5t193.5 34t193 -34t133 -95.5t75 -140.5t25 -174q0 -280 -190 -389l131 -103l-154 -159l-213 206q-110 0 -193.5 34t-133.5 95.5t-74.5 140.5t-24.5 175zM299 123q0 -113 45 -178.5t141 -65.5q97 0 142 65.5t45 178.5 t-45 178.5t-142 65.5q-96 0 -141 -65.5t-45 -178.5z" />
<glyph horiz-adv-x="1253" d="M113 504v672h321v-703q0 -105 40.5 -162t152.5 -57q58 0 97 16t59 48t28 68.5t8 86.5v703h322v-672q0 -94 -12.5 -167t-46.5 -142t-90 -114t-148.5 -72t-216.5 -27t-216.5 27t-148.5 72t-90 114t-46.5 142t-12.5 167zM264 1257l207 287h311l207 -287h-227l-135 144 l-135 -144h-228z" />
<glyph horiz-adv-x="1314" d="M70 588q0 130 33.5 237.5t102.5 191.5t184.5 130.5t268.5 46.5q152 0 267.5 -46.5t184 -130.5t102.5 -191.5t34 -237.5q0 -181 -65.5 -320t-198.5 -213l178 -141l-211 -217l-291 285q-153 0 -268.5 46.5t-184.5 130.5t-102.5 191.5t-33.5 237.5zM399 588 q0 -155 62.5 -244.5t197.5 -89.5q69 0 119.5 24.5t80.5 70t44.5 105t14.5 134.5q0 155 -62 243.5t-197 88.5t-197.5 -88.5t-62.5 -243.5z" />
<glyph horiz-adv-x="874" d="M111 788v861h378q351 0 351 -289q0 -287 -351 -287h-143v-285h-235zM346 1266h127q63 0 96 20t33 74t-33 74t-96 20h-127v-188z" />
<glyph horiz-adv-x="874" d="M111 -307v860h378q351 0 351 -289q0 -287 -351 -287h-143v-284h-235zM346 170h127q63 0 96 20t33 74t-33 74t-96 20h-127v-188z" />
<glyph horiz-adv-x="405" d="M-49 -432q36 12 58.5 21t39 20t24 18.5t12 24t5 27.5t0.5 38v621h225v-600q0 -122 -14 -166q-23 -73 -110 -115q-60 -28 -166 -51zM84 408v178h238v-178h-238z" />
<glyph horiz-adv-x="587" d="M106 1176h377l-96 -777h-184zM139 0v297h310v-297h-310z" />
<glyph horiz-adv-x="1179" d="M125 0v1176h520q485 0 485 -396q0 -391 -485 -391h-199v-389h-321zM446 651h177q87 0 134.5 28t47.5 101q0 74 -47 101.5t-135 27.5h-177v-258z" />
<glyph horiz-adv-x="1314" d="M70 588q0 130 33.5 237.5t102.5 191.5t184.5 130.5t268.5 46.5q152 0 267.5 -46.5t184 -130.5t102.5 -191.5t34 -237.5t-34 -237.5t-102.5 -191.5t-184 -130.5t-267.5 -46.5q-153 0 -268.5 46.5t-184.5 130.5t-102.5 191.5t-33.5 237.5zM283 1337q22 46 33 68.5t34.5 59 t43.5 54t51 32t67 14.5q47 0 103 -24.5t103.5 -49.5t72.5 -25q22 0 44.5 19t53.5 76l143 -72q-17 -35 -23.5 -48.5t-23 -44t-27.5 -44.5t-29.5 -35t-36 -30.5t-40.5 -17t-49 -7.5q-45 0 -101 24.5t-103.5 49t-72.5 24.5q-23 0 -46 -18.5t-52 -75.5zM399 588 q0 -155 62.5 -244.5t197.5 -89.5q69 0 119.5 24.5t80.5 70t44.5 105t14.5 134.5q0 155 -62 243.5t-197 88.5t-197.5 -88.5t-62.5 -243.5z" />
<glyph horiz-adv-x="968" d="M57 1219q0 96 24.5 174.5t74.5 140t133.5 95.5t193.5 34t193.5 -34t133.5 -95.5t74.5 -140t24.5 -174.5t-24.5 -175t-74.5 -140.5t-133.5 -95.5t-193.5 -34t-193.5 34t-133.5 95.5t-74.5 140.5t-24.5 175zM297 1219q0 -113 45 -178.5t141 -65.5q97 0 142 65.5t45 178.5 q0 112 -45 177.5t-142 65.5q-96 0 -141 -65t-45 -178z" />
<glyph horiz-adv-x="759" d="M88 -307v895h225v-467l156 217h262l-213 -254l248 -391h-238l-143 231l-72 -84v-147h-225z" />
<glyph horiz-adv-x="759" d="M88 788v895h225v-466l156 217h262l-213 -254l248 -392h-238l-143 232l-72 -86v-146h-225z" />
<glyph horiz-adv-x="1312" d="M70 588q0 130 33.5 237.5t102.5 191.5t184.5 130.5t268.5 46.5q183 0 314 -70l39 52h215l-121 -154q141 -163 141 -434q0 -130 -34 -237.5t-102.5 -191.5t-184 -130.5t-267.5 -46.5q-185 0 -313 67l-39 -49h-217l121 154q-141 157 -141 434zM399 588q0 -96 23 -166 l366 467q-54 31 -129 31q-135 0 -197.5 -88.5t-62.5 -243.5zM442 1257l238 287h367l-330 -287h-275zM528 283q56 -29 131 -29q69 0 119.5 24.5t80.5 70t44.5 105t14.5 134.5q0 87 -23 164z" />
<glyph horiz-adv-x="1253" d="M113 504v672h321v-703q0 -105 40.5 -162t152.5 -57q58 0 97 16t59 48t28 68.5t8 86.5v703h322v-672q0 -94 -12.5 -167t-46.5 -142t-90 -114t-148.5 -72t-216.5 -27t-216.5 27t-148.5 72t-90 114t-46.5 142t-12.5 167zM322 1278v250h253v-250h-253zM678 1278v250h254v-250 h-254z" />
<glyph horiz-adv-x="1314" d="M70 588q0 130 33.5 237.5t102.5 191.5t184.5 130.5t268.5 46.5q152 0 267.5 -46.5t184 -130.5t102.5 -191.5t34 -237.5t-34 -237.5t-102.5 -191.5t-184 -130.5t-267.5 -46.5q-153 0 -268.5 46.5t-184.5 130.5t-102.5 191.5t-33.5 237.5zM360 1309v192h598v-192h-598z M399 588q0 -155 62.5 -244.5t197.5 -89.5q69 0 119.5 24.5t80.5 70t44.5 105t14.5 134.5q0 155 -62 243.5t-197 88.5t-197.5 -88.5t-62.5 -243.5z" />
<glyph horiz-adv-x="970" d="M57 123q0 96 24.5 174.5t74.5 140t133.5 95.5t193.5 34t193.5 -34t133.5 -95.5t74.5 -140t24.5 -174.5t-24.5 -175t-74.5 -140.5t-133.5 -95.5t-193.5 -34t-193.5 34t-133.5 95.5t-74.5 140.5t-24.5 175zM297 123q0 -113 45 -178.5t141 -65.5q97 0 142 65.5t45 178.5 t-45 178.5t-142 65.5q-96 0 -141 -65.5t-45 -178.5z" />
<glyph horiz-adv-x="1314" d="M70 588q0 130 33.5 237.5t102.5 191.5t184.5 130.5t268.5 46.5q152 0 267.5 -46.5t184 -130.5t102.5 -191.5t34 -237.5t-34 -237.5t-102.5 -191.5t-184 -130.5t-267.5 -46.5q-153 0 -268.5 46.5t-184.5 130.5t-102.5 191.5t-33.5 237.5zM348 1257l156 287h291l-248 -287 h-199zM399 588q0 -155 62.5 -244.5t197.5 -89.5q69 0 119.5 24.5t80.5 70t44.5 105t14.5 134.5q0 155 -62 243.5t-197 88.5t-197.5 -88.5t-62.5 -243.5zM709 1257l155 287h289l-248 -287h-196z" />
<glyph horiz-adv-x="1314" d="M70 588q0 130 33.5 237.5t102.5 191.5t184.5 130.5t268.5 46.5q152 0 267.5 -46.5t184 -130.5t102.5 -191.5t34 -237.5t-34 -237.5t-102.5 -191.5t-184 -130.5t-267.5 -46.5q-153 0 -268.5 46.5t-184.5 130.5t-102.5 191.5t-33.5 237.5zM272 1544h365l240 -287h-275z M399 588q0 -155 62.5 -244.5t197.5 -89.5q69 0 119.5 24.5t80.5 70t44.5 105t14.5 134.5q0 155 -62 243.5t-197 88.5t-197.5 -88.5t-62.5 -243.5z" />
<glyph horiz-adv-x="1253" d="M113 504v672h321v-703q0 -105 40.5 -162t152.5 -57q58 0 97 16t59 48t28 68.5t8 86.5v703h322v-672q0 -94 -12.5 -167t-46.5 -142t-90 -114t-148.5 -72t-216.5 -27t-216.5 27t-148.5 72t-90 114t-46.5 142t-12.5 167zM240 1544h364l240 -287h-275z" />
<glyph horiz-adv-x="405" d="M88 -307v895h225v-895h-225z" />
<glyph horiz-adv-x="1253" d="M113 504v672h321v-703q0 -105 40.5 -162t152.5 -57q58 0 97 16t59 48t28 68.5t8 86.5v703h322v-672q0 -94 -12.5 -167t-46.5 -142t-90 -114t-148.5 -72t-216.5 -27t-216.5 27t-148.5 72t-90 114t-46.5 142t-12.5 167zM315 1257l156 287h291l-248 -287h-199zM676 1257 l155 287h289l-248 -287h-196z" />
<glyph horiz-adv-x="1030" d="M94 0v213q6 1 15.5 4.5t36 15.5t49.5 27.5t47 43.5t37 61h-166v135h170q-4 12 -14 34.5t-11 26.5h-145v135h69q-51 97 -51 199q0 140 96 219.5t269 79.5q75 0 145.5 -14.5t132 -42t100 -49t87.5 -52.5l-138 -202q-161 94 -262 94q-54 0 -81 -22.5t-27 -61.5 q0 -24 10.5 -52.5t19 -43t31.5 -52.5h322v-135h-256q9 -30 12 -61h244v-135h-263q-29 -71 -79 -101h448v-264h-848z" />
<glyph horiz-adv-x="751" d="M72 -152q4 1 11.5 3.5t27 12t36 21t34 32.5t26.5 46h-123v92h125q-5 22 -19 49h-106v95h53q-39 70 -39 149q0 102 69.5 160.5t194.5 58.5q71 0 142 -21.5t109 -42t87 -52.5l-100 -148q-122 70 -188 70q-78 0 -78 -64q0 -37 47 -110h229v-95h-184q4 -15 8 -49h176v-92 h-186q-20 -53 -59 -76h323v-194h-616v155z" />
<glyph horiz-adv-x="751" d="M72 788v156q4 1 11.5 3.5t27 12t36 21t34 32.5t26.5 46h-123v92h125q-5 22 -19 49h-106v94h53q-39 70 -39 150q0 102 69.5 160.5t194.5 58.5q71 0 142 -21.5t108.5 -42.5t87.5 -53l-100 -147q-120 69 -188 69q-78 0 -78 -63q0 -38 47 -111h229v-94h-184q4 -15 8 -49h176 v-92h-186q-20 -53 -59 -76h323v-195h-616z" />
<glyph horiz-adv-x="1314" d="M70 588q0 130 33.5 237.5t102.5 191.5t184.5 130.5t268.5 46.5q152 0 267.5 -46.5t184 -130.5t102.5 -191.5t34 -237.5t-34 -237.5t-102.5 -191.5t-184 -130.5t-267.5 -46.5q-153 0 -268.5 46.5t-184.5 130.5t-102.5 191.5t-33.5 237.5zM354 1278v250h254v-250h-254z M399 588q0 -155 62.5 -244.5t197.5 -89.5q69 0 119.5 24.5t80.5 70t44.5 105t14.5 134.5q0 155 -62 243.5t-197 88.5t-197.5 -88.5t-62.5 -243.5zM711 1278v250h254v-250h-254z" />
<glyph horiz-adv-x="1314" d="M70 588q0 130 33.5 237.5t102.5 191.5t184.5 130.5t268.5 46.5q152 0 267.5 -46.5t184 -130.5t102.5 -191.5t34 -237.5t-34 -237.5t-102.5 -191.5t-184 -130.5t-267.5 -46.5q-153 0 -268.5 46.5t-184.5 130.5t-102.5 191.5t-33.5 237.5zM295 1257l207 287h311l207 -287 h-227l-136 144l-135 -144h-227zM399 588q0 -155 62.5 -244.5t197.5 -89.5q69 0 119.5 24.5t80.5 70t44.5 105t14.5 134.5q0 155 -62 243.5t-197 88.5t-197.5 -88.5t-62.5 -243.5z" />
<glyph horiz-adv-x="946" d="M100 61v492h236v-514q0 -77 29 -118.5t110 -41.5q80 0 108.5 41.5t28.5 118.5v514h236v-492q0 -68 -9 -121.5t-33.5 -104t-65.5 -84t-108 -53.5t-157 -20q-91 0 -158.5 20t-108.5 53.5t-65.5 84t-33.5 104t-9 121.5z" />
<glyph horiz-adv-x="1314" d="M70 588q0 130 33.5 237.5t102.5 191.5t184.5 130.5t268.5 46.5q152 0 267.5 -46.5t184 -130.5t102.5 -191.5t34 -237.5t-34 -237.5t-102.5 -191.5t-184 -130.5t-267.5 -46.5q-153 0 -268.5 46.5t-184.5 130.5t-102.5 191.5t-33.5 237.5zM326 1520h200q0 -40 34.5 -62 t96.5 -22t98 22.5t36 61.5h200q0 -123 -88 -193t-246 -70q-157 0 -244 69.5t-87 193.5zM399 588q0 -155 62.5 -244.5t197.5 -89.5q69 0 119.5 24.5t80.5 70t44.5 105t14.5 134.5q0 155 -62 243.5t-197 88.5t-197.5 -88.5t-62.5 -243.5z" />
<glyph horiz-adv-x="1253" d="M113 504v672h321v-703q0 -105 40.5 -162t152.5 -57q58 0 97 16t59 48t28 68.5t8 86.5v703h322v-672q0 -94 -12.5 -167t-46.5 -142t-90 -114t-148.5 -72t-216.5 -27t-216.5 27t-148.5 72t-90 114t-46.5 142t-12.5 167zM328 1309v192h598v-192h-598z" />
<glyph horiz-adv-x="1314" d="M70 588q0 130 33.5 237.5t102.5 191.5t184.5 130.5t268.5 46.5q152 0 267.5 -46.5t184 -130.5t102.5 -191.5t34 -237.5t-34 -237.5t-102.5 -191.5t-184 -130.5t-267.5 -46.5q-153 0 -268.5 46.5t-184.5 130.5t-102.5 191.5t-33.5 237.5zM399 588q0 -155 62.5 -244.5 t197.5 -89.5q69 0 119.5 24.5t80.5 70t44.5 105t14.5 134.5q0 155 -62 243.5t-197 88.5t-197.5 -88.5t-62.5 -243.5zM442 1257l238 287h367l-330 -287h-275z" />
<glyph horiz-adv-x="1873" d="M70 588q0 130 33.5 237.5t102.5 191.5t184.5 130.5t268.5 46.5q146 0 261 -45v27h870v-267h-549v-188h447v-264h-447v-193h557v-264h-878v25q-118 -43 -261 -43q-153 0 -268.5 46.5t-184.5 130.5t-102.5 191.5t-33.5 237.5zM399 588q0 -155 62.5 -244.5t197.5 -89.5 q69 0 119.5 24.5t80.5 70t44.5 105t14.5 134.5q0 155 -62 243.5t-197 88.5t-197.5 -88.5t-62.5 -243.5z" />
<glyph horiz-adv-x="1189" d="M88 -307v645h225v-76q99 90 205 90q131 0 176 -104q104 104 219 104q193 0 193 -209v-450h-227v397q0 44 -11 65t-45 21q-57 0 -112 -63v-420h-228v397q0 44 -11 65t-46 21q-29 0 -60 -19t-53 -46v-418h-225z" />
<glyph horiz-adv-x="1253" d="M113 504v672h321v-703q0 -105 40.5 -162t152.5 -57q58 0 97 16t59 48t28 68.5t8 86.5v703h322v-672q0 -98 -14.5 -174.5t-49.5 -145.5t-102 -116t-164 -68q-34 -21 -58.5 -39t-54 -43.5t-45.5 -53t-16 -54.5q0 -20 8.5 -33.5t19 -20.5t30 -10.5t29 -4t30.5 0t22 0.5 l-28 -148q-105 0 -155 10q-165 34 -165 173q0 114 154 207q-113 5 -197 34t-135.5 74.5t-82.5 112.5t-42.5 138t-11.5 161z" />
<glyph horiz-adv-x="733" d="M41 12q0 160 86 250t244 90q153 0 233 -79.5t80 -209.5q0 -24 -2.5 -47.5t-5.5 -35.5l-2 -11h-402q6 -64 31.5 -94.5t77.5 -30.5q81 0 229 74l78 -139q-31 -20 -71 -39.5t-115.5 -40.5t-145.5 -21q-140 0 -227.5 83.5t-87.5 250.5zM272 84h193q-3 109 -94 109 q-84 0 -99 -109z" />
<glyph horiz-adv-x="1314" d="M70 588q0 130 33.5 237.5t102.5 191.5t184.5 130.5t268.5 46.5q152 0 267.5 -46.5t184 -130.5t102.5 -191.5t34 -237.5t-34 -237.5t-102.5 -191.5t-184 -130.5t-267.5 -46.5q-153 0 -268.5 46.5t-184.5 130.5t-102.5 191.5t-33.5 237.5zM399 588q0 -155 62.5 -244.5 t197.5 -89.5q69 0 119.5 24.5t80.5 70t44.5 105t14.5 134.5q0 155 -62 243.5t-197 88.5t-197.5 -88.5t-62.5 -243.5z" />
<glyph horiz-adv-x="1296" d="M125 0v1176h326l401 -687v687h322v-1176h-326l-402 686v-686h-321zM283 1337q22 46 33 68.5t34.5 59t43.5 54t51 32t67 14.5q47 0 103 -24.5t103.5 -49.5t72.5 -25q22 0 44.5 19t53.5 76l143 -72q-17 -35 -23.5 -48.5t-23 -44t-27.5 -44.5t-29.5 -35t-36 -30.5t-40.5 -17 t-49 -7.5q-45 0 -101 24.5t-103.5 49t-72.5 24.5q-23 0 -46 -18.5t-52 -75.5z" />
<glyph horiz-adv-x="983" d="M111 788v861h237l289 -494v494h235v-861h-239l-287 492v-492h-235z" />
<glyph horiz-adv-x="983" d="M111 -307v860h237l289 -494v494h235v-860h-239l-287 491v-491h-235z" />
<glyph horiz-adv-x="1296" d="M125 0v1176h326l401 -687v687h322v-1176h-326l-402 686v-686h-321zM524 -543l111 168h-107v262h240l14 -290l-196 -220z" />
<glyph horiz-adv-x="1296" d="M125 0v1176h326l401 -687v687h322v-1176h-326l-402 686v-686h-321zM295 1544h227l135 -145l136 145h227l-207 -287h-311z" />
<glyph horiz-adv-x="1296" d="M125 0v1176h326l401 -687v687h322v-1176h-326l-402 686v-686h-321zM432 1257l238 287h366l-329 -287h-275z" />
<glyph horiz-adv-x="1296" d="M125 0v1176h326l401 -687v687h322v-1176h-326l-402 686v-686h-321z" />
<glyph horiz-adv-x="817" d="M47 569q0 129 93 217t251 88q94 0 167 -30.5t116.5 -84t65.5 -120t22 -143.5q0 -222 -146 -366t-383 -144q-35 0 -67.5 3.5t-47.5 6.5l-16 4l52 182q36 -6 79 -6q87 0 159 42.5t106 135.5q-75 -51 -179 -51q-119 0 -195.5 73t-76.5 193zM283 580q0 -46 30.5 -75.5 t83.5 -29.5q76 0 127 55q-1 56 -22.5 92.5t-48 49t-56.5 12.5q-58 0 -86 -31.5t-28 -72.5z" />
<glyph horiz-adv-x="1290" d="M70 389q0 60 15.5 112.5t41.5 92.5t64 75.5t77.5 61t87.5 49.5q-200 126 -200 322q0 159 128.5 256.5t360.5 97.5q233 0 362.5 -97.5t129.5 -256.5q0 -193 -205 -322q62 -30 110 -64.5t90.5 -81t65.5 -109t23 -136.5q0 -192 -151 -302t-425 -110t-424.5 110t-150.5 302z M424 416q0 -77 61 -126.5t160 -49.5t160 49.5t61 126.5q0 75 -58.5 129.5t-162.5 101.5q-105 -47 -163 -101t-58 -130zM496 1069q0 -105 149 -172q150 67 150 172q0 51 -40 92t-110 41t-109.5 -41t-39.5 -92z" />
<glyph d="M45 692q0 102 37 192.5t104 159.5t169 109.5t225 40.5q118 0 215.5 -34t164 -92t112 -137t66.5 -167t21 -184q1 -195 -60 -357.5t-170 -273.5t-261 -172.5t-330 -61.5q-56 0 -108 6t-76 11l-25 6l82 272q55 -12 125 -12q68 0 130.5 18t123 57t109 109.5t75.5 167.5 q-123 -106 -299 -106q-188 0 -309 124.5t-121 323.5zM395 705q0 -86 52.5 -143.5t142.5 -57.5q72 0 128.5 35.5t88.5 81.5q-1 140 -66 215t-149 75q-98 0 -147.5 -61.5t-49.5 -144.5z" />
<glyph horiz-adv-x="839" d="M51 809q0 151 176 235q-123 75 -123 189q0 97 83.5 156t234.5 59q150 0 231.5 -59t81.5 -156q0 -113 -123 -191q81 -39 128.5 -93.5t47.5 -139.5q0 -116 -95 -183t-271 -67q-179 0 -275 67t-96 183zM289 829q0 -41 36.5 -67.5t96.5 -26.5q58 0 93.5 27t35.5 67 q0 39 -33.5 68t-97.5 57q-64 -28 -97.5 -57t-33.5 -68zM334 1210q0 -55 86 -92q86 38 86 92q0 25 -22.5 46.5t-61.5 21.5q-42 0 -65 -21.5t-23 -46.5z" />
<glyph horiz-adv-x="839" d="M51 236q0 151 176 235q-123 75 -123 188q0 97 83.5 156t234.5 59q150 0 231.5 -59t81.5 -156q0 -112 -123 -190q81 -39 128.5 -93.5t47.5 -139.5q0 -116 -95 -183t-271 -67q-179 0 -275 67t-96 183zM289 256q0 -41 36.5 -67.5t96.5 -26.5q58 0 93.5 27t35.5 67 q0 39 -33.5 68t-97.5 57q-64 -28 -97.5 -57t-33.5 -68zM334 637q0 -55 86 -92q86 38 86 92q0 25 -22.5 46.5t-61.5 21.5q-42 0 -65 -21.5t-23 -46.5z" />
<glyph horiz-adv-x="1253" d="M113 504v672h321v-703q0 -105 40.5 -162t152.5 -57q58 0 97 16t59 48t28 68.5t8 86.5v703h322v-672q0 -94 -12.5 -167t-46.5 -142t-90 -114t-148.5 -72t-216.5 -27t-216.5 27t-148.5 72t-90 114t-46.5 142t-12.5 167zM395 1466q0 97 67.5 164.5t162.5 67.5 q97 0 164 -67.5t67 -164.5q0 -95 -67 -162t-164 -67q-95 0 -162.5 67t-67.5 162zM549 1466q0 -31 22.5 -53t53.5 -22q32 0 54.5 22t22.5 53q0 32 -22.5 55t-54.5 23q-31 0 -53.5 -23t-22.5 -55z" />
<glyph horiz-adv-x="823" d="M88 -307v645h225v-70q115 84 234 84q192 0 192 -209v-450h-225v397q0 42 -13.5 64t-49.5 22q-69 0 -138 -65v-418h-225z" />
<glyph horiz-adv-x="946" d="M100 1157v492h236v-514q0 -77 29 -118.5t110 -41.5q80 0 108.5 41.5t28.5 118.5v514h236v-492q0 -68 -9 -121.5t-33.5 -104t-65.5 -84t-108 -53.5t-157 -20q-91 0 -158.5 20t-108.5 53.5t-65.5 84t-33.5 104t-9 121.5z" />
<glyph horiz-adv-x="1253" d="M113 504v672h321v-703q0 -105 40.5 -162t152.5 -57q58 0 97 16t59 48t28 68.5t8 86.5v703h322v-672q0 -94 -12.5 -167t-46.5 -142t-90 -114t-148.5 -72t-216.5 -27t-216.5 27t-148.5 72t-90 114t-46.5 142t-12.5 167zM248 1337q22 46 33 68.5t34.5 59t43.5 54t51 32 t67 14.5q47 0 103 -24.5t103.5 -49.5t72.5 -25q22 0 44.5 19t53.5 76l143 -72q-17 -35 -23.5 -48.5t-23 -44t-27.5 -44.5t-29.5 -35t-36 -30.5t-40.5 -17t-49 -7.5q-45 0 -101 24.5t-103 49t-72 24.5q-51 0 -99 -94z" />
<glyph horiz-adv-x="1114" d="M111 788v861h239l207 -455l209 455h240v-861h-236v472l-149 -328h-125l-150 328v-472h-235z" />
<glyph horiz-adv-x="1114" d="M111 -307v860h239l207 -455l209 455h240v-860h-236v471l-149 -328h-125l-150 328v-471h-235z" />
<glyph horiz-adv-x="1243" d="M68 242v229h204l35 231h-170v232h205l37 242h235l-36 -242h190l37 242h233l-37 -242h173v-232h-207l-35 -231h174v-229h-209l-35 -242h-233l35 242h-191l-37 -242h-233l35 242h-170zM508 471h190l35 231h-190z" />
<glyph horiz-adv-x="899" d="M49 37h146l26 170h-123v170h148l26 176h172l-26 -176h137l27 176h172l-27 -176h123v-170h-148l-26 -170h123v-168h-148l-26 -176h-172l26 176h-137l-25 -176h-172l25 176h-121v168zM367 37h137l26 170h-137z" />
<glyph horiz-adv-x="901" d="M49 965v168h146l26 170h-123v170h148l26 176h172l-26 -176h137l27 176h172l-27 -176h123v-170h-148l-26 -170h123v-168h-148l-26 -177h-172l26 177h-137l-25 -177h-172l25 177h-121zM367 1133h137l26 170h-137z" />
<glyph horiz-adv-x="1480" d="M125 0v1176h328l286 -627l289 627h330v-1176h-322v670l-219 -473h-153l-218 471v-668h-321z" />
<glyph horiz-adv-x="753" d="M111 788v861h235v-664h383v-197h-618z" />
<glyph horiz-adv-x="1032" d="M37 299v276l113 64v537h321v-357l215 123v-280l-215 -121v-271h530v-270h-851v360z" />
<glyph horiz-adv-x="753" d="M111 -307v860h235v-664h383v-196h-618z" />
<glyph horiz-adv-x="1011" d="M125 0v1176h321v-906h531v-270h-852zM653 506v250h254v-250h-254z" />
<glyph horiz-adv-x="1009" d="M125 0v1176h321v-906h531v-270h-852zM416 -543l110 168h-106v262h239l15 -290l-197 -220z" />
<glyph horiz-adv-x="1241" d="M18 1176h369l234 -805l233 805h371l-424 -1176h-359z" />
<glyph horiz-adv-x="1009" d="M125 0v1176h321v-906h531v-270h-852zM506 745l110 168h-106v263h240l14 -291l-197 -219z" />
<glyph horiz-adv-x="1009" d="M68 1257l237 287h367l-330 -287h-274zM125 0v1176h321v-906h531v-270h-852z" />
<glyph horiz-adv-x="774" d="M43 16q0 161 89 248.5t257 87.5q165 0 254.5 -88.5t89.5 -249.5q0 -160 -89.5 -248t-254.5 -88q-166 0 -256 88.5t-90 249.5zM270 16q0 -163 119 -163q117 0 117 161q0 164 -117 164q-119 0 -119 -162z" />
<glyph horiz-adv-x="1009" d="M125 0v1176h321v-906h531v-270h-852z" />
<glyph horiz-adv-x="919" d="M111 788v861h235v-346l272 346h287l-340 -396l348 -465h-280l-213 295l-74 -88v-207h-235z" />
<glyph horiz-adv-x="649" d="M2 719l244 141h225v-860h-235v645l-142 -78z" />
<glyph horiz-adv-x="649" d="M2 1292l244 142h225v-861h-235v646l-142 -78z" />
<glyph horiz-adv-x="856" d="M6 950l381 226h332v-1176h-350v852l-228 -129z" />
<glyph horiz-adv-x="882" d="M4 553h272l166 -586l166 586h273l-308 -860h-262z" />
<glyph horiz-adv-x="884" d="M4 1649h272l166 -586l166 586h273l-308 -861h-262z" />
<glyph horiz-adv-x="1525" d="M45 1063l207 113h178v-705h-188v535l-123 -64zM311 0l543 1176h199l-541 -1176h-201zM834 193q0 70 42 115t115 77q-110 64 -110 158q0 77 71 125.5t197 48.5q125 0 195.5 -49t70.5 -125q0 -96 -108 -158q155 -70 155 -192q0 -95 -82.5 -150t-230.5 -55q-149 0 -232 55 t-83 150zM1024 209q0 -35 35 -57.5t90 -22.5t90 22.5t35 57.5q0 36 -33 60t-92 48q-62 -27 -93.5 -50t-31.5 -58zM1063 518q0 -46 84 -76q86 32 86 76q0 24 -22 44t-62 20q-39 0 -62.5 -20.5t-23.5 -43.5z" />
<glyph horiz-adv-x="1531" d="M45 1063l207 113h178v-705h-188v535l-123 -64zM311 0l543 1176h199l-541 -1176h-201zM864 84l80 133q104 -70 195 -70q54 0 88.5 22t34.5 62q0 37 -31 62.5t-90 25.5q-66 0 -140 -36l-100 65l39 357h481v-152h-325l-9 -98q47 12 99 12q128 0 197 -67.5t69 -166.5 q0 -104 -74 -174.5t-213 -70.5q-143 0 -301 96z" />
<glyph horiz-adv-x="919" d="M111 -307v860h235v-346l272 346h287l-340 -395l348 -465h-280l-213 295l-74 -86v-209h-235z" />
<glyph horiz-adv-x="1519" d="M45 1063l207 113h178v-705h-188v535l-123 -64zM311 0l543 1176h199l-541 -1176h-201zM860 0v76q0 50 18.5 95t54 81.5t70.5 63t82 55.5q15 9 37.5 22t35 20.5t29.5 18t25.5 18.5t18 17.5t13 19t3.5 19.5q0 25 -24 41t-68 16q-78 0 -194 -65l-82 116q153 103 305 103 q122 0 187 -57.5t65 -145.5q0 -29 -8.5 -56t-19 -47t-33.5 -42t-37.5 -34.5t-45.5 -31.5t-44 -26t-46 -25q-41 -22 -60 -33.5t-38 -30t-19 -34.5h351v-154h-576z" />
<glyph horiz-adv-x="1687" d="M33 1176h360l146 -746l180 746h250l180 -746l145 746h361l-322 -1176h-313l-176 707l-176 -707h-312z" />
<glyph horiz-adv-x="1234" d="M125 0v1176h321v-478l377 478h394l-469 -543l481 -633h-381l-297 406l-105 -123v-283h-321zM483 -543l111 168h-107v262h240l14 -290l-196 -220z" />
<glyph horiz-adv-x="1509" d="M45 1063l207 113h178v-705h-188v535l-123 -64zM311 0l543 1176h199l-541 -1176h-201zM762 125v127l321 453h248v-426h111v-154h-111v-125h-188v125h-381zM952 279h191v274z" />
<glyph horiz-adv-x="1482" d="M45 1063l207 113h178v-705h-188v535l-123 -64zM311 0l543 1176h199l-541 -1176h-201zM805 299q0 182 123 300t319 118q31 0 60.5 -3t42.5 -6l14 -3l-43 -144q-31 6 -72 6q-81 0 -144.5 -37.5t-92.5 -119.5q63 47 162 47q103 0 169 -60.5t66 -158.5q0 -105 -79.5 -177.5 t-211.5 -72.5q-155 0 -234 89t-79 222zM991 266q1 -65 37 -96t84 -31q56 0 84.5 27t28.5 63q0 39 -30 64.5t-81 25.5q-43 0 -75 -16t-48 -37z" />
<glyph horiz-adv-x="1234" d="M125 0v1176h321v-478l377 478h394l-469 -543l481 -633h-381l-297 406l-105 -123v-283h-321z" />
<glyph horiz-adv-x="1687" d="M33 1176h360l146 -746l180 746h250l180 -746l145 746h361l-322 -1176h-313l-176 707l-176 -707h-312zM627 1257l237 287h367l-330 -287h-274z" />
<glyph horiz-adv-x="1517" d="M45 1063l207 113h178v-705h-188v535l-123 -64zM311 0l543 1176h199l-541 -1176h-201zM846 84l80 125q124 -66 219 -66q53 0 81.5 18t28.5 52q0 22 -13.5 37.5t-32 23.5t-48 12.5t-50.5 5.5t-50 1h-31v153h37q158 0 158 68q0 49 -80 49q-90 0 -191 -59l-77 114 q139 99 301 99q117 0 176 -49t59 -125q0 -102 -117 -154q67 -21 108.5 -69t41.5 -111q0 -93 -67.5 -157t-209.5 -64q-170 0 -323 96z" />
<glyph horiz-adv-x="454" d="M-27 721q53 18 81 31t41.5 32t15.5 34t2 50v781h235v-768q0 -50 -1 -73.5t-6 -60.5t-16.5 -54.5t-32.5 -42.5t-53 -39.5t-79 -31t-111 -30.5z" />
<glyph horiz-adv-x="454" d="M-27 -375q42 14 68 26.5t41 22.5t21.5 27.5t8 30t1.5 41.5v780h235v-768q0 -50 -1 -73.5t-6 -60.5t-16.5 -54.5t-32.5 -42.5t-53 -39.5t-79 -31t-111 -30.5z" />
<glyph horiz-adv-x="569" d="M-80 1257l207 287h311l207 -287h-227l-135 144l-136 -144h-227zM-70 -92q49 17 81.5 30t54.5 28.5t33 26t16.5 32.5t6.5 36.5t1 47.5v1067h321v-1051q0 -151 -14 -207q-25 -96 -118 -151q-90 -53 -277 -93z" />
<glyph horiz-adv-x="569" d="M-68 -92q49 17 81.5 30t54.5 28.5t33 26t16.5 32.5t6.5 36.5t1 47.5v1067h321v-1051q0 -151 -14 -207q-25 -96 -118 -151q-90 -53 -277 -93z" />
<glyph horiz-adv-x="1157" d="M68 150l141 227q85 -49 207.5 -90t208.5 -41q51 0 85.5 20t34.5 60q0 24 -20 42t-59.5 32t-82 26t-104 31t-110.5 39q-55 21 -97.5 46t-86.5 65t-68.5 98.5t-24.5 130.5q0 145 99.5 242t285.5 112v156h219v-166q176 -27 357 -115l-144 -231q-84 38 -184 66t-176 28 q-50 0 -83.5 -18.5t-33.5 -57.5q0 -38 45.5 -59.5t149 -48t170.5 -54.5q56 -22 99.5 -46.5t90 -65t72.5 -99.5t26 -133q0 -148 -101.5 -246.5t-287.5 -113.5v-154h-219v164q-116 19 -225 62t-184 92z" />
<glyph horiz-adv-x="569" d="M-92 1337q22 46 33 68.5t34.5 59t43.5 54t51 32t67 14.5q47 0 103 -24.5t103.5 -49.5t72.5 -25q22 0 44.5 19t53.5 76l143 -72q-17 -35 -23.5 -48.5t-23 -44t-27.5 -44.5t-29.5 -35t-36 -30.5t-40.5 -17t-49 -7.5q-45 0 -101 24.5t-103 49t-72 24.5q-51 0 -99 -94zM125 0 v1176h321v-1176h-321z" />
<glyph horiz-adv-x="454" d="M111 788v861h235v-861h-235z" />
<glyph horiz-adv-x="569" d="M57 -223q0 125 185 223h-117v1176h321v-1176h-6q-34 -21 -58.5 -39t-54 -43.5t-45.5 -53t-16 -54.5q0 -20 8.5 -33.5t19 -20.5t30 -10.5t29.5 -4t31 0t22 0.5l-29 -148q-105 0 -155 10q-165 34 -165 173z" />
<glyph horiz-adv-x="1298" d="M49 750q0 111 36 194.5t101.5 133.5t151.5 74t192 24h256v-1487h-260v630q-97 0 -180.5 24.5t-151 74.5t-106.5 135t-39 197zM895 -313v1489h258v-1489h-258z" />
<glyph horiz-adv-x="569" d="M-14 1309v192h598v-192h-598zM125 0v1176h321v-1176h-321z" />
<glyph horiz-adv-x="655" d="M121 207v2v749q0 150 14 205q25 97 119 152q89 53 274 94l78 -168q-48 -17 -78 -33t-48 -30.5t-26 -37t-10 -42.5t-2 -58v-913q0 -37 2 -56.5t10 -42.5t26 -37.5t48 -30t78 -32.5l-78 -168q-68 15 -121.5 31t-94 31t-70.5 38t-51 39.5t-34.5 48.5t-20.5 51.5t-10.5 61.5 t-4 67.5t-0.5 78.5z" />
<glyph horiz-adv-x="1687" d="M33 1176h360l146 -746l180 746h250l180 -746l145 746h361l-322 -1176h-313l-176 707l-176 -707h-312zM481 1257l207 287h311l207 -287h-227l-135 144l-135 -144h-228z" />
<glyph horiz-adv-x="808" d="M43 14q0 162 67 250t183 88q62 0 107.5 -20.5t93.5 -59.5v316h225v-895h-225v63q-49 -38 -94 -58t-107 -20q-116 0 -183 88t-67 248zM272 16q0 -157 95 -157q68 0 127 67v176q-60 68 -127 68q-95 0 -95 -154z" />
<glyph horiz-adv-x="454" d="M111 -307v860h235v-860h-235z" />
<glyph horiz-adv-x="659" d="M49 -72q48 17 78 33t48 30.5t26 37t10 42.5t2 58v913q0 37 -2 56.5t-10 42.5t-26 37.5t-48 30t-78 32.5l78 168q68 -15 121.5 -31t94.5 -31t71 -38.5t51 -39.5t34.5 -48t20.5 -51.5t10.5 -62t4 -67.5t0.5 -79v-750q0 -54 -0.5 -79t-4 -67.5t-10.5 -62.5t-20.5 -51.5 t-34.5 -48.5t-51 -40t-71 -38.5t-94.5 -32t-121.5 -31.5z" />
<glyph horiz-adv-x="1687" d="M33 1176h360l146 -746l180 746h250l180 -746l145 746h361l-322 -1176h-313l-176 707l-176 -707h-312zM543 1278v250h254v-250h-254zM899 1278v250h254v-250h-254z" />
<glyph horiz-adv-x="1687" d="M33 1176h360l146 -746l180 746h250l180 -746l145 746h361l-322 -1176h-313l-176 707l-176 -707h-312zM459 1544h364l240 -287h-275z" />
<glyph horiz-adv-x="1202" d="M12 553h267l102 -535l129 535h184l127 -537l105 537h264l-234 -860h-229l-125 516l-127 -516h-227z" />
<glyph horiz-adv-x="569" d="M-102 1544h364l240 -287h-275zM125 0v1176h321v-1176h-321z" />
<glyph horiz-adv-x="1716" d="M59 879q0 145 87 230t247 85t248 -85t88 -230t-88 -229.5t-248 -84.5t-247 84.5t-87 229.5zM283 879q0 -131 110 -131q54 0 83.5 33t29.5 98q0 64 -30 98.5t-83 34.5t-81.5 -34.5t-28.5 -98.5zM444 0l592 1176h236l-594 -1176h-234zM989 295q0 145 87 230t247 85t247 -85 t87 -230t-87 -229t-247 -84t-247 84t-87 229zM1212 295q0 -131 111 -131q53 0 82 33.5t29 97.5t-29 98.5t-82 34.5q-54 0 -82.5 -34t-28.5 -99z" />
<glyph horiz-adv-x="1216" d="M29 336q0 109 61.5 170t179.5 61q120 0 182 -61t62 -170t-62 -169.5t-182 -60.5q-118 0 -179.5 60.5t-61.5 169.5zM193 336q0 -96 77 -96q82 0 82 96t-82 96q-77 0 -77 -96zM301 -322l436 875h170l-436 -875h-170zM702 -90q0 109 62 169t180 60q120 0 182 -60t62 -169 q0 -110 -62 -171t-182 -61q-118 0 -180 61t-62 171zM866 -90q0 -96 78 -96q80 0 80 96q0 94 -80 94q-78 0 -78 -94z" />
<glyph horiz-adv-x="1966" d="M37 829v246h135v4q0 200 86 297t264 97q201 0 436 -84q91 104 285 104q231 0 488 -90l-109 -240q-209 41 -293 41q-117 0 -117 -98v-31h646v-1024q0 -57 -0.5 -83.5t-3 -72t-8.5 -67t-17 -56.5t-27.5 -53t-40.5 -44.5t-57 -42.5t-76 -36t-97.5 -35.5t-121.5 -31.5 l-109 244q57 20 93 35t62.5 33.5t38.5 31.5t19 40.5t8 47t1 64.5v804h-310v-829h-335v829h-369v-829h-336v829h-135zM508 1075h369v68q-9 2 -53.5 10.5t-75.5 14t-72 11t-66 5.5q-102 0 -102 -99v-10z" />
<glyph horiz-adv-x="569" d="M-20 1278v250h253v-250h-253zM125 0v1176h321v-1176h-321zM336 1278v250h254v-250h-254z" />
<glyph horiz-adv-x="569" d="M-80 1257l207 287h311l207 -287h-227l-135 144l-136 -144h-227zM123 0v1176h321v-1176h-321z" />
<glyph horiz-adv-x="1206" d="M14 1649h267l102 -535l129 535h184l127 -537l105 537h264l-234 -861h-229l-125 517l-127 -517h-227z" />
<glyph horiz-adv-x="661" d="M43 1112q0 85 24 151.5t66 105.5t93.5 59t111.5 20q134 0 295 -82l-88 -166q-108 53 -166 53q-52 0 -78.5 -38t-26.5 -103q0 -67 26.5 -105t78.5 -38q58 0 166 53l88 -168q-168 -80 -293 -80q-127 0 -212 85t-85 253z" />
<glyph horiz-adv-x="1363" d="M74 588q0 172 70 308t210.5 217t331.5 81q143 0 259 -47t191 -129t115.5 -192t40.5 -238t-40.5 -238t-115.5 -192t-191 -129t-259 -47q-191 0 -331.5 81t-210.5 217t-70 308zM143 588q0 -237 143.5 -390t397.5 -153q128 0 231.5 42t171 115.5t104 172t36.5 213.5 q0 154 -62 275.5t-187 194t-294 72.5q-170 0 -294.5 -72.5t-185.5 -194t-61 -275.5zM375 586q0 174 85.5 270t213.5 96q60 0 119 -19t90 -37t75 -48l-53 -60q-36 27 -58 41.5t-71.5 32t-99.5 17.5q-96 0 -155.5 -81t-59.5 -212q0 -130 59.5 -209.5t155.5 -79.5 q50 0 98.5 16.5t73 31.5t57.5 40l53 -59q-44 -30 -74.5 -48t-90.5 -37.5t-119 -19.5q-128 0 -213.5 96t-85.5 269z" />
<glyph horiz-adv-x="2459" d="M59 879q0 145 87 230t247 85t248 -85t88 -230t-88 -229.5t-248 -84.5t-247 84.5t-87 229.5zM283 879q0 -131 110 -131q54 0 83.5 33t29.5 98q0 64 -30 98.5t-83 34.5t-81.5 -34.5t-28.5 -98.5zM444 0l592 1176h236l-594 -1176h-234zM989 295q0 145 87 230t247 85t247 -85 t87 -230t-87 -229t-247 -84t-247 84t-87 229zM1212 295q0 -131 111 -131q53 0 82 33.5t29 97.5t-29 98.5t-82 34.5q-54 0 -82.5 -34t-28.5 -99zM1731 295q0 145 86.5 230t246.5 85t248 -85t88 -230t-88 -229t-248 -84t-246.5 84t-86.5 229zM1954 295q0 -64 28.5 -97.5 t81.5 -33.5t83 33.5t30 97.5t-30 98.5t-83 34.5t-81.5 -34.5t-28.5 -98.5z" />
<glyph horiz-adv-x="1169" d="M6 0l379 596l-358 580h370l189 -381l186 381h371l-361 -580l381 -596h-383l-194 369l-197 -369h-383z" />
<glyph horiz-adv-x="1253" d="M106 739v84h46v353h520q231 0 351 -90.5t132 -262.5h45v-84h-45q-25 -350 -483 -350h-199v-389h-321v739h-46zM473 651h176q74 0 118.5 19t57.5 69h-352v-88zM473 823h352q-13 49 -57.5 67.5t-118.5 18.5h-176v-86z" />
<glyph horiz-adv-x="899" d="M82 229v68h33v256h379q329 0 348 -256h35v-68h-35q-22 -252 -348 -252h-144v-284h-235v536h-33zM350 170h127q108 0 125 59h-252v-59zM350 297h252q-17 61 -125 61h-127v-61z" />
<glyph horiz-adv-x="899" d="M82 1325v68h33v256h379q329 0 348 -256h35v-68h-35q-22 -252 -348 -252h-144v-285h-235v537h-33zM350 1266h127q108 0 125 59h-252v-59zM350 1393h252q-17 61 -125 61h-127v-61z" />
<glyph horiz-adv-x="856" d="M8 -307l275 436l-260 424h272l133 -274l133 274h273l-261 -426l275 -434h-279l-141 266l-139 -266h-281z" />
<glyph horiz-adv-x="808" d="M88 338h225v-66q94 80 201 80q117 0 183.5 -88t66.5 -250q0 -161 -66.5 -248.5t-183.5 -87.5q-105 0 -201 78v-313h-225v895zM313 -74q59 -67 127 -67q95 0 95 157q0 154 -95 154q-67 0 -127 -68v-176z" />
<glyph horiz-adv-x="567" d="M-49 1520h201q0 -40 34.5 -62t96.5 -22t97.5 22t35.5 62h200q0 -123 -87.5 -193t-245.5 -70t-245 69.5t-87 193.5zM125 0v1176h321v-1176h-321z" />
<glyph horiz-adv-x="569" d="M68 1257l237 287h367l-330 -287h-274zM125 0v1176h321v-1176h-321z" />
<glyph horiz-adv-x="425" d="M100 788v238h226v-238h-226zM100 1153v238h226v-238h-226z" />
<glyph horiz-adv-x="702" d="M57 1219q0 168 84.5 251.5t210.5 83.5h19l22 95h92l-24 -107l26 -6l27 113h90l-33 -140q25 -8 88 -36l-88 -166l-41 18l-51 -233q20 6 92 38l88 -169q-125 -56 -225 -72l-22 -101h-93l21 95q-19 0 -27 2l-20 -97h-92l26 119q-78 34 -124 112.5t-46 199.5zM289 1188 l33 145q-33 -36 -33 -114v-31zM358 1079q16 -4 25 -4l63 279l-26 6z" />
<glyph horiz-adv-x="811" d="M88 539v895h225v-66q94 80 201 80q117 0 183.5 -88t66.5 -250q0 -161 -66.5 -248.5t-183.5 -87.5q-105 0 -201 78v-313h-225zM313 1022q60 -68 127 -68q95 0 95 158q0 154 -95 154q-67 0 -127 -68v-176z" />
<glyph horiz-adv-x="1140" d="M125 0v1176h321v-1176h-321zM500 -92q37 13 64 23t47.5 21.5t34 19.5t23 22t14 22t6.5 26.5t2.5 29.5t0.5 37v1067h322v-1051q0 -69 -1 -101t-8.5 -82t-23 -74t-44 -58t-73 -53.5t-108.5 -41.5t-152 -41z" />
<glyph horiz-adv-x="808" d="M43 14q0 162 67 250t183 88q62 0 107.5 -20.5t93.5 -59.5v66h225v-895h-225v313q-49 -38 -94 -58t-107 -20q-116 0 -183 88t-67 248zM272 16q0 -157 95 -157q68 0 127 67v176q-60 68 -127 68q-95 0 -95 -154z" />
<glyph horiz-adv-x="811" d="M45 1110q0 162 67 250t183 88q62 0 107.5 -20.5t93.5 -59.5v66h225v-895h-225v313q-49 -38 -94 -58t-107 -20q-116 0 -183 88t-67 248zM274 1112q0 -158 95 -158q67 0 127 68v176q-60 68 -127 68q-95 0 -95 -154z" />
<glyph horiz-adv-x="569" d="M125 0v1176h321v-1176h-321z" />
<glyph horiz-adv-x="937" d="M47 1057q219 137 432 137q181 0 292.5 -88t111.5 -232q0 -66 -23.5 -121t-59 -92t-90.5 -68.5t-106 -50t-117 -36.5l-14 -107h-188l-17 271q167 32 228 62.5t61 90.5q0 42 -32.5 73.5t-100.5 31.5q-107 0 -248 -86zM225 0v297h307v-297h-307z" />
<glyph horiz-adv-x="962" d="M111 788v861h235v-312h270v312h236v-861h-236v355h-270v-355h-235z" />
<glyph horiz-adv-x="940" d="M57 301q0 66 23.5 121t59 92.5t90.5 68.5t106 50t117 37l14 106h188l17 -270q-166 -32 -227.5 -62.5t-61.5 -91.5q0 -42 32.5 -73t100.5 -31q107 0 248 86l129 -215q-219 -137 -432 -137q-181 0 -292.5 87.5t-111.5 231.5zM408 879v297h307v-297h-307z" />
<glyph horiz-adv-x="649" d="M29 -88q0 49 16.5 89t43 68t65.5 50.5t76.5 36.5t84.5 26l11 80h137l12 -199q-120 -24 -164.5 -46.5t-44.5 -65.5q0 -32 23 -55t71 -23q81 0 181 66l94 -160q-166 -101 -313 -101q-131 0 -212 65t-81 169zM281 338v215h225v-215h-225z" />
<glyph horiz-adv-x="649" d="M27 1008q0 49 16.5 89t43 68t65.5 50.5t76.5 36.5t84.5 26l11 80h137l12 -199q-120 -24 -164.5 -46.5t-44.5 -65.5q0 -32 23 -55t71 -23q83 0 181 65l94 -160q-165 -100 -314 -100q-130 0 -211 65t-81 169zM279 1434v215h225v-215h-225z" />
<glyph horiz-adv-x="649" d="M16 467q165 100 314 100q131 0 212 -64.5t81 -168.5q0 -60 -24 -107t-68 -78t-89.5 -50.5t-105.5 -35.5l-10 -79h-138l-12 198q120 24 164.5 47t44.5 66q0 32 -23 55t-71 23q-80 0 -180 -66zM145 -92h226v-215h-226v215z" />
<glyph horiz-adv-x="649" d="M14 1563q165 100 314 100q131 0 212 -64.5t81 -168.5q0 -60 -24 -107t-68 -78t-89.5 -50.5t-105.5 -35.5l-10 -80h-138l-12 199q120 24 164.5 47t44.5 66q0 32 -23 54.5t-71 22.5q-82 0 -180 -65zM143 788v216h226v-216h-226z" />
<glyph horiz-adv-x="962" d="M111 -307v860h235v-311h270v311h236v-860h-236v354h-270v-354h-235z" />
<glyph horiz-adv-x="704" d="M57 123q0 168 84.5 252t210.5 84h19l22 94h92l-24 -107l26 -6l27 113h90l-33 -139q14 -5 88 -37l-88 -166l-41 18l-51 -233q13 4 92 39l88 -170q-125 -56 -225 -72l-22 -100h-93l21 94q-19 0 -27 2l-20 -96h-92l26 119q-78 34 -124 112.5t-46 198.5zM289 92l33 146 q-33 -36 -33 -115v-31zM358 -16q16 -4 25 -4l63 278l-26 6z" />
<glyph horiz-adv-x="980" d="M80 590q0 117 33 207t90.5 144t128.5 81t153 27h27l29 127h123l-31 -144q11 -4 37 -8l35 152h124l-41 -189q28 -9 121 -49l-121 -227l-57 22l-69 -317q29 9 126 51l121 -227q-165 -78 -307 -101l-31 -139h-125l29 129q-7 0 -20 1t-19 1l-28 -131h-123l34 160 q-109 45 -174 153t-65 277zM393 590q0 -46 4 -66l49 228q-53 -53 -53 -162zM494 397q18 -6 38 -6l84 383q-14 4 -38 8z" />
<glyph horiz-adv-x="423" d="M98 57v238h226v-238h-226zM98 -70h226v-237h-226v237z" />
<glyph horiz-adv-x="856" d="M8 788l275 437l-260 424h272l133 -275l133 275h273l-261 -426l275 -435h-279l-141 267l-139 -267h-281z" />
<glyph horiz-adv-x="659" d="M41 16q0 85 24 151.5t66 105.5t93.5 59t111.5 20q134 0 295 -82l-88 -166q-110 54 -166 54q-52 0 -78.5 -38t-26.5 -104q0 -67 26.5 -105t78.5 -38q58 0 166 53l88 -168q-168 -80 -293 -80q-127 0 -212 85t-85 253z" />
<glyph horiz-adv-x="976" d="M76 590q0 109 29.5 195.5t81 140.5t116.5 84.5t141 36.5v129h222v-152q97 -23 241 -86l-121 -227q-55 24 -83 35t-79 25.5t-87 14.5q-70 0 -108 -53t-38 -143t38 -144.5t108 -54.5q83 0 249 76l121 -227q-121 -57 -241 -88v-152h-222v129q-76 6 -141 36.5t-116.5 85 t-81 141.5t-29.5 198z" />
<glyph horiz-adv-x="1320" d="M25 860v174h125v142h321v-142h379v142h321v-142h125v-174h-125v-860h-321v485h-379v-485h-321v860h-125zM471 750h379v110h-379v-110z" />
<glyph horiz-adv-x="1269" d="M125 0v1176h321v-426h379v426h322v-1176h-322v485h-379v-485h-321z" />
<glyph horiz-adv-x="915" d="M59 1217q0 219 98.5 332.5t264.5 113.5q103 0 195.5 -32.5t201.5 -92.5l-106 -174q-169 86 -260 86q-73 0 -112.5 -62t-39.5 -169q0 -112 36 -178t114 -66q74 0 157 78v61h-172v182h393v-508h-221v72q-99 -86 -213 -86q-69 0 -129 28t-106.5 81.5t-73.5 139.5t-27 194z " />
<glyph horiz-adv-x="1159" d="M6 1176h363l209 -426l213 426h360l-412 -711v-465h-319v463z" />
<glyph horiz-adv-x="915" d="M59 121q0 219 98.5 332.5t264.5 113.5q103 0 195.5 -32.5t201.5 -92.5l-106 -174q-169 86 -260 86q-73 0 -112.5 -62t-39.5 -169q0 -112 36 -178t114 -66q74 0 157 78v61h-172v183h393v-508h-221v71q-99 -86 -213 -86q-69 0 -129 28t-106.5 81.5t-73.5 139.5t-27 194z " />
<glyph horiz-adv-x="1230" d="M72 586q0 299 135.5 453.5t365.5 154.5q139 0 265.5 -44t281.5 -126l-145 -236q-229 117 -359 117q-105 0 -160 -85.5t-55 -231.5q0 -154 51 -244t160 -90q102 0 226 113v77h-248v250h543v-694h-295v106q-137 -124 -301 -124q-95 0 -178 38t-148 110.5t-102 190 t-37 265.5zM477 1278v250h254v-250h-254z" />
<glyph horiz-adv-x="1230" d="M72 586q0 299 135.5 453.5t365.5 154.5q139 0 265.5 -44t281.5 -126l-145 -236q-229 117 -359 117q-105 0 -160 -85.5t-55 -231.5q0 -154 51 -244t160 -90q102 0 226 113v77h-248v250h543v-694h-295v106q-137 -124 -301 -124q-95 0 -178 38t-148 110.5t-102 190 t-37 265.5zM506 -543l110 168h-106v262h240l14 -290l-197 -220z" />
<glyph horiz-adv-x="571" d="M88 -307v645h225v-133q8 20 22.5 41.5t41 47.5t71 40.5t99.5 11.5v-215q-59 0 -105 -21.5t-69 -52t-38 -60.5t-19 -51l-3 -22v-231h-225z" />
<glyph horiz-adv-x="1159" d="M6 1176h363l209 -426l213 426h360l-412 -711v-465h-319v463zM362 1257l238 287h367l-330 -287h-275z" />
<glyph horiz-adv-x="1159" d="M6 1176h363l209 -426l213 426h360l-412 -711v-465h-319v463zM276 1278v250h254v-250h-254zM633 1278v250h254v-250h-254z" />
<glyph horiz-adv-x="1230" d="M72 586q0 299 135.5 453.5t365.5 154.5q139 0 265.5 -44t281.5 -126l-145 -236q-229 117 -359 117q-105 0 -160 -85.5t-55 -231.5q0 -154 51 -244t160 -90q102 0 226 113v77h-248v250h543v-694h-295v106q-137 -124 -301 -124q-95 0 -178 38t-148 110.5t-102 190 t-37 265.5zM268 1520h201q0 -40 34.5 -62t96.5 -22t97.5 22t35.5 62h201q0 -123 -88 -193t-246 -70t-245 69.5t-87 193.5z" />
<glyph horiz-adv-x="2275" d="M43 119l129 237q90 -45 208.5 -82.5t194.5 -37.5q95 0 95 59q0 15 -7 27t-23 22.5t-31 18.5t-43.5 16.5t-47 14t-54.5 14.5t-54 14q-55 15 -99 32.5t-92.5 46.5t-81 64.5t-53.5 88.5t-21 116q0 146 106 237t302 91q115 0 258 -35q-24 52 -24 125q0 140 93 222.5t273 82.5 h424v-539q92 64 182 104t193 40q155 0 230 -90t75 -252v-756h-338v678q0 77 -23 118.5t-83 41.5q-57 0 -121 -37t-115 -88v-713h-336v1346h-112q-89 0 -141 -49.5t-52 -143.5q0 -85 39 -143q39 -14 72 -31l-129 -219q-76 32 -175.5 58t-164.5 26q-95 0 -95 -60 q0 -21 12.5 -37t42 -28.5t53 -19.5t71.5 -18.5t73 -18.5q55 -15 100.5 -32.5t95.5 -47.5t83.5 -67t55.5 -91t22 -119q0 -151 -111 -239.5t-311 -88.5q-144 0 -296 43t-249 99z" />
<glyph horiz-adv-x="2193" d="M43 119l129 237q90 -45 208.5 -82.5t194.5 -37.5q95 0 95 59q0 15 -7 27t-23 22.5t-31 18.5t-43.5 16.5t-47 14t-54.5 14.5t-54 14q-55 15 -99 32.5t-92.5 46.5t-81 64.5t-53.5 88.5t-21 116q0 146 106 237t302 91q115 0 258 -35q-24 52 -24 125q0 140 93 222.5t273 82.5 h424v-805l266 387h389l-342 -426l400 -649h-355l-241 403l-117 -147v-256h-336v1346h-112q-89 0 -141 -49.5t-52 -143.5q0 -85 39 -143q39 -14 72 -31l-129 -219q-76 32 -175.5 58t-164.5 26q-95 0 -95 -60q0 -21 12.5 -37t42 -28.5t53 -19.5t71.5 -18.5t73 -18.5 q55 -15 100.5 -32.5t95.5 -47.5t83.5 -67t55.5 -91t22 -119q0 -151 -111 -239.5t-311 -88.5q-144 0 -296 43t-249 99z" />
<glyph horiz-adv-x="1609" d="M43 119l129 237q90 -45 208.5 -82.5t194.5 -37.5q95 0 95 59q0 15 -7 27t-23 22.5t-31 18.5t-43.5 16.5t-47 14t-54.5 14.5t-54 14q-55 15 -99 32.5t-92.5 46.5t-81 64.5t-53.5 88.5t-21 116q0 146 106 237t302 91q115 0 258 -35q-24 52 -24 125q0 140 93 222.5t273 82.5 h426v-1493h-336v1346h-114q-89 0 -141 -49.5t-52 -143.5q0 -85 39 -143q39 -14 72 -31l-129 -219q-76 32 -175.5 58t-164.5 26q-95 0 -95 -60q0 -21 12.5 -37t42 -28.5t53 -19.5t71.5 -18.5t73 -18.5q55 -15 100.5 -32.5t95.5 -47.5t83.5 -67t55.5 -91t22 -119 q0 -151 -111 -239.5t-311 -88.5q-144 0 -296 43t-249 99z" />
<glyph horiz-adv-x="1159" d="M6 1176h363l209 -426l213 426h360l-412 -711v-465h-319v463zM201 1544h364l240 -287h-275z" />
<glyph horiz-adv-x="1230" d="M72 586q0 299 135.5 453.5t365.5 154.5q139 0 265.5 -44t281.5 -126l-145 -236q-229 117 -359 117q-105 0 -160 -85.5t-55 -231.5q0 -154 51 -244t160 -90q102 0 226 113v77h-248v250h543v-694h-295v106q-137 -124 -301 -124q-95 0 -178 38t-148 110.5t-102 190 t-37 265.5z" />
<glyph horiz-adv-x="778" d="M111 788v861h632v-199h-397v-135h311v-195h-311v-332h-235z" />
<glyph horiz-adv-x="778" d="M111 -307v860h632v-199h-397v-135h311v-194h-311v-332h-235z" />
<glyph horiz-adv-x="1034" d="M125 0v1176h870v-267h-549v-190h431v-264h-431v-455h-321z" />
<glyph horiz-adv-x="890" d="M43 1085v95h70v71h-70v95h80q27 156 118 236.5t228 80.5q67 0 139 -19.5t119.5 -41.5t122.5 -62l-107 -174q-155 84 -243 84q-91 0 -127 -104h229v-95h-248v-71h248v-95h-229q36 -98 127 -98q88 0 243 84l107 -174q-107 -60 -195.5 -91.5t-185.5 -31.5q-135 0 -226 79 t-120 232h-80z" />
<glyph horiz-adv-x="890" d="M43 -10v94h70v72h-70v94h80q27 156 118 236.5t228 80.5q67 0 139 -19.5t119.5 -41.5t122.5 -62l-107 -174q-155 84 -243 84q-93 0 -129 -104h231v-94h-248v-72h248v-94h-229q37 -99 127 -99q88 0 243 84l107 -174q-107 -60 -195.5 -91.5t-185.5 -31.5q-135 0 -226 79.5 t-120 232.5h-80z" />
<glyph horiz-adv-x="1251" d="M66 401v136h96v51v41h-96v135h110q37 212 164 321t315 109q132 0 251 -43t274 -125l-146 -235q-213 114 -338 114q-127 0 -180 -141h324v-135h-348v-41q0 -35 2 -51h346v-136h-320q51 -131 176 -131q123 0 338 115l146 -235q-151 -82 -271.5 -125t-253.5 -43 q-187 0 -312.5 106t-164.5 313h-112z" />
<glyph horiz-adv-x="415" d="M92 -451l103 144h-101v237h225l13 -268l-180 -186zM94 57v238h225v-238h-225z" />
<glyph horiz-adv-x="415" d="M92 645l103 143h-101v238h225l13 -268l-180 -187zM94 1153v238h225v-238h-225z" />
<glyph horiz-adv-x="811" d="M-12 553h264l151 -307l150 307h266l-299 -522v-338h-233v338z" />
<glyph horiz-adv-x="1859" d="M59 539q0 141 38 250.5t104 175.5t148 99.5t175 33.5q71 0 189 -27q-15 40 -15 92q0 148 101.5 239t279.5 91q212 0 328.5 -105.5t116.5 -295.5v-17h268v-246h-268v-460q0 -32 7 -53t19.5 -30.5t24 -12.5t27.5 -3q13 0 29.5 3.5t34 10t29 11t28.5 12t18 8.5l117 -247 q-199 -91 -347 -91q-165 0 -245 97t-80 297v458h-133v246h133v37q0 121 -36.5 177.5t-123.5 56.5q-76 0 -127 -54t-51 -145q0 -84 41 -137l86 -39l-131 -250q-53 27 -83.5 41t-85 31.5t-93.5 17.5q-86 0 -133.5 -73.5t-47.5 -198.5q0 -126 47.5 -200.5t133.5 -74.5 q14 0 28.5 1.5t31 6t29.5 8t32 10.5t30 11.5t31 13.5t27.5 12.5t28 13t24.5 11.5l131 -248q-271 -127 -449 -127q-94 0 -176.5 34t-148 100.5t-104 176.5t-38.5 251z" />
<glyph horiz-adv-x="681" d="M37 666v194h622v-182q-12 -15 -32 -41.5t-72 -106t-91 -157t-71.5 -181.5t-32.5 -192h-241q0 84 29 182.5t63 169.5t85 152t70 106.5t42 55.5h-371z" />
<glyph horiz-adv-x="681" d="M37 1239v195h622v-183q-12 -15 -32 -41.5t-72 -106t-91 -157t-71.5 -181.5t-32.5 -192h-241q0 84 29 182.5t63 169.5t85 152t70 106.5t42 55.5h-371z" />
<glyph horiz-adv-x="1032" d="M39 887v289h973v-271q-10 -13 -27 -36.5t-66.5 -98t-95 -151.5t-100.5 -189t-94.5 -218.5t-66.5 -232t-27 -237.5h-361q0 145 46 313.5t103.5 295.5t134.5 259t113.5 185t65.5 92h-598z" />
<glyph horiz-adv-x="1568" d="M59 539q0 141 38 250.5t104 175.5t148 99.5t175 33.5q84 0 195 -29q-21 61 -21 119q0 139 89.5 222t259.5 83h409v-1493h-336v1346h-80q-88 0 -140 -49.5t-52 -141.5q0 -83 41 -145l86 -39l-131 -250q-53 27 -83.5 41t-85 31.5t-93.5 17.5q-86 0 -133.5 -73.5 t-47.5 -198.5q0 -126 47.5 -200.5t133.5 -74.5q14 0 28.5 1.5t31 6t29.5 8t32 10.5t30 11.5t31 13.5t27.5 12.5t28 13t24.5 11.5l131 -248q-271 -127 -449 -127q-94 0 -176.5 34t-148 100.5t-104 176.5t-38.5 251z" />
<glyph horiz-adv-x="2152" d="M59 539q0 141 38 250.5t104 175.5t148 99.5t175 33.5q84 0 195 -29q-21 61 -21 119q0 139 89.5 222t259.5 83h407v-805l266 387h389l-342 -426l400 -649h-355l-241 403l-117 -147v-256h-336v1346h-78q-88 0 -140 -49.5t-52 -141.5q0 -83 41 -145l86 -39l-131 -250 q-53 27 -83.5 41t-85 31.5t-93.5 17.5q-86 0 -133.5 -73.5t-47.5 -198.5q0 -126 47.5 -200.5t133.5 -74.5q14 0 28.5 1.5t31 6t29.5 8t32 10.5t30 11.5t31 13.5t27.5 12.5t28 13t24.5 11.5l131 -248q-271 -127 -449 -127q-94 0 -176.5 34t-148 100.5t-104 176.5t-38.5 251z " />
<glyph horiz-adv-x="1499" d="M57 1022v154h531v-144q-11 -12 -28.5 -34t-62 -88t-79 -130t-62.5 -150t-28 -159h-193q0 84 33 179.5t83.5 176.5t80.5 123.5t55 71.5h-330zM291 0l540 1176h201l-540 -1176h-201zM815 193q0 70 42 115t114 77q-111 65 -111 158q0 77 70 125.5t196 48.5q127 0 199 -49 t72 -125q0 -96 -111 -158q156 -70 156 -192q0 -95 -83.5 -150t-232.5 -55q-148 0 -229.5 55t-81.5 150zM1001 209q0 -35 35.5 -57.5t89.5 -22.5q55 0 90 22.5t35 57.5q0 36 -32.5 60t-90.5 48q-42 -18 -65 -30t-42.5 -33t-19.5 -45zM1040 518q0 -45 86 -76q86 32 86 76 q0 24 -23 44t-63 20q-38 0 -62 -20.5t-24 -43.5z" />
<glyph horiz-adv-x="2234" d="M59 539q0 141 38 250.5t104 175.5t148 99.5t175 33.5q84 0 195 -29q-21 61 -21 119q0 139 89.5 222t259.5 83h407v-539q92 65 181.5 104.5t193.5 39.5q155 0 230 -90t75 -252v-756h-338v678q0 77 -23 118.5t-83 41.5q-57 0 -122.5 -37.5t-113.5 -87.5v-713h-336v1346h-78 q-88 0 -140 -49.5t-52 -141.5q0 -83 41 -145l86 -39l-131 -250q-53 27 -83.5 41t-85 31.5t-93.5 17.5q-86 0 -133.5 -73.5t-47.5 -198.5q0 -126 47.5 -200.5t133.5 -74.5q14 0 28.5 1.5t31 6t29.5 8t32 10.5t30 11.5t31 13.5t27.5 12.5t28 13t24.5 11.5l131 -248 q-271 -127 -449 -127q-94 0 -176.5 34t-148 100.5t-104 176.5t-38.5 251z" />
<glyph horiz-adv-x="815" d="M-10 1649h264l152 -308l149 308h266l-299 -523v-338h-233v338z" />
<glyph horiz-adv-x="690" d="M35 -236l80 146q55 -27 132 -49.5t122 -22.5q59 0 59 35q0 9 -8.5 16.5t-26.5 13.5t-35.5 10.5t-44.5 11t-45 12.5q-221 57 -221 213q0 89 67.5 145.5t194.5 56.5q83 0 169.5 -22t150.5 -51l-80 -134q-142 50 -217 50q-58 0 -58 -35q0 -11 7.5 -18.5t24.5 -13.5t33.5 -10 t45.5 -10.5t49 -11.5q44 -12 78.5 -26.5t69.5 -39t54 -62.5t19 -87q0 -93 -70 -148t-200 -55q-90 0 -187 26t-163 60z" />
<glyph horiz-adv-x="1282" d="M29 465v246h118v465h453q302 0 454 -140t152 -448t-152 -448t-454 -140h-453v465h-118zM471 270h96q80 0 135.5 13.5t99 48t64.5 98t21 158.5t-21 158t-64.5 96.5t-99 47t-135.5 13.5h-96v-192h213v-246h-213v-195z" />
<glyph horiz-adv-x="817" d="M57 365q0 221 146.5 365t380.5 144q36 0 70 -3.5t50 -6.5l15 -4l-55 -182q-35 6 -78 6q-88 0 -161.5 -44t-107.5 -138q75 55 183 55q119 0 195.5 -73.5t76.5 -194.5q0 -128 -94 -215.5t-250 -87.5q-94 0 -167 31t-116.5 84.5t-65.5 120t-22 143.5zM293 326 q1 -79 40.5 -114.5t88.5 -35.5q58 0 87.5 31.5t29.5 73.5q0 45 -32.5 73.5t-84.5 28.5q-77 0 -129 -57z" />
<glyph horiz-adv-x="817" d="M57 938q0 221 146.5 365.5t380.5 144.5q36 0 70 -3.5t50 -6.5l15 -4l-55 -183q-35 6 -78 6q-88 0 -161.5 -44t-107.5 -138q75 55 183 55q119 0 195.5 -73.5t76.5 -194.5q0 -128 -94 -215.5t-250 -87.5q-94 0 -167 31t-116.5 84.5t-65.5 120t-22 143.5zM293 899 q1 -79 40.5 -114t88.5 -35q58 0 87.5 31t29.5 73q0 45 -32.5 73.5t-84.5 28.5q-77 0 -129 -57z" />
<glyph horiz-adv-x="1245" d="M76 592q-1 195 60 357.5t170 273t261 172t330 61.5q56 0 108 -5.5t77 -10.5l24 -6l-82 -273q-55 13 -125 13q-68 0 -131 -18t-123 -57t-108.5 -110t-75.5 -168q123 105 299 105q189 0 309.5 -124.5t120.5 -322.5q0 -102 -37 -192.5t-104 -159.5t-169 -109.5t-225 -40.5 q-118 0 -215.5 34t-164 92t-112 137.5t-66.5 167.5t-21 184zM428 549q0 -139 65.5 -214t151.5 -75q98 0 146.5 61.5t48.5 143.5q0 87 -52.5 145t-142.5 58q-74 0 -129.5 -35.5t-87.5 -83.5z" />
<glyph horiz-adv-x="507" d="M141 -207v694h221v-694h-221zM141 680v694h221v-694h-221z" />
<glyph horiz-adv-x="1120" d="M61 0v246l553 657h-518v273h938v-244l-553 -662h563v-270h-983z" />
<glyph horiz-adv-x="518" d="M41 612v127h135v953h-135v127h371v-1207h-371z" />
<glyph horiz-adv-x="808" d="M111 788v861h632v-199h-397v-133h324v-195h-324v-137h404v-197h-639z" />
<glyph horiz-adv-x="837" d="M31 -152l536 1479h230l-537 -1479h-229z" />
<glyph horiz-adv-x="1079" d="M125 0v1176h870v-267h-549v-188h447v-264h-447v-193h558v-264h-7q-34 -21 -58.5 -39t-54 -43.5t-45.5 -53t-16 -54.5q0 -20 8.5 -33.5t19 -20.5t30 -10.5t29.5 -4t31 0t22 0.5l-29 -148q-105 0 -155 10q-165 34 -165 173q0 125 185 223h-674z" />
<glyph horiz-adv-x="290" />
<glyph horiz-adv-x="290" />
<glyph horiz-adv-x="518" d="M41 -356h135v952h-135v127h371v-1206h-371v127z" />
<glyph horiz-adv-x="1296" d="M125 0v1176h326l401 -687v687h322v-1104q0 -52 -3 -86.5t-12 -72.5t-26.5 -63.5t-47 -52.5t-73.5 -47t-105 -39t-143 -37l-105 234q90 27 130.5 49.5t54.5 50.5l-398 678v-686h-321z" />
<glyph horiz-adv-x="1019" d="M86 0v213q7 2 19 5.5t43 19t56 35.5t48 56t29 79h-177v178h132q-8 14 -29.5 50.5t-32.5 58t-25.5 56.5t-21 70t-6.5 74q0 140 96.5 219.5t269.5 79.5q74 0 144 -14.5t132.5 -42.5t100 -48.5t88.5 -52.5l-137 -202q-161 94 -262 94q-54 0 -81.5 -22.5t-27.5 -61.5 q0 -47 52.5 -134t66.5 -124h262v-178h-245q-11 -50 -38 -87t-57 -57h449v-264h-848z" />
<glyph horiz-adv-x="747" d="M72 -152q5 1 13.5 4t31.5 14.5t41 26t34.5 41t20.5 58.5h-129v129h98q-5 8 -21.5 36.5t-24 43.5t-18.5 41t-15.5 51.5t-4.5 54.5q0 102 69.5 160.5t194.5 58.5q71 0 142 -21.5t109 -42t87 -52.5l-100 -148q-122 70 -188 70q-78 0 -78 -64q0 -33 37.5 -96t48.5 -92h190 v-129h-178q-17 -75 -67 -105h323v-194h-616v155z" />
<glyph horiz-adv-x="747" d="M70 788v156q5 1 13.5 4t31.5 14t41 25.5t34.5 41t20.5 58.5h-129v130h98q-5 8 -21.5 36.5t-24 43.5t-18.5 41t-15.5 51.5t-4.5 54.5q0 102 69.5 160.5t194.5 58.5q71 0 142 -21.5t108.5 -42.5t87.5 -53l-100 -147q-120 69 -188 69q-78 0 -78 -63q0 -33 37.5 -96t48.5 -92 h190v-130h-178q-17 -74 -68 -104h324v-195h-616z" />
<glyph horiz-adv-x="706" d="M57 -66h187v1303h-187v172h508v-1649h-508v174z" />
<glyph horiz-adv-x="1079" d="M125 0v1176h870v-267h-549v-188h447v-264h-447v-193h558v-264h-879zM264 1309v192h598v-192h-598z" />
<glyph horiz-adv-x="808" d="M111 -307v860h632v-199h-397v-133h324v-194h-324v-138h404v-196h-639z" />
<glyph horiz-adv-x="1079" d="M125 0v1176h870v-267h-549v-188h447v-264h-447v-193h558v-264h-879zM176 1544h365l239 -287h-274z" />
<glyph horiz-adv-x="1079" d="M125 0v1176h870v-267h-549v-188h447v-264h-447v-193h558v-264h-879zM436 1278v250h254v-250h-254z" />
<glyph horiz-adv-x="1079" d="M125 0v1176h870v-267h-549v-188h447v-264h-447v-193h558v-264h-879zM260 1278v250h254v-250h-254zM616 1278v250h254v-250h-254z" />
<glyph horiz-adv-x="1079" d="M125 0v1176h870v-267h-549v-188h447v-264h-447v-193h558v-264h-879zM201 1257l207 287h311l207 -287h-228l-135 144l-135 -144h-227z" />
<glyph horiz-adv-x="788" d="M25 104l102 158q151 -80 254 -80q55 0 85 20t30 58q0 31 -21 51t-59 28t-67.5 10.5t-69.5 2.5h-37v197h43q176 0 176 76q0 55 -82 55q-52 0 -113 -23t-108 -51l-97 146q161 122 357 122q139 0 208.5 -60t69.5 -152q0 -125 -127 -187q71 -26 117.5 -85.5t46.5 -133.5 q0 -41 -9.5 -78.5t-33.5 -73t-60 -61.5t-92.5 -41.5t-127.5 -15.5q-203 0 -385 118z" />
<glyph horiz-adv-x="788" d="M25 678l102 158q151 -80 254 -80q55 0 85 20t30 58q0 31 -21 51t-59 28t-67.5 10.5t-69.5 2.5h-37v196h43q176 0 176 76q0 55 -82 55q-52 0 -113.5 -22.5t-107.5 -50.5l-97 145q163 123 357 123q139 0 208.5 -60.5t69.5 -152.5q0 -124 -127 -186q71 -26 117.5 -86 t46.5 -134q0 -41 -9.5 -78.5t-33.5 -73t-60 -61.5t-92.5 -41.5t-127.5 -15.5q-201 0 -385 119z" />
</font>
</defs>
</svg>
