<?xml version="1.0" standalone="no"?>
<!DOCTYPE svg PUBLIC "-//W3C//DTD SVG 1.1//EN" "http://www.w3.org/Graphics/SVG/1.1/DTD/svg11.dtd" >
<svg xmlns="http://www.w3.org/2000/svg">
<metadata></metadata>
<defs>
<font id="verbcompextrabold_italic" horiz-adv-x="978" >
<font-face units-per-em="2048" ascent="1638" descent="-410" />
<missing-glyph horiz-adv-x="331" />
<glyph unicode="ff" horiz-adv-x="1267" d="M-168 -227q30 13 52 25t41 22t32.5 23t23.5 22t18 26.5t13.5 28.5t11 35.5t8.5 40t9 49.5l137 784h-96l43 246h98l4 25q35 198 106.5 295.5t194.5 97.5q127 0 308 -109l-144 -213q-78 33 -100 33q-47 0 -62 -84l-8 -45h170l-45 -246h-168l-133 -757q-32 -187 -56 -251 q-38 -102 -128 -164q-83 -59 -264 -122zM467 -227q30 13 52 25t41 22t32.5 23t23.5 22t18 26.5t13.5 28.5t11 35.5t8.5 40t9 49.5l137 784h-96l43 246h98l4 25q35 198 106.5 295.5t194.5 97.5q126 0 307 -109l-143 -213q-78 33 -100 33q-47 0 -62 -84l-8 -45h170l-45 -246 h-168l-133 -757q-13 -76 -19.5 -110.5t-20.5 -88.5t-26.5 -77.5t-36.5 -61t-52 -56.5t-71.5 -46.5t-97 -49.5t-125.5 -47z" />
<glyph unicode="fi" horiz-adv-x="1114" d="M-168 -227q45 20 74 35.5t51.5 35t34 34t22 44t15 52.5t12.5 71l137 784h-96l43 246h98l4 25q33 197 103 295t190 98q109 0 260 -88l-112 -231q-47 30 -76 30q-47 0 -62 -84l-8 -45h170l-45 -246h-168l-133 -757q-32 -186 -56 -251q-39 -102 -129 -165q-83 -58 -263 -121 zM614 0l191 1075h301l-191 -1075h-301zM823 1212l49 275h312l-49 -275h-312z" />
<glyph unicode="fl" horiz-adv-x="1118" d="M-168 -227q45 20 74 35.5t51.5 35t34 34t22 44t15 52.5t12.5 71l137 784h-96l43 246h98l4 25q33 197 103 295t190 98q109 0 260 -88l-112 -231q-47 30 -76 30q-47 0 -62 -84l-8 -45h170l-45 -246h-168l-133 -757q-32 -186 -56 -251q-39 -102 -129 -165q-83 -58 -263 -121 zM618 0l265 1493h299l-262 -1493h-302z" />
<glyph unicode="ffi" horiz-adv-x="1748" d="M-168 -227q30 13 52 25t41 22t32.5 23t23.5 22t18 26.5t13.5 28.5t11 35.5t8.5 40t9 49.5l137 784h-96l43 246h98l4 25q35 198 106.5 295.5t194.5 97.5q127 0 308 -109l-144 -213q-78 33 -100 33q-47 0 -62 -84l-8 -45h170l-45 -246h-168l-133 -757q-32 -187 -56 -251 q-38 -102 -128 -164q-83 -59 -264 -122zM467 -227q45 20 74 35.5t51.5 35t34 34t22 44t15 52.5t12.5 71l137 784h-96l43 246h98l4 25q33 197 103 295t190 98q109 0 260 -88l-112 -231q-47 30 -76 30q-47 0 -62 -84l-8 -45h170l-45 -246h-168l-133 -757q-13 -76 -19.5 -110 t-20.5 -88t-26.5 -77.5t-36.5 -61t-52 -57t-71.5 -47t-97 -49.5t-125.5 -47zM1249 0l191 1075h301l-191 -1075h-301zM1458 1212l49 275h312l-50 -275h-311z" />
<glyph unicode="ffl" horiz-adv-x="1751" d="M-168 -227q30 13 52 25t41 22t32.5 23t23.5 22t18 26.5t13.5 28.5t11 35.5t8.5 40t9 49.5l137 784h-96l43 246h98l4 25q35 198 106.5 295.5t194.5 97.5q127 0 308 -109l-144 -213q-78 33 -100 33q-47 0 -62 -84l-8 -45h170l-45 -246h-168l-133 -757q-32 -187 -56 -251 q-38 -102 -128 -164q-83 -59 -264 -122zM467 -227q45 20 74 35.5t51.5 35t34 34t22 44t15 52.5t12.5 71l137 784h-96l43 246h98l4 25q33 197 103 295t190 98q109 0 260 -88l-112 -231q-47 30 -76 30q-47 0 -62 -84l-8 -45h170l-45 -246h-168l-133 -757q-13 -76 -19.5 -110 t-20.5 -88t-26.5 -77.5t-36.5 -61t-52 -57t-71.5 -47t-97 -49.5t-125.5 -47zM1251 0l265 1493h299l-263 -1493h-301z" />
<glyph unicode="ffb" horiz-adv-x="2240" d="M-168 -227q30 13 52 25t41 22t32.5 23t23.5 22t18 26.5t13.5 28.5t11 35.5t8.5 40t9 49.5l137 784h-96l43 246h98l4 25q35 198 106.5 295.5t194.5 97.5q127 0 308 -109l-144 -213q-78 33 -100 33q-47 0 -62 -84l-8 -45h170l-45 -246h-168l-133 -757q-32 -187 -56 -251 q-38 -102 -128 -164q-83 -59 -264 -122zM467 -227q45 20 74 35.5t51.5 35t34 34t22 44t15 52.5t12.5 71l137 784h-96l43 246h98l4 25q33 197 103 295t190 98q109 0 260 -88l-112 -231q-47 30 -76 30q-47 0 -62 -84l-8 -45h170l-45 -246h-168l-133 -757q-13 -76 -19.5 -110 t-20.5 -88t-26.5 -77.5t-36.5 -61t-52 -57t-71.5 -47t-97 -49.5t-125.5 -47zM1249 0l262 1493h301l-92 -522q69 63 123 95t121 32q62 0 107 -28t69 -77t34.5 -104.5t10.5 -120.5q0 -84 -12.5 -182t-43.5 -207.5t-75.5 -197.5t-116.5 -146t-159 -58q-68 0 -114.5 33t-94.5 96 l-19 -106h-301zM1614 360q35 -112 98 -112q37 0 70 50.5t52.5 123t30.5 146t11 126.5q0 133 -68 133q-62 0 -133 -112z" />
<glyph unicode="ffh" horiz-adv-x="2232" d="M-168 -227q30 13 52 25t41 22t32.5 23t23.5 22t18 26.5t13.5 28.5t11 35.5t8.5 40t9 49.5l137 784h-96l43 246h98l4 25q35 198 106.5 295.5t194.5 97.5q127 0 308 -109l-144 -213q-78 33 -100 33q-47 0 -62 -84l-8 -45h170l-45 -246h-168l-133 -757q-32 -187 -56 -251 q-38 -102 -128 -164q-83 -59 -264 -122zM467 -227q45 20 74 35.5t51.5 35t34 34t22 44t15 52.5t12.5 71l137 784h-96l43 246h98l4 25q33 197 103 295t190 98q109 0 260 -88l-112 -231q-47 30 -76 30q-47 0 -62 -84l-8 -45h170l-45 -246h-168l-133 -757q-13 -76 -19.5 -110 t-20.5 -88t-26.5 -77.5t-36.5 -61t-52 -57t-71.5 -47t-97 -49.5t-125.5 -47zM1249 0l262 1493h301l-94 -535q75 66 143.5 103t143.5 37q107 0 154 -80.5t16 -253.5l-133 -764h-301l121 688q6 33 8.5 55.5t1.5 46.5t-11 36t-30 12q-34 0 -76 -31.5t-78 -77.5l-127 -729h-301z " />
<glyph unicode="fb" horiz-adv-x="1605" d="M-168 -227q45 20 74 35.5t51.5 35t34 34t22 44t15 52.5t12.5 71l137 784h-96l43 246h98l4 25q33 197 103 295t190 98q109 0 260 -88l-112 -231q-47 30 -76 30q-47 0 -62 -84l-8 -45h170l-45 -246h-168l-133 -757q-32 -186 -56 -251q-39 -102 -129 -165q-83 -58 -263 -121 zM616 0l263 1493h301l-93 -522q69 63 123 95t121 32q62 0 107 -28t69 -77t34.5 -104.5t10.5 -120.5q0 -84 -12.5 -182t-43.5 -207.5t-75.5 -197.5t-116.5 -146t-159 -58q-68 0 -114.5 33t-94.5 96l-18 -106h-302zM981 360q35 -112 98 -112q37 0 70 50.5t52.5 123t30.5 146 t11 126.5q0 133 -67 133q-63 0 -134 -112z" />
<glyph unicode="ffj" horiz-adv-x="1798" d="M-168 -227q30 13 52 25t41 22t32.5 23t23.5 22t18 26.5t13.5 28.5t11 35.5t8.5 40t9 49.5l137 784h-96l43 246h98l4 25q35 198 106.5 295.5t194.5 97.5q127 0 308 -109l-144 -213q-78 33 -100 33q-47 0 -62 -84l-8 -45h170l-45 -246h-168l-133 -757q-32 -187 -56 -251 q-38 -102 -128 -164q-83 -59 -264 -122zM467 -227q45 20 74 35.5t51.5 35t34 34t22 44t15 52.5t12.5 71l137 784h-96l43 246h98l4 25q33 197 103 295t190 98q109 0 260 -88l-112 -231q-47 30 -76 30q-47 0 -62 -84l-8 -45h170l-45 -246h-168l-133 -757q-13 -76 -19.5 -110 t-20.5 -88t-26.5 -77.5t-36.5 -61t-52 -57t-71.5 -47t-97 -49.5t-125.5 -47zM1047 -217q39 17 65.5 31t47 26.5t34 28t22.5 27t15.5 34t10 39.5t9.5 51l187 1055h301l-183 -1026q-31 -178 -56 -243q-43 -110 -143 -173q-88 -55 -251 -100zM1456 1212l49 275h312l-50 -275 h-311z" />
<glyph unicode="ffk" horiz-adv-x="2187" d="M-168 -227q30 13 52 25t41 22t32.5 23t23.5 22t18 26.5t13.5 28.5t11 35.5t8.5 40t9 49.5l137 784h-96l43 246h98l4 25q35 198 106.5 295.5t194.5 97.5q127 0 308 -109l-144 -213q-78 33 -100 33q-47 0 -62 -84l-8 -45h170l-45 -246h-168l-133 -757q-32 -187 -56 -251 q-38 -102 -128 -164q-83 -59 -264 -122zM467 -227q45 20 74 35.5t51.5 35t34 34t22 44t15 52.5t12.5 71l137 784h-96l43 246h98l4 25q33 197 103 295t190 98q109 0 260 -88l-112 -231q-47 30 -76 30q-47 0 -62 -84l-8 -45h170l-45 -246h-168l-133 -757q-13 -76 -19.5 -110 t-20.5 -88t-26.5 -77.5t-36.5 -61t-52 -57t-71.5 -47t-97 -49.5t-125.5 -47zM1249 0l262 1493h301l-133 -758l213 340h346l-350 -438l197 -637h-311l-95 375l-82 -103l-47 -272h-301z" />
<glyph unicode="fft" horiz-adv-x="1951" d="M-168 -227q30 13 52 25t41 22t32.5 23t23.5 22t18 26.5t13.5 28.5t11 35.5t8.5 40t9 49.5l137 784h-96l43 246h98l4 25q35 198 106.5 295.5t194.5 97.5q127 0 308 -109l-144 -213q-78 33 -100 33q-47 0 -62 -84l-8 -45h170l-45 -246h-168l-133 -757q-32 -187 -56 -251 q-38 -102 -128 -164q-83 -59 -264 -122zM467 -227q30 13 52 25t41 22t32.5 23t23.5 22t18 26.5t13.5 28.5t11 35.5t8.5 40t9 49.5l137 784h-96l43 246h98l4 25q35 198 106.5 295.5t194.5 97.5q126 0 307 -109l-143 -213q-78 33 -100 33q-47 0 -62 -84l-8 -45h170l-45 -246 h-168l-133 -757q-13 -76 -19.5 -110.5t-20.5 -88.5t-26.5 -77.5t-36.5 -61t-52 -56.5t-71.5 -46.5t-97 -49.5t-125.5 -47zM1343 829l43 246h101l43 242l311 69l-55 -311h196l-43 -246h-196l-80 -460q-18 -99 29 -99q9 0 18.5 2t22 7t19 8t23 11.5t21.5 10.5l57 -256 q-170 -76 -294 -76q-267 0 -193 412l78 440h-101z" />
<glyph unicode="fh" horiz-adv-x="1597" d="M-168 -227q45 20 74 35.5t51.5 35t34 34t22 44t15 52.5t12.5 71l137 784h-96l43 246h98l4 25q33 197 103 295t190 98q109 0 260 -88l-112 -231q-47 30 -76 30q-47 0 -62 -84l-8 -45h170l-45 -246h-168l-133 -757q-32 -186 -56 -251q-39 -102 -129 -165q-83 -58 -263 -121 zM616 0l263 1493h301l-95 -535q75 66 143.5 103t143.5 37q107 0 154 -80.5t16 -253.5l-133 -764h-301l121 688q6 33 8.5 55.5t1.5 46.5t-11 36t-30 12q-34 0 -76 -31.5t-78 -77.5l-126 -729h-302z" />
<glyph unicode="fj" horiz-adv-x="1163" d="M-168 -227q45 20 74 35.5t51.5 35t34 34t22 44t15 52.5t12.5 71l137 784h-96l43 246h98l4 25q33 197 103 295t190 98q109 0 260 -88l-112 -231q-47 30 -76 30q-47 0 -62 -84l-8 -45h170l-45 -246h-168l-133 -757q-32 -186 -56 -251q-39 -102 -129 -165q-83 -58 -263 -121 zM414 -217q39 17 65.5 31t47 26.5t34 28t22.5 27t15.5 34t10 39.5t9.5 51l187 1055h301l-182 -1026q-12 -71 -18.5 -103t-20 -85t-27 -77.5t-37 -62t-53 -57.5t-72 -46.5t-97.5 -45.5t-126 -39zM823 1212l49 275h312l-49 -275h-312z" />
<glyph unicode="fk" horiz-adv-x="1552" d="M-168 -227q45 20 74 35.5t51.5 35t34 34t22 44t15 52.5t12.5 71l137 784h-96l43 246h98l4 25q33 197 103 295t190 98q109 0 260 -88l-112 -231q-47 30 -76 30q-47 0 -62 -84l-8 -45h170l-45 -246h-168l-133 -757q-32 -186 -56 -251q-39 -102 -129 -165q-83 -58 -263 -121 zM616 0l263 1493h301l-133 -758l213 340h346l-351 -438l197 -637h-311l-92 375l-84 -103l-47 -272h-302z" />
<glyph unicode="ft" horiz-adv-x="1323" d="M-168 -227q30 13 52 25t41 22t32.5 23t23.5 22t18 26.5t13.5 28.5t11 35.5t8.5 40t9 49.5l137 784h-96l43 246h98l4 25q35 198 106.5 295.5t194.5 97.5q127 0 308 -109l-144 -213q-78 33 -100 33q-47 0 -62 -84l-8 -45h170l-45 -246h-168l-133 -757q-32 -187 -56 -251 q-38 -102 -128 -164q-83 -59 -264 -122zM715 829l43 246h100l43 242l311 69l-55 -311h197l-43 -246h-197l-80 -460q-18 -99 29 -99q9 0 18.5 2t22 7t19 8t23 11.5t21.5 10.5l58 -256q-170 -76 -295 -76q-267 0 -193 412l78 440h-100z" />
<glyph unicode=" "  horiz-adv-x="331" />
<glyph unicode="&#x09;" horiz-adv-x="331" />
<glyph unicode="&#xa0;" horiz-adv-x="331" />
<glyph unicode="!" horiz-adv-x="540" d="M14 0l60 336h295l-60 -336h-295zM154 475l75 959h367l-262 -959h-180z" />
<glyph unicode="&#x22;" horiz-adv-x="731" d="M152 864l55 570h274l-147 -570h-182zM479 864l56 570h274l-147 -570h-183z" />
<glyph unicode="#" horiz-adv-x="1058" d="M4 309l43 250h162l88 313h-137l45 252h164l86 310h225l-86 -310h133l86 310h227l-86 -310h138l-45 -252h-164l-86 -313h137l-43 -250h-164l-86 -309h-227l86 309h-133l-86 -309h-228l86 309h-135zM436 559h133l86 313h-133z" />
<glyph unicode="$" horiz-adv-x="1011" d="M-18 172l186 242q73 -59 154.5 -102.5t140.5 -43.5q51 0 85 31.5t34 85.5q0 28 -8 51t-31 48.5t-37.5 38.5t-56 45.5t-56.5 45.5q-129 103 -189.5 206.5t-60.5 221.5q0 82 27 155t77.5 129.5t130.5 91t179 38.5l33 184h213l-39 -210q149 -40 280 -123l-188 -246 q-162 102 -260 102q-47 0 -82 -27.5t-35 -84.5q0 -18 4 -34.5t15 -33t19.5 -28.5t29.5 -29.5l33 -27.5t40 -31.5t42 -32.5q258 -207 258 -439q0 -103 -45 -192.5t-140.5 -151.5t-226.5 -71l-33 -185h-211l35 205q-163 43 -317 172z" />
<glyph unicode="%" horiz-adv-x="1503" d="M119 977q0 51 7 106.5t29 124.5t56 122t94.5 89.5t138.5 36.5q34 0 67.5 -6.5t72 -26.5t67.5 -50.5t48.5 -83.5t19.5 -122q0 -40 -5.5 -85.5t-18 -102t-36.5 -106t-58 -92.5t-86.5 -68t-117.5 -25q-35 0 -69 6.5t-73 26.5t-68 50.5t-48.5 83.5t-19.5 122zM281 0l749 1434 h225l-751 -1434h-223zM330 963q0 -46 17.5 -70.5t47.5 -24.5t54 36.5t36.5 90.5t18.5 102.5t6 84.5q0 47 -17.5 71.5t-48.5 24.5q-29 0 -52.5 -37t-36 -90.5t-19 -103t-6.5 -84.5zM819 266q0 41 5.5 86.5t18 102t37 106t58.5 92t87 67.5t118 25q34 0 68 -6.5t73 -26 t67.5 -50t48 -83.5t19.5 -122q0 -50 -7 -105.5t-29 -124.5t-55.5 -122.5t-94 -90.5t-137.5 -37q-34 0 -68 6.5t-73 26.5t-68 50.5t-48.5 83.5t-19.5 122zM1030 252q0 -94 66 -94q29 0 52.5 36.5t36 90t19 102.5t6.5 84q0 46 -17.5 71t-47.5 25t-54 -37t-36.5 -90.5 t-18.5 -102.5t-6 -85z" />
<glyph unicode="&#x26;" horiz-adv-x="1118" d="M39 311q0 72 21.5 138t62.5 123.5t84.5 101.5t103.5 94q-69 153 -69 283q0 183 105.5 294t270.5 111q143 0 219 -83.5t76 -201.5q0 -64 -22.5 -125.5t-65.5 -119t-86.5 -103t-105.5 -100.5l98 -176q42 88 64 209h299q-67 -241 -224 -459l166 -297h-331l-43 84 q-149 -107 -304 -107q-152 0 -235.5 95t-83.5 239zM326 338q0 -47 22.5 -80t65.5 -33q58 0 139 68l-123 242q-104 -109 -104 -197zM494 1069q0 -60 28 -135q63 55 97 104.5t34 102.5q0 33 -15 56.5t-46 23.5q-44 0 -71 -44.5t-27 -107.5z" />
<glyph unicode="'" horiz-adv-x="405" d="M152 864l55 570h274l-147 -570h-182z" />
<glyph unicode="(" horiz-adv-x="581" d="M8.5 9.5q-0.5 28.5 3.5 65t9.5 72t13.5 80.5q1 7 2 11l172 979q13 75 20.5 110.5t24 90t35.5 81.5t51.5 64.5t77 60t107 47.5t145.5 47l39 -196q-52 -26 -83 -48t-50 -52.5t-27.5 -59.5t-18.5 -84l-204 -1155q-22 -100 -7 -148t97 -96l-101 -172q-52 16 -94 33t-74 35.5 t-55.5 37.5t-39.5 42t-26 46t-13.5 51.5t-4 57z" />
<glyph unicode=")" horiz-adv-x="569" d="M-102 -96q52 26 83 47.5t50 52t27 59.5t18 84l205 1156q13 66 12 109t-23 71.5t-80 62.5l101 172q169 -52 238.5 -119.5t68 -163t-26.5 -235.5q-1 -8 -2 -12l-172 -979q-13 -76 -20.5 -111t-24 -90t-35 -81.5t-51 -64.5t-77 -60.5t-107 -47.5t-145.5 -47z" />
<glyph unicode="*" horiz-adv-x="872" d="M133 1061l299 16l-274 123l157 191l168 -252l-34 299l245 -43l-135 -271l240 181l84 -234l-285 -20l262 -119l-162 -191l-159 238l30 -289l-245 43l135 273l-242 -181z" />
<glyph unicode="+" horiz-adv-x="983" d="M115 561l43 244h243l52 291h245l-51 -291h250l-43 -244h-250l-51 -291h-246l51 291h-243z" />
<glyph unicode="," horiz-adv-x="468" d="M-63 -233l172 233h-129l63 367h293l-57 -412l-287 -297z" />
<glyph unicode="-" horiz-adv-x="681" d="M61 449l48 268h497l-47 -268h-498z" />
<glyph unicode="." horiz-adv-x="471" d="M-18 0l65 367h293l-66 -367h-292z" />
<glyph unicode="/" horiz-adv-x="745" d="M-106 -184l768 1802h227l-770 -1802h-225z" />
<glyph unicode="0" horiz-adv-x="1073" d="M84 449q0 37 3 93t16 156t34.5 196t63 201t96 182.5t139 128t187.5 50.5q92 0 163 -27t115.5 -71.5t72.5 -107.5t39 -128t11 -139q0 -37 -3 -93t-16 -156.5t-34.5 -196.5t-63 -200.5t-96 -182.5t-139 -128.5t-187.5 -50.5q-92 0 -163.5 27.5t-115.5 72t-72.5 107.5 t-39 128t-10.5 139zM379 406q0 -83 23 -122.5t81 -39.5q48 0 90.5 74t70 179t47.5 220.5t29 197.5t9 111q0 83 -23 122.5t-81 39.5q-48 0 -90.5 -74t-70 -179t-47.5 -220.5t-29 -197.5t-9 -111z" />
<glyph unicode="1" horiz-adv-x="720" d="M104 1208l340 226h297l-252 -1434h-311l193 1094l-150 -99z" />
<glyph unicode="2" horiz-adv-x="970" d="M-51 0l26 152q17 98 58.5 187.5t102.5 165t113 127t122 111.5q149 126 201 185q79 87 79 147q2 40 -19.5 66t-64.5 26q-86 0 -260 -120l-119 231q33 27 74 53.5t100.5 57t133 49t145.5 18.5q164 0 249 -93t85 -233q0 -55 -15 -111t-35 -101t-55 -94.5t-61.5 -81 t-68.5 -72.5t-61.5 -58t-54.5 -47q-10 -8 -14 -12q-50 -43 -79.5 -70.5t-65 -64.5t-54.5 -68.5t-24 -60.5h447l-52 -289h-833z" />
<glyph unicode="3" horiz-adv-x="962" d="M-45 182l180 209q159 -119 246 -119q69 0 117.5 52t48.5 127q0 46 -22 80t-57.5 51t-70.5 24.5t-71 7.5h-35l49 285h45q43 0 93.5 18t93 60.5t42.5 97.5q0 38 -21 63t-65 25q-86 0 -243 -104l-109 227q236 170 451 170q153 0 233 -83.5t80 -213.5q0 -85 -36.5 -160 t-85.5 -122.5t-113 -85.5q157 -110 157 -320q0 -85 -28.5 -170t-82.5 -158.5t-145 -119.5t-205 -46q-79 0 -154 21.5t-132 57.5t-93.5 65t-66.5 61z" />
<glyph unicode="4" horiz-adv-x="1067" d="M-25 262l41 242l584 930h416l-158 -883h150l-52 -289h-149l-45 -262h-311l45 262h-521zM301 551h246l96 543z" />
<glyph unicode="5" horiz-adv-x="962" d="M-27 188l181 220q38 -38 63.5 -60.5t71 -47t86.5 -24.5q73 0 126.5 65.5t53.5 168.5q0 68 -28.5 112t-88.5 44q-73 0 -172 -78l-157 106l184 740h704l-51 -289h-434l-39 -209q48 10 88 10q80 0 142 -31t99.5 -86t56 -124.5t18.5 -151.5q0 -110 -32.5 -212.5t-92.5 -184 t-154 -130.5t-207 -49q-243 0 -418 211z" />
<glyph unicode="6" horiz-adv-x="1034" d="M61 483q0 142 33.5 282.5t100 264.5t156.5 219.5t212 151t258 55.5q68 0 127.5 -13t85.5 -25l25 -13l-135 -250q-46 16 -101 16q-132 0 -229.5 -90.5t-155.5 -240.5q84 88 195 88q136 0 214.5 -109t78.5 -272q0 -109 -31.5 -210.5t-88.5 -182t-145.5 -129t-193.5 -48.5 q-99 0 -177.5 41t-128 111.5t-75 161t-25.5 192.5zM373 471q0 -96 26 -152.5t78 -56.5q62 0 97.5 78t35.5 182q0 64 -23.5 107t-76.5 43q-40 0 -76 -32.5t-57 -76.5q-4 -31 -4 -92z" />
<glyph unicode="7" horiz-adv-x="825" d="M20 0q20 114 59 237t80.5 223t98 208t96.5 176.5t91 146.5t67 100.5t39 53.5h-412l51 289h752l-47 -271q-18 -23 -49 -65t-114.5 -172.5t-152.5 -261.5t-138.5 -314.5t-98.5 -349.5h-322z" />
<glyph unicode="8" horiz-adv-x="1038" d="M18 328q0 69 19 131.5t48.5 108.5t72.5 88t83 70t89 56q-117 114 -117 273q0 173 118.5 287t315.5 114q172 0 260 -88.5t88 -230.5q0 -65 -19 -122.5t-53.5 -102t-72 -77.5t-86.5 -65q170 -139 170 -342q0 -197 -137 -324t-375 -127q-202 0 -303 94.5t-101 256.5z M340 369q0 -63 29.5 -96t83.5 -33q73 0 119 54.5t46 139.5q0 115 -98 199q-86 -56 -133 -118t-47 -146zM498 1051q0 -82 71 -146q136 90 136 201q0 43 -20.5 69.5t-63.5 26.5q-58 0 -90.5 -45t-32.5 -106z" />
<glyph unicode="9" horiz-adv-x="1032" d="M8 29l135 250q44 -17 101 -17q133 0 231 91.5t154 242.5q-82 -90 -197 -90q-135 0 -214 109t-79 272q0 108 31.5 210t89 182t145.5 128.5t193 48.5q100 0 179 -41t128.5 -111.5t75 -161t25.5 -192.5q0 -142 -33.5 -282.5t-100 -264.5t-157 -219.5t-212.5 -151t-259 -55.5 q-68 0 -127 13t-84 26zM455 911q0 -64 24 -107.5t78 -43.5q41 0 77.5 34t55.5 80q4 62 4 89q0 95 -26.5 151.5t-77.5 56.5q-43 0 -74.5 -39t-46 -97t-14.5 -124z" />
<glyph unicode=":" horiz-adv-x="503" d="M-4 0l65 367h293l-65 -367h-293zM106 627l66 366h293l-66 -366h-293z" />
<glyph unicode=";" horiz-adv-x="507" d="M-49 -233l172 233h-129l63 367h293l-57 -412l-287 -297zM102 627l66 366h293l-66 -366h-293z" />
<glyph unicode="&#x3c;" horiz-adv-x="983" d="M90 569l41 228l811 415l-57 -333l-461 -207l387 -207l-55 -311z" />
<glyph unicode="=" horiz-adv-x="983" d="M76 362l45 252h737l-45 -252h-737zM145 758l45 250h738l-45 -250h-738z" />
<glyph unicode="&#x3e;" horiz-adv-x="983" d="M63 154l58 333l461 207l-387 207l55 311l665 -415l-41 -228z" />
<glyph unicode="?" horiz-adv-x="839" d="M80 0l59 336h293l-59 -336h-293zM145 1307q199 149 390 149q150 0 240.5 -87t90.5 -230q0 -301 -415 -491q-8 -4 -11 -5l-43 -168h-178l45 346q133 54 205 115t72 141q0 39 -20.5 64.5t-63.5 25.5q-66 0 -183 -82z" />
<glyph unicode="@" horiz-adv-x="1406" d="M37 276q0 128 23.5 259.5t68 258t114.5 237t156.5 194t200 132t240.5 48.5q114 0 203.5 -38t145.5 -102t90.5 -154t46 -188.5t5.5 -209.5q-3 -39 -6.5 -74t-12 -95t-19.5 -112t-29 -116t-40 -115.5t-53.5 -103t-68.5 -86t-86 -56t-105 -21.5q-54 0 -92.5 24.5t-56 64 t-24.5 78.5t-5 79q-125 -135 -239 -135q-94 0 -141.5 72t-47.5 180q0 151 81.5 259t213.5 108q24 0 49.5 -3.5t51 -10t42.5 -12t39.5 -13.5t26.5 -9q3 14 7 40t7 40q12 82 -3.5 120t-69.5 38q-83 0 -232 -70l-57 166q197 90 356 90q281 0 215 -348l-57 -327 q-30 -172 -24 -225q6 -56 44 -56q47 0 97 91.5t85 238.5t42 299q2 52 3 107t-9 111.5t-25 109t-46 98.5t-70.5 80t-99.5 53.5t-134 19.5q-130 0 -243.5 -63t-193.5 -166.5t-137.5 -236t-85.5 -273.5t-28 -277q0 -74 9.5 -143.5t35.5 -142t66 -125.5t107 -87t152 -34 q70 0 139 21.5t103 42.5l33 22l43 -90q-5 -4 -14.5 -11.5t-41 -26t-66 -32.5t-88 -25.5t-108.5 -11.5q-104 0 -187.5 37.5t-137.5 100t-90.5 147t-52 173.5t-15.5 185zM526 319q0 -40 17.5 -63t50.5 -23q67 0 168 115l26 146q-93 32 -126 32q-66 0 -101 -63t-35 -144z" />
<glyph unicode="A" horiz-adv-x="1081" d="M-90 0l608 1434h340l103 -1434h-334v262h-287l-92 -262h-338zM434 535h193l-2 538z" />
<glyph unicode="B" horiz-adv-x="1064" d="M2 0l252 1434h410q383 0 383 -293q0 -81 -28 -152.5t-70 -116t-84 -72t-77 -34.5q36 -16 62.5 -34t58.5 -52.5t50 -91t18 -131.5q0 -217 -132.5 -337t-371.5 -120h-471zM360 268h84q112 0 174 57.5t62 159.5q0 70 -40.5 106t-131.5 36h-84zM467 877h72q79 0 133.5 46.5 t54.5 129.5q0 55 -31.5 83.5t-111.5 28.5h-66z" />
<glyph unicode="C" horiz-adv-x="993" d="M70 498q0 76 8 158.5t27 177t47 182t73 168.5t100 140.5t132 95.5t166 36q61 0 121 -15.5t121.5 -48.5t101 -58.5t102.5 -69.5l-168 -246q-170 125 -256 125q-62 0 -113.5 -69t-82 -172t-47.5 -209.5t-17 -192.5q0 -209 121 -209q45 0 106 27.5t164 87.5l111 -269 q-150 -79 -255 -119.5t-202 -40.5q-95 0 -166 40t-112.5 112t-61.5 164t-20 205z" />
<glyph unicode="D" horiz-adv-x="1122" d="M2 0l252 1434h299q272 0 400 -135.5t128 -378.5q0 -72 -8.5 -148t-30.5 -168t-56 -175.5t-90.5 -163t-128 -137.5t-174 -93t-224.5 -35h-367zM365 295h45q103 0 186.5 88t126.5 223.5t43 284.5q0 130 -53.5 189t-165.5 59h-33z" />
<glyph unicode="E" horiz-adv-x="948" d="M2 0l252 1434h766l-55 -295h-451l-49 -277h366l-51 -289h-366l-49 -278h460l-51 -295h-772z" />
<glyph unicode="F" horiz-adv-x="907" d="M2 0l252 1434h766l-55 -295h-451l-49 -279h354l-51 -289h-354l-101 -571h-311z" />
<glyph unicode="G" horiz-adv-x="1081" d="M70 477q0 84 8 172t28 185t49.5 185t75.5 169t103 139.5t135.5 93.5t169.5 35q63 0 126.5 -16t129 -50t107.5 -60t108 -70l-164 -246q-13 8 -54.5 32t-64 36t-57 29t-61.5 24.5t-50 7.5q-53 0 -99 -44.5t-77 -115.5t-53 -159t-32.5 -174.5t-10.5 -162.5q0 -213 105 -213 q80 0 176 115l30 170h-184l47 275h479l-147 -834h-293l23 133q-61 -76 -123.5 -116t-139.5 -40q-137 0 -213.5 128.5t-76.5 371.5z" />
<glyph unicode="H" horiz-adv-x="1118" d="M2 0l252 1434h311l-94 -537h274l97 537h311l-252 -1434h-313l106 608h-274l-107 -608h-311z" />
<glyph unicode="I" horiz-adv-x="532" d="M2 0l252 1434h311l-252 -1434h-311z" />
<glyph unicode="J" horiz-adv-x="532" d="M-180 -121q44 20 73.5 35.5t51.5 34.5t33.5 32t20.5 39.5t13 44t11 58.5l231 1311h311l-227 -1293q-30 -173 -54 -234q-40 -99 -134 -163q-87 -57 -263 -119z" />
<glyph unicode="K" horiz-adv-x="1091" d="M2 0l252 1434h311l-88 -502l369 502h383l-529 -660l279 -774h-352l-148 500l-100 -127l-66 -373h-311z" />
<glyph unicode="L" horiz-adv-x="886" d="M2 0l252 1434h311l-200 -1139h442l-51 -295h-754z" />
<glyph unicode="M" horiz-adv-x="1294" d="M2 0l252 1434h315l95 -721l348 721h317l-254 -1434h-311l137 782l-254 -542h-131l-63 553l-140 -793h-311z" />
<glyph unicode="N" horiz-adv-x="1140" d="M2 0l252 1434h313l152 -822l145 822h312l-252 -1434h-316l-151 819l-144 -819h-311z" />
<glyph unicode="O" horiz-adv-x="1175" d="M72 514q0 49 5.5 108.5t17.5 137.5t35 156t54 157.5t78 147t104 121t135.5 84t168.5 30.5q78 0 145.5 -17t128 -56.5t103 -100t67.5 -153t25 -209.5q0 -57 -7 -127t-25.5 -162.5t-46.5 -181t-76 -175.5t-108 -152t-147 -105t-190 -40q-99 0 -180 28t-147 88.5t-103 167.5 t-37 253zM387 489q0 -95 39 -155t119 -60q64 0 115.5 62.5t80.5 149.5t49 188t26.5 169t6.5 101q0 95 -39 155t-120 60q-53 0 -98 -43.5t-74 -113.5t-50.5 -148.5t-33 -156.5t-16.5 -130.5t-5 -77.5z" />
<glyph unicode="P" horiz-adv-x="1050" d="M2 0l252 1434h373q106 0 186 -21.5t127 -55.5t76 -84.5t39 -100.5t10 -111q0 -267 -156.5 -418t-453.5 -151h-56l-86 -492h-311zM451 778h57q116 0 176.5 65t60.5 169q0 73 -39 103t-122 30h-70z" />
<glyph unicode="Q" horiz-adv-x="1175" d="M72 514q0 49 5.5 108.5t17.5 137.5t35 156t54 157.5t78 147t104 121t135.5 84t168.5 30.5q78 0 145.5 -17t128 -56.5t103 -100t67.5 -153t25 -209.5q0 -64 -8.5 -144.5t-32.5 -187t-60.5 -202.5t-100 -187t-142.5 -144l143 -196l-248 -193l-174 311q-75 2 -139 20.5 t-121.5 59t-97.5 100.5t-63 151t-23 206zM387 489q0 -95 39 -155t119 -60q64 0 115.5 62.5t80.5 149.5t49 188t26.5 169t6.5 101q0 95 -39 155t-120 60q-53 0 -98 -43.5t-74 -113.5t-50.5 -148.5t-33 -156.5t-16.5 -130.5t-5 -77.5z" />
<glyph unicode="R" horiz-adv-x="1091" d="M2 0l252 1434h403q106 0 186 -19.5t128 -51t78 -77.5t40.5 -92t10.5 -102t-8.5 -110t-31 -116.5t-58.5 -114.5t-96 -98.5t-138 -74.5l154 -578h-328l-125 539h-61l-95 -539h-311zM457 811h92q65 0 112 19.5t72.5 53.5t37 72t11.5 82q0 66 -41 94.5t-123 28.5h-100z" />
<glyph unicode="S" horiz-adv-x="997" d="M-27 172l187 242q73 -59 154.5 -102.5t140.5 -43.5q51 0 84.5 31.5t33.5 85.5q0 23 -7.5 45t-17.5 37.5t-31.5 37t-36.5 33.5t-46.5 37t-48.5 39q-129 103 -189.5 206.5t-60.5 221.5q0 176 115 295t321 119q124 0 246.5 -43t218.5 -106l-188 -246q-162 102 -260 102 q-47 0 -82 -27.5t-35 -84.5q0 -18 4 -34.5t15 -33t19.5 -28t29 -30t32 -27.5t40.5 -31.5t42 -32.5q258 -207 258 -439q0 -80 -29 -154t-83.5 -133.5t-142.5 -95t-197 -35.5q-246 0 -486 195z" />
<glyph unicode="T" horiz-adv-x="905" d="M119 1139l53 295h850l-53 -295h-267l-200 -1139h-312l201 1139h-272z" />
<glyph unicode="U" horiz-adv-x="1101" d="M60 346q2 74 18 168l162 920h311l-170 -965q-9 -55 -9 -97t27 -68q27 -28 84 -28q152 0 181 193l172 965h311l-166 -934q-16 -96 -37 -167t-59.5 -141.5t-92.5 -115t-136.5 -72t-190.5 -27.5q-115 0 -196.5 28.5t-125.5 76t-64 118.5q-19 66 -19 135v11z" />
<glyph unicode="V" horiz-adv-x="1079" d="M154 1434h340l8 -992l358 992h346l-608 -1434h-340z" />
<glyph unicode="W" horiz-adv-x="1460" d="M166 1434h346l-39 -820l277 820h231l-10 -809l246 809h358l-528 -1434h-291l10 860l-293 -860h-285z" />
<glyph unicode="X" horiz-adv-x="1030" d="M-102 0l452 731l-184 703h346l63 -445l220 445h358l-428 -703l195 -731h-345l-75 432l-228 -432h-374z" />
<glyph unicode="Y" horiz-adv-x="1019" d="M150 1434h333l68 -521l248 521h352l-496 -859l-100 -575h-309l98 575z" />
<glyph unicode="Z" horiz-adv-x="964" d="M-55 0l45 260l606 879h-422l51 295h815l-47 -258l-604 -881h463l-51 -295h-856z" />
<glyph unicode="[" horiz-adv-x="612" d="M-51 -293l354 2011h465l-35 -194h-151l-287 -1624h151l-34 -193h-463z" />
<glyph unicode="\" horiz-adv-x="712" d="M201 1618h207l135 -1802h-207z" />
<glyph unicode="]" horiz-adv-x="612" d="M-121 -293l35 195h152l286 1624h-151l35 192h462l-354 -2011h-465z" />
<glyph unicode="^" horiz-adv-x="987" d="M90 655l397 779h310l118 -779h-292l-19 508l-196 -508h-318z" />
<glyph unicode="_" horiz-adv-x="1064" d="M-88 -379l43 240h891l-43 -240h-891z" />
<glyph unicode="`" horiz-adv-x="370" d="M217 1493h299l127 -287h-229z" />
<glyph unicode="a" d="M33 307q0 93 14 196.5t46.5 210.5t78.5 191.5t117 138.5t155 54q68 0 113.5 -35t93.5 -102l21 114h299l-189 -1075h-299l21 121q-71 -71 -129 -107.5t-127 -36.5q-61 0 -105 28.5t-67 78t-33 104.5t-10 119zM340 371q0 -123 61 -123q70 0 148 131l57 326 q-38 122 -100 122q-39 0 -72.5 -53t-52.5 -129.5t-30 -150t-11 -123.5z" />
<glyph unicode="b" horiz-adv-x="970" d="M-18 0l262 1493h301l-92 -522q69 64 122.5 95.5t120.5 31.5q62 0 107.5 -28t69.5 -77t34.5 -104.5t10.5 -120.5q0 -84 -12.5 -182t-43.5 -207.5t-76 -197.5t-117 -146t-159 -58q-68 0 -114.5 33t-94.5 96l-18 -106h-301zM346 360q35 -112 98 -112q37 0 70 50.5t52.5 123 t30.5 146t11 126.5q0 133 -67 133q-62 0 -133 -112z" />
<glyph unicode="c" horiz-adv-x="790" d="M29 369q0 141 24.5 262t66 205.5t96 144.5t115 88.5t122.5 28.5q47 0 90.5 -8t87.5 -28t66 -31.5t68.5 -41t53.5 -33.5l-143 -231q-3 2 -19.5 14t-23.5 17t-23 15.5t-26.5 15.5t-25 12t-27.5 9.5t-25 2.5q-50 0 -90.5 -59.5t-62 -150.5t-21.5 -191q0 -146 82 -146 q15 0 39.5 9t45 20t53.5 28.5t50 26.5l82 -256q-70 -34 -106.5 -51t-114 -40.5t-135.5 -23.5q-133 0 -216 100t-83 292z" />
<glyph unicode="d" d="M33 307q0 93 14 196.5t46.5 210.5t78.5 191.5t117 138.5t155 54q68 0 113.5 -35t93.5 -102l94 532h299l-262 -1493h-299l21 121q-71 -71 -129 -107.5t-127 -36.5q-61 0 -105 28.5t-67 78t-33 104.5t-10 119zM340 371q0 -123 61 -123q70 0 148 131l57 326 q-38 122 -100 122q-39 0 -72.5 -53t-52.5 -129.5t-30 -150t-11 -123.5z" />
<glyph unicode="e" horiz-adv-x="870" d="M27 389q0 207 60 366.5t177.5 251t276.5 91.5q139 0 220 -80t81 -215q0 -88 -26.5 -155.5t-69 -108t-103.5 -66t-121.5 -34.5t-130.5 -9h-63v-33q0 -172 86 -172q28 0 73.5 19t74.5 35t104 59l88 -223q-60 -42 -184 -90t-238 -48q-140 0 -222.5 100.5t-82.5 311.5z M344 606h49q85 0 135 49t50 127t-66 78q-43 0 -77.5 -35.5t-56 -90.5t-34.5 -128z" />
<glyph unicode="f" horiz-adv-x="634" d="M-168 -227q30 13 52 25t41 22t32.5 23t23.5 22t18 26.5t13.5 28.5t11 35.5t8.5 40t9 49.5l137 784h-96l43 246h98l4 25q35 198 106.5 295.5t194.5 97.5q127 0 308 -109l-144 -213q-78 33 -100 33q-47 0 -62 -84l-8 -45h170l-45 -246h-168l-133 -757q-32 -187 -56 -251 q-38 -102 -128 -164q-83 -59 -264 -122z" />
<glyph unicode="g" d="M-70 -350l107 256q65 -32 148 -56t141 -24q76 0 107.5 45t45.5 133l19 111q-65 -67 -122.5 -102.5t-127.5 -35.5q-61 0 -105 28.5t-67 78t-33 104.5t-10 119q0 93 14 196.5t46.5 210.5t78.5 191.5t117 138.5t155 54q67 0 112 -34t91 -99l21 110h301l-187 -1057 q-24 -137 -58.5 -225.5t-87.5 -139.5t-119.5 -71t-162.5 -20q-205 0 -424 88zM340 371q0 -123 61 -123q66 0 142 121l61 344q-38 114 -98 114q-39 0 -72.5 -53t-52.5 -129.5t-30 -150t-11 -123.5z" />
<glyph unicode="h" horiz-adv-x="964" d="M-18 0l262 1493h301l-94 -535q75 67 143 103.5t143 36.5q107 0 154 -80q28 -49 28 -131q0 -54 -12 -123l-133 -764h-301l121 688q6 33 8.5 55.5t1.5 46.5t-11 36t-30 12q-34 0 -75.5 -31.5t-77.5 -77.5l-127 -729h-301z" />
<glyph unicode="i" horiz-adv-x="479" d="M-20 0l190 1075h301l-190 -1075h-301zM188 1212l50 275h311l-49 -275h-312z" />
<glyph unicode="j" horiz-adv-x="479" d="M-221 -217q45 20 74 35t51.5 32.5t34 30.5t21 37.5t13.5 43.5t11 58l186 1055h301l-182 -1026q-12 -71 -18.5 -103t-20 -85t-27 -77.5t-37 -62t-53 -57.5t-72 -46.5t-97.5 -45.5t-126 -39zM188 1212l50 275h311l-49 -275h-312z" />
<glyph unicode="k" horiz-adv-x="917" d="M-18 0l262 1493h301l-133 -758l213 340h346l-350 -438l196 -637h-311l-92 375l-84 -103l-47 -272h-301z" />
<glyph unicode="l" horiz-adv-x="483" d="M-16 0l264 1493h299l-262 -1493h-301z" />
<glyph unicode="m" horiz-adv-x="1390" d="M-18 0l188 1075h301l-22 -127q124 150 264 150q77 0 119.5 -48t50.5 -130q136 178 288 178q108 0 148 -90q24 -55 24 -130q0 -49 -10 -106l-135 -772h-301l127 719q7 33 7 59q0 14 -2 26q-6 34 -36 34q-54 0 -125 -107l-129 -731h-299l127 719q6 34 6 58q0 61 -38 61 q-57 0 -125 -107l-127 -731h-301z" />
<glyph unicode="n" horiz-adv-x="964" d="M-18 0l188 1075h301l-20 -117q75 67 143 103.5t143 36.5q109 0 155 -80q28 -48 28 -130q0 -54 -13 -124l-133 -764h-301l123 692q4 22 6 35.5t3.5 33t0 31t-6 23.5t-13.5 17.5t-23 5.5q-34 0 -76 -32t-77 -79l-127 -727h-301z" />
<glyph unicode="o" horiz-adv-x="954" d="M33 399q0 49 5.5 104.5t20 125t37 133.5t60 126.5t85.5 108t117 73.5t150 28q48 0 95.5 -9.5t102.5 -37.5t96 -73t68 -123t27 -179q0 -49 -5 -104.5t-19.5 -125t-37 -133.5t-60 -126.5t-85 -108t-116.5 -73.5t-150 -28q-49 0 -96.5 9t-102.5 37.5t-96 73t-68.5 122.5 t-27.5 180zM332 365q0 -64 23.5 -98t66.5 -34q46 0 83 57.5t56.5 140.5t29 156.5t9.5 123.5q0 63 -24 97t-66 34q-47 0 -84 -57.5t-56 -140t-28.5 -156t-9.5 -123.5z" />
<glyph unicode="p" horiz-adv-x="970" d="M-92 -418l262 1493h301l-18 -106q47 43 77 66.5t75 43t91 19.5q62 0 107.5 -28t69.5 -77t34.5 -104.5t10.5 -120.5q0 -84 -12.5 -182t-43.5 -207.5t-76 -197.5t-117 -146t-159 -58q-68 0 -114.5 33t-94.5 96l-92 -524h-301zM346 360q35 -112 98 -112q38 0 71 50.5 t52.5 123.5t30 145.5t10.5 126.5q0 133 -67 133q-62 0 -133 -112z" />
<glyph unicode="q" d="M33 307q0 93 14 196.5t46.5 210.5t78.5 191.5t117 138.5t155 54q68 0 113.5 -35t93.5 -102l21 114h299l-262 -1493h-299l94 539q-74 -72 -130.5 -108t-125.5 -36q-61 0 -105 28.5t-67 78t-33 104.5t-10 119zM340 371q0 -123 61 -123q69 0 148 129l57 330 q-38 120 -100 120q-39 0 -72.5 -53t-52.5 -129.5t-30 -150t-11 -123.5z" />
<glyph unicode="r" horiz-adv-x="681" d="M-18 0l188 1075h301l-39 -223q12 23 18.5 34t26 41.5t35.5 49t43.5 44t53.5 39t61 22.5q24 6 49 6q11 0 22 -1l-57 -315q-50 0 -95 -21t-77.5 -54t-60.5 -73t-45.5 -80.5t-30 -73.5t-17.5 -54l-6 -21l-69 -395h-301z" />
<glyph unicode="s" horiz-adv-x="839" d="M-41 125l147 225q174 -112 259 -112q32 0 54.5 17.5t22.5 47.5q0 15 -5.5 28t-11.5 22t-22.5 21.5t-25.5 18.5t-35 21t-37 22q-38 23 -67.5 44t-61.5 52t-52.5 63.5t-34 76t-13.5 92.5q0 145 100.5 239.5t272.5 94.5q179 0 376 -123l-143 -225q-142 88 -223 88 q-30 0 -52 -16.5t-22 -43.5q0 -14 3 -25.5t11.5 -22t14 -17.5t22 -17t24 -14.5t30 -16.5t30.5 -16q46 -28 81.5 -56t72.5 -69t57.5 -94.5t20.5 -114.5q0 -142 -99 -240t-276 -98q-205 0 -418 148z" />
<glyph unicode="t" horiz-adv-x="684" d="M76 829l43 246h100l43 242l311 69l-55 -311h197l-43 -246h-197l-80 -460q-5 -27 -5 -47q0 -52 34 -52q9 0 18.5 2t22 7t19 8t23 11.5t21.5 10.5l58 -256q-170 -76 -295 -76q-209 0 -209 253q0 70 16 159l78 440h-100z" />
<glyph unicode="u" horiz-adv-x="962" d="M31 313l135 762h299l-121 -690q-10 -41 -9 -77q1 -12 1 -24q4 -46 41 -46q36 0 78.5 33.5t76.5 80.5l127 723h299l-188 -1075h-299l21 119q-76 -67 -144.5 -104.5t-144.5 -37.5q-183 0 -183 215q0 54 11 121z" />
<glyph unicode="v" horiz-adv-x="905" d="M96 1075h314l-7 -686l230 686h332l-478 -1075h-294z" />
<glyph unicode="w" horiz-adv-x="1269" d="M106 1075h316l-29 -600l219 600h201l6 -600l182 600h320l-414 -1075h-264l-12 602l-223 -602h-267z" />
<glyph unicode="x" horiz-adv-x="929" d="M-104 0l374 541l-168 534h320l55 -330l170 330h346l-358 -530l186 -545h-332l-55 344l-174 -344h-364z" />
<glyph unicode="y" horiz-adv-x="903" d="M-27 -211q141 67 222 148l-99 1138h307v-696l242 696h316l-459 -1075q-23 -53 -37.5 -84t-41 -78.5t-49 -78t-58 -68.5t-74 -64t-90 -50.5t-111.5 -41.5z" />
<glyph unicode="z" horiz-adv-x="880" d="M-55 0l41 229l481 570h-369l52 276h755l-41 -229l-483 -570h383l-49 -276h-770z" />
<glyph unicode="{" horiz-adv-x="628" d="M29 612l34 199q156 0 173 225l20 205q46 477 434 477h82l-33 -188h-30q-116 0 -136 -250l-16 -180q-19 -193 -92 -280.5t-209 -112.5q117 -32 156.5 -126.5t-0.5 -281.5l-27 -111q-8 -37 -13 -66.5t-9 -65.5t-2.5 -62.5t7.5 -49.5t21.5 -35.5t38.5 -12.5h23l-33 -189h-25 q-80 0 -148.5 29.5t-119.5 91.5t-65 156t16 223l45 182q14 56 18 93.5t-4 68.5t-34 46t-72 15z" />
<glyph unicode="|" horiz-adv-x="432" d="M-45 -252l340 1927h215l-342 -1927h-213z" />
<glyph unicode="}" horiz-adv-x="628" d="M-109 -293l33 189h31q115 0 135 249l16 181q13 132 53.5 215t99.5 122.5t149 55.5q-117 32 -156.5 126t0.5 281l27 111q8 37 13 66.5t9 65.5t2.5 62.5t-7.5 50t-21.5 36t-38.5 12.5h-23l33 188h24q80 0 148.5 -29.5t119.5 -91t65 -155.5t-15 -223l-45 -183 q-14 -56 -18 -93.5t4 -68.5t34 -46t72 -15l-35 -199q-155 0 -172 -225l-20 -205q-46 -477 -435 -477h-82z" />
<glyph unicode="~" horiz-adv-x="983" d="M12 440q34 76 66 131.5t71.5 103.5t85.5 72.5t97 24.5t100 -24.5t80.5 -53.5t70.5 -53.5t72 -24.5q31 0 60.5 29t77.5 115l159 -84q-75 -164 -150.5 -248t-170.5 -84q-51 0 -100 24.5t-81 53.5t-72 53.5t-73 24.5q-30 0 -57 -28t-76 -116z" />
<glyph unicode="&#xa1;" horiz-adv-x="540" d="M-18 0l262 958h180l-76 -958h-366zM209 1098l59 336h295l-59 -336h-295z" />
<glyph unicode="&#xa2;" horiz-adv-x="864" d="M80 549q0 141 24.5 262t66 205.5t96 144.5t115 88.5t122.5 28.5h8l29 156h211l-37 -205q30 -13 58 -28.5t66 -39t46 -28.5l-146 -230q-16 8 -56 33.5t-70 40t-52 14.5q-53 0 -94.5 -59.5t-62.5 -150t-21 -191.5q0 -146 86 -146q15 0 41 9.5t48 20.5t57.5 29.5t52.5 26.5 l80 -254q-131 -67 -216 -92l-32 -184h-211l28 164q-108 21 -172.5 119t-64.5 266z" />
<glyph unicode="&#xa3;" horiz-adv-x="901" d="M-29 0l39 233q7 3 18 9.5t41 31t56 53t54 76.5t42 101h-147l35 196h120q0 4 -21.5 127t-21.5 203q0 197 92 311.5t257 114.5q212 0 419 -192l-163 -203q-129 106 -193 106q-50 0 -78 -42.5t-28 -110.5q0 -49 20 -150.5t23 -163.5h217l-33 -196h-207q-21 -74 -52 -131 t-61 -84h371l-49 -289h-750z" />
<glyph unicode="&#xa5;" horiz-adv-x="1085" d="M88 281l39 194h231l19 100v3h-234l37 194h152l-150 662h334l68 -521l247 521h353l-383 -662h155l-36 -194h-232v-3l-18 -100h233l-39 -194h-227l-49 -281h-309l47 281h-238z" />
<glyph unicode="&#xa6;" horiz-adv-x="432" d="M-45 -252l149 846h213l-149 -846h-213zM145 829l150 846h215l-150 -846h-215z" />
<glyph unicode="&#xa7;" horiz-adv-x="921" d="M-2 -27l145 228q54 -35 118 -61.5t104 -26.5q30 0 51.5 16.5t21.5 46.5q0 17 -7 31t-25 27.5t-30 21t-43.5 23.5t-43.5 22q-217 117 -217 311q0 96 49.5 173t142.5 116q-74 84 -74 205q0 152 100.5 251t272.5 99q176 0 377 -123l-145 -225q-56 35 -119.5 61.5 t-104.5 26.5q-30 0 -50.5 -16t-20.5 -47q0 -18 7 -32t25 -27t30.5 -21t43 -23t43.5 -22q217 -117 217 -314q0 -98 -49.5 -174.5t-142.5 -113.5q74 -84 74 -205q0 -151 -100.5 -249.5t-272.5 -98.5q-185 0 -377 120zM360 678q0 -17 6 -32t11.5 -24.5t23.5 -23t26.5 -19.5 t35.5 -22t37 -22q35 11 56.5 36t21.5 62q0 17 -5.5 31t-11.5 23.5t-23 22t-26 18.5t-36.5 21.5t-39.5 22.5q-76 -24 -76 -94z" />
<glyph unicode="&#xa8;" horiz-adv-x="382" d="M156 1227l43 250h215l-43 -250h-215zM440 1227l43 250h215l-43 -250h-215z" />
<glyph unicode="&#xa9;" horiz-adv-x="1585" d="M80 641q0 131 32.5 251.5t98 223t158 178.5t219 119t274.5 43q206 0 360.5 -84.5t235 -234.5t80.5 -344q0 -131 -32.5 -251.5t-98.5 -223.5t-158 -179t-219.5 -119t-275.5 -43q-309 0 -491.5 184t-182.5 480zM160 643q0 -171 70 -303.5t208 -209.5t324 -77q161 0 294 59 t220.5 160t135.5 234.5t48 284.5q0 261 -161.5 424t-442.5 163q-160 0 -293 -58.5t-220 -159t-135 -233.5t-48 -284zM430 618q-5 126 27 230.5t90 172t134.5 104t162.5 36.5q54 0 104.5 -12.5t94 -37t69 -42t59.5 -45.5l-61 -66q-28 23 -47.5 37.5t-55.5 36t-77 32.5t-86 11 q-138 0 -229.5 -128t-84.5 -322q5 -124 57.5 -195.5t139.5 -71.5q152 0 307 113l51 -74q-53 -35 -95 -58t-115 -46t-144 -23q-126 0 -210.5 91.5t-90.5 256.5z" />
<glyph unicode="&#xaa;" horiz-adv-x="679" d="M137 975q0 54 9 115t29 125t49 115.5t73 84.5t96 33q43 0 70 -18.5t59 -57.5l13 62h198l-115 -646h-196l12 72q-44 -42 -80.5 -64t-79.5 -22q-51 0 -83.5 33t-43 75t-10.5 93zM338 1018q0 -28 9.5 -47t27.5 -19q38 0 88 74l31 176q-19 66 -58 66q-24 0 -44 -30.5 t-31 -73.5t-17 -82.5t-6 -63.5z" />
<glyph unicode="&#xab;" horiz-adv-x="1005" d="M16 449l35 200l502 430l-68 -377l-223 -167l164 -166l-59 -349zM467 449l35 200l502 430l-68 -377l-223 -167l164 -166l-60 -349z" />
<glyph unicode="&#xac;" horiz-adv-x="983" d="M45 557l45 252h844l-113 -625h-252l68 373h-592z" />
<glyph unicode="&#xad;" horiz-adv-x="681" d="M61 449l48 268h497l-47 -268h-498z" />
<glyph unicode="&#xae;" horiz-adv-x="788" d="M131 1104q0 156 96 263.5t262 107.5q141 0 225.5 -85t84.5 -221q0 -155 -96.5 -262.5t-262.5 -107.5q-141 0 -225 84.5t-84 220.5zM199 1104q0 -105 66 -172.5t179 -67.5q132 0 210.5 86.5t78.5 216.5q0 105 -68 173.5t-180 68.5q-132 0 -209 -87.5t-77 -217.5zM311 971 l62 340h149q48 0 76.5 -25t28.5 -63q0 -45 -29.5 -72t-77.5 -33l55 -147h-65l-53 145h-54l-26 -145h-66zM412 1174h80q69 0 69 49q0 28 -43 28h-92z" />
<glyph unicode="&#xaf;" horiz-adv-x="460" d="M225 1257l35 193h457l-33 -193h-459z" />
<glyph unicode="&#xb0;" horiz-adv-x="716" d="M129 1130q0 126 89 216t216 90q126 0 215.5 -90t89.5 -216q0 -127 -89.5 -217t-215.5 -90q-127 0 -216 89.5t-89 217.5zM315 1130q0 -49 34.5 -83.5t84.5 -34.5q47 0 82 35.5t35 82.5t-35 82t-82 35q-49 0 -84 -34.5t-35 -82.5z" />
<glyph unicode="&#xb1;" horiz-adv-x="983" d="M14 0l37 215h740l-37 -215h-740zM119 600l45 250h244l45 260h249l-45 -260h246l-45 -250h-246l-45 -260h-250l45 260h-243z" />
<glyph unicode="&#xb2;" horiz-adv-x="632" d="M74 788l16 95q10 58 36 112t64 99.5t71 77t75 65.5q109 88 141 125q30 37 31 63q2 20 -10.5 32.5t-38.5 12.5q-54 0 -162 -73l-80 153q145 113 291 113q106 0 159.5 -58.5t53.5 -144.5q0 -48 -19 -96.5t-41 -82t-60.5 -72t-55.5 -53t-47 -38.5q-127 -98 -136 -139h275 l-31 -191h-532z" />
<glyph unicode="&#xb3;" horiz-adv-x="632" d="M80 905l119 139q97 -75 153 -75q39 0 66.5 26.5t27.5 63.5q0 25 -13.5 43.5t-35.5 27t-43 12t-43 3.5h-22l35 188h26q45 0 91 23t46 67q0 45 -49 45q-55 0 -153 -63l-70 149q158 109 289 109q97 0 147.5 -52t50.5 -132q0 -132 -145 -217q98 -68 98 -187 q0 -51 -17.5 -102.5t-51 -97t-91 -73.5t-130.5 -28q-154 0 -285 131z" />
<glyph unicode="&#xb4;" horiz-adv-x="374" d="M150 1206l229 287h328l-299 -287h-258z" />
<glyph unicode="&#xb5;" horiz-adv-x="1015" d="M-76 -418l269 1493h299l-121 -690q-13 -55 -9 -101t41 -46q36 0 79 33.5t77 80.5l127 723h299l-188 -1075h-299l20 119q-62 -54 -114.5 -87.5t-108.5 -45.5l-70 -404h-301z" />
<glyph unicode="&#xb6;" horiz-adv-x="1169" d="M88 823q0 80 17 161t57 163t98.5 145t150 102.5t203.5 39.5h240l-319 -1813h-242l139 801q-158 0 -251 106t-93 295zM623 -379l319 1813h242l-320 -1813h-241z" />
<glyph unicode="&#xb7;" horiz-adv-x="477" d="M53 399l66 367h293l-66 -367h-293z" />
<glyph unicode="&#xb8;" horiz-adv-x="270" d="M-82 -336l86 160q29 -23 59 -23q29 0 48.5 22.5t19.5 74.5q0 23 -4.5 49.5t-8.5 41.5l-5 15h127q24 -63 24 -147q0 -117 -61 -178.5t-146 -61.5q-89 0 -139 47z" />
<glyph unicode="&#xb9;" horiz-adv-x="538" d="M166 1507l215 142h199l-154 -861h-205l115 637l-92 -55z" />
<glyph unicode="&#xba;" horiz-adv-x="645" d="M135 1034q0 43 6.5 91t26.5 107.5t51 105.5t86.5 78t126.5 32q31 0 61 -5.5t65 -23t61 -45t43.5 -75.5t17.5 -111q0 -43 -6.5 -91t-27 -107.5t-51.5 -105.5t-86 -78t-126 -32q-31 0 -61.5 5.5t-65.5 23t-60.5 45t-43 75.5t-17.5 111zM330 1012q0 -68 51 -68 q27 0 48.5 31.5t32 77t16 86.5t5.5 71q0 68 -51 68q-27 0 -48 -31.5t-32 -77.5t-16.5 -87t-5.5 -70z" />
<glyph unicode="&#xbb;" horiz-adv-x="1009" d="M-20 20l67 377l223 168l-164 166l60 348l350 -428l-35 -200zM432 20l68 377l223 168l-164 166l59 348l351 -428l-35 -200z" />
<glyph unicode="&#xbc;" horiz-adv-x="1411" d="M152 1292l215 142h198l-153 -861h-205l115 637l-93 -55zM203 0l706 1434h219l-704 -1434h-221zM645 152l29 157l356 551h275l-93 -518h93l-35 -190h-90l-27 -152h-205l27 152h-330zM864 342h144l55 305z" />
<glyph unicode="&#xbd;" horiz-adv-x="1433" d="M152 1292l215 142h198l-153 -861h-205l115 637l-93 -55zM203 0l706 1434h219l-704 -1434h-221zM721 0l16 94q13 76 57.5 149t87.5 116t101 90q109 88 141 125q30 37 31 63q2 20 -10.5 32.5t-38.5 12.5q-52 0 -162 -74l-80 154q144 112 291 112q106 0 159.5 -58.5 t53.5 -143.5q0 -48 -19 -96.5t-41 -82t-60.5 -72t-55.5 -53t-47 -38.5q-126 -97 -135 -140h274l-31 -190h-532z" />
<glyph unicode="&#xbe;" horiz-adv-x="1531" d="M61 690l119 139q97 -75 154 -75q39 0 66.5 26.5t27.5 63.5q0 25 -13.5 43.5t-35.5 27t-43 12t-43 3.5h-23l35 188h27q45 0 91 23t46 67q0 45 -49 45q-56 0 -154 -63l-69 149q158 109 288 109q97 0 148 -52t51 -132q0 -132 -145 -217q98 -68 98 -187q0 -51 -17.5 -102.5 t-51.5 -97t-91.5 -73.5t-130.5 -28q-154 0 -285 131zM328 0l706 1434h219l-704 -1434h-221zM772 152l29 157l356 551h275l-93 -518h93l-35 -190h-90l-27 -152h-205l27 152h-330zM991 342h144l55 305z" />
<glyph unicode="&#xbf;" horiz-adv-x="829" d="M2 295q0 301 415 491q8 4 11 5l43 167h178l-45 -346q-133 -54 -204.5 -115t-71.5 -141q0 -39 20.5 -64.5t63.5 -25.5q65 0 182 82l129 -221q-200 -150 -389 -150q-150 0 -241 87.5t-91 230.5zM436 1098l60 336h292l-59 -336h-293z" />
<glyph unicode="&#xc0;" horiz-adv-x="1081" d="M-90 0l608 1434h340l103 -1434h-334v262h-287l-92 -262h-338zM434 535h193l-2 538zM449 1802h299l126 -286h-229z" />
<glyph unicode="&#xc1;" horiz-adv-x="1081" d="M-90 0l608 1434h340l103 -1434h-334v262h-287l-92 -262h-338zM434 535h193l-2 538zM530 1516l230 286h327l-299 -286h-258z" />
<glyph unicode="&#xc2;" horiz-adv-x="1081" d="M-90 0l608 1434h340l103 -1434h-334v262h-287l-92 -262h-338zM412 1516l209 286h268l102 -286h-184l-68 143l-116 -143h-211zM434 535h193l-2 538z" />
<glyph unicode="&#xc3;" horiz-adv-x="1081" d="M-90 0l608 1434h340l103 -1434h-334v262h-287l-92 -262h-338zM426 1612q28 51 46.5 80.5t46 62t57.5 47.5t65 15q33 0 70 -24.5t68 -49.5t50 -25q39 0 95 99l110 -91q-22 -38 -28 -48.5t-25.5 -41t-29 -40.5t-28 -29.5t-33 -26.5t-34.5 -13.5t-41 -6.5q-33 0 -69 24.5 t-66.5 49t-48.5 24.5q-38 0 -96 -96zM434 535h193l-2 538z" />
<glyph unicode="&#xc4;" horiz-adv-x="1081" d="M-90 0l608 1434h340l103 -1434h-334v262h-287l-92 -262h-338zM434 535h193l-2 538zM457 1536l43 250h215l-43 -250h-215zM741 1536l43 250h215l-43 -250h-215z" />
<glyph unicode="&#xc5;" horiz-adv-x="1083" d="M-96 0l608 1434h340l102 -1434h-333v262h-287l-92 -262h-338zM428 535h193l-3 538zM524 1702q0 85 60 146t147 61q85 0 146 -61t61 -146q0 -87 -61 -147t-146 -60q-88 0 -147.5 59.5t-59.5 147.5zM662 1702q0 -29 20 -48.5t49 -19.5q28 0 48 19.5t20 48.5q0 28 -20 47.5 t-48 19.5q-29 0 -49 -19.5t-20 -47.5z" />
<glyph unicode="&#xc6;" horiz-adv-x="1615" d="M-145 0l901 1434h932l-56 -295h-450l-49 -277h366l-51 -289h-367l-49 -278h461l-51 -295h-772l45 262h-318l-155 -262h-387zM565 545h199l84 475z" />
<glyph unicode="&#xc7;" horiz-adv-x="993" d="M70 498q0 76 8 158.5t27 177t47 182t73 168.5t100 140.5t132 95.5t166 36q61 0 121 -15.5t121.5 -48.5t101 -58.5t102.5 -69.5l-168 -246q-170 125 -256 125q-62 0 -113.5 -69t-82 -172t-47.5 -209.5t-17 -192.5q0 -209 121 -209q45 0 106 27.5t164 87.5l111 -269 q-129 -68 -225.5 -107.5t-184.5 -49.5q17 -71 17 -123q0 -117 -61 -178.5t-146 -61.5q-90 0 -140 47l86 160q29 -23 60 -23q67 0 67 97q0 43 -14 90q-143 31 -209.5 167t-66.5 343z" />
<glyph unicode="&#xc8;" horiz-adv-x="948" d="M2 0l252 1434h766l-55 -295h-451l-49 -277h366l-51 -289h-366l-49 -278h460l-51 -295h-772zM403 1802h299l127 -286h-229z" />
<glyph unicode="&#xc9;" horiz-adv-x="950" d="M2 0l252 1434h766l-55 -295h-451l-49 -277h366l-51 -289h-366l-49 -278h460l-51 -295h-772zM469 1516l229 286h328l-299 -286h-258z" />
<glyph unicode="&#xca;" horiz-adv-x="948" d="M2 0l252 1434h766l-55 -295h-451l-49 -277h366l-51 -289h-366l-49 -278h460l-51 -295h-772zM365 1516l208 286h269l102 -286h-184l-68 143l-117 -143h-210z" />
<glyph unicode="&#xcb;" horiz-adv-x="948" d="M2 0l252 1434h766l-55 -295h-451l-49 -277h366l-51 -289h-366l-49 -278h460l-51 -295h-772zM412 1536l43 250h215l-43 -250h-215zM696 1536l43 250h215l-43 -250h-215z" />
<glyph unicode="&#xcc;" horiz-adv-x="534" d="M2 0l252 1434h311l-252 -1434h-311zM172 1802h299l127 -286h-229z" />
<glyph unicode="&#xcd;" horiz-adv-x="532" d="M2 0l252 1434h311l-252 -1434h-311zM238 1516l229 286h328l-299 -286h-258z" />
<glyph unicode="&#xce;" horiz-adv-x="530" d="M2 0l252 1434h311l-252 -1434h-311zM131 1516l209 286h268l103 -286h-185l-67 143l-117 -143h-211z" />
<glyph unicode="&#xcf;" horiz-adv-x="532" d="M2 0l252 1434h311l-252 -1434h-311zM180 1536l43 250h215l-43 -250h-215zM465 1536l43 250h215l-43 -250h-215z" />
<glyph unicode="&#xd0;" horiz-adv-x="1140" d="M20 0l103 584h-103l46 266h104l102 584h299q272 0 400.5 -135.5t128.5 -378.5q0 -71 -8.5 -148t-30.5 -168.5t-56 -175t-90.5 -163t-128.5 -137.5t-174.5 -93t-224.5 -35h-367zM383 295h45q103 0 186.5 88t126.5 223.5t43 284.5q0 130 -53.5 189t-165.5 59h-33l-51 -289 h172l-45 -266h-174z" />
<glyph unicode="&#xd1;" horiz-adv-x="1140" d="M2 0l252 1434h313l152 -822l145 822h312l-252 -1434h-316l-151 819l-144 -819h-311zM459 1612q28 51 46.5 80.5t46 62t57.5 47.5t65 15q33 0 70 -24.5t68 -49.5t50 -25q38 0 94 99l111 -91q-22 -38 -28 -48.5t-25.5 -41t-29 -40.5t-28 -29.5t-33 -26.5t-34.5 -13.5 t-41 -6.5q-33 0 -69 24.5t-66.5 49t-48.5 24.5q-39 0 -97 -96z" />
<glyph unicode="&#xd2;" horiz-adv-x="1175" d="M72 514q0 49 5.5 108.5t17.5 137.5t35 156t54 157.5t78 147t104 121t135.5 84t168.5 30.5q78 0 145.5 -17t128 -56.5t103 -100t67.5 -153t25 -209.5q0 -57 -7 -127t-25.5 -162.5t-46.5 -181t-76 -175.5t-108 -152t-147 -105t-190 -40q-99 0 -180 28t-147 88.5t-103 167.5 t-37 253zM387 489q0 -95 39 -155t119 -60q64 0 115.5 62.5t80.5 149.5t49 188t26.5 169t6.5 101q0 95 -39 155t-120 60q-53 0 -98 -43.5t-74 -113.5t-50.5 -148.5t-33 -156.5t-16.5 -130.5t-5 -77.5zM494 1802h299l127 -286h-230z" />
<glyph unicode="&#xd3;" horiz-adv-x="1175" d="M72 514q0 49 5.5 108.5t17.5 137.5t35 156t54 157.5t78 147t104 121t135.5 84t168.5 30.5q78 0 145.5 -17t128 -56.5t103 -100t67.5 -153t25 -209.5q0 -57 -7 -127t-25.5 -162.5t-46.5 -181t-76 -175.5t-108 -152t-147 -105t-190 -40q-99 0 -180 28t-147 88.5t-103 167.5 t-37 253zM387 489q0 -95 39 -155t119 -60q64 0 115.5 62.5t80.5 149.5t49 188t26.5 169t6.5 101q0 95 -39 155t-120 60q-53 0 -98 -43.5t-74 -113.5t-50.5 -148.5t-33 -156.5t-16.5 -130.5t-5 -77.5zM559 1516l229 286h328l-299 -286h-258z" />
<glyph unicode="&#xd4;" horiz-adv-x="1175" d="M72 514q0 49 5.5 108.5t17.5 137.5t35 156t54 157.5t78 147t104 121t135.5 84t168.5 30.5q78 0 145.5 -17t128 -56.5t103 -100t67.5 -153t25 -209.5q0 -57 -7 -127t-25.5 -162.5t-46.5 -181t-76 -175.5t-108 -152t-147 -105t-190 -40q-99 0 -180 28t-147 88.5t-103 167.5 t-37 253zM387 489q0 -95 39 -155t119 -60q64 0 115.5 62.5t80.5 149.5t49 188t26.5 169t6.5 101q0 95 -39 155t-120 60q-53 0 -98 -43.5t-74 -113.5t-50.5 -148.5t-33 -156.5t-16.5 -130.5t-5 -77.5zM457 1516l209 286h268l102 -286h-184l-68 143l-116 -143h-211z" />
<glyph unicode="&#xd5;" horiz-adv-x="1175" d="M72 514q0 49 5.5 108.5t17.5 137.5t35 156t54 157.5t78 147t104 121t135.5 84t168.5 30.5q78 0 145.5 -17t128 -56.5t103 -100t67.5 -153t25 -209.5q0 -57 -7 -127t-25.5 -162.5t-46.5 -181t-76 -175.5t-108 -152t-147 -105t-190 -40q-99 0 -180 28t-147 88.5t-103 167.5 t-37 253zM387 489q0 -95 39 -155t119 -60q64 0 115.5 62.5t80.5 149.5t49 188t26.5 169t6.5 101q0 95 -39 155t-120 60q-53 0 -98 -43.5t-74 -113.5t-50.5 -148.5t-33 -156.5t-16.5 -130.5t-5 -77.5zM469 1612q28 51 46.5 80.5t46 62t57.5 47.5t65 15q33 0 70 -24.5 t68 -49.5t50 -25q39 0 95 99l110 -91q-22 -38 -28 -48.5t-25.5 -41t-29 -40.5t-28 -29.5t-33 -26.5t-34.5 -13.5t-41 -6.5q-33 0 -69 24.5t-66.5 49t-48.5 24.5q-38 0 -96 -96z" />
<glyph unicode="&#xd6;" horiz-adv-x="1175" d="M72 514q0 49 5.5 108.5t17.5 137.5t35 156t54 157.5t78 147t104 121t135.5 84t168.5 30.5q78 0 145.5 -17t128 -56.5t103 -100t67.5 -153t25 -209.5q0 -57 -7 -127t-25.5 -162.5t-46.5 -181t-76 -175.5t-108 -152t-147 -105t-190 -40q-99 0 -180 28t-147 88.5t-103 167.5 t-37 253zM387 489q0 -95 39 -155t119 -60q64 0 115.5 62.5t80.5 149.5t49 188t26.5 169t6.5 101q0 95 -39 155t-120 60q-53 0 -98 -43.5t-74 -113.5t-50.5 -148.5t-33 -156.5t-16.5 -130.5t-5 -77.5zM504 1536l43 250h215l-43 -250h-215zM788 1536l43 250h216l-43 -250h-216 z" />
<glyph unicode="&#xd7;" horiz-adv-x="1017" d="M117 430l258 275l-164 282l207 121l127 -219l205 219l178 -164l-256 -274l166 -283l-209 -119l-127 219l-209 -223z" />
<glyph unicode="&#xd8;" horiz-adv-x="1175" d="M-18 0l151 207q-59 118 -59 307q0 49 5.5 108.5t17.5 137.5t35 156t54 157.5t78 147t104 121t135.5 84t168.5 30.5q184 0 301 -94l53 72h205l-152 -207q62 -124 62 -307q0 -57 -7 -127t-25.5 -162.5t-46.5 -181t-76 -175.5t-108 -152t-147 -105t-190 -40q-185 0 -301 93 l-52 -70h-206zM393 565l391 537q-44 57 -118 57q-45 0 -84 -31t-67 -84t-50 -114t-36.5 -131.5t-22.5 -126.5t-13 -107zM430 332q41 -58 117 -58q54 0 99.5 45.5t74.5 111.5t51 152.5t32.5 154.5t16.5 132z" />
<glyph unicode="&#xd9;" horiz-adv-x="1101" d="M60.5 345.5q1.5 74.5 17.5 168.5l162 920h311l-170 -965q-8 -52 -8.5 -95t26.5 -70.5t84 -27.5q152 0 181 193l172 965h311l-166 -934q-16 -96 -37 -167t-59.5 -141.5t-92.5 -115t-136.5 -72t-190.5 -27.5q-115 0 -196.5 28.5t-125.5 76t-64 118.5t-18.5 145.5zM455 1802 h299l127 -286h-230z" />
<glyph unicode="&#xda;" horiz-adv-x="1101" d="M60.5 345.5q1.5 74.5 17.5 168.5l162 920h311l-170 -965q-8 -52 -8.5 -95t26.5 -70.5t84 -27.5q152 0 181 193l172 965h311l-166 -934q-16 -96 -37 -167t-59.5 -141.5t-92.5 -115t-136.5 -72t-190.5 -27.5q-115 0 -196.5 28.5t-125.5 76t-64 118.5t-18.5 145.5zM518 1516 l230 286h327l-299 -286h-258z" />
<glyph unicode="&#xdb;" horiz-adv-x="1101" d="M60.5 345.5q1.5 74.5 17.5 168.5l162 920h311l-170 -965q-8 -52 -8.5 -95t26.5 -70.5t84 -27.5q152 0 181 193l172 965h311l-166 -934q-16 -96 -37 -167t-59.5 -141.5t-92.5 -115t-136.5 -72t-190.5 -27.5q-115 0 -196.5 28.5t-125.5 76t-64 118.5t-18.5 145.5zM414 1516 l209 286h268l102 -286h-184l-68 143l-116 -143h-211z" />
<glyph unicode="&#xdc;" horiz-adv-x="1101" d="M60.5 345.5q1.5 74.5 17.5 168.5l162 920h311l-170 -965q-8 -52 -8.5 -95t26.5 -70.5t84 -27.5q152 0 181 193l172 965h311l-166 -934q-16 -96 -37 -167t-59.5 -141.5t-92.5 -115t-136.5 -72t-190.5 -27.5q-115 0 -196.5 28.5t-125.5 76t-64 118.5t-18.5 145.5zM463 1536 l43 250h215l-43 -250h-215zM748 1536l43 250h215l-43 -250h-215z" />
<glyph unicode="&#xdd;" horiz-adv-x="1019" d="M150 1434h333l68 -521l248 521h352l-496 -859l-100 -575h-309l98 575zM479 1516l230 286h327l-299 -286h-258z" />
<glyph unicode="&#xde;" horiz-adv-x="1048" d="M2 0l252 1434h311l-39 -222h64q106 0 186 -21.5t127 -55.5t76 -84.5t39 -100t10 -110.5q0 -267 -157 -418.5t-453 -151.5h-58l-47 -270h-311zM412 555h59q116 0 177 66t61 170q0 71 -39.5 101t-122.5 30h-72z" />
<glyph unicode="&#xdf;" horiz-adv-x="1155" d="M-18 0l170 969q17 98 41 173.5t65.5 144.5t97.5 113.5t138.5 70.5t187.5 26q114 0 199.5 -29t134.5 -78.5t72.5 -109t23.5 -127.5q0 -46 -10.5 -89t-25.5 -71t-30 -50t-26 -32l-10 -10q-37 -11 -69 -27t-61.5 -47t-29.5 -67q0 -32 22.5 -60t65.5 -68t70 -77 q75 -105 75 -223q0 -147 -101.5 -251t-262.5 -104q-169 0 -357 115l148 225q120 -79 184 -79q34 0 58 20t24 59q0 49 -49 101q-1 1 -36 32t-49.5 48.5t-40 53.5t-37 78t-11.5 91q0 223 258 336q12 30 12 65q0 129 -145 129q-94 0 -146.5 -66.5t-82.5 -232.5l-166 -952h-301z " />
<glyph unicode="&#xe0;" d="M33 307q0 93 14 196.5t46.5 210.5t78.5 191.5t117 138.5t155 54q68 0 113.5 -35t93.5 -102l21 114h299l-189 -1075h-299l21 121q-71 -71 -129 -107.5t-127 -36.5q-61 0 -105 28.5t-67 78t-33 104.5t-10 119zM340 371q0 -123 61 -123q70 0 148 131l57 326 q-38 122 -100 122q-39 0 -72.5 -53t-52.5 -129.5t-30 -150t-11 -123.5zM365 1493h299l127 -287h-230z" />
<glyph unicode="&#xe1;" horiz-adv-x="1163" d="M33 307q0 93 14 196.5t46.5 210.5t78.5 191.5t117 138.5t155 54q68 0 113.5 -35t93.5 -102l21 114h299l-189 -1075h-299l21 121q-71 -71 -129 -107.5t-127 -36.5q-61 0 -105 28.5t-67 78t-33 104.5t-10 119zM340 371q0 -123 61 -123q70 0 148 131l57 326 q-38 122 -100 122q-39 0 -72.5 -53t-52.5 -129.5t-30 -150t-11 -123.5zM457 1206l229 287h328l-299 -287h-258z" />
<glyph unicode="&#xe2;" d="M33 307q0 93 14 196.5t46.5 210.5t78.5 191.5t117 138.5t155 54q68 0 113.5 -35t93.5 -102l21 114h299l-189 -1075h-299l21 121q-71 -71 -129 -107.5t-127 -36.5q-61 0 -105 28.5t-67 78t-33 104.5t-10 119zM324 1206l208 287h269l102 -287h-184l-68 144l-116 -144h-211z M340 371q0 -123 61 -123q70 0 148 131l57 326q-38 122 -100 122q-39 0 -72.5 -53t-52.5 -129.5t-30 -150t-11 -123.5z" />
<glyph unicode="&#xe3;" d="M33 307q0 93 14 196.5t46.5 210.5t78.5 191.5t117 138.5t155 54q68 0 113.5 -35t93.5 -102l21 114h299l-189 -1075h-299l21 121q-71 -71 -129 -107.5t-127 -36.5q-61 0 -105 28.5t-67 78t-33 104.5t-10 119zM340 371q0 -123 61 -123q70 0 148 131l57 326 q-38 122 -100 122q-39 0 -72.5 -53t-52.5 -129.5t-30 -150t-11 -123.5zM342 1303q28 51 46.5 80.5t46 61.5t57.5 47t65 15q33 0 70 -24.5t68 -49t50 -24.5q39 0 95 98l110 -90q-2 -4 -7 -12q-31 -53 -47.5 -78t-44 -57.5t-56.5 -46t-64 -13.5q-33 0 -69 25t-66.5 49.5 t-48.5 24.5q-37 0 -96 -97z" />
<glyph unicode="&#xe4;" d="M33 307q0 93 14 196.5t46.5 210.5t78.5 191.5t117 138.5t155 54q68 0 113.5 -35t93.5 -102l21 114h299l-189 -1075h-299l21 121q-71 -71 -129 -107.5t-127 -36.5q-61 0 -105 28.5t-67 78t-33 104.5t-10 119zM340 371q0 -123 61 -123q70 0 148 131l57 326 q-38 122 -100 122q-39 0 -72.5 -53t-52.5 -129.5t-30 -150t-11 -123.5zM385 1227l43 250h215l-43 -250h-215zM670 1227l43 250h215l-43 -250h-215z" />
<glyph unicode="&#xe5;" d="M33 307q0 93 14 196.5t46.5 210.5t78.5 191.5t117 138.5t155 54q68 0 113.5 -35t93.5 -102l21 114h299l-189 -1075h-299l21 121q-71 -71 -129 -107.5t-127 -36.5q-61 0 -105 28.5t-67 78t-33 104.5t-10 119zM340 371q0 -123 61 -123q70 0 148 131l57 326 q-38 122 -100 122q-39 0 -72.5 -53t-52.5 -129.5t-30 -150t-11 -123.5zM449 1393q0 85 59.5 145.5t146.5 60.5q85 0 146 -60.5t61 -145.5q0 -87 -61 -147t-146 -60q-88 0 -147 59.5t-59 147.5zM586 1393q0 -29 20 -48.5t49 -19.5q28 0 48 19.5t20 48.5q0 28 -20 47.5 t-48 19.5q-29 0 -49 -19.5t-20 -47.5z" />
<glyph unicode="&#xe6;" horiz-adv-x="1404" d="M33 307q0 93 14 196.5t46.5 210.5t78.5 191.5t117 138.5t155 54q68 0 113.5 -35t93.5 -102l21 114h258q74 23 145 23q139 0 220 -80t81 -215q0 -88 -26.5 -155.5t-69 -108t-103 -66t-121 -34.5t-130.5 -9h-64v-33q0 -172 86 -172q28 0 73.5 19t74.5 35t104 59l88 -223 q-60 -42 -184 -90t-238 -48q-62 0 -123 23h-260l21 121q-71 -71 -129 -107.5t-127 -36.5q-61 0 -105 28.5t-67 78t-33 104.5t-10 119zM340 371q0 -123 61 -123q70 0 148 131l57 326q-38 122 -100 122q-39 0 -72.5 -53t-52.5 -129.5t-30 -150t-11 -123.5zM879 606h49 q85 0 134.5 49t49.5 127t-65 78q-43 0 -77.5 -35.5t-56 -90.5t-34.5 -128z" />
<glyph unicode="&#xe7;" horiz-adv-x="790" d="M29 369q0 141 24.5 262t66 205.5t96 144.5t115 88.5t122.5 28.5q47 0 90.5 -8t87.5 -28t66 -31.5t68.5 -41t53.5 -33.5l-143 -231q-3 2 -19.5 14t-23.5 17t-23 15.5t-26.5 15.5t-25 12t-27.5 9.5t-25 2.5q-50 0 -90.5 -59.5t-62 -150.5t-21.5 -191q0 -146 82 -146 q15 0 39.5 9t45 20t53.5 28.5t50 26.5l82 -256q-64 -31 -95 -45.5t-99.5 -38t-122.5 -28.5q16 -67 16 -123q0 -117 -61 -178.5t-146 -61.5q-89 0 -139 47l86 160q29 -23 59 -23q29 0 48.5 22.5t19.5 74.5q0 31 -14 94q-95 31 -151 126.5t-56 250.5z" />
<glyph unicode="&#xe8;" horiz-adv-x="870" d="M27 389q0 207 60 366.5t177.5 251t276.5 91.5q139 0 220 -80t81 -215q0 -88 -26.5 -155.5t-69 -108t-103.5 -66t-121.5 -34.5t-130.5 -9h-63v-33q0 -172 86 -172q28 0 73.5 19t74.5 35t104 59l88 -223q-60 -42 -184 -90t-238 -48q-140 0 -222.5 100.5t-82.5 311.5z M313 1493h299l127 -287h-229zM344 606h49q85 0 135 49t50 127t-66 78q-43 0 -77.5 -35.5t-56 -90.5t-34.5 -128z" />
<glyph unicode="&#xe9;" horiz-adv-x="872" d="M27 389q0 207 60 366.5t177.5 251t276.5 91.5q139 0 220 -80t81 -215q0 -88 -26.5 -155.5t-69 -108t-103.5 -66t-121.5 -34.5t-130.5 -9h-63v-33q0 -172 86 -172q28 0 73.5 19t74.5 35t104 59l88 -223q-60 -42 -184 -90t-238 -48q-140 0 -222.5 100.5t-82.5 311.5z M344 606h49q85 0 135 49t50 127t-66 78q-43 0 -77.5 -35.5t-56 -90.5t-34.5 -128zM379 1206l229 287h328l-299 -287h-258z" />
<glyph unicode="&#xea;" horiz-adv-x="870" d="M27 389q0 207 60 366.5t177.5 251t276.5 91.5q139 0 220 -80t81 -215q0 -88 -26.5 -155.5t-69 -108t-103.5 -66t-121.5 -34.5t-130.5 -9h-63v-33q0 -172 86 -172q28 0 73.5 19t74.5 35t104 59l88 -223q-60 -42 -184 -90t-238 -48q-140 0 -222.5 100.5t-82.5 311.5z M272 1206l209 287h269l102 -287h-184l-68 144l-117 -144h-211zM344 606h49q85 0 135 49t50 127t-66 78q-43 0 -77.5 -35.5t-56 -90.5t-34.5 -128z" />
<glyph unicode="&#xeb;" horiz-adv-x="868" d="M27 389q0 207 60 366.5t177.5 251t276.5 91.5q139 0 220 -80t81 -215q0 -88 -26.5 -155.5t-69 -108t-103.5 -66t-121.5 -34.5t-130.5 -9h-63v-33q0 -172 86 -172q28 0 73.5 19t74.5 35t104 59l88 -223q-60 -42 -184 -90t-238 -48q-140 0 -222.5 100.5t-82.5 311.5z M324 1227l43 250h215l-43 -250h-215zM344 606h49q85 0 135 49t50 127t-66 78q-43 0 -77.5 -35.5t-56 -90.5t-34.5 -128zM608 1227l43 250h215l-43 -250h-215z" />
<glyph unicode="&#xec;" horiz-adv-x="479" d="M-20 0l190 1075h301l-190 -1075h-301zM90 1493h299l127 -287h-229z" />
<glyph unicode="&#xed;" horiz-adv-x="477" d="M-20 0l190 1075h301l-190 -1075h-301zM154 1206l229 287h328l-299 -287h-258z" />
<glyph unicode="&#xee;" horiz-adv-x="477" d="M-20 0l190 1075h301l-190 -1075h-301zM51 1206l209 287h268l103 -287h-185l-67 144l-117 -144h-211z" />
<glyph unicode="&#xef;" horiz-adv-x="479" d="M-20 0l190 1075h301l-190 -1075h-301zM100 1227l43 250h215l-43 -250h-215zM385 1227l43 250h215l-43 -250h-215z" />
<glyph unicode="&#xf0;" d="M23 375q0 114 33.5 223t91 192.5t141 134t176.5 50.5q39 0 72.5 -10.5t53 -24t35 -31.5t21 -27.5t8.5 -17.5q-14 173 -106 250l-45 -63h-228l86 118q-26 -2 -53.5 -6t-42.5 -7l-14 -3l16 258q58 23 156 23q61 0 121 -13l51 72h223l-104 -147q119 -88 172 -243t53 -329 q0 -119 -20.5 -233t-64.5 -216.5t-106 -179.5t-151.5 -122.5t-194.5 -45.5q-83 0 -148.5 21.5t-108.5 58t-71 88t-40 108.5t-12 122zM332 369q0 -133 98 -133q49 0 86.5 37.5t57 94.5t29 112.5t9.5 103.5q0 133 -100 133q-47 0 -84 -40.5t-56.5 -99.5t-29.5 -113.5 t-10 -94.5z" />
<glyph unicode="&#xf1;" horiz-adv-x="964" d="M-18 0l188 1075h301l-20 -117q75 67 143 103.5t143 36.5q108 0 154.5 -80.5t15.5 -253.5l-133 -764h-301l123 692q4 22 6 35.5t3.5 33t0 31t-6 23.5t-13.5 17.5t-23 5.5q-34 0 -76 -32t-77 -79l-127 -727h-301zM313 1303q28 51 46.5 80.5t46 61.5t57.5 47t65 15 q33 0 70.5 -24.5t68.5 -49t50 -24.5q38 0 94 98l111 -90q-28 -48 -39.5 -66.5t-36.5 -53.5t-42.5 -48.5t-44.5 -26t-57 -12.5q-33 0 -69 25t-66.5 49.5t-48.5 24.5q-37 0 -96 -97z" />
<glyph unicode="&#xf2;" horiz-adv-x="954" d="M33 399q0 49 5.5 104.5t20 125t37 133.5t60 126.5t85.5 108t117 73.5t150 28q48 0 95.5 -9.5t102.5 -37.5t96 -73t68 -123t27 -179q0 -49 -5 -104.5t-19.5 -125t-37 -133.5t-60 -126.5t-85 -108t-116.5 -73.5t-150 -28q-49 0 -96.5 9t-102.5 37.5t-96 73t-68.5 122.5 t-27.5 180zM326 1493h299l127 -287h-230zM332 365q0 -64 23.5 -98t66.5 -34q46 0 83 57.5t56.5 140.5t29 156.5t9.5 123.5q0 63 -24 97t-66 34q-47 0 -84 -57.5t-56 -140t-28.5 -156t-9.5 -123.5z" />
<glyph unicode="&#xf3;" horiz-adv-x="954" d="M33 399q0 49 5.5 104.5t20 125t37 133.5t60 126.5t85.5 108t117 73.5t150 28q48 0 95.5 -9.5t102.5 -37.5t96 -73t68 -123t27 -179q0 -49 -5 -104.5t-19.5 -125t-37 -133.5t-60 -126.5t-85 -108t-116.5 -73.5t-150 -28q-49 0 -96.5 9t-102.5 37.5t-96 73t-68.5 122.5 t-27.5 180zM332 365q0 -64 23.5 -98t66.5 -34q46 0 83 57.5t56.5 140.5t29 156.5t9.5 123.5q0 63 -24 97t-66 34q-47 0 -84 -57.5t-56 -140t-28.5 -156t-9.5 -123.5zM391 1206l230 287h327l-299 -287h-258z" />
<glyph unicode="&#xf4;" horiz-adv-x="954" d="M33 399q0 49 5.5 104.5t20 125t37 133.5t60 126.5t85.5 108t117 73.5t150 28q48 0 95.5 -9.5t102.5 -37.5t96 -73t68 -123t27 -179q0 -49 -5 -104.5t-19.5 -125t-37 -133.5t-60 -126.5t-85 -108t-116.5 -73.5t-150 -28q-49 0 -96.5 9t-102.5 37.5t-96 73t-68.5 122.5 t-27.5 180zM287 1206l209 287h268l102 -287h-184l-68 144l-116 -144h-211zM332 365q0 -64 23.5 -98t66.5 -34q46 0 83 57.5t56.5 140.5t29 156.5t9.5 123.5q0 63 -24 97t-66 34q-47 0 -84 -57.5t-56 -140t-28.5 -156t-9.5 -123.5z" />
<glyph unicode="&#xf5;" horiz-adv-x="954" d="M33 399q0 49 5.5 104.5t20 125t37 133.5t60 126.5t85.5 108t117 73.5t150 28q48 0 95.5 -9.5t102.5 -37.5t96 -73t68 -123t27 -179q0 -49 -5 -104.5t-19.5 -125t-37 -133.5t-60 -126.5t-85 -108t-116.5 -73.5t-150 -28q-49 0 -96.5 9t-102.5 37.5t-96 73t-68.5 122.5 t-27.5 180zM307 1303q28 51 46.5 80.5t46 61.5t57.5 47t65 15q33 0 70.5 -24.5t68.5 -49t50 -24.5q38 0 94 98l110 -90q-2 -4 -7 -12q-31 -53 -47.5 -78t-44 -57.5t-56.5 -46t-64 -13.5q-33 0 -69 25t-66.5 49.5t-48.5 24.5q-37 0 -96 -97zM332 365q0 -64 23.5 -98t66.5 -34 q46 0 83 57.5t56.5 140.5t29 156.5t9.5 123.5q0 63 -24 97t-66 34q-47 0 -84 -57.5t-56 -140t-28.5 -156t-9.5 -123.5z" />
<glyph unicode="&#xf6;" horiz-adv-x="952" d="M33 399q0 49 5.5 104.5t20 125t37 133.5t60 126.5t85.5 108t117 73.5t150 28q48 0 95.5 -9.5t102.5 -37.5t96 -73t68 -123t27 -179q0 -49 -5 -104.5t-19.5 -125t-37 -133.5t-60 -126.5t-85 -108t-116.5 -73.5t-150 -28q-49 0 -96.5 9t-102.5 37.5t-96 73t-68.5 122.5 t-27.5 180zM332 365q0 -64 23.5 -98t66.5 -34q46 0 83 57.5t56.5 140.5t29 156.5t9.5 123.5q0 63 -24 97t-66 34q-47 0 -84 -57.5t-56 -140t-28.5 -156t-9.5 -123.5zM338 1227l43 250h215l-43 -250h-215zM623 1227l43 250h215l-43 -250h-215z" />
<glyph unicode="&#xf7;" horiz-adv-x="983" d="M109 557l45 252h741l-43 -252h-743zM309 330q0 54 37.5 92.5t91.5 38.5t92.5 -38.5t38.5 -92.5t-38.5 -91.5t-92.5 -37.5t-91.5 37.5t-37.5 91.5zM434 1036q0 54 37.5 91.5t91.5 37.5t91.5 -37.5t37.5 -91.5t-37.5 -91.5t-91.5 -37.5t-91.5 37.5t-37.5 91.5z" />
<glyph unicode="&#xf8;" horiz-adv-x="954" d="M-39 0l123 160q-51 97 -51 239q0 49 5.5 104.5t20 125t37 133.5t60 126.5t85.5 108t117 73.5t150 28q141 0 242 -74l38 51h160l-112 -147q61 -101 61 -252q0 -49 -5 -104.5t-19.5 -125t-37 -133.5t-60 -126.5t-85 -108t-116.5 -73.5t-150 -28q-146 0 -254 80l-43 -57 h-166zM342 494l238 309q-23 39 -70 39q-36 0 -65.5 -32.5t-49.5 -86.5t-33 -110.5t-20 -118.5zM344 285q22 -52 78 -52q37 0 68 36.5t51.5 96t33 120.5t19.5 124z" />
<glyph unicode="&#xf9;" horiz-adv-x="962" d="M31 313l135 762h299l-121 -690q-13 -55 -8.5 -101t41.5 -46q36 0 78.5 33.5t76.5 80.5l127 723h299l-188 -1075h-299l21 119q-76 -67 -144.5 -104.5t-144.5 -37.5q-229 0 -172 336zM330 1493h299l127 -287h-230z" />
<glyph unicode="&#xfa;" horiz-adv-x="962" d="M31 313l135 762h299l-121 -690q-13 -55 -8.5 -101t41.5 -46q36 0 78.5 33.5t76.5 80.5l127 723h299l-188 -1075h-299l21 119q-76 -67 -144.5 -104.5t-144.5 -37.5q-229 0 -172 336zM393 1206l230 287h327l-299 -287h-258z" />
<glyph unicode="&#xfb;" horiz-adv-x="962" d="M31 313l135 762h299l-121 -690q-13 -55 -8.5 -101t41.5 -46q36 0 78.5 33.5t76.5 80.5l127 723h299l-188 -1075h-299l21 119q-76 -67 -144.5 -104.5t-144.5 -37.5q-229 0 -172 336zM289 1206l209 287h268l102 -287h-184l-68 144l-116 -144h-211z" />
<glyph unicode="&#xfc;" horiz-adv-x="962" d="M31 313l135 762h299l-121 -690q-13 -55 -8.5 -101t41.5 -46q36 0 78.5 33.5t76.5 80.5l127 723h299l-188 -1075h-299l21 119q-76 -67 -144.5 -104.5t-144.5 -37.5q-229 0 -172 336zM340 1227l43 250h215l-43 -250h-215zM625 1227l43 250h215l-43 -250h-215z" />
<glyph unicode="&#xfd;" horiz-adv-x="903" d="M-27 -211q141 67 222 148l-99 1138h307v-696l242 696h316l-459 -1075q-23 -53 -37.5 -84t-41 -78.5t-49 -78t-58 -68.5t-74 -64t-90 -50.5t-111.5 -41.5zM365 1206l229 287h328l-299 -287h-258z" />
<glyph unicode="&#xfe;" horiz-adv-x="970" d="M-92 -418l336 1911h301l-92 -522q69 64 122.5 95.5t120.5 31.5q62 0 107.5 -28t69.5 -77t34.5 -104.5t10.5 -120.5q0 -84 -12.5 -182t-43.5 -207.5t-76 -197.5t-117 -146t-159 -58q-68 0 -114.5 33t-94.5 96l-92 -524h-301zM346 360q35 -112 98 -112q38 0 71 50.5 t52.5 123.5t30 145.5t10.5 126.5q0 133 -67 133q-62 0 -133 -112z" />
<glyph unicode="&#xff;" horiz-adv-x="903" d="M-27 -211q141 67 222 148l-99 1138h307v-696l242 696h316l-459 -1075q-23 -53 -37.5 -84t-41 -78.5t-49 -78t-58 -68.5t-74 -64t-90 -50.5t-111.5 -41.5zM307 1227l43 250h215l-43 -250h-215zM592 1227l43 250h215l-43 -250h-215z" />
<glyph unicode="&#x100;" horiz-adv-x="1081" d="M-90 0l608 1434h340l103 -1434h-334v262h-287l-92 -262h-338zM434 535h193l-2 538zM481 1567l35 192h457l-33 -192h-459z" />
<glyph unicode="&#x101;" d="M33 307q0 93 14 196.5t46.5 210.5t78.5 191.5t117 138.5t155 54q68 0 113.5 -35t93.5 -102l21 114h299l-189 -1075h-299l21 121q-71 -71 -129 -107.5t-127 -36.5q-61 0 -105 28.5t-67 78t-33 104.5t-10 119zM340 371q0 -123 61 -123q70 0 148 131l57 326 q-38 122 -100 122q-39 0 -72.5 -53t-52.5 -129.5t-30 -150t-11 -123.5zM393 1257l35 193h457l-33 -193h-459z" />
<glyph unicode="&#x102;" horiz-adv-x="1081" d="M-90 0l608 1434h340l103 -1434h-334v262h-287l-92 -262h-338zM434 535h193l-2 538zM487 1778h175q-6 -39 10.5 -61.5t50.5 -22.5q50 0 80.5 22t34.5 62h176q-23 -124 -102 -193t-201 -69q-127 0 -186 72.5t-38 189.5z" />
<glyph unicode="&#x103;" d="M33 307q0 93 14 196.5t46.5 210.5t78.5 191.5t117 138.5t155 54q68 0 113.5 -35t93.5 -102l21 114h299l-189 -1075h-299l21 121q-71 -71 -129 -107.5t-127 -36.5q-61 0 -105 28.5t-67 78t-33 104.5t-10 119zM340 371q0 -123 61 -123q70 0 148 131l57 326 q-38 122 -100 122q-39 0 -72.5 -53t-52.5 -129.5t-30 -150t-11 -123.5zM399 1468h174q-6 -39 11 -61.5t51 -22.5q50 0 80.5 22t34.5 62h176q-23 -124 -102 -193t-201 -69q-127 0 -186 72.5t-38 189.5z" />
<glyph unicode="&#x104;" horiz-adv-x="1081" d="M-90 0l608 1434h340l103 -1434h-5q-5 -4 -25 -22t-27.5 -25t-25.5 -24t-26 -26.5t-20.5 -25.5t-18 -28t-10 -27t-4.5 -29q0 -15 5.5 -25t12 -15.5t19.5 -8t19 -3t20 0.5h14l-53 -148h-16h-23t-27 1.5t-31 4t-30.5 8t-30.5 13.5t-26 20t-22.5 27.5t-14 37t-5.5 46.5 q0 78 48 136.5t133 111.5h-164v262h-287l-92 -262h-338zM434 535h193l-2 538z" />
<glyph unicode="&#x105;" d="M33 307q0 93 14 196.5t46.5 210.5t78.5 191.5t117 138.5t155 54q68 0 113.5 -35t93.5 -102l21 114h299l-189 -1075h-6q-4 -3 -28.5 -25t-32.5 -29.5t-28 -27t-28.5 -31.5t-20 -29.5t-16 -33t-4.5 -31.5q0 -13 3.5 -22t10.5 -14.5t14 -9t17.5 -4.5t17 -1.5t16.5 0t12 0.5 l-54 -148h-15h-24t-26.5 1.5t-30.5 4t-30.5 8t-30.5 13.5t-26 20t-22.5 27.5t-14 37t-5.5 46.5q0 78 47.5 136.5t132.5 111.5h-127l21 121q-71 -71 -129 -107.5t-127 -36.5q-61 0 -105 28.5t-67 78t-33 104.5t-10 119zM340 371q0 -123 61 -123q70 0 148 131l57 326 q-38 122 -100 122q-39 0 -72.5 -53t-52.5 -129.5t-30 -150t-11 -123.5z" />
<glyph unicode="&#x106;" horiz-adv-x="993" d="M70 498q0 76 8 158.5t27 177t47 182t73 168.5t100 140.5t132 95.5t166 36q61 0 121 -15.5t121.5 -48.5t101 -58.5t102.5 -69.5l-168 -246q-170 125 -256 125q-62 0 -113.5 -69t-82 -172t-47.5 -209.5t-17 -192.5q0 -209 121 -209q45 0 106 27.5t164 87.5l111 -269 q-150 -79 -255 -119.5t-202 -40.5q-95 0 -166 40t-112.5 112t-61.5 164t-20 205zM551 1516l229 286h328l-299 -286h-258z" />
<glyph unicode="&#x107;" horiz-adv-x="790" d="M29 369q0 141 24.5 262t66 205.5t96 144.5t115 88.5t122.5 28.5q47 0 90.5 -8t87.5 -28t66 -31.5t68.5 -41t53.5 -33.5l-143 -231q-3 2 -19.5 14t-23.5 17t-23 15.5t-26.5 15.5t-25 12t-27.5 9.5t-25 2.5q-50 0 -90.5 -59.5t-62 -150.5t-21.5 -191q0 -146 82 -146 q15 0 39.5 9t45 20t53.5 28.5t50 26.5l82 -256q-70 -34 -106.5 -51t-114 -40.5t-135.5 -23.5q-133 0 -216 100t-83 292zM348 1206l230 287h327l-299 -287h-258z" />
<glyph unicode="&#x10a;" horiz-adv-x="993" d="M70 498q0 76 8 158.5t27 177t47 182t73 168.5t100 140.5t132 95.5t166 36q61 0 121 -15.5t121.5 -48.5t101 -58.5t102.5 -69.5l-168 -246q-170 125 -256 125q-62 0 -113.5 -69t-82 -172t-47.5 -209.5t-17 -192.5q0 -209 121 -209q45 0 106 27.5t164 87.5l111 -269 q-150 -79 -255 -119.5t-202 -40.5q-95 0 -166 40t-112.5 112t-61.5 164t-20 205zM584 1536l47 262h229l-47 -262h-229z" />
<glyph unicode="&#x10b;" horiz-adv-x="790" d="M29 369q0 141 24.5 262t66 205.5t96 144.5t115 88.5t122.5 28.5q47 0 90.5 -8t87.5 -28t66 -31.5t68.5 -41t53.5 -33.5l-143 -231q-3 2 -19.5 14t-23.5 17t-23 15.5t-26.5 15.5t-25 12t-27.5 9.5t-25 2.5q-50 0 -90.5 -59.5t-62 -150.5t-21.5 -191q0 -146 82 -146 q15 0 39.5 9t45 20t53.5 28.5t50 26.5l82 -256q-70 -34 -106.5 -51t-114 -40.5t-135.5 -23.5q-133 0 -216 100t-83 292zM424 1227l47 262h229l-47 -262h-229z" />
<glyph unicode="&#x10c;" horiz-adv-x="993" d="M70 498q0 76 8 158.5t27 177t47 182t73 168.5t100 140.5t132 95.5t166 36q61 0 121 -15.5t121.5 -48.5t101 -58.5t102.5 -69.5l-168 -246q-170 125 -256 125q-62 0 -113.5 -69t-82 -172t-47.5 -209.5t-17 -192.5q0 -209 121 -209q45 0 106 27.5t164 87.5l111 -269 q-150 -79 -255 -119.5t-202 -40.5q-95 0 -166 40t-112.5 112t-61.5 164t-20 205zM455 1802h186l70 -145l114 145h209l-207 -286h-268z" />
<glyph unicode="&#x10d;" horiz-adv-x="788" d="M29 369q0 141 24.5 262t66 205.5t96 144.5t115 88.5t122.5 28.5q47 0 90.5 -8t87.5 -28t66 -31.5t68.5 -41t53.5 -33.5l-143 -231q-3 2 -19.5 14t-23.5 17t-23 15.5t-26.5 15.5t-25 12t-27.5 9.5t-25 2.5q-50 0 -90.5 -59.5t-62 -150.5t-21.5 -191q0 -146 82 -146 q15 0 39.5 9t45 20t53.5 28.5t50 26.5l82 -256q-70 -34 -106.5 -51t-114 -40.5t-135.5 -23.5q-133 0 -216 100t-83 292zM295 1493h186l70 -145l115 145h208l-206 -287h-269z" />
<glyph unicode="&#x10e;" horiz-adv-x="1122" d="M2 0l252 1434h299q272 0 400 -135.5t128 -378.5q0 -72 -8.5 -148t-30.5 -168t-56 -175.5t-90.5 -163t-128 -137.5t-174 -93t-224.5 -35h-367zM365 295h45q103 0 186.5 88t126.5 223.5t43 284.5q0 130 -53.5 189t-165.5 59h-33zM492 1802h186l70 -145l114 145h209 l-207 -286h-268z" />
<glyph unicode="&#x10f;" horiz-adv-x="1087" d="M33 307q0 93 14 196.5t46.5 210.5t78.5 191.5t117 138.5t155 54q68 0 113.5 -35t93.5 -102l94 532h299l-262 -1493h-299l21 121q-71 -71 -129 -107.5t-127 -36.5q-61 0 -105 28.5t-67 78t-33 104.5t-10 119zM340 371q0 -123 61 -123q70 0 148 131l57 326 q-38 122 -100 122q-39 0 -72.5 -53t-52.5 -129.5t-30 -150t-11 -123.5zM1026 1063l117 168h-86l45 262h203l-43 -291l-197 -217z" />
<glyph unicode="&#x110;" horiz-adv-x="1140" d="M20 0l103 584h-103l48 266h102l102 584h299q272 0 400.5 -135.5t128.5 -378.5q0 -71 -8.5 -148t-30.5 -168.5t-56 -175t-90.5 -163t-128.5 -137.5t-174.5 -93t-224.5 -35h-367zM383 295h45q103 0 186.5 88t126.5 223.5t43 284.5q0 130 -53.5 189t-165.5 59h-33l-51 -289 h172l-47 -266h-172z" />
<glyph unicode="&#x111;" d="M33 307q0 93 14 196.5t46.5 210.5t78.5 191.5t117 138.5t155 54q68 0 113.5 -35t93.5 -102l39 217h-241l34 192h240l22 123h299l-22 -123h80l-33 -192h-80l-207 -1178h-299l21 121q-71 -71 -129 -107.5t-127 -36.5q-61 0 -105 28.5t-67 78t-33 104.5t-10 119zM340 371 q0 -123 61 -123q70 0 148 131l57 326q-38 122 -100 122q-39 0 -72.5 -53t-52.5 -129.5t-30 -150t-11 -123.5z" />
<glyph unicode="&#x112;" horiz-adv-x="948" d="M2 0l252 1434h766l-55 -295h-451l-49 -277h366l-51 -289h-366l-49 -278h460l-51 -295h-772zM434 1567l35 192h457l-33 -192h-459z" />
<glyph unicode="&#x113;" horiz-adv-x="870" d="M27 389q0 207 60 366.5t177.5 251t276.5 91.5q139 0 220 -80t81 -215q0 -88 -26.5 -155.5t-69 -108t-103.5 -66t-121.5 -34.5t-130.5 -9h-63v-33q0 -172 86 -172q28 0 73.5 19t74.5 35t104 59l88 -223q-60 -42 -184 -90t-238 -48q-140 0 -222.5 100.5t-82.5 311.5z M342 1257l35 193h457l-33 -193h-459zM344 606h49q85 0 135 49t50 127t-66 78q-43 0 -77.5 -35.5t-56 -90.5t-34.5 -128z" />
<glyph unicode="&#x116;" horiz-adv-x="948" d="M2 0l252 1434h766l-55 -295h-451l-49 -277h366l-51 -289h-366l-49 -278h460l-51 -295h-772zM545 1536l47 262h229l-47 -262h-229z" />
<glyph unicode="&#x117;" horiz-adv-x="870" d="M27 389q0 207 60 366.5t177.5 251t276.5 91.5q139 0 220 -80t81 -215q0 -88 -26.5 -155.5t-69 -108t-103.5 -66t-121.5 -34.5t-130.5 -9h-63v-33q0 -172 86 -172q28 0 73.5 19t74.5 35t104 59l88 -223q-60 -42 -184 -90t-238 -48q-140 0 -222.5 100.5t-82.5 311.5z M344 606h49q85 0 135 49t50 127t-66 78q-43 0 -77.5 -35.5t-56 -90.5t-34.5 -128zM453 1227l47 262h229l-47 -262h-229z" />
<glyph unicode="&#x118;" horiz-adv-x="948" d="M2 0l252 1434h766l-55 -295h-451l-49 -277h366l-51 -289h-366l-49 -278h460l-51 -295h-6q-4 -3 -28.5 -25t-32.5 -29.5t-28 -27t-28.5 -31.5t-20 -29.5t-16 -33t-4.5 -31.5q0 -15 5.5 -25t12 -15.5t19.5 -8t19 -3t20 0.5h14l-53 -148h-15h-24t-26.5 1.5t-30.5 4t-30.5 8 t-30.5 13.5t-26 20t-22.5 27.5t-14 37t-5.5 46.5q0 78 47.5 136.5t132.5 111.5h-600z" />
<glyph unicode="&#x119;" horiz-adv-x="870" d="M27 389q0 207 60 366.5t177.5 251t276.5 91.5q139 0 220 -80t81 -215q0 -88 -26.5 -155.5t-69 -108t-103.5 -66t-121.5 -34.5t-130.5 -9h-63v-33q0 -172 86 -172q28 0 73.5 19t74.5 35t104 59l88 -223q-38 -26 -114.5 -61t-160.5 -56q-35 -31 -53.5 -47.5t-46 -46.5 t-40.5 -57.5t-13 -53.5q0 -15 5.5 -25t12 -15.5t19.5 -8t19 -3t20 0.5h14l-54 -148h-16h-23t-26.5 1.5t-30.5 4t-30.5 8t-30.5 13.5t-26 20t-22.5 27.5t-14 37t-5.5 46.5q0 130 148 230q-120 14 -189 114t-69 293zM344 606h49q85 0 135 49t50 127t-66 78q-43 0 -77.5 -35.5 t-56 -90.5t-34.5 -128z" />
<glyph unicode="&#x11a;" horiz-adv-x="948" d="M2 0l252 1434h766l-55 -295h-451l-49 -277h366l-51 -289h-366l-49 -278h460l-51 -295h-772zM414 1802h186l70 -145l114 145h209l-207 -286h-268z" />
<glyph unicode="&#x11b;" horiz-adv-x="870" d="M27 389q0 207 60 366.5t177.5 251t276.5 91.5q139 0 220 -80t81 -215q0 -88 -26.5 -155.5t-69 -108t-103.5 -66t-121.5 -34.5t-130.5 -9h-63v-33q0 -172 86 -172q28 0 73.5 19t74.5 35t104 59l88 -223q-60 -42 -184 -90t-238 -48q-140 0 -222.5 100.5t-82.5 311.5z M326 1493h186l70 -145l114 145h209l-207 -287h-268zM344 606h49q85 0 135 49t50 127t-66 78q-43 0 -77.5 -35.5t-56 -90.5t-34.5 -128z" />
<glyph unicode="&#x11e;" horiz-adv-x="1081" d="M70 477q0 84 8 172t28 185t49.5 185t75.5 169t103 139.5t135.5 93.5t169.5 35q63 0 126.5 -16t129 -50t107.5 -60t108 -70l-164 -246q-13 8 -54.5 32t-64 36t-57 29t-61.5 24.5t-50 7.5q-53 0 -99 -44.5t-77 -115.5t-53 -159t-32.5 -174.5t-10.5 -162.5q0 -213 105 -213 q80 0 176 115l30 170h-184l47 275h479l-147 -834h-293l23 133q-61 -76 -123.5 -116t-139.5 -40q-137 0 -213.5 128.5t-76.5 371.5zM481 1778h174q-6 -39 11 -61.5t51 -22.5q49 0 79 22t35 62h177q-23 -124 -102 -193t-201 -69q-127 0 -186 72.5t-38 189.5z" />
<glyph unicode="&#x11f;" d="M-70 -350l107 256q65 -32 148 -56t141 -24q76 0 107.5 45t45.5 133l19 111q-65 -67 -122.5 -102.5t-127.5 -35.5q-61 0 -105 28.5t-67 78t-33 104.5t-10 119q0 93 14 196.5t46.5 210.5t78.5 191.5t117 138.5t155 54q67 0 112 -34t91 -99l21 110h301l-187 -1057 q-24 -137 -58.5 -225.5t-87.5 -139.5t-119.5 -71t-162.5 -20q-205 0 -424 88zM340 371q0 -123 61 -123q66 0 142 121l61 344q-38 114 -98 114q-39 0 -72.5 -53t-52.5 -129.5t-30 -150t-11 -123.5zM383 1468h174q-6 -39 10.5 -61.5t50.5 -22.5q50 0 80.5 22t34.5 62h176 q-23 -124 -102 -193t-201 -69q-127 0 -185.5 72.5t-37.5 189.5z" />
<glyph unicode="&#x120;" horiz-adv-x="1081" d="M70 477q0 84 8 172t28 185t49.5 185t75.5 169t103 139.5t135.5 93.5t169.5 35q63 0 126.5 -16t129 -50t107.5 -60t108 -70l-164 -246q-13 8 -54.5 32t-64 36t-57 29t-61.5 24.5t-50 7.5q-53 0 -99 -44.5t-77 -115.5t-53 -159t-32.5 -174.5t-10.5 -162.5q0 -213 105 -213 q80 0 176 115l30 170h-184l47 275h479l-147 -834h-293l23 133q-61 -76 -123.5 -116t-139.5 -40q-137 0 -213.5 128.5t-76.5 371.5zM586 1536l47 262h229l-47 -262h-229z" />
<glyph unicode="&#x121;" d="M-70 -350l107 256q65 -32 148 -56t141 -24q76 0 107.5 45t45.5 133l19 111q-65 -67 -122.5 -102.5t-127.5 -35.5q-61 0 -105 28.5t-67 78t-33 104.5t-10 119q0 93 14 196.5t46.5 210.5t78.5 191.5t117 138.5t155 54q67 0 112 -34t91 -99l21 110h301l-187 -1057 q-24 -137 -58.5 -225.5t-87.5 -139.5t-119.5 -71t-162.5 -20q-205 0 -424 88zM340 371q0 -123 61 -123q66 0 142 121l61 344q-38 114 -98 114q-39 0 -72.5 -53t-52.5 -129.5t-30 -150t-11 -123.5zM487 1227l48 262h229l-47 -262h-230z" />
<glyph unicode="&#x122;" horiz-adv-x="1081" d="M70 477q0 84 8 172t28 185t49.5 185t75.5 169t103 139.5t135.5 93.5t169.5 35q63 0 126.5 -16t129 -50t107.5 -60t108 -70l-164 -246q-13 8 -54.5 32t-64 36t-57 29t-61.5 24.5t-50 7.5q-53 0 -99 -44.5t-77 -115.5t-53 -159t-32.5 -174.5t-10.5 -162.5q0 -213 105 -213 q80 0 176 115l30 170h-184l47 275h479l-147 -834h-293l23 133q-61 -76 -123.5 -116t-139.5 -40q-137 0 -213.5 128.5t-76.5 371.5zM250 -543l117 168h-86l45 262h202l-43 -290l-196 -218z" />
<glyph unicode="&#x123;" d="M-70 -350l107 256q65 -32 148 -56t141 -24q76 0 107.5 45t45.5 133l19 111q-65 -67 -122.5 -102.5t-127.5 -35.5q-61 0 -105 28.5t-67 78t-33 104.5t-10 119q0 93 14 196.5t46.5 210.5t78.5 191.5t117 138.5t155 54q67 0 112 -34t91 -99l21 110h301l-187 -1057 q-24 -137 -58.5 -225.5t-87.5 -139.5t-119.5 -71t-162.5 -20q-205 0 -424 88zM340 371q0 -123 61 -123q66 0 142 121l61 344q-38 114 -98 114q-39 0 -72.5 -53t-52.5 -129.5t-30 -150t-11 -123.5zM514 1227l43 291l197 217l39 -78l-117 -168h86l-45 -262h-203z" />
<glyph unicode="&#x126;" horiz-adv-x="1153" d="M18 0l185 1053h-105l35 192h105l32 189h312l-33 -189h274l35 189h311l-32 -189h108l-35 -192h-108l-184 -1053h-314l107 608h-275l-106 -608h-312zM487 897h275l26 156h-274z" />
<glyph unicode="&#x127;" horiz-adv-x="964" d="M-18 0l206 1178h-82l39 192h76l23 123h301l-23 -123h238l-37 -192h-234l-38 -220q75 67 143 103.5t143 36.5q107 0 154 -80.5t16 -253.5l-133 -764h-301l121 688q6 33 8.5 55.5t1.5 46.5t-11 36t-30 12q-34 0 -75.5 -31.5t-77.5 -77.5l-127 -729h-301z" />
<glyph unicode="&#x128;" horiz-adv-x="534" d="M2 0l252 1434h311l-252 -1434h-311zM150 1612q28 51 46.5 80.5t46 62t57.5 47.5t65 15q33 0 70 -24.5t68 -49.5t50 -25q38 0 94 99l111 -91q-22 -38 -28 -48.5t-25.5 -41t-29 -40.5t-28 -29.5t-33 -26.5t-34.5 -13.5t-41 -6.5q-33 0 -69.5 24.5t-67 49t-48.5 24.5 q-38 0 -96 -96z" />
<glyph unicode="&#x129;" horiz-adv-x="481" d="M-20 0l190 1075h301l-190 -1075h-301zM68 1303q28 51 46.5 80.5t46 61.5t57.5 47t65 15q33 0 70 -24.5t68 -49t50 -24.5q38 0 94 98l111 -90q-2 -4 -7 -12q-31 -53 -47.5 -78t-44 -57.5t-56.5 -46t-64 -13.5q-33 0 -69.5 25t-67 49.5t-48.5 24.5q-37 0 -96 -97z" />
<glyph unicode="&#x12a;" horiz-adv-x="532" d="M2 0l252 1434h311l-252 -1434h-311zM205 1567l35 192h456l-32 -192h-459z" />
<glyph unicode="&#x12b;" horiz-adv-x="479" d="M-20 0l190 1075h301l-190 -1075h-301zM121 1257l35 193h456l-32 -193h-459z" />
<glyph unicode="&#x12c;" horiz-adv-x="534" d="M2 0l252 1434h311l-252 -1434h-311zM209 1778h174q-6 -39 10.5 -61.5t50.5 -22.5q50 0 80.5 22t34.5 62h176q-23 -124 -102 -193t-201 -69q-127 0 -185.5 72.5t-37.5 189.5z" />
<glyph unicode="&#x12d;" horiz-adv-x="477" d="M-20 0l190 1075h301l-190 -1075h-301zM127 1468h174q-6 -39 10.5 -61.5t50.5 -22.5q50 0 80.5 22t34.5 62h176q-23 -124 -102 -193t-201 -69q-127 0 -185.5 72.5t-37.5 189.5z" />
<glyph unicode="&#x12e;" horiz-adv-x="530" d="M-37 -248q0 78 47.5 136.5t132.5 111.5h-141l252 1434h311l-252 -1434h-4q-5 -4 -25 -22t-27.5 -25t-25.5 -24t-26 -26.5t-20.5 -25.5t-18 -28t-10 -27t-4.5 -29q0 -15 5.5 -25t12 -15.5t19.5 -8t19 -3t20 0.5h14l-54 -148h-16h-23t-26.5 1.5t-30.5 4t-30.5 8t-30.5 13.5 t-26 20t-22.5 27.5t-14 37t-5.5 46.5z" />
<glyph unicode="&#x12f;" horiz-adv-x="479" d="M-70 -248q0 78 48 136.5t133 111.5h-131l190 1075h301l-190 -1075h-5q-5 -4 -25 -22t-27.5 -25t-25.5 -24t-26 -26.5t-20.5 -25.5t-18 -28t-10 -27t-4.5 -29q0 -15 5.5 -25t12 -15.5t19.5 -8t19 -3t20 0.5h14l-53 -148h-16h-23t-27 1.5t-31 4t-30.5 8t-30.5 13.5t-26 20 t-22.5 27.5t-14 37t-5.5 46.5zM188 1212l50 275h311l-49 -275h-312z" />
<glyph unicode="&#x130;" horiz-adv-x="532" d="M2 0l252 1434h311l-252 -1434h-311zM313 1536l47 262h230l-47 -262h-230z" />
<glyph unicode="&#x131;" horiz-adv-x="477" d="M-20 0l190 1075h301l-190 -1075h-301z" />
<glyph unicode="&#x132;" horiz-adv-x="1064" d="M2 0l252 1434h311l-252 -1434h-311zM352 -121q44 20 73.5 35.5t51.5 34.5t33.5 32t20.5 39.5t13 44t11 58.5l231 1311h312l-228 -1293q-30 -173 -54 -233q-38 -99 -132 -163q-86 -57 -264 -120z" />
<glyph unicode="&#x133;" horiz-adv-x="954" d="M-20 0l190 1075h301l-190 -1075h-301zM188 1212l50 275h311l-49 -275h-312zM254 -217q45 20 74 35t51.5 32.5t34 30.5t21 37.5t13.5 43.5t11 58l186 1055h301l-182 -1026q-12 -71 -18.5 -103t-20 -85t-27 -77.5t-37 -62t-53 -57.5t-72 -46.5t-97.5 -45.5t-126 -39z M664 1212l49 275h311l-49 -275h-311z" />
<glyph unicode="&#x134;" horiz-adv-x="532" d="M-180 -121q44 20 73.5 35.5t51.5 34.5t33.5 32t20.5 39.5t13 44t11 58.5l231 1311h311l-227 -1293q-30 -173 -54 -234q-40 -99 -134 -163q-87 -57 -263 -119zM131 1516l209 286h268l103 -286h-185l-67 143l-117 -143h-211z" />
<glyph unicode="&#x135;" horiz-adv-x="477" d="M-221 -217q67 30 102.5 50.5t57.5 49.5t29.5 54.5t17.5 82.5l182 1055h301l-178 -1026q-13 -77 -21.5 -116.5t-25 -94.5t-36.5 -84t-52.5 -67t-77.5 -61.5t-107 -49t-145 -47.5zM47 1206l209 287h268l103 -287h-185l-67 144l-117 -144h-211z" />
<glyph unicode="&#x136;" horiz-adv-x="1091" d="M2 0l252 1434h311l-88 -502l369 502h383l-529 -660l279 -774h-352l-148 500l-100 -127l-66 -373h-311zM236 -543l116 168h-86l45 262h203l-43 -290l-197 -218z" />
<glyph unicode="&#x137;" horiz-adv-x="917" d="M-18 0l262 1493h301l-133 -758l213 340h346l-350 -438l196 -637h-311l-92 375l-84 -103l-47 -272h-301zM160 -543l116 168h-86l46 262h202l-43 -290l-196 -218z" />
<glyph unicode="&#x138;" horiz-adv-x="917" d="M-18 0l188 1075h301l-59 -340l213 340h346l-350 -438l196 -637h-311l-92 375l-84 -103l-47 -272h-301z" />
<glyph unicode="&#x139;" horiz-adv-x="886" d="M2 0l252 1434h311l-200 -1139h442l-51 -295h-754zM238 1516l229 286h328l-299 -286h-258z" />
<glyph unicode="&#x13a;" horiz-adv-x="481" d="M-16 0l264 1493h299l-262 -1493h-301zM221 1575l230 287h327l-299 -287h-258z" />
<glyph unicode="&#x13b;" horiz-adv-x="886" d="M2 0l252 1434h311l-200 -1139h442l-51 -295h-754zM168 -543l117 168h-86l45 262h202l-43 -290l-196 -218z" />
<glyph unicode="&#x13c;" horiz-adv-x="483" d="M-61 -543l116 168h-86l45 262h203l-43 -290l-197 -218zM-16 0l264 1493h299l-262 -1493h-301z" />
<glyph unicode="&#x13d;" horiz-adv-x="888" d="M2 0l252 1434h311l-200 -1139h442l-51 -295h-754zM547 1004l117 167h-86l45 263h202l-43 -291l-196 -217z" />
<glyph unicode="&#x13e;" horiz-adv-x="593" d="M-16 0l264 1493h299l-262 -1493h-301zM528 1063l117 168h-86l45 262h203l-43 -291l-197 -217z" />
<glyph unicode="&#x13f;" horiz-adv-x="888" d="M2 0l252 1434h311l-200 -1139h442l-51 -295h-754zM578 625l47 262h229l-47 -262h-229z" />
<glyph unicode="&#x140;" horiz-adv-x="653" d="M-16 0l264 1493h299l-262 -1493h-301zM449 625l47 262h229l-47 -262h-229z" />
<glyph unicode="&#x141;" horiz-adv-x="901" d="M-12 385l55 301l104 68l121 680h312l-80 -455l211 135l-54 -301l-211 -135l-67 -383h442l-51 -295h-754l80 455z" />
<glyph unicode="&#x142;" horiz-adv-x="528" d="M-6 428l53 301l96 62l125 702h299l-86 -489l92 59l-53 -303l-92 -58l-123 -702h-301l86 489z" />
<glyph unicode="&#x143;" horiz-adv-x="1140" d="M2 0l252 1434h313l152 -822l145 822h312l-252 -1434h-316l-151 819l-144 -819h-311zM549 1516l229 286h328l-299 -286h-258z" />
<glyph unicode="&#x144;" horiz-adv-x="966" d="M-18 0l188 1075h301l-20 -117q75 67 143 103.5t143 36.5q108 0 154.5 -80.5t15.5 -253.5l-133 -764h-301l123 692q4 22 6 35.5t3.5 33t0 31t-6 23.5t-13.5 17.5t-23 5.5q-34 0 -76 -32t-77 -79l-127 -727h-301zM401 1206l230 287h327l-299 -287h-258z" />
<glyph unicode="&#x145;" horiz-adv-x="1140" d="M2 0l252 1434h313l152 -822l145 822h312l-252 -1434h-316l-151 819l-144 -819h-311zM276 -543l117 168h-86l45 262h203l-43 -290l-197 -218z" />
<glyph unicode="&#x146;" horiz-adv-x="964" d="M-18 0l188 1075h301l-20 -117q75 67 143 103.5t143 36.5q108 0 154.5 -80.5t15.5 -253.5l-133 -764h-301l123 692q4 22 6 35.5t3.5 33t0 31t-6 23.5t-13.5 17.5t-23 5.5q-34 0 -76 -32t-77 -79l-127 -727h-301zM182 -543l117 168h-86l45 262h203l-43 -290l-197 -218z" />
<glyph unicode="&#x147;" horiz-adv-x="1140" d="M2 0l252 1434h313l152 -822l145 822h312l-252 -1434h-316l-151 819l-144 -819h-311zM498 1802h186l70 -145l114 145h209l-207 -286h-268z" />
<glyph unicode="&#x148;" horiz-adv-x="962" d="M-18 0l188 1075h301l-20 -117q75 67 143 103.5t143 36.5q108 0 154.5 -80.5t15.5 -253.5l-133 -764h-301l123 692q4 22 6 35.5t3.5 33t0 31t-6 23.5t-13.5 17.5t-23 5.5q-34 0 -76 -32t-77 -79l-127 -727h-301zM350 1493h187l69 -145l115 145h209l-207 -287h-268z" />
<glyph unicode="&#x149;" horiz-adv-x="964" d="M-18 0l188 1075h301l-20 -117q75 67 143 103.5t143 36.5q108 0 154.5 -80.5t15.5 -253.5l-133 -764h-301l123 692q4 22 6 35.5t3.5 33t0 31t-6 23.5t-13.5 17.5t-23 5.5q-34 0 -76 -32t-77 -79l-127 -727h-301zM199 1223l116 168h-86l45 262h203l-43 -291l-196 -217z" />
<glyph unicode="&#x14a;" horiz-adv-x="1142" d="M2 0l252 1434h313l152 -822l145 822h312l-228 -1293q-31 -173 -54 -232q-38 -99 -129 -162q-85 -58 -263 -120l-74 252q77 34 118 62.5t60 68.5l-149 809l-144 -819h-311z" />
<glyph unicode="&#x14b;" horiz-adv-x="962" d="M-18 0l188 1075h301l-20 -117q75 67 143 103.5t143 36.5q107 0 154 -80.5t16 -253.5l-125 -715q-16 -92 -25 -134t-30 -104t-48 -92t-74 -69t-113.5 -65t-161.5 -52l-60 250q67 30 102.5 50.5t57.5 49.5t29.5 54.5t17.5 82.5l119 668q4 24 6 37t3.5 34t0 32.5t-6 23.5 t-13.5 17.5t-23 5.5q-34 0 -76 -32t-77 -79l-127 -727h-301z" />
<glyph unicode="&#x14c;" horiz-adv-x="1175" d="M72 514q0 49 5.5 108.5t17.5 137.5t35 156t54 157.5t78 147t104 121t135.5 84t168.5 30.5q78 0 145.5 -17t128 -56.5t103 -100t67.5 -153t25 -209.5q0 -57 -7 -127t-25.5 -162.5t-46.5 -181t-76 -175.5t-108 -152t-147 -105t-190 -40q-99 0 -180 28t-147 88.5t-103 167.5 t-37 253zM387 489q0 -95 39 -155t119 -60q64 0 115.5 62.5t80.5 149.5t49 188t26.5 169t6.5 101q0 95 -39 155t-120 60q-53 0 -98 -43.5t-74 -113.5t-50.5 -148.5t-33 -156.5t-16.5 -130.5t-5 -77.5zM526 1567l35 192h457l-33 -192h-459z" />
<glyph unicode="&#x14d;" horiz-adv-x="954" d="M33 399q0 49 5.5 104.5t20 125t37 133.5t60 126.5t85.5 108t117 73.5t150 28q48 0 95.5 -9.5t102.5 -37.5t96 -73t68 -123t27 -179q0 -49 -5 -104.5t-19.5 -125t-37 -133.5t-60 -126.5t-85 -108t-116.5 -73.5t-150 -28q-49 0 -96.5 9t-102.5 37.5t-96 73t-68.5 122.5 t-27.5 180zM332 365q0 -64 23.5 -98t66.5 -34q46 0 83 57.5t56.5 140.5t29 156.5t9.5 123.5q0 63 -24 97t-66 34q-47 0 -84 -57.5t-56 -140t-28.5 -156t-9.5 -123.5zM360 1257l35 193h457l-33 -193h-459z" />
<glyph unicode="&#x14e;" horiz-adv-x="1175" d="M72 514q0 49 5.5 108.5t17.5 137.5t35 156t54 157.5t78 147t104 121t135.5 84t168.5 30.5q78 0 145.5 -17t128 -56.5t103 -100t67.5 -153t25 -209.5q0 -57 -7 -127t-25.5 -162.5t-46.5 -181t-76 -175.5t-108 -152t-147 -105t-190 -40q-99 0 -180 28t-147 88.5t-103 167.5 t-37 253zM387 489q0 -95 39 -155t119 -60q64 0 115.5 62.5t80.5 149.5t49 188t26.5 169t6.5 101q0 95 -39 155t-120 60q-53 0 -98 -43.5t-74 -113.5t-50.5 -148.5t-33 -156.5t-16.5 -130.5t-5 -77.5zM532 1778h175q-6 -39 10.5 -61.5t50.5 -22.5q50 0 80.5 22t34.5 62h176 q-23 -124 -102 -193t-201 -69q-127 0 -186 72.5t-38 189.5z" />
<glyph unicode="&#x14f;" horiz-adv-x="954" d="M33 399q0 49 5.5 104.5t20 125t37 133.5t60 126.5t85.5 108t117 73.5t150 28q48 0 95.5 -9.5t102.5 -37.5t96 -73t68 -123t27 -179q0 -49 -5 -104.5t-19.5 -125t-37 -133.5t-60 -126.5t-85 -108t-116.5 -73.5t-150 -28q-49 0 -96.5 9t-102.5 37.5t-96 73t-68.5 122.5 t-27.5 180zM332 365q0 -64 23.5 -98t66.5 -34q46 0 83 57.5t56.5 140.5t29 156.5t9.5 123.5q0 63 -24 97t-66 34q-47 0 -84 -57.5t-56 -140t-28.5 -156t-9.5 -123.5zM367 1468h174q-6 -39 10.5 -61.5t50.5 -22.5q50 0 80.5 22t34.5 62h176q-23 -124 -102 -193t-201 -69 q-127 0 -185.5 72.5t-37.5 189.5z" />
<glyph unicode="&#x150;" horiz-adv-x="1175" d="M72 514q0 49 5.5 108.5t17.5 137.5t35 156t54 157.5t78 147t104 121t135.5 84t168.5 30.5q78 0 145.5 -17t128 -56.5t103 -100t67.5 -153t25 -209.5q0 -57 -7 -127t-25.5 -162.5t-46.5 -181t-76 -175.5t-108 -152t-147 -105t-190 -40q-99 0 -180 28t-147 88.5t-103 167.5 t-37 253zM387 489q0 -95 39 -155t119 -60q64 0 115.5 62.5t80.5 149.5t49 188t26.5 169t6.5 101q0 95 -39 155t-120 60q-53 0 -98 -43.5t-74 -113.5t-50.5 -148.5t-33 -156.5t-16.5 -130.5t-5 -77.5zM489 1516l166 286h246l-237 -286h-175zM780 1516l168 286h246l-240 -286 h-174z" />
<glyph unicode="&#x151;" horiz-adv-x="954" d="M33 399q0 49 5.5 104.5t20 125t37 133.5t60 126.5t85.5 108t117 73.5t150 28q48 0 95.5 -9.5t102.5 -37.5t96 -73t68 -123t27 -179q0 -49 -5 -104.5t-19.5 -125t-37 -133.5t-60 -126.5t-85 -108t-116.5 -73.5t-150 -28q-49 0 -96.5 9t-102.5 37.5t-96 73t-68.5 122.5 t-27.5 180zM326 1206l166 287h245l-237 -287h-174zM332 365q0 -64 23.5 -98t66.5 -34q46 0 83 57.5t56.5 140.5t29 156.5t9.5 123.5q0 63 -24 97t-66 34q-47 0 -84 -57.5t-56 -140t-28.5 -156t-9.5 -123.5zM616 1206l168 287h246l-239 -287h-175z" />
<glyph unicode="&#x152;" horiz-adv-x="1632" d="M72 514q0 49 5.5 108.5t17.5 137.5t35 156t54 157.5t78 147t104 121t135.5 84t168.5 30.5q155 0 260 -65l8 43h766l-55 -295h-451l-49 -277h367l-52 -289h-366l-49 -278h460l-51 -295h-772q-74 -23 -147 -23q-99 0 -180 28t-147 88.5t-103 167.5t-37 253zM387 489 q0 -95 39 -155t119 -60q64 0 115.5 62.5t80.5 149.5t49 188t26.5 169t6.5 101q0 95 -39 155t-120 60q-53 0 -98 -43.5t-74 -113.5t-50.5 -148.5t-33 -156.5t-16.5 -130.5t-5 -77.5z" />
<glyph unicode="&#x153;" horiz-adv-x="1427" d="M33 399q0 49 5.5 104.5t20 125t37 133.5t60 126.5t85.5 108t117 73.5t150 28q75 0 152.5 -26.5t134.5 -88.5q124 115 303 115q139 0 220 -80t81 -215q0 -88 -26.5 -155.5t-69 -108t-103.5 -66t-121.5 -34.5t-130.5 -9h-63v-33q0 -172 86 -172q28 0 73.5 19t74.5 35 t104 59l88 -223q-60 -42 -184 -90t-238 -48q-136 0 -213 89q-111 -89 -252 -89q-49 0 -96.5 9t-102.5 37.5t-96 73t-68.5 122.5t-27.5 180zM332 365q0 -64 23.5 -98t66.5 -34q46 0 83 57.5t56.5 140.5t29 156.5t9.5 123.5q0 63 -24 97t-66 34q-47 0 -84 -57.5t-56 -140 t-28.5 -156t-9.5 -123.5zM901 606h49q85 0 135 49t50 127t-66 78q-43 0 -77.5 -35.5t-56 -90.5t-34.5 -128z" />
<glyph unicode="&#x154;" horiz-adv-x="1091" d="M2 0l252 1434h403q106 0 186 -19.5t128 -51t78 -77.5t40.5 -92t10.5 -102t-8.5 -110t-31 -116.5t-58.5 -114.5t-96 -98.5t-138 -74.5l154 -578h-328l-125 539h-61l-95 -539h-311zM457 811h92q65 0 112 19.5t72.5 53.5t37 72t11.5 82q0 66 -41 94.5t-123 28.5h-100z M539 1516l229 286h328l-299 -286h-258z" />
<glyph unicode="&#x155;" horiz-adv-x="681" d="M-18 0l188 1075h301l-39 -223q12 23 18.5 34t26 41.5t35.5 49t43.5 44t53.5 39t61 22.5t71 5l-57 -315q-50 0 -95 -21t-77.5 -54t-60.5 -73t-45.5 -80.5t-30 -73.5t-17.5 -54l-6 -21l-69 -395h-301zM291 1206l229 287h328l-299 -287h-258z" />
<glyph unicode="&#x156;" horiz-adv-x="1091" d="M2 0l252 1434h403q106 0 186 -19.5t128 -51t78 -77.5t40.5 -92t10.5 -102t-8.5 -110t-31 -116.5t-58.5 -114.5t-96 -98.5t-138 -74.5l154 -578h-328l-125 539h-61l-95 -539h-311zM233 -543l117 168h-86l45 262h203l-43 -290l-197 -218zM457 811h92q65 0 112 19.5 t72.5 53.5t37 72t11.5 82q0 66 -41 94.5t-123 28.5h-100z" />
<glyph unicode="&#x157;" horiz-adv-x="681" d="M-66 -543l117 168h-86l45 262h203l-43 -290l-197 -218zM-18 0l188 1075h301l-39 -223q12 23 18.5 34t26 41.5t35.5 49t43.5 44t53.5 39t61 22.5t71 5l-57 -315q-50 0 -95 -21t-77.5 -54t-60.5 -73t-45.5 -80.5t-30 -73.5t-17.5 -54l-6 -21l-69 -395h-301z" />
<glyph unicode="&#x158;" horiz-adv-x="1091" d="M2 0l252 1434h403q106 0 186 -19.5t128 -51t78 -77.5t40.5 -92t10.5 -102t-8.5 -110t-31 -116.5t-58.5 -114.5t-96 -98.5t-138 -74.5l154 -578h-328l-125 539h-61l-95 -539h-311zM457 811h92q65 0 112 19.5t72.5 53.5t37 72t11.5 82q0 66 -41 94.5t-123 28.5h-100z M487 1802h187l69 -145l115 145h209l-207 -286h-268z" />
<glyph unicode="&#x159;" horiz-adv-x="681" d="M-18 0l188 1075h301l-39 -223q12 23 18.5 34t26 41.5t35.5 49t43.5 44t53.5 39t61 22.5t71 5l-57 -315q-50 0 -95 -21t-77.5 -54t-60.5 -73t-45.5 -80.5t-30 -73.5t-17.5 -54l-6 -21l-69 -395h-301zM238 1493h186l70 -145l114 145h209l-207 -287h-268z" />
<glyph unicode="&#x15a;" horiz-adv-x="997" d="M-27 172l187 242q73 -59 154.5 -102.5t140.5 -43.5q51 0 84.5 31.5t33.5 85.5q0 23 -7.5 45t-17.5 37.5t-31.5 37t-36.5 33.5t-46.5 37t-48.5 39q-129 103 -189.5 206.5t-60.5 221.5q0 176 115 295t321 119q124 0 246.5 -43t218.5 -106l-188 -246q-162 102 -260 102 q-47 0 -82 -27.5t-35 -84.5q0 -18 4 -34.5t15 -33t19.5 -28t29 -30t32 -27.5t40.5 -31.5t42 -32.5q258 -207 258 -439q0 -80 -29 -154t-83.5 -133.5t-142.5 -95t-197 -35.5q-246 0 -486 195zM465 1516l229 286h328l-299 -286h-258z" />
<glyph unicode="&#x15b;" horiz-adv-x="839" d="M-41 125l147 225q174 -112 259 -112q32 0 54.5 17.5t22.5 47.5q0 15 -5.5 28t-11.5 22t-22.5 21.5t-25.5 18.5t-35 21t-37 22q-38 23 -67.5 44t-61.5 52t-52.5 63.5t-34 76t-13.5 92.5q0 145 100.5 239.5t272.5 94.5q179 0 376 -123l-143 -225q-142 88 -223 88 q-30 0 -52 -16.5t-22 -43.5q0 -14 3 -25.5t11.5 -22t14 -17.5t22 -17t24 -14.5t30 -16.5t30.5 -16q46 -28 81.5 -56t72.5 -69t57.5 -94.5t20.5 -114.5q0 -142 -99 -240t-276 -98q-205 0 -418 148zM344 1206l229 287h328l-299 -287h-258z" />
<glyph unicode="&#x15c;" horiz-adv-x="997" d="M-27 172l187 242q73 -59 154.5 -102.5t140.5 -43.5q51 0 84.5 31.5t33.5 85.5q0 23 -7.5 45t-17.5 37.5t-31.5 37t-36.5 33.5t-46.5 37t-48.5 39q-129 103 -189.5 206.5t-60.5 221.5q0 176 115 295t321 119q124 0 246.5 -43t218.5 -106l-188 -246q-162 102 -260 102 q-47 0 -82 -27.5t-35 -84.5q0 -18 4 -34.5t15 -33t19.5 -28t29 -30t32 -27.5t40.5 -31.5t42 -32.5q258 -207 258 -439q0 -80 -29 -154t-83.5 -133.5t-142.5 -95t-197 -35.5q-246 0 -486 195zM362 1516l209 286h269l102 -286h-184l-68 143l-117 -143h-211z" />
<glyph unicode="&#x15d;" horiz-adv-x="839" d="M-41 125l147 225q174 -112 259 -112q32 0 54.5 17.5t22.5 47.5q0 15 -5.5 28t-11.5 22t-22.5 21.5t-25.5 18.5t-35 21t-37 22q-38 23 -67.5 44t-61.5 52t-52.5 63.5t-34 76t-13.5 92.5q0 145 100.5 239.5t272.5 94.5q179 0 376 -123l-143 -225q-142 88 -223 88 q-30 0 -52 -16.5t-22 -43.5q0 -14 3 -25.5t11.5 -22t14 -17.5t22 -17t24 -14.5t30 -16.5t30.5 -16q46 -28 81.5 -56t72.5 -69t57.5 -94.5t20.5 -114.5q0 -142 -99 -240t-276 -98q-205 0 -418 148zM242 1206l209 287h268l102 -287h-184l-68 144l-116 -144h-211z" />
<glyph unicode="&#x15e;" horiz-adv-x="997" d="M-27 172l187 242q73 -59 154.5 -102.5t140.5 -43.5q51 0 84.5 31.5t33.5 85.5q0 23 -7.5 45t-17.5 37.5t-31.5 37t-36.5 33.5t-46.5 37t-48.5 39q-129 103 -189.5 206.5t-60.5 221.5q0 176 115 295t321 119q124 0 246.5 -43t218.5 -106l-188 -246q-162 102 -260 102 q-47 0 -82 -27.5t-35 -84.5q0 -18 4 -34.5t15 -33t19.5 -28t29 -30t32 -27.5t40.5 -31.5t42 -32.5q258 -207 258 -439q0 -77 -26.5 -147.5t-76.5 -128.5t-129.5 -95t-178.5 -44q16 -72 16 -123q0 -117 -61 -178.5t-146 -61.5q-89 0 -139 47l86 160q29 -23 59 -23 q29 0 48.5 22.5t19.5 74.5q0 26 -12 86q-206 29 -398 188z" />
<glyph unicode="&#x15f;" horiz-adv-x="839" d="M-41 125l147 225q174 -112 259 -112q32 0 54.5 17.5t22.5 47.5q0 15 -5.5 28t-11.5 22t-22.5 21.5t-25.5 18.5t-35 21t-37 22q-38 23 -67.5 44t-61.5 52t-52.5 63.5t-34 76t-13.5 92.5q0 145 100.5 239.5t272.5 94.5q179 0 376 -123l-143 -225q-142 88 -223 88 q-30 0 -52 -16.5t-22 -43.5q0 -14 3 -25.5t11.5 -22t14 -17.5t22 -17t24 -14.5t30 -16.5t30.5 -16q46 -28 81.5 -56t72.5 -69t57.5 -94.5t20.5 -114.5q0 -127 -81 -220t-229 -111q19 -59 19 -127q0 -117 -61 -178.5t-146 -61.5q-89 0 -139 47l86 160q29 -23 59 -23 q29 0 48.5 22.5t19.5 74.5q0 41 -13 84q-172 17 -356 143z" />
<glyph unicode="&#x160;" horiz-adv-x="997" d="M-27 172l187 242q73 -59 154.5 -102.5t140.5 -43.5q51 0 84.5 31.5t33.5 85.5q0 23 -7.5 45t-17.5 37.5t-31.5 37t-36.5 33.5t-46.5 37t-48.5 39q-129 103 -189.5 206.5t-60.5 221.5q0 176 115 295t321 119q124 0 246.5 -43t218.5 -106l-188 -246q-162 102 -260 102 q-47 0 -82 -27.5t-35 -84.5q0 -18 4 -34.5t15 -33t19.5 -28t29 -30t32 -27.5t40.5 -31.5t42 -32.5q258 -207 258 -439q0 -80 -29 -154t-83.5 -133.5t-142.5 -95t-197 -35.5q-246 0 -486 195zM414 1802h186l70 -145l114 145h209l-207 -286h-268z" />
<glyph unicode="&#x161;" horiz-adv-x="837" d="M-41 125l147 225q174 -112 259 -112q32 0 54.5 17.5t22.5 47.5q0 15 -5.5 28t-11.5 22t-22.5 21.5t-25.5 18.5t-35 21t-37 22q-38 23 -67.5 44t-61.5 52t-52.5 63.5t-34 76t-13.5 92.5q0 145 100.5 239.5t272.5 94.5q179 0 376 -123l-143 -225q-142 88 -223 88 q-30 0 -52 -16.5t-22 -43.5q0 -14 3 -25.5t11.5 -22t14 -17.5t22 -17t24 -14.5t30 -16.5t30.5 -16q46 -28 81.5 -56t72.5 -69t57.5 -94.5t20.5 -114.5q0 -142 -99 -240t-276 -98q-205 0 -418 148zM287 1493h186l70 -145l114 145h209l-207 -287h-268z" />
<glyph unicode="&#x162;" horiz-adv-x="905" d="M88 -336l86 160q29 -23 59 -23q29 0 48.5 22.5t19.5 74.5q0 54 -16 102h-95l201 1139h-272l53 295h850l-53 -295h-267l-200 -1139h-90q22 -55 22 -143q0 -117 -61 -178.5t-146 -61.5q-89 0 -139 47z" />
<glyph unicode="&#x163;" horiz-adv-x="686" d="M20 -336l86 160q29 -23 60 -23q67 0 67 97q0 41 -14 88q-186 49 -121 403l78 440h-100l43 246h100l43 242l311 69l-55 -311h197l-43 -246h-197l-80 -460q-18 -99 29 -99q9 0 18.5 2t22 7t19 8t23 11.5t21.5 10.5l58 -256q-126 -56 -238 -71q19 -59 19 -125 q0 -117 -61 -178.5t-146 -61.5q-90 0 -140 47z" />
<glyph unicode="&#x164;" horiz-adv-x="905" d="M119 1139l53 295h850l-53 -295h-267l-200 -1139h-312l201 1139h-272zM373 1802h186l70 -145l114 145h209l-207 -286h-268z" />
<glyph unicode="&#x165;" horiz-adv-x="684" d="M76 829l43 246h100l43 242l311 69l-55 -311h197l-43 -246h-197l-80 -460q-18 -99 29 -99q9 0 18.5 2t22 7t19 8t23 11.5t21.5 10.5l58 -256q-170 -76 -295 -76q-267 0 -193 412l78 440h-100zM602 1223l117 168h-86l45 262h203l-43 -291l-197 -217z" />
<glyph unicode="&#x166;" horiz-adv-x="917" d="M123 1139l53 295h850l-53 -295h-266l-93 -521h117l-33 -192h-118l-74 -426h-311l73 426h-108l33 192h110l92 521h-272z" />
<glyph unicode="&#x167;" horiz-adv-x="684" d="M47 504l35 194h70l24 131h-100l43 246h100l43 242l311 69l-55 -311h197l-43 -246h-197l-22 -131h153l-35 -194h-153l-23 -135q-18 -99 29 -99q9 0 18.5 2t22 7t19 8t23 11.5t21.5 10.5l58 -256q-170 -76 -295 -76q-267 0 -193 412l21 115h-72z" />
<glyph unicode="&#x168;" horiz-adv-x="1101" d="M60.5 345.5q1.5 74.5 17.5 168.5l162 920h311l-170 -965q-8 -52 -8.5 -95t26.5 -70.5t84 -27.5q152 0 181 193l172 965h311l-166 -934q-16 -96 -37 -167t-59.5 -141.5t-92.5 -115t-136.5 -72t-190.5 -27.5q-115 0 -196.5 28.5t-125.5 76t-64 118.5t-18.5 145.5zM426 1612 q28 51 46.5 80.5t46 62t57.5 47.5t65 15q33 0 70 -24.5t68 -49.5t50 -25q39 0 95 99l110 -91q-22 -38 -28 -48.5t-25.5 -41t-29 -40.5t-28 -29.5t-33 -26.5t-34.5 -13.5t-41 -6.5q-33 0 -69 24.5t-66.5 49t-48.5 24.5q-38 0 -96 -96z" />
<glyph unicode="&#x169;" horiz-adv-x="962" d="M31 313l135 762h299l-121 -690q-13 -55 -8.5 -101t41.5 -46q36 0 78.5 33.5t76.5 80.5l127 723h299l-188 -1075h-299l21 119q-76 -67 -144.5 -104.5t-144.5 -37.5q-229 0 -172 336zM319 1303q56 103 103 153.5t113 50.5q33 0 70 -24.5t68 -49t50 -24.5q38 0 94 98 l111 -90q-2 -4 -7 -12q-31 -53 -47.5 -78t-44 -57.5t-56.5 -46t-64 -13.5q-33 0 -69.5 25t-67 49.5t-48.5 24.5q-37 0 -96 -97z" />
<glyph unicode="&#x16a;" horiz-adv-x="1101" d="M60.5 345.5q1.5 74.5 17.5 168.5l162 920h311l-170 -965q-8 -52 -8.5 -95t26.5 -70.5t84 -27.5q152 0 181 193l172 965h311l-166 -934q-16 -96 -37 -167t-59.5 -141.5t-92.5 -115t-136.5 -72t-190.5 -27.5q-115 0 -196.5 28.5t-125.5 76t-64 118.5t-18.5 145.5zM485 1567 l35 192h457l-33 -192h-459z" />
<glyph unicode="&#x16b;" horiz-adv-x="962" d="M31 313l135 762h299l-121 -690q-13 -55 -8.5 -101t41.5 -46q36 0 78.5 33.5t76.5 80.5l127 723h299l-188 -1075h-299l21 119q-76 -67 -144.5 -104.5t-144.5 -37.5q-229 0 -172 336zM360 1257l35 193h457l-33 -193h-459z" />
<glyph unicode="&#x16c;" horiz-adv-x="1101" d="M60.5 345.5q1.5 74.5 17.5 168.5l162 920h311l-170 -965q-8 -52 -8.5 -95t26.5 -70.5t84 -27.5q152 0 181 193l172 965h311l-166 -934q-16 -96 -37 -167t-59.5 -141.5t-92.5 -115t-136.5 -72t-190.5 -27.5q-115 0 -196.5 28.5t-125.5 76t-64 118.5t-18.5 145.5zM492 1778 h174q-6 -39 10.5 -61.5t50.5 -22.5q50 0 80.5 22t34.5 62h176q-23 -124 -102 -193t-201 -69q-127 0 -185.5 72.5t-37.5 189.5z" />
<glyph unicode="&#x16d;" horiz-adv-x="962" d="M31 313l135 762h299l-121 -690q-13 -55 -8.5 -101t41.5 -46q36 0 78.5 33.5t76.5 80.5l127 723h299l-188 -1075h-299l21 119q-76 -67 -144.5 -104.5t-144.5 -37.5q-229 0 -172 336zM367 1468h174q-6 -39 10.5 -61.5t50.5 -22.5q50 0 80.5 22t34.5 62h176 q-23 -124 -102 -193t-201 -69q-127 0 -185.5 72.5t-37.5 189.5z" />
<glyph unicode="&#x16e;" horiz-adv-x="1101" d="M60.5 345.5q1.5 74.5 17.5 168.5l162 920h311l-170 -965q-8 -52 -8.5 -95t26.5 -70.5t84 -27.5q152 0 181 193l172 965h311l-166 -934q-16 -96 -37 -167t-59.5 -141.5t-92.5 -115t-136.5 -72t-190.5 -27.5q-115 0 -196.5 28.5t-125.5 76t-64 118.5t-18.5 145.5zM535 1702 q0 86 59.5 146.5t146.5 60.5q85 0 146 -61t61 -146q0 -87 -61 -147t-146 -60q-88 0 -147 59.5t-59 147.5zM672 1702q0 -29 20 -48.5t49 -19.5q28 0 48 19.5t20 48.5q0 28 -20 47.5t-48 19.5q-29 0 -49 -19.5t-20 -47.5z" />
<glyph unicode="&#x16f;" horiz-adv-x="962" d="M31 313l135 762h299l-121 -690q-13 -55 -8.5 -101t41.5 -46q36 0 78.5 33.5t76.5 80.5l127 723h299l-188 -1075h-299l21 119q-76 -67 -144.5 -104.5t-144.5 -37.5q-229 0 -172 336zM412 1393q0 85 59.5 145.5t146.5 60.5q85 0 146 -60.5t61 -145.5q0 -87 -61 -147 t-146 -60q-88 0 -147 59.5t-59 147.5zM549 1393q0 -29 20 -48.5t49 -19.5q28 0 48 19.5t20 48.5q0 28 -20 47.5t-48 19.5q-29 0 -49 -19.5t-20 -47.5z" />
<glyph unicode="&#x170;" horiz-adv-x="1101" d="M60.5 345.5q1.5 74.5 17.5 168.5l162 920h311l-170 -965q-8 -52 -8.5 -95t26.5 -70.5t84 -27.5q152 0 181 193l172 965h311l-166 -934q-16 -96 -37 -167t-59.5 -141.5t-92.5 -115t-136.5 -72t-190.5 -27.5q-115 0 -196.5 28.5t-125.5 76t-64 118.5t-18.5 145.5zM451 1516 l165 286h246l-237 -286h-174zM741 1516l168 286h246l-240 -286h-174z" />
<glyph unicode="&#x171;" horiz-adv-x="962" d="M31 313l135 762h299l-121 -690q-13 -55 -8.5 -101t41.5 -46q36 0 78.5 33.5t76.5 80.5l127 723h299l-188 -1075h-299l21 119q-76 -67 -144.5 -104.5t-144.5 -37.5q-229 0 -172 336zM326 1206l166 287h245l-237 -287h-174zM616 1206l168 287h246l-239 -287h-175z" />
<glyph unicode="&#x172;" horiz-adv-x="1101" d="M60 349.5q2 73.5 18 164.5l162 920h311l-170 -965q-8 -52 -8.5 -95t26.5 -70.5t84 -27.5q152 0 181 193l172 965h311l-166 -934q-17 -100 -39.5 -173.5t-61.5 -143.5t-101 -116.5t-146 -68.5q-37 -32 -54 -48t-45.5 -46.5t-41.5 -57.5t-13 -53q0 -15 5.5 -25t12 -15.5 t19.5 -8t19 -3t20 0.5h14l-53 -148h-16h-23t-26.5 1.5t-30.5 4t-30.5 8t-30.5 13.5t-26 20t-22.5 27.5t-14 37t-5.5 46.5q0 124 145 225q-108 3 -183.5 33.5t-117 78t-59.5 117.5t-16 143.5z" />
<glyph unicode="&#x173;" horiz-adv-x="962" d="M31 313l135 762h299l-121 -690q-13 -55 -8.5 -101t41.5 -46q36 0 78.5 33.5t76.5 80.5l127 723h299l-188 -1075h-10q-4 -3 -28.5 -25t-32.5 -29.5t-28 -27t-28.5 -31.5t-20 -29.5t-16 -33t-4.5 -31.5q0 -15 5.5 -25t12 -15.5t19.5 -8t19 -3t20 0.5h14l-53 -148h-15h-24 t-26.5 1.5t-30.5 4t-30.5 8t-30.5 13.5t-26 20t-22.5 27.5t-14 37t-5.5 46.5q0 78 47.5 136.5t132.5 111.5h-123l21 119q-76 -67 -144.5 -104.5t-144.5 -37.5q-229 0 -172 336z" />
<glyph unicode="&#x174;" horiz-adv-x="1460" d="M166 1434h346l-39 -820l277 820h231l-10 -809l246 809h358l-528 -1434h-291l10 860l-293 -860h-285zM594 1516l209 286h268l103 -286h-185l-67 143l-117 -143h-211z" />
<glyph unicode="&#x175;" horiz-adv-x="1269" d="M106 1075h316l-29 -600l219 600h201l6 -600l182 600h320l-414 -1075h-264l-12 602l-223 -602h-267zM442 1206l209 287h269l102 -287h-184l-68 144l-117 -144h-211z" />
<glyph unicode="&#x177;" horiz-adv-x="903" d="M-27 -211q141 67 222 148l-99 1138h307v-696l242 696h316l-459 -1075q-23 -53 -37.5 -84t-41 -78.5t-49 -78t-58 -68.5t-74 -64t-90 -50.5t-111.5 -41.5zM260 1206l209 287h268l103 -287h-185l-67 144l-117 -144h-211z" />
<glyph unicode="&#x178;" horiz-adv-x="1019" d="M150 1434h333l68 -521l248 521h352l-496 -859l-100 -575h-309l98 575zM422 1536l43 250h215l-43 -250h-215zM707 1536l43 250h215l-43 -250h-215z" />
<glyph unicode="&#x179;" horiz-adv-x="964" d="M-55 0l45 260l606 879h-422l51 295h815l-47 -258l-604 -881h463l-51 -295h-856zM459 1516l229 286h328l-299 -286h-258z" />
<glyph unicode="&#x17a;" horiz-adv-x="880" d="M-55 0l41 229l481 570h-369l52 276h755l-41 -229l-483 -570h383l-49 -276h-770zM354 1206l230 287h327l-299 -287h-258z" />
<glyph unicode="&#x17b;" horiz-adv-x="964" d="M-57 0l45 260l606 879h-422l51 295h815l-47 -258l-604 -881h463l-51 -295h-856zM535 1536l47 262h229l-47 -262h-229z" />
<glyph unicode="&#x17c;" horiz-adv-x="880" d="M-55 0l41 229l481 570h-369l52 276h755l-41 -229l-483 -570h383l-49 -276h-770zM430 1227l47 262h230l-48 -262h-229z" />
<glyph unicode="&#x17d;" horiz-adv-x="964" d="M-55 0l45 260l606 879h-422l51 295h815l-47 -258l-604 -881h463l-51 -295h-856zM408 1802h186l70 -145l114 145h209l-207 -286h-268z" />
<glyph unicode="&#x17e;" horiz-adv-x="880" d="M-55 0l41 229l481 570h-369l52 276h755l-41 -229l-483 -570h383l-49 -276h-770zM301 1493h186l70 -145l115 145h209l-207 -287h-268z" />
<glyph unicode="&#x17f;" horiz-adv-x="573" d="M-168 -227q30 13 52 25t41 22t32.5 23t23.5 22t18 26.5t13.5 28.5t11 35.5t8.5 40t9 49.5l137 784h-96l43 246h98l4 25q35 198 106.5 295.5t194.5 97.5q127 0 308 -109l-144 -213q-78 33 -100 33q-47 0 -62 -84l-184 -1048q-32 -187 -56 -251q-38 -102 -128 -164 q-83 -59 -264 -122z" />
<glyph unicode="&#x192;" horiz-adv-x="931" d="M-129 -418l412 1247h-105l90 246h94l13 35q61 203 137.5 293t216.5 90q83 0 174 -42.5t137 -78.5l-180 -213q-78 43 -117 43q-25 0 -41.5 -25t-35.5 -81l-9 -21h209l-92 -246h-196l-408 -1247h-299z" />
<glyph unicode="&#x1fc;" horiz-adv-x="1615" d="M-145 0l901 1434h932l-56 -295h-450l-49 -277h366l-51 -289h-367l-49 -278h461l-51 -295h-772l45 262h-318l-155 -262h-387zM565 545h199l84 475zM831 1516l230 286h328l-299 -286h-259z" />
<glyph unicode="&#x1fd;" horiz-adv-x="1404" d="M33 307q0 93 14 196.5t46.5 210.5t78.5 191.5t117 138.5t155 54q68 0 113.5 -35t93.5 -102l21 114h258q74 23 145 23q139 0 220 -80t81 -215q0 -88 -26.5 -155.5t-69 -108t-103 -66t-121 -34.5t-130.5 -9h-64v-33q0 -172 86 -172q28 0 73.5 19t74.5 35t104 59l88 -223 q-60 -42 -184 -90t-238 -48q-62 0 -123 23h-260l21 121q-71 -71 -129 -107.5t-127 -36.5q-61 0 -105 28.5t-67 78t-33 104.5t-10 119zM340 371q0 -123 61 -123q70 0 148 131l57 326q-38 122 -100 122q-39 0 -72.5 -53t-52.5 -129.5t-30 -150t-11 -123.5zM606 1206l230 287 h327l-299 -287h-258zM879 606h49q85 0 134.5 49t49.5 127t-65 78q-43 0 -77.5 -35.5t-56 -90.5t-34.5 -128z" />
<glyph unicode="&#x1fe;" horiz-adv-x="1175" d="M-18 0l149 207q-59 124 -59 307q0 49 5.5 108.5t17.5 137.5t35 156t54 157.5t78 147t104 121t135.5 84t168.5 30.5q184 0 301 -94l53 72h205l-152 -209q62 -124 62 -305q0 -57 -7 -127t-25.5 -162.5t-46.5 -181t-76 -175.5t-108 -152t-147 -105t-190 -40q-185 0 -301 93 l-50 -70h-206zM391 563l391 539q-44 57 -118 57q-53 0 -98.5 -45.5t-74.5 -111.5t-51 -152.5t-32.5 -154.5t-16.5 -132zM428 332q45 -58 117 -58q54 0 99.5 45t74.5 110.5t51 151.5t32.5 154.5t16.5 132.5zM561 1516l230 286h327l-299 -286h-258z" />
<glyph unicode="&#x1ff;" horiz-adv-x="954" d="M-39 0l123 160q-51 97 -51 239q0 49 5.5 104.5t20 125t37 133.5t60 126.5t85.5 108t117 73.5t150 28q141 0 242 -74l38 51h160l-112 -147q61 -101 61 -252q0 -49 -5 -104.5t-19.5 -125t-37 -133.5t-60 -126.5t-85 -108t-116.5 -73.5t-150 -28q-146 0 -254 80l-43 -57 h-166zM342 494l238 309q-23 39 -70 39q-36 0 -65.5 -32.5t-49.5 -86.5t-33 -110.5t-20 -118.5zM344 285q22 -52 78 -52q37 0 68 36.5t51.5 96t33 120.5t19.5 124zM379 1206l229 287h328l-299 -287h-258z" />
<glyph unicode="&#x218;" horiz-adv-x="997" d="M-27 172l187 242q73 -59 154.5 -102.5t140.5 -43.5q51 0 84.5 31.5t33.5 85.5q0 23 -7.5 45t-17.5 37.5t-31.5 37t-36.5 33.5t-46.5 37t-48.5 39q-129 103 -189.5 206.5t-60.5 221.5q0 176 115 295t321 119q124 0 246.5 -43t218.5 -106l-188 -246q-162 102 -260 102 q-47 0 -82 -27.5t-35 -84.5q0 -18 4 -34.5t15 -33t19.5 -28t29 -30t32 -27.5t40.5 -31.5t42 -32.5q258 -207 258 -439q0 -80 -29 -154t-83.5 -133.5t-142.5 -95t-197 -35.5q-246 0 -486 195zM195 -543l116 168h-86l45 262h203l-43 -290l-197 -218z" />
<glyph unicode="&#x219;" horiz-adv-x="839" d="M-41 125l147 225q174 -112 259 -112q32 0 54.5 17.5t22.5 47.5q0 15 -5.5 28t-11.5 22t-22.5 21.5t-25.5 18.5t-35 21t-37 22q-38 23 -67.5 44t-61.5 52t-52.5 63.5t-34 76t-13.5 92.5q0 145 100.5 239.5t272.5 94.5q179 0 376 -123l-143 -225q-142 88 -223 88 q-30 0 -52 -16.5t-22 -43.5q0 -14 3 -25.5t11.5 -22t14 -17.5t22 -17t24 -14.5t30 -16.5t30.5 -16q46 -28 81.5 -56t72.5 -69t57.5 -94.5t20.5 -114.5q0 -142 -99 -240t-276 -98q-205 0 -418 148zM111 -543l116 168h-86l45 262h203l-43 -290l-196 -218z" />
<glyph unicode="&#x21a;" horiz-adv-x="905" d="M119 1139l53 295h850l-53 -295h-267l-200 -1139h-312l201 1139h-272zM152 -543l116 168h-86l45 262h203l-43 -290l-197 -218z" />
<glyph unicode="&#x21b;" horiz-adv-x="684" d="M2 -543l117 168h-86l45 262h203l-43 -290l-197 -218zM76 829l43 246h100l43 242l311 69l-55 -311h197l-43 -246h-197l-80 -460q-18 -99 29 -99q9 0 18.5 2t22 7t19 8t23 11.5t21.5 10.5l58 -256q-170 -76 -295 -76q-267 0 -193 412l78 440h-100z" />
<glyph unicode="&#x2b0;" horiz-adv-x="649" d="M104 788l158 895h199l-58 -319q98 84 183 84q145 0 106 -207l-78 -453h-200l71 404q9 31 7 57.5t-23 26.5t-46.5 -19t-45.5 -47l-74 -422h-199z" />
<glyph unicode="&#x2b2;" horiz-adv-x="573" d="M109 670q77 34 97.5 57.5t31.5 83.5l108 623h199l-107 -605q-7 -38 -11 -58t-11 -49.5t-14.5 -44.5t-19 -37t-25.5 -34.5t-34 -28.5t-45.5 -27t-58 -23t-72.5 -23zM354 1505l31 176h205l-31 -176h-205z" />
<glyph unicode="&#x2b7;" horiz-adv-x="690" d="M100 1434h209l-16 -338l127 338h133l4 -340l105 340h210l-258 -646h-174l-8 345l-133 -345h-174z" />
<glyph unicode="&#x2b8;" horiz-adv-x="632" d="M113 672q91 43 135 82l-64 680h205l-2 -398l141 398h209l-286 -646q-18 -41 -32 -69t-39.5 -65t-54 -62.5t-71.5 -49.5t-96 -38z" />
<glyph unicode="&#x2c6;" horiz-adv-x="446" d="M141 1206l209 287h268l103 -287h-184l-68 144l-117 -144h-211z" />
<glyph unicode="&#x2c7;" horiz-adv-x="448" d="M195 1493h186l70 -145l114 145h209l-207 -287h-268z" />
<glyph unicode="&#x2d8;" horiz-adv-x="421" d="M207 1468h174q-6 -39 10.5 -61.5t50.5 -22.5q50 0 80.5 22t34.5 62h176q-23 -124 -102 -193t-201 -69q-127 0 -185.5 72.5t-37.5 189.5z" />
<glyph unicode="&#x2d9;" horiz-adv-x="169" d="M182 1227l47 262h230l-47 -262h-230z" />
<glyph unicode="&#x2da;" horiz-adv-x="399" d="M141 1393q0 85 60 145.5t147 60.5q85 0 146 -60.5t61 -145.5q0 -87 -61 -147t-146 -60q-88 0 -147.5 59.5t-59.5 147.5zM279 1393q0 -29 20 -48.5t49 -19.5q28 0 48 19.5t20 48.5q0 28 -20 47.5t-48 19.5q-29 0 -49 -19.5t-20 -47.5z" />
<glyph unicode="&#x2db;" horiz-adv-x="247" d="M-100 -248q0 45 17 85t49.5 73.5t67.5 59t83 53.5l131 -21q-3 -3 -28.5 -25.5t-33 -29.5t-28.5 -27.5t-29 -32t-20 -29.5t-16.5 -33.5t-4.5 -31.5q0 -15 5.5 -25t12 -15.5t19.5 -8t19 -3t20 0.5h14l-53 -148h-15h-24t-26.5 1.5t-30.5 4t-30.5 8t-30.5 13.5t-26 20 t-22.5 27.5t-14 37t-5.5 46.5z" />
<glyph unicode="&#x2dc;" horiz-adv-x="448" d="M158 1303q28 51 46.5 80.5t46 61.5t57.5 47t65 15q33 0 70 -24.5t68 -49t50 -24.5q38 0 94 98l111 -90q-2 -4 -7 -12q-31 -53 -47.5 -78t-44 -57.5t-56.5 -46t-64 -13.5q-33 0 -69.5 25t-67 49.5t-48.5 24.5q-37 0 -96 -97z" />
<glyph unicode="&#x2dd;" horiz-adv-x="528" d="M147 1206l166 287h246l-237 -287h-175zM438 1206l168 287h246l-240 -287h-174z" />
<glyph unicode="&#x2e3;" horiz-adv-x="641" d="M55 788l232 324l-105 322h211l31 -189l98 189h228l-222 -318l115 -328h-217l-33 197l-98 -197h-240z" />
<glyph unicode="&#x3c0;" horiz-adv-x="878" d="M35 0l139 788h-106l49 287h811l-49 -287h-111l-139 -788h-246l139 788h-102l-139 -788h-246z" />
<glyph unicode="&#x1e80;" horiz-adv-x="1460" d="M166 1434h346l-39 -820l277 820h231l-10 -809l246 809h358l-528 -1434h-291l10 860l-293 -860h-285zM631 1802h299l127 -286h-230z" />
<glyph unicode="&#x1e81;" horiz-adv-x="1269" d="M106 1075h316l-29 -600l219 600h201l6 -600l182 600h320l-414 -1075h-264l-12 602l-223 -602h-267zM483 1493h299l127 -287h-229z" />
<glyph unicode="&#x1e82;" horiz-adv-x="1460" d="M166 1434h346l-39 -820l277 820h231l-10 -809l246 809h358l-528 -1434h-291l10 860l-293 -860h-285zM696 1516l230 286h327l-299 -286h-258z" />
<glyph unicode="&#x1e83;" horiz-adv-x="1269" d="M106 1075h316l-29 -600l219 600h201l6 -600l182 600h320l-414 -1075h-264l-12 602l-223 -602h-267zM549 1206l229 287h328l-299 -287h-258z" />
<glyph unicode="&#x1e84;" horiz-adv-x="1460" d="M166 1434h346l-39 -820l277 820h231l-10 -809l246 809h358l-528 -1434h-291l10 860l-293 -860h-285zM641 1530l43 250h215l-43 -250h-215zM926 1530l43 250h215l-43 -250h-215z" />
<glyph unicode="&#x1e85;" horiz-adv-x="1269" d="M106 1075h316l-29 -600l219 600h201l6 -600l182 600h320l-414 -1075h-264l-12 602l-223 -602h-267zM494 1227l43 250h215l-43 -250h-215zM778 1227l43 250h215l-43 -250h-215z" />
<glyph unicode="&#x1e9e;" horiz-adv-x="1269" d="M2 0l160 907q17 96 42 172.5t67 144.5t98 113t137.5 71t183.5 26h561l-41 -230l-270 -342q119 -48 187.5 -148t68.5 -237q0 -94 -32 -183t-90.5 -160t-152 -114t-206.5 -43q-174 0 -324 99l158 246q29 -22 72 -39t84 -17q69 0 117 55t48 136q0 170 -225 170h-76l39 217 l232 295h-154q-94 0 -145 -65.5t-80 -231.5l-148 -842h-311z" />
<glyph unicode="&#x1ef2;" horiz-adv-x="1019" d="M150 1434h333l68 -521l248 521h352l-496 -859l-100 -575h-309l98 575zM412 1802h299l127 -286h-230z" />
<glyph unicode="&#x1ef3;" horiz-adv-x="903" d="M-27 -211q141 67 222 148l-99 1138h307v-696l242 696h316l-459 -1075q-23 -53 -37.5 -84t-41 -78.5t-49 -78t-58 -68.5t-74 -64t-90 -50.5t-111.5 -41.5zM297 1493h299l127 -287h-229z" />
<glyph unicode="&#x2000;" horiz-adv-x="954" />
<glyph unicode="&#x2001;" horiz-adv-x="1909" />
<glyph unicode="&#x2002;" horiz-adv-x="954" />
<glyph unicode="&#x2003;" horiz-adv-x="1909" />
<glyph unicode="&#x2004;" horiz-adv-x="636" />
<glyph unicode="&#x2005;" horiz-adv-x="477" />
<glyph unicode="&#x2006;" horiz-adv-x="318" />
<glyph unicode="&#x2007;" horiz-adv-x="318" />
<glyph unicode="&#x2008;" horiz-adv-x="238" />
<glyph unicode="&#x2009;" horiz-adv-x="381" />
<glyph unicode="&#x200a;" horiz-adv-x="106" />
<glyph unicode="&#x2010;" horiz-adv-x="681" d="M61 449l48 268h497l-47 -268h-498z" />
<glyph unicode="&#x2011;" horiz-adv-x="681" d="M61 449l48 268h497l-47 -268h-498z" />
<glyph unicode="&#x2012;" horiz-adv-x="681" d="M61 449l48 268h497l-47 -268h-498z" />
<glyph unicode="&#x2013;" horiz-adv-x="858" d="M61 451l48 264h673l-45 -264h-676z" />
<glyph unicode="&#x2014;" horiz-adv-x="1007" d="M59 451l47 264h830l-47 -264h-830z" />
<glyph unicode="&#x2018;" horiz-adv-x="460" d="M115 764l57 412l287 297l55 -109l-172 -234h129l-63 -366h-293z" />
<glyph unicode="&#x2019;" horiz-adv-x="448" d="M113 831l172 234h-129l63 367h293l-57 -412l-287 -297z" />
<glyph unicode="&#x201a;" horiz-adv-x="477" d="M-63 -233l172 233h-129l63 367h293l-57 -412l-287 -297z" />
<glyph unicode="&#x201c;" horiz-adv-x="841" d="M115 764l57 412l287 297l55 -109l-172 -234h129l-63 -366h-293zM494 764l57 412l287 297l55 -109l-172 -234h129l-64 -366h-292z" />
<glyph unicode="&#x201d;" horiz-adv-x="827" d="M113 831l172 234h-129l63 367h293l-57 -412l-287 -297zM492 831l172 234h-129l63 367h293l-57 -412l-287 -297z" />
<glyph unicode="&#x201e;" horiz-adv-x="856" d="M-63 -233l172 233h-129l63 367h293l-57 -412l-287 -297zM315 -233l172 233h-129l64 367h293l-58 -412l-286 -297z" />
<glyph unicode="&#x2020;" horiz-adv-x="905" d="M66 748l47 268l293 -31l79 449h222l-80 -449l309 31l-49 -268l-297 30l-209 -1196h-221l209 1196z" />
<glyph unicode="&#x2021;" horiz-adv-x="942" d="M-10 211l47 268l293 -30l57 329l-303 -30l47 268l293 -31l80 449h223l-80 -447l307 29l-49 -268l-295 30l-57 -327l305 28l-47 -268l-295 31l-117 -660h-221l115 660z" />
<glyph unicode="&#x2022;" horiz-adv-x="868" d="M113 584q0 131 92 224t223 93q130 0 222.5 -93t92.5 -224q0 -130 -92 -222t-223 -92q-132 0 -223.5 91.5t-91.5 222.5z" />
<glyph unicode="&#x2026;" horiz-adv-x="1277" d="M-18 0l65 367h293l-66 -367h-292zM385 0l66 367h292l-65 -367h-293zM788 0l66 367h293l-66 -367h-293z" />
<glyph unicode="&#x202f;" horiz-adv-x="381" />
<glyph unicode="&#x2030;" horiz-adv-x="2152" d="M119 977q0 51 7 106.5t29 124.5t56 122t94.5 89.5t138.5 36.5q34 0 67.5 -6.5t72 -26.5t67.5 -50.5t48.5 -83.5t19.5 -122q0 -40 -5.5 -85.5t-18 -102t-36.5 -106t-58 -92.5t-86.5 -68t-117.5 -25q-35 0 -69 6.5t-73 26.5t-68 50.5t-48.5 83.5t-19.5 122zM281 0l749 1434 h225l-751 -1434h-223zM330 963q0 -46 17.5 -70.5t47.5 -24.5t54 36.5t36.5 90.5t18.5 102.5t6 84.5q0 47 -17.5 71.5t-48.5 24.5q-29 0 -52.5 -37t-36 -90.5t-19 -103t-6.5 -84.5zM819 266q0 41 5.5 86.5t18 102t37 106t58.5 92t87 67.5t118 25q34 0 68 -6.5t73 -26 t67.5 -50t48 -83.5t19.5 -122q0 -50 -7 -105.5t-29 -124.5t-55.5 -122.5t-94 -90.5t-137.5 -37q-34 0 -68 6.5t-73 26.5t-68 50.5t-48.5 83.5t-19.5 122zM1030 252q0 -94 66 -94q29 0 52.5 36.5t36 90t19 102.5t6.5 84q0 46 -17.5 71t-47.5 25t-54 -37t-36.5 -90.5 t-18.5 -102.5t-6 -85zM1462 266q0 41 5.5 86.5t18 102t37 106t58.5 92t87 67.5t118 25q34 0 68 -6.5t73 -26t67.5 -50t48 -83.5t19.5 -122q0 -50 -7 -105.5t-29 -124.5t-55.5 -122.5t-94 -90.5t-137.5 -37q-34 0 -68 6.5t-73 26.5t-68 50.5t-48.5 83.5t-19.5 122zM1673 252 q0 -94 66 -94q29 0 52.5 36.5t36 90t19 102.5t6.5 84q0 46 -17.5 71t-47.5 25t-54 -37t-36.5 -90.5t-18.5 -102.5t-6 -85z" />
<glyph unicode="&#x2039;" horiz-adv-x="555" d="M16 449l35 200l502 430l-68 -377l-223 -167l164 -166l-59 -349z" />
<glyph unicode="&#x203a;" horiz-adv-x="555" d="M-20 20l67 377l223 168l-164 166l60 348l350 -428l-35 -200z" />
<glyph unicode="&#x2044;" horiz-adv-x="337" d="M-276 0l706 1434h219l-704 -1434h-221z" />
<glyph unicode="&#x205f;" horiz-adv-x="477" />
<glyph unicode="&#x2070;" horiz-adv-x="696" d="M152 1065q0 22 2 55t10 93t21 116.5t39.5 119t61.5 108.5t89.5 76t120.5 30q61 0 108 -18t75 -46t46 -68t24.5 -78.5t6.5 -82.5q0 -23 -1.5 -55t-9.5 -92.5t-21 -116.5t-39.5 -118.5t-61 -108t-89 -75.5t-120.5 -30q-76 0 -130 26t-81.5 70.5t-39 92t-11.5 102.5z M350 1036q0 -44 14 -65t48 -21q35 0 65 63t46.5 146t26 150t9.5 90q0 46 -13.5 67t-47.5 21q-45 0 -81.5 -107t-51.5 -207t-15 -137z" />
<glyph unicode="&#x2074;" horiz-adv-x="700" d="M88 940l29 158l356 551h275l-93 -519h93l-35 -190h-90l-27 -152h-205l27 152h-330zM307 1130h144l55 306z" />
<glyph unicode="&#x2075;" horiz-adv-x="634" d="M90 909l119 144q80 -80 137 -80q44 0 74.5 34t30.5 87q0 35 -16.5 58.5t-53.5 23.5q-46 0 -105 -46l-100 72l113 447h448l-32 -191h-275l-18 -100q32 4 51 4q99 0 150 -68t51 -172q0 -89 -34 -166.5t-105.5 -129.5t-166.5 -52q-155 0 -268 135z" />
<glyph unicode="&#x2076;" horiz-adv-x="684" d="M143 1085q0 104 34 206.5t94.5 185.5t153.5 134.5t200 51.5q44 0 82.5 -8.5t54.5 -17.5l16 -9l-88 -164q-28 11 -63 11q-79 0 -137.5 -48t-94.5 -127q50 46 115 46q87 0 136.5 -65t49.5 -165q0 -88 -33 -165t-100 -127t-153 -50q-127 0 -197 89.5t-70 221.5zM350 1077 q0 -114 62 -114q36 0 55.5 40.5t19.5 94.5q0 82 -61 82q-47 0 -74 -56q-2 -16 -2 -47z" />
<glyph unicode="&#x2077;" horiz-adv-x="546" d="M121 788q20 113 68.5 233.5t104.5 213.5t92.5 145.5t57.5 77.5h-254l35 191h477l-32 -179q-11 -14 -30 -38.5t-70 -101t-93 -153.5t-84 -184.5t-59 -204.5h-213z" />
<glyph unicode="&#x2078;" horiz-adv-x="671" d="M119 989q0 167 186 271q-67 67 -67 159q0 104 74.5 174t197.5 70q110 0 165.5 -54.5t55.5 -142.5q0 -129 -137 -215q102 -83 102 -204q0 -119 -85.5 -196t-237.5 -77q-127 0 -190.5 58.5t-63.5 156.5zM328 1018q0 -72 65 -72q43 0 71 31t28 76q0 63 -58 110 q-106 -64 -106 -145zM424 1417q0 -47 41 -80q76 48 76 107q0 51 -45 51q-34 0 -53 -24t-19 -54z" />
<glyph unicode="&#x2079;" horiz-adv-x="681" d="M117 807l88 166q28 -10 63 -10q76 0 134 46t94 124q-43 -43 -111 -43q-87 0 -136.5 65.5t-49.5 165.5q0 137 78 239.5t208 102.5q127 0 196 -89t69 -222q0 -106 -34 -208.5t-94.5 -185t-153 -133.5t-200.5 -51q-44 0 -81.5 8t-53.5 16zM408 1337q0 -34 14 -57t45 -23 q24 0 45.5 16.5t30.5 39.5q2 16 2 47q0 115 -64 115q-35 0 -54 -41t-19 -97z" />
<glyph unicode="&#x207a;" horiz-adv-x="552" d="M125 1124l29 150h163l35 192h148l-35 -192h170l-27 -150h-170l-32 -192h-148l33 192h-166z" />
<glyph unicode="&#x207d;" horiz-adv-x="397" d="M112.5 794q1.5 63 18.5 156l98 555q6 34 9 49.5t9.5 43t12 40t15 34t20 32.5t26.5 27.5t35 26t44 21.5t56 21.5t68 18.5l29 -127q-61 -29 -80.5 -57t-30.5 -89l-118 -676q-14 -58 -5 -88t58 -59l-64 -111q-111 32 -156.5 75.5t-44 106.5z" />
<glyph unicode="&#x207e;" horiz-adv-x="395" d="M55 739q61 29 80.5 57t30.5 89l119 676q13 58 4.5 88t-58.5 59l64 111q111 -32 156.5 -75.5t44 -106.5t-18.5 -156l-98 -555q-6 -34 -9 -49.5t-9.5 -43t-12 -40t-15 -34t-20 -32.5t-26.5 -27.5t-35 -26t-44 -21.5t-56 -21.5t-68 -18.5z" />
<glyph unicode="&#x207f;" horiz-adv-x="649" d="M104 788l115 646h199l-12 -66q98 80 180 80q145 0 106 -207l-78 -453h-198l71 406q8 29 5.5 55.5t-25.5 26.5q-41 0 -88 -62l-76 -426h-199z" />
<glyph unicode="&#x2080;" horiz-adv-x="698" d="M-41 -31q0 22 2 55t10 93t21 116.5t39.5 119t61.5 108.5t89.5 76t120.5 30q61 0 108 -18t75 -46t46 -68t24.5 -78.5t6.5 -82.5q0 -23 -1.5 -55t-9.5 -92.5t-21 -116.5t-39.5 -118.5t-61 -108t-89 -75.5t-120.5 -30q-76 0 -130 26t-81.5 70.5t-39 92t-11.5 102.5zM158 -59 q0 -45 13.5 -65.5t47.5 -20.5q35 0 65 62.5t47 145.5t26.5 150t9.5 90q0 46 -14 67t-48 21q-35 0 -65 -63t-46.5 -146t-26 -150.5t-9.5 -90.5z" />
<glyph unicode="&#x2081;" horiz-adv-x="538" d="M-27 412l215 141h199l-154 -860h-204l114 637l-92 -56z" />
<glyph unicode="&#x2082;" horiz-adv-x="632" d="M-121 -307l17 94q10 58 36 112t63.5 99.5t70.5 77t75 65.5q31 25 40.5 32.5t37 30.5t38.5 35.5t27 30.5t22.5 32.5t6.5 27.5q2 20 -10.5 32.5t-38.5 12.5q-52 0 -162 -74l-79 154q144 112 290 112q106 0 159.5 -58.5t53.5 -143.5q0 -48 -19 -96.5t-41 -82t-60.5 -72 t-55.5 -53t-47 -38.5q-126 -97 -135 -140h274l-30 -190h-533z" />
<glyph unicode="&#x2083;" horiz-adv-x="632" d="M-115 -190l119 139q99 -76 154 -76q39 0 66.5 26.5t27.5 63.5q0 25 -13.5 43.5t-35.5 27t-43 12t-43 3.5h-23l35 189h27q45 0 91 23t46 67q0 45 -49 45q-55 0 -154 -64l-70 150q157 108 289 108q97 0 148 -52t51 -132q0 -131 -146 -217q99 -69 99 -186 q0 -51 -17.5 -102.5t-51.5 -97t-91.5 -74t-130.5 -28.5q-153 0 -285 132z" />
<glyph unicode="&#x2084;" horiz-adv-x="700" d="M-106 -156l28 158l357 551h274l-92 -518h92l-35 -191h-90l-27 -151h-204l26 151h-329zM113 35h143l55 305z" />
<glyph unicode="&#x2085;" horiz-adv-x="632" d="M-104 -186l118 143q80 -80 138 -80q44 0 74 34t30 87q0 35 -16.5 58.5t-53.5 23.5q-47 0 -104 -45l-100 71l112 447h449l-33 -191h-274l-19 -100q32 4 51 4q99 0 150 -67.5t51 -171.5q0 -66 -20 -127.5t-57.5 -111.5t-96.5 -80t-131 -30q-154 0 -268 136z" />
<glyph unicode="&#x2086;" horiz-adv-x="684" d="M-49 -10q0 104 34 206.5t94.5 185.5t153 134t199.5 51q44 0 82.5 -8.5t55.5 -17.5l16 -9l-88 -163q-29 10 -64 10q-151 0 -231 -174q49 45 114 45q87 0 137 -65t50 -165q0 -88 -33.5 -165t-100.5 -127t-153 -50q-127 0 -196.5 89.5t-69.5 222.5zM158 -18q0 -115 61 -115 q36 0 56 40.5t20 94.5q0 35 -14.5 58.5t-47.5 23.5q-46 0 -73 -55q-2 -16 -2 -47z" />
<glyph unicode="&#x2087;" horiz-adv-x="542" d="M-74 -307q20 113 68.5 233.5t105 213t92.5 144.5t58 78h-254l35 191h477l-33 -178q-11 -14 -30 -38.5t-70 -101t-93 -153.5t-84 -184.5t-59 -204.5h-213z" />
<glyph unicode="&#x2088;" horiz-adv-x="669" d="M-76 -106q0 166 187 270q-68 68 -68 160q0 104 74.5 173.5t197.5 69.5q111 0 166.5 -54t55.5 -142q0 -129 -138 -215q103 -84 103 -205q0 -118 -86 -195.5t-238 -77.5q-127 0 -190.5 59t-63.5 157zM133 -78q0 -34 17 -53t49 -19q43 0 70.5 31t27.5 76q0 64 -57 111 q-107 -65 -107 -146zM229 322q0 -47 41 -80q76 48 76 106q0 51 -45 51q-34 0 -53 -23.5t-19 -53.5z" />
<glyph unicode="&#x2089;" horiz-adv-x="681" d="M-76 -289l88 166q29 -10 64 -10q76 0 133.5 46t93.5 124q-43 -43 -110 -43q-87 0 -137 65.5t-50 165.5q0 137 78.5 239.5t208.5 102.5q127 0 195.5 -89t68.5 -222q0 -106 -34 -208.5t-94 -185t-152.5 -133.5t-200.5 -51q-44 0 -82 8t-54 16zM215 242q0 -34 14 -57t45 -23 q24 0 45.5 16t30.5 39q2 16 2 47q0 115 -63 115q-35 0 -54.5 -41t-19.5 -96z" />
<glyph unicode="&#x208a;" horiz-adv-x="555" d="M-68 29l29 149h164l35 193h147l-35 -193h170l-26 -149h-170l-33 -193h-147l32 193h-166z" />
<glyph unicode="&#x208d;" horiz-adv-x="399" d="M-79.5 -301q1.5 63 18.5 156l98 555q6 34 9 49.5t9.5 43t12 40t15 34t20 32t26.5 27t35 26t44 21.5t56 21.5t68 18.5l28 -127q-61 -29 -80 -56t-30 -89l-119 -676q-14 -58 -5 -88.5t58 -59.5l-63 -110q-111 32 -156.5 75.5t-44 106.5z" />
<glyph unicode="&#x208e;" horiz-adv-x="395" d="M-139 -356q61 29 80 56t30 89l119 676q14 58 5 88t-58 59l63 111q111 -32 156.5 -75.5t44.5 -106.5t-18 -156l-99 -555q-6 -34 -9 -49.5t-9.5 -43t-12 -40t-15 -34t-20 -32t-26.5 -27t-35 -26t-44 -21.5t-56 -21.5t-68 -18.5z" />
<glyph unicode="&#x20a1;" horiz-adv-x="866" d="M82 549q0 141 24.5 262t66 205.5t96 144.5t115 88.5t122.5 28.5q19 0 51 -4l53 160h115l-61 -183l36 -14l66 197h115l-84 -248q19 -11 50.5 -30.5t37.5 -22.5l-146 -230q-7 4 -52.5 32.5t-74.5 42t-51 13.5q-52 0 -94 -59.5t-63 -150.5t-21 -191q0 -146 86 -146 q15 0 41 9.5t48 20.5t57.5 29.5t52.5 26.5l82 -254q-180 -90 -291 -110l-53 -166h-117l53 160l-41 6l-55 -166h-115l72 217q-121 100 -121 332z" />
<glyph unicode="&#x20a4;" horiz-adv-x="907" d="M-23 0l41 233q5 3 13.5 8t32.5 23t46 39t48.5 56t44.5 73h-133l28 162h144q2 8 2 27t-4 59h-127l30 164h68q-18 99 -18 186q0 198 91.5 312t258.5 114q216 0 418 -192l-164 -203q-125 106 -191 106q-50 0 -79 -42.5t-29 -110.5q0 -52 24 -170h264l-30 -164h-213v-8 q0 -40 -6 -78h204l-28 -162h-217q-39 -97 -88 -143h370l-49 -289h-752z" />
<glyph unicode="&#x20a7;" horiz-adv-x="1101" d="M27 0l157 895h-39l23 131h39l72 408h372q106 0 186 -21.5t127.5 -55.5t76.5 -84.5t39 -100.5t10 -111q0 -11 -3 -35h39l-22 -131h-33q-45 -192 -195.5 -297.5t-396.5 -105.5h-55l-86 -492h-311zM475 778h57q156 0 213 117h-249zM518 1026h252q-4 64 -44 91.5t-118 27.5 h-69z" />
<glyph unicode="&#x20a9;" horiz-adv-x="1564" d="M47 489l35 195h145l-2 156h-116l34 194h80l-6 400h346l-20 -400h123l135 400h231l-6 -400h121l121 400h358l-147 -400h90l-35 -194h-127l-57 -156h155l-32 -195h-195l-180 -489h-291l10 860l-293 -860h-284l-9 489h-184zM524 614l76 226h-65zM1022 625l65 215h-63z" />
<glyph unicode="&#x20ac;" horiz-adv-x="1095" d="M41 479l31 174h75q1 27 15 115h-70l31 174h76q29 106 71 193.5t101 162t141.5 116.5t179.5 42q61 0 121.5 -15.5t122 -48.5t101.5 -58.5t102 -69.5l-168 -246q-170 125 -256 125q-108 0 -183 -201h254l-30 -174h-273q-12 -57 -18 -115h270l-30 -174h-250q6 -188 120 -188 q45 0 107 28t164 87l110 -269q-150 -79 -255 -119.5t-201 -40.5q-94 0 -164 38t-112 107.5t-62.5 158t-22.5 198.5h-98z" />
<glyph unicode="&#x2116;" horiz-adv-x="1845" d="M16 0l252 1434h314l151 -822l146 822h311l-252 -1434h-315l-152 819l-143 -819h-312zM1116 283l35 192h541l-35 -192h-541zM1165 887q0 31 3.5 69t14 90.5t27 101.5t46 98.5t67.5 86t94 59.5t123 23q39 0 77 -6.5t84 -28.5t79.5 -56.5t56.5 -96t23 -142.5 q0 -31 -3.5 -68.5t-14 -90.5t-27 -102t-45.5 -98.5t-67 -86t-94.5 -59.5t-123.5 -23q-39 0 -77 6.5t-84 28.5t-79.5 56.5t-56.5 96t-23 142.5zM1425 858q0 -78 58 -78q40 0 69 71.5t39.5 144t10.5 120.5q0 76 -60 76q-40 0 -68.5 -71.5t-38.5 -143t-10 -119.5z" />
<glyph unicode="&#x2117;" horiz-adv-x="1585" d="M80 641q0 131 32.5 251.5t98 223t158 178.5t219 119t274.5 43q206 0 360.5 -84.5t235 -234.5t80.5 -344q0 -131 -32.5 -251.5t-98.5 -223.5t-158 -179t-219.5 -119t-275.5 -43q-309 0 -491.5 184t-182.5 480zM160 643q0 -171 70 -303.5t208 -209.5t324 -77q161 0 294 59 t220.5 160t135.5 234.5t48 284.5q0 261 -161.5 424t-442.5 163q-160 0 -293 -58.5t-220 -159t-135 -233.5t-48 -284zM508 285l151 862h285q117 0 185.5 -56.5t68.5 -168.5q0 -148 -95 -224.5t-253 -76.5h-186l-58 -336h-98zM680 707h188q98 0 166 58t68 157q0 74 -46 107.5 t-124 33.5h-191z" />
<glyph unicode="&#x2120;" horiz-adv-x="1040" d="M145 1026l70 94q67 -47 127 -47q16 0 30.5 7.5t14.5 21.5q0 3 -1 6t-3 6t-4 5t-6 5t-7.5 5t-10 5.5t-11.5 6t-13.5 7t-15.5 7.5q-54 27 -84 59.5t-30 81.5q0 60 46 103t126 43q93 0 184 -51l-65 -86q-62 30 -109 30q-45 0 -45 -28q0 -5 1.5 -9t6 -8.5t8 -7t11.5 -7 t12.5 -7t15.5 -7.5t17 -8q24 -12 40 -22t35 -27t29 -39.5t10 -50.5q0 -61 -45.5 -105t-130.5 -44q-54 0 -111.5 18.5t-91.5 42.5zM535 975l81 459h125l47 -236l134 236h125l-82 -459h-123l41 235l-88 -159h-64l-35 143l-39 -219h-122z" />
<glyph unicode="&#x2122;" horiz-adv-x="991" d="M215 1317l21 117h329l-22 -117h-103l-61 -342h-121l61 342h-104zM522 975l82 459h123l47 -238l135 238h123l-82 -459h-121l41 235l-88 -159h-63l-33 161l-43 -237h-121z" />
<glyph unicode="&#x2126;" horiz-adv-x="1187" d="M0 0l49 289h156q-56 46 -85.5 141.5t-29.5 196.5q0 49 7.5 112.5t27.5 144t49.5 158.5t78 154t108 133t145 92t184.5 35q229 0 348 -132t119 -378q0 -139 -38 -281.5t-98.5 -244.5t-125.5 -131h129l-51 -289h-455l53 299q58 8 105 64t75.5 133t48 168t27 163t7.5 123 q0 95 -39 151t-121 56q-68 0 -121 -60.5t-81.5 -144t-47 -183t-24 -163.5t-5.5 -100q0 -86 26 -135t87 -72l-51 -299h-457z" />
<glyph unicode="&#x2153;" horiz-adv-x="1415" d="M154 1292l215 142h198l-153 -861h-205l115 637l-93 -55zM203 0l706 1434h219l-704 -1434h-221zM717 117l119 139q99 -76 153 -76q39 0 66.5 26.5t27.5 63.5q0 25 -13.5 43.5t-35.5 27t-43 12t-43 3.5h-22l35 189h26q45 0 91 23t46 67q0 45 -49 45q-54 0 -153 -64l-70 150 q157 108 289 108q97 0 147.5 -52t50.5 -132q0 -132 -145 -217q98 -68 98 -186q0 -51 -17.5 -102.5t-51.5 -97t-91.5 -73.5t-130.5 -28q-153 0 -284 131z" />
<glyph unicode="&#x2154;" horiz-adv-x="1570" d="M53 573l17 95q10 58 36 112t63.5 99.5t70.5 77t75 65.5q109 88 141 125q30 37 31 63q2 20 -10.5 32.5t-38.5 12.5q-54 0 -162 -73l-79 153q145 113 290 113q106 0 159.5 -58.5t53.5 -144.5q0 -48 -19 -96.5t-41 -82t-60.5 -72t-55.5 -53t-47 -38.5q-126 -97 -135 -139 h274l-30 -191h-533zM371 0l706 1434h219l-704 -1434h-221zM881 117l118 139q99 -76 154 -76q39 0 66.5 26.5t27.5 63.5q0 25 -13.5 43.5t-35.5 27t-43 12t-43 3.5h-22l34 189h27q45 0 91 23t46 67q0 45 -49 45q-55 0 -154 -64l-69 150q157 108 289 108q97 0 147.5 -52 t50.5 -132q0 -132 -145 -217q98 -68 98 -186q0 -51 -17.5 -102.5t-51.5 -97t-91.5 -73.5t-130.5 -28q-153 0 -284 131z" />
<glyph unicode="&#x2155;" horiz-adv-x="1435" d="M154 1292l215 142h198l-153 -861h-205l115 637l-93 -55zM203 0l706 1434h219l-704 -1434h-221zM733 121l119 143q80 -80 137 -80q44 0 74.5 34t30.5 87q0 35 -16.5 58.5t-53.5 23.5q-47 0 -104 -45l-101 72l113 446h448l-32 -190h-275l-18 -101q32 4 51 4q99 0 150 -67.5 t51 -171.5q0 -89 -34 -166.5t-105.5 -129.5t-166.5 -52q-155 0 -268 135z" />
<glyph unicode="&#x2156;" horiz-adv-x="1583" d="M49 573l17 95q10 58 36 112t63.5 99.5t70.5 77t75 65.5q109 88 141 125q30 37 31 63q2 20 -10.5 32.5t-38.5 12.5q-54 0 -162 -73l-79 153q145 113 290 113q106 0 159.5 -58.5t53.5 -144.5q0 -48 -19 -96.5t-41 -82t-60.5 -72t-55.5 -53t-47 -38.5q-126 -97 -135 -139 h274l-30 -191h-533zM367 0l706 1434h219l-704 -1434h-221zM891 121l119 143q80 -80 137 -80q44 0 74 34t30 87q0 82 -69 82q-48 0 -105 -45l-100 72l113 446h448l-33 -190h-274l-19 -101q32 4 52 4q99 0 149.5 -67.5t50.5 -171.5q0 -89 -33.5 -166.5t-105 -129.5t-166.5 -52 q-155 0 -268 135z" />
<glyph unicode="&#x2157;" horiz-adv-x="1552" d="M61 690l119 139q97 -75 154 -75q39 0 66.5 26.5t27.5 63.5q0 25 -13.5 43.5t-35.5 27t-43 12t-43 3.5h-23l35 188h27q45 0 91 23t46 67q0 45 -49 45q-56 0 -154 -63l-69 149q158 109 288 109q97 0 148 -52t51 -132q0 -132 -145 -217q98 -68 98 -187q0 -51 -17.5 -102.5 t-51.5 -97t-91.5 -73.5t-130.5 -28q-154 0 -285 131zM328 0l706 1434h219l-704 -1434h-221zM858 121l119 143q80 -80 137 -80q44 0 74.5 34t30.5 87q0 35 -16.5 58.5t-53.5 23.5q-48 0 -105 -45l-100 72l113 446h448l-32 -190h-275l-18 -101q32 4 51 4q99 0 150 -67.5 t51 -171.5q0 -89 -34 -166.5t-105.5 -129.5t-166.5 -52q-155 0 -268 135z" />
<glyph unicode="&#x2158;" horiz-adv-x="1619" d="M61 725l29 158l356 551h275l-92 -519h92l-35 -190h-90l-27 -152h-204l26 152h-330zM281 915h143l55 306zM397 0l707 1434h219l-705 -1434h-221zM924 121l118 143q80 -80 138 -80q44 0 74 34t30 87q0 35 -16.5 58.5t-53.5 23.5q-47 0 -104 -45l-100 72l112 446h449 l-33 -190h-274l-19 -101q32 4 51 4q99 0 150 -67.5t51 -171.5q0 -89 -33.5 -166.5t-105 -129.5t-166.5 -52q-155 0 -268 135z" />
<glyph unicode="&#x2159;" horiz-adv-x="1411" d="M154 1292l215 142h198l-153 -861h-205l115 637l-93 -55zM203 0l706 1434h219l-704 -1434h-221zM739 297q0 83 21 166t63.5 156.5t99.5 130.5t134.5 90.5t163.5 33.5q44 0 82.5 -8.5t54.5 -17.5l16 -8l-88 -164q-28 10 -63 10q-79 0 -137.5 -47.5t-94.5 -126.5 q49 45 115 45q87 0 136.5 -64.5t49.5 -164.5q0 -88 -33 -165t-100 -127t-153 -50q-127 0 -197 89.5t-70 221.5zM946 289q0 -115 62 -115q36 0 55.5 40.5t19.5 94.5q0 82 -61 82q-47 0 -74 -55q-2 -16 -2 -47z" />
<glyph unicode="&#x215a;" horiz-adv-x="1507" d="M61 694l119 144q80 -80 137 -80q44 0 74.5 34t30.5 87q0 35 -16.5 58.5t-53.5 23.5q-45 0 -104 -46l-101 72l113 447h449l-33 -191h-275l-18 -100q32 4 51 4q99 0 150 -68t51 -172q0 -89 -33.5 -166.5t-105 -129.5t-166.5 -52q-156 0 -269 135zM309 0l707 1434h219 l-705 -1434h-221zM842 297q0 104 34 206.5t94.5 185.5t153 134t199.5 51q44 0 82.5 -8.5t54.5 -17.5l17 -8l-88 -164q-29 10 -64 10q-151 0 -231 -174q49 45 114 45q87 0 137 -64.5t50 -164.5q0 -88 -33.5 -165t-100.5 -127t-153 -50q-127 0 -196.5 89.5t-69.5 221.5z M1049 289q0 -115 61 -115q36 0 56 40.5t20 94.5q0 35 -14.5 58.5t-47.5 23.5q-46 0 -73 -55q-2 -16 -2 -47z" />
<glyph unicode="&#x215b;" horiz-adv-x="1423" d="M154 1292l215 142h198l-153 -861h-205l115 637l-93 -55zM203 0l706 1434h219l-704 -1434h-221zM725 201q0 166 186 270q-67 67 -67 160q0 104 74.5 173.5t197.5 69.5q110 0 165.5 -54t55.5 -142q0 -129 -137 -215q103 -84 103 -205q0 -118 -86 -195t-238 -77 q-127 0 -190.5 58.5t-63.5 156.5zM934 229q0 -71 65 -71q44 0 71.5 30.5t27.5 75.5q0 64 -58 111q-106 -64 -106 -146zM1030 629q0 -47 41 -80q76 48 76 106q0 52 -45 52q-34 0 -53 -24t-19 -54z" />
<glyph unicode="&#x215c;" horiz-adv-x="1533" d="M61 690l119 139q97 -75 154 -75q39 0 66.5 26.5t27.5 63.5q0 25 -13.5 43.5t-35.5 27t-43 12t-43 3.5h-23l35 188h27q45 0 91 23t46 67q0 45 -49 45q-56 0 -154 -63l-69 149q158 109 288 109q97 0 148 -52t51 -132q0 -132 -145 -217q98 -68 98 -187q0 -51 -17.5 -102.5 t-51.5 -97t-91.5 -73.5t-130.5 -28q-154 0 -285 131zM328 0l706 1434h219l-704 -1434h-221zM842 201q0 166 186 270q-67 67 -67 160q0 104 74.5 173.5t197.5 69.5q110 0 165.5 -54t55.5 -142q0 -129 -137 -215q102 -83 102 -205q0 -118 -85.5 -195t-237.5 -77 q-127 0 -190.5 58.5t-63.5 156.5zM1051 229q0 -71 65 -71q43 0 70.5 30.5t27.5 75.5q0 64 -57 111q-106 -64 -106 -146zM1147 629q0 -47 41 -80q76 48 76 106q0 52 -45 52q-34 0 -53 -24t-19 -54z" />
<glyph unicode="&#x215d;" horiz-adv-x="1531" d="M61 694l119 144q80 -80 137 -80q44 0 74.5 34t30.5 87q0 35 -16.5 58.5t-53.5 23.5q-45 0 -104 -46l-101 72l113 447h449l-33 -191h-275l-18 -100q32 4 51 4q99 0 150 -68t51 -172q0 -89 -33.5 -166.5t-105 -129.5t-166.5 -52q-156 0 -269 135zM309 0l707 1434h219 l-705 -1434h-221zM836 201q0 166 186 270q-68 68 -68 160q0 104 75 173.5t198 69.5q110 0 165.5 -54t55.5 -142q0 -129 -137 -215q102 -83 102 -205q0 -118 -85.5 -195t-237.5 -77q-127 0 -190.5 58.5t-63.5 156.5zM1044 229q0 -71 66 -71q43 0 70.5 30.5t27.5 75.5 q0 64 -57 111q-107 -65 -107 -146zM1141 629q0 -47 41 -80q75 47 75 106q0 52 -45 52q-34 0 -52.5 -24t-18.5 -54z" />
<glyph unicode="&#x215e;" horiz-adv-x="1390" d="M92 573q20 113 68.5 233.5t105 213.5t92.5 145t58 78h-254l35 191h477l-33 -179q-11 -14 -30 -38.5t-70 -101t-93 -153.5t-84 -184.5t-59 -204.5h-213zM170 0l707 1434h219l-705 -1434h-221zM696 201q0 166 187 270q-68 68 -68 160q0 104 74.5 173.5t197.5 69.5 q111 0 166.5 -54t55.5 -142q0 -129 -138 -215q103 -84 103 -205q0 -118 -86 -195t-238 -77q-127 0 -190.5 58.5t-63.5 156.5zM905 229q0 -71 66 -71q43 0 70.5 30.5t27.5 75.5q0 64 -57 111q-107 -65 -107 -146zM1001 629q0 -47 41 -80q76 48 76 106q0 52 -45 52 q-34 0 -53 -24t-19 -54z" />
<glyph unicode="&#x2202;" horiz-adv-x="1017" d="M37 375q0 114 33.5 223t91 192.5t141 134t176.5 50.5q48 0 86.5 -14.5t60 -37t30.5 -35.5t14 -24q-5 62 -22 114.5t-47.5 96.5t-82 69t-117.5 25q-30 0 -64 -4t-53 -8l-18 -4l17 258q57 23 155 23q118 0 210.5 -41.5t148.5 -107t92.5 -155t50.5 -176.5t14 -180 q0 -119 -20.5 -233t-64.5 -216.5t-106 -179.5t-151 -122.5t-194 -45.5q-103 0 -179 32t-119 89t-63 126t-20 151zM346 369q0 -133 98 -133q49 0 86.5 37.5t57.5 94.5t29.5 112.5t9.5 103.5q0 133 -101 133q-47 0 -84 -40.5t-56.5 -99.5t-29.5 -113.5t-10 -94.5z" />
<glyph unicode="&#x2206;" horiz-adv-x="1126" d="M-70 0l621 1434h321l117 -1434h-1059zM350 289h344l-30 805z" />
<glyph unicode="&#x220f;" horiz-adv-x="1105" d="M63 0l201 1145h-114l51 289h991l-51 -289h-117l-201 -1145h-311l203 1145h-140l-202 -1145h-310z" />
<glyph unicode="&#x2211;" horiz-adv-x="944" d="M-45 0l25 152l460 567l-260 563l27 152h803l-52 -289h-401l205 -428l-322 -428h367l-49 -289h-803z" />
<glyph unicode="&#x2212;" horiz-adv-x="983" d="M109 557l45 252h741l-45 -252h-741z" />
<glyph unicode="&#x221a;" horiz-adv-x="1026" d="M23 696h317l37 -385l483 1123h311l-655 -1434h-371z" />
<glyph unicode="&#x221e;" horiz-adv-x="1345" d="M59 455q0 109 38 208t117.5 166.5t182.5 67.5q83 0 141 -53t136 -182q64 68 97 101t79 69.5t87 50.5t89 14q65 0 112 -27t71.5 -72.5t35 -94t10.5 -103.5q0 -109 -38 -207.5t-116 -165.5t-179 -67q-86 0 -144.5 52.5t-134.5 180.5q-63 -67 -98.5 -101.5t-81 -69.5 t-86.5 -48.5t-88 -13.5q-65 0 -112 27t-71.5 72t-35.5 93.5t-11 102.5zM274 492q0 -52 23.5 -82.5t56.5 -30.5q28 0 71.5 34t131.5 126q-47 75 -79 107t-64 32q-54 0 -97 -57.5t-43 -128.5zM758 518q48 -76 79.5 -107.5t65.5 -31.5q54 0 95.5 57t41.5 129q0 53 -23 83 t-56 30q-28 0 -71 -34t-132 -126z" />
<glyph unicode="&#x222b;" horiz-adv-x="643" d="M-119 -293l33 187h25q28 0 50 12.5t35 29.5t23.5 47t15.5 52.5t11 58.5l217 1235q42 221 146 305t327 84h31l-33 -186h-25q-28 0 -50 -13t-34.5 -29t-23.5 -48.5t-15.5 -52.5t-11.5 -60l-217 -1233q-42 -221 -146 -305t-329 -84h-29z" />
<glyph unicode="&#x2248;" horiz-adv-x="983" d="M84 412q59 138 121 208t141 70q41 0 81.5 -20.5t67 -45t59 -45t60.5 -20.5q26 0 50 24t61 97l133 -70q-61 -133 -122 -205.5t-142 -72.5q-41 0 -81.5 20.5t-66.5 45t-59 45t-61 20.5q-26 0 -49 -23.5t-62 -97.5zM154 803q60 137 122.5 207.5t141.5 70.5q41 0 81.5 -20.5 t66.5 -45t58 -45t60 -20.5q25 0 48.5 24t62.5 97l131 -70q-60 -138 -121.5 -208t-140.5 -70q-41 0 -82 20.5t-67.5 45t-59 45t-60.5 20.5q-25 0 -48 -23.5t-62 -97.5z" />
<glyph unicode="&#x2260;" horiz-adv-x="983" d="M76 362l45 252h237l66 144h-279l45 250h345l129 284l180 -84l-90 -200h174l-45 -250h-242l-66 -144h283l-45 -252h-350l-127 -284l-180 84l90 200h-170z" />
<glyph unicode="&#x2264;" horiz-adv-x="983" d="M2 0l37 215h737l-37 -215h-737zM113 631l34 196l803 371l-51 -291l-471 -186l406 -189l-48 -270z" />
<glyph unicode="&#x2265;" horiz-adv-x="983" d="M27 0l36 215h742l-37 -215h-741zM74 262l51 289l471 184l-408 191l50 272l675 -371l-34 -196z" />
<glyph unicode="&#x2318;" horiz-adv-x="1417" d="M41 369q0 127 89.5 208.5t219.5 81.5h137l21 115h-53q-120 0 -204.5 85.5t-84.5 205.5t84.5 205.5t204.5 85.5q116 0 203.5 -84t80.5 -217q-1 -17 -6 -49.5t-6 -47.5h84l23 132q19 104 90 180.5t182 83.5q30 3 68 -4q101 -19 169 -99.5t68 -185.5q0 -127 -89.5 -209 t-217.5 -82h-139l-21 -115h53q120 0 205.5 -85t85.5 -205t-85.5 -204.5t-205.5 -84.5q-119 0 -203.5 85.5t-78.5 215.5q0 17 4.5 49.5t5.5 44.5h-84l-23 -131q-22 -119 -98.5 -191.5t-187.5 -72.5q-121 0 -206 84t-85 205zM225 369q0 -43 32 -74t75 -31q42 0 68.5 27.5 t33.5 66.5l21 117h-123q-43 0 -75 -31t-32 -75zM350 1065q0 -43 30.5 -75t74.5 -32h86l12 72q9 54 -15.5 97.5t-82.5 43.5q-44 0 -74.5 -31t-30.5 -75zM674 659h84l20 115h-84zM899 403q-10 -51 14.5 -95t83.5 -44q43 0 75 31t32 74q0 44 -32 75t-75 31h-84zM999 958h121 q44 0 75.5 32t31.5 75q0 44 -31.5 75t-75.5 31t-70 -31.5t-32 -66.5z" />
<glyph unicode="&#x25ca;" horiz-adv-x="919" d="M72 717l385 717h295l133 -717l-385 -717h-295zM342 668l57 -310l217 408l-59 309z" />
<glyph unicode="&#xe000;" horiz-adv-x="1075" d="M0 0v1075h1075v-1075h-1075z" />
<glyph unicode="&#xf6c3;" horiz-adv-x="241" d="M-92 -543l117 168h-86l45 262h202l-43 -290l-196 -218z" />
<glyph unicode="&#xf6df;" horiz-adv-x="561" d="M-39 23q0 208 79 322t185 114h4l19 94h137l-23 -125q11 -5 105 -53l-96 -154q-6 3 -26 14.5t-31 17.5t-26 11.5t-24 5.5q-48 0 -77 -68.5t-29 -152.5q0 -72 51 -72q23 0 121 48l51 -168q-74 -38 -131 -56l-19 -108h-139l19 96q-68 13 -109 72.5t-41 161.5z" />
<glyph unicode="&#xf6e0;" horiz-adv-x="561" d="M154 1118q0 208 79 322t185 114h4l18 95h138l-23 -125q17 -7 35.5 -16.5t38.5 -21t30 -16.5l-96 -153q-7 4 -26 15t-30 17t-26 11.5t-24 5.5q-48 0 -77.5 -68.5t-29.5 -152.5q0 -72 51 -72q25 0 121 47l51 -168q-69 -35 -131 -55l-18 -109h-139l18 97q-68 13 -108.5 72 t-40.5 161z" />
<glyph unicode="&#xf6e1;" horiz-adv-x="331" d="M-119 -451l111 144h-84l41 235h192l-37 -266l-186 -184z" />
<glyph unicode="&#xf6e2;" horiz-adv-x="333" d="M76 645l110 143h-84l41 236h193l-37 -266l-186 -185z" />
<glyph unicode="&#xf6e3;" horiz-adv-x="651" d="M-104 -201l122 162q116 -90 189 -90q28 0 45.5 15t17.5 44q0 10 -2.5 19t-9 18t-12 15.5t-18 16.5t-21 16t-26.5 18t-29 20q-160 118 -160 264q0 102 68 174t192 76l20 111h140l-23 -127q92 -24 180 -78l-125 -164q-101 64 -161 64q-27 0 -46.5 -15t-19.5 -43 q0 -12 6 -24t20.5 -25.5t28 -24t39 -30t43.5 -33.5q70 -58 106 -114.5t36 -126.5q0 -99 -69 -174t-194 -82l-18 -111h-137l20 123q-99 29 -202 106z" />
<glyph unicode="&#xf6e4;" horiz-adv-x="651" d="M88 895l123 162q116 -90 188 -90q28 0 46 15t18 44q0 12 -4.5 23t-9.5 19t-19 19.5t-22.5 17.5t-30.5 21t-33 23q-160 118 -160 264q0 102 68 174t192 76l21 111h139l-22 -127q92 -24 180 -78l-125 -164q-100 63 -162 63q-27 0 -46 -14.5t-19 -42.5q0 -12 6 -24 t20.5 -25.5t28 -24t39 -30t43.5 -33.5q69 -58 105 -115t36 -127q0 -99 -68.5 -174t-193.5 -84l-18 -108h-138l21 122q-97 24 -203 107z" />
<glyph unicode="&#xf6e7;" horiz-adv-x="329" d="M-92 -307l41 235h192l-41 -235h-192z" />
<glyph unicode="&#xf6e8;" horiz-adv-x="331" d="M102 788l41 236h193l-41 -236h-193z" />
<glyph unicode="&#xf6e9;" horiz-adv-x="661" d="M129 975q0 54 9 115t29 125t49 115.5t73 84.5t96 33q43 0 70 -18.5t59 -57.5l12 62h199l-115 -646h-196l12 72q-44 -42 -80.5 -64t-79.5 -22q-51 0 -83.5 33t-43 75t-10.5 93zM330 1018q0 -28 9.5 -47t27.5 -19q38 0 88 74l30 176q-19 66 -57 66q-24 0 -44 -30.5 t-31 -73.5t-17 -82.5t-6 -63.5z" />
<glyph unicode="&#xf6ea;" horiz-adv-x="661" d="M111 788l157 895h199l-55 -311q45 39 77.5 57.5t75.5 18.5q40 0 68.5 -18t43.5 -48.5t21.5 -63.5t6.5 -71q0 -61 -13.5 -136t-41.5 -153.5t-80.5 -131t-120.5 -52.5q-42 0 -72 19t-58 55l-10 -60h-198zM348 1014q18 -62 58 -62q29 0 52 49t32.5 103.5t9.5 93.5 q0 70 -37 70q-38 0 -80 -64z" />
<glyph unicode="&#xf6eb;" horiz-adv-x="663" d="M129 975q0 54 9 115t29 125t49 115.5t73 84.5t96 33q45 0 71.5 -19t57.5 -59l55 313h199l-158 -895h-198l12 70q-43 -41 -80 -62.5t-80 -21.5q-38 0 -65.5 18t-42 49t-21 64t-6.5 70zM330 1018q0 -28 9.5 -47t27.5 -19q38 0 86 72l32 180q-22 64 -57 64q-24 0 -44 -30.5 t-31 -73.5t-17 -82.5t-6 -63.5z" />
<glyph unicode="&#xf6ec;" horiz-adv-x="595" d="M129 1022q0 190 86.5 308t237.5 118q88 0 139 -49.5t51 -132.5q0 -56 -17 -97.5t-43 -65t-64.5 -38t-74.5 -19t-79 -4.5h-39v-16q0 -88 49 -88q39 0 157 66l56 -150q-23 -13 -58 -29t-96.5 -33.5t-111.5 -17.5q-89 0 -141 60.5t-52 187.5zM338 1157h27q49 0 76.5 25 t27.5 69q0 39 -37 39q-35 0 -59 -37t-35 -96z" />
<glyph unicode="&#xf6ed;" horiz-adv-x="362" d="M111 788l114 646h199l-115 -646h-198zM233 1505l31 176h205l-31 -176h-205z" />
<glyph unicode="&#xf6ee;" horiz-adv-x="364" d="M113 788l157 895h199l-158 -895h-198z" />
<glyph unicode="&#xf6ef;" horiz-adv-x="931" d="M109 788l114 646h199l-14 -76q82 90 163 90q49 0 76.5 -29t32.5 -78q85 107 180 107q68 0 94.5 -55.5t10.5 -145.5l-82 -459h-199l76 424q10 64 -19 64q-31 0 -71 -62l-76 -426h-199l76 424q10 64 -20 64q-34 0 -68 -59l-76 -429h-198z" />
<glyph unicode="&#xf6f0;" horiz-adv-x="634" d="M131 1034q0 43 6.5 91t26.5 107.5t51 105.5t86.5 78t126.5 32q31 0 61 -5.5t65 -23t61 -45t43.5 -75.5t17.5 -111q0 -43 -6.5 -91t-27 -107.5t-51.5 -105.5t-86 -78t-126 -32q-31 0 -61.5 5.5t-65.5 23t-60.5 45t-43 75.5t-17.5 111zM326 1012q0 -68 51 -68 q27 0 48.5 31.5t32 77t16 86.5t5.5 71q0 68 -51 68q-27 0 -48 -31.5t-32 -77.5t-16.5 -87t-5.5 -70z" />
<glyph unicode="&#xf6f1;" horiz-adv-x="483" d="M111 788l114 646h199l-23 -134q78 152 193 142l-37 -211q-43 0 -80.5 -23.5t-60 -56.5t-39 -66.5t-23.5 -56.5l-6 -24l-39 -216h-198z" />
<glyph unicode="&#xf6f2;" horiz-adv-x="581" d="M98 866l88 135q39 -26 87 -46.5t75 -20.5q20 0 33.5 10.5t13.5 28.5q0 10 -3.5 17t-11.5 14t-15.5 11.5t-22.5 12.5t-25 14q-33 18 -54.5 33t-46 39t-36.5 56.5t-12 72.5q0 88 62.5 146.5t172.5 58.5q113 0 236 -74l-84 -139q-91 53 -139 53q-19 0 -32 -10t-13 -29 q0 -10 3 -17t12.5 -14t15 -10.5t23 -11.5t24.5 -12q31 -18 51.5 -32.5t45.5 -39t37.5 -58t12.5 -75.5q0 -83 -62 -144t-172 -61q-133 0 -264 92z" />
<glyph unicode="&#xf6f3;" horiz-adv-x="491" d="M150 1272l28 162h62l24 141l205 45l-33 -186h127l-28 -162h-127l-43 -248q-7 -26 -2.5 -38t8.5 -14.5t12 -2.5q17 0 63 22l37 -170q-115 -47 -188 -47q-176 0 -125 264l41 234h-61z" />
<glyph unicode="&#xf8ff;" horiz-adv-x="1732" d="M134.5 560.5q-2.5 11.5 15.5 21.5l57 41q2 1 3.5 2.5l3 3l2.5 2.5t2 3l1 1q19 16 37 -12l33 -64q6 -12 13.5 -15.5t14 2t9.5 17.5l18 70q4 19 18.5 21t26.5 -13l47 -53q13 -15 23.5 -11.5t11.5 23.5l4 70q3 20 15.5 25t27.5 -7l57 -43q17 -12 26 -6.5t5 25.5l-8 69 q-3 20 8.5 28t28.5 -1l63 -29q19 -9 27 -1.5t2 26.5l-22 67q-8 19 0.5 29t27.5 4l15 -2q40 -77 70 -202.5t30 -217.5q-15 -18 -34.5 -27.5t-59.5 -9.5h-9q0 47 -32 72q18 -21 18 -55v-15q-33 3 -33 39q0 43 -27.5 72t-76.5 29q-41 0 -68.5 -32t-27.5 -79q0 -60 49.5 -96.5 t138.5 -36.5q106 0 212.5 65t183.5 162.5t125 212.5t48 213q0 59 -36.5 98t-94.5 39q-48 0 -85.5 -33.5t-37.5 -84.5q0 -106 119 -119q-30 -122 -59 -174q-12 96 -43.5 178t-75.5 129q91 -120 107 -330l-29 -41q0 156 -51 287t-131 172q-5 9 2 18.5t22 12.5l70 12 q19 3 21 13.5t-15 21.5l-59 39q-15 13 -13.5 26.5t19.5 20.5l63 29q14 4 19 10t0 13t-19 13l-63 27q-24 11 -21 29q13 6 15 16l34 62q9 19 20.5 18t16.5 -20l21 -68q6 -21 18.5 -24t26.5 14l47 53q12 15 23 12.5t12 -22.5l4 -72q1 -21 14.5 -26t28.5 8l57 43q15 12 24 5.5 t7 -26.5l-10 -70q-1 -20 10.5 -27.5t28.5 1.5l63 33q19 8 26.5 0t0.5 -29l-23 -64q-6 -20 3 -30t28 -4l70 14q20 6 26.5 -2t-4.5 -27l-37 -59q-12 -17 -5.5 -29.5t26.5 -11.5l71 4q21 0 25.5 -11t-8.5 -24l-49 -53q-14 -13 -10.5 -26.5t24.5 -16.5l70 -12q43 -10 6 -39 l-58 -39q-16 -10 -15 -24t21 -21l64 -27q12 -5 16.5 -12t0 -13.5t-16.5 -11.5l-64 -26q-20 -7 -21 -22t15 -25l58 -41q11 -7 14.5 -14.5t-2 -13.5t-18.5 -9l-70 -13q-21 -3 -24.5 -16.5t10.5 -28.5l49 -49q13 -14 8.5 -24.5t-25.5 -10.5l-71 5q-20 0 -26.5 -12t5.5 -29 l37 -62q10 -17 4 -25.5t-26 -5.5l-70 19q-19 4 -28 -6t-3 -29l23 -68q8 -19 0 -26t-27 2l-63 31q-17 9 -28.5 1t-10.5 -30l10 -68q1 -21 -7.5 -25.5t-23.5 7.5l-57 43q-15 12 -28.5 5.5t-14.5 -26.5l-4 -69q-1 -20 -12 -23t-23 11l-47 55q-13 14 -26 12t-19 -22l-21 -68 q-3 -13 -9.5 -18t-14 -1t-13.5 15l-34 61q-9 19 -22.5 19t-25.5 -19l-30 -61q-6 -11 -13.5 -15t-14 1t-9.5 18l-21 68q-6 20 -19 22t-26 -12l-47 -55q-12 -14 -22 -11t-13 23l-4 69q-2 20 -15 26.5t-30 -5.5l-53 -43q-17 -13 -27 -8t-6 26l11 68q1 22 -10.5 30t-30.5 -1 l-62 -31q-19 -9 -27 -2t0 26l23 68q7 19 -2.5 29.5t-28.5 5.5l-69 -19q-20 -3 -26.5 5.5t3.5 25.5l39 62q11 17 4.5 29t-26.5 12l-72 -5q-21 0 -25.5 10.5t8.5 24.5l52 49q13 15 8.5 28.5t-25.5 16.5l-67 13q-21 4 -23.5 15.5zM610 281q44 -27 123 -27q106 0 212.5 65 t183.5 162t125.5 212t48.5 214q0 63 -41 101q24 -38 24 -84q0 -100 -47.5 -215t-126.5 -215q-85 -105 -188.5 -168.5t-212.5 -63.5q-58 0 -101 19z" />
<glyph unicode="&#xfb06;" horiz-adv-x="1515" d="M-41 125l147 225q174 -112 259 -112q32 0 54.5 17.5t22.5 47.5q0 15 -5.5 28t-11.5 22t-22.5 21.5t-25.5 18.5t-35 21t-37 22q-38 23 -67.5 44t-61.5 52t-52.5 63.5t-34 76t-13.5 92.5q0 145 100.5 239.5t272.5 94.5q89 0 192 -35q-4 20 -4 63q0 159 103 263t286 104 q180 0 271 -105t59 -292l-4 -21h196l-43 -246h-196l-82 -460q-18 -99 28 -99q9 0 18.5 2t22 7t20.5 8.5t23.5 11t22.5 10.5l57 -256q-170 -76 -295 -76q-266 0 -192 412l78 440h-103l43 246h103l6 37q20 117 -2.5 175.5t-100.5 58.5q-85 0 -140.5 -64.5t-55.5 -177.5 q0 -60 12 -98l53 -31l-143 -225q-142 88 -223 88q-30 0 -52 -16.5t-22 -43.5q0 -14 3 -25.5t11.5 -22t14 -17.5t22 -17t24 -14.5t30 -16.5t30.5 -16q46 -28 81.5 -56t72.5 -69t57.5 -94.5t20.5 -114.5q0 -142 -99 -240t-276 -98q-205 0 -418 148z" />
<glyph horiz-adv-x="655" d="M80 592l88 166q28 -10 63 -10q76 0 134 46t94 124q-44 -44 -111 -44q-87 0 -136.5 66t-49.5 166q0 137 78.5 239.5t208.5 102.5q127 0 195.5 -89t68.5 -222q0 -106 -34 -208.5t-94.5 -185t-153 -133.5t-200.5 -51q-44 0 -81.5 8.5t-53.5 16.5zM371 1122q0 -34 14 -57 t45 -23q24 0 45.5 16.5t30.5 39.5q2 16 2 47q0 115 -64 115q-35 0 -54 -41t-19 -97z" />
<glyph horiz-adv-x="925" d="M-96 0l383 600l-162 576h315l54 -349l176 349h329l-364 -576l174 -600h-317l-62 340l-182 -340h-344z" />
<glyph horiz-adv-x="1267" d="M-168 -227q30 13 52 25t41 22t32.5 23t23.5 22t18 26.5t13.5 28.5t11 35.5t8.5 40t9 49.5l137 784h-96l43 246h98l4 25q35 198 106.5 295.5t194.5 97.5q127 0 308 -109l-144 -213q-78 33 -100 33q-47 0 -62 -84l-8 -45h170l-45 -246h-168l-133 -757q-32 -187 -56 -251 q-38 -102 -128 -164q-83 -59 -264 -122zM467 -227q45 20 74 35.5t51.5 35t34 34t22 44t15 52.5t12.5 71l137 784h-96l43 246h98l4 25q33 197 103 295t190 98q109 0 260 -88l-112 -231q-47 30 -76 30q-47 0 -62 -84l-8 -45h170l-45 -246h-168l-133 -757q-13 -76 -19.5 -110 t-20.5 -88t-26.5 -77.5t-36.5 -61t-52 -57t-71.5 -47t-97 -49.5t-125.5 -47z" />
<glyph horiz-adv-x="1181" d="M-172 -227q30 13 52 25t41 22t32.5 23t23.5 22t18 26.5t13.5 28.5t11 35.5t8.5 40t9 49.5l137 784h-92l43 246h92l2 4q35 202 115.5 298t212.5 96q107 0 321 -95q74 115 207 115q126 0 307 -109l-143 -213q-78 33 -100 33q-47 0 -62 -84l-8 -45h170l-45 -246h-168 l-133 -757q-13 -76 -19.5 -110.5t-20.5 -88.5t-26.5 -77.5t-36.5 -61t-52 -56.5t-71.5 -46.5t-97 -49.5t-125.5 -47l-65 238q30 13 52 25t41 22t32.5 23t23.5 22t18 26.5t13.5 28.5t11 35.5t8.5 40t9 49.5l137 784h-250l-133 -757q-32 -186 -56 -251q-39 -102 -129 -165 q-83 -58 -263 -121zM520 1075h250l12 72q-130 37 -176 37q-68 0 -82 -84z" />
<glyph horiz-adv-x="2125" d="M-172 -227q30 13 52 25t41 22t32.5 23t23.5 22t18 26.5t13.5 28.5t11 35.5t8.5 40t9 49.5l137 784h-92l43 246h92l2 4q35 202 115.5 298t212.5 96q115 0 325 -97q82 117 230 117q106 0 280 -76l15 76h301l-92 -522q69 64 122.5 95.5t120.5 31.5q62 0 107.5 -28t69.5 -77 t34.5 -104.5t10.5 -120.5q0 -84 -12.5 -182t-43.5 -207.5t-76 -197.5t-117 -146t-159 -58q-68 0 -114.5 33t-94.5 96l-18 -106h-301l204 1167q-132 37 -178 37q-65 0 -82 -84l-8 -45h168l-45 -246h-166l-135 -757q-13 -76 -19.5 -110.5t-20.5 -88.5t-26.5 -77.5t-36.5 -61 t-52 -56.5t-71.5 -46.5t-97 -49.5t-125.5 -47l-65 238q34 15 58.5 27t45 26.5t33 24t24 28t17.5 30t13 38t10 43.5t10 55l137 784h-252l-133 -757q-32 -186 -56 -251q-39 -102 -129 -165q-83 -58 -263 -121zM520 1075h250l12 72q-130 37 -176 37q-68 0 -82 -84zM1499 360 q35 -112 98 -112q37 0 70 50.5t52.5 123t30.5 146t11 126.5q0 133 -67 133q-62 0 -133 -112z" />
<glyph horiz-adv-x="2117" d="M-172 -227q30 13 52 25t41 22t32.5 23t23.5 22t18 26.5t13.5 28.5t11 35.5t8.5 40t9 49.5l137 784h-92l43 246h92l2 4q35 202 115.5 298t212.5 96q115 0 325 -97q82 117 230 117q106 0 280 -76l15 76h301l-94 -535q75 67 143 103.5t143 36.5q107 0 154 -80.5t16 -253.5 l-133 -764h-301l121 688q6 33 8.5 55.5t1.5 46.5t-11 36t-30 12q-34 0 -75.5 -31.5t-77.5 -77.5l-127 -729h-301l204 1167q-132 37 -178 37q-65 0 -82 -84l-8 -45h168l-45 -246h-166l-135 -757q-13 -76 -19.5 -110.5t-20.5 -88.5t-26.5 -77.5t-36.5 -61t-52 -56.5 t-71.5 -46.5t-97 -49.5t-125.5 -47l-65 238q34 15 58.5 27t45 26.5t33 24t24 28t17.5 30t13 38t10 43.5t10 55l137 784h-252l-133 -757q-32 -186 -56 -251q-39 -102 -129 -165q-83 -58 -263 -121zM520 1075h250l12 72q-130 37 -176 37q-68 0 -82 -84z" />
<glyph horiz-adv-x="1581" d="M-172 -227q30 13 52 25t41 22t32.5 23t23.5 22t18 26.5t13.5 28.5t11 35.5t8.5 40t9 49.5l137 784h-92l43 246h92l2 4q35 202 115.5 298t212.5 96q113 0 327 -99q88 119 242 119q145 0 395 -109l-129 -215q-158 35 -206 35q-34 0 -60.5 -21t-36.5 -63l-8 -45h502 l-191 -1075h-301l146 829h-199l-135 -757q-13 -76 -19.5 -110t-20.5 -88t-26.5 -77.5t-36.5 -61t-52 -57t-71.5 -47t-97 -49.5t-125.5 -47l-65 238q30 13 52 25t41 22t32.5 23t23.5 22t18 26.5t13.5 28.5t11 35.5t8.5 40t9 49.5l137 784h-250l-133 -757q-32 -186 -56 -251 q-39 -102 -129 -165q-83 -58 -263 -121zM520 1075h250l12 72q-130 37 -176 37q-68 0 -82 -84z" />
<glyph horiz-adv-x="1585" d="M-172 -227q30 13 52 25t41 22t32.5 23t23.5 22t18 26.5t13.5 28.5t11 35.5t8.5 40t9 49.5l137 784h-92l43 246h92l2 4q35 202 115.5 298t212.5 96q113 0 327 -99q88 119 242 119q145 0 395 -109l-129 -215q-158 35 -206 35q-34 0 -60.5 -21t-36.5 -63l-8 -45h506 l-182 -1026q-14 -79 -21.5 -116.5t-24 -93.5t-35 -83.5t-50.5 -66t-75 -61t-103.5 -48t-141.5 -47.5l-61 250q55 24 87.5 43t54 35.5t33.5 42.5t18 47.5t14 68.5l143 809h-205l-135 -757q-13 -76 -19.5 -110t-20.5 -88t-26.5 -77.5t-36.5 -61t-52 -57t-71.5 -47t-97 -49.5 t-125.5 -47l-65 238q30 13 52 25t41 22t32.5 23t23.5 22t18 26.5t13.5 28.5t11 35.5t8.5 40t9 49.5l137 784h-250l-133 -757q-32 -186 -56 -251q-39 -102 -129 -165q-83 -58 -263 -121zM520 1075h250l12 72q-130 37 -176 37q-68 0 -82 -84z" />
<glyph horiz-adv-x="2072" d="M-172 -227q30 13 52 25t41 22t32.5 23t23.5 22t18 26.5t13.5 28.5t11 35.5t8.5 40t9 49.5l137 784h-92l43 246h92l2 4q35 202 115.5 298t212.5 96q115 0 325 -97q82 117 230 117q106 0 280 -76l15 76h301l-133 -758l213 340h346l-350 -438l196 -637h-311l-94 375 l-82 -103l-47 -272h-301l204 1167q-132 37 -178 37q-65 0 -82 -84l-8 -45h168l-45 -246h-166l-135 -757q-13 -76 -19.5 -110.5t-20.5 -88.5t-26.5 -77.5t-36.5 -61t-52 -56.5t-71.5 -46.5t-97 -49.5t-125.5 -47l-65 238q34 15 58.5 27t45 26.5t33 24t24 28t17.5 30t13 38 t10 43.5t10 55l137 784h-252l-133 -757q-32 -186 -56 -251q-39 -102 -129 -165q-83 -58 -263 -121zM520 1075h250l12 72q-130 37 -176 37q-68 0 -82 -84z" />
<glyph horiz-adv-x="634" d="M-168 -227q45 20 74 35.5t51.5 35t34 34t22 44t15 52.5t12.5 71l137 784h-96l43 246h98l4 25q33 197 103 295t190 98q109 0 260 -88l-112 -231q-47 30 -76 30q-47 0 -62 -84l-8 -45h170l-45 -246h-168l-133 -757q-32 -186 -56 -251q-39 -102 -129 -165q-83 -58 -263 -121 z" />
<glyph horiz-adv-x="1634" d="M-172 -227q30 13 52 25t41 22t32.5 23t23.5 22t18 26.5t13.5 28.5t11 35.5t8.5 40t9 49.5l137 784h-92l43 246h92l2 4q35 202 115.5 298t212.5 96q115 0 325 -97q82 117 230 117q103 0 282 -78l15 78h299l-262 -1493h-301l206 1167q-132 37 -180 37q-65 0 -82 -84l-8 -45 h168l-45 -246h-166l-135 -757q-13 -76 -19.5 -110.5t-20.5 -88.5t-26.5 -77.5t-36.5 -61t-52 -56.5t-71.5 -46.5t-97 -49.5t-125.5 -47l-65 238q34 15 58.5 27t45 26.5t33 24t24 28t17.5 30t13 38t10 43.5t10 55l137 784h-252l-133 -757q-32 -186 -56 -251 q-39 -102 -129 -165q-83 -58 -263 -121zM520 1075h250l12 72q-130 37 -176 37q-68 0 -82 -84z" />
<glyph horiz-adv-x="1806" d="M-172 -227q30 13 52 25t41 22t32.5 23t23.5 22t18 26.5t13.5 28.5t11 35.5t8.5 40t9 49.5l137 784h-92l43 246h92l2 4q35 202 115.5 298t212.5 96q107 0 321 -95q74 115 205 115q128 0 309 -109l-143 -213q-78 33 -102 33q-45 0 -60 -84l-8 -45h272l43 242l312 69 l-56 -311h197l-43 -246h-197l-79 -460q-18 -99 28 -99q7 0 16 2t16 4t18.5 7t17.5 8l19 9.5t18 8.5l57 -256q-170 -76 -295 -76q-266 0 -192 412l77 440h-272l-133 -757q-34 -188 -58 -253q-39 -101 -130 -163q-83 -58 -263 -121l-63 238q30 13 52 25t41 22t32.5 23t23.5 22 t18 26.5t13.5 28.5t11 35.5t8.5 40t9 49.5l137 784h-250l-133 -757q-32 -186 -56 -251q-39 -102 -129 -165q-83 -58 -263 -121zM520 1075h250l12 72q-130 37 -176 37q-68 0 -82 -84z" />
<glyph horiz-adv-x="1568" d="M-168 -227q45 20 74 35.5t51.5 35t34 34t22 44t15 52.5t12.5 71l137 784h-96l43 246h98l4 25q37 202 116.5 297.5t211.5 95.5q105 0 279 -76l14 76h301l-94 -535q75 67 143 103.5t143 36.5q107 0 154 -80.5t16 -253.5l-133 -764h-301l121 688q6 33 8.5 55.5t1.5 46.5 t-11 36t-30 12q-34 0 -75.5 -31.5t-77.5 -77.5l-127 -729h-301l205 1167q-132 37 -177 37q-68 0 -82 -84l-8 -45h168l-45 -246h-166l-135 -757q-32 -187 -56 -251q-38 -102 -128 -164q-83 -59 -264 -122z" />
<glyph horiz-adv-x="987" d="M50 324q2 55 13 120l130 732h286l-137 -783q-6 -38 -7 -69t21 -50.5t68 -19.5q119 0 141 137l137 785h287l-131 -752q-14 -81 -32 -140.5t-51 -119.5t-79.5 -97.5t-119 -61t-166.5 -23.5q-85 0 -150 17t-105.5 48.5t-65.5 72.5t-33 95t-6 109zM387 1518h174 q-6 -39 11 -61.5t51 -22.5q49 0 79 22t35 62h176q-23 -124 -102 -193.5t-201 -69.5q-127 0 -185.5 73t-37.5 190z" />
<glyph horiz-adv-x="1034" d="M-168 -227q45 20 74 35.5t51.5 35t34 34t22 44t15 52.5t12.5 71l137 784h-96l43 246h98l4 25q37 203 120 298t224 95q144 0 394 -109l-129 -215q-153 35 -205 35q-79 0 -99 -84l-8 -45h502l-190 -1075h-301l145 829h-199l-135 -757q-32 -186 -56 -251q-39 -102 -129 -165 q-83 -58 -263 -121z" />
<glyph horiz-adv-x="1034" d="M-168 -227q45 20 74 35.5t51.5 35t34 34t22 44t15 52.5t12.5 71l137 784h-96l43 246h98l4 25q37 203 120 298t224 95q144 0 394 -109l-129 -215q-153 35 -205 35q-79 0 -99 -84l-8 -45h506l-182 -1026q-12 -71 -18.5 -103t-20 -85t-27 -77.5t-37 -62t-53 -57.5t-72 -46.5 t-97.5 -45.5t-126 -39l-59 250q45 20 74 35t51.5 32.5t34 30.5t21 37.5t13.5 43.5t11 58l143 809h-205l-135 -757q-32 -186 -56 -251q-39 -102 -129 -165q-83 -58 -263 -121z" />
<glyph horiz-adv-x="1523" d="M-168 -227q45 20 74 35t51.5 35t34.5 34.5t22.5 44t15 52t13.5 71.5l137 784h-98l43 246h98l4 25q35 202 115.5 297.5t212.5 95.5q105 0 279 -76l14 76h301l-133 -758l213 340h346l-350 -438l196 -637h-311l-92 375l-84 -103l-47 -272h-301l205 1167q-132 37 -177 37 q-68 0 -82 -84l-8 -45h168l-45 -246h-166l-135 -757q-16 -98 -25 -142.5t-30 -106.5t-46.5 -90.5t-73.5 -68t-112 -67.5t-161 -62z" />
<glyph horiz-adv-x="378" d="M123 788l37 213h190l-35 -213h-192zM211 1079l39 570h242l-164 -570h-117z" />
<glyph horiz-adv-x="1085" d="M-168 -227q45 20 74 35.5t51.5 35t34 34t22 44t15 52.5t12.5 71l137 784h-96l43 246h98l4 25q37 202 116.5 297.5t211.5 95.5q107 0 281 -76l14 76h299l-262 -1493h-301l207 1167q-130 37 -179 37q-68 0 -82 -84l-8 -45h168l-45 -246h-166l-135 -757q-32 -187 -56 -251 q-38 -102 -128 -164q-83 -59 -264 -122z" />
<glyph horiz-adv-x="1259" d="M-168 -227q45 20 74 35.5t51.5 35t34 34t22 44t15 52.5t12.5 71l137 784h-96l43 246h98l4 25q35 198 106.5 295.5t194.5 97.5q127 0 308 -109l-144 -213q-78 33 -100 33q-47 0 -62 -84l-8 -45h273l43 242l311 69l-55 -311h196l-43 -246h-196l-80 -460q-18 -99 28 -99 q7 0 16 2t16 4t18.5 7t17.5 8l19 9.5t18 8.5l57 -256q-170 -76 -295 -76q-266 0 -192 412l78 440h-273l-133 -757q-32 -187 -56 -251q-38 -102 -128 -164q-83 -59 -264 -122z" />
<glyph horiz-adv-x="489" d="M-180 -434q42 18 64 31t35.5 33.5t18 37.5t11.5 58l78 450h-56l29 162h55q24 127 71 188.5t128 61.5q86 0 192 -70l-92 -139q-52 18 -61 18q-26 0 -35 -47l-2 -12h102l-30 -162h-101l-77 -434q-7 -37 -10 -54t-10 -46t-12 -41.5t-14.5 -34.5t-19.5 -32.5t-25.5 -27 t-33.5 -26.5t-42.5 -23.5t-53.5 -24.5t-66 -24z" />
<glyph horiz-adv-x="987" d="M50 324q2 55 13 120l130 732h286l-137 -783q-6 -38 -7 -69t21 -50.5t68 -19.5q119 0 141 137l137 785h287l-131 -752q-14 -81 -32 -140.5t-51 -119.5t-79.5 -97.5t-119 -61t-166.5 -23.5q-85 0 -150 17t-105.5 48.5t-65.5 72.5t-33 95t-6 109zM414 1255l229 287h328 l-299 -287h-258z" />
<glyph horiz-adv-x="634" d="M-49 121l119 143q80 -80 137 -80q44 0 74 34t30 87q0 82 -69 82q-48 0 -105 -45l-100 72l113 446h448l-33 -190h-274l-19 -101q32 4 52 4q99 0 149.5 -67.5t50.5 -171.5q0 -89 -33.5 -166.5t-105 -129.5t-166.5 -52q-155 0 -268 135z" />
<glyph horiz-adv-x="636" d="M53 694l119 144q80 -80 137 -80q44 0 74.5 34t30.5 87q0 35 -16.5 58.5t-53.5 23.5q-45 0 -104 -46l-101 72l113 447h448l-32 -191h-275l-18 -100q32 4 51 4q99 0 150 -68t51 -172q0 -89 -33.5 -166.5t-105 -129.5t-166.5 -52q-156 0 -269 135z" />
<glyph horiz-adv-x="944" d="M-82 -70l180 220q38 -38 63.5 -60.5t71 -47t86.5 -24.5q73 0 127 66t54 168q0 68 -28.5 112t-88.5 44q-73 0 -172 -78l-158 106l185 740h704l-51 -289h-434l-39 -209q48 10 88 10q80 0 142 -31t99 -86t55.5 -124.5t18.5 -151.5q0 -87 -20 -170.5t-61 -157t-98 -129 t-136 -87.5t-170 -32q-243 0 -418 211z" />
<glyph horiz-adv-x="1036" d="M10 188l180 220q37 -37 63 -60t72 -47.5t87 -24.5q73 0 126.5 65.5t53.5 168.5q0 68 -28.5 112t-88.5 44q-73 0 -172 -78l-158 106l185 740h704l-51 -289h-434l-39 -209q48 10 88 10q80 0 142 -31t99 -86t55.5 -124.5t18.5 -151.5q0 -87 -20 -170.5t-61 -157t-98 -129 t-136 -87.5t-170 -32q-243 0 -418 211z" />
<glyph horiz-adv-x="378" d="M-70 -307l37 213h191l-35 -213h-193zM18 -16l39 569h242l-164 -569h-117z" />
<glyph horiz-adv-x="1308" d="M39 567l96 113q64 -64 119 -64q41 0 70.5 28.5t29.5 74.5q0 72 -65 72q-44 0 -94 -37l-82 57l96 365h377l-27 -152h-237l-19 -92q24 6 49 6q85 0 128.5 -55.5t43.5 -139.5q0 -73 -29 -136.5t-90 -105.5t-141 -42q-128 0 -225 108zM248 0l612 1176h174l-612 -1176h-174z M692 164q0 136 166 223q-61 55 -61 133q0 85 63 141t166 56q93 0 140.5 -44.5t47.5 -115.5q0 -106 -122 -178q90 -67 90 -168q0 -97 -73 -160t-200 -63q-107 0 -162 48t-55 128zM860 186q0 -29 17.5 -45t48.5 -16q41 0 67.5 25.5t26.5 64.5q0 55 -57 98q-49 -29 -76 -58.5 t-27 -68.5zM944 516q0 -40 41 -72q76 43 76 95q0 20 -11.5 33.5t-33.5 13.5q-33 0 -52.5 -22t-19.5 -48z" />
<glyph horiz-adv-x="376" d="M98 788l164 570h117l-39 -570h-242zM240 1436l34 213h193l-37 -213h-190z" />
<glyph horiz-adv-x="1308" d="M39 567l96 113q64 -64 119 -64q41 0 70.5 28.5t29.5 74.5q0 72 -65 72q-44 0 -94 -37l-82 57l96 365h377l-27 -152h-237l-19 -92q24 6 49 6q85 0 128.5 -55.5t43.5 -139.5q0 -73 -29 -136.5t-90 -105.5t-141 -42q-128 0 -225 108zM248 0l612 1176h174l-612 -1176h-174z M698 244q0 86 29 170.5t80.5 152t130 109t168.5 41.5q36 0 68 -6.5t46 -13.5l13 -7l-72 -131q-24 8 -53 8q-70 0 -123 -40.5t-86 -108.5q50 39 105 39q74 0 116.5 -54t42.5 -135q0 -113 -66 -196.5t-177 -83.5q-107 0 -164.5 73t-57.5 183zM860 238q0 -47 16 -74t46 -27 q36 0 55.5 35t19.5 82q0 30 -13.5 51t-43.5 21q-27 0 -49.5 -18t-30.5 -40v-30z" />
<glyph horiz-adv-x="378" d="M-94 -307l164 569h116l-39 -569h-241zM47 340l35 213h192l-36 -213h-191z" />
<glyph horiz-adv-x="985" d="M48 324q2 55 13 120l129 732h287l-137 -783q-6 -38 -7 -69t21 -50.5t68 -19.5q119 0 141 137l137 785h287l-131 -752q-14 -81 -32 -140.5t-51 -119.5t-79.5 -97.5t-119 -61t-166.5 -23.5q-85 0 -150 17t-105.5 48.5t-65.5 72.5t-33 95t-6 109z" />
<glyph horiz-adv-x="591" d="M174 1452l33 197h538l-30 -197h-166l-119 -664h-207l119 664h-168z" />
<glyph horiz-adv-x="698" d="M-51 152l28 157l357 551h274l-92 -518h92l-35 -190h-90l-26 -152h-205l27 152h-330zM168 342h143l56 305z" />
<glyph horiz-adv-x="700" d="M51 725l29 158l356 551h275l-93 -519h93l-35 -190h-90l-27 -152h-205l27 152h-330zM270 915h144l55 306z" />
<glyph horiz-adv-x="1054" d="M-76 4l41 242l584 930h416l-158 -883h149l-51 -289h-149l-45 -262h-312l45 262h-520zM250 293h246l96 543z" />
<glyph horiz-adv-x="1036" d="M-25 262l41 242l584 930h393l-155 -883h137l-51 -289h-138l-45 -262h-311l45 262h-500zM297 551h229l90 506z" />
<glyph horiz-adv-x="1388" d="M43 596l23 125l311 455h221l-80 -428h78l-27 -152h-80l-22 -125h-164l23 125h-283zM223 748h131l49 266zM324 0l612 1176h174l-610 -1176h-176zM770 96l96 115q61 -66 119 -66q42 0 72 29.5t30 75.5q0 31 -16.5 51.5t-50.5 20.5q-44 0 -94 -37l-82 55l96 365h379 l-27 -152h-239l-19 -92q24 6 51 6q83 0 126.5 -55.5t43.5 -139.5q0 -73 -29 -136.5t-90 -105.5t-141 -42q-123 0 -225 108z" />
<glyph horiz-adv-x="512" d="M-20 0l225 776h162l-52 -776h-335zM168 879l53 297h266l-51 -297h-268z" />
<glyph horiz-adv-x="987" d="M50 324q2 55 13 120l130 732h286l-137 -783q-6 -38 -7 -69t21 -50.5t68 -19.5q119 0 141 137l137 785h287l-131 -752q-14 -81 -32 -140.5t-51 -119.5t-79.5 -97.5t-119 -61t-166.5 -23.5q-85 0 -150 17t-105.5 48.5t-65.5 72.5t-33 95t-6 109zM309 1255l209 287h268 l103 -287h-184l-68 144l-117 -144h-211z" />
<glyph horiz-adv-x="507" d="M12 0l51 297h269l-53 -297h-267zM133 399l51 777h336l-225 -777h-162z" />
<glyph horiz-adv-x="989" d="M-6 203l33 194h106l182 1037h766l-55 -295h-451l-49 -279h355l-52 -289h-354l-31 -174h250l-32 -194h-252l-35 -203h-312l35 203h-104z" />
<glyph horiz-adv-x="882" d="M-18 154l30 174h92l150 848h674l-49 -273h-385l-33 -184h301l-47 -264h-301l-23 -127h215l-31 -174h-215l-26 -154h-287l27 154h-92z" />
<glyph horiz-adv-x="638" d="M-96 -195l24 127h66l108 621h488l-33 -197h-281l-26 -139h219l-33 -190h-219l-18 -95h157l-24 -127h-156l-20 -112h-205l20 112h-67z" />
<glyph horiz-adv-x="641" d="M96 901l25 127h65l111 621h487l-32 -197h-281l-27 -139h220l-33 -191h-219l-19 -94h156l-25 -127h-153l-21 -113h-205l19 113h-68z" />
<glyph horiz-adv-x="462" d="M37 662q34 15 54 27t33.5 22t21 28.5t11 33t9.5 48.5l78 451h-56l29 162h55q24 127 71 188t128 61q89 0 193 -69l-93 -139q-52 18 -61 18q-26 0 -35 -47l-2 -12h102l-30 -162h-101l-77 -434q-7 -37 -10 -54t-10 -46t-12 -41.5t-14.5 -34.5t-19.5 -32.5t-25.5 -27 t-33.5 -26.5t-42.5 -23.5t-53.5 -24.5t-66 -24z" />
<glyph horiz-adv-x="591" d="M-16 356l32 197h539l-31 -197h-166l-118 -663h-207l119 663h-168z" />
<glyph horiz-adv-x="935" d="M-6 0l207 1176h286l-30 -177h49q95 0 166.5 -19t112.5 -48.5t66.5 -72t33.5 -83t8 -88.5q0 -219 -137 -346t-398 -127h-39l-38 -215h-287zM365 477h45q95 0 143.5 47.5t48.5 116.5q0 52 -32.5 73t-102.5 21h-57z" />
<glyph horiz-adv-x="808" d="M41 -336l86 160q29 -23 59 -23q29 0 48.5 22.5t19.5 74.5q0 54 -16 102h-80l157 903h-233l49 273h746l-48 -273h-227l-158 -903h-79q22 -55 22 -143q0 -117 -61 -178.5t-146 -61.5q-89 0 -139 47z" />
<glyph horiz-adv-x="808" d="M82 903l49 273h746l-48 -273h-227l-158 -903h-286l157 903h-233zM279 1542h186l70 -145l114 145h209l-207 -287h-268z" />
<glyph horiz-adv-x="817" d="M86 903l49 273h746l-47 -273h-228l-67 -389h96l-31 -174h-96l-59 -340h-287l59 340h-94l31 174h94l67 389h-233z" />
<glyph horiz-adv-x="794" d="M-92 -307l100 569q14 75 34.5 129.5t58 102.5t99.5 73t148 25q143 0 212 -64t69 -153q0 -44 -16.5 -82t-32.5 -54l-17 -16q-1 0 -9.5 -2.5t-14 -4t-15.5 -5.5t-16.5 -7.5t-15 -9.5t-13.5 -12t-8.5 -14.5t-3.5 -17.5q0 -21 15 -38t43 -40t44 -45q47 -61 47 -136 q0 -86 -65 -149.5t-166 -63.5q-106 0 -231 70l90 131q72 -41 114 -41q25 0 39.5 11.5t14.5 31.5q0 27 -29 53q-3 3 -18.5 15.5t-25 20.5t-24.5 25.5t-23.5 34t-15 41t-6.5 50.5q0 132 162 207q4 16 4 28q0 74 -90 74q-58 0 -91 -41t-50 -139l-99 -557h-198z" />
<glyph horiz-adv-x="794" d="M106 788l101 570q14 75 34.5 129.5t58 102.5t99.5 73t148 25q143 0 211.5 -64.5t68.5 -153.5q0 -44 -16.5 -81.5t-32.5 -53.5l-16 -16q-1 0 -8.5 -2t-12 -3.5t-13 -5t-14.5 -6.5l-14 -7t-13.5 -9.5t-10.5 -11.5t-7.5 -13.5t-2.5 -15.5q0 -21 15 -38t43 -40t44 -45 q47 -61 47 -135q0 -86 -65 -149.5t-166 -63.5q-107 0 -232 70l90 131q72 -41 115 -41q25 0 39 11.5t14 31.5q0 28 -28 53q-3 3 -18.5 15.5t-25 20.5t-24.5 25.5t-23.5 34t-15 41t-6.5 50.5q0 46 18 84t50 63.5t50 36t44 22.5q4 16 4 29q0 74 -90 74q-58 0 -91.5 -41 t-50.5 -139l-98 -558h-199z" />
<glyph horiz-adv-x="659" d="M-123 -516l70 168q109 -49 180 -49q47 0 67 25.5t29 74.5l8 53q-42 -39 -77 -58.5t-78 -19.5q-51 0 -83 33t-42 75t-10 93q0 69 15 146.5t44.5 153t81.5 124.5t117 49q40 0 67.5 -19t57.5 -57l12 62h199l-111 -625q-30 -164 -91 -223t-186 -59q-138 0 -270 53zM141 -78 q0 -65 37 -65q39 0 84 67l33 187q-19 61 -55 61q-43 0 -71 -93.5t-28 -156.5z" />
<glyph horiz-adv-x="808" d="M82 903l49 273h746l-48 -273h-227l-158 -903h-286l157 903h-233z" />
<glyph horiz-adv-x="665" d="M96 895l123 162q116 -90 189 -90q28 0 45.5 15t17.5 44q0 12 -4.5 23t-9.5 19t-19 19.5t-22.5 17.5t-30.5 21t-33 23q-159 118 -159 264q0 105 72.5 177.5t203.5 72.5q153 0 301 -94l-125 -164q-100 63 -162 63q-27 0 -46 -14.5t-19 -42.5q0 -12 6 -24t20.5 -25.5t28 -24 t39 -30t43.5 -33.5q69 -58 105 -115t36 -127q0 -105 -75 -181.5t-211 -76.5q-155 0 -314 121z" />
<glyph horiz-adv-x="987" d="M50 324q2 55 13 120l130 732h286l-137 -783q-6 -38 -7 -69t21 -50.5t68 -19.5q119 0 141 137l137 785h287l-131 -752q-14 -81 -32 -140.5t-51 -119.5t-79.5 -97.5t-119 -61t-166.5 -23.5q-85 0 -150 17t-105.5 48.5t-65.5 72.5t-33 95t-6 109zM358 1276l43 250h215 l-43 -250h-215zM643 1276l43 250h215l-43 -250h-215z" />
<glyph horiz-adv-x="667" d="M76 580l69 168q111 -50 181 -50q47 0 67 25.5t29 75.5l8 53q-42 -38 -77.5 -58t-78.5 -20q-51 0 -83 33t-42 75t-10 93q0 69 15 146.5t44.5 153t81.5 124.5t117 49q40 0 67.5 -19t57.5 -57l13 62h198l-110 -625q-30 -165 -91 -224t-186 -59q-136 0 -270 54zM340 1018 q0 -66 37 -66q38 0 84 68l33 186q-19 62 -56 62q-43 0 -70.5 -93t-27.5 -157z" />
<glyph horiz-adv-x="665" d="M-96 -201l123 162q116 -90 188 -90q28 0 46 15t18 44q0 12 -4.5 23t-9.5 19t-19 19.5t-22.5 17.5t-30.5 21t-33 23q-160 118 -160 264q0 105 72.5 177.5t203.5 72.5q154 0 302 -94l-125 -164q-101 64 -162 64q-27 0 -46.5 -15t-19.5 -43q0 -12 6 -24t20.5 -25.5t28 -24 t39 -30t43.5 -33.5q70 -58 106 -114.5t36 -126.5q0 -105 -75.5 -182t-211.5 -77q-154 0 -313 121z" />
<glyph horiz-adv-x="897" d="M-33 147l170 222q167 -121 262 -121q38 0 63 21.5t25 58.5q0 23 -17.5 47t-37.5 39.5t-63 46.5t-66 49q-106 81 -153.5 161t-47.5 175q0 150 99 249t282 99q112 0 224.5 -37t195.5 -92l-170 -223q-148 84 -229 84q-36 0 -64 -20.5t-28 -57.5q0 -17 10 -34.5t31.5 -36.5 t41 -33.5t53.5 -38.5t54 -39q102 -76 151.5 -156t49.5 -174q0 -68 -25 -130.5t-73 -113t-126 -80.5t-176 -30q-224 0 -436 165zM145 -543l117 168h-86l45 262h203l-43 -290l-197 -218z" />
<glyph horiz-adv-x="987" d="M50 324q2 55 13 120l130 732h286l-137 -783q-6 -38 -7 -69t21 -50.5t68 -19.5q119 0 141 137l137 785h287l-131 -752q-14 -81 -32 -140.5t-51 -119.5t-79.5 -97.5t-119 -61t-166.5 -23.5q-85 0 -150 17t-105.5 48.5t-65.5 72.5t-33 95t-6 109zM348 1542h299l127 -287 h-229z" />
<glyph horiz-adv-x="987" d="M50 324q2 55 13 120l130 732h286l-137 -783q-6 -38 -7 -69t21 -50.5t68 -19.5q119 0 141 137l137 785h287l-131 -752q-14 -81 -32 -140.5t-51 -119.5t-79.5 -97.5t-119 -61t-166.5 -23.5q-85 0 -150 17t-105.5 48.5t-65.5 72.5t-33 95t-6 109zM346 1255l166 287h246 l-238 -287h-174zM637 1255l168 287h246l-240 -287h-174z" />
<glyph horiz-adv-x="897" d="M-33 147l170 222q167 -121 262 -121q38 0 63 21.5t25 58.5q0 23 -17.5 47t-37.5 39.5t-63 46.5t-66 49q-106 81 -153.5 161t-47.5 175q0 150 99 249t282 99q112 0 224.5 -37t195.5 -92l-170 -223q-148 84 -229 84q-36 0 -64 -20.5t-28 -57.5q0 -17 10 -34.5t31.5 -36.5 t41 -33.5t53.5 -38.5t54 -39q102 -76 151.5 -156t49.5 -174q0 -68 -25 -130.5t-73 -113t-126 -80.5t-176 -30q-224 0 -436 165zM270 1255l209 287h269l102 -287h-184l-68 144l-117 -144h-211z" />
<glyph horiz-adv-x="897" d="M-33 147l170 222q167 -121 262 -121q38 0 63 21.5t25 58.5q0 23 -17.5 47t-37.5 39.5t-63 46.5t-66 49q-106 81 -153.5 161t-47.5 175q0 150 99 249t282 99q112 0 224.5 -37t195.5 -92l-170 -223q-148 84 -229 84q-36 0 -64 -20.5t-28 -57.5q0 -17 10 -34.5t31.5 -36.5 t41 -33.5t53.5 -38.5t54 -39q102 -76 151.5 -156t49.5 -174q0 -64 -21.5 -123t-63.5 -108t-110.5 -81.5t-154.5 -39.5q18 -56 18 -127q0 -117 -61 -178.5t-146 -61.5q-89 0 -139 47l86 160q29 -23 59 -23q29 0 48.5 22.5t19.5 74.5q0 43 -14 90q-186 21 -357 159z" />
<glyph horiz-adv-x="632" d="M-80 -307l158 895h198l-57 -320q98 84 182 84q146 0 107 -207l-78 -452h-201l72 403q9 31 7 57.5t-23 26.5t-46.5 -19t-45.5 -46l-74 -422h-199z" />
<glyph horiz-adv-x="897" d="M-33 147l170 222q167 -121 262 -121q38 0 63 21.5t25 58.5q0 23 -17.5 47t-37.5 39.5t-63 46.5t-66 49q-106 81 -153.5 161t-47.5 175q0 150 99 249t282 99q112 0 224.5 -37t195.5 -92l-170 -223q-148 84 -229 84q-36 0 -64 -20.5t-28 -57.5q0 -17 10 -34.5t31.5 -36.5 t41 -33.5t53.5 -38.5t54 -39q102 -76 151.5 -156t49.5 -174q0 -68 -25 -130.5t-73 -113t-126 -80.5t-176 -30q-224 0 -436 165zM319 1542h187l69 -145l115 145h209l-207 -287h-268z" />
<glyph horiz-adv-x="739" d="M-36.5 -89.5q0.5 46.5 11.5 103.5l99 539h207l-105 -571q-5 -28 -5 -51.5t16.5 -38.5t50.5 -15q49 0 72.5 27.5t31.5 75.5l104 573h207l-100 -553q-11 -59 -24.5 -102.5t-38 -87t-58.5 -71t-86.5 -44.5t-120.5 -17q-74 0 -127 18.5t-81.5 48.5t-41 74.5t-12 91z" />
<glyph horiz-adv-x="897" d="M-33 147l170 222q167 -121 262 -121q38 0 63 21.5t25 58.5q0 23 -17.5 47t-37.5 39.5t-63 46.5t-66 49q-106 81 -153.5 161t-47.5 175q0 150 99 249t282 99q112 0 224.5 -37t195.5 -92l-170 -223q-148 84 -229 84q-36 0 -64 -20.5t-28 -57.5q0 -17 10 -34.5t31.5 -36.5 t41 -33.5t53.5 -38.5t54 -39q102 -76 151.5 -156t49.5 -174q0 -68 -25 -130.5t-73 -113t-126 -80.5t-176 -30q-224 0 -436 165zM373 1255l229 287h328l-299 -287h-258z" />
<glyph horiz-adv-x="897" d="M-33 147l170 222q167 -121 262 -121q38 0 63 21.5t25 58.5q0 23 -17.5 47t-37.5 39.5t-63 46.5t-66 49q-106 81 -153.5 161t-47.5 175q0 150 99 249t282 99q112 0 224.5 -37t195.5 -92l-170 -223q-148 84 -229 84q-36 0 -64 -20.5t-28 -57.5q0 -17 10 -34.5t31.5 -36.5 t41 -33.5t53.5 -38.5t54 -39q102 -76 151.5 -156t49.5 -174q0 -68 -25 -130.5t-73 -113t-126 -80.5t-176 -30q-224 0 -436 165z" />
<glyph horiz-adv-x="733" d="M123 788l151 861h263q84 0 142.5 -18t87 -50t39.5 -65.5t11 -75.5q0 -40 -8.5 -80t-29.5 -86t-64 -85t-103 -61l97 -340h-217l-76 314h-31l-57 -314h-205zM416 1282h53q75 0 108 37t33 84q0 36 -25.5 50.5t-74.5 14.5h-61z" />
<glyph horiz-adv-x="731" d="M-72 -307l152 860h262q281 0 281 -209q0 -39 -8.5 -79.5t-29.5 -86t-64 -84.5t-103 -61l96 -340h-217l-76 313h-31l-57 -313h-205zM221 186h53q75 0 108.5 37t33.5 84q0 66 -101 66h-61z" />
<glyph horiz-adv-x="980" d="M-6 0l207 1176h364q389 0 389 -287q0 -42 -6.5 -84t-25.5 -94t-48.5 -96t-81.5 -84.5t-120 -65.5l131 -465h-299l-105 428h-41l-77 -428h-287zM182 -543l117 168h-86l45 262h203l-43 -290l-197 -218zM401 676h72q54 0 94 15.5t60 40.5t29.5 51.5t9.5 54.5q0 49 -34 69.5 t-102 20.5h-86z" />
<glyph d="M-6 0l207 1176h364q389 0 389 -287q0 -42 -6.5 -84t-25.5 -94t-48.5 -96t-81.5 -84.5t-120 -65.5l131 -465h-299l-105 428h-41l-77 -428h-287zM379 1542h186l70 -145l115 145h208l-206 -287h-269zM401 676h72q54 0 94 15.5t60 40.5t29.5 51.5t9.5 54.5q0 49 -34 69.5 t-102 20.5h-86z" />
<glyph horiz-adv-x="980" d="M-6 0l207 1176h364q389 0 389 -287q0 -42 -6.5 -84t-25.5 -94t-48.5 -96t-81.5 -84.5t-120 -65.5l131 -465h-299l-105 428h-41l-77 -428h-287zM401 676h72q54 0 94 15.5t60 40.5t29.5 51.5t9.5 54.5q0 49 -34 69.5t-102 20.5h-86zM432 1255l230 287h327l-299 -287h-258z " />
<glyph horiz-adv-x="366" d="M-78 -307l115 645h199l-115 -645h-199zM45 410l31 176h205l-31 -176h-205z" />
<glyph horiz-adv-x="980" d="M-6 0l207 1176h364q389 0 389 -287q0 -42 -6.5 -84t-25.5 -94t-48.5 -96t-81.5 -84.5t-120 -65.5l131 -465h-299l-105 428h-41l-77 -428h-287zM401 676h72q54 0 94 15.5t60 40.5t29.5 51.5t9.5 54.5q0 49 -34 69.5t-102 20.5h-86z" />
<glyph horiz-adv-x="772" d="M154 1106q0 36 4 78.5t16 97.5t29.5 106.5t47.5 102t68 88.5t93 61t120 23q64 0 116.5 -18t94.5 -56t65 -104.5t23 -155.5q0 -51 -9 -113.5t-30 -137.5t-64 -144t-101 -109l86 -114l-162 -127l-113 190q-129 3 -206.5 82.5t-77.5 249.5zM362 1090q0 -49 23.5 -84 t71.5 -35q47 0 82.5 50.5t52.5 121t25 124t8 79.5q0 50 -24 85t-73 35q-47 0 -82.5 -50.5t-52 -121t-24 -124t-7.5 -80.5z" />
<glyph horiz-adv-x="987" d="M50 324q2 55 13 120l130 732h286l-137 -783q-6 -38 -7 -69t21 -50.5t68 -19.5q119 0 141 137l137 785h287l-131 -752q-14 -81 -32 -140.5t-51 -119.5t-79.5 -97.5t-119 -61t-166.5 -23.5q-85 0 -150 17t-105.5 48.5t-65.5 72.5t-33 95t-6 109zM381 1307l35 192h456 l-32 -192h-459z" />
<glyph horiz-adv-x="987" d="M51.5 308q1.5 61 14.5 136l129 732h286l-137 -783q-6 -38 -7 -69t21 -50.5t68 -19.5q119 0 141 137l138 785h286l-131 -752q-15 -86 -35 -148t-54.5 -122t-90 -99t-131.5 -57q-3 -3 -20 -18t-22 -19.5t-20 -18.5t-21 -20.5t-18.5 -20t-18 -21.5t-13.5 -20.5t-11.5 -22.5 t-6.5 -21.5t-3 -22.5q0 -15 5.5 -25t12 -15.5t19.5 -8t19 -3t20 0.5h14l-53 -148h-16h-23t-26.5 1.5t-30.5 4t-30.5 8t-30.5 13.5t-26 20t-22.5 27.5t-14 37t-5.5 46.5q0 131 153 232q-88 6 -150.5 34t-96 69t-48.5 100.5t-13.5 120.5z" />
<glyph horiz-adv-x="774" d="M-39 10q0 43 6.5 94t21.5 116.5t44 125t68.5 110t101.5 81t137 30.5q64 0 116.5 -18t94.5 -56t65 -104.5t23 -155.5q0 -51 -9.5 -113.5t-30.5 -137t-64 -143.5t-101 -109l86 -115l-162 -127l-112 190q-129 3 -207 82.5t-78 249.5zM170 -6q0 -49 23 -84t71 -35 q47 0 82.5 50.5t52.5 121t25 124t8 79.5q0 50 -23.5 85.5t-72.5 35.5q-38 0 -69 -35t-48 -83.5t-29 -105t-16 -95t-4 -58.5z" />
<glyph horiz-adv-x="583" d="M-61 -74q0 190 86 308t237 118q88 0 139.5 -49.5t51.5 -132.5q0 -56 -17 -97.5t-43.5 -65t-65 -37.5t-74.5 -18.5t-79 -4.5h-39v-17q0 -88 49 -88q40 0 158 66l55 -150q-23 -13 -58 -29t-96.5 -33.5t-111.5 -17.5q-88 0 -140 60.5t-52 187.5zM147 61h27q49 0 77 25.5 t28 69.5q0 39 -37 39q-35 0 -59.5 -37.5t-35.5 -96.5z" />
<glyph horiz-adv-x="1048" d="M53 436q0 50 6 108.5t22 133t40.5 145t66 139t93.5 119t127.5 82t164.5 31.5q87 0 159.5 -24.5t131 -76.5t91 -142t32.5 -212q0 -71 -12.5 -156.5t-41.5 -187.5t-87.5 -194.5t-138.5 -147.5l118 -157l-225 -177l-154 263q-85 3 -153.5 29t-123.5 78t-85.5 140.5 t-30.5 206.5zM342 414q0 -66 31 -113t100 -47q52 0 94 47t66 112.5t40 141.5t21.5 128.5t5.5 78.5q0 66 -32 113t-101 47q-52 0 -94 -47t-65.5 -112.5t-39 -141.5t-21 -128t-5.5 -79z" />
<glyph horiz-adv-x="698" d="M123 788l151 861h242q69 0 121 -14t82 -35.5t48 -53t24 -61.5t6 -66q0 -159 -99 -251.5t-288 -92.5h-27l-55 -287h-205zM414 1264h32q68 0 104 35.5t36 86.5q0 39 -24 55.5t-75 16.5h-41z" />
<glyph horiz-adv-x="696" d="M-72 -307l152 860h242q69 0 121 -13.5t81.5 -35t47.5 -53t24 -61.5t6 -66q0 -159 -99 -251.5t-288 -92.5h-27l-55 -287h-205zM219 168h33q68 0 103.5 36t35.5 87q0 39 -23.5 55t-74.5 16h-41z" />
<glyph horiz-adv-x="368" d="M-205 -426q77 34 97.5 57.5t31.5 83.5l109 623h198l-106 -604q-7 -38 -11 -58t-11 -49.5t-14.5 -44.5t-19 -37.5t-25.5 -34.5t-34 -28.5t-45.5 -27.5t-58 -23t-72.5 -23zM41 410l31 176h204l-30 -176h-205z" />
<glyph horiz-adv-x="1036" d="M20 328q0 69 19 131.5t48.5 108.5t72.5 88t83 70t89 56q-117 114 -117 273q0 173 118.5 287t315.5 114q172 0 260 -88.5t88 -230.5q0 -65 -19 -122.5t-53.5 -102t-72 -77.5t-86.5 -65q170 -139 170 -342q0 -197 -137 -324t-375 -127q-202 0 -303 94.5t-101 256.5z M342 369q0 -63 29.5 -96t83.5 -33q73 0 119.5 54.5t46.5 139.5q0 114 -99 199q-86 -56 -133 -118t-47 -146zM500 1051q0 -82 71 -146q136 90 136 201q0 43 -20.5 69.5t-63.5 26.5q-58 0 -90.5 -45t-32.5 -106z" />
<glyph horiz-adv-x="940" d="M-6 0l207 1176h338q79 0 142 -12.5t104 -36.5t69.5 -52.5t43 -66t20.5 -72t6 -74.5q0 -219 -137 -346t-398 -127h-39l-69 -389h-287zM395 651h43q96 0 145.5 48t49.5 116q0 53 -32 73.5t-101 20.5h-60z" />
<glyph horiz-adv-x="1048" d="M51 436q0 50 6 108.5t22 133t40.5 145t66 139t93.5 119t127.5 82t164.5 31.5q88 0 160.5 -24.5t131 -76.5t91.5 -142t33 -212q0 -50 -6 -108t-22 -133t-40.5 -145t-66 -138.5t-93.5 -119t-127.5 -82t-164.5 -31.5t-161.5 24.5t-131 76t-91 141.5t-32.5 212zM342 414 q0 -66 31 -113t100 -47q51 0 93 47t65.5 112.5t39.5 141.5t21.5 128.5t5.5 78.5q0 66 -32 113t-101 47q-63 0 -110.5 -68t-70 -163.5t-32.5 -167.5t-10 -109zM360 1352q28 51 46.5 80.5t46 61.5t57.5 47t65 15q33 0 70.5 -24.5t68.5 -49t50 -24.5q38 0 94 98l111 -90 q-22 -38 -28 -48.5t-25.5 -41t-29 -40.5t-28 -29.5t-33 -26.5t-34.5 -13.5t-41 -6.5q-33 0 -69.5 24.5t-67 49t-48.5 24.5q-38 0 -96 -96z" />
<glyph horiz-adv-x="772" d="M154 1106q0 36 4 78.5t16 97.5t29.5 106.5t47.5 102t68 88.5t93 61t120 23q64 0 116.5 -18t94.5 -56t65 -104.5t23 -155.5q0 -35 -4 -77t-16 -97t-29.5 -106.5t-47.5 -102t-67.5 -88.5t-92.5 -61t-119 -23q-135 0 -218 79.5t-83 252.5zM362 1090q0 -49 23.5 -84t71.5 -35 q47 0 82.5 50.5t52.5 121t25 124t8 79.5q0 50 -24 85t-73 35q-47 0 -82.5 -50.5t-52 -121t-24 -124t-7.5 -80.5z" />
<glyph horiz-adv-x="620" d="M-80 -307l158 895h198l-77 -436l120 186h228l-217 -264l127 -381h-205l-57 215l-50 -60l-26 -155h-199z" />
<glyph horiz-adv-x="655" d="M113 788l157 895h199l-78 -436l121 187h227l-217 -265l127 -381h-205l-57 216l-49 -60l-27 -156h-198z" />
<glyph horiz-adv-x="1050" d="M-18 0l127 166q-58 107 -58 270q0 50 6 108.5t22 133t40.5 145t66 139t93.5 119t127.5 82t164.5 31.5q161 0 263 -78l45 60h188l-135 -177q55 -104 55 -260q0 -50 -6 -108t-22 -133t-40.5 -145t-66 -138.5t-93.5 -119t-127.5 -82t-164.5 -31.5q-158 0 -258 71l-41 -53 h-186zM346 477l311 408q-32 37 -92 37q-43 0 -79.5 -33.5t-59.5 -82t-40.5 -113t-26 -115.5t-13.5 -101zM385 285q34 -31 88 -31q42 0 77.5 31.5t58.5 78t41 108.5t27 112.5t15 101.5zM453 1255l229 287h328l-299 -287h-258z" />
<glyph horiz-adv-x="1030" d="M18 328q0 69 19 131.5t48.5 108.5t72.5 88t83 70t89 56q-117 114 -117 273q0 173 118.5 287t315.5 114q172 0 260 -88.5t88 -230.5q0 -65 -19 -122.5t-53.5 -102t-72 -77.5t-86.5 -65q170 -139 170 -342q0 -197 -137 -324t-375 -127q-202 0 -303 94.5t-101 256.5z M340 369q0 -63 29.5 -96t83.5 -33q73 0 119 54.5t46 139.5q0 115 -98 199q-86 -56 -133 -118t-47 -146zM498 1051q0 -82 71 -146q136 90 136 201q0 43 -20.5 69.5t-63.5 26.5q-58 0 -90.5 -45t-32.5 -106z" />
<glyph horiz-adv-x="1048" d="M51 436q0 50 6 108.5t22 133t40.5 145t66 139t93.5 119t127.5 82t164.5 31.5q88 0 160.5 -24.5t131 -76.5t91.5 -142t33 -212q0 -50 -6 -108t-22 -133t-40.5 -145t-66 -138.5t-93.5 -119t-127.5 -82t-164.5 -31.5t-161.5 24.5t-131 76t-91 141.5t-32.5 212zM342 414 q0 -66 31 -113t100 -47q51 0 93 47t65.5 112.5t39.5 141.5t21.5 128.5t5.5 78.5q0 66 -32 113t-101 47q-63 0 -110.5 -68t-70 -163.5t-32.5 -167.5t-10 -109zM416 1307l35 192h456l-33 -192h-458z" />
<glyph horiz-adv-x="770" d="M-41 10q0 43 6.5 94t21.5 116.5t44 125t68.5 110t101.5 81t137 30.5q64 0 116.5 -18t94.5 -56t65 -104.5t23 -155.5q0 -42 -6.5 -93t-21.5 -116t-43.5 -124t-68 -110t-101 -81.5t-136.5 -30.5q-135 0 -218 79.5t-83 252.5zM168 -6q0 -49 23 -84t71 -35q47 0 82.5 50.5 t52.5 121t25 124t8 79.5q0 50 -23.5 85.5t-72.5 35.5q-38 0 -69 -35t-48 -83.5t-29 -105t-16 -95t-4 -58.5z" />
<glyph horiz-adv-x="1046" d="M51 436q0 50 6 108.5t22 133t40.5 145t66 139t93.5 119t127.5 82t164.5 31.5q88 0 160.5 -24.5t131 -76.5t91.5 -142t33 -212q0 -50 -6 -108t-22 -133t-40.5 -145t-66 -138.5t-93.5 -119t-127.5 -82t-164.5 -31.5t-161.5 24.5t-131 76t-91 141.5t-32.5 212zM342 414 q0 -66 31 -113t100 -47q51 0 93 47t65.5 112.5t39.5 141.5t21.5 128.5t5.5 78.5q0 66 -32 113t-101 47q-63 0 -110.5 -68t-70 -163.5t-32.5 -167.5t-10 -109zM383 1255l166 287h246l-238 -287h-174zM674 1255l168 287h245l-239 -287h-174z" />
<glyph horiz-adv-x="1048" d="M51 436q0 50 6 108.5t22 133t40.5 145t66 139t93.5 119t127.5 82t164.5 31.5q88 0 160.5 -24.5t131 -76.5t91.5 -142t33 -212q0 -50 -6 -108t-22 -133t-40.5 -145t-66 -138.5t-93.5 -119t-127.5 -82t-164.5 -31.5t-161.5 24.5t-131 76t-91 141.5t-32.5 212zM342 414 q0 -66 31 -113t100 -47q51 0 93 47t65.5 112.5t39.5 141.5t21.5 128.5t5.5 78.5q0 66 -32 113t-101 47q-63 0 -110.5 -68t-70 -163.5t-32.5 -167.5t-10 -109zM385 1542h299l127 -287h-229z" />
<glyph horiz-adv-x="673" d="M80 774q0 166 186 270q-67 67 -67 160q0 104 74.5 174t197.5 70q110 0 165.5 -54.5t55.5 -142.5q0 -129 -137 -215q102 -83 102 -205q0 -118 -85.5 -195t-237.5 -77q-127 0 -190.5 58.5t-63.5 156.5zM289 803q0 -72 65 -72q43 0 71 31t28 76q0 63 -58 110 q-106 -64 -106 -145zM385 1202q0 -47 41 -80q76 48 76 107q0 51 -45 51q-34 0 -53 -24t-19 -54z" />
<glyph horiz-adv-x="358" d="M-82 -307l158 895h198l-157 -895h-199z" />
<glyph horiz-adv-x="671" d="M-20 201q0 166 186 270q-68 68 -68 160q0 104 75 173.5t198 69.5q110 0 165.5 -54t55.5 -142q0 -129 -137 -215q102 -83 102 -205q0 -118 -86 -195t-238 -77q-127 0 -190 58.5t-63 156.5zM188 229q0 -71 66 -71q43 0 70.5 30.5t27.5 75.5q0 64 -57 111 q-107 -65 -107 -146zM285 629q0 -47 41 -80q75 47 75 106q0 52 -45 52q-34 0 -52.5 -24t-18.5 -54z" />
<glyph horiz-adv-x="823" d="M-29 0l37 213q12 5 31.5 14.5t63 49t67.5 88.5h-119l25 133h125v6q0 21 -4 57h-111l25 135h59q-14 72 -14 142q0 166 80 261t227 95q187 0 371 -166l-148 -184q-105 84 -166 84q-39 0 -61.5 -30.5t-22.5 -74.5q0 -37 21 -127h229l-24 -135h-187v-8q0 -23 -4 -55h180 l-24 -133h-193q-39 -80 -69 -101h317l-47 -264h-664z" />
<glyph horiz-adv-x="598" d="M-96 -307l26 153q9 4 23 11.5t45.5 38t48.5 67.5h-88l16 92h93v6q0 8 -5 43h-79l16 95h45q-10 52 -10 106q0 122 57.5 192t161.5 70q129 0 266 -121l-104 -133q-75 62 -121 62q-28 0 -43.5 -22.5t-15.5 -57.5t14 -96h164l-17 -95h-135v-8q0 -17 -4 -41h131l-16 -92h-137 q-23 -57 -54 -80h228l-35 -190h-471z" />
<glyph horiz-adv-x="598" d="M96 788l27 154q9 4 23 11.5t45.5 38t48.5 67.5h-88l16 92h92v6q0 15 -4 43h-80l17 94h45q-11 57 -11 107q0 122 57.5 192t161.5 70q130 0 267 -121l-105 -133q-74 61 -121 61q-28 0 -43.5 -22t-15.5 -57q0 -36 14 -97h164l-16 -94h-135v-8q0 -17 -4 -41h131l-17 -92h-137 q-24 -58 -53 -80h227l-35 -191h-471z" />
<glyph horiz-adv-x="1048" d="M51 436q0 50 6 108.5t22 133t40.5 145t66 139t93.5 119t127.5 82t164.5 31.5q88 0 160.5 -24.5t131 -76.5t91.5 -142t33 -212q0 -50 -6 -108t-22 -133t-40.5 -145t-66 -138.5t-93.5 -119t-127.5 -82t-164.5 -31.5t-161.5 24.5t-131 76t-91 141.5t-32.5 212zM342 414 q0 -66 31 -113t100 -47q51 0 93 47t65.5 112.5t39.5 141.5t21.5 128.5t5.5 78.5q0 66 -32 113t-101 47q-63 0 -110.5 -68t-70 -163.5t-32.5 -167.5t-10 -109zM395 1278l43 250h215l-43 -250h-215zM680 1278l43 250h215l-43 -250h-215z" />
<glyph horiz-adv-x="1048" d="M51 436q0 50 6 108.5t22 133t40.5 145t66 139t93.5 119t127.5 82t164.5 31.5q88 0 160.5 -24.5t131 -76.5t91.5 -142t33 -212q0 -50 -6 -108t-22 -133t-40.5 -145t-66 -138.5t-93.5 -119t-127.5 -82t-164.5 -31.5t-161.5 24.5t-131 76t-91 141.5t-32.5 212zM342 414 q0 -66 31 -113t100 -47q51 0 93 47t65.5 112.5t39.5 141.5t21.5 128.5t5.5 78.5q0 66 -32 113t-101 47q-63 0 -110.5 -68t-70 -163.5t-32.5 -167.5t-10 -109zM346 1255l209 287h268l103 -287h-185l-67 144l-117 -144h-211z" />
<glyph horiz-adv-x="987" d="M50 324q2 55 13 120l130 732h286l-137 -783q-6 -38 -7 -69t21 -50.5t68 -19.5q119 0 141 137l137 785h287l-131 -752q-14 -81 -32 -140.5t-51 -119.5t-79.5 -97.5t-119 -61t-166.5 -23.5q-85 0 -150 17t-105.5 48.5t-65.5 72.5t-33 95t-6 109zM422 1442q0 85 60 146 t147 61q85 0 146 -61t61 -146q0 -87 -61 -147t-146 -60q-88 0 -147.5 59.5t-59.5 147.5zM559 1442q0 -29 20.5 -48.5t49.5 -19.5q28 0 47.5 19.5t19.5 48.5q0 28 -19.5 47.5t-47.5 19.5q-29 0 -49.5 -19.5t-20.5 -47.5z" />
<glyph horiz-adv-x="1048" d="M51 436q0 50 6 108.5t22 133t40.5 145t66 139t93.5 119t127.5 82t164.5 31.5q88 0 160.5 -24.5t131 -76.5t91.5 -142t33 -212q0 -50 -6 -108t-22 -133t-40.5 -145t-66 -138.5t-93.5 -119t-127.5 -82t-164.5 -31.5t-161.5 24.5t-131 76t-91 141.5t-32.5 212zM342 414 q0 -66 31 -113t100 -47q51 0 93 47t65.5 112.5t39.5 141.5t21.5 128.5t5.5 78.5q0 66 -32 113t-101 47q-63 0 -110.5 -68t-70 -163.5t-32.5 -167.5t-10 -109zM424 1518h174q-6 -39 10.5 -61.5t50.5 -22.5q50 0 80.5 22t34.5 62h176q-23 -124 -102 -193.5t-201 -69.5 q-127 0 -185.5 73t-37.5 190z" />
<glyph horiz-adv-x="751" d="M160.5 1006.5q0.5 46.5 11.5 103.5l98 539h207l-104 -572q-5 -28 -5.5 -51.5t16 -38t50.5 -14.5q49 0 73 27t32 75l104 574h207l-100 -553q-11 -59 -24.5 -102.5t-38 -87t-58.5 -71t-86.5 -44.5t-120.5 -17q-74 0 -127 18.5t-81.5 48.5t-41 74.5t-12 91z" />
<glyph horiz-adv-x="1048" d="M51 436q0 50 6 108.5t22 133t40.5 145t66 139t93.5 119t127.5 82t164.5 31.5q88 0 160.5 -24.5t131 -76.5t91.5 -142t33 -212q0 -50 -6 -108t-22 -133t-40.5 -145t-66 -138.5t-93.5 -119t-127.5 -82t-164.5 -31.5t-161.5 24.5t-131 76t-91 141.5t-32.5 212zM342 414 q0 -66 31 -113t100 -47q51 0 93 47t65.5 112.5t39.5 141.5t21.5 128.5t5.5 78.5q0 66 -32 113t-101 47q-63 0 -110.5 -68t-70 -163.5t-32.5 -167.5t-10 -109zM451 1255l229 287h328l-299 -287h-258z" />
<glyph horiz-adv-x="1443" d="M51 436q0 50 6 108.5t22 133t40.5 145t66 139t93.5 119t127.5 82t164.5 31.5q132 0 220 -49l6 31h673l-49 -273h-385l-32 -182h309l-47 -264h-308l-32 -187h389l-49 -270h-670q-58 -18 -129 -18q-89 0 -161.5 24.5t-131 76t-91 141.5t-32.5 212zM342 414q0 -66 31 -113 t100 -47q51 0 93 47t65.5 112.5t39.5 141.5t21.5 128.5t5.5 78.5q0 66 -32 113t-101 47q-63 0 -110.5 -68t-70 -163.5t-32.5 -167.5t-10 -109z" />
<glyph horiz-adv-x="909" d="M-88 -307l115 645h198l-14 -76q82 90 164 90q49 0 76 -28.5t32 -77.5q84 106 181 106q68 0 94 -55t10 -145l-82 -459h-199l76 424q6 28 2.5 45.5t-20.5 17.5q-33 0 -72 -61l-76 -426h-198l75 424q10 63 -20 63q-34 0 -68 -59l-75 -428h-199z" />
<glyph horiz-adv-x="987" d="M50 324q2 55 13 120l130 732h286l-137 -783q-6 -38 -7 -69t21 -50.5t68 -19.5q119 0 141 137l137 785h287l-131 -752q-14 -81 -32 -140.5t-51 -119.5t-79.5 -97.5t-119 -61t-166.5 -23.5q-85 0 -150 17t-105.5 48.5t-65.5 72.5t-33 95t-6 109zM326 1352q28 51 46.5 80.5 t46 61.5t57.5 47t65 15q33 0 70 -24.5t68 -49t50 -24.5q38 0 94 98l111 -90q-22 -38 -28 -48.5t-25.5 -41t-29 -40.5t-28 -29.5t-33 -26.5t-34.5 -13.5t-41 -6.5q-33 0 -69.5 24.5t-67 49t-48.5 24.5q-38 0 -96 -96z" />
<glyph horiz-adv-x="972" d="M117 1176h313l10 -785l289 785h318l-515 -1176h-313z" />
<glyph horiz-adv-x="1048" d="M51 436q0 50 6 108.5t22 133t40.5 145t66 139t93.5 119t127.5 82t164.5 31.5q88 0 160.5 -24.5t131 -76.5t91.5 -142t33 -212q0 -50 -6 -108t-22 -133t-40.5 -145t-66 -138.5t-93.5 -119t-127.5 -82t-164.5 -31.5t-161.5 24.5t-131 76t-91 141.5t-32.5 212zM342 414 q0 -66 31 -113t100 -47q51 0 93 47t65.5 112.5t39.5 141.5t21.5 128.5t5.5 78.5q0 66 -32 113t-101 47q-63 0 -110.5 -68t-70 -163.5t-32.5 -167.5t-10 -109z" />
<glyph horiz-adv-x="1019" d="M-6 0l207 1176h288l127 -641l113 641h287l-207 -1176h-291l-127 633l-110 -633h-287zM354 1352q28 51 46.5 80.5t46 61.5t57.5 47t65 15q33 0 70.5 -24.5t68.5 -49t50 -24.5q38 0 94 98l111 -90q-21 -35 -28.5 -48t-26 -41.5t-28.5 -40t-28 -30t-33 -26t-35 -14t-41 -6.5 q-33 0 -69 24.5t-66.5 49t-48.5 24.5q-38 0 -96 -96z" />
<glyph horiz-adv-x="772" d="M123 788l151 861h207l92 -467l82 467h205l-149 -861h-207l-94 472l-82 -472h-205z" />
<glyph horiz-adv-x="772" d="M-72 -307l152 860h207l92 -467l82 467h205l-150 -860h-207l-94 471l-82 -471h-205z" />
<glyph horiz-adv-x="1019" d="M-6 0l207 1176h288l127 -641l113 641h287l-207 -1176h-291l-127 633l-110 -633h-287zM203 -543l116 168h-86l46 262h202l-43 -290l-196 -218z" />
<glyph horiz-adv-x="1019" d="M-6 0l207 1176h288l127 -641l113 641h287l-207 -1176h-291l-127 633l-110 -633h-287zM389 1542h186l70 -145l115 145h209l-207 -287h-268z" />
<glyph horiz-adv-x="1019" d="M-6 0l207 1176h288l127 -641l113 641h287l-207 -1176h-291l-127 633l-110 -633h-287zM512 1255l229 287h328l-299 -287h-258z" />
<glyph horiz-adv-x="1019" d="M-6 0l207 1176h288l127 -641l113 641h287l-207 -1176h-291l-127 633l-110 -633h-287z" />
<glyph horiz-adv-x="655" d="M-23 18l89 166q28 -10 63 -10q76 0 133.5 46t93.5 124q-43 -43 -110 -43q-87 0 -137 65.5t-50 165.5q0 137 78.5 239.5t208.5 102.5q127 0 195.5 -89t68.5 -222q0 -106 -34 -208t-94 -184.5t-152.5 -133.5t-200.5 -51q-44 0 -82 8t-54 16zM268 549q0 -33 14.5 -56.5 t45.5 -23.5q24 0 45 16t30 39q3 24 3 47q0 115 -64 115q-35 0 -54.5 -41t-19.5 -96z" />
<glyph horiz-adv-x="696" d="M2 553h223l8 -576l211 576h228l-375 -860h-223z" />
<glyph horiz-adv-x="987" d="M-41 -233l135 249q44 -16 101 -16q133 0 231 91.5t154 242.5q-82 -90 -197 -90q-135 0 -214 109t-79 272q0 108 31.5 210t89 182t145.5 128.5t193 48.5q132 0 226 -71.5t137.5 -184t43.5 -250.5q0 -142 -33.5 -282.5t-100 -264.5t-156.5 -219.5t-212 -151t-259 -55.5 q-68 0 -127 13t-84 26zM406 649q0 -64 24 -107.5t78 -43.5q41 0 77.5 34t55.5 80q4 31 4 88q0 96 -26.5 152.5t-77.5 56.5q-43 0 -74.5 -39t-46 -97t-14.5 -124z" />
<glyph horiz-adv-x="1036" d="M27 29l135 250q43 -17 100 -17q133 0 231 91.5t154 242.5q-82 -90 -196 -90q-135 0 -214 109t-79 272q0 109 31.5 210.5t88.5 181.5t145 128.5t193 48.5q100 0 179 -41t128.5 -111.5t75 -161t25.5 -192.5q0 -142 -33.5 -282.5t-100 -264.5t-157 -219.5t-212.5 -151 t-259 -55.5q-68 0 -127 13t-83 26zM473 911q0 -64 24 -107.5t78 -43.5q41 0 78 34t56 80q4 62 4 89q0 95 -27 151.5t-78 56.5q-43 0 -74.5 -39t-46 -97t-14.5 -124z" />
<glyph horiz-adv-x="696" d="M195 1649h223l8 -576l211 576h227l-375 -861h-223z" />
<glyph horiz-adv-x="1302" d="M127 1176h317l-26 -633l219 633h209l-2 -633l194 633h328l-446 -1176h-267l2 680l-235 -680h-260z" />
<glyph horiz-adv-x="643" d="M-86 -307l115 645h198l-12 -66q98 80 180 80q146 0 107 -207l-78 -452h-199l72 405q8 29 5 55.5t-26 26.5q-42 0 -88 -61l-75 -426h-199z" />
<glyph horiz-adv-x="1302" d="M127 1176h317l-26 -633l219 633h209l-2 -633l194 633h328l-446 -1176h-267l2 680l-235 -680h-260zM573 1255l230 287h327l-299 -287h-258z" />
<glyph horiz-adv-x="925" d="M-23 147l170 222q167 -121 263 -121q38 0 63 21.5t25 58.5q0 23 -17.5 47t-37.5 39.5t-63 46t-67 49.5q-106 81 -153 161t-47 175q0 94 38 169t120.5 124.5t199.5 54.5l27 152h192l-31 -172q133 -34 254 -109l-170 -223q-148 84 -229 84q-36 0 -64 -20.5t-28 -57.5 q0 -17 10 -34.5t31.5 -36.5t41 -33.5t53.5 -38.5t54 -39q102 -76 151.5 -156t49.5 -174q0 -138 -94 -240t-268 -112l-27 -152h-193l29 168q-143 37 -283 147z" />
<glyph horiz-adv-x="868" d="M123 788l151 861h209l60 -416l207 416h208l-151 -861h-205l78 445l-145 -301h-86l-41 313l-80 -457h-205z" />
<glyph horiz-adv-x="868" d="M-72 -307l152 860h209l59 -416l207 416h209l-152 -860h-204l77 444l-145 -301h-86l-41 314l-80 -457h-205z" />
<glyph horiz-adv-x="946" d="M-6 242l41 229h139l70 234h-115l41 229h139l72 242h207l-72 -242h107l71 242h207l-72 -242h115l-43 -229h-137l-70 -234h113l-39 -229h-141l-70 -242h-209l70 242h-107l-69 -242h-205l69 242h-112zM379 471h106l70 234h-106z" />
<glyph horiz-adv-x="688" d="M-86 -129l29 164h100l49 174h-82l29 166h100l51 178h150l-51 -178h76l51 178h149l-51 -178h82l-29 -166h-100l-49 -174h82l-27 -164h-102l-49 -178h-150l49 178h-76l-49 -178h-149l49 178h-82zM193 35h75l49 174h-75z" />
<glyph horiz-adv-x="688" d="M109 967l28 163h101l49 175h-82l28 165h101l51 179h150l-52 -179h76l51 179h150l-51 -179h82l-29 -165h-100l-50 -175h82l-26 -163h-103l-49 -179h-149l49 179h-76l-49 -179h-150l49 179h-81zM387 1130h76l49 175h-76z" />
<glyph horiz-adv-x="1155" d="M-6 0l207 1176h291l83 -564l285 564h289l-207 -1176h-285l109 618l-205 -421h-117l-55 421l-108 -618h-287z" />
<glyph horiz-adv-x="595" d="M123 788l151 861h205l-119 -666h275l-33 -195h-479z" />
<glyph horiz-adv-x="813" d="M-16 299l49 276l90 56l96 545h287l-60 -342l172 108l-49 -280l-172 -107l-49 -285h377l-47 -270h-666l62 354z" />
<glyph horiz-adv-x="595" d="M-72 -307l152 860h205l-119 -666h274l-32 -194h-480z" />
<glyph horiz-adv-x="800" d="M-6 0l207 1176h286l-157 -906h377l-48 -270h-665zM489 500l48 262h229l-47 -262h-230z" />
<glyph horiz-adv-x="794" d="M-6 0l207 1176h286l-157 -906h377l-48 -270h-665zM125 -543l117 168h-86l45 262h202l-43 -290l-196 -218z" />
<glyph horiz-adv-x="1302" d="M127 1176h317l-26 -633l219 633h209l-2 -633l194 633h328l-446 -1176h-267l2 680l-235 -680h-260zM469 1255l209 287h268l103 -287h-185l-67 144l-117 -144h-211z" />
<glyph horiz-adv-x="796" d="M-6 0l207 1176h286l-157 -906h377l-48 -270h-665zM461 745l117 168h-86l45 263h202l-43 -291l-196 -217z" />
<glyph horiz-adv-x="794" d="M-6 0l207 1176h286l-157 -906h377l-48 -270h-665zM168 1255l229 287h328l-299 -287h-258z" />
<glyph horiz-adv-x="626" d="M-53 -61q0 29 3 61.5t12 74t23 79t37.5 74.5t53.5 64t73 43.5t95 16.5q31 0 61 -5.5t65 -23t61 -45t43.5 -75.5t17.5 -111q0 -43 -6.5 -91t-27 -107.5t-51.5 -105.5t-86 -78t-126 -32q-31 0 -61.5 6t-65.5 23.5t-60.5 45t-43 75.5t-17.5 111zM141 -84q0 -68 52 -68 q27 0 48.5 31.5t32 77.5t16 87t5.5 71q0 67 -51 67q-27 0 -48 -31.5t-32.5 -77.5t-17 -87t-5.5 -70z" />
<glyph horiz-adv-x="794" d="M-6 0l207 1176h286l-157 -906h377l-48 -270h-665z" />
<glyph horiz-adv-x="731" d="M123 788l151 861h205l-51 -287l217 287h254l-328 -396l177 -465h-232l-88 291l-61 -73l-39 -218h-205z" />
<glyph horiz-adv-x="538" d="M27 719l215 141h198l-153 -860h-205l115 637l-93 -55z" />
<glyph horiz-adv-x="536" d="M127 1292l215 142h199l-154 -861h-205l115 637l-92 -55z" />
<glyph horiz-adv-x="714" d="M66 950l337 226h299l-206 -1176h-314l148 836l-148 -99z" />
<glyph horiz-adv-x="1036" d="M-16 0l51 289h284l142 805l-168 -113l-119 213l361 240h299l-203 -1145h297l-51 -289h-893z" />
<glyph horiz-adv-x="649" d="M-76 -121q0 54 9 115t29 125t49 115.5t73 84.5t96 33q45 0 71.5 -19t57.5 -59l56 314h198l-157 -895h-199l12 69q-43 -41 -80 -62.5t-80 -21.5q-38 0 -65.5 18t-42 49t-21 64t-6.5 70zM125 -78q0 -28 9.5 -46.5t27.5 -18.5q39 0 86 71l33 181q-21 63 -58 63 q-24 0 -44 -30.5t-31 -73.5t-17 -82.5t-6 -63.5z" />
<glyph horiz-adv-x="1206" d="M111 1063l182 113h158l-132 -705h-163l100 528l-82 -49zM145 0l613 1176h174l-613 -1176h-174zM588 164q0 137 164 223q-62 59 -62 133q0 85 64 141t168 56q92 0 139 -45t47 -115q0 -106 -123 -178q92 -66 92 -168q0 -97 -73 -160t-199 -63q-108 0 -162.5 48t-54.5 128z M754 186q0 -29 17 -45t48 -16q41 0 67.5 25.5t26.5 64.5q0 55 -57 98q-49 -28 -75.5 -58t-26.5 -69zM840 516q0 -41 41 -70q73 43 73 93q0 47 -45 47q-31 0 -50 -22t-19 -48z" />
<glyph horiz-adv-x="1216" d="M113 1063l182 113h158l-131 -705h-164l100 528l-82 -49zM147 0l613 1176h174l-612 -1176h-175zM598 96l94 115q66 -66 121 -66q40 0 69 29.5t29 75.5q0 72 -65 72q-44 0 -94 -37l-80 55l96 365h377l-27 -152h-239l-19 -92q24 6 51 6q83 0 126.5 -55.5t43.5 -139.5 q0 -73 -29 -136.5t-90 -105.5t-141 -42q-126 0 -223 108z" />
<glyph horiz-adv-x="729" d="M-72 -307l152 860h205l-52 -287l218 287h254l-328 -395l176 -465h-231l-89 291l-61 -74l-39 -217h-205z" />
<glyph horiz-adv-x="1216" d="M113 1063l180 113h158l-132 -705h-161l98 528l-82 -49zM147 0l611 1176h174l-613 -1176h-172zM586 0l14 76q29 158 213 291q46 34 73 55t53 51t26 51q2 18 -10.5 28.5t-39.5 10.5q-49 0 -141 -57l-63 119q124 92 241 92q88 0 135.5 -48t47.5 -116q0 -39 -17 -79.5 t-36 -67.5t-53.5 -59.5t-49 -43.5l-43.5 -33q-38 -29 -57.5 -44.5t-39 -37.5t-24.5 -38h244l-25 -150h-448z" />
<glyph horiz-adv-x="1302" d="M127 1176h317l-26 -633l219 633h209l-2 -633l194 633h328l-446 -1176h-267l2 680l-235 -680h-260zM518 1276l43 250h215l-43 -250h-215zM803 1276l43 250h215l-43 -250h-215z" />
<glyph horiz-adv-x="980" d="M-6 0l207 1176h286l-69 -392l297 392h352l-451 -541l244 -635h-323l-123 393l-82 -98l-51 -295h-287zM180 -543l117 168h-86l45 262h203l-43 -290l-197 -218z" />
<glyph horiz-adv-x="1189" d="M113 1063l180 113h158l-132 -705h-163l100 528l-82 -49zM147 0l611 1176h174l-613 -1176h-172zM522 125l23 127l313 453h219l-80 -429h78l-24 -151h-82l-23 -125h-164l23 125h-283zM702 276h132l49 267z" />
<glyph horiz-adv-x="1216" d="M113 1063l182 113h158l-131 -705h-164l100 528l-82 -49zM147 0l613 1176h174l-612 -1176h-175zM600 244q0 69 18.5 137t54.5 128.5t84.5 107t114 73.5t138.5 27q36 0 67 -6.5t45 -13.5l13 -7l-70 -131q-22 8 -53 8q-135 0 -207 -147q47 37 102 37q74 0 118 -54t44 -135 q0 -112 -67 -196t-179 -84q-107 0 -165 73.5t-58 182.5zM766 238q0 -101 61 -101q35 0 54.5 35t19.5 82q0 72 -57 72q-24 0 -45 -15.5t-33 -36.5v-36z" />
<glyph horiz-adv-x="980" d="M-6 0l207 1176h286l-69 -392l297 392h352l-451 -541l244 -635h-323l-123 393l-82 -98l-51 -295h-287z" />
<glyph horiz-adv-x="1302" d="M127 1176h317l-26 -633l219 633h209l-2 -633l194 633h328l-446 -1176h-267l2 680l-235 -680h-260zM508 1542h299l127 -287h-229z" />
<glyph horiz-adv-x="1198" d="M111 1063l182 113h158l-132 -705h-163l100 528l-82 -49zM145 0l613 1176h174l-613 -1176h-174zM582 94l94 109q79 -60 135 -60q38 0 64 23t26 55q0 41 -37.5 58.5t-85.5 17.5h-18l28 147h23q42 0 84.5 21.5t42.5 58.5q0 17 -12 28t-37 11q-55 0 -133 -53l-56 119 q123 88 238 88q84 0 128 -42.5t44 -107.5q0 -111 -131 -180q88 -55 88 -154q0 -43 -15 -85t-44 -78.5t-78 -59t-111 -22.5q-131 0 -237 106z" />
<glyph horiz-adv-x="389" d="M8 721q41 18 64 31t36 31.5t17.5 34t9.5 48.5l139 783h205l-135 -770q-7 -41 -10.5 -57.5t-10.5 -47.5t-13.5 -43t-18 -34.5t-25 -33.5t-33.5 -27.5t-45.5 -28.5t-58 -25.5t-74.5 -28.5z" />
<glyph horiz-adv-x="389" d="M-184 -375q54 23 79.5 43.5t33 39.5t14.5 63l139 782h205l-135 -770q-7 -41 -10.5 -57.5t-10.5 -47.5t-13.5 -43t-18 -34.5t-25 -33.5t-33.5 -27.5t-45.5 -28.5t-58 -25.5t-74.5 -28.5z" />
<glyph horiz-adv-x="489" d="M-162 -90q57 24 88 42t48.5 43.5t23.5 46t14 67.5l189 1067h286l-184 -1049q-28 -155 -50 -208q-36 -87 -127 -144q-75 -47 -222 -97zM63 1255l209 287h269l102 -287h-184l-68 144l-117 -144h-211z" />
<glyph horiz-adv-x="491" d="M-162 -90q57 24 88 42t48.5 43.5t23.5 46t14 67.5l189 1067h286l-184 -1049q-28 -155 -50 -208q-36 -87 -127 -144q-75 -47 -222 -97z" />
<glyph horiz-adv-x="937" d="M10 553h230l-23 -465l162 465h151l-4 -461l142 461h237l-325 -860h-191l2 500l-172 -500h-188z" />
<glyph horiz-adv-x="493" d="M-6 0l207 1176h286l-206 -1176h-287zM80 1352q28 51 46.5 80.5t46 61.5t57.5 47t65 15q33 0 70 -24.5t68 -49t50 -24.5q39 0 95 98l110 -90q-22 -38 -28 -48.5t-25.5 -41t-29 -40.5t-28 -29.5t-33 -26.5t-34.5 -13.5t-41 -6.5q-33 0 -69 24.5t-66.5 49t-48.5 24.5 q-39 0 -97 -96z" />
<glyph horiz-adv-x="391" d="M123 788l151 861h205l-151 -861h-205z" />
<glyph horiz-adv-x="491" d="M-72 -248q0 78 48 136.5t133 111.5h-115l207 1176h286l-206 -1176h-7q-5 -4 -25 -22t-27.5 -25t-25.5 -24t-26 -26.5t-20.5 -25.5t-18 -28t-10 -27t-4.5 -29q0 -15 5.5 -25t12 -15.5t19.5 -8t19 -3t20 0.5h14l-53 -148h-16h-23t-27 1.5t-31 4t-30.5 8t-30.5 13.5t-26 20 t-22.5 27.5t-14 37t-5.5 46.5z" />
<glyph horiz-adv-x="1048" d="M57 668q0 64 14.5 130.5t49 135t85.5 121.5t131.5 87t178.5 34h219l-262 -1487h-221l110 630q-140 0 -222.5 92t-82.5 257zM545 -311l262 1487h221l-262 -1487h-221z" />
<glyph horiz-adv-x="489" d="M-6 0l207 1176h286l-206 -1176h-287zM133 1307l35 192h457l-33 -192h-459z" />
<glyph horiz-adv-x="552" d="M9 11.5q1 86.5 24 213.5l131 748q13 75 21.5 111.5t27 88.5t43.5 78t67.5 59t103 55.5t146.5 43.5l39 -176q-83 -40 -109 -78t-42 -121l-162 -921q-18 -79 -5 -120.5t81 -80.5l-88 -152q-153 45 -216 105t-62 146.5z" />
<glyph horiz-adv-x="940" d="M203 1649h229l-22 -465l161 465h152l-4 -461l141 461h238l-326 -861h-190l2 500l-172 -500h-189z" />
<glyph horiz-adv-x="555" d="M129 1010q0 208 80 323t186 115q30 0 57.5 -5t56 -16.5t43 -18.5t45 -24.5t34.5 -19.5l-94 -154q-2 1 -15 9.5t-18 11t-17 9t-19.5 9.5t-17.5 5.5t-18 2.5q-45 0 -73.5 -68.5t-28.5 -152.5q0 -71 49 -71q25 0 117 47l51 -168q-137 -70 -225 -70q-85 0 -139 60t-54 176z " />
<glyph horiz-adv-x="389" d="M-72 -307l152 860h205l-152 -860h-205z" />
<glyph horiz-adv-x="555" d="M-70 -63q83 40 109.5 77.5t42.5 120.5l162 922q18 79 5 120t-81 80l88 152q153 -45 216 -105t62 -146.5t-24 -213.5l-131 -747q-11 -64 -18 -96.5t-21.5 -79.5t-32 -71.5t-46 -56.5t-68.5 -52t-95 -41.5t-129 -39.5z" />
<glyph horiz-adv-x="1400" d="M55 535q0 132 45 250.5t129 210t214.5 145t289.5 53.5q276 0 438 -152.5t162 -400.5q0 -132 -45 -250.5t-129 -210t-214.5 -145t-289.5 -53.5q-276 0 -438 152.5t-162 400.5zM125 535q0 -217 143 -353.5t391 -136.5q139 0 254.5 47t191.5 128.5t117.5 189.5t41.5 231 q0 217 -143 353t-392 136q-139 0 -254.5 -47t-191 -128t-117 -189t-41.5 -231zM365 508q-7 104 19.5 189.5t76.5 140t117 84.5t143 30q141 0 289 -112l-58 -56q-26 20 -41.5 31t-47.5 28.5t-68 26.5t-76 9q-119 0 -196 -104.5t-68 -260.5q6 -101 51.5 -159t120.5 -58 q127 0 266 90l49 -61q-51 -31 -85 -48.5t-99 -37t-127 -19.5q-111 0 -185.5 76t-80.5 211z" />
<glyph horiz-adv-x="1574" d="M-168 -227q45 20 74 35.5t51.5 35t34 34t22 44t15 52.5t12.5 71l137 784h-96l43 246h98l4 25q37 202 116.5 297.5t211.5 95.5q105 0 279 -76l14 76h301l-92 -522q69 64 122.5 95.5t120.5 31.5q62 0 107.5 -28t69.5 -77t34.5 -104.5t10.5 -120.5q0 -84 -12.5 -182 t-43.5 -207.5t-76 -197.5t-117 -146t-159 -58q-68 0 -114.5 33t-94.5 96l-18 -106h-301l205 1167q-135 37 -177 37q-68 0 -82 -84l-8 -45h168l-45 -246h-166l-135 -757q-32 -187 -56 -251q-38 -102 -128 -164q-83 -59 -264 -122zM950 360q35 -112 99 -112q37 0 69.5 50.5 t52 123.5t30.5 146t11 126q0 133 -67 133q-62 0 -133 -112z" />
<glyph horiz-adv-x="677" d="M-147 -307l276 436l-115 424h228l37 -254l127 254h237l-266 -422l127 -438h-228l-45 248l-133 -248h-245z" />
<glyph horiz-adv-x="493" d="M-6 0l207 1176h286l-206 -1176h-287zM100 1542h299l127 -287h-229z" />
<glyph horiz-adv-x="1325" d="M86 803q0 41 6 86t25.5 101.5t49 100t83 73.5t121.5 30q29 0 58 -5t63.5 -21t60 -41t42.5 -69.5t17 -101.5q0 -41 -6 -86t-24.5 -101.5t-48 -100t-82.5 -73.5t-121 -30q-30 0 -59.5 5t-64 21t-60 41t-43 69.5t-17.5 101.5zM227 0l650 1176h204l-649 -1176h-205zM279 788 q0 -28 13.5 -44.5t37.5 -16.5q25 0 44 28.5t28.5 69.5t14.5 78.5t5 65.5t-13.5 45.5t-37.5 17.5t-43 -28.5t-29 -69.5t-15 -79.5t-5 -66.5zM700 219q0 33 4.5 70t15.5 83t32 86.5t51 75.5t77 55.5t105 20.5q30 0 59.5 -5t63.5 -21t59.5 -40.5t42.5 -69t17 -101.5 q0 -41 -6 -85.5t-25 -101t-48.5 -100.5t-82.5 -74t-121 -30q-39 0 -76.5 9.5t-77.5 33t-65 73.5t-25 121zM893 207q0 -28 13.5 -45t37.5 -17t43 28.5t29 69.5t15 78.5t5 63.5q0 29 -13.5 47.5t-37.5 18.5t-43 -28.5t-29 -70.5t-15 -80t-5 -65z" />
<glyph horiz-adv-x="944" d="M-29 279q0 30 4.5 63t18 75t35 74t60 54t87.5 22q21 0 42.5 -4t46 -16t43 -30.5t30.5 -50.5t12 -73q0 -31 -4.5 -64t-18 -74.5t-34.5 -73t-59 -53.5t-87 -22q-28 0 -55.5 7.5t-56.5 25t-46.5 53.5t-17.5 87zM74 -307l467 860h147l-467 -860h-147zM109 270q0 -47 38 -47 q32 0 50 63.5t18 114.5q0 48 -39 48q-32 0 -49.5 -63.5t-17.5 -115.5zM414 -147q0 39 8.5 82t28.5 92t63.5 80.5t103.5 31.5q22 0 44 -4t46.5 -15.5t43 -30t31 -50t12.5 -72.5q0 -40 -8.5 -83.5t-29 -93t-64 -81t-103.5 -31.5q-29 0 -56 7.5t-56 25t-46.5 54.5t-17.5 88z M553 -156q0 -49 35 -49q33 0 50 63.5t17 116.5q0 48 -34 48q-33 0 -50.5 -63t-17.5 -116z" />
<glyph horiz-adv-x="944" d="M166 1374q0 40 8.5 83t28.5 92.5t63.5 81.5t104.5 32q21 0 42.5 -4t46 -16t43 -30.5t30.5 -50.5t12 -73q0 -31 -4.5 -64t-18 -74.5t-34.5 -73t-59 -53.5t-87 -22q-29 0 -56 7.5t-56 24.5t-46.5 53t-17.5 87zM268 788l467 861h148l-467 -861h-148zM303 1366q0 -47 39 -47 q32 0 50 63.5t18 114.5q0 47 -39 47q-32 0 -50 -63.5t-18 -114.5zM608 948q0 39 8.5 82t29 92.5t64 81t103.5 31.5q29 0 56 -7.5t56 -24.5t46.5 -53t17.5 -87q0 -40 -8.5 -83.5t-29 -93t-64 -81t-103.5 -31.5q-29 0 -56 7.5t-56 25t-46.5 54t-17.5 87.5zM748 940 q0 -49 34 -49q33 0 50.5 63.5t17.5 116.5q0 47 -35 47q-33 0 -50 -62.5t-17 -115.5z" />
<glyph horiz-adv-x="491" d="M-6 0l207 1176h286l-206 -1176h-287zM115 1276l43 250h215l-43 -250h-215zM399 1276l43 250h215l-43 -250h-215z" />
<glyph horiz-adv-x="491" d="M-6 0l207 1176h286l-206 -1176h-287zM61 1255l209 287h269l102 -287h-184l-68 144l-117 -144h-211z" />
<glyph horiz-adv-x="360" d="M117 788l41 236h192l-41 -236h-192zM176 1153l41 236h193l-41 -236h-193z" />
<glyph horiz-adv-x="561" d="M154 1118q0 208 79 322t185 114q23 0 33 -2l32 97h74l-39 -111q14 -4 23 -8l41 119h73l-51 -148q27 -15 55 -31l-96 -153q-7 4 -26 15t-30 17t-26 11.5t-24 5.5q-48 0 -77.5 -68.5t-29.5 -152.5q0 -72 51 -72q25 0 121 47l51 -168q-88 -49 -180 -65l-33 -99h-73l32 95 l-24 4l-33 -99h-76l45 130q-77 61 -77 200z" />
<glyph horiz-adv-x="561" d="M-39 23q0 208 79 322t185 114q23 0 33 -2l33 96h74l-39 -111q12 -3 22 -8l41 119h74l-51 -147q27 -15 55 -31l-96 -154q-6 3 -26 14.5t-31 17.5t-26 11.5t-24 5.5q-48 0 -77 -68.5t-29 -152.5q0 -72 51 -72q23 0 121 48l51 -168q-90 -51 -180 -66l-33 -98h-74l33 94 l-25 4l-32 -98h-76l45 129q-78 61 -78 201z" />
</font>
</defs>
</svg>
