<?xml version="1.0" standalone="no"?>
<!DOCTYPE svg PUBLIC "-//W3C//DTD SVG 1.1//EN" "http://www.w3.org/Graphics/SVG/1.1/DTD/svg11.dtd" >
<svg xmlns="http://www.w3.org/2000/svg">
<metadata></metadata>
<defs>
<font id="verbcondextrabold_italic" horiz-adv-x="1228" >
<font-face units-per-em="2048" ascent="1638" descent="-410" />
<missing-glyph horiz-adv-x="495" />
<glyph unicode="ff" horiz-adv-x="1540" d="M-197 -217q61 21 98.5 35.5t68.5 35t46 36.5t28.5 49.5t19.5 62.5t16 86l131 741h-131l43 246h131l4 25q17 102 43 172.5t67.5 121.5t102.5 75t145 24q179 0 379 -113l-151 -215q-103 39 -158 39q-71 0 -90 -100l-6 -29h239l-47 -246h-235l-125 -714q-36 -201 -62 -273 q-44 -121 -143 -187q-108 -73 -346 -126zM573 -217q61 21 98.5 35.5t68.5 35t46 36.5t29 49.5t20.5 62.5t16.5 86l129 741h-131l43 246h131l4 25q35 205 115 299t243 94q179 0 379 -113l-151 -215q-103 39 -158 39q-28 0 -53.5 -22t-36.5 -78l-6 -29h239l-47 -246h-235 l-125 -714q-13 -75 -20 -111t-20.5 -93t-26 -83.5t-34.5 -67.5t-48.5 -61.5t-64.5 -49t-86.5 -46.5t-110.5 -37.5t-140 -36.5z" />
<glyph unicode="fi" horiz-adv-x="1320" d="M-197 -217q61 21 98.5 35.5t68.5 35t46 36.5t28.5 49.5t19.5 62.5t16 86l131 741h-131l43 246h133l4 25q17 102 42.5 172.5t67.5 121.5t102 75t142 24q73 0 159 -28.5t149 -61.5l-117 -225q-76 26 -119 26q-71 0 -88 -100l-6 -29h237l-47 -246h-233l-127 -714 q-36 -201 -62 -273q-44 -121 -143 -187q-108 -73 -346 -126zM770 0l188 1075h336l-188 -1075h-336zM975 1212l49 275h350l-49 -275h-350z" />
<glyph unicode="fl" horiz-adv-x="1327" d="M-197 -217q61 21 98.5 35.5t68.5 35t46 36.5t28.5 49.5t19.5 62.5t16 86l131 741h-131l43 246h133l4 25q17 102 42.5 172.5t67.5 121.5t102 75t142 24q73 0 159 -28.5t149 -61.5l-117 -225q-76 26 -119 26q-71 0 -88 -100l-6 -29h237l-47 -246h-233l-127 -714 q-36 -201 -62 -273q-44 -121 -143 -187q-108 -73 -346 -126zM772 0l262 1493h336l-262 -1493h-336z" />
<glyph unicode="ffi" horiz-adv-x="2093" d="M-197 -217q61 21 98.5 35.5t68.5 35t46 36.5t28.5 49.5t19.5 62.5t16 86l131 741h-131l43 246h131l4 25q17 102 43 172.5t67.5 121.5t102.5 75t145 24q179 0 379 -113l-151 -215q-103 39 -158 39q-71 0 -90 -100l-6 -29h239l-47 -246h-235l-125 -714q-36 -201 -62 -273 q-44 -121 -143 -187q-108 -73 -346 -126zM573 -217q61 21 98.5 35.5t68.5 35t46 36.5t29 49.5t20.5 62.5t16.5 86l131 741h-133l43 246h133l4 25q17 102 42.5 172.5t67.5 121.5t102 75t142 24q73 0 161 -29t147 -61l-117 -225q-71 26 -119 26q-69 0 -88 -100l-6 -29h237 l-47 -246h-233l-127 -714q-13 -75 -20 -111t-20.5 -93t-26 -83.5t-34.5 -67.5t-48.5 -61.5t-64.5 -49t-86.5 -46.5t-110.5 -37.5t-140 -36.5zM1540 0l189 1075h337l-190 -1075h-336zM1745 1212l49 275h350l-49 -275h-350z" />
<glyph unicode="ffl" horiz-adv-x="2097" d="M-197 -217q61 21 98.5 35.5t68.5 35t46 36.5t28.5 49.5t19.5 62.5t16 86l131 741h-131l43 246h131l4 25q17 102 43 172.5t67.5 121.5t102.5 75t145 24q179 0 379 -113l-151 -215q-103 39 -158 39q-71 0 -90 -100l-6 -29h239l-47 -246h-235l-125 -714q-36 -201 -62 -273 q-44 -121 -143 -187q-108 -73 -346 -126zM573 -217q61 21 98.5 35.5t68.5 35t46 36.5t29 49.5t20.5 62.5t16.5 86l131 741h-133l43 246h133l4 25q17 102 42.5 172.5t67.5 121.5t102 75t142 24q73 0 161 -29t147 -61l-117 -225q-71 26 -119 26q-69 0 -88 -100l-6 -29h237 l-47 -246h-233l-127 -714q-13 -75 -20 -111t-20.5 -93t-26 -83.5t-34.5 -67.5t-48.5 -61.5t-64.5 -49t-86.5 -46.5t-110.5 -37.5t-140 -36.5zM1542 0l262 1493h336l-262 -1493h-336z" />
<glyph unicode="ffb" horiz-adv-x="2760" d="M-197 -217q61 21 98.5 35.5t68.5 35t46 36.5t28.5 49.5t19.5 62.5t16 86l131 741h-131l43 246h131l4 25q17 102 43 172.5t67.5 121.5t102.5 75t145 24q179 0 379 -113l-151 -215q-103 39 -158 39q-71 0 -90 -100l-6 -29h239l-47 -246h-235l-125 -714q-36 -201 -62 -273 q-44 -121 -143 -187q-108 -73 -346 -126zM573 -217q61 21 98.5 35.5t68.5 35t46 36.5t29 49.5t20.5 62.5t16.5 86l131 741h-133l43 246h133l4 25q17 102 42.5 172.5t67.5 121.5t102 75t142 24q73 0 161 -29t147 -61l-117 -225q-71 26 -119 26q-69 0 -88 -100l-6 -29h237 l-47 -246h-233l-127 -714q-13 -75 -20 -111t-20.5 -93t-26 -83.5t-34.5 -67.5t-48.5 -61.5t-64.5 -49t-86.5 -46.5t-110.5 -37.5t-140 -36.5zM1538 0l264 1493h336l-94 -530q173 135 338 135q63 0 117 -21t99 -65.5t71 -124t26 -185.5q0 -320 -136.5 -522.5t-352.5 -202.5 q-54 0 -102 12t-89 36t-64 41t-57 47l-18 -113h-338zM1939 362q38 -51 87 -82.5t100 -31.5q69 0 121 59.5t78 152.5t26 202q0 79 -31 123t-90 44q-40 0 -84 -20.5t-73.5 -43.5t-73.5 -63z" />
<glyph unicode="ffh" horiz-adv-x="2754" d="M-197 -217q61 21 98.5 35.5t68.5 35t46 36.5t28.5 49.5t19.5 62.5t16 86l131 741h-131l43 246h131l4 25q17 102 43 172.5t67.5 121.5t102.5 75t145 24q179 0 379 -113l-151 -215q-103 39 -158 39q-71 0 -90 -100l-6 -29h239l-47 -246h-235l-125 -714q-36 -201 -62 -273 q-44 -121 -143 -187q-108 -73 -346 -126zM573 -217q61 21 98.5 35.5t68.5 35t46 36.5t29 49.5t20.5 62.5t16.5 86l131 741h-133l43 246h133l4 25q17 102 42.5 172.5t67.5 121.5t102 75t142 24q73 0 161 -29t147 -61l-117 -225q-71 26 -119 26q-69 0 -88 -100l-6 -29h237 l-47 -246h-233l-127 -714q-13 -75 -20 -111t-20.5 -93t-26 -83.5t-34.5 -67.5t-48.5 -61.5t-64.5 -49t-86.5 -46.5t-110.5 -37.5t-140 -36.5zM1538 0l264 1493h336l-94 -535q204 140 360 140q166 0 234 -103.5t35 -281.5l-125 -713h-338l119 678q13 76 -2.5 118t-73.5 42 q-56 0 -125 -36.5t-127 -86.5l-125 -715h-338z" />
<glyph unicode="fb" horiz-adv-x="1988" d="M-197 -217q61 21 98.5 35.5t68.5 35t46 36.5t28.5 49.5t19.5 62.5t16 86l131 741h-131l43 246h133l4 25q17 102 42.5 172.5t67.5 121.5t102 75t142 24q73 0 159 -28.5t149 -61.5l-117 -225q-76 26 -119 26q-71 0 -88 -100l-6 -29h237l-47 -246h-233l-127 -714 q-36 -201 -62 -273q-44 -121 -143 -187q-108 -73 -346 -126zM768 0l262 1493h338l-94 -530q173 135 338 135q63 0 117 -21t99 -65.5t71 -124t26 -185.5q0 -320 -136.5 -522.5t-352.5 -202.5q-54 0 -102 12t-89 36t-64 41t-57 47l-20 -113h-336zM1167 365q87 -117 189 -117 q68 0 120.5 59.5t78.5 153t26 201.5q0 79 -31 123t-90 44q-100 0 -233 -129z" />
<glyph unicode="ffj" horiz-adv-x="2091" d="M-197 -217q61 21 98.5 35.5t68.5 35t46 36.5t28.5 49.5t19.5 62.5t16 86l131 741h-131l43 246h131l4 25q17 102 43 172.5t67.5 121.5t102.5 75t145 24q179 0 379 -113l-151 -215q-103 39 -158 39q-71 0 -90 -100l-6 -29h239l-47 -246h-235l-125 -714q-36 -201 -62 -273 q-44 -121 -143 -187q-108 -73 -346 -126zM573 -217q61 21 98.5 35.5t68.5 35t46 36.5t29 49.5t20.5 62.5t16.5 86l131 741h-133l43 246h133l4 25q17 102 42.5 172.5t67.5 121.5t102 75t142 24q73 0 161 -29t147 -61l-117 -225q-71 26 -119 26q-69 0 -88 -100l-6 -29h237 l-47 -246h-233l-127 -714q-13 -75 -20 -111t-20.5 -93t-26 -83.5t-34.5 -67.5t-48.5 -61.5t-64.5 -49t-86.5 -46.5t-110.5 -37.5t-140 -36.5zM1276 -217q60 20 98.5 35t68.5 32.5t45.5 30.5t27 37t16.5 44t12 58l185 1055h337l-180 -1026q-31 -168 -56 -231 q-44 -109 -149 -172q-111 -67 -338 -117zM1747 1212l47 275h350l-47 -275h-350z" />
<glyph unicode="ffk" horiz-adv-x="2668" d="M-197 -217q61 21 98.5 35.5t68.5 35t46 36.5t28.5 49.5t19.5 62.5t16 86l131 741h-131l43 246h131l4 25q17 102 43 172.5t67.5 121.5t102.5 75t145 24q179 0 379 -113l-151 -215q-103 39 -158 39q-71 0 -90 -100l-6 -29h239l-47 -246h-235l-125 -714q-36 -201 -62 -273 q-44 -121 -143 -187q-108 -73 -346 -126zM573 -217q61 21 98.5 35.5t68.5 35t46 36.5t29 49.5t20.5 62.5t16.5 86l131 741h-133l43 246h133l4 25q17 102 42.5 172.5t67.5 121.5t102 75t142 24q73 0 161 -29t147 -61l-117 -225q-71 26 -119 26q-69 0 -88 -100l-6 -29h237 l-47 -246h-233l-127 -714q-13 -75 -20 -111t-20.5 -93t-26 -83.5t-34.5 -67.5t-48.5 -61.5t-64.5 -49t-86.5 -46.5t-110.5 -37.5t-140 -36.5zM1538 0l264 1493h336l-135 -764l295 346h416l-428 -440l292 -635h-342l-174 406l-141 -146l-45 -260h-338z" />
<glyph unicode="fft" horiz-adv-x="2375" d="M-197 -217q61 21 98.5 35.5t68.5 35t46 36.5t28.5 49.5t19.5 62.5t16 86l131 741h-131l43 246h131l4 25q17 102 43 172.5t67.5 121.5t102.5 75t145 24q179 0 379 -113l-151 -215q-103 39 -158 39q-71 0 -90 -100l-6 -29h239l-47 -246h-235l-125 -714q-36 -201 -62 -273 q-44 -121 -143 -187q-108 -73 -346 -126zM573 -217q61 21 98.5 35.5t68.5 35t46 36.5t29 49.5t20.5 62.5t16.5 86l129 741h-131l43 246h131l4 25q35 205 115 299t243 94q179 0 379 -113l-151 -215q-103 39 -158 39q-28 0 -53.5 -22t-36.5 -78l-6 -29h239l-47 -246h-235 l-125 -714q-13 -75 -20 -111t-20.5 -93t-26 -83.5t-34.5 -67.5t-48.5 -61.5t-64.5 -49t-86.5 -46.5t-110.5 -37.5t-140 -36.5zM1618 829l43 246h135l47 271l344 40l-55 -311h264l-43 -246h-264l-82 -460q-9 -58 7 -78.5t48 -20.5q47 0 144 41l80 -258q-204 -76 -353 -76 q-162 0 -227.5 108.5t-28.5 313.5l76 430h-135z" />
<glyph unicode="fh" horiz-adv-x="1984" d="M-197 -217q61 21 98.5 35.5t68.5 35t46 36.5t28.5 49.5t19.5 62.5t16 86l131 741h-131l43 246h133l4 25q17 102 42.5 172.5t67.5 121.5t102 75t142 24q73 0 159 -28.5t149 -61.5l-117 -225q-76 26 -119 26q-71 0 -88 -100l-6 -29h237l-47 -246h-233l-127 -714 q-36 -201 -62 -273q-44 -121 -143 -187q-108 -73 -346 -126zM768 0l262 1493h338l-96 -537q200 142 360 142q166 0 235 -103.5t36 -281.5l-125 -713h-340l121 678q13 76 -2.5 118t-73.5 42q-57 0 -126 -37t-128 -88l-125 -713h-336z" />
<glyph unicode="fj" horiz-adv-x="1320" d="M-197 -217q61 21 98.5 35.5t68.5 35t46 36.5t28.5 49.5t19.5 62.5t16 86l131 741h-131l43 246h133l4 25q17 102 42.5 172.5t67.5 121.5t102 75t142 24q73 0 159 -28.5t149 -61.5l-117 -225q-76 26 -119 26q-71 0 -88 -100l-6 -29h237l-47 -246h-233l-127 -714 q-36 -201 -62 -273q-44 -121 -143 -187q-108 -73 -346 -126zM506 -217q60 20 98.5 35t68.5 32.5t45.5 30.5t27 37t16.5 44t12 58l184 1055h338l-182 -1026q-12 -70 -19 -103t-21.5 -85.5t-30.5 -77.5t-43.5 -63t-63.5 -58.5t-88 -47t-119.5 -46t-155.5 -39.5zM975 1212 l49 275h350l-49 -275h-350z" />
<glyph unicode="fk" horiz-adv-x="1896" d="M-197 -217q61 21 98.5 35.5t68.5 35t46 36.5t28.5 49.5t19.5 62.5t16 86l131 741h-131l43 246h133l4 25q17 102 42.5 172.5t67.5 121.5t102 75t142 24q73 0 159 -28.5t149 -61.5l-117 -225q-76 26 -119 26q-71 0 -88 -100l-6 -29h237l-47 -246h-233l-127 -714 q-36 -201 -62 -273q-44 -121 -143 -187q-108 -73 -346 -126zM768 0l262 1493h338l-135 -766l295 348h416l-428 -440l292 -635h-342l-174 406l-143 -148l-45 -258h-336z" />
<glyph unicode="ft" horiz-adv-x="1605" d="M-197 -217q61 21 98.5 35.5t68.5 35t46 36.5t28.5 49.5t19.5 62.5t16 86l131 741h-131l43 246h131l4 25q17 102 43 172.5t67.5 121.5t102.5 75t145 24q179 0 379 -113l-151 -215q-103 39 -158 39q-71 0 -90 -100l-6 -29h239l-47 -246h-235l-125 -714q-36 -201 -62 -273 q-44 -121 -143 -187q-108 -73 -346 -126zM848 829l43 246h133l49 271l344 40l-55 -311h264l-43 -246h-264l-82 -460q-9 -58 7 -78.5t48 -20.5q41 0 144 41l77 -258q-199 -76 -350 -76q-162 0 -227.5 108.5t-30.5 313.5l76 430h-133z" />
<glyph unicode=" "  horiz-adv-x="495" />
<glyph unicode="&#x09;" horiz-adv-x="495" />
<glyph unicode="&#xa0;" horiz-adv-x="495" />
<glyph unicode="!" horiz-adv-x="581" d="M14 0l58 336h338l-60 -336h-336zM166 475l63 959h410l-272 -959h-201z" />
<glyph unicode="&#x22;" horiz-adv-x="880" d="M168 864l45 570h317l-155 -570h-207zM586 864l45 570h317l-155 -570h-207z" />
<glyph unicode="#" horiz-adv-x="1396" d="M16 309l45 252h234l98 311h-198l45 252h233l98 310h260l-98 -310h225l99 310h260l-98 -310h198l-45 -252h-233l-99 -311h201l-45 -252h-235l-97 -309h-260l96 309h-225l-96 -309h-260l96 309h-199zM555 561h225l99 311h-226z" />
<glyph unicode="$" horiz-adv-x="1296" d="M-4 201l186 237q109 -69 233.5 -120.5t219.5 -51.5q76 0 126 36t50 95q0 41 -35.5 72t-81.5 47.5t-124.5 44.5t-129.5 53q-58 28 -103 60t-85 78t-62 108.5t-22 138.5q0 93 34 174.5t97.5 144t162.5 99.5t222 39l33 184h241l-36 -213q188 -48 378 -163l-186 -232 q-85 52 -200 93.5t-199 41.5q-71 0 -120.5 -34t-49.5 -95q0 -31 17.5 -53.5t54.5 -39t76.5 -30t101.5 -35.5t112 -46q58 -29 101.5 -59t87.5 -76t68 -111.5t24 -145.5q0 -197 -140 -328t-384 -137l-31 -182h-242l37 209q-245 58 -432 197z" />
<glyph unicode="%" horiz-adv-x="1941" d="M135 1001q0 197 116 326t304 129q165 0 261.5 -86.5t96.5 -226.5q0 -198 -115.5 -326.5t-303.5 -128.5q-165 0 -262 86.5t-97 226.5zM385 1016q0 -65 26.5 -98t92.5 -33q40 0 72.5 26t50.5 65t27.5 79t9.5 73q0 66 -26.5 99t-92.5 33q-40 0 -72.5 -26t-50.5 -65.5 t-27.5 -79.5t-9.5 -73zM393 0l930 1434h258l-930 -1434h-258zM1065 291q0 196 116 325t302 129q165 0 261.5 -86.5t96.5 -226.5q0 -198 -115 -326.5t-303 -128.5q-165 0 -261.5 87t-96.5 227zM1315 305q0 -65 26.5 -98t92.5 -33q40 0 72 26t50 65.5t27.5 79.5t9.5 73 q0 66 -26 98.5t-92 32.5q-40 0 -72.5 -26t-50.5 -65.5t-27.5 -79.5t-9.5 -73z" />
<glyph unicode="&#x26;" horiz-adv-x="1409" d="M53 340q0 76 26.5 142t77.5 120t105 94t127 82q-56 78 -84.5 147t-28.5 150q0 167 124 274t321 107q181 0 285 -89.5t104 -225.5q0 -65 -26 -125.5t-76.5 -113.5t-102.5 -94t-125 -89l148 -189q71 111 114 226h336q-31 -107 -98 -233t-162 -236l225 -287h-354l-80 102 q-192 -125 -413 -125q-202 0 -322.5 99.5t-120.5 263.5zM383 352q0 -53 35 -89t102 -36q102 0 221 95l-192 247q-80 -57 -123 -109t-43 -108zM578 1065q0 -68 55 -150q82 49 126 97t44 104q0 42 -21.5 72.5t-70.5 30.5q-61 0 -97 -46.5t-36 -107.5z" />
<glyph unicode="'" horiz-adv-x="464" d="M168 864l45 570h317l-155 -570h-207z" />
<glyph unicode="(" horiz-adv-x="673" d="M17.5 4q-2.5 27 0.5 65.5t7.5 72t13.5 81.5l174 979q16 94 27.5 144.5t36.5 109.5t57.5 90t90.5 66t136.5 58.5t194.5 47.5l55 -196q-73 -26 -114 -46.5t-66 -49.5t-35.5 -57.5t-20.5 -82.5l-202 -1147q-14 -68 -11 -113.5t31 -76.5t96 -64l-86 -178q-62 15 -112 30.5 t-89 34t-69 36t-51 41.5t-35 45.5t-20.5 52t-9 57.5z" />
<glyph unicode=")" horiz-adv-x="669" d="M-104 -96q73 26 113.5 46.5t66 49t35 57t20.5 82.5l203 1147q15 68 11 113.5t-32 76.5t-96 64l86 178q201 -48 289 -114t95.5 -163t-19.5 -239l-174 -979q-16 -94 -27.5 -144.5t-36.5 -109.5t-57.5 -90t-90.5 -66t-136.5 -58.5t-194.5 -47.5z" />
<glyph unicode="*" horiz-adv-x="980" d="M143 1020l334 18l-305 136l178 212l182 -280l-36 332l272 -49l-150 -297l267 200l94 -262l-317 -20l290 -133l-178 -213l-180 266l35 -320l-273 47l150 299l-268 -198z" />
<glyph unicode="+" horiz-adv-x="1273" d="M137 557l45 252h361l65 365h254l-65 -365h364l-45 -252h-362l-64 -364h-256l64 364h-361z" />
<glyph unicode="," horiz-adv-x="548" d="M-47 -233l194 233h-149l63 367h338l-53 -410l-328 -301z" />
<glyph unicode="-" horiz-adv-x="839" d="M74 449l47 268h631l-47 -268h-631z" />
<glyph unicode="." horiz-adv-x="544" d="M-4 0l65 367h338l-65 -367h-338z" />
<glyph unicode="/" horiz-adv-x="948" d="M-96 -184l921 1802h260l-919 -1802h-262z" />
<glyph unicode="0" horiz-adv-x="1351" d="M92 510q0 67 8.5 143.5t30.5 170t55 180.5t87.5 170.5t123 145t166 99t211.5 37.5q118 0 210 -29t150.5 -78t96 -119t52.5 -145t15 -163q0 -67 -8.5 -143.5t-30.5 -170t-55 -180.5t-87.5 -170.5t-123 -145.5t-166 -99.5t-211.5 -37.5q-118 0 -210 29.5t-150.5 78.5 t-96 119t-52.5 145t-15 163zM442 481q0 -40 2 -67.5t12 -62t27 -55.5t50 -35.5t79 -14.5q71 0 131 57.5t96.5 142t62 185t36 182t10.5 137.5q0 40 -2 68t-12 62.5t-27 55.5t-50 35.5t-79 14.5q-71 0 -131 -57.5t-96.5 -142.5t-62 -185.5t-36 -182t-10.5 -137.5z" />
<glyph unicode="1" horiz-adv-x="843" d="M96 1208l418 226h334l-254 -1434h-348l192 1087l-239 -122z" />
<glyph unicode="2" horiz-adv-x="1204" d="M-45 0l27 152q11 68 35 129t50.5 108t70 94.5t78 79.5t91 71.5t92.5 62t97 59.5q200 123 225 141q101 69 120 125q7 19 7 39q0 47 -37.5 76.5t-105.5 29.5q-146 0 -369 -133l-123 242q274 180 545 180q216 0 330 -106.5t114 -270.5q0 -59 -16.5 -114.5t-42.5 -100 t-67 -88t-82 -77t-95 -69t-98 -61t-99 -56.5q-13 -7 -20 -11q-134 -72 -182 -114t-60 -99h621l-49 -289h-1057z" />
<glyph unicode="3" horiz-adv-x="1212" d="M-45 197l176 217q239 -144 395 -144q105 0 163.5 48t58.5 126q0 168 -318 168h-57l51 289h68q52 0 103 8.5t99.5 26.5t78.5 52t30 79q0 46 -31.5 73t-93.5 27q-78 0 -179.5 -37t-183.5 -83l-106 237q272 172 543 172q106 0 187 -25.5t129.5 -70t72.5 -101.5t24 -124 q0 -118 -71 -210t-197 -151q92 -36 148.5 -126t56.5 -210q0 -63 -16.5 -124.5t-56.5 -123.5t-100 -108.5t-155 -75.5t-213 -29q-330 0 -606 220z" />
<glyph unicode="4" horiz-adv-x="1327" d="M-25 262l45 242l742 930h467l-158 -883h201l-51 -289h-201l-45 -262h-348l45 262h-697zM387 551h336l96 545z" />
<glyph unicode="5" horiz-adv-x="1198" d="M-31 197l197 219q177 -140 330 -140q104 0 178 59t74 159q0 76 -47 124t-138 48q-43 0 -88.5 -13.5t-76 -28.5t-76.5 -42l-191 127l199 725h884l-51 -289h-581l-50 -213q79 14 140 14q107 0 191.5 -34.5t136.5 -94.5t79 -137.5t27 -167.5q0 -104 -38 -199.5t-109 -170.5 t-182.5 -120t-248.5 -45q-303 0 -559 220z" />
<glyph unicode="6" horiz-adv-x="1257" d="M74 524q0 191 69 362t189.5 297t294 199.5t372.5 73.5q76 0 140.5 -10t90.5 -20l27 -11l-127 -254q-52 13 -122 13q-166 0 -307 -85t-214 -253q115 90 279 90q187 0 300.5 -116t113.5 -300q0 -105 -37.5 -201t-106.5 -170t-176.5 -118t-236.5 -44q-132 0 -238 44.5 t-173 120.5t-102.5 173.5t-35.5 208.5zM424 502q0 -103 51 -172.5t141 -69.5q101 0 157 70.5t56 161.5q0 76 -46.5 126t-131.5 50q-70 0 -132.5 -39t-94.5 -84v-43z" />
<glyph unicode="7" horiz-adv-x="1034" d="M66 0q25 145 97 312.5t147.5 294t170.5 258.5t138.5 185t80.5 95h-563l47 289h969l-49 -271q-12 -13 -33 -36.5t-82 -98t-118.5 -151.5t-130.5 -189t-130.5 -218.5t-105.5 -232t-68 -237.5h-370z" />
<glyph unicode="8" horiz-adv-x="1284" d="M25 358q0 82 29.5 152t83.5 122.5t114.5 90t136.5 70.5q-151 117 -151 282q0 169 137 275t381 106q224 0 346.5 -91.5t122.5 -242.5q0 -214 -267 -356q49 -29 86.5 -60t70.5 -73.5t51 -97t18 -117.5q0 -199 -165.5 -320t-453.5 -121q-260 0 -400 100.5t-140 280.5z M381 397q0 -71 50 -114t142 -43q108 0 182 56t74 140q0 116 -170 209q-59 -21 -103.5 -42t-86.5 -51t-65 -69.5t-23 -85.5zM573 1040q0 -47 29 -80.5t80 -64.5q94 33 145.5 76.5t51.5 111.5q0 49 -35 84t-99 35q-75 0 -123.5 -49.5t-48.5 -112.5z" />
<glyph unicode="9" horiz-adv-x="1257" d="M37 18l129 254q51 -12 121 -12q107 0 204 34.5t182 112t134 189.5q-119 -90 -279 -90q-186 0 -299.5 116.5t-113.5 301.5q0 106 37.5 201t107 169.5t177 118t237.5 43.5q131 0 236.5 -44.5t172.5 -120.5t102.5 -173.5t35.5 -208.5q0 -192 -69 -363t-189.5 -296.5 t-294.5 -199t-373 -73.5q-76 0 -140.5 10.5t-90.5 20.5zM465 940q0 -75 46.5 -124.5t131.5 -49.5q70 0 133 39t92 84l2 43q0 103 -51 172.5t-141 69.5q-102 0 -157.5 -71t-55.5 -163z" />
<glyph unicode=":" horiz-adv-x="577" d="M6 0l66 367h338l-66 -367h-338zM129 627l66 366h337l-65 -366h-338z" />
<glyph unicode=";" horiz-adv-x="577" d="M-37 -233l195 233h-150l64 367h338l-54 -410l-327 -301zM117 627l65 366h338l-65 -366h-338z" />
<glyph unicode="&#x3c;" horiz-adv-x="1273" d="M113 569l41 228l1050 415l-49 -292l-686 -252l596 -254l-47 -260z" />
<glyph unicode="=" horiz-adv-x="1275" d="M100 362l45 252h981l-45 -252h-981zM170 758l45 250h981l-45 -250h-981z" />
<glyph unicode="&#x3e;" horiz-adv-x="1273" d="M94 154l49 292l686 252l-596 254l48 260l905 -415l-41 -228z" />
<glyph unicode="?" horiz-adv-x="1060" d="M152 0l59 336h336l-58 -336h-337zM174 1311q239 145 483 145q195 0 305.5 -96.5t110.5 -259.5q0 -83 -29 -153t-77.5 -120.5t-117 -90t-141.5 -64.5t-157 -41l-43 -156h-207l41 344q198 34 288.5 87t90.5 141q0 56 -35 88t-106 32q-118 0 -299 -106z" />
<glyph unicode="@" horiz-adv-x="1830" d="M49 383q0 208 71.5 394.5t199.5 325.5t318 220.5t415 81.5q155 0 279 -42t203.5 -112t130.5 -165t69.5 -197.5t11.5 -212.5q-4 -57 -12.5 -117t-26.5 -135t-42.5 -141.5t-64.5 -131.5t-88.5 -112t-117 -76t-148.5 -29q-61 0 -107 17.5t-71.5 43t-41 61t-20 65t-3.5 61.5 q-149 -137 -314 -137q-118 0 -190 78t-72 203q0 161 101.5 249.5t256.5 88.5q37 0 83.5 -6t79 -13t76 -17t54.5 -12l15 80q15 86 -12 122t-107 36q-131 0 -332 -80l-55 176q241 90 434 90q192 0 264.5 -87.5t40.5 -274.5l-55 -313q-9 -51 -13.5 -81.5t-8 -67t0 -57t12 -39 t25.5 -26.5t43 -8q73 0 141 84.5t111.5 220.5t50.5 285q6 88 -5.5 170t-50.5 165t-103.5 143.5t-174 99t-251.5 38.5q-204 0 -373.5 -74.5t-280.5 -200.5t-172 -291.5t-61 -348.5q0 -287 150 -460t419 -173q96 0 187.5 22t134.5 44l43 22l55 -92q-7 -4 -20.5 -11.5 t-57.5 -26t-90.5 -32.5t-117 -25.5t-140.5 -11.5q-156 0 -284 56t-213.5 156t-132 238t-46.5 300zM678 356q0 -62 31.5 -92.5t85.5 -30.5q49 0 112 29.5t123 83.5l27 150q-11 2 -55.5 10.5t-81 14t-64.5 5.5q-89 0 -133.5 -48.5t-44.5 -121.5z" />
<glyph unicode="A" horiz-adv-x="1368" d="M-100 0l741 1434h385l234 -1434h-367l-25 262h-452l-117 -262h-399zM537 535h305l-54 567z" />
<glyph unicode="B" horiz-adv-x="1345" d="M25 0l251 1434h555q223 0 347.5 -86t124.5 -240q0 -73 -29 -137.5t-74 -106t-93 -67t-91 -31.5q35 -7 73 -28t76.5 -58t63 -99t24.5 -139q0 -214 -134.5 -328t-383.5 -114h-710zM422 268h227q125 0 193.5 54t68.5 157q0 148 -211 148h-217zM528 877h199q93 0 156 43 t63 129q0 116 -174 116h-194z" />
<glyph unicode="C" horiz-adv-x="1263" d="M80 541q0 213 51.5 387t142 289t214.5 177t268 62q69 0 139 -14.5t120.5 -32t118.5 -53.5t102.5 -57.5t102.5 -65.5l-188 -246q-122 80 -200.5 117t-157.5 37q-109 0 -191 -82t-122 -209.5t-40 -278.5q0 -280 176 -280q132 0 404 149l141 -276q-173 -90 -325 -138.5 t-306 -48.5q-211 0 -330.5 141.5t-119.5 422.5z" />
<glyph unicode="D" horiz-adv-x="1409" d="M25 0l251 1434h406q148 0 265 -29.5t194.5 -81t128 -126t72.5 -159.5t22 -186q0 -64 -8.5 -133t-32 -154.5t-60.5 -162.5t-99.5 -152t-142 -129t-195 -87.5t-253.5 -33.5h-548zM426 295h96q106 0 191.5 34t139.5 89t90.5 128.5t51.5 147.5t15 152q0 155 -88 224t-263 69 h-84z" />
<glyph unicode="E" horiz-adv-x="1193" d="M25 0l251 1434h977l-51 -295h-627l-49 -277h512l-51 -289h-512l-49 -278h637l-51 -295h-987z" />
<glyph unicode="F" horiz-adv-x="1144" d="M25 0l251 1434h977l-51 -295h-627l-49 -279h494l-51 -289h-494l-100 -571h-350z" />
<glyph unicode="G" horiz-adv-x="1372" d="M80 535q0 218 52.5 394.5t145 290.5t217 175t269.5 61q72 0 145 -15t127.5 -33.5t124 -54.5t107.5 -58.5t106 -65.5l-190 -248q-72 45 -100 61.5t-86.5 46t-104 41t-92.5 11.5q-85 0 -154.5 -47t-114 -127t-68.5 -183t-24 -217q0 -138 43 -215.5t146 -77.5 q74 0 154.5 48.5t142.5 105.5l24 131h-288l49 275h608l-145 -834h-322l22 131q-182 -154 -360 -154q-195 0 -314.5 143t-119.5 415z" />
<glyph unicode="H" horiz-adv-x="1413" d="M25 0l251 1434h351l-95 -537h449l94 537h350l-251 -1434h-351l107 608h-449l-106 -608h-350z" />
<glyph unicode="I" horiz-adv-x="614" d="M25 0l251 1434h351l-252 -1434h-350z" />
<glyph unicode="J" horiz-adv-x="614" d="M-219 -109q85 27 131 47t75 47.5t39.5 56t20.5 81.5l232 1311h350l-230 -1293q-30 -169 -55 -232q-43 -108 -148 -172q-111 -66 -339 -116z" />
<glyph unicode="K" horiz-adv-x="1359" d="M25 0l251 1434h351l-99 -553l508 553h463l-653 -662l418 -772h-385l-273 530l-168 -168l-63 -362h-350z" />
<glyph unicode="L" horiz-adv-x="1110" d="M25 0l251 1434h351l-201 -1145h606l-49 -289h-958z" />
<glyph unicode="M" horiz-adv-x="1652" d="M25 0l251 1434h357l186 -795l490 795h356l-252 -1434h-350l141 813l-356 -573h-170l-152 622l-151 -862h-350z" />
<glyph unicode="N" horiz-adv-x="1443" d="M25 0l251 1434h351l323 -895l156 895h350l-252 -1434h-350l-326 897l-153 -897h-350z" />
<glyph unicode="O" horiz-adv-x="1488" d="M80 565q0 136 27.5 263t87 241.5t145.5 200t211 136t276 50.5q300 0 457.5 -154.5t157.5 -424.5q0 -137 -27.5 -265t-87.5 -244t-146.5 -202.5t-212 -137.5t-276.5 -51q-298 0 -455 156.5t-157 431.5zM438 590q0 -73 12 -127.5t41.5 -98.5t83.5 -67t132 -23t143 40.5 t106.5 103t70.5 140.5t41.5 150.5t12.5 135.5q0 73 -12.5 127.5t-41.5 98.5t-82.5 66.5t-131.5 22.5t-143 -40.5t-107 -102.5t-71 -140t-41.5 -150.5t-12.5 -135.5z" />
<glyph unicode="P" horiz-adv-x="1316" d="M25 0l251 1434h510q549 0 549 -420q0 -72 -19 -143t-63 -140.5t-109 -121.5t-164.5 -84.5t-221.5 -32.5h-297l-86 -492h-350zM512 778h188q128 0 201.5 60.5t73.5 162.5q0 144 -195 144h-205z" />
<glyph unicode="Q" horiz-adv-x="1488" d="M80 565q0 136 27.5 263t87 241.5t145.5 200t211 136t276 50.5q300 0 457.5 -154.5t157.5 -424.5q0 -131 -26 -254.5t-77.5 -234.5t-135 -200t-191.5 -141l186 -188l-252 -217l-268 335q-292 4 -445 160.5t-153 427.5zM438 590q0 -73 12 -127.5t41.5 -98.5t83.5 -67 t132 -23t143 40.5t106.5 103t70.5 140.5t41.5 150.5t12.5 135.5q0 73 -12.5 127.5t-41.5 98.5t-82.5 66.5t-131.5 22.5t-143 -40.5t-107 -102.5t-71 -140t-41.5 -150.5t-12.5 -135.5z" />
<glyph unicode="R" horiz-adv-x="1372" d="M25 0l251 1434h572q532 0 532 -400q0 -76 -24 -151t-71.5 -144t-129.5 -120t-188 -70l231 -549h-364l-199 539h-166l-94 -539h-350zM516 811h236q130 0 200 55.5t70 157.5q0 77 -54.5 107t-152.5 30h-237z" />
<glyph unicode="S" horiz-adv-x="1253" d="M-25 201l187 237q110 -69 233.5 -120.5t218.5 -51.5q76 0 126.5 36t50.5 95q0 41 -35.5 72t-81.5 47.5t-124.5 44.5t-129.5 53q-58 28 -103 60t-85.5 78t-62.5 108.5t-22 138.5q0 95 35 177t100 145t166.5 99t227.5 36q289 0 604 -192l-186 -232q-84 51 -200 93t-200 42 q-71 0 -120.5 -34t-49.5 -95q0 -31 17.5 -53.5t54.5 -39t77 -30t102 -35.5t112 -46q46 -23 81 -45t74.5 -57t65 -74t42.5 -95t17 -121q0 -97 -36.5 -181.5t-104 -147.5t-171 -99.5t-230.5 -36.5q-178 0 -350 66t-300 158z" />
<glyph unicode="T" horiz-adv-x="1146" d="M117 1139l51 295h1098l-54 -295h-370l-201 -1139h-350l201 1139h-375z" />
<glyph unicode="U" horiz-adv-x="1392" d="M100 488q4 70 19 155l141 791h350l-153 -869q-12 -52 -12 -97q0 -8 1 -16q2 -52 18 -91.5t59.5 -62t111.5 -22.5t117.5 21.5t80.5 63.5t48.5 90t29.5 114l154 869h350l-155 -883q-18 -102 -44.5 -181.5t-75 -155.5t-115.5 -126t-169 -80.5t-231 -30.5q-108 0 -192.5 17.5 t-143 49t-98.5 78.5t-61 102q-22 54 -28 124q-4 41 -3 83q-1 28 1 57z" />
<glyph unicode="V" horiz-adv-x="1363" d="M143 1434h387l99 -1016l444 1016h430l-737 -1434h-389z" />
<glyph unicode="W" horiz-adv-x="1871" d="M162 1434h385l10 -908l363 908h286l47 -910l330 910h410l-619 -1434h-336l-55 911l-365 -911h-342z" />
<glyph unicode="X" horiz-adv-x="1286" d="M-113 0l564 723l-289 711h383l139 -482l303 482h428l-536 -709l307 -725h-385l-156 475l-313 -475h-445z" />
<glyph unicode="Y" horiz-adv-x="1277" d="M133 1434h371l160 -549l352 549h407l-622 -865l-99 -569h-350l101 565z" />
<glyph unicode="Z" horiz-adv-x="1230" d="M-53 0l47 268l780 871h-586l52 295h1056l-45 -267l-782 -872h637l-51 -295h-1108z" />
<glyph unicode="[" horiz-adv-x="724" d="M-37 -293l354 2011h568l-35 -194h-217l-287 -1624h219l-35 -193h-567z" />
<glyph unicode="\" horiz-adv-x="929" d="M209 1618h233l312 -1802h-234z" />
<glyph unicode="]" horiz-adv-x="724" d="M-125 -293l35 195h217l287 1624h-219l34 192h568l-355 -2011h-567z" />
<glyph unicode="^" horiz-adv-x="1273" d="M123 655l487 779h344l215 -779h-346l-86 410l-229 -410h-385z" />
<glyph unicode="_" horiz-adv-x="1361" d="M-74 -379l41 240h1157l-41 -240h-1157z" />
<glyph unicode="`" horiz-adv-x="481" d="M217 1493h348l191 -287h-260z" />
<glyph unicode="a" d="M41 373q0 320 138.5 522.5t357.5 202.5q54 0 101 -12.5t88 -38t62.5 -42.5t57.5 -49l20 119h336l-188 -1075h-336l20 123q-177 -146 -350 -146q-61 0 -113.5 21t-97 65.5t-70.5 124t-26 185.5zM387 414q0 -79 29 -123.5t84 -44.5q63 0 120.5 37t124.5 104l56 318 q-84 122 -187 122q-70 0 -122.5 -59.5t-78.5 -152t-26 -201.5z" />
<glyph unicode="b" horiz-adv-x="1218" d="M-2 0l262 1493h336l-92 -530q178 135 338 135q62 0 116 -21t99.5 -65.5t71.5 -124t26 -185.5q0 -320 -136.5 -522.5t-352.5 -202.5q-54 0 -102 12t-89 36t-64 41t-57 47l-20 -113h-336zM397 365q87 -117 189 -117q68 0 120 59.5t77.5 153t25.5 201.5q0 80 -30 123.5 t-89 43.5q-60 0 -115.5 -34.5t-117.5 -94.5z" />
<glyph unicode="c" horiz-adv-x="1007" d="M39 420q0 134 29.5 247t80 191.5t117.5 133.5t141 80.5t152 25.5q38 0 77 -5t68 -10t68 -19t58 -20.5t59 -26.5l49 -24.5t50 -27t42 -23.5l-153 -231q-1 1 -39.5 22.5t-53 29t-46.5 22t-57 20.5t-48 6q-73 0 -130.5 -55t-86.5 -136t-29 -167q0 -88 35 -138.5t106 -50.5 q15 0 33 3t40 10t38.5 12.5t43.5 17.5t39 17.5t41.5 19t35.5 16.5l104 -258q-65 -27 -97.5 -40t-102.5 -37.5t-133 -36t-121 -11.5q-88 0 -161.5 27t-129.5 80.5t-87.5 139t-31.5 196.5z" />
<glyph unicode="d" d="M41 373q0 320 138.5 522.5t357.5 202.5q54 0 101 -12.5t88 -38t62.5 -42.5t57.5 -49l94 537h336l-262 -1493h-336l20 123q-177 -146 -350 -146q-61 0 -113.5 21t-97 65.5t-70.5 124t-26 185.5zM387 414q0 -79 29 -123.5t84 -44.5q63 0 120.5 37t124.5 104l56 318 q-84 122 -187 122q-70 0 -122.5 -59.5t-78.5 -152t-26 -201.5z" />
<glyph unicode="e" horiz-adv-x="1103" d="M37 430q0 143 41.5 265t118 211.5t192.5 140.5t258 51q189 0 303.5 -86t114.5 -228q0 -87 -32.5 -151.5t-84.5 -102.5t-131.5 -61t-160 -31t-183.5 -8h-96v-14q0 -191 149 -191q107 0 367 121l94 -231q-92 -46 -239 -92t-291 -46q-200 0 -310 109.5t-110 343.5zM403 606 h82q122 0 191 40.5t69 113.5q0 45 -30 72.5t-80 27.5q-85 0 -144 -72.5t-88 -181.5z" />
<glyph unicode="f" horiz-adv-x="770" d="M-197 -217q61 21 98.5 35.5t68.5 35t46 36.5t29 49.5t20.5 62.5t16.5 86l129 741h-131l43 246h131l4 25q35 205 115 299t243 94q179 0 379 -113l-151 -215q-103 39 -158 39q-28 0 -53.5 -22t-36.5 -78l-6 -29h239l-47 -246h-235l-125 -714q-13 -75 -20 -111t-20.5 -93 t-26 -83.5t-34.5 -67.5t-48.5 -61.5t-64.5 -49t-86.5 -46.5t-110.5 -37.5t-140 -36.5z" />
<glyph unicode="g" d="M-55 -350l108 258q234 -82 404 -82q108 0 156.5 45t62.5 127l20 123q-183 -144 -348 -144q-61 0 -113.5 21t-97 65.5t-70.5 124t-26 185.5q0 319 139 522t357 203q53 0 100 -12.5t87.5 -37t64 -42.5t57.5 -48l20 117h336l-186 -1061q-23 -134 -65 -222.5t-109 -139 t-150 -70.5t-203 -20q-258 0 -544 88zM387 414q0 -79 29 -123.5t84 -44.5q108 0 243 139l58 322q-85 120 -187 120q-69 0 -121.5 -59.5t-79 -152.5t-26.5 -201z" />
<glyph unicode="h" horiz-adv-x="1212" d="M-2 0l262 1493h336l-94 -535q208 140 360 140q166 0 234 -104q47 -71 47 -175q0 -49 -10 -106l-127 -713h-338l120 678q6 41 6 73v9q-1 36 -21.5 57t-59.5 21q-57 0 -125 -36t-129 -87l-125 -715h-336z" />
<glyph unicode="i" horiz-adv-x="548" d="M-2 0l188 1075h336l-188 -1075h-336zM203 1212l49 275h350l-49 -275h-350z" />
<glyph unicode="j" horiz-adv-x="550" d="M-264 -217q60 20 98.5 35t68.5 32.5t45.5 30.5t27 37t16.5 44t12 58l184 1055h338l-182 -1026q-12 -70 -19 -103t-21.5 -85.5t-30.5 -77.5t-43.5 -63t-63.5 -58.5t-88 -47t-119.5 -46t-155.5 -39.5zM205 1212l49 275h350l-49 -275h-350z" />
<glyph unicode="k" horiz-adv-x="1126" d="M-2 0l262 1493h336l-135 -764l295 346h418l-429 -440l293 -635h-342l-174 408l-143 -150l-45 -258h-336z" />
<glyph unicode="l" horiz-adv-x="555" d="M0 0l264 1493h336l-262 -1493h-338z" />
<glyph unicode="m" horiz-adv-x="1787" d="M-2 0l188 1075h336l-22 -131q172 154 325 154q111 0 176 -49.5t84 -139.5q66 69 168 129t197 60q162 0 226 -100q44 -68 44 -170q0 -48 -10 -105l-129 -723h-336l121 678q7 46 7.5 81.5t-18.5 57t-59 21.5q-50 0 -109 -38t-108 -91l-123 -709h-335l120 678q7 46 7.5 81.5 t-18.5 57t-58 21.5q-92 0 -213 -125l-125 -713h-336z" />
<glyph unicode="n" horiz-adv-x="1212" d="M-2 0l188 1075h336l-20 -117q204 140 360 140q166 0 234 -104q47 -71 47 -175q0 -49 -10 -106l-127 -713h-336l118 678q7 36 7 64q0 96 -82 96q-57 0 -125 -36t-129 -87l-125 -715h-336z" />
<glyph unicode="o" horiz-adv-x="1210" d="M41 428q0 138 37 258t108.5 212.5t186.5 146t260 53.5q238 0 373 -119.5t135 -333.5q0 -110 -23 -208.5t-71 -183t-117 -146t-166.5 -96t-214.5 -34.5q-236 0 -372 119.5t-136 331.5zM379 442q0 -103 38.5 -154.5t137.5 -51.5q62 0 112 39.5t79 100.5t44 127.5t15 129.5 q0 102 -39 154.5t-137 52.5q-62 0 -112 -39.5t-79 -101.5t-44 -128.5t-15 -128.5z" />
<glyph unicode="p" horiz-adv-x="1222" d="M-76 -418l262 1493h336l-20 -112q183 135 342 135q63 0 117 -21t99 -65.5t71 -124t26 -185.5q0 -320 -136.5 -522.5t-352.5 -202.5q-55 0 -103.5 12t-90.5 37t-64.5 42t-57.5 47l-92 -533h-336zM397 369q91 -121 193 -121t162.5 122.5t60.5 291.5q0 79 -31 123t-90 44 q-58 0 -113 -34t-122 -95z" />
<glyph unicode="q" d="M41 373q0 320 138.5 522.5t357.5 202.5q54 0 101 -12.5t88 -38t62.5 -42.5t57.5 -49l20 119h336l-264 -1493h-334l94 541q-177 -146 -350 -146q-61 0 -113.5 21t-97 65.5t-70.5 124t-26 185.5zM387 414q0 -79 29 -123.5t84 -44.5q63 0 120.5 37t124.5 104l56 318 q-84 122 -187 122q-70 0 -122.5 -59.5t-78.5 -152t-26 -201.5z" />
<glyph unicode="r" horiz-adv-x="835" d="M-2 0l188 1075h336l-39 -223q14 25 32.5 50.5t56 63.5t80.5 64q42 26 106 44q49 14 103 14q15 0 30 -1l-55 -315q-67 0 -127 -21t-102.5 -54t-78.5 -73t-58.5 -80.5t-38 -73.5t-21.5 -54l-7 -21l-69 -395h-336z" />
<glyph unicode="s" horiz-adv-x="1048" d="M-35 147l154 220q87 -52 198 -93t189 -41q52 0 78 19.5t26 48.5q0 16 -9 29t-21.5 22t-36.5 19t-44 16t-55.5 16.5t-58.5 18.5q-48 16 -84 31t-79 42t-70 59t-45.5 80.5t-18.5 106.5q0 155 114 256t318 101q133 0 268.5 -41.5t227.5 -95.5l-152 -216q-78 39 -169.5 69 t-159.5 30q-50 0 -76.5 -18.5t-26.5 -47.5q0 -16 8 -29t19.5 -21.5t35 -17.5t42.5 -14.5t54 -15.5t60 -18q48 -16 86 -32t81 -44t71.5 -61t47.5 -82.5t19 -108.5q0 -159 -120.5 -258t-331.5 -99q-153 0 -294.5 50t-244.5 120z" />
<glyph unicode="t" horiz-adv-x="835" d="M76 829l43 246h133l49 271l344 40l-55 -311h264l-43 -246h-264l-82 -460q-3 -21 -3 -37q0 -28 10 -42q16 -20 48 -20q42 0 144 41l77 -258q-199 -76 -350 -76q-161 1 -227 109q-43 71 -43 182q0 60 12 131l76 430h-133z" />
<glyph unicode="u" horiz-adv-x="1214" d="M53 360l125 715h338l-121 -678q-6 -33 -6 -60q0 -99 84 -99q56 0 125.5 36t126.5 86l127 715h336l-189 -1075h-337l20 117q-198 -140 -358 -140q-166 1 -234 103q-47 70 -47 174q0 49 10 106z" />
<glyph unicode="v" horiz-adv-x="1134" d="M90 1075h346l74 -692l317 692h373l-579 -1075h-332z" />
<glyph unicode="w" horiz-adv-x="1628" d="M104 1075h347l14 -674l287 674h270l47 -665l246 665h366l-493 -1075h-314l-59 631l-285 -631h-313z" />
<glyph unicode="x" horiz-adv-x="1169" d="M-115 0l480 539l-269 536h350l138 -327l250 327h401l-461 -538l293 -537h-356l-146 334l-256 -334h-424z" />
<glyph unicode="y" horiz-adv-x="1134" d="M-16 -211q13 5 50 18.5t48 17.5t39.5 16t40 18.5t33.5 19.5t35 25t29.5 28.5t31.5 36.5l-201 1106h348l78 -661l309 661h373l-565 -1075q-25 -47 -37 -69t-37.5 -64.5t-42.5 -64t-47 -57t-57 -56t-66.5 -47.5t-81.5 -45t-96 -36.5t-115 -31.5z" />
<glyph unicode="z" horiz-adv-x="1093" d="M-51 0l41 231l600 568h-479l47 276h952l-43 -231l-598 -568h500l-47 -276h-973z" />
<glyph unicode="{" horiz-adv-x="772" d="M20 612l37 199q205 0 217 225l11 205q13 250 150 363.5t392 113.5h97l-33 -188h-37q-197 0 -213 -250l-10 -180q-11 -195 -94 -282.5t-246 -110.5q144 -32 196 -128t0 -280l-32 -111q-80 -292 112 -292h35l-33 -189h-34q-110 0 -201 30t-157 91.5t-85.5 156t14.5 222.5 l54 182q20 69 17 118.5t-41.5 77t-115.5 27.5z" />
<glyph unicode="|" horiz-adv-x="489" d="M-29 -252l340 1927h244l-340 -1927h-244z" />
<glyph unicode="}" horiz-adv-x="772" d="M-119 -293l33 189h37q197 0 213 249l10 181q11 195 94 282.5t246 110.5q-144 32 -196.5 127.5t-0.5 279.5l33 111q81 293 -112 293h-35l33 188h34q110 0 201 -30t156.5 -91.5t85 -155.5t-14.5 -222l-53 -183q-20 -69 -17.5 -118.5t41 -77t115.5 -27.5l-36 -199 q-206 0 -218 -225l-10 -205q-13 -250 -150.5 -363.5t-392.5 -113.5h-96z" />
<glyph unicode="~" horiz-adv-x="1273" d="M27 440q87 164 178.5 248t214.5 84q63 0 128.5 -24.5t110.5 -53.5t100 -53.5t101 -24.5q42 0 81.5 29t96.5 115l189 -84q-86 -164 -177.5 -248t-213.5 -84q-64 0 -129.5 24.5t-110.5 53.5t-101 53.5t-102 24.5q-42 0 -80.5 -28.5t-97.5 -115.5z" />
<glyph unicode="&#xa1;" horiz-adv-x="581" d="M-23 0l273 958h201l-64 -958h-410zM207 1098l59 336h336l-57 -336h-338z" />
<glyph unicode="&#xa2;" horiz-adv-x="1105" d="M94 600q0 166 45 299t119.5 214t165.5 123t190 42h13l28 156h244l-37 -205q74 -28 246 -125l-152 -227q-53 33 -85.5 52t-88.5 40.5t-96 21.5q-72 0 -129.5 -55t-87 -136t-29.5 -167q0 -88 35.5 -138.5t106.5 -50.5q81 0 295 97l104 -252q-174 -78 -303 -109l-31 -180 h-244l29 162q-155 20 -246.5 130.5t-91.5 307.5z" />
<glyph unicode="&#xa3;" horiz-adv-x="1140" d="M-16 0l43 233q9 3 24 9t55.5 29.5t74 52t68 77t48.5 103.5h-203l35 196h162q-5 19 -31 94t-37.5 131t-11.5 119q0 190 115.5 301t322.5 111q72 0 142 -15t122 -35t108.5 -52.5t88 -55t74.5 -55.5l-174 -205q-178 129 -299 129q-73 0 -113.5 -43.5t-40.5 -111.5 q0 -54 36 -154.5t44 -157.5h303l-35 -196h-280q-23 -74 -64.5 -130.5t-83.5 -84.5h512l-51 -289h-954z" />
<glyph unicode="&#xa5;" horiz-adv-x="1392" d="M129 281l33 194h332l16 90l-4 13h-326l35 194h219l-244 662h371l160 -549l352 549h408l-477 -662h217l-35 -194h-322l-6 -9l-16 -94h327l-34 -194h-328l-47 -281h-350l49 281h-330z" />
<glyph unicode="&#xa6;" horiz-adv-x="491" d="M-29 -252l150 846h244l-150 -846h-244zM164 829l147 846h244l-147 -846h-244z" />
<glyph unicode="&#xa7;" horiz-adv-x="1138" d="M20 -10l154 213q77 -39 169 -69t159 -30q51 0 77.5 19t26.5 49q0 13 -4.5 23t-15.5 19t-22.5 15.5t-33.5 14t-39.5 13t-49 15t-54.5 17.5q-48 16 -84.5 31.5t-81 43t-73 59.5t-48.5 80t-20 105q0 98 54 171.5t155 113.5q-84 81 -84 207q0 155 114.5 255.5t319.5 100.5 q133 0 268.5 -41.5t227.5 -95.5l-154 -215q-73 38 -167 68t-161 30q-52 0 -78 -18t-26 -47q0 -19 9.5 -33t33.5 -25.5t43.5 -18t63 -19t69.5 -21.5q63 -21 112 -45.5t95.5 -62t72 -92t25.5 -122.5q0 -97 -53.5 -170.5t-153.5 -113.5q84 -77 84 -205q0 -155 -115 -255.5 t-319 -100.5q-133 0 -267 41t-229 96zM408 666q0 -15 5.5 -28t18.5 -23.5t25 -18.5t35.5 -16.5t39 -13.5t47 -14.5t48.5 -14.5q66 12 92 42t26 62q0 12 -3.5 22.5t-11 19.5t-15.5 16.5t-22.5 14.5t-25.5 12t-31 12t-33 11t-37 11.5t-38 11.5q-66 -12 -93 -42.5t-27 -63.5z " />
<glyph unicode="&#xa8;" horiz-adv-x="497" d="M143 1227l45 262h265l-45 -262h-265zM514 1227l45 262h264l-45 -262h-264z" />
<glyph unicode="&#xa9;" horiz-adv-x="1617" d="M96 641q0 131 32.5 251.5t98.5 223t158.5 178.5t219 119t274.5 43q206 0 360 -84.5t234.5 -234.5t80.5 -344q0 -131 -32.5 -251.5t-98.5 -223.5t-158 -179t-219.5 -119t-275.5 -43q-309 0 -491.5 184t-182.5 480zM174 643q0 -261 161.5 -425.5t442.5 -164.5q160 0 293 59 t220.5 160t135.5 234.5t48 284.5q0 171 -70.5 303t-208.5 208t-324 76q-161 0 -294 -58.5t-220.5 -159t-135.5 -233.5t-48 -284zM446 618q-5 126 27 230.5t90 172t134.5 104t162.5 36.5q54 0 104.5 -12.5t94.5 -37t69.5 -42.5t59.5 -45l-64 -66q-28 23 -47.5 37.5t-55.5 36 t-77 32.5t-86 11q-138 0 -228 -128t-83 -322q5 -124 56 -195.5t138 -71.5q150 0 310 113l51 -74q-53 -35 -95 -58t-115 -46t-144 -23q-127 0 -211.5 91.5t-90.5 256.5z" />
<glyph unicode="&#xaa;" horiz-adv-x="847" d="M145 1022q0 188 87 307t223 119q34 0 63 -7t55.5 -22t38 -23.5t35.5 -27.5l12 66h228l-115 -646h-227l10 64q-109 -78 -213 -78q-85 0 -141 59.5t-56 188.5zM377 1044q0 -90 65 -90q62 0 144 74l32 174q-21 28 -50.5 46t-57.5 18q-60 0 -96.5 -65.5t-36.5 -156.5z" />
<glyph unicode="&#xab;" horiz-adv-x="1318" d="M27 449l36 200l650 430l-62 -336l-348 -217l275 -217l-52 -289zM614 449l37 200l649 430l-61 -336l-348 -217l274 -217l-51 -289z" />
<glyph unicode="&#xac;" horiz-adv-x="1273" d="M53 557l45 252h1123l-111 -625h-268l63 373h-852z" />
<glyph unicode="&#xad;" horiz-adv-x="839" d="M74 449l47 268h631l-47 -268h-631z" />
<glyph unicode="&#xae;" horiz-adv-x="929" d="M147 1042q0 87 28 164.5t79.5 137.5t132 95.5t178.5 35.5q164 0 261.5 -98.5t97.5 -256.5q0 -117 -47 -213.5t-143.5 -157.5t-225.5 -61q-166 0 -263.5 98t-97.5 256zM217 1044q0 -127 79 -207.5t216 -80.5q158 0 252 103.5t94 258.5q0 127 -81 208t-218 81 q-158 0 -250 -104t-92 -259zM358 889l70 395h174q56 0 88.5 -29t32.5 -73q0 -50 -33.5 -82t-89.5 -41l66 -170h-70l-61 168h-80l-29 -168h-68zM467 1118h100q44 0 66 18t22 46q0 41 -55 41h-115z" />
<glyph unicode="&#xaf;" horiz-adv-x="604" d="M229 1257l33 193h594l-33 -193h-594z" />
<glyph unicode="&#xb0;" horiz-adv-x="839" d="M133 1075q0 149 106 255t255 106t255.5 -106t106.5 -255t-106.5 -255.5t-255.5 -106.5t-255 106.5t-106 255.5zM324 1075q0 -69 50.5 -119.5t119.5 -50.5t118.5 50.5t49.5 119.5t-49.5 118.5t-118.5 49.5t-119.5 -49.5t-50.5 -118.5z" />
<glyph unicode="&#xb1;" horiz-adv-x="1275" d="M39 0l39 215h981l-37 -215h-983zM145 600l43 250h365l47 270h258l-47 -270h360l-43 -250h-362l-47 -270h-258l47 270h-363z" />
<glyph unicode="&#xb2;" horiz-adv-x="790" d="M76 788l16 97q7 41 22.5 78.5t32 65t45.5 57.5t48.5 47.5t58 43.5t56 36.5t59.5 35.5q25 14 57.5 32.5t50 28.5t39 22.5t32.5 21t21.5 19t14.5 20t4 20.5q-3 55 -82 55q-89 0 -234 -82l-86 164q186 113 353 113q140 0 213 -68t73 -168q0 -37 -11 -71t-27 -60.5t-45 -54 t-52 -45.5t-62 -41t-62 -35.5t-64 -32.5q-87 -44 -113.5 -63t-32.5 -41h385l-30 -195h-680z" />
<glyph unicode="&#xb3;" horiz-adv-x="788" d="M72 915l114 144q86 -48 141 -68t115 -20q62 0 94.5 22.5t32.5 61.5q0 27 -16 44.5t-46 26.5t-62 12t-76 3h-35l33 196h41q81 0 137.5 18t56.5 60q0 24 -19.5 38.5t-50.5 14.5q-54 0 -120 -23.5t-113 -49.5l-76 159q33 20 52.5 30t70 33t109 34.5t120.5 11.5 q133 0 201 -57t68 -144q0 -132 -164 -211q57 -22 92 -75.5t35 -122.5q0 -39 -10 -76t-35 -74.5t-62.5 -65.5t-97.5 -45.5t-135 -17.5q-216 0 -395 141z" />
<glyph unicode="&#xb4;" horiz-adv-x="483" d="M150 1206l284 287h383l-377 -287h-290z" />
<glyph unicode="&#xb5;" horiz-adv-x="1259" d="M-59 -418l260 1493h338l-121 -678q-28 -159 78 -159q56 0 125.5 36t126.5 86l126 715h336l-188 -1075h-338l21 117q-198 -140 -359 -140h-2l-68 -395h-335z" />
<glyph unicode="&#xb6;" horiz-adv-x="1443" d="M104 838q0 148 52 265t139 187.5t194.5 107t225.5 36.5h309l-319 -1813h-283l141 801q-97 0 -178.5 24.5t-145 73.5t-99.5 130t-36 188zM836 -381l319 1815h281l-320 -1815h-280z" />
<glyph unicode="&#xb7;" horiz-adv-x="546" d="M66 399l65 367h338l-66 -367h-337z" />
<glyph unicode="&#xb8;" horiz-adv-x="354" d="M-82 -336l90 160q43 -23 88 -23q94 0 94 88q0 24 -7.5 52.5t-14.5 45.5l-8 17h145q5 -8 12.5 -22.5t20 -57t12.5 -82.5q0 -111 -71.5 -168t-180.5 -57q-112 0 -180 47z" />
<glyph unicode="&#xb9;" horiz-adv-x="641" d="M156 1507l268 142h223l-151 -861h-236l115 631l-148 -73z" />
<glyph unicode="&#xba;" horiz-adv-x="815" d="M139 1051q0 81 23 151.5t68 126t118.5 87.5t167.5 32q151 0 238.5 -73.5t87.5 -203.5q0 -82 -23 -152.5t-67.5 -125.5t-118.5 -87t-168 -32q-150 0 -238 73.5t-88 203.5zM367 1059q0 -57 22.5 -84t79.5 -27q49 0 84 39t48 85.5t13 90.5q0 57 -22 84t-80 27q-47 0 -82 -39 t-49 -86t-14 -90z" />
<glyph unicode="&#xbb;" horiz-adv-x="1318" d="M-2 20l61 336l349 217l-275 218l51 288l500 -428l-37 -200zM588 20l61 336l348 217l-274 218l51 288l500 -428l-37 -200z" />
<glyph unicode="&#xbc;" horiz-adv-x="1759" d="M162 1292l268 142h223l-151 -861h-236l115 631l-148 -74zM260 0l864 1434h250l-864 -1434h-250zM811 150l29 161l456 549h314l-92 -516h124l-34 -194h-125l-27 -150h-235l26 150h-436zM1092 344h190l53 297z" />
<glyph unicode="&#xbd;" horiz-adv-x="1792" d="M162 1292l268 142h223l-151 -861h-236l115 631l-148 -74zM260 0l864 1434h250l-864 -1434h-250zM915 0l17 96q10 57 35.5 107t52 82.5t74.5 70t75.5 55t83.5 50.5q25 15 57 33t50.5 28t39.5 22.5t32.5 21t22 19t14.5 20t4 20.5q-3 55 -82 55q-89 0 -234 -82l-86 164 q185 112 352 112q140 0 213.5 -67.5t73.5 -167.5q0 -42 -13 -80.5t-40.5 -71t-53.5 -57t-70.5 -51.5t-71.5 -41.5t-75 -38.5q-86 -43 -112.5 -62.5t-32.5 -41.5h385l-31 -195h-680z" />
<glyph unicode="&#xbe;" horiz-adv-x="1937" d="M70 700l114 144q86 -48 141 -68t115 -20q62 0 94.5 22.5t32.5 61.5q0 27 -16 44.5t-46 26.5t-62 12t-76 3h-35l33 196h41q81 0 137.5 18t56.5 60q0 24 -19.5 38.5t-50.5 14.5q-54 0 -120 -23.5t-113 -49.5l-76 159q33 20 52.5 30t70 33t109 34.5t120.5 11.5 q133 0 201 -57t68 -144q0 -132 -164 -211q57 -22 92 -75.5t35 -122.5q0 -39 -10 -76t-35 -74.5t-62.5 -65.5t-97.5 -45.5t-135 -17.5q-216 0 -395 141zM438 0l865 1434h249l-864 -1434h-250zM991 150l29 161l457 549h313l-92 -516h125l-35 -194h-125l-27 -150h-235l26 150 h-436zM1272 344h190l54 297z" />
<glyph unicode="&#xbf;" horiz-adv-x="1060" d="M27 334q0 83 29 153t77.5 120.5t117 90t141.5 64.5t157 41l43 155h207l-41 -344q-198 -35 -288.5 -87.5t-90.5 -139.5q0 -56 35 -88.5t106 -32.5q116 0 299 107l107 -250q-240 -146 -484 -146q-194 0 -304.5 97t-110.5 260zM553 1098l57 336h338l-59 -336h-336z" />
<glyph unicode="&#xc0;" horiz-adv-x="1368" d="M-100 0l741 1434h385l234 -1434h-367l-25 262h-452l-117 -262h-399zM520 1802h348l191 -286h-260zM537 535h305l-54 567z" />
<glyph unicode="&#xc1;" horiz-adv-x="1368" d="M-100 0l741 1434h385l234 -1434h-367l-25 262h-452l-117 -262h-399zM537 535h305l-54 567zM641 1516l285 286h383l-377 -286h-291z" />
<glyph unicode="&#xc2;" horiz-adv-x="1368" d="M-100 0l741 1434h385l234 -1434h-367l-25 262h-452l-117 -262h-399zM487 1516l256 286h312l153 -286h-211l-110 143l-158 -143h-242zM537 535h305l-54 567z" />
<glyph unicode="&#xc3;" horiz-adv-x="1368" d="M-100 0l741 1434h385l234 -1434h-367l-25 262h-452l-117 -262h-399zM496 1612q30 45 44 65t42 53.5t49.5 48t52.5 26.5t66 12t73.5 -15.5t66.5 -34t58 -34t51 -15.5q49 0 119 99l131 -91q-29 -44 -44 -66t-42.5 -54t-49.5 -47t-53.5 -27t-66.5 -12q-43 0 -91 24.5t-89 49 t-68 24.5q-48 0 -118 -96zM537 535h305l-54 567z" />
<glyph unicode="&#xc4;" horiz-adv-x="1368" d="M-100 0l741 1434h385l234 -1434h-367l-25 262h-452l-117 -262h-399zM535 1536l45 262h264l-45 -262h-264zM537 535h305l-54 567zM905 1536l45 262h264l-45 -262h-264z" />
<glyph unicode="&#xc5;" horiz-adv-x="1368" d="M-100 0l741 1434h385l234 -1434h-367l-25 262h-452l-117 -262h-399zM537 535h305l-54 567zM657 1724q0 97 67.5 164.5t164.5 67.5q95 0 162 -67.5t67 -164.5q0 -95 -67 -162t-162 -67q-97 0 -164.5 67t-67.5 162zM813 1724q0 -31 22.5 -53t53.5 -22t53.5 22t22.5 53 q0 32 -22.5 55t-53.5 23t-53.5 -23t-22.5 -55z" />
<glyph unicode="&#xc6;" horiz-adv-x="2058" d="M-174 0l1139 1434h1153l-52 -295h-626l-49 -277h512l-52 -289h-512l-49 -278h637l-51 -295h-987l45 262h-463l-199 -262h-446zM684 545h299l92 516z" />
<glyph unicode="&#xc7;" horiz-adv-x="1263" d="M80 541q0 213 51.5 387t142 289t214.5 177t268 62q69 0 139 -14.5t120.5 -32t118.5 -53.5t102.5 -57.5t102.5 -65.5l-188 -246q-122 80 -200.5 117t-157.5 37q-109 0 -191 -82t-122 -209.5t-40 -278.5q0 -280 176 -280q132 0 404 149l141 -276q-305 -157 -530 -180 q33 -80 33 -142q0 -111 -71.5 -168t-180.5 -57q-113 0 -181 47l91 160q43 -23 88 -23q94 0 94 88q0 43 -21 91q-190 15 -296.5 156t-106.5 405z" />
<glyph unicode="&#xc8;" horiz-adv-x="1193" d="M25 0l251 1434h977l-51 -295h-627l-49 -277h512l-51 -289h-512l-49 -278h637l-51 -295h-987zM459 1802h348l190 -286h-260z" />
<glyph unicode="&#xc9;" horiz-adv-x="1193" d="M25 0l251 1434h977l-51 -295h-627l-49 -277h512l-51 -289h-512l-49 -278h637l-51 -295h-987zM563 1516l285 286h383l-377 -286h-291z" />
<glyph unicode="&#xca;" horiz-adv-x="1193" d="M25 0l251 1434h977l-51 -295h-627l-49 -277h512l-51 -289h-512l-49 -278h637l-51 -295h-987zM424 1516l256 286h311l154 -286h-211l-111 143l-157 -143h-242z" />
<glyph unicode="&#xcb;" horiz-adv-x="1193" d="M25 0l251 1434h977l-51 -295h-627l-49 -277h512l-51 -289h-512l-49 -278h637l-51 -295h-987zM473 1536l45 262h264l-45 -262h-264zM844 1536l45 262h264l-45 -262h-264z" />
<glyph unicode="&#xcc;" horiz-adv-x="616" d="M25 0l251 1434h351l-252 -1434h-350zM141 1802h348l191 -286h-260z" />
<glyph unicode="&#xcd;" horiz-adv-x="614" d="M25 0l251 1434h351l-252 -1434h-350zM244 1516l284 286h383l-376 -286h-291z" />
<glyph unicode="&#xce;" horiz-adv-x="614" d="M25 0l251 1434h351l-252 -1434h-350zM104 1516l256 286h312l153 -286h-211l-110 143l-158 -143h-242z" />
<glyph unicode="&#xcf;" horiz-adv-x="612" d="M25 0l251 1434h351l-252 -1434h-350zM154 1536l45 262h264l-45 -262h-264zM524 1536l45 262h265l-46 -262h-264z" />
<glyph unicode="&#xd0;" horiz-adv-x="1433" d="M16 584l47 268h136l102 582h406q148 0 265 -29.5t194.5 -81t128 -126t72.5 -159.5t22 -186q0 -64 -8.5 -133t-32 -154.5t-60.5 -162.5t-99.5 -152t-142 -129t-195 -87.5t-253.5 -33.5h-549l103 584h-136zM451 295h96q106 0 191 34t139.5 89t90.5 128.5t51 147.5t15 152 q0 155 -87.5 224t-262.5 69h-84l-51 -287h254l-47 -268h-254z" />
<glyph unicode="&#xd1;" horiz-adv-x="1443" d="M25 0l251 1434h351l323 -895l156 895h350l-252 -1434h-350l-326 897l-153 -897h-350zM541 1612q30 45 44 65t42 53.5t49.5 48t52.5 26.5t66 12t73.5 -15.5t66.5 -34t58 -34t51 -15.5q49 0 119 99l131 -91q-29 -44 -44 -66t-42.5 -54t-49.5 -47t-53.5 -27t-66.5 -12 q-44 0 -91.5 24.5t-88 49t-67.5 24.5q-49 0 -119 -96z" />
<glyph unicode="&#xd2;" horiz-adv-x="1488" d="M80 565q0 136 27.5 263t87 241.5t145.5 200t211 136t276 50.5q300 0 457.5 -154.5t157.5 -424.5q0 -137 -27.5 -265t-87.5 -244t-146.5 -202.5t-212 -137.5t-276.5 -51q-298 0 -455 156.5t-157 431.5zM438 590q0 -73 12 -127.5t41.5 -98.5t83.5 -67t132 -23t143 40.5 t106.5 103t70.5 140.5t41.5 150.5t12.5 135.5q0 73 -12.5 127.5t-41.5 98.5t-82.5 66.5t-131.5 22.5t-143 -40.5t-107 -102.5t-71 -140t-41.5 -150.5t-12.5 -135.5zM575 1802h349l190 -286h-260z" />
<glyph unicode="&#xd3;" horiz-adv-x="1488" d="M80 565q0 136 27.5 263t87 241.5t145.5 200t211 136t276 50.5q300 0 457.5 -154.5t157.5 -424.5q0 -137 -27.5 -265t-87.5 -244t-146.5 -202.5t-212 -137.5t-276.5 -51q-298 0 -455 156.5t-157 431.5zM438 590q0 -73 12 -127.5t41.5 -98.5t83.5 -67t132 -23t143 40.5 t106.5 103t70.5 140.5t41.5 150.5t12.5 135.5q0 73 -12.5 127.5t-41.5 98.5t-82.5 66.5t-131.5 22.5t-143 -40.5t-107 -102.5t-71 -140t-41.5 -150.5t-12.5 -135.5zM678 1516l285 286h383l-377 -286h-291z" />
<glyph unicode="&#xd4;" horiz-adv-x="1488" d="M80 565q0 136 27.5 263t87 241.5t145.5 200t211 136t276 50.5q300 0 457.5 -154.5t157.5 -424.5q0 -137 -27.5 -265t-87.5 -244t-146.5 -202.5t-212 -137.5t-276.5 -51q-298 0 -455 156.5t-157 431.5zM438 590q0 -73 12 -127.5t41.5 -98.5t83.5 -67t132 -23t143 40.5 t106.5 103t70.5 140.5t41.5 150.5t12.5 135.5q0 73 -12.5 127.5t-41.5 98.5t-82.5 66.5t-131.5 22.5t-143 -40.5t-107 -102.5t-71 -140t-41.5 -150.5t-12.5 -135.5zM543 1516l256 286h311l154 -286h-211l-111 143l-158 -143h-241z" />
<glyph unicode="&#xd5;" horiz-adv-x="1488" d="M80 565q0 136 27.5 263t87 241.5t145.5 200t211 136t276 50.5q300 0 457.5 -154.5t157.5 -424.5q0 -137 -27.5 -265t-87.5 -244t-146.5 -202.5t-212 -137.5t-276.5 -51q-298 0 -455 156.5t-157 431.5zM438 590q0 -73 12 -127.5t41.5 -98.5t83.5 -67t132 -23t143 40.5 t106.5 103t70.5 140.5t41.5 150.5t12.5 135.5q0 73 -12.5 127.5t-41.5 98.5t-82.5 66.5t-131.5 22.5t-143 -40.5t-107 -102.5t-71 -140t-41.5 -150.5t-12.5 -135.5zM551 1612q30 45 44 65t42 53.5t49.5 48t52.5 26.5t66 12t74 -15.5t66.5 -34t58 -34t51.5 -15.5q49 0 119 99 l131 -91q-29 -44 -44 -66t-42.5 -54t-49.5 -47t-53.5 -27t-66.5 -12q-43 0 -91 24.5t-89 49t-68 24.5q-49 0 -119 -96z" />
<glyph unicode="&#xd6;" horiz-adv-x="1488" d="M80 565q0 136 27.5 263t87 241.5t145.5 200t211 136t276 50.5q300 0 457.5 -154.5t157.5 -424.5q0 -137 -27.5 -265t-87.5 -244t-146.5 -202.5t-212 -137.5t-276.5 -51q-298 0 -455 156.5t-157 431.5zM438 590q0 -73 12 -127.5t41.5 -98.5t83.5 -67t132 -23t143 40.5 t106.5 103t70.5 140.5t41.5 150.5t12.5 135.5q0 73 -12.5 127.5t-41.5 98.5t-82.5 66.5t-131.5 22.5t-143 -40.5t-107 -102.5t-71 -140t-41.5 -150.5t-12.5 -135.5zM590 1536l45 262h264l-45 -262h-264zM961 1536l45 262h264l-45 -262h-264z" />
<glyph unicode="&#xd7;" horiz-adv-x="1273" d="M162 442l303 258l-205 250l205 170l205 -248l303 258l164 -194l-306 -260l207 -250l-204 -170l-207 248l-301 -256z" />
<glyph unicode="&#xd8;" horiz-adv-x="1488" d="M-6 0l184 205q-96 137 -96 360q0 136 27.5 263t87 241.5t145.5 200t211 136t276 50.5q242 0 390 -100l71 78h240l-184 -203q98 -146 98 -354q0 -137 -27.5 -265t-87.5 -244t-146.5 -202.5t-212 -137.5t-276.5 -51q-241 0 -389 103l-72 -80h-239zM440 590q0 -61 4 -90 l549 606q-62 53 -178 53q-78 0 -143 -40.5t-107 -102.5t-71 -140t-41.5 -150.5t-12.5 -135.5zM528 326q65 -52 181 -52q78 0 143 40.5t106.5 103t70.5 140.5t41.5 150.5t12.5 135.5q0 46 -6 90z" />
<glyph unicode="&#xd9;" horiz-adv-x="1388" d="M96.5 488.5q4.5 70.5 18.5 154.5l141 791h350l-153 -869q-14 -61 -11.5 -113.5t18.5 -91.5t59.5 -61.5t111.5 -22.5t117.5 21.5t80.5 63.5t48.5 90t29.5 114l154 869h350l-156 -883q-18 -102 -44.5 -181.5t-75 -155.5t-115.5 -126t-168.5 -80.5t-230.5 -30.5 q-108 0 -192.5 17.5t-143 49t-98.5 78.5t-61 101.5t-27.5 124.5t-2 140.5zM518 1802h348l191 -286h-260z" />
<glyph unicode="&#xda;" horiz-adv-x="1388" d="M96.5 488.5q4.5 70.5 18.5 154.5l141 791h350l-153 -869q-14 -61 -11.5 -113.5t18.5 -91.5t59.5 -61.5t111.5 -22.5t117.5 21.5t80.5 63.5t48.5 90t29.5 114l154 869h350l-156 -883q-18 -102 -44.5 -181.5t-75 -155.5t-115.5 -126t-168.5 -80.5t-230.5 -30.5 q-108 0 -192.5 17.5t-143 49t-98.5 78.5t-61 101.5t-27.5 124.5t-2 140.5zM621 1516l284 286h383l-377 -286h-290z" />
<glyph unicode="&#xdb;" horiz-adv-x="1388" d="M96.5 488.5q4.5 70.5 18.5 154.5l141 791h350l-153 -869q-14 -61 -11.5 -113.5t18.5 -91.5t59.5 -61.5t111.5 -22.5t117.5 21.5t80.5 63.5t48.5 90t29.5 114l154 869h350l-156 -883q-18 -102 -44.5 -181.5t-75 -155.5t-115.5 -126t-168.5 -80.5t-230.5 -30.5 q-108 0 -192.5 17.5t-143 49t-98.5 78.5t-61 101.5t-27.5 124.5t-2 140.5zM483 1516l256 286h312l153 -286h-211l-110 143l-158 -143h-242z" />
<glyph unicode="&#xdc;" horiz-adv-x="1388" d="M96.5 488.5q4.5 70.5 18.5 154.5l141 791h350l-153 -869q-14 -61 -11.5 -113.5t18.5 -91.5t59.5 -61.5t111.5 -22.5t117.5 21.5t80.5 63.5t48.5 90t29.5 114l154 869h350l-156 -883q-18 -102 -44.5 -181.5t-75 -155.5t-115.5 -126t-168.5 -80.5t-230.5 -30.5 q-108 0 -192.5 17.5t-143 49t-98.5 78.5t-61 101.5t-27.5 124.5t-2 140.5zM535 1536l45 262h264l-45 -262h-264zM905 1536l45 262h264l-45 -262h-264z" />
<glyph unicode="&#xdd;" horiz-adv-x="1277" d="M133 1434h371l160 -549l352 549h407l-622 -865l-99 -569h-350l101 565zM567 1516l285 286h383l-377 -286h-291z" />
<glyph unicode="&#xde;" horiz-adv-x="1316" d="M25 0l251 1434h351l-39 -222h170q540 0 540 -415q0 -73 -17.5 -144t-58.5 -141t-102 -123t-156.5 -86t-213.5 -33h-328l-47 -270h-350zM471 555h217q123 0 186.5 60.5t63.5 166.5q0 77 -49.5 108.5t-138.5 31.5h-213z" />
<glyph unicode="&#xdf;" horiz-adv-x="1394" d="M-2 0l166 946q17 100 45 179t77 150.5t116 119t165.5 75t223.5 27.5q135 0 237.5 -31t160.5 -83.5t86 -114.5t28 -131q0 -45 -12 -87t-28.5 -69.5t-33.5 -48t-29 -30.5l-12 -9q-32 -8 -62 -19t-62 -27.5t-51.5 -40t-19.5 -50.5q0 -32 27 -56.5t82 -59t90 -67.5 q111 -105 111 -241q0 -153 -121 -254t-308 -101q-207 0 -428 134l154 219q47 -31 123 -56.5t133 -25.5q49 0 75.5 20.5t26.5 53.5q0 46 -71 90q-5 3 -31 17.5t-37.5 22t-36.5 25t-38.5 31.5t-32 37.5t-28 46.5t-17 54t-7.5 65q0 55 18 103t46 82.5t70.5 65.5t83.5 52t92 41 q8 28 8 49q0 59 -47.5 97t-145.5 38q-120 0 -188.5 -71.5t-99.5 -247.5l-162 -920h-336z" />
<glyph unicode="&#xe0;" d="M41 373q0 320 138.5 522.5t357.5 202.5q54 0 101 -12.5t88 -38t62.5 -42.5t57.5 -49l20 119h336l-188 -1075h-336l20 123q-177 -146 -350 -146q-61 0 -113.5 21t-97 65.5t-70.5 124t-26 185.5zM387 414q0 -79 29 -123.5t84 -44.5q63 0 120.5 37t124.5 104l56 318 q-84 122 -187 122q-70 0 -122.5 -59.5t-78.5 -152t-26 -201.5zM387 1493h348l191 -287h-260z" />
<glyph unicode="&#xe1;" d="M41 373q0 320 138.5 522.5t357.5 202.5q54 0 101 -12.5t88 -38t62.5 -42.5t57.5 -49l20 119h336l-188 -1075h-336l20 123q-177 -146 -350 -146q-61 0 -113.5 21t-97 65.5t-70.5 124t-26 185.5zM387 414q0 -79 29 -123.5t84 -44.5q63 0 120.5 37t124.5 104l56 318 q-84 122 -187 122q-70 0 -122.5 -59.5t-78.5 -152t-26 -201.5zM481 1206l285 287h383l-377 -287h-291z" />
<glyph unicode="&#xe2;" d="M41 373q0 320 138.5 522.5t357.5 202.5q54 0 101 -12.5t88 -38t62.5 -42.5t57.5 -49l20 119h336l-188 -1075h-336l20 123q-177 -146 -350 -146q-61 0 -113.5 21t-97 65.5t-70.5 124t-26 185.5zM352 1206l256 287h312l153 -287h-211l-110 144l-158 -144h-242zM387 414 q0 -79 29 -123.5t84 -44.5q63 0 120.5 37t124.5 104l56 318q-84 122 -187 122q-70 0 -122.5 -59.5t-78.5 -152t-26 -201.5z" />
<glyph unicode="&#xe3;" d="M41 373q0 320 138.5 522.5t357.5 202.5q54 0 101 -12.5t88 -38t62.5 -42.5t57.5 -49l20 119h336l-188 -1075h-336l20 123q-177 -146 -350 -146q-61 0 -113.5 21t-97 65.5t-70.5 124t-26 185.5zM367 1303q30 45 44.5 65.5t42 53t49 47t52.5 26.5t66 12q44 0 93 -24.5 t90 -49t66 -24.5q49 0 119 98l131 -90q-29 -45 -44 -66.5t-42.5 -54t-49.5 -47.5t-53.5 -27t-66.5 -12q-43 0 -91.5 25t-89.5 49.5t-67 24.5q-48 0 -118 -97zM387 414q0 -79 29 -123.5t84 -44.5q63 0 120.5 37t124.5 104l56 318q-84 122 -187 122q-70 0 -122.5 -59.5 t-78.5 -152t-26 -201.5z" />
<glyph unicode="&#xe4;" d="M41 373q0 320 138.5 522.5t357.5 202.5q54 0 101 -12.5t88 -38t62.5 -42.5t57.5 -49l20 119h336l-188 -1075h-336l20 123q-177 -146 -350 -146q-61 0 -113.5 21t-97 65.5t-70.5 124t-26 185.5zM387 414q0 -79 29 -123.5t84 -44.5q63 0 120.5 37t124.5 104l56 318 q-84 122 -187 122q-70 0 -122.5 -59.5t-78.5 -152t-26 -201.5zM414 1227l45 262h264l-45 -262h-264zM784 1227l45 262h265l-45 -262h-265z" />
<glyph unicode="&#xe5;" d="M41 373q0 320 138.5 522.5t357.5 202.5q54 0 101 -12.5t88 -38t62.5 -42.5t57.5 -49l20 119h336l-188 -1075h-336l20 123q-177 -146 -350 -146q-61 0 -113.5 21t-97 65.5t-70.5 124t-26 185.5zM387 414q0 -79 29 -123.5t84 -44.5q63 0 120.5 37t124.5 104l56 318 q-84 122 -187 122q-70 0 -122.5 -59.5t-78.5 -152t-26 -201.5zM526 1415q0 97 67.5 164.5t164.5 67.5q95 0 162 -67.5t67 -164.5q0 -95 -67 -162t-162 -67q-97 0 -164.5 67t-67.5 162zM682 1415q0 -31 22.5 -53.5t53.5 -22.5t53.5 22.5t22.5 53.5q0 32 -22.5 55t-53.5 23 t-53.5 -23t-22.5 -55z" />
<glyph unicode="&#xe6;" horiz-adv-x="1824" d="M41 373q0 320 138.5 522.5t357.5 202.5q54 0 101 -12.5t88 -38t62.5 -42.5t57.5 -49l20 119h324q90 23 178 23q189 0 303.5 -86t114.5 -228q0 -87 -32.5 -151.5t-84.5 -102.5t-131.5 -61t-160 -31t-183.5 -8h-96v-14q0 -191 149 -191q107 0 367 121l94 -231 q-92 -46 -239 -92t-291 -46q-84 0 -164 23h-336l20 123q-177 -146 -350 -146q-61 0 -113.5 21t-97 65.5t-70.5 124t-26 185.5zM387 414q0 -79 29 -123.5t84 -44.5q63 0 120.5 37t124.5 104l13 70q3 126 41 239l2 9q-84 122 -187 122q-70 0 -122.5 -59.5t-78.5 -152 t-26 -201.5zM1124 606h82q122 0 191 40.5t69 113.5q0 45 -30 72.5t-80 27.5q-85 0 -144 -72.5t-88 -181.5z" />
<glyph unicode="&#xe7;" horiz-adv-x="1007" d="M39 420q0 134 29.5 247t80 191.5t117.5 133.5t141 80.5t152 25.5q38 0 77 -5t68 -10t68 -19t58 -20.5t59 -26.5l49 -24.5t50 -27t42 -23.5l-153 -231q-1 1 -39.5 22.5t-53 29t-46.5 22t-57 20.5t-48 6q-73 0 -130.5 -55t-86.5 -136t-29 -167q0 -88 35 -138.5t106 -50.5 q15 0 33 3t40 10t38.5 12.5t43.5 17.5t39 17.5t41.5 19t35.5 16.5l104 -258q-74 -32 -119 -49.5t-132 -42t-158 -30.5q32 -62 32 -138q0 -111 -71.5 -168t-180.5 -57q-112 0 -180 47l90 160q43 -23 88 -23q95 0 95 88q0 41 -23 99q-140 29 -222.5 138t-82.5 294z" />
<glyph unicode="&#xe8;" horiz-adv-x="1103" d="M37 430q0 143 41.5 265t118 211.5t192.5 140.5t258 51q189 0 303.5 -86t114.5 -228q0 -87 -32.5 -151.5t-84.5 -102.5t-131.5 -61t-160 -31t-183.5 -8h-96v-14q0 -191 149 -191q107 0 367 121l94 -231q-92 -46 -239 -92t-291 -46q-200 0 -310 109.5t-110 343.5zM365 1493 h348l190 -287h-260zM403 606h82q122 0 191 40.5t69 113.5q0 45 -30 72.5t-80 27.5q-85 0 -144 -72.5t-88 -181.5z" />
<glyph unicode="&#xe9;" horiz-adv-x="1105" d="M37 430q0 143 41.5 265t118 211.5t192.5 140.5t258 51q189 0 303.5 -86t114.5 -228q0 -87 -32.5 -151.5t-84.5 -102.5t-131.5 -61t-160 -31t-183.5 -8h-96v-14q0 -191 149 -191q107 0 367 121l94 -231q-92 -46 -239 -92t-291 -46q-200 0 -310 109.5t-110 343.5zM403 606 h82q122 0 191 40.5t69 113.5q0 45 -30 72.5t-80 27.5q-85 0 -144 -72.5t-88 -181.5zM469 1206l285 287h383l-377 -287h-291z" />
<glyph unicode="&#xea;" horiz-adv-x="1103" d="M37 430q0 143 41.5 265t118 211.5t192.5 140.5t258 51q189 0 303.5 -86t114.5 -228q0 -87 -32.5 -151.5t-84.5 -102.5t-131.5 -61t-160 -31t-183.5 -8h-96v-14q0 -191 149 -191q107 0 367 121l94 -231q-92 -46 -239 -92t-291 -46q-200 0 -310 109.5t-110 343.5zM330 1206 l256 287h311l154 -287h-211l-111 144l-158 -144h-241zM403 606h82q122 0 191 40.5t69 113.5q0 45 -30 72.5t-80 27.5q-85 0 -144 -72.5t-88 -181.5z" />
<glyph unicode="&#xeb;" horiz-adv-x="1103" d="M37 430q0 143 41.5 265t118 211.5t192.5 140.5t258 51q189 0 303.5 -86t114.5 -228q0 -87 -32.5 -151.5t-84.5 -102.5t-131.5 -61t-160 -31t-183.5 -8h-96v-14q0 -191 149 -191q107 0 367 121l94 -231q-92 -46 -239 -92t-291 -46q-200 0 -310 109.5t-110 343.5zM381 1227 l45 262h264l-45 -262h-264zM403 606h82q122 0 191 40.5t69 113.5q0 45 -30 72.5t-80 27.5q-85 0 -144 -72.5t-88 -181.5zM752 1227l45 262h264l-45 -262h-264z" />
<glyph unicode="&#xec;" horiz-adv-x="550" d="M-2 0l188 1075h336l-188 -1075h-336zM51 1493h348l191 -287h-260z" />
<glyph unicode="&#xed;" horiz-adv-x="548" d="M-2 0l188 1075h336l-188 -1075h-336zM154 1206l284 287h383l-377 -287h-290z" />
<glyph unicode="&#xee;" horiz-adv-x="548" d="M-2 0l188 1075h336l-188 -1075h-336zM16 1206l256 287h312l153 -287h-211l-110 144l-158 -144h-242z" />
<glyph unicode="&#xef;" horiz-adv-x="548" d="M-2 0l188 1075h336l-188 -1075h-336zM66 1227l45 262h264l-45 -262h-264zM436 1227l45 262h264l-45 -262h-264z" />
<glyph unicode="&#xf0;" horiz-adv-x="1232" d="M25 436q0 115 40.5 216t108.5 171.5t161 111t195 40.5q51 0 97 -10.5t78.5 -27t60.5 -37t45.5 -40.5t30 -36.5t17.5 -27.5l5 -10q-20 253 -192 338l-68 -73h-268l110 118q-37 -1 -77 -5t-61 -8l-21 -3l8 258q84 23 201 23q91 0 178 -19l74 78h266l-146 -158 q148 -92 225.5 -258t77.5 -379t-75.5 -375.5t-222 -254t-345.5 -91.5q-235 0 -369 123t-134 336zM377 430q0 -194 178 -194q65 0 115.5 25.5t79 67.5t43 90.5t14.5 100.5q0 90 -44 143.5t-140 53.5q-81 0 -138.5 -42.5t-82.5 -105.5t-25 -139z" />
<glyph unicode="&#xf1;" horiz-adv-x="1212" d="M-2 0l188 1075h336l-20 -117q204 140 360 140q166 0 234.5 -103.5t36.5 -281.5l-127 -713h-336l118 678q31 160 -75 160q-57 0 -125 -36t-129 -87l-125 -715h-336zM362 1303q30 45 44.5 65.5t42 53t49 47t52.5 26.5t66 12q44 0 93.5 -24.5t90.5 -49t66 -24.5q49 0 119 98 l131 -90q-29 -45 -44 -66.5t-42.5 -54t-49.5 -47.5t-53.5 -27t-66.5 -12q-43 0 -91.5 25t-89.5 49.5t-67 24.5q-48 0 -118 -97z" />
<glyph unicode="&#xf2;" horiz-adv-x="1210" d="M41 428q0 138 37 258t108.5 212.5t186.5 146t260 53.5q238 0 373 -119.5t135 -333.5q0 -110 -23 -208.5t-71 -183t-117 -146t-166.5 -96t-214.5 -34.5q-236 0 -372 119.5t-136 331.5zM379 442q0 -103 38.5 -154.5t137.5 -51.5q62 0 112 39.5t79 100.5t44 127.5t15 129.5 q0 102 -39 154.5t-137 52.5q-62 0 -112 -39.5t-79 -101.5t-44 -128.5t-15 -128.5zM381 1493h348l191 -287h-261z" />
<glyph unicode="&#xf3;" horiz-adv-x="1212" d="M41 428q0 138 37 258t108.5 212.5t186.5 146t260 53.5q238 0 373 -119.5t135 -333.5q0 -110 -23 -208.5t-71 -183t-117 -146t-166.5 -96t-214.5 -34.5q-236 0 -372 119.5t-136 331.5zM379 442q0 -103 38.5 -154.5t137.5 -51.5q62 0 112 39.5t79 100.5t44 127.5t15 129.5 q0 102 -39 154.5t-137 52.5q-62 0 -112 -39.5t-79 -101.5t-44 -128.5t-15 -128.5zM485 1206l285 287h383l-377 -287h-291z" />
<glyph unicode="&#xf4;" horiz-adv-x="1210" d="M41 428q0 138 37 258t108.5 212.5t186.5 146t260 53.5q238 0 373 -119.5t135 -333.5q0 -110 -23 -208.5t-71 -183t-117 -146t-166.5 -96t-214.5 -34.5q-236 0 -372 119.5t-136 331.5zM348 1206l256 287h311l154 -287h-211l-110 144l-158 -144h-242zM379 442 q0 -103 38.5 -154.5t137.5 -51.5q62 0 112 39.5t79 100.5t44 127.5t15 129.5q0 102 -39 154.5t-137 52.5q-62 0 -112 -39.5t-79 -101.5t-44 -128.5t-15 -128.5z" />
<glyph unicode="&#xf5;" horiz-adv-x="1210" d="M41 428q0 138 37 258t108.5 212.5t186.5 146t260 53.5q238 0 373 -119.5t135 -333.5q0 -110 -23 -208.5t-71 -183t-117 -146t-166.5 -96t-214.5 -34.5q-236 0 -372 119.5t-136 331.5zM362 1303q30 45 44.5 65.5t42 53t49 47t52.5 26.5t66 12q44 0 93.5 -24.5t90.5 -49 t66 -24.5q49 0 119 98l131 -90q-29 -45 -44 -66.5t-42.5 -54t-49.5 -47.5t-53.5 -27t-66.5 -12q-43 0 -91.5 25t-89.5 49.5t-67 24.5q-48 0 -118 -97zM379 442q0 -103 38.5 -154.5t137.5 -51.5q62 0 112 39.5t79 100.5t44 127.5t15 129.5q0 102 -39 154.5t-137 52.5 q-62 0 -112 -39.5t-79 -101.5t-44 -128.5t-15 -128.5z" />
<glyph unicode="&#xf6;" horiz-adv-x="1210" d="M41 428q0 138 37 258t108.5 212.5t186.5 146t260 53.5q238 0 373 -119.5t135 -333.5q0 -110 -23 -208.5t-71 -183t-117 -146t-166.5 -96t-214.5 -34.5q-236 0 -372 119.5t-136 331.5zM379 442q0 -103 38.5 -154.5t137.5 -51.5q62 0 112 39.5t79 100.5t44 127.5t15 129.5 q0 102 -39 154.5t-137 52.5q-62 0 -112 -39.5t-79 -101.5t-44 -128.5t-15 -128.5zM399 1227l45 262h265l-45 -262h-265zM770 1227l45 262h264l-45 -262h-264z" />
<glyph unicode="&#xf7;" horiz-adv-x="1273" d="M135 557l45 252h981l-45 -252h-981zM426 303q0 65 45 111.5t109 46.5t110.5 -46.5t46.5 -111.5q0 -64 -46 -108.5t-111 -44.5t-109.5 44.5t-44.5 108.5zM559 1061q0 65 46 111.5t110 46.5t109.5 -46.5t45.5 -111.5q0 -64 -45 -109t-110 -45t-110.5 45t-45.5 109z" />
<glyph unicode="&#xf8;" horiz-adv-x="1210" d="M-23 0l146 154q-82 111 -82 274q0 138 37 258t108.5 212.5t186.5 146t260 53.5q190 0 315 -78l51 55h191l-139 -145q90 -117 90 -285q0 -110 -23 -208.5t-71 -183t-117 -146t-166.5 -96t-214.5 -34.5q-198 0 -322 80l-55 -57h-195zM379 422l366 385q-45 33 -116 33 q-62 0 -112 -39.5t-79 -101.5t-44 -128.5t-15 -128.5v-20zM430 272q42 -36 125 -36q62 0 112 39.5t79 100.5t44 127.5t15 129.5q0 23 -2 35z" />
<glyph unicode="&#xf9;" horiz-adv-x="1214" d="M53 360l125 715h338l-121 -678q-28 -159 78 -159q56 0 125.5 36t126.5 86l127 715h336l-189 -1075h-337l20 117q-198 -140 -358 -140q-166 0 -234.5 102.5t-36.5 280.5zM377 1493h348l190 -287h-260z" />
<glyph unicode="&#xfa;" horiz-adv-x="1214" d="M53 360l125 715h338l-121 -678q-28 -159 78 -159q56 0 125.5 36t126.5 86l127 715h336l-189 -1075h-337l20 117q-198 -140 -358 -140q-166 0 -234.5 102.5t-36.5 280.5zM483 1206l285 287h383l-377 -287h-291z" />
<glyph unicode="&#xfb;" horiz-adv-x="1214" d="M53 360l125 715h338l-121 -678q-28 -159 78 -159q56 0 125.5 36t126.5 86l127 715h336l-189 -1075h-337l20 117q-198 -140 -358 -140q-166 0 -234.5 102.5t-36.5 280.5zM344 1206l256 287h311l154 -287h-211l-111 144l-157 -144h-242z" />
<glyph unicode="&#xfc;" horiz-adv-x="1214" d="M53 360l125 715h338l-121 -678q-28 -159 78 -159q56 0 125.5 36t126.5 86l127 715h336l-189 -1075h-337l20 117q-198 -140 -358 -140q-166 0 -234.5 102.5t-36.5 280.5zM395 1227l45 262h265l-46 -262h-264zM766 1227l45 262h264l-45 -262h-264z" />
<glyph unicode="&#xfd;" horiz-adv-x="1134" d="M-16 -211q13 5 50 18.5t48 17.5t39.5 16t40 18.5t33.5 19.5t35 25t29.5 28.5t31.5 36.5l-201 1106h348l78 -661l309 661h373l-565 -1075q-25 -47 -37 -69t-37.5 -64.5t-42.5 -64t-47 -57t-57 -56t-66.5 -47.5t-81.5 -45t-96 -36.5t-115 -31.5zM444 1206l285 287h383 l-377 -287h-291z" />
<glyph unicode="&#xfe;" horiz-adv-x="1222" d="M-76 -418l336 1911h336l-94 -532q180 137 342 137q63 0 117 -21t99 -65.5t71 -124t26 -185.5q0 -320 -136.5 -522.5t-352.5 -202.5q-55 0 -103.5 12t-90.5 37t-64.5 42t-57.5 47l-92 -533h-336zM397 369q87 -121 193 -121q102 0 162.5 122.5t60.5 291.5q0 79 -31 123 t-90 44q-58 0 -114 -34.5t-123 -96.5z" />
<glyph unicode="&#xff;" horiz-adv-x="1134" d="M-16 -211q13 5 50 18.5t48 17.5t39.5 16t40 18.5t33.5 19.5t35 25t29.5 28.5t31.5 36.5l-201 1106h348l78 -661l309 661h373l-565 -1075q-25 -47 -37 -69t-37.5 -64.5t-42.5 -64t-47 -57t-57 -56t-66.5 -47.5t-81.5 -45t-96 -36.5t-115 -31.5zM356 1227l45 262h265 l-45 -262h-265zM727 1227l45 262h264l-45 -262h-264z" />
<glyph unicode="&#x100;" horiz-adv-x="1368" d="M-100 0l741 1434h385l234 -1434h-367l-25 262h-452l-117 -262h-399zM537 535h305l-54 567zM559 1567l33 192h594l-33 -192h-594z" />
<glyph unicode="&#x101;" d="M41 373q0 320 138.5 522.5t357.5 202.5q54 0 101 -12.5t88 -38t62.5 -42.5t57.5 -49l20 119h336l-188 -1075h-336l20 123q-177 -146 -350 -146q-61 0 -113.5 21t-97 65.5t-70.5 124t-26 185.5zM387 414q0 -79 29 -123.5t84 -44.5q63 0 120.5 37t124.5 104l56 318 q-84 122 -187 122q-70 0 -122.5 -59.5t-78.5 -152t-26 -201.5zM426 1257l33 193h594l-33 -193h-594z" />
<glyph unicode="&#x102;" horiz-adv-x="1368" d="M-100 0l741 1434h385l234 -1434h-367l-25 262h-452l-117 -262h-399zM537 535h305l-54 567zM561 1778h201q-5 -40 21.5 -62t78.5 -22q67 0 110.5 22.5t49.5 61.5h201q-20 -124 -116.5 -193t-250.5 -69q-158 0 -235.5 72.5t-59.5 189.5z" />
<glyph unicode="&#x103;" d="M41 373q0 320 138.5 522.5t357.5 202.5q54 0 101 -12.5t88 -38t62.5 -42.5t57.5 -49l20 119h336l-188 -1075h-336l20 123q-177 -146 -350 -146q-61 0 -113.5 21t-97 65.5t-70.5 124t-26 185.5zM387 414q0 -79 29 -123.5t84 -44.5q63 0 120.5 37t124.5 104l56 318 q-84 122 -187 122q-70 0 -122.5 -59.5t-78.5 -152t-26 -201.5zM424 1468h201q-5 -40 21.5 -62t78.5 -22q67 0 110.5 22.5t49.5 61.5h200q-20 -124 -116 -193t-250 -69q-158 0 -235.5 72.5t-59.5 189.5z" />
<glyph unicode="&#x104;" horiz-adv-x="1368" d="M-100 0l741 1434h385l234 -1434h-9q-93 -53 -150 -103t-57 -100q0 -14 5 -24t14.5 -16t19 -9.5t24.5 -4.5t24 -1.5t24 0t19 0.5l-56 -148q-96 0 -138 8q-151 30 -151 160q0 74 59 131.5t163 106.5h-158l-25 262h-452l-117 -262h-399zM537 535h305l-54 567z" />
<glyph unicode="&#x105;" d="M41 373q0 320 138.5 522.5t357.5 202.5q54 0 101 -12.5t88 -38t62.5 -42.5t57.5 -49l20 119h336l-188 -1075h-8q-93 -53 -150 -103t-57 -100q0 -14 4.5 -24t14.5 -16t19 -9.5t24 -4.5t24 -1.5t24 0t19 0.5l-56 -148q-96 0 -138 8q-150 30 -150 160q0 134 221 238h-127 l20 123q-177 -146 -350 -146q-61 0 -113.5 21t-97 65.5t-70.5 124t-26 185.5zM387 414q0 -79 29 -123.5t84 -44.5q63 0 120.5 37t124.5 104l56 318q-84 122 -187 122q-70 0 -122.5 -59.5t-78.5 -152t-26 -201.5z" />
<glyph unicode="&#x106;" horiz-adv-x="1263" d="M80 541q0 213 51.5 387t142 289t214.5 177t268 62q69 0 139 -14.5t120.5 -32t118.5 -53.5t102.5 -57.5t102.5 -65.5l-188 -246q-122 80 -200.5 117t-157.5 37q-109 0 -191 -82t-122 -209.5t-40 -278.5q0 -280 176 -280q132 0 404 149l141 -276q-173 -90 -325 -138.5 t-306 -48.5q-211 0 -330.5 141.5t-119.5 422.5zM676 1516l285 286h382l-376 -286h-291z" />
<glyph unicode="&#x107;" horiz-adv-x="1009" d="M39 420q0 134 29.5 247t80 191.5t117.5 133.5t141 80.5t152 25.5q38 0 77 -5t68 -10t68 -19t58 -20.5t59 -26.5l49 -24.5t50 -27t42 -23.5l-153 -231q-1 1 -39.5 22.5t-53 29t-46.5 22t-57 20.5t-48 6q-73 0 -130.5 -55t-86.5 -136t-29 -167q0 -88 35 -138.5t106 -50.5 q15 0 33 3t40 10t38.5 12.5t43.5 17.5t39 17.5t41.5 19t35.5 16.5l104 -258q-65 -27 -97.5 -40t-102.5 -37.5t-133 -36t-121 -11.5q-88 0 -161.5 27t-129.5 80.5t-87.5 139t-31.5 196.5zM432 1206l285 287h383l-377 -287h-291z" />
<glyph unicode="&#x10a;" horiz-adv-x="1263" d="M80 541q0 213 51.5 387t142 289t214.5 177t268 62q69 0 139 -14.5t120.5 -32t118.5 -53.5t102.5 -57.5t102.5 -65.5l-188 -246q-122 80 -200.5 117t-157.5 37q-109 0 -191 -82t-122 -209.5t-40 -278.5q0 -280 176 -280q132 0 404 149l141 -276q-173 -90 -325 -138.5 t-306 -48.5q-211 0 -330.5 141.5t-119.5 422.5zM709 1536l45 262h266l-47 -262h-264z" />
<glyph unicode="&#x10b;" horiz-adv-x="1007" d="M39 420q0 134 29.5 247t80 191.5t117.5 133.5t141 80.5t152 25.5q38 0 77 -5t68 -10t68 -19t58 -20.5t59 -26.5l49 -24.5t50 -27t42 -23.5l-153 -231q-1 1 -39.5 22.5t-53 29t-46.5 22t-57 20.5t-48 6q-73 0 -130.5 -55t-86.5 -136t-29 -167q0 -88 35 -138.5t106 -50.5 q15 0 33 3t40 10t38.5 12.5t43.5 17.5t39 17.5t41.5 19t35.5 16.5l104 -258q-65 -27 -97.5 -40t-102.5 -37.5t-133 -36t-121 -11.5q-88 0 -161.5 27t-129.5 80.5t-87.5 139t-31.5 196.5zM526 1227l45 262h267l-47 -262h-265z" />
<glyph unicode="&#x10c;" horiz-adv-x="1263" d="M80 541q0 213 51.5 387t142 289t214.5 177t268 62q69 0 139 -14.5t120.5 -32t118.5 -53.5t102.5 -57.5t102.5 -65.5l-188 -246q-122 80 -200.5 117t-157.5 37q-109 0 -191 -82t-122 -209.5t-40 -278.5q0 -280 176 -280q132 0 404 149l141 -276q-173 -90 -325 -138.5 t-306 -48.5q-211 0 -330.5 141.5t-119.5 422.5zM532 1802h211l111 -145l158 145h241l-256 -286h-311z" />
<glyph unicode="&#x10d;" horiz-adv-x="1007" d="M39 420q0 134 29.5 247t80 191.5t117.5 133.5t141 80.5t152 25.5q38 0 77 -5t68 -10t68 -19t58 -20.5t59 -26.5l49 -24.5t50 -27t42 -23.5l-153 -231q-1 1 -39.5 22.5t-53 29t-46.5 22t-57 20.5t-48 6q-73 0 -130.5 -55t-86.5 -136t-29 -167q0 -88 35 -138.5t106 -50.5 q15 0 33 3t40 10t38.5 12.5t43.5 17.5t39 17.5t41.5 19t35.5 16.5l104 -258q-65 -27 -97.5 -40t-102.5 -37.5t-133 -36t-121 -11.5q-88 0 -161.5 27t-129.5 80.5t-87.5 139t-31.5 196.5zM344 1493h211l111 -145l157 145h242l-256 -287h-311z" />
<glyph unicode="&#x10e;" horiz-adv-x="1409" d="M25 0l251 1434h406q148 0 265 -29.5t194.5 -81t128 -126t72.5 -159.5t22 -186q0 -64 -8.5 -133t-32 -154.5t-60.5 -162.5t-99.5 -152t-142 -129t-195 -87.5t-253.5 -33.5h-548zM426 295h96q106 0 191.5 34t139.5 89t90.5 128.5t51.5 147.5t15 152q0 155 -88 224t-263 69 h-84zM578 1802h210l111 -145l158 145h241l-256 -286h-311z" />
<glyph unicode="&#x10f;" horiz-adv-x="1366" d="M41 373q0 320 138.5 522.5t357.5 202.5q54 0 101 -12.5t88 -38t62.5 -42.5t57.5 -49l94 537h336l-262 -1493h-336l20 123q-177 -146 -350 -146q-61 0 -113.5 21t-97 65.5t-70.5 124t-26 185.5zM387 414q0 -79 29 -123.5t84 -44.5q63 0 120.5 37t124.5 104l56 318 q-84 122 -187 122q-70 0 -122.5 -59.5t-78.5 -152t-26 -201.5zM1284 1063l141 168h-106l45 262h240l-39 -291l-232 -219z" />
<glyph unicode="&#x110;" horiz-adv-x="1433" d="M16 584l47 268h136l102 582h406q148 0 265 -29.5t194.5 -81t128 -126t72.5 -159.5t22 -186q0 -64 -8.5 -133t-32 -154.5t-60.5 -162.5t-99.5 -152t-142 -129t-195 -87.5t-253.5 -33.5h-549l103 584h-136zM451 295h96q106 0 191 34t139.5 89t90.5 128.5t51 147.5t15 152 q0 155 -87.5 224t-262.5 69h-84l-51 -287h254l-47 -268h-254z" />
<glyph unicode="&#x111;" d="M41 373q0 320 138.5 522.5t357.5 202.5q54 0 101 -12.5t88 -38t62.5 -42.5t57.5 -49l39 222h-322l33 192h322l22 123h336l-23 -123h109l-33 -192h-108l-207 -1178h-336l20 123q-177 -146 -350 -146q-61 0 -113.5 21t-97 65.5t-70.5 124t-26 185.5zM387 414 q0 -79 29 -123.5t84 -44.5q63 0 120.5 37t124.5 104l56 318q-84 122 -187 122q-70 0 -122.5 -59.5t-78.5 -152t-26 -201.5z" />
<glyph unicode="&#x112;" horiz-adv-x="1193" d="M25 0l251 1434h977l-51 -295h-627l-49 -277h512l-51 -289h-512l-49 -278h637l-51 -295h-987zM496 1567l32 192h594l-32 -192h-594z" />
<glyph unicode="&#x113;" horiz-adv-x="1103" d="M37 430q0 143 41.5 265t118 211.5t192.5 140.5t258 51q189 0 303.5 -86t114.5 -228q0 -87 -32.5 -151.5t-84.5 -102.5t-131.5 -61t-160 -31t-183.5 -8h-96v-14q0 -191 149 -191q107 0 367 121l94 -231q-92 -46 -239 -92t-291 -46q-200 0 -310 109.5t-110 343.5zM401 1257 l33 193h594l-33 -193h-594zM403 606h82q122 0 191 40.5t69 113.5q0 45 -30 72.5t-80 27.5q-85 0 -144 -72.5t-88 -181.5z" />
<glyph unicode="&#x116;" horiz-adv-x="1193" d="M25 0l251 1434h977l-51 -295h-627l-49 -277h512l-51 -289h-512l-49 -278h637l-51 -295h-987zM657 1536l45 262h267l-47 -262h-265z" />
<glyph unicode="&#x117;" horiz-adv-x="1103" d="M37 430q0 143 41.5 265t118 211.5t192.5 140.5t258 51q189 0 303.5 -86t114.5 -228q0 -87 -32.5 -151.5t-84.5 -102.5t-131.5 -61t-160 -31t-183.5 -8h-96v-14q0 -191 149 -191q107 0 367 121l94 -231q-92 -46 -239 -92t-291 -46q-200 0 -310 109.5t-110 343.5zM403 606 h82q122 0 191 40.5t69 113.5q0 45 -30 72.5t-80 27.5q-85 0 -144 -72.5t-88 -181.5zM561 1227l45 262h266l-47 -262h-264z" />
<glyph unicode="&#x118;" horiz-adv-x="1193" d="M25 0l251 1434h977l-51 -295h-627l-49 -277h512l-51 -289h-512l-49 -278h637l-51 -295h-6q-93 -53 -150 -103t-57 -100q0 -14 4.5 -24t14.5 -16t19 -9.5t24 -4.5t24 -1.5t24 0t19 0.5l-56 -148q-96 0 -138 8q-150 30 -150 160q0 134 221 238h-780z" />
<glyph unicode="&#x119;" horiz-adv-x="1105" d="M39 430q0 143 41.5 265t118 211.5t192.5 140.5t258 51q189 0 303.5 -86t114.5 -228q0 -87 -32.5 -151.5t-84.5 -102.5t-131.5 -61t-160 -31t-183.5 -8h-96v-14q0 -191 149 -191q107 0 367 121l94 -231q-157 -80 -344 -117q-203 -114 -203 -201q0 -14 4.5 -24t14.5 -16 t19 -9.5t24 -4.5t24 -1.5t24 0t19 0.5l-55 -148q-96 0 -138 8q-150 32 -151 160q0 122 181 218q-369 30 -369 450zM406 606h81q122 0 191.5 40.5t69.5 113.5q0 45 -30 72.5t-81 27.5q-58 0 -105.5 -37.5t-77 -92t-48.5 -124.5z" />
<glyph unicode="&#x11a;" horiz-adv-x="1193" d="M25 0l251 1434h977l-51 -295h-627l-49 -277h512l-51 -289h-512l-49 -278h637l-51 -295h-987zM475 1802h211l111 -145l157 145h242l-256 -286h-311z" />
<glyph unicode="&#x11b;" horiz-adv-x="1103" d="M37 430q0 143 41.5 265t118 211.5t192.5 140.5t258 51q189 0 303.5 -86t114.5 -228q0 -87 -32.5 -151.5t-84.5 -102.5t-131.5 -61t-160 -31t-183.5 -8h-96v-14q0 -191 149 -191q107 0 367 121l94 -231q-92 -46 -239 -92t-291 -46q-200 0 -310 109.5t-110 343.5zM381 1493 h211l110 -145l158 145h242l-256 -287h-311zM403 606h82q122 0 191 40.5t69 113.5q0 45 -30 72.5t-80 27.5q-85 0 -144 -72.5t-88 -181.5z" />
<glyph unicode="&#x11e;" horiz-adv-x="1372" d="M80 535q0 218 52.5 394.5t145 290.5t217 175t269.5 61q72 0 145 -15t127.5 -33.5t124 -54.5t107.5 -58.5t106 -65.5l-190 -248q-72 45 -100 61.5t-86.5 46t-104 41t-92.5 11.5q-85 0 -154.5 -47t-114 -127t-68.5 -183t-24 -217q0 -138 43 -215.5t146 -77.5 q74 0 154.5 48.5t142.5 105.5l24 131h-288l49 275h608l-145 -834h-322l22 131q-182 -154 -360 -154q-195 0 -314.5 143t-119.5 415zM555 1778h201q-5 -40 21.5 -62t78.5 -22q67 0 110.5 22.5t49.5 61.5h201q-20 -124 -116.5 -193t-250.5 -69q-158 0 -235.5 72.5t-59.5 189.5 z" />
<glyph unicode="&#x11f;" d="M-55 -350l108 258q234 -82 404 -82q108 0 156.5 45t62.5 127l20 123q-183 -144 -348 -144q-61 0 -113.5 21t-97 65.5t-70.5 124t-26 185.5q0 319 139 522t357 203q53 0 100 -12.5t87.5 -37t64 -42.5t57.5 -48l20 117h336l-186 -1061q-23 -134 -65 -222.5t-109 -139 t-150 -70.5t-203 -20q-258 0 -544 88zM387 414q0 -79 29 -123.5t84 -44.5q108 0 243 139l58 322q-85 120 -187 120q-69 0 -121.5 -59.5t-79 -152.5t-26.5 -201zM436 1468h201q-5 -40 21.5 -62t78.5 -22q67 0 110.5 22.5t49.5 61.5h201q-20 -124 -116.5 -193t-250.5 -69 q-158 0 -235.5 72.5t-59.5 189.5z" />
<glyph unicode="&#x120;" horiz-adv-x="1372" d="M80 535q0 218 52.5 394.5t145 290.5t217 175t269.5 61q72 0 145 -15t127.5 -33.5t124 -54.5t107.5 -58.5t106 -65.5l-190 -248q-72 45 -100 61.5t-86.5 46t-104 41t-92.5 11.5q-85 0 -154.5 -47t-114 -127t-68.5 -183t-24 -217q0 -138 43 -215.5t146 -77.5 q74 0 154.5 48.5t142.5 105.5l24 131h-288l49 275h608l-145 -834h-322l22 131q-182 -154 -360 -154q-195 0 -314.5 143t-119.5 415zM713 1536l45 262h266l-47 -262h-264z" />
<glyph unicode="&#x121;" d="M-55 -350l108 258q234 -82 404 -82q108 0 156.5 45t62.5 127l20 123q-183 -144 -348 -144q-61 0 -113.5 21t-97 65.5t-70.5 124t-26 185.5q0 319 139 522t357 203q53 0 100 -12.5t87.5 -37t64 -42.5t57.5 -48l20 117h336l-186 -1061q-23 -134 -65 -222.5t-109 -139 t-150 -70.5t-203 -20q-258 0 -544 88zM387 414q0 -79 29 -123.5t84 -44.5q108 0 243 139l58 322q-85 120 -187 120q-69 0 -121.5 -59.5t-79 -152.5t-26.5 -201zM592 1227l45 262h266l-47 -262h-264z" />
<glyph unicode="&#x122;" horiz-adv-x="1372" d="M80 535q0 218 52.5 394.5t145 290.5t217 175t269.5 61q72 0 145 -15t127.5 -33.5t124 -54.5t107.5 -58.5t106 -65.5l-190 -248q-72 45 -100 61.5t-86.5 46t-104 41t-92.5 11.5q-85 0 -154.5 -47t-114 -127t-68.5 -183t-24 -217q0 -138 43 -215.5t146 -77.5 q74 0 154.5 48.5t142.5 105.5l24 131h-288l49 275h608l-145 -834h-322l22 131q-182 -154 -360 -154q-195 0 -314.5 143t-119.5 415zM383 -543l141 168h-106l45 262h239l-38 -290l-232 -220z" />
<glyph unicode="&#x123;" d="M-55 -350l108 258q234 -82 404 -82q108 0 156.5 45t62.5 127l20 123q-183 -144 -348 -144q-61 0 -113.5 21t-97 65.5t-70.5 124t-26 185.5q0 319 139 522t357 203q53 0 100 -12.5t87.5 -37t64 -42.5t57.5 -48l20 117h336l-186 -1061q-23 -134 -65 -222.5t-109 -139 t-150 -70.5t-203 -20q-258 0 -544 88zM387 414q0 -79 29 -123.5t84 -44.5q108 0 243 139l58 322q-85 120 -187 120q-69 0 -121.5 -59.5t-79 -152.5t-26.5 -201zM621 1227l38 291l232 219l49 -80l-141 -168h106l-45 -262h-239z" />
<glyph unicode="&#x126;" horiz-adv-x="1464" d="M49 0l184 1053h-139l33 192h141l33 189h350l-33 -189h449l33 189h350l-33 -189h144l-33 -192h-146l-184 -1053h-350l106 608h-448l-107 -608h-350zM557 897h449l26 156h-448z" />
<glyph unicode="&#x127;" horiz-adv-x="1212" d="M-2 0l207 1178h-113l37 192h109l22 123h336l-23 -123h322l-35 -192h-319l-39 -220q208 140 360 140q166 0 234.5 -103.5t36.5 -281.5l-127 -713h-338l120 678q7 47 6 82.5t-21.5 56.5t-59.5 21q-57 0 -125 -36t-129 -87l-125 -715h-336z" />
<glyph unicode="&#x128;" horiz-adv-x="614" d="M25 0l251 1434h351l-252 -1434h-350zM117 1612q30 45 44 65t42 53.5t49.5 48t52.5 26.5t66 12t74 -15.5t66.5 -34t58 -34t51.5 -15.5q48 0 118 99l131 -91q-29 -44 -44 -66t-42.5 -54t-49.5 -47t-53.5 -27t-66.5 -12q-44 0 -91.5 24.5t-88 49t-67.5 24.5q-49 0 -119 -96z " />
<glyph unicode="&#x129;" horiz-adv-x="550" d="M-2 0l188 1075h336l-188 -1075h-336zM29 1303q30 45 44.5 65.5t42 53t49 47t52.5 26.5t66 12q44 0 93 -24.5t90 -49t66 -24.5q49 0 119 98l131 -90q-29 -45 -44 -66.5t-42.5 -54t-49.5 -47.5t-53.5 -27t-66.5 -12q-43 0 -91 25t-89 49.5t-67 24.5q-49 0 -119 -97z" />
<glyph unicode="&#x12a;" horiz-adv-x="614" d="M25 0l251 1434h351l-252 -1434h-350zM178 1567l33 192h594l-33 -192h-594z" />
<glyph unicode="&#x12b;" horiz-adv-x="548" d="M-2 0l188 1075h336l-188 -1075h-336zM88 1257l33 193h594l-33 -193h-594z" />
<glyph unicode="&#x12c;" horiz-adv-x="614" d="M25 0l251 1434h351l-252 -1434h-350zM180 1778h201q-5 -40 21.5 -62t78.5 -22q67 0 110.5 22.5t49.5 61.5h201q-20 -124 -116.5 -193t-250.5 -69q-158 0 -235.5 72.5t-59.5 189.5z" />
<glyph unicode="&#x12d;" horiz-adv-x="548" d="M-2 0l188 1075h336l-188 -1075h-336zM92 1468h201q-5 -40 21.5 -62t78.5 -22q67 0 110.5 22.5t49.5 61.5h201q-20 -124 -116.5 -193t-250.5 -69q-158 0 -235.5 72.5t-59.5 189.5z" />
<glyph unicode="&#x12e;" horiz-adv-x="614" d="M-57 -238q0 134 221 238h-141l251 1434h351l-252 -1434h-8q-93 -53 -150 -103t-57 -100q0 -14 4.5 -24t14.5 -16t19 -9.5t24 -4.5t24 -1.5t24 0t19 0.5l-56 -148q-96 0 -138 8q-150 30 -150 160z" />
<glyph unicode="&#x12f;" horiz-adv-x="546" d="M-94 -238q0 134 221 238h-129l188 1075h336l-188 -1075h-6q-93 -53 -150 -103t-57 -100q0 -14 4.5 -24t14.5 -16t19 -9.5t24 -4.5t24 -1.5t24 0t19 0.5l-55 -148q-96 0 -138 8q-151 30 -151 160zM203 1212l49 275h350l-49 -275h-350z" />
<glyph unicode="&#x130;" horiz-adv-x="614" d="M25 0l251 1434h351l-252 -1434h-350zM338 1536l45 262h266l-47 -262h-264z" />
<glyph unicode="&#x131;" horiz-adv-x="548" d="M-2 0l188 1075h336l-188 -1075h-336z" />
<glyph unicode="&#x132;" d="M25 0l251 1434h351l-252 -1434h-350zM391 -109q85 27 131 47t75 47.5t39.5 56t20.5 81.5l232 1311h350l-229 -1293q-30 -169 -55 -232q-44 -109 -150 -172q-111 -66 -338 -116z" />
<glyph unicode="&#x133;" horiz-adv-x="1097" d="M-2 0l188 1075h336l-188 -1075h-336zM203 1212l49 275h350l-49 -275h-350zM283 -217q60 20 98.5 35t68.5 32.5t45.5 30.5t27 37t16.5 44t12 58l184 1055h338l-182 -1026q-12 -70 -19 -103t-21.5 -85.5t-30.5 -77.5t-43.5 -63t-63.5 -58.5t-88 -47t-119.5 -46 t-155.5 -39.5zM752 1212l49 275h350l-49 -275h-350z" />
<glyph unicode="&#x134;" horiz-adv-x="614" d="M-219 -109q85 27 131 47t75 47.5t39.5 56t20.5 81.5l232 1311h350l-230 -1293q-30 -169 -55 -232q-43 -108 -148 -172q-111 -66 -339 -116zM106 1516l256 286h312l153 -286h-211l-110 143l-158 -143h-242z" />
<glyph unicode="&#x135;" horiz-adv-x="550" d="M-264 -217q60 20 98.5 35t68.5 32.5t45.5 30.5t27 37t16.5 44t12 58l184 1055h338l-182 -1026q-12 -70 -19 -103t-21.5 -85.5t-30.5 -77.5t-43.5 -63t-63.5 -58.5t-88 -47t-119.5 -46t-155.5 -39.5zM16 1206l256 287h312l153 -287h-211l-110 144l-158 -144h-242z" />
<glyph unicode="&#x136;" horiz-adv-x="1359" d="M25 0l251 1434h351l-99 -553l508 553h463l-653 -662l418 -772h-385l-273 530l-168 -168l-63 -362h-350zM350 -543l142 168h-107l45 262h240l-39 -290l-232 -220z" />
<glyph unicode="&#x137;" horiz-adv-x="1126" d="M-2 0l262 1493h336l-135 -764l295 346h418l-429 -440l293 -635h-342l-174 408l-143 -150l-45 -258h-336zM248 -543l141 168h-106l45 262h239l-39 -290l-231 -220z" />
<glyph unicode="&#x138;" horiz-adv-x="1126" d="M-2 0l188 1075h336l-61 -346l295 346h418l-429 -440l293 -635h-342l-174 408l-143 -150l-45 -258h-336z" />
<glyph unicode="&#x139;" horiz-adv-x="1110" d="M25 0l251 1434h351l-201 -1145h606l-49 -289h-958zM244 1516l284 286h383l-376 -286h-291z" />
<glyph unicode="&#x13a;" horiz-adv-x="555" d="M0 0l264 1493h336l-262 -1493h-338zM221 1575l285 287h383l-377 -287h-291z" />
<glyph unicode="&#x13b;" horiz-adv-x="1110" d="M25 0l251 1434h351l-201 -1145h606l-49 -289h-958zM274 -543l142 168h-107l45 262h240l-39 -290l-231 -220z" />
<glyph unicode="&#x13c;" horiz-adv-x="557" d="M-45 -543l141 168h-106l45 262h239l-38 -290l-232 -220zM2 0l264 1493h336l-262 -1493h-338z" />
<glyph unicode="&#x13d;" horiz-adv-x="1110" d="M25 0l251 1434h351l-201 -1145h606l-49 -289h-958zM637 1004l141 167h-106l45 263h239l-38 -291l-232 -219z" />
<glyph unicode="&#x13e;" horiz-adv-x="694" d="M0 0l264 1493h336l-262 -1493h-338zM610 1063l142 168h-107l45 262h240l-39 -291l-232 -219z" />
<glyph unicode="&#x13f;" horiz-adv-x="1112" d="M25 0l251 1434h351l-201 -1145h606l-49 -289h-958zM741 625l45 262h267l-47 -262h-265z" />
<glyph unicode="&#x140;" horiz-adv-x="763" d="M0 0l264 1493h336l-262 -1493h-338zM530 625l45 262h267l-47 -262h-265z" />
<glyph unicode="&#x141;" horiz-adv-x="1132" d="M-10 385l53 305l139 74l119 670h350l-82 -465l273 145l-56 -307l-270 -143l-65 -375h606l-49 -289h-959l80 459z" />
<glyph unicode="&#x142;" horiz-adv-x="671" d="M37 428l53 305l125 66l123 694h336l-88 -496l123 66l-52 -307l-125 -66l-120 -690h-338l86 494z" />
<glyph unicode="&#x143;" horiz-adv-x="1443" d="M25 0l251 1434h351l323 -895l156 895h350l-252 -1434h-350l-326 897l-153 -897h-350zM670 1516l284 286h383l-376 -286h-291z" />
<glyph unicode="&#x144;" horiz-adv-x="1214" d="M-2 0l188 1075h336l-20 -117q204 140 360 140q166 0 234.5 -103.5t36.5 -281.5l-127 -713h-336l118 678q31 160 -75 160q-57 0 -125 -36t-129 -87l-125 -715h-336zM489 1206l285 287h383l-377 -287h-291z" />
<glyph unicode="&#x145;" horiz-adv-x="1443" d="M25 0l251 1434h351l323 -895l156 895h350l-252 -1434h-350l-326 897l-153 -897h-350zM410 -543l141 168h-107l45 262h240l-39 -290l-231 -220z" />
<glyph unicode="&#x146;" horiz-adv-x="1212" d="M-2 0l188 1075h336l-20 -117q204 140 360 140q166 0 234.5 -103.5t36.5 -281.5l-127 -713h-336l118 678q31 160 -75 160q-57 0 -125 -36t-129 -87l-125 -715h-336zM287 -543l141 168h-106l45 262h239l-39 -290l-231 -220z" />
<glyph unicode="&#x147;" horiz-adv-x="1443" d="M25 0l251 1434h351l323 -895l156 895h350l-252 -1434h-350l-326 897l-153 -897h-350zM582 1802h211l110 -145l158 145h242l-256 -286h-312z" />
<glyph unicode="&#x148;" horiz-adv-x="1212" d="M-2 0l188 1075h336l-20 -117q204 140 360 140q166 0 234.5 -103.5t36.5 -281.5l-127 -713h-336l118 678q31 160 -75 160q-57 0 -125 -36t-129 -87l-125 -715h-336zM403 1493h211l111 -145l158 145h241l-256 -287h-311z" />
<glyph unicode="&#x149;" horiz-adv-x="1212" d="M-2 0l188 1075h336l-20 -117q204 140 360 140q166 0 234.5 -103.5t36.5 -281.5l-127 -713h-336l118 678q31 160 -75 160q-57 0 -125 -36t-129 -87l-125 -715h-336zM211 1223l141 168h-106l45 262h239l-38 -291l-232 -219z" />
<glyph unicode="&#x14a;" horiz-adv-x="1443" d="M25 0l251 1434h351l323 -895l156 895h350l-237 -1354q-12 -62 -22 -100.5t-28 -83t-42.5 -73t-62.5 -59.5t-90.5 -54t-124 -45.5t-165.5 -43.5l-74 270q114 36 164 62t72 67l-318 877l-153 -897h-350z" />
<glyph unicode="&#x14b;" horiz-adv-x="1214" d="M-2 0l190 1075h336l-20 -119q200 142 360 142q166 0 234.5 -103.5t36.5 -281.5l-119 -664q-12 -70 -19 -103t-21.5 -85.5t-30 -77.5t-43.5 -63t-64 -58.5t-87.5 -47t-119 -46t-154.5 -39.5l-69 254q60 20 98.5 35t68 32.5t44.5 30.5t27 37t16.5 44t11.5 58l117 658 q31 160 -76 160q-106 0 -256 -123l-125 -715h-336z" />
<glyph unicode="&#x14c;" horiz-adv-x="1488" d="M80 565q0 136 27.5 263t87 241.5t145.5 200t211 136t276 50.5q300 0 457.5 -154.5t157.5 -424.5q0 -137 -27.5 -265t-87.5 -244t-146.5 -202.5t-212 -137.5t-276.5 -51q-298 0 -455 156.5t-157 431.5zM438 590q0 -73 12 -127.5t41.5 -98.5t83.5 -67t132 -23t143 40.5 t106.5 103t70.5 140.5t41.5 150.5t12.5 135.5q0 73 -12.5 127.5t-41.5 98.5t-82.5 66.5t-131.5 22.5t-143 -40.5t-107 -102.5t-71 -140t-41.5 -150.5t-12.5 -135.5zM616 1567l33 192h594l-33 -192h-594z" />
<glyph unicode="&#x14d;" horiz-adv-x="1210" d="M41 428q0 138 37 258t108.5 212.5t186.5 146t260 53.5q238 0 373 -119.5t135 -333.5q0 -110 -23 -208.5t-71 -183t-117 -146t-166.5 -96t-214.5 -34.5q-236 0 -372 119.5t-136 331.5zM379 442q0 -103 38.5 -154.5t137.5 -51.5q62 0 112 39.5t79 100.5t44 127.5t15 129.5 q0 102 -39 154.5t-137 52.5q-62 0 -112 -39.5t-79 -101.5t-44 -128.5t-15 -128.5zM422 1257l33 193h594l-33 -193h-594z" />
<glyph unicode="&#x14e;" horiz-adv-x="1488" d="M80 565q0 136 27.5 263t87 241.5t145.5 200t211 136t276 50.5q300 0 457.5 -154.5t157.5 -424.5q0 -137 -27.5 -265t-87.5 -244t-146.5 -202.5t-212 -137.5t-276.5 -51q-298 0 -455 156.5t-157 431.5zM438 590q0 -73 12 -127.5t41.5 -98.5t83.5 -67t132 -23t143 40.5 t106.5 103t70.5 140.5t41.5 150.5t12.5 135.5q0 73 -12.5 127.5t-41.5 98.5t-82.5 66.5t-131.5 22.5t-143 -40.5t-107 -102.5t-71 -140t-41.5 -150.5t-12.5 -135.5zM618 1778h201q-5 -40 22 -62t79 -22q67 0 110 22.5t49 61.5h201q-20 -124 -116.5 -193t-250.5 -69 q-158 0 -235.5 72.5t-59.5 189.5z" />
<glyph unicode="&#x14f;" horiz-adv-x="1210" d="M41 428q0 138 37 258t108.5 212.5t186.5 146t260 53.5q238 0 373 -119.5t135 -333.5q0 -110 -23 -208.5t-71 -183t-117 -146t-166.5 -96t-214.5 -34.5q-236 0 -372 119.5t-136 331.5zM379 442q0 -103 38.5 -154.5t137.5 -51.5q62 0 112 39.5t79 100.5t44 127.5t15 129.5 q0 102 -39 154.5t-137 52.5q-62 0 -112 -39.5t-79 -101.5t-44 -128.5t-15 -128.5zM426 1468h201q-5 -40 21.5 -62t78.5 -22q67 0 110.5 22.5t49.5 61.5h200q-20 -124 -116 -193t-250 -69q-158 0 -235.5 72.5t-59.5 189.5z" />
<glyph unicode="&#x150;" horiz-adv-x="1490" d="M80 565q0 136 27.5 263t87 241.5t145.5 200t211 136t276 50.5q300 0 457.5 -154.5t157.5 -424.5q0 -137 -27.5 -265t-87.5 -244t-146.5 -202.5t-212 -137.5t-276.5 -51q-298 0 -455 156.5t-157 431.5zM438 590q0 -73 12 -127.5t41.5 -98.5t83.5 -67t132 -23t143 40.5 t106.5 103t70.5 140.5t41.5 150.5t12.5 135.5q0 73 -12.5 127.5t-41.5 98.5t-82.5 66.5t-131.5 22.5t-143 -40.5t-107 -102.5t-71 -140t-41.5 -150.5t-12.5 -135.5zM592 1516l201 286h292l-294 -286h-199zM950 1516l201 286h293l-295 -286h-199z" />
<glyph unicode="&#x151;" horiz-adv-x="1210" d="M41 428q0 138 37 258t108.5 212.5t186.5 146t260 53.5q238 0 373 -119.5t135 -333.5q0 -110 -23 -208.5t-71 -183t-117 -146t-166.5 -96t-214.5 -34.5q-236 0 -372 119.5t-136 331.5zM379 442q0 -103 38.5 -154.5t137.5 -51.5q62 0 112 39.5t79 100.5t44 127.5t15 129.5 q0 102 -39 154.5t-137 52.5q-62 0 -112 -39.5t-79 -101.5t-44 -128.5t-15 -128.5zM401 1206l201 287h293l-295 -287h-199zM760 1206l201 287h292l-295 -287h-198z" />
<glyph unicode="&#x152;" horiz-adv-x="2136" d="M80 565q0 136 27.5 263t87 241.5t145.5 200t211 136t276 50.5q227 0 377 -92l13 70h976l-51 -295h-626l-50 -277h512l-51 -289h-512l-49 -278h637l-51 -295h-987l4 27q-129 -50 -277 -50q-298 0 -455 156.5t-157 431.5zM438 590q0 -73 12 -127.5t41.5 -98.5t83.5 -67 t132 -23t143 40.5t106.5 103t70.5 140.5t41.5 150.5t12.5 135.5q0 73 -12.5 127.5t-41.5 98.5t-82.5 66.5t-131.5 22.5t-143 -40.5t-107 -102.5t-71 -140t-41.5 -150.5t-12.5 -135.5z" />
<glyph unicode="&#x153;" horiz-adv-x="1861" d="M41 428q0 138 37 258t108.5 212.5t186.5 146t260 53.5q246 0 383 -131q156 131 389 131q189 0 303.5 -86t114.5 -228q0 -87 -32.5 -151.5t-84.5 -102.5t-131.5 -61t-160 -31t-183.5 -8h-96v-14q0 -191 149 -191q107 0 367 121l94 -231q-92 -46 -239.5 -92t-291.5 -46 q-206 0 -311 111q-143 -111 -354 -111q-236 0 -372 119.5t-136 331.5zM379 442q0 -103 38.5 -154.5t137.5 -51.5q62 0 112 39.5t79 100.5t44 127.5t15 129.5q0 102 -39 154.5t-137 52.5q-62 0 -112 -39.5t-79 -101.5t-44 -128.5t-15 -128.5zM1161 606h82q122 0 191 40.5 t69 113.5q0 45 -30 72.5t-80 27.5q-85 0 -144 -72.5t-88 -181.5z" />
<glyph unicode="&#x154;" horiz-adv-x="1372" d="M25 0l251 1434h572q532 0 532 -400q0 -76 -24 -151t-71.5 -144t-129.5 -120t-188 -70l231 -549h-364l-199 539h-166l-94 -539h-350zM516 811h236q130 0 200 55.5t70 157.5q0 77 -54.5 107t-152.5 30h-237zM655 1516l285 286h383l-377 -286h-291z" />
<glyph unicode="&#x155;" horiz-adv-x="835" d="M-2 0l188 1075h336l-39 -223q14 25 32.5 50.5t56 63.5t80.5 64.5t106.5 44t132.5 12.5l-55 -315q-67 0 -127 -21t-102.5 -54t-78.5 -73t-58.5 -80.5t-38 -73.5t-21.5 -54l-7 -21l-69 -395h-336zM338 1206l285 287h383l-377 -287h-291z" />
<glyph unicode="&#x156;" horiz-adv-x="1372" d="M25 0l251 1434h572q532 0 532 -400q0 -76 -24 -151t-71.5 -144t-129.5 -120t-188 -70l231 -549h-364l-199 539h-166l-94 -539h-350zM354 -543l142 168h-107l45 262h240l-39 -290l-232 -220zM516 811h236q130 0 200 55.5t70 157.5q0 77 -54.5 107t-152.5 30h-237z" />
<glyph unicode="&#x157;" horiz-adv-x="837" d="M-49 -543l141 168h-106l45 262h239l-39 -290l-231 -220zM0 0l188 1075h336l-39 -223q14 25 32.5 50.5t56 63.5t80.5 64.5t106.5 44t132.5 12.5l-55 -315q-67 0 -127 -21t-102.5 -54t-78 -73t-58 -80.5t-38 -73.5t-22.5 -54l-6 -21l-70 -395h-336z" />
<glyph unicode="&#x158;" horiz-adv-x="1372" d="M25 0l251 1434h572q532 0 532 -400q0 -76 -24 -151t-71.5 -144t-129.5 -120t-188 -70l231 -549h-364l-199 539h-166l-94 -539h-350zM516 811h236q130 0 200 55.5t70 157.5q0 77 -54.5 107t-152.5 30h-237zM569 1802h211l111 -145l158 145h241l-256 -286h-311z" />
<glyph unicode="&#x159;" horiz-adv-x="835" d="M-2 0l188 1075h336l-39 -223q14 25 32.5 50.5t56 63.5t80.5 64.5t106.5 44t132.5 12.5l-55 -315q-67 0 -127 -21t-102.5 -54t-78.5 -73t-58.5 -80.5t-38 -73.5t-21.5 -54l-7 -21l-69 -395h-336zM252 1493h211l110 -145l158 145h242l-256 -287h-311z" />
<glyph unicode="&#x15a;" horiz-adv-x="1253" d="M-25 201l187 237q110 -69 233.5 -120.5t218.5 -51.5q76 0 126.5 36t50.5 95q0 41 -35.5 72t-81.5 47.5t-124.5 44.5t-129.5 53q-58 28 -103 60t-85.5 78t-62.5 108.5t-22 138.5q0 95 35 177t100 145t166.5 99t227.5 36q289 0 604 -192l-186 -232q-84 51 -200 93t-200 42 q-71 0 -120.5 -34t-49.5 -95q0 -31 17.5 -53.5t54.5 -39t77 -30t102 -35.5t112 -46q46 -23 81 -45t74.5 -57t65 -74t42.5 -95t17 -121q0 -97 -36.5 -181.5t-104 -147.5t-171 -99.5t-230.5 -36.5q-178 0 -350 66t-300 158zM559 1516l285 286h383l-377 -286h-291z" />
<glyph unicode="&#x15b;" horiz-adv-x="1048" d="M-35 147l154 220q87 -52 198 -93t189 -41q52 0 78 19.5t26 48.5q0 16 -9 29t-21.5 22t-36.5 19t-44 16t-55.5 16.5t-58.5 18.5q-48 16 -84 31t-79 42t-70 59t-45.5 80.5t-18.5 106.5q0 155 114 256t318 101q133 0 268.5 -41.5t227.5 -95.5l-152 -216q-78 39 -169.5 69 t-159.5 30q-50 0 -76.5 -18.5t-26.5 -47.5q0 -16 8 -29t19.5 -21.5t35 -17.5t42.5 -14.5t54 -15.5t60 -18q48 -16 86 -32t81 -44t71.5 -61t47.5 -82.5t19 -108.5q0 -159 -120.5 -258t-331.5 -99q-153 0 -294.5 50t-244.5 120zM414 1206l284 287h383l-376 -287h-291z" />
<glyph unicode="&#x15c;" horiz-adv-x="1253" d="M-25 201l187 237q110 -69 233.5 -120.5t218.5 -51.5q76 0 126.5 36t50.5 95q0 41 -35.5 72t-81.5 47.5t-124.5 44.5t-129.5 53q-58 28 -103 60t-85.5 78t-62.5 108.5t-22 138.5q0 95 35 177t100 145t166.5 99t227.5 36q289 0 604 -192l-186 -232q-84 51 -200 93t-200 42 q-71 0 -120.5 -34t-49.5 -95q0 -31 17.5 -53.5t54.5 -39t77 -30t102 -35.5t112 -46q46 -23 81 -45t74.5 -57t65 -74t42.5 -95t17 -121q0 -97 -36.5 -181.5t-104 -147.5t-171 -99.5t-230.5 -36.5q-178 0 -350 66t-300 158zM422 1516l256 286h311l154 -286h-211l-111 143 l-157 -143h-242z" />
<glyph unicode="&#x15d;" horiz-adv-x="1048" d="M-35 147l154 220q87 -52 198 -93t189 -41q52 0 78 19.5t26 48.5q0 16 -9 29t-21.5 22t-36.5 19t-44 16t-55.5 16.5t-58.5 18.5q-48 16 -84 31t-79 42t-70 59t-45.5 80.5t-18.5 106.5q0 155 114 256t318 101q133 0 268.5 -41.5t227.5 -95.5l-152 -216q-78 39 -169.5 69 t-159.5 30q-50 0 -76.5 -18.5t-26.5 -47.5q0 -16 8 -29t19.5 -21.5t35 -17.5t42.5 -14.5t54 -15.5t60 -18q48 -16 86 -32t81 -44t71.5 -61t47.5 -82.5t19 -108.5q0 -159 -120.5 -258t-331.5 -99q-153 0 -294.5 50t-244.5 120zM279 1206l256 287h311l153 -287h-211l-110 144 l-158 -144h-241z" />
<glyph unicode="&#x15e;" horiz-adv-x="1253" d="M-25 201l187 237q110 -69 233.5 -120.5t218.5 -51.5q76 0 126.5 36t50.5 95q0 41 -35.5 72t-81.5 47.5t-124.5 44.5t-129.5 53q-58 28 -103 60t-85.5 78t-62.5 108.5t-22 138.5q0 95 35 177t100 145t166.5 99t227.5 36q289 0 604 -192l-186 -232q-84 51 -200 93t-200 42 q-71 0 -120.5 -34t-49.5 -95q0 -31 17.5 -53.5t54.5 -39t77 -30t102 -35.5t112 -46q46 -23 81 -45t74.5 -57t65 -74t42.5 -95t17 -121q0 -194 -136.5 -325t-375.5 -140q33 -68 33 -135q0 -111 -71.5 -168t-180.5 -57q-112 0 -180 47l90 160q43 -23 88 -23q94 0 94 88 q0 46 -22 97q-148 19 -286 79t-245 136z" />
<glyph unicode="&#x15f;" horiz-adv-x="1048" d="M-35 147l154 220q87 -52 198 -93t189 -41q52 0 78 19.5t26 48.5q0 16 -9 29t-21.5 22t-36.5 19t-44 16t-55.5 16.5t-58.5 18.5q-48 16 -84 31t-79 42t-70 59t-45.5 80.5t-18.5 106.5q0 155 114 256t318 101q133 0 268.5 -41.5t227.5 -95.5l-152 -216q-78 39 -169.5 69 t-159.5 30q-50 0 -76.5 -18.5t-26.5 -47.5q0 -16 8 -29t19.5 -21.5t35 -17.5t42.5 -14.5t54 -15.5t60 -18q48 -16 86 -32t81 -44t71.5 -61t47.5 -82.5t19 -108.5q0 -145 -101.5 -241t-281.5 -111q33 -80 33 -140q0 -111 -71.5 -168t-180.5 -57q-112 0 -180 47l90 160 q43 -23 88 -23q94 0 94 88q0 35 -20 93q-134 11 -254 57.5t-207 107.5z" />
<glyph unicode="&#x160;" horiz-adv-x="1253" d="M-25 201l187 237q110 -69 233.5 -120.5t218.5 -51.5q76 0 126.5 36t50.5 95q0 41 -35.5 72t-81.5 47.5t-124.5 44.5t-129.5 53q-58 28 -103 60t-85.5 78t-62.5 108.5t-22 138.5q0 95 35 177t100 145t166.5 99t227.5 36q289 0 604 -192l-186 -232q-84 51 -200 93t-200 42 q-71 0 -120.5 -34t-49.5 -95q0 -31 17.5 -53.5t54.5 -39t77 -30t102 -35.5t112 -46q46 -23 81 -45t74.5 -57t65 -74t42.5 -95t17 -121q0 -97 -36.5 -181.5t-104 -147.5t-171 -99.5t-230.5 -36.5q-178 0 -350 66t-300 158zM473 1802h211l111 -145l157 145h242l-256 -286h-311 z" />
<glyph unicode="&#x161;" horiz-adv-x="1046" d="M-35 147l154 220q87 -52 198 -93t189 -41q52 0 78 19.5t26 48.5q0 16 -9 29t-21.5 22t-36.5 19t-44 16t-55.5 16.5t-58.5 18.5q-48 16 -84 31t-79 42t-70 59t-45.5 80.5t-18.5 106.5q0 155 114 256t318 101q133 0 268.5 -41.5t227.5 -95.5l-152 -216q-78 39 -169.5 69 t-159.5 30q-50 0 -76.5 -18.5t-26.5 -47.5q0 -16 8 -29t19.5 -21.5t35 -17.5t42.5 -14.5t54 -15.5t60 -18q48 -16 86 -32t81 -44t71.5 -61t47.5 -82.5t19 -108.5q0 -159 -120.5 -258t-331.5 -99q-153 0 -294.5 50t-244.5 120zM328 1493h211l110 -145l158 145h242l-256 -287 h-312z" />
<glyph unicode="&#x162;" horiz-adv-x="1146" d="M117 1139l51 295h1098l-54 -295h-370l-201 -1139h-104q43 -75 43 -158q0 -111 -71.5 -168t-180.5 -57q-113 0 -181 47l91 160q43 -23 88 -23q94 0 94 88q0 53 -29 111h-100l201 1139h-375z" />
<glyph unicode="&#x163;" horiz-adv-x="835" d="M47 -336l90 160q43 -23 88 -23q94 0 94 88q0 53 -24 101q-109 31 -149 134.5t-11 274.5l76 430h-133l43 246h133l49 271l344 40l-55 -311h264l-43 -246h-264l-82 -460q-9 -58 7 -78.5t48 -20.5q42 0 144 41l77 -258q-162 -61 -297 -73q33 -64 33 -138q0 -111 -71.5 -168 t-180.5 -57q-112 0 -180 47z" />
<glyph unicode="&#x164;" horiz-adv-x="1146" d="M117 1139l51 295h1098l-54 -295h-370l-201 -1139h-350l201 1139h-375zM420 1802h211l110 -145l158 145h242l-256 -286h-312z" />
<glyph unicode="&#x165;" horiz-adv-x="835" d="M76 829l43 246h133l49 271l344 40l-55 -311h264l-43 -246h-264l-82 -460q-9 -58 7 -78.5t48 -20.5q42 0 144 41l77 -258q-199 -76 -350 -76q-162 0 -227.5 108.5t-30.5 313.5l76 430h-133zM700 1223l142 168h-107l45 262h240l-39 -291l-231 -219z" />
<glyph unicode="&#x166;" horiz-adv-x="1165" d="M125 1139l51 295h1098l-53 -295h-371l-92 -521h166l-35 -192h-166l-74 -426h-350l74 426h-164l33 192h166l92 521h-375z" />
<glyph unicode="&#x167;" horiz-adv-x="835" d="M57 504l33 194h94l25 131h-133l43 246h133l49 271l344 40l-55 -311h264l-43 -246h-264l-25 -131h207l-35 -194h-207l-22 -135q-9 -58 7 -78.5t48 -20.5q42 0 144 41l77 -258q-199 -76 -350 -76q-162 0 -227.5 108.5t-30.5 313.5l19 105h-95z" />
<glyph unicode="&#x168;" horiz-adv-x="1388" d="M96.5 488.5q4.5 70.5 18.5 154.5l141 791h350l-153 -869q-14 -61 -11.5 -113.5t18.5 -91.5t59.5 -61.5t111.5 -22.5t117.5 21.5t80.5 63.5t48.5 90t29.5 114l154 869h350l-156 -883q-18 -102 -44.5 -181.5t-75 -155.5t-115.5 -126t-168.5 -80.5t-230.5 -30.5 q-108 0 -192.5 17.5t-143 49t-98.5 78.5t-61 101.5t-27.5 124.5t-2 140.5zM494 1612q30 45 44 65t42 53.5t49.5 48t52.5 26.5t66 12t73.5 -15.5t66.5 -34t58 -34t51 -15.5q49 0 119 99l131 -91q-29 -44 -44 -66t-42.5 -54t-49.5 -47t-53.5 -27t-66.5 -12q-43 0 -91 24.5 t-89 49t-68 24.5q-48 0 -118 -96z" />
<glyph unicode="&#x169;" horiz-adv-x="1214" d="M53 360l125 715h338l-121 -678q-28 -159 78 -159q56 0 125.5 36t126.5 86l127 715h336l-189 -1075h-337l20 117q-198 -140 -358 -140q-166 0 -234.5 102.5t-36.5 280.5zM373 1303q30 45 44.5 65.5t42 53t49 47t52.5 26.5t66 12q44 0 93.5 -24.5t90.5 -49t66 -24.5 q48 0 118 98l131 -90q-29 -45 -44 -66.5t-42.5 -54t-49.5 -47.5t-53.5 -27t-66.5 -12q-43 0 -91 25t-89 49.5t-67 24.5q-49 0 -119 -97z" />
<glyph unicode="&#x16a;" horiz-adv-x="1388" d="M96.5 488.5q4.5 70.5 18.5 154.5l141 791h350l-153 -869q-14 -61 -11.5 -113.5t18.5 -91.5t59.5 -61.5t111.5 -22.5t117.5 21.5t80.5 63.5t48.5 90t29.5 114l154 869h350l-156 -883q-18 -102 -44.5 -181.5t-75 -155.5t-115.5 -126t-168.5 -80.5t-230.5 -30.5 q-108 0 -192.5 17.5t-143 49t-98.5 78.5t-61 101.5t-27.5 124.5t-2 140.5zM559 1567l33 192h594l-33 -192h-594z" />
<glyph unicode="&#x16b;" horiz-adv-x="1214" d="M53 360l125 715h338l-121 -678q-28 -159 78 -159q56 0 125.5 36t126.5 86l127 715h336l-189 -1075h-337l20 117q-198 -140 -358 -140q-166 0 -234.5 102.5t-36.5 280.5zM418 1257l33 193h593l-32 -193h-594z" />
<glyph unicode="&#x16c;" horiz-adv-x="1388" d="M96.5 488.5q4.5 70.5 18.5 154.5l141 791h350l-153 -869q-14 -61 -11.5 -113.5t18.5 -91.5t59.5 -61.5t111.5 -22.5t117.5 21.5t80.5 63.5t48.5 90t29.5 114l154 869h350l-156 -883q-18 -102 -44.5 -181.5t-75 -155.5t-115.5 -126t-168.5 -80.5t-230.5 -30.5 q-108 0 -192.5 17.5t-143 49t-98.5 78.5t-61 101.5t-27.5 124.5t-2 140.5zM559 1778h201q-5 -40 21.5 -62t78.5 -22q67 0 110.5 22.5t49.5 61.5h201q-20 -124 -116.5 -193t-250.5 -69q-158 0 -235.5 72.5t-59.5 189.5z" />
<glyph unicode="&#x16d;" horiz-adv-x="1214" d="M53 360l125 715h338l-121 -678q-28 -159 78 -159q56 0 125.5 36t126.5 86l127 715h336l-189 -1075h-337l20 117q-198 -140 -358 -140q-166 0 -234.5 102.5t-36.5 280.5zM420 1468h201q-5 -40 21.5 -62t78.5 -22q67 0 110.5 22.5t49.5 61.5h200q-20 -124 -116 -193 t-250 -69q-158 0 -235.5 72.5t-59.5 189.5z" />
<glyph unicode="&#x16e;" horiz-adv-x="1388" d="M96.5 488.5q4.5 70.5 18.5 154.5l141 791h350l-153 -869q-14 -61 -11.5 -113.5t18.5 -91.5t59.5 -61.5t111.5 -22.5t117.5 21.5t80.5 63.5t48.5 90t29.5 114l154 869h350l-156 -883q-18 -102 -44.5 -181.5t-75 -155.5t-115.5 -126t-168.5 -80.5t-230.5 -30.5 q-108 0 -192.5 17.5t-143 49t-98.5 78.5t-61 101.5t-27.5 124.5t-2 140.5zM655 1724q0 97 67.5 164.5t164.5 67.5q95 0 162 -67.5t67 -164.5q0 -95 -67 -162t-162 -67q-97 0 -164.5 67t-67.5 162zM811 1724q0 -31 22.5 -53t53.5 -22t53.5 22t22.5 53q0 32 -22.5 55t-53.5 23 t-53.5 -23t-22.5 -55z" />
<glyph unicode="&#x16f;" horiz-adv-x="1214" d="M53 360l125 715h338l-121 -678q-28 -159 78 -159q56 0 125.5 36t126.5 86l127 715h336l-189 -1075h-337l20 117q-198 -140 -358 -140q-166 0 -234.5 102.5t-36.5 280.5zM516 1415q0 97 67.5 164.5t164.5 67.5q95 0 162 -67.5t67 -164.5q0 -95 -67 -162t-162 -67 q-97 0 -164.5 67t-67.5 162zM672 1415q0 -31 22.5 -53.5t53.5 -22.5t53 22.5t22 53.5q0 32 -22 55t-53 23t-53.5 -23t-22.5 -55z" />
<glyph unicode="&#x170;" horiz-adv-x="1388" d="M96.5 488.5q4.5 70.5 18.5 154.5l141 791h350l-153 -869q-14 -61 -11.5 -113.5t18.5 -91.5t59.5 -61.5t111.5 -22.5t117.5 21.5t80.5 63.5t48.5 90t29.5 114l154 869h350l-156 -883q-18 -102 -44.5 -181.5t-75 -155.5t-115.5 -126t-168.5 -80.5t-230.5 -30.5 q-108 0 -192.5 17.5t-143 49t-98.5 78.5t-61 101.5t-27.5 124.5t-2 140.5zM539 1516l200 286h293l-295 -286h-198zM897 1516l201 286h293l-295 -286h-199z" />
<glyph unicode="&#x171;" horiz-adv-x="1214" d="M53 360l125 715h338l-121 -678q-28 -159 78 -159q56 0 125.5 36t126.5 86l127 715h336l-189 -1075h-337l20 117q-198 -140 -358 -140q-166 0 -234.5 102.5t-36.5 280.5zM395 1206l201 287h293l-295 -287h-199zM754 1206l200 287h293l-295 -287h-198z" />
<glyph unicode="&#x172;" horiz-adv-x="1390" d="M93.5 436q1.5 91 21.5 207l141 791h350l-153 -869q-14 -61 -11.5 -113.5t18.5 -91.5t59.5 -61.5t111.5 -22.5t117.5 21.5t80.5 63.5t48.5 90t29.5 114l154 869h350l-156 -883q-15 -84 -35.5 -152t-55 -135t-80 -116.5t-112.5 -88.5t-151 -59q-92 -54 -148.5 -103.5 t-56.5 -99.5q0 -14 4.5 -24t14.5 -16t19 -9.5t24 -4.5t24 -1.5t24 0t19 0.5l-55 -148q-96 0 -138 8q-151 30 -151 160q0 123 179 218q-139 4 -236.5 40.5t-150.5 94t-77 144t-22.5 177.5z" />
<glyph unicode="&#x173;" horiz-adv-x="1214" d="M53 360l125 715h338l-121 -678q-28 -159 78 -159q56 0 125.5 36t126.5 86l127 715h336l-189 -1075h-8q-93 -53 -150 -103t-57 -100q0 -14 4.5 -24t14.5 -16t19 -9.5t24 -4.5t24 -1.5t24 0t19 0.5l-55 -148q-96 0 -138 8q-151 30 -151 160q0 74 59 131.5t163 106.5h-129 l20 117q-198 -140 -358 -140q-166 0 -234.5 102.5t-36.5 280.5z" />
<glyph unicode="&#x174;" horiz-adv-x="1871" d="M162 1434h385l10 -908l363 908h286l47 -910l330 910h410l-619 -1434h-336l-55 911l-365 -911h-342zM733 1516l256 286h311l154 -286h-211l-110 143l-158 -143h-242z" />
<glyph unicode="&#x175;" horiz-adv-x="1628" d="M104 1075h347l14 -674l287 674h270l47 -665l246 665h366l-493 -1075h-314l-59 631l-285 -631h-313zM555 1206l256 287h311l154 -287h-211l-111 144l-157 -144h-242z" />
<glyph unicode="&#x177;" horiz-adv-x="1169" d="M18 -211q14 5 50 18t48 17.5t40 16t40 18.5t33.5 20t35 25t30 28.5t31.5 36.5l-201 1106h348l78 -661l309 661h373l-565 -1075q-25 -47 -37 -69t-37.5 -64.5t-42.5 -64t-47 -57t-57 -56t-66.5 -47.5t-81.5 -45t-96 -36.5t-115 -31.5zM342 1206l256 287h311l154 -287h-211 l-111 144l-157 -144h-242z" />
<glyph unicode="&#x178;" horiz-adv-x="1277" d="M133 1434h371l160 -549l352 549h407l-622 -865l-99 -569h-350l101 565zM479 1536l45 262h264l-45 -262h-264zM850 1536l45 262h264l-45 -262h-264z" />
<glyph unicode="&#x179;" horiz-adv-x="1230" d="M-53 0l47 268l780 871h-586l52 295h1056l-45 -267l-782 -872h637l-51 -295h-1108zM561 1516l285 286h383l-377 -286h-291z" />
<glyph unicode="&#x17a;" horiz-adv-x="1093" d="M-51 0l41 231l600 568h-479l47 276h952l-43 -231l-598 -568h500l-47 -276h-973zM426 1206l285 287h383l-377 -287h-291z" />
<glyph unicode="&#x17b;" horiz-adv-x="1230" d="M-53 0l47 268l780 871h-586l52 295h1056l-45 -267l-782 -872h637l-51 -295h-1108zM657 1536l45 262h267l-47 -262h-265z" />
<glyph unicode="&#x17c;" horiz-adv-x="1093" d="M-51 0l41 231l600 568h-479l47 276h952l-43 -231l-598 -568h500l-47 -276h-973zM520 1227l45 262h266l-47 -262h-264z" />
<glyph unicode="&#x17d;" horiz-adv-x="1230" d="M-53 0l47 268l780 871h-586l52 295h1056l-45 -267l-782 -872h637l-51 -295h-1108zM473 1802h211l111 -145l157 145h242l-256 -286h-311z" />
<glyph unicode="&#x17e;" horiz-adv-x="1093" d="M-51 0l41 231l600 568h-479l47 276h952l-43 -231l-598 -568h500l-47 -276h-973zM338 1493h211l110 -145l158 145h242l-256 -287h-311z" />
<glyph unicode="&#x17f;" horiz-adv-x="661" d="M-197 -217q61 21 98.5 35.5t68.5 35t46 36.5t29 49.5t20.5 62.5t16.5 86l129 741h-131l43 246h131l4 25q35 205 115 299t243 94q179 0 379 -113l-151 -215q-103 39 -158 39q-28 0 -53.5 -22t-36.5 -78l-174 -989q-13 -75 -20 -111t-20.5 -93t-26 -83.5t-34.5 -67.5 t-48.5 -61.5t-64.5 -49t-86.5 -46.5t-110.5 -37.5t-140 -36.5z" />
<glyph unicode="&#x192;" horiz-adv-x="1169" d="M-129 -418l483 1247h-131l96 246h132l14 37q39 101 74.5 166t84.5 117t113.5 75t151.5 23q176 0 385 -115l-197 -219q-7 3 -24.5 9.5t-28 10t-29.5 9.5t-30 7.5t-29 4t-27 -1.5q-66 -9 -104 -102l-8 -21h260l-96 -246h-261l-485 -1247h-344z" />
<glyph unicode="&#x1fc;" horiz-adv-x="2058" d="M-174 0l1139 1434h1153l-52 -295h-626l-49 -277h512l-52 -289h-512l-49 -278h637l-51 -295h-987l45 262h-463l-199 -262h-446zM684 545h299l92 516zM1036 1516l285 286h383l-377 -286h-291z" />
<glyph unicode="&#x1fd;" horiz-adv-x="1822" d="M41 373q0 320 138.5 522.5t357.5 202.5q54 0 101 -12.5t88 -38t62.5 -42.5t57.5 -49l20 119h322q90 23 178 23q189 0 303.5 -86t114.5 -228q0 -87 -32.5 -151.5t-84.5 -102.5t-131.5 -61t-160 -31t-183.5 -8h-96v-14q0 -191 149 -191q107 0 367 121l94 -231 q-92 -46 -239 -92t-291 -46q-84 0 -164 23h-334l20 123q-177 -146 -350 -146q-61 0 -113.5 21t-97 65.5t-70.5 124t-26 185.5zM387 414q0 -79 29 -123.5t84 -44.5q63 0 120.5 37t124.5 104l11 57q0 137 43 261q-84 122 -185 122q-70 0 -122.5 -59.5t-78.5 -152t-26 -201.5z M782 1206l285 287h383l-377 -287h-291zM1122 606h82q122 0 191 40.5t69 113.5q0 45 -30 72.5t-80 27.5q-85 0 -144 -72.5t-88 -181.5z" />
<glyph unicode="&#x1fe;" horiz-adv-x="1488" d="M-4 0l182 203q-98 143 -98 362q0 135 27.5 262.5t87.5 242t146 200t211.5 136t276.5 50.5q239 0 390 -102l71 80h240l-184 -205q96 -143 96 -352q0 -137 -27.5 -265t-87 -244t-145.5 -202.5t-211.5 -137.5t-276.5 -51q-239 0 -389 101l-69 -78h-240zM440 590q0 -63 4 -92 l549 608q-62 53 -178 53q-78 0 -143 -40.5t-107 -102.5t-71 -140t-41.5 -150.5t-12.5 -135.5zM528 326q65 -52 181 -52q78 0 143 40.5t106.5 103t70.5 140.5t41.5 150.5t12.5 135.5q0 46 -6 90zM682 1516l285 286h385l-379 -286h-291z" />
<glyph unicode="&#x1ff;" horiz-adv-x="1210" d="M-23 0l146 154q-82 111 -82 274q0 138 37 258t108.5 212.5t186.5 146t260 53.5q190 0 315 -78l51 55h191l-139 -145q90 -117 90 -285q0 -110 -23 -208.5t-71 -183t-117 -146t-166.5 -96t-214.5 -34.5q-198 0 -322 80l-55 -57h-195zM379 422l366 385q-45 33 -116 33 q-62 0 -112 -39.5t-79 -101.5t-44 -128.5t-15 -128.5v-20zM430 272q42 -36 125 -36q62 0 112 39.5t79 100.5t44 127.5t15 129.5q0 23 -2 35zM471 1206l285 287h383l-377 -287h-291z" />
<glyph unicode="&#x218;" horiz-adv-x="1253" d="M-25 201l187 237q110 -69 233.5 -120.5t218.5 -51.5q76 0 126.5 36t50.5 95q0 41 -35.5 72t-81.5 47.5t-124.5 44.5t-129.5 53q-58 28 -103 60t-85.5 78t-62.5 108.5t-22 138.5q0 95 35 177t100 145t166.5 99t227.5 36q289 0 604 -192l-186 -232q-84 51 -200 93t-200 42 q-71 0 -120.5 -34t-49.5 -95q0 -31 17.5 -53.5t54.5 -39t77 -30t102 -35.5t112 -46q46 -23 81 -45t74.5 -57t65 -74t42.5 -95t17 -121q0 -97 -36.5 -181.5t-104 -147.5t-171 -99.5t-230.5 -36.5q-178 0 -350 66t-300 158zM303 -543l141 168h-106l45 262h240l-39 -290 l-232 -220z" />
<glyph unicode="&#x219;" horiz-adv-x="1048" d="M-35 147l154 220q87 -52 198 -93t189 -41q52 0 78 19.5t26 48.5q0 16 -9 29t-21.5 22t-36.5 19t-44 16t-55.5 16.5t-58.5 18.5q-48 16 -84 31t-79 42t-70 59t-45.5 80.5t-18.5 106.5q0 155 114 256t318 101q133 0 268.5 -41.5t227.5 -95.5l-152 -216q-78 39 -169.5 69 t-159.5 30q-50 0 -76.5 -18.5t-26.5 -47.5q0 -16 8 -29t19.5 -21.5t35 -17.5t42.5 -14.5t54 -15.5t60 -18q48 -16 86 -32t81 -44t71.5 -61t47.5 -82.5t19 -108.5q0 -159 -120.5 -258t-331.5 -99q-153 0 -294.5 50t-244.5 120zM197 -543l141 168h-107l45 262h240l-39 -290 l-231 -220z" />
<glyph unicode="&#x21a;" horiz-adv-x="1146" d="M117 1139l51 295h1098l-54 -295h-370l-201 -1139h-350l201 1139h-375zM250 -543l141 168h-106l45 262h239l-39 -290l-231 -220z" />
<glyph unicode="&#x21b;" horiz-adv-x="837" d="M49 -543l141 168h-106l45 262h240l-39 -290l-232 -220zM80 829l43 246h133l49 271l344 40l-55 -311h264l-43 -246h-264l-82 -460q-9 -58 7 -78.5t48 -20.5q41 0 144 41l77 -258q-199 -76 -350 -76q-162 0 -227.5 108.5t-30.5 313.5l76 430h-133z" />
<glyph unicode="&#x2b0;" horiz-adv-x="804" d="M111 788l157 895h228l-56 -315q121 80 222 80q105 0 148 -63t24 -175l-76 -422h-228l72 398q7 43 -1.5 64.5t-41.5 21.5q-34 0 -74 -19t-73 -47l-74 -418h-227z" />
<glyph unicode="&#x2b2;" horiz-adv-x="698" d="M131 672q57 18 85.5 30t46.5 28.5t23 31.5t11 49l111 623h227l-107 -603q-22 -120 -43 -164q-37 -75 -137 -116q-66 -27 -170 -49zM416 1503l33 178h231l-31 -178h-233z" />
<glyph unicode="&#x2b7;" horiz-adv-x="858" d="M66 1434h233l8 -383l168 383h180l31 -377l141 377h246l-303 -646h-211l-39 359l-166 -359h-211z" />
<glyph unicode="&#x2b8;" horiz-adv-x="780" d="M127 674q12 5 45 16t43.5 16t32 15.5t35.5 22t28 28.5l-129 662h234l45 -379l182 379h252l-350 -646q-20 -36 -29 -52.5t-30.5 -48.5t-38 -49t-45.5 -42t-59.5 -39.5t-73.5 -30t-93 -24.5z" />
<glyph unicode="&#x2c6;" horiz-adv-x="583" d="M141 1206l256 287h312l153 -287h-211l-110 144l-158 -144h-242z" />
<glyph unicode="&#x2c7;" horiz-adv-x="587" d="M195 1493h211l110 -145l158 145h241l-256 -287h-311z" />
<glyph unicode="&#x2d8;" horiz-adv-x="552" d="M203 1468h200q-5 -40 22 -62t79 -22q67 0 110.5 22.5t49.5 61.5h200q-20 -124 -116 -193t-250 -69q-158 0 -235.5 72.5t-59.5 189.5z" />
<glyph unicode="&#x2d9;" horiz-adv-x="208" d="M182 1227l45 262h267l-48 -262h-264z" />
<glyph unicode="&#x2da;" horiz-adv-x="452" d="M106 1415q0 97 67.5 164.5t164.5 67.5q95 0 162 -67.5t67 -164.5q0 -95 -67 -162t-162 -67q-97 0 -164.5 67t-67.5 162zM262 1415q0 -31 22.5 -53.5t53.5 -22.5t53.5 22.5t22.5 53.5q0 32 -22.5 55t-53.5 23t-53.5 -23t-22.5 -55z" />
<glyph unicode="&#x2db;" horiz-adv-x="321" d="M-102 -238q0 83 72.5 145.5t199.5 115.5l154 -21q-211 -120 -211 -205q0 -14 4.5 -24t14.5 -16t19 -9.5t24 -4.5t24 -1.5t24 0t19 0.5l-56 -148q-96 0 -138 8q-150 30 -150 160z" />
<glyph unicode="&#x2dc;" horiz-adv-x="591" d="M156 1303q30 45 44.5 65.5t42 53t49 47t52.5 26.5t66 12q44 0 93 -24.5t90 -49t66 -24.5q49 0 119 98l131 -90q-29 -45 -44 -66.5t-42.5 -54t-49.5 -47.5t-53.5 -27t-66.5 -12q-43 0 -91 25t-89 49.5t-67 24.5q-49 0 -119 -97z" />
<glyph unicode="&#x2dd;" horiz-adv-x="679" d="M150 1206l200 287h293l-295 -287h-198zM508 1206l201 287h292l-294 -287h-199z" />
<glyph unicode="&#x2e3;" horiz-adv-x="792" d="M47 788l297 322l-168 324h234l82 -189l145 189h270l-284 -326l182 -320h-238l-86 193l-149 -193h-285z" />
<glyph unicode="&#x3c0;" horiz-adv-x="1107" d="M57 795l52 280h1050l-49 -280h-158l-139 -795h-289l140 795h-162l-140 -795h-288l139 795h-156z" />
<glyph unicode="&#x1e80;" horiz-adv-x="1871" d="M162 1434h385l10 -908l363 908h286l47 -910l330 910h410l-619 -1434h-336l-55 911l-365 -911h-342zM762 1802h348l190 -286h-260z" />
<glyph unicode="&#x1e81;" horiz-adv-x="1628" d="M104 1075h347l14 -674l287 674h270l47 -665l246 665h366l-493 -1075h-314l-59 631l-285 -631h-313zM588 1493h348l190 -287h-260z" />
<glyph unicode="&#x1e82;" horiz-adv-x="1871" d="M162 1434h385l10 -908l363 908h286l47 -910l330 910h410l-619 -1434h-336l-55 911l-365 -911h-342zM868 1516l285 286h383l-377 -286h-291z" />
<glyph unicode="&#x1e83;" horiz-adv-x="1628" d="M104 1075h347l14 -674l287 674h270l47 -665l246 665h366l-493 -1075h-314l-59 631l-285 -631h-313zM694 1206l285 287h383l-377 -287h-291z" />
<glyph unicode="&#x1e84;" horiz-adv-x="1871" d="M162 1434h385l10 -908l363 908h286l47 -910l330 910h410l-619 -1434h-336l-55 911l-365 -911h-342zM780 1530l45 262h265l-46 -262h-264zM1151 1530l45 262h264l-45 -262h-264z" />
<glyph unicode="&#x1e85;" horiz-adv-x="1628" d="M104 1075h347l14 -674l287 674h270l47 -665l246 665h366l-493 -1075h-314l-59 631l-285 -631h-313zM604 1227l45 262h264l-45 -262h-264zM975 1227l45 262h264l-45 -262h-264z" />
<glyph unicode="&#x1e9e;" horiz-adv-x="1609" d="M25 0l153 877q18 103 46 183t77 152.5t116 119.5t165 74.5t223 27.5h731l-39 -230l-321 -336q169 -48 261.5 -153.5t92.5 -255.5q0 -94 -36 -179.5t-104 -153.5t-176 -108.5t-241 -40.5q-261 0 -477 154l182 236q160 -101 276 -101q94 0 153.5 50.5t59.5 127.5 q0 183 -344 183h-100l39 217l285 295h-242q-119 0 -187.5 -72.5t-99.5 -247.5l-143 -819h-350z" />
<glyph unicode="&#x1ef2;" horiz-adv-x="1277" d="M133 1434h371l160 -549l352 549h407l-622 -865l-99 -569h-350l101 565zM463 1802h348l190 -286h-260z" />
<glyph unicode="&#x1ef3;" horiz-adv-x="1134" d="M-16 -211q13 5 50 18.5t48 17.5t39.5 16t40 18.5t33.5 19.5t35 25t29.5 28.5t31.5 36.5l-201 1106h348l78 -661l309 661h373l-565 -1075q-25 -47 -37 -69t-37.5 -64.5t-42.5 -64t-47 -57t-57 -56t-66.5 -47.5t-81.5 -45t-96 -36.5t-115 -31.5zM340 1493h348l191 -287 h-261z" />
<glyph unicode="&#x2000;" horiz-adv-x="978" />
<glyph unicode="&#x2001;" horiz-adv-x="1956" />
<glyph unicode="&#x2002;" horiz-adv-x="978" />
<glyph unicode="&#x2003;" horiz-adv-x="1956" />
<glyph unicode="&#x2004;" horiz-adv-x="652" />
<glyph unicode="&#x2005;" horiz-adv-x="489" />
<glyph unicode="&#x2006;" horiz-adv-x="326" />
<glyph unicode="&#x2007;" horiz-adv-x="326" />
<glyph unicode="&#x2008;" horiz-adv-x="244" />
<glyph unicode="&#x2009;" horiz-adv-x="391" />
<glyph unicode="&#x200a;" horiz-adv-x="108" />
<glyph unicode="&#x2010;" horiz-adv-x="839" d="M74 449l47 268h631l-47 -268h-631z" />
<glyph unicode="&#x2011;" horiz-adv-x="839" d="M74 449l47 268h631l-47 -268h-631z" />
<glyph unicode="&#x2012;" horiz-adv-x="839" d="M74 449l47 268h631l-47 -268h-631z" />
<glyph unicode="&#x2013;" horiz-adv-x="1081" d="M74 451l47 264h874l-47 -264h-874z" />
<glyph unicode="&#x2014;" horiz-adv-x="1280" d="M74 451l47 264h1075l-47 -264h-1075z" />
<glyph unicode="&#x2018;" horiz-adv-x="534" d="M125 764l53 410l328 301l65 -111l-194 -234h149l-63 -366h-338z" />
<glyph unicode="&#x2019;" horiz-adv-x="516" d="M127 831l195 234h-150l64 367h337l-53 -410l-327 -301z" />
<glyph unicode="&#x201a;" horiz-adv-x="548" d="M-47 -233l194 233h-149l63 367h338l-53 -410l-328 -301z" />
<glyph unicode="&#x201c;" horiz-adv-x="1001" d="M125 764l53 410l328 301l65 -111l-194 -234h149l-63 -366h-338zM592 764l53 410l328 301l65 -111l-194 -234h149l-63 -366h-338z" />
<glyph unicode="&#x201d;" horiz-adv-x="983" d="M127 831l195 234h-150l64 367h337l-53 -410l-327 -301zM594 831l194 234h-149l63 367h338l-53 -410l-328 -301z" />
<glyph unicode="&#x201e;" horiz-adv-x="1015" d="M-47 -233l194 233h-149l63 367h338l-53 -410l-328 -301zM420 -233l194 233h-149l63 367h338l-53 -410l-328 -301z" />
<glyph unicode="&#x2020;" horiz-adv-x="1169" d="M76 748l47 268l401 -31l80 449h252l-80 -449l414 31l-47 -268l-402 30l-211 -1196h-251l210 1198z" />
<glyph unicode="&#x2021;" horiz-adv-x="1216" d="M4 211l47 268l404 -30l59 331l-416 -32l47 268l404 -31l80 449h252l-80 -449l411 31l-47 -268l-401 30l-57 -329l411 30l-47 -268l-401 31l-117 -660h-250l117 662z" />
<glyph unicode="&#x2022;" horiz-adv-x="956" d="M129 584q0 143 100 243.5t242 100.5q143 0 244.5 -101t101.5 -243t-101.5 -243t-244.5 -101q-142 0 -242 100.5t-100 243.5z" />
<glyph unicode="&#x2026;" horiz-adv-x="1544" d="M-4 0l65 367h338l-65 -367h-338zM498 0l65 367h338l-65 -367h-338zM997 0l66 367h338l-66 -367h-338z" />
<glyph unicode="&#x202f;" horiz-adv-x="391" />
<glyph unicode="&#x2030;" horiz-adv-x="2785" d="M135 1001q0 197 116 326t304 129q165 0 261.5 -86.5t96.5 -226.5q0 -198 -115.5 -326.5t-303.5 -128.5q-165 0 -262 86.5t-97 226.5zM385 1016q0 -65 26.5 -98t92.5 -33q40 0 72.5 26t50.5 65t27.5 79t9.5 73q0 66 -26.5 99t-92.5 33q-40 0 -72.5 -26t-50.5 -65.5 t-27.5 -79.5t-9.5 -73zM393 0l930 1434h258l-930 -1434h-258zM1065 291q0 196 116 325t302 129q165 0 261.5 -86.5t96.5 -226.5q0 -198 -115 -326.5t-303 -128.5q-165 0 -261.5 87t-96.5 227zM1315 305q0 -65 26.5 -98t92.5 -33q40 0 72 26t50 65.5t27.5 79.5t9.5 73 q0 66 -26 98.5t-92 32.5q-40 0 -72.5 -26t-50.5 -65.5t-27.5 -79.5t-9.5 -73zM1907 291q0 196 116 325t304 129q165 0 261.5 -86.5t96.5 -226.5q0 -198 -116 -326.5t-304 -128.5q-165 0 -261.5 87t-96.5 227zM2157 305q0 -66 26 -98.5t92 -32.5q40 0 72.5 26t50.5 65.5 t27.5 79.5t9.5 73q0 65 -26.5 98t-92.5 33q-40 0 -72 -26t-50 -65.5t-27.5 -79.5t-9.5 -73z" />
<glyph unicode="&#x2039;" horiz-adv-x="731" d="M27 449l36 200l650 430l-62 -336l-348 -217l275 -217l-52 -289z" />
<glyph unicode="&#x203a;" horiz-adv-x="729" d="M-2 20l61 336l349 217l-275 218l51 288l500 -428l-37 -200z" />
<glyph unicode="&#x2044;" horiz-adv-x="423" d="M-326 0l865 1434h249l-864 -1434h-250z" />
<glyph unicode="&#x205f;" horiz-adv-x="489" />
<glyph unicode="&#x2070;" horiz-adv-x="876" d="M160 1100q0 46 7.5 99t25 119t50.5 125.5t78.5 109.5t115.5 80t155 30q76 0 135.5 -18.5t97 -49t62 -73.5t34 -89t9.5 -98q0 -39 -5 -83t-18.5 -99.5t-34.5 -107.5t-55.5 -102t-78 -87t-106 -59.5t-136.5 -22.5q-94 0 -161.5 27t-104.5 74.5t-53.5 103t-16.5 121.5z M393 1087q0 -32 3 -52t13 -40.5t32 -30.5t57 -10q51 0 92 49.5t62.5 119.5t32.5 130.5t11 96.5q0 30 -3.5 50.5t-13 40.5t-31.5 30t-56 10q-42 0 -77 -33.5t-57 -82.5t-37 -106t-21.5 -101t-6.5 -71z" />
<glyph unicode="&#x2074;" horiz-adv-x="872" d="M88 938l29 162l456 549h314l-92 -516h125l-35 -195h-125l-27 -150h-235l26 150h-436zM369 1133h190l53 297z" />
<glyph unicode="&#x2075;" horiz-adv-x="792" d="M90 915l129 146q35 -26 56.5 -40t66.5 -30t92 -16q59 0 100 27.5t41 82.5q0 43 -26.5 66t-77.5 23q-78 0 -154 -50l-129 86l123 439h570l-35 -195h-367l-22 -100q36 8 82 8q134 0 206 -76t72 -188q0 -63 -23.5 -120.5t-67.5 -103.5t-114.5 -73t-156.5 -27 q-206 0 -365 141z" />
<glyph unicode="&#x2076;" horiz-adv-x="823" d="M152 1114q0 113 43 214t119 175t185.5 117t235.5 43q49 0 91 -6.5t60 -13.5l17 -7l-82 -170q-33 7 -78 7q-99 0 -184 -42.5t-129 -130.5q70 46 164 46q120 0 193 -70t73 -184q0 -134 -95 -226t-257 -92q-169 0 -262.5 97.5t-93.5 242.5zM387 1100q0 -61 30 -98t85 -37 q62 0 92.5 33.5t30.5 82.5q0 41 -27.5 67t-81.5 26q-73 0 -129 -60v-14z" />
<glyph unicode="&#x2077;" horiz-adv-x="679" d="M143 788q15 84 59 181.5t91.5 172.5t105.5 151t85.5 108t47.5 53h-348l33 195h614l-30 -183q-14 -15 -38 -41.5t-87.5 -106t-115.5 -157t-101.5 -181.5t-65.5 -192h-250z" />
<glyph unicode="&#x2078;" horiz-adv-x="839" d="M119 1008q0 163 223 260q-92 71 -92 168q0 99 86 163t242 64q147 0 226 -57t79 -148q0 -122 -160 -209q139 -80 139 -209q0 -121 -103.5 -193.5t-287.5 -72.5q-170 0 -261 62.5t-91 171.5zM358 1034q0 -40 31 -62t88 -22q63 0 105.5 27.5t42.5 73.5q0 68 -101 118 q-79 -26 -122.5 -56.5t-43.5 -78.5zM475 1411q0 -48 62 -78q55 17 85.5 37t30.5 55q0 31 -22.5 49.5t-57.5 18.5q-42 0 -70 -24t-28 -58z" />
<glyph unicode="&#x2079;" horiz-adv-x="821" d="M131 801l82 170q33 -6 78 -6q101 0 186 41.5t129 130.5q-62 -47 -166 -47q-120 0 -192 70t-72 186q0 134 94 225.5t258 91.5q167 0 261 -98t94 -242q0 -113 -43 -214t-119 -175t-185.5 -117t-236.5 -43q-49 0 -91 7t-60 13zM410 1356q0 -42 26.5 -67t81.5 -25 q75 0 131 61v12q0 59 -31 97.5t-86 38.5q-60 0 -91 -34t-31 -83z" />
<glyph unicode="&#x207a;" horiz-adv-x="704" d="M131 1114l29 168h225l37 213h172l-37 -213h223l-30 -168h-224l-37 -213h-172l37 213h-223z" />
<glyph unicode="&#x207d;" horiz-adv-x="468" d="M127.5 790q-5.5 62 11.5 152l99 547q9 46 14.5 72t15.5 59t21 50.5t30 39.5t42 34.5t57 27t76 25.5t98 22l37 -129q-85 -30 -110 -55.5t-36 -84.5l-118 -669q-11 -64 1.5 -94t69.5 -58l-55 -117q-130 30 -189 73t-64.5 105z" />
<glyph unicode="&#x207e;" horiz-adv-x="466" d="M51 741q85 30 110 55.5t36 84.5l118 669q11 64 -1.5 94t-69.5 58l55 117q130 -30 189 -73t64.5 -105t-11.5 -152l-99 -547q-9 -46 -14.5 -72t-15.5 -59t-21 -50.5t-30 -39.5t-42 -34.5t-57 -27t-76 -25.5t-98 -22z" />
<glyph unicode="&#x207f;" horiz-adv-x="804" d="M111 788l114 646h228l-13 -66q125 80 222 80q105 0 148 -63t24 -175l-74 -422h-228l72 398q7 42 -2.5 64t-42.5 22q-70 0 -147 -66l-74 -418h-227z" />
<glyph unicode="&#x2080;" horiz-adv-x="874" d="M-35 4q0 46 7.5 99t25 119t50.5 125.5t78.5 109.5t115.5 80t155 30q94 0 162.5 -27t105.5 -75t53.5 -103.5t16.5 -121.5q0 -39 -5 -83t-18.5 -99.5t-34.5 -107.5t-55.5 -102t-78 -87.5t-106 -60t-136.5 -22.5q-94 0 -161.5 27t-104.5 74.5t-53.5 103t-16.5 121.5zM199 -8 q0 -32 3 -52t13 -40.5t31.5 -30.5t56.5 -10q42 0 77 33.5t57 82.5t37 105.5t21.5 101.5t6.5 72q0 63 -20.5 97t-84.5 34q-51 0 -92 -49.5t-62.5 -119t-32.5 -129t-11 -95.5z" />
<glyph unicode="&#x2081;" horiz-adv-x="641" d="M-35 412l268 141h224l-152 -860h-235l114 631l-147 -74z" />
<glyph unicode="&#x2082;" horiz-adv-x="792" d="M-117 -307l17 96q10 57 35.5 107t52 82.5t74.5 70t75.5 55t83.5 50.5q25 15 57 32.5t50 27.5t39.5 23t32.5 21.5t21.5 18.5t14.5 19.5t4 20.5q-2 26 -23 41t-59 15q-88 0 -233 -82l-86 164q185 112 352 112q140 0 213.5 -67.5t73.5 -167.5q0 -42 -13 -80.5t-40.5 -71 t-53.5 -57t-70.5 -51.5t-71.5 -41.5t-75 -38.5q-85 -43 -112 -63t-33 -42h385l-31 -194h-680z" />
<glyph unicode="&#x2083;" horiz-adv-x="786" d="M-121 -180l115 143q86 -48 141 -68t115 -20q62 0 94.5 22.5t32.5 61.5q0 27 -16 44.5t-46.5 26.5t-62.5 12t-76 3h-35l33 197h41q82 0 138.5 17.5t56.5 59.5q0 25 -19.5 39.5t-50.5 14.5q-54 0 -120.5 -24t-113.5 -50l-75 160q180 108 352 108q133 0 200.5 -56.5 t67.5 -143.5q0 -132 -164 -211q57 -22 92 -76t35 -123q0 -39 -10 -76t-35 -74.5t-62.5 -65.5t-97.5 -45.5t-135 -17.5q-215 0 -395 142z" />
<glyph unicode="&#x2084;" horiz-adv-x="872" d="M-104 -158l28 162l457 549h313l-92 -516h125l-35 -195h-125l-26 -149h-236l27 149h-436zM176 37h191l53 297z" />
<glyph unicode="&#x2085;" horiz-adv-x="792" d="M-102 -180l129 145q35 -26 56.5 -40t66.5 -30t92 -16q59 0 100 28t41 83q0 88 -104 88q-80 0 -154 -49l-129 86l123 438h569l-35 -195h-366l-23 -100q36 8 82 8q134 0 206.5 -76t72.5 -188q0 -63 -23.5 -120.5t-68 -103.5t-115 -73t-156.5 -27q-204 0 -364 142z" />
<glyph unicode="&#x2086;" horiz-adv-x="821" d="M-43 18q0 113 43.5 214t119.5 175t185.5 117t235.5 43q49 0 91 -6.5t60 -12.5l17 -7l-82 -170q-33 6 -78 6q-99 0 -184 -42t-129 -130q68 45 163 45q120 0 193.5 -70t73.5 -184q0 -133 -95 -225.5t-258 -92.5q-169 0 -262.5 97.5t-93.5 242.5zM193 4q0 -61 29.5 -98 t84.5 -37q62 0 92.5 34t30.5 83q0 41 -27 66.5t-81 25.5q-73 0 -129 -60v-14z" />
<glyph unicode="&#x2087;" horiz-adv-x="677" d="M-51 -307q15 84 59 181.5t91.5 172t105.5 150.5t85.5 108t47.5 53h-348l33 195h614l-31 -182q-14 -15 -38 -41.5t-87.5 -106t-115 -157t-101 -181.5t-65.5 -192h-250z" />
<glyph unicode="&#x2088;" horiz-adv-x="841" d="M-74 -88q0 48 18 89t51 72.5t70 54.5t85 44q-93 72 -93 168q0 99 86 163t242 64q147 0 226 -57t79 -148q0 -121 -160 -208q140 -81 140 -209q0 -121 -103.5 -194t-287.5 -73q-171 0 -262 62.5t-91 171.5zM166 -61q0 -40 31 -62t88 -22q63 0 105 27t42 73q0 70 -100 119 q-79 -26 -122.5 -56.5t-43.5 -78.5zM283 315q0 -28 16 -45.5t45 -31.5q55 17 86 37.5t31 54.5q0 30 -22 48.5t-58 18.5q-42 0 -70 -24t-28 -58z" />
<glyph unicode="&#x2089;" horiz-adv-x="821" d="M-61 -295l81 170q33 -6 78 -6q102 0 187 41.5t129 130.5q-62 -47 -166 -47q-120 0 -192 70t-72 186q0 134 94 225.5t258 91.5q167 0 260.5 -98t93.5 -242q0 -113 -43 -214t-119 -175t-185.5 -117t-236.5 -43q-49 0 -91 7t-59 13zM217 260q0 -42 27 -67t82 -25 q75 0 131 61v13q0 59 -31 97t-86 38q-60 0 -91.5 -34t-31.5 -83z" />
<glyph unicode="&#x208a;" horiz-adv-x="704" d="M-63 18l28 168h225l37 213h172l-37 -213h224l-31 -168h-223l-37 -213h-172l37 213h-223z" />
<glyph unicode="&#x208d;" horiz-adv-x="471" d="M-62.5 -306q-5.5 62 11.5 152l98 547q9 46 14.5 72t15.5 59t21 50.5t30 39.5t42 34.5t57 27t76 25.5t98 22l37 -129q-85 -30 -109.5 -55t-35.5 -84l-119 -670q-11 -63 1.5 -93.5t70.5 -58.5l-56 -116q-130 30 -188.5 72.5t-64 104.5z" />
<glyph unicode="&#x208e;" horiz-adv-x="466" d="M-141 -354q85 30 109.5 55t35.5 84l119 670q11 63 -1.5 93t-70.5 58l55 117q130 -30 189 -73t64.5 -105t-11.5 -152l-98 -547q-9 -46 -14.5 -72t-15.5 -58.5t-21 -50t-30 -39.5t-42 -34.5t-57 -27t-76 -25.5t-98 -22z" />
<glyph unicode="&#x20a1;" horiz-adv-x="1105" d="M94 600q0 166 45 299t119.5 214t165.5 123t190 42q42 0 82 -6l64 162h137l-74 -191l41 -14l80 205h137l-100 -258q26 -14 68.5 -38.5t58.5 -33.5l-152 -227q-13 7 -38 23t-35 22l-174 -453q68 23 168 72l104 -252q-79 -33 -115.5 -48t-121.5 -41.5t-154 -35.5l-64 -164 h-137l62 160l-48 6l-63 -166h-137l82 209q-191 108 -191 391zM440 610l131 338q-60 -48 -95.5 -136t-35.5 -179v-23zM518 457q20 -10 43 -13l205 531q-8 4 -25 8t-18 4z" />
<glyph unicode="&#x20a4;" horiz-adv-x="1148" d="M-6 0l41 233q7 2 18.5 7t45 22t62.5 38t63 56.5t55 75.5h-187l27 162h198q-3 42 -12 86h-170l27 164h92q-33 108 -33 200q0 190 115.5 301t322.5 111q72 0 142 -15t122 -35t108.5 -52.5t88 -55t74.5 -55.5l-174 -205q-178 129 -299 129q-74 0 -115 -43.5t-41 -111.5 q0 -12 1 -24t4 -26t4.5 -22.5t7 -25t7.5 -22t9 -25t8 -23.5h367l-29 -164h-293q2 -16 2 -49q0 -6 -1 -18.5t-1 -18.5h279l-29 -162h-295q-47 -95 -119 -143h512l-51 -289h-954z" />
<glyph unicode="&#x20a7;" horiz-adv-x="1394" d="M51 0l158 895h-53l22 131h53l72 408h510q540 0 549 -408h49l-25 -131h-38q-19 -80 -59.5 -149t-107 -128t-168.5 -92.5t-229 -33.5h-297l-86 -492h-350zM539 778h188q183 0 248 117h-416zM582 1026h417q-16 119 -192 119h-205z" />
<glyph unicode="&#x20a9;" horiz-adv-x="2013" d="M57 520l35 195h195l-13 155h-155l35 195h104l-29 369h385l4 -369h222l147 369h287l18 -369h226l133 369h409l-159 -369h110l-35 -195h-159l-68 -155h201l-35 -195h-250l-223 -520h-336l-55 911l-365 -911h-342l-43 520h-244zM621 870l4 -344l137 344h-141zM1303 870 l18 -346l125 346h-143z" />
<glyph unicode="&#x20ac;" horiz-adv-x="1413" d="M51 479l31 174h102q3 51 13 115h-95l31 174h103q76 245 240 379.5t380 134.5q85 0 164.5 -17.5t160 -56.5t128 -67t131.5 -82l-189 -246q-122 80 -200.5 117t-157.5 37q-89 0 -159 -53t-116 -146h394l-33 -174h-420q-11 -71 -16 -115h418l-33 -174h-383q24 -188 172 -188 q131 0 403 149l142 -276q-173 -90 -325 -138.5t-306 -48.5q-200 0 -319 125.5t-132 376.5h-129z" />
<glyph unicode="&#x2116;" horiz-adv-x="2357" d="M39 0l252 1434h350l324 -895l155 895h350l-251 -1434h-351l-325 897l-154 -897h-350zM1452 283l35 192h686l-35 -192h-686zM1481 907q0 144 57 259.5t165.5 183t248.5 67.5q186 0 295.5 -97t109.5 -253q0 -144 -57 -259.5t-165.5 -183t-248.5 -67.5q-186 0 -295.5 97 t-109.5 253zM1769 926q0 -138 129 -138q43 0 78 28t54 70t28.5 84t9.5 77q0 139 -129 139q-43 0 -78 -27.5t-54 -70t-28.5 -84.5t-9.5 -78z" />
<glyph unicode="&#x2117;" horiz-adv-x="1617" d="M96 641q0 131 32.5 251.5t98.5 223t158.5 178.5t219 119t274.5 43q206 0 360 -84.5t234.5 -234.5t80.5 -344q0 -131 -32.5 -251.5t-98.5 -223.5t-158 -179t-219.5 -119t-275.5 -43q-309 0 -491.5 184t-182.5 480zM174 643q0 -261 161.5 -425.5t442.5 -164.5q160 0 293 59 t220.5 160t135.5 234.5t48 284.5q0 171 -70.5 303t-208.5 208t-324 76q-161 0 -294 -58.5t-220.5 -159t-135.5 -233.5t-48 -284zM524 285l152 862h285q117 0 185 -56.5t68 -168.5q0 -148 -95 -224.5t-253 -76.5h-188l-57 -336h-97zM694 707h189q99 0 166 58t67 157 q0 74 -46 107.5t-124 33.5h-188z" />
<glyph unicode="&#x2120;" horiz-adv-x="1206" d="M156 1036l71 88q94 -53 170 -53q28 0 48 8.5t20 24.5q0 14 -19 21t-59.5 16.5t-69.5 21.5q-106 45 -106 133q0 64 53 105t144 41q114 0 227 -62l-70 -86q-88 43 -147 43q-58 0 -58 -32q0 -14 15 -21t54 -17t69 -22q112 -41 112 -135q0 -63 -56 -103t-151 -40 q-129 0 -247 69zM639 975l80 459h131l82 -248l178 248h131l-80 -459h-127l45 258l-129 -182h-76l-63 190l-45 -266h-127z" />
<glyph unicode="&#x2122;" horiz-adv-x="1212" d="M231 1327l19 107h412l-17 -107h-143l-64 -352h-125l62 352h-144zM631 975l80 459h133l80 -248l178 248h129l-80 -459h-125l45 258l-129 -182h-76l-63 190l-45 -266h-127z" />
<glyph unicode="&#x2126;" horiz-adv-x="1505" d="M23 0l51 289h194q-162 114 -162 358q0 126 29.5 243t91.5 220.5t149.5 180t212 121t271.5 44.5q286 0 441 -148t155 -423q0 -124 -28 -229.5t-74.5 -177.5t-101 -119.5t-113.5 -69.5h180l-51 -289h-566l54 299q152 35 247 196t95 382q0 139 -58 209.5t-182 70.5 q-69 0 -127.5 -23.5t-99 -61.5t-73 -90.5t-51.5 -107.5t-32 -115t-17.5 -109.5t-4.5 -94.5q0 -104 44.5 -166.5t143.5 -89.5l-51 -299h-567z" />
<glyph unicode="&#x2153;" horiz-adv-x="1769" d="M162 1292l268 142h223l-151 -861h-236l115 631l-148 -74zM260 0l864 1434h250l-864 -1434h-250zM901 127l115 143q86 -48 141 -68t115 -20q62 0 94.5 22.5t32.5 61.5q0 27 -16 44.5t-46.5 26.5t-62.5 12t-76 3h-35l33 197h41q81 0 138 18t57 60q0 24 -19.5 38.5 t-50.5 14.5q-54 0 -120.5 -24t-113.5 -50l-75 160q180 108 352 108q133 0 200.5 -56.5t67.5 -143.5q0 -132 -164 -211q57 -22 92 -76t35 -123q0 -38 -10 -75.5t-35 -74.5t-62.5 -65t-97.5 -45.5t-135 -17.5q-216 0 -395 141z" />
<glyph unicode="&#x2154;" horiz-adv-x="1986" d="M66 573l16 97q7 41 22.5 78.5t32 65.5t45 57.5t48.5 47t57.5 43t56 37t59.5 35.5q25 15 57 33t50.5 28t39.5 22.5t32.5 21t22 19t14.5 20t4 20.5q-3 55 -82 55q-89 0 -234 -82l-86 164q186 113 352 113q140 0 213.5 -68t73.5 -168q0 -37 -11 -71t-27 -60.5t-45 -54 t-52 -45.5t-62 -41t-62 -35.5t-64 -32.5q-87 -44 -113.5 -63t-32.5 -41h385l-31 -195h-679zM487 0l865 1434h250l-865 -1434h-250zM1126 127l115 143q86 -48 141 -68t115 -20q62 0 94.5 22.5t32.5 61.5q0 27 -16 44.5t-46.5 26.5t-62.5 12t-76 3h-34l32 197h41q81 0 138 18 t57 60q0 24 -19.5 38.5t-50.5 14.5q-54 0 -120 -24t-113 -50l-76 160q180 108 352 108q133 0 200.5 -56.5t67.5 -143.5q0 -133 -163 -211q57 -22 92 -76t35 -123q0 -38 -10 -75.5t-35 -74.5t-62.5 -65t-97.5 -45.5t-135 -17.5q-217 0 -396 141z" />
<glyph unicode="&#x2155;" horiz-adv-x="1789" d="M162 1292l268 142h223l-151 -861h-236l115 631l-148 -74zM260 0l864 1434h250l-864 -1434h-250zM924 127l129 145q35 -26 56.5 -40t66.5 -30t92 -16q59 0 100 28t41 83q0 88 -104 88q-80 0 -154 -49l-129 86l123 438h569l-35 -194h-366l-23 -101q36 8 82 8 q134 0 206.5 -76t72.5 -188q0 -133 -96.5 -228t-266.5 -95q-205 0 -364 141z" />
<glyph unicode="&#x2156;" horiz-adv-x="1998" d="M63 573l17 97q7 41 22.5 78.5t32 65.5t45 57.5t48.5 47t57.5 43t56 37t59.5 35.5q25 15 57 33t50.5 28t39.5 22.5t32.5 21t22 19t14.5 20t4 20.5q-3 55 -82 55q-89 0 -234 -82l-86 164q186 113 352 113q140 0 213.5 -68t73.5 -168q0 -37 -11 -71t-27 -60.5t-45 -54 t-52 -45.5t-62 -41t-62 -35.5t-64 -32.5q-87 -44 -113.5 -63t-32.5 -41h385l-31 -195h-680zM485 0l865 1434h249l-864 -1434h-250zM1145 127l129 145q35 -26 56.5 -40t66.5 -30t92 -16q59 0 100 28t41 83q0 88 -104 88q-80 0 -154 -49l-129 86l123 438h569l-34 -194h-367 l-23 -101q36 8 82 8q134 0 206.5 -76t72.5 -188q0 -133 -96.5 -228t-266.5 -95q-205 0 -364 141z" />
<glyph unicode="&#x2157;" horiz-adv-x="1966" d="M70 700l114 144q86 -48 141 -68t115 -20q62 0 94.5 22.5t32.5 61.5q0 27 -16 44.5t-46 26.5t-62 12t-76 3h-35l33 196h41q81 0 137.5 18t56.5 60q0 24 -19.5 38.5t-50.5 14.5q-54 0 -120 -23.5t-113 -49.5l-76 159q33 20 52.5 30t70 33t109 34.5t120.5 11.5 q133 0 201 -57t68 -144q0 -132 -164 -211q57 -22 92 -75.5t35 -122.5q0 -39 -10 -76t-35 -74.5t-62.5 -65.5t-97.5 -45.5t-135 -17.5q-216 0 -395 141zM438 0l865 1434h249l-864 -1434h-250zM1102 127l129 145q35 -26 56.5 -40t66.5 -30t92 -16q59 0 100 28t41 83 q0 88 -104 88q-80 0 -154 -49l-129 86l123 438h569l-34 -194h-367l-23 -101q36 8 82 8q134 0 206.5 -76t72.5 -188q0 -133 -96.5 -228t-266.5 -95q-205 0 -364 141z" />
<glyph unicode="&#x2158;" horiz-adv-x="2048" d="M74 723l28 162l457 549h313l-92 -516h125l-35 -195h-125l-26 -150h-236l27 150h-436zM354 918h191l53 296zM520 0l864 1434h250l-864 -1434h-250zM1182 127l129 145q35 -26 56.5 -40t66.5 -30t92 -16q59 0 100 28t41 83q0 88 -104 88q-80 0 -154 -49l-129 86l123 438h569 l-35 -194h-366l-23 -101q36 8 82 8q134 0 206.5 -76t72.5 -188q0 -133 -96.5 -228t-266.5 -95q-205 0 -364 141z" />
<glyph unicode="&#x2159;" horiz-adv-x="1759" d="M162 1292l268 142h223l-151 -861h-236l115 631l-148 -74zM260 0l864 1434h250l-864 -1434h-250zM918 326q0 113 43 214t119 174.5t185.5 116.5t235.5 43q49 0 91 -6.5t60 -13.5l17 -6l-82 -170q-33 6 -78 6q-99 0 -184 -42t-129 -130q68 45 164 45q120 0 193 -70t73 -184 q0 -133 -94.5 -225t-257.5 -92q-169 0 -262.5 97.5t-93.5 242.5zM1153 311q0 -61 30 -98t85 -37q62 0 92.5 34t30.5 83q0 41 -27.5 66.5t-81.5 25.5q-74 0 -129 -59v-15z" />
<glyph unicode="&#x215a;" horiz-adv-x="1904" d="M74 700l129 146q35 -26 56.5 -40t66.5 -30t92 -16q59 0 100 27.5t41 82.5q0 88 -104 88q-80 0 -154 -49l-129 86l123 439h569l-35 -195h-366l-23 -100q36 8 82 8q134 0 206.5 -76t72.5 -188q0 -63 -23.5 -120.5t-68 -103.5t-115 -73t-156.5 -27q-205 0 -364 141zM410 0 l864 1434h250l-865 -1434h-249zM1065 326q0 113 43.5 214t119.5 174.5t185.5 116.5t235.5 43q49 0 91 -6.5t60 -13.5l17 -6l-82 -170q-33 6 -78 6q-99 0 -184.5 -42t-129.5 -130q68 45 164 45q120 0 193.5 -70t73.5 -184q0 -133 -95 -225t-258 -92q-169 0 -262.5 97.5 t-93.5 242.5zM1300 311q0 -61 30 -98t85 -37q62 0 92.5 34t30.5 83q0 41 -27 66.5t-81 25.5q-75 0 -130 -59v-15z" />
<glyph unicode="&#x215b;" horiz-adv-x="1785" d="M162 1292l268 142h223l-151 -861h-236l115 631l-148 -74zM260 0l864 1434h250l-864 -1434h-250zM907 219q0 163 223 260q-92 71 -92 168q0 99 86 163t242 64q147 0 226 -56.5t79 -147.5q0 -122 -160 -209q140 -81 140 -209q0 -121 -103.5 -193.5t-287.5 -72.5 q-171 0 -262 62t-91 171zM1147 246q0 -40 31 -62t88 -22q63 0 105 27t42 73q0 70 -100 119q-79 -26 -122.5 -56.5t-43.5 -78.5zM1264 623q0 -48 61 -78q55 17 86 37.5t31 54.5q0 31 -22.5 49.5t-57.5 18.5q-42 0 -70 -24t-28 -58z" />
<glyph unicode="&#x215c;" horiz-adv-x="1949" d="M70 700l114 144q86 -48 141 -68t115 -20q62 0 94.5 22.5t32.5 61.5q0 27 -16 44.5t-46 26.5t-62 12t-76 3h-35l33 196h41q81 0 137.5 18t56.5 60q0 24 -19.5 38.5t-50.5 14.5q-54 0 -120 -23.5t-113 -49.5l-76 159q33 20 52.5 30t70 33t109 34.5t120.5 11.5 q133 0 201 -57t68 -144q0 -132 -164 -211q57 -22 92 -75.5t35 -122.5q0 -39 -10 -76t-35 -74.5t-62.5 -65.5t-97.5 -45.5t-135 -17.5q-216 0 -395 141zM438 0l865 1434h249l-864 -1434h-250zM1077 219q0 163 223 260q-92 71 -92 168q0 99 86 163t242 64q147 0 226 -56.5 t79 -147.5q0 -122 -160 -209q140 -81 140 -209q0 -121 -103.5 -193.5t-287.5 -72.5q-171 0 -262 62t-91 171zM1317 246q0 -40 31 -62t88 -22q63 0 105 27t42 73q0 70 -100 119q-79 -26 -122.5 -56.5t-43.5 -78.5zM1434 623q0 -48 61 -78q55 17 86 37.5t31 54.5 q0 31 -22.5 49.5t-57.5 18.5q-42 0 -70 -24t-28 -58z" />
<glyph unicode="&#x215d;" horiz-adv-x="1939" d="M74 700l129 146q35 -26 56.5 -40t66.5 -30t92 -16q59 0 100 27.5t41 82.5q0 88 -104 88q-80 0 -154 -49l-129 86l123 439h569l-35 -195h-366l-23 -100q36 8 82 8q134 0 206.5 -76t72.5 -188q0 -63 -23.5 -120.5t-68 -103.5t-115 -73t-156.5 -27q-205 0 -364 141zM410 0 l864 1434h250l-865 -1434h-249zM1065 219q0 163 223 260q-92 71 -92 168q0 99 86 163t242 64q147 0 226 -56.5t79 -147.5q0 -122 -160 -209q139 -80 139 -209q0 -121 -103.5 -193.5t-287.5 -72.5q-171 0 -261.5 62t-90.5 171zM1305 246q0 -40 30.5 -62t87.5 -22q64 0 106 27 t42 73q0 69 -101 119q-78 -26 -121.5 -56.5t-43.5 -78.5zM1421 623q0 -48 62 -78q55 17 85.5 37t30.5 55q0 31 -22 49.5t-57 18.5q-42 0 -70.5 -24t-28.5 -58z" />
<glyph unicode="&#x215e;" horiz-adv-x="1744" d="M127 573q15 84 59 181.5t91.5 172.5t105.5 151t85.5 108t47.5 53h-348l33 195h614l-31 -183q-14 -15 -38 -41.5t-87.5 -106t-115 -157t-101 -181.5t-65.5 -192h-250zM223 0l864 1434h250l-864 -1434h-250zM874 219q0 48 18 89t51 72.5t70 54.5t85 44q-92 71 -92 168 q0 99 85.5 163t241.5 64q147 0 226 -56.5t79 -147.5q0 -123 -159 -209q139 -80 139 -209q0 -121 -103.5 -193.5t-287.5 -72.5q-171 0 -262 62t-91 171zM1114 246q0 -40 31 -62t88 -22q63 0 105 27t42 73q0 70 -100 119q-79 -26 -122.5 -56.5t-43.5 -78.5zM1231 623 q0 -48 61 -78q55 17 86 37.5t31 54.5q0 31 -22.5 49.5t-57.5 18.5q-42 0 -70 -24t-28 -58z" />
<glyph unicode="&#x2202;" horiz-adv-x="1277" d="M45 436q0 231 148 385t358 154q51 0 97 -10.5t78.5 -27t60.5 -37t45.5 -40.5t30 -36.5t17.5 -27.5l5 -10q-13 176 -111 279.5t-287 103.5q-41 0 -86 -4t-69 -8l-25 -4l8 258q84 23 201 23q163 0 293 -56t213 -155.5t126.5 -233t43.5 -291.5q0 -213 -75.5 -375.5 t-222 -254t-345.5 -91.5q-235 0 -369.5 123t-134.5 336zM397 430q0 -194 178 -194q65 0 115.5 25.5t79 67.5t43 90.5t14.5 100.5q0 90 -44 143.5t-140 53.5q-81 0 -138.5 -42.5t-82.5 -105.5t-25 -139z" />
<glyph unicode="&#x2206;" horiz-adv-x="1445" d="M-59 0l751 1434h365l243 -1434h-1359zM414 289h549l-138 790z" />
<glyph unicode="&#x220f;" horiz-adv-x="1409" d="M113 0l202 1153h-165l47 281h1294l-49 -281h-166l-203 -1153h-348l201 1153h-260l-203 -1153h-350z" />
<glyph unicode="&#x2211;" horiz-adv-x="1183" d="M-33 0l27 152l594 567l-395 563l26 152h1016l-51 -289h-525l297 -428l-413 -428h491l-51 -289h-1016z" />
<glyph unicode="&#x2212;" horiz-adv-x="1273" d="M135 557l45 252h979l-45 -252h-979z" />
<glyph unicode="&#x221a;" horiz-adv-x="1263" d="M14 696h342l93 -385l602 1123h366l-799 -1434h-399z" />
<glyph unicode="&#x221e;" horiz-adv-x="1755" d="M74 496q0 169 108 285t277 116q55 0 105 -13.5t87.5 -32t80 -54t70.5 -63.5t72 -75q63 53 97.5 81.5t84.5 64t87.5 52t84 28.5t95.5 12q153 0 240.5 -93t87.5 -245q0 -170 -108 -284.5t-283 -114.5q-65 0 -122 17.5t-108.5 54t-89.5 71.5t-90 92q-77 -65 -122 -100 t-102.5 -70.5t-110.5 -50t-114 -14.5q-153 0 -240 92.5t-87 243.5zM317 506q0 -62 36.5 -94.5t92.5 -32.5t115 33.5t162 119.5q-82 85 -134 115.5t-97 30.5q-75 0 -125 -48t-50 -124zM1001 522q78 -79 130.5 -111t103.5 -32q77 0 124.5 49.5t47.5 122.5q0 62 -36 94.5 t-93 32.5t-113.5 -33.5t-163.5 -122.5z" />
<glyph unicode="&#x222b;" horiz-adv-x="768" d="M-141 -293l32 189h37q43 0 76 19t51.5 39.5t35.5 69.5t22 71t16 82q1 6 2 9l188 1082q44 257 154 353.5t354 96.5h115l-33 -188h-37q-44 0 -78 -19t-53.5 -44t-35.5 -70t-23 -76.5t-16 -83.5l-191 -1079q-23 -132 -57.5 -216t-94.5 -138t-143.5 -75.5t-208.5 -21.5h-112z " />
<glyph unicode="&#x2248;" horiz-adv-x="1273" d="M111 412q73 138 150.5 208t180.5 70q54 0 109 -20.5t93 -45t85 -45t86 -20.5q38 0 71.5 24t82.5 97l157 -70q-73 -137 -151 -207.5t-180 -70.5q-54 0 -110 20.5t-94 45t-85 45t-86 20.5q-37 0 -70 -24t-82 -97zM178 803q73 137 151 207.5t181 70.5q54 0 109.5 -20.5 t93.5 -45t85 -45t87 -20.5q35 0 68.5 24.5t82.5 96.5l158 -70q-73 -137 -151 -207.5t-181 -70.5q-54 0 -109.5 20.5t-93.5 45t-85 45t-87 20.5q-35 0 -67.5 -24t-83.5 -97z" />
<glyph unicode="&#x2260;" horiz-adv-x="1275" d="M100 362l45 252h334l80 144h-389l45 250h481l158 284l209 -84l-111 -200h244l-45 -250h-336l-80 -144h391l-45 -252h-485l-156 -284l-209 84l111 200h-242z" />
<glyph unicode="&#x2264;" horiz-adv-x="1273" d="M25 0l36 215h979l-36 -215h-979zM137 631l35 196l1042 371l-51 -295l-596 -184l531 -191l-47 -266z" />
<glyph unicode="&#x2265;" horiz-adv-x="1273" d="M55 0l37 215h977l-37 -215h-977zM100 262l52 295l593 184l-526 189l45 268l914 -371l-33 -196z" />
<glyph unicode="&#x2318;" horiz-adv-x="1466" d="M49 369q0 127 89 208.5t218 81.5h140l20 115h-53q-120 0 -205.5 85.5t-85.5 205.5t85.5 205.5t205.5 85.5q116 0 202.5 -84t79.5 -217q0 -19 -4.5 -52t-5.5 -45h115l22 132q19 104 89.5 180.5t181.5 83.5q32 3 69 -4q101 -19 168.5 -99.5t67.5 -185.5q0 -127 -88.5 -209 t-218.5 -82h-137l-21 -115h53q120 0 204.5 -85t84.5 -205t-84.5 -204.5t-204.5 -84.5q-119 0 -204.5 85.5t-79.5 215.5q1 15 6 47t6 47h-115l-22 -131q-22 -119 -99 -191.5t-188 -72.5q-122 0 -206.5 84t-84.5 205zM233 369q0 -43 31.5 -74t75.5 -31q42 0 68.5 27.5 t33.5 66.5l21 117h-123q-44 0 -75.5 -31t-31.5 -75zM356 1065q0 -43 31.5 -75t75.5 -32h84q6 25 14 72q9 54 -15.5 97.5t-82.5 43.5q-44 0 -75.5 -31t-31.5 -75zM682 659h115l20 115h-115zM938 403q-10 -51 14.5 -95t83.5 -44q43 0 74 31t31 74q0 44 -31 75t-74 31h-86z M1036 958h123q43 0 74 32t31 75q0 44 -31 75t-74 31q-44 0 -70 -31.5t-32 -66.5z" />
<glyph unicode="&#x25ca;" horiz-adv-x="1157" d="M78 717l477 717h338l223 -717l-477 -717h-338zM391 668l109 -371l305 469l-111 371z" />
<glyph unicode="&#xe000;" horiz-adv-x="1075" d="M0 0v1075h1075v-1075h-1075z" />
<glyph unicode="&#xf6c3;" horiz-adv-x="282" d="M-86 -543l141 168h-106l45 262h239l-38 -290l-232 -220z" />
<glyph unicode="&#xf6df;" horiz-adv-x="706" d="M-35 70q0 177 95 284t237 107h10l17 92h159l-22 -127q40 -14 149 -70l-100 -153q-105 63 -172 63q-64 0 -103.5 -49t-39.5 -123q0 -112 88 -112q66 0 182 51l72 -170q-8 -3 -36.5 -13.5t-47 -17t-47.5 -15t-54 -14.5l-18 -110h-162l16 96q-102 10 -162.5 78.5 t-60.5 202.5z" />
<glyph unicode="&#xf6e0;" horiz-adv-x="704" d="M158 1165q0 177 94.5 284t236.5 107h11l16 93h160l-23 -127q43 -15 150 -70l-101 -154q-107 64 -172 64q-64 0 -103.5 -49t-39.5 -123q0 -113 88 -113q66 0 182 51l72 -170q-136 -48 -184 -59l-19 -111h-161l16 97q-102 10 -162.5 78t-60.5 202z" />
<glyph unicode="&#xf6e1;" horiz-adv-x="387" d="M-109 -451l127 144h-100l41 237h225l-32 -268l-215 -186z" />
<glyph unicode="&#xf6e2;" horiz-adv-x="389" d="M86 645l127 143h-100l41 238h225l-33 -268l-215 -187z" />
<glyph unicode="&#xf6e3;" horiz-adv-x="811" d="M-109 -180l121 157q69 -42 149.5 -73t143.5 -31q41 0 67.5 17.5t26.5 46.5q0 26 -32 42.5t-98.5 36t-104.5 37.5q-170 77 -170 236q0 117 84.5 196t240.5 82l21 111h162l-25 -129q107 -28 244 -103l-121 -155q-62 32 -135.5 57t-126.5 25q-39 0 -64.5 -16.5t-25.5 -47.5 q0 -25 30 -39t94 -32.5t109 -40.5q174 -79 174 -236q0 -116 -88 -197.5t-243 -85.5l-19 -108h-160l23 125q-147 35 -277 125z" />
<glyph unicode="&#xf6e4;" horiz-adv-x="813" d="M84 915l121 158q69 -42 149.5 -73t143.5 -31q41 0 67.5 17t26.5 46q0 26 -32 43t-99 36.5t-105 37.5q-170 77 -170 235q0 117 85 196.5t241 82.5l20 111h162l-22 -129q103 -28 241 -103l-120 -156q-61 32 -135.5 57t-127.5 25q-39 0 -64.5 -16t-25.5 -47q0 -25 30 -39.5 t94.5 -33t109.5 -40.5q174 -79 174 -235q0 -118 -88 -199t-242 -84l-18 -108h-162l20 125q-152 37 -274 124z" />
<glyph unicode="&#xf6e7;" horiz-adv-x="385" d="M-82 -307l41 237h225l-41 -237h-225z" />
<glyph unicode="&#xf6e8;" horiz-adv-x="387" d="M113 788l41 238h225l-41 -238h-225z" />
<glyph unicode="&#xf6e9;" horiz-adv-x="823" d="M133 1022q0 188 86.5 307t222.5 119q44 0 85 -15t59.5 -27.5t48.5 -37.5l12 66h227l-114 -646h-228l11 64q-109 -78 -213 -78q-85 0 -141 59.5t-56 188.5zM365 1044q0 -90 65 -90q61 0 143 74l33 174q-21 28 -50.5 46t-57.5 18q-60 0 -96.5 -65.5t-36.5 -156.5z" />
<glyph unicode="&#xf6ea;" horiz-adv-x="825" d="M123 788l158 895h227l-55 -313q105 78 209 78q39 0 73 -13.5t63.5 -41t46.5 -77.5t17 -116q0 -187 -86 -306.5t-221 -119.5q-103 0 -195 78l-10 -64h-227zM389 1016q54 -62 109 -62q60 0 95.5 66t35.5 156t-68 90q-59 0 -139 -68z" />
<glyph unicode="&#xf6eb;" horiz-adv-x="825" d="M133 1022q0 188 86.5 307t222.5 119q43 0 84 -15t60.5 -28t48.5 -37l55 315h228l-158 -895h-228l11 64q-109 -78 -213 -78q-85 0 -141 59.5t-56 188.5zM365 1044q0 -90 65 -90q61 0 143 74l31 176q-19 27 -48 44.5t-58 17.5q-60 0 -96.5 -65.5t-36.5 -156.5z" />
<glyph unicode="&#xf6ec;" horiz-adv-x="747" d="M131 1051q0 174 103 285.5t284 111.5q123 0 196.5 -53.5t73.5 -151.5q0 -51 -22 -88.5t-55.5 -59t-84 -34.5t-98 -17t-106.5 -4h-70q6 -54 30.5 -77t66.5 -23q75 0 229 70l63 -156q-200 -80 -338 -80q-272 0 -272 277zM358 1157h70q145 0 145 78q0 53 -67 53 q-57 0 -94.5 -35t-53.5 -96z" />
<glyph unicode="&#xf6ed;" horiz-adv-x="415" d="M123 788l115 646h227l-115 -646h-227zM244 1503l32 178h234l-31 -178h-235z" />
<glyph unicode="&#xf6ee;" horiz-adv-x="419" d="M125 788l158 895h227l-158 -895h-227z" />
<glyph unicode="&#xf6ef;" horiz-adv-x="1193" d="M123 788l115 646h227l-12 -70q101 84 196 84q137 0 166 -111q42 42 104.5 76.5t122.5 34.5q102 0 144.5 -60.5t23.5 -168.5l-75 -431h-226l70 398q10 37 2 61.5t-41 24.5q-57 0 -125 -68l-74 -416h-225l70 398q10 37 2 61.5t-41 24.5q-53 0 -123 -66l-74 -418h-227z" />
<glyph unicode="&#xf6f0;" horiz-adv-x="796" d="M131 1051q0 81 23 151.5t68 126t118.5 87.5t167.5 32q151 0 238.5 -73.5t87.5 -203.5q0 -82 -23 -152.5t-67.5 -125.5t-118.5 -87t-168 -32q-150 0 -238 73.5t-88 203.5zM358 1059q0 -57 22.5 -84t80.5 -27q49 0 84 39t48 85.5t13 90.5q0 57 -22 84t-80 27q-47 0 -82 -39 t-49.5 -86t-14.5 -90z" />
<glyph unicode="&#xf6f1;" horiz-adv-x="585" d="M123 788l115 646h227l-25 -134q12 21 29.5 42t48 47.5t77 41t99.5 11.5l-35 -215q-57 0 -106.5 -23.5t-78.5 -57t-50 -67t-29 -57.5l-8 -23l-37 -211h-227z" />
<glyph unicode="&#xf6f2;" horiz-adv-x="720" d="M100 881l93 135q143 -82 253 -82q26 0 43 9.5t17 27.5q0 11 -6.5 19t-21.5 13.5t-29.5 9.5t-40 10t-43.5 11q-38 11 -66 24t-59.5 35.5t-48.5 57.5t-17 80q0 93 72 155t203 62q162 0 321 -86l-92 -131q-125 59 -215 59q-28 0 -44 -10t-16 -27q0 -11 6 -18.5t20 -13 t27.5 -9t39.5 -10t45 -12.5q41 -14 68 -26.5t59.5 -35.5t49.5 -57.5t17 -79.5q0 -97 -75 -157t-211 -60q-98 0 -189.5 31.5t-159.5 75.5z" />
<glyph unicode="&#xf6f3;" horiz-adv-x="595" d="M147 1268l29 166h80l29 161l231 25l-33 -186h168l-28 -166h-170l-41 -240q-9 -57 30 -57q27 0 90 22l56 -172q-133 -47 -230 -47q-106 0 -150 71.5t-22 201.5l39 221h-78z" />
<glyph unicode="&#xf8ff;" horiz-adv-x="1845" d="M146.5 560.5q-2.5 11.5 15.5 21.5l57 41q2 1 3.5 2.5l3 3l2.5 2.5t2 3l1 1q19 16 37 -12l33 -64q6 -12 13.5 -15.5t14 2t9.5 17.5l18 70q4 19 18.5 21t26.5 -13l48 -53q14 -15 23 -11.5t11 23.5l4 70q3 20 15.5 25t27.5 -7l58 -43q17 -12 25.5 -6.5t4.5 25.5l-8 69 q-3 20 8.5 28t28.5 -1l64 -29q19 -9 26.5 -1.5t1.5 26.5l-22 67q-8 19 0.5 29t27.5 4l15 -2q40 -77 70 -202.5t30 -217.5q-15 -18 -34.5 -27.5t-59.5 -9.5h-8q0 46 -33 72q18 -21 18 -55v-15q-32 3 -32 39q0 43 -28 72t-77 29q-41 0 -68.5 -32t-27.5 -79q0 -60 49.5 -96.5 t138.5 -36.5q85 0 172 42t156.5 112t125 154.5t86 175.5t30.5 169q0 59 -36.5 98t-94.5 39q-48 0 -85.5 -33.5t-37.5 -84.5q0 -106 119 -119q-29 -119 -60 -174q-12 96 -43.5 178t-75.5 129q91 -120 107 -330l-29 -41q0 156 -51 287t-131 172q-5 9 2 18.5t22 12.5l70 12 q19 3 21 13.5t-15 21.5l-59 39q-15 13 -13.5 26.5t19.5 20.5l64 29q14 4 19 10t0 13t-19 13l-64 27q-23 10 -20 29q11 6 14 16l35 62q9 19 20.5 18t16.5 -20l20 -68q6 -21 18.5 -24t26.5 14l47 53q12 15 23 12.5t12 -22.5l4 -72q1 -21 14.5 -26t28.5 8l57 43q15 12 24 5.5 t7 -26.5l-10 -70q-1 -20 10.5 -27.5t28.5 1.5l63 33q19 8 26.5 0t0.5 -29l-23 -64q-6 -20 3 -30t28 -4l70 14q20 6 26.5 -2t-4.5 -27l-37 -59q-12 -17 -5.5 -29.5t26.5 -11.5l72 4q21 0 25 -11t-9 -24l-49 -53q-14 -13 -10.5 -26.5t24.5 -16.5l70 -12q43 -10 6 -39l-57 -39 q-16 -10 -15 -24t21 -21l63 -27q12 -5 16.5 -12t0 -13.5t-16.5 -11.5l-63 -26q-20 -7 -21 -22t15 -25l57 -41q11 -7 14.5 -14.5t-2 -13.5t-18.5 -9l-70 -13q-21 -3 -24.5 -16.5t10.5 -28.5l49 -49q13 -14 9 -24.5t-25 -10.5l-72 5q-20 0 -26.5 -12t5.5 -29l37 -62 q10 -17 4 -25.5t-26 -5.5l-70 19q-19 4 -28 -6t-3 -29l23 -68q8 -19 0 -26t-27 2l-63 31q-17 9 -28.5 1t-10.5 -30l10 -68q1 -21 -7.5 -25.5t-23.5 7.5l-57 43q-15 12 -28.5 5.5t-14.5 -26.5l-4 -69q-1 -20 -12 -23t-23 11l-47 55q-13 14 -26 12t-19 -22l-20 -68 q-3 -13 -9.5 -18t-14 -1t-13.5 15l-35 61q-9 19 -22 19t-25 -19l-31 -61q-6 -11 -13.5 -15t-14 1t-9.5 18l-20 68q-6 20 -19 22t-26 -12l-47 -55q-12 -14 -22 -11t-13 23l-4 69q-2 20 -15 26.5t-30 -5.5l-54 -43q-17 -13 -26.5 -8t-5.5 26l10 68q1 22 -10.5 30t-30.5 -1 l-62 -31q-19 -9 -26.5 -2t0.5 26l22 68q7 19 -2 29.5t-28 5.5l-70 -19q-20 -3 -26.5 5.5t3.5 25.5l39 62q11 17 4.5 29t-26.5 12l-72 -5q-21 0 -25 10.5t9 24.5l51 49q13 15 9 28.5t-25 16.5l-68 13q-21 4 -23.5 15.5zM623 281q43 -27 122 -27q106 0 212.5 65t183.5 162 t125.5 212t48.5 214q0 63 -41 101q24 -38 24 -84q0 -100 -47.5 -215t-126.5 -215q-85 -105 -188.5 -168.5t-212.5 -63.5q-57 0 -100 19z" />
<glyph unicode="&#xfb06;" horiz-adv-x="1875" d="M-35 147l154 220q87 -52 198 -93t189 -41q52 0 78 19.5t26 48.5q0 16 -9 29t-21.5 22t-36.5 19t-44 16t-55.5 16.5t-58.5 18.5q-48 16 -84 31t-79 42t-70 59t-45.5 80.5t-18.5 106.5q0 155 114 256t318 101q104 0 252 -37q-6 20 -6 67q0 156 117.5 260.5t330.5 104.5 q143 0 245 -45.5t149.5 -137.5t23.5 -218l-4 -17h268l-45 -246h-266l-80 -460q-9 -58 7.5 -78.5t48.5 -20.5q46 0 143 41l80 -258q-199 -76 -350 -76q-162 0 -228.5 109t-29.5 313l75 430h-135l43 246h135l6 37q23 117 -10 175.5t-135 58.5q-104 0 -174 -66t-70 -174 q0 -58 21 -102q37 -17 84 -43l-152 -216q-78 39 -169.5 69t-159.5 30q-50 0 -76.5 -18.5t-26.5 -47.5q0 -16 8 -29t19.5 -21.5t35 -17.5t42.5 -14.5t54 -15.5t60 -18q48 -16 86 -32t81 -44t71.5 -61t47.5 -82.5t19 -108.5q0 -159 -120.5 -258t-331.5 -99q-153 0 -294.5 50 t-244.5 120z" />
<glyph horiz-adv-x="823" d="M94 586l82 170q33 -6 78 -6q101 0 186 41.5t129 130.5q-63 -48 -166 -48q-120 0 -192 70t-72 186q0 134 94.5 226t258.5 92q167 0 260.5 -98t93.5 -242q0 -113 -43 -214t-119 -175t-185.5 -117t-236.5 -43q-49 0 -91 6.5t-59 13.5zM373 1141q0 -42 26.5 -67t81.5 -25 q75 0 131 61v12q0 59 -30.5 97t-85.5 38q-61 0 -92 -34t-31 -82z" />
<glyph horiz-adv-x="1159" d="M-102 0l481 596l-256 580h350l121 -375l248 375h393l-461 -580l273 -596h-355l-131 373l-256 -373h-407z" />
<glyph horiz-adv-x="1540" d="M-197 -217q61 21 98.5 35.5t68.5 35t46 36.5t28.5 49.5t19.5 62.5t16 86l131 741h-131l43 246h131l4 25q17 102 43 172.5t67.5 121.5t102.5 75t145 24q179 0 379 -113l-151 -215q-103 39 -158 39q-71 0 -90 -100l-6 -29h239l-47 -246h-235l-125 -714q-36 -201 -62 -273 q-44 -121 -143 -187q-108 -73 -346 -126zM573 -217q61 21 98.5 35.5t68.5 35t46 36.5t29 49.5t20.5 62.5t16.5 86l131 741h-133l43 246h133l4 25q17 102 42.5 172.5t67.5 121.5t102 75t142 24q73 0 161 -29t147 -61l-117 -225q-71 26 -119 26q-69 0 -88 -100l-6 -29h237 l-47 -246h-233l-127 -714q-13 -75 -20 -111t-20.5 -93t-26 -83.5t-34.5 -67.5t-48.5 -61.5t-64.5 -49t-86.5 -46.5t-110.5 -37.5t-140 -36.5z" />
<glyph horiz-adv-x="1472" d="M-197 -217q46 15 77.5 27t59.5 26.5t44.5 25t32 30t23.5 33.5t16.5 43.5t13 52.5t12.5 67l131 741h-131l43 246h131l2 4q36 205 122.5 299.5t252.5 94.5q194 0 428 -95q83 115 258 115q179 0 379 -113l-152 -215q-92 39 -155 39q-74 0 -91 -100l-6 -29h236l-45 -246h-234 l-127 -714q-13 -76 -20 -111t-21 -92.5t-27 -83.5t-34.5 -67.5t-48.5 -62t-64.5 -49t-86 -46.5t-110 -37.5t-139.5 -36.5l-67 254q61 21 98.5 35.5t68.5 35t46 36.5t28.5 49.5t20 62t16.5 86.5l131 741h-364l-127 -714q-36 -201 -62 -273q-44 -121 -143 -187 q-108 -73 -346 -126zM594 1075h364l13 68q-184 41 -271 41q-36 0 -65 -23.5t-39 -77.5z" />
<glyph horiz-adv-x="2691" d="M-197 -217q46 15 77.5 27t59.5 26.5t44.5 25t32 30t23.5 33.5t16.5 43.5t13 52.5t12.5 67l131 741h-131l43 246h131l2 4q36 205 122.5 299.5t252.5 94.5q193 0 432 -97q91 117 270 117q167 0 385 -78l15 78h336l-95 -530q173 135 340 135q62 0 115.5 -21t98.5 -65.5 t71.5 -124t26.5 -185.5q0 -211 -62 -376t-173.5 -257t-254.5 -92q-54 0 -101.5 12t-89.5 37.5t-63 41.5t-57 47l-21 -115h-336l205 1161q-181 43 -272 43q-37 0 -67 -23.5t-40 -76.5l-6 -29h240l-45 -246h-238l-125 -714q-12 -68 -18 -100.5t-18.5 -86t-22.5 -77.5 t-28 -64.5t-38 -59.5t-49.5 -48t-65 -45t-82.5 -37t-103.5 -36.5t-127.5 -31.5l-67 254q61 21 98.5 35.5t68.5 35t46 36.5t28.5 49.5t20 62t16.5 86.5l131 741h-360l-127 -714q-36 -201 -62 -273q-44 -121 -143 -187q-108 -73 -346 -126zM594 1075h360l13 68 q-184 41 -267 41q-36 0 -65 -23.5t-39 -77.5zM1870 365q87 -117 186 -117q70 0 123.5 59.5t80 153t26.5 201.5q0 79 -33 123t-90 44q-60 0 -114.5 -34t-119.5 -95z" />
<glyph horiz-adv-x="2686" d="M-197 -217q46 15 77.5 27t59.5 26.5t44.5 25t32 30t23.5 33.5t16.5 43.5t13 52.5t12.5 67l131 741h-131l43 246h131l2 4q36 205 122.5 299.5t252.5 94.5q193 0 432 -97q91 117 270 117q167 0 385 -78l15 78h336l-97 -537q200 142 363 142q166 0 233.5 -103.5t34.5 -281.5 l-125 -713h-338l119 678q17 69 0 114.5t-76 45.5q-55 0 -125.5 -37t-128.5 -88l-125 -713h-336l205 1161q-181 43 -272 43q-37 0 -67 -23.5t-40 -76.5l-6 -29h240l-45 -246h-238l-125 -714q-12 -68 -18 -100.5t-18.5 -86t-22.5 -77.5t-28 -64.5t-38 -59.5t-49.5 -48t-65 -45 t-82.5 -37t-103.5 -36.5t-127.5 -31.5l-67 254q61 21 98.5 35.5t68.5 35t46 36.5t28.5 49.5t20 62t16.5 86.5l131 741h-360l-127 -714q-36 -201 -62 -273q-44 -121 -143 -187q-108 -73 -346 -126zM594 1075h360l13 68q-184 41 -267 41q-36 0 -65 -23.5t-39 -77.5z" />
<glyph horiz-adv-x="1959" d="M-197 -217q46 15 77.5 27t59.5 26.5t44.5 25t32 30t23.5 33.5t16.5 43.5t13 52.5t12.5 67l131 741h-131l43 246h131l2 4q36 205 122.5 299.5t252.5 94.5q195 0 434 -97q95 117 283 117q120 0 263.5 -35t252.5 -78l-135 -217q-185 41 -312 41q-41 0 -77.5 -23.5 t-45.5 -76.5l-6 -29h645l-190 -1075h-338l145 829h-305l-125 -714q-12 -68 -18 -100.5t-18.5 -86t-22.5 -77.5t-28 -64.5t-38 -59.5t-49.5 -48t-65 -45t-82.5 -37t-103.5 -36.5t-127.5 -31.5l-67 254q61 21 98.5 35.5t68.5 35t46 36.5t28.5 49.5t20 62t16.5 86.5l131 741 h-360l-127 -714q-36 -201 -62 -273q-44 -121 -143 -187q-108 -73 -346 -126zM594 1075h360l13 68q-184 41 -267 41q-36 0 -65 -23.5t-39 -77.5z" />
<glyph horiz-adv-x="1961" d="M-197 -217q46 15 77.5 27t59.5 26.5t44.5 25t32 30t23.5 33.5t16.5 43.5t13 52.5t12.5 67l131 741h-131l43 246h131l2 4q36 205 122.5 299.5t252.5 94.5q195 0 434 -97q95 117 283 117q120 0 263.5 -35t252.5 -78l-135 -217q-185 41 -312 41q-41 0 -77.5 -23.5 t-45.5 -76.5l-6 -29h645l-182 -1026q-12 -70 -19 -103t-21.5 -85.5t-30 -77.5t-43.5 -63t-64 -58.5t-87.5 -47t-119 -46t-154.5 -39.5l-69 254q60 20 98.5 35t68 32.5t44.5 30.5t27 37t16.5 44t11.5 58l143 809h-307l-125 -714q-12 -68 -18 -100.5t-18.5 -86t-22.5 -77.5 t-28 -64.5t-38 -59.5t-49.5 -48t-65 -45t-82.5 -37t-103.5 -36.5t-127.5 -31.5l-67 254q61 21 98.5 35.5t68.5 35t46 36.5t28.5 49.5t20 62t16.5 86.5l131 741h-360l-127 -714q-36 -201 -62 -273q-44 -121 -143 -187q-108 -73 -346 -126zM594 1075h360l13 68 q-184 41 -267 41q-36 0 -65 -23.5t-39 -77.5z" />
<glyph horiz-adv-x="2600" d="M-197 -217q46 15 77.5 27t59.5 26.5t44.5 25t32 30t23.5 33.5t16.5 43.5t13 52.5t12.5 67l131 741h-131l43 246h131l2 4q36 205 122.5 299.5t252.5 94.5q193 0 432 -97q91 117 270 117q165 0 383 -78l15 78h338l-138 -764l295 346h418l-428 -440l293 -635h-340l-176 408 l-144 -150l-45 -258h-336l205 1161q-181 43 -272 43q-37 0 -67 -23.5t-40 -76.5l-6 -29h240l-45 -246h-238l-125 -714q-12 -68 -18 -100.5t-18.5 -86t-22.5 -77.5t-28 -64.5t-38 -59.5t-49.5 -48t-65 -45t-82.5 -37t-103.5 -36.5t-127.5 -31.5l-67 254q61 21 98.5 35.5 t68.5 35t46 36.5t28.5 49.5t20 62t16.5 86.5l131 741h-360l-127 -714q-36 -201 -62 -273q-44 -121 -143 -187q-108 -73 -346 -126zM594 1075h360l13 68q-184 41 -267 41q-36 0 -65 -23.5t-39 -77.5z" />
<glyph horiz-adv-x="770" d="M-197 -217q61 21 98.5 35.5t68.5 35t46 36.5t29 49.5t20.5 62.5t16.5 86l131 741h-133l43 246h133l4 25q17 102 42.5 172.5t67.5 121.5t102 75t142 24q73 0 161 -29t147 -61l-117 -225q-71 26 -119 26q-69 0 -88 -100l-6 -29h237l-47 -246h-233l-127 -714 q-13 -75 -20 -111t-20.5 -93t-26 -83.5t-34.5 -67.5t-48.5 -61.5t-64.5 -49t-86.5 -46.5t-110.5 -37.5t-140 -36.5z" />
<glyph horiz-adv-x="2035" d="M-197 -217q46 15 77.5 27t59.5 26.5t44.5 25t32 30t23.5 33.5t16.5 43.5t13 52.5t12.5 67l131 741h-131l43 246h131l2 4q36 205 122.5 299.5t252.5 94.5q193 0 432 -97q91 117 270 117q167 0 385 -78l15 78h336l-265 -1493h-336l205 1161q-181 43 -272 43 q-37 0 -67 -23.5t-40 -76.5l-6 -29h240l-45 -246h-238l-125 -714q-12 -68 -18 -100.5t-18.5 -86t-22.5 -77.5t-28 -64.5t-38 -59.5t-49.5 -48t-65 -45t-82.5 -37t-103.5 -36.5t-127.5 -31.5l-67 254q61 21 98.5 35.5t68.5 35t46 36.5t28.5 49.5t20 62t16.5 86.5l131 741 h-360l-127 -714q-36 -201 -62 -273q-44 -121 -143 -187q-108 -73 -346 -126zM594 1075h360l13 68q-184 41 -267 41q-36 0 -65 -23.5t-39 -77.5z" />
<glyph horiz-adv-x="2258" d="M-197 -217q46 15 77.5 27t59.5 26.5t44.5 25t32 30t23.5 33.5t16.5 43.5t13 52.5t12.5 67l131 741h-131l43 246h131l2 4q36 205 122.5 299.5t252.5 94.5q192 0 426 -95q83 115 256 115q179 0 379 -113l-152 -215q-97 39 -158 39q-71 0 -90 -100l-6 -29h389l49 271l342 40 l-55 -311h266l-43 -246h-266l-80 -460q-11 -58 5.5 -78.5t48.5 -20.5q39 0 147 41l76 -258q-199 -76 -348 -76q-162 0 -228.5 108.5t-31.5 313.5l75 430h-389l-125 -714q-12 -68 -18 -100.5t-18.5 -86t-22.5 -77.5t-28 -64.5t-38 -59.5t-49.5 -48t-65 -45t-82.5 -37 t-103.5 -36.5t-127.5 -31.5l-65 254q61 21 98.5 35.5t68.5 35t46 36.5t28.5 49.5t20 62t16.5 86.5l131 741h-360l-127 -714q-36 -201 -62 -273q-44 -121 -143 -187q-108 -73 -346 -126zM594 1075h362l13 68q-185 41 -269 41q-36 0 -65 -23.5t-39 -77.5z" />
<glyph horiz-adv-x="1986" d="M-197 -217q61 21 98.5 35.5t68.5 35t46 36.5t29 49.5t20.5 62.5t16.5 86l131 741h-133l43 246h133l4 25q38 205 123 299t250 94q173 0 385 -78l14 78h336l-96 -537q207 142 364 142q166 0 234.5 -103.5t36.5 -281.5l-127 -713h-338l121 678q13 76 -3 118t-75 42 q-56 0 -125.5 -36.5t-130.5 -88.5l-125 -713h-336l205 1161q-187 43 -271 43q-36 0 -65 -23t-39 -77l-6 -29h237l-47 -246h-233l-127 -714q-13 -75 -20 -111t-20.5 -93t-26 -83.5t-34.5 -67.5t-48.5 -61.5t-64.5 -49t-86.5 -46.5t-110.5 -37.5t-140 -36.5z" />
<glyph horiz-adv-x="1245" d="M77.5 366.5q0.5 79.5 18.5 180.5l111 629h321l-122 -703q-11 -46 -8.5 -86t16 -69.5t50 -46.5t93.5 -17q108 0 160 58t69 161l125 703h320l-125 -715q-13 -70 -31 -127.5t-47 -113.5t-71 -97.5t-99 -74.5t-135 -49.5t-174 -16.5q-133 0 -227 29.5t-146 78t-75.5 123 t-23 154zM446 1518h201q-5 -40 22 -62t79 -22q67 0 110 22.5t49 61.5h201q-20 -124 -116.5 -193.5t-250.5 -69.5q-157 0 -235 73t-60 190z" />
<glyph horiz-adv-x="1261" d="M-197 -217q61 21 98.5 35.5t68.5 35t46 36.5t29 49.5t20.5 62.5t16.5 86l131 741h-133l43 246h135l4 25q36 205 125 299t262 94q121 0 262.5 -35t251.5 -78l-133 -217q-184 41 -311 41q-40 0 -73.5 -23.5t-43.5 -76.5l-6 -29h641l-193 -1075h-335l145 829h-301l-129 -714 q-12 -68 -18 -100.5t-18.5 -86t-22.5 -77.5t-28 -64.5t-38 -59.5t-49.5 -48t-65 -45t-82.5 -37t-103.5 -36.5t-127.5 -31.5z" />
<glyph horiz-adv-x="1261" d="M-197 -217q61 21 98.5 35.5t68.5 35t46 36.5t29 49.5t20.5 62.5t16.5 86l131 741h-133l43 246h135l4 25q36 205 125 299t262 94q121 0 262.5 -35t251.5 -78l-133 -217q-184 41 -311 41q-40 0 -73.5 -23.5t-43.5 -76.5l-6 -29h639l-182 -1026q-12 -70 -19 -103 t-21.5 -85.5t-30 -77.5t-43.5 -63t-64 -58.5t-87.5 -47t-119 -46t-154.5 -39.5l-70 254q60 20 99 35t68.5 32.5t45 30.5t27.5 37t17 43.5t12 58.5l143 809h-303l-129 -714q-12 -68 -18 -100.5t-18.5 -86t-22.5 -77.5t-28 -64.5t-38 -59.5t-49.5 -48t-65 -45t-82.5 -37 t-103.5 -36.5t-127.5 -31.5z" />
<glyph horiz-adv-x="1898" d="M-197 -217q61 21 98.5 35.5t68.5 35t46 36.5t29 49.5t20.5 62.5t16.5 86l131 741h-133l43 246h133l4 25q36 205 122 299t251 94q173 0 385 -78l14 78h336l-135 -764l295 346h418l-428 -440l292 -635h-342l-174 408l-143 -150l-45 -258h-336l205 1161q-187 43 -273 43 q-36 0 -65 -23t-39 -77l-6 -29h237l-47 -246h-233l-127 -714q-13 -75 -20 -111t-20.5 -93t-26 -83.5t-34.5 -67.5t-48.5 -61.5t-64.5 -49t-86.5 -46.5t-110.5 -37.5t-140 -36.5z" />
<glyph horiz-adv-x="442" d="M139 788l37 216h225l-36 -216h-226zM236 1079l30 570h275l-170 -570h-135z" />
<glyph horiz-adv-x="1333" d="M-197 -217q61 21 98.5 35.5t68.5 35t46 36.5t29 49.5t20.5 62.5t16.5 86l131 741h-133l43 246h133l4 25q38 205 123 299t250 94q173 0 385 -78l14 78h336l-264 -1493h-336l205 1161q-187 43 -271 43q-36 0 -65 -23t-39 -77l-6 -29h237l-47 -246h-233l-127 -714 q-13 -75 -20 -111t-20.5 -93t-26 -83.5t-34.5 -67.5t-48.5 -61.5t-64.5 -49t-86.5 -46.5t-110.5 -37.5t-140 -36.5z" />
<glyph horiz-adv-x="1560" d="M-197 -217q61 21 98.5 35.5t68.5 35t46 36.5t29 49.5t20.5 62.5t16.5 86l131 741h-133l43 246h133l4 25q34 205 113.5 299t242.5 94q179 0 379 -113l-151 -215q-103 39 -158 39q-69 0 -88 -100l-6 -29h389l49 271l342 40l-55 -311h266l-45 -246h-264l-82 -460 q-9 -58 7 -78.5t48 -20.5q34 0 148 41l73 -258q-199 -76 -348 -76q-164 0 -229.5 108.5t-28.5 313.5l76 430h-389l-127 -714q-13 -75 -20 -111t-20.5 -93t-26 -83.5t-34.5 -67.5t-48.5 -61.5t-64.5 -49t-86.5 -46.5t-110.5 -37.5t-140 -36.5z" />
<glyph horiz-adv-x="595" d="M-197 -420q107 35 134.5 63.5t42.5 116.5l73 412h-84l29 166h84q21 130 72 190t159 60q110 0 246 -72l-102 -145q-60 24 -92 24q-45 0 -56 -57h144l-27 -166h-147l-70 -395q-26 -141 -49 -190q-36 -78 -126 -121q-66 -32 -184 -58z" />
<glyph horiz-adv-x="1245" d="M77.5 366.5q0.5 79.5 18.5 180.5l111 629h321l-122 -703q-11 -46 -8.5 -86t16 -69.5t50 -46.5t93.5 -17q108 0 160 58t69 161l125 703h320l-125 -715q-13 -70 -31 -127.5t-47 -113.5t-71 -97.5t-99 -74.5t-135 -49.5t-174 -16.5q-133 0 -227 29.5t-146 78t-75.5 123 t-23 154zM508 1255l285 287h383l-377 -287h-291z" />
<glyph horiz-adv-x="794" d="M-47 127l129 145q35 -26 56.5 -40t66.5 -30t92 -16q59 0 100 28t41 83q0 88 -104 88q-80 0 -154 -49l-129 86l123 438h569l-34 -194h-367l-23 -101q36 8 82 8q134 0 206.5 -76t72.5 -188q0 -133 -96.5 -228t-266.5 -95q-205 0 -364 141z" />
<glyph horiz-adv-x="792" d="M53 700l129 146q35 -26 56.5 -40t66.5 -30t92 -16q60 0 101 27.5t41 82.5q0 88 -105 88q-79 0 -153 -49l-129 86l122 439h570l-35 -195h-367l-22 -100q36 8 82 8q134 0 206 -76t72 -188q0 -63 -23.5 -120.5t-67.5 -103.5t-114.5 -73t-156.5 -27q-206 0 -365 141z" />
<glyph horiz-adv-x="1183" d="M-84 -61l197 219q177 -140 329 -140q104 0 178 59t74 159q0 76 -46.5 124t-137.5 48q-62 0 -117 -21.5t-125 -62.5l-190 127l198 725h885l-51 -289h-582l-49 -213q79 14 139 14q107 0 191.5 -34.5t137 -94.5t79.5 -137.5t27 -167.5q0 -104 -38 -199.5t-109 -170.5 t-182.5 -120t-248.5 -45q-303 0 -559 220z" />
<glyph horiz-adv-x="1335" d="M37 197l196 219q177 -140 330 -140q104 0 178 59t74 159q0 76 -46.5 124t-137.5 48q-62 0 -117 -21.5t-125 -62.5l-190 127l198 725h885l-51 -289h-582l-49 -213q79 14 139 14q107 0 191.5 -34.5t137 -94.5t79.5 -137.5t27 -167.5q0 -104 -38 -199.5t-109 -170.5 t-182.5 -120t-248.5 -45q-303 0 -559 220z" />
<glyph horiz-adv-x="440" d="M-53 -307l37 215h225l-37 -215h-225zM43 -16l31 569h274l-170 -569h-135z" />
<glyph horiz-adv-x="1665" d="M51 571l101 115q96 -68 188 -68q57 0 96 23.5t39 71.5q0 36 -26 55.5t-72 19.5q-71 0 -137 -38l-105 67l103 359h481l-25 -156h-323l-21 -90q33 8 76 8q116 0 178 -62.5t62 -156.5q0 -107 -82.5 -183.5t-225.5 -76.5q-165 0 -307 112zM344 0l741 1176h203l-743 -1176 h-201zM901 180q0 132 193 213q-84 59 -84 139q0 81 74.5 133t205.5 52q122 0 190 -47t68 -121q0 -99 -139 -172q121 -66 121 -174q0 -95 -88.5 -155t-239.5 -60q-144 0 -222.5 51.5t-78.5 140.5zM1090 201q0 -35 29.5 -53.5t82.5 -18.5q59 0 100 23t41 61q0 57 -96 102 q-50 -16 -78 -27.5t-53.5 -34.5t-25.5 -52zM1190 512q0 -43 63 -70q54 16 83.5 34t29.5 46q0 29 -22 44.5t-58 15.5q-43 0 -69.5 -20t-26.5 -50z" />
<glyph horiz-adv-x="440" d="M113 788l170 570h135l-31 -570h-274zM252 1434l37 215h225l-37 -215h-225z" />
<glyph horiz-adv-x="1634" d="M51 571l103 115q91 -68 186 -68q58 0 96.5 23.5t38.5 71.5q0 75 -98 75q-71 0 -137 -38l-105 67l103 359h481l-23 -156h-325l-21 -90q33 8 76 8q117 0 179.5 -62.5t62.5 -156.5q0 -106 -83 -183t-227 -77q-165 0 -307 112zM344 0l741 1176h201l-745 -1176h-197zM897 268 q0 190 140 319.5t356 129.5q40 0 74.5 -5.5t49.5 -10.5l15 -5l-64 -135q-30 6 -67 6q-93 0 -168.5 -37t-114.5 -114q64 41 150 41q105 0 168 -57.5t63 -153.5q0 -108 -80 -183t-219 -75q-144 0 -223.5 80t-79.5 200zM1083 258q0 -50 28.5 -84.5t80.5 -34.5q58 0 89.5 29.5 t31.5 71.5q0 36 -26 57.5t-79 21.5q-74 0 -125 -55v-6z" />
<glyph horiz-adv-x="440" d="M-80 -307l170 569h135l-30 -569h-275zM59 338l37 215h226l-37 -215h-226z" />
<glyph horiz-adv-x="1245" d="M77.5 366.5q0.5 79.5 18.5 180.5l111 629h321l-122 -703q-11 -46 -8.5 -86t16 -69.5t50 -46.5t93.5 -17q108 0 160 58t69 161l125 703h320l-125 -715q-13 -70 -31 -127.5t-47 -113.5t-71 -97.5t-99 -74.5t-135 -49.5t-174 -16.5q-133 0 -227 29.5t-146 78t-75.5 123 t-23 154z" />
<glyph horiz-adv-x="745" d="M170 1450l35 199h700l-35 -199h-231l-117 -662h-235l114 662h-231z" />
<glyph horiz-adv-x="870" d="M-51 150l28 161l457 549h314l-93 -516h125l-35 -194h-124l-27 -150h-236l27 150h-436zM229 344h191l53 297z" />
<glyph horiz-adv-x="870" d="M49 723l29 162l457 549h313l-92 -516h125l-35 -195h-125l-27 -150h-235l26 150h-436zM330 918h190l53 296z" />
<glyph horiz-adv-x="1318" d="M-74 4l45 242l742 930h467l-158 -883h201l-52 -289h-200l-45 -262h-348l45 262h-697zM338 293h336l96 545z" />
<glyph horiz-adv-x="1335" d="M-2 262l43 242l741 930h445l-156 -883h182l-51 -289h-182l-45 -262h-342l45 262h-680zM408 551h321l92 520z" />
<glyph horiz-adv-x="1759" d="M53 596l21 127l399 453h250l-76 -428h109l-25 -152h-110l-21 -125h-188l20 125h-379zM281 748h178l47 262zM436 0l744 1176h200l-745 -1176h-199zM999 102l103 115q94 -70 186 -70q56 0 95.5 24.5t39.5 70.5q0 77 -98 77q-63 0 -137 -40l-103 69l101 357h479l-23 -154 h-323l-23 -92q50 8 80 8q115 0 176.5 -62.5t61.5 -154.5q0 -107 -82 -184.5t-225 -77.5q-171 0 -308 114z" />
<glyph horiz-adv-x="555" d="M-23 0l234 776h184l-41 -776h-377zM168 879l51 297h307l-49 -297h-309z" />
<glyph horiz-adv-x="1245" d="M77.5 366.5q0.5 79.5 18.5 180.5l111 629h321l-122 -703q-11 -46 -8.5 -86t16 -69.5t50 -46.5t93.5 -17q108 0 160 58t69 161l125 703h320l-125 -715q-13 -70 -31 -127.5t-47 -113.5t-71 -97.5t-99 -74.5t-135 -49.5t-174 -16.5q-133 0 -227 29.5t-146 78t-75.5 123 t-23 154zM371 1255l256 287h311l154 -287h-211l-111 144l-158 -144h-241z" />
<glyph horiz-adv-x="552" d="M16 0l50 297h309l-51 -297h-308zM147 399l41 777h377l-233 -777h-185z" />
<glyph horiz-adv-x="1243" d="M-2 203l33 194h133l182 1037h977l-51 -295h-627l-49 -279h494l-52 -289h-493l-31 -174h336l-35 -194h-336l-35 -203h-350l35 203h-131z" />
<glyph horiz-adv-x="1112" d="M-12 154l28 174h117l150 848h862l-47 -273h-541l-31 -184h422l-45 -264h-426l-22 -127h290l-30 -174h-291l-27 -154h-321l26 154h-114z" />
<glyph horiz-adv-x="800" d="M-90 -195l22 127h84l111 621h625l-35 -199h-391l-23 -135h305l-35 -194h-305l-16 -93h213l-23 -127h-213l-18 -112h-236l21 112h-86z" />
<glyph horiz-adv-x="800" d="M102 901l23 127h84l110 621h625l-35 -199h-391l-22 -135h305l-35 -195h-305l-17 -92h213l-22 -127h-213l-19 -113h-235l18 113h-84z" />
<glyph horiz-adv-x="559" d="M31 676q107 35 134 63.5t42 116.5l74 412h-84l28 166h84q21 129 72.5 189t159.5 60q111 0 245 -71l-102 -146q-63 25 -92 25q-44 0 -55 -57h143l-27 -166h-147l-70 -396q-26 -140 -48 -189q-36 -78 -124 -121q-67 -32 -186 -58z" />
<glyph horiz-adv-x="745" d="M-23 354l35 199h701l-35 -199h-232l-116 -661h-236l115 661h-232z" />
<glyph horiz-adv-x="1177" d="M14 0l207 1176h322l-31 -177h139q482 0 482 -352q0 -55 -14 -111t-49 -115t-87 -104t-135 -73.5t-186 -28.5h-287l-39 -215h-322zM420 477h180q100 0 151.5 44t51.5 114q0 56 -42.5 78t-117.5 22h-176z" />
<glyph horiz-adv-x="1021" d="M80 903l47 273h963l-50 -273h-319l-160 -903h-88q43 -75 43 -158q0 -111 -71.5 -168t-180.5 -57q-112 0 -180 47l90 160q43 -23 88 -23q94 0 94 88q0 55 -28 111h-88l159 903h-319z" />
<glyph horiz-adv-x="1021" d="M80 903l47 273h963l-50 -273h-319l-160 -903h-321l159 903h-319zM309 1542h211l111 -145l157 145h242l-256 -287h-311z" />
<glyph horiz-adv-x="1036" d="M86 903l47 273h963l-49 -273h-320l-70 -389h144l-31 -174h-143l-60 -340h-321l59 340h-139l31 174h139l70 389h-320z" />
<glyph horiz-adv-x="894" d="M-88 -307l100 561q13 75 38 131.5t69 105.5t118 75t175 26q89 0 156 -20.5t104 -54.5t55 -72.5t18 -79.5q0 -27 -7.5 -52.5t-17.5 -42t-20.5 -29.5t-17.5 -19l-8 -5q-1 0 -14 -3t-20.5 -5t-22 -6.5t-23.5 -9.5t-19 -12t-15 -16.5t-5 -19.5q0 -20 18.5 -33.5t53 -33 t57.5 -41.5q68 -60 68 -141q0 -93 -77 -155.5t-196 -62.5q-135 0 -274 82l94 136q105 -50 162 -50q59 0 59 39q0 15 -9.5 24.5t-31.5 20.5q-25 12 -33 16t-35.5 22t-40.5 35t-25.5 47t-12.5 65q0 42 16.5 77t47 59.5t60.5 41t70 31.5q2 8 2 20q0 35 -29 55.5t-87 20.5 q-75 0 -116.5 -42.5t-59.5 -144.5l-97 -540h-227z" />
<glyph horiz-adv-x="937" d="M117 788l100 562q13 75 37.5 131.5t69 105.5t118 75t174.5 26q89 0 156 -20.5t104.5 -55t55.5 -73t18 -79.5q0 -44 -18 -80.5t-36 -51.5l-17 -15q-1 0 -14 -3t-20.5 -5t-22 -6.5t-23.5 -9.5t-19 -12t-15 -16.5t-5 -19.5q0 -20 18.5 -33.5t53 -33t57.5 -41.5 q67 -59 67 -142q0 -93 -76.5 -155t-195.5 -62q-135 0 -274 82l94 135q103 -49 162 -49t59 39q0 15 -9.5 24.5t-31.5 20.5q-68 32 -97 60q-50 50 -50 124q0 42 16.5 77t47 59.5t60.5 41t70 31.5q2 8 2 21q0 35 -29.5 55.5t-87.5 20.5q-75 0 -116.5 -42.5t-59.5 -144.5 l-96 -541h-227z" />
<glyph horiz-adv-x="815" d="M-117 -516l70 172q153 -49 256 -49q65 0 94.5 24.5t36.5 69.5l10 57q-106 -80 -215 -80q-83 0 -138.5 59.5t-55.5 188.5q0 187 86 306.5t221 119.5q45 0 86 -15t61 -28.5t47 -36.5l13 66h227l-111 -625q-20 -111 -63.5 -173.5t-108 -85.5t-166.5 -23q-180 0 -350 53z M172 -51q0 -90 66 -90q64 0 143 71l33 176q-53 64 -109 64q-61 0 -97 -65t-36 -156z" />
<glyph horiz-adv-x="1021" d="M80 903l47 273h963l-50 -273h-319l-160 -903h-321l159 903h-319z" />
<glyph horiz-adv-x="833" d="M96 915l121 158q69 -42 149.5 -73t143.5 -31q41 0 67.5 17t26.5 46q0 26 -32 43t-98.5 36.5t-104.5 37.5q-170 77 -170 235q0 119 88 199t248 80q179 0 391 -121l-121 -156q-62 32 -135.5 57t-126.5 25q-39 0 -64.5 -16t-25.5 -47q0 -25 30 -39.5t94 -33t109 -40.5 q174 -79 174 -235q0 -120 -91.5 -201.5t-252.5 -81.5q-116 0 -227.5 41.5t-192.5 99.5z" />
<glyph horiz-adv-x="1245" d="M77.5 366.5q0.5 79.5 18.5 180.5l111 629h321l-122 -703q-11 -46 -8.5 -86t16 -69.5t50 -46.5t93.5 -17q108 0 160 58t69 161l125 703h320l-125 -715q-13 -70 -31 -127.5t-47 -113.5t-71 -97.5t-99 -74.5t-135 -49.5t-174 -16.5q-133 0 -227 29.5t-146 78t-75.5 123 t-23 154zM420 1276l45 262h264l-45 -262h-264zM791 1276l45 262h264l-45 -262h-264z" />
<glyph horiz-adv-x="831" d="M88 580l70 172q157 -50 256 -50q65 0 94.5 25t36.5 70l10 57q-106 -80 -215 -80q-83 0 -139 59.5t-56 188.5q0 187 86.5 306.5t221.5 119.5q45 0 86 -15t61 -28.5t47 -36.5l12 66h228l-111 -625q-30 -163 -107.5 -223t-230.5 -60q-177 0 -350 54zM377 1044q0 -90 65 -90 q64 0 144 72l32 176q-53 64 -108 64q-60 0 -96.5 -65.5t-36.5 -156.5z" />
<glyph horiz-adv-x="835" d="M-96 -180l121 157q173 -104 292 -104q41 0 68 17.5t27 46.5q0 26 -32.5 42.5t-99 36t-104.5 37.5q-170 77 -170 236q0 119 88 198.5t248 79.5q179 0 391 -121l-121 -155q-62 32 -135.5 57t-126.5 25q-39 0 -64.5 -16.5t-25.5 -47.5q0 -25 30 -39t94.5 -32.5t109.5 -40.5 q174 -79 174 -236q0 -120 -91.5 -201.5t-252.5 -81.5q-116 0 -227.5 41.5t-192.5 100.5z" />
<glyph horiz-adv-x="1128" d="M-29 172l168 215q253 -141 404 -141q57 0 95 23t38 65q0 28 -31 49t-72.5 33t-109.5 34.5t-117 45.5q-50 24 -87.5 49.5t-72 63t-53 88.5t-18.5 114q0 162 124 272.5t343 110.5q250 0 538 -166l-170 -213q-79 44 -177.5 78.5t-182.5 34.5q-54 0 -90.5 -21.5t-36.5 -62.5 q0 -34 41 -54t130.5 -46.5t149.5 -55.5q48 -22 85 -45.5t75.5 -61.5t60 -92t21.5 -120q0 -163 -128.5 -275t-352.5 -112q-159 0 -310 55.5t-264 134.5zM242 -543l141 168h-107l46 262h239l-39 -290l-231 -220z" />
<glyph horiz-adv-x="1245" d="M77.5 366.5q0.5 79.5 18.5 180.5l111 629h321l-122 -703q-11 -46 -8.5 -86t16 -69.5t50 -46.5t93.5 -17q108 0 160 58t69 161l125 703h320l-125 -715q-13 -70 -31 -127.5t-47 -113.5t-71 -97.5t-99 -74.5t-135 -49.5t-174 -16.5q-133 0 -227 29.5t-146 78t-75.5 123 t-23 154zM403 1542h349l190 -287h-260z" />
<glyph horiz-adv-x="1245" d="M77.5 366.5q0.5 79.5 18.5 180.5l111 629h321l-122 -703q-11 -46 -8.5 -86t16 -69.5t50 -46.5t93.5 -17q108 0 160 58t69 161l125 703h320l-125 -715q-13 -70 -31 -127.5t-47 -113.5t-71 -97.5t-99 -74.5t-135 -49.5t-174 -16.5q-133 0 -227 29.5t-146 78t-75.5 123 t-23 154zM422 1255l201 287h292l-294 -287h-199zM780 1255l201 287h293l-295 -287h-199z" />
<glyph horiz-adv-x="1128" d="M-29 172l168 215q253 -141 404 -141q57 0 95 23t38 65q0 28 -31 49t-72.5 33t-109.5 34.5t-117 45.5q-50 24 -87.5 49.5t-72 63t-53 88.5t-18.5 114q0 162 124 272.5t343 110.5q250 0 538 -166l-170 -213q-79 44 -177.5 78.5t-182.5 34.5q-54 0 -90.5 -21.5t-36.5 -62.5 q0 -34 41 -54t130.5 -46.5t149.5 -55.5q48 -22 85 -45.5t75.5 -61.5t60 -92t21.5 -120q0 -163 -128.5 -275t-352.5 -112q-159 0 -310 55.5t-264 134.5zM317 1255l256 287h312l153 -287h-211l-110 144l-158 -144h-242z" />
<glyph horiz-adv-x="1128" d="M-29 172l168 215q253 -141 404 -141q57 0 95 23t38 65q0 28 -31 49t-72.5 33t-109.5 34.5t-117 45.5q-50 24 -87.5 49.5t-72 63t-53 88.5t-18.5 114q0 162 124 272.5t343 110.5q250 0 538 -166l-170 -213q-79 44 -177.5 78.5t-182.5 34.5q-54 0 -90.5 -21.5t-36.5 -62.5 q0 -34 41 -54t130.5 -46.5t149.5 -55.5q48 -22 85 -45.5t75.5 -61.5t60 -92t21.5 -120q0 -154 -115.5 -263.5t-318.5 -121.5q33 -80 33 -142q0 -111 -71.5 -168t-180.5 -57q-112 0 -180 47l90 160q43 -23 88 -23q94 0 94 88q0 41 -23 99q-133 16 -256.5 67.5t-214.5 116.5z " />
<glyph horiz-adv-x="788" d="M-68 -307l158 895h227l-55 -316q121 80 221 80q105 0 148 -63t24 -174l-75 -422h-228l72 397q7 43 -1.5 64.5t-41.5 21.5q-34 0 -75 -18.5t-73 -46.5l-73 -418h-228z" />
<glyph horiz-adv-x="1128" d="M-29 172l168 215q253 -141 404 -141q57 0 95 23t38 65q0 28 -31 49t-72.5 33t-109.5 34.5t-117 45.5q-50 24 -87.5 49.5t-72 63t-53 88.5t-18.5 114q0 162 124 272.5t343 110.5q250 0 538 -166l-170 -213q-79 44 -177.5 78.5t-182.5 34.5q-54 0 -90.5 -21.5t-36.5 -62.5 q0 -34 41 -54t130.5 -46.5t149.5 -55.5q48 -22 85 -45.5t75.5 -61.5t60 -92t21.5 -120q0 -163 -128.5 -275t-352.5 -112q-159 0 -310 55.5t-264 134.5zM365 1542h210l111 -145l158 145h241l-256 -287h-311z" />
<glyph horiz-adv-x="931" d="M-15.5 -38.5q0.5 58.5 13.5 132.5l80 459h235l-90 -514q-12 -77 9.5 -118.5t99.5 -41.5q77 0 113.5 42t48.5 118l92 514h235l-92 -524q-11 -63 -27.5 -112t-47 -95.5t-73 -76.5t-106.5 -48.5t-147 -18.5q-98 0 -166.5 21.5t-106 57.5t-54.5 91t-16.5 113.5z" />
<glyph horiz-adv-x="1130" d="M-29 172l168 215q253 -141 404 -141q57 0 95 23t38 65q0 28 -31 49t-72.5 33t-109.5 34.5t-117 45.5q-50 24 -87.5 49.5t-72 63t-53 88.5t-18.5 114q0 162 124 272.5t343 110.5q250 0 538 -166l-170 -213q-79 44 -177.5 78.5t-182.5 34.5q-54 0 -90.5 -21.5t-36.5 -62.5 q0 -34 41 -54t130.5 -46.5t149.5 -55.5q48 -22 85 -45.5t75.5 -61.5t60 -92t21.5 -120q0 -163 -128.5 -275t-352.5 -112q-159 0 -310 55.5t-264 134.5zM455 1255l284 287h383l-377 -287h-290z" />
<glyph horiz-adv-x="1128" d="M-29 172l168 215q253 -141 404 -141q57 0 95 23t38 65q0 28 -31 49t-72.5 33t-109.5 34.5t-117 45.5q-50 24 -87.5 49.5t-72 63t-53 88.5t-18.5 114q0 162 124 272.5t343 110.5q250 0 538 -166l-170 -213q-79 44 -177.5 78.5t-182.5 34.5q-54 0 -90.5 -21.5t-36.5 -62.5 q0 -34 41 -54t130.5 -46.5t149.5 -55.5q48 -22 85 -45.5t75.5 -61.5t60 -92t21.5 -120q0 -163 -128.5 -275t-352.5 -112q-159 0 -310 55.5t-264 134.5z" />
<glyph horiz-adv-x="921" d="M139 788l152 861h371q170 0 254.5 -66.5t84.5 -187.5q0 -103 -65.5 -184.5t-190.5 -102.5l146 -320h-246l-123 314h-94l-53 -314h-236zM461 1284h153q69 0 107.5 28.5t38.5 80.5q0 43 -28.5 58t-86.5 15h-151z" />
<glyph horiz-adv-x="923" d="M-53 -307l151 860h371q170 0 255 -66.5t85 -187.5q0 -103 -65.5 -184.5t-190.5 -102.5l145 -319h-245l-123 313h-94l-54 -313h-235zM268 188h154q69 0 107 28.5t38 80.5q0 43 -28 58.5t-86 15.5h-152z" />
<glyph horiz-adv-x="1232" d="M14 0l207 1176h512q469 0 469 -336q0 -46 -11.5 -93.5t-38 -98t-66 -92t-100.5 -74t-136 -46.5l201 -436h-334l-172 428h-133l-76 -428h-322zM285 -543l141 168h-107l46 262h239l-39 -290l-231 -220zM457 676h213q96 0 148 40.5t52 114.5q0 55 -44 76t-121 21h-205z" />
<glyph horiz-adv-x="1232" d="M14 0l207 1176h512q469 0 469 -336q0 -46 -11.5 -93.5t-38 -98t-66 -92t-100.5 -74t-136 -46.5l201 -436h-334l-172 428h-133l-76 -428h-322zM444 1542h211l111 -145l158 145h241l-256 -287h-311zM457 676h213q96 0 148 40.5t52 114.5q0 55 -44 76t-121 21h-205z" />
<glyph horiz-adv-x="1232" d="M14 0l207 1176h512q469 0 469 -336q0 -46 -11.5 -93.5t-38 -98t-66 -92t-100.5 -74t-136 -46.5l201 -436h-334l-172 428h-133l-76 -428h-322zM457 676h213q96 0 148 40.5t52 114.5q0 55 -44 76t-121 21h-205zM530 1255l285 287h383l-377 -287h-291z" />
<glyph horiz-adv-x="419" d="M-66 -307l115 645h227l-114 -645h-228zM55 408l33 178h234l-31 -178h-236z" />
<glyph horiz-adv-x="1232" d="M14 0l207 1176h512q469 0 469 -336q0 -46 -11.5 -93.5t-38 -98t-66 -92t-100.5 -74t-136 -46.5l201 -436h-334l-172 428h-133l-76 -428h-322zM457 676h213q96 0 148 40.5t52 114.5q0 55 -44 76t-121 21h-205z" />
<glyph horiz-adv-x="978" d="M162 1135q0 103 28 195t83.5 168t149 120.5t214.5 44.5q190 0 292.5 -94.5t102.5 -259.5q0 -160 -65 -292.5t-193 -195.5l115 -108l-166 -146l-174 207q-187 1 -287 97t-100 264zM403 1153q0 -90 35.5 -134t124.5 -44q58 0 103.5 32t71 81t38 99.5t12.5 96.5 q0 90 -35.5 134t-125.5 44q-57 0 -102.5 -32t-70.5 -81t-38 -99.5t-13 -96.5z" />
<glyph horiz-adv-x="1245" d="M77.5 366.5q0.5 79.5 18.5 180.5l111 629h321l-122 -703q-11 -46 -8.5 -86t16 -69.5t50 -46.5t93.5 -17q108 0 160 58t69 161l125 703h320l-125 -715q-13 -70 -31 -127.5t-47 -113.5t-71 -97.5t-99 -74.5t-135 -49.5t-174 -16.5q-133 0 -227 29.5t-146 78t-75.5 123 t-23 154zM444 1307l33 192h594l-33 -192h-594z" />
<glyph horiz-adv-x="1245" d="M75.5 374q1.5 76 18.5 173l111 629h321l-123 -703q-10 -63 -6 -111.5t43.5 -78t114.5 -29.5q108 0 160 58t69 161l125 703h320l-125 -715q-16 -89 -41 -158.5t-68.5 -133t-112 -106.5t-161.5 -63q-92 -54 -148.5 -103.5t-56.5 -99.5q0 -14 4.5 -24t14.5 -16t19 -9.5 t24 -4.5t24 -1.5t24 0t19 0.5l-55 -148q-96 0 -138 8q-150 32 -151 160q0 128 186 222q-117 6 -199.5 38t-128 81.5t-65.5 122t-18.5 148.5z" />
<glyph horiz-adv-x="976" d="M-33 39q0 103 28 195t83.5 168t149 120.5t214.5 44.5q190 0 293 -94.5t103 -259.5q0 -160 -65 -292t-193 -195l114 -109l-166 -145l-174 206q-187 1 -287 97t-100 264zM209 57q0 -90 35.5 -134t124.5 -44q58 0 103.5 32t71 81t38 99.5t12.5 96.5q0 90 -36 134.5 t-126 44.5q-57 0 -102.5 -32t-70.5 -81t-37.5 -100t-12.5 -97z" />
<glyph horiz-adv-x="729" d="M-59 -45q0 174 103 285.5t284 111.5q123 0 196.5 -53.5t73.5 -151.5q0 -51 -22 -88.5t-56 -59t-84.5 -34t-98 -16.5t-106.5 -4h-69q6 -55 30 -78t66 -23q75 0 229 70l64 -156q-200 -80 -338 -80q-272 0 -272 277zM168 61h70q145 0 145 78q0 54 -68 54q-57 0 -94 -35.5 t-53 -96.5z" />
<glyph horiz-adv-x="1325" d="M59 479q0 111 23 213t74 194t125 160t183.5 108t242.5 40q267 0 408.5 -129.5t141.5 -359.5q0 -142 -35.5 -267t-116.5 -231.5t-200 -163.5l156 -147l-225 -199l-246 285q-258 6 -394.5 137t-136.5 360zM389 498q0 -120 51 -182t181 -62q67 0 121 30.5t88 77t57 105 t32 111.5t9 100q0 120 -50.5 182t-179.5 62q-67 0 -121.5 -30.5t-88.5 -77.5t-57 -105.5t-32.5 -111.5t-9.5 -99z" />
<glyph horiz-adv-x="874" d="M139 788l152 861h342q170 0 256 -67t86 -189q0 -61 -21 -117t-62 -102t-108 -73.5t-151 -27.5h-209l-49 -285h-236zM459 1266h125q68 0 107.5 28.5t39.5 83.5q0 44 -28.5 60t-86.5 16h-124z" />
<glyph horiz-adv-x="876" d="M-53 -307l151 860h342q170 0 256 -67t86 -189q0 -61 -21 -117t-62 -102t-108 -73.5t-151 -27.5h-209l-49 -284h-235zM266 170h125q68 0 108 29t40 84q0 44 -28.5 59.5t-86.5 15.5h-125z" />
<glyph horiz-adv-x="421" d="M-225 -424q57 18 85.5 30t46.5 28.5t23 31.5t11 49l110 623h228l-107 -602q-22 -121 -43 -164q-37 -76 -139 -118q-64 -26 -168 -48zM59 408l33 178h232l-31 -178h-234z" />
<glyph horiz-adv-x="1335" d="M49 358q0 82 30 152t84 122.5t114.5 90t136.5 70.5q-152 118 -152 282q0 169 137 275t381 106q224 0 346.5 -91.5t122.5 -242.5q0 -214 -266 -356q225 -132 225 -348q0 -199 -165 -320t-453 -121q-260 0 -400.5 100.5t-140.5 280.5zM406 397q0 -71 50 -114t142 -43 q108 0 182 56t74 140q0 116 -170 209q-59 -21 -103.5 -42t-86.5 -51t-65 -69.5t-23 -85.5zM598 1040q0 -47 29 -80.5t80 -64.5q93 33 144.5 76.5t51.5 111.5q0 49 -34.5 84t-98.5 35q-75 0 -123.5 -49.5t-48.5 -112.5z" />
<glyph horiz-adv-x="1179" d="M14 0l207 1176h457q485 0 485 -355q0 -55 -14.5 -111.5t-50 -115t-88.5 -103.5t-137 -73.5t-187 -28.5h-283l-67 -389h-322zM453 651h176q100 0 151 44.5t51 115.5q0 98 -157 98h-176z" />
<glyph horiz-adv-x="1325" d="M59 479q0 111 23 213t74 194t125 160t183.5 108t242.5 40q267 0 408.5 -129.5t141.5 -359.5q0 -113 -23 -216.5t-73.5 -196.5t-124.5 -161.5t-183.5 -108.5t-242.5 -40q-267 0 -409 132t-142 365zM389 498q0 -120 51 -182t181 -62q67 0 121 30.5t88 77t57 105t32 111.5 t9 100q0 120 -50.5 182t-179.5 62q-67 0 -121.5 -30.5t-88.5 -77.5t-57 -105.5t-32.5 -111.5t-9.5 -99zM426 1352q30 45 44.5 65.5t42 53t49 47t52.5 26.5t66 12q44 0 93.5 -24.5t90.5 -49t66 -24.5q49 0 119 98l131 -90q-29 -44 -44 -66t-42.5 -54t-49.5 -47t-53.5 -27 t-66.5 -12q-44 0 -92 24.5t-88.5 49t-67.5 24.5q-49 0 -119 -96z" />
<glyph horiz-adv-x="974" d="M160 1135q0 103 28 195t83.5 168t149 120.5t214.5 44.5q190 0 292.5 -94.5t102.5 -259.5q0 -104 -28 -197.5t-83.5 -170t-149 -122t-214.5 -45.5q-190 0 -292.5 96t-102.5 265zM401 1153q0 -90 35.5 -134t124.5 -44q58 0 103.5 32t71 81t38 99.5t12.5 96.5 q0 90 -35.5 134t-125.5 44q-57 0 -102.5 -32t-70.5 -81t-38 -99.5t-13 -96.5z" />
<glyph horiz-adv-x="751" d="M-68 -307l158 895h227l-77 -438l168 188h280l-268 -264l186 -381h-229l-107 233l-84 -84l-26 -149h-228z" />
<glyph horiz-adv-x="802" d="M125 788l158 895h227l-78 -438l168 189h281l-269 -265l187 -381h-230l-106 234l-84 -84l-27 -150h-227z" />
<glyph horiz-adv-x="1325" d="M-10 0l160 168q-91 126 -91 311q0 111 23 213t74 194t125 160t183.5 108t242.5 40q204 0 342 -82l61 64h215l-160 -168q92 -121 92 -303q0 -113 -23 -216.5t-73.5 -196.5t-124.5 -161.5t-183.5 -108.5t-242.5 -40q-210 0 -344 81l-59 -63h-217zM389 498q0 -28 4 -74 l447 467q-54 31 -142 31q-67 0 -121.5 -30.5t-88.5 -77.5t-57 -105.5t-32.5 -111.5t-9.5 -99zM477 285q54 -31 144 -31q67 0 121 30.5t88 77t57 105t32 111.5t9 100q0 39 -6 74zM551 1255l285 287h383l-377 -287h-291z" />
<glyph horiz-adv-x="1284" d="M25 358q0 82 29.5 152t83.5 122.5t114.5 90t136.5 70.5q-151 117 -151 282q0 169 137 275t381 106q224 0 346.5 -91.5t122.5 -242.5q0 -214 -267 -356q49 -29 86.5 -60t70.5 -73.5t51 -97t18 -117.5q0 -199 -165.5 -320t-453.5 -121q-260 0 -400 100.5t-140 280.5z M381 397q0 -71 50 -114t142 -43q108 0 182 56t74 140q0 116 -170 209q-59 -21 -103.5 -42t-86.5 -51t-65 -69.5t-23 -85.5zM573 1040q0 -47 29 -80.5t80 -64.5q94 33 145.5 76.5t51.5 111.5q0 49 -35 84t-99 35q-75 0 -123.5 -49.5t-48.5 -112.5z" />
<glyph horiz-adv-x="1325" d="M59 479q0 111 23 213t74 194t125 160t183.5 108t242.5 40q267 0 408.5 -129.5t141.5 -359.5q0 -113 -23 -216.5t-73.5 -196.5t-124.5 -161.5t-183.5 -108.5t-242.5 -40q-267 0 -409 132t-142 365zM389 498q0 -120 51 -182t181 -62q67 0 121 30.5t88 77t57 105t32 111.5 t9 100q0 120 -50.5 182t-179.5 62q-67 0 -121.5 -30.5t-88.5 -77.5t-57 -105.5t-32.5 -111.5t-9.5 -99zM487 1307l33 192h594l-33 -192h-594z" />
<glyph horiz-adv-x="976" d="M-33 41q0 103 28 195t83.5 168t149 120.5t214.5 44.5q190 0 293 -94.5t103 -259.5q0 -82 -17 -158.5t-54.5 -145t-92 -119.5t-135 -81t-177.5 -30q-190 0 -292.5 95.5t-102.5 264.5zM209 59q0 -90 35.5 -134t124.5 -44q58 0 103.5 32t71 81t38 99.5t12.5 96.5 q0 90 -36 134.5t-126 44.5q-57 0 -102.5 -32t-70.5 -81t-37.5 -100t-12.5 -97z" />
<glyph horiz-adv-x="1327" d="M59 479q0 111 23 213t74 194t125 160t183.5 108t242.5 40q267 0 408.5 -129.5t141.5 -359.5q0 -113 -23 -216.5t-73.5 -196.5t-124.5 -161.5t-183.5 -108.5t-242.5 -40q-267 0 -409 132t-142 365zM389 498q0 -120 51 -182t181 -62q67 0 121 30.5t88 77t57 105t32 111.5 t9 100q0 120 -50.5 182t-179.5 62q-67 0 -121.5 -30.5t-88.5 -77.5t-57 -105.5t-32.5 -111.5t-9.5 -99zM469 1255l201 287h293l-295 -287h-199zM827 1255l201 287h293l-295 -287h-199z" />
<glyph horiz-adv-x="1325" d="M59 479q0 111 23 213t74 194t125 160t183.5 108t242.5 40q267 0 408.5 -129.5t141.5 -359.5q0 -113 -23 -216.5t-73.5 -196.5t-124.5 -161.5t-183.5 -108.5t-242.5 -40q-267 0 -409 132t-142 365zM389 498q0 -120 51 -182t181 -62q67 0 121 30.5t88 77t57 105t32 111.5 t9 100q0 120 -50.5 182t-179.5 62q-67 0 -121.5 -30.5t-88.5 -77.5t-57 -105.5t-32.5 -111.5t-9.5 -99zM449 1542h348l190 -287h-260z" />
<glyph horiz-adv-x="841" d="M82 793q0 163 223 260q-92 71 -92 168q0 99 86 163t242 64q147 0 226 -57t79 -148q0 -122 -160 -209q139 -80 139 -209q0 -121 -103.5 -193.5t-287.5 -72.5q-170 0 -261 62.5t-91 171.5zM322 819q0 -40 30.5 -62t87.5 -22q63 0 105.5 27.5t42.5 73.5q0 68 -101 118 q-78 -26 -121.5 -56.5t-43.5 -78.5zM438 1196q0 -48 62 -78q55 17 85.5 37t30.5 55q0 31 -22 49.5t-57 18.5q-42 0 -70.5 -24t-28.5 -58z" />
<glyph horiz-adv-x="415" d="M-68 -307l158 895h227l-157 -895h-228z" />
<glyph horiz-adv-x="843" d="M-18 219q0 163 223 260q-92 71 -92 168q0 99 85.5 163t241.5 64q147 0 226 -56.5t79 -147.5q0 -123 -159 -209q139 -80 139 -209q0 -121 -103.5 -193.5t-287.5 -72.5q-171 0 -261.5 62t-90.5 171zM221 246q0 -40 31 -62t88 -22q63 0 105 27t42 73q0 70 -100 119 q-79 -26 -122.5 -56.5t-43.5 -78.5zM338 623q0 -48 61 -78q55 17 86 37.5t31 54.5q0 31 -22.5 49.5t-57.5 18.5q-42 0 -70 -24t-28 -58z" />
<glyph horiz-adv-x="1032" d="M-10 0l37 213q6 2 16.5 5t40 15.5t55.5 28t55 43.5t46 60h-168l22 133h170q-3 34 -12 63h-148l25 135h76q-27 91 -27 162q0 154 101 245t280 91q242 0 473 -186l-158 -185q-145 105 -256 105q-61 0 -91.5 -29t-30.5 -78q0 -39 32 -125h318l-25 -135h-254q4 -32 4 -47v-16 h240l-25 -133h-254q-40 -70 -94 -101h436l-47 -264h-837z" />
<glyph horiz-adv-x="743" d="M-90 -307l27 155q4 1 12 3.5t29.5 12t40 21t39.5 32.5t34 46h-123l17 92h120q0 17 -8 49h-102l14 95h58q-21 61 -21 120q0 115 73.5 181.5t201.5 66.5q76 0 149 -25t112.5 -50t86.5 -62l-117 -135q-106 78 -184 78q-42 0 -65 -21.5t-23 -54.5q0 -32 30 -98h221l-16 -95 h-172q4 -24 4 -36v-13h160l-16 -92h-179q-16 -21 -43 -47t-30 -29h315l-33 -194h-612z" />
<glyph horiz-adv-x="743" d="M102 788l27 156q5 1 12.5 3.5t29 12t40.5 21t40 32.5t34 46h-123l16 92h121q0 17 -8 49h-103l15 94h57q-20 58 -20 121q0 115 73 181.5t201 66.5q76 0 149 -25t112.5 -50t86.5 -62l-117 -135q-104 77 -184 77q-42 0 -65 -21.5t-23 -53.5q0 -31 31 -99h221l-16 -94h-172 q4 -24 4 -37v-12h159l-16 -92h-178q-16 -21 -43.5 -47t-30.5 -29h316l-33 -195h-613z" />
<glyph horiz-adv-x="1325" d="M59 479q0 111 23 213t74 194t125 160t183.5 108t242.5 40q267 0 408.5 -129.5t141.5 -359.5q0 -113 -23 -216.5t-73.5 -196.5t-124.5 -161.5t-183.5 -108.5t-242.5 -40q-267 0 -409 132t-142 365zM389 498q0 -120 51 -182t181 -62q67 0 121 30.5t88 77t57 105t32 111.5 t9 100q0 120 -50.5 182t-179.5 62q-67 0 -121.5 -30.5t-88.5 -77.5t-57 -105.5t-32.5 -111.5t-9.5 -99zM465 1276l45 262h264l-45 -262h-264zM836 1276l45 262h264l-45 -262h-264z" />
<glyph horiz-adv-x="1325" d="M59 479q0 111 23 213t74 194t125 160t183.5 108t242.5 40q267 0 408.5 -129.5t141.5 -359.5q0 -113 -23 -216.5t-73.5 -196.5t-124.5 -161.5t-183.5 -108.5t-242.5 -40q-267 0 -409 132t-142 365zM389 498q0 -120 51 -182t181 -62q67 0 121 30.5t88 77t57 105t32 111.5 t9 100q0 120 -50.5 182t-179.5 62q-67 0 -121.5 -30.5t-88.5 -77.5t-57 -105.5t-32.5 -111.5t-9.5 -99zM416 1255l256 287h311l154 -287h-211l-111 144l-158 -144h-241z" />
<glyph horiz-adv-x="1245" d="M77.5 366.5q0.5 79.5 18.5 180.5l111 629h321l-122 -703q-11 -46 -8.5 -86t16 -69.5t50 -46.5t93.5 -17q108 0 160 58t69 161l125 703h320l-125 -715q-13 -70 -31 -127.5t-47 -113.5t-71 -97.5t-99 -74.5t-135 -49.5t-174 -16.5q-133 0 -227 29.5t-146 78t-75.5 123 t-23 154zM530 1464q0 97 67.5 164.5t164.5 67.5q95 0 162 -67.5t67 -164.5q0 -95 -67 -162t-162 -67q-97 0 -164.5 67t-67.5 162zM686 1464q0 -31 22.5 -53t53.5 -22t53.5 22t22.5 53q0 32 -22.5 55t-53.5 23t-53.5 -23t-22.5 -55z" />
<glyph horiz-adv-x="1325" d="M59 479q0 111 23 213t74 194t125 160t183.5 108t242.5 40q267 0 408.5 -129.5t141.5 -359.5q0 -113 -23 -216.5t-73.5 -196.5t-124.5 -161.5t-183.5 -108.5t-242.5 -40q-267 0 -409 132t-142 365zM389 498q0 -120 51 -182t181 -62q67 0 121 30.5t88 77t57 105t32 111.5 t9 100q0 120 -50.5 182t-179.5 62q-67 0 -121.5 -30.5t-88.5 -77.5t-57 -105.5t-32.5 -111.5t-9.5 -99zM494 1518h200q-5 -40 22 -62t79 -22q67 0 110 22.5t49 61.5h201q-20 -124 -116.5 -193.5t-250.5 -69.5q-157 0 -234.5 73t-59.5 190z" />
<glyph horiz-adv-x="937" d="M187 1094q3 44 12 96l80 459h235l-90 -514q-12 -78 9 -119t99 -41q77 0 113.5 42t48.5 118l92 514h236l-92 -525q-11 -63 -28 -112t-47.5 -95t-73 -76.5t-106.5 -48.5t-147 -18q-70 0 -125.5 11t-93.5 30.5t-63.5 49.5t-39.5 64t-18 77.5t-1 87.5z" />
<glyph horiz-adv-x="1325" d="M59 479q0 111 23 213t74 194t125 160t183.5 108t242.5 40q267 0 408.5 -129.5t141.5 -359.5q0 -113 -23 -216.5t-73.5 -196.5t-124.5 -161.5t-183.5 -108.5t-242.5 -40q-267 0 -409 132t-142 365zM389 498q0 -120 51 -182t181 -62q67 0 121 30.5t88 77t57 105t32 111.5 t9 100q0 120 -50.5 182t-179.5 62q-67 0 -121.5 -30.5t-88.5 -77.5t-57 -105.5t-32.5 -111.5t-9.5 -99zM553 1255l285 287h383l-377 -287h-291z" />
<glyph horiz-adv-x="1882" d="M59 479q0 111 23 213t74 194t125 160t183.5 108t242.5 40q186 0 319 -68l8 50h862l-47 -273h-540l-31 -182h438l-47 -264h-438l-33 -187h545l-47 -270h-869l2 12q-110 -30 -219 -30q-267 0 -409 132t-142 365zM389 498q0 -120 51 -182t181 -62q67 0 121 30.5t88 77 t57 105t32 111.5t9 100q0 120 -50.5 182t-179.5 62q-67 0 -121.5 -30.5t-88.5 -77.5t-57 -105.5t-32.5 -111.5t-9.5 -99z" />
<glyph horiz-adv-x="1163" d="M-76 -307l115 645h227l-12 -70q101 84 197 84q137 0 165 -110q41 41 104.5 75.5t123.5 34.5q102 0 144.5 -60.5t23.5 -168.5l-76 -430h-225l69 397q10 37 2 61.5t-41 24.5q-58 0 -125 -67l-73 -416h-226l70 397q10 37 2 61.5t-41 24.5q-54 0 -123 -65l-73 -418h-228z" />
<glyph horiz-adv-x="1245" d="M77.5 366.5q0.5 79.5 18.5 180.5l111 629h321l-122 -703q-11 -46 -8.5 -86t16 -69.5t50 -46.5t93.5 -17q108 0 160 58t69 161l125 703h320l-125 -715q-13 -70 -31 -127.5t-47 -113.5t-71 -97.5t-99 -74.5t-135 -49.5t-174 -16.5q-133 0 -227 29.5t-146 78t-75.5 123 t-23 154zM383 1352q30 45 44.5 65.5t42 53t49 47t52.5 26.5t66 12q44 0 93.5 -24.5t90.5 -49t66 -24.5q49 0 119 98l131 -90q-29 -44 -44 -66t-42.5 -54t-49.5 -47t-53.5 -27t-66.5 -12q-43 0 -91 24.5t-89 49t-68 24.5q-49 0 -119 -96z" />
<glyph d="M111 1176h356l86 -807l360 807h396l-627 -1176h-356z" />
<glyph horiz-adv-x="1325" d="M59 479q0 111 23 213t74 194t125 160t183.5 108t242.5 40q267 0 408.5 -129.5t141.5 -359.5q0 -113 -23 -216.5t-73.5 -196.5t-124.5 -161.5t-183.5 -108.5t-242.5 -40q-267 0 -409 132t-142 365zM389 498q0 -120 51 -182t181 -62q67 0 121 30.5t88 77t57 105t32 111.5 t9 100q0 120 -50.5 182t-179.5 62q-67 0 -121.5 -30.5t-88.5 -77.5t-57 -105.5t-32.5 -111.5t-9.5 -99z" />
<glyph horiz-adv-x="1290" d="M14 0l207 1176h324l274 -709l123 709h322l-207 -1176h-322l-276 709l-123 -709h-322zM418 1352q30 45 44.5 65.5t42 53t49 47t52.5 26.5t66 12q44 0 93.5 -24.5t90.5 -49t66 -24.5q48 0 118 98l131 -90q-29 -44 -44 -66t-42.5 -54t-49.5 -47t-53.5 -27t-66.5 -12 q-44 0 -91.5 24.5t-88.5 49t-67 24.5q-49 0 -119 -96z" />
<glyph horiz-adv-x="976" d="M139 788l152 861h237l193 -504l90 504h236l-152 -861h-238l-194 504l-88 -504h-236z" />
<glyph horiz-adv-x="976" d="M-53 -307l151 860h238l192 -504l90 504h236l-152 -860h-237l-195 504l-88 -504h-235z" />
<glyph horiz-adv-x="1290" d="M14 0l207 1176h324l274 -709l123 709h322l-207 -1176h-322l-276 709l-123 -709h-322zM319 -543l142 168h-107l45 262h240l-39 -290l-231 -220z" />
<glyph horiz-adv-x="1290" d="M14 0l207 1176h324l274 -709l123 709h322l-207 -1176h-322l-276 709l-123 -709h-322zM457 1542h211l110 -145l158 145h242l-256 -287h-312z" />
<glyph horiz-adv-x="1290" d="M14 0l207 1176h324l274 -709l123 709h322l-207 -1176h-322l-276 709l-123 -709h-322zM616 1255l285 287h383l-377 -287h-291z" />
<glyph horiz-adv-x="1290" d="M14 0l207 1176h324l274 -709l123 709h322l-207 -1176h-322l-276 709l-123 -709h-322z" />
<glyph horiz-adv-x="823" d="M-6 12l82 170q33 -6 78 -6q101 0 186 41.5t129 130.5q-62 -47 -166 -47q-120 0 -192 70t-72 186q0 134 94 225.5t258 91.5q167 0 260.5 -97.5t93.5 -241.5q0 -113 -43 -214t-118.5 -175t-185 -117t-236.5 -43q-49 0 -91 6.5t-59 13.5zM272 567q0 -42 27 -67t82 -25 q74 0 131 62v12q0 59 -31 97t-86 38q-60 0 -91.5 -34t-31.5 -83z" />
<glyph horiz-adv-x="872" d="M-10 553h262l59 -586l260 586h289l-457 -860h-260z" />
<glyph horiz-adv-x="1239" d="M-16 -244l129 254q50 -12 120 -12q107 0 204.5 34.5t182.5 112t134 189.5q-119 -90 -279 -90q-186 0 -300 116.5t-114 301.5q0 105 38 200.5t107.5 170t177 118t237.5 43.5q131 0 236.5 -44.5t172 -120.5t102 -173.5t35.5 -208.5q0 -192 -69 -363t-189.5 -296.5 t-294 -199t-372.5 -73.5q-76 0 -140.5 10.5t-91.5 20.5zM412 678q0 -75 46.5 -124.5t131.5 -49.5q70 0 133 39t92 84l2 43q0 103 -51 172t-141 69q-102 0 -157.5 -70.5t-55.5 -162.5z" />
<glyph horiz-adv-x="1335" d="M74 18l129 254q51 -12 121 -12q107 0 204 34.5t182 112t134 189.5q-119 -90 -279 -90q-186 0 -299.5 116.5t-113.5 301.5q0 106 37.5 201t107 169.5t177 118t237.5 43.5q131 0 236.5 -44.5t172 -120.5t102 -173.5t35.5 -208.5q0 -192 -69 -363t-189.5 -296.5t-294 -199 t-372.5 -73.5q-76 0 -140.5 10.5t-91.5 20.5zM502 940q0 -75 46.5 -124.5t131.5 -49.5q70 0 133 39t92 84l2 43q0 103 -51 172.5t-141 69.5q-102 0 -157.5 -71t-55.5 -163z" />
<glyph horiz-adv-x="872" d="M182 1649h262l60 -586l260 586h289l-457 -861h-260z" />
<glyph horiz-adv-x="1673" d="M125 1176h354l15 -713l290 713h265l47 -713l262 713h379l-529 -1176h-305l-55 721l-297 -721h-311z" />
<glyph horiz-adv-x="798" d="M-76 -307l115 645h227l-12 -66q125 80 221 80q105 0 148 -63t24 -174l-74 -422h-227l72 397q7 42 -2.5 64t-42.5 22q-72 0 -148 -65l-73 -418h-228z" />
<glyph horiz-adv-x="1673" d="M125 1176h354l15 -713l290 713h265l47 -713l262 713h379l-529 -1176h-305l-55 721l-297 -721h-311zM721 1255l285 287h383l-377 -287h-291z" />
<glyph horiz-adv-x="1171" d="M-8 172l168 215q253 -141 403 -141q57 0 95 23t38 65q0 28 -30.5 49t-72 33t-109.5 34.5t-117 45.5q-50 24 -87.5 49.5t-72.5 63t-53.5 88.5t-18.5 114q0 76 29.5 144t85 120.5t142.5 84.5t194 34l26 152h219l-30 -177q157 -38 340 -141l-170 -213q-78 44 -177.5 78.5 t-183.5 34.5q-54 0 -90.5 -21.5t-36.5 -62.5q0 -34 41.5 -54t131 -46.5t149.5 -55.5q48 -22 85 -45.5t75.5 -61.5t60 -92t21.5 -120q0 -76 -30.5 -144t-87 -121t-144 -85.5t-195.5 -36.5l-25 -150h-219l29 170q-212 48 -383 170z" />
<glyph horiz-adv-x="1107" d="M139 788l152 861h235l117 -453l299 453h236l-152 -861h-235l83 467l-212 -323h-113l-90 346l-84 -490h-236z" />
<glyph horiz-adv-x="1107" d="M-53 -307l151 860h236l117 -453l299 453h235l-151 -860h-236l84 467l-213 -324h-113l-90 346l-84 -489h-235z" />
<glyph horiz-adv-x="1236" d="M6 242l41 229h201l76 234h-168l39 229h204l78 242h236l-78 -242h184l78 242h238l-78 -242h168l-41 -229h-203l-76 -234h170l-39 -229h-205l-77 -242h-236l78 242h-184l-78 -242h-238l78 242h-168zM485 471h185l75 234h-184z" />
<glyph horiz-adv-x="890" d="M-82 -131l29 168h143l55 170h-118l30 170h144l57 176h174l-57 -176h131l57 176h172l-57 -176h121l-31 -170h-143l-56 -170h123l-28 -168h-148l-55 -176h-176l57 176h-131l-57 -176h-174l57 176h-119zM264 37h131l56 170h-132z" />
<glyph horiz-adv-x="892" d="M113 965l28 168h144l55 170h-119l31 170h143l58 176h174l-58 -176h131l58 176h172l-58 -176h121l-30 -170h-144l-55 -170h123l-29 -168h-147l-56 -177h-176l58 177h-131l-58 -177h-174l57 177h-118zM459 1133h131l55 170h-131z" />
<glyph horiz-adv-x="1472" d="M14 0l207 1176h328l162 -617l407 617h328l-207 -1176h-321l114 653l-299 -456h-145l-131 493l-121 -690h-322z" />
<glyph horiz-adv-x="741" d="M139 788l152 861h235l-116 -666h374l-32 -195h-613z" />
<glyph horiz-adv-x="1003" d="M-23 299l48 276l125 64l94 537h321l-63 -355l235 121l-47 -280l-237 -121l-50 -277h525l-47 -264h-844l63 360z" />
<glyph horiz-adv-x="743" d="M-53 -307l151 860h236l-117 -666h375l-33 -194h-612z" />
<glyph horiz-adv-x="997" d="M14 0l207 1176h322l-160 -912h524l-47 -264h-846zM631 500l45 262h266l-47 -262h-264z" />
<glyph horiz-adv-x="993" d="M14 0l207 1176h322l-160 -912h524l-47 -264h-846zM217 -543l141 168h-106l45 262h240l-39 -290l-232 -220z" />
<glyph horiz-adv-x="1673" d="M125 1176h354l15 -713l290 713h265l47 -713l262 713h379l-529 -1176h-305l-55 721l-297 -721h-311zM586 1255l256 287h311l154 -287h-211l-111 144l-158 -144h-241z" />
<glyph horiz-adv-x="993" d="M14 0l207 1176h322l-160 -912h524l-47 -264h-846zM541 745l141 168h-107l46 263h239l-39 -291l-231 -219z" />
<glyph horiz-adv-x="993" d="M14 0l207 1176h322l-160 -912h524l-47 -264h-846zM168 1255l285 287h383l-377 -287h-291z" />
<glyph horiz-adv-x="782" d="M-53 -45q0 81 23 151.5t68 126t118.5 87.5t167.5 32q151 0 238 -73t87 -203q0 -82 -23 -152.5t-67.5 -126t-118.5 -87.5t-168 -32q-150 0 -237.5 73.5t-87.5 203.5zM174 -37q0 -57 22 -83.5t80 -26.5q38 0 67.5 22t45.5 56.5t24.5 69.5t8.5 67q0 56 -22.5 83t-80.5 27 q-47 0 -82 -39t-49 -86t-14 -90z" />
<glyph horiz-adv-x="993" d="M14 0l207 1176h322l-160 -912h524l-47 -264h-846z" />
<glyph horiz-adv-x="909" d="M139 788l152 861h235l-55 -314l297 314h311l-407 -396l264 -465h-258l-166 308l-100 -97l-37 -211h-236z" />
<glyph horiz-adv-x="641" d="M16 719l269 141h223l-152 -860h-235l115 631l-148 -74z" />
<glyph horiz-adv-x="641" d="M119 1292l268 142h223l-151 -861h-236l115 631l-148 -74z" />
<glyph horiz-adv-x="839" d="M61 950l420 226h332l-207 -1176h-350l147 829l-239 -122z" />
<glyph horiz-adv-x="1335" d="M23 0l51 289h387l141 798l-268 -137l-103 242l447 242h334l-201 -1145h387l-51 -289h-1124z" />
<glyph horiz-adv-x="806" d="M-78 -74q0 188 86.5 307t222.5 119q43 0 84 -15t60.5 -28t48.5 -37l55 316h228l-158 -895h-227l10 63q-109 -78 -213 -78q-85 0 -141 59.5t-56 188.5zM154 -51q0 -90 65 -90q62 0 143 73l31 177q-19 27 -48 44t-58 17q-61 0 -97 -65t-36 -156z" />
<glyph horiz-adv-x="1529" d="M123 1063l225 113h176l-123 -705h-186l96 522l-129 -61zM201 0l743 1176h203l-744 -1176h-202zM758 180q0 76 53 126.5t141 86.5q-84 57 -84 139q0 81 74.5 133t204.5 52q124 0 191 -46.5t67 -121.5q0 -101 -139 -172q123 -67 123 -174q0 -96 -89 -155.5t-243 -59.5 q-141 0 -220 51.5t-79 140.5zM948 201q0 -35 29.5 -53.5t81.5 -18.5q61 0 101 22.5t40 61.5q0 57 -96 102q-49 -16 -77 -27.5t-53.5 -34.5t-25.5 -52zM1049 512q0 -42 61 -70q54 16 83.5 34t29.5 46q0 29 -21 44.5t-57 15.5q-42 0 -69 -20t-27 -50z" />
<glyph horiz-adv-x="1531" d="M121 1063l227 113h176l-123 -705h-188l96 522l-129 -61zM203 0l743 1176h201l-744 -1176h-200zM770 102l102 115q94 -70 185 -70q56 0 95.5 24.5t39.5 70.5q0 77 -96 77q-66 0 -140 -40l-102 69l102 357h480l-25 -154h-324l-22 -92q50 8 80 8q115 0 177 -62.5t62 -154.5 q0 -107 -81.5 -184.5t-225.5 -77.5q-170 0 -307 114z" />
<glyph horiz-adv-x="911" d="M-53 -307l151 860h236l-55 -313l296 313h312l-408 -395l264 -465h-258l-166 307l-100 -96l-37 -211h-235z" />
<glyph horiz-adv-x="1533" d="M121 1063l225 113h176l-123 -705h-186l96 522l-129 -61zM203 0l743 1176h203l-746 -1176h-200zM768 0l12 76q8 47 29 88t43.5 67.5t63.5 57t66 45t73 41.5q20 11 50 27t44.5 24t34 19.5t28.5 18.5t18.5 16.5t13 17.5t3.5 18q0 47 -78 47q-80 0 -204 -65l-70 129 q154 90 297 90q118 0 181 -55.5t63 -137.5q0 -41 -18.5 -78.5t-42.5 -63.5t-67.5 -54.5t-73 -44t-79.5 -39.5q-79 -38 -102 -53.5t-29 -36.5h342l-25 -154h-573z" />
<glyph horiz-adv-x="1673" d="M125 1176h354l15 -713l290 713h265l47 -713l262 713h379l-529 -1176h-305l-55 721l-297 -721h-311zM633 1276l45 262h264l-45 -262h-264zM1004 1276l45 262h264l-45 -262h-264z" />
<glyph horiz-adv-x="1222" d="M14 0l207 1176h322l-78 -437l418 437h426l-564 -541l367 -635h-354l-232 422l-141 -135l-49 -287h-322zM281 -543l141 168h-107l45 262h240l-39 -290l-231 -220z" />
<glyph horiz-adv-x="1503" d="M121 1063l227 113h176l-123 -705h-188l96 522l-129 -61zM203 0l743 1176h203l-743 -1176h-203zM678 125l16 127l404 453h248l-76 -426h104l-20 -154h-111l-22 -125h-189l23 125h-377zM903 279h178l47 260z" />
<glyph horiz-adv-x="1503" d="M121 1063l227 113h176l-123 -705h-188l96 522l-129 -61zM205 0l743 1176h201l-743 -1176h-201zM762 268q0 190 139.5 319.5t353.5 129.5q41 0 76.5 -5.5t50.5 -10.5l15 -5l-64 -135q-30 6 -69 6q-93 0 -169.5 -37t-115.5 -114q64 41 154 41q105 0 167 -57.5t62 -153.5 q0 -108 -80 -183t-219 -75q-143 0 -222 80t-79 200zM946 258q0 -50 29.5 -84.5t81.5 -34.5q57 0 88 30t31 71q0 36 -25 57.5t-78 21.5q-76 0 -127 -55v-6z" />
<glyph horiz-adv-x="1222" d="M14 0l207 1176h322l-78 -437l418 437h426l-564 -541l367 -635h-354l-232 422l-141 -135l-49 -287h-322z" />
<glyph horiz-adv-x="1673" d="M125 1176h354l15 -713l290 713h265l47 -713l262 713h379l-529 -1176h-305l-55 721l-297 -721h-311zM618 1542h349l190 -287h-260z" />
<glyph horiz-adv-x="1513" d="M121 1063l227 113h176l-123 -705h-188l96 522l-129 -61zM203 0l743 1176h201l-744 -1176h-200zM752 102l92 113q66 -38 115 -55t104 -17q59 0 90 20t31 54q0 76 -178 76h-29l24 153h35q70 0 122 17.5t52 52.5q0 47 -69 47q-67 0 -201 -59l-59 125q134 88 293 88 q114 0 171.5 -46.5t57.5 -117.5q0 -57 -39 -101t-107 -71q53 -19 85 -63.5t32 -102.5q0 -39 -15.5 -77t-48 -72.5t-91.5 -56t-136 -21.5q-180 0 -331 114z" />
<glyph horiz-adv-x="456" d="M-14 731q102 30 130.5 54t39.5 83l137 781h235l-137 -768q-7 -43 -11.5 -65t-13.5 -54.5t-19.5 -49.5t-28.5 -40.5t-42 -37.5t-58 -30.5t-78 -29.5t-101 -25z" />
<glyph horiz-adv-x="454" d="M-207 -365q71 21 103 38t46 37.5t21 62.5l137 780h236l-137 -768q-6 -34 -9.5 -52.5t-10 -46t-13 -42t-17.5 -36t-24 -34t-32 -29t-42.5 -27t-54 -23t-67.5 -22.5t-83 -20z" />
<glyph horiz-adv-x="569" d="M-195 -78q96 28 140.5 51.5t62 51.5t27.5 84l186 1067h324l-185 -1051q-27 -151 -50 -205q-40 -97 -141 -152q-99 -54 -292 -94zM35 1255l256 287h311l154 -287h-211l-111 144l-158 -144h-241z" />
<glyph horiz-adv-x="569" d="M-195 -78q96 28 140.5 51.5t62 51.5t27.5 84l186 1067h324l-185 -1051q-27 -151 -50 -205q-40 -97 -141 -152q-99 -54 -292 -94z" />
<glyph horiz-adv-x="1191" d="M0 553h260l10 -514l209 514h193l33 -516l188 516h276l-383 -860h-225l-37 520l-215 -520h-227z" />
<glyph horiz-adv-x="571" d="M14 0l207 1176h322l-207 -1176h-322zM45 1352q30 45 44.5 65.5t42 53t49 47t52.5 26.5t66 12q44 0 93.5 -24.5t90.5 -49t66 -24.5q49 0 119 98l131 -90q-29 -44 -44 -66t-42.5 -54t-49.5 -47t-53.5 -27t-66.5 -12q-43 0 -91 24.5t-89 49t-68 24.5q-49 0 -119 -96z" />
<glyph horiz-adv-x="454" d="M139 788l152 861h235l-151 -861h-236z" />
<glyph horiz-adv-x="569" d="M-92 -238q0 134 221 238h-115l207 1176h322l-207 -1176h-6q-93 -53 -150 -103t-57 -100q0 -14 4.5 -24t14.5 -16t19 -9.5t24 -4.5t24 -1.5t24 0t19 0.5l-55 -148q-96 0 -138 8q-151 30 -151 160z" />
<glyph horiz-adv-x="1290" d="M70 676q0 102 29.5 186t80.5 141.5t119.5 97t144.5 57.5t158 18h281l-262 -1487h-256l112 630q-85 0 -157 20.5t-129 62t-89 112t-32 162.5zM727 -313l262 1489h260l-262 -1489h-260z" />
<glyph horiz-adv-x="567" d="M14 0l207 1176h322l-207 -1176h-322zM104 1307l33 192h594l-33 -192h-594z" />
<glyph horiz-adv-x="638" d="M23 46q1 41 5 75.5t13 87.5l133 749q14 84 24.5 128t32.5 96t51 78.5t80.5 57t121.5 50.5t173 41l54 -176q-63 -22 -98.5 -39t-57 -40t-30 -46.5t-15.5 -65.5l-162 -915q-19 -81 -0.5 -125t101.5 -82l-80 -160q-69 15 -122 32t-91 38.5t-64 42t-40.5 50.5t-22 56t-6.5 67 z" />
<glyph horiz-adv-x="1193" d="M195 1649h260l10 -514l209 514h192l33 -516l188 516h277l-383 -861h-225l-37 521l-215 -521h-228z" />
<glyph horiz-adv-x="694" d="M133 1057q0 177 95 284t237 107q53 0 115.5 -20t98.5 -38t87 -47l-100 -153q-100 63 -160 63q-64 0 -104 -48.5t-40 -123.5q0 -112 89 -112q58 0 170 51l69 -170q-59 -23 -87 -33.5t-93 -26.5t-117 -16q-117 0 -188.5 68.5t-71.5 214.5z" />
<glyph horiz-adv-x="454" d="M-53 -307l151 860h236l-152 -860h-235z" />
<glyph horiz-adv-x="638" d="M-82 -63q63 22 98.5 39t57 40t30 46t15.5 65l162 915q19 81 0.5 125t-101.5 82l80 160q61 -14 109.5 -29.5t85.5 -31.5t63 -37t44 -40.5t27.5 -48t14 -53t2.5 -62t-6 -68.5t-12 -78l-133 -750q-9 -49 -15 -80t-15.5 -68.5t-19 -59.5t-25 -49.5t-33.5 -44t-44.5 -37 t-57.5 -33.5t-72.5 -28t-90.5 -27t-111 -24z" />
<glyph horiz-adv-x="1425" d="M70 535q0 132 45 250.5t129 210t214.5 145t289.5 53.5q276 0 438 -152.5t162 -400.5q0 -132 -45 -250.5t-129 -210t-214.5 -145t-289.5 -53.5q-276 0 -438 152.5t-162 400.5zM139 535q0 -217 143.5 -353.5t391.5 -136.5q139 0 254.5 47t191 128.5t117 189.5t41.5 231 q0 217 -143 353t-392 136q-139 0 -254.5 -47t-191 -128t-117 -189t-41.5 -231zM379 508q-7 104 19.5 189.5t76.5 140t117 84.5t143 30q141 0 289 -112l-57 -56q-34 27 -57 42.5t-74 34t-103 18.5q-119 0 -196 -104.5t-68 -260.5q6 -101 51.5 -159t120.5 -58q127 0 266 90 l49 -61q-51 -31 -85 -48.5t-99 -37t-127 -19.5q-111 0 -185.5 76t-80.5 211z" />
<glyph horiz-adv-x="1990" d="M-197 -217q61 21 98.5 35.5t68.5 35t46 36.5t29 49.5t20.5 62.5t16.5 86l131 741h-133l43 246h133l4 25q38 205 123 299t250 94q173 0 385 -78l14 78h338l-94 -530q174 135 340 135q61 0 114 -21t98.5 -65.5t72 -124t26.5 -185.5q0 -211 -61 -376t-172 -257t-254 -92 q-55 0 -103 12t-89 36t-64.5 41.5t-57.5 46.5l-20 -113h-338l205 1161q-187 43 -271 43q-36 0 -65 -23t-39 -77l-6 -29h237l-47 -246h-233l-127 -714q-13 -75 -20 -111t-20.5 -93t-26 -83.5t-34.5 -67.5t-48.5 -61.5t-64.5 -49t-86.5 -46.5t-110.5 -37.5t-140 -36.5z M1171 367q38 -53 87 -86t102 -33q68 0 120 59.5t77.5 151.5t25.5 200q0 80 -31.5 125t-89.5 45q-40 0 -84 -20.5t-73.5 -43.5t-73.5 -63z" />
<glyph horiz-adv-x="843" d="M-158 -307l348 434l-182 426h260l84 -268l174 268h287l-334 -422l197 -438h-262l-92 266l-183 -266h-297z" />
<glyph horiz-adv-x="569" d="M14 0l207 1176h322l-207 -1176h-322zM63 1542h349l190 -287h-260z" />
<glyph horiz-adv-x="1710" d="M98 827q0 158 100 262.5t263 104.5q146 0 232.5 -73t86.5 -189q0 -160 -99 -263.5t-261 -103.5q-148 0 -235 72.5t-87 189.5zM326 838q0 -97 104 -97q43 0 73.5 34.5t41 73t10.5 71.5q0 48 -24.5 72t-79.5 24q-34 0 -60 -19.5t-39 -49t-19.5 -57.5t-6.5 -52zM332 0 l794 1176h236l-795 -1176h-235zM920 244q0 158 98.5 262t261.5 104q146 0 232.5 -73t86.5 -189q0 -160 -99 -263t-261 -103q-147 0 -233 72.5t-86 189.5zM1145 254q0 -48 24.5 -72t79.5 -24q43 0 73.5 34.5t41 73t10.5 72.5q0 94 -104 94q-34 0 -60 -19.5t-39 -49 t-19.5 -57.5t-6.5 -52z" />
<glyph horiz-adv-x="1198" d="M-33 295q0 118 71.5 195t190.5 77q105 0 167.5 -53t62.5 -137q0 -119 -71 -195t-191 -76q-106 0 -168 52.5t-62 136.5zM133 305q0 -35 16 -52t56 -17q31 0 53 26t29.5 54t7.5 51q0 35 -16.5 52t-55.5 17q-32 0 -54 -26t-29 -54t-7 -51zM135 -307l576 860h172l-576 -860 h-172zM557 -133q0 118 72 195t190 77q106 0 168 -52.5t62 -137.5q0 -119 -71.5 -195t-191.5 -76q-106 0 -167.5 52t-61.5 137zM723 -123q0 -35 16.5 -52.5t55.5 -17.5q31 0 53 26.5t29.5 54.5t7.5 51q0 35 -16.5 52t-55.5 17q-32 0 -54 -26t-29 -54t-7 -51z" />
<glyph horiz-adv-x="1198" d="M162 1391q0 118 71.5 195t190.5 77q104 0 166.5 -53t62.5 -137q0 -119 -71 -195t-191 -76q-106 0 -167.5 52t-61.5 137zM328 1401q0 -36 15.5 -53t55.5 -17q31 0 53 26t29.5 54t7.5 51q0 35 -16.5 52.5t-54.5 17.5q-32 0 -54 -26t-29 -54t-7 -51zM330 788l575 861h172 l-575 -861h-172zM752 963q0 118 72 195t190 77q106 0 167.5 -53t61.5 -138q0 -119 -71 -194.5t-191 -75.5q-106 0 -167.5 52t-61.5 137zM918 973q0 -35 16.5 -52.5t54.5 -17.5q31 0 53 26t29.5 54t7.5 51q0 35 -16.5 52.5t-54.5 17.5q-32 0 -54 -26t-29 -54t-7 -51z" />
<glyph horiz-adv-x="569" d="M14 0l207 1176h322l-207 -1176h-322zM84 1276l45 262h264l-45 -262h-264zM455 1276l45 262h264l-45 -262h-264z" />
<glyph horiz-adv-x="569" d="M14 0l207 1176h322l-207 -1176h-322zM29 1255l256 287h311l154 -287h-211l-111 144l-158 -144h-241z" />
</font>
</defs>
</svg>
