<?xml version="1.0" standalone="no"?>
<!DOCTYPE svg PUBLIC "-//W3C//DTD SVG 1.1//EN" "http://www.w3.org/Graphics/SVG/1.1/DTD/svg11.dtd" >
<svg xmlns="http://www.w3.org/2000/svg">
<metadata></metadata>
<defs>
<font id="verbcondbold_italic" horiz-adv-x="1200" >
<font-face units-per-em="2048" ascent="1638" descent="-410" />
<missing-glyph horiz-adv-x="497" />
<glyph unicode="ff" horiz-adv-x="1499" d="M-193 -238q61 21 98.5 35.5t68.5 36t46.5 38t29 50.5t20 63.5t16.5 88.5l137 784h-131l39 217h131l10 55q32 190 106.5 276.5t225.5 86.5q96 0 193 -32.5t168 -71.5l-134 -191q-108 41 -167 41q-76 0 -97 -104l-10 -60h246l-43 -217h-242l-133 -762q-14 -81 -21.5 -119 t-22.5 -97t-30.5 -85.5t-42.5 -66.5t-60.5 -60t-83 -46.5t-112 -45t-145.5 -37.5zM557 -238q61 21 98.5 35.5t68.5 36t46.5 38t29 50.5t20 63.5t16.5 88.5l137 784h-131l39 217h131l10 55q32 190 106.5 276.5t225.5 86.5q173 0 360 -104l-133 -191q-108 41 -168 41 q-33 0 -59.5 -24.5t-36.5 -79.5l-10 -60h243l-41 -217h-241l-133 -762q-12 -72 -19 -107t-19.5 -89t-25 -79.5t-33 -64t-45.5 -58t-60.5 -46t-81.5 -43.5t-103.5 -35t-131.5 -35z" />
<glyph unicode="fi" horiz-adv-x="1284" d="M-193 -238q61 21 98.5 35.5t68.5 36t46.5 38t29 50.5t20 63.5t16.5 88.5l137 784h-131l39 217h131l10 55q32 189 107 276t223 87q68 0 152 -27t141 -57l-104 -199q-85 29 -127 29q-33 0 -59 -24.5t-36 -79.5l-10 -60h244l-43 -217h-240l-135 -762q-14 -81 -21.5 -119 t-22.5 -97t-30.5 -85.5t-42.5 -66.5t-60.5 -60t-83 -46.5t-112 -45t-145.5 -37.5zM760 0l190 1075h295l-190 -1075h-295zM969 1231l45 256h309l-45 -256h-309z" />
<glyph unicode="fl" horiz-adv-x="1292" d="M-193 -238q61 21 98.5 35.5t68.5 36t46.5 38t29 50.5t20 63.5t16.5 88.5l137 784h-131l39 217h131l10 55q32 189 107 276t223 87q68 0 152 -27t141 -57l-104 -199q-85 29 -127 29q-33 0 -59 -24.5t-36 -79.5l-10 -60h244l-43 -217h-240l-135 -762q-14 -81 -21.5 -119 t-22.5 -97t-30.5 -85.5t-42.5 -66.5t-60.5 -60t-83 -46.5t-112 -45t-145.5 -37.5zM764 0l262 1493h295l-262 -1493h-295z" />
<glyph unicode="ffi" horiz-adv-x="2033" d="M-193 -238q61 21 98.5 35.5t68.5 36t46.5 38t29 50.5t20 63.5t16.5 88.5l137 784h-131l39 217h131l10 55q32 190 106.5 276.5t225.5 86.5q96 0 193 -32.5t168 -71.5l-134 -191q-108 41 -167 41q-76 0 -97 -104l-10 -60h246l-43 -217h-242l-133 -762q-14 -81 -21.5 -119 t-22.5 -97t-30.5 -85.5t-42.5 -66.5t-60.5 -60t-83 -46.5t-112 -45t-145.5 -37.5zM557 -238q61 21 98.5 35.5t68.5 36t46.5 38t29 50.5t20 63.5t16.5 88.5l137 784h-131l39 217h131l10 55q32 189 106 276t222 87q70 0 154 -27t141 -57l-105 -199q-85 29 -127 29 q-76 0 -94 -104l-10 -60h241l-41 -217h-239l-135 -762q-12 -72 -19 -107t-19.5 -89t-25 -79.5t-33 -64t-45.5 -58t-60.5 -46t-81.5 -43.5t-103.5 -35t-131.5 -35zM1509 0l191 1075h295l-191 -1075h-295zM1718 1231l45 256h310l-45 -256h-310z" />
<glyph unicode="ffl" horiz-adv-x="2039" d="M-193 -238q61 21 98.5 35.5t68.5 36t46.5 38t29 50.5t20 63.5t16.5 88.5l137 784h-131l39 217h131l10 55q32 190 106.5 276.5t225.5 86.5q96 0 193 -32.5t168 -71.5l-134 -191q-108 41 -167 41q-76 0 -97 -104l-10 -60h246l-43 -217h-242l-133 -762q-14 -81 -21.5 -119 t-22.5 -97t-30.5 -85.5t-42.5 -66.5t-60.5 -60t-83 -46.5t-112 -45t-145.5 -37.5zM557 -238q61 21 98.5 35.5t68.5 36t46.5 38t29 50.5t20 63.5t16.5 88.5l137 784h-131l39 217h131l10 55q32 189 106 276t222 87q70 0 154 -27t141 -57l-105 -199q-85 29 -127 29 q-76 0 -94 -104l-10 -60h241l-41 -217h-239l-135 -762q-12 -72 -19 -107t-19.5 -89t-25 -79.5t-33 -64t-45.5 -58t-60.5 -46t-81.5 -43.5t-103.5 -35t-131.5 -35zM1513 0l263 1493h295l-263 -1493h-295z" />
<glyph unicode="ffb" horiz-adv-x="2703" d="M-193 -238q61 21 98.5 35.5t68.5 36t46.5 38t29 50.5t20 63.5t16.5 88.5l137 784h-131l39 217h131l10 55q32 190 106.5 276.5t225.5 86.5q96 0 193 -32.5t168 -71.5l-134 -191q-108 41 -167 41q-76 0 -97 -104l-10 -60h246l-43 -217h-242l-133 -762q-14 -81 -21.5 -119 t-22.5 -97t-30.5 -85.5t-42.5 -66.5t-60.5 -60t-83 -46.5t-112 -45t-145.5 -37.5zM557 -238q61 21 98.5 35.5t68.5 36t46.5 38t29 50.5t20 63.5t16.5 88.5l137 784h-131l39 217h131l10 55q32 189 106 276t222 87q70 0 154 -27t141 -57l-105 -199q-85 29 -127 29 q-76 0 -94 -104l-10 -60h241l-41 -217h-239l-135 -762q-12 -72 -19 -107t-19.5 -89t-25 -79.5t-33 -64t-45.5 -58t-60.5 -46t-81.5 -43.5t-103.5 -35t-131.5 -35zM1509 0l263 1493h294l-94 -537q180 142 342 142q62 0 116 -21t99.5 -64.5t72 -121.5t26.5 -182 q0 -212 -60.5 -378.5t-171 -260t-252.5 -93.5q-55 0 -104 12.5t-90.5 38t-66 44t-58.5 49.5l-21 -121h-295zM1864 344q99 -129 213 -129q76 0 133.5 67t85.5 169.5t28 220.5q0 91 -34.5 139.5t-102.5 48.5q-65 0 -125.5 -36.5t-130.5 -100.5z" />
<glyph unicode="ffh" horiz-adv-x="2697" d="M-193 -238q61 21 98.5 35.5t68.5 36t46.5 38t29 50.5t20 63.5t16.5 88.5l137 784h-131l39 217h131l10 55q32 190 106.5 276.5t225.5 86.5q96 0 193 -32.5t168 -71.5l-134 -191q-108 41 -167 41q-76 0 -97 -104l-10 -60h246l-43 -217h-242l-133 -762q-14 -81 -21.5 -119 t-22.5 -97t-30.5 -85.5t-42.5 -66.5t-60.5 -60t-83 -46.5t-112 -45t-145.5 -37.5zM557 -238q61 21 98.5 35.5t68.5 36t46.5 38t29 50.5t20 63.5t16.5 88.5l137 784h-131l39 217h131l10 55q32 189 106 276t222 87q70 0 154 -27t141 -57l-105 -199q-85 29 -127 29 q-76 0 -94 -104l-10 -60h241l-41 -217h-239l-135 -762q-12 -72 -19 -107t-19.5 -89t-25 -79.5t-33 -64t-45.5 -58t-60.5 -46t-81.5 -43.5t-103.5 -35t-131.5 -35zM1509 0l263 1493h294l-96 -541q45 29 80 49.5t87 45.5t104.5 38t103.5 13q161 0 226.5 -101t35.5 -274 l-129 -723h-295l121 692q32 176 -86 176q-64 0 -145 -41.5t-142 -95.5l-127 -731h-295z" />
<glyph unicode="fb" horiz-adv-x="1953" d="M-193 -238q61 21 98.5 35.5t68.5 36t46.5 38t29 50.5t20 63.5t16.5 88.5l137 784h-131l39 217h131l10 55q32 189 107 276t223 87q68 0 152 -27t141 -57l-104 -199q-85 29 -127 29q-33 0 -59 -24.5t-36 -79.5l-10 -60h244l-43 -217h-240l-135 -762q-14 -81 -21.5 -119 t-22.5 -97t-30.5 -85.5t-42.5 -66.5t-60.5 -60t-83 -46.5t-112 -45t-145.5 -37.5zM760 0l262 1493h295l-94 -537q180 142 342 142q63 0 117 -21t99 -64.5t71 -121.5t26 -182q0 -212 -60.5 -378.5t-170.5 -260t-252 -93.5q-55 0 -104 12.5t-91 38t-66.5 44t-58.5 49.5 l-20 -121h-295zM1114 344q99 -129 213 -129q76 0 134 66.5t87 169.5t29 221q0 90 -35.5 139t-103.5 49q-65 0 -125.5 -36.5t-130.5 -100.5z" />
<glyph unicode="ffj" horiz-adv-x="2031" d="M-193 -238q61 21 98.5 35.5t68.5 36t46.5 38t29 50.5t20 63.5t16.5 88.5l137 784h-131l39 217h131l10 55q32 190 106.5 276.5t225.5 86.5q96 0 193 -32.5t168 -71.5l-134 -191q-108 41 -167 41q-76 0 -97 -104l-10 -60h246l-43 -217h-242l-133 -762q-14 -81 -21.5 -119 t-22.5 -97t-30.5 -85.5t-42.5 -66.5t-60.5 -60t-83 -46.5t-112 -45t-145.5 -37.5zM557 -238q61 21 98.5 35.5t68.5 36t46.5 38t29 50.5t20 63.5t16.5 88.5l137 784h-131l39 217h131l10 55q32 189 106 276t222 87q70 0 154 -27t141 -57l-105 -199q-85 29 -127 29 q-76 0 -94 -104l-10 -60h241l-41 -217h-239l-135 -762q-12 -72 -19 -107t-19.5 -89t-25 -79.5t-33 -64t-45.5 -58t-60.5 -46t-81.5 -43.5t-103.5 -35t-131.5 -35zM1243 -238q60 20 98.5 35t68 33t45 31t27.5 38t17 45t12 60l189 1071h295l-185 -1048q-29 -162 -54 -222 q-43 -101 -146 -161q-103 -58 -307 -105zM1720 1231l45 256h310l-45 -256h-310z" />
<glyph unicode="ffk" horiz-adv-x="2594" d="M-193 -238q61 21 98.5 35.5t68.5 36t46.5 38t29 50.5t20 63.5t16.5 88.5l137 784h-131l39 217h131l10 55q32 190 106.5 276.5t225.5 86.5q96 0 193 -32.5t168 -71.5l-134 -191q-108 41 -167 41q-76 0 -97 -104l-10 -60h246l-43 -217h-242l-133 -762q-14 -81 -21.5 -119 t-22.5 -97t-30.5 -85.5t-42.5 -66.5t-60.5 -60t-83 -46.5t-112 -45t-145.5 -37.5zM557 -238q61 21 98.5 35.5t68.5 36t46.5 38t29 50.5t20 63.5t16.5 88.5l137 784h-131l39 217h131l10 55q32 189 106 276t222 87q70 0 154 -27t141 -57l-105 -199q-85 29 -127 29 q-76 0 -94 -104l-10 -60h241l-41 -217h-239l-135 -762q-12 -72 -19 -107t-19.5 -89t-25 -79.5t-33 -64t-45.5 -58t-60.5 -46t-81.5 -43.5t-103.5 -35t-131.5 -35zM1509 0l263 1493h294l-143 -813l342 395h365l-426 -440l290 -635h-299l-186 434l-158 -164l-47 -270h-295z " />
<glyph unicode="fft" horiz-adv-x="2308" d="M-193 -238q61 21 98.5 35.5t68.5 36t46.5 38t29 50.5t20 63.5t16.5 88.5l137 784h-131l39 217h131l10 55q32 190 106.5 276.5t225.5 86.5q96 0 193 -32.5t168 -71.5l-134 -191q-108 41 -167 41q-76 0 -97 -104l-10 -60h246l-43 -217h-242l-133 -762q-14 -81 -21.5 -119 t-22.5 -97t-30.5 -85.5t-42.5 -66.5t-60.5 -60t-83 -46.5t-112 -45t-145.5 -37.5zM557 -238q61 21 98.5 35.5t68.5 36t46.5 38t29 50.5t20 63.5t16.5 88.5l137 784h-131l39 217h131l10 55q32 190 106.5 276.5t225.5 86.5q173 0 360 -104l-133 -191q-108 41 -168 41 q-33 0 -59.5 -24.5t-36.5 -79.5l-10 -60h243l-41 -217h-241l-133 -762q-12 -72 -19 -107t-19.5 -89t-25 -79.5t-33 -64t-45.5 -58t-60.5 -46t-81.5 -43.5t-103.5 -35t-131.5 -35zM1585 858l39 217h135l47 271l303 40l-55 -311h266l-39 -217h-266l-92 -522q-17 -103 59 -103 q51 0 156 48l70 -230q-207 -74 -332 -74q-149 0 -212 99t-30 289l86 493h-135z" />
<glyph unicode="fh" horiz-adv-x="1949" d="M-193 -238q61 21 98.5 35.5t68.5 36t46.5 38t29 50.5t20 63.5t16.5 88.5l137 784h-131l39 217h131l10 55q32 189 107 276t223 87q68 0 152 -27t141 -57l-104 -199q-85 29 -127 29q-33 0 -59 -24.5t-36 -79.5l-10 -60h244l-43 -217h-240l-135 -762q-14 -81 -21.5 -119 t-22.5 -97t-30.5 -85.5t-42.5 -66.5t-60.5 -60t-83 -46.5t-112 -45t-145.5 -37.5zM760 0l262 1493h295l-96 -543q216 148 374 148q162 0 228.5 -101.5t34.5 -273.5l-127 -723h-297l120 692q32 176 -86 176q-65 0 -145.5 -42.5t-140.5 -96.5l-127 -729h-295z" />
<glyph unicode="fj" horiz-adv-x="1282" d="M-193 -238q61 21 98.5 35.5t68.5 36t46.5 38t29 50.5t20 63.5t16.5 88.5l137 784h-131l39 217h131l10 55q32 189 107 276t223 87q68 0 152 -27t141 -57l-104 -199q-85 29 -127 29q-33 0 -59 -24.5t-36 -79.5l-10 -60h244l-43 -217h-240l-135 -762q-14 -81 -21.5 -119 t-22.5 -97t-30.5 -85.5t-42.5 -66.5t-60.5 -60t-83 -46.5t-112 -45t-145.5 -37.5zM494 -238q60 20 98.5 35t68.5 33t45.5 31.5t27 37.5t16.5 45t12 60l188 1071h295l-184 -1048q-12 -66 -18 -96.5t-20 -80t-29 -73t-41 -59t-60 -54.5t-82.5 -44t-112 -43.5t-145.5 -37.5z M971 1231l45 256h309l-45 -256h-309z" />
<glyph unicode="fk" horiz-adv-x="1845" d="M-193 -238q61 21 98.5 35.5t68.5 36t46.5 38t29 50.5t20 63.5t16.5 88.5l137 784h-131l39 217h131l10 55q32 189 107 276t223 87q68 0 152 -27t141 -57l-104 -199q-85 29 -127 29q-33 0 -59 -24.5t-36 -79.5l-10 -60h244l-43 -217h-240l-135 -762q-14 -81 -21.5 -119 t-22.5 -97t-30.5 -85.5t-42.5 -66.5t-60.5 -60t-83 -46.5t-112 -45t-145.5 -37.5zM760 0l262 1493h295l-143 -815l342 397h364l-426 -440l291 -635h-299l-186 434l-158 -164l-47 -270h-295z" />
<glyph unicode="ft" horiz-adv-x="1558" d="M-193 -238q61 21 98.5 35.5t68.5 36t46.5 38t29 50.5t20 63.5t16.5 88.5l137 784h-131l39 217h131l10 55q32 190 106.5 276.5t225.5 86.5q96 0 193 -32.5t168 -71.5l-134 -191q-108 41 -167 41q-76 0 -97 -104l-10 -60h246l-43 -217h-242l-133 -762q-14 -81 -21.5 -119 t-22.5 -97t-30.5 -85.5t-42.5 -66.5t-60.5 -60t-83 -46.5t-112 -45t-145.5 -37.5zM838 858l36 217h136l49 271l301 40l-55 -311h266l-39 -217h-266l-92 -522q-17 -103 59 -103q51 0 156 48l69 -230q-207 -74 -332 -74q-149 0 -211.5 99t-29.5 289l88 493h-135z" />
<glyph unicode=" "  horiz-adv-x="497" />
<glyph unicode="&#x09;" horiz-adv-x="497" />
<glyph unicode="&#xa0;" horiz-adv-x="497" />
<glyph unicode="!" horiz-adv-x="569" d="M27 0l55 311h301l-55 -311h-301zM170 463l80 971h358l-260 -971h-178z" />
<glyph unicode="&#x22;" horiz-adv-x="862" d="M180 874l49 560h283l-150 -560h-182zM584 874l49 560h282l-149 -560h-182z" />
<glyph unicode="#" horiz-adv-x="1404" d="M25 324l41 223h241l109 340h-213l41 223h241l103 324h231l-104 -324h256l104 324h230l-103 -324h213l-41 -223h-241l-109 -340h213l-41 -223h-242l-102 -324h-231l102 324h-256l-102 -324h-230l103 324h-213zM537 547h256l108 340h-256z" />
<glyph unicode="$" horiz-adv-x="1271" d="M4 193l164 208q155 -100 303 -145l61 342l-69 31q-49 23 -86.5 46t-76.5 57.5t-64.5 73t-41.5 91.5t-16 115q0 190 136.5 315.5t369.5 128.5l33 184h213l-37 -208q187 -43 375 -158l-164 -205q-109 68 -256 111l-57 -324l69 -31q49 -23 86.5 -45t79.5 -57t68.5 -74 t44.5 -94.5t18 -120.5q0 -198 -143 -326t-379 -131l-31 -182h-213l35 205q-227 49 -422 193zM510 1044q0 -38 20.5 -63t61.5 -47l45 258q-57 -14 -92 -52t-35 -96zM682 238q65 16 105 56.5t40 100.5q0 71 -96 123z" />
<glyph unicode="%" horiz-adv-x="1929" d="M141 999q0 198 114 327.5t298 129.5q162 0 255 -85.5t93 -225.5q0 -198 -113 -327.5t-296 -129.5q-164 0 -257.5 85t-93.5 226zM365 1012q0 -73 30 -110.5t105 -37.5q57 0 100 47t61.5 106.5t18.5 115.5q0 72 -30.5 109.5t-104.5 37.5q-44 0 -80 -27.5t-57 -69.5 t-32 -86.5t-11 -84.5zM399 0l932 1434h232l-934 -1434h-230zM1063 289q0 197 114 326.5t296 129.5q162 0 256 -85.5t94 -225.5q0 -198 -114 -327.5t-298 -129.5q-162 0 -255 85.5t-93 226.5zM1284 301q0 -73 30 -110t107 -37q44 0 79.5 27t56 69t31.5 87t11 85q0 73 -30 110 t-105 37q-44 0 -80 -27.5t-57 -69.5t-32 -86.5t-11 -84.5z" />
<glyph unicode="&#x26;" horiz-adv-x="1390" d="M63 332q0 77 27.5 144.5t79.5 122.5t106.5 96t129.5 85q-57 78 -86 149t-29 154q0 167 120 270t304 103q169 0 269.5 -85.5t100.5 -219.5q0 -67 -26 -127.5t-77.5 -114.5t-103 -94.5t-126.5 -89.5l174 -223q82 124 129 254h295q-31 -107 -97 -233.5t-159 -237.5l221 -285 h-314l-90 117q-198 -140 -422 -140q-193 0 -309.5 97t-116.5 258zM356 344q0 -61 38 -103t116 -42q124 0 252 112l-215 281q-92 -64 -141.5 -123t-49.5 -125zM557 1075q0 -79 64 -174q93 57 142.5 111t49.5 118q0 49 -25.5 82t-80.5 33q-70 0 -110 -50.5t-40 -119.5z" />
<glyph unicode="'" horiz-adv-x="458" d="M180 874l49 560h283l-150 -560h-182z" />
<glyph unicode="(" horiz-adv-x="657" d="M28 -32.5q-7 89.5 17 220.5l186 1047q11 64 19 102.5t22 84.5t30 72.5t43 57.5t60.5 50.5t82.5 41.5t109.5 39t141.5 35l49 -178q-75 -26 -116 -46t-67 -49t-35.5 -57.5t-20.5 -84.5l-209 -1180q-15 -71 -11 -116.5t33.5 -75t102.5 -62.5l-78 -162q-188 47 -270 109 t-89 151.5z" />
<glyph unicode=")" horiz-adv-x="655" d="M-100 -115q60 21 97.5 39t63 35t40 43t22.5 51t16 70l209 1180q15 71 10.5 116.5t-33.5 74.5t-102 62l78 162q188 -47 270 -109t89 -151.5t-17 -220.5l-186 -1047q-11 -64 -19 -102.5t-22 -84.5t-30 -72.5t-43 -57.5t-60.5 -50.5t-82.5 -41.5t-109.5 -39t-141.5 -35z" />
<glyph unicode="*" horiz-adv-x="978" d="M154 1014l327 30l-295 146l158 188l191 -270l-25 330l242 -43l-136 -301l269 190l84 -233l-316 -33l285 -144l-160 -188l-186 258l22 -319l-241 43l137 299l-272 -185z" />
<glyph unicode="+" horiz-adv-x="1257" d="M135 571l39 224h373l65 372h226l-66 -372h375l-41 -224h-373l-65 -372h-228l66 372h-371z" />
<glyph unicode="," horiz-adv-x="536" d="M-37 -227l180 227h-135l60 338h301l-47 -375l-297 -291z" />
<glyph unicode="-" horiz-adv-x="839" d="M88 463l41 239h610l-43 -239h-608z" />
<glyph unicode="." horiz-adv-x="530" d="M8 0l60 338h301l-60 -338h-301z" />
<glyph unicode="/" horiz-adv-x="931" d="M-92 -184l926 1802h231l-926 -1802h-231z" />
<glyph unicode="0" horiz-adv-x="1335" d="M102 502q0 70 9 149t31.5 173t56.5 181.5t88 170.5t121 144.5t161 98.5t203 37q113 0 200.5 -28t143 -75.5t91.5 -116t50.5 -143.5t14.5 -163q0 -70 -9 -149.5t-31.5 -173t-56.5 -181.5t-88 -171t-121.5 -144.5t-162 -98.5t-203.5 -37q-112 0 -199 28t-143 76 t-91.5 116.5t-50 143.5t-14.5 163zM410 479q0 -45 2.5 -76.5t13 -70t30 -61.5t55.5 -39.5t87 -16.5q77 0 141.5 59.5t105 147t69 192t40 191t11.5 147.5q0 45 -2.5 76.5t-13.5 70t-30.5 62t-55.5 40t-87 16.5q-65 0 -121.5 -41.5t-95 -109t-68.5 -148.5t-47 -165.5 t-25.5 -154t-8.5 -119.5z" />
<glyph unicode="1" horiz-adv-x="813" d="M111 1217l403 217h291l-254 -1434h-305l198 1128l-241 -127z" />
<glyph unicode="2" horiz-adv-x="1183" d="M-35 0l25 141q16 93 55.5 174.5t79.5 134.5t117 115t121.5 91t139.5 87q2 1 3 2q191 118 242 157q101 78 112 152q2 11 2 23q0 56 -42 90.5t-118 34.5q-153 0 -370 -133l-109 213q253 174 522 174q206 0 317.5 -101.5t111.5 -262.5q0 -45 -10 -88.5t-25.5 -79.5 t-42.5 -73t-52.5 -65.5t-65 -61t-70 -55t-77 -52t-76.5 -47.5t-79 -46q-21 -12 -31 -18q-140 -79 -192.5 -129t-65.5 -123h637l-43 -254h-1016z" />
<glyph unicode="3" horiz-adv-x="1196" d="M-35 182l156 193q228 -139 389 -139q118 0 185 56.5t67 147.5q0 55 -27.5 95t-76 61t-103.5 30t-121 9h-57l45 256h67q56 0 111.5 11.5t105.5 34t81.5 61t31.5 87.5q0 54 -36.5 85.5t-106.5 31.5q-81 0 -180 -37t-179 -84l-96 209q255 166 518 166q196 0 298 -89 t102 -226q0 -117 -74.5 -211.5t-208.5 -153.5q96 -33 156.5 -125t60.5 -215q0 -64 -17 -126.5t-57.5 -123.5t-100.5 -106.5t-153 -74t-208 -28.5q-306 0 -572 205z" />
<glyph unicode="4" horiz-adv-x="1296" d="M-14 276l39 216l755 942h410l-160 -904h199l-45 -254h-199l-49 -276h-305l49 276h-694zM348 530h377l106 607z" />
<glyph unicode="5" horiz-adv-x="1181" d="M-18 182l170 195q177 -137 329 -137q114 0 197.5 68.5t83.5 185.5q0 89 -51 142.5t-150 53.5q-47 0 -96 -14.5t-78.5 -29.5t-77.5 -42l-166 109l197 721h846l-45 -254h-582l-61 -262q82 20 157 20q137 0 234 -59t142.5 -154t45.5 -215q0 -105 -37.5 -200t-107.5 -169.5 t-180 -119t-244 -44.5q-286 0 -526 205z" />
<glyph unicode="6" horiz-adv-x="1243" d="M84 512q0 193 68 366.5t186.5 301t287.5 202t361 74.5q70 0 131 -10t87 -20l26 -9l-113 -223q-53 12 -125 12q-174 0 -322.5 -100.5t-221.5 -286.5q122 105 296 105q185 0 296.5 -116.5t111.5 -295.5q0 -104 -37 -200t-104.5 -171t-173 -119.5t-232.5 -44.5 q-126 0 -227 44t-164.5 118.5t-97 170t-33.5 202.5zM391 494q0 -112 55.5 -189.5t155.5 -77.5q114 0 179 82t65 189q0 82 -51 139t-144 57q-81 0 -152.5 -45.5t-105.5 -97.5q-2 -18 -2 -57z" />
<glyph unicode="7" horiz-adv-x="1019" d="M84 0q26 151 100 324.5t150 302.5t174 265.5t141 189.5t82 98h-586l43 254h942l-43 -236q-12 -13 -33 -37t-83 -100t-120 -155t-132 -194t-132 -225t-107.5 -240t-69.5 -247h-326z" />
<glyph unicode="8" horiz-adv-x="1269" d="M35 352q0 286 371 439q-158 118 -158 284q0 169 135.5 275t368.5 106q212 0 330 -90t118 -238q0 -222 -280 -362q107 -61 171 -144.5t64 -207.5q0 -196 -164.5 -316.5t-439.5 -120.5q-245 0 -380.5 99t-135.5 276zM348 383q0 -79 56 -125.5t155 -46.5q119 0 202 62.5 t83 156.5q0 130 -193 229q-64 -23 -112 -46t-94.5 -56t-71.5 -77t-25 -97zM543 1047q0 -101 129 -164q49 17 86 35t70.5 43t51 58.5t17.5 74.5q0 58 -41.5 97.5t-114.5 39.5q-84 0 -141 -55.5t-57 -128.5z" />
<glyph unicode="9" horiz-adv-x="1243" d="M49 16l113 224q51 -13 123 -13q176 0 324.5 101t221.5 288q-119 -106 -299 -106q-185 0 -295 116.5t-110 295.5q0 104 37 200t104.5 170.5t172.5 119t231 44.5t227.5 -43.5t164.5 -118.5t96.5 -170t33.5 -202q0 -193 -68 -366.5t-185.5 -301t-286.5 -202.5t-361 -75 q-71 0 -132 9.5t-87 19.5zM434 936q0 -83 50.5 -140t144.5 -57q81 0 153.5 47t104.5 99q2 18 2 55q0 112 -56 189t-157 77q-114 0 -178 -81t-64 -189z" />
<glyph unicode=":" horiz-adv-x="557" d="M16 0l60 338h301l-60 -338h-301zM139 645l60 338h301l-60 -338h-301z" />
<glyph unicode=";" horiz-adv-x="563" d="M-27 -227l181 227h-136l60 338h301l-47 -375l-297 -291zM133 645l60 338h301l-60 -338h-301z" />
<glyph unicode="&#x3c;" horiz-adv-x="1257" d="M111 582l36 202l1043 420l-45 -262l-723 -272l627 -275l-41 -233z" />
<glyph unicode="=" horiz-adv-x="1257" d="M98 379l39 223h973l-39 -223h-973zM166 768l41 223h973l-41 -223h-973z" />
<glyph unicode="&#x3e;" horiz-adv-x="1257" d="M90 162l45 262l723 272l-627 275l41 233l897 -420l-36 -202z" />
<glyph unicode="?" horiz-adv-x="1040" d="M164 0l55 311h301l-53 -311h-303zM180 1311q235 145 469 145q185 0 294.5 -92.5t109.5 -251.5q0 -101 -42.5 -182t-117.5 -136t-163 -90.5t-193 -56.5l-48 -184h-184l43 350q199 37 297 96.5t98 157.5q0 64 -40 99.5t-117 35.5q-125 0 -310 -110z" />
<glyph unicode="@" horiz-adv-x="1841" d="M59 381q0 206 70.5 391.5t197.5 326t317 223.5t415 83q154 0 276.5 -42t202.5 -113.5t130 -169t67.5 -205.5t7.5 -226q-5 -60 -15 -120t-29.5 -131.5t-45 -135t-64.5 -124t-86 -103.5t-112 -69.5t-140 -26.5q-72 0 -122 24.5t-72.5 65t-30.5 78.5t-6 79q-64 -59 -147 -99 t-173 -40q-113 0 -184.5 75.5t-71.5 196.5q0 83 28.5 149.5t77.5 108t112 63.5t135 22q31 0 65.5 -3.5t70.5 -10.5t60 -12t58.5 -13.5t42.5 -10.5l16 90q15 92 -12.5 130t-112.5 38q-120 0 -328 -82l-51 160q231 90 420 90q182 0 253 -84.5t40 -265.5l-59 -336 q-9 -51 -13 -78.5t-7.5 -64.5t0.5 -56.5t12.5 -39t27 -27.5t45.5 -8q105 0 198.5 169.5t112.5 401.5q4 66 3 132t-19 130t-45.5 121.5t-76 106t-109.5 84t-147 55.5t-189 20q-203 0 -372.5 -75.5t-281 -203t-172.5 -294t-61 -350.5q0 -286 150.5 -460.5t418.5 -174.5 q97 0 189 22t135 44l43 22l53 -88q-7 -4 -20.5 -11.5t-57 -26t-90 -32.5t-117 -25.5t-141.5 -11.5q-205 0 -358.5 97.5t-232.5 266t-79 384.5zM668 346q0 -65 33.5 -98t89.5 -33q54 0 121 33t132 90q3 24 14 82.5t15 79.5q-149 35 -213 35q-96 0 -144 -54.5t-48 -134.5z" />
<glyph unicode="A" horiz-adv-x="1353" d="M-90 0l745 1434h338l238 -1434h-320l-30 285h-492l-129 -285h-350zM500 526h354l-66 625z" />
<glyph unicode="B" horiz-adv-x="1335" d="M39 0l252 1434h530q216 0 336.5 -85.5t120.5 -236.5q0 -76 -29.5 -141.5t-75 -107t-94 -67.5t-92.5 -32q28 -5 58 -18t64 -39.5t60 -61t43 -87.5t17 -116q0 -212 -134.5 -327t-379.5 -115h-676zM387 238h258q135 0 210 62.5t75 174.5q0 80 -58.5 123t-171.5 43h-243z M496 862h225q99 0 171.5 51t72.5 148q0 135 -193 135h-217z" />
<glyph unicode="C" horiz-adv-x="1259" d="M92 541q0 212 52 386t142.5 289t212.5 177.5t263 62.5q67 0 134.5 -14.5t117 -32.5t113.5 -53t98.5 -57.5t97.5 -65.5l-168 -215q-116 83 -198 122.5t-164 39.5q-115 0 -204 -85.5t-135 -224t-46 -303.5q0 -315 198 -315q137 0 412 158l127 -242q-174 -92 -320 -141.5 t-293 -49.5q-204 0 -322 141t-118 423z" />
<glyph unicode="D" horiz-adv-x="1396" d="M39 0l252 1434h387q174 0 303 -42.5t206.5 -121t114.5 -182t37 -232.5q0 -73 -10 -148.5t-36 -160.5t-65.5 -162t-102.5 -148.5t-142.5 -123t-191 -82.5t-242.5 -31h-510zM389 260h117q108 0 197 34t148.5 90.5t100 133.5t58.5 160.5t18 173.5q0 171 -94 246.5t-279 75.5 h-102z" />
<glyph unicode="E" horiz-adv-x="1183" d="M39 0l254 1434h942l-45 -260h-637l-57 -330h522l-45 -254h-522l-60 -330h649l-45 -260h-956z" />
<glyph unicode="F" horiz-adv-x="1134" d="M39 0l254 1434h942l-45 -260h-637l-57 -330h503l-45 -256h-503l-105 -588h-307z" />
<glyph unicode="G" horiz-adv-x="1368" d="M92 532q0 220 53.5 397.5t146 291.5t214.5 174.5t262 60.5q86 0 168 -19t161 -58t130 -70t127 -82l-168 -215q-2 2 -39 26t-43.5 27.5t-39.5 24t-44.5 25.5t-40.5 20t-46 19.5t-42 12.5t-47 10.5t-45 2.5q-117 0 -207 -85t-136 -224.5t-46 -307.5q0 -325 204 -325 q140 0 330 170l31 172h-305l41 241h589l-145 -821h-283l25 141q-94 -78 -185.5 -121t-193.5 -43q-191 0 -308.5 142t-117.5 413z" />
<glyph unicode="H" horiz-adv-x="1402" d="M39 0l254 1434h305l-98 -555h497l99 555h307l-254 -1434h-305l108 625h-497l-109 -625h-307z" />
<glyph unicode="I" horiz-adv-x="600" d="M39 0l254 1434h305l-252 -1434h-307z" />
<glyph unicode="J" horiz-adv-x="600" d="M-207 -121q85 27 131.5 47t75 48t38.5 56t21 83l232 1321h307l-229 -1305q-29 -161 -53 -220q-43 -102 -146 -162q-102 -59 -311 -107z" />
<glyph unicode="K" horiz-adv-x="1335" d="M39 0l254 1434h305l-109 -611l564 611h405l-657 -666l430 -768h-338l-299 557l-184 -186l-64 -371h-307z" />
<glyph unicode="L" horiz-adv-x="1095" d="M39 0l254 1434h305l-207 -1180h617l-43 -254h-926z" />
<glyph unicode="M" horiz-adv-x="1644" d="M39 0l254 1434h313l201 -844l522 844h313l-251 -1434h-308l158 889l-405 -649h-152l-174 696l-164 -936h-307z" />
<glyph unicode="N" horiz-adv-x="1433" d="M39 0l254 1434h307l358 -967l168 967h308l-254 -1434h-306l-360 971l-168 -971h-307z" />
<glyph unicode="O" horiz-adv-x="1476" d="M92 561q0 134 27.5 261t86 242.5t143 202t207.5 138t269 51.5q294 0 444 -154t150 -423q0 -134 -27.5 -262t-86.5 -244.5t-144 -204t-208 -139.5t-269 -52q-293 0 -442.5 156t-149.5 428zM408 582q0 -61 7 -109t26 -93.5t50.5 -75.5t83.5 -48t121 -18q84 0 154.5 43 t116 110t77.5 150.5t46 162.5t14 148q0 77 -12.5 134.5t-43 106.5t-89 75t-144.5 26q-84 0 -155 -43t-116.5 -109.5t-77 -150t-45 -161.5t-13.5 -148z" />
<glyph unicode="P" horiz-adv-x="1302" d="M39 0l254 1434h493q260 0 393.5 -103t133.5 -307q0 -77 -20.5 -150.5t-66.5 -140t-111.5 -116.5t-162.5 -79.5t-213 -29.5h-303l-90 -508h-307zM481 760h213q138 0 220.5 68t82.5 188q0 164 -215 164h-229z" />
<glyph unicode="Q" horiz-adv-x="1476" d="M92 561q0 134 27.5 261t86 242.5t143 202t207.5 138t269 51.5q294 0 444 -154t150 -423q0 -133 -28 -260.5t-82.5 -241t-143 -204t-200.5 -140.5l188 -191l-221 -190l-264 325q-192 3 -322.5 77t-192 202t-61.5 305zM408 582q0 -61 7 -109t26 -93.5t50.5 -75.5t83.5 -48 t121 -18q84 0 154.5 43t116 110t77.5 150.5t46 162.5t14 148q0 77 -12.5 134.5t-43 106.5t-89 75t-144.5 26q-84 0 -155 -43t-116.5 -109.5t-77 -150t-45 -161.5t-13.5 -148z" />
<glyph unicode="R" horiz-adv-x="1359" d="M39 0l254 1434h553q514 0 514 -390q0 -80 -26 -156.5t-76.5 -143.5t-133 -115t-186.5 -66l238 -563h-320l-207 555h-205l-98 -555h-307zM487 797h261q140 0 218 62t78 177q0 86 -59.5 121t-165.5 35h-262z" />
<glyph unicode="S" horiz-adv-x="1236" d="M-14 193l164 208q108 -69 229.5 -119.5t218.5 -50.5q91 0 151 45t60 119q0 36 -19.5 64t-59.5 49.5t-80 37.5t-101.5 39.5t-104.5 43.5q-49 23 -86.5 46t-76.5 57.5t-64 73t-41 91.5t-16 115q0 193 139 318.5t377 125.5q273 0 573 -182l-164 -205q-82 52 -197 92.5 t-200 40.5q-82 0 -139 -42t-57 -116q0 -34 16 -58t51.5 -43t72.5 -33t99 -38t111 -47t86.5 -45t79.5 -57t68.5 -74t44.5 -94.5t18 -120.5q0 -200 -146 -328.5t-387 -128.5q-171 0 -335 63.5t-285 152.5z" />
<glyph unicode="T" horiz-adv-x="1132" d="M129 1174l45 260h1073l-47 -260h-381l-207 -1174h-307l207 1174h-383z" />
<glyph unicode="U" horiz-adv-x="1382" d="M131 616l145 818h308l-156 -881q-13 -56 -13 -106q1 -8 1 -16q2 -57 20 -99.5t65.5 -67t121.5 -24.5q75 0 130.5 23.5t90 68.5t54 97.5t32.5 123.5l155 881h308l-158 -893q-15 -82 -36 -149.5t-54 -133.5t-81 -115.5t-111 -87.5t-148.5 -58t-190.5 -20q-141 0 -241 33 t-155.5 88t-81.5 139q-26 82 -26 171q0 91 21 208z" />
<glyph unicode="V" horiz-adv-x="1347" d="M154 1434h338l118 -1082l490 1082h375l-742 -1434h-340z" />
<glyph unicode="W" horiz-adv-x="1853" d="M172 1434h336l22 -985l396 985h258l53 -985l365 985h358l-619 -1434h-297l-61 975l-393 -975h-303z" />
<glyph unicode="X" horiz-adv-x="1261" d="M-100 0l567 721l-293 713h336l160 -514l334 514h374l-542 -711l313 -723h-338l-176 506l-346 -506h-389z" />
<glyph unicode="Y" horiz-adv-x="1259" d="M143 1434h326l180 -594l389 594h359l-623 -861l-102 -573h-305l98 567z" />
<glyph unicode="Z" horiz-adv-x="1218" d="M-47 0l41 236l825 938h-618l45 260h1032l-41 -236l-829 -938h673l-45 -260h-1083z" />
<glyph unicode="[" horiz-adv-x="710" d="M-25 -293l355 2011h532l-31 -176h-227l-293 -1661h228l-33 -174h-531z" />
<glyph unicode="\" horiz-adv-x="911" d="M213 1618h209l311 -1802h-207z" />
<glyph unicode="]" horiz-adv-x="712" d="M-117 -293l31 176h227l293 1661h-227l33 174h530l-354 -2011h-533z" />
<glyph unicode="^" horiz-adv-x="1257" d="M137 670l486 764h303l219 -764h-303l-105 454l-262 -454h-338z" />
<glyph unicode="_" horiz-adv-x="1359" d="M-57 -358l34 211h1133l-37 -211h-1130z" />
<glyph unicode="`" horiz-adv-x="466" d="M227 1493h314l190 -283h-227z" />
<glyph unicode="a" horiz-adv-x="1212" d="M51 367q0 211 62 377.5t174.5 260t255.5 93.5q53 0 100 -13t89.5 -40t64.5 -44.5t59 -50.5l23 125h295l-189 -1075h-295l23 131q-180 -154 -359 -154q-60 0 -112 20.5t-96 64.5t-69.5 122t-25.5 183zM354 403q0 -90 32.5 -140t94.5 -50q69 0 132.5 40.5t140.5 113.5 l63 358q-99 135 -209 135q-78 0 -137 -67t-88 -169.5t-29 -220.5z" />
<glyph unicode="b" horiz-adv-x="1204" d="M10 0l264 1493h295l-96 -537q180 142 344 142q62 0 116 -21t99.5 -64.5t71.5 -121.5t26 -182q0 -212 -61 -378.5t-171 -260t-251 -93.5q-55 0 -104 13t-91.5 38.5t-66.5 44.5t-59 50l-21 -123h-295zM367 346q43 -58 98 -94.5t115 -36.5q75 0 132.5 66.5t86 169.5 t28.5 221q0 91 -34.5 139.5t-102.5 48.5q-66 0 -128 -37t-130 -102z" />
<glyph unicode="c" horiz-adv-x="1005" d="M49 420q0 164 45 296.5t120 214t165.5 124.5t187.5 43q33 0 64.5 -3t62.5 -10.5t55.5 -13.5t55.5 -19t48 -20t48 -24t41 -22t41 -23.5t35 -20.5l-137 -203q-1 1 -38 23.5t-52.5 30.5t-48.5 24t-60 22.5t-53 6.5q-78 0 -142 -58.5t-98.5 -149.5t-34.5 -192 q0 -102 39.5 -159.5t118.5 -57.5q24 0 53 6.5t64.5 20.5t57 23.5t61 29t47.5 23.5l94 -228q-63 -28 -94 -40.5t-100.5 -38t-131 -37t-119.5 -11.5q-177 0 -286 113.5t-109 329.5z" />
<glyph unicode="d" horiz-adv-x="1212" d="M51 367q0 211 62 377.5t174.5 260t255.5 93.5q53 0 100 -13t89.5 -40t64.5 -44.5t59 -50.5l96 543h295l-262 -1493h-295l23 133q-178 -156 -359 -156q-60 0 -112 20.5t-96 64.5t-69.5 122t-25.5 183zM354 403q0 -90 32.5 -140t94.5 -50q69 0 132.5 40.5t140.5 113.5 l63 358q-99 135 -209 135q-78 0 -137 -67t-88 -169.5t-29 -220.5z" />
<glyph unicode="e" horiz-adv-x="1097" d="M47 432q0 190 70.5 340t208 238t321.5 88q183 0 292.5 -83.5t109.5 -221.5q0 -83 -31 -146t-83.5 -102.5t-131 -63.5t-164.5 -33.5t-193 -9.5h-100v-18q0 -223 168 -223q47 0 116 21.5t106 38t127 58.5q13 6 20 9l86 -205q-56 -28 -120.5 -55.5t-180 -57t-213.5 -29.5 q-192 0 -300 112t-108 343zM369 598h90q147 0 227 46t80 128q0 52 -36 83.5t-93 31.5q-97 0 -165.5 -82t-102.5 -207z" />
<glyph unicode="f" horiz-adv-x="749" d="M-193 -238q61 21 98.5 35.5t68.5 36t46.5 38t29 50.5t20 63.5t16.5 88.5l137 784h-131l39 217h131l10 55q32 190 106.5 276.5t225.5 86.5q96 0 193 -32.5t168 -71.5l-134 -191q-108 41 -167 41q-34 0 -60.5 -24.5t-36.5 -79.5l-10 -60h244l-41 -217h-242l-133 -762 q-14 -81 -21.5 -119t-22.5 -97t-30.5 -85.5t-42.5 -66.5t-60.5 -60t-83 -46.5t-112 -45t-145.5 -37.5z" />
<glyph unicode="g" horiz-adv-x="1212" d="M-45 -352l96 227q236 -80 402 -80q202 0 233 187l27 149q-185 -154 -359 -154q-60 0 -112 20.5t-96 64.5t-69.5 122t-25.5 183q0 211 62.5 377.5t174.5 260t255 93.5q53 0 100 -13t89.5 -40t64.5 -44.5t59 -50.5l23 125h295l-191 -1081q-22 -127 -63 -212t-106 -133 t-145 -67.5t-192 -19.5q-252 0 -522 86zM354 403q0 -90 32.5 -140t94.5 -50q119 0 273 154l63 360q-101 133 -209 133q-77 0 -136 -66.5t-88.5 -169.5t-29.5 -221z" />
<glyph unicode="h" d="M10 0l264 1493h295l-96 -541q220 146 373 146q162 0 228 -101q44 -68 45 -168q0 -49 -11 -106l-127 -723h-297l123 692q7 37 7 66q0 110 -95 110q-63 0 -143.5 -42t-141.5 -95l-129 -731h-295z" />
<glyph unicode="i" horiz-adv-x="532" d="M10 0l191 1075h295l-191 -1075h-295zM219 1231l45 256h309l-45 -256h-309z" />
<glyph unicode="j" horiz-adv-x="534" d="M-256 -238q60 20 98.5 35t68.5 33t45.5 31.5t27 37.5t16.5 45t12 60l189 1071h295l-185 -1048q-12 -66 -18 -96.5t-20 -80t-29 -73t-41 -59t-60 -54.5t-82.5 -44t-112 -43.5t-145.5 -37.5zM221 1231l45 256h309l-45 -256h-309z" />
<glyph unicode="k" horiz-adv-x="1095" d="M10 0l264 1493h295l-145 -815l344 397h365l-426 -440l290 -635h-299l-186 434l-160 -166l-47 -268h-295z" />
<glyph unicode="l" horiz-adv-x="542" d="M14 0l262 1493h295l-262 -1493h-295z" />
<glyph unicode="m" horiz-adv-x="1777" d="M10 0l191 1075h295l-25 -135q71 64 160.5 111t175.5 47q218 0 256 -193q69 71 172 132t201 61q160 0 222 -98q42 -67 42 -167q0 -47 -10 -102l-129 -731h-297l125 692q7 47 7 84v5q0 39 -22 63t-67 24q-56 0 -125.5 -43.5t-124.5 -101.5l-125 -723h-295l123 692 q9 37 9 68.5t-9 56.5q-18 51 -82 51q-56 0 -122.5 -42t-121.5 -99l-129 -727h-295z" />
<glyph unicode="n" d="M10 0l191 1075h295l-23 -123q220 146 373 146q162 0 228 -101q44 -68 45 -168q0 -49 -11 -106l-127 -723h-295l123 692q7 37 7 66q0 110 -97 110q-63 0 -143.5 -42t-141.5 -95l-129 -731h-295z" />
<glyph unicode="o" d="M51 424q0 141 37.5 262.5t108 213.5t182 145t250.5 53q231 0 361 -117.5t130 -329.5q0 -141 -37.5 -262.5t-108.5 -213.5t-182.5 -145t-250.5 -53q-230 0 -360 118t-130 329zM346 436q0 -112 44 -171.5t157 -59.5q66 0 121 41.5t87.5 107t50 139.5t17.5 146 q0 113 -43.5 172t-154.5 59q-67 0 -122.5 -41.5t-88.5 -107t-50.5 -139.5t-17.5 -146z" />
<glyph unicode="p" horiz-adv-x="1206" d="M-63 -418l264 1493h295l-23 -121q183 144 346 144q62 0 116 -21t99.5 -64.5t72 -121.5t26.5 -182q0 -212 -60.5 -378.5t-171 -260t-252.5 -93.5q-56 0 -105.5 13t-91 39t-66 45t-58.5 51l-97 -543h-294zM367 348q102 -133 215 -133q77 0 134.5 67t85 169t27.5 221 q0 91 -34.5 139.5t-102.5 48.5q-65 0 -127 -37t-133 -102z" />
<glyph unicode="q" horiz-adv-x="1212" d="M51 367q0 211 62 377.5t174.5 260t255.5 93.5q53 0 100 -13t89.5 -40t64.5 -44.5t59 -50.5l23 125h295l-265 -1493h-293l97 549q-185 -154 -359 -154q-60 0 -112 20.5t-96 64.5t-69.5 122t-25.5 183zM354 403q0 -90 32.5 -140t94.5 -50q69 0 134 40.5t139 113.5l63 360 q-101 133 -209 133q-78 0 -137 -67t-88 -169.5t-29 -220.5z" />
<glyph unicode="r" horiz-adv-x="813" d="M10 0l191 1075h295l-41 -225q13 23 30.5 48t56 63.5t81.5 66.5t107 46q50 14 104 14q15 0 30 -1l-49 -276q-67 0 -126.5 -20.5t-102 -53t-78 -72t-58 -79.5t-38.5 -72.5t-22 -53.5l-7 -20l-78 -440h-295z" />
<glyph unicode="s" horiz-adv-x="1034" d="M-25 141l138 193q85 -52 192 -91.5t187 -39.5q63 0 99 26.5t36 67.5q0 17 -5.5 30.5t-19 25t-26.5 19.5t-38 17.5t-42.5 15t-50.5 15.5t-52 16q-60 20 -105 42t-91.5 58.5t-71.5 91.5t-25 126q0 151 113 247.5t307 96.5q127 0 255.5 -40t215.5 -93l-135 -189 q-69 39 -161.5 68.5t-162.5 29.5q-62 0 -96.5 -25t-34.5 -67q0 -19 8.5 -33.5t19 -24.5t35 -20.5t42.5 -16.5t56 -18t61 -20q53 -18 90.5 -34t81.5 -43.5t71 -59.5t45.5 -80t18.5 -106q0 -157 -120.5 -253t-322.5 -96q-146 0 -279.5 48t-232.5 116z" />
<glyph unicode="t" horiz-adv-x="808" d="M88 858l37 217h135l49 271l301 40l-55 -311h266l-39 -217h-266l-92 -522q-3 -19 -3 -34q0 -69 62 -69q51 0 156 48l70 -230q-207 -74 -332 -74q-149 0 -212 99q-41 65 -41 169q0 55 11 120l88 493h-135z" />
<glyph unicode="u" d="M63 352l127 723h295l-123 -692q-7 -36 -6 -65q0 -111 97 -111q63 0 142.5 41.5t141.5 93.5l129 733h295l-188 -1075h-295l20 123q-213 -146 -372 -146q-161 0 -227 101q-45 69 -45 173q0 47 9 101z" />
<glyph unicode="v" horiz-adv-x="1118" d="M100 1075h303l89 -749l352 749h327l-581 -1075h-289z" />
<glyph unicode="w" horiz-adv-x="1609" d="M115 1075h305l26 -729l314 729h239l54 -727l278 727h322l-494 -1075h-276l-66 686l-309 -686h-277z" />
<glyph unicode="x" horiz-adv-x="1150" d="M-102 0l485 539l-274 536h307l155 -356l281 356h354l-465 -536l297 -539h-313l-166 365l-289 -365h-372z" />
<glyph unicode="y" horiz-adv-x="1118" d="M-18 -231q142 52 185 76q77 43 134 126l-201 1104h306l92 -717l346 717h327l-571 -1075q-81 -153 -128 -214q-100 -132 -269 -199q-71 -28 -160 -48z" />
<glyph unicode="z" horiz-adv-x="1067" d="M-45 0l35 207l637 624h-506l43 244h911l-37 -207l-637 -624h527l-41 -244h-932z" />
<glyph unicode="{" horiz-adv-x="770" d="M35 621l33 184q62 0 106.5 20.5t67.5 56t33 73t12 81.5l12 203q12 248 145 363.5t387 115.5h87l-31 -170h-35q-223 0 -242 -272l-10 -184q-5 -97 -28.5 -166t-66.5 -112.5t-99 -68t-134 -36.5q67 -15 112.5 -43.5t73.5 -76.5t28 -116t-25 -162l-35 -125 q-90 -309 131 -309h35l-29 -170h-35q-112 0 -201 31t-149.5 93t-76.5 156t18 220l53 182q37 113 5.5 172.5t-142.5 59.5z" />
<glyph unicode="|" horiz-adv-x="489" d="M-16 -252l340 1927h215l-338 -1927h-217z" />
<glyph unicode="}" horiz-adv-x="770" d="M-113 -293l31 170h35q223 0 242 273l10 184q5 97 28.5 166t66.5 112.5t98.5 68t133.5 36.5q-137 31 -188.5 124.5t0.5 272.5l35 125q90 309 -131 309h-35l29 170h34q151 0 258 -54.5t153.5 -165.5t-1.5 -279l-53 -183q-37 -112 -5.5 -171.5t142.5 -59.5l-33 -184 q-62 0 -106.5 -20.5t-67.5 -56.5t-33 -73.5t-12 -81.5l-12 -203q-12 -247 -145.5 -363t-387.5 -116h-86z" />
<glyph unicode="~" horiz-adv-x="1257" d="M33 446q85 154 174 232t205 78q63 0 127.5 -24t109 -53t99.5 -53t102 -24q43 0 84 29t98 114l170 -75q-83 -153 -172.5 -231.5t-204.5 -78.5q-63 0 -127.5 24t-109 53t-100 53t-103.5 24q-43 0 -83 -28.5t-97 -114.5z" />
<glyph unicode="&#xa1;" horiz-adv-x="569" d="M-2 0l260 971h178l-80 -971h-358zM223 1122l56 312h301l-56 -312h-301z" />
<glyph unicode="&#xa2;" horiz-adv-x="1099" d="M104 600q0 164 45 296.5t119.5 214t165.5 124.5t189 43h10l29 156h215l-35 -197q29 -11 57 -23.5t60 -30.5t46 -25.5t51.5 -30t39.5 -23.5l-135 -199q-94 62 -162 92l-99 -559q28 10 59 24t65.5 30t47.5 22l95 -221q-197 -88 -312 -115l-30 -178h-215l28 162 q-153 20 -243.5 130.5t-90.5 307.5zM408 627q0 -146 77 -197l101 569q-79 -45 -128.5 -149.5t-49.5 -222.5z" />
<glyph unicode="&#xa3;" horiz-adv-x="1124" d="M-8 0l37 207q9 4 25 11.5t58 35.5t77 60t69.5 85t48.5 111h-203l31 178h170q-8 35 -32 103.5t-38 129.5t-14 126q0 188 115 298.5t317 110.5q83 0 161 -18.5t144.5 -53.5t107.5 -62t93 -67l-153 -180q-180 127 -301 127q-85 0 -134 -52t-49 -130q0 -60 39 -166.5 t47 -165.5h303l-30 -178h-285q-24 -87 -73.5 -154t-98.5 -102h532l-45 -254h-919z" />
<glyph unicode="&#xa5;" horiz-adv-x="1363" d="M133 297l31 174h338l16 96l-8 19h-326l29 174h233l-249 674h325l180 -594l390 594h358l-487 -674h231l-31 -174h-327l-9 -13l-18 -102h334l-31 -174h-334l-53 -297h-305l51 297h-338z" />
<glyph unicode="&#xa6;" horiz-adv-x="491" d="M-16 -252l149 846h215l-147 -846h-217zM176 829l148 846h215l-148 -846h-215z" />
<glyph unicode="&#xa7;" horiz-adv-x="1122" d="M27 -14l137 188q72 -39 162.5 -68.5t160.5 -29.5q62 0 96.5 25t34.5 67q0 16 -5 29t-16.5 23t-23.5 17.5t-34.5 16t-40 14.5t-48.5 16t-53 17q-52 17 -91 34t-82 44.5t-70.5 59t-45.5 77.5t-18 100q0 99 57 172.5t160 110.5q-92 82 -92 213q0 151 114 247.5t308 96.5 q127 0 255.5 -40t215.5 -93l-135 -188q-69 39 -161.5 68.5t-162.5 29.5q-62 0 -97.5 -25t-35.5 -67q0 -19 8.5 -33.5t19.5 -24.5t35.5 -20.5t42.5 -16.5t55.5 -18t61.5 -20q65 -22 113 -45.5t95 -60t72 -90t25 -120.5q0 -99 -56 -172.5t-159 -111.5q91 -81 91 -209 q0 -153 -113 -249.5t-307 -96.5q-127 0 -255.5 40t-217.5 93zM377 666q0 -50 45.5 -77t151.5 -61q25 -8 38 -12q74 13 109 48.5t35 78.5q0 18 -6 33.5t-20.5 28t-27.5 21t-39 18.5t-42.5 15.5t-50 16t-50.5 15.5q-73 -12 -108 -47.5t-35 -77.5z" />
<glyph unicode="&#xa8;" horiz-adv-x="487" d="M158 1231l41 246h241l-43 -246h-239zM516 1231l43 246h240l-43 -246h-240z" />
<glyph unicode="&#xa9;" horiz-adv-x="1638" d="M109 641q0 131 32.5 251.5t98 223t158 178.5t219 119t274.5 43q206 0 360.5 -84.5t235 -234.5t80.5 -344q0 -131 -32.5 -251.5t-98.5 -223.5t-158.5 -179t-220 -119t-275.5 -43q-309 0 -491 184t-182 480zM186 643q0 -261 162 -425.5t443 -164.5q160 0 293 59t220 160 t135 234.5t48 284.5q0 171 -70 303.5t-208 209t-324 76.5q-129 0 -241 -38t-195.5 -106t-143 -160t-89.5 -202.5t-30 -230.5zM459 618q-5 127 26.5 231t89.5 171.5t134.5 104t162.5 36.5q54 0 104.5 -12.5t94.5 -37t69.5 -42.5t59.5 -45l-61 -63q-31 25 -49 38t-55 35 t-78.5 32.5t-86.5 10.5q-138 0 -229 -129t-84 -323q5 -125 56.5 -197t140.5 -72q146 0 309 113l51 -72q-53 -35 -95 -58t-115 -46t-144 -23q-126 0 -210.5 91.5t-90.5 256.5z" />
<glyph unicode="&#xaa;" horiz-adv-x="849" d="M158 1018q0 189 86 309.5t221 120.5q99 0 197 -84l12 70h203l-115 -646h-203l12 72q-107 -86 -219 -86q-83 0 -138.5 58.5t-55.5 185.5zM367 1038q0 -102 73 -102q68 0 158 82l37 199q-58 69 -121 69q-67 0 -107 -73.5t-40 -174.5z" />
<glyph unicode="&#xab;" horiz-adv-x="1316" d="M35 467l33 178l649 434l-53 -297l-385 -247l299 -248l-46 -256zM610 467l33 178l649 434l-53 -297l-385 -247l299 -248l-45 -256z" />
<glyph unicode="&#xac;" horiz-adv-x="1257" d="M53 571l39 224h1114l-108 -611h-238l66 387h-873z" />
<glyph unicode="&#xad;" horiz-adv-x="839" d="M88 463l41 239h610l-43 -239h-608z" />
<glyph unicode="&#xae;" horiz-adv-x="950" d="M158 1042q0 117 47 214t143.5 158t226.5 61q164 0 261.5 -98.5t97.5 -256.5q0 -117 -47 -213.5t-143.5 -157.5t-225.5 -61q-165 0 -262.5 97.5t-97.5 256.5zM227 1044q0 -127 79 -207.5t216 -80.5q158 0 252 103.5t94 258.5q0 127 -81 208t-218 81q-158 0 -250 -104 t-92 -259zM369 889l69 395h174q56 0 88.5 -29t32.5 -73q0 -50 -33.5 -82t-89.5 -41l66 -170h-70l-61 168h-80l-29 -168h-67zM477 1118h101q44 0 66 18t22 46q0 41 -56 41h-114z" />
<glyph unicode="&#xaf;" horiz-adv-x="593" d="M229 1262l31 174h584l-31 -174h-584z" />
<glyph unicode="&#xb0;" horiz-adv-x="849" d="M147 1081q0 147 104 251t251 104q146 0 250 -104.5t104 -250.5t-104 -251t-250 -105q-147 0 -251 104.5t-104 251.5zM317 1081q0 -75 55 -128.5t130 -53.5q74 0 127 53.5t53 128.5t-53 129t-127 54q-75 0 -130 -54t-55 -129z" />
<glyph unicode="&#xb1;" horiz-adv-x="1257" d="M35 0l35 193h972l-34 -193h-973zM141 604l39 223h373l51 285h227l-51 -285h373l-37 -223h-375l-49 -285h-227l49 285h-373z" />
<glyph unicode="&#xb2;" horiz-adv-x="780" d="M84 788l14 91q9 55 32 102.5t49.5 80.5t68.5 66.5t74 54.5t81 50q4 2 6 3.5t5 3t6 3.5q143 82 170 102q53 40 53 78q-2 30 -26.5 48t-67.5 18q-86 0 -234 -80l-75 145q170 109 338 109q133 0 204.5 -65t71.5 -164q0 -28 -7.5 -55.5t-16.5 -49t-29.5 -45.5t-34 -39 t-44 -37t-45 -32.5t-51.5 -31t-49 -27t-51 -27.5q-88 -45 -117.5 -69.5t-37.5 -57.5h397l-29 -175h-655z" />
<glyph unicode="&#xb3;" horiz-adv-x="780" d="M80 907l104 129q78 -45 133.5 -65.5t116.5 -20.5q69 0 108.5 28t39.5 75q0 102 -207 102h-37l31 176h41q83 0 143.5 23.5t60.5 70.5q0 29 -22.5 46.5t-59.5 17.5q-92 0 -231 -74l-65 144q158 104 335 104q126 0 192 -56t66 -141q0 -68 -45.5 -123t-124.5 -90 q60 -22 97 -76t37 -126q0 -49 -18 -95.5t-55 -88.5t-105 -67.5t-158 -25.5q-198 0 -377 133z" />
<glyph unicode="&#xb4;" horiz-adv-x="468" d="M162 1210l280 283h349l-373 -283h-256z" />
<glyph unicode="&#xb5;" horiz-adv-x="1247" d="M-47 -418l262 1493h295l-123 -692q-32 -176 90 -176q63 0 143 41.5t142 93.5l129 733h295l-189 -1075h-295l21 123q-213 -146 -373 -146q-20 0 -35 3l-69 -398h-293z" />
<glyph unicode="&#xb6;" horiz-adv-x="1394" d="M113 856q0 141 49.5 253.5t133 182t189.5 106t224 36.5h270l-320 -1813h-247l145 834q-96 0 -175 23.5t-140 71t-95 125.5t-34 181zM809 -381l319 1815h250l-319 -1815h-250z" />
<glyph unicode="&#xb7;" horiz-adv-x="532" d="M80 416l59 338h301l-59 -338h-301z" />
<glyph unicode="&#xb8;" horiz-adv-x="348" d="M-78 -330l84 146q46 -25 88 -25q44 0 72.5 22.5t28.5 73.5q0 24 -7.5 53.5t-14.5 46.5l-7 17h127q5 -8 13 -22.5t21 -57t13 -82.5q0 -105 -68 -161t-174 -56t-176 45z" />
<glyph unicode="&#xb9;" horiz-adv-x="622" d="M166 1513l260 136h199l-152 -861h-211l119 654l-150 -74z" />
<glyph unicode="&#xba;" horiz-adv-x="821" d="M152 1049q0 171 95.5 285t272.5 114q147 0 231.5 -72t84.5 -202q0 -111 -39 -199.5t-124.5 -144.5t-205.5 -56q-147 0 -231 72.5t-84 202.5zM354 1055q0 -62 26 -93.5t91 -31.5q54 0 92.5 41t54 92t15.5 102q0 64 -25 95.5t-92 31.5q-52 0 -90.5 -40.5t-55 -93 t-16.5 -103.5z" />
<glyph unicode="&#xbb;" horiz-adv-x="1316" d="M4 31l53 297l385 247l-299 248l45 256l498 -436l-33 -178zM580 31l53 297l385 247l-299 248l45 256l498 -436l-33 -178z" />
<glyph unicode="&#xbc;" horiz-adv-x="1708" d="M166 1298l260 136h199l-152 -861h-211l119 654l-150 -74zM246 0l866 1434h223l-866 -1434h-223zM784 158l27 145l465 557h278l-94 -528h125l-29 -174h-126l-27 -158h-211l27 158h-435zM1036 332h213l62 334z" />
<glyph unicode="&#xbd;" horiz-adv-x="1746" d="M166 1298l260 136h199l-152 -861h-211l119 654l-150 -74zM246 0l866 1434h223l-866 -1434h-223zM891 0l14 90q8 46 23.5 86t41.5 73.5t49 58.5t61.5 52.5t63.5 43.5t68 42q4 2 5.5 3l4.5 3t5 3q143 82 170 102q52 40 53 78q-2 30 -26.5 47.5t-67.5 17.5q-88 0 -234 -79 l-75 145q169 108 337 108q134 0 205.5 -65t71.5 -164q0 -28 -7.5 -55.5t-16.5 -49t-29.5 -45.5t-34 -39t-44 -37t-45 -32.5t-51.5 -31t-49 -27t-51 -27.5q-88 -45 -117.5 -69.5t-37.5 -57.5h397l-29 -174h-655z" />
<glyph unicode="&#xbe;" horiz-adv-x="1898" d="M78 692l104 129q78 -45 133.5 -65.5t116.5 -20.5q69 0 108.5 28t39.5 75q0 102 -207 102h-37l31 176h41q83 0 143.5 23.5t60.5 70.5q0 29 -22.5 46.5t-59.5 17.5q-92 0 -231 -74l-66 143q159 105 336 105q126 0 192 -56t66 -141q0 -69 -45.5 -123.5t-124.5 -89.5 q60 -22 97 -76t37 -126q0 -49 -18 -95.5t-55 -88.5t-105 -67.5t-158 -25.5q-198 0 -377 133zM438 0l867 1434h223l-866 -1434h-224zM977 158l27 145l464 557h279l-94 -528h125l-29 -174h-127l-27 -158h-211l27 158h-434zM1229 332h213l61 334z" />
<glyph unicode="&#xbf;" horiz-adv-x="1040" d="M29 322q0 101 42.5 182t117.5 135.5t163 90t193 56.5l47 185h184l-43 -350q-199 -37 -297 -96.5t-98 -157.5q0 -64 40.5 -100t117.5 -36q122 0 309 111l96 -219q-237 -146 -469 -146q-185 0 -294 93t-109 252zM561 1122l53 312h304l-56 -312h-301z" />
<glyph unicode="&#xc0;" horiz-adv-x="1353" d="M-90 0l745 1434h338l238 -1434h-320l-30 285h-492l-129 -285h-350zM500 526h354l-66 625zM530 1802h314l190 -282h-227z" />
<glyph unicode="&#xc1;" horiz-adv-x="1353" d="M-90 0l745 1434h338l238 -1434h-320l-30 285h-492l-129 -285h-350zM500 526h354l-66 625zM647 1520l281 282h348l-373 -282h-256z" />
<glyph unicode="&#xc2;" horiz-adv-x="1353" d="M-90 0l745 1434h338l238 -1434h-320l-30 285h-492l-129 -285h-350zM500 526h354l-66 625zM500 1520l250 282h282l150 -282h-187l-116 153l-164 -153h-215z" />
<glyph unicode="&#xc3;" horiz-adv-x="1353" d="M-90 0l745 1434h338l238 -1434h-320l-30 285h-492l-129 -285h-350zM500 526h354l-66 625zM506 1612q25 37 35.5 52t33 44t37.5 41t37 27.5t45.5 21.5t50.5 6q44 0 91 -24.5t86.5 -49t64.5 -24.5q50 0 117 96l121 -80q-26 -39 -36.5 -53.5t-33 -44t-37.5 -41.5t-37.5 -28 t-46 -21.5t-51.5 -5.5q-43 0 -90 24.5t-86 49t-66 24.5q-46 0 -116 -96z" />
<glyph unicode="&#xc4;" horiz-adv-x="1353" d="M-90 0l745 1434h338l238 -1434h-320l-30 285h-492l-129 -285h-350zM500 526h354l-66 625zM545 1540l41 246h241l-43 -246h-239zM903 1540l43 246h240l-43 -246h-240z" />
<glyph unicode="&#xc5;" horiz-adv-x="1353" d="M-90 0l745 1434h338l238 -1434h-320l-30 285h-492l-129 -285h-350zM500 526h354l-66 625zM655 1724q0 94 66 160t160 66q93 0 159 -66t66 -160q0 -93 -66 -159t-159 -66q-94 0 -160 65.5t-66 159.5zM795 1724q0 -34 25.5 -59t60.5 -25q34 0 59 25t25 59q0 35 -25 60.5 t-59 25.5q-35 0 -60.5 -25.5t-25.5 -60.5z" />
<glyph unicode="&#xc6;" horiz-adv-x="2023" d="M-162 0l1143 1434h1092l-45 -260h-637l-58 -330h522l-45 -254h-522l-59 -330h649l-45 -260h-956l49 285h-477l-218 -285h-393zM637 532h334l100 570z" />
<glyph unicode="&#xc7;" horiz-adv-x="1259" d="M92 541q0 212 52 386t142.5 289t212.5 177.5t263 62.5q67 0 134.5 -14.5t117 -32.5t113.5 -53t98.5 -57.5t97.5 -65.5l-168 -215q-116 83 -198 122.5t-164 39.5q-115 0 -204 -85.5t-135 -224t-46 -303.5q0 -315 198 -315q137 0 412 158l127 -242q-303 -162 -522 -184 q34 -70 34 -142q0 -106 -68 -161.5t-173 -55.5q-106 0 -176 45l84 146q46 -25 88 -25q44 0 72 22.5t28 73.5q0 41 -18 93q-189 12 -295.5 152t-106.5 409z" />
<glyph unicode="&#xc8;" horiz-adv-x="1183" d="M39 0l254 1434h942l-45 -260h-637l-57 -330h522l-45 -254h-522l-60 -330h649l-45 -260h-956zM477 1802h314l190 -282h-227z" />
<glyph unicode="&#xc9;" horiz-adv-x="1183" d="M39 0l254 1434h942l-45 -260h-637l-57 -330h522l-45 -254h-522l-60 -330h649l-45 -260h-956zM580 1520l280 282h348l-372 -282h-256z" />
<glyph unicode="&#xca;" horiz-adv-x="1183" d="M39 0l254 1434h942l-45 -260h-637l-57 -330h522l-45 -254h-522l-60 -330h649l-45 -260h-956zM442 1520l250 282h283l149 -282h-186l-117 153l-164 -153h-215z" />
<glyph unicode="&#xcb;" horiz-adv-x="1183" d="M39 0l254 1434h942l-45 -260h-637l-57 -330h522l-45 -254h-522l-60 -330h649l-45 -260h-956zM492 1540l40 246h242l-43 -246h-239zM850 1540l43 246h240l-43 -246h-240z" />
<glyph unicode="&#xcc;" horiz-adv-x="602" d="M39 0l254 1434h305l-252 -1434h-307zM156 1802h313l190 -282h-227z" />
<glyph unicode="&#xcd;" horiz-adv-x="600" d="M39 0l254 1434h305l-252 -1434h-307zM254 1520l281 282h348l-373 -282h-256z" />
<glyph unicode="&#xce;" horiz-adv-x="600" d="M39 0l254 1434h305l-252 -1434h-307zM119 1520l250 282h282l150 -282h-187l-116 153l-164 -153h-215z" />
<glyph unicode="&#xcf;" horiz-adv-x="600" d="M39 0l254 1434h305l-252 -1434h-307zM166 1540l41 246h242l-43 -246h-240zM524 1540l43 246h240l-43 -246h-240z" />
<glyph unicode="&#xd0;" horiz-adv-x="1419" d="M31 598l41 238h137l104 598h387q174 0 303 -42.5t206.5 -121t115 -182t37.5 -232.5q0 -73 -10.5 -148.5t-36 -160.5t-65 -162t-102.5 -148.5t-143 -123t-191.5 -82.5t-242.5 -31h-510l105 598h-135zM412 260h116q108 0 197 34t148.5 90.5t100.5 133.5t59 160.5t18 173.5 q0 171 -94 246.5t-279 75.5h-103l-61 -338h268l-41 -238h-270z" />
<glyph unicode="&#xd1;" horiz-adv-x="1433" d="M39 0l254 1434h307l358 -967l168 967h308l-254 -1434h-306l-360 971l-168 -971h-307zM555 1612q29 43 42.5 62t40 50t46.5 44.5t49.5 24.5t61.5 11q44 0 90.5 -24.5t86 -49t64.5 -24.5q50 0 117 96l121 -80q-26 -39 -36.5 -53.5t-33 -44t-37.5 -41.5t-37.5 -28t-46 -21.5 t-51.5 -5.5q-44 0 -90 24.5t-85 49t-66 24.5q-47 0 -117 -96z" />
<glyph unicode="&#xd2;" horiz-adv-x="1476" d="M92 561q0 134 27.5 261t86 242.5t143 202t207.5 138t269 51.5q294 0 444 -154t150 -423q0 -134 -27.5 -262t-86.5 -244.5t-144 -204t-208 -139.5t-269 -52q-293 0 -442.5 156t-149.5 428zM408 582q0 -61 7 -109t26 -93.5t50.5 -75.5t83.5 -48t121 -18q84 0 154.5 43 t116 110t77.5 150.5t46 162.5t14 148q0 77 -12.5 134.5t-43 106.5t-89 75t-144.5 26q-84 0 -155 -43t-116.5 -109.5t-77 -150t-45 -161.5t-13.5 -148zM590 1802h313l191 -282h-228z" />
<glyph unicode="&#xd3;" horiz-adv-x="1476" d="M92 561q0 134 27.5 261t86 242.5t143 202t207.5 138t269 51.5q294 0 444 -154t150 -423q0 -134 -27.5 -262t-86.5 -244.5t-144 -204t-208 -139.5t-269 -52q-293 0 -442.5 156t-149.5 428zM408 582q0 -61 7 -109t26 -93.5t50.5 -75.5t83.5 -48t121 -18q84 0 154.5 43 t116 110t77.5 150.5t46 162.5t14 148q0 77 -12.5 134.5t-43 106.5t-89 75t-144.5 26q-84 0 -155 -43t-116.5 -109.5t-77 -150t-45 -161.5t-13.5 -148zM690 1520l281 282h348l-373 -282h-256z" />
<glyph unicode="&#xd4;" horiz-adv-x="1476" d="M92 561q0 134 27.5 261t86 242.5t143 202t207.5 138t269 51.5q294 0 444 -154t150 -423q0 -134 -27.5 -262t-86.5 -244.5t-144 -204t-208 -139.5t-269 -52q-293 0 -442.5 156t-149.5 428zM408 582q0 -61 7 -109t26 -93.5t50.5 -75.5t83.5 -48t121 -18q84 0 154.5 43 t116 110t77.5 150.5t46 162.5t14 148q0 77 -12.5 134.5t-43 106.5t-89 75t-144.5 26q-84 0 -155 -43t-116.5 -109.5t-77 -150t-45 -161.5t-13.5 -148zM557 1520l250 282h283l149 -282h-186l-117 153l-164 -153h-215z" />
<glyph unicode="&#xd5;" horiz-adv-x="1476" d="M92 561q0 134 27.5 261t86 242.5t143 202t207.5 138t269 51.5q294 0 444 -154t150 -423q0 -134 -27.5 -262t-86.5 -244.5t-144 -204t-208 -139.5t-269 -52q-293 0 -442.5 156t-149.5 428zM408 582q0 -61 7 -109t26 -93.5t50.5 -75.5t83.5 -48t121 -18q84 0 154.5 43 t116 110t77.5 150.5t46 162.5t14 148q0 77 -12.5 134.5t-43 106.5t-89 75t-144.5 26q-84 0 -155 -43t-116.5 -109.5t-77 -150t-45 -161.5t-13.5 -148zM563 1612q29 43 42.5 62t40 50t46.5 44.5t49.5 24.5t61.5 11q44 0 90.5 -24.5t86 -49t64.5 -24.5q50 0 117 96l121 -80 q-26 -39 -36.5 -53.5t-33 -44t-37.5 -41.5t-37.5 -28t-46 -21.5t-51.5 -5.5q-44 0 -90 24.5t-85 49t-66 24.5q-47 0 -117 -96z" />
<glyph unicode="&#xd6;" horiz-adv-x="1476" d="M92 561q0 134 27.5 261t86 242.5t143 202t207.5 138t269 51.5q294 0 444 -154t150 -423q0 -134 -27.5 -262t-86.5 -244.5t-144 -204t-208 -139.5t-269 -52q-293 0 -442.5 156t-149.5 428zM408 582q0 -61 7 -109t26 -93.5t50.5 -75.5t83.5 -48t121 -18q84 0 154.5 43 t116 110t77.5 150.5t46 162.5t14 148q0 77 -12.5 134.5t-43 106.5t-89 75t-144.5 26q-84 0 -155 -43t-116.5 -109.5t-77 -150t-45 -161.5t-13.5 -148zM604 1540l41 246h242l-43 -246h-240zM963 1540l43 246h239l-43 -246h-239z" />
<glyph unicode="&#xd7;" horiz-adv-x="1257" d="M166 434l311 264l-211 256l178 152l211 -256l314 264l145 -172l-313 -266l213 -256l-178 -150l-213 256l-312 -264z" />
<glyph unicode="&#xd8;" horiz-adv-x="1476" d="M6 0l180 201q-94 143 -94 360q0 134 27.5 261t86 242.5t143 202t207.5 138t269 51.5q238 0 385 -106l76 84h217l-178 -201q94 -140 94 -354q0 -134 -27.5 -262t-86.5 -244.5t-144 -204t-208 -139.5t-269 -52q-241 0 -385 107l-76 -84h-217zM408 582q0 -71 8 -123l600 671 q-74 64 -201 64q-84 0 -155 -43t-116.5 -109.5t-77 -150t-45 -161.5t-13.5 -148zM494 303q68 -65 202 -65q84 0 154.5 43t116 110t77.5 150.5t46 162.5t14 148q0 77 -10 123z" />
<glyph unicode="&#xd9;" horiz-adv-x="1380" d="M108.5 411.5q0.5 90.5 20.5 204.5l145 818h308l-156 -881q-15 -65 -12.5 -122t20.5 -99.5t65.5 -67t121.5 -24.5q75 0 130.5 23.5t90 68.5t54 97.5t32.5 123.5l155 881h308l-158 -893q-15 -82 -36 -149.5t-54 -133.5t-81 -115.5t-111 -87.5t-148.5 -58t-190.5 -20 q-141 0 -241 33t-155.5 88t-81.5 139t-25.5 174.5zM539 1802h313l190 -282h-227z" />
<glyph unicode="&#xda;" horiz-adv-x="1380" d="M108.5 411.5q0.5 90.5 20.5 204.5l145 818h308l-156 -881q-15 -65 -12.5 -122t20.5 -99.5t65.5 -67t121.5 -24.5q75 0 130.5 23.5t90 68.5t54 97.5t32.5 123.5l155 881h308l-158 -893q-15 -82 -36 -149.5t-54 -133.5t-81 -115.5t-111 -87.5t-148.5 -58t-190.5 -20 q-141 0 -241 33t-155.5 88t-81.5 139t-25.5 174.5zM639 1520l281 282h348l-373 -282h-256z" />
<glyph unicode="&#xdb;" horiz-adv-x="1380" d="M108.5 411.5q0.5 90.5 20.5 204.5l145 818h308l-156 -881q-15 -65 -12.5 -122t20.5 -99.5t65.5 -67t121.5 -24.5q75 0 130.5 23.5t90 68.5t54 97.5t32.5 123.5l155 881h308l-158 -893q-15 -82 -36 -149.5t-54 -133.5t-81 -115.5t-111 -87.5t-148.5 -58t-190.5 -20 q-141 0 -241 33t-155.5 88t-81.5 139t-25.5 174.5zM504 1520l250 282h282l150 -282h-187l-116 153l-164 -153h-215z" />
<glyph unicode="&#xdc;" horiz-adv-x="1380" d="M108.5 411.5q0.5 90.5 20.5 204.5l145 818h308l-156 -881q-15 -65 -12.5 -122t20.5 -99.5t65.5 -67t121.5 -24.5q75 0 130.5 23.5t90 68.5t54 97.5t32.5 123.5l155 881h308l-158 -893q-15 -82 -36 -149.5t-54 -133.5t-81 -115.5t-111 -87.5t-148.5 -58t-190.5 -20 q-141 0 -241 33t-155.5 88t-81.5 139t-25.5 174.5zM553 1540l41 246h242l-43 -246h-240zM911 1540l43 246h240l-43 -246h-240z" />
<glyph unicode="&#xdd;" horiz-adv-x="1259" d="M143 1434h326l180 -594l389 594h359l-623 -861l-102 -573h-305l98 567zM578 1520l280 282h348l-372 -282h-256z" />
<glyph unicode="&#xde;" horiz-adv-x="1304" d="M39 0l254 1434h305l-39 -230h197q518 0 518 -405q0 -78 -19.5 -151t-62.5 -140.5t-105.5 -118t-155.5 -80.5t-206 -30h-330l-49 -279h-307zM440 530h236q135 0 208.5 67t73.5 189q0 162 -208 162h-236z" />
<glyph unicode="&#xdf;" horiz-adv-x="1355" d="M10 0l170 961q21 128 63 223.5t111.5 167.5t175 108.5t246.5 36.5q124 0 220 -29t152 -78.5t84 -110t28 -128.5q0 -44 -11 -85t-27 -67.5t-32.5 -47t-27.5 -29.5l-11 -9q-205 -53 -205 -153q0 -35 26 -61t78.5 -61.5t84.5 -66.5q120 -111 120 -247q0 -150 -117.5 -248.5 t-293.5 -98.5q-198 0 -412 129l137 193q52 -33 126 -59.5t134 -26.5q59 0 92 27t33 71q0 30 -18 57.5t-66 59.5q-7 5 -32.5 20.5t-37 23t-35 25.5t-35.5 31.5t-29.5 36t-26 44t-15 51t-6.5 61.5q0 57 20 106t49 82.5t74 64t81.5 48t85.5 37.5q12 36 12 63q0 65 -51 106.5 t-152 41.5q-123 0 -196.5 -75t-104.5 -257l-166 -938h-295z" />
<glyph unicode="&#xe0;" horiz-adv-x="1212" d="M51 367q0 211 62 377.5t174.5 260t255.5 93.5q53 0 100 -13t89.5 -40t64.5 -44.5t59 -50.5l23 125h295l-189 -1075h-295l23 131q-180 -154 -359 -154q-60 0 -112 20.5t-96 64.5t-69.5 122t-25.5 183zM354 403q0 -90 32.5 -140t94.5 -50q69 0 132.5 40.5t140.5 113.5 l63 358q-99 135 -209 135q-78 0 -137 -67t-88 -169.5t-29 -220.5zM403 1493h314l190 -283h-227z" />
<glyph unicode="&#xe1;" horiz-adv-x="1212" d="M51 367q0 211 62 377.5t174.5 260t255.5 93.5q53 0 100 -13t89.5 -40t64.5 -44.5t59 -50.5l23 125h295l-189 -1075h-295l23 131q-180 -154 -359 -154q-60 0 -112 20.5t-96 64.5t-69.5 122t-25.5 183zM354 403q0 -90 32.5 -140t94.5 -50q69 0 132.5 40.5t140.5 113.5 l63 358q-99 135 -209 135q-78 0 -137 -67t-88 -169.5t-29 -220.5zM489 1210l281 283h348l-373 -283h-256z" />
<glyph unicode="&#xe2;" horiz-adv-x="1212" d="M51 367q0 211 62 377.5t174.5 260t255.5 93.5q53 0 100 -13t89.5 -40t64.5 -44.5t59 -50.5l23 125h295l-189 -1075h-295l23 131q-180 -154 -359 -154q-60 0 -112 20.5t-96 64.5t-69.5 122t-25.5 183zM354 403q0 -90 32.5 -140t94.5 -50q69 0 132.5 40.5t140.5 113.5 l63 358q-99 135 -209 135q-78 0 -137 -67t-88 -169.5t-29 -220.5zM369 1210l249 283h283l150 -283h-187l-116 154l-164 -154h-215z" />
<glyph unicode="&#xe3;" horiz-adv-x="1212" d="M51 367q0 211 62 377.5t174.5 260t255.5 93.5q53 0 100 -13t89.5 -40t64.5 -44.5t59 -50.5l23 125h295l-189 -1075h-295l23 131q-180 -154 -359 -154q-60 0 -112 20.5t-96 64.5t-69.5 122t-25.5 183zM354 403q0 -90 32.5 -140t94.5 -50q69 0 132.5 40.5t140.5 113.5 l63 358q-99 135 -209 135q-78 0 -137 -67t-88 -169.5t-29 -220.5zM381 1303q29 43 42.5 62t40 50t46.5 44.5t49.5 24.5t61.5 11q44 0 90.5 -24.5t86 -49t64.5 -24.5q50 0 117 96l121 -80q-26 -39 -36.5 -53.5t-33 -44t-37.5 -41.5t-37.5 -28t-46 -21.5t-51.5 -5.5 q-44 0 -90 24.5t-86 49t-66 24.5q-46 0 -116 -96z" />
<glyph unicode="&#xe4;" horiz-adv-x="1212" d="M51 367q0 211 62 377.5t174.5 260t255.5 93.5q53 0 100 -13t89.5 -40t64.5 -44.5t59 -50.5l23 125h295l-189 -1075h-295l23 131q-180 -154 -359 -154q-60 0 -112 20.5t-96 64.5t-69.5 122t-25.5 183zM354 403q0 -90 32.5 -140t94.5 -50q69 0 132.5 40.5t140.5 113.5 l63 358q-99 135 -209 135q-78 0 -137 -67t-88 -169.5t-29 -220.5zM426 1231l41 246h242l-43 -246h-240zM784 1231l43 246h240l-43 -246h-240z" />
<glyph unicode="&#xe5;" horiz-adv-x="1212" d="M51 367q0 211 62 377.5t174.5 260t255.5 93.5q53 0 100 -13t89.5 -40t64.5 -44.5t59 -50.5l23 125h295l-189 -1075h-295l23 131q-180 -154 -359 -154q-60 0 -112 20.5t-96 64.5t-69.5 122t-25.5 183zM354 403q0 -90 32.5 -140t94.5 -50q69 0 132.5 40.5t140.5 113.5 l63 358q-99 135 -209 135q-78 0 -137 -67t-88 -169.5t-29 -220.5zM528 1415q0 94 66 159.5t160 65.5q93 0 159 -66t66 -159t-66 -159t-159 -66q-94 0 -160 65.5t-66 159.5zM668 1415q0 -34 25.5 -59t60.5 -25q34 0 59 25t25 59q0 35 -25 60.5t-59 25.5q-35 0 -60.5 -25.5 t-25.5 -60.5z" />
<glyph unicode="&#xe6;" horiz-adv-x="1814" d="M51 367q0 211 62 377.5t174.5 260t255.5 93.5q53 0 100 -13t89.5 -40t64.5 -44.5t59 -50.5l23 125h295l-3 -6q95 29 193 29q183 0 292 -83.5t109 -221.5q0 -83 -31 -146t-83 -102.5t-130.5 -63.5t-164.5 -33.5t-193 -9.5h-100v-18q0 -223 168 -223q49 0 123 24t111.5 41 t133.5 62l87 -205q-55 -28 -120.5 -55.5t-181 -57t-213.5 -29.5q-108 0 -184 33l-2 -10h-295l23 131q-180 -154 -359 -154q-60 0 -112 20.5t-96 64.5t-69.5 122t-25.5 183zM354 403q0 -90 32.5 -140t94.5 -50q69 0 132.5 40.5t140.5 113.5l10 57v8q0 159 51 295 q-101 133 -207 133q-78 0 -137 -67t-88 -169.5t-29 -220.5zM1085 598h91q147 0 227 46t80 128q0 52 -36 83.5t-93 31.5q-97 0 -166 -82t-103 -207z" />
<glyph unicode="&#xe7;" horiz-adv-x="1005" d="M49 420q0 164 45 296.5t120 214t165.5 124.5t187.5 43q33 0 64.5 -3t62.5 -10.5t55.5 -13.5t55.5 -19t48 -20t48 -24t41 -22t41 -23.5t35 -20.5l-137 -203q-1 1 -38 23.5t-52.5 30.5t-48.5 24t-60 22.5t-53 6.5q-78 0 -142 -58.5t-98.5 -149.5t-34.5 -192 q0 -102 39.5 -159.5t118.5 -57.5q24 0 53 6.5t64.5 20.5t57 23.5t61 29t47.5 23.5l94 -228q-78 -34 -118 -50.5t-127 -42.5t-157 -31q33 -68 33 -138q0 -106 -68 -161.5t-173 -55.5q-107 0 -177 45l84 146q46 -25 88 -25q44 0 72.5 22.5t28.5 73.5q0 39 -21 99 q-141 27 -223 137t-82 297z" />
<glyph unicode="&#xe8;" horiz-adv-x="1097" d="M47 432q0 190 70.5 340t208 238t321.5 88q183 0 292.5 -83.5t109.5 -221.5q0 -83 -31 -146t-83.5 -102.5t-131 -63.5t-164.5 -33.5t-193 -9.5h-100v-18q0 -223 168 -223q47 0 116 21.5t106 38t127 58.5q13 6 20 9l86 -205q-56 -28 -120.5 -55.5t-180 -57t-213.5 -29.5 q-192 0 -300 112t-108 343zM369 598h90q147 0 227 46t80 128q0 52 -36 83.5t-93 31.5q-97 0 -165.5 -82t-102.5 -207zM381 1493h313l191 -283h-228z" />
<glyph unicode="&#xe9;" horiz-adv-x="1097" d="M47 432q0 190 70.5 340t208 238t321.5 88q183 0 292.5 -83.5t109.5 -221.5q0 -83 -31 -146t-83.5 -102.5t-131 -63.5t-164.5 -33.5t-193 -9.5h-100v-18q0 -223 168 -223q47 0 116 21.5t106 38t127 58.5q13 6 20 9l86 -205q-56 -28 -120.5 -55.5t-180 -57t-213.5 -29.5 q-192 0 -300 112t-108 343zM369 598h90q147 0 227 46t80 128q0 52 -36 83.5t-93 31.5q-97 0 -165.5 -82t-102.5 -207zM481 1210l281 283h348l-373 -283h-256z" />
<glyph unicode="&#xea;" horiz-adv-x="1097" d="M47 432q0 190 70.5 340t208 238t321.5 88q183 0 292.5 -83.5t109.5 -221.5q0 -83 -31 -146t-83.5 -102.5t-131 -63.5t-164.5 -33.5t-193 -9.5h-100v-18q0 -223 168 -223q47 0 116 21.5t106 38t127 58.5q13 6 20 9l86 -205q-56 -28 -120.5 -55.5t-180 -57t-213.5 -29.5 q-192 0 -300 112t-108 343zM346 1210l250 283h283l149 -283h-186l-117 154l-164 -154h-215zM369 598h90q147 0 227 46t80 128q0 52 -36 83.5t-93 31.5q-97 0 -165.5 -82t-102.5 -207z" />
<glyph unicode="&#xeb;" horiz-adv-x="1095" d="M47 432q0 190 70.5 340t208 238t321.5 88q183 0 292.5 -83.5t109.5 -221.5q0 -83 -31 -146t-83.5 -102.5t-131 -63.5t-164.5 -33.5t-193 -9.5h-100v-18q0 -223 168 -223q47 0 116 21.5t106 38t127 58.5q13 6 20 9l86 -205q-56 -28 -120.5 -55.5t-180 -57t-213.5 -29.5 q-192 0 -300 112t-108 343zM369 598h90q147 0 227 46t80 128q0 52 -36 83.5t-93 31.5q-97 0 -165.5 -82t-102.5 -207zM395 1231l41 246h242l-43 -246h-240zM754 1231l43 246h239l-43 -246h-239z" />
<glyph unicode="&#xec;" horiz-adv-x="534" d="M10 0l191 1075h295l-191 -1075h-295zM63 1493h314l190 -283h-227z" />
<glyph unicode="&#xed;" horiz-adv-x="532" d="M10 0l191 1075h295l-191 -1075h-295zM164 1210l280 283h349l-373 -283h-256z" />
<glyph unicode="&#xee;" horiz-adv-x="532" d="M10 0l191 1075h295l-191 -1075h-295zM29 1210l250 283h282l150 -283h-187l-116 154l-164 -154h-215z" />
<glyph unicode="&#xef;" horiz-adv-x="532" d="M10 0l191 1075h295l-191 -1075h-295zM78 1231l41 246h241l-43 -246h-239zM436 1231l43 246h240l-43 -246h-240z" />
<glyph unicode="&#xf0;" horiz-adv-x="1220" d="M37 430q0 153 68 278.5t184.5 196t255.5 70.5q70 0 130 -19.5t96 -47.5t62 -56.5t36 -47.5l10 -20q-8 126 -58.5 223.5t-144.5 147.5l-80 -82h-246l127 127q-39 0 -82.5 -4t-67.5 -8l-24 -4l6 229q82 21 193 21q92 0 186 -23l82 82h244l-156 -156q140 -92 214.5 -256 t74.5 -376q0 -329 -167.5 -528.5t-457.5 -199.5q-226 0 -355.5 120.5t-129.5 332.5zM346 422q0 -98 47 -157.5t152 -59.5q73 0 129 29.5t87.5 78.5t47.5 104t16 113q0 99 -49.5 158.5t-152.5 59.5q-132 0 -204.5 -96t-72.5 -230z" />
<glyph unicode="&#xf1;" d="M10 0l191 1075h295l-23 -123q220 146 373 146q163 0 228.5 -101t33.5 -274l-127 -723h-295l123 692q32 176 -90 176q-63 0 -143.5 -42t-141.5 -95l-129 -731h-295zM375 1303q25 37 35.5 52t33 44t37.5 41t37 27.5t45.5 21.5t50.5 6q44 0 91 -24.5t86.5 -49t64.5 -24.5 q50 0 117 96l121 -80q-26 -39 -36.5 -53.5t-33 -44t-37.5 -41.5t-37.5 -28t-46 -21.5t-51.5 -5.5q-44 0 -90 24.5t-86 49t-66 24.5q-46 0 -116 -96z" />
<glyph unicode="&#xf2;" d="M51 424q0 141 37.5 262.5t108 213.5t182 145t250.5 53q231 0 361 -117.5t130 -329.5q0 -141 -37.5 -262.5t-108.5 -213.5t-182.5 -145t-250.5 -53q-230 0 -360 118t-130 329zM346 436q0 -112 44 -171.5t157 -59.5q66 0 121 41.5t87.5 107t50 139.5t17.5 146 q0 113 -43.5 172t-154.5 59q-67 0 -122.5 -41.5t-88.5 -107t-50.5 -139.5t-17.5 -146zM395 1493h314l190 -283h-227z" />
<glyph unicode="&#xf3;" d="M51 424q0 141 37.5 262.5t108 213.5t182 145t250.5 53q231 0 361 -117.5t130 -329.5q0 -141 -37.5 -262.5t-108.5 -213.5t-182.5 -145t-250.5 -53q-230 0 -360 118t-130 329zM346 436q0 -112 44 -171.5t157 -59.5q66 0 121 41.5t87.5 107t50 139.5t17.5 146 q0 113 -43.5 172t-154.5 59q-67 0 -122.5 -41.5t-88.5 -107t-50.5 -139.5t-17.5 -146zM496 1210l280 283h348l-372 -283h-256z" />
<glyph unicode="&#xf4;" d="M51 424q0 141 37.5 262.5t108 213.5t182 145t250.5 53q231 0 361 -117.5t130 -329.5q0 -141 -37.5 -262.5t-108.5 -213.5t-182.5 -145t-250.5 -53q-230 0 -360 118t-130 329zM346 436q0 -112 44 -171.5t157 -59.5q66 0 121 41.5t87.5 107t50 139.5t17.5 146 q0 113 -43.5 172t-154.5 59q-67 0 -122.5 -41.5t-88.5 -107t-50.5 -139.5t-17.5 -146zM362 1210l250 283h283l149 -283h-186l-117 154l-163 -154h-216z" />
<glyph unicode="&#xf5;" d="M51 424q0 141 37.5 262.5t108 213.5t182 145t250.5 53q231 0 361 -117.5t130 -329.5q0 -141 -37.5 -262.5t-108.5 -213.5t-182.5 -145t-250.5 -53q-230 0 -360 118t-130 329zM346 436q0 -112 44 -171.5t157 -59.5q66 0 121 41.5t87.5 107t50 139.5t17.5 146 q0 113 -43.5 172t-154.5 59q-67 0 -122.5 -41.5t-88.5 -107t-50.5 -139.5t-17.5 -146zM375 1303q25 37 35.5 52t33 44t37.5 41t37 27.5t45.5 21.5t50.5 6q44 0 91 -24.5t86.5 -49t64.5 -24.5q50 0 117 96l121 -80q-26 -39 -36.5 -53.5t-33 -44t-37.5 -41.5t-37.5 -28 t-46 -21.5t-51.5 -5.5q-44 0 -90 24.5t-86 49t-66 24.5q-46 0 -116 -96z" />
<glyph unicode="&#xf6;" d="M51 424q0 141 37.5 262.5t108 213.5t182 145t250.5 53q231 0 361 -117.5t130 -329.5q0 -141 -37.5 -262.5t-108.5 -213.5t-182.5 -145t-250.5 -53q-230 0 -360 118t-130 329zM346 436q0 -112 44 -171.5t157 -59.5q66 0 121 41.5t87.5 107t50 139.5t17.5 146 q0 113 -43.5 172t-154.5 59q-67 0 -122.5 -41.5t-88.5 -107t-50.5 -139.5t-17.5 -146zM412 1231l41 246h241l-43 -246h-239zM770 1231l43 246h240l-43 -246h-240z" />
<glyph unicode="&#xf7;" horiz-adv-x="1257" d="M133 571l41 224h971l-39 -224h-973zM428 311q0 60 42.5 103t102.5 43t103 -43t43 -103t-43 -101.5t-103 -41.5t-102.5 41.5t-42.5 101.5zM559 1055q0 60 43 102.5t103 42.5t101.5 -42.5t41.5 -102.5t-41.5 -103t-101.5 -43t-103 43t-43 103z" />
<glyph unicode="&#xf8;" horiz-adv-x="1198" d="M-10 0l141 152q-78 110 -78 272q0 141 37.5 262.5t108 213.5t182 145t250.5 53q184 0 313 -80l53 57h174l-135 -145q86 -113 86 -279q0 -141 -37.5 -262.5t-108.5 -213.5t-182.5 -145t-250.5 -53q-191 0 -318 82l-55 -59h-180zM348 436q0 -35 2 -51l416 442 q-49 43 -139 43q-67 0 -122.5 -41.5t-88.5 -107t-50.5 -139.5t-17.5 -146zM403 250q48 -45 146 -45q66 0 121 41.5t87.5 107t50 139.5t17.5 146q0 23 -4 59z" />
<glyph unicode="&#xf9;" d="M63 352l127 723h295l-123 -692q-32 -176 91 -176q63 0 142.5 41.5t141.5 93.5l129 733h295l-188 -1075h-295l20 123q-213 -146 -372 -146q-161 0 -227 101t-36 274zM389 1493h313l191 -283h-227z" />
<glyph unicode="&#xfa;" d="M63 352l127 723h295l-123 -692q-32 -176 91 -176q63 0 142.5 41.5t141.5 93.5l129 733h295l-188 -1075h-295l20 123q-213 -146 -372 -146q-161 0 -227 101t-36 274zM494 1210l280 283h348l-372 -283h-256z" />
<glyph unicode="&#xfb;" d="M63 352l127 723h295l-123 -692q-32 -176 91 -176q63 0 142.5 41.5t141.5 93.5l129 733h295l-188 -1075h-295l20 123q-213 -146 -372 -146q-161 0 -227 101t-36 274zM356 1210l250 283h283l149 -283h-186l-117 154l-164 -154h-215z" />
<glyph unicode="&#xfc;" d="M63 352l127 723h295l-123 -692q-32 -176 91 -176q63 0 142.5 41.5t141.5 93.5l129 733h295l-188 -1075h-295l20 123q-213 -146 -372 -146q-161 0 -227 101t-36 274zM406 1231l40 246h242l-43 -246h-239zM764 1231l43 246h240l-43 -246h-240z" />
<glyph unicode="&#xfd;" horiz-adv-x="1118" d="M-18 -231q142 52 185 76q77 43 134 126l-201 1104h306l92 -717l346 717h327l-571 -1075q-81 -153 -128 -214q-100 -132 -269 -199q-71 -28 -160 -48zM453 1210l280 283h348l-372 -283h-256z" />
<glyph unicode="&#xfe;" horiz-adv-x="1206" d="M-63 -418l337 1911h295l-96 -539q183 144 346 144q62 0 116 -21t99.5 -64.5t72 -121.5t26.5 -182q0 -212 -60.5 -378.5t-171 -260t-252.5 -93.5q-56 0 -105.5 13t-91 39t-66 45t-58.5 51l-97 -543h-294zM367 348q102 -133 215 -133q77 0 134.5 67t85 169t27.5 221 q0 91 -34.5 139.5t-102.5 48.5q-65 0 -127 -37t-133 -102z" />
<glyph unicode="&#xff;" horiz-adv-x="1118" d="M-18 -231q142 52 185 76q77 43 134 126l-201 1104h306l92 -717l346 717h327l-571 -1075q-81 -153 -128 -214q-100 -132 -269 -199q-71 -28 -160 -48zM367 1231l41 246h241l-43 -246h-239zM725 1231l43 246h240l-43 -246h-240z" />
<glyph unicode="&#x100;" horiz-adv-x="1353" d="M-90 0l745 1434h338l238 -1434h-320l-30 285h-492l-129 -285h-350zM500 526h354l-66 625zM555 1571l31 174h583l-30 -174h-584z" />
<glyph unicode="&#x101;" horiz-adv-x="1212" d="M51 367q0 211 62 377.5t174.5 260t255.5 93.5q53 0 100 -13t89.5 -40t64.5 -44.5t59 -50.5l23 125h295l-189 -1075h-295l23 131q-180 -154 -359 -154q-60 0 -112 20.5t-96 64.5t-69.5 122t-25.5 183zM354 403q0 -90 32.5 -140t94.5 -50q69 0 132.5 40.5t140.5 113.5 l63 358q-99 135 -209 135q-78 0 -137 -67t-88 -169.5t-29 -220.5zM428 1262l31 174h583l-30 -174h-584z" />
<glyph unicode="&#x102;" horiz-adv-x="1353" d="M-90 0l745 1434h338l238 -1434h-320l-30 285h-492l-129 -285h-350zM500 526h354l-66 625zM567 1772h181q-6 -43 21.5 -67t82.5 -24q69 0 114.5 24.5t51.5 66.5h182q-20 -118 -112.5 -185t-239.5 -67q-150 0 -224.5 70t-56.5 182z" />
<glyph unicode="&#x103;" horiz-adv-x="1212" d="M51 367q0 211 62 377.5t174.5 260t255.5 93.5q53 0 100 -13t89.5 -40t64.5 -44.5t59 -50.5l23 125h295l-189 -1075h-295l23 131q-180 -154 -359 -154q-60 0 -112 20.5t-96 64.5t-69.5 122t-25.5 183zM354 403q0 -90 32.5 -140t94.5 -50q69 0 132.5 40.5t140.5 113.5 l63 358q-99 135 -209 135q-78 0 -137 -67t-88 -169.5t-29 -220.5zM434 1462h180q-6 -43 21.5 -66.5t83.5 -23.5q69 0 114.5 24t51.5 66h182q-20 -118 -112.5 -185t-239.5 -67q-150 0 -224.5 70t-56.5 182z" />
<glyph unicode="&#x104;" horiz-adv-x="1353" d="M-90 0l745 1434h338l238 -1434h-6q-211 -116 -211 -205q0 -14 4.5 -24t15 -16t18.5 -10t25 -5.5t24 -2t25.5 0t20.5 0.5l-51 -135h-13q-16 1 -37.5 0t-46.5 2.5t-50 8.5t-48 17t-41 28t-28.5 42.5t-10.5 60.5q0 137 221 238h-131l-30 285h-492l-129 -285h-350zM500 526 h354l-66 625z" />
<glyph unicode="&#x105;" horiz-adv-x="1212" d="M51 367q0 211 62 377.5t174.5 260t255.5 93.5q53 0 100 -13t89.5 -40t64.5 -44.5t59 -50.5l23 125h295l-189 -1075h-8q-211 -116 -211 -205q0 -14 4.5 -24t15 -16t18.5 -10t25 -5.5t24 -2t25.5 0t20.5 0.5l-51 -135h-13q-16 1 -37.5 0t-46.5 2.5t-50 8.5t-48 17t-41 28 t-28.5 42.5t-10.5 60.5q0 75 58 132.5t164 105.5h-105l23 131q-180 -154 -359 -154q-60 0 -112 20.5t-96 64.5t-69.5 122t-25.5 183zM354 403q0 -90 32.5 -140t94.5 -50q69 0 132.5 40.5t140.5 113.5l63 358q-99 135 -209 135q-78 0 -137 -67t-88 -169.5t-29 -220.5z" />
<glyph unicode="&#x106;" horiz-adv-x="1259" d="M92 541q0 212 52 386t142.5 289t212.5 177.5t263 62.5q67 0 134.5 -14.5t117 -32.5t113.5 -53t98.5 -57.5t97.5 -65.5l-168 -215q-116 83 -198 122.5t-164 39.5q-115 0 -204 -85.5t-135 -224t-46 -303.5q0 -315 198 -315q137 0 412 158l127 -242q-174 -92 -320 -141.5 t-293 -49.5q-204 0 -322 141t-118 423zM690 1520l281 282h348l-373 -282h-256z" />
<glyph unicode="&#x107;" horiz-adv-x="1007" d="M49 420q0 164 45 296.5t120 214t165.5 124.5t187.5 43q33 0 64.5 -3t62.5 -10.5t55.5 -13.5t55.5 -19t48 -20t48 -24t41 -22t41 -23.5t35 -20.5l-137 -203q-1 1 -38 23.5t-52.5 30.5t-48.5 24t-60 22.5t-53 6.5q-78 0 -142 -58.5t-98.5 -149.5t-34.5 -192 q0 -102 39.5 -159.5t118.5 -57.5q24 0 53 6.5t64.5 20.5t57 23.5t61 29t47.5 23.5l94 -228q-63 -28 -94 -40.5t-100.5 -38t-131 -37t-119.5 -11.5q-177 0 -286 113.5t-109 329.5zM449 1210l280 283h348l-372 -283h-256z" />
<glyph unicode="&#x10a;" horiz-adv-x="1259" d="M92 541q0 212 52 386t142.5 289t212.5 177.5t263 62.5q67 0 134.5 -14.5t117 -32.5t113.5 -53t98.5 -57.5t97.5 -65.5l-168 -215q-116 83 -198 122.5t-164 39.5q-115 0 -204 -85.5t-135 -224t-46 -303.5q0 -315 198 -315q137 0 412 158l127 -242q-174 -92 -320 -141.5 t-293 -49.5q-204 0 -322 141t-118 423zM719 1540l43 246h239l-43 -246h-239z" />
<glyph unicode="&#x10b;" horiz-adv-x="1005" d="M49 420q0 164 45 296.5t120 214t165.5 124.5t187.5 43q33 0 64.5 -3t62.5 -10.5t55.5 -13.5t55.5 -19t48 -20t48 -24t41 -22t41 -23.5t35 -20.5l-137 -203q-1 1 -38 23.5t-52.5 30.5t-48.5 24t-60 22.5t-53 6.5q-78 0 -142 -58.5t-98.5 -149.5t-34.5 -192 q0 -102 39.5 -159.5t118.5 -57.5q24 0 53 6.5t64.5 20.5t57 23.5t61 29t47.5 23.5l94 -228q-63 -28 -94 -40.5t-100.5 -38t-131 -37t-119.5 -11.5q-177 0 -286 113.5t-109 329.5zM539 1231l43 246h239l-43 -246h-239z" />
<glyph unicode="&#x10c;" horiz-adv-x="1259" d="M92 541q0 212 52 386t142.5 289t212.5 177.5t263 62.5q67 0 134.5 -14.5t117 -32.5t113.5 -53t98.5 -57.5t97.5 -65.5l-168 -215q-116 83 -198 122.5t-164 39.5q-115 0 -204 -85.5t-135 -224t-46 -303.5q0 -315 198 -315q137 0 412 158l127 -242q-174 -92 -320 -141.5 t-293 -49.5q-204 0 -322 141t-118 423zM551 1802h188l115 -151l166 151h215l-250 -282h-283z" />
<glyph unicode="&#x10d;" horiz-adv-x="1005" d="M49 420q0 164 45 296.5t120 214t165.5 124.5t187.5 43q33 0 64.5 -3t62.5 -10.5t55.5 -13.5t55.5 -19t48 -20t48 -24t41 -22t41 -23.5t35 -20.5l-137 -203q-1 1 -38 23.5t-52.5 30.5t-48.5 24t-60 22.5t-53 6.5q-78 0 -142 -58.5t-98.5 -149.5t-34.5 -192 q0 -102 39.5 -159.5t118.5 -57.5q24 0 53 6.5t64.5 20.5t57 23.5t61 29t47.5 23.5l94 -228q-63 -28 -94 -40.5t-100.5 -38t-131 -37t-119.5 -11.5q-177 0 -286 113.5t-109 329.5zM360 1493h189l115 -152l165 152h215l-249 -283h-283z" />
<glyph unicode="&#x10e;" horiz-adv-x="1396" d="M39 0l252 1434h387q174 0 303 -42.5t206.5 -121t114.5 -182t37 -232.5q0 -73 -10 -148.5t-36 -160.5t-65.5 -162t-102.5 -148.5t-142.5 -123t-191 -82.5t-242.5 -31h-510zM389 260h117q108 0 197 34t148.5 90.5t100 133.5t58.5 160.5t18 173.5q0 171 -94 246.5t-279 75.5 h-102zM590 1802h188l115 -151l166 151h215l-250 -282h-283z" />
<glyph unicode="&#x10f;" horiz-adv-x="1331" d="M51 367q0 211 62 377.5t174.5 260t255.5 93.5q53 0 100 -13t89.5 -40t64.5 -44.5t59 -50.5l96 543h295l-262 -1493h-295l23 133q-178 -156 -359 -156q-60 0 -112 20.5t-96 64.5t-69.5 122t-25.5 183zM354 403q0 -90 32.5 -140t94.5 -50q69 0 132.5 40.5t140.5 113.5 l63 358q-99 135 -209 135q-78 0 -137 -67t-88 -169.5t-29 -220.5zM1262 1077l135 170h-99l41 246h220l-33 -270l-217 -219z" />
<glyph unicode="&#x110;" horiz-adv-x="1419" d="M31 598l41 238h137l104 598h387q174 0 303 -42.5t206.5 -121t115 -182t37.5 -232.5q0 -73 -10.5 -148.5t-36 -160.5t-65 -162t-102.5 -148.5t-143 -123t-191.5 -82.5t-242.5 -31h-510l105 598h-135zM412 260h116q108 0 197 34t148.5 90.5t100.5 133.5t59 160.5t18 173.5 q0 171 -94 246.5t-279 75.5h-103l-61 -338h268l-41 -238h-270z" />
<glyph unicode="&#x111;" horiz-adv-x="1212" d="M51 367q0 211 62 377.5t174.5 260t255.5 93.5q53 0 100 -13t89.5 -40t64.5 -44.5t59 -50.5l41 238h-319l30 172h320l24 133h295l-24 -133h112l-30 -172h-111l-209 -1188h-295l23 133q-178 -156 -359 -156q-60 0 -112 20.5t-96 64.5t-69.5 122t-25.5 183zM354 403 q0 -90 32.5 -140t94.5 -50q69 0 132.5 40.5t140.5 113.5l63 358q-99 135 -209 135q-78 0 -137 -67t-88 -169.5t-29 -220.5z" />
<glyph unicode="&#x112;" horiz-adv-x="1183" d="M39 0l254 1434h942l-45 -260h-637l-57 -330h522l-45 -254h-522l-60 -330h649l-45 -260h-956zM502 1571l30 174h584l-31 -174h-583z" />
<glyph unicode="&#x113;" horiz-adv-x="1095" d="M47 432q0 190 70.5 340t208 238t321.5 88q183 0 292.5 -83.5t109.5 -221.5q0 -83 -31 -146t-83.5 -102.5t-131 -63.5t-164.5 -33.5t-193 -9.5h-100v-18q0 -223 168 -223q47 0 116 21.5t106 38t127 58.5q13 6 20 9l86 -205q-56 -28 -120.5 -55.5t-180 -57t-213.5 -29.5 q-192 0 -300 112t-108 343zM369 598h90q147 0 227 46t80 128q0 52 -36 83.5t-93 31.5q-97 0 -165.5 -82t-102.5 -207zM403 1262l31 174h584l-31 -174h-584z" />
<glyph unicode="&#x116;" horiz-adv-x="1183" d="M39 0l254 1434h942l-45 -260h-637l-57 -330h522l-45 -254h-522l-60 -330h649l-45 -260h-956zM670 1540l43 246h239l-43 -246h-239z" />
<glyph unicode="&#x117;" horiz-adv-x="1097" d="M47 432q0 190 70.5 340t208 238t321.5 88q183 0 292.5 -83.5t109.5 -221.5q0 -83 -31 -146t-83.5 -102.5t-131 -63.5t-164.5 -33.5t-193 -9.5h-100v-18q0 -223 168 -223q47 0 116 21.5t106 38t127 58.5q13 6 20 9l86 -205q-56 -28 -120.5 -55.5t-180 -57t-213.5 -29.5 q-192 0 -300 112t-108 343zM369 598h90q147 0 227 46t80 128q0 52 -36 83.5t-93 31.5q-97 0 -165.5 -82t-102.5 -207zM571 1231l43 246h240l-43 -246h-240z" />
<glyph unicode="&#x118;" horiz-adv-x="1183" d="M39 0l254 1434h942l-45 -260h-637l-57 -330h522l-45 -254h-522l-60 -330h649l-45 -260h-8q-211 -116 -211 -205q0 -14 4.5 -24t15 -16t18.5 -10t25 -5.5t24 -2t25.5 0t20.5 0.5l-51 -135h-13q-16 1 -37.5 0t-46.5 2.5t-49.5 8.5t-47.5 17t-41 28t-28.5 42.5t-10.5 60.5 q0 137 221 238h-766z" />
<glyph unicode="&#x119;" horiz-adv-x="1097" d="M49 432q0 190 70.5 340t208 238t321.5 88q183 0 292.5 -83.5t109.5 -221.5q0 -83 -31 -146t-83 -102.5t-130.5 -63.5t-164.5 -33.5t-193 -9.5h-101v-18q0 -223 168 -223q47 0 116 21.5t106 38t127 58.5q13 6 20 9l86 -205q-161 -85 -336 -121q-97 -56 -152 -105t-55 -98 q0 -14 4.5 -24t15 -16t18.5 -10t25 -5.5t24 -2t25.5 0t20.5 0.5l-51 -135h-13q-16 1 -37.5 0t-46.5 2.5t-49.5 8.5t-47.5 17t-41 28t-28.5 42.5t-10.5 60.5q0 126 178 218q-173 11 -269 122.5t-96 329.5zM371 598h90q147 0 227 46t80 128q0 52 -36 83.5t-93 31.5 q-97 0 -165.5 -82t-102.5 -207z" />
<glyph unicode="&#x11a;" horiz-adv-x="1183" d="M39 0l254 1434h942l-45 -260h-637l-57 -330h522l-45 -254h-522l-60 -330h649l-45 -260h-956zM492 1802h188l115 -151l166 151h215l-250 -282h-283z" />
<glyph unicode="&#x11b;" horiz-adv-x="1097" d="M47 432q0 190 70.5 340t208 238t321.5 88q183 0 292.5 -83.5t109.5 -221.5q0 -83 -31 -146t-83.5 -102.5t-131 -63.5t-164.5 -33.5t-193 -9.5h-100v-18q0 -223 168 -223q47 0 116 21.5t106 38t127 58.5q13 6 20 9l86 -205q-56 -28 -120.5 -55.5t-180 -57t-213.5 -29.5 q-192 0 -300 112t-108 343zM369 598h90q147 0 227 46t80 128q0 52 -36 83.5t-93 31.5q-97 0 -165.5 -82t-102.5 -207zM395 1493h189l114 -152l166 152h215l-250 -283h-282z" />
<glyph unicode="&#x11e;" horiz-adv-x="1368" d="M92 532q0 220 53.5 397.5t146 291.5t214.5 174.5t262 60.5q86 0 168 -19t161 -58t130 -70t127 -82l-168 -215q-2 2 -39 26t-43.5 27.5t-39.5 24t-44.5 25.5t-40.5 20t-46 19.5t-42 12.5t-47 10.5t-45 2.5q-117 0 -207 -85t-136 -224.5t-46 -307.5q0 -325 204 -325 q140 0 330 170l31 172h-305l41 241h589l-145 -821h-283l25 141q-94 -78 -185.5 -121t-193.5 -43q-191 0 -308.5 142t-117.5 413zM567 1772h181q-6 -43 21.5 -67t82.5 -24q69 0 114.5 24.5t51.5 66.5h182q-20 -118 -112.5 -185t-239.5 -67q-150 0 -224.5 70t-56.5 182z" />
<glyph unicode="&#x11f;" horiz-adv-x="1212" d="M-45 -352l96 227q236 -80 402 -80q202 0 233 187l27 149q-185 -154 -359 -154q-60 0 -112 20.5t-96 64.5t-69.5 122t-25.5 183q0 211 62.5 377.5t174.5 260t255 93.5q53 0 100 -13t89.5 -40t64.5 -44.5t59 -50.5l23 125h295l-191 -1081q-22 -127 -63 -212t-106 -133 t-145 -67.5t-192 -19.5q-252 0 -522 86zM354 403q0 -90 32.5 -140t94.5 -50q119 0 273 154l63 360q-101 133 -209 133q-77 0 -136 -66.5t-88.5 -169.5t-29.5 -221zM442 1462h181q-6 -43 21.5 -66.5t82.5 -23.5q69 0 114.5 24t51.5 66h182q-20 -118 -112.5 -185t-239.5 -67 q-150 0 -224.5 70t-56.5 182z" />
<glyph unicode="&#x120;" horiz-adv-x="1368" d="M92 532q0 220 53.5 397.5t146 291.5t214.5 174.5t262 60.5q86 0 168 -19t161 -58t130 -70t127 -82l-168 -215q-2 2 -39 26t-43.5 27.5t-39.5 24t-44.5 25.5t-40.5 20t-46 19.5t-42 12.5t-47 10.5t-45 2.5q-117 0 -207 -85t-136 -224.5t-46 -307.5q0 -325 204 -325 q140 0 330 170l31 172h-305l41 241h589l-145 -821h-283l25 141q-94 -78 -185.5 -121t-193.5 -43q-191 0 -308.5 142t-117.5 413zM723 1540l43 246h240l-43 -246h-240z" />
<glyph unicode="&#x121;" horiz-adv-x="1212" d="M-45 -352l96 227q236 -80 402 -80q202 0 233 187l27 149q-185 -154 -359 -154q-60 0 -112 20.5t-96 64.5t-69.5 122t-25.5 183q0 211 62.5 377.5t174.5 260t255 93.5q53 0 100 -13t89.5 -40t64.5 -44.5t59 -50.5l23 125h295l-191 -1081q-22 -127 -63 -212t-106 -133 t-145 -67.5t-192 -19.5q-252 0 -522 86zM354 403q0 -90 32.5 -140t94.5 -50q119 0 273 154l63 360q-101 133 -209 133q-77 0 -136 -66.5t-88.5 -169.5t-29.5 -221zM596 1231l43 246h240l-43 -246h-240z" />
<glyph unicode="&#x122;" horiz-adv-x="1368" d="M92 532q0 220 53.5 397.5t146 291.5t214.5 174.5t262 60.5q86 0 168 -19t161 -58t130 -70t127 -82l-168 -215q-2 2 -39 26t-43.5 27.5t-39.5 24t-44.5 25.5t-40.5 20t-46 19.5t-42 12.5t-47 10.5t-45 2.5q-117 0 -207 -85t-136 -224.5t-46 -307.5q0 -325 204 -325 q140 0 330 170l31 172h-305l41 241h589l-145 -821h-283l25 141q-94 -78 -185.5 -121t-193.5 -43q-191 0 -308.5 142t-117.5 413zM391 -532l135 170h-98l41 245h219l-33 -270l-217 -219z" />
<glyph unicode="&#x123;" horiz-adv-x="1212" d="M-45 -352l96 227q236 -80 402 -80q202 0 233 187l27 149q-185 -154 -359 -154q-60 0 -112 20.5t-96 64.5t-69.5 122t-25.5 183q0 211 62.5 377.5t174.5 260t255 93.5q53 0 100 -13t89.5 -40t64.5 -44.5t59 -50.5l23 125h295l-191 -1081q-22 -127 -63 -212t-106 -133 t-145 -67.5t-192 -19.5q-252 0 -522 86zM354 403q0 -90 32.5 -140t94.5 -50q119 0 273 154l63 360q-101 133 -209 133q-77 0 -136 -66.5t-88.5 -169.5t-29.5 -221zM623 1231l32 270l217 219l48 -73l-136 -170h99l-41 -246h-219z" />
<glyph unicode="&#x126;" horiz-adv-x="1449" d="M61 0l187 1055h-139l30 174h140l36 205h306l-37 -205h497l37 205h307l-36 -205h145l-31 -174h-145l-187 -1055h-305l109 625h-498l-108 -625h-308zM522 879h498l31 176h-498z" />
<glyph unicode="&#x127;" d="M10 0l209 1188h-113l31 172h113l24 133h295l-24 -133h319l-30 -172h-320l-41 -236q220 146 373 146q163 0 228.5 -101t33.5 -274l-127 -723h-297l123 692q32 176 -88 176q-63 0 -143.5 -42t-141.5 -95l-129 -731h-295z" />
<glyph unicode="&#x128;" horiz-adv-x="600" d="M39 0l254 1434h305l-252 -1434h-307zM129 1612q29 43 42.5 62t40 50t46.5 44.5t49.5 24.5t61.5 11q44 0 90.5 -24.5t86 -49t64.5 -24.5q50 0 117 96l121 -80q-26 -39 -36.5 -53.5t-33 -44t-37.5 -41.5t-37.5 -28t-46 -21.5t-51.5 -5.5q-44 0 -90 24.5t-85 49t-66 24.5 q-47 0 -117 -96z" />
<glyph unicode="&#x129;" horiz-adv-x="534" d="M10 0l191 1075h295l-191 -1075h-295zM41 1303q29 43 42.5 62t40 50t46.5 44.5t49.5 24.5t61.5 11q44 0 90.5 -24.5t86 -49t64.5 -24.5q50 0 117 96l121 -80q-26 -39 -36.5 -53.5t-33 -44t-37.5 -41.5t-37.5 -28t-46 -21.5t-51.5 -5.5q-44 0 -90 24.5t-85.5 49t-66.5 24.5 q-46 0 -116 -96z" />
<glyph unicode="&#x12a;" horiz-adv-x="600" d="M39 0l254 1434h305l-252 -1434h-307zM178 1571l31 174h584l-31 -174h-584z" />
<glyph unicode="&#x12b;" horiz-adv-x="532" d="M10 0l191 1075h295l-191 -1075h-295zM86 1262l31 174h583l-30 -174h-584z" />
<glyph unicode="&#x12c;" horiz-adv-x="600" d="M39 0l254 1434h305l-252 -1434h-307zM190 1772h181q-6 -43 21.5 -67t82.5 -24q69 0 114.5 24.5t51.5 66.5h182q-20 -118 -112.5 -185t-239.5 -67q-150 0 -224.5 70t-56.5 182z" />
<glyph unicode="&#x12d;" horiz-adv-x="532" d="M10 0l191 1075h295l-191 -1075h-295zM100 1462h181q-6 -43 21.5 -66.5t82.5 -23.5q69 0 114.5 24t51.5 66h182q-20 -118 -112.5 -185t-239.5 -67q-150 0 -224.5 70t-56.5 182z" />
<glyph unicode="&#x12e;" horiz-adv-x="600" d="M-68 -238q0 75 58 132.5t164 105.5h-117l254 1434h305l-252 -1434h-8q-211 -116 -211 -205q0 -14 4.5 -24t15 -16t18.5 -10t25 -5.5t24 -2t25.5 0t20.5 0.5l-51 -135h-13q-16 1 -37.5 0t-46.5 2.5t-50 8.5t-48 17t-41 28t-28.5 42.5t-10.5 60.5z" />
<glyph unicode="&#x12f;" horiz-adv-x="530" d="M-106 -238q0 75 58 132t163 106h-107l191 1075h295l-191 -1075h-6q-211 -116 -211 -205q0 -14 4.5 -24t15 -16t18.5 -10t25 -5.5t24 -2t25.5 0t20.5 0.5l-51 -135h-13q-16 1 -37.5 0t-46.5 2.5t-49.5 8.5t-47.5 17t-41 28t-28.5 42.5t-10.5 60.5zM217 1231l45 256h309 l-45 -256h-309z" />
<glyph unicode="&#x130;" horiz-adv-x="600" d="M39 0l254 1434h305l-252 -1434h-307zM346 1540l43 246h240l-43 -246h-240z" />
<glyph unicode="&#x131;" horiz-adv-x="532" d="M10 0l191 1075h295l-191 -1075h-295z" />
<glyph unicode="&#x132;" d="M39 0l254 1434h305l-252 -1434h-307zM389 -121q85 27 131.5 47t75 48t38.5 56t21 83l232 1321h307l-229 -1305q-29 -161 -53 -220q-43 -102 -146 -162q-102 -59 -311 -107z" />
<glyph unicode="&#x133;" horiz-adv-x="1062" d="M10 0l191 1075h295l-191 -1075h-295zM219 1231l45 256h309l-45 -256h-309zM274 -238q60 20 98.5 35t68.5 33t45.5 31.5t27.5 37.5t17 45t12 60l188 1071h295l-184 -1048q-12 -66 -18 -96.5t-20 -80t-29 -73t-41 -59t-60 -54.5t-82.5 -44t-112 -43.5t-145.5 -37.5z M752 1231l45 256h309l-45 -256h-309z" />
<glyph unicode="&#x134;" horiz-adv-x="600" d="M-207 -121q85 27 131.5 47t75 48t38.5 56t21 83l232 1321h307l-229 -1305q-29 -161 -53 -220q-43 -102 -146 -162q-102 -59 -311 -107zM119 1520l250 282h282l150 -282h-187l-116 153l-164 -153h-215z" />
<glyph unicode="&#x135;" horiz-adv-x="534" d="M-256 -238q60 20 98.5 35t68.5 33t45.5 31.5t27 37.5t16.5 45t12 60l189 1071h295l-185 -1048q-12 -66 -18 -96.5t-20 -80t-29 -73t-41 -59t-60 -54.5t-82.5 -44t-112 -43.5t-145.5 -37.5zM29 1210l250 283h282l150 -283h-187l-116 154l-164 -154h-215z" />
<glyph unicode="&#x136;" horiz-adv-x="1335" d="M39 0l254 1434h305l-109 -611l564 611h405l-657 -666l430 -768h-338l-299 557l-184 -186l-64 -371h-307zM350 -532l135 170h-98l41 245h219l-33 -270l-217 -219z" />
<glyph unicode="&#x137;" horiz-adv-x="1095" d="M10 0l264 1493h295l-145 -815l344 397h365l-426 -440l290 -635h-299l-186 434l-160 -166l-47 -268h-295zM246 -532l135 170h-98l41 245h219l-33 -270l-217 -219z" />
<glyph unicode="&#x138;" horiz-adv-x="1095" d="M10 0l191 1075h295l-72 -397l344 397h365l-426 -440l290 -635h-299l-186 434l-160 -166l-47 -268h-295z" />
<glyph unicode="&#x139;" horiz-adv-x="1095" d="M39 0l254 1434h305l-207 -1180h617l-43 -254h-926zM254 1520l281 282h348l-373 -282h-256z" />
<glyph unicode="&#x13a;" horiz-adv-x="542" d="M14 0l262 1493h295l-262 -1493h-295zM231 1579l281 283h348l-373 -283h-256z" />
<glyph unicode="&#x13b;" horiz-adv-x="1095" d="M39 0l254 1434h305l-207 -1180h617l-43 -254h-926zM285 -532l135 170h-98l40 245h220l-33 -270l-217 -219z" />
<glyph unicode="&#x13c;" horiz-adv-x="542" d="M-43 -532l135 170h-98l41 245h219l-33 -270l-217 -219zM16 0l263 1493h294l-262 -1493h-295z" />
<glyph unicode="&#x13d;" horiz-adv-x="1095" d="M39 0l254 1434h305l-207 -1180h617l-43 -254h-926zM614 1018l136 170h-99l41 246h219l-32 -271l-217 -219z" />
<glyph unicode="&#x13e;" horiz-adv-x="657" d="M14 0l262 1493h295l-262 -1493h-295zM588 1077l135 170h-98l41 246h219l-33 -270l-217 -219z" />
<glyph unicode="&#x13f;" horiz-adv-x="1097" d="M39 0l254 1434h305l-207 -1180h617l-43 -254h-926zM743 629l43 245h240l-43 -245h-240z" />
<glyph unicode="&#x140;" horiz-adv-x="712" d="M14 0l262 1493h295l-262 -1493h-295zM510 629l43 245h240l-43 -245h-240z" />
<glyph unicode="&#x141;" horiz-adv-x="1118" d="M4 406l47 272l144 76l120 680h306l-89 -500l275 145l-49 -272l-273 -145l-71 -408h616l-43 -254h-926l84 481z" />
<glyph unicode="&#x142;" horiz-adv-x="645" d="M43 455l47 272l129 68l123 698h295l-92 -524l127 67l-47 -272l-129 -68l-121 -696h-295l92 522z" />
<glyph unicode="&#x143;" horiz-adv-x="1433" d="M39 0l254 1434h307l358 -967l168 967h308l-254 -1434h-306l-360 971l-168 -971h-307zM682 1520l281 282h348l-373 -282h-256z" />
<glyph unicode="&#x144;" d="M10 0l191 1075h295l-23 -123q220 146 373 146q163 0 228.5 -101t33.5 -274l-127 -723h-295l123 692q32 176 -90 176q-63 0 -143.5 -42t-141.5 -95l-129 -731h-295zM502 1210l280 283h348l-372 -283h-256z" />
<glyph unicode="&#x145;" horiz-adv-x="1433" d="M39 0l254 1434h307l358 -967l168 967h308l-254 -1434h-306l-360 971l-168 -971h-307zM416 -532l135 170h-98l41 245h219l-33 -270l-217 -219z" />
<glyph unicode="&#x146;" d="M10 0l191 1075h295l-23 -123q220 146 373 146q163 0 228.5 -101t33.5 -274l-127 -723h-295l123 692q32 176 -90 176q-63 0 -143.5 -42t-141.5 -95l-129 -731h-295zM291 -532l135 170h-98l41 245h219l-33 -270l-217 -219z" />
<glyph unicode="&#x147;" horiz-adv-x="1433" d="M39 0l254 1434h307l358 -967l168 967h308l-254 -1434h-306l-360 971l-168 -971h-307zM596 1802h188l115 -151l166 151h215l-250 -282h-282z" />
<glyph unicode="&#x148;" d="M10 0l191 1075h295l-23 -123q220 146 373 146q163 0 228.5 -101t33.5 -274l-127 -723h-295l123 692q32 176 -90 176q-63 0 -143.5 -42t-141.5 -95l-129 -731h-295zM416 1493h188l115 -152l166 152h215l-250 -283h-283z" />
<glyph unicode="&#x149;" d="M10 0l191 1075h295l-23 -123q220 146 373 146q163 0 228.5 -101t33.5 -274l-127 -723h-295l123 692q32 176 -90 176q-63 0 -143.5 -42t-141.5 -95l-129 -731h-295zM223 1225l135 170h-98l41 245h219l-33 -270l-217 -219z" />
<glyph unicode="&#x14a;" horiz-adv-x="1433" d="M39 0l252 1434h307l358 -965l168 965h308l-240 -1352q-9 -47 -16 -77t-18 -66t-24.5 -59t-33 -50.5t-45 -46.5t-60 -40t-79 -37t-100 -33t-124.5 -33l-65 239q118 39 168.5 66t70.5 71l-354 955l-168 -971h-305z" />
<glyph unicode="&#x14b;" horiz-adv-x="1202" d="M10 0l191 1075h295l-23 -123q220 146 373 146q163 0 228.5 -101t33.5 -274l-123 -696q-13 -75 -20.5 -109.5t-24.5 -88t-37.5 -79.5t-56 -62t-84.5 -57.5t-118.5 -46t-162.5 -45.5l-61 223q60 20 98.5 35t68 33t44.5 31t27 38t16.5 45t11.5 60l123 688q32 176 -90 176 q-63 0 -143.5 -42t-141.5 -95l-129 -731h-295z" />
<glyph unicode="&#x14c;" horiz-adv-x="1476" d="M92 561q0 134 27.5 261t86 242.5t143 202t207.5 138t269 51.5q294 0 444 -154t150 -423q0 -134 -27.5 -262t-86.5 -244.5t-144 -204t-208 -139.5t-269 -52q-293 0 -442.5 156t-149.5 428zM408 582q0 -61 7 -109t26 -93.5t50.5 -75.5t83.5 -48t121 -18q84 0 154.5 43 t116 110t77.5 150.5t46 162.5t14 148q0 77 -12.5 134.5t-43 106.5t-89 75t-144.5 26q-84 0 -155 -43t-116.5 -109.5t-77 -150t-45 -161.5t-13.5 -148zM616 1571l31 174h584l-31 -174h-584z" />
<glyph unicode="&#x14d;" d="M51 424q0 141 37.5 262.5t108 213.5t182 145t250.5 53q231 0 361 -117.5t130 -329.5q0 -141 -37.5 -262.5t-108.5 -213.5t-182.5 -145t-250.5 -53q-230 0 -360 118t-130 329zM346 436q0 -112 44 -171.5t157 -59.5q66 0 121 41.5t87.5 107t50 139.5t17.5 146 q0 113 -43.5 172t-154.5 59q-67 0 -122.5 -41.5t-88.5 -107t-50.5 -139.5t-17.5 -146zM420 1262l31 174h583l-30 -174h-584z" />
<glyph unicode="&#x14e;" horiz-adv-x="1476" d="M92 561q0 134 27.5 261t86 242.5t143 202t207.5 138t269 51.5q294 0 444 -154t150 -423q0 -134 -27.5 -262t-86.5 -244.5t-144 -204t-208 -139.5t-269 -52q-293 0 -442.5 156t-149.5 428zM408 582q0 -61 7 -109t26 -93.5t50.5 -75.5t83.5 -48t121 -18q84 0 154.5 43 t116 110t77.5 150.5t46 162.5t14 148q0 77 -12.5 134.5t-43 106.5t-89 75t-144.5 26q-84 0 -155 -43t-116.5 -109.5t-77 -150t-45 -161.5t-13.5 -148zM627 1772h180q-6 -43 21.5 -67t82.5 -24q69 0 114.5 24.5t51.5 66.5h183q-20 -118 -113 -185t-240 -67q-150 0 -224 70 t-56 182z" />
<glyph unicode="&#x14f;" d="M51 424q0 141 37.5 262.5t108 213.5t182 145t250.5 53q231 0 361 -117.5t130 -329.5q0 -141 -37.5 -262.5t-108.5 -213.5t-182.5 -145t-250.5 -53q-230 0 -360 118t-130 329zM346 436q0 -112 44 -171.5t157 -59.5q66 0 121 41.5t87.5 107t50 139.5t17.5 146 q0 113 -43.5 172t-154.5 59q-67 0 -122.5 -41.5t-88.5 -107t-50.5 -139.5t-17.5 -146zM434 1462h180q-6 -43 21.5 -66.5t83.5 -23.5q69 0 114.5 24t51.5 66h182q-20 -118 -112.5 -185t-239.5 -67q-150 0 -224.5 70t-56.5 182z" />
<glyph unicode="&#x150;" horiz-adv-x="1478" d="M92 561q0 134 27.5 261t86 242.5t143 202t207.5 138t269 51.5q294 0 444 -154t150 -423q0 -134 -27.5 -262t-86.5 -244.5t-144 -204t-208 -139.5t-269 -52q-293 0 -442.5 156t-149.5 428zM408 582q0 -61 7 -109t26 -93.5t50.5 -75.5t83.5 -48t121 -18q84 0 154.5 43 t116 110t77.5 150.5t46 162.5t14 148q0 77 -12.5 134.5t-43 106.5t-89 75t-144.5 26q-84 0 -155 -43t-116.5 -109.5t-77 -150t-45 -161.5t-13.5 -148zM606 1520l197 282h270l-291 -282h-176zM948 1520l197 282h268l-289 -282h-176z" />
<glyph unicode="&#x151;" d="M51 424q0 141 37.5 262.5t108 213.5t182 145t250.5 53q231 0 361 -117.5t130 -329.5q0 -141 -37.5 -262.5t-108.5 -213.5t-182.5 -145t-250.5 -53q-230 0 -360 118t-130 329zM346 436q0 -112 44 -171.5t157 -59.5q66 0 121 41.5t87.5 107t50 139.5t17.5 146 q0 113 -43.5 172t-154.5 59q-67 0 -122.5 -41.5t-88.5 -107t-50.5 -139.5t-17.5 -146zM414 1210l196 283h271l-291 -283h-176zM756 1210l196 283h269l-289 -283h-176z" />
<glyph unicode="&#x152;" horiz-adv-x="2129" d="M92 561q0 134 27.5 261t86 242.5t143 202t207.5 138t269 51.5q245 0 396 -113l16 91h942l-45 -260h-637l-57 -330h522l-45 -254h-522l-60 -330h650l-46 -260h-956l8 45q-139 -68 -307 -68q-293 0 -442.5 156t-149.5 428zM408 582q0 -61 7 -109t26 -93.5t50.5 -75.5 t83.5 -48t121 -18q84 0 154.5 43t116 110t77.5 150.5t46 162.5t14 148q0 77 -12.5 134.5t-43 106.5t-89 75t-144.5 26q-84 0 -155 -43t-116.5 -109.5t-77 -150t-45 -161.5t-13.5 -148z" />
<glyph unicode="&#x153;" horiz-adv-x="1863" d="M51 424q0 141 37.5 262.5t108 213.5t182 145t250.5 53q257 0 387 -146q159 146 397 146q183 0 292.5 -83.5t109.5 -221.5q0 -83 -31 -146t-83.5 -102.5t-131 -63.5t-164.5 -33.5t-193 -9.5h-100v-18q0 -223 168 -223q47 0 116 21.5t106 38t127 58.5q4 2 6.5 3t6.5 3t7 3 l86 -205q-56 -28 -120.5 -55.5t-180 -57t-213.5 -29.5q-210 0 -314 127q-149 -127 -366 -127q-230 0 -360 118t-130 329zM346 436q0 -112 44 -171.5t157 -59.5q66 0 121 41.5t87.5 107t50 139.5t17.5 146q0 113 -43.5 172t-154.5 59q-67 0 -122.5 -41.5t-88.5 -107 t-50.5 -139.5t-17.5 -146zM1135 598h90q147 0 227 46t80 128q0 52 -36 83.5t-93 31.5q-97 0 -165.5 -82t-102.5 -207z" />
<glyph unicode="&#x154;" horiz-adv-x="1359" d="M39 0l254 1434h553q514 0 514 -390q0 -80 -26 -156.5t-76.5 -143.5t-133 -115t-186.5 -66l238 -563h-320l-207 555h-205l-98 -555h-307zM487 797h261q140 0 218 62t78 177q0 86 -59.5 121t-165.5 35h-262zM668 1520l280 282h348l-372 -282h-256z" />
<glyph unicode="&#x155;" horiz-adv-x="813" d="M10 0l191 1075h295l-41 -225q13 23 30.5 48t56 63.5t81.5 66.5t107 46t134 13l-49 -276q-67 0 -126.5 -20.5t-102 -53t-78 -72t-58 -79.5t-38.5 -72.5t-22 -53.5l-7 -20l-78 -440h-295zM348 1210l281 283h348l-373 -283h-256z" />
<glyph unicode="&#x156;" horiz-adv-x="1359" d="M39 0l254 1434h553q514 0 514 -390q0 -80 -26 -156.5t-76.5 -143.5t-133 -115t-186.5 -66l238 -563h-320l-207 555h-205l-98 -555h-307zM360 -532l136 170h-99l41 245h219l-32 -270l-217 -219zM487 797h261q140 0 218 62t78 177q0 86 -59.5 121t-165.5 35h-262z" />
<glyph unicode="&#x157;" horiz-adv-x="813" d="M-49 -532l135 170h-98l41 245h219l-33 -270l-217 -219zM10 0l191 1075h295l-41 -225q13 23 30.5 48t56 63.5t81.5 66.5t107 46t134 13l-49 -276q-67 0 -126.5 -20.5t-102 -53t-78 -72t-58 -79.5t-38.5 -72.5t-22 -53.5l-7 -20l-78 -440h-295z" />
<glyph unicode="&#x158;" horiz-adv-x="1359" d="M39 0l254 1434h553q514 0 514 -390q0 -80 -26 -156.5t-76.5 -143.5t-133 -115t-186.5 -66l238 -563h-320l-207 555h-205l-98 -555h-307zM487 797h261q140 0 218 62t78 177q0 86 -59.5 121t-165.5 35h-262zM584 1802h188l115 -151l166 151h215l-250 -282h-283z" />
<glyph unicode="&#x159;" horiz-adv-x="813" d="M10 0l191 1075h295l-41 -225q13 23 30.5 48t56 63.5t81.5 66.5t107 46t134 13l-49 -276q-67 0 -126.5 -20.5t-102 -53t-78 -72t-58 -79.5t-38.5 -72.5t-22 -53.5l-7 -20l-78 -440h-295zM264 1493h189l114 -152l166 152h215l-250 -283h-282z" />
<glyph unicode="&#x15a;" horiz-adv-x="1236" d="M-14 193l164 208q108 -69 229.5 -119.5t218.5 -50.5q91 0 151 45t60 119q0 36 -19.5 64t-59.5 49.5t-80 37.5t-101.5 39.5t-104.5 43.5q-49 23 -86.5 46t-76.5 57.5t-64 73t-41 91.5t-16 115q0 193 139 318.5t377 125.5q273 0 573 -182l-164 -205q-82 52 -197 92.5 t-200 40.5q-82 0 -139 -42t-57 -116q0 -34 16 -58t51.5 -43t72.5 -33t99 -38t111 -47t86.5 -45t79.5 -57t68.5 -74t44.5 -94.5t18 -120.5q0 -200 -146 -328.5t-387 -128.5q-171 0 -335 63.5t-285 152.5zM567 1520l281 282h348l-373 -282h-256z" />
<glyph unicode="&#x15b;" horiz-adv-x="1034" d="M-25 141l138 193q85 -52 192 -91.5t187 -39.5q63 0 99 26.5t36 67.5q0 17 -5.5 30.5t-19 25t-26.5 19.5t-38 17.5t-42.5 15t-50.5 15.5t-52 16q-60 20 -105 42t-91.5 58.5t-71.5 91.5t-25 126q0 151 113 247.5t307 96.5q127 0 255.5 -40t215.5 -93l-135 -189 q-69 39 -161.5 68.5t-162.5 29.5q-62 0 -96.5 -25t-34.5 -67q0 -19 8.5 -33.5t19 -24.5t35 -20.5t42.5 -16.5t56 -18t61 -20q53 -18 90.5 -34t81.5 -43.5t71 -59.5t45.5 -80t18.5 -106q0 -157 -120.5 -253t-322.5 -96q-146 0 -279.5 48t-232.5 116zM422 1210l280 283h349 l-373 -283h-256z" />
<glyph unicode="&#x15c;" horiz-adv-x="1236" d="M-14 193l164 208q108 -69 229.5 -119.5t218.5 -50.5q91 0 151 45t60 119q0 36 -19.5 64t-59.5 49.5t-80 37.5t-101.5 39.5t-104.5 43.5q-49 23 -86.5 46t-76.5 57.5t-64 73t-41 91.5t-16 115q0 193 139 318.5t377 125.5q273 0 573 -182l-164 -205q-82 52 -197 92.5 t-200 40.5q-82 0 -139 -42t-57 -116q0 -34 16 -58t51.5 -43t72.5 -33t99 -38t111 -47t86.5 -45t79.5 -57t68.5 -74t44.5 -94.5t18 -120.5q0 -200 -146 -328.5t-387 -128.5q-171 0 -335 63.5t-285 152.5zM434 1520l250 282h283l149 -282h-186l-117 153l-164 -153h-215z" />
<glyph unicode="&#x15d;" horiz-adv-x="1034" d="M-25 141l138 193q85 -52 192 -91.5t187 -39.5q63 0 99 26.5t36 67.5q0 17 -5.5 30.5t-19 25t-26.5 19.5t-38 17.5t-42.5 15t-50.5 15.5t-52 16q-60 20 -105 42t-91.5 58.5t-71.5 91.5t-25 126q0 151 113 247.5t307 96.5q127 0 255.5 -40t215.5 -93l-135 -189 q-69 39 -161.5 68.5t-162.5 29.5q-62 0 -96.5 -25t-34.5 -67q0 -19 8.5 -33.5t19 -24.5t35 -20.5t42.5 -16.5t56 -18t61 -20q53 -18 90.5 -34t81.5 -43.5t71 -59.5t45.5 -80t18.5 -106q0 -157 -120.5 -253t-322.5 -96q-146 0 -279.5 48t-232.5 116zM289 1210l250 283h282 l150 -283h-187l-116 154l-164 -154h-215z" />
<glyph unicode="&#x15e;" horiz-adv-x="1236" d="M-14 193l164 208q108 -69 229.5 -119.5t218.5 -50.5q91 0 151 45t60 119q0 36 -19.5 64t-59.5 49.5t-80 37.5t-101.5 39.5t-104.5 43.5q-49 23 -86.5 46t-76.5 57.5t-64 73t-41 91.5t-16 115q0 193 139 318.5t377 125.5q273 0 573 -182l-164 -205q-82 52 -197 92.5 t-200 40.5q-82 0 -139 -42t-57 -116q0 -34 16 -58t51.5 -43t72.5 -33t99 -38t111 -47t86.5 -45t79.5 -57t68.5 -74t44.5 -94.5t18 -120.5q0 -193 -137 -320.5t-365 -136.5q33 -68 33 -135q0 -105 -68 -161t-174 -56t-176 45l84 146q46 -25 88 -25q44 0 72 22.5t28 73.5 q0 39 -20 97q-146 17 -281.5 76t-236.5 133z" />
<glyph unicode="&#x15f;" horiz-adv-x="1034" d="M-25 141l138 193q85 -52 192 -91.5t187 -39.5q63 0 99 26.5t36 67.5q0 17 -5.5 30.5t-19 25t-26.5 19.5t-38 17.5t-42.5 15t-50.5 15.5t-52 16q-60 20 -105 42t-91.5 58.5t-71.5 91.5t-25 126q0 151 113 247.5t307 96.5q127 0 255.5 -40t215.5 -93l-135 -189 q-69 39 -161.5 68.5t-162.5 29.5q-62 0 -96.5 -25t-34.5 -67q0 -19 8.5 -33.5t19 -24.5t35 -20.5t42.5 -16.5t56 -18t61 -20q53 -18 90.5 -34t81.5 -43.5t71 -59.5t45.5 -80t18.5 -106q0 -144 -101.5 -237.5t-277.5 -106.5q35 -73 35 -140q0 -105 -68 -161t-174 -56t-176 45 l84 146q46 -25 88 -25q44 0 72 22.5t28 73.5q0 41 -18 93q-128 11 -245 56.5t-202 104.5z" />
<glyph unicode="&#x160;" horiz-adv-x="1236" d="M-14 193l164 208q108 -69 229.5 -119.5t218.5 -50.5q91 0 151 45t60 119q0 36 -19.5 64t-59.5 49.5t-80 37.5t-101.5 39.5t-104.5 43.5q-49 23 -86.5 46t-76.5 57.5t-64 73t-41 91.5t-16 115q0 193 139 318.5t377 125.5q273 0 573 -182l-164 -205q-82 52 -197 92.5 t-200 40.5q-82 0 -139 -42t-57 -116q0 -34 16 -58t51.5 -43t72.5 -33t99 -38t111 -47t86.5 -45t79.5 -57t68.5 -74t44.5 -94.5t18 -120.5q0 -200 -146 -328.5t-387 -128.5q-171 0 -335 63.5t-285 152.5zM483 1802h189l114 -151l166 151h215l-249 -282h-283z" />
<glyph unicode="&#x161;" horiz-adv-x="1032" d="M-25 141l138 193q85 -52 192 -91.5t187 -39.5q63 0 99 26.5t36 67.5q0 17 -5.5 30.5t-19 25t-26.5 19.5t-38 17.5t-42.5 15t-50.5 15.5t-52 16q-60 20 -105 42t-91.5 58.5t-71.5 91.5t-25 126q0 151 113 247.5t307 96.5q127 0 255.5 -40t215.5 -93l-135 -189 q-69 39 -161.5 68.5t-162.5 29.5q-62 0 -96.5 -25t-34.5 -67q0 -19 8.5 -33.5t19 -24.5t35 -20.5t42.5 -16.5t56 -18t61 -20q53 -18 90.5 -34t81.5 -43.5t71 -59.5t45.5 -80t18.5 -106q0 -157 -120.5 -253t-322.5 -96q-146 0 -279.5 48t-232.5 116zM336 1493h188l115 -152 l166 152h215l-250 -283h-283z" />
<glyph unicode="&#x162;" horiz-adv-x="1132" d="M129 1174l45 260h1073l-47 -260h-381l-207 -1174h-92q14 -19 29.5 -62.5t15.5 -95.5q0 -106 -68 -161.5t-173 -55.5q-107 0 -177 45l84 146q46 -25 88 -25q44 0 72.5 22.5t28.5 73.5q0 45 -27 113h-88l207 1174h-383z" />
<glyph unicode="&#x163;" horiz-adv-x="808" d="M39 -330l84 146q46 -25 88 -25q44 0 72 22.5t28 73.5q0 40 -22 103q-103 27 -143 121.5t-11 253.5l88 493h-135l37 217h135l49 271l301 40l-55 -311h266l-39 -217h-266l-92 -522q-17 -103 59 -103q51 0 156 48l70 -230q-157 -59 -287 -71q35 -68 35 -138q0 -105 -68 -161 t-174 -56t-176 45z" />
<glyph unicode="&#x164;" horiz-adv-x="1132" d="M129 1174l45 260h1073l-47 -260h-381l-207 -1174h-307l207 1174h-383zM432 1802h189l114 -151l166 151h215l-250 -282h-282z" />
<glyph unicode="&#x165;" horiz-adv-x="808" d="M88 858l37 217h135l49 271l301 40l-55 -311h266l-39 -217h-266l-92 -522q-17 -103 59 -103q51 0 156 48l70 -230q-207 -74 -332 -74q-149 0 -212 99t-30 289l88 493h-135zM674 1225l135 170h-98l41 245h219l-33 -270l-217 -219z" />
<glyph unicode="&#x166;" horiz-adv-x="1150" d="M137 1174l45 260h1073l-47 -260h-381l-100 -564h176l-31 -174h-176l-75 -436h-308l76 436h-172l29 174h174l100 564h-383z" />
<glyph unicode="&#x167;" horiz-adv-x="808" d="M68 520l30 174h95l30 164h-135l37 217h135l49 271l301 40l-55 -311h266l-39 -217h-266l-29 -164h209l-30 -174h-209l-33 -184q-17 -103 59 -103q51 0 156 48l70 -230q-207 -74 -332 -74q-149 0 -212 99t-30 289l27 155h-94z" />
<glyph unicode="&#x168;" horiz-adv-x="1380" d="M108.5 411.5q0.5 90.5 20.5 204.5l145 818h308l-156 -881q-15 -65 -12.5 -122t20.5 -99.5t65.5 -67t121.5 -24.5q75 0 130.5 23.5t90 68.5t54 97.5t32.5 123.5l155 881h308l-158 -893q-15 -82 -36 -149.5t-54 -133.5t-81 -115.5t-111 -87.5t-148.5 -58t-190.5 -20 q-141 0 -241 33t-155.5 88t-81.5 139t-25.5 174.5zM512 1612q29 43 42.5 62t40 50t46.5 44.5t49.5 24.5t61.5 11q44 0 90.5 -24.5t86 -49t64.5 -24.5q50 0 117 96l121 -80q-26 -39 -36.5 -53.5t-33 -44t-37.5 -41.5t-37.5 -28t-46 -21.5t-51.5 -5.5q-43 0 -89.5 24.5t-86 49 t-65.5 24.5q-47 0 -117 -96z" />
<glyph unicode="&#x169;" d="M63 352l127 723h295l-123 -692q-32 -176 91 -176q63 0 142.5 41.5t141.5 93.5l129 733h295l-188 -1075h-295l20 123q-213 -146 -372 -146q-161 0 -227 101t-36 274zM381 1303q29 43 42.5 62t40 50t46.5 44.5t49.5 24.5t61.5 11q44 0 90.5 -24.5t86 -49t64.5 -24.5 q50 0 117 96l121 -80q-26 -39 -36.5 -53.5t-33 -44t-37.5 -41.5t-37.5 -28t-46 -21.5t-51.5 -5.5q-44 0 -90 24.5t-86 49t-66 24.5q-46 0 -116 -96z" />
<glyph unicode="&#x16a;" horiz-adv-x="1380" d="M108.5 411.5q0.5 90.5 20.5 204.5l145 818h308l-156 -881q-15 -65 -12.5 -122t20.5 -99.5t65.5 -67t121.5 -24.5q75 0 130.5 23.5t90 68.5t54 97.5t32.5 123.5l155 881h308l-158 -893q-15 -82 -36 -149.5t-54 -133.5t-81 -115.5t-111 -87.5t-148.5 -58t-190.5 -20 q-141 0 -241 33t-155.5 88t-81.5 139t-25.5 174.5zM563 1571l31 174h584l-31 -174h-584z" />
<glyph unicode="&#x16b;" d="M63 352l127 723h295l-123 -692q-32 -176 91 -176q63 0 142.5 41.5t141.5 93.5l129 733h295l-188 -1075h-295l20 123q-213 -146 -372 -146q-161 0 -227 101t-36 274zM416 1262l30 174h584l-31 -174h-583z" />
<glyph unicode="&#x16c;" horiz-adv-x="1380" d="M108.5 411.5q0.5 90.5 20.5 204.5l145 818h308l-156 -881q-15 -65 -12.5 -122t20.5 -99.5t65.5 -67t121.5 -24.5q75 0 130.5 23.5t90 68.5t54 97.5t32.5 123.5l155 881h308l-158 -893q-15 -82 -36 -149.5t-54 -133.5t-81 -115.5t-111 -87.5t-148.5 -58t-190.5 -20 q-141 0 -241 33t-155.5 88t-81.5 139t-25.5 174.5zM573 1772h181q-6 -43 21.5 -67t82.5 -24q69 0 114.5 24.5t51.5 66.5h182q-20 -118 -112.5 -185t-239.5 -67q-150 0 -224.5 70t-56.5 182z" />
<glyph unicode="&#x16d;" d="M63 352l127 723h295l-123 -692q-32 -176 91 -176q63 0 142.5 41.5t141.5 93.5l129 733h295l-188 -1075h-295l20 123q-213 -146 -372 -146q-161 0 -227 101t-36 274zM426 1462h180q-6 -43 21.5 -66.5t83.5 -23.5q69 0 114.5 24t51.5 66h182q-20 -118 -112.5 -185 t-239.5 -67q-150 0 -224.5 70t-56.5 182z" />
<glyph unicode="&#x16e;" horiz-adv-x="1380" d="M108.5 411.5q0.5 90.5 20.5 204.5l145 818h308l-156 -881q-15 -65 -12.5 -122t20.5 -99.5t65.5 -67t121.5 -24.5q75 0 130.5 23.5t90 68.5t54 97.5t32.5 123.5l155 881h308l-158 -893q-15 -82 -36 -149.5t-54 -133.5t-81 -115.5t-111 -87.5t-148.5 -58t-190.5 -20 q-141 0 -241 33t-155.5 88t-81.5 139t-25.5 174.5zM662 1724q0 94 65.5 160t159.5 66q93 0 159 -66t66 -160q0 -93 -66 -159t-159 -66q-94 0 -159.5 65.5t-65.5 159.5zM801 1724q0 -34 25.5 -59t60.5 -25q34 0 59 25t25 59q0 35 -25 60.5t-59 25.5q-35 0 -60.5 -25.5 t-25.5 -60.5z" />
<glyph unicode="&#x16f;" d="M63 352l127 723h295l-123 -692q-32 -176 91 -176q63 0 142.5 41.5t141.5 93.5l129 733h295l-188 -1075h-295l20 123q-213 -146 -372 -146q-161 0 -227 101t-36 274zM514 1415q0 94 65.5 159.5t159.5 65.5q93 0 159.5 -66t66.5 -159t-66.5 -159t-159.5 -66 q-94 0 -159.5 65.5t-65.5 159.5zM653 1415q0 -34 25.5 -59t60.5 -25q34 0 59 25t25 59q0 35 -25 60.5t-59 25.5q-35 0 -60.5 -25.5t-25.5 -60.5z" />
<glyph unicode="&#x170;" horiz-adv-x="1380" d="M108.5 411.5q0.5 90.5 20.5 204.5l145 818h308l-156 -881q-15 -65 -12.5 -122t20.5 -99.5t65.5 -67t121.5 -24.5q75 0 130.5 23.5t90 68.5t54 97.5t32.5 123.5l155 881h308l-158 -893q-15 -82 -36 -149.5t-54 -133.5t-81 -115.5t-111 -87.5t-148.5 -58t-190.5 -20 q-141 0 -241 33t-155.5 88t-81.5 139t-25.5 174.5zM557 1520l197 282h270l-291 -282h-176zM899 1520l197 282h268l-289 -282h-176z" />
<glyph unicode="&#x171;" d="M63 352l127 723h295l-123 -692q-32 -176 91 -176q63 0 142.5 41.5t141.5 93.5l129 733h295l-188 -1075h-295l20 123q-213 -146 -372 -146q-161 0 -227 101t-36 274zM408 1210l196 283h270l-290 -283h-176zM750 1210l196 283h268l-288 -283h-176z" />
<glyph unicode="&#x172;" horiz-adv-x="1382" d="M108.5 415q1.5 89 20.5 201l145 818h308l-156 -881q-15 -65 -12.5 -122t20.5 -99.5t65.5 -67t121.5 -24.5q75 0 130.5 23.5t90 68.5t54 97.5t32.5 123.5l155 881h308l-158 -893q-19 -103 -48.5 -184.5t-78 -156t-124 -125.5t-175.5 -75q-98 -57 -153.5 -106t-55.5 -99 q0 -14 4.5 -24t15 -16t18.5 -10t25 -5.5t24 -2t25.5 0t20.5 0.5l-51 -135h-13q-16 1 -37.5 0t-46.5 2.5t-49.5 8.5t-47.5 17t-41 28t-28.5 42.5t-10.5 60.5q0 125 176 218q-134 3 -228 37t-146.5 89t-76.5 137.5t-22.5 171.5z" />
<glyph unicode="&#x173;" d="M63 352l127 723h295l-123 -692q-32 -176 91 -176q63 0 142.5 41.5t141.5 93.5l129 733h295l-188 -1075h-8q-211 -116 -211 -205q0 -14 4.5 -24t15 -16t18.5 -10t25 -5.5t24 -2t25.5 0t20.5 0.5l-51 -135h-13q-16 1 -37.5 0t-46.5 2.5t-50 8.5t-48 17t-41 28t-28.5 42.5 t-10.5 60.5q0 137 221 238h-104l20 123q-213 -146 -372 -146q-161 0 -227 101t-36 274z" />
<glyph unicode="&#x174;" horiz-adv-x="1853" d="M172 1434h336l22 -985l396 985h258l53 -985l365 985h358l-619 -1434h-297l-61 975l-393 -975h-303zM741 1520l250 282h283l149 -282h-186l-117 153l-164 -153h-215z" />
<glyph unicode="&#x175;" horiz-adv-x="1609" d="M115 1075h305l26 -729l314 729h239l54 -727l278 727h322l-494 -1075h-276l-66 686l-309 -686h-277zM567 1210l250 283h283l149 -283h-186l-117 154l-164 -154h-215z" />
<glyph unicode="&#x177;" horiz-adv-x="1169" d="M35 -231q142 52 185 76q77 43 134 126l-200 1104h305l92 -717l346 717h328l-572 -1075q-81 -153 -128 -214q-100 -132 -269 -199q-71 -28 -160 -48zM371 1210l250 283h282l150 -283h-187l-116 154l-164 -154h-215z" />
<glyph unicode="&#x178;" horiz-adv-x="1259" d="M143 1434h326l180 -594l389 594h359l-623 -861l-102 -573h-305l98 567zM492 1540l40 246h242l-43 -246h-239zM850 1540l43 246h240l-43 -246h-240z" />
<glyph unicode="&#x179;" horiz-adv-x="1218" d="M-47 0l41 236l825 938h-618l45 260h1032l-41 -236l-829 -938h673l-45 -260h-1083zM571 1520l281 282h348l-373 -282h-256z" />
<glyph unicode="&#x17a;" horiz-adv-x="1067" d="M-45 0l35 207l637 624h-506l43 244h911l-37 -207l-637 -624h527l-41 -244h-932zM428 1210l281 283h348l-373 -283h-256z" />
<glyph unicode="&#x17b;" horiz-adv-x="1218" d="M-47 0l41 236l825 938h-618l45 260h1032l-41 -236l-829 -938h673l-45 -260h-1083zM664 1540l43 246h239l-43 -246h-239z" />
<glyph unicode="&#x17c;" horiz-adv-x="1067" d="M-45 0l35 207l637 624h-506l43 244h911l-37 -207l-637 -624h527l-41 -244h-932zM518 1231l43 246h240l-43 -246h-240z" />
<glyph unicode="&#x17d;" horiz-adv-x="1218" d="M-47 0l41 236l825 938h-618l45 260h1032l-41 -236l-829 -938h673l-45 -260h-1083zM483 1802h189l114 -151l166 151h215l-249 -282h-283z" />
<glyph unicode="&#x17e;" horiz-adv-x="1067" d="M-45 0l35 207l637 624h-506l43 244h911l-37 -207l-637 -624h527l-41 -244h-932zM342 1493h188l115 -152l166 152h215l-250 -283h-282z" />
<glyph unicode="&#x17f;" horiz-adv-x="638" d="M-190 -238q46 15 77 27t59 27t44.5 25.5t32 30.5t23.5 35t16.5 45t13 54t12.5 68l137 784h-131l39 217h131l10 55q32 190 106.5 276.5t225.5 86.5q96 0 193 -32.5t168 -71.5l-133 -191q-108 41 -168 41q-34 0 -60.5 -24.5t-36.5 -79.5l-182 -1039q-14 -81 -21.5 -119 t-22.5 -97t-30.5 -85.5t-42.5 -66.5t-60.5 -60t-83 -46.5t-112 -45t-145.5 -37.5z" />
<glyph unicode="&#x192;" horiz-adv-x="1138" d="M-123 -418l496 1276h-133l86 217h131l26 66q73 190 157.5 271t236.5 81q148 0 366 -107l-172 -194q-7 2 -25.5 9t-29 11t-31.5 10.5t-32.5 8.5t-31 5t-28.5 -1q-73 -10 -111 -107l-20 -53h262l-86 -217h-262l-498 -1276h-301z" />
<glyph unicode="&#x1fc;" horiz-adv-x="2023" d="M-162 0l1143 1434h1092l-45 -260h-637l-58 -330h522l-45 -254h-522l-59 -330h649l-45 -260h-956l49 285h-477l-218 -285h-393zM637 532h334l100 570zM1036 1520l281 282h348l-373 -282h-256z" />
<glyph unicode="&#x1fd;" horiz-adv-x="1812" d="M51 367q0 211 62 377.5t174.5 260t255.5 93.5q53 0 100 -13t89.5 -40t64.5 -44.5t59 -50.5l23 125h295l-3 -6q95 29 193 29q183 0 292 -83.5t109 -221.5q0 -83 -31 -146t-83 -102.5t-130.5 -63.5t-164.5 -33.5t-193 -9.5h-100v-18q0 -223 168 -223q49 0 123 24t111.5 41 t133.5 62l87 -205q-55 -28 -120.5 -55.5t-181 -57t-213.5 -29.5q-108 0 -184 33l-2 -10h-295l23 131q-180 -154 -359 -154q-60 0 -112 20.5t-96 64.5t-69.5 122t-25.5 183zM354 403q0 -90 32.5 -140t94.5 -50q69 0 132.5 40.5t140.5 113.5l10 57v8q0 159 51 295 q-101 133 -207 133q-78 0 -137 -67t-88 -169.5t-29 -220.5zM801 1210l280 283h349l-373 -283h-256zM1085 598h91q147 0 227 46t80 128q0 52 -36 83.5t-93 31.5q-97 0 -166 -82t-103 -207z" />
<glyph unicode="&#x1fe;" horiz-adv-x="1476" d="M8 0l178 201q-94 140 -94 360q0 134 27.5 261t86.5 242.5t143.5 202t207.5 138t270 51.5q238 0 385 -106l76 84h217l-180 -201q94 -140 94 -354q0 -134 -27.5 -262t-86.5 -244.5t-143.5 -204t-207.5 -139.5t-270 -52q-237 0 -385 107l-74 -84h-217zM408 582q0 -73 8 -125 l600 671q-69 66 -201 66q-84 0 -154.5 -43t-116 -109.5t-77.5 -150t-45.5 -162t-13.5 -147.5zM494 301q69 -63 202 -63q84 0 154.5 43t116 110t77.5 150.5t46 162.5t14 148q0 75 -10 121zM694 1520l281 282h348l-373 -282h-256z" />
<glyph unicode="&#x1ff;" horiz-adv-x="1198" d="M-10 0l141 152q-78 110 -78 272q0 141 37.5 262.5t108 213.5t182 145t250.5 53q184 0 313 -80l53 57h174l-135 -145q86 -113 86 -279q0 -141 -37.5 -262.5t-108.5 -213.5t-182.5 -145t-250.5 -53q-191 0 -318 82l-55 -59h-180zM348 436q0 -35 2 -51l416 442 q-49 43 -139 43q-67 0 -122.5 -41.5t-88.5 -107t-50.5 -139.5t-17.5 -146zM403 250q48 -45 146 -45q66 0 121 41.5t87.5 107t50 139.5t17.5 146q0 23 -4 59zM485 1210l281 283h348l-373 -283h-256z" />
<glyph unicode="&#x218;" horiz-adv-x="1236" d="M-14 193l164 208q108 -69 229.5 -119.5t218.5 -50.5q91 0 151 45t60 119q0 36 -19.5 64t-59.5 49.5t-80 37.5t-101.5 39.5t-104.5 43.5q-49 23 -86.5 46t-76.5 57.5t-64 73t-41 91.5t-16 115q0 193 139 318.5t377 125.5q273 0 573 -182l-164 -205q-82 52 -197 92.5 t-200 40.5q-82 0 -139 -42t-57 -116q0 -34 16 -58t51.5 -43t72.5 -33t99 -38t111 -47t86.5 -45t79.5 -57t68.5 -74t44.5 -94.5t18 -120.5q0 -200 -146 -328.5t-387 -128.5q-171 0 -335 63.5t-285 152.5zM303 -532l135 170h-98l41 245h219l-33 -270l-217 -219z" />
<glyph unicode="&#x219;" horiz-adv-x="1034" d="M-25 141l138 193q85 -52 192 -91.5t187 -39.5q63 0 99 26.5t36 67.5q0 17 -5.5 30.5t-19 25t-26.5 19.5t-38 17.5t-42.5 15t-50.5 15.5t-52 16q-60 20 -105 42t-91.5 58.5t-71.5 91.5t-25 126q0 151 113 247.5t307 96.5q127 0 255.5 -40t215.5 -93l-135 -189 q-69 39 -161.5 68.5t-162.5 29.5q-62 0 -96.5 -25t-34.5 -67q0 -19 8.5 -33.5t19 -24.5t35 -20.5t42.5 -16.5t56 -18t61 -20q53 -18 90.5 -34t81.5 -43.5t71 -59.5t45.5 -80t18.5 -106q0 -157 -120.5 -253t-322.5 -96q-146 0 -279.5 48t-232.5 116zM199 -532l135 170h-98 l40 245h220l-33 -270l-217 -219z" />
<glyph unicode="&#x21a;" horiz-adv-x="1132" d="M129 1174l45 260h1073l-47 -260h-381l-207 -1174h-307l207 1174h-383zM254 -532l135 170h-98l41 245h219l-33 -270l-217 -219z" />
<glyph unicode="&#x21b;" horiz-adv-x="811" d="M49 -532l135 170h-98l41 245h219l-33 -270l-217 -219zM90 858l37 217h135l49 271l301 40l-55 -311h266l-39 -217h-266l-92 -522q-17 -103 59 -103q51 0 156 48l70 -230q-207 -74 -332 -74q-149 0 -212 99t-30 289l88 493h-135z" />
<glyph unicode="&#x2b0;" horiz-adv-x="796" d="M119 788l157 895h203l-57 -319q127 84 231 84q103 0 145 -62t23 -169l-76 -429h-202l71 406q7 47 -3 71.5t-48 24.5t-85.5 -23t-80.5 -53l-75 -426h-203z" />
<glyph unicode="&#x2b2;" horiz-adv-x="636" d="M106 659q74 24 106 42t43 37.5t19 62.5l111 633h203l-109 -617q-20 -115 -40 -155q-35 -70 -132 -110q-60 -25 -157 -46zM395 1516l31 165h209l-29 -165h-211z" />
<glyph unicode="&#x2b7;" horiz-adv-x="876" d="M86 1434h209l14 -416l185 416h163l33 -414l162 414h219l-305 -646h-188l-43 392l-181 -392h-190z" />
<glyph unicode="&#x2b8;" horiz-adv-x="761" d="M121 662q10 4 36.5 13t34.5 12t27.5 11t28 14t22 15.5t24 21t21.5 25.5l-131 660h209l56 -412l200 412h225l-352 -646q-20 -37 -30 -54t-31 -48t-37 -47.5t-43.5 -40t-56.5 -38t-69.5 -29.5t-88.5 -25z" />
<glyph unicode="&#x2c6;" horiz-adv-x="569" d="M156 1210l250 283h282l150 -283h-187l-116 154l-164 -154h-215z" />
<glyph unicode="&#x2c7;" horiz-adv-x="573" d="M207 1493h188l115 -152l166 152h215l-250 -283h-283z" />
<glyph unicode="&#x2d8;" horiz-adv-x="544" d="M213 1462h180q-6 -43 21.5 -66.5t83.5 -23.5q69 0 114.5 24t51.5 66h182q-20 -118 -112.5 -185t-239.5 -67q-150 0 -224.5 70t-56.5 182z" />
<glyph unicode="&#x2d9;" horiz-adv-x="196" d="M190 1231l43 246h240l-43 -246h-240z" />
<glyph unicode="&#x2da;" horiz-adv-x="448" d="M111 1415q0 94 65.5 159.5t159.5 65.5q93 0 159 -66t66 -159t-66 -159t-159 -66q-94 0 -159.5 65.5t-65.5 159.5zM250 1415q0 -34 25.5 -59t60.5 -25q34 0 59 25t25 59q0 35 -25 60.5t-59 25.5q-35 0 -60.5 -25.5t-25.5 -60.5z" />
<glyph unicode="&#x2db;" horiz-adv-x="313" d="M-92 -238q0 83 72 145.5t200 115.5l135 -21q-100 -57 -157.5 -107t-57.5 -100q0 -14 4.5 -24t15 -16t18.5 -10t25 -5.5t24 -2t25.5 0t20.5 0.5l-51 -135h-13q-16 1 -37.5 0t-46.5 2.5t-49.5 8.5t-47.5 17t-41 28t-28.5 42.5t-10.5 60.5z" />
<glyph unicode="&#x2dc;" horiz-adv-x="583" d="M170 1303q29 43 42.5 62t40 50t46.5 44.5t49.5 24.5t61.5 11q44 0 90.5 -24.5t86 -49t64.5 -24.5q50 0 117 96l121 -80q-26 -39 -36.5 -53.5t-33 -44t-37.5 -41.5t-37.5 -28t-46 -21.5t-51.5 -5.5q-43 0 -89.5 24.5t-85.5 49t-66 24.5q-47 0 -117 -96z" />
<glyph unicode="&#x2dd;" horiz-adv-x="659" d="M162 1210l196 283h271l-291 -283h-176zM504 1210l196 283h269l-289 -283h-176z" />
<glyph unicode="&#x2e3;" horiz-adv-x="780" d="M53 788l299 324l-172 322h211l92 -207l164 207h242l-289 -324l186 -322h-213l-98 209l-168 -209h-254z" />
<glyph unicode="&#x3c0;" horiz-adv-x="1095" d="M70 827l43 248h1026l-43 -248h-160l-145 -827h-256l145 827h-199l-143 -827h-258l145 827h-155z" />
<glyph unicode="&#x1e80;" horiz-adv-x="1853" d="M172 1434h336l22 -985l396 985h258l53 -985l365 985h358l-619 -1434h-297l-61 975l-393 -975h-303zM772 1802h313l191 -282h-227z" />
<glyph unicode="&#x1e81;" horiz-adv-x="1609" d="M115 1075h305l26 -729l314 729h239l54 -727l278 727h322l-494 -1075h-276l-66 686l-309 -686h-277zM600 1493h313l191 -283h-227z" />
<glyph unicode="&#x1e82;" horiz-adv-x="1853" d="M172 1434h336l22 -985l396 985h258l53 -985l365 985h358l-619 -1434h-297l-61 975l-393 -975h-303zM874 1520l281 282h348l-373 -282h-256z" />
<glyph unicode="&#x1e83;" horiz-adv-x="1609" d="M115 1075h305l26 -729l314 729h239l54 -727l278 727h322l-494 -1075h-276l-66 686l-309 -686h-277zM702 1210l281 283h348l-373 -283h-256z" />
<glyph unicode="&#x1e84;" horiz-adv-x="1853" d="M172 1434h336l22 -985l396 985h258l53 -985l365 985h358l-619 -1434h-297l-61 975l-393 -975h-303zM786 1530l41 246h242l-43 -246h-240zM1145 1530l43 246h239l-43 -246h-239z" />
<glyph unicode="&#x1e85;" horiz-adv-x="1609" d="M115 1075h305l26 -729l314 729h239l54 -727l278 727h322l-494 -1075h-276l-66 686l-309 -686h-277zM616 1231l41 246h242l-43 -246h-240zM975 1231l43 246h239l-43 -246h-239z" />
<glyph unicode="&#x1e9e;" horiz-adv-x="1589" d="M39 0l158 891q22 130 63.5 226.5t111 169.5t175.5 110t248 37h710l-35 -203l-350 -365q184 -44 282.5 -152.5t98.5 -260.5q0 -91 -35.5 -175t-101.5 -152t-172.5 -108.5t-237.5 -40.5q-256 0 -473 152l162 209q166 -107 297 -107q112 0 179 60t67 147q0 30 -8.5 57.5 t-33.5 56.5t-64.5 49.5t-107 34t-155.5 13.5h-100l35 193l321 332h-278q-123 0 -195.5 -75t-105.5 -257l-148 -842h-307z" />
<glyph unicode="&#x1ef2;" horiz-adv-x="1259" d="M143 1434h326l180 -594l389 594h359l-623 -861l-102 -573h-305l98 567zM475 1802h313l191 -282h-227z" />
<glyph unicode="&#x1ef3;" horiz-adv-x="1118" d="M-18 -231q142 52 185 76q77 43 134 126l-201 1104h306l92 -717l346 717h327l-571 -1075q-81 -153 -128 -214q-100 -132 -269 -199q-71 -28 -160 -48zM350 1493h314l190 -283h-227z" />
<glyph unicode="&#x2000;" horiz-adv-x="975" />
<glyph unicode="&#x2001;" horiz-adv-x="1950" />
<glyph unicode="&#x2002;" horiz-adv-x="975" />
<glyph unicode="&#x2003;" horiz-adv-x="1950" />
<glyph unicode="&#x2004;" horiz-adv-x="650" />
<glyph unicode="&#x2005;" horiz-adv-x="487" />
<glyph unicode="&#x2006;" horiz-adv-x="325" />
<glyph unicode="&#x2007;" horiz-adv-x="325" />
<glyph unicode="&#x2008;" horiz-adv-x="243" />
<glyph unicode="&#x2009;" horiz-adv-x="390" />
<glyph unicode="&#x200a;" horiz-adv-x="108" />
<glyph unicode="&#x2010;" horiz-adv-x="839" d="M88 463l41 239h610l-43 -239h-608z" />
<glyph unicode="&#x2011;" horiz-adv-x="839" d="M88 463l41 239h610l-43 -239h-608z" />
<glyph unicode="&#x2012;" horiz-adv-x="839" d="M88 463l41 239h610l-43 -239h-608z" />
<glyph unicode="&#x2013;" horiz-adv-x="1081" d="M88 465l41 235h852l-41 -235h-852z" />
<glyph unicode="&#x2014;" horiz-adv-x="1280" d="M88 465l41 235h1051l-41 -235h-1051z" />
<glyph unicode="&#x2018;" horiz-adv-x="520" d="M141 809l47 375l297 291l62 -101l-180 -227h135l-60 -338h-301z" />
<glyph unicode="&#x2019;" horiz-adv-x="501" d="M143 868l181 228h-136l60 338h301l-47 -375l-297 -291z" />
<glyph unicode="&#x201a;" horiz-adv-x="536" d="M-37 -227l180 227h-135l60 338h301l-47 -375l-297 -291z" />
<glyph unicode="&#x201c;" horiz-adv-x="958" d="M141 809l47 375l297 291l62 -101l-180 -227h135l-60 -338h-301zM580 809l47 375l297 291l61 -101l-180 -227h135l-59 -338h-301z" />
<glyph unicode="&#x201d;" horiz-adv-x="942" d="M143 868l181 228h-136l60 338h301l-47 -375l-297 -291zM582 868l180 228h-135l59 338h301l-47 -375l-297 -291z" />
<glyph unicode="&#x201e;" horiz-adv-x="974" d="M-37 -227l180 227h-135l60 338h301l-47 -375l-297 -291zM401 -227l181 227h-136l60 338h301l-47 -375l-297 -291z" />
<glyph unicode="&#x2020;" horiz-adv-x="1153" d="M80 764l43 237l405 -28l82 461h221l-81 -461l417 28l-43 -237l-405 27l-213 -1209h-221l213 1211z" />
<glyph unicode="&#x2021;" horiz-adv-x="1210" d="M14 227l43 238l406 -29l63 357l-417 -29l43 237l405 -28l82 461h223l-82 -461l416 28l-43 -237l-405 29l-64 -357l418 29l-43 -238l-406 27l-118 -672h-222l119 674z" />
<glyph unicode="&#x2022;" horiz-adv-x="937" d="M139 584q0 134 94.5 228.5t229.5 94.5q133 0 228 -94.5t95 -228.5q0 -135 -94.5 -229.5t-228.5 -94.5q-135 0 -229.5 94.5t-94.5 229.5z" />
<glyph unicode="&#x2026;" horiz-adv-x="1476" d="M8 0l60 338h301l-60 -338h-301zM483 0l60 338h301l-60 -338h-301zM956 0l60 338h301l-60 -338h-301z" />
<glyph unicode="&#x202f;" horiz-adv-x="390" />
<glyph unicode="&#x2030;" horiz-adv-x="2762" d="M141 999q0 198 114 327.5t298 129.5q162 0 255 -85.5t93 -225.5q0 -198 -113 -327.5t-296 -129.5q-164 0 -257.5 85t-93.5 226zM365 1012q0 -73 30 -110.5t105 -37.5q57 0 100 47t61.5 106.5t18.5 115.5q0 72 -30.5 109.5t-104.5 37.5q-44 0 -80 -27.5t-57 -69.5 t-32 -86.5t-11 -84.5zM399 0l932 1434h232l-934 -1434h-230zM1063 289q0 197 114 326.5t296 129.5q162 0 256 -85.5t94 -225.5q0 -198 -114 -327.5t-298 -129.5q-162 0 -255 85.5t-93 226.5zM1284 301q0 -73 30 -110t107 -37q44 0 79.5 27t56 69t31.5 87t11 85q0 73 -30 110 t-105 37q-44 0 -80 -27.5t-57 -69.5t-32 -86.5t-11 -84.5zM1894 289q0 198 114 327t298 129q162 0 255 -85.5t93 -225.5q0 -198 -113 -327.5t-296 -129.5q-164 0 -257.5 85.5t-93.5 226.5zM2118 301q0 -73 30 -110t105 -37q44 0 80 27t57 69t32 87t11 85q0 72 -30.5 109.5 t-104.5 37.5q-44 0 -80 -27.5t-57 -69.5t-32 -86.5t-11 -84.5z" />
<glyph unicode="&#x2039;" horiz-adv-x="741" d="M35 467l33 178l649 434l-53 -297l-385 -247l299 -248l-46 -256z" />
<glyph unicode="&#x203a;" horiz-adv-x="741" d="M4 31l53 297l385 247l-299 248l45 256l498 -436l-33 -178z" />
<glyph unicode="&#x2044;" horiz-adv-x="397" d="M-328 0l867 1434h223l-866 -1434h-224z" />
<glyph unicode="&#x205f;" horiz-adv-x="487" />
<glyph unicode="&#x2070;" horiz-adv-x="868" d="M166 1096q0 48 8 103t26 121t51 125t78 109t113 79.5t150 29.5q90 0 155 -26.5t100 -73.5t50.5 -102t15.5 -122q0 -40 -5.5 -86t-19 -102t-34.5 -108t-55 -101.5t-77 -86t-103.5 -59t-131.5 -22.5q-90 0 -155 26.5t-100 73t-50.5 101.5t-15.5 121zM375 1085q0 -34 3 -56 t14 -46t35 -35.5t62 -11.5q56 0 101 51t68.5 123.5t36 136.5t12.5 105q0 33 -3.5 55.5t-14.5 45.5t-35.5 34.5t-61.5 11.5q-45 0 -83.5 -34.5t-62.5 -84.5t-40.5 -109.5t-23.5 -107t-7 -78.5z" />
<glyph unicode="&#x2074;" horiz-adv-x="856" d="M96 946l27 146l465 557h278l-94 -529h125l-29 -174h-127l-26 -158h-211l26 158h-434zM348 1120h213l62 334z" />
<glyph unicode="&#x2075;" horiz-adv-x="782" d="M98 907l115 131q31 -24 54 -38.5t67.5 -30t91.5 -15.5q66 0 113 34t47 97q0 48 -30 75.5t-85 27.5q-80 0 -160 -49l-114 75l120 435h547l-28 -174h-367l-31 -129q48 10 90 10q130 0 201.5 -74.5t71.5 -185.5q0 -132 -96 -227t-261 -95q-195 0 -346 133z" />
<glyph unicode="&#x2076;" horiz-adv-x="815" d="M158 1106q0 115 42.5 217.5t117 177t181 118.5t228.5 44q46 0 86 -6.5t57 -12.5l17 -6l-72 -153q-35 8 -80 8q-105 0 -195 -51.5t-137 -151.5q77 56 181 56q118 0 189 -71t71 -183q0 -133 -92.5 -225.5t-251.5 -92.5q-162 0 -252 96t-90 236zM367 1094q0 -65 33.5 -107.5 t93.5 -42.5q69 0 105 40t36 99q0 46 -30 76.5t-89 30.5q-46 0 -86 -23.5t-63 -52.5v-20z" />
<glyph unicode="&#x2077;" horiz-adv-x="673" d="M158 788q16 88 61 189.5t94 179t107 155t86.5 110.5t46.5 53h-360l30 174h598l-26 -162q-14 -15 -38.5 -42t-89 -108.5t-116.5 -161.5t-102.5 -187.5t-67.5 -199.5h-223z" />
<glyph unicode="&#x2078;" horiz-adv-x="831" d="M127 1006q0 165 227 260q-96 71 -96 170q0 100 85 163.5t235 63.5q138 0 215 -56t77 -145q0 -127 -165 -213q143 -80 143 -211q0 -118 -103.5 -191t-279.5 -73q-162 0 -250 61.5t-88 170.5zM340 1026q0 -44 34.5 -68t96.5 -24q69 0 116.5 30.5t47.5 82.5q0 77 -113 131 q-84 -28 -133 -63t-49 -89zM461 1415q0 -55 69 -90q44 15 68 25.5t46 32.5t22 51q0 34 -26 54.5t-67 20.5q-49 0 -80.5 -27t-31.5 -67z" />
<glyph unicode="&#x2079;" horiz-adv-x="813" d="M139 799l72 153q35 -8 80 -8q106 0 195.5 51t134.5 152q-71 -55 -179 -55q-118 0 -189 71t-71 183q0 133 92.5 225t253.5 92t250.5 -96t89.5 -238q0 -114 -42.5 -216t-116.5 -177t-181.5 -118.5t-230.5 -43.5q-46 0 -85.5 6t-55.5 12zM391 1354q0 -46 30 -76.5t89 -30.5 q46 0 86 23t63 51v20q0 66 -33 109t-94 43q-68 0 -104.5 -41t-36.5 -98z" />
<glyph unicode="&#x207a;" horiz-adv-x="714" d="M141 1122l25 152h231l39 217h154l-39 -217h231l-28 -152h-230l-37 -217h-155l39 217h-230z" />
<glyph unicode="&#x207d;" horiz-adv-x="462" d="M134 780.5q-5 58.5 11 143.5l105 585q8 42 13 66.5t14.5 55t20 47t28 37t39.5 32.5t54 26t72 24.5t93 21.5l32 -117q-86 -30 -112 -56t-35 -85l-123 -689q-14 -64 -0.5 -93.5t76.5 -59.5l-51 -107q-123 29 -177.5 69.5t-59.5 99z" />
<glyph unicode="&#x207e;" horiz-adv-x="460" d="M57 729q87 30 113 56t35 85l123 689q14 64 0.5 93.5t-76.5 59.5l51 107q123 -29 177.5 -69.5t59 -99t-11.5 -143.5l-104 -585q-8 -42 -13 -66.5t-14.5 -55t-20 -47t-28 -37t-39.5 -32.5t-54 -26t-72 -24.5t-93 -21.5z" />
<glyph unicode="&#x207f;" horiz-adv-x="798" d="M119 788l114 646h203l-12 -70q127 84 229 84q103 0 145 -62t23 -169l-76 -429h-202l73 406q7 46 -4 71t-49 25q-39 0 -85.5 -23t-80.5 -53l-75 -426h-203z" />
<glyph unicode="&#x2080;" horiz-adv-x="868" d="M-29 0q0 48 8 103t26 121t51 125t78 109t113 79.5t150 29.5q90 0 155 -26t100.5 -73t51 -102t15.5 -122q0 -40 -5.5 -86t-19 -102t-34.5 -108t-55 -102t-77 -86.5t-103.5 -59t-131.5 -22.5q-90 0 -155 26.5t-100 73t-51 101.5t-16 121zM180 -10q0 -34 3.5 -56.5t14 -46 t35 -35.5t62.5 -12q45 0 83.5 34.5t62.5 85t40.5 110.5t23.5 107.5t7 78.5q0 33 -3.5 55.5t-14.5 45.5t-35.5 34.5t-61.5 11.5q-45 0 -83.5 -34.5t-62.5 -84.5t-40.5 -109t-23.5 -106.5t-7 -78.5z" />
<glyph unicode="&#x2081;" horiz-adv-x="624" d="M-25 418l261 135h198l-151 -860h-211l118 653l-149 -74z" />
<glyph unicode="&#x2082;" horiz-adv-x="782" d="M-109 -307l15 90q8 46 23.5 86t41 73t48.5 58t61.5 52.5t63 43t68.5 42.5l15 9q142 82 171 103q53 40 53 78q-2 30 -26.5 47.5t-68.5 17.5q-85 0 -233 -80l-76 146q169 108 338 108q134 0 205.5 -65t71.5 -164q0 -28 -7.5 -55.5t-16.5 -49t-29.5 -45.5t-34 -39t-44 -37 t-45 -32.5t-51.5 -31t-49 -27t-51 -27.5q-89 -45 -118.5 -69.5t-37.5 -57.5h397l-28 -174h-656z" />
<glyph unicode="&#x2083;" horiz-adv-x="780" d="M-113 -188l105 129q78 -45 133.5 -65.5t116.5 -20.5q69 0 108 27.5t39 74.5q0 102 -207 102h-37l31 177h41q83 0 144 23.5t61 70.5q0 29 -22.5 46t-59.5 17q-92 0 -231 -74l-66 144q158 104 336 104q126 0 192 -55.5t66 -140.5q0 -69 -45.5 -123.5t-124.5 -89.5 q60 -22 96.5 -76.5t36.5 -126.5q0 -49 -18 -95.5t-55 -88.5t-105 -67.5t-158 -25.5q-197 0 -377 134z" />
<glyph unicode="&#x2084;" horiz-adv-x="856" d="M-96 -150l26 146l465 557h279l-94 -528h125l-29 -175h-127l-27 -157h-211l27 157h-434zM156 25h213l61 333z" />
<glyph unicode="&#x2085;" horiz-adv-x="782" d="M-94 -188l114 131q31 -24 54 -38.5t67.5 -30t91.5 -15.5q66 0 113 34t47 97q0 48 -29.5 75t-84.5 27q-80 0 -160 -49l-115 76l121 434h547l-29 -174h-367l-30 -129q48 10 90 10q130 0 201 -74.5t71 -185.5q0 -132 -95.5 -227t-260.5 -95q-194 0 -346 134z" />
<glyph unicode="&#x2086;" horiz-adv-x="815" d="M-37 10q0 115 42.5 217.5t117 177t181 118.5t228.5 44q46 0 86 -6t57 -12l17 -6l-71 -154q-35 8 -80 8q-105 0 -195 -51t-137 -151q75 55 180 55q118 0 189 -71t71 -183q0 -133 -92.5 -225.5t-251.5 -92.5q-162 0 -252 96t-90 236zM172 -2q0 -65 33.5 -107.5t93.5 -42.5 q69 0 105 40.5t36 99.5q0 46 -29.5 76t-88.5 30q-46 0 -86.5 -23.5t-63.5 -52.5v-20z" />
<glyph unicode="&#x2087;" horiz-adv-x="673" d="M-37 -307q16 88 61.5 189.5t93.5 178.5t106.5 154.5t86.5 110.5t47 53h-360l31 174h598l-27 -162q-14 -15 -38.5 -42t-89 -108.5t-116.5 -161t-102.5 -187t-67.5 -199.5h-223z" />
<glyph unicode="&#x2088;" horiz-adv-x="831" d="M-66 -90q0 165 228 260q-96 71 -96 170q0 100 84.5 163.5t234.5 63.5q139 0 216 -55.5t77 -144.5q0 -126 -166 -213q143 -80 143 -211q0 -119 -103.5 -192t-279.5 -73q-162 0 -250 61.5t-88 170.5zM147 -70q0 -44 35 -68t97 -24q69 0 116 30.5t47 82.5q0 78 -112 131 q-85 -29 -134 -63.5t-49 -88.5zM268 319q0 -54 70 -90q32 11 51 19t41 21t32.5 30t10.5 39q0 34 -25.5 55t-66.5 21q-49 0 -81 -27.5t-32 -67.5z" />
<glyph unicode="&#x2089;" horiz-adv-x="813" d="M-53 -297l71 154q35 -9 80 -9q106 0 195.5 51t134.5 152q-71 -55 -178 -55q-118 0 -189 71t-71 183q0 133 92.5 225t253.5 92t250.5 -96t89.5 -238q0 -114 -42.5 -216t-117 -177t-182 -118.5t-230.5 -43.5q-46 0 -85.5 6t-55.5 12zM199 258q0 -46 29.5 -76t88.5 -30 q46 0 86.5 22.5t63.5 50.5v21q0 66 -33 108.5t-94 42.5q-68 0 -104.5 -41t-36.5 -98z" />
<glyph unicode="&#x208a;" horiz-adv-x="714" d="M-53 27l24 151h232l39 217h153l-39 -217h232l-29 -151h-229l-37 -217h-156l39 217h-229z" />
<glyph unicode="&#x208d;" horiz-adv-x="462" d="M-56.5 -315.5q-4.5 58.5 11.5 143.5l104 586q9 49 15 75.5t17.5 59.5t26 50.5t37.5 38t56 33.5t77 26.5t105 25.5l33 -117q-86 -30 -112 -56t-35 -85l-123 -688q-14 -63 -0.5 -93.5t75.5 -60.5l-51 -106q-123 29 -177.5 69t-59 98.5z" />
<glyph unicode="&#x208e;" horiz-adv-x="460" d="M-137 -367q86 30 112 56t35 86l123 688q14 64 0.5 93.5t-76.5 59.5l52 107q123 -29 177.5 -69t59 -98.5t-11.5 -143.5l-105 -586q-10 -57 -17.5 -87t-22.5 -65.5t-35 -54t-55.5 -39.5t-83.5 -35t-119 -28z" />
<glyph unicode="&#x20a1;" horiz-adv-x="1099" d="M104 600q0 164 45 296.5t119.5 214t165.5 124.5t189 43q35 0 73 -6l64 162h129l-74 -189l45 -16l80 205h127l-98 -254q62 -36 127 -76l-135 -199q-8 5 -23 14.5t-29 18.5t-28 16l-203 -524q75 25 196 84l93 -221q-244 -111 -394 -131l-61 -162h-127l61 160q-34 4 -49 8 l-65 -168h-129l82 213q-85 51 -133 149t-48 238zM410 627q0 -41 6 -78l176 452q-82 -42 -132 -147t-50 -227zM496 426q23 -13 49 -16l229 598q-18 7 -47 14z" />
<glyph unicode="&#x20a4;" horiz-adv-x="1132" d="M2 0l37 207q7 3 19 8.5t45.5 26t63.5 44t65 62.5t57 82h-191l27 148h201q0 2 1 6t1 6q0 35 -11 88h-176l27 149h102q-41 135 -41 220q0 188 115.5 298.5t317.5 110.5q83 0 161 -18.5t145 -53.5t108.5 -62t92.5 -67l-153 -180q-183 127 -303 127q-85 0 -133 -52t-48 -130 q0 -15 1 -28.5t5 -29.5t5.5 -25.5t8.5 -29t9 -25t11 -28.5t10 -27h362l-26 -149h-300q3 -24 3 -49q0 -11 -5 -51h285l-27 -148h-299q-55 -115 -141 -176h533l-45 -254h-920z" />
<glyph unicode="&#x20a7;" horiz-adv-x="1370" d="M61 0l160 907h-53l22 123h54l71 404h494q256 0 389.5 -101.5t136.5 -302.5h49l-22 -123h-41q-17 -82 -59 -152t-109 -126.5t-167.5 -88.5t-223.5 -32h-303l-90 -508h-308zM504 760h213q102 0 175 38t105 109h-469zM549 1030h471q-11 150 -215 150h-230z" />
<glyph unicode="&#x20a9;" horiz-adv-x="1996" d="M68 516l30 174h205l-14 176h-158l29 174h114l-30 394h336l8 -394h252l157 394h258l21 -394h252l145 394h359l-170 -394h118l-30 -174h-164l-76 -176h209l-31 -174h-252l-223 -516h-297l-61 975l-393 -975h-304l-41 516h-249zM592 866l10 -417l168 417h-178zM1286 866 l23 -417l153 417h-176z" />
<glyph unicode="&#x20ac;" horiz-adv-x="1400" d="M59 481l29 160h105q4 54 16 141h-96l28 158h105q76 245 239.5 380.5t374.5 135.5q67 0 134.5 -14.5t117 -32.5t113.5 -53t98.5 -57.5t97.5 -65.5l-168 -215q-116 83 -198 122.5t-164 39.5q-100 0 -180 -64.5t-131 -175.5h430l-31 -158h-451q-17 -79 -20 -141h448 l-30 -160h-416q24 -229 195 -229q136 0 411 158l127 -242q-174 -92 -319.5 -141.5t-292.5 -49.5q-193 0 -310.5 125.5t-130.5 378.5h-131z" />
<glyph unicode="&#x2116;" horiz-adv-x="2314" d="M51 0l254 1434h307l359 -967l168 967h307l-254 -1434h-305l-361 971l-168 -971h-307zM1434 303l30 174h660l-29 -174h-661zM1464 909q0 144 55.5 259.5t159.5 182t238 66.5q180 0 284.5 -94.5t104.5 -249.5q0 -220 -126 -364t-329 -144q-180 0 -283.5 94.5t-103.5 249.5z M1718 926q0 -75 33 -115.5t111 -40.5q62 0 107.5 50.5t64 113.5t18.5 123q0 75 -33 115t-112 40q-62 0 -107 -50t-63.5 -113t-18.5 -123z" />
<glyph unicode="&#x2117;" horiz-adv-x="1638" d="M109 641q0 131 32.5 251.5t98 223t158 178.5t219 119t274.5 43q206 0 360.5 -84.5t235 -234.5t80.5 -344q0 -131 -32.5 -251.5t-98.5 -223.5t-158.5 -179t-220 -119t-275.5 -43q-309 0 -491 184t-182 480zM186 643q0 -261 162 -425.5t443 -164.5q160 0 293 59t220 160 t135 234.5t48 284.5q0 171 -70 303.5t-208 209t-324 76.5q-129 0 -241 -38t-195.5 -106t-143 -160t-89.5 -202.5t-30 -230.5zM537 285l151 862h285q117 0 185.5 -56.5t68.5 -168.5q0 -148 -95 -224.5t-253 -76.5h-189l-57 -336h-96zM705 705h190q99 0 166 58.5t67 158.5 q0 74 -45.5 108.5t-124.5 34.5h-190z" />
<glyph unicode="&#x2120;" horiz-adv-x="1220" d="M168 1036l65 82q94 -53 173 -53q29 0 51 10t22 29q0 15 -17.5 23.5t-59.5 19t-68 20.5q-109 43 -109 131q0 64 52.5 104t140.5 40q113 0 221 -62l-66 -80q-88 43 -145 43q-68 0 -68 -36q0 -16 15 -24t55.5 -18.5t67.5 -21.5q116 -41 116 -133q0 -63 -56 -103t-148 -40 q-124 0 -242 69zM647 975l80 459h123l84 -258l184 258h123l-80 -459h-119l48 270l-138 -194h-71l-68 206l-49 -282h-117z" />
<glyph unicode="&#x2122;" horiz-adv-x="1222" d="M240 1333l16 101h408l-17 -101h-145l-64 -358h-119l64 358h-143zM637 975l80 459h123l84 -258l184 258h121l-80 -459h-115l47 272l-139 -196h-72l-67 206l-49 -282h-117z" />
<glyph unicode="&#x2126;" horiz-adv-x="1488" d="M35 0l45 254h201q-166 117 -166 364q0 131 28.5 253t89 228.5t147 186t209 125t267.5 45.5q276 0 425 -144.5t149 -414.5q0 -111 -21 -208.5t-54 -167t-78 -125.5t-89.5 -89.5t-91.5 -52.5h188l-45 -254h-537l50 262q159 42 260.5 212.5t101.5 418.5q0 149 -62.5 225 t-197.5 76q-101 0 -180.5 -47.5t-125.5 -118.5t-76.5 -163t-41 -171.5t-10.5 -154.5q0 -113 47.5 -180.5t148.5 -96.5l-45 -262h-536z" />
<glyph unicode="&#x2153;" horiz-adv-x="1726" d="M168 1298l260 136h199l-152 -861h-211l119 654l-150 -74zM248 0l866 1434h223l-866 -1434h-223zM874 119l105 129q78 -45 133.5 -65.5t116.5 -20.5q69 0 108 27.5t39 74.5q0 103 -207 103h-36l30 176h41q83 0 144 23.5t61 70.5q0 29 -22.5 46t-59.5 17q-94 0 -231 -73 l-66 143q158 104 336 104q126 0 192 -55.5t66 -140.5q0 -68 -45.5 -123t-124.5 -90q60 -22 96.5 -76.5t36.5 -126.5q0 -49 -18 -95.5t-55 -88t-105 -67t-158 -25.5q-198 0 -377 133z" />
<glyph unicode="&#x2154;" horiz-adv-x="1951" d="M76 573l14 91q9 55 32 102.5t49.5 80.5t68.5 66.5t74 54.5t81 50q4 2 6 3.5t5 3t6 3.5q143 82 170 102q53 40 53 78q-2 30 -26.5 48t-67.5 18q-86 0 -234 -80l-76 145q170 109 338 109q134 0 205.5 -65t71.5 -164q0 -36 -11.5 -70.5t-26.5 -60t-46 -54.5t-52 -46 t-64 -42.5t-62.5 -36.5t-65.5 -35q-89 -46 -118.5 -70t-37.5 -56h398l-29 -175h-655zM481 0l867 1434h223l-866 -1434h-224zM1104 119l104 129q78 -45 133.5 -65.5t116.5 -20.5q70 0 109 28t39 74q0 103 -207 103h-37l31 176h41q83 0 143.5 23.5t60.5 70.5q0 29 -22.5 46 t-59.5 17q-94 0 -231 -73l-65 143q158 104 335 104q126 0 192 -55.5t66 -140.5q0 -68 -45.5 -123t-124.5 -90q60 -22 97 -76.5t37 -126.5q0 -49 -18 -95.5t-55 -88t-105 -67t-158 -25.5q-198 0 -377 133z" />
<glyph unicode="&#x2155;" horiz-adv-x="1744" d="M168 1298l260 136h199l-152 -861h-211l119 654l-150 -74zM248 0l866 1434h223l-866 -1434h-223zM897 119l115 131q31 -24 54 -38.5t67.5 -30t91.5 -15.5q66 0 112.5 34t46.5 97q0 48 -29.5 75t-84.5 27q-80 0 -160 -49l-115 76l121 434h547l-29 -174h-366l-31 -129 q48 10 90 10q130 0 201 -74.5t71 -185.5q0 -132 -95.5 -226.5t-260.5 -94.5q-195 0 -346 133z" />
<glyph unicode="&#x2156;" horiz-adv-x="1964" d="M72 573l14 91q9 55 32 102.5t49.5 80.5t68.5 66.5t74 54.5t81 50q4 2 6 3.5t5 3t6 3.5q143 82 170 102q53 40 53 78q-2 30 -26.5 48t-67.5 18q-86 0 -234 -80l-76 145q170 109 338 109q134 0 205.5 -65t71.5 -164q0 -36 -11.5 -70.5t-26.5 -60t-46 -54.5t-52 -46 t-64 -42.5t-62.5 -36.5t-65.5 -35q-89 -46 -118.5 -70t-37.5 -56h398l-29 -175h-655zM477 0l866 1434h224l-867 -1434h-223zM1122 119l115 131q31 -24 54 -38.5t67.5 -30t91.5 -15.5q66 0 113 34t47 97q0 48 -30 75t-85 27q-80 0 -160 -49l-114 76l120 434h547l-28 -174 h-367l-31 -129q48 10 90 10q130 0 201.5 -74.5t71.5 -185.5q0 -132 -96 -226.5t-261 -94.5q-195 0 -346 133z" />
<glyph unicode="&#x2157;" horiz-adv-x="1933" d="M78 692l104 129q78 -45 133.5 -65.5t116.5 -20.5q69 0 108.5 28t39.5 75q0 102 -207 102h-37l31 176h41q83 0 143.5 23.5t60.5 70.5q0 29 -22.5 46.5t-59.5 17.5q-92 0 -231 -74l-66 143q159 105 336 105q126 0 192 -56t66 -141q0 -69 -45.5 -123.5t-124.5 -89.5 q60 -22 97 -76t37 -126q0 -49 -18 -95.5t-55 -88.5t-105 -67.5t-158 -25.5q-198 0 -377 133zM438 0l867 1434h223l-866 -1434h-224zM1085 119l115 131q31 -24 54 -38.5t67.5 -30t91.5 -15.5q66 0 113 34t47 97q0 48 -30 75t-85 27q-80 0 -160 -49l-114 76l121 434h546 l-28 -174h-367l-31 -129q48 10 91 10q130 0 201 -74.5t71 -185.5q0 -132 -95.5 -226.5t-260.5 -94.5q-196 0 -347 133z" />
<glyph unicode="&#x2158;" horiz-adv-x="2004" d="M80 731l26 146l465 557h279l-94 -529h125l-29 -174h-127l-27 -158h-211l27 158h-434zM332 905h213l61 334zM512 0l866 1434h224l-867 -1434h-223zM1157 119l115 131q31 -24 54 -38.5t67.5 -30t91.5 -15.5q66 0 113 34t47 97q0 48 -30 75t-85 27q-80 0 -160 -49l-115 76 l121 434h547l-29 -174h-366l-31 -129q48 10 90 10q130 0 201.5 -74.5t71.5 -185.5q0 -132 -96 -226.5t-261 -94.5q-195 0 -346 133z" />
<glyph unicode="&#x2159;" horiz-adv-x="1714" d="M168 1298l260 136h199l-152 -861h-211l119 654l-150 -74zM248 0l866 1434h223l-866 -1434h-223zM889 317q0 115 42.5 217.5t117 177t181 118.5t228.5 44q46 0 86 -6t57 -12l17 -6l-72 -154q-35 9 -80 9q-105 0 -194 -51.5t-137 -151.5q75 55 180 55q118 0 189 -71 t71 -183q0 -133 -92.5 -225t-251.5 -92q-163 0 -252.5 95.5t-89.5 235.5zM1098 305q0 -65 33 -107t94 -42q69 0 105 40t36 99q0 46 -29.5 76t-89.5 30q-46 0 -86 -23t-63 -52v-21z" />
<glyph unicode="&#x215a;" horiz-adv-x="1867" d="M84 692l115 131q31 -24 54 -38.5t67.5 -30t91.5 -15.5q66 0 112.5 34t46.5 97q0 48 -29.5 75.5t-84.5 27.5q-80 0 -160 -49l-115 75l121 435h547l-29 -174h-366l-31 -130q53 11 90 11q130 0 201 -74.5t71 -185.5q0 -132 -95.5 -227t-260.5 -95q-195 0 -346 133zM408 0 l866 1434h223l-866 -1434h-223zM1044 317q0 153 72.5 280.5t203.5 202t294 74.5q46 0 86 -6t57 -12l17 -6l-72 -154q-35 9 -80 9q-105 0 -195 -51.5t-137 -151.5q75 55 180 55q118 0 189.5 -71t71.5 -183q0 -132 -93 -224.5t-252 -92.5q-163 0 -252.5 95.5t-89.5 235.5z M1253 305q0 -65 33 -107t94 -42q69 0 105.5 40t36.5 99q0 46 -29.5 76t-89.5 30q-46 0 -86.5 -23.5t-63.5 -51.5v-21z" />
<glyph unicode="&#x215b;" horiz-adv-x="1740" d="M168 1298l260 136h199l-152 -861h-211l119 654l-150 -74zM248 0l866 1434h223l-866 -1434h-223zM883 217q0 165 227 260q-96 71 -96 170q0 100 84.5 163.5t234.5 63.5q139 0 216 -55.5t77 -144.5q0 -126 -166 -213q144 -81 144 -211q0 -118 -103.5 -191t-279.5 -73 q-162 0 -250 61.5t-88 169.5zM1096 238q0 -44 34.5 -68.5t96.5 -24.5q69 0 116.5 30.5t47.5 82.5q0 77 -113 131q-85 -29 -133.5 -63t-48.5 -88zM1217 627q0 -55 69 -90q44 15 67.5 25t45.5 32t22 51q0 34 -25.5 55t-66.5 21q-49 0 -80.5 -27t-31.5 -67z" />
<glyph unicode="&#x215c;" horiz-adv-x="1918" d="M78 692l104 129q78 -45 133.5 -65.5t116.5 -20.5q69 0 108.5 28t39.5 75q0 102 -207 102h-37l31 176h41q83 0 143.5 23.5t60.5 70.5q0 29 -22.5 46.5t-59.5 17.5q-92 0 -231 -74l-66 143q159 105 336 105q126 0 192 -56t66 -141q0 -69 -45.5 -123.5t-124.5 -89.5 q60 -22 97 -76t37 -126q0 -49 -18 -95.5t-55 -88.5t-105 -67.5t-158 -25.5q-198 0 -377 133zM438 0l867 1434h223l-866 -1434h-224zM1065 217q0 165 227 260q-96 71 -96 170q0 100 85 163.5t235 63.5q139 0 215.5 -55.5t76.5 -144.5q0 -126 -166 -213q144 -81 144 -211 q0 -118 -103.5 -191t-279.5 -73q-162 0 -250 61.5t-88 169.5zM1278 238q0 -44 34.5 -68.5t96.5 -24.5q69 0 116.5 30.5t47.5 82.5q0 77 -113 131q-85 -29 -133.5 -63t-48.5 -88zM1399 627q0 -55 69 -90q33 11 51 18.5t41 20.5t33.5 30t10.5 39q0 34 -26 55t-67 21 q-49 0 -80.5 -27t-31.5 -67z" />
<glyph unicode="&#x215d;" horiz-adv-x="1902" d="M82 692l115 131q31 -24 54 -38.5t67.5 -30t91.5 -15.5q66 0 112.5 34t46.5 97q0 48 -29.5 75.5t-84.5 27.5q-80 0 -160 -49l-115 75l121 435h547l-29 -174h-366l-31 -130q53 11 90 11q130 0 201 -74.5t71 -185.5q0 -132 -95.5 -227t-260.5 -95q-195 0 -346 133zM406 0 l866 1434h223l-866 -1434h-223zM1044 217q0 165 228 260q-96 71 -96 170q0 100 84.5 163.5t234.5 63.5q139 0 216 -55.5t77 -144.5q0 -126 -166 -213q143 -80 143 -211q0 -118 -103.5 -191t-279.5 -73q-162 0 -250 61.5t-88 169.5zM1257 238q0 -44 35 -68.5t97 -24.5 q69 0 116 30.5t47 82.5q0 78 -112 131q-85 -29 -134 -63t-49 -88zM1378 627q0 -54 70 -90q44 15 67.5 25t45.5 32t22 51q0 34 -25.5 55t-66.5 21q-49 0 -81 -27t-32 -67z" />
<glyph unicode="&#x215e;" horiz-adv-x="1710" d="M139 573q16 88 61.5 189.5t94 179t107 155t86.5 110.5t47 53h-361l31 174h598l-27 -162q-14 -15 -38.5 -42t-89 -108.5t-116.5 -161.5t-102.5 -187.5t-67.5 -199.5h-223zM219 0l866 1434h224l-867 -1434h-223zM856 217q0 165 227 260q-96 71 -96 170q0 100 85 163.5 t235 63.5q139 0 215.5 -55.5t76.5 -144.5q0 -127 -165 -213q143 -80 143 -211q0 -118 -103.5 -191t-279.5 -73q-162 0 -250 61.5t-88 169.5zM1069 238q0 -44 34.5 -68.5t96.5 -24.5q69 0 116.5 30.5t47.5 82.5q0 77 -113 131q-85 -29 -133.5 -63t-48.5 -88zM1190 627 q0 -54 70 -90q44 15 67.5 25t45.5 32t22 51q0 34 -25.5 55t-66.5 21q-49 0 -81 -27t-32 -67z" />
<glyph unicode="&#x2202;" horiz-adv-x="1259" d="M53 430q0 153 68 278.5t184.5 196t255.5 70.5q70 0 130 -19.5t96 -47.5t62 -56.5t36 -47.5l10 -20q-5 88 -31 161.5t-73 131.5t-123 90.5t-174 32.5q-39 0 -83 -4t-68 -8l-24 -4l7 229q81 21 192 21q155 0 278 -54t203 -151.5t122 -230.5t42 -293q0 -217 -74 -381 t-216 -255.5t-334 -91.5q-226 0 -356 120.5t-130 332.5zM362 422q0 -98 47 -157.5t152 -59.5q73 0 129 29.5t88 78t48 104t16 113.5q0 99 -50 158.5t-153 59.5q-132 0 -204.5 -96t-72.5 -230z" />
<glyph unicode="&#x2206;" horiz-adv-x="1413" d="M-55 0l753 1434h322l248 -1434h-1323zM365 254h602l-152 864z" />
<glyph unicode="&#x220f;" horiz-adv-x="1388" d="M123 0l207 1186h-174l43 248h1267l-41 -248h-174l-209 -1186h-305l207 1186h-307l-209 -1186h-305z" />
<glyph unicode="&#x2211;" horiz-adv-x="1157" d="M-25 0l27 145l602 574l-401 571l24 144h977l-45 -254h-551l322 -463l-453 -463h520l-45 -254h-977z" />
<glyph unicode="&#x2212;" horiz-adv-x="1257" d="M133 571l39 224h973l-41 -224h-971z" />
<glyph unicode="&#x221a;" horiz-adv-x="1226" d="M27 696h301l102 -405l621 1143h321l-803 -1434h-336z" />
<glyph unicode="&#x221e;" horiz-adv-x="1759" d="M82 494q0 166 107.5 279.5t275.5 113.5q66 0 123 -17.5t109 -56t87.5 -72.5t89.5 -94q84 70 125 102t102 70.5t113.5 53t112.5 14.5q149 0 233.5 -90t84.5 -236q0 -166 -108 -278.5t-280 -112.5q-52 0 -100 13.5t-85.5 33t-79 53.5t-70.5 63.5t-70 74.5 q-82 -69 -124.5 -101.5t-102.5 -70t-113 -52t-113 -14.5q-148 0 -232.5 90t-84.5 234zM301 502q0 -63 38 -99t99 -36q62 0 126 36.5t175 128.5q-89 92 -142 125t-103 33q-86 0 -139.5 -54t-53.5 -134zM989 522q85 -88 138.5 -121.5t109.5 -33.5q86 0 138 55t52 133 q0 63 -38 99t-99 36q-64 0 -126.5 -37t-174.5 -131z" />
<glyph unicode="&#x222b;" horiz-adv-x="765" d="M-135 -293l31 170h36q27 0 51 6t41.5 14.5t33.5 26t26 30.5t20.5 40t16 42t12.5 48.5t9.5 48t9.5 51.5l190 1092q44 252 149.5 347t342.5 95h100l-29 -170h-39q-47 0 -83.5 -18.5t-58 -44.5t-38 -71.5t-24.5 -81t-17 -91.5l-192 -1091q-43 -253 -146.5 -348t-339.5 -95 h-102z" />
<glyph unicode="&#x2248;" horiz-adv-x="1257" d="M106 416q72 131 149 197.5t175 66.5q55 0 111 -21t94 -45.5t85.5 -45.5t88.5 -21q38 0 74 24.5t86 98.5l143 -64q-71 -131 -148 -197.5t-176 -66.5q-55 0 -111 21t-94 45.5t-86 45.5t-89 21q-38 0 -73.5 -24.5t-84.5 -98.5zM172 801q73 130 150.5 196t175.5 66 q55 0 111 -21t94 -45.5t85.5 -45.5t88.5 -21q38 0 73.5 25t85.5 98l144 -64q-73 -130 -150.5 -196t-175.5 -66q-54 0 -109.5 21t-94 45.5t-86.5 45.5t-89 21q-38 0 -73 -24.5t-87 -98.5z" />
<glyph unicode="&#x2260;" horiz-adv-x="1257" d="M98 379l39 223h342l90 166h-403l41 223h487l164 297l184 -76l-122 -221h260l-41 -223h-342l-92 -166h405l-39 -223h-491l-164 -297l-183 76l121 221h-256z" />
<glyph unicode="&#x2264;" horiz-adv-x="1257" d="M23 0l32 193h971l-33 -193h-970zM133 625l31 176l1038 381l-47 -264l-657 -218l579 -219l-41 -237z" />
<glyph unicode="&#x2265;" horiz-adv-x="1255" d="M49 0l35 193h969l-33 -193h-971zM92 244l47 262l656 215l-578 223l41 238l903 -381l-31 -176z" />
<glyph unicode="&#x2318;" horiz-adv-x="1486" d="M59 362q0 128 91 207.5t223 79.5h139l25 135h-66q-118 0 -201.5 84t-83.5 201q0 119 83.5 203t201.5 84q115 0 201.5 -83.5t75.5 -219.5q-1 -18 -6.5 -51.5t-6.5 -49.5h135l23 133q19 105 85 181t175 86q28 5 68 -2q102 -15 171.5 -95t69.5 -186q0 -127 -90 -206 t-221 -79h-139l-25 -135h66q117 0 200.5 -84.5t83.5 -202.5q0 -117 -83.5 -199.5t-200.5 -82.5q-121 0 -204.5 86.5t-74.5 216.5q1 16 6 49t6 49h-135l-22 -131q-24 -124 -97.5 -197t-185.5 -73q-119 0 -203 82t-84 200zM227 362q0 -47 35 -80.5t84 -33.5q45 0 75 29.5 t38 74.5l22 129h-135q-50 0 -84.5 -34.5t-34.5 -84.5zM354 1069q0 -48 34 -82.5t83 -34.5h94l15 82q10 61 -18.5 107.5t-90.5 46.5q-49 0 -83 -34.5t-34 -84.5zM682 649h135l25 135h-137zM942 399q-11 -57 18 -104t93 -47q47 0 81.5 33.5t34.5 80.5q0 49 -34.5 84t-81.5 35 h-95zM1042 952h136q47 0 81.5 35t34.5 82q0 49 -34.5 84t-81.5 35q-48 0 -77.5 -34t-37.5 -73z" />
<glyph unicode="&#x25ca;" horiz-adv-x="1140" d="M86 717l479 717h303l226 -717l-480 -717h-303zM365 674l124 -416l328 502l-127 414z" />
<glyph unicode="&#xe000;" horiz-adv-x="1075" d="M0 0v1075h1075v-1075h-1075z" />
<glyph unicode="&#xf6c3;" horiz-adv-x="256" d="M-82 -532l135 170h-98l41 245h219l-33 -270l-217 -219z" />
<glyph unicode="&#xf6df;" horiz-adv-x="706" d="M-27 68q0 178 95 285.5t233 107.5h8l17 92h145l-22 -123q76 -29 153 -74l-90 -137q-76 43 -92 49l-49 -288q61 22 92 36l65 -151q-137 -53 -190 -64l-19 -108h-145l16 94q-100 11 -158.5 80t-58.5 201zM178 88q0 -85 45 -113l53 297q-45 -20 -71.5 -69.5t-26.5 -114.5z " />
<glyph unicode="&#xf6e0;" horiz-adv-x="704" d="M166 1163q0 178 95 285.5t233 107.5h8l16 93h146l-23 -123q79 -30 154 -74l-90 -137q-74 41 -93 49l-49 -289q48 17 92 37l66 -151q-136 -52 -191 -64l-18 -109h-145l16 95q-100 11 -158.5 79.5t-58.5 200.5zM371 1184q0 -85 45 -113l53 297q-45 -20 -71.5 -69.5 t-26.5 -114.5z" />
<glyph unicode="&#xf6e1;" horiz-adv-x="380" d="M-102 -446l118 139h-92l39 221h203l-29 -248l-198 -180z" />
<glyph unicode="&#xf6e2;" horiz-adv-x="382" d="M92 649l119 139h-92l39 222h202l-28 -248l-199 -180z" />
<glyph unicode="&#xf6e3;" horiz-adv-x="802" d="M-100 -186l108 141q102 -62 193 -88l30 174l-51 20q-80 36 -128 91t-48 143q0 115 85 192t235 80l20 111h145l-22 -127q104 -26 240 -98l-111 -140q-92 45 -160 64l-28 -164l49 -20q83 -38 132.5 -92t49.5 -144q0 -118 -89 -197t-239 -82l-18 -108h-143l20 123 q-139 32 -270 121zM229 313q0 -31 41 -51l23 125q-64 -17 -64 -74zM344 -141q32 9 51 28.5t19 46.5q0 35 -47 58z" />
<glyph unicode="&#xf6e4;" horiz-adv-x="804" d="M94 909l109 142q105 -64 190 -88l31 174l-49 20q-80 36 -128 91t-48 143q0 115 83.5 192t233.5 80l21 111h147l-22 -127q99 -25 239 -99l-110 -139q-92 45 -160 64l-29 -164l49 -21q83 -38 133 -91.5t50 -143.5q0 -118 -89 -197t-239 -82l-19 -108h-145l20 122 q-145 33 -268 121zM424 1409q0 -32 39 -51l22 125q-61 -20 -61 -74zM539 954q32 8 50.5 27.5t18.5 48.5q0 32 -47 55z" />
<glyph unicode="&#xf6e7;" horiz-adv-x="378" d="M-74 -307l39 221h205l-39 -221h-205z" />
<glyph unicode="&#xf6e8;" horiz-adv-x="378" d="M121 788l39 222h205l-39 -222h-205z" />
<glyph unicode="&#xf6e9;" horiz-adv-x="811" d="M139 1018q0 189 86 309.5t221 120.5q99 0 197 -84l12 70h203l-115 -646h-202l12 72q-107 -86 -219 -86q-83 0 -139 58.5t-56 185.5zM348 1038q0 -102 74 -102q68 0 158 82l36 199q-58 69 -120 69q-67 0 -107.5 -73.5t-40.5 -174.5z" />
<glyph unicode="&#xf6ea;" horiz-adv-x="813" d="M129 788l158 895h202l-55 -317q115 82 213 82q83 0 141 -59.5t58 -186.5q0 -188 -84.5 -308t-218.5 -120q-46 0 -88 15t-62.5 29t-48.5 38l-12 -68h-203zM371 1006q59 -70 123 -70q66 0 105.5 73.5t39.5 172.5q0 104 -78 104q-65 0 -155 -78z" />
<glyph unicode="&#xf6eb;" horiz-adv-x="813" d="M139 1018q0 189 86 309.5t221 120.5q43 0 84 -15.5t62 -30t49 -38.5l57 319h203l-158 -895h-202l12 70q-110 -84 -219 -84q-83 0 -139 58.5t-56 185.5zM348 1038q0 -102 74 -102q68 0 158 82l34 199q-58 69 -118 69q-67 0 -107.5 -73.5t-40.5 -174.5z" />
<glyph unicode="&#xf6ec;" horiz-adv-x="741" d="M137 1053q0 173 102 284t279 111q119 0 188.5 -52.5t69.5 -146.5q0 -49 -20.5 -86t-53.5 -58.5t-83 -35t-100 -18t-113 -4.5h-72q8 -123 106 -123q78 0 232 71l59 -137q-33 -16 -76 -32.5t-117 -34t-137 -17.5q-264 0 -264 279zM342 1151h70q174 0 174 92q0 28 -20 45 t-60 17q-63 0 -105.5 -42t-58.5 -112z" />
<glyph unicode="&#xf6ed;" horiz-adv-x="401" d="M129 788l115 646h202l-114 -646h-203zM254 1516l29 165h209l-29 -165h-209z" />
<glyph unicode="&#xf6ee;" horiz-adv-x="405" d="M131 788l158 895h203l-158 -895h-203z" />
<glyph unicode="&#xf6ef;" horiz-adv-x="1183" d="M129 788l115 646h202l-14 -76q108 90 207 90q138 0 164 -113q42 42 106 77.5t123 35.5q101 0 142 -60t22 -165l-76 -435h-200l71 406q10 41 0 68.5t-47 27.5q-33 0 -72.5 -23.5t-70.5 -56.5l-76 -422h-201l72 406q10 41 0 68.5t-47 27.5q-63 0 -141 -78l-76 -424h-203z " />
<glyph unicode="&#xf6f0;" horiz-adv-x="790" d="M137 1049q0 111 39.5 199.5t125 144t204.5 55.5q147 0 231 -72t84 -202q0 -82 -23 -153.5t-67 -127t-115.5 -87.5t-162.5 -32q-147 0 -231.5 72.5t-84.5 202.5zM340 1055q0 -62 26 -93.5t91 -31.5q54 0 92 41t53.5 92t15.5 102q0 64 -25 95.5t-91 31.5q-52 0 -90.5 -40.5 t-55 -93t-16.5 -103.5z" />
<glyph unicode="&#xf6f1;" horiz-adv-x="571" d="M129 788l115 646h202l-22 -136q10 20 27.5 41.5t48 48t77.5 42t101 12.5l-31 -191q-57 0 -106.5 -23t-78.5 -56.5t-50 -66.5t-29 -56l-8 -23l-43 -238h-203z" />
<glyph unicode="&#xf6f2;" horiz-adv-x="708" d="M104 877l84 120q141 -79 248 -79q32 0 54 13.5t22 37.5q0 13 -6.5 22.5t-22.5 16.5t-29.5 11.5t-41.5 12t-45 12.5q-38 12 -65.5 24t-58.5 34t-48 56.5t-17 78.5q0 91 71 151t197 60q81 0 163.5 -25.5t144.5 -58.5l-84 -117q-127 60 -211 60q-34 0 -55 -14.5t-21 -37.5 q0 -12 6 -21t20.5 -15.5t28 -10.5t40 -11t44.5 -13q33 -11 56 -20.5t51.5 -26.5t46 -36.5t29.5 -49t12 -64.5q0 -95 -74.5 -154t-204.5 -59q-176 0 -334 103z" />
<glyph unicode="&#xf6f3;" horiz-adv-x="577" d="M156 1286l24 148h82l29 161l207 25l-33 -186h168l-25 -148h-170l-47 -276q-12 -60 33 -60q24 0 96 25l49 -154q-123 -47 -217 -47q-100 0 -142 65.5t-20 188.5l46 258h-80z" />
<glyph unicode="&#xf8ff;" horiz-adv-x="1847" d="M146.5 560.5q-2.5 11.5 15.5 21.5l57 41q2 1 3.5 2.5l3 3l2.5 2.5t2 3l1 1q19 16 37 -12l33 -64q6 -12 13.5 -15.5t14 2t9.5 17.5l18 70q4 19 18.5 21t26.5 -13l48 -53q14 -15 23 -11.5t11 23.5l4 70q3 20 15.5 25t27.5 -7l58 -43q17 -12 25.5 -6.5t4.5 25.5l-8 69 q-3 20 8.5 28t28.5 -1l64 -29q19 -9 26.5 -1.5t1.5 26.5l-22 67q-8 19 0.5 29t27.5 4l15 -2q40 -77 70 -202.5t30 -217.5q-15 -18 -34.5 -27.5t-59.5 -9.5h-8q0 46 -33 72q18 -21 18 -55v-15q-32 3 -32 39q0 43 -28 72t-77 29q-41 0 -68.5 -32t-27.5 -79q0 -60 49.5 -96.5 t138.5 -36.5q85 0 172 42t156.5 112t125 154.5t86 175.5t30.5 169q0 59 -36.5 98t-94.5 39q-48 0 -85.5 -33.5t-37.5 -84.5q0 -106 119 -119q-29 -119 -60 -174q-12 96 -43.5 178t-75.5 129q91 -120 107 -330l-29 -41q0 156 -51 287t-131 172q-5 9 2 18.5t22 12.5l70 12 q19 3 21 13.5t-15 21.5l-59 39q-15 13 -13.5 26.5t19.5 20.5l64 29q14 4 19 10t0 13t-19 13l-64 27q-23 10 -20 29q11 6 14 16l35 62q9 19 20.5 18t16.5 -20l20 -68q6 -21 18.5 -24t26.5 14l47 53q12 15 23 12.5t12 -22.5l4 -72q1 -21 14.5 -26t28.5 8l57 43q15 12 24 5.5 t7 -26.5l-10 -70q-1 -20 10.5 -27.5t28.5 1.5l63 33q19 8 26.5 0t0.5 -29l-23 -64q-6 -20 3 -30t28 -4l70 14q20 6 26.5 -2t-4.5 -27l-37 -59q-12 -17 -5.5 -29.5t26.5 -11.5l72 4q21 0 25 -11t-9 -24l-49 -53q-14 -13 -10.5 -26.5t24.5 -16.5l70 -12q43 -10 6 -39l-57 -39 q-16 -10 -15 -24t21 -21l63 -27q12 -5 16.5 -12t0 -13.5t-16.5 -11.5l-63 -26q-20 -7 -21 -22t15 -25l57 -41q11 -7 14.5 -14.5t-2 -13.5t-18.5 -9l-70 -13q-21 -3 -24.5 -16.5t10.5 -28.5l49 -49q13 -14 9 -24.5t-25 -10.5l-72 5q-20 0 -26.5 -12t5.5 -29l37 -62 q10 -17 4 -25.5t-26 -5.5l-70 19q-19 4 -28 -6t-3 -29l23 -68q8 -19 0 -26t-27 2l-63 31q-17 9 -28.5 1t-10.5 -30l10 -68q1 -21 -7.5 -25.5t-23.5 7.5l-57 43q-15 12 -28.5 5.5t-14.5 -26.5l-4 -69q-1 -20 -12 -23t-23 11l-47 55q-13 14 -26 12t-19 -22l-20 -68 q-3 -13 -9.5 -18t-14 -1t-13.5 15l-35 61q-9 19 -22 19t-25 -19l-31 -61q-6 -11 -13.5 -15t-14 1t-9.5 18l-20 68q-6 20 -19 22t-26 -12l-47 -55q-12 -14 -22 -11t-13 23l-4 69q-2 20 -15 26.5t-30 -5.5l-54 -43q-17 -13 -26.5 -8t-5.5 26l10 68q1 22 -10.5 30t-30.5 -1 l-62 -31q-19 -9 -26.5 -2t0.5 26l22 68q7 19 -2 29.5t-28 5.5l-70 -19q-20 -3 -26.5 5.5t3.5 25.5l39 62q11 17 4.5 29t-26.5 12l-72 -5q-21 0 -25 10.5t9 24.5l51 49q13 15 9 28.5t-25 16.5l-68 13q-21 4 -23.5 15.5zM623 281q43 -27 122 -27q106 0 212.5 65t183.5 162 t125.5 212t48.5 214q0 63 -41 101q24 -38 24 -84q0 -100 -47.5 -215t-126.5 -215q-85 -105 -188.5 -168.5t-212.5 -63.5q-57 0 -100 19z" />
<glyph unicode="&#xfb06;" horiz-adv-x="1835" d="M-25 141l138 193q85 -52 192 -91.5t187 -39.5q63 0 99 26.5t36 67.5q0 17 -5.5 30.5t-19 25t-26.5 19.5t-38 17.5t-42.5 15t-50.5 15.5t-52 16q-60 20 -105 42t-91.5 58.5t-71.5 91.5t-25 126q0 151 113 247.5t307 96.5q120 0 242 -37q-6 34 -6 69q0 155 117 259t321 104 q206 0 316.5 -105t76.5 -290l-4 -23h268l-39 -217h-268l-90 -522q-19 -103 57 -103q51 0 156 48l70 -230q-201 -74 -332 -74q-148 0 -211.5 99t-30.5 289l86 493h-133l39 217h133l8 45q23 118 -11.5 179t-139.5 61q-108 0 -182 -70t-74 -182q0 -56 18 -100q30 -13 84 -43 l-135 -189q-69 39 -161.5 68.5t-162.5 29.5q-62 0 -96.5 -25t-34.5 -67q0 -19 8.5 -33.5t19 -24.5t35 -20.5t42.5 -16.5t56 -18t61 -20q53 -18 90.5 -34t81.5 -43.5t71 -59.5t45.5 -80t18.5 -106q0 -157 -120.5 -253t-322.5 -96q-146 0 -279.5 48t-232.5 116z" />
<glyph horiz-adv-x="815" d="M102 584l72 153q35 -8 80 -8q106 0 195.5 51t134.5 152q-71 -55 -178 -55q-119 0 -190 70.5t-71 182.5q0 133 93 225.5t254 92.5t250 -96t89 -238q0 -114 -42.5 -216t-116.5 -177t-181.5 -118.5t-230.5 -43.5q-46 0 -85.5 6.5t-56.5 12.5zM354 1139q0 -46 30 -76.5 t89 -30.5q46 0 86.5 23t63.5 51v20q0 66 -33 109t-94 43q-68 0 -105 -41t-37 -98z" />
<glyph horiz-adv-x="1136" d="M-92 0l485 594l-260 582h307l140 -406l276 406h346l-467 -582l279 -594h-314l-149 401l-285 -401h-358z" />
<glyph horiz-adv-x="1499" d="M-193 -238q61 21 98.5 35.5t68.5 36t46.5 38t29 50.5t20 63.5t16.5 88.5l137 784h-131l39 217h131l10 55q32 190 106.5 276.5t225.5 86.5q96 0 193 -32.5t168 -71.5l-134 -191q-108 41 -167 41q-76 0 -97 -104l-10 -60h246l-43 -217h-242l-133 -762q-14 -81 -21.5 -119 t-22.5 -97t-30.5 -85.5t-42.5 -66.5t-60.5 -60t-83 -46.5t-112 -45t-145.5 -37.5zM557 -238q61 21 98.5 35.5t68.5 36t46.5 38t29 50.5t20 63.5t16.5 88.5l137 784h-131l39 217h131l10 55q32 189 106 276t222 87q70 0 154 -27t141 -57l-105 -199q-85 29 -127 29 q-76 0 -94 -104l-10 -60h241l-41 -217h-239l-135 -762q-12 -72 -19 -107t-19.5 -89t-25 -79.5t-33 -64t-45.5 -58t-60.5 -46t-81.5 -43.5t-103.5 -35t-131.5 -35z" />
<glyph horiz-adv-x="1429" d="M-193 -238q61 21 99 35.5t69 36t46 37.5t28.5 51t20 64t16.5 88l139 784h-133l39 217h133l6 35q34 191 116.5 277t236.5 86q173 0 419 -91q76 111 244 111q96 0 193 -32.5t168 -71.5l-136 -191q-31 13 -82 27t-83 14q-79 0 -97 -104l-10 -60h244l-41 -217h-242l-135 -762 q-14 -81 -21.5 -119t-22.5 -97t-30 -85.5t-42.5 -66.5t-60.5 -60t-82.5 -46.5t-111.5 -45t-145 -37.5l-60 223q61 21 98.5 35.5t68.5 36t46.5 38t29 50.5t20 63.5t16.5 88.5l137 784h-385l-135 -762q-14 -81 -21.5 -119t-22.5 -97t-30 -85.5t-42.5 -66.5t-60.5 -60 t-82.5 -46.5t-111.5 -45t-145 -37.5zM557 1075h387l19 99q-203 45 -283 45q-43 0 -74 -26.5t-41 -78.5z" />
<glyph horiz-adv-x="2631" d="M-193 -238q61 21 99 35.5t69 36t46 37.5t28.5 51t20 64t16.5 88l139 784h-133l39 217h133l6 35q34 191 116.5 277t236.5 86q172 0 424 -93q88 113 258 113q157 0 381 -76l14 76h295l-97 -537q180 142 347 142q62 0 115 -21t98.5 -64.5t71.5 -121.5t26 -182 q0 -212 -60.5 -378.5t-170.5 -260t-252 -93.5q-55 0 -104.5 13t-91.5 38.5t-67 44.5t-59 50l-20 -123h-295l211 1194q-190 45 -285 45q-44 0 -75 -26t-40 -78l-10 -60h244l-39 -217h-244l-133 -762q-13 -73 -19.5 -107t-20 -88.5t-25.5 -79.5t-32.5 -64t-45.5 -58t-60 -46 t-81 -43.5t-103.5 -35t-130.5 -35.5l-62 223q61 21 98.5 35.5t68.5 36t46.5 38t29 50.5t20 63.5t16.5 88.5l139 784h-383l-135 -762q-14 -81 -21.5 -119t-22.5 -97t-30 -85.5t-42.5 -66.5t-60.5 -60t-82.5 -46.5t-111.5 -45t-145 -37.5zM557 1075h385l19 101 q-193 43 -281 43q-43 0 -74 -26.5t-41 -78.5zM1792 346q43 -58 98 -94.5t113 -36.5q77 0 135.5 67t87.5 169.5t29 220.5q0 89 -36.5 138.5t-102.5 49.5q-67 0 -128 -37t-130 -102z" />
<glyph horiz-adv-x="2627" d="M-193 -238q61 21 99 35.5t69 36t46 37.5t28.5 51t20 64t16.5 88l139 784h-133l39 217h133l6 35q34 191 116.5 277t236.5 86q172 0 424 -93q88 113 258 113q157 0 381 -76l14 76h295l-97 -541q62 40 110 67t124 53t141 26q161 0 226.5 -101t35.5 -274l-129 -723h-295 l123 692q32 176 -88 176q-63 0 -143 -41.5t-143 -95.5l-129 -731h-295l211 1194q-190 45 -285 45q-44 0 -75 -26t-40 -78l-10 -60h244l-39 -217h-244l-133 -762q-13 -73 -19.5 -107t-20 -88.5t-25.5 -79.5t-32.5 -64t-45.5 -58t-60 -46t-81 -43.5t-103.5 -35t-130.5 -35.5 l-62 223q61 21 98.5 35.5t68.5 36t46.5 38t29 50.5t20 63.5t16.5 88.5l139 784h-383l-135 -762q-14 -81 -21.5 -119t-22.5 -97t-30 -85.5t-42.5 -66.5t-60.5 -60t-82.5 -46.5t-111.5 -45t-145 -37.5zM557 1075h385l19 101q-193 43 -281 43q-43 0 -74 -26.5t-41 -78.5z" />
<glyph horiz-adv-x="1900" d="M-193 -238q61 21 99 35.5t69 36t46 37.5t28.5 51t20 64t16.5 88l139 784h-133l39 217h133l6 35q34 191 116.5 277t236.5 86q174 0 426 -93q91 113 268 113q112 0 248 -32t243 -72l-118 -193q-193 43 -316 43q-46 0 -82.5 -26.5t-44.5 -77.5l-10 -60h625l-191 -1075h-295 l152 858h-330l-133 -762q-13 -73 -19.5 -107t-20 -88.5t-25.5 -79.5t-32.5 -64t-45.5 -58t-60 -46t-81 -43.5t-103.5 -35t-130.5 -35.5l-62 223q61 21 98.5 35.5t68.5 36t46.5 38t29 50.5t20 63.5t16.5 88.5l139 784h-383l-135 -762q-14 -81 -21.5 -119t-22.5 -97t-30 -85.5 t-42.5 -66.5t-60.5 -60t-82.5 -46.5t-111.5 -45t-145 -37.5zM557 1075h385l19 101q-193 43 -281 43q-43 0 -74 -26.5t-41 -78.5z" />
<glyph horiz-adv-x="1902" d="M-193 -238q61 21 99 35.5t69 36t46 37.5t28.5 51t20 64t16.5 88l139 784h-133l39 217h133l6 35q34 191 116.5 277t236.5 86q174 0 426 -93q91 113 268 113q112 0 248 -32t243 -72l-118 -193q-193 43 -316 43q-46 0 -82.5 -26.5t-44.5 -77.5l-10 -60h625l-187 -1048 q-15 -86 -24 -126t-30.5 -98.5t-52 -87t-83.5 -65t-129 -61.5t-185 -50l-61 223q60 20 99 35t68.5 33t44.5 31t27 38t17 45t12 60l150 854h-330l-133 -762q-13 -73 -19.5 -107t-20 -88.5t-25.5 -79.5t-32.5 -64t-45.5 -58t-60 -46t-81 -43.5t-103.5 -35t-130.5 -35.5 l-62 223q61 21 98.5 35.5t68.5 36t46.5 38t29 50.5t20 63.5t16.5 88.5l139 784h-383l-135 -762q-14 -81 -21.5 -119t-22.5 -97t-30 -85.5t-42.5 -66.5t-60.5 -60t-82.5 -46.5t-111.5 -45t-145 -37.5zM557 1075h385l19 101q-193 43 -281 43q-43 0 -74 -26.5t-41 -78.5z" />
<glyph horiz-adv-x="2525" d="M-193 -238q61 21 99 35.5t69 36t46 37.5t28.5 51t20 64t16.5 88l139 784h-133l39 217h133l6 35q34 191 116.5 277t236.5 86q172 0 424 -93q88 113 258 113q159 0 383 -76l12 76h295l-146 -815l344 397h365l-426 -440l291 -635h-299l-187 434l-159 -166l-47 -268h-295 l211 1194q-190 45 -285 45q-44 0 -75 -26t-40 -78l-10 -60h244l-39 -217h-244l-133 -762q-13 -73 -19.5 -107t-20 -88.5t-25.5 -79.5t-32.5 -64t-45.5 -58t-60 -46t-81 -43.5t-103.5 -35t-130.5 -35.5l-62 223q61 21 98.5 35.5t68.5 36t46.5 38t29 50.5t20 63.5t16.5 88.5 l139 784h-383l-135 -762q-14 -81 -21.5 -119t-22.5 -97t-30 -85.5t-42.5 -66.5t-60.5 -60t-82.5 -46.5t-111.5 -45t-145 -37.5zM557 1075h385l19 101q-193 43 -281 43q-43 0 -74 -26.5t-41 -78.5z" />
<glyph horiz-adv-x="749" d="M-193 -238q61 21 98.5 35.5t68.5 36t46.5 38t29 50.5t20 63.5t16.5 88.5l137 784h-131l39 217h131l10 55q32 189 106 276t222 87q70 0 154 -27t141 -57l-104 -199q-85 29 -127 29q-33 0 -59 -24.5t-36 -79.5l-10 -60h242l-41 -217h-240l-135 -762q-14 -81 -21.5 -119 t-22.5 -97t-30.5 -85.5t-42.5 -66.5t-60.5 -60t-83 -46.5t-112 -45t-145.5 -37.5z" />
<glyph horiz-adv-x="1972" d="M-193 -238q61 21 99 35.5t69 36t46 37.5t28.5 51t20 64t16.5 88l139 784h-133l39 217h133l6 35q34 191 116.5 277t236.5 86q172 0 424 -93q88 113 258 113q157 0 381 -76l14 76h295l-264 -1493h-295l211 1194q-190 45 -285 45q-44 0 -75 -26t-40 -78l-10 -60h244 l-39 -217h-244l-133 -762q-13 -73 -19.5 -107t-20 -88.5t-25.5 -79.5t-32.5 -64t-45.5 -58t-60 -46t-81 -43.5t-103.5 -35t-130.5 -35.5l-62 223q61 21 98.5 35.5t68.5 36t46.5 38t29 50.5t20 63.5t16.5 88.5l139 784h-383l-135 -762q-14 -81 -21.5 -119t-22.5 -97 t-30 -85.5t-42.5 -66.5t-60.5 -60t-82.5 -46.5t-111.5 -45t-145 -37.5zM557 1075h385l19 101q-193 43 -281 43q-43 0 -74 -26.5t-41 -78.5z" />
<glyph horiz-adv-x="2183" d="M-193 -238q61 21 99 35.5t69 36t46 37.5t28.5 51t20 64t16.5 88l139 784h-133l39 217h133l6 35q34 191 116.5 277t236.5 86q176 0 417 -89q77 109 242 109q173 0 360 -104l-133 -191q-33 13 -85.5 27t-84.5 14q-76 0 -94 -104l-10 -60h399l49 271l302 40l-56 -311h266 l-38 -217h-267l-92 -522q-17 -103 60 -103q40 0 157 48l68 -230q-207 -74 -332 -74q-148 0 -211.5 99t-30.5 289l88 493h-401l-133 -762q-13 -73 -19.5 -107t-20 -88.5t-25.5 -79.5t-32.5 -64t-45.5 -58t-60 -46t-81 -43.5t-103.5 -35t-130.5 -35.5l-60 223q61 21 98.5 35.5 t68.5 36t46.5 38t29 50.5t20 63.5t16.5 88.5l139 784h-383l-135 -762q-14 -81 -21.5 -119t-22.5 -97t-30 -85.5t-42.5 -66.5t-60.5 -60t-82.5 -46.5t-111.5 -45t-145 -37.5zM557 1075h385l19 101q-193 43 -281 43q-43 0 -74 -26.5t-41 -78.5z" />
<glyph horiz-adv-x="1947" d="M-193 -238q61 21 98.5 35.5t68.5 36t46.5 38t29 50.5t20 63.5t16.5 88.5l137 784h-131l39 217h131l10 55q36 191 118 277t233 86q159 0 383 -76l14 76h295l-96 -543q211 148 374 148q161 0 227.5 -101.5t34.5 -273.5l-126 -723h-297l122 692q32 176 -90 176 q-62 0 -141.5 -41.5t-142.5 -95.5l-129 -731h-295l211 1194q-196 45 -285 45q-42 0 -73 -26t-40 -78l-10 -60h242l-41 -217h-240l-135 -762q-14 -81 -21.5 -119t-22.5 -97t-30.5 -85.5t-42.5 -66.5t-60.5 -60t-83 -46.5t-112 -45t-145.5 -37.5z" />
<glyph horiz-adv-x="1236" d="M88 377.5q2 65.5 16 146.5l115 652h283l-125 -713q-11 -51 -8.5 -94.5t17.5 -76t55 -51t102 -18.5q120 0 179.5 63.5t78.5 176.5l127 713h280l-127 -725q-15 -83 -38 -148.5t-64.5 -127.5t-99 -103t-144.5 -65.5t-198 -24.5q-105 0 -185 18.5t-130.5 54.5t-82 83 t-42.5 110.5t-9 129zM457 1511h180q-6 -43 21.5 -66.5t82.5 -23.5q69 0 114.5 24t51.5 66h183q-20 -118 -113 -184.5t-240 -66.5q-150 0 -224 69.5t-56 181.5z" />
<glyph horiz-adv-x="1222" d="M-193 -238q61 21 98.5 35.5t68.5 36t46.5 38t29 50.5t20 63.5t16.5 88.5l139 784h-133l39 217h133l10 55q34 190 119 276.5t244 86.5q114 0 249 -32t240 -72l-118 -193q-61 14 -156 28.5t-158 14.5q-44 0 -78.5 -26.5t-44.5 -77.5l-10 -60h623l-193 -1075h-293l152 858 h-328l-135 -762q-15 -82 -22.5 -119.5t-23 -96.5t-30.5 -85.5t-42.5 -66.5t-61 -60t-83 -46.5t-112 -45t-145.5 -37.5z" />
<glyph horiz-adv-x="1222" d="M-193 -238q61 21 98.5 35.5t68.5 36t46.5 38t29 50.5t20 63.5t16.5 88.5l139 784h-133l39 217h133l10 55q34 190 119 276.5t244 86.5q114 0 249 -32t240 -72l-118 -193q-61 14 -156 28.5t-158 14.5q-44 0 -78.5 -26.5t-44.5 -77.5l-10 -60h623l-187 -1048 q-29 -161 -53 -220q-42 -102 -143 -162q-103 -59 -309 -106l-60 223q60 20 98.5 35t68 33t44.5 31t27 38t16.5 45t11.5 60l152 854h-328l-135 -762q-15 -82 -22.5 -119.5t-23 -96.5t-30.5 -85.5t-42.5 -66.5t-61 -60t-83 -46.5t-112 -45t-145.5 -37.5z" />
<glyph horiz-adv-x="1843" d="M-193 -238q61 21 98.5 35.5t68.5 36t46.5 38t29 50.5t20 63.5t16.5 88.5l137 784h-131l39 217h131l10 55q34 190 117 276.5t234 86.5q159 0 383 -76l14 76h295l-146 -815l344 397h365l-426 -440l291 -635h-299l-187 434l-159 -166l-47 -268h-295l211 1194 q-196 45 -285 45q-42 0 -73 -26t-40 -78l-10 -60h242l-41 -217h-240l-135 -762q-14 -81 -21.5 -119t-22.5 -97t-30.5 -85.5t-42.5 -66.5t-60.5 -60t-83 -46.5t-112 -45t-145.5 -37.5z" />
<glyph horiz-adv-x="434" d="M145 788l35 201h203l-33 -201h-205zM236 1073l40 576h244l-164 -576h-120z" />
<glyph horiz-adv-x="1292" d="M-193 -238q61 21 98.5 35.5t68.5 36t46.5 38t29 50.5t20 63.5t16.5 88.5l137 784h-131l39 217h131l10 55q36 191 118 277t233 86q159 0 383 -76l14 76h295l-264 -1493h-295l211 1194q-196 45 -285 45q-42 0 -73 -26t-40 -78l-10 -60h242l-41 -217h-240l-135 -762 q-14 -81 -21.5 -119t-22.5 -97t-30.5 -85.5t-42.5 -66.5t-60.5 -60t-83 -46.5t-112 -45t-145.5 -37.5z" />
<glyph horiz-adv-x="1505" d="M-193 -238q61 21 98.5 35.5t68.5 36t46.5 38t29 50.5t20 63.5t16.5 88.5l137 784h-131l39 217h131l10 55q32 190 106.5 276.5t225.5 86.5q96 0 193 -32.5t168 -71.5l-134 -191q-108 41 -167 41q-33 0 -59 -24.5t-36 -79.5l-10 -60h397l50 271l301 40l-56 -311h269 l-41 -217h-267l-90 -522q-19 -103 58 -103q42 0 159 48l66 -230q-207 -74 -332 -74q-149 0 -212 99t-30 289l89 493h-400l-135 -762q-14 -81 -21.5 -119t-22.5 -97t-30.5 -85.5t-42.5 -66.5t-60.5 -60t-83 -46.5t-112 -45t-145.5 -37.5z" />
<glyph horiz-adv-x="571" d="M-195 -432q106 33 133 62t42 120l77 440h-82l27 148h82l4 16q20 122 68 178t149 56q116 0 234 -68l-90 -129q-72 25 -101 25q-47 0 -57 -60l-4 -18h147l-22 -148h-152l-74 -426q-27 -137 -48 -182q-34 -75 -119 -115q-62 -29 -171 -53z" />
<glyph horiz-adv-x="1236" d="M88 377.5q2 65.5 16 146.5l115 652h283l-125 -713q-11 -51 -8.5 -94.5t17.5 -76t55 -51t102 -18.5q120 0 179.5 63.5t78.5 176.5l127 713h280l-127 -725q-15 -83 -38 -148.5t-64.5 -127.5t-99 -103t-144.5 -65.5t-198 -24.5q-105 0 -185 18.5t-130.5 54.5t-82 83 t-42.5 110.5t-9 129zM520 1260l281 282h348l-373 -282h-256z" />
<glyph horiz-adv-x="784" d="M-39 119l115 131q31 -24 54 -38.5t67.5 -30t91.5 -15.5q66 0 113 34t47 97q0 48 -30 75t-85 27q-80 0 -160 -49l-115 76l121 434h547l-29 -174h-366l-31 -129q48 10 90 10q130 0 201.5 -74.5t71.5 -185.5q0 -132 -96 -226.5t-261 -94.5q-195 0 -346 133z" />
<glyph horiz-adv-x="784" d="M61 692l115 131q31 -24 54 -38.5t67.5 -30t91.5 -15.5q66 0 113 34t47 97q0 48 -30 75.5t-85 27.5q-80 0 -160 -49l-114 75l121 435h546l-28 -174h-367l-31 -130q53 11 91 11q130 0 201 -74.5t71 -185.5q0 -132 -95.5 -227t-260.5 -95q-196 0 -347 133z" />
<glyph horiz-adv-x="1165" d="M-72 -76l170 195q177 -137 330 -137q114 0 197.5 68.5t83.5 185.5q0 89 -51 142.5t-150 53.5q-47 0 -96 -14.5t-78.5 -29.5t-77.5 -42l-166 109l197 721h846l-46 -254h-581l-62 -263q86 21 158 21q137 0 234 -59t142.5 -154t45.5 -215q0 -105 -37.5 -200t-107.5 -169.5 t-180 -119t-244 -44.5q-287 0 -527 205z" />
<glyph horiz-adv-x="1308" d="M45 182l170 195q177 -137 330 -137q114 0 197 68.5t83 185.5q0 89 -50.5 142.5t-149.5 53.5q-47 0 -96 -14.5t-78.5 -29.5t-77.5 -42l-166 109l196 721h846l-45 -254h-581l-62 -262q82 20 158 20q137 0 234 -59t142.5 -154t45.5 -215q0 -105 -38 -200t-108 -169.5 t-180 -119t-244 -44.5q-286 0 -526 205z" />
<glyph horiz-adv-x="432" d="M-47 -307l35 201h202l-32 -201h-205zM43 -23l41 576h244l-164 -576h-121z" />
<glyph horiz-adv-x="1644" d="M59 565l91 105q93 -68 186 -68q61 0 104 28t43 83q0 40 -27 63t-79 23q-79 0 -141 -41l-95 61l103 357h465l-21 -140h-323l-27 -112q42 10 82 10q114 0 175.5 -61.5t61.5 -153.5q0 -107 -82 -183.5t-223 -76.5q-157 0 -293 106zM344 0l743 1176h181l-746 -1176h-178z M889 178q0 137 196 213q-88 59 -88 141q0 80 74.5 132.5t200.5 52.5q117 0 183.5 -46t66.5 -120q0 -103 -146 -174q125 -68 125 -174q0 -96 -87.5 -155.5t-233.5 -59.5q-137 0 -214 51t-77 139zM1059 195q0 -38 32.5 -58t88.5 -20q63 0 108 25.5t45 68.5q0 63 -106 111 q-38 -13 -62 -22.5t-51.5 -25t-41 -35.5t-13.5 -44zM1161 514q0 -48 70 -76q59 16 92 36t33 52t-23.5 50t-62.5 18q-49 0 -79 -23t-30 -57z" />
<glyph horiz-adv-x="432" d="M125 788l164 576h121l-41 -576h-244zM262 1448l33 201h205l-35 -201h-203z" />
<glyph horiz-adv-x="1613" d="M59 565l93 105q88 -68 184 -68q63 0 106 28t43 83q0 40 -28 63t-80 23q-77 0 -139 -41l-95 61l101 357h467l-23 -140h-323l-27 -112q45 10 84 10q113 0 174 -61.5t61 -153.5q0 -108 -81 -184t-222 -76q-159 0 -295 106zM344 0l741 1176h181l-746 -1176h-176zM885 262 q0 191 137.5 323t347.5 132q37 0 70.5 -5.5t47.5 -10.5l15 -5l-57 -121q-31 7 -70 7q-96 0 -176.5 -44.5t-118.5 -129.5q63 47 162 47q103 0 165 -58t62 -151q0 -107 -79 -182.5t-215 -75.5q-138 0 -214.5 79t-76.5 195zM1051 254q0 -54 31 -91.5t87 -37.5q63 0 98.5 34.5 t35.5 82.5q0 39 -28 64.5t-83 25.5q-45 0 -84 -21.5t-57 -46.5v-10z" />
<glyph horiz-adv-x="432" d="M-68 -307l164 575h121l-41 -575h-244zM70 352l32 201h205l-35 -201h-202z" />
<glyph horiz-adv-x="1236" d="M88 377.5q2 65.5 16 146.5l115 652h283l-125 -713q-11 -51 -8.5 -94.5t17.5 -76t55 -51t102 -18.5q120 0 179.5 63.5t78.5 176.5l127 713h280l-127 -725q-15 -83 -38 -148.5t-64.5 -127.5t-99 -103t-144.5 -65.5t-198 -24.5q-105 0 -185 18.5t-130.5 54.5t-82 83 t-42.5 110.5t-9 129z" />
<glyph horiz-adv-x="741" d="M178 1473l33 176h684l-31 -176h-237l-121 -685h-209l119 685h-238z" />
<glyph horiz-adv-x="854" d="M-43 158l27 145l465 557h278l-94 -528h125l-29 -174h-127l-27 -158h-210l26 158h-434zM209 332h213l61 334z" />
<glyph horiz-adv-x="854" d="M57 731l27 146l465 557h278l-94 -529h125l-29 -174h-127l-26 -158h-211l27 158h-435zM309 905h213l62 334z" />
<glyph horiz-adv-x="1290" d="M-63 18l38 215l756 943h410l-160 -904h199l-45 -254h-199l-49 -276h-305l49 276h-694zM299 272h377l106 607z" />
<glyph horiz-adv-x="1308" d="M6 276l39 216l756 942h389l-160 -904h187l-46 -254h-186l-47 -276h-301l47 276h-678zM367 530h362l102 584z" />
<glyph horiz-adv-x="1732" d="M59 602l19 115l405 459h226l-78 -437h108l-22 -137h-111l-22 -131h-170l22 131h-377zM264 739h197l51 287zM430 0l746 1176h180l-748 -1176h-178zM983 96l92 105q91 -70 185 -70q61 0 104 28.5t43 82.5q0 88 -107 88q-65 0 -141 -41l-92 61l102 355h463l-20 -138h-324 l-28 -114q45 10 86 10q114 0 174.5 -61t60.5 -154q0 -106 -82 -183t-223 -77q-162 0 -293 108z" />
<glyph horiz-adv-x="546" d="M-2 0l223 786h162l-53 -786h-332zM186 901l45 275h277l-45 -275h-277z" />
<glyph horiz-adv-x="1236" d="M88 377.5q2 65.5 16 146.5l115 652h283l-125 -713q-11 -51 -8.5 -94.5t17.5 -76t55 -51t102 -18.5q120 0 179.5 63.5t78.5 176.5l127 713h280l-127 -725q-15 -83 -38 -148.5t-64.5 -127.5t-99 -103t-144.5 -65.5t-198 -24.5q-105 0 -185 18.5t-130.5 54.5t-82 83 t-42.5 110.5t-9 129zM385 1260l250 282h283l149 -282h-186l-117 153l-164 -153h-215z" />
<glyph horiz-adv-x="544" d="M27 0l45 274h276l-45 -274h-276zM152 389l53 787h332l-224 -787h-161z" />
<glyph horiz-adv-x="1220" d="M10 219l31 174h129l184 1041h942l-45 -260h-637l-57 -330h504l-45 -256h-504l-35 -195h334l-29 -174h-336l-38 -219h-308l39 219h-129z" />
<glyph horiz-adv-x="1093" d="M0 168l27 158h112l150 850h833l-43 -240h-551l-39 -234h433l-41 -231h-435l-24 -145h291l-29 -158h-291l-28 -168h-283l29 168h-111z" />
<glyph horiz-adv-x="792" d="M-82 -184l21 114h81l111 623h606l-32 -176h-396l-30 -168h311l-31 -174h-309l-19 -105h211l-20 -114h-211l-23 -123h-208l22 123h-84z" />
<glyph horiz-adv-x="792" d="M111 911l20 115h82l111 623h606l-33 -176h-395l-31 -168h311l-30 -175h-310l-18 -104h211l-21 -115h-211l-22 -123h-209l21 123h-82z" />
<glyph horiz-adv-x="540" d="M27 664q46 14 72.5 25.5t45 23.5t28.5 32.5t15.5 40.5t12.5 60l78 440h-82l26 148h82l4 16q20 122 68 177.5t149 55.5q117 0 234 -67l-90 -129q-69 24 -101 24q-47 0 -57 -59l-4 -18h147l-22 -148h-152l-73 -426q-27 -137 -48 -182q-34 -75 -119 -115q-62 -29 -171 -53z " />
<glyph horiz-adv-x="743" d="M-14 377l32 176h684l-30 -176h-238l-121 -684h-209l119 684h-237z" />
<glyph horiz-adv-x="1165" d="M27 0l206 1176h283l-33 -183h164q461 0 461 -344q0 -75 -26.5 -147.5t-80 -137t-148 -104t-216.5 -39.5h-289l-39 -221h-282zM389 453h197q111 0 172 50t61 136q0 119 -178 119h-197z" />
<glyph horiz-adv-x="1009" d="M86 -330l84 146q46 -25 88 -25q44 0 72 22.5t28 73.5q0 48 -26 113h-78l164 936h-328l41 240h942l-43 -240h-330l-163 -936h-78q14 -19 29.5 -62.5t15.5 -95.5q0 -105 -68 -161t-174 -56t-176 45z" />
<glyph horiz-adv-x="1009" d="M90 936l41 240h942l-43 -240h-330l-163 -936h-283l164 936h-328zM322 1542h188l115 -151l166 151h215l-250 -282h-283z" />
<glyph horiz-adv-x="1024" d="M98 936l41 240h942l-43 -240h-329l-76 -430h149l-26 -156h-150l-61 -350h-283l62 350h-150l29 156h147l76 430h-328z" />
<glyph horiz-adv-x="876" d="M-78 -307l101 569q14 76 39.5 133.5t69.5 103.5t112.5 69.5t161.5 23.5q158 0 236.5 -64.5t78.5 -154.5q0 -42 -17 -78t-34 -51l-17 -15q-84 -19 -109 -45q-16 -17 -16 -37q0 -21 17 -35.5t51 -34.5t55 -40q72 -66 72 -148q0 -90 -73 -150.5t-189 -60.5q-128 0 -264 80 l86 123q104 -53 161 -53q34 0 54 15t20 40q0 31 -49 58q-2 1 -23 12.5t-31 18t-29 23t-29 32t-18.5 40t-8.5 52.5q0 35 12.5 65t30.5 51t46 40t51.5 30t53.5 23q4 10 4 26q0 39 -31 61.5t-91 22.5q-77 0 -121 -43.5t-64 -148.5l-96 -553h-203z" />
<glyph horiz-adv-x="913" d="M125 788l100 570q14 76 39.5 133.5t69.5 103.5t112.5 69.5t161.5 23.5q158 0 237 -65t79 -155q0 -42 -17 -77.5t-34 -50.5l-17 -15q-84 -19 -109 -45q-16 -17 -16 -37q0 -21 17 -35.5t51 -34.5t55 -40q72 -66 72 -148q0 -90 -73 -150.5t-189 -60.5q-129 0 -265 80l86 123 q104 -53 162 -53q34 0 54 15t20 40q0 30 -49 57q-3 2 -23.5 13t-31 17.5t-29.5 23t-29 32t-18.5 40t-8.5 52.5q0 43 17.5 78.5t49 60t60.5 40t68 30.5q4 10 4 27q0 39 -31.5 61.5t-91.5 22.5q-77 0 -120.5 -44t-63.5 -149l-96 -553h-203z" />
<glyph horiz-adv-x="804" d="M-111 -518l64 156q152 -50 256 -50q121 0 139 105l12 71q-107 -86 -221 -86q-81 0 -136.5 59t-55.5 185q0 189 86 309.5t221 120.5q44 0 85.5 -15.5t62.5 -30t49 -38.5l12 70h203l-113 -637q-28 -154 -104 -212t-220 -58q-169 0 -340 51zM156 -57q0 -103 73 -103 q68 0 158 82l37 197q-56 71 -121 71q-67 0 -107 -73t-40 -174z" />
<glyph horiz-adv-x="1009" d="M90 936l41 240h942l-43 -240h-330l-163 -936h-283l164 936h-328z" />
<glyph horiz-adv-x="823" d="M104 909l109 142q174 -103 289 -103q49 0 82.5 22.5t33.5 59.5q0 23 -22.5 41t-51.5 28.5t-78.5 27t-80.5 30.5q-80 36 -128 91t-48 143q0 117 87 194.5t241 77.5q166 0 374 -115l-110 -139q-58 31 -131 55.5t-127 24.5q-46 0 -77.5 -21t-31.5 -59q0 -27 27.5 -43t93 -37 t107.5 -41q83 -38 132.5 -91.5t49.5 -143.5q0 -120 -91 -199.5t-245 -79.5q-111 0 -218 40t-186 95z" />
<glyph horiz-adv-x="1236" d="M88 377.5q2 65.5 16 146.5l115 652h283l-125 -713q-11 -51 -8.5 -94.5t17.5 -76t55 -51t102 -18.5q120 0 179.5 63.5t78.5 176.5l127 713h280l-127 -725q-15 -83 -38 -148.5t-64.5 -127.5t-99 -103t-144.5 -65.5t-198 -24.5q-105 0 -185 18.5t-130.5 54.5t-82 83 t-42.5 110.5t-9 129zM432 1280l41 246h242l-43 -246h-240zM791 1280l43 246h239l-43 -246h-239z" />
<glyph horiz-adv-x="819" d="M92 578l64 155q149 -49 256 -49q121 0 139 104l12 72q-107 -86 -221 -86q-81 0 -136.5 59t-55.5 185q0 189 86 309.5t221 120.5q44 0 85.5 -15.5t62 -30t48.5 -38.5l13 70h202l-112 -637q-28 -155 -104 -213t-220 -58q-166 0 -340 52zM358 1038q0 -102 74 -102 q68 0 158 82l37 196q-57 72 -121 72q-67 0 -107.5 -73.5t-40.5 -174.5z" />
<glyph horiz-adv-x="825" d="M-88 -186l108 141q172 -102 289 -102q49 0 83 22t34 59q0 23 -22.5 41t-51.5 28.5t-78.5 27t-80.5 30.5q-80 37 -128.5 91.5t-48.5 142.5q0 117 87 194.5t241 77.5q169 0 375 -114l-111 -140q-58 31 -131 55.5t-127 24.5q-45 0 -76.5 -21t-31.5 -59q0 -27 27.5 -43 t92.5 -36.5t107 -40.5q83 -38 132.5 -92t49.5 -144q0 -120 -91 -199.5t-245 -79.5q-111 0 -217 40t-186 96z" />
<glyph horiz-adv-x="1112" d="M-20 164l149 190q248 -139 397 -139q70 0 118 30.5t48 84.5q0 32 -30.5 56.5t-70 38.5t-107.5 38t-115 47q-42 19 -74 37.5t-65 46.5t-54.5 59t-35 74.5t-13.5 93.5q0 161 120.5 267t330.5 106q241 0 514 -156l-152 -188q-77 43 -174.5 77t-179.5 34q-65 0 -109.5 -29 t-44.5 -82q0 -30 27.5 -52t64 -34.5t103 -35.5t114.5 -46q52 -23 91.5 -47.5t80 -62.5t62.5 -92t22 -120q0 -163 -127.5 -270.5t-341.5 -107.5q-151 0 -294.5 53.5t-253.5 128.5zM242 -532l135 170h-98l40 245h220l-33 -270l-217 -219z" />
<glyph horiz-adv-x="1236" d="M88 377.5q2 65.5 16 146.5l115 652h283l-125 -713q-11 -51 -8.5 -94.5t17.5 -76t55 -51t102 -18.5q120 0 179.5 63.5t78.5 176.5l127 713h280l-127 -725q-15 -83 -38 -148.5t-64.5 -127.5t-99 -103t-144.5 -65.5t-198 -24.5q-105 0 -185 18.5t-130.5 54.5t-82 83 t-42.5 110.5t-9 129zM420 1542h313l191 -282h-228z" />
<glyph horiz-adv-x="1236" d="M88 377.5q2 65.5 16 146.5l115 652h283l-125 -713q-11 -51 -8.5 -94.5t17.5 -76t55 -51t102 -18.5q120 0 179.5 63.5t78.5 176.5l127 713h280l-127 -725q-15 -83 -38 -148.5t-64.5 -127.5t-99 -103t-144.5 -65.5t-198 -24.5q-105 0 -185 18.5t-130.5 54.5t-82 83 t-42.5 110.5t-9 129zM436 1260l197 282h270l-291 -282h-176zM778 1260l197 282h268l-289 -282h-176z" />
<glyph horiz-adv-x="1112" d="M-20 164l149 190q248 -139 397 -139q70 0 118 30.5t48 84.5q0 32 -30.5 56.5t-70 38.5t-107.5 38t-115 47q-42 19 -74 37.5t-65 46.5t-54.5 59t-35 74.5t-13.5 93.5q0 161 120.5 267t330.5 106q241 0 514 -156l-152 -188q-77 43 -174.5 77t-179.5 34q-65 0 -109.5 -29 t-44.5 -82q0 -30 27.5 -52t64 -34.5t103 -35.5t114.5 -46q52 -23 91.5 -47.5t80 -62.5t62.5 -92t22 -120q0 -163 -127.5 -270.5t-341.5 -107.5q-151 0 -294.5 53.5t-253.5 128.5zM328 1260l250 282h282l150 -282h-187l-116 153l-164 -153h-215z" />
<glyph horiz-adv-x="1112" d="M-20 164l149 190q248 -139 397 -139q70 0 118 30.5t48 84.5q0 32 -30.5 56.5t-70 38.5t-107.5 38t-115 47q-42 19 -74 37.5t-65 46.5t-54.5 59t-35 74.5t-13.5 93.5q0 161 120.5 267t330.5 106q241 0 514 -156l-152 -188q-77 43 -174.5 77t-179.5 34q-65 0 -109.5 -29 t-44.5 -82q0 -30 27.5 -52t64 -34.5t103 -35.5t114.5 -46q52 -23 91.5 -47.5t80 -62.5t62.5 -92t22 -120q0 -154 -115.5 -260t-312.5 -116q35 -73 35 -142q0 -105 -68 -161t-174 -56t-176 45l84 146q46 -25 88 -25q44 0 72.5 22.5t28.5 73.5q0 35 -23 101 q-128 14 -247.5 63.5t-208.5 112.5z" />
<glyph horiz-adv-x="784" d="M-61 -307l157 895h203l-57 -320q127 84 231 84q103 0 145 -62t23 -169l-76 -428h-203l72 405q7 47 -3 72t-48 25t-85.5 -23t-80.5 -53l-76 -426h-202z" />
<glyph horiz-adv-x="1112" d="M-20 164l149 190q248 -139 397 -139q70 0 118 30.5t48 84.5q0 32 -30.5 56.5t-70 38.5t-107.5 38t-115 47q-42 19 -74 37.5t-65 46.5t-54.5 59t-35 74.5t-13.5 93.5q0 161 120.5 267t330.5 106q241 0 514 -156l-152 -188q-77 43 -174.5 77t-179.5 34q-65 0 -109.5 -29 t-44.5 -82q0 -30 27.5 -52t64 -34.5t103 -35.5t114.5 -46q52 -23 91.5 -47.5t80 -62.5t62.5 -92t22 -120q0 -163 -127.5 -270.5t-341.5 -107.5q-151 0 -294.5 53.5t-253.5 128.5zM375 1542h188l115 -151l166 151h215l-250 -282h-283z" />
<glyph horiz-adv-x="923" d="M-8 -28.5q2 48.5 12 106.5l84 475h209l-92 -522q-14 -82 10 -127t109 -45q86 0 126 45.5t54 126.5l92 522h211l-94 -530q-13 -77 -37.5 -135t-68.5 -108t-116.5 -76t-171.5 -26q-77 0 -135.5 14t-95 41t-59.5 62t-31 81.5t-6 95z" />
<glyph horiz-adv-x="1114" d="M-20 164l149 190q248 -139 397 -139q70 0 118 30.5t48 84.5q0 32 -30.5 56.5t-70 38.5t-107.5 38t-115 47q-42 19 -74 37.5t-65 46.5t-54.5 59t-35 74.5t-13.5 93.5q0 161 120.5 267t330.5 106q241 0 514 -156l-152 -188q-77 43 -174.5 77t-179.5 34q-65 0 -109.5 -29 t-44.5 -82q0 -30 27.5 -52t64 -34.5t103 -35.5t114.5 -46q52 -23 91.5 -47.5t80 -62.5t62.5 -92t22 -120q0 -163 -127.5 -270.5t-341.5 -107.5q-151 0 -294.5 53.5t-253.5 128.5zM463 1260l280 282h349l-373 -282h-256z" />
<glyph horiz-adv-x="1112" d="M-20 164l149 190q248 -139 397 -139q70 0 118 30.5t48 84.5q0 32 -30.5 56.5t-70 38.5t-107.5 38t-115 47q-42 19 -74 37.5t-65 46.5t-54.5 59t-35 74.5t-13.5 93.5q0 161 120.5 267t330.5 106q241 0 514 -156l-152 -188q-77 43 -174.5 77t-179.5 34q-65 0 -109.5 -29 t-44.5 -82q0 -30 27.5 -52t64 -34.5t103 -35.5t114.5 -46q52 -23 91.5 -47.5t80 -62.5t62.5 -92t22 -120q0 -163 -127.5 -270.5t-341.5 -107.5q-151 0 -294.5 53.5t-253.5 128.5z" />
<glyph horiz-adv-x="911" d="M147 788l152 861h360q162 0 245 -64t83 -184q0 -105 -68 -185.5t-192 -99.5l150 -328h-220l-129 324h-114l-58 -324h-209zM442 1276h166q77 0 120.5 32.5t43.5 92.5q0 48 -32 66t-95 18h-166z" />
<glyph horiz-adv-x="913" d="M-45 -307l151 860h361q162 0 245 -64t83 -184q0 -105 -68 -185.5t-192 -99.5l149 -327h-219l-129 323h-115l-57 -323h-209zM250 180h166q77 0 120.5 32.5t43.5 92.5q0 48 -32 66t-95 18h-166z" />
<glyph horiz-adv-x="1218" d="M27 0l206 1176h496q451 0 451 -328q0 -63 -21.5 -125t-63 -117.5t-112.5 -96.5t-162 -56l207 -453h-295l-180 444h-166l-78 -444h-282zM287 -532l135 170h-98l41 245h219l-33 -270l-217 -219zM426 664h233q108 0 169 46.5t61 131.5q0 114 -184 114h-226z" />
<glyph horiz-adv-x="1218" d="M27 0l206 1176h496q451 0 451 -328q0 -63 -21.5 -125t-63 -117.5t-112.5 -96.5t-162 -56l207 -453h-295l-180 444h-166l-78 -444h-282zM426 664h233q108 0 169 46.5t61 131.5q0 114 -184 114h-226zM457 1542h188l115 -151l166 151h215l-250 -282h-283z" />
<glyph horiz-adv-x="1218" d="M27 0l206 1176h496q451 0 451 -328q0 -63 -21.5 -125t-63 -117.5t-112.5 -96.5t-162 -56l207 -453h-295l-180 444h-166l-78 -444h-282zM426 664h233q108 0 169 46.5t61 131.5q0 114 -184 114h-226zM541 1260l280 282h348l-372 -282h-256z" />
<glyph horiz-adv-x="405" d="M-61 -307l114 645h203l-115 -645h-202zM63 420l29 166h209l-29 -166h-209z" />
<glyph horiz-adv-x="1218" d="M27 0l206 1176h496q451 0 451 -328q0 -63 -21.5 -125t-63 -117.5t-112.5 -96.5t-162 -56l207 -453h-295l-180 444h-166l-78 -444h-282zM426 664h233q108 0 169 46.5t61 131.5q0 114 -184 114h-226z" />
<glyph horiz-adv-x="970" d="M168 1133q0 102 28 194t82.5 168.5t146 122t208.5 45.5q187 0 285 -93.5t98 -258.5q0 -106 -27.5 -201.5t-90.5 -176t-153 -120.5l115 -111l-147 -129l-170 201q-183 1 -279 97t-96 262zM385 1147q0 -95 36.5 -144t135.5 -49q62 0 111 34.5t76.5 87.5t42 108.5 t14.5 105.5q0 94 -38.5 143.5t-135.5 49.5q-62 0 -111.5 -34.5t-76.5 -87.5t-40.5 -108t-13.5 -106z" />
<glyph horiz-adv-x="1236" d="M88 377.5q2 65.5 16 146.5l115 652h283l-125 -713q-11 -51 -8.5 -94.5t17.5 -76t55 -51t102 -18.5q120 0 179.5 63.5t78.5 176.5l127 713h280l-127 -725q-15 -83 -38 -148.5t-64.5 -127.5t-99 -103t-144.5 -65.5t-198 -24.5q-105 0 -185 18.5t-130.5 54.5t-82 83 t-42.5 110.5t-9 129zM444 1311l31 174h584l-31 -174h-584z" />
<glyph horiz-adv-x="1236" d="M85 355.5q1 74.5 17 168.5l115 652h283l-125 -713q-11 -51 -8.5 -94.5t17.5 -76t55 -51t102 -18.5q120 0 179.5 63.5t78.5 176.5l127 713h280l-127 -725q-12 -69 -30 -125t-48 -111.5t-69.5 -96.5t-98 -73t-131.5 -47q-95 -54 -150.5 -104t-55.5 -99q0 -14 4.5 -24 t15 -16t18.5 -10t25 -5.5t24 -2t25.5 0t20.5 0.5l-51 -135h-13q-16 1 -37.5 0t-46.5 2.5t-50 8.5t-48 17t-41 28t-28.5 42.5t-10.5 60.5q0 126 184 222q-113 5 -193 35t-124.5 76.5t-65 116t-19.5 144z" />
<glyph horiz-adv-x="970" d="M-27 37q0 102 28 194t82.5 168.5t146 122t208.5 45.5q187 0 285 -93.5t98 -258.5q0 -106 -27.5 -201.5t-90 -176t-152.5 -120.5l115 -110l-148 -129l-170 200q-183 1 -279 97t-96 262zM190 51q0 -95 36.5 -143.5t135.5 -48.5q62 0 111 34.5t76.5 87.5t42 108.5 t14.5 105.5q0 94 -38.5 143t-135.5 49q-62 0 -111.5 -34.5t-76.5 -87.5t-40.5 -108t-13.5 -106z" />
<glyph horiz-adv-x="724" d="M-53 -43q0 173 102 284t279 111q119 0 188.5 -52t69.5 -146q0 -49 -20.5 -86t-54 -59t-83 -35.5t-100 -18t-113.5 -4.5h-72q8 -123 107 -123q75 0 231 72l60 -138q-33 -16 -76 -32.5t-117 -34t-137 -17.5q-264 0 -264 279zM152 55h69q174 0 174 92q0 28 -20 45t-60 17 q-63 0 -105 -42t-58 -112z" />
<glyph horiz-adv-x="1312" d="M70 475q0 109 23 211.5t73 195.5t123 162t180 109.5t236 40.5q261 0 395.5 -129.5t134.5 -357.5q0 -145 -38.5 -274.5t-124.5 -237.5t-210 -162l158 -152l-199 -174l-237 275q-254 4 -384 135t-130 358zM360 489q0 -49 6 -87t23 -73t44.5 -58t72 -36.5t104.5 -13.5 q71 0 130.5 33t96.5 83.5t62.5 114.5t36 122.5t10.5 111.5q0 49 -6 87t-23 73t-44.5 58t-72 36.5t-104.5 13.5q-71 0 -130.5 -33t-96.5 -83.5t-62.5 -114.5t-36 -122.5t-10.5 -111.5z" />
<glyph horiz-adv-x="864" d="M147 788l152 861h330q163 0 247.5 -64.5t84.5 -185.5q0 -132 -91 -224t-254 -92h-206l-54 -295h-209zM438 1255h140q74 0 119.5 33.5t45.5 97.5q0 51 -32 70t-95 19h-139z" />
<glyph horiz-adv-x="866" d="M-45 -307l151 860h330q163 0 247.5 -64.5t84.5 -185.5q0 -132 -90.5 -223.5t-253.5 -91.5h-207l-53 -295h-209zM246 160h139q74 0 120 33.5t46 97.5q0 51 -32 69.5t-95 18.5h-139z" />
<glyph horiz-adv-x="407" d="M-223 -436q74 24 106 41.5t43 37t19 62.5l110 633h203l-108 -617q-6 -35 -9 -50t-9.5 -42.5t-12 -40t-16 -33.5t-22.5 -31.5t-29.5 -26.5t-39.5 -25.5t-50.5 -21.5t-63.5 -21.5t-78 -18.5zM66 420l30 166h209l-29 -166h-210z" />
<glyph horiz-adv-x="1308" d="M53 352q0 286 371 439q-158 118 -158 284q0 169 135.5 275t368.5 106q212 0 330.5 -90t118.5 -238q0 -222 -281 -362q51 -29 89.5 -60t73.5 -73.5t54 -98t19 -120.5q0 -196 -165 -316.5t-440 -120.5q-245 0 -380.5 99t-135.5 276zM367 383q0 -79 56 -125.5t155 -46.5 q119 0 201.5 62.5t82.5 156.5q0 131 -192 229q-64 -23 -112 -46t-94.5 -56t-71.5 -77t-25 -97zM561 1047q0 -101 129 -164q49 17 86 35t70.5 43t51 58.5t17.5 74.5q0 59 -41 98t-114 39q-84 0 -141.5 -55.5t-57.5 -128.5z" />
<glyph horiz-adv-x="1165" d="M27 0l206 1176h443q465 0 465 -347q0 -59 -16 -116.5t-53 -113.5t-90.5 -98.5t-135.5 -68.5t-182 -26h-283l-72 -406h-282zM422 637h194q111 0 171.5 49.5t60.5 134.5q0 121 -176 121h-197z" />
<glyph horiz-adv-x="1312" d="M70 475q0 109 23 211.5t73 195.5t123 162t180 109.5t236 40.5q261 0 395.5 -129.5t134.5 -357.5q0 -111 -22.5 -214t-72.5 -196.5t-122.5 -163t-179.5 -110.5t-236 -41q-262 0 -397 131.5t-135 361.5zM360 489q0 -49 6 -87t23 -73t44.5 -58t72 -36.5t104.5 -13.5 q71 0 130.5 33t96.5 83.5t62.5 114.5t36 122.5t10.5 111.5q0 49 -6 87t-23 73t-44.5 58t-72 36.5t-104.5 13.5q-71 0 -130.5 -33t-96.5 -83.5t-62.5 -114.5t-36 -122.5t-10.5 -111.5zM438 1352q29 43 42.5 62t40 50t46.5 44.5t49.5 24.5t61.5 11q44 0 91 -24.5t86.5 -49 t64.5 -24.5q49 0 116 96l121 -80q-26 -39 -36.5 -53.5t-33 -44t-37.5 -41.5t-37.5 -28t-46 -21.5t-51.5 -5.5q-44 0 -90 24.5t-85.5 49t-65.5 24.5q-47 0 -117 -96z" />
<glyph horiz-adv-x="968" d="M166 1133q0 102 28 194t82.5 168.5t146 122t208.5 45.5q187 0 285 -93.5t98 -258.5q0 -103 -27.5 -196.5t-82 -171t-146 -123.5t-209.5 -46q-187 0 -285 95.5t-98 263.5zM383 1147q0 -95 36.5 -144t135.5 -49q62 0 111 34.5t76.5 87.5t42 108.5t14.5 105.5 q0 94 -38.5 143.5t-135.5 49.5q-62 0 -111.5 -34.5t-76.5 -87.5t-40.5 -108t-13.5 -106z" />
<glyph horiz-adv-x="735" d="M-61 -307l157 895h203l-82 -465l193 215h249l-266 -264l187 -381h-205l-115 250l-92 -90l-27 -160h-202z" />
<glyph horiz-adv-x="776" d="M131 788l158 895h203l-82 -464l192 215h250l-266 -265l186 -381h-205l-114 250l-93 -92l-26 -158h-203z" />
<glyph horiz-adv-x="1312" d="M-2 0l158 166q-88 122 -88 309q0 109 23 211.5t73 195.5t122.5 162t179.5 109.5t236 40.5q207 0 338 -86l64 68h194l-153 -164q88 -124 88 -305q0 -111 -22.5 -214t-72.5 -196.5t-122.5 -163t-179.5 -110.5t-236 -41q-211 0 -344 88l-66 -70h-192zM358 489q0 -54 9 -98 l489 522q-61 41 -162 41q-71 0 -130.5 -33t-96.5 -83.5t-62.5 -114.5t-36 -122.5t-10.5 -111.5zM440 264q59 -43 168 -43q71 0 130.5 33t96.5 83.5t62.5 114.5t36 122.5t10.5 111.5q0 63 -10 102zM559 1260l281 282h348l-373 -282h-256z" />
<glyph horiz-adv-x="1269" d="M35 352q0 286 371 439q-158 118 -158 284q0 169 135.5 275t368.5 106q212 0 330 -90t118 -238q0 -222 -280 -362q107 -61 171 -144.5t64 -207.5q0 -196 -164.5 -316.5t-439.5 -120.5q-245 0 -380.5 99t-135.5 276zM348 383q0 -79 56 -125.5t155 -46.5q119 0 202 62.5 t83 156.5q0 130 -193 229q-64 -23 -112 -46t-94.5 -56t-71.5 -77t-25 -97zM543 1047q0 -101 129 -164q49 17 86 35t70.5 43t51 58.5t17.5 74.5q0 58 -41.5 97.5t-114.5 39.5q-84 0 -141 -55.5t-57 -128.5z" />
<glyph horiz-adv-x="1312" d="M70 475q0 109 23 211.5t73 195.5t123 162t180 109.5t236 40.5q261 0 395.5 -129.5t134.5 -357.5q0 -111 -22.5 -214t-72.5 -196.5t-122.5 -163t-179.5 -110.5t-236 -41q-262 0 -397 131.5t-135 361.5zM360 489q0 -49 6 -87t23 -73t44.5 -58t72 -36.5t104.5 -13.5 q71 0 130.5 33t96.5 83.5t62.5 114.5t36 122.5t10.5 111.5q0 49 -6 87t-23 73t-44.5 58t-72 36.5t-104.5 13.5q-71 0 -130.5 -33t-96.5 -83.5t-62.5 -114.5t-36 -122.5t-10.5 -111.5zM487 1311l31 174h584l-31 -174h-584z" />
<glyph horiz-adv-x="968" d="M-27 39q0 102 28 194t82.5 168.5t146 122t208.5 45.5q187 0 285 -93.5t98 -258.5q0 -103 -27.5 -196.5t-82 -170.5t-146 -123t-209.5 -46q-187 0 -285 95t-98 263zM190 53q0 -95 36.5 -143.5t135.5 -48.5q62 0 111 34.5t76.5 87.5t42 108.5t14.5 105.5q0 94 -38.5 143 t-135.5 49q-62 0 -111.5 -34.5t-76.5 -87.5t-40.5 -108t-13.5 -106z" />
<glyph horiz-adv-x="1314" d="M70 475q0 109 23 211.5t73 195.5t123 162t180 109.5t236 40.5q261 0 395.5 -129.5t134.5 -357.5q0 -111 -22.5 -214t-72.5 -196.5t-122.5 -163t-179.5 -110.5t-236 -41q-262 0 -397 131.5t-135 361.5zM360 489q0 -49 6 -87t23 -73t44.5 -58t72 -36.5t104.5 -13.5 q71 0 130.5 33t96.5 83.5t62.5 114.5t36 122.5t10.5 111.5q0 49 -6 87t-23 73t-44.5 58t-72 36.5t-104.5 13.5q-71 0 -130.5 -33t-96.5 -83.5t-62.5 -114.5t-36 -122.5t-10.5 -111.5zM483 1260l197 282h270l-291 -282h-176zM825 1260l197 282h268l-289 -282h-176z" />
<glyph horiz-adv-x="1312" d="M70 475q0 109 23 211.5t73 195.5t123 162t180 109.5t236 40.5q261 0 395.5 -129.5t134.5 -357.5q0 -111 -22.5 -214t-72.5 -196.5t-122.5 -163t-179.5 -110.5t-236 -41q-262 0 -397 131.5t-135 361.5zM360 489q0 -49 6 -87t23 -73t44.5 -58t72 -36.5t104.5 -13.5 q71 0 130.5 33t96.5 83.5t62.5 114.5t36 122.5t10.5 111.5q0 49 -6 87t-23 73t-44.5 58t-72 36.5t-104.5 13.5q-71 0 -130.5 -33t-96.5 -83.5t-62.5 -114.5t-36 -122.5t-10.5 -111.5zM463 1542h313l191 -282h-228z" />
<glyph horiz-adv-x="833" d="M90 791q0 165 227 260q-96 71 -96 170q0 100 85 163.5t235 63.5q139 0 216 -56t77 -145q0 -126 -166 -213q143 -80 143 -211q0 -118 -103.5 -191t-279.5 -73q-162 0 -250 61.5t-88 170.5zM303 811q0 -44 34.5 -68t96.5 -24q69 0 116.5 30t47.5 82q0 78 -113 132 q-84 -28 -133 -63t-49 -89zM424 1200q0 -54 70 -90q32 11 51 19t41 21t32.5 30t10.5 39q0 34 -25.5 54.5t-66.5 20.5q-49 0 -81 -27t-32 -67z" />
<glyph horiz-adv-x="401" d="M-61 -307l157 895h203l-158 -895h-202z" />
<glyph horiz-adv-x="835" d="M-10 217q0 165 227 260q-96 71 -96 170q0 100 84.5 163.5t234.5 63.5q139 0 216 -55.5t77 -144.5q0 -126 -166 -213q144 -81 144 -211q0 -118 -103.5 -191t-279.5 -73q-162 0 -250 61.5t-88 169.5zM203 238q0 -44 34.5 -68.5t96.5 -24.5q69 0 116.5 30.5t47.5 82.5 q0 77 -113 131q-85 -29 -133.5 -63t-48.5 -88zM324 627q0 -55 69 -90q44 15 67.5 25t45.5 32t22 51q0 34 -25.5 55t-66.5 21q-49 0 -80.5 -27t-31.5 -67z" />
<glyph horiz-adv-x="1019" d="M-2 0l33 188q6 2 16.5 6t40 19.5t56 33.5t56.5 48.5t48 64.5h-168l20 125h176q-3 36 -12 74h-151l22 125h86q-35 99 -35 176q0 153 100 243.5t277 90.5q225 0 449 -174l-140 -164q-153 105 -260 105q-70 0 -108.5 -37t-38.5 -95q0 -11 1 -21t4 -22t4.5 -19t7 -22t7 -19 t9 -22t8.5 -20h315l-22 -125h-258q4 -28 4 -45q0 -21 -2 -29h243l-22 -125h-258q-47 -87 -113 -127h455l-41 -233h-809z" />
<glyph horiz-adv-x="737" d="M-84 -307l25 141q4 1 12 4t29.5 14t40 24t39.5 35.5t34 47.5h-119l15 88h125q-4 38 -8 55h-107l14 88h64q-25 70 -25 132q0 113 73 179t200 66q71 0 140.5 -24t105 -46.5t83.5 -58.5l-104 -123q-109 78 -186 78q-49 0 -76 -26.5t-27 -65.5q0 -35 35 -111h219l-16 -88 h-176q4 -24 4 -34q0 -15 -2 -21h166l-17 -88h-180q-13 -20 -29 -37.5t-35.5 -35t-21.5 -19.5h328l-29 -174h-594z" />
<glyph horiz-adv-x="737" d="M109 788l24 142q5 1 12.5 4t29 14t40.5 24t40 35.5t34 47.5h-119l14 88h125q-4 38 -8 55h-106l14 88h63q-24 67 -24 131q0 113 72.5 179.5t199.5 66.5q71 0 141 -24t105.5 -46.5t83.5 -58.5l-105 -123q-109 78 -186 78q-49 0 -75.5 -26.5t-26.5 -65.5q0 -35 35 -111h219 l-17 -88h-176q4 -24 4 -35q0 -14 -2 -20h166l-16 -88h-181q-13 -20 -29 -37.5t-35.5 -35t-21.5 -19.5h328l-29 -175h-593z" />
<glyph horiz-adv-x="1312" d="M70 475q0 109 23 211.5t73 195.5t123 162t180 109.5t236 40.5q261 0 395.5 -129.5t134.5 -357.5q0 -111 -22.5 -214t-72.5 -196.5t-122.5 -163t-179.5 -110.5t-236 -41q-262 0 -397 131.5t-135 361.5zM360 489q0 -49 6 -87t23 -73t44.5 -58t72 -36.5t104.5 -13.5 q71 0 130.5 33t96.5 83.5t62.5 114.5t36 122.5t10.5 111.5q0 49 -6 87t-23 73t-44.5 58t-72 36.5t-104.5 13.5q-71 0 -130.5 -33t-96.5 -83.5t-62.5 -114.5t-36 -122.5t-10.5 -111.5zM477 1280l41 246h242l-43 -246h-240zM836 1280l43 246h239l-43 -246h-239z" />
<glyph horiz-adv-x="1312" d="M70 475q0 109 23 211.5t73 195.5t123 162t180 109.5t236 40.5q261 0 395.5 -129.5t134.5 -357.5q0 -111 -22.5 -214t-72.5 -196.5t-122.5 -163t-179.5 -110.5t-236 -41q-262 0 -397 131.5t-135 361.5zM360 489q0 -49 6 -87t23 -73t44.5 -58t72 -36.5t104.5 -13.5 q71 0 130.5 33t96.5 83.5t62.5 114.5t36 122.5t10.5 111.5q0 49 -6 87t-23 73t-44.5 58t-72 36.5t-104.5 13.5q-71 0 -130.5 -33t-96.5 -83.5t-62.5 -114.5t-36 -122.5t-10.5 -111.5zM432 1260l250 282h283l149 -282h-186l-117 153l-164 -153h-215z" />
<glyph horiz-adv-x="1236" d="M88 377.5q2 65.5 16 146.5l115 652h283l-125 -713q-11 -51 -8.5 -94.5t17.5 -76t55 -51t102 -18.5q120 0 179.5 63.5t78.5 176.5l127 713h280l-127 -725q-15 -83 -38 -148.5t-64.5 -127.5t-99 -103t-144.5 -65.5t-198 -24.5q-105 0 -185 18.5t-130.5 54.5t-82 83 t-42.5 110.5t-9 129zM532 1464q0 94 66 160t160 66q92 0 158.5 -66t66.5 -160q0 -93 -66 -159t-159 -66q-94 0 -160 65.5t-66 159.5zM672 1464q0 -34 25.5 -59t60.5 -25q34 0 59 25t25 59q0 35 -25 60.5t-59 25.5q-35 0 -60.5 -25.5t-25.5 -60.5z" />
<glyph horiz-adv-x="1312" d="M70 475q0 109 23 211.5t73 195.5t123 162t180 109.5t236 40.5q261 0 395.5 -129.5t134.5 -357.5q0 -111 -22.5 -214t-72.5 -196.5t-122.5 -163t-179.5 -110.5t-236 -41q-262 0 -397 131.5t-135 361.5zM360 489q0 -49 6 -87t23 -73t44.5 -58t72 -36.5t104.5 -13.5 q71 0 130.5 33t96.5 83.5t62.5 114.5t36 122.5t10.5 111.5q0 49 -6 87t-23 73t-44.5 58t-72 36.5t-104.5 13.5q-71 0 -130.5 -33t-96.5 -83.5t-62.5 -114.5t-36 -122.5t-10.5 -111.5zM502 1511h180q-6 -43 21.5 -66.5t82.5 -23.5q69 0 114.5 24t51.5 66h183 q-20 -118 -113 -184.5t-240 -66.5q-150 0 -224 69.5t-56 181.5z" />
<glyph horiz-adv-x="929" d="M191 1067.5q2 48.5 12 106.5l84 475h209l-93 -523q-14 -82 10 -127t109 -45q86 0 126 45.5t54 126.5l93 523h211l-95 -531q-13 -77 -37.5 -135t-68 -107.5t-116 -75.5t-171.5 -26q-77 0 -135.5 14t-95 41t-59.5 62t-31 81.5t-6 95z" />
<glyph horiz-adv-x="1312" d="M70 475q0 109 23 211.5t73 195.5t123 162t180 109.5t236 40.5q261 0 395.5 -129.5t134.5 -357.5q0 -111 -22.5 -214t-72.5 -196.5t-122.5 -163t-179.5 -110.5t-236 -41q-262 0 -397 131.5t-135 361.5zM360 489q0 -49 6 -87t23 -73t44.5 -58t72 -36.5t104.5 -13.5 q71 0 130.5 33t96.5 83.5t62.5 114.5t36 122.5t10.5 111.5q0 49 -6 87t-23 73t-44.5 58t-72 36.5t-104.5 13.5q-71 0 -130.5 -33t-96.5 -83.5t-62.5 -114.5t-36 -122.5t-10.5 -111.5zM565 1260l281 282h348l-373 -282h-256z" />
<glyph horiz-adv-x="1873" d="M70 475q0 109 23 211.5t73 195.5t123 162t180 109.5t236 40.5q207 0 335 -84l13 66h833l-43 -240h-551l-39 -231h449l-41 -234h-449l-41 -231h555l-40 -240h-840l4 27q-112 -45 -248 -45q-262 0 -397 131.5t-135 361.5zM360 489q0 -49 6 -87t23 -73t44.5 -58t72 -36.5 t104.5 -13.5q71 0 130.5 33t96.5 83.5t62.5 114.5t36 122.5t10.5 111.5q0 49 -6 87t-23 73t-44.5 58t-72 36.5t-104.5 13.5q-71 0 -130.5 -33t-96.5 -83.5t-62.5 -114.5t-36 -122.5t-10.5 -111.5z" />
<glyph horiz-adv-x="1157" d="M-70 -307l115 645h203l-15 -76q108 90 207 90q138 0 164 -112q41 41 105.5 76.5t124.5 35.5q100 0 141 -60t22 -165l-75 -434h-201l72 405q18 97 -48 97q-33 0 -72.5 -23.5t-70.5 -56.5l-76 -422h-200l71 405q10 41 0 69t-47 28q-63 0 -141 -78l-76 -424h-203z" />
<glyph horiz-adv-x="1236" d="M88 377.5q2 65.5 16 146.5l115 652h283l-125 -713q-11 -51 -8.5 -94.5t17.5 -76t55 -51t102 -18.5q120 0 179.5 63.5t78.5 176.5l127 713h280l-127 -725q-15 -83 -38 -148.5t-64.5 -127.5t-99 -103t-144.5 -65.5t-198 -24.5q-105 0 -185 18.5t-130.5 54.5t-82 83 t-42.5 110.5t-9 129zM395 1352q29 43 42.5 62t40 50t46.5 44.5t49.5 24.5t61.5 11q44 0 91 -24.5t86.5 -49t64.5 -24.5q49 0 116 96l121 -80q-26 -39 -36.5 -53.5t-33 -44t-37.5 -41.5t-37.5 -28t-46 -21.5t-51.5 -5.5q-44 0 -90 24.5t-85 49t-66 24.5q-47 0 -117 -96z" />
<glyph horiz-adv-x="1214" d="M121 1176h311l107 -863l399 863h346l-631 -1176h-313z" />
<glyph horiz-adv-x="1312" d="M70 475q0 109 23 211.5t73 195.5t123 162t180 109.5t236 40.5q261 0 395.5 -129.5t134.5 -357.5q0 -111 -22.5 -214t-72.5 -196.5t-122.5 -163t-179.5 -110.5t-236 -41q-262 0 -397 131.5t-135 361.5zM360 489q0 -49 6 -87t23 -73t44.5 -58t72 -36.5t104.5 -13.5 q71 0 130.5 33t96.5 83.5t62.5 114.5t36 122.5t10.5 111.5q0 49 -6 87t-23 73t-44.5 58t-72 36.5t-104.5 13.5q-71 0 -130.5 -33t-96.5 -83.5t-62.5 -114.5t-36 -122.5t-10.5 -111.5z" />
<glyph horiz-adv-x="1280" d="M27 0l206 1176h285l305 -768l135 768h283l-207 -1176h-282l-310 772l-133 -772h-282zM430 1352q29 43 42.5 62t40 50t46.5 44.5t49.5 24.5t61.5 11q44 0 90.5 -24.5t86 -49t64.5 -24.5q50 0 117 96l121 -80q-26 -39 -36.5 -53.5t-33 -44t-37.5 -41.5t-37.5 -28t-46 -21.5 t-51.5 -5.5q-43 0 -89.5 24.5t-85.5 49t-66 24.5q-47 0 -117 -96z" />
<glyph horiz-adv-x="968" d="M147 788l152 861h211l215 -547l96 547h211l-151 -861h-213l-215 549l-97 -549h-209z" />
<glyph horiz-adv-x="968" d="M-45 -307l151 860h211l215 -547l97 547h211l-152 -860h-213l-215 549l-96 -549h-209z" />
<glyph horiz-adv-x="1280" d="M27 0l206 1176h285l305 -768l135 768h283l-207 -1176h-282l-310 772l-133 -772h-282zM326 -532l135 170h-99l41 245h220l-33 -270l-217 -219z" />
<glyph horiz-adv-x="1280" d="M27 0l206 1176h285l305 -768l135 768h283l-207 -1176h-282l-310 772l-133 -772h-282zM471 1542h188l115 -151l166 151h215l-250 -282h-282z" />
<glyph horiz-adv-x="1280" d="M27 0l206 1176h285l305 -768l135 768h283l-207 -1176h-282l-310 772l-133 -772h-282zM614 1260l281 282h348l-373 -282h-256z" />
<glyph horiz-adv-x="1280" d="M27 0l206 1176h285l305 -768l135 768h283l-207 -1176h-282l-310 772l-133 -772h-282z" />
<glyph horiz-adv-x="815" d="M2 10l72 154q35 -8 80 -8q106 0 195 50.5t134 151.5q-71 -55 -178 -55q-118 0 -189 71t-71 183q0 133 92.5 225t253.5 92t250.5 -96t89.5 -237q0 -114 -42.5 -216t-116.5 -177t-181.5 -118.5t-230.5 -43.5q-46 0 -85.5 6t-56.5 12zM254 565q0 -46 29.5 -76t89.5 -30 q46 0 86 22.5t63 50.5v21q0 66 -33 109t-94 43q-68 0 -104.5 -41.5t-36.5 -98.5z" />
<glyph horiz-adv-x="866" d="M-2 553h231l72 -627l287 627h258l-461 -860h-231z" />
<glyph horiz-adv-x="1224" d="M-4 -246l113 223q50 -12 122 -12q115 0 219.5 42.5t191.5 132t136 214.5q-119 -106 -299 -106q-185 0 -295 116t-110 295q0 104 36.5 200t104 171t172.5 119.5t231 44.5t227.5 -44t165 -118.5t97 -170t33.5 -202.5q0 -193 -68 -366.5t-185.5 -301t-286.5 -202t-361 -74.5 q-71 0 -132 9.5t-86 19.5zM381 674q0 -83 50 -140t144 -57q81 0 154 47t105 99q2 18 2 55q0 112 -56 189t-157 77q-114 0 -178 -81t-64 -189z" />
<glyph horiz-adv-x="1308" d="M80 16l113 224q50 -13 122 -13q115 0 219.5 42.5t191.5 132t136 214.5q-119 -106 -299 -106q-185 0 -295 116.5t-110 295.5q0 104 36.5 200t104 170.5t172.5 119t231 44.5t227.5 -43.5t165 -118.5t97 -170t33.5 -202q0 -193 -68 -366.5t-185.5 -301t-286.5 -202.5 t-361 -75q-71 0 -132 9.5t-86 19.5zM465 936q0 -83 50 -140t144 -57q81 0 154 47t105 99q2 18 2 55q0 112 -56 189t-157 77q-114 0 -178 -81t-64 -189z" />
<glyph horiz-adv-x="866" d="M190 1649h232l72 -629l286 629h258l-460 -861h-232z" />
<glyph horiz-adv-x="1654" d="M135 1176h309l25 -785l324 785h233l53 -787l297 787h332l-526 -1176h-273l-59 780l-326 -780h-276z" />
<glyph horiz-adv-x="792" d="M-70 -307l115 645h203l-12 -70q127 84 229 84q103 0 145 -62t23 -169l-76 -428h-203l74 405q7 46 -4 71.5t-49 25.5q-39 0 -85.5 -23t-80.5 -53l-76 -426h-203z" />
<glyph horiz-adv-x="1654" d="M135 1176h309l25 -785l324 785h233l53 -787l297 787h332l-526 -1176h-273l-59 780l-326 -780h-276zM729 1260l281 282h348l-373 -282h-256z" />
<glyph horiz-adv-x="1153" d="M-2 164l149 190q143 -83 267 -118l43 243l-70 31q-42 19 -74 37.5t-65 46.5t-54.5 59t-35 74.5t-13.5 93.5q0 76 29.5 143t84 117.5t138.5 80.5t187 32l26 152h195l-31 -172q153 -34 336 -136l-152 -188q-107 61 -225 92l-41 -231l68 -29q52 -23 91.5 -47.5t80 -62.5 t62.5 -92t22 -120q0 -159 -122.5 -265.5t-328.5 -112.5l-26 -150h-195l29 168q-196 42 -375 164zM451 850q0 -45 59 -74l31 176q-41 -11 -65.5 -37t-24.5 -65zM606 221q47 11 76 39.5t29 69.5q0 49 -72 82z" />
<glyph horiz-adv-x="1099" d="M147 788l152 861h211l125 -482l317 482h211l-151 -861h-211l92 508l-238 -364h-104l-102 385l-93 -529h-209z" />
<glyph horiz-adv-x="1099" d="M-45 -307l151 860h211l125 -481l318 481h211l-152 -860h-211l92 508l-237 -365h-105l-102 385l-92 -528h-209z" />
<glyph horiz-adv-x="1247" d="M16 256l35 201h209l84 260h-178l35 203h209l84 256h211l-84 -256h210l84 256h211l-84 -256h181l-37 -203h-209l-84 -260h180l-35 -201h-211l-82 -256h-210l81 256h-210l-82 -256h-211l82 256h-179zM471 457h211l84 260h-211z" />
<glyph horiz-adv-x="899" d="M-76 -123l27 152h149l60 186h-127l26 154h152l59 184h156l-59 -184h149l59 184h156l-59 -184h127l-27 -154h-149l-60 -186h127l-24 -152h-152l-59 -184h-158l59 184h-149l-60 -184h-155l59 184h-127zM256 29h150l59 186h-150z" />
<glyph horiz-adv-x="899" d="M119 973l26 151h150l59 187h-127l27 153h152l59 185h156l-60 -185h150l59 185h156l-60 -185h127l-26 -153h-150l-59 -187h127l-25 -151h-151l-60 -185h-157l59 185h-150l-59 -185h-156l60 185h-127zM451 1124h149l59 187h-149z" />
<glyph horiz-adv-x="1462" d="M27 0l206 1176h289l176 -660l437 660h288l-206 -1176h-283l125 713l-338 -516h-131l-150 551l-131 -748h-282z" />
<glyph horiz-adv-x="733" d="M147 788l152 861h209l-121 -686h383l-31 -175h-592z" />
<glyph horiz-adv-x="985" d="M-10 317l43 248l125 64l96 547h283l-68 -390l238 123l-43 -247l-240 -123l-53 -306h532l-41 -233h-815l66 381z" />
<glyph horiz-adv-x="735" d="M-45 -307l151 860h209l-120 -686h383l-31 -174h-592z" />
<glyph horiz-adv-x="983" d="M27 0l206 1176h283l-166 -943h533l-41 -233h-815zM629 504l43 246h239l-43 -246h-239z" />
<glyph horiz-adv-x="978" d="M27 0l206 1176h283l-166 -943h533l-41 -233h-815zM225 -532l135 170h-98l41 245h219l-33 -270l-217 -219z" />
<glyph horiz-adv-x="1654" d="M135 1176h309l25 -785l324 785h233l53 -787l297 787h332l-526 -1176h-273l-59 780l-326 -780h-276zM596 1260l250 282h282l150 -282h-186l-117 153l-164 -153h-215z" />
<glyph horiz-adv-x="978" d="M27 0l206 1176h283l-166 -943h533l-41 -233h-815zM518 760l135 170h-98l41 246h219l-33 -271l-217 -219z" />
<glyph horiz-adv-x="978" d="M27 0l206 1176h283l-166 -943h533l-41 -233h-815zM178 1260l281 282h348l-373 -282h-256z" />
<glyph horiz-adv-x="778" d="M-49 -47q0 171 95.5 285t272.5 114q147 0 231.5 -72t84.5 -202q0 -111 -39 -199.5t-124.5 -144.5t-205.5 -56q-147 0 -231 72.5t-84 202.5zM154 -41q0 -62 25.5 -93.5t90.5 -31.5q54 0 92.5 41t54 92.5t15.5 102.5q0 64 -25 95.5t-92 31.5q-52 0 -90.5 -41t-54.5 -93.5 t-16 -103.5z" />
<glyph horiz-adv-x="978" d="M27 0l206 1176h283l-166 -943h533l-41 -233h-815z" />
<glyph horiz-adv-x="894" d="M147 788l152 861h209l-62 -346l330 346h279l-410 -400l270 -461h-231l-180 322l-111 -106l-37 -216h-209z" />
<glyph horiz-adv-x="622" d="M27 725l260 135h198l-151 -860h-211l119 653l-150 -73z" />
<glyph horiz-adv-x="624" d="M129 1298l260 136h199l-152 -861h-211l119 654l-149 -74z" />
<glyph horiz-adv-x="808" d="M74 958l403 218h289l-207 -1176h-305l154 870l-242 -127z" />
<glyph horiz-adv-x="1308" d="M33 0l45 254h385l155 874l-286 -149l-90 215l446 240h289l-207 -1180h389l-45 -254h-1081z" />
<glyph horiz-adv-x="798" d="M-68 -78q0 189 86.5 309.5t221.5 120.5q43 0 84 -15.5t61.5 -30t48.5 -38.5l58 320h202l-157 -895h-203l12 69q-110 -84 -219 -84q-83 0 -139 58.5t-56 185.5zM141 -57q0 -103 74 -103q68 0 158 82l35 199q-58 69 -119 69q-67 0 -107.5 -73t-40.5 -174z" />
<glyph horiz-adv-x="1503" d="M129 1067l221 109h158l-123 -705h-170l98 541l-129 -64zM197 0l745 1176h180l-745 -1176h-180zM743 178q0 135 195 213q-86 60 -86 141q0 80 73.5 132.5t198.5 52.5q120 0 185 -46t65 -120q0 -103 -145 -174q127 -69 127 -174q0 -96 -88.5 -155.5t-237.5 -59.5 q-134 0 -210.5 51t-76.5 139zM913 195q0 -38 32 -58t87 -20q65 0 109.5 25.5t44.5 68.5q0 65 -107 111q-38 -12 -62 -22t-50.5 -25.5t-40 -35.5t-13.5 -44zM1016 514q0 -48 67 -76q59 16 92 36t33 52t-22.5 50t-61.5 18q-47 0 -77.5 -23t-30.5 -57z" />
<glyph horiz-adv-x="1503" d="M127 1067l219 109h158l-123 -705h-170l100 541l-131 -64zM195 0l745 1176h182l-745 -1176h-182zM752 96l92 105q91 -70 182 -70q61 0 105.5 29t44.5 82q0 42 -27.5 65t-79.5 23q-69 0 -141 -41l-92 61l100 355h463l-21 -138h-321l-29 -114q45 10 86 10q113 0 173.5 -61 t60.5 -154q0 -107 -81 -183.5t-223 -76.5q-161 0 -292 108z" />
<glyph horiz-adv-x="894" d="M-45 -307l151 860h209l-61 -346l330 346h278l-409 -399l270 -461h-231l-181 321l-110 -104l-37 -217h-209z" />
<glyph horiz-adv-x="1507" d="M127 1067l221 109h158l-123 -705h-170l98 541l-129 -64zM197 0l745 1176h182l-745 -1176h-182zM754 0l12 72q7 45 26 84.5t42 67t58.5 54.5t64.5 45t72 42q2 1 3.5 2t3.5 2l4 2q15 8 39 21l36 19.5t30 17t27 16.5t21.5 15t18.5 15.5t12 14.5t8.5 16t2.5 16 q-2 26 -24.5 41t-63.5 15q-85 0 -203 -66l-63 117q141 88 286 88q115 0 176.5 -54t61.5 -135q0 -39 -17.5 -75t-41 -62t-65 -54t-71 -44t-78.5 -41l-12 -6q-80 -40 -106 -59.5t-33 -47.5h350l-22 -139h-555z" />
<glyph horiz-adv-x="1654" d="M135 1176h309l25 -785l324 785h233l53 -787l297 787h332l-526 -1176h-273l-59 780l-326 -780h-276zM641 1280l41 246h242l-43 -246h-240zM999 1280l43 246h240l-43 -246h-240z" />
<glyph horiz-adv-x="1198" d="M27 0l206 1176h283l-86 -484l465 484h373l-563 -547l376 -629h-313l-254 444l-154 -149l-51 -295h-282zM281 -532l135 170h-99l41 245h220l-33 -270l-217 -219z" />
<glyph horiz-adv-x="1472" d="M127 1067l219 109h158l-123 -705h-168l98 541l-131 -64zM195 0l745 1176h182l-745 -1176h-182zM662 131l16 115l407 459h224l-78 -437h106l-20 -137h-111l-22 -131h-170l22 131h-374zM864 268h197l51 287z" />
<glyph horiz-adv-x="1474" d="M127 1067l219 109h158l-123 -705h-170l100 541l-131 -64zM197 0l745 1176h180l-745 -1176h-180zM741 262q0 191 138 323t348 132q38 0 71.5 -5.5t47.5 -10.5l14 -5l-57 -121q-29 7 -70 7q-97 0 -177 -44t-120 -130q67 47 164 47q104 0 164.5 -57.5t60.5 -151.5 q0 -107 -78.5 -182.5t-214.5 -75.5q-138 0 -214.5 79t-76.5 195zM907 254q0 -54 32 -91.5t89 -37.5q61 0 95 34.5t34 82.5q0 40 -26.5 65t-81.5 25q-46 0 -85 -21t-57 -45v-12z" />
<glyph horiz-adv-x="1198" d="M27 0l206 1176h283l-86 -484l465 484h373l-563 -547l376 -629h-313l-254 444l-154 -149l-51 -295h-282z" />
<glyph horiz-adv-x="1654" d="M135 1176h309l25 -785l324 785h233l53 -787l297 787h332l-526 -1176h-273l-59 780l-326 -780h-276zM629 1542h313l191 -282h-228z" />
<glyph horiz-adv-x="1486" d="M127 1067l219 109h158l-123 -705h-170l100 541l-131 -64zM195 0l745 1176h182l-745 -1176h-182zM733 96l84 103q65 -36 113 -53t104 -17q64 0 99.5 24t35.5 64q0 86 -182 86h-31l23 139h35q72 0 127 21t55 61q0 54 -78 54q-75 0 -198 -60l-56 115q139 84 283 84 q109 0 165 -46t56 -116q0 -115 -149 -174q54 -17 87 -62.5t33 -105.5q0 -40 -15.5 -78t-48 -72t-90.5 -54.5t-134 -20.5q-165 0 -318 108z" />
<glyph horiz-adv-x="444" d="M-8 725q101 29 130 53t38 84l139 787h209l-137 -777q-6 -34 -9 -50t-9.5 -43t-12.5 -40t-16.5 -34t-22.5 -31.5t-30 -26.5t-40 -25.5t-50.5 -21t-63.5 -21t-78 -18.5z" />
<glyph horiz-adv-x="442" d="M-201 -371q101 29 130 53.5t38 84.5l139 786h209l-137 -776q-6 -34 -9 -50t-9.5 -43t-12.5 -40t-16.5 -34t-22.5 -32t-30 -26.5t-40 -25.5t-50.5 -21.5t-63.5 -21t-78 -18.5z" />
<glyph horiz-adv-x="555" d="M-184 -90q97 29 141.5 53t61 51.5t26.5 85.5l188 1076h285l-186 -1061q-26 -144 -48 -196q-39 -90 -138 -142q-90 -47 -267 -86zM47 1260l250 282h283l149 -282h-186l-117 153l-164 -153h-215z" />
<glyph horiz-adv-x="555" d="M-184 -90q97 29 141.5 53t61 51.5t26.5 85.5l188 1076h285l-186 -1061q-26 -144 -48 -196q-39 -90 -138 -142q-90 -47 -267 -86z" />
<glyph horiz-adv-x="1181" d="M8 553h232l14 -561l231 561h174l35 -561l211 561h246l-381 -860h-205l-39 561l-233 -561h-205z" />
<glyph horiz-adv-x="557" d="M27 0l206 1176h283l-207 -1176h-282zM55 1352q29 43 42.5 62t40 50t46.5 44.5t49.5 24.5t61.5 11q44 0 91 -24.5t86.5 -49t64.5 -24.5q49 0 116 96l121 -80q-26 -39 -36.5 -53.5t-33 -44t-37.5 -41.5t-37.5 -28t-46 -21.5t-51.5 -5.5q-44 0 -90 24.5t-85 49t-66 24.5 q-47 0 -117 -96z" />
<glyph horiz-adv-x="442" d="M147 788l152 861h209l-152 -861h-209z" />
<glyph horiz-adv-x="555" d="M-100 -238q0 75 58 132t163 106h-94l206 1176h283l-207 -1176h-6q-211 -116 -211 -205q0 -14 4.5 -24t15 -16t18.5 -10t25 -5.5t24 -2t25.5 0t20.5 0.5l-51 -135h-13q-16 1 -37.5 0t-46.5 2.5t-49.5 8.5t-47.5 17t-41 28t-28.5 42.5t-10.5 60.5z" />
<glyph horiz-adv-x="1249" d="M78 694q0 120 43 214t117 151.5t165.5 87t194.5 29.5h248l-262 -1487h-230l119 659q-84 0 -154.5 20t-125 61t-85 108.5t-30.5 156.5zM707 -313l262 1489h229l-262 -1489h-229z" />
<glyph horiz-adv-x="552" d="M27 0l206 1176h283l-207 -1176h-282zM102 1311l31 174h584l-31 -174h-584z" />
<glyph horiz-adv-x="628" d="M32 29q1 38 5 69.5t12 81.5l144 809q8 46 13.5 73.5t14.5 62.5t17.5 55t23 46t31 41.5t41 34.5t53.5 31.5t68 26.5t84.5 25.5t103.5 23.5l49 -160q-85 -28 -125 -52.5t-55.5 -53t-26.5 -86.5l-166 -944q-21 -86 -2 -127.5t109 -79.5l-72 -146q-64 15 -113.5 31t-85 36.5 t-59.5 39.5t-38 47t-20.5 52.5t-5.5 62.5z" />
<glyph horiz-adv-x="1185" d="M203 1649h231l15 -562l231 562h174l35 -562l211 562h246l-381 -861h-205l-39 562l-234 -562h-204z" />
<glyph horiz-adv-x="690" d="M139 1055q0 178 95 285.5t233 107.5q53 0 116 -21t92.5 -36.5t84.5 -47.5l-92 -137q-32 21 -49 31.5t-51.5 23.5t-63.5 13q-69 0 -114.5 -56t-45.5 -143q0 -63 25.5 -95t70.5 -32q54 0 178 56l66 -150q-182 -80 -291 -80q-115 0 -184.5 69t-69.5 212z" />
<glyph horiz-adv-x="442" d="M-45 -307l151 860h209l-151 -860h-209z" />
<glyph horiz-adv-x="628" d="M-76 -80q64 21 100.5 38t58.5 40.5t31 47t17 67.5l166 944q21 86 2 127.5t-109 79.5l72 145q64 -15 113.5 -31t85 -36.5t59.5 -39.5t38 -47t20.5 -52.5t5.5 -62.5t-5 -69.5t-12 -81.5l-143 -809q-8 -45 -13.5 -73t-14.5 -62.5t-18 -55.5t-23 -46.5t-31 -41t-41.5 -34.5 t-53.5 -31.5t-68 -26.5t-84.5 -25.5t-103.5 -23.5z" />
<glyph horiz-adv-x="1447" d="M80 535q0 132 45 250.5t129 210t214.5 145t289.5 53.5q276 0 438 -152.5t162 -400.5q0 -132 -45 -250.5t-129 -210t-214.5 -145t-289.5 -53.5q-276 0 -438 152.5t-162 400.5zM150 535q0 -217 143 -353.5t391 -136.5q139 0 254.5 47t191 128.5t117 189.5t41.5 231 q0 217 -143 353t-391 136q-139 0 -254.5 -47t-191 -128t-117 -189t-41.5 -231zM389 508q-7 104 19.5 189.5t76.5 140t117 84.5t143 30q141 0 289 -112l-57 -56q-34 27 -57 42.5t-74 34t-103 18.5q-119 0 -196 -104.5t-68 -260.5q6 -101 51.5 -159t120.5 -58q128 0 267 90 l49 -61q-51 -30 -85.5 -48t-99.5 -37.5t-127 -19.5q-111 0 -185.5 76t-80.5 211z" />
<glyph horiz-adv-x="1951" d="M-193 -238q61 21 98.5 35.5t68.5 36t46.5 38t29 50.5t20 63.5t16.5 88.5l137 784h-131l39 217h131l10 55q36 191 118 277t233 86q159 0 383 -76l14 76h295l-96 -541q173 146 346 146q61 0 114 -21t98.5 -64.5t72 -121.5t26.5 -182q0 -212 -60.5 -378.5t-170 -260 t-250.5 -93.5q-55 0 -105 13t-92 38.5t-67.5 45t-59.5 49.5l-20 -123h-295l211 1194q-196 45 -285 45q-42 0 -73 -26t-40 -78l-10 -60h242l-41 -217h-240l-135 -762q-14 -81 -21.5 -119t-22.5 -97t-30.5 -85.5t-42.5 -66.5t-60.5 -60t-83 -46.5t-112 -45t-145.5 -37.5z M1112 348q43 -59 99.5 -96t115.5 -37q75 0 133 66.5t86.5 169t28.5 219.5q0 92 -35.5 141t-103.5 49q-65 0 -126 -36.5t-132 -102.5z" />
<glyph horiz-adv-x="831" d="M-147 -307l350 434l-185 426h232l96 -291l193 291h256l-336 -424l198 -436h-233l-105 287l-202 -287h-264z" />
<glyph horiz-adv-x="555" d="M27 0l206 1176h283l-207 -1176h-282zM78 1542h313l191 -282h-228z" />
</font>
</defs>
</svg>
