<?xml version="1.0" standalone="no"?>
<!DOCTYPE svg PUBLIC "-//W3C//DTD SVG 1.1//EN" "http://www.w3.org/Graphics/SVG/1.1/DTD/svg11.dtd" >
<svg xmlns="http://www.w3.org/2000/svg">
<metadata></metadata>
<defs>
<font id="verbcondextralight_italic" horiz-adv-x="1167" >
<font-face units-per-em="2048" ascent="1638" descent="-410" />
<missing-glyph horiz-adv-x="507" />
<glyph unicode="ff" horiz-adv-x="1286" d="M-168 -342q36 11 63.5 20.5t52 21.5t41 20.5t32.5 24t25.5 26t19 32t15 36.5t12.5 45.5t11 52.5t11 63l174 1001h-135l14 74h135l37 211q20 115 67 161t140 46q54 0 136 -21t132 -40l-43 -66q-38 13 -113 31t-112 18q-57 0 -83.5 -35t-37.5 -94l-37 -211h279l-15 -74 h-276l-174 -1001q-15 -87 -22.5 -124t-25 -88.5t-36.5 -71.5t-56.5 -48.5t-85.5 -46t-124 -39.5zM475 -342q36 11 63.5 20.5t52 21.5t41 20.5t32.5 24t25.5 26t19 32t15 36.5t12.5 45.5t11 52.5t11 63l174 1001h-135l14 74h135l37 211q20 115 67 161t140 46q54 0 136 -21 t132 -40l-43 -66q-38 13 -113 31t-112 18q-57 0 -83.5 -35t-37.5 -94l-37 -211h279l-15 -74h-276l-174 -1001q-15 -87 -22.5 -124t-25 -88.5t-36.5 -71.5t-56.5 -48.5t-85.5 -46t-124 -39.5z" />
<glyph unicode="fi" horiz-adv-x="1091" d="M-168 -342q36 11 63.5 20.5t52 21.5t41 20.5t32.5 24t25.5 26t19 32t15 36.5t12.5 45.5t11 52.5t11 63l174 1001h-135l14 74h135l37 211q20 113 67 160t132 47q79 0 223 -49l-41 -66q-120 37 -174 37q-57 0 -83.5 -35t-37.5 -94l-37 -211h279l-15 -74h-276l-174 -1001 q-15 -87 -22.5 -124t-25 -88.5t-36.5 -71.5t-56.5 -48.5t-85.5 -46t-124 -39.5zM715 0l190 1075h86l-190 -1075h-86zM940 1327l29 160h104l-29 -160h-104z" />
<glyph unicode="fl" horiz-adv-x="1116" d="M-168 -342q36 11 63.5 20.5t52 21.5t41 20.5t32.5 24t25.5 26t19 32t15 36.5t12.5 45.5t11 52.5t11 63l174 1001h-135l14 74h135l37 211q20 113 67 160t132 47q79 0 223 -49l-41 -66q-120 37 -174 37q-57 0 -83.5 -35t-37.5 -94l-37 -211h279l-15 -74h-276l-174 -1001 q-15 -87 -22.5 -124t-25 -88.5t-36.5 -71.5t-56.5 -48.5t-85.5 -46t-124 -39.5zM727 0l264 1493h86l-264 -1493h-86z" />
<glyph unicode="ffi" horiz-adv-x="1734" d="M-168 -342q36 11 63.5 20.5t52 21.5t41 20.5t32.5 24t25.5 26t19 32t15 36.5t12.5 45.5t11 52.5t11 63l174 1001h-135l14 74h135l37 211q20 115 67 161t140 46q54 0 136 -21t132 -40l-43 -66q-38 13 -113 31t-112 18q-57 0 -83.5 -35t-37.5 -94l-37 -211h279l-15 -74 h-276l-174 -1001q-15 -87 -22.5 -124t-25 -88.5t-36.5 -71.5t-56.5 -48.5t-85.5 -46t-124 -39.5zM475 -342q36 11 63.5 20.5t52 21.5t41 20.5t32.5 24t25.5 26t19 32t15 36.5t12.5 45.5t11 52.5t11 63l174 1001h-135l14 74h135l37 211q20 113 67 160t132 47q80 0 223 -49 l-41 -66q-120 37 -174 37q-57 0 -83.5 -35t-37.5 -94l-37 -211h279l-15 -74h-276l-174 -1001q-15 -87 -22.5 -124t-25 -88.5t-36.5 -71.5t-56.5 -48.5t-85.5 -46t-124 -39.5zM1358 0l190 1075h86l-190 -1075h-86zM1583 1327l29 160h104l-28 -160h-105z" />
<glyph unicode="ffl" horiz-adv-x="1759" d="M-168 -342q36 11 63.5 20.5t52 21.5t41 20.5t32.5 24t25.5 26t19 32t15 36.5t12.5 45.5t11 52.5t11 63l174 1001h-135l14 74h135l37 211q20 115 67 161t140 46q54 0 136 -21t132 -40l-43 -66q-38 13 -113 31t-112 18q-57 0 -83.5 -35t-37.5 -94l-37 -211h279l-15 -74 h-276l-174 -1001q-15 -87 -22.5 -124t-25 -88.5t-36.5 -71.5t-56.5 -48.5t-85.5 -46t-124 -39.5zM475 -342q36 11 63.5 20.5t52 21.5t41 20.5t32.5 24t25.5 26t19 32t15 36.5t12.5 45.5t11 52.5t11 63l174 1001h-135l14 74h135l37 211q20 113 67 160t132 47q80 0 223 -49 l-41 -66q-120 37 -174 37q-57 0 -83.5 -35t-37.5 -94l-37 -211h279l-15 -74h-276l-174 -1001q-15 -87 -22.5 -124t-25 -88.5t-36.5 -71.5t-56.5 -48.5t-85.5 -46t-124 -39.5zM1370 0l264 1493h86l-264 -1493h-86z" />
<glyph unicode="ffb" horiz-adv-x="2414" d="M-168 -342q36 11 63.5 20.5t52 21.5t41 20.5t32.5 24t25.5 26t19 32t15 36.5t12.5 45.5t11 52.5t11 63l174 1001h-135l14 74h135l37 211q20 115 67 161t140 46q54 0 136 -21t132 -40l-43 -66q-38 13 -113 31t-112 18q-57 0 -83.5 -35t-37.5 -94l-37 -211h279l-15 -74 h-276l-174 -1001q-15 -87 -22.5 -124t-25 -88.5t-36.5 -71.5t-56.5 -48.5t-85.5 -46t-124 -39.5zM475 -342q36 11 63.5 20.5t52 21.5t41 20.5t32.5 24t25.5 26t19 32t15 36.5t12.5 45.5t11 52.5t11 63l174 1001h-135l14 74h135l37 211q20 113 67 160t132 47q80 0 223 -49 l-41 -66q-120 37 -174 37q-57 0 -83.5 -35t-37.5 -94l-37 -211h279l-15 -74h-276l-174 -1001q-15 -87 -22.5 -124t-25 -88.5t-36.5 -71.5t-56.5 -48.5t-85.5 -46t-124 -39.5zM1358 0l264 1493h86l-100 -569q192 174 364 174q49 0 93.5 -11.5t86 -39t71 -68.5t47.5 -103.5 t18 -140.5q0 -213 -56.5 -385.5t-161 -272.5t-237.5 -100q-59 0 -113.5 17t-101.5 49t-77 57.5t-68 63.5l-29 -164h-86zM1489 250q167 -195 338 -195q111 0 197.5 100.5t130 252t43.5 319.5q0 140 -57.5 216.5t-170.5 76.5q-51 0 -101.5 -15.5t-101.5 -46.5t-88.5 -59.5 t-89.5 -73.5z" />
<glyph unicode="ffh" horiz-adv-x="2416" d="M-168 -342q36 11 63.5 20.5t52 21.5t41 20.5t32.5 24t25.5 26t19 32t15 36.5t12.5 45.5t11 52.5t11 63l174 1001h-135l14 74h135l37 211q20 115 67 161t140 46q54 0 136 -21t132 -40l-43 -66q-38 13 -113 31t-112 18q-57 0 -83.5 -35t-37.5 -94l-37 -211h279l-15 -74 h-276l-174 -1001q-15 -87 -22.5 -124t-25 -88.5t-36.5 -71.5t-56.5 -48.5t-85.5 -46t-124 -39.5zM475 -342q36 11 63.5 20.5t52 21.5t41 20.5t32.5 24t25.5 26t19 32t15 36.5t12.5 45.5t11 52.5t11 63l174 1001h-135l14 74h135l37 211q20 113 67 160t132 47q80 0 223 -49 l-41 -66q-120 37 -174 37q-57 0 -83.5 -35t-37.5 -94l-37 -211h279l-15 -74h-276l-174 -1001q-15 -87 -22.5 -124t-25 -88.5t-36.5 -71.5t-56.5 -48.5t-85.5 -46t-124 -39.5zM1358 0l264 1493h86l-102 -578q48 37 109.5 74t157 73t173.5 36q141 0 196 -90.5t29 -235.5 l-135 -772h-88l135 764q45 256 -147 256q-104 0 -233 -66.5t-216 -136.5l-143 -817h-86z" />
<glyph unicode="fb" horiz-adv-x="1771" d="M-168 -342q36 11 63.5 20.5t52 21.5t41 20.5t32.5 24t25.5 26t19 32t15 36.5t12.5 45.5t11 52.5t11 63l174 1001h-135l14 74h135l37 211q20 113 67 160t132 47q79 0 223 -49l-41 -66q-120 37 -174 37q-57 0 -83.5 -35t-37.5 -94l-37 -211h279l-15 -74h-276l-174 -1001 q-15 -87 -22.5 -124t-25 -88.5t-36.5 -71.5t-56.5 -48.5t-85.5 -46t-124 -39.5zM715 0l264 1493h86l-100 -569q192 174 364 174q49 0 93.5 -11.5t86 -39t71 -68.5t47.5 -103.5t18 -140.5q0 -213 -56.5 -385.5t-161 -272.5t-237.5 -100q-59 0 -113.5 17t-102 49t-77.5 57.5 t-68 63.5l-28 -164h-86zM846 250q167 -195 338 -195q84 0 155 58.5t117 154.5t72 215.5t26 243.5q0 140 -57 216.5t-170 76.5q-51 0 -101.5 -15.5t-101.5 -46.5t-88.5 -59.5t-89.5 -73.5z" />
<glyph unicode="ffj" horiz-adv-x="1736" d="M-168 -342q36 11 63.5 20.5t52 21.5t41 20.5t32.5 24t25.5 26t19 32t15 36.5t12.5 45.5t11 52.5t11 63l174 1001h-135l14 74h135l37 211q20 115 67 161t140 46q54 0 136 -21t132 -40l-43 -66q-38 13 -113 31t-112 18q-57 0 -83.5 -35t-37.5 -94l-37 -211h279l-15 -74 h-276l-174 -1001q-15 -87 -22.5 -124t-25 -88.5t-36.5 -71.5t-56.5 -48.5t-85.5 -46t-124 -39.5zM475 -342q36 11 63.5 20.5t52 21.5t41 20.5t32.5 24t25.5 26t19 32t15 36.5t12.5 45.5t11 52.5t11 63l174 1001h-135l14 74h135l37 211q20 113 67 160t132 47q80 0 223 -49 l-41 -66q-120 37 -174 37q-57 0 -83.5 -35t-37.5 -94l-37 -211h279l-15 -74h-276l-174 -1001q-15 -87 -22.5 -124t-25 -88.5t-36.5 -71.5t-56.5 -48.5t-85.5 -46t-124 -39.5zM1075 -342q59 18 99 33t68.5 34t44.5 33.5t27.5 42.5t16 48.5t12.5 64.5l205 1161h88l-206 -1161 q-22 -122 -42 -162q-31 -65 -115 -107q-62 -30 -177 -63zM1585 1327l29 160h104l-28 -160h-105z" />
<glyph unicode="ffk" horiz-adv-x="2230" d="M-168 -342q36 11 63.5 20.5t52 21.5t41 20.5t32.5 24t25.5 26t19 32t15 36.5t12.5 45.5t11 52.5t11 63l174 1001h-135l14 74h135l37 211q20 115 67 161t140 46q54 0 136 -21t132 -40l-43 -66q-38 13 -113 31t-112 18q-57 0 -83.5 -35t-37.5 -94l-37 -211h279l-15 -74 h-276l-174 -1001q-15 -87 -22.5 -124t-25 -88.5t-36.5 -71.5t-56.5 -48.5t-85.5 -46t-124 -39.5zM475 -342q36 11 63.5 20.5t52 21.5t41 20.5t32.5 24t25.5 26t19 32t15 36.5t12.5 45.5t11 52.5t11 63l174 1001h-135l14 74h135l37 211q20 113 67 160t132 47q80 0 223 -49 l-41 -66q-120 37 -174 37q-57 0 -83.5 -35t-37.5 -94l-37 -211h279l-15 -74h-276l-174 -1001q-15 -87 -22.5 -124t-25 -88.5t-36.5 -71.5t-56.5 -48.5t-85.5 -46t-124 -39.5zM1358 0l264 1493h86l-184 -1047l577 629h107l-416 -440l285 -635h-88l-256 571l-232 -243 l-57 -328h-86z" />
<glyph unicode="fft" horiz-adv-x="1961" d="M-168 -342q36 11 63.5 20.5t52 21.5t41 20.5t32.5 24t25.5 26t19 32t15 36.5t12.5 45.5t11 52.5t11 63l174 1001h-135l14 74h135l37 211q20 115 67 161t140 46q54 0 136 -21t132 -40l-43 -66q-38 13 -113 31t-112 18q-57 0 -83.5 -35t-37.5 -94l-37 -211h279l-15 -74 h-276l-174 -1001q-15 -87 -22.5 -124t-25 -88.5t-36.5 -71.5t-56.5 -48.5t-85.5 -46t-124 -39.5zM475 -342q36 11 63.5 20.5t52 21.5t41 20.5t32.5 24t25.5 26t19 32t15 36.5t12.5 45.5t11 52.5t11 63l174 1001h-135l14 74h135l37 211q20 115 67 161t140 46q54 0 136 -21 t132 -40l-43 -66q-38 13 -113 31t-112 18q-57 0 -83.5 -35t-37.5 -94l-37 -211h279l-15 -74h-276l-174 -1001q-15 -87 -22.5 -124t-25 -88.5t-36.5 -71.5t-56.5 -48.5t-85.5 -46t-124 -39.5zM1418 104.5q-7 38.5 5 92.5l144 804h-140l15 74h137l49 271l92 40l-55 -311h274 l-14 -74h-274l-146 -825q-21 -121 78 -121q60 0 213 64l27 -74q-41 -19 -119.5 -43.5t-122.5 -24.5q-29 0 -53.5 5.5t-49.5 19.5t-39 39t-21 63.5z" />
<glyph unicode="fh" horiz-adv-x="1773" d="M-168 -342q36 11 63.5 20.5t52 21.5t41 20.5t32.5 24t25.5 26t19 32t15 36.5t12.5 45.5t11 52.5t11 63l174 1001h-135l14 74h135l37 211q20 113 67 160t132 47q79 0 223 -49l-41 -66q-120 37 -174 37q-57 0 -83.5 -35t-37.5 -94l-37 -211h279l-15 -74h-276l-174 -1001 q-15 -87 -22.5 -124t-25 -88.5t-36.5 -71.5t-56.5 -48.5t-85.5 -46t-124 -39.5zM715 0l264 1493h86l-102 -578q48 37 109.5 74t157 73t173.5 36q141 0 196 -90.5t29 -235.5l-135 -772h-88l135 764q45 256 -147 256q-104 0 -233 -66.5t-216 -136.5l-143 -817h-86z" />
<glyph unicode="fj" horiz-adv-x="1093" d="M-168 -342q36 11 63.5 20.5t52 21.5t41 20.5t32.5 24t25.5 26t19 32t15 36.5t12.5 45.5t11 52.5t11 63l174 1001h-135l14 74h135l37 211q20 113 67 160t132 47q79 0 223 -49l-41 -66q-120 37 -174 37q-57 0 -83.5 -35t-37.5 -94l-37 -211h279l-15 -74h-276l-174 -1001 q-15 -87 -22.5 -124t-25 -88.5t-36.5 -71.5t-56.5 -48.5t-85.5 -46t-124 -39.5zM432 -342q59 18 99 33t68.5 34t44.5 33.5t27.5 42.5t16 48.5t12.5 64.5l205 1161h88l-207 -1161q-22 -122 -41 -162q-31 -65 -114 -106q-61 -30 -178 -64zM942 1327l29 160h104l-28 -160h-105z " />
<glyph unicode="fk" horiz-adv-x="1587" d="M-168 -342q36 11 63.5 20.5t52 21.5t41 20.5t32.5 24t25.5 26t19 32t15 36.5t12.5 45.5t11 52.5t11 63l174 1001h-135l14 74h135l37 211q20 113 67 160t132 47q79 0 223 -49l-41 -66q-120 37 -174 37q-57 0 -83.5 -35t-37.5 -94l-37 -211h279l-15 -74h-276l-174 -1001 q-15 -87 -22.5 -124t-25 -88.5t-36.5 -71.5t-56.5 -48.5t-85.5 -46t-124 -39.5zM715 0l264 1493h86l-184 -1047l577 629h107l-416 -440l285 -635h-88l-256 571l-232 -243l-57 -328h-86z" />
<glyph unicode="ft" horiz-adv-x="1318" d="M-168 -342q36 11 63.5 20.5t52 21.5t41 20.5t32.5 24t25.5 26t19 32t15 36.5t12.5 45.5t11 52.5t11 63l174 1001h-135l14 74h135l37 211q20 115 67 161t140 46q54 0 136 -21t132 -40l-43 -66q-38 13 -113 31t-112 18q-57 0 -83.5 -35t-37.5 -94l-37 -211h279l-15 -74 h-276l-174 -1001q-15 -87 -22.5 -124t-25 -88.5t-36.5 -71.5t-56.5 -48.5t-85.5 -46t-124 -39.5zM775 104.5q-7 38.5 5 92.5l144 804h-140l15 74h137l49 271l92 40l-55 -311h274l-14 -74h-274l-146 -825q-21 -121 78 -121q60 0 213 64l27 -74q-41 -19 -119.5 -43.5 t-122.5 -24.5q-29 0 -53.5 5.5t-49.5 19.5t-39 39t-21 63.5z" />
<glyph unicode=" "  horiz-adv-x="507" />
<glyph unicode="&#x09;" horiz-adv-x="507" />
<glyph unicode="&#xa0;" horiz-adv-x="507" />
<glyph unicode="!" horiz-adv-x="507" d="M86 0l33 186h121l-33 -186h-121zM188 406l158 1028h103l-203 -1028h-58z" />
<glyph unicode="&#x22;" horiz-adv-x="761" d="M233 922l70 512h109l-111 -512h-68zM565 922l70 512h108l-110 -512h-68z" />
<glyph unicode="#" horiz-adv-x="1437" d="M72 395l14 78h285l155 485h-274l14 78h285l127 398h82l-127 -398h411l127 398h80l-127 -398h277l-15 -78h-286l-156 -485h277l-15 -78h-286l-127 -395h-80l127 395h-412l-127 -395h-82l127 395h-274zM453 473h411l156 485h-412z" />
<glyph unicode="$" horiz-adv-x="1153" d="M39 143l57 72q178 -125 344 -149l115 645q-65 28 -103.5 46.5t-86 51t-73 66t-43.5 84t-18 112.5q0 120 62.5 209.5t161 132.5t217.5 43h14l33 184h76l-35 -190q170 -23 346 -127l-55 -66q-143 86 -306 111l-104 -592q67 -29 108.5 -50t92.5 -56.5t80 -72.5t49 -91.5 t20 -120.5q0 -80 -27 -148t-73.5 -115t-107.5 -80.5t-128 -49t-137 -15.5h-18l-31 -182h-76l33 191q-196 25 -387 157zM324 1073q0 -53 14.5 -92t49.5 -70t74.5 -52.5t108.5 -51.5l101 567h-8q-90 0 -166 -33t-125 -103t-49 -165zM514 59h10q159 0 269 87.5t110 230.5 q0 59 -20 106t-61.5 83.5t-85.5 61.5t-111 54z" />
<glyph unicode="%" horiz-adv-x="1865" d="M174 987q0 203 104.5 336t266.5 133q148 0 225.5 -78t77.5 -221q0 -204 -103.5 -336.5t-267.5 -132.5q-147 0 -225 78.5t-78 220.5zM262 989q0 -52 9.5 -90t32.5 -70.5t67.5 -49.5t109.5 -17q125 0 203 117.5t78 275.5q0 51 -9.5 89.5t-32.5 71t-67 49.5t-108 17 q-84 0 -150 -56.5t-99.5 -145.5t-33.5 -191zM430 0l948 1434h92l-948 -1434h-92zM1053 276q0 203 104 336t266 133q148 0 225.5 -78t77.5 -221q0 -204 -103 -336.5t-267 -132.5q-147 0 -225 78.5t-78 220.5zM1141 279q0 -52 9.5 -90t32.5 -71t67.5 -50t109.5 -17 q84 0 149 57t98 145.5t33 190.5q0 107 -47.5 167.5t-169.5 60.5q-125 0 -203.5 -117.5t-78.5 -275.5z" />
<glyph unicode="&#x26;" horiz-adv-x="1304" d="M113 297q0 69 22 131.5t52.5 108t84.5 94t97 79.5t110 74q-62 87 -92.5 162.5t-30.5 169.5q0 88 30.5 156t79.5 106.5t104 58t112 19.5q49 0 94.5 -14.5t84 -44t62 -80.5t23.5 -117q0 -58 -20 -111.5t-49 -94t-79 -85.5t-90.5 -74t-103.5 -71l305 -418q129 180 201 410 h94q-33 -114 -95 -243t-146 -241l200 -272h-110l-150 203q-205 -226 -450 -226q-152 0 -246 82.5t-94 237.5zM207 301q0 -45 12 -84.5t38.5 -76.5t77 -59t120.5 -22q218 0 399 213l-324 443q-58 -39 -99 -68.5t-86.5 -71.5t-73 -81t-46 -89.5t-18.5 -103.5zM446 1118 q0 -59 18 -116t38 -91t51 -77q58 37 94 62t80.5 63t69 71.5t42 77.5t17.5 92q0 82 -44.5 128t-131.5 46q-113 0 -173.5 -72t-60.5 -184z" />
<glyph unicode="'" horiz-adv-x="432" d="M233 922l70 512h109l-111 -512h-68z" />
<glyph unicode="(" horiz-adv-x="579" d="M74.5 -117.5q-5.5 55.5 11.5 137.5l246 1385q8 48 15.5 76t22 60.5t36 53t56.5 43t84 41.5t118 39l22 -80q-85 -26 -132 -47t-75.5 -52t-39 -62t-21.5 -91l-240 -1347q-7 -41 -10 -59t-4 -44.5t0.5 -36t11.5 -26.5t20.5 -23.5t34.5 -19.5t47.5 -21.5t65.5 -23.5l-33 -78 q-126 40 -178.5 80t-58 95.5z" />
<glyph unicode=")" horiz-adv-x="575" d="M-72 -213q85 26 132 47t76 52t40 62t21 91l239 1347q7 41 10 59t4 44.5t-0.5 36t-11.5 26.5t-20.5 23.5t-34.5 19.5t-47.5 21.5t-65.5 23.5l33 78q126 -40 178.5 -80t58 -95.5t-11.5 -137.5l-245 -1385q-8 -48 -15.5 -76t-22 -60.5t-36 -53t-56.5 -43t-84 -41.5t-118 -39 z" />
<glyph unicode="*" horiz-adv-x="970" d="M207 983l303 94l-250 195l57 69l230 -223l37 316l88 -17l-70 -307l289 129l27 -88l-304 -92l254 -195l-59 -69l-225 221l-39 -316l-88 15l73 309l-290 -127z" />
<glyph unicode="+" d="M123 643l14 78h422l74 414h80l-74 -414h428l-14 -78h-428l-72 -412h-80l72 412h-422z" />
<glyph unicode="," horiz-adv-x="466" d="M18 -201l107 201h-57l32 186h117l-12 -186l-154 -242z" />
<glyph unicode="-" horiz-adv-x="839" d="M158 541l14 86h498l-17 -86h-495z" />
<glyph unicode="." horiz-adv-x="462" d="M66 0l32 186h121l-33 -186h-120z" />
<glyph unicode="/" horiz-adv-x="849" d="M-74 -184l948 1802h87l-949 -1802h-86z" />
<glyph unicode="0" horiz-adv-x="1255" d="M152 463q0 98 17.5 207.5t50.5 221t86 212.5t119 180t154.5 125.5t186.5 46.5q106 0 180 -34t116 -100t60.5 -151.5t18.5 -199.5q0 -98 -17.5 -207.5t-51 -221t-86.5 -213t-119 -180.5t-154.5 -125.5t-186.5 -46.5q-85 0 -149.5 23t-107 64t-69 102.5t-37.5 133.5 t-11 163zM244 465q0 -46 2 -81.5t8.5 -79.5t18 -77t33 -66t50 -54.5t71.5 -34.5t97 -13q89 0 168 47.5t134.5 125.5t99.5 174.5t70 200t39.5 195.5t13.5 167q0 39 -1.5 71t-6 70.5t-13.5 68.5t-22.5 61.5t-35 54.5t-49.5 41.5t-67 28t-86 9.5q-77 0 -146 -35.5t-121 -95 t-95.5 -138t-73 -163t-50 -172.5t-29.5 -165t-9 -140z" />
<glyph unicode="1" horiz-adv-x="655" d="M180 1262l326 172h76l-254 -1434h-90l235 1325l-260 -139z" />
<glyph unicode="2" horiz-adv-x="1083" d="M16 0l17 94q15 84 48 156t66.5 120t101 104.5t110 86t134.5 88.5q15 9 23 14.5t20.5 13.5t22.5 15q69 45 117.5 80.5t103 83t87.5 91t55 97t22 107.5q0 101 -67 162t-189 61q-102 0 -201 -39.5t-165 -87.5l-39 72q193 137 403 137q158 0 253 -79.5t95 -227.5 q0 -52 -14.5 -102t-37 -91t-61 -84.5t-75 -77t-92 -74t-98.5 -70t-106 -70.5q-57 -37 -85 -56q-81 -54 -132 -95.5t-97 -94t-72.5 -113.5t-40.5 -139h727l-14 -82h-820z" />
<glyph unicode="3" horiz-adv-x="1114" d="M16 113l56 71q160 -125 356 -125q183 0 299.5 104t116.5 261q0 105 -55.5 181t-141 111.5t-188.5 35.5h-60l15 86h69q104 0 203 46t162 125t63 167q0 91 -66.5 144.5t-178.5 53.5q-95 0 -185 -36t-157 -83l-33 72q20 14 51.5 32t83 42t118 39.5t130.5 15.5 q150 0 238.5 -79.5t88.5 -200.5q0 -53 -19 -106.5t-58 -107t-107.5 -100t-157.5 -76.5q115 -24 196 -125t81 -237q0 -89 -34.5 -169.5t-98 -142.5t-162 -98.5t-217.5 -36.5q-72 0 -137 13t-118 37t-84.5 42t-68.5 44z" />
<glyph unicode="4" horiz-adv-x="1148" d="M39 344l14 78l830 1012h114l-178 -1008h203l-14 -82h-203l-62 -344h-86l62 344h-680zM154 426h579l160 901z" />
<glyph unicode="5" horiz-adv-x="1095" d="M39 113l51 67q163 -121 322 -121q76 0 151.5 29t138 82.5t101.5 138.5t39 187q0 142 -75.5 228.5t-213.5 86.5q-140 0 -303 -98l-49 22l192 699h656l-15 -82h-583l-136 -531q116 72 254 72q167 0 267 -113t100 -288q0 -141 -64 -258t-184 -187t-272 -70 q-67 0 -126.5 12.5t-109.5 37.5t-76.5 41.5t-64.5 44.5z" />
<glyph unicode="6" horiz-adv-x="1169" d="M135 449q0 201 63.5 387t170.5 321.5t253.5 217t305.5 81.5q44 0 87 -6.5t64 -13.5l21 -6l-37 -74q-55 18 -133 18q-153 0 -292.5 -90t-235 -235.5t-142.5 -321.5q24 28 55.5 54.5t80.5 58.5t115.5 51.5t137.5 19.5q92 0 165.5 -34.5t117.5 -91.5t67 -125t23 -140 q0 -102 -33 -198t-93 -173.5t-154 -124.5t-207 -47q-81 0 -148.5 27.5t-113 73.5t-77.5 107t-46.5 127.5t-14.5 136.5zM223 453q0 -58 11.5 -114t36.5 -107t60.5 -89t87.5 -61t113 -23q89 0 165.5 38.5t126.5 103t78 147t28 172.5q0 57 -17 110t-49.5 98.5t-89 73 t-127.5 27.5q-95 0 -187 -47t-149 -105.5t-82 -113.5q-6 -55 -6 -110z" />
<glyph unicode="7" horiz-adv-x="940" d="M178 0q24 132 74.5 276t106.5 262.5t132 247t131.5 211.5t124 175t90.5 119.5t50 60.5h-690l14 82h809l-12 -66q-13 -14 -35 -39.5t-87.5 -108.5t-127 -170.5t-141 -217t-142 -255.5t-117 -280t-79.5 -297h-101z" />
<glyph unicode="8" horiz-adv-x="1189" d="M90 319q0 77 28 145.5t69.5 115.5t100 87.5t109 64.5t107.5 44q-199 100 -199 301q0 113 59.5 200.5t156.5 133t212 45.5q154 0 250 -83t96 -222q0 -262 -348 -385q283 -136 283 -367q0 -124 -77.5 -222.5t-197 -149t-254.5 -50.5q-173 0 -284 89t-111 253zM184 317 q0 -125 82 -191.5t217 -66.5q110 0 208.5 41t162.5 119.5t64 177.5q0 202 -302 332q-67 -23 -120.5 -45.5t-114.5 -60t-102 -79t-68 -100.5t-27 -127zM395 1077q0 -170 223 -262q58 19 105 38.5t99 49.5t86.5 63t57.5 79t23 98q0 99 -71.5 165t-186.5 66q-136 0 -236 -87.5 t-100 -209.5z" />
<glyph unicode="9" horiz-adv-x="1169" d="M106 4l37 74q55 -19 133 -19q115 0 224 52t194.5 141t151 206t100.5 249q-25 -28 -56.5 -55.5t-81 -59t-115 -51t-136.5 -19.5q-92 0 -165.5 34.5t-117.5 91.5t-67 125t-23 140q0 102 33 198.5t93.5 173.5t154.5 124t207 47q100 0 179 -41t125.5 -109.5t70.5 -150.5 t24 -170q0 -201 -63.5 -387t-170 -322t-253 -217.5t-305.5 -81.5q-44 0 -87 6.5t-64 13.5zM276 913q0 -57 17 -110t50 -98.5t89.5 -73t128.5 -27.5q94 0 185.5 46.5t148.5 104.5t82 113q6 55 6 113q0 73 -19 141.5t-55.5 125.5t-97.5 91.5t-137 34.5q-89 0 -165.5 -38.5 t-126.5 -103t-78 -147t-28 -172.5z" />
<glyph unicode=":" horiz-adv-x="460" d="M61 0l33 186h121l-33 -186h-121zM190 733l33 187h121l-33 -187h-121z" />
<glyph unicode=";" horiz-adv-x="493" d="M27 -201l106 201h-57l33 186h116l-12 -186l-154 -242zM205 733l33 187h120l-32 -187h-121z" />
<glyph unicode="&#x3c;" d="M96 645l15 78l1003 436l-18 -104l-893 -377l760 -377l-17 -92z" />
<glyph unicode="=" horiz-adv-x="1169" d="M90 467l14 78h930l-14 -78h-930zM154 823l14 78h930l-15 -78h-929z" />
<glyph unicode="&#x3e;" d="M76 209l18 104l893 377l-760 377l17 92l850 -436l-15 -78z" />
<glyph unicode="?" horiz-adv-x="940" d="M201 1311q216 145 405 145q63 0 118.5 -15.5t104 -47.5t77 -89.5t28.5 -134.5q0 -88 -38.5 -163t-106 -129.5t-150 -92.5t-180.5 -63l-66 -315h-76l54 374q76 18 141.5 41t128 57.5t106.5 75.5t70.5 96t26.5 119q0 106 -65.5 155.5t-168.5 49.5q-64 0 -132.5 -20.5 t-115.5 -44.5t-118 -66zM223 0l33 186h121l-33 -186h-121z" />
<glyph unicode="@" horiz-adv-x="1890" d="M106 369q0 155 42.5 305t127.5 282t201.5 232.5t275.5 158.5t339 58q124 0 228 -29.5t180 -85t131 -134.5t81.5 -177.5t32 -214t-18.5 -244.5q-48 -257 -160 -406t-284 -149q-51 0 -88 15.5t-55 40t-29 56t-9.5 64t3.5 62.5q-177 -154 -348 -154q-91 0 -158.5 67.5 t-67.5 170.5q0 94 28 166.5t75.5 115.5t104 64.5t118.5 21.5q39 0 88.5 -7t82.5 -14.5t82.5 -20t61.5 -15.5l25 131q21 119 -10.5 171t-141.5 52q-114 0 -315 -92l-29 80q88 40 185 65t166 25q130 0 193 -69t36 -216l-82 -462q-5 -29 -7.5 -46t-5 -46t-0.5 -47t8.5 -39.5 t19 -34t33.5 -21t50 -8.5q30 0 65.5 13t79 47t81.5 86t73 138.5t54 194.5q22 115 19 219.5t-24 194t-68.5 162t-115 124t-163.5 79.5t-214 28q-160 0 -303 -52t-250 -143t-185.5 -211.5t-118.5 -261.5t-40 -288q0 -187 67 -335.5t199 -236.5t310 -88q65 0 127 10.5t104.5 25 t76 29.5t49.5 26l16 10l41 -68q-7 -5 -19 -12t-53.5 -26.5t-87 -34t-116 -26.5t-142.5 -12q-150 0 -273.5 57.5t-206 157t-127.5 233.5t-45 288zM618 295q0 -85 43.5 -126.5t118.5 -41.5q73 0 165 49.5t173 122.5l41 236q-14 2 -69.5 14.5t-106.5 20.5t-94 8q-74 0 -129 -26 t-84.5 -69t-43.5 -90t-14 -98z" />
<glyph unicode="A" horiz-adv-x="1273" d="M-33 0l768 1434h101l262 -1434h-92l-70 395h-657l-207 -395h-105zM322 477h600l-150 854z" />
<glyph unicode="B" horiz-adv-x="1282" d="M111 0l254 1434h413q179 0 279 -84t100 -226q0 -84 -30.5 -153.5t-78.5 -112t-97.5 -68t-96.5 -32.5q30 -5 61 -17.5t67 -37.5t63 -58.5t45 -85.5t18 -115q0 -206 -128.5 -325t-358.5 -119h-510zM215 82h420q183 0 284 105t101 259q0 128 -87.5 197.5t-227.5 69.5h-377z M342 795h358q57 0 119 20.5t118.5 59t93 104t36.5 145.5q0 104 -72.5 166t-218.5 62h-336z" />
<glyph unicode="C" horiz-adv-x="1230" d="M154 547q0 203 54 376.5t143.5 288.5t206.5 179.5t243 64.5q56 0 111 -14.5t95 -33t88.5 -53t75.5 -57.5t72 -63l-59 -59q-112 102 -198.5 150t-182.5 48q-109 0 -210 -61t-177.5 -168t-122 -263t-45.5 -335q0 -248 84 -368t219 -120q97 0 220 57.5t239 143.5l49 -70 q-143 -97 -267.5 -155t-246.5 -58q-83 0 -151.5 31t-123.5 96.5t-85.5 178t-30.5 264.5z" />
<glyph unicode="D" horiz-adv-x="1333" d="M111 0l254 1434h294q123 0 224 -33.5t177.5 -99.5t118.5 -173.5t42 -246.5q0 -206 -57.5 -372.5t-161.5 -277.5t-249.5 -171t-320.5 -60h-321zM215 82h211q154 0 282.5 53.5t221.5 153.5t144.5 251.5t51.5 340.5q0 250 -124.5 360.5t-358.5 110.5h-203z" />
<glyph unicode="E" horiz-adv-x="1134" d="M111 0l254 1434h778l-15 -82h-688l-104 -594h571l-14 -82h-571l-107 -594h703l-15 -82h-792z" />
<glyph unicode="F" horiz-adv-x="1083" d="M111 0l254 1434h778l-15 -82h-688l-104 -594h551l-15 -82h-550l-121 -676h-90z" />
<glyph unicode="G" horiz-adv-x="1345" d="M156 524q0 183 37 338t99 262.5t145 183.5t174 112t186 36q228 0 465 -242l-66 -57q-37 35 -56 52.5t-66.5 54.5t-84.5 56.5t-89.5 36.5t-102.5 17q-108 0 -207 -60.5t-174 -167t-119.5 -263.5t-44.5 -340q0 -227 77.5 -355.5t219.5 -128.5q192 0 485 246l66 369h-393 l14 82h483l-133 -756h-90l33 190q-265 -213 -465 -213q-83 0 -153 32.5t-124.5 97.5t-85 171.5t-30.5 245.5z" />
<glyph unicode="H" horiz-adv-x="1353" d="M111 0l254 1434h90l-115 -641h735l115 641h90l-254 -1434h-90l125 711h-735l-125 -711h-90z" />
<glyph unicode="I" horiz-adv-x="528" d="M111 0l254 1434h90l-254 -1434h-90z" />
<glyph unicode="J" horiz-adv-x="526" d="M-145 -184q51 16 87 30t63 26t45 29.5t29 30t19 38t12 43t11 55.5l241 1366h91l-242 -1366q-22 -122 -42 -162q-31 -65 -115 -107q-62 -30 -177 -63z" />
<glyph unicode="K" horiz-adv-x="1210" d="M111 0l254 1434h90l-156 -873l827 873h117l-661 -695l479 -739h-105l-436 676l-246 -258l-73 -418h-90z" />
<glyph unicode="L" horiz-adv-x="1026" d="M111 0l254 1434h90l-240 -1352h670l-15 -82h-759z" />
<glyph unicode="M" horiz-adv-x="1599" d="M111 0l254 1434h98l287 -1088l677 1088h99l-254 -1434h-90l221 1249l-629 -1009h-74l-274 1032l-225 -1272h-90z" />
<glyph unicode="N" horiz-adv-x="1384" d="M111 0l254 1434h96l530 -1299l230 1299h90l-254 -1434h-94l-533 1300l-229 -1300h-90z" />
<glyph unicode="O" horiz-adv-x="1415" d="M152 543q0 125 26 252t81 246t132 211t187 148t237 56q110 0 194 -28t138 -77t88.5 -121.5t48.5 -155t14 -183.5q0 -125 -26 -252t-81 -246t-132 -211.5t-187 -148.5t-237 -56q-110 0 -194 28t-138 77t-88.5 122t-48.5 155.5t-14 183.5zM244 541q0 -54 3 -97.5t13 -95 t26.5 -91t46 -78.5t70 -64t99.5 -40.5t133 -15.5q96 0 180 39.5t145 106t109 151.5t77.5 179.5t44.5 185t15 172.5q0 54 -3 97.5t-13 95t-26.5 91t-46 78t-70 63.5t-99.5 40.5t-133 15.5q-96 0 -180 -39.5t-145 -106t-109 -151t-77.5 -179t-44.5 -185t-15 -172.5z" />
<glyph unicode="P" horiz-adv-x="1226" d="M111 0l254 1434h419q69 0 128 -11t112 -37.5t90.5 -66.5t59.5 -101t22 -139q0 -103 -29 -186t-79.5 -138.5t-121 -93t-151 -54.5t-172.5 -17h-336l-106 -590h-90zM322 672h331q91 0 170 23.5t142.5 71t100 127.5t36.5 185q0 73 -23.5 126.5t-67 85t-99 46.5t-124.5 15 h-348z" />
<glyph unicode="Q" horiz-adv-x="1415" d="M152 543q0 125 26 252t81 246t132 211t187 148t237 56q110 0 194 -28t138 -77t88.5 -121.5t48.5 -155t14 -183.5q0 -116 -23 -235t-71 -232.5t-115.5 -205t-163.5 -154.5t-208 -80l205 -220l-72 -59l-227 272q-107 2 -189 31t-135 78.5t-86.5 121.5t-47 153.5 t-13.5 181.5zM244 541q0 -54 3 -97.5t13 -95t26.5 -91t46 -78.5t70 -64t99.5 -40.5t133 -15.5q96 0 180 39.5t145 106t109 151.5t77.5 179.5t44.5 185t15 172.5q0 54 -3 97.5t-13 95t-26.5 91t-46 78t-70 63.5t-99.5 40.5t-133 15.5q-96 0 -180 -39.5t-145 -106t-109 -151 t-77.5 -179t-44.5 -185t-15 -172.5z" />
<glyph unicode="R" horiz-adv-x="1296" d="M111 0l254 1434h469q87 0 158.5 -18t129 -56.5t89.5 -105t32 -156.5q0 -108 -36.5 -192.5t-101 -137.5t-144 -83.5t-173.5 -39.5l265 -645h-95l-253 643h-390l-114 -643h-90zM330 725h383q200 0 318 95.5t118 275.5q0 131 -86 193.5t-232 62.5h-391z" />
<glyph unicode="S" horiz-adv-x="1153" d="M39 143l57 72q223 -156 428 -156q159 0 269 87.5t110 230.5q0 39 -10 72.5t-24 59.5t-41 51t-50 42t-64 38t-68.5 33.5t-76.5 33.5q-50 21 -77.5 33.5t-69 34.5t-64.5 40t-51 46t-42 57t-24 68.5t-10 84.5q0 120 62.5 209.5t161 132.5t217.5 43q114 0 228.5 -39 t205.5 -94l-55 -66q-85 52 -190.5 84.5t-196.5 32.5q-90 0 -166 -33t-125 -103t-49 -165q0 -39 7 -69.5t27.5 -57t39 -44t59.5 -39.5t70 -35.5t89 -39.5q46 -20 72.5 -32t67.5 -32.5t65 -37.5t55 -41.5t48.5 -50t34.5 -57.5t24.5 -70t7.5 -82q0 -80 -27 -148t-73.5 -115 t-107.5 -80.5t-128 -49t-137 -15.5q-132 0 -257 49.5t-222 116.5z" />
<glyph unicode="T" horiz-adv-x="1052" d="M182 1352l15 82h948l-15 -82h-430l-239 -1352h-90l239 1352h-428z" />
<glyph unicode="U" horiz-adv-x="1337" d="M170 321.5q0 77.5 14 165.5l168 947h90l-166 -940q-14 -77 -16 -138v-16q0 -52 11 -102q13 -58 45.5 -95.5t92.5 -60.5t146 -23q385 0 463 435l166 940h90l-168 -947q-15 -87 -42 -160.5t-72 -139.5t-105 -111.5t-144.5 -72t-187.5 -26.5q-100 0 -174 25t-118 70 t-68.5 108.5t-24.5 141z" />
<glyph unicode="V" horiz-adv-x="1267" d="M209 1434h92l234 -1332l700 1332h104l-768 -1434h-100z" />
<glyph unicode="W" horiz-adv-x="1753" d="M229 1434h95l86 -1321l557 1321h100l82 -1332l553 1332h100l-614 -1434h-109l-84 1298l-546 -1298h-109z" />
<glyph unicode="X" horiz-adv-x="1144" d="M-39 0l586 709l-311 725h96l264 -650l494 650h110l-567 -723l338 -711h-101l-286 639l-508 -639h-115z" />
<glyph unicode="Y" d="M193 1434h94l291 -789l565 789h110l-637 -865l-100 -569h-90l100 567z" />
<glyph unicode="Z" horiz-adv-x="1155" d="M-14 0l14 78l1055 1274h-789l15 82h901l-13 -76l-1056 -1276h841l-14 -82h-954z" />
<glyph unicode="[" horiz-adv-x="641" d="M41 -295l356 2013h355l-15 -82h-264l-328 -1849h265l-15 -82h-354z" />
<glyph unicode="\" horiz-adv-x="819" d="M229 1618h80l314 -1802h-80z" />
<glyph unicode="]" horiz-adv-x="643" d="M-76 -295l15 82h264l327 1849h-264l15 82h354l-356 -2013h-355z" />
<glyph unicode="^" d="M205 739l483 695h90l240 -695h-92l-203 617l-410 -617h-108z" />
<glyph unicode="_" horiz-adv-x="1345" d="M16 -258l13 74h1003l-12 -74h-1004z" />
<glyph unicode="`" horiz-adv-x="399" d="M274 1493h146l192 -256h-69z" />
<glyph unicode="a" horiz-adv-x="1136" d="M104 340q0 213 59 385.5t167 272.5t245 100q55 0 107 -17.5t97 -49t76 -59.5t65 -65l30 168h86l-190 -1075h-86l33 188q-207 -211 -406 -211q-43 0 -83 11.5t-77 39t-64 68.5t-43 103.5t-16 140.5zM195 348q0 -138 49.5 -215.5t144.5 -77.5q60 0 117 18.5t112 55.5t97 73 t96 89l94 530q-163 199 -323 199q-70 0 -132.5 -38.5t-108.5 -104t-79.5 -151t-50 -182.5t-16.5 -196z" />
<glyph unicode="b" horiz-adv-x="1128" d="M72 0l264 1493h86l-100 -569q192 174 364 174q62 0 116.5 -19.5t100 -60.5t72 -113.5t26.5 -169.5q0 -213 -56 -385.5t-160.5 -272.5t-237.5 -100q-59 0 -113.5 17t-102 49t-77.5 57.5t-68 63.5l-28 -164h-86zM203 250q167 -195 338 -195q84 0 155 58.5t117 154.5 t72 215.5t26 243.5q0 140 -57 216.5t-170 76.5q-51 0 -101.5 -15.5t-101.5 -46.5t-88.5 -59.5t-89.5 -73.5z" />
<glyph unicode="c" horiz-adv-x="987" d="M102 416q0 126 29.5 237t79 191t114 138.5t136 87t143.5 28.5q58 0 113 -15.5t107.5 -48t72 -47t61.5 -47.5l-55 -57l-25 20q-26 20 -40 30t-45.5 29.5t-56.5 30t-59.5 19t-66.5 8.5q-78 0 -152.5 -44t-133.5 -120.5t-95 -190.5t-36 -243q0 -174 64 -270.5t183 -96.5 q32 0 68.5 8.5t66.5 20t65.5 30t56 30.5t47.5 29t32 20l43 -72q-8 -4 -45.5 -25.5t-58 -32.5t-61.5 -30t-72.5 -29t-72 -18.5t-77.5 -8.5q-149 0 -239.5 118.5t-90.5 320.5z" />
<glyph unicode="d" horiz-adv-x="1136" d="M104 340q0 213 59 385.5t167 272.5t245 100q55 0 107 -17.5t97 -49t76 -59.5t65 -65l104 586h86l-264 -1493h-86l33 188q-207 -211 -406 -211q-43 0 -83 11.5t-77 39t-64 68.5t-43 103.5t-16 140.5zM195 348q0 -138 49.5 -215.5t144.5 -77.5q60 0 117 18.5t112 55.5 t97 73t96 89l94 530q-163 199 -323 199q-70 0 -132.5 -38.5t-108.5 -104t-79.5 -151t-50 -182.5t-16.5 -196z" />
<glyph unicode="e" horiz-adv-x="1058" d="M104 434q0 190 69.5 341.5t195 237t284.5 85.5q149 0 229.5 -74.5t80.5 -187.5q0 -168 -161 -263.5t-487 -95.5h-120v-45q0 -181 68.5 -279t193.5 -98q37 0 78.5 9.5t73 21t73 33t60.5 33t55 34.5t39 25l43 -70l-35 -21q-36 -22 -45.5 -27.5t-46.5 -26t-56 -28.5 t-55 -22.5t-62.5 -21t-60.5 -12t-65 -5.5q-159 0 -254 119t-95 338zM203 555h127q272 0 406 76t134 209q0 84 -63 132t-160 48q-166 0 -290 -127t-154 -338z" />
<glyph unicode="f" horiz-adv-x="643" d="M-168 -342q36 11 63.5 20.5t52 21.5t41 20.5t32.5 24t25.5 26t19 32t15 36.5t12.5 45.5t11 52.5t11 63l174 1001h-135l14 74h135l37 211q20 115 67 161t140 46q54 0 136 -21t132 -40l-43 -66q-38 13 -113 31t-112 18q-57 0 -83.5 -35t-37.5 -94l-37 -211h279l-15 -74 h-276l-174 -1001q-15 -87 -22.5 -124t-25 -88.5t-36.5 -71.5t-56.5 -48.5t-85.5 -46t-124 -39.5z" />
<glyph unicode="g" horiz-adv-x="1134" d="M8 -367l33 82q225 -75 387 -75q77 0 137 25t95 66t54 83t27 88l50 284q-205 -209 -404 -209q-43 0 -83 11.5t-77 39t-64 68.5t-43 103.5t-16 140.5q0 213 59 385.5t167 272.5t245 100q170 0 345 -189l28 166h86l-207 -1177q-59 -336 -405 -336q-88 0 -202.5 20t-211.5 51 zM195 348q0 -138 49.5 -215.5t144.5 -77.5q59 0 115.5 18.5t111.5 55.5t96.5 72t96.5 88l94 534q-162 197 -321 197q-70 0 -132.5 -38.5t-108.5 -104t-79.5 -151t-50 -182.5t-16.5 -196z" />
<glyph unicode="h" horiz-adv-x="1130" d="M72 0l264 1493h86l-103 -578q82 63 205.5 123t235.5 60q141 0 196 -90q37 -61 38 -149q0 -41 -9 -87l-135 -772h-88l135 764q9 49 9 88q0 168 -156 168q-104 0 -233 -66.5t-216 -136.5l-143 -817h-86z" />
<glyph unicode="i" horiz-adv-x="448" d="M72 0l190 1075h86l-190 -1075h-86zM297 1327l29 160h104l-29 -160h-104z" />
<glyph unicode="j" horiz-adv-x="450" d="M-211 -342q59 18 99 33t68.5 34t44.5 33.5t27.5 42.5t16 48.5t12.5 64.5l205 1161h88l-207 -1161q-22 -122 -41 -162q-31 -65 -114 -106q-61 -30 -178 -64zM299 1327l29 160h104l-29 -160h-104z" />
<glyph unicode="k" horiz-adv-x="944" d="M72 0l264 1493h86l-184 -1047l577 629h107l-416 -440l285 -635h-89l-256 571l-231 -243l-57 -328h-86z" />
<glyph unicode="l" horiz-adv-x="473" d="M84 0l264 1493h86l-264 -1493h-86z" />
<glyph unicode="m" horiz-adv-x="1724" d="M72 0l190 1075h86l-31 -172q82 76 187 135.5t209 59.5q113 0 168.5 -60t60.5 -153q36 34 75 65t95.5 67.5t121 58.5t124.5 22q75 0 126 -27t73 -72t29 -104q2 -20 3 -40q0 -40 -10 -83l-135 -772h-88l137 764q9 40 9 77q0 10 -1 20q-3 46 -16.5 81.5t-48 56.5t-86.5 21 q-69 0 -154.5 -41.5t-144 -87.5t-115.5 -100l-137 -791h-86l137 764q9 40 9 77q0 10 -1 20q-3 46 -17.5 81.5t-49 56.5t-86.5 21q-97 0 -206 -68t-200 -155l-141 -797h-86z" />
<glyph unicode="n" horiz-adv-x="1130" d="M72 0l190 1075h86l-29 -160q82 63 205.5 123t235.5 60q141 0 196 -90q37 -61 38 -149q0 -41 -9 -87l-135 -772h-88l135 764q9 49 9 88q0 168 -156 168q-104 0 -233 -66.5t-216 -136.5l-143 -817h-86z" />
<glyph unicode="o" horiz-adv-x="1144" d="M102 401q0 200 66.5 359.5t182.5 248.5t259 89q198 0 301 -110t103 -314q0 -200 -66.5 -359.5t-182.5 -248.5t-259 -89q-198 0 -301 110t-103 314zM190 408q0 -61 8.5 -111t30 -96.5t56.5 -77.5t91.5 -49.5t131.5 -18.5q123 0 220 87.5t147.5 226.5t50.5 299 q0 61 -8.5 111t-30 96t-56.5 77t-91.5 49.5t-131.5 18.5q-123 0 -220 -87.5t-147.5 -226t-50.5 -298.5z" />
<glyph unicode="p" horiz-adv-x="1128" d="M-2 -418l264 1493h86l-26 -151q192 174 364 174q62 0 116.5 -19.5t100 -60.5t72 -113.5t26.5 -169.5q0 -213 -56 -385.5t-160.5 -272.5t-237.5 -100q-59 0 -113.5 17t-102 49t-77.5 57.5t-68 63.5l-102 -582h-86zM203 250q167 -195 338 -195q84 0 155.5 58.5t117.5 154.5 t71.5 215.5t25.5 243.5q0 140 -57 216.5t-170 76.5q-51 0 -101.5 -15.5t-101.5 -46.5t-88.5 -59.5t-89.5 -73.5z" />
<glyph unicode="q" horiz-adv-x="1136" d="M104 340q0 213 59 385.5t167 272.5t245 100q55 0 107 -17.5t97 -49t76 -59.5t65 -65l30 168h86l-264 -1493h-86l107 606q-207 -211 -406 -211q-43 0 -83 11.5t-77 39t-64 68.5t-43 103.5t-16 140.5zM195 348q0 -138 49.5 -215.5t144.5 -77.5q60 0 117 18.5t112 55.5 t97 73t96 89l94 530q-163 199 -323 199q-70 0 -132.5 -38.5t-108.5 -104t-79.5 -151t-50 -182.5t-16.5 -196z" />
<glyph unicode="r" horiz-adv-x="696" d="M72 0l190 1075h86l-43 -233q11 18 25 38.5t55 64t85 74t114 52.5q55 17 111 17q16 0 32 -1l-16 -83q-65 0 -124 -18.5t-101.5 -48t-79 -65.5t-60.5 -72t-40.5 -65.5t-23.5 -48.5l-8 -18l-116 -668h-86z" />
<glyph unicode="s" horiz-adv-x="960" d="M23 111l55 63q188 -119 338 -119q72 0 136 24.5t108.5 79t44.5 128.5q0 47 -16 81.5t-60 61.5t-70.5 38.5t-97.5 37.5q-14 5 -21 8q-35 13 -57 21.5t-54.5 23.5t-52.5 29.5t-44 36.5t-37 46t-22 57t-9 71q0 72 29.5 130t79.5 94.5t113 55.5t132 19q97 0 193 -34t163 -79 l-49 -63q-161 98 -307 98q-111 0 -189.5 -58t-78.5 -157q0 -20 4 -38t9.5 -32.5t17.5 -28.5t20.5 -23.5t26.5 -20.5t28 -16.5t32.5 -15.5t31.5 -13.5t34.5 -12.5t32.5 -12q65 -24 107 -43t83.5 -45t64.5 -55t37 -68t14 -88q0 -103 -55.5 -176.5t-138 -106.5t-179.5 -33 q-192 0 -397 134z" />
<glyph unicode="t" horiz-adv-x="675" d="M132 104q-3 14 -3 31q0 28 8 62l144 804h-140l15 74h137l49 271l92 40l-55 -311h274l-14 -74h-274l-146 -825q-4 -21 -4 -39q0 -82 82 -82q60 0 213 64l27 -74q-41 -19 -119.5 -43.5t-122.5 -24.5q-29 0 -53.5 5.5t-49.5 19.5t-39 39t-21 63z" />
<glyph unicode="u" horiz-adv-x="1132" d="M119 303l135 772h86l-135 -764q-8 -48 -8 -87q0 -169 157 -169q103 0 232.5 66t214.5 135l145 819h86l-190 -1075h-86l26 158q-53 -38 -111.5 -73t-154 -71.5t-172.5 -36.5q-141 1 -196 91q-37 61 -37 148q0 40 8 87z" />
<glyph unicode="v" horiz-adv-x="1032" d="M154 1075h90l172 -971l516 971h102l-590 -1075h-86z" />
<glyph unicode="w" horiz-adv-x="1515" d="M164 1075h90l96 -969l438 969h95l88 -975l440 975h96l-501 -1075h-93l-94 961l-440 -961h-92z" />
<glyph unicode="x" horiz-adv-x="1058" d="M-49 0l520 541l-309 534h100l258 -465l422 465h121l-500 -534l330 -541h-100l-277 475l-442 -475h-123z" />
<glyph unicode="y" horiz-adv-x="1032" d="M-29 -336q114 38 179 79t105.5 94t100.5 163l2 6l-204 1069h90l174 -960l518 960h98l-588 -1075q-93 -169 -127 -216q-62 -84 -157 -134q-62 -32 -168 -68z" />
<glyph unicode="z" horiz-adv-x="925" d="M-14 0l14 80l786 917h-606l15 78h710l-14 -80l-787 -917h625l-14 -78h-729z" />
<glyph unicode="{" horiz-adv-x="761" d="M96 653l21 119q62 -1 109 26t71.5 70t36.5 85t14 83l8 191q5 116 32 203t83 153.5t149 100.5t222 34h35l-15 -82h-35q-100 0 -172.5 -30t-113.5 -85t-61.5 -120t-26.5 -148l-11 -202q-15 -288 -233 -342q40 -13 69.5 -37t50 -65t20 -97.5t-20.5 -134.5l-60 -203 q-14 -49 -22 -87t-11 -79.5t3.5 -71.5t24 -59t48 -47t79 -28.5t112.5 -10.5h35l-15 -82h-35q-120 0 -198.5 34.5t-113 100.5t-34 154.5t34.5 202.5l57 190q18 62 20.5 109t-7.5 76t-33 47t-51.5 25t-65.5 7z" />
<glyph unicode="|" horiz-adv-x="485" d="M49 -252l342 1927h78l-342 -1927h-78z" />
<glyph unicode="}" horiz-adv-x="759" d="M-80 -293l14 82h35q349 0 375 383l10 203q15 288 234 342q-40 13 -69.5 37t-50 65t-20 97.5t20.5 134.5l59 202q14 49 22 86.5t11 79.5t-3 72t-24 59t-48 47t-78.5 28.5t-112.5 10.5h-35l14 82h35q236 0 309 -129.5t3 -361.5l-58 -191q-18 -62 -20.5 -109t7.5 -76t33 -47 t51.5 -25t65.5 -7l-20 -119q-62 1 -109 -26t-71.5 -70t-36.5 -85t-14 -83l-9 -190q-5 -116 -32 -203t-82.5 -153.5t-148.5 -101t-222 -34.5h-35z" />
<glyph unicode="~" d="M70 483q125 195 299 195q62 0 123.5 -24t103 -52t96.5 -52t105 -24q108 0 207 144l73 -35q-125 -195 -299 -195q-62 0 -123.5 24t-103 52t-96.5 52t-105 24q-51 0 -99.5 -30.5t-105.5 -112.5z" />
<glyph unicode="&#xa1;" horiz-adv-x="505" d="M94 0l203 1028h57l-157 -1028h-103zM303 1247l33 187h121l-33 -187h-121z" />
<glyph unicode="&#xa2;" horiz-adv-x="1071" d="M154 596q0 126 29 237t78.5 191t114 138.5t136 87t143.5 28.5l29 156h78l-29 -164q22 -5 43.5 -11.5t43 -16.5t38 -17.5t37.5 -21t32 -20.5t31 -23t25.5 -20t24.5 -20l20 -16l-55 -57q-1 1 -27.5 23t-45 35t-49.5 33.5t-64.5 34.5t-67.5 21l-166 -952q35 7 71.5 20.5 t73.5 33.5t59.5 32.5t55.5 34t35 22.5l41 -72q-7 -4 -49.5 -29t-68 -38.5t-68 -34t-83.5 -32.5t-81 -17l-29 -162h-78l27 158q-138 11 -221.5 127.5t-83.5 310.5zM244 602q0 -169 58.5 -264t170.5 -102l170 964q-75 -5 -147 -51t-128 -122.5t-90 -187.5t-34 -237z" />
<glyph unicode="&#xa3;" horiz-adv-x="1040" d="M35 0l12 72q11 9 29.5 25t67 67t88.5 103.5t78.5 128.5t51.5 147h-210l14 82h205q-1 56 -17 115.5t-35 102.5t-35 102t-16 114q0 175 112.5 286t293.5 111q71 0 142.5 -22t114.5 -45t99 -57q11 -8 17 -11l-58 -66q-194 119 -319 119q-140 0 -227 -93t-87 -218 q0 -60 16 -120t35 -101.5t35 -100t17 -116.5h313l-14 -82h-305q-11 -66 -41 -134t-57.5 -111.5t-75 -98.5t-61.5 -69t-50 -48h635l-15 -82h-753z" />
<glyph unicode="&#xa5;" horiz-adv-x="1224" d="M145 375l15 78h379l20 114l-22 58h-347l13 77h303l-281 732h94l291 -789l566 789h110l-538 -732h303l-15 -77h-346l-41 -56l-20 -116h379l-17 -78h-377l-65 -375h-90l65 375h-379z" />
<glyph unicode="&#xa6;" horiz-adv-x="489" d="M51 -252l150 846h78l-150 -846h-78zM244 829l149 846h78l-149 -846h-78z" />
<glyph unicode="&#xa7;" horiz-adv-x="1036" d="M63 -35l52 64q163 -99 307 -99q112 0 190 58t78 157q0 45 -16 78.5t-54 58.5t-62.5 36t-80.5 31l-24 9q-79 29 -129.5 54t-94.5 59.5t-64 78.5t-20 101q0 115 74 186.5t191 94.5q-65 38 -101.5 90.5t-36.5 134.5q0 141 105 220t252 79q97 0 193 -34t163 -79l-51 -63 q-161 98 -305 98q-114 0 -192.5 -58t-78.5 -157q0 -20 4.5 -38.5t9.5 -32.5t17.5 -28t20.5 -23t27 -20.5t28 -17t32.5 -15.5t32 -13t35 -13t33.5 -12q158 -58 230.5 -121t72.5 -172q0 -115 -72.5 -185t-189.5 -95q65 -38 101 -90.5t36 -134.5q0 -141 -104.5 -220t-249.5 -79 q-99 0 -194.5 33.5t-164.5 78.5zM233 662q0 -28 8 -52t18.5 -41.5t33.5 -35.5t40 -28.5t51.5 -25t54 -21.5t61.5 -22l32 -12q73 2 135.5 26.5t104 76t41.5 120.5q0 32 -8 58.5t-28.5 48t-39 36.5t-55.5 31.5t-60 25t-71 25.5l-35 13q-116 -5 -199.5 -63t-83.5 -160z" />
<glyph unicode="&#xa8;" horiz-adv-x="436" d="M229 1257l29 160h119l-29 -160h-119zM532 1257l29 160h119l-29 -160h-119z" />
<glyph unicode="&#xa9;" horiz-adv-x="1744" d="M162 641q0 131 32.5 251.5t98 223t158 178.5t219 119t274.5 43q206 0 360.5 -84.5t235 -234.5t80.5 -344q0 -131 -32.5 -251.5t-98.5 -223.5t-158 -179t-219.5 -119t-275.5 -43q-309 0 -491.5 184t-182.5 480zM238 643q0 -262 162.5 -427t443.5 -165q161 0 294.5 59 t221.5 160t136 235.5t48 285.5q0 128 -41.5 236.5t-117.5 187t-191 123t-256 44.5q-129 0 -241.5 -38t-195.5 -106t-143 -160.5t-90 -203t-30 -231.5zM512 618q-5 126 27 230.5t90 172t134.5 104t162.5 36.5q54 0 104.5 -12.5t94 -37t69 -42t59.5 -45.5l-53 -57 q-37 32 -66.5 52.5t-88.5 43t-119 22.5q-144 0 -238.5 -131.5t-87.5 -330.5q5 -128 59 -201.5t146 -73.5q154 0 317 115l45 -66q-53 -35 -95 -58t-115 -46t-144 -23q-126 0 -210.5 91.5t-90.5 256.5z" />
<glyph unicode="&#xaa;" horiz-adv-x="851" d="M215 1001q0 192 83 319.5t212 127.5q104 0 213 -109l16 95h80l-112 -646h-80l18 105q-123 -119 -248 -119q-77 0 -129.5 55t-52.5 172zM297 1008q0 -77 29.5 -121.5t85.5 -44.5q66 0 123 34t122 95l54 301q-96 108 -191 108q-99 0 -161 -112.5t-62 -259.5z" />
<glyph unicode="&#xab;" horiz-adv-x="1304" d="M76 551l12 65l655 467l-20 -108l-553 -402l414 -397l-15 -92zM588 551l12 65l655 467l-20 -108l-553 -402l414 -397l-15 -92z" />
<glyph unicode="&#xac;" d="M49 643l14 78h1070l-95 -537h-88l80 459h-981z" />
<glyph unicode="&#xad;" horiz-adv-x="839" d="M158 541l14 86h498l-17 -86h-495z" />
<glyph unicode="&#xae;" horiz-adv-x="1054" d="M207 1042q0 87 28 164.5t79.5 137.5t132 95.5t178.5 35.5q164 0 261 -98t97 -257q0 -117 -47 -213.5t-143.5 -157.5t-225.5 -61q-165 0 -262.5 97.5t-97.5 256.5zM276 1044q0 -127 79 -207.5t216 -80.5q159 0 253 103.5t94 258.5q0 127 -81.5 208t-218.5 81 q-158 0 -250 -104t-92 -259zM418 889l69 395h175q55 0 87.5 -29t32.5 -73q0 -50 -33.5 -82t-89.5 -41l66 -170h-70l-61 168h-80l-29 -168h-67zM526 1118h101q44 0 66 18t22 46q0 41 -56 41h-114z" />
<glyph unicode="&#xaf;" horiz-adv-x="542" d="M236 1288l12 74h532l-12 -74h-532z" />
<glyph unicode="&#xb0;" horiz-adv-x="901" d="M211 1112q0 132 94 227t227 95q132 0 227 -95t95 -227t-95 -226.5t-227 -94.5q-133 0 -227 94.5t-94 226.5zM283 1112q0 -102 73.5 -175t175.5 -73q101 0 174.5 73.5t73.5 174.5q0 103 -73.5 176.5t-174.5 73.5q-103 0 -176 -73.5t-73 -176.5z" />
<glyph unicode="&#xb1;" d="M10 0l15 78h929l-14 -78h-930zM121 629l14 78h422l64 362h79l-63 -362h428l-14 -78h-428l-64 -365h-80l64 365h-422z" />
<glyph unicode="&#xb2;" horiz-adv-x="731" d="M121 788l10 64q5 28 13 54t17 47t24.5 42.5t27.5 37t34 34t36 29.5t41 29t42 27.5t46 28.5t47 29q118 74 177.5 132t59.5 128q-2 54 -41.5 87.5t-109.5 33.5q-63 0 -126 -24t-106 -54l-32 62q131 88 268 88q104 0 166.5 -52t62.5 -143q0 -27 -5.5 -52.5t-20 -50 t-27 -43.5t-39 -42t-43 -37.5t-51.5 -38t-52 -34t-58 -36t-56 -34.5q-100 -63 -144.5 -112t-58.5 -128h449l-13 -72h-538z" />
<glyph unicode="&#xb3;" horiz-adv-x="743" d="M119 864l45 60q113 -78 229 -78q105 0 173.5 56.5t68.5 141.5q0 87 -70 134t-168 47h-39l13 73h45q97 0 176.5 54.5t79.5 128.5q0 51 -39.5 80.5t-104.5 29.5q-102 0 -217 -71l-28 61q138 82 258 82q98 0 156.5 -50t58.5 -124q0 -69 -51.5 -131.5t-155.5 -97.5 q72 -16 121 -76t49 -142q0 -110 -86 -189t-238 -79q-140 0 -276 90z" />
<glyph unicode="&#xb4;" horiz-adv-x="399" d="M227 1237l260 256h168l-346 -256h-82z" />
<glyph unicode="&#xb5;" horiz-adv-x="1187" d="M18 -418l265 1493h86l-136 -764q-45 -256 150 -256q103 0 231.5 66t214.5 135l146 819h86l-191 -1075h-86l27 158q-53 -38 -111.5 -73t-154 -71.5t-172.5 -36.5q-126 0 -187 74l-82 -469h-86z" />
<glyph unicode="&#xb6;" horiz-adv-x="1146" d="M150 948q0 220 141 353t379 133h82l-320 -1813h-86l176 993q-177 0 -274.5 87t-97.5 247zM672 -381l319 1815h86l-319 -1815h-86z" />
<glyph unicode="&#xb7;" horiz-adv-x="460" d="M147 489l33 187h121l-33 -187h-121z" />
<glyph unicode="&#xb8;" horiz-adv-x="313" d="M-51 -301l39 68q50 -27 102 -27q53 0 90 31.5t37 97.5q0 29 -7.5 63t-14.5 53l-7 19h50q6 -8 14.5 -22t22.5 -55.5t14 -80.5q0 -81 -52.5 -131.5t-146.5 -50.5q-79 0 -141 35z" />
<glyph unicode="&#xb9;" horiz-adv-x="534" d="M215 1540l213 109h72l-152 -861h-82l137 771l-159 -82z" />
<glyph unicode="&#xba;" horiz-adv-x="849" d="M213 1036q0 178 92 295t236 117q129 0 196.5 -68t67.5 -194q0 -178 -92 -295t-236 -117q-129 0 -196.5 68t-67.5 194zM293 1040q0 -94 40 -146t146 -52q109 0 177.5 102t68.5 238q0 94 -40 146t-144 52q-74 0 -132 -49.5t-87 -126.5t-29 -164z" />
<glyph unicode="&#xbb;" horiz-adv-x="1302" d="M41 84l20 109l553 401l-413 397l14 92l494 -467l-13 -65zM551 84l20 109l553 401l-413 397l14 92l494 -467l-13 -65z" />
<glyph unicode="&#xbc;" horiz-adv-x="1456" d="M176 0l881 1434h86l-881 -1434h-86zM190 1325l213 109h72l-151 -861h-82l137 770l-160 -81zM659 199l11 63l510 598h106l-106 -592h127l-11 -69h-129l-34 -199h-82l34 199h-426zM760 268h338l90 506z" />
<glyph unicode="&#xbd;" horiz-adv-x="1523" d="M176 0l881 1434h86l-881 -1434h-86zM190 1325l213 109h72l-151 -861h-82l137 770l-160 -81zM758 0l10 63q5 32 13.5 59.5t23 52.5t26 44t35 41t37 34.5t45 33.5t45.5 30t51.5 32t51.5 32q118 74 177.5 132t59.5 128q-2 54 -41.5 87.5t-109.5 33.5q-63 0 -126 -24 t-106 -54l-32 61q131 88 268 88q104 0 166.5 -51.5t62.5 -142.5q0 -25 -6 -49t-14 -43.5t-24.5 -41.5t-29.5 -37.5t-38.5 -36.5t-41.5 -33.5t-47.5 -33.5t-48 -31t-52 -32t-50.5 -31q-100 -63 -144.5 -111.5t-58.5 -127.5h449l-13 -72h-538z" />
<glyph unicode="&#xbe;" horiz-adv-x="1701" d="M109 649l45 60q113 -78 229 -78q105 0 173.5 56.5t68.5 141.5q0 87 -70 134t-168 47h-39l12 73h46q97 0 176.5 54.5t79.5 128.5q0 51 -39.5 80.5t-104.5 29.5q-102 0 -217 -71l-29 61q138 82 258 82q98 0 156.5 -50t58.5 -124q0 -69 -51 -132t-155 -98q72 -16 121 -75.5 t49 -141.5q0 -110 -86 -189t-238 -79q-140 0 -276 90zM426 0l881 1434h86l-881 -1434h-86zM905 199l10 63l510 598h107l-107 -592h127l-10 -69h-129l-35 -199h-82l35 199h-426zM1006 268h337l91 506z" />
<glyph unicode="&#xbf;" horiz-adv-x="935" d="M41 264q0 88 38.5 163.5t106 129.5t150 92.5t180.5 63.5l66 315h75l-53 -375q-76 -18 -141.5 -41t-128 -57.5t-106.5 -75.5t-70.5 -96t-26.5 -119q0 -106 65.5 -155.5t168.5 -49.5q64 0 132.5 20.5t115.5 44.5t118 66l43 -67q-218 -146 -405 -146q-63 0 -118.5 15.5 t-104 47.5t-77 89.5t-28.5 134.5zM598 1247l33 187h121l-33 -187h-121z" />
<glyph unicode="&#xc0;" horiz-adv-x="1273" d="M-33 0l768 1434h101l262 -1434h-92l-70 395h-657l-207 -395h-105zM322 477h600l-150 854zM588 1802h145l193 -256h-70z" />
<glyph unicode="&#xc1;" horiz-adv-x="1273" d="M-33 0l768 1434h101l262 -1434h-92l-70 395h-657l-207 -395h-105zM322 477h600l-150 854zM684 1546l260 256h168l-346 -256h-82z" />
<glyph unicode="&#xc2;" horiz-adv-x="1273" d="M-33 0l768 1434h101l262 -1434h-92l-70 395h-657l-207 -395h-105zM322 477h600l-150 854zM561 1546l223 256h131l136 -256h-68l-139 191l-203 -191h-80z" />
<glyph unicode="&#xc3;" horiz-adv-x="1273" d="M-33 0l768 1434h101l262 -1434h-92l-70 395h-657l-207 -395h-105zM322 477h600l-150 854zM557 1610q48 73 83 103t83 30q41 0 79.5 -25.5t70.5 -50.5t57 -25q24 0 46.5 18.5t61.5 76.5l58 -37q-48 -73 -83 -103t-83 -30q-41 0 -79 25t-70.5 50t-59.5 25 q-24 0 -46.5 -17.5t-60.5 -74.5z" />
<glyph unicode="&#xc4;" horiz-adv-x="1273" d="M-33 0l768 1434h101l262 -1434h-92l-70 395h-657l-207 -395h-105zM322 477h600l-150 854zM598 1567l29 159h118l-28 -159h-119zM901 1567l29 159h119l-29 -159h-119z" />
<glyph unicode="&#xc5;" horiz-adv-x="1273" d="M-33 0l768 1434h101l262 -1434h-92l-70 395h-657l-207 -395h-105zM322 477h600l-150 854zM641 1722q0 83 57 141t140 58t140.5 -58t57.5 -141t-57.5 -139.5t-140.5 -56.5t-140 56.5t-57 139.5zM707 1722q0 -54 38.5 -92.5t92.5 -38.5q55 0 94 38.5t39 92.5 q0 56 -38.5 94.5t-94.5 38.5q-54 0 -92.5 -39t-38.5 -94z" />
<glyph unicode="&#xc6;" horiz-adv-x="1841" d="M-100 0l1165 1434h784l-14 -82h-688l-105 -594h572l-15 -82h-571l-106 -594h702l-14 -82h-793l70 395h-549l-315 -395h-123zM403 477h498l143 803z" />
<glyph unicode="&#xc7;" horiz-adv-x="1230" d="M154 547q0 203 54 376.5t143.5 288.5t206.5 179.5t243 64.5q56 0 111 -14.5t95 -33t88.5 -53t75.5 -57.5t72 -63l-59 -59q-112 102 -198.5 150t-182.5 48q-109 0 -210 -61t-177.5 -168t-122 -263t-45.5 -335q0 -248 84 -368t219 -120q97 0 220 57.5t239 143.5l49 -70 q-130 -88 -244.5 -143.5t-228.5 -66.5q37 -62 37 -134q0 -81 -52.5 -131.5t-146.5 -50.5q-79 0 -141 35l39 68q50 -27 102 -27q53 0 90 31.5t37 97.5q0 37 -21 108q-81 2 -147 34.5t-118.5 98t-81.5 177t-29 260.5z" />
<glyph unicode="&#xc8;" horiz-adv-x="1134" d="M111 0l254 1434h778l-15 -82h-688l-104 -594h571l-14 -82h-571l-107 -594h703l-15 -82h-792zM563 1802h146l192 -256h-70z" />
<glyph unicode="&#xc9;" horiz-adv-x="1134" d="M111 0l254 1434h778l-15 -82h-688l-104 -594h571l-14 -82h-571l-107 -594h703l-15 -82h-792zM659 1546l261 256h167l-346 -256h-82z" />
<glyph unicode="&#xca;" horiz-adv-x="1134" d="M111 0l254 1434h778l-15 -82h-688l-104 -594h571l-14 -82h-571l-107 -594h703l-15 -82h-792zM535 1546l223 256h131l135 -256h-68l-139 191l-203 -191h-79z" />
<glyph unicode="&#xcb;" horiz-adv-x="1134" d="M111 0l254 1434h778l-15 -82h-688l-104 -594h571l-14 -82h-571l-107 -594h703l-15 -82h-792zM575 1567l29 159h119l-29 -159h-119zM879 1567l28 159h119l-29 -159h-118z" />
<glyph unicode="&#xcc;" horiz-adv-x="528" d="M111 0l254 1434h90l-254 -1434h-90zM215 1802h145l193 -256h-70z" />
<glyph unicode="&#xcd;" horiz-adv-x="528" d="M111 0l254 1434h90l-254 -1434h-90zM309 1546l260 256h168l-346 -256h-82z" />
<glyph unicode="&#xce;" horiz-adv-x="528" d="M111 0l254 1434h90l-254 -1434h-90zM186 1546l224 256h131l135 -256h-68l-139 191l-203 -191h-80z" />
<glyph unicode="&#xcf;" horiz-adv-x="530" d="M111 0l254 1434h90l-254 -1434h-90zM223 1567l29 159h119l-29 -159h-119zM526 1567l29 159h119l-29 -159h-119z" />
<glyph unicode="&#xd0;" horiz-adv-x="1347" d="M102 674l15 86h143l119 674h295q123 0 224 -33.5t177 -99.5t118 -173.5t42 -246.5q0 -206 -57.5 -372.5t-161.5 -277.5t-249.5 -171t-320.5 -60h-321l119 674h-142zM229 82h211q154 0 282.5 53.5t221.5 153.5t145 251.5t52 340.5q0 250 -125 360.5t-359 110.5h-202 l-107 -592h342l-14 -86h-342z" />
<glyph unicode="&#xd1;" horiz-adv-x="1384" d="M111 0l254 1434h96l530 -1299l230 1299h90l-254 -1434h-94l-533 1300l-229 -1300h-90zM621 1610q48 73 82.5 103t82.5 30q41 0 79.5 -25.5t70.5 -50.5t57 -25q24 0 47 18.5t62 76.5l57 -37q-48 -73 -83 -103t-83 -30q-41 0 -79 25t-70.5 50t-59.5 25q-24 0 -45.5 -17.5 t-60.5 -74.5z" />
<glyph unicode="&#xd2;" horiz-adv-x="1415" d="M152 543q0 125 26 252t81 246t132 211t187 148t237 56q110 0 194 -28t138 -77t88.5 -121.5t48.5 -155t14 -183.5q0 -125 -26 -252t-81 -246t-132 -211.5t-187 -148.5t-237 -56q-110 0 -194 28t-138 77t-88.5 122t-48.5 155.5t-14 183.5zM244 541q0 -54 3 -97.5t13 -95 t26.5 -91t46 -78.5t70 -64t99.5 -40.5t133 -15.5q96 0 180 39.5t145 106t109 151.5t77.5 179.5t44.5 185t15 172.5q0 54 -3 97.5t-13 95t-26.5 91t-46 78t-70 63.5t-99.5 40.5t-133 15.5q-96 0 -180 -39.5t-145 -106t-109 -151t-77.5 -179t-44.5 -185t-15 -172.5zM655 1802 h146l192 -256h-69z" />
<glyph unicode="&#xd3;" horiz-adv-x="1415" d="M152 543q0 125 26 252t81 246t132 211t187 148t237 56q110 0 194 -28t138 -77t88.5 -121.5t48.5 -155t14 -183.5q0 -125 -26 -252t-81 -246t-132 -211.5t-187 -148.5t-237 -56q-110 0 -194 28t-138 77t-88.5 122t-48.5 155.5t-14 183.5zM244 541q0 -54 3 -97.5t13 -95 t26.5 -91t46 -78.5t70 -64t99.5 -40.5t133 -15.5q96 0 180 39.5t145 106t109 151.5t77.5 179.5t44.5 185t15 172.5q0 54 -3 97.5t-13 95t-26.5 91t-46 78t-70 63.5t-99.5 40.5t-133 15.5q-96 0 -180 -39.5t-145 -106t-109 -151t-77.5 -179t-44.5 -185t-15 -172.5zM750 1546 l260 256h168l-347 -256h-81z" />
<glyph unicode="&#xd4;" horiz-adv-x="1415" d="M152 543q0 125 26 252t81 246t132 211t187 148t237 56q110 0 194 -28t138 -77t88.5 -121.5t48.5 -155t14 -183.5q0 -125 -26 -252t-81 -246t-132 -211.5t-187 -148.5t-237 -56q-110 0 -194 28t-138 77t-88.5 122t-48.5 155.5t-14 183.5zM244 541q0 -54 3 -97.5t13 -95 t26.5 -91t46 -78.5t70 -64t99.5 -40.5t133 -15.5q96 0 180 39.5t145 106t109 151.5t77.5 179.5t44.5 185t15 172.5q0 54 -3 97.5t-13 95t-26.5 91t-46 78t-70 63.5t-99.5 40.5t-133 15.5q-96 0 -180 -39.5t-145 -106t-109 -151t-77.5 -179t-44.5 -185t-15 -172.5zM629 1546 l223 256h131l135 -256h-67l-140 191l-202 -191h-80z" />
<glyph unicode="&#xd5;" horiz-adv-x="1415" d="M152 543q0 125 26 252t81 246t132 211t187 148t237 56q110 0 194 -28t138 -77t88.5 -121.5t48.5 -155t14 -183.5q0 -125 -26 -252t-81 -246t-132 -211.5t-187 -148.5t-237 -56q-110 0 -194 28t-138 77t-88.5 122t-48.5 155.5t-14 183.5zM244 541q0 -54 3 -97.5t13 -95 t26.5 -91t46 -78.5t70 -64t99.5 -40.5t133 -15.5q96 0 180 39.5t145 106t109 151.5t77.5 179.5t44.5 185t15 172.5q0 54 -3 97.5t-13 95t-26.5 91t-46 78t-70 63.5t-99.5 40.5t-133 15.5q-96 0 -180 -39.5t-145 -106t-109 -151t-77.5 -179t-44.5 -185t-15 -172.5zM621 1610 q48 73 82.5 103t82.5 30q41 0 79.5 -25.5t70.5 -50.5t57 -25q24 0 47 18.5t62 76.5l57 -37q-48 -73 -83 -103t-83 -30q-41 0 -79 25t-70.5 50t-59.5 25q-24 0 -45.5 -17.5t-60.5 -74.5z" />
<glyph unicode="&#xd6;" horiz-adv-x="1415" d="M152 543q0 125 26 252t81 246t132 211t187 148t237 56q110 0 194 -28t138 -77t88.5 -121.5t48.5 -155t14 -183.5q0 -125 -26 -252t-81 -246t-132 -211.5t-187 -148.5t-237 -56q-110 0 -194 28t-138 77t-88.5 122t-48.5 155.5t-14 183.5zM244 541q0 -54 3 -97.5t13 -95 t26.5 -91t46 -78.5t70 -64t99.5 -40.5t133 -15.5q96 0 180 39.5t145 106t109 151.5t77.5 179.5t44.5 185t15 172.5q0 54 -3 97.5t-13 95t-26.5 91t-46 78t-70 63.5t-99.5 40.5t-133 15.5q-96 0 -180 -39.5t-145 -106t-109 -151t-77.5 -179t-44.5 -185t-15 -172.5zM664 1567 l28 159h119l-29 -159h-118zM967 1567l28 159h119l-29 -159h-118z" />
<glyph unicode="&#xd7;" d="M188 395l351 291l-250 295l59 49l250 -295l356 295l47 -57l-354 -295l250 -291l-59 -49l-250 291l-352 -291z" />
<glyph unicode="&#xd8;" horiz-adv-x="1411" d="M70 0l153 182q-71 134 -71 361q0 125 26 252t81 246t132 211t187 148t237 56q242 0 363 -137l96 115h98l-149 -179q75 -134 75 -364q0 -125 -26 -252t-81 -246t-132 -211.5t-187 -148.5t-237 -56q-250 0 -367 142l-100 -119h-98zM244 541q0 -185 43 -285l833 995 q-95 123 -305 123q-96 0 -180 -39.5t-145 -106t-109 -151t-77.5 -179t-44.5 -185t-15 -172.5zM326 186q92 -127 309 -127q96 0 180 39.5t145 106t109 151.5t77.5 179.5t44.5 185t15 172.5q0 184 -45 289z" />
<glyph unicode="&#xd9;" horiz-adv-x="1337" d="M170 321.5q0 77.5 14 165.5l168 947h90l-166 -940q-14 -77 -16 -138t11 -118.5t45.5 -95t92.5 -60.5t146 -23q385 0 463 435l166 940h90l-168 -947q-15 -87 -42 -160.5t-72 -139.5t-105 -111.5t-144.5 -72t-187.5 -26.5q-100 0 -174 25t-118 70t-68.5 108.5t-24.5 141z M618 1802h146l192 -256h-69z" />
<glyph unicode="&#xda;" horiz-adv-x="1337" d="M170 321.5q0 77.5 14 165.5l168 947h90l-166 -940q-14 -77 -16 -138t11 -118.5t45.5 -95t92.5 -60.5t146 -23q385 0 463 435l166 940h90l-168 -947q-15 -87 -42 -160.5t-72 -139.5t-105 -111.5t-144.5 -72t-187.5 -26.5q-100 0 -174 25t-118 70t-68.5 108.5t-24.5 141z M713 1546l260 256h168l-346 -256h-82z" />
<glyph unicode="&#xdb;" horiz-adv-x="1337" d="M170 321.5q0 77.5 14 165.5l168 947h90l-166 -940q-14 -77 -16 -138t11 -118.5t45.5 -95t92.5 -60.5t146 -23q385 0 463 435l166 940h90l-168 -947q-15 -87 -42 -160.5t-72 -139.5t-105 -111.5t-144.5 -72t-187.5 -26.5q-100 0 -174 25t-118 70t-68.5 108.5t-24.5 141z M590 1546l223 256h131l135 -256h-67l-140 191l-202 -191h-80z" />
<glyph unicode="&#xdc;" horiz-adv-x="1337" d="M170 321.5q0 77.5 14 165.5l168 947h90l-166 -940q-14 -77 -16 -138t11 -118.5t45.5 -95t92.5 -60.5t146 -23q385 0 463 435l166 940h90l-168 -947q-15 -87 -42 -160.5t-72 -139.5t-105 -111.5t-144.5 -72t-187.5 -26.5q-100 0 -174 25t-118 70t-68.5 108.5t-24.5 141z M629 1567l28 159h119l-28 -159h-119zM932 1567l29 159h118l-28 -159h-119z" />
<glyph unicode="&#xdd;" d="M193 1434h94l291 -789l565 789h110l-637 -865l-100 -569h-90l100 567zM623 1546l260 256h168l-346 -256h-82z" />
<glyph unicode="&#xde;" horiz-adv-x="1241" d="M111 0l254 1434h90l-47 -273h329q69 0 128 -11t112 -37t90.5 -66t59.5 -101t22 -139q0 -128 -43.5 -224.5t-121 -153.5t-174.5 -84.5t-214 -27.5h-338l-57 -317h-90zM272 399h334q91 0 170 23.5t142.5 71.5t100 128t36.5 185q0 141 -85 206.5t-229 65.5h-348z" />
<glyph unicode="&#xdf;" d="M72 0l182 1030q78 467 451 467q150 0 246 -71.5t96 -204.5q0 -61 -21 -112.5t-42 -72.5l-21 -22q-36 -12 -62.5 -22.5t-65 -32t-63 -45t-43 -60t-18.5 -78.5q0 -31 8.5 -57t31 -53.5t41 -45.5t58.5 -53q44 -39 67.5 -62t51 -59t39.5 -75.5t12 -87.5q0 -141 -100 -223.5 t-234 -82.5q-151 0 -334 115l56 64q157 -101 274 -101q102 0 177 62.5t75 165.5q0 44 -18 81t-45.5 66t-84.5 78q-42 36 -64 57.5t-48 55.5t-37.5 70.5t-11.5 80.5q0 68 25.5 119.5t79 88t87.5 52.5t99 41q7 3 10 4q37 72 37 137q0 96 -68.5 150.5t-183.5 54.5 q-51 0 -96 -11.5t-89 -39.5t-79 -71.5t-63.5 -112t-43.5 -156.5l-182 -1028h-86z" />
<glyph unicode="&#xe0;" horiz-adv-x="1136" d="M104 340q0 213 59 385.5t167 272.5t245 100q55 0 107 -17.5t97 -49t76 -59.5t65 -65l30 168h86l-190 -1075h-86l33 188q-207 -211 -406 -211q-43 0 -83 11.5t-77 39t-64 68.5t-43 103.5t-16 140.5zM195 348q0 -138 49.5 -215.5t144.5 -77.5q60 0 117 18.5t112 55.5t97 73 t96 89l94 530q-163 199 -323 199q-70 0 -132.5 -38.5t-108.5 -104t-79.5 -151t-50 -182.5t-16.5 -196zM485 1493h146l192 -256h-69z" />
<glyph unicode="&#xe1;" horiz-adv-x="1136" d="M104 340q0 213 59 385.5t167 272.5t245 100q55 0 107 -17.5t97 -49t76 -59.5t65 -65l30 168h86l-190 -1075h-86l33 188q-207 -211 -406 -211q-43 0 -83 11.5t-77 39t-64 68.5t-43 103.5t-16 140.5zM195 348q0 -138 49.5 -215.5t144.5 -77.5q60 0 117 18.5t112 55.5t97 73 t96 89l94 530q-163 199 -323 199q-70 0 -132.5 -38.5t-108.5 -104t-79.5 -151t-50 -182.5t-16.5 -196zM539 1237l260 256h168l-346 -256h-82z" />
<glyph unicode="&#xe2;" horiz-adv-x="1136" d="M104 340q0 213 59 385.5t167 272.5t245 100q55 0 107 -17.5t97 -49t76 -59.5t65 -65l30 168h86l-190 -1075h-86l33 188q-207 -211 -406 -211q-43 0 -83 11.5t-77 39t-64 68.5t-43 103.5t-16 140.5zM195 348q0 -138 49.5 -215.5t144.5 -77.5q60 0 117 18.5t112 55.5t97 73 t96 89l94 530q-163 199 -323 199q-70 0 -132.5 -38.5t-108.5 -104t-79.5 -151t-50 -182.5t-16.5 -196zM457 1237l223 256h131l135 -256h-67l-140 190l-202 -190h-80z" />
<glyph unicode="&#xe3;" horiz-adv-x="1136" d="M104 340q0 213 59 385.5t167 272.5t245 100q55 0 107 -17.5t97 -49t76 -59.5t65 -65l30 168h86l-190 -1075h-86l33 188q-207 -211 -406 -211q-43 0 -83 11.5t-77 39t-64 68.5t-43 103.5t-16 140.5zM195 348q0 -138 49.5 -215.5t144.5 -77.5q60 0 117 18.5t112 55.5t97 73 t96 89l94 530q-163 199 -323 199q-70 0 -132.5 -38.5t-108.5 -104t-79.5 -151t-50 -182.5t-16.5 -196zM455 1300q48 73 83 103.5t83 30.5q32 0 63.5 -16t52 -34.5t45 -34.5t45.5 -16q24 0 47.5 18.5t61.5 75.5l57 -36q-48 -73 -83 -103.5t-83 -30.5q-32 0 -63.5 16t-52 34.5 t-46 34.5t-47.5 16q-24 0 -45.5 -17.5t-60.5 -74.5z" />
<glyph unicode="&#xe4;" horiz-adv-x="1136" d="M104 340q0 213 59 385.5t167 272.5t245 100q55 0 107 -17.5t97 -49t76 -59.5t65 -65l30 168h86l-190 -1075h-86l33 188q-207 -211 -406 -211q-43 0 -83 11.5t-77 39t-64 68.5t-43 103.5t-16 140.5zM195 348q0 -138 49.5 -215.5t144.5 -77.5q60 0 117 18.5t112 55.5t97 73 t96 89l94 530q-163 199 -323 199q-70 0 -132.5 -38.5t-108.5 -104t-79.5 -151t-50 -182.5t-16.5 -196zM496 1257l28 160h119l-29 -160h-118zM799 1257l28 160h119l-28 -160h-119z" />
<glyph unicode="&#xe5;" horiz-adv-x="1136" d="M104 340q0 213 59 385.5t167 272.5t245 100q55 0 107 -17.5t97 -49t76 -59.5t65 -65l30 168h86l-190 -1075h-86l33 188q-207 -211 -406 -211q-43 0 -83 11.5t-77 39t-64 68.5t-43 103.5t-16 140.5zM195 348q0 -138 49.5 -215.5t144.5 -77.5q60 0 117 18.5t112 55.5t97 73 t96 89l94 530q-163 199 -323 199q-70 0 -132.5 -38.5t-108.5 -104t-79.5 -151t-50 -182.5t-16.5 -196zM539 1413q0 84 56.5 141.5t139.5 57.5t141 -58t58 -141t-57.5 -139.5t-141.5 -56.5q-83 0 -139.5 56.5t-56.5 139.5zM604 1413q0 -54 38.5 -92.5t92.5 -38.5 q55 0 94 38.5t39 92.5q0 55 -39 94t-94 39q-54 0 -92.5 -39t-38.5 -94z" />
<glyph unicode="&#xe6;" horiz-adv-x="1759" d="M104 340q0 213 59 385.5t167 272.5t245 100q55 0 107 -17.5t97 -49t76 -59.5t65 -65l30 168h86l-18 -102q141 125 334 125q149 0 229 -74.5t80 -187.5q0 -168 -160.5 -263.5t-486.5 -95.5h-121v-45q0 -181 68.5 -279t193.5 -98q37 0 78.5 9.5t73 21t73 33t60.5 33 t55 34.5t39 25l43 -70l-35 -21q-36 -22 -45.5 -27.5t-46.5 -26t-56 -28.5t-55 -22.5t-62.5 -21t-60.5 -12t-65 -5.5q-188 0 -281 158l-22 -135h-86l33 190q-83 -87 -189.5 -150t-218.5 -63q-43 0 -83 11.5t-77 39t-64 68.5t-43 103.5t-16 140.5zM195 348q0 -138 49.5 -215.5 t144.5 -77.5q60 0 118 18.5t113 56.5t96.5 73.5t96.5 89.5v4q-10 68 -10 137q0 221 96 393q-161 193 -317 193q-70 0 -132.5 -38.5t-108.5 -104t-79.5 -151t-50 -182.5t-16.5 -196zM901 555h127q272 0 406.5 76t134.5 209q0 84 -63 132t-160 48q-167 0 -291 -127t-154 -338z " />
<glyph unicode="&#xe7;" horiz-adv-x="987" d="M102 416q0 126 29.5 237t79 191t114 138.5t136 87t143.5 28.5q58 0 113 -15.5t107.5 -48t72 -47t61.5 -47.5l-55 -57l-25 20q-26 20 -40 30t-45.5 29.5t-56.5 30t-59.5 19t-66.5 8.5q-78 0 -152.5 -44t-133.5 -120.5t-95 -190.5t-36 -243q0 -174 64 -270.5t183 -96.5 q32 0 68.5 8.5t66.5 20t65.5 30t56 30.5t47.5 29t32 20l43 -72q-7 -4 -43 -24.5t-54.5 -30.5t-57 -28t-67.5 -28t-67 -19t-73 -11q35 -72 35 -134q0 -81 -52.5 -131.5t-146.5 -50.5q-79 0 -141 35l38 68q50 -27 103 -27t90 31.5t37 97.5q0 40 -21 111q-135 12 -216 128.5 t-81 307.5z" />
<glyph unicode="&#xe8;" horiz-adv-x="1058" d="M104 434q0 190 69.5 341.5t195 237t284.5 85.5q149 0 229.5 -74.5t80.5 -187.5q0 -168 -161 -263.5t-487 -95.5h-120v-45q0 -181 68.5 -279t193.5 -98q37 0 78.5 9.5t73 21t73 33t60.5 33t55 34.5t39 25l43 -70l-35 -21q-36 -22 -45.5 -27.5t-46.5 -26t-56 -28.5 t-55 -22.5t-62.5 -21t-60.5 -12t-65 -5.5q-159 0 -254 119t-95 338zM203 555h127q272 0 406 76t134 209q0 84 -63 132t-160 48q-166 0 -290 -127t-154 -338zM461 1493h145l193 -256h-70z" />
<glyph unicode="&#xe9;" horiz-adv-x="1058" d="M104 434q0 190 69.5 341.5t195 237t284.5 85.5q149 0 229.5 -74.5t80.5 -187.5q0 -168 -161 -263.5t-487 -95.5h-120v-45q0 -181 68.5 -279t193.5 -98q37 0 78.5 9.5t73 21t73 33t60.5 33t55 34.5t39 25l43 -70l-35 -21q-36 -22 -45.5 -27.5t-46.5 -26t-56 -28.5 t-55 -22.5t-62.5 -21t-60.5 -12t-65 -5.5q-159 0 -254 119t-95 338zM203 555h127q272 0 406 76t134 209q0 84 -63 132t-160 48q-166 0 -290 -127t-154 -338zM555 1237l260 256h168l-346 -256h-82z" />
<glyph unicode="&#xea;" horiz-adv-x="1058" d="M104 434q0 190 69.5 341.5t195 237t284.5 85.5q149 0 229.5 -74.5t80.5 -187.5q0 -168 -161 -263.5t-487 -95.5h-120v-45q0 -181 68.5 -279t193.5 -98q37 0 78.5 9.5t73 21t73 33t60.5 33t55 34.5t39 25l43 -70l-35 -21q-36 -22 -45.5 -27.5t-46.5 -26t-56 -28.5 t-55 -22.5t-62.5 -21t-60.5 -12t-65 -5.5q-159 0 -254 119t-95 338zM203 555h127q272 0 406 76t134 209q0 84 -63 132t-160 48q-166 0 -290 -127t-154 -338zM432 1237l223 256h131l136 -256h-68l-139 190l-203 -190h-80z" />
<glyph unicode="&#xeb;" horiz-adv-x="1058" d="M104 434q0 190 69.5 341.5t195 237t284.5 85.5q149 0 229.5 -74.5t80.5 -187.5q0 -168 -161 -263.5t-487 -95.5h-120v-45q0 -181 68.5 -279t193.5 -98q37 0 78.5 9.5t73 21t73 33t60.5 33t55 34.5t39 25l43 -70l-35 -21q-36 -22 -45.5 -27.5t-46.5 -26t-56 -28.5 t-55 -22.5t-62.5 -21t-60.5 -12t-65 -5.5q-159 0 -254 119t-95 338zM203 555h127q272 0 406 76t134 209q0 84 -63 132t-160 48q-166 0 -290 -127t-154 -338zM471 1257l29 160h118l-28 -160h-119zM774 1257l29 160h119l-29 -160h-119z" />
<glyph unicode="&#xec;" horiz-adv-x="448" d="M72 0l190 1075h86l-190 -1075h-86zM119 1493h145l193 -256h-70z" />
<glyph unicode="&#xed;" horiz-adv-x="448" d="M72 0l190 1075h86l-190 -1075h-86zM213 1237l260 256h168l-346 -256h-82z" />
<glyph unicode="&#xee;" horiz-adv-x="448" d="M72 0l190 1075h86l-190 -1075h-86zM90 1237l223 256h131l136 -256h-68l-139 190l-203 -190h-80z" />
<glyph unicode="&#xef;" horiz-adv-x="452" d="M72 0l190 1075h86l-190 -1075h-86zM129 1257l29 160h118l-28 -160h-119zM432 1257l29 160h119l-29 -160h-119z" />
<glyph unicode="&#xf0;" horiz-adv-x="1150" d="M96 391q0 161 66.5 295t184 211.5t261.5 77.5q72 0 132.5 -20.5t96 -49.5t61 -58.5t34.5 -50.5l10 -20q-2 104 -23.5 200t-73.5 186t-128 138l-164 -110h-131l219 147q-55 19 -119 19q-34 0 -68.5 -5t-52.5 -9l-18 -5l-10 78q69 19 153 19q110 0 197 -41l151 100h132 l-213 -141q111 -81 171 -238t60 -379q0 -352 -149 -555t-392 -203q-178 0 -282.5 107t-104.5 307zM184 387q0 -151 71.5 -241.5t223.5 -90.5q90 0 164.5 33.5t123.5 87t83.5 122.5t49.5 138.5t15 136.5q0 151 -78 237.5t-223 86.5q-99 0 -182 -43t-136.5 -114.5t-82.5 -163 t-29 -189.5z" />
<glyph unicode="&#xf1;" horiz-adv-x="1130" d="M72 0l190 1075h86l-29 -160q82 63 205.5 123t235.5 60q141 0 196 -90.5t29 -235.5l-135 -772h-88l135 764q45 256 -147 256q-104 0 -233 -66.5t-216 -136.5l-143 -817h-86zM430 1300q48 73 83 103.5t83 30.5q32 0 63.5 -16t52.5 -34.5t45.5 -34.5t45.5 -16q24 0 46.5 18 t61.5 76l58 -36q-48 -73 -83 -103.5t-83 -30.5q-32 0 -63.5 16t-52 34.5t-46 34.5t-47.5 16q-24 0 -46.5 -17.5t-60.5 -74.5z" />
<glyph unicode="&#xf2;" horiz-adv-x="1144" d="M102 401q0 200 66.5 359.5t182.5 248.5t259 89q198 0 301 -110t103 -314q0 -200 -66.5 -359.5t-182.5 -248.5t-259 -89q-198 0 -301 110t-103 314zM190 408q0 -61 8.5 -111t30 -96.5t56.5 -77.5t91.5 -49.5t131.5 -18.5q123 0 220 87.5t147.5 226.5t50.5 299 q0 61 -8.5 111t-30 96t-56.5 77t-91.5 49.5t-131.5 18.5q-123 0 -220 -87.5t-147.5 -226t-50.5 -298.5zM467 1493h145l193 -256h-70z" />
<glyph unicode="&#xf3;" horiz-adv-x="1144" d="M102 401q0 200 66.5 359.5t182.5 248.5t259 89q198 0 301 -110t103 -314q0 -200 -66.5 -359.5t-182.5 -248.5t-259 -89q-198 0 -301 110t-103 314zM190 408q0 -61 8.5 -111t30 -96.5t56.5 -77.5t91.5 -49.5t131.5 -18.5q123 0 220 87.5t147.5 226.5t50.5 299 q0 61 -8.5 111t-30 96t-56.5 77t-91.5 49.5t-131.5 18.5q-123 0 -220 -87.5t-147.5 -226t-50.5 -298.5zM561 1237l260 256h168l-346 -256h-82z" />
<glyph unicode="&#xf4;" horiz-adv-x="1144" d="M102 401q0 200 66.5 359.5t182.5 248.5t259 89q198 0 301 -110t103 -314q0 -200 -66.5 -359.5t-182.5 -248.5t-259 -89q-198 0 -301 110t-103 314zM190 408q0 -61 8.5 -111t30 -96.5t56.5 -77.5t91.5 -49.5t131.5 -18.5q123 0 220 87.5t147.5 226.5t50.5 299 q0 61 -8.5 111t-30 96t-56.5 77t-91.5 49.5t-131.5 18.5q-123 0 -220 -87.5t-147.5 -226t-50.5 -298.5zM438 1237l224 256h131l135 -256h-68l-139 190l-203 -190h-80z" />
<glyph unicode="&#xf5;" horiz-adv-x="1144" d="M102 401q0 200 66.5 359.5t182.5 248.5t259 89q198 0 301 -110t103 -314q0 -200 -66.5 -359.5t-182.5 -248.5t-259 -89q-198 0 -301 110t-103 314zM190 408q0 -61 8.5 -111t30 -96.5t56.5 -77.5t91.5 -49.5t131.5 -18.5q123 0 220 87.5t147.5 226.5t50.5 299 q0 61 -8.5 111t-30 96t-56.5 77t-91.5 49.5t-131.5 18.5q-123 0 -220 -87.5t-147.5 -226t-50.5 -298.5zM430 1300q48 73 83 103.5t83 30.5q32 0 63.5 -16t52.5 -34.5t45.5 -34.5t45.5 -16q24 0 46.5 18t61.5 76l58 -36q-48 -73 -83 -103.5t-83 -30.5q-32 0 -63.5 16 t-52 34.5t-46 34.5t-47.5 16q-24 0 -46.5 -17.5t-60.5 -74.5z" />
<glyph unicode="&#xf6;" horiz-adv-x="1144" d="M102 401q0 200 66.5 359.5t182.5 248.5t259 89q198 0 301 -110t103 -314q0 -200 -66.5 -359.5t-182.5 -248.5t-259 -89q-198 0 -301 110t-103 314zM190 408q0 -61 8.5 -111t30 -96.5t56.5 -77.5t91.5 -49.5t131.5 -18.5q123 0 220 87.5t147.5 226.5t50.5 299 q0 61 -8.5 111t-30 96t-56.5 77t-91.5 49.5t-131.5 18.5q-123 0 -220 -87.5t-147.5 -226t-50.5 -298.5zM477 1257l29 160h119l-29 -160h-119zM780 1257l29 160h119l-29 -160h-119z" />
<glyph unicode="&#xf7;" d="M121 643l14 78h930l-14 -78h-930zM444 350q0 37 27 63.5t64 26.5t63.5 -26.5t26.5 -63.5t-26.5 -63.5t-63.5 -26.5t-64 26.5t-27 63.5zM561 1016q0 37 26.5 63.5t63.5 26.5t63.5 -26.5t26.5 -63.5t-26.5 -63.5t-63.5 -26.5t-63.5 26.5t-26.5 63.5z" />
<glyph unicode="&#xf8;" horiz-adv-x="1142" d="M49 0l117 137q-64 101 -64 264q0 200 66.5 359.5t182.5 248.5t259 89q190 0 295 -105l70 82h98l-123 -141q64 -106 64 -260q0 -200 -66.5 -359.5t-182.5 -248.5t-259 -89q-187 0 -291 101l-68 -78h-98zM190 408q0 -129 35 -203l625 727q-75 88 -242 88q-123 0 -220 -87.5 t-147.5 -226t-50.5 -298.5zM268 139q74 -84 240 -84q123 0 220 87.5t147.5 226.5t50.5 299q0 119 -35 196z" />
<glyph unicode="&#xf9;" horiz-adv-x="1132" d="M119 303l135 772h86l-135 -764q-45 -256 149 -256q103 0 232.5 66t214.5 135l145 819h86l-190 -1075h-86l26 158q-53 -38 -111.5 -73t-154 -71.5t-172.5 -36.5q-141 0 -196 90.5t-29 235.5zM455 1493h145l193 -256h-70z" />
<glyph unicode="&#xfa;" horiz-adv-x="1132" d="M119 303l135 772h86l-135 -764q-45 -256 149 -256q103 0 232.5 66t214.5 135l145 819h86l-190 -1075h-86l26 158q-53 -38 -111.5 -73t-154 -71.5t-172.5 -36.5q-141 0 -196 90.5t-29 235.5zM551 1237l260 256h168l-346 -256h-82z" />
<glyph unicode="&#xfb;" horiz-adv-x="1132" d="M119 303l135 772h86l-135 -764q-45 -256 149 -256q103 0 232.5 66t214.5 135l145 819h86l-190 -1075h-86l26 158q-53 -38 -111.5 -73t-154 -71.5t-172.5 -36.5q-141 0 -196 90.5t-29 235.5zM428 1237l223 256h131l136 -256h-68l-139 190l-203 -190h-80z" />
<glyph unicode="&#xfc;" horiz-adv-x="1132" d="M119 303l135 772h86l-135 -764q-45 -256 149 -256q103 0 232.5 66t214.5 135l145 819h86l-190 -1075h-86l26 158q-53 -38 -111.5 -73t-154 -71.5t-172.5 -36.5q-141 0 -196 90.5t-29 235.5zM465 1257l29 160h118l-28 -160h-119zM768 1257l29 160h118l-28 -160h-119z" />
<glyph unicode="&#xfd;" horiz-adv-x="1032" d="M-29 -336q114 38 179 79t105.5 94t100.5 163l2 6l-204 1069h90l174 -960l518 960h98l-588 -1075q-93 -169 -127 -216q-62 -84 -157 -134q-62 -32 -168 -68zM504 1237l260 256h168l-346 -256h-82z" />
<glyph unicode="&#xfe;" horiz-adv-x="1128" d="M-2 -418l338 1911h86l-100 -569q192 174 364 174q62 0 116.5 -19.5t100 -60.5t72 -113.5t26.5 -169.5q0 -213 -56 -385.5t-160.5 -272.5t-237.5 -100q-59 0 -113.5 17t-102 49t-77.5 57.5t-68 63.5l-102 -582h-86zM203 250q167 -195 338 -195q84 0 155.5 58.5 t117.5 154.5t71.5 215.5t25.5 243.5q0 140 -57 216.5t-170 76.5q-51 0 -101.5 -15.5t-101.5 -46.5t-88.5 -59.5t-89.5 -73.5z" />
<glyph unicode="&#xff;" horiz-adv-x="1032" d="M-29 -336q114 38 179 79t105.5 94t100.5 163l2 6l-204 1069h90l174 -960l518 960h98l-588 -1075q-93 -169 -127 -216q-62 -84 -157 -134q-62 -32 -168 -68zM418 1257l28 160h119l-28 -160h-119zM721 1257l29 160h118l-28 -160h-119z" />
<glyph unicode="&#x100;" horiz-adv-x="1273" d="M-33 0l768 1434h101l262 -1434h-92l-70 395h-657l-207 -395h-105zM322 477h600l-150 854zM547 1597l12 74h533l-13 -74h-532z" />
<glyph unicode="&#x101;" horiz-adv-x="1136" d="M104 340q0 213 59 385.5t167 272.5t245 100q55 0 107 -17.5t97 -49t76 -59.5t65 -65l30 168h86l-190 -1075h-86l33 188q-207 -211 -406 -211q-43 0 -83 11.5t-77 39t-64 68.5t-43 103.5t-16 140.5zM195 348q0 -138 49.5 -215.5t144.5 -77.5q60 0 117 18.5t112 55.5t97 73 t96 89l94 530q-163 199 -323 199q-70 0 -132.5 -38.5t-108.5 -104t-79.5 -151t-50 -182.5t-16.5 -196zM444 1288l13 74h532l-12 -74h-533z" />
<glyph unicode="&#x102;" horiz-adv-x="1273" d="M-33 0l768 1434h101l262 -1434h-92l-70 395h-657l-207 -395h-105zM322 477h600l-150 854zM598 1745h78q-9 -66 21.5 -94.5t105.5 -28.5q174 0 196 123h82q-15 -92 -88.5 -145.5t-191.5 -53.5q-109 0 -164.5 54t-38.5 145z" />
<glyph unicode="&#x103;" horiz-adv-x="1136" d="M104 340q0 213 59 385.5t167 272.5t245 100q55 0 107 -17.5t97 -49t76 -59.5t65 -65l30 168h86l-190 -1075h-86l33 188q-207 -211 -406 -211q-43 0 -83 11.5t-77 39t-64 68.5t-43 103.5t-16 140.5zM195 348q0 -138 49.5 -215.5t144.5 -77.5q60 0 117 18.5t112 55.5t97 73 t96 89l94 530q-163 199 -323 199q-70 0 -132.5 -38.5t-108.5 -104t-79.5 -151t-50 -182.5t-16.5 -196zM489 1436h78q-9 -66 21.5 -94.5t105.5 -28.5q79 0 132.5 29.5t64.5 93.5h82q-15 -92 -89 -145.5t-192 -53.5q-109 0 -164.5 54t-38.5 145z" />
<glyph unicode="&#x104;" horiz-adv-x="1273" d="M-33 0l768 1434h101l262 -1434h-6q-126 -67 -178 -115.5t-52 -101.5q0 -16 5 -27.5t18 -18.5t22.5 -11t32 -5.5t31.5 -1.5h35l-29 -77q-37 0 -63.5 3t-63 14t-56.5 39t-20 71q0 71 58 126.5t172 108.5l-68 391h-657l-207 -395h-105zM322 477h600l-150 854z" />
<glyph unicode="&#x105;" horiz-adv-x="1136" d="M104 340q0 213 59 385.5t167 272.5t245 100q55 0 107 -17.5t97 -49t76 -59.5t65 -65l30 168h86l-190 -1075h-6q-126 -67 -178 -115.5t-52 -101.5q0 -16 5 -27.5t18 -18.5t22.5 -11t32 -5.5t31.5 -1.5h35l-29 -77q-37 0 -63.5 3t-63 14t-56.5 39t-20 71q0 73 60 129.5 t178 109.5l33 180q-207 -211 -406 -211q-43 0 -83 11.5t-77 39t-64 68.5t-43 103.5t-16 140.5zM195 348q0 -138 49.5 -215.5t144.5 -77.5q60 0 117 18.5t112 55.5t97 73t96 89l94 530q-163 199 -323 199q-70 0 -132.5 -38.5t-108.5 -104t-79.5 -151t-50 -182.5t-16.5 -196z " />
<glyph unicode="&#x106;" horiz-adv-x="1230" d="M154 547q0 203 54 376.5t143.5 288.5t206.5 179.5t243 64.5q56 0 111 -14.5t95 -33t88.5 -53t75.5 -57.5t72 -63l-59 -59q-112 102 -198.5 150t-182.5 48q-109 0 -210 -61t-177.5 -168t-122 -263t-45.5 -335q0 -248 84 -368t219 -120q97 0 220 57.5t239 143.5l49 -70 q-143 -97 -267.5 -155t-246.5 -58q-83 0 -151.5 31t-123.5 96.5t-85.5 178t-30.5 264.5zM772 1546l260 256h168l-346 -256h-82z" />
<glyph unicode="&#x107;" horiz-adv-x="989" d="M102 416q0 126 29.5 237t79 191t114 138.5t136 87t143.5 28.5q58 0 113 -15.5t107.5 -48t72 -47t61.5 -47.5l-55 -57l-25 20q-26 20 -40 30t-45.5 29.5t-56.5 30t-59.5 19t-66.5 8.5q-78 0 -152.5 -44t-133.5 -120.5t-95 -190.5t-36 -243q0 -174 64 -270.5t183 -96.5 q32 0 68.5 8.5t66.5 20t65.5 30t56 30.5t47.5 29t32 20l43 -72q-8 -4 -45.5 -25.5t-58 -32.5t-61.5 -30t-72.5 -29t-72 -18.5t-77.5 -8.5q-149 0 -239.5 118.5t-90.5 320.5zM535 1237l260 256h168l-347 -256h-81z" />
<glyph unicode="&#x10a;" horiz-adv-x="1230" d="M154 547q0 203 54 376.5t143.5 288.5t206.5 179.5t243 64.5q56 0 111 -14.5t95 -33t88.5 -53t75.5 -57.5t72 -63l-59 -59q-112 102 -198.5 150t-182.5 48q-109 0 -210 -61t-177.5 -168t-122 -263t-45.5 -335q0 -248 84 -368t219 -120q97 0 220 57.5t239 143.5l49 -70 q-143 -97 -267.5 -155t-246.5 -58q-83 0 -151.5 31t-123.5 96.5t-85.5 178t-30.5 264.5zM774 1567l29 159h119l-29 -159h-119z" />
<glyph unicode="&#x10b;" horiz-adv-x="987" d="M102 416q0 126 29.5 237t79 191t114 138.5t136 87t143.5 28.5q58 0 113 -15.5t107.5 -48t72 -47t61.5 -47.5l-55 -57l-25 20q-26 20 -40 30t-45.5 29.5t-56.5 30t-59.5 19t-66.5 8.5q-78 0 -152.5 -44t-133.5 -120.5t-95 -190.5t-36 -243q0 -174 64 -270.5t183 -96.5 q32 0 68.5 8.5t66.5 20t65.5 30t56 30.5t47.5 29t32 20l43 -72q-8 -4 -45.5 -25.5t-58 -32.5t-61.5 -30t-72.5 -29t-72 -18.5t-77.5 -8.5q-149 0 -239.5 118.5t-90.5 320.5zM598 1257l29 160h118l-28 -160h-119z" />
<glyph unicode="&#x10c;" horiz-adv-x="1230" d="M154 547q0 203 54 376.5t143.5 288.5t206.5 179.5t243 64.5q56 0 111 -14.5t95 -33t88.5 -53t75.5 -57.5t72 -63l-59 -59q-112 102 -198.5 150t-182.5 48q-109 0 -210 -61t-177.5 -168t-122 -263t-45.5 -335q0 -248 84 -368t219 -120q97 0 220 57.5t239 143.5l49 -70 q-143 -97 -267.5 -155t-246.5 -58q-83 0 -151.5 31t-123.5 96.5t-85.5 178t-30.5 264.5zM653 1802h68l139 -190l203 190h80l-223 -256h-132z" />
<glyph unicode="&#x10d;" horiz-adv-x="987" d="M102 416q0 126 29.5 237t79 191t114 138.5t136 87t143.5 28.5q58 0 113 -15.5t107.5 -48t72 -47t61.5 -47.5l-55 -57l-25 20q-26 20 -40 30t-45.5 29.5t-56.5 30t-59.5 19t-66.5 8.5q-78 0 -152.5 -44t-133.5 -120.5t-95 -190.5t-36 -243q0 -174 64 -270.5t183 -96.5 q32 0 68.5 8.5t66.5 20t65.5 30t56 30.5t47.5 29t32 20l43 -72q-8 -4 -45.5 -25.5t-58 -32.5t-61.5 -30t-72.5 -29t-72 -18.5t-77.5 -8.5q-149 0 -239.5 118.5t-90.5 320.5zM455 1493h67l140 -190l202 190h80l-223 -256h-131z" />
<glyph unicode="&#x10e;" horiz-adv-x="1333" d="M111 0l254 1434h294q123 0 224 -33.5t177.5 -99.5t118.5 -173.5t42 -246.5q0 -206 -57.5 -372.5t-161.5 -277.5t-249.5 -171t-320.5 -60h-321zM215 82h211q154 0 282.5 53.5t221.5 153.5t144.5 251.5t51.5 340.5q0 250 -124.5 360.5t-358.5 110.5h-203zM666 1802h67 l139 -190l203 190h80l-223 -256h-131z" />
<glyph unicode="&#x10f;" horiz-adv-x="1148" d="M104 340q0 213 59 385.5t167 272.5t245 100q55 0 107 -17.5t97 -49t76 -59.5t65 -65l104 586h86l-264 -1493h-86l33 188q-207 -211 -406 -211q-43 0 -83 11.5t-77 39t-64 68.5t-43 103.5t-16 140.5zM195 348q0 -138 49.5 -215.5t144.5 -77.5q60 0 117 18.5t112 55.5 t97 73t96 89l94 530q-163 199 -323 199q-70 0 -132.5 -38.5t-108.5 -104t-79.5 -151t-50 -182.5t-16.5 -196zM1153 1147l104 180h-57l29 166h117l-11 -166l-147 -221z" />
<glyph unicode="&#x110;" horiz-adv-x="1347" d="M102 674l15 86h143l119 674h295q123 0 224 -33.5t177 -99.5t118 -173.5t42 -246.5q0 -206 -57.5 -372.5t-161.5 -277.5t-249.5 -171t-320.5 -60h-321l119 674h-142zM229 82h211q154 0 282.5 53.5t221.5 153.5t145 251.5t52 340.5q0 250 -125 360.5t-359 110.5h-202 l-107 -592h342l-14 -86h-342z" />
<glyph unicode="&#x111;" horiz-adv-x="1136" d="M104 340q0 213 59 385.5t167 272.5t245 100q55 0 107 -17.5t97 -49t76 -59.5t65 -65l57 330h-318l13 74h319l33 182h86l-33 -182h127l-12 -74h-127l-219 -1237h-86l33 188q-207 -211 -406 -211q-43 0 -83 11.5t-77 39t-64 68.5t-43 103.5t-16 140.5zM195 348 q0 -138 49.5 -215.5t144.5 -77.5q60 0 117 18.5t112 55.5t97 73t96 89l94 530q-163 199 -323 199q-70 0 -132.5 -38.5t-108.5 -104t-79.5 -151t-50 -182.5t-16.5 -196z" />
<glyph unicode="&#x112;" horiz-adv-x="1134" d="M111 0l254 1434h778l-15 -82h-688l-104 -594h571l-14 -82h-571l-107 -594h703l-15 -82h-792zM522 1597l13 74h532l-12 -74h-533z" />
<glyph unicode="&#x113;" horiz-adv-x="1056" d="M104 434q0 190 69.5 341.5t195 237t284.5 85.5q149 0 229.5 -74.5t80.5 -187.5q0 -168 -161 -263.5t-487 -95.5h-120v-45q0 -181 68.5 -279t193.5 -98q37 0 78.5 9.5t73 21t73 33t60.5 33t55 34.5t39 25l43 -70l-35 -21q-36 -22 -45.5 -27.5t-46.5 -26t-56 -28.5 t-55 -22.5t-62.5 -21t-60.5 -12t-65 -5.5q-159 0 -254 119t-95 338zM203 555h127q272 0 406 76t134 209q0 84 -63 132t-160 48q-166 0 -290 -127t-154 -338zM424 1288l12 74h533l-13 -74h-532z" />
<glyph unicode="&#x116;" horiz-adv-x="1134" d="M111 0l254 1434h778l-15 -82h-688l-104 -594h571l-14 -82h-571l-107 -594h703l-15 -82h-792zM725 1567l29 159h118l-28 -159h-119z" />
<glyph unicode="&#x117;" horiz-adv-x="1058" d="M104 434q0 190 69.5 341.5t195 237t284.5 85.5q149 0 229.5 -74.5t80.5 -187.5q0 -168 -161 -263.5t-487 -95.5h-120v-45q0 -181 68.5 -279t193.5 -98q37 0 78.5 9.5t73 21t73 33t60.5 33t55 34.5t39 25l43 -70l-35 -21q-36 -22 -45.5 -27.5t-46.5 -26t-56 -28.5 t-55 -22.5t-62.5 -21t-60.5 -12t-65 -5.5q-159 0 -254 119t-95 338zM203 555h127q272 0 406 76t134 209q0 84 -63 132t-160 48q-166 0 -290 -127t-154 -338zM621 1257l28 160h119l-29 -160h-118z" />
<glyph unicode="&#x118;" horiz-adv-x="1134" d="M111 0l254 1434h778l-15 -82h-688l-104 -594h571l-14 -82h-571l-107 -594h703l-15 -82h-6q-126 -67 -177.5 -115.5t-51.5 -101.5q0 -16 5 -27.5t18 -18.5t22.5 -11t31.5 -5.5t31 -1.5h35l-29 -77q-29 0 -49.5 1t-52 8t-51 20t-34.5 38t-15 60q0 70 55.5 125.5 t163.5 105.5h-688z" />
<glyph unicode="&#x119;" horiz-adv-x="1058" d="M104 434q0 190 69.5 341.5t195 237t284.5 85.5q149 0 229.5 -74.5t80.5 -187.5q0 -168 -161 -263.5t-487 -95.5h-120v-45q0 -181 68.5 -279t193.5 -98q37 0 78.5 9.5t73 21t73 33t60.5 33t55 34.5t39 25l43 -70q-2 -1 -22 -13.5t-26.5 -16.5t-27 -16t-31.5 -18t-31.5 -17 t-36 -18t-35 -15.5t-39 -15t-38.5 -11.5q-125 -67 -176 -115.5t-51 -101.5q0 -16 5 -27.5t18 -18.5t22.5 -11t31.5 -5.5t31 -1.5h35l-29 -77q-37 0 -63.5 3t-63 14t-56.5 39t-20 71q0 118 175 208q-159 2 -253 120t-94 337zM203 555h127q272 0 406 76t134 209q0 84 -63 132 t-160 48q-166 0 -290 -127t-154 -338z" />
<glyph unicode="&#x11a;" horiz-adv-x="1134" d="M111 0l254 1434h778l-15 -82h-688l-104 -594h571l-14 -82h-571l-107 -594h703l-15 -82h-792zM580 1802h67l139 -190l203 190h80l-223 -256h-131z" />
<glyph unicode="&#x11b;" horiz-adv-x="1058" d="M104 434q0 190 69.5 341.5t195 237t284.5 85.5q149 0 229.5 -74.5t80.5 -187.5q0 -168 -161 -263.5t-487 -95.5h-120v-45q0 -181 68.5 -279t193.5 -98q37 0 78.5 9.5t73 21t73 33t60.5 33t55 34.5t39 25l43 -70l-35 -21q-36 -22 -45.5 -27.5t-46.5 -26t-56 -28.5 t-55 -22.5t-62.5 -21t-60.5 -12t-65 -5.5q-159 0 -254 119t-95 338zM203 555h127q272 0 406 76t134 209q0 84 -63 132t-160 48q-166 0 -290 -127t-154 -338zM477 1493h68l139 -190l203 190h80l-224 -256h-131z" />
<glyph unicode="&#x11e;" horiz-adv-x="1345" d="M156 524q0 183 37 338t99 262.5t145 183.5t174 112t186 36q228 0 465 -242l-66 -57q-37 35 -56 52.5t-66.5 54.5t-84.5 56.5t-89.5 36.5t-102.5 17q-108 0 -207 -60.5t-174 -167t-119.5 -263.5t-44.5 -340q0 -227 77.5 -355.5t219.5 -128.5q192 0 485 246l66 369h-393 l14 82h483l-133 -756h-90l33 190q-265 -213 -465 -213q-83 0 -153 32.5t-124.5 97.5t-85 171.5t-30.5 245.5zM629 1745h78q-9 -66 21.5 -94.5t105.5 -28.5q174 0 196 123h82q-15 -92 -89 -145.5t-192 -53.5q-109 0 -164 54t-38 145z" />
<glyph unicode="&#x11f;" horiz-adv-x="1134" d="M8 -367l33 82q225 -75 387 -75q77 0 137 25t95 66t54 83t27 88l50 284q-205 -209 -404 -209q-43 0 -83 11.5t-77 39t-64 68.5t-43 103.5t-16 140.5q0 213 59 385.5t167 272.5t245 100q170 0 345 -189l28 166h86l-207 -1177q-59 -336 -405 -336q-88 0 -202.5 20t-211.5 51 zM195 348q0 -138 49.5 -215.5t144.5 -77.5q59 0 115.5 18.5t111.5 55.5t96.5 72t96.5 88l94 534q-162 197 -321 197q-70 0 -132.5 -38.5t-108.5 -104t-79.5 -151t-50 -182.5t-16.5 -196zM471 1436h78q-9 -66 21.5 -94.5t105.5 -28.5q174 0 196 123h82q-15 -92 -88.5 -145.5 t-191.5 -53.5q-109 0 -164.5 54t-38.5 145z" />
<glyph unicode="&#x120;" horiz-adv-x="1345" d="M156 524q0 183 37 338t99 262.5t145 183.5t174 112t186 36q228 0 465 -242l-66 -57q-37 35 -56 52.5t-66.5 54.5t-84.5 56.5t-89.5 36.5t-102.5 17q-108 0 -207 -60.5t-174 -167t-119.5 -263.5t-44.5 -340q0 -227 77.5 -355.5t219.5 -128.5q192 0 485 246l66 369h-393 l14 82h483l-133 -756h-90l33 190q-265 -213 -465 -213q-83 0 -153 32.5t-124.5 97.5t-85 171.5t-30.5 245.5zM778 1567l29 159h119l-29 -159h-119z" />
<glyph unicode="&#x121;" horiz-adv-x="1134" d="M8 -367l33 82q225 -75 387 -75q77 0 137 25t95 66t54 83t27 88l50 284q-205 -209 -404 -209q-43 0 -83 11.5t-77 39t-64 68.5t-43 103.5t-16 140.5q0 213 59 385.5t167 272.5t245 100q170 0 345 -189l28 166h86l-207 -1177q-59 -336 -405 -336q-88 0 -202.5 20t-211.5 51 zM195 348q0 -138 49.5 -215.5t144.5 -77.5q59 0 115.5 18.5t111.5 55.5t96.5 72t96.5 88l94 534q-162 197 -321 197q-70 0 -132.5 -38.5t-108.5 -104t-79.5 -151t-50 -182.5t-16.5 -196zM621 1257l28 160h119l-29 -160h-118z" />
<glyph unicode="&#x122;" horiz-adv-x="1345" d="M156 524q0 183 37 338t99 262.5t145 183.5t174 112t186 36q228 0 465 -242l-66 -57q-37 35 -56 52.5t-66.5 54.5t-84.5 56.5t-89.5 36.5t-102.5 17q-108 0 -207 -60.5t-174 -167t-119.5 -263.5t-44.5 -340q0 -227 77.5 -355.5t219.5 -128.5q192 0 485 246l66 369h-393 l14 82h483l-133 -756h-90l33 190q-265 -213 -465 -213q-83 0 -153 32.5t-124.5 97.5t-85 171.5t-30.5 245.5zM434 -483l105 180h-58l29 166h117l-11 -166l-147 -221z" />
<glyph unicode="&#x123;" horiz-adv-x="1134" d="M8 -367l33 82q225 -75 387 -75q77 0 137 25t95 66t54 83t27 88l50 284q-205 -209 -404 -209q-43 0 -83 11.5t-77 39t-64 68.5t-43 103.5t-16 140.5q0 213 59 385.5t167 272.5t245 100q170 0 345 -189l28 166h86l-207 -1177q-59 -336 -405 -336q-88 0 -202.5 20t-211.5 51 zM195 348q0 -138 49.5 -215.5t144.5 -77.5q59 0 115.5 18.5t111.5 55.5t96.5 72t96.5 88l94 534q-162 197 -321 197q-70 0 -132.5 -38.5t-108.5 -104t-79.5 -151t-50 -182.5t-16.5 -196zM629 1257l10 166l147 222l35 -41l-104 -181h57l-29 -166h-116z" />
<glyph unicode="&#x126;" horiz-adv-x="1378" d="M123 0l188 1071h-139l14 74h140l51 289h90l-51 -289h735l51 289h90l-51 -289h145l-14 -74h-145l-189 -1071h-90l125 711h-735l-125 -711h-90zM352 793h735l50 278h-736z" />
<glyph unicode="&#x127;" horiz-adv-x="1130" d="M72 0l219 1237h-127l14 74h125l33 182h86l-33 -182h322l-15 -74h-319l-58 -322q82 63 205.5 123t235.5 60q141 0 196 -90.5t29 -235.5l-135 -772h-88l135 764q45 256 -147 256q-104 0 -233 -66.5t-216 -136.5l-143 -817h-86z" />
<glyph unicode="&#x128;" horiz-adv-x="530" d="M111 0l254 1434h90l-254 -1434h-90zM182 1610q48 73 83 103t83 30q41 0 79.5 -25.5t70.5 -50.5t57 -25q24 0 47 18.5t62 76.5l57 -37q-48 -73 -83 -103t-83 -30q-41 0 -79 25t-70.5 50t-59.5 25q-24 0 -45.5 -17.5t-60.5 -74.5z" />
<glyph unicode="&#x129;" horiz-adv-x="450" d="M72 0l190 1075h86l-190 -1075h-86zM86 1300q48 73 83 103.5t83 30.5q32 0 63.5 -16t52.5 -34.5t45.5 -34.5t45.5 -16q24 0 46.5 18t61.5 76l58 -36q-48 -73 -83 -103.5t-83 -30.5q-32 0 -63.5 16t-52 34.5t-46 34.5t-47.5 16q-24 0 -46.5 -17.5t-60.5 -74.5z" />
<glyph unicode="&#x12a;" horiz-adv-x="528" d="M111 0l254 1434h90l-254 -1434h-90zM174 1597l12 74h533l-12 -74h-533z" />
<glyph unicode="&#x12b;" horiz-adv-x="448" d="M72 0l190 1075h86l-190 -1075h-86zM76 1288l12 74h533l-13 -74h-532z" />
<glyph unicode="&#x12c;" horiz-adv-x="528" d="M111 0l254 1434h90l-254 -1434h-90zM225 1745h78q-9 -66 21.5 -94.5t105.5 -28.5q79 0 132.5 29.5t64.5 93.5h82q-15 -92 -89 -145.5t-192 -53.5q-109 0 -164.5 54t-38.5 145z" />
<glyph unicode="&#x12d;" horiz-adv-x="448" d="M72 0l190 1075h86l-190 -1075h-86zM129 1436h78q-9 -66 21.5 -94.5t105.5 -28.5q174 0 196 123h82q-15 -92 -88.5 -145.5t-191.5 -53.5q-109 0 -164.5 54t-38.5 145z" />
<glyph unicode="&#x12e;" horiz-adv-x="526" d="M-123 -231q0 71 59 127.5t173 109.5l253 1428h91l-254 -1432v-2h-4q-126 -67 -178 -115.5t-52 -101.5q0 -16 5 -27.5t18 -18.5t22.5 -11t32 -5.5t31.5 -1.5h35l-29 -77q-37 0 -63.5 3t-63 14t-56.5 39t-20 71z" />
<glyph unicode="&#x12f;" horiz-adv-x="446" d="M-164 -231q0 73 60 129.5t176 109.5l190 1067h86l-190 -1075h-4q-126 -67 -178 -115.5t-52 -101.5q0 -16 5 -27.5t18 -18.5t22.5 -11t32 -5.5t31.5 -1.5h35l-29 -77q-37 0 -63.5 3t-63 14t-56.5 39t-20 71zM297 1327l29 160h104l-29 -160h-104z" />
<glyph unicode="&#x130;" horiz-adv-x="528" d="M111 0l254 1434h90l-254 -1434h-90zM375 1567l28 159h119l-28 -159h-119z" />
<glyph unicode="&#x131;" horiz-adv-x="448" d="M72 0l190 1075h86l-190 -1075h-86z" />
<glyph unicode="&#x132;" horiz-adv-x="1054" d="M111 0l254 1434h90l-254 -1434h-90zM371 -184q51 16 87 30t63 26t45 29.5t29 30t19 38t12 43t11 55.5l242 1366h90l-242 -1366q-22 -122 -42 -162q-31 -65 -115 -107q-62 -30 -177 -63z" />
<glyph unicode="&#x133;" horiz-adv-x="886" d="M72 0l190 1075h86l-190 -1075h-86zM225 -342q59 18 99 33t69 34t44.5 33.5t27.5 42.5t16.5 49t12.5 64l204 1161h88l-206 -1161q-22 -122 -42 -162q-31 -65 -115 -107q-62 -30 -177 -63zM297 1327l29 160h104l-29 -160h-104zM735 1327l29 160h104l-28 -160h-105z" />
<glyph unicode="&#x134;" horiz-adv-x="526" d="M-145 -184q51 16 87 30t63 26t45 29.5t29 30t19 38t12 43t11 55.5l241 1366h91l-242 -1366q-22 -122 -42 -162q-31 -65 -115 -107q-62 -30 -177 -63zM184 1546l224 256h131l135 -256h-68l-139 191l-203 -191h-80z" />
<glyph unicode="&#x135;" horiz-adv-x="450" d="M-211 -342q59 18 99 33t68.5 34t44.5 33.5t27.5 42.5t16 48.5t12.5 64.5l205 1161h88l-207 -1161q-22 -122 -41 -162q-31 -65 -114 -106q-61 -30 -178 -64zM90 1237l223 256h131l136 -256h-68l-139 190l-203 -190h-80z" />
<glyph unicode="&#x136;" horiz-adv-x="1210" d="M111 0l254 1434h90l-156 -873l827 873h117l-661 -695l479 -739h-105l-436 676l-246 -258l-73 -418h-90zM346 -483l105 180h-58l29 166h117l-11 -166l-147 -221z" />
<glyph unicode="&#x137;" horiz-adv-x="944" d="M72 0l264 1493h86l-184 -1047l577 629h107l-416 -440l285 -635h-89l-256 571l-231 -243l-57 -328h-86zM231 -483l105 180h-57l28 166h117l-10 -166l-148 -221z" />
<glyph unicode="&#x138;" horiz-adv-x="944" d="M72 0l190 1075h86l-110 -629l577 629h107l-416 -440l285 -635h-89l-256 571l-231 -243l-57 -328h-86z" />
<glyph unicode="&#x139;" horiz-adv-x="1026" d="M111 0l254 1434h90l-240 -1352h670l-15 -82h-759zM309 1546l260 256h168l-346 -256h-82z" />
<glyph unicode="&#x13a;" horiz-adv-x="473" d="M84 0l264 1493h86l-264 -1493h-86zM291 1606l260 256h168l-346 -256h-82z" />
<glyph unicode="&#x13b;" horiz-adv-x="1026" d="M111 0l254 1434h90l-240 -1352h670l-15 -82h-759zM332 -483l104 180h-57l29 166h116l-10 -166l-147 -221z" />
<glyph unicode="&#x13c;" horiz-adv-x="473" d="M-31 -483l105 180h-58l29 166h117l-10 -166l-148 -221zM84 0l264 1493h86l-264 -1493h-86z" />
<glyph unicode="&#x13d;" horiz-adv-x="1026" d="M111 0l254 1434h90l-240 -1352h670l-15 -82h-759zM500 1087l104 181h-57l28 166h117l-10 -166l-147 -221z" />
<glyph unicode="&#x13e;" horiz-adv-x="473" d="M84 0l264 1493h86l-264 -1493h-86zM479 1147l105 180h-58l29 166h117l-10 -166l-148 -221z" />
<glyph unicode="&#x13f;" horiz-adv-x="1032" d="M111 0l254 1434h90l-240 -1352h670l-15 -82h-759zM745 657l29 160h119l-29 -160h-119z" />
<glyph unicode="&#x140;" horiz-adv-x="460" d="M84 0l264 1493h86l-264 -1493h-86zM408 657l28 160h119l-29 -160h-118z" />
<glyph unicode="&#x141;" horiz-adv-x="1038" d="M76 512l18 100l154 82l131 740h90l-123 -686l293 155l-18 -100l-291 -156l-101 -565h670l-14 -82h-760l104 594z" />
<glyph unicode="&#x142;" horiz-adv-x="514" d="M78 592l18 100l146 78l129 723h86l-119 -672l149 80l-18 -100l-150 -80l-126 -721h-87l119 670z" />
<glyph unicode="&#x143;" horiz-adv-x="1384" d="M111 0l254 1434h96l530 -1299l230 1299h90l-254 -1434h-94l-533 1300l-229 -1300h-90zM748 1546l260 256h168l-347 -256h-81z" />
<glyph unicode="&#x144;" horiz-adv-x="1130" d="M72 0l190 1075h86l-29 -160q82 63 205.5 123t235.5 60q141 0 196 -90.5t29 -235.5l-135 -772h-88l135 764q45 256 -147 256q-104 0 -233 -66.5t-216 -136.5l-143 -817h-86zM559 1237l260 256h168l-346 -256h-82z" />
<glyph unicode="&#x145;" horiz-adv-x="1384" d="M111 0l254 1434h96l530 -1299l230 1299h90l-254 -1434h-94l-533 1300l-229 -1300h-90zM436 -483l105 180h-58l29 166h117l-11 -166l-147 -221z" />
<glyph unicode="&#x146;" horiz-adv-x="1130" d="M72 0l190 1075h86l-29 -160q82 63 205.5 123t235.5 60q141 0 196 -90.5t29 -235.5l-135 -772h-88l135 764q45 256 -147 256q-104 0 -233 -66.5t-216 -136.5l-143 -817h-86zM301 -483l105 180h-58l29 166h117l-11 -166l-147 -221z" />
<glyph unicode="&#x147;" horiz-adv-x="1384" d="M111 0l254 1434h96l530 -1299l230 1299h90l-254 -1434h-94l-533 1300l-229 -1300h-90zM670 1802h67l140 -190l202 190h80l-223 -256h-131z" />
<glyph unicode="&#x148;" horiz-adv-x="1130" d="M72 0l190 1075h86l-29 -160q82 63 205.5 123t235.5 60q141 0 196 -90.5t29 -235.5l-135 -772h-88l135 764q45 256 -147 256q-104 0 -233 -66.5t-216 -136.5l-143 -817h-86zM475 1493h68l139 -190l203 190h80l-224 -256h-131z" />
<glyph unicode="&#x149;" horiz-adv-x="1130" d="M72 0l190 1075h86l-29 -160q82 63 205.5 123t235.5 60q141 0 196 -90.5t29 -235.5l-135 -772h-88l135 764q45 256 -147 256q-104 0 -233 -66.5t-216 -136.5l-143 -817h-86zM274 1237l105 180h-57l28 166h117l-10 -166l-148 -221z" />
<glyph unicode="&#x14a;" horiz-adv-x="1382" d="M111 0l251 1434h97l530 -1299l230 1299h90l-242 -1366q-22 -122 -42 -163q-31 -66 -117 -107q-61 -30 -175 -62l-22 80q131 42 182 75t70 103l-535 1306l-227 -1300h-90z" />
<glyph unicode="&#x14b;" horiz-adv-x="1132" d="M72 0l190 1075h86l-29 -160q82 63 205.5 123t235.5 60q141 0 196 -90.5t29 -235.5l-149 -858q-22 -122 -42 -162q-31 -65 -115 -107q-62 -30 -177 -63l-21 76q59 18 99 33t69 34t44.5 33.5t27.5 42.5t16.5 49t12.5 64l149 850q45 256 -149 256q-104 0 -233 -66.5 t-216 -136.5l-143 -817h-86z" />
<glyph unicode="&#x14c;" horiz-adv-x="1415" d="M152 543q0 125 26 252t81 246t132 211t187 148t237 56q110 0 194 -28t138 -77t88.5 -121.5t48.5 -155t14 -183.5q0 -125 -26 -252t-81 -246t-132 -211.5t-187 -148.5t-237 -56q-110 0 -194 28t-138 77t-88.5 122t-48.5 155.5t-14 183.5zM244 541q0 -54 3 -97.5t13 -95 t26.5 -91t46 -78.5t70 -64t99.5 -40.5t133 -15.5q96 0 180 39.5t145 106t109 151.5t77.5 179.5t44.5 185t15 172.5q0 54 -3 97.5t-13 95t-26.5 91t-46 78t-70 63.5t-99.5 40.5t-133 15.5q-96 0 -180 -39.5t-145 -106t-109 -151t-77.5 -179t-44.5 -185t-15 -172.5zM612 1597 l13 74h532l-12 -74h-533z" />
<glyph unicode="&#x14d;" horiz-adv-x="1144" d="M102 401q0 200 66.5 359.5t182.5 248.5t259 89q198 0 301 -110t103 -314q0 -200 -66.5 -359.5t-182.5 -248.5t-259 -89q-198 0 -301 110t-103 314zM190 408q0 -61 8.5 -111t30 -96.5t56.5 -77.5t91.5 -49.5t131.5 -18.5q123 0 220 87.5t147.5 226.5t50.5 299 q0 61 -8.5 111t-30 96t-56.5 77t-91.5 49.5t-131.5 18.5q-123 0 -220 -87.5t-147.5 -226t-50.5 -298.5zM424 1288l12 74h533l-13 -74h-532z" />
<glyph unicode="&#x14e;" horiz-adv-x="1415" d="M152 543q0 125 26 252t81 246t132 211t187 148t237 56q110 0 194 -28t138 -77t88.5 -121.5t48.5 -155t14 -183.5q0 -125 -26 -252t-81 -246t-132 -211.5t-187 -148.5t-237 -56q-110 0 -194 28t-138 77t-88.5 122t-48.5 155.5t-14 183.5zM244 541q0 -54 3 -97.5t13 -95 t26.5 -91t46 -78.5t70 -64t99.5 -40.5t133 -15.5q96 0 180 39.5t145 106t109 151.5t77.5 179.5t44.5 185t15 172.5q0 54 -3 97.5t-13 95t-26.5 91t-46 78t-70 63.5t-99.5 40.5t-133 15.5q-96 0 -180 -39.5t-145 -106t-109 -151t-77.5 -179t-44.5 -185t-15 -172.5zM666 1745 h77q-9 -66 21.5 -94.5t105.5 -28.5q79 0 132.5 29.5t64.5 93.5h82q-15 -92 -89 -145.5t-192 -53.5q-109 0 -164 54t-38 145z" />
<glyph unicode="&#x14f;" horiz-adv-x="1144" d="M102 401q0 200 66.5 359.5t182.5 248.5t259 89q198 0 301 -110t103 -314q0 -200 -66.5 -359.5t-182.5 -248.5t-259 -89q-198 0 -301 110t-103 314zM190 408q0 -61 8.5 -111t30 -96.5t56.5 -77.5t91.5 -49.5t131.5 -18.5q123 0 220 87.5t147.5 226.5t50.5 299 q0 61 -8.5 111t-30 96t-56.5 77t-91.5 49.5t-131.5 18.5q-123 0 -220 -87.5t-147.5 -226t-50.5 -298.5zM477 1436h78q-9 -66 21.5 -94.5t105.5 -28.5q79 0 132.5 29.5t64.5 93.5h82q-15 -92 -89 -145.5t-192 -53.5q-109 0 -164.5 54t-38.5 145z" />
<glyph unicode="&#x150;" horiz-adv-x="1415" d="M152 543q0 125 26 252t81 246t132 211t187 148t237 56q110 0 194 -28t138 -77t88.5 -121.5t48.5 -155t14 -183.5q0 -125 -26 -252t-81 -246t-132 -211.5t-187 -148.5t-237 -56q-110 0 -194 28t-138 77t-88.5 122t-48.5 155.5t-14 183.5zM244 541q0 -54 3 -97.5t13 -95 t26.5 -91t46 -78.5t70 -64t99.5 -40.5t133 -15.5q96 0 180 39.5t145 106t109 151.5t77.5 179.5t44.5 185t15 172.5q0 54 -3 97.5t-13 95t-26.5 91t-46 78t-70 63.5t-99.5 40.5t-133 15.5q-96 0 -180 -39.5t-145 -106t-109 -151t-77.5 -179t-44.5 -185t-15 -172.5zM678 1546 l176 256h152l-263 -256h-65zM934 1546l176 256h152l-263 -256h-65z" />
<glyph unicode="&#x151;" horiz-adv-x="1144" d="M102 401q0 200 66.5 359.5t182.5 248.5t259 89q198 0 301 -110t103 -314q0 -200 -66.5 -359.5t-182.5 -248.5t-259 -89q-198 0 -301 110t-103 314zM190 408q0 -61 8.5 -111t30 -96.5t56.5 -77.5t91.5 -49.5t131.5 -18.5q123 0 220 87.5t147.5 226.5t50.5 299 q0 61 -8.5 111t-30 96t-56.5 77t-91.5 49.5t-131.5 18.5q-123 0 -220 -87.5t-147.5 -226t-50.5 -298.5zM487 1237l177 256h151l-262 -256h-66zM743 1237l177 256h151l-262 -256h-66z" />
<glyph unicode="&#x152;" horiz-adv-x="2099" d="M152 543q0 125 26 252t81 246t132 211t187 148t237 56q378 0 459 -334l55 312h778l-14 -82h-688l-105 -594h572l-14 -82h-572l-106 -594h702l-14 -82h-793l47 266q-88 -135 -211 -212t-276 -77q-110 0 -194 28t-138 77t-88.5 122t-48.5 155.5t-14 183.5zM244 541 q0 -54 3 -97.5t13 -95t26.5 -91t46 -78.5t70 -64t99.5 -40.5t133 -15.5q96 0 180 39.5t145 106t109 151.5t77.5 179.5t44.5 185t15 172.5q0 54 -3 97.5t-13 95t-26.5 91t-46 78t-70 63.5t-99.5 40.5t-133 15.5q-96 0 -180 -39.5t-145 -106t-109 -151t-77.5 -179t-44.5 -185 t-15 -172.5z" />
<glyph unicode="&#x153;" horiz-adv-x="1869" d="M102 401q0 200 66.5 359.5t182.5 248.5t259 89q161 0 260 -75t129 -216q72 136 192.5 213.5t270.5 77.5q149 0 229.5 -74.5t80.5 -187.5q0 -168 -161 -263.5t-487 -95.5h-120v-45q0 -181 68.5 -279t193.5 -98q37 0 78.5 9.5t73 21t73 33t60.5 33t55 34.5t39 25l43 -70 l-36 -21q-35 -22 -44.5 -27.5t-46.5 -26t-56 -28.5t-55 -22.5t-62.5 -21t-60.5 -12t-65 -5.5q-128 0 -215 75.5t-119 221.5q-68 -140 -178.5 -218.5t-243.5 -78.5q-198 0 -301 110t-103 314zM190 408q0 -61 8.5 -111t30 -96.5t56.5 -77.5t91.5 -49.5t131.5 -18.5 q123 0 220 87.5t147.5 226.5t50.5 299q0 61 -8.5 111t-30 96t-56.5 77t-91.5 49.5t-131.5 18.5q-123 0 -220 -87.5t-147.5 -226t-50.5 -298.5zM1012 555h127q272 0 406 76t134 209q0 84 -63 132t-160 48q-166 0 -290 -127t-154 -338z" />
<glyph unicode="&#x154;" horiz-adv-x="1296" d="M111 0l254 1434h469q87 0 158.5 -18t129 -56.5t89.5 -105t32 -156.5q0 -108 -36.5 -192.5t-101 -137.5t-144 -83.5t-173.5 -39.5l265 -645h-95l-253 643h-390l-114 -643h-90zM330 725h383q200 0 318 95.5t118 275.5q0 131 -86 193.5t-232 62.5h-391zM733 1546l260 256 h168l-346 -256h-82z" />
<glyph unicode="&#x155;" horiz-adv-x="698" d="M72 0l190 1075h86l-43 -233q11 18 25 38.5t55 64t85 74t113.5 52.5t143.5 16l-16 -83q-65 0 -124 -18.5t-101.5 -48t-79 -65.5t-60.5 -72t-40.5 -65.5t-23.5 -48.5l-8 -18l-116 -668h-86zM403 1237l261 256h167l-346 -256h-82z" />
<glyph unicode="&#x156;" horiz-adv-x="1296" d="M111 0l254 1434h469q87 0 158.5 -18t129 -56.5t89.5 -105t32 -156.5q0 -108 -36.5 -192.5t-101 -137.5t-144 -83.5t-173.5 -39.5l265 -645h-95l-253 643h-390l-114 -643h-90zM330 725h383q200 0 318 95.5t118 275.5q0 131 -86 193.5t-232 62.5h-391zM381 -483l104 180 h-57l29 166h116l-10 -166l-147 -221z" />
<glyph unicode="&#x157;" horiz-adv-x="696" d="M-47 -483l104 180h-57l29 166h116l-10 -166l-147 -221zM72 0l190 1075h86l-43 -233q11 18 25 38.5t55 64t85 74t113.5 52.5t143.5 16l-16 -83q-65 0 -124 -18.5t-101.5 -48t-79 -65.5t-60.5 -72t-40.5 -65.5t-23.5 -48.5l-8 -18l-116 -668h-86z" />
<glyph unicode="&#x158;" horiz-adv-x="1296" d="M111 0l254 1434h469q87 0 158.5 -18t129 -56.5t89.5 -105t32 -156.5q0 -108 -36.5 -192.5t-101 -137.5t-144 -83.5t-173.5 -39.5l265 -645h-95l-253 643h-390l-114 -643h-90zM330 725h383q200 0 318 95.5t118 275.5q0 131 -86 193.5t-232 62.5h-391zM655 1802h68 l139 -190l203 190h80l-223 -256h-131z" />
<glyph unicode="&#x159;" horiz-adv-x="696" d="M72 0l190 1075h86l-43 -233q11 18 25 38.5t55 64t85 74t113.5 52.5t143.5 16l-16 -83q-65 0 -124 -18.5t-101.5 -48t-79 -65.5t-60.5 -72t-40.5 -65.5t-23.5 -48.5l-8 -18l-116 -668h-86zM324 1493h67l139 -190l203 190h80l-223 -256h-131z" />
<glyph unicode="&#x15a;" horiz-adv-x="1153" d="M39 143l57 72q223 -156 428 -156q159 0 269 87.5t110 230.5q0 39 -10 72.5t-24 59.5t-41 51t-50 42t-64 38t-68.5 33.5t-76.5 33.5q-50 21 -77.5 33.5t-69 34.5t-64.5 40t-51 46t-42 57t-24 68.5t-10 84.5q0 120 62.5 209.5t161 132.5t217.5 43q114 0 228.5 -39 t205.5 -94l-55 -66q-85 52 -190.5 84.5t-196.5 32.5q-90 0 -166 -33t-125 -103t-49 -165q0 -39 7 -69.5t27.5 -57t39 -44t59.5 -39.5t70 -35.5t89 -39.5q46 -20 72.5 -32t67.5 -32.5t65 -37.5t55 -41.5t48.5 -50t34.5 -57.5t24.5 -70t7.5 -82q0 -80 -27 -148t-73.5 -115 t-107.5 -80.5t-128 -49t-137 -15.5q-132 0 -257 49.5t-222 116.5zM618 1546l261 256h168l-347 -256h-82z" />
<glyph unicode="&#x15b;" horiz-adv-x="960" d="M23 111l55 63q188 -119 338 -119q72 0 136 24.5t108.5 79t44.5 128.5q0 47 -16 81.5t-60 61.5t-70.5 38.5t-97.5 37.5q-14 5 -21 8q-35 13 -57 21.5t-54.5 23.5t-52.5 29.5t-44 36.5t-37 46t-22 57t-9 71q0 72 29.5 130t79.5 94.5t113 55.5t132 19q97 0 193 -34t163 -79 l-49 -63q-161 98 -307 98q-111 0 -189.5 -58t-78.5 -157q0 -20 4 -38t9.5 -32.5t17.5 -28.5t20.5 -23.5t26.5 -20.5t28 -16.5t32.5 -15.5t31.5 -13.5t34.5 -12.5t32.5 -12q65 -24 107 -43t83.5 -45t64.5 -55t37 -68t14 -88q0 -103 -55.5 -176.5t-138 -106.5t-179.5 -33 q-192 0 -397 134zM471 1237l260 256h168l-346 -256h-82z" />
<glyph unicode="&#x15c;" horiz-adv-x="1153" d="M39 143l57 72q223 -156 428 -156q159 0 269 87.5t110 230.5q0 39 -10 72.5t-24 59.5t-41 51t-50 42t-64 38t-68.5 33.5t-76.5 33.5q-50 21 -77.5 33.5t-69 34.5t-64.5 40t-51 46t-42 57t-24 68.5t-10 84.5q0 120 62.5 209.5t161 132.5t217.5 43q114 0 228.5 -39 t205.5 -94l-55 -66q-85 52 -190.5 84.5t-196.5 32.5q-90 0 -166 -33t-125 -103t-49 -165q0 -39 7 -69.5t27.5 -57t39 -44t59.5 -39.5t70 -35.5t89 -39.5q46 -20 72.5 -32t67.5 -32.5t65 -37.5t55 -41.5t48.5 -50t34.5 -57.5t24.5 -70t7.5 -82q0 -80 -27 -148t-73.5 -115 t-107.5 -80.5t-128 -49t-137 -15.5q-132 0 -257 49.5t-222 116.5zM498 1546l223 256h131l135 -256h-67l-140 191l-202 -191h-80z" />
<glyph unicode="&#x15d;" horiz-adv-x="960" d="M23 111l55 63q188 -119 338 -119q72 0 136 24.5t108.5 79t44.5 128.5q0 47 -16 81.5t-60 61.5t-70.5 38.5t-97.5 37.5q-14 5 -21 8q-35 13 -57 21.5t-54.5 23.5t-52.5 29.5t-44 36.5t-37 46t-22 57t-9 71q0 72 29.5 130t79.5 94.5t113 55.5t132 19q97 0 193 -34t163 -79 l-49 -63q-161 98 -307 98q-111 0 -189.5 -58t-78.5 -157q0 -20 4 -38t9.5 -32.5t17.5 -28.5t20.5 -23.5t26.5 -20.5t28 -16.5t32.5 -15.5t31.5 -13.5t34.5 -12.5t32.5 -12q65 -24 107 -43t83.5 -45t64.5 -55t37 -68t14 -88q0 -103 -55.5 -176.5t-138 -106.5t-179.5 -33 q-192 0 -397 134zM350 1237l223 256h132l135 -256h-68l-139 190l-203 -190h-80z" />
<glyph unicode="&#x15e;" horiz-adv-x="1153" d="M39 143l57 72q223 -156 428 -156q159 0 269 87.5t110 230.5q0 39 -10 72.5t-24 59.5t-41 51t-50 42t-64 38t-68.5 33.5t-76.5 33.5q-50 21 -77.5 33.5t-69 34.5t-64.5 40t-51 46t-42 57t-24 68.5t-10 84.5q0 120 62.5 209.5t161 132.5t217.5 43q114 0 228.5 -39 t205.5 -94l-55 -66q-85 52 -190.5 84.5t-196.5 32.5q-90 0 -166 -33t-125 -103t-49 -165q0 -39 7 -69.5t27.5 -57t39 -44t59.5 -39.5t70 -35.5t89 -39.5q46 -20 72.5 -32t67.5 -32.5t65 -37.5t55 -41.5t48.5 -50t34.5 -57.5t24.5 -70t7.5 -82q0 -96 -38 -173.5t-102 -125.5 t-141.5 -75t-162.5 -31q35 -73 35 -134q0 -81 -52.5 -131.5t-146.5 -50.5q-79 0 -141 35l39 68q50 -27 102 -27q53 0 90 31.5t37 97.5q0 40 -21 111q-126 5 -244 52.5t-206 110.5z" />
<glyph unicode="&#x15f;" horiz-adv-x="960" d="M23 111l55 63q188 -119 338 -119q72 0 136 24.5t108.5 79t44.5 128.5q0 47 -16 81.5t-60 61.5t-70.5 38.5t-97.5 37.5q-14 5 -21 8q-35 13 -57 21.5t-54.5 23.5t-52.5 29.5t-44 36.5t-37 46t-22 57t-9 71q0 72 29.5 130t79.5 94.5t113 55.5t132 19q97 0 193 -34t163 -79 l-49 -63q-161 98 -307 98q-111 0 -189.5 -58t-78.5 -157q0 -20 4 -38t9.5 -32.5t17.5 -28.5t20.5 -23.5t26.5 -20.5t28 -16.5t32.5 -15.5t31.5 -13.5t34.5 -12.5t32.5 -12q65 -24 107 -43t83.5 -45t64.5 -55t37 -68t14 -88q0 -75 -29 -134.5t-79 -97t-111 -58t-130 -23.5 q35 -72 35 -134q0 -81 -52 -131.5t-146 -50.5q-80 0 -142 35l39 68q50 -27 103 -27t90 31.5t37 97.5q0 40 -21 111q-186 10 -364 131z" />
<glyph unicode="&#x160;" horiz-adv-x="1153" d="M39 143l57 72q223 -156 428 -156q159 0 269 87.5t110 230.5q0 39 -10 72.5t-24 59.5t-41 51t-50 42t-64 38t-68.5 33.5t-76.5 33.5q-50 21 -77.5 33.5t-69 34.5t-64.5 40t-51 46t-42 57t-24 68.5t-10 84.5q0 120 62.5 209.5t161 132.5t217.5 43q114 0 228.5 -39 t205.5 -94l-55 -66q-85 52 -190.5 84.5t-196.5 32.5q-90 0 -166 -33t-125 -103t-49 -165q0 -39 7 -69.5t27.5 -57t39 -44t59.5 -39.5t70 -35.5t89 -39.5q46 -20 72.5 -32t67.5 -32.5t65 -37.5t55 -41.5t48.5 -50t34.5 -57.5t24.5 -70t7.5 -82q0 -80 -27 -148t-73.5 -115 t-107.5 -80.5t-128 -49t-137 -15.5q-132 0 -257 49.5t-222 116.5zM543 1802h67l140 -190l202 190h80l-223 -256h-131z" />
<glyph unicode="&#x161;" horiz-adv-x="958" d="M23 111l55 63q188 -119 338 -119q72 0 136 24.5t108.5 79t44.5 128.5q0 47 -16 81.5t-60 61.5t-70.5 38.5t-97.5 37.5q-14 5 -21 8q-35 13 -57 21.5t-54.5 23.5t-52.5 29.5t-44 36.5t-37 46t-22 57t-9 71q0 72 29.5 130t79.5 94.5t113 55.5t132 19q97 0 193 -34t163 -79 l-49 -63q-161 98 -307 98q-111 0 -189.5 -58t-78.5 -157q0 -20 4 -38t9.5 -32.5t17.5 -28.5t20.5 -23.5t26.5 -20.5t28 -16.5t32.5 -15.5t31.5 -13.5t34.5 -12.5t32.5 -12q65 -24 107 -43t83.5 -45t64.5 -55t37 -68t14 -88q0 -103 -55.5 -176.5t-138 -106.5t-179.5 -33 q-192 0 -397 134zM391 1493h68l139 -190l203 190h80l-224 -256h-131z" />
<glyph unicode="&#x162;" horiz-adv-x="1052" d="M152 -301l38 68q50 -27 103 -27t90 31.5t37 97.5q0 59 -27 131h-22l239 1352h-428l15 82h948l-15 -82h-430l-239 -1352h-19q50 -70 50 -154q0 -81 -52.5 -131.5t-146.5 -50.5q-79 0 -141 35z" />
<glyph unicode="&#x163;" horiz-adv-x="675" d="M6 -301l39 68q50 -27 102 -27q53 0 90 31.5t37 97.5q0 45 -20 113q-153 20 -117 215l144 804h-140l15 74h137l49 271l92 40l-55 -311h274l-14 -74h-274l-146 -825q-21 -121 78 -121q60 0 213 64l27 -74q-35 -17 -106.5 -40.5t-119.5 -27.5q35 -67 35 -131 q0 -81 -52.5 -131.5t-146.5 -50.5q-79 0 -141 35z" />
<glyph unicode="&#x164;" horiz-adv-x="1052" d="M182 1352l15 82h948l-15 -82h-430l-239 -1352h-90l239 1352h-428zM492 1802h67l139 -190l203 190h80l-223 -256h-131z" />
<glyph unicode="&#x165;" horiz-adv-x="675" d="M132 104.5q-7 38.5 5 92.5l144 804h-140l15 74h137l49 271l92 40l-55 -311h274l-14 -74h-274l-146 -825q-21 -121 78 -121q60 0 213 64l27 -74q-41 -19 -119.5 -43.5t-122.5 -24.5q-29 0 -53.5 5.5t-49.5 19.5t-39 39t-21 63.5zM530 1237l105 180h-57l28 166h117 l-10 -166l-148 -221z" />
<glyph unicode="&#x166;" horiz-adv-x="1079" d="M195 1352l14 82h948l-14 -82h-430l-140 -787h222l-13 -73h-223l-86 -492h-90l86 492h-219l12 73h221l140 787h-428z" />
<glyph unicode="&#x167;" horiz-adv-x="673" d="M111 604l14 74h98l58 323h-140l15 74h137l49 271l92 40l-55 -311h274l-14 -74h-274l-58 -323h217l-12 -74h-217l-76 -428q-21 -121 78 -121q60 0 213 64l27 -74q-41 -19 -119.5 -43.5t-122.5 -24.5q-29 0 -53.5 5.5t-49.5 19.5t-39 39t-21 63.5t5 92.5l72 407h-98z" />
<glyph unicode="&#x168;" horiz-adv-x="1337" d="M170 321.5q0 77.5 14 165.5l168 947h90l-166 -940q-14 -77 -16 -138t11 -118.5t45.5 -95t92.5 -60.5t146 -23q385 0 463 435l166 940h90l-168 -947q-15 -87 -42 -160.5t-72 -139.5t-105 -111.5t-144.5 -72t-187.5 -26.5q-100 0 -174 25t-118 70t-68.5 108.5t-24.5 141z M588 1610q48 73 83 103t83 30q41 0 79.5 -25.5t70.5 -50.5t57 -25q24 0 46.5 18.5t61.5 76.5l57 -37q-48 -73 -82.5 -103t-82.5 -30q-41 0 -79 25t-70.5 50t-59.5 25q-24 0 -46.5 -17.5t-60.5 -74.5z" />
<glyph unicode="&#x169;" horiz-adv-x="1132" d="M119 303l135 772h86l-135 -764q-45 -256 149 -256q103 0 232.5 66t214.5 135l145 819h86l-190 -1075h-86l26 158q-53 -38 -111.5 -73t-154 -71.5t-172.5 -36.5q-141 0 -196 90.5t-29 235.5zM424 1300q48 73 83 103.5t83 30.5q32 0 63.5 -16t52.5 -34.5t45.5 -34.5 t45.5 -16q24 0 46.5 18t61.5 76l58 -36q-48 -73 -83 -103.5t-83 -30.5q-32 0 -63.5 16t-52 34.5t-46 34.5t-47.5 16q-24 0 -46.5 -17.5t-60.5 -74.5z" />
<glyph unicode="&#x16a;" horiz-adv-x="1337" d="M170 321.5q0 77.5 14 165.5l168 947h90l-166 -940q-14 -77 -16 -138t11 -118.5t45.5 -95t92.5 -60.5t146 -23q385 0 463 435l166 940h90l-168 -947q-15 -87 -42 -160.5t-72 -139.5t-105 -111.5t-144.5 -72t-187.5 -26.5q-100 0 -174 25t-118 70t-68.5 108.5t-24.5 141z M578 1597l12 74h532l-12 -74h-532z" />
<glyph unicode="&#x16b;" horiz-adv-x="1132" d="M119 303l135 772h86l-135 -764q-45 -256 149 -256q103 0 232.5 66t214.5 135l145 819h86l-190 -1075h-86l26 158q-53 -38 -111.5 -73t-154 -71.5t-172.5 -36.5q-141 0 -196 90.5t-29 235.5zM412 1288l12 74h532l-12 -74h-532z" />
<glyph unicode="&#x16c;" horiz-adv-x="1337" d="M170 321.5q0 77.5 14 165.5l168 947h90l-166 -940q-14 -77 -16 -138t11 -118.5t45.5 -95t92.5 -60.5t146 -23q385 0 463 435l166 940h90l-168 -947q-15 -87 -42 -160.5t-72 -139.5t-105 -111.5t-144.5 -72t-187.5 -26.5q-100 0 -174 25t-118 70t-68.5 108.5t-24.5 141z M629 1745h78q-9 -66 21.5 -94.5t105.5 -28.5q174 0 196 123h82q-15 -92 -89 -145.5t-192 -53.5q-109 0 -164 54t-38 145z" />
<glyph unicode="&#x16d;" horiz-adv-x="1132" d="M119 303l135 772h86l-135 -764q-45 -256 149 -256q103 0 232.5 66t214.5 135l145 819h86l-190 -1075h-86l26 158q-53 -38 -111.5 -73t-154 -71.5t-172.5 -36.5q-141 0 -196 90.5t-29 235.5zM465 1436h78q-9 -66 21.5 -94.5t105.5 -28.5q174 0 196 123h82 q-15 -92 -88.5 -145.5t-191.5 -53.5q-109 0 -164.5 54t-38.5 145z" />
<glyph unicode="&#x16e;" horiz-adv-x="1337" d="M170 321.5q0 77.5 14 165.5l168 947h90l-166 -940q-14 -77 -16 -138t11 -118.5t45.5 -95t92.5 -60.5t146 -23q385 0 463 435l166 940h90l-168 -947q-15 -87 -42 -160.5t-72 -139.5t-105 -111.5t-144.5 -72t-187.5 -26.5q-100 0 -174 25t-118 70t-68.5 108.5t-24.5 141z M670 1722q0 84 56.5 141.5t139.5 57.5t141 -58t58 -141t-57.5 -139.5t-141.5 -56.5q-83 0 -139.5 56.5t-56.5 139.5zM735 1722q0 -54 38.5 -92.5t92.5 -38.5q55 0 94 38.5t39 92.5q0 56 -38.5 94.5t-94.5 38.5q-54 0 -92.5 -39t-38.5 -94z" />
<glyph unicode="&#x16f;" horiz-adv-x="1132" d="M119 303l135 772h86l-135 -764q-45 -256 149 -256q103 0 232.5 66t214.5 135l145 819h86l-190 -1075h-86l26 158q-53 -38 -111.5 -73t-154 -71.5t-172.5 -36.5q-141 0 -196 90.5t-29 235.5zM506 1413q0 84 56.5 141.5t139.5 57.5t141 -58t58 -141t-57.5 -139.5 t-141.5 -56.5q-83 0 -139.5 56.5t-56.5 139.5zM571 1413q0 -54 38.5 -92.5t92.5 -38.5q55 0 94.5 38.5t39.5 92.5q0 55 -39 94t-95 39q-54 0 -92.5 -39t-38.5 -94z" />
<glyph unicode="&#x170;" horiz-adv-x="1337" d="M170 321.5q0 77.5 14 165.5l168 947h90l-166 -940q-14 -77 -16 -138t11 -118.5t45.5 -95t92.5 -60.5t146 -23q385 0 463 435l166 940h90l-168 -947q-15 -87 -42 -160.5t-72 -139.5t-105 -111.5t-144.5 -72t-187.5 -26.5q-100 0 -174 25t-118 70t-68.5 108.5t-24.5 141z M641 1546l176 256h152l-262 -256h-66zM897 1546l176 256h152l-262 -256h-66z" />
<glyph unicode="&#x171;" horiz-adv-x="1132" d="M119 303l135 772h86l-135 -764q-45 -256 149 -256q103 0 232.5 66t214.5 135l145 819h86l-190 -1075h-86l26 158q-53 -38 -111.5 -73t-154 -71.5t-172.5 -36.5q-141 0 -196 90.5t-29 235.5zM475 1237l176 256h152l-262 -256h-66zM731 1237l176 256h152l-262 -256h-66z " />
<glyph unicode="&#x172;" horiz-adv-x="1339" d="M172 321.5q0 77.5 14 165.5l168 947h90l-165 -940q-14 -77 -16.5 -138t11 -118.5t45.5 -95t92 -60.5t146 -23q385 0 463 435l166 940h90l-168 -947q-73 -406 -381 -487q-125 -67 -176 -115.5t-51 -101.5q0 -16 5 -27.5t18 -18.5t22.5 -11t31.5 -5.5t31 -1.5h35l-29 -77 q-29 0 -49.5 1t-52 8t-51 20t-34.5 38t-15 60q0 117 174 208h-29q-100 0 -174 25t-118 70t-68.5 108.5t-24.5 141z" />
<glyph unicode="&#x173;" horiz-adv-x="1132" d="M119 303l135 772h86l-135 -764q-45 -256 149 -256q103 0 232.5 66t214.5 135l145 819h86l-190 -1075h-6q-126 -67 -178 -115.5t-52 -101.5q0 -16 5 -27.5t18 -18.5t22.5 -11t32 -5.5t31.5 -1.5h35l-29 -77q-37 0 -63.5 3t-63 14t-56.5 39t-20 71q0 73 60 129.5t178 109.5 l26 150q-53 -38 -111.5 -73t-154 -71.5t-172.5 -36.5q-141 0 -196 90.5t-29 235.5z" />
<glyph unicode="&#x174;" horiz-adv-x="1753" d="M229 1434h95l86 -1321l557 1321h100l82 -1332l553 1332h100l-614 -1434h-109l-84 1298l-546 -1298h-109zM793 1546l223 256h131l135 -256h-68l-139 191l-203 -191h-79z" />
<glyph unicode="&#x175;" horiz-adv-x="1515" d="M164 1075h90l96 -969l438 969h95l88 -975l440 975h96l-501 -1075h-93l-94 961l-440 -961h-92zM621 1237l223 256h131l135 -256h-68l-139 190l-203 -190h-79z" />
<glyph unicode="&#x177;" horiz-adv-x="1175" d="M115 -336q114 38 179 79t105.5 94t100.5 163l2 6l-205 1069h90l174 -960l518 960h99l-588 -1075q-93 -168 -128 -217q-62 -84 -158 -133q-62 -32 -167 -68zM522 1237l223 256h132l135 -256h-68l-139 190l-203 -190h-80z" />
<glyph unicode="&#x178;" d="M193 1434h94l291 -789l565 789h110l-637 -865l-100 -569h-90l100 567zM535 1567l28 159h119l-29 -159h-118zM838 1567l28 159h119l-29 -159h-118z" />
<glyph unicode="&#x179;" horiz-adv-x="1155" d="M-14 0l14 78l1055 1274h-789l15 82h901l-13 -76l-1056 -1276h841l-14 -82h-954zM631 1546l260 256h168l-346 -256h-82z" />
<glyph unicode="&#x17a;" horiz-adv-x="925" d="M-14 0l14 80l786 917h-606l15 78h710l-14 -80l-787 -917h625l-14 -78h-729zM449 1237l260 256h168l-347 -256h-81z" />
<glyph unicode="&#x17b;" horiz-adv-x="1155" d="M-14 0l14 78l1055 1274h-789l15 82h901l-13 -76l-1056 -1276h841l-14 -82h-954zM696 1567l29 159h119l-29 -159h-119z" />
<glyph unicode="&#x17c;" horiz-adv-x="925" d="M-14 0l14 80l786 917h-606l15 78h710l-14 -80l-787 -917h625l-14 -78h-729zM512 1257l29 160h118l-28 -160h-119z" />
<glyph unicode="&#x17d;" horiz-adv-x="1155" d="M-14 0l14 78l1055 1274h-789l15 82h901l-13 -76l-1056 -1276h841l-14 -82h-954zM551 1802h67l140 -190l203 190h79l-223 -256h-131z" />
<glyph unicode="&#x17e;" horiz-adv-x="925" d="M-14 0l14 80l786 917h-606l15 78h710l-14 -80l-787 -917h625l-14 -78h-729zM371 1493h67l140 -190l202 190h80l-223 -256h-131z" />
<glyph unicode="&#x17f;" horiz-adv-x="532" d="M-168 -342q36 11 63.5 20.5t52 21.5t41 20.5t32.5 24t25.5 26t19 32t15 36.5t12.5 45.5t11 52.5t11 63l174 1001h-135l14 74h135l37 211q20 115 67 161t140 46q54 0 136 -21t132 -40l-43 -66q-38 13 -113 31t-112 18q-57 0 -83.5 -35t-37.5 -94l-223 -1286 q-15 -87 -22.5 -124t-25 -88.5t-36.5 -71.5t-56.5 -48.5t-85.5 -46t-124 -39.5z" />
<glyph unicode="&#x192;" horiz-adv-x="985" d="M-92 -418l561 1419h-141l32 74h138l84 209q49 124 102 166.5t133 42.5q58 0 137 -24t136 -50l-56 -59q-153 55 -217 55q-98 0 -147 -121l-86 -219h274l-31 -74h-272l-561 -1419h-86z" />
<glyph unicode="&#x1fc;" horiz-adv-x="1841" d="M-100 0l1165 1434h784l-14 -82h-688l-105 -594h572l-15 -82h-571l-106 -594h702l-14 -82h-793l70 395h-549l-315 -395h-123zM403 477h498l143 803zM1047 1546l260 256h168l-347 -256h-81z" />
<glyph unicode="&#x1fd;" horiz-adv-x="1759" d="M104 340q0 213 59 385.5t167 272.5t245 100q55 0 107 -17.5t97 -49t76 -59.5t65 -65l30 168h86l-18 -102q141 125 334 125q149 0 229 -74.5t80 -187.5q0 -168 -160.5 -263.5t-486.5 -95.5h-121v-45q0 -181 68.5 -279t193.5 -98q37 0 78.5 9.5t73 21t73 33t60.5 33 t55 34.5t39 25l43 -70l-35 -21q-36 -22 -45.5 -27.5t-46.5 -26t-56 -28.5t-55 -22.5t-62.5 -21t-60.5 -12t-65 -5.5q-188 0 -281 158l-22 -135h-86l33 190q-83 -87 -189.5 -150t-218.5 -63q-43 0 -83 11.5t-77 39t-64 68.5t-43 103.5t-16 140.5zM195 348q0 -138 49.5 -215.5 t144.5 -77.5q60 0 118 18.5t113 56.5t96.5 73.5t96.5 89.5v4q-10 68 -10 137q0 221 96 393q-161 193 -317 193q-70 0 -132.5 -38.5t-108.5 -104t-79.5 -151t-50 -182.5t-16.5 -196zM901 555h127q272 0 406.5 76t134.5 209q0 84 -63 132t-160 48q-167 0 -291 -127t-154 -338z M905 1237l260 256h168l-346 -256h-82z" />
<glyph unicode="&#x1fe;" horiz-adv-x="1415" d="M72 0l151 182q-71 129 -71 361q0 125 26 252t81 246t132 211t187 148t237 56q246 0 363 -139l98 117h98l-151 -181q75 -131 75 -362q0 -125 -26 -252t-81 -246t-132 -211.5t-187 -148.5t-237 -56q-246 0 -367 140l-98 -117h-98zM244 541q0 -185 43 -285l833 993 q-94 125 -305 125q-96 0 -180 -39.5t-145 -106t-109 -151t-77.5 -179t-44.5 -185t-15 -172.5zM326 186q95 -127 309 -127q96 0 180 39.5t145 106t109 151.5t77.5 179.5t44.5 185t15 172.5q0 182 -45 287zM748 1546l260 256h168l-347 -256h-81z" />
<glyph unicode="&#x1ff;" horiz-adv-x="1142" d="M49 0l117 137q-64 101 -64 264q0 200 66.5 359.5t182.5 248.5t259 89q190 0 295 -105l70 82h98l-123 -141q64 -106 64 -260q0 -200 -66.5 -359.5t-182.5 -248.5t-259 -89q-187 0 -291 101l-68 -78h-98zM190 408q0 -129 35 -203l625 727q-75 88 -242 88q-123 0 -220 -87.5 t-147.5 -226t-50.5 -298.5zM268 139q74 -84 240 -84q123 0 220 87.5t147.5 226.5t50.5 299q0 119 -35 196zM559 1237l260 256h168l-346 -256h-82z" />
<glyph unicode="&#x218;" horiz-adv-x="1153" d="M39 143l57 72q223 -156 428 -156q159 0 269 87.5t110 230.5q0 39 -10 72.5t-24 59.5t-41 51t-50 42t-64 38t-68.5 33.5t-76.5 33.5q-50 21 -77.5 33.5t-69 34.5t-64.5 40t-51 46t-42 57t-24 68.5t-10 84.5q0 120 62.5 209.5t161 132.5t217.5 43q114 0 228.5 -39 t205.5 -94l-55 -66q-85 52 -190.5 84.5t-196.5 32.5q-90 0 -166 -33t-125 -103t-49 -165q0 -39 7 -69.5t27.5 -57t39 -44t59.5 -39.5t70 -35.5t89 -39.5q46 -20 72.5 -32t67.5 -32.5t65 -37.5t55 -41.5t48.5 -50t34.5 -57.5t24.5 -70t7.5 -82q0 -80 -27 -148t-73.5 -115 t-107.5 -80.5t-128 -49t-137 -15.5q-132 0 -257 49.5t-222 116.5zM311 -483l105 180h-58l29 166h117l-10 -166l-148 -221z" />
<glyph unicode="&#x219;" horiz-adv-x="960" d="M23 111l55 63q188 -119 338 -119q72 0 136 24.5t108.5 79t44.5 128.5q0 47 -16 81.5t-60 61.5t-70.5 38.5t-97.5 37.5q-14 5 -21 8q-35 13 -57 21.5t-54.5 23.5t-52.5 29.5t-44 36.5t-37 46t-22 57t-9 71q0 72 29.5 130t79.5 94.5t113 55.5t132 19q97 0 193 -34t163 -79 l-49 -63q-161 98 -307 98q-111 0 -189.5 -58t-78.5 -157q0 -20 4 -38t9.5 -32.5t17.5 -28.5t20.5 -23.5t26.5 -20.5t28 -16.5t32.5 -15.5t31.5 -13.5t34.5 -12.5t32.5 -12q65 -24 107 -43t83.5 -45t64.5 -55t37 -68t14 -88q0 -103 -55.5 -176.5t-138 -106.5t-179.5 -33 q-192 0 -397 134zM215 -483l104 180h-57l29 166h117l-11 -166l-147 -221z" />
<glyph unicode="&#x21a;" horiz-adv-x="1052" d="M182 1352l15 82h948l-15 -82h-430l-239 -1352h-90l239 1352h-428zM258 -483l104 180h-57l29 166h117l-11 -166l-147 -221z" />
<glyph unicode="&#x21b;" horiz-adv-x="675" d="M47 -483l105 180h-58l29 166h117l-11 -166l-147 -221zM132 104.5q-7 38.5 5 92.5l144 804h-140l15 74h137l49 271l92 40l-55 -311h274l-14 -74h-274l-146 -825q-21 -121 78 -121q60 0 213 64l27 -74q-41 -19 -119.5 -43.5t-122.5 -24.5q-29 0 -53.5 5.5t-49.5 19.5 t-39 39t-21 63.5z" />
<glyph unicode="&#x2b0;" horiz-adv-x="759" d="M158 788l157 895h80l-61 -340q153 105 270 105q90 0 126 -56t20 -147l-80 -457h-80l80 449q25 143 -86 143q-63 0 -139.5 -37t-122.5 -75l-84 -480h-80z" />
<glyph unicode="&#x2b2;" horiz-adv-x="333" d="M-18 596q73 23 106 42.5t43.5 40.5t18.5 69l120 686h80l-121 -682q-6 -31 -8.5 -44.5t-9 -35.5t-13 -32t-18 -25.5t-26.5 -23.5t-37.5 -19.5t-50.5 -20.5t-66 -19zM291 1573l18 108h90l-18 -108h-90z" />
<glyph unicode="&#x2b7;" horiz-adv-x="972" d="M195 1434h81l56 -560l258 560h78l55 -562l254 562h86l-309 -646h-80l-60 547l-258 -547h-80z" />
<glyph unicode="&#x2b8;" horiz-adv-x="667" d="M88 600q99 32 141.5 67t92.5 124l-134 643h82l105 -549l301 549h92l-365 -646q-22 -39 -30 -53t-26 -42.5t-27 -38.5t-27.5 -29.5t-34 -28t-39.5 -22t-51 -23t-62 -19.5z" />
<glyph unicode="&#x2c6;" horiz-adv-x="503" d="M227 1237l224 256h131l135 -256h-68l-139 190l-203 -190h-80z" />
<glyph unicode="&#x2c7;" horiz-adv-x="505" d="M274 1493h68l139 -190l203 190h80l-223 -256h-131z" />
<glyph unicode="&#x2d8;" horiz-adv-x="495" d="M262 1436h78q-9 -66 21.5 -94.5t105.5 -28.5q79 0 132.5 29.5t64.5 93.5h81q-15 -92 -88.5 -145.5t-191.5 -53.5q-109 0 -164.5 54t-38.5 145z" />
<glyph unicode="&#x2d9;" horiz-adv-x="135" d="M229 1257l29 160h119l-29 -160h-119z" />
<glyph unicode="&#x2da;" horiz-adv-x="430" d="M127 1413q0 83 57 141t140 58t140.5 -58t57.5 -141t-57.5 -139.5t-140.5 -56.5t-140 56.5t-57 139.5zM193 1413q0 -54 38.5 -92.5t92.5 -38.5q55 0 94 38.5t39 92.5q0 55 -38.5 94t-94.5 39q-54 0 -92.5 -39t-38.5 -94z" />
<glyph unicode="&#x2db;" horiz-adv-x="274" d="M-43 -231q0 77 67.5 136.5t202.5 117.5l52 -21q-128 -69 -181 -117.5t-53 -101.5q0 -16 5 -27.5t18 -18.5t22.5 -11t31.5 -5.5t31 -1.5h35l-28 -77q-37 0 -63.5 3t-63 14t-56.5 39t-20 71z" />
<glyph unicode="&#x2dc;" horiz-adv-x="544" d="M240 1300q48 73 83 103.5t83 30.5q32 0 63.5 -16t52 -34.5t45 -34.5t45.5 -16q24 0 47.5 18.5t61.5 75.5l57 -36q-48 -73 -83 -103.5t-83 -30.5q-32 0 -63.5 16t-52 34.5t-46 34.5t-47.5 16q-24 0 -45.5 -17.5t-60.5 -74.5z" />
<glyph unicode="&#x2dd;" horiz-adv-x="555" d="M227 1237l176 256h152l-262 -256h-66zM483 1237l176 256h152l-262 -256h-66z" />
<glyph unicode="&#x2e3;" horiz-adv-x="714" d="M80 788l321 324l-194 322h88l151 -271l248 271h105l-310 -322l207 -324h-86l-166 277l-258 -277h-106z" />
<glyph unicode="&#x3c0;" horiz-adv-x="1036" d="M123 0l176 993h-170l16 82h899l-16 -82h-170l-174 -993h-92l176 993h-379l-176 -993h-90z" />
<glyph unicode="&#x1e80;" horiz-adv-x="1753" d="M229 1434h95l86 -1321l557 1321h100l82 -1332l553 1332h100l-614 -1434h-109l-84 1298l-546 -1298h-109zM819 1802h146l192 -256h-70z" />
<glyph unicode="&#x1e81;" horiz-adv-x="1515" d="M164 1075h90l96 -969l438 969h95l88 -975l440 975h96l-501 -1075h-93l-94 961l-440 -961h-92zM649 1493h146l192 -256h-69z" />
<glyph unicode="&#x1e82;" horiz-adv-x="1753" d="M229 1434h95l86 -1321l557 1321h100l82 -1332l553 1332h100l-614 -1434h-109l-84 1298l-546 -1298h-109zM915 1546l261 256h167l-346 -256h-82z" />
<glyph unicode="&#x1e83;" horiz-adv-x="1515" d="M164 1075h90l96 -969l438 969h95l88 -975l440 975h96l-501 -1075h-93l-94 961l-440 -961h-92zM745 1237l261 256h168l-347 -256h-82z" />
<glyph unicode="&#x1e84;" horiz-adv-x="1753" d="M229 1434h95l86 -1321l557 1321h100l82 -1332l553 1332h100l-614 -1434h-109l-84 1298l-546 -1298h-109zM825 1542l29 160h119l-29 -160h-119zM1128 1542l29 160h119l-29 -160h-119z" />
<glyph unicode="&#x1e85;" horiz-adv-x="1515" d="M164 1075h90l96 -969l438 969h95l88 -975l440 975h96l-501 -1075h-93l-94 961l-440 -961h-92zM659 1257l29 160h119l-29 -160h-119zM963 1257l28 160h119l-29 -160h-118z" />
<glyph unicode="&#x1e9e;" horiz-adv-x="1490" d="M111 0l170 961q20 111 56.5 196t81 136.5t100.5 84t109 44.5t113 12h613l-13 -70l-518 -526q119 -4 214.5 -33t155 -71.5t99.5 -98.5t56 -110.5t16 -110.5q0 -77 -31 -152t-90 -140t-157.5 -105t-221.5 -40q-237 0 -450 142l53 71q197 -131 393 -131q105 0 187.5 31.5 t131 84t73 113.5t24.5 126q0 46 -12 90t-46 91.5t-86.5 82.5t-141 57.5t-202.5 22.5h-100l12 71l517 523h-476q-302 0 -370 -391l-170 -961h-90z" />
<glyph unicode="&#x1ef2;" d="M193 1434h94l291 -789l565 789h110l-637 -865l-100 -569h-90l100 567zM526 1802h146l192 -256h-69z" />
<glyph unicode="&#x1ef3;" horiz-adv-x="1032" d="M-29 -336q114 38 179 79t105.5 94t100.5 163l2 6l-204 1069h90l174 -960l518 960h98l-588 -1075q-93 -169 -127 -216q-62 -84 -157 -134q-62 -32 -168 -68zM408 1493h145l192 -256h-69z" />
<glyph unicode="&#x2000;" horiz-adv-x="960" />
<glyph unicode="&#x2001;" horiz-adv-x="1921" />
<glyph unicode="&#x2002;" horiz-adv-x="960" />
<glyph unicode="&#x2003;" horiz-adv-x="1921" />
<glyph unicode="&#x2004;" horiz-adv-x="640" />
<glyph unicode="&#x2005;" horiz-adv-x="480" />
<glyph unicode="&#x2006;" horiz-adv-x="320" />
<glyph unicode="&#x2007;" horiz-adv-x="320" />
<glyph unicode="&#x2008;" horiz-adv-x="240" />
<glyph unicode="&#x2009;" horiz-adv-x="384" />
<glyph unicode="&#x200a;" horiz-adv-x="106" />
<glyph unicode="&#x2010;" horiz-adv-x="839" d="M158 541l14 86h498l-17 -86h-495z" />
<glyph unicode="&#x2011;" horiz-adv-x="839" d="M158 541l14 86h498l-17 -86h-495z" />
<glyph unicode="&#x2012;" horiz-adv-x="839" d="M158 541l14 86h498l-17 -86h-495z" />
<glyph unicode="&#x2013;" horiz-adv-x="1087" d="M158 541l14 86h746l-15 -86h-745z" />
<glyph unicode="&#x2014;" horiz-adv-x="1280" d="M158 541l14 86h938l-14 -86h-938z" />
<glyph unicode="&#x2018;" horiz-adv-x="446" d="M238 1047l12 186l153 242l33 -41l-106 -201h57l-33 -186h-116z" />
<glyph unicode="&#x2019;" horiz-adv-x="436" d="M225 1047l107 200h-58l33 187h117l-12 -187l-154 -241z" />
<glyph unicode="&#x201a;" horiz-adv-x="466" d="M18 -201l107 201h-57l32 186h117l-12 -186l-154 -242z" />
<glyph unicode="&#x201c;" horiz-adv-x="745" d="M238 1047l12 186l153 242l33 -41l-106 -201h57l-33 -186h-116zM537 1047l12 186l153 242l33 -41l-106 -201h57l-33 -186h-116z" />
<glyph unicode="&#x201d;" horiz-adv-x="735" d="M225 1047l107 200h-58l33 187h117l-12 -187l-154 -241zM524 1047l107 200h-58l33 187h117l-12 -187l-154 -241z" />
<glyph unicode="&#x201e;" horiz-adv-x="765" d="M18 -201l107 201h-57l32 186h117l-12 -186l-154 -242zM317 -201l107 201h-57l32 186h117l-12 -186l-154 -242z" />
<glyph unicode="&#x2020;" horiz-adv-x="1069" d="M106 838l17 90l422 -15l92 521h78l-92 -521l432 15l-17 -90l-426 12l-223 -1268h-78l224 1268z" />
<glyph unicode="&#x2021;" horiz-adv-x="1179" d="M68 301l16 90l422 -14l84 473l-428 -12l16 90l424 -15l92 521h78l-92 -521l430 15l-16 -90l-426 12l-84 -473l432 14l-17 -90l-426 12l-129 -731h-77l129 731z" />
<glyph unicode="&#x2022;" horiz-adv-x="847" d="M195 584q0 92 65.5 157.5t157.5 65.5t157.5 -65.5t65.5 -157.5t-65.5 -158t-157.5 -66t-157.5 66t-65.5 158z" />
<glyph unicode="&#x2026;" horiz-adv-x="1140" d="M66 0l32 186h121l-33 -186h-120zM406 0l32 186h121l-33 -186h-120zM743 0l33 186h121l-33 -186h-121z" />
<glyph unicode="&#x202f;" horiz-adv-x="384" />
<glyph unicode="&#x2030;" horiz-adv-x="2648" d="M174 987q0 203 104.5 336t266.5 133q148 0 225.5 -78t77.5 -221q0 -204 -103.5 -336.5t-267.5 -132.5q-147 0 -225 78.5t-78 220.5zM262 989q0 -52 9.5 -90t32.5 -70.5t67.5 -49.5t109.5 -17q125 0 203 117.5t78 275.5q0 51 -9.5 89.5t-32.5 71t-67 49.5t-108 17 q-84 0 -150 -56.5t-99.5 -145.5t-33.5 -191zM430 0l948 1434h92l-948 -1434h-92zM1053 276q0 203 104 336t266 133q148 0 225.5 -78t77.5 -221q0 -204 -103 -336.5t-267 -132.5q-147 0 -225 78.5t-78 220.5zM1141 279q0 -52 9.5 -90t32.5 -71t67.5 -50t109.5 -17 q84 0 149 57t98 145.5t33 190.5q0 107 -47.5 167.5t-169.5 60.5q-125 0 -203.5 -117.5t-78.5 -275.5zM1835 276q0 203 104.5 336t266.5 133q148 0 225.5 -78t77.5 -221q0 -204 -103.5 -336.5t-267.5 -132.5q-147 0 -225 78.5t-78 220.5zM1923 279q0 -52 9.5 -90t32.5 -71 t67.5 -50t109.5 -17q125 0 203 117.5t78 275.5q0 107 -47.5 167.5t-169.5 60.5q-84 0 -150 -56.5t-99.5 -145.5t-33.5 -191z" />
<glyph unicode="&#x2039;" horiz-adv-x="796" d="M76 551l12 65l655 467l-20 -108l-553 -402l414 -397l-15 -92z" />
<glyph unicode="&#x203a;" horiz-adv-x="794" d="M41 84l20 109l553 401l-413 397l14 92l494 -467l-13 -65z" />
<glyph unicode="&#x2044;" horiz-adv-x="264" d="M-332 0l881 1434h86l-881 -1434h-86z" />
<glyph unicode="&#x205f;" horiz-adv-x="480" />
<glyph unicode="&#x2070;" horiz-adv-x="831" d="M201 1075q0 69 14.5 146t46 156.5t76 142.5t111 103t143.5 40q137 0 193.5 -79t56.5 -222q0 -69 -14.5 -146t-46 -156.5t-76 -142.5t-111 -103t-143.5 -40q-136 0 -193 79.5t-57 221.5zM283 1073q0 -37 2 -63.5t11.5 -60.5t26.5 -54.5t50 -35.5t78 -15q63 0 116.5 39 t88 98.5t59 131.5t35 136t10.5 115q0 37 -2 63.5t-11.5 60.5t-26.5 54.5t-49 35.5t-77 15q-63 0 -117 -39t-88.5 -98.5t-59.5 -131.5t-35.5 -136t-10.5 -115z" />
<glyph unicode="&#x2074;" horiz-adv-x="780" d="M135 987l10 64l510 598h107l-107 -592h127l-10 -70h-129l-35 -199h-82l35 199h-426zM236 1057h337l91 506z" />
<glyph unicode="&#x2075;" horiz-adv-x="733" d="M131 864l45 58q106 -74 205 -74q96 0 174 64t78 171q0 79 -45 128t-127 49q-80 0 -187 -58l-45 25l119 422h434l-12 -72h-367l-73 -283q72 35 147 35q111 0 175.5 -69.5t64.5 -176.5q0 -129 -91 -219t-239 -90q-133 0 -256 90z" />
<glyph unicode="&#x2076;" horiz-adv-x="778" d="M193 1071q0 157 67 293.5t183 217.5t253 81q31 0 60.5 -4.5t43.5 -8.5l13 -5l-29 -64q-35 10 -84 10q-138 0 -248.5 -100.5t-154.5 -253.5q100 100 231 100q116 0 179 -71t63 -170q0 -61 -20.5 -118t-58.5 -103t-98 -73.5t-132 -27.5q-89 0 -151.5 44.5t-89.5 110 t-27 142.5zM272 1069q0 -91 48.5 -157t136.5 -66q106 0 168.5 74t62.5 176q0 70 -43.5 122t-126.5 52q-78 0 -146 -45t-98 -95q-2 -20 -2 -61z" />
<glyph unicode="&#x2077;" horiz-adv-x="643" d="M221 788q19 104 69 221.5t102.5 205t116.5 176t94 125t52 61.5h-424l13 72h522l-10 -62q-15 -16 -40.5 -45t-94 -119t-124.5 -180.5t-111 -216t-75 -238.5h-90z" />
<glyph unicode="&#x2078;" horiz-adv-x="786" d="M160 987q0 177 252 270q-121 64 -121 179q0 101 79.5 164t196.5 63q104 0 168 -51t64 -137q0 -147 -205 -228q172 -84 172 -219q0 -112 -100.5 -183t-239.5 -71q-120 0 -193 55.5t-73 157.5zM244 989q0 -70 49 -107.5t131 -37.5q101 0 178.5 52t77.5 132q0 67 -49.5 111 t-128.5 80q-52 -17 -91 -35t-80.5 -45.5t-64 -65.5t-22.5 -84zM373 1432q0 -93 129 -146q45 14 78.5 28.5t67 36.5t51.5 51t18 64q0 54 -41.5 91.5t-108.5 37.5q-80 0 -137 -48t-57 -115z" />
<glyph unicode="&#x2079;" horiz-adv-x="778" d="M176 793l31 63q35 -10 84 -10q138 0 248.5 100.5t154.5 253.5q-94 -100 -233 -100q-115 0 -177.5 71t-62.5 170q0 61 20.5 118t58.5 103t98 73.5t132 27.5q129 0 198 -88t69 -209q0 -157 -67 -293.5t-183.5 -217.5t-253.5 -81q-31 0 -60.5 5t-42.5 9zM301 1341 q0 -70 43.5 -122t126.5 -52q81 0 149 47t95 97q4 36 4 57q0 91 -48.5 157t-138.5 66q-104 0 -167.5 -74t-63.5 -176z" />
<glyph unicode="&#x207a;" horiz-adv-x="763" d="M184 1165l13 66h260l43 242h67l-43 -242h260l-10 -66h-262l-41 -241h-68l41 241h-260z" />
<glyph unicode="&#x207d;" horiz-adv-x="423" d="M164.5 729.5q-3.5 37.5 7.5 93.5l139 787q9 50 17.5 76t32.5 53t65.5 44.5t112.5 35.5l18 -60q-52 -16 -81 -28.5t-46.5 -30.5t-24 -37t-12.5 -55l-139 -785q-16 -76 -2 -99.5t100 -53.5l-24 -58q-86 25 -123 52.5t-40.5 65z" />
<glyph unicode="&#x207e;" horiz-adv-x="421" d="M78 672q52 16 81 28.5t46.5 30.5t24 37t12.5 55l139 785q16 76 2 99.5t-100 53.5l24 58q86 -25 123 -52.5t40.5 -65t-7.5 -93.5l-139 -787q-9 -50 -17.5 -76t-32.5 -53t-65.5 -44.5t-112.5 -35.5z" />
<glyph unicode="&#x207f;" horiz-adv-x="759" d="M158 788l114 646h80l-16 -91q153 105 268 105q90 0 126 -56t20 -147l-80 -457h-80l80 449q25 143 -86 143q-62 0 -139 -37t-123 -75l-84 -480h-80z" />
<glyph unicode="&#x2080;" horiz-adv-x="833" d="M8 -20q0 88 24 186t69.5 189.5t123.5 151.5t174 60q137 0 193.5 -79t56.5 -222q0 -69 -14.5 -146t-46 -156.5t-76 -142.5t-111 -103t-143.5 -40q-136 0 -193 79.5t-57 222.5zM90 -23q0 -37 2 -63.5t11.5 -60.5t26.5 -54.5t50 -35.5t78 -15q63 0 116.5 39t88 98.5 t59 131.5t35 136t10.5 115q0 37 -2 63.5t-11.5 60.5t-26.5 55t-49 36t-77 15q-63 0 -117 -39t-88.5 -98.5t-59.5 -132t-35.5 -136.5t-10.5 -115z" />
<glyph unicode="&#x2081;" horiz-adv-x="534" d="M23 444l213 109h71l-151 -860h-82l137 770l-160 -82z" />
<glyph unicode="&#x2082;" horiz-adv-x="731" d="M-72 -307l11 63q10 63 32.5 111t70.5 91t77.5 63.5t103.5 66.5q28 18 43 27q58 36 92.5 61t72.5 59t55.5 68.5t17.5 71.5q-2 54 -42 87.5t-110 33.5q-63 0 -125.5 -24t-105.5 -54l-33 61q131 88 268 88q104 0 167 -51.5t63 -142.5q0 -27 -5.5 -52.5t-20 -50t-27 -43.5 t-39.5 -42.5t-43 -37.5t-52 -38t-52 -34.5t-58 -36t-56 -34.5q-99 -62 -143.5 -111t-58.5 -129h448l-12 -71h-539z" />
<glyph unicode="&#x2083;" horiz-adv-x="741" d="M-76 -231l45 59q113 -78 230 -78q105 0 173 57t68 142q0 87 -69 133.5t-168 46.5h-39l12 74h45q97 0 176.5 54t79.5 128q0 51 -39 81t-104 30q-100 0 -217 -72l-29 61q138 82 258 82q98 0 156.5 -50t58.5 -124q0 -69 -51.5 -131.5t-155.5 -97.5q72 -16 121 -75.5 t49 -141.5q0 -110 -85.5 -189.5t-237.5 -79.5q-139 0 -277 91z" />
<glyph unicode="&#x2084;" horiz-adv-x="780" d="M-57 -109l10 64l510 598h106l-106 -592h127l-10 -70h-129l-35 -198h-82l35 198h-426zM43 -39h338l90 506z" />
<glyph unicode="&#x2085;" horiz-adv-x="733" d="M-61 -231l45 57q106 -74 204 -74q96 0 174 64.5t78 171.5q0 79 -45 127.5t-127 48.5q-79 0 -186 -58l-45 25l119 422h434l-12 -72h-367l-74 -282q70 34 148 34q111 0 175 -69t64 -176q0 -129 -90.5 -219.5t-238.5 -90.5q-132 0 -256 91z" />
<glyph unicode="&#x2086;" horiz-adv-x="780" d="M0 -25q0 157 67 293.5t183.5 217.5t253.5 81q31 0 60.5 -4.5t43.5 -8.5l13 -5l-29 -64q-35 11 -84 11q-138 0 -249 -101t-155 -254q101 101 232 101q116 0 179 -71.5t63 -170.5q0 -82 -35 -154.5t-107.5 -120t-167.5 -47.5q-89 0 -151.5 44.5t-89.5 110t-27 142.5z M80 -27q0 -91 48 -157t136 -66q106 0 169 74t63 176q0 70 -43.5 122t-126.5 52q-78 0 -146 -44.5t-98 -94.5q-2 -20 -2 -62z" />
<glyph unicode="&#x2087;" horiz-adv-x="645" d="M29 -307q19 104 69 221.5t102.5 205t116.5 176t93.5 124.5t52.5 61h-424l12 72h522l-10 -61q-15 -16 -40.5 -45t-93.5 -119t-124 -180.5t-111 -216t-75 -238.5h-90z" />
<glyph unicode="&#x2088;" horiz-adv-x="786" d="M-33 -109q0 178 252 271q-121 64 -121 178q0 101 80 164t197 63q104 0 167.5 -51t63.5 -137q0 -146 -205 -227q172 -84 172 -220q0 -112 -100.5 -183t-239.5 -71q-120 0 -193 55.5t-73 157.5zM51 -106q0 -70 49 -108t131 -38q101 0 178.5 52t77.5 132q0 67 -49.5 111 t-128.5 80q-52 -17 -91 -35t-80.5 -45t-64 -65t-22.5 -84zM180 336q0 -93 129 -146q96 31 155.5 73t59.5 108q0 54 -41 91.5t-108 37.5q-80 0 -137.5 -48.5t-57.5 -115.5z" />
<glyph unicode="&#x2089;" horiz-adv-x="778" d="M-16 -303l30 63q35 -10 84 -10q138 0 249 100.5t155 253.5q-35 -38 -94.5 -69t-139.5 -31q-114 0 -176.5 71.5t-62.5 170.5q0 82 34.5 154t107 119.5t167.5 47.5q129 0 197.5 -88t68.5 -209q0 -157 -67 -293.5t-183.5 -217.5t-253.5 -81q-31 0 -60 5t-42 9zM109 246 q0 -70 43.5 -122t126.5 -52q81 0 148.5 46.5t94.5 96.5q4 36 4 57q0 91 -48.5 157.5t-137.5 66.5q-104 0 -167.5 -74t-63.5 -176z" />
<glyph unicode="&#x208a;" horiz-adv-x="761" d="M-10 70l12 65h260l43 242h68l-43 -242h260l-10 -65h-263l-41 -242h-67l41 242h-260z" />
<glyph unicode="&#x208d;" horiz-adv-x="423" d="M-28 -365.5q-3 37.5 8 93.5l139 786q9 50 17.5 76t32 53t65 44.5t112.5 35.5l19 -59q-98 -30 -125.5 -57t-38.5 -95l-140 -784q-16 -76 -1.5 -100t100.5 -54l-25 -57q-86 25 -123 52.5t-40 65z" />
<glyph unicode="&#x208e;" horiz-adv-x="421" d="M-117 -424q98 30 125.5 57t38.5 95l139 784q16 76 1.5 100t-99.5 54l25 57q86 -25 123 -52.5t40 -65t-8 -93.5l-139 -786q-9 -50 -17.5 -76t-32 -53t-65 -44.5t-112.5 -35.5z" />
<glyph unicode="&#x20a1;" horiz-adv-x="1069" d="M154 596q0 126 29 237t78.5 191t114 138.5t136 87t143.5 28.5q7 0 20.5 -1t20.5 -1l62 158h78l-68 -172q30 -10 70 -27l77 199h78l-90 -234q31 -21 76 -57t49 -39l-55 -57q-6 4 -40.5 31.5t-60.5 45.5l-342 -886q27 4 55.5 12t57 20t52 23t50 27t41.5 25t36.5 23.5 t25.5 16.5l41 -72q-7 -4 -45.5 -26.5t-58.5 -34t-61.5 -31.5t-72.5 -31t-72.5 -21t-78.5 -11l-62 -158h-78l64 162q-49 11 -74 24l-71 -186h-78l88 227q-135 113 -135 369zM244 602q0 -195 78 -291l344 889h-4q-78 0 -153 -44t-134 -120.5t-95 -190.5t-36 -243zM381 262 q30 -18 72 -24l356 923q-28 17 -70 27z" />
<glyph unicode="&#x20a4;" horiz-adv-x="1048" d="M43 0l12 72q8 6 21 17.5t50 47.5t70 74.5t72 95.5t64 113h-195l15 82h208q19 70 19 116q0 16 -4 48h-195l15 82h163q-9 31 -32.5 92t-36.5 112.5t-13 106.5q0 174 113 285.5t293 111.5q71 0 142.5 -22t114.5 -45t99 -57q11 -8 17 -11l-58 -66q-194 119 -319 119 q-140 0 -226.5 -93t-86.5 -218q0 -60 13 -111.5t37.5 -113t33.5 -90.5h352l-15 -82h-321q0 -7 1 -21.5t1 -21.5q0 -56 -14 -121h305l-15 -82h-317q-13 -31 -29.5 -62t-32 -55.5t-37 -52.5t-35.5 -45.5t-36 -41t-31.5 -33l-28.5 -28.5l-20 -20h635l-14 -82h-754z" />
<glyph unicode="&#x20a7;" horiz-adv-x="1251" d="M113 0l172 973h-60l13 74h59l70 387h419q69 0 128 -11t112 -37.5t90.5 -66.5t59.5 -101t22 -139q0 -22 -2 -32h47l-12 -74h-41q-17 -100 -67 -175t-124 -119.5t-162.5 -66.5t-191.5 -22h-336l-106 -590h-90zM324 672h331q78 0 148 17.5t129.5 52.5t102 94.5t59.5 136.5 h-719zM389 1047h713q2 10 2 32q0 142 -85 207.5t-228 65.5h-349z" />
<glyph unicode="&#x20a9;" horiz-adv-x="1912" d="M117 487l14 78h248l-23 279h-176l13 78h157l-39 512h95l32 -512h393l218 512h100l31 -512h391l213 512h100l-219 -512h160l-17 -78h-178l-119 -279h250l-14 -78h-268l-209 -487h-109l-84 1298l-547 -1298h-108l-37 487h-268zM444 844l19 -279h219l117 279h-355zM467 487 l25 -374l157 374h-182zM1186 844l16 -279h221l115 279h-352zM1208 487l23 -385l160 385h-183z" />
<glyph unicode="&#x20ac;" horiz-adv-x="1337" d="M98 494l15 77h114q3 150 33 279h-98l12 78h109q75 245 237 386.5t354 141.5q56 0 111 -14.5t95.5 -33t89 -52.5t76 -57.5t71.5 -63.5l-60 -59q-112 102 -198.5 150t-181.5 48q-157 0 -291.5 -120.5t-204.5 -325.5h610l-12 -78h-621q-33 -123 -36 -279h608l-15 -77h-593 q10 -221 93 -328t210 -107q97 0 219.5 57t238.5 144l50 -70q-143 -97 -268 -155t-247 -58q-80 0 -146.5 28.5t-120.5 88t-86.5 161.5t-37.5 239h-129z" />
<glyph unicode="&#x2116;" horiz-adv-x="2095" d="M111 0l254 1434h96l530 -1299l230 1299h90l-254 -1434h-94l-533 1300l-229 -1300h-90zM1333 408l13 71h532l-12 -71h-533zM1368 922q0 215 104.5 354t268.5 139q145 0 223 -82t78 -231q0 -215 -104.5 -354.5t-268.5 -139.5q-145 0 -223 82.5t-78 231.5zM1448 924 q0 -55 9.5 -95.5t33.5 -75.5t69.5 -53t112.5 -18q86 0 153 60.5t101.5 155t34.5 202.5q0 114 -48.5 177.5t-176.5 63.5q-86 0 -153 -60t-101.5 -154.5t-34.5 -202.5z" />
<glyph unicode="&#x2117;" horiz-adv-x="1744" d="M162 641q0 131 32.5 251.5t98 223t158 178.5t219 119t274.5 43q206 0 360.5 -84.5t235 -234.5t80.5 -344q0 -131 -32.5 -251.5t-98.5 -223.5t-158 -179t-219.5 -119t-275.5 -43q-309 0 -491.5 184t-182.5 480zM238 643q0 -262 162.5 -427t443.5 -165q161 0 294.5 59 t221.5 160t136 235.5t48 285.5q0 128 -41.5 236.5t-117.5 187t-191 123t-256 44.5q-129 0 -241.5 -38t-195.5 -106t-143 -160.5t-90 -203t-30 -231.5zM590 285l151 862h285q117 0 185.5 -56.5t68.5 -168.5q0 -148 -95 -224.5t-253 -76.5h-195l-57 -336h-90zM752 698h196 q102 0 172 62t70 162q0 75 -47 112t-129 37h-197z" />
<glyph unicode="&#x2120;" horiz-adv-x="1284" d="M231 1032l41 53q98 -55 170 -55q45 0 81 18.5t36 51.5q0 10 -3.5 18t-12 15.5t-16 12t-24 11t-25.5 9.5t-30.5 10t-31.5 10q-123 40 -123 125q0 59 50.5 95t127.5 36q54 0 106.5 -17t86.5 -39l-39 -49q-93 41 -150 41q-46 0 -75 -16.5t-29 -46.5q0 -10 3 -18t11 -14.5 t15.5 -11.5t21 -10t23.5 -8t28 -8.5t29 -9.5q59 -19 97 -48.5t38 -80.5q0 -66 -57.5 -102.5t-137.5 -36.5q-98 0 -211 65zM688 975l80 459h78l102 -306l217 306h78l-80 -459h-73l59 338l-186 -262h-50l-90 276l-61 -352h-74z" />
<glyph unicode="&#x2122;" horiz-adv-x="1269" d="M276 1370l11 64h383l-11 -64h-155l-70 -395h-74l70 395h-154zM670 975l80 459h77l103 -306l217 306h78l-80 -459h-74l59 338l-186 -262h-49l-90 276l-62 -352h-73z" />
<glyph unicode="&#x2126;" horiz-adv-x="1413" d="M92 0l14 82h232q-180 133 -180 397q0 157 26 300.5t81 267.5t134 214.5t191.5 142.5t247.5 52q225 0 341.5 -125.5t116.5 -369.5q0 -123 -16 -231.5t-41.5 -189t-63 -150.5t-73.5 -116.5t-79.5 -87t-75 -62.5t-66.5 -42h235l-14 -82h-389l14 76q75 32 140 78.5t128.5 122 t108.5 171t72.5 230.5t27.5 295q0 401 -370 401q-96 0 -177.5 -31.5t-140 -84.5t-105 -127t-76 -155t-48.5 -172.5t-27 -175.5t-8 -167q0 -289 244 -385l-15 -76h-389z" />
<glyph unicode="&#x2153;" horiz-adv-x="1507" d="M178 0l881 1434h86l-881 -1434h-86zM193 1325l213 109h71l-151 -861h-82l137 770l-160 -81zM741 76l45 59q113 -78 230 -78q105 0 173 57t68 142q0 87 -69 133.5t-168 46.5h-39l12 74h45q97 0 176.5 54t79.5 128q0 51 -39 81t-104 30q-100 0 -217 -72l-29 62 q137 81 258 81q98 0 156.5 -50t58.5 -124q0 -69 -51.5 -131.5t-155.5 -97.5q72 -16 121 -75.5t49 -141.5q0 -110 -85.5 -189t-237.5 -79q-141 0 -277 90z" />
<glyph unicode="&#x2154;" horiz-adv-x="1775" d="M115 573l10 64q5 28 13 54t17 47t24.5 42.5t27.5 37t34 34t36 29.5t41 29t42 27.5t46 28.5t47 29q118 74 177.5 132t59.5 128q-2 54 -41.5 87.5t-109.5 33.5q-63 0 -126 -24t-106 -54l-33 62q131 88 269 88q104 0 166.5 -52t62.5 -143q0 -27 -5.5 -52.5t-20 -50 t-27 -43.5t-39 -42t-43 -37.5t-51.5 -38t-52 -34t-58 -36t-56 -34.5q-100 -63 -144.5 -112t-58.5 -128h449l-13 -72h-538zM451 0l880 1434h86l-880 -1434h-86zM1006 76l45 59q113 -78 229 -78q105 0 173.5 57t68.5 142q0 87 -69.5 133.5t-168.5 46.5h-39l12 74h46 q97 0 176.5 54t79.5 128q0 51 -39.5 81t-104.5 30q-100 0 -217 -72l-29 62q137 81 258 81q98 0 156.5 -50t58.5 -124q0 -69 -51 -131.5t-155 -97.5q72 -16 121 -75.5t49 -141.5q0 -110 -86 -189t-238 -79q-140 0 -276 90z" />
<glyph unicode="&#x2155;" horiz-adv-x="1515" d="M178 0l881 1434h86l-881 -1434h-86zM193 1325l213 109h71l-151 -861h-82l137 770l-160 -81zM752 76l45 57q106 -74 204 -74q96 0 174 64.5t78 171.5q0 79 -45 127.5t-127 48.5q-81 0 -186 -57l-45 24l119 422h434l-12 -72h-367l-74 -282q72 35 148 35q111 0 175 -69.5 t64 -176.5q0 -129 -90.5 -219t-238.5 -90q-133 0 -256 90z" />
<glyph unicode="&#x2156;" horiz-adv-x="1787" d="M115 573l10 64q5 28 13 54t17 47t24.5 42.5t27.5 37t34 34t36 29.5t41 29t42 27.5t46 28.5t47 29q118 74 177.5 132t59.5 128q-2 54 -41.5 87.5t-109.5 33.5q-63 0 -126 -24t-106 -54l-33 62q131 88 269 88q104 0 166.5 -52t62.5 -143q0 -27 -5.5 -52.5t-20 -50 t-27 -43.5t-39 -42t-43 -37.5t-51.5 -38t-52 -34t-58 -36t-56 -34.5q-100 -63 -144.5 -112t-58.5 -128h449l-13 -72h-538zM451 0l880 1434h86l-880 -1434h-86zM1022 76l45 57q106 -74 205 -74q96 0 174 64.5t78 171.5q0 79 -45 127.5t-127 48.5t-187 -57l-45 24l119 422h434 l-12 -72h-367l-73 -282q72 35 147 35q111 0 175.5 -69.5t64.5 -176.5q0 -129 -91 -219t-239 -90q-133 0 -256 90z" />
<glyph unicode="&#x2157;" horiz-adv-x="1761" d="M109 649l45 60q113 -78 229 -78q105 0 173.5 56.5t68.5 141.5q0 87 -70 134t-168 47h-39l12 73h46q97 0 176.5 54.5t79.5 128.5q0 51 -39.5 80.5t-104.5 29.5q-102 0 -217 -71l-29 61q138 82 258 82q98 0 156.5 -50t58.5 -124q0 -69 -51 -132t-155 -98q72 -16 121 -75.5 t49 -141.5q0 -110 -86 -189t-238 -79q-140 0 -276 90zM426 0l881 1434h86l-881 -1434h-86zM995 76l45 57q106 -74 205 -74q96 0 174 64.5t78 171.5q0 79 -45 127.5t-127 48.5q-81 0 -186 -57l-45 24l118 422h435l-13 -72h-366l-74 -282q72 35 147 35q111 0 175.5 -69.5 t64.5 -176.5q0 -129 -91 -219t-239 -90q-133 0 -256 90z" />
<glyph unicode="&#x2158;" horiz-adv-x="1787" d="M106 772l11 64l510 598h106l-106 -592h127l-11 -70h-129l-34 -199h-82l34 199h-426zM207 842h338l90 506zM453 0l880 1434h86l-880 -1434h-86zM1022 76l45 57q106 -74 205 -74q96 0 174 64.5t78 171.5q0 79 -45 127.5t-127 48.5t-187 -57l-45 24l119 422h434l-12 -72 h-367l-73 -282q72 35 147 35q111 0 175.5 -69.5t64.5 -176.5q0 -129 -91 -219t-239 -90q-133 0 -256 90z" />
<glyph unicode="&#x2159;" horiz-adv-x="1484" d="M178 0l881 1434h86l-881 -1434h-86zM193 1325l213 109h71l-151 -861h-82l137 770l-160 -81zM737 283q0 118 40 227t107 188.5t161 127.5t196 48q31 0 60.5 -4.5t42.5 -9.5l14 -4l-29 -63q-35 10 -84 10q-138 0 -248.5 -100.5t-154.5 -253.5q100 100 231 100 q116 0 179 -71.5t63 -170.5q0 -82 -34.5 -154t-107 -119.5t-167.5 -47.5q-89 0 -151.5 44.5t-90 110t-27.5 142.5zM817 281q0 -91 48 -157.5t136 -66.5q106 0 169 74t63 176q0 70 -43.5 122t-126.5 52q-78 0 -146 -44.5t-98 -94.5q-2 -20 -2 -61z" />
<glyph unicode="&#x215a;" horiz-adv-x="1687" d="M119 649l45 58q106 -74 205 -74q96 0 174 64t78 171q0 79 -45 127.5t-127 48.5t-187 -57l-45 25l119 422h434l-12 -72h-367l-74 -283q72 35 148 35q111 0 175.5 -69.5t64.5 -176.5q0 -129 -91 -219t-239 -90q-133 0 -256 90zM383 0l881 1434h86l-881 -1434h-86zM940 283 q0 118 40 227t107 188.5t161 127.5t196 48q31 0 60.5 -4.5t43.5 -9.5l13 -4l-29 -63q-35 10 -84 10q-138 0 -249 -100.5t-155 -253.5q100 100 232 100q116 0 179 -71.5t63 -170.5q0 -128 -84 -224.5t-226 -96.5q-89 0 -151.5 44.5t-89.5 110t-27 142.5zM1020 281 q0 -91 48 -157.5t136 -66.5q106 0 169 74t63 176q0 70 -43.5 122t-126.5 52q-78 0 -146 -44.5t-98 -94.5q-2 -20 -2 -61z" />
<glyph unicode="&#x215b;" horiz-adv-x="1521" d="M178 0l881 1434h86l-881 -1434h-86zM193 1325l213 109h71l-151 -861h-82l137 770l-160 -81zM748 199q0 178 251 270q-120 63 -120 178q0 101 79.5 164t196.5 63q104 0 167.5 -51t63.5 -137q0 -147 -204 -227q172 -84 172 -219q0 -112 -100.5 -183t-239.5 -71 q-120 0 -193 55.5t-73 157.5zM831 201q0 -70 49.5 -108t131.5 -38q101 0 178.5 52.5t77.5 132.5q0 36 -15.5 66t-44 53.5t-55 38.5t-63.5 32q-41 -14 -72.5 -26.5t-68.5 -33.5t-61 -44t-40.5 -55.5t-16.5 -69.5zM961 643q0 -92 129 -145q45 14 78.5 28.5t67 36.5t51.5 51 t18 64q0 54 -41.5 91.5t-108.5 37.5q-80 0 -137 -48.5t-57 -115.5z" />
<glyph unicode="&#x215c;" horiz-adv-x="1765" d="M109 649l45 60q113 -78 229 -78q105 0 173.5 56.5t68.5 141.5q0 87 -70 134t-168 47h-39l12 73h46q97 0 176.5 54.5t79.5 128.5q0 51 -39.5 80.5t-104.5 29.5q-102 0 -217 -71l-29 61q138 82 258 82q98 0 156.5 -50t58.5 -124q0 -69 -51 -132t-155 -98q72 -16 121 -75.5 t49 -141.5q0 -110 -86 -189t-238 -79q-140 0 -276 90zM426 0l881 1434h86l-881 -1434h-86zM989 199q0 177 252 270q-121 64 -121 178q0 101 80 164t197 63q104 0 167.5 -51t63.5 -137q0 -146 -205 -227q172 -84 172 -219q0 -112 -100.5 -183t-239.5 -71q-120 0 -193 55.5 t-73 157.5zM1073 201q0 -70 49 -108t131 -38q101 0 178.5 52.5t77.5 132.5q0 36 -15.5 66t-44 53.5t-55 38.5t-63.5 32q-52 -17 -91 -35t-80.5 -45t-64 -65t-22.5 -84zM1202 643q0 -92 129 -145q45 14 78.5 28.5t67 36.5t51.5 51t18 64q0 54 -41 91.5t-108 37.5 q-80 0 -137.5 -48.5t-57.5 -115.5z" />
<glyph unicode="&#x215d;" horiz-adv-x="1722" d="M117 649l45 58q106 -74 205 -74q96 0 173.5 64t77.5 171q0 79 -45 127.5t-127 48.5q-81 0 -186 -57l-45 25l119 422h434l-12 -72h-367l-74 -283q72 35 148 35q111 0 175 -69.5t64 -176.5q0 -129 -90.5 -219t-238.5 -90q-133 0 -256 90zM381 0l881 1434h86l-881 -1434h-86 zM946 199q0 177 252 270q-121 64 -121 178q0 101 80 164t197 63q104 0 167.5 -51t63.5 -137q0 -146 -205 -227q172 -84 172 -219q0 -112 -100.5 -183t-239.5 -71q-120 0 -193 55.5t-73 157.5zM1030 201q0 -70 49 -108t131 -38q101 0 178.5 52.5t77.5 132.5q0 36 -15.5 66 t-44 53.5t-55 38.5t-63.5 32q-52 -17 -91 -35t-80.5 -45t-64 -65t-22.5 -84zM1159 643q0 -92 129 -145q45 14 78.5 28.5t67 36.5t51.5 51t18 64q0 54 -41 91.5t-108 37.5q-80 0 -137.5 -48.5t-57.5 -115.5z" />
<glyph unicode="&#x215e;" horiz-adv-x="1538" d="M195 573q19 104 69 221.5t102.5 205t116.5 176t94 125t52 61.5h-424l12 72h522l-10 -62q-15 -16 -40.5 -45t-93.5 -119t-124 -180.5t-111 -216t-75 -238.5h-90zM201 0l880 1434h86l-880 -1434h-86zM764 199q0 177 252 270q-121 64 -121 178q0 101 79.5 164t196.5 63 q104 0 168 -51t64 -137q0 -146 -205 -227q172 -84 172 -219q0 -112 -100.5 -183t-239.5 -71q-120 0 -193 55.5t-73 157.5zM848 201q0 -70 49 -108t131 -38q101 0 178.5 52.5t77.5 132.5q0 36 -15.5 66t-44 53.5t-55 38.5t-63.5 32q-52 -17 -91 -35t-80.5 -45t-64 -65 t-22.5 -84zM977 643q0 -92 129 -145q45 14 78.5 28.5t67 36.5t51.5 51t18 64q0 54 -41.5 91.5t-108.5 37.5q-80 0 -137 -48.5t-57 -115.5z" />
<glyph unicode="&#x2202;" horiz-adv-x="1163" d="M92 391q0 161 66.5 295t184 211.5t261.5 77.5q72 0 132.5 -20.5t96 -49.5t61 -58.5t34.5 -50.5l10 -20q-1 82 -15 160.5t-46.5 155.5t-79 135t-118.5 93.5t-161 35.5q-34 0 -68.5 -5t-52.5 -9l-18 -5l-10 78q69 19 153 19q232 0 365 -181.5t133 -517.5q0 -352 -149 -555 t-392 -203q-178 0 -282.5 107t-104.5 307zM180 387q0 -151 71.5 -241.5t223.5 -90.5q90 0 164.5 33.5t123.5 87t83.5 122.5t49.5 138.5t15 136.5q0 151 -78 237.5t-223 86.5q-99 0 -182 -43t-136.5 -114.5t-82.5 -163t-29 -189.5z" />
<glyph unicode="&#x2206;" horiz-adv-x="1249" d="M-43 0l766 1434h106l261 -1434h-1133zM104 82h879l-223 1231z" />
<glyph unicode="&#x220f;" horiz-adv-x="1292" d="M172 0l238 1352h-211l14 82h1143l-15 -82h-211l-237 -1352h-90l237 1352h-540l-238 -1352h-90z" />
<glyph unicode="&#x2211;" horiz-adv-x="1030" d="M14 0l19 106l643 619l-428 602l18 107h778l-14 -82h-688l451 -635l-656 -635h670l-14 -82h-779z" />
<glyph unicode="&#x2212;" d="M121 643l14 78h930l-14 -78h-930z" />
<glyph unicode="&#x221a;" horiz-adv-x="1042" d="M86 696h94l152 -516l704 1254h103l-815 -1434h-23z" />
<glyph unicode="&#x221e;" horiz-adv-x="1779" d="M129 483q0 147 105 250t266 103q40 0 77 -8.5t72 -29t61.5 -39t61 -53.5t54 -56.5t55.5 -63.5q166 138 263 194t206 56q130 0 200 -74.5t70 -188.5q0 -147 -105.5 -249.5t-265.5 -102.5q-49 0 -95 15t-79 34t-75 58t-65.5 65t-66.5 76q-171 -139 -265.5 -193.5 t-203.5 -54.5q-130 0 -200 74t-70 188zM219 479q0 -69 46 -122.5t132 -53.5q89 0 180 54t238 173q-111 130 -175 177t-140 47q-70 0 -126 -25.5t-88.5 -67t-49.5 -88.5t-17 -94zM934 524q111 -129 173.5 -175t141.5 -46q70 0 126 25.5t88.5 67t49.5 88.5t17 94 q0 69 -46 122.5t-132 53.5q-92 0 -180.5 -53.5t-237.5 -176.5z" />
<glyph unicode="&#x222b;" horiz-adv-x="751" d="M-106 -293l14 82h45q69 0 118 20.5t76.5 41.5t50.5 86t30.5 98t24.5 134q1 2 1 3l201 1143q20 117 45 188t69.5 122.5t111.5 72t169 20.5h43l-14 -82h-45q-84 0 -136.5 -21.5t-84 -82.5t-44 -109t-32.5 -160q-1 -7 -2 -10l-201 -1142q-20 -116 -45.5 -187.5t-70 -123 t-112 -72.5t-169.5 -21h-43z" />
<glyph unicode="&#x2248;" d="M84 434q122 187 285 187q59 0 117.5 -22.5t97.5 -49.5t91 -49.5t99 -22.5q49 0 96.5 28t100.5 105l69 -32q-122 -187 -284 -187q-59 0 -117.5 22.5t-98 49.5t-91.5 49.5t-99 22.5q-48 0 -94 -28t-100 -106zM147 791q121 186 285 186q59 0 117.5 -22.5t98 -49t91.5 -49 t99 -22.5q49 0 96 28t100 105l70 -33q-121 -186 -285 -186q-59 0 -117.5 22.5t-97.5 49t-91 49t-99 22.5q-48 0 -94.5 -27.5t-100.5 -105.5z" />
<glyph unicode="&#x2260;" horiz-adv-x="1169" d="M88 467l14 78h365l160 278h-475l14 78h506l209 365l65 -33l-190 -332h340l-15 -78h-370l-160 -278h481l-14 -78h-512l-207 -361l-63 33l186 328h-334z" />
<glyph unicode="&#x2264;" d="M8 0l15 78h929l-14 -78h-930zM113 586l14 78l1006 436l-19 -105l-897 -377l762 -376l-14 -92z" />
<glyph unicode="&#x2265;" d="M14 0l15 78h929l-14 -78h-930zM41 150l18 104l895 375l-759 379l14 92l852 -436l-14 -78z" />
<glyph unicode="&#x2318;" horiz-adv-x="1593" d="M109 338q0 56 18 100.5t48.5 73.5t73 48.5t90 27.5t101.5 8h146l43 242h-127q-107 0 -182.5 76t-75.5 182q0 107 75.5 183.5t182.5 76.5q48 0 95.5 -18t88.5 -54t60 -100.5t4 -145.5l-19 -114h240l24 137q8 44 16 74.5t23 67.5t35 62t52.5 48t74.5 35q27 8 64 8 q107 0 183.5 -76.5t76.5 -183.5q0 -69 -27 -120t-74.5 -80.5t-105 -43.5t-125.5 -14h-146l-43 -242h127q107 0 182.5 -75.5t75.5 -182.5t-75.5 -182.5t-182.5 -75.5q-122 0 -196.5 92t-50.5 225l18 113h-240l-24 -137q-28 -151 -85.5 -222t-178.5 -71q-107 0 -183.5 75.5 t-76.5 182.5zM195 338q0 -71 51 -121.5t123 -50.5q141 0 168 153l32 191h-200q-72 0 -123 -50t-51 -122zM330 1096q0 -71 50 -121.5t122 -50.5h141q20 108 23 129q15 92 -32 154.5t-132 62.5q-72 0 -122 -51t-50 -123zM672 596h241l43 242h-241zM963 381q-19 -89 30 -152 t133 -63q70 0 121 51t51 121q0 72 -50.5 122t-121.5 50h-141zM1059 924h201q72 0 123 50.5t51 121.5q0 72 -51 123t-123 51q-68 0 -113 -47t-55 -109z" />
<glyph unicode="&#x25ca;" horiz-adv-x="1056" d="M125 717l487 717h121l236 -717l-490 -717h-121zM223 705l203 -625l444 651l-204 619z" />
<glyph unicode="&#xe000;" horiz-adv-x="1075" d="M0 0v1075h1075v-1075h-1075z" />
<glyph unicode="&#xf6c3;" horiz-adv-x="124" d="M-63 -483l104 180h-57l28 166h117l-10 -166l-148 -221z" />
<glyph unicode="&#xf6df;" horiz-adv-x="712" d="M10 55q0 93 27 170.5t72 127t100 77t113 29.5l16 94h68l-19 -102q15 -3 30.5 -8.5t27.5 -10t27 -13t23.5 -13t23 -15t19 -13.5t18.5 -13.5t15 -10.5l-43 -53q-3 2 -24.5 17.5t-37 26t-41.5 22.5t-50 18l-92 -524q17 4 36 10.5t33.5 13t33.5 16t28 15t25 15t18 10.5 l32 -64q-3 -2 -31.5 -17t-43 -21.5t-42 -18.5t-52.5 -19t-50 -10l-16 -98h-64l17 94q-89 8 -143 79t-54 189zM92 61q0 -91 33 -144t94 -60l90 530q-89 -14 -153 -106t-64 -220z" />
<glyph unicode="&#xf6e0;" horiz-adv-x="710" d="M203 1151q0 93 27 170.5t71.5 127t99.5 76.5t113 29l16 95h68l-18 -103q75 -16 184 -96l-43 -53q-3 2 -25 18t-37.5 25.5t-41.5 22t-50 18.5l-92 -525q17 4 36 10.5t33.5 13t33.5 16t28 15t25 15t18 10.5l33 -63q-3 -2 -31.5 -17t-43 -21.5t-42 -18.5t-52.5 -19t-50 -10 l-17 -99h-63l16 95q-89 8 -142.5 79t-53.5 189zM285 1157q0 -91 33 -144.5t94 -60.5l90 531q-89 -14 -153 -106t-64 -220z" />
<glyph unicode="&#xf6e1;" horiz-adv-x="348" d="M-66 -430l74 123h-45l23 131h96l-10 -135l-113 -152z" />
<glyph unicode="&#xf6e2;" horiz-adv-x="350" d="M129 666l74 122h-45l22 132h96l-10 -136l-112 -151z" />
<glyph unicode="&#xf6e3;" horiz-adv-x="765" d="M-61 -215l47 61q110 -72 215 -90l61 350q-41 17 -66 29t-55.5 32t-47.5 41t-28.5 52.5t-11.5 69.5q0 110 80.5 173.5t204.5 63.5h4l20 111h66l-20 -117q109 -18 219 -80l-47 -57q-79 45 -185 65l-57 -321q55 -23 85.5 -39.5t67 -45t53.5 -67t17 -88.5 q0 -117 -88.5 -183.5t-214.5 -66.5h-8l-19 -108h-63l20 115q-129 18 -249 100zM139 334q0 -53 31.5 -81t105.5 -60l54 303q-81 -2 -136 -44.5t-55 -117.5zM262 -250q90 2 152.5 48.5t62.5 121.5q0 58 -39.5 94t-115.5 68z" />
<glyph unicode="&#xf6e4;" horiz-adv-x="768" d="M129 881l47 61q114 -75 215 -92l62 352q-41 17 -66 29t-55.5 32t-47 41t-28.5 52t-12 69q0 110 80.5 174t203.5 64h4l21 111h65l-20 -117q109 -18 219 -80l-47 -57q-79 45 -184 65l-58 -321q55 -23 85.5 -39.5t67.5 -45t54 -67t17 -88.5q0 -117 -88.5 -183.5 t-214.5 -66.5h-9l-18 -108h-64l21 112q-129 20 -250 103zM330 1430q0 -53 31.5 -81.5t105.5 -60.5l53 303q-81 -2 -135.5 -44t-54.5 -117zM453 846q90 0 152.5 47t62.5 123q0 58 -39.5 94t-116.5 68z" />
<glyph unicode="&#xf6e7;" horiz-adv-x="344" d="M-37 -307l23 131h96l-23 -131h-96z" />
<glyph unicode="&#xf6e8;" horiz-adv-x="344" d="M158 788l22 132h96l-22 -132h-96z" />
<glyph unicode="&#xf6e9;" horiz-adv-x="755" d="M168 1001q0 192 83 319.5t212 127.5q104 0 213 -109l16 95h80l-113 -646h-79l18 105q-123 -119 -248 -119q-77 0 -129.5 55t-52.5 172zM250 1008q0 -77 29.5 -121.5t85.5 -44.5q66 0 123 34t122 95l54 301q-96 108 -191 108q-99 0 -161 -112.5t-62 -259.5z" />
<glyph unicode="&#xf6ea;" horiz-adv-x="755" d="M158 788l157 895h80l-59 -333q121 98 225 98q84 0 142.5 -55.5t58.5 -173.5q0 -191 -79.5 -318t-205.5 -127q-48 0 -94.5 19t-72 39t-56.5 49l-16 -93h-80zM266 950q96 -108 199 -108q64 0 114 55t75.5 138.5t25.5 176.5q0 80 -33.5 124t-99.5 44q-40 0 -83 -18 t-71 -37.5t-71 -54.5z" />
<glyph unicode="&#xf6eb;" horiz-adv-x="755" d="M168 1001q0 192 83 319.5t212 127.5q102 0 211 -109l61 344h80l-158 -895h-79l18 103q-126 -117 -246 -117q-77 0 -129.5 55t-52.5 172zM250 1008q0 -77 29.5 -121.5t85.5 -44.5q65 0 123 34.5t122 94.5l54 301q-96 108 -191 108q-99 0 -161 -112.5t-62 -259.5z" />
<glyph unicode="&#xf6ec;" horiz-adv-x="702" d="M170 1055q0 170 97 281.5t251 111.5q99 0 153 -47t54 -119q0 -213 -399 -213h-74v-18q0 -101 41 -156t115 -55q22 0 46.5 5t44 11.5t44.5 18.5t38.5 19t36 20t27.5 16l31 -60q-164 -96 -277 -96q-105 0 -167 72.5t-62 208.5zM258 1126h76q158 0 235.5 42t77.5 114 q0 47 -36 73.5t-97 26.5q-95 0 -166 -71.5t-90 -184.5z" />
<glyph unicode="&#xf6ed;" horiz-adv-x="331" d="M158 788l114 646h80l-114 -646h-80zM291 1573l18 108h90l-18 -108h-90z" />
<glyph unicode="&#xf6ee;" horiz-adv-x="333" d="M158 788l157 895h80l-157 -895h-80z" />
<glyph unicode="&#xf6ef;" horiz-adv-x="1132" d="M158 788l114 646h80l-16 -97q126 111 237 111q69 0 106 -35t44 -90q50 46 119 85.5t137 39.5q91 0 124.5 -56t18.5 -145l-80 -459h-79l79 449q26 143 -81 143q-59 0 -125 -39t-117 -88l-80 -465h-82l82 449q26 143 -84 143q-100 0 -233 -123l-84 -469h-80z" />
<glyph unicode="&#xf6f0;" horiz-adv-x="757" d="M170 1036q0 178 92 295t236 117q128 0 196 -68t68 -194q0 -178 -92 -295t-236 -117q-128 0 -196 68t-68 194zM250 1040q0 -94 40 -146t146 -52q109 0 177.5 102t68.5 238q0 94 -40 146t-144 52q-74 0 -132 -49.5t-87 -126.5t-29 -164z" />
<glyph unicode="&#xf6f1;" horiz-adv-x="495" d="M158 788l114 646h80l-24 -140q7 14 23 34.5t48 50.5t82 48.5t107 14.5l-13 -76q-41 0 -78 -11.5t-64 -29.5t-49.5 -40.5t-37 -44.5t-24.5 -40t-14 -30l-5 -11l-65 -371h-80z" />
<glyph unicode="&#xf6f2;" horiz-adv-x="645" d="M125 858l43 53q116 -71 217 -71q68 0 117 32t49 89q0 14 -4 26.5t-8.5 21.5t-16.5 18t-19 14t-26 13t-26.5 11t-31.5 11t-32 11q-41 14 -65 25t-54 31.5t-44.5 50.5t-14.5 70q0 85 65.5 134.5t163.5 49.5q120 0 238 -72l-39 -51q-112 59 -197 59q-66 0 -109.5 -30.5 t-43.5 -83.5q0 -12 2.5 -23t8.5 -20t11.5 -16t16.5 -14t18 -11t22 -10t22 -8.5t24.5 -8.5t23.5 -8q101 -35 147 -73.5t46 -110.5q0 -91 -70 -142t-170 -51q-132 0 -264 84z" />
<glyph unicode="&#xf6f3;" horiz-adv-x="489" d="M188 1370l13 64h86l28 161l84 25l-32 -186h170l-11 -64h-172l-80 -455q-7 -39 5.5 -55t42.5 -16q27 0 127 37l22 -64q-29 -13 -80.5 -28t-83.5 -15q-59 0 -91.5 36t-18.5 118l77 442h-86z" />
<glyph unicode="&#xf8ff;" horiz-adv-x="1857" d="M146.5 560.5q-2.5 11.5 15.5 21.5l57 41q2 1 3.5 2.5l3 3l2.5 2.5t2 3l1 1q19 16 37 -12l33 -64q6 -12 13.5 -15.5t14 2t9.5 17.5l18 70q4 19 18.5 21t26.5 -13l48 -53q14 -15 23 -11.5t11 23.5l4 70q3 20 15.5 25t27.5 -7l58 -43q17 -12 25.5 -6.5t4.5 25.5l-8 69 q-3 20 8.5 28t28.5 -1l64 -29q19 -9 26.5 -1.5t1.5 26.5l-22 67q-8 19 0.5 29t27.5 4l15 -2q40 -77 70 -202.5t30 -217.5q-15 -18 -34.5 -27.5t-59.5 -9.5h-8q0 46 -33 72q18 -21 18 -55v-15q-32 3 -32 39q0 43 -28 72t-77 29q-41 0 -68.5 -32t-27.5 -79q0 -60 49.5 -96.5 t138.5 -36.5q85 0 172 42t156.5 112t125 154.5t86 175.5t30.5 169q0 59 -36.5 98t-94.5 39q-48 0 -85.5 -33.5t-37.5 -84.5q0 -106 119 -119q-29 -119 -60 -174q-12 96 -43.5 178t-75.5 129q91 -120 107 -330l-29 -41q0 156 -51 287t-131 172q-5 9 2 18.5t22 12.5l70 12 q19 3 21 13.5t-15 21.5l-59 39q-15 13 -13.5 26.5t19.5 20.5l64 29q14 4 19 10t0 13t-19 13l-64 27q-23 10 -20 29q11 6 14 16l35 62q9 19 20.5 18t16.5 -20l20 -68q6 -21 18.5 -24t26.5 14l47 53q12 15 23 12.5t12 -22.5l4 -72q1 -21 14.5 -26t28.5 8l57 43q15 12 24 5.5 t7 -26.5l-10 -70q-1 -20 10.5 -27.5t28.5 1.5l63 33q19 8 26.5 0t0.5 -29l-23 -64q-6 -20 3 -30t28 -4l70 14q20 6 26.5 -2t-4.5 -27l-37 -59q-12 -17 -5.5 -29.5t26.5 -11.5l72 4q21 0 25 -11t-9 -24l-49 -53q-14 -13 -10.5 -26.5t24.5 -16.5l70 -12q43 -10 6 -39l-57 -39 q-16 -10 -15 -24t21 -21l63 -27q12 -5 16.5 -12t0 -13.5t-16.5 -11.5l-63 -26q-20 -7 -21 -22t15 -25l57 -41q11 -7 14.5 -14.5t-2 -13.5t-18.5 -9l-70 -13q-21 -3 -24.5 -16.5t10.5 -28.5l49 -49q13 -14 9 -24.5t-25 -10.5l-72 5q-20 0 -26.5 -12t5.5 -29l37 -62 q10 -17 4 -25.5t-26 -5.5l-70 19q-19 4 -28 -6t-3 -29l23 -68q8 -19 0 -26t-27 2l-63 31q-17 9 -28.5 1t-10.5 -30l10 -68q1 -21 -7.5 -25.5t-23.5 7.5l-57 43q-15 12 -28.5 5.5t-14.5 -26.5l-4 -69q-1 -20 -12 -23t-23 11l-47 55q-13 14 -26 12t-19 -22l-20 -68 q-3 -13 -9.5 -18t-14 -1t-13.5 15l-35 61q-9 19 -22 19t-25 -19l-31 -61q-6 -11 -13.5 -15t-14 1t-9.5 18l-20 68q-6 20 -19 22t-26 -12l-47 -55q-12 -14 -22 -11t-13 23l-4 69q-2 20 -15 26.5t-30 -5.5l-54 -43q-17 -13 -26.5 -8t-5.5 26l10 68q1 22 -10.5 30t-30.5 -1 l-62 -31q-19 -9 -26.5 -2t0.5 26l22 68q7 19 -2 29.5t-28 5.5l-70 -19q-20 -3 -26.5 5.5t3.5 25.5l39 62q11 17 4.5 29t-26.5 12l-72 -5q-21 0 -25 10.5t9 24.5l51 49q13 15 9 28.5t-25 16.5l-68 13q-21 4 -23.5 15.5zM623 281q43 -27 122 -27q106 0 212.5 65t183.5 162 t125.5 212t48.5 214q0 63 -41 101q24 -38 24 -84q0 -100 -47.5 -215t-126.5 -215q-85 -105 -188.5 -168.5t-212.5 -63.5q-57 0 -100 19z" />
<glyph unicode="&#xfb06;" horiz-adv-x="1636" d="M23 111l55 63q188 -119 338 -119q72 0 136 24.5t108.5 79t44.5 128.5q0 47 -16 81.5t-60 61.5t-70.5 38.5t-97.5 37.5q-14 5 -21 8q-35 13 -57 21.5t-54.5 23.5t-52.5 29.5t-44 36.5t-37 46t-22 57t-9 71q0 72 29.5 130t79.5 94.5t113 55.5t132 19q100 0 207 -39 q-10 29 -10 84q0 153 103.5 251.5t258.5 98.5q157 0 230.5 -97t42.5 -263l-11 -58h275l-15 -74h-274l-145 -825q-11 -66 9.5 -93.5t67.5 -27.5q60 0 213 64l27 -74q-41 -19 -119.5 -43.5t-122.5 -24.5q-29 0 -53.5 5.5t-49.5 19.5t-38.5 39t-20.5 63.5t5 92.5l143 804h-139 l14 74h137l15 76q13 56 7 106.5t-26.5 88t-65 59.5t-108.5 22q-132 0 -212.5 -87t-80.5 -216q0 -50 17 -96q17 -8 75 -43l-49 -63q-161 98 -307 98q-111 0 -189.5 -58t-78.5 -157q0 -20 4 -38t9.5 -32.5t17.5 -28.5t20.5 -23.5t26.5 -20.5t28 -16.5t32.5 -15.5t31.5 -13.5 t34.5 -12.5t32.5 -12q65 -24 107 -43t83.5 -45t64.5 -55t37 -68t14 -88q0 -103 -55.5 -176.5t-138 -106.5t-179.5 -33q-192 0 -397 134z" />
<glyph horiz-adv-x="778" d="M139 578l31 63q35 -10 84 -10q138 0 248.5 100.5t154.5 253.5q-94 -100 -233 -100q-115 0 -177.5 71t-62.5 170q0 82 35 154.5t107.5 120t167.5 47.5q129 0 197.5 -88t68.5 -209q0 -157 -67 -293.5t-183.5 -217.5t-253.5 -81q-31 0 -60.5 4.5t-43.5 9.5zM264 1126 q0 -70 43.5 -122t126.5 -52q81 0 149 47t95 97q4 36 4 57q0 91 -48 157t-138 66q-104 0 -168 -74t-64 -176z" />
<glyph horiz-adv-x="1026" d="M-39 0l502 584l-277 592h95l231 -529l418 529h108l-489 -594l301 -582h-98l-250 520l-428 -520h-113z" />
<glyph horiz-adv-x="1286" d="M-168 -342q36 11 63.5 20.5t52 21.5t41 20.5t32.5 24t25.5 26t19 32t15 36.5t12.5 45.5t11 52.5t11 63l174 1001h-135l14 74h135l37 211q20 115 67 161t140 46q54 0 136 -21t132 -40l-43 -66q-38 13 -113 31t-112 18q-57 0 -83.5 -35t-37.5 -94l-37 -211h279l-15 -74 h-276l-174 -1001q-15 -87 -22.5 -124t-25 -88.5t-36.5 -71.5t-56.5 -48.5t-85.5 -46t-124 -39.5zM475 -342q36 11 63.5 20.5t52 21.5t41 20.5t32.5 24t25.5 26t19 32t15 36.5t12.5 45.5t11 52.5t11 63l174 1001h-135l14 74h135l37 211q20 113 67 160t132 47q80 0 223 -49 l-41 -66q-120 37 -174 37q-57 0 -83.5 -35t-37.5 -94l-37 -211h279l-15 -74h-276l-174 -1001q-15 -87 -22.5 -124t-25 -88.5t-36.5 -71.5t-56.5 -48.5t-85.5 -46t-124 -39.5z" />
<glyph horiz-adv-x="1218" d="M-170 -342q90 28 136.5 49.5t77 66t41 85t28.5 141.5l176 1001h-137l14 74h135l35 191q11 62 35 105t58 64t68 29.5t76 8.5q112 0 381 -62q47 82 168 82q54 0 136.5 -21.5t132.5 -39.5l-43 -66q-41 14 -115 31.5t-111 17.5q-57 0 -83.5 -35t-37.5 -94l-36 -211h278 l-14 -74h-277l-174 -1001q-15 -87 -22.5 -124t-25 -88.5t-36.5 -71.5t-56.5 -48.5t-85.5 -46t-124 -39.5l-20 76q36 11 63.5 20.5t51.5 21.5l41 20.5t32.5 24t25 26t19.5 32.5t15 36.5t12 45t11 52t11 63.5l174 1001h-489l-174 -1001q-15 -86 -23 -123.5t-25.5 -88.5 t-36.5 -71.5t-56.5 -49t-85.5 -46t-124 -39.5zM387 1075h492l45 262q-261 58 -346 58q-133 0 -156 -129z" />
<glyph horiz-adv-x="2326" d="M-170 -342q90 28 136.5 49.5t77 66t41 85t28.5 141.5l176 1001h-135l14 74h133l35 191q11 62 35 105t58 64t68 29.5t76 8.5q132 0 390 -64q61 84 192 84q118 0 369 -59l10 59h86l-100 -569q192 174 366 174q61 0 115 -19.5t100 -60.5t72.5 -113.5t26.5 -169.5 q0 -213 -56.5 -385.5t-161 -272.5t-237.5 -100q-59 0 -113.5 17t-102 49t-77.5 57.5t-68 63.5l-28 -164h-86l239 1356q-251 59 -350 59q-43 0 -74 -13t-47 -35t-23.5 -41t-10.5 -40l-37 -211h276l-14 -74h-275l-174 -1001q-15 -87 -22.5 -124t-25 -88.5t-36.5 -71.5 t-56.5 -48.5t-85.5 -46t-124 -39.5l-20 76q36 11 63.5 20.5t51.5 21.5l41 20.5t32.5 24t25 26t19.5 32.5t15 36.5t12 45t11 52t11 63.5l174 1001h-491l-174 -1001q-15 -86 -23 -123.5t-25.5 -88.5t-36.5 -71.5t-56.5 -49t-85.5 -46t-124 -39.5zM387 1075h494l47 262 q-5 1 -68 14t-102 20.5t-93.5 15.5t-86.5 8q-133 0 -156 -129zM1401 250q167 -195 338 -195q84 0 155 58.5t117 154.5t72 215.5t26 243.5q0 140 -57 216.5t-170 76.5q-67 0 -139.5 -31.5t-119.5 -66.5t-122 -97z" />
<glyph horiz-adv-x="2328" d="M-170 -342q90 28 136.5 49.5t77 66t41 85t28.5 141.5l176 1001h-135l14 74h133l35 191q11 62 35 105t58 64t68 29.5t76 8.5q132 0 390 -64q61 84 192 84q118 0 369 -59l10 59h86l-102 -578q48 37 109.5 74t157 73t173.5 36q141 0 196 -90.5t29 -235.5l-135 -772h-86 l135 764q45 256 -149 256q-104 0 -233 -66.5t-216 -136.5l-143 -817h-86l239 1356q-251 59 -350 59q-43 0 -74 -13t-47 -35t-23.5 -41t-10.5 -40l-37 -211h276l-14 -74h-275l-174 -1001q-15 -87 -22.5 -124t-25 -88.5t-36.5 -71.5t-56.5 -48.5t-85.5 -46t-124 -39.5l-20 76 q36 11 63.5 20.5t51.5 21.5l41 20.5t32.5 24t25 26t19.5 32.5t15 36.5t12 45t11 52t11 63.5l174 1001h-491l-174 -1001q-15 -86 -23 -123.5t-25.5 -88.5t-36.5 -71.5t-56.5 -49t-85.5 -46t-124 -39.5zM387 1075h494l47 262q-5 1 -68 14t-102 20.5t-93.5 15.5t-86.5 8 q-133 0 -156 -129z" />
<glyph horiz-adv-x="1601" d="M-170 -342q90 28 136.5 49.5t77 66t41 85t28.5 141.5l176 1001h-135l14 74h133l35 191q11 62 35 105t58 64t68 29.5t76 8.5q132 0 390 -64q61 84 192 84q146 0 369 -61l-43 -70q-57 15 -161 34t-161 19q-43 0 -74 -13t-47 -35t-23.5 -41t-10.5 -40l-37 -211h534 l-190 -1075h-86l176 1001h-447l-174 -1001q-15 -87 -22.5 -124t-25 -88.5t-36.5 -71.5t-56.5 -48.5t-85.5 -46t-124 -39.5l-20 76q36 11 63.5 20.5t51.5 21.5l41 20.5t32.5 24t25 26t19.5 32.5t15 36.5t12 45t11 52t11 63.5l174 1001h-491l-174 -1001q-15 -86 -23 -123.5 t-25.5 -88.5t-36.5 -71.5t-56.5 -49t-85.5 -46t-124 -39.5zM387 1075h494l47 262q-5 1 -68 14t-102 20.5t-93.5 15.5t-86.5 8q-133 0 -156 -129z" />
<glyph horiz-adv-x="1603" d="M-170 -342q90 28 136.5 49.5t77 66t41 85t28.5 141.5l176 1001h-135l14 74h133l35 191q11 62 35 105t58 64t68 29.5t76 8.5q132 0 390 -64q61 84 192 84q146 0 369 -61l-43 -70q-57 15 -161 34t-161 19q-43 0 -74 -13t-47 -35t-23.5 -41t-10.5 -40l-37 -211h536 l-207 -1161q-22 -122 -41 -162q-31 -65 -114 -106q-61 -30 -178 -64l-21 76q59 18 99 33t68.5 34t44.5 33.5t27.5 42.5t16 48.5t12.5 64.5l191 1087h-447l-174 -1001q-15 -87 -22.5 -124t-25 -88.5t-36.5 -71.5t-56.5 -48.5t-85.5 -46t-124 -39.5l-20 76q36 11 63.5 20.5 t51.5 21.5l41 20.5t32.5 24t25 26t19.5 32.5t15 36.5t12 45t11 52t11 63.5l174 1001h-491l-174 -1001q-15 -86 -23 -123.5t-25.5 -88.5t-36.5 -71.5t-56.5 -49t-85.5 -46t-124 -39.5zM387 1075h494l47 262q-5 1 -68 14t-102 20.5t-93.5 15.5t-86.5 8q-133 0 -156 -129z" />
<glyph horiz-adv-x="2144" d="M-170 -342q90 28 136.5 49.5t77 66t41 85t28.5 141.5l176 1001h-135l14 74h133l35 191q11 62 35 105t58 64t68 29.5t76 8.5q132 0 390 -64q61 84 192 84q118 0 369 -59l10 59h86l-184 -1047l577 629h107l-416 -440l287 -635h-88l-258 571l-232 -243l-57 -328h-86 l239 1356q-251 59 -350 59q-43 0 -74 -13t-47 -35t-23.5 -41t-10.5 -40l-37 -211h276l-14 -74h-275l-174 -1001q-15 -87 -22.5 -124t-25 -88.5t-36.5 -71.5t-56.5 -48.5t-85.5 -46t-124 -39.5l-20 76q36 11 63.5 20.5t51.5 21.5l41 20.5t32.5 24t25 26t19.5 32.5t15 36.5 t12 45t11 52t11 63.5l174 1001h-491l-174 -1001q-15 -86 -23 -123.5t-25.5 -88.5t-36.5 -71.5t-56.5 -49t-85.5 -46t-124 -39.5zM387 1075h494l47 262q-5 1 -68 14t-102 20.5t-93.5 15.5t-86.5 8q-133 0 -156 -129z" />
<glyph horiz-adv-x="643" d="M-168 -342q36 11 63.5 20.5t52 21.5t41 20.5t32.5 24t25.5 26t19 32t15 36.5t12.5 45.5t11 52.5t11 63l174 1001h-135l14 74h135l37 211q20 113 67 160t132 47q79 0 223 -49l-41 -66q-120 37 -174 37q-57 0 -83.5 -35t-37.5 -94l-37 -211h279l-15 -74h-276l-174 -1001 q-15 -87 -22.5 -124t-25 -88.5t-36.5 -71.5t-56.5 -48.5t-85.5 -46t-124 -39.5z" />
<glyph horiz-adv-x="1658" d="M-170 -342q90 28 136.5 49.5t77 66t41 85t28.5 141.5l176 1001h-135l14 74h133l35 191q11 62 35 105t58 64t68 29.5t76 8.5q132 0 390 -64q61 84 192 84q118 0 369 -59l10 59h86l-264 -1493h-86l239 1356q-251 59 -350 59q-43 0 -74 -13t-47 -35t-23.5 -41t-10.5 -40 l-37 -211h276l-14 -74h-275l-174 -1001q-15 -87 -22.5 -124t-25 -88.5t-36.5 -71.5t-56.5 -48.5t-85.5 -46t-124 -39.5l-20 76q36 11 63.5 20.5t51.5 21.5l41 20.5t32.5 24t25 26t19.5 32.5t15 36.5t12 45t11 52t11 63.5l174 1001h-491l-174 -1001q-15 -86 -23 -123.5 t-25.5 -88.5t-36.5 -71.5t-56.5 -49t-85.5 -46t-124 -39.5zM387 1075h494l47 262q-5 1 -68 14t-102 20.5t-93.5 15.5t-86.5 8q-133 0 -156 -129z" />
<glyph horiz-adv-x="1802" d="M-170 -342q90 28 136.5 49.5t77 66t41 85t28.5 141.5l176 1001h-137l14 74h135l35 191q11 62 35 105t58 64t68 29.5t76 8.5q112 0 381 -62q47 82 168 82q54 0 136.5 -21.5t132.5 -39.5l-43 -66q-41 14 -115 31.5t-111 17.5q-57 0 -83.5 -35t-37.5 -94l-36 -211h454 l49 271l93 40l-56 -311h275l-15 -74h-274l-145 -825q-11 -66 9.5 -93.5t67.5 -27.5q62 0 215 64l25 -74q-41 -19 -119.5 -43.5t-122.5 -24.5q-29 0 -53.5 5.5t-49.5 19.5t-38.5 39t-20.5 63.5t5 92.5l143 804h-455l-174 -1001q-15 -87 -22.5 -124t-25 -88.5t-36.5 -71.5 t-56.5 -48.5t-85.5 -46t-124 -39.5l-20 76q45 14 77 25.5t59 27t44.5 27t32.5 34t23.5 39t17.5 51t14 61t14 77.5l174 1001h-489l-174 -1001q-15 -86 -23 -123.5t-25.5 -88.5t-36.5 -71.5t-56.5 -49t-85.5 -46t-124 -39.5zM387 1075h492l45 262q-261 58 -346 58 q-133 0 -156 -129z" />
<glyph horiz-adv-x="1753" d="M-168 -342q36 11 63.5 20.5t52 21.5t41 20.5t32.5 24t25.5 26t19 32t15 36.5t12.5 45.5t11 52.5t11 63l174 1001h-135l14 74h135l37 211q11 62 35.5 105t58.5 64t68 29.5t76 8.5q119 0 370 -59l10 59h86l-102 -578q48 37 109.5 74t157 73t173.5 36q141 0 196.5 -90.5 t29.5 -235.5l-135 -772h-87l136 764q45 256 -150 256q-103 0 -232.5 -67t-215.5 -136l-144 -817h-86l240 1356q-251 59 -352 59q-133 0 -156 -129l-37 -211h279l-15 -74h-276l-174 -1001q-15 -87 -22.5 -124t-25 -88.5t-36.5 -71.5t-56.5 -48.5t-85.5 -46t-124 -39.5z" />
<glyph horiz-adv-x="1187" d="M141 270q0 64 11 138l135 768h88l-137 -766q-11 -62 -12.5 -111t10 -95t39.5 -76.5t79 -48.5t125 -18q332 0 395 349l138 766h86l-135 -773q-16 -91 -50 -164t-90 -132.5t-143 -92t-199 -32.5q-88 0 -154 21t-104.5 59t-60 91t-21.5 117zM502 1487h78q-9 -66 21.5 -94.5 t105.5 -28.5q174 0 196 123h82q-15 -92 -88.5 -145.5t-191.5 -53.5q-109 0 -164.5 54t-38.5 145z" />
<glyph horiz-adv-x="1026" d="M-168 -342q36 11 63.5 20.5t52 21.5t41 20.5t32.5 24t25.5 26t19 32t15 36.5t12.5 45.5t11 52.5t11 63l174 1001h-135l14 74h135l37 211q11 62 35.5 105t58.5 64t68 29.5t76 8.5q141 0 370 -61l-43 -70q-61 16 -164 34.5t-159 18.5q-133 0 -156 -129l-37 -211h537 l-191 -1075h-86l176 1001h-448l-174 -1001q-15 -87 -22.5 -124t-25 -88.5t-36.5 -71.5t-56.5 -48.5t-85.5 -46t-124 -39.5z" />
<glyph horiz-adv-x="1028" d="M-168 -342q36 11 63.5 20.5t52 21.5t41 20.5t32.5 24t25.5 26t19 32t15 36.5t12.5 45.5t11 52.5t11 63l174 1001h-135l14 74h135l37 211q11 62 35.5 105t58.5 64t68 29.5t76 8.5q141 0 370 -61l-43 -70q-61 16 -164 34.5t-159 18.5q-133 0 -156 -129l-37 -211h539 l-207 -1161q-22 -121 -40 -160q-30 -65 -112 -106q-62 -32 -182 -66l-20 76q59 18 99 33t68.5 34t44.5 33.5t27.5 42.5t16 48.5t12.5 64.5l190 1087h-448l-174 -1001q-15 -87 -22.5 -124t-25 -88.5t-36.5 -71.5t-56.5 -48.5t-85.5 -46t-124 -39.5z" />
<glyph horiz-adv-x="1566" d="M-168 -342q90 28 136.5 49.5t77 66t41 85t28.5 141.5l174 1001h-135l14 74h135l37 211q11 62 35.5 105t58.5 64t68 29.5t76 8.5q119 0 370 -59l10 59h86l-184 -1047l578 629h106l-416 -440l285 -635h-88l-256 571l-231 -243l-58 -328h-86l240 1356q-251 59 -352 59 q-133 0 -156 -129l-37 -211h279l-15 -74h-276l-174 -1001q-15 -87 -22.5 -124t-25 -88.5t-36.5 -71.5t-56.5 -48.5t-85.5 -46t-124 -39.5z" />
<glyph horiz-adv-x="391" d="M178 788l23 127h96l-23 -127h-96zM246 1038l84 611h94l-129 -611h-49z" />
<glyph horiz-adv-x="1083" d="M-168 -342q36 11 63.5 20.5t52 21.5t41 20.5t32.5 24t25.5 26t19 32t15 36.5t12.5 45.5t11 52.5t11 63l174 1001h-135l14 74h135l37 211q11 62 35.5 105t58.5 64t68 29.5t76 8.5q119 0 370 -59l10 59h86l-264 -1493h-86l240 1356q-251 59 -352 59q-133 0 -156 -129 l-37 -211h279l-15 -74h-276l-174 -1001q-15 -87 -22.5 -124t-25 -88.5t-36.5 -71.5t-56.5 -48.5t-85.5 -46t-124 -39.5z" />
<glyph horiz-adv-x="1224" d="M-168 -342q36 11 63.5 20.5t52 21.5t41 20.5t32.5 24t25.5 26t19 32t15 36.5t12.5 45.5t11 52.5t11 63l174 1001h-135l14 74h135l37 211q20 115 67 161t140 46q54 0 136 -21t132 -40l-43 -66q-38 13 -113 31t-112 18q-57 0 -83.5 -35t-37.5 -94l-37 -211h455l49 271 l92 40l-55 -311h274l-16 -74h-273l-145 -825q-21 -121 78 -121q62 0 215 64l24 -74q-41 -19 -119 -43.5t-122 -24.5q-30 0 -54.5 5.5t-49.5 19.5t-38.5 39t-20.5 63.5t5 92.5l143 804h-454l-174 -1001q-15 -87 -22.5 -124t-25 -88.5t-36.5 -71.5t-56.5 -48.5t-85.5 -46 t-124 -39.5z" />
<glyph horiz-adv-x="452" d="M-186 -498q38 11 62 20t42.5 22.5t28 23.5t18 34t12.5 42.5t11 58.5l100 571h-84l12 64h84l19 106q14 78 46.5 111t98.5 33q74 0 180 -41l-38 -55q-87 28 -134 28q-62 0 -73 -74l-21 -108h172l-12 -64h-170l-100 -569q-7 -43 -10.5 -61t-11.5 -47.5t-14 -40.5t-19 -30.5 t-27.5 -27.5t-37 -21t-50.5 -21.5t-66 -18.5z" />
<glyph horiz-adv-x="1187" d="M141 270q0 64 11 138l135 768h88l-137 -766q-11 -62 -12.5 -111t10 -95t39.5 -76.5t79 -48.5t125 -18q332 0 395 349l138 766h86l-135 -773q-16 -91 -50 -164t-90 -132.5t-143 -92t-199 -32.5q-88 0 -154 21t-104.5 59t-60 91t-21.5 117zM588 1288l260 256h168l-346 -256 h-82z" />
<glyph horiz-adv-x="735" d="M-6 76l45 57q106 -74 205 -74q96 0 174 64.5t78 171.5q0 79 -45 127.5t-127 48.5t-187 -57l-45 24l119 422h434l-12 -72h-367l-73 -282q72 35 147 35q111 0 175.5 -69.5t64.5 -176.5q0 -129 -91 -219t-239 -90q-133 0 -256 90z" />
<glyph horiz-adv-x="735" d="M94 649l45 58q106 -74 205 -74q96 0 174 64t78 171q0 79 -45 127.5t-127 48.5q-81 0 -186 -57l-45 25l118 422h434l-12 -72h-366l-74 -283q72 35 147 35q111 0 175.5 -69.5t64.5 -176.5q0 -129 -91 -219t-239 -90q-133 0 -256 90z" />
<glyph horiz-adv-x="1079" d="M-16 -145l51 67q163 -121 321 -121q76 0 151.5 29t138 82.5t101.5 138.5t39 187q0 142 -75 228.5t-213 86.5q-140 0 -303 -98l-50 22l193 699h655l-14 -82h-584l-135 -531q116 72 254 72q167 0 267 -113.5t100 -288.5q0 -141 -64 -257.5t-184 -186.5t-273 -70 q-67 0 -126.5 12.5t-109.5 37.5t-76 41.5t-64 44.5z" />
<glyph d="M74 113l51 67q163 -121 321 -121q76 0 151.5 29t138.5 82.5t102 138.5t39 187q0 142 -75.5 228.5t-213.5 86.5q-140 0 -303 -98l-49 22l192 699h655l-14 -82h-584l-135 -531q116 72 254 72q167 0 267 -113t100 -288q0 -141 -64 -258t-184 -187t-272 -70 q-67 0 -126.5 12.5t-109.5 37.5t-76.5 41.5t-64.5 44.5z" />
<glyph horiz-adv-x="389" d="M-16 -307l22 127h96l-22 -127h-96zM51 -57l84 610h94l-129 -610h-49z" />
<glyph horiz-adv-x="1546" d="M100 535l41 51q93 -62 178 -62q83 0 149.5 51t66.5 136q0 63 -39 102t-111 39q-79 0 -160 -47l-43 24l101 347h381l-11 -66h-319l-58 -221q65 26 123 26q99 0 156 -57.5t57 -146.5q0 -105 -78 -178.5t-206 -73.5q-118 0 -228 76zM340 0l754 1176h80l-756 -1176h-78z M834 166q0 143 213 219q-105 56 -105 147q0 82 69.5 133.5t172.5 51.5q91 0 148 -43t57 -113q0 -119 -177 -184q66 -31 108 -73.5t42 -108.5q0 -91 -86 -149t-207 -58q-105 0 -170 46.5t-65 131.5zM909 168q0 -57 44 -87t114 -30q87 0 152 41t65 105q0 29 -13.5 53.5 t-39.5 43.5t-49 31t-56 25q-44 -14 -77 -28t-67.5 -35.5t-53.5 -52t-19 -66.5zM1018 526q0 -71 108 -116q40 12 68 23t58 28t45.5 40t15.5 52q0 44 -35.5 74t-93.5 30q-68 0 -117 -38.5t-49 -92.5z" />
<glyph horiz-adv-x="391" d="M180 788l129 611h49l-84 -611h-94zM307 1522l23 127h96l-23 -127h-96z" />
<glyph horiz-adv-x="1511" d="M102 535l41 51q93 -62 179 -62q83 0 149 51t66 136q0 63 -39 102t-111 39q-79 0 -160 -47l-43 24l101 347h381l-11 -66h-319l-57 -221q65 26 122 26q99 0 156 -57.5t57 -146.5q0 -105 -78 -178.5t-206 -73.5q-118 0 -228 76zM340 0l754 1176h80l-756 -1176h-78zM823 238 q0 128 58 238.5t158.5 175.5t220.5 65q27 0 52.5 -3.5t37.5 -7.5l12 -4l-27 -57q-30 8 -71 8q-119 0 -214 -79t-132 -203q80 80 198 80q101 0 157 -59t56 -142q0 -105 -72 -183.5t-196 -78.5q-115 0 -176.5 73.5t-61.5 176.5zM897 236q0 -75 42 -129t120 -54 q89 0 142.5 58.5t53.5 138.5q0 57 -38 98t-111 41q-66 0 -123.5 -34t-83.5 -72q-2 -16 -2 -47z" />
<glyph horiz-adv-x="389" d="M-14 -307l129 610h49l-84 -610h-94zM113 426l22 127h96l-22 -127h-96z" />
<glyph horiz-adv-x="1187" d="M141 270q0 64 11 138l135 768h88l-137 -766q-11 -62 -12.5 -111t10 -95t39.5 -76.5t79 -48.5t125 -18q332 0 395 349l138 766h86l-135 -773q-16 -91 -50 -164t-90 -132.5t-143 -92t-199 -32.5q-88 0 -154 21t-104.5 59t-60 91t-21.5 117z" />
<glyph horiz-adv-x="720" d="M225 1577l13 72h610l-12 -72h-265l-139 -789h-82l139 789h-264z" />
<glyph horiz-adv-x="778" d="M-4 199l10 63l510 598h107l-107 -592h127l-10 -69h-129l-35 -199h-82l35 199h-426zM96 268h338l90 506z" />
<glyph horiz-adv-x="778" d="M98 772l11 64l509 598h107l-107 -592h127l-10 -70h-129l-35 -199h-82l35 199h-426zM199 842h338l90 506z" />
<glyph horiz-adv-x="1144" d="M-8 86l14 78l830 1012h114l-178 -1008h203l-14 -82h-203l-62 -344h-86l62 344h-680zM106 168h580l160 901z" />
<glyph d="M47 344l14 78l830 1012h115l-179 -1008h203l-14 -82h-203l-61 -344h-90l61 344h-676zM162 426h575l158 895z" />
<glyph horiz-adv-x="1605" d="M92 631l8 57l437 488h100l-88 -482h113l-11 -63h-112l-29 -160h-76l29 160h-371zM186 694h287l74 408zM401 0l756 1176h80l-756 -1176h-80zM901 63l41 52q90 -60 178 -60q83 0 149 50.5t66 134.5q0 65 -38.5 104t-110.5 39q-69 0 -160 -47l-43 22l100 347h381l-10 -64 h-319l-60 -225q61 28 125 28q100 0 156.5 -57t56.5 -147q0 -105 -79 -178.5t-206 -73.5q-119 0 -227 75z" />
<glyph horiz-adv-x="501" d="M92 0l170 840h55l-124 -840h-101zM264 1014l29 162h113l-29 -162h-113z" />
<glyph horiz-adv-x="1187" d="M141 270q0 64 11 138l135 768h88l-137 -766q-11 -62 -12.5 -111t10 -95t39.5 -76.5t79 -48.5t125 -18q332 0 395 349l138 766h86l-135 -773q-16 -91 -50 -164t-90 -132.5t-143 -92t-199 -32.5q-88 0 -154 21t-104.5 59t-60 91t-21.5 117zM465 1288l223 256h131l135 -256 h-67l-139 191l-203 -191h-80z" />
<glyph horiz-adv-x="499" d="M84 0l29 162h112l-28 -162h-113zM172 336l125 840h100l-170 -840h-55z" />
<glyph horiz-adv-x="1105" d="M70 299l12 74h104l189 1061h778l-14 -82h-688l-105 -594h551l-14 -82h-551l-56 -303h338l-12 -74h-338l-53 -299h-90l53 299h-104z" />
<glyph horiz-adv-x="1007" d="M59 242l11 65h92l153 869h684l-14 -78h-596l-82 -471h477l-12 -78h-479l-43 -242h291l-11 -65h-292l-41 -242h-88l43 242h-93z" />
<glyph horiz-adv-x="743" d="M-41 -137l10 55h68l113 635h507l-12 -72h-426l-57 -323h340l-13 -70h-339l-31 -170h213l-8 -55h-215l-29 -170h-82l29 170h-68z" />
<glyph horiz-adv-x="743" d="M154 958l10 56h67l113 635h508l-12 -72h-426l-58 -324h340l-12 -69h-340l-31 -170h215l-10 -56h-215l-29 -170h-81l28 170h-67z" />
<glyph horiz-adv-x="450" d="M6 598q38 11 62 20t42.5 22.5t28 23.5t18 34t12.5 42.5t11 58.5l101 571h-84l12 64h84l18 106q13 78 46.5 110.5t99.5 32.5q74 0 180 -41l-39 -55q-91 29 -133 29q-63 0 -74 -74l-20 -108h172l-13 -64h-170l-100 -569q-6 -36 -8.5 -49.5t-8.5 -40.5t-10 -36t-12 -28.5 t-15.5 -26.5t-20.5 -20.5t-27.5 -19.5t-34.5 -16t-43.5 -17t-54.5 -15z" />
<glyph horiz-adv-x="724" d="M33 481l12 72h610l-12 -72h-264l-139 -788h-82l139 788h-264z" />
<glyph horiz-adv-x="1101" d="M90 0l207 1176h88l-39 -222h283q78 0 141.5 -16t115.5 -49.5t80.5 -93t28.5 -140.5q0 -102 -37 -179.5t-103 -124t-150.5 -70t-186.5 -23.5h-295l-45 -258h-88zM236 336h288q78 0 144.5 18.5t120 56t84 101t30.5 145.5q0 114 -74 167t-198 53h-297z" />
<glyph horiz-adv-x="946" d="M100 -301l39 68q50 -27 103 -27t90 31.5t37 97.5q0 59 -27 131h-23l195 1098h-371l13 78h831l-12 -78h-373l-194 -1098h-17q49 -69 49 -154q0 -81 -52 -131.5t-146 -50.5q-80 0 -142 35z" />
<glyph horiz-adv-x="946" d="M143 1098l13 78h831l-12 -78h-373l-194 -1098h-89l195 1098h-371zM391 1544h68l139 -190l203 190h80l-224 -256h-131z" />
<glyph horiz-adv-x="968" d="M154 1098l12 78h831l-12 -78h-373l-112 -631h190l-12 -68h-191l-69 -399h-88l69 399h-188l12 68h189l112 631h-370z" />
<glyph horiz-adv-x="790" d="M-35 -307l109 610q51 289 293 289q103 0 166 -47t63 -129q0 -37 -13 -68.5t-27 -43.5l-13 -13q-29 -10 -48.5 -18t-47 -24t-42 -39t-14.5 -52q0 -9 2 -18t4.5 -16t9 -16t10 -13.5t14.5 -14.5t15 -13.5t18.5 -15.5t18.5 -16q35 -30 53 -48.5t34 -51t16 -70.5 q0 -85 -63 -136t-152 -51q-99 0 -217 72l39 51q92 -59 174 -59q58 0 100.5 34.5t42.5 90.5q0 34 -19.5 60t-66.5 63q-2 1 -15.5 12.5t-16 13.5t-14.5 12t-15 14t-12 14t-12 16t-8.5 16.5t-7.5 19.5t-4 20.5t-2 23.5q0 28 7.5 52t25 42.5t31.5 31t41.5 25.5t40.5 18.5 t41 16.5q20 30 20 70q0 57 -41 88.5t-112 31.5q-179 0 -219 -229l-107 -606h-80z" />
<glyph horiz-adv-x="790" d="M158 788l108 611q51 289 293 289q103 0 166 -47.5t63 -129.5q0 -37 -13 -68.5t-27 -44.5l-13 -12q-29 -9 -48 -17.5t-46.5 -24.5t-42 -39t-14.5 -52q0 -9 2 -18t4.5 -16t9 -16t10 -13.5t14.5 -14.5t15 -13.5t18.5 -15.5t18.5 -16q35 -30 52.5 -48t33.5 -50.5t16 -70.5 q0 -85 -63 -136t-152 -51q-99 0 -217 72l39 51q92 -59 174 -59q58 0 100.5 34.5t42.5 90.5q0 34 -19 59t-67 63q-58 47 -75 69q-31 40 -31 93q0 41 16.5 73t50 54.5t56 33t63.5 26.5q21 32 21 69q0 57 -41.5 89t-112.5 32q-179 0 -219 -229l-106 -607h-80z" />
<glyph horiz-adv-x="753" d="M-84 -526l27 69q143 -47 247 -47q87 0 131.5 44.5t53.5 103.5l26 153q-123 -119 -247 -119q-75 0 -128 55.5t-53 172.5q0 192 82 319t211 127q45 0 90 -19.5t69 -39t56 -49.5l17 94h80l-123 -694q-22 -119 -90.5 -166t-174.5 -47q-126 0 -274 43zM55 -88 q0 -77 29.5 -121.5t85.5 -44.5q66 0 122 33.5t124 95.5l53 299q-95 111 -190 111q-68 0 -120 -55.5t-78 -139.5t-26 -178z" />
<glyph horiz-adv-x="946" d="M143 1098l13 78h831l-12 -78h-373l-194 -1098h-89l195 1098h-371z" />
<glyph horiz-adv-x="778" d="M137 881l47 61q147 -96 275 -96q91 0 154 47t63 123q0 35 -14.5 62.5t-45 48.5t-60.5 35t-77 33q-12 5 -18 7q-41 17 -66 29t-55.5 32t-47 41t-28.5 52t-12 69q0 110 80.5 174t204.5 64q141 0 288 -86l-47 -57q-53 30 -120.5 50.5t-122.5 20.5q-83 0 -140 -42.5 t-57 -118.5q0 -25 8 -44.5t19.5 -33t36.5 -28t44.5 -23t59.5 -25.5q16 -6 24 -10q45 -19 70 -30.5t60 -34t53.5 -45t32.5 -57t14 -75.5q0 -117 -88.5 -183.5t-214.5 -66.5q-86 0 -171 32t-149 75z" />
<glyph horiz-adv-x="1187" d="M141 270q0 64 11 138l135 768h88l-137 -766q-11 -62 -12.5 -111t10 -95t39.5 -76.5t79 -48.5t125 -18q332 0 395 349l138 766h86l-135 -773q-16 -91 -50 -164t-90 -132.5t-143 -92t-199 -32.5q-88 0 -154 21t-104.5 59t-60 91t-21.5 117zM502 1309l28 159h119l-28 -159 h-119zM805 1309l29 159h118l-28 -159h-119z" />
<glyph horiz-adv-x="755" d="M111 569l26 70q143 -47 248 -47q87 0 131 44t53 103l27 154q-123 -119 -248 -119q-75 0 -127.5 55t-52.5 172q0 193 82 320t211 127q45 0 90 -20t69 -39t56 -50l16 95h80l-123 -695q-22 -119 -90 -166t-174 -47q-126 0 -274 43zM250 1008q0 -77 29.5 -121.5t85.5 -44.5 q66 0 121.5 33t123.5 96l54 299q-94 110 -191 110q-68 0 -120 -55t-77.5 -139t-25.5 -178z" />
<glyph horiz-adv-x="778" d="M-57 -215l47 61q147 -96 274 -96q91 0 154 47t63 123q0 35 -14.5 62.5t-45 48.5t-60.5 35t-77 33q-12 5 -18 7q-41 17 -66 29t-55.5 32t-47.5 41t-28.5 52.5t-11.5 69.5q0 110 80.5 173.5t204.5 63.5q142 0 289 -86l-47 -57q-53 31 -121 51.5t-123 20.5q-83 0 -140 -43 t-57 -119q0 -30 8 -51t39 -42t46.5 -28t74.5 -32q16 -7 25 -11q45 -19 70 -31t60 -34t53.5 -44.5t32 -57t13.5 -75.5q0 -117 -88.5 -183.5t-214.5 -66.5q-86 0 -170.5 32t-148.5 75z" />
<glyph horiz-adv-x="1028" d="M25 121l53 67q204 -129 375 -129q133 0 227 68.5t94 181.5q0 42 -15.5 76t-39 58t-63.5 47.5t-76 39.5t-90 38q-9 3 -13 5q-42 17 -66 27.5t-59.5 28.5t-56 33t-44.5 38.5t-37 48t-21.5 57.5t-8.5 71q0 148 109.5 232.5t273.5 84.5q190 0 383 -113l-51 -61 q-78 42 -169 69t-169 27q-118 0 -202.5 -63t-84.5 -174q0 -45 13 -76.5t53.5 -59t70.5 -42t107 -46.5q9 -4 14 -6q39 -16 57 -24t53 -24t52.5 -26.5t45.5 -29t42 -34t32 -37.5t26.5 -45t15 -51.5t6.5 -60.5q0 -81 -35 -146.5t-94 -106t-132 -61.5t-152 -21q-203 0 -424 139z M246 -483l104 180h-57l29 166h116l-10 -166l-147 -221z" />
<glyph horiz-adv-x="1187" d="M141 270q0 64 11 138l135 768h88l-137 -766q-11 -62 -12.5 -111t10 -95t39.5 -76.5t79 -48.5t125 -18q332 0 395 349l138 766h86l-135 -773q-16 -91 -50 -164t-90 -132.5t-143 -92t-199 -32.5q-88 0 -154 21t-104.5 59t-60 91t-21.5 117zM494 1544h145l192 -256h-69z" />
<glyph horiz-adv-x="1187" d="M141 270q0 64 11 138l135 768h88l-137 -766q-11 -62 -12.5 -111t10 -95t39.5 -76.5t79 -48.5t125 -18q332 0 395 349l138 766h86l-135 -773q-16 -91 -50 -164t-90 -132.5t-143 -92t-199 -32.5q-88 0 -154 21t-104.5 59t-60 91t-21.5 117zM514 1288l176 256h152l-262 -256 h-66zM770 1288l176 256h152l-262 -256h-66z" />
<glyph horiz-adv-x="1028" d="M25 121l53 67q204 -129 375 -129q133 0 227 68.5t94 181.5q0 42 -15.5 76t-39 58t-63.5 47.5t-76 39.5t-90 38q-9 3 -13 5q-42 17 -66 27.5t-59.5 28.5t-56 33t-44.5 38.5t-37 48t-21.5 57.5t-8.5 71q0 148 109.5 232.5t273.5 84.5q190 0 383 -113l-51 -61 q-78 42 -169 69t-169 27q-118 0 -202.5 -63t-84.5 -174q0 -45 13 -76.5t53.5 -59t70.5 -42t107 -46.5q9 -4 14 -6q39 -16 57 -24t53 -24t52.5 -26.5t45.5 -29t42 -34t32 -37.5t26.5 -45t15 -51.5t6.5 -60.5q0 -81 -35 -146.5t-94 -106t-132 -61.5t-152 -21q-203 0 -424 139z M387 1288l223 256h131l136 -256h-68l-139 191l-203 -191h-80z" />
<glyph horiz-adv-x="1028" d="M25 121l53 67q204 -129 375 -129q133 0 227 68.5t94 181.5q0 42 -15.5 76t-39 58t-63.5 47.5t-76 39.5t-90 38q-9 3 -13 5q-42 17 -66 27.5t-59.5 28.5t-56 33t-44.5 38.5t-37 48t-21.5 57.5t-8.5 71q0 148 109.5 232.5t273.5 84.5q190 0 383 -113l-51 -61 q-78 42 -169 69t-169 27q-118 0 -202.5 -63t-84.5 -174q0 -45 13 -76.5t53.5 -59t70.5 -42t107 -46.5q9 -4 14 -6q39 -16 57 -24t53 -24t52.5 -26.5t45.5 -29t42 -34t32 -37.5t26.5 -45t15 -51.5t6.5 -60.5q0 -79 -33 -142.5t-88.5 -104t-124.5 -63t-145 -25.5 q37 -71 37 -136q0 -81 -52.5 -131.5t-146.5 -50.5q-79 0 -141 35l39 68q50 -27 102 -27q53 0 90 31.5t37 97.5q0 47 -20 115q-187 9 -391 137z" />
<glyph horiz-adv-x="761" d="M-35 -307l158 895h80l-62 -340q152 104 271 104q90 0 125.5 -55.5t19.5 -146.5l-80 -457h-80l80 448q25 144 -86 144q-63 0 -139.5 -37.5t-122.5 -75.5l-84 -479h-80z" />
<glyph horiz-adv-x="1028" d="M25 121l53 67q204 -129 375 -129q133 0 227 68.5t94 181.5q0 42 -15.5 76t-39 58t-63.5 47.5t-76 39.5t-90 38q-9 3 -13 5q-42 17 -66 27.5t-59.5 28.5t-56 33t-44.5 38.5t-37 48t-21.5 57.5t-8.5 71q0 148 109.5 232.5t273.5 84.5q190 0 383 -113l-51 -61 q-78 42 -169 69t-169 27q-118 0 -202.5 -63t-84.5 -174q0 -45 13 -76.5t53.5 -59t70.5 -42t107 -46.5q9 -4 14 -6q39 -16 57 -24t53 -24t52.5 -26.5t45.5 -29t42 -34t32 -37.5t26.5 -45t15 -51.5t6.5 -60.5q0 -81 -35 -146.5t-94 -106t-132 -61.5t-152 -21q-203 0 -424 139z M432 1544h68l139 -190l203 190h80l-224 -256h-131z" />
<glyph horiz-adv-x="886" d="M35 2l96 551h82l-98 -557q-12 -51 -9 -95.5t18 -77.5t55 -52t104 -19q225 0 270 244l98 557h82l-98 -561q-57 -314 -352 -314q-306 0 -248 324z" />
<glyph horiz-adv-x="1028" d="M25 121l53 67q204 -129 375 -129q133 0 227 68.5t94 181.5q0 42 -15.5 76t-39 58t-63.5 47.5t-76 39.5t-90 38q-9 3 -13 5q-42 17 -66 27.5t-59.5 28.5t-56 33t-44.5 38.5t-37 48t-21.5 57.5t-8.5 71q0 148 109.5 232.5t273.5 84.5q190 0 383 -113l-51 -61 q-78 42 -169 69t-169 27q-118 0 -202.5 -63t-84.5 -174q0 -45 13 -76.5t53.5 -59t70.5 -42t107 -46.5q9 -4 14 -6q39 -16 57 -24t53 -24t52.5 -26.5t45.5 -29t42 -34t32 -37.5t26.5 -45t15 -51.5t6.5 -60.5q0 -81 -35 -146.5t-94 -106t-132 -61.5t-152 -21q-203 0 -424 139z M512 1288l260 256h168l-346 -256h-82z" />
<glyph horiz-adv-x="1028" d="M25 121l53 67q204 -129 375 -129q133 0 227 68.5t94 181.5q0 42 -15.5 76t-39 58t-63.5 47.5t-76 39.5t-90 38q-9 3 -13 5q-42 17 -66 27.5t-59.5 28.5t-56 33t-44.5 38.5t-37 48t-21.5 57.5t-8.5 71q0 148 109.5 232.5t273.5 84.5q190 0 383 -113l-51 -61 q-78 42 -169 69t-169 27q-118 0 -202.5 -63t-84.5 -174q0 -45 13 -76.5t53.5 -59t70.5 -42t107 -46.5q9 -4 14 -6q39 -16 57 -24t53 -24t52.5 -26.5t45.5 -29t42 -34t32 -37.5t26.5 -45t15 -51.5t6.5 -60.5q0 -81 -35 -146.5t-94 -106t-132 -61.5t-152 -21q-203 0 -424 139z " />
<glyph horiz-adv-x="860" d="M180 788l152 861h307q124 0 196 -50.5t72 -160.5q0 -119 -77.5 -189.5t-200.5 -83.5l166 -377h-84l-160 375h-223l-66 -375h-82zM340 1233h229q117 0 186.5 53t69.5 152q0 73 -51.5 107t-138.5 34h-234z" />
<glyph horiz-adv-x="860" d="M-12 -307l151 860h307q124 0 196.5 -50.5t72.5 -160.5q0 -119 -77.5 -189t-201.5 -83l166 -377h-84l-160 375h-223l-65 -375h-82zM147 137h230q117 0 186.5 53t69.5 152q0 73 -52 107t-139 34h-233z" />
<glyph horiz-adv-x="1150" d="M90 0l207 1176h412q107 0 185.5 -26.5t128.5 -91.5t50 -165q0 -86 -31 -154t-86 -112t-123.5 -69.5t-150.5 -33.5l236 -524h-93l-225 522h-330l-92 -522h-88zM283 600h327q169 0 270 75.5t101 217.5q0 105 -74 155t-200 50h-334zM299 -483l104 180h-57l29 166h117 l-11 -166l-147 -221z" />
<glyph horiz-adv-x="1150" d="M90 0l207 1176h412q107 0 185.5 -26.5t128.5 -91.5t50 -165q0 -86 -31 -154t-86 -112t-123.5 -69.5t-150.5 -33.5l236 -524h-93l-225 522h-330l-92 -522h-88zM283 600h327q169 0 270 75.5t101 217.5q0 105 -74 155t-200 50h-334zM526 1544h68l139 -190l203 190h80 l-223 -256h-131z" />
<glyph horiz-adv-x="1150" d="M90 0l207 1176h412q107 0 185.5 -26.5t128.5 -91.5t50 -165q0 -86 -31 -154t-86 -112t-123.5 -69.5t-150.5 -33.5l236 -524h-93l-225 522h-330l-92 -522h-88zM283 600h327q169 0 270 75.5t101 217.5q0 105 -74 155t-200 50h-334zM606 1288l260 256h168l-346 -256h-82z " />
<glyph horiz-adv-x="331" d="M-37 -307l115 645h80l-115 -645h-80zM96 477l19 109h90l-19 -109h-90z" />
<glyph horiz-adv-x="1150" d="M90 0l207 1176h412q107 0 185.5 -26.5t128.5 -91.5t50 -165q0 -86 -31 -154t-86 -112t-123.5 -69.5t-150.5 -33.5l236 -524h-93l-225 522h-330l-92 -522h-88zM283 600h327q169 0 270 75.5t101 217.5q0 105 -74 155t-200 50h-334z" />
<glyph horiz-adv-x="929" d="M203 1120q0 96 26.5 190t76.5 174t132 129.5t183 49.5q319 0 319 -344q0 -117 -36.5 -228.5t-116.5 -199.5t-189 -111l125 -123l-61 -53l-150 170q-309 5 -309 346zM287 1120q0 -45 4 -78.5t18.5 -72t39 -63.5t69.5 -41.5t106 -16.5q83 0 149.5 47.5t104.5 121t58 151.5 t20 149q0 45 -4 78.5t-18 72t-38.5 63.5t-69 41.5t-105.5 16.5q-84 0 -151 -47.5t-105 -121t-58 -151.5t-20 -149z" />
<glyph horiz-adv-x="1187" d="M141 270q0 64 11 138l135 768h88l-137 -766q-11 -62 -12.5 -111t10 -95t39.5 -76.5t79 -48.5t125 -18q332 0 395 349l138 766h86l-135 -773q-16 -91 -50 -164t-90 -132.5t-143 -92t-199 -32.5q-88 0 -154 21t-104.5 59t-60 91t-21.5 117zM451 1339l12 74h532l-12 -74 h-532z" />
<glyph horiz-adv-x="1187" d="M141 270q0 64 11 138l135 768h88l-137 -766q-11 -62 -12.5 -111t10 -95t39.5 -76.5t79 -48.5t125 -18q332 0 395 349l138 766h86l-135 -773q-62 -333 -328 -403q-126 -67 -177.5 -115.5t-51.5 -101.5q0 -16 5 -27.5t18 -18.5t22.5 -11t31.5 -5.5t31 -1.5h35l-29 -77 q-37 0 -63.5 3t-63 14t-56.5 39t-20 71q0 119 183 213h-19q-88 0 -154 21t-104.5 59t-60 91t-21.5 117z" />
<glyph horiz-adv-x="931" d="M10 25q0 96 26.5 190t76.5 173.5t132 129t183 49.5q320 0 320 -344q0 -117 -36.5 -228t-116.5 -199t-189 -111l124 -123l-61 -54l-150 170q-309 5 -309 347zM94 25q0 -44 4 -78.5t18.5 -73t39.5 -63.5t70 -41.5t106 -16.5q83 0 149.5 47.5t104.5 121t58 151.5t20 149 q0 44 -4 78.5t-18.5 73t-39 63.5t-69 41.5t-105.5 16.5q-84 0 -151 -47.5t-105 -121t-58 -151.5t-20 -149z" />
<glyph horiz-adv-x="704" d="M-23 -41q0 170 97.5 281.5t251.5 111.5q99 0 152.5 -47t53.5 -119q0 -213 -399 -213h-74v-18q0 -101 41 -156t115 -55q22 0 47 5t44 11.5t44.5 18.5t38.5 19t36.5 20.5t27.5 15.5l30 -59q-46 -27 -73 -41.5t-89 -35t-114 -20.5q-106 0 -168 72.5t-62 208.5zM66 31h75 q158 0 236 41.5t78 113.5q0 47 -36 74t-97 27q-95 0 -166 -71.5t-90 -184.5z" />
<glyph horiz-adv-x="1249" d="M119 455q0 102 22 205t68.5 199.5t111.5 170.5t159 119t204 45q122 0 208.5 -35t135.5 -100.5t70.5 -147.5t21.5 -188q0 -120 -31 -240.5t-89.5 -225.5t-154 -178t-212.5 -91l174 -176l-68 -58l-202 228q-116 3 -199 39t-130 101.5t-68 147t-21 185.5zM209 453 q0 -63 5.5 -110.5t26 -103.5t56.5 -92.5t101.5 -61t156.5 -24.5q96 0 177 44.5t135 115t91.5 159.5t54.5 176.5t17 166.5q0 63 -5.5 110.5t-26 103.5t-56.5 92t-101.5 60.5t-156.5 24.5q-96 0 -177 -44.5t-135 -115t-91.5 -159.5t-54.5 -176t-17 -166z" />
<glyph horiz-adv-x="819" d="M180 788l152 861h274q125 0 200 -53.5t75 -168.5q0 -143 -95.5 -218.5t-250.5 -75.5h-211l-62 -345h-82zM336 1202h196q113 0 188 56t75 167q0 80 -51 116t-136 36h-207z" />
<glyph horiz-adv-x="821" d="M-12 -307l151 860h275q125 0 199.5 -53t74.5 -168q0 -143 -95.5 -219t-250.5 -76h-211l-61 -344h-82zM143 106h197q113 0 187.5 56.5t74.5 167.5q0 151 -186 151h-207z" />
<glyph horiz-adv-x="333" d="M-211 -500q73 23 106 42.5t43.5 40.5t18.5 69l121 686h80l-121 -682q-7 -39 -11 -57t-14.5 -43.5t-23.5 -37.5t-37.5 -28t-59 -28t-84.5 -25zM98 477l19 109h90l-19 -109h-90z" />
<glyph d="M78 319q0 77 28 145.5t69.5 115.5t100 87.5t109 64.5t107.5 44q-199 100 -199 301q0 113 59.5 200.5t156.5 133t212 45.5q154 0 250 -83t96 -222q0 -262 -348 -385q282 -135 282 -367q0 -94 -45 -174.5t-119 -134t-169 -83.5t-195 -30q-173 0 -284 89t-111 253zM172 317 q0 -125 82 -191.5t217 -66.5q110 0 208.5 41t162 119.5t63.5 177.5q0 202 -301 332q-67 -23 -120.5 -45.5t-114.5 -60t-102 -79t-68 -100.5t-27 -127zM383 1077q0 -170 223 -262q58 19 105 38.5t99 49.5t86.5 63t57.5 79t23 98q0 99 -71.5 165t-186.5 66q-136 0 -236 -87.5 t-100 -209.5z" />
<glyph horiz-adv-x="1091" d="M90 0l207 1176h369q79 0 142.5 -16t115 -49.5t80 -93t28.5 -140.5q0 -102 -36.5 -179.5t-102 -124.5t-150.5 -70.5t-186 -23.5h-293l-86 -479h-88zM276 557h285q78 0 144.5 19t120 56.5t84 101t30.5 145.5q0 114 -73 166.5t-197 52.5h-299z" />
<glyph horiz-adv-x="1249" d="M119 455q0 102 22 205t68.5 199.5t111.5 170.5t159 119t204 45q122 0 208.5 -35t135.5 -100.5t70.5 -147.5t21.5 -188q0 -103 -22 -206t-68 -200t-111 -171t-159 -119t-203 -45q-98 0 -174 23.5t-125.5 65t-81 102t-44.5 129.5t-13 153zM209 453q0 -63 5.5 -110.5 t26 -103.5t56.5 -92.5t101.5 -61t156.5 -24.5q96 0 177 44.5t135 115t91.5 159.5t54.5 176.5t17 166.5q0 63 -5.5 110.5t-26 103.5t-56.5 92t-101.5 60.5t-156.5 24.5q-96 0 -177 -44.5t-135 -115t-91.5 -159.5t-54.5 -176t-17 -166zM492 1352q48 73 82.5 103t82.5 30 q41 0 79.5 -25.5t70.5 -50.5t57 -25q24 0 47 18.5t62 76.5l57 -37q-48 -73 -83 -103t-83 -30q-41 0 -79 25t-70.5 50t-59.5 25q-24 0 -45.5 -17.5t-60.5 -74.5z" />
<glyph horiz-adv-x="929" d="M203 1120q0 96 26.5 190t76.5 174t132 129.5t183 49.5q319 0 319 -344q0 -96 -26.5 -190.5t-76.5 -174.5t-132 -130t-183 -50q-319 0 -319 346zM287 1120q0 -45 4 -78.5t18.5 -72t39 -63.5t69.5 -41.5t106 -16.5q83 0 149.5 47.5t104.5 121t58 151.5t20 149q0 45 -4 78.5 t-18 72t-38.5 63.5t-69 41.5t-105.5 16.5q-84 0 -151 -47.5t-105 -121t-58 -151.5t-20 -149z" />
<glyph horiz-adv-x="651" d="M-35 -307l158 895h80l-107 -600l332 350h96l-260 -264l185 -381h-80l-156 327l-135 -137l-33 -190h-80z" />
<glyph horiz-adv-x="649" d="M158 788l157 895h80l-106 -600l332 351h96l-260 -265l184 -381h-80l-155 328l-136 -137l-32 -191h-80z" />
<glyph horiz-adv-x="1249" d="M37 0l145 164q-61 106 -61 291q0 102 22 205t68.5 199.5t111.5 170.5t159 119t204 45q208 0 315 -104l78 86h84l-121 -136q80 -115 80 -317q0 -103 -22 -206t-68 -200t-111 -171t-159 -119t-203 -45q-233 0 -340 129l-98 -111h-84zM211 453q0 -143 33 -220l702 793 q-85 88 -260 88q-96 0 -177 -44.5t-135 -115t-91.5 -159.5t-54.5 -176t-17 -166zM276 174q81 -113 281 -113q96 0 177 44.5t135 115t91.5 159.5t54.5 176.5t17 166.5q0 162 -49 250zM602 1288l260 256h168l-346 -256h-82z" />
<glyph horiz-adv-x="1189" d="M90 319q0 77 28 145.5t69.5 115.5t100 87.5t109 64.5t107.5 44q-199 100 -199 301q0 113 59.5 200.5t156.5 133t212 45.5q154 0 250 -83t96 -222q0 -262 -348 -385q283 -136 283 -367q0 -124 -77.5 -222.5t-197 -149t-254.5 -50.5q-173 0 -284 89t-111 253zM184 317 q0 -125 82 -191.5t217 -66.5q110 0 208.5 41t162.5 119.5t64 177.5q0 202 -302 332q-67 -23 -120.5 -45.5t-114.5 -60t-102 -79t-68 -100.5t-27 -127zM395 1077q0 -170 223 -262q58 19 105 38.5t99 49.5t86.5 63t57.5 79t23 98q0 99 -71.5 165t-186.5 66q-136 0 -236 -87.5 t-100 -209.5z" />
<glyph horiz-adv-x="1249" d="M119 455q0 102 22 205t68.5 199.5t111.5 170.5t159 119t204 45q122 0 208.5 -35t135.5 -100.5t70.5 -147.5t21.5 -188q0 -103 -22 -206t-68 -200t-111 -171t-159 -119t-203 -45q-98 0 -174 23.5t-125.5 65t-81 102t-44.5 129.5t-13 153zM209 453q0 -63 5.5 -110.5 t26 -103.5t56.5 -92.5t101.5 -61t156.5 -24.5q96 0 177 44.5t135 115t91.5 159.5t54.5 176.5t17 166.5q0 63 -5.5 110.5t-26 103.5t-56.5 92t-101.5 60.5t-156.5 24.5q-96 0 -177 -44.5t-135 -115t-91.5 -159.5t-54.5 -176t-17 -166zM483 1339l13 74h532l-12 -74h-533z" />
<glyph horiz-adv-x="929" d="M10 25q0 96 26.5 190t76.5 173.5t132 129t183 49.5q320 0 320 -344q0 -96 -26.5 -190.5t-76.5 -174.5t-132 -130t-183 -50q-320 0 -320 347zM94 25q0 -44 4 -78.5t18.5 -73t39.5 -63.5t70 -41.5t106 -16.5q83 0 149.5 47.5t104.5 121t58 151.5t20 149q0 44 -4 78.5 t-18.5 73t-39 63.5t-69 41.5t-105.5 16.5q-84 0 -151 -47.5t-105 -121t-58 -151.5t-20 -149z" />
<glyph horiz-adv-x="1251" d="M119 455q0 102 22 205t68.5 199.5t111.5 170.5t159 119t204 45q122 0 208.5 -35t135.5 -100.5t70.5 -147.5t21.5 -188q0 -103 -22 -206t-68 -200t-111 -171t-159 -119t-203 -45q-98 0 -174 23.5t-125.5 65t-81 102t-44.5 129.5t-13 153zM209 453q0 -63 5.5 -110.5 t26 -103.5t56.5 -92.5t101.5 -61t156.5 -24.5q96 0 177 44.5t135 115t91.5 159.5t54.5 176.5t17 166.5q0 63 -5.5 110.5t-26 103.5t-56.5 92t-101.5 60.5t-156.5 24.5q-96 0 -177 -44.5t-135 -115t-91.5 -159.5t-54.5 -176t-17 -166zM547 1288l176 256h151l-262 -256h-65z M803 1288l176 256h151l-262 -256h-65z" />
<glyph horiz-adv-x="1249" d="M119 455q0 102 22 205t68.5 199.5t111.5 170.5t159 119t204 45q122 0 208.5 -35t135.5 -100.5t70.5 -147.5t21.5 -188q0 -103 -22 -206t-68 -200t-111 -171t-159 -119t-203 -45q-98 0 -174 23.5t-125.5 65t-81 102t-44.5 129.5t-13 153zM209 453q0 -63 5.5 -110.5 t26 -103.5t56.5 -92.5t101.5 -61t156.5 -24.5q96 0 177 44.5t135 115t91.5 159.5t54.5 176.5t17 166.5q0 63 -5.5 110.5t-26 103.5t-56.5 92t-101.5 60.5t-156.5 24.5q-96 0 -177 -44.5t-135 -115t-91.5 -159.5t-54.5 -176t-17 -166zM524 1544h146l192 -256h-69z" />
<glyph horiz-adv-x="790" d="M125 772q0 177 252 270q-121 64 -121 179q0 101 79.5 164t196.5 63q104 0 168 -51t64 -137q0 -147 -205 -228q172 -84 172 -219q0 -112 -100.5 -183t-239.5 -71q-120 0 -193 55.5t-73 157.5zM209 774q0 -70 49 -107.5t131 -37.5q101 0 178.5 52t77.5 132q0 67 -49.5 111 t-128.5 80q-52 -17 -91 -35t-80.5 -45.5t-64 -65.5t-22.5 -84zM338 1217q0 -93 129 -146q45 14 78.5 28.5t67 36.5t51.5 51t18 64q0 54 -41.5 91.5t-108.5 37.5q-80 0 -137 -48t-57 -115z" />
<glyph horiz-adv-x="333" d="M-35 -307l158 895h80l-158 -895h-80z" />
<glyph horiz-adv-x="790" d="M23 199q0 178 251 270q-120 63 -120 178q0 101 79.5 164t196.5 63q104 0 168 -51t64 -137q0 -146 -205 -227q172 -84 172 -219q0 -112 -100.5 -183t-239.5 -71q-120 0 -193 55.5t-73 157.5zM106 201q0 -70 49.5 -108t131.5 -38q101 0 178.5 52.5t77.5 132.5 q0 36 -15.5 66t-44 53.5t-55 38.5t-63.5 32q-41 -14 -72.5 -26.5t-68.5 -33.5t-61 -44t-40.5 -55.5t-16.5 -69.5zM236 643q0 -92 129 -145q45 14 78.5 28.5t67 36.5t51.5 51t18 64q0 54 -41.5 91.5t-108.5 37.5q-80 0 -137 -48.5t-57 -115.5z" />
<glyph horiz-adv-x="958" d="M43 0l10 66q6 5 17.5 14t43 38t59.5 60t61 76.5t55 89.5h-168l12 72h182q15 54 15 88q0 15 -4 43h-170l12 71h141q-7 21 -28.5 73.5t-32 92.5t-10.5 84q0 144 96.5 235t253.5 91q66 0 134.5 -21.5t102.5 -40.5t90 -53l-51 -59q-164 96 -276 96q-121 0 -193.5 -73 t-72.5 -175q0 -47 11 -87.5t32.5 -89.5t29.5 -73h307l-12 -71h-278q0 -6 1 -18.5t1 -18.5q0 -47 -13 -94h265l-13 -72h-276q-56 -129 -209 -266h549l-12 -78h-662z" />
<glyph horiz-adv-x="704" d="M-55 -307l10 61q5 3 12.5 9t30 26t43 41t44 52.5t38.5 62.5h-121l10 59h131q9 27 9 55q0 5 -1 16.5t-1 16.5h-121l8 60h96q-3 10 -18.5 49.5t-22 67.5t-6.5 61q0 105 70.5 171t185.5 66q40 0 76.5 -7.5t72.5 -25t52 -26.5t51 -31l-47 -55q-120 74 -201 74 q-80 0 -130 -50.5t-50 -119.5q0 -32 7.5 -60t23 -64t20.5 -50h221l-10 -60h-199q2 -8 2 -26q0 -26 -8 -62h189l-11 -59h-196q-39 -86 -142 -181h388l-13 -71h-493z" />
<glyph horiz-adv-x="702" d="M137 788l10 62q13 9 33 25t65.5 66t69.5 99h-120l10 60h131q8 24 8 55q0 5 -1 16.5t-1 16.5h-121l8 59h97q-3 10 -18.5 49.5t-22 67.5t-6.5 61q0 105 70.5 171.5t185.5 66.5q52 0 105.5 -17.5t76.5 -30.5t69 -42l-47 -55q-119 73 -200 73q-80 0 -130.5 -50.5 t-50.5 -119.5q0 -32 7.5 -60t23.5 -63.5t21 -50.5h221l-10 -59h-199q2 -8 2 -27q0 -25 -8 -61h188l-10 -60h-197q-39 -86 -141 -180h387l-12 -72h-494z" />
<glyph horiz-adv-x="1249" d="M119 455q0 102 22 205t68.5 199.5t111.5 170.5t159 119t204 45q122 0 208.5 -35t135.5 -100.5t70.5 -147.5t21.5 -188q0 -103 -22 -206t-68 -200t-111 -171t-159 -119t-203 -45q-98 0 -174 23.5t-125.5 65t-81 102t-44.5 129.5t-13 153zM209 453q0 -63 5.5 -110.5 t26 -103.5t56.5 -92.5t101.5 -61t156.5 -24.5q96 0 177 44.5t135 115t91.5 159.5t54.5 176.5t17 166.5q0 63 -5.5 110.5t-26 103.5t-56.5 92t-101.5 60.5t-156.5 24.5q-96 0 -177 -44.5t-135 -115t-91.5 -159.5t-54.5 -176t-17 -166zM535 1309l28 159h119l-29 -159h-118z M838 1309l28 159h119l-29 -159h-118z" />
<glyph horiz-adv-x="1249" d="M119 455q0 102 22 205t68.5 199.5t111.5 170.5t159 119t204 45q122 0 208.5 -35t135.5 -100.5t70.5 -147.5t21.5 -188q0 -103 -22 -206t-68 -200t-111 -171t-159 -119t-203 -45q-98 0 -174 23.5t-125.5 65t-81 102t-44.5 129.5t-13 153zM209 453q0 -63 5.5 -110.5 t26 -103.5t56.5 -92.5t101.5 -61t156.5 -24.5q96 0 177 44.5t135 115t91.5 159.5t54.5 176.5t17 166.5q0 63 -5.5 110.5t-26 103.5t-56.5 92t-101.5 60.5t-156.5 24.5q-96 0 -177 -44.5t-135 -115t-91.5 -159.5t-54.5 -176t-17 -166zM498 1288l223 256h131l135 -256h-67 l-140 191l-202 -191h-80z" />
<glyph horiz-adv-x="1187" d="M141 270q0 64 11 138l135 768h88l-137 -766q-11 -62 -12.5 -111t10 -95t39.5 -76.5t79 -48.5t125 -18q332 0 395 349l138 766h86l-135 -773q-16 -91 -50 -164t-90 -132.5t-143 -92t-199 -32.5q-88 0 -154 21t-104.5 59t-60 91t-21.5 117zM539 1464q0 84 56.5 141.5 t139.5 57.5t141 -58t58 -141t-57.5 -139.5t-141.5 -56.5q-83 0 -139.5 56.5t-56.5 139.5zM604 1464q0 -54 38.5 -92.5t92.5 -38.5q55 0 94 38.5t39 92.5q0 56 -39 94.5t-94 38.5q-54 0 -92.5 -39t-38.5 -94z" />
<glyph horiz-adv-x="1249" d="M119 455q0 102 22 205t68.5 199.5t111.5 170.5t159 119t204 45q122 0 208.5 -35t135.5 -100.5t70.5 -147.5t21.5 -188q0 -103 -22 -206t-68 -200t-111 -171t-159 -119t-203 -45q-98 0 -174 23.5t-125.5 65t-81 102t-44.5 129.5t-13 153zM209 453q0 -63 5.5 -110.5 t26 -103.5t56.5 -92.5t101.5 -61t156.5 -24.5q96 0 177 44.5t135 115t91.5 159.5t54.5 176.5t17 166.5q0 63 -5.5 110.5t-26 103.5t-56.5 92t-101.5 60.5t-156.5 24.5q-96 0 -177 -44.5t-135 -115t-91.5 -159.5t-54.5 -176t-17 -166zM537 1487h77q-9 -66 21.5 -94.5 t105.5 -28.5q79 0 132.5 29.5t64.5 93.5h82q-15 -92 -89 -145.5t-192 -53.5q-109 0 -164 54t-38 145z" />
<glyph horiz-adv-x="886" d="M227 1098l97 551h82l-99 -557q-12 -51 -9 -95.5t18 -77.5t55 -52t104 -19q225 0 270 244l99 557h82l-99 -562q-56 -313 -352 -313q-306 0 -248 324z" />
<glyph horiz-adv-x="1249" d="M119 455q0 102 22 205t68.5 199.5t111.5 170.5t159 119t204 45q122 0 208.5 -35t135.5 -100.5t70.5 -147.5t21.5 -188q0 -103 -22 -206t-68 -200t-111 -171t-159 -119t-203 -45q-98 0 -174 23.5t-125.5 65t-81 102t-44.5 129.5t-13 153zM209 453q0 -63 5.5 -110.5 t26 -103.5t56.5 -92.5t101.5 -61t156.5 -24.5q96 0 177 44.5t135 115t91.5 159.5t54.5 176.5t17 166.5q0 63 -5.5 110.5t-26 103.5t-56.5 92t-101.5 60.5t-156.5 24.5q-96 0 -177 -44.5t-135 -115t-91.5 -159.5t-54.5 -176t-17 -166zM618 1288l261 256h168l-347 -256h-82z " />
<glyph horiz-adv-x="1839" d="M119 455q0 102 22 205t68.5 199.5t111.5 170.5t159 119t204 45q322 0 406 -250l40 232h685l-15 -78h-596l-82 -471h496l-14 -78h-496l-84 -471h606l-12 -78h-694l32 195q-154 -213 -399 -213q-98 0 -174 23.5t-125.5 65t-81 102t-44.5 129.5t-13 153zM209 453 q0 -63 5.5 -110.5t26 -103.5t56.5 -92.5t101.5 -61t156.5 -24.5q96 0 177 44.5t135 115t91.5 159.5t54.5 176.5t17 166.5q0 63 -5.5 110.5t-26 103.5t-56.5 92t-101.5 60.5t-156.5 24.5q-96 0 -177 -44.5t-135 -115t-91.5 -159.5t-54.5 -176t-17 -166z" />
<glyph horiz-adv-x="1130" d="M-37 -307l115 645h80l-17 -96q125 110 238 110q69 0 105.5 -34.5t43.5 -90.5q50 46 119 85.5t137 39.5q91 0 125 -55.5t19 -144.5l-80 -459h-80l80 448q27 144 -82 144q-59 0 -125 -39t-117 -88l-80 -465h-82l82 448q12 64 -6.5 104t-77.5 40q-100 0 -233 -123l-84 -469 h-80z" />
<glyph horiz-adv-x="1187" d="M141 270q0 64 11 138l135 768h88l-137 -766q-11 -62 -12.5 -111t10 -95t39.5 -76.5t79 -48.5t125 -18q332 0 395 349l138 766h86l-135 -773q-16 -91 -50 -164t-90 -132.5t-143 -92t-199 -32.5q-88 0 -154 21t-104.5 59t-60 91t-21.5 117zM459 1352q48 73 83 103t83 30 q32 0 63.5 -16t52 -34.5t45 -34.5t45.5 -16q24 0 47 18.5t62 76.5l57 -37q-48 -73 -83 -103t-83 -30q-41 0 -79 25t-70 50t-59 25q-24 0 -46.5 -17.5t-60.5 -74.5z" />
<glyph horiz-adv-x="1146" d="M172 1176h90l211 -1082l588 1082h102l-653 -1176h-98z" />
<glyph horiz-adv-x="1249" d="M119 455q0 102 22 205t68.5 199.5t111.5 170.5t159 119t204 45q122 0 208.5 -35t135.5 -100.5t70.5 -147.5t21.5 -188q0 -103 -22 -206t-68 -200t-111 -171t-159 -119t-203 -45q-98 0 -174 23.5t-125.5 65t-81 102t-44.5 129.5t-13 153zM209 453q0 -63 5.5 -110.5 t26 -103.5t56.5 -92.5t101.5 -61t156.5 -24.5q96 0 177 44.5t135 115t91.5 159.5t54.5 176.5t17 166.5q0 63 -5.5 110.5t-26 103.5t-56.5 92t-101.5 60.5t-156.5 24.5q-96 0 -177 -44.5t-135 -115t-91.5 -159.5t-54.5 -176t-17 -166z" />
<glyph horiz-adv-x="1228" d="M90 0l207 1176h92l467 -1055l186 1055h88l-206 -1176h-95l-467 1053l-184 -1053h-88zM492 1352q48 73 82.5 103t82.5 30q41 0 79.5 -25.5t70.5 -50.5t57 -25q24 0 47 18.5t62 76.5l57 -37q-48 -73 -83 -103t-83 -30q-41 0 -79 25t-70.5 50t-59.5 25q-24 0 -45.5 -17.5 t-60.5 -74.5z" />
<glyph horiz-adv-x="919" d="M180 788l152 861h86l319 -746l131 746h82l-151 -861h-84l-322 746l-131 -746h-82z" />
<glyph horiz-adv-x="919" d="M-12 -307l151 860h86l320 -746l131 746h82l-152 -860h-84l-321 745l-131 -745h-82z" />
<glyph horiz-adv-x="1228" d="M90 0l207 1176h92l467 -1055l186 1055h88l-206 -1176h-95l-467 1053l-184 -1053h-88zM356 -483l105 180h-58l29 166h117l-10 -166l-148 -221z" />
<glyph horiz-adv-x="1228" d="M90 0l207 1176h92l467 -1055l186 1055h88l-206 -1176h-95l-467 1053l-184 -1053h-88zM545 1544h67l140 -190l202 190h80l-223 -256h-131z" />
<glyph horiz-adv-x="1228" d="M90 0l207 1176h92l467 -1055l186 1055h88l-206 -1176h-95l-467 1053l-184 -1053h-88zM612 1288l260 256h168l-346 -256h-82z" />
<glyph horiz-adv-x="1228" d="M90 0l207 1176h92l467 -1055l186 1055h88l-206 -1176h-95l-467 1053l-184 -1053h-88z" />
<glyph horiz-adv-x="780" d="M39 4l31 64q35 -11 84 -11q138 0 248.5 101t154.5 254q-95 -101 -233 -101q-114 0 -177 71.5t-63 170.5q0 82 34.5 154t107 119.5t167.5 47.5q129 0 197.5 -87.5t68.5 -208.5q0 -157 -67 -293.5t-183 -217.5t-253 -81q-31 0 -60.5 4.5t-43.5 9.5zM164 553 q0 -70 43.5 -122t126.5 -52q81 0 149.5 46.5t94.5 96.5q4 36 4 58q0 91 -48.5 157t-138.5 66q-104 0 -167.5 -74t-63.5 -176z" />
<glyph horiz-adv-x="835" d="M39 553h88l137 -782l414 782h96l-475 -860h-88z" />
<glyph horiz-adv-x="1150" d="M53 -258l37 74q55 -19 133 -19q153 0 291.5 89.5t234.5 235t144 322.5q-25 -28 -56.5 -55.5t-81 -58.5t-115 -50.5t-136.5 -19.5q-92 0 -165.5 34.5t-117.5 91.5t-67 125t-23 140q0 102 33 198t93 173.5t154 124.5t207 47q81 0 148.5 -27.5t113 -73t77.5 -106.5 t46.5 -127.5t14.5 -136.5q0 -268 -107.5 -500.5t-290.5 -370t-395 -137.5q-44 0 -87 6.5t-64 13.5zM223 651q0 -57 17 -110t50 -98.5t89.5 -73t128.5 -27.5q94 0 185.5 46.5t148.5 104.5t82 113q6 56 6 113q0 73 -19 141.5t-55.5 125.5t-97.5 91.5t-137 34.5 q-89 0 -165.5 -38.5t-126.5 -103t-78 -147t-28 -172.5z" />
<glyph d="M104 4l37 74q55 -19 133 -19q115 0 224 52t194.5 141t151 206t100.5 249q-25 -28 -56.5 -55.5t-81 -59t-115 -51t-136.5 -19.5q-92 0 -165.5 34.5t-117.5 91.5t-67 125t-23 140q0 102 33 198.5t93.5 173.5t154.5 124t207 47q100 0 179 -41t125.5 -109.5t70.5 -150.5 t24 -170q0 -268 -107.5 -500.5t-290.5 -370t-395 -137.5q-44 0 -87 6.5t-64 13.5zM274 913q0 -57 17 -110t50 -98.5t89.5 -73t128.5 -27.5q94 0 185.5 46.5t148.5 104.5t82 113q6 55 6 113q0 73 -19 141.5t-55.5 125.5t-97.5 91.5t-137 34.5q-89 0 -165.5 -38.5t-126.5 -103 t-78 -147t-28 -172.5z" />
<glyph horiz-adv-x="835" d="M231 1649h88l138 -783l413 783h97l-475 -861h-89z" />
<glyph horiz-adv-x="1566" d="M188 1176h93l86 -1070l462 1070h95l82 -1080l462 1080h99l-523 -1176h-102l-84 1053l-459 -1053h-100z" />
<glyph horiz-adv-x="759" d="M-37 -307l115 645h80l-17 -90q152 104 269 104q90 0 125.5 -55.5t19.5 -146.5l-80 -457h-80l80 448q25 144 -86 144q-62 0 -139 -37t-123 -76l-84 -479h-80z" />
<glyph horiz-adv-x="1566" d="M188 1176h93l86 -1070l462 1070h95l82 -1080l462 1080h99l-523 -1176h-102l-84 1053l-459 -1053h-100zM776 1288l260 256h168l-346 -256h-82z" />
<glyph horiz-adv-x="1058" d="M39 121l53 67q156 -103 301 -125l90 512q-47 20 -74.5 32.5t-65.5 33.5t-60 42t-43.5 49.5t-31 64.5t-9.5 80q0 148 109.5 232.5t273.5 84.5h12l27 152h69l-28 -158q148 -18 303 -107l-52 -61q-132 70 -264 90l-84 -469q60 -24 97.5 -42t83 -47.5t71 -60t43 -75.5 t17.5 -99q0 -81 -35.5 -146.5t-94.5 -106t-132 -61.5t-152 -21h-12l-27 -150h-72l27 156q-170 22 -340 133zM289 879q0 -80 48 -122t163 -89l80 448h-5q-118 0 -202 -63t-84 -174zM463 59h4q133 0 227 68.5t94 181.5q0 47 -17 83.5t-53 65t-73.5 48t-95.5 43.5z" />
<glyph horiz-adv-x="1054" d="M180 788l152 861h86l176 -625l403 625h88l-151 -861h-82l125 709l-367 -565h-55l-166 579l-127 -723h-82z" />
<glyph horiz-adv-x="1054" d="M-12 -307l151 860h86l176 -625l404 625h88l-152 -860h-82l125 708l-366 -565h-56l-165 580l-127 -723h-82z" />
<glyph horiz-adv-x="1294" d="M66 319l12 72h246l129 391h-236l12 72h246l107 322h75l-106 -322h352l107 322h75l-106 -322h238l-13 -72h-248l-129 -391h240l-12 -72h-252l-105 -319h-73l104 319h-352l-105 -319h-75l104 319h-235zM399 391h353l129 391h-353z" />
<glyph horiz-adv-x="937" d="M-39 -80l12 66h174l89 272h-164l10 66h176l76 229h67l-75 -229h241l74 229h68l-74 -229h168l-12 -66h-179l-88 -272h168l-12 -66h-176l-74 -227h-68l74 227h-243l-74 -227h-68l74 227h-164zM215 -14h242l88 272h-242z" />
<glyph horiz-adv-x="935" d="M154 1016l12 65h174l88 273h-164l10 65h177l75 230h68l-76 -230h242l74 230h67l-74 -230h168l-12 -65h-178l-88 -273h168l-13 -65h-176l-73 -228h-68l74 228h-244l-74 -228h-67l73 228h-163zM408 1081h241l88 273h-241z" />
<glyph horiz-adv-x="1415" d="M90 0l207 1176h94l256 -879l574 879h96l-207 -1176h-88l178 1012l-530 -815h-70l-242 829l-180 -1026h-88z" />
<glyph horiz-adv-x="698" d="M180 788l152 861h82l-140 -789h414l-12 -72h-496z" />
<glyph horiz-adv-x="884" d="M49 414l17 92l137 69l106 601h88l-98 -551l252 127l-16 -93l-252 -129l-80 -452h577l-12 -78h-666l84 483z" />
<glyph horiz-adv-x="698" d="M-12 -307l151 860h82l-139 -789h414l-13 -71h-495z" />
<glyph horiz-adv-x="917" d="M90 0l207 1176h88l-195 -1098h578l-12 -78h-666zM625 532l28 160h119l-29 -160h-118z" />
<glyph horiz-adv-x="913" d="M90 0l207 1176h88l-195 -1098h578l-12 -78h-666zM264 -483l105 180h-58l29 166h117l-11 -166l-147 -221z" />
<glyph horiz-adv-x="1566" d="M188 1176h93l86 -1070l462 1070h95l82 -1080l462 1080h99l-523 -1176h-102l-84 1053l-459 -1053h-100zM653 1288l224 256h131l135 -256h-68l-139 191l-203 -191h-80z" />
<glyph horiz-adv-x="913" d="M90 0l207 1176h88l-195 -1098h578l-12 -78h-666zM403 829l105 181h-57l28 166h117l-10 -166l-148 -222z" />
<glyph horiz-adv-x="913" d="M90 0l207 1176h88l-195 -1098h578l-12 -78h-666zM229 1288l260 256h168l-346 -256h-82z" />
<glyph horiz-adv-x="757" d="M-23 -59q0 178 92 294.5t236 116.5q129 0 196.5 -68t67.5 -194q0 -178 -91.5 -295t-235.5 -117q-128 0 -196.5 68t-68.5 195zM57 -55q0 -94 40.5 -146.5t146.5 -52.5q109 0 177 102t68 238q0 94 -40 146.5t-144 52.5q-74 0 -132 -49.5t-87 -126.5t-29 -164z" />
<glyph horiz-adv-x="913" d="M90 0l207 1176h88l-195 -1098h578l-12 -78h-666z" />
<glyph horiz-adv-x="815" d="M180 788l152 861h82l-88 -494l487 494h105l-412 -416l299 -445h-90l-264 390l-148 -150l-41 -240h-82z" />
<glyph horiz-adv-x="536" d="M78 752l213 108h71l-151 -860h-82l137 770l-160 -82z" />
<glyph horiz-adv-x="534" d="M178 1325l213 109h72l-152 -861h-82l138 770l-160 -81z" />
<glyph horiz-adv-x="647" d="M139 1004l326 172h76l-207 -1176h-90l188 1067l-260 -139z" />
<glyph d="M82 0l14 82h383l219 1243l-374 -199l-31 74l438 234h76l-238 -1352h387l-14 -82h-860z" />
<glyph horiz-adv-x="755" d="M-27 -94q0 192 83 319t212 127q103 0 211 -108l62 344h80l-158 -895h-80l18 102q-126 -117 -245 -117q-77 0 -130 55.5t-53 172.5zM55 -88q0 -77 29.5 -121.5t85.5 -44.5q65 0 123.5 34.5t122.5 94.5l53 301q-97 109 -190 109q-67 0 -119 -55.5t-78.5 -139.5t-26.5 -178z " />
</font>
</defs>
</svg>
