<?xml version="1.0" standalone="no"?>
<!DOCTYPE svg PUBLIC "-//W3C//DTD SVG 1.1//EN" "http://www.w3.org/Graphics/SVG/1.1/DTD/svg11.dtd" >
<svg xmlns="http://www.w3.org/2000/svg">
<metadata></metadata>
<defs>
<font id="verbexcondblack" horiz-adv-x="1146" >
<font-face units-per-em="2048" ascent="1638" descent="-410" />
<missing-glyph horiz-adv-x="436" />
<glyph unicode="ff" horiz-adv-x="1460" d="M33 801v274h119q0 211 74.5 314.5t236.5 103.5q157 0 350 -94l-111 -248q-90 35 -133 35q-11 0 -19.5 -2.5t-18.5 -10t-15.5 -26.5t-5.5 -47v-25h199v-274h-199v-801h-358v801h-119zM764 801v274h119q0 211 74.5 314.5t236.5 103.5q157 0 350 -94l-121 -248 q-85 35 -123 35q-11 0 -19.5 -2.5t-18.5 -10t-15.5 -26.5t-5.5 -47v-25h199v-274h-199v-801h-358v801h-119z" />
<glyph unicode="fi" horiz-adv-x="1271" d="M33 801v274h119q0 211 74.5 314.5t236.5 103.5q71 0 146.5 -24t129.5 -52l-73 -258q-70 27 -97 27q-11 0 -19.5 -2.5t-18.5 -10t-15.5 -26.5t-5.5 -47v-25h199v-274h-199v-801h-358v801h-119zM817 1192v295h371v-295h-371zM823 0v1075h359v-1075h-359z" />
<glyph unicode="fl" horiz-adv-x="1271" d="M33 801v274h119q0 211 74.5 314.5t236.5 103.5q71 0 146.5 -24t129.5 -52l-73 -258q-70 27 -97 27q-11 0 -19.5 -2.5t-18.5 -10t-15.5 -26.5t-5.5 -47v-25h199v-274h-199v-801h-358v801h-119zM823 0v1493h359v-1493h-359z" />
<glyph unicode="ffi" horiz-adv-x="2002" d="M33 801v274h119q0 211 74.5 314.5t236.5 103.5q157 0 350 -94l-111 -248q-90 35 -133 35q-11 0 -19.5 -2.5t-18.5 -10t-15.5 -26.5t-5.5 -47v-25h199v-274h-199v-801h-358v801h-119zM764 801v274h119q0 211 74.5 314.5t236.5 103.5q71 0 146.5 -24t129.5 -52l-73 -258 q-70 27 -97 27q-11 0 -19.5 -2.5t-18.5 -10t-15.5 -26.5t-5.5 -47v-25h199v-274h-199v-801h-358v801h-119zM1546 1192v295h371v-295h-371zM1552 0v1075h359v-1075h-359z" />
<glyph unicode="ffl" horiz-adv-x="2002" d="M33 801v274h119q0 211 74.5 314.5t236.5 103.5q157 0 350 -94l-111 -248q-90 35 -133 35q-11 0 -19.5 -2.5t-18.5 -10t-15.5 -26.5t-5.5 -47v-25h199v-274h-199v-801h-358v801h-119zM764 801v274h119q0 211 74.5 314.5t236.5 103.5q71 0 146.5 -24t129.5 -52l-73 -258 q-70 27 -97 27q-11 0 -19.5 -2.5t-18.5 -10t-15.5 -26.5t-5.5 -47v-25h199v-274h-199v-801h-358v801h-119zM1552 0v1493h359v-1493h-359z" />
<glyph unicode="ffk" horiz-adv-x="2539" d="M33 801v274h119q0 211 74.5 314.5t236.5 103.5q157 0 350 -94l-111 -248q-90 35 -133 35q-11 0 -19.5 -2.5t-18.5 -10t-15.5 -26.5t-5.5 -47v-25h199v-274h-199v-801h-358v801h-119zM764 801v274h119q0 211 74.5 314.5t236.5 103.5q71 0 146.5 -24t129.5 -52l-73 -258 q-70 27 -97 27q-11 0 -19.5 -2.5t-18.5 -10t-15.5 -26.5t-5.5 -47v-25h199v-274h-199v-801h-358v801h-119zM1550 0v1493h359v-745l186 327h412l-307 -424l356 -651h-377l-188 365l-82 -115v-250h-359z" />
<glyph unicode="ffj" horiz-adv-x="2000" d="M33 801v274h119q0 211 74.5 314.5t236.5 103.5q157 0 350 -94l-111 -248q-90 35 -133 35q-11 0 -19.5 -2.5t-18.5 -10t-15.5 -26.5t-5.5 -47v-25h199v-274h-199v-801h-358v801h-119zM764 801v274h119q0 211 74.5 314.5t236.5 103.5q71 0 146.5 -24t129.5 -52l-73 -258 q-70 27 -97 27q-11 0 -19.5 -2.5t-18.5 -10t-15.5 -26.5t-5.5 -47v-25h199v-274h-199v-801h-358v801h-119zM1356 -209q38 16 64.5 27.5t48 26t34.5 23.5t23 26t14.5 27t6.5 34t2.5 38.5t0.5 49.5v1032h359v-1001q0 -66 -0.5 -97.5t-4 -82t-12 -75t-22.5 -62t-36.5 -58 t-55 -48.5t-76.5 -47t-101.5 -40.5t-130.5 -42.5zM1544 1192v295h371v-295h-371z" />
<glyph unicode="fft" horiz-adv-x="2263" d="M33 801v274h119q0 211 74.5 314.5t236.5 103.5q157 0 350 -94l-111 -248q-90 35 -133 35q-11 0 -19.5 -2.5t-18.5 -10t-15.5 -26.5t-5.5 -47v-25h199v-274h-199v-801h-358v801h-119zM764 801v274h119q0 211 74.5 314.5t236.5 103.5q157 0 350 -94l-121 -248 q-85 35 -123 35q-11 0 -19.5 -2.5t-18.5 -10t-15.5 -26.5t-5.5 -47v-25h199v-274h-199v-801h-358v801h-119zM1495 801v274h119v254l358 57v-311h236v-274h-236v-402q0 -31 6 -51.5t16.5 -29t19 -11t20.5 -2.5q37 0 110 41l121 -274q-190 -95 -332 -95q-168 0 -243.5 100.5 t-75.5 307.5v416h-119z" />
<glyph unicode="fh" horiz-adv-x="1857" d="M33 801v274h119q0 211 74.5 314.5t236.5 103.5q71 0 146.5 -24t129.5 -52l-73 -258q-70 27 -97 27q-11 0 -19.5 -2.5t-18.5 -10t-15.5 -26.5t-5.5 -47v-25h199v-274h-199v-801h-358v801h-119zM821 0v1493h359v-532q85 66 158 101.5t165 35.5q135 0 203 -85.5t68 -246.5 v-766h-359v684q0 123 -74 123q-41 0 -84.5 -34.5t-76.5 -78.5v-694h-359z" />
<glyph unicode="fj" horiz-adv-x="1269" d="M33 801v274h119q0 211 74.5 314.5t236.5 103.5q71 0 146.5 -24t129.5 -52l-73 -258q-70 27 -97 27q-11 0 -19.5 -2.5t-18.5 -10t-15.5 -26.5t-5.5 -47v-25h199v-274h-199v-801h-358v801h-119zM627 -209q38 16 64.5 27.5t48 26t34.5 23.5t23 26t14.5 27t6.5 34t2.5 38.5 t0.5 49.5v1032h359v-1001q0 -66 -0.5 -97.5t-4 -82t-12 -75t-22.5 -62t-36.5 -58t-55 -48.5t-76.5 -47t-101.5 -40.5t-130.5 -42.5zM815 1192v295h371v-295h-371z" />
<glyph unicode="fk" horiz-adv-x="1808" d="M33 801v274h119q0 211 74.5 314.5t236.5 103.5q71 0 146.5 -24t129.5 -52l-73 -258q-70 27 -97 27q-11 0 -19.5 -2.5t-18.5 -10t-15.5 -26.5t-5.5 -47v-25h199v-274h-199v-801h-358v801h-119zM821 0v1493h359v-745l186 327h412l-308 -424l357 -651h-377l-188 365 l-82 -115v-250h-359z" />
<glyph unicode="ft" horiz-adv-x="1529" d="M33 801v274h119q0 211 74.5 314.5t236.5 103.5q157 0 350 -94l-121 -248q-85 35 -123 35q-11 0 -19.5 -2.5t-18.5 -10t-15.5 -26.5t-5.5 -47v-25h199v-274h-199v-801h-358v801h-119zM762 801v274h119v254l358 57v-311h236v-274h-236v-402q0 -41 11 -63t22.5 -26.5 t27.5 -4.5q38 0 111 41l121 -274q-190 -95 -332 -95q-168 0 -243.5 100.5t-75.5 307.5v416h-119z" />
<glyph unicode="ffh" horiz-adv-x="2588" d="M33 801v274h119q0 211 74.5 314.5t236.5 103.5q157 0 350 -94l-111 -248q-90 35 -133 35q-11 0 -19.5 -2.5t-18.5 -10t-15.5 -26.5t-5.5 -47v-25h199v-274h-199v-801h-358v801h-119zM764 801v274h119q0 211 74.5 314.5t236.5 103.5q71 0 146.5 -24t129.5 -52l-73 -258 q-70 27 -97 27q-11 0 -19.5 -2.5t-18.5 -10t-15.5 -26.5t-5.5 -47v-25h199v-274h-199v-801h-358v801h-119zM1550 0v1493h359v-532q85 66 158 101.5t165 35.5q135 0 203 -85.5t68 -246.5v-766h-359v684q0 123 -73 123q-41 0 -85 -34.5t-77 -78.5v-694h-359z" />
<glyph unicode="ffb" horiz-adv-x="2586" d="M33 801v274h119q0 211 74.5 314.5t236.5 103.5q157 0 350 -94l-111 -248q-90 35 -133 35q-11 0 -19.5 -2.5t-18.5 -10t-15.5 -26.5t-5.5 -47v-25h199v-274h-199v-801h-358v801h-119zM764 801v274h119q0 211 74.5 314.5t236.5 103.5q71 0 146.5 -24t129.5 -52l-73 -258 q-70 27 -97 27q-11 0 -19.5 -2.5t-18.5 -10t-15.5 -26.5t-5.5 -47v-25h199v-274h-199v-801h-358v801h-119zM1550 0v1493h359v-524q68 65 129 97t147 32q166 0 258 -144.5t92 -416.5q0 -271 -92 -415.5t-258 -144.5q-86 0 -147.5 31.5t-128.5 95.5v-104h-359zM1909 393 q68 -114 149 -114q115 0 115 260q0 258 -115 258q-81 0 -149 -117v-287z" />
<glyph unicode="fb" horiz-adv-x="1857" d="M33 801v274h119q0 211 74.5 314.5t236.5 103.5q71 0 146.5 -24t129.5 -52l-73 -258q-70 27 -97 27q-11 0 -19.5 -2.5t-18.5 -10t-15.5 -26.5t-5.5 -47v-25h199v-274h-199v-801h-358v801h-119zM821 0v1493h359v-524q68 65 129 97t147 32q166 0 258 -144.5t92 -416.5 q0 -271 -92 -415.5t-258 -144.5q-86 0 -147.5 31.5t-128.5 95.5v-104h-359zM1180 393q68 -114 149 -114q115 0 115 260q0 258 -115 258q-81 0 -149 -117v-287z" />
<glyph unicode=" "  horiz-adv-x="436" />
<glyph unicode="&#x09;" horiz-adv-x="436" />
<glyph unicode="&#xa0;" horiz-adv-x="436" />
<glyph unicode="!" horiz-adv-x="595" d="M78 1434h438l-110 -949h-216zM123 0v362h350v-362h-350z" />
<glyph unicode="&#x22;" horiz-adv-x="837" d="M59 1434h330l-57 -578h-217zM451 1434h329l-57 -578h-217z" />
<glyph unicode="#" horiz-adv-x="1247" d="M59 295v280h197l35 283h-164v283h199l36 293h271l-37 -293h160l37 293h270l-37 -293h162v-283h-197l-35 -283h164v-280h-198l-35 -295h-273l37 295h-159l-37 -295h-271l37 295h-162zM526 575h160l35 283h-160z" />
<glyph unicode="$" horiz-adv-x="1181" d="M53 180l168 275q88 -56 209 -104t195 -48q47 0 76.5 21t29.5 61q0 29 -17.5 52t-54.5 43.5t-76.5 38t-102.5 46.5t-113 56q-46 26 -82.5 51t-77 63.5t-67.5 80t-44.5 99t-17.5 121.5q0 165 102 280t295 136v188h254v-202q184 -36 369 -138l-170 -280q-81 43 -179.5 76.5 t-164.5 33.5q-49 0 -80 -20t-31 -59q0 -29 18.5 -52t56 -44t77.5 -38t101 -44t108 -52q46 -26 80 -49t76.5 -62t70 -80t46.5 -100.5t19 -126.5q0 -166 -101.5 -283t-295.5 -138v-187h-254v201q-122 25 -233 75t-189 109z" />
<glyph unicode="%" horiz-adv-x="1748" d="M49 1071q0 179 88 282t260 103t261.5 -103.5t89.5 -281.5t-89 -280.5t-262 -102.5q-172 0 -260 102t-88 281zM305 1071q0 -80 22 -119t70 -39q95 0 95 158q0 162 -95 162q-48 0 -70 -40.5t-22 -121.5zM440 0l598 1434h269l-598 -1434h-269zM1001 360q0 179 88.5 282 t260.5 103q174 0 262 -103t88 -282t-88 -281t-262 -102q-172 0 -260.5 102t-88.5 281zM1257 360q0 -79 22 -118t71 -39q50 0 73 39t23 118q0 162 -96 162q-93 0 -93 -162z" />
<glyph unicode="&#x26;" horiz-adv-x="1308" d="M86 360q0 119 62.5 212.5t170.5 179.5q-72 89 -110.5 171.5t-38.5 178.5q0 158 108.5 256t288.5 98q181 0 285 -97.5t104 -238.5q0 -109 -60 -201t-167 -190l139 -164q30 96 33 191h354q-11 -104 -54 -224t-114 -227l259 -305h-404l-70 84q-159 -107 -354 -107 q-190 0 -311 108.5t-121 274.5zM432 375q0 -49 33 -85t84 -36q66 0 137 53l-178 217q-76 -79 -76 -149zM479 1090q0 -70 74 -158q92 82 92 160q0 40 -21 71t-59 31q-40 0 -63 -32t-23 -72z" />
<glyph unicode="'" horiz-adv-x="446" d="M59 1434h330l-57 -578h-217z" />
<glyph unicode="(" horiz-adv-x="651" d="M92 256v911q0 59 0.5 87.5t3 76t8.5 70.5t17 59.5t27.5 56t40.5 47.5t56.5 45t75.5 38t97 38t121 33l86 -205q-47 -21 -76 -40.5t-46.5 -37t-25.5 -45t-10 -51.5t-2 -69v-1114q0 -45 2 -69t10 -51.5t25.5 -45.5t46.5 -37.5t76 -40.5l-86 -205q-67 16 -121 33t-97 38 t-75.5 38t-56.5 45t-40.5 47t-27.5 56t-17 60t-8.5 70t-3 75.5t-0.5 86.5z" />
<glyph unicode=")" horiz-adv-x="651" d="M27 -88q47 21 76 40.5t46.5 37.5t25 45.5t9.5 51t2 69.5v1114q0 38 -1 58.5t-6 46t-14.5 40t-27.5 32.5t-44.5 33t-65.5 33l86 205q83 -20 147 -41t111 -49t79 -50.5t53 -62.5t32.5 -66.5t16.5 -82.5t6 -90t1 -107v-911q0 -74 -1 -108t-6 -90t-16.5 -82.5t-32.5 -67 t-53 -62.5t-79 -50.5t-111 -49.5t-147 -41z" />
<glyph unicode="*" horiz-adv-x="919" d="M55 971l316 63l-316 66l148 254l213 -244l-103 307h295l-104 -307l211 244l147 -256l-299 -62l299 -65l-147 -256l-205 229l98 -295h-295l103 307l-213 -241z" />
<glyph unicode="+" horiz-adv-x="1163" d="M137 545v276h305v322h277v-322h305v-276h-305v-322h-277v322h-305z" />
<glyph unicode="," horiz-adv-x="534" d="M88 0v397h352l19 -448l-283 -309l-88 122l156 238h-156z" />
<glyph unicode="-" horiz-adv-x="774" d="M90 434v299h594v-299h-594z" />
<glyph unicode="." horiz-adv-x="528" d="M88 0v397h352v-397h-352z" />
<glyph unicode="/" horiz-adv-x="862" d="M31 -184l540 1802h263l-541 -1802h-262z" />
<glyph unicode="0" horiz-adv-x="1222" d="M68 717q0 356 136 547.5t408 191.5t408.5 -192t136.5 -547t-137.5 -547.5t-409.5 -192.5t-407 192t-135 548zM444 717q0 -237 40.5 -337.5t125.5 -100.5t126.5 100t41.5 338q0 237 -40.5 336.5t-125.5 99.5q-57 0 -92.5 -40t-55.5 -137.5t-20 -258.5z" />
<glyph unicode="1" horiz-adv-x="829" d="M-8 1198l358 236h357v-1434h-373v1075l-193 -121z" />
<glyph unicode="2" horiz-adv-x="1120" d="M49 0v160q0 81 22 157.5t55.5 135.5t84 117t95 98t100.5 84q19 15 58 45t56.5 44t46.5 38.5t42 40t29 36t22 39.5t6 39q0 42 -29 70.5t-86 28.5q-105 0 -303 -129l-168 245q38 32 82 61.5t113 65.5t156 58t177 22q110 0 195 -33.5t136 -91t77 -128.5t26 -152 q0 -64 -15.5 -123.5t-46 -110t-61.5 -90.5t-76.5 -80t-74.5 -63t-72 -54q-113 -90 -138 -116q-52 -52 -52 -90h538v-324h-995z" />
<glyph unicode="3" horiz-adv-x="1114" d="M20 174l168 260q218 -127 342 -127q68 0 107 33.5t39 93.5q0 40 -21 70t-51 46t-73 25.5t-76 12t-70 2.5h-49v321h59q36 0 71.5 5t74.5 17.5t63.5 40t24.5 66.5q0 38 -25.5 64t-79.5 26q-118 0 -297 -114l-155 239q250 201 522 201q200 0 303.5 -99.5t103.5 -252.5 q0 -198 -180 -313q102 -42 167 -142t65 -227q0 -85 -24.5 -160.5t-77 -141t-147 -104.5t-220.5 -39q-292 0 -564 197z" />
<glyph unicode="4" horiz-adv-x="1247" d="M31 250v268l501 916h496v-861h176v-323h-176v-250h-373v250h-624zM379 573h276v506z" />
<glyph unicode="5" horiz-adv-x="1114" d="M37 176l170 275q37 -28 62.5 -45.5t69 -43t87.5 -38.5t86 -13q73 0 118.5 44t45.5 118q0 69 -41 118.5t-125 49.5q-89 0 -203 -74l-207 129l64 738h844v-324h-523l-6 -168q72 14 129 14q90 0 164.5 -26t126 -71t86.5 -106.5t51.5 -130.5t16.5 -145q0 -101 -29.5 -189 t-87 -158.5t-153 -111.5t-218.5 -41q-88 0 -174 21t-155 55t-114.5 63t-84.5 60z" />
<glyph unicode="6" d="M61 604q0 250 95.5 443.5t270.5 301t404 107.5q53 0 102 -5.5t72 -10.5l23 -6l-86 -306q-49 11 -106 11q-54 0 -105 -15.5t-100.5 -48.5t-90.5 -93t-65 -142q98 90 240 90q167 0 277 -123t110 -322q0 -143 -58 -257t-173.5 -182.5t-270.5 -68.5q-110 0 -200 33t-152 90.5 t-104.5 137.5t-62 171.5t-20.5 194.5zM440 553q1 -71 15 -123.5t37.5 -80.5t48.5 -41t53 -13q70 0 102.5 51.5t32.5 120.5q0 77 -37 125.5t-102 48.5q-92 0 -150 -88z" />
<glyph unicode="7" horiz-adv-x="962" d="M43 1110v324h899v-304q-17 -24 -45 -66.5t-99.5 -173t-126.5 -258.5t-100 -303.5t-45 -328.5h-385q0 123 26 256t71 251t89.5 217.5t97 188.5t77 128t45.5 69h-504z" />
<glyph unicode="8" horiz-adv-x="1189" d="M57 387q0 72 20.5 134t58 109.5t80 82.5t97.5 67q-178 129 -178 322q0 157 120 255.5t339 98.5q220 0 340.5 -98.5t120.5 -255.5q0 -190 -181 -322q118 -68 188.5 -161.5t70.5 -231.5q0 -188 -139 -299t-400 -111q-259 0 -398 111t-139 299zM434 416q0 -64 43 -105 t117 -41q75 0 118.5 41t43.5 105q0 67 -42 117t-120 96q-77 -46 -118.5 -96t-41.5 -117zM487 1069q0 -95 107 -156q106 63 106 156q0 40 -26.5 72.5t-79.5 32.5q-52 0 -79.5 -33t-27.5 -72z" />
<glyph unicode="9" d="M45 948q0 143 58 257t173.5 182.5t270.5 68.5q110 0 200 -33t152 -90.5t104 -137.5t61 -171.5t19 -194.5q1 -250 -94 -443.5t-270 -301t-404 -107.5q-53 0 -102 5.5t-71 11.5l-23 6l86 305q47 -10 106 -10q74 0 139.5 25.5t127 94.5t94.5 177q-101 -88 -240 -88 q-167 0 -277 122.5t-110 321.5zM418 967q0 -77 37 -125.5t102 -48.5q91 0 150 88q-3 135 -49.5 196.5t-104.5 61.5q-70 0 -102.5 -51.5t-32.5 -120.5z" />
<glyph unicode=":" horiz-adv-x="563" d="M106 0v397h353v-397h-353zM106 610v398h353v-398h-353z" />
<glyph unicode=";" horiz-adv-x="573" d="M106 0v397h353l18 -448l-282 -309l-89 122l156 238h-156zM106 610v398h353v-398h-353z" />
<glyph unicode="&#x3c;" horiz-adv-x="1163" d="M115 557v252l882 414v-336l-501 -205l501 -207v-332z" />
<glyph unicode="=" horiz-adv-x="1163" d="M137 344v281h887v-281h-887zM137 745v281h887v-281h-887z" />
<glyph unicode="&#x3e;" horiz-adv-x="1163" d="M166 143v336l502 205l-502 207v332l883 -414v-252z" />
<glyph unicode="?" horiz-adv-x="974" d="M43 1290q226 166 453 166q190 0 309 -105.5t119 -275.5q0 -76 -25 -142t-63 -112t-95 -86t-109.5 -65.5t-117.5 -48.5l-14 -136h-215l-19 334q157 44 219 87t62 112q0 46 -28 80.5t-89 34.5q-98 0 -229 -97zM215 0v362h352v-362h-352z" />
<glyph unicode="@" horiz-adv-x="1626" d="M59 518q0 193 52.5 356t149.5 281t242.5 184t323.5 66q174 0 313 -66t230 -184t139.5 -279.5t49.5 -355.5q0 -119 -16.5 -217.5t-54.5 -186.5t-111 -138t-175 -50q-54 0 -98.5 17.5t-72.5 44t-49 61.5t-31 65.5t-15 61.5q-119 -133 -262 -133q-124 0 -199.5 83t-75.5 226 q0 148 80.5 229t210.5 81q31 0 71 -5.5t62.5 -10.5t65.5 -16t45 -11v71q0 80 -27.5 113t-93.5 33q-120 0 -278 -76l-82 184q237 96 411 96q168 0 244 -85t76 -273v-305q0 -48 1 -79.5t3.5 -68t8.5 -59t15.5 -42.5t24.5 -29t35 -9q74 0 121 110t47 326q-1 158 -39 293.5 t-111.5 240.5t-192.5 165.5t-270 60.5q-157 0 -282 -59.5t-205 -164t-122 -244t-42 -302.5q0 -221 71 -394.5t207.5 -273.5t317.5 -100q88 0 166.5 21t113.5 42l35 21l66 -96q-5 -4 -15.5 -11t-47.5 -25.5t-78.5 -32t-108.5 -25t-139 -11.5q-207 0 -368 114t-249 315.5 t-88 455.5zM655 379q0 -65 27.5 -97t73.5 -32q86 0 178 102v135q-121 31 -160 31q-60 0 -89.5 -37t-29.5 -102z" />
<glyph unicode="A" horiz-adv-x="1267" d="M0 0l426 1434h414l426 -1434h-402l-53 240h-356l-52 -240h-403zM522 545h221l-110 497z" />
<glyph unicode="B" horiz-adv-x="1236" d="M111 0v1434h520q502 0 502 -349q0 -70 -20 -129.5t-51 -97t-64.5 -60.5t-65.5 -30q37 -6 78.5 -29.5t84.5 -66.5t71 -118t28 -167q0 -185 -119 -286t-373 -101h-591zM485 299h136q204 0 204 156q0 83 -51.5 120t-157.5 37h-131v-313zM485 889h115q84 0 124 30.5t40 94.5 q0 62 -39.5 91.5t-122.5 29.5h-117v-246z" />
<glyph unicode="C" horiz-adv-x="1142" d="M59 717q0 365 137 552t375 187q137 0 261 -47.5t292 -140.5l-166 -289q-121 64 -195.5 94.5t-135.5 30.5q-94 0 -139.5 -102.5t-45.5 -284.5t45.5 -284.5t139.5 -102.5q61 0 135.5 30.5t195.5 94.5l166 -289q-83 -46 -137 -73t-128 -57.5t-144.5 -44.5t-143.5 -14 q-238 0 -375 187.5t-137 552.5z" />
<glyph unicode="D" horiz-adv-x="1288" d="M111 0v1434h456q333 0 496.5 -170.5t163.5 -546.5t-163.5 -546.5t-496.5 -170.5h-456zM485 332h68q74 0 126 16.5t94 57.5t62.5 118.5t20.5 192.5t-20.5 192.5t-62.5 118.5t-94 57.5t-126 16.5h-68v-770z" />
<glyph unicode="E" horiz-adv-x="1103" d="M111 0v1434h919v-332h-545v-223h441v-324h-441v-223h553v-332h-927z" />
<glyph unicode="F" horiz-adv-x="1056" d="M111 0v1434h919v-332h-545v-223h426v-326h-426v-553h-374z" />
<glyph unicode="G" horiz-adv-x="1245" d="M59 719q0 363 140.5 550t382.5 187q144 0 276 -49t301 -141l-164 -289q-93 46 -140.5 67.5t-109.5 40.5t-108 19q-195 0 -195 -402q0 -393 189 -393q100 0 194 135v97h-229v307h573v-848h-344v121q-137 -144 -293 -144q-97 0 -181.5 46.5t-150 135.5t-103.5 233t-38 327z " />
<glyph unicode="H" horiz-adv-x="1302" d="M111 0v1434h374v-519h332v519h373v-1434h-373v590h-332v-590h-374z" />
<glyph unicode="I" horiz-adv-x="595" d="M111 0v1434h374v-1434h-374z" />
<glyph unicode="J" horiz-adv-x="593" d="M-82 -111q37 15 64.5 27t48.5 26t34.5 23.5t23 26t14 26.5t7 32t3 36t0.5 45v1303h372v-1280q0 -74 -1 -108t-6 -89t-16.5 -81t-32.5 -65.5t-53 -61.5t-79 -51t-110.5 -51t-147.5 -46z" />
<glyph unicode="K" horiz-adv-x="1275" d="M111 0v1434h374v-527l342 527h455l-481 -650l483 -784h-442l-271 471l-86 -117v-354h-374z" />
<glyph unicode="L" horiz-adv-x="1036" d="M111 0v1434h374v-1102h527v-332h-901z" />
<glyph unicode="M" horiz-adv-x="1513" d="M111 0v1434h378l267 -711l268 711h379v-1434h-373v745l-186 -505h-174l-185 499v-739h-374z" />
<glyph unicode="N" horiz-adv-x="1329" d="M111 0v1434h376l357 -768v768h373v-1434h-375l-357 768v-768h-374z" />
<glyph unicode="O" horiz-adv-x="1347" d="M55 717q0 128 21 237t67.5 202.5t117.5 159.5t176 103t237 37t237 -37t175.5 -103t117.5 -159.5t67.5 -202.5t20.5 -237t-20.5 -237t-67.5 -203t-117.5 -159.5t-175.5 -103t-237 -37.5t-237 37.5t-176 103t-118 159.5t-67.5 203t-20.5 237zM438 717q0 -126 21 -213 t75 -140t140 -53q65 0 111.5 29t73 84.5t38.5 127t12 165.5q0 192 -54.5 298.5t-180.5 106.5q-236 0 -236 -405z" />
<glyph unicode="P" horiz-adv-x="1212" d="M111 0v1434h514q287 0 419 -124t132 -358q0 -233 -132 -355t-419 -122h-140v-475h-374zM485 795h127q90 0 138.5 33.5t48.5 123.5t-49 124t-138 34h-127v-315z" />
<glyph unicode="Q" horiz-adv-x="1347" d="M55 717q0 128 21 237t67.5 202.5t117.5 159.5t176 103t237 37t237 -37t175.5 -103t117.5 -159.5t67.5 -202.5t20.5 -237q0 -464 -262 -643l195 -178l-244 -265l-307 346q-132 0 -237 37.5t-176 103t-118 159.5t-67.5 203t-20.5 237zM438 717q0 -126 21 -213t75 -140 t140 -53q65 0 111.5 29t73 84.5t38.5 127t12 165.5q0 192 -54.5 298.5t-180.5 106.5q-236 0 -236 -405z" />
<glyph unicode="R" horiz-adv-x="1263" d="M111 0v1434h548q291 0 421 -114t130 -343q0 -167 -66.5 -272t-211.5 -150l280 -555h-401l-246 520h-80v-520h-374zM485 825h164q89 0 137 32.5t48 119.5t-47.5 119t-137.5 32h-164v-303z" />
<glyph unicode="S" horiz-adv-x="1150" d="M35 180l168 275q88 -56 208.5 -104t194.5 -48q47 0 77 21t30 61q0 29 -17.5 52t-55 43.5t-77 38t-102.5 46t-113 56.5q-46 26 -82.5 51t-77 63.5t-67.5 80t-44.5 99t-17.5 121.5q0 87 30 162.5t87.5 133.5t150.5 91t210 33q140 0 281.5 -44.5t260.5 -111.5l-170 -280 q-81 43 -179.5 76.5t-164.5 33.5q-49 0 -79.5 -20t-30.5 -59q0 -35 32.5 -65t75 -49t120.5 -53t132 -63q46 -26 80 -49t77 -62t70.5 -80t46.5 -100.5t19 -126.5q0 -87 -29.5 -162.5t-86 -135t-149 -94t-210.5 -34.5q-164 0 -325 60.5t-273 142.5z" />
<glyph unicode="T" horiz-adv-x="1064" d="M27 1102v332h1011v-332h-315v-1102h-375v1102h-321z" />
<glyph unicode="U" horiz-adv-x="1284" d="M98 569v865h375v-902q0 -50 6.5 -87t24 -69t52 -48.5t85.5 -16.5q52 0 86.5 16.5t52 48.5t24.5 68.5t7 87.5v902h373v-865q0 -107 -12.5 -188.5t-47.5 -160.5t-94 -130t-157.5 -82t-231.5 -31t-231 31t-157 82t-94.5 129.5t-48 161t-12.5 188.5z" />
<glyph unicode="V" horiz-adv-x="1263" d="M-2 1434h422l211 -942l213 942h420l-426 -1434h-414z" />
<glyph unicode="W" horiz-adv-x="1722" d="M14 1434h420l125 -818l162 818h280l162 -820l125 820h422l-330 -1434h-354l-166 815l-162 -815h-354z" />
<glyph unicode="X" horiz-adv-x="1206" d="M-10 0l383 731l-363 703h426l166 -430l166 430h428l-365 -703l386 -731h-439l-176 414l-174 -414h-438z" />
<glyph unicode="Y" horiz-adv-x="1189" d="M-8 1434h418l184 -473l186 473h416l-416 -867v-567h-372v571z" />
<glyph unicode="Z" horiz-adv-x="1134" d="M49 0v297l543 805h-506v332h979v-295l-543 -807h551v-332h-1024z" />
<glyph unicode="[" horiz-adv-x="696" d="M109 -293v2011h555v-213h-183v-1585h183v-213h-555z" />
<glyph unicode="\" horiz-adv-x="862" d="M27 1618h262l542 -1802h-264z" />
<glyph unicode="]" horiz-adv-x="696" d="M33 -80h182v1585h-182v213h555v-2011h-555v213z" />
<glyph unicode="^" horiz-adv-x="1163" d="M88 641l309 793h369l309 -793h-377l-118 406l-117 -406h-375z" />
<glyph unicode="_" horiz-adv-x="1236" d="M84 -133h1067v-264h-1067v264z" />
<glyph unicode="`" horiz-adv-x="432" d="M-78 1493h375l213 -293h-291z" />
<glyph unicode="a" horiz-adv-x="1081" d="M37 334q0 160 92 252t250 92q98 0 262 -45v57q0 70 -28 97.5t-99 27.5q-55 0 -123 -16t-186 -56l-111 254q276 101 500 101q218 0 311.5 -95.5t93.5 -320.5v-682h-358v117q-132 -140 -289 -140q-147 0 -231 100.5t-84 256.5zM399 371q0 -52 23 -79.5t63 -27.5 q76 0 156 86v107q-91 26 -137 26q-48 0 -76.5 -28t-28.5 -84z" />
<glyph unicode="b" horiz-adv-x="1126" d="M90 0v1493h359v-524q68 65 129 97t147 32q166 0 258 -144.5t92 -416.5q0 -271 -92 -415.5t-258 -144.5q-86 0 -147.5 31.5t-128.5 95.5v-104h-359zM449 393q68 -114 149 -114q115 0 115 260q0 258 -115 258q-81 0 -149 -117v-287z" />
<glyph unicode="c" horiz-adv-x="915" d="M49 539q0 143 34 252.5t93.5 175t134 98.5t160.5 33q177 0 422 -125l-141 -277q-148 80 -211 80q-127 0 -127 -237q0 -111 30.5 -175.5t94.5 -64.5q9 0 19.5 1.5t19.5 3t22 6t21 7t23 9.5t21.5 9.5t23 11t21 10.5t22 11.5t20.5 10.5l141 -277q-245 -125 -422 -125 q-86 0 -160.5 33.5t-134 99.5t-93.5 176t-34 253z" />
<glyph unicode="d" horiz-adv-x="1126" d="M51 537q0 272 92 416.5t258 144.5q85 0 145 -31.5t130 -95.5v522h360v-1493h-360v102q-70 -63 -130.5 -94t-144.5 -31q-166 0 -258 144.5t-92 415.5zM414 539q0 -260 114 -260q80 0 148 112v293q-69 113 -148 113q-114 0 -114 -258z" />
<glyph unicode="e" horiz-adv-x="1028" d="M49 535q0 267 122 415t351 148q150 0 255 -63t154.5 -169.5t49.5 -247.5q0 -42 -4.5 -81.5t-8.5 -58.5l-5 -19h-549q6 -105 36.5 -155t96.5 -50q93 0 309 117l129 -228q-98 -66 -223 -116t-258 -50q-98 0 -179.5 33t-144 99.5t-97 175t-34.5 250.5zM414 653h227 q-2 91 -27 136t-84 45q-55 0 -81.5 -44.5t-34.5 -136.5z" />
<glyph unicode="f" horiz-adv-x="731" d="M33 801v274h119q0 211 74.5 314.5t236.5 103.5q157 0 350 -94l-121 -248q-85 35 -123 35q-11 0 -19.5 -2.5t-18.5 -10t-15.5 -26.5t-5.5 -47v-25h199v-274h-199v-801h-358v801h-119z" />
<glyph unicode="g" horiz-adv-x="1126" d="M51 537q0 272 92 416.5t258 144.5q85 0 145 -31.5t130 -95.5v104h360v-1057q0 -235 -100.5 -345.5t-329.5 -110.5q-116 0 -255.5 25t-262.5 67l76 280q90 -32 193.5 -56.5t166.5 -24.5q88 0 120 35t32 116v98q-70 -63 -130.5 -94t-144.5 -31q-166 0 -258 144.5t-92 415.5 zM414 539q0 -260 114 -260q80 0 148 112v293q-69 113 -148 113q-114 0 -114 -258z" />
<glyph unicode="h" horiz-adv-x="1128" d="M90 0v1493h359v-532q85 66 158 101.5t165 35.5q135 0 202.5 -85.5t67.5 -246.5v-766h-358v684q0 123 -74 123q-41 0 -84.5 -34.5t-76.5 -78.5v-694h-359z" />
<glyph unicode="i" horiz-adv-x="538" d="M84 1192v295h371v-295h-371zM90 0v1075h359v-1075h-359z" />
<glyph unicode="j" horiz-adv-x="538" d="M-104 -209q38 16 64.5 27.5t48 26t34.5 23.5t23 26t14.5 27t6.5 34t2.5 38.5t0.5 49.5v1032h359v-1001q0 -66 -0.5 -97.5t-4 -82t-12 -75t-22.5 -62t-36.5 -58t-55 -48.5t-76.5 -47t-101.5 -40.5t-130.5 -42.5zM84 1192v295h371v-295h-371z" />
<glyph unicode="k" horiz-adv-x="1077" d="M90 0v1493h359v-745l186 327h412l-308 -424l357 -651h-377l-189 365l-81 -115v-250h-359z" />
<glyph unicode="l" horiz-adv-x="542" d="M92 0v1493h359v-1493h-359z" />
<glyph unicode="m" horiz-adv-x="1640" d="M90 0v1075h359v-125q136 148 280 148q94 0 157 -45.5t91 -128.5q58 72 136.5 123t170.5 51q132 0 201 -86t69 -246v-766h-358v668q0 34 -2 56t-8.5 42.5t-20.5 30.5t-35 10q-35 0 -69.5 -29.5t-59.5 -72.5v-705h-358v668q0 71 -12.5 105t-52.5 34q-34 0 -68.5 -29.5 t-60.5 -72.5v-705h-359z" />
<glyph unicode="n" horiz-adv-x="1128" d="M90 0v1075h359v-114q79 64 155 100.5t168 36.5q135 0 202.5 -85.5t67.5 -246.5v-766h-358v684q0 123 -74 123q-41 0 -84.5 -34.5t-76.5 -78.5v-694h-359z" />
<glyph unicode="o" horiz-adv-x="1095" d="M47 539q0 270 127.5 414.5t374.5 144.5q245 0 373.5 -146t128.5 -415q0 -270 -127.5 -415t-374.5 -145q-245 0 -373.5 146t-128.5 416zM410 539q0 -136 32.5 -205.5t106.5 -69.5q139 0 139 273q0 274 -139 274q-74 0 -106.5 -68t-32.5 -204z" />
<glyph unicode="p" horiz-adv-x="1126" d="M90 -418v1493h359v-106q68 65 129 97t147 32q166 0 258 -144.5t92 -416.5q0 -271 -92 -415.5t-258 -144.5q-86 0 -147.5 31.5t-128.5 95.5v-522h-359zM449 393q68 -114 149 -114q115 0 115 260q0 258 -115 258q-81 0 -149 -117v-287z" />
<glyph unicode="q" horiz-adv-x="1126" d="M51 537q0 272 92 416.5t258 144.5q84 0 145 -31.5t130 -95.5v104h360v-1493h-360v520q-70 -63 -130.5 -94t-144.5 -31q-166 0 -258 144.5t-92 415.5zM414 539q0 -260 114 -260q80 0 148 112v293q-69 113 -148 113q-114 0 -114 -258z" />
<glyph unicode="r" horiz-adv-x="798" d="M90 0v1075h359v-221q10 27 22.5 52t40.5 63t61 63.5t86 42.5q41 13 87 13q14 0 28 -1v-354q-60 0 -110.5 -19t-83 -49.5t-58 -67.5t-38.5 -74t-21.5 -67.5t-10.5 -49.5l-3 -19v-387h-359z" />
<glyph unicode="s" horiz-adv-x="972" d="M33 121l137 260q77 -44 182 -80.5t168 -36.5q58 0 58 33q0 16 -11.5 29t-36 24t-44.5 18.5t-56.5 18.5t-52.5 16q-49 16 -92 36t-87.5 51.5t-75.5 69.5t-51 91.5t-20 114.5q0 143 99.5 237.5t287.5 94.5q120 0 247 -36.5t216 -84.5l-139 -244q-69 30 -154 55t-137 25 q-59 0 -59 -37q0 -10 4.5 -18.5t14.5 -16t21 -13t30.5 -12.5t36.5 -12.5t44.5 -14t48.5 -15.5q50 -17 90 -35t87 -49.5t78.5 -68t53 -91t21.5 -119.5q0 -148 -103 -241t-296 -93q-135 0 -278.5 43.5t-231.5 100.5z" />
<glyph unicode="t" horiz-adv-x="806" d="M39 801v274h119v254l358 57v-311h236v-274h-236v-402q0 -31 6 -51.5t16.5 -29t19 -11t20.5 -2.5q37 0 110 41l121 -274q-190 -95 -332 -95q-168 0 -243.5 100.5t-75.5 307.5v416h-119z" />
<glyph unicode="u" horiz-adv-x="1128" d="M84 309v766h360v-684q0 -58 15.5 -90.5t56.5 -32.5q68 0 162 109v698h360v-1075h-360v111q-79 -63 -155 -98.5t-167 -35.5q-135 0 -203.5 86t-68.5 246z" />
<glyph unicode="v" horiz-adv-x="1056" d="M6 1075h381l141 -626l144 626h379l-344 -1075h-357z" />
<glyph unicode="w" horiz-adv-x="1499" d="M18 1075h379l92 -596l129 596h263l129 -594l90 594h381l-269 -1075h-325l-137 575l-136 -575h-327z" />
<glyph unicode="x" horiz-adv-x="1093" d="M-8 0l334 539l-314 536h400l135 -295l137 295h397l-313 -536l334 -539h-414l-141 307l-139 -307h-416z" />
<glyph unicode="y" horiz-adv-x="1058" d="M8 1075h381l139 -626l142 626h381l-473 -1493h-383l159 395z" />
<glyph unicode="z" horiz-adv-x="1036" d="M53 0v256l443 510h-426v309h905v-256l-443 -510h443v-309h-922z" />
<glyph unicode="{" horiz-adv-x="716" d="M14 606v213q56 0 91.5 16.5t50.5 45.5t19 68.5t-3 86.5l-18 191q-13 128 18 224t99.5 153.5t161.5 85.5t210 28h31v-205h-31q-42 0 -69 -24.5t-37 -63t-13.5 -84.5t2.5 -88l15 -145q18 -183 -52 -274.5t-227 -120.5q156 -29 226.5 -121t52.5 -275l-15 -145 q-6 -42 -2.5 -88t13.5 -84.5t37 -63t69 -24.5h31v-205h-31q-117 0 -210.5 28.5t-162 86t-99.5 153.5t-17 224l18 190q7 47 3 86.5t-19 68.5t-50.5 45.5t-91.5 16.5z" />
<glyph unicode="|" horiz-adv-x="473" d="M109 -252v1927h256v-1927h-256z" />
<glyph unicode="}" horiz-adv-x="716" d="M43 -88h31q139 0 116 260l-14 145q-18 183 52.5 275t226.5 121q-157 29 -227 120.5t-52 274.5l14 145q23 260 -116 260h-31v205h31q117 0 210.5 -28t162 -85.5t99.5 -153.5t17 -224l-18 -191q-7 -47 -3 -86.5t18.5 -68.5t50 -45.5t91.5 -16.5v-213q-56 0 -91.5 -16.5 t-50 -45.5t-18.5 -68.5t3 -86.5l18 -190q13 -128 -18 -224t-99.5 -153.5t-161.5 -86t-210 -28.5h-31v205z" />
<glyph unicode="~" horiz-adv-x="1163" d="M43 432q55 167 136.5 260.5t207.5 93.5q57 0 115 -23.5t98 -52t88.5 -52t87.5 -23.5q41 0 73.5 26.5t72.5 108.5l196 -86q-27 -81 -57.5 -141t-71.5 -110.5t-95.5 -76.5t-119.5 -26q-52 0 -110 23.5t-100.5 52t-93 52t-89.5 23.5t-70 -27t-71 -108z" />
<glyph unicode="&#xa1;" horiz-adv-x="598" d="M80 0l110 948h216l112 -948h-438zM123 1071v363h350v-363h-350z" />
<glyph unicode="&#xa2;" horiz-adv-x="993" d="M70 719q0 133 29.5 237.5t82 170.5t119 102.5t145.5 44.5v160h252v-191q117 -35 240 -98l-143 -275q-3 2 -22 11.5t-24.5 12t-23.5 11t-25.5 12t-23.5 10.5t-25 10t-23 7.5t-24 6.5t-21.5 3.5t-21.5 1.5q-127 0 -127 -237q0 -240 127 -240q10 0 21.5 1.5t21.5 3.5t24 6.5 t23 7.5t25 10t23.5 10.5t25.5 12t23.5 11t24.5 12t22 11.5l143 -274q-118 -64 -240 -101v-190h-252v160q-79 10 -145.5 47.5t-119 104t-82 170.5t-29.5 237z" />
<glyph unicode="&#xa3;" horiz-adv-x="1048" d="M78 0v262q7 2 18.5 6.5t42 23.5t55 43t48 67.5t30.5 95.5h-178v217h139q-9 21 -37 81t-41 93.5t-26.5 92t-13.5 116.5q0 170 99 264t282 94q77 0 152.5 -18t142 -51t109 -59t93.5 -62l-166 -244q-151 111 -249 111q-44 0 -66.5 -25.5t-22.5 -69.5t20.5 -93.5t51 -112.5 t45.5 -117h260v-217h-245q-21 -117 -84 -174h438v-324h-897z" />
<glyph unicode="&#xa5;" horiz-adv-x="1286" d="M41 1434h418l184 -473l186 473h416l-305 -637h168v-213h-270l-9 -17v-88h279v-213h-279v-266h-372v266h-281v213h281v92l-6 13h-275v213h172z" />
<glyph unicode="&#xa6;" horiz-adv-x="479" d="M111 -252v846h258v-846h-258zM111 829v846h258v-846h-258z" />
<glyph unicode="&#xa7;" horiz-adv-x="1046" d="M63 631q0 167 140 246q-111 100 -111 245t100 239.5t289 94.5q120 0 246 -36.5t215 -84.5l-135 -241q-70 30 -154.5 55t-138.5 25q-61 0 -61 -37q0 -15 9 -27t32 -22.5t40.5 -17t58 -19t62.5 -19.5q330 -112 330 -354q0 -167 -143 -248q112 -97 112 -246 q0 -143 -100 -237t-289 -94q-119 0 -247 36.5t-216 83.5l138 242q187 -80 292 -80q62 0 62 37q0 15 -9 26.5t-32 22t-41 17t-59 19t-62 19.5q-328 111 -328 355zM406 674q0 -37 38.5 -59t130.5 -52q35 11 51.5 31t16.5 41q0 41 -68 71q-27 12 -104 37q-65 -18 -65 -69z" />
<glyph unicode="&#xa8;" horiz-adv-x="446" d="M-72 1221v266h258v-266h-258zM262 1221v266h256v-266h-256z" />
<glyph unicode="&#xa9;" horiz-adv-x="1587" d="M63 717q0 156 49 290.5t140.5 234.5t231 157t311.5 57t311 -57t230 -157t139.5 -234.5t48.5 -290.5t-48.5 -290.5t-139.5 -234.5t-230 -157.5t-311 -57.5t-311.5 57.5t-231 157.5t-140.5 234.5t-49 290.5zM145 717q0 -141 43 -261t123.5 -209.5t204.5 -140.5t277 -51 q154 0 278.5 51t205 140.5t124 209.5t43.5 261t-43.5 261t-124 209.5t-205 140t-278.5 50.5q-153 0 -277 -50.5t-204.5 -140t-123.5 -209.5t-43 -261zM424 715q0 212 101.5 329t254.5 117q72 0 143 -23t109 -45.5t90 -58.5l-61 -71q-141 110 -277 110q-115 0 -185.5 -98 t-70.5 -260q0 -159 71 -257t185 -98q59 0 118 20t90 39t69 48l61 -70q-52 -36 -90 -58.5t-109 -45.5t-143 -23q-152 0 -254 117t-102 328z" />
<glyph unicode="&#xaa;" horiz-adv-x="749" d="M51 991q0 94 58 150.5t157 56.5q28 0 59 -5t65 -13t38 -9v25q0 38 -16.5 52t-57.5 14q-61 0 -194 -43l-74 167q183 62 320 62q141 0 201.5 -60t60.5 -200v-400h-240v68q-78 -82 -180 -82q-93 0 -145 62.5t-52 154.5zM291 1016q0 -51 49 -51q46 0 88 45v45q-54 14 -78 14 q-59 0 -59 -53z" />
<glyph unicode="&#xab;" horiz-adv-x="1169" d="M45 432v223l508 422v-372l-221 -160l221 -162v-373zM569 432v223l508 422v-372l-221 -160l221 -162v-373z" />
<glyph unicode="&#xac;" horiz-adv-x="1163" d="M63 543v280h1010v-639h-291v359h-719z" />
<glyph unicode="&#xad;" horiz-adv-x="774" d="M90 434v299h594v-299h-594z" />
<glyph unicode="&#xae;" horiz-adv-x="851" d="M61 1106q0 160 97.5 264.5t267.5 104.5q169 0 267 -104.5t98 -264.5t-98 -264.5t-267 -104.5q-170 0 -267.5 104.5t-97.5 264.5zM135 1106q0 -133 74.5 -217t216.5 -84t216.5 84t74.5 217t-74.5 217t-216.5 84t-216.5 -84t-74.5 -217zM289 926v370h172q58 0 91.5 -30 t33.5 -78q0 -39 -24.5 -66.5t-65.5 -36.5l86 -159h-72l-84 155h-72v-155h-65zM354 1143h107q59 0 59 45q0 25 -12.5 37t-44.5 12h-109v-94z" />
<glyph unicode="&#xaf;" horiz-adv-x="542" d="M0 1251v215h543v-215h-543z" />
<glyph unicode="&#xb0;" horiz-adv-x="774" d="M45 1094q0 141 100.5 242.5t241.5 101.5t241.5 -101.5t100.5 -242.5t-100.5 -241.5t-241.5 -100.5t-241.5 100.5t-100.5 241.5zM254 1094q0 -54 39 -93.5t94 -39.5q54 0 92.5 39.5t38.5 93.5q0 55 -38.5 94t-92.5 39q-55 0 -94 -38.5t-39 -94.5z" />
<glyph unicode="&#xb1;" horiz-adv-x="1163" d="M137 0v238h885v-238h-885zM137 594v280h303v252h281v-252h301v-280h-301v-250h-281v250h-303z" />
<glyph unicode="&#xb2;" horiz-adv-x="735" d="M39 788v101q0 190 223 356q17 12 49 34.5t47 34t34 28t26.5 30.5t7.5 29q0 20 -17 33.5t-49 13.5q-69 0 -190 -78l-111 162q165 131 338 131q137 0 208 -73t71 -177q0 -57 -21 -107.5t-59.5 -89.5t-67.5 -61.5t-69 -48.5q-90 -63 -106 -83q-11 -13 -11 -22h334v-213h-637 z" />
<glyph unicode="&#xb3;" horiz-adv-x="729" d="M18 899l111 172q135 -80 217 -80q40 0 62 16.5t22 45.5q0 22 -13.5 37.5t-30.5 23t-45.5 11.5t-45.5 4.5t-43 0.5h-31v211h37q143 0 143 64q0 18 -14 30.5t-45 12.5q-75 0 -188 -70l-103 158q156 127 338 127q127 0 192.5 -61t65.5 -154q0 -114 -110 -184q63 -27 103 -86 t40 -134q0 -51 -15.5 -96.5t-48.5 -85.5t-93.5 -64t-141.5 -24q-188 0 -363 125z" />
<glyph unicode="&#xb4;" horiz-adv-x="432" d="M-78 1200l213 293h375l-297 -293h-291z" />
<glyph unicode="&#xb5;" horiz-adv-x="1173" d="M106 -418v1493h361v-684q0 -58 15.5 -90.5t56.5 -32.5q67 0 161 109v698h361v-1075h-361v111q-128 -100 -233 -123v-406h-361z" />
<glyph unicode="&#xb6;" horiz-adv-x="1361" d="M43 913q0 136 38.5 238t108.5 163t160 90.5t199 29.5h295v-1813h-299v770q-100 0 -187.5 29.5t-159.5 90t-113.5 163.5t-41.5 239zM934 -379v1813h297v-1813h-297z" />
<glyph unicode="&#xb7;" horiz-adv-x="530" d="M90 385v397h352v-397h-352z" />
<glyph unicode="&#xb8;" horiz-adv-x="325" d="M-27 -342l66 176q38 -22 74 -22q67 0 67 65q0 25 -11 57t-21 51l-11 19h152q7 -10 17.5 -28t28 -69t17.5 -97q0 -101 -61 -150t-152 -49q-98 0 -166 47z" />
<glyph unicode="&#xb9;" horiz-adv-x="620" d="M0 1503l229 146h236v-861h-246v627l-121 -74z" />
<glyph unicode="&#xba;" horiz-adv-x="737" d="M49 1112q0 161 81.5 248.5t238.5 87.5t238 -87.5t81 -250.5t-81 -249.5t-238 -86.5t-238.5 87.5t-81.5 250.5zM287 1112q0 -147 82 -147q80 0 80 145q0 147 -80 147q-82 0 -82 -145z" />
<glyph unicode="&#xbb;" horiz-adv-x="1169" d="M92 10v373l221 160l-221 162v372l508 -422v-223zM616 10v373l222 160l-222 162v372l508 -422v-223z" />
<glyph unicode="&#xbc;" horiz-adv-x="1652" d="M37 1288l229 146h236v-861h-246v627l-121 -74zM354 0l543 1434h264l-543 -1434h-264zM844 141v178l313 541h328v-506h108v-213h-108v-141h-248v141h-393zM1077 354h160v281z" />
<glyph unicode="&#xbd;" horiz-adv-x="1652" d="M37 1288l229 146h236v-861h-246v627l-121 -74zM354 0l543 1434h264l-543 -1434h-264zM938 0v100q0 191 223 357q18 13 49 34.5t46.5 33t34.5 28t26.5 30.5t7.5 29q0 20 -16.5 33.5t-48.5 13.5q-72 0 -191 -77l-111 161q165 131 338 131q137 0 208 -72.5t71 -176.5 q0 -57 -21 -107.5t-59 -89.5t-67.5 -62t-69.5 -49q-7 -5 -20 -14l-19.5 -13.5t-17.5 -12.5t-17 -13t-14 -11.5t-12.5 -11t-8.5 -10t-6 -10t-2 -8.5h334v-213h-637z" />
<glyph unicode="&#xbe;" horiz-adv-x="1777" d="M45 684l111 172q135 -80 217 -80q40 0 62 16.5t22 45.5q0 22 -13.5 37.5t-30.5 23t-45.5 11.5t-45.5 4.5t-43 0.5h-31v211h37q143 0 143 64q0 18 -14 30.5t-45 12.5q-76 0 -189 -70l-102 158q156 127 338 127q127 0 192.5 -61t65.5 -154q0 -113 -111 -184 q63 -27 103.5 -86.5t40.5 -133.5q0 -51 -15.5 -96.5t-48.5 -85.5t-93.5 -64t-141.5 -24q-188 0 -363 125zM489 0l543 1434h264l-542 -1434h-265zM981 141v178l313 541h328v-506h109v-213h-109v-141h-248v141h-393zM1214 354h160v281z" />
<glyph unicode="&#xbf;" horiz-adv-x="974" d="M51 358q0 76 25 142t63 112t95 86.5t109.5 66t117.5 48.5l14 135h215l19 -334q-157 -44 -219 -86.5t-62 -111.5q0 -46 28 -80.5t89 -34.5q99 0 229 96l158 -254q-226 -166 -453 -166q-190 0 -309 105.5t-119 275.5zM408 1071v363h352v-363h-352z" />
<glyph unicode="&#xc0;" horiz-adv-x="1267" d="M0 0l426 1434h414l426 -1434h-402l-53 240h-356l-52 -240h-403zM262 1802h375l213 -293h-291zM522 545h221l-110 497z" />
<glyph unicode="&#xc1;" horiz-adv-x="1267" d="M0 0l426 1434h414l426 -1434h-402l-53 240h-356l-52 -240h-403zM420 1509l213 293h375l-297 -293h-291zM522 545h221l-110 497z" />
<glyph unicode="&#xc2;" horiz-adv-x="1267" d="M0 0l426 1434h414l426 -1434h-402l-53 240h-356l-52 -240h-403zM285 1509l188 293h320l188 -293h-238l-110 138l-111 -138h-237zM522 545h221l-110 497z" />
<glyph unicode="&#xc3;" horiz-adv-x="1267" d="M0 0l426 1434h414l426 -1434h-402l-53 240h-356l-52 -240h-403zM274 1595q53 119 82 160q58 80 140 80q42 0 94.5 -24t96.5 -48t67 -24q13 0 23.5 5t28.5 27t36 62l147 -80q-15 -36 -21.5 -50.5t-22 -46.5t-26 -46.5t-28.5 -37t-34.5 -33t-39 -18.5t-47.5 -8 q-43 0 -96 24t-97 48.5t-67 24.5q-43 0 -88 -94zM522 545h221l-110 497z" />
<glyph unicode="&#xc4;" horiz-adv-x="1267" d="M0 0l426 1434h414l426 -1434h-402l-53 240h-356l-52 -240h-403zM338 1538v266h258v-266h-258zM522 545h221l-110 497zM672 1538v266h256v-266h-256z" />
<glyph unicode="&#xc5;" horiz-adv-x="1267" d="M0 0l426 1434h414l426 -1434h-402l-53 240h-356l-52 -240h-403zM410 1714q0 94 66 161t159 67q92 0 158.5 -67t66.5 -161q0 -93 -66 -159t-159 -66q-94 0 -159.5 65.5t-65.5 159.5zM522 545h221l-110 497zM571 1714q0 -26 19 -44.5t45 -18.5t44.5 18.5t18.5 44.5 q0 27 -18.5 46.5t-44.5 19.5t-45 -20t-19 -46z" />
<glyph unicode="&#xc6;" horiz-adv-x="1910" d="M-61 0l784 1434h1114v-332h-545v-223h441v-324h-441v-223h553v-332h-927v240h-412l-121 -240h-446zM668 555h250v492z" />
<glyph unicode="&#xc7;" horiz-adv-x="1142" d="M59 717q0 365 137 552t375 187q137 0 261 -47.5t292 -140.5l-166 -289q-121 64 -195.5 94.5t-135.5 30.5q-94 0 -139.5 -102.5t-45.5 -284.5t45.5 -284.5t139.5 -102.5q61 0 135.5 30.5t195.5 94.5l166 -289q-137 -77 -239 -120.5t-211 -59.5q53 -91 53 -176 q0 -101 -61 -150t-152 -49q-98 0 -166 47l66 176q38 -22 73 -22q68 0 68 65q0 38 -31 103q-217 18 -341 204t-124 533z" />
<glyph unicode="&#xc8;" horiz-adv-x="1103" d="M111 0v1434h919v-332h-545v-223h441v-324h-441v-223h553v-332h-927zM203 1802h375l213 -293h-291z" />
<glyph unicode="&#xc9;" horiz-adv-x="1103" d="M111 0v1434h919v-332h-545v-223h441v-324h-441v-223h553v-332h-927zM360 1509l213 293h375l-297 -293h-291z" />
<glyph unicode="&#xca;" horiz-adv-x="1103" d="M111 0v1434h919v-332h-545v-223h441v-324h-441v-223h553v-332h-927zM227 1509l189 293h319l189 -293h-238l-111 138l-110 -138h-238z" />
<glyph unicode="&#xcb;" horiz-adv-x="1103" d="M111 0v1434h919v-332h-545v-223h441v-324h-441v-223h553v-332h-927zM281 1530v266h258v-266h-258zM614 1530v266h256v-266h-256z" />
<glyph unicode="&#xcc;" horiz-adv-x="593" d="M-76 1802h375l213 -293h-291zM111 0v1434h374v-1434h-374z" />
<glyph unicode="&#xcd;" horiz-adv-x="595" d="M82 1509l213 293h375l-297 -293h-291zM111 0v1434h374v-1434h-374z" />
<glyph unicode="&#xce;" horiz-adv-x="595" d="M-51 1509l188 293h320l188 -293h-237l-111 138l-111 -138h-237zM111 0v1434h374v-1434h-374z" />
<glyph unicode="&#xcf;" horiz-adv-x="595" d="M2 1526v266h258v-266h-258zM111 0v1434h374v-1434h-374zM336 1526v266h256v-266h-256z" />
<glyph unicode="&#xd0;" horiz-adv-x="1314" d="M16 567v299h121v568h457q333 0 496 -170t163 -547t-163 -547t-496 -170h-457v567h-121zM512 332h68q74 0 126 16.5t94 57.5t62.5 118.5t20.5 192.5t-20.5 192.5t-62.5 118.5t-94 57.5t-126 16.5h-68v-236h203v-299h-203v-235z" />
<glyph unicode="&#xd1;" horiz-adv-x="1329" d="M111 0v1434h376l357 -768v768h373v-1434h-375l-357 768v-768h-374zM313 1614q53 119 83 160q58 79 139 79q42 0 94.5 -24t96.5 -48t67 -24q13 0 23.5 5t28.5 27t36 62l147 -79q-15 -36 -21.5 -50.5t-22 -46.5t-26 -46.5t-28.5 -37t-34.5 -33t-39 -18.5t-47.5 -8 q-43 0 -96 24t-97 48t-67 24q-43 0 -88 -94z" />
<glyph unicode="&#xd2;" horiz-adv-x="1347" d="M55 717q0 128 21 237t67.5 202.5t117.5 159.5t176 103t237 37t237 -37t175.5 -103t117.5 -159.5t67.5 -202.5t20.5 -237t-20.5 -237t-67.5 -203t-117.5 -159.5t-175.5 -103t-237 -37.5t-237 37.5t-176 103t-118 159.5t-67.5 203t-20.5 237zM301 1802h375l213 -293h-291z M438 717q0 -126 21 -213t75 -140t140 -53q65 0 111.5 29t73 84.5t38.5 127t12 165.5q0 192 -54.5 298.5t-180.5 106.5q-236 0 -236 -405z" />
<glyph unicode="&#xd3;" horiz-adv-x="1347" d="M55 717q0 128 21 237t67.5 202.5t117.5 159.5t176 103t237 37t237 -37t175.5 -103t117.5 -159.5t67.5 -202.5t20.5 -237t-20.5 -237t-67.5 -203t-117.5 -159.5t-175.5 -103t-237 -37.5t-237 37.5t-176 103t-118 159.5t-67.5 203t-20.5 237zM438 717q0 -126 21 -213 t75 -140t140 -53q65 0 111.5 29t73 84.5t38.5 127t12 165.5q0 192 -54.5 298.5t-180.5 106.5q-236 0 -236 -405zM461 1509l213 293h375l-297 -293h-291z" />
<glyph unicode="&#xd4;" horiz-adv-x="1347" d="M55 717q0 128 21 237t67.5 202.5t117.5 159.5t176 103t237 37t237 -37t175.5 -103t117.5 -159.5t67.5 -202.5t20.5 -237t-20.5 -237t-67.5 -203t-117.5 -159.5t-175.5 -103t-237 -37.5t-237 37.5t-176 103t-118 159.5t-67.5 203t-20.5 237zM326 1509l188 293h320 l188 -293h-238l-110 138l-111 -138h-237zM438 717q0 -126 21 -213t75 -140t140 -53q65 0 111.5 29t73 84.5t38.5 127t12 165.5q0 192 -54.5 298.5t-180.5 106.5q-236 0 -236 -405z" />
<glyph unicode="&#xd5;" horiz-adv-x="1347" d="M55 717q0 128 21 237t67.5 202.5t117.5 159.5t176 103t237 37t237 -37t175.5 -103t117.5 -159.5t67.5 -202.5t20.5 -237t-20.5 -237t-67.5 -203t-117.5 -159.5t-175.5 -103t-237 -37.5t-237 37.5t-176 103t-118 159.5t-67.5 203t-20.5 237zM313 1595q53 119 82 160 q58 80 140 80q42 0 94.5 -24t96.5 -48t67 -24q13 0 23.5 5t28.5 27t36 62l147 -80q-15 -36 -21.5 -50.5t-22 -46.5t-26 -46.5t-28.5 -37t-34.5 -33t-39 -18.5t-47.5 -8q-43 0 -96 24t-97 48.5t-67 24.5q-43 0 -88 -94zM438 717q0 -126 21 -213t75 -140t140 -53 q65 0 111.5 29t73 84.5t38.5 127t12 165.5q0 192 -54.5 298.5t-180.5 106.5q-236 0 -236 -405z" />
<glyph unicode="&#xd6;" horiz-adv-x="1347" d="M55 717q0 128 21 237t67.5 202.5t117.5 159.5t176 103t237 37t237 -37t175.5 -103t117.5 -159.5t67.5 -202.5t20.5 -237t-20.5 -237t-67.5 -203t-117.5 -159.5t-175.5 -103t-237 -37.5t-237 37.5t-176 103t-118 159.5t-67.5 203t-20.5 237zM379 1530v266h258v-266h-258z M438 717q0 -126 21 -213t75 -140t140 -53q65 0 111.5 29t73 84.5t38.5 127t12 165.5q0 192 -54.5 298.5t-180.5 106.5q-236 0 -236 -405zM713 1530v266h256v-266h-256z" />
<glyph unicode="&#xd7;" horiz-adv-x="1163" d="M170 444l219 246l-219 246l211 188l199 -221l198 221l213 -190l-219 -246l219 -244l-211 -190l-198 221l-199 -219z" />
<glyph unicode="&#xd8;" horiz-adv-x="1347" d="M55 717q0 128 21 237t67.5 202.5t117.5 159.5t176 103t237 37q187 0 319 -74l35 52h246l-125 -189q143 -190 143 -528q0 -128 -20.5 -237t-67.5 -203t-117.5 -159.5t-175.5 -103t-237 -37.5q-189 0 -318 72l-32 -49h-248l123 186q-144 192 -144 531zM438 717 q0 -91 11 -156l348 522q-51 39 -123 39q-236 0 -236 -405zM553 346q47 -35 121 -35q65 0 111.5 29t73 84.5t38.5 127t12 165.5q0 76 -10 151z" />
<glyph unicode="&#xd9;" horiz-adv-x="1282" d="M98 569v865h375v-902q0 -50 6.5 -87t24 -69t52 -48.5t85.5 -16.5q52 0 86.5 16.5t52 48.5t24.5 68.5t7 87.5v902h373v-865q0 -107 -12.5 -188.5t-47.5 -160.5t-94 -130t-157.5 -82t-231.5 -31t-231 31t-157 82t-94.5 129.5t-48 161t-12.5 188.5zM268 1802h375l213 -293 h-291z" />
<glyph unicode="&#xda;" horiz-adv-x="1282" d="M98 569v865h375v-902q0 -50 6.5 -87t24 -69t52 -48.5t85.5 -16.5q52 0 86.5 16.5t52 48.5t24.5 68.5t7 87.5v902h373v-865q0 -107 -12.5 -188.5t-47.5 -160.5t-94 -130t-157.5 -82t-231.5 -31t-231 31t-157 82t-94.5 129.5t-48 161t-12.5 188.5zM426 1509l213 293h375 l-297 -293h-291z" />
<glyph unicode="&#xdb;" horiz-adv-x="1282" d="M98 569v865h375v-902q0 -50 6.5 -87t24 -69t52 -48.5t85.5 -16.5q52 0 86.5 16.5t52 48.5t24.5 68.5t7 87.5v902h373v-865q0 -107 -12.5 -188.5t-47.5 -160.5t-94 -130t-157.5 -82t-231.5 -31t-231 31t-157 82t-94.5 129.5t-48 161t-12.5 188.5zM291 1509l188 293h320 l188 -293h-237l-111 138l-111 -138h-237z" />
<glyph unicode="&#xdc;" horiz-adv-x="1282" d="M98 569v865h375v-902q0 -50 6.5 -87t24 -69t52 -48.5t85.5 -16.5q52 0 86.5 16.5t52 48.5t24.5 68.5t7 87.5v902h373v-865q0 -107 -12.5 -188.5t-47.5 -160.5t-94 -130t-157.5 -82t-231.5 -31t-231 31t-157 82t-94.5 129.5t-48 161t-12.5 188.5zM346 1530v266h258v-266 h-258zM680 1530v266h256v-266h-256z" />
<glyph unicode="&#xdd;" horiz-adv-x="1189" d="M-8 1434h418l184 -473l186 473h416l-416 -867v-567h-372v571zM381 1509l213 293h375l-297 -293h-291z" />
<glyph unicode="&#xde;" horiz-adv-x="1212" d="M111 0v1434h374v-213h140q287 0 419 -124t132 -358q0 -233 -132 -355t-419 -122h-140v-262h-374zM485 582h99q113 0 164 33t51 124q0 92 -51 125t-164 33h-99v-315z" />
<glyph unicode="&#xdf;" horiz-adv-x="1327" d="M90 0v936q0 98 13 176t49 152.5t95.5 123.5t156.5 79t227 30q120 0 215 -24.5t155.5 -64.5t100.5 -94.5t56 -109.5t16 -114q0 -61 -18 -114t-36 -76l-18 -23q-56 -13 -103 -43t-47 -70q0 -30 29 -51t89 -54.5t104 -72.5q126 -114 126 -271q0 -145 -97 -241.5t-265 -96.5 q-190 0 -426 119l137 260q160 -84 236 -84q55 0 55 39q0 35 -63 70q-4 2 -35 18t-43.5 23t-42.5 27t-45.5 35.5t-38.5 42.5t-34.5 54t-20.5 64t-9 78q0 212 215 321q2 12 2 29q0 60 -42.5 102t-137.5 42q-106 0 -151 -68.5t-45 -237.5v-911h-359z" />
<glyph unicode="&#xe0;" horiz-adv-x="1081" d="M37 334q0 160 92 252t250 92q98 0 262 -45v57q0 70 -28 97.5t-99 27.5q-55 0 -123 -16t-186 -56l-111 254q276 101 500 101q218 0 311.5 -95.5t93.5 -320.5v-682h-358v117q-132 -140 -289 -140q-147 0 -231 100.5t-84 256.5zM174 1493h375l213 -293h-291zM399 371 q0 -52 23 -79.5t63 -27.5q76 0 156 86v107q-91 26 -137 26q-48 0 -76.5 -28t-28.5 -84z" />
<glyph unicode="&#xe1;" horiz-adv-x="1081" d="M37 334q0 160 92 252t250 92q98 0 262 -45v57q0 70 -28 97.5t-99 27.5q-55 0 -123 -16t-186 -56l-111 254q276 101 500 101q218 0 311.5 -95.5t93.5 -320.5v-682h-358v117q-132 -140 -289 -140q-147 0 -231 100.5t-84 256.5zM334 1200l213 293h375l-297 -293h-291z M399 371q0 -52 23 -79.5t63 -27.5q76 0 156 86v107q-91 26 -137 26q-48 0 -76.5 -28t-28.5 -84z" />
<glyph unicode="&#xe2;" horiz-adv-x="1081" d="M37 334q0 160 92 252t250 92q98 0 262 -45v57q0 70 -28 97.5t-99 27.5q-55 0 -123 -16t-186 -56l-111 254q276 101 500 101q218 0 311.5 -95.5t93.5 -320.5v-682h-358v117q-132 -140 -289 -140q-147 0 -231 100.5t-84 256.5zM199 1200l188 293h320l188 -293h-238 l-110 137l-111 -137h-237zM399 371q0 -52 23 -79.5t63 -27.5q76 0 156 86v107q-91 26 -137 26q-48 0 -76.5 -28t-28.5 -84z" />
<glyph unicode="&#xe3;" horiz-adv-x="1081" d="M37 334q0 160 92 252t250 92q98 0 262 -45v57q0 70 -28 97.5t-99 27.5q-55 0 -123 -16t-186 -56l-111 254q276 101 500 101q218 0 311.5 -95.5t93.5 -320.5v-682h-358v117q-132 -140 -289 -140q-147 0 -231 100.5t-84 256.5zM190 1286q53 119 82 160q58 80 140 80 q42 0 94.5 -24t96.5 -48t67 -24q13 0 23.5 5t28.5 27t36 62l147 -80q-15 -36 -21.5 -50.5t-22 -46.5t-26 -46.5t-28.5 -37t-34.5 -33t-39 -18.5t-47.5 -8q-43 0 -96 24t-97 48t-67 24q-43 0 -88 -94zM399 371q0 -52 23 -79.5t63 -27.5q76 0 156 86v107q-91 26 -137 26 q-48 0 -76.5 -28t-28.5 -84z" />
<glyph unicode="&#xe4;" horiz-adv-x="1081" d="M37 334q0 160 92 252t250 92q98 0 262 -45v57q0 70 -28 97.5t-99 27.5q-55 0 -123 -16t-186 -56l-111 254q276 101 500 101q218 0 311.5 -95.5t93.5 -320.5v-682h-358v117q-132 -140 -289 -140q-147 0 -231 100.5t-84 256.5zM254 1221v266h258v-266h-258zM399 371 q0 -52 23 -79.5t63 -27.5q76 0 156 86v107q-91 26 -137 26q-48 0 -76.5 -28t-28.5 -84zM588 1221v266h256v-266h-256z" />
<glyph unicode="&#xe5;" horiz-adv-x="1081" d="M37 334q0 160 92 252t250 92q98 0 262 -45v57q0 70 -28 97.5t-99 27.5q-55 0 -123 -16t-186 -56l-111 254q276 101 500 101q218 0 311.5 -95.5t93.5 -320.5v-682h-358v117q-132 -140 -289 -140q-147 0 -231 100.5t-84 256.5zM324 1405q0 94 65.5 160.5t159.5 66.5 q92 0 158.5 -66.5t66.5 -160.5q0 -93 -66 -159t-159 -66q-94 0 -159.5 65.5t-65.5 159.5zM399 371q0 -52 23 -79.5t63 -27.5q76 0 156 86v107q-91 26 -137 26q-48 0 -76.5 -28t-28.5 -84zM485 1405q0 -26 19 -45t45 -19t44.5 19t18.5 45t-18.5 45.5t-44.5 19.5t-45 -19.5 t-19 -45.5z" />
<glyph unicode="&#xe6;" horiz-adv-x="1605" d="M37 334q0 160 92 252t250 92q33 0 74.5 -5.5t64.5 -10.5t66.5 -16t44.5 -11q2 23 10 74q-3 59 -31.5 82.5t-93.5 23.5q-55 0 -123 -16t-186 -56l-111 254q276 101 500 101q169 0 260 -58q107 58 244 58q150 0 255 -63t154 -169.5t49 -247.5q0 -42 -4.5 -81.5t-9.5 -58.5 l-4 -19h-549q6 -105 36.5 -155t96.5 -50q94 0 310 117l129 -228q-97 -66 -223 -116t-259 -50q-123 0 -221 52t-158 157q-159 -209 -348 -209q-147 0 -231 100.5t-84 256.5zM399 371q0 -52 23 -79.5t63 -27.5q76 0 156 90q-7 39 -14 103q-91 26 -125 26q-47 0 -75 -28 t-28 -84zM989 653h228q-2 91 -27 136t-84 45q-55 0 -82 -45t-35 -136z" />
<glyph unicode="&#xe7;" horiz-adv-x="915" d="M49 539q0 143 34 252.5t93.5 175t134 98.5t160.5 33q177 0 422 -125l-141 -277q-148 80 -211 80q-127 0 -127 -237q0 -111 30.5 -175.5t94.5 -64.5q9 0 19.5 1.5t19.5 3t22 6t21 7t23 9.5t21.5 9.5t23 11t21 10.5t22 11.5t20.5 10.5l141 -277q-189 -99 -348 -118 q51 -94 51 -174q0 -101 -61 -150t-152 -49q-98 0 -166 47l66 176q39 -22 73 -22q68 0 68 65q0 40 -33 109q-151 28 -246.5 167.5t-95.5 385.5z" />
<glyph unicode="&#xe8;" horiz-adv-x="1028" d="M49 535q0 267 122 415t351 148q150 0 255 -63t154.5 -169.5t49.5 -247.5q0 -42 -4.5 -81.5t-8.5 -58.5l-5 -19h-549q6 -105 36.5 -155t96.5 -50q93 0 309 117l129 -228q-98 -66 -223 -116t-258 -50q-98 0 -179.5 33t-144 99.5t-97 175t-34.5 250.5zM162 1493h375 l213 -293h-291zM414 653h227q-2 91 -27 136t-84 45q-55 0 -81.5 -44.5t-34.5 -136.5z" />
<glyph unicode="&#xe9;" horiz-adv-x="1028" d="M49 535q0 267 122 415t351 148q150 0 255 -63t154.5 -169.5t49.5 -247.5q0 -42 -4.5 -81.5t-8.5 -58.5l-5 -19h-549q6 -105 36.5 -155t96.5 -50q93 0 309 117l129 -228q-98 -66 -223 -116t-258 -50q-98 0 -179.5 33t-144 99.5t-97 175t-34.5 250.5zM317 1200l213 293h375 l-297 -293h-291zM414 653h227q-2 91 -27 136t-84 45q-55 0 -81.5 -44.5t-34.5 -136.5z" />
<glyph unicode="&#xea;" horiz-adv-x="1028" d="M49 535q0 267 122 415t351 148q150 0 255 -63t154.5 -169.5t49.5 -247.5q0 -42 -4.5 -81.5t-8.5 -58.5l-5 -19h-549q6 -105 36.5 -155t96.5 -50q93 0 309 117l129 -228q-98 -66 -223 -116t-258 -50q-98 0 -179.5 33t-144 99.5t-97 175t-34.5 250.5zM184 1200l189 293h319 l189 -293h-238l-111 137l-110 -137h-238zM414 653h227q-2 91 -27 136t-84 45q-55 0 -81.5 -44.5t-34.5 -136.5z" />
<glyph unicode="&#xeb;" horiz-adv-x="1028" d="M49 535q0 267 122 415t351 148q150 0 255 -63t154.5 -169.5t49.5 -247.5q0 -42 -4.5 -81.5t-8.5 -58.5l-5 -19h-549q6 -105 36.5 -155t96.5 -50q93 0 309 117l129 -228q-98 -66 -223 -116t-258 -50q-98 0 -179.5 33t-144 99.5t-97 175t-34.5 250.5zM240 1221v266h258 v-266h-258zM414 653h227q-2 91 -27 136t-84 45q-55 0 -81.5 -44.5t-34.5 -136.5zM573 1221v266h256v-266h-256z" />
<glyph unicode="&#xec;" horiz-adv-x="538" d="M-102 1493h374l213 -293h-290zM90 0v1075h359v-1075h-359z" />
<glyph unicode="&#xed;" horiz-adv-x="538" d="M53 1200l213 293h375l-297 -293h-291zM90 0v1075h359v-1075h-359z" />
<glyph unicode="&#xee;" horiz-adv-x="538" d="M-80 1200l189 293h319l188 -293h-237l-111 137l-110 -137h-238zM90 0v1075h359v-1075h-359z" />
<glyph unicode="&#xef;" horiz-adv-x="538" d="M-25 1221v266h258v-266h-258zM90 0v1075h359v-1075h-359zM309 1221v266h256v-266h-256z" />
<glyph unicode="&#xf0;" horiz-adv-x="1126" d="M45 477q0 222 117 360t291 138q52 0 97.5 -11.5t73.5 -28t48 -33.5t28 -28l9 -12q-22 77 -72 138t-123 96l-51 -78h-270l79 119q-29 -2 -55.5 -5.5t-38.5 -6.5l-12 -3l-37 289q68 23 195 23q56 0 139 -11l47 70h268l-92 -139q192 -98 290.5 -297t98.5 -451 q0 -298 -138 -463.5t-396 -165.5q-231 0 -363.5 135t-132.5 365zM418 475q0 -211 151 -211q150 0 150 211q0 213 -150 213q-151 0 -151 -213z" />
<glyph unicode="&#xf1;" horiz-adv-x="1128" d="M90 0v1075h359v-114q79 64 155 100.5t168 36.5q135 0 202.5 -85.5t67.5 -246.5v-766h-358v684q0 123 -74 123q-41 0 -84.5 -34.5t-76.5 -78.5v-694h-359zM207 1286q52 118 80 157q58 83 141 83q42 0 94.5 -24t96.5 -48t67 -24q13 0 23.5 5t28.5 27t36 62l148 -80 q-20 -48 -30.5 -71t-33 -61.5t-42 -57.5t-50 -34.5t-64.5 -15.5q-43 0 -96 24t-97 48t-67 24q-43 0 -88 -94z" />
<glyph unicode="&#xf2;" horiz-adv-x="1095" d="M47 539q0 270 127.5 414.5t374.5 144.5q245 0 373.5 -146t128.5 -415q0 -270 -127.5 -415t-374.5 -145q-245 0 -373.5 146t-128.5 416zM176 1493h375l213 -293h-291zM410 539q0 -136 32.5 -205.5t106.5 -69.5q139 0 139 273q0 274 -139 274q-74 0 -106.5 -68t-32.5 -204z " />
<glyph unicode="&#xf3;" horiz-adv-x="1095" d="M47 539q0 270 127.5 414.5t374.5 144.5q245 0 373.5 -146t128.5 -415q0 -270 -127.5 -415t-374.5 -145q-245 0 -373.5 146t-128.5 416zM334 1200l213 293h375l-297 -293h-291zM410 539q0 -136 32.5 -205.5t106.5 -69.5q139 0 139 273q0 274 -139 274q-74 0 -106.5 -68 t-32.5 -204z" />
<glyph unicode="&#xf4;" horiz-adv-x="1095" d="M47 539q0 270 127.5 414.5t374.5 144.5q245 0 373.5 -146t128.5 -415q0 -270 -127.5 -415t-374.5 -145q-245 0 -373.5 146t-128.5 416zM201 1200l188 293h320l188 -293h-238l-110 137l-111 -137h-237zM410 539q0 -136 32.5 -205.5t106.5 -69.5q139 0 139 273 q0 274 -139 274q-74 0 -106.5 -68t-32.5 -204z" />
<glyph unicode="&#xf5;" horiz-adv-x="1095" d="M47 539q0 270 127.5 414.5t374.5 144.5q245 0 373.5 -146t128.5 -415q0 -270 -127.5 -415t-374.5 -145q-245 0 -373.5 146t-128.5 416zM190 1286q53 119 82 160q58 80 140 80q42 0 94.5 -24t96.5 -48t67 -24q13 0 23.5 5t28.5 27t36 62l147 -80q-15 -36 -21.5 -50.5 t-22 -46.5t-26 -46.5t-28.5 -37t-34.5 -33t-39 -18.5t-47.5 -8q-43 0 -96 24t-97 48t-67 24q-43 0 -88 -94zM410 539q0 -136 32.5 -205.5t106.5 -69.5q139 0 139 273q0 274 -139 274q-74 0 -106.5 -68t-32.5 -204z" />
<glyph unicode="&#xf6;" horiz-adv-x="1095" d="M47 539q0 270 127.5 414.5t374.5 144.5q245 0 373.5 -146t128.5 -415q0 -270 -127.5 -415t-374.5 -145q-245 0 -373.5 146t-128.5 416zM254 1221v266h258v-266h-258zM410 539q0 -136 32.5 -205.5t106.5 -69.5q139 0 139 273q0 274 -139 274q-74 0 -106.5 -68t-32.5 -204z M588 1221v266h256v-266h-256z" />
<glyph unicode="&#xf7;" horiz-adv-x="1163" d="M137 543v280h887v-280h-887zM428 309q0 65 44 109.5t108 44.5t108.5 -44.5t44.5 -109.5q0 -64 -44 -107.5t-109 -43.5t-108.5 43.5t-43.5 107.5zM428 1057q0 64 44.5 108.5t109.5 44.5q63 0 107 -44.5t44 -108.5q0 -63 -44 -107.5t-107 -44.5q-64 0 -109 44.5t-45 107.5z " />
<glyph unicode="&#xf8;" horiz-adv-x="1095" d="M47 539q0 270 127.5 414.5t374.5 144.5q150 0 256 -56l24 33h191l-92 -131q123 -141 123 -407q0 -270 -127.5 -415t-374.5 -145q-153 0 -264 60l-25 -37h-197l99 137q-115 142 -115 402zM410 487l213 297q-34 27 -74 27q-74 0 -106.5 -68t-32.5 -204v-52zM469 295 q31 -31 80 -31q139 0 139 273q0 12 -1 33.5t-1 31.5z" />
<glyph unicode="&#xf9;" horiz-adv-x="1128" d="M84 309v766h360v-684q0 -58 15.5 -90.5t56.5 -32.5q68 0 162 109v698h360v-1075h-360v111q-79 -63 -155 -98.5t-167 -35.5q-135 0 -203.5 86t-68.5 246zM188 1493h375l213 -293h-291z" />
<glyph unicode="&#xfa;" horiz-adv-x="1128" d="M84 309v766h360v-684q0 -58 15.5 -90.5t56.5 -32.5q68 0 162 109v698h360v-1075h-360v111q-79 -63 -155 -98.5t-167 -35.5q-135 0 -203.5 86t-68.5 246zM346 1200l213 293h375l-297 -293h-291z" />
<glyph unicode="&#xfb;" horiz-adv-x="1128" d="M84 309v766h360v-684q0 -58 15.5 -90.5t56.5 -32.5q68 0 162 109v698h360v-1075h-360v111q-79 -63 -155 -98.5t-167 -35.5q-135 0 -203.5 86t-68.5 246zM213 1200l188 293h320l188 -293h-237l-111 137l-110 -137h-238z" />
<glyph unicode="&#xfc;" horiz-adv-x="1128" d="M84 309v766h360v-684q0 -58 15.5 -90.5t56.5 -32.5q68 0 162 109v698h360v-1075h-360v111q-79 -63 -155 -98.5t-167 -35.5q-135 0 -203.5 86t-68.5 246zM266 1221v266h258v-266h-258zM600 1221v266h256v-266h-256z" />
<glyph unicode="&#xfd;" horiz-adv-x="1058" d="M8 1075h381l139 -626l142 626h381l-473 -1493h-383l159 395zM315 1200l213 293h375l-297 -293h-291z" />
<glyph unicode="&#xfe;" horiz-adv-x="1126" d="M90 -418v1911h359v-524q68 65 129 97t147 32q166 0 258 -144.5t92 -416.5q0 -271 -92 -415.5t-258 -144.5q-86 0 -147.5 31.5t-128.5 95.5v-522h-359zM449 393q68 -114 149 -114q115 0 115 260q0 258 -115 258q-81 0 -149 -117v-287z" />
<glyph unicode="&#xff;" horiz-adv-x="1058" d="M8 1075h381l139 -626l142 626h381l-473 -1493h-383l159 395zM236 1221v266h258v-266h-258zM569 1221v266h256v-266h-256z" />
<glyph unicode="&#x100;" horiz-adv-x="1267" d="M0 0l426 1434h414l426 -1434h-402l-53 240h-356l-52 -240h-403zM362 1561v215h543v-215h-543zM522 545h221l-110 497z" />
<glyph unicode="&#x101;" horiz-adv-x="1081" d="M37 334q0 160 92 252t250 92q98 0 262 -45v57q0 70 -28 97.5t-99 27.5q-55 0 -123 -16t-186 -56l-111 254q276 101 500 101q218 0 311.5 -95.5t93.5 -320.5v-682h-358v117q-132 -140 -289 -140q-147 0 -231 100.5t-84 256.5zM274 1251v215h543v-215h-543zM399 371 q0 -52 23 -79.5t63 -27.5q76 0 156 86v107q-91 26 -137 26q-48 0 -76.5 -28t-28.5 -84z" />
<glyph unicode="&#x102;" horiz-adv-x="1267" d="M0 0l426 1434h414l426 -1434h-402l-53 240h-356l-52 -240h-403zM317 1782h209q0 -34 28.5 -55t78.5 -21t79 21t29 55h209q0 -127 -83.5 -200t-233.5 -73q-148 0 -232 73t-84 200zM522 545h221l-110 497z" />
<glyph unicode="&#x103;" horiz-adv-x="1081" d="M37 334q0 160 92 252t250 92q98 0 262 -45v57q0 70 -28 97.5t-99 27.5q-55 0 -123 -16t-186 -56l-111 254q276 101 500 101q218 0 311.5 -95.5t93.5 -320.5v-682h-358v117q-132 -140 -289 -140q-147 0 -231 100.5t-84 256.5zM233 1473h209q0 -34 28.5 -55t78.5 -21t79 21 t29 55h209q0 -127 -83.5 -200t-233.5 -73q-148 0 -232 73t-84 200zM399 371q0 -52 23 -79.5t63 -27.5q76 0 156 86v107q-91 26 -137 26q-48 0 -76.5 -28t-28.5 -84z" />
<glyph unicode="&#x104;" horiz-adv-x="1267" d="M0 0l426 1434h414l426 -1434h-4q-150 -107 -150 -190q0 -19 7.5 -32t17 -19.5t26.5 -10t26 -3.5t26 0.5t18 0.5l-31 -158q-1 0 -20 -0.5t-30.5 0t-36.5 2t-42 4.5t-41.5 10t-41.5 16t-36 23.5t-30.5 32.5t-19 43.5t-7.5 55.5q0 128 162 225h-195l-53 240h-356l-52 -240 h-403zM522 545h221l-110 497z" />
<glyph unicode="&#x105;" horiz-adv-x="1081" d="M37 334q0 160 92 252t250 92q98 0 262 -45v57q0 70 -28 97.5t-99 27.5q-55 0 -123 -16t-186 -56l-111 254q276 101 500 101q218 0 311.5 -95.5t93.5 -320.5v-682h-4q-149 -106 -149 -190q0 -19 7.5 -32t17 -19.5t26.5 -10t26 -3.5t26 0.5t18 0.5l-31 -158q-1 0 -20 -0.5 t-30.5 0t-36.5 2t-42 4.5t-41.5 10t-41.5 16t-36 23.5t-30.5 32.5t-19 43.5t-7.5 55.5q0 128 162 225h-152v117q-132 -140 -289 -140q-147 0 -231 100.5t-84 256.5zM399 371q0 -52 23 -79.5t63 -27.5q76 0 156 86v107q-91 26 -137 26q-48 0 -76.5 -28t-28.5 -84z" />
<glyph unicode="&#x106;" horiz-adv-x="1142" d="M59 717q0 365 137 552t375 187q137 0 261 -47.5t292 -140.5l-166 -289q-121 64 -195.5 94.5t-135.5 30.5q-94 0 -139.5 -102.5t-45.5 -284.5t45.5 -284.5t139.5 -102.5q61 0 135.5 30.5t195.5 94.5l166 -289q-83 -46 -137 -73t-128 -57.5t-144.5 -44.5t-143.5 -14 q-238 0 -375 187.5t-137 552.5zM449 1509l213 293h374l-297 -293h-290z" />
<glyph unicode="&#x107;" horiz-adv-x="915" d="M49 539q0 143 34 252.5t93.5 175t134 98.5t160.5 33q177 0 422 -125l-141 -277q-148 80 -211 80q-127 0 -127 -237q0 -111 30.5 -175.5t94.5 -64.5q9 0 19.5 1.5t19.5 3t22 6t21 7t23 9.5t21.5 9.5t23 11t21 10.5t22 11.5t20.5 10.5l141 -277q-245 -125 -422 -125 q-86 0 -160.5 33.5t-134 99.5t-93.5 176t-34 253zM281 1200l213 293h374l-297 -293h-290z" />
<glyph unicode="&#x10a;" horiz-adv-x="1142" d="M59 717q0 365 137 552t375 187q137 0 261 -47.5t292 -140.5l-166 -289q-121 64 -195.5 94.5t-135.5 30.5q-94 0 -139.5 -102.5t-45.5 -284.5t45.5 -284.5t139.5 -102.5q61 0 135.5 30.5t195.5 94.5l166 -289q-83 -46 -137 -73t-128 -57.5t-144.5 -44.5t-143.5 -14 q-238 0 -375 187.5t-137 552.5zM479 1530v266h258v-266h-258z" />
<glyph unicode="&#x10b;" horiz-adv-x="915" d="M49 539q0 143 34 252.5t93.5 175t134 98.5t160.5 33q177 0 422 -125l-141 -277q-148 80 -211 80q-127 0 -127 -237q0 -111 30.5 -175.5t94.5 -64.5q9 0 19.5 1.5t19.5 3t22 6t21 7t23 9.5t21.5 9.5t23 11t21 10.5t22 11.5t20.5 10.5l141 -277q-245 -125 -422 -125 q-86 0 -160.5 33.5t-134 99.5t-93.5 176t-34 253zM367 1221v266h258v-266h-258z" />
<glyph unicode="&#x10c;" horiz-adv-x="1142" d="M59 717q0 365 137 552t375 187q137 0 261 -47.5t292 -140.5l-166 -289q-121 64 -195.5 94.5t-135.5 30.5q-94 0 -139.5 -102.5t-45.5 -284.5t45.5 -284.5t139.5 -102.5q61 0 135.5 30.5t195.5 94.5l166 -289q-83 -46 -137 -73t-128 -57.5t-144.5 -44.5t-143.5 -14 q-238 0 -375 187.5t-137 552.5zM260 1802h238l110 -137l111 137h237l-188 -293h-319z" />
<glyph unicode="&#x10d;" horiz-adv-x="915" d="M49 539q0 143 34 252.5t93.5 175t134 98.5t160.5 33q177 0 422 -125l-141 -277q-148 80 -211 80q-127 0 -127 -237q0 -111 30.5 -175.5t94.5 -64.5q9 0 19.5 1.5t19.5 3t22 6t21 7t23 9.5t21.5 9.5t23 11t21 10.5t22 11.5t20.5 10.5l141 -277q-245 -125 -422 -125 q-86 0 -160.5 33.5t-134 99.5t-93.5 176t-34 253zM147 1493h238l111 -137l110 137h238l-189 -293h-319z" />
<glyph unicode="&#x10e;" horiz-adv-x="1288" d="M111 0v1434h456q333 0 496.5 -170.5t163.5 -546.5t-163.5 -546.5t-496.5 -170.5h-456zM319 1802h238l111 -137l110 137h238l-189 -293h-319zM485 332h68q74 0 126 16.5t94 57.5t62.5 118.5t20.5 192.5t-20.5 192.5t-62.5 118.5t-94 57.5t-126 16.5h-68v-770z" />
<glyph unicode="&#x10f;" horiz-adv-x="1273" d="M51 537q0 272 92 416.5t258 144.5q85 0 145 -31.5t130 -95.5v522h360v-1493h-360v102q-70 -63 -130.5 -94t-144.5 -31q-166 0 -258 144.5t-92 415.5zM414 539q0 -260 114 -260q80 0 148 112v293q-69 113 -148 113q-114 0 -114 -258zM1108 1049l106 168h-106v276h244 l10 -311l-193 -219z" />
<glyph unicode="&#x110;" horiz-adv-x="1314" d="M16 567v299h121v568h457q333 0 496 -170t163 -547t-163 -547t-496 -170h-457v567h-121zM512 332h68q74 0 126 16.5t94 57.5t62.5 118.5t20.5 192.5t-20.5 192.5t-62.5 118.5t-94 57.5t-126 16.5h-68v-236h203v-299h-203v-235z" />
<glyph unicode="&#x111;" horiz-adv-x="1126" d="M51 537q0 272 92 416.5t258 144.5q85 0 145 -31.5t130 -95.5v196h-283v213h283v113h360v-113h94v-213h-94v-1167h-360v102q-70 -63 -130.5 -94t-144.5 -31q-166 0 -258 144.5t-92 415.5zM414 539q0 -260 114 -260q80 0 148 112v293q-69 113 -148 113q-114 0 -114 -258z " />
<glyph unicode="&#x112;" horiz-adv-x="1103" d="M111 0v1434h919v-332h-545v-223h441v-324h-441v-223h553v-332h-927zM303 1561v215h543v-215h-543z" />
<glyph unicode="&#x113;" horiz-adv-x="1028" d="M49 535q0 267 122 415t351 148q150 0 255 -63t154.5 -169.5t49.5 -247.5q0 -42 -4.5 -81.5t-8.5 -58.5l-5 -19h-549q6 -105 36.5 -155t96.5 -50q93 0 309 117l129 -228q-98 -66 -223 -116t-258 -50q-98 0 -179.5 33t-144 99.5t-97 175t-34.5 250.5zM258 1251v215h543 v-215h-543zM414 653h227q-2 91 -27 136t-84 45q-55 0 -81.5 -44.5t-34.5 -136.5z" />
<glyph unicode="&#x116;" horiz-adv-x="1103" d="M111 0v1434h919v-332h-545v-223h441v-324h-441v-223h553v-332h-927zM446 1530v266h259v-266h-259z" />
<glyph unicode="&#x117;" horiz-adv-x="1028" d="M49 535q0 267 122 415t351 148q150 0 255 -63t154.5 -169.5t49.5 -247.5q0 -42 -4.5 -81.5t-8.5 -58.5l-5 -19h-549q6 -105 36.5 -155t96.5 -50q93 0 309 117l129 -228q-98 -66 -223 -116t-258 -50q-98 0 -179.5 33t-144 99.5t-97 175t-34.5 250.5zM403 1221v266h259 v-266h-259zM414 653h227q-2 91 -27 136t-84 45q-55 0 -81.5 -44.5t-34.5 -136.5z" />
<glyph unicode="&#x118;" horiz-adv-x="1103" d="M111 0v1434h919v-332h-545v-223h441v-324h-441v-223h553v-332h-4q-149 -106 -149 -190q0 -19 7.5 -32t17 -19.5t26.5 -10t26 -3.5t26 0.5t18 0.5l-31 -158q-1 0 -20 -0.5t-30.5 0t-36.5 2t-42 4.5t-41.5 10t-41.5 16t-36 23.5t-30.5 32.5t-19 43.5t-7.5 55.5 q0 129 161 225h-720z" />
<glyph unicode="&#x119;" horiz-adv-x="1028" d="M49 535q0 267 122 415t351 148q150 0 255 -63t154.5 -169.5t49.5 -247.5q0 -42 -4.5 -81.5t-8.5 -58.5l-5 -19h-549q6 -105 36.5 -155t96.5 -50q93 0 309 117l129 -228q-152 -103 -317 -145q-148 -106 -148 -188q0 -19 7.5 -32t17 -19.5t26.5 -10t26 -3.5t26 0.5t18 0.5 l-31 -158q-1 0 -20 -0.5t-30.5 0t-36.5 2t-42 4.5t-41.5 10t-41.5 16t-36 23.5t-30.5 32.5t-19 43.5t-7.5 55.5q0 120 133 207q-177 21 -283 159.5t-106 393.5zM414 653h227q-2 91 -27 136t-84 45q-55 0 -81.5 -44.5t-34.5 -136.5z" />
<glyph unicode="&#x11a;" horiz-adv-x="1103" d="M111 0v1434h919v-332h-545v-223h441v-324h-441v-223h553v-332h-927zM227 1800h238l110 -137l111 137h238l-189 -293h-319z" />
<glyph unicode="&#x11b;" horiz-adv-x="1028" d="M49 535q0 267 122 415t351 148q150 0 255 -63t154.5 -169.5t49.5 -247.5q0 -42 -4.5 -81.5t-8.5 -58.5l-5 -19h-549q6 -105 36.5 -155t96.5 -50q93 0 309 117l129 -228q-98 -66 -223 -116t-258 -50q-98 0 -179.5 33t-144 99.5t-97 175t-34.5 250.5zM184 1493h238 l110 -137l111 137h238l-189 -293h-319zM414 653h227q-2 91 -27 136t-84 45q-55 0 -81.5 -44.5t-34.5 -136.5z" />
<glyph unicode="&#x11e;" horiz-adv-x="1245" d="M59 719q0 363 140.5 550t382.5 187q144 0 276 -49t301 -141l-164 -289q-93 46 -140.5 67.5t-109.5 40.5t-108 19q-195 0 -195 -402q0 -393 189 -393q100 0 194 135v97h-229v307h573v-848h-344v121q-137 -144 -293 -144q-97 0 -181.5 46.5t-150 135.5t-103.5 233t-38 327z M299 1782h209q0 -34 28 -55t78 -21t79.5 21t29.5 55h209q0 -127 -84 -200t-234 -73q-148 0 -231.5 73t-83.5 200z" />
<glyph unicode="&#x11f;" horiz-adv-x="1126" d="M51 537q0 272 92 416.5t258 144.5q85 0 145 -31.5t130 -95.5v104h360v-1057q0 -235 -100.5 -345.5t-329.5 -110.5q-116 0 -255.5 25t-262.5 67l76 280q90 -32 193.5 -56.5t166.5 -24.5q88 0 120 35t32 116v98q-70 -63 -130.5 -94t-144.5 -31q-166 0 -258 144.5t-92 415.5 zM250 1473h209q0 -34 28 -55t78 -21t79.5 21t29.5 55h209q0 -127 -84 -200t-234 -73q-148 0 -231.5 73t-83.5 200zM414 539q0 -260 114 -260q80 0 148 112v293q-69 113 -148 113q-114 0 -114 -258z" />
<glyph unicode="&#x120;" horiz-adv-x="1245" d="M59 719q0 363 140.5 550t382.5 187q144 0 276 -49t301 -141l-164 -289q-93 46 -140.5 67.5t-109.5 40.5t-108 19q-195 0 -195 -402q0 -393 189 -393q100 0 194 135v97h-229v307h573v-848h-344v121q-137 -144 -293 -144q-97 0 -181.5 46.5t-150 135.5t-103.5 233t-38 327z M483 1530v266h258v-266h-258z" />
<glyph unicode="&#x121;" horiz-adv-x="1126" d="M51 537q0 272 92 416.5t258 144.5q85 0 145 -31.5t130 -95.5v104h360v-1057q0 -235 -100.5 -345.5t-329.5 -110.5q-116 0 -255.5 25t-262.5 67l76 280q90 -32 193.5 -56.5t166.5 -24.5q88 0 120 35t32 116v98q-70 -63 -130.5 -94t-144.5 -31q-166 0 -258 144.5t-92 415.5 zM414 539q0 -260 114 -260q80 0 148 112v293q-69 113 -148 113q-114 0 -114 -258zM432 1221v266h258v-266h-258z" />
<glyph unicode="&#x122;" horiz-adv-x="1245" d="M59 719q0 363 140.5 550t382.5 187q144 0 276 -49t301 -141l-164 -289q-93 46 -140.5 67.5t-109.5 40.5t-108 19q-195 0 -195 -402q0 -393 189 -393q100 0 194 135v97h-229v307h573v-848h-344v121q-137 -144 -293 -144q-97 0 -181.5 46.5t-150 135.5t-103.5 233t-38 327z M516 -109h244l10 -311l-192 -219l-62 86l107 168h-107v276z" />
<glyph unicode="&#x123;" horiz-adv-x="1126" d="M51 537q0 272 92 416.5t258 144.5q85 0 145 -31.5t130 -95.5v104h360v-1057q0 -235 -100.5 -345.5t-329.5 -110.5q-116 0 -255.5 25t-262.5 67l76 280q90 -32 193.5 -56.5t166.5 -24.5q88 0 120 35t32 116v98q-70 -63 -130.5 -94t-144.5 -31q-166 0 -258 144.5t-92 415.5 zM414 539q0 -260 114 -260q80 0 148 112v293q-69 113 -148 113q-114 0 -114 -258zM436 1532l193 219l61 -86l-106 -168h106v-276h-244z" />
<glyph unicode="&#x126;" horiz-adv-x="1351" d="M10 1049v215h125v170h375v-170h332v170h372v-170h129v-215h-129v-1049h-372v590h-332v-590h-375v1049h-125zM510 915h332v134h-332v-134z" />
<glyph unicode="&#x127;" horiz-adv-x="1128" d="M-4 1167v213h94v113h359v-113h284v-213h-284v-206q85 66 158 101.5t165 35.5q135 0 202.5 -85.5t67.5 -246.5v-766h-358v684q0 123 -74 123q-41 0 -84.5 -34.5t-76.5 -78.5v-694h-359v1167h-94z" />
<glyph unicode="&#x128;" horiz-adv-x="595" d="M-61 1595q52 118 80 157q58 83 141 83q42 0 94.5 -24t96.5 -48t67 -24q13 0 23.5 5t28.5 27t36 62l147 -80q-15 -36 -21.5 -50.5t-22 -46.5t-26 -46.5t-28.5 -37t-34.5 -33t-39 -18.5t-47.5 -8q-43 0 -96 24t-97 48.5t-67 24.5q-43 0 -88 -94zM111 0v1434h374v-1434h-374 z" />
<glyph unicode="&#x129;" horiz-adv-x="538" d="M-90 1286q52 118 80 157q58 83 141 83q42 0 94.5 -24t96.5 -48t67 -24q13 0 23.5 5t28.5 27t36 62l148 -80q-15 -36 -21.5 -50.5t-22 -46.5t-26 -46.5t-28.5 -37t-34.5 -33t-39 -18.5t-47.5 -8q-43 0 -96 24t-97.5 48t-67.5 24q-43 0 -88 -94zM90 0v1075h359v-1075h-359z " />
<glyph unicode="&#x12a;" horiz-adv-x="595" d="M25 1561v215h542v-215h-542zM111 0v1434h374v-1434h-374z" />
<glyph unicode="&#x12b;" horiz-adv-x="538" d="M-2 1251v215h543v-215h-543zM90 0v1075h359v-1075h-359z" />
<glyph unicode="&#x12c;" horiz-adv-x="593" d="M-20 1782h208q0 -34 28.5 -55t78.5 -21t79 21t29 55h209q0 -127 -83.5 -200t-233.5 -73q-148 0 -231.5 73t-83.5 200zM111 0v1434h374v-1434h-374z" />
<glyph unicode="&#x12d;" horiz-adv-x="538" d="M-47 1473h209q0 -34 28 -55t78 -21t79.5 21t29.5 55h209q0 -127 -84 -200t-234 -73q-148 0 -231.5 73t-83.5 200zM90 0v1075h359v-1075h-359z" />
<glyph unicode="&#x12e;" horiz-adv-x="595" d="M111 0v1434h374v-1434h-6q-149 -106 -149 -190q0 -19 7.5 -32t17 -19.5t26.5 -10t26 -3.5t26 0.5t18 0.5l-31 -158q-1 0 -20 -0.5t-30.5 0t-36.5 2t-42 4.5t-41.5 10t-41.5 16t-36 23.5t-30.5 32.5t-19 43.5t-7.5 55.5q0 129 161 225h-165z" />
<glyph unicode="&#x12f;" horiz-adv-x="538" d="M76 -225q0 128 162 225h-150v1075h358v-1075h-6q-149 -106 -149 -190q0 -19 7.5 -32t17 -19.5t26.5 -10t26 -3.5t26 0.5t18 0.5l-31 -158q-1 0 -20 -0.5t-30.5 0t-36.5 2t-42 4.5t-41.5 10t-41.5 16t-36 23.5t-30.5 32.5t-19 43.5t-7.5 55.5zM82 1192v295h371v-295h-371z " />
<glyph unicode="&#x130;" horiz-adv-x="595" d="M111 0v1434h374v-1434h-374zM168 1530v266h258v-266h-258z" />
<glyph unicode="&#x131;" horiz-adv-x="538" d="M90 0v1075h359v-1075h-359z" />
<glyph unicode="&#x132;" horiz-adv-x="1189" d="M111 0v1434h374v-1434h-374zM514 -111q37 15 64.5 27t48.5 26t34.5 23.5t23 26t14 26.5t7 32t3 36t0.5 45v1303h372v-1280q0 -74 -1 -108t-6 -89t-16.5 -81t-32.5 -65.5t-53 -61.5t-79 -51t-110.5 -51t-147.5 -46z" />
<glyph unicode="&#x133;" horiz-adv-x="1075" d="M84 1192v295h371v-295h-371zM90 0v1075h359v-1075h-359zM434 -209q38 16 64.5 27.5t48 26t35 23.5t23 26t14 27t7 34t3 39t0.5 49v1032h358v-1001q0 -60 -0.5 -88t-3 -75.5t-8 -69.5t-16.5 -59t-27 -55t-39.5 -46.5t-55.5 -45t-74.5 -38.5t-95 -39.5t-118.5 -36.5z M623 1192v295h370v-295h-370z" />
<glyph unicode="&#x134;" horiz-adv-x="595" d="M-82 -111q37 15 64.5 27t48.5 26t34.5 23.5t23 26t14 26.5t7 32t3 36t0.5 45v1303h372v-1280q0 -74 -1 -108t-6 -89t-16.5 -81t-32.5 -65.5t-53 -61.5t-79 -51t-110.5 -51t-147.5 -46zM-51 1509l188 293h320l188 -293h-237l-111 138l-111 -138h-237z" />
<glyph unicode="&#x135;" horiz-adv-x="538" d="M-104 -209q38 16 64.5 27.5t48 26t34.5 23.5t23 26t14.5 27t6.5 34t2.5 38.5t0.5 49.5v1032h359v-1001q0 -66 -0.5 -97.5t-4.5 -83t-11.5 -76t-22 -63.5t-37 -59.5t-55 -49t-76.5 -47t-101.5 -39t-130.5 -38.5zM-80 1200l189 293h319l188 -293h-237l-111 137l-110 -137 h-238z" />
<glyph unicode="&#x136;" horiz-adv-x="1275" d="M111 0v1434h374v-527l342 527h455l-481 -650l483 -784h-442l-271 471l-86 -117v-354h-374zM510 -109h244l10 -311l-193 -219l-61 86l106 168h-106v276z" />
<glyph unicode="&#x137;" horiz-adv-x="1077" d="M90 0v1493h359v-745l186 327h412l-308 -424l357 -651h-377l-189 365l-81 -115v-250h-359zM422 -109h244l10 -311l-193 -219l-61 86l106 168h-106v276z" />
<glyph unicode="&#x138;" horiz-adv-x="1077" d="M90 0v1075h359v-327l186 327h412l-308 -424l357 -651h-377l-189 365l-81 -115v-250h-359z" />
<glyph unicode="&#x139;" horiz-adv-x="1036" d="M82 1509l213 293h375l-297 -293h-291zM111 0v1434h374v-1102h527v-332h-901z" />
<glyph unicode="&#x13a;" horiz-adv-x="540" d="M55 1575l213 293h375l-297 -293h-291zM92 0v1493h359v-1493h-359z" />
<glyph unicode="&#x13b;" horiz-adv-x="1036" d="M111 0v1434h374v-1102h527v-332h-901zM428 -109h244l10 -311l-193 -219l-61 86l107 168h-107v276z" />
<glyph unicode="&#x13c;" horiz-adv-x="542" d="M92 0v1493h359v-1493h-359zM154 -109h243l11 -311l-193 -219l-61 86l106 168h-106v276z" />
<glyph unicode="&#x13d;" horiz-adv-x="1036" d="M111 0v1434h374v-1102h527v-332h-901zM557 989l107 168h-107v277h244l10 -312l-193 -219z" />
<glyph unicode="&#x13e;" horiz-adv-x="688" d="M92 0v1493h359v-1493h-359zM524 1049l107 168h-107v276h244l10 -311l-192 -219z" />
<glyph unicode="&#x13f;" horiz-adv-x="1038" d="M111 0v1434h374v-1102h527v-332h-901zM678 627v266h258v-266h-258z" />
<glyph unicode="&#x140;" horiz-adv-x="778" d="M92 0v1493h359v-1493h-359zM524 627v266h258v-266h-258z" />
<glyph unicode="&#x141;" horiz-adv-x="1058" d="M25 362v343l108 69v660h375v-420l215 137v-342l-215 -137v-340h526v-332h-901v432z" />
<glyph unicode="&#x142;" horiz-adv-x="616" d="M29 399v342l96 62v690h358v-463l95 62v-342l-95 -62v-688h-358v461z" />
<glyph unicode="&#x143;" horiz-adv-x="1329" d="M111 0v1434h376l357 -768v768h373v-1434h-375l-357 768v-768h-374zM459 1509l213 293h375l-297 -293h-291z" />
<glyph unicode="&#x144;" horiz-adv-x="1128" d="M90 0v1075h359v-114q79 64 155 100.5t168 36.5q135 0 202.5 -85.5t67.5 -246.5v-766h-358v684q0 123 -74 123q-41 0 -84.5 -34.5t-76.5 -78.5v-694h-359zM352 1200l213 293h375l-297 -293h-291z" />
<glyph unicode="&#x145;" horiz-adv-x="1329" d="M111 0v1434h376l357 -768v768h373v-1434h-375l-357 768v-768h-374zM557 -109h244l10 -311l-193 -219l-61 86l107 168h-107v276z" />
<glyph unicode="&#x146;" horiz-adv-x="1128" d="M90 0v1075h359v-114q79 64 155 100.5t168 36.5q135 0 202.5 -85.5t67.5 -246.5v-766h-358v684q0 123 -74 123q-41 0 -84.5 -34.5t-76.5 -78.5v-694h-359zM451 -109h243l11 -311l-193 -219l-61 86l106 168h-106v276z" />
<glyph unicode="&#x147;" horiz-adv-x="1329" d="M111 0v1434h376l357 -768v768h373v-1434h-375l-357 768v-768h-374zM326 1802h237l111 -137l110 137h238l-188 -293h-320z" />
<glyph unicode="&#x148;" horiz-adv-x="1128" d="M90 0v1075h359v-114q79 64 155 100.5t168 36.5q135 0 202.5 -85.5t67.5 -246.5v-766h-358v684q0 123 -74 123q-41 0 -84.5 -34.5t-76.5 -78.5v-694h-359zM217 1493h238l110 -137l111 137h237l-188 -293h-319z" />
<glyph unicode="&#x149;" horiz-adv-x="1128" d="M88 1219l107 167h-107v277h244l10 -311l-192 -219zM90 0v1075h359v-114q79 64 155 100.5t168 36.5q135 0 202.5 -85.5t67.5 -246.5v-766h-358v684q0 123 -74 123q-41 0 -84.5 -34.5t-76.5 -78.5v-694h-359z" />
<glyph unicode="&#x14a;" horiz-adv-x="1329" d="M111 0v1434h376l357 -766v766h373v-1315q0 -83 -3.5 -130t-17.5 -102.5t-42 -88.5t-77.5 -70.5t-123.5 -66.5t-181 -60l-121 288q92 35 132.5 60t54.5 59l-353 758v-766h-374z" />
<glyph unicode="&#x14b;" horiz-adv-x="1126" d="M90 0v1075h359v-114q79 64 155 100.5t168 36.5q135 0 202.5 -85.5t67.5 -246.5v-692q0 -60 -0.5 -88t-3 -75.5t-8 -69.5t-16.5 -59t-27 -55t-39.5 -46.5t-55.5 -45t-74.5 -38.5t-95 -39.5t-118.5 -36.5l-112 270q37 16 63.5 27.5t48 26t34.5 23.5t22.5 26t14 27t7 34 t2.5 38.5v49.5v641q0 123 -74 123q-41 0 -84.5 -34.5t-76.5 -78.5v-694h-359z" />
<glyph unicode="&#x14c;" horiz-adv-x="1347" d="M55 717q0 128 21 237t67.5 202.5t117.5 159.5t176 103t237 37t237 -37t175.5 -103t117.5 -159.5t67.5 -202.5t20.5 -237t-20.5 -237t-67.5 -203t-117.5 -159.5t-175.5 -103t-237 -37.5t-237 37.5t-176 103t-118 159.5t-67.5 203t-20.5 237zM401 1561v215h543v-215h-543z M438 717q0 -126 21 -213t75 -140t140 -53q65 0 111.5 29t73 84.5t38.5 127t12 165.5q0 192 -54.5 298.5t-180.5 106.5q-236 0 -236 -405z" />
<glyph unicode="&#x14d;" horiz-adv-x="1095" d="M47 539q0 270 127.5 414.5t374.5 144.5q245 0 373.5 -146t128.5 -415q0 -270 -127.5 -415t-374.5 -145q-245 0 -373.5 146t-128.5 416zM276 1251v215h543v-215h-543zM410 539q0 -136 32.5 -205.5t106.5 -69.5q139 0 139 273q0 274 -139 274q-74 0 -106.5 -68t-32.5 -204z " />
<glyph unicode="&#x14e;" horiz-adv-x="1347" d="M55 717q0 128 21 237t67.5 202.5t117.5 159.5t176 103t237 37t237 -37t175.5 -103t117.5 -159.5t67.5 -202.5t20.5 -237t-20.5 -237t-67.5 -203t-117.5 -159.5t-175.5 -103t-237 -37.5t-237 37.5t-176 103t-118 159.5t-67.5 203t-20.5 237zM360 1782h209q0 -34 28.5 -55 t78.5 -21t79 21t29 55h209q0 -127 -83.5 -200t-233.5 -73q-148 0 -232 73t-84 200zM438 717q0 -126 21 -213t75 -140t140 -53q65 0 111.5 29t73 84.5t38.5 127t12 165.5q0 192 -54.5 298.5t-180.5 106.5q-236 0 -236 -405z" />
<glyph unicode="&#x14f;" horiz-adv-x="1095" d="M47 539q0 270 127.5 414.5t374.5 144.5q245 0 373.5 -146t128.5 -415q0 -270 -127.5 -415t-374.5 -145q-245 0 -373.5 146t-128.5 416zM233 1473h209q0 -34 28.5 -55t78.5 -21t79 21t29 55h209q0 -127 -83.5 -200t-233.5 -73q-148 0 -232 73t-84 200zM410 539 q0 -136 32.5 -205.5t106.5 -69.5q139 0 139 273q0 274 -139 274q-74 0 -106.5 -68t-32.5 -204z" />
<glyph unicode="&#x150;" horiz-adv-x="1347" d="M55 717q0 128 21 237t67.5 202.5t117.5 159.5t176 103t237 37t237 -37t175.5 -103t117.5 -159.5t67.5 -202.5t20.5 -237t-20.5 -237t-67.5 -203t-117.5 -159.5t-175.5 -103t-237 -37.5t-237 37.5t-176 103t-118 159.5t-67.5 203t-20.5 237zM369 1509l141 293h293 l-225 -293h-209zM438 717q0 -126 21 -213t75 -140t140 -53q65 0 111.5 29t73 84.5t38.5 127t12 165.5q0 192 -54.5 298.5t-180.5 106.5q-236 0 -236 -405zM715 1509l141 293h293l-225 -293h-209z" />
<glyph unicode="&#x151;" horiz-adv-x="1095" d="M47 539q0 270 127.5 414.5t374.5 144.5q245 0 373.5 -146t128.5 -415q0 -270 -127.5 -415t-374.5 -145q-245 0 -373.5 146t-128.5 416zM244 1200l141 293h293l-225 -293h-209zM410 539q0 -136 32.5 -205.5t106.5 -69.5q139 0 139 273q0 274 -139 274q-74 0 -106.5 -68 t-32.5 -204zM590 1200l141 293h293l-225 -293h-209z" />
<glyph unicode="&#x152;" horiz-adv-x="1904" d="M55 717q0 128 21 237t67.5 202.5t117.5 159.5t176 103t237 37q124 0 237 -37v15h920v-332h-545v-223h440v-324h-440v-223h553v-332h-928v14q-113 -37 -237 -37q-132 0 -237 37.5t-176 103t-118 159.5t-67.5 203t-20.5 237zM438 717q0 -126 21 -213t75 -140t140 -53 q65 0 111.5 29t73 84.5t38.5 127t12 165.5q0 192 -54.5 298.5t-180.5 106.5q-236 0 -236 -405z" />
<glyph unicode="&#x153;" horiz-adv-x="1669" d="M47 539q0 270 127.5 414.5t374.5 144.5q194 0 317 -94q117 94 297 94q150 0 255 -63t154.5 -169.5t49.5 -247.5q0 -42 -4.5 -81.5t-9.5 -58.5l-4 -19h-549q6 -105 36.5 -155t96.5 -50q93 0 309 117l129 -228q-98 -66 -223 -116t-258 -50q-165 0 -281 91 q-123 -91 -315 -91q-245 0 -373.5 146t-128.5 416zM410 539q0 -136 32.5 -205.5t106.5 -69.5q139 0 139 273q0 274 -139 274q-74 0 -106.5 -68t-32.5 -204zM1055 653h227q-2 91 -27 136t-84 45q-55 0 -81.5 -44.5t-34.5 -136.5z" />
<glyph unicode="&#x154;" horiz-adv-x="1263" d="M111 0v1434h548q291 0 421 -114t130 -343q0 -167 -66.5 -272t-211.5 -150l280 -555h-401l-246 520h-80v-520h-374zM446 1509l213 293h375l-297 -293h-291zM485 825h164q89 0 137 32.5t48 119.5t-47.5 119t-137.5 32h-164v-303z" />
<glyph unicode="&#x155;" horiz-adv-x="798" d="M90 0v1075h359v-221q10 27 22.5 52t40.5 63t61 63.5t86 42.5t115 12v-354q-60 0 -110.5 -19t-83 -49.5t-58 -67.5t-38.5 -74t-21.5 -67.5t-10.5 -49.5l-3 -19v-387h-359zM217 1200l213 293h375l-297 -293h-291z" />
<glyph unicode="&#x156;" horiz-adv-x="1263" d="M111 0v1434h548q291 0 421 -114t130 -343q0 -167 -66.5 -272t-211.5 -150l280 -555h-401l-246 520h-80v-520h-374zM485 825h164q89 0 137 32.5t48 119.5t-47.5 119t-137.5 32h-164v-303zM510 -109h244l10 -311l-193 -219l-61 86l106 168h-106v276z" />
<glyph unicode="&#x157;" horiz-adv-x="798" d="M90 0v1075h359v-221q10 27 22.5 52t40.5 63t61 63.5t86 42.5t115 12v-354q-60 0 -110.5 -19t-83 -49.5t-58 -67.5t-38.5 -74t-21.5 -67.5t-10.5 -49.5l-3 -19v-387h-359zM154 -109h243l11 -311l-193 -219l-61 86l106 168h-106v276z" />
<glyph unicode="&#x158;" horiz-adv-x="1263" d="M111 0v1434h548q291 0 421 -114t130 -343q0 -167 -66.5 -272t-211.5 -150l280 -555h-401l-246 520h-80v-520h-374zM313 1802h238l111 -137l110 137h238l-189 -293h-319zM485 825h164q89 0 137 32.5t48 119.5t-47.5 119t-137.5 32h-164v-303z" />
<glyph unicode="&#x159;" horiz-adv-x="798" d="M84 1493h238l110 -137l111 137h237l-188 -293h-320zM90 0v1075h359v-221q10 27 22.5 52t40.5 63t61 63.5t86 42.5t115 12v-354q-60 0 -110.5 -19t-83 -49.5t-58 -67.5t-38.5 -74t-21.5 -67.5t-10.5 -49.5l-3 -19v-387h-359z" />
<glyph unicode="&#x15a;" horiz-adv-x="1150" d="M35 180l168 275q88 -56 208.5 -104t194.5 -48q47 0 77 21t30 61q0 29 -17.5 52t-55 43.5t-77 38t-102.5 46t-113 56.5q-46 26 -82.5 51t-77 63.5t-67.5 80t-44.5 99t-17.5 121.5q0 87 30 162.5t87.5 133.5t150.5 91t210 33q140 0 281.5 -44.5t260.5 -111.5l-170 -280 q-81 43 -179.5 76.5t-164.5 33.5q-49 0 -79.5 -20t-30.5 -59q0 -35 32.5 -65t75 -49t120.5 -53t132 -63q46 -26 80 -49t77 -62t70.5 -80t46.5 -100.5t19 -126.5q0 -87 -29.5 -162.5t-86 -135t-149 -94t-210.5 -34.5q-164 0 -325 60.5t-273 142.5zM358 1509l213 293h375 l-297 -293h-291z" />
<glyph unicode="&#x15b;" horiz-adv-x="972" d="M33 121l137 260q77 -44 182 -80.5t168 -36.5q58 0 58 33q0 16 -11.5 29t-36 24t-44.5 18.5t-56.5 18.5t-52.5 16q-49 16 -92 36t-87.5 51.5t-75.5 69.5t-51 91.5t-20 114.5q0 143 99.5 237.5t287.5 94.5q120 0 247 -36.5t216 -84.5l-139 -244q-69 30 -154 55t-137 25 q-59 0 -59 -37q0 -10 4.5 -18.5t14.5 -16t21 -13t30.5 -12.5t36.5 -12.5t44.5 -14t48.5 -15.5q50 -17 90 -35t87 -49.5t78.5 -68t53 -91t21.5 -119.5q0 -148 -103 -241t-296 -93q-135 0 -278.5 43.5t-231.5 100.5zM272 1200l213 293h375l-297 -293h-291z" />
<glyph unicode="&#x15c;" horiz-adv-x="1150" d="M35 180l168 275q88 -56 208.5 -104t194.5 -48q47 0 77 21t30 61q0 29 -17.5 52t-55 43.5t-77 38t-102.5 46t-113 56.5q-46 26 -82.5 51t-77 63.5t-67.5 80t-44.5 99t-17.5 121.5q0 87 30 162.5t87.5 133.5t150.5 91t210 33q140 0 281.5 -44.5t260.5 -111.5l-170 -280 q-81 43 -179.5 76.5t-164.5 33.5q-49 0 -79.5 -20t-30.5 -59q0 -35 32.5 -65t75 -49t120.5 -53t132 -63q46 -26 80 -49t77 -62t70.5 -80t46.5 -100.5t19 -126.5q0 -87 -29.5 -162.5t-86 -135t-149 -94t-210.5 -34.5q-164 0 -325 60.5t-273 142.5zM223 1509l189 293h319 l189 -293h-238l-111 138l-110 -138h-238z" />
<glyph unicode="&#x15d;" horiz-adv-x="972" d="M33 121l137 260q77 -44 182 -80.5t168 -36.5q58 0 58 33q0 16 -11.5 29t-36 24t-44.5 18.5t-56.5 18.5t-52.5 16q-49 16 -92 36t-87.5 51.5t-75.5 69.5t-51 91.5t-20 114.5q0 143 99.5 237.5t287.5 94.5q120 0 247 -36.5t216 -84.5l-139 -244q-69 30 -154 55t-137 25 q-59 0 -59 -37q0 -10 4.5 -18.5t14.5 -16t21 -13t30.5 -12.5t36.5 -12.5t44.5 -14t48.5 -15.5q50 -17 90 -35t87 -49.5t78.5 -68t53 -91t21.5 -119.5q0 -148 -103 -241t-296 -93q-135 0 -278.5 43.5t-231.5 100.5zM141 1200l189 293h319l189 -293h-238l-111 137l-110 -137 h-238z" />
<glyph unicode="&#x15e;" horiz-adv-x="1150" d="M35 180l168 275q88 -56 208.5 -104t194.5 -48q47 0 77 21t30 61q0 29 -17.5 52t-55 43.5t-77 38t-102.5 46t-113 56.5q-46 26 -82.5 51t-77 63.5t-67.5 80t-44.5 99t-17.5 121.5q0 87 30 162.5t87.5 133.5t150.5 91t210 33q140 0 281.5 -44.5t260.5 -111.5l-170 -280 q-81 43 -179.5 76.5t-164.5 33.5q-49 0 -79.5 -20t-30.5 -59q0 -35 32.5 -65t75 -49t120.5 -53t132 -63q46 -26 80 -49t77 -62t70.5 -80t46.5 -100.5t19 -126.5q0 -107 -42 -195t-132.5 -149t-220.5 -75q51 -94 51 -174q0 -101 -61 -150t-152 -49q-98 0 -166 47l66 176 q39 -22 73 -22q68 0 68 65q0 35 -31 105q-149 13 -289 69.5t-237 128.5z" />
<glyph unicode="&#x15f;" horiz-adv-x="972" d="M33 121l137 260q77 -44 182 -80.5t168 -36.5q58 0 58 33q0 16 -11.5 29t-36 24t-44.5 18.5t-56.5 18.5t-52.5 16q-49 16 -92 36t-87.5 51.5t-75.5 69.5t-51 91.5t-20 114.5q0 143 99.5 237.5t287.5 94.5q120 0 247 -36.5t216 -84.5l-139 -244q-69 30 -154 55t-137 25 q-59 0 -59 -37q0 -10 4.5 -18.5t14.5 -16t21 -13t30.5 -12.5t36.5 -12.5t44.5 -14t48.5 -15.5q50 -17 90 -35t87 -49.5t78.5 -68t53 -91t21.5 -119.5q0 -127 -77 -214.5t-224 -110.5q51 -88 51 -176q0 -101 -61 -150t-152 -49q-98 0 -166 47l66 176q39 -22 74 -22 q67 0 67 65q0 38 -31 103q-124 8 -251 49.5t-205 91.5z" />
<glyph unicode="&#x160;" horiz-adv-x="1150" d="M35 180l168 275q88 -56 208.5 -104t194.5 -48q47 0 77 21t30 61q0 29 -17.5 52t-55 43.5t-77 38t-102.5 46t-113 56.5q-46 26 -82.5 51t-77 63.5t-67.5 80t-44.5 99t-17.5 121.5q0 87 30 162.5t87.5 133.5t150.5 91t210 33q140 0 281.5 -44.5t260.5 -111.5l-170 -280 q-81 43 -179.5 76.5t-164.5 33.5q-49 0 -79.5 -20t-30.5 -59q0 -35 32.5 -65t75 -49t120.5 -53t132 -63q46 -26 80 -49t77 -62t70.5 -80t46.5 -100.5t19 -126.5q0 -87 -29.5 -162.5t-86 -135t-149 -94t-210.5 -34.5q-164 0 -325 60.5t-273 142.5zM223 1802h238l110 -137 l111 137h238l-189 -293h-319z" />
<glyph unicode="&#x161;" horiz-adv-x="972" d="M33 121l137 260q77 -44 182 -80.5t168 -36.5q58 0 58 33q0 16 -11.5 29t-36 24t-44.5 18.5t-56.5 18.5t-52.5 16q-49 16 -92 36t-87.5 51.5t-75.5 69.5t-51 91.5t-20 114.5q0 143 99.5 237.5t287.5 94.5q120 0 247 -36.5t216 -84.5l-139 -244q-69 30 -154 55t-137 25 q-59 0 -59 -37q0 -10 4.5 -18.5t14.5 -16t21 -13t30.5 -12.5t36.5 -12.5t44.5 -14t48.5 -15.5q50 -17 90 -35t87 -49.5t78.5 -68t53 -91t21.5 -119.5q0 -148 -103 -241t-296 -93q-135 0 -278.5 43.5t-231.5 100.5zM139 1493h238l110 -137l111 137h238l-189 -293h-319z" />
<glyph unicode="&#x162;" horiz-adv-x="1064" d="M27 1102v332h1011v-332h-315v-1102h-111q62 -99 62 -190q0 -101 -61 -150t-152 -49q-98 0 -166 47l65 176q38 -22 74 -22q68 0 68 65q0 57 -41 123h-113v1102h-321z" />
<glyph unicode="&#x163;" horiz-adv-x="806" d="M39 801v274h119v254l358 57v-311h236v-274h-236v-402q0 -31 6 -51.5t16.5 -29t19 -11t20.5 -2.5q37 0 110 41l121 -274q-146 -74 -268 -90q51 -88 51 -172q0 -101 -61 -150t-152 -49q-98 0 -166 47l66 176q39 -22 73 -22q68 0 68 65q0 40 -33 109q-120 24 -174.5 123 t-54.5 276v416h-119z" />
<glyph unicode="&#x164;" horiz-adv-x="1064" d="M27 1102v332h1011v-332h-315v-1102h-375v1102h-321zM184 1802h238l110 -137l111 137h238l-189 -293h-319z" />
<glyph unicode="&#x165;" horiz-adv-x="806" d="M39 801v274h119v254l358 57v-311h236v-274h-236v-402q0 -31 6 -51.5t16.5 -29t19 -11t20.5 -2.5q37 0 110 41l121 -274q-190 -95 -332 -95q-168 0 -243.5 100.5t-75.5 307.5v416h-119zM580 1219l106 167h-106v277h243l11 -311l-193 -219z" />
<glyph unicode="&#x166;" horiz-adv-x="1077" d="M33 1102v332h1011v-332h-315v-473h133v-215h-133v-414h-375v414h-133v215h133v473h-321z" />
<glyph unicode="&#x167;" horiz-adv-x="804" d="M39 801v274h119v254l358 57v-311h236v-274h-236v-101h182v-213h-182v-88q0 -31 6 -51.5t16.5 -29t19 -11t20.5 -2.5q37 0 110 41l121 -274q-190 -95 -332 -95q-168 0 -243.5 100.5t-75.5 307.5v102h-84v213h84v101h-119z" />
<glyph unicode="&#x168;" horiz-adv-x="1282" d="M98 569v865h375v-902q0 -50 6.5 -87t24 -69t52 -48.5t85.5 -16.5q52 0 86.5 16.5t52 48.5t24.5 68.5t7 87.5v902h373v-865q0 -107 -12.5 -188.5t-47.5 -160.5t-94 -130t-157.5 -82t-231.5 -31t-231 31t-157 82t-94.5 129.5t-48 161t-12.5 188.5zM279 1595q52 118 80 157 q58 83 141 83q42 0 94.5 -24t96.5 -48t67 -24q13 0 23.5 5t28.5 27t36 62l147 -80q-15 -36 -21.5 -50.5t-22 -46.5t-26 -46.5t-28.5 -37t-34.5 -33t-39 -18.5t-47.5 -8q-43 0 -96 24t-97 48.5t-67 24.5q-43 0 -88 -94z" />
<glyph unicode="&#x169;" horiz-adv-x="1128" d="M84 309v766h360v-684q0 -58 15.5 -90.5t56.5 -32.5q68 0 162 109v698h360v-1075h-360v111q-79 -63 -155 -98.5t-167 -35.5q-135 0 -203.5 86t-68.5 246zM219 1286q52 118 80 157q58 83 141 83q42 0 94.5 -24t96.5 -48t67 -24q13 0 23.5 5t28.5 27t36 62l148 -80 q-15 -36 -21.5 -50.5t-22 -46.5t-26 -46.5t-28.5 -37t-34.5 -33t-39 -18.5t-47.5 -8q-43 0 -96 24t-97 48t-67 24q-43 0 -88 -94z" />
<glyph unicode="&#x16a;" horiz-adv-x="1282" d="M98 569v865h375v-902q0 -50 6.5 -87t24 -69t52 -48.5t85.5 -16.5q52 0 86.5 16.5t52 48.5t24.5 68.5t7 87.5v902h373v-865q0 -107 -12.5 -188.5t-47.5 -160.5t-94 -130t-157.5 -82t-231.5 -31t-231 31t-157 82t-94.5 129.5t-48 161t-12.5 188.5zM369 1561v215h542v-215 h-542z" />
<glyph unicode="&#x16b;" horiz-adv-x="1128" d="M84 309v766h360v-684q0 -58 15.5 -90.5t56.5 -32.5q68 0 162 109v698h360v-1075h-360v111q-79 -63 -155 -98.5t-167 -35.5q-135 0 -203.5 86t-68.5 246zM289 1251v215h542v-215h-542z" />
<glyph unicode="&#x16c;" horiz-adv-x="1282" d="M98 569v865h375v-902q0 -50 6.5 -87t24 -69t52 -48.5t85.5 -16.5q52 0 86.5 16.5t52 48.5t24.5 68.5t7 87.5v902h373v-865q0 -107 -12.5 -188.5t-47.5 -160.5t-94 -130t-157.5 -82t-231.5 -31t-231 31t-157 82t-94.5 129.5t-48 161t-12.5 188.5zM326 1782h209 q0 -34 28 -55t78 -21t79.5 21t29.5 55h208q0 -127 -83.5 -200t-233.5 -73q-148 0 -231.5 73t-83.5 200z" />
<glyph unicode="&#x16d;" horiz-adv-x="1128" d="M84 309v766h360v-684q0 -58 15.5 -90.5t56.5 -32.5q68 0 162 109v698h360v-1075h-360v111q-79 -63 -155 -98.5t-167 -35.5q-135 0 -203.5 86t-68.5 246zM244 1473h209q0 -34 28 -55t78 -21t79.5 21t29.5 55h209q0 -127 -84 -200t-234 -73q-148 0 -231.5 73t-83.5 200z " />
<glyph unicode="&#x16e;" horiz-adv-x="1282" d="M98 569v865h375v-902q0 -50 6.5 -87t24 -69t52 -48.5t85.5 -16.5q52 0 86.5 16.5t52 48.5t24.5 68.5t7 87.5v902h373v-865q0 -107 -12.5 -188.5t-47.5 -160.5t-94 -130t-157.5 -82t-231.5 -31t-231 31t-157 82t-94.5 129.5t-48 161t-12.5 188.5zM418 1714q0 94 66 161 t159 67q92 0 158.5 -67t66.5 -161q0 -93 -66 -159t-159 -66q-94 0 -159.5 65.5t-65.5 159.5zM580 1714q0 -26 18.5 -44.5t44.5 -18.5t45 18.5t19 44.5t-19 46t-45 20t-44.5 -19.5t-18.5 -46.5z" />
<glyph unicode="&#x16f;" horiz-adv-x="1128" d="M84 309v766h360v-684q0 -58 15.5 -90.5t56.5 -32.5q68 0 162 109v698h360v-1075h-360v111q-79 -63 -155 -98.5t-167 -35.5q-135 0 -203.5 86t-68.5 246zM338 1405q0 94 65.5 160.5t159.5 66.5q92 0 158.5 -66.5t66.5 -160.5q0 -93 -66 -159t-159 -66q-94 0 -159.5 65.5 t-65.5 159.5zM500 1405q0 -26 18.5 -45t44.5 -19t45 19t19 45t-19 45.5t-45 19.5t-44.5 -19.5t-18.5 -45.5z" />
<glyph unicode="&#x170;" horiz-adv-x="1282" d="M98 569v865h375v-902q0 -50 6.5 -87t24 -69t52 -48.5t85.5 -16.5q52 0 86.5 16.5t52 48.5t24.5 68.5t7 87.5v902h373v-865q0 -107 -12.5 -188.5t-47.5 -160.5t-94 -130t-157.5 -82t-231.5 -31t-231 31t-157 82t-94.5 129.5t-48 161t-12.5 188.5zM336 1509l141 293h293 l-225 -293h-209zM682 1509l141 293h293l-225 -293h-209z" />
<glyph unicode="&#x171;" horiz-adv-x="1128" d="M84 309v766h360v-684q0 -58 15.5 -90.5t56.5 -32.5q68 0 162 109v698h360v-1075h-360v111q-79 -63 -155 -98.5t-167 -35.5q-135 0 -203.5 86t-68.5 246zM256 1200l141 293h293l-225 -293h-209zM602 1200l141 293h293l-225 -293h-209z" />
<glyph unicode="&#x172;" horiz-adv-x="1282" d="M98 569v865h375v-902q0 -50 6.5 -87t24 -69t52 -48.5t85.5 -16.5q52 0 86.5 16.5t52 48.5t24.5 68.5t7 87.5v902h373v-865q0 -88 -8.5 -158.5t-31.5 -140t-61 -120.5t-100 -90.5t-145 -59.5q-148 -106 -148 -190q0 -19 7.5 -32t17 -19.5t26.5 -10t26 -3.5t26 0.5t18 0.5 l-31 -158q-1 0 -20 -0.5t-30.5 0t-36.5 2t-42 4.5t-41.5 10t-41.5 16t-36 23.5t-30.5 32.5t-19 43.5t-7.5 55.5q0 114 127 202q-123 4 -214 37t-146 84.5t-88 129t-44.5 158t-11.5 183.5z" />
<glyph unicode="&#x173;" horiz-adv-x="1128" d="M84 309v766h360v-684q0 -58 15.5 -90.5t56.5 -32.5q68 0 162 109v698h360v-1075h-6q-149 -106 -149 -190q0 -19 7.5 -32t17 -19.5t26.5 -10t26 -3.5t26 0.5t18 0.5l-31 -158q-1 0 -20 -0.5t-30.5 0t-36.5 2t-42 4.5t-41.5 10t-41.5 16t-36 23.5t-30.5 32.5t-19 43.5 t-7.5 55.5q0 129 161 225h-151v111q-79 -63 -155 -98.5t-167 -35.5q-135 0 -203.5 86t-68.5 246z" />
<glyph unicode="&#x174;" horiz-adv-x="1722" d="M14 1434h420l125 -818l162 818h280l162 -820l125 820h422l-330 -1434h-354l-166 815l-162 -815h-354zM514 1509l188 293h320l188 -293h-237l-111 138l-110 -138h-238z" />
<glyph unicode="&#x175;" horiz-adv-x="1499" d="M18 1075h379l92 -596l129 596h263l129 -594l90 594h381l-269 -1075h-325l-137 575l-136 -575h-327zM401 1200l189 293h319l189 -293h-238l-110 137l-111 -137h-238z" />
<glyph unicode="&#x177;" horiz-adv-x="1058" d="M8 1075h381l139 -626l142 626h381l-473 -1493h-383l159 395zM180 1200l189 293h319l189 -293h-238l-111 137l-110 -137h-238z" />
<glyph unicode="&#x178;" horiz-adv-x="1189" d="M-8 1434h418l184 -473l186 473h416l-416 -867v-567h-372v571zM301 1530v266h258v-266h-258zM635 1530v266h256v-266h-256z" />
<glyph unicode="&#x179;" horiz-adv-x="1134" d="M49 0v297l543 805h-506v332h979v-295l-543 -807h551v-332h-1024zM360 1509l213 293h375l-297 -293h-291z" />
<glyph unicode="&#x17a;" horiz-adv-x="1036" d="M53 0v256l443 510h-426v309h905v-256l-443 -510h443v-309h-922zM301 1200l213 293h375l-297 -293h-291z" />
<glyph unicode="&#x17b;" horiz-adv-x="1134" d="M49 0v297l543 805h-506v332h979v-295l-543 -807h551v-332h-1024zM446 1530v266h259v-266h-259z" />
<glyph unicode="&#x17c;" horiz-adv-x="1036" d="M53 0v256l443 510h-426v309h905v-256l-443 -510h443v-309h-922zM385 1221v266h258v-266h-258z" />
<glyph unicode="&#x17d;" horiz-adv-x="1134" d="M49 0v297l543 805h-506v332h979v-295l-543 -807h551v-332h-1024zM227 1802h238l110 -137l111 137h238l-189 -293h-319z" />
<glyph unicode="&#x17e;" horiz-adv-x="1036" d="M53 0v256l443 510h-426v309h905v-256l-443 -510h443v-309h-922zM166 1493h237l111 -137l111 137h237l-188 -293h-320z" />
<glyph unicode="&#x17f;" horiz-adv-x="638" d="M33 801v274h119q0 211 74.5 314.5t236.5 103.5q157 0 350 -94l-121 -264q-82 34 -123 34q-11 0 -19.5 -2.5t-18.5 -10t-15.5 -26.5t-5.5 -47v-1083h-358v801h-119z" />
<glyph unicode="&#x192;" horiz-adv-x="1087" d="M47 -418l229 1219h-120l55 274h117l2 6q16 85 34.5 145t48.5 113.5t71 85.5t100.5 50t138.5 18q158 0 342 -94l-162 -258q-104 46 -149 39q-53 -6 -70 -101l-2 -4h244l-56 -274h-237l-225 -1219h-361z" />
<glyph unicode="&#x1fc;" horiz-adv-x="1910" d="M-61 0l784 1434h1114v-332h-545v-223h441v-324h-441v-223h553v-332h-927v240h-412l-121 -240h-446zM668 555h250v492zM803 1509l213 293h375l-297 -293h-291z" />
<glyph unicode="&#x1fd;" horiz-adv-x="1605" d="M37 334q0 160 92 252t250 92q33 0 74.5 -5.5t64.5 -10.5t66.5 -16t44.5 -11q2 23 10 74q-3 59 -31.5 82.5t-93.5 23.5q-55 0 -123 -16t-186 -56l-111 254q276 101 500 101q169 0 260 -58q107 58 244 58q150 0 255 -63t154 -169.5t49 -247.5q0 -42 -4.5 -81.5t-9.5 -58.5 l-4 -19h-549q6 -105 36.5 -155t96.5 -50q94 0 310 117l129 -228q-97 -66 -223 -116t-259 -50q-123 0 -221 52t-158 157q-159 -209 -348 -209q-147 0 -231 100.5t-84 256.5zM399 371q0 -52 23 -79.5t63 -27.5q76 0 156 90q-7 39 -14 103q-91 26 -125 26q-47 0 -75 -28 t-28 -84zM584 1200l213 293h374l-297 -293h-290zM989 653h228q-2 91 -27 136t-84 45q-55 0 -82 -45t-35 -136z" />
<glyph unicode="&#x1fe;" horiz-adv-x="1347" d="M55 717q0 128 21 237t67.5 202.5t117.5 159.5t176 103t237 37q187 0 319 -74l35 52h246l-125 -189q143 -190 143 -528q0 -128 -20.5 -237t-67.5 -203t-117.5 -159.5t-175.5 -103t-237 -37.5q-189 0 -318 72l-32 -49h-248l123 186q-144 192 -144 531zM438 717 q0 -91 11 -156l348 522q-51 39 -123 39q-236 0 -236 -405zM459 1509l213 293h375l-297 -293h-291zM553 346q47 -35 121 -35q65 0 111.5 29t73 84.5t38.5 127t12 165.5q0 76 -10 151z" />
<glyph unicode="&#x1ff;" horiz-adv-x="1095" d="M47 539q0 270 127.5 414.5t374.5 144.5q150 0 256 -56l24 33h191l-92 -131q123 -141 123 -407q0 -270 -127.5 -415t-374.5 -145q-153 0 -264 60l-25 -37h-197l99 137q-115 142 -115 402zM315 1200l213 293h375l-297 -293h-291zM410 487l213 297q-34 27 -74 27 q-74 0 -106.5 -68t-32.5 -204v-52zM469 295q31 -31 80 -31q139 0 139 273q0 12 -1 33.5t-1 31.5z" />
<glyph unicode="&#x218;" horiz-adv-x="1150" d="M35 180l168 275q88 -56 208.5 -104t194.5 -48q47 0 77 21t30 61q0 29 -17.5 52t-55 43.5t-77 38t-102.5 46t-113 56.5q-46 26 -82.5 51t-77 63.5t-67.5 80t-44.5 99t-17.5 121.5q0 87 30 162.5t87.5 133.5t150.5 91t210 33q140 0 281.5 -44.5t260.5 -111.5l-170 -280 q-81 43 -179.5 76.5t-164.5 33.5q-49 0 -79.5 -20t-30.5 -59q0 -35 32.5 -65t75 -49t120.5 -53t132 -63q46 -26 80 -49t77 -62t70.5 -80t46.5 -100.5t19 -126.5q0 -87 -29.5 -162.5t-86 -135t-149 -94t-210.5 -34.5q-164 0 -325 60.5t-273 142.5zM467 -109h244l10 -311 l-193 -219l-61 86l106 168h-106v276z" />
<glyph unicode="&#x219;" horiz-adv-x="972" d="M33 121l137 260q77 -44 182 -80.5t168 -36.5q58 0 58 33q0 16 -11.5 29t-36 24t-44.5 18.5t-56.5 18.5t-52.5 16q-49 16 -92 36t-87.5 51.5t-75.5 69.5t-51 91.5t-20 114.5q0 143 99.5 237.5t287.5 94.5q120 0 247 -36.5t216 -84.5l-139 -244q-69 30 -154 55t-137 25 q-59 0 -59 -37q0 -10 4.5 -18.5t14.5 -16t21 -13t30.5 -12.5t36.5 -12.5t44.5 -14t48.5 -15.5q50 -17 90 -35t87 -49.5t78.5 -68t53 -91t21.5 -119.5q0 -148 -103 -241t-296 -93q-135 0 -278.5 43.5t-231.5 100.5zM354 -109h244l10 -311l-192 -219l-62 86l107 168h-107v276z " />
<glyph unicode="&#x21a;" horiz-adv-x="1064" d="M27 1102v332h1011v-332h-315v-1102h-375v1102h-321zM416 -109h243l11 -311l-193 -219l-61 86l106 168h-106v276z" />
<glyph unicode="&#x21b;" horiz-adv-x="806" d="M39 801v274h119v254l358 57v-311h236v-274h-236v-402q0 -31 6 -51.5t16.5 -29t19 -11t20.5 -2.5q37 0 110 41l121 -274q-190 -95 -332 -95q-168 0 -243.5 100.5t-75.5 307.5v416h-119zM240 -109h243l11 -311l-193 -219l-61 86l106 168h-106v276z" />
<glyph unicode="&#x2b0;" horiz-adv-x="761" d="M80 788v895h237v-315q52 39 97 59.5t104 20.5q172 0 172 -203v-457h-239v400q0 33 -8.5 50t-32.5 17q-48 0 -93 -61v-406h-237z" />
<glyph unicode="&#x2b2;" horiz-adv-x="395" d="M-43 674q37 15 59 27t35.5 22t19 27.5t6.5 30.5t1 44v609h239v-588v-2q0 -53 -1 -77.5t-5.5 -62.5t-15.5 -55.5t-30.5 -43.5t-51 -41.5t-75.5 -33t-105 -34.5zM76 1493v188h246v-188h-246z" />
<glyph unicode="&#x2b7;" horiz-adv-x="950" d="M10 1434h252l51 -336l76 336h172l74 -332l51 332h254l-168 -646h-217l-80 326l-80 -326h-217z" />
<glyph unicode="&#x2b8;" horiz-adv-x="659" d="M-2 1434h254l80 -351l80 351h252l-297 -895h-252l98 235z" />
<glyph unicode="&#x2c6;" horiz-adv-x="524" d="M-86 1200l188 293h320l188 -293h-237l-111 137l-110 -137h-238z" />
<glyph unicode="&#x2c7;" horiz-adv-x="524" d="M-86 1493h238l110 -137l111 137h237l-188 -293h-320z" />
<glyph unicode="&#x2d8;" horiz-adv-x="493" d="M-70 1473h209q0 -34 28.5 -55t78.5 -21t79 21t29 55h209q0 -127 -83.5 -200t-233.5 -73q-148 0 -232 73t-84 200z" />
<glyph unicode="&#x2d9;" horiz-adv-x="188" d="M-35 1221v266h258v-266h-258z" />
<glyph unicode="&#x2da;" horiz-adv-x="409" d="M-20 1405q0 94 65.5 160.5t159.5 66.5q92 0 158.5 -66.5t66.5 -160.5q0 -93 -66 -159t-159 -66q-94 0 -159.5 65.5t-65.5 159.5zM141 1405q0 -26 19 -45t45 -19t44.5 19t18.5 45t-18.5 45.5t-44.5 19.5t-45 -19.5t-19 -45.5z" />
<glyph unicode="&#x2db;" horiz-adv-x="299" d="M-70 -225q0 144 203 248l166 -21q-154 -110 -154 -192q0 -19 7.5 -32t17 -19.5t26.5 -10t26 -3.5t26 0.5t18 0.5l-30 -158q-1 0 -20.5 -0.5t-30.5 0t-36 2t-42 4.5t-42 10t-42 16t-36 23.5t-30.5 32.5t-19 43.5t-7.5 55.5z" />
<glyph unicode="&#x2dc;" horiz-adv-x="526" d="M-94 1286q52 118 80 157q58 83 141 83q42 0 94.5 -24t96.5 -48t67 -24q13 0 23.5 5t28.5 27t36 62l148 -80q-20 -48 -30.5 -71t-33 -61.5t-42 -57.5t-50 -34.5t-64.5 -15.5q-43 0 -96 24t-97 48t-67 24q-43 0 -88 -94z" />
<glyph unicode="&#x2dd;" horiz-adv-x="620" d="M-80 1200l141 293h293l-225 -293h-209zM266 1200l142 293h292l-225 -293h-209z" />
<glyph unicode="&#x2e3;" horiz-adv-x="708" d="M0 788l209 322l-197 324h264l78 -150l78 150h264l-196 -326l209 -320h-273l-82 158l-82 -158h-272z" />
<glyph unicode="&#x3c0;" horiz-adv-x="1034" d="M31 756v319h973v-319h-130v-756h-301v756h-112v-756h-299v756h-131z" />
<glyph unicode="&#x1e80;" horiz-adv-x="1722" d="M14 1434h420l125 -818l162 818h280l162 -820l125 820h422l-330 -1434h-354l-166 815l-162 -815h-354zM489 1802h375l213 -293h-291z" />
<glyph unicode="&#x1e81;" horiz-adv-x="1499" d="M18 1075h379l92 -596l129 596h263l129 -594l90 594h381l-269 -1075h-325l-137 575l-136 -575h-327zM379 1493h375l213 -293h-291z" />
<glyph unicode="&#x1e82;" horiz-adv-x="1722" d="M14 1434h420l125 -818l162 818h280l162 -820l125 820h422l-330 -1434h-354l-166 815l-162 -815h-354zM645 1509l213 293h375l-297 -293h-291z" />
<glyph unicode="&#x1e83;" horiz-adv-x="1499" d="M18 1075h379l92 -596l129 596h263l129 -594l90 594h381l-269 -1075h-325l-137 575l-136 -575h-327zM537 1200l213 293h374l-297 -293h-290z" />
<glyph unicode="&#x1e84;" horiz-adv-x="1722" d="M14 1434h420l125 -818l162 818h280l162 -820l125 820h422l-330 -1434h-354l-166 815l-162 -815h-354zM565 1530v266h258v-266h-258zM899 1530v266h256v-266h-256z" />
<glyph unicode="&#x1e85;" horiz-adv-x="1499" d="M18 1075h379l92 -596l129 596h263l129 -594l90 594h381l-269 -1075h-325l-137 575l-136 -575h-327zM457 1221v266h258v-266h-258zM791 1221v266h256v-266h-256z" />
<glyph unicode="&#x1e9e;" horiz-adv-x="1474" d="M111 0v872q0 98 13 176t49 152.5t95 124t156 79.5t227 30h643v-256l-225 -301q170 -52 266.5 -165t96.5 -284q0 -92 -29 -172t-84.5 -143t-145.5 -99.5t-204 -36.5q-216 0 -422 125l155 277q40 -29 99 -53.5t110 -24.5q59 0 97.5 37t38.5 104q0 164 -295 164h-90v242 l194 254h-176q-105 0 -151 -67t-46 -236v-799h-372z" />
<glyph unicode="&#x1ef2;" horiz-adv-x="1189" d="M-8 1434h418l184 -473l186 473h416l-416 -867v-567h-372v571zM223 1802h375l213 -293h-291z" />
<glyph unicode="&#x1ef3;" horiz-adv-x="1058" d="M8 1075h381l139 -626l142 626h381l-473 -1493h-383l159 395zM156 1493h374l213 -293h-290z" />
<glyph unicode="&#x2000;" horiz-adv-x="971" />
<glyph unicode="&#x2001;" horiz-adv-x="1942" />
<glyph unicode="&#x2002;" horiz-adv-x="971" />
<glyph unicode="&#x2003;" horiz-adv-x="1942" />
<glyph unicode="&#x2004;" horiz-adv-x="647" />
<glyph unicode="&#x2005;" horiz-adv-x="485" />
<glyph unicode="&#x2006;" horiz-adv-x="323" />
<glyph unicode="&#x2007;" horiz-adv-x="323" />
<glyph unicode="&#x2008;" horiz-adv-x="242" />
<glyph unicode="&#x2009;" horiz-adv-x="388" />
<glyph unicode="&#x200a;" horiz-adv-x="107" />
<glyph unicode="&#x2010;" horiz-adv-x="774" d="M90 434v299h594v-299h-594z" />
<glyph unicode="&#x2011;" horiz-adv-x="774" d="M90 434v299h594v-299h-594z" />
<glyph unicode="&#x2012;" horiz-adv-x="774" d="M90 434v299h594v-299h-594z" />
<glyph unicode="&#x2013;" horiz-adv-x="983" d="M88 434v297h807v-297h-807z" />
<glyph unicode="&#x2014;" horiz-adv-x="1167" d="M88 434v297h991v-297h-991z" />
<glyph unicode="&#x2018;" horiz-adv-x="520" d="M66 1163l282 310l88 -123l-155 -238h155v-397h-352z" />
<glyph unicode="&#x2019;" horiz-adv-x="501" d="M78 799l155 237h-155v398h352l19 -449l-283 -309z" />
<glyph unicode="&#x201a;" horiz-adv-x="534" d="M88 0v397h352l19 -448l-283 -309l-88 122l156 238h-156z" />
<glyph unicode="&#x201c;" horiz-adv-x="976" d="M66 1163l282 310l88 -123l-155 -238h155v-397h-352zM522 1163l283 310l88 -123l-156 -238h156v-397h-352z" />
<glyph unicode="&#x201d;" horiz-adv-x="956" d="M78 799l155 237h-155v398h352l19 -449l-283 -309zM535 799l155 237h-155v398h352l18 -449l-282 -309z" />
<glyph unicode="&#x201e;" horiz-adv-x="991" d="M88 0v397h352l19 -448l-283 -309l-88 122l156 238h-156zM543 0v397h352l18 -448l-282 -309l-88 122l155 238h-155z" />
<glyph unicode="&#x2020;" horiz-adv-x="1073" d="M45 733v299l358 -35v437h265v-437l360 35v-299l-360 33v-1184h-265v1184z" />
<glyph unicode="&#x2021;" horiz-adv-x="1105" d="M61 197v299l359 -35v305l-359 -33v299l359 -35v437h266v-437l358 35v-299l-358 33v-305l358 35v-299l-358 32v-647h-266v647z" />
<glyph unicode="&#x2022;" horiz-adv-x="929" d="M117 584q0 146 101 248t247 102q145 0 246.5 -102t101.5 -248q0 -145 -101.5 -246.5t-246.5 -101.5q-146 0 -247 101.5t-101 246.5z" />
<glyph unicode="&#x2026;" horiz-adv-x="1497" d="M88 0v397h352v-397h-352zM573 0v397h353v-397h-353zM1057 0v397h352v-397h-352z" />
<glyph unicode="&#x202f;" horiz-adv-x="388" />
<glyph unicode="&#x2030;" horiz-adv-x="2510" d="M49 1071q0 179 88 282t260 103t261.5 -103.5t89.5 -281.5t-89 -280.5t-262 -102.5q-172 0 -260 102t-88 281zM305 1071q0 -80 22 -119t70 -39q95 0 95 158q0 162 -95 162q-48 0 -70 -40.5t-22 -121.5zM440 0l598 1434h269l-598 -1434h-269zM1001 360q0 179 88.5 282 t260.5 103q174 0 262 -103t88 -282t-88 -281t-262 -102q-172 0 -260.5 102t-88.5 281zM1257 360q0 -79 22 -118t71 -39q50 0 73 39t23 118q0 162 -96 162q-93 0 -93 -162zM1763 360q0 178 89.5 281.5t261.5 103.5t260 -103t88 -282t-88 -281t-260 -102q-173 0 -262 102.5 t-89 280.5zM2019 360q0 -159 95 -159q94 0 94 159q0 160 -94 160q-95 0 -95 -160z" />
<glyph unicode="&#x2039;" horiz-adv-x="645" d="M45 432v223l508 422v-372l-221 -160l221 -162v-373z" />
<glyph unicode="&#x203a;" horiz-adv-x="645" d="M92 10v373l221 160l-221 162v372l508 -422v-223z" />
<glyph unicode="&#x2044;" horiz-adv-x="411" d="M-197 0l543 1434h264l-542 -1434h-265z" />
<glyph unicode="&#x205f;" horiz-adv-x="485" />
<glyph unicode="&#x2070;" horiz-adv-x="796" d="M51 1219q0 213 87 328.5t261 115.5q171 0 258.5 -116.5t87.5 -327.5q0 -212 -87.5 -328.5t-260.5 -116.5q-174 0 -260 115.5t-86 329.5zM299 1219q0 -137 24 -191.5t74 -54.5q51 0 76 54t25 192q0 135 -25 190t-74 55q-52 0 -76 -53t-24 -192z" />
<glyph unicode="&#x2074;" horiz-adv-x="817" d="M29 930v178l313 541h328v-506h108v-213h-108v-142h-248v142h-393zM262 1143h160v280z" />
<glyph unicode="&#x2075;" horiz-adv-x="737" d="M35 899l112 182q111 -86 193 -86q44 0 70 21t26 59q0 34 -24 59t-74 25q-63 0 -125 -41l-137 86l41 445h538v-213h-327l-2 -78q50 8 77 8q139 0 210 -83t71 -206q0 -129 -78.5 -216t-230.5 -87q-170 0 -340 125z" />
<glyph unicode="&#x2076;" horiz-adv-x="749" d="M49 1155q0 220 135.5 364t356.5 144q34 0 65 -3.5t46 -7.5l14 -3l-58 -201q-30 6 -65 6q-70 0 -129 -35.5t-90 -115.5q61 45 143 45q105 0 175.5 -73.5t70.5 -193.5q0 -132 -87 -219.5t-235 -87.5q-87 0 -154 30.5t-107.5 83.5t-60.5 120.5t-20 146.5zM297 1114 q1 -74 28 -102.5t62 -28.5q42 0 61 26t19 60q0 41 -22.5 65.5t-59.5 24.5q-57 0 -88 -45z" />
<glyph unicode="&#x2077;" horiz-adv-x="630" d="M37 1436v213h571v-201q-11 -14 -28.5 -39t-62 -101.5t-79 -151.5t-62.5 -177.5t-28 -190.5h-254q0 85 24.5 180t55.5 166t73 144.5t62.5 103.5t38.5 54h-311z" />
<glyph unicode="&#x2078;" horiz-adv-x="776" d="M45 1022q0 147 158 235q-109 77 -109 191q0 95 76.5 155t218.5 60q140 0 216.5 -60t76.5 -155q0 -113 -111 -191q160 -87 160 -235q0 -112 -88.5 -180t-253.5 -68q-168 0 -256 67.5t-88 180.5zM293 1044q0 -33 26 -55t70 -22q43 0 68.5 22t25.5 55q0 36 -24.5 62.5 t-71.5 52.5q-46 -26 -70 -52.5t-24 -62.5zM326 1425q0 -49 61 -82q62 35 62 82q0 18 -15.5 35t-44.5 17q-32 0 -47.5 -16.5t-15.5 -35.5z" />
<glyph unicode="&#x2079;" horiz-adv-x="747" d="M39 1356q0 133 85 220t234 87q88 0 155 -30.5t107 -83.5t60 -120.5t20 -146.5q0 -221 -134.5 -364.5t-356.5 -143.5q-33 0 -63.5 3.5t-45.5 6.5l-14 4l55 201q31 -6 68 -6q68 0 126 35t89 115q-67 -43 -141 -43q-105 0 -174.5 73t-69.5 193zM285 1368q0 -41 21.5 -65.5 t58.5 -24.5q54 0 88 43q-3 74 -30 103.5t-61 29.5q-41 0 -59 -26t-18 -60z" />
<glyph unicode="&#x207a;" horiz-adv-x="638" d="M39 1108v182h188v187h183v-187h188v-182h-188v-188h-183v188h-188z" />
<glyph unicode="&#x207d;" horiz-adv-x="450" d="M74 961v2v507q0 127 14 173q23 78 110 122q60 30 164 54l58 -133q-66 -29 -82 -56t-16 -88v-651q0 -61 16 -88.5t82 -54.5l-58 -136q-72 17 -121.5 34.5t-81 44t-49 47.5t-25.5 63t-9.5 70t-1.5 90z" />
<glyph unicode="&#x207e;" horiz-adv-x="454" d="M33 745q66 29 82 56t16 88v651q0 61 -16 88.5t-82 54.5l57 136q62 -15 107 -32t76.5 -32.5t51.5 -42t31 -45t16 -57.5t6 -63.5t1 -78.5v-507q0 -53 -1 -77.5t-6 -63t-16 -57t-31 -45t-51.5 -42t-76.5 -32.5t-107 -32z" />
<glyph unicode="&#x207f;" horiz-adv-x="761" d="M80 788v646h237v-66q102 80 201 80q172 0 172 -203v-457h-239v400q0 33 -8.5 50t-32.5 17q-48 0 -93 -61v-406h-237z" />
<glyph unicode="&#x2080;" horiz-adv-x="796" d="M51 123q0 213 87 328.5t261 115.5q171 0 258.5 -116.5t87.5 -327.5q0 -212 -87.5 -328.5t-260.5 -116.5q-174 0 -260 115.5t-86 329.5zM299 123q0 -137 24 -191.5t74 -54.5q51 0 76 54t25 192q0 136 -25 191t-74 55q-52 0 -76 -53.5t-24 -192.5z" />
<glyph unicode="&#x2081;" horiz-adv-x="622" d="M2 408l229 145h236v-860h-246v626l-121 -73z" />
<glyph unicode="&#x2082;" horiz-adv-x="735" d="M39 -207q0 191 223 357q18 13 49 34.5t46.5 33t34.5 28t26.5 30.5t7.5 29q0 20 -17 33.5t-49 13.5q-69 0 -190 -78l-111 162q165 131 338 131q137 0 208 -73t71 -177q0 -57 -21 -107.5t-59.5 -89.5t-67.5 -61.5t-69 -48.5q-7 -5 -20 -14l-19.5 -13.5t-17.5 -12.5t-17 -13 t-14 -11.5t-12.5 -11t-8.5 -10t-6 -10t-2 -8.5h334v-213h-637v100z" />
<glyph unicode="&#x2083;" horiz-adv-x="729" d="M20 -197l111 172q134 -79 217 -79q40 0 62 16t22 45q0 27 -17.5 44t-50 23.5t-55.5 8.5t-55 2h-31v211h37q143 0 143 63q0 18 -14 30.5t-45 12.5q-76 0 -188 -69l-103 157q156 127 338 127q127 0 192.5 -61t65.5 -154q0 -114 -110 -184q63 -27 103 -86t40 -133 q0 -51 -15.5 -96.5t-48.5 -86t-93.5 -64.5t-141.5 -24q-188 0 -363 125z" />
<glyph unicode="&#x2084;" horiz-adv-x="817" d="M29 12l313 541h328v-506h108v-213h-108v-141h-248v141h-393v178zM262 47h160v281z" />
<glyph unicode="&#x2085;" horiz-adv-x="737" d="M35 -197l112 183q111 -86 193 -86q44 0 70 21t26 59q0 34 -24 58.5t-74 24.5q-64 0 -125 -40l-137 86l41 444h538v-213h-327l-2 -78q50 8 77 8q139 0 210 -83t71 -205q0 -61 -18.5 -114.5t-55 -96.5t-97 -68t-138.5 -25q-170 0 -340 125z" />
<glyph unicode="&#x2086;" horiz-adv-x="749" d="M49 59q0 220 135.5 364t356.5 144q34 0 65 -3.5t46 -7.5l14 -3l-58 -201q-30 6 -65 6q-70 0 -129 -35.5t-90 -115.5q61 45 143 45q105 0 175.5 -73t70.5 -193q0 -132 -87 -220t-235 -88q-87 0 -154 30.5t-107.5 83.5t-60.5 120.5t-20 146.5zM297 18q1 -74 28 -102.5 t62 -28.5q42 0 61 26t19 60q0 41 -22.5 65.5t-59.5 24.5q-57 0 -88 -45z" />
<glyph unicode="&#x2087;" horiz-adv-x="630" d="M37 340v213h571v-201q-11 -14 -28.5 -39t-62 -101.5t-79 -151.5t-62.5 -177t-28 -190h-254q0 85 24.5 180t55.5 165.5t73 144t62.5 103t38.5 54.5h-311z" />
<glyph unicode="&#x2088;" horiz-adv-x="776" d="M45 -74q0 148 158 236q-109 77 -109 190q0 95 76.5 155t218.5 60q140 0 216.5 -60t76.5 -155q0 -112 -111 -190q160 -87 160 -236q0 -112 -88.5 -180t-253.5 -68q-168 0 -256 67.5t-88 180.5zM293 -51q0 -33 26 -55.5t70 -22.5q43 0 68.5 22.5t25.5 55.5q0 36 -24.5 62 t-71.5 52q-46 -26 -70 -52t-24 -62zM326 330q0 -49 61 -82q62 35 62 82q0 18 -15.5 34.5t-44.5 16.5q-32 0 -47.5 -16t-15.5 -35z" />
<glyph unicode="&#x2089;" horiz-adv-x="747" d="M39 260q0 133 85 220t234 87q88 0 155 -30.5t107 -83.5t60 -120.5t20 -146.5q0 -221 -134.5 -364.5t-356.5 -143.5q-33 0 -63.5 4t-45.5 8l-14 3l55 201q31 -7 68 -7q68 0 126 35t89 115q-67 -43 -141 -43q-105 0 -174.5 73t-69.5 193zM285 272q0 -41 21.5 -65.5 t58.5 -24.5q54 0 88 43q-3 74 -30 103.5t-61 29.5q-41 0 -59 -26t-18 -60z" />
<glyph unicode="&#x208a;" horiz-adv-x="638" d="M39 12v183h188v186h183v-186h188v-183h-188v-188h-183v188h-188z" />
<glyph unicode="&#x208d;" horiz-adv-x="450" d="M74 -133v508q0 127 14 173q23 77 110 121q60 30 164 54l58 -133q-66 -29 -82 -56t-16 -88v-651q0 -61 16 -88.5t82 -54.5l-58 -135q-62 14 -107 31t-76 32.5t-51 42t-31 45t-16 57t-6 63t-1 77.5v2z" />
<glyph unicode="&#x208e;" horiz-adv-x="452" d="M33 -350q66 29 82 55.5t16 87.5v651q0 62 -16 89.5t-82 54.5l57 135q62 -15 107 -32t76.5 -32t51.5 -41.5t31 -45t16 -57.5t6 -63.5t1 -78.5v-508q0 -73 -2.5 -105.5t-16 -78.5t-44 -69.5t-85.5 -49t-141 -45.5z" />
<glyph unicode="&#x20a1;" horiz-adv-x="993" d="M68 719q0 142 34.5 252t95 175.5t135 98.5t159.5 33l30 -2l31 158h137l-35 -179l33 -8l37 187h135l-45 -234q36 -14 121 -55l-143 -275q-4 2 -22.5 11t-24.5 12l-23 11.5t-25 12t-23.5 10.5t-25 10t-23 7.5t-23.5 6.5t-21 3.5t-21 1.5q-129 0 -129 -237q0 -240 129 -240 q10 0 21 1.5t21 3.5t23.5 6.5t23 7.5t25 10t23.5 10.5t25 12l23 11.5t24.5 12t22.5 11l143 -274q-178 -92 -315 -119l-31 -172h-137l30 158q-24 0 -34 2l-31 -160h-135l36 195q-115 56 -183 187t-68 337z" />
<glyph unicode="&#x20a4;" horiz-adv-x="1058" d="M88 0v262q5 2 14 5.5t34 17.5t46.5 31.5t45.5 49t38 68.5h-162v174h172q-4 27 -20 76h-152v176h72q-53 116 -53 238q0 170 99.5 264t283.5 94q77 0 152 -18t141.5 -51t108 -58.5t93.5 -62.5l-165 -244q-151 111 -248 111q-44 0 -67 -25.5t-23 -69.5q0 -29 10 -62.5 t18.5 -52.5t30.5 -63h317v-176h-251q8 -51 10 -76h241v-174h-262q-24 -73 -67 -110h440v-324h-897z" />
<glyph unicode="&#x20a7;" horiz-adv-x="1292" d="M98 881v143h43v410h514q264 0 396 -105t151 -305h45v-143h-45q-19 -199 -151 -302.5t-396 -103.5h-139v-475h-375v881h-43zM516 795h127q69 0 113 18.5t61 67.5h-301v-86zM516 1024h301q-32 86 -174 86h-127v-86z" />
<glyph unicode="&#x20a9;" horiz-adv-x="1847" d="M68 858v213h90l-82 363h420l55 -363h160l71 363h281l72 -363h159l56 363h422l-84 -363h88v-213h-138l-30 -133h168v-215h-217l-117 -510h-355l-165 815l-162 -815h-354l-119 510h-217v215h168l-31 133h-139zM584 858l37 -240l47 240h-84zM1176 858l49 -244l37 244h-86z " />
<glyph unicode="&#x20ac;" horiz-adv-x="1275" d="M59 477v191h99v88h-99v190h115q39 252 169 381t327 129q137 0 261 -47.5t292 -140.5l-166 -289q-120 64 -195 94.5t-137 30.5q-113 0 -160 -158h291v-190h-315v-88h315v-191h-287q45 -147 156 -147q62 0 137 30.5t195 94.5l166 -289q-83 -46 -137 -73t-128 -57.5 t-144.5 -44.5t-143.5 -14q-195 0 -324.5 126t-169.5 374h-117z" />
<glyph unicode="&#x2116;" horiz-adv-x="2166" d="M127 0v1434h377l356 -768v768h373v-1434h-375l-356 768v-768h-375zM1303 983q0 207 104 319.5t299 112.5q198 0 301.5 -112.5t103.5 -319.5q0 -208 -103.5 -320t-301.5 -112q-196 0 -299.5 112t-103.5 320zM1382 262v213h648v-213h-648zM1616 983q0 -92 20 -135t70 -43 t70 43t20 135t-20 135t-70 43t-70 -43t-20 -135z" />
<glyph unicode="&#x2117;" horiz-adv-x="1587" d="M63 717q0 156 49 290.5t140.5 234.5t231 157t311.5 57t311 -57t230 -157t139.5 -234.5t48.5 -290.5t-48.5 -290.5t-139.5 -234.5t-230 -157.5t-311 -57.5t-311.5 57.5t-231 157.5t-140.5 234.5t-49 290.5zM143 717q0 -141 43.5 -262t124.5 -210.5t205 -140.5t277 -51 q155 0 279.5 51t205.5 140.5t124.5 210.5t43.5 262t-43.5 262t-124.5 210.5t-205.5 140t-279.5 50.5q-153 0 -277 -51t-205 -140t-124.5 -210t-43.5 -262zM569 285v862h287q299 0 299 -262q0 -264 -299 -264h-188v-336h-99zM668 705h190q201 0 201 180t-201 180h-190v-360z " />
<glyph unicode="&#x2120;" horiz-adv-x="1112" d="M66 1032l59 96q32 -18 81.5 -32.5t84.5 -14.5q49 0 49 23q0 10 -14 16t-50.5 14.5t-64.5 18.5q-135 47 -135 145q0 62 47 103t131 41q92 0 211 -56l-57 -94q-90 37 -142 37q-49 0 -49 -22q0 -7 5.5 -12.5t18 -9.5t26 -7.5t36.5 -10t43 -12.5q27 -9 46.5 -19t42.5 -26.5 t35.5 -42t12.5 -57.5q0 -61 -49.5 -102t-136.5 -41q-62 0 -125 19.5t-106 45.5zM526 975v459h138l108 -236l109 236h137v-459h-133v242l-76 -166h-76l-74 153v-229h-133z" />
<glyph unicode="&#x2122;" horiz-adv-x="1112" d="M96 1315v119h381v-119h-125v-340h-133v340h-123zM518 975v459h137l109 -236l108 236h138v-459h-133v239l-76 -163h-74l-76 157v-233h-133z" />
<glyph unicode="&#x2126;" horiz-adv-x="1376" d="M74 776q0 103 21 199t69 184.5t117.5 153.5t174 104t232.5 39t232.5 -39t174.5 -104t118 -153.5t69 -184.5t21 -199q0 -165 -55 -290t-134 -162h156v-324h-545v336q58 14 99 51t62 92t29.5 114.5t8.5 133.5q0 395 -236 395q-235 0 -235 -393q0 -76 9 -136.5t30.5 -114.5 t61.5 -90t97 -52v-336h-545v324h156q-78 37 -133 161.5t-55 290.5z" />
<glyph unicode="&#x2153;" horiz-adv-x="1652" d="M37 1288l229 146h236v-861h-246v627l-121 -74zM354 0l543 1434h264l-543 -1434h-264zM930 111l110 172q135 -80 217 -80q40 0 62 16t22 45q0 27 -17.5 44t-50 23.5t-55.5 8.5t-55 2h-30v211h36q144 0 144 63q0 17 -14.5 30t-45.5 13q-76 0 -188 -69l-102 158 q155 126 337 126q127 0 193 -61.5t66 -153.5q0 -113 -111 -184q63 -27 103 -86t40 -133q0 -51 -15.5 -96.5t-48.5 -85.5t-93.5 -64t-141.5 -24q-187 0 -362 125z" />
<glyph unicode="&#x2154;" horiz-adv-x="1837" d="M61 573v101q0 59 19.5 113.5t55 99.5t70.5 77.5t79 65.5q17 12 49 34.5t47 34t34 28t26.5 30.5t7.5 29q0 20 -17 33.5t-49 13.5q-69 0 -190 -78l-111 162q165 131 338 131q137 0 207.5 -72.5t70.5 -177.5q0 -57 -21 -107.5t-59.5 -89.5t-67.5 -61.5t-69 -48.5 q-90 -63 -106 -84q-10 -12 -10 -21h333v-213h-637zM551 0l543 1434h264l-543 -1434h-264zM1126 111l111 172q135 -80 217 -80q40 0 62 16t22 45q0 27 -17.5 44t-50 23.5t-55.5 8.5t-55 2h-31v211h37q143 0 143 63q0 18 -14 30.5t-45 12.5q-76 0 -188 -69l-103 158 q155 126 338 126q127 0 192.5 -61t65.5 -154q0 -114 -110 -184q63 -27 103 -86t40 -133q0 -51 -15.5 -96.5t-48.5 -85.5t-93.5 -64t-141.5 -24q-188 0 -363 125z" />
<glyph unicode="&#x2155;" horiz-adv-x="1675" d="M37 1288l229 146h236v-861h-246v627l-121 -74zM354 0l543 1434h264l-543 -1434h-264zM950 111l113 182q111 -86 192 -86q44 0 70.5 21t26.5 59q0 34 -24.5 59t-74.5 25q-63 0 -125 -41l-137 86l41 444h539v-213h-328l-2 -78q56 9 78 9q139 0 209.5 -83t70.5 -206 q0 -129 -78.5 -216t-230.5 -87q-170 0 -340 125z" />
<glyph unicode="&#x2156;" horiz-adv-x="1849" d="M55 573v101q0 59 19.5 113.5t55 99.5t70.5 77.5t79 65.5q16 12 48.5 34.5t47 33.5t33.5 28t26.5 31t7.5 29q0 20 -16.5 33.5t-48.5 13.5q-70 0 -191 -78l-110 162q165 131 338 131q137 0 207.5 -72.5t70.5 -177.5q0 -57 -21 -107.5t-59.5 -89.5t-67.5 -61.5t-69 -48.5 q-90 -63 -106 -83q-11 -13 -11 -22h334v-213h-637zM547 0l543 1434h264l-543 -1434h-264zM1143 111l112 182q111 -86 193 -86q44 0 70 21t26 59q0 34 -24 59t-74 25q-63 0 -125 -41l-137 86l41 444h538v-213h-327l-2 -78q56 9 77 9q139 0 210 -83t71 -206q0 -129 -78.5 -216 t-230.5 -87q-170 0 -340 125z" />
<glyph unicode="&#x2157;" horiz-adv-x="1802" d="M45 684l111 172q135 -80 217 -80q40 0 62 16.5t22 45.5q0 22 -13.5 37.5t-30.5 23t-45.5 11.5t-45.5 4.5t-43 0.5h-31v211h37q143 0 143 64q0 18 -14 30.5t-45 12.5q-76 0 -189 -70l-102 158q156 127 338 127q127 0 192.5 -61t65.5 -154q0 -113 -111 -184 q63 -27 103.5 -86.5t40.5 -133.5q0 -51 -15.5 -96.5t-48.5 -85.5t-93.5 -64t-141.5 -24q-188 0 -363 125zM489 0l543 1434h264l-542 -1434h-265zM1087 111l113 182q111 -86 193 -86q44 0 70 21t26 59q0 34 -24 59t-74 25q-63 0 -125 -41l-138 86l41 444h539v-213h-328 l-2 -78q56 9 78 9q139 0 210 -83t71 -206q0 -128 -79 -215.5t-231 -87.5q-170 0 -340 125z" />
<glyph unicode="&#x2158;" horiz-adv-x="1898" d="M45 715v178l313 541h328v-506h109v-213h-109v-142h-248v142h-393zM279 928h159v280zM586 0l542 1434h265l-543 -1434h-264zM1184 111l112 182q111 -86 193 -86q44 0 70 21t26 59q0 34 -24 59t-74 25q-63 0 -125 -41l-137 86l41 444h538v-213h-327l-2 -78q56 9 77 9 q139 0 210 -83t71 -206q0 -129 -78.5 -216t-230.5 -87q-170 0 -340 125z" />
<glyph unicode="&#x2159;" horiz-adv-x="1617" d="M37 1288l229 146h236v-861h-246v627l-121 -74zM354 0l543 1434h264l-543 -1434h-264zM889 367q0 220 135 363.5t356 143.5q34 0 65 -3.5t45 -6.5l15 -4l-57 -201q-31 7 -66 7q-69 0 -128.5 -36t-90.5 -116q61 45 144 45q105 0 175 -73t70 -193q0 -132 -86.5 -219.5 t-234.5 -87.5q-87 0 -154 30.5t-107.5 83.5t-60.5 120.5t-20 146.5zM1137 326q1 -74 28 -102.5t62 -28.5q42 0 61 26t19 60q0 41 -22.5 65.5t-59.5 24.5q-57 0 -88 -45z" />
<glyph unicode="&#x215a;" horiz-adv-x="1722" d="M45 684l113 182q111 -86 192 -86q44 0 70 21t26 59q0 34 -24 59t-74 25q-63 0 -125 -41l-137 86l41 445h539v-213h-328l-2 -78q50 8 78 8q139 0 209.5 -83t70.5 -206q0 -129 -78.5 -216t-230.5 -87q-170 0 -340 125zM469 0l543 1434h264l-543 -1434h-264zM1004 367 q0 220 135 363.5t356 143.5q34 0 65 -3.5t46 -6.5l14 -4l-57 -201q-31 7 -66 7q-69 0 -128.5 -36t-90.5 -116q61 45 143 45q105 0 175.5 -73t70.5 -193q0 -132 -86.5 -219.5t-234.5 -87.5q-87 0 -154 30.5t-107.5 83.5t-60.5 120.5t-20 146.5zM1251 326q1 -74 28 -102.5 t62 -28.5q42 0 61 26t19 60q0 41 -22.5 65.5t-59.5 24.5q-57 0 -88 -45z" />
<glyph unicode="&#x215b;" horiz-adv-x="1662" d="M37 1288l229 146h236v-861h-246v627l-121 -74zM354 0l543 1434h264l-543 -1434h-264zM922 233q0 148 157 236q-108 76 -108 190q0 95 76.5 155t218.5 60q140 0 216.5 -60t76.5 -155q0 -112 -111 -190q160 -87 160 -236q0 -112 -88 -179.5t-254 -67.5q-168 0 -256 67 t-88 180zM1169 256q0 -33 26.5 -55.5t70.5 -22.5q43 0 68.5 22.5t25.5 55.5q0 36 -24.5 62.5t-71.5 52.5q-46 -26 -70.5 -52.5t-24.5 -62.5zM1202 637q0 -48 62 -82q61 35 61 82q0 18 -15 34.5t-44 16.5q-32 0 -48 -16.5t-16 -34.5z" />
<glyph unicode="&#x215c;" horiz-adv-x="1789" d="M45 684l111 172q135 -80 217 -80q40 0 62 16.5t22 45.5q0 22 -13.5 37.5t-30.5 23t-45.5 11.5t-45.5 4.5t-43 0.5h-31v211h37q143 0 143 64q0 18 -14 30.5t-45 12.5q-76 0 -189 -70l-102 158q156 127 338 127q127 0 192.5 -61t65.5 -154q0 -113 -111 -184 q63 -27 103.5 -86.5t40.5 -133.5q0 -51 -15.5 -96.5t-48.5 -85.5t-93.5 -64t-141.5 -24q-188 0 -363 125zM489 0l543 1434h264l-542 -1434h-265zM1057 233q0 148 157 236q-108 76 -108 190q0 95 76.5 155t218.5 60q140 0 216.5 -60t76.5 -155q0 -112 -111 -190 q160 -87 160 -236q0 -112 -88 -179.5t-254 -67.5q-168 0 -256 67t-88 180zM1305 256q0 -33 26 -55.5t70 -22.5q43 0 68.5 22.5t25.5 55.5q0 36 -24.5 62.5t-71.5 52.5q-46 -26 -70 -52.5t-24 -62.5zM1337 637q0 -48 62 -82q61 35 61 82q0 18 -15 34.5t-44 16.5 q-32 0 -48 -16.5t-16 -34.5z" />
<glyph unicode="&#x215d;" horiz-adv-x="1769" d="M45 684l113 182q111 -86 192 -86q44 0 70 21t26 59q0 34 -24 59t-74 25q-63 0 -125 -41l-137 86l41 445h539v-213h-328l-2 -78q50 8 78 8q139 0 209.5 -83t70.5 -206q0 -129 -78.5 -216t-230.5 -87q-170 0 -340 125zM469 0l543 1434h264l-543 -1434h-264zM1036 233 q0 148 158 236q-109 77 -109 190q0 95 76.5 155t218.5 60q140 0 216.5 -60t76.5 -155q0 -112 -110 -190q159 -87 159 -236q0 -112 -88 -179.5t-254 -67.5q-168 0 -256 67t-88 180zM1284 256q0 -33 26 -55.5t70 -22.5q43 0 69 22.5t26 55.5q0 36 -24.5 62.5t-72.5 52.5 q-46 -26 -70 -52.5t-24 -62.5zM1317 637q0 -49 61 -82q62 35 62 82q0 18 -15.5 34.5t-44.5 16.5q-32 0 -47.5 -16t-15.5 -35z" />
<glyph unicode="&#x215e;" horiz-adv-x="1609" d="M53 1221v213h572v-201q-11 -14 -28.5 -39t-62 -101.5t-79 -151.5t-62.5 -177.5t-28 -190.5h-254q0 85 24.5 180t55.5 166t73 144.5t62.5 103.5t38.5 54h-312zM311 0l543 1434h264l-543 -1434h-264zM879 233q0 148 157 236q-108 76 -108 190q0 95 76.5 155t218.5 60 q140 0 216.5 -60t76.5 -155q0 -112 -111 -190q160 -87 160 -236q0 -112 -88 -179.5t-254 -67.5q-168 0 -256 67t-88 180zM1126 256q0 -33 26.5 -55.5t70.5 -22.5q43 0 68.5 22.5t25.5 55.5q0 36 -24.5 62.5t-71.5 52.5q-46 -26 -70.5 -52.5t-24.5 -62.5zM1159 637 q0 -48 62 -82q61 35 61 82q0 18 -15 34.5t-44 16.5q-32 0 -48 -16.5t-16 -34.5z" />
<glyph unicode="&#x2202;" horiz-adv-x="1157" d="M59 477q0 222 117 360t291 138q52 0 97.5 -11.5t73.5 -28t48 -33.5t28 -28l9 -12q-35 126 -139 201.5t-256 75.5q-39 0 -76 -4.5t-54 -8.5l-18 -4l-37 289q68 23 195 23q150 0 274.5 -43.5t212 -119.5t148 -181t89 -226.5t28.5 -257.5q0 -298 -138 -463.5t-397 -165.5 q-231 0 -363.5 135t-132.5 365zM432 475q0 -211 152 -211q45 0 76.5 18t46 50t20.5 66t6 77q0 213 -149 213q-152 0 -152 -213z" />
<glyph unicode="&#x2206;" horiz-adv-x="1327" d="M31 0l440 1434h385l440 -1434h-1265zM457 324h409l-202 735z" />
<glyph unicode="&#x220f;" horiz-adv-x="1306" d="M59 1110v324h1188v-324h-137v-1110h-373v1110h-166v-1110h-374v1110h-138z" />
<glyph unicode="&#x2211;" horiz-adv-x="1097" d="M57 0v160l430 557l-430 559v158h963v-324h-414l305 -393l-305 -393h414v-324h-963z" />
<glyph unicode="&#x2212;" horiz-adv-x="1163" d="M137 543v280h887v-280h-887z" />
<glyph unicode="&#x221a;" horiz-adv-x="1198" d="M0 696h383l123 -362l342 1100h373l-484 -1434h-444z" />
<glyph unicode="&#x221e;" horiz-adv-x="1562" d="M76 528q0 168 89 273.5t243 105.5q100 0 186.5 -53.5t189.5 -163.5q51 53 88 87t84 66.5t96.5 48t104.5 15.5q152 0 241 -105.5t89 -273.5q0 -169 -89 -273.5t-243 -104.5q-103 0 -186 52t-187 163q-103 -110 -188 -162.5t-186 -52.5q-154 0 -243 105t-89 273zM330 528 q0 -64 36.5 -100.5t82.5 -36.5q41 0 76.5 29t107.5 108q-73 80 -108.5 109t-73.5 29q-48 0 -84.5 -36.5t-36.5 -101.5zM930 528q66 -76 104 -106.5t78 -30.5q47 0 84 36t37 101t-37 101.5t-84 36.5q-39 0 -73.5 -28.5t-108.5 -109.5z" />
<glyph unicode="&#x222b;" horiz-adv-x="727" d="M29 -88h30q24 0 43 8t31.5 19.5t21.5 32t13 37.5t6.5 44t3 44t0.5 44v1135q0 129 26.5 213.5t87.5 135.5t151 72t227 21h28v-205h-30q-28 0 -48.5 -9.5t-33 -29t-20 -38.5t-10.5 -50t-4 -50.5t-1 -51.5v-1134q0 -129 -26.5 -213.5t-87.5 -136t-151 -72.5t-227 -21h-30 v205z" />
<glyph unicode="&#x2248;" horiz-adv-x="1163" d="M137 410q98 292 285 292q45 0 92.5 -20t81 -43.5t74 -43.5t73.5 -20q32 0 59 22.5t58 88.5l164 -70q-46 -138 -113 -215t-170 -77q-46 0 -95 20t-83.5 43.5t-75.5 43.5t-73 20q-30 0 -56 -23t-59 -90zM137 805q98 293 285 293q45 0 92.5 -20t81 -43.5t74 -43.5t73.5 -20 q32 0 59 22.5t58 89.5l164 -71q-97 -293 -283 -293q-44 0 -92.5 20t-83.5 43.5t-77 43.5t-74 20q-30 0 -56 -23t-59 -90z" />
<glyph unicode="&#x2260;" horiz-adv-x="1163" d="M137 344v281h295l41 120h-336v281h432l88 254l226 -76l-62 -178h203v-281h-299l-41 -120h340v-281h-436l-86 -254l-226 76l60 178h-199z" />
<glyph unicode="&#x2264;" horiz-adv-x="1163" d="M121 0v238h885v-238h-885zM121 639v217l885 358v-313l-459 -156l459 -157v-307z" />
<glyph unicode="&#x2265;" horiz-adv-x="1163" d="M156 0v238h884v-238h-884zM156 281v307l458 157l-458 156v313l884 -358v-217z" />
<glyph unicode="&#x2318;" horiz-adv-x="1431" d="M80 377q0 123 87 209t210 86h94v96h-94q-123 0 -210 86.5t-87 208.5q0 123 87 209t210 86q122 0 208.5 -86t86.5 -209v-94h88v94q0 123 86.5 209t208.5 86q123 0 209 -86t86 -209q0 -122 -86 -208.5t-209 -86.5h-94v-96h94q123 0 209 -86t86 -209q0 -122 -86 -208.5 t-209 -86.5q-121 0 -208 87t-87 208v94h-88v-94q0 -121 -87 -208t-208 -87q-123 0 -210 86.5t-87 208.5zM281 377q0 -40 28 -67t68 -27q39 0 66.5 27.5t27.5 66.5v94h-94q-40 0 -68 -28t-28 -66zM281 1063q0 -38 28 -66t68 -28h94v94q0 38 -28 66t-66 28q-40 0 -68 -28 t-28 -66zM672 672h88v96h-88v-96zM961 377q0 -39 27.5 -66.5t66.5 -27.5t66.5 27.5t27.5 66.5q0 38 -28 66t-66 28h-94v-94zM961 969h94q38 0 66 28t28 66t-28 66t-66 28t-66 -28t-28 -66v-94z" />
<glyph unicode="&#x25ca;" horiz-adv-x="1073" d="M51 717l309 717h353l309 -717l-309 -717h-353zM383 717l154 -357l155 357l-155 354z" />
<glyph unicode="&#xe000;" horiz-adv-x="1075" d="M0 0v1075h1075v-1075h-1075z" />
<glyph unicode="&#xf639;" horiz-adv-x="1230" d="M72 717q0 356 136 547.5t408 191.5t408.5 -192t136.5 -547t-137.5 -547.5t-409.5 -192.5t-407 192t-135 548zM449 717q0 -161 19 -258.5t54.5 -138.5t91.5 -41q85 0 126.5 100t41.5 338q0 237 -40.5 336.5t-125.5 99.5t-126 -99t-41 -337z" />
<glyph unicode="&#xf63a;" horiz-adv-x="1230" d="M104 0v160q0 81 22 157.5t55.5 135.5t84 117t95 98t100.5 84q19 15 58 45t56.5 44t46.5 38.5t42 40t29 36t22 39.5t6 39q0 42 -29 70.5t-86 28.5q-105 0 -303 -129l-168 245q37 32 81.5 61.5t113.5 65.5t156.5 58t177.5 22q110 0 195 -33.5t136 -91t77 -128.5t26 -152 q0 -64 -15.5 -123.5t-46 -110t-61.5 -90.5t-76.5 -80t-74.5 -63t-72 -54q-10 -8 -32.5 -25.5t-32.5 -26t-28.5 -23.5t-27.5 -24t-22.5 -22t-20.5 -22.5t-14 -21t-10 -21.5t-3 -20h539v-324h-996z" />
<glyph unicode="&#xf63b;" horiz-adv-x="1230" d="M78 174l168 260q218 -127 342 -127q68 0 106.5 33.5t38.5 93.5q0 40 -21 70t-51 46t-73 25.5t-76 12t-70 2.5h-49v321h60q36 0 71 5t74.5 17.5t63.5 40t24 66.5q0 38 -25 64t-79 26q-118 0 -297 -114l-156 239q250 201 522 201q200 0 304 -100t104 -252q0 -198 -180 -313 q102 -42 166.5 -141.5t64.5 -227.5q0 -85 -24.5 -160.5t-77 -141t-147 -104.5t-220.5 -39q-291 0 -563 197z" />
<glyph unicode="&#xf63c;" horiz-adv-x="1230" d="M39 250v268l502 916h471v-861h157v-323h-157v-250h-369v250h-604zM375 573h268v494z" />
<glyph unicode="&#xf63d;" horiz-adv-x="1230" d="M94 176l170 275q37 -28 62.5 -45.5t69 -43t87.5 -38.5t86 -13q73 0 118.5 44t45.5 118q0 69 -41 118.5t-125 49.5q-88 0 -202 -74l-207 129l63 738h844v-324h-522l-6 -168q72 14 129 14q112 0 199 -39.5t139.5 -107.5t79 -152t26.5 -180q0 -101 -29.5 -189t-87 -158.5 t-152.5 -111.5t-218 -41q-88 0 -174.5 21t-155.5 55t-115 63t-84 60z" />
<glyph unicode="&#xf63e;" horiz-adv-x="1230" d="M102 604q0 250 95.5 443.5t270.5 301t404 107.5q53 0 102 -5.5t72 -10.5l23 -6l-86 -306q-49 11 -106 11q-54 0 -105 -15.5t-100.5 -48.5t-90.5 -93t-65 -142q98 90 240 90q167 0 277 -123t110 -322q0 -143 -58 -257t-173.5 -182.5t-270.5 -68.5q-110 0 -200 33 t-152 90.5t-104.5 137.5t-62 171.5t-20.5 194.5zM481 553q1 -71 15 -123.5t37.5 -80.5t48.5 -41t53 -13q70 0 102.5 51.5t32.5 120.5q0 77 -37 125.5t-102 48.5q-92 0 -150 -88z" />
<glyph unicode="&#xf63f;" horiz-adv-x="1230" d="M176 1110v324h899v-304q-17 -24 -45 -66.5t-99.5 -173t-126.5 -258.5t-100 -303.5t-45 -328.5h-385q0 123 26 256t71 251t89.5 217.5t97 188.5t77 128t45.5 69h-504z" />
<glyph unicode="&#xf640;" horiz-adv-x="1230" d="M78 387q0 72 20.5 134t58 109.5t80 82.5t97.5 67q-178 129 -178 322q0 157 119.5 255.5t338.5 98.5q220 0 340.5 -98.5t120.5 -255.5q0 -191 -180 -322q118 -68 188 -161.5t70 -231.5q0 -188 -139 -299t-400 -111q-259 0 -397.5 111t-138.5 299zM455 416q0 -64 42.5 -105 t116.5 -41q75 0 118.5 41t43.5 105q0 67 -42 117t-120 96q-77 -46 -118 -96t-41 -117zM508 1069q0 -95 106 -156q107 63 107 156q0 40 -27 72.5t-80 32.5q-52 0 -79 -32.5t-27 -72.5z" />
<glyph unicode="&#xf641;" horiz-adv-x="1230" d="M86 948q0 143 58 257t173.5 182.5t270.5 68.5q110 0 200 -33t152 -90.5t104 -137.5t61 -171.5t19 -194.5q1 -250 -94 -443.5t-270 -301t-404 -107.5q-53 0 -102 5.5t-72 11.5l-22 6l86 305q47 -10 106 -10q74 0 139.5 25.5t127 94.5t94.5 177q-101 -88 -240 -88 q-167 0 -277 122.5t-110 321.5zM459 967q0 -77 37 -125.5t102 -48.5q91 0 150 88q-3 135 -49.5 196.5t-104.5 61.5q-70 0 -102.5 -51.5t-32.5 -120.5z" />
<glyph unicode="&#xf6c3;" horiz-adv-x="284" d="M6 -109h244l10 -311l-192 -219l-62 86l107 168h-107v276z" />
<glyph unicode="&#xf6dc;" horiz-adv-x="1230" d="M102 0v324h347v751l-195 -121l-152 244l361 236h358v-1110h344v-324h-1063z" />
<glyph unicode="&#xf6df;" horiz-adv-x="641" d="M49 123q0 159 68.5 242.5t175.5 91.5v96h166v-117q54 -15 141 -55l-92 -182q-92 47 -143 47q-74 0 -74 -123t74 -123q43 0 143 47l92 -182q-87 -40 -141 -55v-117h-166v94q-107 10 -175.5 93.5t-68.5 242.5z" />
<glyph unicode="&#xf6e0;" horiz-adv-x="638" d="M49 1219q0 159 68.5 242t175.5 91v97h166v-117q54 -15 141 -55l-92 -183q-92 47 -143 47q-41 0 -57.5 -31t-16.5 -91q0 -123 74 -123q43 0 143 47l92 -182q-93 -43 -141 -56v-117h-166v95q-107 10 -175.5 93.5t-68.5 242.5z" />
<glyph unicode="&#xf6e1;" horiz-adv-x="376" d="M70 -51h231l10 -291l-182 -193l-59 82l102 146h-102v256z" />
<glyph unicode="&#xf6e2;" horiz-adv-x="378" d="M72 643l102 145h-102v256h231l10 -290l-182 -193z" />
<glyph unicode="&#xf6e3;" horiz-adv-x="747" d="M29 -195l110 181q56 -36 132 -65.5t124 -29.5q27 0 43.5 10.5t16.5 28.5q0 24 -28 39.5t-93 39.5t-111 48q-178 95 -178 250q0 102 64 173.5t188 84.5v113h166v-123q122 -22 233 -84l-112 -184q-136 67 -215 67q-29 0 -47.5 -10.5t-18.5 -30.5q0 -22 28.5 -38.5 t95.5 -41.5t108 -45q180 -95 180 -247q0 -99 -64.5 -172t-187.5 -86v-113h-166v121q-143 26 -268 114z" />
<glyph unicode="&#xf6e4;" horiz-adv-x="747" d="M29 901l110 180q56 -35 132 -64.5t124 -29.5q27 0 43.5 10.5t16.5 28.5q0 24 -28 39.5t-93 39.5t-111 48q-178 95 -178 250q0 102 64 173.5t188 84.5v113h166v-123q122 -22 233 -84l-112 -185q-139 68 -215 68q-29 0 -47.5 -10.5t-18.5 -30.5q0 -22 28.5 -38.5 t95.5 -41.5t108 -45q180 -95 180 -248q0 -100 -64.5 -173.5t-187.5 -86.5v-110h-166v118q-152 32 -268 117z" />
<glyph unicode="&#xf6e7;" horiz-adv-x="370" d="M70 -51h231v-256h-231v256z" />
<glyph unicode="&#xf6e8;" horiz-adv-x="374" d="M72 788v256h231v-256h-231z" />
<glyph unicode="&#xf6e9;" horiz-adv-x="718" d="M33 991q0 94 58 150.5t157 56.5q28 0 59 -5t65 -13t38 -9v25q0 38 -16.5 52t-57.5 14q-62 0 -195 -43l-73 167q183 62 319 62q141 0 201.5 -60t60.5 -200v-400h-239v68q-78 -82 -181 -82q-93 0 -144.5 62t-51.5 155zM272 1016q0 -51 50 -51q46 0 88 45v45q-54 14 -78 14 q-60 0 -60 -53z" />
<glyph unicode="&#xf6ea;" horiz-adv-x="749" d="M80 788v895h237v-309q41 38 79 56t91 18q106 0 165 -88t59 -250q0 -159 -59 -247.5t-165 -88.5q-52 0 -89.5 18.5t-80.5 55.5v-60h-237zM317 1036q37 -61 86 -61q66 0 66 137q0 135 -66 135q-47 0 -86 -61v-150z" />
<glyph unicode="&#xf6eb;" horiz-adv-x="749" d="M39 1110q0 162 58.5 250t164.5 88q52 0 89.5 -18.5t80.5 -55.5v309h238v-895h-238v60q-43 -37 -80.5 -55.5t-89.5 -18.5q-106 0 -164.5 88t-58.5 248zM281 1112q0 -137 65 -137q49 0 86 61v150q-39 61 -86 61q-65 0 -65 -135z" />
<glyph unicode="&#xf6ec;" horiz-adv-x="671" d="M37 1108q0 161 78 250.5t225 89.5q142 0 216.5 -80.5t74.5 -210.5q0 -25 -2.5 -49t-4.5 -36l-3 -11h-342q5 -55 22 -79t55 -24q69 0 193 68l86 -152q-161 -100 -309 -100q-130 0 -209.5 82.5t-79.5 251.5zM279 1186h129q-3 88 -64 88q-59 0 -65 -88z" />
<glyph unicode="&#xf6ed;" horiz-adv-x="397" d="M76 1493v188h243v-188h-243zM78 788v646h239v-646h-239z" />
<glyph unicode="&#xf6ee;" horiz-adv-x="395" d="M78 788v895h239v-895h-239z" />
<glyph unicode="&#xf6ef;" horiz-adv-x="1081" d="M80 788v646h239v-70q76 84 173 84q116 0 155 -102q35 42 85 72t106 30q84 0 128 -52t44 -151v-457h-238v390q0 40 -6.5 58.5t-30.5 18.5q-38 0 -71 -53v-414h-238v390q0 40 -6.5 58.5t-30.5 18.5q-40 0 -70 -51v-416h-239z" />
<glyph unicode="&#xf6f0;" horiz-adv-x="710" d="M37 1112q0 161 81 248.5t238 87.5t238.5 -87.5t81.5 -250.5q0 -162 -81.5 -249t-238.5 -87t-238 87.5t-81 250.5zM274 1112q0 -147 82 -147q80 0 80 145q0 147 -80 147q-82 0 -82 -145z" />
<glyph unicode="&#xf6f1;" horiz-adv-x="542" d="M80 788v646h237v-134q8 22 20.5 43.5t36 47.5t61.5 40.5t85 10.5v-238q-52 0 -91.5 -21.5t-59.5 -52t-33 -60.5t-16 -52l-3 -21v-209h-237z" />
<glyph unicode="&#xf6f2;" horiz-adv-x="643" d="M31 862l84 158q49 -25 116 -47.5t105 -22.5q16 0 26.5 6.5t10.5 18.5q0 10 -13.5 16.5t-50 16.5t-59.5 18q-209 63 -209 215q0 89 64.5 148t185.5 59q139 0 297 -74l-84 -145q-127 45 -185 45q-38 0 -38 -21q0 -12 12.5 -19t53.5 -17.5t61 -16.5q39 -12 70 -27t64 -40 t51.5 -64t18.5 -88q0 -91 -64.5 -149t-189.5 -58q-86 0 -177 26.5t-150 61.5z" />
<glyph unicode="&#xf6f3;" horiz-adv-x="540" d="M27 1251v183h75v151l238 35v-186h147v-183h-147v-202q0 -25 7 -38.5t13.5 -15.5t16.5 -2q21 0 67 23l78 -182q-113 -60 -213 -60q-110 0 -158.5 65.5t-48.5 196.5v215h-75z" />
<glyph unicode="&#xf8ff;" horiz-adv-x="1720" d="M128 560.5q-2 11.5 15 21.5l58 41q2 1 3.5 2.5l3 3l2.5 2.5t2 3l1 1q19 16 37 -12l33 -64q6 -12 13.5 -15.5t13.5 2t9 17.5l19 70q4 19 18.5 21t26.5 -13l47 -53q13 -15 23.5 -11.5t11.5 23.5l4 70q3 20 15.5 25t27.5 -7l57 -43q17 -12 26 -6.5t5 25.5l-8 69 q-3 20 8.5 28t28.5 -1l63 -29q19 -9 27 -1.5t2 26.5l-23 67q-8 19 1 29t28 4l14 -2q40 -77 70.5 -203t30.5 -217q-15 -18 -34.5 -27.5t-59.5 -9.5h-9q0 47 -32 72q18 -21 18 -55v-15q-33 3 -33 39q0 43 -27.5 72t-76.5 29q-41 0 -68.5 -32t-27.5 -79q0 -60 49.5 -96.5 t138.5 -36.5q106 0 212.5 65t183.5 162.5t125 212.5t48 213q0 59 -36.5 98t-94.5 39q-48 0 -85.5 -33.5t-37.5 -84.5q0 -106 119 -119q-30 -122 -59 -174q-12 96 -43.5 178t-75.5 129q90 -119 106 -330l-28 -41q0 156 -51 287t-132 172q-5 9 2.5 18.5t22.5 12.5l70 12 q19 3 21 13.5t-15 21.5l-60 39q-15 13 -13.5 26.5t20.5 20.5l63 29q14 4 19 10t0 13t-19 13l-63 27q-24 11 -21 29q11 6 14 16l35 62q9 19 20.5 18t16.5 -20l21 -68q6 -21 18.5 -24t26.5 14l47 53q12 15 23 12.5t12 -22.5l4 -72q1 -21 14.5 -26t28.5 8l57 43q15 12 24 5.5 t7 -26.5l-10 -70q-1 -20 10 -27.5t28 1.5l64 33q19 8 26.5 0t0.5 -29l-23 -64q-6 -20 3 -30t28 -4l69 14q20 6 26.5 -2t-3.5 -27l-37 -59q-12 -17 -5.5 -29.5t26.5 -11.5l71 4q21 0 25.5 -11t-8.5 -24l-50 -53q-14 -13 -10 -26.5t25 -16.5l69 -12q13 -3 18.5 -8.5t2.5 -13.5 t-14 -17l-58 -39q-16 -10 -15 -24t21 -21l64 -27q12 -5 16.5 -12t0 -13.5t-16.5 -11.5l-64 -26q-20 -7 -21 -22t15 -25l58 -41q11 -7 14.5 -14.5t-2.5 -13.5t-19 -9l-69 -13q-21 -3 -25 -16.5t10 -28.5l50 -49q13 -14 8.5 -24.5t-25.5 -10.5l-71 5q-20 0 -26.5 -12t5.5 -29 l37 -62q10 -17 3.5 -25.5t-26.5 -5.5l-69 19q-19 4 -28 -6t-3 -29l23 -68q8 -19 0 -26t-27 2l-64 31q-17 9 -28 1t-10 -30l10 -68q1 -21 -7.5 -25.5t-23.5 7.5l-57 43q-15 12 -28.5 5.5t-14.5 -26.5l-4 -69q-1 -20 -12 -23t-23 11l-47 55q-13 14 -26 12t-19 -22l-21 -68 q-3 -13 -9.5 -18t-14 -1t-13.5 15l-35 61q-9 19 -22 19t-25 -19l-30 -61q-6 -11 -13.5 -15t-14 1t-9.5 18l-21 68q-6 20 -19 22t-26 -12l-47 -55q-12 -14 -22 -11t-13 23l-4 69q-2 20 -15 26.5t-30 -5.5l-53 -43q-17 -13 -27 -8t-6 26l10 68q1 22 -10.5 30t-30.5 -1l-61 -31 q-19 -9 -27 -2t0 26l23 68q7 19 -2.5 29.5t-28.5 5.5l-69 -19q-20 -3 -26.5 5.5t3.5 25.5l39 62q11 17 4 29t-27 12l-71 -5q-21 0 -25.5 10.5t8.5 24.5l52 49q13 15 8.5 28.5t-25.5 16.5l-67 13q-22 4 -24 15.5zM604 281q43 -27 123 -27q106 0 212.5 65t183.5 162t125 212 t48 214q0 63 -41 101q25 -39 25 -84q0 -100 -47.5 -215t-126.5 -215q-85 -105 -188.5 -168.5t-212.5 -63.5q-58 0 -101 19z" />
<glyph unicode="&#xfb06;" horiz-adv-x="1771" d="M33 121l137 260q77 -44 182 -80.5t168 -36.5q58 0 58 33q0 16 -11.5 29t-36 24t-44.5 18.5t-56.5 18.5t-52.5 16q-49 16 -92 36t-87.5 51.5t-75.5 69.5t-51 91.5t-20 114.5q0 143 99.5 237.5t287.5 94.5q97 0 221 -31q-12 47 -12 100q0 146 100.5 236t284.5 90 q212 0 330.5 -107t118.5 -303v-8h235v-274h-235v-402q0 -41 11 -63t22.5 -26.5t27.5 -4.5q32 0 111 41l121 -274q-190 -95 -332 -95q-167 0 -243.5 101t-76.5 307v416h-118v274h118v31q0 119 -33 173t-118 54q-74 0 -122 -50t-48 -140q0 -79 24 -131l76 -35l-139 -244 q-69 30 -154 55t-137 25q-59 0 -59 -37q0 -10 4.5 -18.5t14.5 -16t21 -13t30.5 -12.5t36.5 -12.5t44.5 -14t48.5 -15.5q50 -17 90 -35t87 -49.5t78.5 -68t53 -91t21.5 -119.5q0 -148 -103 -241t-296 -93q-135 0 -278.5 43.5t-231.5 100.5z" />
<glyph horiz-adv-x="749" d="M39 1141q0 133 85 220t234 87q88 0 155 -30.5t107 -83.5t60 -120.5t20 -146.5q0 -221 -134.5 -364.5t-356.5 -143.5q-33 0 -63.5 3.5t-45.5 7.5l-14 3l55 201q31 -6 68 -6q68 0 126 35t89 115q-68 -44 -141 -44q-105 0 -174.5 73t-69.5 194zM285 1153q0 -41 21.5 -65.5 t58.5 -24.5q54 0 88 43q-3 74 -30 103.5t-61 29.5q-41 0 -59 -26t-18 -60z" />
<glyph horiz-adv-x="1093" d="M25 1432q0 108 54.5 169.5t166.5 61.5t166.5 -61.5t54.5 -169.5t-54.5 -169t-166.5 -61t-166.5 61t-54.5 169zM193 1432q0 -43 12 -62.5t41 -19.5t42 19.5t13 62.5q0 84 -55 84q-29 0 -41 -20t-12 -64zM266 780l379 869h176l-377 -869h-178zM625 1006q0 108 55 168.5 t166 60.5q112 0 167.5 -60.5t55.5 -168.5q0 -109 -55.5 -170.5t-167.5 -61.5q-111 0 -166 61.5t-55 170.5zM795 1006q0 -45 11.5 -64.5t39.5 -19.5q30 0 42.5 19.5t12.5 64.5q0 42 -12.5 61.5t-42.5 19.5q-27 0 -39 -19.5t-12 -61.5z" />
<glyph horiz-adv-x="2453" d="M33 801v274h119q5 201 85 299.5t252 98.5q186 0 402 -87q84 107 260 107q146 0 315 -57v57h359v-745l186 327h412l-307 -424l356 -651h-377l-188 365l-82 -115v-250h-359v1147q-3 1 -54 13t-92 19t-67 7q-16 0 -27.5 -2.5t-25.5 -11t-21.5 -29t-7.5 -51.5v-17h199v-274 h-199v-801h-360v801h-301v-801h-358v801h-119zM510 1075h301q0 49 2 72q-160 39 -221 39q-16 0 -27.5 -2.5t-25.5 -11t-21.5 -29t-7.5 -51.5v-17z" />
<glyph horiz-adv-x="1923" d="M33 801v274h119q5 201 85 299.5t252 98.5q186 0 402 -87q84 107 260 107q146 0 315 -57v57h359v-1493h-359v1147q-3 1 -54 13t-92 19t-67 7q-16 0 -27.5 -2.5t-25.5 -11t-21.5 -29t-7.5 -51.5v-17h199v-274h-199v-801h-360v801h-301v-801h-358v801h-119zM510 1075h301 q0 49 2 72q-160 39 -221 39q-16 0 -27.5 -2.5t-25.5 -11t-21.5 -29t-7.5 -51.5v-17z" />
<glyph horiz-adv-x="2127" d="M33 801v274h119q5 201 85 299.5t252 98.5q183 0 396 -84q76 104 243 104q154 0 342 -94l-118 -252q-19 10 -59 24.5t-62 14.5q-12 0 -21 -2.5t-20 -11t-17 -29t-6 -51.5v-17h312v254l358 57v-311h236v-274h-236v-402q0 -41 11 -63t22.5 -26.5t27.5 -4.5q38 0 111 41 l121 -274q-190 -95 -332 -95q-168 0 -243.5 100.5t-75.5 307.5v416h-312v-801h-358v801h-299v-801h-358v801h-119zM510 1075h299q0 49 2 72q-168 39 -219 39q-16 0 -27.5 -2.5t-25.5 -11t-21.5 -29t-7.5 -51.5v-17z" />
<glyph horiz-adv-x="1841" d="M33 801v274h119q0 211 80 314.5t257 103.5q147 0 316 -57v57h358v-532q84 66 158 101.5t166 35.5q135 0 202.5 -85.5t67.5 -246.5v-766h-358v684q0 123 -74 123q-41 0 -85 -34.5t-77 -78.5v-694h-358v1147q-160 39 -213 39q-16 0 -27.5 -2.5t-25.5 -11t-21.5 -29 t-7.5 -51.5v-17h199v-274h-199v-801h-358v801h-119z" />
<glyph horiz-adv-x="1855" d="M33 801v274h119q5 201 85 299.5t252 98.5q190 0 406 -87q87 107 274 107q217 0 461 -94l-110 -252q-7 1 -45.5 9t-68.5 13.5t-69.5 11t-64.5 5.5q-101 0 -101 -94v-17h594v-1075h-358v801h-236v-801h-360v801h-301v-801h-358v801h-119zM510 1075h301q0 49 2 72 q-160 39 -221 39q-16 0 -27.5 -2.5t-25.5 -11t-21.5 -29t-7.5 -51.5v-17z" />
<glyph horiz-adv-x="1196" d="M33 801v274h119q0 211 85 314.5t271 103.5q214 0 463 -94l-111 -252q-1 0 -61.5 12.5t-108.5 19.5t-80 7q-19 0 -33 -2.5t-31 -11t-26.5 -29t-9.5 -51.5v-17h594v-1075h-359v801h-235v-801h-358v801h-119z" />
<glyph horiz-adv-x="1196" d="M33 801v274h119q0 211 85 314.5t271 103.5q214 0 463 -94l-111 -252q-1 0 -61.5 12.5t-108.5 19.5t-80 7q-19 0 -33 -2.5t-31 -11t-26.5 -29t-9.5 -51.5v-17h596v-1001q0 -74 -1 -108.5t-6 -91t-16 -83t-32 -67t-52.5 -62.5t-78 -50.5t-109.5 -49.5t-145 -41l-113 270 q37 16 63.5 27.5t48 26t34.5 23.5t22.5 26t14 27t7 34t2.5 38.5v49.5v758h-235v-801h-358v801h-119z" />
<glyph horiz-adv-x="1792" d="M33 801v274h119q0 211 80 314.5t257 103.5q147 0 316 -57v57h358v-745l187 327h411l-307 -424l356 -651h-376l-189 365l-82 -115v-250h-358v1147q-160 39 -213 39q-16 0 -27.5 -2.5t-25.5 -11t-21.5 -29t-7.5 -51.5v-17h199v-274h-199v-801h-358v801h-119z" />
<glyph horiz-adv-x="2504" d="M33 801v274h119q5 201 85 299.5t252 98.5q186 0 402 -87q84 107 260 107q146 0 315 -57v57h359v-532q85 66 158 101.5t165 35.5q135 0 203 -85.5t68 -246.5v-766h-359v684q0 123 -73 123q-41 0 -85 -34.5t-77 -78.5v-694h-359v1147q-3 1 -54 13t-92 19t-67 7 q-16 0 -27.5 -2.5t-25.5 -11t-21.5 -29t-7.5 -51.5v-17h199v-274h-199v-801h-360v801h-301v-801h-358v801h-119zM510 1075h301q0 49 2 72q-160 39 -221 39q-16 0 -27.5 -2.5t-25.5 -11t-21.5 -29t-7.5 -51.5v-17z" />
<glyph horiz-adv-x="1261" d="M33 801v274h119q0 211 80 314.5t257 103.5q147 0 316 -57v57h358v-1493h-358v1147q-160 39 -213 39q-16 0 -27.5 -2.5t-25.5 -11t-21.5 -29t-7.5 -51.5v-17h199v-274h-199v-801h-358v801h-119z" />
<glyph horiz-adv-x="1470" d="M33 801v274h119q0 213 75.5 315.5t243.5 102.5q154 0 342 -94l-119 -252q-19 10 -59 24.5t-62 14.5q-12 0 -21 -2.5t-19.5 -11t-16.5 -29t-6 -51.5v-17h311v254l359 57v-311h235v-274h-235v-402q0 -41 11 -63t22.5 -26.5t27.5 -4.5q38 0 111 41l121 -274 q-190 -95 -332 -95q-169 0 -244.5 100.5t-75.5 307.5v416h-311v-801h-358v801h-119z" />
<glyph horiz-adv-x="493" d="M41 156v182h74q3 125 51 187.5t151 62.5q108 0 226 -60l-80 -157q-60 20 -74 20q-10 0 -16.5 -2t-13.5 -13.5t-7 -33.5v-4h123v-182h-123v-463h-237v463h-74z" />
<glyph d="M94 483v693h342v-730q0 -76 28 -117.5t109 -41.5t110.5 41.5t29.5 117.5v730h342v-693q0 -91 -10.5 -160t-42 -136t-83.5 -110t-139.5 -69t-206.5 -26q-118 0 -205 26t-139 69t-83 110t-41.5 136t-10.5 160zM358 1251l213 293h375l-297 -293h-291z" />
<glyph horiz-adv-x="735" d="M35 111l112 182q111 -86 193 -86q44 0 70 21t26 59q0 34 -24 59t-74 25q-63 0 -125 -41l-137 86l41 444h538v-213h-327l-2 -78q56 9 77 9q139 0 210 -83t71 -206q0 -129 -78.5 -216t-230.5 -87q-170 0 -340 125z" />
<glyph horiz-adv-x="735" d="M35 684l112 182q111 -86 193 -86q44 0 70 21t26 59q0 34 -24 59t-74 25q-63 0 -125 -41l-137 86l41 445h538v-213h-327l-2 -78q50 8 77 8q139 0 210 -83t71 -206q0 -129 -78.5 -216t-230.5 -87q-170 0 -340 125z" />
<glyph horiz-adv-x="1095" d="M27 -82l170 275q37 -28 62.5 -45.5t69 -43t87.5 -38.5t86 -13q73 0 118.5 44t45.5 118q0 69 -41 118.5t-125 49.5q-89 0 -203 -74l-207 129l64 738h843v-324h-522l-6 -168q72 14 129 14q112 0 199 -39.5t139.5 -107.5t79 -152t26.5 -180q0 -101 -29.5 -189t-87 -158.5 t-152.5 -111.5t-218 -41q-88 0 -174 21t-155 55t-114.5 63t-84.5 60z" />
<glyph horiz-adv-x="2502" d="M33 801v274h119q5 201 85 299.5t252 98.5q186 0 402 -87q84 107 260 107q146 0 315 -57v57h359v-524q68 65 129 97t147 32q166 0 258 -144.5t92 -416.5q0 -271 -92 -415.5t-258 -144.5q-86 0 -147.5 31.5t-128.5 95.5v-104h-359v1147q-3 1 -54 13t-92 19t-67 7 q-16 0 -27.5 -2.5t-25.5 -11t-21.5 -29t-7.5 -51.5v-17h199v-274h-199v-801h-360v801h-301v-801h-358v801h-119zM510 1075h301q0 49 2 72q-160 39 -221 39q-16 0 -27.5 -2.5t-25.5 -11t-21.5 -29t-7.5 -51.5v-17zM1825 393q68 -114 149 -114q115 0 115 260q0 258 -115 258 q-81 0 -149 -117v-287z" />
<glyph horiz-adv-x="1511" d="M45 559l88 141q92 -67 168 -67q42 0 68 19.5t26 52.5q0 31 -23.5 53t-72.5 22q-58 0 -111 -37l-108 68l35 365h452v-168h-286l-2 -74q31 8 71 8q119 0 180.5 -68.5t61.5 -168.5q0 -103 -67.5 -174.5t-194.5 -71.5q-149 0 -285 100zM406 0l477 1176h207l-476 -1176h-208z M885 190q0 126 139 195q-96 69 -96 156q0 77 65.5 126.5t182.5 49.5t182 -49.5t65 -126.5q0 -89 -98 -154q141 -74 141 -197q0 -91 -76 -146.5t-214 -55.5q-139 0 -215 55t-76 147zM1081 207q0 -29 26 -47.5t69 -18.5q42 0 68 18.5t26 47.5q0 56 -94 104q-46 -23 -70.5 -47 t-24.5 -57zM1112 520q0 -43 62 -71q65 28 65 71q0 18 -16 34.5t-47 16.5t-47.5 -16.5t-16.5 -34.5z" />
<glyph horiz-adv-x="1470" d="M45 559l88 141q92 -67 168 -67q42 0 68 19.5t26 52.5q0 31 -23.5 53t-72.5 22q-57 0 -113 -37l-106 68l35 365h450v-168h-286l-3 -74q46 8 74 8q119 0 180.5 -68.5t61.5 -168.5q0 -103 -67.5 -174.5t-196.5 -71.5q-147 0 -283 100zM406 0l475 1176h209l-476 -1176h-208z M856 301q0 181 114.5 298.5t299.5 117.5q28 0 54.5 -3t39.5 -6l12 -3l-45 -158q-26 6 -59 6q-64 0 -118 -32.5t-81 -104.5q55 41 131 41q92 0 152.5 -59.5t60.5 -157.5q0 -108 -73.5 -180t-198.5 -72q-143 0 -216 88t-73 225zM1053 268q1 -63 27 -89.5t63 -26.5q40 0 60 24 t20 53q0 36 -21 58t-59 22q-58 0 -90 -41z" />
<glyph horiz-adv-x="1392" d="M33 801v274h119q5 201 85 299.5t252 98.5q189 0 398 -84q76 104 237 104q158 0 351 -94l-121 -264q-82 34 -123 34q-60 0 -60 -86v-8h199v-274h-199v-801h-358v801h-303v-801h-358v801h-119zM510 1075h303q0 49 2 72q-6 1 -41 9t-62.5 13.5t-62.5 11t-57 5.5 q-16 0 -27.5 -2.5t-25.5 -11t-21.5 -29t-7.5 -51.5v-17z" />
<glyph d="M94 483v693h342v-730q0 -76 28 -117.5t109 -41.5t110.5 41.5t29.5 117.5v730h342v-693q0 -91 -10.5 -160t-42 -136t-83.5 -110t-139.5 -69t-206.5 -26q-118 0 -205 26t-139 69t-83 110t-41.5 136t-10.5 160z" />
<glyph horiz-adv-x="696" d="M25 1430v219h645v-219h-197v-642h-248v642h-200z" />
<glyph horiz-adv-x="817" d="M29 141v178l313 541h328v-506h108v-213h-108v-141h-248v141h-393zM262 354h160v281z" />
<glyph horiz-adv-x="817" d="M29 715v178l313 541h328v-506h108v-213h-108v-142h-248v142h-393zM262 928h160v280z" />
<glyph horiz-adv-x="1232" d="M23 -8v268l501 916h496v-861h176v-323h-176v-250h-373v250h-624zM371 315h276v506z" />
<glyph horiz-adv-x="1460" d="M33 801v274h119q0 211 74.5 314.5t236.5 103.5q157 0 350 -94l-111 -248q-90 35 -133 35q-11 0 -19.5 -2.5t-18.5 -10t-15.5 -26.5t-5.5 -47v-25h199v-274h-199v-801h-358v801h-119zM764 801v274h119q0 211 74.5 314.5t236.5 103.5q71 0 146.5 -24t129.5 -52l-73 -258 q-70 27 -97 27q-11 0 -19.5 -2.5t-18.5 -10t-15.5 -26.5t-5.5 -47v-25h199v-274h-199v-801h-358v801h-119z" />
<glyph horiz-adv-x="1617" d="M45 590v139l279 447h258v-420h96v-166h-96v-119h-195v119h-342zM233 756h154v254zM506 0l475 1176h207l-473 -1176h-209zM1010 88l88 143q88 -69 168 -69q42 0 68 19t26 52q0 32 -23.5 55t-70.5 23q-57 0 -113 -37l-109 68l35 363h453v-166h-289l-2 -76q46 8 74 8 q119 0 180 -67.5t61 -167.5q0 -105 -67 -176.5t-195 -71.5q-139 0 -284 100z" />
<glyph horiz-adv-x="1841" d="M33 801v274h119q0 211 80 314.5t257 103.5q147 0 316 -57v57h358v-524q68 65 129.5 97t147.5 32q166 0 258 -144.5t92 -416.5q0 -271 -92 -415.5t-258 -144.5q-86 0 -148 31.5t-129 95.5v-104h-358v1147q-160 39 -213 39q-16 0 -27.5 -2.5t-25.5 -11t-21.5 -29 t-7.5 -51.5v-17h199v-274h-199v-801h-358v801h-119zM1163 393q68 -114 150 -114q114 0 114 260q0 258 -114 258q-82 0 -150 -117v-287z" />
<glyph horiz-adv-x="731" d="M33 801v274h119q0 211 74.5 314.5t236.5 103.5q71 0 146.5 -24t129.5 -52l-73 -258q-70 27 -97 27q-11 0 -19.5 -2.5t-18.5 -10t-15.5 -26.5t-5.5 -47v-25h199v-274h-199v-801h-358v801h-119z" />
<glyph horiz-adv-x="1157" d="M66 188v213h120v1033h920v-332h-545v-223h426v-326h-426v-152h301v-213h-301v-188h-375v188h-120z" />
<glyph horiz-adv-x="1034" d="M63 139v193h107v844h813v-299h-469v-144h367v-293h-367v-108h260v-193h-260v-139h-344v139h-107z" />
<glyph horiz-adv-x="747" d="M47 -63h78v616h586v-219h-340v-105h266v-215h-266v-77h190v-140h-190v-104h-246v104h-78v140z" />
<glyph horiz-adv-x="749" d="M47 893v139h80v617h586v-219h-340v-105h266v-215h-266v-78h190v-139h-190v-105h-246v105h-80z" />
<glyph horiz-adv-x="493" d="M41 1251v183h74q3 125 51 187t151 62q110 0 226 -59l-80 -158q-63 21 -74 21q-10 0 -16.5 -2t-13.5 -13.5t-7 -33.5v-4h123v-183h-123v-463h-237v463h-74z" />
<glyph horiz-adv-x="696" d="M25 334v219h645v-219h-197v-641h-248v641h-200z" />
<glyph horiz-adv-x="1085" d="M104 0v1176h345v-168h112q486 0 486 -402q0 -399 -486 -399h-112v-207h-345zM449 500h71q97 0 138.5 21.5t41.5 84.5q0 64 -41 84.5t-139 20.5h-71v-211z" />
<glyph horiz-adv-x="952" d="M31 872v304h891v-304h-271v-872h-94q61 -98 61 -190q0 -101 -60.5 -150t-151.5 -49q-98 0 -166 47l65 176q39 -22 74 -22q67 0 67 65q0 59 -40 123h-99v872h-276z" />
<glyph horiz-adv-x="952" d="M31 872v304h891v-304h-271v-872h-344v872h-276zM129 1544h238l110 -137l111 137h237l-188 -293h-320z" />
<glyph horiz-adv-x="962" d="M35 872v304h891v-304h-271v-350h111v-192h-111v-330h-344v330h-110v192h110v350h-276z" />
<glyph horiz-adv-x="890" d="M78 244q0 59 8 106t31 94t60.5 78t101 50.5t147.5 19.5q96 0 167.5 -23.5t109.5 -62.5t55.5 -81t17.5 -87q0 -36 -11 -68.5t-23 -46.5l-11 -14q-35 -7 -64.5 -24.5t-29.5 -39.5q0 -16 19.5 -27.5t57 -30t64.5 -42.5q78 -64 78 -158q0 -88 -61.5 -148.5t-169.5 -60.5 q-121 0 -273 74l82 156q96 -49 150 -49q34 0 34 22q0 18 -32 31q-67 28 -97 50q-77 60 -77 159q0 130 135 196v9q0 34 -26 58t-85 24q-66 0 -92.5 -40.5t-26.5 -140.5v-534h-239v551z" />
<glyph horiz-adv-x="890" d="M78 788v551q0 59 8 106t31 94t60.5 78.5t101 51t147.5 19.5q96 0 167.5 -23.5t109.5 -62.5t55.5 -81t17.5 -87q0 -36 -11 -68.5t-23 -46.5l-11 -14q-35 -7 -64.5 -24.5t-29.5 -39.5q0 -16 19.5 -27.5t57 -30t64.5 -42.5q78 -64 78 -158q0 -88 -61.5 -148.5t-169.5 -60.5 q-121 0 -273 74l82 156q98 -50 150 -50q34 0 34 23q0 18 -32 31q-67 28 -97 50q-76 61 -77 159q0 130 135 196v8q0 34 -26 58t-85 24q-66 0 -92.5 -40t-26.5 -140v-535h-239z" />
<glyph horiz-adv-x="749" d="M39 14q0 162 58.5 250t164.5 88q53 0 90.5 -18t79.5 -55v59h238v-625q0 -144 -63.5 -213t-211.5 -69q-159 0 -332 55l50 186q54 -20 120.5 -35.5t104.5 -15.5q55 0 74.5 20t19.5 64v47q-43 -37 -80.5 -55.5t-89.5 -18.5q-106 0 -164.5 88t-58.5 248zM281 16 q0 -137 65 -137q48 0 86 62v149q-39 62 -86 62q-65 0 -65 -136z" />
<glyph horiz-adv-x="952" d="M31 872v304h891v-304h-271v-872h-344v872h-276z" />
<glyph horiz-adv-x="768" d="M39 901l111 180q56 -35 132 -64.5t124 -29.5q27 0 43 10.5t16 28.5q0 24 -28 39.5t-93 39.5t-111 48q-178 95 -178 250q0 113 77 186.5t224 73.5q175 0 351 -96l-113 -185q-139 68 -215 68q-29 0 -47.5 -10.5t-18.5 -30.5q0 -22 28.5 -38.5t95.5 -41.5t108 -45 q180 -95 180 -248q0 -110 -77 -186t-224 -76q-107 0 -210.5 38t-174.5 89z" />
<glyph d="M94 483v693h342v-730q0 -76 28 -117.5t109 -41.5t110.5 41.5t29.5 117.5v730h342v-693q0 -91 -10.5 -160t-42 -136t-83.5 -110t-139.5 -69t-206.5 -26q-118 0 -205 26t-139 69t-83 110t-41.5 136t-10.5 160zM258 1524h209q0 -34 28 -55t78 -21t79.5 21t29.5 55h209 q0 -127 -84 -200t-234 -73q-148 0 -231.5 73t-83.5 200z" />
<glyph horiz-adv-x="749" d="M39 1110q0 162 58.5 250t164.5 88q52 0 89.5 -18.5t80.5 -55.5v60h238v-625q0 -144 -63.5 -213.5t-211.5 -69.5q-156 0 -332 56l50 186q54 -20 120.5 -35.5t104.5 -15.5q55 0 74.5 20t19.5 64v47q-43 -37 -80.5 -55.5t-89.5 -18.5q-106 0 -164.5 88t-58.5 248zM281 1112 q0 -137 65 -137q49 0 86 61v150q-39 61 -86 61q-65 0 -65 -135z" />
<glyph horiz-adv-x="765" d="M39 -195l111 181q56 -36 132 -65.5t124 -29.5q27 0 43 10.5t16 28.5q0 24 -28 39.5t-93 39.5t-111 48q-178 95 -178 250q0 113 77 186.5t224 73.5q175 0 351 -96l-113 -184q-136 67 -215 67q-29 0 -47.5 -10.5t-18.5 -30.5q0 -22 28.5 -38.5t95.5 -41.5t108 -45 q180 -95 180 -247q0 -110 -77.5 -186.5t-223.5 -76.5q-107 0 -210.5 38t-174.5 89z" />
<glyph horiz-adv-x="1036" d="M41 156l154 247q78 -47 183 -87t171 -40q34 0 57 14t23 40q0 30 -40 51t-129 53t-153 66q-49 26 -87 54t-76.5 69.5t-59.5 96.5t-21 120q0 152 107.5 253t312.5 101q126 0 253.5 -37.5t230.5 -95.5l-154 -256q-76 37 -161 64.5t-144 27.5q-82 0 -82 -53q0 -29 39 -50.5 t127.5 -53t148.5 -62.5q50 -27 88.5 -54.5t78.5 -69t61.5 -96.5t21.5 -120q0 -69 -25.5 -131.5t-75 -113.5t-132 -81t-187.5 -30q-146 0 -289.5 52t-240.5 122zM410 -109h243l11 -311l-193 -219l-61 86l106 168h-106v276z" />
<glyph horiz-adv-x="428" d="M70 1649h290l-75 -562h-142zM98 788v232h234v-232h-234z" />
<glyph horiz-adv-x="428" d="M70 553h290l-75 -561h-142zM98 -76h234v-231h-234v231z" />
<glyph horiz-adv-x="1036" d="M41 156l154 247q78 -47 183 -87t171 -40q34 0 57 14t23 40q0 30 -40 51t-129 53t-153 66q-49 26 -87 54t-76.5 69.5t-59.5 96.5t-21 120q0 152 107.5 253t312.5 101q126 0 253.5 -37.5t230.5 -95.5l-154 -256q-76 37 -161 64.5t-144 27.5q-82 0 -82 -53q0 -29 39 -50.5 t127.5 -53t148.5 -62.5q50 -27 88.5 -54.5t78.5 -69t61.5 -96.5t21.5 -120q0 -69 -25.5 -131.5t-75 -113.5t-132 -81t-187.5 -30q-146 0 -289.5 52t-240.5 122zM170 1251l188 293h320l188 -293h-237l-111 138l-110 -138h-238z" />
<glyph horiz-adv-x="1036" d="M41 156l154 247q78 -47 183 -87t171 -40q34 0 57 14t23 40q0 30 -40 51t-129 53t-153 66q-49 26 -87 54t-76.5 69.5t-59.5 96.5t-21 120q0 152 107.5 253t312.5 101q126 0 253.5 -37.5t230.5 -95.5l-154 -256q-76 37 -161 64.5t-144 27.5q-82 0 -82 -53q0 -29 39 -50.5 t127.5 -53t148.5 -62.5q50 -27 88.5 -54.5t78.5 -69t61.5 -96.5t21.5 -120q0 -84 -34 -155.5t-110 -125t-185 -69.5q53 -96 53 -178q0 -101 -61 -150t-152 -49q-98 0 -166 47l65 176q39 -22 74 -22q68 0 68 65q0 38 -33 107q-132 11 -259 61t-210 111z" />
<glyph horiz-adv-x="761" d="M80 -307v895h237v-316q52 39 97 59.5t104 20.5q172 0 172 -202v-457h-239v399q0 33 -8.5 50.5t-32.5 17.5q-47 0 -93 -62v-405h-237z" />
<glyph horiz-adv-x="1036" d="M41 156l154 247q78 -47 183 -87t171 -40q34 0 57 14t23 40q0 30 -40 51t-129 53t-153 66q-49 26 -87 54t-76.5 69.5t-59.5 96.5t-21 120q0 152 107.5 253t312.5 101q126 0 253.5 -37.5t230.5 -95.5l-154 -256q-76 37 -161 64.5t-144 27.5q-82 0 -82 -53q0 -29 39 -50.5 t127.5 -53t148.5 -62.5q50 -27 88.5 -54.5t78.5 -69t61.5 -96.5t21.5 -120q0 -69 -25.5 -131.5t-75 -113.5t-132 -81t-187.5 -30q-146 0 -289.5 52t-240.5 122zM170 1544h238l110 -137l111 137h237l-188 -293h-320z" />
<glyph horiz-adv-x="425" d="M66 788l75 562h142l73 -562h-290zM94 1417v232h234v-232h-234z" />
<glyph horiz-adv-x="1036" d="M41 156l154 247q78 -47 183 -87t171 -40q34 0 57 14t23 40q0 30 -40 51t-129 53t-153 66q-49 26 -87 54t-76.5 69.5t-59.5 96.5t-21 120q0 152 107.5 253t312.5 101q126 0 253.5 -37.5t230.5 -95.5l-154 -256q-76 37 -161 64.5t-144 27.5q-82 0 -82 -53q0 -29 39 -50.5 t127.5 -53t148.5 -62.5q50 -27 88.5 -54.5t78.5 -69t61.5 -96.5t21.5 -120q0 -69 -25.5 -131.5t-75 -113.5t-132 -81t-187.5 -30q-146 0 -289.5 52t-240.5 122zM303 1251l213 293h375l-297 -293h-291z" />
<glyph horiz-adv-x="1036" d="M41 156l154 247q78 -47 183 -87t171 -40q34 0 57 14t23 40q0 30 -40 51t-129 53t-153 66q-49 26 -87 54t-76.5 69.5t-59.5 96.5t-21 120q0 152 107.5 253t312.5 101q126 0 253.5 -37.5t230.5 -95.5l-154 -256q-76 37 -161 64.5t-144 27.5q-82 0 -82 -53q0 -29 39 -50.5 t127.5 -53t148.5 -62.5q50 -27 88.5 -54.5t78.5 -69t61.5 -96.5t21.5 -120q0 -69 -25.5 -131.5t-75 -113.5t-132 -81t-187.5 -30q-146 0 -289.5 52t-240.5 122z" />
<glyph horiz-adv-x="851" d="M98 788v861h351q186 0 268 -70t82 -209q0 -99 -40.5 -162.5t-129.5 -93.5l172 -326h-264l-150 304h-43v-304h-246zM344 1290h96q54 0 82.5 16.5t28.5 63.5t-28.5 63.5t-82.5 16.5h-96v-160z" />
<glyph horiz-adv-x="851" d="M98 -307v860h351q186 0 268 -70t82 -209q0 -99 -40.5 -162.5t-129.5 -93.5l172 -325h-264l-150 303h-43v-303h-246zM344 195h96q54 0 82.5 16t28.5 63t-28.5 63.5t-82.5 16.5h-96v-159z" />
<glyph horiz-adv-x="1138" d="M104 0v1176h488q257 0 371 -96t114 -285q0 -275 -235 -349l237 -446h-368l-205 414h-57v-414h-345zM440 -109h244l10 -311l-192 -219l-62 86l107 168h-107v276zM449 690h133q74 0 111.5 21t37.5 84q0 61 -38 82.5t-111 21.5h-133v-209z" />
<glyph horiz-adv-x="1138" d="M104 0v1176h488q257 0 371 -96t114 -285q0 -275 -235 -349l237 -446h-368l-205 414h-57v-414h-345zM244 1544h237l111 -137l110 137h238l-188 -293h-320zM449 690h133q74 0 111.5 21t37.5 84q0 61 -38 82.5t-111 21.5h-133v-209z" />
<glyph horiz-adv-x="1138" d="M104 0v1176h488q257 0 371 -96t114 -285q0 -275 -235 -349l237 -446h-368l-205 414h-57v-414h-345zM377 1251l213 293h375l-297 -293h-291zM449 690h133q74 0 111.5 21t37.5 84q0 61 -38 82.5t-111 21.5h-133v-209z" />
<glyph horiz-adv-x="397" d="M76 397v189h243v-189h-243zM78 -307v645h239v-645h-239z" />
<glyph horiz-adv-x="1138" d="M104 0v1176h488q257 0 371 -96t114 -285q0 -275 -235 -349l237 -446h-368l-205 414h-57v-414h-345zM449 690h133q74 0 111.5 21t37.5 84q0 61 -38 82.5t-111 21.5h-133v-209z" />
<glyph horiz-adv-x="884" d="M49 1219q0 97 21.5 175.5t67 140t122.5 95t182 33.5q84 0 151 -22.5t112 -62t75 -95.5t43 -121.5t13 -142.5q0 -267 -154 -377l119 -105l-162 -176l-197 213q-105 0 -182 34t-122.5 95.5t-67 140t-21.5 175.5zM301 1219q0 -222 141 -222q142 0 142 222q0 221 -142 221 q-141 0 -141 -221z" />
<glyph horiz-adv-x="428" d="M68 -307l75 561h142l73 -561h-290zM96 322v231h234v-231h-234z" />
<glyph horiz-adv-x="567" d="M82 0l102 766h197l102 -766h-401zM123 856v320h321v-320h-321z" />
<glyph horiz-adv-x="886" d="M49 123q0 97 21.5 175.5t67 140t122.5 95t182 33.5q84 0 151 -22.5t112 -62t75 -95.5t43 -121.5t13 -142.5q0 -267 -154 -377l119 -104l-162 -177l-197 213q-105 0 -182 34t-122.5 95.5t-67 140t-21.5 175.5zM301 123q0 -221 141 -221q142 0 142 221t-142 221 q-141 0 -141 -221z" />
<glyph d="M94 483v693h342v-730q0 -76 28 -117.5t109 -41.5t110.5 41.5t29.5 117.5v730h342v-693q0 -91 -10.5 -160t-42 -136t-83.5 -110t-139.5 -69t-206.5 -26q-118 0 -205 26t-139 69t-83 110t-41.5 136t-10.5 160zM225 1251l189 293h319l189 -293h-238l-111 138l-110 -138h-238 z" />
<glyph horiz-adv-x="1202" d="M55 588q0 105 18.5 194t60 166t104 131t155.5 84.5t209 30.5t209 -30.5t155.5 -84.5t104 -131t60 -166t18.5 -194q0 -369 -215 -516l162 -142l-224 -241l-270 293q-116 0 -209 30.5t-155.5 84.5t-104 131t-60 166t-18.5 194zM408 588q0 -301 194 -301q195 0 195 301 t-195 301q-194 0 -194 -301z" />
<glyph horiz-adv-x="804" d="M98 788v861h330q348 0 348 -295q0 -289 -348 -289h-84v-277h-246zM344 1276h74q53 0 80.5 16t27.5 62q0 48 -27 64t-81 16h-74v-158z" />
<glyph horiz-adv-x="804" d="M98 -307v860h330q348 0 348 -295q0 -289 -348 -289h-84v-276h-246zM344 180h74q53 0 80.5 16t27.5 62q0 48 -27 64t-81 16h-74v-158z" />
<glyph horiz-adv-x="395" d="M-43 -422q37 15 59 27.5t35.5 22.5t19 27.5t6.5 30.5t1 44v608h239v-588v-2q0 -53 -1 -77.5t-5.5 -62.5t-15.5 -55.5t-30.5 -43.5t-51 -41.5t-75.5 -33t-105 -34.5zM76 397v189h246v-189h-246z" />
<glyph horiz-adv-x="563" d="M82 1176h401l-102 -766h-197zM121 0v319h321v-319h-321z" />
<glyph horiz-adv-x="1087" d="M104 0v1176h457q486 0 486 -402q0 -192 -115.5 -295.5t-370.5 -103.5h-112v-375h-345zM449 668h100q75 0 113 21.5t38 84.5q0 62 -38 83.5t-113 21.5h-100v-211z" />
<glyph horiz-adv-x="1202" d="M55 588q0 105 18.5 194t60 166t104 131t155.5 84.5t209 30.5t209 -30.5t155.5 -84.5t104 -131t60 -166t18.5 -194t-18.5 -194t-60 -166t-104 -131t-155.5 -84.5t-209 -30.5t-209 30.5t-155.5 84.5t-104 131t-60 166t-18.5 194zM244 1337q52 118 80 157q58 83 141 83 q42 0 94.5 -24t96.5 -48t67 -24q13 0 23.5 5t28.5 27t36 62l147 -80q-15 -36 -21.5 -50.5t-22 -46.5t-26 -46.5t-28.5 -37t-34.5 -33t-39 -18.5t-47.5 -8q-43 0 -96 24t-97 48.5t-67 24.5q-43 0 -88 -95zM408 588q0 -301 194 -301q195 0 195 301t-195 301q-194 0 -194 -301z " />
<glyph horiz-adv-x="884" d="M49 1219q0 97 22 175.5t67.5 140t123 95t182.5 33.5q84 0 150.5 -22.5t111.5 -62t75 -95.5t43.5 -121.5t13.5 -142.5q0 -97 -22 -175.5t-67.5 -140t-123 -95.5t-181.5 -34q-105 0 -182.5 34t-123 95.5t-67.5 140t-22 175.5zM303 1219q0 -222 141 -222q140 0 140 222 q0 221 -140 221q-141 0 -141 -221z" />
<glyph horiz-adv-x="718" d="M80 -307v895h237v-430l107 180h274l-192 -254l221 -391h-250l-112 207l-48 -64v-143h-237z" />
<glyph horiz-adv-x="718" d="M80 788v895h237v-430l107 181h274l-192 -254l221 -392h-250l-112 207l-48 -63v-144h-237z" />
<glyph horiz-adv-x="1202" d="M55 588q0 105 18.5 194t60 166t104 131t155.5 84.5t209 30.5q165 0 277 -59l28 41h223l-108 -154q127 -160 127 -434q0 -105 -18.5 -194t-60 -166t-104 -131t-155.5 -84.5t-209 -30.5q-162 0 -276 57l-27 -39h-223l108 152q-129 159 -129 436zM389 1251l213 293h375 l-297 -293h-291zM408 588q0 -65 8 -109l274 389q-37 21 -88 21q-194 0 -194 -301zM514 305q38 -18 88 -18q195 0 195 301q0 54 -9 104z" />
<glyph d="M94 483v693h342v-730q0 -76 28 -117.5t109 -41.5t110.5 41.5t29.5 117.5v730h342v-693q0 -91 -10.5 -160t-42 -136t-83.5 -110t-139.5 -69t-206.5 -26q-118 0 -205 26t-139 69t-83 110t-41.5 136t-10.5 160zM279 1272v266h258v-266h-258zM612 1272v266h256v-266h-256z " />
<glyph horiz-adv-x="1202" d="M55 588q0 105 18.5 194t60 166t104 131t155.5 84.5t209 30.5t209 -30.5t155.5 -84.5t104 -131t60 -166t18.5 -194t-18.5 -194t-60 -166t-104 -131t-155.5 -84.5t-209 -30.5t-209 30.5t-155.5 84.5t-104 131t-60 166t-18.5 194zM332 1303v215h542v-215h-542zM408 588 q0 -301 194 -301q195 0 195 301t-195 301q-194 0 -194 -301z" />
<glyph horiz-adv-x="886" d="M49 123q0 97 22 175.5t67.5 140t123 95t182.5 33.5q84 0 150.5 -22.5t111.5 -62t75 -95.5t43.5 -121.5t13.5 -142.5q0 -97 -22 -175.5t-67.5 -140t-123 -95.5t-181.5 -34q-105 0 -182.5 34t-123 95.5t-67.5 140t-22 175.5zM303 123q0 -221 141 -221q140 0 140 221 t-140 221q-141 0 -141 -221z" />
<glyph horiz-adv-x="1202" d="M55 588q0 105 18.5 194t60 166t104 131t155.5 84.5t209 30.5t209 -30.5t155.5 -84.5t104 -131t60 -166t18.5 -194t-18.5 -194t-60 -166t-104 -131t-155.5 -84.5t-209 -30.5t-209 30.5t-155.5 84.5t-104 131t-60 166t-18.5 194zM299 1251l141 293h293l-225 -293h-209z M408 588q0 -301 194 -301q195 0 195 301t-195 301q-194 0 -194 -301zM645 1251l141 293h293l-225 -293h-209z" />
<glyph horiz-adv-x="1202" d="M55 588q0 105 18.5 194t60 166t104 131t155.5 84.5t209 30.5t209 -30.5t155.5 -84.5t104 -131t60 -166t18.5 -194t-18.5 -194t-60 -166t-104 -131t-155.5 -84.5t-209 -30.5t-209 30.5t-155.5 84.5t-104 131t-60 166t-18.5 194zM231 1544h375l213 -293h-291zM408 588 q0 -301 194 -301q195 0 195 301t-195 301q-194 0 -194 -301z" />
<glyph d="M94 483v693h342v-730q0 -76 28 -117.5t109 -41.5t110.5 41.5t29.5 117.5v730h342v-693q0 -91 -10.5 -160t-42 -136t-83.5 -110t-139.5 -69t-206.5 -26q-118 0 -205 26t-139 69t-83 110t-41.5 136t-10.5 160zM203 1544h375l213 -293h-291z" />
<glyph horiz-adv-x="395" d="M78 -307v895h239v-895h-239z" />
<glyph d="M94 483v693h342v-730q0 -76 28 -117.5t109 -41.5t110.5 41.5t29.5 117.5v730h342v-693q0 -91 -10.5 -160t-42 -136t-83.5 -110t-139.5 -69t-206.5 -26q-118 0 -205 26t-139 69t-83 110t-41.5 136t-10.5 160zM270 1251l142 293h293l-226 -293h-209zM616 1251l142 293h293 l-226 -293h-209z" />
<glyph horiz-adv-x="948" d="M82 0v238q5 1 13 3t30.5 11t41.5 21.5t40.5 36t32.5 52.5h-144v150h146l-19 51h-127v152h56q-39 86 -39 182q0 140 88 218.5t248 78.5q211 0 442 -166l-152 -219q-135 88 -213 88q-36 0 -52.5 -13.5t-16.5 -43.5q0 -44 45 -125h278v-152h-217q8 -31 10 -51h207v-150h-227 q-18 -37 -53 -65h374v-297h-792z" />
<glyph horiz-adv-x="692" d="M63 -135l10 2.5t23.5 9t32 17.5t30 29.5t23.5 43.5h-106v99h104q-6 22 -14 40h-90v101h43q-31 79 -31 141q0 104 63 161.5t179 57.5q66 0 133.5 -23t102 -43.5t83.5 -54.5l-110 -159q-93 65 -154 65q-49 0 -49 -43q0 -10 2 -20t6.5 -21t7.5 -18.5t10.5 -22t10.5 -20.5 h196v-101h-157q8 -28 8 -40h149v-99h-159q-13 -34 -41 -59h268v-215h-574v172z" />
<glyph horiz-adv-x="692" d="M63 788v173l10 2.5t23.5 9t32 17.5t30 29.5t23.5 43.5h-106v98h104q-7 25 -14 41h-90v101h43q-31 79 -31 141q0 104 63 161.5t179 57.5q66 0 133.5 -23t102 -43.5t83.5 -54.5l-110 -160q-95 66 -154 66q-49 0 -49 -43q0 -10 2 -20t6.5 -21t7.5 -18.5t10.5 -22t10.5 -20.5 h196v-101h-157q8 -28 8 -41h149v-98h-159q-13 -34 -41 -59h268v-216h-574z" />
<glyph horiz-adv-x="1202" d="M55 588q0 105 18.5 194t60 166t104 131t155.5 84.5t209 30.5t209 -30.5t155.5 -84.5t104 -131t60 -166t18.5 -194t-18.5 -194t-60 -166t-104 -131t-155.5 -84.5t-209 -30.5t-209 30.5t-155.5 84.5t-104 131t-60 166t-18.5 194zM309 1272v266h258v-266h-258zM408 588 q0 -301 194 -301q195 0 195 301t-195 301q-194 0 -194 -301zM643 1272v266h256v-266h-256z" />
<glyph horiz-adv-x="1202" d="M55 588q0 105 18.5 194t60 166t104 131t155.5 84.5t209 30.5t209 -30.5t155.5 -84.5t104 -131t60 -166t18.5 -194t-18.5 -194t-60 -166t-104 -131t-155.5 -84.5t-209 -30.5t-209 30.5t-155.5 84.5t-104 131t-60 166t-18.5 194zM254 1251l188 293h320l188 -293h-237 l-111 138l-110 -138h-238zM408 588q0 -301 194 -301q195 0 195 301t-195 301q-194 0 -194 -301z" />
<glyph horiz-adv-x="870" d="M88 45v508h248v-535q0 -56 20.5 -86t77.5 -30q58 0 79.5 30t21.5 86v535h247v-508q0 -66 -7.5 -116.5t-30 -99.5t-60.5 -80.5t-101 -51t-149 -19.5q-85 0 -147.5 19t-100 51t-60 81t-30.5 99.5t-8 116.5z" />
<glyph horiz-adv-x="1202" d="M55 588q0 105 18.5 194t60 166t104 131t155.5 84.5t209 30.5t209 -30.5t155.5 -84.5t104 -131t60 -166t18.5 -194t-18.5 -194t-60 -166t-104 -131t-155.5 -84.5t-209 -30.5t-209 30.5t-155.5 84.5t-104 131t-60 166t-18.5 194zM287 1524h209q0 -34 28 -55t78 -21t79.5 21 t29.5 55h209q0 -127 -84 -200t-234 -73q-148 0 -231.5 73t-83.5 200zM408 588q0 -301 194 -301q195 0 195 301t-195 301q-194 0 -194 -301z" />
<glyph d="M94 483v693h342v-730q0 -76 28 -117.5t109 -41.5t110.5 41.5t29.5 117.5v730h342v-693q0 -91 -10.5 -160t-42 -136t-83.5 -110t-139.5 -69t-206.5 -26q-118 0 -205 26t-139 69t-83 110t-41.5 136t-10.5 160zM303 1303v215h543v-215h-543z" />
<glyph horiz-adv-x="1202" d="M55 588q0 105 18.5 194t60 166t104 131t155.5 84.5t209 30.5t209 -30.5t155.5 -84.5t104 -131t60 -166t18.5 -194t-18.5 -194t-60 -166t-104 -131t-155.5 -84.5t-209 -30.5t-209 30.5t-155.5 84.5t-104 131t-60 166t-18.5 194zM389 1251l213 293h375l-297 -293h-291z M408 588q0 -301 194 -301q195 0 195 301t-195 301q-194 0 -194 -301z" />
<glyph horiz-adv-x="1687" d="M55 588q0 105 18.5 194t60 166t104 131t155.5 84.5t209 30.5q101 0 197 -27v9h813v-299h-469v-142h379v-295h-379v-141h477v-299h-821v8q-93 -26 -197 -26q-116 0 -209 30.5t-155.5 84.5t-104 131t-60 166t-18.5 194zM408 588q0 -301 194 -301q195 0 195 301t-195 301 q-194 0 -194 -301z" />
<glyph horiz-adv-x="1081" d="M80 -307v645h239v-70q76 84 173 84q116 0 155 -102q35 42 85 72t106 30q84 0 128 -51.5t44 -150.5v-457h-238v389q0 41 -6.5 59.5t-30.5 18.5q-37 0 -71 -54v-413h-238v389q0 41 -6.5 59.5t-30.5 18.5q-40 0 -70 -51v-416h-239z" />
<glyph d="M94 483v693h342v-730q0 -76 28 -117.5t109 -41.5t110.5 41.5t29.5 117.5v730h342v-693q0 -96 -13 -169t-46 -140t-97 -111.5t-158 -64.5q-145 -107 -145 -188q0 -19 7.5 -32t17 -19.5t26.5 -10t26 -3.5t26 0.5t18 0.5l-31 -158q-1 0 -20 -0.5t-30.5 0t-36.5 2t-42 4.5 t-41.5 10t-41.5 16t-36 23.5t-30.5 32.5t-19 43.5t-7.5 55.5q0 121 135 209q-104 6 -180.5 35t-122 72t-73 108t-37 131.5t-9.5 152.5z" />
<glyph horiz-adv-x="669" d="M37 12q0 161 78 250.5t225 89.5q142 0 216.5 -80.5t74.5 -210.5q0 -25 -2.5 -49t-4.5 -36l-3 -11h-342q5 -54 21.5 -78t55.5 -24q70 0 193 67l86 -151q-163 -101 -309 -101q-130 0 -209.5 82.5t-79.5 251.5zM279 90h129q-3 88 -64 88q-59 0 -65 -88z" />
<glyph horiz-adv-x="1202" d="M55 588q0 105 18.5 194t60 166t104 131t155.5 84.5t209 30.5t209 -30.5t155.5 -84.5t104 -131t60 -166t18.5 -194t-18.5 -194t-60 -166t-104 -131t-155.5 -84.5t-209 -30.5t-209 30.5t-155.5 84.5t-104 131t-60 166t-18.5 194zM408 588q0 -301 194 -301q195 0 195 301 t-195 301q-194 0 -194 -301z" />
<glyph horiz-adv-x="1187" d="M104 0v1176h347l290 -605v605h342v-1176h-344l-290 600v-600h-345zM244 1337q52 118 80 157q58 83 141 83q42 0 94.5 -24t96.5 -48t67 -24q13 0 23.5 5t28.5 27t36 62l147 -80q-15 -36 -21.5 -50.5t-22 -46.5t-26 -46.5t-28.5 -37t-34.5 -33t-39 -18.5t-47.5 -8 q-43 0 -96 24t-97 48.5t-67 24.5q-43 0 -88 -95z" />
<glyph horiz-adv-x="903" d="M98 788v861h250l209 -435v435h248v-861h-250l-211 439v-439h-246z" />
<glyph horiz-adv-x="903" d="M98 -307v860h250l209 -434v434h248v-860h-250l-211 438v-438h-246z" />
<glyph horiz-adv-x="1187" d="M104 0v1176h347l290 -605v605h342v-1176h-344l-290 600v-600h-345zM469 -109h244l10 -311l-193 -219l-61 86l106 168h-106v276z" />
<glyph horiz-adv-x="1187" d="M104 0v1176h347l290 -605v605h342v-1176h-344l-290 600v-600h-345zM256 1544h238l110 -137l111 137h237l-188 -293h-320z" />
<glyph horiz-adv-x="1187" d="M104 0v1176h347l290 -605v605h342v-1176h-344l-290 600v-600h-345zM379 1251l213 293h375l-297 -293h-291z" />
<glyph horiz-adv-x="1187" d="M104 0v1176h347l290 -605v605h342v-1176h-344l-290 600v-600h-345z" />
<glyph horiz-adv-x="749" d="M39 567q0 133 85 220t234 87q88 0 155 -30t107 -83.5t60 -120.5t20 -146q0 -221 -134.5 -364.5t-356.5 -143.5q-33 0 -63.5 3.5t-45.5 6.5l-14 4l55 201q31 -6 68 -6q68 0 126 34.5t89 114.5q-67 -43 -141 -43q-105 0 -174.5 73t-69.5 193zM285 580q0 -41 21.5 -66 t58.5 -25q54 0 88 43q-3 74 -30 104t-61 30q-41 0 -59 -26t-18 -60z" />
<glyph horiz-adv-x="1189" d="M57 387q0 72 20.5 134t58 109.5t80 82.5t97.5 67q-178 129 -178 322q0 157 120 255.5t339 98.5q220 0 340.5 -98.5t120.5 -255.5q0 -190 -181 -322q118 -68 188.5 -161.5t70.5 -231.5q0 -188 -139 -299t-400 -111q-259 0 -398 111t-139 299zM434 416q0 -64 43 -105 t117 -41q75 0 118.5 41t43.5 105q0 67 -42 117t-120 96q-77 -46 -118.5 -96t-41.5 -117zM487 1069q0 -95 107 -156q106 63 106 156q0 40 -26.5 72.5t-79.5 32.5q-52 0 -79.5 -33t-27.5 -72z" />
<glyph horiz-adv-x="1128" d="M37 686q0 143 58 257t173.5 182.5t270.5 68.5q110 0 200 -33t152 -90.5t104 -137.5t61 -171.5t19 -194.5q1 -250 -94 -443.5t-270 -301t-404 -107.5q-53 0 -102 6t-71 11l-23 6l86 305q47 -10 106 -10q74 0 139.5 25.5t127 94.5t94.5 177q-101 -88 -240 -88 q-167 0 -277 122.5t-110 321.5zM410 705q0 -77 37 -126t102 -49q90 0 149 88q-3 135 -49 197t-104 62q-70 0 -102.5 -51.5t-32.5 -120.5z" />
<glyph horiz-adv-x="776" d="M45 807q0 147 158 235q-109 77 -109 191q0 95 76.5 155t218.5 60q140 0 216.5 -60t76.5 -155q0 -113 -111 -191q160 -87 160 -235q0 -112 -88.5 -180t-253.5 -68q-168 0 -256 67.5t-88 180.5zM293 829q0 -33 26 -55t70 -22q43 0 68.5 22t25.5 55q0 36 -24.5 62.5 t-71.5 52.5q-46 -26 -70 -52.5t-24 -62.5zM326 1210q0 -49 61 -82q62 35 62 82q0 18 -15.5 35t-44.5 17q-32 0 -47.5 -16.5t-15.5 -35.5z" />
<glyph horiz-adv-x="776" d="M45 233q0 148 158 236q-109 77 -109 190q0 95 76.5 155t218.5 60q140 0 216.5 -60t76.5 -155q0 -112 -111 -190q160 -87 160 -236q0 -112 -88 -179.5t-254 -67.5q-168 0 -256 67t-88 180zM293 256q0 -33 26 -55.5t70 -22.5q43 0 68.5 22.5t25.5 55.5q0 36 -24.5 62.5 t-71.5 52.5q-46 -26 -70 -52.5t-24 -62.5zM326 637q0 -49 61 -82q62 35 62 82q0 18 -15.5 34.5t-44.5 16.5q-32 0 -47.5 -16t-15.5 -35z" />
<glyph d="M94 483v693h342v-730q0 -76 28 -117.5t109 -41.5t110.5 41.5t29.5 117.5v730h342v-693q0 -91 -10.5 -160t-42 -136t-83.5 -110t-139.5 -69t-206.5 -26q-118 0 -205 26t-139 69t-83 110t-41.5 136t-10.5 160zM348 1456q0 94 65.5 160.5t159.5 66.5q93 0 159.5 -66.5 t66.5 -160.5q0 -93 -66.5 -159t-159.5 -66q-94 0 -159.5 65.5t-65.5 159.5zM510 1456q0 -26 18.5 -44.5t44.5 -18.5t45 18.5t19 44.5t-19 46t-45 20t-44.5 -19.5t-18.5 -46.5z" />
<glyph horiz-adv-x="761" d="M80 -307v645h237v-66q102 80 201 80q172 0 172 -202v-457h-239v399q0 33 -8.5 50.5t-32.5 17.5q-47 0 -93 -62v-405h-237z" />
<glyph horiz-adv-x="870" d="M88 1141v508h248v-535q0 -56 20.5 -86.5t77.5 -30.5q58 0 79.5 30.5t21.5 86.5v535h247v-508q0 -66 -7.5 -116.5t-30 -99.5t-60.5 -80.5t-101 -51t-149 -19.5q-85 0 -147.5 19t-100 51t-60 81t-30.5 99.5t-8 116.5z" />
<glyph d="M94 483v693h342v-730q0 -76 28 -117.5t109 -41.5t110.5 41.5t29.5 117.5v730h342v-693q0 -91 -10.5 -160t-42 -136t-83.5 -110t-139.5 -69t-206.5 -26q-118 0 -205 26t-139 69t-83 110t-41.5 136t-10.5 160zM213 1337q52 118 80 157q58 83 141 83q42 0 94.5 -24t96.5 -48 t67 -24q13 0 23.5 5t28.5 27t36 62l148 -80q-15 -36 -21.5 -50.5t-22 -46.5t-26 -46.5t-28.5 -37t-34.5 -33t-39 -18.5t-47.5 -8q-43 0 -96 24t-97 48.5t-67 24.5q-44 0 -89 -95z" />
<glyph horiz-adv-x="1017" d="M98 788v861h250l160 -408l162 408h250v-861h-248v416l-105 -272h-114l-109 280v-424h-246z" />
<glyph horiz-adv-x="1017" d="M98 -307v860h250l160 -408l162 408h250v-860h-248v416l-105 -273h-114l-109 281v-424h-246z" />
<glyph horiz-adv-x="1103" d="M59 229v256h168l27 205h-135v258h170l30 228h246l-30 -228h129l30 228h246l-31 -228h135v-258h-167l-27 -205h135v-256h-170l-29 -229h-247l30 229h-129l-28 -229h-248l31 229h-136zM475 485h127l27 205h-127z" />
<glyph horiz-adv-x="804" d="M47 47h121l20 152h-98v188h123l23 166h178l-23 -166h92l23 166h178l-22 -166h98v-188h-123l-19 -152h99v-186h-123l-21 -168h-180l21 168h-90l-21 -168h-180l20 168h-96v186zM348 47h90l21 152h-92z" />
<glyph horiz-adv-x="806" d="M47 956v187h121l20 151h-98v189h123l23 166h178l-23 -166h92l23 166h178l-22 -166h98v-189h-123l-19 -151h99v-187h-123l-21 -168h-180l21 168h-90l-21 -168h-180l20 168h-96zM348 1143h90l21 151h-92z" />
<glyph horiz-adv-x="1349" d="M104 0v1176h349l221 -558l223 558h348v-1176h-344v588l-151 -391h-150l-151 389v-586h-345z" />
<glyph horiz-adv-x="696" d="M98 788v861h246v-641h328v-220h-574z" />
<glyph horiz-adv-x="952" d="M31 279v309l94 57v531h344v-318l184 115v-309l-184 -115v-246h453v-303h-797v336z" />
<glyph horiz-adv-x="696" d="M98 -307v860h246v-641h328v-219h-574z" />
<glyph horiz-adv-x="933" d="M104 0v1176h345v-873h452v-303h-797zM592 502v266h258v-266h-258z" />
<glyph horiz-adv-x="931" d="M104 0v1176h345v-873h452v-303h-797zM369 -109h243l11 -311l-193 -219l-61 86l106 168h-106v276z" />
<glyph horiz-adv-x="1140" d="M12 1176h387l170 -740l172 740h387l-368 -1176h-379z" />
<glyph horiz-adv-x="933" d="M104 0v1176h345v-873h452v-303h-797zM496 731l106 168h-106v277h243l11 -312l-193 -219z" />
<glyph horiz-adv-x="931" d="M61 1251l213 293h375l-297 -293h-291zM104 0v1176h345v-873h452v-303h-797z" />
<glyph horiz-adv-x="710" d="M37 16q0 161 81 248.5t238 87.5t238.5 -87.5t81.5 -250.5q0 -162 -81.5 -249t-238.5 -87t-238 87.5t-81 250.5zM274 16q0 -147 82 -147q80 0 80 145q0 148 -80 148q-82 0 -82 -146z" />
<glyph horiz-adv-x="931" d="M104 0v1176h345v-873h452v-303h-797z" />
<glyph horiz-adv-x="854" d="M98 788v861h246v-303l205 303h301l-299 -389l299 -472h-295l-160 271l-51 -68v-203h-246z" />
<glyph horiz-adv-x="620" d="M0 715l229 145h236v-860h-246v627l-121 -74z" />
<glyph horiz-adv-x="620" d="M0 1288l229 146h236v-861h-246v627l-121 -74z" />
<glyph horiz-adv-x="827" d="M0 940l356 236h359v-1176h-373v817l-192 -121z" />
<glyph horiz-adv-x="811" d="M2 553h281l123 -539l122 539h281l-266 -860h-275z" />
<glyph horiz-adv-x="811" d="M2 1649h281l123 -539l122 539h281l-266 -861h-275z" />
<glyph horiz-adv-x="1413" d="M37 1059l192 117h185v-705h-195v520l-104 -59zM299 0l477 1176h207l-475 -1176h-209zM780 190q0 124 138 195q-97 69 -97 156q0 77 65.5 126.5t182.5 49.5t182.5 -49.5t65.5 -126.5q0 -89 -96 -156q139 -71 139 -195q0 -91 -76.5 -146.5t-214.5 -55.5q-139 0 -214 55 t-75 147zM977 207q0 -30 25 -48t67 -18t68 18.5t26 47.5q0 33 -25 57t-69 47q-45 -23 -68.5 -47t-23.5 -57zM1006 520q0 -43 61 -71q66 29 66 71q0 18 -16.5 34.5t-47.5 16.5t-47 -16.5t-16 -34.5z" />
<glyph horiz-adv-x="1419" d="M37 1059l192 117h185v-705h-195v520l-104 -59zM299 0l477 1176h207l-475 -1176h-209zM805 88l88 143q88 -69 168 -69q42 0 67 19t25 52q0 32 -23 55t-71 23q-57 0 -113 -37l-106 68l34 363h451v-166h-287l-2 -76q46 8 74 8q119 0 180.5 -67.5t61.5 -167.5 q0 -105 -68 -176.5t-197 -71.5q-137 0 -282 100z" />
<glyph horiz-adv-x="854" d="M98 -307v860h246v-303l205 303h301l-299 -389l299 -471h-295l-160 270l-51 -67v-203h-246z" />
<glyph horiz-adv-x="1404" d="M37 1059l192 117h185v-705h-195v520l-104 -59zM299 0l477 1176h207l-475 -1176h-209zM797 0v80q0 157 196 293q12 8 32 21.5t31 20.5t26 18t23 18.5t16.5 17t12 19t3.5 18.5q0 18 -18 30.5t-50 12.5q-59 0 -168 -64l-86 127q146 105 283 105q115 0 175 -59t60 -144 q0 -46 -18.5 -87t-51.5 -73.5t-60 -52t-64 -41.5q-79 -53 -93 -70q-10 -12 -10 -22h297v-168h-536z" />
<glyph horiz-adv-x="1540" d="M23 1176h387l98 -637l133 637h256l131 -637l100 637h388l-287 -1176h-326l-135 639l-135 -639h-322z" />
<glyph horiz-adv-x="1148" d="M104 0v1176h345v-410l280 410h418l-416 -533l414 -643h-406l-221 371l-69 -88v-283h-345zM440 -109h244l10 -311l-192 -219l-62 86l107 168h-107v276z" />
<glyph horiz-adv-x="1402" d="M37 1059l192 117h185v-705h-195v520l-104 -59zM299 0l477 1176h207l-475 -1176h-209zM713 119v139l276 447h258v-418h96v-168h-96v-119h-194v119h-340zM903 287h150v250z" />
<glyph horiz-adv-x="1374" d="M37 1059l192 117h185v-705h-195v520l-104 -59zM299 0l477 1176h207l-475 -1176h-209zM752 301q0 181 114 298.5t299 117.5q28 0 54.5 -3t39.5 -6l13 -3l-45 -158q-27 6 -60 6q-147 0 -198 -137q55 41 131 41q92 0 152.5 -59.5t60.5 -157.5q0 -108 -74 -180t-199 -72 q-143 0 -215.5 88t-72.5 225zM948 268q3 -116 90 -116q40 0 60 24t20 53q0 36 -21 58t-59 22q-58 0 -90 -41z" />
<glyph horiz-adv-x="1148" d="M104 0v1176h345v-410l280 410h418l-416 -533l414 -643h-406l-221 371l-69 -88v-283h-345z" />
<glyph horiz-adv-x="1540" d="M23 1176h387l98 -637l133 637h256l131 -637l100 637h388l-287 -1176h-326l-135 639l-135 -639h-322zM555 1251l213 293h375l-297 -293h-291z" />
<glyph horiz-adv-x="1404" d="M37 1059l192 117h185v-705h-195v520l-104 -59zM299 0l477 1176h207l-475 -1176h-209zM788 88l86 135q113 -65 189 -65q39 0 61.5 15.5t22.5 43.5q0 68 -162 68h-27v166h31q131 0 131 57q0 17 -14.5 28t-44.5 11q-38 0 -84.5 -17t-79.5 -38l-82 122q124 103 283 103 q107 0 163 -49.5t56 -124.5q0 -98 -103 -154q59 -22 94 -69.5t35 -110.5q0 -41 -13.5 -78.5t-41.5 -70.5t-79 -52.5t-119 -19.5q-158 0 -302 100z" />
<glyph horiz-adv-x="440" d="M-23 729q31 12 51 21.5t34 20.5t21 19t10.5 23t4 25.5t0.5 33.5v777h248v-762q0 -89 -4.5 -127.5t-31.5 -86.5t-86.5 -76.5t-166.5 -57.5z" />
<glyph horiz-adv-x="440" d="M-23 -367q37 14 59.5 26.5t35.5 22.5t18.5 26.5t6.5 28.5t1 40v776h248v-762q0 -89 -4.5 -127.5t-31.5 -86.5t-86.5 -76.5t-166.5 -57.5z" />
<glyph horiz-adv-x="552" d="M-72 1251l189 293h319l189 -293h-238l-111 138l-110 -138h-238zM-61 -82q43 17 71 30t47 29t28.5 26.5t14.5 32t5.5 35t0.5 46.5v1059h343v-1039q0 -72 -1.5 -106t-8 -86t-22 -77t-43.5 -60.5t-71.5 -57.5t-105.5 -46.5t-148 -47.5z" />
<glyph horiz-adv-x="552" d="M-61 -82q43 17 71 30t47 29t28.5 26.5t14.5 32t5.5 35t0.5 46.5v1059h343v-1039q0 -72 -1.5 -106t-8 -86t-22 -77t-43.5 -60.5t-71.5 -57.5t-105.5 -46.5t-148 -47.5z" />
<glyph horiz-adv-x="1062" d="M53 156l154 247q78 -47 183 -87t171 -40q34 0 57 14t23 40q0 30 -40 51t-129 53t-153 66q-49 26 -87 54t-76 69.5t-59 96.5t-21 120q0 138 88.5 234.5t259.5 115.5v156h231v-168q171 -32 324 -117l-154 -256q-76 37 -161 64.5t-144 27.5q-82 0 -82 -53q0 -29 39.5 -50.5 t128 -53t148.5 -62.5q50 -27 88.5 -54.5t78.5 -69t61.5 -96.5t21.5 -120q0 -86 -36 -159t-117 -126.5t-196 -66.5v-154h-231v166q-208 40 -371 158z" />
<glyph horiz-adv-x="550" d="M-84 1337q52 118 80 157q58 83 141 83q42 0 94.5 -24t96.5 -48t67 -24q13 0 23.5 5t28.5 27t36 62l148 -80q-15 -36 -21.5 -50.5t-22 -46.5t-26 -46.5t-28.5 -37t-34.5 -33t-39 -18.5t-47.5 -8q-43 0 -96 24t-97 48.5t-67 24.5q-44 0 -89 -95zM104 0v1176h345v-1176h-345 z" />
<glyph horiz-adv-x="440" d="M96 788v861h248v-861h-248z" />
<glyph horiz-adv-x="550" d="M78 -225q0 128 162 225h-136v1176h345v-1176h-7q-149 -106 -149 -190q0 -19 7.5 -32t17 -19.5t26.5 -10t26 -3.5t26 0.5t18 0.5l-31 -158q-1 0 -20 -0.5t-30.5 0t-36.5 2t-42 4.5t-41.5 10t-41.5 16t-36 23.5t-30.5 32.5t-19 43.5t-7.5 55.5z" />
<glyph horiz-adv-x="1222" d="M41 735q0 116 34.5 203t97 138t141.5 75.5t175 24.5h269v-1487h-273v602q-70 0 -133 14.5t-120.5 48.5t-99 84.5t-66.5 126.5t-25 170zM827 -311v1487h273v-1487h-273z" />
<glyph horiz-adv-x="550" d="M4 1303v215h543v-215h-543zM104 0v1176h345v-1176h-345z" />
<glyph horiz-adv-x="622" d="M100 238v2v688q0 162 14 222q25 103 119 163q87 55 267 96l78 -184q-48 -21 -75.5 -39t-41 -43.5t-16.5 -49t-3 -67.5v-883q0 -44 3 -67.5t16.5 -49t41 -43.5t75.5 -38l-78 -185q-75 17 -132 35t-99 42.5t-71 43.5t-48 54t-29 58.5t-14.5 72t-5.5 78.5t-1 94z" />
<glyph horiz-adv-x="1540" d="M23 1176h387l98 -637l133 637h256l131 -637l100 637h388l-287 -1176h-326l-135 639l-135 -639h-322zM424 1251l188 293h320l188 -293h-237l-111 138l-110 -138h-238z" />
<glyph horiz-adv-x="747" d="M37 14q0 162 58.5 250t164.5 88q53 0 90.5 -18t79.5 -55v309h238v-895h-238v59q-43 -37 -80.5 -55.5t-89.5 -18.5q-106 0 -164.5 88t-58.5 248zM279 16q0 -137 65 -137q48 0 86 62v149q-39 62 -86 62q-65 0 -65 -136z" />
<glyph horiz-adv-x="440" d="M96 -307v860h248v-860h-248z" />
<glyph horiz-adv-x="624" d="M45 -55q48 21 75.5 39t40.5 43.5t16 48.5t3 67v883q0 36 -1.5 55.5t-8.5 42.5t-21.5 38t-39.5 31t-64 32l78 184q66 -15 118.5 -32.5t92.5 -33.5t69.5 -40.5t50 -42t33.5 -51t20 -55t10.5 -66t4 -71t0.5 -83.5v-4v-688q0 -162 -14 -222q-24 -104 -117 -163 q-88 -56 -268 -97z" />
<glyph horiz-adv-x="1540" d="M23 1176h387l98 -637l133 637h256l131 -637l100 637h388l-287 -1176h-326l-135 639l-135 -639h-322zM475 1272v266h258v-266h-258zM809 1272v266h256v-266h-256z" />
<glyph horiz-adv-x="1540" d="M23 1176h387l98 -637l133 637h256l131 -637l100 637h388l-287 -1176h-326l-135 639l-135 -639h-322zM399 1544h375l213 -293h-291z" />
<glyph horiz-adv-x="1097" d="M10 553h279l71 -465l97 465h184l94 -463l72 463h280l-208 -860h-234l-96 467l-98 -467h-234z" />
<glyph horiz-adv-x="550" d="M-96 1544h375l213 -293h-291zM104 0v1176h345v-1176h-345z" />
<glyph horiz-adv-x="1542" d="M47 879q0 146 78 230.5t229 84.5q152 0 230 -84.5t78 -230.5t-78 -230t-230 -84q-151 0 -229 84.5t-78 229.5zM281 879q0 -57 17.5 -84t55.5 -27q76 0 76 111q0 112 -76 112q-73 0 -73 -112zM387 0l518 1176h246l-518 -1176h-246zM881 295q0 146 77 230.5t228 84.5 q152 0 229.5 -84.5t77.5 -230.5q0 -145 -77.5 -229t-229.5 -84q-151 0 -228 84t-77 229zM1112 295q0 -111 74 -111q76 0 76 111q0 115 -76 115q-74 0 -74 -115z" />
<glyph horiz-adv-x="1093" d="M25 336q0 108 54.5 169.5t166.5 61.5t166.5 -61.5t54.5 -169.5t-54.5 -169t-166.5 -61t-166.5 61t-54.5 169zM193 336q0 -43 12 -62.5t41 -19.5t42 19.5t13 62.5q0 84 -55 84q-29 0 -41 -20t-12 -64zM266 -315l379 868h176l-377 -868h-178zM625 -90q0 108 55 168.5 t166 60.5q112 0 167.5 -60.5t55.5 -168.5q0 -109 -55.5 -170.5t-167.5 -61.5q-111 0 -166 61.5t-55 170.5zM795 -90q0 -45 11.5 -64.5t39.5 -19.5q30 0 42.5 19.5t12.5 64.5q0 42 -12.5 62t-42.5 20q-51 0 -51 -82z" />
<glyph horiz-adv-x="1855" d="M33 801v274h119q5 201 85 299.5t252 98.5q190 0 406 -87q87 107 274 107q217 0 461 -94l-110 -252q-7 1 -45.5 9t-68.5 13.5t-69.5 11t-64.5 5.5q-101 0 -101 -94v-17h594v-1001q0 -66 -0.5 -97t-4 -83t-11.5 -76.5t-22.5 -63.5t-36.5 -59.5t-54.5 -49t-76.5 -47 t-101.5 -39t-130.5 -38.5l-115 270q38 16 64.5 27.5t48 26t35 23.5t23 26t14 27t7 34t3 39t0.5 49v758h-236v-801h-360v801h-301v-801h-358v801h-119zM510 1075h301q0 49 2 72q-160 39 -221 39q-16 0 -27.5 -2.5t-25.5 -11t-21.5 -29t-7.5 -51.5v-17z" />
<glyph horiz-adv-x="550" d="M-18 1272v266h258v-266h-258zM104 0v1176h345v-1176h-345zM315 1272v266h256v-266h-256z" />
<glyph horiz-adv-x="552" d="M-74 1251l189 293h319l189 -293h-238l-111 138l-110 -138h-238zM104 0v1176h345v-1176h-345z" />
<glyph horiz-adv-x="1099" d="M12 1649h279l71 -465l97 465h184l94 -463l72 463h281l-209 -861h-234l-96 467l-98 -467h-234z" />
<glyph horiz-adv-x="598" d="M37 1112q0 168 76 252t190 84q112 0 272 -76l-92 -184q-85 45 -133 45q-71 0 -71 -121q0 -123 71 -123q45 0 133 45l92 -184q-160 -76 -270 -76q-115 0 -191.5 85t-76.5 253z" />
<glyph horiz-adv-x="1337" d="M59 588q0 128 41 238t117.5 192t193.5 129t261 47q143 0 259 -47t191 -129t115.5 -192t40.5 -238t-40.5 -238t-115.5 -192t-191 -129t-259 -47q-144 0 -261 47t-193.5 129t-117.5 192t-41 238zM129 588q0 -237 143.5 -390t397.5 -153q169 0 293.5 72.5t186.5 194.5 t62 276t-62 275.5t-186.5 194t-293.5 72.5q-170 0 -294.5 -72.5t-185.5 -194t-61 -275.5zM360 586q0 174 85.5 270t213.5 96q60 0 119 -19t91 -37.5t75 -47.5l-53 -60q-36 27 -58 41.5t-71.5 32t-99.5 17.5q-96 0 -156 -81t-60 -212q0 -130 60 -209.5t156 -79.5 q50 0 98.5 16.5t73 31.5t57.5 40l53 -59q-44 -30 -75 -48t-91 -37.5t-119 -19.5q-128 0 -213.5 96t-85.5 269z" />
<glyph horiz-adv-x="2209" d="M47 879q0 146 78 230.5t229 84.5q152 0 230 -84.5t78 -230.5t-78 -230t-230 -84q-151 0 -229 84.5t-78 229.5zM281 879q0 -57 17.5 -84t55.5 -27q76 0 76 111q0 112 -76 112q-73 0 -73 -112zM387 0l518 1176h246l-518 -1176h-246zM881 295q0 146 77 230.5t228 84.5 q152 0 229.5 -84.5t77.5 -230.5q0 -145 -77.5 -229t-229.5 -84q-151 0 -228 84t-77 229zM1112 295q0 -111 74 -111q76 0 76 111q0 115 -76 115q-74 0 -74 -115zM1548 295q0 146 77 230.5t228 84.5q152 0 231 -84.5t79 -230.5q0 -145 -78.5 -229t-231.5 -84q-151 0 -228 83.5 t-77 229.5zM1780 295q0 -57 17.5 -84t55.5 -27q40 0 58 27t18 84q0 115 -76 115q-73 0 -73 -115z" />
<glyph horiz-adv-x="1087" d="M2 0l330 600l-314 576h392l135 -336l133 336h391l-313 -576l331 -600h-401l-143 324l-140 -324h-401z" />
<glyph horiz-adv-x="1148" d="M90 731v86h37v359h457q460 0 483 -359h39v-86h-39q-23 -356 -483 -356h-113v-375h-344v731h-37zM471 668h100q61 0 97 13t49 50h-246v-63zM471 817h246q-13 36 -49.5 49t-96.5 13h-100v-62z" />
<glyph horiz-adv-x="827" d="M74 225v68h28v260h330q172 0 254.5 -67t91.5 -193h31v-68h-31q-19 -256 -346 -256h-84v-276h-246v532h-28zM348 180h74q87 0 102 45h-176v-45zM348 293h176q-8 27 -33 36t-69 9h-74v-45z" />
<glyph horiz-adv-x="827" d="M74 1321v68h28v260h330q172 0 254.5 -67t91.5 -193h31v-68h-31q-19 -256 -346 -256h-84v-277h-246v533h-28zM348 1276h74q87 0 102 45h-176v-45zM348 1389h176q-8 27 -33 36t-69 9h-74v-45z" />
<glyph horiz-adv-x="792" d="M4 -307l240 438l-228 422h285l94 -244l99 244h282l-227 -424l239 -436h-290l-101 235l-102 -235h-291z" />
<glyph horiz-adv-x="747" d="M80 338h237v-59q42 37 79.5 55t90.5 18q106 0 165 -88t59 -250q0 -159 -59 -247.5t-165 -88.5q-52 0 -89.5 18.5t-80.5 55.5v-309h-237v895zM317 -59q38 -62 86 -62q66 0 66 137q0 136 -66 136q-47 0 -86 -62v-149z" />
<glyph horiz-adv-x="548" d="M-41 1524h209q0 -34 28 -55t78 -21t79.5 21t29.5 55h209q0 -127 -84 -200t-234 -73q-148 0 -231.5 73t-83.5 200zM104 0v1176h345v-1176h-345z" />
<glyph horiz-adv-x="552" d="M61 1251l213 293h375l-297 -293h-291zM104 0v1176h345v-1176h-345z" />
<glyph horiz-adv-x="413" d="M90 788v256h232v-256h-232zM90 1143v256h232v-256h-232z" />
<glyph horiz-adv-x="638" d="M49 1219q0 169 76 252t190 83h23l18 95h88l-20 -107l18 -6l23 113h90l-29 -140q39 -13 76 -32l-92 -185q-96 49 -150 49q-69 0 -69 -122q0 -123 69 -123q46 0 150 49l92 -184q-95 -49 -199 -70l-20 -103h-88l18 95h-20l-19 -95h-88l23 117q-73 33 -116.5 111.5 t-43.5 202.5z" />
<glyph horiz-adv-x="749" d="M80 539v895h237v-60q43 37 80.5 55.5t89.5 18.5q106 0 165 -88t59 -250q0 -159 -59 -247.5t-165 -88.5q-52 0 -89.5 18.5t-80.5 55.5v-309h-237zM317 1036q37 -61 86 -61q66 0 66 137q0 135 -66 135q-47 0 -86 -61v-150z" />
<glyph horiz-adv-x="1105" d="M104 0v1176h345v-1176h-345zM489 -82q63 25 97 43.5t50 44t18.5 45t2.5 66.5v1059h342v-1039q0 -64 -1 -93.5t-5.5 -78t-14.5 -71t-29 -57t-47.5 -53.5t-71 -44.5t-99 -44.5t-131.5 -39z" />
<glyph horiz-adv-x="747" d="M37 14q0 162 58.5 250t164.5 88q51 0 89.5 -18.5t80.5 -54.5v59h238v-895h-238v309q-43 -37 -80.5 -55.5t-89.5 -18.5q-106 0 -164.5 88t-58.5 248zM279 16q0 -137 65 -137q48 0 86 62v149q-39 62 -86 62q-65 0 -65 -136z" />
<glyph horiz-adv-x="749" d="M39 1110q0 162 58.5 250t164.5 88q51 0 89.5 -18.5t80.5 -55.5v60h238v-895h-238v309q-43 -37 -80.5 -55.5t-89.5 -18.5q-106 0 -164.5 88t-58.5 248zM281 1112q0 -137 65 -137q49 0 86 61v150q-39 61 -86 61q-65 0 -65 -135z" />
<glyph horiz-adv-x="550" d="M104 0v1176h345v-1176h-345z" />
<glyph horiz-adv-x="864" d="M39 1055q197 139 399 139q168 0 273.5 -90t105.5 -232q0 -64 -22 -119.5t-55.5 -93.5t-83.5 -72t-95 -54.5t-102 -40.5l-15 -82h-196l-15 266q135 35 186.5 65t51.5 78q0 29 -21.5 53.5t-72.5 24.5q-78 0 -197 -76zM186 0v319h320v-319h-320z" />
<glyph horiz-adv-x="884" d="M98 788v861h246v-301h197v301h245v-861h-245v345h-197v-345h-246z" />
<glyph horiz-adv-x="866" d="M47 303q0 64 22 119.5t55.5 94t84 72t95.5 54.5t102 41l14 82h196l15 -266q-135 -34 -186.5 -64.5t-51.5 -79.5q0 -29 21.5 -53t72.5 -24q79 0 197 75l141 -233q-197 -139 -399 -139q-168 0 -273.5 90t-105.5 231zM358 856v320h320v-320h-320z" />
<glyph horiz-adv-x="595" d="M20 -86q0 58 22.5 105t63.5 80t82 54t93 40l10 61h141l12 -195q-99 -27 -135.5 -49.5t-36.5 -58.5q0 -21 15 -39t51 -18q59 0 141 57l105 -170q-150 -103 -291 -103q-121 0 -197 66.5t-76 169.5zM244 322v231h233v-231h-233z" />
<glyph horiz-adv-x="595" d="M20 1010q0 47 16 87t40.5 68.5t61 53t69.5 39.5t74 30l10 62h141l12 -195q-99 -27 -135.5 -49.5t-36.5 -58.5q0 -21 15 -39.5t51 -18.5q57 0 141 58l105 -170q-150 -103 -291 -103q-121 0 -197 66.5t-76 169.5zM244 1417v232h233v-232h-233z" />
<glyph horiz-adv-x="595" d="M10 465q148 102 291 102q121 0 196.5 -66t75.5 -169q0 -58 -22.5 -105t-63 -80t-81.5 -54t-93 -40l-10 -61h-141l-12 194q98 27 135 50t37 59q0 21 -15 39t-51 18q-59 0 -141 -57zM117 -76h233v-231h-233v231z" />
<glyph horiz-adv-x="595" d="M10 1561q148 102 291 102q121 0 196.5 -66.5t75.5 -169.5q0 -58 -22.5 -105t-63.5 -79.5t-81.5 -53.5t-92.5 -40l-10 -62h-141l-12 195q98 27 135 50t37 59q0 21 -15 39t-51 18q-59 0 -141 -57zM117 788v232h233v-232h-233z" />
<glyph horiz-adv-x="884" d="M98 -307v860h246v-301h197v301h245v-860h-245v344h-197v-344h-246z" />
<glyph horiz-adv-x="641" d="M49 123q0 169 76 252.5t190 83.5h23l18 94h88l-20 -107l18 -6l23 113h90l-29 -139q32 -11 76 -33l-92 -184q-96 49 -150 49q-69 0 -69 -123t69 -123q46 0 150 49l92 -184q-95 -49 -199 -70l-20 -102h-88l18 94h-20l-19 -94h-88l23 117q-74 33 -117 111t-43 202z" />
<glyph horiz-adv-x="886" d="M68 590q0 118 30 208.5t82 144t116.5 80t139.5 26.5l29 -2l24 129h123l-28 -146l26 -6l31 152h123l-37 -189q25 -8 107 -45l-127 -256q-144 68 -209 68q-97 0 -97 -164q0 -166 97 -166q62 0 209 65l127 -253q-133 -65 -273 -95l-26 -141h-123l24 129h-28l-25 -129h-123 l31 158q-103 44 -163 152t-60 280z" />
<glyph horiz-adv-x="411" d="M90 47v256h232v-256h-232zM90 -51h232v-256h-232v256z" />
<glyph horiz-adv-x="792" d="M4 788l240 439l-228 422h285l94 -244l99 244h282l-227 -424l239 -437h-290l-101 236l-102 -236h-291z" />
<glyph horiz-adv-x="598" d="M37 16q0 168 76 252t190 84q112 0 272 -76l-92 -184q-85 45 -133 45q-71 0 -71 -121q0 -122 71 -122q45 0 133 45l92 -185q-160 -76 -270 -76q-115 0 -191.5 85t-76.5 253z" />
<glyph horiz-adv-x="880" d="M61 590q0 213 93.5 327.5t238.5 129.5v129h232v-156q89 -25 202 -78l-129 -252q-132 64 -200 64q-103 0 -103 -164q0 -166 103 -166q70 0 200 63l129 -251q-93 -47 -202 -78v-158h-232v131q-146 15 -239 129.5t-93 329.5z" />
<glyph horiz-adv-x="1212" d="M18 858v193h109v125h344v-125h268v125h342v-125h113v-193h-113v-858h-342v471h-268v-471h-344v858h-109zM471 764h268v94h-268v-94z" />
<glyph horiz-adv-x="1165" d="M104 0v1176h345v-412h268v412h342v-1176h-342v471h-268v-471h-345z" />
<glyph horiz-adv-x="835" d="M51 1221q0 216 88.5 329t243.5 113q92 0 176 -28.5t193 -82.5l-109 -194q-144 69 -223 69q-113 0 -113 -217q0 -213 111 -213q56 0 108 66v39h-135v203h367v-517h-232v66q-80 -80 -176 -80q-128 0 -213.5 116.5t-85.5 330.5z" />
<glyph horiz-adv-x="1067" d="M2 1176h381l149 -369l152 369h381l-360 -711v-465h-343v465z" />
<glyph horiz-adv-x="833" d="M51 125q0 216 88.5 329t243.5 113q92 0 176.5 -28.5t192.5 -81.5l-109 -195q-146 70 -223 70q-113 0 -113 -217q0 -213 111 -213q56 0 108 65v39h-135v203h367v-516h-232v65q-80 -80 -176 -80q-128 0 -213.5 116.5t-85.5 330.5z" />
<glyph horiz-adv-x="1120" d="M59 590q0 295 123 449.5t336 154.5q126 0 245 -39.5t265 -112.5l-149 -266q-209 94 -310 94q-159 0 -159 -295q0 -290 155 -290q80 0 156 100v41h-193v281h508v-707h-315v94q-112 -112 -248 -112q-85 0 -159 38t-131.5 111.5t-90.5 191.5t-33 267zM420 1272v266h258v-266 h-258z" />
<glyph horiz-adv-x="1120" d="M59 590q0 295 123 449.5t336 154.5q126 0 245 -39.5t265 -112.5l-149 -266q-209 94 -310 94q-159 0 -159 -295q0 -290 155 -290q80 0 156 100v41h-193v281h508v-707h-315v94q-112 -112 -248 -112q-85 0 -159 38t-131.5 111.5t-90.5 191.5t-33 267zM449 -109h243l10 -311 l-192 -219l-61 86l106 168h-106v276z" />
<glyph horiz-adv-x="542" d="M80 -307v645h237v-133q8 22 20.5 43.5t36 47t61.5 40t85 10.5v-237q-52 0 -91.5 -21.5t-59.5 -52t-33 -60.5t-16 -51l-3 -22v-209h-237z" />
<glyph horiz-adv-x="1067" d="M2 1176h381l149 -369l152 369h381l-360 -711v-465h-343v465zM319 1251l213 293h375l-297 -293h-291z" />
<glyph horiz-adv-x="1067" d="M2 1176h381l149 -369l152 369h381l-360 -711v-465h-343v465zM240 1272v266h258v-266h-258zM573 1272v266h256v-266h-256z" />
<glyph horiz-adv-x="1120" d="M59 590q0 295 123 449.5t336 154.5q126 0 245 -39.5t265 -112.5l-149 -266q-209 94 -310 94q-159 0 -159 -295q0 -290 155 -290q80 0 156 100v41h-193v281h508v-707h-315v94q-112 -112 -248 -112q-85 0 -159 38t-131.5 111.5t-90.5 191.5t-33 267zM231 1524h209 q0 -34 28.5 -55t78.5 -21t79 21t29 55h209q0 -127 -83.5 -200t-233.5 -73q-148 0 -232 73t-84 200z" />
<glyph horiz-adv-x="2101" d="M33 121l137 260q77 -44 182 -80.5t168 -36.5q58 0 58 33q0 16 -11.5 29t-36 24t-44.5 18.5t-56.5 18.5t-52.5 16q-49 16 -92 36t-87.5 51.5t-75.5 69.5t-51 91.5t-20 114.5q0 143 99.5 237.5t287.5 94.5q108 0 230 -33q-21 65 -21 123q0 140 85 222.5t257 82.5h432v-532 q84 66 158 101.5t166 35.5q135 0 202.5 -85.5t67.5 -246.5v-766h-358v684q0 123 -74 123q-41 0 -85 -34.5t-77 -78.5v-694h-358v1333h-94q-75 0 -121.5 -46.5t-46.5 -135.5q0 -90 35 -143q33 -13 65 -31l-139 -244q-69 30 -154 55t-137 25q-59 0 -59 -37q0 -10 4.5 -18.5 t14.5 -16t21 -13t30.5 -12.5t36.5 -12.5t44.5 -14t48.5 -15.5q50 -17 90 -35t87 -49.5t78.5 -68t53 -91t21.5 -119.5q0 -148 -103 -241t-296 -93q-135 0 -278.5 43.5t-231.5 100.5z" />
<glyph horiz-adv-x="2050" d="M33 121l137 260q77 -44 182 -80.5t168 -36.5q58 0 58 33q0 16 -11.5 29t-36 24t-44.5 18.5t-56.5 18.5t-52.5 16q-49 16 -92 36t-87.5 51.5t-75.5 69.5t-51 91.5t-20 114.5q0 143 99.5 237.5t287.5 94.5q108 0 230 -33q-21 65 -21 123q0 140 85 222.5t257 82.5h432v-745 l187 327h411l-307 -424l356 -651h-376l-189 365l-82 -115v-250h-358v1333h-94q-75 0 -121.5 -46.5t-46.5 -135.5q0 -90 35 -143q33 -13 65 -31l-139 -244q-69 30 -154 55t-137 25q-59 0 -59 -37q0 -10 4.5 -18.5t14.5 -16t21 -13t30.5 -12.5t36.5 -12.5t44.5 -14t48.5 -15.5 q50 -17 90 -35t87 -49.5t78.5 -68t53 -91t21.5 -119.5q0 -148 -103 -241t-296 -93q-135 0 -278.5 43.5t-231.5 100.5z" />
<glyph horiz-adv-x="1515" d="M33 121l137 260q77 -44 182 -80.5t168 -36.5q58 0 58 33q0 16 -11.5 29t-36 24t-44.5 18.5t-56.5 18.5t-52.5 16q-49 16 -92 36t-87.5 51.5t-75.5 69.5t-51 91.5t-20 114.5q0 143 99.5 237.5t287.5 94.5q108 0 230 -33q-21 65 -21 123q0 140 85 222.5t257 82.5h434v-1493 h-358v1333h-96q-75 0 -121.5 -46.5t-46.5 -135.5q0 -90 35 -143q33 -13 65 -31l-139 -244q-69 30 -154 55t-137 25q-59 0 -59 -37q0 -10 4.5 -18.5t14.5 -16t21 -13t30.5 -12.5t36.5 -12.5t44.5 -14t48.5 -15.5q50 -17 90 -35t87 -49.5t78.5 -68t53 -91t21.5 -119.5 q0 -148 -103 -241t-296 -93q-135 0 -278.5 43.5t-231.5 100.5z" />
<glyph horiz-adv-x="1067" d="M2 1176h381l149 -369l152 369h381l-360 -711v-465h-343v465zM168 1544h375l213 -293h-291z" />
<glyph horiz-adv-x="1120" d="M59 590q0 295 123 449.5t336 154.5q126 0 245 -39.5t265 -112.5l-149 -266q-209 94 -310 94q-159 0 -159 -295q0 -290 155 -290q80 0 156 100v41h-193v281h508v-707h-315v94q-112 -112 -248 -112q-85 0 -159 38t-131.5 111.5t-90.5 191.5t-33 267z" />
<glyph horiz-adv-x="716" d="M98 788v861h586v-219h-340v-105h266v-215h-266v-322h-246z" />
<glyph horiz-adv-x="716" d="M98 -307v860h586v-219h-340v-105h266v-215h-266v-321h-246z" />
<glyph horiz-adv-x="952" d="M104 0v1176h814v-299h-469v-144h366v-293h-366v-440h-345z" />
<glyph horiz-adv-x="806" d="M37 1087v99h59v59h-59v101h67q24 156 107.5 236.5t210.5 80.5q87 0 165.5 -28t186.5 -83l-108 -194q-135 69 -207 69q-67 0 -92 -81h172v-101h-187v-59h187v-99h-170q25 -77 90 -77q66 0 207 69l108 -194q-71 -36 -116 -56.5t-110 -37.5t-126 -17q-127 0 -209.5 79 t-108.5 234h-67z" />
<glyph horiz-adv-x="806" d="M37 -8v98h59v33v27h-59v100h67q24 156 107.5 236.5t210.5 80.5q87 0 166.5 -27.5t185.5 -82.5l-108 -195q-137 70 -207 70q-66 0 -92 -82h172v-100h-187v-27v-33h187v-98h-170q25 -78 90 -78q64 0 207 70l108 -195q-71 -36 -116 -56.5t-110 -37.5t-126 -17 q-126 0 -209 80t-109 234h-67z" />
<glyph horiz-adv-x="1128" d="M53 401v148h86v69h-86v148h99q33 211 147 319.5t289 108.5q121 0 232 -38.5t255 -113.5l-149 -266q-193 94 -287 94q-91 0 -127 -104h238v-148h-261v-69h261v-148h-234q36 -96 123 -96q94 0 287 94l149 -266q-143 -74 -254.5 -112.5t-232.5 -38.5q-173 0 -286 106 t-148 313h-101z" />
<glyph horiz-adv-x="403" d="M86 47v256h231v-256h-231zM86 -51h231l11 -291l-183 -193l-59 82l102 146h-102v256z" />
<glyph horiz-adv-x="403" d="M86 643l102 145h-102v256h231l11 -290l-183 -193zM86 1143v256h231v-256h-231z" />
<glyph horiz-adv-x="747" d="M-10 553h276l107 -268l108 268h277l-260 -516v-344h-248v340z" />
<glyph horiz-adv-x="1720" d="M49 539q0 143 34 252.5t93.5 175t134 98.5t160.5 33q72 0 170 -25q-14 41 -14 96q0 144 98.5 234t275.5 90q203 0 317 -108.5t114 -301.5v-8h235v-274h-235v-402q0 -41 11 -63t22.5 -26.5t27.5 -4.5q38 0 111 41l120 -274q-190 -95 -333 -95q-167 0 -242.5 100.5 t-75.5 307.5v416h-119v274h119v31q0 117 -32 172t-105 55q-66 0 -112 -50.5t-46 -137.5q0 -83 37 -135l78 -37l-141 -277q-148 80 -211 80q-127 0 -127 -237q0 -111 30.5 -175.5t94.5 -64.5q9 0 19.5 1.5t19.5 3t22 6t21 7t23 9.5t21.5 9.5t23 11t21 10.5t22 11.5t20.5 10.5 l141 -277q-245 -125 -422 -125q-86 0 -160.5 33.5t-134 99.5t-93.5 176t-34 253z" />
<glyph horiz-adv-x="628" d="M35 647v213h571v-201q-11 -14 -28.5 -39t-62 -101.5t-79 -151.5t-62.5 -177t-28 -190h-254q0 85 24.5 180t55.5 165.5t73 144t62.5 103t38.5 54.5h-311z" />
<glyph horiz-adv-x="628" d="M35 1221v213h571v-201q-11 -14 -28.5 -39t-62 -101.5t-79 -151.5t-62.5 -177.5t-28 -190.5h-254q0 85 24.5 180t55.5 166t73 144.5t62.5 103.5t38.5 54h-311z" />
<glyph horiz-adv-x="954" d="M37 852v324h899v-304q-17 -24 -45 -66.5t-99.5 -173t-126.5 -258.5t-100 -303.5t-45 -328.5h-385q0 123 26 256t71 251t89.5 217.5t97 188.5t77 128t45.5 69h-504z" />
<glyph horiz-adv-x="1458" d="M49 539q0 143 34 252.5t93.5 175t134 98.5t160.5 33q74 0 172 -25q-16 53 -16 115q0 140 81.5 222.5t245.5 82.5h412v-1493h-358v1333h-62q-75 0 -121.5 -47t-46.5 -133q0 -84 39 -145l76 -35l-141 -277q-148 80 -211 80q-127 0 -127 -237q0 -111 30.5 -175.5t94.5 -64.5 q9 0 19.5 1.5t19.5 3t22 6t21 7t23 9.5t21.5 9.5t23 11t21 10.5t22 11.5t20.5 10.5l141 -277q-245 -125 -422 -125q-86 0 -160.5 33.5t-134 99.5t-93.5 176t-34 253z" />
<glyph horiz-adv-x="1992" d="M49 539q0 143 34 252.5t93.5 175t134 98.5t160.5 33q74 0 172 -25q-16 53 -16 115q0 140 81.5 222.5t245.5 82.5h410v-745l186 327h412l-307 -424l356 -651h-377l-188 365l-82 -115v-250h-358v1333h-60q-75 0 -121.5 -47t-46.5 -133q0 -84 39 -145l76 -35l-141 -277 q-148 80 -211 80q-127 0 -127 -237q0 -111 30.5 -175.5t94.5 -64.5q9 0 19.5 1.5t19.5 3t22 6t21 7t23 9.5t21.5 9.5t23 11t21 10.5t22 11.5t20.5 10.5l141 -277q-245 -125 -422 -125q-86 0 -160.5 33.5t-134 99.5t-93.5 176t-34 253z" />
<glyph horiz-adv-x="1374" d="M49 1008v168h488v-158q-9 -12 -24.5 -32.5t-55.5 -84t-70 -125.5t-55 -147t-25 -158h-201q0 84 29 178t73 171.5t71 118.5t49 69h-279zM270 0l475 1176h209l-475 -1176h-209zM750 190q0 126 139 195q-96 63 -96 156q0 77 65 126.5t182 49.5t182.5 -49.5t65.5 -126.5 q0 -89 -96 -156q139 -71 139 -195q0 -92 -76 -147t-215 -55t-214.5 55t-75.5 147zM946 207q0 -29 26 -47.5t68 -18.5q43 0 69 18.5t26 47.5q0 56 -95 104q-94 -46 -94 -104zM975 520q0 -42 63 -71q66 29 66 71q0 18 -17.5 34.5t-46.5 16.5q-31 0 -48 -16.5t-17 -34.5z" />
<glyph horiz-adv-x="2043" d="M49 539q0 143 34 252.5t93.5 175t134 98.5t160.5 33q74 0 172 -25q-16 53 -16 115q0 140 81.5 222.5t245.5 82.5h410v-532q84 66 158 101.5t166 35.5q135 0 202.5 -85.5t67.5 -246.5v-766h-359v684q0 123 -73 123q-41 0 -85 -34.5t-77 -78.5v-694h-358v1333h-60 q-75 0 -121.5 -47t-46.5 -133q0 -84 39 -145l76 -35l-141 -277q-148 80 -211 80q-127 0 -127 -237q0 -111 30.5 -175.5t94.5 -64.5q9 0 19.5 1.5t19.5 3t22 6t21 7t23 9.5t21.5 9.5t23 11t21 10.5t22 11.5t20.5 10.5l141 -277q-245 -125 -422 -125q-86 0 -160.5 33.5 t-134 99.5t-93.5 176t-34 253z" />
<glyph horiz-adv-x="751" d="M-8 1649h276l107 -269l108 269h277l-260 -516v-345h-248v340z" />
<glyph horiz-adv-x="641" d="M31 -233l84 157q48 -25 115.5 -47t105.5 -22q37 0 37 24q0 10 -13.5 16.5t-50 16.5t-59.5 18q-209 63 -209 215q0 89 64.5 148t185.5 59q142 0 297 -73l-84 -146q-128 45 -185 45q-38 0 -38 -20q0 -8 6 -13.5t18.5 -10.5t26 -8.5t36 -9.5t40.5 -12q39 -12 70 -27t64 -40 t51.5 -64t18.5 -88q0 -91 -64.5 -149t-189.5 -58q-85 0 -176 27t-151 62z" />
<glyph horiz-adv-x="1175" d="M25 453v272h104v451h408q293 0 436 -139.5t143 -448.5t-143 -448.5t-436 -139.5h-408v453h-104zM473 303h49q63 0 105.5 10.5t79 40t54 87.5t17.5 147t-17.5 147t-54.5 87t-79 39.5t-105 10.5h-49v-147h168v-272h-168v-150z" />
<glyph horiz-adv-x="751" d="M49 367q0 220 135.5 363.5t356.5 143.5q34 0 65 -3.5t46 -6.5l14 -4l-58 -201q-30 7 -65 7q-69 0 -128.5 -36t-90.5 -116q61 45 143 45q105 0 175.5 -73t70.5 -193q0 -132 -87 -219.5t-235 -87.5q-87 0 -154 30.5t-107.5 83.5t-60.5 120.5t-20 146.5zM297 326 q1 -74 28 -102.5t62 -28.5q42 0 61 26t19 60q0 41 -22.5 65.5t-59.5 24.5q-57 0 -88 -45z" />
<glyph horiz-adv-x="751" d="M49 940q0 220 135.5 364t356.5 144q34 0 65 -3.5t46 -6.5l14 -4l-58 -201q-30 6 -65 6q-69 0 -128.5 -36t-90.5 -116q62 46 143 46q105 0 175.5 -73.5t70.5 -193.5q0 -132 -87 -219.5t-235 -87.5q-87 0 -154 30.5t-107.5 83.5t-60.5 120.5t-20 146.5zM297 899 q1 -74 28 -102.5t62 -28.5q42 0 61 26t19 60q0 41 -22.5 65.5t-59.5 24.5q-57 0 -88 -45z" />
<glyph d="M61 604q0 250 95.5 443.5t270.5 301t404 107.5q53 0 102 -5.5t72 -10.5l23 -6l-86 -306q-49 11 -106 11q-54 0 -105 -15.5t-100.5 -48.5t-90.5 -93t-65 -142q98 90 240 90q167 0 277 -123t110 -322q0 -143 -58 -257t-173.5 -182.5t-270.5 -68.5q-110 0 -200 33t-152 90.5 t-104.5 137.5t-62 171.5t-20.5 194.5zM440 553q1 -71 15 -123.5t37.5 -80.5t48.5 -41t53 -13q70 0 102.5 51.5t32.5 120.5q0 77 -37 125.5t-102 48.5q-92 0 -150 -88z" />
<glyph horiz-adv-x="471" d="M119 -207v694h233v-694h-233zM119 680v694h233v-694h-233z" />
<glyph horiz-adv-x="1024" d="M55 0v270l461 602h-428v304h862v-269l-458 -604h466v-303h-903z" />
<glyph horiz-adv-x="489" d="M37 612v138h113v929h-113v140h360v-1207h-360z" />
<glyph horiz-adv-x="745" d="M98 788v861h586v-219h-340v-103h277v-215h-277v-104h346v-220h-592z" />
<glyph horiz-adv-x="770" d="M25 -152l469 1479h241l-471 -1479h-239z" />
<glyph horiz-adv-x="993" d="M104 0v1176h814v-299h-469v-142h378v-295h-378v-141h477v-299h-4q-150 -107 -150 -190q0 -19 7.5 -32t17 -19.5t26.5 -10t26 -3.5t26 0.5t18 0.5l-31 -158q-1 0 -20 -0.5t-30.5 0t-36.5 2t-42 4.5t-41.5 10t-41.5 16t-36 23.5t-30.5 32.5t-19 43.5t-7.5 55.5 q0 128 162 225h-615z" />
<glyph horiz-adv-x="258" />
<glyph horiz-adv-x="258" />
<glyph horiz-adv-x="489" d="M37 -346h113v930h-113v139h360v-1206h-360v137z" />
<glyph horiz-adv-x="1187" d="M104 0v1176h347l290 -603v603h342v-1074q0 -47 -1 -76.5t-5 -65.5t-12.5 -59t-22.5 -50.5t-35 -46.5t-50 -40t-69 -38t-90 -35t-114 -35l-111 262q138 49 162 90l-286 592v-600h-345z" />
<glyph horiz-adv-x="940" d="M74 0v238q6 1 16 3.5t36.5 14t48 28t41.5 48.5t26 71h-152v193h111q-3 6 -24.5 48.5t-28.5 59t-20.5 53t-18.5 70t-5 70.5q0 140 88 218.5t250 78.5q210 0 441 -166l-152 -219q-131 88 -213 88q-36 0 -52.5 -13.5t-16.5 -43.5q0 -42 42.5 -123.5t55.5 -120.5h225v-193 h-213q-17 -68 -65 -106h372v-297h-792z" />
<glyph horiz-adv-x="692" d="M63 -135q4 1 11.5 3t27 11t35 21.5t30.5 35.5t19 52h-112v141h82l-18 36t-20 42t-15 39.5t-13 50t-4 51.5q0 103 64 161t180 58q65 0 132.5 -23t103 -44t83.5 -54l-110 -159q-97 65 -154 65q-49 0 -49 -43q0 -31 30 -90.5t40 -89.5h163v-141h-155q-12 -53 -45 -80h268 v-215h-574v172z" />
<glyph horiz-adv-x="692" d="M63 788v173q4 1 11.5 3t27 11t35 21t30.5 35t19 52h-112v142h82l-18 36t-20 42t-15 39.5t-13 50t-4 51.5q0 103 64 161t180 58q65 0 132.5 -23t103 -44t83.5 -54l-110 -160q-98 66 -154 66q-49 0 -49 -43q0 -31 30 -90.5t40 -89.5h163v-142h-155q-11 -52 -45 -79h268 v-216h-574z" />
<glyph horiz-adv-x="665" d="M51 -49h156v1268h-156v190h498v-1649h-498v191z" />
<glyph horiz-adv-x="993" d="M104 0v1176h814v-299h-469v-142h378v-295h-378v-141h477v-299h-822zM244 1303v215h542v-215h-542z" />
<glyph horiz-adv-x="745" d="M98 -307v860h586v-219h-340v-103h277v-215h-277v-104h346v-219h-592z" />
<glyph horiz-adv-x="993" d="M104 0v1176h814v-299h-469v-142h378v-295h-378v-141h477v-299h-822zM143 1544h375l213 -293h-291z" />
<glyph horiz-adv-x="993" d="M104 0v1176h814v-299h-469v-142h378v-295h-378v-141h477v-299h-822zM385 1272v266h258v-266h-258z" />
<glyph horiz-adv-x="993" d="M104 0v1176h814v-299h-469v-142h378v-295h-378v-141h477v-299h-822zM221 1272v266h258v-266h-258zM555 1272v266h256v-266h-256z" />
<glyph horiz-adv-x="993" d="M104 0v1176h814v-299h-469v-142h378v-295h-378v-141h477v-299h-822zM166 1251l188 293h320l188 -293h-237l-111 138l-111 -138h-237z" />
<glyph horiz-adv-x="729" d="M18 111l111 172q135 -80 217 -80q40 0 62 16t22 45q0 27 -17.5 44t-50 23.5t-55.5 8.5t-55 2h-31v211h37q143 0 143 63q0 18 -14 30.5t-45 12.5q-76 0 -188 -69l-103 158q155 126 338 126q127 0 192.5 -61t65.5 -154q0 -114 -110 -184q63 -27 103 -86t40 -133 q0 -51 -15.5 -96.5t-48.5 -85.5t-93.5 -64t-141.5 -24q-188 0 -363 125z" />
<glyph horiz-adv-x="729" d="M18 684l111 172q135 -80 217 -80q40 0 62 16.5t22 45.5q0 22 -13.5 37.5t-30.5 23t-45.5 11.5t-45.5 4.5t-43 0.5h-31v211h37q143 0 143 64q0 18 -14 30.5t-45 12.5q-75 0 -188 -70l-103 158q156 127 338 127q127 0 192.5 -61t65.5 -154q0 -114 -110 -184q63 -27 103 -86 t40 -134q0 -51 -15.5 -96.5t-48.5 -85.5t-93.5 -64t-141.5 -24q-188 0 -363 125z" />
<glyph horiz-adv-x="1097" d="M14 -88l168 260q218 -127 342 -127q68 0 107 33.5t39 93.5q0 40 -21 70t-51 46t-73 25.5t-76 12t-70 2.5h-49v321h59q36 0 71.5 5t74.5 17.5t63.5 40t24.5 66.5q0 38 -25.5 64t-79.5 26q-118 0 -297 -114l-155 239q250 201 522 201q200 0 303.5 -99.5t103.5 -252.5 q0 -199 -180 -314q103 -42 167.5 -141.5t64.5 -226.5q0 -85 -24.5 -160.5t-77 -141t-147 -104.5t-220.5 -39q-292 0 -564 197z" />
<glyph horiz-adv-x="1028" d="M57 0v270l461 602h-428v304h862v-269l-458 -604h467v-303h-904zM307 1251l213 293h375l-297 -293h-291z" />
<glyph horiz-adv-x="489" d="M92 612v1207h361v-138h-113v-929h113v-140h-361z" />
<glyph horiz-adv-x="1531" d="M47 559l88 135q106 -65 187 -65q39 0 62.5 15.5t23.5 41.5q0 70 -164 70h-27v166h31q133 0 133 57q0 17 -15 28t-47 11q-68 0 -161 -55l-82 122q134 103 280 103q107 0 163 -50t56 -126q0 -102 -102 -152q59 -22 95 -70.5t36 -109.5q0 -42 -13.5 -79t-41.5 -70t-80 -52.5 t-121 -19.5q-160 0 -301 100zM428 0l475 1176h207l-475 -1176h-207zM907 190q0 125 137 195q-96 69 -96 156q0 77 65.5 126.5t182.5 49.5t182.5 -49.5t65.5 -126.5q0 -89 -98 -154q141 -74 141 -197q0 -92 -76 -147t-215 -55q-138 0 -213.5 55t-75.5 147zM1102 207 q0 -29 26 -47.5t68 -18.5t68 18.5t26 47.5q0 33 -25 57t-69 47q-94 -46 -94 -104zM1133 520q0 -43 61 -71q66 29 66 71q0 18 -16.5 34.5t-47.5 16.5t-47 -16.5t-16 -34.5z" />
<glyph horiz-adv-x="1538" d="M47 559l88 135q106 -65 187 -65q39 0 62.5 15.5t23.5 41.5q0 70 -164 70h-27v166h31q133 0 133 57q0 17 -15 28t-47 11q-68 0 -161 -55l-82 122q134 103 280 103q107 0 163 -50t56 -126q0 -101 -100 -152q57 -22 93 -70.5t36 -109.5q0 -42 -13.5 -79t-41.5 -70t-80 -52.5 t-121 -19.5q-160 0 -301 100zM428 0l475 1176h207l-473 -1176h-209zM932 88l88 143q88 -69 166 -69q43 0 69.5 19t26.5 52q0 32 -24 55t-72 23q-55 0 -111 -37l-108 68l34 363h453v-166h-289l-2 -76q46 8 74 8q119 0 180.5 -67.5t61.5 -167.5q0 -105 -67 -176.5t-195 -71.5 q-140 0 -285 100z" />
<glyph horiz-adv-x="489" d="M92 -483v1206h361v-137h-113v-930h113v-139h-361z" />
<glyph horiz-adv-x="993" d="M104 0v1176h814v-299h-469v-142h378v-295h-378v-141h477v-299h-822zM166 1544h237l111 -137l111 137h237l-188 -293h-320z" />
<glyph horiz-adv-x="1521" d="M47 559l86 135q114 -67 189 -67q38 0 62 16.5t24 42.5q0 70 -164 70h-27v166h31q133 0 133 55q0 17 -16 29t-46 12q-65 0 -163 -55l-80 122q126 103 280 103q107 0 163 -50t56 -126q0 -101 -100 -152q57 -22 92 -70t35 -110q0 -41 -13.5 -78.5t-41.5 -70.5t-79.5 -52.5 t-119.5 -19.5q-160 0 -301 100zM428 0l473 1176h209l-475 -1176h-207zM840 119v139l276 447h258v-418h96v-168h-96v-119h-194v119h-340zM1030 287h150v250z" />
<glyph horiz-adv-x="993" d="M104 0v1176h814v-299h-469v-142h378v-295h-378v-141h477v-299h-822zM301 1251l213 293h375l-297 -293h-291z" />
</font>
</defs>
</svg>
