<?xml version="1.0" standalone="no"?>
<!DOCTYPE svg PUBLIC "-//W3C//DTD SVG 1.1//EN" "http://www.w3.org/Graphics/SVG/1.1/DTD/svg11.dtd" >
<svg xmlns="http://www.w3.org/2000/svg">
<metadata></metadata>
<defs>
<font id="verbexcondsemibold_italic" horiz-adv-x="1071" >
<font-face units-per-em="2048" ascent="1638" descent="-410" />
<missing-glyph horiz-adv-x="434" />
<glyph unicode="ff" horiz-adv-x="1333" d="M-178 -262q54 20 88 35t61.5 36t41 37t26.5 51t19 63t16 87l145 840h-117l35 188h115l16 86q30 172 96 252t189 80q138 0 311 -94l-112 -166q-30 14 -78 27.5t-76 13.5q-66 0 -86 -105l-16 -94h219l-35 -188h-219l-144 -824q-17 -100 -26 -143.5t-30.5 -106.5t-46.5 -90 t-72 -63.5t-110.5 -60.5t-158.5 -50zM487 -262q54 20 88 35t61.5 36t41 37t26.5 51t19 63t16 87l146 840h-117l35 188h115l16 86q30 172 96 252t189 80q138 0 311 -94l-113 -166q-31 14 -78 27.5t-75 13.5q-66 0 -86 -105l-17 -94h219l-34 -188h-220l-143 -824 q-17 -100 -26 -143.5t-30.5 -106.5t-46.5 -90t-72 -63.5t-110.5 -60.5t-158.5 -50z" />
<glyph unicode="fi" horiz-adv-x="1148" d="M-178 -262q54 20 88 35t61.5 36t41 37t26.5 51t19 63t16 87l147 840h-119l35 188h117l16 86q28 172 92.5 252t184.5 80q109 0 258 -76l-88 -174q-85 31 -119 31q-66 0 -86 -105l-16 -94h219l-35 -188h-219l-144 -824q-17 -100 -26 -143.5t-30.5 -106.5t-46.5 -90 t-72 -63.5t-110.5 -60.5t-158.5 -50zM680 0l188 1075h242l-190 -1075h-240zM893 1249l41 238h256l-43 -238h-254z" />
<glyph unicode="fl" horiz-adv-x="1159" d="M-178 -262q54 20 88 35t61.5 36t41 37t26.5 51t19 63t16 87l147 840h-119l35 188h117l16 86q28 172 92.5 252t184.5 80q109 0 258 -76l-88 -174q-85 31 -119 31q-66 0 -86 -105l-16 -94h219l-35 -188h-219l-144 -824q-17 -100 -26 -143.5t-30.5 -106.5t-46.5 -90 t-72 -63.5t-110.5 -60.5t-158.5 -50zM684 0l262 1493h242l-264 -1493h-240z" />
<glyph unicode="ffi" horiz-adv-x="1816" d="M-178 -262q54 20 88 35t61.5 36t41 37t26.5 51t19 63t16 87l145 840h-117l35 188h115l16 86q30 172 96 252t189 80q138 0 311 -94l-112 -166q-30 14 -78 27.5t-76 13.5q-66 0 -86 -105l-16 -94h219l-35 -188h-219l-144 -824q-17 -100 -26 -143.5t-30.5 -106.5t-46.5 -90 t-72 -63.5t-110.5 -60.5t-158.5 -50zM487 -262q54 20 88 35t61.5 36t41 37t26.5 51t19 63t16 87l148 840h-119l35 188h117l16 86q29 172 92.5 252t183.5 80q109 0 258 -76l-88 -174q-85 31 -118 31q-66 0 -86 -105l-17 -94h219l-34 -188h-220l-143 -824q-17 -100 -26 -143.5 t-30.5 -106.5t-46.5 -90t-72 -63.5t-110.5 -60.5t-158.5 -50zM1346 0l188 1075h242l-191 -1075h-239zM1559 1249l40 238h256l-43 -238h-253z" />
<glyph unicode="ffl" horiz-adv-x="1826" d="M-178 -262q54 20 88 35t61.5 36t41 37t26.5 51t19 63t16 87l145 840h-117l35 188h115l16 86q30 172 96 252t189 80q138 0 311 -94l-112 -166q-30 14 -78 27.5t-76 13.5q-66 0 -86 -105l-16 -94h219l-35 -188h-219l-144 -824q-17 -100 -26 -143.5t-30.5 -106.5t-46.5 -90 t-72 -63.5t-110.5 -60.5t-158.5 -50zM487 -262q54 20 88 35t61.5 36t41 37t26.5 51t19 63t16 87l148 840h-119l35 188h117l16 86q29 172 92.5 252t183.5 80q109 0 258 -76l-88 -174q-85 31 -118 31q-66 0 -86 -105l-17 -94h219l-34 -188h-220l-143 -824q-17 -100 -26 -143.5 t-30.5 -106.5t-46.5 -90t-72 -63.5t-110.5 -60.5t-158.5 -50zM1352 0l262 1493h241l-264 -1493h-239z" />
<glyph unicode="ffb" horiz-adv-x="2408" d="M-178 -262q54 20 88 35t61.5 36t41 37t26.5 51t19 63t16 87l145 840h-117l35 188h115l16 86q30 172 96 252t189 80q138 0 311 -94l-112 -166q-30 14 -78 27.5t-76 13.5q-66 0 -86 -105l-16 -94h219l-35 -188h-219l-144 -824q-17 -100 -26 -143.5t-30.5 -106.5t-46.5 -90 t-72 -63.5t-110.5 -60.5t-158.5 -50zM487 -262q54 20 88 35t61.5 36t41 37t26.5 51t19 63t16 87l148 840h-119l35 188h117l16 86q29 172 92.5 252t183.5 80q109 0 258 -76l-88 -174q-85 31 -118 31q-66 0 -86 -105l-17 -94h219l-34 -188h-220l-143 -824q-17 -100 -26 -143.5 t-30.5 -106.5t-46.5 -90t-72 -63.5t-110.5 -60.5t-158.5 -50zM1346 0l262 1493h241l-96 -541q76 66 149.5 106t157.5 40q122 0 196.5 -92t74.5 -269q0 -142 -30 -277t-84.5 -243.5t-139.5 -174t-187 -65.5q-90 0 -154 40.5t-126 109.5l-23 -127h-241zM1645 326 q85 -142 194 -142q73 0 130.5 83t85.5 198.5t28 232.5q0 91 -31.5 143t-95.5 52q-107 0 -238 -145z" />
<glyph unicode="ffh" horiz-adv-x="2404" d="M-178 -262q54 20 88 35t61.5 36t41 37t26.5 51t19 63t16 87l145 840h-117l35 188h115l16 86q30 172 96 252t189 80q138 0 311 -94l-112 -166q-30 14 -78 27.5t-76 13.5q-66 0 -86 -105l-16 -94h219l-35 -188h-219l-144 -824q-17 -100 -26 -143.5t-30.5 -106.5t-46.5 -90 t-72 -63.5t-110.5 -60.5t-158.5 -50zM487 -262q54 20 88 35t61.5 36t41 37t26.5 51t19 63t16 87l148 840h-119l35 188h117l16 86q29 172 92.5 252t183.5 80q109 0 258 -76l-88 -174q-85 31 -118 31q-66 0 -86 -105l-17 -94h219l-34 -188h-220l-143 -824q-17 -100 -26 -143.5 t-30.5 -106.5t-46.5 -90t-72 -63.5t-110.5 -60.5t-158.5 -50zM1346 0l262 1493h241l-96 -551q197 156 350 156q134 0 188.5 -89.5t24.5 -252.5l-131 -756h-243l126 717q7 50 7 90t-21 65t-65 25q-62 0 -138.5 -45.5t-132.5 -101.5l-131 -750h-241z" />
<glyph unicode="fb" horiz-adv-x="1742" d="M-178 -262q54 20 88 35t61.5 36t41 37t26.5 51t19 63t16 87l147 840h-119l35 188h117l16 86q28 172 92.5 252t184.5 80q109 0 258 -76l-88 -174q-85 31 -119 31q-66 0 -86 -105l-16 -94h219l-35 -188h-219l-144 -824q-17 -100 -26 -143.5t-30.5 -106.5t-46.5 -90 t-72 -63.5t-110.5 -60.5t-158.5 -50zM678 0l262 1493h242l-97 -541q75 66 149.5 106t158.5 40q122 0 196 -92t74 -269q0 -113 -18.5 -223t-56 -207t-89 -170.5t-123 -116.5t-153.5 -43q-48 0 -90.5 12.5t-78 37t-59.5 46.5t-53 54l-22 -127h-242zM977 326q85 -142 194 -142 q73 0 130.5 83t85.5 198.5t28 232.5q0 91 -31.5 143t-95.5 52q-106 0 -237 -145z" />
<glyph unicode="ffj" horiz-adv-x="1830" d="M-178 -262q54 20 88 35t61.5 36t41 37t26.5 51t19 63t16 87l145 840h-117l35 188h115l16 86q30 172 96 252t189 80q138 0 311 -94l-112 -166q-30 14 -78 27.5t-76 13.5q-66 0 -86 -105l-16 -94h219l-35 -188h-219l-144 -824q-17 -100 -26 -143.5t-30.5 -106.5t-46.5 -90 t-72 -63.5t-110.5 -60.5t-158.5 -50zM487 -262q54 20 88 35t61.5 36t41 37t26.5 51t19 63t16 87l148 840h-119l35 188h117l16 86q29 172 92.5 252t183.5 80q109 0 258 -76l-88 -174q-85 31 -118 31q-66 0 -86 -105l-17 -94h219l-34 -188h-220l-143 -824q-17 -100 -26 -143.5 t-30.5 -106.5t-46.5 -90t-72 -63.5t-110.5 -60.5t-158.5 -50zM1102 -258q53 20 88 34.5t61 32.5t39.5 31.5t24.5 39t15.5 45.5t12.5 61l191 1089h244l-191 -1071q-12 -70 -19 -102.5t-21.5 -82.5t-32.5 -73.5t-48.5 -57.5t-73 -54t-102 -43t-139.5 -44zM1559 1249l43 238 h253l-40 -238h-256z" />
<glyph unicode="ffk" horiz-adv-x="2304" d="M-178 -262q54 20 88 35t61.5 36t41 37t26.5 51t19 63t16 87l145 840h-117l35 188h115l16 86q30 172 96 252t189 80q138 0 311 -94l-112 -166q-30 14 -78 27.5t-76 13.5q-66 0 -86 -105l-16 -94h219l-35 -188h-219l-144 -824q-17 -100 -26 -143.5t-30.5 -106.5t-46.5 -90 t-72 -63.5t-110.5 -60.5t-158.5 -50zM487 -262q54 20 88 35t61.5 36t41 37t26.5 51t19 63t16 87l148 840h-119l35 188h117l16 86q29 172 92.5 252t183.5 80q109 0 258 -76l-88 -174q-85 31 -118 31q-66 0 -86 -105l-17 -94h219l-34 -188h-220l-143 -824q-17 -100 -26 -143.5 t-30.5 -106.5t-46.5 -90t-72 -63.5t-110.5 -60.5t-158.5 -50zM1346 0l262 1493h241l-151 -862l346 444h291l-389 -440l245 -635h-245l-162 453l-148 -168l-49 -285h-241z" />
<glyph unicode="fft" horiz-adv-x="2048" d="M-178 -262q54 20 88 35t61.5 36t41 37t26.5 51t19 63t16 87l145 840h-117l35 188h115l16 86q30 172 96 252t189 80q138 0 311 -94l-112 -166q-30 14 -78 27.5t-76 13.5q-66 0 -86 -105l-16 -94h219l-35 -188h-219l-144 -824q-17 -100 -26 -143.5t-30.5 -106.5t-46.5 -90 t-72 -63.5t-110.5 -60.5t-158.5 -50zM487 -262q54 20 88 35t61.5 36t41 37t26.5 51t19 63t16 87l146 840h-117l35 188h115l16 86q30 172 96 252t189 80q138 0 311 -94l-113 -166q-31 14 -78 27.5t-75 13.5q-66 0 -86 -105l-17 -94h219l-34 -188h-220l-143 -824 q-17 -100 -26 -143.5t-30.5 -106.5t-46.5 -90t-72 -63.5t-110.5 -60.5t-158.5 -50zM1430 887l32 188h121l47 262l250 49l-55 -311h235l-32 -188h-236l-102 -582q-19 -106 49 -106q36 0 145 47l55 -197q-176 -72 -290 -72q-124 0 -176 87t-21 264l98 559h-120z" />
<glyph unicode="fh" horiz-adv-x="1738" d="M-178 -262q54 20 88 35t61.5 36t41 37t26.5 51t19 63t16 87l147 840h-119l35 188h117l16 86q28 172 92.5 252t184.5 80q109 0 258 -76l-88 -174q-85 31 -119 31q-66 0 -86 -105l-16 -94h219l-35 -188h-219l-144 -824q-17 -100 -26 -143.5t-30.5 -106.5t-46.5 -90 t-72 -63.5t-110.5 -60.5t-158.5 -50zM678 0l262 1493h242l-97 -551q197 156 351 156q134 0 188.5 -89.5t24.5 -252.5l-131 -756h-244l127 717q7 50 7 90t-21.5 65t-65.5 25q-62 0 -138 -45.5t-132 -101.5l-131 -750h-242z" />
<glyph unicode="fj" horiz-adv-x="1165" d="M-178 -262q54 20 88 35t61.5 36t41 37t26.5 51t19 63t16 87l147 840h-119l35 188h117l16 86q28 172 92.5 252t184.5 80q109 0 258 -76l-88 -174q-85 31 -119 31q-66 0 -86 -105l-16 -94h219l-35 -188h-219l-144 -824q-17 -100 -26 -143.5t-30.5 -106.5t-46.5 -90 t-72 -63.5t-110.5 -60.5t-158.5 -50zM434 -258q53 20 88 34.5t61.5 32.5t40 31.5t24.5 39t16 45.5t12 61l190 1089h244l-190 -1071q-12 -70 -19 -103t-22 -82.5t-33 -73.5t-48.5 -57t-73 -53.5t-102 -43.5t-139.5 -44zM891 1249l43 238h254l-41 -238h-256z" />
<glyph unicode="fk" horiz-adv-x="1638" d="M-178 -262q54 20 88 35t61.5 36t41 37t26.5 51t19 63t16 87l147 840h-119l35 188h117l16 86q28 172 92.5 252t184.5 80q109 0 258 -76l-88 -174q-85 31 -119 31q-66 0 -86 -105l-16 -94h219l-35 -188h-219l-144 -824q-17 -100 -26 -143.5t-30.5 -106.5t-46.5 -90 t-72 -63.5t-110.5 -60.5t-158.5 -50zM678 0l262 1493h242l-152 -862l346 444h291l-389 -440l246 -635h-246l-162 453l-147 -168l-49 -285h-242z" />
<glyph unicode="ft" horiz-adv-x="1382" d="M-178 -262q54 20 88 35t61.5 36t41 37t26.5 51t19 63t16 87l145 840h-117l35 188h115l16 86q30 172 96 252t189 80q138 0 311 -94l-112 -166q-30 14 -78 27.5t-76 13.5q-66 0 -86 -105l-16 -94h219l-35 -188h-219l-144 -824q-17 -100 -26 -143.5t-30.5 -106.5t-46.5 -90 t-72 -63.5t-110.5 -60.5t-158.5 -50zM764 887l33 188h121l47 262l249 49l-55 -311h236l-33 -188h-236l-102 -582q-19 -106 49 -106q37 0 146 47l55 -197q-176 -72 -291 -72q-124 0 -176 87t-21 264l99 559h-121z" />
<glyph unicode=" "  horiz-adv-x="434" />
<glyph unicode="&#x09;" horiz-adv-x="434" />
<glyph unicode="&#xa0;" horiz-adv-x="434" />
<glyph unicode="!" horiz-adv-x="534" d="M35 0l51 287h250l-51 -287h-250zM166 453l98 981h295l-248 -981h-145z" />
<glyph unicode="&#x22;" horiz-adv-x="772" d="M178 885l58 549h233l-137 -549h-154zM528 885l58 549h233l-137 -549h-154z" />
<glyph unicode="#" horiz-adv-x="1255" d="M29 338l32 192h218l110 371h-192l34 195h218l102 338h188l-102 -338h242l102 338h188l-102 -338h197l-35 -195h-219l-113 -371h199l-35 -192h-221l-101 -338h-188l100 338h-241l-101 -338h-190l100 338h-190zM467 530h242l112 371h-241z" />
<glyph unicode="$" horiz-adv-x="1124" d="M2 170l143 182q138 -96 263 -135l73 416l-20 12q-67 41 -113 77t-88 84t-63 106.5t-21 129.5q0 177 123 294t328 120l32 184h177l-37 -204q159 -34 325 -136l-143 -182q-111 71 -221 99l-70 -392l17 -8q53 -32 90.5 -58.5t79.5 -65.5t68 -79t43.5 -94.5t17.5 -116.5 q0 -182 -129 -302t-336 -124l-31 -182h-176l35 201q-195 40 -367 174zM446 1057q0 -45 20.5 -76t63.5 -63l56 309q-62 -14 -101 -57.5t-39 -112.5zM582 205q69 14 112 61.5t43 118.5q0 87 -96 156z" />
<glyph unicode="%" horiz-adv-x="1716" d="M141 989q0 65 13.5 129.5t42.5 126t70.5 108t102 75t132.5 28.5q133 0 219 -76.5t86 -224.5q0 -82 -22.5 -162.5t-65 -149.5t-114 -112t-161.5 -43q-133 0 -218 76.5t-85 224.5zM324 987q0 -149 127 -149q43 0 78.5 34t55 85t30 103.5t10.5 96.5q0 150 -125 150 q-44 0 -79.5 -34t-55.5 -85.5t-30.5 -104t-10.5 -96.5zM352 0l854 1434h191l-854 -1434h-191zM946 279q0 65 13.5 129.5t42.5 125.5t70.5 107.5t102 75t132.5 28.5q133 0 219 -76.5t86 -224.5q0 -82 -22.5 -162.5t-65 -149.5t-114 -112t-161.5 -43q-132 0 -217.5 77 t-85.5 225zM1128 276q0 -149 127 -149q43 0 78.5 34t55.5 85t30.5 103.5t10.5 96.5q0 150 -125 150q-44 0 -80 -34t-56 -85.5t-30.5 -104t-10.5 -96.5z" />
<glyph unicode="&#x26;" horiz-adv-x="1241" d="M63 313q0 63 18 121t46 103.5t72 91.5t85 79t97 72q-48 82 -72 151.5t-24 147.5q0 174 106 275.5t266 101.5q141 0 226.5 -78t85.5 -202q0 -54 -18 -106t-45.5 -93.5t-72 -87t-83.5 -78t-95 -74.5l174 -262q82 141 121 281h242q-30 -111 -91 -236.5t-145 -234.5l191 -285 h-264l-80 123q-181 -146 -381 -146q-165 0 -262 91.5t-97 244.5zM301 328q0 -65 36 -111.5t112 -46.5q118 0 243 125l-203 315q-90 -73 -139 -140.5t-49 -141.5zM500 1081q0 -91 53 -182q95 68 145 128t50 130q0 49 -25.5 82t-77.5 33q-67 0 -106 -56t-39 -135z" />
<glyph unicode="'" horiz-adv-x="421" d="M178 885l58 549h233l-137 -549h-154z" />
<glyph unicode="(" horiz-adv-x="598" d="M29 -45.5q-3 83.5 20 205.5l197 1114q16 92 28 137.5t39.5 100.5t72 85.5t117 61.5t183.5 59l37 -157q-67 -26 -105 -47t-61.5 -51t-32.5 -59.5t-20 -86.5l-215 -1217q-17 -72 -13 -117t31 -71.5t99 -61.5l-74 -143q-162 47 -231 105.5t-72 142z" />
<glyph unicode=")" horiz-adv-x="591" d="M-94 -135q67 26 105 47t61.5 51t32.5 59.5t20 86.5l215 1216q17 72 13 117t-31 71.5t-99 61.5l74 143q162 -47 231 -105.5t72 -141.5t-20 -205l-197 -1114q-8 -46 -13.5 -72.5t-14 -62.5t-17.5 -57t-23 -48.5t-30.5 -44t-40 -37.5t-52 -35t-66 -30.5t-82.5 -30 t-101 -27.5z" />
<glyph unicode="*" horiz-adv-x="925" d="M158 1026l307 43l-275 148l132 157l190 -250l-12 312l202 -35l-116 -289l260 170l69 -195l-299 -43l267 -147l-133 -156l-187 238l10 -303l-200 35l119 288l-265 -165z" />
<glyph unicode="+" horiz-adv-x="1105" d="M121 588l35 190h329l62 350h192l-61 -350h332l-33 -190h-334l-61 -350h-193l62 350h-330z" />
<glyph unicode="," horiz-adv-x="483" d="M-35 -223l156 223h-111l53 307h248l-41 -336l-254 -278z" />
<glyph unicode="-" horiz-adv-x="763" d="M92 479l37 207h528l-34 -207h-531z" />
<glyph unicode="." horiz-adv-x="481" d="M10 0l53 307h250l-53 -307h-250z" />
<glyph unicode="/" horiz-adv-x="825" d="M-94 -184l860 1802h190l-860 -1802h-190z" />
<glyph unicode="0" horiz-adv-x="1193" d="M104 463q0 57 7 130t26 170t47.5 190.5t76 185.5t107.5 161.5t146.5 112.5t187.5 43q115 0 198.5 -37t131.5 -104.5t70 -152.5t22 -191q0 -57 -7 -130.5t-26 -170.5t-47.5 -191t-76 -186.5t-107.5 -162t-146.5 -112.5t-187.5 -43q-115 0 -198.5 37t-131.5 105t-70 153.5 t-22 192.5zM350 438q0 -44 3.5 -78t14 -69t29 -57.5t51 -37t76.5 -14.5q74 0 137 70t101.5 171t66.5 218.5t39 208t11 143.5q0 44 -3.5 78t-14 69t-29 57.5t-51 37t-76.5 14.5q-74 0 -137 -70t-101.5 -171t-66.5 -218.5t-39 -208t-11 -143.5z" />
<glyph unicode="1" horiz-adv-x="727" d="M125 1225l354 209h236l-252 -1434h-252l207 1167l-207 -118z" />
<glyph unicode="2" horiz-adv-x="1056" d="M-31 0l25 131q11 65 32.5 124.5t45.5 105t63.5 93.5t70 79.5t82 73.5t82.5 64.5t89 63.5q67 47 106.5 76t87.5 70t73.5 73t43.5 70t18 76q2 59 -37.5 97t-113.5 38q-137 0 -320 -123l-94 182q228 162 455 162q175 0 270.5 -91.5t95.5 -240.5q0 -58 -16 -113.5t-40 -100.5 t-63.5 -92t-74.5 -81t-86 -73.5t-86 -63.5t-85 -58l-6 -4.5t-5.5 -3.5t-6.5 -4q-126 -88 -185 -155t-75 -156h574l-37 -219h-883z" />
<glyph unicode="3" horiz-adv-x="1064" d="M-29 162l140 166q88 -61 164.5 -94t154.5 -33q114 0 185 68.5t71 172.5q0 58 -26 101.5t-70 68t-94.5 36t-106.5 11.5h-45l39 222h55q68 0 139 26.5t123 81t52 121.5q0 57 -37.5 91t-106.5 34q-130 0 -305 -111l-82 179q29 21 65.5 41.5t96.5 48.5t136 45.5t151 17.5 q165 0 253.5 -83.5t88.5 -211.5q0 -119 -74.5 -218.5t-204.5 -160.5q92 -36 149.5 -126t57.5 -212q0 -85 -29.5 -165t-87 -149t-155.5 -111t-222 -42q-254 0 -475 185z" />
<glyph unicode="4" horiz-adv-x="1150" d="M-6 289l33 188l698 957h334l-164 -924h178l-39 -221h-178l-51 -289h-250l51 289h-612zM281 510h364l117 661z" />
<glyph unicode="5" horiz-adv-x="1054" d="M-10 166l143 168q151 -131 281 -131q108 0 191 82.5t83 218.5q0 94 -47 152.5t-137 58.5q-99 0 -230 -88l-133 86l191 721h731l-39 -222h-516l-70 -305q77 23 150 23q172 0 265 -115.5t93 -292.5q0 -107 -35 -204.5t-98.5 -174t-162.5 -121.5t-218 -45q-236 0 -442 189z " />
<glyph unicode="6" horiz-adv-x="1122" d="M86 481q0 152 38.5 297.5t111 267t170.5 214t224.5 144.5t264.5 52q61 0 115 -10t78 -20l24 -9l-100 -192q-50 14 -113 14q-165 0 -301 -120t-207 -316q119 119 277 119q161 0 253.5 -113.5t92.5 -280.5q0 -106 -33.5 -204t-94.5 -176t-155 -124.5t-207 -46.5 q-107 0 -192.5 42t-138 113t-80 160t-27.5 189zM336 471q0 -117 49 -196.5t141 -79.5q108 0 172 96t64 223q0 86 -45 147.5t-131 61.5q-78 0 -147.5 -53.5t-100.5 -114.5q-2 -29 -2 -84z" />
<glyph unicode="7" horiz-adv-x="907" d="M80 0q28 160 97.5 339.5t142.5 313.5t162 270t131.5 192.5t74.5 96.5h-532l37 222h821l-35 -203q-11 -13 -30.5 -36.5t-76.5 -100t-110.5 -156t-122.5 -196.5t-123.5 -230.5t-102 -250t-69.5 -261.5h-264z" />
<glyph unicode="8" horiz-adv-x="1138" d="M39 332q0 70 21.5 133t55.5 108.5t83 86.5t95.5 68.5t102.5 53.5q-151 117 -151 289q0 169 124 277t326 108q180 0 278.5 -87.5t98.5 -227.5q0 -228 -276 -375q219 -134 219 -352q0 -194 -149 -315.5t-390 -121.5q-208 0 -323 94t-115 261zM297 358q0 -85 51.5 -131.5 t140.5 -46.5q112 0 191.5 69t79.5 175q0 81 -48.5 139.5t-127.5 106.5q-49 -22 -86.5 -42.5t-77 -50t-65 -60.5t-42 -72t-16.5 -87zM483 1057q0 -114 125 -187q221 98 221 246q0 61 -39 102.5t-108 41.5q-85 0 -142 -61t-57 -142z" />
<glyph unicode="9" horiz-adv-x="1120" d="M45 16l98 193q49 -14 115 -14q164 0 299.5 119t204.5 315q-117 -117 -275 -117q-160 0 -253 113t-93 280q0 106 33.5 204t94.5 176t155 124.5t207 46.5q108 0 193.5 -42t138.5 -113t80.5 -160t27.5 -189q0 -152 -38.5 -297.5t-111.5 -267t-171 -214t-224 -144.5t-264 -52 q-62 0 -116 9.5t-78 19.5zM395 920q0 -55 17 -100.5t58.5 -77t100.5 -31.5q78 0 145.5 52.5t98.5 113.5q4 58 4 86q0 117 -49 196.5t-139 79.5q-108 0 -172 -96t-64 -223z" />
<glyph unicode=":" horiz-adv-x="501" d="M16 0l54 307h249l-53 -307h-250zM133 662l53 307h250l-53 -307h-250z" />
<glyph unicode=";" horiz-adv-x="514" d="M-25 -223l156 223h-111l54 307h248l-41 -336l-254 -278zM137 662l53 307h250l-53 -307h-250z" />
<glyph unicode="&#x3c;" horiz-adv-x="1105" d="M96 594l33 178l928 422l-43 -242l-660 -280l561 -279l-38 -221z" />
<glyph unicode="=" horiz-adv-x="1105" d="M84 397l35 193h856l-35 -193h-856zM152 778l34 195h856l-34 -195h-856z" />
<glyph unicode="&#x3e;" horiz-adv-x="1105" d="M72 172l43 242l659 280l-561 279l39 221l780 -422l-33 -178z" />
<glyph unicode="?" horiz-adv-x="921" d="M141 0l52 287h249l-51 -287h-250zM172 1313q208 143 414 143q157 0 253.5 -83.5t96.5 -231.5q0 -79 -30.5 -149.5t-77.5 -120.5t-110.5 -91t-123 -66t-121.5 -42l-51 -219h-154l47 360q172 47 267.5 116t95.5 173q0 63 -38.5 98t-107.5 35q-63 0 -127 -27.5t-141 -74.5z " />
<glyph unicode="@" horiz-adv-x="1652" d="M59 338q0 159 39.5 314t117.5 290.5t185.5 239t253 163.5t310.5 60q113 0 207 -28.5t160 -79.5t115 -122.5t73 -157t33.5 -182.5t-3.5 -200q-9 -71 -22.5 -138.5t-36 -150.5t-57 -150.5t-79.5 -126t-109 -91.5t-140 -33q-63 0 -106 24t-62 63.5t-25.5 77t-3.5 78.5 q-145 -141 -286 -141q-97 0 -158.5 71.5t-61.5 186.5q0 160 92.5 257t229.5 97q43 0 90.5 -8.5t105 -24t62.5 -16.5l18 99q16 94 -7 136t-99 42q-106 0 -283 -80l-49 139q209 92 371 92q304 0 244 -333l-66 -367q-26 -148 -18 -199q10 -69 71 -69q88 0 174.5 163t110.5 402 q6 70 7 139t-13 135.5t-36 125.5t-63 108.5t-93.5 85.5t-127 56t-163.5 20q-146 0 -275 -55t-223.5 -149t-163 -217t-103 -263t-34.5 -283q0 -99 18 -187.5t57 -165t95 -132t135.5 -87.5t175.5 -32q86 0 167.5 22.5t119.5 45.5l39 22l47 -84q-6 -4 -17.5 -11.5t-50 -26 t-79.5 -32.5t-103.5 -25.5t-124.5 -11.5q-112 0 -207 36.5t-163.5 101.5t-116.5 153.5t-71.5 193t-23.5 220.5zM590 324q0 -62 29.5 -94.5t78.5 -32.5q100 0 236 133l31 178q-8 2 -37.5 9.5t-49.5 12t-49.5 9t-52.5 4.5q-93 0 -139.5 -65.5t-46.5 -153.5z" />
<glyph unicode="A" horiz-adv-x="1206" d="M-76 0l688 1434h277l184 -1434h-264l-25 305h-448l-131 -305h-281zM426 516h342l-53 672z" />
<glyph unicode="B" horiz-adv-x="1196" d="M39 0l254 1434h442q198 0 301 -82.5t103 -225.5q0 -80 -29 -148.5t-73 -111.5t-90 -69.5t-87 -32.5q36 -10 69.5 -29.5t70 -54.5t59 -94.5t22.5 -134.5q0 -214 -129.5 -332.5t-363.5 -118.5h-549zM326 205h225q135 0 211 73.5t76 194.5q0 89 -57.5 135.5t-166.5 46.5 h-208zM440 850h191q62 0 117.5 23t95 76.5t39.5 127.5q0 150 -195 150h-182z" />
<glyph unicode="C" horiz-adv-x="1128" d="M96 520q0 188 44 358.5t122 298.5t193.5 203.5t251.5 75.5q57 0 115 -13.5t100.5 -31t97 -51.5t84.5 -55.5t82 -61.5l-139 -182q-97 78 -173 118t-147 40q-106 0 -193.5 -101.5t-133.5 -258t-46 -327.5q0 -317 187 -317q124 0 360 154l105 -205q-154 -89 -279 -138 t-246 -49q-183 0 -284 139t-101 404z" />
<glyph unicode="D" horiz-adv-x="1251" d="M39 0l254 1434h317q291 0 435.5 -142t144.5 -399q0 -85 -11.5 -170t-38.5 -173.5t-67 -168t-101 -150t-136 -121.5t-176.5 -80.5t-219.5 -29.5h-401zM330 223h102q118 0 215 53t159.5 144t96 210t33.5 253q0 173 -86.5 249t-255.5 76h-90z" />
<glyph unicode="E" horiz-adv-x="1060" d="M39 0l254 1434h817l-39 -226h-567l-68 -381h465l-39 -221h-465l-67 -383h577l-39 -223h-829z" />
<glyph unicode="F" horiz-adv-x="1015" d="M39 0l254 1434h817l-39 -226h-567l-68 -383h451l-41 -219h-449l-106 -606h-252z" />
<glyph unicode="G" horiz-adv-x="1228" d="M96 506q0 271 77 487t219 339.5t323 123.5q73 0 143 -18.5t138 -56.5t112 -68t109 -80l-142 -182q-5 3 -42 30t-48.5 35t-45 30t-52.5 30t-48 21t-54.5 17.5t-51.5 4.5q-110 0 -197.5 -100t-133.5 -257.5t-46 -335.5q0 -151 44.5 -237t138.5 -86q76 0 159.5 53.5 t145.5 118.5l39 223h-275l37 209h510l-141 -807h-236l27 156q-86 -84 -169.5 -131.5t-178.5 -47.5q-163 0 -262 135.5t-99 393.5z" />
<glyph unicode="H" horiz-adv-x="1257" d="M39 0l254 1434h250l-101 -572h461l101 572h251l-254 -1434h-249l112 641h-461l-112 -641h-252z" />
<glyph unicode="I" horiz-adv-x="546" d="M39 0l254 1434h250l-252 -1434h-252z" />
<glyph unicode="J" horiz-adv-x="546" d="M-180 -137q62 22 100 41t63 36t39 43.5t20.5 50t14.5 70.5l236 1330h250l-232 -1317q-28 -155 -51 -210q-38 -91 -133 -148q-84 -50 -254 -99z" />
<glyph unicode="K" horiz-adv-x="1187" d="M39 0l254 1434h250l-113 -643l543 643h321l-598 -670l373 -764h-281l-262 573l-168 -186l-67 -387h-252z" />
<glyph unicode="L" horiz-adv-x="980" d="M39 0l254 1434h250l-213 -1213h551l-37 -221h-805z" />
<glyph unicode="M" horiz-adv-x="1470" d="M39 0l254 1434h256l172 -871l489 871h258l-254 -1434h-249l168 952l-400 -712h-123l-147 747l-172 -987h-252z" />
<glyph unicode="N" horiz-adv-x="1286" d="M39 0l254 1434h252l307 -1020l178 1020h252l-252 -1434h-254l-307 1020l-178 -1020h-252z" />
<glyph unicode="O" horiz-adv-x="1320" d="M96 522q0 73 10.5 154.5t34.5 173t59 177t89 164.5t119.5 137t154.5 93t191 35q242 0 374 -137.5t132 -405.5q0 -73 -10.5 -154.5t-34.5 -173.5t-59 -177.5t-89 -164.5t-119.5 -137.5t-154.5 -93.5t-191 -35q-242 0 -374 138t-132 407zM352 524q0 -151 59.5 -236 t198.5 -85q62 0 116 30.5t92.5 80t70.5 114.5t52.5 132.5t34 135.5t19.5 121t6 92q0 152 -58.5 237t-197.5 85q-85 0 -155 -58t-113 -142.5t-72.5 -185.5t-41 -182.5t-11.5 -138.5z" />
<glyph unicode="P" horiz-adv-x="1165" d="M39 0l254 1434h416q460 0 460 -377q0 -116 -37.5 -213.5t-108.5 -169t-180.5 -111t-246.5 -39.5h-213l-92 -524h-252zM422 741h170q143 0 230 79t87 218q0 174 -215 174h-190z" />
<glyph unicode="Q" horiz-adv-x="1320" d="M96 522q0 73 10.5 154.5t34.5 173t59 177t89 164.5t119.5 137t154.5 93t191 35q242 0 374 -137.5t132 -405.5q0 -110 -24 -234.5t-73 -253.5t-138 -238t-204 -162l170 -199l-190 -154l-215 305q-234 5 -362 143t-128 402zM352 524q0 -151 59.5 -236t198.5 -85 q62 0 116 30.5t92.5 80t70.5 114.5t52.5 132.5t34 135.5t19.5 121t6 92q0 152 -58.5 237t-197.5 85q-85 0 -155 -58t-113 -142.5t-72.5 -185.5t-41 -182.5t-11.5 -138.5z" />
<glyph unicode="R" horiz-adv-x="1218" d="M39 0l254 1434h463q229 0 341.5 -91.5t112.5 -263.5q0 -112 -40.5 -210t-131 -174.5t-219.5 -104.5l207 -590h-262l-180 573h-193l-100 -573h-252zM428 782h215q148 0 228.5 74.5t80.5 202.5q0 166 -221 166h-225z" />
<glyph unicode="S" horiz-adv-x="1103" d="M-8 170l143 182q219 -153 379 -153q91 0 152 50.5t61 135.5q0 27 -6.5 49.5t-23 43t-32 36t-45 34.5t-49.5 30.5t-59.5 33t-60.5 33.5q-67 41 -113 77t-88 84t-63 106.5t-21 129.5q0 179 125.5 296.5t333.5 117.5q241 0 489 -156l-143 -182q-75 48 -168.5 82.5 t-167.5 34.5q-83 0 -141 -46t-58 -132q0 -24 5 -43.5t19.5 -38t27 -31.5t41 -31t46 -28.5t58 -32.5t63.5 -35q53 -32 90.5 -58.5t79.5 -65.5t68 -79t43.5 -94.5t17.5 -116.5q0 -185 -133 -305.5t-346 -120.5q-146 0 -281.5 56t-242.5 137z" />
<glyph unicode="T" horiz-adv-x="1005" d="M139 1208l39 226h938l-39 -226h-342l-215 -1208h-250l213 1208h-344z" />
<glyph unicode="U" horiz-adv-x="1241" d="M121 541l158 893h251l-165 -932q-9 -54 -11 -94q-1 -10 -2 -21q0 -31 6 -61q8 -40 28 -65.5t59 -41.5t96 -16q70 0 122 22.5t85 65.5t52 93.5t31 117.5l166 932h252l-166 -932q-16 -93 -40.5 -167t-67.5 -143t-102 -114.5t-146 -73t-197 -27.5q-120 0 -205 29t-133 78 q-46 49 -68 123q-21 72 -22 150q0 81 19 184z" />
<glyph unicode="V" horiz-adv-x="1202" d="M166 1434h274l95 -1135l487 1135h295l-690 -1434h-277z" />
<glyph unicode="W" horiz-adv-x="1646" d="M184 1434h275l2 -1037l393 1037h207l26 -1035l365 1035h291l-576 -1434h-245l-31 1028l-391 -1028h-244z" />
<glyph unicode="X" horiz-adv-x="1122" d="M-86 0l518 721l-246 713h275l141 -535l326 535h301l-498 -711l266 -723h-278l-156 528l-336 -528h-313z" />
<glyph unicode="Y" horiz-adv-x="1122" d="M158 1434h266l156 -633l374 633h291l-569 -863l-101 -571h-249l98 567z" />
<glyph unicode="Z" horiz-adv-x="1085" d="M-43 0l35 203l784 1005h-571l39 226h899l-35 -201l-786 -1010h620l-39 -223h-946z" />
<glyph unicode="[" horiz-adv-x="645" d="M-20 -295l356 2013h452l-26 -157h-203l-301 -1698h203l-27 -158h-454z" />
<glyph unicode="\" horiz-adv-x="796" d="M211 1618h174l233 -1802h-172z" />
<glyph unicode="]" horiz-adv-x="645" d="M-109 -293l27 158h203l301 1698h-203l27 157h454l-356 -2013h-453z" />
<glyph unicode="^" horiz-adv-x="1105" d="M131 684l444 750h250l181 -750h-244l-90 516l-269 -516h-272z" />
<glyph unicode="_" horiz-adv-x="1218" d="M-53 -338l33 182h987l-31 -182h-989z" />
<glyph unicode="`" horiz-adv-x="405" d="M236 1493h262l161 -276h-186z" />
<glyph unicode="a" horiz-adv-x="1083" d="M55 336q0 198 53 370t157.5 282t238.5 110q46 0 87.5 -13.5t76.5 -39.5t58.5 -48.5t51.5 -54.5l25 133h241l-188 -1075h-242l25 145q-172 -168 -326 -168q-115 0 -186.5 92.5t-71.5 266.5zM303 375q0 -90 29.5 -141.5t85.5 -51.5q66 0 127.5 45t130.5 127l69 389 q-38 67 -88 108.5t-104 41.5q-75 0 -134 -84.5t-87.5 -201t-28.5 -232.5z" />
<glyph unicode="b" horiz-adv-x="1075" d="M12 0l262 1493h242l-96 -541q76 66 149.5 106t157.5 40q122 0 196 -92t74 -269q0 -113 -18.5 -223t-56 -207t-89 -170.5t-123 -116.5t-153.5 -43q-48 0 -90.5 12.5t-78 37t-59.5 46.5t-53 54l-22 -127h-242zM311 326q85 -142 195 -142q73 0 130.5 83t85.5 198.5t28 232.5 q0 91 -31.5 143t-95.5 52q-107 0 -238 -145z" />
<glyph unicode="c" horiz-adv-x="901" d="M53 397q0 167 41.5 304t109.5 221.5t150.5 130t169.5 45.5q42 0 85.5 -8.5t73 -18t70.5 -30.5t58 -31t56 -35.5t44 -28.5l-118 -172q-5 3 -32.5 23t-44 30t-44 25t-53.5 22t-50 7q-111 0 -190.5 -137t-79.5 -322q0 -107 37.5 -167t109.5 -60q27 0 66 13t63 25t71 37.5 t52 28.5l78 -193q-153 -78 -238 -104q-83 -25 -151 -25q-148 0 -241 109t-93 311z" />
<glyph unicode="d" horiz-adv-x="1083" d="M55 336q0 198 53 370t157.5 282t238.5 110q86 0 150.5 -43t125.5 -113l97 551h241l-262 -1493h-242l25 145q-172 -168 -326 -168q-115 0 -186.5 92.5t-71.5 266.5zM303 375q0 -90 29.5 -141.5t85.5 -51.5q66 0 127.5 45t130.5 127l69 389q-84 150 -192 150 q-75 0 -134 -84.5t-87.5 -201t-28.5 -232.5z" />
<glyph unicode="e" horiz-adv-x="980" d="M51 414q0 197 65.5 351.5t190.5 243.5t291 89q153 0 242.5 -78t89.5 -209q0 -99 -40.5 -171t-115.5 -114t-172 -62t-219 -20h-86v-34q0 -114 37.5 -178t116.5 -64q20 0 42 3.5t48 13t44 16t49.5 23t44 23t48.5 26.5t43 24l76 -172q-80 -51 -204.5 -99.5t-244.5 -48.5 q-160 0 -253 109t-93 328zM315 590h78q150 0 231 56.5t81 150.5q0 55 -33.5 85.5t-89.5 30.5q-96 0 -166 -91t-101 -232z" />
<glyph unicode="f" horiz-adv-x="665" d="M-178 -262q54 20 88 35t61.5 36t41 37t26.5 51t19 63t16 87l145 840h-117l35 188h115l16 86q30 172 96 252t189 80q138 0 311 -94l-112 -166q-30 14 -78 27.5t-76 13.5q-66 0 -86 -105l-16 -94h219l-35 -188h-219l-144 -824q-17 -100 -26 -143.5t-30.5 -106.5t-46.5 -90 t-72 -63.5t-110.5 -60.5t-158.5 -50z" />
<glyph unicode="g" horiz-adv-x="1083" d="M-43 -356l82 198q203 -80 346 -80q189 0 221 207l31 174q-170 -166 -324 -166q-115 0 -186.5 92.5t-71.5 266.5q0 198 53 370t157.5 282t238.5 110q86 0 150 -42.5t124 -111.5l23 131h241l-192 -1100q-21 -122 -58.5 -203.5t-95 -127t-126.5 -64t-164 -18.5 q-213 0 -449 82zM303 375q0 -90 29.5 -141.5t85.5 -51.5q113 0 256 168l69 395q-38 67 -87 107.5t-103 40.5q-75 0 -134 -84.5t-87.5 -201t-28.5 -232.5z" />
<glyph unicode="h" d="M12 0l262 1493h242l-96 -551q197 156 350 156q134 0 188 -90q35 -58 36 -146q0 -49 -11 -106l-131 -756h-244l127 717q7 50 7 90t-21.5 65t-65.5 25q-62 0 -138 -45.5t-132 -101.5l-131 -750h-242z" />
<glyph unicode="i" horiz-adv-x="483" d="M12 0l189 1075h241l-190 -1075h-240zM225 1249l41 238h256l-43 -238h-254z" />
<glyph unicode="j" horiz-adv-x="483" d="M-231 -258q53 20 88 34.5t61 32.5t39.5 31.5t24.5 39t15.5 45.5t12.5 61l191 1089h243l-190 -1071q-12 -70 -19 -102.5t-21.5 -82.5t-32.5 -73.5t-48.5 -57.5t-73 -54t-102 -43t-139.5 -44zM225 1249l43 238h254l-41 -238h-256z" />
<glyph unicode="k" horiz-adv-x="972" d="M12 0l262 1493h242l-151 -862l346 444h290l-389 -440l246 -635h-246l-161 453l-148 -168l-49 -285h-242z" />
<glyph unicode="l" horiz-adv-x="493" d="M18 0l263 1493h241l-264 -1493h-240z" />
<glyph unicode="m" horiz-adv-x="1585" d="M12 0l189 1075h241l-24 -143q162 166 315 166q97 0 150.5 -51.5t62.5 -139.5q67 75 158 133t186 58q134 0 184 -92q32 -59 33 -144q0 -47 -10 -102l-133 -760h-242l129 725q7 46 7 82v5q0 38 -20.5 61.5t-61.5 23.5q-57 0 -121.5 -47t-118.5 -111l-129 -739h-242l129 725 q8 46 8 82q0 43 -21 67q-20 24 -60 23q-57 0 -121 -46.5t-117 -109.5l-129 -741h-242z" />
<glyph unicode="n" d="M12 0l189 1075h241l-24 -133q197 156 352 156q134 0 188 -90q35 -58 36 -147q0 -49 -11 -107l-131 -754h-244l127 717q8 41 8 73q0 107 -88 107q-61 0 -136.5 -45.5t-133.5 -101.5l-131 -750h-242z" />
<glyph unicode="o" d="M55 401q0 96 18 191.5t58.5 187.5t99 162t146.5 113t194 43q88 0 161.5 -24.5t132 -74t91.5 -133t33 -192.5q0 -96 -18 -191.5t-58.5 -187.5t-98.5 -162t-146 -113t-193 -43q-88 0 -162 24.5t-132.5 74t-92 133t-33.5 192.5zM297 397q0 -111 43 -167t135 -56 q55 0 102 36.5t77.5 92.5t52.5 125t31.5 133t9.5 117q0 223 -179 223q-68 0 -123 -54t-86 -135.5t-47 -164t-16 -150.5z" />
<glyph unicode="p" horiz-adv-x="1077" d="M-61 -418l262 1493h241l-22 -125q165 148 307 148q122 0 197 -92t75 -269q0 -142 -30 -277t-85 -243.5t-140 -174t-187 -65.5q-47 0 -90 13t-78.5 37.5t-60.5 47.5t-52 54l-96 -547h-241zM311 330q85 -146 197 -146q73 0 130.5 83t85.5 198.5t28 232.5q0 91 -32.5 143 t-96.5 52q-60 0 -117.5 -39.5t-122.5 -110.5z" />
<glyph unicode="q" horiz-adv-x="1083" d="M55 336q0 198 53 370t157.5 282t238.5 110q46 0 87.5 -13.5t76.5 -39.5t58.5 -48.5t51.5 -54.5l25 133h241l-264 -1493h-239l98 563q-172 -168 -326 -168q-115 0 -186.5 92.5t-71.5 266.5zM303 375q0 -90 29.5 -141.5t85.5 -51.5q66 0 127.5 45t130.5 127l69 389 q-38 67 -88 108.5t-104 41.5q-75 0 -134 -84.5t-87.5 -201t-28.5 -232.5z" />
<glyph unicode="r" horiz-adv-x="720" d="M12 0l189 1075h241l-41 -225q141 238 341 238q14 0 28 -1l-43 -239q-59 0 -112 -20t-91 -51.5t-70.5 -70.5t-53 -77.5t-35 -70t-21.5 -51.5l-6 -20l-84 -487h-242z" />
<glyph unicode="s" horiz-adv-x="923" d="M-20 129l120 168q74 -49 162 -85t156 -36q62 0 103.5 31t41.5 88q0 14 -2.5 26.5t-10 23.5t-14 19.5t-20.5 17.5t-23 15t-29 15.5t-30.5 14l-35 15t-36.5 15.5q-45 21 -76 38.5t-68 46t-60 59t-38.5 75t-15.5 96.5q0 145 104 235.5t275 90.5q109 0 215.5 -37t184.5 -88 l-117 -166q-63 38 -139.5 66t-137.5 28t-99 -29t-38 -81q0 -18 4.5 -33.5t16.5 -28.5t22 -22.5t31.5 -20.5t33.5 -16.5t40.5 -17.5t40.5 -17q48 -23 82 -42t72 -49t61.5 -61.5t39 -75.5t15.5 -96q0 -150 -107.5 -242t-283.5 -92q-124 0 -239 44.5t-201 107.5z" />
<glyph unicode="t" horiz-adv-x="714" d="M96 887l33 188h121l47 262l250 49l-55 -311h235l-33 -188h-235l-103 -582q-4 -23 -5 -41q0 -65 55 -65q36 0 145 47l55 -197q-176 -72 -291 -72q-123 0 -175 87q-33 55 -33 144q0 54 12 120l98 559h-121z" />
<glyph unicode="u" d="M61 322l134 753h241l-127 -717q-7 -41 -8 -73q0 -109 88 -109q61 0 137 45t133 101l134 753h241l-190 -1075h-242l23 129q-203 -152 -349 -152q-135 0 -190 91q-36 59 -36 148q0 48 11 106z" />
<glyph unicode="v" horiz-adv-x="995" d="M111 1075h249l66 -801l344 801h270l-536 -1075h-238z" />
<glyph unicode="w" horiz-adv-x="1429" d="M123 1075h250l12 -766l311 766h189l37 -766l280 766h260l-458 -1075h-226l-45 729l-305 -729h-225z" />
<glyph unicode="x" horiz-adv-x="1024" d="M-90 0l444 539l-235 536h256l135 -387l272 387h289l-428 -534l256 -541h-262l-143 395l-281 -395h-303z" />
<glyph unicode="y" horiz-adv-x="995" d="M-29 -254q116 47 180 91t115 122l-155 1116h249l70 -774l344 774h264l-526 -1075q-79 -160 -124 -222q-88 -122 -239 -186q-55 -24 -124 -43z" />
<glyph unicode="z" horiz-adv-x="942" d="M-43 0l33 180l610 684h-475l39 211h788l-32 -180l-611 -684h490l-37 -211h-805z" />
<glyph unicode="{" horiz-adv-x="700" d="M47 627l31 172q55 0 95 21.5t61.5 58.5t31.5 75t13 82l14 201q17 244 134.5 362.5t340.5 118.5h72l-27 -153h-33q-208 0 -231 -293l-12 -189q-13 -179 -84.5 -263.5t-208.5 -108.5q117 -31 159 -121t-2 -264l-39 -142q-13 -54 -20 -94.5t-6.5 -86.5t14 -75.5t46.5 -49 t85 -19.5h31l-27 -152h-32q-133 0 -224 56t-126 167t10 275l51 184q35 121 7 179.5t-124 58.5z" />
<glyph unicode="|" horiz-adv-x="460" d="M-12 -252l340 1927h178l-340 -1927h-178z" />
<glyph unicode="}" horiz-adv-x="698" d="M-104 -293l26 154h33q208 0 231 293l13 188q13 179 84.5 264t208.5 109q-117 31 -159.5 121t1.5 264l39 141q13 54 20 94.5t6.5 86.5t-14 76t-46.5 49.5t-85 19.5h-31l27 151h33q133 0 224 -56t126 -166.5t-10 -274.5l-52 -185q-35 -122 -7 -179.5t124 -57.5l-31 -172 q-55 0 -95 -22t-61 -59t-31 -75t-13 -82l-15 -201q-17 -244 -134.5 -362.5t-340.5 -118.5h-71z" />
<glyph unicode="~" horiz-adv-x="1105" d="M31 455q74 141 153 212.5t176 71.5q47 0 92.5 -15.5t81 -37.5t69 -44.5t70.5 -38t72 -15.5q40 0 77.5 29t90.5 114l140 -69q-75 -143 -153.5 -214t-176.5 -71q-56 0 -112.5 24t-94.5 52.5t-86.5 52.5t-91.5 24q-38 0 -75.5 -29.5t-90.5 -113.5z" />
<glyph unicode="&#xa1;" horiz-adv-x="534" d="M12 0l248 981h146l-99 -981h-295zM236 1147l51 287h250l-52 -287h-249z" />
<glyph unicode="&#xa2;" horiz-adv-x="983" d="M104 578q0 134 27.5 250t73.5 197t107 139t128 86t135 28h9l28 156h176l-34 -191q33 -13 69 -32.5t56 -31.5t57.5 -37.5t44.5 -29.5l-119 -170q-9 6 -37.5 26t-54.5 37t-51 29l-113 -633q46 19 164 82l78 -190q-7 -3 -35.5 -17.5t-43 -22t-44 -21t-51.5 -22.5t-51 -19 t-56 -17l-30 -174h-179l29 162q-129 19 -206 126t-77 290zM352 602q0 -157 76 -209l115 645q-84 -44 -137.5 -166t-53.5 -270z" />
<glyph unicode="&#xa3;" horiz-adv-x="999" d="M-8 0l33 180q8 5 22.5 14.5t53.5 42t71.5 68.5t65.5 93.5t47 117.5h-183l29 160h158q-5 37 -38.5 162.5t-33.5 210.5q0 186 103.5 296.5t283.5 110.5q70 0 135.5 -16.5t123 -47.5t93.5 -56t80 -60l-133 -158q-150 117 -258 117q-82 0 -132 -57t-50 -146q0 -61 32.5 -173 t36.5 -183h269l-27 -160h-256q-23 -98 -74.5 -177t-97.5 -120h483l-36 -219h-801z" />
<glyph unicode="&#xa5;" horiz-adv-x="1200" d="M117 311l28 156h301l19 100l-8 25h-289l27 156h215l-211 686h266l156 -633l374 633h291l-455 -686h218l-29 -156h-291l-12 -21l-19 -104h301l-30 -156h-299l-54 -311h-249l53 311h-303z" />
<glyph unicode="&#xa6;" horiz-adv-x="462" d="M-12 -252l149 846h178l-149 -846h-178zM180 829l148 846h178l-148 -846h-178z" />
<glyph unicode="&#xa7;" horiz-adv-x="1005" d="M23 -23l116 166q163 -94 279 -94q61 0 99 29.5t38 81.5q0 21 -8.5 39.5t-18 30t-34 25.5t-37 20t-48 20.5t-47.5 19.5q-125 54 -196.5 128t-71.5 188q0 99 57 172.5t158 107.5q-92 85 -92 215q0 146 105 238t274 92q109 0 216 -37t185 -88l-118 -166q-63 38 -140 66.5 t-137 28.5q-61 0 -99 -29.5t-38 -81.5q0 -18 4.5 -33.5t16.5 -28.5t22 -22t32 -20.5t34.5 -17t41.5 -17.5t41 -17q125 -54 196 -127.5t71 -187.5q0 -100 -57 -173.5t-158 -109.5q94 -84 94 -213q0 -144 -104.5 -236.5t-274.5 -92.5q-110 0 -216.5 37t-184.5 87zM330 672 q0 -14 3 -26t6.5 -22t12.5 -20t15.5 -17t21 -16.5t23 -14.5t29 -14.5t30.5 -14t35 -15.5t37 -16q68 12 106.5 49.5t38.5 91.5q0 17 -4.5 31.5t-10 25.5t-20 23t-23.5 19t-32 19t-34.5 17t-42.5 19t-44 20q-69 -10 -108 -47.5t-39 -91.5z" />
<glyph unicode="&#xa8;" horiz-adv-x="425" d="M174 1237l41 225h197l-39 -225h-199zM485 1237l41 225h197l-39 -225h-199z" />
<glyph unicode="&#xa9;" horiz-adv-x="1640" d="M109 641q0 131 32.5 251.5t98 223t158 178.5t219 119t274.5 43q206 0 360.5 -84.5t235 -234.5t80.5 -344q0 -131 -32.5 -251.5t-98.5 -223.5t-158.5 -179t-220 -119t-275.5 -43q-309 0 -491 184t-182 480zM186 643q0 -262 162.5 -426t442.5 -164q161 0 294 58.5 t220.5 159.5t135.5 234.5t48 285.5q0 261 -161.5 425t-442.5 164q-129 0 -240.5 -38t-195 -106t-143.5 -160t-90 -202.5t-30 -230.5zM459 618q-5 127 26.5 231t89.5 171.5t134.5 104t162.5 36.5q54 0 104.5 -12.5t94.5 -37t69.5 -42.5t59.5 -45l-59 -63q-131 116 -269 116 q-140 0 -232 -129t-85 -323q5 -126 57.5 -198.5t141.5 -72.5q148 0 311 113l49 -70q-53 -35 -95 -58t-115 -46t-144 -23q-126 0 -210.5 91.5t-90.5 256.5z" />
<glyph unicode="&#xaa;" horiz-adv-x="770" d="M162 997q0 116 32.5 217.5t97.5 167.5t150 66q38 0 73 -16t53.5 -32t43.5 -42l15 76h168l-115 -646h-168l14 80q-107 -94 -200 -94q-73 0 -118.5 58t-45.5 165zM332 1022q0 -50 17.5 -77t49.5 -27q69 0 152 90l39 219q-50 78 -113 78q-64 0 -104.5 -91t-40.5 -192z" />
<glyph unicode="&#xab;" horiz-adv-x="1171" d="M37 483l29 156l583 440l-49 -274l-364 -260l274 -260l-43 -244zM539 483l28 156l584 440l-49 -274l-365 -260l275 -260l-43 -244z" />
<glyph unicode="&#xac;" horiz-adv-x="1105" d="M47 586l35 192h979l-105 -594h-202l69 402h-776z" />
<glyph unicode="&#xad;" horiz-adv-x="763" d="M92 479l37 207h528l-34 -207h-531z" />
<glyph unicode="&#xae;" horiz-adv-x="903" d="M158 1069q0 81 26 154t74.5 129.5t123.5 89.5t167 33q154 0 245 -92t91 -240q0 -110 -43.5 -200.5t-134 -148t-211.5 -57.5q-155 0 -246.5 92t-91.5 240zM225 1071q0 -118 74 -193t201 -75q147 0 234 97t87 241q0 118 -75.5 193t-202.5 75q-146 0 -232 -97.5t-86 -240.5z M354 926l66 370h164q52 0 82 -27.5t30 -68.5q0 -48 -31 -77.5t-83 -37.5l61 -159h-68l-57 157h-69l-27 -157h-68zM459 1143h92q40 0 60 15.5t20 41.5q0 37 -49 37h-107z" />
<glyph unicode="&#xaf;" horiz-adv-x="520" d="M229 1268l29 153h512l-27 -153h-514z" />
<glyph unicode="&#xb0;" horiz-adv-x="800" d="M154 1112q0 134 95 229t228 95t228.5 -95t95.5 -229q0 -135 -95 -230.5t-229 -95.5t-228.5 95.5t-94.5 230.5zM303 1112q0 -70 51.5 -122t122.5 -52q70 0 121 51.5t51 122.5q0 70 -50.5 121t-121.5 51t-122.5 -51t-51.5 -121z" />
<glyph unicode="&#xb1;" horiz-adv-x="1105" d="M16 0l31 170h856l-31 -170h-856zM123 608l35 195h329l52 291h194l-51 -291h332l-33 -195h-334l-49 -291h-197l52 291h-330z" />
<glyph unicode="&#xb2;" horiz-adv-x="698" d="M88 788l14 84q9 54 32 102.5t46 80t67 70.5t67.5 56t76.5 54q54 35 83 55.5t61.5 48t46.5 51t14 48.5q0 33 -23 52t-65 19q-81 0 -203 -73l-65 125q152 102 295 102q114 0 175.5 -58.5t61.5 -150.5q0 -41 -12 -79.5t-38.5 -73t-49.5 -59t-64.5 -55t-61.5 -43.5t-63 -40 q-78 -49 -112 -84.5t-43 -79.5h354l-27 -152h-567z" />
<glyph unicode="&#xb3;" horiz-adv-x="700" d="M88 893l94 115q60 -40 107 -60t98 -20q66 0 107 35.5t41 91.5q0 41 -29 68.5t-68.5 37.5t-87.5 10h-28l24 152h37q70 0 129 33t59 86q0 31 -20.5 49t-58.5 18q-85 0 -197 -67l-57 123q153 98 292 98q107 0 164.5 -52t57.5 -132q0 -71 -46 -129.5t-124 -92.5 q58 -24 92.5 -76.5t34.5 -123.5q0 -51 -18 -99t-53.5 -90.5t-97.5 -68t-141 -25.5q-165 0 -311 119z" />
<glyph unicode="&#xb4;" horiz-adv-x="407" d="M174 1217l252 276h291l-332 -276h-211z" />
<glyph unicode="&#xb5;" horiz-adv-x="1126" d="M-43 -418l266 1493h242l-127 -717q-33 -182 80 -182q61 0 137 45t133 101l133 753h242l-191 -1075h-241l22 129q-203 -152 -348 -152l-37 3l-69 -398h-242z" />
<glyph unicode="&#xb6;" horiz-adv-x="1226" d="M113 866q0 248 148.5 408t389.5 160h211l-319 -1813h-203l152 864q-172 0 -275.5 98.5t-103.5 282.5zM686 -379l322 1813h202l-319 -1813h-205z" />
<glyph unicode="&#xb7;" horiz-adv-x="485" d="M84 430l53 307h250l-53 -307h-250z" />
<glyph unicode="&#xb8;" horiz-adv-x="305" d="M-72 -326l72 131q37 -24 80 -24q39 0 65.5 24.5t26.5 81.5q0 24 -6 53.5t-12 46.5l-7 17h107q39 -68 39 -154q0 -103 -61 -160t-154 -57q-89 0 -150 41z" />
<glyph unicode="&#xb9;" horiz-adv-x="557" d="M176 1520l227 129h164l-151 -861h-174l123 678l-129 -67z" />
<glyph unicode="&#xba;" horiz-adv-x="745" d="M158 1036q0 57 11 113t36.5 110.5t62 96t93 67t124.5 25.5q118 0 194.5 -65t76.5 -197q0 -57 -11 -113t-36.5 -110.5t-62.5 -96t-93.5 -67t-124.5 -25.5q-118 0 -194 65t-76 197zM326 1032q0 -61 24.5 -91t79.5 -30q41 0 73 30t49.5 75.5t26.5 90.5t9 83q0 121 -105 121 q-40 0 -72 -30t-49.5 -75.5t-26.5 -90.5t-9 -83z" />
<glyph unicode="&#xbb;" horiz-adv-x="1173" d="M2 43l49 274l365 261l-275 260l43 243l430 -442l-28 -156zM506 43l49 274l365 261l-275 260l43 243l430 -442l-28 -156z" />
<glyph unicode="&#xbc;" horiz-adv-x="1503" d="M166 1305l227 129h164l-151 -861h-175l123 678l-129 -67zM205 0l799 1434h184l-799 -1434h-184zM684 166l23 129l428 565h231l-96 -543h110l-26 -151h-111l-29 -166h-174l29 166h-385zM885 317h211l65 371z" />
<glyph unicode="&#xbd;" horiz-adv-x="1540" d="M166 1305l227 129h164l-151 -861h-175l123 678l-129 -67zM205 0l799 1434h184l-799 -1434h-184zM774 0l14 84q6 39 20 75t28 62.5t41 57t43 47t52.5 44.5t50.5 38t54 38q54 35 83 55.5t61.5 48t46.5 51t14 48.5q0 33 -23 52.5t-65 19.5q-80 0 -203 -74l-65 125 q152 102 295 102q114 0 175.5 -58t61.5 -150q0 -41 -12 -79.5t-38.5 -73t-49.5 -59.5t-64 -55t-62 -44t-63 -40q-78 -49 -112 -84t-43 -79h354l-27 -152h-567z" />
<glyph unicode="&#xbe;" horiz-adv-x="1675" d="M78 678l94 115q60 -40 107 -60t98 -20q66 0 106.5 35.5t40.5 91.5q0 61 -54 88.5t-130 27.5h-29l25 152h37q70 0 129 33t59 86q0 31 -21 49t-59 18q-84 0 -196 -67l-58 123q153 98 293 98q107 0 164 -52t57 -132q0 -71 -46 -129.5t-124 -92.5q58 -24 92.5 -76.5 t34.5 -123.5q0 -51 -18 -99t-53 -90.5t-97 -68t-141 -25.5q-165 0 -311 119zM381 0l799 1434h184l-799 -1434h-184zM860 166l23 129l428 565h231l-96 -543h110l-26 -151h-111l-28 -166h-174l28 166h-385zM1061 317h211l65 371z" />
<glyph unicode="&#xbf;" horiz-adv-x="917" d="M20 293q0 79 30.5 149.5t77.5 120.5t110.5 91t123 66t121.5 42l52 219h153l-47 -360q-172 -46 -267 -115.5t-95 -173.5q0 -63 38 -98t107 -35q63 0 127 27.5t141 74.5l92 -180q-209 -144 -413 -144q-157 0 -254 84t-97 232zM514 1147l51 287h250l-51 -287h-250z" />
<glyph unicode="&#xc0;" horiz-adv-x="1206" d="M-76 0l688 1434h277l184 -1434h-264l-25 305h-448l-131 -305h-281zM426 516h342l-53 672zM508 1802h262l162 -276h-187z" />
<glyph unicode="&#xc1;" horiz-adv-x="1206" d="M-76 0l688 1434h277l184 -1434h-264l-25 305h-448l-131 -305h-281zM426 516h342l-53 672zM604 1526l252 276h291l-332 -276h-211z" />
<glyph unicode="&#xc2;" horiz-adv-x="1206" d="M-76 0l688 1434h277l184 -1434h-264l-25 305h-448l-131 -305h-281zM426 516h342l-53 672zM475 1526l225 276h236l125 -276h-154l-100 160l-154 -160h-178z" />
<glyph unicode="&#xc3;" horiz-adv-x="1206" d="M-76 0l688 1434h277l184 -1434h-264l-25 305h-448l-131 -305h-281zM426 516h342l-53 672zM481 1610q32 51 48.5 74.5t44 53.5t55 42t61.5 12q38 0 79 -24.5t74.5 -49t55.5 -24.5q20 0 43.5 19t61.5 77l98 -74q-28 -46 -47 -73t-45 -54.5t-54.5 -40t-62.5 -12.5 q-38 0 -78.5 24.5t-74 49t-56.5 24.5q-41 0 -104 -96z" />
<glyph unicode="&#xc4;" horiz-adv-x="1206" d="M-76 0l688 1434h277l184 -1434h-264l-25 305h-448l-131 -305h-281zM426 516h342l-53 672zM516 1546l41 226h197l-39 -226h-199zM827 1546l41 226h197l-39 -226h-199z" />
<glyph unicode="&#xc5;" horiz-adv-x="1208" d="M-76 0l688 1434h277l184 -1434h-264l-25 305h-448l-131 -305h-281zM426 516h342l-53 672zM590 1714q0 88 60.5 149.5t148.5 61.5t148.5 -61.5t60.5 -149.5t-60.5 -148.5t-148.5 -60.5t-148.5 60.5t-60.5 148.5zM709 1714q0 -37 26.5 -62.5t63.5 -25.5t63.5 25.5 t26.5 62.5t-26.5 63.5t-63.5 26.5t-63.5 -26.5t-26.5 -63.5z" />
<glyph unicode="&#xc6;" horiz-adv-x="1787" d="M-139 0l1040 1434h936l-39 -226h-567l-68 -381h465l-39 -221h-465l-67 -383h577l-39 -223h-829l53 305h-426l-213 -305h-319zM545 522h313l107 604z" />
<glyph unicode="&#xc7;" horiz-adv-x="1128" d="M96 520q0 188 44 358.5t122 298.5t193.5 203.5t251.5 75.5q57 0 115 -13.5t100.5 -31t97 -51.5t84.5 -55.5t82 -61.5l-139 -182q-97 78 -173 118t-147 40q-106 0 -193.5 -101.5t-133.5 -258t-46 -327.5q0 -317 187 -317q124 0 360 154l105 -205q-133 -76 -243.5 -123 t-217.5 -59q28 -58 28 -132q0 -103 -61 -160t-154 -57q-88 0 -149 41l72 131q37 -24 79 -24q39 0 66 25t27 81q0 44 -17 93q-162 15 -251 153t-89 387z" />
<glyph unicode="&#xc8;" horiz-adv-x="1060" d="M39 0l254 1434h817l-39 -226h-567l-68 -381h465l-39 -221h-465l-67 -383h577l-39 -223h-829zM465 1802h262l162 -276h-187z" />
<glyph unicode="&#xc9;" horiz-adv-x="1060" d="M39 0l254 1434h817l-39 -226h-567l-68 -381h465l-39 -221h-465l-67 -383h577l-39 -223h-829zM549 1526l252 276h291l-332 -276h-211z" />
<glyph unicode="&#xca;" horiz-adv-x="1060" d="M39 0l254 1434h817l-39 -226h-567l-68 -381h465l-39 -221h-465l-67 -383h577l-39 -223h-829zM430 1526l225 276h236l125 -276h-154l-100 160l-154 -160h-178z" />
<glyph unicode="&#xcb;" horiz-adv-x="1060" d="M39 0l254 1434h817l-39 -226h-567l-68 -381h465l-39 -221h-465l-67 -383h577l-39 -223h-829zM473 1546l41 226h197l-39 -226h-199zM784 1546l41 226h197l-39 -226h-199z" />
<glyph unicode="&#xcc;" horiz-adv-x="548" d="M39 0l254 1434h250l-252 -1434h-252zM176 1802h262l162 -276h-186z" />
<glyph unicode="&#xcd;" horiz-adv-x="546" d="M39 0l254 1434h250l-252 -1434h-252zM260 1526l252 276h291l-332 -276h-211z" />
<glyph unicode="&#xce;" horiz-adv-x="546" d="M39 0l254 1434h250l-252 -1434h-252zM139 1526l226 276h235l125 -276h-154l-100 160l-154 -160h-178z" />
<glyph unicode="&#xcf;" horiz-adv-x="546" d="M39 0l254 1434h250l-252 -1434h-252zM184 1546l41 226h197l-39 -226h-199zM496 1546l41 226h196l-39 -226h-198z" />
<glyph unicode="&#xd0;" horiz-adv-x="1271" d="M43 614l37 207h123l108 613h318q291 0 435 -141.5t144 -399.5q0 -121 -23 -240t-79 -238.5t-138.5 -210t-214 -147.5t-294.5 -57h-402l109 614h-123zM348 223h103q118 0 214.5 53t159 144t96 209.5t33.5 253.5q0 173 -86.5 249t-255.5 76h-90l-67 -387h243l-36 -207h-244 z" />
<glyph unicode="&#xd1;" horiz-adv-x="1286" d="M39 0l254 1434h252l307 -1020l178 1020h252l-252 -1434h-254l-307 1020l-178 -1020h-252zM526 1610q32 51 48.5 74.5t44 53.5t55 42t61.5 12q38 0 79 -24.5t74.5 -49t55.5 -24.5q20 0 43.5 19t61.5 77l98 -74q-28 -46 -47 -73t-45 -54.5t-54.5 -40t-62.5 -12.5 q-38 0 -78.5 24.5t-74 49t-56.5 24.5q-41 0 -104 -96z" />
<glyph unicode="&#xd2;" horiz-adv-x="1320" d="M96 522q0 73 10.5 154.5t34.5 173t59 177t89 164.5t119.5 137t154.5 93t191 35q242 0 374 -137.5t132 -405.5q0 -73 -10.5 -154.5t-34.5 -173.5t-59 -177.5t-89 -164.5t-119.5 -137.5t-154.5 -93.5t-191 -35q-242 0 -374 138t-132 407zM352 524q0 -151 59.5 -236 t198.5 -85q62 0 116 30.5t92.5 80t70.5 114.5t52.5 132.5t34 135.5t19.5 121t6 92q0 152 -58.5 237t-197.5 85q-85 0 -155 -58t-113 -142.5t-72.5 -185.5t-41 -182.5t-11.5 -138.5zM563 1802h262l162 -276h-186z" />
<glyph unicode="&#xd3;" horiz-adv-x="1320" d="M96 522q0 73 10.5 154.5t34.5 173t59 177t89 164.5t119.5 137t154.5 93t191 35q242 0 374 -137.5t132 -405.5q0 -73 -10.5 -154.5t-34.5 -173.5t-59 -177.5t-89 -164.5t-119.5 -137.5t-154.5 -93.5t-191 -35q-242 0 -374 138t-132 407zM352 524q0 -151 59.5 -236 t198.5 -85q62 0 116 30.5t92.5 80t70.5 114.5t52.5 132.5t34 135.5t19.5 121t6 92q0 152 -58.5 237t-197.5 85q-85 0 -155 -58t-113 -142.5t-72.5 -185.5t-41 -182.5t-11.5 -138.5zM645 1526l252 276h291l-332 -276h-211z" />
<glyph unicode="&#xd4;" horiz-adv-x="1320" d="M96 522q0 73 10.5 154.5t34.5 173t59 177t89 164.5t119.5 137t154.5 93t191 35q242 0 374 -137.5t132 -405.5q0 -73 -10.5 -154.5t-34.5 -173.5t-59 -177.5t-89 -164.5t-119.5 -137.5t-154.5 -93.5t-191 -35q-242 0 -374 138t-132 407zM352 524q0 -151 59.5 -236 t198.5 -85q62 0 116 30.5t92.5 80t70.5 114.5t52.5 132.5t34 135.5t19.5 121t6 92q0 152 -58.5 237t-197.5 85q-85 0 -155 -58t-113 -142.5t-72.5 -185.5t-41 -182.5t-11.5 -138.5zM528 1526l226 276h235l125 -276h-153l-101 160l-153 -160h-179z" />
<glyph unicode="&#xd5;" horiz-adv-x="1320" d="M96 522q0 73 10.5 154.5t34.5 173t59 177t89 164.5t119.5 137t154.5 93t191 35q242 0 374 -137.5t132 -405.5q0 -73 -10.5 -154.5t-34.5 -173.5t-59 -177.5t-89 -164.5t-119.5 -137.5t-154.5 -93.5t-191 -35q-242 0 -374 138t-132 407zM352 524q0 -151 59.5 -236 t198.5 -85q62 0 116 30.5t92.5 80t70.5 114.5t52.5 132.5t34 135.5t19.5 121t6 92q0 152 -58.5 237t-197.5 85q-85 0 -155 -58t-113 -142.5t-72.5 -185.5t-41 -182.5t-11.5 -138.5zM532 1610q32 51 48.5 74.5t44 53.5t55 42t61.5 12q38 0 79 -24.5t74.5 -49t55.5 -24.5 q20 0 43.5 19t61.5 77l98 -74q-28 -46 -47 -73t-45 -54.5t-54.5 -40t-62.5 -12.5q-38 0 -78.5 24.5t-74 49t-56.5 24.5q-41 0 -104 -96z" />
<glyph unicode="&#xd6;" horiz-adv-x="1320" d="M96 522q0 73 10.5 154.5t34.5 173t59 177t89 164.5t119.5 137t154.5 93t191 35q242 0 374 -137.5t132 -405.5q0 -73 -10.5 -154.5t-34.5 -173.5t-59 -177.5t-89 -164.5t-119.5 -137.5t-154.5 -93.5t-191 -35q-242 0 -374 138t-132 407zM352 524q0 -151 59.5 -236 t198.5 -85q62 0 116 30.5t92.5 80t70.5 114.5t52.5 132.5t34 135.5t19.5 121t6 92q0 152 -58.5 237t-197.5 85q-85 0 -155 -58t-113 -142.5t-72.5 -185.5t-41 -182.5t-11.5 -138.5zM571 1546l41 226h197l-39 -226h-199zM883 1546l41 226h196l-39 -226h-198z" />
<glyph unicode="&#xd7;" horiz-adv-x="1116" d="M145 424l295 274l-196 275l157 112l183 -254l278 259l131 -140l-297 -274l199 -275l-158 -112l-184 254l-277 -258z" />
<glyph unicode="&#xd8;" horiz-adv-x="1320" d="M10 0l158 197q-72 129 -72 325q0 73 10.5 154.5t34.5 173t59 177t89 164.5t119.5 137t154.5 93t191 35q215 0 342 -106l67 84h180l-157 -197q74 -132 74 -324q0 -73 -10.5 -154.5t-34.5 -173.5t-59 -177.5t-89 -164.5t-119.5 -137.5t-154.5 -93.5t-191 -35 q-216 0 -344 107l-68 -84h-180zM352 524q0 -49 6 -92l580 721q-65 78 -193 78q-85 0 -155 -58t-113 -142.5t-72.5 -185.5t-41 -182.5t-11.5 -138.5zM416 281q65 -78 194 -78q62 0 116 30.5t92.5 80t70.5 114.5t52.5 132.5t34 135.5t19.5 121t6 92q0 48 -6 92z" />
<glyph unicode="&#xd9;" horiz-adv-x="1239" d="M100.5 361q0.5 80 18.5 180l157 893h252l-166 -932q-9 -54 -11.5 -95t5.5 -81t28 -65.5t59 -41.5t96 -16q70 0 122 22.5t85 65.5t52 93.5t31 117.5l166 932h252l-166 -932q-16 -93 -40.5 -167t-67.5 -143t-102 -114.5t-146 -73t-197 -27.5q-120 0 -205 29t-132.5 78 t-69 123t-21 154zM520 1802h262l162 -276h-186z" />
<glyph unicode="&#xda;" horiz-adv-x="1239" d="M100.5 361q0.5 80 18.5 180l157 893h252l-166 -932q-9 -54 -11.5 -95t5.5 -81t28 -65.5t59 -41.5t96 -16q70 0 122 22.5t85 65.5t52 93.5t31 117.5l166 932h252l-166 -932q-16 -93 -40.5 -167t-67.5 -143t-102 -114.5t-146 -73t-197 -27.5q-120 0 -205 29t-132.5 78 t-69 123t-21 154zM602 1526l252 276h291l-332 -276h-211z" />
<glyph unicode="&#xdb;" horiz-adv-x="1239" d="M100.5 361q0.5 80 18.5 180l157 893h252l-166 -932q-9 -54 -11.5 -95t5.5 -81t28 -65.5t59 -41.5t96 -16q70 0 122 22.5t85 65.5t52 93.5t31 117.5l166 932h252l-166 -932q-16 -93 -40.5 -167t-67.5 -143t-102 -114.5t-146 -73t-197 -27.5q-120 0 -205 29t-132.5 78 t-69 123t-21 154zM483 1526l226 276h235l125 -276h-154l-100 160l-153 -160h-179z" />
<glyph unicode="&#xdc;" horiz-adv-x="1239" d="M100.5 361q0.5 80 18.5 180l157 893h252l-166 -932q-9 -54 -11.5 -95t5.5 -81t28 -65.5t59 -41.5t96 -16q70 0 122 22.5t85 65.5t52 93.5t31 117.5l166 932h252l-166 -932q-16 -93 -40.5 -167t-67.5 -143t-102 -114.5t-146 -73t-197 -27.5q-120 0 -205 29t-132.5 78 t-69 123t-21 154zM528 1546l41 226h197l-39 -226h-199zM840 1546l41 226h196l-39 -226h-198z" />
<glyph unicode="&#xdd;" horiz-adv-x="1122" d="M158 1434h266l156 -633l374 633h291l-569 -863l-101 -571h-249l98 567zM543 1526l252 276h290l-331 -276h-211z" />
<glyph unicode="&#xde;" horiz-adv-x="1167" d="M39 0l254 1434h250l-41 -240h170q456 0 456 -373q0 -117 -36.5 -214.5t-106 -169.5t-177.5 -112t-243 -40h-223l-51 -285h-252zM379 504h182q142 0 225.5 78t83.5 217q0 176 -213 176h-194z" />
<glyph unicode="&#xdf;" horiz-adv-x="1208" d="M12 0l174 993q43 252 167.5 378t357.5 126q207 0 313 -91t106 -232q0 -44 -10.5 -84.5t-25 -67t-29 -47t-25.5 -29.5l-10 -10q-194 -62 -194 -170q0 -34 16 -57.5t64.5 -67.5t78.5 -76q111 -121 111 -250q0 -147 -106 -242.5t-265 -95.5q-165 0 -360 119l121 168 q49 -33 112 -58.5t115 -25.5q58 0 97.5 34t39.5 91q0 68 -82 141q-9 8 -34.5 29.5t-41 35.5t-38.5 40t-35.5 50.5t-22.5 60.5t-10 75q0 56 19.5 105t47 81.5t69 62t74 45.5t73.5 32q16 40 16 84q0 73 -46.5 114.5t-139.5 41.5q-112 0 -182 -73t-101 -251l-172 -979h-242z " />
<glyph unicode="&#xe0;" horiz-adv-x="1083" d="M55 336q0 198 53 370t157.5 282t238.5 110q46 0 87.5 -13.5t76.5 -39.5t58.5 -48.5t51.5 -54.5l25 133h241l-188 -1075h-242l25 145q-172 -168 -326 -168q-115 0 -186.5 92.5t-71.5 266.5zM303 375q0 -90 29.5 -141.5t85.5 -51.5q66 0 127.5 45t130.5 127l69 389 q-38 67 -88 108.5t-104 41.5q-75 0 -134 -84.5t-87.5 -201t-28.5 -232.5zM412 1493h262l162 -276h-187z" />
<glyph unicode="&#xe1;" d="M55 336q0 198 53 370t157.5 282t238.5 110q46 0 87.5 -13.5t76.5 -39.5t58.5 -48.5t51.5 -54.5l25 133h241l-188 -1075h-242l25 145q-172 -168 -326 -168q-115 0 -186.5 92.5t-71.5 266.5zM303 375q0 -90 29.5 -141.5t85.5 -51.5q66 0 127.5 45t130.5 127l69 389 q-38 67 -88 108.5t-104 41.5q-75 0 -134 -84.5t-87.5 -201t-28.5 -232.5zM473 1217l252 276h291l-332 -276h-211z" />
<glyph unicode="&#xe2;" horiz-adv-x="1083" d="M55 336q0 198 53 370t157.5 282t238.5 110q46 0 87.5 -13.5t76.5 -39.5t58.5 -48.5t51.5 -54.5l25 133h241l-188 -1075h-242l25 145q-172 -168 -326 -168q-115 0 -186.5 92.5t-71.5 266.5zM303 375q0 -90 29.5 -141.5t85.5 -51.5q66 0 127.5 45t130.5 127l69 389 q-38 67 -88 108.5t-104 41.5q-75 0 -134 -84.5t-87.5 -201t-28.5 -232.5zM377 1217l225 276h236l125 -276h-154l-100 159l-154 -159h-178z" />
<glyph unicode="&#xe3;" horiz-adv-x="1083" d="M55 336q0 198 53 370t157.5 282t238.5 110q46 0 87.5 -13.5t76.5 -39.5t58.5 -48.5t51.5 -54.5l25 133h241l-188 -1075h-242l25 145q-172 -168 -326 -168q-115 0 -186.5 92.5t-71.5 266.5zM303 375q0 -90 29.5 -141.5t85.5 -51.5q66 0 127.5 45t130.5 127l69 389 q-38 67 -88 108.5t-104 41.5q-75 0 -134 -84.5t-87.5 -201t-28.5 -232.5zM387 1300q33 52 49 75t43.5 53.5t55 42.5t61.5 12q30 0 62.5 -15.5t55 -34t48 -34t43.5 -15.5q20 0 43 19.5t61 77.5l99 -74q-28 -46 -47 -73t-45 -54.5t-54.5 -40t-62.5 -12.5q-38 0 -78.5 24.5 t-74 49t-56.5 24.5q-42 0 -105 -96z" />
<glyph unicode="&#xe4;" horiz-adv-x="1083" d="M55 336q0 198 53 370t157.5 282t238.5 110q46 0 87.5 -13.5t76.5 -39.5t58.5 -48.5t51.5 -54.5l25 133h241l-188 -1075h-242l25 145q-172 -168 -326 -168q-115 0 -186.5 92.5t-71.5 266.5zM303 375q0 -90 29.5 -141.5t85.5 -51.5q66 0 127.5 45t130.5 127l69 389 q-38 67 -88 108.5t-104 41.5q-75 0 -134 -84.5t-87.5 -201t-28.5 -232.5zM430 1237l41 225h197l-39 -225h-199zM741 1237l41 225h197l-39 -225h-199z" />
<glyph unicode="&#xe5;" horiz-adv-x="1083" d="M55 336q0 198 53 370t157.5 282t238.5 110q46 0 87.5 -13.5t76.5 -39.5t58.5 -48.5t51.5 -54.5l25 133h241l-188 -1075h-242l25 145q-172 -168 -326 -168q-115 0 -186.5 92.5t-71.5 266.5zM303 375q0 -90 29.5 -141.5t85.5 -51.5q66 0 127.5 45t130.5 127l69 389 q-38 67 -88 108.5t-104 41.5q-75 0 -134 -84.5t-87.5 -201t-28.5 -232.5zM500 1405q0 88 60.5 149.5t148.5 61.5t148.5 -61.5t60.5 -149.5t-60.5 -148.5t-148.5 -60.5t-148.5 60.5t-60.5 148.5zM618 1405q0 -36 27 -62t64 -26t63.5 25.5t26.5 62.5t-26.5 63.5t-63.5 26.5 t-64 -26.5t-27 -63.5z" />
<glyph unicode="&#xe6;" horiz-adv-x="1613" d="M55 336q0 198 53 370t157.5 282t238.5 110q46 0 87.5 -13.5t76.5 -39.5t58.5 -48.5t51.5 -54.5l25 133h241l-2 -12q84 35 187 35q153 0 242.5 -78t89.5 -209q0 -99 -40.5 -171t-115.5 -114t-172 -62t-219 -20h-86v-34q0 -242 153 -242q20 0 41.5 3.5t48.5 13.5t44 16 t50.5 23t44 22.5t49 27t42.5 23.5l76 -172q-80 -51 -204.5 -99.5t-244.5 -48.5q-96 0 -172 39l-2 -16h-242l25 143q-170 -166 -324 -166q-115 0 -186.5 92.5t-71.5 266.5zM303 375q0 -90 29.5 -141.5t85.5 -51.5q65 0 126 44.5t130 125.5l8 45v17q0 189 59 334 q-37 65 -86 105t-102 40q-75 0 -134 -84.5t-87.5 -201t-28.5 -232.5zM946 590h78q150 0 230.5 56.5t80.5 150.5q0 55 -33.5 85.5t-89.5 30.5q-96 0 -165.5 -91t-100.5 -232z" />
<glyph unicode="&#xe7;" horiz-adv-x="901" d="M53 397q0 167 41.5 304t109.5 221.5t150.5 130t169.5 45.5q42 0 85.5 -8.5t73 -18t70.5 -30.5t58 -31t56 -35.5t44 -28.5l-118 -172q-5 3 -32.5 23t-44 30t-44 25t-53.5 22t-50 7q-111 0 -190.5 -137t-79.5 -322q0 -107 37.5 -167t109.5 -60q27 0 66 13t63 25t71 37.5 t52 28.5l78 -193q-63 -33 -102 -52t-114.5 -44t-137.5 -30q27 -73 27 -130q0 -103 -61 -160t-155 -57q-88 0 -149 41l72 131q37 -24 80 -24q39 0 65.5 24.5t26.5 81.5q0 44 -19 99q-117 26 -186.5 131.5t-69.5 279.5z" />
<glyph unicode="&#xe8;" horiz-adv-x="980" d="M51 414q0 197 65.5 351.5t190.5 243.5t291 89q153 0 242.5 -78t89.5 -209q0 -99 -40.5 -171t-115.5 -114t-172 -62t-219 -20h-86v-34q0 -114 37.5 -178t116.5 -64q20 0 42 3.5t48 13t44 16t49.5 23t44 23t48.5 26.5t43 24l76 -172q-80 -51 -204.5 -99.5t-244.5 -48.5 q-160 0 -253 109t-93 328zM315 590h78q150 0 231 56.5t81 150.5q0 55 -33.5 85.5t-89.5 30.5q-96 0 -166 -91t-101 -232zM371 1493h262l162 -276h-187z" />
<glyph unicode="&#xe9;" horiz-adv-x="983" d="M51 414q0 197 65.5 351.5t190.5 243.5t291 89q153 0 242.5 -78t89.5 -209q0 -99 -40.5 -171t-115.5 -114t-172 -62t-219 -20h-86v-34q0 -114 37.5 -178t116.5 -64q20 0 42 3.5t48 13t44 16t49.5 23t44 23t48.5 26.5t43 24l76 -172q-80 -51 -204.5 -99.5t-244.5 -48.5 q-160 0 -253 109t-93 328zM315 590h78q150 0 231 56.5t81 150.5q0 55 -33.5 85.5t-89.5 30.5q-96 0 -166 -91t-101 -232zM455 1217l252 276h290l-331 -276h-211z" />
<glyph unicode="&#xea;" horiz-adv-x="980" d="M51 414q0 197 65.5 351.5t190.5 243.5t291 89q153 0 242.5 -78t89.5 -209q0 -99 -40.5 -171t-115.5 -114t-172 -62t-219 -20h-86v-34q0 -114 37.5 -178t116.5 -64q20 0 42 3.5t48 13t44 16t49.5 23t44 23t48.5 26.5t43 24l76 -172q-80 -51 -204.5 -99.5t-244.5 -48.5 q-160 0 -253 109t-93 328zM315 590h78q150 0 231 56.5t81 150.5q0 55 -33.5 85.5t-89.5 30.5q-96 0 -166 -91t-101 -232zM334 1217l225 276h236l125 -276h-154l-100 159l-154 -159h-178z" />
<glyph unicode="&#xeb;" horiz-adv-x="980" d="M51 414q0 197 65.5 351.5t190.5 243.5t291 89q153 0 242.5 -78t89.5 -209q0 -99 -40.5 -171t-115.5 -114t-172 -62t-219 -20h-86v-34q0 -114 37.5 -178t116.5 -64q20 0 42 3.5t48 13t44 16t49.5 23t44 23t48.5 26.5t43 24l76 -172q-80 -51 -204.5 -99.5t-244.5 -48.5 q-160 0 -253 109t-93 328zM315 590h78q150 0 231 56.5t81 150.5q0 55 -33.5 85.5t-89.5 30.5q-96 0 -166 -91t-101 -232zM381 1237l41 225h196l-38 -225h-199zM692 1237l41 225h197l-39 -225h-199z" />
<glyph unicode="&#xec;" horiz-adv-x="483" d="M12 0l189 1075h241l-190 -1075h-240zM88 1493h262l162 -276h-186z" />
<glyph unicode="&#xed;" horiz-adv-x="481" d="M12 0l189 1075h241l-190 -1075h-240zM172 1217l252 276h291l-332 -276h-211z" />
<glyph unicode="&#xee;" horiz-adv-x="481" d="M12 0l189 1075h241l-190 -1075h-240zM53 1217l226 276h235l125 -276h-154l-100 159l-154 -159h-178z" />
<glyph unicode="&#xef;" horiz-adv-x="483" d="M12 0l189 1075h241l-190 -1075h-240zM96 1237l41 225h197l-39 -225h-199zM408 1237l41 225h196l-39 -225h-198z" />
<glyph unicode="&#xf0;" horiz-adv-x="1089" d="M45 399q0 156 62 288t171.5 210t239.5 78q56 0 105 -16.5t78 -37.5t51.5 -48t31 -42t11.5 -24q-6 123 -48 222.5t-122 152.5l-82 -86h-207l131 137h-18q-34 0 -71 -4.5t-57 -9.5l-20 -5l6 199q68 21 166 21q83 0 164 -23l80 82h205l-144 -152q120 -87 181 -243t61 -355 q0 -220 -66 -392.5t-195 -273t-302 -100.5q-198 0 -305 113.5t-107 308.5zM295 393q0 -99 42 -159t136 -60q71 0 127 38t87.5 98t47 124t15.5 127q0 99 -45 158t-138 59q-86 0 -150 -62t-93 -147.5t-29 -175.5z" />
<glyph unicode="&#xf1;" horiz-adv-x="1073" d="M12 0l189 1075h241l-24 -133q197 156 352 156q134 0 188.5 -90.5t24.5 -253.5l-131 -754h-244l127 717q34 180 -80 180q-61 0 -136.5 -45.5t-133.5 -101.5l-131 -750h-242zM358 1300q33 52 49 75t43.5 53.5t55 42.5t61.5 12q30 0 62.5 -15.5t55 -34t48 -34t43.5 -15.5 q20 0 43.5 19.5t61.5 77.5l98 -74q-28 -46 -47 -73t-45 -54.5t-54.5 -40t-62.5 -12.5q-38 0 -78.5 24.5t-74 49t-56.5 24.5q-41 0 -104 -96z" />
<glyph unicode="&#xf2;" d="M55 401q0 96 18 191.5t58.5 187.5t99 162t146.5 113t194 43q88 0 161.5 -24.5t132 -74t91.5 -133t33 -192.5q0 -96 -18 -191.5t-58.5 -187.5t-98.5 -162t-146 -113t-193 -43q-88 0 -162 24.5t-132.5 74t-92 133t-33.5 192.5zM297 397q0 -111 43 -167t135 -56 q55 0 102 36.5t77.5 92.5t52.5 125t31.5 133t9.5 117q0 223 -179 223q-68 0 -123 -54t-86 -135.5t-47 -164t-16 -150.5zM383 1493h262l162 -276h-186z" />
<glyph unicode="&#xf3;" d="M55 401q0 96 18 191.5t58.5 187.5t99 162t146.5 113t194 43q88 0 161.5 -24.5t132 -74t91.5 -133t33 -192.5q0 -96 -18 -191.5t-58.5 -187.5t-98.5 -162t-146 -113t-193 -43q-88 0 -162 24.5t-132.5 74t-92 133t-33.5 192.5zM297 397q0 -111 43 -167t135 -56 q55 0 102 36.5t77.5 92.5t52.5 125t31.5 133t9.5 117q0 223 -179 223q-68 0 -123 -54t-86 -135.5t-47 -164t-16 -150.5zM465 1217l252 276h291l-332 -276h-211z" />
<glyph unicode="&#xf4;" d="M55 401q0 96 18 191.5t58.5 187.5t99 162t146.5 113t194 43q88 0 161.5 -24.5t132 -74t91.5 -133t33 -192.5q0 -96 -18 -191.5t-58.5 -187.5t-98.5 -162t-146 -113t-193 -43q-88 0 -162 24.5t-132.5 74t-92 133t-33.5 192.5zM297 397q0 -111 43 -167t135 -56 q55 0 102 36.5t77.5 92.5t52.5 125t31.5 133t9.5 117q0 223 -179 223q-68 0 -123 -54t-86 -135.5t-47 -164t-16 -150.5zM348 1217l225 276h236l125 -276h-154l-100 159l-154 -159h-178z" />
<glyph unicode="&#xf5;" d="M55 401q0 96 18 191.5t58.5 187.5t99 162t146.5 113t194 43q88 0 161.5 -24.5t132 -74t91.5 -133t33 -192.5q0 -96 -18 -191.5t-58.5 -187.5t-98.5 -162t-146 -113t-193 -43q-88 0 -162 24.5t-132.5 74t-92 133t-33.5 192.5zM297 397q0 -111 43 -167t135 -56 q55 0 102 36.5t77.5 92.5t52.5 125t31.5 133t9.5 117q0 223 -179 223q-68 0 -123 -54t-86 -135.5t-47 -164t-16 -150.5zM356 1300q33 52 49 75t43.5 53.5t55 42.5t61.5 12q30 0 62.5 -15.5t55 -34t48 -34t43.5 -15.5q20 0 43.5 19.5t61.5 77.5l98 -74q-28 -46 -47 -73 t-45 -54.5t-54.5 -40t-62.5 -12.5q-38 0 -78.5 24.5t-74 49t-56.5 24.5q-41 0 -104 -96z" />
<glyph unicode="&#xf6;" d="M55 401q0 96 18 191.5t58.5 187.5t99 162t146.5 113t194 43q88 0 161.5 -24.5t132 -74t91.5 -133t33 -192.5q0 -96 -18 -191.5t-58.5 -187.5t-98.5 -162t-146 -113t-193 -43q-88 0 -162 24.5t-132.5 74t-92 133t-33.5 192.5zM297 397q0 -111 43 -167t135 -56 q55 0 102 36.5t77.5 92.5t52.5 125t31.5 133t9.5 117q0 223 -179 223q-68 0 -123 -54t-86 -135.5t-47 -164t-16 -150.5zM393 1237l41 225h197l-39 -225h-199zM705 1237l40 225h197l-39 -225h-198z" />
<glyph unicode="&#xf7;" horiz-adv-x="1105" d="M117 586l35 192h858l-35 -192h-858zM377 330q0 51 36 88t87 37t88 -37t37 -88t-37 -87t-88 -36t-87 36t-36 87zM502 1036q0 52 35.5 88.5t87.5 36.5q51 0 87 -37t36 -88t-36 -87t-87 -36q-52 0 -87.5 36t-35.5 87z" />
<glyph unicode="&#xf8;" d="M-8 0l125 150q-62 100 -62 251q0 96 18 191.5t58.5 187.5t99 162t146.5 113t194 43q163 0 273 -82l51 59h147l-120 -143q67 -103 67 -258q0 -96 -18 -191.5t-58.5 -187.5t-98.5 -162t-146 -113t-193 -43q-172 0 -280 86l-54 -63h-149zM297 365l405 481q-43 55 -133 55 q-68 0 -123 -54t-86 -135.5t-47 -164t-16 -150.5v-32zM336 233q44 -59 139 -59q55 0 102 36.5t77.5 92.5t52.5 125t31.5 133t9.5 117q0 22 -3 43z" />
<glyph unicode="&#xf9;" d="M61 322l134 753h241l-127 -717q-33 -182 80 -182q61 0 137 45t133 101l134 753h241l-190 -1075h-242l23 129q-203 -152 -349 -152q-135 0 -190 91t-25 254zM379 1493h262l162 -276h-187z" />
<glyph unicode="&#xfa;" d="M61 322l134 753h241l-127 -717q-33 -182 80 -182q61 0 137 45t133 101l134 753h241l-190 -1075h-242l23 129q-203 -152 -349 -152q-135 0 -190 91t-25 254zM463 1217l252 276h291l-332 -276h-211z" />
<glyph unicode="&#xfb;" d="M61 322l134 753h241l-127 -717q-33 -182 80 -182q61 0 137 45t133 101l134 753h241l-190 -1075h-242l23 129q-203 -152 -349 -152q-135 0 -190 91t-25 254zM342 1217l225 276h236l125 -276h-154l-100 159l-154 -159h-178z" />
<glyph unicode="&#xfc;" d="M61 322l134 753h241l-127 -717q-33 -182 80 -182q61 0 137 45t133 101l134 753h241l-190 -1075h-242l23 129q-203 -152 -349 -152q-135 0 -190 91t-25 254zM387 1237l41 225h197l-39 -225h-199zM698 1237l41 225h197l-39 -225h-199z" />
<glyph unicode="&#xfd;" horiz-adv-x="995" d="M-29 -254q116 47 180 91t115 122l-155 1116h249l70 -774l344 774h264l-526 -1075q-79 -160 -124 -222q-88 -122 -239 -186q-55 -24 -124 -43zM426 1217l252 276h291l-332 -276h-211z" />
<glyph unicode="&#xfe;" horiz-adv-x="1077" d="M-61 -418l335 1911h242l-96 -543q161 148 307 148q122 0 197 -92t75 -269q0 -142 -30 -277t-85 -243.5t-140 -174t-187 -65.5q-47 0 -90 13t-78.5 37.5t-60.5 47.5t-52 54l-96 -547h-241zM311 330q85 -146 197 -146q73 0 130.5 83t85.5 198.5t28 232.5q0 91 -32.5 143 t-96.5 52q-60 0 -117.5 -39.5t-122.5 -110.5z" />
<glyph unicode="&#xff;" horiz-adv-x="995" d="M-29 -254q116 47 180 91t115 122l-155 1116h249l70 -774l344 774h264l-526 -1075q-79 -160 -124 -222q-88 -122 -239 -186q-55 -24 -124 -43zM350 1237l41 225h197l-39 -225h-199zM662 1237l40 225h197l-39 -225h-198z" />
<glyph unicode="&#x100;" horiz-adv-x="1206" d="M-76 0l688 1434h277l184 -1434h-264l-25 305h-448l-131 -305h-281zM426 516h342l-53 672zM518 1577l29 154h512l-27 -154h-514z" />
<glyph unicode="&#x101;" horiz-adv-x="1083" d="M55 336q0 198 53 370t157.5 282t238.5 110q46 0 87.5 -13.5t76.5 -39.5t58.5 -48.5t51.5 -54.5l25 133h241l-188 -1075h-242l25 145q-172 -168 -326 -168q-115 0 -186.5 92.5t-71.5 266.5zM303 375q0 -90 29.5 -141.5t85.5 -51.5q66 0 127.5 45t130.5 127l69 389 q-38 67 -88 108.5t-104 41.5q-75 0 -134 -84.5t-87.5 -201t-28.5 -232.5zM422 1268l29 153h512l-27 -153h-514z" />
<glyph unicode="&#x102;" horiz-adv-x="1206" d="M-76 0l688 1434h277l184 -1434h-264l-25 305h-448l-131 -305h-281zM426 516h342l-53 672zM539 1767h149q-12 -98 92 -98q62 0 103.5 25t48.5 73h151q-20 -114 -100.5 -177.5t-208.5 -63.5q-130 0 -192 66t-43 175z" />
<glyph unicode="&#x103;" horiz-adv-x="1083" d="M55 336q0 198 53 370t157.5 282t238.5 110q46 0 87.5 -13.5t76.5 -39.5t58.5 -48.5t51.5 -54.5l25 133h241l-188 -1075h-242l25 145q-172 -168 -326 -168q-115 0 -186.5 92.5t-71.5 266.5zM303 375q0 -90 29.5 -141.5t85.5 -51.5q66 0 127.5 45t130.5 127l69 389 q-38 67 -88 108.5t-104 41.5q-75 0 -134 -84.5t-87.5 -201t-28.5 -232.5zM438 1458h150q-12 -98 92 -98q62 0 103 25t48 73h152q-20 -114 -100.5 -177.5t-208.5 -63.5q-130 0 -192.5 66t-43.5 175z" />
<glyph unicode="&#x104;" horiz-adv-x="1206" d="M-76 0l688 1434h277l184 -1434h-6q-93 -61 -143 -110t-50 -99q0 -14 3.5 -24t13 -16t16 -10t21.5 -5.5t21 -2t23 0t19 0.5l-47 -123h-9q-23 0 -38.5 0.5t-45.5 4t-50.5 13t-42.5 25t-33.5 43t-11.5 63.5q0 75 52 132.5t148 107.5h-104l-25 305h-448l-131 -305h-281z M426 516h342l-53 672z" />
<glyph unicode="&#x105;" horiz-adv-x="1083" d="M55 336q0 198 53 370t157.5 282t238.5 110q46 0 87.5 -13.5t76.5 -39.5t58.5 -48.5t51.5 -54.5l25 133h241l-188 -1075h-8q-93 -61 -143 -110t-50 -99q0 -14 3.5 -24t13 -16t16 -10t21.5 -5.5t21 -2t23 0t19 0.5l-47 -123h-9q-23 0 -38.5 0.5t-45.5 4t-50.5 13t-42.5 25 t-33.5 43t-11.5 63.5q0 75 52 132.5t148 107.5h-80l25 145q-172 -168 -326 -168q-115 0 -186.5 92.5t-71.5 266.5zM303 375q0 -90 29.5 -141.5t85.5 -51.5q66 0 127.5 45t130.5 127l69 389q-38 67 -88 108.5t-104 41.5q-75 0 -134 -84.5t-87.5 -201t-28.5 -232.5z" />
<glyph unicode="&#x106;" horiz-adv-x="1128" d="M96 520q0 188 44 358.5t122 298.5t193.5 203.5t251.5 75.5q57 0 115 -13.5t100.5 -31t97 -51.5t84.5 -55.5t82 -61.5l-139 -182q-97 78 -173 118t-147 40q-106 0 -193.5 -101.5t-133.5 -258t-46 -327.5q0 -317 187 -317q124 0 360 154l105 -205q-154 -89 -279 -138 t-246 -49q-183 0 -284 139t-101 404zM649 1526l252 276h291l-332 -276h-211z" />
<glyph unicode="&#x107;" horiz-adv-x="901" d="M53 397q0 167 41.5 304t109.5 221.5t150.5 130t169.5 45.5q42 0 85.5 -8.5t73 -18t70.5 -30.5t58 -31t56 -35.5t44 -28.5l-118 -172q-5 3 -32.5 23t-44 30t-44 25t-53.5 22t-50 7q-111 0 -190.5 -137t-79.5 -322q0 -107 37.5 -167t109.5 -60q27 0 66 13t63 25t71 37.5 t52 28.5l78 -193q-153 -78 -238 -104q-83 -25 -151 -25q-148 0 -241 109t-93 311zM426 1217l252 276h291l-332 -276h-211z" />
<glyph unicode="&#x10a;" horiz-adv-x="1128" d="M96 520q0 188 44 358.5t122 298.5t193.5 203.5t251.5 75.5q57 0 115 -13.5t100.5 -31t97 -51.5t84.5 -55.5t82 -61.5l-139 -182q-97 78 -173 118t-147 40q-106 0 -193.5 -101.5t-133.5 -258t-46 -327.5q0 -317 187 -317q124 0 360 154l105 -205q-154 -89 -279 -138 t-246 -49q-183 0 -284 139t-101 404zM672 1546l39 228h202l-41 -228h-200z" />
<glyph unicode="&#x10b;" horiz-adv-x="901" d="M53 397q0 167 41.5 304t109.5 221.5t150.5 130t169.5 45.5q42 0 85.5 -8.5t73 -18t70.5 -30.5t58 -31t56 -35.5t44 -28.5l-118 -172q-5 3 -32.5 23t-44 30t-44 25t-53.5 22t-50 7q-111 0 -190.5 -137t-79.5 -322q0 -107 37.5 -167t109.5 -60q27 0 66 13t63 25t71 37.5 t52 28.5l78 -193q-153 -78 -238 -104q-83 -25 -151 -25q-148 0 -241 109t-93 311zM504 1237l39 227h202l-40 -227h-201z" />
<glyph unicode="&#x10c;" horiz-adv-x="1128" d="M96 520q0 188 44 358.5t122 298.5t193.5 203.5t251.5 75.5q57 0 115 -13.5t100.5 -31t97 -51.5t84.5 -55.5t82 -61.5l-139 -182q-97 78 -173 118t-147 40q-106 0 -193.5 -101.5t-133.5 -258t-46 -327.5q0 -317 187 -317q124 0 360 154l105 -205q-154 -89 -279 -138 t-246 -49q-183 0 -284 139t-101 404zM532 1802h156l100 -160l154 160h176l-223 -276h-236z" />
<glyph unicode="&#x10d;" horiz-adv-x="899" d="M53 397q0 167 41.5 304t109.5 221.5t150.5 130t169.5 45.5q42 0 85.5 -8.5t73 -18t70.5 -30.5t58 -31t56 -35.5t44 -28.5l-118 -172q-5 3 -32.5 23t-44 30t-44 25t-53.5 22t-50 7q-111 0 -190.5 -137t-79.5 -322q0 -107 37.5 -167t109.5 -60q27 0 66 13t63 25t71 37.5 t52 28.5l78 -193q-153 -78 -238 -104q-83 -25 -151 -25q-148 0 -241 109t-93 311zM354 1493h156l100 -160l154 160h176l-223 -276h-236z" />
<glyph unicode="&#x10e;" horiz-adv-x="1251" d="M39 0l254 1434h317q291 0 435.5 -142t144.5 -399q0 -85 -11.5 -170t-38.5 -173.5t-67 -168t-101 -150t-136 -121.5t-176.5 -80.5t-219.5 -29.5h-401zM330 223h102q118 0 215 53t159.5 144t96 210t33.5 253q0 173 -86.5 249t-255.5 76h-90zM563 1802h156l100 -160l154 160 h176l-223 -276h-236z" />
<glyph unicode="&#x10f;" horiz-adv-x="1171" d="M55 336q0 198 53 370t157.5 282t238.5 110q86 0 150.5 -43t125.5 -113l97 551h241l-262 -1493h-242l25 145q-172 -168 -326 -168q-115 0 -186.5 92.5t-71.5 266.5zM303 375q0 -90 29.5 -141.5t85.5 -51.5q66 0 127.5 45t130.5 127l69 389q-84 150 -192 150 q-75 0 -134 -84.5t-87.5 -201t-28.5 -232.5zM1124 1090l119 174h-82l41 229h184l-30 -250l-191 -217z" />
<glyph unicode="&#x110;" horiz-adv-x="1271" d="M43 614l37 207h123l108 613h318q291 0 435 -141.5t144 -399.5q0 -121 -23 -240t-79 -238.5t-138.5 -210t-214 -147.5t-294.5 -57h-402l109 614h-123zM348 223h103q118 0 214.5 53t159 144t96 209.5t33.5 253.5q0 173 -86.5 249t-255.5 76h-90l-67 -387h243l-36 -207h-244 z" />
<glyph unicode="&#x111;" horiz-adv-x="1083" d="M55 336q0 198 53 370t157.5 282t238.5 110q86 0 150.5 -43t125.5 -113l43 254h-282l26 154h283l27 143h241l-26 -143h102l-27 -154h-102l-209 -1196h-242l25 145q-172 -168 -326 -168q-115 0 -186.5 92.5t-71.5 266.5zM303 375q0 -90 29.5 -141.5t85.5 -51.5 q66 0 127.5 45t130.5 127l69 389q-84 150 -192 150q-75 0 -134 -84.5t-87.5 -201t-28.5 -232.5z" />
<glyph unicode="&#x112;" horiz-adv-x="1060" d="M39 0l254 1434h817l-39 -226h-567l-68 -381h465l-39 -221h-465l-67 -383h577l-39 -223h-829zM475 1577l29 154h512l-27 -154h-514z" />
<glyph unicode="&#x113;" horiz-adv-x="980" d="M51 414q0 197 65.5 351.5t190.5 243.5t291 89q153 0 242.5 -78t89.5 -209q0 -99 -40.5 -171t-115.5 -114t-172 -62t-219 -20h-86v-34q0 -114 37.5 -178t116.5 -64q20 0 42 3.5t48 13t44 16t49.5 23t44 23t48.5 26.5t43 24l76 -172q-80 -51 -204.5 -99.5t-244.5 -48.5 q-160 0 -253 109t-93 328zM315 590h78q150 0 231 56.5t81 150.5q0 55 -33.5 85.5t-89.5 30.5q-96 0 -166 -91t-101 -232zM381 1268l29 153h512l-27 -153h-514z" />
<glyph unicode="&#x116;" horiz-adv-x="1060" d="M39 0l254 1434h817l-39 -226h-567l-68 -381h465l-39 -221h-465l-67 -383h577l-39 -223h-829zM627 1546l39 228h202l-41 -228h-200z" />
<glyph unicode="&#x117;" horiz-adv-x="980" d="M51 414q0 197 65.5 351.5t190.5 243.5t291 89q153 0 242.5 -78t89.5 -209q0 -99 -40.5 -171t-115.5 -114t-172 -62t-219 -20h-86v-34q0 -114 37.5 -178t116.5 -64q20 0 42 3.5t48 13t44 16t49.5 23t44 23t48.5 26.5t43 24l76 -172q-80 -51 -204.5 -99.5t-244.5 -48.5 q-160 0 -253 109t-93 328zM315 590h78q150 0 231 56.5t81 150.5q0 55 -33.5 85.5t-89.5 30.5q-96 0 -166 -91t-101 -232zM530 1237l39 227h203l-41 -227h-201z" />
<glyph unicode="&#x118;" horiz-adv-x="1060" d="M39 0l254 1434h817l-39 -226h-567l-68 -381h465l-39 -221h-465l-67 -383h577l-39 -223h-6q-93 -61 -142.5 -109.5t-49.5 -99.5q0 -14 3.5 -24t12.5 -16t16 -10t21.5 -5.5t21 -2t23 0t18.5 0.5l-47 -123h-9q-23 0 -38.5 0.5t-45.5 4t-50.5 13t-42.5 25t-33.5 43 t-11.5 63.5q0 75 52.5 132.5t148.5 107.5h-670z" />
<glyph unicode="&#x119;" horiz-adv-x="980" d="M51 414q0 197 65.5 351.5t190.5 243.5t291 89q153 0 242.5 -78t89.5 -209q0 -99 -40.5 -171t-115.5 -114t-172 -62t-219 -20h-86v-34q0 -114 37.5 -178t116.5 -64q20 0 42 3.5t48 13t44 16t49.5 23t44 23t48.5 26.5t43 24l76 -172q-139 -88 -293 -125 q-95 -64 -143 -111.5t-48 -97.5q0 -14 3.5 -24t13 -16t16 -10t21.5 -5.5t21 -2t23 0t19 0.5l-47 -123h-9q-23 0 -38.5 0.5t-45.5 4t-50.5 13t-42.5 25t-33.5 43t-11.5 63.5q0 124 161 220q-146 11 -228.5 118.5t-82.5 315.5zM315 590h78q150 0 231 56.5t81 150.5 q0 55 -33.5 85.5t-89.5 30.5q-96 0 -166 -91t-101 -232z" />
<glyph unicode="&#x11a;" horiz-adv-x="1060" d="M39 0l254 1434h817l-39 -226h-567l-68 -381h465l-39 -221h-465l-67 -383h577l-39 -223h-829zM477 1802h156l100 -160l154 160h176l-223 -276h-236z" />
<glyph unicode="&#x11b;" horiz-adv-x="980" d="M51 414q0 197 65.5 351.5t190.5 243.5t291 89q153 0 242.5 -78t89.5 -209q0 -99 -40.5 -171t-115.5 -114t-172 -62t-219 -20h-86v-34q0 -114 37.5 -178t116.5 -64q20 0 42 3.5t48 13t44 16t49.5 23t44 23t48.5 26.5t43 24l76 -172q-80 -51 -204.5 -99.5t-244.5 -48.5 q-160 0 -253 109t-93 328zM315 590h78q150 0 231 56.5t81 150.5q0 55 -33.5 85.5t-89.5 30.5q-96 0 -166 -91t-101 -232zM383 1493h156l100 -160l154 160h176l-224 -276h-235z" />
<glyph unicode="&#x11e;" horiz-adv-x="1228" d="M96 506q0 271 77 487t219 339.5t323 123.5q73 0 143 -18.5t138 -56.5t112 -68t109 -80l-142 -182q-5 3 -42 30t-48.5 35t-45 30t-52.5 30t-48 21t-54.5 17.5t-51.5 4.5q-110 0 -197.5 -100t-133.5 -257.5t-46 -335.5q0 -151 44.5 -237t138.5 -86q76 0 159.5 53.5 t145.5 118.5l39 223h-275l37 209h510l-141 -807h-236l27 156q-86 -84 -169.5 -131.5t-178.5 -47.5q-163 0 -262 135.5t-99 393.5zM543 1767h149q-12 -98 92 -98q62 0 103.5 25t48.5 73h151q-20 -114 -100.5 -177.5t-208.5 -63.5q-130 0 -192 66t-43 175z" />
<glyph unicode="&#x11f;" horiz-adv-x="1083" d="M-43 -356l82 198q203 -80 346 -80q189 0 221 207l31 174q-170 -166 -324 -166q-115 0 -186.5 92.5t-71.5 266.5q0 198 53 370t157.5 282t238.5 110q86 0 150 -42.5t124 -111.5l23 131h241l-192 -1100q-21 -122 -58.5 -203.5t-95 -127t-126.5 -64t-164 -18.5 q-213 0 -449 82zM303 375q0 -90 29.5 -141.5t85.5 -51.5q113 0 256 168l69 395q-38 67 -87 107.5t-103 40.5q-75 0 -134 -84.5t-87.5 -201t-28.5 -232.5zM422 1458h149q-12 -98 93 -98q62 0 103 25t48 73h152q-20 -114 -101 -177.5t-209 -63.5q-130 0 -192 66t-43 175z" />
<glyph unicode="&#x120;" horiz-adv-x="1228" d="M96 506q0 271 77 487t219 339.5t323 123.5q73 0 143 -18.5t138 -56.5t112 -68t109 -80l-142 -182q-5 3 -42 30t-48.5 35t-45 30t-52.5 30t-48 21t-54.5 17.5t-51.5 4.5q-110 0 -197.5 -100t-133.5 -257.5t-46 -335.5q0 -151 44.5 -237t138.5 -86q76 0 159.5 53.5 t145.5 118.5l39 223h-275l37 209h510l-141 -807h-236l27 156q-86 -84 -169.5 -131.5t-178.5 -47.5q-163 0 -262 135.5t-99 393.5zM676 1546l39 228h203l-41 -228h-201z" />
<glyph unicode="&#x121;" horiz-adv-x="1083" d="M-43 -356l82 198q203 -80 346 -80q189 0 221 207l31 174q-170 -166 -324 -166q-115 0 -186.5 92.5t-71.5 266.5q0 198 53 370t157.5 282t238.5 110q86 0 150 -42.5t124 -111.5l23 131h241l-192 -1100q-21 -122 -58.5 -203.5t-95 -127t-126.5 -64t-164 -18.5 q-213 0 -449 82zM303 375q0 -90 29.5 -141.5t85.5 -51.5q113 0 256 168l69 395q-38 67 -87 107.5t-103 40.5q-75 0 -134 -84.5t-87.5 -201t-28.5 -232.5zM553 1237l39 227h203l-41 -227h-201z" />
<glyph unicode="&#x122;" horiz-adv-x="1228" d="M96 506q0 271 77 487t219 339.5t323 123.5q73 0 143 -18.5t138 -56.5t112 -68t109 -80l-142 -182q-5 3 -42 30t-48.5 35t-45 30t-52.5 30t-48 21t-54.5 17.5t-51.5 4.5q-110 0 -197.5 -100t-133.5 -257.5t-46 -335.5q0 -151 44.5 -237t138.5 -86q76 0 159.5 53.5 t145.5 118.5l39 223h-275l37 209h510l-141 -807h-236l27 156q-86 -84 -169.5 -131.5t-178.5 -47.5q-163 0 -262 135.5t-99 393.5zM338 -524l119 174h-82l41 229h184l-31 -250l-190 -217z" />
<glyph unicode="&#x123;" horiz-adv-x="1083" d="M-43 -356l82 198q203 -80 346 -80q189 0 221 207l31 174q-170 -166 -324 -166q-115 0 -186.5 92.5t-71.5 266.5q0 198 53 370t157.5 282t238.5 110q86 0 150 -42.5t124 -111.5l23 131h241l-192 -1100q-21 -122 -58.5 -203.5t-95 -127t-126.5 -64t-164 -18.5 q-213 0 -449 82zM303 375q0 -90 29.5 -141.5t85.5 -51.5q113 0 256 168l69 395q-38 67 -87 107.5t-103 40.5q-75 0 -134 -84.5t-87.5 -201t-28.5 -232.5zM573 1237l31 250l191 217l41 -64l-119 -174h82l-41 -229h-185z" />
<glyph unicode="&#x126;" horiz-adv-x="1294" d="M55 0l187 1059h-123l26 153h125l39 222h250l-39 -222h461l39 222h252l-39 -222h129l-27 -153h-131l-186 -1059h-250l113 641h-461l-113 -641h-252zM459 862h461l34 197h-460z" />
<glyph unicode="&#x127;" d="M12 0l209 1196h-100l29 154h98l26 143h242l-27 -143h285l-29 -154h-282l-43 -254q197 156 350 156q134 0 188.5 -89.5t24.5 -252.5l-131 -756h-244l127 717q7 50 7 90t-21.5 65t-65.5 25q-62 0 -138 -45.5t-132 -101.5l-131 -750h-242z" />
<glyph unicode="&#x128;" horiz-adv-x="548" d="M39 0l254 1434h250l-252 -1434h-252zM150 1610q23 36 32.5 50.5t29 41.5t32.5 38.5t32 26t39 20t43 5.5q38 0 79 -24.5t74.5 -49t55.5 -24.5q20 0 43.5 19t61.5 77l98 -74q-28 -46 -47 -73t-45 -54.5t-54.5 -40t-62.5 -12.5q-38 0 -78.5 24.5t-74 49t-56.5 24.5 q-41 0 -104 -96z" />
<glyph unicode="&#x129;" horiz-adv-x="485" d="M12 0l189 1075h241l-190 -1075h-240zM61 1300q33 52 49 75t43.5 53.5t55 42.5t61.5 12q30 0 62.5 -15.5t55 -34t48 -34t43.5 -15.5q20 0 43.5 19.5t61.5 77.5l98 -74q-28 -46 -47 -73t-45 -54.5t-54.5 -40t-62.5 -12.5q-38 0 -78.5 24.5t-74 49t-56.5 24.5 q-41 0 -104 -96z" />
<glyph unicode="&#x12a;" horiz-adv-x="546" d="M39 0l254 1434h250l-252 -1434h-252zM186 1577l29 154h512l-27 -154h-514z" />
<glyph unicode="&#x12b;" horiz-adv-x="483" d="M12 0l189 1075h241l-190 -1075h-240zM96 1268l29 153h512l-27 -153h-514z" />
<glyph unicode="&#x12c;" horiz-adv-x="546" d="M39 0l254 1434h250l-252 -1434h-252zM205 1767h149q-12 -98 92 -98q62 0 103.5 25t48.5 73h152q-20 -114 -101 -177.5t-209 -63.5q-130 0 -192 66t-43 175z" />
<glyph unicode="&#x12d;" horiz-adv-x="481" d="M12 0l189 1075h241l-190 -1075h-240zM119 1458h149q-12 -98 92 -98q62 0 103.5 25t48.5 73h152q-20 -114 -101 -177.5t-209 -63.5q-130 0 -192 66t-43 175z" />
<glyph unicode="&#x12e;" horiz-adv-x="544" d="M-70 -240q0 75 52.5 132.5t148.5 107.5h-92l254 1434h250l-252 -1434h-6q-93 -61 -143 -110t-50 -99q0 -14 3.5 -24t13 -16t16 -10t21.5 -5.5t21 -2t23 0t19 0.5l-47 -123h-9q-23 0 -38.5 0.5t-46 4t-51 13t-42.5 25t-33.5 43t-11.5 63.5z" />
<glyph unicode="&#x12f;" horiz-adv-x="481" d="M-106 -240q0 75 52 132.5t148 107.5h-82l189 1075h241l-190 -1075h-4q-93 -61 -143 -110t-50 -99q0 -14 3.5 -24t13 -16t16 -10t21.5 -5.5t21 -2t23 0t19 0.5l-47 -123h-9q-23 0 -38.5 0.5t-45.5 4t-50.5 13t-42.5 25t-33.5 43t-11.5 63.5zM225 1249l41 238h256l-43 -238 h-254z" />
<glyph unicode="&#x130;" horiz-adv-x="546" d="M39 0l254 1434h250l-252 -1434h-252zM338 1546l39 228h203l-41 -228h-201z" />
<glyph unicode="&#x131;" horiz-adv-x="481" d="M12 0l189 1075h241l-190 -1075h-240z" />
<glyph unicode="&#x132;" horiz-adv-x="1093" d="M39 0l254 1434h250l-252 -1434h-252zM367 -137q62 22 100 41t63 36t39 43.5t20.5 50t14.5 70.5l236 1330h250l-232 -1317q-28 -155 -51 -210q-38 -91 -133 -148q-84 -50 -254 -99z" />
<glyph unicode="&#x133;" horiz-adv-x="960" d="M12 0l189 1075h241l-190 -1075h-240zM225 1249l41 238h256l-43 -238h-254zM244 -258q53 20 88 34.5t61 32.5t39.5 31.5t24.5 39t15.5 45.5t12.5 61l191 1089h244l-191 -1071q-12 -70 -19 -102.5t-21.5 -82.5t-32.5 -73.5t-48.5 -57.5t-73 -54t-102 -43t-139.5 -44z M700 1249l43 238h254l-41 -238h-256z" />
<glyph unicode="&#x134;" horiz-adv-x="546" d="M-180 -137q62 22 100 41t63 36t39 43.5t20.5 50t14.5 70.5l236 1330h250l-232 -1317q-28 -155 -51 -210q-38 -91 -133 -148q-84 -50 -254 -99zM139 1526l226 276h235l125 -276h-154l-100 160l-154 -160h-178z" />
<glyph unicode="&#x135;" horiz-adv-x="481" d="M-231 -258q54 20 88.5 34.5t61 32.5t40 31.5t24.5 38.5t15.5 46t11.5 61l191 1089h243l-190 -1071q-12 -71 -19 -103t-22 -82.5t-33 -74t-48.5 -57.5t-73.5 -54t-103 -42.5t-141 -43.5zM51 1217l225 276h236l125 -276h-154l-100 159l-154 -159h-178z" />
<glyph unicode="&#x136;" horiz-adv-x="1187" d="M39 0l254 1434h250l-113 -643l543 643h321l-598 -670l373 -764h-281l-262 573l-168 -186l-67 -387h-252zM295 -524l119 174h-82l41 229h184l-31 -250l-190 -217z" />
<glyph unicode="&#x137;" horiz-adv-x="972" d="M12 0l262 1493h242l-151 -862l346 444h290l-389 -440l246 -635h-246l-161 453l-148 -168l-49 -285h-242zM201 -524l118 174h-81l41 229h184l-31 -250l-190 -217z" />
<glyph unicode="&#x138;" horiz-adv-x="972" d="M12 0l189 1075h241l-77 -444l346 444h290l-389 -440l246 -635h-246l-161 453l-148 -168l-49 -285h-242z" />
<glyph unicode="&#x139;" horiz-adv-x="980" d="M39 0l254 1434h250l-213 -1213h551l-37 -221h-805zM260 1526l252 276h291l-332 -276h-211z" />
<glyph unicode="&#x13a;" horiz-adv-x="493" d="M18 0l263 1493h241l-264 -1493h-240zM242 1585l252 277h290l-331 -277h-211z" />
<glyph unicode="&#x13b;" horiz-adv-x="980" d="M39 0l254 1434h250l-213 -1213h551l-37 -221h-805zM242 -524l118 174h-81l40 229h185l-31 -250l-190 -217z" />
<glyph unicode="&#x13c;" horiz-adv-x="493" d="M-49 -524l119 174h-82l41 229h184l-31 -250l-190 -217zM18 0l263 1493h241l-264 -1493h-240z" />
<glyph unicode="&#x13d;" horiz-adv-x="980" d="M39 0l254 1434h250l-213 -1213h551l-37 -221h-805zM551 1030l119 174h-82l41 230h184l-31 -250l-190 -217z" />
<glyph unicode="&#x13e;" horiz-adv-x="577" d="M18 0l263 1493h241l-264 -1493h-240zM530 1090l119 174h-82l41 229h185l-31 -250l-191 -217z" />
<glyph unicode="&#x13f;" horiz-adv-x="983" d="M39 0l254 1434h250l-213 -1213h551l-37 -221h-805zM668 635l39 227h202l-41 -227h-200z" />
<glyph unicode="&#x140;" horiz-adv-x="616" d="M18 0l263 1493h241l-264 -1493h-240zM455 635l39 227h202l-41 -227h-200z" />
<glyph unicode="&#x141;" horiz-adv-x="995" d="M16 428l41 236l131 75l123 695h250l-94 -535l250 145l-43 -235l-248 -143l-78 -445h551l-37 -221h-805l88 504z" />
<glyph unicode="&#x142;" horiz-adv-x="561" d="M35 481l43 238l117 67l124 707h242l-98 -551l119 68l-41 -238l-119 -70l-125 -702h-240l97 549z" />
<glyph unicode="&#x143;" horiz-adv-x="1286" d="M39 0l254 1434h252l307 -1020l178 1020h252l-252 -1434h-254l-307 1020l-178 -1020h-252zM639 1526l252 276h291l-332 -276h-211z" />
<glyph unicode="&#x144;" horiz-adv-x="1073" d="M12 0l189 1075h241l-24 -133q197 156 352 156q134 0 188.5 -90.5t24.5 -253.5l-131 -754h-244l127 717q34 180 -80 180q-61 0 -136.5 -45.5t-133.5 -101.5l-131 -750h-242zM471 1217l252 276h291l-332 -276h-211z" />
<glyph unicode="&#x145;" horiz-adv-x="1286" d="M39 0l254 1434h252l307 -1020l178 1020h252l-252 -1434h-254l-307 1020l-178 -1020h-252zM356 -524l119 174h-82l41 229h184l-30 -250l-191 -217z" />
<glyph unicode="&#x146;" d="M12 0l189 1075h241l-24 -133q197 156 352 156q134 0 188.5 -90.5t24.5 -253.5l-131 -754h-244l127 717q34 180 -80 180q-61 0 -136.5 -45.5t-133.5 -101.5l-131 -750h-242zM242 -524l118 174h-81l40 229h185l-31 -250l-190 -217z" />
<glyph unicode="&#x147;" horiz-adv-x="1286" d="M39 0l254 1434h252l307 -1020l178 1020h252l-252 -1434h-254l-307 1020l-178 -1020h-252zM569 1802h156l100 -160l154 160h176l-223 -276h-236z" />
<glyph unicode="&#x148;" d="M12 0l189 1075h241l-24 -133q197 156 352 156q134 0 188.5 -90.5t24.5 -253.5l-131 -754h-244l127 717q34 180 -80 180q-61 0 -136.5 -45.5t-133.5 -101.5l-131 -750h-242zM399 1493h156l100 -160l154 160h176l-223 -276h-236z" />
<glyph unicode="&#x149;" d="M12 0l189 1075h241l-24 -133q197 156 352 156q134 0 188.5 -90.5t24.5 -253.5l-131 -754h-244l127 717q34 180 -80 180q-61 0 -136.5 -45.5t-133.5 -101.5l-131 -750h-242zM223 1225l119 174h-82l41 229h184l-30 -250l-191 -217z" />
<glyph unicode="&#x14a;" horiz-adv-x="1286" d="M39 0l252 1434h254l307 -1018l178 1018h252l-235 -1338q-8 -44 -13.5 -69.5t-14 -60t-17 -54t-22.5 -46t-30.5 -42.5t-40 -36.5t-51.5 -34.5t-65 -31t-81.5 -31.5t-99.5 -30.5l-55 203q106 39 150.5 66.5t66.5 76.5l-305 1014l-178 -1020h-252z" />
<glyph unicode="&#x14b;" horiz-adv-x="1073" d="M12 0l191 1075h239l-24 -133q197 156 352 156q134 0 188.5 -90t26.5 -254l-133 -750q-12 -70 -19 -102.5t-21.5 -82.5t-32.5 -73.5t-48.5 -57.5t-73 -54t-102 -43t-139.5 -44l-49 195q53 20 88 34.5t61 32.5t39.5 31.5t24.5 39t15.5 45.5t12.5 61l129 731q30 180 -80 180 q-62 0 -138 -45.5t-134 -101.5l-131 -750h-242z" />
<glyph unicode="&#x14c;" horiz-adv-x="1320" d="M96 522q0 73 10.5 154.5t34.5 173t59 177t89 164.5t119.5 137t154.5 93t191 35q242 0 374 -137.5t132 -405.5q0 -73 -10.5 -154.5t-34.5 -173.5t-59 -177.5t-89 -164.5t-119.5 -137.5t-154.5 -93.5t-191 -35q-242 0 -374 138t-132 407zM352 524q0 -151 59.5 -236 t198.5 -85q62 0 116 30.5t92.5 80t70.5 114.5t52.5 132.5t34 135.5t19.5 121t6 92q0 152 -58.5 237t-197.5 85q-85 0 -155 -58t-113 -142.5t-72.5 -185.5t-41 -182.5t-11.5 -138.5zM573 1577l29 154h512l-27 -154h-514z" />
<glyph unicode="&#x14d;" d="M55 401q0 96 18 191.5t58.5 187.5t99 162t146.5 113t194 43q88 0 161.5 -24.5t132 -74t91.5 -133t33 -192.5q0 -96 -18 -191.5t-58.5 -187.5t-98.5 -162t-146 -113t-193 -43q-88 0 -162 24.5t-132.5 74t-92 133t-33.5 192.5zM297 397q0 -111 43 -167t135 -56 q55 0 102 36.5t77.5 92.5t52.5 125t31.5 133t9.5 117q0 223 -179 223q-68 0 -123 -54t-86 -135.5t-47 -164t-16 -150.5zM393 1268l29 153h512l-27 -153h-514z" />
<glyph unicode="&#x14e;" horiz-adv-x="1320" d="M96 522q0 73 10.5 154.5t34.5 173t59 177t89 164.5t119.5 137t154.5 93t191 35q242 0 374 -137.5t132 -405.5q0 -73 -10.5 -154.5t-34.5 -173.5t-59 -177.5t-89 -164.5t-119.5 -137.5t-154.5 -93.5t-191 -35q-242 0 -374 138t-132 407zM352 524q0 -151 59.5 -236 t198.5 -85q62 0 116 30.5t92.5 80t70.5 114.5t52.5 132.5t34 135.5t19.5 121t6 92q0 152 -58.5 237t-197.5 85q-85 0 -155 -58t-113 -142.5t-72.5 -185.5t-41 -182.5t-11.5 -138.5zM592 1767h149q-12 -98 93 -98q62 0 103 25t48 73h152q-20 -114 -101 -177.5t-209 -63.5 q-130 0 -192 66t-43 175z" />
<glyph unicode="&#x14f;" d="M55 401q0 96 18 191.5t58.5 187.5t99 162t146.5 113t194 43q88 0 161.5 -24.5t132 -74t91.5 -133t33 -192.5q0 -96 -18 -191.5t-58.5 -187.5t-98.5 -162t-146 -113t-193 -43q-88 0 -162 24.5t-132.5 74t-92 133t-33.5 192.5zM297 397q0 -111 43 -167t135 -56 q55 0 102 36.5t77.5 92.5t52.5 125t31.5 133t9.5 117q0 223 -179 223q-68 0 -123 -54t-86 -135.5t-47 -164t-16 -150.5zM414 1458h149q-12 -98 92 -98q62 0 103.5 25t48.5 73h151q-20 -114 -100.5 -177.5t-208.5 -63.5q-130 0 -192 66t-43 175z" />
<glyph unicode="&#x150;" horiz-adv-x="1320" d="M96 522q0 73 10.5 154.5t34.5 173t59 177t89 164.5t119.5 137t154.5 93t191 35q242 0 374 -137.5t132 -405.5q0 -73 -10.5 -154.5t-34.5 -173.5t-59 -177.5t-89 -164.5t-119.5 -137.5t-154.5 -93.5t-191 -35q-242 0 -374 138t-132 407zM352 524q0 -151 59.5 -236 t198.5 -85q62 0 116 30.5t92.5 80t70.5 114.5t52.5 132.5t34 135.5t19.5 121t6 92q0 152 -58.5 237t-197.5 85q-85 0 -155 -58t-113 -142.5t-72.5 -185.5t-41 -182.5t-11.5 -138.5zM573 1526l177 276h227l-258 -276h-146zM868 1526l179 276h227l-260 -276h-146z" />
<glyph unicode="&#x151;" d="M55 401q0 96 18 191.5t58.5 187.5t99 162t146.5 113t194 43q88 0 161.5 -24.5t132 -74t91.5 -133t33 -192.5q0 -96 -18 -191.5t-58.5 -187.5t-98.5 -162t-146 -113t-193 -43q-88 0 -162 24.5t-132.5 74t-92 133t-33.5 192.5zM297 397q0 -111 43 -167t135 -56 q55 0 102 36.5t77.5 92.5t52.5 125t31.5 133t9.5 117q0 223 -179 223q-68 0 -123 -54t-86 -135.5t-47 -164t-16 -150.5zM393 1217l176 276h228l-258 -276h-146zM688 1217l178 276h228l-260 -276h-146z" />
<glyph unicode="&#x152;" horiz-adv-x="1894" d="M96 522q0 73 10.5 154.5t34.5 173t59 177t89 164.5t119.5 137t154.5 93t191 35q226 0 354 -119l16 97h818l-39 -226h-568l-67 -381h465l-39 -221h-465l-68 -383h578l-39 -223h-830l11 57q-131 -80 -279 -80q-242 0 -374 138t-132 407zM352 524q0 -151 59.5 -236 t198.5 -85q62 0 116 30.5t92.5 80t70.5 114.5t52.5 132.5t34 135.5t19.5 121t6 92q0 152 -58.5 237t-197.5 85q-85 0 -155 -58t-113 -142.5t-72.5 -185.5t-41 -182.5t-11.5 -138.5z" />
<glyph unicode="&#x153;" horiz-adv-x="1662" d="M55 401q0 96 18 191.5t58.5 187.5t99 162t146.5 113t194 43q233 0 342 -156q146 156 367 156q153 0 242.5 -78t89.5 -209q0 -99 -40.5 -171t-115.5 -114t-172 -62t-219 -20h-86v-34q0 -114 37.5 -178t116.5 -64q20 0 42 3.5t48 13t44 16t49.5 23t44 23t48.5 26.5t43 24 l76 -172q-80 -51 -204.5 -99.5t-244.5 -48.5q-188 0 -278 144q-131 -144 -326 -144q-88 0 -162 24.5t-132.5 74t-92 133t-33.5 192.5zM297 397q0 -111 43 -167t135 -56q55 0 102 36.5t77.5 92.5t52.5 125t31.5 133t9.5 117q0 223 -179 223q-68 0 -123 -54t-86 -135.5 t-47 -164t-16 -150.5zM997 590h78q150 0 230.5 56.5t80.5 150.5q0 55 -33 85.5t-89 30.5q-96 0 -166 -91t-101 -232z" />
<glyph unicode="&#x154;" horiz-adv-x="1218" d="M39 0l254 1434h463q229 0 341.5 -91.5t112.5 -263.5q0 -112 -40.5 -210t-131 -174.5t-219.5 -104.5l207 -590h-262l-180 573h-193l-100 -573h-252zM428 782h215q148 0 228.5 74.5t80.5 202.5q0 166 -221 166h-225zM625 1526l252 276h290l-331 -276h-211z" />
<glyph unicode="&#x155;" horiz-adv-x="720" d="M12 0l189 1075h241l-41 -225q151 255 369 237l-43 -239q-59 0 -112 -20t-91 -51.5t-70.5 -70.5t-53 -77.5t-35 -70t-21.5 -51.5l-6 -20l-84 -487h-242zM336 1217l252 276h291l-332 -276h-211z" />
<glyph unicode="&#x156;" horiz-adv-x="1218" d="M39 0l254 1434h463q229 0 341.5 -91.5t112.5 -263.5q0 -112 -40.5 -210t-131 -174.5t-219.5 -104.5l207 -590h-262l-180 573h-193l-100 -573h-252zM307 -524l119 174h-82l41 229h184l-30 -250l-191 -217zM428 782h215q148 0 228.5 74.5t80.5 202.5q0 166 -221 166h-225z " />
<glyph unicode="&#x157;" horiz-adv-x="720" d="M-57 -524l118 174h-81l40 229h185l-31 -250l-190 -217zM12 0l189 1075h241l-41 -225q151 255 369 237l-43 -239q-59 0 -112 -20t-91 -51.5t-70.5 -70.5t-53 -77.5t-35 -70t-21.5 -51.5l-6 -20l-84 -487h-242z" />
<glyph unicode="&#x158;" horiz-adv-x="1218" d="M39 0l254 1434h463q229 0 341.5 -91.5t112.5 -263.5q0 -112 -40.5 -210t-131 -174.5t-219.5 -104.5l207 -590h-262l-180 573h-193l-100 -573h-252zM428 782h215q148 0 228.5 74.5t80.5 202.5q0 166 -221 166h-225zM557 1802h156l100 -160l154 160h176l-223 -276h-236z " />
<glyph unicode="&#x159;" horiz-adv-x="720" d="M12 0l189 1075h241l-41 -225q151 255 369 237l-43 -239q-59 0 -112 -20t-91 -51.5t-70.5 -70.5t-53 -77.5t-35 -70t-21.5 -51.5l-6 -20l-84 -487h-242zM266 1493h156l100 -160l154 160h176l-223 -276h-236z" />
<glyph unicode="&#x15a;" horiz-adv-x="1103" d="M-8 170l143 182q219 -153 379 -153q91 0 152 50.5t61 135.5q0 27 -6.5 49.5t-23 43t-32 36t-45 34.5t-49.5 30.5t-59.5 33t-60.5 33.5q-67 41 -113 77t-88 84t-63 106.5t-21 129.5q0 179 125.5 296.5t333.5 117.5q241 0 489 -156l-143 -182q-75 48 -168.5 82.5 t-167.5 34.5q-83 0 -141 -46t-58 -132q0 -24 5 -43.5t19.5 -38t27 -31.5t41 -31t46 -28.5t58 -32.5t63.5 -35q53 -32 90.5 -58.5t79.5 -65.5t68 -79t43.5 -94.5t17.5 -116.5q0 -185 -133 -305.5t-346 -120.5q-146 0 -281.5 56t-242.5 137zM535 1526l251 276h291l-332 -276 h-210z" />
<glyph unicode="&#x15b;" horiz-adv-x="923" d="M-20 129l120 168q74 -49 162 -85t156 -36q62 0 103.5 31t41.5 88q0 14 -2.5 26.5t-10 23.5t-14 19.5t-20.5 17.5t-23 15t-29 15.5t-30.5 14l-35 15t-36.5 15.5q-45 21 -76 38.5t-68 46t-60 59t-38.5 75t-15.5 96.5q0 145 104 235.5t275 90.5q109 0 215.5 -37t184.5 -88 l-117 -166q-63 38 -139.5 66t-137.5 28t-99 -29t-38 -81q0 -18 4.5 -33.5t16.5 -28.5t22 -22.5t31.5 -20.5t33.5 -16.5t40.5 -17.5t40.5 -17q48 -23 82 -42t72 -49t61.5 -61.5t39 -75.5t15.5 -96q0 -150 -107.5 -242t-283.5 -92q-124 0 -239 44.5t-201 107.5zM399 1217 l252 276h291l-332 -276h-211z" />
<glyph unicode="&#x15c;" horiz-adv-x="1103" d="M-8 170l143 182q219 -153 379 -153q91 0 152 50.5t61 135.5q0 27 -6.5 49.5t-23 43t-32 36t-45 34.5t-49.5 30.5t-59.5 33t-60.5 33.5q-67 41 -113 77t-88 84t-63 106.5t-21 129.5q0 179 125.5 296.5t333.5 117.5q241 0 489 -156l-143 -182q-75 48 -168.5 82.5 t-167.5 34.5q-83 0 -141 -46t-58 -132q0 -24 5 -43.5t19.5 -38t27 -31.5t41 -31t46 -28.5t58 -32.5t63.5 -35q53 -32 90.5 -58.5t79.5 -65.5t68 -79t43.5 -94.5t17.5 -116.5q0 -185 -133 -305.5t-346 -120.5q-146 0 -281.5 56t-242.5 137zM418 1526l225 276h236l125 -276 h-154l-100 160l-154 -160h-178z" />
<glyph unicode="&#x15d;" horiz-adv-x="923" d="M-20 129l120 168q74 -49 162 -85t156 -36q62 0 103.5 31t41.5 88q0 14 -2.5 26.5t-10 23.5t-14 19.5t-20.5 17.5t-23 15t-29 15.5t-30.5 14l-35 15t-36.5 15.5q-45 21 -76 38.5t-68 46t-60 59t-38.5 75t-15.5 96.5q0 145 104 235.5t275 90.5q109 0 215.5 -37t184.5 -88 l-117 -166q-63 38 -139.5 66t-137.5 28t-99 -29t-38 -81q0 -18 4.5 -33.5t16.5 -28.5t22 -22.5t31.5 -20.5t33.5 -16.5t40.5 -17.5t40.5 -17q48 -23 82 -42t72 -49t61.5 -61.5t39 -75.5t15.5 -96q0 -150 -107.5 -242t-283.5 -92q-124 0 -239 44.5t-201 107.5zM283 1217 l225 276h235l125 -276h-153l-101 159l-153 -159h-178z" />
<glyph unicode="&#x15e;" horiz-adv-x="1103" d="M-8 170l143 182q219 -153 379 -153q91 0 152 50.5t61 135.5q0 27 -6.5 49.5t-23 43t-32 36t-45 34.5t-49.5 30.5t-59.5 33t-60.5 33.5q-67 41 -113 77t-88 84t-63 106.5t-21 129.5q0 179 125.5 296.5t333.5 117.5q241 0 489 -156l-143 -182q-75 48 -168.5 82.5 t-167.5 34.5q-83 0 -141 -46t-58 -132q0 -24 5 -43.5t19.5 -38t27 -31.5t41 -31t46 -28.5t58 -32.5t63.5 -35q53 -32 90.5 -58.5t79.5 -65.5t68 -79t43.5 -94.5t17.5 -116.5q0 -178 -123 -296t-323 -127q26 -70 26 -130q0 -103 -61 -160t-154 -57q-88 0 -149 41l72 131 q37 -24 79 -24q39 0 66 25t27 81q0 30 -17 95q-241 27 -446 188z" />
<glyph unicode="&#x15f;" horiz-adv-x="923" d="M-20 129l120 168q74 -49 162 -85t156 -36q62 0 103.5 31t41.5 88q0 14 -2.5 26.5t-10 23.5t-14 19.5t-20.5 17.5t-23 15t-29 15.5t-30.5 14l-35 15t-36.5 15.5q-45 21 -76 38.5t-68 46t-60 59t-38.5 75t-15.5 96.5q0 145 104 235.5t275 90.5q109 0 215.5 -37t184.5 -88 l-117 -166q-63 38 -139.5 66t-137.5 28t-99 -29t-38 -81q0 -18 4.5 -33.5t16.5 -28.5t22 -22.5t31.5 -20.5t33.5 -16.5t40.5 -17.5t40.5 -17q48 -23 82 -42t72 -49t61.5 -61.5t39 -75.5t15.5 -96q0 -137 -92 -226.5t-246 -104.5q27 -73 27 -130q0 -103 -61 -160t-154 -57 q-89 0 -150 41l72 131q37 -24 80 -24q39 0 65.5 24.5t26.5 81.5q0 28 -17 93q-203 18 -382 149z" />
<glyph unicode="&#x160;" horiz-adv-x="1103" d="M-8 170l143 182q219 -153 379 -153q91 0 152 50.5t61 135.5q0 27 -6.5 49.5t-23 43t-32 36t-45 34.5t-49.5 30.5t-59.5 33t-60.5 33.5q-67 41 -113 77t-88 84t-63 106.5t-21 129.5q0 179 125.5 296.5t333.5 117.5q241 0 489 -156l-143 -182q-75 48 -168.5 82.5 t-167.5 34.5q-83 0 -141 -46t-58 -132q0 -24 5 -43.5t19.5 -38t27 -31.5t41 -31t46 -28.5t58 -32.5t63.5 -35q53 -32 90.5 -58.5t79.5 -65.5t68 -79t43.5 -94.5t17.5 -116.5q0 -185 -133 -305.5t-346 -120.5q-146 0 -281.5 56t-242.5 137zM467 1802h156l100 -160l154 160 h176l-224 -276h-235z" />
<glyph unicode="&#x161;" horiz-adv-x="921" d="M-20 129l120 168q74 -49 162 -85t156 -36q62 0 103.5 31t41.5 88q0 14 -2.5 26.5t-10 23.5t-14 19.5t-20.5 17.5t-23 15t-29 15.5t-30.5 14l-35 15t-36.5 15.5q-45 21 -76 38.5t-68 46t-60 59t-38.5 75t-15.5 96.5q0 145 104 235.5t275 90.5q109 0 215.5 -37t184.5 -88 l-117 -166q-63 38 -139.5 66t-137.5 28t-99 -29t-38 -81q0 -18 4.5 -33.5t16.5 -28.5t22 -22.5t31.5 -20.5t33.5 -16.5t40.5 -17.5t40.5 -17q48 -23 82 -42t72 -49t61.5 -61.5t39 -75.5t15.5 -96q0 -150 -107.5 -242t-283.5 -92q-124 0 -239 44.5t-201 107.5zM328 1493h155 l101 -160l153 160h176l-223 -276h-235z" />
<glyph unicode="&#x162;" horiz-adv-x="1005" d="M121 -326l72 131q37 -24 79 -24q39 0 66 25t27 81q0 44 -23 113h-72l213 1208h-344l39 226h938l-39 -226h-342l-215 -1208h-71q5 -9 12 -26t15.5 -53t8.5 -71q0 -103 -61 -160t-154 -57q-88 0 -149 41z" />
<glyph unicode="&#x163;" horiz-adv-x="716" d="M23 -326l71 131q37 -24 80 -24q39 0 65.5 24.5t26.5 81.5q0 47 -18 99q-182 43 -129 342l98 559h-121l33 188h121l47 262l250 49l-55 -311h235l-33 -188h-235l-103 -582q-19 -106 50 -106q36 0 145 47l55 -197q-124 -54 -246 -67q27 -73 27 -132q0 -103 -61 -160 t-154 -57q-88 0 -149 41z" />
<glyph unicode="&#x164;" horiz-adv-x="1005" d="M139 1208l39 226h938l-39 -226h-342l-215 -1208h-250l213 1208h-344zM420 1802h155l101 -160l153 160h177l-224 -276h-235z" />
<glyph unicode="&#x165;" horiz-adv-x="714" d="M96 887l33 188h121l47 262l250 49l-55 -311h235l-33 -188h-235l-103 -582q-19 -106 50 -106q36 0 145 47l55 -197q-176 -72 -291 -72q-123 0 -175 87t-21 264l98 559h-121zM602 1225l119 174h-82l41 229h184l-30 -250l-191 -217z" />
<glyph unicode="&#x166;" horiz-adv-x="1024" d="M147 1208l39 226h938l-39 -226h-342l-108 -608h160l-27 -154h-160l-80 -446h-249l77 446h-157l26 154h158l109 608h-345z" />
<glyph unicode="&#x167;" horiz-adv-x="714" d="M70 537l26 153h86l35 197h-121l33 188h121l47 262l250 49l-55 -311h235l-33 -188h-235l-35 -197h184l-26 -153h-185l-41 -232q-19 -106 50 -106q36 0 145 47l55 -197q-176 -72 -291 -72q-123 0 -175 87t-21 264l37 209h-86z" />
<glyph unicode="&#x168;" horiz-adv-x="1239" d="M100.5 361q0.5 80 18.5 180l157 893h252l-166 -932q-9 -54 -11.5 -95t5.5 -81t28 -65.5t59 -41.5t96 -16q70 0 122 22.5t85 65.5t52 93.5t31 117.5l166 932h252l-166 -932q-16 -93 -40.5 -167t-67.5 -143t-102 -114.5t-146 -73t-197 -27.5q-120 0 -205 29t-132.5 78 t-69 123t-21 154zM492 1610q23 36 32.5 50.5t29 41.5t32.5 38.5t32 26t39 20t43 5.5q38 0 79 -24.5t74.5 -49t55.5 -24.5q20 0 43.5 19t61.5 77l98 -74q-28 -46 -47 -73t-45 -54.5t-54.5 -40t-62.5 -12.5q-38 0 -78.5 24.5t-74 49t-56.5 24.5q-41 0 -104 -96z" />
<glyph unicode="&#x169;" d="M61 322l134 753h241l-127 -717q-33 -182 80 -182q61 0 137 45t133 101l134 753h241l-190 -1075h-242l23 129q-203 -152 -349 -152q-135 0 -190 91t-25 254zM362 1300q33 52 49 75t43.5 53.5t55 42.5t61.5 12q30 0 62.5 -15.5t55 -34t48 -34t43.5 -15.5q20 0 43.5 19.5 t61.5 77.5l98 -74q-28 -46 -47 -73t-45 -54.5t-54.5 -40t-62.5 -12.5q-38 0 -78.5 24.5t-74 49t-56.5 24.5q-41 0 -104 -96z" />
<glyph unicode="&#x16a;" horiz-adv-x="1239" d="M100.5 361q0.5 80 18.5 180l157 893h252l-166 -932q-9 -54 -11.5 -95t5.5 -81t28 -65.5t59 -41.5t96 -16q70 0 122 22.5t85 65.5t52 93.5t31 117.5l166 932h252l-166 -932q-16 -93 -40.5 -167t-67.5 -143t-102 -114.5t-146 -73t-197 -27.5q-120 0 -205 29t-132.5 78 t-69 123t-21 154zM528 1577l29 154h512l-27 -154h-514z" />
<glyph unicode="&#x16b;" d="M61 322l134 753h241l-127 -717q-33 -182 80 -182q61 0 137 45t133 101l134 753h241l-190 -1075h-242l23 129q-203 -152 -349 -152q-135 0 -190 91t-25 254zM389 1268l29 153h512l-27 -153h-514z" />
<glyph unicode="&#x16c;" horiz-adv-x="1239" d="M100.5 361q0.5 80 18.5 180l157 893h252l-166 -932q-9 -54 -11.5 -95t5.5 -81t28 -65.5t59 -41.5t96 -16q70 0 122 22.5t85 65.5t52 93.5t31 117.5l166 932h252l-166 -932q-16 -93 -40.5 -167t-67.5 -143t-102 -114.5t-146 -73t-197 -27.5q-120 0 -205 29t-132.5 78 t-69 123t-21 154zM549 1767h149q-12 -98 93 -98q62 0 103 25t48 73h152q-20 -114 -101 -177.5t-209 -63.5q-130 0 -192 66t-43 175z" />
<glyph unicode="&#x16d;" d="M61 322l134 753h241l-127 -717q-33 -182 80 -182q61 0 137 45t133 101l134 753h241l-190 -1075h-242l23 129q-203 -152 -349 -152q-135 0 -190 91t-25 254zM408 1458h149q-12 -98 92 -98q62 0 103.5 25t48.5 73h151q-20 -114 -100.5 -177.5t-208.5 -63.5q-130 0 -192 66 t-43 175z" />
<glyph unicode="&#x16e;" horiz-adv-x="1239" d="M100.5 361q0.5 80 18.5 180l157 893h252l-166 -932q-9 -54 -11.5 -95t5.5 -81t28 -65.5t59 -41.5t96 -16q70 0 122 22.5t85 65.5t52 93.5t31 117.5l166 932h252l-166 -932q-16 -93 -40.5 -167t-67.5 -143t-102 -114.5t-146 -73t-197 -27.5q-120 0 -205 29t-132.5 78 t-69 123t-21 154zM604 1714q0 88 60.5 149.5t148.5 61.5t148.5 -61.5t60.5 -149.5t-60.5 -148.5t-148.5 -60.5t-148.5 60.5t-60.5 148.5zM723 1714q0 -37 26.5 -62.5t63.5 -25.5t63.5 25.5t26.5 62.5t-26.5 63.5t-63.5 26.5t-63.5 -26.5t-26.5 -63.5z" />
<glyph unicode="&#x16f;" d="M61 322l134 753h241l-127 -717q-33 -182 80 -182q61 0 137 45t133 101l134 753h241l-190 -1075h-242l23 129q-203 -152 -349 -152q-135 0 -190 91t-25 254zM465 1405q0 88 60.5 149.5t148.5 61.5t148.5 -61.5t60.5 -149.5t-60.5 -148.5t-148.5 -60.5t-148.5 60.5 t-60.5 148.5zM584 1405q0 -37 26.5 -62.5t63.5 -25.5t63.5 25.5t26.5 62.5t-26.5 63.5t-63.5 26.5t-63.5 -26.5t-26.5 -63.5z" />
<glyph unicode="&#x170;" horiz-adv-x="1239" d="M100.5 361q0.5 80 18.5 180l157 893h252l-166 -932q-9 -54 -11.5 -95t5.5 -81t28 -65.5t59 -41.5t96 -16q70 0 122 22.5t85 65.5t52 93.5t31 117.5l166 932h252l-166 -932q-16 -93 -40.5 -167t-67.5 -143t-102 -114.5t-146 -73t-197 -27.5q-120 0 -205 29t-132.5 78 t-69 123t-21 154zM530 1526l177 276h227l-258 -276h-146zM825 1526l179 276h227l-260 -276h-146z" />
<glyph unicode="&#x171;" d="M61 322l134 753h241l-127 -717q-33 -182 80 -182q61 0 137 45t133 101l134 753h241l-190 -1075h-242l23 129q-203 -152 -349 -152q-135 0 -190 91t-25 254zM389 1217l176 276h228l-258 -276h-146zM684 1217l178 276h228l-261 -276h-145z" />
<glyph unicode="&#x172;" horiz-adv-x="1239" d="M102.5 363q1.5 79 18.5 178l158 893h251l-165 -932q-9 -54 -11.5 -94.5t5 -81t27.5 -66t59 -41.5t96 -16q70 0 122 22.5t85 65.5t52 93.5t31 117.5l166 932h252l-166 -932q-14 -77 -32.5 -140t-49 -124t-70.5 -106.5t-97.5 -80.5t-128.5 -53q-91 -61 -140 -109.5 t-49 -97.5q0 -14 3.5 -24t13 -16t16 -10t21.5 -5.5t21 -2t23 0t19 0.5l-47 -123h-9q-23 0 -38.5 0.5t-46 4t-51 13t-42.5 25t-33.5 43t-11.5 63.5q0 123 160 217q-115 2 -197 32.5t-128 79.5t-67 122t-19.5 152z" />
<glyph unicode="&#x173;" d="M61 322l134 753h241l-127 -717q-33 -182 80 -182q61 0 137 45t133 101l134 753h241l-190 -1075h-6q-93 -61 -143 -110t-50 -99q0 -14 3.5 -24t13 -16t16 -10t21.5 -5.5t21 -2t23 0t19 0.5l-47 -123h-9q-23 0 -38.5 0.5t-46 4t-51 13t-42.5 25t-33.5 43t-11.5 63.5 q0 75 52.5 132.5t148.5 107.5h-82l23 129q-203 -152 -349 -152q-135 0 -190 91t-25 254z" />
<glyph unicode="&#x174;" horiz-adv-x="1646" d="M184 1434h275l2 -1037l393 1037h207l26 -1035l365 1035h291l-576 -1434h-245l-31 1028l-391 -1028h-244zM688 1526l225 276h236l125 -276h-154l-100 160l-154 -160h-178z" />
<glyph unicode="&#x175;" horiz-adv-x="1429" d="M123 1075h250l12 -766l311 766h189l37 -766l280 766h260l-458 -1075h-226l-45 729l-305 -729h-225zM524 1217l226 276h235l125 -276h-154l-100 159l-154 -159h-178z" />
<glyph unicode="&#x177;" horiz-adv-x="995" d="M-29 -254q116 47 180 91t115 122l-155 1116h249l70 -774l344 774h264l-526 -1075q-79 -160 -124 -222q-88 -122 -239 -186q-55 -24 -124 -43zM305 1217l225 276h236l125 -276h-154l-100 159l-154 -159h-178z" />
<glyph unicode="&#x178;" horiz-adv-x="1122" d="M158 1434h266l156 -633l374 633h291l-569 -863l-101 -571h-249l98 567zM467 1546l41 226h197l-39 -226h-199zM778 1546l41 226h197l-39 -226h-199z" />
<glyph unicode="&#x179;" horiz-adv-x="1085" d="M-43 0l35 203l784 1005h-571l39 226h899l-35 -201l-786 -1010h620l-39 -223h-946zM537 1526l251 276h291l-331 -276h-211z" />
<glyph unicode="&#x17a;" horiz-adv-x="942" d="M-43 0l33 180l610 684h-475l39 211h788l-32 -180l-611 -684h490l-37 -211h-805zM399 1217l252 276h291l-332 -276h-211z" />
<glyph unicode="&#x17b;" horiz-adv-x="1085" d="M-43 0l35 203l784 1005h-571l39 226h899l-35 -201l-786 -1010h620l-39 -223h-946zM616 1546l39 228h203l-41 -228h-201z" />
<glyph unicode="&#x17c;" horiz-adv-x="942" d="M-43 0l33 180l610 684h-475l39 211h788l-32 -180l-611 -684h490l-37 -211h-805zM477 1237l39 227h203l-41 -227h-201z" />
<glyph unicode="&#x17d;" horiz-adv-x="1085" d="M-43 0l35 203l784 1005h-571l39 226h899l-35 -201l-786 -1010h620l-39 -223h-946zM465 1802h156l100 -160l153 160h177l-224 -276h-235z" />
<glyph unicode="&#x17e;" horiz-adv-x="942" d="M-43 0l33 180l610 684h-475l39 211h788l-32 -180l-611 -684h490l-37 -211h-805zM330 1493h155l101 -160l153 160h176l-223 -276h-235z" />
<glyph unicode="&#x17f;" horiz-adv-x="577" d="M-176 -262q32 12 56 21.5t46 21.5t37 20t28.5 22.5t22 23.5t17 28.5t13 32t11 39.5t9.5 45t10 55l147 840h-119l35 188h117l16 86q28 172 94 252t189 80q135 0 313 -94l-112 -166q-30 14 -78.5 27.5t-75.5 13.5q-68 0 -88 -105l-195 -1106q-17 -100 -26 -143.5 t-30.5 -106.5t-46.5 -90t-72 -63.5t-110.5 -60.5t-158.5 -50z" />
<glyph unicode="&#x192;" horiz-adv-x="1001" d="M-119 -418l475 1305h-123l74 188h117l35 94q62 176 135 250t199 74q59 0 129.5 -21.5t111.5 -41t74 -39.5l-143 -166q-106 52 -160 47q-65 -3 -105 -111l-32 -86h239l-73 -188h-234l-475 -1305h-244z" />
<glyph unicode="&#x1fc;" horiz-adv-x="1787" d="M-139 0l1040 1434h936l-39 -226h-567l-68 -381h465l-39 -221h-465l-67 -383h577l-39 -223h-829l53 305h-426l-213 -305h-319zM545 522h313l107 604zM946 1526l252 276h291l-332 -276h-211z" />
<glyph unicode="&#x1fd;" horiz-adv-x="1611" d="M55 336q0 198 53 370t157.5 282t238.5 110q46 0 87.5 -13.5t76.5 -39.5t58.5 -48.5t51.5 -54.5l25 133h241l-2 -12q84 35 187 35q153 0 242.5 -78t89.5 -209q0 -99 -40.5 -171t-115.5 -114t-172 -62t-219 -20h-86v-34q0 -242 153 -242q20 0 41.5 3.5t48.5 13.5t44 16 t50.5 23t44 22.5t49 27t42.5 23.5l76 -172q-80 -51 -204.5 -99.5t-244.5 -48.5q-96 0 -172 39l-2 -16h-242l25 143q-170 -166 -324 -166q-115 0 -186.5 92.5t-71.5 266.5zM303 375q0 -90 29.5 -141.5t85.5 -51.5q65 0 126 44.5t130 125.5l8 45v17q0 189 59 334 q-37 65 -86 105t-102 40q-75 0 -134 -84.5t-87.5 -201t-28.5 -232.5zM739 1217l252 276h291l-332 -276h-211zM946 590h78q150 0 230.5 56.5t80.5 150.5q0 55 -33.5 85.5t-89.5 30.5q-96 0 -165.5 -91t-100.5 -232z" />
<glyph unicode="&#x1fe;" horiz-adv-x="1320" d="M10 0l158 197q-72 129 -72 325q0 73 10.5 154.5t34.5 173t59 177t89 164.5t119.5 137t154.5 93t191 35q215 0 342 -106l67 84h180l-157 -197q74 -132 74 -324q0 -73 -10.5 -154.5t-34.5 -173.5t-59 -177.5t-89 -164.5t-119.5 -137.5t-154.5 -93.5t-191 -35 q-216 0 -344 107l-68 -84h-180zM352 524q0 -49 6 -92l580 721q-65 78 -193 78q-85 0 -155 -58t-113 -142.5t-72.5 -185.5t-41 -182.5t-11.5 -138.5zM416 281q65 -78 194 -78q62 0 116 30.5t92.5 80t70.5 114.5t52.5 132.5t34 135.5t19.5 121t6 92q0 48 -6 92zM647 1526 l252 276h291l-332 -276h-211z" />
<glyph unicode="&#x1ff;" d="M-8 0l125 150q-62 100 -62 251q0 96 18 191.5t58.5 187.5t99 162t146.5 113t194 43q163 0 273 -82l51 59h147l-120 -143q67 -103 67 -258q0 -96 -18 -191.5t-58.5 -187.5t-98.5 -162t-146 -113t-193 -43q-172 0 -280 86l-54 -63h-149zM297 365l405 481q-43 55 -133 55 q-68 0 -123 -54t-86 -135.5t-47 -164t-16 -150.5v-32zM336 233q44 -59 139 -59q55 0 102 36.5t77.5 92.5t52.5 125t31.5 133t9.5 117q0 22 -3 43zM455 1217l252 276h290l-331 -276h-211z" />
<glyph unicode="&#x218;" horiz-adv-x="1103" d="M-8 170l143 182q219 -153 379 -153q91 0 152 50.5t61 135.5q0 27 -6.5 49.5t-23 43t-32 36t-45 34.5t-49.5 30.5t-59.5 33t-60.5 33.5q-67 41 -113 77t-88 84t-63 106.5t-21 129.5q0 179 125.5 296.5t333.5 117.5q241 0 489 -156l-143 -182q-75 48 -168.5 82.5 t-167.5 34.5q-83 0 -141 -46t-58 -132q0 -24 5 -43.5t19.5 -38t27 -31.5t41 -31t46 -28.5t58 -32.5t63.5 -35q53 -32 90.5 -58.5t79.5 -65.5t68 -79t43.5 -94.5t17.5 -116.5q0 -185 -133 -305.5t-346 -120.5q-146 0 -281.5 56t-242.5 137zM254 -524l119 174h-82l41 229h184 l-31 -250l-190 -217z" />
<glyph unicode="&#x219;" horiz-adv-x="923" d="M-20 129l120 168q74 -49 162 -85t156 -36q62 0 103.5 31t41.5 88q0 14 -2.5 26.5t-10 23.5t-14 19.5t-20.5 17.5t-23 15t-29 15.5t-30.5 14l-35 15t-36.5 15.5q-45 21 -76 38.5t-68 46t-60 59t-38.5 75t-15.5 96.5q0 145 104 235.5t275 90.5q109 0 215.5 -37t184.5 -88 l-117 -166q-63 38 -139.5 66t-137.5 28t-99 -29t-38 -81q0 -18 4.5 -33.5t16.5 -28.5t22 -22.5t31.5 -20.5t33.5 -16.5t40.5 -17.5t40.5 -17q48 -23 82 -42t72 -49t61.5 -61.5t39 -75.5t15.5 -96q0 -150 -107.5 -242t-283.5 -92q-124 0 -239 44.5t-201 107.5zM162 -524 l119 174h-82l41 229h184l-31 -250l-190 -217z" />
<glyph unicode="&#x21a;" horiz-adv-x="1005" d="M139 1208l39 226h938l-39 -226h-342l-215 -1208h-250l213 1208h-344zM207 -524l119 174h-82l41 229h184l-31 -250l-190 -217z" />
<glyph unicode="&#x21b;" horiz-adv-x="714" d="M27 -524l118 174h-82l41 229h185l-31 -250l-190 -217zM96 887l33 188h121l47 262l250 49l-55 -311h235l-33 -188h-235l-103 -582q-19 -106 50 -106q36 0 145 47l55 -197q-176 -72 -291 -72q-123 0 -175 87t-21 264l98 559h-121z" />
<glyph unicode="&#x2b0;" horiz-adv-x="716" d="M121 788l158 895h167l-57 -325q121 90 215 90q87 0 121.5 -55t17.5 -158l-79 -447h-168l73 420q19 103 -45 103q-38 0 -81.5 -26t-77.5 -60l-76 -437h-168z" />
<glyph unicode="&#x2b2;" horiz-adv-x="530" d="M76 645q50 18 76 30.5t41.5 31t20.5 34t11 50.5l115 643h168l-113 -629q-6 -33 -8.5 -47.5t-8.5 -40.5t-11 -37.5t-14 -31.5t-19.5 -29.5t-25.5 -24.5t-33.5 -23.5t-43 -20t-54 -20.5t-66.5 -18zM352 1528l27 153h176l-27 -153h-176z" />
<glyph unicode="&#x2b7;" horiz-adv-x="811" d="M119 1434h174l6 -437l182 437h129l25 -435l160 435h180l-283 -646h-155l-29 416l-180 -416h-154z" />
<glyph unicode="&#x2b8;" horiz-adv-x="675" d="M109 649q70 27 108.5 50t69.5 65l-103 670h174l41 -443l201 443h184l-327 -646q-20 -40 -32 -62.5t-32.5 -54.5t-41 -51t-50.5 -41.5t-68.5 -38.5t-87.5 -28z" />
<glyph unicode="&#x2c6;" horiz-adv-x="497" d="M168 1217l225 276h236l125 -276h-154l-100 159l-154 -159h-178z" />
<glyph unicode="&#x2c7;" horiz-adv-x="499" d="M219 1493h156l100 -160l154 160h176l-223 -276h-236z" />
<glyph unicode="&#x2d8;" horiz-adv-x="477" d="M223 1458h150q-12 -98 92 -98q62 0 103 25t48 73h152q-20 -114 -100.5 -177.5t-208.5 -63.5q-130 0 -192.5 66t-43.5 175z" />
<glyph unicode="&#x2d9;" horiz-adv-x="167" d="M199 1237l39 227h202l-41 -227h-200z" />
<glyph unicode="&#x2da;" horiz-adv-x="421" d="M129 1405q0 88 60.5 149.5t148.5 61.5t148.5 -61.5t60.5 -149.5t-60.5 -148.5t-148.5 -60.5t-148.5 60.5t-60.5 148.5zM248 1405q0 -37 26.5 -62.5t63.5 -25.5t63.5 25.5t26.5 62.5t-26.5 63.5t-63.5 26.5t-63.5 -26.5t-26.5 -63.5z" />
<glyph unicode="&#x2db;" horiz-adv-x="274" d="M-82 -240q0 83 64.5 145t181.5 118l112 -21q-96 -63 -146 -112t-50 -99q0 -14 3.5 -24t13 -16t16 -10t21.5 -5.5t21 -2t23 0t19 0.5l-47 -123h-9q-23 0 -38.5 0.5t-46 4t-51 13t-42.5 25t-33.5 43t-11.5 63.5z" />
<glyph unicode="&#x2dc;" horiz-adv-x="512" d="M182 1300q33 52 49 75t43.5 53.5t55 42.5t61.5 12q30 0 62.5 -15.5t55 -34t48 -34t43.5 -15.5q20 0 43.5 19.5t61.5 77.5l98 -74q-28 -46 -47 -73t-45 -54.5t-54.5 -40t-62.5 -12.5q-38 0 -78.5 24.5t-74 49t-56.5 24.5q-41 0 -104 -96z" />
<glyph unicode="&#x2dd;" horiz-adv-x="573" d="M174 1217l176 276h228l-259 -276h-145zM469 1217l178 276h227l-260 -276h-145z" />
<glyph unicode="&#x2e3;" horiz-adv-x="696" d="M59 788l275 324l-148 322h176l80 -224l158 224h201l-264 -322l159 -324h-180l-86 226l-160 -226h-211z" />
<glyph unicode="&#x3c0;" horiz-adv-x="978" d="M70 0l151 860h-137l37 215h895l-37 -215h-141l-152 -860h-209l152 860h-199l-151 -860h-209z" />
<glyph unicode="&#x1e80;" horiz-adv-x="1646" d="M184 1434h275l2 -1037l393 1037h207l26 -1035l365 1035h291l-576 -1434h-245l-31 1028l-391 -1028h-244zM719 1802h262l162 -276h-187z" />
<glyph unicode="&#x1e81;" horiz-adv-x="1429" d="M123 1075h250l12 -766l311 766h189l37 -766l280 766h260l-458 -1075h-226l-45 729l-305 -729h-225zM559 1493h262l162 -276h-186z" />
<glyph unicode="&#x1e82;" horiz-adv-x="1646" d="M184 1434h275l2 -1037l393 1037h207l26 -1035l365 1035h291l-576 -1434h-245l-31 1028l-391 -1028h-244zM805 1526l252 276h291l-332 -276h-211z" />
<glyph unicode="&#x1e83;" horiz-adv-x="1429" d="M123 1075h250l12 -766l311 766h189l37 -766l280 766h260l-458 -1075h-226l-45 729l-305 -729h-225zM643 1217l252 276h291l-332 -276h-211z" />
<glyph unicode="&#x1e84;" horiz-adv-x="1646" d="M184 1434h275l2 -1037l393 1037h207l26 -1035l365 1035h291l-576 -1434h-245l-31 1028l-391 -1028h-244zM727 1534l41 225h197l-39 -225h-199zM1038 1534l41 225h197l-39 -225h-199z" />
<glyph unicode="&#x1e85;" horiz-adv-x="1429" d="M123 1075h250l12 -766l311 766h189l37 -766l280 766h260l-458 -1075h-226l-45 729l-305 -729h-225zM569 1237l41 225h197l-39 -225h-199zM881 1237l41 225h196l-39 -225h-198z" />
<glyph unicode="&#x1e9e;" horiz-adv-x="1417" d="M39 0l164 928q44 253 169 379.5t357 126.5h619l-31 -177l-350 -393q173 -42 264.5 -152t91.5 -259q0 -88 -32.5 -171.5t-92.5 -152t-158.5 -110.5t-218.5 -42q-215 0 -403 129l133 185q142 -94 260 -94q115 0 184.5 72.5t69.5 172.5q0 32 -8 61.5t-30.5 61t-58.5 54 t-97 37t-140 14.5h-88l29 170l327 368h-272q-113 0 -181.5 -72.5t-99.5 -250.5l-155 -885h-252z" />
<glyph unicode="&#x1ef2;" horiz-adv-x="1122" d="M158 1434h266l156 -633l374 633h291l-569 -863l-101 -571h-249l98 567zM459 1802h262l162 -276h-187z" />
<glyph unicode="&#x1ef3;" horiz-adv-x="995" d="M-29 -254q116 47 180 91t115 122l-155 1116h249l70 -774l344 774h264l-526 -1075q-79 -160 -124 -222q-88 -122 -239 -186q-55 -24 -124 -43zM340 1493h262l162 -276h-186z" />
<glyph unicode="&#x2000;" horiz-adv-x="962" />
<glyph unicode="&#x2001;" horiz-adv-x="1925" />
<glyph unicode="&#x2002;" horiz-adv-x="962" />
<glyph unicode="&#x2003;" horiz-adv-x="1925" />
<glyph unicode="&#x2004;" horiz-adv-x="641" />
<glyph unicode="&#x2005;" horiz-adv-x="481" />
<glyph unicode="&#x2006;" horiz-adv-x="320" />
<glyph unicode="&#x2007;" horiz-adv-x="320" />
<glyph unicode="&#x2008;" horiz-adv-x="240" />
<glyph unicode="&#x2009;" horiz-adv-x="385" />
<glyph unicode="&#x200a;" horiz-adv-x="106" />
<glyph unicode="&#x2010;" horiz-adv-x="763" d="M92 479l37 207h528l-34 -207h-531z" />
<glyph unicode="&#x2011;" horiz-adv-x="763" d="M92 479l37 207h528l-34 -207h-531z" />
<glyph unicode="&#x2012;" horiz-adv-x="763" d="M92 479l37 207h528l-34 -207h-531z" />
<glyph unicode="&#x2013;" horiz-adv-x="978" d="M92 481l37 205h743l-34 -205h-746z" />
<glyph unicode="&#x2014;" horiz-adv-x="1153" d="M92 481l37 205h920l-37 -205h-920z" />
<glyph unicode="&#x2018;" horiz-adv-x="471" d="M154 856l41 336l254 278l51 -84l-156 -223h111l-54 -307h-247z" />
<glyph unicode="&#x2019;" horiz-adv-x="456" d="M152 903l155 223h-110l53 308h248l-41 -336l-254 -279z" />
<glyph unicode="&#x201a;" horiz-adv-x="485" d="M-35 -223l156 223h-111l53 307h248l-41 -336l-254 -278z" />
<glyph unicode="&#x201c;" horiz-adv-x="845" d="M154 856l41 336l254 278l51 -84l-156 -223h111l-54 -307h-247zM528 856l41 336l254 278l51 -84l-155 -223h110l-53 -307h-248z" />
<glyph unicode="&#x201d;" horiz-adv-x="831" d="M152 903l155 223h-110l53 308h248l-41 -336l-254 -279zM526 903l156 223h-111l54 308h247l-41 -336l-253 -279z" />
<glyph unicode="&#x201e;" horiz-adv-x="860" d="M-35 -223l156 223h-111l53 307h248l-41 -336l-254 -278zM340 -223l156 223h-111l53 307h248l-41 -336l-254 -278z" />
<glyph unicode="&#x2020;" horiz-adv-x="1017" d="M82 778l37 209l358 -26l84 473h182l-84 -473l373 26l-37 -209l-362 25l-215 -1221h-182l215 1221z" />
<glyph unicode="&#x2021;" horiz-adv-x="1079" d="M16 242l37 209l361 -27l67 379l-370 -25l39 209l358 -26l84 473h184l-84 -473l371 26l-37 -209l-362 25l-68 -379l373 27l-37 -209l-363 24l-120 -684h-183l121 684z" />
<glyph unicode="&#x2022;" horiz-adv-x="882" d="M141 584q0 123 86 209t209 86q122 0 208.5 -86t86.5 -209t-86.5 -209t-208.5 -86q-123 0 -209 86t-86 209z" />
<glyph unicode="&#x2026;" horiz-adv-x="1294" d="M10 0l53 307h250l-53 -307h-250zM418 0l53 307h250l-53 -307h-250zM823 0l54 307h249l-53 -307h-250z" />
<glyph unicode="&#x202f;" horiz-adv-x="385" />
<glyph unicode="&#x2030;" horiz-adv-x="2451" d="M141 989q0 65 13.5 129.5t42.5 126t70.5 108t102 75t132.5 28.5q133 0 219 -76.5t86 -224.5q0 -82 -22.5 -162.5t-65 -149.5t-114 -112t-161.5 -43q-133 0 -218 76.5t-85 224.5zM324 987q0 -149 127 -149q43 0 78.5 34t55 85t30 103.5t10.5 96.5q0 150 -125 150 q-44 0 -79.5 -34t-55.5 -85.5t-30.5 -104t-10.5 -96.5zM352 0l854 1434h191l-854 -1434h-191zM946 279q0 65 13.5 129.5t42.5 125.5t70.5 107.5t102 75t132.5 28.5q133 0 219 -76.5t86 -224.5q0 -82 -22.5 -162.5t-65 -149.5t-114 -112t-161.5 -43q-132 0 -217.5 77 t-85.5 225zM1128 276q0 -149 127 -149q43 0 78.5 34t55.5 85t30.5 103.5t10.5 96.5q0 150 -125 150q-44 0 -80 -34t-56 -85.5t-30.5 -104t-10.5 -96.5zM1677 279q0 65 13.5 129.5t43 125.5t71 108t102.5 75t133 28q133 0 218 -76.5t85 -224.5q0 -65 -13.5 -129.5t-42.5 -126 t-70.5 -108t-102 -75t-132.5 -28.5q-133 0 -219 77t-86 225zM1862 276q0 -149 125 -149q44 0 79.5 34t55.5 85t30.5 103.5t10.5 96.5q0 150 -127 150q-43 0 -78.5 -34t-55 -85.5t-30 -104t-10.5 -96.5z" />
<glyph unicode="&#x2039;" horiz-adv-x="669" d="M37 483l29 156l583 440l-49 -274l-364 -260l274 -260l-43 -244z" />
<glyph unicode="&#x203a;" horiz-adv-x="669" d="M2 43l49 274l365 261l-275 260l43 243l430 -442l-28 -156z" />
<glyph unicode="&#x2044;" horiz-adv-x="335" d="M-305 0l799 1434h184l-799 -1434h-184z" />
<glyph unicode="&#x205f;" horiz-adv-x="481" />
<glyph unicode="&#x2070;" horiz-adv-x="778" d="M168 1073q0 40 6.5 92.5t21.5 122t44 133.5t68.5 119.5t101.5 89t137 33.5q76 0 131.5 -23.5t86 -66.5t44.5 -95t14 -116q0 -33 -4.5 -76t-16 -100.5t-29.5 -113t-48 -110t-68 -96t-93 -67t-120 -25.5q-146 0 -211 83t-65 216zM340 1059q0 -68 20.5 -106t81.5 -38 q54 0 97.5 59t66 142t34 153t11.5 109q0 68 -20.5 106t-81.5 38q-54 0 -97.5 -59.5t-66 -142.5t-34 -152.5t-11.5 -108.5z" />
<glyph unicode="&#x2074;" horiz-adv-x="763" d="M102 954l23 129l428 566h231l-96 -543h111l-27 -152h-110l-29 -166h-174l28 166h-385zM303 1106h211l66 371z" />
<glyph unicode="&#x2075;" horiz-adv-x="700" d="M102 897l99 115q91 -80 178 -80q63 0 110.5 42.5t47.5 115.5q0 52 -27 82t-80 30q-70 0 -143 -49l-92 61l116 435h473l-26 -152h-324l-37 -160q63 13 88 13q111 0 170.5 -70.5t59.5 -177.5q0 -86 -36.5 -159.5t-112 -121t-175.5 -47.5q-160 0 -289 123z" />
<glyph unicode="&#x2076;" horiz-adv-x="739" d="M160 1087q0 151 64 282.5t183 212.5t265 81q41 0 76 -6.5t50 -13.5l15 -7l-65 -131q-31 8 -72 8q-99 0 -180.5 -62t-124.5 -169q69 61 164 61q103 0 162 -68t59 -173q0 -85 -34.5 -158.5t-106 -121.5t-166.5 -48q-139 0 -214 90.5t-75 222.5zM334 1079q0 -67 29 -111 t83 -44q64 0 100 50.5t36 119.5q0 48 -26.5 81t-80.5 33q-43 0 -81.5 -27.5t-59.5 -60.5v-41z" />
<glyph unicode="&#x2077;" horiz-adv-x="606" d="M156 788q17 93 60 199t86.5 183t100 159t80 111.5t45.5 56.5h-327l26 152h525l-25 -142q-13 -15 -35.5 -42t-81.5 -109t-107.5 -163.5t-96.5 -193.5t-66 -211h-184z" />
<glyph unicode="&#x2078;" horiz-adv-x="745" d="M129 993q0 167 217 269q-90 73 -90 170q0 101 78.5 166t208.5 65q117 0 180 -54t63 -141q0 -133 -161 -219q131 -80 131 -211q0 -117 -93.5 -190.5t-248.5 -73.5q-135 0 -210 58.5t-75 160.5zM307 1012q0 -49 31 -74t86 -25q65 0 111.5 36.5t46.5 94.5q0 80 -107 140 q-78 -33 -123 -73t-45 -99zM420 1421q0 -63 72 -102q59 25 94 54.5t35 74.5q0 35 -23 57.5t-63 22.5q-50 0 -82.5 -32t-32.5 -75z" />
<glyph unicode="&#x2079;" horiz-adv-x="739" d="M137 801l68 131q30 -8 71 -8q99 0 182 63.5t124 169.5q-67 -63 -166 -63q-102 0 -161.5 68.5t-59.5 172.5q0 132 84 230t225 98q93 0 159.5 -45t97 -114t30.5 -154q0 -151 -64 -282.5t-183 -212.5t-265 -81q-40 0 -75.5 7t-51.5 13zM369 1343q0 -48 26.5 -81t79.5 -33 q45 0 85 29t56 61q2 12 2 37q0 69 -29 113t-85 44q-63 0 -99 -50.5t-36 -119.5z" />
<glyph unicode="&#x207a;" horiz-adv-x="651" d="M145 1135l23 127h207l39 213h127l-37 -213h209l-23 -127h-209l-37 -213h-129l37 213h-207z" />
<glyph unicode="&#x207d;" horiz-adv-x="419" d="M130.5 771.5q-2.5 54.5 12.5 133.5l113 629q8 44 13 66.5t15 53.5t22 46.5t32 35.5t48 32.5t66.5 25.5t90.5 25l28 -105q-79 -30 -102.5 -56.5t-32.5 -88.5l-127 -711q-14 -65 -2.5 -93t72.5 -56l-47 -97q-107 29 -153 67t-48.5 92.5z" />
<glyph unicode="&#x207e;" horiz-adv-x="417" d="M59 717q79 30 103 56.5t33 88.5l127 711q14 65 2.5 93t-72.5 56l47 97q107 -29 153 -67t48 -92.5t-13 -133.5l-112 -629q-8 -44 -13 -66.5t-15 -53.5t-22 -46.5t-32 -35.5t-48 -32.5t-66.5 -25.5t-90.5 -25z" />
<glyph unicode="&#x207f;" horiz-adv-x="716" d="M121 788l115 646h167l-14 -74q124 88 215 88q86 0 121 -55.5t18 -157.5l-79 -447h-168l75 422q7 47 -2 74t-45 27q-38 0 -81 -24.5t-76 -57.5l-78 -441h-168z" />
<glyph unicode="&#x2080;" horiz-adv-x="780" d="M-25 -23q0 40 6.5 92.5t21.5 122t44 133.5t68.5 119.5t101.5 89t137 33.5q76 0 131.5 -23.5t86.5 -66.5t45 -95t14 -116q0 -33 -4.5 -76t-16 -100.5t-29.5 -113t-48 -110t-68 -96t-93 -67t-120 -25.5q-146 0 -211.5 83t-65.5 216zM147 -37q0 -68 21 -105.5t82 -37.5 q54 0 97.5 59t66 142t34 153t11.5 109q0 68 -21 105.5t-82 37.5q-54 0 -97.5 -59.5t-66 -142.5t-34 -152.5t-11.5 -108.5z" />
<glyph unicode="&#x2081;" horiz-adv-x="557" d="M-16 424l227 129h164l-152 -860h-174l123 678l-129 -68z" />
<glyph unicode="&#x2082;" horiz-adv-x="698" d="M-104 -307l14 84q6 39 20 75t28 62.5t41 57t43 47t52.5 44.5t50.5 38t54 38q54 35 83 55.5t61 48t46 51t14 48.5q0 33 -23 52.5t-65 19.5q-79 0 -202 -74l-66 125q152 102 295 102q114 0 176 -58.5t62 -150.5q0 -41 -12 -79.5t-38.5 -73t-49.5 -59t-64.5 -55t-61.5 -43.5 t-63 -40q-78 -49 -112.5 -84.5t-43.5 -79.5h354l-26 -151h-567z" />
<glyph unicode="&#x2083;" horiz-adv-x="700" d="M-106 -203l94 115q60 -40 107 -60t98 -20q66 0 106.5 35.5t40.5 91.5q0 61 -54 89t-130 28h-29l25 151h36q70 0 129.5 33t59.5 86q0 31 -21 49.5t-59 18.5q-84 0 -197 -68l-57 123q153 98 293 98q107 0 164 -52t57 -132q0 -71 -46 -128.5t-124 -92.5q57 -24 92 -77 t35 -124q0 -51 -18 -99t-53 -90.5t-97 -68t-141 -25.5q-165 0 -311 119z" />
<glyph unicode="&#x2084;" horiz-adv-x="763" d="M-90 -141l22 129l428 565h232l-96 -543h110l-26 -151h-111l-29 -166h-174l29 166h-385zM111 10h211l65 371z" />
<glyph unicode="&#x2085;" horiz-adv-x="700" d="M-90 -199l98 115q91 -80 178 -80q63 0 110.5 42.5t47.5 115.5q0 53 -26.5 82.5t-79.5 29.5q-71 0 -144 -49l-92 62l117 434h473l-27 -152h-323l-37 -159q58 12 88 12q110 0 169.5 -70.5t59.5 -177.5q0 -134 -87 -231t-236 -97q-160 0 -289 123z" />
<glyph unicode="&#x2086;" horiz-adv-x="739" d="M-35 -8q0 113 38 217.5t104.5 183.5t163 126.5t206.5 47.5q41 0 76 -6.5t50 -12.5l15 -7l-65 -131q-31 8 -72 8q-99 0 -180.5 -62.5t-124.5 -169.5q71 62 164 62q103 0 162 -68.5t59 -173.5q0 -85 -34.5 -158.5t-106 -121.5t-166.5 -48q-139 0 -214 91t-75 223zM139 -16 q0 -67 29.5 -111.5t83.5 -44.5q64 0 99.5 50t35.5 120q0 48 -26 81.5t-80 33.5q-43 0 -82.5 -27.5t-59.5 -60.5v-41z" />
<glyph unicode="&#x2087;" horiz-adv-x="604" d="M-39 -307q17 93 60.5 199t86.5 182.5t100.5 159t80 111t45.5 56.5h-328l27 152h524l-25 -141q-13 -15 -35.5 -42t-81.5 -109t-107.5 -163.5t-96.5 -193.5t-66 -211h-184z" />
<glyph unicode="&#x2088;" horiz-adv-x="745" d="M-63 -102q0 166 217 268q-91 74 -91 170q0 101 78.5 166t208.5 65q118 0 181 -53.5t63 -140.5q0 -132 -162 -219q131 -80 131 -211q0 -117 -93.5 -191t-248.5 -74q-135 0 -209.5 59t-74.5 161zM115 -84q0 -49 30.5 -73.5t85.5 -24.5q65 0 111.5 36.5t46.5 94.5 q0 46 -28.5 78.5t-77.5 60.5q-78 -33 -123 -73t-45 -99zM227 326q0 -64 72 -103q59 25 94 54.5t35 74.5q0 35 -23 57.5t-63 22.5q-50 0 -82.5 -31.5t-32.5 -74.5z" />
<glyph unicode="&#x2089;" horiz-adv-x="739" d="M-55 -295l67 131q31 -8 72 -8q99 0 181 63.5t124 169.5q-67 -63 -166 -63q-102 0 -161.5 69t-59.5 173q0 132 84 229.5t225 97.5q93 0 159.5 -45t97 -114t30.5 -154q0 -151 -64 -282.5t-183 -212.5t-265 -81q-40 0 -75.5 7t-50.5 13zM176 248q0 -48 27 -81.5t80 -33.5 q45 0 85 29t56 61q2 12 2 37q0 69 -29.5 113.5t-85.5 44.5q-63 0 -99 -50.5t-36 -119.5z" />
<glyph unicode="&#x208a;" horiz-adv-x="649" d="M-49 39l22 127h207l39 213h127l-37 -213h209l-22 -127h-209l-37 -213h-129l37 213h-207z" />
<glyph unicode="&#x208d;" horiz-adv-x="419" d="M-62 -323.5q-2 54.5 13 133.5l112 628q8 44 13 66.5t15 53.5t22 46.5t32 35.5t48 32.5t66.5 25.5t90.5 25l29 -105q-79 -30 -102.5 -56.5t-32.5 -88.5l-127 -711q-14 -65 -3 -93t72 -56l-47 -96q-107 29 -153 67t-48 92.5z" />
<glyph unicode="&#x208e;" horiz-adv-x="417" d="M-135 -379q79 30 102.5 56.5t32.5 89.5l127 710q14 65 2.5 93.5t-72.5 56.5l47 96q107 -29 153 -67t48.5 -92.5t-12.5 -133.5l-113 -629q-10 -52 -15.5 -76.5t-18.5 -58.5t-30 -50.5t-47 -37t-72 -34t-103 -27.5z" />
<glyph unicode="&#x20a1;" horiz-adv-x="985" d="M104 578q0 134 27.5 250t73.5 197t107 139t128 86t135 28q22 0 58 -4l59 160h109l-68 -185q44 -17 47 -18l74 203h109l-93 -250q25 -16 65.5 -42.5t45.5 -29.5l-119 -170q-10 5 -31 20.5t-32 22.5l-215 -594q24 9 52.5 22.5t47 23t48.5 26t38 20.5l78 -190 q-3 -1 -31 -15.5t-38 -19.5t-39.5 -18.5t-46 -20t-45 -18t-50 -17.5t-48 -12.5t-50.5 -9.5l-58 -162h-108l57 160q-29 4 -51 12l-61 -172h-109l78 217q-144 108 -144 361zM352 602q0 -46 6 -84l191 524q-86 -41 -141.5 -164.5t-55.5 -275.5zM422 397q19 -13 49 -20l240 661 q-38 14 -49 17z" />
<glyph unicode="&#x20a4;" horiz-adv-x="1007" d="M0 0l33 180l16.5 11t41 31t57.5 50.5t59 69t53 86.5h-166l25 135h180q4 28 4 47q0 32 -6 66h-160l25 137h104q-41 148 -41 236q0 186 103.5 296.5t283.5 110.5q70 0 135.5 -16.5t123 -47.5t93.5 -56t80 -60l-133 -158q-150 117 -258 117q-82 0 -132 -57t-50 -146 q0 -27 5 -57.5t10.5 -51.5t16 -56t15.5 -54h316l-25 -137h-266q2 -10 2 -33q0 -43 -6 -80h249l-22 -135h-266q-53 -126 -146 -209h486l-39 -219h-801z" />
<glyph unicode="&#x20a7;" horiz-adv-x="1216" d="M59 0l162 920h-47l19 114h49l71 400h416q461 0 461 -377v-23h41l-21 -114h-34q-41 -182 -185.5 -289t-374.5 -107h-213l-92 -524h-252zM442 741h170q108 0 186.5 46.5t110.5 132.5h-436zM494 1034h436v4q0 174 -215 174h-191z" />
<glyph unicode="&#x20a9;" horiz-adv-x="1775" d="M70 500l26 155h191l-11 197h-145l29 156h108l-20 426h274v-426h234l162 426h206l11 -426h229l152 426h290l-172 -426h117l-29 -156h-149l-80 -197h195l-27 -155h-229l-201 -500h-246l-31 1028l-391 -1028h-244l-24 500h-225zM522 852l2 -457l172 457h-174zM1139 852 l12 -451l158 451h-170z" />
<glyph unicode="&#x20ac;" horiz-adv-x="1243" d="M61 483l25 144h94q6 85 21 168h-84l24 143h95q71 235 215 376.5t335 141.5q57 0 115 -13.5t101 -31.5t97 -51t84.5 -55t82.5 -62l-140 -182q-98 79 -173 118.5t-146 39.5q-93 0 -170 -76t-129 -205h395l-24 -143h-416q-18 -83 -27 -168h412l-25 -144h-389 q15 -268 187 -268q124 0 360 154l104 -205q-154 -89 -278.5 -138t-245.5 -49q-176 0 -277 129.5t-108 376.5h-115z" />
<glyph unicode="&#x2116;" horiz-adv-x="2043" d="M51 0l254 1434h252l307 -1020l178 1020h252l-252 -1434h-254l-307 1020l-178 -1020h-252zM1264 326l28 151h572l-27 -151h-573zM1305 899q0 64 13.5 132.5t45 137.5t76 123.5t113 88.5t149.5 34q144 0 239 -81t95 -242q0 -64 -14 -133t-45.5 -138.5t-77 -124t-114 -89 t-149.5 -34.5q-144 0 -237.5 82.5t-93.5 243.5zM1513 897q0 -147 127 -147q47 0 85 39t58.5 96.5t31 112t10.5 96.5q0 145 -127 145q-47 0 -84.5 -39t-58.5 -96t-31.5 -111.5t-10.5 -95.5z" />
<glyph unicode="&#x2117;" horiz-adv-x="1640" d="M109 641q0 131 32.5 251.5t98 223t158 178.5t219 119t274.5 43q206 0 360.5 -84.5t235 -234.5t80.5 -344q0 -131 -32.5 -251.5t-98.5 -223.5t-158.5 -179t-220 -119t-275.5 -43q-309 0 -491 184t-182 480zM186 643q0 -262 162.5 -426t442.5 -164q161 0 294 58.5 t220.5 159.5t135.5 234.5t48 285.5q0 261 -161.5 425t-442.5 164q-129 0 -240.5 -38t-195 -106t-143.5 -160t-90 -202.5t-30 -230.5zM537 285l151 862h285q117 0 185.5 -56.5t68.5 -168.5q0 -148 -95 -224.5t-253 -76.5h-189l-59 -336h-94zM705 705h192q99 0 167.5 59 t68.5 158q0 74 -46.5 108.5t-125.5 34.5h-193z" />
<glyph unicode="&#x2120;" horiz-adv-x="1136" d="M174 1030l57 78q82 -51 152 -51q28 0 50 11.5t22 33.5q0 10 -5.5 17t-17.5 13.5t-23.5 10.5t-33.5 12t-37 14q-109 51 -109 134q0 60 49.5 99.5t129.5 39.5q98 0 194 -56l-57 -71q-76 37 -129 37q-29 0 -48.5 -11t-19.5 -32q0 -14 11 -22.5t47 -22t53 -21.5 q23 -10 39.5 -20t35 -26t28 -38t9.5 -49q0 -63 -50.5 -103t-133.5 -40q-115 0 -213 63zM600 975l82 459h109l71 -265l172 265h109l-82 -459h-105l48 278l-130 -202h-61l-57 202l-49 -278h-107z" />
<glyph unicode="&#x2122;" horiz-adv-x="1120" d="M238 1339l16 95h364l-16 -95h-131l-63 -364h-105l64 364h-129zM590 975l80 459h110l70 -265l172 265h108l-81 -459h-105l49 276l-129 -200h-61l-58 211l-51 -287h-104z" />
<glyph unicode="&#x2126;" horiz-adv-x="1331" d="M33 0l39 219h186q-63 48 -104 138t-41 218q0 73 11 152.5t36 165.5t61 166.5t90.5 153t120 126.5t154 85.5t188.5 31.5q237 0 366.5 -131.5t129.5 -386.5q0 -246 -98.5 -454.5t-223.5 -264.5h172l-39 -219h-460l41 225q81 20 149.5 96.5t110.5 181.5t65 218.5t23 216.5 q0 293 -242 293q-69 0 -128 -31.5t-99.5 -82t-73 -118t-51.5 -136t-32 -140t-17.5 -125.5t-4.5 -96q0 -114 42 -180.5t128 -96.5l-38 -225h-461z" />
<glyph unicode="&#x2153;" horiz-adv-x="1521" d="M166 1305l227 129h164l-151 -861h-175l123 678l-129 -67zM207 0l799 1434h184l-799 -1434h-184zM762 104l94 115q60 -40 107 -60t98 -20q66 0 106.5 35.5t40.5 91.5q0 61 -54 89t-130 28h-29l25 152h37q70 0 129 32.5t59 85.5q0 31 -21 49.5t-59 18.5q-83 0 -196 -68 l-58 123q153 98 293 98q107 0 164 -52t57 -132q0 -70 -46 -128t-124 -93q57 -24 92 -77t35 -124q0 -51 -18 -99t-53 -90t-97 -67.5t-141 -25.5q-166 0 -311 118z" />
<glyph unicode="&#x2154;" horiz-adv-x="1726" d="M76 573l14 84q9 54 32 102.5t46 80t67 70.5t67.5 56t76.5 54q54 35 83 55.5t61.5 48t46.5 51t14 48.5q0 33 -23 52t-65 19q-81 0 -203 -73l-66 125q152 102 295 102q114 0 176 -58.5t62 -150.5q0 -41 -12 -79.5t-38.5 -73t-49.5 -59t-64.5 -55t-61.5 -43.5t-63 -40 q-78 -49 -112.5 -84.5t-43.5 -79.5h355l-27 -152h-567zM420 0l799 1434h184l-799 -1434h-184zM973 104l94 115q60 -40 107 -60t98 -20q66 0 106.5 35.5t40.5 91.5q0 61 -54 89t-130 28h-29l25 152h37q70 0 129 32.5t59 85.5q0 31 -21 49.5t-59 18.5q-83 0 -196 -68l-58 123 q153 98 293 98q107 0 164 -52t57 -132q0 -70 -46 -128t-124 -93q57 -24 92 -77t35 -124q0 -51 -18 -99t-53 -90t-97 -67.5t-141 -25.5q-166 0 -311 118z" />
<glyph unicode="&#x2155;" horiz-adv-x="1538" d="M166 1305l227 129h164l-151 -861h-175l123 678l-129 -67zM207 0l799 1434h184l-799 -1434h-184zM780 109l99 114q91 -80 178 -80q63 0 110 42.5t47 115.5q0 53 -26.5 83t-79.5 30q-70 0 -143 -49l-93 61l117 434h473l-26 -151h-324l-37 -160q58 12 88 12 q111 0 170.5 -70.5t59.5 -177.5q0 -64 -21.5 -122t-61.5 -104t-102.5 -73.5t-138.5 -27.5q-160 0 -289 123z" />
<glyph unicode="&#x2156;" horiz-adv-x="1738" d="M74 573l14 84q9 54 32 102.5t46 80t67 70.5t67.5 56t76.5 54q54 35 83 55.5t61.5 48t46.5 51t14 48.5q0 33 -23 52t-65 19q-81 0 -203 -73l-66 125q152 102 295 102q114 0 176 -58.5t62 -150.5q0 -41 -12 -79.5t-38.5 -73t-49.5 -59t-64.5 -55t-61.5 -43.5t-63 -40 q-78 -49 -112.5 -84.5t-43.5 -79.5h355l-27 -152h-567zM418 0l799 1434h184l-799 -1434h-184zM987 109l98 114q91 -80 179 -80q63 0 110 42.5t47 115.5q0 53 -26.5 83t-79.5 30q-71 0 -144 -49l-92 61l117 434h473l-27 -151h-323l-37 -160q58 12 88 12q110 0 169.5 -70.5 t59.5 -177.5q0 -86 -36 -159t-111.5 -120.5t-175.5 -47.5q-160 0 -289 123z" />
<glyph unicode="&#x2157;" horiz-adv-x="1710" d="M78 678l94 115q60 -40 107 -60t98 -20q66 0 106.5 35.5t40.5 91.5q0 61 -54 88.5t-130 27.5h-29l25 152h37q70 0 129 33t59 86q0 31 -21 49t-59 18q-84 0 -196 -67l-58 123q153 98 293 98q107 0 164 -52t57 -132q0 -71 -46 -129.5t-124 -92.5q58 -24 92.5 -76.5 t34.5 -123.5q0 -51 -18 -99t-53 -90.5t-97 -68t-141 -25.5q-165 0 -311 119zM381 0l799 1434h184l-799 -1434h-184zM954 109l99 114q91 -80 178 -80q63 0 110.5 42.5t47.5 115.5q0 53 -27 83t-80 30q-70 0 -143 -49l-92 61l116 434h473l-26 -151h-324l-37 -160q58 12 88 12 q111 0 170.5 -70.5t59.5 -177.5q0 -64 -21.5 -122t-61.5 -104t-102.5 -73.5t-138.5 -27.5q-160 0 -289 123z" />
<glyph unicode="&#x2158;" horiz-adv-x="1767" d="M80 739l22 129l428 566h232l-96 -543h110l-26 -152h-111l-29 -166h-174l29 166h-385zM281 891h211l65 371zM442 0l799 1434h184l-798 -1434h-185zM1012 109l98 114q91 -80 178 -80q63 0 110.5 42.5t47.5 115.5q0 53 -27 83t-80 30q-70 0 -143 -49l-92 61l117 434h473 l-27 -151h-324l-36 -160q58 12 88 12q110 0 169.5 -70.5t59.5 -177.5q0 -64 -21.5 -122t-61.5 -104t-102.5 -73.5t-138.5 -27.5q-159 0 -288 123z" />
<glyph unicode="&#x2159;" horiz-adv-x="1511" d="M166 1305l227 129h164l-151 -861h-175l123 678l-129 -67zM207 0l799 1434h184l-799 -1434h-184zM776 299q0 113 38 217.5t104.5 183.5t163 126.5t206.5 47.5q41 0 76.5 -6.5t50.5 -13.5l15 -6l-66 -131q-31 8 -72 8q-99 0 -180.5 -62t-124.5 -169q69 61 164 61 q103 0 162 -68.5t59 -173.5q0 -63 -20.5 -121.5t-58.5 -104.5t-97.5 -73.5t-130.5 -27.5q-139 0 -214 90.5t-75 222.5zM950 291q0 -67 29.5 -111.5t83.5 -44.5q64 0 99.5 50t35.5 120q0 48 -26 81.5t-80 33.5q-43 0 -82.5 -27.5t-59.5 -60.5v-41z" />
<glyph unicode="&#x215a;" horiz-adv-x="1652" d="M84 682l98 115q91 -80 178 -80q63 0 110.5 42.5t47.5 114.5q0 53 -26.5 83t-79.5 30q-71 0 -144 -49l-92 61l117 435h473l-27 -152h-323l-37 -160q63 13 88 13q110 0 169.5 -70.5t59.5 -177.5q0 -134 -87 -231t-236 -97q-160 0 -289 123zM354 0l799 1434h184l-798 -1434 h-185zM922 299q0 113 38 217.5t104.5 183.5t163 126.5t206.5 47.5q41 0 76 -6.5t50 -13.5l15 -6l-66 -131q-30 8 -71 8q-99 0 -180.5 -62t-124.5 -169q69 61 163 61q103 0 162.5 -68.5t59.5 -173.5q0 -132 -83.5 -229.5t-224.5 -97.5q-139 0 -213.5 90.5t-74.5 222.5z M1096 291q0 -67 29 -111.5t83 -44.5q64 0 99.5 50t35.5 120q0 48 -26 81.5t-80 33.5q-43 0 -81.5 -27.5t-59.5 -60.5v-41z" />
<glyph unicode="&#x215b;" horiz-adv-x="1533" d="M166 1305l227 129h164l-151 -861h-175l123 678l-129 -67zM207 0l799 1434h184l-799 -1434h-184zM768 205q0 166 217 268q-90 73 -90 170q0 101 78.5 166t208.5 65q117 0 180 -53.5t63 -140.5q0 -133 -161 -219q131 -80 131 -211q0 -117 -93.5 -190.5t-248.5 -73.5 q-135 0 -210 58.5t-75 160.5zM946 223q0 -48 31 -73t86 -25q65 0 111.5 36.5t46.5 94.5q0 79 -107 139q-78 -33 -123 -73t-45 -99zM1059 633q0 -65 71 -103q60 26 95 55.5t35 73.5q0 35 -23 57.5t-63 22.5q-50 0 -82.5 -31.5t-32.5 -74.5z" />
<glyph unicode="&#x215c;" horiz-adv-x="1699" d="M78 678l94 115q60 -40 107 -60t98 -20q66 0 106.5 35.5t40.5 91.5q0 61 -54 88.5t-130 27.5h-29l25 152h37q70 0 129 33t59 86q0 31 -21 49t-59 18q-84 0 -196 -67l-58 123q153 98 293 98q107 0 164 -52t57 -132q0 -71 -46 -129.5t-124 -92.5q58 -24 92.5 -76.5 t34.5 -123.5q0 -51 -18 -99t-53 -90.5t-97 -68t-141 -25.5q-165 0 -311 119zM381 0l799 1434h184l-799 -1434h-184zM938 205q0 166 217 268q-90 73 -90 170q0 101 78.5 166t208.5 65q117 0 180 -53.5t63 -140.5q0 -133 -161 -219q131 -80 131 -211q0 -117 -93.5 -190.5 t-248.5 -73.5q-135 0 -210 58.5t-75 160.5zM1116 223q0 -48 31 -73t86 -25q65 0 111.5 36.5t46.5 94.5q0 79 -107 139q-78 -33 -123 -73t-45 -99zM1229 633q0 -65 71 -103q60 26 95 55.5t35 73.5q0 35 -23.5 57.5t-63.5 22.5q-50 0 -82 -31.5t-32 -74.5z" />
<glyph unicode="&#x215d;" horiz-adv-x="1683" d="M82 682l98 115q91 -80 178 -80q63 0 110.5 42.5t47.5 114.5q0 53 -26.5 83t-79.5 30q-71 0 -144 -49l-92 61l117 435h473l-27 -152h-323l-37 -160q63 13 88 13q110 0 169.5 -70.5t59.5 -177.5q0 -134 -87 -231t-236 -97q-160 0 -289 123zM354 0l799 1434h184l-798 -1434 h-185zM920 205q0 166 217 268q-90 73 -90 170q0 101 78 166t208 65q118 0 181 -53.5t63 -140.5q0 -132 -162 -219q131 -80 131 -211q0 -117 -93.5 -190.5t-248.5 -73.5q-135 0 -209.5 58.5t-74.5 160.5zM1098 223q0 -49 30.5 -73.5t85.5 -24.5q65 0 111.5 36.5t46.5 94.5 q0 46 -28.5 78.5t-77.5 60.5q-78 -33 -123 -73t-45 -99zM1210 633q0 -64 72 -103q59 25 94 54.5t35 74.5q0 35 -23 57.5t-63 22.5q-50 0 -82.5 -31.5t-32.5 -74.5z" />
<glyph unicode="&#x215e;" horiz-adv-x="1513" d="M131 573q17 93 60 199t87 183t100.5 159t79.5 111.5t46 56.5h-328l27 152h524l-25 -142q-13 -15 -35.5 -42t-81.5 -109t-107.5 -163.5t-96.5 -193.5t-66 -211h-184zM190 0l799 1434h185l-799 -1434h-185zM754 205q0 166 217 268q-90 73 -90 170q0 101 78 166t208 65 q118 0 181 -53.5t63 -140.5q0 -132 -162 -219q131 -80 131 -211q0 -117 -93.5 -190.5t-248.5 -73.5q-135 0 -209.5 58.5t-74.5 160.5zM932 223q0 -48 31 -73t86 -25q65 0 111 36.5t46 94.5q0 46 -28.5 78.5t-77.5 60.5q-78 -33 -123 -73t-45 -99zM1044 633q0 -64 72 -103 q59 25 94 54.5t35 74.5q0 35 -23 57.5t-63 22.5q-50 0 -82.5 -31.5t-32.5 -74.5z" />
<glyph unicode="&#x2202;" horiz-adv-x="1122" d="M55 399q0 156 62 288t171.5 210t239.5 78q56 0 105 -16.5t78 -37.5t51.5 -48t31 -42t11.5 -24q-4 85 -25 158t-60.5 135t-106.5 97.5t-154 35.5q-34 0 -71 -4.5t-57 -9.5l-20 -5l6 199q68 21 166 21q137 0 243 -53.5t171.5 -148t99 -218.5t33.5 -271q0 -220 -66 -392.5 t-195 -273t-302 -100.5q-198 0 -305 113.5t-107 308.5zM305 393q0 -99 42 -159t136 -60q71 0 127 38t87.5 98t47 124t15.5 127q0 99 -44.5 158t-137.5 59q-65 0 -119 -36t-86.5 -93t-50 -123.5t-17.5 -132.5z" />
<glyph unicode="&#x2206;" horiz-adv-x="1239" d="M-57 0l694 1434h266l191 -1434h-1151zM289 219h559l-115 942z" />
<glyph unicode="&#x220f;" horiz-adv-x="1232" d="M109 0l213 1217h-158l39 217h1110l-39 -217h-158l-215 -1217h-250l215 1217h-295l-213 -1217h-249z" />
<glyph unicode="&#x2211;" horiz-adv-x="1026" d="M-25 0l23 137l551 584l-346 577l24 136h846l-39 -222h-516l299 -495l-446 -498h487l-37 -219h-846z" />
<glyph unicode="&#x2212;" horiz-adv-x="1105" d="M117 586l35 192h856l-35 -192h-856z" />
<glyph unicode="&#x221a;" horiz-adv-x="1083" d="M39 696h252l84 -428l581 1166h261l-740 -1434h-268z" />
<glyph unicode="&#x221e;" horiz-adv-x="1574" d="M82 477q0 105 43.5 196t126.5 147.5t188 56.5q55 0 102 -16.5t89.5 -52.5t74.5 -72.5t78 -96.5q74 68 114 102.5t93.5 71t100 50.5t100.5 14q130 0 199 -85t69 -214q0 -162 -100 -280t-256 -118q-56 0 -103 16.5t-90 52.5t-74.5 72.5t-76.5 96.5q-140 -132 -223.5 -185 t-184.5 -53q-131 0 -200.5 84.5t-69.5 212.5zM266 492q0 -61 34 -100.5t89 -39.5q56 0 115 40t170 143q-77 97 -122.5 132t-94.5 35q-84 0 -137.5 -63t-53.5 -147zM870 522q72 -95 119.5 -132.5t100.5 -37.5q84 0 136 65t52 148q0 62 -34 99.5t-89 37.5q-57 0 -118 -40.5 t-167 -139.5z" />
<glyph unicode="&#x222b;" horiz-adv-x="698" d="M-123 -293l27 152h33q25 0 46.5 5.5t38 13t31 24t24 29t19 37.5t15 40.5t12 47t9.5 48t9 52.5l203 1147q41 236 137 325.5t312 89.5h63l-25 -151h-34q-32 0 -58.5 -9t-44.5 -21t-34 -37.5t-25 -44t-18.5 -57t-14 -59.5t-12.5 -67l-203 -1147q-21 -121 -52 -198.5 t-83.5 -128t-126.5 -71t-184 -20.5h-64z" />
<glyph unicode="&#x2248;" horiz-adv-x="1105" d="M88 420q66 125 134 186.5t151 61.5q49 0 98.5 -21t83 -47t75.5 -47t79 -21q36 0 70 25t79 100l119 -57q-65 -123 -134 -185.5t-153 -62.5q-49 0 -98.5 21t-82.5 46.5t-75.5 46.5t-79.5 21q-35 0 -67.5 -24.5t-79.5 -100.5zM156 799q66 125 133.5 186.5t152.5 61.5 q49 0 98.5 -21.5t82.5 -46.5t74.5 -46.5t78.5 -21.5q36 0 69.5 25t80.5 100l116 -57q-64 -124 -132 -186t-152 -62q-49 0 -98.5 21t-83 46.5t-75.5 46.5t-79 21q-34 0 -67 -25.5t-81 -99.5z" />
<glyph unicode="&#x2260;" horiz-adv-x="1105" d="M84 397l35 193h301l96 188h-364l34 195h428l160 311l152 -67l-125 -244h241l-34 -195h-308l-96 -188h371l-35 -193h-434l-158 -311l-151 68l125 243h-238z" />
<glyph unicode="&#x2264;" horiz-adv-x="1105" d="M8 0l29 170h854l-29 -170h-854zM117 616l28 156l922 393l-41 -231l-643 -248l555 -252l-37 -211z" />
<glyph unicode="&#x2265;" horiz-adv-x="1103" d="M29 0l28 170h856l-30 -170h-854zM68 223l41 232l641 247l-553 252l36 211l787 -393l-29 -156z" />
<glyph unicode="&#x2318;" horiz-adv-x="1466" d="M61 358q0 129 91.5 204t226.5 75h139l29 160h-78q-116 0 -197.5 81.5t-81.5 196.5q0 116 82 198.5t197 82.5q53 0 103.5 -20t91.5 -57t62.5 -97t14.5 -133l-14 -103h129l23 133q19 108 79.5 183.5t167.5 89.5q34 6 68 0q103 -12 173.5 -92t70.5 -185q0 -129 -90.5 -203.5 t-225.5 -74.5h-139l-29 -160h78q116 0 197.5 -81.5t81.5 -197.5q0 -115 -81.5 -196.5t-197.5 -81.5q-120 0 -202 88.5t-70 218.5l14 98h-129l-22 -131q-24 -129 -95 -201.5t-186 -72.5q-116 0 -198.5 81t-82.5 197zM213 358q0 -52 38 -89.5t91 -37.5q52 0 84 31t41 84 l25 139h-150q-53 0 -91 -37t-38 -90zM342 1075q0 -53 37 -91t90 -38h104l17 90q10 68 -22 118t-99 50q-54 0 -90.5 -37.5t-36.5 -91.5zM672 637h129l28 160h-129zM911 395q-13 -64 20.5 -114t100.5 -50q52 0 89.5 37.5t37.5 89.5q0 54 -37 90.5t-90 36.5h-104zM1010 946h149 q52 0 89.5 38t37.5 91q0 54 -37 91.5t-90 37.5q-52 0 -85 -36.5t-40 -80.5z" />
<glyph unicode="&#x25ca;" horiz-adv-x="1017" d="M88 717l440 717h250l187 -717l-439 -717h-252zM315 680l111 -442l313 516l-112 440z" />
<glyph unicode="&#xe000;" horiz-adv-x="1075" d="M0 0v1075h1075v-1075h-1075z" />
<glyph unicode="&#xf6c3;" horiz-adv-x="215" d="M-82 -524l119 174h-82l41 229h184l-30 -250l-191 -217z" />
<glyph unicode="&#xf6df;" horiz-adv-x="638" d="M-25 47q0 190 88 301t209 111h4l17 94h121l-21 -119q48 -17 139 -74l-79 -118q-6 4 -23.5 15.5t-32.5 20.5t-30 15l-60 -336q27 10 92 41l54 -131q-109 -53 -172 -68l-19 -106h-121l17 96q-82 9 -132.5 75t-50.5 183zM145 66q0 -86 41 -113l60 342q-45 -27 -73 -89.5 t-28 -139.5z" />
<glyph unicode="&#xf6e0;" horiz-adv-x="638" d="M168 1143q0 190 88 300.5t209 110.5h4l16 95h121l-20 -119q48 -17 139 -74l-80 -119q-7 4 -23.5 15.5t-32 21t-30.5 15.5l-59 -336q27 10 92 41l53 -131q-109 -53 -172 -68l-18 -107h-121l16 97q-82 9 -132 75t-50 183zM338 1161q0 -85 41 -112l59 342 q-45 -26 -72.5 -89.5t-27.5 -140.5z" />
<glyph unicode="&#xf6e1;" horiz-adv-x="346" d="M-100 -444l100 137h-74l35 203h170l-27 -224l-170 -174z" />
<glyph unicode="&#xf6e2;" horiz-adv-x="348" d="M94 651l101 137h-74l35 203h170l-27 -223l-170 -174z" />
<glyph unicode="&#xf6e3;" horiz-adv-x="720" d="M-92 -199l96 123q87 -58 164 -82l39 219l-17 11q-86 50 -132 106.5t-46 136.5q0 106 76 177.5t207 74.5l20 111h121l-22 -123q104 -23 209 -86l-97 -125q-67 39 -139 57l-37 -208l21 -11q42 -25 68.5 -44.5t55.5 -49.5t43.5 -67t14.5 -82q0 -107 -81.5 -182.5 t-213.5 -78.5l-18 -108h-119l20 121q-129 32 -233 110zM199 322q0 -39 43 -68l26 154q-31 -10 -50 -32t-19 -54zM287 -164q35 8 56.5 32t21.5 58q0 46 -50 78z" />
<glyph unicode="&#xf6e4;" horiz-adv-x="722" d="M100 897l97 123q87 -59 163 -82l39 219l-16 10q-86 50 -132 107t-46 137q0 106 75.5 177.5t206.5 74.5l21 111h121l-23 -125q109 -24 209 -84l-96 -125q-67 39 -139 57l-37 -209l20 -10q87 -52 134.5 -106t47.5 -138q0 -109 -80 -183t-212 -77l-19 -108h-121l21 120 q-128 27 -234 111zM391 1417q0 -38 43 -67l27 153q-70 -22 -70 -86zM481 930q34 9 55 33.5t21 58.5q0 44 -47 76z" />
<glyph unicode="&#xf6e7;" horiz-adv-x="344" d="M-74 -307l35 203h170l-35 -203h-170z" />
<glyph unicode="&#xf6e8;" horiz-adv-x="346" d="M121 788l35 203h170l-35 -203h-170z" />
<glyph unicode="&#xf6e9;" horiz-adv-x="727" d="M141 997q0 116 32.5 217.5t98 167.5t150.5 66q38 0 73 -16t53.5 -32t43.5 -42l14 76h168l-115 -646h-167l14 80q-107 -94 -201 -94q-73 0 -118.5 58t-45.5 165zM311 1022q0 -49 18 -76.5t50 -27.5q68 0 151 90l39 219q-50 78 -112 78q-64 0 -105 -91t-41 -192z" />
<glyph unicode="&#xf6ea;" horiz-adv-x="727" d="M127 788l158 895h168l-56 -319q31 25 54.5 40.5t61 29.5t73.5 14q77 0 124.5 -57.5t47.5 -165.5q0 -113 -31.5 -214t-96.5 -169t-149 -68q-39 0 -74.5 15t-55 30.5t-44.5 40.5l-12 -72h-168zM332 993q48 -75 112 -75q43 0 76.5 45t49.5 108t16 127q0 107 -74 107 q-62 0 -139 -80z" />
<glyph unicode="&#xf6eb;" horiz-adv-x="727" d="M141 997q0 116 32.5 217.5t98 167.5t150.5 66q38 0 73.5 -16.5t52 -31t44.5 -42.5l57 325h168l-158 -895h-167l14 80q-107 -94 -201 -94q-73 0 -118.5 58t-45.5 165zM311 1022q0 -49 18 -76.5t50 -27.5q68 0 151 90l39 219q-50 78 -112 78q-64 0 -105 -91t-41 -192z" />
<glyph unicode="&#xf6ec;" horiz-adv-x="663" d="M141 1040q0 179 93 293.5t251 114.5q100 0 158.5 -49t58.5 -133q0 -215 -340 -215h-57v-2q0 -70 24.5 -107t69.5 -37q61 0 201 76l51 -121q-47 -28 -127.5 -57t-158.5 -29q-104 0 -164 65.5t-60 200.5zM315 1147h54q86 0 132 29t46 81q0 30 -19.5 47t-54.5 17 q-58 0 -100 -49t-58 -125z" />
<glyph unicode="&#xf6ed;" horiz-adv-x="362" d="M127 788l115 646h168l-115 -646h-168zM254 1528l27 153h174l-27 -153h-174z" />
<glyph unicode="&#xf6ee;" horiz-adv-x="364" d="M129 788l158 895h168l-158 -895h-168z" />
<glyph unicode="&#xf6ef;" horiz-adv-x="1054" d="M127 788l115 646h168l-15 -80q98 94 193 94q61 0 95 -30.5t42 -82.5q42 44 98.5 78.5t114.5 34.5q83 0 116 -56t17 -151l-80 -453h-168l76 426q18 97 -41 97q-64 0 -139 -88l-76 -435h-168l76 426q18 97 -43 97q-62 0 -135 -86l-78 -437h-168z" />
<glyph unicode="&#xf6f0;" horiz-adv-x="708" d="M141 1036q0 57 11 113t36.5 110.5t62.5 96t93.5 67t124.5 25.5q118 0 194 -65t76 -197q0 -57 -11 -113t-36.5 -110.5t-62 -96t-93 -67t-124.5 -25.5q-118 0 -194.5 65t-76.5 197zM309 1032q0 -60 25 -90.5t80 -30.5q41 0 73 30t49 75.5t26 90.5t9 83q0 121 -104 121 q-40 0 -72 -30t-50 -75.5t-27 -90.5t-9 -83z" />
<glyph unicode="&#xf6f1;" horiz-adv-x="507" d="M127 788l115 646h168l-23 -136q11 20 25 39t42.5 48t70 44.5t89.5 12.5l-28 -166q-50 0 -94 -23t-70 -55t-45.5 -64.5t-26.5 -55.5l-8 -23l-47 -267h-168z" />
<glyph unicode="&#xf6f2;" horiz-adv-x="630" d="M106 868l74 109q48 -30 105 -53t100 -23q34 0 59 17.5t25 48.5q0 11 -5 21t-11 16t-19.5 14t-23 12t-30.5 12t-32 13q-37 16 -60.5 29t-51.5 35.5t-42 54.5t-14 73q0 88 65 144.5t177 56.5q131 0 258 -78l-72 -104q-100 55 -178 55q-34 0 -57 -16.5t-23 -44.5 q0 -10 3 -18t9.5 -15t13 -12t19 -10.5t21 -9t25.5 -9.5t26 -10q38 -17 64 -31.5t53 -38t41 -56t14 -73.5q0 -89 -68 -146t-180 -57q-152 0 -285 94z" />
<glyph unicode="&#xf6f3;" horiz-adv-x="514" d="M162 1305l22 129h72l29 155l174 31l-35 -186h151l-22 -129h-152l-55 -316q-9 -61 31 -61q28 0 88 26l39 -133q-107 -47 -191 -47q-83 0 -117.5 58t-13.5 172l51 301h-71z" />
<glyph unicode="&#xf8ff;" horiz-adv-x="1798" d="M140.5 560.5q-2.5 11.5 15.5 21.5l57 41q2 1 3.5 2.5l3 3l2.5 2.5t2 3l1 1q19 16 37 -12l33 -64q6 -12 13.5 -15.5t14 2t9.5 17.5l18 70q4 19 18.5 21t26.5 -13l47 -53q13 -15 23.5 -11.5t11.5 23.5l4 70q3 20 15.5 25t27.5 -7l58 -43q17 -12 25.5 -6.5t4.5 25.5l-8 69 q-3 20 8.5 28t28.5 -1l64 -29q19 -9 26.5 -1.5t1.5 26.5l-22 67q-8 19 0.5 29t27.5 4l15 -2q40 -77 70 -202.5t30 -217.5q-15 -18 -34.5 -27.5t-59.5 -9.5h-8q0 46 -33 72q18 -21 18 -55v-15q-32 3 -32 39q0 43 -28 72t-77 29q-41 0 -68.5 -32t-27.5 -79q0 -60 49.5 -96.5 t138.5 -36.5q85 0 172 42t156.5 112t125 154.5t86 175.5t30.5 169q0 59 -37 98t-95 39q-48 0 -85 -33.5t-37 -84.5q0 -52 30.5 -82.5t87.5 -36.5q-30 -122 -59 -174q-12 96 -43.5 178t-75.5 129q91 -120 107 -330l-29 -41q0 156 -51 287t-131 172q-5 9 2 18.5t22 12.5l70 12 q19 3 21 13.5t-15 21.5l-59 39q-15 13 -13.5 26.5t19.5 20.5l63 29q14 4 19 10t0 13t-19 13l-63 27q-24 11 -21 29q13 6 15 16l35 62q9 19 20 18t16 -20l21 -68q6 -21 18.5 -24t26.5 14l47 53q12 15 23 12.5t12 -22.5l4 -72q1 -21 14.5 -26t28.5 8l57 43q15 12 24 5.5 t7 -26.5l-10 -70q-1 -20 10.5 -27.5t28.5 1.5l63 33q19 8 26.5 0t0.5 -29l-23 -64q-6 -20 3 -30t28 -4l70 14q20 6 26.5 -2t-4.5 -27l-37 -59q-12 -17 -5.5 -29.5t26.5 -11.5l71 4q21 0 25.5 -11t-8.5 -24l-49 -53q-14 -13 -10.5 -26.5t24.5 -16.5l70 -12q43 -10 6 -39 l-58 -39q-10 -7 -13 -15.5t2 -16.5t18 -13l63 -27q12 -5 16.5 -12t0 -13.5t-16.5 -11.5l-63 -26q-20 -7 -21.5 -22t14.5 -25l58 -41q11 -7 14.5 -14.5t-2 -13.5t-18.5 -9l-70 -13q-21 -3 -24.5 -16.5t10.5 -28.5l49 -49q13 -14 8.5 -24.5t-25.5 -10.5l-71 5q-20 0 -26.5 -12 t5.5 -29l37 -62q10 -17 4 -25.5t-26 -5.5l-70 19q-19 4 -28 -6t-3 -29l23 -68q8 -19 0 -26t-27 2l-63 31q-17 9 -28.5 1t-10.5 -30l10 -68q1 -21 -7.5 -25.5t-23.5 7.5l-57 43q-15 12 -28.5 5.5t-14.5 -26.5l-4 -69q-1 -20 -12 -23t-23 11l-47 55q-13 14 -26 12t-19 -22 l-21 -68q-3 -13 -9.5 -18t-13.5 -1t-13 15l-35 61q-9 19 -22 19t-25 -19l-31 -61q-6 -11 -13.5 -15t-14 1t-9.5 18l-20 68q-6 20 -19 22t-26 -12l-48 -55q-12 -14 -21.5 -11t-12.5 23l-5 69q-2 20 -15 26.5t-30 -5.5l-53 -43q-17 -13 -27 -8t-6 26l11 68q1 22 -10.5 30 t-30.5 -1l-62 -31q-19 -9 -26.5 -2t0.5 26l22 68q7 19 -2.5 29.5t-28.5 5.5l-69 -19q-20 -3 -26.5 5.5t3.5 25.5l39 62q11 17 4.5 29t-26.5 12l-72 -5q-21 0 -25 10.5t9 24.5l51 49q13 15 8.5 28.5t-25.5 16.5l-67 13q-21 4 -23.5 15.5zM616 281q44 -27 123 -27 q106 0 212.5 65t183.5 162t125.5 212t48.5 214q0 63 -41 101q24 -38 24 -84q0 -100 -47.5 -215t-126.5 -215q-85 -105 -188.5 -168.5t-212.5 -63.5q-58 0 -101 19z" />
<glyph unicode="&#xfb06;" horiz-adv-x="1632" d="M-20 129l120 168q74 -49 162 -85t156 -36q62 0 103.5 31t41.5 88q0 14 -2.5 26.5t-10 23.5t-14 19.5t-20.5 17.5t-23 15t-29 15.5t-30.5 14l-35 15t-36.5 15.5q-45 21 -76 38.5t-68 46t-60 59t-38.5 75t-15.5 96.5q0 145 104 235.5t275 90.5q105 0 211 -37q-6 34 -6 69 q0 157 106 260t287 103q183 0 275 -102.5t59 -284.5l-6 -31h238l-35 -188h-236l-102 -582q-19 -106 49 -106q38 0 147 47l56 -197q-176 -72 -293 -72q-122 0 -175 87.5t-22 263.5l99 559h-121l35 188h118l11 51q45 246 -140 246q-104 0 -171.5 -73t-67.5 -191q0 -53 16 -96 q15 -7 68 -39l-117 -166q-63 38 -139.5 66t-137.5 28t-99 -29t-38 -81q0 -18 4.5 -33.5t16.5 -28.5t22 -22.5t31.5 -20.5t33.5 -16.5t40.5 -17.5t40.5 -17q48 -23 82 -42t72 -49t61.5 -61.5t39 -75.5t15.5 -96q0 -150 -107.5 -242t-283.5 -92q-124 0 -239 44.5t-201 107.5z " />
<glyph horiz-adv-x="731" d="M100 586l68 131q31 -8 72 -8q99 0 181 63.5t124 169.5q-67 -63 -166 -63q-102 0 -161.5 68.5t-59.5 172.5q0 132 84 230t225 98q93 0 159.5 -45t97 -114t30.5 -154q0 -151 -64 -282.5t-183 -212.5t-265 -81q-40 0 -75.5 6.5t-50.5 13.5zM332 1128q0 -48 26.5 -81 t79.5 -33q45 0 85.5 29t56.5 61q2 12 2 37q0 68 -29.5 112.5t-85.5 44.5q-63 0 -99 -50.5t-36 -119.5z" />
<glyph horiz-adv-x="1009" d="M-82 0l442 594l-217 582h252l121 -431l270 431h279l-426 -584l238 -592h-259l-133 420l-276 -420h-291z" />
<glyph horiz-adv-x="1333" d="M-178 -262q54 20 88 35t61.5 36t41 37t26.5 51t19 63t16 87l145 840h-117l35 188h115l16 86q30 172 96 252t189 80q138 0 311 -94l-112 -166q-30 14 -78 27.5t-76 13.5q-66 0 -86 -105l-16 -94h219l-35 -188h-219l-144 -824q-17 -100 -26 -143.5t-30.5 -106.5t-46.5 -90 t-72 -63.5t-110.5 -60.5t-158.5 -50zM487 -262q54 20 88 35t61.5 36t41 37t26.5 51t19 63t16 87l148 840h-119l35 188h117l16 86q29 172 92.5 252t183.5 80q109 0 258 -76l-88 -174q-85 31 -118 31q-66 0 -86 -105l-17 -94h219l-34 -188h-220l-143 -824q-17 -100 -26 -143.5 t-30.5 -106.5t-46.5 -90t-72 -63.5t-110.5 -60.5t-158.5 -50z" />
<glyph horiz-adv-x="1259" d="M-178 -262q32 12 56 21.5t46 21.5t37 20t28.5 22.5t22 23.5t17 28.5t13 32t11 39.5t9.5 45t10 55l147 840h-117l35 188h115l12 66q32 176 106 254t201 78q140 0 367 -84q70 104 209 104q138 0 311 -94l-112 -166q-30 14 -78 27.5t-76 13.5q-66 0 -86 -105l-16 -94h219 l-35 -188h-219l-144 -824q-17 -100 -26 -143.5t-30.5 -106.5t-46.5 -90t-72 -63.5t-110.5 -60.5t-158.5 -50l-51 189q54 20 88 35t61.5 36t41 37t26.5 51t19 63t16 87l145 840h-352l-144 -824q-34 -188 -57 -251q-39 -102 -127 -159q-84 -55 -262 -104zM494 1075h352l24 133 q-164 45 -254 45q-44 0 -71.5 -28t-36.5 -76z" />
<glyph horiz-adv-x="2318" d="M-178 -262q32 12 56 21.5t46 21.5t37 20t28.5 22.5t22 23.5t17 28.5t13 32t11 39.5t9.5 45t10 55l147 840h-117l35 188h115l12 66q32 176 106 254t201 78q137 0 373 -87q77 107 225 107q139 0 336 -74l13 74h241l-96 -541q76 66 149.5 106t157.5 40q122 0 196.5 -92 t74.5 -269q0 -142 -30 -277t-84.5 -243.5t-139.5 -174t-187 -65.5q-90 0 -154 40.5t-126 109.5l-23 -127h-242l215 1229q-177 45 -256 45q-45 0 -72.5 -28.5t-35.5 -76.5l-16 -94h217l-35 -188h-217l-146 -824q-17 -100 -26 -143.5t-30.5 -106.5t-46.5 -90t-72 -63.5 t-110.5 -60.5t-158.5 -50l-49 189q54 20 87.5 35t60.5 36t41 37t26.5 51t18.5 63t16 87l147 840h-352l-144 -824q-34 -188 -57 -251q-39 -102 -127 -159q-84 -55 -262 -104zM494 1075h352l24 133q-170 45 -254 45q-44 0 -71.5 -28t-36.5 -76zM1554 326q85 -142 195 -142 q73 0 130.5 83t85.5 198.5t28 232.5q0 91 -31.5 143t-95.5 52q-107 0 -238 -145z" />
<glyph horiz-adv-x="2314" d="M-178 -262q32 12 56 21.5t46 21.5t37 20t28.5 22.5t22 23.5t17 28.5t13 32t11 39.5t9.5 45t10 55l147 840h-117l35 188h115l12 66q32 176 106 254t201 78q137 0 373 -87q77 107 225 107q139 0 336 -74l13 74h241l-96 -551q197 156 350 156q134 0 188.5 -89.5t24.5 -252.5 l-131 -756h-244l127 717q7 50 7 90t-21.5 65t-65.5 25q-62 0 -138 -45.5t-132 -101.5l-131 -750h-242l215 1229q-177 45 -256 45q-45 0 -72.5 -28.5t-35.5 -76.5l-16 -94h217l-35 -188h-217l-146 -824q-17 -100 -26 -143.5t-30.5 -106.5t-46.5 -90t-72 -63.5t-110.5 -60.5 t-158.5 -50l-49 189q54 20 87.5 35t60.5 36t41 37t26.5 51t18.5 63t16 87l147 840h-352l-144 -824q-34 -188 -57 -251q-39 -102 -127 -159q-84 -55 -262 -104zM494 1075h352l24 133q-170 45 -254 45q-44 0 -71.5 -28t-36.5 -76z" />
<glyph horiz-adv-x="1673" d="M-178 -262q32 12 56 21.5t46 21.5t37 20t28.5 22.5t22 23.5t17 28.5t13 32t11 39.5t9.5 45t10 55l147 840h-117l35 188h115l12 66q32 176 106 254t201 78q141 0 375 -89q79 109 234 109q163 0 417 -94l-102 -168q-55 14 -138 28.5t-132 14.5q-47 0 -79 -29.5t-40 -75.5 l-16 -94h544l-190 -1075h-240l156 887h-305l-146 -824q-15 -86 -23 -124.5t-23.5 -96.5t-34 -83.5t-49 -62t-73.5 -57t-101.5 -44t-139.5 -46.5l-49 189q54 20 87.5 35t60.5 36t41 37t26.5 51t18.5 63t16 87l147 840h-352l-144 -824q-34 -188 -57 -251q-39 -102 -127 -159 q-84 -55 -262 -104zM494 1075h352l24 133q-164 45 -254 45q-44 0 -71.5 -28t-36.5 -76z" />
<glyph horiz-adv-x="1675" d="M-178 -262q32 12 56 21.5t46 21.5t37 20t28.5 22.5t22 23.5t17 28.5t13 32t11 39.5t9.5 45t10 55l147 840h-117l35 188h115l12 66q32 176 106 254t201 78q141 0 375 -89q79 109 234 109q163 0 417 -94l-102 -168q-55 14 -138 28.5t-132 14.5q-47 0 -79 -29.5t-40 -75.5 l-16 -94h546l-190 -1071q-29 -157 -52 -213q-39 -95 -135 -151q-85 -50 -249 -93l-49 195q53 20 88 34.5t61 32.5t39.5 31.5t24 39t15 45.5t11.5 61l158 901h-303l-146 -824q-15 -86 -23 -124.5t-23.5 -96.5t-34 -83.5t-49 -62t-73.5 -57t-101.5 -44t-139.5 -46.5l-49 189 q54 20 87.5 35t60.5 36t41 37t26.5 51t18.5 63t16 87l147 840h-352l-144 -824q-34 -188 -57 -251q-39 -102 -127 -159q-84 -55 -262 -104zM494 1075h352l24 133q-164 45 -254 45q-44 0 -71.5 -28t-36.5 -76z" />
<glyph horiz-adv-x="2215" d="M-178 -262q32 12 56 21.5t46 21.5t37 20t28.5 22.5t22 23.5t17 28.5t13 32t11 39.5t9.5 45t10 55l147 840h-117l35 188h115l12 66q32 176 106 254t201 78q137 0 373 -87q77 107 225 107q139 0 336 -74l13 74h241l-151 -862l346 444h291l-390 -440l246 -635h-246l-161 453 l-148 -168l-49 -285h-242l215 1229q-177 45 -256 45q-45 0 -72.5 -28.5t-35.5 -76.5l-16 -94h217l-35 -188h-217l-146 -824q-17 -100 -26 -143.5t-30.5 -106.5t-46.5 -90t-72 -63.5t-110.5 -60.5t-158.5 -50l-49 189q54 20 87.5 35t60.5 36t41 37t26.5 51t18.5 63t16 87 l147 840h-352l-144 -824q-34 -188 -57 -251q-39 -102 -127 -159q-84 -55 -262 -104zM494 1075h352l24 133q-170 45 -254 45q-44 0 -71.5 -28t-36.5 -76z" />
<glyph horiz-adv-x="665" d="M-178 -262q54 20 88 35t61.5 36t41 37t26.5 51t19 63t16 87l147 840h-119l35 188h117l16 86q28 172 92.5 252t184.5 80q109 0 258 -76l-88 -174q-85 31 -119 31q-66 0 -86 -105l-16 -94h219l-35 -188h-219l-144 -824q-17 -100 -26 -143.5t-30.5 -106.5t-46.5 -90 t-72 -63.5t-110.5 -60.5t-158.5 -50z" />
<glyph horiz-adv-x="1734" d="M-178 -262q32 12 56 21.5t46 21.5t37 20t28.5 22.5t22 23.5t17 28.5t13 32t11 39.5t9.5 45t10 55l147 840h-117l35 188h115l12 66q32 176 106 254t201 78q137 0 373 -87q77 107 225 107q139 0 336 -74l13 74h241l-264 -1493h-240l215 1229q-177 45 -256 45 q-45 0 -72.5 -28.5t-35.5 -76.5l-16 -94h217l-35 -188h-217l-146 -824q-17 -100 -26 -143.5t-30.5 -106.5t-46.5 -90t-72 -63.5t-110.5 -60.5t-158.5 -50l-49 189q54 20 87.5 35t60.5 36t41 37t26.5 51t18.5 63t16 87l147 840h-352l-144 -824q-34 -188 -57 -251 q-39 -102 -127 -159q-84 -55 -262 -104zM494 1075h352l24 133q-170 45 -254 45q-44 0 -71.5 -28t-36.5 -76z" />
<glyph horiz-adv-x="1908" d="M-178 -262q32 12 56 21.5t46 21.5t37 20t28.5 22.5t22 23.5t17 28.5t13 32t11 39.5t9.5 45t10 55l147 840h-117l35 188h115l12 66q32 176 106 254t201 78q140 0 367 -84q67 104 207 104q133 0 311 -94l-113 -166q-31 14 -78 27.5t-75 13.5q-69 0 -86 -105l-17 -94h357 l47 262l250 49l-55 -311h235l-33 -188h-235l-103 -582q-19 -106 49 -106q37 0 146 47l55 -197q-176 -72 -291 -72q-123 0 -175 87t-21 264l98 559h-358l-144 -824q-34 -189 -59 -254q-39 -100 -127 -157q-83 -54 -260 -103l-49 189q54 20 88 35t61.5 36t41 37t26 51t18 63 t15.5 87l149 840h-352l-144 -824q-34 -188 -57 -251q-39 -102 -127 -159q-84 -55 -262 -104zM494 1075h352l24 133q-164 45 -254 45q-88 0 -108 -104z" />
<glyph horiz-adv-x="1722" d="M-178 -262q54 20 88 35t61.5 36t41 37t26.5 51t19 63t16 87l147 840h-119l35 188h117l16 86q32 176 106 254t199 78q134 0 336 -72l13 72h241l-96 -551q197 156 350 156q134 0 188.5 -89.5t24.5 -252.5l-131 -756h-244l127 717q7 50 7 90t-21 65t-65 25 q-62 0 -138.5 -45.5t-132.5 -101.5l-131 -750h-241l215 1229q-183 45 -256 45q-44 0 -72 -28.5t-37 -76.5l-16 -94h219l-35 -188h-219l-144 -824q-17 -100 -26 -143.5t-30.5 -106.5t-46.5 -90t-72 -63.5t-110.5 -60.5t-158.5 -50z" />
<glyph horiz-adv-x="1107" d="M82.5 333.5q1.5 57.5 13.5 127.5l127 715h232l-133 -756q-11 -47 -9.5 -88.5t13.5 -73t48.5 -50t94.5 -18.5q59 0 103 17.5t71.5 50t44 71.5t25.5 89l133 758h231l-131 -754q-14 -78 -34.5 -140t-58 -120t-88.5 -96t-127.5 -61t-174.5 -23q-89 0 -157 17t-110.5 49 t-69.5 74t-36 98t-7.5 113.5zM436 1507h150q-12 -98 92 -98q62 0 103 25t48 73h152q-20 -114 -100.5 -177.5t-208.5 -63.5q-130 0 -192.5 66t-43.5 175z" />
<glyph horiz-adv-x="1081" d="M-178 -262q54 20 88 35t61.5 36t41 37t26.5 51t19 63t16 87l147 840h-119l35 188h117l16 86q30 175 107.5 253.5t210.5 78.5q159 0 418 -94l-103 -168q-55 14 -138 28.5t-132 14.5q-46 0 -78 -29t-41 -76l-16 -94h542l-190 -1075h-240l156 887h-303l-146 -824 q-15 -86 -23 -124.5t-23.5 -96.5t-34 -83.5t-49 -62t-73.5 -57t-101.5 -44t-139.5 -46.5z" />
<glyph horiz-adv-x="1081" d="M-178 -262q54 20 88 35t61.5 36t41 37t26.5 51t19 63t16 87l147 840h-119l35 188h117l16 86q30 175 107.5 253.5t210.5 78.5q159 0 418 -94l-103 -168q-55 14 -138 28.5t-132 14.5q-46 0 -78 -29t-41 -76l-16 -94h546l-190 -1071q-29 -157 -52 -213q-39 -95 -135 -151 q-86 -50 -249 -93l-49 195q53 20 88 34.5t61 32.5t39.5 31.5t24 39t15 45.5t11.5 61l158 901h-303l-146 -824q-15 -86 -23 -124.5t-23.5 -96.5t-34 -83.5t-49 -62t-73.5 -57t-101.5 -44t-139.5 -46.5z" />
<glyph horiz-adv-x="1622" d="M-178 -262q54 20 88 35t61.5 36t41 37t26.5 51t19 63t16 87l147 840h-119l35 188h117l16 86q30 175 104.5 253.5t200.5 78.5q134 0 336 -72l13 72h241l-151 -862l346 444h291l-389 -440l245 -635h-245l-162 453l-148 -168l-49 -285h-241l215 1229q-183 45 -256 45 q-44 0 -72 -28.5t-37 -76.5l-16 -94h219l-35 -188h-219l-144 -824q-15 -86 -23 -124.5t-23.5 -96.5t-34 -83.5t-49 -62t-73.5 -57t-101.5 -44t-139.5 -46.5z" />
<glyph horiz-adv-x="393" d="M143 788l31 187h170l-31 -187h-170zM225 1065l51 584h203l-153 -584h-101z" />
<glyph horiz-adv-x="1140" d="M-178 -262q54 20 88 35t61.5 36t41 37t26.5 51t19 63t16 87l147 840h-119l35 188h117l16 86q32 176 106 254t199 78q134 0 336 -72l13 72h241l-264 -1493h-239l215 1229q-191 45 -256 45q-44 0 -72 -28.5t-37 -76.5l-16 -94h219l-35 -188h-219l-144 -824 q-17 -100 -26 -143.5t-30.5 -106.5t-46.5 -90t-72 -63.5t-110.5 -60.5t-158.5 -50z" />
<glyph horiz-adv-x="1316" d="M-178 -262q54 20 88 35t61.5 36t41 37t26.5 51t19 63t16 87l147 840h-119l35 188h117l16 86q28 172 94 252t189 80q138 0 311 -94l-112 -166q-30 14 -78 27.5t-76 13.5q-66 0 -86 -105l-16 -94h356l47 262l250 49l-55 -311h235l-33 -188h-235l-103 -582q-19 -106 50 -106 q36 0 145 47l55 -197q-176 -72 -290 -72q-124 0 -176 87t-21 264l98 559h-358l-144 -824q-17 -100 -26 -143.5t-30.5 -106.5t-46.5 -90t-72 -63.5t-110.5 -60.5t-158.5 -50z" />
<glyph horiz-adv-x="501" d="M-186 -451q33 12 54 21t38 21.5t25.5 22t16.5 29.5t11.5 37t9.5 50l84 479h-73l24 129h72l6 35q19 113 61.5 164t126.5 51q94 0 201 -62l-78 -112q-60 24 -90 24q-40 0 -51 -59l-8 -41h133l-23 -129h-133l-84 -467q-7 -38 -10 -55.5t-10 -47t-12 -42t-14.5 -34.5 t-19.5 -32l-26 -26t-34 -24.5t-42.5 -21t-54 -22t-66.5 -19.5z" />
<glyph horiz-adv-x="1107" d="M82.5 333.5q1.5 57.5 13.5 127.5l127 715h232l-133 -756q-11 -47 -9.5 -88.5t13.5 -73t48.5 -50t94.5 -18.5q59 0 103 17.5t71.5 50t44 71.5t25.5 89l133 758h231l-131 -754q-14 -78 -34.5 -140t-58 -120t-88.5 -96t-127.5 -61t-174.5 -23q-89 0 -157 17t-110.5 49 t-69.5 74t-36 98t-7.5 113.5zM489 1266l252 276h291l-332 -276h-211z" />
<glyph horiz-adv-x="702" d="M-35 109l98 114q91 -80 179 -80q63 0 110 42.5t47 115.5q0 53 -26.5 83t-79.5 30q-70 0 -143 -49l-93 61l117 434h473l-26 -151h-324l-37 -160q58 12 88 12q111 0 170.5 -70.5t59.5 -177.5q0 -64 -21.5 -122t-61.5 -104t-102.5 -73.5t-138.5 -27.5q-160 0 -289 123z" />
<glyph horiz-adv-x="702" d="M66 682l98 115q91 -80 178 -80q63 0 110.5 42.5t47.5 114.5q0 53 -27 83t-80 30q-70 0 -143 -49l-92 61l116 435h474l-27 -152h-324l-37 -160q63 13 89 13q110 0 169.5 -70.5t59.5 -177.5q0 -86 -36.5 -159.5t-112 -121t-175.5 -47.5q-159 0 -288 123z" />
<glyph horiz-adv-x="1040" d="M-63 -92l143 168q151 -131 280 -131q108 0 191.5 82.5t83.5 218.5q0 94 -47 152.5t-137 58.5q-99 0 -230 -88l-133 86l191 721h731l-39 -222h-516l-70 -305q77 23 150 23q172 0 265 -115.5t93 -292.5q0 -107 -35 -204.5t-98.5 -174t-162.5 -121.5t-218 -45 q-236 0 -442 189z" />
<glyph horiz-adv-x="1142" d="M33 166l143 168q151 -131 281 -131q108 0 191 82.5t83 218.5q0 94 -47 152.5t-137 58.5q-99 0 -230 -88l-133 86l191 721h731l-39 -222h-516l-70 -305q77 23 150 23q172 0 265 -115.5t93 -292.5q0 -107 -35 -204.5t-98.5 -174t-162.5 -121.5t-218 -45q-236 0 -442 189z " />
<glyph horiz-adv-x="393" d="M-49 -307l31 186h170l-31 -186h-170zM33 -31l51 584h203l-154 -584h-100z" />
<glyph horiz-adv-x="1462" d="M59 557l80 94q82 -65 156 -65q58 0 100.5 34.5t42.5 94.5q0 44 -25 70t-73 26q-61 0 -125 -41l-76 49l99 357h403l-20 -123h-285l-31 -133q42 10 78 10q97 0 149 -58t52 -147q0 -109 -74.5 -187.5t-202.5 -78.5q-132 0 -248 98zM297 0l686 1176h152l-686 -1176h-152z M782 168q0 137 189 219q-82 59 -82 141q0 83 67.5 136t176.5 53q101 0 155.5 -45t54.5 -115q0 -107 -143 -180q117 -67 117 -174q0 -95 -80 -155t-209 -60q-116 0 -181 48t-65 132zM926 184q0 -40 28.5 -61t77.5 -21q60 0 102 29.5t42 77.5q0 66 -97 119q-72 -31 -112.5 -63 t-40.5 -81zM1022 518q0 -49 68 -86q116 45 116 109q0 30 -21 48.5t-57 18.5q-46 0 -76 -27t-30 -63z" />
<glyph horiz-adv-x="393" d="M127 788l154 584h100l-51 -584h-203zM262 1462l31 187h170l-31 -187h-170z" />
<glyph horiz-adv-x="1441" d="M61 557l78 94q82 -65 158 -65q57 0 99 34.5t42 94.5q0 44 -25 70t-71 26q-59 0 -127 -41l-76 49l99 357h403l-20 -123h-283l-33 -133q42 10 78 10q97 0 149 -58t52 -147q0 -109 -74.5 -187.5t-202.5 -78.5q-130 0 -246 98zM297 0l686 1176h150l-687 -1176h-149zM780 250 q0 123 55.5 229.5t157 172t224.5 65.5q34 0 64 -5.5t43 -10.5l13 -5l-55 -108q-26 8 -61 8q-89 0 -161.5 -52.5t-109.5 -142.5q63 54 148 54q89 0 140.5 -56.5t51.5 -142.5q0 -109 -71 -188.5t-193 -79.5q-118 0 -182 75.5t-64 186.5zM920 242q0 -56 27 -93.5t77 -37.5 q58 0 91.5 40.5t33.5 96.5q0 41 -24.5 68.5t-73.5 27.5q-41 0 -78 -23.5t-53 -50.5v-28z" />
<glyph horiz-adv-x="393" d="M-68 -307l154 583h100l-51 -583h-203zM68 367l30 186h170l-30 -186h-170z" />
<glyph horiz-adv-x="1105" d="M82.5 333.5q1.5 57.5 13.5 127.5l127 715h232l-133 -756q-11 -47 -9.5 -88.5t13.5 -73t48.5 -50t94.5 -18.5q59 0 103 17.5t71.5 50t44 71.5t25.5 89l133 758h231l-131 -754q-14 -78 -34.5 -140t-58 -120t-88.5 -96t-127.5 -61t-174.5 -23q-89 0 -157 17t-110.5 49 t-69.5 74t-36 98t-7.5 113.5z" />
<glyph horiz-adv-x="665" d="M188 1493l27 156h600l-27 -156h-213l-124 -705h-175l125 705h-213z" />
<glyph horiz-adv-x="761" d="M-37 166l23 129l428 565h231l-96 -543h110l-26 -151h-111l-28 -166h-175l29 166h-385zM164 317h211l65 371z" />
<glyph horiz-adv-x="761" d="M63 739l23 129l428 566h231l-96 -543h111l-27 -152h-110l-29 -166h-174l29 166h-386zM264 891h211l66 371z" />
<glyph horiz-adv-x="1142" d="M-55 31l32 188l699 957h334l-164 -924h178l-39 -221h-178l-51 -289h-250l51 289h-612zM231 252h365l117 661z" />
<glyph horiz-adv-x="1144" d="M2 289l33 188l698 957h318l-162 -924h168l-39 -221h-168l-51 -289h-250l51 289h-598zM287 510h352l113 639z" />
<glyph horiz-adv-x="1538" d="M61 606l17 105l371 465h190l-82 -447h96l-20 -123h-98l-25 -135h-141l24 135h-332zM229 729h187l55 309zM373 0l686 1176h151l-686 -1176h-151zM860 88l82 92q76 -65 156 -65q56 0 98.5 35.5t42.5 95.5q0 45 -24.5 70.5t-73.5 25.5q-54 0 -125 -43l-76 49l98 357h404 l-21 -123h-284l-31 -136q41 13 80 13q96 0 148 -57.5t52 -145.5q0 -109 -75.5 -188.5t-202.5 -79.5q-131 0 -248 100z" />
<glyph horiz-adv-x="514" d="M12 0l209 799h133l-71 -799h-271zM197 924l43 252h227l-41 -252h-229z" />
<glyph horiz-adv-x="1107" d="M82.5 333.5q1.5 57.5 13.5 127.5l127 715h232l-133 -756q-11 -47 -9.5 -88.5t13.5 -73t48.5 -50t94.5 -18.5q59 0 103 17.5t71.5 50t44 71.5t25.5 89l133 758h231l-131 -754q-14 -78 -34.5 -140t-58 -120t-88.5 -96t-127.5 -61t-174.5 -23q-89 0 -157 17t-110.5 49 t-69.5 74t-36 98t-7.5 113.5zM371 1266l225 276h235l125 -276h-153l-101 159l-153 -159h-178z" />
<glyph horiz-adv-x="512" d="M35 0l41 252h229l-43 -252h-227zM147 377l72 799h270l-208 -799h-134z" />
<glyph horiz-adv-x="1085" d="M18 236l27 153h113l184 1045h817l-39 -226h-567l-68 -383h451l-41 -219h-449l-38 -217h299l-27 -153h-299l-41 -236h-252l41 236h-111z" />
<glyph horiz-adv-x="974" d="M8 182l25 140h96l152 854h723l-39 -207h-488l-49 -281h385l-35 -203h-387l-29 -163h256l-24 -140h-256l-31 -182h-233l30 182h-96z" />
<glyph horiz-adv-x="708" d="M-78 -176l19 104h69l111 625h526l-26 -156h-353l-35 -198h277l-27 -152h-276l-23 -119h189l-19 -104h-188l-23 -131h-174l25 131h-72z" />
<glyph horiz-adv-x="708" d="M115 922l18 102h72l110 625h527l-27 -156h-352l-35 -199h277l-27 -151h-277l-22 -119h188l-18 -102h-189l-22 -134h-174l22 134h-71z" />
<glyph horiz-adv-x="481" d="M27 645q49 18 75 30.5t42.5 35t22.5 44t15 70.5l84 480h-73l24 129h72l6 34q19 113 61.5 164t126.5 51q96 0 201 -61l-78 -113q-62 25 -90 25q-40 0 -51 -59l-8 -41h133l-23 -129h-133l-84 -467q-7 -38 -10 -55.5t-10 -47t-12 -42t-14.5 -34.5t-19.5 -32l-26 -26 t-34 -24.5t-42.5 -21t-54 -22t-66.5 -19.5z" />
<glyph horiz-adv-x="667" d="M-4 397l27 156h600l-27 -156h-213l-125 -704h-174l125 704h-213z" />
<glyph horiz-adv-x="1042" d="M27 0l206 1176h234l-35 -191h143q207 0 306.5 -82.5t99.5 -234.5q0 -192 -127 -315.5t-362 -123.5h-191l-41 -229h-233zM336 430h151q117 0 185.5 59t68.5 160q0 133 -180 133h-164z" />
<glyph horiz-adv-x="899" d="M68 -326l71 131q37 -24 80 -24q39 0 65.5 24.5t26.5 81.5q0 47 -22 113h-64l170 969h-295l37 207h821l-34 -207h-295l-172 -969h-62q5 -9 12.5 -26t16 -53t8.5 -71q0 -103 -61 -160t-154 -57q-88 0 -149 41z" />
<glyph horiz-adv-x="899" d="M100 969l37 207h821l-34 -207h-295l-172 -969h-232l170 969h-295zM317 1542h156l100 -160l154 160h176l-223 -276h-236z" />
<glyph horiz-adv-x="913" d="M106 969l37 207h822l-35 -207h-295l-84 -469h139l-24 -142h-140l-63 -358h-232l62 358h-133l24 142h133l84 469h-295z" />
<glyph horiz-adv-x="802" d="M-76 -307l105 586q28 154 106 233.5t232 79.5q137 0 206.5 -59.5t69.5 -145.5q0 -42 -15.5 -77.5t-31.5 -50.5l-16 -15q-119 -32 -119 -92q0 -20 11.5 -34.5t42 -38.5t52.5 -46q68 -71 68 -150q0 -88 -68.5 -146.5t-169.5 -58.5q-112 0 -233 74l74 107q92 -49 145 -49 q34 0 57 18.5t23 48.5q0 37 -47 74l-22 16.5t-27 21t-24.5 24t-24 32t-15 38.5t-6.5 48q0 43 16.5 77.5t47 58t55 37t57.5 26.5q8 24 8 41q0 41 -29 64.5t-85 23.5q-71 0 -112 -45t-60 -148l-103 -573h-168z" />
<glyph horiz-adv-x="819" d="M123 788l104 586q28 154 106 234t232 80q137 0 207 -59.5t70 -145.5q0 -42 -16 -78t-32 -51l-16 -15q-119 -32 -119 -92q0 -20 12 -34.5t42.5 -38t52.5 -46.5q68 -71 68 -149q0 -88 -68.5 -146.5t-169.5 -58.5q-113 0 -234 74l74 106q92 -49 146 -49q34 0 57 19t23 49 q0 36 -48 74l-22 16.5t-26.5 21t-24.5 24t-24 32t-14.5 38.5t-6.5 48q0 35 12.5 64.5t29.5 49.5t43.5 37.5t45.5 27t45 19.5q8 24 8 41q0 41 -29.5 64.5t-85.5 23.5q-72 0 -113 -44.5t-59 -147.5l-102 -574h-168z" />
<glyph horiz-adv-x="722" d="M-111 -520l56 137q133 -49 219 -49q114 0 133 115l16 90q-103 -95 -200 -95q-73 0 -118.5 58.5t-45.5 165.5q0 115 33 217t98 167.5t149 65.5q38 0 73 -15.5t54 -31.5t43 -41l15 74h168l-115 -649q-26 -148 -93.5 -203t-193.5 -55q-142 0 -291 49zM121 -74 q0 -104 67 -104q71 0 150 90l39 219q-47 78 -111 78t-104.5 -91t-40.5 -192z" />
<glyph horiz-adv-x="899" d="M100 969l37 207h821l-34 -207h-295l-172 -969h-232l170 969h-295z" />
<glyph horiz-adv-x="737" d="M109 897l96 123q144 -94 241 -94q51 0 85 26t34 70q0 20 -7.5 36t-28 31.5t-34 23.5t-51 26.5t-53.5 27.5q-86 50 -132 107t-46 137q0 108 78.5 180t212.5 72q152 0 319 -98l-96 -125q-48 28 -108 48.5t-107 20.5q-46 0 -79.5 -24.5t-33.5 -67.5q0 -18 7 -32t26.5 -28.5 t33.5 -23t50 -27t55 -28.5q41 -25 68.5 -45t56.5 -50t43.5 -67t14.5 -82q0 -110 -84.5 -185t-220.5 -75q-94 0 -183 35.5t-157 87.5z" />
<glyph horiz-adv-x="1107" d="M82.5 333.5q1.5 57.5 13.5 127.5l127 715h232l-133 -756q-11 -47 -9.5 -88.5t13.5 -73t48.5 -50t94.5 -18.5q59 0 103 17.5t71.5 50t44 71.5t25.5 89l133 758h231l-131 -754q-14 -78 -34.5 -140t-58 -120t-88.5 -96t-127.5 -61t-174.5 -23q-89 0 -157 17t-110.5 49 t-69.5 74t-36 98t-7.5 113.5zM414 1286l41 225h196l-39 -225h-198zM725 1286l41 225h197l-39 -225h-199z" />
<glyph horiz-adv-x="731" d="M88 575l55 138q133 -49 219 -49q115 0 134 114l16 90q-102 -94 -201 -94q-73 0 -118.5 58t-45.5 165q0 115 33 217t98.5 168t149.5 66q38 0 73 -15.5t54 -31.5t43 -41l14 74h168l-114 -650q-26 -148 -93.5 -203t-193.5 -55q-142 0 -291 49zM319 1022q0 -104 68 -104 q71 0 150 90l38 219q-47 78 -110 78q-64 0 -105 -91t-41 -192z" />
<glyph horiz-adv-x="737" d="M-86 -199l96 123q144 -94 242 -94q51 0 85 26t34 70q0 17 -7 32t-16 25.5t-29 23t-33.5 20t-43 22t-45.5 23.5q-86 50 -132.5 106.5t-46.5 136.5q0 108 78.5 180t212.5 72q153 0 320 -98l-97 -125q-48 29 -108 49.5t-107 20.5q-46 0 -79 -24.5t-33 -67.5q0 -15 6.5 -28 t15 -22.5t27.5 -22t33 -20t43 -22.5t47 -25q42 -25 68.5 -44.5t55.5 -49.5t43.5 -67t14.5 -82q0 -110 -84.5 -185.5t-220.5 -75.5q-94 0 -183 35.5t-157 87.5z" />
<glyph horiz-adv-x="989" d="M-14 145l131 168q199 -129 334 -129q72 0 121 37.5t49 100.5q0 23 -10.5 43t-24.5 35t-41.5 32.5t-49 28.5t-60 30.5t-62.5 32.5q-120 70 -182 143t-62 183q0 149 108.5 246.5t292.5 97.5q207 0 437 -133l-131 -168q-171 98 -297 98q-65 0 -112.5 -34.5t-47.5 -96.5 q0 -21 9.5 -39.5t21 -32t38.5 -30.5t45.5 -27t59 -30.5t63.5 -32.5q58 -33 98 -61.5t78.5 -69t58 -91t19.5 -110.5q0 -153 -114.5 -253.5t-302.5 -100.5q-130 0 -251.5 47t-215.5 116zM199 -524l118 174h-81l40 229h185l-31 -250l-190 -217z" />
<glyph horiz-adv-x="1107" d="M82.5 333.5q1.5 57.5 13.5 127.5l127 715h232l-133 -756q-11 -47 -9.5 -88.5t13.5 -73t48.5 -50t94.5 -18.5q59 0 103 17.5t71.5 50t44 71.5t25.5 89l133 758h231l-131 -754q-14 -78 -34.5 -140t-58 -120t-88.5 -96t-127.5 -61t-174.5 -23q-89 0 -157 17t-110.5 49 t-69.5 74t-36 98t-7.5 113.5zM406 1542h262l161 -276h-186z" />
<glyph horiz-adv-x="1107" d="M82.5 333.5q1.5 57.5 13.5 127.5l127 715h232l-133 -756q-11 -47 -9.5 -88.5t13.5 -73t48.5 -50t94.5 -18.5q59 0 103 17.5t71.5 50t44 71.5t25.5 89l133 758h231l-131 -754q-14 -78 -34.5 -140t-58 -120t-88.5 -96t-127.5 -61t-174.5 -23q-89 0 -157 17t-110.5 49 t-69.5 74t-36 98t-7.5 113.5zM416 1266l176 276h227l-258 -276h-145zM711 1266l178 276h227l-260 -276h-145z" />
<glyph horiz-adv-x="989" d="M-14 145l131 168q199 -129 334 -129q72 0 121 37.5t49 100.5q0 23 -10.5 43t-24.5 35t-41.5 32.5t-49 28.5t-60 30.5t-62.5 32.5q-120 70 -182 143t-62 183q0 149 108.5 246.5t292.5 97.5q207 0 437 -133l-131 -168q-171 98 -297 98q-65 0 -112.5 -34.5t-47.5 -96.5 q0 -21 9.5 -39.5t21 -32t38.5 -30.5t45.5 -27t59 -30.5t63.5 -32.5q58 -33 98 -61.5t78.5 -69t58 -91t19.5 -110.5q0 -153 -114.5 -253.5t-302.5 -100.5q-130 0 -251.5 47t-215.5 116zM315 1266l226 276h235l125 -276h-153l-101 159l-153 -159h-179z" />
<glyph horiz-adv-x="989" d="M-14 145l131 168q199 -129 334 -129q72 0 121 37.5t49 100.5q0 23 -10.5 43t-24.5 35t-41.5 32.5t-49 28.5t-60 30.5t-62.5 32.5q-120 70 -182 143t-62 183q0 149 108.5 246.5t292.5 97.5q207 0 437 -133l-131 -168q-171 98 -297 98q-65 0 -112.5 -34.5t-47.5 -96.5 q0 -21 9.5 -39.5t21 -32t38.5 -30.5t45.5 -27t59 -30.5t63.5 -32.5q58 -33 98 -61.5t78.5 -69t58 -91t19.5 -110.5q0 -144 -103.5 -243t-277.5 -109q29 -65 29 -134q0 -103 -61 -160t-154 -57q-88 0 -149 41l71 131q37 -24 80 -24q39 0 65.5 24.5t26.5 81.5q0 47 -18 99 q-208 21 -393 159z" />
<glyph horiz-adv-x="706" d="M-63 -307l157 895h168l-57 -326q121 90 215 90q87 0 121.5 -55t17.5 -158l-80 -446h-168l74 420q19 102 -45 102q-38 0 -82 -26t-78 -60l-76 -436h-167z" />
<glyph horiz-adv-x="989" d="M-14 145l131 168q199 -129 334 -129q72 0 121 37.5t49 100.5q0 23 -10.5 43t-24.5 35t-41.5 32.5t-49 28.5t-60 30.5t-62.5 32.5q-120 70 -182 143t-62 183q0 149 108.5 246.5t292.5 97.5q207 0 437 -133l-131 -168q-171 98 -297 98q-65 0 -112.5 -34.5t-47.5 -96.5 q0 -21 9.5 -39.5t21 -32t38.5 -30.5t45.5 -27t59 -30.5t63.5 -32.5q58 -33 98 -61.5t78.5 -69t58 -91t19.5 -110.5q0 -153 -114.5 -253.5t-302.5 -100.5q-130 0 -251.5 47t-215.5 116zM362 1542h156l100 -160l154 160h176l-223 -276h-236z" />
<glyph horiz-adv-x="827" d="M-13.5 -79q0.5 50 11.5 112l92 520h174l-98 -551q-7 -46 -6 -83t28.5 -60t81.5 -23q80 0 119.5 43.5t52.5 120.5l99 553h174l-99 -551q-13 -73 -34.5 -127.5t-60.5 -101t-103 -71t-152 -24.5q-78 0 -134 18.5t-86.5 50t-45 78t-14 96.5z" />
<glyph horiz-adv-x="991" d="M-14 145l131 168q199 -129 334 -129q72 0 121 37.5t49 100.5q0 23 -10.5 43t-24.5 35t-41.5 32.5t-49 28.5t-60 30.5t-62.5 32.5q-120 70 -182 143t-62 183q0 149 108.5 246.5t292.5 97.5q207 0 437 -133l-131 -168q-171 98 -297 98q-65 0 -112.5 -34.5t-47.5 -96.5 q0 -21 9.5 -39.5t21 -32t38.5 -30.5t45.5 -27t59 -30.5t63.5 -32.5q58 -33 98 -61.5t78.5 -69t58 -91t19.5 -110.5q0 -153 -114.5 -253.5t-302.5 -100.5q-130 0 -251.5 47t-215.5 116zM434 1266l252 276h291l-332 -276h-211z" />
<glyph horiz-adv-x="989" d="M-14 145l131 168q199 -129 334 -129q72 0 121 37.5t49 100.5q0 23 -10.5 43t-24.5 35t-41.5 32.5t-49 28.5t-60 30.5t-62.5 32.5q-120 70 -182 143t-62 183q0 149 108.5 246.5t292.5 97.5q207 0 437 -133l-131 -168q-171 98 -297 98q-65 0 -112.5 -34.5t-47.5 -96.5 q0 -21 9.5 -39.5t21 -32t38.5 -30.5t45.5 -27t59 -30.5t63.5 -32.5q58 -33 98 -61.5t78.5 -69t58 -91t19.5 -110.5q0 -153 -114.5 -253.5t-302.5 -100.5q-130 0 -251.5 47t-215.5 116z" />
<glyph horiz-adv-x="815" d="M143 788l152 861h301q149 0 221 -58.5t72 -163.5q0 -102 -61 -184t-179 -110l129 -345h-182l-113 334h-106l-60 -334h-174zM401 1266h131q86 0 132.5 40.5t46.5 106.5q0 92 -129 92h-138z" />
<glyph horiz-adv-x="815" d="M-49 -307l151 860h301q149 0 221 -58t72 -163q0 -103 -60.5 -185t-178.5 -110l129 -344h-183l-112 334h-107l-59 -334h-174zM209 170h131q85 0 131.5 40.5t46.5 106.5q0 93 -129 93h-137z" />
<glyph horiz-adv-x="1089" d="M27 0l206 1176h414q205 0 303.5 -77t98.5 -220q0 -65 -19.5 -127.5t-58.5 -118.5t-105 -98.5t-151 -61.5l180 -473h-242l-155 459h-156l-82 -459h-233zM242 -524l118 174h-81l40 229h185l-31 -250l-190 -217zM375 651h184q120 0 186 56.5t66 150.5q0 127 -186 127h-191z " />
<glyph horiz-adv-x="1089" d="M27 0l206 1176h414q205 0 303.5 -77t98.5 -220q0 -65 -19.5 -127.5t-58.5 -118.5t-105 -98.5t-151 -61.5l180 -473h-242l-155 459h-156l-82 -459h-233zM375 651h184q120 0 186 56.5t66 150.5q0 127 -186 127h-191zM438 1542h156l100 -160l154 160h176l-223 -276h-236z " />
<glyph horiz-adv-x="1089" d="M27 0l206 1176h414q205 0 303.5 -77t98.5 -220q0 -65 -19.5 -127.5t-58.5 -118.5t-105 -98.5t-151 -61.5l180 -473h-242l-155 459h-156l-82 -459h-233zM375 651h184q120 0 186 56.5t66 150.5q0 127 -186 127h-191zM508 1266l252 276h291l-332 -276h-211z" />
<glyph horiz-adv-x="366" d="M-63 -307l114 645h168l-115 -645h-167zM63 432l27 154h174l-26 -154h-175z" />
<glyph horiz-adv-x="1089" d="M27 0l206 1176h414q205 0 303.5 -77t98.5 -220q0 -65 -19.5 -127.5t-58.5 -118.5t-105 -98.5t-151 -61.5l180 -473h-242l-155 459h-156l-82 -459h-233zM375 651h184q120 0 186 56.5t66 150.5q0 127 -186 127h-191z" />
<glyph horiz-adv-x="868" d="M170 1110q0 65 12.5 135t43.5 146t76.5 135.5t118.5 98t163 38.5q156 0 241.5 -85t85.5 -249q0 -66 -14 -138.5t-43 -147.5t-81.5 -138t-121.5 -96l105 -115l-129 -108l-140 188q-151 3 -234 88.5t-83 247.5zM348 1112q0 -182 154 -182q50 0 91.5 32t66.5 78.5t42 103 t24 102.5t7 79q0 182 -153 182q-62 0 -110.5 -47t-73 -115t-36.5 -128.5t-12 -104.5z" />
<glyph horiz-adv-x="1107" d="M82.5 333.5q1.5 57.5 13.5 127.5l127 715h232l-133 -756q-11 -47 -9.5 -88.5t13.5 -73t48.5 -50t94.5 -18.5q59 0 103 17.5t71.5 50t44 71.5t25.5 89l133 758h231l-131 -754q-14 -78 -34.5 -140t-58 -120t-88.5 -96t-127.5 -61t-174.5 -23q-89 0 -157 17t-110.5 49 t-69.5 74t-36 98t-7.5 113.5zM416 1317l28 153h512l-26 -153h-514z" />
<glyph horiz-adv-x="1107" d="M83 314q1 66 15 147l127 715h232l-133 -756q-11 -47 -9.5 -88.5t13.5 -73t48.5 -50t94.5 -18.5q59 0 103 17.5t71.5 50t44 71.5t25.5 89l133 758h231l-131 -754q-31 -171 -107 -279.5t-227 -144.5q-91 -60 -139.5 -109t-48.5 -98q0 -14 3.5 -24t13 -16t16 -10t21.5 -5.5 t21 -2t23 0t19 0.5l-47 -123h-9q-23 0 -38.5 0.5t-46 4t-51 13t-42.5 25t-33.5 43t-11.5 63.5q0 126 168 222q-98 4 -167 31t-108 69.5t-57 104t-17 127.5z" />
<glyph horiz-adv-x="868" d="M-23 14q0 65 12.5 135t43.5 146t76.5 135.5t118.5 98t163 38.5q156 0 242 -85t86 -249q0 -66 -14 -138.5t-43 -147.5t-81.5 -138t-121.5 -96l104 -114l-129 -109l-139 188q-152 3 -235 88.5t-83 247.5zM156 16q0 -182 153 -182q50 0 91.5 32t66.5 78.5t42.5 103 t24.5 102.5t7 79q0 183 -154 183q-50 0 -92 -32t-66.5 -79t-42 -103.5t-24 -102.5t-6.5 -79z" />
<glyph horiz-adv-x="653" d="M-49 -55q0 179 93 293t251 114q100 0 158.5 -49t58.5 -133q0 -215 -340 -215h-57v-2q0 -70 24.5 -106.5t69.5 -36.5q63 0 201 75l51 -121q-46 -28 -127.5 -57t-159.5 -29q-104 0 -163.5 66t-59.5 201zM125 51h53q86 0 132 29.5t46 81.5q0 30 -19 46.5t-54 16.5 q-58 0 -100 -49t-58 -125z" />
<glyph horiz-adv-x="1173" d="M74 442q0 88 17 183t59.5 198.5t104.5 184.5t162 133.5t222 52.5q216 0 334.5 -116t118.5 -341q0 -91 -20 -191t-60 -202t-113 -188t-168 -131l143 -158l-174 -143l-194 258q-208 6 -320 122t-112 338zM309 440q0 -252 221 -252q71 0 130 44.5t94 109.5t59.5 143.5 t33.5 141.5t9 108q0 252 -221 252q-71 0 -130 -44.5t-94 -109.5t-59.5 -143.5t-33.5 -141.5t-9 -108z" />
<glyph horiz-adv-x="776" d="M143 788l152 861h276q148 0 220.5 -61.5t72.5 -170.5q0 -145 -93 -234t-261 -89h-137l-56 -306h-174zM399 1243h105q81 0 130.5 42t49.5 114q0 54 -32.5 76t-94.5 22h-115z" />
<glyph horiz-adv-x="776" d="M-49 -307l151 860h277q149 0 221 -61t72 -170q0 -145 -93.5 -234.5t-261.5 -89.5h-137l-55 -305h-174zM207 147h104q81 0 131 42t50 114q0 54 -32.5 76t-94.5 22h-115z" />
<glyph horiz-adv-x="366" d="M-213 -451q93 34 116 58t34 88l114 643h168l-113 -629q-6 -33 -8.5 -47.5t-8.5 -40.5t-11 -37.5t-14 -31.5t-19.5 -29.5t-25.5 -24.5t-33.5 -23.5t-43 -20t-54 -20.5t-66.5 -18zM63 432l27 154h176l-26 -154h-177z" />
<glyph horiz-adv-x="1142" d="M41 332q0 70 21.5 133t55.5 108.5t83 86.5t95.5 68.5t102.5 53.5q-151 117 -151 289q0 169 124 277t326 108q180 0 278.5 -87.5t98.5 -227.5q0 -228 -276 -375q219 -134 219 -352q0 -194 -149 -315.5t-390 -121.5q-208 0 -323 94t-115 261zM299 358q0 -85 52 -131.5 t141 -46.5q111 0 190.5 69t79.5 175q0 81 -48.5 139.5t-127.5 106.5q-49 -22 -86.5 -42.5t-77 -50t-65 -60.5t-42 -72t-16.5 -87zM485 1057q0 -114 125 -187q221 98 221 246q0 61 -39 102.5t-108 41.5q-85 0 -142 -61t-57 -142z" />
<glyph horiz-adv-x="1040" d="M27 0l206 1176h375q207 0 306.5 -83t99.5 -235q0 -192 -127.5 -315t-362.5 -123h-190l-74 -420h-233zM369 621h149q118 0 187 59t69 160q0 133 -180 133h-164z" />
<glyph horiz-adv-x="1173" d="M72 442q0 72 12.5 150.5t39 165t72 163t105.5 138.5t147.5 98.5t190.5 36.5q216 0 334.5 -116t118.5 -341q0 -73 -13 -152.5t-39 -166t-71.5 -163t-106 -138.5t-147.5 -98.5t-189 -36.5q-217 0 -335.5 116.5t-118.5 343.5zM309 440q0 -252 221 -252q71 0 130 44.5 t93.5 109.5t58.5 143.5t33 141t9 108.5q0 252 -221 252q-71 0 -129.5 -44.5t-93 -109.5t-59 -143.5t-33.5 -141.5t-9 -108zM416 1350q32 51 48.5 74.5t44 53.5t55 42t61.5 12q38 0 79 -24.5t74.5 -49t55.5 -24.5q20 0 43 19t61 77l98 -74q-28 -46 -47 -73t-45 -54.5 t-54.5 -40t-62.5 -12.5q-38 0 -78.5 24.5t-74 49t-56.5 24.5q-41 0 -104 -96z" />
<glyph horiz-adv-x="866" d="M170 1110q0 65 12.5 135t43.5 146t76.5 135.5t118.5 98t163 38.5q156 0 241.5 -85t85.5 -249q0 -53 -9 -111t-28 -122t-52.5 -120.5t-77 -102t-107.5 -72.5t-139 -27q-156 0 -242 85.5t-86 250.5zM348 1112q0 -182 154 -182q50 0 91.5 32t66.5 78.5t42 103t24 102.5t7 79 q0 182 -153 182q-62 0 -110.5 -47t-73 -115t-36.5 -128.5t-12 -104.5z" />
<glyph horiz-adv-x="657" d="M-63 -307l157 895h168l-88 -496l197 246h200l-241 -264l157 -381h-170l-98 258l-86 -92l-29 -166h-167z" />
<glyph horiz-adv-x="686" d="M129 788l158 895h168l-88 -495l196 246h201l-242 -265l158 -381h-170l-98 259l-86 -93l-29 -166h-168z" />
<glyph horiz-adv-x="1173" d="M0 0l139 164q-67 107 -67 278q0 72 12.5 150.5t39 165t72 163t105.5 138.5t147.5 98.5t190.5 36.5q184 0 299 -86l57 68h162l-135 -160q70 -112 70 -279q0 -73 -13 -152.5t-39 -166t-71.5 -163t-106 -138.5t-147.5 -98.5t-189 -36.5q-192 0 -307 90l-59 -72h-160z M309 440q0 -23 4 -69l478 561q-55 55 -158 55q-71 0 -129.5 -44.5t-93 -109.5t-59 -143.5t-33.5 -141.5t-9 -108zM369 246q58 -58 161 -58q71 0 130 44.5t93.5 109.5t58.5 143.5t33 141t9 108.5q0 38 -6 76zM522 1266l252 276h291l-332 -276h-211z" />
<glyph horiz-adv-x="1136" d="M39 332q0 70 21.5 133t55.5 108.5t83 86.5t95.5 68.5t102.5 53.5q-151 117 -151 289q0 169 124 277t326 108q180 0 278.5 -87.5t98.5 -227.5q0 -228 -276 -375q219 -134 219 -352q0 -194 -149 -315.5t-390 -121.5q-208 0 -323 94t-115 261zM297 358q0 -85 51.5 -131.5 t140.5 -46.5q112 0 191.5 69t79.5 175q0 81 -48.5 139.5t-127.5 106.5q-49 -22 -86.5 -42.5t-77 -50t-65 -60.5t-42 -72t-16.5 -87zM483 1057q0 -114 125 -187q221 98 221 246q0 61 -39 102.5t-108 41.5q-85 0 -142 -61t-57 -142z" />
<glyph horiz-adv-x="1173" d="M72 442q0 72 12.5 150.5t39 165t72 163t105.5 138.5t147.5 98.5t190.5 36.5q216 0 334.5 -116t118.5 -341q0 -73 -13 -152.5t-39 -166t-71.5 -163t-106 -138.5t-147.5 -98.5t-189 -36.5q-217 0 -335.5 116.5t-118.5 343.5zM309 440q0 -252 221 -252q71 0 130 44.5 t93.5 109.5t58.5 143.5t33 141t9 108.5q0 252 -221 252q-71 0 -129.5 -44.5t-93 -109.5t-59 -143.5t-33.5 -141.5t-9 -108zM453 1317l28 153h512l-26 -153h-514z" />
<glyph horiz-adv-x="866" d="M-23 14q0 65 12.5 135t43.5 146t76.5 135.5t118.5 98t163 38.5q156 0 242 -85t86 -249q0 -53 -9 -111t-28 -122t-52.5 -120.5t-77.5 -102t-108 -72.5t-139 -27q-156 0 -242 85.5t-86 250.5zM156 16q0 -182 153 -182q50 0 91.5 32t66.5 78.5t42.5 103t24.5 102.5t7 79 q0 183 -154 183q-50 0 -92 -32t-66.5 -79t-42 -103.5t-24 -102.5t-6.5 -79z" />
<glyph horiz-adv-x="1173" d="M72 442q0 72 12.5 150.5t39 165t72 163t105.5 138.5t147.5 98.5t190.5 36.5q216 0 334.5 -116t118.5 -341q0 -73 -13 -152.5t-39 -166t-71.5 -163t-106 -138.5t-147.5 -98.5t-189 -36.5q-217 0 -335.5 116.5t-118.5 343.5zM309 440q0 -252 221 -252q71 0 130 44.5 t93.5 109.5t58.5 143.5t33 141t9 108.5q0 252 -221 252q-71 0 -129.5 -44.5t-93 -109.5t-59 -143.5t-33.5 -141.5t-9 -108zM455 1266l176 276h227l-258 -276h-145zM750 1266l178 276h227l-260 -276h-145z" />
<glyph horiz-adv-x="1173" d="M72 442q0 72 12.5 150.5t39 165t72 163t105.5 138.5t147.5 98.5t190.5 36.5q216 0 334.5 -116t118.5 -341q0 -73 -13 -152.5t-39 -166t-71.5 -163t-106 -138.5t-147.5 -98.5t-189 -36.5q-217 0 -335.5 116.5t-118.5 343.5zM309 440q0 -252 221 -252q71 0 130 44.5 t93.5 109.5t58.5 143.5t33 141t9 108.5q0 252 -221 252q-71 0 -129.5 -44.5t-93 -109.5t-59 -143.5t-33.5 -141.5t-9 -108zM442 1542h263l161 -276h-186z" />
<glyph horiz-adv-x="747" d="M92 778q0 167 217 269q-90 73 -90 170q0 101 78.5 166t208.5 65q117 0 180.5 -54t63.5 -141q0 -132 -162 -219q131 -80 131 -211q0 -117 -93.5 -190.5t-248.5 -73.5q-135 0 -210 58.5t-75 160.5zM270 797q0 -49 31 -74t86 -25q65 0 111.5 36.5t46.5 94.5q0 80 -107 140 q-78 -33 -123 -73t-45 -99zM383 1206q0 -63 72 -102q59 25 94 54.5t35 74.5q0 35 -23 57.5t-63 22.5q-50 0 -82.5 -32t-32.5 -75z" />
<glyph horiz-adv-x="362" d="M-63 -307l157 895h168l-158 -895h-167z" />
<glyph horiz-adv-x="747" d="M-8 205q0 166 217 268q-90 73 -90 170q0 101 78.5 166t208.5 65q117 0 180 -53.5t63 -140.5q0 -132 -162 -219q131 -80 131 -211q0 -117 -93.5 -190.5t-248.5 -73.5q-135 0 -209.5 58.5t-74.5 160.5zM170 223q0 -48 31 -73t86 -25q65 0 111 36.5t46 94.5q0 46 -28.5 78.5 t-77.5 60.5q-78 -33 -123 -73t-45 -99zM283 633q0 -65 71 -103q59 25 94 54.5t35 74.5q0 35 -23 57.5t-63 22.5q-50 0 -82 -31.5t-32 -74.5z" />
<glyph horiz-adv-x="911" d="M-2 0l29 164q5 3 14.5 8t35.5 23t49 38.5t50 53.5t45 69h-143l18 115h156q2 8 2 25q0 31 -6 61h-137l20 113h86q-33 118 -33 190q0 152 90.5 243t247.5 91q61 0 120 -14.5t109.5 -41.5t83 -48.5t70.5 -51.5l-121 -143q-128 96 -223 96q-68 0 -108.5 -41.5t-40.5 -107.5 q0 -21 4.5 -45.5t9 -40t14 -45t13.5 -41.5h274l-22 -113h-230q2 -10 2 -31q0 -19 -4 -55h217l-20 -115h-232q-47 -102 -116 -153h413l-35 -203h-702z" />
<glyph horiz-adv-x="661" d="M-84 -307l23 123q11 5 28 15.5t55 47t58 78.5h-105l13 82h114v16q0 17 -4 45h-98l14 82h64q-25 85 -25 140q0 112 64.5 178.5t177.5 66.5q142 0 283 -116l-91 -107q-94 70 -159 70q-48 0 -76.5 -30t-28.5 -77q0 -15 3.5 -32.5t7.5 -29.5t11.5 -32.5t10.5 -30.5h193 l-15 -82h-162q2 -8 2 -22q0 -15 -4 -39h152l-14 -82h-164q-28 -57 -84 -113h295l-27 -151h-512z" />
<glyph horiz-adv-x="661" d="M109 788l22 123q4 2 10.5 6t25.5 17t36 28.5t36.5 40t32.5 50.5h-104l12 82h115v16q0 17 -4 45h-98l14 82h63q-24 82 -24 139q0 112 64 179t177 67q141 0 283 -117l-90 -106q-93 69 -160 69q-48 0 -76 -29.5t-28 -76.5q0 -15 3.5 -32.5t7.5 -29.5t11.5 -32.5t10.5 -30.5 h192l-14 -82h-162q2 -8 2 -22q0 -15 -4 -39h151l-14 -82h-164q-28 -57 -84 -113h295l-26 -152h-512z" />
<glyph horiz-adv-x="1173" d="M72 442q0 72 12.5 150.5t39 165t72 163t105.5 138.5t147.5 98.5t190.5 36.5q216 0 334.5 -116t118.5 -341q0 -73 -13 -152.5t-39 -166t-71.5 -163t-106 -138.5t-147.5 -98.5t-189 -36.5q-217 0 -335.5 116.5t-118.5 343.5zM309 440q0 -252 221 -252q71 0 130 44.5 t93.5 109.5t58.5 143.5t33 141t9 108.5q0 252 -221 252q-71 0 -129.5 -44.5t-93 -109.5t-59 -143.5t-33.5 -141.5t-9 -108zM451 1288l41 225h196l-39 -225h-198zM762 1288l41 225h196l-38 -225h-199z" />
<glyph horiz-adv-x="1173" d="M72 442q0 72 12.5 150.5t39 165t72 163t105.5 138.5t147.5 98.5t190.5 36.5q216 0 334.5 -116t118.5 -341q0 -73 -13 -152.5t-39 -166t-71.5 -163t-106 -138.5t-147.5 -98.5t-189 -36.5q-217 0 -335.5 116.5t-118.5 343.5zM309 440q0 -252 221 -252q71 0 130 44.5 t93.5 109.5t58.5 143.5t33 141t9 108.5q0 252 -221 252q-71 0 -129.5 -44.5t-93 -109.5t-59 -143.5t-33.5 -141.5t-9 -108zM408 1266l225 276h235l125 -276h-153l-101 159l-153 -159h-178z" />
<glyph horiz-adv-x="1107" d="M82.5 333.5q1.5 57.5 13.5 127.5l127 715h232l-133 -756q-11 -47 -9.5 -88.5t13.5 -73t48.5 -50t94.5 -18.5q59 0 103 17.5t71.5 50t44 71.5t25.5 89l133 758h231l-131 -754q-14 -78 -34.5 -140t-58 -120t-88.5 -96t-127.5 -61t-174.5 -23q-89 0 -157 17t-110.5 49 t-69.5 74t-36 98t-7.5 113.5zM483 1454q0 88 60.5 149.5t148.5 61.5t148.5 -61.5t60.5 -149.5t-60.5 -148.5t-148.5 -60.5t-148.5 60.5t-60.5 148.5zM602 1454q0 -37 26.5 -62.5t63.5 -25.5t63.5 25.5t26.5 62.5t-26.5 63.5t-63.5 26.5t-63.5 -26.5t-26.5 -63.5z" />
<glyph horiz-adv-x="1173" d="M72 442q0 72 12.5 150.5t39 165t72 163t105.5 138.5t147.5 98.5t190.5 36.5q216 0 334.5 -116t118.5 -341q0 -73 -13 -152.5t-39 -166t-71.5 -163t-106 -138.5t-147.5 -98.5t-189 -36.5q-217 0 -335.5 116.5t-118.5 343.5zM309 440q0 -252 221 -252q71 0 130 44.5 t93.5 109.5t58.5 143.5t33 141t9 108.5q0 252 -221 252q-71 0 -129.5 -44.5t-93 -109.5t-59 -143.5t-33.5 -141.5t-9 -108zM473 1507h150q-12 -98 92 -98q62 0 103 25t48 73h152q-20 -114 -100.5 -177.5t-208.5 -63.5q-130 0 -192.5 66t-43.5 175z" />
<glyph horiz-adv-x="833" d="M183.5 1016q0.5 50 11.5 112l92 521h174l-99 -551q-7 -46 -5.5 -83t28.5 -60t82 -23q80 0 119.5 43.5t52.5 120.5l98 553h174l-98 -551q-13 -73 -34.5 -127.5t-60.5 -101t-103 -71t-152 -24.5q-78 0 -134 18.5t-86.5 49.5t-45 77.5t-14 96.5z" />
<glyph horiz-adv-x="1173" d="M72 442q0 72 12.5 150.5t39 165t72 163t105.5 138.5t147.5 98.5t190.5 36.5q216 0 334.5 -116t118.5 -341q0 -73 -13 -152.5t-39 -166t-71.5 -163t-106 -138.5t-147.5 -98.5t-189 -36.5q-217 0 -335.5 116.5t-118.5 343.5zM309 440q0 -252 221 -252q71 0 130 44.5 t93.5 109.5t58.5 143.5t33 141t9 108.5q0 252 -221 252q-71 0 -129.5 -44.5t-93 -109.5t-59 -143.5t-33.5 -141.5t-9 -108zM526 1266l252 276h291l-332 -276h-211z" />
<glyph horiz-adv-x="1667" d="M72 442q0 72 12.5 150.5t39 165t72 163t105.5 138.5t147.5 98.5t190.5 36.5q190 0 303 -88l12 70h723l-39 -207h-487l-49 -281h399l-35 -201h-399l-49 -280h493l-36 -207h-727l6 37q-104 -55 -228 -55q-217 0 -335.5 116.5t-118.5 343.5zM309 440q0 -252 221 -252 q71 0 130 44.5t93.5 109.5t58.5 143.5t33 141t9 108.5q0 252 -221 252q-71 0 -129.5 -44.5t-93 -109.5t-59 -143.5t-33.5 -141.5t-9 -108z" />
<glyph horiz-adv-x="1036" d="M-70 -307l115 645h168l-14 -80q98 94 192 94q61 0 95 -30t42 -82q41 43 98 77.5t115 34.5q83 0 116 -56t17 -151l-79 -452h-168l75 426q18 96 -40 96q-34 0 -71.5 -26t-68.5 -62l-76 -434h-167l75 426q18 96 -43 96q-62 0 -135 -86l-78 -436h-168z" />
<glyph horiz-adv-x="1107" d="M82.5 333.5q1.5 57.5 13.5 127.5l127 715h232l-133 -756q-11 -47 -9.5 -88.5t13.5 -73t48.5 -50t94.5 -18.5q59 0 103 17.5t71.5 50t44 71.5t25.5 89l133 758h231l-131 -754q-14 -78 -34.5 -140t-58 -120t-88.5 -96t-127.5 -61t-174.5 -23q-89 0 -157 17t-110.5 49 t-69.5 74t-36 98t-7.5 113.5zM379 1350q32 51 48.5 74.5t44 53.5t55 42t61.5 12q38 0 79 -24.5t74.5 -49t55.5 -24.5q20 0 43 19t61 77l98 -74q-57 -94 -100.5 -137t-107.5 -43q-38 0 -78.5 24.5t-74 49t-56.5 24.5q-42 0 -105 -96z" />
<glyph horiz-adv-x="1083" d="M131 1176h254l84 -908l399 908h275l-584 -1176h-256z" />
<glyph horiz-adv-x="1173" d="M72 442q0 72 12.5 150.5t39 165t72 163t105.5 138.5t147.5 98.5t190.5 36.5q216 0 334.5 -116t118.5 -341q0 -73 -13 -152.5t-39 -166t-71.5 -163t-106 -138.5t-147.5 -98.5t-189 -36.5q-217 0 -335.5 116.5t-118.5 343.5zM309 440q0 -252 221 -252q71 0 130 44.5 t93.5 109.5t58.5 143.5t33 141t9 108.5q0 252 -221 252q-71 0 -129.5 -44.5t-93 -109.5t-59 -143.5t-33.5 -141.5t-9 -108z" />
<glyph horiz-adv-x="1144" d="M27 0l206 1176h236l264 -814l144 814h231l-207 -1176h-235l-265 813l-141 -813h-233zM410 1350q23 36 32.5 50.5t29 41.5t32.5 38.5t32 26t39 20t43 5.5q38 0 79 -24.5t74.5 -49t55.5 -24.5q20 0 43.5 19t61.5 77l98 -74q-28 -46 -47 -73t-45 -54.5t-54.5 -40 t-62.5 -12.5q-38 0 -78.5 24.5t-74 49t-56.5 24.5q-41 0 -104 -96z" />
<glyph horiz-adv-x="864" d="M143 788l152 861h176l184 -580l103 580h174l-152 -861h-176l-184 578l-103 -578h-174z" />
<glyph horiz-adv-x="864" d="M-49 -307l151 860h177l184 -580l102 580h174l-151 -860h-176l-185 577l-102 -577h-174z" />
<glyph horiz-adv-x="1144" d="M27 0l206 1176h236l264 -814l144 814h231l-207 -1176h-235l-265 813l-141 -813h-233zM276 -524l119 174h-82l41 229h185l-31 -250l-191 -217z" />
<glyph horiz-adv-x="1144" d="M27 0l206 1176h236l264 -814l144 814h231l-207 -1176h-235l-265 813l-141 -813h-233zM453 1542h155l101 -160l153 160h176l-223 -276h-235z" />
<glyph horiz-adv-x="1144" d="M27 0l206 1176h236l264 -814l144 814h231l-207 -1176h-235l-265 813l-141 -813h-233zM567 1266l252 276h291l-332 -276h-211z" />
<glyph horiz-adv-x="1144" d="M27 0l206 1176h236l264 -814l144 814h231l-207 -1176h-235l-265 813l-141 -813h-233z" />
<glyph horiz-adv-x="731" d="M0 12l68 131q30 -8 71 -8q99 0 181 63.5t124 170.5q-68 -64 -165 -64q-102 0 -162 69t-60 173q0 132 84.5 229.5t225.5 97.5q137 0 211.5 -90.5t74.5 -222.5q0 -113 -38 -217.5t-104.5 -183.5t-163 -126.5t-206.5 -47.5q-40 0 -75.5 6.5t-50.5 13.5zM231 555 q0 -48 27 -81.5t80 -33.5q45 0 85 29t56 61q2 12 2 37q0 69 -29 113.5t-85 44.5q-63 0 -99.5 -50.5t-36.5 -119.5z" />
<glyph horiz-adv-x="778" d="M8 553h193l55 -655l285 655h207l-426 -860h-191z" />
<glyph horiz-adv-x="1095" d="M-6 -246l98 193q49 -15 115 -15q164 0 299.5 119.5t204.5 315.5q-117 -117 -275 -117q-160 0 -253 113t-93 280q0 106 33.5 204t94.5 176t155 124.5t207 46.5q108 0 193.5 -42t138.5 -113t80.5 -160t27.5 -189q0 -152 -38.5 -297.5t-111.5 -267t-171 -214t-224 -144.5 t-264 -52q-62 0 -116 9.5t-77 19.5zM344 657q0 -86 44 -147t132 -61q78 0 145.5 52t98.5 113q4 58 4 86q0 117 -49 197t-139 80q-108 0 -172 -96.5t-64 -223.5z" />
<glyph horiz-adv-x="1144" d="M61 16l99 193q48 -14 114 -14q164 0 299.5 119t204.5 315q-117 -117 -274 -117q-160 0 -253 113t-93 280q0 106 33.5 204t94 176t154.5 124.5t207 46.5q108 0 193.5 -42t138.5 -113t80.5 -160t27.5 -189q0 -190 -61 -368t-166.5 -312t-257.5 -214.5t-323 -80.5 q-62 0 -116.5 9.5t-78.5 19.5zM412 920q0 -55 17 -100.5t58.5 -77t100.5 -31.5q78 0 145 52t98 114q5 73 5 86q0 116 -49 196t-140 80q-108 0 -171.5 -96t-63.5 -223z" />
<glyph horiz-adv-x="778" d="M201 1649h192l56 -656l284 656h207l-426 -861h-190z" />
<glyph horiz-adv-x="1470" d="M145 1176h254l11 -824l319 824h189l30 -822l297 822h268l-487 -1176h-225l-37 821l-320 -821h-223z" />
<glyph horiz-adv-x="712" d="M-70 -307l115 645h168l-14 -74q124 88 215 88q86 0 121 -55.5t18 -157.5l-80 -446h-168l76 422q7 47 -2 73.5t-45 26.5q-38 0 -81.5 -24.5t-76.5 -57.5l-78 -440h-168z" />
<glyph horiz-adv-x="1470" d="M145 1176h254l11 -824l319 824h189l30 -822l297 822h268l-487 -1176h-225l-37 821l-320 -821h-223zM670 1266l252 276h290l-331 -276h-211z" />
<glyph horiz-adv-x="1021" d="M0 145l131 168q117 -79 229 -112l54 307l-27 16q-120 70 -182 143t-62 183q0 147 106.5 244t287.5 100l26 152h160l-31 -168q137 -31 289 -117l-131 -168q-99 58 -193 82l-51 -295l25 -12q58 -33 98 -61.5t78.5 -69t58 -91t19.5 -110.5q0 -149 -110.5 -249.5 t-291.5 -104.5l-26 -150h-162l29 166q-174 36 -324 147zM393 860q0 -57 66 -100l39 225q-46 -13 -75.5 -45t-29.5 -80zM520 190q51 12 83 47t32 85q0 57 -74 108z" />
<glyph horiz-adv-x="980" d="M143 788l152 861h178l105 -498l294 498h177l-152 -861h-174l96 543l-231 -399h-84l-88 418l-99 -562h-174z" />
<glyph horiz-adv-x="980" d="M-49 -307l151 860h179l104 -498l295 498h176l-151 -860h-175l97 543l-232 -400h-84l-88 418l-98 -561h-174z" />
<glyph horiz-adv-x="1120" d="M18 268l31 176h189l88 287h-164l31 176h188l84 269h172l-84 -269h201l84 269h174l-84 -269h166l-33 -176h-189l-88 -287h166l-30 -176h-191l-82 -268h-172l82 268h-203l-82 -268h-172l82 268h-164zM410 444h202l88 287h-202z" />
<glyph horiz-adv-x="811" d="M-72 -113l23 133h135l64 205h-119l24 133h135l60 195h129l-60 -195h140l59 195h129l-59 -195h119l-25 -133h-135l-62 -205h119l-24 -133h-136l-57 -194h-131l59 194h-141l-59 -194h-129l59 194h-117zM215 20h141l62 205h-139z" />
<glyph horiz-adv-x="811" d="M123 983l22 133h136l63 205h-119l25 133h135l59 195h129l-59 -195h139l60 195h129l-60 -195h119l-24 -133h-136l-61 -205h119l-25 -133h-135l-57 -195h-131l59 195h-141l-60 -195h-129l60 195h-117zM410 1116h141l61 205h-139z" />
<glyph horiz-adv-x="1306" d="M27 0l206 1176h240l152 -684l407 684h238l-207 -1176h-232l134 764l-330 -567h-111l-127 589l-137 -786h-233z" />
<glyph horiz-adv-x="659" d="M143 788l152 861h174l-125 -707h342l-27 -154h-516z" />
<glyph horiz-adv-x="880" d="M2 336l37 217l113 61l98 562h233l-73 -416l213 119l-37 -217l-215 -121l-60 -336h475l-34 -205h-709l70 397z" />
<glyph horiz-adv-x="659" d="M-49 -307l151 860h174l-124 -707h342l-27 -153h-516z" />
<glyph horiz-adv-x="878" d="M27 0l206 1176h234l-172 -971h475l-35 -205h-708zM565 510l39 227h203l-41 -227h-201z" />
<glyph horiz-adv-x="874" d="M27 0l206 1176h234l-172 -971h475l-35 -205h-708zM188 -524l119 174h-82l41 229h185l-31 -250l-191 -217z" />
<glyph horiz-adv-x="1470" d="M145 1176h254l11 -824l319 824h189l30 -822l297 822h268l-487 -1176h-225l-37 821l-320 -821h-223zM553 1266l225 276h236l125 -276h-154l-100 159l-154 -159h-178z" />
<glyph horiz-adv-x="876" d="M27 0l206 1176h234l-172 -971h475l-35 -205h-708zM461 772l119 174h-82l41 230h184l-31 -250l-190 -217z" />
<glyph horiz-adv-x="874" d="M27 0l206 1176h234l-172 -971h475l-35 -205h-708zM186 1266l252 276h291l-332 -276h-211z" />
<glyph horiz-adv-x="700" d="M-47 -59q0 57 11 113t36.5 110.5t62.5 95.5t93.5 66.5t124.5 25.5q118 0 194 -65t76 -197q0 -57 -11 -113t-36.5 -110.5t-62.5 -96t-93.5 -67t-124.5 -25.5q-118 0 -194 65.5t-76 197.5zM121 -63q0 -61 24.5 -91t79.5 -30q41 0 73 30t49.5 75t26.5 90t9 83 q0 121 -104 121q-40 0 -72 -30t-50 -75t-27 -90t-9 -83z" />
<glyph horiz-adv-x="874" d="M27 0l206 1176h234l-172 -971h475l-35 -205h-708z" />
<glyph horiz-adv-x="796" d="M143 788l152 861h174l-66 -367l320 367h223l-371 -402l234 -459h-193l-159 332l-101 -108l-39 -224h-174z" />
<glyph horiz-adv-x="559" d="M37 731l227 129h164l-152 -860h-174l123 678l-129 -68z" />
<glyph horiz-adv-x="557" d="M139 1305l228 129h163l-151 -861h-174l123 678l-129 -67z" />
<glyph horiz-adv-x="720" d="M86 967l354 209h236l-207 -1176h-252l162 909l-207 -118z" />
<glyph horiz-adv-x="1142" d="M20 0l39 219h340l168 948l-258 -147l-84 176l404 238h235l-213 -1215h346l-39 -219h-938z" />
<glyph horiz-adv-x="716" d="M-61 -98q0 116 32.5 217t97.5 167t150 66q38 0 73.5 -16.5t52 -31t44.5 -42.5l57 326h168l-157 -895h-168l14 80q-108 -95 -201 -95q-73 0 -118 58.5t-45 165.5zM109 -74q0 -50 17.5 -77t49.5 -27q69 0 152 90l39 219q-50 78 -113 78q-64 0 -104.5 -91t-40.5 -192z" />
<glyph horiz-adv-x="1329" d="M129 1069l193 107h133l-125 -705h-144l103 559l-111 -59zM162 0l686 1176h151l-686 -1176h-151zM645 168q0 137 189 219q-82 59 -82 141q0 83 67 136t178 53q101 0 155 -44.5t54 -115.5q0 -109 -141 -178q117 -67 117 -176q0 -95 -80 -155t-211 -60q-116 0 -181 48 t-65 132zM791 184q0 -40 28.5 -61t75.5 -21q60 0 101.5 29.5t41.5 77.5q0 66 -96 119q-71 -31 -111 -63t-40 -81zM887 518q0 -51 65 -86q54 21 85.5 46.5t31.5 62.5q0 30 -20.5 48.5t-57.5 18.5q-45 0 -74.5 -27t-29.5 -63z" />
<glyph horiz-adv-x="1333" d="M129 1069l193 107h133l-125 -705h-142l101 559l-111 -59zM164 0l686 1176h149l-686 -1176h-149zM655 88l78 92q82 -65 158 -65q56 0 98.5 35.5t42.5 95.5q0 44 -24 70t-72 26q-56 0 -127 -43l-76 49l98 357h404l-21 -123h-284l-31 -136q41 13 80 13q96 0 147.5 -57.5 t51.5 -145.5q0 -109 -75 -188.5t-202 -79.5q-135 0 -246 100z" />
<glyph horiz-adv-x="796" d="M-49 -307l151 860h174l-65 -367l319 367h224l-371 -401l233 -459h-192l-160 332l-100 -109l-39 -223h-174z" />
<glyph horiz-adv-x="1335" d="M127 1069l195 107h131l-125 -705h-142l103 559l-113 -59zM162 0l686 1176h153l-688 -1176h-151zM651 0l13 68q10 55 33 99.5t63.5 82.5t69.5 59t83 56q48 30 72 46t53 40t41 43.5t11 40.5q0 26 -21 42.5t-59 16.5q-68 0 -176 -62l-54 101q122 84 250 84q97 0 151 -48.5 t54 -123.5q0 -40 -18 -78.5t-40.5 -65t-63 -57.5t-64 -46t-66.5 -40q-70 -42 -100 -70.5t-37 -64.5h311l-20 -123h-486z" />
<glyph horiz-adv-x="1470" d="M145 1176h254l11 -824l319 824h189l30 -822l297 822h268l-487 -1176h-225l-37 821l-320 -821h-223zM594 1286l41 225h196l-38 -225h-199zM905 1286l41 225h197l-39 -225h-199z" />
<glyph horiz-adv-x="1064" d="M27 0l206 1176h234l-90 -510l448 510h299l-514 -549l328 -627h-260l-223 459l-142 -150l-53 -309h-233zM236 -524l118 174h-82l41 229h185l-31 -250l-191 -217z" />
<glyph horiz-adv-x="1298" d="M129 1069l193 107h133l-127 -705h-142l103 559l-113 -59zM162 0l686 1176h153l-688 -1176h-151zM575 137l17 103l373 465h186l-80 -445h94l-18 -123h-96l-25 -137h-143l24 137h-332zM743 260h187l57 311z" />
<glyph horiz-adv-x="1312" d="M129 1069l193 107h133l-125 -705h-142l101 559l-111 -59zM164 0l686 1176h151l-686 -1176h-151zM649 250q0 123 55 229.5t156.5 172t224.5 65.5q34 0 63.5 -5.5t42.5 -10.5l13 -5l-51 -108q-28 8 -63 8q-88 0 -160 -52t-109 -141q56 52 144 52q91 0 142.5 -56.5 t51.5 -142.5q0 -109 -71 -188.5t-193 -79.5q-118 0 -182 75.5t-64 186.5zM791 242q0 -56 26.5 -93.5t77.5 -37.5q57 0 90 40.5t33 96.5q0 41 -24 68.5t-74 27.5q-41 0 -76 -22.5t-53 -49.5v-30z" />
<glyph horiz-adv-x="1064" d="M27 0l206 1176h234l-90 -510l448 510h299l-514 -549l328 -627h-260l-223 459l-142 -150l-53 -309h-233z" />
<glyph horiz-adv-x="1470" d="M145 1176h254l11 -824l319 824h189l30 -822l297 822h268l-487 -1176h-225l-37 821l-320 -821h-223zM588 1542h262l162 -276h-187z" />
<glyph horiz-adv-x="1316" d="M127 1069l195 107h131l-125 -705h-142l103 559l-113 -59zM162 0l686 1176h151l-686 -1176h-151zM641 86l76 90q97 -63 176 -63q60 0 96.5 29.5t36.5 74.5q0 51 -47 74.5t-115 23.5h-24l20 123h31q62 0 115 27.5t53 71.5q0 55 -76 55q-70 0 -168 -53l-49 98q132 80 248 80 q91 0 140.5 -43t49.5 -109q0 -58 -39 -105t-108 -75q51 -19 82.5 -63.5t31.5 -102.5q0 -90 -68.5 -160.5t-197.5 -70.5q-139 0 -264 98z" />
<glyph horiz-adv-x="399" d="M6 713q90 31 115.5 56.5t34.5 86.5l139 793h174l-137 -783q-7 -39 -10.5 -58t-11.5 -47.5t-16.5 -42.5t-23.5 -34.5t-34 -32t-46.5 -26.5t-63 -27t-81.5 -25z" />
<glyph horiz-adv-x="399" d="M-188 -383q90 31 115 56.5t34 86.5l139 793h174l-137 -782q-7 -39 -10.5 -58t-11.5 -47.5t-16.5 -42.5t-23.5 -34.5t-34 -32t-46.5 -26.5t-63 -27t-81.5 -25z" />
<glyph horiz-adv-x="503" d="M-162 -104q66 22 103 39.5t58 42t28.5 46.5t15.5 68l190 1084h234l-188 -1072q-24 -139 -46 -188q-36 -81 -129 -131q-74 -39 -213 -76zM70 1266l225 276h235l125 -276h-153l-101 159l-153 -159h-178z" />
<glyph horiz-adv-x="505" d="M-162 -104q66 22 103 39.5t58 42t28.5 46.5t15.5 68l190 1084h234l-188 -1072q-24 -139 -46 -188q-36 -81 -129 -131q-74 -39 -213 -76z" />
<glyph horiz-adv-x="1056" d="M18 553h193l2 -588l227 588h144l20 -588l209 588h203l-357 -860h-167l-23 590l-229 -590h-168z" />
<glyph horiz-adv-x="505" d="M27 0l206 1176h234l-207 -1176h-233zM80 1350q32 51 48.5 74.5t44 53.5t55 42t61.5 12q38 0 79 -24.5t74.5 -49t55.5 -24.5q20 0 43 19t61 77l98 -74q-57 -94 -100.5 -137t-107.5 -43q-38 0 -78.5 24.5t-74 49t-56.5 24.5q-42 0 -105 -96z" />
<glyph horiz-adv-x="401" d="M143 788l152 861h174l-152 -861h-174z" />
<glyph horiz-adv-x="505" d="M-100 -240q0 75 52 132.5t148 107.5h-73l206 1176h234l-207 -1176h-6q-93 -61 -143 -110t-50 -99q0 -14 3.5 -24t13 -16t16 -10t21.5 -5.5t21 -2t23 0t19 0.5l-47 -123h-9q-23 0 -38.5 0.5t-45.5 4t-50.5 13t-42.5 25t-33.5 43t-11.5 63.5z" />
<glyph horiz-adv-x="1099" d="M80 705q0 205 129.5 338t339.5 133h194l-262 -1487h-186l121 690q-153 0 -244.5 83.5t-91.5 242.5zM600 -311l262 1487h189l-263 -1487h-188z" />
<glyph horiz-adv-x="501" d="M27 0l206 1176h234l-207 -1176h-233zM115 1317l28 153h512l-26 -153h-514z" />
<glyph horiz-adv-x="577" d="M35.5 -26q-2.5 73 17.5 180l152 870q9 50 15 78t17.5 64.5t23.5 57t32.5 46.5t46.5 42t63 34.5t84 33t109 29.5l37 -141q-108 -40 -140.5 -76.5t-46.5 -122.5l-172 -977q-14 -58 -11 -95t26 -59.5t84 -50.5l-66 -127q-144 39 -206.5 90t-65 124z" />
<glyph horiz-adv-x="1058" d="M213 1649h193l2 -588l227 588h143l21 -588l209 588h202l-356 -861h-168l-22 590l-230 -590h-168z" />
<glyph horiz-adv-x="620" d="M141 1034q0 190 88 302t209 112q49 0 103.5 -19.5t79 -33.5t69.5 -43l-80 -119q-3 2 -27 17.5t-37 22.5t-36 15t-43 8q-65 0 -110.5 -71t-45.5 -172q0 -62 22.5 -94.5t65.5 -32.5q45 0 160 59l51 -133q-51 -24 -74 -34.5t-79 -27t-99 -16.5q-97 0 -157 66t-60 194z" />
<glyph horiz-adv-x="399" d="M-49 -307l151 860h174l-151 -860h-174z" />
<glyph horiz-adv-x="577" d="M-68 -98q108 40 140.5 76t46.5 122l172 977q14 58 11 95t-26 59.5t-83 50.5l65 127q144 -39 206.5 -89.5t65 -123.5t-17.5 -180l-152 -871q-9 -50 -15 -78t-17.5 -64.5t-23.5 -57t-32.5 -46.5t-46.5 -42t-63 -34.5t-84 -33t-109 -29.5z" />
<glyph horiz-adv-x="1452" d="M82 535q0 132 45 250.5t129 210t214.5 145t289.5 53.5q276 0 438 -152.5t162 -400.5q0 -132 -45 -250.5t-129 -210t-214.5 -145t-289.5 -53.5q-276 0 -438 152.5t-162 400.5zM152 535q0 -217 143 -353.5t391 -136.5q139 0 254.5 47t191 128.5t117 189.5t41.5 231 q0 217 -143 353t-391 136q-139 0 -254.5 -47t-191 -128t-117 -189t-41.5 -231zM391 508q-7 104 19.5 189.5t77 140t117.5 84.5t143 30q62 0 123.5 -21t93 -41t71.5 -50l-57 -56q-34 27 -57 42.5t-74 34t-103 18.5q-119 0 -196 -104.5t-68 -260.5q6 -101 51.5 -159t120.5 -58 q128 0 267 90l49 -61q-51 -30 -85.5 -48t-99.5 -37.5t-127 -19.5q-111 0 -185.5 76t-80.5 211z" />
<glyph horiz-adv-x="1724" d="M-178 -262q54 20 88 35t61.5 36t41 37t26.5 51t19 63t16 87l147 840h-119l35 188h117l16 86q32 176 106 254t199 78q134 0 336 -72l13 72h241l-96 -541q76 66 149.5 106t157.5 40q122 0 196.5 -92t74.5 -269q0 -142 -30 -277t-84.5 -243.5t-139.5 -174t-187 -65.5 q-90 0 -154 40.5t-126 109.5l-23 -127h-241l215 1229q-191 45 -256 45q-44 0 -72 -28.5t-37 -76.5l-16 -94h219l-35 -188h-219l-144 -824q-17 -100 -26 -143.5t-30.5 -106.5t-46.5 -90t-72 -63.5t-110.5 -60.5t-158.5 -50zM961 326q85 -142 194 -142q73 0 130.5 83 t85.5 198.5t28 232.5q0 91 -31.5 143t-95.5 52q-107 0 -238 -145z" />
<glyph horiz-adv-x="745" d="M-137 -307l319 434l-155 426h190l84 -305l191 305h206l-307 -424l170 -436h-194l-93 301l-196 -301h-215z" />
<glyph horiz-adv-x="503" d="M27 0l206 1176h234l-207 -1176h-233zM104 1542h263l161 -276h-186z" />
<glyph horiz-adv-x="1517" d="M106 815q0 67 19.5 132t56.5 121.5t99.5 91t140.5 34.5q115 0 191.5 -64t76.5 -186q0 -67 -19 -132t-55.5 -121.5t-98.5 -91t-140 -34.5q-117 0 -194 64t-77 186zM274 813q0 -113 107 -113q37 0 66 26t45 65.5t24 79t8 73.5q0 115 -106 115q-37 0 -66 -26t-45 -66 t-24.5 -80t-8.5 -74zM297 0l733 1176h176l-735 -1176h-174zM817 231q0 67 19 132t55.5 121.5t98 91t138.5 34.5q118 0 194.5 -63.5t76.5 -186.5q0 -67 -19 -132t-56 -121t-99 -90.5t-140 -34.5q-116 0 -192 63t-76 186zM983 231q0 -114 107 -114q37 0 66 26t45 65.5t24 79.5 t8 74q0 113 -107 113q-37 0 -66 -26t-45 -65.5t-24 -79t-8 -73.5z" />
<glyph horiz-adv-x="1083" d="M-14 289q0 49 13.5 96.5t40 89t71.5 67t102 25.5q85 0 140 -47.5t55 -136.5q0 -68 -23 -128.5t-76.5 -104.5t-128.5 -44q-85 0 -139.5 47t-54.5 136zM109 289q0 -82 73 -82q49 0 76 60t27 116q0 82 -74 82q-26 0 -47 -19t-32 -48t-17 -57t-6 -52zM121 -307l530 860h131 l-530 -860h-131zM496 -139q0 49 14 97t41 89t72 66.5t102 25.5q84 0 139.5 -46.5t55.5 -135.5q0 -67 -23.5 -128.5t-77.5 -106t-129 -44.5q-83 0 -138.5 47t-55.5 136zM621 -139q0 -82 73 -82q34 0 58.5 34t33.5 72.5t9 71.5q0 80 -74 80q-49 0 -74.5 -59t-25.5 -117z" />
<glyph horiz-adv-x="1083" d="M180 1384q0 49 14 96.5t40.5 89.5t71.5 67.5t102 25.5q84 0 139 -47t55 -137q0 -39 -8 -77.5t-26.5 -75t-44.5 -64t-64 -44t-84 -16.5q-85 0 -140 46.5t-55 135.5zM303 1384q0 -81 74 -81q26 0 47 19t32 48t17 57t6 52q0 82 -73 82q-49 0 -76 -60.5t-27 -116.5zM315 788 l531 861h131l-531 -861h-131zM690 956q0 67 23.5 128.5t77.5 106t129 44.5q84 0 139 -46.5t55 -135.5q0 -49 -14 -97.5t-41 -89.5t-72 -66.5t-102 -25.5q-84 0 -139.5 46.5t-55.5 135.5zM815 956q0 -82 74 -82q34 0 58 34t33 72.5t9 72.5q0 80 -74 80q-34 0 -58 -33 t-33 -71.5t-9 -72.5z" />
<glyph horiz-adv-x="503" d="M27 0l206 1176h234l-207 -1176h-233zM115 1286l41 225h196l-39 -225h-198zM426 1286l41 225h197l-39 -225h-199z" />
<glyph horiz-adv-x="503" d="M27 0l206 1176h234l-207 -1176h-233zM70 1266l225 276h235l125 -276h-153l-101 159l-153 -159h-178z" />
<glyph horiz-adv-x="368" d="M131 788l35 203h170l-35 -203h-170zM199 1176l34 202h170l-34 -202h-170z" />
<glyph horiz-adv-x="638" d="M170 1143q0 189 87 300t208 111l35 -2l37 97h71l-43 -111l29 -10l45 121h72l-56 -150q25 -13 70 -43l-80 -119q-5 3 -19 12.5t-22 14.5l-119 -320q17 5 36 14t41 20.5t30 15.5l53 -133q-137 -64 -219 -76l-35 -97h-72l35 95l-30 6l-37 -101h-72l47 130q-92 63 -92 225z M338 1161q0 -27 2 -37l98 265q-45 -26 -72.5 -89t-27.5 -139zM381 1044q11 -8 29 -12l135 363l-29 8z" />
<glyph horiz-adv-x="641" d="M-23 47q0 189 87 300.5t208 111.5l35 -2l37 96h72l-43 -111l28 -10l45 121h72l-55 -150q38 -20 69 -43l-79 -118q-3 2 -41 26l-119 -319q17 5 35.5 13.5t41 20.5t29.5 15l54 -133q-137 -64 -220 -76l-34 -96h-72l35 94l-31 6l-37 -100h-71l47 129q-93 64 -93 225zM145 66 q0 -27 2 -37l99 264q-45 -27 -73 -89t-28 -138zM188 -51q11 -8 29 -12l135 362l-28 8z" />
</font>
</defs>
</svg>
