<?xml version="1.0" standalone="no"?>
<!DOCTYPE svg PUBLIC "-//W3C//DTD SVG 1.1//EN" "http://www.w3.org/Graphics/SVG/1.1/DTD/svg11.dtd" >
<svg xmlns="http://www.w3.org/2000/svg">
<metadata></metadata>
<defs>
<font id="verbcondblack" horiz-adv-x="1239" >
<font-face units-per-em="2048" ascent="1638" descent="-410" />
<missing-glyph horiz-adv-x="514" />
<glyph unicode="ff" horiz-adv-x="1583" d="M31 801v274h135q0 212 83.5 315t262.5 103q174 0 377 -94l-115 -252q-105 39 -156 39q-15 0 -25.5 -2.5t-23 -11t-19.5 -29t-7 -51.5v-17h194v-274h-194v-801h-377v801h-135zM821 801v274h133q0 212 84 315t265 103q176 0 374 -94l-125 -252q-25 11 -72 25t-73 14 q-15 0 -25.5 -2.5t-23 -11t-19 -29t-6.5 -51.5v-17h230v-274h-230v-801h-379v801h-133z" />
<glyph unicode="fi" horiz-adv-x="1363" d="M31 801v274h135q0 212 83.5 315t264.5 103q135 0 295 -76l-80 -258q-89 27 -111 27q-15 0 -25.5 -2.5t-23 -11t-19.5 -29t-7 -51.5v-17h231v-274h-231v-801h-377v801h-135zM881 1192v295h391v-295h-391zM889 0v1075h377v-1075h-377z" />
<glyph unicode="fl" horiz-adv-x="1366" d="M31 801v274h135q0 212 83.5 315t264.5 103q135 0 295 -76l-80 -258q-89 27 -111 27q-15 0 -25.5 -2.5t-23 -11t-19.5 -29t-7 -51.5v-17h231v-274h-231v-801h-377v801h-135zM889 0v1493h379v-1493h-379z" />
<glyph unicode="ffi" horiz-adv-x="2154" d="M31 801v274h135q0 212 83.5 315t262.5 103q174 0 377 -94l-115 -252q-105 39 -156 39q-15 0 -25.5 -2.5t-23 -11t-19.5 -29t-7 -51.5v-17h194v-274h-194v-801h-377v801h-135zM821 801v274h133q2 212 86 315t263 103q139 0 294 -76l-79 -258q-84 27 -111 27 q-15 0 -25.5 -2.5t-23 -11t-19 -29t-6.5 -51.5v-17h230v-274h-230v-801h-379v801h-133zM1673 1192v295h391v-295h-391zM1679 0v1075h379v-1075h-379z" />
<glyph unicode="ffl" horiz-adv-x="2156" d="M31 801v274h135q0 212 83.5 315t262.5 103q174 0 377 -94l-115 -252q-105 39 -156 39q-15 0 -25.5 -2.5t-23 -11t-19.5 -29t-7 -51.5v-17h194v-274h-194v-801h-377v801h-135zM821 801v274h133q2 212 86 315t263 103q139 0 294 -76l-79 -258q-84 27 -111 27 q-15 0 -25.5 -2.5t-23 -11t-19 -29t-6.5 -51.5v-17h230v-274h-230v-801h-379v801h-133zM1681 0v1493h377v-1493h-377z" />
<glyph unicode="ffk" horiz-adv-x="2756" d="M31 801v274h135q0 212 83.5 315t262.5 103q174 0 377 -94l-115 -252q-105 39 -156 39q-15 0 -25.5 -2.5t-23 -11t-19.5 -29t-7 -51.5v-17h194v-274h-194v-801h-377v801h-135zM821 801v274h133q2 212 86 315t263 103q139 0 294 -76l-79 -258q-84 27 -111 27 q-15 0 -25.5 -2.5t-23 -11t-19 -29t-6.5 -51.5v-17h230v-274h-230v-801h-379v801h-133zM1679 0v1493h377v-760l232 342h436l-342 -424l397 -651h-397l-221 375l-105 -131v-244h-377z" />
<glyph unicode="ffj" horiz-adv-x="2154" d="M31 801v274h135q0 212 83.5 315t262.5 103q174 0 377 -94l-115 -252q-105 39 -156 39q-15 0 -25.5 -2.5t-23 -11t-19.5 -29t-7 -51.5v-17h194v-274h-194v-801h-377v801h-135zM821 801v274h133q2 212 86 315t263 103q139 0 294 -76l-79 -258q-84 27 -111 27 q-15 0 -25.5 -2.5t-23 -11t-19 -29t-6.5 -51.5v-17h230v-274h-230v-801h-379v801h-133zM1460 -209q57 21 92.5 36t61.5 34t38 31.5t18.5 40t7.5 47t1 63.5v1032h379v-1001q0 -84 -1.5 -123t-9.5 -100.5t-26.5 -90.5t-52 -70.5t-85.5 -66.5t-127 -52t-177 -50zM1673 1192v295 h391v-295h-391z" />
<glyph unicode="fft" horiz-adv-x="2449" d="M31 801v274h135q0 212 83.5 315t262.5 103q174 0 377 -94l-115 -252q-105 39 -156 39q-15 0 -25.5 -2.5t-23 -11t-19.5 -29t-7 -51.5v-17h194v-274h-194v-801h-377v801h-135zM821 801v274h133q0 212 84 315t265 103q176 0 374 -94l-125 -252q-25 11 -72 25t-73 14 q-15 0 -25.5 -2.5t-23 -11t-19 -29t-6.5 -51.5v-17h195v-274h-195v-801h-379v801h-133zM1612 801v274h133v271l379 40v-311h268v-274h-268v-402q0 -31 7 -51.5t20 -29t23.5 -11t25.5 -2.5q46 0 127 45l131 -278q-200 -95 -365 -95q-181 0 -264.5 104.5t-83.5 319.5v400h-133 z" />
<glyph unicode="fh" horiz-adv-x="2031" d="M31 801v274h135q0 212 83.5 315t264.5 103q135 0 295 -76l-80 -258q-89 27 -111 27q-15 0 -25.5 -2.5t-23 -11t-19.5 -29t-7 -51.5v-17h231v-274h-231v-801h-377v801h-135zM889 0v1493h377v-530q90 63 176 99t188 36q158 0 235 -88.5t77 -255.5v-754h-379v664 q0 70 -20 106.5t-73 36.5q-98 0 -204 -113v-694h-377z" />
<glyph unicode="fj" horiz-adv-x="1361" d="M31 801v274h135q0 212 83.5 315t264.5 103q135 0 295 -76l-80 -258q-89 27 -111 27q-15 0 -25.5 -2.5t-23 -11t-19.5 -29t-7 -51.5v-17h231v-274h-231v-801h-377v801h-135zM668 -209q43 16 73 27.5t54.5 26t39.5 23.5t26 26t16.5 27t8 34t3 39t0.5 49v1032h377v-1001 q0 -66 -0.5 -97.5t-4.5 -83t-13 -76t-24.5 -63.5t-40 -59.5t-59.5 -49t-83 -47t-111 -39t-142 -38.5zM881 1192v295h391v-295h-391z" />
<glyph unicode="fk" horiz-adv-x="1964" d="M31 801v274h135q0 212 83.5 315t264.5 103q135 0 295 -76l-80 -258q-89 27 -111 27q-15 0 -25.5 -2.5t-23 -11t-19.5 -29t-7 -51.5v-17h231v-274h-231v-801h-377v801h-135zM889 0v1493h377v-758l231 340h436l-342 -424l398 -651h-398l-221 375l-104 -131v-244h-377z" />
<glyph unicode="ft" horiz-adv-x="1658" d="M31 801v274h135q0 212 83.5 315t262.5 103q174 0 377 -94l-125 -252q-98 39 -146 39q-15 0 -25.5 -2.5t-23 -11t-19.5 -29t-7 -51.5v-17h194v-274h-194v-801h-377v801h-135zM819 801v274h135v271l377 40v-311h268v-274h-268v-402q0 -31 7 -51.5t20 -29t23.5 -11 t25.5 -2.5q39 0 129 45l129 -278q-200 -95 -365 -95q-181 0 -263.5 104.5t-82.5 319.5v400h-135z" />
<glyph unicode="ffh" horiz-adv-x="2822" d="M31 801v274h135q0 212 83.5 315t262.5 103q174 0 377 -94l-115 -252q-105 39 -156 39q-15 0 -25.5 -2.5t-23 -11t-19.5 -29t-7 -51.5v-17h194v-274h-194v-801h-377v801h-135zM821 801v274h133q2 212 86 315t263 103q139 0 294 -76l-79 -258q-84 27 -111 27 q-15 0 -25.5 -2.5t-23 -11t-19 -29t-6.5 -51.5v-17h230v-274h-230v-801h-379v801h-133zM1679 0v1493h379v-530q90 62 176.5 98.5t188.5 36.5q156 0 232.5 -88.5t76.5 -255.5v-754h-377v664q0 70 -20.5 106.5t-73.5 36.5q-49 0 -104 -32t-99 -81v-694h-379z" />
<glyph unicode="ffb" horiz-adv-x="2822" d="M31 801v274h135q0 212 83.5 315t262.5 103q174 0 377 -94l-115 -252q-105 39 -156 39q-15 0 -25.5 -2.5t-23 -11t-19.5 -29t-7 -51.5v-17h194v-274h-194v-801h-377v801h-135zM821 801v274h133q2 212 86 315t263 103q139 0 294 -76l-79 -258q-84 27 -111 27 q-15 0 -25.5 -2.5t-23 -11t-19 -29t-6.5 -51.5v-17h230v-274h-230v-801h-379v801h-133zM1679 0v1493h379v-524q72 64 144.5 96.5t171.5 32.5q186 0 290.5 -144.5t104.5 -416.5q0 -269 -105 -414.5t-290 -145.5q-98 0 -170.5 32t-145.5 93v-102h-379zM2058 393 q90 -114 189 -114q141 0 141 260q0 258 -141 258q-99 0 -189 -115v-289z" />
<glyph unicode="fb" horiz-adv-x="2029" d="M31 801v274h135q0 212 83.5 315t264.5 103q135 0 295 -76l-80 -258q-89 27 -111 27q-15 0 -25.5 -2.5t-23 -11t-19.5 -29t-7 -51.5v-17h231v-274h-231v-801h-377v801h-135zM889 0v1493h377v-524q72 63 145 96t170 33q186 0 291.5 -145t105.5 -416q0 -268 -106 -414 t-291 -146q-97 0 -169.5 32t-145.5 93v-102h-377zM1266 393q90 -114 188 -114q141 0 141 260q0 258 -141 258q-98 0 -188 -115v-289z" />
<glyph unicode=" "  horiz-adv-x="514" />
<glyph unicode="&#x09;" horiz-adv-x="514" />
<glyph unicode="&#xa0;" horiz-adv-x="514" />
<glyph unicode="!" horiz-adv-x="626" d="M84 1434h461l-117 -949h-225zM129 0v362h373v-362h-373z" />
<glyph unicode="&#x22;" horiz-adv-x="901" d="M59 1434h351l-60 -578h-231zM492 1434h350l-60 -578h-231z" />
<glyph unicode="#" horiz-adv-x="1396" d="M61 295v280h232l39 283h-193v283h234l41 293h284l-41 -293h203l41 293h287l-41 -293h190v-283h-231l-39 -283h193v-280h-234l-41 -295h-285l41 295h-202l-41 -295h-287l41 295h-191zM578 575h202l39 283h-203z" />
<glyph unicode="$" horiz-adv-x="1304" d="M57 182l174 279q91 -58 235 -109t236 -51q58 0 93.5 23.5t35.5 68.5q0 31 -20.5 53t-63.5 38.5t-90.5 30t-121 36.5t-134.5 49q-313 124 -313 418q0 177 113 295.5t329 138.5v188h269v-202q223 -39 413 -140l-174 -282q-87 43 -206 80t-199 37q-57 0 -93 -23t-36 -68 q0 -32 21 -53.5t64 -37t91 -28t119 -34.5t131 -47q46 -20 83 -40t83.5 -56.5t77 -79t52 -106t21.5 -138.5q0 -180 -115.5 -301t-332.5 -139v-187h-269v201q-138 25 -263 76t-210 110z" />
<glyph unicode="%" horiz-adv-x="1957" d="M53 1071q0 179 100.5 282t288.5 103q187 0 289.5 -103.5t102.5 -281.5t-102 -280.5t-290 -102.5q-189 0 -289 102.5t-100 280.5zM324 1071q0 -158 118 -158q119 0 119 158q0 79 -30.5 119.5t-88.5 40.5q-118 0 -118 -160zM496 0l680 1434h284l-680 -1434h-284zM1126 360 q0 178 101 281.5t289 103.5q187 0 288 -103.5t101 -281.5t-101 -280.5t-288 -102.5q-189 0 -289.5 102.5t-100.5 280.5zM1397 360q0 -157 119 -157q118 0 118 157q0 160 -118 160q-58 0 -88.5 -40.5t-30.5 -119.5z" />
<glyph unicode="&#x26;" horiz-adv-x="1439" d="M90 367q0 64 20.5 121t59 105t80 85t98.5 76q-80 87 -122 167t-42 175q0 161 121 260.5t318 99.5q196 0 311 -99t115 -241q0 -58 -20 -113t-59 -104t-79 -87.5t-96 -82.5l168 -178q46 100 49 205h374q-13 -103 -60.5 -224t-127.5 -229l289 -303h-428l-86 90 q-182 -113 -412 -113q-206 0 -338.5 111t-132.5 279zM461 379q0 -52 37 -88.5t98 -36.5q83 0 166 59l-209 224q-92 -85 -92 -158zM518 1081q0 -67 88 -159q107 80 107 159q0 42 -24 77.5t-71 35.5t-73.5 -35.5t-26.5 -77.5z" />
<glyph unicode="'" horiz-adv-x="468" d="M59 1434h351l-60 -578h-231z" />
<glyph unicode="(" horiz-adv-x="696" d="M96 256v911q0 64 1 96.5t5 83t13 76t25 63.5t41 59t60.5 49t84.5 46.5t112.5 39t143.5 38.5l92 -205q-45 -18 -75.5 -33t-51.5 -33t-32.5 -33t-17 -40t-7 -45.5t-1.5 -58.5v-1114q0 -45 2.5 -69t11.5 -51.5t29 -45.5t54 -37.5t88 -40.5l-92 -205q-90 20 -159.5 41 t-120.5 49t-86 50.5t-58 62t-35.5 66.5t-18.5 82t-7 90.5t-1 107.5z" />
<glyph unicode=")" horiz-adv-x="694" d="M20 -88q54 21 88 40.5t54 37.5t29 45.5t11.5 51.5t2.5 69v1114q0 38 -1.5 58.5t-7 45.5t-17 40t-32.5 33t-51.5 33t-75.5 33l93 205q80 -18 143.5 -38.5t112.5 -39t84.5 -46.5t60.5 -48.5t41 -58.5t24.5 -63.5t12.5 -76t5 -82t1 -96.5v-911q0 -58 -0.5 -87t-3.5 -76 t-9.5 -70.5t-18 -60t-29.5 -56t-44.5 -47.5t-62 -45t-82 -38t-105 -38t-130.5 -33z" />
<glyph unicode="*" horiz-adv-x="966" d="M61 950l332 66l-332 67l156 269l223 -256l-108 321h309l-109 -321l222 256l153 -269l-313 -65l313 -68l-153 -268l-215 240l102 -308h-309l108 322l-223 -254z" />
<glyph unicode="+" horiz-adv-x="1292" d="M147 543v280h359v357h280v-357h359v-280h-359v-357h-280v357h-359z" />
<glyph unicode="," horiz-adv-x="565" d="M92 -238l168 238h-166v397h373l20 -448l-301 -311z" />
<glyph unicode="-" horiz-adv-x="847" d="M94 432v301h658v-301h-658z" />
<glyph unicode="." horiz-adv-x="559" d="M92 0v397h373v-397h-373z" />
<glyph unicode="/" horiz-adv-x="954" d="M33 -184l616 1802h279l-615 -1802h-280z" />
<glyph unicode="0" horiz-adv-x="1345" d="M70 717q0 352 155 545.5t449 193.5q293 0 447.5 -193.5t154.5 -545.5t-155.5 -546t-448.5 -194t-447.5 193.5t-154.5 546.5zM467 717q0 -234 53 -336t152 -102q100 0 154.5 102t54.5 336q0 233 -53.5 334.5t-153.5 101.5t-153.5 -101t-53.5 -335z" />
<glyph unicode="1" horiz-adv-x="888" d="M-14 1198l395 236h375v-1434h-394v1075l-225 -129z" />
<glyph unicode="2" horiz-adv-x="1226" d="M47 0v160q0 83 24.5 160.5t62 137t95 118t109.5 100t119 86.5q31 20 78.5 50t72.5 46t57 39.5t47 41t26.5 40t11.5 45.5q0 46 -36.5 77.5t-105.5 31.5q-128 0 -356 -136l-170 252q43 32 91.5 61.5t125.5 65.5t174 58t197 22q120 0 213 -33t149.5 -90.5t85.5 -131 t29 -159.5q0 -42 -6 -81t-21 -74t-29 -64.5t-40 -59.5t-45 -52t-53 -48.5t-54 -42t-58 -39.5t-55 -34.5t-55 -32.5q-51 -31 -77.5 -49t-61.5 -45t-50.5 -50.5t-15.5 -45.5h623v-324h-1102z" />
<glyph unicode="3" horiz-adv-x="1220" d="M16 174l170 264q252 -133 406 -133q82 0 126 33t44 96q0 42 -24.5 72.5t-58 45.5t-85 24t-87 10.5t-83.5 1.5h-57v325h67q273 0 273 125q0 95 -119 95q-80 0 -177.5 -37t-177.5 -84l-157 243q271 201 577 201q114 0 202 -28t140.5 -77.5t78.5 -111.5t26 -135 q0 -203 -197 -313q111 -41 182.5 -140t71.5 -223q0 -70 -15.5 -132t-53 -121.5t-94.5 -102.5t-147 -69t-204 -26q-322 0 -627 197z" />
<glyph unicode="4" horiz-adv-x="1366" d="M29 250v268l573 916h524v-861h199v-323h-199v-250h-393v250h-704zM410 573h323v521z" />
<glyph unicode="5" horiz-adv-x="1222" d="M41 172l172 283q42 -29 68.5 -45t78.5 -43.5t104.5 -41.5t104.5 -14q87 0 141 43t54 119q0 71 -48.5 119.5t-146.5 48.5q-62 0 -117 -19t-126 -55l-217 138l71 729h928v-324h-594l-10 -172q80 18 166 18q99 0 181 -26t139 -71t96 -106.5t57 -131.5t18 -146 q0 -100 -32.5 -188t-96.5 -158t-169.5 -111t-239.5 -41q-96 0 -190 20t-170 53.5t-127 62t-95 59.5z" />
<glyph unicode="6" horiz-adv-x="1257" d="M63 596q0 255 106.5 450.5t300 302.5t445.5 107q57 0 111 -5.5t79 -10.5l25 -6l-90 -306q-52 11 -122 11q-64 0 -122 -15t-115 -47.5t-103.5 -93.5t-75.5 -145q122 92 280 92q188 0 311.5 -123t123.5 -324q0 -103 -38.5 -194.5t-108 -161t-175 -110t-231.5 -40.5 q-122 0 -223 34t-170 92.5t-116.5 138t-69 168.5t-22.5 186zM461 545q1 -67 20 -118.5t49 -78.5t61 -40t62 -13q87 0 128.5 51t41.5 121q0 76 -48 125t-124 49q-108 0 -190 -96z" />
<glyph unicode="7" horiz-adv-x="1054" d="M39 1110v324h999v-304q-10 -13 -27 -36t-66 -96.5t-94 -149t-99.5 -185t-93.5 -212.5t-66 -224t-27 -227h-405q0 140 45.5 303.5t103 287.5t133 251.5t112 179.5t64.5 88h-579z" />
<glyph unicode="8" horiz-adv-x="1306" d="M57 395q0 73 22 134t63 107.5t88 81t108 64.5q-195 127 -195 318q0 159 132.5 257.5t377.5 98.5q243 0 375.5 -98.5t132.5 -257.5q0 -190 -194 -318q128 -63 204 -155.5t76 -231.5q0 -195 -153.5 -306.5t-440.5 -111.5t-441.5 111.5t-154.5 306.5zM455 426q0 -68 54 -112 t144 -44q89 0 143 44.5t54 111.5q0 65 -51.5 113.5t-147.5 93.5q-94 -45 -145 -93.5t-51 -113.5zM526 1061q0 -89 125 -150q127 60 127 150q0 42 -32.5 77.5t-92.5 35.5q-62 0 -94.5 -35.5t-32.5 -77.5z" />
<glyph unicode="9" horiz-adv-x="1257" d="M43 950q0 103 38 194.5t107.5 161t175 110t232.5 40.5q122 0 222.5 -34t169 -92t116 -137.5t69 -168.5t21.5 -186q0 -191 -62 -352t-173 -272.5t-269 -174t-346 -62.5q-58 0 -112.5 5.5t-79.5 11.5l-25 6l90 305q55 -10 123 -10q63 0 121 14.5t115 47t103.5 93 t74.5 144.5q-119 -90 -279 -90q-187 0 -309.5 123t-122.5 323zM436 967q0 -76 47.5 -125t124.5 -49q109 0 189 94q-1 67 -19.5 118.5t-48 79t-60.5 41t-61 13.5q-88 0 -130 -51.5t-42 -120.5z" />
<glyph unicode=":" horiz-adv-x="600" d="M113 0v397h372v-397h-372zM113 610v398h372v-398h-372z" />
<glyph unicode=";" horiz-adv-x="608" d="M113 -238l168 238h-166v397h372l21 -448l-301 -311zM115 610v398h372v-398h-372z" />
<glyph unicode="&#x3c;" horiz-adv-x="1292" d="M123 557v252l993 414v-314l-606 -227l606 -229v-310z" />
<glyph unicode="=" horiz-adv-x="1292" d="M147 344v281h998v-281h-998zM147 745v281h998v-281h-998z" />
<glyph unicode="&#x3e;" horiz-adv-x="1292" d="M176 143v314l606 227l-606 229v310l993 -414v-252z" />
<glyph unicode="?" horiz-adv-x="1079" d="M47 1288q250 168 506 168q213 0 342 -106t129 -283q0 -81 -27 -148t-69 -113t-105 -84.5t-122 -61.5t-134 -44l-18 -131h-227l-21 332q191 40 258.5 76.5t67.5 110.5q0 54 -34 91.5t-110 37.5q-120 0 -278 -107zM248 0v362h375v-362h-375z" />
<glyph unicode="@" horiz-adv-x="1824" d="M63 518q0 259 101.5 458.5t299 314t464.5 114.5q197 0 354 -66t259 -184.5t155.5 -280t54.5 -354.5q0 -93 -11 -174.5t-39 -160t-71.5 -134t-114 -89.5t-161.5 -34q-60 0 -109.5 17.5t-81 44t-54 62t-33 66.5t-15.5 62q-135 -135 -303 -135q-136 0 -219.5 83t-83.5 226 q0 148 89.5 229t233.5 81q28 0 60 -3t66 -9t57.5 -10.5t56.5 -11.5t41 -9v71q0 80 -32.5 113t-111.5 33q-137 0 -319 -78l-84 186q263 96 457 96q185 0 269.5 -85.5t84.5 -274.5v-303q0 -48 1 -79.5t4 -68t10 -59t18.5 -42.5t29 -29t41.5 -9q88 0 147.5 110.5t59.5 325.5 q0 126 -26.5 238t-83 208t-138.5 165.5t-199.5 109t-258.5 39.5q-180 0 -323.5 -59.5t-235.5 -164t-140.5 -244t-48.5 -302.5q0 -221 82.5 -394.5t240 -273.5t365.5 -100q62 0 122 8.5t101 21t73 25t48 21.5l15 8l71 -96q-6 -4 -18 -11t-53.5 -25.5t-88.5 -32t-123 -25 t-157 -11.5q-234 0 -415.5 114t-280.5 315.5t-99 455.5zM725 379q0 -65 32.5 -97t88.5 -32q103 0 213 104v133q-146 31 -193 31q-71 0 -106 -37t-35 -102z" />
<glyph unicode="A" horiz-adv-x="1392" d="M-8 0l487 1434h434l486 -1434h-424l-64 240h-432l-63 -240h-424zM561 545h268l-135 502z" />
<glyph unicode="B" horiz-adv-x="1359" d="M119 0v1434h602q528 0 528 -349q0 -70 -21 -129.5t-54 -97.5t-68 -61t-68 -29q41 -7 86 -31t90.5 -67t75 -117t29.5 -166q0 -185 -125 -286t-391 -101h-684zM512 299h201q217 0 217 156q0 83 -56 120t-172 37h-190v-313zM512 889h172q176 0 176 127q0 119 -174 119h-174 v-246z" />
<glyph unicode="C" horiz-adv-x="1263" d="M59 717q0 184 41.5 326t118 231.5t180.5 135.5t232 46q155 0 297 -52.5t317 -152.5l-178 -288q-130 71 -219.5 106t-163.5 35q-109 0 -165 -103.5t-56 -283.5t56 -283.5t165 -103.5q74 0 163.5 35t219.5 106l178 -289q-175 -100 -317 -152.5t-297 -52.5q-128 0 -232 46 t-180.5 136t-118 232t-41.5 326z" />
<glyph unicode="D" horiz-adv-x="1417" d="M119 0v1434h532q354 0 530.5 -170.5t176.5 -546.5t-176.5 -546.5t-530.5 -170.5h-532zM514 332h98q87 0 148 16.5t110 57.5t73 118.5t24 192.5t-24 192.5t-73 118.5t-110 57.5t-148 16.5h-98v-770z" />
<glyph unicode="E" horiz-adv-x="1212" d="M119 0v1434h1018v-332h-625v-223h508v-324h-508v-223h635v-332h-1028z" />
<glyph unicode="F" horiz-adv-x="1159" d="M119 0v1434h1018v-332h-625v-223h492v-326h-492v-553h-393z" />
<glyph unicode="G" horiz-adv-x="1376" d="M59 715q0 185 42.5 327t120 232t183.5 136t236 46q113 0 231 -31t205 -71t205 -105l-176 -288q-140 72 -236 107.5t-176 35.5q-115 0 -173 -103t-58 -284q0 -408 227 -408q68 0 133.5 43t112.5 97v92h-274v307h632v-848h-358v125q-161 -148 -340 -148q-110 0 -206 46 t-170.5 135t-117.5 232.5t-43 324.5z" />
<glyph unicode="H" horiz-adv-x="1433" d="M119 0v1434h393v-521h412v521h391v-1434h-391v590h-412v-590h-393z" />
<glyph unicode="I" horiz-adv-x="630" d="M119 0v1434h393v-1434h-393z" />
<glyph unicode="J" horiz-adv-x="630" d="M-100 -111q56 20 92.5 35.5t61.5 34t37.5 31.5t19 39t7.5 44t1 58v1303h393v-1280q0 -66 -0.5 -97t-4.5 -83t-13 -76.5t-24.5 -63t-40.5 -59t-60.5 -49t-84.5 -47t-112.5 -39.5t-144.5 -39z" />
<glyph unicode="K" horiz-adv-x="1396" d="M119 0v1434h393v-555l414 555h479l-539 -658l549 -776h-467l-323 481l-113 -137v-344h-393z" />
<glyph unicode="L" horiz-adv-x="1134" d="M119 0v1434h393v-1102h604v-332h-997z" />
<glyph unicode="M" horiz-adv-x="1673" d="M119 0v1434h399l320 -742l319 742h399v-1434h-393v754l-223 -514h-203l-225 516v-756h-393z" />
<glyph unicode="N" horiz-adv-x="1464" d="M119 0v1434h397l438 -789v789h392v-1434h-398l-436 786v-786h-393z" />
<glyph unicode="O" horiz-adv-x="1486" d="M55 717q0 160 39.5 291.5t120 233t214.5 158t312 56.5t312.5 -56.5t215.5 -158t121 -233t40 -291.5q0 -127 -24.5 -237t-78 -203t-133 -159.5t-195 -103.5t-258.5 -37q-178 0 -312 56.5t-214.5 158.5t-120 233.5t-39.5 291.5zM459 717q0 -190 68 -298t214 -108 q147 0 215 107.5t68 298.5q0 189 -68 297t-215 108q-74 0 -129 -29.5t-88 -84t-49 -127t-16 -164.5z" />
<glyph unicode="P" horiz-adv-x="1331" d="M119 0v1434h614q290 0 426.5 -122.5t136.5 -359.5q0 -236 -136.5 -356.5t-426.5 -120.5h-221v-475h-393zM512 795h193q94 0 144 33.5t50 123.5t-50.5 124t-143.5 34h-193v-315z" />
<glyph unicode="Q" horiz-adv-x="1486" d="M55 717q0 160 39.5 291.5t120 233t214.5 158t312 56.5t312.5 -56.5t215.5 -158t121 -233t40 -291.5q0 -219 -75.5 -386.5t-228.5 -258.5l213 -176l-256 -265l-342 346q-178 0 -312 56.5t-214.5 158.5t-120 233.5t-39.5 291.5zM459 717q0 -190 68 -298t214 -108 q147 0 215 107.5t68 298.5q0 189 -68 297t-215 108q-74 0 -129 -29.5t-88 -84t-49 -127t-16 -164.5z" />
<glyph unicode="R" horiz-adv-x="1390" d="M119 0v1434h653q294 0 429.5 -112.5t135.5 -344.5q0 -174 -76 -280.5t-235 -147.5l313 -549h-426l-272 520h-129v-520h-393zM512 825h231q96 0 147.5 32.5t51.5 119.5t-51.5 119t-145.5 32h-233v-303z" />
<glyph unicode="S" horiz-adv-x="1261" d="M33 182l174 279q91 -58 235 -109t236 -51q58 0 93.5 23.5t35.5 68.5q0 31 -20.5 53t-63.5 38.5t-90.5 30t-121 36.5t-134.5 49q-314 124 -314 418q0 93 32.5 171.5t95.5 138.5t163.5 94t229.5 34q153 0 315.5 -45t288.5 -113l-174 -282q-87 43 -206.5 80t-199.5 37 q-57 0 -93 -23t-36 -68q0 -32 21 -53.5t64 -37t91 -28t119 -34.5t131 -47q46 -20 83.5 -40t83.5 -56.5t77 -79t52.5 -106t21.5 -138.5q0 -196 -136 -320.5t-389 -124.5q-182 0 -363 61.5t-302 143.5z" />
<glyph unicode="T" horiz-adv-x="1173" d="M20 1102v332h1131v-332h-367v-1102h-393v1102h-371z" />
<glyph unicode="U" horiz-adv-x="1411" d="M104 614v820h392v-856q0 -61 8.5 -105.5t30.5 -83t64.5 -58.5t105.5 -20t105.5 20t64 58.5t30 83t8.5 105.5v856h394v-820q0 -80 -7 -146.5t-25 -133.5t-47 -119t-75.5 -98t-108.5 -76t-147.5 -47t-191.5 -17q-146 0 -254 33.5t-173.5 88.5t-105.5 139.5t-54 173 t-14 202.5z" />
<glyph unicode="V" horiz-adv-x="1388" d="M-10 1434h452l250 -945l252 945h453l-486 -1434h-434z" />
<glyph unicode="W" horiz-adv-x="1908" d="M10 1434h443l153 -861l197 861h305l195 -865l155 865h440l-370 -1434h-379l-195 827l-192 -827h-379z" />
<glyph unicode="X" horiz-adv-x="1323" d="M-16 0l432 727l-410 707h453l200 -443l203 443h453l-410 -707l432 -727h-467l-211 426l-208 -426h-467z" />
<glyph unicode="Y" horiz-adv-x="1304" d="M-16 1434h442l225 -490l228 490h442l-473 -867v-567h-391v567z" />
<glyph unicode="Z" horiz-adv-x="1253" d="M47 0v299l619 803h-578v332h1092v-299l-619 -803h629v-332h-1143z" />
<glyph unicode="[" horiz-adv-x="747" d="M115 -293v2011h604v-213h-211v-1585h211v-213h-604z" />
<glyph unicode="\" horiz-adv-x="954" d="M29 1618h278l615 -1802h-279z" />
<glyph unicode="]" horiz-adv-x="747" d="M27 -80h211v1585h-211v213h604v-2011h-604v213z" />
<glyph unicode="^" horiz-adv-x="1292" d="M100 641l353 793h387l352 -793h-406l-141 379l-139 -379h-406z" />
<glyph unicode="_" horiz-adv-x="1370" d="M90 -133h1192v-264h-1192v264z" />
<glyph unicode="`" horiz-adv-x="479" d="M-82 1493h401l242 -293h-307z" />
<glyph unicode="a" horiz-adv-x="1187" d="M35 336q0 159 104 250.5t279 91.5q51 0 108.5 -8t121.5 -21t73 -14v53q0 72 -33 99.5t-117 27.5q-115 0 -356 -74l-115 256q304 101 549 101q244 0 346.5 -99t102.5 -335v-664h-377v117q-144 -140 -330 -140q-163 0 -259.5 101.5t-96.5 257.5zM418 371q0 -53 27 -80 t75 -27q102 0 201 88v105q-117 26 -178 26q-58 0 -91.5 -28t-33.5 -84z" />
<glyph unicode="b" d="M96 0v1493h377v-524q72 63 145 96t170 33q186 0 292 -145t106 -416q0 -268 -106.5 -414t-291.5 -146q-97 0 -169.5 32t-145.5 93v-102h-377zM473 393q90 -114 189 -114q141 0 141 260q0 258 -141 258q-99 0 -189 -115v-289z" />
<glyph unicode="c" horiz-adv-x="1011" d="M49 539q0 142 38.5 252t105 175.5t149.5 98.5t178 33q195 0 467 -125l-145 -279q-178 82 -254 82q-77 0 -116.5 -63.5t-39.5 -173.5t39.5 -175t116.5 -65q76 0 254 82l145 -279q-261 -125 -465 -125q-96 0 -179 33.5t-150 99.5t-105.5 176.5t-38.5 252.5z" />
<glyph unicode="d" d="M51 537q0 272 104.5 416.5t290.5 144.5q98 0 171 -32.5t147 -96.5v524h377v-1493h-377v102q-75 -62 -147.5 -93.5t-170.5 -31.5q-185 0 -290 145.5t-105 414.5zM434 539q0 -260 139 -260q101 0 191 114v289q-90 115 -191 115q-139 0 -139 -258z" />
<glyph unicode="e" horiz-adv-x="1134" d="M49 532q0 268 137.5 417t391.5 149q248 0 377.5 -132t129.5 -350q0 -40 -4.5 -79.5t-8.5 -58.5l-5 -19h-633q9 -105 47 -155t115 -50q125 0 362 121l132 -232q-275 -166 -535 -166q-109 0 -199 33t-159.5 99t-108.5 174t-39 249zM436 653h281q-3 181 -137 181 q-65 0 -99 -45t-45 -136z" />
<glyph unicode="f" horiz-adv-x="790" d="M31 801v274h135q0 212 83.5 315t262.5 103q174 0 377 -94l-125 -252q-98 39 -146 39q-15 0 -25.5 -2.5t-23 -11t-19.5 -29t-7 -51.5v-17h231v-274h-231v-801h-377v801h-135z" />
<glyph unicode="g" d="M51 537q0 272 104.5 416.5t290.5 144.5q98 0 171 -32.5t147 -96.5v106h377v-1040q0 -241 -112.5 -357t-364.5 -116q-124 0 -280 25.5t-290 66.5l72 285q93 -32 218.5 -59t193.5 -27q109 0 147.5 36.5t38.5 124.5v88q-75 -62 -147.5 -93.5t-170.5 -31.5q-185 0 -290 145.5 t-105 414.5zM434 539q0 -260 139 -260q101 0 191 114v289q-90 115 -191 115q-139 0 -139 -258z" />
<glyph unicode="h" d="M96 0v1493h377v-530q90 62 176.5 98.5t188.5 36.5q311 0 311 -344v-754h-379v664q0 70 -19.5 106.5t-72.5 36.5q-50 0 -104.5 -32t-100.5 -81v-694h-377z" />
<glyph unicode="i" horiz-adv-x="571" d="M90 1192v295h391v-295h-391zM98 0v1075h377v-1075h-377z" />
<glyph unicode="j" horiz-adv-x="571" d="M-123 -209q43 16 73 27.5t54.5 26t39.5 23.5t26 26t16.5 27t8 34t3 39t0.5 49v1032h377v-1001q0 -60 -0.5 -88t-3.5 -76t-9 -71t-17.5 -60.5t-29 -56t-43.5 -47t-60.5 -45.5t-80.5 -38.5t-103.5 -38t-129.5 -32.5zM90 1192v295h391v-295h-391z" />
<glyph unicode="k" horiz-adv-x="1173" d="M96 0v1493h377v-760l232 342h436l-342 -424l397 -651h-397l-221 375l-105 -131v-244h-377z" />
<glyph unicode="l" horiz-adv-x="573" d="M98 0v1493h379v-1493h-379z" />
<glyph unicode="m" horiz-adv-x="1818" d="M96 0v1075h377v-125q157 148 320 148q213 0 280 -174q59 66 153 120t193 54q157 0 233.5 -89t76.5 -255v-754h-377v664q0 72 -16.5 107.5t-67.5 35.5q-41 0 -86.5 -31.5t-79.5 -75.5v-700h-379v664q0 73 -16 108t-68 35q-41 0 -86.5 -31.5t-79.5 -75.5v-700h-377z" />
<glyph unicode="n" d="M96 0v1075h377v-112q90 62 176.5 98.5t188.5 36.5q311 0 311 -344v-754h-379v664q0 70 -19.5 106.5t-72.5 36.5q-50 0 -104.5 -32t-100.5 -81v-694h-377z" />
<glyph unicode="o" horiz-adv-x="1210" d="M47 539q0 268 144.5 413.5t412.5 145.5t412.5 -146.5t144.5 -414.5t-144 -414t-413 -146q-266 0 -411.5 147t-145.5 415zM430 539q0 -275 174 -275t174 273q0 274 -174 274t-174 -272z" />
<glyph unicode="p" d="M96 -418v1493h377v-106q72 63 145 96t170 33q186 0 292 -145t106 -416q0 -268 -106.5 -414t-291.5 -146q-97 0 -169.5 32t-145.5 93v-520h-377zM473 393q90 -114 189 -114q141 0 141 260q0 258 -141 258q-99 0 -189 -115v-289z" />
<glyph unicode="q" d="M51 537q0 272 104.5 416.5t290.5 144.5q98 0 171 -32.5t147 -96.5v106h377v-1493h-377v520q-75 -62 -147.5 -93.5t-170.5 -31.5q-185 0 -290 145.5t-105 414.5zM434 539q0 -260 139 -260q101 0 191 114v289q-90 115 -191 115q-139 0 -139 -258z" />
<glyph unicode="r" horiz-adv-x="866" d="M96 0v1075h377v-221q11 26 25 52t45.5 63t70.5 63q38 28 98 44q46 13 98 12q16 0 32 -1v-354q-68 0 -125.5 -19t-94 -49.5t-65.5 -67.5t-44 -74t-25 -67.5t-12 -49.5l-3 -19v-387h-377z" />
<glyph unicode="s" horiz-adv-x="1064" d="M31 121l141 264q87 -45 212.5 -84t199.5 -39q67 0 67 35q0 17 -13 30.5t-42 24.5t-54 18t-71 18t-70 18q-350 96 -350 356q0 149 108 242.5t314 93.5q133 0 274.5 -36.5t241.5 -84.5l-143 -244q-74 32 -177 58t-167 26q-72 0 -72 -39q0 -16 11 -28.5t37 -22t51 -16.5 t71.5 -18.5t79.5 -20.5q354 -92 354 -359q0 -154 -111.5 -245t-322.5 -91q-150 0 -309 43.5t-260 100.5z" />
<glyph unicode="t" horiz-adv-x="876" d="M39 801v274h135v271l377 40v-311h268v-274h-268v-402q0 -31 7 -51.5t20 -29t23.5 -11t25.5 -2.5q39 0 129 45l129 -278q-200 -95 -365 -95q-181 0 -263.5 104.5t-82.5 319.5v400h-135z" />
<glyph unicode="u" d="M90 322v753h379v-663q0 -70 20 -107t72 -37q49 0 103.5 31.5t101.5 79.5v696h379v-1075h-379v113q-194 -136 -365 -136q-157 0 -234 89.5t-77 255.5z" />
<glyph unicode="v" horiz-adv-x="1159" d="M2 1075h404l174 -635l176 635h403l-391 -1075h-375z" />
<glyph unicode="w" horiz-adv-x="1660" d="M16 1075h400l114 -631l156 631h291l153 -626l115 626h400l-304 -1075h-350l-160 586l-159 -586h-350z" />
<glyph unicode="x" horiz-adv-x="1202" d="M-14 0l381 537l-359 538h420l172 -295l172 295h420l-358 -538l380 -537h-434l-180 307l-180 -307h-434z" />
<glyph unicode="y" horiz-adv-x="1163" d="M4 1075h408l172 -608l170 608h407l-538 -1493h-406l176 414z" />
<glyph unicode="z" horiz-adv-x="1134" d="M55 0v258l494 508h-475v309h997v-258l-493 -508h493v-309h-1016z" />
<glyph unicode="{" horiz-adv-x="776" d="M8 606v213q116 0 153.5 56.5t24.5 160.5l-22 191q-13 103 7 185.5t66.5 139t117.5 94.5t159 55t193 17h34v-205h-34q-52 0 -87 -24.5t-47.5 -63t-17.5 -84.5t2 -88l18 -145q22 -183 -54 -274.5t-247 -120.5q171 -29 247 -121t54 -275l-18 -145q-7 -43 -2 -89t17.5 -84 t47.5 -62.5t87 -24.5h34v-205h-34q-105 0 -193 17.5t-159 55.5t-117.5 94.5t-66.5 139t-7 185.5l22 190q13 104 -24.5 160.5t-153.5 56.5z" />
<glyph unicode="|" horiz-adv-x="501" d="M115 -252v1927h270v-1927h-270z" />
<glyph unicode="}" horiz-adv-x="776" d="M35 -88h35q42 0 73 16t46.5 43t24.5 61t8 69.5t-3 70.5l-18 145q-22 183 54 275t247 121q-171 29 -247 120.5t-54 274.5l18 145q7 43 2.5 89t-17 84t-47.5 62.5t-87 24.5h-35v205h35q132 0 236 -28t179.5 -85.5t109 -153.5t17.5 -224l-22 -191q-13 -104 24.5 -160.5 t153.5 -56.5v-213q-116 0 -153.5 -56.5t-24.5 -160.5l22 -190q16 -128 -17.5 -224t-109 -154t-179.5 -86t-236 -28h-35v205z" />
<glyph unicode="~" horiz-adv-x="1292" d="M47 432q63 167 152.5 260.5t224.5 93.5q64 0 129 -23.5t110 -52t101.5 -52t105.5 -23.5q46 0 83 27t81 108l209 -86q-62 -167 -151 -260.5t-226 -93.5q-59 0 -124 23.5t-112.5 52t-106 52t-105.5 23.5q-44 0 -80 -27.5t-80 -107.5z" />
<glyph unicode="&#xa1;" horiz-adv-x="626" d="M84 0l117 948h225l119 -948h-461zM127 1071v363h373v-363h-373z" />
<glyph unicode="&#xa2;" horiz-adv-x="1101" d="M74 719q0 133 34 238t94 171t135 103t163 45v158h266v-187q108 -28 276 -102l-147 -279q-3 2 -25.5 11.5t-28.5 12.5t-27.5 12t-30 12t-28.5 10.5t-30.5 10.5l-28 8t-29.5 7.5t-26.5 4t-26.5 1.5q-77 0 -116 -63.5t-39 -173.5t39 -175t116 -65q87 0 281 90l147 -278 q-148 -70 -276 -103v-188h-266v160q-88 8 -163.5 45t-135 103.5t-93.5 172t-34 238.5z" />
<glyph unicode="&#xa3;" horiz-adv-x="1155" d="M82 0v262q8 2 21.5 6.5t49 23t63.5 42.5t54.5 68t32.5 96h-201v217h152q-7 14 -33.5 61.5t-37.5 72t-28.5 68t-24.5 86t-7 89.5q0 172 111 268t313 96q71 0 143 -14t123 -30.5t112.5 -47.5t91 -48.5t79.5 -49.5l-168 -250q-182 117 -299 117q-57 0 -85 -28t-28 -77 q0 -34 15 -73t35 -71.5t45.5 -80t39.5 -88.5h299v-217h-280q-11 -61 -39.5 -106.5t-61.5 -67.5h504v-324h-991z" />
<glyph unicode="&#xa5;" horiz-adv-x="1423" d="M43 1434h442l226 -490l227 490h442l-348 -637h199v-213h-316l-8 -17v-88h324v-213h-324v-266h-391v266h-326v213h326v88l-10 17h-316v213h199z" />
<glyph unicode="&#xa6;" horiz-adv-x="512" d="M121 -252v846h270v-846h-270zM121 829v846h270v-846h-270z" />
<glyph unicode="&#xa7;" horiz-adv-x="1148" d="M66 629q0 169 149 248q-115 93 -115 243q0 148 108.5 242t315.5 94q131 0 272.5 -36.5t241.5 -84.5l-141 -243q-74 31 -178 57.5t-168 26.5q-72 0 -72 -39q0 -16 11 -28.5t37.5 -22.5t51.5 -16.5t72 -18.5t80 -21q54 -15 99 -32.5t94.5 -47t83 -65t55.5 -88.5t22 -115 q0 -169 -149 -250q113 -94 113 -244q0 -149 -107.5 -242t-314.5 -93q-131 0 -274 36.5t-242 83.5l143 244q74 -32 177 -58t167 -26q72 0 72 39q0 17 -13.5 30.5t-41 23t-54.5 16t-69.5 16.5t-71.5 18q-354 98 -354 353zM426 674q0 -22 12 -38.5t49.5 -31.5t55.5 -20t79 -20 q18 -5 27 -7q76 22 76 78q0 22 -12.5 37.5t-48.5 30t-54.5 20t-76.5 19.5l-10.5 3t-9.5 2.5t-11 2.5q-76 -21 -76 -76z" />
<glyph unicode="&#xa8;" horiz-adv-x="497" d="M-72 1221v266h277v-266h-277zM295 1221v266h274v-266h-274z" />
<glyph unicode="&#xa9;" horiz-adv-x="1593" d="M66 717q0 156 49 290.5t140 234.5t230.5 157t311.5 57t311 -57t230 -157t139.5 -234.5t48.5 -290.5t-48.5 -290.5t-139.5 -234.5t-230 -157.5t-311 -57.5t-311.5 57.5t-230.5 157.5t-140 234.5t-49 290.5zM147 717q0 -141 43 -261t123.5 -209.5t204.5 -140.5t277 -51 q154 0 278.5 51t205 140.5t124 209.5t43.5 261t-43.5 261t-124 209.5t-205 140t-278.5 50.5q-153 0 -277 -50.5t-204.5 -140t-123.5 -209.5t-43 -261zM426 715q0 212 101.5 329t254.5 117q72 0 143 -23t109 -45.5t90 -58.5l-61 -71q-29 22 -51 36t-59 34t-79 30t-88 10 q-114 0 -185 -98.5t-71 -259.5t70.5 -258t185.5 -97q59 0 118.5 20.5t88 38.5t70.5 48l61 -70q-52 -36 -90 -58.5t-109 -45.5t-143 -23q-152 0 -254 117t-102 328z" />
<glyph unicode="&#xaa;" horiz-adv-x="817" d="M49 991q0 94 66 150.5t178 56.5q54 0 186 -27v25q0 37 -19.5 50.5t-68.5 13.5q-85 0 -225 -41l-76 167q200 62 352 62q158 0 223.5 -61.5t65.5 -208.5v-390h-252v66q-91 -80 -205 -80q-105 0 -165 62.5t-60 154.5zM303 1016q0 -51 59 -51q65 0 117 43v45q-77 16 -104 16 q-72 0 -72 -53z" />
<glyph unicode="&#xab;" horiz-adv-x="1308" d="M47 432v223l578 422v-346l-279 -186l279 -187v-348zM635 432v223l577 422v-346l-278 -186l278 -187v-348z" />
<glyph unicode="&#xac;" horiz-adv-x="1292" d="M61 543v280h1139v-639h-297v359h-842z" />
<glyph unicode="&#xad;" horiz-adv-x="847" d="M94 432v301h658v-301h-658z" />
<glyph unicode="&#xae;" horiz-adv-x="907" d="M63 1081q0 171 104.5 282.5t285.5 111.5t285 -111.5t104 -282.5t-104 -282t-285 -111t-285.5 111t-104.5 282zM137 1081q0 -143 81.5 -234t234.5 -91t234 90.5t81 234.5t-81 235t-234 91t-234.5 -91t-81.5 -235zM307 889v395h185q61 0 97 -31.5t36 -83.5 q0 -40 -28.5 -69.5t-72.5 -38.5l94 -172h-73l-90 168h-80v-168h-68zM375 1118h114q66 0 66 51q0 54 -61 54h-119v-105z" />
<glyph unicode="&#xaf;" horiz-adv-x="608" d="M0 1251v215h608v-215h-608z" />
<glyph unicode="&#xb0;" horiz-adv-x="821" d="M43 1069q0 152 108.5 260.5t260.5 108.5t260 -108.5t108 -260.5q0 -153 -108 -262t-260 -109t-260.5 109.5t-108.5 261.5zM256 1069q0 -64 46.5 -110t109.5 -46q64 0 109.5 45.5t45.5 110.5t-45.5 110.5t-109.5 45.5q-63 0 -109.5 -46t-46.5 -110z" />
<glyph unicode="&#xb1;" horiz-adv-x="1292" d="M147 0v238h996v-238h-996zM147 594v280h357v254h280v-254h359v-280h-359v-252h-280v252h-357z" />
<glyph unicode="&#xb2;" horiz-adv-x="804" d="M39 788v101q0 200 256 362q22 14 58 34t53 30.5t37 25t28 27.5t8 27q0 22 -20 37.5t-60 15.5q-81 0 -225 -82l-113 166q185 131 377 131q151 0 229 -73t78 -181q0 -50 -18 -94.5t-41 -74t-63.5 -60t-67.5 -46t-70 -38.5q-125 -64 -125 -92h385v-216h-706z" />
<glyph unicode="&#xb3;" horiz-adv-x="796" d="M14 899l113 174q154 -82 256 -82q98 0 98 62q0 18 -8 31.5t-26 21.5t-33.5 13t-42.5 6.5t-41 2t-42 0.5h-12h-36v215h43q22 0 33 0.5t34.5 1.5t37.5 5t30 10.5t23.5 18t7.5 26.5q0 43 -68 43q-50 0 -113.5 -23t-111.5 -51l-105 162q173 127 375 127q142 0 212.5 -60.5 t70.5 -154.5q0 -121 -121 -184q69 -25 114.5 -84t45.5 -131q0 -53 -17 -99.5t-53 -87.5t-103 -64.5t-157 -23.5q-203 0 -404 125z" />
<glyph unicode="&#xb4;" horiz-adv-x="479" d="M-82 1200l242 293h401l-336 -293h-307z" />
<glyph unicode="&#xb5;" horiz-adv-x="1288" d="M113 -418v1493h379v-663q0 -70 20 -107t72 -37q97 0 204 111v696h379v-1075h-379v113q-156 -110 -294 -129v-402h-381z" />
<glyph unicode="&#xb6;" horiz-adv-x="1488" d="M45 913q0 136 42.5 238t120 163t177.5 90.5t223 29.5h310v-1813h-314v770q-90 0 -170 18t-152 58t-124 99.5t-82.5 148.5t-30.5 198zM1034 -381v1815h314v-1815h-314z" />
<glyph unicode="&#xb7;" horiz-adv-x="563" d="M94 385v397h373v-397h-373z" />
<glyph unicode="&#xb8;" horiz-adv-x="366" d="M-27 -342l70 176q43 -22 86 -22q78 0 78 65q0 25 -12.5 57t-24.5 51l-12 19h159q9 -10 21.5 -28t33.5 -69t21 -97q0 -101 -67 -150t-170 -49q-109 0 -183 47z" />
<glyph unicode="&#xb9;" horiz-adv-x="665" d="M-6 1503l254 146h248v-861h-260v623l-142 -76z" />
<glyph unicode="&#xba;" horiz-adv-x="806" d="M49 1112q0 160 93 248t266 88q170 0 261 -88t91 -250t-91 -249t-261 -87q-173 0 -266 88t-93 250zM301 1112q0 -147 107 -147q100 0 100 145q0 147 -100 147q-107 0 -107 -145z" />
<glyph unicode="&#xbb;" horiz-adv-x="1308" d="M100 10v346l279 187l-279 186v348l578 -422v-223zM688 10v346l279 187l-279 186v348l578 -422v-223z" />
<glyph unicode="&#xbc;" horiz-adv-x="1808" d="M39 1288l254 146h248v-861h-260v623l-142 -76zM379 0l616 1434h279l-617 -1434h-278zM915 141v178l359 541h346v-504h125v-215h-125v-141h-260v141h-445zM1174 356h186v289z" />
<glyph unicode="&#xbd;" horiz-adv-x="1812" d="M39 1288l254 146h248v-861h-260v623l-142 -76zM377 0l616 1434h279l-617 -1434h-278zM1022 0v100q0 201 256 363q23 14 58 34t52.5 30.5t37.5 24.5t28 27t8 27q0 22 -20 37.5t-60 15.5q-83 0 -225 -81l-113 165q185 131 377 131q151 0 229.5 -72.5t78.5 -180.5 q0 -50 -18 -94.5t-41.5 -74.5t-64 -60.5t-67.5 -46t-70 -38.5q-125 -64 -125 -92h386v-215h-707z" />
<glyph unicode="&#xbe;" horiz-adv-x="1955" d="M49 684l113 174q154 -82 256 -82q98 0 98 62q0 18 -8 31.5t-26 21.5t-33.5 13t-42.5 6.5t-41 2t-42 0.5h-12h-37v215h43q22 0 33 0.5t34.5 1.5t37.5 5t30 10.5t23.5 18t7.5 26.5q0 43 -67 43q-50 0 -114 -23t-112 -51l-104 162q173 127 375 127q142 0 212 -60.5 t70 -154.5q0 -121 -120 -184q69 -25 114 -84t45 -131q0 -42 -9.5 -80t-34 -74t-61 -62.5t-94 -42.5t-130.5 -16q-203 0 -404 125zM535 0l616 1434h279l-617 -1434h-278zM1073 141v178l359 541h346v-504h125v-215h-125v-141h-260v141h-445zM1331 356h187v289z" />
<glyph unicode="&#xbf;" horiz-adv-x="1077" d="M55 367q0 81 27 148t69 113t105 84t122 61t134 44l18 131h228l20 -332q-191 -40 -258 -76t-67 -110q0 -54 33.5 -91.5t109.5 -37.5q120 0 278 107l158 -263q-250 -168 -506 -168q-213 0 -342 106.5t-129 283.5zM457 1071v363h374v-363h-374z" />
<glyph unicode="&#xc0;" horiz-adv-x="1392" d="M-8 0l487 1434h434l486 -1434h-424l-64 240h-432l-63 -240h-424zM287 1802h401l242 -293h-307zM561 545h268l-135 502z" />
<glyph unicode="&#xc1;" horiz-adv-x="1392" d="M-8 0l487 1434h434l486 -1434h-424l-64 240h-432l-63 -240h-424zM463 1509l242 293h401l-336 -293h-307zM561 545h268l-135 502z" />
<glyph unicode="&#xc2;" horiz-adv-x="1392" d="M-8 0l487 1434h434l486 -1434h-424l-64 240h-432l-63 -240h-424zM313 1509l211 293h342l211 -293h-252l-129 138l-129 -138h-254zM561 545h268l-135 502z" />
<glyph unicode="&#xc3;" horiz-adv-x="1392" d="M-8 0l487 1434h434l486 -1434h-424l-64 240h-432l-63 -240h-424zM301 1595q18 38 24 50.5t24.5 46t29 47t31 37t38.5 33t43 18t52 8.5q47 0 104.5 -24t106 -48t73.5 -24q15 0 27.5 5t32.5 27t41 62l157 -80q-19 -41 -24 -51t-24 -45.5t-29 -47.5t-31 -36.5t-38.5 -33.5 t-42.5 -17.5t-52 -8.5q-48 0 -106 24t-107 48.5t-74 24.5q-14 0 -26 -5t-31.5 -27t-40.5 -62zM561 545h268l-135 502z" />
<glyph unicode="&#xc4;" horiz-adv-x="1392" d="M-8 0l487 1434h434l486 -1434h-424l-64 240h-432l-63 -240h-424zM375 1538v266h276v-266h-276zM561 545h268l-135 502zM741 1538v266h275v-266h-275z" />
<glyph unicode="&#xc5;" horiz-adv-x="1392" d="M-8 0l487 1434h434l486 -1434h-424l-64 240h-432l-63 -240h-424zM461 1726q0 97 69.5 166.5t167.5 69.5q97 0 166.5 -69.5t69.5 -166.5q0 -98 -69.5 -167.5t-166.5 -69.5q-98 0 -167.5 69.5t-69.5 167.5zM561 545h268l-135 502zM631 1726q0 -28 19.5 -47.5t47.5 -19.5 q26 0 46 19.5t20 47.5q0 26 -20 46t-46 20q-28 0 -47.5 -20t-19.5 -46z" />
<glyph unicode="&#xc6;" horiz-adv-x="2109" d="M-78 0l893 1434h1219v-332h-625v-223h508v-324h-508v-223h635v-332h-1028v240h-481l-140 -240h-473zM717 555h299v514z" />
<glyph unicode="&#xc7;" horiz-adv-x="1263" d="M59 717q0 184 41.5 326t118 231.5t180.5 135.5t232 46q155 0 297 -52.5t317 -152.5l-178 -288q-130 71 -219.5 106t-163.5 35q-109 0 -165 -103.5t-56 -283.5t56 -283.5t165 -103.5q74 0 163.5 35t219.5 106l178 -289q-148 -83 -264.5 -131.5t-239.5 -64.5 q62 -96 62 -176q0 -101 -67.5 -150t-170.5 -49q-108 0 -182 47l70 176q43 -22 86 -22q77 0 77 65q0 42 -34 103q-242 16 -382.5 203t-140.5 534z" />
<glyph unicode="&#xc8;" horiz-adv-x="1212" d="M119 0v1434h1018v-332h-625v-223h508v-324h-508v-223h635v-332h-1028zM225 1802h402l241 -293h-307z" />
<glyph unicode="&#xc9;" horiz-adv-x="1212" d="M119 0v1434h1018v-332h-625v-223h508v-324h-508v-223h635v-332h-1028zM401 1509l242 293h401l-335 -293h-308z" />
<glyph unicode="&#xca;" horiz-adv-x="1212" d="M119 0v1434h1018v-332h-625v-223h508v-324h-508v-223h635v-332h-1028zM252 1509l211 293h342l211 -293h-252l-129 138l-129 -138h-254z" />
<glyph unicode="&#xcb;" horiz-adv-x="1212" d="M119 0v1434h1018v-332h-625v-223h508v-324h-508v-223h635v-332h-1028zM313 1530v266h277v-266h-277zM680 1530v266h274v-266h-274z" />
<glyph unicode="&#xcc;" horiz-adv-x="630" d="M-94 1802h401l242 -293h-307zM117 0v1434h393v-1434h-393z" />
<glyph unicode="&#xcd;" horiz-adv-x="630" d="M82 1509l242 293h401l-336 -293h-307zM119 0v1434h393v-1434h-393z" />
<glyph unicode="&#xce;" horiz-adv-x="630" d="M-68 1509l211 293h342l211 -293h-252l-129 138l-129 -138h-254zM119 0v1434h393v-1434h-393z" />
<glyph unicode="&#xcf;" horiz-adv-x="630" d="M-6 1526v266h276v-266h-276zM117 0v1434h393v-1434h-393zM360 1526v266h275v-266h-275z" />
<glyph unicode="&#xd0;" horiz-adv-x="1447" d="M12 567v299h138v568h532q354 0 530.5 -170.5t176.5 -546.5t-176.5 -546.5t-530.5 -170.5h-532v567h-138zM545 332h98q87 0 148 16.5t109.5 57.5t72.5 118.5t24 192.5t-24 192.5t-72.5 118.5t-109.5 57.5t-148 16.5h-98v-236h239v-299h-239v-235z" />
<glyph unicode="&#xd1;" horiz-adv-x="1464" d="M119 0v1434h397l438 -789v789h392v-1434h-398l-436 786v-786h-393zM348 1614q16 33 21.5 44t21 41t24.5 42t25.5 35t30.5 32.5t33 22.5t40.5 17.5t45.5 4.5q47 0 104.5 -24t106 -48t73.5 -24q15 0 27.5 5t32.5 27t41 62l158 -79q-18 -38 -24 -50.5t-24.5 -46t-29 -47 t-31 -37t-38.5 -33t-43 -18t-52 -8.5q-48 0 -106 24t-107 48t-74 24q-14 0 -26 -5t-31.5 -27t-40.5 -62z" />
<glyph unicode="&#xd2;" horiz-adv-x="1486" d="M55 717q0 160 39.5 291.5t120 233t214.5 158t312 56.5t312.5 -56.5t215.5 -158t121 -233t40 -291.5q0 -127 -24.5 -237t-78 -203t-133 -159.5t-195 -103.5t-258.5 -37q-178 0 -312 56.5t-214.5 158.5t-120 233.5t-39.5 291.5zM334 1802h401l242 -293h-307zM459 717 q0 -190 68 -298t214 -108q147 0 215 107.5t68 298.5q0 189 -68 297t-215 108q-74 0 -129 -29.5t-88 -84t-49 -127t-16 -164.5z" />
<glyph unicode="&#xd3;" horiz-adv-x="1486" d="M55 717q0 160 39.5 291.5t120 233t214.5 158t312 56.5t312.5 -56.5t215.5 -158t121 -233t40 -291.5q0 -127 -24.5 -237t-78 -203t-133 -159.5t-195 -103.5t-258.5 -37q-178 0 -312 56.5t-214.5 158.5t-120 233.5t-39.5 291.5zM459 717q0 -190 68 -298t214 -108 q147 0 215 107.5t68 298.5q0 189 -68 297t-215 108q-74 0 -129 -29.5t-88 -84t-49 -127t-16 -164.5zM510 1509l242 293h401l-336 -293h-307z" />
<glyph unicode="&#xd4;" horiz-adv-x="1486" d="M55 717q0 160 39.5 291.5t120 233t214.5 158t312 56.5t312.5 -56.5t215.5 -158t121 -233t40 -291.5q0 -127 -24.5 -237t-78 -203t-133 -159.5t-195 -103.5t-258.5 -37q-178 0 -312 56.5t-214.5 158.5t-120 233.5t-39.5 291.5zM360 1509l211 293h342l211 -293h-252 l-129 138l-129 -138h-254zM459 717q0 -190 68 -298t214 -108q147 0 215 107.5t68 298.5q0 189 -68 297t-215 108q-74 0 -129 -29.5t-88 -84t-49 -127t-16 -164.5z" />
<glyph unicode="&#xd5;" horiz-adv-x="1486" d="M55 717q0 160 39.5 291.5t120 233t214.5 158t312 56.5t312.5 -56.5t215.5 -158t121 -233t40 -291.5q0 -127 -24.5 -237t-78 -203t-133 -159.5t-195 -103.5t-258.5 -37q-178 0 -312 56.5t-214.5 158.5t-120 233.5t-39.5 291.5zM348 1595q18 38 24 50.5t24.5 46t29 47 t31 37t38.5 33t43 18t52 8.5q47 0 104.5 -24t106 -48t73.5 -24q15 0 27.5 5t32.5 27t41 62l158 -80q-18 -38 -24 -50.5t-24.5 -46t-29 -47t-31 -37t-38.5 -33t-43 -18t-52 -8.5q-48 0 -106 24t-107 48.5t-74 24.5q-14 0 -26 -5t-31.5 -27t-40.5 -62zM459 717q0 -190 68 -298 t214 -108q147 0 215 107.5t68 298.5q0 189 -68 297t-215 108q-74 0 -129 -29.5t-88 -84t-49 -127t-16 -164.5z" />
<glyph unicode="&#xd6;" horiz-adv-x="1486" d="M55 717q0 160 39.5 291.5t120 233t214.5 158t312 56.5t312.5 -56.5t215.5 -158t121 -233t40 -291.5q0 -127 -24.5 -237t-78 -203t-133 -159.5t-195 -103.5t-258.5 -37q-178 0 -312 56.5t-214.5 158.5t-120 233.5t-39.5 291.5zM422 1530v266h276v-266h-276zM459 717 q0 -190 68 -298t214 -108q147 0 215 107.5t68 298.5q0 189 -68 297t-215 108q-74 0 -129 -29.5t-88 -84t-49 -127t-16 -164.5zM788 1530v266h275v-266h-275z" />
<glyph unicode="&#xd7;" horiz-adv-x="1292" d="M190 938l207 205l248 -248l248 246l207 -205l-248 -248l250 -248l-207 -204l-250 247l-246 -245l-206 206l245 246z" />
<glyph unicode="&#xd8;" horiz-adv-x="1484" d="M55 717q0 160 39.5 291.5t120 233t214.5 158t312 56.5q210 0 361 -80l43 58h264l-141 -191q162 -194 162 -526q0 -127 -24.5 -237t-78 -203t-133 -159.5t-195 -103.5t-258.5 -37q-211 0 -358 78l-41 -55h-264l139 188q-162 191 -162 529zM459 717q0 -101 18 -180l408 546 q-61 39 -144 39q-74 0 -129 -29.5t-88 -84t-49 -127t-16 -164.5zM600 346q56 -35 141 -35q147 0 215 107.5t68 298.5q0 97 -18 176z" />
<glyph unicode="&#xd9;" horiz-adv-x="1406" d="M102 614v820h392v-856q0 -61 8.5 -105.5t30 -83t64 -58.5t105.5 -20t105.5 20t64.5 58.5t30.5 83t8.5 105.5v856h394v-820q0 -114 -14 -202.5t-54 -173t-105.5 -139.5t-174.5 -88.5t-255 -33.5t-254 33.5t-173.5 88.5t-105 139.5t-53.5 173t-14 202.5zM293 1802h401 l242 -293h-307z" />
<glyph unicode="&#xda;" horiz-adv-x="1406" d="M102 614v820h392v-856q0 -61 8.5 -105.5t30 -83t64 -58.5t105.5 -20t105.5 20t64.5 58.5t30.5 83t8.5 105.5v856h394v-820q0 -114 -14 -202.5t-54 -173t-105.5 -139.5t-174.5 -88.5t-255 -33.5t-254 33.5t-173.5 88.5t-105 139.5t-53.5 173t-14 202.5zM467 1509l242 293 h401l-336 -293h-307z" />
<glyph unicode="&#xdb;" horiz-adv-x="1406" d="M102 614v820h392v-856q0 -61 8.5 -105.5t30 -83t64 -58.5t105.5 -20t105.5 20t64.5 58.5t30.5 83t8.5 105.5v856h394v-820q0 -114 -14 -202.5t-54 -173t-105.5 -139.5t-174.5 -88.5t-255 -33.5t-254 33.5t-173.5 88.5t-105 139.5t-53.5 173t-14 202.5zM319 1509l211 293 h342l211 -293h-252l-129 138l-129 -138h-254z" />
<glyph unicode="&#xdc;" horiz-adv-x="1406" d="M102 614v820h392v-856q0 -61 8.5 -105.5t30 -83t64 -58.5t105.5 -20t105.5 20t64.5 58.5t30.5 83t8.5 105.5v856h394v-820q0 -114 -14 -202.5t-54 -173t-105.5 -139.5t-174.5 -88.5t-255 -33.5t-254 33.5t-173.5 88.5t-105 139.5t-53.5 173t-14 202.5zM381 1530v266h276 v-266h-276zM748 1530v266h274v-266h-274z" />
<glyph unicode="&#xdd;" horiz-adv-x="1304" d="M-16 1434h442l225 -490l228 490h442l-473 -867v-567h-391v567zM418 1509l241 293h402l-336 -293h-307z" />
<glyph unicode="&#xde;" horiz-adv-x="1331" d="M119 0v1434h393v-213h221q290 0 426.5 -122.5t136.5 -359.5q0 -236 -136.5 -356.5t-426.5 -120.5h-221v-262h-393zM512 582h137q136 0 193 32.5t57 124.5q0 93 -56.5 125.5t-193.5 32.5h-137v-315z" />
<glyph unicode="&#xdf;" horiz-adv-x="1431" d="M96 0v928q0 98 14.5 177.5t54 154.5t103 125.5t167 81t241.5 30.5q128 0 230 -25.5t167 -66.5t108 -96t61 -111t18 -115q0 -60 -19 -112.5t-38 -75.5l-19 -23q-63 -13 -114.5 -42t-51.5 -70q0 -29 32.5 -50.5t97 -53t109.5 -66.5q142 -112 142 -277q0 -144 -105 -240 t-284 -96q-211 0 -463 127l141 265q185 -90 270 -90q58 0 58 34q0 22 -16.5 37t-53.5 31q-95 41 -130 62q-160 101 -161 276q0 221 238 323q2 10 2 25q0 59 -48.5 101t-152.5 42q-117 0 -168 -69t-51 -238v-903h-379z" />
<glyph unicode="&#xe0;" horiz-adv-x="1187" d="M35 336q0 159 104 250.5t279 91.5q51 0 108.5 -8t121.5 -21t73 -14v53q0 72 -33 99.5t-117 27.5q-115 0 -356 -74l-115 256q304 101 549 101q244 0 346.5 -99t102.5 -335v-664h-377v117q-144 -140 -330 -140q-163 0 -259.5 101.5t-96.5 257.5zM190 1493h402l242 -293 h-308zM418 371q0 -53 27 -80t75 -27q102 0 201 88v105q-117 26 -178 26q-58 0 -91.5 -28t-33.5 -84z" />
<glyph unicode="&#xe1;" horiz-adv-x="1187" d="M35 336q0 159 104 250.5t279 91.5q51 0 108.5 -8t121.5 -21t73 -14v53q0 72 -33 99.5t-117 27.5q-115 0 -356 -74l-115 256q304 101 549 101q244 0 346.5 -99t102.5 -335v-664h-377v117q-144 -140 -330 -140q-163 0 -259.5 101.5t-96.5 257.5zM367 1200l241 293h402 l-336 -293h-307zM418 371q0 -53 27 -80t75 -27q102 0 201 88v105q-117 26 -178 26q-58 0 -91.5 -28t-33.5 -84z" />
<glyph unicode="&#xe2;" horiz-adv-x="1187" d="M35 336q0 159 104 250.5t279 91.5q51 0 108.5 -8t121.5 -21t73 -14v53q0 72 -33 99.5t-117 27.5q-115 0 -356 -74l-115 256q304 101 549 101q244 0 346.5 -99t102.5 -335v-664h-377v117q-144 -140 -330 -140q-163 0 -259.5 101.5t-96.5 257.5zM217 1200l211 293h342 l211 -293h-252l-129 137l-129 -137h-254zM418 371q0 -53 27 -80t75 -27q102 0 201 88v105q-117 26 -178 26q-58 0 -91.5 -28t-33.5 -84z" />
<glyph unicode="&#xe3;" horiz-adv-x="1187" d="M35 336q0 159 104 250.5t279 91.5q51 0 108.5 -8t121.5 -21t73 -14v53q0 72 -33 99.5t-117 27.5q-115 0 -356 -74l-115 256q304 101 549 101q244 0 346.5 -99t102.5 -335v-664h-377v117q-144 -140 -330 -140q-163 0 -259.5 101.5t-96.5 257.5zM209 1286q18 38 24 50.5 t24.5 46t29 47t31 37t38.5 33t43 18t52 8.5q47 0 104.5 -24t106 -48t73.5 -24q15 0 27.5 5t32.5 27t41 62l157 -80q-19 -41 -24 -51t-24 -45.5t-29 -47.5t-31 -36.5t-38.5 -33.5t-42.5 -17.5t-52 -8.5q-48 0 -106 24t-107 48t-74 24q-14 0 -26 -5t-31.5 -27t-40.5 -62z M418 371q0 -53 27 -80t75 -27q102 0 201 88v105q-117 26 -178 26q-58 0 -91.5 -28t-33.5 -84z" />
<glyph unicode="&#xe4;" horiz-adv-x="1187" d="M35 336q0 159 104 250.5t279 91.5q51 0 108.5 -8t121.5 -21t73 -14v53q0 72 -33 99.5t-117 27.5q-115 0 -356 -74l-115 256q304 101 549 101q244 0 346.5 -99t102.5 -335v-664h-377v117q-144 -140 -330 -140q-163 0 -259.5 101.5t-96.5 257.5zM281 1221v266h276v-266 h-276zM418 371q0 -53 27 -80t75 -27q102 0 201 88v105q-117 26 -178 26q-58 0 -91.5 -28t-33.5 -84zM647 1221v266h275v-266h-275z" />
<glyph unicode="&#xe5;" horiz-adv-x="1187" d="M35 336q0 159 104 250.5t279 91.5q51 0 108.5 -8t121.5 -21t73 -14v53q0 72 -33 99.5t-117 27.5q-115 0 -356 -74l-115 256q304 101 549 101q244 0 346.5 -99t102.5 -335v-664h-377v117q-144 -140 -330 -140q-163 0 -259.5 101.5t-96.5 257.5zM365 1417q0 97 69.5 166.5 t167.5 69.5q97 0 166.5 -69.5t69.5 -166.5q0 -98 -69.5 -167.5t-166.5 -69.5q-98 0 -167.5 69.5t-69.5 167.5zM418 371q0 -53 27 -80t75 -27q102 0 201 88v105q-117 26 -178 26q-58 0 -91.5 -28t-33.5 -84zM535 1417q0 -28 19.5 -47.5t47.5 -19.5q26 0 46 20t20 47 q0 26 -20 46t-46 20q-28 0 -47.5 -19.5t-19.5 -46.5z" />
<glyph unicode="&#xe6;" horiz-adv-x="1787" d="M35 336q0 159 104 250.5t279 91.5q94 0 287 -43q6 46 14 78q-4 56 -38 79t-110 23q-115 0 -356 -74l-115 256q304 101 549 101q190 0 299 -64q122 64 281 64q248 0 378 -132t130 -350q0 -40 -4.5 -79t-9.5 -59l-5 -19h-633q9 -105 47 -155t115 -50q126 0 363 121 l131 -232q-275 -166 -535 -166q-136 0 -245 52t-175 155q-176 -207 -395 -207q-163 0 -259.5 101.5t-96.5 257.5zM418 371q0 -53 27 -80t75 -27q101 0 199 90q-10 39 -17 103q-117 26 -159 26q-58 0 -91.5 -28t-33.5 -84zM1087 653h281q-3 181 -137 181q-65 0 -99 -45 t-45 -136z" />
<glyph unicode="&#xe7;" horiz-adv-x="1011" d="M49 539q0 142 38.5 252t105 175.5t149.5 98.5t178 33q195 0 467 -125l-145 -279q-178 82 -254 82q-77 0 -116.5 -63.5t-39.5 -173.5t39.5 -175t116.5 -65q76 0 254 82l145 -279q-201 -98 -387 -120q59 -80 59 -172q0 -101 -67 -150t-170 -49q-108 0 -182 47l69 176 q43 -22 86 -22q78 0 78 65q0 43 -37 109q-172 28 -279.5 167t-107.5 386z" />
<glyph unicode="&#xe8;" horiz-adv-x="1134" d="M49 532q0 268 137.5 417t391.5 149q248 0 377.5 -132t129.5 -350q0 -40 -4.5 -79.5t-8.5 -58.5l-5 -19h-633q9 -105 47 -155t115 -50q125 0 362 121l132 -232q-275 -166 -535 -166q-109 0 -199 33t-159.5 99t-108.5 174t-39 249zM178 1493h402l241 -293h-307zM436 653 h281q-3 181 -137 181q-65 0 -99 -45t-45 -136z" />
<glyph unicode="&#xe9;" horiz-adv-x="1134" d="M49 532q0 268 137.5 417t391.5 149q248 0 377.5 -132t129.5 -350q0 -40 -4.5 -79.5t-8.5 -58.5l-5 -19h-633q9 -105 47 -155t115 -50q125 0 362 121l132 -232q-275 -166 -535 -166q-109 0 -199 33t-159.5 99t-108.5 174t-39 249zM354 1200l242 293h401l-335 -293h-308z M436 653h281q-3 181 -137 181q-65 0 -99 -45t-45 -136z" />
<glyph unicode="&#xea;" horiz-adv-x="1134" d="M49 532q0 268 137.5 417t391.5 149q248 0 377.5 -132t129.5 -350q0 -40 -4.5 -79.5t-8.5 -58.5l-5 -19h-633q9 -105 47 -155t115 -50q125 0 362 121l132 -232q-275 -166 -535 -166q-109 0 -199 33t-159.5 99t-108.5 174t-39 249zM205 1200l211 293h342l211 -293h-252 l-129 137l-129 -137h-254zM436 653h281q-3 181 -137 181q-65 0 -99 -45t-45 -136z" />
<glyph unicode="&#xeb;" horiz-adv-x="1134" d="M49 532q0 268 137.5 417t391.5 149q248 0 377.5 -132t129.5 -350q0 -40 -4.5 -79.5t-8.5 -58.5l-5 -19h-633q9 -105 47 -155t115 -50q125 0 362 121l132 -232q-275 -166 -535 -166q-109 0 -199 33t-159.5 99t-108.5 174t-39 249zM268 1221v266h277v-266h-277zM436 653 h281q-3 181 -137 181q-65 0 -99 -45t-45 -136zM635 1221v266h274v-266h-274z" />
<glyph unicode="&#xec;" horiz-adv-x="571" d="M-125 1493h401l242 -293h-307zM96 0v1075h377v-1075h-377z" />
<glyph unicode="&#xed;" horiz-adv-x="571" d="M51 1200l242 293h401l-336 -293h-307zM96 0v1075h377v-1075h-377z" />
<glyph unicode="&#xee;" horiz-adv-x="571" d="M-98 1200l211 293h342l211 -293h-252l-129 137l-129 -137h-254zM96 0v1075h377v-1075h-377z" />
<glyph unicode="&#xef;" horiz-adv-x="571" d="M-35 1221v266h277v-266h-277zM98 0v1075h377v-1075h-377zM332 1221v266h274v-266h-274z" />
<glyph unicode="&#xf0;" horiz-adv-x="1241" d="M43 477q0 222 132 360t329 138q59 0 111.5 -13.5t85.5 -32t57 -37.5t34 -32l11 -14q-25 88 -86 153.5t-152 100.5l-61 -82h-289l92 121q-35 -2 -67 -6t-47 -7l-15 -4l-39 289q78 23 215 23q82 0 168 -13l56 72h288l-108 -143q209 -98 318.5 -296.5t109.5 -447.5 q0 -297 -154 -463t-436 -166q-258 0 -405.5 135t-147.5 365zM436 475q0 -41 8.5 -75.5t28 -66.5t58 -50.5t92.5 -18.5t93 18t58.5 50t28 66.5t8.5 76.5t-8.5 77t-28 67t-58.5 50.5t-93 18.5t-92.5 -18.5t-58 -51t-28 -67.5t-8.5 -76z" />
<glyph unicode="&#xf1;" d="M96 0v1075h377v-112q90 62 176.5 98.5t188.5 36.5q311 0 311 -344v-754h-379v664q0 70 -19.5 106.5t-72.5 36.5q-50 0 -104.5 -32t-100.5 -81v-694h-377zM225 1286q18 38 24 50.5t24.5 46t29 47t31 37t38.5 33t43 18t52 8.5q47 0 104.5 -24t106.5 -48t74 -24q15 0 27.5 5 t32 27t40.5 62l158 -80q-18 -38 -24 -50.5t-24.5 -46t-29 -47t-31 -37t-38.5 -33t-43 -18t-52 -8.5q-48 0 -106 24t-107 48t-74 24q-14 0 -26 -5t-31.5 -27t-40.5 -62z" />
<glyph unicode="&#xf2;" horiz-adv-x="1210" d="M47 539q0 268 144.5 413.5t412.5 145.5t412.5 -146.5t144.5 -414.5t-144 -414t-413 -146q-266 0 -411.5 147t-145.5 415zM197 1493h401l242 -293h-308zM430 539q0 -275 174 -275t174 273q0 274 -174 274t-174 -272z" />
<glyph unicode="&#xf3;" horiz-adv-x="1210" d="M47 539q0 268 144.5 413.5t412.5 145.5t412.5 -146.5t144.5 -414.5t-144 -414t-413 -146q-266 0 -411.5 147t-145.5 415zM371 1200l241 293h402l-336 -293h-307zM430 539q0 -275 174 -275t174 273q0 274 -174 274t-174 -272z" />
<glyph unicode="&#xf4;" horiz-adv-x="1210" d="M47 539q0 268 144.5 413.5t412.5 145.5t412.5 -146.5t144.5 -414.5t-144 -414t-413 -146q-266 0 -411.5 147t-145.5 415zM221 1200l211 293h342l211 -293h-252l-129 137l-129 -137h-254zM430 539q0 -275 174 -275t174 273q0 274 -174 274t-174 -272z" />
<glyph unicode="&#xf5;" horiz-adv-x="1210" d="M47 539q0 268 144.5 413.5t412.5 145.5t412.5 -146.5t144.5 -414.5t-144 -414t-413 -146q-266 0 -411.5 147t-145.5 415zM213 1286q18 38 24 50.5t24.5 46t29 47t31 37t38.5 33t43 18t52 8.5q47 0 104.5 -24t106 -48t73.5 -24q15 0 27.5 5t32.5 27t41 62l157 -80 q-19 -41 -24 -51t-24 -45.5t-29 -47.5t-31 -36.5t-38.5 -33.5t-42.5 -17.5t-52 -8.5q-48 0 -106 24t-107 48t-74 24q-14 0 -26 -5t-31.5 -27t-40.5 -62zM430 539q0 -275 174 -275t174 273q0 274 -174 274t-174 -272z" />
<glyph unicode="&#xf6;" horiz-adv-x="1210" d="M47 539q0 268 144.5 413.5t412.5 145.5t412.5 -146.5t144.5 -414.5t-144 -414t-413 -146q-266 0 -411.5 147t-145.5 415zM285 1221v266h276v-266h-276zM430 539q0 -275 174 -275t174 273q0 274 -174 274t-174 -272zM651 1221v266h275v-266h-275z" />
<glyph unicode="&#xf7;" horiz-adv-x="1292" d="M147 543v280h998v-280h-998zM479 297q0 70 48.5 118t117.5 48q71 0 119.5 -48t48.5 -118q0 -69 -49 -117.5t-119 -48.5q-69 0 -117.5 48.5t-48.5 117.5zM479 1071q0 69 49.5 117.5t118.5 48.5t117.5 -48.5t48.5 -117.5t-48.5 -118.5t-117.5 -49.5t-118.5 49.5 t-49.5 118.5z" />
<glyph unicode="&#xf8;" horiz-adv-x="1208" d="M47 539q0 268 144.5 413.5t412.5 145.5q166 0 289 -60l31 37h204l-104 -133q137 -143 137 -405q0 -268 -144 -414t-413 -146q-165 0 -295 62l-30 -39h-211l110 139q-131 143 -131 400zM430 539q0 -53 4 -78l258 323q-42 27 -88 27q-174 0 -174 -272zM510 293 q40 -29 94 -29q174 0 174 273q0 47 -6 88z" />
<glyph unicode="&#xf9;" d="M90 322v753h379v-663q0 -70 20 -107t72 -37q49 0 103.5 31.5t101.5 79.5v696h379v-1075h-379v113q-194 -136 -365 -136q-157 0 -234 89.5t-77 255.5zM209 1493h401l242 -293h-307z" />
<glyph unicode="&#xfa;" d="M90 322v753h379v-663q0 -70 20 -107t72 -37q49 0 103.5 31.5t101.5 79.5v696h379v-1075h-379v113q-194 -136 -365 -136q-157 0 -234 89.5t-77 255.5zM383 1200l242 293h401l-336 -293h-307z" />
<glyph unicode="&#xfb;" d="M90 322v753h379v-663q0 -70 20 -107t72 -37q49 0 103.5 31.5t101.5 79.5v696h379v-1075h-379v113q-194 -136 -365 -136q-157 0 -234 89.5t-77 255.5zM233 1200l211 293h342l211 -293h-252l-129 137l-129 -137h-254z" />
<glyph unicode="&#xfc;" d="M90 322v753h379v-663q0 -70 20 -107t72 -37q49 0 103.5 31.5t101.5 79.5v696h379v-1075h-379v113q-194 -136 -365 -136q-157 0 -234 89.5t-77 255.5zM297 1221v266h276v-266h-276zM664 1221v266h274v-266h-274z" />
<glyph unicode="&#xfd;" horiz-adv-x="1163" d="M4 1075h408l172 -608l170 608h407l-538 -1493h-406l176 414zM348 1200l242 293h401l-336 -293h-307z" />
<glyph unicode="&#xfe;" d="M96 -418v1911h377v-524q72 63 145 96t170 33q186 0 292 -145t106 -416q0 -268 -106.5 -414t-291.5 -146q-97 0 -169.5 32t-145.5 93v-520h-377zM473 393q90 -114 189 -114q141 0 141 260q0 258 -141 258q-99 0 -189 -115v-289z" />
<glyph unicode="&#xff;" horiz-adv-x="1163" d="M4 1075h408l172 -608l170 608h407l-538 -1493h-406l176 414zM262 1221v266h277v-266h-277zM629 1221v266h274v-266h-274z" />
<glyph unicode="&#x100;" horiz-adv-x="1392" d="M-8 0l487 1434h434l486 -1434h-424l-64 240h-432l-63 -240h-424zM391 1561v215h608v-215h-608zM561 545h268l-135 502z" />
<glyph unicode="&#x101;" horiz-adv-x="1187" d="M35 336q0 159 104 250.5t279 91.5q51 0 108.5 -8t121.5 -21t73 -14v53q0 72 -33 99.5t-117 27.5q-115 0 -356 -74l-115 256q304 101 549 101q244 0 346.5 -99t102.5 -335v-664h-377v117q-144 -140 -330 -140q-163 0 -259.5 101.5t-96.5 257.5zM295 1251v215h608v-215 h-608zM418 371q0 -53 27 -80t75 -27q102 0 201 88v105q-117 26 -178 26q-58 0 -91.5 -28t-33.5 -84z" />
<glyph unicode="&#x102;" horiz-adv-x="1392" d="M-8 0l487 1434h434l486 -1434h-424l-64 240h-432l-63 -240h-424zM348 1782h221q0 -34 33.5 -55t91.5 -21t93.5 21t35.5 55h221q0 -127 -92.5 -200t-257.5 -73q-163 0 -254.5 73t-91.5 200zM561 545h268l-135 502z" />
<glyph unicode="&#x103;" horiz-adv-x="1187" d="M35 336q0 159 104 250.5t279 91.5q51 0 108.5 -8t121.5 -21t73 -14v53q0 72 -33 99.5t-117 27.5q-115 0 -356 -74l-115 256q304 101 549 101q244 0 346.5 -99t102.5 -335v-664h-377v117q-144 -140 -330 -140q-163 0 -259.5 101.5t-96.5 257.5zM254 1473h221 q0 -34 33.5 -55t91.5 -21t93.5 21t35.5 55h221q0 -127 -92.5 -200t-257.5 -73q-163 0 -254.5 73t-91.5 200zM418 371q0 -53 27 -80t75 -27q102 0 201 88v105q-117 26 -178 26q-58 0 -91.5 -28t-33.5 -84z" />
<glyph unicode="&#x104;" horiz-adv-x="1392" d="M-8 0l487 1434h434l486 -1434h-6q-33 -21 -57 -39t-53 -43.5t-44.5 -53t-15.5 -54.5q0 -19 8.5 -32t19.5 -19.5t30 -10t29 -3.5t29.5 0.5t20.5 0.5l-33 -158q-1 0 -22.5 -0.5t-34 0t-39.5 2t-45.5 4.5t-45.5 10t-45.5 16t-39 23.5t-33 32.5t-21 43.5t-8.5 55.5 q0 126 183 225h-201l-64 240h-432l-63 -240h-424zM561 545h268l-135 502z" />
<glyph unicode="&#x105;" horiz-adv-x="1187" d="M35 336q0 159 104 250.5t279 91.5q51 0 108.5 -8t121.5 -21t73 -14v53q0 72 -33 99.5t-117 27.5q-115 0 -356 -74l-115 256q304 101 549 101q244 0 346.5 -99t102.5 -335v-664h-6q-33 -21 -57 -39t-53 -43.5t-44.5 -53t-15.5 -54.5q0 -19 8.5 -32t19.5 -19.5t30 -10 t29 -3.5t29.5 0.5t20.5 0.5l-33 -158q-1 0 -22.5 -0.5t-34 0t-39.5 2t-45.5 4.5t-45.5 10t-45.5 16t-39 23.5t-33 32.5t-21 43.5t-8.5 55.5q0 127 182 225h-153v117q-144 -140 -330 -140q-163 0 -259.5 101.5t-96.5 257.5zM418 371q0 -53 27 -80t75 -27q102 0 201 88v105 q-117 26 -178 26q-58 0 -91.5 -28t-33.5 -84z" />
<glyph unicode="&#x106;" horiz-adv-x="1263" d="M59 717q0 184 41.5 326t118 231.5t180.5 135.5t232 46q155 0 297 -52.5t317 -152.5l-178 -288q-130 71 -219.5 106t-163.5 35q-109 0 -165 -103.5t-56 -283.5t56 -283.5t165 -103.5q74 0 163.5 35t219.5 106l178 -289q-175 -100 -317 -152.5t-297 -52.5q-128 0 -232 46 t-180.5 136t-118 232t-41.5 326zM500 1509l241 293h402l-336 -293h-307z" />
<glyph unicode="&#x107;" horiz-adv-x="1011" d="M49 539q0 142 38.5 252t105 175.5t149.5 98.5t178 33q195 0 467 -125l-145 -279q-178 82 -254 82q-77 0 -116.5 -63.5t-39.5 -173.5t39.5 -175t116.5 -65q76 0 254 82l145 -279q-261 -125 -465 -125q-96 0 -179 33.5t-150 99.5t-105.5 176.5t-38.5 252.5zM313 1200 l242 293h401l-335 -293h-308z" />
<glyph unicode="&#x10a;" horiz-adv-x="1263" d="M59 717q0 184 41.5 326t118 231.5t180.5 135.5t232 46q155 0 297 -52.5t317 -152.5l-178 -288q-130 71 -219.5 106t-163.5 35q-109 0 -165 -103.5t-56 -283.5t56 -283.5t165 -103.5q74 0 163.5 35t219.5 106l178 -289q-175 -100 -317 -152.5t-297 -52.5q-128 0 -232 46 t-180.5 136t-118 232t-41.5 326zM532 1530v266h277v-266h-277z" />
<glyph unicode="&#x10b;" horiz-adv-x="1011" d="M49 539q0 142 38.5 252t105 175.5t149.5 98.5t178 33q195 0 467 -125l-145 -279q-178 82 -254 82q-77 0 -116.5 -63.5t-39.5 -173.5t39.5 -175t116.5 -65q76 0 254 82l145 -279q-261 -125 -465 -125q-96 0 -179 33.5t-150 99.5t-105.5 176.5t-38.5 252.5zM408 1221v266 h276v-266h-276z" />
<glyph unicode="&#x10c;" horiz-adv-x="1263" d="M59 717q0 184 41.5 326t118 231.5t180.5 135.5t232 46q155 0 297 -52.5t317 -152.5l-178 -288q-130 71 -219.5 106t-163.5 35q-109 0 -165 -103.5t-56 -283.5t56 -283.5t165 -103.5q74 0 163.5 35t219.5 106l178 -289q-175 -100 -317 -152.5t-297 -52.5q-128 0 -232 46 t-180.5 136t-118 232t-41.5 326zM291 1802h254l129 -137l129 137h252l-211 -293h-342z" />
<glyph unicode="&#x10d;" horiz-adv-x="1011" d="M49 539q0 142 38.5 252t105 175.5t149.5 98.5t178 33q195 0 467 -125l-145 -279q-178 82 -254 82q-77 0 -116.5 -63.5t-39.5 -173.5t39.5 -175t116.5 -65q76 0 254 82l145 -279q-261 -125 -465 -125q-96 0 -179 33.5t-150 99.5t-105.5 176.5t-38.5 252.5zM166 1493h254 l129 -137l129 137h252l-211 -293h-342z" />
<glyph unicode="&#x10e;" horiz-adv-x="1417" d="M119 0v1434h532q354 0 530.5 -170.5t176.5 -546.5t-176.5 -546.5t-530.5 -170.5h-532zM356 1802h254l129 -137l129 137h252l-211 -293h-342zM514 332h98q87 0 148 16.5t110 57.5t73 118.5t24 192.5t-24 192.5t-73 118.5t-110 57.5t-148 16.5h-98v-770z" />
<glyph unicode="&#x10f;" horiz-adv-x="1398" d="M51 537q0 272 104.5 416.5t290.5 144.5q98 0 171 -32.5t147 -96.5v524h377v-1493h-377v102q-75 -62 -147.5 -93.5t-170.5 -31.5q-185 0 -290 145.5t-105 414.5zM434 539q0 -260 139 -260q101 0 191 114v289q-90 115 -191 115q-139 0 -139 -258zM1225 1049l116 168h-114 v276h260l14 -311l-209 -219z" />
<glyph unicode="&#x110;" horiz-adv-x="1447" d="M12 567v299h138v568h532q354 0 530.5 -170.5t176.5 -546.5t-176.5 -546.5t-530.5 -170.5h-532v567h-138zM545 332h98q87 0 148 16.5t109.5 57.5t72.5 118.5t24 192.5t-24 192.5t-72.5 118.5t-109.5 57.5t-148 16.5h-98v-236h239v-299h-239v-235z" />
<glyph unicode="&#x111;" d="M51 537q0 272 104.5 416.5t290.5 144.5q98 0 171 -32.5t147 -96.5v198h-322v213h322v113h377v-113h110v-213h-110v-1167h-377v102q-75 -62 -147.5 -93.5t-170.5 -31.5q-185 0 -290 145.5t-105 414.5zM434 539q0 -260 139 -260q101 0 191 114v289q-90 115 -191 115 q-139 0 -139 -258z" />
<glyph unicode="&#x112;" horiz-adv-x="1212" d="M119 0v1434h1018v-332h-625v-223h508v-324h-508v-223h635v-332h-1028zM330 1561v215h608v-215h-608z" />
<glyph unicode="&#x113;" horiz-adv-x="1134" d="M49 532q0 268 137.5 417t391.5 149q248 0 377.5 -132t129.5 -350q0 -40 -4.5 -79.5t-8.5 -58.5l-5 -19h-633q9 -105 47 -155t115 -50q125 0 362 121l132 -232q-275 -166 -535 -166q-109 0 -199 33t-159.5 99t-108.5 174t-39 249zM283 1251v215h608v-215h-608zM436 653 h281q-3 181 -137 181q-65 0 -99 -45t-45 -136z" />
<glyph unicode="&#x116;" horiz-adv-x="1212" d="M119 0v1434h1018v-332h-625v-223h508v-324h-508v-223h635v-332h-1028zM494 1530v266h276v-266h-276z" />
<glyph unicode="&#x117;" horiz-adv-x="1134" d="M49 532q0 268 137.5 417t391.5 149q248 0 377.5 -132t129.5 -350q0 -40 -4.5 -79.5t-8.5 -58.5l-5 -19h-633q9 -105 47 -155t115 -50q125 0 362 121l132 -232q-275 -166 -535 -166q-109 0 -199 33t-159.5 99t-108.5 174t-39 249zM436 653h281q-3 181 -137 181 q-65 0 -99 -45t-45 -136zM449 1221v266h276v-266h-276z" />
<glyph unicode="&#x118;" horiz-adv-x="1212" d="M119 0v1434h1018v-332h-625v-223h508v-324h-508v-223h635v-332h-6q-33 -21 -57 -39t-53 -43.5t-44.5 -53t-15.5 -54.5q0 -19 8.5 -32t19.5 -19.5t30 -10t29 -3.5t29.5 0.5t20.5 0.5l-33 -158q-1 0 -22.5 -0.5t-34 0t-39.5 2t-45.5 4.5t-45.5 10t-45.5 16t-39 23.5 t-33 32.5t-21 43.5t-8.5 55.5q0 126 183 225h-805z" />
<glyph unicode="&#x119;" horiz-adv-x="1134" d="M49 532q0 268 137.5 417t391.5 149q248 0 377.5 -132t129.5 -350q0 -40 -4.5 -79.5t-8.5 -58.5l-5 -19h-633q9 -105 47 -155t115 -50q125 0 362 121l132 -232q-178 -108 -357 -145q-166 -107 -166 -188q0 -19 9 -32t19.5 -19.5t29.5 -10t29.5 -3.5t30 0.5t20.5 0.5 l-33 -158q-1 0 -22.5 -0.5t-34 0t-39.5 2t-45.5 4.5t-45.5 10t-45.5 16t-39 23.5t-33 32.5t-21 43.5t-8.5 55.5q0 115 149 207q-96 9 -174.5 46.5t-138 103.5t-92.5 168t-33 232zM436 653h281q-3 181 -137 181q-65 0 -99 -45t-45 -136z" />
<glyph unicode="&#x11a;" horiz-adv-x="1212" d="M119 0v1434h1018v-332h-625v-223h508v-324h-508v-223h635v-332h-1028zM252 1800h254l129 -137l129 137h252l-211 -293h-342z" />
<glyph unicode="&#x11b;" horiz-adv-x="1134" d="M49 532q0 268 137.5 417t391.5 149q248 0 377.5 -132t129.5 -350q0 -40 -4.5 -79.5t-8.5 -58.5l-5 -19h-633q9 -105 47 -155t115 -50q125 0 362 121l132 -232q-275 -166 -535 -166q-109 0 -199 33t-159.5 99t-108.5 174t-39 249zM205 1493h254l129 -137l129 137h252 l-211 -293h-342zM436 653h281q-3 181 -137 181q-65 0 -99 -45t-45 -136z" />
<glyph unicode="&#x11e;" horiz-adv-x="1376" d="M59 715q0 185 42.5 327t120 232t183.5 136t236 46q113 0 231 -31t205 -71t205 -105l-176 -288q-140 72 -236 107.5t-176 35.5q-115 0 -173 -103t-58 -284q0 -408 227 -408q68 0 133.5 43t112.5 97v92h-274v307h632v-848h-358v125q-161 -148 -340 -148q-110 0 -206 46 t-170.5 135t-117.5 232.5t-43 324.5zM330 1782h221q0 -34 33.5 -55t91.5 -21t93.5 21t35.5 55h221q0 -127 -92.5 -200t-257.5 -73q-163 0 -254.5 73t-91.5 200z" />
<glyph unicode="&#x11f;" d="M51 537q0 272 104.5 416.5t290.5 144.5q98 0 171 -32.5t147 -96.5v106h377v-1040q0 -241 -112.5 -357t-364.5 -116q-124 0 -280 25.5t-290 66.5l72 285q93 -32 218.5 -59t193.5 -27q109 0 147.5 36.5t38.5 124.5v88q-75 -62 -147.5 -93.5t-170.5 -31.5q-185 0 -290 145.5 t-105 414.5zM272 1473h222q0 -34 33 -55t91 -21t94 21t36 55h221q0 -127 -93 -200t-258 -73q-163 0 -254.5 73t-91.5 200zM434 539q0 -260 139 -260q101 0 191 114v289q-90 115 -191 115q-139 0 -139 -258z" />
<glyph unicode="&#x120;" horiz-adv-x="1376" d="M59 715q0 185 42.5 327t120 232t183.5 136t236 46q113 0 231 -31t205 -71t205 -105l-176 -288q-140 72 -236 107.5t-176 35.5q-115 0 -173 -103t-58 -284q0 -408 227 -408q68 0 133.5 43t112.5 97v92h-274v307h632v-848h-358v125q-161 -148 -340 -148q-110 0 -206 46 t-170.5 135t-117.5 232.5t-43 324.5zM539 1530v266h276v-266h-276z" />
<glyph unicode="&#x121;" d="M51 537q0 272 104.5 416.5t290.5 144.5q98 0 171 -32.5t147 -96.5v106h377v-1040q0 -241 -112.5 -357t-364.5 -116q-124 0 -280 25.5t-290 66.5l72 285q93 -32 218.5 -59t193.5 -27q109 0 147.5 36.5t38.5 124.5v88q-75 -62 -147.5 -93.5t-170.5 -31.5q-185 0 -290 145.5 t-105 414.5zM434 539q0 -260 139 -260q101 0 191 114v289q-90 115 -191 115q-139 0 -139 -258zM479 1221v266h277v-266h-277z" />
<glyph unicode="&#x122;" horiz-adv-x="1376" d="M59 715q0 185 42.5 327t120 232t183.5 136t236 46q113 0 231 -31t205 -71t205 -105l-176 -288q-140 72 -236 107.5t-176 35.5q-115 0 -173 -103t-58 -284q0 -408 227 -408q68 0 133.5 43t112.5 97v92h-274v307h632v-848h-358v125q-161 -148 -340 -148q-110 0 -206 46 t-170.5 135t-117.5 232.5t-43 324.5zM573 -553l117 168h-115v276h261l14 -311l-209 -219z" />
<glyph unicode="&#x123;" d="M51 537q0 272 104.5 416.5t290.5 144.5q98 0 171 -32.5t147 -96.5v106h377v-1040q0 -241 -112.5 -357t-364.5 -116q-124 0 -280 25.5t-290 66.5l72 285q93 -32 218.5 -59t193.5 -27q109 0 147.5 36.5t38.5 124.5v88q-75 -62 -147.5 -93.5t-170.5 -31.5q-185 0 -290 145.5 t-105 414.5zM434 539q0 -260 139 -260q101 0 191 114v289q-90 115 -191 115q-139 0 -139 -258zM479 1532l209 219l68 -86l-117 -168h115v-276h-260z" />
<glyph unicode="&#x126;" horiz-adv-x="1490" d="M4 1049v215h143v170h394v-170h411v170h391v-170h144v-215h-144v-1049h-391v590h-411v-590h-394v1049h-143zM541 913h411v136h-411v-136z" />
<glyph unicode="&#x127;" d="M-12 1167v213h110v113h377v-113h322v-213h-322v-204q90 62 176.5 98.5t188.5 36.5q311 0 311 -344v-754h-379v664q0 70 -19.5 106.5t-72.5 36.5q-50 0 -104.5 -32t-100.5 -81v-694h-377v1167h-110z" />
<glyph unicode="&#x128;" horiz-adv-x="630" d="M-80 1595q18 38 24 50.5t24.5 46t29 47t31 37t38.5 33t43 18t52 8.5q47 0 104.5 -24t106 -48t73.5 -24q15 0 27.5 5t32.5 27t41 62l158 -80q-18 -38 -24 -50.5t-24.5 -46t-29 -47t-31 -37t-38.5 -33t-43 -18t-52 -8.5q-48 0 -106 24t-107 48.5t-74 24.5q-14 0 -26 -5 t-31.5 -27t-40.5 -62zM117 0v1434h393v-1434h-393z" />
<glyph unicode="&#x129;" horiz-adv-x="571" d="M-109 1286q18 38 24 50.5t24.5 46t29 47t31 37t38.5 33t43 18t52 8.5q47 0 104.5 -24t106.5 -48t74 -24q15 0 27.5 5t32 27t40.5 62l158 -80q-18 -38 -24 -50.5t-24.5 -46t-29 -47t-31 -37t-38.5 -33t-43 -18t-52 -8.5q-48 0 -106 24t-107 48t-74 24q-14 0 -26 -5 t-31.5 -27t-40.5 -62zM96 0v1075h377v-1075h-377z" />
<glyph unicode="&#x12a;" horiz-adv-x="630" d="M10 1561v215h608v-215h-608zM119 0v1434h393v-1434h-393z" />
<glyph unicode="&#x12b;" horiz-adv-x="571" d="M-20 1251v215h608v-215h-608zM96 0v1075h377v-1075h-377z" />
<glyph unicode="&#x12c;" horiz-adv-x="630" d="M-33 1782h221q0 -34 33.5 -55t91.5 -21t93.5 21t35.5 55h222q0 -127 -93 -200t-258 -73q-163 0 -254.5 73t-91.5 200zM119 0v1434h393v-1434h-393z" />
<glyph unicode="&#x12d;" horiz-adv-x="571" d="M-63 1473h221q0 -34 33.5 -55t91.5 -21t93.5 21t35.5 55h221q0 -127 -92.5 -200t-257.5 -73q-163 0 -254.5 73t-91.5 200zM96 0v1075h377v-1075h-377z" />
<glyph unicode="&#x12e;" horiz-adv-x="630" d="M104 -225q0 126 183 225h-170v1434h393v-1434h-6q-33 -21 -57 -39t-53 -43.5t-44.5 -53t-15.5 -54.5q0 -19 8.5 -32t19.5 -19.5t30 -10t29 -3.5t29.5 0.5t20.5 0.5l-33 -158q-1 0 -22.5 -0.5t-34 0t-39.5 2t-45.5 4.5t-45.5 10t-45.5 16t-39 23.5t-33 32.5t-21 43.5 t-8.5 55.5z" />
<glyph unicode="&#x12f;" horiz-adv-x="571" d="M63 -225q0 126 183 225h-152v1075h377v-1075h-8q-33 -21 -57 -39t-53 -43.5t-44.5 -53t-15.5 -54.5q0 -19 8.5 -32t19.5 -19.5t30 -10t29 -3.5t29.5 0.5t20.5 0.5l-33 -158q-1 0 -22.5 -0.5t-34 0t-39.5 2t-45.5 4.5t-45.5 10t-45.5 16t-39 23.5t-33 32.5t-21 43.5 t-8.5 55.5zM86 1192v295h391v-295h-391z" />
<glyph unicode="&#x130;" horiz-adv-x="630" d="M119 0v1434h393v-1434h-393zM176 1530v266h277v-266h-277z" />
<glyph unicode="&#x131;" horiz-adv-x="571" d="M96 0v1075h377v-1075h-377z" />
<glyph unicode="&#x132;" horiz-adv-x="1259" d="M119 0v1434h393v-1434h-393zM530 -111q42 15 72.5 27t54.5 26t39 23.5t26 25.5t16.5 26.5t8 32.5t3 36.5t0.5 44.5v1303h393v-1280q0 -59 -0.5 -87.5t-3.5 -76.5t-9.5 -71t-18 -60t-29.5 -56t-44.5 -47t-62 -45t-82 -38.5t-105 -38t-131.5 -33.5z" />
<glyph unicode="&#x133;" horiz-adv-x="1138" d="M90 1192v295h391v-295h-391zM98 0v1075h377v-1075h-377zM446 -209q85 31 128 51.5t65.5 52.5t25.5 58t3 90v1032h376v-1001q0 -60 -0.5 -88t-3.5 -76t-9 -71t-17.5 -60.5t-29 -56t-43.5 -47t-60.5 -45.5t-80.5 -38.5t-103.5 -38t-129.5 -32.5zM659 1192v295h392v-295 h-392z" />
<glyph unicode="&#x134;" horiz-adv-x="630" d="M-100 -111q56 20 92.5 35.5t61.5 34t37.5 31.5t19 39t7.5 44t1 58v1303h393v-1280q0 -66 -0.5 -97t-4.5 -83t-13 -76.5t-24.5 -63t-40.5 -59t-60.5 -49t-84.5 -47t-112.5 -39.5t-144.5 -39zM-68 1509l211 293h342l211 -293h-252l-129 138l-129 -138h-254z" />
<glyph unicode="&#x135;" horiz-adv-x="571" d="M-123 -209q43 16 73 27.5t54.5 26t39.5 23.5t26 26t16.5 27t8 34t3 39t0.5 49v1032h377v-1001q0 -60 -0.5 -88t-3.5 -76t-9 -71t-17.5 -60.5t-29 -56t-43.5 -47t-60.5 -45.5t-80.5 -38.5t-103.5 -38t-129.5 -32.5zM-96 1200l211 293h342l211 -293h-252l-129 137 l-129 -137h-254z" />
<glyph unicode="&#x136;" horiz-adv-x="1396" d="M119 0v1434h393v-555l414 555h479l-539 -658l549 -776h-467l-323 481l-113 -137v-344h-393zM559 -553l117 168h-115v276h260l15 -311l-209 -219z" />
<glyph unicode="&#x137;" horiz-adv-x="1173" d="M96 0v1493h377v-760l232 342h436l-342 -424l397 -651h-397l-221 375l-105 -131v-244h-377zM461 -553l117 168h-115v276h260l14 -311l-209 -219z" />
<glyph unicode="&#x138;" horiz-adv-x="1173" d="M96 0v1075h377v-342l232 342h436l-342 -424l397 -651h-397l-221 375l-105 -131v-244h-377z" />
<glyph unicode="&#x139;" horiz-adv-x="1134" d="M82 1509l242 293h401l-336 -293h-307zM119 0v1434h393v-1102h604v-332h-997z" />
<glyph unicode="&#x13a;" horiz-adv-x="573" d="M53 1575l242 293h401l-336 -293h-307zM98 0v1493h379v-1493h-379z" />
<glyph unicode="&#x13b;" horiz-adv-x="1134" d="M119 0v1434h393v-1102h604v-332h-997zM473 -553l117 168h-115v276h260l15 -311l-209 -219z" />
<glyph unicode="&#x13c;" horiz-adv-x="573" d="M98 0v1493h379v-1493h-379zM160 -553l116 168h-114v276h260l14 -311l-209 -219z" />
<glyph unicode="&#x13d;" horiz-adv-x="1136" d="M119 0v1434h393v-1102h604v-332h-997zM596 989l117 168h-115v277h260l14 -312l-208 -219z" />
<glyph unicode="&#x13e;" horiz-adv-x="733" d="M98 0v1493h379v-1493h-379zM561 1049l117 168h-115v276h260l15 -311l-209 -219z" />
<glyph unicode="&#x13f;" horiz-adv-x="1136" d="M119 0v1434h393v-1102h604v-332h-997zM750 627v266h276v-266h-276z" />
<glyph unicode="&#x140;" horiz-adv-x="835" d="M98 0v1493h379v-1493h-379zM563 627v266h277v-266h-277z" />
<glyph unicode="&#x141;" horiz-adv-x="1163" d="M23 362v343l124 71v658h394v-428l247 145v-342l-247 -145v-332h604v-332h-998v434z" />
<glyph unicode="&#x142;" horiz-adv-x="667" d="M29 399v342l110 64v688h379v-465l109 64v-342l-109 -64v-686h-379v463z" />
<glyph unicode="&#x143;" horiz-adv-x="1464" d="M119 0v1434h397l438 -789v789h392v-1434h-398l-436 786v-786h-393zM510 1509l242 293h401l-336 -293h-307z" />
<glyph unicode="&#x144;" d="M96 0v1075h377v-112q90 62 176.5 98.5t188.5 36.5q311 0 311 -344v-754h-379v664q0 70 -19.5 106.5t-72.5 36.5q-50 0 -104.5 -32t-100.5 -81v-694h-377zM387 1200l242 293h401l-336 -293h-307z" />
<glyph unicode="&#x145;" horiz-adv-x="1464" d="M119 0v1434h397l438 -789v789h392v-1434h-398l-436 786v-786h-393zM616 -553l117 168h-115v276h261l14 -311l-209 -219z" />
<glyph unicode="&#x146;" d="M96 0v1075h377v-112q90 62 176.5 98.5t188.5 36.5q311 0 311 -344v-754h-379v664q0 70 -19.5 106.5t-72.5 36.5q-50 0 -104.5 -32t-100.5 -81v-694h-377zM494 -553l116 168h-114v276h260l14 -311l-209 -219z" />
<glyph unicode="&#x147;" horiz-adv-x="1464" d="M119 0v1434h397l438 -789v789h392v-1434h-398l-436 786v-786h-393zM360 1802h254l129 -137l129 137h252l-211 -293h-342z" />
<glyph unicode="&#x148;" d="M96 0v1075h377v-112q90 62 176.5 98.5t188.5 36.5q311 0 311 -344v-754h-379v664q0 70 -19.5 106.5t-72.5 36.5q-50 0 -104.5 -32t-100.5 -81v-694h-377zM238 1493h254l129 -137l129 137h251l-210 -293h-342z" />
<glyph unicode="&#x149;" d="M94 1219l117 167h-115v277h260l15 -311l-209 -219zM98 0v1075h377v-112q90 62 176.5 98.5t188.5 36.5q311 0 311 -344v-754h-379v664q0 70 -19.5 106.5t-72.5 36.5q-50 0 -104.5 -32t-100.5 -81v-694h-377z" />
<glyph unicode="&#x14a;" horiz-adv-x="1464" d="M119 0v1434h397l438 -789v789h392v-1346q0 -55 -2.5 -93t-10 -80t-22 -70.5t-39 -60t-60 -54.5t-85.5 -46.5t-115.5 -43.5t-149.5 -39l-129 288q102 34 147 60t62 61l-430 776v-786h-393z" />
<glyph unicode="&#x14b;" d="M96 0v1075h377v-112q90 62 176.5 98.5t188.5 36.5q311 0 311 -344v-680q0 -60 -0.5 -88t-3.5 -76t-9 -71t-17.5 -60.5t-29 -56t-43.5 -47t-60.5 -45.5t-80.5 -38.5t-103.5 -38t-129.5 -32.5l-121 270q57 21 92.5 36t61.5 34t38 31.5t18.5 40t7.5 47t1 63.5v621 q0 70 -19.5 106.5t-72.5 36.5q-50 0 -104.5 -32t-100.5 -81v-694h-377z" />
<glyph unicode="&#x14c;" horiz-adv-x="1486" d="M55 717q0 160 39.5 291.5t120 233t214.5 158t312 56.5t312.5 -56.5t215.5 -158t121 -233t40 -291.5q0 -127 -24.5 -237t-78 -203t-133 -159.5t-195 -103.5t-258.5 -37q-178 0 -312 56.5t-214.5 158.5t-120 233.5t-39.5 291.5zM438 1561v215h609v-215h-609zM459 717 q0 -190 68 -298t214 -108q147 0 215 107.5t68 298.5q0 189 -68 297t-215 108q-74 0 -129 -29.5t-88 -84t-49 -127t-16 -164.5z" />
<glyph unicode="&#x14d;" horiz-adv-x="1210" d="M47 539q0 268 144.5 413.5t412.5 145.5t412.5 -146.5t144.5 -414.5t-144 -414t-413 -146q-266 0 -411.5 147t-145.5 415zM299 1251v215h608v-215h-608zM430 539q0 -275 174 -275t174 273q0 274 -174 274t-174 -272z" />
<glyph unicode="&#x14e;" horiz-adv-x="1486" d="M55 717q0 160 39.5 291.5t120 233t214.5 158t312 56.5t312.5 -56.5t215.5 -158t121 -233t40 -291.5q0 -127 -24.5 -237t-78 -203t-133 -159.5t-195 -103.5t-258.5 -37q-178 0 -312 56.5t-214.5 158.5t-120 233.5t-39.5 291.5zM395 1782h221q0 -34 33.5 -55t91.5 -21 t93.5 21t35.5 55h222q0 -127 -93 -200t-258 -73q-163 0 -254.5 73t-91.5 200zM459 717q0 -190 68 -298t214 -108q147 0 215 107.5t68 298.5q0 189 -68 297t-215 108q-74 0 -129 -29.5t-88 -84t-49 -127t-16 -164.5z" />
<glyph unicode="&#x14f;" horiz-adv-x="1210" d="M47 539q0 268 144.5 413.5t412.5 145.5t412.5 -146.5t144.5 -414.5t-144 -414t-413 -146q-266 0 -411.5 147t-145.5 415zM256 1473h221q0 -34 33.5 -55t91.5 -21t93.5 21t35.5 55h221q0 -127 -92.5 -200t-257.5 -73q-163 0 -254.5 73t-91.5 200zM430 539q0 -275 174 -275 t174 273q0 274 -174 274t-174 -272z" />
<glyph unicode="&#x150;" horiz-adv-x="1486" d="M55 717q0 160 39.5 291.5t120 233t214.5 158t312 56.5t312.5 -56.5t215.5 -158t121 -233t40 -291.5q0 -127 -24.5 -237t-78 -203t-133 -159.5t-195 -103.5t-258.5 -37q-178 0 -312 56.5t-214.5 158.5t-120 233.5t-39.5 291.5zM410 1509l159 293h314l-252 -293h-221z M459 717q0 -190 68 -298t214 -108q147 0 215 107.5t68 298.5q0 189 -68 297t-215 108q-74 0 -129 -29.5t-88 -84t-49 -127t-16 -164.5zM786 1509l158 293h316l-252 -293h-222z" />
<glyph unicode="&#x151;" horiz-adv-x="1210" d="M47 539q0 268 144.5 413.5t412.5 145.5t412.5 -146.5t144.5 -414.5t-144 -414t-413 -146q-266 0 -411.5 147t-145.5 415zM274 1200l160 293h314l-252 -293h-222zM430 539q0 -275 174 -275t174 273q0 274 -174 274t-174 -272zM651 1200l158 293h315l-252 -293h-221z" />
<glyph unicode="&#x152;" horiz-adv-x="2121" d="M55 717q0 160 39.5 291.5t120 233t214.5 158t312 56.5q158 0 285 -45v23h1018v-332h-625v-223h508v-324h-508v-223h635v-332h-1028v23q-130 -46 -285 -46q-178 0 -312 56.5t-214.5 158.5t-120 233.5t-39.5 291.5zM459 717q0 -190 68 -298t214 -108q147 0 215 107.5 t68 298.5q0 189 -68 297t-215 108q-74 0 -129 -29.5t-88 -84t-49 -127t-16 -164.5z" />
<glyph unicode="&#x153;" horiz-adv-x="1865" d="M47 539q0 268 144.5 413.5t412.5 145.5q224 0 363 -105q133 105 342 105q248 0 378 -132t130 -350q0 -40 -4.5 -79t-9.5 -59l-5 -19h-633q9 -105 47 -155t115 -50q126 0 363 121l131 -232q-275 -166 -535 -166q-193 0 -321 101q-141 -101 -361 -101q-266 0 -411.5 147 t-145.5 415zM430 539q0 -275 174 -275t174 273q0 274 -174 274t-174 -272zM1167 653h281q-3 181 -137 181q-65 0 -99 -45t-45 -136z" />
<glyph unicode="&#x154;" horiz-adv-x="1390" d="M119 0v1434h653q294 0 429.5 -112.5t135.5 -344.5q0 -174 -76 -280.5t-235 -147.5l313 -549h-426l-272 520h-129v-520h-393zM496 1509l241 293h402l-336 -293h-307zM512 825h231q96 0 147.5 32.5t51.5 119.5t-51.5 119t-145.5 32h-233v-303z" />
<glyph unicode="&#x155;" horiz-adv-x="866" d="M96 0v1075h377v-221q11 26 25 52t45.5 63t70 63.5t98.5 43t130 11.5v-354q-68 0 -125.5 -19t-94 -49.5t-65.5 -67.5t-44 -74t-25 -67.5t-12 -49.5l-3 -19v-387h-377zM236 1200l241 293h402l-336 -293h-307z" />
<glyph unicode="&#x156;" horiz-adv-x="1390" d="M119 0v1434h653q294 0 429.5 -112.5t135.5 -344.5q0 -174 -76 -280.5t-235 -147.5l313 -549h-426l-272 520h-129v-520h-393zM512 825h231q96 0 147.5 32.5t51.5 119.5t-51.5 119t-145.5 32h-233v-303zM561 -553l117 168h-115v276h260l15 -311l-209 -219z" />
<glyph unicode="&#x157;" horiz-adv-x="866" d="M96 0v1075h377v-221q11 26 25 52t45.5 63t70 63.5t98.5 43t130 11.5v-354q-68 0 -125.5 -19t-94 -49.5t-65.5 -67.5t-44 -74t-25 -67.5t-12 -49.5l-3 -19v-387h-377zM158 -553l116 168h-114v276h260l14 -311l-209 -219z" />
<glyph unicode="&#x158;" horiz-adv-x="1390" d="M119 0v1434h653q294 0 429.5 -112.5t135.5 -344.5q0 -174 -76 -280.5t-235 -147.5l313 -549h-426l-272 520h-129v-520h-393zM346 1802h254l129 -137l129 137h252l-211 -293h-342zM512 825h231q96 0 147.5 32.5t51.5 119.5t-51.5 119t-145.5 32h-233v-303z" />
<glyph unicode="&#x159;" horiz-adv-x="866" d="M88 1493h254l129 -137l129 137h252l-211 -293h-342zM98 0v1075h377v-221q11 26 25 52t45.5 63t70 63.5t98.5 43t130 11.5v-354q-68 0 -125.5 -19t-94 -49.5t-65.5 -67.5t-44 -74t-25 -67.5t-12 -49.5l-3 -19v-387h-377z" />
<glyph unicode="&#x15a;" horiz-adv-x="1261" d="M33 182l174 279q91 -58 235 -109t236 -51q58 0 93.5 23.5t35.5 68.5q0 31 -20.5 53t-63.5 38.5t-90.5 30t-121 36.5t-134.5 49q-314 124 -314 418q0 93 32.5 171.5t95.5 138.5t163.5 94t229.5 34q153 0 315.5 -45t288.5 -113l-174 -282q-87 43 -206.5 80t-199.5 37 q-57 0 -93 -23t-36 -68q0 -32 21 -53.5t64 -37t91 -28t119 -34.5t131 -47q46 -20 83.5 -40t83.5 -56.5t77 -79t52.5 -106t21.5 -138.5q0 -196 -136 -320.5t-389 -124.5q-182 0 -363 61.5t-302 143.5zM395 1509l242 293h401l-336 -293h-307z" />
<glyph unicode="&#x15b;" horiz-adv-x="1064" d="M31 121l141 264q86 -45 212 -84t198 -39q69 0 69 33q0 18 -11.5 31t-39.5 24t-51 18t-72 19t-76 19q-350 96 -350 356q0 149 108 242.5t314 93.5q133 0 274.5 -36.5t241.5 -84.5l-143 -244q-75 32 -178 58t-168 26q-70 0 -70 -37q0 -18 11 -30.5t37.5 -22.5t51.5 -16.5 t71 -17.5t79 -21q354 -92 354 -359q0 -154 -111 -245t-325 -91q-149 0 -307.5 43.5t-259.5 100.5zM299 1200l242 293h401l-336 -293h-307z" />
<glyph unicode="&#x15c;" horiz-adv-x="1261" d="M33 182l174 279q91 -58 235 -109t236 -51q58 0 93.5 23.5t35.5 68.5q0 31 -20.5 53t-63.5 38.5t-90.5 30t-121 36.5t-134.5 49q-314 124 -314 418q0 93 32.5 171.5t95.5 138.5t163.5 94t229.5 34q153 0 315.5 -45t288.5 -113l-174 -282q-87 43 -206.5 80t-199.5 37 q-57 0 -93 -23t-36 -68q0 -32 21 -53.5t64 -37t91 -28t119 -34.5t131 -47q46 -20 83.5 -40t83.5 -56.5t77 -79t52.5 -106t21.5 -138.5q0 -196 -136 -320.5t-389 -124.5q-182 0 -363 61.5t-302 143.5zM246 1509l211 293h342l211 -293h-252l-129 138l-129 -138h-254z" />
<glyph unicode="&#x15d;" horiz-adv-x="1064" d="M31 121l141 264q86 -45 212 -84t198 -39q69 0 69 33q0 18 -11.5 31t-39.5 24t-51 18t-72 19t-76 19q-350 96 -350 356q0 149 108 242.5t314 93.5q133 0 274.5 -36.5t241.5 -84.5l-143 -244q-75 32 -178 58t-168 26q-70 0 -70 -37q0 -18 11 -30.5t37.5 -22.5t51.5 -16.5 t71 -17.5t79 -21q354 -92 354 -359q0 -154 -111 -245t-325 -91q-149 0 -307.5 43.5t-259.5 100.5zM152 1200l210 293h343l210 -293h-251l-129 137l-129 -137h-254z" />
<glyph unicode="&#x15e;" horiz-adv-x="1261" d="M33 182l174 279q91 -58 235 -109t236 -51q58 0 93.5 23.5t35.5 68.5q0 31 -20.5 53t-63.5 38.5t-90.5 30t-121 36.5t-134.5 49q-314 124 -314 418q0 93 32.5 171.5t95.5 138.5t163.5 94t229.5 34q153 0 315.5 -45t288.5 -113l-174 -282q-87 43 -206.5 80t-199.5 37 q-57 0 -93 -23t-36 -68q0 -32 21 -53.5t64 -37t91 -28t119 -34.5t131 -47q46 -20 83.5 -40t83.5 -56.5t77 -79t52.5 -106t21.5 -138.5q0 -179 -115 -299.5t-330 -140.5q60 -86 60 -172q0 -101 -67.5 -150t-170.5 -49q-108 0 -182 47l69 176q43 -22 86 -22q78 0 78 65 q0 37 -35 105q-163 13 -319.5 70.5t-263.5 129.5z" />
<glyph unicode="&#x15f;" horiz-adv-x="1064" d="M31 121l141 264q86 -45 212 -84t198 -39q69 0 69 33q0 18 -11.5 31t-39.5 24t-51 18t-72 19t-76 19q-350 96 -350 356q0 149 108 242.5t314 93.5q133 0 274.5 -36.5t241.5 -84.5l-143 -244q-75 32 -178 58t-168 26q-70 0 -70 -37q0 -18 11 -30.5t37.5 -22.5t51.5 -16.5 t71 -17.5t79 -21q354 -92 354 -359q0 -135 -86.5 -222t-251.5 -107q60 -93 60 -174q0 -101 -67.5 -150t-170.5 -49q-108 0 -182 47l70 176q43 -22 86 -22q77 0 77 65q0 42 -34 103q-137 8 -275.5 49.5t-228.5 91.5z" />
<glyph unicode="&#x160;" horiz-adv-x="1261" d="M33 182l174 279q91 -58 235 -109t236 -51q58 0 93.5 23.5t35.5 68.5q0 31 -20.5 53t-63.5 38.5t-90.5 30t-121 36.5t-134.5 49q-314 124 -314 418q0 93 32.5 171.5t95.5 138.5t163.5 94t229.5 34q153 0 315.5 -45t288.5 -113l-174 -282q-87 43 -206.5 80t-199.5 37 q-57 0 -93 -23t-36 -68q0 -32 21 -53.5t64 -37t91 -28t119 -34.5t131 -47q46 -20 83.5 -40t83.5 -56.5t77 -79t52.5 -106t21.5 -138.5q0 -196 -136 -320.5t-389 -124.5q-182 0 -363 61.5t-302 143.5zM248 1802h254l129 -137l129 137h252l-211 -293h-342z" />
<glyph unicode="&#x161;" horiz-adv-x="1064" d="M31 121l141 264q86 -45 212 -84t198 -39q69 0 69 33q0 18 -11.5 31t-39.5 24t-51 18t-72 19t-76 19q-350 96 -350 356q0 149 108 242.5t314 93.5q133 0 274.5 -36.5t241.5 -84.5l-143 -244q-75 32 -178 58t-168 26q-70 0 -70 -37q0 -18 11 -30.5t37.5 -22.5t51.5 -16.5 t71 -17.5t79 -21q354 -92 354 -359q0 -154 -111 -245t-325 -91q-149 0 -307.5 43.5t-259.5 100.5zM158 1493h254l129 -137l129 137h252l-211 -293h-342z" />
<glyph unicode="&#x162;" horiz-adv-x="1173" d="M20 1102v332h1131v-332h-367v-1102h-116q73 -97 73 -190q0 -101 -67 -150t-170 -49q-108 0 -182 47l69 176q43 -22 86 -22q78 0 78 65q0 48 -47 123h-117v1102h-371z" />
<glyph unicode="&#x163;" horiz-adv-x="876" d="M39 801v274h135v271l377 40v-311h268v-274h-268v-402q0 -31 7 -51.5t20 -29t23.5 -11t25.5 -2.5q39 0 129 45l129 -278q-159 -75 -295 -90q59 -85 59 -172q0 -101 -67 -150t-170 -49q-109 0 -183 47l70 176q43 -22 86 -22q78 0 78 65q0 43 -37 109q-130 24 -191 127 t-61 288v400h-135z" />
<glyph unicode="&#x164;" horiz-adv-x="1173" d="M20 1102v332h1131v-332h-367v-1102h-393v1102h-371zM203 1802h254l129 -137l129 137h252l-211 -293h-342z" />
<glyph unicode="&#x165;" horiz-adv-x="876" d="M39 801v274h135v271l377 40v-311h268v-274h-268v-402q0 -31 7 -51.5t20 -29t23.5 -11t25.5 -2.5q39 0 129 45l129 -278q-200 -95 -365 -95q-181 0 -263.5 104.5t-82.5 319.5v400h-135zM629 1219l116 167h-114v277h260l14 -311l-209 -219z" />
<glyph unicode="&#x166;" horiz-adv-x="1187" d="M27 1102v332h1130v-332h-366v-473h159v-215h-159v-414h-394v414h-157v215h157v473h-370z" />
<glyph unicode="&#x167;" horiz-adv-x="876" d="M39 801v274h135v271l377 40v-311h268v-274h-268v-101h209v-213h-209v-88q0 -31 7 -51.5t20 -29t23.5 -11t25.5 -2.5q39 0 129 45l129 -278q-200 -95 -365 -95q-181 0 -263.5 104.5t-82.5 319.5v86h-94v213h94v101h-135z" />
<glyph unicode="&#x168;" horiz-adv-x="1406" d="M102 614v820h392v-856q0 -61 8.5 -105.5t30 -83t64 -58.5t105.5 -20t105.5 20t64.5 58.5t30.5 83t8.5 105.5v856h394v-820q0 -114 -14 -202.5t-54 -173t-105.5 -139.5t-174.5 -88.5t-255 -33.5t-254 33.5t-173.5 88.5t-105 139.5t-53.5 173t-14 202.5zM305 1595 q18 38 24 50.5t24.5 46t29 47t31 37t38.5 33t43 18t52 8.5q47 0 104.5 -24t106 -48t73.5 -24q15 0 27.5 5t32.5 27t41 62l158 -80q-18 -38 -24 -50.5t-24.5 -46t-29 -47t-31 -37t-38.5 -33t-43 -18t-52 -8.5q-48 0 -106 24t-107 48.5t-74 24.5q-14 0 -26 -5t-31.5 -27 t-40.5 -62z" />
<glyph unicode="&#x169;" d="M90 322v753h379v-663q0 -70 20 -107t72 -37q49 0 103.5 31.5t101.5 79.5v696h379v-1075h-379v113q-194 -136 -365 -136q-157 0 -234 89.5t-77 255.5zM242 1286q19 41 24 51t24 45.5t29 47.5t31 36.5t38.5 33.5t42.5 17.5t52 8.5q47 0 104.5 -24t106.5 -48t74 -24 q15 0 27.5 5t32 27t40.5 62l158 -80q-18 -38 -24 -50.5t-24.5 -46t-29 -47t-31 -37t-38.5 -33t-43 -18t-52 -8.5q-48 0 -106 24t-106.5 48t-73.5 24q-50 0 -99 -94z" />
<glyph unicode="&#x16a;" horiz-adv-x="1406" d="M102 614v820h392v-856q0 -61 8.5 -105.5t30 -83t64 -58.5t105.5 -20t105.5 20t64.5 58.5t30.5 83t8.5 105.5v856h394v-820q0 -114 -14 -202.5t-54 -173t-105.5 -139.5t-174.5 -88.5t-255 -33.5t-254 33.5t-173.5 88.5t-105 139.5t-53.5 173t-14 202.5zM399 1561v215h609 v-215h-609z" />
<glyph unicode="&#x16b;" d="M90 322v753h379v-663q0 -70 20 -107t72 -37q49 0 103.5 31.5t101.5 79.5v696h379v-1075h-379v113q-194 -136 -365 -136q-157 0 -234 89.5t-77 255.5zM313 1251v215h609v-215h-609z" />
<glyph unicode="&#x16c;" horiz-adv-x="1406" d="M102 614v820h392v-856q0 -61 8.5 -105.5t30 -83t64 -58.5t105.5 -20t105.5 20t64.5 58.5t30.5 83t8.5 105.5v856h394v-820q0 -114 -14 -202.5t-54 -173t-105.5 -139.5t-174.5 -88.5t-255 -33.5t-254 33.5t-173.5 88.5t-105 139.5t-53.5 173t-14 202.5zM354 1782h221 q0 -34 33.5 -55t91.5 -21t93.5 21t35.5 55h222q0 -127 -93 -200t-258 -73q-163 0 -254.5 73t-91.5 200z" />
<glyph unicode="&#x16d;" d="M90 322v753h379v-663q0 -70 20 -107t72 -37q49 0 103.5 31.5t101.5 79.5v696h379v-1075h-379v113q-194 -136 -365 -136q-157 0 -234 89.5t-77 255.5zM268 1473h221q0 -34 33.5 -55t91.5 -21t93.5 21t35.5 55h222q0 -127 -93 -200t-258 -73q-163 0 -254.5 73t-91.5 200z " />
<glyph unicode="&#x16e;" horiz-adv-x="1406" d="M102 614v820h392v-856q0 -61 8.5 -105.5t30 -83t64 -58.5t105.5 -20t105.5 20t64.5 58.5t30.5 83t8.5 105.5v856h394v-820q0 -114 -14 -202.5t-54 -173t-105.5 -139.5t-174.5 -88.5t-255 -33.5t-254 33.5t-173.5 88.5t-105 139.5t-53.5 173t-14 202.5zM467 1726 q0 97 70 166.5t168 69.5q97 0 166 -69.5t69 -166.5q0 -98 -69 -167.5t-166 -69.5q-98 0 -168 69.5t-70 167.5zM637 1726q0 -28 20 -47.5t48 -19.5q26 0 45.5 19.5t19.5 47.5q0 26 -19.5 46t-45.5 20q-28 0 -48 -20t-20 -46z" />
<glyph unicode="&#x16f;" d="M90 322v753h379v-663q0 -70 20 -107t72 -37q49 0 103.5 31.5t101.5 79.5v696h379v-1075h-379v113q-194 -136 -365 -136q-157 0 -234 89.5t-77 255.5zM381 1417q0 97 69.5 166.5t167.5 69.5q97 0 166.5 -69.5t69.5 -166.5q0 -98 -69.5 -167.5t-166.5 -69.5 q-98 0 -167.5 69.5t-69.5 167.5zM551 1417q0 -28 19.5 -47.5t47.5 -19.5q26 0 46 20t20 47q0 26 -20 46t-46 20q-28 0 -47.5 -19.5t-19.5 -46.5z" />
<glyph unicode="&#x170;" horiz-adv-x="1406" d="M102 614v820h392v-856q0 -61 8.5 -105.5t30 -83t64 -58.5t105.5 -20t105.5 20t64.5 58.5t30.5 83t8.5 105.5v856h394v-820q0 -114 -14 -202.5t-54 -173t-105.5 -139.5t-174.5 -88.5t-255 -33.5t-254 33.5t-173.5 88.5t-105 139.5t-53.5 173t-14 202.5zM373 1509l159 293 h314l-252 -293h-221zM750 1509l157 293h316l-252 -293h-221z" />
<glyph unicode="&#x171;" d="M90 322v753h379v-663q0 -70 20 -107t72 -37q49 0 103.5 31.5t101.5 79.5v696h379v-1075h-379v113q-194 -136 -365 -136q-157 0 -234 89.5t-77 255.5zM287 1200l159 293h314l-252 -293h-221zM664 1200l157 293h316l-252 -293h-221z" />
<glyph unicode="&#x172;" horiz-adv-x="1409" d="M104 614v820h392v-856q0 -61 8.5 -105.5t30.5 -83t64.5 -58.5t105.5 -20t105.5 20t64 58.5t30 83t8.5 105.5v856h394v-820q0 -94 -9.5 -170.5t-35.5 -151t-68.5 -130t-111 -98t-160.5 -64.5q-33 -21 -57 -39t-53 -43.5t-44.5 -53t-15.5 -54.5q0 -19 8.5 -32t19.5 -19.5 t30 -10t29 -3.5t29.5 0.5t20.5 0.5l-33 -158q-1 0 -22.5 -0.5t-34 0t-39.5 2t-45.5 4.5t-45.5 10t-45.5 16t-39 23.5t-33 32.5t-21 43.5t-8.5 55.5q0 113 146 205q-137 4 -238.5 38.5t-163 90t-98.5 138.5t-50.5 169.5t-13.5 197.5z" />
<glyph unicode="&#x173;" d="M90 322v753h379v-663q0 -70 20 -107t72 -37q49 0 103.5 31.5t101.5 79.5v696h379v-1075h-8q-33 -21 -57 -39t-53 -43.5t-44.5 -53t-15.5 -54.5q0 -19 8.5 -32t19.5 -19.5t30 -10t29 -3.5t29.5 0.5t20.5 0.5l-33 -158q-1 0 -22.5 -0.5t-34 0t-39.5 2t-45.5 4.5t-45.5 10 t-45.5 16t-39 23.5t-33 32.5t-21 43.5t-8.5 55.5q0 126 183 225h-154v113q-194 -136 -365 -136q-157 0 -234 89.5t-77 255.5z" />
<glyph unicode="&#x174;" horiz-adv-x="1908" d="M10 1434h443l153 -861l197 861h305l195 -865l155 865h440l-370 -1434h-379l-195 827l-192 -827h-379zM573 1509l211 293h342l211 -293h-252l-129 138l-129 -138h-254z" />
<glyph unicode="&#x175;" horiz-adv-x="1660" d="M16 1075h400l114 -631l156 631h291l153 -626l115 626h400l-304 -1075h-350l-160 586l-159 -586h-350zM449 1200l210 293h342l211 -293h-251l-130 137l-129 -137h-253z" />
<glyph unicode="&#x177;" horiz-adv-x="1163" d="M4 1075h408l172 -608l170 608h407l-538 -1493h-406l176 414zM199 1200l211 293h342l211 -293h-252l-129 137l-129 -137h-254z" />
<glyph unicode="&#x178;" horiz-adv-x="1304" d="M-16 1434h442l225 -490l228 490h442l-473 -867v-567h-391v567zM332 1530v266h276v-266h-276zM698 1530v266h275v-266h-275z" />
<glyph unicode="&#x179;" horiz-adv-x="1253" d="M47 0v299l619 803h-578v332h1092v-299l-619 -803h629v-332h-1143zM399 1509l242 293h401l-335 -293h-308z" />
<glyph unicode="&#x17a;" horiz-adv-x="1134" d="M55 0v258l494 508h-475v309h997v-258l-493 -508h493v-309h-1016zM330 1200l241 293h402l-336 -293h-307z" />
<glyph unicode="&#x17b;" horiz-adv-x="1253" d="M47 0v299l619 803h-578v332h1092v-299l-619 -803h629v-332h-1143zM496 1530v266h276v-266h-276z" />
<glyph unicode="&#x17c;" horiz-adv-x="1134" d="M55 0v258l494 508h-475v309h997v-258l-493 -508h493v-309h-1016zM424 1221v266h276v-266h-276z" />
<glyph unicode="&#x17d;" horiz-adv-x="1253" d="M47 0v299l619 803h-578v332h1092v-299l-619 -803h629v-332h-1143zM252 1802h254l129 -137l129 137h252l-211 -293h-342z" />
<glyph unicode="&#x17e;" horiz-adv-x="1134" d="M55 0v258l494 508h-475v309h997v-258l-493 -508h493v-309h-1016zM180 1493h254l129 -137l129 137h252l-211 -293h-342z" />
<glyph unicode="&#x17f;" horiz-adv-x="679" d="M31 801v274h135q0 212 83.5 315t262.5 103q174 0 377 -94l-125 -269q-98 39 -146 39q-15 0 -25.5 -2.5t-23 -11t-19.5 -29t-7 -51.5v-1075h-377v801h-135z" />
<glyph unicode="&#x192;" horiz-adv-x="1200" d="M51 -418l262 1219h-135l60 274h135l2 6q23 107 51.5 177t77 126.5t123.5 82.5t182 26q148 0 369 -94l-168 -258q-7 2 -23 8t-25 9t-26 9t-26.5 7.5t-26.5 5t-25 2.5t-24 -2q-63 -14 -82 -101l-2 -4h268l-57 -274h-269l-262 -1219h-379z" />
<glyph unicode="&#x1fc;" horiz-adv-x="2109" d="M-78 0l893 1434h1219v-332h-625v-223h508v-324h-508v-223h635v-332h-1028v240h-481l-140 -240h-473zM717 555h299v514zM893 1509l242 293h401l-336 -293h-307z" />
<glyph unicode="&#x1fd;" horiz-adv-x="1787" d="M35 336q0 159 104 250.5t279 91.5q94 0 287 -43q6 46 14 78q-4 56 -38 79t-110 23q-115 0 -356 -74l-115 256q304 101 549 101q190 0 299 -64q122 64 281 64q248 0 378 -132t130 -350q0 -40 -4.5 -79t-9.5 -59l-5 -19h-633q9 -105 47 -155t115 -50q126 0 363 121 l131 -232q-275 -166 -535 -166q-136 0 -245 52t-175 155q-176 -207 -395 -207q-163 0 -259.5 101.5t-96.5 257.5zM418 371q0 -53 27 -80t75 -27q101 0 199 90q-10 39 -17 103q-117 26 -159 26q-58 0 -91.5 -28t-33.5 -84zM655 1200l242 293h401l-335 -293h-308zM1087 653 h281q-3 181 -137 181q-65 0 -99 -45t-45 -136z" />
<glyph unicode="&#x1fe;" horiz-adv-x="1484" d="M55 717q0 160 39.5 291.5t120 233t214.5 158t312 56.5q210 0 361 -80l43 58h264l-141 -191q162 -194 162 -526q0 -127 -24.5 -237t-78 -203t-133 -159.5t-195 -103.5t-258.5 -37q-211 0 -358 78l-41 -55h-264l139 188q-162 191 -162 529zM459 717q0 -101 18 -180l408 546 q-61 39 -144 39q-74 0 -129 -29.5t-88 -84t-49 -127t-16 -164.5zM508 1509l242 293h401l-336 -293h-307zM600 346q56 -35 141 -35q147 0 215 107.5t68 298.5q0 97 -18 176z" />
<glyph unicode="&#x1ff;" horiz-adv-x="1208" d="M47 539q0 268 144.5 413.5t412.5 145.5q166 0 289 -60l31 37h204l-104 -133q137 -143 137 -405q0 -268 -144 -414t-413 -146q-165 0 -295 62l-30 -39h-211l110 139q-131 143 -131 400zM352 1200l242 293h401l-336 -293h-307zM430 539q0 -53 4 -78l258 323q-42 27 -88 27 q-174 0 -174 -272zM510 293q40 -29 94 -29q174 0 174 273q0 47 -6 88z" />
<glyph unicode="&#x218;" horiz-adv-x="1261" d="M33 182l174 279q91 -58 235 -109t236 -51q58 0 93.5 23.5t35.5 68.5q0 31 -20.5 53t-63.5 38.5t-90.5 30t-121 36.5t-134.5 49q-314 124 -314 418q0 93 32.5 171.5t95.5 138.5t163.5 94t229.5 34q153 0 315.5 -45t288.5 -113l-174 -282q-87 43 -206.5 80t-199.5 37 q-57 0 -93 -23t-36 -68q0 -32 21 -53.5t64 -37t91 -28t119 -34.5t131 -47q46 -20 83.5 -40t83.5 -56.5t77 -79t52.5 -106t21.5 -138.5q0 -196 -136 -320.5t-389 -124.5q-182 0 -363 61.5t-302 143.5zM512 -553l117 168h-115v276h260l14 -311l-208 -219z" />
<glyph unicode="&#x219;" horiz-adv-x="1064" d="M31 121l141 264q86 -45 212 -84t198 -39q69 0 69 33q0 18 -11.5 31t-39.5 24t-51 18t-72 19t-76 19q-350 96 -350 356q0 149 108 242.5t314 93.5q133 0 274.5 -36.5t241.5 -84.5l-143 -244q-75 32 -178 58t-168 26q-70 0 -70 -37q0 -18 11 -30.5t37.5 -22.5t51.5 -16.5 t71 -17.5t79 -21q354 -92 354 -359q0 -154 -111 -245t-325 -91q-149 0 -307.5 43.5t-259.5 100.5zM389 -553l117 168h-115v276h260l15 -311l-209 -219z" />
<glyph unicode="&#x21a;" horiz-adv-x="1173" d="M20 1102v332h1131v-332h-367v-1102h-393v1102h-371zM459 -553l116 168h-114v276h260l14 -311l-209 -219z" />
<glyph unicode="&#x21b;" horiz-adv-x="876" d="M39 801v274h135v271l377 40v-311h268v-274h-268v-402q0 -31 7 -51.5t20 -29t23.5 -11t25.5 -2.5q39 0 129 45l129 -278q-200 -95 -365 -95q-181 0 -263.5 104.5t-82.5 319.5v400h-135zM260 -553l117 168h-115v276h260l15 -311l-209 -219z" />
<glyph unicode="&#x2b0;" horiz-adv-x="831" d="M82 788v895h252v-313q111 78 225 78q199 0 199 -209v-451h-252v390q0 37 -11.5 57t-41.5 20q-60 0 -119 -59v-408h-252z" />
<glyph unicode="&#x2b2;" horiz-adv-x="415" d="M-55 674q35 13 57.5 22t38.5 20.5t24 19t12 24t4.5 28t0.5 37.5v609h252v-588q0 -62 -1.5 -90t-10 -70.5t-27 -63t-53 -47.5t-87.5 -44.5t-130 -34.5zM78 1493v188h260v-188h-260z" />
<glyph unicode="&#x2b7;" horiz-adv-x="1044" d="M2 1434h264l66 -359l92 359h192l91 -357l67 357h266l-192 -646h-232l-96 336l-94 -336h-231z" />
<glyph unicode="&#x2b8;" horiz-adv-x="714" d="M-12 1434h270l98 -338l101 338h270l-338 -895h-268l108 247z" />
<glyph unicode="&#x2c6;" horiz-adv-x="583" d="M-90 1200l211 293h342l211 -293h-252l-129 137l-129 -137h-254z" />
<glyph unicode="&#x2c7;" horiz-adv-x="583" d="M-90 1493h254l129 -137l129 137h252l-211 -293h-342z" />
<glyph unicode="&#x2d8;" horiz-adv-x="550" d="M-72 1473h222q0 -34 33 -55t91 -21t93.5 21t35.5 55h222q0 -127 -93 -200t-258 -73q-163 0 -254.5 73t-91.5 200z" />
<glyph unicode="&#x2d9;" horiz-adv-x="204" d="M-37 1221v266h277v-266h-277z" />
<glyph unicode="&#x2da;" horiz-adv-x="430" d="M-23 1417q0 97 70 166.5t168 69.5q97 0 166.5 -69.5t69.5 -166.5q0 -98 -69.5 -167.5t-166.5 -69.5q-98 0 -168 69.5t-70 167.5zM147 1417q0 -28 20 -47.5t48 -19.5q27 0 46.5 20t19.5 47q0 26 -20 46t-46 20q-28 0 -48 -20t-20 -46z" />
<glyph unicode="&#x2db;" horiz-adv-x="331" d="M-72 -225q0 143 230 248l174 -21q-34 -22 -58 -39.5t-54 -44t-46 -54t-16 -54.5q0 -19 8.5 -32t19.5 -19.5t30 -10t29 -3.5t29.5 0.5t20.5 0.5l-33 -158q-1 0 -22.5 -0.5t-34 0t-39.5 2t-45.5 4.5t-45.5 10t-45.5 16t-39 23.5t-33 32.5t-21 43.5t-8.5 55.5z" />
<glyph unicode="&#x2dc;" horiz-adv-x="591" d="M-96 1286q19 41 24 51t24 45.5t29 47.5t31 36.5t38.5 33.5t42.5 17.5t52 8.5q47 0 104.5 -24t106.5 -48t74 -24q15 0 27.5 5t32 27t40.5 62l158 -80q-18 -38 -24 -50.5t-24.5 -46t-29 -47t-31 -37t-38.5 -33t-43 -18t-52 -8.5q-48 0 -106 24t-106.5 48t-73.5 24 q-50 0 -99 -94z" />
<glyph unicode="&#x2dd;" horiz-adv-x="688" d="M-82 1200l160 293h313l-252 -293h-221zM295 1200l158 293h315l-252 -293h-221z" />
<glyph unicode="&#x2e3;" horiz-adv-x="770" d="M-8 788l237 322l-225 324h281l100 -170l100 170h279l-223 -324l237 -322h-289l-106 175l-104 -175h-287z" />
<glyph unicode="&#x3c0;" horiz-adv-x="1136" d="M27 756v319h1081v-319h-147v-756h-322v756h-143v-756h-322v756h-147z" />
<glyph unicode="&#x1e80;" horiz-adv-x="1908" d="M10 1434h443l153 -861l197 861h305l195 -865l155 865h440l-370 -1434h-379l-195 827l-192 -827h-379zM547 1802h401l242 -293h-307z" />
<glyph unicode="&#x1e81;" horiz-adv-x="1660" d="M16 1075h400l114 -631l156 631h291l153 -626l115 626h400l-304 -1075h-350l-160 586l-159 -586h-350zM424 1493h401l242 -293h-307z" />
<glyph unicode="&#x1e82;" horiz-adv-x="1908" d="M10 1434h443l153 -861l197 861h305l195 -865l155 865h440l-370 -1434h-379l-195 827l-192 -827h-379zM721 1509l242 293h401l-336 -293h-307z" />
<glyph unicode="&#x1e83;" horiz-adv-x="1660" d="M16 1075h400l114 -631l156 631h291l153 -626l115 626h400l-304 -1075h-350l-160 586l-159 -586h-350zM598 1200l242 293h401l-336 -293h-307z" />
<glyph unicode="&#x1e84;" horiz-adv-x="1908" d="M10 1434h443l153 -861l197 861h305l195 -865l155 865h440l-370 -1434h-379l-195 827l-192 -827h-379zM635 1530v266h276v-266h-276zM1001 1530v266h275v-266h-275z" />
<glyph unicode="&#x1e85;" horiz-adv-x="1660" d="M16 1075h400l114 -631l156 631h291l153 -626l115 626h400l-304 -1075h-350l-160 586l-159 -586h-350zM512 1221v266h276v-266h-276zM879 1221v266h274v-266h-274z" />
<glyph unicode="&#x1e9e;" horiz-adv-x="1624" d="M117 0v864q0 81 10.5 149t35 134.5t68 117t106 89.5t154.5 59.5t207 20.5h723v-256l-247 -297q192 -48 298.5 -162t106.5 -287q0 -93 -31.5 -174t-92.5 -144.5t-159.5 -100t-222.5 -36.5q-256 0 -487 148l172 278q53 -39 127 -70.5t137 -31.5q67 0 110.5 38t43.5 103 q0 164 -347 164h-100v242l213 254h-213q-118 0 -168.5 -68t-50.5 -237v-797h-393z" />
<glyph unicode="&#x1ef2;" horiz-adv-x="1304" d="M-16 1434h442l225 -490l228 490h442l-473 -867v-567h-391v567zM244 1802h401l242 -293h-307z" />
<glyph unicode="&#x1ef3;" horiz-adv-x="1163" d="M4 1075h408l172 -608l170 608h407l-538 -1493h-406l176 414zM174 1493h401l242 -293h-307z" />
<glyph unicode="&#x2000;" horiz-adv-x="981" />
<glyph unicode="&#x2001;" horiz-adv-x="1962" />
<glyph unicode="&#x2002;" horiz-adv-x="981" />
<glyph unicode="&#x2003;" horiz-adv-x="1962" />
<glyph unicode="&#x2004;" horiz-adv-x="654" />
<glyph unicode="&#x2005;" horiz-adv-x="490" />
<glyph unicode="&#x2006;" horiz-adv-x="327" />
<glyph unicode="&#x2007;" horiz-adv-x="327" />
<glyph unicode="&#x2008;" horiz-adv-x="245" />
<glyph unicode="&#x2009;" horiz-adv-x="392" />
<glyph unicode="&#x200a;" horiz-adv-x="109" />
<glyph unicode="&#x2010;" horiz-adv-x="847" d="M94 432v301h658v-301h-658z" />
<glyph unicode="&#x2011;" horiz-adv-x="847" d="M94 432v301h658v-301h-658z" />
<glyph unicode="&#x2012;" horiz-adv-x="847" d="M94 432v301h658v-301h-658z" />
<glyph unicode="&#x2013;" horiz-adv-x="1085" d="M92 434v297h899v-297h-899z" />
<glyph unicode="&#x2014;" horiz-adv-x="1292" d="M92 434v297h1106v-297h-1106z" />
<glyph unicode="&#x2018;" horiz-adv-x="550" d="M68 1163l301 312l94 -125l-168 -238h166v-397h-373z" />
<glyph unicode="&#x2019;" horiz-adv-x="528" d="M82 799l168 237h-166v398h373l20 -449l-301 -311z" />
<glyph unicode="&#x201a;" horiz-adv-x="565" d="M92 -238l168 238h-166v397h373l20 -448l-301 -311z" />
<glyph unicode="&#x201c;" horiz-adv-x="1046" d="M68 1163l301 312l94 -125l-168 -238h166v-397h-373zM563 1163l301 312l94 -125l-167 -238h165v-397h-372z" />
<glyph unicode="&#x201d;" horiz-adv-x="1026" d="M82 799l168 237h-166v398h373l20 -449l-301 -311zM580 799l168 237h-166v398h372l21 -449l-301 -311z" />
<glyph unicode="&#x201e;" horiz-adv-x="1060" d="M92 -238l168 238h-166v397h373l20 -448l-301 -311zM588 -238l168 238h-166v397h373l20 -448l-301 -311z" />
<glyph unicode="&#x2020;" horiz-adv-x="1193" d="M49 733v299l410 -35v437h280v-437l408 35v-299l-408 33v-1184h-280v1186z" />
<glyph unicode="&#x2021;" horiz-adv-x="1226" d="M63 197v299l408 -35v307l-408 -35v299l408 -35v437h281v-437l409 35v-299l-409 35v-307l409 35v-299l-409 34v-649h-281v649z" />
<glyph unicode="&#x2022;" horiz-adv-x="968" d="M121 584q0 151 105.5 257.5t256.5 106.5q152 0 259.5 -106.5t107.5 -257.5q0 -152 -107 -257.5t-260 -105.5q-151 0 -256.5 105.5t-105.5 257.5z" />
<glyph unicode="&#x2026;" horiz-adv-x="1619" d="M92 0v397h373v-397h-373zM623 0v397h372v-397h-372zM1153 0v397h373v-397h-373z" />
<glyph unicode="&#x202f;" horiz-adv-x="392" />
<glyph unicode="&#x2030;" horiz-adv-x="2813" d="M53 1071q0 179 100.5 282t288.5 103q187 0 289.5 -103.5t102.5 -281.5t-102 -280.5t-290 -102.5q-189 0 -289 102.5t-100 280.5zM324 1071q0 -158 118 -158q119 0 119 158q0 79 -30.5 119.5t-88.5 40.5q-118 0 -118 -160zM496 0l680 1434h284l-680 -1434h-284zM1126 360 q0 178 101 281.5t289 103.5q187 0 288 -103.5t101 -281.5t-101 -280.5t-288 -102.5q-189 0 -289.5 102.5t-100.5 280.5zM1397 360q0 -157 119 -157q118 0 118 157q0 160 -118 160q-58 0 -88.5 -40.5t-30.5 -119.5zM1982 360q0 178 102 281.5t288 103.5q187 0 289 -103.5 t102 -281.5t-101.5 -280.5t-289.5 -102.5q-186 0 -288 103t-102 280zM2255 360q0 -157 117 -157q120 0 120 157q0 79 -31 119.5t-89 40.5q-117 0 -117 -160z" />
<glyph unicode="&#x2039;" horiz-adv-x="722" d="M47 432v223l578 422v-346l-279 -186l279 -187v-348z" />
<glyph unicode="&#x203a;" horiz-adv-x="722" d="M100 10v346l279 187l-279 186v348l578 -422v-223z" />
<glyph unicode="&#x2044;" horiz-adv-x="454" d="M-219 0l616 1434h279l-617 -1434h-278z" />
<glyph unicode="&#x205f;" horiz-adv-x="490" />
<glyph unicode="&#x2070;" horiz-adv-x="874" d="M51 1219q0 210 98.5 327t286.5 117q186 0 284.5 -117t98.5 -327q0 -212 -98.5 -328.5t-286.5 -116.5q-187 0 -285 116.5t-98 328.5zM311 1219q0 -136 31.5 -190t91.5 -54q61 0 93 54t32 190q0 135 -31.5 189t-91.5 54t-92.5 -54.5t-32.5 -188.5z" />
<glyph unicode="&#x2074;" horiz-adv-x="894" d="M27 930v178l358 541h346v-504h125v-215h-125v-142h-260v142h-444zM285 1145h186v289z" />
<glyph unicode="&#x2075;" horiz-adv-x="806" d="M39 897l113 188q125 -88 227 -88q53 0 84 19.5t31 58.5q0 34 -29 59t-86 25q-71 0 -152 -43l-145 92l45 441h596v-215h-375l-4 -78q55 10 100 10q155 0 234.5 -83.5t79.5 -205.5q0 -128 -87.5 -215.5t-254.5 -87.5q-191 0 -377 123z" />
<glyph unicode="&#x2076;" horiz-adv-x="823" d="M49 1151q0 110 39.5 204.5t110 162.5t172.5 106.5t223 38.5q37 0 72 -3.5t51 -7.5l16 -3l-59 -203q-35 8 -78 8q-186 0 -252 -154q77 48 168 48q118 0 196 -73t78 -194q0 -129 -96 -218t-258 -89q-97 0 -172.5 31t-120.5 84t-67.5 119.5t-22.5 142.5zM311 1110 q1 -38 12.5 -65t30.5 -39.5t36 -17.5t34 -5q52 0 77 26.5t25 59.5q0 39 -29 63.5t-73 24.5q-72 0 -113 -47z" />
<glyph unicode="&#x2077;" horiz-adv-x="690" d="M35 1434v215h637v-203q-12 -15 -32 -41t-71.5 -104t-90.5 -153.5t-71 -176t-32 -183.5h-269q0 80 27.5 172.5t64 165.5t82 145.5t72 107.5t43.5 55h-360z" />
<glyph unicode="&#x2078;" horiz-adv-x="847" d="M43 1028q0 148 172 232q-117 78 -117 188q0 96 84.5 155.5t241.5 59.5q156 0 241 -59.5t85 -155.5q0 -109 -119 -188q174 -83 174 -232q0 -118 -98.5 -186t-282.5 -68q-185 0 -283 68t-98 186zM305 1051q0 -35 32.5 -58.5t86.5 -23.5t85.5 23.5t31.5 58.5q0 34 -30 60 t-87 50q-57 -25 -88 -50.5t-31 -59.5zM350 1421q0 -46 72 -78q74 32 74 78q0 19 -18 36.5t-54 17.5t-55 -17.5t-19 -36.5z" />
<glyph unicode="&#x2079;" horiz-adv-x="819" d="M39 1356q0 129 96 218t256 89q98 0 173.5 -31t120 -85t67 -120.5t22.5 -142.5q0 -109 -39 -203t-109.5 -162t-172.5 -106.5t-224 -38.5q-36 0 -70.5 3.5t-50.5 6.5l-16 4l60 203q34 -8 77 -8q80 0 147.5 35.5t102.5 116.5q-72 -45 -166 -45q-118 0 -196 73t-78 193z M299 1366q0 -39 28 -62.5t72 -23.5q64 0 113 43q-1 39 -12.5 67t-30.5 40.5t-36 18t-34 5.5q-52 0 -76 -26.5t-24 -61.5z" />
<glyph unicode="&#x207a;" horiz-adv-x="706" d="M39 1106v186h223v207h187v-207h221v-186h-221v-209h-187v209h-223z" />
<glyph unicode="&#x207d;" horiz-adv-x="481" d="M76 963v507q0 61 1.5 89.5t10 70.5t27.5 62.5t53.5 47t88.5 44.5t132 35l64 -133q-78 -29 -97.5 -56t-19.5 -88v-651q0 -61 19.5 -88.5t97.5 -54.5l-64 -136q-78 17 -132 35t-88.5 44.5t-53.5 47t-27.5 63t-10 71t-1.5 90.5z" />
<glyph unicode="&#x207e;" horiz-adv-x="483" d="M31 745q78 29 97 56t19 88v651q0 61 -19 88.5t-97 54.5l63 136q67 -15 116 -32t83 -32.5t56 -42t34 -45t17.5 -57.5t6.5 -64t1 -78v-507q0 -52 -1 -77t-6.5 -63.5t-17.5 -57.5t-34 -45t-56 -41.5t-83 -32.5t-116 -32z" />
<glyph unicode="&#x207f;" horiz-adv-x="831" d="M82 788v646h252v-64q111 78 225 78q199 0 199 -209v-451h-252v390q0 37 -11.5 57t-41.5 20q-60 0 -119 -59v-408h-252z" />
<glyph unicode="&#x2080;" horiz-adv-x="874" d="M51 125q0 210 98.5 327t286.5 117q186 0 284.5 -117t98.5 -327q0 -212 -98.5 -328t-286.5 -116q-187 0 -285 116t-98 328zM311 125q0 -136 31.5 -190t91.5 -54q61 0 93 54t32 190q0 135 -31.5 189.5t-91.5 54.5t-92.5 -55t-32.5 -189z" />
<glyph unicode="&#x2081;" horiz-adv-x="667" d="M-4 408l254 145h248v-860h-260v622l-142 -75z" />
<glyph unicode="&#x2082;" horiz-adv-x="802" d="M37 -207q0 201 256 363q23 14 58 34t52.5 30.5t37.5 24.5t28 27t8 27q0 22 -20 37.5t-60 15.5q-81 0 -225 -82l-113 166q185 131 377 131q151 0 229 -73t78 -181q0 -50 -18 -94.5t-41 -74t-63.5 -60t-67.5 -46t-70 -38.5q-125 -64 -125 -92h385v-215h-706v100z" />
<glyph unicode="&#x2083;" horiz-adv-x="796" d="M16 -197l113 174q152 -81 256 -81q98 0 98 61q0 18 -8.5 32t-26 22t-33.5 13t-43 6.5t-41.5 2t-41.5 0.5h-10h-37v215h43h33t34 1.5t38 5.5t29.5 10t24 17.5t7.5 26.5q0 43 -68 43q-51 0 -114 -22.5t-111 -50.5l-105 161q173 127 375 127q142 0 212.5 -60.5t70.5 -154.5 q0 -121 -121 -184q69 -25 114.5 -84t45.5 -131q0 -53 -17 -99.5t-53 -87.5t-103 -64.5t-157 -23.5q-203 0 -404 125z" />
<glyph unicode="&#x2084;" horiz-adv-x="894" d="M27 12l358 541h346v-504h125v-215h-125v-141h-260v141h-444v178zM285 49h186v289z" />
<glyph unicode="&#x2085;" horiz-adv-x="806" d="M39 -199l113 189q125 -88 227 -88q53 0 84 19.5t31 58.5q0 34 -29 58.5t-86 24.5q-71 0 -152 -43l-145 93l45 440h596v-215h-375l-4 -78q55 10 100 10q155 0 234.5 -83t79.5 -205q0 -128 -87.5 -216t-254.5 -88q-191 0 -377 123z" />
<glyph unicode="&#x2086;" horiz-adv-x="821" d="M47 55q0 110 39.5 204.5t110 162.5t172.5 106.5t223 38.5q37 0 72 -3.5t51 -7.5l16 -3l-59 -203q-35 8 -78 8q-186 0 -252 -153q76 47 168 47q118 0 196 -73t78 -193q0 -130 -96 -219t-258 -89q-97 0 -172.5 31t-120.5 84t-67.5 119.5t-22.5 142.5zM309 14 q1 -38 12.5 -65t30.5 -39.5t36 -17.5t34 -5q52 0 77 26.5t25 59.5q0 39 -29 63.5t-73 24.5q-72 0 -113 -47z" />
<glyph unicode="&#x2087;" horiz-adv-x="690" d="M35 338v215h637v-203q-12 -15 -32 -41t-71.5 -104t-90.5 -153.5t-71 -175.5t-32 -183h-269q0 80 27.5 172.5t64 165.5t82.5 145t72 106.5t43 55.5h-360z" />
<glyph unicode="&#x2088;" horiz-adv-x="847" d="M43 -68q0 148 172 232q-117 78 -117 188q0 96 84.5 155.5t241.5 59.5q156 0 241 -59.5t85 -155.5q0 -109 -119 -188q174 -83 174 -232q0 -118 -98.5 -186t-282.5 -68q-185 0 -283 68t-98 186zM305 -45q0 -35 32.5 -58.5t86.5 -23.5t85.5 23.5t31.5 58.5q0 34 -30.5 60.5 t-86.5 50.5q-57 -24 -88 -50.5t-31 -60.5zM350 326q0 -46 72 -78q74 32 74 78q0 19 -18 36t-54 17t-55 -17.5t-19 -35.5z" />
<glyph unicode="&#x2089;" horiz-adv-x="819" d="M39 260q0 129 96 218t256 89q98 0 173.5 -31t120 -85t67 -120.5t22.5 -142.5q0 -109 -39 -203t-109.5 -162t-172.5 -106.5t-224 -38.5q-36 0 -70.5 4t-50.5 8l-16 3l60 203q34 -9 77 -9q80 0 147.5 35.5t102.5 116.5q-72 -45 -166 -45q-118 0 -196 73t-78 193zM299 270 q0 -39 28 -62.5t72 -23.5q64 0 113 43q-1 39 -12.5 67t-30.5 40.5t-36 18t-34 5.5q-52 0 -76 -26.5t-24 -61.5z" />
<glyph unicode="&#x208a;" horiz-adv-x="706" d="M39 10v187h223v206h187v-206h221v-187h-221v-209h-187v209h-223z" />
<glyph unicode="&#x208d;" horiz-adv-x="481" d="M76 -133v508q0 61 1.5 89t10 70.5t27.5 63t53.5 47t88.5 44t132 34.5l64 -133q-78 -29 -97.5 -56t-19.5 -88v-651q0 -61 19.5 -88.5t97.5 -54.5l-64 -135q-78 17 -132 34.5t-88.5 44.5t-53.5 47.5t-27.5 63t-10 70.5t-1.5 90z" />
<glyph unicode="&#x208e;" horiz-adv-x="483" d="M31 -350q78 29 97 55.5t19 87.5v651q0 32 -2.5 49t-14 35.5t-35 31.5t-64.5 28l63 135q78 -17 132 -35t88.5 -44t53.5 -47t28 -63t10.5 -70.5t1.5 -90.5v-508q0 -61 -1.5 -89.5t-10.5 -70t-28 -62.5t-53.5 -47t-88.5 -44t-132 -35z" />
<glyph unicode="&#x20a1;" horiz-adv-x="1099" d="M72 719q0 142 38.5 252t105 175.5t149.5 98.5t178 33q25 0 37 -2l34 158h148l-39 -179l39 -8l41 187h149l-49 -232q25 -9 135 -57l-147 -279q-3 2 -25.5 11.5t-28.5 12.5t-27.5 12t-30 12t-28.5 10.5t-30.5 10.5l-28 8t-29.5 7.5t-26.5 4t-26.5 1.5q-77 0 -116 -63.5 t-39 -173.5t39 -175t116 -65q87 0 281 90l147 -278q-203 -92 -356 -121l-37 -170h-149l32 158q-6 0 -19.5 1t-19.5 1l-34 -160h-148l41 197q-127 56 -201.5 186.5t-74.5 335.5z" />
<glyph unicode="&#x20a4;" horiz-adv-x="1165" d="M92 0v262q6 2 16.5 5t40 17t54.5 32t53 49.5t43 68.5h-186v174h194q-5 25 -26 76h-168v176h75q-53 113 -53 232q0 172 111 268t313 96q88 0 171 -17.5t157 -51.5t116 -58t103 -63l-166 -250q-188 117 -299 117q-57 0 -85 -28t-28 -77q0 -39 16 -76t48 -92h371v-176h-293 q12 -50 14 -76h279v-174h-301q-28 -74 -80 -110h503v-324h-993z" />
<glyph unicode="&#x20a7;" horiz-adv-x="1429" d="M104 881v143h50v410h614q520 0 559 -410h53v-143h-53q-39 -406 -559 -406h-221v-475h-393v881h-50zM547 795h192q72 0 118 18.5t65 67.5h-375v-86zM547 1024h375q-34 86 -183 86h-192v-86z" />
<glyph unicode="&#x20a9;" horiz-adv-x="2050" d="M70 874v213h98l-90 347h442l62 -347h209l79 347h306l77 -347h209l64 347h440l-90 -347h100v-213h-155l-35 -133h190v-215h-245l-136 -526h-378l-195 827l-193 -827h-378l-138 526h-241v215h186l-35 133h-153zM621 874l53 -301l69 301h-122zM1300 874l70 -305l55 305h-125 z" />
<glyph unicode="&#x20ac;" horiz-adv-x="1419" d="M63 477v191h111v88h-111v190h130q45 252 189.5 381t362.5 129q155 0 297.5 -53t317.5 -152l-178 -288q-130 71 -219.5 106t-163.5 35q-135 0 -191 -158h350v-190h-380v-88h380v-191h-346q55 -147 187 -147q74 0 163.5 35t219.5 106l178 -289q-175 -99 -317.5 -152 t-297.5 -53q-215 0 -359.5 126t-190.5 374h-132z" />
<glyph unicode="&#x2116;" horiz-adv-x="2400" d="M139 0v1434h398l438 -789v789h391v-1434h-397l-437 786v-786h-393zM1448 983q0 206 116.5 319t329.5 113q214 0 329.5 -113t115.5 -319q0 -207 -115 -319.5t-330 -112.5q-214 0 -330 112.5t-116 319.5zM1538 262v213h715v-213h-715zM1780 983q0 -91 27 -134.5t87 -43.5 t86.5 43.5t26.5 134.5t-26.5 134.5t-86.5 43.5t-87 -43.5t-27 -134.5z" />
<glyph unicode="&#x2117;" horiz-adv-x="1593" d="M66 717q0 156 49 290.5t140 234.5t230.5 157t311.5 57t311 -57t230 -157t139.5 -234.5t48.5 -290.5t-48.5 -290.5t-139.5 -234.5t-230 -157.5t-311 -57.5t-311.5 57.5t-230.5 157.5t-140 234.5t-49 290.5zM147 717q0 -141 43 -261t123.5 -209.5t204.5 -140.5t277 -51 q154 0 278.5 51t205 140.5t124 209.5t43.5 261t-43.5 261t-124 209.5t-205 140t-278.5 50.5q-153 0 -277 -50.5t-204.5 -140t-123.5 -209.5t-43 -261zM571 285v862h287q299 0 299 -262q0 -264 -299 -264h-186v-336h-101zM672 707h188q197 0 197 178q0 176 -197 176h-188 v-354z" />
<glyph unicode="&#x2120;" horiz-adv-x="1200" d="M68 1036l59 92q37 -19 93 -34t99 -15q60 0 60 25q0 13 -21.5 19.5t-69 15.5t-83.5 22q-127 41 -127 135q0 63 50 104.5t140 41.5q104 0 230 -62l-60 -92q-102 41 -166 41q-55 0 -55 -24q0 -13 18.5 -19.5t65.5 -16.5t84 -22q131 -40 131 -135q0 -62 -53.5 -103.5 t-145.5 -41.5q-122 0 -249 69zM569 975v459h140l125 -240l127 240h141v-459h-135v250l-90 -174h-82l-93 178v-254h-133z" />
<glyph unicode="&#x2122;" horiz-adv-x="1206" d="M100 1319v115h422v-115h-143v-344h-135v344h-144zM565 975v459h142l124 -240l127 240h142v-459h-135v252l-93 -176h-79l-93 178v-254h-135z" />
<glyph unicode="&#x2126;" horiz-adv-x="1513" d="M74 776q0 109 27 208.5t83 185.5t135.5 149.5t192 100t246.5 36.5q133 0 245.5 -36.5t192.5 -100t136 -149.5t83 -185.5t27 -208.5q0 -167 -60.5 -291.5t-150.5 -160.5h172v-324h-596v336q66 14 113.5 52.5t73.5 93.5t38 115.5t12 129.5q0 182 -69.5 288.5t-216.5 106.5 q-99 0 -165 -52t-94 -137.5t-28 -203.5q0 -71 12.5 -132.5t39.5 -115.5t74 -91.5t112 -53.5v-336h-598v324h174q-90 36 -150.5 160.5t-60.5 291.5z" />
<glyph unicode="&#x2153;" horiz-adv-x="1812" d="M39 1288l254 146h248v-861h-260v623l-142 -76zM377 0l616 1434h279l-617 -1434h-278zM1012 111l112 174q154 -82 256 -82q99 0 99 61q0 18 -8.5 32t-26 22t-33.5 13t-43.5 6.5t-42 2t-41.5 0.5h-5.5h-4.5h-37v215h43h33t34 1.5t38 5.5t29.5 10t24 17.5t7.5 26.5 q0 43 -68 43q-51 0 -114 -22.5t-111 -50.5l-104 162q172 126 374 126q142 0 212.5 -60.5t70.5 -154.5q0 -121 -121 -184q69 -25 114.5 -84t45.5 -131q0 -53 -17 -99.5t-53 -87t-103 -64t-157 -23.5q-202 0 -403 125z" />
<glyph unicode="&#x2154;" horiz-adv-x="2023" d="M66 573v101q0 200 256 362q22 14 58 34t53 30.5t37 25t28 27.5t8 27q0 22 -20 37.5t-60 15.5q-81 0 -225 -82l-113 166q185 131 377 131q151 0 229 -73t78 -181q0 -50 -18 -94.5t-41 -74t-63.5 -60t-67.5 -46t-70 -38.5q-125 -64 -125 -93h385v-215h-706zM604 0l617 1434 h278l-616 -1434h-279zM1239 111l113 174q154 -82 256 -82q98 0 98 61q0 18 -8.5 32t-26 22t-33.5 13t-43.5 6.5t-42 2t-41.5 0.5h-5.5h-4.5h-37v215h43h33t34 1.5t38 5.5t29.5 10t24 17.5t7.5 26.5q0 43 -67 43q-51 0 -115 -22.5t-111 -50.5l-104 162q172 126 375 126 q142 0 212 -60.5t70 -154.5q0 -121 -121 -184q69 -25 114.5 -84t45.5 -131q0 -53 -17 -99.5t-53 -87t-103 -64t-157 -23.5q-202 0 -403 125z" />
<glyph unicode="&#x2155;" horiz-adv-x="1835" d="M39 1288l254 146h248v-861h-260v623l-142 -76zM377 0l616 1434h279l-617 -1434h-278zM1036 109l113 188q125 -88 227 -88q53 0 84 19.5t31 58.5q0 34 -29 59t-86 25q-70 0 -151 -43l-146 92l45 440h596v-215h-374l-5 -78q61 11 101 11q79 0 140.5 -24t98.5 -64.5 t55.5 -91.5t18.5 -109q0 -128 -87.5 -215.5t-254.5 -87.5q-191 0 -377 123z" />
<glyph unicode="&#x2156;" horiz-adv-x="2035" d="M61 573v101q0 200 256 362q23 14 58.5 34t53 30.5t37.5 25t28 27.5t8 27q0 22 -20 37.5t-60 15.5q-81 0 -225 -82l-113 166q185 131 377 131q151 0 229 -73t78 -181q0 -50 -18 -94.5t-41 -74t-63.5 -60t-67.5 -46t-70 -38.5q-125 -64 -125 -93h385v-215h-707zM600 0 l617 1434h278l-616 -1434h-279zM1257 109l113 188q125 -88 227 -88q53 0 84 19.5t31 58.5q0 34 -29 59t-86 25q-70 0 -151 -43l-146 92l46 440h596v-215h-375l-4 -78q61 11 100 11q79 0 140.5 -24t98.5 -64.5t55.5 -91.5t18.5 -109q0 -128 -87.5 -215.5t-254.5 -87.5 q-191 0 -377 123z" />
<glyph unicode="&#x2157;" horiz-adv-x="1982" d="M49 684l113 174q154 -82 256 -82q98 0 98 62q0 18 -8 31.5t-26 21.5t-33.5 13t-42.5 6.5t-41 2t-42 0.5h-12h-37v215h43q22 0 33 0.5t34.5 1.5t37.5 5t30 10.5t23.5 18t7.5 26.5q0 43 -67 43q-50 0 -114 -23t-112 -51l-104 162q173 127 375 127q142 0 212 -60.5 t70 -154.5q0 -121 -120 -184q69 -25 114 -84t45 -131q0 -42 -9.5 -80t-34 -74t-61 -62.5t-94 -42.5t-130.5 -16q-203 0 -404 125zM535 0l616 1434h279l-617 -1434h-278zM1194 109l113 188q125 -88 227 -88q53 0 84 19.5t31 58.5q0 34 -29 59t-86 25q-71 0 -152 -43l-145 92 l45 440h596v-215h-375l-4 -78q61 11 100 11q155 0 234.5 -83.5t79.5 -205.5q0 -128 -87.5 -215.5t-254.5 -87.5q-191 0 -377 123z" />
<glyph unicode="&#x2158;" horiz-adv-x="2086" d="M49 715v178l359 541h346v-504h125v-215h-125v-142h-260v142h-445zM307 930h187v289zM641 0l616 1434h279l-616 -1434h-279zM1298 109l113 188q125 -88 227 -88q53 0 84 19.5t31 58.5q0 34 -29 59t-86 25q-70 0 -151 -43l-146 92l45 440h596v-215h-374l-4 -78 q60 11 100 11q79 0 140.5 -24t98.5 -64.5t55.5 -91.5t18.5 -109q0 -128 -87.5 -215.5t-254.5 -87.5q-191 0 -377 123z" />
<glyph unicode="&#x2159;" horiz-adv-x="1773" d="M39 1288l254 146h248v-861h-260v623l-142 -76zM377 0l616 1434h279l-617 -1434h-278zM963 362q0 224 150.5 368t393.5 144q37 0 72 -3.5t51 -6.5l17 -4l-60 -203q-35 9 -78 9q-186 0 -252 -154q76 47 168 47q118 0 196.5 -73t78.5 -193q0 -129 -96 -218t-258 -89 q-97 0 -172.5 30.5t-120.5 84t-67.5 119.5t-22.5 142zM1225 322q1 -38 12.5 -65t30 -39.5t35.5 -17.5t34 -5q52 0 77.5 26.5t25.5 59.5q0 39 -29.5 63.5t-73.5 24.5q-71 0 -112 -47z" />
<glyph unicode="&#x215a;" horiz-adv-x="1894" d="M51 682l113 188q125 -88 227 -88q53 0 84 19.5t31 58.5q0 34 -29 59t-86 25q-70 0 -151 -43l-146 92l45 441h596v-215h-375l-4 -78q55 10 101 10q79 0 140.5 -24t98.5 -64.5t55.5 -91.5t18.5 -109q0 -128 -87.5 -215.5t-254.5 -87.5q-191 0 -377 123zM512 0l616 1434h279 l-616 -1434h-279zM1098 362q0 224 150.5 368t393.5 144q37 0 72 -3.5t52 -6.5l16 -4l-60 -203q-34 9 -77 9q-186 0 -252 -154q76 47 168 47q118 0 196 -73t78 -193q0 -129 -96 -218t-258 -89q-97 0 -172.5 30.5t-120.5 84t-67.5 119.5t-22.5 142zM1360 322q1 -38 12.5 -65 t30.5 -39.5t36 -17.5t34 -5q52 0 77 26.5t25 59.5q0 39 -29 63.5t-73 24.5q-72 0 -113 -47z" />
<glyph unicode="&#x215b;" horiz-adv-x="1824" d="M39 1288l254 146h248v-861h-260v623l-142 -76zM377 0l616 1434h279l-617 -1434h-278zM999 240q0 84 46 138t126 93q-116 77 -116 188q0 96 84 155.5t241 59.5q156 0 241 -59.5t85 -155.5q0 -109 -119 -188q81 -39 127.5 -93t46.5 -138q0 -118 -98.5 -186t-282.5 -68 q-185 0 -283 68t-98 186zM1262 262q0 -35 32 -58.5t86 -23.5t85.5 23.5t31.5 58.5q0 34 -30.5 60.5t-86.5 50.5q-118 -50 -118 -111zM1307 633q0 -47 71 -78q74 32 74 78q0 19 -18 36t-54 17t-54.5 -17t-18.5 -36z" />
<glyph unicode="&#x215c;" horiz-adv-x="1972" d="M49 684l113 174q154 -82 256 -82q98 0 98 62q0 18 -8 31.5t-26 21.5t-33.5 13t-42.5 6.5t-41 2t-42 0.5h-12h-37v215h43q22 0 33 0.5t34.5 1.5t37.5 5t30 10.5t23.5 18t7.5 26.5q0 43 -67 43q-50 0 -114 -23t-112 -51l-104 162q173 127 375 127q142 0 212 -60.5 t70 -154.5q0 -121 -120 -184q69 -25 114 -84t45 -131q0 -42 -9.5 -80t-34 -74t-61 -62.5t-94 -42.5t-130.5 -16q-203 0 -404 125zM535 0l616 1434h279l-617 -1434h-278zM1159 240q0 84 46 138t126 93q-117 78 -117 188q0 96 84.5 155.5t241.5 59.5q156 0 241 -59.5 t85 -155.5q0 -109 -119 -188q81 -39 127.5 -93t46.5 -138q0 -118 -98.5 -186t-282.5 -68q-185 0 -283 68t-98 186zM1421 262q0 -35 32.5 -58.5t86.5 -23.5t85.5 23.5t31.5 58.5q0 34 -30.5 60.5t-86.5 50.5q-57 -24 -88 -50.5t-31 -60.5zM1466 633q0 -46 72 -78q74 32 74 78 q0 19 -18 36t-54 17t-55 -17.5t-19 -35.5z" />
<glyph unicode="&#x215d;" horiz-adv-x="1945" d="M51 682l113 188q125 -88 227 -88q53 0 84 19.5t31 58.5q0 34 -29 59t-86 25q-70 0 -151 -43l-146 92l45 441h596v-215h-375l-4 -78q55 10 101 10q79 0 140.5 -24t98.5 -64.5t55.5 -91.5t18.5 -109q0 -128 -87.5 -215.5t-254.5 -87.5q-191 0 -377 123zM512 0l616 1434h279 l-616 -1434h-279zM1135 240q0 84 46 138t126 93q-117 78 -117 188q0 96 84.5 155.5t241.5 59.5q156 0 240.5 -59.5t84.5 -155.5q0 -109 -119 -188q81 -39 127.5 -93t46.5 -138q0 -118 -98 -186t-282 -68q-185 0 -283 68t-98 186zM1397 262q0 -35 32.5 -58.5t86.5 -23.5 t85 23.5t31 58.5q0 62 -116 111q-57 -24 -88 -50.5t-31 -60.5zM1442 633q0 -47 71 -78q74 32 74 78q0 19 -17.5 36t-53.5 17t-55 -17.5t-19 -35.5z" />
<glyph unicode="&#x215e;" horiz-adv-x="1769" d="M57 1219v215h637v-203q-12 -15 -32 -41t-71.5 -104t-90.5 -153.5t-71 -176t-32 -183.5h-268q0 80 27.5 172.5t64 165.5t82 145.5t72 107.5t43.5 55h-361zM336 0l616 1434h279l-617 -1434h-278zM958 240q0 84 46 138t126 93q-116 77 -116 188q0 96 84 155.5t241 59.5 q156 0 241 -59.5t85 -155.5q0 -109 -119 -188q81 -39 127.5 -93t46.5 -138q0 -118 -98.5 -186t-282.5 -68q-185 0 -283 68t-98 186zM1221 262q0 -35 32 -58.5t86 -23.5t85.5 23.5t31.5 58.5q0 34 -30.5 60.5t-86.5 50.5q-118 -50 -118 -111zM1266 633q0 -47 71 -78 q74 32 74 78q0 19 -18 36t-54 17t-54.5 -17t-18.5 -36z" />
<glyph unicode="&#x2202;" horiz-adv-x="1275" d="M61 477q0 222 132 360t329 138q59 0 111.5 -13.5t85.5 -32t57 -37.5t34 -32l11 -14q-37 136 -158 214.5t-301 78.5q-44 0 -85 -4.5t-61 -8.5l-19 -4l-39 289q78 23 215 23q164 0 301.5 -43.5t234 -119.5t164 -181t99.5 -227t32 -257q0 -297 -154 -463t-436 -166 q-258 0 -405.5 135t-147.5 365zM455 475q0 -41 8 -75.5t27.5 -66.5t58 -50.5t92.5 -18.5t93 18t58.5 50t28 66.5t8.5 76.5t-8.5 77t-28 67t-58.5 50.5t-93 18.5t-92.5 -18.5t-58 -51t-27.5 -67.5t-8 -76z" />
<glyph unicode="&#x2206;" horiz-adv-x="1470" d="M31 0l499 1434h408l502 -1434h-1409zM483 324h502l-250 735z" />
<glyph unicode="&#x220f;" horiz-adv-x="1443" d="M57 1110v324h1329v-324h-161v-1110h-394v1110h-221v-1110h-393v1110h-160z" />
<glyph unicode="&#x2211;" horiz-adv-x="1208" d="M61 0v160l492 557l-492 559v158h1061v-324h-469l346 -393l-346 -393h469v-324h-1061z" />
<glyph unicode="&#x2212;" horiz-adv-x="1292" d="M147 543v280h998v-280h-998z" />
<glyph unicode="&#x221a;" horiz-adv-x="1304" d="M-4 696h403l150 -362l395 1100h393l-551 -1434h-458z" />
<glyph unicode="&#x221e;" horiz-adv-x="1746" d="M80 528q0 167 100.5 273t270.5 106q118 0 214.5 -55.5t211.5 -165.5q116 111 209.5 166t211.5 55q171 0 271 -105.5t100 -273.5t-100 -273t-271 -105q-62 0 -116.5 15.5t-108 49t-95 67t-101.5 89.5q-116 -111 -212 -166t-214 -55q-170 0 -270.5 105.5t-100.5 272.5z M350 528q0 -65 42.5 -101t101.5 -36q50 0 96 30.5t125 106.5q-84 79 -127.5 108.5t-93.5 29.5q-60 0 -102 -36.5t-42 -101.5zM1036 526q73 -73 120 -104t99 -31q59 0 101.5 36t42.5 101t-42.5 101.5t-101.5 36.5q-50 0 -94 -30t-125 -110z" />
<glyph unicode="&#x222b;" horiz-adv-x="776" d="M14 -88h37q29 0 52 10t38 24t25 39t15.5 45t8 53.5t3 53t0.5 53.5v1070q0 134 28.5 221t95 140.5t165.5 75t249 21.5h33v-205h-35q-34 0 -59.5 -11.5t-40.5 -35t-24.5 -46.5t-13 -60.5t-4.5 -61.5t-1 -63v-1069q0 -135 -28.5 -222.5t-95 -140.5t-165 -74.5t-248.5 -21.5 h-35v205z" />
<glyph unicode="&#x2248;" horiz-adv-x="1292" d="M147 410q51 137 126 214.5t188 77.5q53 0 107.5 -20t92 -43.5t85 -43.5t88.5 -20q38 0 69 22t68 89l174 -70q-52 -138 -127 -215t-189 -77q-49 0 -102.5 20t-93.5 43.5t-89 43.5t-89 20q-37 0 -66.5 -22.5t-66.5 -90.5zM147 805q51 137 126 215t188 78q53 0 107.5 -20 t92 -43.5t85 -43.5t88.5 -20q38 0 69 22.5t68 89.5l174 -71q-52 -138 -127.5 -215.5t-188.5 -77.5q-49 0 -102.5 20t-93.5 43.5t-89 43.5t-89 20q-37 0 -66.5 -22.5t-66.5 -90.5z" />
<glyph unicode="&#x2260;" horiz-adv-x="1292" d="M147 344v281h338l47 120h-385v281h494l104 266l234 -88l-70 -178h236v-281h-344l-47 -120h391v-281h-500l-102 -266l-234 88l68 178h-230z" />
<glyph unicode="&#x2264;" horiz-adv-x="1292" d="M129 0v238h995v-238h-995zM129 639v217l995 358v-313l-503 -156l503 -157v-307z" />
<glyph unicode="&#x2265;" horiz-adv-x="1292" d="M168 0v238h995v-238h-995zM168 281v307l502 157l-502 156v313l993 -358v-217z" />
<glyph unicode="&#x2318;" horiz-adv-x="1445" d="M84 377q0 123 86 209t209 86h94v96h-94q-123 0 -209 86.5t-86 208.5q0 123 86 209t209 86t209 -86t86 -209v-94h96v94q0 123 86 209t209 86t209 -86t86 -209q0 -122 -86 -208.5t-209 -86.5h-94v-96h94q123 0 209 -86t86 -209q0 -122 -86 -208.5t-209 -86.5t-209 86.5 t-86 208.5v94h-96v-94q0 -122 -86 -208.5t-209 -86.5t-209 86.5t-86 208.5zM285 377q0 -40 27 -67t67 -27q39 0 66.5 27.5t27.5 66.5v94h-94q-39 0 -66.5 -27.5t-27.5 -66.5zM285 1063q0 -40 27 -67t67 -27h94v94q0 38 -28 66t-66 28q-39 0 -66.5 -27.5t-27.5 -66.5z M674 672h96v96h-96v-96zM971 377q0 -40 27 -67t67 -27q39 0 66.5 27.5t27.5 66.5q0 38 -28 66t-66 28h-94v-94zM971 969h94q39 0 66.5 27.5t27.5 66.5q0 38 -28 66t-66 28q-39 0 -66.5 -27.5t-27.5 -66.5v-94z" />
<glyph unicode="&#x25ca;" horiz-adv-x="1183" d="M53 717l353 717h374l353 -717l-353 -717h-374zM406 717l186 -379l190 379l-190 377z" />
<glyph unicode="&#xe000;" horiz-adv-x="1075" d="M0 0v1075h1075v-1075h-1075z" />
<glyph unicode="&#xf639;" horiz-adv-x="1363" d="M80 717q0 352 155 545.5t449 193.5q293 0 447.5 -193.5t154.5 -545.5t-155.5 -546t-448.5 -194t-447.5 193.5t-154.5 546.5zM477 717q0 -234 53 -336t152 -102q100 0 154.5 102t54.5 336q0 233 -53.5 334.5t-153.5 101.5t-153.5 -101t-53.5 -335z" />
<glyph unicode="&#xf63a;" horiz-adv-x="1363" d="M117 0v160q0 103 34.5 194.5t98 166.5t127.5 129t149 112q31 20 78.5 50t72.5 46t57 39.5t47 41t26.5 40t11.5 45.5q0 46 -36 77.5t-105 31.5q-128 0 -356 -136l-170 252q276 207 587 207q120 0 213.5 -33t150 -90.5t85.5 -131t29 -159.5q0 -42 -6 -81t-21 -74t-29 -64.5 t-40 -59.5t-45 -52t-53 -48.5t-54 -42t-58 -39.5t-55 -34.5t-55 -32.5q-51 -31 -77.5 -49t-61.5 -45t-50.5 -50.5t-15.5 -45.5h623v-324h-1102z" />
<glyph unicode="&#xf63b;" horiz-adv-x="1363" d="M88 174l170 264q252 -133 406 -133q82 0 126 33t44 96q0 42 -24.5 72.5t-58 45.5t-85 24t-87 10.5t-83.5 1.5h-58v325h68q272 0 272 125q0 95 -119 95q-80 0 -176.5 -37t-177.5 -84l-158 243q271 201 578 201q114 0 202 -28t140 -77.5t78 -111.5t26 -135 q0 -204 -196 -313q111 -41 182.5 -140t71.5 -223q0 -70 -15.5 -132t-53 -121.5t-94.5 -102.5t-147 -69t-204 -26q-322 0 -627 197z" />
<glyph unicode="&#xf63c;" horiz-adv-x="1363" d="M45 250v268l576 916h495v-861h182v-323h-182v-250h-383v250h-688zM410 573h323v521z" />
<glyph unicode="&#xf63d;" horiz-adv-x="1363" d="M113 172l172 283q42 -29 68.5 -45t78.5 -43.5t104.5 -41.5t104.5 -14q87 0 141 43t54 119q0 71 -48.5 119.5t-146.5 48.5q-62 0 -118 -19t-126 -55l-217 138l72 729h928v-324h-594l-11 -172q80 18 166 18q123 0 219.5 -39.5t154.5 -107.5t88 -153t30 -181 q0 -100 -33 -188t-97 -158t-169 -111t-240 -41q-96 0 -190 20t-170 53.5t-126.5 62t-94.5 59.5z" />
<glyph unicode="&#xf63e;" horiz-adv-x="1363" d="M115 596q0 255 106.5 450.5t300 302.5t445.5 107q57 0 111 -5.5t79 -10.5l25 -6l-90 -306q-53 11 -123 11q-64 0 -122 -15t-115 -47.5t-103.5 -93.5t-75.5 -145q122 92 281 92q188 0 311 -123t123 -324q0 -103 -38.5 -194.5t-108 -161t-175 -110t-231.5 -40.5 q-122 0 -223 34t-169.5 92.5t-116 138t-69 168.5t-22.5 186zM512 545q1 -67 20 -118.5t49 -78.5t61.5 -40t62.5 -13q87 0 128 51t41 121q0 76 -48 125t-124 49q-108 0 -190 -96z" />
<glyph unicode="&#xf63f;" horiz-adv-x="1363" d="M193 1110v324h999v-304q-10 -13 -27 -36t-66 -96.5t-94 -149t-99.5 -185t-93.5 -212.5t-66 -224t-27 -227h-406q0 140 45.5 303.5t103 287.5t133.5 251.5t112.5 179t64.5 88.5h-579z" />
<glyph unicode="&#xf640;" horiz-adv-x="1363" d="M86 395q0 73 22 134t63 107.5t88 81t108 64.5q-195 127 -195 318q0 159 132.5 257.5t377.5 98.5q243 0 375.5 -98.5t132.5 -257.5q0 -189 -195 -318q61 -30 108 -64.5t88 -81t63 -107.5t22 -134q0 -195 -153.5 -306.5t-440.5 -111.5t-441.5 111.5t-154.5 306.5zM483 426 q0 -68 54.5 -112t144.5 -44q89 0 143 44.5t54 111.5q0 65 -51.5 113.5t-147.5 93.5q-95 -45 -146 -93.5t-51 -113.5zM555 1061q0 -89 125 -150q127 60 127 150q0 42 -32.5 77.5t-92.5 35.5q-62 0 -94.5 -35.5t-32.5 -77.5z" />
<glyph unicode="&#xf641;" horiz-adv-x="1363" d="M94 950q0 103 38 194.5t107.5 161t175 110t232.5 40.5q122 0 222.5 -34t169 -92t116 -137.5t69 -168.5t21.5 -186q0 -191 -62 -352t-173 -272.5t-269 -174t-346 -62.5q-58 0 -112.5 5.5t-79.5 11.5l-25 6l90 305q55 -10 123 -10q63 0 121 14.5t115 47t103.5 93 t74.5 144.5q-119 -90 -279 -90q-186 0 -309 123t-123 323zM487 967q0 -76 47.5 -125t124.5 -49q109 0 189 94q-1 67 -19.5 118.5t-48 79t-60.5 41t-61 13.5q-88 0 -130 -51.5t-42 -120.5z" />
<glyph unicode="&#xf6c3;" horiz-adv-x="303" d="M6 -553l117 168h-115v276h260l15 -311l-209 -219z" />
<glyph unicode="&#xf6dc;" horiz-adv-x="1363" d="M117 0v324h389v751l-238 -137l-151 254l407 242h375v-1110h391v-324h-1173z" />
<glyph unicode="&#xf6df;" horiz-adv-x="702" d="M49 123q0 163 80.5 247t202.5 89v94h174v-117q68 -17 160 -55l-97 -184q-113 49 -174 49q-90 0 -90 -123t90 -123q61 0 174 49l97 -186q-98 -40 -160 -56v-114h-174v94q-124 7 -203.5 90.5t-79.5 245.5z" />
<glyph unicode="&#xf6e0;" horiz-adv-x="700" d="M49 1219q0 163 80 246.5t203 88.5v95h174v-117q68 -17 160 -55l-97 -185q-113 49 -174 49q-90 0 -90 -122q0 -123 90 -123q61 0 174 49l97 -187q-92 -38 -160 -55v-115h-174v95q-124 7 -203.5 90.5t-79.5 245.5z" />
<glyph unicode="&#xf6e1;" horiz-adv-x="399" d="M72 -51h245l15 -291l-197 -193l-63 82l110 146h-110v256z" />
<glyph unicode="&#xf6e2;" horiz-adv-x="399" d="M74 643l110 145h-110v256h245l15 -290l-197 -193z" />
<glyph unicode="&#xf6e3;" horiz-adv-x="817" d="M27 -195l114 185q60 -34 151 -65t150 -31q70 0 70 38q0 25 -33 38.5t-108 31.5t-131 41q-80 33 -137.5 94.5t-57.5 155.5q0 111 72 185.5t211 86.5v113h176v-123q128 -21 262 -86l-115 -186q-53 25 -129.5 47t-128.5 22q-74 0 -74 -41q0 -24 32 -36.5t107.5 -30.5 t133.5 -41q196 -81 196 -246q0 -112 -73.5 -188t-210.5 -88v-111h-176v121q-163 26 -301 114z" />
<glyph unicode="&#xf6e4;" horiz-adv-x="817" d="M27 901l114 184q60 -34 151 -65t150 -31q70 0 70 39q0 25 -33 38.5t-108 31.5t-131 41q-80 33 -137.5 94.5t-57.5 155.5q0 111 72 185.5t211 86.5v113h176v-123q128 -21 262 -86l-115 -187q-53 25 -129.5 47.5t-128.5 22.5q-74 0 -74 -41q0 -24 32 -37t107.5 -31 t133.5 -41q196 -81 196 -245q0 -113 -73 -189t-211 -88v-110h-176v118q-173 32 -301 117z" />
<glyph unicode="&#xf6e7;" horiz-adv-x="393" d="M72 -51h247v-256h-247v256z" />
<glyph unicode="&#xf6e8;" horiz-adv-x="395" d="M74 788v256h248v-256h-248z" />
<glyph unicode="&#xf6e9;" horiz-adv-x="784" d="M29 991q0 94 65.5 150.5t177.5 56.5q55 0 187 -27v25q0 37 -19.5 50.5t-68.5 13.5q-86 0 -226 -41l-75 167q200 62 352 62q158 0 223.5 -61.5t65.5 -208.5v-390h-252v66q-91 -80 -205 -80q-105 0 -165 62.5t-60 154.5zM283 1016q0 -51 59 -51q65 0 117 43v45 q-77 16 -105 16q-71 0 -71 -53z" />
<glyph unicode="&#xf6ea;" horiz-adv-x="819" d="M82 788v895h252v-309q46 37 90 55.5t106 18.5q118 0 184 -88t66 -250q0 -159 -66.5 -247.5t-183.5 -88.5q-61 0 -105.5 18t-90.5 54v-58h-252zM334 1034q49 -59 110 -59q82 0 82 137q0 135 -82 135q-59 0 -110 -61v-152z" />
<glyph unicode="&#xf6eb;" horiz-adv-x="819" d="M39 1110q0 161 66.5 249.5t183.5 88.5q60 0 104.5 -18.5t91.5 -55.5v309h252v-895h-252v58q-92 -72 -196 -72q-116 0 -183 88.5t-67 247.5zM293 1112q0 -137 82 -137q59 0 110 59v152q-53 61 -110 61q-82 0 -82 -135z" />
<glyph unicode="&#xf6ec;" horiz-adv-x="735" d="M35 1108q0 160 87.5 250t250.5 90q158 0 240.5 -80.5t82.5 -210.5q0 -24 -3 -48t-6 -36l-3 -12h-393q5 -54 27 -78.5t69 -24.5q87 0 227 70l86 -154q-31 -19 -71 -38t-118 -40.5t-151 -21.5q-146 0 -235.5 83t-89.5 251zM293 1186h162q-7 88 -80 88q-70 0 -82 -88z" />
<glyph unicode="&#xf6ed;" horiz-adv-x="415" d="M78 1493v188h258v-188h-258zM82 788v646h252v-646h-252z" />
<glyph unicode="&#xf6ee;" horiz-adv-x="415" d="M82 788v895h252v-895h-252z" />
<glyph unicode="&#xf6ef;" horiz-adv-x="1196" d="M82 788v646h252v-70q93 84 196 84q137 0 179 -102q40 40 97 71t118 31q198 0 198 -209v-451h-252v390q0 40 -8.5 58.5t-38.5 18.5q-45 0 -94 -53v-414h-252v390q0 39 -9.5 58t-39.5 19q-47 0 -94 -55v-412h-252z" />
<glyph unicode="&#xf6f0;" horiz-adv-x="778" d="M35 1112q0 160 92.5 248t265.5 88q170 0 261 -88t91 -250t-91 -249t-261 -87q-173 0 -265.5 88t-92.5 250zM287 1112q0 -147 106 -147q101 0 101 145q0 147 -101 147q-106 0 -106 -145z" />
<glyph unicode="&#xf6f1;" horiz-adv-x="583" d="M82 788v646h252v-134q8 22 22 43.5t40 47.5t69.5 40.5t97.5 10.5v-238q-59 0 -104 -21.5t-67.5 -52t-36.5 -60.5t-17 -52l-4 -21v-209h-252z" />
<glyph unicode="&#xf6f2;" horiz-adv-x="698" d="M27 862l86 160q57 -27 136 -50.5t124 -23.5t45 23q0 12 -20 19.5t-67.5 16.5t-70.5 15q-221 57 -221 217q0 91 69 150t201 59q160 0 332 -74l-86 -147q-140 49 -219 49q-45 0 -45 -23q0 -13 16 -20t66 -16.5t76 -16.5q219 -57 219 -219q0 -93 -70.5 -150t-206.5 -57 q-94 0 -196 27t-168 61z" />
<glyph unicode="&#xf6f3;" horiz-adv-x="579" d="M23 1251v183h83v161l252 25v-186h166v-183h-166v-202q0 -56 45 -56q12 0 28 5t32 12t18 8l84 -184q-128 -60 -233 -60q-118 0 -172 68.5t-54 204.5v204h-83z" />
<glyph unicode="&#xf8ff;" horiz-adv-x="1755" d="M146.5 560.5q-2.5 11.5 15.5 21.5l57 41q2 1 3.5 2.5l3 3l2.5 2.5t2 3l1 1q19 16 37 -12l33 -64q6 -12 13.5 -15.5t14 2t9.5 17.5l18 70q4 19 18.5 21t26.5 -13l48 -53q14 -15 23 -11.5t11 23.5l4 70q3 20 15.5 25t27.5 -7l58 -43q17 -12 25.5 -6.5t4.5 25.5l-8 69 q-3 20 8.5 28t28.5 -1l64 -29q19 -9 26.5 -1.5t1.5 26.5l-22 67q-8 19 0.5 29t27.5 4l15 -2q40 -77 70 -202.5t30 -217.5q-15 -18 -34.5 -27.5t-59.5 -9.5h-8q0 46 -33 72q18 -21 18 -55v-15q-32 3 -32 39q0 43 -28 72t-77 29q-41 0 -68.5 -32t-27.5 -79q0 -60 49.5 -96.5 t138.5 -36.5q85 0 172 42t156.5 112t125 154.5t86 175.5t30.5 169q0 59 -36.5 98t-94.5 39q-48 0 -85.5 -33.5t-37.5 -84.5q0 -106 119 -119q-29 -119 -60 -174q-12 96 -43.5 178t-75.5 129q91 -120 107 -330l-29 -41q0 156 -51 287t-131 172q-5 9 2 18.5t22 12.5l70 12 q19 3 21 13.5t-15 21.5l-59 39q-15 13 -13.5 26.5t19.5 20.5l64 29q14 4 19 10t0 13t-19 13l-64 27q-23 10 -20 29q11 6 14 16l35 62q9 19 20.5 18t16.5 -20l20 -68q6 -21 18.5 -24t26.5 14l47 53q12 15 23 12.5t12 -22.5l4 -72q1 -21 14.5 -26t28.5 8l57 43q15 12 24 5.5 t7 -26.5l-10 -70q-1 -20 10.5 -27.5t28.5 1.5l63 33q19 8 26.5 0t0.5 -29l-23 -64q-6 -20 3 -30t28 -4l70 14q20 6 26.5 -2t-4.5 -27l-37 -59q-12 -17 -5.5 -29.5t26.5 -11.5l72 4q21 0 25 -11t-9 -24l-49 -53q-14 -13 -10.5 -26.5t24.5 -16.5l70 -12q43 -10 6 -39l-57 -39 q-16 -10 -15 -24t21 -21l63 -27q12 -5 16.5 -12t0 -13.5t-16.5 -11.5l-63 -26q-20 -7 -21 -22t15 -25l57 -41q11 -7 14.5 -14.5t-2 -13.5t-18.5 -9l-70 -13q-21 -3 -24.5 -16.5t10.5 -28.5l49 -49q13 -14 9 -24.5t-25 -10.5l-72 5q-20 0 -26.5 -12t5.5 -29l37 -62 q10 -17 4 -25.5t-26 -5.5l-70 19q-19 4 -28 -6t-3 -29l23 -68q8 -19 0 -26t-27 2l-63 31q-17 9 -28.5 1t-10.5 -30l10 -68q1 -21 -7.5 -25.5t-23.5 7.5l-57 43q-15 12 -28.5 5.5t-14.5 -26.5l-4 -69q-1 -20 -12 -23t-23 11l-47 55q-13 14 -26 12t-19 -22l-20 -68 q-3 -13 -9.5 -18t-14 -1t-13.5 15l-35 61q-9 19 -22 19t-25 -19l-31 -61q-6 -11 -13.5 -15t-14 1t-9.5 18l-20 68q-6 20 -19 22t-26 -12l-47 -55q-12 -14 -22 -11t-13 23l-4 69q-2 20 -15 26.5t-30 -5.5l-54 -43q-17 -13 -26.5 -8t-5.5 26l10 68q1 22 -10.5 30t-30.5 -1 l-62 -31q-19 -9 -26.5 -2t0.5 26l22 68q7 19 -2 29.5t-28 5.5l-70 -19q-20 -3 -26.5 5.5t3.5 25.5l39 62q11 17 4.5 29t-26.5 12l-72 -5q-21 0 -25 10.5t9 24.5l51 49q13 15 9 28.5t-25 16.5l-68 13q-21 4 -23.5 15.5zM623 281q43 -27 122 -27q106 0 212.5 65t183.5 162 t125.5 212t48.5 214q0 63 -41 101q24 -38 24 -84q0 -100 -47.5 -215t-126.5 -215q-85 -105 -188.5 -168.5t-212.5 -63.5q-57 0 -100 19z" />
<glyph unicode="&#xfb06;" horiz-adv-x="1933" d="M31 121l141 264q86 -45 212 -84t198 -39q69 0 69 33q0 18 -11.5 31t-39.5 24t-51 18t-72 19t-76 19q-350 96 -350 356q0 149 108 242.5t314 93.5q121 0 256 -33q-10 36 -10 96q0 147 108 239.5t299 92.5q230 0 356 -108t126 -302v-8h268v-274h-268v-402q0 -31 7 -51.5 t19.5 -29t23 -11t25.5 -2.5q48 0 129 45l130 -278q-200 -95 -367 -95q-179 0 -261.5 104.5t-82.5 319.5v400h-135v274h135v31q0 119 -38.5 173t-129.5 54q-75 0 -128.5 -52t-53.5 -140q0 -77 20 -127q26 -10 88 -37l-143 -244q-75 32 -178 58t-168 26q-70 0 -70 -37 q0 -18 11 -30.5t37.5 -22.5t51.5 -16.5t71 -17.5t79 -21q354 -92 354 -359q0 -154 -111 -245t-325 -91q-149 0 -307.5 43.5t-259.5 100.5z" />
<glyph horiz-adv-x="823" d="M41 1141q0 129 96 218t256 89q98 0 173.5 -31t120 -85t67 -120.5t22.5 -142.5q0 -109 -39 -203t-109.5 -162t-172.5 -106.5t-224 -38.5q-36 0 -70.5 3.5t-50.5 7.5l-16 3l60 203q34 -8 77 -8q80 0 147.5 35.5t102.5 116.5q-74 -46 -166 -46q-118 0 -196 73t-78 194z M301 1151q0 -39 28 -62.5t72 -23.5q64 0 113 43q-1 39 -12.5 67t-30.5 40.5t-36 18t-34 5.5q-52 0 -76 -26.5t-24 -61.5z" />
<glyph horiz-adv-x="1216" d="M20 1432q0 109 62 170t184 61q123 0 186.5 -61.5t63.5 -169.5t-63.5 -169t-186.5 -61q-122 0 -184 61t-62 169zM199 1432q0 -44 16.5 -63t50.5 -19q72 0 72 82q0 84 -72 84q-67 0 -67 -84zM293 774l434 875h188l-434 -875h-188zM698 1006q0 108 63 168.5t185 60.5 q123 0 185.5 -60.5t62.5 -168.5q0 -110 -62.5 -171t-185.5 -61q-122 0 -185 61t-63 171zM879 1006q0 -84 67 -84q70 0 70 84q0 81 -70 81q-67 0 -67 -81z" />
<glyph horiz-adv-x="2693" d="M31 801v274h135q5 199 95 298.5t276 99.5q202 0 442 -87q90 107 283 107q163 0 356 -57v57h377v-760l231 342h436l-342 -424l398 -651h-398l-221 375l-104 -131v-244h-377v1147q-8 1 -47.5 9t-70.5 14t-71 11t-65 5q-19 0 -32.5 -2.5t-29.5 -11t-25 -29t-9 -51.5v-17h231 v-274h-231v-801h-377v801h-348v-801h-377v801h-135zM543 1075h348q0 49 2 72q-8 1 -47.5 9t-70.5 14t-71 11t-65 5q-19 0 -32.5 -2.5t-29.5 -11t-25 -29t-9 -51.5v-17z" />
<glyph horiz-adv-x="2103" d="M31 801v274h135q5 199 95 298.5t276 99.5q202 0 442 -87q90 107 283 107q163 0 356 -57v57h377v-1493h-377v1147q-8 1 -47.5 9t-70.5 14t-71 11t-65 5q-19 0 -32.5 -2.5t-29.5 -11t-25 -29t-9 -51.5v-17h231v-274h-231v-801h-377v801h-348v-801h-377v801h-135zM543 1075 h348q0 49 2 72q-8 1 -47.5 9t-70.5 14t-71 11t-65 5q-19 0 -32.5 -2.5t-29.5 -11t-25 -29t-9 -51.5v-17z" />
<glyph horiz-adv-x="2328" d="M31 801v274h135q5 199 95 298.5t276 99.5q200 0 432 -84q85 104 264 104q174 0 377 -94l-125 -252q-24 10 -72.5 24.5t-73.5 14.5q-15 0 -25.5 -2.5t-23 -11t-19.5 -29t-7 -51.5v-17h362v271l379 40v-311h266v-274h-266v-402q0 -31 6.5 -51.5t19 -29t23 -11t25.5 -2.5 q48 0 129 45l129 -278q-200 -95 -363 -95q-182 0 -265 104.5t-83 319.5v400h-362v-801h-377v801h-344v-801h-377v801h-135zM543 1075h344q0 49 2 72q-191 39 -250 39q-19 0 -32.5 -2.5t-29.5 -11t-25 -29t-9 -51.5v-17z" />
<glyph horiz-adv-x="2033" d="M31 801v274h135q2 210 91 314t280 104q169 0 356 -59v59h377v-530q90 63 176 99t188 36q158 0 235 -88.5t77 -255.5v-754h-379v664q0 70 -19.5 106.5t-72.5 36.5q-50 0 -104.5 -32t-100.5 -81v-694h-377v1147q-8 1 -47.5 9t-70.5 14t-71 11t-65 5q-19 0 -32.5 -2.5 t-29.5 -11t-25 -29t-9 -51.5v-17h231v-274h-231v-801h-377v801h-135z" />
<glyph horiz-adv-x="2025" d="M31 801v274h135q5 199 95 298.5t276 99.5q203 0 444 -89q95 109 297 109q241 0 510 -94l-119 -252q-10 2 -54 9.5t-79.5 13.5t-80.5 11t-73 5q-17 0 -29.5 -1t-29.5 -6.5t-28 -15t-19 -28t-8 -43.5v-17h663v-1075h-379v801h-284v-801h-377v801h-348v-801h-377v801h-135z M543 1075h348q0 49 2 72q-8 1 -47.5 9t-70.5 14t-71 11t-65 5q-19 0 -32.5 -2.5t-29.5 -11t-25 -29t-9 -51.5v-17z" />
<glyph horiz-adv-x="1300" d="M31 801v274h135q2 210 95.5 314t291.5 104q241 0 510 -94l-119 -252q-10 2 -54 9.5t-79.5 13.5t-80.5 11t-73 5q-22 0 -38.5 -2.5t-35.5 -11t-29.5 -29t-10.5 -51.5v-17h663v-1075h-379v801h-284v-801h-377v801h-135z" />
<glyph horiz-adv-x="1300" d="M31 801v274h135q2 210 95.5 314t291.5 104q241 0 510 -94l-119 -252q-10 2 -54 9.5t-79.5 13.5t-80.5 11t-73 5q-22 0 -38.5 -2.5t-35.5 -11t-29.5 -29t-10.5 -51.5v-17h663v-1001q0 -84 -1.5 -123t-9.5 -100.5t-26.5 -90.5t-52 -70.5t-85.5 -66.5t-127 -52t-177 -50 l-119 270q57 21 92.5 36t61.5 34t38 31.5t18.5 40t7.5 47t1 63.5v758h-284v-801h-377v801h-135z" />
<glyph horiz-adv-x="1968" d="M31 801v274h135q2 210 91 314t280 104q169 0 356 -59v59h377v-760l231 342h436l-342 -424l398 -651h-398l-221 375l-104 -131v-244h-377v1147q-8 1 -47.5 9t-70.5 14t-71 11t-65 5q-19 0 -32.5 -2.5t-29.5 -11t-25 -29t-9 -51.5v-17h231v-274h-231v-801h-377v801h-135z " />
<glyph horiz-adv-x="2758" d="M31 801v274h135q5 199 95 298.5t276 99.5q202 0 442 -87q90 107 283 107q163 0 356 -57v57h377v-530q90 63 176 99t188 36q312 0 312 -344v-754h-379v664q0 70 -19.5 106.5t-72.5 36.5q-50 0 -104.5 -32t-100.5 -81v-694h-377v1147q-8 1 -47.5 9t-70.5 14t-71 11t-65 5 q-19 0 -32.5 -2.5t-29.5 -11t-25 -29t-9 -51.5v-17h231v-274h-231v-801h-377v801h-348v-801h-377v801h-135zM543 1075h348q0 49 2 72q-8 1 -47.5 9t-70.5 14t-71 11t-65 5q-19 0 -32.5 -2.5t-29.5 -11t-25 -29t-9 -51.5v-17z" />
<glyph horiz-adv-x="1378" d="M31 801v274h135q2 210 91 314t280 104q169 0 356 -59v59h377v-1493h-377v1147q-8 1 -47.5 9t-70.5 14t-71 11t-65 5q-19 0 -32.5 -2.5t-29.5 -11t-25 -29t-9 -51.5v-17h231v-274h-231v-801h-377v801h-135z" />
<glyph horiz-adv-x="1607" d="M31 801v274h135q0 212 83.5 315t262.5 103q174 0 377 -94l-125 -252q-98 39 -146 39q-15 0 -25.5 -2.5t-23 -11t-19.5 -29t-7 -51.5v-17h362v271l377 40v-311h268v-274h-268v-402q0 -31 7 -51.5t20 -29t23.5 -11t25.5 -2.5q39 0 129 45l129 -278q-200 -95 -365 -95 q-181 0 -263.5 104.5t-82.5 319.5v400h-362v-801h-377v801h-135z" />
<glyph horiz-adv-x="530" d="M39 156v182h84q3 124 57.5 187t169.5 63q122 0 240 -60l-80 -159q-77 22 -90 22q-8 0 -14 -1.5t-14 -6t-12.5 -16t-4.5 -29.5h141v-182h-141v-463h-252v463h-84z" />
<glyph horiz-adv-x="1263" d="M100 520v656h361v-691q0 -96 35.5 -147t134.5 -51t134.5 51t35.5 147v691h360v-656q0 -97 -12 -171.5t-46.5 -146t-92 -118t-153.5 -74.5t-226 -28t-225.5 28t-153.5 74.5t-92.5 118t-47 146t-12.5 171.5zM397 1251l242 293h401l-335 -293h-308z" />
<glyph horiz-adv-x="806" d="M39 109l113 188q125 -88 227 -88q53 0 84 19.5t31 58.5q0 34 -29 59t-86 25q-71 0 -152 -43l-145 92l45 440h596v-215h-375l-4 -78q61 11 100 11q155 0 234.5 -83.5t79.5 -205.5q0 -128 -87.5 -215.5t-254.5 -87.5q-191 0 -377 123z" />
<glyph horiz-adv-x="806" d="M39 682l113 188q125 -88 227 -88q53 0 84 19.5t31 58.5q0 34 -29 59t-86 25q-71 0 -152 -43l-145 92l45 441h596v-215h-375l-4 -78q55 10 100 10q155 0 234.5 -83.5t79.5 -205.5q0 -128 -87.5 -215.5t-254.5 -87.5q-191 0 -377 123z" />
<glyph horiz-adv-x="1198" d="M27 -86l172 283q42 -29 68.5 -45t78.5 -43.5t104.5 -41.5t104.5 -14q87 0 141 43t54 119q0 71 -48.5 119.5t-146.5 48.5q-62 0 -118 -19t-126 -55l-217 137l72 730h928v-324h-594l-11 -172q80 18 166 18q123 0 219.5 -39.5t154.5 -107.5t88 -153t30 -181q0 -100 -33 -188 t-97 -158t-169 -111t-240 -41q-96 0 -190 20t-170 53.5t-126.5 62t-94.5 59.5z" />
<glyph horiz-adv-x="2758" d="M31 801v274h135q5 199 95 298.5t276 99.5q202 0 442 -87q90 107 283 107q163 0 356 -57v57h377v-524q72 63 145 96t170 33q186 0 291.5 -145t105.5 -416q0 -268 -106 -414t-291 -146q-97 0 -169.5 32t-145.5 93v-102h-377v1147q-8 1 -47.5 9t-70.5 14t-71 11t-65 5 q-19 0 -32.5 -2.5t-29.5 -11t-25 -29t-9 -51.5v-17h231v-274h-231v-801h-377v801h-348v-801h-377v801h-135zM543 1075h348q0 49 2 72q-8 1 -47.5 9t-70.5 14t-71 11t-65 5q-19 0 -32.5 -2.5t-29.5 -11t-25 -29t-9 -51.5v-17zM1995 393q90 -114 188 -114q141 0 141 260 q0 258 -141 258q-42 0 -92 -28t-96 -87v-289z" />
<glyph horiz-adv-x="1662" d="M49 557l90 148q99 -72 197 -72q49 0 79.5 19t30.5 53q0 32 -27.5 52.5t-84.5 20.5t-133 -35l-115 72l41 361h500v-170h-328l-4 -74q48 10 92 10q131 0 199.5 -68t68.5 -169q0 -103 -75.5 -174.5t-217.5 -71.5q-162 0 -313 98zM438 0l541 1176h219l-539 -1176h-221z M971 195q0 68 40.5 113t110.5 79q-104 63 -104 154q0 79 72.5 127.5t203.5 48.5t203 -49t72 -127q0 -88 -105 -154q152 -70 152 -192q0 -95 -84.5 -151t-237.5 -56q-154 0 -238.5 56t-84.5 151zM1180 213q0 -31 31 -51.5t83 -20.5q50 0 81.5 20.5t31.5 51.5q0 51 -113 98 q-55 -24 -84.5 -46t-29.5 -52zM1219 514q0 -37 73 -65q26 10 40 17t26 20t12 28q0 20 -20.5 37.5t-55.5 17.5t-55 -17.5t-20 -37.5z" />
<glyph horiz-adv-x="1617" d="M49 557l90 148q99 -72 197 -72q49 0 79.5 19t30.5 53q0 32 -27.5 52.5t-84.5 20.5t-133 -35l-115 72l41 361h500v-170h-328l-4 -74q48 10 92 10q131 0 199.5 -68t68.5 -169q0 -103 -75.5 -174.5t-217.5 -71.5q-162 0 -313 98zM438 0l541 1176h219l-539 -1176h-221z M940 297q0 183 126.5 301.5t328.5 118.5q32 0 62 -3t45 -6l14 -3l-48 -158q-30 6 -71 6q-74 0 -135.5 -32t-92.5 -103q67 39 154 39q103 0 170.5 -59.5t67.5 -157.5q0 -105 -82 -178.5t-217 -73.5q-81 0 -144 25.5t-101 69.5t-57.5 98t-19.5 116zM1145 264q1 -58 34.5 -84 t75.5 -26q51 0 76 22.5t25 54.5q0 34 -28.5 56t-72.5 22q-65 0 -110 -45z" />
<glyph horiz-adv-x="1515" d="M31 801v274h135q5 199 95 298.5t276 99.5q204 0 436 -84q82 104 264 104q174 0 377 -94l-125 -252q-98 39 -146 39q-15 0 -25.5 -2.5t-23 -11t-19.5 -29t-7 -51.5v-17h231v-274h-231v-801h-377v801h-348v-801h-377v801h-135zM543 1075h348q0 49 2 72q-8 1 -47.5 9 t-70.5 14t-71 11t-65 5q-19 0 -32.5 -2.5t-29.5 -11t-25 -29t-9 -51.5v-17z" />
<glyph horiz-adv-x="1263" d="M100 520v656h361v-691q0 -96 35.5 -147t134.5 -51t134.5 51t35.5 147v691h360v-656q0 -97 -12 -171.5t-46.5 -146t-92 -118t-153.5 -74.5t-226 -28t-225.5 28t-153.5 74.5t-92.5 118t-47 146t-12.5 171.5z" />
<glyph horiz-adv-x="763" d="M23 1430v219h720v-219h-229v-642h-260v642h-231z" />
<glyph horiz-adv-x="892" d="M27 141v178l358 541h346v-504h125v-215h-125v-141h-260v141h-444zM285 356h186v289z" />
<glyph horiz-adv-x="892" d="M27 715v178l358 541h346v-504h125v-215h-125v-142h-260v142h-444zM285 930h186v289z" />
<glyph horiz-adv-x="1353" d="M20 -8v268l574 916h524v-861h199v-323h-199v-250h-393v250h-705zM401 315h324v521z" />
<glyph horiz-adv-x="1583" d="M31 801v274h135q0 212 83.5 315t262.5 103q174 0 377 -94l-115 -252q-105 39 -156 39q-15 0 -25.5 -2.5t-23 -11t-19.5 -29t-7 -51.5v-17h194v-274h-194v-801h-377v801h-135zM821 801v274h133q2 212 86 315t263 103q139 0 294 -76l-79 -258q-84 27 -111 27 q-15 0 -25.5 -2.5t-23 -11t-19 -29t-6.5 -51.5v-17h230v-274h-230v-801h-379v801h-133z" />
<glyph horiz-adv-x="1783" d="M49 590v139l318 447h274v-420h109v-166h-109v-119h-207v119h-385zM256 756h178v258zM549 0l541 1176h219l-539 -1176h-221zM1112 88l88 145q103 -71 197 -71q51 0 81.5 18.5t30.5 52.5q0 32 -28.5 54t-83.5 22q-59 0 -135 -37l-113 74l39 359h500v-168h-326l-6 -76 q48 10 92 10q132 0 200 -67.5t68 -167.5q0 -105 -74.5 -176.5t-216.5 -71.5q-158 0 -313 100z" />
<glyph horiz-adv-x="2033" d="M31 801v274h135q2 210 91 314t280 104q169 0 356 -59v59h377v-524q72 63 145 96t170 33q186 0 291.5 -145t105.5 -416q0 -268 -106 -414t-291 -146q-97 0 -169.5 32t-145.5 93v-102h-377v1147q-8 1 -47.5 9t-70.5 14t-71 11t-65 5q-19 0 -32.5 -2.5t-29.5 -11t-25 -29 t-9 -51.5v-17h231v-274h-231v-801h-377v801h-135zM1270 393q90 -114 188 -114q141 0 141 260q0 258 -141 258q-42 0 -92 -28t-96 -87v-289z" />
<glyph horiz-adv-x="790" d="M31 801v274h135q0 212 83.5 315t264.5 103q135 0 295 -76l-80 -258q-89 27 -111 27q-15 0 -25.5 -2.5t-23 -11t-19.5 -29t-7 -51.5v-17h231v-274h-231v-801h-377v801h-135z" />
<glyph horiz-adv-x="1277" d="M70 188v213h135v1033h1018v-332h-625v-223h492v-326h-492v-152h342v-213h-342v-188h-393v188h-135z" />
<glyph horiz-adv-x="1140" d="M66 139v193h116v844h901v-297h-540v-146h424v-293h-424v-108h299v-193h-299v-139h-361v139h-116z" />
<glyph horiz-adv-x="819" d="M47 -63h86v616h651v-219h-391v-105h307v-215h-307v-77h217v-140h-217v-104h-260v104h-86v140z" />
<glyph horiz-adv-x="819" d="M47 893v139h86v617h651v-219h-391v-105h307v-215h-307v-78h217v-139h-217v-105h-260v105h-86z" />
<glyph horiz-adv-x="530" d="M39 1251v183h84q3 124 57.5 186.5t169.5 62.5q124 0 240 -59l-80 -160l-22 7q-21 7 -39 11.5t-29 4.5q-8 0 -14 -1.5t-14 -6t-12.5 -16t-4.5 -29.5h141v-183h-141v-463h-252v463h-84z" />
<glyph horiz-adv-x="763" d="M23 334v219h720v-219h-229v-641h-260v641h-231z" />
<glyph horiz-adv-x="1191" d="M113 0v1176h360v-168h184q498 0 498 -402q0 -399 -498 -399h-184v-207h-360zM473 500h107q120 0 165.5 20.5t45.5 85.5t-45.5 85t-165.5 20h-107v-211z" />
<glyph horiz-adv-x="1050" d="M29 872v304h993v-304h-313v-872h-101q74 -99 74 -190q0 -101 -67.5 -150t-170.5 -49q-108 0 -182 47l70 176q43 -22 86 -22q78 0 78 65q0 48 -47 123h-101v872h-319z" />
<glyph horiz-adv-x="1050" d="M29 872v304h993v-304h-313v-872h-361v872h-319zM143 1544h254l129 -137l129 137h252l-211 -293h-342z" />
<glyph horiz-adv-x="1060" d="M33 872v304h993v-304h-313v-350h133v-192h-133v-330h-361v330h-133v192h133v350h-319z" />
<glyph horiz-adv-x="950" d="M80 242q0 58 9 105.5t34 94.5t65.5 78.5t108.5 51.5t158 20q83 0 149.5 -16.5t107.5 -42t68 -60.5t38 -68.5t11 -68.5q0 -37 -12.5 -70t-24.5 -47l-12 -14q-37 -8 -68.5 -23.5t-31.5 -36.5q0 -16 21 -28t61 -30t69 -40q87 -66 87 -160q0 -90 -67 -149.5t-183 -59.5 q-131 0 -295 78l86 160q112 -53 174 -53q33 0 33 22q0 14 -35 27q-102 31 -147.5 82t-45.5 123q0 45 16 81t42.5 58.5t47.5 35t44 21.5v11q0 31 -29 54t-92 23q-74 0 -104.5 -40t-30.5 -138v-530h-252v549z" />
<glyph horiz-adv-x="950" d="M80 788v549q0 58 9 105.5t34 94.5t65.5 79t108.5 52t158 20q83 0 149.5 -16.5t107.5 -42t68 -60.5t38 -68.5t11 -68.5q0 -37 -12.5 -70t-24.5 -48l-12 -14q-100 -21 -100 -59q0 -16 21 -28t61 -30t69 -40q87 -66 87 -160q0 -90 -67 -149.5t-183 -59.5q-131 0 -295 78 l86 160q115 -54 174 -54q33 0 33 23q0 14 -35 27q-94 29 -138 72q-55 54 -55 132q0 45 16 81t42.5 59t47.5 35.5t44 21.5v10q0 31 -29 54.5t-92 23.5q-74 0 -104.5 -40t-30.5 -138v-531h-252z" />
<glyph horiz-adv-x="819" d="M39 14q0 161 66.5 249.5t183.5 88.5q103 0 196 -73v59h252v-614q0 -149 -71.5 -221t-233.5 -72q-171 0 -366 55q22 75 47 190q58 -20 138 -37.5t122 -17.5q68 0 90 20.5t22 69.5v39q-92 -72 -196 -72q-116 0 -183 88.5t-67 247.5zM293 16q0 -137 82 -137q58 0 110 60v151 q-54 62 -110 62q-82 0 -82 -136z" />
<glyph horiz-adv-x="1050" d="M29 872v304h993v-304h-313v-872h-361v872h-319z" />
<glyph horiz-adv-x="841" d="M39 901l115 184q60 -34 151 -65t150 -31q69 0 69 39q0 25 -33 38.5t-108 31.5t-131 41q-80 33 -137.5 94.5t-57.5 155.5q0 120 84 197t244 77q201 0 393 -98l-114 -187q-53 25 -129.5 47.5t-128.5 22.5q-74 0 -74 -41q0 -24 31.5 -37t107 -31t133.5 -41q197 -81 197 -245 q0 -123 -85.5 -201t-246.5 -78q-119 0 -235.5 38t-194.5 89z" />
<glyph horiz-adv-x="1263" d="M100 520v656h361v-691q0 -96 35.5 -147t134.5 -51t134.5 51t35.5 147v691h360v-656q0 -97 -12 -171.5t-46.5 -146t-92 -118t-153.5 -74.5t-226 -28t-225.5 28t-153.5 74.5t-92.5 118t-47 146t-12.5 171.5zM283 1524h221q0 -34 33.5 -55t91.5 -21t93.5 21t35.5 55h221 q0 -127 -92.5 -200t-257.5 -73q-163 0 -254.5 73t-91.5 200z" />
<glyph horiz-adv-x="819" d="M39 1110q0 161 66.5 249.5t183.5 88.5q60 0 104.5 -18.5t91.5 -55.5v60h252v-615q0 -149 -71.5 -221t-233.5 -72q-167 0 -366 56q22 75 47 190q58 -20 138 -37.5t122 -17.5q68 0 90 20.5t22 69.5v39q-92 -72 -196 -72q-116 0 -183 88.5t-67 247.5zM293 1112 q0 -137 82 -137q59 0 110 59v152q-53 61 -110 61q-82 0 -82 -135z" />
<glyph horiz-adv-x="839" d="M39 -195l115 185q60 -34 151 -65t150 -31q69 0 69 38q0 25 -33 38.5t-108 31.5t-131 41q-80 33 -137.5 94.5t-57.5 155.5q0 120 84 197t244 77q201 0 393 -98l-114 -186q-53 25 -129.5 47t-128.5 22q-74 0 -74 -41q0 -16 13 -26.5t39.5 -18t57 -14.5t76.5 -20t86 -29 q197 -81 197 -246q0 -123 -85.5 -201t-246.5 -78q-119 0 -235.5 38t-194.5 89z" />
<glyph horiz-adv-x="1136" d="M41 154l160 254q82 -48 207.5 -90t209.5 -42q40 0 67.5 13.5t27.5 42.5q0 32 -50.5 51t-155 44t-177.5 56q-51 22 -91 47t-82 65t-65.5 99t-23.5 131q0 78 28 143.5t83 116.5t144.5 80t204.5 29q136 0 281 -38t256 -95l-160 -260q-82 38 -184 67t-180 29q-92 0 -92 -53 q0 -33 47 -50.5t149.5 -42t177.5 -55.5q41 -17 74 -34.5t71.5 -48t64.5 -65t43.5 -85t17.5 -109.5q0 -161 -119.5 -266.5t-343.5 -105.5q-159 0 -321 52t-269 120zM453 -553l116 168h-114v276h260l14 -311l-209 -219z" />
<glyph horiz-adv-x="454" d="M74 1649h305l-78 -562h-149zM104 788v232h246v-232h-246z" />
<glyph horiz-adv-x="454" d="M74 553h305l-78 -561h-149zM104 -76h246v-231h-246v231z" />
<glyph horiz-adv-x="1136" d="M41 154l160 254q82 -48 207.5 -90t209.5 -42q40 0 67.5 13.5t27.5 42.5q0 32 -50.5 51t-155 44t-177.5 56q-51 22 -91 47t-82 65t-65.5 99t-23.5 131q0 78 28 143.5t83 116.5t144.5 80t204.5 29q136 0 281 -38t256 -95l-160 -260q-82 38 -184 67t-180 29q-92 0 -92 -53 q0 -33 47 -50.5t149.5 -42t177.5 -55.5q41 -17 74 -34.5t71.5 -48t64.5 -65t43.5 -85t17.5 -109.5q0 -161 -119.5 -266.5t-343.5 -105.5q-159 0 -321 52t-269 120zM188 1251l211 293h342l211 -293h-252l-129 138l-129 -138h-254z" />
<glyph horiz-adv-x="1136" d="M41 154l160 254q82 -48 207.5 -90t209.5 -42q40 0 67.5 13.5t27.5 42.5q0 32 -50.5 51t-155 44t-177.5 56q-51 22 -91 47t-82 65t-65.5 99t-23.5 131q0 78 28 143.5t83 116.5t144.5 80t204.5 29q136 0 281 -38t256 -95l-160 -260q-82 38 -184 67t-180 29q-92 0 -92 -53 q0 -33 47 -50.5t149.5 -42t177.5 -55.5q41 -17 74 -34.5t71.5 -48t64.5 -65t43.5 -85t17.5 -109.5q0 -143 -95 -243.5t-276 -122.5q23 -29 43 -77t20 -101q0 -101 -67 -150t-170 -49q-108 0 -182 47l69 176q43 -22 86 -22q78 0 78 65q0 43 -37 109q-146 10 -287.5 58.5 t-234.5 109.5z" />
<glyph horiz-adv-x="831" d="M82 -307v895h252v-314q111 78 225 78q199 0 199 -209v-450h-252v389q0 78 -53 78q-59 0 -119 -60v-407h-252z" />
<glyph horiz-adv-x="1136" d="M41 154l160 254q82 -48 207.5 -90t209.5 -42q40 0 67.5 13.5t27.5 42.5q0 32 -50.5 51t-155 44t-177.5 56q-51 22 -91 47t-82 65t-65.5 99t-23.5 131q0 78 28 143.5t83 116.5t144.5 80t204.5 29q136 0 281 -38t256 -95l-160 -260q-82 38 -184 67t-180 29q-92 0 -92 -53 q0 -33 47 -50.5t149.5 -42t177.5 -55.5q41 -17 74 -34.5t71.5 -48t64.5 -65t43.5 -85t17.5 -109.5q0 -161 -119.5 -266.5t-343.5 -105.5q-159 0 -321 52t-269 120zM186 1544h254l129 -137l129 137h252l-211 -293h-342z" />
<glyph horiz-adv-x="452" d="M74 788l78 562h149l78 -562h-305zM102 1417v232h246v-232h-246z" />
<glyph horiz-adv-x="1136" d="M41 154l160 254q82 -48 207.5 -90t209.5 -42q40 0 67.5 13.5t27.5 42.5q0 32 -50.5 51t-155 44t-177.5 56q-51 22 -91 47t-82 65t-65.5 99t-23.5 131q0 78 28 143.5t83 116.5t144.5 80t204.5 29q136 0 281 -38t256 -95l-160 -260q-82 38 -184 67t-180 29q-92 0 -92 -53 q0 -33 47 -50.5t149.5 -42t177.5 -55.5q41 -17 74 -34.5t71.5 -48t64.5 -65t43.5 -85t17.5 -109.5q0 -161 -119.5 -266.5t-343.5 -105.5q-159 0 -321 52t-269 120zM336 1251l242 293h401l-336 -293h-307z" />
<glyph horiz-adv-x="1136" d="M41 154l160 254q82 -48 207.5 -90t209.5 -42q40 0 67.5 13.5t27.5 42.5q0 32 -50.5 51t-155 44t-177.5 56q-51 22 -91 47t-82 65t-65.5 99t-23.5 131q0 78 28 143.5t83 116.5t144.5 80t204.5 29q136 0 281 -38t256 -95l-160 -260q-82 38 -184 67t-180 29q-92 0 -92 -53 q0 -33 47 -50.5t149.5 -42t177.5 -55.5q41 -17 74 -34.5t71.5 -48t64.5 -65t43.5 -85t17.5 -109.5q0 -161 -119.5 -266.5t-343.5 -105.5q-159 0 -321 52t-269 120z" />
<glyph horiz-adv-x="933" d="M102 788v861h420q188 0 274.5 -70t86.5 -211q0 -207 -193 -258l195 -322h-285l-166 304h-72v-304h-260zM362 1292h140q58 0 87 15t29 61q0 48 -29 64t-87 16h-140v-156z" />
<glyph horiz-adv-x="935" d="M102 -307v860h420q188 0 274.5 -70t86.5 -211q0 -207 -193 -258l195 -321h-285l-166 303h-72v-303h-260zM362 197h140q59 0 87.5 14.5t28.5 60.5q0 48 -29 64t-87 16h-140v-155z" />
<glyph horiz-adv-x="1251" d="M113 0v1176h579q260 0 379 -94.5t119 -286.5q0 -287 -264 -357l266 -438h-391l-230 414h-98v-414h-360zM473 690h193q30 0 52 2t43.5 8.5t34.5 18t21 30.5t8 46q0 61 -40 82.5t-117 21.5h-195v-209zM485 -553l117 168h-115v276h261l14 -311l-209 -219z" />
<glyph horiz-adv-x="1251" d="M113 0v1176h579q260 0 379 -94.5t119 -286.5q0 -287 -264 -357l266 -438h-391l-230 414h-98v-414h-360zM270 1544h254l129 -137l129 137h252l-211 -293h-342zM473 690h193q30 0 52 2t43.5 8.5t34.5 18t21 30.5t8 46q0 61 -40 82.5t-117 21.5h-195v-209z" />
<glyph horiz-adv-x="1251" d="M113 0v1176h579q260 0 379 -94.5t119 -286.5q0 -287 -264 -357l266 -438h-391l-230 414h-98v-414h-360zM418 1251l241 293h402l-336 -293h-307zM473 690h193q30 0 52 2t43.5 8.5t34.5 18t21 30.5t8 46q0 61 -40 82.5t-117 21.5h-195v-209z" />
<glyph horiz-adv-x="415" d="M78 397v189h258v-189h-258zM82 -307v645h252v-645h-252z" />
<glyph horiz-adv-x="1251" d="M113 0v1176h579q260 0 379 -94.5t119 -286.5q0 -287 -264 -357l266 -438h-391l-230 414h-98v-414h-360zM473 690h193q30 0 52 2t43.5 8.5t34.5 18t21 30.5t8 46q0 61 -40 82.5t-117 21.5h-195v-209z" />
<glyph horiz-adv-x="974" d="M49 1219q0 96 25.5 175t77.5 140t138 95t199 34q112 0 197.5 -34t137 -95t77 -140t25.5 -175q0 -266 -178 -379l129 -103l-170 -176l-218 213q-113 0 -199 34t-138 95t-77.5 140.5t-25.5 175.5zM317 1219q0 -222 172 -222q87 0 128.5 59.5t41.5 162.5t-41.5 162 t-128.5 59q-172 0 -172 -221z" />
<glyph horiz-adv-x="452" d="M74 -307l78 561h149l78 -561h-305zM102 322v231h246v-231h-246z" />
<glyph horiz-adv-x="595" d="M86 0l109 766h204l109 -766h-422zM127 856v320h340v-320h-340z" />
<glyph horiz-adv-x="976" d="M51 123q0 96 25.5 175t77.5 140t138.5 95t199.5 34q112 0 197 -34t136.5 -95t77 -140t25.5 -175q0 -266 -178 -379l129 -102l-170 -177l-217 213q-113 0 -199.5 34t-138.5 95t-77.5 140.5t-25.5 175.5zM319 123q0 -221 173 -221q87 0 128.5 59t41.5 162t-41.5 162 t-128.5 59q-173 0 -173 -221z" />
<glyph horiz-adv-x="1263" d="M100 520v656h361v-691q0 -96 35.5 -147t134.5 -51t134.5 51t35.5 147v691h360v-656q0 -97 -12 -171.5t-46.5 -146t-92 -118t-153.5 -74.5t-226 -28t-225.5 28t-153.5 74.5t-92.5 118t-47 146t-12.5 171.5zM248 1251l211 293h342l211 -293h-252l-129 138l-129 -138h-254z " />
<glyph horiz-adv-x="1327" d="M57 588q0 131 35.5 239t107 191t190 129.5t274.5 46.5q157 0 275.5 -46.5t189.5 -130t106 -191t35 -238.5q0 -172 -61.5 -307t-186.5 -211l176 -140l-235 -241l-299 293q-156 0 -274.5 46.5t-190 130t-107 191.5t-35.5 238zM428 588q0 -141 57.5 -221t178.5 -80 q122 0 178.5 80t56.5 221t-56.5 221t-178.5 80q-121 0 -178.5 -80t-57.5 -221z" />
<glyph horiz-adv-x="884" d="M102 788v861h394q360 0 360 -295q0 -289 -360 -289h-134v-277h-260zM362 1276h115q56 0 85.5 16t29.5 62q0 47 -29.5 63.5t-85.5 16.5h-115v-158z" />
<glyph horiz-adv-x="884" d="M102 -307v860h394q360 0 360 -295q0 -289 -360 -289h-134v-276h-260zM362 180h115q56 0 85.5 16t29.5 62q0 47 -29.5 63.5t-85.5 16.5h-115v-158z" />
<glyph horiz-adv-x="415" d="M-55 -422q35 13 57.5 22t38.5 21t24 19.5t12 24t4.5 28t0.5 37.5v608h252v-588q0 -62 -1.5 -90t-10 -70.5t-27 -63t-53 -47.5t-87.5 -44.5t-130 -34.5zM78 397v189h260v-189h-260z" />
<glyph horiz-adv-x="593" d="M86 1176h422l-109 -766h-204zM127 0v319h340v-319h-340z" />
<glyph horiz-adv-x="1193" d="M113 0v1176h544q498 0 498 -402q0 -399 -498 -399h-184v-375h-360zM473 668h158q77 0 118.5 22t41.5 84q0 61 -41.5 83t-118.5 22h-158v-211z" />
<glyph horiz-adv-x="1327" d="M57 588q0 131 35.5 239t107 191t190 129.5t274.5 46.5q157 0 275.5 -46.5t189.5 -130t106 -191t35 -238.5q0 -103 -21.5 -192.5t-68.5 -166.5t-116.5 -131.5t-171.5 -85t-228 -30.5q-156 0 -274.5 46.5t-190 130t-107 191.5t-35.5 238zM270 1337q18 38 24 50.5t24.5 46 t29 47t31 37t38.5 33t43 18t52 8.5q47 0 104.5 -24t106.5 -48t74 -24q15 0 27.5 5t32 27t40.5 62l158 -80q-18 -38 -24 -50.5t-24.5 -46t-29 -47t-31 -37t-38.5 -33t-43 -18t-52 -8.5q-48 0 -106 24t-107 48.5t-74 24.5q-22 0 -45 -18.5t-53 -76.5zM428 588 q0 -141 57.5 -221t178.5 -80q122 0 178.5 80t56.5 221t-56.5 221t-178.5 80q-121 0 -178.5 -80t-57.5 -221z" />
<glyph horiz-adv-x="974" d="M51 1219q0 96 25.5 175t77.5 140t138.5 95t199.5 34q112 0 197 -34t136.5 -95t77 -140t25.5 -175t-25.5 -175.5t-77 -140.5t-136.5 -95t-197 -34q-113 0 -199.5 34t-138.5 95t-77.5 140.5t-25.5 175.5zM319 1219q0 -222 173 -222q170 0 170 222q0 221 -170 221 q-173 0 -173 -221z" />
<glyph horiz-adv-x="778" d="M82 -307v895h252v-436l133 186h291l-213 -254l248 -391h-265l-133 217l-61 -74v-143h-252z" />
<glyph horiz-adv-x="778" d="M82 788v895h252v-436l133 187h291l-213 -254l248 -392h-265l-133 216l-61 -74v-142h-252z" />
<glyph horiz-adv-x="1325" d="M57 588q0 131 35.5 239t107 191t190 129.5t274.5 46.5q182 0 313 -64l35 46h239l-125 -156q144 -163 144 -432q0 -103 -21.5 -192.5t-68.5 -166.5t-116.5 -131.5t-171.5 -85t-228 -30.5q-181 0 -312 61l-35 -43h-237l123 154q-146 162 -146 434zM428 588q0 -77 14 -129 l326 409q-44 21 -104 21q-121 0 -178.5 -80t-57.5 -221zM430 1251l242 293h401l-336 -293h-307zM559 305q43 -18 105 -18q122 0 178.5 80t56.5 221q0 59 -14 127z" />
<glyph horiz-adv-x="1263" d="M100 520v656h361v-691q0 -96 35.5 -147t134.5 -51t134.5 51t35.5 147v691h360v-656q0 -97 -12 -171.5t-46.5 -146t-92 -118t-153.5 -74.5t-226 -28t-225.5 28t-153.5 74.5t-92.5 118t-47 146t-12.5 171.5zM311 1272v266h277v-266h-277zM678 1272v266h274v-266h-274z" />
<glyph horiz-adv-x="1327" d="M57 588q0 131 35.5 239t107 191t190 129.5t274.5 46.5q157 0 275.5 -46.5t189.5 -130t106 -191t35 -238.5q0 -103 -21.5 -192.5t-68.5 -166.5t-116.5 -131.5t-171.5 -85t-228 -30.5q-156 0 -274.5 46.5t-190 130t-107 191.5t-35.5 238zM360 1303v215h609v-215h-609z M428 588q0 -141 57.5 -221t178.5 -80q122 0 178.5 80t56.5 221t-56.5 221t-178.5 80q-121 0 -178.5 -80t-57.5 -221z" />
<glyph horiz-adv-x="976" d="M51 123q0 96 25.5 175t77.5 140t138.5 95t199.5 34q112 0 197 -34t136.5 -95t77 -140t25.5 -175t-25.5 -175.5t-77 -140.5t-136.5 -95t-197 -34q-113 0 -199.5 34t-138.5 95t-77.5 140.5t-25.5 175.5zM319 123q0 -221 173 -221q170 0 170 221t-170 221q-173 0 -173 -221z " />
<glyph horiz-adv-x="1327" d="M57 588q0 131 35.5 239t107 191t190 129.5t274.5 46.5q157 0 275.5 -46.5t189.5 -130t106 -191t35 -238.5q0 -103 -21.5 -192.5t-68.5 -166.5t-116.5 -131.5t-171.5 -85t-228 -30.5q-156 0 -274.5 46.5t-190 130t-107 191.5t-35.5 238zM334 1251l160 293h313l-252 -293 h-221zM428 588q0 -141 57.5 -221t178.5 -80q122 0 178.5 80t56.5 221t-56.5 221t-178.5 80q-121 0 -178.5 -80t-57.5 -221zM711 1251l157 293h316l-252 -293h-221z" />
<glyph horiz-adv-x="1327" d="M57 588q0 131 35.5 239t107 191t190 129.5t274.5 46.5q157 0 275.5 -46.5t189.5 -130t106 -191t35 -238.5q0 -103 -21.5 -192.5t-68.5 -166.5t-116.5 -131.5t-171.5 -85t-228 -30.5q-156 0 -274.5 46.5t-190 130t-107 191.5t-35.5 238zM256 1544h401l242 -293h-307z M428 588q0 -141 57.5 -221t178.5 -80q122 0 178.5 80t56.5 221t-56.5 221t-178.5 80q-121 0 -178.5 -80t-57.5 -221z" />
<glyph horiz-adv-x="1263" d="M100 520v656h361v-691q0 -96 35.5 -147t134.5 -51t134.5 51t35.5 147v691h360v-656q0 -97 -12 -171.5t-46.5 -146t-92 -118t-153.5 -74.5t-226 -28t-225.5 28t-153.5 74.5t-92.5 118t-47 146t-12.5 171.5zM223 1544h402l241 -293h-307z" />
<glyph horiz-adv-x="415" d="M82 -307v895h252v-895h-252z" />
<glyph horiz-adv-x="1263" d="M100 520v656h361v-691q0 -96 35.5 -147t134.5 -51t134.5 51t35.5 147v691h360v-656q0 -97 -12 -171.5t-46.5 -146t-92 -118t-153.5 -74.5t-226 -28t-225.5 28t-153.5 74.5t-92.5 118t-47 146t-12.5 171.5zM301 1251l160 293h313l-252 -293h-221zM678 1251l158 293h315 l-252 -293h-221z" />
<glyph horiz-adv-x="1040" d="M86 0v238q6 1 15.5 3t35.5 11t48.5 22t46.5 37.5t36 55.5h-164v145h162l-22 51h-140v148h60q-43 88 -43 180q0 145 97.5 224t277.5 79q78 0 151.5 -15.5t138.5 -44.5t104.5 -51t90.5 -55l-152 -227q-161 96 -258 96q-88 0 -88 -63q0 -45 49 -123h324v-148h-250 q8 -31 10 -51h240v-145h-258q-24 -50 -66 -70h431v-297h-877z" />
<glyph horiz-adv-x="759" d="M68 -135q4 1 11.5 2.5t27 8.5t35.5 17t33.5 29t25.5 43h-121v101h119q0 1 -17 40h-102v101h47q-33 71 -33 139q0 105 70 163t198 58q58 0 111.5 -11t101.5 -33.5t74 -36.5t66 -40l-111 -163q-117 69 -186 69q-64 0 -64 -49q0 -8 2 -16.5t3.5 -14.5t7 -17t7.5 -14.5 t10 -17t9 -16.5h232v-101h-183q7 -23 9 -40h174v-101h-185q-16 -40 -51 -57h313v-215h-634v172z" />
<glyph horiz-adv-x="757" d="M66 788v173q4 1 11.5 2.5t27 8.5t35.5 17t33.5 29t25.5 43h-121v100h119q-1 4 -17 41h-102v101h47q-33 71 -33 139q0 105 70 163t198 58q58 0 111.5 -11t101.5 -33.5t74 -36.5t66 -40l-111 -164q-118 70 -186 70q-64 0 -64 -49q0 -8 2 -16.5t3.5 -14.5t7 -17t7.5 -14.5 t10 -17t9 -16.5h232v-101h-183q6 -22 9 -41h174v-100h-185q-16 -40 -51 -57h313v-216h-634z" />
<glyph horiz-adv-x="1327" d="M57 588q0 131 35.5 239t107 191t190 129.5t274.5 46.5q157 0 275.5 -46.5t189.5 -130t106 -191t35 -238.5q0 -103 -21.5 -192.5t-68.5 -166.5t-116.5 -131.5t-171.5 -85t-228 -30.5q-156 0 -274.5 46.5t-190 130t-107 191.5t-35.5 238zM344 1272v266h277v-266h-277z M428 588q0 -141 57.5 -221t178.5 -80q122 0 178.5 80t56.5 221t-56.5 221t-178.5 80q-121 0 -178.5 -80t-57.5 -221zM711 1272v266h274v-266h-274z" />
<glyph horiz-adv-x="1327" d="M57 588q0 131 35.5 239t107 191t190 129.5t274.5 46.5q157 0 275.5 -46.5t189.5 -130t106 -191t35 -238.5q0 -103 -21.5 -192.5t-68.5 -166.5t-116.5 -131.5t-171.5 -85t-228 -30.5q-156 0 -274.5 46.5t-190 130t-107 191.5t-35.5 238zM283 1251l211 293h342l211 -293 h-252l-129 138l-129 -138h-254zM428 588q0 -141 57.5 -221t178.5 -80q122 0 178.5 80t56.5 221t-56.5 221t-178.5 80q-121 0 -178.5 -80t-57.5 -221z" />
<glyph horiz-adv-x="956" d="M92 74v479h262v-508q0 -69 25.5 -106t97.5 -37t97.5 37t25.5 106v508h262v-479q0 -71 -8.5 -126t-33.5 -107.5t-67 -86.5t-111.5 -55t-164.5 -21q-94 0 -163.5 20.5t-111.5 55t-67 87t-34 107.5t-9 126z" />
<glyph horiz-adv-x="1327" d="M57 588q0 131 35.5 239t107 191t190 129.5t274.5 46.5q157 0 275.5 -46.5t189.5 -130t106 -191t35 -238.5q0 -103 -21.5 -192.5t-68.5 -166.5t-116.5 -131.5t-171.5 -85t-228 -30.5q-156 0 -274.5 46.5t-190 130t-107 191.5t-35.5 238zM317 1524h222q0 -34 33.5 -55 t91.5 -21t93.5 21t35.5 55h221q0 -127 -92.5 -200t-257.5 -73q-163 0 -255 73t-92 200zM428 588q0 -141 57.5 -221t178.5 -80q122 0 178.5 80t56.5 221t-56.5 221t-178.5 80q-121 0 -178.5 -80t-57.5 -221z" />
<glyph horiz-adv-x="1263" d="M100 520v656h361v-691q0 -96 35.5 -147t134.5 -51t134.5 51t35.5 147v691h360v-656q0 -97 -12 -171.5t-46.5 -146t-92 -118t-153.5 -74.5t-226 -28t-225.5 28t-153.5 74.5t-92.5 118t-47 146t-12.5 171.5zM326 1303v215h608v-215h-608z" />
<glyph horiz-adv-x="1327" d="M57 588q0 131 35.5 239t107 191t190 129.5t274.5 46.5q157 0 275.5 -46.5t189.5 -130t106 -191t35 -238.5q0 -103 -21.5 -192.5t-68.5 -166.5t-116.5 -131.5t-171.5 -85t-228 -30.5q-156 0 -274.5 46.5t-190 130t-107 191.5t-35.5 238zM428 588q0 -141 57.5 -221 t178.5 -80q122 0 178.5 80t56.5 221t-56.5 221t-178.5 80q-121 0 -178.5 -80t-57.5 -221zM430 1251l242 293h401l-336 -293h-307z" />
<glyph horiz-adv-x="1882" d="M57 588q0 131 35.5 239t107 191t190 129.5t274.5 46.5q130 0 237 -35v17h901v-297h-540v-144h438v-295h-438v-143h548v-297h-909v14q-112 -32 -237 -32q-156 0 -274.5 46.5t-190 130t-107 191.5t-35.5 238zM428 588q0 -141 57.5 -221t178.5 -80q122 0 178.5 80t56.5 221 t-56.5 221t-178.5 80q-121 0 -178.5 -80t-57.5 -221z" />
<glyph horiz-adv-x="1196" d="M82 -307v645h252v-70q93 84 196 84q137 0 179 -102q40 40 97 71t118 31q198 0 198 -209v-450h-252v389q0 26 -2.5 41t-13.5 26t-31 11q-44 0 -94 -54v-413h-252v389q0 39 -9.5 58.5t-39.5 19.5q-46 0 -94 -56v-411h-252z" />
<glyph horiz-adv-x="1263" d="M100 520v656h361v-691q0 -96 35.5 -147t134.5 -51t134.5 51t35.5 147v691h360v-656q0 -102 -14 -179.5t-50 -149.5t-105 -120.5t-171 -70.5q-33 -21 -57 -39t-53 -43.5t-44.5 -53t-15.5 -54.5q0 -19 8.5 -32t19.5 -19.5t30 -10t29 -3.5t29.5 0.5t20.5 0.5l-32 -158 q-1 0 -22.5 -0.5t-34 0t-39.5 2t-45.5 4.5t-45.5 10t-45.5 16t-39 23.5t-33 32.5t-21 43.5t-8.5 55.5q0 117 153 209q-116 5 -201.5 35.5t-137.5 77.5t-83 116.5t-42 141.5t-11 165z" />
<glyph horiz-adv-x="735" d="M35 12q0 160 87.5 250t250.5 90q158 0 240.5 -80.5t82.5 -210.5q0 -24 -3 -48t-6 -36l-3 -12h-393q5 -54 27 -78t69 -24q89 0 227 69l86 -153q-32 -19 -71.5 -38t-117.5 -41t-151 -22q-146 0 -235.5 83t-89.5 251zM293 90h162q-7 88 -80 88q-70 0 -82 -88z" />
<glyph horiz-adv-x="1327" d="M57 588q0 131 35.5 239t107 191t190 129.5t274.5 46.5q157 0 275.5 -46.5t189.5 -130t106 -191t35 -238.5q0 -103 -21.5 -192.5t-68.5 -166.5t-116.5 -131.5t-171.5 -85t-228 -30.5q-156 0 -274.5 46.5t-190 130t-107 191.5t-35.5 238zM428 588q0 -141 57.5 -221 t178.5 -80q122 0 178.5 80t56.5 221t-56.5 221t-178.5 80q-121 0 -178.5 -80t-57.5 -221z" />
<glyph horiz-adv-x="1308" d="M113 0v1176h366l357 -619v619h360v-1176h-362l-361 625v-625h-360zM272 1337q18 38 24 50.5t24.5 46t29 47t31 37t38.5 33t43 18t52 8.5q47 0 104.5 -24t106.5 -48t74 -24q15 0 27.5 5t32 27t40.5 62l158 -80q-18 -38 -24 -50.5t-24.5 -46t-29 -47t-31 -37t-38.5 -33 t-43 -18t-52 -8.5q-48 0 -106 24t-107 48.5t-74 24.5q-22 0 -45 -18.5t-53 -76.5z" />
<glyph horiz-adv-x="991" d="M102 788v861h265l260 -451v451h262v-861h-266l-261 451v-451h-260z" />
<glyph horiz-adv-x="991" d="M102 -307v860h265l260 -451v451h262v-860h-266l-261 450v-450h-260z" />
<glyph horiz-adv-x="1308" d="M113 0v1176h366l357 -619v619h360v-1176h-362l-361 625v-625h-360zM520 -553l117 168h-115v276h260l15 -311l-209 -219z" />
<glyph horiz-adv-x="1308" d="M113 0v1176h366l357 -619v619h360v-1176h-362l-361 625v-625h-360zM283 1544h254l129 -137l129 137h252l-211 -293h-342z" />
<glyph horiz-adv-x="1308" d="M113 0v1176h366l357 -619v619h360v-1176h-362l-361 625v-625h-360zM422 1251l242 293h401l-336 -293h-307z" />
<glyph horiz-adv-x="1308" d="M113 0v1176h366l357 -619v619h360v-1176h-362l-361 625v-625h-360z" />
<glyph horiz-adv-x="823" d="M41 567q0 129 96 218t256 89q98 0 173.5 -31t120 -84.5t67 -120t22.5 -142.5q0 -109 -39 -203t-109.5 -162t-172.5 -106.5t-224 -38.5q-36 0 -70.5 3.5t-50.5 6.5l-16 4l60 203q34 -8 77 -8q184 0 250 151q-72 -45 -166 -45q-118 0 -196 73t-78 193zM301 578 q0 -39 28 -62.5t72 -23.5q64 0 113 43q-1 39 -12.5 67t-30.5 40.5t-36 18t-34 5.5q-52 0 -76 -26.5t-24 -61.5z" />
<glyph horiz-adv-x="1306" d="M57 395q0 73 22 134t63 107.5t88 81t108 64.5q-195 127 -195 318q0 159 132.5 257.5t377.5 98.5q243 0 375.5 -98.5t132.5 -257.5q0 -190 -194 -318q128 -63 204 -155.5t76 -231.5q0 -195 -153.5 -306.5t-440.5 -111.5t-441.5 111.5t-154.5 306.5zM455 426q0 -68 54 -112 t144 -44q89 0 143 44.5t54 111.5q0 65 -51.5 113.5t-147.5 93.5q-94 -45 -145 -93.5t-51 -113.5zM526 1061q0 -89 125 -150q127 60 127 150q0 42 -32.5 77.5t-92.5 35.5q-62 0 -94.5 -35.5t-32.5 -77.5z" />
<glyph d="M33 688q0 103 38 194.5t107.5 161t175 110t232.5 40.5q122 0 222.5 -34t169 -92.5t116 -138t69 -168.5t21.5 -186q0 -255 -106.5 -450.5t-299.5 -302.5t-444 -107q-58 0 -112.5 6t-79.5 11l-25 6l90 305q55 -10 123 -10q63 0 121 14.5t114.5 47t103 93t74.5 144.5 q-119 -90 -278 -90q-187 0 -309.5 123t-122.5 323zM426 705q0 -76 47.5 -125.5t124.5 -49.5q107 0 188 95q-1 67 -19.5 118.5t-48 79t-60 41t-60.5 13.5q-88 0 -130 -51.5t-42 -120.5z" />
<glyph horiz-adv-x="849" d="M43 813q0 84 46 138t126 93q-117 78 -117 189q0 96 84.5 155.5t241.5 59.5q156 0 241 -59.5t85 -155.5q0 -110 -119 -189q81 -39 127.5 -93t46.5 -138q0 -118 -98.5 -186t-282.5 -68q-185 0 -283 68t-98 186zM305 836q0 -35 32.5 -58.5t86.5 -23.5t85.5 23.5t31.5 58.5 q0 34 -30 60t-87 50q-57 -25 -88 -50.5t-31 -59.5zM350 1206q0 -46 72 -78q74 32 74 78q0 19 -18 36.5t-54 17.5t-55 -17.5t-19 -36.5z" />
<glyph horiz-adv-x="849" d="M43 240q0 84 46 138t126 93q-117 78 -117 188q0 96 84.5 155.5t241.5 59.5q156 0 241 -59.5t85 -155.5q0 -109 -119 -188q81 -39 127.5 -93t46.5 -138q0 -118 -98.5 -186t-282.5 -68q-185 0 -283 68t-98 186zM305 262q0 -35 32.5 -58.5t86.5 -23.5t85.5 23.5t31.5 58.5 q0 34 -30.5 60.5t-86.5 50.5q-57 -24 -88 -50.5t-31 -60.5zM350 633q0 -46 72 -78q74 32 74 78q0 19 -18 36t-54 17t-55 -17.5t-19 -35.5z" />
<glyph horiz-adv-x="1263" d="M100 520v656h361v-691q0 -96 35.5 -147t134.5 -51t134.5 51t35.5 147v691h360v-656q0 -97 -12 -171.5t-46.5 -146t-92 -118t-153.5 -74.5t-226 -28t-225.5 28t-153.5 74.5t-92.5 118t-47 146t-12.5 171.5zM393 1468q0 97 70 166.5t168 69.5q97 0 166 -69.5t69 -166.5 q0 -98 -69 -167.5t-166 -69.5q-98 0 -168 69.5t-70 167.5zM563 1468q0 -28 20 -47.5t48 -19.5q26 0 45.5 19.5t19.5 47.5q0 26 -19.5 46t-45.5 20q-28 0 -48 -20t-20 -46z" />
<glyph horiz-adv-x="831" d="M82 -307v645h252v-64q111 78 225 78q199 0 199 -209v-450h-252v389q0 78 -53 78q-59 0 -119 -60v-407h-252z" />
<glyph horiz-adv-x="956" d="M92 1169v480h262v-508q0 -69 25.5 -106.5t97.5 -37.5t97.5 37.5t25.5 106.5v508h262v-480q0 -59 -6 -106t-21.5 -93.5t-44 -80.5t-70 -61t-103 -40.5t-140.5 -13.5t-140.5 13.5t-103 40.5t-70 61t-43.5 80.5t-21.5 93.5t-6.5 106z" />
<glyph horiz-adv-x="1263" d="M100 520v656h361v-691q0 -96 35.5 -147t134.5 -51t134.5 51t35.5 147v691h360v-656q0 -97 -12 -171.5t-46.5 -146t-92 -118t-153.5 -74.5t-226 -28t-225.5 28t-153.5 74.5t-92.5 118t-47 146t-12.5 171.5zM236 1337q19 41 24 51t24 45.5t29 47.5t31 36.5t38.5 33.5 t42.5 17.5t52 8.5q47 0 104.5 -24t106.5 -48t74 -24q15 0 27.5 5t32 27t40.5 62l158 -80q-18 -38 -24 -50.5t-24.5 -46t-29 -47t-31 -37t-38.5 -33t-43 -18t-52 -8.5q-48 0 -106 24t-106.5 48.5t-73.5 24.5q-49 0 -99 -95z" />
<glyph horiz-adv-x="1124" d="M102 788v861h265l194 -428l193 428h266v-861h-262v426l-129 -282h-135l-132 289v-433h-260z" />
<glyph horiz-adv-x="1124" d="M102 -307v860h265l194 -428l193 428h266v-860h-262v426l-129 -283h-135l-132 289v-432h-260z" />
<glyph horiz-adv-x="1230" d="M59 229v256h197l31 205h-160v256h199l34 230h263l-35 -230h162l34 230h260l-34 -230h161v-256h-198l-31 -205h160v-256h-199l-33 -229h-260l33 229h-164l-35 -229h-260l35 229h-160zM518 485h164l31 205h-164z" />
<glyph horiz-adv-x="892" d="M45 47h143l23 152h-117v188h146l24 166h189l-25 -166h119l24 166h189l-25 -166h115v-188h-143l-23 -152h117v-186h-144l-24 -168h-189l25 168h-119l-24 -168h-191l25 168h-115v186zM377 47h119l22 152h-119z" />
<glyph horiz-adv-x="892" d="M45 956v187h143l23 151h-117v189h146l24 166h189l-25 -166h119l24 166h189l-25 -166h115v-189h-143l-23 -151h117v-187h-144l-24 -168h-189l25 168h-119l-24 -168h-191l25 168h-115zM377 1143h119l22 151h-119z" />
<glyph horiz-adv-x="1490" d="M113 0v1176h366l269 -584l266 584h366v-1176h-360v610l-191 -413h-165l-191 413v-610h-360z" />
<glyph horiz-adv-x="759" d="M102 788v861h260v-641h377v-220h-637z" />
<glyph horiz-adv-x="1048" d="M29 279v309l106 59v529h361v-324l215 121v-309l-215 -121v-240h522v-303h-883v338z" />
<glyph horiz-adv-x="759" d="M102 -307v860h260v-641h377v-219h-637z" />
<glyph horiz-adv-x="1024" d="M113 0v1176h360v-873h522v-303h-882zM655 502v266h277v-266h-277z" />
<glyph horiz-adv-x="1021" d="M113 0v1176h360v-873h522v-303h-882zM408 -553l116 168h-114v276h260l14 -311l-209 -219z" />
<glyph horiz-adv-x="1255" d="M8 1176h416l205 -748l205 748h417l-422 -1176h-399z" />
<glyph horiz-adv-x="1021" d="M113 0v1176h360v-873h522v-303h-882zM530 731l117 168h-115v277h261l14 -312l-209 -219z" />
<glyph horiz-adv-x="1021" d="M59 1251l242 293h401l-335 -293h-308zM113 0v1176h360v-873h522v-303h-882z" />
<glyph horiz-adv-x="778" d="M35 16q0 160 92.5 248t265.5 88q170 0 261 -88t91 -250t-91 -249t-261 -87q-173 0 -265.5 88t-92.5 250zM287 16q0 -147 106 -147q101 0 101 145q0 148 -101 148q-106 0 -106 -146z" />
<glyph horiz-adv-x="1021" d="M113 0v1176h360v-873h522v-303h-882z" />
<glyph horiz-adv-x="933" d="M102 788v861h260v-322l250 322h318l-338 -394l342 -467h-309l-195 279l-68 -80v-199h-260z" />
<glyph horiz-adv-x="665" d="M-6 715l254 145h248v-860h-260v623l-142 -76z" />
<glyph horiz-adv-x="665" d="M-6 1288l254 146h248v-861h-260v623l-142 -76z" />
<glyph horiz-adv-x="884" d="M-4 940l395 236h377v-1176h-393v817l-225 -129z" />
<glyph horiz-adv-x="890" d="M-4 553h301l147 -545l148 545h303l-305 -860h-291z" />
<glyph horiz-adv-x="890" d="M-4 1649h301l147 -545l148 545h303l-305 -861h-291z" />
<glyph horiz-adv-x="1552" d="M39 1059l213 117h194v-705h-204v518l-123 -63zM315 0l541 1176h219l-538 -1176h-222zM850 195q0 68 40.5 113.5t110.5 78.5q-106 62 -106 154q0 79 73 127.5t206 48.5q130 0 202 -49t72 -127q0 -88 -105 -154q150 -69 150 -192q0 -95 -83.5 -151t-235.5 -56 q-156 0 -240 55.5t-84 151.5zM1057 213q0 -31 32 -51.5t85 -20.5q50 0 82 20.5t32 51.5q0 32 -31 54t-86 44q-55 -24 -84.5 -46t-29.5 -52zM1096 514q0 -37 73 -65q26 10 40 17t26 20t12 28q0 20 -19 37.5t-54 17.5q-37 0 -57.5 -17.5t-20.5 -37.5z" />
<glyph horiz-adv-x="1558" d="M39 1059l213 117h194v-705h-204v518l-123 -63zM315 0l541 1176h219l-538 -1176h-222zM879 88l90 145q103 -71 196 -71q49 0 80 18.5t31 52.5q0 32 -28 54t-83 22q-59 0 -135 -37l-112 74l38 359h500v-168h-328l-4 -76q48 10 93 10q131 0 199.5 -67.5t68.5 -167.5 q0 -105 -75 -176.5t-218 -71.5q-152 0 -313 100z" />
<glyph horiz-adv-x="933" d="M102 -307v860h260v-322l250 322h318l-338 -393l342 -467h-309l-195 278l-68 -77v-201h-260z" />
<glyph horiz-adv-x="1544" d="M39 1059l213 117h194v-705h-204v518l-123 -63zM315 0l541 1176h219l-538 -1176h-222zM872 0v80q0 50 19.5 96t54.5 83t70 64t80 54q18 10 51 28t46.5 26.5t32 21.5t25 24.5t6.5 24.5q0 19 -21 32t-60 13q-78 0 -197 -66l-88 129q159 107 315 107q127 0 193.5 -59 t66.5 -148q0 -40 -15.5 -76.5t-36 -61t-56 -49.5t-60 -38.5t-63.5 -32.5q-113 -57 -113 -82h344v-170h-594z" />
<glyph horiz-adv-x="1705" d="M20 1176h406l125 -676l162 676h276l162 -676l125 676h405l-323 -1176h-348l-160 645l-158 -645h-346z" />
<glyph horiz-adv-x="1257" d="M113 0v1176h360v-439l344 439h440l-466 -539l471 -637h-428l-267 379l-94 -109v-270h-360zM483 -553l117 168h-115v276h260l15 -311l-209 -219z" />
<glyph horiz-adv-x="1540" d="M39 1059l213 117h194v-705h-204v518l-123 -63zM315 0l541 1176h219l-538 -1176h-222zM776 119v139l316 447h274v-418h111v-168h-111v-119h-207v119h-383zM985 287h174v254z" />
<glyph horiz-adv-x="1507" d="M39 1059l213 117h194v-705h-204v518l-123 -63zM315 0l541 1176h219l-538 -1176h-222zM819 297q0 183 126.5 301.5t330.5 118.5q32 0 62 -3t44 -6l13 -3l-47 -158q-31 6 -70 6q-168 0 -225 -135q67 39 149 39q104 0 171 -59.5t67 -157.5q0 -106 -81.5 -179t-217.5 -73 q-81 0 -144.5 25.5t-101.5 69.5t-57 98t-19 116zM1026 264q1 -58 33.5 -84t75.5 -26q51 0 75.5 22.5t24.5 54.5q0 34 -26.5 56t-71.5 22q-71 0 -111 -45z" />
<glyph horiz-adv-x="1257" d="M113 0v1176h360v-439l344 439h440l-466 -539l471 -637h-428l-267 379l-94 -109v-270h-360z" />
<glyph horiz-adv-x="1705" d="M20 1176h406l125 -676l162 676h276l162 -676l125 676h405l-323 -1176h-348l-160 645l-158 -645h-346zM618 1251l242 293h402l-336 -293h-308z" />
<glyph horiz-adv-x="1542" d="M39 1059l213 117h194v-705h-204v518l-123 -63zM315 0l541 1176h219l-538 -1176h-222zM860 88l88 137q129 -67 221 -67q99 0 99 59q0 16 -8 28t-24 18.5t-31 11t-40.5 6t-39 2t-38.5 0.5h-6h-32v170h38q30 0 48.5 1t46.5 5.5t42.5 17t14.5 31.5q0 39 -70 39 q-86 0 -194 -60l-84 127q141 103 313 103q119 0 179.5 -49t60.5 -125q0 -103 -111 -154q63 -21 103.5 -69t40.5 -109q0 -43 -14.5 -81t-45.5 -71t-87.5 -52t-133.5 -19q-177 0 -336 100z" />
<glyph horiz-adv-x="466" d="M-33 729q52 18 79.5 31t40.5 31.5t15 32.5t2 48v777h261v-762q0 -61 -1.5 -89.5t-10 -70.5t-28 -63t-54 -47t-88.5 -44t-132 -34z" />
<glyph horiz-adv-x="466" d="M-33 -367q52 18 79.5 31t40.5 32t15 33t2 48v776h261v-762q0 -61 -1.5 -89.5t-10 -70.5t-28 -63t-54 -47t-88.5 -44t-132 -34z" />
<glyph horiz-adv-x="585" d="M-90 1251l211 293h342l211 -293h-252l-129 138l-129 -138h-254zM-78 -82q48 17 80 30t54 28.5t33 26.5t16.5 32t6.5 35.5t1 46.5v1059h360v-1039q0 -57 -0.5 -84t-4 -72.5t-11.5 -67t-22 -55.5t-36.5 -52t-54.5 -43t-75.5 -41t-100.5 -33.5t-129 -32.5z" />
<glyph horiz-adv-x="585" d="M-78 -82q48 17 80 30t54 28.5t33 26.5t16.5 32t6.5 35.5t1 46.5v1059h360v-1039q0 -57 -0.5 -84t-4 -72.5t-11.5 -67t-22 -55.5t-36.5 -52t-54.5 -43t-75.5 -41t-100.5 -33.5t-129 -32.5z" />
<glyph horiz-adv-x="1173" d="M59 154l160 254q82 -48 208 -90t210 -42q40 0 67 13.5t27 42.5q0 32 -50.5 51t-155 44t-177.5 56q-51 22 -91 47t-82 65t-65.5 99t-23.5 131q0 147 99 247.5t290 117.5v156h246v-168q194 -33 362 -117l-159 -260q-82 38 -184.5 67t-180.5 29q-92 0 -92 -53 q0 -33 47.5 -50.5t150 -42t177.5 -55.5q52 -22 93 -46.5t84.5 -64.5t68 -99t24.5 -132q0 -147 -100.5 -249t-290.5 -119v-154h-246v166q-120 22 -230.5 65t-185.5 91z" />
<glyph horiz-adv-x="585" d="M-102 1337q19 41 24 51t24 45.5t29 47.5t31 36.5t38.5 33.5t42.5 17.5t52 8.5q47 0 104.5 -24t106.5 -48t74 -24q15 0 27.5 5t32 27t40.5 62l158 -80q-18 -38 -24 -50.5t-24.5 -46t-29 -47t-31 -37t-38.5 -33t-43 -18t-52 -8.5q-48 0 -106 24t-106.5 48.5t-73.5 24.5 q-49 0 -99 -95zM111 0v1176h360v-1176h-360z" />
<glyph horiz-adv-x="466" d="M102 788v861h260v-861h-260z" />
<glyph horiz-adv-x="585" d="M66 -225q0 127 182 225h-137v1176h360v-1176h-6q-33 -21 -57 -39t-53 -43.5t-44.5 -53t-15.5 -54.5q0 -19 8.5 -32t19.5 -19.5t30 -10t29 -3.5t29.5 0.5t20.5 0.5l-33 -158q-1 0 -22.5 -0.5t-34 0t-39.5 2t-45.5 4.5t-45.5 10t-45 16t-39 23.5t-33.5 32.5t-20.5 43.5 t-8 55.5z" />
<glyph horiz-adv-x="1337" d="M43 735q0 94 25 168.5t69 125t107 84t136 48.5t159 15h284v-1487h-288v602q-79 0 -149 15t-133.5 48.5t-109.5 84t-73 126.5t-27 170zM915 -313v1489h287v-1489h-287z" />
<glyph horiz-adv-x="585" d="M-12 1303v215h608v-215h-608zM113 0v1176h360v-1176h-360z" />
<glyph horiz-adv-x="665" d="M104 240v688q0 57 0.5 84.5t4 72.5t11.5 67t22.5 56t36.5 52t54 42.5t76 40.5t101 33.5t129 32.5l84 -184q-56 -21 -88 -39t-47.5 -43.5t-19 -49t-3.5 -67.5v-883q0 -44 3.5 -67.5t19 -49t47.5 -43.5t88 -38l-84 -185q-93 20 -161 43t-115 44.5t-77.5 57.5t-47 62t-24 79 t-9 87t-1.5 107z" />
<glyph horiz-adv-x="1705" d="M20 1176h406l125 -676l162 676h276l162 -676l125 676h405l-323 -1176h-348l-160 645l-158 -645h-346zM471 1251l211 293h342l211 -293h-252l-129 138l-129 -138h-254z" />
<glyph horiz-adv-x="817" d="M37 14q0 161 66.5 249.5t183.5 88.5q103 0 196 -73v309h252v-895h-252v57q-92 -72 -196 -72q-116 0 -183 88.5t-67 247.5zM291 16q0 -137 82 -137q58 0 110 60v151q-54 62 -110 62q-82 0 -82 -136z" />
<glyph horiz-adv-x="466" d="M102 -307v860h260v-860h-260z" />
<glyph horiz-adv-x="669" d="M41 -55q56 21 88 39t47.5 43.5t19 48.5t3.5 67v883q0 44 -3.5 67.5t-19 49.5t-47.5 44t-88 38l84 184q72 -15 129 -32.5t100.5 -33.5t75.5 -40.5t54.5 -42.5t36.5 -52t22 -55.5t11.5 -66.5t4 -72t0.5 -84v-688q0 -58 -0.5 -85t-4 -72.5t-11.5 -67t-22 -55.5t-36.5 -52 t-54.5 -43t-75.5 -41t-100.5 -33.5t-129 -32.5z" />
<glyph horiz-adv-x="1705" d="M20 1176h406l125 -676l162 676h276l162 -676l125 676h405l-323 -1176h-348l-160 645l-158 -645h-346zM532 1272v266h277v-266h-277zM899 1272v266h275v-266h-275z" />
<glyph horiz-adv-x="1705" d="M20 1176h406l125 -676l162 676h276l162 -676l125 676h405l-323 -1176h-348l-160 645l-158 -645h-346zM444 1544h402l241 -293h-307z" />
<glyph horiz-adv-x="1212" d="M4 553h293l90 -496l119 496h199l116 -494l90 494h295l-235 -860h-250l-117 477l-117 -477h-249z" />
<glyph horiz-adv-x="585" d="M-117 1544h402l241 -293h-307zM111 0v1176h360v-1176h-360z" />
<glyph horiz-adv-x="1724" d="M51 879q0 144 89.5 229.5t254.5 85.5q164 0 253 -85.5t89 -229.5t-89 -229t-253 -85q-165 0 -254.5 85t-89.5 229zM299 879q0 -111 96 -111q44 0 69 28t25 83q0 54 -25 83t-69 29q-46 0 -71 -28.5t-25 -83.5zM436 0l590 1176h260l-590 -1176h-260zM989 295 q0 145 88.5 230t253.5 85t253.5 -85t88.5 -230q0 -144 -88.5 -228.5t-253.5 -84.5t-253.5 84.5t-88.5 228.5zM1235 295q0 -111 96 -111t96 111q0 55 -25.5 84t-70.5 29q-46 0 -71 -29t-25 -84z" />
<glyph horiz-adv-x="1216" d="M20 336q0 109 62 170t184 61q123 0 186.5 -61.5t63.5 -169.5t-63.5 -169t-186.5 -61q-122 0 -184 61t-62 169zM199 336q0 -44 16.5 -63t50.5 -19q72 0 72 82q0 84 -72 84q-67 0 -67 -84zM293 -322l434 875h188l-434 -875h-188zM698 -90q0 108 63 168.5t185 60.5 q123 0 185.5 -60.5t62.5 -168.5q0 -110 -62.5 -171t-185.5 -61q-122 0 -185 61t-63 171zM879 -90q0 -84 67 -84q70 0 70 84q0 82 -70 82q-67 0 -67 -82z" />
<glyph horiz-adv-x="2025" d="M31 801v274h135q5 199 95 298.5t276 99.5q203 0 444 -89q95 109 297 109q241 0 510 -94l-119 -252q-10 2 -54 9.5t-79.5 13.5t-80.5 11t-73 5q-17 0 -29.5 -1t-29.5 -6.5t-28 -15t-19 -28t-8 -43.5v-17h663v-1001q0 -84 -1.5 -123t-9.5 -100.5t-26.5 -90.5t-52 -70.5 t-85.5 -66.5t-127 -52t-177 -50l-119 270q57 21 92.5 36t61.5 34t38 31.5t18.5 40t7.5 47t1 63.5v758h-284v-801h-377v801h-348v-801h-377v801h-135zM543 1075h348q0 49 2 72q-8 1 -47.5 9t-70.5 14t-71 11t-65 5q-19 0 -32.5 -2.5t-29.5 -11t-25 -29t-9 -51.5v-17z" />
<glyph horiz-adv-x="585" d="M-29 1272v266h277v-266h-277zM111 0v1176h360v-1176h-360zM338 1272v266h274v-266h-274z" />
<glyph horiz-adv-x="585" d="M-90 1251l211 293h342l211 -293h-252l-129 138l-129 -138h-254zM113 0v1176h360v-1176h-360z" />
<glyph horiz-adv-x="1216" d="M6 1649h293l90 -496l119 496h199l116 -494l90 494h295l-235 -861h-250l-117 478l-117 -478h-249z" />
<glyph horiz-adv-x="657" d="M37 1112q0 86 24.5 152.5t67 105.5t95 58.5t112.5 19.5q134 0 303 -78l-96 -184q-4 2 -21.5 9t-24.5 9.5t-23 8t-25 8.5t-22 6t-23.5 4.5t-20.5 1.5q-90 0 -90 -121q0 -123 90 -123q56 0 160 47l96 -184q-169 -78 -301 -78q-129 0 -215 84.5t-86 253.5z" />
<glyph horiz-adv-x="1343" d="M61 588q0 128 41 238t117.5 192t193.5 129t261 47q143 0 259 -47t191 -129t115.5 -192t40.5 -238t-40.5 -238t-115.5 -192t-191 -129t-259 -47q-144 0 -261 47t-193.5 129t-117.5 192t-41 238zM131 588q0 -237 143.5 -390t397.5 -153q169 0 293.5 72.5t186.5 194.5 t62 276t-62 275.5t-186.5 194t-293.5 72.5q-170 0 -294.5 -72.5t-185.5 -194t-61 -275.5zM362 586q0 174 86 270t214 96q60 0 119 -19t90 -37t75 -48l-53 -60q-36 27 -58 41.5t-71.5 32t-99.5 17.5q-96 0 -155.5 -81t-59.5 -212q0 -130 59.5 -209.5t155.5 -79.5 q50 0 98.5 16.5t73 31.5t57.5 40l53 -59q-44 -30 -74.5 -48t-90.5 -37.5t-119 -19.5q-128 0 -214 96t-86 269z" />
<glyph horiz-adv-x="2473" d="M51 879q0 144 89.5 229.5t254.5 85.5q164 0 253 -85.5t89 -229.5t-89 -229t-253 -85q-165 0 -254.5 85t-89.5 229zM299 879q0 -111 96 -111q44 0 69 28t25 83q0 54 -25 83t-69 29q-46 0 -71 -28.5t-25 -83.5zM436 0l590 1176h260l-590 -1176h-260zM989 295 q0 145 88.5 230t253.5 85t253.5 -85t88.5 -230q0 -144 -88.5 -228.5t-253.5 -84.5t-253.5 84.5t-88.5 228.5zM1235 295q0 -111 96 -111t96 111q0 55 -25.5 84t-70.5 29q-46 0 -71 -29t-25 -84zM1739 295q0 144 89.5 229.5t254.5 85.5t253.5 -85t88.5 -230 q0 -144 -88.5 -228.5t-253.5 -84.5t-254.5 84.5t-89.5 228.5zM1987 295q0 -111 96 -111q94 0 94 111q0 55 -24.5 84t-69.5 29q-46 0 -71 -29t-25 -84z" />
<glyph horiz-adv-x="1191" d="M-4 0l375 598l-355 578h416l162 -347l164 347h418l-357 -578l377 -598h-430l-172 336l-170 -336h-428z" />
<glyph horiz-adv-x="1269" d="M94 731v86h43v359h545q470 0 496 -359h43v-86h-43q-25 -356 -496 -356h-184v-375h-361v731h-43zM498 668h157q63 0 101.5 13t50.5 50h-309v-63zM498 817h309q-24 62 -152 62h-157v-62z" />
<glyph horiz-adv-x="907" d="M76 225v68h33v260h393q336 0 358 -260h35v-68h-35q-19 -256 -358 -256h-133v-276h-260v532h-33zM369 180h114q92 0 109 45h-223v-45zM369 293h223q-19 45 -109 45h-114v-45z" />
<glyph horiz-adv-x="907" d="M76 1321v68h33v260h393q336 0 358 -260h35v-68h-35q-19 -256 -358 -256h-133v-277h-260v533h-33zM369 1276h114q92 0 109 45h-223v-45zM369 1389h223q-19 45 -109 45h-114v-45z" />
<glyph horiz-adv-x="868" d="M0 -307l270 438l-256 422h301l117 -254l119 254h303l-258 -424l272 -436h-311l-125 246l-123 -246h-309z" />
<glyph horiz-adv-x="817" d="M82 338h252v-59q47 37 91 55t105 18q118 0 184 -88t66 -250q0 -159 -66.5 -247.5t-183.5 -88.5q-61 0 -105.5 18t-90.5 54v-307h-252v895zM334 -61q50 -60 110 -60q82 0 82 137q0 136 -82 136q-59 0 -110 -62v-151z" />
<glyph horiz-adv-x="583" d="M-55 1524h221q0 -34 33.5 -55t91.5 -21t93.5 21t35.5 55h221q0 -127 -92.5 -200t-257.5 -73q-163 0 -254.5 73t-91.5 200zM113 0v1176h360v-1176h-360z" />
<glyph horiz-adv-x="585" d="M59 1251l242 293h401l-335 -293h-308zM113 0v1176h360v-1176h-360z" />
<glyph horiz-adv-x="440" d="M96 788v256h248v-256h-248zM96 1143v256h248v-256h-248z" />
<glyph horiz-adv-x="702" d="M49 1219q0 169 85.5 252t213.5 83h23l22 95h96l-24 -107l24 -6l27 113h96l-32 -138q37 -13 86 -34l-97 -185q-113 49 -174 49q-90 0 -90 -122q0 -123 90 -123q61 0 174 49l97 -187q-108 -51 -226 -69l-22 -101h-96l20 95q-17 0 -25 2l-20 -97h-96l24 117q-80 33 -128 112 t-48 202z" />
<glyph horiz-adv-x="819" d="M82 539v895h252v-60q47 37 91 55.5t105 18.5q118 0 184 -88t66 -250q0 -159 -66.5 -247.5t-183.5 -88.5q-61 0 -105.5 18t-90.5 54v-307h-252zM334 1034q49 -59 110 -59q82 0 82 137q0 135 -82 135q-59 0 -110 -61v-152z" />
<glyph horiz-adv-x="1169" d="M113 0v1176h360v-1176h-360zM506 -82q36 13 62.5 23t47 22t34 20t22.5 21.5t14 22t7 26t2.5 29t0.5 35.5v1059h361v-1039q0 -57 -0.5 -84t-4 -72.5t-11.5 -67t-22 -55.5t-36.5 -52t-54.5 -43t-75.5 -41t-100.5 -33.5t-129 -32.5z" />
<glyph horiz-adv-x="817" d="M37 14q0 161 66.5 249.5t183.5 88.5q103 0 196 -73v59h252v-895h-252v307q-92 -72 -196 -72q-116 0 -183 88.5t-67 247.5zM291 16q0 -137 82 -137q58 0 110 60v151q-54 62 -110 62q-82 0 -82 -136z" />
<glyph horiz-adv-x="819" d="M39 1110q0 161 66.5 249.5t183.5 88.5q60 0 104.5 -18.5t91.5 -55.5v60h252v-895h-252v307q-92 -72 -196 -72q-116 0 -183 88.5t-67 247.5zM293 1112q0 -137 82 -137q59 0 110 59v152q-53 61 -110 61q-82 0 -82 -135z" />
<glyph horiz-adv-x="585" d="M113 0v1176h360v-1176h-360z" />
<glyph horiz-adv-x="952" d="M41 1055q46 27 75 41.5t92 42t133.5 41.5t145.5 14q188 0 302 -90t114 -236q0 -69 -24 -125.5t-60 -94.5t-92 -69.5t-106.5 -50t-116.5 -36.5l-17 -82h-206l-19 264q167 32 223 57.5t56 75.5q0 35 -27.5 62.5t-89.5 27.5q-106 0 -240 -84zM213 0v319h340v-319h-340z" />
<glyph horiz-adv-x="970" d="M102 788v861h260v-301h244v301h262v-861h-262v345h-244v-345h-260z" />
<glyph horiz-adv-x="954" d="M49 307q0 69 24 125.5t60.5 94.5t92.5 70t106.5 50.5t116.5 36.5l16 82h207l18 -264q-166 -32 -222 -57.5t-56 -75.5q0 -35 27 -62.5t89 -27.5q107 0 240 83l143 -241q-46 -27 -75 -41.5t-92 -42t-133.5 -41.5t-145.5 -14q-188 0 -302 90t-114 235zM399 856v320h340v-320 h-340z" />
<glyph horiz-adv-x="651" d="M20 -82q0 61 24.5 108.5t69.5 79t90.5 51t106.5 36.5l11 61h149l14 -195q-121 -24 -161.5 -43t-40.5 -57q0 -25 19.5 -45t64.5 -20q79 0 174 63l102 -176q-44 -27 -74 -43t-103 -38t-144 -22q-136 0 -219 67t-83 173zM274 322v231h246v-231h-246z" />
<glyph horiz-adv-x="649" d="M18 1014q0 61 24.5 108.5t69.5 78.5t90.5 50.5t106.5 36.5l10 62h150l14 -195q-121 -24 -161.5 -43t-40.5 -57q0 -25 19.5 -45.5t64.5 -20.5q77 0 174 64l102 -176q-32 -19 -53 -30.5t-66 -31.5t-96.5 -30.5t-106.5 -10.5q-136 0 -218.5 67t-82.5 173zM272 1417v232h246 v-232h-246z" />
<glyph horiz-adv-x="651" d="M8 465q168 102 322 102q136 0 218.5 -66.5t82.5 -172.5q0 -61 -24.5 -108.5t-69.5 -79t-90.5 -51t-106.5 -36.5l-10 -61h-150l-14 194q121 24 162 43.5t41 57.5q0 25 -19.5 45t-64.5 20q-79 0 -174 -63zM131 -76h246v-231h-246v231z" />
<glyph horiz-adv-x="649" d="M6 1561q168 102 322 102q136 0 218.5 -67t82.5 -173q0 -61 -24.5 -108.5t-69.5 -78.5t-90.5 -50.5t-106.5 -36.5l-10 -62h-150l-14 195q122 25 162.5 43.5t40.5 56.5q0 25 -19.5 45.5t-64.5 20.5q-77 0 -174 -64zM129 788v232h246v-232h-246z" />
<glyph horiz-adv-x="970" d="M102 -307v860h260v-301h244v301h262v-860h-262v344h-244v-344h-260z" />
<glyph horiz-adv-x="702" d="M49 123q0 169 85.5 252.5t213.5 83.5h23l22 94h96l-24 -107l24 -6l27 113h96l-32 -137q26 -9 86 -35l-97 -184q-113 49 -174 49q-90 0 -90 -123t90 -123q61 0 174 49l97 -186q-111 -52 -226 -70l-22 -100h-96l20 94q-17 0 -25 2l-20 -96h-96l24 117q-80 33 -128 111.5 t-48 201.5z" />
<glyph horiz-adv-x="980" d="M72 590q0 118 34 208.5t92.5 144t131 80t155.5 26.5h29l29 127h133l-31 -144l31 -8l35 152h133l-41 -187q53 -17 123 -47l-133 -254q-166 66 -244 66q-63 0 -94 -44t-31 -120t31 -121t94 -45q80 0 244 65l133 -253q-160 -71 -308 -95l-30 -141h-135l28 129h-32l-29 -129 h-133l35 158q-114 44 -182 152t-68 280z" />
<glyph horiz-adv-x="436" d="M94 47v256h248v-256h-248zM94 -51h248v-256h-248v256z" />
<glyph horiz-adv-x="868" d="M0 788l270 439l-256 422h301l117 -254l119 254h303l-258 -424l272 -437h-311l-125 246l-123 -246h-309z" />
<glyph horiz-adv-x="657" d="M35 16q0 86 24.5 152.5t67 105.5t95 58.5t112.5 19.5q134 0 303 -78l-96 -184q-4 2 -21.5 9t-24.5 9.5t-23 8t-25 8.5t-22 6t-23.5 4.5t-20.5 1.5q-90 0 -90 -121q0 -122 90 -122q56 0 160 47l96 -185q-169 -78 -301 -78q-129 0 -215 84.5t-86 253.5z" />
<glyph horiz-adv-x="976" d="M66 590q0 111 29.5 197.5t81.5 140.5t117.5 84t143.5 35v129h246v-156q114 -28 234 -78l-134 -254q-166 66 -241 66q-65 0 -96 -44t-31 -120t31 -121t96 -45q77 0 241 65l134 -253q-108 -49 -234 -80v-156h-246v131q-78 6 -143.5 36t-117.5 84.5t-81.5 141t-29.5 197.5z " />
<glyph horiz-adv-x="1335" d="M14 858v193h123v125h361v-125h336v125h360v-125h125v-193h-125v-858h-360v469h-336v-469h-361v858h-123zM498 764h336v94h-336v-94z" />
<glyph horiz-adv-x="1282" d="M113 0v1176h360v-412h336v412h360v-1176h-360v469h-336v-469h-360z" />
<glyph horiz-adv-x="921" d="M53 1217q0 218 100.5 332t270.5 114q105 0 199.5 -31.5t210.5 -91.5l-117 -192q-158 79 -258 79q-68 0 -101.5 -55t-33.5 -153q0 -222 133 -222q66 0 141 70v35h-162v203h406v-517h-244v66q-93 -80 -205 -80q-145 0 -242.5 116t-97.5 327z" />
<glyph horiz-adv-x="1173" d="M-4 1176h405l183 -383l186 383h406l-410 -711v-465h-358v463z" />
<glyph horiz-adv-x="921" d="M53 121q0 218 100.5 332t270.5 114q105 0 199.5 -31.5t210.5 -91.5l-117 -192q-160 80 -258 80q-68 0 -101.5 -55.5t-33.5 -153.5q0 -221 133 -221q67 0 141 69v35h-162v203h406v-516h-244v65q-93 -80 -205 -80q-145 0 -242.5 116t-97.5 327z" />
<glyph d="M59 586q0 298 138 453t374 155q143 0 275 -43.5t291 -124.5l-162 -264q-217 108 -354 108q-96 0 -143.5 -75.5t-47.5 -206.5q0 -303 186 -303q94 0 201 102v39h-231v281h561v-707h-330v98q-132 -116 -289 -116q-96 0 -180 38t-149 111t-102.5 190t-37.5 265zM465 1272 v266h276v-266h-276z" />
<glyph d="M59 586q0 298 138 453t374 155q143 0 275 -43.5t291 -124.5l-162 -264q-217 108 -354 108q-96 0 -143.5 -75.5t-47.5 -206.5q0 -303 186 -303q94 0 201 102v39h-231v281h561v-707h-330v98q-132 -116 -289 -116q-96 0 -180 38t-149 111t-102.5 190t-37.5 265zM498 -553 l116 168h-114v276h260l14 -311l-209 -219z" />
<glyph horiz-adv-x="583" d="M82 -307v645h252v-133q8 22 22 43.5t40 47t69.5 40t97.5 10.5v-237q-59 0 -104 -21.5t-67.5 -52t-36.5 -60.5t-17 -51l-4 -22v-209h-252z" />
<glyph horiz-adv-x="1173" d="M-4 1176h405l183 -383l186 383h406l-410 -711v-465h-358v463zM352 1251l242 293h401l-336 -293h-307z" />
<glyph horiz-adv-x="1173" d="M-4 1176h405l183 -383l186 383h406l-410 -711v-465h-358v463zM266 1272v266h277v-266h-277zM633 1272v266h274v-266h-274z" />
<glyph d="M59 586q0 298 138 453t374 155q143 0 275 -43.5t291 -124.5l-162 -264q-217 108 -354 108q-96 0 -143.5 -75.5t-47.5 -206.5q0 -303 186 -303q94 0 201 102v39h-231v281h561v-707h-330v98q-132 -116 -289 -116q-96 0 -180 38t-149 111t-102.5 190t-37.5 265zM256 1524 h221q0 -34 33.5 -55t91.5 -21t93.5 21t35.5 55h221q0 -127 -92.5 -200t-257.5 -73q-163 0 -254.5 73t-91.5 200z" />
<glyph horiz-adv-x="2304" d="M31 121l141 264q86 -45 212 -84t198 -39q69 0 69 33q0 18 -11.5 31t-39.5 24t-51 18t-72 19t-76 19q-350 96 -350 356q0 149 108 242.5t314 93.5q119 0 270 -35q-24 55 -24 125q0 140 94 222.5t281 82.5h444v-530q90 62 176.5 98.5t188.5 36.5q311 0 311 -344v-754h-379 v664q0 70 -19.5 106.5t-72.5 36.5q-50 0 -104.5 -32t-100.5 -81v-694h-377v1333h-96q-83 0 -133.5 -46.5t-50.5 -135.5t41 -145l67 -29l-143 -244q-75 32 -178 58t-168 26q-70 0 -70 -37q0 -18 11 -30.5t37.5 -22.5t51.5 -16.5t71 -17.5t79 -21q354 -92 354 -359 q0 -154 -111 -245t-325 -91q-149 0 -307.5 43.5t-259.5 100.5z" />
<glyph horiz-adv-x="2238" d="M31 121l141 264q86 -45 212 -84t198 -39q69 0 69 33q0 18 -11.5 31t-39.5 24t-51 18t-72 19t-76 19q-350 96 -350 356q0 149 108 242.5t314 93.5q119 0 270 -35q-24 55 -24 125q0 140 94 222.5t281 82.5h444v-760l231 342h437l-342 -424l397 -651h-397l-222 375 l-104 -131v-244h-377v1333h-96q-83 0 -133.5 -46.5t-50.5 -135.5t41 -145l67 -29l-143 -244q-75 32 -178 58t-168 26q-70 0 -70 -37q0 -18 11 -30.5t37.5 -22.5t51.5 -16.5t71 -17.5t79 -21q354 -92 354 -359q0 -154 -111 -245t-325 -91q-149 0 -307.5 43.5t-259.5 100.5z " />
<glyph horiz-adv-x="1638" d="M31 121l141 264q86 -45 212 -84t198 -39q69 0 69 33q0 18 -11.5 31t-39.5 24t-51 18t-72 19t-76 19q-350 96 -350 356q0 149 108 242.5t314 93.5q119 0 270 -35q-24 55 -24 125q0 140 94 222.5t281 82.5h448v-1493h-379v1333h-98q-83 0 -133.5 -46.5t-50.5 -135.5 t41 -145l67 -29l-143 -244q-75 32 -178 58t-168 26q-70 0 -70 -37q0 -18 11 -30.5t37.5 -22.5t51.5 -16.5t71 -17.5t79 -21q354 -92 354 -359q0 -154 -111 -245t-325 -91q-149 0 -307.5 43.5t-259.5 100.5z" />
<glyph horiz-adv-x="1173" d="M-4 1176h405l183 -383l186 383h406l-410 -711v-465h-358v463zM184 1544h402l241 -293h-307z" />
<glyph d="M59 586q0 298 138 453t374 155q143 0 275 -43.5t291 -124.5l-162 -264q-217 108 -354 108q-96 0 -143.5 -75.5t-47.5 -206.5q0 -303 186 -303q94 0 201 102v39h-231v281h561v-707h-330v98q-132 -116 -289 -116q-96 0 -180 38t-149 111t-102.5 190t-37.5 265z" />
<glyph horiz-adv-x="784" d="M102 788v861h652v-219h-392v-105h308v-215h-308v-322h-260z" />
<glyph horiz-adv-x="784" d="M102 -307v860h652v-219h-392v-105h308v-215h-308v-321h-260z" />
<glyph horiz-adv-x="1044" d="M113 0v1176h901v-297h-541v-146h424v-293h-424v-440h-360z" />
<glyph horiz-adv-x="890" d="M35 1087v99h69v59h-69v101h80q27 155 120.5 236t233.5 81q68 0 141 -19t122.5 -40.5t127.5 -61.5l-117 -194q-155 79 -241 79q-80 0 -109 -81h209v-101h-227v-59h227v-99h-207q28 -77 107 -77q90 0 241 80l117 -195q-78 -40 -127.5 -61.5t-122.5 -40.5t-141 -19 q-139 0 -232 79t-122 234h-80z" />
<glyph horiz-adv-x="890" d="M35 -8v98h69v60h-69v100h80q27 155 120.5 236t233.5 81q68 0 141 -19t122.5 -40.5t127.5 -61.5l-117 -194q-157 80 -241 80q-80 0 -109 -82h209v-100h-227v-60h227v-98h-207q29 -78 107 -78q90 0 241 80l117 -195q-78 -40 -127.5 -61.5t-122.5 -40.5t-141 -19 q-138 0 -231.5 80t-122.5 234h-80z" />
<glyph horiz-adv-x="1255" d="M57 401v148h99v69h-99v148h113q39 211 166.5 319.5t320.5 108.5q138 0 263 -43t278 -125l-160 -264q-208 108 -331 108q-106 0 -152 -104h287v-148h-316v-69h316v-148h-283q46 -96 148 -96q119 0 331 107l160 -262q-153 -82 -278 -125t-263 -43q-192 0 -319 105.5 t-166 313.5h-115z" />
<glyph horiz-adv-x="423" d="M86 47v256h248v-256h-248zM86 -51h246l14 -291l-196 -193l-64 82l111 146h-111v256z" />
<glyph horiz-adv-x="423" d="M86 643l111 145h-111v256h246l14 -290l-196 -193zM86 1143v256h248v-256h-248z" />
<glyph horiz-adv-x="817" d="M-20 553h294l132 -279l135 279h295l-299 -522v-338h-261v342z" />
<glyph horiz-adv-x="1888" d="M49 539q0 142 38.5 252t105 175.5t149.5 98.5t178 33q89 0 195 -27q-15 40 -15 90q0 147 104 239.5t290 92.5q221 0 345 -108.5t124 -301.5v-8h268v-274h-268v-402q0 -31 7 -51.5t19.5 -29t23 -11t25.5 -2.5q39 0 129 45l129 -278q-200 -95 -364 -95q-181 0 -263.5 104.5 t-82.5 319.5v400h-135v274h135v31q0 118 -36.5 172.5t-119.5 54.5q-70 0 -119 -52t-49 -140q0 -80 39 -131q19 -7 48 -20t38 -17l-145 -279q-178 82 -254 82q-77 0 -116.5 -63.5t-39.5 -173.5t39.5 -175t116.5 -65q76 0 254 82l145 -279q-261 -125 -465 -125 q-96 0 -179 33.5t-150 99.5t-105.5 176.5t-38.5 252.5z" />
<glyph horiz-adv-x="688" d="M33 645v215h637v-203q-12 -15 -32 -41t-71.5 -104t-90.5 -153.5t-71 -175.5t-32 -183h-269q0 80 27.5 172.5t64 165.5t82.5 145t72 106.5t43 55.5h-360z" />
<glyph horiz-adv-x="688" d="M33 1219v215h637v-203q-12 -15 -32 -41t-71.5 -104t-90.5 -153.5t-71 -176t-32 -183.5h-269q0 80 27.5 172.5t64 165.5t82 145.5t72 107.5t43.5 55h-360z" />
<glyph horiz-adv-x="1046" d="M33 852v324h999v-304q-10 -13 -27 -36t-66 -96.5t-94 -149t-99.5 -185t-93.5 -212.5t-66 -224t-27 -227h-405q0 140 45.5 303.5t103 287.5t133 251.5t112 179.5t64.5 88h-579z" />
<glyph horiz-adv-x="1585" d="M49 539q0 142 38.5 252t105 175.5t149.5 98.5t178 33q87 0 201 -29q-21 61 -21 119q0 139 90 222t267 83h432v-1493h-379v1333h-61q-83 0 -135 -47t-52 -133q0 -85 45 -145l80 -35l-145 -279q-178 82 -254 82t-116 -64t-40 -173t40 -174.5t116 -65.5t254 82l145 -279 q-266 -125 -465 -125q-96 0 -179 33.5t-150 99.5t-105.5 176.5t-38.5 252.5z" />
<glyph horiz-adv-x="2185" d="M49 539q0 142 38.5 252t105 175.5t149.5 98.5t178 33q87 0 201 -29q-21 61 -21 119q0 139 90 222t267 83h428v-760l231 342h436l-342 -424l398 -651h-398l-221 375l-104 -131v-244h-377v1333h-59q-83 0 -135 -47t-52 -133q0 -85 45 -145l80 -35l-145 -279 q-178 82 -254 82t-116 -64t-40 -173t40 -174.5t116 -65.5t254 82l145 -279q-266 -125 -465 -125q-96 0 -179 33.5t-150 99.5t-105.5 176.5t-38.5 252.5z" />
<glyph horiz-adv-x="1515" d="M53 1006v170h543v-160q-11 -12 -28.5 -33.5t-62 -86t-79 -127t-62.5 -146t-28 -152.5h-213q0 81 33.5 174t83 171t81.5 121.5t54 68.5h-322zM291 0l538 1176h222l-539 -1176h-221zM823 195q0 122 152 192q-105 66 -105 154q0 79 72 127.5t203 48.5t203.5 -49t72.5 -127 q0 -89 -104 -154q151 -70 151 -192q0 -95 -84.5 -151t-238.5 -56q-153 0 -237.5 56t-84.5 151zM1030 213q0 -31 32 -51.5t83 -20.5q52 0 83.5 20.5t31.5 51.5q0 32 -30.5 54t-84.5 44q-56 -24 -85.5 -46.5t-29.5 -51.5zM1069 514q0 -36 74 -65q78 30 78 65q0 20 -20 37.5 t-56 17.5q-34 0 -55 -17.5t-21 -37.5z" />
<glyph horiz-adv-x="2250" d="M49 539q0 142 38.5 252t105 175.5t149.5 98.5t178 33q87 0 201 -29q-21 61 -21 119q0 139 90 222t267 83h428v-530q90 63 176 99t188 36q157 0 234.5 -89t77.5 -255v-754h-379v664q0 70 -19.5 106.5t-72.5 36.5q-49 0 -105 -32.5t-100 -80.5v-694h-377v1333h-59 q-83 0 -135 -47t-52 -133q0 -85 45 -145l80 -35l-145 -279q-178 82 -254 82t-116 -64t-40 -173t40 -174.5t116 -65.5t254 82l145 -279q-266 -125 -465 -125q-96 0 -179 33.5t-150 99.5t-105.5 176.5t-38.5 252.5z" />
<glyph horiz-adv-x="819" d="M-18 1649h294l132 -279l135 279h295l-299 -523v-338h-260v342z" />
<glyph horiz-adv-x="698" d="M27 -233l86 159q57 -27 136 -50t124 -23t45 22q0 12 -20 19.5t-67.5 16.5t-70.5 15q-221 57 -221 217q0 91 69 150t201 59q85 0 175.5 -22.5t156.5 -50.5l-86 -148q-140 49 -219 49q-45 0 -45 -22q0 -13 15.5 -20t67 -17.5t75.5 -16.5q219 -57 219 -219q0 -93 -70.5 -150 t-206.5 -57q-94 0 -196 27t-168 62z" />
<glyph horiz-adv-x="1298" d="M23 453v272h118v451h473q313 0 468 -139.5t155 -448.5t-155 -448.5t-468 -139.5h-473v453h-118zM504 303h76q74 0 123.5 10.5t92 40t63 87.5t20.5 147t-20.5 147t-63 87t-92 39.5t-123.5 10.5h-76v-147h201v-272h-201v-150z" />
<glyph horiz-adv-x="823" d="M49 362q0 110 39.5 204.5t110 162.5t172.5 106.5t223 38.5q37 0 72 -3.5t51 -6.5l16 -4l-59 -203q-35 9 -78 9q-186 0 -252 -154q76 47 168 47q118 0 196 -73t78 -193q0 -129 -96 -218t-258 -89q-97 0 -172.5 30.5t-120.5 84t-67.5 119.5t-22.5 142zM311 322 q1 -38 12.5 -65t30.5 -39.5t36 -17.5t34 -5q52 0 77 26.5t25 59.5q0 39 -29 63.5t-73 24.5q-72 0 -113 -47z" />
<glyph horiz-adv-x="823" d="M49 936q0 110 39.5 204.5t110 162.5t172.5 106.5t223 38.5q37 0 72 -3.5t51 -6.5l16 -4l-59 -203q-35 8 -78 8q-186 0 -252 -154q77 48 168 48q118 0 196 -73t78 -194q0 -129 -96 -218t-258 -89q-97 0 -172.5 31t-120.5 84t-67.5 119.5t-22.5 142.5zM311 895 q1 -38 12.5 -65t30.5 -39.5t36 -17.5t34 -5q52 0 77 26.5t25 59.5q0 39 -29 63.5t-73 24.5q-72 0 -113 -47z" />
<glyph horiz-adv-x="1257" d="M63 596q0 255 106.5 450.5t300 302.5t445.5 107q57 0 111 -5.5t79 -10.5l25 -6l-90 -306q-52 11 -122 11q-64 0 -122 -15t-115 -47.5t-103.5 -93.5t-75.5 -145q122 92 280 92q188 0 311.5 -123t123.5 -324q0 -103 -38.5 -194.5t-108 -161t-175 -110t-231.5 -40.5 q-122 0 -223 34t-170 92.5t-116.5 138t-69 168.5t-22.5 186zM461 545q1 -67 20 -118.5t49 -78.5t61 -40t62 -13q87 0 128.5 51t41.5 121q0 76 -48 125t-124 49q-108 0 -190 -96z" />
<glyph horiz-adv-x="501" d="M127 -207v694h248v-694h-248zM127 680v694h248v-694h-248z" />
<glyph horiz-adv-x="1132" d="M57 0v274l525 598h-490v304h963v-273l-523 -600h533v-303h-1008z" />
<glyph horiz-adv-x="526" d="M35 612v140h133v927h-133v140h393v-1207h-393z" />
<glyph horiz-adv-x="817" d="M102 788v861h652v-219h-392v-103h318v-215h-318v-104h398v-220h-658z" />
<glyph horiz-adv-x="849" d="M25 -152l532 1479h256l-532 -1479h-256z" />
<glyph horiz-adv-x="1091" d="M113 0v1176h901v-297h-541v-144h438v-295h-438v-143h549v-297h-6q-33 -21 -57 -39t-53 -43.5t-44.5 -53t-15.5 -54.5q0 -19 8.5 -32t19.5 -19.5t30 -10t29 -3.5t29.5 0.5t20.5 0.5l-33 -158q-1 0 -22.5 -0.5t-34 0t-39.5 2t-45.5 4.5t-45.5 10t-45.5 16t-39 23.5 t-33 32.5t-21 43.5t-8.5 55.5q0 126 183 225h-686z" />
<glyph horiz-adv-x="276" />
<glyph horiz-adv-x="276" />
<glyph horiz-adv-x="526" d="M35 -344h133v928h-133v139h393v-1206h-393v139z" />
<glyph horiz-adv-x="1308" d="M113 0v1176h366l357 -619v619h360v-1100q0 -48 -2 -80.5t-9 -68.5t-20 -61t-35 -52.5t-53.5 -47t-76.5 -40t-103.5 -37.5t-134.5 -33l-117 262q152 45 182 92l-354 615v-625h-360z" />
<glyph horiz-adv-x="1032" d="M76 0v238q7 1 18.5 3.5t42 14t55 27.5t47.5 48t29 72h-174v193h121q-4 7 -22.5 40.5t-25 45.5t-20.5 43.5t-19.5 52.5t-11 51.5t-5.5 61.5q0 145 97 224t277 79q79 0 153 -15.5t139 -44.5t105 -51t91 -55l-154 -227q-161 96 -256 96q-90 0 -90 -63q0 -42 48.5 -123 t62.5 -115h262v-193h-244q-20 -75 -80 -106h430v-297h-876z" />
<glyph horiz-adv-x="755" d="M68 -135q5 1 13.5 3t30.5 10.5t39.5 21t34.5 36t21 52.5h-127v141h90q-2 4 -14 25t-16 28.5t-13.5 26.5t-13.5 31.5t-9.5 31t-7.5 36.5t-2 38q0 105 70 163t198 58q58 0 111.5 -11t101.5 -33.5t74 -36.5t66 -40l-111 -163q-117 69 -186 69q-64 0 -64 -49q0 -30 35 -90 t45 -84h191v-141h-179q-15 -60 -57 -80h313v-215h-634v172z" />
<glyph horiz-adv-x="755" d="M66 788v173q5 1 13.5 2.5t30.5 10.5t39.5 21t34.5 35.5t21 52.5h-127v142h90q-2 4 -14 25t-16 28.5t-13.5 26.5t-13.5 31.5t-9.5 31t-7.5 36.5t-2 38q0 105 70 163t198 58q58 0 111.5 -11t101.5 -33.5t74 -36.5t66 -40l-111 -164q-118 70 -186 70q-64 0 -64 -49 q0 -30 35 -90t45 -84h191v-142h-179q-14 -58 -57 -79h313v-216h-634z" />
<glyph horiz-adv-x="714" d="M47 -49h180v1268h-180v190h541v-1649h-541v191z" />
<glyph horiz-adv-x="1091" d="M113 0v1176h901v-297h-541v-144h438v-295h-438v-143h549v-297h-909zM264 1303v215h608v-215h-608z" />
<glyph horiz-adv-x="817" d="M102 -307v860h652v-219h-392v-103h318v-215h-318v-104h398v-219h-658z" />
<glyph horiz-adv-x="1091" d="M113 0v1176h901v-297h-541v-144h438v-295h-438v-143h549v-297h-909zM160 1544h401l242 -293h-307z" />
<glyph horiz-adv-x="1091" d="M113 0v1176h901v-297h-541v-144h438v-295h-438v-143h549v-297h-909zM428 1272v266h277v-266h-277z" />
<glyph horiz-adv-x="1091" d="M113 0v1176h901v-297h-541v-144h438v-295h-438v-143h549v-297h-909zM248 1272v266h276v-266h-276zM614 1272v266h275v-266h-275z" />
<glyph horiz-adv-x="1091" d="M113 0v1176h901v-297h-541v-144h438v-295h-438v-143h549v-297h-909zM184 1251l211 293h342l211 -293h-252l-129 138l-129 -138h-254z" />
<glyph horiz-adv-x="794" d="M14 111l113 174q154 -82 256 -82q98 0 98 61q0 18 -8.5 32t-26 22t-33.5 13t-43.5 6.5t-42 2t-41.5 0.5h-10h-36v215h43h33t34 1.5t38 5.5t29.5 10t24 17.5t7.5 26.5q0 43 -68 43q-51 0 -114 -22.5t-111 -50.5l-105 162q172 126 375 126q142 0 212.5 -60.5t70.5 -154.5 q0 -121 -121 -184q69 -25 114.5 -84t45.5 -131q0 -53 -17 -99.5t-53 -87t-103 -64t-157 -23.5q-203 0 -404 125z" />
<glyph horiz-adv-x="794" d="M14 684l113 174q154 -82 256 -82q98 0 98 62q0 18 -8 31.5t-26 21.5t-33.5 13t-42.5 6.5t-41 2t-42 0.5h-12h-36v215h43q22 0 33 0.5t34.5 1.5t37.5 5t30 10.5t23.5 18t7.5 26.5q0 43 -68 43q-50 0 -113.5 -23t-111.5 -51l-105 162q173 127 375 127q142 0 212.5 -60.5 t70.5 -154.5q0 -121 -121 -184q69 -25 114.5 -84t45.5 -131q0 -53 -17 -99.5t-53 -87.5t-103 -64.5t-157 -23.5q-203 0 -404 125z" />
<glyph horiz-adv-x="1202" d="M10 -88l170 264q252 -133 406 -133q82 0 126 33t44 96q0 42 -24.5 72.5t-58 45.5t-85 24t-87 10.5t-83.5 1.5h-58v325h68q272 0 272 125q0 94 -118 94q-80 0 -177.5 -37t-177.5 -83l-157 243q271 201 577 201q114 0 202 -28t140.5 -77.5t78.5 -111.5t26 -135 q0 -204 -197 -314q111 -41 182.5 -140t71.5 -222q0 -70 -15.5 -132t-53 -121.5t-94.5 -102.5t-147 -69t-204 -26q-322 0 -627 197z" />
<glyph horiz-adv-x="1134" d="M59 0v274l525 598h-490v304h963v-273l-522 -600h532v-303h-1008zM344 1251l242 293h401l-336 -293h-307z" />
<glyph horiz-adv-x="526" d="M98 612v1207h394v-140h-134v-927h134v-140h-394z" />
<glyph horiz-adv-x="1691" d="M49 559l88 137q128 -69 221 -69q47 0 74 15.5t27 43.5q0 16 -8.5 28.5t-25.5 19.5t-33 11.5t-42 6t-40 2t-38 0.5h-32v170h36q31 0 49.5 1t47 5.5t43 17t14.5 31.5q0 39 -72 39q-84 0 -192 -60l-84 127q144 103 311 103q121 0 181.5 -50t60.5 -126q0 -103 -111 -152 q63 -21 103.5 -69.5t40.5 -108.5q0 -43 -14.5 -81t-46 -71t-88.5 -52t-134 -19q-181 0 -336 100zM465 0l539 1176h221l-539 -1176h-221zM997 195q0 120 152 192q-105 63 -105 154q0 79 72 127.5t203 48.5t203.5 -49t72.5 -127q0 -90 -106 -154q153 -69 153 -192 q0 -95 -84.5 -151t-238.5 -56t-238 56t-84 151zM1204 213q0 -31 31.5 -51.5t83.5 -20.5q51 0 83 20.5t32 51.5q0 32 -30.5 54t-84.5 44q-57 -24 -86 -45.5t-29 -52.5zM1243 514q0 -36 74 -65q78 30 78 65q0 20 -20.5 37.5t-55.5 17.5t-55.5 -17.5t-20.5 -37.5z" />
</font>
</defs>
</svg>
