<?xml version="1.0" standalone="no"?>
<!DOCTYPE svg PUBLIC "-//W3C//DTD SVG 1.1//EN" "http://www.w3.org/Graphics/SVG/1.1/DTD/svg11.dtd" >
<svg xmlns="http://www.w3.org/2000/svg">
<metadata></metadata>
<defs>
<font id="verbcompultra" horiz-adv-x="970" >
<font-face units-per-em="2048" ascent="1638" descent="-410" />
<missing-glyph horiz-adv-x="327" />
<glyph unicode="ff" horiz-adv-x="1355" d="M31 772v303h98q5 210 72.5 314t216.5 104q141 0 332 -98l-113 -256q-72 28 -98 28q-37 0 -37 -69v-23h153v-303h-153v-772h-373v772h-98zM709 772v303h98q5 210 72.5 314t216.5 104q140 0 331 -98l-124 -256q-65 28 -86 28q-37 0 -37 -69v-23h153v-303h-153v-772h-373 v772h-98z" />
<glyph unicode="fi" horiz-adv-x="1200" d="M31 772v303h98q5 210 72.5 314t216.5 104q123 0 266 -78l-76 -276q-51 28 -69 28q-37 0 -37 -69v-23h153v-303h-153v-772h-373v772h-98zM750 1174v313h380v-313h-380zM754 0v1075h372v-1075h-372z" />
<glyph unicode="fl" horiz-adv-x="1198" d="M31 772v303h98q5 210 72.5 314t216.5 104q123 0 266 -78l-76 -276q-51 28 -69 28q-37 0 -37 -69v-23h153v-303h-153v-772h-373v772h-98zM752 0v1493h372v-1493h-372z" />
<glyph unicode="ffi" horiz-adv-x="1878" d="M31 772v303h98q5 210 72.5 314t216.5 104q141 0 332 -98l-113 -256q-72 28 -98 28q-37 0 -37 -69v-23h153v-303h-153v-772h-373v772h-98zM709 772v303h98q5 210 72.5 314t216.5 104q123 0 266 -78l-76 -276q-51 28 -69 28q-37 0 -37 -69v-23h153v-303h-153v-772h-373v772 h-98zM1427 1174v313h381v-313h-381zM1432 0v1075h372v-1075h-372z" />
<glyph unicode="ffl" horiz-adv-x="1875" d="M31 772v303h98q5 210 72.5 314t216.5 104q141 0 332 -98l-113 -256q-72 28 -98 28q-37 0 -37 -69v-23h153v-303h-153v-772h-373v772h-98zM709 772v303h98q5 210 72.5 314t216.5 104q123 0 266 -78l-76 -276q-51 28 -69 28q-37 0 -37 -69v-23h153v-303h-153v-772h-373v772 h-98zM1430 0v1493h372v-1493h-372z" />
<glyph unicode="ffk" horiz-adv-x="2347" d="M31 772v303h98q5 210 72.5 314t216.5 104q141 0 332 -98l-113 -256q-72 28 -98 28q-37 0 -37 -69v-23h153v-303h-153v-772h-373v772h-98zM709 772v303h98q5 210 72.5 314t216.5 104q123 0 266 -78l-76 -276q-51 28 -69 28q-37 0 -37 -69v-23h153v-303h-153v-772h-373v772 h-98zM1430 0v1493h372v-655l101 237h421l-266 -420l305 -655h-389l-131 315l-41 -65v-250h-372z" />
<glyph unicode="ffj" horiz-adv-x="1875" d="M31 772v303h98q5 210 72.5 314t216.5 104q141 0 332 -98l-113 -256q-72 28 -98 28q-37 0 -37 -69v-23h153v-303h-153v-772h-373v772h-98zM709 772v303h98q5 210 72.5 314t216.5 104q123 0 266 -78l-76 -276q-51 28 -69 28q-37 0 -37 -69v-23h153v-303h-153v-772h-373v772 h-98zM1268 -188q42 21 68.5 36t45.5 34t28 31.5t14 39.5t5.5 46t0.5 62v1014h372v-979q0 -64 -0.5 -93.5t-3 -79t-7.5 -71.5t-15.5 -59.5t-25.5 -56t-38 -47.5t-53 -47t-71 -42t-91 -44t-113 -43zM1425 1174v313h381v-313h-381z" />
<glyph unicode="fft" horiz-adv-x="2103" d="M31 772v303h98q5 210 72.5 314t216.5 104q141 0 332 -98l-113 -256q-72 28 -98 28q-37 0 -37 -69v-23h153v-303h-153v-772h-373v772h-98zM709 772v303h98q5 210 72.5 314t216.5 104q140 0 331 -98l-124 -256q-65 28 -86 28q-37 0 -37 -69v-23h153v-303h-153v-772h-373 v772h-98zM1393 772v303h98v230l373 81v-311h194v-303h-194v-340q0 -26 3 -44t7 -26.5t10.5 -13.5t10 -5.5t8.5 -0.5q8 0 15.5 1.5t16.5 5.5t14.5 6.5t18.5 9.5t19 10l118 -299q-184 -99 -309 -99q-165 0 -235 102.5t-70 311.5v381h-98z" />
<glyph unicode="fh" horiz-adv-x="1685" d="M31 772v303h98q5 210 72.5 314t216.5 104q123 0 266 -78l-76 -276q-51 28 -69 28q-37 0 -37 -69v-23h153v-303h-153v-772h-373v772h-98zM752 0v1493h372v-524q45 38 64 52.5t55.5 37.5t70.5 31t75 8q107 0 167 -83.5t60 -242.5v-772h-373v690q0 86 -37 86q-46 0 -82 -92 v-684h-372z" />
<glyph unicode="fj" horiz-adv-x="1198" d="M31 772v303h98q5 210 72.5 314t216.5 104q123 0 266 -78l-76 -276q-51 28 -69 28q-37 0 -37 -69v-23h153v-303h-153v-772h-373v772h-98zM590 -188q42 21 68.5 36t45.5 34t28 31.5t14 39.5t5.5 46t0.5 62v1014h372v-979v-2q0 -70 -0.5 -102.5t-4 -85t-11 -77t-21 -63 t-35 -59t-52 -49.5t-73 -50t-96.5 -45.5t-124 -49.5zM748 1174v313h380v-313h-380z" />
<glyph unicode="fk" horiz-adv-x="1669" d="M31 772v303h98q5 210 72.5 314t216.5 104q123 0 266 -78l-76 -276q-51 28 -69 28q-37 0 -37 -69v-23h153v-303h-153v-772h-373v772h-98zM752 0v1493h372v-655l101 237h422l-267 -420l306 -655h-390l-131 315l-41 -65v-250h-372z" />
<glyph unicode="ft" horiz-adv-x="1419" d="M31 772v303h98q5 210 72.5 314t216.5 104q141 0 332 -98l-125 -256q-65 28 -86 28q-37 0 -37 -69v-23h153v-303h-153v-772h-373v772h-98zM709 772v303h98v230l373 81v-311h194v-303h-194v-340q0 -26 3 -44t7 -26.5t10.5 -13.5t10 -5.5t8.5 -0.5q8 0 15.5 1.5t16.5 5.5 t14.5 6.5t18.5 9.5t19 10l118 -299q-184 -99 -309 -99q-165 0 -235 102.5t-70 311.5v381h-98z" />
<glyph unicode="ffh" horiz-adv-x="2363" d="M31 772v303h98q5 210 72.5 314t216.5 104q141 0 332 -98l-113 -256q-72 28 -98 28q-37 0 -37 -69v-23h153v-303h-153v-772h-373v772h-98zM709 772v303h98q5 210 72.5 314t216.5 104q123 0 266 -78l-76 -276q-51 28 -69 28q-37 0 -37 -69v-23h153v-303h-153v-772h-373v772 h-98zM1430 0v1493h372v-524q39 33 51 42.5t44.5 32.5t52.5 30.5t51.5 15.5t64.5 8q107 0 167.5 -83.5t60.5 -242.5v-772h-373v690q0 86 -37 86q-46 0 -82 -92v-684h-372z" />
<glyph unicode="ffb" horiz-adv-x="2361" d="M31 772v303h98q5 210 72.5 314t216.5 104q141 0 332 -98l-113 -256q-72 28 -98 28q-37 0 -37 -69v-23h153v-303h-153v-772h-373v772h-98zM709 772v303h98q5 210 72.5 314t216.5 104q123 0 266 -78l-76 -276q-51 28 -69 28q-37 0 -37 -69v-23h153v-303h-153v-772h-373v772 h-98zM1430 0v1493h372v-516q60 64 106 92.5t113 28.5q146 0 222.5 -144.5t76.5 -414.5q0 -271 -76.5 -416.5t-222.5 -145.5q-67 0 -113.5 28t-105.5 91v-96h-372zM1802 410q37 -99 78 -99q66 0 66 228q0 225 -66 225q-20 0 -38.5 -20.5t-39.5 -77.5v-256z" />
<glyph unicode="fb" horiz-adv-x="1683" d="M31 772v303h98q5 210 72.5 314t216.5 104q123 0 266 -78l-76 -276q-51 28 -69 28q-37 0 -37 -69v-23h153v-303h-153v-772h-373v772h-98zM752 0v1493h372v-516q60 64 106 92.5t113 28.5q146 0 222.5 -144.5t76.5 -414.5q0 -271 -76.5 -416.5t-222.5 -145.5 q-67 0 -113.5 28t-105.5 91v-96h-372zM1124 410q37 -99 78 -99q66 0 66 228q0 225 -66 225q-20 0 -38.5 -20.5t-39.5 -77.5v-256z" />
<glyph unicode=" "  horiz-adv-x="327" />
<glyph unicode="&#x09;" horiz-adv-x="327" />
<glyph unicode="&#xa0;" horiz-adv-x="327" />
<glyph unicode="!" horiz-adv-x="573" d="M59 1434h455l-117 -936h-221zM109 0v387h356v-387h-356z" />
<glyph unicode="&#x22;" horiz-adv-x="782" d="M47 1434h336l-57 -588h-222zM399 1434h336l-57 -588h-221z" />
<glyph unicode="#" horiz-adv-x="1060" d="M51 281v309h148l26 254h-116v311h149l29 279h276l-28 -279h81l29 279h277l-29 -279h117v-311h-148l-26 -254h116v-309h-147l-29 -281h-278l28 281h-82l-28 -281h-277l29 281h-117zM475 590h82l27 254h-82z" />
<glyph unicode="$" horiz-adv-x="1052" d="M41 188l178 299q87 -59 178.5 -104t143.5 -45q55 0 55 47q0 25 -25 53.5t-57.5 51.5t-93.5 65.5t-105 77.5q-75 59 -126 112.5t-89.5 134.5t-38.5 171q0 71 21 136t62.5 119t109 91.5t154.5 50.5v192h260v-204q157 -37 319 -142l-180 -305q-192 107 -270 107 q-29 0 -46.5 -12t-17.5 -35q0 -33 36 -68t123 -94t122 -86q53 -40 92 -77.5t79 -89.5t61.5 -114.5t21.5 -132.5q0 -67 -19.5 -131t-58.5 -121t-106.5 -97.5t-155.5 -53.5v-189h-260v205q-203 50 -367 188z" />
<glyph unicode="%" horiz-adv-x="1505" d="M39 1071q0 181 74.5 283t232.5 102t232.5 -102t74.5 -283q0 -180 -74.5 -281.5t-232.5 -101.5t-232.5 101.5t-74.5 281.5zM297 1071q0 -76 9.5 -106.5t39.5 -30.5t39.5 30.5t9.5 106.5q0 77 -9.5 108t-39.5 31t-39.5 -31t-9.5 -108zM367 0l495 1434h273l-494 -1434h-274z M852 360q0 181 74.5 283t232.5 102t232.5 -102t74.5 -283q0 -180 -74.5 -281.5t-232.5 -101.5t-232.5 101.5t-74.5 281.5zM1110 360q0 -76 9.5 -106.5t39.5 -30.5t39.5 30.5t9.5 106.5q0 77 -9.5 108.5t-39.5 31.5t-39.5 -31.5t-9.5 -108.5z" />
<glyph unicode="&#x26;" horiz-adv-x="1167" d="M74 352q0 114 53.5 206.5t146.5 182.5q-64 96 -97.5 181.5t-33.5 177.5q0 157 96.5 256.5t268.5 99.5q117 0 201 -48.5t122.5 -124t38.5 -167.5q0 -107 -51.5 -201.5t-140.5 -193.5l65 -92q11 71 11 127h368q-9 -105 -47 -222.5t-100 -222.5l225 -311h-412l-43 61 q-124 -84 -274 -84q-176 0 -286.5 106.5t-110.5 268.5zM422 371q0 -39 23 -63.5t53 -24.5q32 0 75 28l-112 164q-39 -58 -39 -104zM451 1090q0 -58 51 -134q59 72 59 134q0 33 -14.5 55t-40.5 22t-40.5 -22t-14.5 -55z" />
<glyph unicode="'" horiz-adv-x="430" d="M47 1434h336l-57 -588h-222z" />
<glyph unicode="(" horiz-adv-x="614" d="M76 286v5v844q0 192 14 263q24 125 118 196q93 71 292 124l86 -223q-58 -33 -84.5 -67.5t-32.5 -69t-6 -105.5v-1081q0 -54 3 -82t15 -59t36.5 -53.5t68.5 -47.5l-86 -223q-64 17 -115 34t-92 39.5t-72 40t-53.5 47.5t-38.5 50t-26 59t-15.5 63t-8 74.5t-3 80t-0.5 91.5z " />
<glyph unicode=")" horiz-adv-x="614" d="M29 -70q58 33 84.5 67.5t32.5 69t6 105.5v1081q0 54 -3 82t-15 59t-36.5 53.5t-68.5 47.5l86 223q64 -17 115 -34t92 -39t72 -40t53.5 -47.5t38.5 -49.5t26 -59.5t15.5 -63t8 -74t3 -80t0.5 -91.5v-5v-844q0 -192 -14 -264q-24 -125 -118 -196t-292 -124z" />
<glyph unicode="*" horiz-adv-x="862" d="M39 1001l303 50l-303 51l151 264l197 -240l-108 291h305l-109 -291l193 240l153 -264l-284 -49l284 -52l-153 -264l-187 224l103 -277h-305l108 291l-197 -238z" />
<glyph unicode="+" horiz-adv-x="1024" d="M133 535v299h227v270h299v-270h230v-299h-230v-273h-299v273h-227z" />
<glyph unicode="," horiz-adv-x="514" d="M76 0v428h356l17 -487l-283 -320l-88 135l153 244h-155z" />
<glyph unicode="-" horiz-adv-x="688" d="M76 418v330h536v-330h-536z" />
<glyph unicode="." horiz-adv-x="507" d="M76 0v428h356v-428h-356z" />
<glyph unicode="/" horiz-adv-x="763" d="M25 -184l448 1802h268l-448 -1802h-268z" />
<glyph unicode="0" horiz-adv-x="1091" d="M57 717q0 177 27.5 311.5t86 231t153 146.5t223.5 50t223.5 -50t152.5 -146.5t85.5 -231t27.5 -311.5q0 -740 -491 -740q-254 0 -371 190t-117 550zM446 717q0 -159 10 -247t31 -123.5t58 -35.5t58 35t31.5 123.5t10.5 247.5t-10 246.5t-30.5 123t-57.5 35.5t-58.5 -34.5 t-32 -123t-10.5 -247.5z" />
<glyph unicode="1" horiz-adv-x="788" d="M-10 1190l323 244h373v-1434h-387v1042l-147 -110z" />
<glyph unicode="2" horiz-adv-x="1013" d="M43 0v170q0 75 19 149t47 131.5t69.5 116.5t76 97.5t77.5 80.5q15 14 45 43t45.5 44.5t40 41t37.5 42.5t27 38t20 40t6 36q0 28 -16.5 48t-47.5 20q-74 0 -237 -127l-184 268q34 32 72.5 62t102 69t143.5 62.5t163 23.5q102 0 180.5 -36.5t124 -96.5t68 -129.5 t22.5 -144.5q0 -249 -256 -498q-15 -15 -38 -37.5t-35.5 -35.5t-30 -30.5t-26.5 -28.5t-18.5 -23t-13.5 -21.5t-4 -16.5h424v-358h-903z" />
<glyph unicode="3" horiz-adv-x="1001" d="M16 184l181 285q187 -125 270 -125q40 0 66 27.5t26 70.5q0 40 -23.5 67.5t-62.5 39.5t-70 16t-63 4h-39v351h47q21 0 46 4t55.5 14t50.5 32.5t20 53.5q0 9 -2 19t-8 22.5t-21 20.5t-36 8q-80 0 -226 -109l-168 260q242 211 478 211q118 0 203.5 -49.5t126 -128.5 t40.5 -178q0 -58 -13.5 -107.5t-40.5 -89t-46.5 -61.5t-50.5 -51q89 -49 140.5 -144.5t51.5 -224.5q0 -82 -22.5 -157t-69.5 -141.5t-131.5 -106.5t-196.5 -40q-259 0 -512 207z" />
<glyph unicode="4" horiz-adv-x="1132" d="M29 236v296l399 902h516v-840h146v-358h-146v-236h-387v236h-528zM367 594h190v426z" />
<glyph unicode="5" horiz-adv-x="1003" d="M23 190l188 293q48 -41 80 -65t78 -47t82 -23q50 0 79 35.5t29 93.5q0 54 -27 96.5t-88 42.5q-66 0 -143 -69l-215 133l53 754h772v-359h-432v-117q44 7 76 7q102 0 179.5 -40t123 -108.5t68 -153t22.5 -180.5q0 -103 -26 -192t-77.5 -160.5t-137.5 -112.5t-197 -41 q-68 0 -135.5 16t-118 39t-100 54.5t-78 55t-55.5 48.5z" />
<glyph unicode="6" horiz-adv-x="1024" d="M53 623q0 140 30.5 266.5t90 229.5t142.5 178.5t194.5 117t239.5 41.5q48 0 92.5 -5.5t65.5 -10.5l20 -6l-90 -338q-41 10 -84 10q-85 0 -159 -57.5t-114 -182.5q70 66 170 66q143 0 239.5 -120.5t96.5 -319.5q0 -150 -51.5 -265t-156 -182.5t-249.5 -67.5 q-98 0 -177.5 32t-135 89t-92.5 138t-54.5 178t-17.5 209zM444 557q2 -229 88 -229q68 0 68 139q0 147 -76 147q-51 0 -80 -57z" />
<glyph unicode="7" horiz-adv-x="864" d="M45 1075v359h799v-338q-14 -22 -37 -61.5t-82.5 -162.5t-105 -246.5t-82.5 -296.5t-37 -329h-398q0 152 32.5 315.5t75.5 284t96.5 234.5t83 164.5t46.5 76.5h-391z" />
<glyph unicode="8" horiz-adv-x="1064" d="M49 383q0 137 58.5 230.5t158.5 164.5q-149 124 -149 320q0 154 108.5 256t306.5 102q199 0 307.5 -102t108.5 -256q0 -195 -149 -322q217 -151 217 -393q0 -87 -29 -159.5t-87 -128.5t-152 -87t-216 -31q-239 0 -361 112.5t-122 293.5zM438 412q0 -49 23.5 -80t70.5 -31 t71 31t24 80q0 105 -95 190q-94 -81 -94 -190zM467 1071q0 -83 65 -135q66 56 66 135q0 27 -15.5 50.5t-50.5 23.5t-50 -23.5t-15 -50.5z" />
<glyph unicode="9" horiz-adv-x="1026" d="M39 942q0 230 120 372t337 142q122 0 215 -48.5t149.5 -136t84.5 -203.5t28 -257q0 -140 -30.5 -266.5t-90 -230t-142.5 -179t-194.5 -117t-239.5 -41.5q-48 0 -92.5 5.5t-65.5 11.5l-20 6l90 338q39 -10 84 -10q84 0 157.5 56.5t113.5 180.5q-67 -63 -168 -63 q-143 0 -239.5 120.5t-96.5 319.5zM426 967q0 -148 76 -148q52 0 80 55q-5 232 -88 232q-68 0 -68 -139z" />
<glyph unicode=":" horiz-adv-x="540" d="M92 0v428h357v-428h-357zM92 592v428h357v-428h-357z" />
<glyph unicode=";" horiz-adv-x="546" d="M92 0v428h357l16 -487l-283 -320l-88 135l154 244h-156zM92 592v428h357v-428h-357z" />
<glyph unicode="&#x3c;" horiz-adv-x="1024" d="M111 545v276l755 410v-400l-340 -149l340 -154v-393z" />
<glyph unicode="=" horiz-adv-x="1024" d="M133 328v309h756v-309h-756zM133 735v309h756v-309h-756z" />
<glyph unicode="&#x3e;" horiz-adv-x="1024" d="M158 135v400l340 149l-340 154v393l755 -410v-276z" />
<glyph unicode="?" horiz-adv-x="864" d="M35 1286q27 25 61.5 49.5t86.5 54.5t118.5 48t134.5 18q169 0 278 -109t109 -276q0 -289 -356 -469l-14 -104h-217l-17 325q116 48 164.5 94t48.5 101q0 17 -3.5 32t-19.5 31.5t-44 16.5q-64 0 -158 -82zM166 0v387h356v-387h-356z" />
<glyph unicode="@" horiz-adv-x="1378" d="M47 518q0 260 76 459.5t224.5 313.5t350.5 114q197 0 339 -115.5t212.5 -313t71.5 -456.5q0 -96 -6.5 -174t-27 -159.5t-53.5 -137t-90.5 -90.5t-133.5 -35q-57 0 -103 25.5t-73 66t-42.5 80t-21.5 78.5q-100 -129 -215 -129q-112 0 -175 84.5t-63 226.5q0 147 69 228.5 t185 81.5q26 0 57.5 -5.5t53.5 -11t50 -14t36 -10.5v61q0 74 -20.5 104.5t-67.5 30.5q-98 0 -234 -71l-84 196q214 98 371 98q155 0 222 -87.5t67 -282.5v-281q0 -153 12 -223t53 -70q52 0 81.5 108t29.5 322q0 124 -19 235t-59 206t-98 164t-140.5 108t-181.5 39 q-170 0 -291.5 -102t-180 -272t-58.5 -390q0 -221 56.5 -393t166 -270.5t256.5 -98.5q72 0 137.5 20.5t95.5 41.5l29 20l62 -100q-5 -4 -14 -11t-40.5 -25.5t-67.5 -32t-93.5 -25t-118.5 -11.5q-173 0 -308.5 113.5t-209.5 315t-74 456.5zM578 383q0 -115 65 -115 q23 0 56.5 22.5t68.5 69.5v123q-5 1 -31.5 9.5t-45.5 13t-34 4.5q-38 0 -58.5 -33.5t-20.5 -93.5z" />
<glyph unicode="A" horiz-adv-x="1130" d="M2 0l348 1434h430l348 -1434h-415l-33 217h-227l-33 -217h-418zM502 555h127l-64 416z" />
<glyph unicode="B" horiz-adv-x="1099" d="M92 0v1434h440q484 0 484 -347q0 -133 -59.5 -217t-129.5 -100q25 -5 53.5 -19.5t62.5 -45.5t61 -72.5t45 -106t18 -139.5q0 -387 -477 -387h-498zM479 330h27q94 0 136 32.5t42 104.5q0 71 -39 101t-123 30h-43v-268zM479 903h29q69 0 97 23t28 75q0 55 -29.5 79 t-97.5 24h-27v-201z" />
<glyph unicode="C" horiz-adv-x="1005" d="M49 717q0 366 117.5 552.5t333.5 186.5q118 0 226 -40t265 -122l-162 -323q-84 38 -114 51t-75.5 28t-74.5 15q-68 0 -93.5 -88.5t-25.5 -259.5t25.5 -259.5t93.5 -88.5q29 0 74.5 15t75.5 28t114 51l162 -324q-77 -40 -126 -63.5t-114.5 -49.5t-126.5 -37.5t-124 -11.5 q-216 0 -333.5 187t-117.5 553z" />
<glyph unicode="D" horiz-adv-x="1142" d="M92 0v1434h383q317 0 468 -169.5t151 -547.5t-151 -547.5t-468 -169.5h-383zM479 367h17q39 0 68.5 7.5t58.5 30t47 60t29.5 101.5t11.5 151t-11.5 151t-29.5 101.5t-47 60t-58.5 30t-68.5 7.5h-17v-700z" />
<glyph unicode="E" horiz-adv-x="985" d="M92 0v1434h828v-367h-441v-170h352v-358h-352v-172h447v-367h-834z" />
<glyph unicode="F" horiz-adv-x="946" d="M92 0v1434h828v-367h-441v-172h342v-358h-342v-537h-387z" />
<glyph unicode="G" horiz-adv-x="1095" d="M49 725q0 359 121 545t340 186q87 0 185 -26.5t163 -55.5t168 -80l-162 -323q-172 72 -225 85q-36 9 -64 9q-39 0 -65 -25t-39.5 -77t-19 -118t-5.5 -163q0 -47 1.5 -82t5.5 -76.5t12 -71t21 -55t33.5 -38.5t47.5 -13q65 0 103 82v94h-156v338h516v-860h-360v100 q-102 -123 -219 -123q-82 0 -153.5 46.5t-127.5 136.5t-88.5 235.5t-32.5 329.5z" />
<glyph unicode="H" horiz-adv-x="1155" d="M92 0v1434h387v-502h197v502h387v-1434h-387v573h-197v-573h-387z" />
<glyph unicode="I" horiz-adv-x="571" d="M92 0v1434h387v-1434h-387z" />
<glyph unicode="J" horiz-adv-x="569" d="M-70 -100q35 17 60 32.5t43 28t29 29.5t17.5 28.5t9 35t3 38.5t0.5 49v1293h387v-1268q0 -63 -0.5 -92t-3 -77.5t-8 -71t-16 -60t-25.5 -56t-38.5 -48t-54 -47.5t-71.5 -42.5t-92 -45.5t-115 -44z" />
<glyph unicode="K" horiz-adv-x="1153" d="M92 0v1434h387v-420l221 420h471l-405 -633l391 -801h-457l-180 418l-41 -66v-352h-387z" />
<glyph unicode="L" horiz-adv-x="929" d="M92 0v1434h387v-1067h424v-367h-811z" />
<glyph unicode="M" horiz-adv-x="1331" d="M92 0v1434h391l183 -607l182 607h391v-1434h-387v633l-111 -393h-151l-111 393v-633h-387z" />
<glyph unicode="N" horiz-adv-x="1177" d="M92 0v1434h389l217 -639v639h387v-1434h-389l-217 639v-639h-387z" />
<glyph unicode="O" horiz-adv-x="1193" d="M45 717q0 739 553 739q551 0 551 -739q0 -740 -551 -740q-553 0 -553 740zM442 717q0 -89 6.5 -152t23 -114.5t48 -77t78.5 -25.5q46 0 77 25.5t47.5 77t23 114.5t6.5 152t-6.5 151.5t-23 114t-47.5 77t-77 25.5q-47 0 -78.5 -25.5t-48 -77t-23 -114t-6.5 -151.5z" />
<glyph unicode="P" horiz-adv-x="1083" d="M92 0v1434h410q123 0 218 -24t157 -66t101.5 -104.5t56 -134.5t16.5 -161q0 -112 -27.5 -197t-89 -151.5t-170.5 -101.5t-262 -35h-23v-459h-387zM479 813h29q76 0 115 27t39 104t-39 104t-115 27h-29v-262z" />
<glyph unicode="Q" horiz-adv-x="1193" d="M45 717q0 739 553 739q551 0 551 -739q0 -444 -199 -621l170 -182l-250 -293l-272 356q-553 0 -553 740zM442 717q0 -89 6.5 -152t23 -114.5t48 -77t78.5 -25.5q46 0 77 25.5t47.5 77t23 114.5t6.5 152t-6.5 151.5t-23 114t-47.5 77t-77 25.5q-47 0 -78.5 -25.5t-48 -77 t-23 -114t-6.5 -151.5z" />
<glyph unicode="R" horiz-adv-x="1124" d="M92 0v1434h436q125 0 219.5 -21.5t157 -60t102 -97t56 -128t16.5 -158.5q0 -154 -53.5 -256.5t-177.5 -155.5l233 -557h-407l-195 479v-479h-387zM479 840h62q74 0 111.5 26t37.5 103t-38 103t-113 26h-60v-258z" />
<glyph unicode="S" horiz-adv-x="1032" d="M29 188l178 299q88 -60 178.5 -104.5t142.5 -44.5q25 0 40.5 12t15.5 35q0 25 -25 53.5t-57.5 51.5t-93.5 65.5t-105 77.5q-75 59 -126 112.5t-89.5 134.5t-38.5 171q0 80 26.5 151.5t78.5 129t137.5 91t193.5 33.5q239 0 490 -162l-180 -305q-192 107 -271 107 q-29 0 -46 -12t-17 -35q0 -33 35.5 -68t123 -94.5t121.5 -85.5q53 -40 92 -77.5t79 -89.5t61.5 -114.5t21.5 -132.5q0 -75 -24 -145t-73 -130.5t-134 -97.5t-195 -37q-150 0 -292 61.5t-248 149.5z" />
<glyph unicode="T" horiz-adv-x="948" d="M29 1067v367h891v-367h-248v-1067h-387v1067h-256z" />
<glyph unicode="U" horiz-adv-x="1140" d="M82 530v904h387v-947q0 -67 20.5 -103t79.5 -36q61 0 82 36.5t21 102.5v947h387v-904q0 -83 -7 -147.5t-26 -130.5t-54 -113.5t-88 -85.5t-132.5 -57t-182.5 -19q-102 0 -181 19t-131.5 57t-87.5 85.5t-53.5 113.5t-26 130.5t-7.5 147.5z" />
<glyph unicode="V" horiz-adv-x="1126" d="M0 1434h426l137 -854l139 854h424l-348 -1434h-430z" />
<glyph unicode="W" horiz-adv-x="1517" d="M12 1434h437l71 -637l101 637h276l100 -637l72 637h438l-278 -1434h-357l-114 717l-113 -717h-356z" />
<glyph unicode="X" horiz-adv-x="1089" d="M-10 0l317 737l-301 697h436l101 -357l102 357h436l-301 -697l320 -737h-447l-108 346l-111 -346h-444z" />
<glyph unicode="Y" horiz-adv-x="1067" d="M-4 1434h426l110 -381l113 381h426l-344 -863v-571h-387v571z" />
<glyph unicode="Z" horiz-adv-x="1003" d="M45 0v322l428 745h-397v367h864v-320l-426 -747h434v-367h-903z" />
<glyph unicode="[" horiz-adv-x="649" d="M90 -293v2011h526v-231h-139v-1548h139v-232h-526z" />
<glyph unicode="\" horiz-adv-x="765" d="M23 1618h268l450 -1802h-270z" />
<glyph unicode="]" horiz-adv-x="649" d="M33 -61h139v1548h-139v231h526v-2011h-526v232z" />
<glyph unicode="^" horiz-adv-x="1024" d="M63 627l256 807h383l256 -807h-376l-72 415l-70 -415h-377z" />
<glyph unicode="_" horiz-adv-x="1081" d="M72 -125h938v-293h-938v293z" />
<glyph unicode="`" horiz-adv-x="387" d="M-84 1493h375l180 -297h-299z" />
<glyph unicode="a" d="M31 334q0 161 78.5 253.5t218.5 92.5q31 0 64.5 -5.5t54.5 -11t49 -14t34 -10.5v39q0 63 -19.5 85.5t-68.5 22.5q-41 0 -93 -14t-154 -53l-117 278q246 101 459 101q193 0 279.5 -95.5t86.5 -314.5v-688h-373v109q-49 -62 -102.5 -97t-128.5 -35q-87 0 -149.5 51 t-90.5 130t-28 176zM406 377q0 -40 13.5 -62t35.5 -22t43 20t32 47v84q-50 25 -65 25q-25 0 -42 -22.5t-17 -69.5z" />
<glyph unicode="b" horiz-adv-x="1005" d="M74 0v1493h372v-516q60 63 106.5 92t113.5 29q146 0 222.5 -144.5t76.5 -414.5q0 -271 -76.5 -416.5t-222.5 -145.5q-68 0 -114.5 28.5t-105.5 90.5v-96h-372zM446 410q37 -99 78 -99q66 0 66 228q0 225 -66 225q-20 0 -38.5 -20.5t-39.5 -77.5v-256z" />
<glyph unicode="c" horiz-adv-x="802" d="M39 539q0 144 29.5 254t81.5 175t117.5 97.5t142.5 32.5q150 0 376 -121l-145 -305q-71 41 -100 55t-52 14q-25 0 -40 -14.5t-22 -45.5t-9 -61.5t-2 -80.5t2 -81t8.5 -62.5t21.5 -46.5t39 -15q19 0 46.5 11t47 22t60.5 36l145 -305q-226 -121 -376 -121q-77 0 -142.5 33 t-117.5 99t-81.5 176.5t-29.5 253.5z" />
<glyph unicode="d" horiz-adv-x="1005" d="M41 539q0 270 76.5 414.5t222.5 144.5q66 0 111.5 -28.5t107.5 -92.5v516h373v-1493h-373v96q-61 -63 -107 -91t-112 -28q-146 0 -222.5 145.5t-76.5 416.5zM416 539q0 -228 65 -228q41 0 78 99v256q-37 98 -78 98q-65 0 -65 -225z" />
<glyph unicode="e" horiz-adv-x="907" d="M39 535q0 268 106 415.5t314 147.5q134 0 227.5 -63.5t137.5 -170.5t44 -248q0 -44 -4 -84.5t-8 -59.5l-4 -19h-438q2 -89 18.5 -129.5t63.5 -40.5q32 0 84 23.5t155 82.5l137 -246q-241 -166 -432 -166q-181 0 -291 138.5t-110 419.5zM414 664h118l-1.5 49.5t-4 38 t-9.5 31.5t-17 17t-27 7q-24 0 -37 -18t-17 -46t-5 -79z" />
<glyph unicode="f" horiz-adv-x="677" d="M31 772v303h98q5 210 72.5 314t216.5 104q141 0 332 -98l-125 -256q-65 28 -86 28q-37 0 -37 -69v-23h153v-303h-153v-772h-373v772h-98z" />
<glyph unicode="g" horiz-adv-x="1005" d="M41 539q0 270 76.5 414.5t222.5 144.5q66 0 111.5 -28.5t107.5 -92.5v98h373v-1063q0 -233 -86.5 -341.5t-302.5 -108.5q-108 0 -234.5 25.5t-236.5 68.5l90 305q192 -78 295 -78q60 0 81 30t21 93v90q-61 -63 -107 -91t-112 -28q-146 0 -222.5 145.5t-76.5 416.5z M416 539q0 -228 65 -228q41 0 78 99v256q-37 98 -78 98q-65 0 -65 -225z" />
<glyph unicode="h" horiz-adv-x="1007" d="M74 0v1493h372v-524q45 38 64 52.5t55.5 37.5t70.5 31t75 8q107 0 167 -83.5t60 -242.5v-772h-373v690q0 86 -37 86q-46 0 -82 -92v-684h-372z" />
<glyph unicode="i" horiz-adv-x="520" d="M70 1174v313h381v-313h-381zM74 0v1075h372v-1075h-372z" />
<glyph unicode="j" horiz-adv-x="520" d="M-88 -188q42 21 68.5 36t45.5 34t28 31.5t14 39.5t5.5 46t0.5 62v1014h372v-979v-2q0 -70 -0.5 -102.5t-4 -85t-11 -77t-21 -63t-35 -59t-52 -49.5t-73 -50t-96.5 -45.5t-124 -49.5zM70 1174v313h381v-313h-381z" />
<glyph unicode="k" horiz-adv-x="991" d="M74 0v1493h372v-655l101 237h422l-267 -420l306 -655h-390l-131 315l-41 -65v-250h-372z" />
<glyph unicode="l" horiz-adv-x="520" d="M74 0v1493h372v-1493h-372z" />
<glyph unicode="m" horiz-adv-x="1433" d="M74 0v1075h372v-119q107 142 228 142q72 0 127 -44t82 -126q111 170 252 170q105 0 167 -84.5t62 -241.5v-772h-373v649q0 39 -0.5 53.5t-3 36.5t-9 29.5t-17.5 7.5q-35 0 -56 -59v-717h-373v649q0 92 -7 110q-8 16 -23 17q-34 0 -56 -63v-713h-372z" />
<glyph unicode="n" horiz-adv-x="1007" d="M74 0v1075h372v-104q68 63 127.5 95t137.5 32q107 0 167 -83.5t60 -242.5v-772h-373v690q0 86 -37 86q-46 0 -82 -92v-684h-372z" />
<glyph unicode="o" d="M37 539q0 559 448 559q449 0 449 -561q0 -560 -449 -560q-225 0 -336.5 144.5t-111.5 417.5zM412 539q0 -130 14.5 -187t58.5 -57q45 0 59.5 56.5t14.5 185.5t-15 186t-59 57t-58.5 -56t-14.5 -185z" />
<glyph unicode="p" horiz-adv-x="1005" d="M74 -418v1493h372v-98q60 63 106.5 92t113.5 29q146 0 222.5 -144.5t76.5 -414.5q0 -271 -76.5 -416.5t-222.5 -145.5q-68 0 -114.5 28.5t-105.5 90.5v-514h-372zM446 410q37 -99 78 -99q66 0 66 228q0 225 -66 225q-20 0 -38.5 -20.5t-39.5 -77.5v-256z" />
<glyph unicode="q" horiz-adv-x="1005" d="M41 539q0 270 76.5 414.5t222.5 144.5q65 0 111 -29t108 -92v98h373v-1493h-373v514q-61 -63 -107 -91t-112 -28q-146 0 -222.5 145.5t-76.5 416.5zM416 539q0 -228 65 -228q41 0 78 99v256q-37 98 -78 98q-65 0 -65 -225z" />
<glyph unicode="r" horiz-adv-x="739" d="M74 0v1075h372v-219q81 232 244 232q12 0 25 -1v-393q-68 0 -121 -36t-79.5 -87t-43.5 -102t-21 -87l-4 -36v-346h-372z" />
<glyph unicode="s" horiz-adv-x="876" d="M27 123l135 258q63 -41 146.5 -75t125.5 -34q41 0 41 31q0 24 -39 44q-16 8 -60 26q-18 8 -28 12q-48 20 -87.5 42t-82 55.5t-71.5 71.5t-47.5 91t-18.5 113q0 67 22 127t64.5 108t113 76.5t160.5 28.5q109 0 223 -37.5t193 -85.5l-133 -246q-55 28 -120.5 51t-100.5 23 q-47 0 -47 -35q0 -5 1.5 -9.5t4.5 -8.5t7 -7.5t11.5 -7.5t14 -7t18 -8t21.5 -9t26.5 -10.5t30.5 -12.5q43 -18 77 -35.5t78.5 -50.5t74 -70.5t50.5 -93.5t21 -121q0 -68 -22 -128t-65.5 -108t-116 -76t-165.5 -28q-122 0 -250.5 44t-205.5 102z" />
<glyph unicode="t" horiz-adv-x="747" d="M37 772v303h98v230l373 81v-311h194v-303h-194v-340q0 -26 3 -44t7 -26.5t10.5 -13.5t10 -5.5t8.5 -0.5q8 0 15.5 1.5t16.5 5.5t14.5 6.5t18.5 9.5t19 10l119 -299q-184 -99 -310 -99q-165 0 -235 102.5t-70 311.5v381h-98z" />
<glyph unicode="u" horiz-adv-x="1007" d="M70 303v772h372v-690q0 -86 37 -86q26 0 47.5 28.5t34.5 61.5v686h373v-1075h-373v104q-68 -63 -127 -95t-137 -32q-107 0 -167 83.5t-60 242.5z" />
<glyph unicode="v" horiz-adv-x="952" d="M6 1075h389l80 -532l84 532h387l-284 -1075h-371z" />
<glyph unicode="w" horiz-adv-x="1323" d="M16 1075h394l47 -448l82 448h245l82 -452l47 452h394l-222 -1075h-327l-96 500l-95 -500h-329z" />
<glyph unicode="x" horiz-adv-x="983" d="M-8 0l270 543l-254 532h412l72 -246l71 246h410l-252 -528l270 -547h-430l-69 256l-70 -256h-430z" />
<glyph unicode="y" horiz-adv-x="952" d="M6 1075h389l80 -594l82 594h389l-391 -1493h-395l141 367z" />
<glyph unicode="z" horiz-adv-x="942" d="M47 0v279l354 454h-340v342h828v-278l-357 -455h357v-342h-842z" />
<glyph unicode="{" horiz-adv-x="651" d="M16 600v225q50 0 80.5 17t40.5 46t12.5 67.5t-2.5 80.5l-16 191q-11 130 19.5 227t94.5 153.5t146.5 83.5t183.5 27h25v-223h-25q-72 0 -57 -242l10 -137q13 -189 -54 -281.5t-212 -121.5q96 -20 155.5 -64t89.5 -128.5t21 -211.5l-10 -137q-15 -242 57 -242h25v-223h-25 q-80 0 -149 16.5t-128.5 54t-99 93.5t-58.5 140t-9 188l16 190q6 42 3.5 80.5t-13 67.5t-41 46t-80.5 17z" />
<glyph unicode="|" horiz-adv-x="442" d="M90 -252v1927h262v-1927h-262z" />
<glyph unicode="}" horiz-adv-x="651" d="M51 -70h25q72 0 57 242l-10 137q-13 189 54 282t212 122q-96 20 -155.5 64t-89.5 128t-21 211l10 137q15 242 -57 242h-25v223h25q101 0 183.5 -27t147 -83.5t95 -153.5t18.5 -227l-16 -191q-6 -42 -3.5 -80.5t13 -67.5t41 -46t80.5 -17v-225q-50 0 -80.5 -17t-40.5 -46 t-12.5 -67.5t2.5 -80.5l16 -190q9 -104 -9.5 -188t-58.5 -140t-99.5 -93.5t-128 -54t-148.5 -16.5h-25v223z" />
<glyph unicode="~" horiz-adv-x="1024" d="M35 426q23 84 49.5 147t63.5 118t88 83.5t114 28.5q39 0 79 -15.5t72.5 -38t62 -45t58 -38t50.5 -15.5q32 0 56.5 26t59.5 107l199 -94q-23 -84 -49.5 -147.5t-64 -117.5t-88.5 -83t-113 -29q-42 0 -92 23.5t-88 52.5t-79 52.5t-67 23.5q-31 0 -54.5 -26t-58.5 -107z" />
<glyph unicode="&#xa1;" horiz-adv-x="577" d="M61 0l117 936h221l117 -936h-455zM111 1047v387h356v-387h-356z" />
<glyph unicode="&#xa2;" horiz-adv-x="868" d="M55 719q0 256 90.5 394.5t233.5 160.5v160h258v-197q95 -35 188 -88l-151 -301q-125 74 -164 74q-26 0 -42.5 -14t-24 -44.5t-9.5 -61.5t-2 -83t2 -83.5t9.5 -62.5t24 -45t42.5 -14q39 0 164 74l151 -301q-93 -53 -188 -88v-199h-258v162q-68 10 -125 48t-102.5 104 t-71 169.5t-25.5 235.5z" />
<glyph unicode="&#xa3;" horiz-adv-x="933" d="M66 0v289q6 1 15 4.5t34 18.5t45 35t39.5 58.5t25.5 86.5h-145v235h113q-7 19 -30.5 79t-34 92t-21.5 89.5t-11 112.5q0 169 87 262.5t251 93.5q218 0 455 -201l-180 -258q-113 101 -181 101q-43 0 -43 -62q0 -50 38.5 -147.5t51.5 -161.5h209v-235h-198 q-12 -76 -54 -134h342v-358h-808z" />
<glyph unicode="&#xa5;" horiz-adv-x="1140" d="M33 1434h426l110 -381l113 381h426l-250 -623h125v-233h-217l-2 -7v-88h219v-233h-219v-250h-387v250h-219v233h219v88l-2 7h-217v233h123z" />
<glyph unicode="&#xa6;" horiz-adv-x="442" d="M90 -252v846h262v-846h-262zM90 829v846h262v-846h-262z" />
<glyph unicode="&#xa7;" horiz-adv-x="940" d="M53 633q0 155 127 237q-104 101 -104 248q0 66 22 125.5t64.5 107.5t113 76.5t160.5 28.5q109 0 223 -37.5t193 -85.5l-133 -241q-55 28 -121 50.5t-102 22.5q-45 0 -45 -35q0 -20 19.5 -32t91.5 -41q16 -7 24 -10q301 -121 301 -371q0 -73 -32 -135.5t-95 -102.5 q104 -108 104 -248q0 -66 -22 -125.5t-64.5 -107.5t-113 -76t-160.5 -28q-109 0 -223.5 37t-192.5 85l133 242q56 -29 121.5 -51.5t101.5 -22.5q45 0 45 35q0 22 -23 35t-112 49q-301 121 -301 371zM406 668q0 -20 16.5 -35.5t69.5 -40.5q43 14 43 49q0 20 -17.5 35 t-71.5 39q-40 -10 -40 -47z" />
<glyph unicode="&#xa8;" horiz-adv-x="393" d="M-82 1217v280h254v-280h-254zM221 1217v280h254v-280h-254z" />
<glyph unicode="&#xa9;" horiz-adv-x="1566" d="M53 717q0 156 49 290.5t140 234.5t230.5 157t311.5 57t311 -57t230 -157t139.5 -234.5t48.5 -290.5t-48.5 -290.5t-139.5 -234.5t-230 -157.5t-311 -57.5t-311.5 57.5t-230.5 157.5t-140 234.5t-49 290.5zM135 717q0 -141 43 -261t123 -209.5t204 -140.5t277 -51 q154 0 278.5 51t205.5 140.5t124.5 209.5t43.5 261q0 140 -43.5 260.5t-124.5 210t-205.5 140t-278.5 50.5q-203 0 -351.5 -88t-222 -236t-73.5 -337zM414 715q0 212 101.5 329t254.5 117q72 0 143 -23t109 -45.5t90 -58.5l-63 -73q-38 30 -68.5 49.5t-89 40t-117.5 20.5 q-114 0 -184 -97.5t-70 -258.5q0 -159 70 -256t184 -97q59 0 118 20.5t88.5 39t68.5 47.5l63 -72q-52 -36 -90 -58.5t-109 -45.5t-143 -23q-152 0 -254 117t-102 328z" />
<glyph unicode="&#xaa;" horiz-adv-x="667" d="M43 991q0 94 49 150.5t137 56.5q19 0 40 -3t34 -6.5t30.5 -8.5t20.5 -6v12q0 35 -11 46t-40 11q-49 0 -153 -31l-78 183q159 53 293 53q125 0 180 -60t55 -196v-404h-246v64q-63 -78 -143 -78q-82 0 -125 63.5t-43 153.5zM289 1020q0 -39 26 -39q23 0 39 33v35 q-24 12 -35 12q-30 0 -30 -41z" />
<glyph unicode="&#xab;" horiz-adv-x="999" d="M37 416v246l426 415v-444l-123 -94l123 -95v-444zM494 416v246l426 415v-444l-123 -94l123 -95v-444z" />
<glyph unicode="&#xac;" horiz-adv-x="1024" d="M70 528v310h860v-654h-309v344h-551z" />
<glyph unicode="&#xad;" horiz-adv-x="688" d="M76 418v330h536v-330h-536z" />
<glyph unicode="&#xae;" horiz-adv-x="768" d="M49 1137q0 147 89.5 242.5t244.5 95.5q156 0 246 -95.5t90 -242.5t-90 -242.5t-246 -95.5q-155 0 -244.5 95.5t-89.5 242.5zM123 1137q0 -120 67 -195.5t193 -75.5q127 0 194.5 75.5t67.5 195.5q0 118 -67.5 194t-194.5 76q-125 0 -192.5 -76t-67.5 -194zM258 971v340 h158q53 0 83.5 -27.5t30.5 -71.5q0 -38 -22 -63t-59 -33l77 -145h-69l-76 141h-57v-141h-66zM324 1171h92q51 0 51 41q0 21 -10.5 31t-38.5 10h-94v-82z" />
<glyph unicode="&#xaf;" horiz-adv-x="473" d="M0 1247v234h473v-234h-473z" />
<glyph unicode="&#xb0;" horiz-adv-x="710" d="M39 1120q0 131 92.5 224.5t224.5 93.5q130 0 223 -93.5t93 -224.5q0 -132 -92.5 -224.5t-223.5 -92.5q-132 0 -224.5 92.5t-92.5 224.5zM264 1120q0 -37 27 -64.5t65 -27.5q37 0 63.5 27.5t26.5 64.5t-26.5 63.5t-63.5 26.5q-38 0 -65 -26.5t-27 -63.5z" />
<glyph unicode="&#xb1;" horiz-adv-x="1024" d="M133 0v260h756v-260h-756zM133 590v309h223v238h310v-238h223v-309h-223v-238h-310v238h-223z" />
<glyph unicode="&#xb2;" horiz-adv-x="661" d="M35 788v107q0 178 180 344q13 12 38.5 34.5t39.5 35.5t30 30t23.5 32t7.5 28q0 12 -9 21.5t-28 9.5q-45 0 -147 -76l-119 172q144 137 305 137q64 0 114.5 -23t79.5 -60.5t43.5 -80.5t14.5 -88q0 -150 -159 -293q-13 -12 -32 -28.5t-29.5 -25.5t-21.5 -19.5t-15.5 -16 t-4.5 -8.5h262v-232h-573z" />
<glyph unicode="&#xb3;" horiz-adv-x="655" d="M18 905l117 185q115 -78 170 -78q23 0 38 13t15 32q0 61 -135 61h-24v228h30q105 0 105 49q0 5 -1.5 10.5t-11 13.5t-26.5 8q-49 0 -141 -65l-109 168q153 133 305 133q111 0 173.5 -62.5t62.5 -154.5q0 -36 -8 -65.5t-26.5 -53t-28 -34t-31.5 -29.5q55 -31 86.5 -88 t31.5 -132q0 -49 -14 -94.5t-43 -86t-82.5 -65t-124.5 -24.5q-169 0 -328 131z" />
<glyph unicode="&#xb4;" horiz-adv-x="387" d="M-84 1196l180 297h375l-254 -297h-301z" />
<glyph unicode="&#xb5;" horiz-adv-x="1048" d="M90 -418v1493h373v-690q0 -86 37 -86q26 0 47.5 28.5t34.5 61.5v686h372v-1075h-372v104q-73 -65 -119 -90v-432h-373z" />
<glyph unicode="&#xb6;" horiz-adv-x="1249" d="M35 897q0 141 36.5 247t100.5 168t143.5 92t173.5 30h302v-1813h-306v737q-69 0 -132 18t-121.5 59.5t-102 102.5t-69 153.5t-25.5 205.5zM836 -379v1813h305v-1813h-305z" />
<glyph unicode="&#xb7;" horiz-adv-x="507" d="M76 371v428h356v-428h-356z" />
<glyph unicode="&#xb8;" horiz-adv-x="284" d="M-29 -348l66 192q32 -22 57 -22q47 0 47 59q0 24 -8 55t-16 50l-8 18h151q6 -10 15 -28t23.5 -70t14.5 -99q0 -105 -55.5 -154.5t-136.5 -49.5q-90 0 -150 49z" />
<glyph unicode="&#xb9;" horiz-adv-x="583" d="M2 1497l205 152h242v-861h-250v609l-93 -66z" />
<glyph unicode="&#xba;" horiz-adv-x="649" d="M41 1112q0 336 285 336q284 0 284 -338q0 -336 -284 -336q-285 0 -285 338zM287 1112q0 -71 7 -100t32 -29q17 0 25.5 15.5t11 40t2.5 71.5q0 71 -7 100t-32 29q-17 0 -25.5 -15.5t-11 -40t-2.5 -71.5z" />
<glyph unicode="&#xbb;" horiz-adv-x="1001" d="M80 0v444l123 95l-123 94v444l426 -415v-246zM537 0v444l122 95l-122 94v444l426 -415v-246z" />
<glyph unicode="&#xbc;" horiz-adv-x="1507" d="M31 1282l205 152h241v-861h-250v609l-92 -66zM338 0l450 1434h269l-451 -1434h-268zM784 135v191l248 534h336v-493h90v-232h-90v-135h-252v135h-332zM1006 367h110v235z" />
<glyph unicode="&#xbd;" horiz-adv-x="1495" d="M31 1282l205 152h241v-861h-250v609l-92 -66zM338 0l450 1434h269l-451 -1434h-268zM858 0v106q0 179 180 345q14 13 39 34.5t39.5 35t30.5 30t23.5 31.5t7.5 28q0 12 -9 21.5t-28 9.5q-46 0 -148 -76l-119 172q144 137 306 137q65 0 115 -22.5t79 -60t43.5 -80.5 t14.5 -88q0 -149 -160 -293q-12 -11 -32 -28.5t-29.5 -26t-21 -19.5t-16 -16.5t-4.5 -8.5h263v-231h-574z" />
<glyph unicode="&#xbe;" horiz-adv-x="1597" d="M37 690l117 184q113 -77 170 -77q23 0 38 13t15 32q0 61 -135 61h-25v227h31q104 0 104 50q0 5 -1.5 10.5t-11 13.5t-26.5 8q-49 0 -141 -65l-109 168q153 133 306 133q111 0 173 -62.5t62 -154.5q0 -36 -8 -65.5t-26.5 -53t-28 -34t-31.5 -29.5q55 -32 87 -88.5 t32 -131.5q0 -49 -14 -94.5t-43 -86t-82.5 -65t-124.5 -24.5q-169 0 -328 131zM438 0l451 1434h268l-450 -1434h-269zM885 135v191l248 534h335v-493h91v-232h-91v-135h-251v135h-332zM1106 367h111v235z" />
<glyph unicode="&#xbf;" horiz-adv-x="866" d="M41 362q0 289 356 469l15 105h217l16 -326q-116 -49 -164.5 -94t-48.5 -100q0 -16 3.5 -31.5t20 -32t44.5 -16.5q63 0 157 82l172 -271q-27 -25 -61.5 -49.5t-86.5 -54.5t-118.5 -48t-134.5 -18q-169 0 -278 109t-109 276zM342 1047v387h356v-387h-356z" />
<glyph unicode="&#xc0;" horiz-adv-x="1130" d="M2 0l348 1434h430l348 -1434h-415l-33 217h-227l-33 -217h-418zM219 1802h375l180 -297h-299zM502 555h127l-64 416z" />
<glyph unicode="&#xc1;" horiz-adv-x="1130" d="M2 0l348 1434h430l348 -1434h-415l-33 217h-227l-33 -217h-418zM358 1505l181 297h374l-254 -297h-301zM502 555h127l-64 416z" />
<glyph unicode="&#xc2;" horiz-adv-x="1130" d="M2 0l348 1434h430l348 -1434h-415l-33 217h-227l-33 -217h-418zM240 1505l166 297h319l166 -297h-244l-82 129l-82 -129h-243zM502 555h127l-64 416z" />
<glyph unicode="&#xc3;" horiz-adv-x="1130" d="M2 0l348 1434h430l348 -1434h-415l-33 217h-227l-33 -217h-418zM233 1595q48 126 74 168q54 86 133 86q37 0 84.5 -24t87.5 -48t58 -24q39 0 75 94l148 -88q-48 -126 -74 -168q-54 -86 -131 -86q-38 0 -85.5 24t-87.5 48.5t-58 24.5q-37 0 -76 -95zM502 555h127l-64 416z " />
<glyph unicode="&#xc4;" horiz-adv-x="1130" d="M2 0l348 1434h430l348 -1434h-415l-33 217h-227l-33 -217h-418zM287 1536v281h254v-281h-254zM502 555h127l-64 416zM590 1536v281h254v-281h-254z" />
<glyph unicode="&#xc5;" horiz-adv-x="1130" d="M2 0l348 1434h430l348 -1434h-415l-33 217h-227l-33 -217h-418zM350 1702q0 90 63.5 153.5t153.5 63.5q89 0 153 -64t64 -153q0 -90 -63.5 -153.5t-153.5 -63.5q-91 0 -154 63t-63 154zM502 555h127l-64 416zM514 1702q0 -23 15 -38t38 -15q22 0 38 15t16 38 q0 22 -16 37.5t-38 15.5q-23 0 -38 -15.5t-15 -37.5z" />
<glyph unicode="&#xc6;" horiz-adv-x="1703" d="M-51 0l649 1434h1040v-367h-440v-170h352v-358h-352v-172h447v-367h-834v217h-307l-90 -217h-465zM647 567h164v396z" />
<glyph unicode="&#xc7;" horiz-adv-x="1005" d="M49 717q0 366 117.5 552.5t333.5 186.5q118 0 226 -40t265 -122l-162 -323q-84 38 -114 51t-75.5 28t-74.5 15q-68 0 -93.5 -88.5t-25.5 -259.5t25.5 -259.5t93.5 -88.5q29 0 74.5 15t75.5 28t114 51l162 -324q-122 -65 -211 -102t-180 -51q43 -95 43 -179 q0 -105 -55.5 -154.5t-136.5 -49.5q-90 0 -150 49l66 192q32 -22 57 -22q47 0 47 59q0 32 -22 101q-192 21 -296 206.5t-104 528.5z" />
<glyph unicode="&#xc8;" horiz-adv-x="985" d="M92 0v1434h828v-367h-441v-170h352v-358h-352v-172h447v-367h-834zM162 1802h375l180 -297h-299z" />
<glyph unicode="&#xc9;" horiz-adv-x="985" d="M92 0v1434h828v-367h-441v-170h352v-358h-352v-172h447v-367h-834zM303 1505l180 297h375l-254 -297h-301z" />
<glyph unicode="&#xca;" horiz-adv-x="985" d="M92 0v1434h828v-367h-441v-170h352v-358h-352v-172h447v-367h-834zM184 1505l166 297h320l166 -297h-244l-82 129l-82 -129h-244z" />
<glyph unicode="&#xcb;" horiz-adv-x="985" d="M92 0v1434h828v-367h-441v-170h352v-358h-352v-172h447v-367h-834zM231 1526v280h254v-280h-254zM535 1526v280h253v-280h-253z" />
<glyph unicode="&#xcc;" horiz-adv-x="569" d="M-63 1802h374l181 -297h-299zM92 0v1434h387v-1434h-387z" />
<glyph unicode="&#xcd;" horiz-adv-x="571" d="M78 1505l180 297h375l-254 -297h-301zM92 0v1434h387v-1434h-387z" />
<glyph unicode="&#xce;" horiz-adv-x="571" d="M-41 1505l166 297h319l166 -297h-243l-82 129l-82 -129h-244zM92 0v1434h387v-1434h-387z" />
<glyph unicode="&#xcf;" horiz-adv-x="571" d="M6 1522v280h254v-280h-254zM92 0v1434h387v-1434h-387zM309 1522v280h254v-280h-254z" />
<glyph unicode="&#xd0;" horiz-adv-x="1167" d="M16 553v330h101v551h383q317 0 467.5 -169.5t150.5 -547.5t-150.5 -547.5t-467.5 -169.5h-383v553h-101zM504 367h16q39 0 68.5 7.5t58.5 30t47 60t29.5 101.5t11.5 151t-11.5 151t-29.5 101.5t-47 60t-58.5 30t-68.5 7.5h-16v-184h145v-330h-145v-186z" />
<glyph unicode="&#xd1;" horiz-adv-x="1177" d="M92 0v1434h389l217 -639v639h387v-1434h-389l-217 639v-639h-387zM264 1616q48 126 74 168q54 86 133 86q37 0 84 -24t87 -48t58 -24q40 0 76 94l148 -88q-48 -126 -74 -168q-54 -86 -131 -86q-38 0 -86 24t-88 48t-58 24q-37 0 -75 -94z" />
<glyph unicode="&#xd2;" horiz-adv-x="1193" d="M45 717q0 739 553 739q551 0 551 -739q0 -740 -551 -740q-553 0 -553 740zM250 1802h375l180 -297h-299zM442 717q0 -89 6.5 -152t23 -114.5t48 -77t78.5 -25.5q46 0 77 25.5t47.5 77t23 114.5t6.5 152t-6.5 151.5t-23 114t-47.5 77t-77 25.5q-47 0 -78.5 -25.5t-48 -77 t-23 -114t-6.5 -151.5z" />
<glyph unicode="&#xd3;" horiz-adv-x="1193" d="M45 717q0 739 553 739q551 0 551 -739q0 -740 -551 -740q-553 0 -553 740zM391 1505l180 297h375l-254 -297h-301zM442 717q0 -89 6.5 -152t23 -114.5t48 -77t78.5 -25.5q46 0 77 25.5t47.5 77t23 114.5t6.5 152t-6.5 151.5t-23 114t-47.5 77t-77 25.5q-47 0 -78.5 -25.5 t-48 -77t-23 -114t-6.5 -151.5z" />
<glyph unicode="&#xd4;" horiz-adv-x="1193" d="M45 717q0 739 553 739q551 0 551 -739q0 -740 -551 -740q-553 0 -553 740zM270 1505l166 297h320l166 -297h-244l-82 129l-82 -129h-244zM442 717q0 -89 6.5 -152t23 -114.5t48 -77t78.5 -25.5q46 0 77 25.5t47.5 77t23 114.5t6.5 152t-6.5 151.5t-23 114t-47.5 77 t-77 25.5q-47 0 -78.5 -25.5t-48 -77t-23 -114t-6.5 -151.5z" />
<glyph unicode="&#xd5;" horiz-adv-x="1193" d="M45 717q0 739 553 739q551 0 551 -739q0 -740 -551 -740q-553 0 -553 740zM264 1595q48 126 74 168q54 86 133 86q37 0 84 -24t87 -48t58 -24q40 0 76 94l148 -88q-48 -126 -74 -168q-54 -86 -131 -86q-30 0 -66.5 15t-65 33.5t-57 33.5t-43.5 15q-36 0 -75 -95zM442 717 q0 -89 6.5 -152t23 -114.5t48 -77t78.5 -25.5q46 0 77 25.5t47.5 77t23 114.5t6.5 152t-6.5 151.5t-23 114t-47.5 77t-77 25.5q-47 0 -78.5 -25.5t-48 -77t-23 -114t-6.5 -151.5z" />
<glyph unicode="&#xd6;" horiz-adv-x="1193" d="M45 717q0 739 553 739q551 0 551 -739q0 -740 -551 -740q-553 0 -553 740zM319 1526v280h254v-280h-254zM442 717q0 -89 6.5 -152t23 -114.5t48 -77t78.5 -25.5q46 0 77 25.5t47.5 77t23 114.5t6.5 152t-6.5 151.5t-23 114t-47.5 77t-77 25.5q-47 0 -78.5 -25.5t-48 -77 t-23 -114t-6.5 -151.5zM623 1526v280h254v-280h-254z" />
<glyph unicode="&#xd7;" horiz-adv-x="1024" d="M141 455l176 235l-176 236l244 188l125 -168l127 168l244 -188l-179 -236l179 -235l-244 -189l-127 168l-125 -168z" />
<glyph unicode="&#xd8;" horiz-adv-x="1193" d="M45 717q0 739 553 739q157 0 266 -59l21 37h248l-107 -187q123 -186 123 -530q0 -740 -551 -740q-153 0 -266 58l-21 -35h-248l105 182q-123 186 -123 535zM442 662l230 399q-30 24 -74 24q-47 0 -78.5 -25.5t-48 -77t-23 -114t-6.5 -151.5v-55zM522 371q29 -23 76 -23 q46 0 77 25.5t47.5 77t23 114.5t6.5 152v51z" />
<glyph unicode="&#xd9;" horiz-adv-x="1140" d="M82 530v904h387v-947q0 -67 20.5 -103t79.5 -36q61 0 82 36.5t21 102.5v947h387v-904q0 -83 -7 -147.5t-26 -130.5t-54 -113.5t-88 -85.5t-132.5 -57t-182.5 -19q-102 0 -181 19t-131.5 57t-87.5 85.5t-53.5 113.5t-26 130.5t-7.5 147.5zM223 1802h375l180 -297h-299z " />
<glyph unicode="&#xda;" horiz-adv-x="1140" d="M82 530v904h387v-947q0 -67 20.5 -103t79.5 -36q61 0 82 36.5t21 102.5v947h387v-904q0 -83 -7 -147.5t-26 -130.5t-54 -113.5t-88 -85.5t-132.5 -57t-182.5 -19q-102 0 -181 19t-131.5 57t-87.5 85.5t-53.5 113.5t-26 130.5t-7.5 147.5zM365 1505l180 297h375l-254 -297 h-301z" />
<glyph unicode="&#xdb;" horiz-adv-x="1140" d="M82 530v904h387v-947q0 -67 20.5 -103t79.5 -36q61 0 82 36.5t21 102.5v947h387v-904q0 -83 -7 -147.5t-26 -130.5t-54 -113.5t-88 -85.5t-132.5 -57t-182.5 -19q-102 0 -181 19t-131.5 57t-87.5 85.5t-53.5 113.5t-26 130.5t-7.5 147.5zM244 1505l166 297h319l166 -297 h-244l-82 129l-82 -129h-243z" />
<glyph unicode="&#xdc;" horiz-adv-x="1140" d="M82 530v904h387v-947q0 -67 20.5 -103t79.5 -36q61 0 82 36.5t21 102.5v947h387v-904q0 -83 -7 -147.5t-26 -130.5t-54 -113.5t-88 -85.5t-132.5 -57t-182.5 -19q-102 0 -181 19t-131.5 57t-87.5 85.5t-53.5 113.5t-26 130.5t-7.5 147.5zM293 1526v280h254v-280h-254z M596 1526v280h254v-280h-254z" />
<glyph unicode="&#xdd;" horiz-adv-x="1067" d="M-4 1434h426l110 -381l113 381h426l-344 -863v-571h-387v571zM328 1505l180 297h375l-254 -297h-301z" />
<glyph unicode="&#xde;" horiz-adv-x="1083" d="M92 0v1434h387v-205h23q123 0 218 -24t157 -66t101.5 -104.5t56 -134.5t16.5 -161q0 -112 -27.5 -197t-89 -151.5t-170.5 -101.5t-262 -35h-23v-254h-387zM479 608h29q76 0 115 27t39 104t-39 104t-115 27h-29v-262z" />
<glyph unicode="&#xdf;" horiz-adv-x="1239" d="M74 0v922q0 70 5 127.5t19.5 118.5t38 108t63 90t93 70.5t129.5 44t170 16.5q119 0 213 -26t151 -67.5t94.5 -98t51.5 -111t14 -113.5q0 -63 -17 -117t-33 -77l-17 -23q-48 -13 -88.5 -41t-40.5 -65q0 -23 18.5 -40.5t45.5 -30.5t68.5 -41t75.5 -64q103 -106 103 -252 q0 -150 -91.5 -251.5t-254.5 -101.5q-93 0 -200.5 32.5t-199.5 78.5l136 258q130 -74 188 -74q49 0 49 39q0 26 -43 51q-2 1 -37 20.5t-54.5 32.5t-54 44.5t-53.5 63.5t-35 83t-16 109q0 213 189 325q2 6 2 21q0 57 -33 96t-115 39q-92 0 -127 -66t-35 -235v-895h-372z" />
<glyph unicode="&#xe0;" d="M31 334q0 161 78.5 253.5t218.5 92.5q31 0 64.5 -5.5t54.5 -11t49 -14t34 -10.5v39q0 63 -19.5 85.5t-68.5 22.5q-41 0 -93 -14t-154 -53l-117 278q246 101 459 101q193 0 279.5 -95.5t86.5 -314.5v-688h-373v109q-49 -62 -102.5 -97t-128.5 -35q-87 0 -149.5 51 t-90.5 130t-28 176zM143 1493h375l180 -297h-299zM406 377q0 -40 13.5 -62t35.5 -22t43 20t32 47v84q-50 25 -65 25q-25 0 -42 -22.5t-17 -69.5z" />
<glyph unicode="&#xe1;" d="M31 334q0 161 78.5 253.5t218.5 92.5q31 0 64.5 -5.5t54.5 -11t49 -14t34 -10.5v39q0 63 -19.5 85.5t-68.5 22.5q-41 0 -93 -14t-154 -53l-117 278q246 101 459 101q193 0 279.5 -95.5t86.5 -314.5v-688h-373v109q-49 -62 -102.5 -97t-128.5 -35q-87 0 -149.5 51 t-90.5 130t-28 176zM285 1196l180 297h375l-254 -297h-301zM406 377q0 -40 13.5 -62t35.5 -22t43 20t32 47v84q-50 25 -65 25q-25 0 -42 -22.5t-17 -69.5z" />
<glyph unicode="&#xe2;" d="M31 334q0 161 78.5 253.5t218.5 92.5q31 0 64.5 -5.5t54.5 -11t49 -14t34 -10.5v39q0 63 -19.5 85.5t-68.5 22.5q-41 0 -93 -14t-154 -53l-117 278q246 101 459 101q193 0 279.5 -95.5t86.5 -314.5v-688h-373v109q-49 -62 -102.5 -97t-128.5 -35q-87 0 -149.5 51 t-90.5 130t-28 176zM164 1196l166 297h319l166 -297h-244l-82 129l-81 -129h-244zM406 377q0 -40 13.5 -62t35.5 -22t43 20t32 47v84q-50 25 -65 25q-25 0 -42 -22.5t-17 -69.5z" />
<glyph unicode="&#xe3;" d="M31 334q0 161 78.5 253.5t218.5 92.5q31 0 64.5 -5.5t54.5 -11t49 -14t34 -10.5v39q0 63 -19.5 85.5t-68.5 22.5q-41 0 -93 -14t-154 -53l-117 278q246 101 459 101q193 0 279.5 -95.5t86.5 -314.5v-688h-373v109q-49 -62 -102.5 -97t-128.5 -35q-87 0 -149.5 51 t-90.5 130t-28 176zM162 1286q48 126 74 168q54 86 133 86q37 0 84 -24t87 -48t58 -24q40 0 76 94l147 -88q-48 -126 -74 -168q-54 -86 -131 -86q-38 0 -85.5 24t-87.5 48t-58 24q-38 0 -76 -94zM406 377q0 -40 13.5 -62t35.5 -22t43 20t32 47v84q-50 25 -65 25 q-25 0 -42 -22.5t-17 -69.5z" />
<glyph unicode="&#xe4;" d="M31 334q0 161 78.5 253.5t218.5 92.5q31 0 64.5 -5.5t54.5 -11t49 -14t34 -10.5v39q0 63 -19.5 85.5t-68.5 22.5q-41 0 -93 -14t-154 -53l-117 278q246 101 459 101q193 0 279.5 -95.5t86.5 -314.5v-688h-373v109q-49 -62 -102.5 -97t-128.5 -35q-87 0 -149.5 51 t-90.5 130t-28 176zM213 1217v280h254v-280h-254zM406 377q0 -40 13.5 -62t35.5 -22t43 20t32 47v84q-50 25 -65 25q-25 0 -42 -22.5t-17 -69.5zM516 1217v280h254v-280h-254z" />
<glyph unicode="&#xe5;" d="M31 334q0 161 78.5 253.5t218.5 92.5q31 0 64.5 -5.5t54.5 -11t49 -14t34 -10.5v39q0 63 -19.5 85.5t-68.5 22.5q-41 0 -93 -14t-154 -53l-117 278q246 101 459 101q193 0 279.5 -95.5t86.5 -314.5v-688h-373v109q-49 -62 -102.5 -97t-128.5 -35q-87 0 -149.5 51 t-90.5 130t-28 176zM274 1393q0 89 64 153t154 64q89 0 153 -64t64 -153q0 -90 -63.5 -153.5t-153.5 -63.5q-91 0 -154.5 63t-63.5 154zM406 377q0 -40 13.5 -62t35.5 -22t43 20t32 47v84q-50 25 -65 25q-25 0 -42 -22.5t-17 -69.5zM438 1393q0 -23 15.5 -38.5t38.5 -15.5 q22 0 37.5 15.5t15.5 38.5q0 22 -15.5 37.5t-37.5 15.5q-23 0 -38.5 -15.5t-15.5 -37.5z" />
<glyph unicode="&#xe6;" horiz-adv-x="1390" d="M31 334q0 161 78.5 253.5t218.5 92.5q23 0 46.5 -2.5t46.5 -8t37.5 -9.5t36.5 -11t27 -8q4 42 8 59q-3 49 -23 67.5t-65 18.5q-41 0 -93 -14t-154 -53l-117 278q246 101 459 101q129 0 208 -43q84 43 193 43q134 0 228 -63.5t138 -170.5t44 -248q0 -44 -4 -84.5t-8 -59.5 l-5 -19h-438q2 -89 18.5 -129.5t63.5 -40.5q32 0 84 23.5t155 82.5l138 -246q-241 -166 -432 -166q-229 0 -334 205q-70 -107 -138 -156t-149 -49q-87 0 -149.5 51t-90.5 130t-28 176zM406 377q0 -40 13.5 -62t35.5 -22t44 21t31 48q-8 58 -10 89q-41 18 -55 18 q-25 0 -42 -22.5t-17 -69.5zM893 664h119q-1 40 -2.5 60.5t-7.5 42.5t-18 31t-32 9q-24 0 -37 -18t-17 -46t-5 -79z" />
<glyph unicode="&#xe7;" horiz-adv-x="802" d="M39 539q0 144 29.5 254t81.5 175t117.5 97.5t142.5 32.5q150 0 376 -121l-145 -305q-71 41 -100 55t-52 14q-25 0 -40 -14.5t-22 -45.5t-9 -61.5t-2 -80.5t2 -81t8.5 -62.5t21.5 -46.5t39 -15q19 0 46.5 11t47 22t60.5 36l145 -305q-179 -95 -305 -114q43 -83 43 -177 q0 -105 -55.5 -154.5t-136.5 -49.5q-90 0 -150 49l66 192q32 -22 57 -22q47 0 47 59q0 47 -26 107q-129 33 -208 171t-79 380z" />
<glyph unicode="&#xe8;" horiz-adv-x="907" d="M39 535q0 268 106 415.5t314 147.5q134 0 227.5 -63.5t137.5 -170.5t44 -248q0 -44 -4 -84.5t-8 -59.5l-4 -19h-438q2 -89 18.5 -129.5t63.5 -40.5q32 0 84 23.5t155 82.5l137 -246q-241 -166 -432 -166q-181 0 -291 138.5t-110 419.5zM123 1493h375l180 -297h-299z M414 664h118l-1.5 49.5t-4 38t-9.5 31.5t-17 17t-27 7q-24 0 -37 -18t-17 -46t-5 -79z" />
<glyph unicode="&#xe9;" horiz-adv-x="907" d="M39 535q0 268 106 415.5t314 147.5q134 0 227.5 -63.5t137.5 -170.5t44 -248q0 -44 -4 -84.5t-8 -59.5l-4 -19h-438q2 -89 18.5 -129.5t63.5 -40.5q32 0 84 23.5t155 82.5l137 -246q-241 -166 -432 -166q-181 0 -291 138.5t-110 419.5zM262 1196l180 297h375l-254 -297 h-301zM414 664h118l-1.5 49.5t-4 38t-9.5 31.5t-17 17t-27 7q-24 0 -37 -18t-17 -46t-5 -79z" />
<glyph unicode="&#xea;" horiz-adv-x="907" d="M39 535q0 268 106 415.5t314 147.5q134 0 227.5 -63.5t137.5 -170.5t44 -248q0 -44 -4 -84.5t-8 -59.5l-4 -19h-438q2 -89 18.5 -129.5t63.5 -40.5q32 0 84 23.5t155 82.5l137 -246q-241 -166 -432 -166q-181 0 -291 138.5t-110 419.5zM143 1196l166 297h320l166 -297 h-244l-82 129l-82 -129h-244zM414 664h118l-1.5 49.5t-4 38t-9.5 31.5t-17 17t-27 7q-24 0 -37 -18t-17 -46t-5 -79z" />
<glyph unicode="&#xeb;" horiz-adv-x="907" d="M39 535q0 268 106 415.5t314 147.5q134 0 227.5 -63.5t137.5 -170.5t44 -248q0 -44 -4 -84.5t-8 -59.5l-4 -19h-438q2 -89 18.5 -129.5t63.5 -40.5q32 0 84 23.5t155 82.5l137 -246q-241 -166 -432 -166q-181 0 -291 138.5t-110 419.5zM193 1217v280h253v-280h-253z M414 664h118l-1.5 49.5t-4 38t-9.5 31.5t-17 17t-27 7q-24 0 -37 -18t-17 -46t-5 -79zM496 1217v280h254v-280h-254z" />
<glyph unicode="&#xec;" horiz-adv-x="520" d="M-88 1493h375l180 -297h-299zM74 0v1075h372v-1075h-372z" />
<glyph unicode="&#xed;" horiz-adv-x="518" d="M51 1196l180 297h375l-254 -297h-301zM74 0v1075h372v-1075h-372z" />
<glyph unicode="&#xee;" horiz-adv-x="518" d="M-68 1196l166 297h320l166 -297h-244l-82 129l-82 -129h-244zM74 0v1075h372v-1075h-372z" />
<glyph unicode="&#xef;" horiz-adv-x="520" d="M-18 1217v280h254v-280h-254zM74 0v1075h372v-1075h-372zM285 1217v280h254v-280h-254z" />
<glyph unicode="&#xf0;" horiz-adv-x="1003" d="M35 477q0 220 102 359t248 139q39 0 72.5 -7.5t53.5 -17.5t36 -23t22 -20t9 -12q-35 102 -125 162l-31 -64h-266l55 113l-72 -14l-35 319q60 23 177 23q40 0 94 -7l33 66h266l-70 -135q179 -96 269 -295.5t90 -450.5q0 -296 -122.5 -465.5t-363.5 -169.5q-206 0 -324 135 t-118 365zM422 475q0 -97 13 -131q19 -49 73 -49q21 0 36.5 6.5t24.5 21.5t14.5 28t7.5 37t2.5 37.5t0.5 39.5v10q0 98 -13 132q-21 49 -73 50q-21 0 -36.5 -7t-24.5 -23.5t-14.5 -30t-7.5 -40.5t-2.5 -39.5t-0.5 -41.5z" />
<glyph unicode="&#xf1;" horiz-adv-x="1007" d="M74 0v1075h372v-104q68 63 127.5 95t137.5 32q107 0 167 -83.5t60 -242.5v-772h-373v690q0 86 -37 86q-46 0 -82 -92v-684h-372zM174 1286q48 126 74 168q54 86 133 86q37 0 84 -24t87 -48t58 -24q40 0 76 94l148 -88q-48 -126 -74 -168q-54 -86 -131 -86q-38 0 -86 24 t-88 48t-58 24q-37 0 -75 -94z" />
<glyph unicode="&#xf2;" d="M37 539q0 559 448 559q449 0 449 -561q0 -560 -449 -560q-225 0 -336.5 144.5t-111.5 417.5zM139 1493h375l180 -297h-299zM412 539q0 -130 14.5 -187t58.5 -57q45 0 59.5 56.5t14.5 185.5t-15 186t-59 57t-58.5 -56t-14.5 -185z" />
<glyph unicode="&#xf3;" d="M37 539q0 559 448 559q449 0 449 -561q0 -560 -449 -560q-225 0 -336.5 144.5t-111.5 417.5zM279 1196l180 297h375l-254 -297h-301zM412 539q0 -130 14.5 -187t58.5 -57q45 0 59.5 56.5t14.5 185.5t-15 186t-59 57t-58.5 -56t-14.5 -185z" />
<glyph unicode="&#xf4;" d="M37 539q0 559 448 559q449 0 449 -561q0 -560 -449 -560q-225 0 -336.5 144.5t-111.5 417.5zM160 1196l166 297h319l166 -297h-244l-82 129l-82 -129h-243zM412 539q0 -130 14.5 -187t58.5 -57q45 0 59.5 56.5t14.5 185.5t-15 186t-59 57t-58.5 -56t-14.5 -185z" />
<glyph unicode="&#xf5;" d="M37 539q0 559 448 559q449 0 449 -561q0 -560 -449 -560q-225 0 -336.5 144.5t-111.5 417.5zM156 1286q47 125 72 166q54 88 134 88q37 0 84.5 -24t87.5 -48t58 -24q40 0 76 94l147 -88q-48 -126 -74 -168q-54 -86 -131 -86q-38 0 -85.5 24t-87.5 48t-58 24 q-38 0 -76 -94zM412 539q0 -130 14.5 -187t58.5 -57q45 0 59.5 56.5t14.5 185.5t-15 186t-59 57t-58.5 -56t-14.5 -185z" />
<glyph unicode="&#xf6;" d="M37 539q0 559 448 559q449 0 449 -561q0 -560 -449 -560q-225 0 -336.5 144.5t-111.5 417.5zM209 1217v280h254v-280h-254zM412 539q0 -130 14.5 -187t58.5 -57q45 0 59.5 56.5t14.5 185.5t-15 186t-59 57t-58.5 -56t-14.5 -185zM512 1217v280h254v-280h-254z" />
<glyph unicode="&#xf7;" horiz-adv-x="1024" d="M133 528v310h756v-310h-756zM365 319q0 62 42 105t103 43t104 -43t43 -105q0 -61 -42.5 -103t-104.5 -42t-103.5 42t-41.5 103zM365 1047q0 62 42 104.5t103 42.5q62 0 104.5 -43t42.5 -104t-42.5 -103.5t-104.5 -42.5q-61 0 -103 42t-42 104z" />
<glyph unicode="&#xf8;" d="M37 539q0 559 448 559q128 0 220 -47l14 24h188l-80 -129q107 -140 107 -409q0 -560 -449 -560q-131 0 -223 50l-16 -27h-195l84 137q-98 140 -98 402zM412 580l112 182q-15 18 -39 18q-41 0 -56 -47.5t-17 -152.5zM440 317q14 -22 45 -22q42 0 57 50.5t17 162.5z" />
<glyph unicode="&#xf9;" horiz-adv-x="1007" d="M70 303v772h372v-690q0 -86 37 -86q26 0 47.5 28.5t34.5 61.5v686h373v-1075h-373v104q-68 -63 -127 -95t-137 -32q-107 0 -167 83.5t-60 242.5zM154 1493h374l181 -297h-299z" />
<glyph unicode="&#xfa;" horiz-adv-x="1007" d="M70 303v772h372v-690q0 -86 37 -86q26 0 47.5 28.5t34.5 61.5v686h373v-1075h-373v104q-68 -63 -127 -95t-137 -32q-107 0 -167 83.5t-60 242.5zM293 1196l180 297h375l-254 -297h-301z" />
<glyph unicode="&#xfb;" horiz-adv-x="1007" d="M70 303v772h372v-690q0 -86 37 -86q26 0 47.5 28.5t34.5 61.5v686h373v-1075h-373v104q-68 -63 -127 -95t-137 -32q-107 0 -167 83.5t-60 242.5zM176 1196l166 297h320l165 -297h-243l-82 129l-82 -129h-244z" />
<glyph unicode="&#xfc;" horiz-adv-x="1007" d="M70 303v772h372v-690q0 -86 37 -86q26 0 47.5 28.5t34.5 61.5v686h373v-1075h-373v104q-68 -63 -127 -95t-137 -32q-107 0 -167 83.5t-60 242.5zM223 1217v280h254v-280h-254zM526 1217v280h254v-280h-254z" />
<glyph unicode="&#xfd;" horiz-adv-x="952" d="M6 1075h389l80 -594l82 594h389l-391 -1493h-395l141 367zM268 1196l181 297h374l-254 -297h-301z" />
<glyph unicode="&#xfe;" horiz-adv-x="1005" d="M74 -418v1911h372v-516q60 63 106.5 92t113.5 29q146 0 222.5 -144.5t76.5 -414.5q0 -271 -76.5 -416.5t-222.5 -145.5q-68 0 -114.5 28.5t-105.5 90.5v-514h-372zM446 410q37 -99 78 -99q66 0 66 228q0 225 -66 225q-20 0 -38.5 -20.5t-39.5 -77.5v-256z" />
<glyph unicode="&#xff;" horiz-adv-x="952" d="M6 1075h389l80 -594l82 594h389l-391 -1493h-395l141 367zM199 1217v280h254v-280h-254zM502 1217v280h254v-280h-254z" />
<glyph unicode="&#x100;" horiz-adv-x="1130" d="M2 0l348 1434h430l348 -1434h-415l-33 217h-227l-33 -217h-418zM330 1556v234h473v-234h-473zM502 555h127l-64 416z" />
<glyph unicode="&#x101;" d="M31 334q0 161 78.5 253.5t218.5 92.5q31 0 64.5 -5.5t54.5 -11t49 -14t34 -10.5v39q0 63 -19.5 85.5t-68.5 22.5q-41 0 -93 -14t-154 -53l-117 278q246 101 459 101q193 0 279.5 -95.5t86.5 -314.5v-688h-373v109q-49 -62 -102.5 -97t-128.5 -35q-87 0 -149.5 51 t-90.5 130t-28 176zM254 1247v234h473v-234h-473zM406 377q0 -40 13.5 -62t35.5 -22t43 20t32 47v84q-50 25 -65 25q-25 0 -42 -22.5t-17 -69.5z" />
<glyph unicode="&#x102;" horiz-adv-x="1130" d="M2 0l348 1434h430l348 -1434h-415l-33 217h-227l-33 -217h-418zM276 1788h211q0 -30 21 -50t57 -20q37 0 59.5 20t22.5 50h209q0 -133 -77 -208t-214 -75q-136 0 -212.5 75.5t-76.5 207.5zM502 555h127l-64 416z" />
<glyph unicode="&#x103;" d="M31 334q0 161 78.5 253.5t218.5 92.5q31 0 64.5 -5.5t54.5 -11t49 -14t34 -10.5v39q0 63 -19.5 85.5t-68.5 22.5q-41 0 -93 -14t-154 -53l-117 278q246 101 459 101q193 0 279.5 -95.5t86.5 -314.5v-688h-373v109q-49 -62 -102.5 -97t-128.5 -35q-87 0 -149.5 51 t-90.5 130t-28 176zM203 1479h211q0 -30 21 -50t57 -20q37 0 59 20t22 50h209q0 -133 -76.5 -208t-213.5 -75q-136 0 -212.5 75.5t-76.5 207.5zM406 377q0 -40 13.5 -62t35.5 -22t43 20t32 47v84q-50 25 -65 25q-25 0 -42 -22.5t-17 -69.5z" />
<glyph unicode="&#x104;" horiz-adv-x="1130" d="M2 0l348 1434h430l348 -1434h-6q-118 -104 -118 -188q0 -19 6.5 -32t15 -19t21.5 -9t21.5 -3t19.5 1h12l-29 -170q-1 0 -17.5 -0.5t-27.5 -0.5t-33 2t-38.5 5t-39 10t-39 16.5t-34.5 24.5t-29 33.5t-18 45t-7 57.5q0 130 134 227h-209l-33 217h-227l-33 -217h-418z M502 555h127l-64 416z" />
<glyph unicode="&#x105;" d="M31 334q0 161 78.5 253.5t218.5 92.5q31 0 64.5 -5.5t54.5 -11t49 -14t34 -10.5v39q0 63 -19.5 85.5t-68.5 22.5q-41 0 -93 -14t-154 -53l-117 278q246 101 459 101q193 0 279.5 -95.5t86.5 -314.5v-688h-6q-119 -105 -119 -188q0 -19 6.5 -32t15 -19t21.5 -9t21.5 -3 t19.5 1h12l-28 -170q-1 0 -17.5 -0.5t-27.5 -0.5t-33 2t-38.5 5t-39 10t-39 16.5t-34.5 24.5t-29 33.5t-18 45t-7 57.5q0 131 133 227h-166v109q-49 -62 -102.5 -97t-128.5 -35q-87 0 -149.5 51t-90.5 130t-28 176zM406 377q0 -40 13.5 -62t35.5 -22t43 20t32 47v84 q-50 25 -65 25q-25 0 -42 -22.5t-17 -69.5z" />
<glyph unicode="&#x106;" horiz-adv-x="1005" d="M49 717q0 366 117.5 552.5t333.5 186.5q118 0 226 -40t265 -122l-162 -323q-84 38 -114 51t-75.5 28t-74.5 15q-68 0 -93.5 -88.5t-25.5 -259.5t25.5 -259.5t93.5 -88.5q29 0 74.5 15t75.5 28t114 51l162 -324q-77 -40 -126 -63.5t-114.5 -49.5t-126.5 -37.5t-124 -11.5 q-216 0 -333.5 187t-117.5 553zM373 1505l180 297h375l-254 -297h-301z" />
<glyph unicode="&#x107;" horiz-adv-x="802" d="M39 539q0 144 29.5 254t81.5 175t117.5 97.5t142.5 32.5q150 0 376 -121l-145 -305q-71 41 -100 55t-52 14q-25 0 -40 -14.5t-22 -45.5t-9 -61.5t-2 -80.5t2 -81t8.5 -62.5t21.5 -46.5t39 -15q19 0 46.5 11t47 22t60.5 36l145 -305q-226 -121 -376 -121q-77 0 -142.5 33 t-117.5 99t-81.5 176.5t-29.5 253.5zM227 1196l181 297h374l-254 -297h-301z" />
<glyph unicode="&#x10a;" horiz-adv-x="1005" d="M49 717q0 366 117.5 552.5t333.5 186.5q118 0 226 -40t265 -122l-162 -323q-84 38 -114 51t-75.5 28t-74.5 15q-68 0 -93.5 -88.5t-25.5 -259.5t25.5 -259.5t93.5 -88.5q29 0 74.5 15t75.5 28t114 51l162 -324q-77 -40 -126 -63.5t-114.5 -49.5t-126.5 -37.5t-124 -11.5 q-216 0 -333.5 187t-117.5 553zM408 1526v280h254v-280h-254z" />
<glyph unicode="&#x10b;" horiz-adv-x="802" d="M39 539q0 144 29.5 254t81.5 175t117.5 97.5t142.5 32.5q150 0 376 -121l-145 -305q-71 41 -100 55t-52 14q-25 0 -40 -14.5t-22 -45.5t-9 -61.5t-2 -80.5t2 -81t8.5 -62.5t21.5 -46.5t39 -15q19 0 46.5 11t47 22t60.5 36l145 -305q-226 -121 -376 -121q-77 0 -142.5 33 t-117.5 99t-81.5 176.5t-29.5 253.5zM305 1217v280h254v-280h-254z" />
<glyph unicode="&#x10c;" horiz-adv-x="1005" d="M49 717q0 366 117.5 552.5t333.5 186.5q118 0 226 -40t265 -122l-162 -323q-84 38 -114 51t-75.5 28t-74.5 15q-68 0 -93.5 -88.5t-25.5 -259.5t25.5 -259.5t93.5 -88.5q29 0 74.5 15t75.5 28t114 51l162 -324q-77 -40 -126 -63.5t-114.5 -49.5t-126.5 -37.5t-124 -11.5 q-216 0 -333.5 187t-117.5 553zM205 1802h244l81 -129l82 129h244l-166 -297h-319z" />
<glyph unicode="&#x10d;" horiz-adv-x="802" d="M39 539q0 144 29.5 254t81.5 175t117.5 97.5t142.5 32.5q150 0 376 -121l-145 -305q-71 41 -100 55t-52 14q-25 0 -40 -14.5t-22 -45.5t-9 -61.5t-2 -80.5t2 -81t8.5 -62.5t21.5 -46.5t39 -15q19 0 46.5 11t47 22t60.5 36l145 -305q-226 -121 -376 -121q-77 0 -142.5 33 t-117.5 99t-81.5 176.5t-29.5 253.5zM106 1493h244l82 -129l82 129h244l-166 -297h-320z" />
<glyph unicode="&#x10e;" horiz-adv-x="1142" d="M92 0v1434h383q317 0 468 -169.5t151 -547.5t-151 -547.5t-468 -169.5h-383zM266 1802h244l82 -129l82 129h244l-166 -297h-320zM479 367h17q39 0 68.5 7.5t58.5 30t47 60t29.5 101.5t11.5 151t-11.5 151t-29.5 101.5t-47 60t-58.5 30t-68.5 7.5h-17v-700z" />
<glyph unicode="&#x10f;" horiz-adv-x="1153" d="M41 539q0 270 76.5 414.5t222.5 144.5q66 0 111.5 -28.5t107.5 -92.5v516h373v-1493h-373v96q-61 -63 -107 -91t-112 -28q-146 0 -222.5 145.5t-76.5 416.5zM416 539q0 -228 65 -228q41 0 78 99v256q-37 98 -78 98q-65 0 -65 -225zM985 1200v293h238l8 -332l-187 -219 l-57 92l100 166h-102z" />
<glyph unicode="&#x110;" horiz-adv-x="1167" d="M16 553v330h101v551h383q317 0 467.5 -169.5t150.5 -547.5t-150.5 -547.5t-467.5 -169.5h-383v553h-101zM504 367h16q39 0 68.5 7.5t58.5 30t47 60t29.5 101.5t11.5 151t-11.5 151t-29.5 101.5t-47 60t-58.5 30t-68.5 7.5h-16v-184h145v-330h-145v-186z" />
<glyph unicode="&#x111;" horiz-adv-x="1005" d="M41 539q0 270 76.5 414.5t222.5 144.5q66 0 111.5 -28.5t107.5 -92.5v180h-237v234h237v102h373v-102h76v-234h-76v-1157h-373v96q-61 -63 -107 -91t-112 -28q-146 0 -222.5 145.5t-76.5 416.5zM416 539q0 -228 65 -228q41 0 78 99v256q-37 98 -78 98q-65 0 -65 -225z " />
<glyph unicode="&#x112;" horiz-adv-x="985" d="M92 0v1434h828v-367h-441v-170h352v-358h-352v-172h447v-367h-834zM272 1556v234h473v-234h-473z" />
<glyph unicode="&#x113;" horiz-adv-x="907" d="M39 535q0 268 106 415.5t314 147.5q134 0 227.5 -63.5t137.5 -170.5t44 -248q0 -44 -4 -84.5t-8 -59.5l-4 -19h-438q2 -89 18.5 -129.5t63.5 -40.5q32 0 84 23.5t155 82.5l137 -246q-241 -166 -432 -166q-181 0 -291 138.5t-110 419.5zM229 1247v234h473v-234h-473z M414 664h118l-1.5 49.5t-4 38t-9.5 31.5t-17 17t-27 7q-24 0 -37 -18t-17 -46t-5 -79z" />
<glyph unicode="&#x116;" horiz-adv-x="985" d="M92 0v1434h828v-367h-441v-170h352v-358h-352v-172h447v-367h-834zM383 1526v280h254v-280h-254z" />
<glyph unicode="&#x117;" horiz-adv-x="907" d="M39 535q0 268 106 415.5t314 147.5q134 0 227.5 -63.5t137.5 -170.5t44 -248q0 -44 -4 -84.5t-8 -59.5l-4 -19h-438q2 -89 18.5 -129.5t63.5 -40.5q32 0 84 23.5t155 82.5l137 -246q-241 -166 -432 -166q-181 0 -291 138.5t-110 419.5zM342 1217v280h254v-280h-254z M414 664h118l-1.5 49.5t-4 38t-9.5 31.5t-17 17t-27 7q-24 0 -37 -18t-17 -46t-5 -79z" />
<glyph unicode="&#x118;" horiz-adv-x="985" d="M92 0v1434h828v-367h-441v-170h352v-358h-352v-172h447v-367h-6q-119 -105 -119 -188q0 -19 6.5 -32t15 -19t21.5 -9t21.5 -3t20.5 1h11l-29 -170q-1 0 -17 -0.5t-27.5 -0.5t-33.5 2t-38.5 5t-39 10t-39 16.5t-34 24.5t-28.5 33.5t-18 45t-7 57.5q0 131 133 227h-627z " />
<glyph unicode="&#x119;" horiz-adv-x="907" d="M39 535q0 268 106 415.5t314 147.5q134 0 227.5 -63.5t137.5 -170.5t44 -248q0 -44 -4 -84.5t-8 -59.5l-4 -19h-438q2 -89 18.5 -129.5t63.5 -40.5q32 0 84 23.5t155 82.5l137 -246q-151 -105 -278 -143q-121 -102 -121 -188q0 -19 6.5 -32t15 -19t21.5 -9t21.5 -3 t20.5 1h11l-28 -170q-1 0 -17.5 -0.5t-27.5 -0.5t-33 2t-38.5 5t-39 10t-39 16.5t-34.5 24.5t-29 33.5t-18 45t-7 57.5q0 125 111 211q-151 25 -240.5 162t-89.5 389zM414 664h118l-1.5 49.5t-4 38t-9.5 31.5t-17 17t-27 7q-24 0 -37 -18t-17 -46t-5 -79z" />
<glyph unicode="&#x11a;" horiz-adv-x="985" d="M92 0v1434h828v-367h-441v-170h352v-358h-352v-172h447v-367h-834zM184 1802h244l82 -129l82 129h244l-166 -297h-320z" />
<glyph unicode="&#x11b;" horiz-adv-x="907" d="M39 535q0 268 106 415.5t314 147.5q134 0 227.5 -63.5t137.5 -170.5t44 -248q0 -44 -4 -84.5t-8 -59.5l-4 -19h-438q2 -89 18.5 -129.5t63.5 -40.5q32 0 84 23.5t155 82.5l137 -246q-241 -166 -432 -166q-181 0 -291 138.5t-110 419.5zM143 1493h244l82 -129l82 129h244 l-166 -297h-320zM414 664h118l-1.5 49.5t-4 38t-9.5 31.5t-17 17t-27 7q-24 0 -37 -18t-17 -46t-5 -79z" />
<glyph unicode="&#x11e;" horiz-adv-x="1095" d="M49 725q0 359 121 545t340 186q87 0 185 -26.5t163 -55.5t168 -80l-162 -323q-172 72 -225 85q-36 9 -64 9q-39 0 -65 -25t-39.5 -77t-19 -118t-5.5 -163q0 -47 1.5 -82t5.5 -76.5t12 -71t21 -55t33.5 -38.5t47.5 -13q65 0 103 82v94h-156v338h516v-860h-360v100 q-102 -123 -219 -123q-82 0 -153.5 46.5t-127.5 136.5t-88.5 235.5t-32.5 329.5zM250 1788h211q0 -30 21 -50t57 -20q37 0 59.5 20t22.5 50h208q0 -133 -76.5 -208t-213.5 -75q-136 0 -212.5 75.5t-76.5 207.5z" />
<glyph unicode="&#x11f;" horiz-adv-x="1005" d="M41 539q0 270 76.5 414.5t222.5 144.5q66 0 111.5 -28.5t107.5 -92.5v98h373v-1063q0 -233 -86.5 -341.5t-302.5 -108.5q-108 0 -234.5 25.5t-236.5 68.5l90 305q192 -78 295 -78q60 0 81 30t21 93v90q-61 -63 -107 -91t-112 -28q-146 0 -222.5 145.5t-76.5 416.5z M215 1479h211q0 -30 21 -50t57 -20q37 0 59.5 20t22.5 50h209q0 -133 -77 -208t-214 -75q-136 0 -212.5 75.5t-76.5 207.5zM416 539q0 -228 65 -228q41 0 78 99v256q-37 98 -78 98q-65 0 -65 -225z" />
<glyph unicode="&#x120;" horiz-adv-x="1095" d="M49 725q0 359 121 545t340 186q87 0 185 -26.5t163 -55.5t168 -80l-162 -323q-172 72 -225 85q-36 9 -64 9q-39 0 -65 -25t-39.5 -77t-19 -118t-5.5 -163q0 -47 1.5 -82t5.5 -76.5t12 -71t21 -55t33.5 -38.5t47.5 -13q65 0 103 82v94h-156v338h516v-860h-360v100 q-102 -123 -219 -123q-82 0 -153.5 46.5t-127.5 136.5t-88.5 235.5t-32.5 329.5zM412 1526v280h254v-280h-254z" />
<glyph unicode="&#x121;" horiz-adv-x="1005" d="M41 539q0 270 76.5 414.5t222.5 144.5q66 0 111.5 -28.5t107.5 -92.5v98h373v-1063q0 -233 -86.5 -341.5t-302.5 -108.5q-108 0 -234.5 25.5t-236.5 68.5l90 305q192 -78 295 -78q60 0 81 30t21 93v90q-61 -63 -107 -91t-112 -28q-146 0 -222.5 145.5t-76.5 416.5z M375 1217v280h254v-280h-254zM416 539q0 -228 65 -228q41 0 78 99v256q-37 98 -78 98q-65 0 -65 -225z" />
<glyph unicode="&#x122;" horiz-adv-x="1095" d="M49 725q0 359 121 545t340 186q87 0 185 -26.5t163 -55.5t168 -80l-162 -323q-172 72 -225 85q-36 9 -64 9q-39 0 -65 -25t-39.5 -77t-19 -118t-5.5 -163q0 -47 1.5 -82t5.5 -76.5t12 -71t21 -55t33.5 -38.5t47.5 -13q65 0 103 82v94h-156v338h516v-860h-360v100 q-102 -123 -219 -123q-82 0 -153.5 46.5t-127.5 136.5t-88.5 235.5t-32.5 329.5zM438 -104h238l8 -332l-186 -219l-58 92l101 166h-103v293z" />
<glyph unicode="&#x123;" horiz-adv-x="1005" d="M41 539q0 270 76.5 414.5t222.5 144.5q66 0 111.5 -28.5t107.5 -92.5v98h373v-1063q0 -233 -86.5 -341.5t-302.5 -108.5q-108 0 -234.5 25.5t-236.5 68.5l90 305q192 -78 295 -78q60 0 81 30t21 93v90q-61 -63 -107 -91t-112 -28q-146 0 -222.5 145.5t-76.5 416.5z M383 1548l186 219l58 -92l-101 -166h103v-292h-238zM416 539q0 -228 65 -228q41 0 78 99v256q-37 98 -78 98q-65 0 -65 -225z" />
<glyph unicode="&#x126;" horiz-adv-x="1200" d="M8 1047v233h107v154h387v-154h196v154h387v-154h107v-233h-107v-1047h-387v573h-196v-573h-387v1047h-107zM502 932h196v115h-196v-115z" />
<glyph unicode="&#x127;" horiz-adv-x="1007" d="M0 1157v234h74v102h372v-102h238v-234h-238v-188q45 38 64 52.5t55.5 37.5t70.5 31t75 8q107 0 167 -83.5t60 -242.5v-772h-373v690q0 86 -37 86q-46 0 -82 -92v-684h-372v1157h-74z" />
<glyph unicode="&#x128;" horiz-adv-x="571" d="M-47 1595q48 126 74 168q54 86 133 86q37 0 84 -24t87 -48t58 -24q40 0 76 94l147 -88q-47 -125 -72 -166q-54 -88 -132 -88q-30 0 -66.5 15t-65 33.5t-57 33.5t-43.5 15q-37 0 -76 -95zM92 0v1434h387v-1434h-387z" />
<glyph unicode="&#x129;" horiz-adv-x="520" d="M-72 1286q48 126 74 168q54 86 133 86q37 0 84.5 -24t87.5 -48t58 -24q39 0 75 94l148 -88q-48 -126 -74 -168q-54 -86 -131 -86q-38 0 -85.5 24t-87.5 48t-58 24q-38 0 -76 -94zM74 0v1075h372v-1075h-372z" />
<glyph unicode="&#x12a;" horiz-adv-x="571" d="M49 1556v234h473v-234h-473zM92 0v1434h387v-1434h-387z" />
<glyph unicode="&#x12b;" horiz-adv-x="520" d="M23 1247v234h473v-234h-473zM74 0v1075h372v-1075h-372z" />
<glyph unicode="&#x12c;" horiz-adv-x="569" d="M-6 1788h211q0 -30 21 -50t57 -20q37 0 59.5 20t22.5 50h208q0 -133 -76.5 -208t-213.5 -75q-136 0 -212.5 75.5t-76.5 207.5zM92 0v1434h387v-1434h-387z" />
<glyph unicode="&#x12d;" horiz-adv-x="520" d="M-31 1479h211q0 -30 21 -50t57 -20q37 0 59.5 20t22.5 50h209q0 -133 -77 -208t-214 -75q-136 0 -212.5 75.5t-76.5 207.5zM74 0v1075h372v-1075h-372z" />
<glyph unicode="&#x12e;" horiz-adv-x="571" d="M92 0v1434h387v-1434h-6q-119 -105 -119 -188q0 -18 6.5 -31.5t15 -19.5t22 -9t22 -3t20.5 1h11l-29 -170q-1 0 -17.5 -0.5t-27.5 -0.5t-33 2t-38.5 5t-39 10t-39 16.5t-34.5 24.5t-29 33.5t-18 45t-7 57.5q0 131 133 227h-180z" />
<glyph unicode="&#x12f;" horiz-adv-x="520" d="M68 1174v313h381v-313h-381zM72 0v1075h372v-1075h-8q-119 -105 -119 -188q0 -18 6.5 -31.5t15 -19.5t22 -9t22 -3t19.5 1h12l-29 -170q-1 0 -17.5 -0.5t-27.5 -0.5t-33 2t-38.5 5t-39 10t-39 16.5t-34.5 24.5t-29 33.5t-18 45t-7 57.5q0 130 134 227h-164z" />
<glyph unicode="&#x130;" horiz-adv-x="571" d="M92 0v1434h387v-1434h-387zM158 1526v280h254v-280h-254z" />
<glyph unicode="&#x131;" horiz-adv-x="520" d="M74 0v1075h372v-1075h-372z" />
<glyph unicode="&#x132;" horiz-adv-x="1140" d="M92 0v1434h387v-1434h-387zM502 -100q35 17 60 32.5t43 28t29 29.5t17.5 28.5t9 35t3 38.5t0.5 49v1293h387v-1268q0 -63 -0.5 -92t-3 -77.5t-8 -71t-16 -60t-25.5 -56t-38.5 -48t-54 -47.5t-71.5 -42.5t-92 -45.5t-115 -44z" />
<glyph unicode="&#x133;" horiz-adv-x="1038" d="M70 1174v313h381v-313h-381zM74 0v1075h372v-1075h-372zM432 -188q42 21 68.5 36t45.5 34t28 31.5t14 39.5t5.5 46t0.5 62v1014h373v-979q0 -64 -0.5 -93.5t-3 -79t-7.5 -71.5t-15.5 -59.5t-25.5 -56t-38 -47.5t-53 -47t-71 -42t-91 -44t-113 -43zM590 1174v313h381v-313 h-381z" />
<glyph unicode="&#x134;" horiz-adv-x="571" d="M-70 -100q35 17 60 32.5t43 28t29 29.5t17.5 28.5t9 35t3 38.5t0.5 49v1293h387v-1268q0 -63 -0.5 -92t-3 -77.5t-8 -71t-16 -60t-25.5 -56t-38.5 -48t-54 -47.5t-71.5 -42.5t-92 -45.5t-115 -44zM-41 1505l166 297h319l166 -297h-243l-82 129l-82 -129h-244z" />
<glyph unicode="&#x135;" horiz-adv-x="520" d="M-88 -188q42 21 68.5 36t45.5 34t28 31.5t14 39.5t5.5 46t0.5 62v1014h372v-979v-2q0 -63 -0.5 -92.5t-3 -80.5t-8 -75t-15.5 -63.5t-25.5 -59.5t-38 -50t-53 -47.5t-70 -39.5t-90.5 -39t-113 -34zM-68 1196l166 297h320l166 -297h-244l-82 129l-82 -129h-244z" />
<glyph unicode="&#x136;" horiz-adv-x="1153" d="M92 0v1434h387v-420l221 420h471l-405 -633l391 -801h-457l-180 418l-41 -66v-352h-387zM453 -104h237l8 -332l-186 -219l-57 92l100 166h-102v293z" />
<glyph unicode="&#x137;" horiz-adv-x="991" d="M74 0v1493h372v-655l101 237h422l-267 -420l306 -655h-390l-131 315l-41 -65v-250h-372zM379 -104h237l9 -332l-187 -219l-57 92l100 166h-102v293z" />
<glyph unicode="&#x138;" horiz-adv-x="991" d="M74 0v1075h372v-237l101 237h422l-267 -420l306 -655h-390l-131 315l-41 -65v-250h-372z" />
<glyph unicode="&#x139;" horiz-adv-x="929" d="M78 1505l180 297h375l-254 -297h-301zM92 0v1434h387v-1067h424v-367h-811z" />
<glyph unicode="&#x13a;" horiz-adv-x="518" d="M51 1571l180 297h375l-254 -297h-301zM74 0v1493h372v-1493h-372z" />
<glyph unicode="&#x13b;" horiz-adv-x="929" d="M92 0v1434h387v-1067h424v-367h-811zM367 -104h237l8 -332l-186 -219l-57 92l100 166h-102v293z" />
<glyph unicode="&#x13c;" horiz-adv-x="520" d="M74 0v1493h372v-1493h-372zM147 -104h238l8 -332l-186 -219l-57 92l100 166h-103v293z" />
<glyph unicode="&#x13d;" horiz-adv-x="929" d="M92 0v1434h387v-1067h424v-367h-811zM532 1141v293h238l8 -332l-186 -219l-57 92l100 166h-103z" />
<glyph unicode="&#x13e;" horiz-adv-x="667" d="M74 0v1493h372v-1493h-372zM500 1200v293h237l8 -332l-186 -219l-57 92l100 166h-102z" />
<glyph unicode="&#x13f;" horiz-adv-x="931" d="M92 0v1434h387v-1067h424v-367h-811zM596 623v280h254v-280h-254z" />
<glyph unicode="&#x140;" horiz-adv-x="753" d="M74 0v1493h372v-1493h-372zM500 623v280h254v-280h-254z" />
<glyph unicode="&#x141;" horiz-adv-x="944" d="M20 342v375l89 63v654h387v-375l176 127v-377l-176 -127v-315h424v-367h-811v406z" />
<glyph unicode="&#x142;" horiz-adv-x="573" d="M23 373v375l73 51v694h373v-428l74 53v-377l-74 -53v-688h-373v424z" />
<glyph unicode="&#x143;" horiz-adv-x="1177" d="M92 0v1434h389l217 -639v639h387v-1434h-389l-217 639v-639h-387zM391 1505l180 297h375l-254 -297h-301z" />
<glyph unicode="&#x144;" horiz-adv-x="1007" d="M74 0v1075h372v-104q68 63 127.5 95t137.5 32q107 0 167 -83.5t60 -242.5v-772h-373v690q0 86 -37 86q-46 0 -82 -92v-684h-372zM299 1196l180 297h375l-254 -297h-301z" />
<glyph unicode="&#x145;" horiz-adv-x="1177" d="M92 0v1434h389l217 -639v639h387v-1434h-389l-217 639v-639h-387zM485 -104h238l8 -332l-186 -219l-58 92l101 166h-103v293z" />
<glyph unicode="&#x146;" horiz-adv-x="1007" d="M74 0v1075h372v-104q68 63 127.5 95t137.5 32q107 0 167 -83.5t60 -242.5v-772h-373v690q0 86 -37 86q-46 0 -82 -92v-684h-372zM393 -104h238l8 -332l-186 -219l-58 92l101 166h-103v293z" />
<glyph unicode="&#x147;" horiz-adv-x="1177" d="M92 0v1434h389l217 -639v639h387v-1434h-389l-217 639v-639h-387zM270 1802h244l82 -129l82 129h244l-166 -297h-320z" />
<glyph unicode="&#x148;" horiz-adv-x="1007" d="M74 0v1075h372v-104q68 63 127.5 95t137.5 32q107 0 167 -83.5t60 -242.5v-772h-373v690q0 86 -37 86q-46 0 -82 -92v-684h-372zM180 1493h244l82 -129l82 129h243l-165 -297h-320z" />
<glyph unicode="&#x149;" horiz-adv-x="1007" d="M74 0v1075h372v-104q68 63 127.5 95t137.5 32q107 0 167 -83.5t60 -242.5v-772h-373v690q0 86 -37 86q-46 0 -82 -92v-684h-372zM74 1382v293h237l8 -332l-186 -219l-57 93l100 165h-102z" />
<glyph unicode="&#x14a;" horiz-adv-x="1177" d="M92 0v1434h389l217 -639v639h387v-1268v-2q0 -77 -1 -112.5t-6 -92t-15.5 -82t-30.5 -66.5t-50 -63.5t-75 -54t-104 -57t-139 -54.5l-125 318q69 34 104 59t49 53l-213 627v-639h-387z" />
<glyph unicode="&#x14b;" horiz-adv-x="1005" d="M74 0v1075h372v-104q68 63 127.5 95t137.5 32q107 0 167 -83.5t60 -242.5v-676q0 -78 -1 -113.5t-6 -92.5t-15 -83t-30 -67t-49.5 -63.5t-74 -53.5t-103 -56.5t-137.5 -53.5l-116 299q41 21 67.5 36t45 34t27.5 31.5t13.5 40t5 45.5t0.5 62v629q0 86 -37 86 q-46 0 -82 -92v-684h-372z" />
<glyph unicode="&#x14c;" horiz-adv-x="1193" d="M45 717q0 739 553 739q551 0 551 -739q0 -740 -551 -740q-553 0 -553 740zM360 1556v234h474v-234h-474zM442 717q0 -89 6.5 -152t23 -114.5t48 -77t78.5 -25.5q46 0 77 25.5t47.5 77t23 114.5t6.5 152t-6.5 151.5t-23 114t-47.5 77t-77 25.5q-47 0 -78.5 -25.5t-48 -77 t-23 -114t-6.5 -151.5z" />
<glyph unicode="&#x14d;" d="M37 539q0 559 448 559q449 0 449 -561q0 -560 -449 -560q-225 0 -336.5 144.5t-111.5 417.5zM250 1247v234h473v-234h-473zM412 539q0 -130 14.5 -187t58.5 -57q45 0 59.5 56.5t14.5 185.5t-15 186t-59 57t-58.5 -56t-14.5 -185z" />
<glyph unicode="&#x14e;" horiz-adv-x="1193" d="M45 717q0 739 553 739q551 0 551 -739q0 -740 -551 -740q-553 0 -553 740zM309 1788h211q0 -30 21 -50t57 -20q37 0 59.5 20t22.5 50h209q0 -133 -77 -208t-214 -75q-136 0 -212.5 75.5t-76.5 207.5zM442 717q0 -89 6.5 -152t23 -114.5t48 -77t78.5 -25.5q46 0 77 25.5 t47.5 77t23 114.5t6.5 152t-6.5 151.5t-23 114t-47.5 77t-77 25.5q-47 0 -78.5 -25.5t-48 -77t-23 -114t-6.5 -151.5z" />
<glyph unicode="&#x14f;" d="M37 539q0 559 448 559q449 0 449 -561q0 -560 -449 -560q-225 0 -336.5 144.5t-111.5 417.5zM197 1479h211q0 -30 20.5 -50t56.5 -20q37 0 59.5 20t22.5 50h209q0 -133 -77 -208t-214 -75q-136 0 -212 75t-76 208zM412 539q0 -130 14.5 -187t58.5 -57q45 0 59.5 56.5 t14.5 185.5t-15 186t-59 57t-58.5 -56t-14.5 -185z" />
<glyph unicode="&#x150;" horiz-adv-x="1193" d="M45 717q0 739 553 739q551 0 551 -739q0 -740 -551 -740q-553 0 -553 740zM307 1505l121 297h289l-197 -297h-213zM442 717q0 -89 6.5 -152t23 -114.5t48 -77t78.5 -25.5q46 0 77 25.5t47.5 77t23 114.5t6.5 152t-6.5 151.5t-23 114t-47.5 77t-77 25.5q-47 0 -78.5 -25.5 t-48 -77t-23 -114t-6.5 -151.5zM631 1505l121 297h288l-194 -297h-215z" />
<glyph unicode="&#x151;" d="M37 539q0 559 448 559q449 0 449 -561q0 -560 -449 -560q-225 0 -336.5 144.5t-111.5 417.5zM197 1196l120 297h289l-196 -297h-213zM412 539q0 -130 14.5 -187t58.5 -57q45 0 59.5 56.5t14.5 185.5t-15 186t-59 57t-58.5 -56t-14.5 -185zM520 1196l121 297h289 l-195 -297h-215z" />
<glyph unicode="&#x152;" horiz-adv-x="1646" d="M45 717q0 739 553 739q94 0 174 -22h809v-367h-440v-170h352v-358h-352v-172h446v-367h-815q-84 -23 -174 -23q-553 0 -553 740zM442 717q0 -89 6.5 -152t23 -114.5t48 -77t78.5 -25.5q46 0 77 25.5t47.5 77t23 114.5t6.5 152t-6.5 151.5t-23 114t-47.5 77t-77 25.5 q-47 0 -78.5 -25.5t-48 -77t-23 -114t-6.5 -151.5z" />
<glyph unicode="&#x153;" horiz-adv-x="1431" d="M37 539q0 559 448 559q152 0 258 -70q98 70 238 70q134 0 228 -63.5t138 -170.5t44 -248q0 -44 -4.5 -84.5t-8.5 -59.5l-4 -19h-438q2 -89 18.5 -129.5t63.5 -40.5q32 0 84 23.5t155 82.5l138 -246q-241 -166 -432 -166q-127 0 -222 68q-100 -68 -256 -68 q-225 0 -336.5 144.5t-111.5 417.5zM412 539q0 -130 14.5 -187t58.5 -57q45 0 59.5 56.5t14.5 185.5t-15 186t-59 57t-58.5 -56t-14.5 -185zM936 664h119q-1 40 -2.5 60.5t-7.5 42.5t-18 31t-32 9q-24 0 -37 -18t-17 -46t-5 -79z" />
<glyph unicode="&#x154;" horiz-adv-x="1124" d="M92 0v1434h436q125 0 219.5 -21.5t157 -60t102 -97t56 -128t16.5 -158.5q0 -154 -53.5 -256.5t-177.5 -155.5l233 -557h-407l-195 479v-479h-387zM379 1505l180 297h375l-254 -297h-301zM479 840h62q74 0 111.5 26t37.5 103t-38 103t-113 26h-60v-258z" />
<glyph unicode="&#x155;" horiz-adv-x="739" d="M74 0v1075h372v-219q87 250 269 231v-393q-68 0 -121 -36t-79.5 -87t-43.5 -102t-21 -87l-4 -36v-346h-372zM188 1196l181 297h374l-254 -297h-301z" />
<glyph unicode="&#x156;" horiz-adv-x="1124" d="M92 0v1434h436q125 0 219.5 -21.5t157 -60t102 -97t56 -128t16.5 -158.5q0 -154 -53.5 -256.5t-177.5 -155.5l233 -557h-407l-195 479v-479h-387zM444 -104h238l8 -332l-186 -219l-58 92l101 166h-103v293zM479 840h62q74 0 111.5 26t37.5 103t-38 103t-113 26h-60v-258z " />
<glyph unicode="&#x157;" horiz-adv-x="739" d="M74 0v1075h372v-219q87 250 269 231v-393q-68 0 -121 -36t-79.5 -87t-43.5 -102t-21 -87l-4 -36v-346h-372zM147 -104h238l8 -332l-186 -219l-57 92l100 166h-103v293z" />
<glyph unicode="&#x158;" horiz-adv-x="1124" d="M92 0v1434h436q125 0 219.5 -21.5t157 -60t102 -97t56 -128t16.5 -158.5q0 -154 -53.5 -256.5t-177.5 -155.5l233 -557h-407l-195 479v-479h-387zM260 1802h244l82 -129l82 129h243l-166 -297h-319zM479 840h62q74 0 111.5 26t37.5 103t-38 103t-113 26h-60v-258z" />
<glyph unicode="&#x159;" horiz-adv-x="739" d="M68 1493h243l82 -129l82 129h244l-166 -297h-320zM74 0v1075h372v-219q87 250 269 231v-393q-68 0 -121 -36t-79.5 -87t-43.5 -102t-21 -87l-4 -36v-346h-372z" />
<glyph unicode="&#x15a;" horiz-adv-x="1032" d="M29 188l178 299q88 -60 178.5 -104.5t142.5 -44.5q25 0 40.5 12t15.5 35q0 25 -25 53.5t-57.5 51.5t-93.5 65.5t-105 77.5q-75 59 -126 112.5t-89.5 134.5t-38.5 171q0 80 26.5 151.5t78.5 129t137.5 91t193.5 33.5q239 0 490 -162l-180 -305q-192 107 -271 107 q-29 0 -46 -12t-17 -35q0 -33 35.5 -68t123 -94.5t121.5 -85.5q53 -40 92 -77.5t79 -89.5t61.5 -114.5t21.5 -132.5q0 -75 -24 -145t-73 -130.5t-134 -97.5t-195 -37q-150 0 -292 61.5t-248 149.5zM307 1505l180 297h375l-254 -297h-301z" />
<glyph unicode="&#x15b;" horiz-adv-x="876" d="M27 123l135 258q63 -41 146.5 -75t125.5 -34q41 0 41 31q0 24 -39 44q-16 8 -60 26q-18 8 -28 12q-48 20 -87.5 42t-82 55.5t-71.5 71.5t-47.5 91t-18.5 113q0 67 22 127t64.5 108t113 76.5t160.5 28.5q109 0 223 -37.5t193 -85.5l-133 -246q-55 28 -120.5 51t-100.5 23 q-47 0 -47 -35q0 -5 1.5 -9.5t4.5 -8.5t7 -7.5t11.5 -7.5t14 -7t18 -8t21.5 -9t26.5 -10.5t30.5 -12.5q43 -18 77 -35.5t78.5 -50.5t74 -70.5t50.5 -93.5t21 -121q0 -68 -22 -128t-65.5 -108t-116 -76t-165.5 -28q-122 0 -250.5 44t-205.5 102zM233 1196l181 297h374 l-253 -297h-302z" />
<glyph unicode="&#x15c;" horiz-adv-x="1032" d="M29 188l178 299q88 -60 178.5 -104.5t142.5 -44.5q25 0 40.5 12t15.5 35q0 25 -25 53.5t-57.5 51.5t-93.5 65.5t-105 77.5q-75 59 -126 112.5t-89.5 134.5t-38.5 171q0 80 26.5 151.5t78.5 129t137.5 91t193.5 33.5q239 0 490 -162l-180 -305q-192 107 -271 107 q-29 0 -46 -12t-17 -35q0 -33 35.5 -68t123 -94.5t121.5 -85.5q53 -40 92 -77.5t79 -89.5t61.5 -114.5t21.5 -132.5q0 -75 -24 -145t-73 -130.5t-134 -97.5t-195 -37q-150 0 -292 61.5t-248 149.5zM186 1505l166 297h320l166 -297h-244l-82 129l-82 -129h-244z" />
<glyph unicode="&#x15d;" horiz-adv-x="876" d="M27 123l135 258q63 -41 146.5 -75t125.5 -34q41 0 41 31q0 24 -39 44q-16 8 -60 26q-18 8 -28 12q-48 20 -87.5 42t-82 55.5t-71.5 71.5t-47.5 91t-18.5 113q0 67 22 127t64.5 108t113 76.5t160.5 28.5q109 0 223 -37.5t193 -85.5l-133 -246q-55 28 -120.5 51t-100.5 23 q-47 0 -47 -35q0 -5 1.5 -9.5t4.5 -8.5t7 -7.5t11.5 -7.5t14 -7t18 -8t21.5 -9t26.5 -10.5t30.5 -12.5q43 -18 77 -35.5t78.5 -50.5t74 -70.5t50.5 -93.5t21 -121q0 -68 -22 -128t-65.5 -108t-116 -76t-165.5 -28q-122 0 -250.5 44t-205.5 102zM115 1196l166 297h319 l166 -297h-244l-82 129l-82 -129h-243z" />
<glyph unicode="&#x15e;" horiz-adv-x="1034" d="M31 188l178 299q88 -60 178.5 -104.5t142.5 -44.5q25 0 40.5 12t15.5 35q0 25 -25 53.5t-57.5 51.5t-93.5 65.5t-105 77.5q-75 59 -126 112.5t-89.5 134.5t-38.5 171q0 80 26.5 151.5t78.5 129t137.5 91t193.5 33.5q239 0 490 -162l-180 -305q-192 107 -271 107 q-29 0 -46 -12t-17 -35q0 -33 35.5 -68t123 -94.5t121.5 -85.5q53 -40 92 -77.5t79 -89.5t61.5 -114.5t21.5 -132.5q0 -68 -20 -132t-60 -121.5t-109 -97.5t-159 -52q43 -89 43 -177q0 -105 -55.5 -154.5t-136.5 -49.5q-90 0 -150 49l66 192q32 -22 57 -22q47 0 47 59 q0 32 -22 101q-132 14 -254.5 72t-212.5 134z" />
<glyph unicode="&#x15f;" horiz-adv-x="876" d="M27 123l135 258q63 -41 146.5 -75t125.5 -34q41 0 41 31q0 24 -39 44q-16 8 -60 26q-18 8 -28 12q-48 20 -87.5 42t-82 55.5t-71.5 71.5t-47.5 91t-18.5 113q0 67 22 127t64.5 108t113 76.5t160.5 28.5q109 0 223 -37.5t193 -85.5l-133 -246q-55 28 -120.5 51t-100.5 23 q-47 0 -47 -35q0 -5 1.5 -9.5t4.5 -8.5t7 -7.5t11.5 -7.5t14 -7t18 -8t21.5 -9t26.5 -10.5t30.5 -12.5q43 -18 77 -35.5t78.5 -50.5t74 -70.5t50.5 -93.5t21 -121q0 -120 -66.5 -210.5t-195.5 -118.5q45 -93 45 -181q0 -104 -56 -154t-137 -50q-89 0 -149 49l65 192 q32 -22 58 -22q47 0 47 59q0 41 -23 99q-116 7 -230 48.5t-183 94.5z" />
<glyph unicode="&#x160;" horiz-adv-x="1032" d="M29 188l178 299q88 -60 178.5 -104.5t142.5 -44.5q25 0 40.5 12t15.5 35q0 25 -25 53.5t-57.5 51.5t-93.5 65.5t-105 77.5q-75 59 -126 112.5t-89.5 134.5t-38.5 171q0 80 26.5 151.5t78.5 129t137.5 91t193.5 33.5q239 0 490 -162l-180 -305q-192 107 -271 107 q-29 0 -46 -12t-17 -35q0 -33 35.5 -68t123 -94.5t121.5 -85.5q53 -40 92 -77.5t79 -89.5t61.5 -114.5t21.5 -132.5q0 -75 -24 -145t-73 -130.5t-134 -97.5t-195 -37q-150 0 -292 61.5t-248 149.5zM188 1802h244l82 -129l82 129h244l-166 -297h-320z" />
<glyph unicode="&#x161;" horiz-adv-x="876" d="M27 123l135 258q63 -41 146.5 -75t125.5 -34q41 0 41 31q0 24 -39 44q-16 8 -60 26q-18 8 -28 12q-48 20 -87.5 42t-82 55.5t-71.5 71.5t-47.5 91t-18.5 113q0 67 22 127t64.5 108t113 76.5t160.5 28.5q109 0 223 -37.5t193 -85.5l-133 -246q-55 28 -120.5 51t-100.5 23 q-47 0 -47 -35q0 -5 1.5 -9.5t4.5 -8.5t7 -7.5t11.5 -7.5t14 -7t18 -8t21.5 -9t26.5 -10.5t30.5 -12.5q43 -18 77 -35.5t78.5 -50.5t74 -70.5t50.5 -93.5t21 -121q0 -68 -22 -128t-65.5 -108t-116 -76t-165.5 -28q-122 0 -250.5 44t-205.5 102zM113 1493h243l82 -129l82 129 h244l-166 -297h-319z" />
<glyph unicode="&#x162;" horiz-adv-x="948" d="M29 1067v367h891v-367h-248v-1067h-117q51 -102 51 -193q0 -105 -55.5 -154.5t-136.5 -49.5q-90 0 -150 49l66 192q32 -22 57 -22q47 0 47 59q0 47 -31 119h-118v1067h-256z" />
<glyph unicode="&#x163;" horiz-adv-x="747" d="M37 772v303h98v230l373 81v-311h194v-303h-194v-340q0 -26 3 -44t7 -26.5t10.5 -13.5t10 -5.5t8.5 -0.5q8 0 15.5 1.5t16.5 5.5t14.5 6.5t18.5 9.5t19 10l119 -299q-130 -75 -246 -92q43 -89 43 -177q0 -104 -56 -154t-137 -50q-89 0 -149 49l65 192q32 -22 58 -22 q47 0 47 59q0 45 -27 107q-115 25 -164 124.5t-49 278.5v381h-98z" />
<glyph unicode="&#x164;" horiz-adv-x="948" d="M29 1067v367h891v-367h-248v-1067h-387v1067h-256zM150 1802h243l82 -129l82 129h244l-166 -297h-320z" />
<glyph unicode="&#x165;" horiz-adv-x="747" d="M37 772v303h98v230l373 81v-311h194v-303h-194v-340q0 -26 3 -44t7 -26.5t10.5 -13.5t10 -5.5t8.5 -0.5q8 0 15.5 1.5t16.5 5.5t14.5 6.5t18.5 9.5t19 10l119 -299q-184 -99 -310 -99q-165 0 -235 102.5t-70 311.5v381h-98zM547 1382v293h237l9 -332l-187 -219l-57 93 l100 165h-102z" />
<glyph unicode="&#x166;" horiz-adv-x="958" d="M35 1067v367h891v-367h-248v-430h96v-234h-96v-403h-387v403h-98v234h98v430h-256z" />
<glyph unicode="&#x167;" horiz-adv-x="745" d="M35 772v303h98v230l373 81v-311h194v-303h-194v-67h149v-234h-149v-39q0 -26 3 -44t7 -26.5t10.5 -13.5t10 -5.5t8.5 -0.5q8 0 15.5 1.5t16.5 5.5t14.5 6.5t18.5 9.5t19 10l119 -299q-184 -99 -310 -99q-165 0 -235 102.5t-70 311.5v80h-67v234h67v67h-98z" />
<glyph unicode="&#x168;" horiz-adv-x="1140" d="M82 530v904h387v-947q0 -67 20.5 -103t79.5 -36q61 0 82 36.5t21 102.5v947h387v-904q0 -83 -7 -147.5t-26 -130.5t-54 -113.5t-88 -85.5t-132.5 -57t-182.5 -19q-102 0 -181 19t-131.5 57t-87.5 85.5t-53.5 113.5t-26 130.5t-7.5 147.5zM236 1595q47 125 72 166 q54 88 134 88q37 0 84.5 -24t87.5 -48t58 -24q40 0 76 94l147 -88q-48 -126 -74 -168q-54 -86 -131 -86q-38 0 -85.5 24t-87.5 48.5t-58 24.5q-37 0 -76 -95z" />
<glyph unicode="&#x169;" horiz-adv-x="1007" d="M70 303v772h372v-690q0 -86 37 -86q26 0 47.5 28.5t34.5 61.5v686h373v-1075h-373v104q-68 -63 -127 -95t-137 -32q-107 0 -167 83.5t-60 242.5zM184 1286q48 126 74 168q54 86 133 86q37 0 84.5 -24t87 -48t58.5 -24q39 0 75 94l148 -88q-48 -126 -74 -168 q-54 -86 -131 -86q-38 0 -85.5 24t-87.5 48t-58 24q-38 0 -76 -94z" />
<glyph unicode="&#x16a;" horiz-adv-x="1140" d="M82 530v904h387v-947q0 -67 20.5 -103t79.5 -36q61 0 82 36.5t21 102.5v947h387v-904q0 -83 -7 -147.5t-26 -130.5t-54 -113.5t-88 -85.5t-132.5 -57t-182.5 -19q-102 0 -181 19t-131.5 57t-87.5 85.5t-53.5 113.5t-26 130.5t-7.5 147.5zM334 1556v234h473v-234h-473z " />
<glyph unicode="&#x16b;" horiz-adv-x="1007" d="M70 303v772h372v-690q0 -86 37 -86q26 0 47.5 28.5t34.5 61.5v686h373v-1075h-373v104q-68 -63 -127 -95t-137 -32q-107 0 -167 83.5t-60 242.5zM264 1247v234h473v-234h-473z" />
<glyph unicode="&#x16c;" horiz-adv-x="1140" d="M82 530v904h387v-947q0 -67 20.5 -103t79.5 -36q61 0 82 36.5t21 102.5v947h387v-904q0 -83 -7 -147.5t-26 -130.5t-54 -113.5t-88 -85.5t-132.5 -57t-182.5 -19q-102 0 -181 19t-131.5 57t-87.5 85.5t-53.5 113.5t-26 130.5t-7.5 147.5zM281 1788h211q0 -30 20.5 -50 t56.5 -20q37 0 59.5 20t22.5 50h209q0 -133 -77 -208t-214 -75q-136 0 -212 75t-76 208z" />
<glyph unicode="&#x16d;" horiz-adv-x="1007" d="M70 303v772h372v-690q0 -86 37 -86q26 0 47.5 28.5t34.5 61.5v686h373v-1075h-373v104q-68 -63 -127 -95t-137 -32q-107 0 -167 83.5t-60 242.5zM211 1479h211q0 -30 21 -50t57 -20q37 0 59.5 20t22.5 50h209q0 -133 -77 -208t-214 -75q-136 0 -212.5 75.5t-76.5 207.5z " />
<glyph unicode="&#x16e;" horiz-adv-x="1140" d="M82 530v904h387v-947q0 -67 20.5 -103t79.5 -36q61 0 82 36.5t21 102.5v947h387v-904q0 -83 -7 -147.5t-26 -130.5t-54 -113.5t-88 -85.5t-132.5 -57t-182.5 -19q-102 0 -181 19t-131.5 57t-87.5 85.5t-53.5 113.5t-26 130.5t-7.5 147.5zM354 1702q0 90 63.5 153.5 t153.5 63.5q89 0 153 -64t64 -153q0 -90 -63.5 -153.5t-153.5 -63.5q-91 0 -154 63t-63 154zM518 1702q0 -23 15 -38t38 -15q22 0 38 15t16 38q0 22 -16 37.5t-38 15.5q-23 0 -38 -15.5t-15 -37.5z" />
<glyph unicode="&#x16f;" horiz-adv-x="1007" d="M70 303v772h372v-690q0 -86 37 -86q26 0 47.5 28.5t34.5 61.5v686h373v-1075h-373v104q-68 -63 -127 -95t-137 -32q-107 0 -167 83.5t-60 242.5zM287 1393q0 90 63.5 153.5t153.5 63.5q89 0 153 -64t64 -153q0 -90 -63.5 -153.5t-153.5 -63.5q-91 0 -154 63t-63 154z M451 1393q0 -23 15 -38.5t38 -15.5q22 0 37.5 15.5t15.5 38.5q0 22 -15.5 37.5t-37.5 15.5q-23 0 -38 -15.5t-15 -37.5z" />
<glyph unicode="&#x170;" horiz-adv-x="1140" d="M82 530v904h387v-947q0 -67 20.5 -103t79.5 -36q61 0 82 36.5t21 102.5v947h387v-904q0 -83 -7 -147.5t-26 -130.5t-54 -113.5t-88 -85.5t-132.5 -57t-182.5 -19q-102 0 -181 19t-131.5 57t-87.5 85.5t-53.5 113.5t-26 130.5t-7.5 147.5zM281 1505l120 297h289l-196 -297 h-213zM604 1505l121 297h289l-195 -297h-215z" />
<glyph unicode="&#x171;" horiz-adv-x="1007" d="M70 303v772h372v-690q0 -86 37 -86q26 0 47.5 28.5t34.5 61.5v686h373v-1075h-373v104q-68 -63 -127 -95t-137 -32q-107 0 -167 83.5t-60 242.5zM211 1196l121 297h289l-197 -297h-213zM535 1196l120 297h289l-194 -297h-215z" />
<glyph unicode="&#x172;" horiz-adv-x="1140" d="M82 530v904h387v-947q0 -67 20.5 -103t79.5 -36q61 0 82 36.5t21 102.5v947h387v-904q0 -84 -7 -149.5t-28 -132t-55.5 -114t-92.5 -84.5t-137 -54q-112 -103 -112 -184q0 -19 6.5 -32t15 -19t21.5 -9t21.5 -3t20.5 1h11l-29 -170q-1 0 -17 -0.5t-27.5 -0.5t-33.5 2 t-38.5 5t-39 10t-39 16.5t-34 24.5t-28.5 33.5t-18 45t-7 57.5q0 118 106 207q-109 5 -188.5 37t-126.5 79.5t-74.5 119.5t-37 145t-9.5 169z" />
<glyph unicode="&#x173;" horiz-adv-x="1007" d="M70 303v772h372v-690q0 -86 37 -86q26 0 47.5 28.5t34.5 61.5v686h373v-1075h-6q-119 -105 -119 -188q0 -19 6.5 -32t15 -19t21.5 -9t21.5 -3t20.5 1h11l-28 -170q-1 0 -17.5 -0.5t-27.5 -0.5t-33 2t-38.5 5t-39 10t-39 16.5t-34.5 24.5t-29 33.5t-18 45t-7 57.5 q0 131 133 227h-166v104q-68 -63 -127 -95t-137 -32q-107 0 -167 83.5t-60 242.5z" />
<glyph unicode="&#x174;" horiz-adv-x="1517" d="M12 1434h437l71 -637l101 637h276l100 -637l72 637h438l-278 -1434h-357l-114 717l-113 -717h-356zM434 1505l166 297h320l165 -297h-243l-82 129l-82 -129h-244z" />
<glyph unicode="&#x175;" horiz-adv-x="1323" d="M16 1075h394l47 -448l82 448h245l82 -452l47 452h394l-222 -1075h-327l-96 500l-95 -500h-329zM336 1196l166 297h319l166 -297h-244l-81 129l-82 -129h-244z" />
<glyph unicode="&#x177;" horiz-adv-x="952" d="M6 1075h389l80 -594l82 594h389l-391 -1493h-395l141 367zM150 1196l165 297h320l166 -297h-244l-82 129l-82 -129h-243z" />
<glyph unicode="&#x178;" horiz-adv-x="1067" d="M-4 1434h426l110 -381l113 381h426l-344 -863v-571h-387v571zM256 1526v280h254v-280h-254zM559 1526v280h254v-280h-254z" />
<glyph unicode="&#x179;" horiz-adv-x="1003" d="M45 0v322l428 745h-397v367h864v-320l-426 -747h434v-367h-903zM301 1505l180 297h375l-254 -297h-301z" />
<glyph unicode="&#x17a;" horiz-adv-x="942" d="M47 0v279l354 454h-340v342h828v-278l-357 -455h357v-342h-842zM262 1196l180 297h375l-254 -297h-301z" />
<glyph unicode="&#x17b;" horiz-adv-x="1003" d="M45 0v322l428 745h-397v367h864v-320l-426 -747h434v-367h-903zM381 1526v280h254v-280h-254z" />
<glyph unicode="&#x17c;" horiz-adv-x="942" d="M47 0v279l354 454h-340v342h828v-278l-357 -455h357v-342h-842zM342 1217v280h254v-280h-254z" />
<glyph unicode="&#x17d;" horiz-adv-x="1003" d="M45 0v322l428 745h-397v367h864v-320l-426 -747h434v-367h-903zM182 1802h244l82 -129l82 129h244l-166 -297h-320z" />
<glyph unicode="&#x17e;" horiz-adv-x="942" d="M47 0v279l354 454h-340v342h828v-278l-357 -455h357v-342h-842zM143 1493h244l82 -129l82 129h244l-166 -297h-320z" />
<glyph unicode="&#x17f;" horiz-adv-x="614" d="M31 772v303h98q5 210 72.5 314t216.5 104q141 0 332 -98l-125 -289q-67 29 -86 29q-37 0 -37 -70v-1065h-373v772h-98z" />
<glyph unicode="&#x192;" horiz-adv-x="976" d="M41 -418l182 1190h-102l55 303h92q13 84 29.5 144.5t44.5 115t66.5 87.5t95.5 52t133 19q147 0 319 -98l-161 -271q-76 39 -111 39q-23 0 -33.5 -21.5t-17.5 -66.5h211l-58 -303h-196l-176 -1190h-373z" />
<glyph unicode="&#x1fc;" horiz-adv-x="1703" d="M-51 0l649 1434h1040v-367h-440v-170h352v-358h-352v-172h447v-367h-834v217h-307l-90 -217h-465zM647 567h164v396zM696 1505l181 297h374l-254 -297h-301z" />
<glyph unicode="&#x1fd;" horiz-adv-x="1390" d="M31 334q0 161 78.5 253.5t218.5 92.5q24 0 48 -2.5t48 -8.5t38 -10t37.5 -11.5t26.5 -8.5q0 15 4 39q0 63 -19.5 85.5t-68.5 22.5q-41 0 -93 -14t-154 -53l-117 278q246 101 459 101q134 0 211 -45q82 45 194 45q134 0 228 -63.5t138 -170.5t44 -248q0 -44 -4 -84.5 t-8 -59.5l-5 -19h-438q2 -89 18.5 -129.5t63.5 -40.5q57 0 240 106l137 -246q-241 -166 -432 -166q-232 0 -336 209q-71 -110 -139 -159.5t-150 -49.5q-87 0 -149.5 51t-90.5 130t-28 176zM406 377q0 -40 13.5 -62t35.5 -22q24 0 46.5 24.5t30.5 53.5q-5 29 -8 78 q-45 20 -59 20q-25 0 -42 -22.5t-17 -69.5zM485 1196l181 297h374l-254 -297h-301zM897 664h119q-1 40 -2.5 60.5t-7.5 42.5t-18 31t-32 9q-24 0 -37 -18t-17 -46t-5 -79z" />
<glyph unicode="&#x1fe;" horiz-adv-x="1193" d="M45 717q0 739 553 739q157 0 266 -59l21 37h248l-107 -187q123 -186 123 -530q0 -740 -551 -740q-153 0 -266 58l-21 -35h-248l105 182q-123 186 -123 535zM391 1505l180 297h375l-254 -297h-301zM442 662l230 399q-30 24 -74 24q-47 0 -78.5 -25.5t-48 -77t-23 -114 t-6.5 -151.5v-55zM522 371q29 -23 76 -23q46 0 77 25.5t47.5 77t23 114.5t6.5 152v51z" />
<glyph unicode="&#x1ff;" d="M37 539q0 559 448 559q128 0 220 -47l14 24h188l-80 -129q107 -140 107 -409q0 -560 -449 -560q-131 0 -223 50l-16 -27h-195l84 137q-98 140 -98 402zM260 1196l180 297h375l-254 -297h-301zM412 580l112 182q-15 18 -39 18q-41 0 -56 -47.5t-17 -152.5zM440 317 q14 -22 45 -22q42 0 57 50.5t17 162.5z" />
<glyph unicode="&#x218;" horiz-adv-x="1032" d="M29 188l178 299q88 -60 178.5 -104.5t142.5 -44.5q25 0 40.5 12t15.5 35q0 25 -25 53.5t-57.5 51.5t-93.5 65.5t-105 77.5q-75 59 -126 112.5t-89.5 134.5t-38.5 171q0 80 26.5 151.5t78.5 129t137.5 91t193.5 33.5q239 0 490 -162l-180 -305q-192 107 -271 107 q-29 0 -46 -12t-17 -35q0 -33 35.5 -68t123 -94.5t121.5 -85.5q53 -40 92 -77.5t79 -89.5t61.5 -114.5t21.5 -132.5q0 -75 -24 -145t-73 -130.5t-134 -97.5t-195 -37q-150 0 -292 61.5t-248 149.5zM412 -104h237l8 -332l-186 -219l-57 92l100 166h-102v293z" />
<glyph unicode="&#x219;" horiz-adv-x="876" d="M27 123l135 258q63 -41 146.5 -75t125.5 -34q41 0 41 31q0 24 -39 44q-16 8 -60 26q-18 8 -28 12q-48 20 -87.5 42t-82 55.5t-71.5 71.5t-47.5 91t-18.5 113q0 67 22 127t64.5 108t113 76.5t160.5 28.5q109 0 223 -37.5t193 -85.5l-133 -246q-55 28 -120.5 51t-100.5 23 q-47 0 -47 -35q0 -5 1.5 -9.5t4.5 -8.5t7 -7.5t11.5 -7.5t14 -7t18 -8t21.5 -9t26.5 -10.5t30.5 -12.5q43 -18 77 -35.5t78.5 -50.5t74 -70.5t50.5 -93.5t21 -121q0 -68 -22 -128t-65.5 -108t-116 -76t-165.5 -28q-122 0 -250.5 44t-205.5 102zM309 -104h238l8 -332 l-186 -219l-58 92l101 166h-103v293z" />
<glyph unicode="&#x21a;" horiz-adv-x="948" d="M29 1067v367h891v-367h-248v-1067h-387v1067h-256zM362 -104h238l8 -332l-186 -219l-57 92l100 166h-103v293z" />
<glyph unicode="&#x21b;" horiz-adv-x="747" d="M37 772v303h98v230l373 81v-311h194v-303h-194v-340q0 -26 3 -44t7 -26.5t10.5 -13.5t10 -5.5t8.5 -0.5q8 0 15.5 1.5t16.5 5.5t14.5 6.5t18.5 9.5t19 10l119 -299q-184 -99 -310 -99q-165 0 -235 102.5t-70 311.5v381h-98zM215 -104h238l8 -332l-187 -219l-57 92 l100 166h-102v293z" />
<glyph unicode="&#x2b0;" horiz-adv-x="688" d="M72 788v895h245v-309q4 3 17.5 13t17.5 13t15.5 11t17 11t16 8.5t18 7.5t18 5t21 4t21.5 1q68 0 106 -51t38 -150v-459h-244v404q0 45 -21 45q-14 0 -25 -13.5t-16 -29.5v-406h-245z" />
<glyph unicode="&#x2b2;" horiz-adv-x="385" d="M-31 686q71 35 86 59.5t15 90.5v598h245v-574q0 -57 -1 -82.5t-5.5 -64.5t-15 -57t-29 -44.5t-48 -43t-71 -36.5t-100.5 -40zM68 1481v200h249v-200h-249z" />
<glyph unicode="&#x2b7;" horiz-adv-x="847" d="M14 1434h258l25 -242l45 242h162l45 -244l24 244h258l-137 -646h-215l-55 281l-55 -281h-217z" />
<glyph unicode="&#x2b8;" horiz-adv-x="604" d="M4 1434h256l43 -332l43 332h256l-244 -895h-258l86 217z" />
<glyph unicode="&#x2c6;" horiz-adv-x="462" d="M-94 1196l166 297h319l166 -297h-244l-82 129l-81 -129h-244z" />
<glyph unicode="&#x2c7;" horiz-adv-x="462" d="M-94 1493h244l81 -129l82 129h244l-166 -297h-319z" />
<glyph unicode="&#x2d8;" horiz-adv-x="428" d="M-76 1479h211q0 -30 21 -50t57 -20q37 0 59.5 20t22.5 50h209q0 -133 -77 -208t-214 -75q-136 0 -212.5 75.5t-76.5 207.5z" />
<glyph unicode="&#x2d9;" horiz-adv-x="180" d="M-37 1217v280h254v-280h-254z" />
<glyph unicode="&#x2da;" horiz-adv-x="389" d="M-23 1393q0 89 63.5 153t154.5 64q89 0 153 -64t64 -153q0 -90 -63.5 -153.5t-153.5 -63.5q-91 0 -154.5 63t-63.5 154zM141 1393q0 -23 15.5 -38.5t38.5 -15.5q22 0 37.5 15.5t15.5 38.5q0 22 -15.5 37.5t-37.5 15.5q-23 0 -38.5 -15.5t-15.5 -37.5z" />
<glyph unicode="&#x2db;" horiz-adv-x="262" d="M-76 -227q0 146 168 250l170 -21q-123 -109 -123 -190q0 -18 6.5 -31.5t15 -19.5t22 -9t22 -3t19.5 1h12l-29 -170q-1 0 -17.5 -0.5t-27.5 -0.5t-33 2t-38.5 5t-39 10t-39 16.5t-34.5 24.5t-29 33.5t-18 45t-7 57.5z" />
<glyph unicode="&#x2dc;" horiz-adv-x="454" d="M-102 1286q47 125 72 166q54 88 134 88q37 0 84.5 -24t87.5 -48t58 -24q40 0 76 94l147 -88q-48 -126 -74 -168q-54 -86 -131 -86q-38 0 -85.5 24t-87.5 48t-58 24q-38 0 -76 -94z" />
<glyph unicode="&#x2dd;" horiz-adv-x="557" d="M-88 1196l121 297h289l-197 -297h-213zM236 1196l120 297h289l-194 -297h-215z" />
<glyph unicode="&#x2e3;" horiz-adv-x="643" d="M4 788l172 322l-162 324h269l39 -93l38 93h269l-162 -326l172 -320h-277l-40 99l-41 -99h-277z" />
<glyph unicode="&#x3c0;" horiz-adv-x="925" d="M35 721v354h856v-354h-103v-721h-301v721h-49v-721h-301v721h-102z" />
<glyph unicode="&#x1e80;" horiz-adv-x="1517" d="M12 1434h437l71 -637l101 637h276l100 -637l72 637h438l-278 -1434h-357l-114 717l-113 -717h-356zM412 1802h374l181 -297h-299z" />
<glyph unicode="&#x1e81;" horiz-adv-x="1323" d="M16 1075h394l47 -448l82 448h245l82 -452l47 452h394l-222 -1075h-327l-96 500l-95 -500h-329zM315 1493h375l180 -297h-299z" />
<glyph unicode="&#x1e82;" horiz-adv-x="1517" d="M12 1434h437l71 -637l101 637h276l100 -637l72 637h438l-278 -1434h-357l-114 717l-113 -717h-356zM551 1505l180 297h375l-254 -297h-301z" />
<glyph unicode="&#x1e83;" horiz-adv-x="1323" d="M16 1075h394l47 -448l82 448h245l82 -452l47 452h394l-222 -1075h-327l-96 500l-95 -500h-329zM457 1196l180 297h375l-254 -297h-301z" />
<glyph unicode="&#x1e84;" horiz-adv-x="1517" d="M12 1434h437l71 -637l101 637h276l100 -637l72 637h438l-278 -1434h-357l-114 717l-113 -717h-356zM479 1526v280h254v-280h-254zM782 1526v280h254v-280h-254z" />
<glyph unicode="&#x1e85;" horiz-adv-x="1323" d="M16 1075h394l47 -448l82 448h245l82 -452l47 452h394l-222 -1075h-327l-96 500l-95 -500h-329zM385 1217v280h254v-280h-254zM688 1217v280h254v-280h-254z" />
<glyph unicode="&#x1e9e;" horiz-adv-x="1312" d="M92 0v858q0 70 5 127.5t19.5 118.5t38 108t63 90t93 71t129.5 44.5t170 16.5h561v-283l-182 -279q132 -56 209.5 -166.5t77.5 -275.5q0 -93 -26 -174t-76.5 -144t-131.5 -99t-184 -36q-168 0 -340 93l144 307q22 -14 59 -27.5t65 -13.5q37 0 64 28t27 89q0 25 -6 43.5 t-25.5 41t-65 34.5t-114.5 12h-76v266l147 217h-96q-89 0 -125.5 -64.5t-36.5 -236.5v-766h-387z" />
<glyph unicode="&#x1ef2;" horiz-adv-x="1067" d="M-4 1434h426l110 -381l113 381h426l-344 -863v-571h-387v571zM186 1802h375l180 -297h-299z" />
<glyph unicode="&#x1ef3;" horiz-adv-x="952" d="M6 1075h389l80 -594l82 594h389l-391 -1493h-395l141 367zM127 1493h375l180 -297h-299z" />
<glyph unicode="&#x2000;" horiz-adv-x="959" />
<glyph unicode="&#x2001;" horiz-adv-x="1919" />
<glyph unicode="&#x2002;" horiz-adv-x="959" />
<glyph unicode="&#x2003;" horiz-adv-x="1919" />
<glyph unicode="&#x2004;" horiz-adv-x="639" />
<glyph unicode="&#x2005;" horiz-adv-x="479" />
<glyph unicode="&#x2006;" horiz-adv-x="319" />
<glyph unicode="&#x2007;" horiz-adv-x="319" />
<glyph unicode="&#x2008;" horiz-adv-x="239" />
<glyph unicode="&#x2009;" horiz-adv-x="383" />
<glyph unicode="&#x200a;" horiz-adv-x="106" />
<glyph unicode="&#x2010;" horiz-adv-x="688" d="M76 418v330h536v-330h-536z" />
<glyph unicode="&#x2011;" horiz-adv-x="688" d="M76 418v330h536v-330h-536z" />
<glyph unicode="&#x2012;" horiz-adv-x="688" d="M76 418v330h536v-330h-536z" />
<glyph unicode="&#x2013;" horiz-adv-x="860" d="M74 420v325h712v-325h-712z" />
<glyph unicode="&#x2014;" horiz-adv-x="1017" d="M74 420v325h870v-325h-870z" />
<glyph unicode="&#x2018;" horiz-adv-x="501" d="M57 1155l283 320l88 -136l-154 -243h156v-428h-356z" />
<glyph unicode="&#x2019;" horiz-adv-x="483" d="M66 1006v428h356l16 -488l-282 -319l-88 135l153 244h-155z" />
<glyph unicode="&#x201a;" horiz-adv-x="514" d="M76 0v428h356l17 -487l-283 -320l-88 135l153 244h-155z" />
<glyph unicode="&#x201c;" horiz-adv-x="931" d="M57 1155l283 320l88 -136l-154 -243h156v-428h-356zM487 1155l283 320l88 -136l-153 -243h155v-428h-356z" />
<glyph unicode="&#x201d;" horiz-adv-x="913" d="M66 1006v428h356l16 -488l-282 -319l-88 135l153 244h-155zM496 1006v428h356l16 -488l-282 -319l-88 135l153 244h-155z" />
<glyph unicode="&#x201e;" horiz-adv-x="944" d="M76 0v428h356l17 -487l-283 -320l-88 135l153 244h-155zM504 0v428h356l17 -487l-283 -320l-88 135l153 244h-155z" />
<glyph unicode="&#x2020;" horiz-adv-x="935" d="M37 719v328l295 -35v422h272v-422l295 35v-328l-295 35v-1172h-272v1172z" />
<glyph unicode="&#x2021;" horiz-adv-x="964" d="M51 182v328l295 -35v279l-295 -35v328l295 -35v422h272v-422l295 35v-328l-295 35v-279l295 35v-328l-295 35v-635h-272v635z" />
<glyph unicode="&#x2022;" horiz-adv-x="899" d="M104 584q0 145 100.5 246.5t244.5 101.5q145 0 245.5 -101.5t100.5 -246.5q0 -143 -101 -243.5t-245 -100.5t-244.5 100.5t-100.5 243.5z" />
<glyph unicode="&#x2026;" horiz-adv-x="1411" d="M76 0v428h356v-428h-356zM528 0v428h357v-428h-357zM979 0v428h356v-428h-356z" />
<glyph unicode="&#x202f;" horiz-adv-x="383" />
<glyph unicode="&#x2030;" horiz-adv-x="2160" d="M39 1071q0 181 74.5 283t232.5 102t232.5 -102t74.5 -283q0 -180 -74.5 -281.5t-232.5 -101.5t-232.5 101.5t-74.5 281.5zM297 1071q0 -76 9.5 -106.5t39.5 -30.5t39.5 30.5t9.5 106.5q0 77 -9.5 108t-39.5 31t-39.5 -31t-9.5 -108zM367 0l495 1434h273l-494 -1434h-274z M852 360q0 181 74.5 283t232.5 102t232.5 -102t74.5 -283q0 -180 -74.5 -281.5t-232.5 -101.5t-232.5 101.5t-74.5 281.5zM1110 360q0 -76 9.5 -106.5t39.5 -30.5t39.5 30.5t9.5 106.5q0 77 -9.5 108.5t-39.5 31.5t-39.5 -31.5t-9.5 -108.5zM1507 360q0 180 75 282.5 t233 102.5t232.5 -102t74.5 -283q0 -180 -74.5 -281.5t-232.5 -101.5t-233 101.5t-75 281.5zM1765 360q0 -76 9.5 -106.5t40.5 -30.5q30 0 39.5 30.5t9.5 106.5q0 77 -9.5 108.5t-39.5 31.5t-40 -32t-10 -108z" />
<glyph unicode="&#x2039;" horiz-adv-x="542" d="M37 416v246l426 415v-444l-123 -94l123 -95v-444z" />
<glyph unicode="&#x203a;" horiz-adv-x="542" d="M80 0v444l123 95l-123 94v444l426 -415v-246z" />
<glyph unicode="&#x2044;" horiz-adv-x="378" d="M-168 0l451 1434h268l-451 -1434h-268z" />
<glyph unicode="&#x205f;" horiz-adv-x="479" />
<glyph unicode="&#x2070;" horiz-adv-x="710" d="M45 1219q0 444 311 444q310 0 310 -444q0 -445 -312 -445q-309 0 -309 445zM297 1219q0 -135 12.5 -181.5t44.5 -46.5q34 0 47 46t13 182q0 135 -13 181t-45 46q-34 0 -46.5 -45t-12.5 -182z" />
<glyph unicode="&#x2074;" horiz-adv-x="741" d="M29 924v190l247 535h336v-494h90v-231h-90v-136h-252v136h-331zM250 1155h110v236z" />
<glyph unicode="&#x2075;" horiz-adv-x="661" d="M25 907l122 191q94 -82 150 -82q30 0 46.5 16.5t16.5 44.5q0 27 -15 48.5t-52 21.5q-42 0 -88 -41l-139 88l32 455h492v-232h-271v-49q28 4 46 4q64 0 113 -24.5t77.5 -66.5t42.5 -92.5t14 -107.5q0 -63 -16 -117t-48.5 -97t-86.5 -68t-125 -25q-165 0 -311 133z" />
<glyph unicode="&#x2076;" horiz-adv-x="669" d="M43 1165q0 137 51.5 249.5t153.5 180.5t237 68q31 0 59.5 -3.5t41.5 -7.5l12 -3l-57 -219q-27 6 -54 6q-48 0 -91.5 -28t-69.5 -89q45 31 98 31q91 0 152 -72t61 -193q0 -139 -76.5 -225t-214.5 -86q-153 0 -228 106.5t-75 284.5zM297 1120q1 -40 5.5 -65.5t12.5 -36 t15 -14t18 -3.5q37 0 37 68q0 76 -43 76q-31 0 -45 -25z" />
<glyph unicode="&#x2077;" horiz-adv-x="565" d="M37 1417v232h506v-219q-9 -13 -23.5 -36t-51.5 -95.5t-65.5 -144.5t-51.5 -173.5t-23 -192.5h-258q0 108 27.5 221.5t69 200.5t68 134.5t44.5 72.5h-242z" />
<glyph unicode="&#x2078;" horiz-adv-x="696" d="M41 1020q0 146 133 237q-90 76 -90 187q0 94 69 156.5t195 62.5t195 -62.5t69 -156.5q0 -112 -92 -187q135 -92 135 -237q0 -108 -77.5 -177t-229.5 -69t-229.5 69t-77.5 177zM293 1040q0 -25 13.5 -41t41.5 -16t41.5 16t13.5 41q0 61 -55 107q-55 -46 -55 -107z M309 1427q0 -42 39 -73q37 29 37 73q0 7 -2.5 14t-11.5 14t-23 7q-22 0 -30.5 -11.5t-8.5 -23.5z" />
<glyph unicode="&#x2079;" horiz-adv-x="669" d="M35 1352q0 139 76 225t215 86q152 0 226.5 -106.5t74.5 -284.5q0 -102 -30 -192.5t-85.5 -158.5t-140 -107.5t-187.5 -39.5q-30 0 -58 3.5t-41 6.5l-13 4l59 220q22 -7 51 -7q116 0 164 119q-42 -33 -100 -33q-91 0 -151 72t-60 193zM285 1368q0 -76 45 -76q28 0 45 27 q-4 117 -51 117q-39 0 -39 -68z" />
<glyph unicode="&#x207a;" horiz-adv-x="550" d="M37 1102v194h139v156h195v-156h141v-194h-141v-158h-195v158h-139z" />
<glyph unicode="&#x207d;" horiz-adv-x="423" d="M63 981v2v467v2q0 40 0.5 58.5t2 50.5t5 47.5t10 40.5t16.5 37.5t25 31.5t35 30t46 25t59 25t74 21l57 -144q-51 -29 -63.5 -56.5t-12.5 -86.5v-631q0 -60 13 -88t63 -55l-57 -146q-68 17 -115 35.5t-77 46.5t-46.5 50t-24 67t-9 74.5t-1.5 95.5z" />
<glyph unicode="&#x207e;" horiz-adv-x="428" d="M33 756q51 29 63.5 56.5t12.5 86.5v631q0 60 -13 88t-63 55l57 146q58 -15 100.5 -32.5t72 -34t48.5 -44t29.5 -47t15 -60.5t5.5 -67t1 -82v-4v-467v-4q0 -77 -2 -111.5t-15 -82.5t-41.5 -72.5t-80.5 -51t-133 -47.5z" />
<glyph unicode="&#x207f;" horiz-adv-x="688" d="M72 788v646h245v-60q42 37 78 55.5t84 18.5q68 0 106 -51t38 -150v-459h-244v404q0 45 -21 45q-14 0 -25 -13.5t-16 -29.5v-406h-245z" />
<glyph unicode="&#x2080;" horiz-adv-x="710" d="M45 123q0 444 311 444q310 0 310 -444q0 -445 -312 -445q-309 0 -309 445zM297 123q0 -135 12.5 -181t44.5 -46q34 0 47 45.5t13 181.5q0 135 -13 181t-45 46q-34 0 -46.5 -45t-12.5 -182z" />
<glyph unicode="&#x2081;" horiz-adv-x="585" d="M4 401l205 152h242v-860h-250v608l-92 -65z" />
<glyph unicode="&#x2082;" horiz-adv-x="663" d="M37 -201q0 178 180 344q13 12 38.5 34.5t39.5 35.5t30 30t23.5 32t7.5 28q0 12 -9 21.5t-28 9.5q-45 0 -147 -76l-119 172q144 137 305 137q64 0 114.5 -23t79.5 -60.5t43.5 -80.5t14.5 -88q0 -149 -159 -292q-12 -11 -32 -28.5t-29.5 -26t-21 -19.5t-16 -16.5t-4.5 -8.5 h262v-231h-573v106z" />
<glyph unicode="&#x2083;" horiz-adv-x="657" d="M20 -190l117 184q115 -78 170 -78q23 0 38 13t15 32q0 62 -135 62h-24v227h30q105 0 105 49q0 5 -1.5 11t-11 14t-26.5 8q-48 0 -141 -66l-109 168q153 133 305 133q111 0 173.5 -62.5t62.5 -154.5q0 -36 -8 -65.5t-26.5 -53t-28 -34t-31.5 -29.5q55 -32 86.5 -88 t31.5 -131q0 -49 -14 -94.5t-43 -86.5t-82.5 -65.5t-124.5 -24.5q-167 0 -328 132z" />
<glyph unicode="&#x2084;" horiz-adv-x="741" d="M29 18l247 535h336v-494h90v-231h-90v-135h-252v135h-331v190zM250 59h110v236z" />
<glyph unicode="&#x2085;" horiz-adv-x="663" d="M27 -188l123 190q94 -82 149 -82q30 0 46.5 17t16.5 45q0 27 -15 48t-52 21q-42 0 -88 -41l-139 88l32 455h492v-231h-270v-50q28 4 45 4q85 0 142.5 -43t81 -106t23.5 -141q0 -85 -27.5 -152.5t-91.5 -111.5t-157 -44q-164 0 -311 134z" />
<glyph unicode="&#x2086;" horiz-adv-x="669" d="M43 70q0 137 51.5 249t153.5 180t237 68q31 0 59.5 -3.5t41.5 -7.5l12 -3l-57 -219q-27 6 -54 6q-48 0 -91.5 -28t-69.5 -89q45 31 98 31q91 0 152 -71.5t61 -192.5q0 -139 -77 -225.5t-214 -86.5q-153 0 -228 107t-75 285zM297 25q1 -40 5.5 -65.5t12.5 -36t15 -14 t18 -3.5q37 0 37 67q0 76 -43 76q-31 0 -45 -24z" />
<glyph unicode="&#x2087;" horiz-adv-x="567" d="M39 322v231h506v-219q-9 -13 -23.5 -36t-51.5 -95t-65.5 -144t-51.5 -173.5t-23 -192.5h-258q0 108 27.5 221.5t69 200.5t68 134.5t44.5 72.5h-242z" />
<glyph unicode="&#x2088;" horiz-adv-x="696" d="M41 -76q0 147 133 238q-90 76 -90 186q0 94 69 156.5t195 62.5t195 -62.5t69 -156.5q0 -111 -92 -186q135 -92 135 -238q0 -108 -77.5 -177t-229.5 -69t-229.5 69t-77.5 177zM293 -55q0 -25 13.5 -41.5t41.5 -16.5t41.5 16.5t13.5 41.5q0 60 -55 106q-55 -46 -55 -106z M309 332q0 -43 39 -74q37 29 37 74q0 7 -2.5 14t-11.5 14t-23 7q-22 0 -30.5 -11.5t-8.5 -23.5z" />
<glyph unicode="&#x2089;" horiz-adv-x="669" d="M35 256q0 139 76 225t215 86q152 0 226.5 -106.5t74.5 -284.5q0 -102 -30 -192.5t-85.5 -158.5t-140 -107.5t-187.5 -39.5q-30 0 -58 4t-41 8l-13 3l59 219q22 -6 51 -6q116 0 164 119q-42 -33 -100 -33q-91 0 -151 71.5t-60 192.5zM285 272q0 -75 45 -75q29 0 45 26 q-4 117 -51 117q-39 0 -39 -68z" />
<glyph unicode="&#x208a;" horiz-adv-x="550" d="M37 6v195h139v155h195v-155h141v-195h-141v-158h-195v158h-139z" />
<glyph unicode="&#x208d;" horiz-adv-x="423" d="M63 -113v467v2q0 40 0.5 58.5t2 50.5t5 47.5t10 40.5t16.5 37.5t25 31.5t35 30t46 25t59 25t74 21l57 -143q-51 -29 -63.5 -56.5t-12.5 -87.5v-631q0 -60 13 -88t63 -55l-57 -145q-58 15 -101 32.5t-72.5 34t-48.5 44t-29.5 47t-15 60.5t-5.5 67t-1 83v2z" />
<glyph unicode="&#x208e;" horiz-adv-x="428" d="M33 -340q51 29 63.5 56.5t12.5 86.5v631q0 60 -13 88.5t-63 55.5l57 145q58 -15 100.5 -32.5t72 -34t48.5 -44t29.5 -47t15 -60.5t5.5 -67t1 -82v-4v-467v-4q0 -65 -1.5 -94t-8.5 -73.5t-24 -66t-46.5 -49t-76.5 -46t-115 -35.5z" />
<glyph unicode="&#x20a1;" horiz-adv-x="868" d="M55 719q0 144 30.5 254t83.5 175t119 97.5t142 32.5l25 -2l24 158h131l-28 -181l18 -4l31 185h131l-37 -234q22 -10 55.5 -28t44.5 -23l-151 -301q-125 74 -164 74q-26 0 -42.5 -14t-24 -44.5t-9.5 -61.5t-2 -83t2 -83.5t9.5 -62.5t24 -45t42.5 -14q39 0 164 74l151 -301 q-150 -83 -264 -113l-26 -174h-132l25 158h-20l-25 -158h-131l31 193q-105 54 -166.5 185.5t-61.5 340.5z" />
<glyph unicode="&#x20a4;" horiz-adv-x="944" d="M76 0v289q4 1 11.5 3.5t27.5 13.5t38 26t38 42.5t32 61.5h-133v189h141q-9 43 -14 61h-127v191h55q-39 112 -39 223q0 169 87 262.5t251 93.5q218 0 455 -201l-180 -258q-113 101 -180 101q-43 0 -43 -62q0 -52 43 -159h256v-191h-201l6 -61h195v-189h-211 q-13 -38 -41 -78h342v-358h-809z" />
<glyph unicode="&#x20a7;" horiz-adv-x="1146" d="M82 868v152h35v414h409q139 0 242 -30t165.5 -86.5t95.5 -129.5t42 -168h39v-152h-39q-9 -95 -42 -167.5t-95.5 -128t-165 -84.5t-242.5 -29h-22v-459h-387v868h-35zM504 813h28q110 0 138 55h-166v-55zM504 1020h166q-28 55 -138 55h-28v-55z" />
<glyph unicode="&#x20a9;" horiz-adv-x="1617" d="M59 838v233h72l-70 363h437l71 -637l101 637h276l101 -637l71 637h438l-71 -363h69v-233h-114l-23 -113h137v-233h-182l-94 -492h-356l-115 717l-113 -717h-356l-96 492h-181v233h136l-21 113h-117z" />
<glyph unicode="&#x20ac;" horiz-adv-x="1110" d="M47 475v207h80v59h-80v207h94q33 252 145.5 380t291.5 128q118 0 226 -40t265 -122l-162 -323q-84 38 -114 51t-75.5 28t-74.5 15q-75 0 -100 -117h188v-207h-207v-59h207v-207h-186q25 -106 98 -106q29 0 74.5 15t75.5 28t114 51l162 -324q-77 -40 -126 -63.5 t-114.5 -49.5t-126.5 -37.5t-124 -11.5q-177 0 -288.5 125t-146.5 373h-96z" />
<glyph unicode="&#x2116;" horiz-adv-x="1916" d="M104 0v1434h390l217 -639v639h387v-1434h-389l-217 639v-639h-388zM1141 979q0 210 92.5 323t275.5 113q184 0 276.5 -112.5t92.5 -323.5q0 -212 -92 -324t-277 -112q-184 0 -276 112t-92 324zM1214 242v233h586v-233h-586zM1464 979q0 -87 8 -121.5t37 -34.5t37 34.5 t8 121.5t-8 121.5t-37 34.5t-37 -34.5t-8 -121.5z" />
<glyph unicode="&#x2117;" horiz-adv-x="1566" d="M53 717q0 156 49 290.5t140 234.5t230.5 157t311.5 57t311 -57t230 -157t139.5 -234.5t48.5 -290.5t-48.5 -290.5t-139.5 -234.5t-230 -157.5t-311 -57.5t-311.5 57.5t-230.5 157.5t-140 234.5t-49 290.5zM131 717q0 -190 74 -339t223.5 -238t353.5 -89q155 0 280 51 t206.5 141t125.5 211.5t44 262.5t-44 262t-125.5 211t-206.5 141t-280 51q-154 0 -278.5 -51t-205 -141t-124 -211t-43.5 -262zM559 285v862h287q299 0 299 -262q0 -264 -299 -264h-195v-336h-92zM651 700h197q95 0 150 45t55 140t-55 139.5t-150 44.5h-197v-369z" />
<glyph unicode="&#x2120;" horiz-adv-x="1005" d="M55 1028l60 111q31 -18 71 -32.5t64 -14.5q33 0 33 14q0 9 -54 27q-4 1 -6 2t-5.5 2t-6.5 2q-148 52 -148 159q0 60 44 102t124 42q100 0 195 -51l-59 -103q-69 31 -111 31q-35 0 -35 -14q0 -9 14.5 -15.5t59.5 -21.5q29 -10 51.5 -21.5t46 -29.5t36.5 -45.5t13 -61.5 q0 -61 -45 -103t-127 -42q-58 0 -118 19t-97 44zM471 975v459h145l80 -215l84 215h146v-459h-144v205l-49 -129h-71l-48 108v-184h-143z" />
<glyph unicode="&#x2122;" horiz-adv-x="997" d="M84 1298v136h342v-136h-100v-323h-142v323h-100zM459 975v459h145l80 -215l84 215h145v-459h-143v205l-49 -129h-72l-47 108v-184h-143z" />
<glyph unicode="&#x2126;" horiz-adv-x="1226" d="M66 784q0 93 14.5 180.5t53 179t98 159t158 110.5t224.5 43q125 0 223.5 -43t158 -110.5t98 -159t53 -179t14.5 -180.5q0 -149 -45.5 -270t-107.5 -156h127v-358h-506v373q25 6 45 17t34 30t24 35t16 46.5t9.5 49t5 58t1.5 57.5v63q0 84 -6 144t-22 110.5t-46.5 76 t-75.5 25.5q-46 0 -77 -25.5t-46.5 -76t-21.5 -109.5t-6 -143q0 -65 1.5 -102.5t8.5 -87.5t21 -78.5t40.5 -53.5t65.5 -36v-373h-508v358h129q-64 35 -109.5 155.5t-45.5 270.5z" />
<glyph unicode="&#x2153;" horiz-adv-x="1501" d="M31 1282l205 152h241v-861h-250v609l-92 -66zM338 0l450 1434h269l-451 -1434h-268zM856 117l117 184q115 -78 170 -78q23 0 38 13t15 32q0 62 -135 62h-25v227h31q104 0 104 49q0 5 -1.5 11t-10.5 14t-26 8q-49 0 -142 -66l-108 168q153 133 305 133q111 0 173 -62.5 t62 -154.5q0 -36 -8 -65.5t-26.5 -53t-28 -34t-31.5 -29.5q56 -32 87.5 -88t31.5 -131q0 -49 -14 -94.5t-43 -86t-82.5 -65t-124.5 -24.5q-169 0 -328 131z" />
<glyph unicode="&#x2154;" horiz-adv-x="1646" d="M47 573v107q0 178 180 344q14 13 39 35t39.5 35t30.5 30t23.5 32t7.5 28q0 12 -9 21t-28 9q-47 0 -148 -75l-119 172q144 137 306 137q64 0 114.5 -23t79.5 -60.5t43.5 -80.5t14.5 -88q0 -149 -160 -293q-13 -12 -32 -28.5t-29.5 -25.5t-21.5 -19.5t-15.5 -16t-4.5 -8.5 h263v-232h-574zM496 0l450 1434h268l-450 -1434h-268zM1014 117l116 184q115 -78 170 -78q23 0 38.5 13t15.5 32q0 62 -135 62h-25v227h31q104 0 104 49q0 5 -1.5 11t-11 14t-26.5 8q-48 0 -141 -66l-109 168q153 133 306 133q111 0 173 -62.5t62 -154.5q0 -36 -8 -65.5 t-26.5 -53t-28 -34t-31.5 -29.5q56 -32 87.5 -88t31.5 -131q0 -49 -14 -94.5t-43.5 -86t-83 -65t-124.5 -24.5q-168 0 -327 131z" />
<glyph unicode="&#x2155;" horiz-adv-x="1521" d="M31 1282l205 152h241v-861h-250v609l-92 -66zM338 0l450 1434h269l-451 -1434h-268zM872 119l123 190q94 -82 150 -82q30 0 46.5 17t16.5 45q0 27 -15 48t-52 21q-42 0 -88 -41l-140 89l33 454h492v-231h-271v-49q28 4 45 4q85 0 142.5 -43t81.5 -106.5t24 -141.5 q0 -63 -16 -117t-48.5 -97t-86.5 -68t-125 -25q-166 0 -312 133z" />
<glyph unicode="&#x2156;" horiz-adv-x="1658" d="M43 573v107q0 178 180 344q13 12 38.5 34.5t39.5 35.5t30 30t23.5 32t7.5 28q0 30 -36 30q-47 0 -148 -75l-119 172q144 137 306 137q64 0 114.5 -23t79 -60.5t43 -80.5t14.5 -88q0 -150 -159 -293q-13 -12 -32 -28.5t-29.5 -25.5t-21.5 -19.5t-15.5 -16t-4.5 -8.5h262 v-232h-573zM492 0l450 1434h268l-450 -1434h-268zM1026 119l123 190q94 -82 149 -82q30 0 47 17t17 45q0 26 -15.5 47.5t-52.5 21.5q-42 0 -88 -41l-139 89l33 454h491v-231h-270v-49q28 4 45 4q85 0 142.5 -43t81.5 -106.5t24 -141.5q0 -132 -69.5 -219.5t-207.5 -87.5 q-165 0 -311 133z" />
<glyph unicode="&#x2157;" horiz-adv-x="1615" d="M37 690l117 184q113 -77 170 -77q23 0 38 13t15 32q0 61 -135 61h-25v227h31q104 0 104 50q0 5 -1.5 10.5t-11 13.5t-26.5 8q-49 0 -141 -65l-109 168q153 133 306 133q111 0 173 -62.5t62 -154.5q0 -36 -8 -65.5t-26.5 -53t-28 -34t-31.5 -29.5q55 -32 87 -88.5 t32 -131.5q0 -49 -14 -94.5t-43 -86t-82.5 -65t-124.5 -24.5q-169 0 -328 131zM438 0l451 1434h268l-450 -1434h-269zM973 119l123 190q94 -82 149 -82q30 0 47 17t17 45q0 26 -15.5 47.5t-52.5 21.5q-42 0 -88 -41l-139 89l33 454h491v-231h-270v-49q28 4 45 4 q85 0 142.5 -43t81.5 -106.5t24 -141.5q0 -132 -69.5 -219.5t-207.5 -87.5q-165 0 -311 133z" />
<glyph unicode="&#x2158;" horiz-adv-x="1708" d="M39 709v190l248 535h336v-494h90v-231h-90v-136h-252v136h-332zM260 940h111v236zM530 0l451 1434h268l-450 -1434h-269zM1065 119l123 190q94 -82 149 -82q30 0 47 17t17 45q0 26 -15.5 47.5t-52.5 21.5q-42 0 -88 -41l-139 89l33 454h491v-231h-270v-49q28 4 45 4 q85 0 142.5 -43t81.5 -106.5t24 -141.5q0 -132 -69.5 -219.5t-207.5 -87.5q-165 0 -311 133z" />
<glyph unicode="&#x2159;" horiz-adv-x="1466" d="M31 1282l205 152h241v-861h-250v609l-92 -66zM338 0l450 1434h269l-451 -1434h-268zM821 377q0 137 51.5 249t154 180t237.5 68q31 0 59 -3.5t41 -6.5l12 -4l-57 -219q-26 6 -53 6q-48 0 -92 -28t-70 -89q45 31 98 31q91 0 152 -71.5t61 -192.5q0 -139 -76.5 -225 t-214.5 -86q-153 0 -228 106.5t-75 284.5zM1075 332q1 -40 5.5 -65.5t12.5 -36t15 -14t18 -3.5q37 0 37 68q0 75 -43 75q-31 0 -45 -24z" />
<glyph unicode="&#x215a;" horiz-adv-x="1542" d="M31 692l123 191q94 -82 149 -82q30 0 47 16.5t17 44.5q0 26 -15.5 48t-52.5 22q-42 0 -88 -41l-139 88l32 455h492v-232h-270v-49q28 4 45 4q64 0 113 -24.5t77.5 -66.5t42.5 -92.5t14 -107.5q0 -63 -16 -117t-48.5 -97t-86.5 -68t-125 -25q-165 0 -311 133zM424 0 l450 1434h269l-451 -1434h-268zM907 377q0 137 51.5 249t154 180t237.5 68q31 0 59 -3.5t41 -6.5l12 -4l-57 -219q-26 6 -53 6q-48 0 -92 -28t-70 -89q45 31 98 31q91 0 152 -71.5t61 -192.5q0 -139 -76.5 -225t-214.5 -86q-153 0 -228 106.5t-75 284.5zM1161 332 q1 -40 5.5 -65.5t12.5 -36t15 -14t18 -3.5q37 0 37 68q0 75 -43 75q-31 0 -45 -24z" />
<glyph unicode="&#x215b;" horiz-adv-x="1509" d="M31 1282l205 152h241v-861h-250v609l-92 -66zM338 0l450 1434h269l-451 -1434h-268zM850 231q0 147 133 238q-90 76 -90 186q0 94 69 156.5t195 62.5t195 -62.5t69 -156.5q0 -111 -92 -186q135 -92 135 -238q0 -108 -77.5 -176.5t-229.5 -68.5t-229.5 68.5t-77.5 176.5z M1102 252q0 -25 13.5 -41t41.5 -16t41.5 16t13.5 41q0 60 -55 106q-55 -46 -55 -106zM1118 639q0 -43 39 -74q37 29 37 74q0 7 -2.5 14t-11.5 14t-23 7q-22 0 -30.5 -11.5t-8.5 -23.5z" />
<glyph unicode="&#x215c;" horiz-adv-x="1599" d="M37 690l117 184q113 -77 170 -77q23 0 38 13t15 32q0 61 -135 61h-25v227h31q104 0 104 50q0 5 -1.5 10.5t-11 13.5t-26.5 8q-49 0 -141 -65l-109 168q153 133 306 133q111 0 173 -62.5t62 -154.5q0 -36 -8 -65.5t-26.5 -53t-28 -34t-31.5 -29.5q55 -32 87 -88.5 t32 -131.5q0 -49 -14 -94.5t-43 -86t-82.5 -65t-124.5 -24.5q-169 0 -328 131zM438 0l451 1434h268l-450 -1434h-269zM948 231q0 147 133 238q-90 76 -90 186q0 94 69 156.5t195 62.5q127 0 196 -62.5t69 -156.5q0 -110 -93 -186q136 -93 136 -238q0 -108 -78 -176.5 t-230 -68.5t-229.5 68.5t-77.5 176.5zM1200 252q0 -25 13.5 -41t41.5 -16t42 16t14 41q0 60 -56 106q-55 -46 -55 -106zM1217 639q0 -44 38 -74q37 29 37 74q0 7 -2.5 14t-11.5 14t-23 7q-22 0 -30 -11.5t-8 -23.5z" />
<glyph unicode="&#x215d;" horiz-adv-x="1587" d="M31 692l123 191q94 -82 149 -82q30 0 47 16.5t17 44.5q0 26 -15.5 48t-52.5 22q-42 0 -88 -41l-139 88l32 455h492v-232h-270v-49q28 4 45 4q64 0 113 -24.5t77.5 -66.5t42.5 -92.5t14 -107.5q0 -63 -16 -117t-48.5 -97t-86.5 -68t-125 -25q-165 0 -311 133zM424 0 l450 1434h269l-451 -1434h-268zM936 231q0 147 133 238q-90 76 -90 186q0 94 69 156.5t195 62.5t195 -62.5t69 -156.5q0 -111 -92 -186q135 -92 135 -238q0 -108 -77.5 -176.5t-229.5 -68.5t-229.5 68.5t-77.5 176.5zM1188 252q0 -25 13.5 -41t41.5 -16t41.5 16t13.5 41 q0 60 -55 106q-55 -46 -55 -106zM1204 639q0 -43 39 -74q37 29 37 74q0 7 -2.5 14t-11.5 14t-23 7q-22 0 -30.5 -11.5t-8.5 -23.5z" />
<glyph unicode="&#x215e;" horiz-adv-x="1447" d="M47 1202v232h506v-220q-9 -13 -23.5 -36t-51.5 -95t-65.5 -144t-51.5 -173.5t-23 -192.5h-258q0 108 27.5 221.5t69 200.5t68 134.5t44.5 72.5h-242zM287 0l450 1434h269l-451 -1434h-268zM799 231q0 147 133 238q-90 76 -90 186q0 94 69 156.5t195 62.5t195 -62.5 t69 -156.5q0 -111 -92 -186q135 -92 135 -238q0 -108 -77.5 -176.5t-229.5 -68.5t-229.5 68.5t-77.5 176.5zM1051 252q0 -25 13.5 -41t41.5 -16t41.5 16t13.5 41q0 60 -55 106q-55 -46 -55 -106zM1067 639q0 -43 39 -74q37 29 37 74q0 7 -2.5 14t-11.5 14t-23 7 q-22 0 -30.5 -11.5t-8.5 -23.5z" />
<glyph unicode="&#x2202;" horiz-adv-x="1028" d="M47 477q0 220 102 359t248 139q39 0 72.5 -7.5t53.5 -17.5t36 -23t22 -20t9 -12q-31 97 -112.5 155t-194.5 58q-36 0 -68.5 -4t-47.5 -8l-15 -4l-35 319q59 23 176 23q139 0 253.5 -44t193 -120t132.5 -180.5t78.5 -224.5t24.5 -253q0 -296 -122.5 -465.5t-363.5 -169.5 q-206 0 -324 135t-118 365zM434 475q0 -97 13 -131q19 -49 73 -49q21 0 36.5 6.5t24.5 21.5t14.5 28t7.5 37t2.5 37.5t0.5 39.5v10q0 98 -13 132q-21 49 -73 50q-21 0 -36.5 -7t-24.5 -23.5t-14.5 -30t-7.5 -40.5t-2.5 -39.5t-0.5 -41.5z" />
<glyph unicode="&#x2206;" horiz-adv-x="1179" d="M27 0l364 1434h397l365 -1434h-1126zM463 358h250l-123 664z" />
<glyph unicode="&#x220f;" horiz-adv-x="1161" d="M61 1075v359h1039v-359h-103v-1075h-387v1075h-59v-1075h-387v1075h-103z" />
<glyph unicode="&#x2211;" horiz-adv-x="987" d="M45 0v168l350 549l-350 551v166h875v-359h-324l233 -358l-233 -359h324v-358h-875z" />
<glyph unicode="&#x2212;" horiz-adv-x="1024" d="M133 528v310h756v-310h-756z" />
<glyph unicode="&#x221a;" horiz-adv-x="1103" d="M0 696h395l80 -340l262 1078h385l-401 -1434h-479z" />
<glyph unicode="&#x221e;" horiz-adv-x="1335" d="M66 528q0 174 76.5 282t211.5 108q80 0 151.5 -48.5t166.5 -158.5q90 107 158.5 157t156.5 50q131 0 207 -107.5t76 -282.5q0 -174 -75.5 -281.5t-209.5 -107.5q-85 0 -156 48t-159 155q-92 -109 -163.5 -156t-154.5 -47q-134 0 -210 107.5t-76 281.5zM322 528 q0 -62 26.5 -93.5t52.5 -31.5q7 0 13 2t13 8t13 12t16 18.5t17.5 22.5t22 29.5t26.5 34.5q-68 93 -88 110q-16 13 -31 13q-29 0 -55 -31.5t-26 -93.5zM813 530q9 -12 25 -33q43 -57 60.5 -75.5t35.5 -18.5q28 0 55 31.5t27 93.5t-27 93.5t-55 31.5q-20 0 -40.5 -21 t-61.5 -76q-12 -17 -19 -26z" />
<glyph unicode="&#x222b;" horiz-adv-x="679" d="M47 -70h25q26 0 42.5 13.5t23 39t8 43t1.5 44.5v1222q0 125 25 207t83 130.5t141.5 68.5t209.5 20h27v-223h-23q-26 0 -42.5 -13t-23 -38.5t-8 -43t-1.5 -44.5v-1223q0 -125 -25.5 -207t-83.5 -130.5t-141 -68.5t-209 -20h-29v223z" />
<glyph unicode="&#x2248;" horiz-adv-x="1024" d="M133 406q37 136 101.5 222.5t150.5 86.5q37 0 76.5 -19.5t67 -43t58.5 -43t54 -19.5q21 0 42 21.5t46 86.5l160 -75q-18 -69 -39 -121t-50.5 -97t-69.5 -68.5t-89 -23.5q-56 0 -107 31.5t-90 62.5t-65 31q-20 0 -39.5 -22t-46.5 -88zM133 807q37 136 101.5 222.5 t150.5 86.5q37 0 76.5 -19.5t67 -43t58.5 -43t54 -19.5q21 0 42 22t46 87l160 -76q-36 -136 -101 -222.5t-147 -86.5q-37 0 -77.5 19.5t-69.5 43t-61 43t-54 19.5q-20 0 -39.5 -22.5t-46.5 -88.5z" />
<glyph unicode="&#x2260;" horiz-adv-x="1024" d="M133 328v309h238l26 98h-264v309h352l64 224l233 -68l-45 -156h152v-309h-238l-28 -98h266v-309h-352l-64 -224l-235 66l45 158h-150z" />
<glyph unicode="&#x2264;" horiz-adv-x="1024" d="M117 0v260h755v-260h-755zM117 647v236l755 348v-344l-346 -123l346 -127v-338z" />
<glyph unicode="&#x2265;" horiz-adv-x="1024" d="M150 0v260h755v-260h-755zM150 299v338l346 127l-346 123v344l755 -348v-236z" />
<glyph unicode="&#x2318;" horiz-adv-x="1415" d="M70 383q0 124 88 211.5t213 87.5h84v76h-84q-125 0 -213 88t-88 213q0 124 88 211.5t213 87.5t213 -87.5t88 -211.5v-84h73v84q0 124 88.5 211.5t213.5 87.5t212 -87t87 -212t-87.5 -213t-211.5 -88h-84v-76h84q125 0 212 -87t87 -212t-87.5 -213t-211.5 -88 q-125 0 -213.5 88.5t-88.5 212.5v82h-73v-82q0 -125 -88 -213t-213 -88t-213 88t-88 213zM287 383q0 -35 24.5 -59.5t59.5 -24.5q34 0 59 24.5t25 59.5v82h-84q-35 0 -59.5 -24t-24.5 -58zM287 1059q0 -35 24.5 -59.5t59.5 -24.5h84v84q0 34 -25 58t-59 24q-35 0 -59.5 -24 t-24.5 -58zM672 682h73v76h-73v-76zM963 383q0 -35 24.5 -59.5t59.5 -24.5q34 0 57.5 24.5t23.5 59.5q0 34 -23.5 58t-57.5 24h-84v-82zM963 975h84q34 0 57.5 24.5t23.5 59.5q0 34 -23.5 58t-57.5 24q-35 0 -59.5 -24t-24.5 -58v-84z" />
<glyph unicode="&#x25ca;" horiz-adv-x="952" d="M41 717l256 717h358l256 -717l-256 -717h-358zM381 717l96 -271l96 271l-96 268z" />
<glyph unicode="&#xe000;" horiz-adv-x="1075" d="M0 0v1075h1075v-1075h-1075z" />
<glyph unicode="&#xf639;" horiz-adv-x="1095" d="M59 717q0 177 27.5 311.5t86 231t153 146.5t223.5 50t223.5 -50t152.5 -146.5t85.5 -231t27.5 -311.5q0 -740 -491 -740q-254 0 -371 190t-117 550zM449 717q0 -159 10 -247t30.5 -123.5t57.5 -35.5t58 35t31.5 123.5t10.5 247.5t-10 246.5t-30.5 123t-57.5 35.5t-58 -35 t-31.5 -123t-10.5 -247z" />
<glyph unicode="&#xf63a;" horiz-adv-x="1095" d="M84 0v170q0 75 19 149t47 131.5t69.5 116.5t76 97.5t77.5 80.5q15 14 45 43t45.5 44.5t40 41t37.5 42.5t27 38t20 40t6 36q0 28 -16.5 48t-47.5 20q-74 0 -237 -127l-184 268q34 32 72.5 62t102 69t143.5 62.5t163 23.5q102 0 180.5 -36.5t124 -96.5t68 -129.5 t22.5 -144.5q0 -249 -256 -498q-15 -15 -38 -37.5t-35.5 -35.5t-30 -30.5t-26.5 -28.5t-18.5 -23t-13.5 -21.5t-4 -16.5h424v-358h-903z" />
<glyph unicode="&#xf63b;" horiz-adv-x="1095" d="M63 184l181 285q187 -125 270 -125q40 0 66 27.5t26 70.5q0 40 -23.5 67.5t-62.5 39.5t-70 16t-63 4h-39v351h47q21 0 46 4t55.5 14t50.5 32.5t20 53.5q0 9 -2 19t-8 22.5t-21 20.5t-36 8q-80 0 -226 -109l-168 260q242 211 478 211q118 0 203.5 -49.5t126 -128.5 t40.5 -178q0 -58 -13.5 -107.5t-40.5 -89t-46.5 -61.5t-50.5 -51q89 -49 140.5 -144.5t51.5 -224.5q0 -82 -22.5 -157t-69.5 -141.5t-131.5 -106.5t-196.5 -40q-259 0 -512 207z" />
<glyph unicode="&#xf63c;" horiz-adv-x="1095" d="M29 236v296l399 902h487v-840h127v-358h-127v-236h-387v236h-499zM356 594h172v385z" />
<glyph unicode="&#xf63d;" horiz-adv-x="1095" d="M68 190l188 293q48 -41 80 -65t78 -47t82 -23q50 0 79 35.5t29 93.5q0 54 -27 96.5t-88 42.5q-66 0 -143 -69l-215 133l53 754h772v-359h-432v-117q44 7 76 7q102 0 179.5 -40t123 -108.5t68 -153t22.5 -180.5q0 -103 -26 -192t-77.5 -160.5t-137.5 -112.5t-197 -41 q-68 0 -135.5 16t-118 39t-100 54.5t-78 55t-55.5 48.5z" />
<glyph unicode="&#xf63e;" horiz-adv-x="1095" d="M88 623q0 236 82 423.5t241.5 298.5t372.5 111q48 0 93 -5.5t65 -10.5l21 -6l-91 -338q-41 10 -84 10q-84 0 -158 -57.5t-114 -182.5q70 66 170 66q143 0 239.5 -120.5t96.5 -319.5q0 -150 -51.5 -265t-156 -182.5t-249.5 -67.5q-98 0 -177.5 32t-135 89t-92.5 138 t-54.5 178t-17.5 209zM479 557q2 -229 88 -229q68 0 68 139q0 147 -76 147q-51 0 -80 -57z" />
<glyph unicode="&#xf63f;" horiz-adv-x="1095" d="M160 1075v359h798v-338q-14 -22 -37 -61.5t-82.5 -162.5t-105 -246.5t-82.5 -296.5t-37 -329h-397q0 152 32.5 315.5t75.5 284t96.5 234.5t83 164.5t46.5 76.5h-391z" />
<glyph unicode="&#xf640;" horiz-adv-x="1095" d="M63 383q0 72 17 133.5t49.5 109t68.5 83t83 69.5q-150 125 -150 320q0 154 108.5 256t307.5 102t307.5 -102t108.5 -256q0 -194 -150 -322q217 -151 217 -393q0 -181 -122 -293.5t-361 -112.5q-122 0 -216 31t-152 87t-87 128.5t-29 159.5zM453 412q0 -49 23.5 -80 t70.5 -31t70.5 31t23.5 80q0 106 -94 190q-94 -81 -94 -190zM481 1071q0 -82 66 -135q65 55 65 135q0 27 -15 50.5t-50 23.5t-50.5 -23.5t-15.5 -50.5z" />
<glyph unicode="&#xf641;" horiz-adv-x="1095" d="M74 942q0 230 119.5 372t336.5 142q122 0 215 -48.5t150 -136t85 -203.5t28 -257q0 -140 -30.5 -266.5t-90 -230t-142.5 -179t-194.5 -117t-239.5 -41.5q-48 0 -92.5 5.5t-64.5 11.5l-21 6l90 338q39 -10 84 -10q84 0 157.5 56.5t113.5 180.5q-67 -63 -168 -63 q-143 0 -239.5 120.5t-96.5 319.5zM461 967q0 -148 76 -148q51 0 79 55q-5 232 -88 232q-67 0 -67 -139z" />
<glyph unicode="&#xf6c3;" horiz-adv-x="282" d="M4 -104h238l8 -332l-187 -219l-57 92l100 166h-102v293z" />
<glyph unicode="&#xf6dc;" horiz-adv-x="1095" d="M80 0v358h291v684l-127 -94l-164 256l305 230h373v-1076h289v-358h-967z" />
<glyph unicode="&#xf6df;" horiz-adv-x="567" d="M43 125q0 154 56.5 235.5t146.5 94.5v98h170v-119q47 -17 114 -49l-98 -199q-64 39 -98 39q-13 0 -21 -5.5t-12.5 -12.5t-6.5 -22.5t-2.5 -26.5t-0.5 -33q0 -29 1 -42.5t4.5 -31t13 -24.5t24.5 -7q31 0 98 41l98 -198q-82 -40 -114 -51v-119h-170v96q-90 13 -146.5 97 t-56.5 239z" />
<glyph unicode="&#xf6e0;" horiz-adv-x="567" d="M43 1221q0 154 56.5 235t146.5 94v99h170v-119q47 -17 114 -49l-98 -199q-64 39 -98 39q-13 0 -21 -5.5t-12.5 -12.5t-6.5 -22.5t-2.5 -26.5t-0.5 -33q0 -29 1 -42.5t4.5 -31t13 -24.5t24.5 -7q31 0 98 41l98 -199q-82 -40 -114 -51v-119h-170v97q-90 13 -146.5 97 t-56.5 239z" />
<glyph unicode="&#xf6e1;" horiz-adv-x="358" d="M59 -33h234l10 -313l-184 -199l-58 88l101 150h-103v274z" />
<glyph unicode="&#xf6e2;" horiz-adv-x="360" d="M61 788v275h234l10 -313l-184 -199l-58 88l101 149h-103z" />
<glyph unicode="&#xf6e3;" horiz-adv-x="671" d="M27 -190l114 190q55 -36 113 -64t88 -28q16 0 24.5 8t8.5 18q0 17 -20.5 33t-71 46t-84.5 55q-160 119 -160 251q0 91 55.5 159.5t163.5 84.5v115h168v-125q91 -21 203 -86l-117 -195q-124 66 -168 66q-18 0 -28.5 -9t-10.5 -20q0 -17 25 -37t78.5 -52t74.5 -46 q65 -44 111.5 -109.5t46.5 -138.5q0 -52 -20 -100.5t-70.5 -89.5t-124.5 -53v-113h-168v123q-123 33 -231 117z" />
<glyph unicode="&#xf6e4;" horiz-adv-x="671" d="M27 905l114 191q55 -36 113 -64t88 -28q16 0 24.5 8t8.5 18q0 17 -20.5 33t-70.5 45.5t-85 54.5q-160 119 -160 252q0 91 55.5 159.5t163.5 84.5v115h168v-125q91 -21 203 -86l-117 -195q-124 66 -168 66q-18 0 -28.5 -9t-10.5 -20q0 -17 25 -37t78.5 -52t74.5 -46 q65 -44 111.5 -109.5t46.5 -138.5q0 -84 -53.5 -156t-161.5 -88v-112h-168v122q-126 31 -231 117z" />
<glyph unicode="&#xf6e7;" horiz-adv-x="352" d="M59 -33h234v-274h-234v274z" />
<glyph unicode="&#xf6e8;" horiz-adv-x="356" d="M61 788v275h234v-275h-234z" />
<glyph unicode="&#xf6e9;" horiz-adv-x="649" d="M31 991q0 94 49 150.5t137 56.5q19 0 40 -3t34 -6.5t30.5 -8.5t20.5 -6v12q0 35 -11 46t-40 11q-50 0 -154 -31l-78 183q159 53 293 53q125 0 180.5 -60t55.5 -196v-404h-246v64q-63 -78 -143 -78q-82 0 -125 63.5t-43 153.5zM276 1020q0 -39 27 -39q23 0 39 33v35 q-24 12 -35 12q-31 0 -31 -41z" />
<glyph unicode="&#xf6ea;" horiz-adv-x="675" d="M72 788v895h245v-305q37 37 65 53.5t69 16.5q92 0 140 -87.5t48 -248.5q0 -162 -47.5 -250t-140.5 -88q-41 0 -69 16.5t-65 53.5v-56h-245zM317 1040q17 -47 41 -47q35 0 35 119q0 117 -35 117q-23 0 -41 -49v-140z" />
<glyph unicode="&#xf6eb;" horiz-adv-x="675" d="M37 1112q0 161 48 248.5t140 87.5q40 0 67 -16.5t68 -55.5v307h244v-895h-244v58q-39 -39 -66.5 -55.5t-68.5 -16.5q-93 0 -140.5 88t-47.5 250zM283 1112q0 -119 34 -119q10 0 19.5 10.5t23.5 43.5v129q-14 32 -23.5 42.5t-19.5 10.5q-34 0 -34 -117z" />
<glyph unicode="&#xf6ec;" horiz-adv-x="598" d="M35 1108q0 161 67 250.5t199 89.5q127 0 193.5 -80.5t66.5 -210.5q0 -27 -2.5 -52t-4.5 -37l-3 -11h-270q0 -43 9.5 -62.5t35.5 -19.5q42 0 149 45l88 -162q-153 -84 -274 -84q-115 0 -184.5 82t-69.5 252zM279 1192h63q-2 48 -12 58q-7 7 -21 7q-19 0 -24.5 -14.5 t-5.5 -50.5z" />
<glyph unicode="&#xf6ed;" horiz-adv-x="385" d="M68 1481v200h249v-200h-249zM70 788v646h245v-646h-245z" />
<glyph unicode="&#xf6ee;" horiz-adv-x="385" d="M70 788v895h245v-895h-245z" />
<glyph unicode="&#xf6ef;" horiz-adv-x="952" d="M72 788v646h245v-68q61 82 140 82q95 0 131 -102v2q67 100 155 100q66 0 106 -52t40 -149v-459h-246v377q0 60 -6 68q-3 4 -8 4q-16 0 -27 -25v-424h-244v377q0 59 -6 67q-5 5 -10 5q-14 0 -25 -25v-424h-245z" />
<glyph unicode="&#xf6f0;" horiz-adv-x="632" d="M33 1112q0 336 284 336q285 0 285 -338q0 -336 -285 -336q-284 0 -284 338zM279 1112q0 -72 7 -100.5t31 -28.5q17 0 25.5 15.5t11 40t2.5 71.5q0 71 -7 100t-32 29q-24 0 -31 -28t-7 -99z" />
<glyph unicode="&#xf6f1;" horiz-adv-x="505" d="M72 788v646h245v-131q7 23 17.5 44t29.5 46t50 39t69 10v-260q-43 0 -75.5 -21.5t-49 -52t-26.5 -61.5t-12 -53l-3 -21v-185h-245z" />
<glyph unicode="&#xf6f2;" horiz-adv-x="583" d="M31 864l88 170q35 -21 88.5 -42t83.5 -21q18 0 18 12q0 6 -6.5 9.5t-30.5 12.5q-23 9 -39 15q-41 17 -68 31.5t-59.5 40t-49.5 62t-17 83.5q0 87 59 149t172 62q68 0 141 -23t124 -53l-86 -158q-92 43 -140 43q-22 0 -22 -10q0 -4 3.5 -7.5t12 -7t17 -6.5t23.5 -8.5 t26 -9.5q188 -70 188 -221q0 -90 -59 -151.5t-176 -61.5q-78 0 -160 27.5t-131 62.5z" />
<glyph unicode="&#xf6f3;" horiz-adv-x="505" d="M31 1235v199h61v135l244 51v-186h123v-199h-123v-168q0 -19 2.5 -31t7 -16t7 -5t7.5 -1q9 0 50 18l77 -196q-113 -62 -198 -62q-106 0 -151.5 66t-45.5 198v197h-61z" />
<glyph unicode="&#xf8ff;" horiz-adv-x="1677" d="M107.5 560.5q-2.5 11.5 15.5 21.5l57 41q3 2 13 12q19 16 36 -12l33 -64q6 -12 13.5 -15.5t14 2t9.5 17.5l18 70q4 19 18.5 21t26.5 -13l48 -53q14 -15 23 -11.5t11 23.5l5 70q3 20 15.5 25t27.5 -7l57 -43q17 -12 26 -6.5t5 25.5l-9 69q-3 20 8.5 28t28.5 -1l64 -29 q19 -9 26.5 -1.5t1.5 26.5l-22 67q-8 19 1 29t28 4l14 -2q40 -77 70 -202.5t30 -217.5q-15 -18 -34.5 -27.5t-59.5 -9.5h-8q0 46 -33 72q19 -22 19 -55v-15q-33 3 -33 39q0 43 -28 72t-77 29q-41 0 -68.5 -32t-27.5 -79q0 -60 49.5 -96.5t138.5 -36.5q85 0 172 42t156.5 112 t125 154.5t86 175.5t30.5 169q0 59 -36.5 98t-94.5 39q-48 0 -85.5 -33.5t-37.5 -84.5q0 -106 119 -119q-29 -119 -60 -174q-12 96 -43.5 178t-75.5 129q91 -120 107 -330l-29 -41q0 156 -51 287t-131 172q-5 9 2.5 18.5t22.5 12.5l69 12q19 3 21 13.5t-15 21.5l-59 39 q-15 13 -13.5 26.5t19.5 20.5l64 29q14 4 19 10t0 13t-19 13l-64 27q-23 10 -20 29q11 6 14 16l35 62q9 19 20.5 18t16.5 -20l20 -68q6 -21 18.5 -24t26.5 14l47 53q12 15 23 12.5t12 -22.5l4 -72q1 -21 14.5 -26t28.5 8l58 43q15 12 23.5 6t6.5 -27l-10 -70 q-1 -20 10.5 -27.5t28.5 1.5l63 33q19 8 26.5 0t0.5 -29l-22 -64q-6 -20 2.5 -30t27.5 -4l70 14q20 6 26.5 -2t-4.5 -27l-36 -59q-12 -17 -6 -29.5t26 -11.5l72 4q21 0 25 -11t-9 -24l-49 -53q-14 -13 -10.5 -26.5t24.5 -16.5l70 -12q43 -10 6 -39l-57 -39q-16 -10 -15 -24 t21 -21l63 -27q12 -5 16.5 -12t0 -13.5t-16.5 -11.5l-63 -26q-20 -7 -21 -22t15 -25l57 -41q11 -7 14.5 -14.5t-2 -13.5t-18.5 -9l-70 -13q-21 -3 -24.5 -16.5t10.5 -28.5l49 -49q13 -14 9 -24.5t-25 -10.5l-72 5q-20 0 -26 -12t6 -29l36 -62q10 -17 4 -25.5t-26 -5.5 l-70 19q-19 4 -27.5 -6t-2.5 -29l22 -68q8 -19 0 -26t-27 2l-63 31q-17 9 -28.5 1t-10.5 -30l10 -68q1 -21 -7 -25.5t-23 7.5l-58 43q-15 12 -28.5 5.5t-14.5 -26.5l-4 -69q-1 -20 -12 -23t-23 11l-47 55q-13 14 -26 12t-19 -22l-20 -68q-3 -13 -9.5 -18t-14 -1t-13.5 15 l-35 61q-9 19 -22 19t-25 -19l-31 -61q-6 -11 -13.5 -15t-14 1t-9.5 18l-20 68q-6 20 -19 22t-26 -12l-47 -55q-12 -14 -22 -11t-13 23l-4 69q-2 20 -15 26.5t-30 -5.5l-54 -43q-17 -13 -26.5 -8t-5.5 26l10 68q1 22 -10.5 30t-30.5 -1l-62 -31q-19 -9 -26.5 -2t0.5 26 l22 68q7 19 -2 29.5t-28 5.5l-70 -19q-20 -3 -26 5.5t4 25.5l38 62q11 17 4.5 29t-26.5 12l-72 -5q-21 0 -25 10.5t9 24.5l51 49q13 15 9 28.5t-25 16.5l-68 13q-21 4 -23.5 15.5zM584 281q44 -27 123 -27q106 0 212.5 65t183.5 162t125 212t48 214q0 63 -41 101 q25 -39 25 -84q0 -99 -47.5 -214.5t-127.5 -215.5q-85 -105 -188.5 -168.5t-212.5 -63.5q-57 0 -100 19z" />
<glyph unicode="&#xfb06;" horiz-adv-x="1613" d="M27 123l135 258q63 -41 146.5 -75t125.5 -34q41 0 41 31q0 24 -39 44q-16 8 -60 26q-18 8 -28 12q-48 20 -87.5 42t-82 55.5t-71.5 71.5t-47.5 91t-18.5 113q0 67 22 127t64.5 108t113 76.5t160.5 28.5q80 0 187 -29q-15 52 -15 107q0 141 95.5 229t273.5 88 q198 0 315 -108.5t117 -307.5v-2h195v-303h-195v-340q0 -26 3 -44t7 -26.5t10.5 -13.5t10 -5.5t8.5 -0.5q8 0 15.5 1.5t16.5 5.5t14.5 6.5t18.5 9.5t19 10l119 -299q-184 -99 -309 -99q-165 0 -235.5 102.5t-70.5 311.5v381h-98v303h98v25q0 115 -27 167t-100 52 q-67 0 -109 -44.5t-42 -131.5q0 -71 31 -135q17 -7 63 -33l-133 -246q-55 28 -120.5 51t-100.5 23q-47 0 -47 -35q0 -5 1.5 -9.5t4.5 -8.5t7 -7.5t11.5 -7.5t14 -7t18 -8t21.5 -9t26.5 -10.5t30.5 -12.5q43 -18 77 -35.5t78.5 -50.5t74 -70.5t50.5 -93.5t21 -121 q0 -68 -22 -128t-65.5 -108t-116 -76t-165.5 -28q-122 0 -250.5 44t-205.5 102z" />
<glyph horiz-adv-x="669" d="M35 1137q0 139 76 225t215 86q152 0 226.5 -106.5t74.5 -284.5q0 -102 -30 -192.5t-85.5 -158.5t-140 -107.5t-187.5 -39.5q-30 0 -58 3.5t-41 7.5l-13 3l59 220q22 -7 51 -7q116 0 164 119q-42 -33 -100 -33q-91 0 -151 72t-60 193zM285 1153q0 -76 45 -76q28 0 45 27 q-4 117 -51 117q-39 0 -39 -68z" />
<glyph horiz-adv-x="946" d="M23 1432q0 108 47 169.5t147 61.5t147.5 -61.5t47.5 -169.5q0 -230 -195 -230q-194 0 -194 230zM190 1432q0 -41 4.5 -55.5t22.5 -14.5t22.5 14.5t4.5 55.5t-4.5 55t-22.5 14t-22.5 -14t-4.5 -55zM227 788l310 861h178l-307 -861h-181zM532 1004q0 231 195 231t195 -231 q0 -108 -47.5 -169t-147.5 -61t-147.5 61t-47.5 169zM702 1004q0 -41 4.5 -54.5t20.5 -13.5q18 0 22.5 13.5t4.5 54.5q0 42 -4.5 56.5t-22.5 14.5q-16 0 -20.5 -14.5t-4.5 -56.5z" />
<glyph horiz-adv-x="2232" d="M31 772v303h98q8 201 82.5 299.5t237.5 98.5q156 0 358 -87q75 107 244 107q132 0 264 -53v53h373v-655l100 237h422l-266 -420l305 -655h-389l-131 315l-41 -65v-250h-373v1130q-4 1 -28 9t-41.5 13t-42 10t-40.5 5q-10 0 -17.5 -2t-18.5 -9.5t-17 -27.5t-6 -51v-2h153 v-303h-153v-772h-373v772h-229v-772h-373v772h-98zM502 1075h229q0 37 2 55q-134 37 -172 37q-10 0 -17.5 -2t-18.5 -9.5t-17 -27.5t-6 -51v-2z" />
<glyph horiz-adv-x="1761" d="M31 772v303h98q8 201 82.5 299.5t237.5 98.5q156 0 358 -87q75 107 244 107q132 0 264 -53v53h373v-1493h-373v1130q-4 1 -28 9t-41.5 13t-42 10t-40.5 5q-10 0 -17.5 -2t-18.5 -9.5t-17 -27.5t-6 -51v-2h153v-303h-153v-772h-373v772h-229v-772h-373v772h-98zM502 1075 h229q0 37 2 55q-134 37 -172 37q-10 0 -17.5 -2t-18.5 -9.5t-17 -27.5t-6 -51v-2z" />
<glyph horiz-adv-x="1949" d="M31 772v303h98q8 201 82.5 299.5t237.5 98.5q159 0 354 -84q73 104 233 104q62 0 127.5 -18.5t100 -35t84.5 -44.5l-121 -265q-12 9 -38.5 23t-41.5 14q-45 0 -45 -90v-2h235v230l373 81v-311h195v-303h-195v-340q0 -26 3 -44t7 -26.5t10.5 -13.5t10 -5.5t8.5 -0.5 q8 0 15.5 1.5t16.5 5.5t14.5 6.5t18.5 9.5t19 10l119 -299q-184 -99 -310 -99q-165 0 -235 102.5t-70 311.5v381h-235v-772h-375v772h-225v-772h-373v772h-98zM502 1075h225q0 37 2 55q-115 37 -168 37q-10 0 -17.5 -2t-18.5 -9.5t-17 -27.5t-6 -51v-2z" />
<glyph horiz-adv-x="1644" d="M31 772v303h98q5 211 79 314.5t241 103.5q126 0 262 -51v51h372v-524q45 38 64 52.5t55.5 37.5t70.5 31t75 8q107 0 167 -83.5t60 -242.5v-772h-373v690q0 86 -37 86q-46 0 -82 -92v-684h-372v1130q-107 37 -150 37q-10 0 -17.5 -2t-18.5 -9.5t-17 -27.5t-6 -51v-2h153 v-303h-153v-772h-373v772h-98z" />
<glyph horiz-adv-x="1705" d="M31 772v303h98q8 201 82.5 299.5t237.5 98.5q70 0 145 -16.5t116.5 -31.5t100.5 -41q80 109 258 109q193 0 424 -98l-111 -265q-4 1 -36.5 9t-55 13t-54.5 10t-52 5q-14 0 -24.5 -2t-25 -9.5t-22.5 -27.5t-8 -51v-2h528v-1075h-372v772h-156v-772h-373v772h-229v-772 h-373v772h-98zM502 1075h229q0 37 2 55q-134 37 -172 37q-10 0 -17.5 -2t-18.5 -9.5t-17 -27.5t-6 -51v-2z" />
<glyph horiz-adv-x="1103" d="M31 772v303h98q5 211 83.5 314.5t254.5 103.5q193 0 424 -98l-111 -265q-4 1 -36.5 9t-55 13t-54.5 10t-52 5q-14 0 -24.5 -2t-25 -9.5t-22.5 -27.5t-8 -51v-2h528v-1075h-373v772h-155v-772h-373v772h-98z" />
<glyph horiz-adv-x="1103" d="M31 772v303h98q5 211 83.5 314.5t254.5 103.5q193 0 424 -98l-111 -265q-4 1 -36.5 9t-55 13t-54.5 10t-52 5q-14 0 -24.5 -2t-25 -9.5t-22.5 -27.5t-8 -51v-2h528v-979q0 -63 -0.5 -93t-3 -80.5t-8 -75t-15.5 -64t-25.5 -59.5t-38 -50t-53 -48t-70.5 -40t-90.5 -39 t-113.5 -34l-116 299q31 15 53.5 27t40 26.5t28.5 23.5t19 26t12 26.5t6 33.5t2 38v48v711h-155v-772h-373v772h-98z" />
<glyph horiz-adv-x="1628" d="M31 772v303h98q5 211 79 314.5t241 103.5q126 0 262 -51v51h372v-655l101 237h422l-267 -420l306 -655h-390l-131 315l-41 -65v-250h-372v1130q-107 37 -150 37q-10 0 -17.5 -2t-18.5 -9.5t-17 -27.5t-6 -51v-2h153v-303h-153v-772h-373v772h-98z" />
<glyph horiz-adv-x="2248" d="M31 772v303h98q8 201 82.5 299.5t237.5 98.5q156 0 358 -87q75 107 244 107q132 0 264 -53v53h373v-524q39 33 51 42.5t44.5 32.5t52.5 30.5t51.5 15.5t64.5 8q107 0 167 -83.5t60 -242.5v-772h-373v690q0 86 -37 86q-45 0 -81 -92v-684h-373v1130q-4 1 -28 9t-41.5 13 t-42 10t-40.5 5q-10 0 -17.5 -2t-18.5 -9.5t-17 -27.5t-6 -51v-2h153v-303h-153v-772h-373v772h-229v-772h-373v772h-98zM502 1075h229q0 37 2 55q-134 37 -172 37q-10 0 -17.5 -2t-18.5 -9.5t-17 -27.5t-6 -51v-2z" />
<glyph horiz-adv-x="1157" d="M31 772v303h98q5 211 79 314.5t241 103.5q126 0 262 -51v51h372v-1493h-372v1130q-107 37 -150 37q-10 0 -17.5 -2t-18.5 -9.5t-17 -27.5t-6 -51v-2h153v-303h-153v-772h-373v772h-98z" />
<glyph horiz-adv-x="1349" d="M31 772v303h98q5 210 77 314t230 104q63 0 129 -18.5t100.5 -35t84.5 -44.5l-121 -265q-12 9 -38.5 23t-41.5 14q-47 0 -47 -90v-2h235v230l373 81v-311h195v-303h-195v-340q0 -26 3 -44t7 -26.5t10.5 -13.5t10 -5.5t8.5 -0.5q8 0 15.5 1.5t16.5 5.5t14.5 6.5t18.5 9.5 t19 10l119 -299q-184 -99 -310 -99q-165 0 -235 102.5t-70 311.5v381h-235v-772h-373v772h-98z" />
<glyph horiz-adv-x="458" d="M41 139v199h61q5 124 49 187t138 63q91 0 213 -62l-82 -155q-40 16 -51 16q-23 0 -23 -39v-10h94v-199h-94v-446h-244v446h-61z" />
<glyph horiz-adv-x="1019" d="M78 451v725h354v-766q0 -43 15.5 -67t62.5 -24q48 0 64 23.5t16 67.5v766h354v-725q0 -85 -9 -148.5t-36 -127t-74 -103.5t-126.5 -65t-188.5 -25t-188 25t-125.5 65t-73.5 103.5t-36 127t-9 148.5zM303 1247l180 297h375l-254 -297h-301z" />
<glyph horiz-adv-x="661" d="M25 119l122 190q94 -82 150 -82q30 0 46.5 17t16.5 45q0 27 -15 48t-52 21q-42 0 -88 -41l-139 89l32 454h492v-231h-271v-49q28 4 46 4q64 0 113 -24.5t77.5 -66.5t42.5 -92.5t14 -107.5q0 -63 -16 -117t-48.5 -97t-86.5 -68t-125 -25q-165 0 -311 133z" />
<glyph horiz-adv-x="661" d="M25 692l122 191q94 -82 150 -82q30 0 46.5 16.5t16.5 44.5q0 27 -15 48.5t-52 21.5q-42 0 -88 -41l-139 88l32 455h492v-232h-271v-49q28 4 46 4q64 0 113 -24.5t77.5 -66.5t42.5 -92.5t14 -107.5q0 -63 -16 -117t-48.5 -97t-86.5 -68t-125 -25q-165 0 -311 133z" />
<glyph horiz-adv-x="987" d="M14 -68l189 293q49 -41 80 -65t77 -47t82 -23q50 0 79.5 35.5t29.5 93.5q0 54 -27 96.5t-88 42.5q-66 0 -143 -69l-215 133l53 754h772v-359h-432v-117q44 7 76 7q102 0 179.5 -40t123 -108.5t68 -153t22.5 -180.5q0 -103 -26 -192t-77.5 -160.5t-137.5 -112.5t-197 -41 q-84 0 -164.5 22.5t-144 60t-104 67.5t-75.5 63z" />
<glyph horiz-adv-x="2246" d="M31 772v303h98q8 201 82.5 299.5t237.5 98.5q156 0 358 -87q75 107 244 107q132 0 264 -53v53h373v-516q60 64 106 92.5t113 28.5q146 0 222.5 -144.5t76.5 -414.5q0 -271 -76.5 -416.5t-222.5 -145.5q-67 0 -113.5 28t-105.5 91v-96h-373v1130q-4 1 -28 9t-41.5 13 t-42 10t-40.5 5q-10 0 -17.5 -2t-18.5 -9.5t-17 -27.5t-6 -51v-2h153v-303h-153v-772h-373v772h-229v-772h-373v772h-98zM502 1075h229q0 37 2 55q-134 37 -172 37q-10 0 -17.5 -2t-18.5 -9.5t-17 -27.5t-6 -51v-2zM1688 410q22 -57 40 -78t37 -21q66 0 66 228 q0 225 -66 225q-19 0 -37 -20.5t-40 -77.5v-256z" />
<glyph horiz-adv-x="1345" d="M33 565l96 148q79 -66 131 -66q31 0 48.5 16t17.5 44q0 25 -16 44t-52 19q-41 0 -82 -35l-108 70l26 371h410v-181h-238v-53q28 4 47 4q105 0 158 -68.5t53 -168.5q0 -107 -58.5 -178.5t-174.5 -71.5q-133 0 -258 106zM371 0l395 1176h211l-395 -1176h-211zM795 188 q0 120 118 197q-82 65 -82 154q0 76 59 127t163 51t162.5 -51t58.5 -127q0 -89 -82 -154q119 -77 119 -197q0 -88 -66.5 -144t-191.5 -56q-126 0 -192 56t-66 144zM993 205q0 -24 15.5 -38.5t44.5 -14.5q28 0 43.5 14.5t15.5 38.5q0 50 -59 96q-60 -44 -60 -96zM1010 526 q0 -41 41 -67q43 25 43 67q0 12 -10 22.5t-31 10.5q-22 0 -32.5 -10.5t-10.5 -22.5z" />
<glyph horiz-adv-x="1308" d="M31 565l96 148q79 -66 131 -66q31 0 48.5 16t17.5 44q0 25 -16 44t-52 19q-41 0 -82 -35l-108 70l26 371h410v-181h-238v-53q28 4 47 4q105 0 158 -68.5t53 -168.5q0 -107 -58.5 -178.5t-174.5 -71.5q-133 0 -258 106zM369 0l395 1176h211l-395 -1176h-211zM768 307 q0 114 44.5 206.5t130 148t196.5 55.5q26 0 49.5 -3t33.5 -6l11 -3l-45 -170q-22 4 -47 4q-106 0 -150 -111q40 31 92 31q80 0 132.5 -59t52.5 -158q0 -112 -64.5 -183t-179.5 -71q-128 0 -192 87.5t-64 231.5zM969 270q1 -63 16 -83.5t41 -20.5q43 0 43 63q0 70 -47 70 q-38 0 -53 -29z" />
<glyph horiz-adv-x="1280" d="M31 772v303h98q8 201 82.5 299.5t237.5 98.5q162 0 354 -87q69 107 217 107q141 0 332 -98l-125 -256q-65 28 -86 28q-37 0 -37 -69v-23h153v-303h-153v-772h-373v772h-229v-772h-373v772h-98zM502 1075h229q0 37 2 55q-134 37 -172 37q-10 0 -17.5 -2t-18.5 -9.5 t-17 -27.5t-6 -51v-2z" />
<glyph horiz-adv-x="1019" d="M78 451v725h354v-766q0 -43 15.5 -67t62.5 -24q48 0 64 23.5t16 67.5v766h354v-725q0 -85 -9 -148.5t-36 -127t-74 -103.5t-126.5 -65t-188.5 -25t-188 25t-125.5 65t-73.5 103.5t-36 127t-9 148.5z" />
<glyph horiz-adv-x="618" d="M27 1409v240h563v-240h-152v-621h-254v621h-157z" />
<glyph horiz-adv-x="741" d="M29 135v191l247 534h336v-493h90v-232h-90v-135h-252v135h-331zM250 367h110v235z" />
<glyph horiz-adv-x="741" d="M29 709v190l247 535h336v-494h90v-231h-90v-136h-252v136h-331zM250 940h110v236z" />
<glyph horiz-adv-x="1114" d="M20 -23v297l400 902h516v-840h145v-359h-145v-235h-387v235h-529zM358 336h191v426z" />
<glyph horiz-adv-x="1355" d="M31 772v303h98q5 210 72.5 314t216.5 104q141 0 332 -98l-113 -256q-72 28 -98 28q-37 0 -37 -69v-23h153v-303h-153v-772h-373v772h-98zM709 772v303h98q5 210 72.5 314t216.5 104q123 0 266 -78l-76 -276q-51 28 -69 28q-37 0 -37 -69v-23h153v-303h-153v-772h-373v772 h-98z" />
<glyph horiz-adv-x="1439" d="M37 584v149l221 443h264v-410h80v-182h-80v-113h-198v113h-287zM215 766h109v217zM459 0l395 1176h209l-393 -1176h-211zM901 94l96 150q76 -68 131 -68q30 0 48 16.5t18 43.5q0 25 -16.5 45t-51.5 20q-41 0 -82 -35l-110 68l29 371h409v-181h-237v-53q28 4 47 4 q72 0 121 -34.5t69.5 -85.5t20.5 -115q0 -108 -59 -180t-175 -72q-133 0 -258 106z" />
<glyph horiz-adv-x="1642" d="M31 772v303h98q5 211 79 314.5t241 103.5q126 0 262 -51v51h372v-516q60 63 106.5 92t113.5 29q146 0 222.5 -144.5t76.5 -414.5q0 -271 -76.5 -416.5t-222.5 -145.5q-68 0 -114.5 28.5t-105.5 90.5v-96h-372v1130q-107 37 -150 37q-10 0 -17.5 -2t-18.5 -9.5t-17 -27.5 t-6 -51v-2h153v-303h-153v-772h-373v772h-98zM1083 410q37 -99 78 -99q66 0 66 228q0 225 -66 225q-20 0 -38.5 -20.5t-39.5 -77.5v-256z" />
<glyph horiz-adv-x="677" d="M31 772v303h98q5 210 72.5 314t216.5 104q123 0 266 -78l-76 -276q-51 28 -69 28q-37 0 -37 -69v-23h153v-303h-153v-772h-373v772h-98z" />
<glyph horiz-adv-x="1032" d="M53 172v234h109v1028h827v-367h-440v-172h342v-358h-342v-131h254v-234h-254v-172h-387v172h-109z" />
<glyph horiz-adv-x="921" d="M51 125v211h96v840h734v-336h-379v-90h293v-326h-293v-88h219v-211h-219v-125h-355v125h-96z" />
<glyph horiz-adv-x="671" d="M43 -61h70v614h526v-240h-272v-73h211v-236h-211v-65h155v-152h-155v-94h-254v94h-70v152z" />
<glyph horiz-adv-x="673" d="M43 883v151h70v615h526v-240h-272v-74h211v-235h-211v-66h155v-151h-155v-95h-254v95h-70z" />
<glyph horiz-adv-x="458" d="M41 1235v199h61q5 124 49 186.5t138 62.5q93 0 213 -61l-82 -156q-42 17 -51 17q-23 0 -23 -39v-10h94v-199h-94v-447h-244v447h-61z" />
<glyph horiz-adv-x="618" d="M27 313v240h563v-240h-152v-620h-254v620h-157z" />
<glyph horiz-adv-x="972" d="M88 0v1176h354v-160h9q487 0 487 -410q0 -90 -24 -160t-77.5 -127t-151 -87.5t-234.5 -30.5h-9v-201h-354zM442 524h15q64 0 94.5 15.5t30.5 66.5t-30.5 66.5t-94.5 15.5h-15v-164z" />
<glyph horiz-adv-x="847" d="M31 840v336h784v-336h-211v-840h-100q51 -102 51 -193q0 -104 -56 -154t-137 -50q-89 0 -149 49l66 192q32 -22 57 -22q47 0 47 59q0 47 -31 119h-102v840h-219z" />
<glyph horiz-adv-x="847" d="M31 840v336h784v-336h-211v-840h-354v840h-219zM98 1544h244l82 -129l82 129h244l-166 -297h-320z" />
<glyph horiz-adv-x="854" d="M35 840v336h784v-336h-211v-310h78v-211h-78v-319h-354v319h-80v211h80v310h-219z" />
<glyph horiz-adv-x="843" d="M72 233q0 61 6 108t27 96.5t56 81.5t96.5 52.5t145.5 20.5q95 0 163.5 -24.5t104 -64.5t51 -82t15.5 -87q0 -38 -10.5 -71t-21.5 -47l-11 -13q-29 -7 -54.5 -23.5t-25.5 -36.5q0 -13 12 -22t29 -16t44 -23.5t49 -38.5q63 -60 63 -147q0 -91 -58.5 -154.5t-162.5 -63.5 q-105 0 -254 68l86 166q89 -43 119 -43q28 0 28 14q0 10 -24 19q-160 61 -160 213q0 44 13.5 81t35 60.5t38 36t32.5 20.5v9q0 75 -90 75q-57 0 -77 -38.5t-20 -141.5v-524h-245v540z" />
<glyph horiz-adv-x="843" d="M72 788v541q0 61 6 108t27 96.5t56 81.5t96.5 52.5t145.5 20.5q95 0 163.5 -24.5t104 -64.5t51 -82t15.5 -87q0 -38 -10.5 -71t-21.5 -47l-11 -14q-30 -7 -55 -23t-25 -36q0 -13 12 -22t29 -16t44 -23.5t49 -38.5q63 -60 63 -148q0 -91 -58.5 -154t-162.5 -63 q-105 0 -254 68l86 166q89 -43 119 -43q28 0 28 14q0 9 -24 18q-160 61 -160 213q0 44 13.5 81.5t35 61t38 36t32.5 20.5v8q0 76 -90 76q-57 0 -77 -38.5t-20 -141.5v-525h-245z" />
<glyph horiz-adv-x="675" d="M37 16q0 161 48 248.5t140 87.5q40 0 67.5 -16t67.5 -55v57h244v-629q0 -144 -54.5 -211t-193.5 -67q-158 0 -301 41l60 198q126 -30 184 -30q37 0 49 16t12 49v45q-39 -39 -66.5 -55.5t-68.5 -16.5q-93 0 -140.5 88t-47.5 250zM283 16q0 -118 34 -118q10 0 19.5 10.5 t23.5 42.5v129q-14 32 -23.5 42.5t-19.5 10.5q-34 0 -34 -117z" />
<glyph horiz-adv-x="847" d="M31 840v336h784v-336h-211v-840h-354v840h-219z" />
<glyph horiz-adv-x="688" d="M35 905l115 191q141 -92 200 -92q16 0 24.5 8t8.5 18q0 17 -20.5 33t-70.5 45.5t-85 54.5q-160 119 -160 252q0 103 71.5 175.5t205.5 72.5q146 0 313 -100l-117 -195q-124 66 -168 66q-18 0 -28.5 -9t-10.5 -20q0 -17 25.5 -37t79 -51.5t74.5 -46.5q65 -44 111 -109.5 t46 -138.5q0 -43 -15 -85t-45.5 -79.5t-85 -60.5t-124.5 -23q-95 0 -186 38.5t-158 92.5z" />
<glyph horiz-adv-x="1019" d="M78 451v725h354v-766q0 -43 15.5 -67t62.5 -24q48 0 64 23.5t16 67.5v766h354v-725q0 -85 -9 -148.5t-36 -127t-74 -103.5t-126.5 -65t-188.5 -25t-188 25t-125.5 65t-73.5 103.5t-36 127t-9 148.5zM221 1530h211q0 -30 21 -50t57 -20q37 0 59.5 20t22.5 50h209 q0 -133 -77 -208t-214 -75q-136 0 -212.5 75.5t-76.5 207.5z" />
<glyph horiz-adv-x="675" d="M37 1112q0 161 48 248.5t140 87.5q40 0 67 -16.5t68 -55.5v58h244v-629q0 -144 -54.5 -211.5t-193.5 -67.5q-158 0 -301 41l60 199q131 -31 184 -31q37 0 49 16.5t12 49.5v45q-39 -39 -66.5 -55.5t-68.5 -16.5q-93 0 -140.5 88t-47.5 250zM283 1112q0 -119 34 -119 q10 0 19.5 10.5t23.5 43.5v129q-14 32 -23.5 42.5t-19.5 10.5q-34 0 -34 -117z" />
<glyph horiz-adv-x="688" d="M35 -190l115 190q141 -92 200 -92q16 0 24.5 8t8.5 18q0 17 -20.5 33t-71 46t-84.5 55q-160 119 -160 251q0 103 71.5 175.5t205.5 72.5q146 0 313 -100l-117 -195q-124 66 -168 66q-18 0 -28.5 -9t-10.5 -20q0 -17 25.5 -37t79 -51.5t74.5 -46.5q65 -44 111 -109.5 t46 -138.5q0 -43 -15 -85t-45.5 -79.5t-85 -60.5t-124.5 -23q-95 0 -186 39t-158 93z" />
<glyph horiz-adv-x="929" d="M35 164l162 268q75 -48 156 -86.5t122 -38.5q18 0 28.5 8.5t10.5 22.5q0 21 -27.5 39.5t-94 55.5t-122.5 79q-98 70 -157.5 151t-59.5 187q0 66 23.5 126.5t69 110t121 78.5t171.5 29q212 0 436 -139l-163 -277q-176 88 -234 88q-23 0 -35 -9.5t-12 -22.5 q0 -20 30.5 -43.5t100.5 -64.5t113 -71q217 -149 217 -329q0 -60 -21 -117.5t-63.5 -110t-118 -84.5t-174.5 -32q-135 0 -261.5 53t-217.5 129zM360 -104h238l8 -332l-186 -219l-58 92l101 166h-103v293z" />
<glyph horiz-adv-x="407" d="M55 1649h299l-78 -555h-145zM88 788v246h234v-246h-234z" />
<glyph horiz-adv-x="407" d="M55 553h299l-78 -555h-145zM88 -61h234v-246h-234v246z" />
<glyph horiz-adv-x="929" d="M35 164l162 268q75 -48 156 -86.5t122 -38.5q18 0 28.5 8.5t10.5 22.5q0 21 -27.5 39.5t-94 55.5t-122.5 79q-98 70 -157.5 151t-59.5 187q0 66 23.5 126.5t69 110t121 78.5t171.5 29q212 0 436 -139l-163 -277q-176 88 -234 88q-23 0 -35 -9.5t-12 -22.5 q0 -20 30.5 -43.5t100.5 -64.5t113 -71q217 -149 217 -329q0 -60 -21 -117.5t-63.5 -110t-118 -84.5t-174.5 -32q-135 0 -261.5 53t-217.5 129zM139 1247l166 297h320l166 -297h-244l-82 129l-82 -129h-244z" />
<glyph horiz-adv-x="929" d="M35 164l162 268q75 -48 156 -86.5t122 -38.5q18 0 28.5 8.5t10.5 22.5q0 21 -27.5 39.5t-94 55.5t-122.5 79q-98 70 -157.5 151t-59.5 187q0 66 23.5 126.5t69 110t121 78.5t171.5 29q212 0 436 -139l-163 -277q-176 88 -234 88q-23 0 -35 -9.5t-12 -22.5 q0 -20 30.5 -43.5t100.5 -64.5t113 -71q217 -149 217 -329q0 -52 -16 -103t-48 -99t-88.5 -84t-130.5 -50q45 -87 45 -183q0 -105 -55.5 -154.5t-136.5 -49.5q-90 0 -150 49l66 192q32 -22 57 -22q47 0 47 59q0 30 -24 105q-120 10 -230.5 60t-191.5 118z" />
<glyph horiz-adv-x="686" d="M72 -307v895h245v-309q2 2 15.5 12t16 11.5t14 10t15.5 10.5t14 8t15.5 7.5t15.5 5.5t18 5t18 2t20 1q68 0 106 -50.5t38 -149.5v-459h-244v403q0 45 -21 45q-14 0 -25 -13.5t-16 -29.5v-405h-245z" />
<glyph horiz-adv-x="929" d="M35 164l162 268q75 -48 156 -86.5t122 -38.5q18 0 28.5 8.5t10.5 22.5q0 21 -27.5 39.5t-94 55.5t-122.5 79q-98 70 -157.5 151t-59.5 187q0 66 23.5 126.5t69 110t121 78.5t171.5 29q212 0 436 -139l-163 -277q-176 88 -234 88q-23 0 -35 -9.5t-12 -22.5 q0 -20 30.5 -43.5t100.5 -64.5t113 -71q217 -149 217 -329q0 -60 -21 -117.5t-63.5 -110t-118 -84.5t-174.5 -32q-135 0 -261.5 53t-217.5 129zM139 1544h244l82 -129l82 129h244l-166 -297h-320z" />
<glyph horiz-adv-x="407" d="M53 788l78 555h145l76 -555h-299zM86 1403v246h233v-246h-233z" />
<glyph horiz-adv-x="929" d="M35 164l162 268q75 -48 156 -86.5t122 -38.5q18 0 28.5 8.5t10.5 22.5q0 21 -27.5 39.5t-94 55.5t-122.5 79q-98 70 -157.5 151t-59.5 187q0 66 23.5 126.5t69 110t121 78.5t171.5 29q212 0 436 -139l-163 -277q-176 88 -234 88q-23 0 -35 -9.5t-12 -22.5 q0 -20 30.5 -43.5t100.5 -64.5t113 -71q217 -149 217 -329q0 -60 -21 -117.5t-63.5 -110t-118 -84.5t-174.5 -32q-135 0 -261.5 53t-217.5 129zM258 1247l180 297h375l-254 -297h-301z" />
<glyph horiz-adv-x="929" d="M35 164l162 268q75 -48 156 -86.5t122 -38.5q18 0 28.5 8.5t10.5 22.5q0 21 -27.5 39.5t-94 55.5t-122.5 79q-98 70 -157.5 151t-59.5 187q0 66 23.5 126.5t69 110t121 78.5t171.5 29q212 0 436 -139l-163 -277q-176 88 -234 88q-23 0 -35 -9.5t-12 -22.5 q0 -20 30.5 -43.5t100.5 -64.5t113 -71q217 -149 217 -329q0 -60 -21 -117.5t-63.5 -110t-118 -84.5t-174.5 -32q-135 0 -261.5 53t-217.5 129z" />
<glyph horiz-adv-x="761" d="M86 788v861h276q192 0 271.5 -73t79.5 -210q0 -189 -142 -250l144 -328h-264l-115 271v-271h-250zM336 1298h35q44 0 67 13.5t23 54.5t-23 53.5t-69 12.5h-33v-134z" />
<glyph horiz-adv-x="761" d="M86 -307v860h276q192 0 271.5 -73t79.5 -210q0 -189 -142 -250l144 -327h-264l-115 270v-270h-250zM336 203h35q45 0 67.5 13t22.5 54t-23 53.5t-69 12.5h-33v-133z" />
<glyph horiz-adv-x="1017" d="M88 0v1176h387q111 0 196 -18.5t140 -51.5t89.5 -83t48.5 -107.5t14 -129.5q0 -255 -195 -340l197 -446h-373l-150 346v-346h-354zM383 -104h238l8 -332l-187 -219l-57 92l100 166h-102v293zM442 702h43q31 0 49.5 2.5t36.5 10.5t26.5 25.5t8.5 45.5q0 52 -30 68t-93 16 h-41v-168z" />
<glyph horiz-adv-x="1017" d="M88 0v1176h387q111 0 196 -18.5t140 -51.5t89.5 -83t48.5 -107.5t14 -129.5q0 -255 -195 -340l197 -446h-373l-150 346v-346h-354zM201 1544h243l82 -129l82 129h244l-166 -297h-319zM442 702h43q31 0 49.5 2.5t36.5 10.5t26.5 25.5t8.5 45.5q0 52 -30 68t-93 16h-41 v-168z" />
<glyph horiz-adv-x="1017" d="M88 0v1176h387q111 0 196 -18.5t140 -51.5t89.5 -83t48.5 -107.5t14 -129.5q0 -255 -195 -340l197 -446h-373l-150 346v-346h-354zM317 1247l181 297h374l-254 -297h-301zM442 702h43q31 0 49.5 2.5t36.5 10.5t26.5 25.5t8.5 45.5q0 52 -30 68t-93 16h-41v-168z" />
<glyph horiz-adv-x="385" d="M68 385v201h249v-201h-249zM70 -307v645h245v-645h-245z" />
<glyph horiz-adv-x="1017" d="M88 0v1176h387q111 0 196 -18.5t140 -51.5t89.5 -83t48.5 -107.5t14 -129.5q0 -255 -195 -340l197 -446h-373l-150 346v-346h-354zM442 702h43q31 0 49.5 2.5t36.5 10.5t26.5 25.5t8.5 45.5q0 52 -30 68t-93 16h-41v-168z" />
<glyph horiz-adv-x="784" d="M43 1219q0 444 350 444t350 -444q0 -260 -116 -365l104 -106l-164 -193l-174 219q-350 0 -350 445zM303 1219q0 -101 19 -151t71 -50q53 0 71.5 49.5t18.5 151.5t-18.5 151t-71.5 49q-52 0 -71 -49.5t-19 -150.5z" />
<glyph horiz-adv-x="407" d="M53 -307l78 555h145l76 -555h-299zM86 307v246h233v-246h-233z" />
<glyph horiz-adv-x="542" d="M63 0l107 756h203l106 -756h-416zM109 834v342h325v-342h-325z" />
<glyph horiz-adv-x="784" d="M43 123q0 444 350 444t350 -444q0 -260 -116 -365l104 -106l-164 -193l-174 219q-350 0 -350 445zM303 123q0 -101 19 -151t71 -50q53 0 71.5 49.5t18.5 151.5t-18.5 151.5t-71.5 49.5q-52 0 -71 -50t-19 -151z" />
<glyph horiz-adv-x="1019" d="M78 451v725h354v-766q0 -43 15.5 -67t62.5 -24q48 0 64 23.5t16 67.5v766h354v-725q0 -85 -9 -148.5t-36 -127t-74 -103.5t-126.5 -65t-188.5 -25t-188 25t-125.5 65t-73.5 103.5t-36 127t-9 148.5zM184 1247l166 297h320l166 -297h-244l-82 129l-82 -129h-244z" />
<glyph horiz-adv-x="1064" d="M45 588q0 606 490 606q487 0 487 -606q0 -347 -162 -498l144 -143l-230 -269l-239 304q-490 0 -490 606zM408 588q0 -135 27 -202t100 -67q37 0 62 18t37.5 55.5t17.5 83.5t5 112t-5 111.5t-17.5 83t-37.5 55.5t-62 18q-73 0 -100 -66.5t-27 -201.5z" />
<glyph horiz-adv-x="720" d="M86 788v861h260q350 0 350 -299q0 -138 -80 -216.5t-270 -78.5h-6v-267h-254zM340 1286h10q45 0 67.5 13t22.5 51q0 39 -22 51t-68 12h-10v-127z" />
<glyph horiz-adv-x="720" d="M86 -307v860h260q350 0 350 -299q0 -138 -80 -216.5t-270 -78.5h-6v-266h-254zM340 190h10q45 0 67.5 13t22.5 51q0 39 -22 51t-68 12h-10v-127z" />
<glyph horiz-adv-x="385" d="M-31 -410q71 35 86 59.5t15 90.5v598h245v-574q0 -57 -1 -82.5t-5.5 -64.5t-15 -57t-29 -44.5t-48 -43t-71 -36.5t-100.5 -40zM68 385v201h249v-201h-249z" />
<glyph horiz-adv-x="538" d="M61 1176h416l-106 -756h-203zM106 0v342h326v-342h-326z" />
<glyph horiz-adv-x="976" d="M88 0v1176h363q487 0 487 -410q0 -71 -14 -129.5t-49 -111t-89.5 -88.5t-139.5 -56.5t-195 -20.5h-9v-360h-354zM442 684h15q64 0 94.5 15.5t30.5 66.5t-30.5 66.5t-94.5 15.5h-15v-164z" />
<glyph horiz-adv-x="1064" d="M45 588q0 606 490 606q487 0 487 -606t-487 -606q-490 0 -490 606zM203 1337q48 126 74 168q54 86 133 86q37 0 84 -24t86.5 -48t58.5 -24q40 0 76 94l147 -88q-48 -126 -74 -168q-54 -86 -131 -86q-38 0 -85.5 24t-87.5 48t-58 24q-38 0 -76 -94zM408 588 q0 -135 27 -202t100 -67q37 0 62 18t37.5 55.5t17.5 83.5t5 112t-5 111.5t-17.5 83t-37.5 55.5t-62 18q-73 0 -100 -66.5t-27 -201.5z" />
<glyph horiz-adv-x="784" d="M43 1219q0 444 350 444t350 -444q0 -445 -350 -445t-350 445zM303 1219q0 -101 19 -151t71 -50q53 0 71.5 49.5t18.5 151.5t-18.5 151t-71.5 49q-52 0 -71 -49.5t-19 -150.5z" />
<glyph horiz-adv-x="665" d="M72 -307v895h245v-369l52 119h278l-166 -252l189 -393h-254l-78 178l-21 -33v-145h-245z" />
<glyph horiz-adv-x="665" d="M72 788v895h245v-368l52 119h278l-166 -252l189 -394h-254l-78 179l-21 -33v-146h-245z" />
<glyph horiz-adv-x="1064" d="M45 588q0 606 490 606q135 0 231 -47l16 29h224l-93 -152q109 -152 109 -436q0 -606 -487 -606q-134 0 -232 45l-16 -27h-224l91 150q-109 152 -109 438zM328 1247l180 297h375l-254 -297h-301zM408 563l172 283q-20 10 -45 10q-73 0 -100 -66.5t-27 -201.5v-25zM487 328 q18 -9 48 -9q37 0 62 18t37.5 55.5t17.5 83.5t5 112v18z" />
<glyph horiz-adv-x="1019" d="M78 451v725h354v-766q0 -43 15.5 -67t62.5 -24q48 0 64 23.5t16 67.5v766h354v-725q0 -85 -9 -148.5t-36 -127t-74 -103.5t-126.5 -65t-188.5 -25t-188 25t-125.5 65t-73.5 103.5t-36 127t-9 148.5zM231 1268v280h254v-280h-254zM535 1268v280h253v-280h-253z" />
<glyph horiz-adv-x="1064" d="M45 588q0 606 490 606q487 0 487 -606t-487 -606q-490 0 -490 606zM297 1298v234h473v-234h-473zM408 588q0 -135 27 -202t100 -67q37 0 62 18t37.5 55.5t17.5 83.5t5 112t-5 111.5t-17.5 83t-37.5 55.5t-62 18q-73 0 -100 -66.5t-27 -201.5z" />
<glyph horiz-adv-x="784" d="M43 123q0 444 350 444t350 -444q0 -445 -350 -445t-350 445zM303 123q0 -101 19 -151t71 -50q53 0 71.5 49.5t18.5 151.5t-18.5 151.5t-71.5 49.5q-52 0 -71 -50t-19 -151z" />
<glyph horiz-adv-x="1064" d="M45 588q0 606 490 606q487 0 487 -606t-487 -606q-490 0 -490 606zM244 1247l121 297h288l-196 -297h-213zM408 588q0 -135 27 -202t100 -67q37 0 62 18t37.5 55.5t17.5 83.5t5 112t-5 111.5t-17.5 83t-37.5 55.5t-62 18q-73 0 -100 -66.5t-27 -201.5zM567 1247l121 297 h289l-195 -297h-215z" />
<glyph horiz-adv-x="1064" d="M45 588q0 606 490 606q487 0 487 -606t-487 -606q-490 0 -490 606zM186 1544h375l180 -297h-299zM408 588q0 -135 27 -202t100 -67q37 0 62 18t37.5 55.5t17.5 83.5t5 112t-5 111.5t-17.5 83t-37.5 55.5t-62 18q-73 0 -100 -66.5t-27 -201.5z" />
<glyph horiz-adv-x="1019" d="M78 451v725h354v-766q0 -43 15.5 -67t62.5 -24q48 0 64 23.5t16 67.5v766h354v-725q0 -85 -9 -148.5t-36 -127t-74 -103.5t-126.5 -65t-188.5 -25t-188 25t-125.5 65t-73.5 103.5t-36 127t-9 148.5zM164 1544h375l180 -297h-299z" />
<glyph horiz-adv-x="385" d="M70 -307v895h245v-895h-245z" />
<glyph horiz-adv-x="1019" d="M78 451v725h354v-766q0 -43 15.5 -67t62.5 -24q48 0 64 23.5t16 67.5v766h354v-725q0 -85 -9 -148.5t-36 -127t-74 -103.5t-126.5 -65t-188.5 -25t-188 25t-125.5 65t-73.5 103.5t-36 127t-9 148.5zM221 1247l121 297h289l-197 -297h-213zM545 1247l121 297h288 l-194 -297h-215z" />
<glyph horiz-adv-x="845" d="M70 0v262q4 0 10.5 1t24 7.5t33 16t32.5 29t27 44.5h-115v166h117q0 1 -11 39h-106v170h39q-25 84 -25 160q0 142 76.5 220.5t222.5 78.5q194 0 404 -174l-164 -234q-94 80 -154 80q-18 0 -23 -6.5t-5 -23.5q0 -36 26 -101h230v-170h-174l6 -39h168v-166h-191l-22 -32 h290v-328h-716z" />
<glyph horiz-adv-x="620" d="M59 -119q3 0 8.5 1t19.5 7t26.5 14.5t24.5 26t18 39.5h-88v105h86q-1 4 -11 35h-75v106h34q-24 67 -24 133q0 104 55 161.5t160 57.5q138 0 291 -127l-119 -168q-67 60 -111 60q-20 0 -20 -25q0 -31 26 -92h158v-106h-125l4 -35h121v-105h-129q-6 -22 -22 -41h206v-235 h-514v188z" />
<glyph horiz-adv-x="622" d="M59 788v189q3 0 8.5 1t19.5 7t26.5 14.5t24.5 26t18 39.5h-88v104h86q-1 4 -11 35h-75v107h34q-24 67 -24 133q0 104 55 161.5t160 57.5q138 0 291 -127l-119 -168q-66 59 -111 59q-20 0 -20 -24q0 -31 26 -92h158v-107h-125l4 -35h121v-104h-129q-6 -22 -22 -41h206 v-236h-514z" />
<glyph horiz-adv-x="1064" d="M45 588q0 606 490 606q487 0 487 -606t-487 -606q-490 0 -490 606zM256 1268v280h254v-280h-254zM408 588q0 -135 27 -202t100 -67q37 0 62 18t37.5 55.5t17.5 83.5t5 112t-5 111.5t-17.5 83t-37.5 55.5t-62 18q-73 0 -100 -66.5t-27 -201.5zM559 1268v280h254v-280h-254 z" />
<glyph horiz-adv-x="1064" d="M45 588q0 606 490 606q487 0 487 -606t-487 -606q-490 0 -490 606zM209 1247l166 297h319l166 -297h-244l-81 129l-82 -129h-244zM408 588q0 -135 27 -202t100 -67q37 0 62 18t37.5 55.5t17.5 83.5t5 112t-5 111.5t-17.5 83t-37.5 55.5t-62 18q-73 0 -100 -66.5 t-27 -201.5z" />
<glyph horiz-adv-x="776" d="M78 20v533h254v-563q0 -32 11.5 -50t43.5 -18q35 0 46 17.5t11 50.5v563h254v-533q0 -62 -6 -108.5t-25.5 -92.5t-53 -75.5t-90.5 -47.5t-136 -18q-78 0 -134.5 18t-89.5 47.5t-52.5 75.5t-26 92.5t-6.5 108.5z" />
<glyph horiz-adv-x="1064" d="M45 588q0 606 490 606q487 0 487 -606t-487 -606q-490 0 -490 606zM244 1530h211q0 -30 20.5 -50t56.5 -20q37 0 59.5 20t22.5 50h209q0 -133 -77 -208t-214 -75q-136 0 -212 75t-76 208zM408 588q0 -135 27 -202t100 -67q37 0 62 18t37.5 55.5t17.5 83.5t5 112t-5 111.5 t-17.5 83t-37.5 55.5t-62 18q-73 0 -100 -66.5t-27 -201.5z" />
<glyph horiz-adv-x="1019" d="M78 451v725h354v-766q0 -43 15.5 -67t62.5 -24q48 0 64 23.5t16 67.5v766h354v-725q0 -85 -9 -148.5t-36 -127t-74 -103.5t-126.5 -65t-188.5 -25t-188 25t-125.5 65t-73.5 103.5t-36 127t-9 148.5zM274 1298v234h474v-234h-474z" />
<glyph horiz-adv-x="1064" d="M45 588q0 606 490 606q487 0 487 -606t-487 -606q-490 0 -490 606zM328 1247l180 297h375l-254 -297h-301zM408 588q0 -135 27 -202t100 -67q37 0 62 18t37.5 55.5t17.5 83.5t5 112t-5 111.5t-17.5 83t-37.5 55.5t-62 18q-73 0 -100 -66.5t-27 -201.5z" />
<glyph horiz-adv-x="1458" d="M45 588q0 606 490 606q70 0 151 -18h707v-336h-379v-88h301v-326h-301v-90h385v-336h-713q-81 -18 -151 -18q-490 0 -490 606zM408 588q0 -135 27 -202t100 -67q37 0 62 18t37.5 55.5t17.5 83.5t5 112t-5 111.5t-17.5 83t-37.5 55.5t-62 18q-73 0 -100 -66.5t-27 -201.5z " />
<glyph horiz-adv-x="950" d="M72 -307v645h245v-68q61 82 140 82q95 0 131 -102v2q67 100 155 100q67 0 106.5 -51.5t39.5 -148.5v-459h-246v377q0 59 -6 67q-3 4 -8 4q-17 0 -27 -24v-424h-244v377q0 58 -6 66q-5 5 -10 5q-15 0 -25 -24v-424h-245z" />
<glyph horiz-adv-x="1019" d="M78 451v725h354v-766q0 -43 15.5 -67t62.5 -24q48 0 64 23.5t16 67.5v766h354v-725q0 -72 -6 -127.5t-24.5 -112.5t-49.5 -97.5t-82.5 -72t-122.5 -45.5q-114 -101 -114 -184q0 -19 6.5 -32t15 -19t21.5 -9t21.5 -3t20.5 1h11l-29 -170q-1 0 -17 -0.5t-27.5 -0.5t-33.5 2 t-38.5 5t-39 10t-39 16.5t-34 24.5t-28.5 33.5t-18 45t-7 57.5q0 124 112 211q-91 7 -157.5 35.5t-106 69t-62.5 101.5t-30.5 121t-7.5 140z" />
<glyph horiz-adv-x="595" d="M33 12q0 161 67 250.5t199 89.5q127 0 193.5 -80.5t66.5 -210.5q0 -27 -2.5 -52t-4.5 -37l-3 -11h-270q0 -43 9.5 -62.5t35.5 -19.5q42 0 149 45l88 -162q-153 -84 -274 -84q-115 0 -184.5 82t-69.5 252zM276 96h64q-1 26 -2.5 36t-8.5 20t-22 10q-19 0 -25 -15.5 t-6 -50.5z" />
<glyph horiz-adv-x="1064" d="M45 588q0 606 490 606q487 0 487 -606t-487 -606q-490 0 -490 606zM408 588q0 -135 27 -202t100 -67q37 0 62 18t37.5 55.5t17.5 83.5t5 112t-5 111.5t-17.5 83t-37.5 55.5t-62 18q-73 0 -100 -66.5t-27 -201.5z" />
<glyph horiz-adv-x="1054" d="M88 0v1176h356l170 -482v482h355v-1176h-357l-170 479v-479h-354zM205 1337q48 126 74 168q54 86 133 86q37 0 84 -24t87 -48t58 -24q40 0 76 94l147 -88q-48 -126 -74 -168q-54 -86 -131 -86q-38 0 -85.5 24t-87.5 48t-58 24q-38 0 -76 -94z" />
<glyph horiz-adv-x="804" d="M86 788v861h256l121 -349v349h254v-861h-254l-123 353v-353h-254z" />
<glyph horiz-adv-x="804" d="M86 -307v860h256l121 -348v348h254v-860h-254l-123 352v-352h-254z" />
<glyph horiz-adv-x="1054" d="M88 0v1176h356l170 -482v482h355v-1176h-357l-170 479v-479h-354zM403 -104h238l8 -332l-186 -219l-57 92l100 166h-103v293z" />
<glyph horiz-adv-x="1054" d="M88 0v1176h356l170 -482v482h355v-1176h-357l-170 479v-479h-354zM211 1544h244l82 -129l81 129h244l-166 -297h-319z" />
<glyph horiz-adv-x="1054" d="M88 0v1176h356l170 -482v482h355v-1176h-357l-170 479v-479h-354zM322 1247l180 297h375l-254 -297h-301z" />
<glyph horiz-adv-x="1054" d="M88 0v1176h356l170 -482v482h355v-1176h-357l-170 479v-479h-354z" />
<glyph horiz-adv-x="669" d="M35 563q0 139 76 225t215 86q152 0 226.5 -106.5t74.5 -284.5q0 -138 -51 -249.5t-153.5 -179.5t-238.5 -68q-30 0 -58 3.5t-41 6.5l-13 4l59 219q22 -6 51 -6q116 0 164 119q-42 -33 -100 -33q-91 0 -151 71.5t-60 192.5zM285 580q0 -76 45 -76q29 0 45 26 q-4 117 -51 117q-39 0 -39 -67z" />
<glyph horiz-adv-x="1064" d="M49 383q0 137 58.5 230.5t158.5 164.5q-149 124 -149 320q0 154 108.5 256t306.5 102q199 0 307.5 -102t108.5 -256q0 -195 -149 -322q217 -151 217 -393q0 -87 -29 -159.5t-87 -128.5t-152 -87t-216 -31q-239 0 -361 112.5t-122 293.5zM438 412q0 -49 23.5 -80t70.5 -31 t71 31t24 80q0 105 -95 190q-94 -81 -94 -190zM467 1071q0 -83 65 -135q66 56 66 135q0 27 -15.5 50.5t-50.5 23.5t-50 -23.5t-15 -50.5z" />
<glyph horiz-adv-x="1007" d="M31 680q0 230 119.5 372t336.5 142q122 0 215 -48.5t150 -136t85 -203.5t28 -257q0 -140 -30.5 -266.5t-90 -230t-142.5 -179t-194.5 -117t-239.5 -41.5q-48 0 -92.5 6t-65.5 11l-20 6l90 338q39 -10 84 -10q84 0 157.5 56.5t113.5 180.5q-67 -63 -168 -63 q-143 0 -239.5 120.5t-96.5 319.5zM418 705q0 -148 76 -148q51 0 79 55q-5 232 -88 232q-67 0 -67 -139z" />
<glyph horiz-adv-x="696" d="M41 805q0 146 133 237q-90 76 -90 187q0 94 69 156.5t195 62.5t195 -62.5t69 -156.5q0 -112 -92 -187q135 -92 135 -237q0 -108 -77.5 -177t-229.5 -69t-229.5 69t-77.5 177zM293 825q0 -25 13.5 -41t41.5 -16t41.5 16t13.5 41q0 61 -55 107q-55 -46 -55 -107zM309 1212 q0 -42 39 -73q37 29 37 73q0 7 -2.5 14t-11.5 14t-23 7q-22 0 -30.5 -11.5t-8.5 -23.5z" />
<glyph horiz-adv-x="696" d="M41 231q0 147 133 238q-90 76 -90 186q0 94 69 156.5t195 62.5t195 -62.5t69 -156.5q0 -111 -92 -186q135 -92 135 -238q0 -108 -77.5 -176.5t-229.5 -68.5t-229.5 68.5t-77.5 176.5zM293 252q0 -25 13.5 -41t41.5 -16t41.5 16t13.5 41q0 60 -55 106q-55 -46 -55 -106z M309 639q0 -43 39 -74q37 29 37 74q0 7 -2.5 14t-11.5 14t-23 7q-22 0 -30.5 -11.5t-8.5 -23.5z" />
<glyph horiz-adv-x="1019" d="M78 451v725h354v-766q0 -43 15.5 -67t62.5 -24q48 0 64 23.5t16 67.5v766h354v-725q0 -85 -9 -148.5t-36 -127t-74 -103.5t-126.5 -65t-188.5 -25t-188 25t-125.5 65t-73.5 103.5t-36 127t-9 148.5zM293 1444q0 90 63.5 153.5t153.5 63.5q89 0 153 -64t64 -153 q0 -90 -63.5 -153.5t-153.5 -63.5q-91 0 -154 63t-63 154zM457 1444q0 -23 15 -38t38 -15q22 0 37.5 15t15.5 38q0 22 -15.5 37.5t-37.5 15.5q-23 0 -38 -15.5t-15 -37.5z" />
<glyph horiz-adv-x="686" d="M72 -307v645h245v-59q42 36 78 54.5t84 18.5q68 0 106 -50.5t38 -149.5v-459h-244v403q0 45 -21 45q-14 0 -25 -13.5t-16 -29.5v-405h-245z" />
<glyph horiz-adv-x="776" d="M78 1116v533h254v-564q0 -32 11.5 -49.5t43.5 -17.5q35 0 46 17t11 50v564h254v-533q0 -62 -6 -108.5t-25.5 -92.5t-53 -75.5t-90.5 -47.5t-136 -18q-78 0 -134.5 18t-89.5 47.5t-52.5 75.5t-26 92.5t-6.5 108.5z" />
<glyph horiz-adv-x="1019" d="M78 451v725h354v-766q0 -43 15.5 -67t62.5 -24q48 0 64 23.5t16 67.5v766h354v-725q0 -85 -9 -148.5t-36 -127t-74 -103.5t-126.5 -65t-188.5 -25t-188 25t-125.5 65t-73.5 103.5t-36 127t-9 148.5zM178 1337q48 126 74 168q54 86 133 86q37 0 84 -24t87 -48t58 -24 q40 0 76 94l148 -88q-48 -126 -74 -168q-54 -86 -131 -86q-38 0 -86 24t-88 48t-58 24q-37 0 -75 -94z" />
<glyph horiz-adv-x="901" d="M86 788v861h256l107 -342l108 342h256v-861h-254v349l-59 -205h-99l-61 211v-355h-254z" />
<glyph horiz-adv-x="901" d="M86 -307v860h256l107 -342l108 342h256v-860h-254v348l-59 -205h-99l-61 211v-354h-254z" />
<glyph horiz-adv-x="942" d="M53 215v283h125l21 180h-97v285h127l25 213h252l-23 -213h58l24 213h252l-22 -213h94v-285h-125l-21 -180h97v-283h-125l-23 -215h-256l23 215h-58l-22 -215h-254l22 215h-94zM432 498h57l21 180h-57z" />
<glyph horiz-adv-x="694" d="M49 55h90l15 135h-70v205h90l19 158h182l-19 -158h43l19 158h180l-16 -158h67v-205h-90l-14 -135h69v-202h-90l-16 -160h-182l16 160h-43l-16 -160h-183l17 160h-68v202zM322 55h43l14 135h-43z" />
<glyph horiz-adv-x="696" d="M49 948v203h90l15 135h-70v205h90l19 158h182l-19 -158h43l19 158h180l-16 -158h67v-205h-90l-14 -135h69v-203h-90l-16 -160h-182l16 160h-43l-16 -160h-183l17 160h-68zM322 1151h43l14 135h-43z" />
<glyph horiz-adv-x="1187" d="M88 0v1176h356l150 -465l149 465h359v-1176h-354v481l-84 -284h-138l-84 284v-481h-354z" />
<glyph horiz-adv-x="626" d="M86 788v861h254v-621h262v-240h-516z" />
<glyph horiz-adv-x="851" d="M27 260v340l75 53v523h355v-277l151 107v-342l-151 -107v-221h364v-336h-719v311z" />
<glyph horiz-adv-x="626" d="M86 -307v860h254v-621h262v-239h-516z" />
<glyph horiz-adv-x="839" d="M88 0v1176h354v-840h365v-336h-719zM518 498v280h254v-280h-254z" />
<glyph horiz-adv-x="837" d="M88 0v1176h354v-840h365v-336h-719zM315 -104h238l8 -332l-186 -219l-58 92l101 166h-103v293z" />
<glyph horiz-adv-x="1015" d="M10 1176h389l109 -660l110 660h388l-301 -1176h-394z" />
<glyph horiz-adv-x="839" d="M88 0v1176h354v-840h365v-336h-719zM473 883v293h238l8 -332l-187 -219l-57 92l100 166h-102z" />
<glyph horiz-adv-x="837" d="M57 1247l181 297h374l-254 -297h-301zM88 0v1176h354v-840h365v-336h-719z" />
<glyph horiz-adv-x="632" d="M33 16q0 336 284 336q285 0 285 -338q0 -336 -285 -336q-284 0 -284 338zM279 16q0 -72 7 -100.5t31 -28.5q17 0 25.5 15.5t11 40t2.5 71.5q0 71 -7 100t-32 29q-24 0 -31 -28t-7 -99z" />
<glyph horiz-adv-x="837" d="M88 0v1176h354v-840h365v-336h-719z" />
<glyph horiz-adv-x="774" d="M86 788v861h254v-236l127 236h309l-252 -379l242 -482h-301l-105 238l-20 -31v-207h-254z" />
<glyph horiz-adv-x="583" d="M2 709l205 151h242v-860h-250v608l-93 -65z" />
<glyph horiz-adv-x="583" d="M2 1282l205 152h242v-861h-250v609l-93 -66z" />
<glyph horiz-adv-x="786" d="M-4 932l323 244h373v-1176h-387v784l-147 -110z" />
<glyph horiz-adv-x="722" d="M4 553h281l75 -485l80 485h279l-217 -860h-281z" />
<glyph horiz-adv-x="724" d="M4 1649h281l75 -486l80 486h279l-217 -861h-281z" />
<glyph horiz-adv-x="1269" d="M29 1055l172 121h188v-705h-196v508l-82 -55zM287 0l395 1176h211l-395 -1176h-211zM711 188q0 120 118 197q-81 65 -81 154q0 76 58.5 127t162.5 51t162.5 -51t58.5 -127q0 -89 -82 -154q119 -77 119 -197q0 -88 -66.5 -144t-191.5 -56q-126 0 -192 56t-66 144zM909 205 q0 -24 15.5 -38.5t44.5 -14.5q28 0 43.5 14.5t15.5 38.5q0 50 -59 96q-60 -44 -60 -96zM926 526q0 -41 41 -67q43 25 43 67q0 12 -10 22.5t-31 10.5q-22 0 -32.5 -10.5t-10.5 -22.5z" />
<glyph horiz-adv-x="1275" d="M29 1055l172 121h188v-705h-196v508l-82 -55zM287 0l395 1176h211l-395 -1176h-211zM729 94l96 150q80 -68 131 -68q30 0 48 16.5t18 43.5q0 25 -16 45t-52 20q-41 0 -82 -35l-108 68l29 371h407v-181h-237v-53q28 4 47 4q72 0 121 -34.5t69.5 -85.5t20.5 -115 q0 -108 -59 -180t-175 -72q-133 0 -258 106z" />
<glyph horiz-adv-x="774" d="M86 -307v860h254v-236l127 236h309l-252 -379l242 -481h-301l-105 237l-20 -30v-207h-254z" />
<glyph horiz-adv-x="1261" d="M29 1055l172 121h188v-705h-196v508l-82 -55zM287 0l395 1176h211l-395 -1176h-211zM721 0v84q0 151 160 285q9 7 34 28.5t34.5 30.5t25 24.5t21 27.5t5.5 24q0 13 -11 22t-32 9q-40 0 -129 -62l-94 135q130 109 254 109q104 0 158.5 -61.5t54.5 -141.5q0 -127 -145 -244 q-92 -75 -92 -90h237v-180h-481z" />
<glyph horiz-adv-x="1355" d="M18 1176h400l53 -476l80 476h252l78 -478l55 478h401l-243 -1176h-326l-92 553l-92 -553h-324z" />
<glyph horiz-adv-x="1042" d="M88 0v1176h354v-320l176 320h433l-353 -519l336 -657h-418l-145 324l-29 -43v-281h-354zM387 -104h238l8 -332l-187 -219l-57 92l100 166h-102v293z" />
<glyph horiz-adv-x="1265" d="M29 1055l172 121h188v-705h-196v508l-82 -55zM287 0l395 1176h211l-395 -1176h-211zM653 115v149l221 441h265v-410h78v-180h-78v-115h-199v115h-287zM831 295h109v217z" />
<glyph horiz-adv-x="1236" d="M29 1055l172 121h188v-705h-196v508l-82 -55zM287 0l395 1176h211l-395 -1176h-211zM688 307q0 175 101.5 292.5t267.5 117.5q26 0 50 -3t35 -6l11 -3l-47 -170q-22 4 -47 4q-106 0 -150 -111q40 31 95 31q79 0 130.5 -59t51.5 -158q0 -112 -64.5 -183t-179.5 -71 q-128 0 -191 87.5t-63 231.5zM887 270q1 -63 16 -83.5t41 -20.5q43 0 43 63q0 70 -47 70q-38 0 -53 -29z" />
<glyph horiz-adv-x="1042" d="M88 0v1176h354v-320l176 320h433l-353 -519l336 -657h-418l-145 324l-29 -43v-281h-354z" />
<glyph horiz-adv-x="1355" d="M18 1176h400l53 -476l80 476h252l78 -478l55 478h401l-243 -1176h-326l-92 553l-92 -553h-324zM471 1247l180 297h375l-254 -297h-301z" />
<glyph horiz-adv-x="1261" d="M29 1055l172 121h188v-705h-196v508l-82 -55zM287 0l395 1176h211l-395 -1176h-211zM717 92l92 144q97 -62 147 -62q25 0 42.5 12.5t17.5 32.5q0 57 -127 57h-21v179h25q100 0 100 47q0 4 -3 10.5t-13.5 13t-26.5 6.5q-51 0 -125 -53l-86 131q128 107 254 107 q93 0 146 -51t53 -125q0 -38 -15.5 -70t-31.5 -47.5t-41 -34.5q51 -25 79.5 -71.5t28.5 -108.5q0 -40 -12 -77t-37 -70.5t-70.5 -53.5t-105.5 -20q-137 0 -270 104z" />
<glyph horiz-adv-x="423" d="M-14 735q37 18 57.5 31.5t30 32t11 33t1.5 47.5v770h254v-754q0 -64 -1 -92.5t-9 -70.5t-24 -62t-46.5 -48.5t-76.5 -49.5t-115 -46z" />
<glyph horiz-adv-x="423" d="M-14 -360q30 14 49 26.5t29.5 22.5t15 26.5t5.5 28.5t1 39v770h254v-754q0 -76 -2.5 -109t-15 -78t-41.5 -69.5t-80 -53t-133 -58.5z" />
<glyph horiz-adv-x="532" d="M-59 1247l165 297h320l166 -297h-244l-82 129l-82 -129h-243zM-49 -72q30 14 52 27t37.5 23.5t25 24.5t15 23.5t8 28.5t3 31t0.5 39v1051h352v-1029v-2q0 -60 -0.5 -87.5t-3.5 -73t-10 -66t-19 -54.5t-32 -52t-47 -43.5t-65.5 -44.5t-87.5 -40.5t-113 -43.5z" />
<glyph horiz-adv-x="532" d="M-49 -72q30 14 52 27t37.5 23.5t25 24.5t15 23.5t8 28.5t3 31t0.5 39v1051h352v-1029v-2q0 -60 -0.5 -87.5t-3.5 -73t-10 -66t-19 -54.5t-32 -52t-47 -43.5t-65.5 -44.5t-87.5 -40.5t-113 -43.5z" />
<glyph horiz-adv-x="944" d="M41 164l162 268q75 -48 156 -86.5t122 -38.5q18 0 28.5 8.5t10.5 22.5q0 21 -27.5 39.5t-94 55.5t-122.5 79q-98 70 -157.5 151t-59.5 187q0 80 31 149t101.5 121t170.5 68v158h238v-170q139 -35 281 -121l-164 -277q-176 88 -234 88q-23 0 -35 -9.5t-12 -22.5 q0 -20 30.5 -43.5t100.5 -64.5t113 -71q217 -149 217 -329q0 -53 -17 -105.5t-50.5 -101t-93 -84t-136.5 -47.5v-156h-238v168q-177 45 -321 164z" />
<glyph horiz-adv-x="528" d="M-68 1337q48 126 74 168q54 86 133 86q37 0 84.5 -24t87.5 -48t58 -24q39 0 75 94l148 -88q-48 -126 -74 -168q-54 -86 -131 -86q-38 0 -85.5 24t-87.5 48t-58 24q-38 0 -76 -94zM88 0v1176h354v-1176h-354z" />
<glyph horiz-adv-x="421" d="M84 788v861h254v-861h-254z" />
<glyph horiz-adv-x="528" d="M88 0v1176h354v-1176h-8q-119 -105 -119 -188q0 -18 6.5 -31.5t15 -19.5t22 -9t22 -3t19.5 1h12l-29 -170q-1 0 -17.5 -0.5t-27.5 -0.5t-33 2t-38.5 5t-39 10t-39 16.5t-34.5 24.5t-29 33.5t-18 45t-7 57.5q0 131 133 227h-145z" />
<glyph horiz-adv-x="1118" d="M33 721q0 121 32.5 211.5t89.5 142t126.5 76.5t152.5 25h277v-1487h-279v573q-77 0 -145.5 25t-126.5 77t-92.5 143.5t-34.5 213.5zM741 -311v1487h279v-1487h-279z" />
<glyph horiz-adv-x="528" d="M27 1298v234h473v-234h-473zM88 0v1176h354v-1176h-354z" />
<glyph horiz-adv-x="581" d="M82 266v4v627v4q0 61 0.5 89.5t3.5 76.5t10 71t19.5 59t32 55t47.5 45t66.5 43t88.5 35t113 34l78 -201q-69 -39 -87 -77t-18 -119v-854q0 -81 18 -120.5t87 -76.5l-78 -201q-57 14 -103 29t-82.5 34t-64.5 34.5t-48.5 41.5t-34.5 43.5t-23.5 51.5t-14.5 55t-7 65.5 t-2.5 70.5t-0.5 81z" />
<glyph horiz-adv-x="1355" d="M18 1176h400l53 -476l80 476h252l78 -478l55 478h401l-243 -1176h-326l-92 553l-92 -553h-324zM354 1247l166 297h320l166 -297h-244l-82 129l-82 -129h-244z" />
<glyph horiz-adv-x="673" d="M35 16q0 161 48 248.5t140 87.5q40 0 67.5 -16t67.5 -55v307h244v-895h-244v57q-39 -39 -66.5 -55.5t-68.5 -16.5q-93 0 -140.5 88t-47.5 250zM281 16q0 -118 34 -118q10 0 19.5 10.5t23.5 42.5v129q-14 32 -23.5 42.5t-19.5 10.5q-34 0 -34 -117z" />
<glyph horiz-adv-x="421" d="M84 -307v860h254v-860h-254z" />
<glyph horiz-adv-x="583" d="M43 -39q69 39 86.5 77.5t17.5 119.5v854q0 81 -17.5 120t-86.5 76l78 201q57 -14 103 -29t82.5 -34t64.5 -34.5t48.5 -41.5t34.5 -43.5t23.5 -51.5t14.5 -55t7 -65.5t2.5 -70.5t0.5 -81v-4v-627v-4q0 -61 -0.5 -89.5t-3.5 -76.5t-10 -71t-19.5 -59t-32 -55t-47.5 -45 t-66.5 -43t-88.5 -35t-113 -34z" />
<glyph horiz-adv-x="1355" d="M18 1176h400l53 -476l80 476h252l78 -478l55 478h401l-243 -1176h-326l-92 553l-92 -553h-324zM399 1268v280h254v-280h-254zM702 1268v280h254v-280h-254z" />
<glyph horiz-adv-x="1355" d="M18 1176h400l53 -476l80 476h252l78 -478l55 478h401l-243 -1176h-326l-92 553l-92 -553h-324zM334 1544h375l180 -297h-299z" />
<glyph d="M12 553h287l39 -352l57 352h180l56 -348l41 348h286l-174 -860h-233l-68 407l-65 -407h-234z" />
<glyph horiz-adv-x="528" d="M-84 1544h375l180 -297h-299zM88 0v1176h354v-1176h-354z" />
<glyph horiz-adv-x="1325" d="M37 877q0 150 65.5 233.5t204.5 83.5q271 0 271 -317q0 -312 -271 -312q-139 0 -204.5 82t-65.5 230zM272 877q0 -55 6 -73t29 -18q24 0 30.5 18.5t6.5 72.5q0 56 -6.5 75t-30.5 19q-23 0 -29 -18.5t-6 -75.5zM322 0l430 1176h247l-428 -1176h-249zM748 295 q0 148 65.5 231.5t204.5 83.5q270 0 270 -315q0 -313 -270 -313q-139 0 -204.5 82.5t-65.5 230.5zM983 295q0 -55 6 -72.5t29 -17.5q24 0 30.5 18t6.5 72q0 55 -6.5 74.5t-30.5 19.5q-23 0 -29 -19t-6 -75z" />
<glyph horiz-adv-x="946" d="M23 336q0 108 47 169.5t147 61.5t147.5 -61.5t47.5 -169.5q0 -230 -195 -230q-194 0 -194 230zM190 336q0 -41 4.5 -55.5t22.5 -14.5t22.5 14.5t4.5 55.5t-4.5 55.5t-22.5 14.5t-22.5 -14.5t-4.5 -55.5zM227 -307l310 860h178l-307 -860h-181zM532 -92q0 231 195 231 t195 -231q0 -108 -47.5 -169t-147.5 -61t-147.5 61t-47.5 169zM702 -92q0 -41 4.5 -54.5t20.5 -13.5q18 0 22.5 13.5t4.5 54.5q0 42 -4.5 57t-22.5 15q-16 0 -20.5 -15t-4.5 -57z" />
<glyph horiz-adv-x="1705" d="M31 772v303h98q8 201 82.5 299.5t237.5 98.5q70 0 145 -16.5t116.5 -31.5t100.5 -41q80 109 258 109q193 0 424 -98l-111 -265q-4 1 -36.5 9t-55 13t-54.5 10t-52 5q-14 0 -24.5 -2t-25 -9.5t-22.5 -27.5t-8 -51v-2h528v-979v-2q0 -70 -0.5 -102.5t-4 -87.5t-11 -80.5 t-21 -67t-34.5 -63t-52 -51.5t-72.5 -49.5t-96 -40.5t-123.5 -39l-119 299q42 21 68.5 36t45.5 34t28 31.5t14 39.5t5.5 46t0.5 62v711h-156v-772h-373v772h-229v-772h-373v772h-98zM502 1075h229q0 37 2 55q-134 37 -172 37q-10 0 -17.5 -2t-18.5 -9.5t-17 -27.5t-6 -51v-2 z" />
<glyph horiz-adv-x="528" d="M-14 1268v280h254v-280h-254zM88 0v1176h354v-1176h-354zM289 1268v280h254v-280h-254z" />
<glyph horiz-adv-x="530" d="M-61 1247l165 297h320l166 -297h-244l-82 129l-82 -129h-243zM88 0v1176h354v-1176h-354z" />
<glyph d="M12 1649h287l39 -353l57 353h180l56 -349l41 349h286l-174 -861h-233l-68 408l-65 -408h-234z" />
<glyph horiz-adv-x="526" d="M33 1112q0 170 65.5 253t167.5 83q99 0 240 -72l-94 -200q-64 36 -93 36q-14 0 -22.5 -7t-11.5 -24.5t-3.5 -29t-0.5 -39.5t0.5 -40t3.5 -30t11.5 -25t22.5 -7q30 0 93 37l94 -201q-141 -72 -240 -72q-102 0 -167.5 84t-65.5 254z" />
<glyph horiz-adv-x="1316" d="M49 588q0 128 41 238t117.5 192t193.5 129t261 47q143 0 259 -47t191 -129t115.5 -192t40.5 -238t-40.5 -238t-115.5 -192t-191 -129t-259 -47q-144 0 -261 47t-193.5 129t-117.5 192t-41 238zM119 588q0 -237 143 -390t397 -153q128 0 231.5 42t171 115.5t104 172 t36.5 213.5q0 154 -62 275.5t-187 194t-294 72.5q-254 0 -397 -152.5t-143 -389.5zM350 586q0 174 85.5 270t213.5 96q60 0 119 -19t91 -37.5t75 -47.5l-53 -60q-35 26 -58 41t-72.5 32.5t-99.5 17.5q-96 0 -155.5 -81t-59.5 -212q0 -130 59.5 -209.5t155.5 -79.5 q50 0 99 16.5t73.5 32t57.5 39.5l53 -59q-44 -30 -75 -48t-91 -37.5t-119 -19.5q-128 0 -213.5 96t-85.5 269z" />
<glyph horiz-adv-x="1900" d="M37 877q0 150 65.5 233.5t204.5 83.5q271 0 271 -317q0 -312 -271 -312q-139 0 -204.5 82t-65.5 230zM272 877q0 -55 6 -73t29 -18q24 0 30.5 18.5t6.5 72.5q0 56 -6.5 75t-30.5 19q-23 0 -29 -18.5t-6 -75.5zM322 0l430 1176h247l-428 -1176h-249zM748 295 q0 148 65.5 231.5t204.5 83.5q270 0 270 -315q0 -313 -270 -313q-139 0 -204.5 82.5t-65.5 230.5zM983 295q0 -55 6 -72.5t29 -17.5q24 0 30.5 18t6.5 72q0 55 -6.5 74.5t-30.5 19.5q-23 0 -29 -19t-6 -75zM1321 295q0 149 65.5 233t204.5 84q140 0 206.5 -84.5t66.5 -232.5 t-66 -230.5t-207 -82.5q-139 0 -204.5 82.5t-65.5 230.5zM1556 295q0 -55 6 -72.5t29 -17.5q25 0 31 17.5t6 72.5q0 56 -6 75t-31 19q-23 0 -29 -19t-6 -75z" />
<glyph horiz-adv-x="983" d="M0 0l274 606l-260 570h400l78 -269l77 269h400l-260 -570l276 -606h-407l-86 264l-86 -264h-406z" />
<glyph horiz-adv-x="1019" d="M76 723v88h28v365h363q460 0 485 -365h33v-88h-33q-6 -81 -33 -144.5t-82 -114t-148.5 -77.5t-221.5 -27h-8v-360h-355v723h-28zM459 684h14q49 0 77 7.5t40 31.5h-131v-39zM459 811h129q-21 37 -115 37h-14v-37z" />
<glyph horiz-adv-x="739" d="M68 219v70h22v264h260q330 0 348 -264h23v-70h-23q-17 -260 -348 -260h-6v-266h-254v526h-22zM344 190h10q68 0 82 29h-92v-29zM344 289h92q-13 28 -82 28h-10v-28z" />
<glyph horiz-adv-x="739" d="M68 1315v69h22v265h260q330 0 348 -265h23v-69h-23q-17 -260 -348 -260h-6v-267h-254v527h-22zM344 1286h10q68 0 82 29h-92v-29zM344 1384h92q-14 29 -82 29h-10v-29z" />
<glyph horiz-adv-x="714" d="M4 -307l197 442l-187 418h287l55 -197l58 197h286l-186 -418l197 -442h-293l-62 190l-61 -190h-291z" />
<glyph horiz-adv-x="673" d="M72 338h245v-55q37 37 65 53t69 16q92 0 140 -87.5t48 -248.5q0 -162 -47.5 -250t-140.5 -88q-41 0 -69 16.5t-65 53.5v-305h-245v895zM317 -55q17 -47 41 -47q35 0 35 118q0 117 -35 117q-23 0 -41 -49v-139z" />
<glyph horiz-adv-x="526" d="M-27 1530h211q0 -30 21 -50t57 -20q37 0 59.5 20t22.5 50h209q0 -133 -77 -208t-214 -75q-136 0 -212.5 75.5t-76.5 207.5zM88 0v1176h354v-1176h-354z" />
<glyph horiz-adv-x="530" d="M57 1247l181 297h374l-254 -297h-301zM88 0v1176h354v-1176h-354z" />
<glyph horiz-adv-x="393" d="M80 788v275h233v-275h-233zM80 1133v274h233v-274h-233z" />
<glyph horiz-adv-x="563" d="M43 1221q0 169 65.5 251t165.5 82h21l16 95h84l-18 -109l12 -4l19 113h84l-23 -140l61 -28l-90 -205q-85 45 -118 45q-21 0 -26 -23.5t-5 -76.5q0 -29 0.5 -42.5t3 -31t9.5 -24.5t18 -7q26 0 118 45l90 -203q-83 -43 -163 -63l-17 -107h-86l17 95h-13l-14 -95h-86l18 113 q-65 31 -104 111t-39 209z" />
<glyph horiz-adv-x="675" d="M72 539v895h245v-56q37 37 65 53.5t69 16.5q92 0 140 -87.5t48 -248.5q0 -162 -47.5 -250t-140.5 -88q-41 0 -69 16.5t-65 53.5v-305h-245zM317 1040q17 -47 41 -47q35 0 35 119q0 117 -35 117q-23 0 -41 -49v-140z" />
<glyph horiz-adv-x="1060" d="M88 0v1176h354v-1176h-354zM479 -72q43 20 69 37.5t41.5 31.5t22 36.5t8 39t1.5 52.5v1051h352v-1029q0 -67 -0.5 -98t-5.5 -80t-14 -71.5t-27.5 -58.5t-45 -55.5t-67 -46.5t-94 -49.5t-125.5 -47.5z" />
<glyph horiz-adv-x="673" d="M35 16q0 161 48 248.5t140 87.5q39 0 67 -16.5t68 -54.5v57h244v-895h-244v307q-39 -39 -66.5 -55.5t-68.5 -16.5q-93 0 -140.5 88t-47.5 250zM281 16q0 -118 34 -118q10 0 19.5 10.5t23.5 42.5v129q-14 32 -23.5 42.5t-19.5 10.5q-34 0 -34 -117z" />
<glyph horiz-adv-x="675" d="M37 1112q0 161 48 248.5t140 87.5q39 0 67 -17t68 -55v58h244v-895h-244v307q-39 -39 -66.5 -55.5t-68.5 -16.5q-93 0 -140.5 88t-47.5 250zM283 1112q0 -119 34 -119q10 0 19.5 10.5t23.5 43.5v129q-14 32 -23.5 42.5t-19.5 10.5q-34 0 -34 -117z" />
<glyph horiz-adv-x="528" d="M88 0v1176h354v-1176h-354z" />
<glyph horiz-adv-x="768" d="M33 1049q23 21 53.5 42.5t77 46.5t106 40.5t119.5 15.5q150 0 246 -93.5t96 -234.5q0 -245 -313 -393l-12 -53h-199l-14 256q99 38 139.5 71t40.5 70q0 7 -1.5 15.5t-14 21t-35.5 12.5q-46 0 -134 -65zM143 0v342h326v-342h-326z" />
<glyph horiz-adv-x="790" d="M86 788v861h254v-291h111v291h254v-861h-254v334h-111v-334h-254z" />
<glyph horiz-adv-x="770" d="M39 309q0 245 313 393l13 54h198l15 -256q-99 -38 -140 -71.5t-41 -70.5q0 -7 1.5 -15.5t14.5 -21t36 -12.5q8 0 16.5 1.5t17.5 4.5t16.5 6.5t16.5 9t15 9t15.5 10t13.5 9t12.5 9t9.5 7.5l155 -248q-23 -21 -53.5 -42.5t-77 -46.5t-106 -40.5t-119.5 -15.5 q-150 0 -246 93t-96 234zM301 834v342h326v-342h-326z" />
<glyph horiz-adv-x="534" d="M18 -82q0 176 226 287l10 43h141l11 -189q-72 -30 -101 -54.5t-29 -51.5q0 -39 37 -39q32 0 95 49l112 -178q-40 -38 -107.5 -72.5t-148.5 -34.5q-107 0 -176.5 68.5t-69.5 171.5zM207 307v246h233v-246h-233z" />
<glyph horiz-adv-x="534" d="M18 1014q0 175 226 286l10 43h141l11 -188q-72 -30 -101 -54.5t-29 -51.5q0 -39 37 -39q32 0 95 49l112 -178q-40 -38 -107.5 -72.5t-148.5 -34.5q-107 0 -176.5 68.5t-69.5 171.5zM207 1403v246h233v-246h-233z" />
<glyph horiz-adv-x="532" d="M12 461q40 37 107.5 71.5t148.5 34.5q107 0 176.5 -68t69.5 -171q0 -177 -225 -287l-10 -43h-142l-10 188q71 30 100 55t29 52q0 39 -37 39q-31 0 -94 -49zM92 -61h234v-246h-234v246z" />
<glyph horiz-adv-x="534" d="M12 1556q40 38 107.5 72.5t148.5 34.5q107 0 176.5 -68.5t69.5 -171.5q0 -176 -225 -286l-10 -43h-142l-10 188q71 30 100 55t29 52q0 38 -37 38q-31 0 -94 -49zM92 788v246h234v-246h-234z" />
<glyph horiz-adv-x="790" d="M86 -307v860h254v-291h111v291h254v-860h-254v334h-111v-334h-254z" />
<glyph horiz-adv-x="565" d="M43 125q0 169 65.5 251.5t165.5 82.5h21l16 94h84l-18 -109l12 -4l19 113h84l-23 -139l61 -29l-90 -205q-85 45 -118 45q-21 0 -26 -23.5t-5 -76.5q0 -29 0.5 -42.5t3 -31t9.5 -24.5t18 -7q24 0 118 46l90 -203q-87 -45 -163 -64l-17 -106h-86l17 94h-13l-14 -94h-86 l18 112q-65 31 -104 111t-39 209z" />
<glyph horiz-adv-x="774" d="M55 590q0 119 26.5 210t72 144t102 79t121.5 26h22l23 127h119l-25 -146l21 -6l24 152h119l-33 -189l88 -41l-127 -284q-113 61 -155 61q-19 0 -30.5 -9t-16.5 -30.5t-6 -39.5t-1 -54t1 -54.5t6 -40.5t16.5 -31t30.5 -9q39 0 155 59l127 -283q-115 -61 -229 -86l-25 -145 h-116l20 129h-20l-23 -129h-117l25 156q-90 44 -142.5 151.5t-52.5 282.5z" />
<glyph horiz-adv-x="393" d="M80 -33h233v-274h-233v274zM80 37v274h233v-274h-233z" />
<glyph horiz-adv-x="714" d="M4 788l197 443l-187 418h287l55 -197l58 197h286l-186 -418l197 -443h-293l-62 191l-61 -191h-291z" />
<glyph horiz-adv-x="526" d="M33 16q0 170 65.5 253t167.5 83q101 0 240 -71l-94 -201q-66 37 -93 37q-9 0 -16 -3t-11 -12t-6.5 -15t-3.5 -21.5t-1 -23v-26.5q0 -28 0.5 -40t3.5 -30t11.5 -25t22.5 -7q30 0 93 37l94 -201q-141 -72 -240 -72q-102 0 -167.5 84t-65.5 254z" />
<glyph horiz-adv-x="768" d="M49 590q0 212 79 325t204 129v132h235v-162q65 -21 162 -68l-137 -276q-95 53 -139 53q-21 0 -34 -9t-18.5 -30.5t-6.5 -39.5t-1 -54q0 -29 0.5 -44t3.5 -35.5t9 -30.5t18 -17.5t29 -7.5q44 0 139 53l137 -277q-72 -40 -162 -69v-162h-235v133q-125 19 -204 132t-79 325z " />
<glyph horiz-adv-x="1077" d="M16 856v209h93v111h354v-111h151v111h355v-111h92v-209h-92v-856h-355v455h-151v-455h-354v856h-93zM463 780h151v76h-151v-76z" />
<glyph horiz-adv-x="1036" d="M88 0v1176h354v-396h152v396h354v-1176h-354v455h-152v-455h-354z" />
<glyph horiz-adv-x="737" d="M45 1225q0 214 76.5 326t214.5 112q55 0 118.5 -15.5t104 -31.5t107.5 -45l-107 -215q-125 49 -180 49q-44 0 -59 -50.5t-15 -158.5q0 -39 1.5 -63t7.5 -54.5t21.5 -45.5t39.5 -15q33 0 55 37v37h-92v221h328v-525h-236v56q-63 -70 -133 -70q-108 0 -180 117t-72 334z " />
<glyph horiz-adv-x="954" d="M2 1176h389l86 -285l86 285h389l-297 -703v-473h-354v467z" />
<glyph horiz-adv-x="735" d="M45 129q0 214 76.5 326t214.5 112q55 0 118.5 -15.5t104 -31.5t107.5 -45l-107 -215q-125 49 -180 49q-44 0 -59 -50.5t-15 -158.5q0 -39 1.5 -63t7.5 -54.5t21.5 -45.5t39.5 -15q33 0 55 37v37h-92v221h328v-524h-236v55q-63 -70 -133 -70q-108 0 -180 117t-72 334z" />
<glyph horiz-adv-x="987" d="M49 596q0 292 106.5 445t299.5 153q110 0 216 -32.5t240 -92.5l-145 -297q-177 64 -250 64q-33 0 -54 -18t-32 -57.5t-14.5 -86.5t-3.5 -119q0 -32 1 -54t3.5 -52.5t9 -51.5t16.5 -40.5t27 -29.5t39 -10q48 0 78 54v39h-129v309h458v-719h-329v78q-86 -96 -187 -96 q-150 0 -250 159t-100 455zM356 1268v280h254v-280h-254z" />
<glyph horiz-adv-x="987" d="M49 596q0 292 106.5 445t299.5 153q110 0 216 -32.5t240 -92.5l-145 -297q-177 64 -250 64q-33 0 -54 -18t-32 -57.5t-14.5 -86.5t-3.5 -119q0 -32 1 -54t3.5 -52.5t9 -51.5t16.5 -40.5t27 -29.5t39 -10q48 0 78 54v39h-129v309h458v-719h-329v78q-86 -96 -187 -96 q-150 0 -250 159t-100 455zM383 -104h238l8 -332l-187 -219l-57 92l100 166h-102v293z" />
<glyph horiz-adv-x="505" d="M72 -307v645h245v-131q7 23 17.5 44t29.5 46t50 39t69 10v-260q-43 0 -75.5 -21.5t-49 -52t-26.5 -61.5t-12 -53l-3 -21v-184h-245z" />
<glyph horiz-adv-x="954" d="M2 1176h389l86 -285l86 285h389l-297 -703v-473h-354v467zM270 1247l181 297h374l-254 -297h-301z" />
<glyph horiz-adv-x="954" d="M2 1176h389l86 -285l86 285h389l-297 -703v-473h-354v467zM201 1268v280h254v-280h-254zM504 1268v280h254v-280h-254z" />
<glyph horiz-adv-x="987" d="M49 596q0 292 106.5 445t299.5 153q110 0 216 -32.5t240 -92.5l-145 -297q-177 64 -250 64q-33 0 -54 -18t-32 -57.5t-14.5 -86.5t-3.5 -119q0 -32 1 -54t3.5 -52.5t9 -51.5t16.5 -40.5t27 -29.5t39 -10q48 0 78 54v39h-129v309h458v-719h-329v78q-86 -96 -187 -96 q-150 0 -250 159t-100 455zM193 1530h210q0 -30 21 -50t57 -20q37 0 59.5 20t22.5 50h209q0 -133 -77 -208t-214 -75q-136 0 -212 75t-76 208z" />
<glyph horiz-adv-x="1884" d="M27 123l135 258q63 -41 146.5 -75t125.5 -34q41 0 41 31q0 24 -39 44q-16 8 -60 26q-18 8 -28 12q-48 20 -87.5 42t-82 55.5t-71.5 71.5t-47.5 91t-18.5 113q0 67 22 127t64.5 108t113 76.5t160.5 28.5q78 0 189 -29q-17 59 -17 121q0 138 76 220.5t234 82.5h440v-524 q39 33 51 42.5t44.5 32.5t52.5 30.5t51.5 15.5t64.5 8q107 0 167.5 -83.5t60.5 -242.5v-772h-373v690q0 86 -37 86q-46 0 -82 -92v-684h-373v1319h-78q-64 0 -106.5 -43.5t-42.5 -126.5q0 -77 33 -141l61 -33l-133 -246q-55 28 -120.5 51t-100.5 23q-47 0 -47 -35 q0 -5 1.5 -9.5t4.5 -8.5t7 -7.5t11.5 -7.5t14 -7t18 -8t21.5 -9t26.5 -10.5t30.5 -12.5q43 -18 77 -35.5t78.5 -50.5t74 -70.5t50.5 -93.5t21 -121q0 -68 -22 -128t-65.5 -108t-116 -76t-165.5 -28q-122 0 -250.5 44t-205.5 102z" />
<glyph horiz-adv-x="1867" d="M27 123l135 258q63 -41 146.5 -75t125.5 -34q41 0 41 31q0 24 -39 44q-16 8 -60 26q-18 8 -28 12q-48 20 -87.5 42t-82 55.5t-71.5 71.5t-47.5 91t-18.5 113q0 67 22 127t64.5 108t113 76.5t160.5 28.5q78 0 189 -29q-17 59 -17 121q0 138 76 220.5t234 82.5h440v-655 l100 237h422l-266 -420l305 -655h-389l-131 315l-41 -65v-250h-373v1319h-78q-64 0 -106.5 -43.5t-42.5 -126.5q0 -77 33 -141l61 -33l-133 -246q-55 28 -120.5 51t-100.5 23q-47 0 -47 -35q0 -5 1.5 -9.5t4.5 -8.5t7 -7.5t11.5 -7.5t14 -7t18 -8t21.5 -9t26.5 -10.5 t30.5 -12.5q43 -18 77 -35.5t78.5 -50.5t74 -70.5t50.5 -93.5t21 -121q0 -68 -22 -128t-65.5 -108t-116 -76t-165.5 -28q-122 0 -250.5 44t-205.5 102z" />
<glyph horiz-adv-x="1396" d="M27 123l135 258q63 -41 146.5 -75t125.5 -34q41 0 41 31q0 24 -39 44q-16 8 -60 26q-18 8 -28 12q-48 20 -87.5 42t-82 55.5t-71.5 71.5t-47.5 91t-18.5 113q0 67 22 127t64.5 108t113 76.5t160.5 28.5q78 0 189 -29q-17 59 -17 121q0 138 76 220.5t234 82.5h440v-1493 h-373v1319h-78q-64 0 -106.5 -43.5t-42.5 -126.5q0 -77 33 -141l61 -33l-133 -246q-55 28 -120.5 51t-100.5 23q-47 0 -47 -35q0 -5 1.5 -9.5t4.5 -8.5t7 -7.5t11.5 -7.5t14 -7t18 -8t21.5 -9t26.5 -10.5t30.5 -12.5q43 -18 77 -35.5t78.5 -50.5t74 -70.5t50.5 -93.5 t21 -121q0 -68 -22 -128t-65.5 -108t-116 -76t-165.5 -28q-122 0 -250.5 44t-205.5 102z" />
<glyph horiz-adv-x="954" d="M2 1176h389l86 -285l86 285h389l-297 -703v-473h-354v467zM135 1544h375l180 -297h-299z" />
<glyph horiz-adv-x="987" d="M49 596q0 292 106.5 445t299.5 153q110 0 216 -32.5t240 -92.5l-145 -297q-177 64 -250 64q-33 0 -54 -18t-32 -57.5t-14.5 -86.5t-3.5 -119q0 -32 1 -54t3.5 -52.5t9 -51.5t16.5 -40.5t27 -29.5t39 -10q48 0 78 54v39h-129v309h458v-719h-329v78q-86 -96 -187 -96 q-150 0 -250 159t-100 455z" />
<glyph horiz-adv-x="643" d="M86 788v861h526v-240h-272v-74h211v-235h-211v-312h-254z" />
<glyph horiz-adv-x="643" d="M86 -307v860h526v-240h-272v-73h211v-236h-211v-311h-254z" />
<glyph horiz-adv-x="854" d="M88 0v1176h733v-336h-379v-90h293v-326h-293v-424h-354z" />
<glyph horiz-adv-x="708" d="M33 1087v105h51v27v20h-51v107h57q20 157 91.5 237t187.5 80q75 0 143.5 -23t167.5 -71l-105 -213q-123 49 -163 49q-45 0 -58 -59h111v-107h-121v-20v-27h121v-105h-111q16 -55 58 -55q40 0 163 49l105 -213q-66 -32 -105.5 -48.5t-96.5 -31t-109 -14.5q-115 0 -186 79 t-91 234h-59z" />
<glyph horiz-adv-x="706" d="M33 -8v104h51v47h-51v107h57q20 157 91.5 237t187.5 80q75 0 143.5 -23t167.5 -71l-105 -213q-123 49 -163 49q-45 0 -58 -59h111v-107h-121v-47h121v-104h-111q16 -55 58 -55q40 0 163 49l105 -213q-67 -32 -106 -48.5t-96 -31.5t-109 -15q-115 0 -186 80t-91 234h-59z " />
<glyph horiz-adv-x="980" d="M41 401v158h70v49h-70v158h80q29 212 127.5 320t257.5 108q106 0 205 -31.5t231 -95.5l-147 -297q-163 66 -228 66q-55 0 -78 -70h152v-158h-168v-49h168v-158h-147q22 -61 73 -61q65 0 228 66l147 -297q-132 -64 -231 -95.5t-205 -31.5q-158 0 -256 105t-127 314h-82z " />
<glyph horiz-adv-x="389" d="M80 -33h233l11 -313l-185 -199l-57 88l100 150h-102v274zM80 37v274h233v-274h-233z" />
<glyph horiz-adv-x="389" d="M80 788v275h233l11 -313l-185 -199l-57 88l100 149h-102zM80 1133v274h233v-274h-233z" />
<glyph horiz-adv-x="671" d="M-6 553h280l62 -207l61 207h279l-213 -516v-344h-254v338z" />
<glyph horiz-adv-x="1550" d="M39 539q0 144 29.5 254t81.5 175t117.5 97.5t142.5 32.5q53 0 143 -23q-14 46 -14 103q0 139 96 227t268 88q189 0 298.5 -110t109.5 -306v-2h194v-303h-194v-340q0 -26 3 -44t7 -26.5t10.5 -13.5t10 -5.5t8.5 -0.5q8 0 15.5 1.5t16.5 5.5t14.5 6.5t18.5 9.5t19 10 l118 -299q-184 -99 -309 -99q-165 0 -235 102.5t-70 311.5v381h-98v303h98v25q0 113 -25 166t-86 53q-60 0 -99.5 -45t-39.5 -129q0 -71 31 -135q38 -17 67 -33l-145 -305q-71 41 -100 55t-52 14q-25 0 -40 -14.5t-22 -45.5t-9 -61.5t-2 -80.5t2 -81t8.5 -62.5t21.5 -46.5 t39 -15q19 0 46.5 11t47 22t60.5 36l145 -305q-226 -121 -376 -121q-77 0 -142.5 33t-117.5 99t-81.5 176.5t-29.5 253.5z" />
<glyph horiz-adv-x="565" d="M37 629v231h506v-219q-9 -13 -23.5 -36t-51.5 -95t-65.5 -144t-51.5 -173.5t-23 -192.5h-258q0 108 27.5 221.5t69 200.5t68 134.5t44.5 72.5h-242z" />
<glyph horiz-adv-x="565" d="M37 1202v232h506v-220q-9 -13 -23.5 -36t-51.5 -95t-65.5 -144t-51.5 -173.5t-23 -192.5h-258q0 108 27.5 221.5t69 200.5t68 134.5t44.5 72.5h-242z" />
<glyph horiz-adv-x="858" d="M39 817v359h799v-338q-14 -22 -37 -61.5t-82.5 -162.5t-105 -246.5t-82.5 -296.5t-37 -329h-398q0 152 32.5 315.5t75.5 284t96.5 234.5t83 164.5t46.5 76.5h-391z" />
<glyph horiz-adv-x="1323" d="M39 539q0 144 29.5 254t81.5 175t117.5 97.5t142.5 32.5q59 0 143 -25q-14 49 -14 117q0 138 73.5 220.5t227.5 82.5h409v-1493h-372v1319h-48q-61 0 -101 -43.5t-40 -126.5q0 -79 31 -139q38 -17 67 -33l-145 -305q-71 41 -100 55t-52 14q-25 0 -40 -14.5t-22 -45.5 t-9 -61.5t-2 -80.5t2 -81t8.5 -62.5t21.5 -46.5t39 -15q19 0 46.5 11t47 22t60.5 36l145 -305q-226 -121 -376 -121q-77 0 -142.5 33t-117.5 99t-81.5 176.5t-29.5 253.5z" />
<glyph horiz-adv-x="1794" d="M39 539q0 144 29.5 254t81.5 175t117.5 97.5t142.5 32.5q59 0 143 -25q-14 49 -14 117q0 138 73.5 220.5t227.5 82.5h409v-655l101 237h422l-267 -420l305 -655h-389l-131 315l-41 -65v-250h-372v1319h-48q-61 0 -101 -43.5t-40 -126.5q0 -79 31 -139q38 -17 67 -33 l-145 -305q-71 41 -100 55t-52 14q-25 0 -40 -14.5t-22 -45.5t-9 -61.5t-2 -80.5t2 -81t8.5 -62.5t21.5 -46.5t39 -15q19 0 46.5 11t47 22t60.5 36l145 -305q-226 -121 -376 -121q-77 0 -142.5 33t-117.5 99t-81.5 176.5t-29.5 253.5z" />
<glyph horiz-adv-x="1222" d="M43 995v181h428v-170q-8 -11 -20.5 -30.5t-45 -79.5t-57 -120.5t-45 -144.5t-20.5 -160h-205q0 74 18.5 154.5t41 137.5t54.5 116t44.5 78.5t25.5 37.5h-219zM250 0l395 1176h211l-395 -1176h-211zM674 188q0 120 119 197q-82 65 -82 154q0 76 58.5 127t162.5 51 t162.5 -51t58.5 -127q0 -89 -82 -154q119 -77 119 -197q0 -88 -66 -144t-192 -56t-192 56t-66 144zM872 205q0 -24 15.5 -38.5t44.5 -14.5q28 0 43.5 14.5t15.5 38.5q0 50 -59 96q-60 -44 -60 -96zM889 526q0 -41 41 -67q43 25 43 67q0 12 -10 22.5t-31 10.5 q-22 0 -32.5 -10.5t-10.5 -22.5z" />
<glyph horiz-adv-x="1810" d="M39 539q0 144 29.5 254t81.5 175t117.5 97.5t142.5 32.5q59 0 143 -25q-14 49 -14 117q0 138 73.5 220.5t227.5 82.5h409v-524q39 33 51 42.5t44.5 32.5t52.5 30.5t51.5 15.5t64.5 8q107 0 167.5 -83.5t60.5 -242.5v-772h-373v690q0 86 -37 86q-46 0 -82 -92v-684h-372 v1319h-48q-61 0 -101 -43.5t-40 -126.5q0 -79 31 -139q38 -17 67 -33l-145 -305q-71 41 -100 55t-52 14q-25 0 -40 -14.5t-22 -45.5t-9 -61.5t-2 -80.5t2 -81t8.5 -62.5t21.5 -46.5t39 -15q19 0 46.5 11t47 22t60.5 36l145 -305q-226 -121 -376 -121q-77 0 -142.5 33 t-117.5 99t-81.5 176.5t-29.5 253.5z" />
<glyph horiz-adv-x="675" d="M-4 1649h280l62 -207l61 207h279l-213 -516v-345h-254v338z" />
<glyph horiz-adv-x="581" d="M29 -231l88 170q36 -22 89 -43t83 -21q18 0 18 12q0 6 -6.5 9.5t-30.5 12.5q-7 3 -11.5 4.5t-12.5 4.5t-15 6q-41 17 -68 31.5t-59.5 40t-49.5 62t-17 83.5q0 87 59 149t172 62q68 0 140.5 -23t123.5 -53l-86 -157q-92 43 -139 43q-22 0 -22 -10q0 -4 3.5 -7.5t12 -7 t17 -6.5t23.5 -8.5t26 -9.5q188 -71 188 -222q0 -90 -59.5 -151.5t-176.5 -61.5q-78 0 -159.5 27.5t-130.5 63.5z" />
<glyph horiz-adv-x="1044" d="M23 438v301h88v437h342q281 0 412.5 -138.5t131.5 -449.5t-131.5 -449.5t-412.5 -138.5h-342v438h-88zM465 336h6q32 0 54.5 4t47.5 19t39.5 41.5t24.5 73.5t10 114t-10 114t-24.5 73.5t-39.5 41.5t-47.5 19t-54.5 4h-6v-101h117v-301h-117v-102z" />
<glyph horiz-adv-x="671" d="M43 377q0 137 51.5 249t153.5 180t237 68q31 0 59.5 -3.5t41.5 -6.5l12 -4l-57 -219q-27 6 -54 6q-48 0 -91.5 -28t-69.5 -89q45 31 98 31q91 0 152 -71.5t61 -192.5q0 -139 -76.5 -225t-214.5 -86q-153 0 -228 106.5t-75 284.5zM297 332q1 -40 5.5 -65.5t12.5 -36 t15 -14t18 -3.5q37 0 37 68q0 75 -43 75q-31 0 -45 -24z" />
<glyph horiz-adv-x="671" d="M43 950q0 137 51.5 249.5t153.5 180.5t237 68q31 0 59.5 -3.5t41.5 -6.5l12 -4l-57 -220q-27 7 -54 7q-48 0 -91.5 -28t-69.5 -89q45 31 98 31q91 0 152 -72t61 -193q0 -139 -76.5 -225t-214.5 -86q-153 0 -228 106.5t-75 284.5zM297 905q1 -40 5.5 -65.5t12.5 -36 t15 -14t18 -3.5q37 0 37 68q0 76 -43 76q-31 0 -45 -25z" />
<glyph horiz-adv-x="1024" d="M53 623q0 140 30.5 266.5t90 229.5t142.5 178.5t194.5 117t239.5 41.5q48 0 92.5 -5.5t65.5 -10.5l20 -6l-90 -338q-41 10 -84 10q-85 0 -159 -57.5t-114 -182.5q70 66 170 66q143 0 239.5 -120.5t96.5 -319.5q0 -150 -51.5 -265t-156 -182.5t-249.5 -67.5 q-98 0 -177.5 32t-135 89t-92.5 138t-54.5 178t-17.5 209zM444 557q2 -229 88 -229q68 0 68 139q0 147 -76 147q-51 0 -80 -57z" />
<glyph horiz-adv-x="434" d="M98 -207v694h240v-694h-240zM98 680v694h240v-694h-240z" />
<glyph horiz-adv-x="907" d="M51 0v293l361 547h-334v336h762v-291l-357 -549h365v-336h-797z" />
<glyph horiz-adv-x="456" d="M35 612v150h86v907h-86v150h340v-1207h-340z" />
<glyph horiz-adv-x="667" d="M86 788v861h526v-240h-272v-72h217v-235h-217v-74h276v-240h-530z" />
<glyph horiz-adv-x="684" d="M20 -152l390 1479h243l-389 -1479h-244z" />
<glyph horiz-adv-x="886" d="M88 0v1176h733v-336h-379v-88h301v-326h-301v-90h385v-336h-6q-119 -105 -119 -188q0 -18 6.5 -31.5t15 -19.5t22 -9t22 -3t20.5 1h11l-29 -170q-1 0 -17.5 -0.5t-27.5 -0.5t-33 2t-38.5 5t-39 10t-39 16.5t-34.5 24.5t-29 33.5t-18 45t-7 57.5q0 130 134 227h-533z" />
<glyph horiz-adv-x="227" />
<glyph horiz-adv-x="227" />
<glyph horiz-adv-x="456" d="M35 -334h86v907h-86v150h340v-1206h-340v149z" />
<glyph horiz-adv-x="1054" d="M88 0v1176h356l170 -482v482h355v-1029q0 -67 -0.5 -98t-5.5 -80t-14 -71.5t-27.5 -58.5t-45 -55.5t-67 -46.5t-94 -49.5t-125.5 -47.5l-115 288q101 45 129 84l-162 469v-481h-354z" />
<glyph horiz-adv-x="839" d="M63 0v262q5 0 12.5 1.5t29 9.5t38.5 21t34.5 40t23.5 63h-125v211h90q-4 10 -16.5 40.5t-18 44.5t-15.5 43t-14 50t-8 50.5t-4 58.5q0 142 76.5 220.5t222.5 78.5q194 0 404 -174l-164 -234q-94 80 -154 80q-18 0 -23.5 -7t-5.5 -23q0 -37 31.5 -111t42.5 -117h182v-211 h-174q-10 -32 -39 -69h291v-328h-717z" />
<glyph horiz-adv-x="622" d="M59 -119q3 0 9 1.5t21 8t27.5 16.5t25 30.5t16.5 46.5h-90v153h65q-1 3 -8 19.5t-9 21t-8 20t-8 22.5t-7 22t-6.5 25t-4 24.5t-3.5 28t-1 28.5q0 104 55 161.5t160 57.5q138 0 291 -127l-119 -168q-67 60 -111 60q-20 0 -20 -25q0 -28 22.5 -82t30.5 -88h131v-153h-125 q-5 -24 -26 -56h206v-235h-514v188z" />
<glyph horiz-adv-x="622" d="M59 788v189q3 0 9 1.5t21 7.5t27.5 16t25 30.5t16.5 46.5h-90v154h65q-1 3 -8 19.5t-9 21t-8 20t-8 22.5t-7 22t-6.5 25t-4 24.5t-3.5 28t-1 28.5q0 104 55 161.5t160 57.5q138 0 291 -127l-119 -168q-66 59 -111 59q-20 0 -20 -24q0 -28 22.5 -82t30.5 -88h131v-154 h-125q-5 -23 -26 -55h206v-236h-514z" />
<glyph horiz-adv-x="618" d="M51 -33h117v1235h-117v207h471v-1649h-471v207z" />
<glyph horiz-adv-x="886" d="M88 0v1176h733v-336h-379v-88h301v-326h-301v-90h385v-336h-739zM221 1298v234h473v-234h-473z" />
<glyph horiz-adv-x="667" d="M86 -307v860h526v-240h-272v-71h217v-236h-217v-74h276v-239h-530z" />
<glyph horiz-adv-x="886" d="M88 0v1176h733v-336h-379v-88h301v-326h-301v-90h385v-336h-739zM111 1544h374l181 -297h-299z" />
<glyph horiz-adv-x="886" d="M88 0v1176h733v-336h-379v-88h301v-326h-301v-90h385v-336h-739zM330 1268v280h254v-280h-254z" />
<glyph horiz-adv-x="886" d="M88 0v1176h733v-336h-379v-88h301v-326h-301v-90h385v-336h-739zM180 1268v280h254v-280h-254zM483 1268v280h254v-280h-254z" />
<glyph horiz-adv-x="886" d="M88 0v1176h733v-336h-379v-88h301v-326h-301v-90h385v-336h-739zM131 1247l166 297h319l166 -297h-243l-82 129l-82 -129h-244z" />
<glyph horiz-adv-x="657" d="M18 117l117 184q115 -78 170 -78q23 0 38 13t15 32q0 62 -135 62h-24v227h30q105 0 105 49q0 5 -1.5 11t-11 14t-26.5 8q-48 0 -141 -66l-109 168q153 133 305 133q111 0 173.5 -62.5t62.5 -154.5q0 -36 -8 -65.5t-26.5 -53t-28 -34t-31.5 -29.5q55 -32 86.5 -88 t31.5 -131q0 -49 -14 -94.5t-43 -86t-82.5 -65t-124.5 -24.5q-169 0 -328 131z" />
<glyph horiz-adv-x="657" d="M18 690l117 184q113 -77 170 -77q23 0 38 13t15 32q0 61 -135 61h-24v227h30q105 0 105 50q0 5 -1.5 10.5t-11 13.5t-26.5 8q-49 0 -141 -65l-109 168q153 133 305 133q111 0 173.5 -62.5t62.5 -154.5q0 -36 -8 -65.5t-26.5 -53t-28 -34t-31.5 -29.5q55 -31 86.5 -88 t31.5 -132q0 -49 -14 -94.5t-43 -86t-82.5 -65t-124.5 -24.5q-169 0 -328 131z" />
<glyph horiz-adv-x="987" d="M10 -78l180 285q187 -125 271 -125q40 0 66 27.5t26 70.5q0 40 -23.5 67.5t-62.5 39.5t-70 16t-63 4h-39v350h47q21 0 46 4t55.5 14t50.5 33t20 54q0 13 -3.5 26.5t-20 28t-44.5 14.5q-80 0 -225 -108l-168 260q242 211 477 211q176 0 273.5 -102t97.5 -254 q0 -47 -10.5 -90t-24.5 -73t-37 -61t-39 -47.5t-40 -38.5q89 -49 140.5 -144t51.5 -224q0 -82 -22.5 -157t-69.5 -141.5t-131.5 -106.5t-196.5 -40q-259 0 -512 207z" />
<glyph horiz-adv-x="911" d="M53 0v293l361 547h-334v336h762v-291l-357 -549h365v-336h-797zM256 1247l180 297h375l-254 -297h-301z" />
<glyph horiz-adv-x="456" d="M82 612v1207h340v-150h-86v-907h86v-150h-340z" />
<glyph horiz-adv-x="1355" d="M37 563l92 144q97 -64 147 -64q25 0 42.5 13t17.5 32q0 60 -127 60h-21v176h25q14 0 28.5 1.5t32 6t28.5 15t11 24.5q0 10 -10 21.5t-33 11.5q-43 0 -125 -54l-86 131q128 107 254 107q93 0 146 -51t53 -125q0 -56 -24.5 -90.5t-63.5 -61.5q108 -54 108 -182 q0 -40 -12 -77t-37 -69.5t-70.5 -52.5t-105.5 -20q-59 0 -119.5 21t-93 41.5t-57.5 41.5zM385 0l393 1176h211l-395 -1176h-209zM805 188q0 120 119 197q-82 65 -82 154q0 76 58.5 127t162.5 51t162.5 -51t58.5 -127q0 -89 -82 -154q119 -77 119 -197q0 -88 -66 -144 t-192 -56q-125 0 -191.5 56t-66.5 144zM1004 205q0 -24 15.5 -38.5t43.5 -14.5q30 0 45.5 14.5t15.5 38.5q0 51 -61 96q-59 -43 -59 -96zM1020 526q0 -42 43 -67q43 28 43 67q0 12 -10.5 22.5t-32.5 10.5t-32.5 -10.5t-10.5 -22.5z" />
<glyph horiz-adv-x="1361" d="M37 563l92 144q97 -64 147 -64q25 0 42.5 13t17.5 32q0 60 -127 60h-21v176h25q14 0 28.5 1.5t32 6t28.5 15t11 24.5q0 10 -10 21.5t-33 11.5q-43 0 -125 -54l-86 131q128 107 254 107q93 0 146 -51t53 -125q0 -56 -24.5 -90.5t-63.5 -61.5q108 -54 108 -182 q0 -40 -12 -77t-37 -69.5t-70.5 -52.5t-105.5 -20q-59 0 -119.5 21t-93 41.5t-57.5 41.5zM385 0l393 1176h211l-395 -1176h-209zM825 94l97 150q80 -68 131 -68q30 0 47.5 16.5t17.5 43.5q0 25 -15.5 45t-51.5 20q-39 0 -82 -35l-109 68l29 371h409v-181h-237l-2 -53 q32 4 47 4q72 0 121 -34.5t69.5 -85.5t20.5 -115q0 -108 -59 -180t-175 -72q-133 0 -258 106z" />
<glyph horiz-adv-x="456" d="M82 -483v1206h340v-150h-86v-907h86v-149h-340z" />
<glyph horiz-adv-x="886" d="M88 0v1176h733v-336h-379v-88h301v-326h-301v-90h385v-336h-739zM131 1544h244l82 -129l82 129h243l-166 -297h-319z" />
<glyph horiz-adv-x="1353" d="M35 563l92 144q97 -64 147 -64q25 0 42.5 13t17.5 32q0 60 -127 60h-21v176h25q14 0 28.5 1.5t32 6t28.5 15t11 24.5q0 10 -10 21.5t-33 11.5q-43 0 -125 -54l-86 131q128 107 254 107q93 0 146 -51t53 -125q0 -56 -24.5 -90.5t-63.5 -61.5q108 -54 108 -182 q0 -40 -12 -77t-37 -69.5t-70.5 -52.5t-105.5 -20q-59 0 -119.5 21t-93 41.5t-57.5 41.5zM383 0l393 1176h211l-395 -1176h-209zM748 115v149l221 441h264v-410h80v-180h-80v-115h-199v115h-286zM926 295h108v217z" />
<glyph horiz-adv-x="886" d="M88 0v1176h733v-336h-379v-88h301v-326h-301v-90h385v-336h-739zM250 1247l180 297h375l-254 -297h-301z" />
<glyph horiz-adv-x="618" d="M96 -240v1649h471v-207h-116v-1235h116v-207h-471z" />
<glyph horiz-adv-x="503" d="M29 139v199h61v135l244 51v-186h123v-199h-123v-168q0 -19 2.5 -31t7 -16t7 -5t7.5 -1t11 1.5t10.5 4t13.5 6.5t15 7l77 -197q-113 -62 -198 -62q-106 0 -151.5 66.5t-45.5 198.5v196h-61z" />
<glyph horiz-adv-x="911" d="M53 0v293l361 547h-334v336h762v-291l-357 -549h365v-336h-797zM135 1544h244l82 -129l82 129h243l-165 -297h-320z" />
<glyph horiz-adv-x="442" d="M45 612v144h16q39 0 29 133l-6 80q-7 117 35.5 173.5t136.5 74.5q-95 18 -138 73.5t-34 171.5l6 78q10 133 -29 133h-16v146h16q64 0 116 -16t93.5 -49t61 -92t12.5 -138l-10 -115q-2 -31 -1 -58t21.5 -46t61.5 -19v-143q-41 0 -61.5 -18.5t-21.5 -45.5t1 -59l10 -113 q7 -79 -12.5 -138t-61 -92t-93.5 -49t-116 -16h-16z" />
<glyph horiz-adv-x="886" d="M88 0v1176h733v-336h-379v-88h301v-326h-301v-90h385v-336h-739z" />
<glyph horiz-adv-x="663" d="M37 0v106q0 179 180 345q14 13 39 35t39 35t30 30t23.5 31.5t7.5 27.5q0 12 -9 21.5t-28 9.5q-45 0 -147 -76l-119 172q144 137 305 137q65 0 115 -22.5t79 -60t43.5 -80.5t14.5 -88q0 -150 -159 -293q-12 -11 -32 -28.5t-29.5 -26t-21 -19.5t-16 -16.5t-4.5 -8.5h262 v-231h-573z" />
<glyph horiz-adv-x="663" d="M37 573v107q0 178 180 344q13 12 38.5 34.5t39.5 35.5t30 30t23.5 32t7.5 28q0 12 -9 21t-28 9q-46 0 -147 -75l-119 172q144 137 305 137q64 0 114.5 -23t79.5 -60.5t43.5 -80.5t14.5 -88q0 -150 -159 -293q-13 -12 -32 -28.5t-29.5 -25.5t-21.5 -19.5t-15.5 -16 t-4.5 -8.5h262v-232h-573z" />
<glyph horiz-adv-x="974" d="M45 0v164q0 71 18.5 132.5t55 114t78 94t100.5 89.5q27 21 69.5 53t66.5 51t50 42t37.5 41.5t11.5 35.5q0 35 -38 35q-70 0 -242 -143l-184 268q34 32 72.5 62t102 69t143.5 62.5t163 23.5q170 0 264 -96t94 -248q0 -73 -24 -140t-59 -115t-89 -96t-98 -79t-101 -68 q-7 -4 -10 -6h383v-346h-864z" />
<glyph horiz-adv-x="442" d="M45 -340h16q39 0 29 133l-6 80q-7 117 35.5 173.5t136.5 74.5q-95 18 -138 74t-34 172l6 77q11 134 -29 134h-16v145h16q64 0 116 -16t93.5 -49t61 -92t12.5 -138l-10 -115q-2 -31 -1 -58t21.5 -46t61.5 -19v-143q-41 0 -61.5 -18.5t-21.5 -45.5t1 -59l10 -112 q7 -79 -12.5 -138t-61 -92t-93.5 -49t-116 -16h-16v143z" />
<glyph horiz-adv-x="1398" d="M41 471v84q0 151 158 283q9 8 34 29t35.5 30.5t26 25.5t21.5 28t6 24t-11.5 21.5t-31.5 9.5q-40 0 -129 -62l-95 133q118 111 254 111q102 0 156.5 -62t54.5 -143q0 -129 -143 -244l-1 -1l-1 -1h-1l-1 -1l-1 -1l-2 -1q-78 -64 -84 -79l-1 -4h235v-180h-479zM426 0 l393 1176h211l-395 -1176h-209zM866 94l97 150q80 -68 131 -68q30 0 47.5 16.5t17.5 43.5q0 25 -15.5 45t-51.5 20q-39 0 -82 -35l-109 68l29 371h409v-181h-237l-2 -53q32 4 47 4q72 0 121 -34.5t69.5 -85.5t20.5 -115q0 -108 -59 -180t-175 -72q-133 0 -258 106z" />
<glyph horiz-adv-x="612" d="M59 -39h23q17 0 27.5 17t13 48.5t2.5 56t-2 60.5l-8 103q-12 161 47 238.5t188 101.5q-130 25 -188.5 101.5t-46.5 236.5l8 104q10 182 -41 182h-23v199h23q70 0 130 -12.5t113.5 -42.5t89 -75t52 -115t8.5 -158l-14 -156q-5 -30 -3 -59.5t10 -53.5t35 -38.5t72 -14.5 v-199q-45 0 -71.5 -14.5t-34 -38.5t-9.5 -53.5t3 -59.5l12 -155q7 -88 -10 -157.5t-52.5 -115t-88 -75.5t-112.5 -43t-130 -13h-23v201z" />
<glyph horiz-adv-x="768" d="M86 788v861h246q201 0 296 -101.5t95 -328.5t-95 -329t-296 -102h-246zM340 1028h6q28 0 48 6.5t39 25t28.5 58.5t9.5 101t-9.5 101t-28.5 58.5t-39 24.5t-48 6h-6v-381z" />
<glyph horiz-adv-x="911" d="M53 0v293l361 547h-334v336h762v-291l-357 -549h365v-336h-797zM334 1268v280h254v-280h-254z" />
<glyph horiz-adv-x="1394" d="M45 471v84q0 151 158 283q9 8 34 29t35.5 30.5t26 25.5t21.5 28t6 24t-11.5 21.5t-31.5 9.5q-40 0 -129 -62l-95 133q118 111 254 111q102 0 156.5 -62t54.5 -143q0 -129 -143 -244l-1 -1l-1 -1h-1l-1 -1l-1 -1l-2 -1q-78 -64 -84 -79l-1 -4h235v-180h-479zM430 0 l393 1176h211l-395 -1176h-209zM858 92l92 144q97 -62 148 -62q25 0 42 12.5t17 32.5q0 57 -127 57h-20v179h26q99 0 99 47q0 5 -2.5 11t-13 12.5t-27.5 6.5q-53 0 -123 -53l-86 131q121 107 252 107q93 0 145.5 -51t52.5 -125q0 -38 -15.5 -70t-31.5 -47.5t-41 -34.5 q51 -26 81 -72.5t30 -107.5q0 -87 -56 -154t-170 -67q-132 0 -272 104z" />
<glyph horiz-adv-x="768" d="M86 -307v860h246q201 0 296 -101.5t95 -328.5t-95 -328.5t-296 -101.5h-246zM340 -68h6q28 0 48 6.5t39 25t28.5 58.5t9.5 101t-9.5 101t-28.5 58.5t-39 24.5t-48 6h-6v-381z" />
<glyph horiz-adv-x="442" d="M27 1145v143q41 0 61.5 18.5t21.5 45.5t-1 59l-11 113q-7 79 12.5 138t61 92t93.5 49t116 16h16v-144h-16q-39 0 -29 -133l6 -80q7 -117 -35.5 -173.5t-136.5 -74.5q95 -18 138 -73.5t34 -171.5l-6 -78q-10 -133 29 -133h16v-146h-16q-64 0 -116 16t-93.5 49t-61 92 t-12.5 138l11 115q2 31 1 58t-21.5 46t-61.5 19z" />
</font>
</defs>
</svg>
