<?xml version="1.0" standalone="no"?>
<!DOCTYPE svg PUBLIC "-//W3C//DTD SVG 1.1//EN" "http://www.w3.org/Graphics/SVG/1.1/DTD/svg11.dtd" >
<svg xmlns="http://www.w3.org/2000/svg">
<metadata></metadata>
<defs>
<font id="verbexcondblack_italic" horiz-adv-x="1116" >
<font-face units-per-em="2048" ascent="1638" descent="-410" />
<missing-glyph horiz-adv-x="415" />
<glyph unicode="ff" horiz-adv-x="1462" d="M-186 -201q54 20 87.5 35t60 35t40 34.5t25.5 46t17.5 56t14.5 76.5l127 719h-116l49 274h114q37 212 119.5 315t235.5 103q163 0 364 -119l-151 -223q-98 35 -133 35q-12 0 -24 -5t-27 -25.5t-21 -55.5l-4 -25h203l-52 -274h-200l-119 -688q-15 -83 -22.5 -121.5 t-23 -99t-31 -88t-44 -69.5t-63 -64t-86 -51.5t-116.5 -51.5t-151 -45zM545 -201q54 20 87.5 35t60.5 35t40.5 34.5t25.5 45.5t17.5 56t14.5 77l127 719h-117l49 274h115q37 212 119 315t235 103q163 0 364 -119l-161 -223q-93 35 -123 35q-12 0 -24 -5t-27 -25.5t-21 -55.5 l-4 -25h203l-51 -274h-201l-119 -688q-15 -83 -22.5 -121.5t-23 -99t-31 -88t-44 -69.5t-63 -64t-86 -51.5t-116.5 -51.5t-151 -45z" />
<glyph unicode="fi" horiz-adv-x="1267" d="M-186 -201q54 20 87.5 35t60 35t40 34.5t25.5 46t17.5 56t14.5 76.5l127 719h-116l49 274h114q37 212 118 315t233 103q128 0 301 -96l-125 -238q-65 27 -92 27q-12 0 -23.5 -5t-26 -25.5t-20.5 -55.5l-4 -25h201l-52 -274h-198l-121 -688q-15 -83 -22.5 -121.5t-23 -99 t-31 -88t-44 -69.5t-63 -64t-86 -51.5t-116.5 -51.5t-151 -45zM713 0l188 1075h361l-191 -1075h-358zM915 1192l54 295h370l-51 -295h-373z" />
<glyph unicode="fl" horiz-adv-x="1269" d="M-186 -201q54 20 87.5 35t60 35t40 34.5t25.5 46t17.5 56t14.5 76.5l127 719h-116l49 274h114q37 212 118 315t233 103q128 0 301 -96l-125 -238q-65 27 -92 27q-12 0 -23.5 -5t-26 -25.5t-20.5 -55.5l-4 -25h201l-52 -274h-198l-121 -688q-15 -83 -22.5 -121.5t-23 -99 t-31 -88t-44 -69.5t-63 -64t-86 -51.5t-116.5 -51.5t-151 -45zM713 0l262 1493h360l-262 -1493h-360z" />
<glyph unicode="ffi" horiz-adv-x="1998" d="M-186 -201q54 20 87.5 35t60 35t40 34.5t25.5 46t17.5 56t14.5 76.5l127 719h-116l49 274h114q37 212 119.5 315t235.5 103q163 0 364 -119l-151 -223q-98 35 -133 35q-12 0 -24 -5t-27 -25.5t-21 -55.5l-4 -25h203l-52 -274h-200l-119 -688q-15 -83 -22.5 -121.5 t-23 -99t-31 -88t-44 -69.5t-63 -64t-86 -51.5t-116.5 -51.5t-151 -45zM545 -201q54 20 87.5 35t60.5 35t40.5 34.5t25.5 45.5t17.5 56t14.5 77l127 719h-117l49 274h115q37 213 117.5 315.5t232.5 102.5q128 0 301 -96l-125 -238q-65 27 -92 27q-12 0 -23.5 -5t-26 -25.5 t-20.5 -55.5l-4 -25h201l-51 -274h-199l-121 -688q-15 -83 -22.5 -121.5t-23 -99t-31 -88t-44 -69.5t-63 -64t-86 -51.5t-116.5 -51.5t-151 -45zM1442 0l188 1075h361l-191 -1075h-358zM1645 1192l53 295h370l-51 -295h-372z" />
<glyph unicode="ffl" horiz-adv-x="1998" d="M-186 -201q54 20 87.5 35t60 35t40 34.5t25.5 46t17.5 56t14.5 76.5l127 719h-116l49 274h114q37 212 119.5 315t235.5 103q163 0 364 -119l-151 -223q-98 35 -133 35q-12 0 -24 -5t-27 -25.5t-21 -55.5l-4 -25h203l-52 -274h-200l-119 -688q-15 -83 -22.5 -121.5 t-23 -99t-31 -88t-44 -69.5t-63 -64t-86 -51.5t-116.5 -51.5t-151 -45zM545 -201q54 20 87.5 35t60.5 35t40.5 34.5t25.5 45.5t17.5 56t14.5 77l127 719h-117l49 274h115q37 213 117.5 315.5t232.5 102.5q128 0 301 -96l-125 -238q-65 27 -92 27q-12 0 -23.5 -5t-26 -25.5 t-20.5 -55.5l-4 -25h201l-51 -274h-199l-121 -688q-15 -83 -22.5 -121.5t-23 -99t-31 -88t-44 -69.5t-63 -64t-86 -51.5t-116.5 -51.5t-151 -45zM1444 0l262 1493h360l-262 -1493h-360z" />
<glyph unicode="ffb" horiz-adv-x="2584" d="M-186 -201q54 20 87.5 35t60 35t40 34.5t25.5 46t17.5 56t14.5 76.5l127 719h-116l49 274h114q37 212 119.5 315t235.5 103q163 0 364 -119l-151 -223q-98 35 -133 35q-12 0 -24 -5t-27 -25.5t-21 -55.5l-4 -25h203l-52 -274h-200l-119 -688q-15 -83 -22.5 -121.5 t-23 -99t-31 -88t-44 -69.5t-63 -64t-86 -51.5t-116.5 -51.5t-151 -45zM545 -201q54 20 87.5 35t60.5 35t40.5 34.5t25.5 45.5t17.5 56t14.5 77l127 719h-117l49 274h115q37 213 117.5 315.5t232.5 102.5q128 0 301 -96l-125 -238q-65 27 -92 27q-12 0 -23.5 -5t-26 -25.5 t-20.5 -55.5l-4 -25h201l-51 -274h-199l-121 -688q-15 -83 -22.5 -121.5t-23 -99t-31 -88t-44 -69.5t-63 -64t-86 -51.5t-116.5 -51.5t-151 -45zM1442 0l262 1493h360l-92 -522q150 127 291 127q128 0 200 -98t72 -271q0 -131 -29.5 -261t-84.5 -241t-145 -180.5t-199 -69.5 q-85 0 -142 33t-114 92l-19 -102h-360zM1868 379q50 -100 125 -100q53 0 94.5 66.5t60.5 153t19 167.5q0 59 -19.5 95t-60.5 36q-74 0 -164 -111z" />
<glyph unicode="ffh" horiz-adv-x="2576" d="M-186 -201q54 20 87.5 35t60 35t40 34.5t25.5 46t17.5 56t14.5 76.5l127 719h-116l49 274h114q37 212 119.5 315t235.5 103q163 0 364 -119l-151 -223q-98 35 -133 35q-12 0 -24 -5t-27 -25.5t-21 -55.5l-4 -25h203l-52 -274h-200l-119 -688q-15 -83 -22.5 -121.5 t-23 -99t-31 -88t-44 -69.5t-63 -64t-86 -51.5t-116.5 -51.5t-151 -45zM545 -201q54 20 87.5 35t60.5 35t40.5 34.5t25.5 45.5t17.5 56t14.5 77l127 719h-117l49 274h115q37 213 117.5 315.5t232.5 102.5q128 0 301 -96l-125 -238q-65 27 -92 27q-12 0 -23.5 -5t-26 -25.5 t-20.5 -55.5l-4 -25h201l-51 -274h-199l-121 -688q-15 -83 -22.5 -121.5t-23 -99t-31 -88t-44 -69.5t-63 -64t-86 -51.5t-116.5 -51.5t-151 -45zM1442 0l262 1493h360l-92 -526q83 62 158 96.5t158 34.5q143 0 202.5 -94.5t26.5 -276.5l-127 -727h-360l116 666 q14 58 5.5 99.5t-50.5 41.5q-38 0 -86.5 -31t-89.5 -76l-123 -700h-360z" />
<glyph unicode="fb" horiz-adv-x="1853" d="M-186 -201q54 20 87.5 35t60 35t40 34.5t25.5 46t17.5 56t14.5 76.5l127 719h-116l49 274h114q37 212 118 315t233 103q128 0 301 -96l-125 -238q-65 27 -92 27q-12 0 -23.5 -5t-26 -25.5t-20.5 -55.5l-4 -25h201l-52 -274h-198l-121 -688q-15 -83 -22.5 -121.5t-23 -99 t-31 -88t-44 -69.5t-63 -64t-86 -51.5t-116.5 -51.5t-151 -45zM711 0l262 1493h360l-92 -522q150 127 291 127q128 0 200 -98t72 -271q0 -131 -29.5 -261t-84.5 -241t-145 -180.5t-199 -69.5q-85 0 -142 33t-114 92l-19 -102h-360zM1137 379q50 -100 125 -100 q53 0 94.5 66.5t60.5 153t19 167.5q0 59 -19.5 95t-60.5 36q-74 0 -164 -111z" />
<glyph unicode="ffj" horiz-adv-x="2023" d="M-186 -201q54 20 87.5 35t60 35t40 34.5t25.5 46t17.5 56t14.5 76.5l127 719h-116l49 274h114q37 212 119.5 315t235.5 103q163 0 364 -119l-151 -223q-98 35 -133 35q-12 0 -24 -5t-27 -25.5t-21 -55.5l-4 -25h203l-52 -274h-200l-119 -688q-15 -83 -22.5 -121.5 t-23 -99t-31 -88t-44 -69.5t-63 -64t-86 -51.5t-116.5 -51.5t-151 -45zM545 -201q54 20 87.5 35t60.5 35t40.5 34.5t25.5 45.5t17.5 56t14.5 77l127 719h-117l49 274h115q37 213 117.5 315.5t232.5 102.5q128 0 301 -96l-125 -238q-65 27 -92 27q-12 0 -23.5 -5t-26 -25.5 t-20.5 -55.5l-4 -25h201l-51 -274h-199l-121 -688q-15 -83 -22.5 -121.5t-23 -99t-31 -88t-44 -69.5t-63 -64t-86 -51.5t-116.5 -51.5t-151 -45zM1210 -195q80 31 121 50.5t67 47.5t34 54t18 82l182 1036h359l-176 -1003q-32 -180 -58 -247q-46 -117 -151 -184 q-109 -68 -324 -118zM1647 1192l51 295h373l-54 -295h-370z" />
<glyph unicode="ffk" horiz-adv-x="2525" d="M-186 -201q54 20 87.5 35t60 35t40 34.5t25.5 46t17.5 56t14.5 76.5l127 719h-116l49 274h114q37 212 119.5 315t235.5 103q163 0 364 -119l-151 -223q-98 35 -133 35q-12 0 -24 -5t-27 -25.5t-21 -55.5l-4 -25h203l-52 -274h-200l-119 -688q-15 -83 -22.5 -121.5 t-23 -99t-31 -88t-44 -69.5t-63 -64t-86 -51.5t-116.5 -51.5t-151 -45zM545 -201q54 20 87.5 35t60.5 35t40.5 34.5t25.5 45.5t17.5 56t14.5 77l127 719h-117l49 274h115q37 213 117.5 315.5t232.5 102.5q128 0 301 -96l-125 -238q-65 27 -92 27q-12 0 -23.5 -5t-26 -25.5 t-20.5 -55.5l-4 -25h201l-51 -274h-199l-121 -688q-15 -83 -22.5 -121.5t-23 -99t-31 -88t-44 -69.5t-63 -64t-86 -51.5t-116.5 -51.5t-151 -45zM1442 0l262 1493h360l-125 -711l215 293h431l-394 -438l250 -637h-368l-125 367l-101 -113l-45 -254h-360z" />
<glyph unicode="fft" horiz-adv-x="2254" d="M-186 -201q54 20 87.5 35t60 35t40 34.5t25.5 46t17.5 56t14.5 76.5l127 719h-116l49 274h114q37 212 119.5 315t235.5 103q163 0 364 -119l-151 -223q-98 35 -133 35q-12 0 -24 -5t-27 -25.5t-21 -55.5l-4 -25h203l-52 -274h-200l-119 -688q-15 -83 -22.5 -121.5 t-23 -99t-31 -88t-44 -69.5t-63 -64t-86 -51.5t-116.5 -51.5t-151 -45zM545 -201q54 20 87.5 35t60.5 35t40.5 34.5t25.5 45.5t17.5 56t14.5 77l127 719h-117l49 274h115q37 212 119 315t235 103q163 0 364 -119l-161 -223q-93 35 -123 35q-12 0 -24 -5t-27 -25.5t-21 -55.5 l-4 -25h203l-51 -274h-201l-119 -688q-15 -83 -22.5 -121.5t-23 -99t-31 -88t-44 -69.5t-63 -64t-86 -51.5t-116.5 -51.5t-151 -45zM1528 801l49 274h119l45 254l368 57l-55 -311h234l-50 -274h-233l-70 -400q-9 -59 3.5 -77.5t37.5 -18.5q27 0 117 39l76 -291 q-201 -76 -344 -76q-163 0 -223 116t-21 335l66 373h-119z" />
<glyph unicode="fh" horiz-adv-x="1847" d="M-186 -201q54 20 87.5 35t60 35t40 34.5t25.5 46t17.5 56t14.5 76.5l127 719h-116l49 274h114q37 212 118 315t233 103q128 0 301 -96l-125 -238q-65 27 -92 27q-12 0 -23.5 -5t-26 -25.5t-20.5 -55.5l-4 -25h201l-52 -274h-198l-121 -688q-15 -83 -22.5 -121.5t-23 -99 t-31 -88t-44 -69.5t-63 -64t-86 -51.5t-116.5 -51.5t-151 -45zM711 0l262 1493h360l-92 -526q84 62 158 96.5t157 34.5q143 0 203 -94.5t27 -276.5l-127 -727h-361l117 666q14 58 5.5 99.5t-50.5 41.5q-38 0 -86.5 -31t-89.5 -76l-123 -700h-360z" />
<glyph unicode="fj" horiz-adv-x="1292" d="M-186 -201q54 20 87.5 35t60 35t40 34.5t25.5 46t17.5 56t14.5 76.5l127 719h-116l49 274h114q37 212 118 315t233 103q128 0 301 -96l-125 -238q-65 27 -92 27q-12 0 -23.5 -5t-26 -25.5t-20.5 -55.5l-4 -25h201l-52 -274h-198l-121 -688q-15 -83 -22.5 -121.5t-23 -99 t-31 -88t-44 -69.5t-63 -64t-86 -51.5t-116.5 -51.5t-151 -45zM479 -195q80 31 121 50.5t67 47.5t34 54t18 82l182 1036h359l-177 -1003q-32 -180 -58 -247q-45 -117 -150 -184q-109 -68 -324 -118zM915 1192l52 295h372l-53 -295h-371z" />
<glyph unicode="fk" horiz-adv-x="1794" d="M-186 -201q54 20 87.5 35t60 35t40 34.5t25.5 46t17.5 56t14.5 76.5l127 719h-116l49 274h114q37 212 118 315t233 103q128 0 301 -96l-125 -238q-65 27 -92 27q-12 0 -23.5 -5t-26 -25.5t-20.5 -55.5l-4 -25h201l-52 -274h-198l-121 -688q-15 -83 -22.5 -121.5t-23 -99 t-31 -88t-44 -69.5t-63 -64t-86 -51.5t-116.5 -51.5t-151 -45zM711 0l262 1493h360l-125 -711l215 293h430l-393 -438l250 -637h-369l-124 367l-101 -113l-45 -254h-360z" />
<glyph unicode="ft" horiz-adv-x="1525" d="M-186 -201q54 20 87.5 35t60 35t40 34.5t25.5 46t17.5 56t14.5 76.5l127 719h-116l49 274h114q37 212 119.5 315t235.5 103q163 0 364 -119l-161 -223q-93 35 -123 35q-12 0 -24 -5t-27 -25.5t-21 -55.5l-4 -25h203l-52 -274h-200l-119 -688q-15 -83 -22.5 -121.5 t-23 -99t-31 -88t-44 -69.5t-63 -64t-86 -51.5t-116.5 -51.5t-151 -45zM799 801l49 274h119l45 254l368 57l-55 -311h234l-50 -274h-233l-70 -400q-9 -59 3.5 -77.5t37.5 -18.5q27 0 117 39l76 -291q-201 -76 -344 -76q-163 0 -223 116t-21 335l66 373h-119z" />
<glyph unicode=" "  horiz-adv-x="415" />
<glyph unicode="&#x09;" horiz-adv-x="415" />
<glyph unicode="&#xa0;" horiz-adv-x="415" />
<glyph unicode="!" horiz-adv-x="577" d="M6 0l64 362h350l-64 -362h-350zM160 485l53 949h438l-278 -949h-213z" />
<glyph unicode="&#x22;" horiz-adv-x="835" d="M152 856l47 578h329l-157 -578h-219zM543 856l47 578h330l-158 -578h-219z" />
<glyph unicode="#" horiz-adv-x="1241" d="M2 295l49 280h195l84 283h-160l49 283h195l88 293h272l-88 -293h156l88 293h272l-88 -293h160l-49 -283h-195l-84 -283h160l-49 -280h-195l-88 -295h-272l88 295h-156l-88 -295h-272l88 295h-160zM518 575h156l84 283h-156z" />
<glyph unicode="$" horiz-adv-x="1191" d="M-14 197l204 266q98 -65 203.5 -112.5t181.5 -47.5q52 0 85.5 25.5t33.5 68.5q0 33 -25 60.5t-54.5 43.5t-91.5 46t-99 51q-133 85 -205 183t-72 231q0 87 30.5 164t88.5 139t151 99.5t210 41.5l32 184h254l-39 -215q180 -48 343 -149l-209 -268q-75 48 -171.5 85 t-164.5 37q-51 0 -85 -23t-34 -71q0 -25 11.5 -45t38.5 -38t53.5 -31t76 -36.5t86.5 -43.5q59 -37 103.5 -73.5t88 -87t66.5 -115.5t23 -140q0 -84 -30.5 -161.5t-89 -140t-152 -101.5t-210.5 -43l-32 -185h-252l37 209q-206 54 -385 193z" />
<glyph unicode="%" horiz-adv-x="1757" d="M123 991q0 63 13.5 127t44 125t74.5 108t109 76t142 29q66 0 124 -18t104.5 -54t74 -95.5t27.5 -135.5q0 -63 -13.5 -127t-44 -125t-74.5 -108t-109 -76t-142 -29q-140 0 -235 77t-95 226zM338 0l846 1434h268l-846 -1434h-268zM379 993q0 -96 80 -96q31 0 56 29.5 t38 72.5t20 83t7 69q0 96 -78 96q-32 0 -57 -29.5t-38.5 -72t-20.5 -82.5t-7 -70zM958 281q0 63 13.5 127t44 125t74.5 108t109 75.5t142 28.5q66 0 124 -18t104.5 -54t74 -95.5t27.5 -135.5q0 -64 -13.5 -127.5t-44 -124.5t-74 -108t-108.5 -76t-143 -29q-89 0 -161.5 31 t-120.5 101.5t-48 171.5zM1214 283q0 -97 80 -97q32 0 57 29.5t38.5 72.5t20.5 83t7 69q0 97 -80 97q-32 0 -57 -29.5t-38.5 -72t-20.5 -82.5t-7 -70z" />
<glyph unicode="&#x26;" horiz-adv-x="1296" d="M37 334q0 73 24.5 138t70 119t95 95.5t115.5 85.5q-92 156 -92 287q0 174 119.5 285.5t312.5 111.5q176 0 271.5 -91t95.5 -220q0 -64 -24.5 -124.5t-71.5 -115t-95 -97.5t-115 -93l103 -150q51 94 76 191h356q-30 -107 -93.5 -230t-152.5 -231l203 -295h-385l-55 82 q-173 -105 -355 -105q-187 0 -295 101t-108 256zM385 354q0 -43 26 -71.5t72 -28.5q73 0 156 65l-139 213q-115 -100 -115 -178zM561 1061q0 -59 37 -125q131 92 131 178q0 31 -15.5 55.5t-49.5 24.5q-47 0 -75 -40t-28 -93z" />
<glyph unicode="'" horiz-adv-x="446" d="M152 856l47 578h329l-157 -578h-219z" />
<glyph unicode="(" horiz-adv-x="649" d="M7 6.5q-2 104.5 26 257.5l160 912q15 84 24.5 127.5t27.5 102.5t41.5 89t60.5 68t90 61t125.5 47.5t170.5 46.5l51 -217q-49 -21 -81 -39t-53 -35.5t-34 -43t-19.5 -50t-14.5 -67.5l-199 -1119q-22 -97 -4.5 -148.5t102.5 -98.5l-102 -193q-200 51 -285 123t-87 176.5z " />
<glyph unicode=")" horiz-adv-x="641" d="M-106 -76q116 49 150 91.5t52 144.5l199 1118q22 97 4.5 149t-102.5 99l102 192q200 -51 285 -123t87 -176.5t-26 -257.5l-160 -911q-13 -74 -21 -113t-23.5 -93t-32 -82t-44.5 -65.5t-63.5 -59t-87 -47t-117 -45t-151.5 -38.5z" />
<glyph unicode="*" horiz-adv-x="935" d="M129 1044l324 7l-301 118l188 226l170 -277l-49 322l289 -54l-154 -282l250 203l100 -279l-305 -8l283 -117l-189 -225l-164 260l45 -307l-288 53l153 285l-252 -203z" />
<glyph unicode="+" horiz-adv-x="1163" d="M129 545l51 276h297l58 322h280l-57 -322h301l-49 -276h-301l-58 -322h-278l55 322h-299z" />
<glyph unicode="," horiz-adv-x="528" d="M-63 -238l196 238h-153l69 397h350l-59 -448l-338 -309z" />
<glyph unicode="-" horiz-adv-x="770" d="M57 434l52 299h591l-51 -299h-592z" />
<glyph unicode="." horiz-adv-x="526" d="M-20 0l71 397h350l-69 -397h-352z" />
<glyph unicode="/" horiz-adv-x="874" d="M-104 -184l847 1802h275l-850 -1802h-272z" />
<glyph unicode="0" horiz-adv-x="1243" d="M80 494q0 50 5.5 115.5t23 160.5t45 185.5t76.5 183t112 161.5t157.5 112.5t207.5 43.5q114 0 201.5 -30t141.5 -79t88 -118.5t47 -139.5t13 -151q0 -38 -3 -85.5t-12.5 -115.5t-24.5 -136.5t-40.5 -145t-58 -144t-81 -130t-106 -107.5t-135 -72t-166.5 -27 q-113 0 -200.5 30.5t-141.5 79.5t-88.5 118t-47.5 139.5t-13 151.5zM444 453q0 -41 4 -69t16.5 -54.5t38.5 -40t66 -13.5q54 0 100.5 62.5t76 152.5t51 192.5t30.5 180t9 117.5q0 41 -4 68.5t-16.5 53.5t-38.5 39t-66 13q-54 0 -100.5 -62.5t-76 -152t-51 -191.5 t-30.5 -179.5t-9 -116.5z" />
<glyph unicode="1" horiz-adv-x="819" d="M88 1198l397 236h359l-252 -1434h-373l184 1053l-192 -109z" />
<glyph unicode="2" horiz-adv-x="1122" d="M-57 0l28 160q15 87 50.5 166.5t77.5 137t104 116.5t110.5 96.5t116.5 83.5q179 119 229 162q86 73 86 131q0 34 -25.5 57t-74.5 23q-105 0 -319 -129l-136 264q265 188 529 188q103 0 183 -29.5t128 -80.5t72 -115t24 -137q0 -83 -32 -162t-74.5 -135t-110 -114.5 t-113.5 -90t-110 -70.5q-109 -68 -159.5 -113t-57.5 -85h524l-57 -324h-993z" />
<glyph unicode="3" horiz-adv-x="1118" d="M-53 205l196 237q206 -135 334 -135q76 0 121 40t45 104q0 35 -17 61.5t-42 41t-62 23t-70 11t-73 2.5h-47l55 321h59q39 0 78.5 6.5t81.5 21t68 44t26 70.5q0 34 -21 55.5t-67 21.5q-63 0 -150 -35t-161 -79l-121 260q272 180 529 180q190 0 286.5 -89t96.5 -228 q0 -222 -244 -359q81 -46 127.5 -128t46.5 -193q0 -65 -16 -129t-55 -129t-96 -114t-146 -79.5t-199 -30.5q-310 0 -563 228z" />
<glyph unicode="4" horiz-adv-x="1239" d="M-35 250l49 268l658 916h497l-151 -861h174l-57 -323h-174l-43 -250h-373l43 250h-623zM383 573h262l84 486z" />
<glyph unicode="5" horiz-adv-x="1110" d="M-39 207l213 244q156 -140 281 -140q80 0 136 52.5t56 136.5q0 62 -34 101.5t-105 39.5q-48 0 -94 -19.5t-107 -58.5l-196 133l192 738h842l-58 -324h-516l-32 -164q55 10 100 10q99 0 175.5 -33.5t122.5 -92t69.5 -132.5t23.5 -161q0 -85 -22 -166t-67.5 -152.5 t-109 -125.5t-153.5 -85t-195 -31q-286 0 -522 230z" />
<glyph unicode="6" horiz-adv-x="1175" d="M59 518q0 146 39.5 284.5t116.5 256.5t181.5 207t242.5 139.5t293 50.5q77 0 143 -12t93 -24l28 -13l-147 -283q-50 15 -111 15q-135 0 -246.5 -72.5t-177.5 -202.5q85 66 211 66q166 0 265.5 -112.5t99.5 -291.5q0 -108 -35.5 -206.5t-100 -175t-165.5 -122t-222 -45.5 q-122 0 -220.5 43.5t-160.5 118t-94.5 171.5t-32.5 208zM434 496q0 -91 34.5 -146t98.5 -55q72 0 110 62t38 145q0 61 -31.5 101t-93.5 40q-47 0 -89 -27.5t-65 -62.5q-2 -18 -2 -57z" />
<glyph unicode="7" horiz-adv-x="956" d="M29 0q18 106 58.5 222.5t86.5 214t106 201.5t106.5 174.5t101 144.5t75.5 100.5t43 52.5h-477l55 324h895l-53 -304q-11 -12 -29.5 -34.5t-73.5 -94t-106 -145.5t-117.5 -182t-118.5 -212t-96.5 -227.5t-64.5 -234.5h-391z" />
<glyph unicode="8" horiz-adv-x="1191" d="M12 352q0 277 336 441q-131 113 -131 272q0 171 131 281t365 110q211 0 322.5 -91.5t111.5 -240.5q0 -116 -65 -202t-179 -154q90 -61 143.5 -142t53.5 -200q0 -200 -155 -324.5t-433 -124.5q-247 0 -373.5 100.5t-126.5 274.5zM395 397q0 -58 36 -92.5t104 -34.5 q83 0 134.5 49t51.5 123q0 104 -119 185q-96 -46 -151.5 -100.5t-55.5 -129.5zM567 1040q0 -75 76 -127q68 32 105.5 72t37.5 96q0 40 -23 66.5t-71 26.5q-57 0 -91 -41.5t-34 -92.5z" />
<glyph unicode="9" horiz-adv-x="1175" d="M14 27l148 282q47 -14 110 -14q135 0 245.5 71.5t178.5 202.5q-87 -65 -213 -65q-164 0 -264 112t-100 291q0 108 35.5 206.5t100.5 175t166 122t222 45.5q122 0 220 -43.5t160 -118t95 -172t33 -207.5q0 -146 -39.5 -284.5t-116 -256.5t-181 -207t-243 -139.5 t-292.5 -50.5q-78 0 -144.5 12.5t-93.5 24.5zM494 932q0 -61 32 -101t95 -40q47 0 88.5 27.5t64.5 64.5q2 18 2 55q0 90 -35.5 145.5t-99.5 55.5q-71 0 -109 -62.5t-38 -144.5z" />
<glyph unicode=":" horiz-adv-x="559" d="M-6 0l72 397h350l-70 -397h-352zM100 610l72 398h350l-69 -398h-353z" />
<glyph unicode=";" horiz-adv-x="563" d="M-49 -238l196 238h-153l69 397h351l-60 -448l-338 -309zM98 610l72 398h350l-69 -398h-353z" />
<glyph unicode="&#x3c;" horiz-adv-x="1163" d="M106 557l46 252l950 414l-60 -346l-536 -207l463 -211l-56 -316z" />
<glyph unicode="=" horiz-adv-x="1163" d="M92 344l49 281h881l-51 -281h-879zM162 745l51 281h879l-50 -281h-880z" />
<glyph unicode="&#x3e;" horiz-adv-x="1163" d="M86 143l59 346l537 207l-463 211l55 316l807 -414l-45 -252z" />
<glyph unicode="?" horiz-adv-x="983" d="M109 0l63 362h350l-63 -362h-350zM156 1307q225 149 454 149q184 0 289 -96t105 -254q0 -88 -35 -165t-87.5 -129t-121.5 -94t-128 -64.5t-116 -35.5l-41 -133h-213l41 338q165 40 241.5 91.5t76.5 125.5q0 40 -24 66.5t-77 26.5q-84 0 -235 -93z" />
<glyph unicode="@" horiz-adv-x="1634" d="M37 334q0 134 28 265.5t80.5 250.5t132.5 220.5t179.5 176t226.5 116.5t268 42q138 0 247 -40t177.5 -105.5t113 -155.5t61.5 -185t14 -198q-2 -49 -8 -104.5t-21 -135.5t-36.5 -152.5t-59 -147.5t-84 -129.5t-115 -89t-149.5 -34.5q-68 0 -116 25.5t-70.5 67t-31 80.5 t-6.5 79q-135 -135 -278 -135q-111 0 -171.5 77t-60.5 195q0 153 93.5 250t240.5 97q27 0 55.5 -3t61 -9.5t49.5 -10t50 -11.5l34 -9l14 71q14 78 -8 112t-86 34q-110 0 -287 -74l-61 188q226 90 412 90q180 0 244.5 -90.5t31.5 -277.5l-51 -295q-9 -51 -14 -82.5t-9 -68.5 t-2 -58.5t8 -41t19.5 -28t34.5 -8.5q63 0 122.5 96t96.5 241.5t41 291.5q2 52 -2 102.5t-18 108t-36.5 107.5t-61.5 96.5t-90.5 79.5t-125.5 53t-164 20q-149 0 -279.5 -55t-223.5 -148.5t-160 -216.5t-100 -260t-33 -278q0 -92 17 -176t54.5 -158t92.5 -128.5t135.5 -86 t179.5 -31.5q84 0 164.5 21t119.5 42l39 21l52 -96q-6 -4 -18 -11t-50.5 -25.5t-80 -32t-104.5 -25t-126 -11.5q-146 0 -261 56.5t-186 154t-108 222.5t-37 268zM621 348q0 -47 22.5 -72.5t63.5 -25.5q80 0 188 102l25 137q-9 2 -43.5 10.5t-62.5 13.5t-50 5 q-69 0 -106 -49.5t-37 -120.5z" />
<glyph unicode="A" horiz-adv-x="1255" d="M-106 0l677 1434h410l170 -1434h-395l-11 240h-342l-92 -240h-417zM522 545h213l-20 495z" />
<glyph unicode="B" horiz-adv-x="1232" d="M2 0l252 1434h512q222 0 334 -83t112 -229q0 -76 -28.5 -143t-72 -109.5t-88 -69t-83.5 -32.5q36 -12 68 -32t67.5 -56t56.5 -95.5t21 -135.5q0 -216 -136 -332.5t-384 -116.5h-631zM428 299h131q111 0 172.5 47t61.5 141q0 63 -41.5 94t-137.5 31h-131zM530 889h117 q81 0 131.5 37.5t50.5 111.5q0 46 -32 71.5t-109 25.5h-115z" />
<glyph unicode="C" horiz-adv-x="1150" d="M66 522q0 138 24 270.5t74.5 253t123 211.5t176 145t226.5 54q77 0 149.5 -16.5t148.5 -52.5t120.5 -62t124.5 -76l-199 -278q-103 65 -175.5 98t-133.5 33q-69 0 -124.5 -56t-88 -142.5t-49.5 -180t-17 -180.5q0 -104 32 -158.5t104 -54.5q100 0 331 123l142 -308 q-165 -81 -301.5 -124.5t-268.5 -43.5q-205 0 -312 144.5t-107 400.5z" />
<glyph unicode="D" horiz-adv-x="1294" d="M2 0l252 1434h377q138 0 246 -28.5t179 -78t117.5 -120.5t66.5 -152t20 -178q0 -59 -6.5 -124.5t-28 -153.5t-54.5 -168t-92 -160.5t-135.5 -139t-190.5 -95t-251 -36.5h-500zM432 332h60q102 0 180.5 50t122.5 130.5t66 168.5t22 177q0 129 -66 186.5t-203 57.5h-45z " />
<glyph unicode="E" horiz-adv-x="1095" d="M2 0l252 1434h913l-59 -332h-539l-39 -223h437l-58 -324h-436l-41 -223h549l-57 -332h-922z" />
<glyph unicode="F" horiz-adv-x="1050" d="M2 0l252 1434h913l-59 -332h-539l-39 -223h422l-57 -326h-422l-98 -553h-373z" />
<glyph unicode="G" horiz-adv-x="1247" d="M66 512q0 119 17.5 233t52 220t88.5 195t122.5 155.5t160 103.5t195.5 37q65 0 133 -13.5t118 -30.5t117 -50.5t102.5 -54t101.5 -60.5l-197 -278q-82 45 -123 66.5t-105 44t-112 22.5q-72 0 -130 -54.5t-91.5 -140.5t-51.5 -182.5t-18 -189.5q0 -67 9.5 -113t41 -79.5 t85.5 -33.5q53 0 111 36t102 83l20 113h-225l53 307h569l-149 -848h-344l20 123q-71 -71 -142.5 -108.5t-158.5 -37.5q-170 0 -271 138.5t-101 396.5z" />
<glyph unicode="H" horiz-adv-x="1292" d="M2 0l252 1434h373l-92 -519h327l92 519h373l-252 -1434h-373l103 590h-328l-102 -590h-373z" />
<glyph unicode="I" horiz-adv-x="593" d="M2 0l252 1434h373l-252 -1434h-373z" />
<glyph unicode="J" horiz-adv-x="593" d="M-213 -102q76 28 118 49t67.5 49.5t34.5 55t20 79.5l227 1303h375l-226 -1280q-32 -177 -56 -241q-43 -111 -145 -177q-106 -70 -333 -131z" />
<glyph unicode="K" horiz-adv-x="1265" d="M2 0l252 1434h373l-84 -478l397 478h479l-596 -654l344 -780h-413l-195 492l-121 -134l-63 -358h-373z" />
<glyph unicode="L" horiz-adv-x="1026" d="M2 0l252 1434h373l-195 -1106h522l-55 -328h-897z" />
<glyph unicode="M" horiz-adv-x="1501" d="M2 0l252 1434h379l131 -711l395 711h377l-252 -1434h-373l127 729l-268 -489h-166l-96 524l-133 -764h-373z" />
<glyph unicode="N" horiz-adv-x="1318" d="M2 0l252 1434h375l215 -789l137 789h373l-252 -1434h-373l-217 793l-137 -793h-373z" />
<glyph unicode="O" horiz-adv-x="1361" d="M68 553q0 94 16 192.5t48.5 201.5t88.5 193t129.5 161.5t179.5 113t230 41.5q268 0 418.5 -144t150.5 -425q0 -80 -11 -164.5t-36 -174t-62.5 -171.5t-94 -155.5t-125.5 -127.5t-162.5 -85.5t-200.5 -31.5q-267 0 -418 146t-151 430zM449 555q0 -55 9.5 -97.5t31 -77 t62 -53t97.5 -18.5q64 0 117.5 47t86 115t55 150t31.5 147.5t9 110.5q0 75 -16.5 126.5t-62.5 85t-121 33.5q-64 0 -117.5 -46.5t-86 -115t-55 -150t-31.5 -147t-9 -110.5z" />
<glyph unicode="P" horiz-adv-x="1214" d="M2 0l252 1434h463q520 0 520 -410q0 -85 -20.5 -162.5t-67 -149t-114.5 -123.5t-170 -83t-228 -31h-178l-84 -475h-373zM516 795h111q113 0 170 54.5t57 139.5q0 67 -41.5 94t-122.5 27h-121z" />
<glyph unicode="Q" horiz-adv-x="1361" d="M68 553q0 94 16 192.5t48.5 201.5t88.5 193t129.5 161.5t179.5 113t230 41.5q268 0 418.5 -144t150.5 -425q0 -108 -20.5 -221.5t-63 -227.5t-116.5 -213t-171 -159l168 -193l-278 -229l-232 333q-258 6 -403 152t-145 424zM449 555q0 -55 9.5 -97.5t31 -77t62 -53 t97.5 -18.5q64 0 117.5 47t86 115t55 150t31.5 147.5t9 110.5q0 75 -16.5 126.5t-62.5 85t-121 33.5q-64 0 -117.5 -46.5t-86 -115t-55 -150t-31.5 -147t-9 -110.5z" />
<glyph unicode="R" horiz-adv-x="1259" d="M2 0l252 1434h512q512 0 512 -383q0 -55 -10 -110t-36.5 -118t-66.5 -115.5t-107.5 -97t-152.5 -67.5l193 -543h-389l-158 520h-84l-92 -520h-373zM520 825h154q114 0 167.5 53.5t53.5 137.5q0 64 -43.5 88t-126.5 24h-152z" />
<glyph unicode="S" horiz-adv-x="1157" d="M-33 197l205 266q98 -65 203.5 -112.5t181.5 -47.5q52 0 85.5 25.5t33.5 68.5q0 33 -25 60.5t-54.5 43.5t-91.5 46t-99 51q-133 85 -205 183t-72 231q0 89 32 168t92.5 141t158 98.5t219.5 36.5q279 0 567 -180l-209 -268q-75 48 -171.5 85t-164.5 37q-51 0 -84.5 -23 t-33.5 -71q0 -25 11.5 -45t38.5 -38t53.5 -31t76 -36.5t86.5 -43.5q59 -36 103.5 -73t87.5 -87.5t66 -115.5t23 -140q0 -87 -32.5 -166.5t-94.5 -143t-162.5 -101.5t-224.5 -38q-170 0 -324 62.5t-276 157.5z" />
<glyph unicode="T" horiz-adv-x="1054" d="M109 1102l59 332h1010l-60 -332h-315l-195 -1102h-372l194 1102h-321z" />
<glyph unicode="U" horiz-adv-x="1273" d="M72 408q2 88 20 200l146 826h374l-159 -902q-8 -50 -8 -92q1 -10 1 -20q2 -49 36 -79t100 -30q97 0 140.5 57t63.5 164l160 902h373l-158 -893q-17 -102 -41 -179t-69 -152.5t-107 -124t-157.5 -78.5t-219.5 -30q-142 0 -241.5 33t-153.5 88q-54 54 -78 138 q-23 79 -23 161q1 6 1 11z" />
<glyph unicode="V" horiz-adv-x="1253" d="M139 1434h410l43 -936l364 936h439l-674 -1434h-412z" />
<glyph unicode="W" horiz-adv-x="1708" d="M154 1434h413l-18 -787l289 787h290l17 -783l256 783h434l-578 -1434h-352l-22 823l-303 -823h-351z" />
<glyph unicode="X" horiz-adv-x="1193" d="M-119 0l510 731l-237 703h411l88 -426l234 426h446l-485 -705l254 -729h-414l-100 420l-244 -420h-463z" />
<glyph unicode="Y" horiz-adv-x="1181" d="M131 1434h399l101 -488l268 488h430l-563 -863l-100 -571h-373l100 571z" />
<glyph unicode="Z" horiz-adv-x="1124" d="M-59 0l51 297l659 805h-481l57 332h973l-51 -295l-662 -807h529l-58 -332h-1017z" />
<glyph unicode="[" horiz-adv-x="690" d="M-55 -293l354 2011h555l-37 -213h-182l-279 -1585h181l-37 -213h-555z" />
<glyph unicode="\" horiz-adv-x="849" d="M203 1618h246l231 -1802h-246z" />
<glyph unicode="]" horiz-adv-x="690" d="M-129 -293l37 213h182l279 1585h-181l37 213h555l-354 -2011h-555z" />
<glyph unicode="^" horiz-adv-x="1165" d="M96 641l449 793h368l168 -793h-360l-45 393l-182 -393h-398z" />
<glyph unicode="_" horiz-adv-x="1234" d="M-92 -397l47 264h1061l-47 -264h-1061z" />
<glyph unicode="`" horiz-adv-x="444" d="M209 1493h358l160 -293h-274z" />
<glyph unicode="a" horiz-adv-x="1132" d="M29 346q0 109 19 216t57.5 203.5t92 170.5t129 118t162.5 44q45 0 84 -10.5t72 -32.5t53 -39t50 -47l18 106h360l-190 -1075h-358l18 111q-73 -61 -143.5 -97.5t-155.5 -36.5q-126 0 -197 98.5t-71 270.5zM397 406q0 -58 20 -92.5t58 -34.5q80 0 172 116l51 293 q-51 109 -127 109q-54 0 -95.5 -69t-60 -156t-18.5 -166z" />
<glyph unicode="b" horiz-adv-x="1124" d="M-20 0l262 1493h360l-92 -522q150 127 291 127q128 0 200 -98t72 -271q0 -103 -18 -208t-56 -203t-91 -173.5t-129.5 -121.5t-164.5 -46q-85 0 -142 33t-114 92l-18 -102h-360zM406 379q50 -100 124 -100q40 0 74.5 39t55.5 98t33 125t12 125t-19.5 95t-60.5 36 q-74 0 -164 -111z" />
<glyph unicode="c" horiz-adv-x="915" d="M27 397q0 172 41.5 309.5t110 221t152.5 127t175 43.5q41 0 79.5 -4.5t76.5 -15.5t65 -19t64.5 -26.5t54 -26.5t55 -29.5t47.5 -26.5l-166 -260l-25 15t-29.5 17t-28.5 15.5t-31.5 15.5t-29 11.5t-31 9t-27.5 2.5q-58 0 -102.5 -53.5t-65.5 -129.5t-21 -155 q0 -139 101 -139q7 0 16.5 1.5t18.5 3.5t21.5 6.5t21.5 7.5t24 9.5t23.5 10t25 11t24 11t25 12t23.5 11.5l102 -289q-267 -117 -420 -117q-166 0 -268 105.5t-102 314.5z" />
<glyph unicode="d" horiz-adv-x="1132" d="M29 346q0 109 19 216t57.5 203.5t92 170.5t129 118t162.5 44q45 0 84 -10.5t72 -32.5t53 -39t50 -47l92 524h360l-264 -1493h-358l18 111q-73 -61 -143.5 -97.5t-155.5 -36.5q-126 0 -197 98.5t-71 270.5zM397 406q0 -58 20 -92.5t58 -34.5q81 0 172 118l51 291 q-51 109 -127 109q-54 0 -95.5 -69t-60 -156t-18.5 -166z" />
<glyph unicode="e" horiz-adv-x="1007" d="M23 412q0 199 66.5 353t198.5 243.5t312 89.5q173 0 277 -85t104 -229q0 -77 -20.5 -136.5t-59 -98.5t-85 -65t-109 -39t-119 -18t-125.5 -5h-78v-16q0 -152 102 -152q83 0 314 111l98 -254q-77 -42 -219.5 -88t-278.5 -46q-178 0 -278 105t-100 330zM408 616h61 q84 0 134 37t50 105q0 33 -19.5 54.5t-55.5 21.5q-63 0 -105 -61t-65 -157z" />
<glyph unicode="f" horiz-adv-x="731" d="M-186 -201q54 20 87.5 35t60 35t40 34.5t25.5 46t17.5 56t14.5 76.5l127 719h-116l49 274h114q37 212 119.5 315t235.5 103q163 0 364 -119l-161 -223q-93 35 -123 35q-12 0 -24 -5t-27 -25.5t-21 -55.5l-4 -25h203l-52 -274h-200l-119 -688q-15 -83 -22.5 -121.5 t-23 -99t-31 -88t-44 -69.5t-63 -64t-86 -51.5t-116.5 -51.5t-151 -45z" />
<glyph unicode="g" horiz-adv-x="1132" d="M-70 -346l119 285q80 -32 180.5 -57t173.5 -25q87 0 124.5 39.5t50.5 119.5l16 90q-73 -59 -143.5 -94t-153.5 -35q-126 0 -197 98.5t-71 270.5q0 137 31 269t87 240.5t145.5 175.5t196.5 67q58 0 109.5 -21t80.5 -44.5t66 -61.5l19 104h360l-184 -1038 q-25 -142 -63.5 -234t-100.5 -145.5t-141 -74.5t-195 -21q-252 0 -510 92zM397 406q0 -58 20 -92.5t58 -34.5q81 0 168 114l53 299q-25 50 -57.5 77.5t-67.5 27.5q-54 0 -95.5 -69t-60 -156t-18.5 -166z" />
<glyph unicode="h" d="M-20 0l262 1493h360l-92 -526q84 62 158 96.5t157 34.5q143 0 203 -94q39 -61 39 -159q0 -54 -12 -118l-127 -727h-361l117 666q9 36 9 66q1 18 -3 34q-8 42 -51 41q-38 0 -86.5 -31t-89.5 -76l-123 -700h-360z" />
<glyph unicode="i" horiz-adv-x="536" d="M-20 0l188 1075h360l-190 -1075h-358zM182 1192l54 295h370l-51 -295h-373z" />
<glyph unicode="j" horiz-adv-x="536" d="M-252 -195q80 31 121 50.5t67 47.5t34 54t18 82l182 1036h358l-176 -1003q-32 -180 -58 -247q-45 -117 -150 -184q-109 -68 -324 -118zM184 1192l52 295h372l-53 -295h-371z" />
<glyph unicode="k" horiz-adv-x="1062" d="M-20 0l262 1493h360l-125 -711l215 293h430l-393 -438l250 -637h-369l-125 367l-100 -113l-45 -254h-360z" />
<glyph unicode="l" horiz-adv-x="538" d="M-18 0l262 1493h360l-262 -1493h-360z" />
<glyph unicode="m" horiz-adv-x="1622" d="M-20 0l188 1075h360l-20 -121q140 144 287 144q191 0 223 -178q63 71 148.5 124.5t174.5 53.5q141 0 196 -96q36 -63 36 -158q0 -49 -10 -107l-131 -737h-359l119 682q9 35 9 62q-1 16 -3 28q-8 36 -45 35q-63 0 -145 -102l-123 -705h-359l121 682q7 33 7 59q0 17 -2 31 q-8 36 -46 35q-33 0 -70.5 -27.5t-70.5 -68.5l-125 -711h-360z" />
<glyph unicode="n" d="M-20 0l188 1075h360l-20 -108q171 131 317 131q143 0 203 -94q39 -61 39 -159q0 -54 -12 -118l-127 -727h-361l119 668q8 33 8 61q0 19 -4 37q-9 42 -51 41q-39 0 -87 -31t-89 -78l-123 -698h-360z" />
<glyph unicode="o" horiz-adv-x="1107" d="M29 422q0 91 17 181t58.5 180.5t102.5 159.5t157.5 112t215.5 43q75 0 142.5 -15t128.5 -49t105.5 -84.5t70.5 -126.5t26 -170q0 -91 -17 -181t-58.5 -180.5t-102.5 -159.5t-157.5 -112t-215.5 -43q-75 0 -142.5 15t-128.5 49t-105.5 84.5t-70.5 126.5t-26 170zM387 414 q0 -74 26.5 -112t90.5 -38q48 0 87 44.5t60 110.5t32 129.5t11 113.5q0 74 -26 111.5t-90 37.5q-48 0 -87 -44.5t-60.5 -110t-32.5 -129.5t-11 -113z" />
<glyph unicode="p" horiz-adv-x="1126" d="M-94 -418l262 1493h360l-18 -104q72 59 141 93t152 34q128 0 200 -98t72 -271q0 -103 -18 -208t-56 -203t-91 -173.5t-129.5 -121.5t-164.5 -46q-59 0 -111 21t-81 44.5t-66 61.5l-92 -522h-360zM408 383q52 -104 124 -104q41 0 75.5 38.5t55.5 98t32.5 125.5t11.5 125 t-20.5 95t-61.5 36q-71 0 -164 -111z" />
<glyph unicode="q" horiz-adv-x="1132" d="M29 346q0 109 19 216t57.5 203.5t92 170.5t129 118t162.5 44q45 0 84 -10.5t72 -32.5t53 -39t50 -47l18 106h360l-264 -1493h-358l92 529q-73 -61 -143.5 -97.5t-155.5 -36.5q-126 0 -197 98.5t-71 270.5zM397 406q0 -58 20 -92.5t58 -34.5q80 0 172 116l51 293 q-51 109 -127 109q-54 0 -95.5 -69t-60 -156t-18.5 -166z" />
<glyph unicode="r" horiz-adv-x="790" d="M-20 0l188 1075h360l-39 -221q15 27 31.5 52t51 63t72 63.5t92.5 42.5q42 13 87 13q13 0 27 -1l-64 -354q-59 0 -112.5 -21t-91.5 -55t-69.5 -74.5t-51.5 -81.5t-34 -75t-20 -55l-6 -21l-61 -350h-360z" />
<glyph unicode="s" horiz-adv-x="970" d="M-45 141l168 246q77 -48 174.5 -86.5t159.5 -38.5q31 0 48 12.5t17 30.5q0 16 -8 28t-27.5 22.5t-37 17.5t-51.5 19.5t-56 21.5q-55 23 -97.5 48.5t-84.5 64t-65 93.5t-23 121q0 154 110.5 255.5t309.5 101.5q124 0 246.5 -39.5t215.5 -93.5l-166 -246 q-70 37 -149.5 65.5t-132.5 28.5q-31 0 -48.5 -11.5t-17.5 -29.5q0 -16 7.5 -27.5t25.5 -21.5t35 -16.5t50.5 -18.5t57.5 -22q42 -18 75.5 -35.5t73 -47t65.5 -62.5t43.5 -81.5t17.5 -103.5q0 -75 -27.5 -139.5t-80.5 -114t-136 -77.5t-188 -28q-142 0 -273.5 47.5 t-230.5 116.5z" />
<glyph unicode="t" horiz-adv-x="792" d="M66 801l49 274h118l46 254l368 57l-55 -311h233l-49 -274h-233l-70 -400q-4 -25 -3 -42q0 -23 6 -35q12 -18 38 -19q27 0 117 39l76 -291q-201 -76 -345 -76q-162 0 -222 116q-36 70 -36 178q0 71 15 157l65 373h-118z" />
<glyph unicode="u" d="M35 348l127 727h360l-119 -665q-8 -34 -7 -62q0 -21 4 -38q10 -42 51 -42q38 0 88 31.5t90 77.5l123 698h358l-188 -1075h-359l19 111q-82 -63 -158.5 -98.5t-159.5 -35.5q-142 0 -202 94q-39 61 -38 160q0 53 11 117z" />
<glyph unicode="v" horiz-adv-x="1050" d="M84 1075h371l26 -626l244 626h397l-534 -1075h-352z" />
<glyph unicode="w" horiz-adv-x="1486" d="M96 1075h375l-12 -575l227 575h264l23 -573l188 573h385l-454 -1075h-326l-35 563l-231 -563h-326z" />
<glyph unicode="x" horiz-adv-x="1081" d="M-119 0l428 539l-217 536h375l82 -291l186 291h420l-407 -536l237 -539h-385l-86 303l-188 -303h-445z" />
<glyph unicode="y" horiz-adv-x="1048" d="M-18 -190q66 28 98.5 43t76.5 42t76 58l-149 1122h371l28 -612l246 612h389l-514 -1075q-25 -52 -41.5 -84t-46 -80t-56.5 -80t-69 -71.5t-88 -66.5t-108.5 -52.5t-135.5 -42.5z" />
<glyph unicode="z" horiz-adv-x="1026" d="M-59 0l45 256l510 510h-402l56 309h901l-45 -256l-510 -510h419l-55 -309h-919z" />
<glyph unicode="{" horiz-adv-x="712" d="M14 606l39 213q55 0 93 17.5t58.5 50t30.5 68t13 81.5l16 209q18 251 147 362t355 111h100l-37 -205h-34q-136 0 -152 -227l-12 -178q-8 -104 -33.5 -177.5t-69.5 -118.5t-99 -69.5t-132 -35.5q136 -35 183 -132.5t1 -287.5l-24 -94q-71 -281 61 -281h29l-35 -205h-31 q-95 0 -178 29t-147 90.5t-84 156.5t12 226l49 180q16 64 18 112t-31.5 76.5t-105.5 28.5z" />
<glyph unicode="|" horiz-adv-x="464" d="M-47 -252l338 1927h256l-338 -1927h-256z" />
<glyph unicode="}" horiz-adv-x="712" d="M-119 -293l37 205h35q135 0 151 227l13 178q8 104 33.5 177.5t69.5 119t99 70t132 35.5q-136 35 -183.5 132.5t-1.5 287.5l25 94q71 280 -62 280h-28l35 205h30q75 0 144 -18.5t128.5 -57t96 -98t47.5 -141t-18 -186.5l-50 -181q-16 -64 -18 -112t31.5 -76.5t105.5 -28.5 l-39 -213q-55 0 -93 -17.5t-58.5 -50t-30 -67.5t-12.5 -82l-17 -209q-18 -251 -146.5 -362t-354.5 -111h-101z" />
<glyph unicode="~" horiz-adv-x="1163" d="M14 432q83 172 170 263t205 91q58 0 116.5 -24t98.5 -52.5t88 -52.5t88 -24q36 0 69 28t85 115l194 -92q-41 -85 -79 -145.5t-83.5 -110t-98 -74t-113.5 -24.5q-58 0 -116.5 24t-98.5 52.5t-89 52.5t-90 24q-35 0 -66 -27.5t-85 -115.5z" />
<glyph unicode="&#xa1;" horiz-adv-x="577" d="M-37 0l279 948h213l-54 -948h-438zM195 1071l63 363h350l-63 -363h-350z" />
<glyph unicode="&#xa2;" horiz-adv-x="1003" d="M80 578q0 139 27 255.5t73.5 197.5t108.5 137.5t130.5 83t141.5 26.5h12l29 156h254l-37 -211q35 -14 68.5 -31t79.5 -43t55 -31l-164 -256q-5 3 -23.5 13.5t-26 14.5t-25.5 13.5t-27.5 14t-25 12t-26.5 11t-24 8t-24 6t-21 1.5q-58 0 -102.5 -53.5t-65.5 -129.5 t-21 -155q0 -139 103 -139q56 0 242 84l102 -284q-132 -61 -256 -95l-33 -184h-254l29 164q-136 21 -217.5 125.5t-81.5 288.5z" />
<glyph unicode="&#xa3;" horiz-adv-x="1048" d="M-29 0l45 262q8 2 20.5 7t47 24.5t64 43.5t60 67.5t44.5 93.5h-174l37 217h135q-5 22 -22 87t-26 118t-9 112q0 198 104.5 311t298.5 113q255 0 506 -215l-189 -227q-146 119 -245 119q-53 0 -81 -36t-28 -93q0 -48 28 -141.5t34 -147.5h262l-37 -217h-244 q-41 -126 -113 -174h433l-58 -324h-893z" />
<glyph unicode="&#xa5;" horiz-adv-x="1282" d="M109 266l38 213h281l16 90h-280l39 213h176l-197 652h400l100 -488l268 488h430l-426 -652h176l-38 -213h-275l-16 -90h276l-41 -213h-272l-47 -266h-373l47 266h-282z" />
<glyph unicode="&#xa6;" horiz-adv-x="466" d="M-47 -252l147 846h256l-147 -846h-256zM143 829l148 846h256l-148 -846h-256z" />
<glyph unicode="&#xa7;" horiz-adv-x="1060" d="M4 -14l164 245q70 -37 150 -65.5t133 -28.5q67 0 67 45q0 14 -7 24t-26 20t-36.5 16.5t-53 19.5t-61.5 23q-41 16 -72 31.5t-70.5 43t-64.5 59t-43 79t-18 102.5q0 97 50.5 172.5t145.5 116.5q-74 81 -74 205q0 155 110.5 258.5t309.5 103.5q125 0 249 -39.5t214 -93.5 l-164 -246q-67 36 -147.5 65t-132.5 29q-68 0 -68 -45q0 -14 7 -24t25.5 -19.5t35.5 -16t53.5 -19.5t62.5 -23q51 -20 89.5 -41.5t83 -58.5t69.5 -92t25 -123q0 -97 -50.5 -173t-148.5 -118q76 -83 76 -203q0 -156 -110.5 -259t-309.5 -103q-125 0 -248 39.5t-215 93.5z M414 670q0 -33 27.5 -51.5t105.5 -49.5l12 -4.5t10.5 -4.5t12.5 -5q80 21 80 84q0 12 -3.5 21.5t-12.5 18t-17.5 15t-26.5 15t-30 13.5t-37.5 15.5t-40.5 16.5q-80 -21 -80 -84z" />
<glyph unicode="&#xa8;" horiz-adv-x="456" d="M135 1221l49 274h265l-48 -274h-266zM479 1221l47 274h265l-48 -274h-264z" />
<glyph unicode="&#xa9;" horiz-adv-x="1585" d="M80 641q0 131 32.5 251.5t98 223t158 178.5t219 119t274.5 43q206 0 360.5 -84.5t235 -234.5t80.5 -344q0 -131 -32.5 -251.5t-98.5 -223.5t-158 -179t-219.5 -119t-275.5 -43q-309 0 -491.5 184t-182.5 480zM160 643q0 -171 70 -303t208 -208.5t324 -76.5 q160 0 293 58.5t221 159t136 234t48 284.5q0 127 -41 235t-117.5 186t-191 122t-254.5 44q-160 0 -293 -58.5t-220 -159t-135 -233.5t-48 -284zM430 618q-5 126 27 230.5t90 172t134.5 104t162.5 36.5q54 0 104.5 -12.5t94 -37t69 -42t59.5 -45.5l-63 -66q-27 23 -46.5 37 t-55.5 35t-77.5 32t-86.5 11q-135 0 -226 -127.5t-84 -318.5q4 -124 56.5 -195.5t138.5 -71.5q147 0 307 111l51 -74q-53 -35 -95 -58t-115 -46t-144 -23q-126 0 -210.5 91.5t-90.5 256.5z" />
<glyph unicode="&#xaa;" horiz-adv-x="774" d="M133 1001q0 109 32 209t99.5 169t155.5 69q37 0 69.5 -12t50 -25.5t42.5 -36.5l10 60h237l-114 -646h-238l10 60q-98 -74 -182 -74q-81 0 -126.5 61t-45.5 166zM375 1038q0 -65 45 -65t100 61l29 160q-27 55 -72 55q-46 0 -74 -71.5t-28 -139.5z" />
<glyph unicode="&#xab;" horiz-adv-x="1179" d="M14 432l39 223l582 422l-70 -393l-250 -162l195 -160l-64 -352zM553 432l39 223l582 422l-70 -393l-250 -162l195 -160l-64 -352z" />
<glyph unicode="&#xac;" horiz-adv-x="1163" d="M51 543l49 280h1006l-113 -639h-291l64 359h-715z" />
<glyph unicode="&#xad;" horiz-adv-x="770" d="M57 434l52 299h591l-51 -299h-592z" />
<glyph unicode="&#xae;" horiz-adv-x="847" d="M131 1069q0 110 43.5 200.5t134.5 148t213 57.5q154 0 245 -92t91 -240q0 -81 -26 -154t-74.5 -129.5t-123.5 -89.5t-167 -33q-154 0 -245 92t-91 240zM199 1071q0 -117 73.5 -191.5t198.5 -74.5q147 0 234.5 96t87.5 240q0 118 -75 192t-202 74q-146 0 -231.5 -96.5 t-85.5 -239.5zM328 926l65 370h164q52 0 82.5 -27.5t30.5 -68.5q0 -48 -31.5 -77.5t-83.5 -37.5l61 -159h-69l-58 157h-67l-27 -157h-67zM434 1143h90q78 0 78 57q0 35 -49 35h-102z" />
<glyph unicode="&#xaf;" horiz-adv-x="548" d="M227 1251l37 215h543l-37 -215h-543z" />
<glyph unicode="&#xb0;" horiz-adv-x="776" d="M121 1094q0 141 100.5 242.5t241.5 101.5t241.5 -101.5t100.5 -242.5t-100.5 -241.5t-241.5 -100.5t-241.5 100.5t-100.5 241.5zM330 1094q0 -54 39 -93.5t94 -39.5q54 0 93.5 39.5t39.5 93.5q0 55 -39.5 94t-93.5 39q-55 0 -94 -38.5t-39 -94.5z" />
<glyph unicode="&#xb1;" horiz-adv-x="1163" d="M33 0l41 238h882l-41 -238h-882zM137 594l49 280h299l45 252h285l-45 -252h299l-49 -280h-299l-43 -250h-285l43 250h-299z" />
<glyph unicode="&#xb2;" horiz-adv-x="731" d="M70 788l16 101q9 52 31.5 100t48.5 82.5t65.5 70.5t68.5 57.5t71 49.5q131 82 156 102q40 33 40 58q0 39 -55 39q-70 0 -203 -78l-92 176q184 117 338 117q131 0 197.5 -66t66.5 -161q0 -49 -20 -96t-46.5 -80t-68.5 -67t-70 -52t-67 -41q-124 -69 -133 -99h325l-37 -213 h-632z" />
<glyph unicode="&#xb3;" horiz-adv-x="727" d="M70 920l129 155q133 -84 213 -84q45 0 69.5 18.5t24.5 49.5q0 24 -14 39t-40.5 21.5t-50.5 8.5t-59 2h-31l37 211h35q27 0 52 3t51 9.5t41.5 20.5t15.5 33q0 18 -13 29.5t-38 11.5q-42 0 -99 -22t-100 -48l-80 172q171 113 338 113q121 0 183.5 -56t62.5 -141 q0 -128 -150 -211q50 -28 78.5 -77.5t28.5 -112.5q0 -39 -10 -77.5t-34 -77.5t-59.5 -69t-91.5 -48.5t-125 -18.5q-66 0 -128 16t-109.5 42.5t-75.5 46.5t-51 41z" />
<glyph unicode="&#xb4;" horiz-adv-x="448" d="M137 1200l262 293h394l-349 -293h-307z" />
<glyph unicode="&#xb5;" horiz-adv-x="1163" d="M-78 -418l264 1493h361l-119 -665q-13 -58 -4 -100t51 -42q38 0 88 31.5t90 77.5l123 698h359l-189 -1075h-358l18 111q-142 -108 -256 -127l-69 -402h-359z" />
<glyph unicode="&#xb6;" horiz-adv-x="1368" d="M90 813q0 173 73 314t208.5 224t308.5 83h309l-319 -1813h-293l135 770q-91 0 -166.5 26t-133.5 77t-90 132.5t-32 186.5zM766 -379l319 1813h295l-319 -1813h-295z" />
<glyph unicode="&#xb7;" horiz-adv-x="530" d="M47 385l72 397h350l-70 -397h-352z" />
<glyph unicode="&#xb8;" horiz-adv-x="323" d="M-88 -342l98 176q36 -22 72 -22q78 0 78 86q0 22 -6 48.5t-12 41.5l-7 16h152q35 -68 35 -156q0 -119 -69.5 -178t-170.5 -59q-104 0 -170 47z" />
<glyph unicode="&#xb9;" horiz-adv-x="612" d="M152 1503l254 146h235l-152 -861h-245l108 611l-119 -64z" />
<glyph unicode="&#xba;" horiz-adv-x="735" d="M127 1047q0 53 10.5 106.5t36.5 107t64.5 94.5t100 67t136.5 26q60 0 112.5 -15t95.5 -46t68 -85t25 -126q0 -54 -10.5 -107t-36 -107t-64 -95t-99.5 -67t-138 -26q-60 0 -112 15t-95.5 46.5t-68.5 85.5t-25 126zM365 1040q0 -39 14 -58t51 -19q29 0 52 25t35 62t18 71.5 t6 60.5q0 39 -14.5 58.5t-53.5 19.5q-37 0 -63 -44t-35.5 -91.5t-9.5 -84.5z" />
<glyph unicode="&#xbb;" horiz-adv-x="1183" d="M-16 10l69 393l250 162l-194 160l63 352l432 -422l-39 -223zM524 10l70 393l250 162l-195 160l64 352l432 -422l-39 -223z" />
<glyph unicode="&#xbc;" horiz-adv-x="1652" d="M154 1288l254 146h235l-151 -861h-246l108 611l-118 -64zM248 0l790 1434h265l-791 -1434h-264zM762 141l31 178l405 541h328l-90 -506h108l-37 -213h-108l-25 -141h-246l25 141h-391zM1038 354h152l47 269z" />
<glyph unicode="&#xbd;" horiz-adv-x="1675" d="M154 1288l254 146h235l-151 -861h-246l108 611l-118 -64zM248 0l790 1434h265l-791 -1434h-264zM856 0l16 100q11 64 40 120t73.5 101.5t81.5 75t90 64.5q14 8 37 22.5t34.5 22t30 19.5t28 18.5t22.5 16.5t19.5 16.5t13.5 15t9.5 15.5t2.5 14q0 38 -56 38q-71 0 -202 -77 l-92 176q182 116 337 116q131 0 198 -66t67 -161q0 -41 -12.5 -80t-37 -71.5t-49.5 -59t-60.5 -52t-58.5 -40t-55 -33.5q-124 -69 -133 -98h326l-37 -213h-633z" />
<glyph unicode="&#xbe;" horiz-adv-x="1794" d="M61 705l129 155q133 -84 213 -84q45 0 70 18.5t25 49.5q0 24 -14 39t-40.5 21.5t-50.5 8.5t-59 2h-31l37 211h35q27 0 52 3t51 9.5t41.5 20.5t15.5 33q0 18 -13.5 29.5t-38.5 11.5q-81 0 -198 -70l-80 172q171 113 338 113q121 0 183 -56t62 -141q0 -128 -149 -211 q50 -28 78 -77t28 -113q0 -50 -17 -98t-52 -93t-100 -72.5t-150 -27.5q-66 0 -128.5 16t-109.5 42.5t-75.5 46.5t-51.5 41zM393 0l791 1434h264l-791 -1434h-264zM909 141l31 178l406 541h327l-90 -506h109l-37 -213h-109l-24 -141h-246l24 141h-391zM1186 354h151l47 269z " />
<glyph unicode="&#xbf;" horiz-adv-x="976" d="M12 328q0 88 35 165t87.5 129t121.5 93.5t128 64t116 35.5l41 133h213l-41 -338q-165 -40 -241.5 -91.5t-76.5 -125.5q0 -40 24 -66t77 -26q85 0 235 92l129 -266q-226 -150 -454 -150q-184 0 -289 96.5t-105 254.5zM494 1071l63 363h350l-63 -363h-350z" />
<glyph unicode="&#xc0;" horiz-adv-x="1255" d="M-106 0l677 1434h410l170 -1434h-395l-11 240h-342l-92 -240h-417zM479 1802h359l159 -293h-274zM522 545h213l-20 495z" />
<glyph unicode="&#xc1;" horiz-adv-x="1255" d="M-106 0l677 1434h410l170 -1434h-395l-11 240h-342l-92 -240h-417zM522 545h213l-20 495zM586 1509l262 293h393l-348 -293h-307z" />
<glyph unicode="&#xc2;" horiz-adv-x="1255" d="M-106 0l677 1434h410l170 -1434h-395l-11 240h-342l-92 -240h-417zM444 1509l240 293h320l133 -293h-222l-86 138l-133 -138h-252zM522 545h213l-20 495z" />
<glyph unicode="&#xc3;" horiz-adv-x="1255" d="M-106 0l677 1434h410l170 -1434h-395l-11 240h-342l-92 -240h-417zM457 1612q26 41 36.5 57t33.5 49t39 47t40 32t49 25t54 7q39 0 84.5 -24t83.5 -48t61 -24q43 0 106 96l136 -98q-70 -109 -100 -142q-69 -75 -154 -76q-39 0 -84 24t-82.5 48.5t-59.5 24.5 q-44 0 -110 -99zM522 545h213l-20 495z" />
<glyph unicode="&#xc4;" horiz-adv-x="1255" d="M-106 0l677 1434h410l170 -1434h-395l-11 240h-342l-92 -240h-417zM489 1530l50 274h264l-47 -274h-267zM522 545h213l-20 495zM834 1530l47 274h264l-47 -274h-264z" />
<glyph unicode="&#xc5;" horiz-adv-x="1255" d="M-109 0l678 1434h410l170 -1434h-395l-11 240h-342l-92 -240h-418zM520 545h213l-20 495zM602 1714q0 94 66 161t159 67q94 0 160 -67t66 -161t-66 -159.5t-160 -65.5t-159.5 65.5t-65.5 159.5zM764 1714q0 -26 18.5 -44.5t44.5 -18.5t45 18.5t19 44.5t-19 46t-45 20 t-44.5 -19.5t-18.5 -46.5z" />
<glyph unicode="&#xc6;" horiz-adv-x="1894" d="M-172 0l1028 1434h1112l-59 -332h-539l-39 -223h436l-57 -324h-436l-41 -223h549l-58 -332h-921l41 240h-383l-162 -240h-471zM674 555h225l80 451z" />
<glyph unicode="&#xc7;" horiz-adv-x="1150" d="M66 522q0 138 24 270.5t74.5 253t123 211.5t176 145t226.5 54q77 0 149.5 -16.5t148.5 -52.5t120.5 -62t124.5 -76l-199 -278q-103 65 -175.5 98t-133.5 33q-69 0 -124.5 -56t-88 -142.5t-49.5 -180t-17 -180.5q0 -104 32 -158.5t104 -54.5q100 0 331 123l142 -308 q-286 -141 -484 -161q25 -68 25 -136q0 -119 -69.5 -178t-170.5 -59q-104 0 -170 47l99 176q36 -22 71 -22q78 0 78 86q0 44 -16 84q-172 23 -262 164.5t-90 375.5z" />
<glyph unicode="&#xc8;" horiz-adv-x="1095" d="M2 0l252 1434h913l-59 -332h-539l-39 -223h437l-58 -324h-436l-41 -223h549l-57 -332h-922zM420 1802h358l160 -293h-274z" />
<glyph unicode="&#xc9;" horiz-adv-x="1095" d="M2 0l252 1434h913l-59 -332h-539l-39 -223h437l-58 -324h-436l-41 -223h549l-57 -332h-922zM506 1509l262 293h393l-348 -293h-307z" />
<glyph unicode="&#xca;" horiz-adv-x="1095" d="M2 0l252 1434h913l-59 -332h-539l-39 -223h437l-58 -324h-436l-41 -223h549l-57 -332h-922zM383 1509l240 293h319l133 -293h-221l-86 138l-133 -138h-252z" />
<glyph unicode="&#xcb;" horiz-adv-x="1095" d="M2 0l252 1434h913l-59 -332h-539l-39 -223h437l-58 -324h-436l-41 -223h549l-57 -332h-922zM430 1530l49 274h264l-47 -274h-266zM774 1530l47 274h264l-47 -274h-264z" />
<glyph unicode="&#xcc;" horiz-adv-x="595" d="M2 0l252 1434h373l-252 -1434h-373zM145 1802h359l160 -293h-275z" />
<glyph unicode="&#xcd;" horiz-adv-x="593" d="M2 0l252 1434h373l-252 -1434h-373zM231 1509l263 293h393l-348 -293h-308z" />
<glyph unicode="&#xce;" horiz-adv-x="591" d="M2 0l252 1434h373l-252 -1434h-373zM106 1509l240 293h320l133 -293h-221l-86 138l-134 -138h-252z" />
<glyph unicode="&#xcf;" horiz-adv-x="591" d="M2 0l252 1434h373l-252 -1434h-373zM156 1530l49 274h264l-47 -274h-266zM500 1530l47 274h264l-47 -274h-264z" />
<glyph unicode="&#xd0;" horiz-adv-x="1316" d="M6 567l51 299h121l101 568h376q138 0 246 -28.5t179 -78t117.5 -120.5t66.5 -152t20 -178q0 -59 -6.5 -124.5t-28 -153.5t-54.5 -168t-92 -160.5t-135.5 -139t-190.5 -95t-251 -36.5h-499l98 567h-119zM457 332h59q102 0 180.5 50t122.5 130.5t66 168.5t22 177 q0 129 -66 186.5t-202 57.5h-45l-43 -236h203l-52 -299h-204z" />
<glyph unicode="&#xd1;" horiz-adv-x="1318" d="M2 0l252 1434h375l215 -789l137 789h373l-252 -1434h-373l-217 793l-137 -793h-373zM494 1612q24 38 31 49t29 43t32.5 43t32 32t38 28.5t40 14.5t48.5 7q39 0 84.5 -24t84 -48t61.5 -24q43 0 106 96l136 -98q-70 -109 -100 -142q-69 -75 -154 -76q-39 0 -84 24 t-82.5 48.5t-59.5 24.5q-44 0 -110 -99z" />
<glyph unicode="&#xd2;" horiz-adv-x="1361" d="M68 553q0 94 16 192.5t48.5 201.5t88.5 193t129.5 161.5t179.5 113t230 41.5q268 0 418.5 -144t150.5 -425q0 -80 -11 -164.5t-36 -174t-62.5 -171.5t-94 -155.5t-125.5 -127.5t-162.5 -85.5t-200.5 -31.5q-267 0 -418 146t-151 430zM449 555q0 -55 9.5 -97.5t31 -77 t62 -53t97.5 -18.5q64 0 117.5 47t86 115t55 150t31.5 147.5t9 110.5q0 75 -16.5 126.5t-62.5 85t-121 33.5q-64 0 -117.5 -46.5t-86 -115t-55 -150t-31.5 -147t-9 -110.5zM528 1802h359l160 -293h-275z" />
<glyph unicode="&#xd3;" horiz-adv-x="1361" d="M68 553q0 94 16 192.5t48.5 201.5t88.5 193t129.5 161.5t179.5 113t230 41.5q268 0 418.5 -144t150.5 -425q0 -80 -11 -164.5t-36 -174t-62.5 -171.5t-94 -155.5t-125.5 -127.5t-162.5 -85.5t-200.5 -31.5q-267 0 -418 146t-151 430zM449 555q0 -55 9.5 -97.5t31 -77 t62 -53t97.5 -18.5q64 0 117.5 47t86 115t55 150t31.5 147.5t9 110.5q0 75 -16.5 126.5t-62.5 85t-121 33.5q-64 0 -117.5 -46.5t-86 -115t-55 -150t-31.5 -147t-9 -110.5zM616 1509l263 293h393l-348 -293h-308z" />
<glyph unicode="&#xd4;" horiz-adv-x="1361" d="M68 553q0 94 16 192.5t48.5 201.5t88.5 193t129.5 161.5t179.5 113t230 41.5q268 0 418.5 -144t150.5 -425q0 -80 -11 -164.5t-36 -174t-62.5 -171.5t-94 -155.5t-125.5 -127.5t-162.5 -85.5t-200.5 -31.5q-267 0 -418 146t-151 430zM449 555q0 -55 9.5 -97.5t31 -77 t62 -53t97.5 -18.5q64 0 117.5 47t86 115t55 150t31.5 147.5t9 110.5q0 75 -16.5 126.5t-62.5 85t-121 33.5q-64 0 -117.5 -46.5t-86 -115t-55 -150t-31.5 -147t-9 -110.5zM494 1509l239 293h320l133 -293h-221l-86 138l-134 -138h-251z" />
<glyph unicode="&#xd5;" horiz-adv-x="1361" d="M68 553q0 94 16 192.5t48.5 201.5t88.5 193t129.5 161.5t179.5 113t230 41.5q268 0 418.5 -144t150.5 -425q0 -80 -11 -164.5t-36 -174t-62.5 -171.5t-94 -155.5t-125.5 -127.5t-162.5 -85.5t-200.5 -31.5q-267 0 -418 146t-151 430zM449 555q0 -55 9.5 -97.5t31 -77 t62 -53t97.5 -18.5q64 0 117.5 47t86 115t55 150t31.5 147.5t9 110.5q0 75 -16.5 126.5t-62.5 85t-121 33.5q-64 0 -117.5 -46.5t-86 -115t-55 -150t-31.5 -147t-9 -110.5zM504 1612q26 41 36.5 57t33.5 49t39 47t40 32t49 25t54 7q39 0 84.5 -24t83.5 -48t61 -24 q44 0 107 96l135 -98q-70 -109 -100 -142q-69 -75 -154 -76q-39 0 -83.5 24t-82 48.5t-59.5 24.5q-45 0 -111 -99z" />
<glyph unicode="&#xd6;" horiz-adv-x="1361" d="M68 553q0 94 16 192.5t48.5 201.5t88.5 193t129.5 161.5t179.5 113t230 41.5q268 0 418.5 -144t150.5 -425q0 -80 -11 -164.5t-36 -174t-62.5 -171.5t-94 -155.5t-125.5 -127.5t-162.5 -85.5t-200.5 -31.5q-267 0 -418 146t-151 430zM449 555q0 -55 9.5 -97.5t31 -77 t62 -53t97.5 -18.5q64 0 117.5 47t86 115t55 150t31.5 147.5t9 110.5q0 75 -16.5 126.5t-62.5 85t-121 33.5q-64 0 -117.5 -46.5t-86 -115t-55 -150t-31.5 -147t-9 -110.5zM541 1530l49 274h264l-47 -274h-266zM885 1530l47 274h264l-47 -274h-264z" />
<glyph unicode="&#xd7;" horiz-adv-x="1181" d="M139 444l279 263l-182 258l229 165l162 -229l250 236l190 -203l-279 -260l187 -260l-232 -166l-163 229l-252 -235z" />
<glyph unicode="&#xd8;" horiz-adv-x="1363" d="M-23 0l175 207q-84 137 -84 346q0 94 16 192.5t48.5 201.5t88.5 193t129.5 161.5t179.5 113t230 41.5q217 0 354 -94l60 72h245l-172 -209q82 -136 82 -338q0 -80 -11 -164.5t-36 -174t-62.5 -171.5t-94 -155.5t-125.5 -127.5t-162.5 -85.5t-200.5 -31.5q-211 0 -354 93 l-58 -70h-248zM449 563l432 518q-49 43 -133 43q-63 0 -116 -45t-85.5 -111t-55.5 -146t-32 -145.5t-10 -113.5zM516 348q48 -39 133 -39q63 0 115.5 44.5t84.5 109.5t55 144.5t33 144.5t11 114z" />
<glyph unicode="&#xd9;" horiz-adv-x="1271" d="M69.5 407.5q1.5 87.5 20.5 200.5l146 826h374l-159 -902q-10 -63 -7.5 -112t36.5 -79t100 -30q97 0 140.5 57t63.5 164l160 902h373l-158 -893q-17 -102 -41 -179t-69 -152.5t-107 -124t-157.5 -78.5t-219.5 -30q-142 0 -241.5 33t-153.5 88t-78 138.5t-22.5 171z M477 1802h359l159 -293h-274z" />
<glyph unicode="&#xda;" horiz-adv-x="1271" d="M69.5 407.5q1.5 87.5 20.5 200.5l146 826h374l-159 -902q-10 -63 -7.5 -112t36.5 -79t100 -30q97 0 140.5 57t63.5 164l160 902h373l-158 -893q-17 -102 -41 -179t-69 -152.5t-107 -124t-157.5 -78.5t-219.5 -30q-142 0 -241.5 33t-153.5 88t-78 138.5t-22.5 171z M563 1509l262 293h394l-349 -293h-307z" />
<glyph unicode="&#xdb;" horiz-adv-x="1269" d="M69.5 407.5q1.5 87.5 20.5 200.5l146 826h374l-159 -902q-10 -63 -7.5 -112t36.5 -79t100 -30q97 0 140.5 57t63.5 164l160 902h373l-158 -893q-17 -102 -41 -179t-69 -152.5t-107 -124t-157.5 -78.5t-219.5 -30q-142 0 -241.5 33t-153.5 88t-78 138.5t-22.5 171z M440 1509l240 293h319l134 -293h-222l-86 138l-133 -138h-252z" />
<glyph unicode="&#xdc;" horiz-adv-x="1271" d="M69.5 407.5q1.5 87.5 20.5 200.5l146 826h374l-159 -902q-10 -63 -7.5 -112t36.5 -79t100 -30q97 0 140.5 57t63.5 164l160 902h373l-158 -893q-17 -102 -41 -179t-69 -152.5t-107 -124t-157.5 -78.5t-219.5 -30q-142 0 -241.5 33t-153.5 88t-78 138.5t-22.5 171z M489 1530l50 274h264l-47 -274h-267zM834 1530l47 274h264l-47 -274h-264z" />
<glyph unicode="&#xdd;" horiz-adv-x="1181" d="M131 1434h399l101 -488l268 488h430l-563 -863l-100 -571h-373l100 571zM520 1509l262 293h394l-349 -293h-307z" />
<glyph unicode="&#xde;" horiz-adv-x="1210" d="M2 0l252 1434h373l-37 -213h96q143 0 245.5 -30.5t160 -87t83 -127.5t25.5 -163q0 -84 -19 -161.5t-63.5 -149.5t-110 -124.5t-164.5 -84t-222 -31.5h-199l-47 -262h-373zM477 582h131q108 0 158.5 54.5t50.5 141.5q0 66 -40 92.5t-118 26.5h-127z" />
<glyph unicode="&#xdf;" horiz-adv-x="1327" d="M-20 0l165 938q17 100 42.5 178t72.5 152t111.5 122.5t162.5 77.5t224 29q109 0 196.5 -21.5t144 -57t94 -84t53.5 -99t16 -105.5q0 -46 -12 -89.5t-29 -72t-33.5 -50t-28.5 -31.5l-12 -10q-38 -8 -73 -22.5t-66 -42.5t-31 -60q0 -30 27.5 -55t78.5 -60t84 -72 q86 -99 86 -223q0 -153 -115.5 -259t-297.5 -106q-198 0 -414 129l168 246q45 -28 110 -54t111 -26q33 0 51.5 14t18.5 40q0 38 -51 73q-5 3 -33.5 21.5t-46 31t-46 40t-45 55t-29.5 69.5t-13 89q0 59 19.5 110.5t47.5 86.5t69.5 66.5t75 49.5t74.5 35q6 18 6 41 q0 54 -38 88.5t-123 34.5q-106 0 -164 -68t-88 -236l-160 -913h-360z" />
<glyph unicode="&#xe0;" horiz-adv-x="1132" d="M29 346q0 109 19 216t57.5 203.5t92 170.5t129 118t162.5 44q45 0 84 -10.5t72 -32.5t53 -39t50 -47l18 106h360l-190 -1075h-358l18 111q-73 -61 -143.5 -97.5t-155.5 -36.5q-126 0 -197 98.5t-71 270.5zM385 1493h358l160 -293h-274zM397 406q0 -58 20 -92.5t58 -34.5 q80 0 172 116l51 293q-51 109 -127 109q-54 0 -95.5 -69t-60 -156t-18.5 -166z" />
<glyph unicode="&#xe1;" horiz-adv-x="1112" d="M29 346q0 109 19 216t57.5 203.5t92 170.5t129 118t162.5 44q45 0 84 -10.5t72 -32.5t53 -39t50 -47l18 106h360l-190 -1075h-358l18 111q-73 -61 -143.5 -97.5t-155.5 -36.5q-126 0 -197 98.5t-71 270.5zM397 406q0 -58 20 -92.5t58 -34.5q80 0 172 116l51 293 q-51 109 -127 109q-54 0 -95.5 -69t-60 -156t-18.5 -166zM457 1200l262 293h393l-348 -293h-307z" />
<glyph unicode="&#xe2;" horiz-adv-x="1132" d="M29 346q0 109 19 216t57.5 203.5t92 170.5t129 118t162.5 44q45 0 84 -10.5t72 -32.5t53 -39t50 -47l18 106h360l-190 -1075h-358l18 111q-73 -61 -143.5 -97.5t-155.5 -36.5q-126 0 -197 98.5t-71 270.5zM346 1200l240 293h319l133 -293h-221l-86 137l-133 -137h-252z M397 406q0 -58 20 -92.5t58 -34.5q80 0 172 116l51 293q-51 109 -127 109q-54 0 -95.5 -69t-60 -156t-18.5 -166z" />
<glyph unicode="&#xe3;" horiz-adv-x="1132" d="M29 346q0 109 19 216t57.5 203.5t92 170.5t129 118t162.5 44q45 0 84 -10.5t72 -32.5t53 -39t50 -47l18 106h360l-190 -1075h-358l18 111q-73 -61 -143.5 -97.5t-155.5 -36.5q-126 0 -197 98.5t-71 270.5zM365 1303q24 38 31 49t29 43t32.5 43t32 32t38 28.5t40 14.5 t48.5 7q39 0 84.5 -24t84 -48.5t61.5 -24.5q42 0 106 97l135 -99q-70 -109 -99 -141q-68 -76 -154 -76q-39 0 -84 24t-82.5 48t-59.5 24q-45 0 -110 -98zM397 406q0 -58 20 -92.5t58 -34.5q80 0 172 116l51 293q-51 109 -127 109q-54 0 -95.5 -69t-60 -156t-18.5 -166z" />
<glyph unicode="&#xe4;" horiz-adv-x="1132" d="M29 346q0 109 19 216t57.5 203.5t92 170.5t129 118t162.5 44q45 0 84 -10.5t72 -32.5t53 -39t50 -47l18 106h360l-190 -1075h-358l18 111q-73 -61 -143.5 -97.5t-155.5 -36.5q-126 0 -197 98.5t-71 270.5zM397 406q0 -58 20 -92.5t58 -34.5q80 0 172 116l51 293 q-51 109 -127 109q-54 0 -95.5 -69t-60 -156t-18.5 -166zM410 1221l49 274h264l-47 -274h-266zM754 1221l47 274h264l-47 -274h-264z" />
<glyph unicode="&#xe5;" horiz-adv-x="1132" d="M29 346q0 109 19 216t57.5 203.5t92 170.5t129 118t162.5 44q45 0 84 -10.5t72 -32.5t53 -39t50 -47l18 106h360l-190 -1075h-358l18 111q-73 -61 -143.5 -97.5t-155.5 -36.5q-126 0 -197 98.5t-71 270.5zM397 406q0 -58 20 -92.5t58 -34.5q80 0 172 116l51 293 q-51 109 -127 109q-54 0 -95.5 -69t-60 -156t-18.5 -166zM512 1405q0 94 65.5 160.5t159.5 66.5t160 -66.5t66 -160.5t-66 -159.5t-160 -65.5t-159.5 65.5t-65.5 159.5zM674 1405q0 -26 18.5 -45t44.5 -19t45 19t19 45t-19 45.5t-45 19.5t-44.5 -19.5t-18.5 -45.5z" />
<glyph unicode="&#xe6;" horiz-adv-x="1648" d="M29 346q0 109 19 216t57.5 203.5t92 170.5t129 118t162.5 44q45 0 83.5 -10.5t71.5 -32t54 -39.5t50 -47l18 106h307q84 23 168 23q173 0 277 -85t104 -229q0 -77 -20.5 -136.5t-59 -98.5t-85 -65t-109 -39t-119 -18t-125.5 -5h-78v-16q0 -152 102 -152q83 0 314 111 l98 -254q-77 -42 -219.5 -88t-278.5 -46q-77 0 -151 23h-316l19 109q-71 -60 -142.5 -96t-154.5 -36q-126 0 -197 98.5t-71 270.5zM397 406q0 -58 20 -92.5t58 -34.5q78 0 170 116l51 295q-52 107 -125 107q-54 0 -95.5 -69t-60 -156t-18.5 -166zM1049 616h61q84 0 134 37 t50 105q0 33 -19.5 54.5t-55.5 21.5q-63 0 -105 -61t-65 -157z" />
<glyph unicode="&#xe7;" horiz-adv-x="915" d="M27 397q0 172 41.5 309.5t110 221t152.5 127t175 43.5q41 0 79.5 -4.5t76.5 -15.5t65 -19t64.5 -26.5t54 -26.5t55 -29.5t47.5 -26.5l-166 -260l-25 15t-29.5 17t-28.5 15.5t-31.5 15.5t-29 11.5t-31 9t-27.5 2.5q-58 0 -102.5 -53.5t-65.5 -129.5t-21 -155 q0 -139 101 -139q7 0 16.5 1.5t18.5 3.5t21.5 6.5t21.5 7.5t24 9.5t23.5 10t25 11t24 11t25 12t23.5 11.5l102 -289q-228 -101 -375 -114q25 -67 25 -132q0 -119 -69.5 -178t-170.5 -59q-104 0 -170 47l99 176q36 -22 71 -22q78 0 78 86q0 44 -20 94q-120 31 -189 132 t-69 273z" />
<glyph unicode="&#xe8;" horiz-adv-x="1007" d="M23 412q0 199 66.5 353t198.5 243.5t312 89.5q173 0 277 -85t104 -229q0 -77 -20.5 -136.5t-59 -98.5t-85 -65t-109 -39t-119 -18t-125.5 -5h-78v-16q0 -152 102 -152q83 0 314 111l98 -254q-77 -42 -219.5 -88t-278.5 -46q-178 0 -278 105t-100 330zM328 1493h358 l160 -293h-275zM408 616h61q84 0 134 37t50 105q0 33 -19.5 54.5t-55.5 21.5q-63 0 -105 -61t-65 -157z" />
<glyph unicode="&#xe9;" horiz-adv-x="1009" d="M23 412q0 199 66.5 353t198.5 243.5t312 89.5q173 0 277 -85t104 -229q0 -77 -20.5 -136.5t-59 -98.5t-85 -65t-109 -39t-119 -18t-125.5 -5h-78v-16q0 -152 102 -152q83 0 314 111l98 -254q-77 -42 -219.5 -88t-278.5 -46q-178 0 -278 105t-100 330zM408 616h61 q84 0 134 37t50 105q0 33 -19.5 54.5t-55.5 21.5q-63 0 -105 -61t-65 -157zM416 1200l262 293h393l-348 -293h-307z" />
<glyph unicode="&#xea;" horiz-adv-x="1007" d="M23 412q0 199 66.5 353t198.5 243.5t312 89.5q173 0 277 -85t104 -229q0 -77 -20.5 -136.5t-59 -98.5t-85 -65t-109 -39t-119 -18t-125.5 -5h-78v-16q0 -152 102 -152q83 0 314 111l98 -254q-77 -42 -219.5 -88t-278.5 -46q-178 0 -278 105t-100 330zM291 1200l239 293 h320l133 -293h-221l-86 137l-133 -137h-252zM408 616h61q84 0 134 37t50 105q0 33 -19.5 54.5t-55.5 21.5q-63 0 -105 -61t-65 -157z" />
<glyph unicode="&#xeb;" horiz-adv-x="1005" d="M23 412q0 199 66.5 353t198.5 243.5t312 89.5q173 0 277 -85t104 -229q0 -77 -20.5 -136.5t-59 -98.5t-85 -65t-109 -39t-119 -18t-125.5 -5h-78v-16q0 -152 102 -152q83 0 314 111l98 -254q-77 -42 -219.5 -88t-278.5 -46q-178 0 -278 105t-100 330zM342 1221l49 274 h264l-47 -274h-266zM408 616h61q84 0 134 37t50 105q0 33 -19.5 54.5t-55.5 21.5q-63 0 -105 -61t-65 -157zM686 1221l47 274h264l-47 -274h-264z" />
<glyph unicode="&#xec;" horiz-adv-x="536" d="M-20 0l188 1075h360l-190 -1075h-358zM59 1493h359l160 -293h-275z" />
<glyph unicode="&#xed;" horiz-adv-x="534" d="M-20 0l188 1075h360l-190 -1075h-358zM145 1200l263 293h393l-348 -293h-308z" />
<glyph unicode="&#xee;" horiz-adv-x="534" d="M-20 0l188 1075h360l-190 -1075h-358zM23 1200l239 293h320l133 -293h-221l-86 137l-134 -137h-251z" />
<glyph unicode="&#xef;" horiz-adv-x="534" d="M-20 0l188 1075h360l-190 -1075h-358zM72 1221l49 274h264l-47 -274h-266zM416 1221l47 274h264l-47 -274h-264z" />
<glyph unicode="&#xf0;" horiz-adv-x="1134" d="M14 416q0 150 64 279t175.5 204.5t242.5 75.5q54 0 101 -14t74.5 -32.5t49.5 -42t29.5 -36.5t11.5 -21q-19 186 -144 261l-49 -64h-272l86 111q-30 -2 -61.5 -5.5t-47.5 -6.5l-16 -3l16 289q74 23 187 23q59 0 143 -15l58 74h268l-119 -154q143 -92 213 -255.5t70 -356.5 q0 -150 -40 -284t-114.5 -238.5t-192.5 -166t-264 -61.5q-229 0 -349 121.5t-120 317.5zM389 408q0 -144 125 -144q41 0 74.5 18.5t54.5 48t35.5 67.5t20.5 74t6 71q0 145 -127 145q-48 0 -86.5 -29.5t-59.5 -74.5t-32 -90.5t-11 -85.5z" />
<glyph unicode="&#xf1;" d="M-20 0l188 1075h360l-20 -108q171 131 317 131q143 0 203 -94.5t27 -276.5l-127 -727h-361l119 668q13 56 4 97.5t-51 41.5q-39 0 -87 -31t-89 -78l-123 -698h-360zM330 1303q26 41 36.5 57t33.5 49t39 47t40 32t49 25t54 7q31 0 66.5 -15t61.5 -33.5t54 -33.5t47 -15 q43 0 107 97l135 -99q-70 -109 -101 -143q-69 -74 -153 -74q-39 0 -84 24t-82.5 48t-59.5 24q-45 0 -110 -98z" />
<glyph unicode="&#xf2;" horiz-adv-x="1107" d="M29 422q0 91 17 181t58.5 180.5t102.5 159.5t157.5 112t215.5 43q75 0 142.5 -15t128.5 -49t105.5 -84.5t70.5 -126.5t26 -170q0 -91 -17 -181t-58.5 -180.5t-102.5 -159.5t-157.5 -112t-215.5 -43q-75 0 -142.5 15t-128.5 49t-105.5 84.5t-70.5 126.5t-26 170zM344 1493 h358l160 -293h-274zM387 414q0 -74 26.5 -112t90.5 -38q48 0 87 44.5t60 110.5t32 129.5t11 113.5q0 74 -26 111.5t-90 37.5q-48 0 -87 -44.5t-60.5 -110t-32.5 -129.5t-11 -113z" />
<glyph unicode="&#xf3;" horiz-adv-x="1107" d="M29 422q0 91 17 181t58.5 180.5t102.5 159.5t157.5 112t215.5 43q75 0 142.5 -15t128.5 -49t105.5 -84.5t70.5 -126.5t26 -170q0 -91 -17 -181t-58.5 -180.5t-102.5 -159.5t-157.5 -112t-215.5 -43q-75 0 -142.5 15t-128.5 49t-105.5 84.5t-70.5 126.5t-26 170zM387 414 q0 -74 26.5 -112t90.5 -38q48 0 87 44.5t60 110.5t32 129.5t11 113.5q0 74 -26 111.5t-90 37.5q-48 0 -87 -44.5t-60.5 -110t-32.5 -129.5t-11 -113zM432 1200l262 293h393l-348 -293h-307z" />
<glyph unicode="&#xf4;" horiz-adv-x="1107" d="M29 422q0 91 17 181t58.5 180.5t102.5 159.5t157.5 112t215.5 43q75 0 142.5 -15t128.5 -49t105.5 -84.5t70.5 -126.5t26 -170q0 -91 -17 -181t-58.5 -180.5t-102.5 -159.5t-157.5 -112t-215.5 -43q-75 0 -142.5 15t-128.5 49t-105.5 84.5t-70.5 126.5t-26 170zM307 1200 l240 293h319l133 -293h-221l-86 137l-133 -137h-252zM387 414q0 -74 26.5 -112t90.5 -38q48 0 87 44.5t60 110.5t32 129.5t11 113.5q0 74 -26 111.5t-90 37.5q-48 0 -87 -44.5t-60.5 -110t-32.5 -129.5t-11 -113z" />
<glyph unicode="&#xf5;" horiz-adv-x="1107" d="M29 422q0 91 17 181t58.5 180.5t102.5 159.5t157.5 112t215.5 43q75 0 142.5 -15t128.5 -49t105.5 -84.5t70.5 -126.5t26 -170q0 -91 -17 -181t-58.5 -180.5t-102.5 -159.5t-157.5 -112t-215.5 -43q-75 0 -142.5 15t-128.5 49t-105.5 84.5t-70.5 126.5t-26 170zM328 1303 q26 41 36.5 57t33.5 49t39 47t40 32t49 25t54 7q31 0 66.5 -15t61.5 -33.5t54 -33.5t47 -15q42 0 106 97l136 -99q-70 -109 -101 -143q-69 -74 -153 -74q-39 0 -84 24t-82.5 48t-59.5 24q-45 0 -110 -98zM387 414q0 -74 26.5 -112t90.5 -38q48 0 87 44.5t60 110.5t32 129.5 t11 113.5q0 74 -26 111.5t-90 37.5q-48 0 -87 -44.5t-60.5 -110t-32.5 -129.5t-11 -113z" />
<glyph unicode="&#xf6;" horiz-adv-x="1105" d="M29 422q0 91 17 181t58.5 180.5t102.5 159.5t157.5 112t215.5 43q75 0 142.5 -15t128.5 -49t105.5 -84.5t70.5 -126.5t26 -170q0 -91 -17 -181t-58.5 -180.5t-102.5 -159.5t-157.5 -112t-215.5 -43q-75 0 -142.5 15t-128.5 49t-105.5 84.5t-70.5 126.5t-26 170zM360 1221 l50 274h264l-47 -274h-267zM387 414q0 -74 26.5 -112t90.5 -38q48 0 87 44.5t60 110.5t32 129.5t11 113.5q0 74 -26 111.5t-90 37.5q-48 0 -87 -44.5t-60.5 -110t-32.5 -129.5t-11 -113zM705 1221l47 274h264l-47 -274h-264z" />
<glyph unicode="&#xf7;" horiz-adv-x="1163" d="M127 543l51 280h881l-49 -280h-883zM373 309q0 65 44.5 109.5t108.5 44.5q63 0 108.5 -45t45.5 -109t-45.5 -108.5t-108.5 -44.5q-64 0 -108.5 44t-44.5 109zM504 1057q0 65 44.5 110t108.5 45q63 0 108.5 -45.5t45.5 -109.5q0 -63 -45.5 -107.5t-108.5 -44.5 q-64 0 -108.5 44.5t-44.5 107.5z" />
<glyph unicode="&#xf8;" horiz-adv-x="1107" d="M-41 0l141 160q-71 104 -71 262q0 91 17 181t58.5 180.5t102.5 159.5t157.5 112t215.5 43q164 0 284 -72l45 49h191l-129 -147q82 -109 82 -275q0 -91 -17 -181t-58.5 -180.5t-102.5 -159.5t-157.5 -112t-215.5 -43q-178 0 -297 78l-49 -55h-197zM391 489l264 297 q-28 25 -77 25q-40 0 -74 -31t-56 -81t-36 -103t-21 -107zM416 297q30 -33 88 -33q43 0 78.5 34.5t57 89.5t34.5 111t18 111z" />
<glyph unicode="&#xf9;" d="M35 348l127 727h360l-119 -665q-13 -58 -3.5 -100t51.5 -42q38 0 88 31.5t90 77.5l123 698h358l-188 -1075h-359l19 111q-82 -63 -158.5 -98.5t-159.5 -35.5q-142 0 -201.5 94t-27.5 277zM344 1493h358l160 -293h-274z" />
<glyph unicode="&#xfa;" d="M35 348l127 727h360l-119 -665q-13 -58 -3.5 -100t51.5 -42q38 0 88 31.5t90 77.5l123 698h358l-188 -1075h-359l19 111q-82 -63 -158.5 -98.5t-159.5 -35.5q-142 0 -201.5 94t-27.5 277zM432 1200l262 293h393l-348 -293h-307z" />
<glyph unicode="&#xfb;" d="M35 348l127 727h360l-119 -665q-13 -58 -3.5 -100t51.5 -42q38 0 88 31.5t90 77.5l123 698h358l-188 -1075h-359l19 111q-82 -63 -158.5 -98.5t-159.5 -35.5q-142 0 -201.5 94t-27.5 277zM307 1200l240 293h319l133 -293h-221l-86 137l-133 -137h-252z" />
<glyph unicode="&#xfc;" d="M35 348l127 727h360l-119 -665q-13 -58 -3.5 -100t51.5 -42q38 0 88 31.5t90 77.5l123 698h358l-188 -1075h-359l19 111q-82 -63 -158.5 -98.5t-159.5 -35.5q-142 0 -201.5 94t-27.5 277zM358 1221l50 274h264l-47 -274h-267zM702 1221l48 274h264l-47 -274h-265z" />
<glyph unicode="&#xfd;" horiz-adv-x="1048" d="M-18 -190q66 28 98.5 43t76.5 42t76 58l-149 1122h371l28 -612l246 612h389l-514 -1075q-25 -52 -41.5 -84t-46 -80t-56.5 -80t-69 -71.5t-88 -66.5t-108.5 -52.5t-135.5 -42.5zM399 1200l263 293h393l-348 -293h-308z" />
<glyph unicode="&#xfe;" horiz-adv-x="1126" d="M-94 -418l336 1911h360l-92 -522q154 127 293 127q128 0 200 -98t72 -271q0 -103 -18 -208t-56 -203t-91 -173.5t-129.5 -121.5t-164.5 -46q-59 0 -111 21t-81 44.5t-66 61.5l-92 -522h-360zM408 383q52 -104 124 -104q41 0 75.5 38.5t55.5 98t32.5 125.5t11.5 125 t-20.5 95t-61.5 36q-71 0 -164 -111z" />
<glyph unicode="&#xff;" horiz-adv-x="1048" d="M-18 -190q66 28 98.5 43t76.5 42t76 58l-149 1122h371l28 -612l246 612h389l-514 -1075q-25 -52 -41.5 -84t-46 -80t-56.5 -80t-69 -71.5t-88 -66.5t-108.5 -52.5t-135.5 -42.5zM324 1221l49 274h264l-47 -274h-266zM668 1221l47 274h264l-47 -274h-264z" />
<glyph unicode="&#x100;" horiz-adv-x="1255" d="M-106 0l677 1434h410l170 -1434h-395l-11 240h-342l-92 -240h-417zM522 545h213l-20 495zM526 1561l37 215h543l-37 -215h-543z" />
<glyph unicode="&#x101;" horiz-adv-x="1132" d="M29 346q0 109 19 216t57.5 203.5t92 170.5t129 118t162.5 44q45 0 84 -10.5t72 -32.5t53 -39t50 -47l18 106h360l-190 -1075h-358l18 111q-73 -61 -143.5 -97.5t-155.5 -36.5q-126 0 -197 98.5t-71 270.5zM397 406q0 -58 20 -92.5t58 -34.5q80 0 172 116l51 293 q-51 109 -127 109q-54 0 -95.5 -69t-60 -156t-18.5 -166zM430 1251l37 215h543l-37 -215h-543z" />
<glyph unicode="&#x102;" horiz-adv-x="1255" d="M-106 0l677 1434h410l170 -1434h-395l-11 240h-342l-92 -240h-417zM522 545h213l-20 495zM524 1782h207q-5 -34 17 -55t63 -21q56 0 92 21t41 55h209q-24 -128 -115.5 -200.5t-236.5 -72.5q-153 0 -225.5 76t-51.5 197z" />
<glyph unicode="&#x103;" horiz-adv-x="1132" d="M29 346q0 109 19 216t57.5 203.5t92 170.5t129 118t162.5 44q45 0 84 -10.5t72 -32.5t53 -39t50 -47l18 106h360l-190 -1075h-358l18 111q-73 -61 -143.5 -97.5t-155.5 -36.5q-126 0 -197 98.5t-71 270.5zM397 406q0 -58 20 -92.5t58 -34.5q80 0 172 116l51 293 q-51 109 -127 109q-54 0 -95.5 -69t-60 -156t-18.5 -166zM426 1473h207q-5 -34 17 -55t63 -21q56 0 92 21t41 55h209q-24 -127 -116 -200t-237 -73q-152 0 -224.5 76t-51.5 197z" />
<glyph unicode="&#x104;" horiz-adv-x="1255" d="M-106 0l677 1434h410l170 -1434h-6q-41 -30 -61.5 -45.5t-54 -45.5t-49 -57.5t-15.5 -54.5q0 -15 6.5 -25.5t15 -15.5t23 -8t23 -3t23.5 0.5t17 0.5l-59 -158q-1 0 -20.5 -0.5t-32.5 0t-37.5 2t-42 6t-41 12t-39.5 20.5t-30.5 30t-22 42t-7.5 56q0 141 201 244h-186 l-11 240h-342l-92 -240h-417zM522 545h213l-20 495z" />
<glyph unicode="&#x105;" horiz-adv-x="1132" d="M29 346q0 109 19 216t57.5 203.5t92 170.5t129 118t162.5 44q45 0 84 -10.5t72 -32.5t53 -39t50 -47l18 106h360l-190 -1075h-8q-41 -30 -61.5 -45.5t-54 -45.5t-49 -57.5t-15.5 -54.5q0 -15 6.5 -25.5t15 -15.5t23 -8t23 -3t23.5 0.5t17 0.5l-59 -158q-1 0 -20.5 -0.5 t-32.5 0t-37.5 2t-42 6t-41 12t-39.5 20.5t-30.5 30t-22 42t-7.5 56q0 141 201 244h-147l18 111q-73 -61 -143.5 -97.5t-155.5 -36.5q-126 0 -197 98.5t-71 270.5zM397 406q0 -58 20 -92.5t58 -34.5q80 0 172 116l51 293q-51 109 -127 109q-54 0 -95.5 -69t-60 -156 t-18.5 -166z" />
<glyph unicode="&#x106;" horiz-adv-x="1150" d="M66 522q0 138 24 270.5t74.5 253t123 211.5t176 145t226.5 54q77 0 149.5 -16.5t148.5 -52.5t120.5 -62t124.5 -76l-199 -278q-103 65 -175.5 98t-133.5 33q-69 0 -124.5 -56t-88 -142.5t-49.5 -180t-17 -180.5q0 -104 32 -158.5t104 -54.5q100 0 331 123l142 -308 q-165 -81 -301.5 -124.5t-268.5 -43.5q-205 0 -312 144.5t-107 400.5zM606 1509l262 293h394l-349 -293h-307z" />
<glyph unicode="&#x107;" horiz-adv-x="915" d="M27 397q0 172 41.5 309.5t110 221t152.5 127t175 43.5q41 0 79.5 -4.5t76.5 -15.5t65 -19t64.5 -26.5t54 -26.5t55 -29.5t47.5 -26.5l-166 -260l-25 15t-29.5 17t-28.5 15.5t-31.5 15.5t-29 11.5t-31 9t-27.5 2.5q-58 0 -102.5 -53.5t-65.5 -129.5t-21 -155 q0 -139 101 -139q7 0 16.5 1.5t18.5 3.5t21.5 6.5t21.5 7.5t24 9.5t23.5 10t25 11t24 11t25 12t23.5 11.5l102 -289q-267 -117 -420 -117q-166 0 -268 105.5t-102 314.5zM379 1200l262 293h393l-348 -293h-307z" />
<glyph unicode="&#x10a;" horiz-adv-x="1150" d="M66 522q0 138 24 270.5t74.5 253t123 211.5t176 145t226.5 54q77 0 149.5 -16.5t148.5 -52.5t120.5 -62t124.5 -76l-199 -278q-103 65 -175.5 98t-133.5 33q-69 0 -124.5 -56t-88 -142.5t-49.5 -180t-17 -180.5q0 -104 32 -158.5t104 -54.5q100 0 331 123l142 -308 q-165 -81 -301.5 -124.5t-268.5 -43.5q-205 0 -312 144.5t-107 400.5zM643 1530l49 280h271l-50 -280h-270z" />
<glyph unicode="&#x10b;" horiz-adv-x="915" d="M27 397q0 172 41.5 309.5t110 221t152.5 127t175 43.5q41 0 79.5 -4.5t76.5 -15.5t65 -19t64.5 -26.5t54 -26.5t55 -29.5t47.5 -26.5l-166 -260l-25 15t-29.5 17t-28.5 15.5t-31.5 15.5t-29 11.5t-31 9t-27.5 2.5q-58 0 -102.5 -53.5t-65.5 -129.5t-21 -155 q0 -139 101 -139q7 0 16.5 1.5t18.5 3.5t21.5 6.5t21.5 7.5t24 9.5t23.5 10t25 11t24 11t25 12t23.5 11.5l102 -289q-267 -117 -420 -117q-166 0 -268 105.5t-102 314.5zM471 1221l49 280h271l-50 -280h-270z" />
<glyph unicode="&#x10c;" horiz-adv-x="1150" d="M66 522q0 138 24 270.5t74.5 253t123 211.5t176 145t226.5 54q77 0 149.5 -16.5t148.5 -52.5t120.5 -62t124.5 -76l-199 -278q-103 65 -175.5 98t-133.5 33q-69 0 -124.5 -56t-88 -142.5t-49.5 -180t-17 -180.5q0 -104 32 -158.5t104 -54.5q100 0 331 123l142 -308 q-165 -81 -301.5 -124.5t-268.5 -43.5q-205 0 -312 144.5t-107 400.5zM479 1802h223l86 -137l134 137h252l-240 -293h-322z" />
<glyph unicode="&#x10d;" horiz-adv-x="913" d="M27 397q0 172 41.5 309.5t110 221t152.5 127t175 43.5q41 0 79.5 -4.5t76.5 -15.5t65 -19t64.5 -26.5t54 -26.5t55 -29.5t47.5 -26.5l-166 -260l-25 15t-29.5 17t-28.5 15.5t-31.5 15.5t-29 11.5t-31 9t-27.5 2.5q-58 0 -102.5 -53.5t-65.5 -129.5t-21 -155 q0 -139 101 -139q7 0 16.5 1.5t18.5 3.5t21.5 6.5t21.5 7.5t24 9.5t23.5 10t25 11t24 11t25 12t23.5 11.5l102 -289q-267 -117 -420 -117q-166 0 -268 105.5t-102 314.5zM305 1493h223l86 -137l134 137h251l-239 -293h-322z" />
<glyph unicode="&#x10e;" horiz-adv-x="1294" d="M2 0l252 1434h377q138 0 246 -28.5t179 -78t117.5 -120.5t66.5 -152t20 -178q0 -59 -6.5 -124.5t-28 -153.5t-54.5 -168t-92 -160.5t-135.5 -139t-190.5 -95t-251 -36.5h-500zM432 332h60q102 0 180.5 50t122.5 130.5t66 168.5t22 177q0 129 -66 186.5t-203 57.5h-45z M526 1802h224l86 -137l133 137h252l-240 -293h-322z" />
<glyph unicode="&#x10f;" horiz-adv-x="1275" d="M29 346q0 109 19 216t57.5 203.5t92 170.5t129 118t162.5 44q45 0 84 -10.5t72 -32.5t53 -39t50 -47l92 524h360l-264 -1493h-358l18 111q-73 -61 -143.5 -97.5t-155.5 -36.5q-126 0 -197 98.5t-71 270.5zM397 406q0 -58 20 -92.5t58 -34.5q81 0 172 118l51 291 q-51 109 -127 109q-54 0 -95.5 -69t-60 -156t-18.5 -166zM1190 1049l135 168h-104l49 276h241l-45 -311l-229 -219z" />
<glyph unicode="&#x110;" horiz-adv-x="1316" d="M6 567l51 299h119l100 568h377q138 0 246 -28.5t179 -78t117.5 -120.5t66.5 -152t20 -178q0 -59 -6.5 -124.5t-28 -153.5t-54.5 -168t-92 -160.5t-135.5 -139t-190.5 -95t-251 -36.5h-499l98 567h-117zM455 332h59q102 0 180.5 50t122.5 130.5t66 168.5t22 177 q0 129 -66 186.5t-202 57.5h-45l-43 -236h205l-52 -299h-206z" />
<glyph unicode="&#x111;" horiz-adv-x="1132" d="M29 346q0 109 19 216t57.5 203.5t92 170.5t129 118t162.5 44q45 0 84 -10.5t72 -32.5t53 -39t50 -47l34 198h-284l37 213h284l21 113h360l-20 -113h92l-39 -213h-90l-207 -1167h-358l18 111q-73 -61 -143.5 -97.5t-155.5 -36.5q-126 0 -197 98.5t-71 270.5zM397 406 q0 -58 20 -92.5t58 -34.5q81 0 172 118l51 291q-51 109 -127 109q-54 0 -95.5 -69t-60 -156t-18.5 -166z" />
<glyph unicode="&#x112;" horiz-adv-x="1095" d="M2 0l252 1434h913l-59 -332h-539l-39 -223h437l-58 -324h-436l-41 -223h549l-57 -332h-922zM467 1561l37 215h543l-37 -215h-543z" />
<glyph unicode="&#x113;" horiz-adv-x="1007" d="M23 412q0 199 66.5 353t198.5 243.5t312 89.5q173 0 277 -85t104 -229q0 -77 -20.5 -136.5t-59 -98.5t-85 -65t-109 -39t-119 -18t-125.5 -5h-78v-16q0 -152 102 -152q83 0 314 111l98 -254q-77 -42 -219.5 -88t-278.5 -46q-178 0 -278 105t-100 330zM373 1251l37 215 h542l-37 -215h-542zM408 616h61q84 0 134 37t50 105q0 33 -19.5 54.5t-55.5 21.5q-63 0 -105 -61t-65 -157z" />
<glyph unicode="&#x116;" horiz-adv-x="1095" d="M2 0l252 1434h913l-59 -332h-539l-39 -223h437l-58 -324h-436l-41 -223h549l-57 -332h-922zM598 1530l49 280h271l-50 -280h-270z" />
<glyph unicode="&#x117;" horiz-adv-x="1007" d="M23 412q0 199 66.5 353t198.5 243.5t312 89.5q173 0 277 -85t104 -229q0 -77 -20.5 -136.5t-59 -98.5t-85 -65t-109 -39t-119 -18t-125.5 -5h-78v-16q0 -152 102 -152q83 0 314 111l98 -254q-77 -42 -219.5 -88t-278.5 -46q-178 0 -278 105t-100 330zM408 616h61 q84 0 134 37t50 105q0 33 -19.5 54.5t-55.5 21.5q-63 0 -105 -61t-65 -157zM504 1221l49 280h270l-49 -280h-270z" />
<glyph unicode="&#x118;" horiz-adv-x="1095" d="M2 0l252 1434h913l-59 -332h-539l-39 -223h437l-58 -324h-436l-41 -223h549l-57 -332h-9q-41 -30 -61.5 -45.5t-54 -45.5t-49 -57.5t-15.5 -54.5q0 -15 6.5 -25.5t15 -15.5t23.5 -8t23.5 -3t23.5 0.5t17 0.5l-60 -158q-1 0 -20.5 -0.5t-32.5 0t-37.5 2t-42 6t-40.5 12 t-39 20.5t-30.5 30t-22 42t-7.5 56q0 141 201 244h-711z" />
<glyph unicode="&#x119;" horiz-adv-x="1009" d="M23 412q0 199 66.5 353t198.5 243.5t312 89.5q173 0 277 -85t104 -229q0 -77 -20.5 -136.5t-59 -98.5t-85 -65t-109 -39t-119 -18t-125.5 -5h-78v-16q0 -152 102 -152q83 0 314 111l98 -254q-44 -24 -131.5 -57t-183.5 -54q-43 -31 -62 -45.5t-53.5 -45t-50 -58 t-15.5 -54.5q0 -15 6.5 -25.5t15 -15.5t23.5 -8t23.5 -3t23.5 0.5t17 0.5l-59 -158q-1 0 -20.5 -0.5t-32.5 0t-37.5 2t-42 6t-41 12t-39.5 20.5t-30.5 30t-22 42t-7.5 56q0 129 166 226q-323 30 -323 430zM408 616h61q84 0 134 37t50 105q0 33 -19.5 54.5t-55.5 21.5 q-63 0 -105 -61t-65 -157z" />
<glyph unicode="&#x11a;" horiz-adv-x="1095" d="M2 0l252 1434h913l-59 -332h-539l-39 -223h437l-58 -324h-436l-41 -223h549l-57 -332h-922zM432 1802h223l86 -137l133 137h252l-239 -293h-322z" />
<glyph unicode="&#x11b;" horiz-adv-x="1007" d="M23 412q0 199 66.5 353t198.5 243.5t312 89.5q173 0 277 -85t104 -229q0 -77 -20.5 -136.5t-59 -98.5t-85 -65t-109 -39t-119 -18t-125.5 -5h-78v-16q0 -152 102 -152q83 0 314 111l98 -254q-77 -42 -219.5 -88t-278.5 -46q-178 0 -278 105t-100 330zM342 1493h223 l86 -137l133 137h252l-239 -293h-322zM408 616h61q84 0 134 37t50 105q0 33 -19.5 54.5t-55.5 21.5q-63 0 -105 -61t-65 -157z" />
<glyph unicode="&#x11e;" horiz-adv-x="1247" d="M66 512q0 119 17.5 233t52 220t88.5 195t122.5 155.5t160 103.5t195.5 37q65 0 133 -13.5t118 -30.5t117 -50.5t102.5 -54t101.5 -60.5l-197 -278q-82 45 -123 66.5t-105 44t-112 22.5q-72 0 -130 -54.5t-91.5 -140.5t-51.5 -182.5t-18 -189.5q0 -67 9.5 -113t41 -79.5 t85.5 -33.5q53 0 111 36t102 83l20 113h-225l53 307h569l-149 -848h-344l20 123q-71 -71 -142.5 -108.5t-158.5 -37.5q-170 0 -271 138.5t-101 396.5zM512 1782h207q-5 -34 17 -55t63 -21q56 0 92 21t41 55h209q-24 -127 -116 -200t-237 -73q-152 0 -224.5 76t-51.5 197z " />
<glyph unicode="&#x11f;" horiz-adv-x="1132" d="M-70 -346l119 285q80 -32 180.5 -57t173.5 -25q87 0 124.5 39.5t50.5 119.5l16 90q-73 -59 -143.5 -94t-153.5 -35q-126 0 -197 98.5t-71 270.5q0 137 31 269t87 240.5t145.5 175.5t196.5 67q58 0 109.5 -21t80.5 -44.5t66 -61.5l19 104h360l-184 -1038 q-25 -142 -63.5 -234t-100.5 -145.5t-141 -74.5t-195 -21q-252 0 -510 92zM397 406q0 -58 20 -92.5t58 -34.5q81 0 168 114l53 299q-25 50 -57.5 77.5t-67.5 27.5q-54 0 -95.5 -69t-60 -156t-18.5 -166zM410 1473h206q-5 -34 17 -55t63 -21q56 0 92 21t41 55h209 q-24 -128 -115.5 -200.5t-236.5 -72.5q-152 0 -224.5 76t-51.5 197z" />
<glyph unicode="&#x120;" horiz-adv-x="1247" d="M66 512q0 119 17.5 233t52 220t88.5 195t122.5 155.5t160 103.5t195.5 37q65 0 133 -13.5t118 -30.5t117 -50.5t102.5 -54t101.5 -60.5l-197 -278q-82 45 -123 66.5t-105 44t-112 22.5q-72 0 -130 -54.5t-91.5 -140.5t-51.5 -182.5t-18 -189.5q0 -67 9.5 -113t41 -79.5 t85.5 -33.5q53 0 111 36t102 83l20 113h-225l53 307h569l-149 -848h-344l20 123q-71 -71 -142.5 -108.5t-158.5 -37.5q-170 0 -271 138.5t-101 396.5zM647 1530l49 280h271l-49 -280h-271z" />
<glyph unicode="&#x121;" horiz-adv-x="1132" d="M-70 -346l119 285q80 -32 180.5 -57t173.5 -25q87 0 124.5 39.5t50.5 119.5l16 90q-73 -59 -143.5 -94t-153.5 -35q-126 0 -197 98.5t-71 270.5q0 137 31 269t87 240.5t145.5 175.5t196.5 67q58 0 109.5 -21t80.5 -44.5t66 -61.5l19 104h360l-184 -1038 q-25 -142 -63.5 -234t-100.5 -145.5t-141 -74.5t-195 -21q-252 0 -510 92zM397 406q0 -58 20 -92.5t58 -34.5q81 0 168 114l53 299q-25 50 -57.5 77.5t-67.5 27.5q-54 0 -95.5 -69t-60 -156t-18.5 -166zM541 1221l49 280h270l-49 -280h-270z" />
<glyph unicode="&#x122;" horiz-adv-x="1247" d="M66 512q0 119 17.5 233t52 220t88.5 195t122.5 155.5t160 103.5t195.5 37q65 0 133 -13.5t118 -30.5t117 -50.5t102.5 -54t101.5 -60.5l-197 -278q-82 45 -123 66.5t-105 44t-112 22.5q-72 0 -130 -54.5t-91.5 -140.5t-51.5 -182.5t-18 -189.5q0 -67 9.5 -113t41 -79.5 t85.5 -33.5q53 0 111 36t102 83l20 113h-225l53 307h569l-149 -848h-344l20 123q-71 -71 -142.5 -108.5t-158.5 -37.5q-170 0 -271 138.5t-101 396.5zM315 -553l136 168h-105l49 276h242l-45 -311l-230 -219z" />
<glyph unicode="&#x123;" horiz-adv-x="1132" d="M-70 -346l119 285q80 -32 180.5 -57t173.5 -25q87 0 124.5 39.5t50.5 119.5l16 90q-73 -59 -143.5 -94t-153.5 -35q-126 0 -197 98.5t-71 270.5q0 137 31 269t87 240.5t145.5 175.5t196.5 67q58 0 109.5 -21t80.5 -44.5t66 -61.5l19 104h360l-184 -1038 q-25 -142 -63.5 -234t-100.5 -145.5t-141 -74.5t-195 -21q-252 0 -510 92zM397 406q0 -58 20 -92.5t58 -34.5q81 0 168 114l53 299q-25 50 -57.5 77.5t-67.5 27.5q-54 0 -95.5 -69t-60 -156t-18.5 -166zM571 1221l45 311l230 219l47 -86l-135 -168h104l-49 -276h-242z" />
<glyph unicode="&#x126;" horiz-adv-x="1339" d="M25 0l184 1049h-125l39 215h123l30 170h373l-31 -170h328l31 170h373l-31 -170h129l-37 -215h-129l-184 -1049h-373l102 590h-327l-103 -590h-372zM557 915h328l22 134h-327z" />
<glyph unicode="&#x127;" d="M-20 0l204 1167h-94l39 213h92l21 113h360l-20 -113h282l-39 -213h-280l-35 -200q84 62 158 96.5t157 34.5q143 0 203 -94.5t27 -276.5l-127 -727h-361l117 666q14 58 5.5 99.5t-50.5 41.5q-38 0 -86.5 -31t-89.5 -76l-123 -700h-360z" />
<glyph unicode="&#x128;" horiz-adv-x="593" d="M2 0l252 1434h373l-252 -1434h-373zM123 1612q26 41 36.5 57t33.5 49t39 47t40 32t49 25t54 7q39 0 84.5 -24t83.5 -48t61 -24q44 0 107 96l135 -98q-70 -109 -100 -142q-69 -75 -154 -76q-39 0 -83.5 24t-82 48.5t-59.5 24.5q-45 0 -111 -99z" />
<glyph unicode="&#x129;" horiz-adv-x="538" d="M-20 0l188 1075h360l-190 -1075h-358zM39 1303q26 41 36.5 57t33.5 49t39 47t40 32t49 25t54 7q31 0 66.5 -15t61.5 -33.5t54 -33.5t47 -15q43 0 107 97l135 -99q-70 -109 -101 -143q-69 -74 -153 -74q-39 0 -83.5 24t-82 48t-59.5 24q-46 0 -111 -98z" />
<glyph unicode="&#x12a;" horiz-adv-x="593" d="M2 0l252 1434h373l-252 -1434h-373zM193 1561l36 215h543l-37 -215h-542z" />
<glyph unicode="&#x12b;" horiz-adv-x="536" d="M-20 0l188 1075h360l-190 -1075h-358zM106 1251l37 215h543l-37 -215h-543z" />
<glyph unicode="&#x12c;" horiz-adv-x="593" d="M2 0l252 1434h373l-252 -1434h-373zM190 1782h207q-5 -34 17 -55t63 -21q56 0 92 21t41 55h209q-24 -128 -115.5 -200.5t-236.5 -72.5q-153 0 -225.5 76t-51.5 197z" />
<glyph unicode="&#x12d;" horiz-adv-x="534" d="M-20 0l188 1075h360l-190 -1075h-358zM104 1473h207q-5 -34 17 -55t63 -21q56 0 92 21t41 55h209q-24 -128 -115.5 -200.5t-236.5 -72.5q-153 0 -225.5 76t-51.5 197z" />
<glyph unicode="&#x12e;" horiz-adv-x="591" d="M-37 -244q0 141 201 244h-162l252 1434h373l-252 -1434h-8q-43 -31 -62 -45.5t-53.5 -45t-50 -58t-15.5 -54.5q0 -15 6.5 -25.5t15 -15.5t23.5 -8t23.5 -3t23.5 0.5t17 0.5l-59 -158q-1 0 -20.5 -0.5t-32.5 0t-37.5 2t-42 6t-41 12t-39.5 20.5t-30.5 30t-22 42t-7.5 56z " />
<glyph unicode="&#x12f;" horiz-adv-x="534" d="M-72 -244q0 141 201 244h-149l188 1075h360l-190 -1075h-6q-41 -30 -61.5 -45.5t-54 -45.5t-49 -57.5t-15.5 -54.5q0 -15 6.5 -25.5t15 -15.5t23 -8t23 -3t23.5 0.5t17 0.5l-59 -158q-1 0 -20.5 -0.5t-32.5 0t-37.5 2t-42 6t-41 12t-39.5 20.5t-30.5 30t-22 42t-7.5 56z M182 1192l54 295h370l-51 -295h-373z" />
<glyph unicode="&#x130;" horiz-adv-x="593" d="M2 0l252 1434h373l-252 -1434h-373zM322 1530l49 280h270l-49 -280h-270z" />
<glyph unicode="&#x131;" horiz-adv-x="534" d="M-20 0l188 1075h360l-190 -1075h-358z" />
<glyph unicode="&#x132;" horiz-adv-x="1187" d="M2 0l252 1434h373l-252 -1434h-373zM381 -102q76 28 118 49t67.5 49.5t34.5 55t20 79.5l227 1303h375l-226 -1280q-32 -177 -56 -241q-43 -111 -145 -177q-106 -70 -333 -131z" />
<glyph unicode="&#x133;" horiz-adv-x="1071" d="M-20 0l188 1075h360l-190 -1075h-358zM182 1192l54 295h370l-51 -295h-373zM283 -195q64 25 101.5 43t63.5 34.5t39.5 41t20 47t14.5 68.5l183 1036h358l-176 -1003q-32 -180 -58 -247q-46 -117 -151 -184q-109 -68 -324 -118zM719 1192l51 295h373l-53 -295h-371z" />
<glyph unicode="&#x134;" horiz-adv-x="593" d="M-213 -102q76 28 118 49t67.5 49.5t34.5 55t20 79.5l227 1303h375l-226 -1280q-32 -177 -56 -241q-43 -111 -145 -177q-106 -70 -333 -131zM106 1509l240 293h320l133 -293h-221l-86 138l-134 -138h-252z" />
<glyph unicode="&#x135;" horiz-adv-x="534" d="M-252 -195q80 31 121 50.5t67 47.5t34 54t18 82l182 1036h358l-176 -1003q-14 -83 -22.5 -123t-26.5 -100t-40.5 -90t-60.5 -70.5t-90.5 -65.5t-126 -52t-171.5 -50zM20 1200l240 293h320l133 -293h-221l-86 137l-134 -137h-252z" />
<glyph unicode="&#x136;" horiz-adv-x="1265" d="M2 0l252 1434h373l-84 -478l397 478h479l-596 -654l344 -780h-413l-195 492l-121 -134l-63 -358h-373zM301 -553l135 168h-104l49 276h242l-45 -311l-230 -219z" />
<glyph unicode="&#x137;" horiz-adv-x="1062" d="M-20 0l262 1493h360l-125 -711l215 293h430l-393 -438l250 -637h-369l-125 367l-100 -113l-45 -254h-360zM211 -553l135 168h-104l49 276h241l-45 -311l-229 -219z" />
<glyph unicode="&#x138;" horiz-adv-x="1062" d="M-20 0l188 1075h360l-51 -293l215 293h430l-393 -438l250 -637h-369l-125 367l-100 -113l-45 -254h-360z" />
<glyph unicode="&#x139;" horiz-adv-x="1026" d="M2 0l252 1434h373l-195 -1106h522l-55 -328h-897zM231 1509l263 293h393l-348 -293h-308z" />
<glyph unicode="&#x13a;" horiz-adv-x="536" d="M-18 0l262 1493h360l-262 -1493h-360zM211 1569l262 293h393l-348 -293h-307z" />
<glyph unicode="&#x13b;" horiz-adv-x="1026" d="M2 0l252 1434h373l-195 -1106h522l-55 -328h-897zM217 -553l135 168h-104l49 276h242l-45 -311l-230 -219z" />
<glyph unicode="&#x13c;" horiz-adv-x="538" d="M-53 -553l135 168h-105l50 276h241l-45 -311l-229 -219zM-18 0l262 1493h360l-262 -1493h-360z" />
<glyph unicode="&#x13d;" horiz-adv-x="1026" d="M2 0l252 1434h373l-195 -1106h522l-55 -328h-897zM618 989l136 168h-105l49 277h242l-45 -312l-229 -219z" />
<glyph unicode="&#x13e;" horiz-adv-x="686" d="M-18 0l262 1493h360l-262 -1493h-360zM596 1049l135 168h-104l49 276h242l-46 -311l-229 -219z" />
<glyph unicode="&#x13f;" horiz-adv-x="1026" d="M2 0l252 1434h373l-195 -1106h522l-55 -328h-897zM670 618l49 281h270l-49 -281h-270z" />
<glyph unicode="&#x140;" horiz-adv-x="761" d="M-18 0l262 1493h360l-262 -1493h-360zM516 618l49 281h271l-50 -281h-270z" />
<glyph unicode="&#x141;" horiz-adv-x="1044" d="M-25 362l60 340l125 72l116 660h373l-76 -422l244 139l-61 -340l-242 -139l-59 -344h522l-55 -328h-897l75 434z" />
<glyph unicode="&#x142;" horiz-adv-x="630" d="M8 399l60 338l108 64l123 692h360l-81 -461l104 60l-59 -342l-105 -60l-121 -690h-360l80 461z" />
<glyph unicode="&#x143;" horiz-adv-x="1318" d="M2 0l252 1434h375l215 -789l137 789h373l-252 -1434h-373l-217 793l-137 -793h-373zM604 1509l262 293h394l-349 -293h-307z" />
<glyph unicode="&#x144;" horiz-adv-x="1118" d="M-20 0l188 1075h360l-20 -108q171 131 317 131q143 0 203 -94.5t27 -276.5l-127 -727h-361l119 668q13 56 4 97.5t-51 41.5q-39 0 -87 -31t-89 -78l-123 -698h-360zM440 1200l262 293h394l-348 -293h-308z" />
<glyph unicode="&#x145;" horiz-adv-x="1318" d="M2 0l252 1434h375l215 -789l137 789h373l-252 -1434h-373l-217 793l-137 -793h-373zM348 -553l135 168h-104l49 276h242l-45 -311l-230 -219z" />
<glyph unicode="&#x146;" d="M-20 0l188 1075h360l-20 -108q171 131 317 131q143 0 203 -94.5t27 -276.5l-127 -727h-361l119 668q13 56 4 97.5t-51 41.5q-39 0 -87 -31t-89 -78l-123 -698h-360zM238 -553l135 168h-105l49 276h242l-45 -311l-229 -219z" />
<glyph unicode="&#x147;" horiz-adv-x="1318" d="M2 0l252 1434h375l215 -789l137 789h373l-252 -1434h-373l-217 793l-137 -793h-373zM532 1802h224l86 -137l133 137h252l-240 -293h-321z" />
<glyph unicode="&#x148;" d="M-20 0l188 1075h360l-20 -108q171 131 317 131q143 0 203 -94.5t27 -276.5l-127 -727h-361l119 668q13 56 4 97.5t-51 41.5q-39 0 -87 -31t-89 -78l-123 -698h-360zM369 1493h223l86 -137l133 137h252l-240 -293h-321z" />
<glyph unicode="&#x149;" d="M-20 0l188 1075h360l-20 -108q171 131 317 131q143 0 203 -94.5t27 -276.5l-127 -727h-361l119 668q13 56 4 97.5t-51 41.5q-39 0 -87 -31t-89 -78l-123 -698h-360zM197 1219l135 167h-105l49 277h242l-45 -311l-229 -219z" />
<glyph unicode="&#x14a;" horiz-adv-x="1320" d="M2 0l252 1434h375l215 -787l137 787h373l-232 -1315q-9 -50 -15.5 -81t-17.5 -70t-21.5 -63t-27.5 -54.5t-37 -50.5t-48 -43.5t-62.5 -41t-79 -37.5t-98 -37.5t-119.5 -35.5l-82 293q94 35 140 60.5t69 61.5l-211 773l-137 -793h-373z" />
<glyph unicode="&#x14b;" d="M-20 0l190 1075h358l-20 -108q83 62 159 96.5t158 34.5q144 0 204 -94t28 -277l-117 -655q-32 -181 -59 -249q-46 -117 -153 -184q-107 -66 -318 -116l-74 282q64 25 101.5 43t63.5 34.5t39.5 41t20 47t14.5 68.5l111 627q13 57 4 99t-49 42t-89 -31t-89 -78l-123 -698 h-360z" />
<glyph unicode="&#x14c;" horiz-adv-x="1361" d="M68 553q0 94 16 192.5t48.5 201.5t88.5 193t129.5 161.5t179.5 113t230 41.5q268 0 418.5 -144t150.5 -425q0 -80 -11 -164.5t-36 -174t-62.5 -171.5t-94 -155.5t-125.5 -127.5t-162.5 -85.5t-200.5 -31.5q-267 0 -418 146t-151 430zM449 555q0 -55 9.5 -97.5t31 -77 t62 -53t97.5 -18.5q64 0 117.5 47t86 115t55 150t31.5 147.5t9 110.5q0 75 -16.5 126.5t-62.5 85t-121 33.5q-64 0 -117.5 -46.5t-86 -115t-55 -150t-31.5 -147t-9 -110.5zM580 1561l36 215h543l-37 -215h-542z" />
<glyph unicode="&#x14d;" horiz-adv-x="1107" d="M29 422q0 91 17 181t58.5 180.5t102.5 159.5t157.5 112t215.5 43q75 0 142.5 -15t128.5 -49t105.5 -84.5t70.5 -126.5t26 -170q0 -91 -17 -181t-58.5 -180.5t-102.5 -159.5t-157.5 -112t-215.5 -43q-75 0 -142.5 15t-128.5 49t-105.5 84.5t-70.5 126.5t-26 170zM387 414 q0 -74 26.5 -112t90.5 -38q48 0 87 44.5t60 110.5t32 129.5t11 113.5q0 74 -26 111.5t-90 37.5q-48 0 -87 -44.5t-60.5 -110t-32.5 -129.5t-11 -113zM395 1251l37 215h543l-37 -215h-543z" />
<glyph unicode="&#x14e;" horiz-adv-x="1361" d="M68 553q0 94 16 192.5t48.5 201.5t88.5 193t129.5 161.5t179.5 113t230 41.5q268 0 418.5 -144t150.5 -425q0 -80 -11 -164.5t-36 -174t-62.5 -171.5t-94 -155.5t-125.5 -127.5t-162.5 -85.5t-200.5 -31.5q-267 0 -418 146t-151 430zM449 555q0 -55 9.5 -97.5t31 -77 t62 -53t97.5 -18.5q64 0 117.5 47t86 115t55 150t31.5 147.5t9 110.5q0 75 -16.5 126.5t-62.5 85t-121 33.5q-64 0 -117.5 -46.5t-86 -115t-55 -150t-31.5 -147t-9 -110.5zM575 1782h207q-5 -34 17 -55t63 -21q56 0 92 21t41 55h209q-24 -128 -115.5 -200.5t-236.5 -72.5 q-153 0 -225.5 76t-51.5 197z" />
<glyph unicode="&#x14f;" horiz-adv-x="1107" d="M29 422q0 91 17 181t58.5 180.5t102.5 159.5t157.5 112t215.5 43q75 0 142.5 -15t128.5 -49t105.5 -84.5t70.5 -126.5t26 -170q0 -91 -17 -181t-58.5 -180.5t-102.5 -159.5t-157.5 -112t-215.5 -43q-75 0 -142.5 15t-128.5 49t-105.5 84.5t-70.5 126.5t-26 170zM387 414 q0 -74 26.5 -112t90.5 -38q48 0 87 44.5t60 110.5t32 129.5t11 113.5q0 74 -26 111.5t-90 37.5q-48 0 -87 -44.5t-60.5 -110t-32.5 -129.5t-11 -113zM393 1473h207q-5 -34 17 -55t63 -21q56 0 92 21t41 55h209q-24 -128 -115.5 -200.5t-236.5 -72.5q-153 0 -225.5 76 t-51.5 197z" />
<glyph unicode="&#x150;" horiz-adv-x="1361" d="M68 553q0 94 16 192.5t48.5 201.5t88.5 193t129.5 161.5t179.5 113t230 41.5q268 0 418.5 -144t150.5 -425q0 -80 -11 -164.5t-36 -174t-62.5 -171.5t-94 -155.5t-125.5 -127.5t-162.5 -85.5t-200.5 -31.5q-267 0 -418 146t-151 430zM449 555q0 -55 9.5 -97.5t31 -77 t62 -53t97.5 -18.5q64 0 117.5 47t86 115t55 150t31.5 147.5t9 110.5q0 75 -16.5 126.5t-62.5 85t-121 33.5q-64 0 -117.5 -46.5t-86 -115t-55 -150t-31.5 -147t-9 -110.5zM535 1509l190 293h293l-275 -293h-208zM881 1509l190 293h293l-274 -293h-209z" />
<glyph unicode="&#x151;" horiz-adv-x="1107" d="M29 422q0 91 17 181t58.5 180.5t102.5 159.5t157.5 112t215.5 43q75 0 142.5 -15t128.5 -49t105.5 -84.5t70.5 -126.5t26 -170q0 -91 -17 -181t-58.5 -180.5t-102.5 -159.5t-157.5 -112t-215.5 -43q-75 0 -142.5 15t-128.5 49t-105.5 84.5t-70.5 126.5t-26 170zM352 1200 l191 293h293l-275 -293h-209zM387 414q0 -74 26.5 -112t90.5 -38q48 0 87 44.5t60 110.5t32 129.5t11 113.5q0 74 -26 111.5t-90 37.5q-48 0 -87 -44.5t-60.5 -110t-32.5 -129.5t-11 -113zM698 1200l191 293h293l-275 -293h-209z" />
<glyph unicode="&#x152;" horiz-adv-x="1916" d="M68 553q0 94 16 192.5t48.5 201.5t88.5 193t129.5 161.5t179.5 113t230 41.5q177 0 307 -65l8 43h914l-60 -332h-538l-39 -223h436l-57 -324h-437l-41 -223h549l-57 -332h-922v4q-93 -27 -186 -27q-267 0 -418 146t-151 430zM449 555q0 -55 9.5 -97.5t31 -77t62 -53 t97.5 -18.5q64 0 117.5 47t86 115t55 150t31.5 147.5t9 110.5q0 75 -16.5 126.5t-62.5 85t-121 33.5q-64 0 -117.5 -46.5t-86 -115t-55 -150t-31.5 -147t-9 -110.5z" />
<glyph unicode="&#x153;" horiz-adv-x="1667" d="M29 422q0 91 17 181t58.5 180.5t102.5 159.5t157.5 112t215.5 43q210 0 338 -111q143 111 342 111q173 0 276.5 -85t103.5 -229q0 -77 -20.5 -136.5t-59 -98.5t-85 -65t-109 -39t-119 -18t-125.5 -5h-78v-16q0 -152 103 -152q82 0 313 111l99 -254q-77 -42 -219.5 -88 t-278.5 -46q-168 0 -264 89q-123 -89 -295 -89q-75 0 -142.5 15t-128.5 49t-105.5 84.5t-70.5 126.5t-26 170zM387 414q0 -74 26.5 -112t90.5 -38q48 0 87 44.5t60 110.5t32 129.5t11 113.5q0 74 -26 111.5t-90 37.5q-48 0 -87 -44.5t-60.5 -110t-32.5 -129.5t-11 -113z M1067 616h61q84 0 134.5 37t50.5 105q0 33 -20 54.5t-56 21.5q-63 0 -105 -61t-65 -157z" />
<glyph unicode="&#x154;" horiz-adv-x="1259" d="M2 0l252 1434h512q512 0 512 -383q0 -55 -10 -110t-36.5 -118t-66.5 -115.5t-107.5 -97t-152.5 -67.5l193 -543h-389l-158 520h-84l-92 -520h-373zM520 825h154q114 0 167.5 53.5t53.5 137.5q0 64 -43.5 88t-126.5 24h-152zM592 1509l262 293h393l-348 -293h-307z" />
<glyph unicode="&#x155;" horiz-adv-x="790" d="M-20 0l188 1075h360l-39 -221q15 27 31.5 52t51 63t72 63.5t92.5 42.5t114 12l-64 -354q-59 0 -112.5 -21t-91.5 -55t-69.5 -74.5t-51.5 -81.5t-34 -75t-20 -55l-6 -21l-61 -350h-360zM307 1200l262 293h394l-349 -293h-307z" />
<glyph unicode="&#x156;" horiz-adv-x="1259" d="M2 0l252 1434h512q512 0 512 -383q0 -55 -10 -110t-36.5 -118t-66.5 -115.5t-107.5 -97t-152.5 -67.5l193 -543h-389l-158 520h-84l-92 -520h-373zM297 -553l135 168h-104l49 276h241l-45 -311l-229 -219zM520 825h154q114 0 167.5 53.5t53.5 137.5q0 64 -43.5 88 t-126.5 24h-152z" />
<glyph unicode="&#x157;" horiz-adv-x="790" d="M-55 -553l135 168h-105l50 276h241l-45 -311l-229 -219zM-20 0l188 1075h360l-39 -221q15 27 31.5 52t51 63t72 63.5t92.5 42.5t114 12l-64 -354q-59 0 -112.5 -21t-91.5 -55t-69.5 -74.5t-51.5 -81.5t-34 -75t-20 -55l-6 -21l-61 -350h-360z" />
<glyph unicode="&#x158;" horiz-adv-x="1259" d="M2 0l252 1434h512q512 0 512 -383q0 -55 -10 -110t-36.5 -118t-66.5 -115.5t-107.5 -97t-152.5 -67.5l193 -543h-389l-158 520h-84l-92 -520h-373zM520 825h154q114 0 167.5 53.5t53.5 137.5q0 64 -43.5 88t-126.5 24h-152zM520 1802h223l86 -137l134 137h251l-239 -293 h-322z" />
<glyph unicode="&#x159;" horiz-adv-x="790" d="M-20 0l188 1075h360l-39 -221q15 27 31.5 52t51 63t72 63.5t92.5 42.5t114 12l-64 -354q-59 0 -112.5 -21t-91.5 -55t-69.5 -74.5t-51.5 -81.5t-34 -75t-20 -55l-6 -21l-61 -350h-360zM236 1493h223l86 -137l133 137h252l-240 -293h-321z" />
<glyph unicode="&#x15a;" horiz-adv-x="1157" d="M-33 197l205 266q98 -65 203.5 -112.5t181.5 -47.5q52 0 85.5 25.5t33.5 68.5q0 33 -25 60.5t-54.5 43.5t-91.5 46t-99 51q-133 85 -205 183t-72 231q0 89 32 168t92.5 141t158 98.5t219.5 36.5q279 0 567 -180l-209 -268q-75 48 -171.5 85t-164.5 37q-51 0 -84.5 -23 t-33.5 -71q0 -25 11.5 -45t38.5 -38t53.5 -31t76 -36.5t86.5 -43.5q59 -36 103.5 -73t87.5 -87.5t66 -115.5t23 -140q0 -87 -32.5 -166.5t-94.5 -143t-162.5 -101.5t-224.5 -38q-170 0 -324 62.5t-276 157.5zM508 1509l262 293h393l-348 -293h-307z" />
<glyph unicode="&#x15b;" horiz-adv-x="970" d="M-45 141l168 248q77 -48 174.5 -86.5t159.5 -38.5q31 0 48 11.5t17 29.5q0 16 -8 28t-27.5 22.5t-37 17.5t-51.5 19.5t-56 21.5q-55 23 -97.5 48.5t-84.5 64t-65 93.5t-23 121q0 154 110.5 255.5t309.5 101.5q124 0 246.5 -39.5t215.5 -93.5l-166 -246 q-70 37 -149.5 65.5t-132.5 28.5q-31 0 -48.5 -11.5t-17.5 -29.5q0 -16 7.5 -27.5t25.5 -21.5t35 -16.5t50.5 -18.5t57.5 -22q42 -18 75.5 -35.5t73 -47t65.5 -62.5t43.5 -81.5t17.5 -103.5q0 -75 -27.5 -139.5t-80.5 -114t-136 -77.5t-188 -28q-142 0 -273.5 47.5 t-230.5 116.5zM375 1200l262 293h393l-348 -293h-307z" />
<glyph unicode="&#x15c;" horiz-adv-x="1157" d="M-33 197l205 266q98 -65 203.5 -112.5t181.5 -47.5q52 0 85.5 25.5t33.5 68.5q0 33 -25 60.5t-54.5 43.5t-91.5 46t-99 51q-133 85 -205 183t-72 231q0 89 32 168t92.5 141t158 98.5t219.5 36.5q279 0 567 -180l-209 -268q-75 48 -171.5 85t-164.5 37q-51 0 -84.5 -23 t-33.5 -71q0 -25 11.5 -45t38.5 -38t53.5 -31t76 -36.5t86.5 -43.5q59 -36 103.5 -73t87.5 -87.5t66 -115.5t23 -140q0 -87 -32.5 -166.5t-94.5 -143t-162.5 -101.5t-224.5 -38q-170 0 -324 62.5t-276 157.5zM387 1509l240 293h319l133 -293h-221l-86 138l-133 -138h-252z " />
<glyph unicode="&#x15d;" horiz-adv-x="970" d="M-45 141l168 248q77 -48 174.5 -86.5t159.5 -38.5q31 0 48 11.5t17 29.5q0 16 -8 28t-27.5 22.5t-37 17.5t-51.5 19.5t-56 21.5q-55 23 -97.5 48.5t-84.5 64t-65 93.5t-23 121q0 154 110.5 255.5t309.5 101.5q124 0 246.5 -39.5t215.5 -93.5l-166 -246 q-70 37 -149.5 65.5t-132.5 28.5q-31 0 -48.5 -11.5t-17.5 -29.5q0 -16 7.5 -27.5t25.5 -21.5t35 -16.5t50.5 -18.5t57.5 -22q42 -18 75.5 -35.5t73 -47t65.5 -62.5t43.5 -81.5t17.5 -103.5q0 -75 -27.5 -139.5t-80.5 -114t-136 -77.5t-188 -28q-142 0 -273.5 47.5 t-230.5 116.5zM252 1200l240 293h319l133 -293h-221l-86 137l-133 -137h-252z" />
<glyph unicode="&#x15e;" horiz-adv-x="1157" d="M-33 197l205 266q98 -65 203.5 -112.5t181.5 -47.5q52 0 85.5 25.5t33.5 68.5q0 33 -25 60.5t-54.5 43.5t-91.5 46t-99 51q-133 85 -205 183t-72 231q0 89 32 168t92.5 141t158 98.5t219.5 36.5q279 0 567 -180l-209 -268q-75 48 -171.5 85t-164.5 37q-51 0 -84.5 -23 t-33.5 -71q0 -25 11.5 -45t38.5 -38t53.5 -31t76 -36.5t86.5 -43.5q59 -36 103.5 -73t87.5 -87.5t66 -115.5t23 -140q0 -84 -30.5 -160.5t-88 -139t-150 -102t-208.5 -44.5q25 -67 25 -132q0 -119 -69.5 -178t-170.5 -59q-104 0 -170 47l98 176q36 -22 72 -22q78 0 78 86 q0 43 -18 88q-259 36 -482 211z" />
<glyph unicode="&#x15f;" horiz-adv-x="970" d="M-45 141l168 248q77 -48 174.5 -86.5t159.5 -38.5q31 0 48 11.5t17 29.5q0 16 -8 28t-27.5 22.5t-37 17.5t-51.5 19.5t-56 21.5q-55 23 -97.5 48.5t-84.5 64t-65 93.5t-23 121q0 154 110.5 255.5t309.5 101.5q124 0 246.5 -39.5t215.5 -93.5l-166 -246 q-70 37 -149.5 65.5t-132.5 28.5q-31 0 -48.5 -11.5t-17.5 -29.5q0 -16 7.5 -27.5t25.5 -21.5t35 -16.5t50.5 -18.5t57.5 -22q42 -18 75.5 -35.5t73 -47t65.5 -62.5t43.5 -81.5t17.5 -103.5q0 -139 -91.5 -235.5t-260.5 -116.5q24 -65 24 -136q0 -119 -69 -178t-170 -59 q-104 0 -170 47l98 176q36 -22 72 -22q77 0 77 86q0 38 -16 84q-123 11 -235.5 55.5t-194.5 103.5z" />
<glyph unicode="&#x160;" horiz-adv-x="1157" d="M-33 197l205 266q98 -65 203.5 -112.5t181.5 -47.5q52 0 85.5 25.5t33.5 68.5q0 33 -25 60.5t-54.5 43.5t-91.5 46t-99 51q-133 85 -205 183t-72 231q0 89 32 168t92.5 141t158 98.5t219.5 36.5q279 0 567 -180l-209 -268q-75 48 -171.5 85t-164.5 37q-51 0 -84.5 -23 t-33.5 -71q0 -25 11.5 -45t38.5 -38t53.5 -31t76 -36.5t86.5 -43.5q59 -36 103.5 -73t87.5 -87.5t66 -115.5t23 -140q0 -87 -32.5 -166.5t-94.5 -143t-162.5 -101.5t-224.5 -38q-170 0 -324 62.5t-276 157.5zM438 1802h224l86 -137l133 137h252l-240 -293h-322z" />
<glyph unicode="&#x161;" horiz-adv-x="968" d="M-45 141l168 248q77 -48 174.5 -86.5t159.5 -38.5q31 0 48 11.5t17 29.5q0 16 -8 28t-27.5 22.5t-37 17.5t-51.5 19.5t-56 21.5q-55 23 -97.5 48.5t-84.5 64t-65 93.5t-23 121q0 154 110.5 255.5t309.5 101.5q124 0 246.5 -39.5t215.5 -93.5l-166 -246 q-70 37 -149.5 65.5t-132.5 28.5q-31 0 -48.5 -11.5t-17.5 -29.5q0 -16 7.5 -27.5t25.5 -21.5t35 -16.5t50.5 -18.5t57.5 -22q42 -18 75.5 -35.5t73 -47t65.5 -62.5t43.5 -81.5t17.5 -103.5q0 -75 -27.5 -139.5t-80.5 -114t-136 -77.5t-188 -28q-142 0 -273.5 47.5 t-230.5 116.5zM299 1493h223l86 -137l133 137h252l-239 -293h-322z" />
<glyph unicode="&#x162;" horiz-adv-x="1054" d="M109 1102l59 332h1010l-60 -332h-315l-195 -1102h-110q32 -64 32 -152q0 -119 -69 -178t-170 -59q-104 0 -170 47l98 176q36 -22 72 -22q78 0 78 86q0 33 -23 102h-110l194 1102h-321z" />
<glyph unicode="&#x163;" horiz-adv-x="794" d="M41 -342l98 176q36 -22 72 -22q78 0 78 86q0 29 -19 92q-218 60 -151 438l65 373h-118l49 274h118l46 254l368 57l-55 -311h233l-49 -274h-233l-70 -400q-9 -59 3.5 -77.5t37.5 -18.5q27 0 117 39l76 -291q-144 -55 -281 -71q25 -62 25 -134q0 -119 -69.5 -178 t-170.5 -59q-104 0 -170 47z" />
<glyph unicode="&#x164;" horiz-adv-x="1054" d="M109 1102l59 332h1010l-60 -332h-315l-195 -1102h-372l194 1102h-321zM389 1802h223l86 -137l133 137h252l-239 -293h-322z" />
<glyph unicode="&#x165;" horiz-adv-x="792" d="M66 801l49 274h118l46 254l368 57l-55 -311h233l-49 -274h-233l-70 -400q-9 -59 3.5 -77.5t37.5 -18.5q27 0 117 39l76 -291q-201 -76 -345 -76q-163 0 -222.5 116t-20.5 335l65 373h-118zM684 1219l135 167h-104l49 277h242l-45 -311l-230 -219z" />
<glyph unicode="&#x166;" horiz-adv-x="1069" d="M115 1102l59 332h1010l-60 -332h-315l-84 -473h135l-39 -215h-135l-72 -414h-372l71 414h-131l37 215h133l84 473h-321z" />
<glyph unicode="&#x167;" horiz-adv-x="794" d="M45 487l39 213h82l18 101h-118l49 274h118l46 254l368 57l-55 -311h233l-49 -274h-233l-19 -101h183l-37 -213h-183l-14 -86q-9 -59 3.5 -77.5t37.5 -18.5q27 0 117 39l76 -291q-201 -76 -345 -76q-163 0 -222.5 116t-20.5 335l10 59h-84z" />
<glyph unicode="&#x168;" horiz-adv-x="1271" d="M69.5 407.5q1.5 87.5 20.5 200.5l146 826h374l-159 -902q-10 -63 -7.5 -112t36.5 -79t100 -30q97 0 140.5 57t63.5 164l160 902h373l-158 -893q-17 -102 -41 -179t-69 -152.5t-107 -124t-157.5 -78.5t-219.5 -30q-142 0 -241.5 33t-153.5 88t-78 138.5t-22.5 171z M453 1612q26 41 36.5 57t33.5 49t39 47t40 32t49 25t54 7q39 0 84.5 -24t83.5 -48t61 -24q43 0 106 96l136 -98q-70 -109 -100 -142q-69 -75 -154 -76q-39 0 -84 24t-82.5 48.5t-59.5 24.5q-44 0 -110 -99z" />
<glyph unicode="&#x169;" d="M35 348l127 727h360l-119 -665q-13 -58 -3.5 -100t51.5 -42q38 0 88 31.5t90 77.5l123 698h358l-188 -1075h-359l19 111q-82 -63 -158.5 -98.5t-159.5 -35.5q-142 0 -201.5 94t-27.5 277zM342 1303q26 41 36.5 57t33.5 49t39 47t40 32t49 25t54 7q31 0 66.5 -15 t61.5 -33.5t54 -33.5t47 -15q43 0 107 97l135 -99q-70 -109 -101 -143q-69 -74 -153 -74q-39 0 -83.5 24t-82 48t-59.5 24q-46 0 -111 -98z" />
<glyph unicode="&#x16a;" horiz-adv-x="1271" d="M69.5 407.5q1.5 87.5 20.5 200.5l146 826h374l-159 -902q-10 -63 -7.5 -112t36.5 -79t100 -30q97 0 140.5 57t63.5 164l160 902h373l-158 -893q-17 -102 -41 -179t-69 -152.5t-107 -124t-157.5 -78.5t-219.5 -30q-142 0 -241.5 33t-153.5 88t-78 138.5t-22.5 171z M526 1561l37 215h543l-37 -215h-543z" />
<glyph unicode="&#x16b;" d="M35 348l127 727h360l-119 -665q-13 -58 -3.5 -100t51.5 -42q38 0 88 31.5t90 77.5l123 698h358l-188 -1075h-359l19 111q-82 -63 -158.5 -98.5t-159.5 -35.5q-142 0 -201.5 94t-27.5 277zM395 1251l37 215h543l-37 -215h-543z" />
<glyph unicode="&#x16c;" horiz-adv-x="1271" d="M69.5 407.5q1.5 87.5 20.5 200.5l146 826h374l-159 -902q-10 -63 -7.5 -112t36.5 -79t100 -30q97 0 140.5 57t63.5 164l160 902h373l-158 -893q-17 -102 -41 -179t-69 -152.5t-107 -124t-157.5 -78.5t-219.5 -30q-142 0 -241.5 33t-153.5 88t-78 138.5t-22.5 171z M522 1782h207q-5 -34 17 -55t63 -21q56 0 92 21t41 55h209q-24 -128 -115.5 -200.5t-236.5 -72.5q-153 0 -225.5 76t-51.5 197z" />
<glyph unicode="&#x16d;" d="M35 348l127 727h360l-119 -665q-13 -58 -3.5 -100t51.5 -42q38 0 88 31.5t90 77.5l123 698h358l-188 -1075h-359l19 111q-82 -63 -158.5 -98.5t-159.5 -35.5q-142 0 -201.5 94t-27.5 277zM391 1473h207q-5 -34 17 -55t63 -21q56 0 92 21t41 55h209 q-24 -128 -115.5 -200.5t-236.5 -72.5q-153 0 -225.5 76t-51.5 197z" />
<glyph unicode="&#x16e;" horiz-adv-x="1271" d="M69.5 407.5q1.5 87.5 20.5 200.5l146 826h374l-159 -902q-10 -63 -7.5 -112t36.5 -79t100 -30q97 0 140.5 57t63.5 164l160 902h373l-158 -893q-17 -102 -41 -179t-69 -152.5t-107 -124t-157.5 -78.5t-219.5 -30q-142 0 -241.5 33t-153.5 88t-78 138.5t-22.5 171z M602 1714q0 94 66 161t159 67q94 0 160 -67t66 -161t-66 -159.5t-160 -65.5t-159.5 65.5t-65.5 159.5zM764 1714q0 -26 18.5 -44.5t44.5 -18.5t45 18.5t19 44.5t-19 46t-45 20t-44.5 -19.5t-18.5 -46.5z" />
<glyph unicode="&#x16f;" d="M35 348l127 727h360l-119 -665q-13 -58 -3.5 -100t51.5 -42q38 0 88 31.5t90 77.5l123 698h358l-188 -1075h-359l19 111q-82 -63 -158.5 -98.5t-159.5 -35.5q-142 0 -201.5 94t-27.5 277zM471 1405q0 94 65.5 160.5t159.5 66.5t160 -66.5t66 -160.5t-66 -159.5 t-160 -65.5t-159.5 65.5t-65.5 159.5zM633 1405q0 -26 18.5 -45t44.5 -19t45 19t19 45t-19 45.5t-45 19.5t-44.5 -19.5t-18.5 -45.5z" />
<glyph unicode="&#x170;" horiz-adv-x="1271" d="M69.5 407.5q1.5 87.5 20.5 200.5l146 826h374l-159 -902q-10 -63 -7.5 -112t36.5 -79t100 -30q97 0 140.5 57t63.5 164l160 902h373l-158 -893q-17 -102 -41 -179t-69 -152.5t-107 -124t-157.5 -78.5t-219.5 -30q-142 0 -241.5 33t-153.5 88t-78 138.5t-22.5 171z M485 1509l191 293h293l-275 -293h-209zM831 1509l191 293h293l-275 -293h-209z" />
<glyph unicode="&#x171;" d="M35 348l127 727h360l-119 -665q-13 -58 -3.5 -100t51.5 -42q38 0 88 31.5t90 77.5l123 698h358l-188 -1075h-359l19 111q-82 -63 -158.5 -98.5t-159.5 -35.5q-142 0 -201.5 94t-27.5 277zM352 1200l191 293h293l-275 -293h-209zM698 1200l191 293h293l-275 -293h-209z " />
<glyph unicode="&#x172;" horiz-adv-x="1271" d="M70 414q2 85 20 194l146 826h374l-159 -902q-10 -63 -7.5 -112t36.5 -79t100 -30q97 0 140.5 57t63.5 164l160 902h373l-158 -893q-15 -84 -33 -150t-49.5 -132.5t-73.5 -114.5t-104 -86.5t-141 -57.5q-41 -30 -61.5 -45.5t-54 -45.5t-49 -57.5t-15.5 -54.5 q0 -15 6.5 -25.5t15 -15.5t23 -8t23 -3t23.5 0.5t17 0.5l-59 -158q-1 0 -20.5 -0.5t-32.5 0t-37.5 2t-42 6t-41 12t-39.5 20.5t-30.5 30t-22 42t-7.5 56q0 128 164 224q-130 5 -220 40.5t-139 90t-70 136.5t-19 167z" />
<glyph unicode="&#x173;" d="M35 348l127 727h360l-119 -665q-13 -58 -3.5 -100t51.5 -42q38 0 88 31.5t90 77.5l123 698h358l-188 -1075h-11q-41 -30 -61.5 -45.5t-54 -45.5t-49 -57.5t-15.5 -54.5q0 -15 6.5 -25.5t15 -15.5t23.5 -8t23.5 -3t23.5 0.5t17 0.5l-60 -158q-1 0 -20.5 -0.5t-32.5 0 t-37.5 2t-42 6t-40.5 12t-39 20.5t-30.5 30t-22 42t-7.5 56q0 141 201 244h-146l19 111q-82 -63 -158.5 -98.5t-159.5 -35.5q-142 0 -201.5 94t-27.5 277z" />
<glyph unicode="&#x174;" horiz-adv-x="1708" d="M154 1434h413l-18 -787l289 787h290l17 -783l256 783h434l-578 -1434h-352l-22 823l-303 -823h-351zM664 1509l239 293h320l133 -293h-221l-86 138l-134 -138h-251z" />
<glyph unicode="&#x175;" horiz-adv-x="1486" d="M96 1075h375l-12 -575l227 575h264l23 -573l188 573h385l-454 -1075h-326l-35 563l-231 -563h-326zM496 1200l239 293h320l133 -293h-221l-86 137l-133 -137h-252z" />
<glyph unicode="&#x177;" horiz-adv-x="1048" d="M-18 -190q66 28 98.5 43t76.5 42t76 58l-149 1122h371l28 -612l246 612h389l-514 -1075q-25 -52 -41.5 -84t-46 -80t-56.5 -80t-69 -71.5t-88 -66.5t-108.5 -52.5t-135.5 -42.5zM276 1200l240 293h320l133 -293h-221l-86 137l-134 -137h-252z" />
<glyph unicode="&#x178;" horiz-adv-x="1181" d="M131 1434h399l101 -488l268 488h430l-563 -863l-100 -571h-373l100 571zM446 1530l50 274h264l-47 -274h-267zM791 1530l47 274h264l-47 -274h-264z" />
<glyph unicode="&#x179;" horiz-adv-x="1124" d="M-59 0l51 297l659 805h-481l57 332h973l-51 -295l-662 -807h529l-58 -332h-1017zM504 1509l262 293h393l-348 -293h-307z" />
<glyph unicode="&#x17a;" horiz-adv-x="1026" d="M-59 0l45 256l510 510h-402l56 309h901l-45 -256l-510 -510h419l-55 -309h-919zM391 1200l262 293h394l-349 -293h-307z" />
<glyph unicode="&#x17b;" horiz-adv-x="1124" d="M-59 0l51 297l659 805h-481l57 332h973l-51 -295l-662 -807h529l-58 -332h-1017zM598 1530l49 280h271l-50 -280h-270z" />
<glyph unicode="&#x17c;" horiz-adv-x="1026" d="M-59 0l45 256l510 510h-402l56 309h901l-45 -256l-510 -510h419l-55 -309h-919zM481 1221l49 280h271l-49 -280h-271z" />
<glyph unicode="&#x17d;" horiz-adv-x="1124" d="M-59 0l51 297l659 805h-481l57 332h973l-51 -295l-662 -807h529l-58 -332h-1017zM432 1802h223l86 -137l133 137h252l-239 -293h-322z" />
<glyph unicode="&#x17e;" horiz-adv-x="1026" d="M-59 0l45 256l510 510h-402l56 309h901l-45 -256l-510 -510h419l-55 -309h-919zM317 1493h224l86 -137l133 137h252l-240 -293h-321z" />
<glyph unicode="&#x17f;" horiz-adv-x="643" d="M-186 -201q40 15 68.5 27t53 26.5t39 24t28 28.5t20 31t14 39.5t11.5 47t11 59.5l127 719h-114l47 274h114q37 212 119.5 315t237.5 103q159 0 364 -119l-166 -239q-85 34 -120 34q-12 0 -24 -5t-27 -25.5t-21 -55.5l-172 -970q-35 -199 -61 -269q-43 -118 -141 -187 q-104 -72 -333 -134z" />
<glyph unicode="&#x192;" horiz-adv-x="1093" d="M-133 -418l436 1219h-117l105 274h110l5 8q30 85 56.5 144t62.5 112.5t77.5 85t98 50t126.5 18.5q73 0 159.5 -27.5t131 -50.5t80.5 -45l-205 -229q-93 45 -137 39q-28 -3 -47.5 -26.5t-38.5 -74.5l-2 -4h236l-105 -274h-229l-441 -1219h-362z" />
<glyph unicode="&#x1fc;" horiz-adv-x="1894" d="M-172 0l1028 1434h1112l-59 -332h-539l-39 -223h436l-57 -324h-436l-41 -223h549l-58 -332h-921l41 240h-383l-162 -240h-471zM674 555h225l80 451zM942 1509l262 293h393l-348 -293h-307z" />
<glyph unicode="&#x1fd;" horiz-adv-x="1646" d="M29 346q0 109 19 216t57.5 203.5t92 170.5t129 118t162.5 44q45 0 83.5 -10.5t71.5 -32t54 -39.5t50 -47l18 106h305q84 23 168 23q173 0 277 -85t104 -229q0 -77 -20.5 -136.5t-59 -98.5t-85 -65t-109 -39t-119 -18t-125.5 -5h-78v-16q0 -152 102 -152q83 0 314 111 l98 -254q-77 -42 -219.5 -88t-278.5 -46q-77 0 -151 23h-314l19 109q-71 -60 -142.5 -96t-154.5 -36q-126 0 -197 98.5t-71 270.5zM397 406q0 -58 20 -92.5t58 -34.5q78 0 170 116l51 295q-52 107 -125 107q-54 0 -95.5 -69t-60 -156t-18.5 -166zM684 1200l262 293h393 l-348 -293h-307zM1047 616h61q84 0 134 37t50 105q0 33 -19.5 54.5t-55.5 21.5q-63 0 -105 -61t-65 -157z" />
<glyph unicode="&#x1fe;" horiz-adv-x="1361" d="M-20 0l172 207q-84 134 -84 346q0 94 16 192.5t48.5 201.5t88.5 193t129.5 161.5t179.5 113t230 41.5q216 0 356 -94l60 72h245l-174 -209q82 -136 82 -338q0 -80 -11 -164.5t-36 -174t-62.5 -171.5t-94 -155.5t-125.5 -127.5t-162.5 -85.5t-200.5 -31.5q-212 0 -352 93 l-58 -70h-247zM449 561l432 520q-49 43 -133 43q-63 0 -116 -45.5t-85.5 -112t-55.5 -147t-32 -145.5t-10 -113zM516 348q48 -39 133 -39q63 0 115.5 44.5t84.5 109.5t55 144.5t33 144.5t11 114zM618 1509l263 293h393l-348 -293h-308z" />
<glyph unicode="&#x1ff;" horiz-adv-x="1107" d="M-41 0l141 160q-71 104 -71 262q0 91 17 181t58.5 180.5t102.5 159.5t157.5 112t215.5 43q164 0 284 -72l45 49h191l-129 -147q82 -109 82 -275q0 -91 -17 -181t-58.5 -180.5t-102.5 -159.5t-157.5 -112t-215.5 -43q-178 0 -297 78l-49 -55h-197zM391 489l264 297 q-28 25 -77 25q-40 0 -74 -31t-56 -81t-36 -103t-21 -107zM416 297q30 -33 88 -33q43 0 78.5 34.5t57 89.5t34.5 111t18 111zM416 1200l262 293h393l-348 -293h-307z" />
<glyph unicode="&#x218;" horiz-adv-x="1157" d="M-33 197l205 266q98 -65 203.5 -112.5t181.5 -47.5q52 0 85.5 25.5t33.5 68.5q0 33 -25 60.5t-54.5 43.5t-91.5 46t-99 51q-133 85 -205 183t-72 231q0 89 32 168t92.5 141t158 98.5t219.5 36.5q279 0 567 -180l-209 -268q-75 48 -171.5 85t-164.5 37q-51 0 -84.5 -23 t-33.5 -71q0 -25 11.5 -45t38.5 -38t53.5 -31t76 -36.5t86.5 -43.5q59 -36 103.5 -73t87.5 -87.5t66 -115.5t23 -140q0 -87 -32.5 -166.5t-94.5 -143t-162.5 -101.5t-224.5 -38q-170 0 -324 62.5t-276 157.5zM254 -553l135 168h-104l49 276h241l-45 -311l-229 -219z" />
<glyph unicode="&#x219;" horiz-adv-x="970" d="M-45 141l168 248q77 -48 174.5 -86.5t159.5 -38.5q31 0 48 11.5t17 29.5q0 16 -8 28t-27.5 22.5t-37 17.5t-51.5 19.5t-56 21.5q-55 23 -97.5 48.5t-84.5 64t-65 93.5t-23 121q0 154 110.5 255.5t309.5 101.5q124 0 246.5 -39.5t215.5 -93.5l-166 -246 q-70 37 -149.5 65.5t-132.5 28.5q-31 0 -48.5 -11.5t-17.5 -29.5q0 -16 7.5 -27.5t25.5 -21.5t35 -16.5t50.5 -18.5t57.5 -22q42 -18 75.5 -35.5t73 -47t65.5 -62.5t43.5 -81.5t17.5 -103.5q0 -75 -27.5 -139.5t-80.5 -114t-136 -77.5t-188 -28q-142 0 -273.5 47.5 t-230.5 116.5zM156 -553l135 168h-105l50 276h241l-45 -311l-229 -219z" />
<glyph unicode="&#x21a;" horiz-adv-x="1054" d="M109 1102l59 332h1010l-60 -332h-315l-195 -1102h-372l194 1102h-321zM207 -553l135 168h-104l49 276h241l-45 -311l-229 -219z" />
<glyph unicode="&#x21b;" horiz-adv-x="794" d="M29 -553l135 168h-105l50 276h241l-45 -311l-229 -219zM66 801l49 274h118l46 254l368 57l-55 -311h233l-49 -274h-233l-70 -400q-9 -59 3.5 -77.5t37.5 -18.5q27 0 117 39l76 -291q-201 -76 -345 -76q-163 0 -222.5 116t-20.5 335l65 373h-118z" />
<glyph unicode="&#x2b0;" horiz-adv-x="743" d="M102 788l158 895h238l-56 -313q102 78 197 78q187 0 147 -227l-75 -433h-240l70 390q8 32 3.5 54.5t-28.5 22.5t-52.5 -15.5t-51.5 -41.5l-72 -410h-238z" />
<glyph unicode="&#x2b2;" horiz-adv-x="698" d="M143 682q93 36 116 58t34 81l106 613h238l-105 -590q-6 -37 -9.5 -55t-10.5 -48t-13 -44.5t-16.5 -38t-23 -35.5t-31 -30t-40.5 -28.5t-51 -23.5t-64.5 -23t-79.5 -20zM406 1493l34 188h244l-33 -188h-245z" />
<glyph unicode="&#x2b7;" horiz-adv-x="768" d="M63 1434h246l-6 -326l131 326h174l15 -324l108 324h254l-280 -646h-216l-22 322l-137 -322h-215z" />
<glyph unicode="&#x2b8;" horiz-adv-x="735" d="M129 686q5 2 22 9t22.5 9t19.5 8t20 9.5t17.5 9.5t18.5 10.5t15.5 11t16.5 13.5l-97 668h244l16 -353l146 353h256l-320 -646q-22 -43 -36.5 -69.5t-45 -66.5t-63.5 -65.5t-85 -50.5t-116 -38z" />
<glyph unicode="&#x2c6;" horiz-adv-x="534" d="M129 1200l240 293h319l133 -293h-221l-86 137l-133 -137h-252z" />
<glyph unicode="&#x2c7;" horiz-adv-x="538" d="M182 1493h224l86 -137l133 137h252l-240 -293h-322z" />
<glyph unicode="&#x2d8;" horiz-adv-x="503" d="M197 1473h206q-5 -34 17 -55t63 -21q56 0 92 21t41 55h209q-24 -128 -115.5 -200.5t-236.5 -72.5q-152 0 -224.5 76t-51.5 197z" />
<glyph unicode="&#x2d9;" horiz-adv-x="202" d="M176 1221l49 280h271l-50 -280h-270z" />
<glyph unicode="&#x2da;" horiz-adv-x="432" d="M119 1405q0 94 65.5 160.5t159.5 66.5t159.5 -66.5t65.5 -160.5t-65.5 -159.5t-159.5 -65.5t-159.5 65.5t-65.5 159.5zM281 1405q0 -26 18.5 -45t44.5 -19t45 19t19 45t-19 45.5t-45 19.5t-44.5 -19.5t-18.5 -45.5z" />
<glyph unicode="&#x2db;" horiz-adv-x="296" d="M-111 -244q0 86 67 150t181 117l160 -21q-43 -31 -62.5 -46t-54.5 -46t-51 -58.5t-16 -54.5q0 -15 6.5 -25.5t15 -15.5t23 -8t23 -3t23.5 0.5t17 0.5l-59 -158q-1 0 -20.5 -0.5t-32.5 0t-37.5 2t-42 6t-41 12t-39.5 20.5t-30.5 30t-22 42t-7.5 56z" />
<glyph unicode="&#x2dc;" horiz-adv-x="534" d="M143 1303q26 41 36.5 57t33.5 49t39 47t40 32t49 25t54 7q39 0 84.5 -24t84 -48.5t61.5 -24.5q42 0 106 97l135 -99q-70 -109 -101 -143q-69 -74 -153 -74q-39 0 -83.5 24t-82 48t-59.5 24q-46 0 -111 -98z" />
<glyph unicode="&#x2dd;" horiz-adv-x="632" d="M135 1200l191 293h292l-274 -293h-209zM481 1200l191 293h293l-275 -293h-209z" />
<glyph unicode="&#x2e3;" horiz-adv-x="739" d="M47 788l264 324l-135 322h246l49 -166l107 166h276l-252 -322l148 -324h-252l-52 173l-108 -173h-291z" />
<glyph unicode="&#x3c0;" horiz-adv-x="1017" d="M49 0l133 760h-131l55 315h969l-55 -315h-135l-131 -760h-301l133 760h-103l-133 -760h-301z" />
<glyph unicode="&#x1e80;" horiz-adv-x="1708" d="M154 1434h413l-18 -787l289 787h290l17 -783l256 783h434l-578 -1434h-352l-22 823l-303 -823h-351zM696 1802h359l159 -293h-274z" />
<glyph unicode="&#x1e81;" horiz-adv-x="1486" d="M96 1075h375l-12 -575l227 575h264l23 -573l188 573h385l-454 -1075h-326l-35 563l-231 -563h-326zM532 1493h359l160 -293h-275z" />
<glyph unicode="&#x1e82;" horiz-adv-x="1708" d="M154 1434h413l-18 -787l289 787h290l17 -783l256 783h434l-578 -1434h-352l-22 823l-303 -823h-351zM784 1509l263 293h393l-348 -293h-308z" />
<glyph unicode="&#x1e83;" horiz-adv-x="1486" d="M96 1075h375l-12 -575l227 575h264l23 -573l188 573h385l-454 -1075h-326l-35 563l-231 -563h-326zM621 1200l262 293h393l-348 -293h-307z" />
<glyph unicode="&#x1e84;" horiz-adv-x="1708" d="M154 1434h413l-18 -787l289 787h290l17 -783l256 783h434l-578 -1434h-352l-22 823l-303 -823h-351zM711 1526l49 274h264l-47 -274h-266zM1055 1526l47 274h264l-47 -274h-264z" />
<glyph unicode="&#x1e85;" horiz-adv-x="1486" d="M96 1075h375l-12 -575l227 575h264l23 -573l188 573h385l-454 -1075h-326l-35 563l-231 -563h-326zM547 1221l49 274h264l-47 -274h-266zM891 1221l47 274h264l-47 -274h-264z" />
<glyph unicode="&#x1e9e;" horiz-adv-x="1476" d="M2 0l154 872q12 70 28 128.5t41.5 117.5t58.5 105t79.5 86.5t104 67.5t134 42t166.5 15h672l-45 -256l-273 -310q134 -51 209.5 -151.5t75.5 -241.5q0 -97 -35 -185.5t-100 -158.5t-168.5 -112t-229.5 -42q-216 0 -411 129l192 269q115 -74 203 -74q67 0 114.5 43 t47.5 111q0 151 -270 151h-91l43 242l226 254h-164q-106 0 -162.5 -66.5t-85.5 -234.5l-141 -801h-373z" />
<glyph unicode="&#x1ef2;" horiz-adv-x="1181" d="M131 1434h399l101 -488l268 488h430l-563 -863l-100 -571h-373l100 571zM432 1802h359l159 -293h-274z" />
<glyph unicode="&#x1ef3;" horiz-adv-x="1048" d="M-18 -190q66 28 98.5 43t76.5 42t76 58l-149 1122h371l28 -612l246 612h389l-514 -1075q-25 -52 -41.5 -84t-46 -80t-56.5 -80t-69 -71.5t-88 -66.5t-108.5 -52.5t-135.5 -42.5zM311 1493h359l159 -293h-274z" />
<glyph unicode="&#x2000;" horiz-adv-x="971" />
<glyph unicode="&#x2001;" horiz-adv-x="1942" />
<glyph unicode="&#x2002;" horiz-adv-x="971" />
<glyph unicode="&#x2003;" horiz-adv-x="1942" />
<glyph unicode="&#x2004;" horiz-adv-x="647" />
<glyph unicode="&#x2005;" horiz-adv-x="485" />
<glyph unicode="&#x2006;" horiz-adv-x="323" />
<glyph unicode="&#x2007;" horiz-adv-x="323" />
<glyph unicode="&#x2008;" horiz-adv-x="242" />
<glyph unicode="&#x2009;" horiz-adv-x="388" />
<glyph unicode="&#x200a;" horiz-adv-x="107" />
<glyph unicode="&#x2010;" horiz-adv-x="770" d="M57 434l52 299h591l-51 -299h-592z" />
<glyph unicode="&#x2011;" horiz-adv-x="770" d="M57 434l52 299h591l-51 -299h-592z" />
<glyph unicode="&#x2012;" horiz-adv-x="770" d="M57 434l52 299h591l-51 -299h-592z" />
<glyph unicode="&#x2013;" horiz-adv-x="983" d="M55 434l54 297h804l-53 -297h-805z" />
<glyph unicode="&#x2014;" horiz-adv-x="1161" d="M55 434l51 297h988l-54 -297h-985z" />
<glyph unicode="&#x2018;" horiz-adv-x="518" d="M102 715l60 448l338 310l65 -123l-196 -238h153l-69 -397h-351z" />
<glyph unicode="&#x2019;" horiz-adv-x="499" d="M106 799l197 237h-153l69 398h350l-59 -449l-338 -309z" />
<glyph unicode="&#x201a;" horiz-adv-x="532" d="M-63 -238l196 238h-153l69 397h350l-59 -448l-338 -309z" />
<glyph unicode="&#x201c;" horiz-adv-x="972" d="M102 715l60 448l338 310l65 -123l-196 -238h153l-69 -397h-351zM557 715l59 448l338 310l66 -123l-197 -238h154l-70 -397h-350z" />
<glyph unicode="&#x201d;" horiz-adv-x="954" d="M106 799l197 237h-153l69 398h350l-59 -449l-338 -309zM561 799l197 237h-154l70 398h350l-59 -449l-338 -309z" />
<glyph unicode="&#x201e;" horiz-adv-x="987" d="M-63 -238l196 238h-153l69 397h350l-59 -448l-338 -309zM389 -238l197 238h-154l70 397h350l-59 -448l-338 -309z" />
<glyph unicode="&#x2020;" horiz-adv-x="1067" d="M66 733l53 299l352 -35l76 437h264l-78 -437l365 35l-54 -299l-352 33l-207 -1184h-264l209 1184z" />
<glyph unicode="&#x2021;" horiz-adv-x="1099" d="M-12 197l53 299l350 -35l53 305l-362 -33l53 299l350 -35l78 437h264l-77 -437l364 35l-53 -299l-352 33l-54 -305l363 35l-51 -299l-353 32l-112 -647h-264l112 647z" />
<glyph unicode="&#x2022;" horiz-adv-x="933" d="M113 584q0 146 101 248t247 102q145 0 246.5 -102t101.5 -248q0 -145 -101.5 -246.5t-246.5 -101.5q-146 0 -247 101.5t-101 246.5z" />
<glyph unicode="&#x2026;" horiz-adv-x="1490" d="M-20 0l71 397h350l-69 -397h-352zM463 0l72 397h350l-70 -397h-352zM944 0l72 397h350l-70 -397h-352z" />
<glyph unicode="&#x202f;" horiz-adv-x="388" />
<glyph unicode="&#x2030;" horiz-adv-x="2525" d="M123 991q0 63 13.5 127t44 125t74.5 108t109 76t142 29q66 0 124 -18t104.5 -54t74 -95.5t27.5 -135.5q0 -63 -13.5 -127t-44 -125t-74.5 -108t-109 -76t-142 -29q-140 0 -235 77t-95 226zM338 0l846 1434h268l-846 -1434h-268zM379 993q0 -96 80 -96q31 0 56 29.5 t38 72.5t20 83t7 69q0 96 -78 96q-32 0 -57 -29.5t-38.5 -72t-20.5 -82.5t-7 -70zM958 281q0 63 13.5 127t44 125t74.5 108t109 75.5t142 28.5q66 0 124 -18t104.5 -54t74 -95.5t27.5 -135.5q0 -64 -13.5 -127.5t-44 -124.5t-74 -108t-108.5 -76t-143 -29q-89 0 -161.5 31 t-120.5 101.5t-48 171.5zM1214 283q0 -97 80 -97q32 0 57 29.5t38.5 72.5t20.5 83t7 69q0 97 -80 97q-32 0 -57 -29.5t-38.5 -72t-20.5 -82.5t-7 -70zM1722 281q0 64 13.5 127.5t44 124.5t74 108t108.5 75.5t143 28.5q66 0 124 -18t104.5 -54t74 -95.5t27.5 -135.5 q0 -63 -13.5 -127t-44 -125t-74.5 -108t-109 -76t-142 -29q-140 0 -235 77.5t-95 226.5zM1978 283q0 -97 80 -97q31 0 56 29.5t38 72.5t20 83t7 69q0 97 -80 97q-31 0 -55.5 -29.5t-38 -72t-20.5 -82.5t-7 -70z" />
<glyph unicode="&#x2039;" horiz-adv-x="643" d="M14 432l39 223l582 422l-70 -393l-250 -162l195 -160l-64 -352z" />
<glyph unicode="&#x203a;" horiz-adv-x="643" d="M-16 10l69 393l250 162l-194 160l63 352l432 -422l-39 -223z" />
<glyph unicode="&#x2044;" horiz-adv-x="409" d="M-303 0l790 1434h265l-791 -1434h-264z" />
<glyph unicode="&#x205f;" horiz-adv-x="485" />
<glyph unicode="&#x2070;" horiz-adv-x="802" d="M150 1090q0 30 3.5 68t14 95t27.5 110.5t48.5 109t71.5 97t100.5 67.5t133.5 26q91 0 156 -28t98.5 -76.5t48 -100.5t14.5 -112q0 -29 -3.5 -67t-14 -94.5t-27.5 -110.5t-48.5 -109.5t-71.5 -97t-100.5 -67.5t-133.5 -26t-130 19.5t-91.5 50t-56.5 73t-30.5 84.5t-8.5 89 zM391 1067q0 -48 15 -72t59 -24q40 0 73 53.5t50.5 126t27 132t9.5 87.5q0 48 -15 71t-59 23q-40 0 -73 -53.5t-50.5 -125.5t-27 -131.5t-9.5 -86.5z" />
<glyph unicode="&#x2074;" horiz-adv-x="811" d="M82 930l31 178l405 541h328l-90 -506h108l-37 -213h-108l-25 -142h-245l24 142h-391zM358 1143h152l47 268z" />
<glyph unicode="&#x2075;" horiz-adv-x="733" d="M86 920l137 161q30 -26 51 -41.5t57 -30t72 -14.5q47 0 78 24t31 68q0 33 -19.5 52.5t-58.5 19.5q-65 0 -129 -45l-127 90l119 445h537l-37 -213h-324l-16 -74q40 4 59 4q122 0 186 -73t64 -181q0 -64 -22.5 -124t-64 -108t-108.5 -77t-149 -29q-190 0 -336 146z" />
<glyph unicode="&#x2076;" horiz-adv-x="770" d="M141 1108q0 146 66.5 271.5t194.5 204.5t290 79q50 0 92.5 -7.5t59.5 -15.5l18 -8l-92 -186q-33 8 -72 8q-80 0 -147.5 -36t-108.5 -103q60 33 125 33q106 0 170 -68t64 -178q0 -136 -89 -232t-241 -96q-156 0 -243 96t-87 238zM387 1094q0 -52 21.5 -81.5t60.5 -29.5 q42 0 63 30.5t21 73.5q0 74 -78 74q-28 0 -51.5 -14.5t-36.5 -34.5v-18z" />
<glyph unicode="&#x2077;" horiz-adv-x="626" d="M123 788q18 103 70 218t116 208t102 143t64 79h-293l37 213h567l-34 -201q-13 -14 -34.5 -39t-78.5 -101.5t-104 -151.5t-92.5 -177.5t-61.5 -190.5h-258z" />
<glyph unicode="&#x2078;" horiz-adv-x="774" d="M115 1004q0 163 202 262q-77 68 -77 161q0 103 82 169.5t229 66.5q136 0 207 -56.5t71 -146.5q0 -126 -145 -209q121 -80 121 -204q0 -121 -97 -197t-274 -76q-157 0 -238 62.5t-81 167.5zM365 1034q0 -67 84 -67q49 0 78.5 24.5t29.5 65.5q0 54 -72 104q-58 -27 -89 -56 t-31 -71zM469 1411q0 -42 43 -70q84 36 84 86q0 22 -14.5 36t-40.5 14q-32 0 -52 -20t-20 -46z" />
<glyph unicode="&#x2079;" horiz-adv-x="770" d="M119 805l94 186q31 -8 70 -8q81 0 147 35t107 102q-51 -30 -123 -30q-105 0 -168.5 67t-63.5 178q0 136 89 232t241 96q155 0 241.5 -96t86.5 -238q0 -146 -66.5 -271.5t-194.5 -204.5t-290 -79q-50 0 -92.5 8t-60.5 16zM428 1350q0 -74 78 -74q55 0 88 47v20 q0 52 -21.5 81.5t-60.5 29.5q-42 0 -63 -30.5t-21 -73.5z" />
<glyph unicode="&#x207a;" horiz-adv-x="630" d="M121 1112l33 174h192l35 201h178l-37 -201h195l-31 -174h-194l-35 -201h-176l34 201h-194z" />
<glyph unicode="&#x207d;" horiz-adv-x="446" d="M116 803q-2 67 17 164l90 510q7 39 11 58.5t12 49.5t14.5 45t17.5 38t23.5 34.5t31.5 28.5t41 26.5t52 21.5t65.5 21.5t79.5 18.5l35 -140q-71 -30 -93.5 -56.5t-31.5 -84.5l-116 -653q-14 -55 -3 -87.5t62 -60.5l-66 -125q-129 32 -184.5 78t-57.5 113z" />
<glyph unicode="&#x207e;" horiz-adv-x="444" d="M51 752q71 30 93.5 56.5t31.5 84.5l117 653q13 55 2 87.5t-62 60.5l66 125q129 -32 184.5 -78t57.5 -113t-17 -164l-90 -510q-7 -39 -11 -58.5t-12 -49.5t-14.5 -45t-17.5 -38t-23.5 -34.5t-31.5 -28.5t-41 -26.5t-52 -21.5t-65.5 -21.5t-79.5 -18.5z" />
<glyph unicode="&#x207f;" horiz-adv-x="745" d="M102 788l115 646h238l-13 -62q104 76 197 76q90 0 128.5 -57t18.5 -170l-75 -433h-238l70 392q7 31 2 53t-29 22q-50 0 -104 -57l-72 -410h-238z" />
<glyph unicode="&#x2080;" horiz-adv-x="802" d="M-43 -6q0 30 3.5 68t14 95t27.5 110.5t48.5 109t71.5 97t100.5 67.5t133.5 26t130 -19t92 -50t57 -73.5t30.5 -85t8.5 -89.5q0 -29 -3.5 -67t-14.5 -94.5t-28 -110.5t-48 -109.5t-71.5 -97t-101 -67.5t-133.5 -26t-130 19.5t-91.5 50t-56.5 73t-30.5 84.5t-8.5 89z M199 -29q0 -48 14.5 -72t58.5 -24q40 0 73 53.5t50.5 126t27 132t9.5 87.5q0 48 -15 71.5t-59 23.5q-40 0 -73 -53.5t-50.5 -126t-26.5 -132t-9 -86.5z" />
<glyph unicode="&#x2081;" horiz-adv-x="614" d="M-41 408l254 145h236l-152 -860h-246l109 610l-119 -63z" />
<glyph unicode="&#x2082;" horiz-adv-x="731" d="M-123 -307l17 100q11 64 40 120t73.5 101.5t81.5 75t89 64.5q15 9 37 22.5t34.5 21.5t30.5 19.5t28 18.5t22.5 16.5t19.5 16.5t13.5 15t9 15t2.5 14q0 39 -56 39q-69 0 -202 -78l-92 177q182 116 337 116q131 0 198 -66t67 -161q0 -41 -12.5 -80t-37 -71.5t-49.5 -59 t-60.5 -52t-58.5 -40t-55 -33.5q-124 -69 -133 -98h326l-37 -213h-633z" />
<glyph unicode="&#x2083;" horiz-adv-x="727" d="M-125 -176l129 156q133 -84 213 -84q45 0 69.5 18t24.5 49q0 24 -14 39t-40.5 22t-51 9t-58.5 2h-30l37 211h34q160 0 160 65q0 18 -13 29.5t-38 11.5q-43 0 -100 -22t-99 -47l-80 172q170 112 338 112q121 0 183.5 -55.5t62.5 -140.5q0 -128 -149 -211q50 -28 78 -77.5 t28 -113.5q0 -50 -17 -98t-52 -93t-100 -72.5t-150 -27.5q-66 0 -128.5 16t-109.5 42.5t-75.5 46.5t-51.5 41z" />
<glyph unicode="&#x2084;" horiz-adv-x="811" d="M-111 -166l31 178l406 541h327l-90 -506h109l-37 -213h-109l-24 -141h-246l25 141h-392zM166 47h151l48 268z" />
<glyph unicode="&#x2085;" horiz-adv-x="731" d="M-106 -176l137 162q30 -26 51 -41.5t57 -30t72 -14.5q47 0 77.5 24t30.5 68q0 71 -77 71q-65 0 -129 -45l-127 91l118 444h537l-37 -213h-323l-17 -74q28 4 60 4q122 0 185.5 -73t63.5 -181q0 -64 -22.5 -124t-64 -108t-108.5 -77t-149 -29q-189 0 -335 146z" />
<glyph unicode="&#x2086;" horiz-adv-x="770" d="M-53 12q0 146 66.5 271.5t194.5 204.5t290 79q50 0 92.5 -7.5t59.5 -15.5l18 -7l-93 -187q-32 8 -71 8q-80 0 -147.5 -36t-108.5 -103q60 33 125 33q105 0 169 -67.5t64 -178.5q0 -136 -89 -232t-241 -96q-156 0 -242.5 95.5t-86.5 238.5zM193 -2q0 -52 21 -81.5 t60 -29.5q42 0 63 31t21 74q0 74 -77 74q-27 0 -51 -14.5t-37 -35.5v-18z" />
<glyph unicode="&#x2087;" horiz-adv-x="624" d="M-72 -307q18 103 70 217.5t116.5 208t102 142.5t64.5 79h-293l37 213h567l-35 -201q-13 -14 -34.5 -39t-78.5 -101.5t-104 -151.5t-92.5 -177t-61.5 -190h-258z" />
<glyph unicode="&#x2088;" horiz-adv-x="774" d="M-78 -92q0 93 55.5 155t147.5 107q-78 69 -78 162q0 102 82 168.5t229 66.5q136 0 207.5 -56t71.5 -146q0 -126 -145 -209q120 -79 120 -205q0 -121 -96.5 -197t-273.5 -76q-158 0 -239 62.5t-81 167.5zM172 -61q0 -68 84 -68q50 0 79.5 24.5t29.5 65.5q0 55 -72 105 q-59 -27 -90 -56t-31 -71zM276 315q0 -41 43 -69q84 36 84 86q0 22 -14.5 35.5t-40.5 13.5q-32 0 -52 -20t-20 -46z" />
<glyph unicode="&#x2089;" horiz-adv-x="770" d="M-74 -291l94 187q31 -9 70 -9q80 0 146.5 35.5t107.5 102.5q-52 -31 -123 -31q-105 0 -168 67.5t-63 178.5q0 136 88.5 231.5t240.5 95.5q155 0 241.5 -96t86.5 -238q0 -146 -66.5 -271.5t-194.5 -204.5t-290 -79q-50 0 -92.5 8t-59.5 16zM236 254q0 -74 77 -74 q55 0 88 47v21q0 52 -21.5 81t-60.5 29q-42 0 -62.5 -30.5t-20.5 -73.5z" />
<glyph unicode="&#x208a;" horiz-adv-x="630" d="M-74 16l33 174h193l34 201h179l-37 -201h194l-30 -174h-195l-35 -200h-176l35 200h-195z" />
<glyph unicode="&#x208d;" horiz-adv-x="448" d="M-76 -292.5q-2 66.5 17 163.5l90 510q7 39 11 58.5t12 49.5t14.5 45t17.5 38t23.5 34.5t31.5 28.5t41 26.5t52 21.5t65.5 21.5t79.5 18.5l35 -139q-71 -30 -93.5 -57t-31.5 -85l-117 -653q-13 -55 -2.5 -87t61.5 -60l-65 -125q-129 32 -184.5 78t-57.5 112.5z" />
<glyph unicode="&#x208e;" horiz-adv-x="444" d="M-143 -344q71 30 93.5 56.5t31.5 84.5l116 654q13 55 2.5 87t-61.5 60l65 125q129 -32 185 -78t58 -112.5t-17 -163.5l-90 -510q-14 -76 -23.5 -110.5t-31.5 -79t-56.5 -66.5t-92 -45t-145.5 -41z" />
<glyph unicode="&#x20a1;" horiz-adv-x="1005" d="M80 578q0 172 41.5 309.5t110 220.5t152.5 126.5t175 43.5q37 0 74 -6l59 162h137l-69 -191l35 -12l73 203h138l-93 -256q22 -11 59 -32.5t48 -27.5l-164 -256q-126 72 -177 87q-25 7 -44 7q-58 0 -102.5 -53.5t-65.5 -129.5t-21 -155q0 -139 101 -139q55 0 241 84 l103 -284q-202 -91 -346 -113l-60 -166h-137l58 160q-15 0 -39 4l-60 -164h-137l78 211q-168 100 -168 367z" />
<glyph unicode="&#x20a4;" horiz-adv-x="1056" d="M-20 0l45 262q6 2 16 5.5t38 18t53.5 32t55.5 49t50 67.5h-162l30 174h170q-2 27 -10 76h-147l31 176h71q-20 85 -20 172q0 198 105 311t298 113q255 0 506 -215l-186 -227q-150 119 -246 119q-55 0 -83 -36t-28 -93q0 -43 29 -144h322l-33 -176h-254q2 -10 2 -33 q0 -29 -2 -43h241l-30 -174h-258q-36 -77 -84 -110h430l-58 -324h-892z" />
<glyph unicode="&#x20a7;" horiz-adv-x="1286" d="M31 0l153 881h-43l25 143h45l72 410h462q521 0 521 -410h43l-25 -143h-35q-20 -85 -63.5 -156t-113 -128.5t-173.5 -89.5t-233 -32h-179l-84 -475h-372zM545 795h110q140 0 197 86h-293zM584 1024h295q-18 86 -160 86h-121z" />
<glyph unicode="&#x20a9;" horiz-adv-x="1830" d="M45 510l37 215h168l-6 133h-138l37 213h88l-18 363h414l-9 -363h146l133 363h291l8 -363h145l119 363h434l-145 -363h92l-37 -213h-141l-53 -133h170l-37 -215h-221l-205 -510h-352l-23 823l-303 -823h-350l-27 510h-217zM608 647l78 211h-74zM1200 858l4 -207l68 207 h-72z" />
<glyph unicode="&#x20ac;" horiz-adv-x="1282" d="M41 477l35 191h88q1 10 3 27.5t4 32t5 28.5h-86l33 190h96q35 110 86 200.5t120 161t160.5 109.5t196.5 39q77 0 149.5 -16.5t148.5 -52.5t120.5 -62t124.5 -76l-199 -278q-103 65 -175.5 98t-133.5 33q-114 0 -192 -156h290l-34 -190h-320q-6 -33 -14 -88h319l-35 -191 h-290q9 -73 40.5 -110t92.5 -37q101 0 332 123l141 -308q-165 -81 -301 -124.5t-268 -43.5q-196 0 -303.5 132.5t-116.5 367.5h-117z" />
<glyph unicode="&#x2116;" horiz-adv-x="2168" d="M18 0l252 1434h375l215 -789l137 789h373l-252 -1434h-373l-217 793l-137 -793h-373zM1319 262l39 213h645l-37 -213h-647zM1358 899q0 68 15.5 138t50 138.5t84 121t125 85.5t165.5 33q77 0 144 -20t122 -60.5t87 -109t32 -158.5q0 -68 -15.5 -138t-50 -139t-84.5 -122 t-125.5 -86t-166.5 -33q-76 0 -142.5 20.5t-121.5 61t-87 109.5t-32 159zM1665 895q0 -92 82 -92q33 0 59 31t40 76.5t21 87.5t7 73q0 92 -82 92q-33 0 -59 -31.5t-40 -77t-21 -87.5t-7 -72z" />
<glyph unicode="&#x2117;" horiz-adv-x="1585" d="M80 641q0 131 32.5 251.5t98 223t158 178.5t219 119t274.5 43q206 0 360.5 -84.5t235 -234.5t80.5 -344q0 -131 -32.5 -251.5t-98.5 -223.5t-158 -179t-219.5 -119t-275.5 -43q-309 0 -491.5 184t-182.5 480zM160 643q0 -171 70 -303t208 -208.5t324 -76.5 q160 0 293 58.5t221 159t136 234t48 284.5q0 127 -41 235t-117.5 186t-191 122t-254.5 44q-160 0 -293 -58.5t-220 -159t-135 -233.5t-48 -284zM508 285l151 862h285q117 0 185.5 -56.5t68.5 -168.5q0 -148 -95 -224.5t-253 -76.5h-184l-58 -336h-100zM682 707h186 q98 0 165 58t67 157q0 74 -46 107.5t-124 33.5h-187z" />
<glyph unicode="&#x2120;" horiz-adv-x="1130" d="M141 1032l74 98q83 -49 152 -49q20 0 35.5 6t15.5 17q0 10 -13 16.5t-45 15.5t-55 19q-110 52 -110 139q0 63 50.5 105.5t139.5 42.5q109 0 213 -58l-74 -92q-72 37 -129 37q-45 0 -45 -26q0 -10 12 -16.5t43.5 -16t53.5 -19.5q110 -47 110 -137q0 -61 -50.5 -104 t-143.5 -43q-64 0 -128.5 19.5t-105.5 45.5zM588 975l80 459h139l61 -236l154 236h135l-80 -459h-133l41 235l-102 -159h-76l-45 153l-41 -229h-133z" />
<glyph unicode="&#x2122;" horiz-adv-x="1110" d="M217 1315l21 119h380l-20 -119h-125l-59 -340h-133l61 340h-125zM578 975l81 459h138l63 -234l152 234h135l-80 -459h-133l41 235l-101 -159h-75l-45 161l-41 -237h-135z" />
<glyph unicode="&#x2126;" horiz-adv-x="1378" d="M2 0l57 324h170q-61 47 -99 140t-38 206q0 100 23.5 204.5t78 210t132.5 187t197.5 133t262.5 51.5q274 0 418 -145.5t144 -409.5q0 -218 -85 -376.5t-194 -200.5h150l-56 -324h-545l62 336q67 10 123 69t89.5 142.5t52 174.5t18.5 173q0 227 -185 227q-76 0 -135.5 -48 t-92.5 -116.5t-54 -153t-28 -146.5t-7 -109q0 -87 32 -139t113 -74l-59 -336h-545z" />
<glyph unicode="&#x2153;" horiz-adv-x="1654" d="M154 1288l254 146h235l-151 -861h-246l108 611l-118 -64zM248 0l790 1434h265l-791 -1434h-264zM844 131l129 156q133 -84 213 -84q45 0 69.5 18t24.5 49q0 24 -14 39t-40.5 22t-51 9t-58.5 2h-31l37 211h35q160 0 160 65q0 18 -13 29.5t-38 11.5q-43 0 -100 -22t-99 -47 l-80 172q170 112 338 112q121 0 183.5 -55.5t62.5 -140.5q0 -128 -150 -211q50 -28 78.5 -77.5t28.5 -113.5q0 -50 -17 -98t-52.5 -92.5t-100 -72t-150.5 -27.5q-66 0 -128 16t-109 42t-75.5 46t-51.5 41z" />
<glyph unicode="&#x2154;" horiz-adv-x="1835" d="M55 573l17 101q11 64 39.5 119.5t73.5 101t81.5 74.5t89.5 65q14 8 37 22.5t34.5 22t30 19.5t28 18.5t22.5 16.5t19.5 16.5t13.5 15t9.5 15.5t2.5 14q0 39 -55 39q-70 0 -203 -78l-92 176q184 117 338 117q131 0 197.5 -66t66.5 -161q0 -41 -12.5 -80t-37 -71.5 t-49.5 -59t-60.5 -52t-58.5 -40t-55 -33.5q-124 -69 -133 -99h326l-37 -213h-633zM442 0l791 1434h264l-790 -1434h-265zM1036 131l129 156q133 -84 213 -84q45 0 70 18t25 49q0 24 -14 39t-40.5 22t-51 9t-58.5 2h-31l37 211h35q159 0 159 65q0 18 -13 29.5t-38 11.5 q-43 0 -99.5 -22t-98.5 -47l-80 172q170 112 338 112q121 0 183 -55.5t62 -140.5q0 -128 -149 -211q50 -28 78 -77.5t28 -113.5q0 -50 -17 -98t-52 -92.5t-100 -72t-150 -27.5q-66 0 -128.5 16t-109.5 42t-75.5 46t-51.5 41z" />
<glyph unicode="&#x2155;" horiz-adv-x="1677" d="M154 1288l254 146h235l-151 -861h-246l108 611l-118 -64zM248 0l790 1434h265l-791 -1434h-264zM868 131l138 162q30 -26 51 -41.5t57 -30t72 -14.5q47 0 77.5 24t30.5 68q0 33 -19 52.5t-58 19.5q-66 0 -130 -45l-126 90l118 444h537l-37 -213h-324l-16 -74q50 5 59 5 q122 0 186 -73t64 -181q0 -64 -22.5 -124t-64 -108t-108.5 -77t-149 -29q-191 0 -336 145z" />
<glyph unicode="&#x2156;" horiz-adv-x="1847" d="M51 573l17 101q11 64 39.5 119.5t73.5 101t81.5 74.5t89.5 65q14 8 37 22.5t34.5 22t30 19.5t28 18.5t22.5 16.5t19.5 16.5t13.5 15t9.5 15.5t2.5 14q0 39 -55 39q-70 0 -203 -78l-92 176q184 117 338 117q131 0 197.5 -66t66.5 -161q0 -41 -12.5 -80t-37 -71.5 t-49.5 -59t-60.5 -52t-58.5 -40t-55 -33.5q-124 -69 -133 -99h326l-37 -213h-633zM438 0l791 1434h264l-791 -1434h-264zM1053 131l137 162q30 -26 51 -41.5t57 -30t72 -14.5q47 0 78 24t31 68q0 33 -19.5 52.5t-58.5 19.5q-65 0 -129 -45l-127 90l119 444h536l-37 -213 h-323l-17 -74q50 5 60 5q122 0 186 -73t64 -181q0 -64 -22.5 -124t-64 -108t-108.5 -77t-149 -29q-191 0 -336 145z" />
<glyph unicode="&#x2157;" horiz-adv-x="1816" d="M61 705l129 155q133 -84 213 -84q45 0 70 18.5t25 49.5q0 24 -14 39t-40.5 21.5t-50.5 8.5t-59 2h-31l37 211h35q27 0 52 3t51 9.5t41.5 20.5t15.5 33q0 18 -13.5 29.5t-38.5 11.5q-81 0 -198 -70l-80 172q171 113 338 113q121 0 183 -56t62 -141q0 -128 -149 -211 q50 -28 78 -77t28 -113q0 -50 -17 -98t-52 -93t-100 -72.5t-150 -27.5q-66 0 -128.5 16t-109.5 42.5t-75.5 46.5t-51.5 41zM393 0l791 1434h264l-791 -1434h-264zM1014 131l137 162q30 -26 51 -41.5t57 -30t72 -14.5q47 0 78 24t31 68q0 33 -19.5 52.5t-58.5 19.5 q-65 0 -129 -45l-127 90l119 444h536l-37 -213h-323l-17 -74q50 5 60 5q122 0 186 -73t64 -181q0 -64 -22.5 -124t-64 -108t-108.5 -77t-149 -29q-191 0 -336 145z" />
<glyph unicode="&#x2158;" horiz-adv-x="1898" d="M63 715l31 178l406 541h327l-90 -506h109l-37 -213h-109l-24 -142h-246l25 142h-392zM340 928h152l47 268zM479 0l791 1434h264l-791 -1434h-264zM1096 131l137 162q30 -26 51 -41.5t57 -30t72 -14.5q47 0 78 24t31 68q0 33 -19.5 52.5t-58.5 19.5q-65 0 -129 -45 l-127 90l119 444h536l-37 -213h-323l-17 -74q50 5 60 5q122 0 186 -73t64 -181q0 -64 -22.5 -124t-64 -108t-108.5 -77t-149 -29q-191 0 -336 145z" />
<glyph unicode="&#x2159;" horiz-adv-x="1648" d="M154 1288l254 146h235l-151 -861h-246l108 611l-118 -64zM248 0l790 1434h265l-791 -1434h-264zM868 319q0 146 66.5 271.5t194.5 204.5t290 79q50 0 92.5 -7.5t60.5 -14.5l17 -8l-92 -187q-33 9 -72 9q-80 0 -147.5 -36.5t-108.5 -103.5q60 33 125 33q106 0 170 -68 t64 -178q0 -136 -89 -231.5t-241 -95.5q-156 0 -243 95.5t-87 237.5zM1114 305q0 -52 21.5 -81t60.5 -29q42 0 63 30.5t21 73.5q0 74 -78 74q-28 0 -51.5 -14.5t-36.5 -34.5v-19z" />
<glyph unicode="&#x215a;" horiz-adv-x="1763" d="M63 705l138 161q30 -26 51 -41.5t57 -30t72 -14.5q47 0 77.5 24t30.5 68q0 34 -19.5 53t-57.5 19q-65 0 -129 -45l-127 90l118 445h537l-37 -213h-323l-17 -74q40 4 60 4q122 0 185.5 -73t63.5 -181q0 -64 -22.5 -124t-64 -108t-108.5 -77t-149 -29q-190 0 -336 146z M373 0l790 1434h264l-790 -1434h-264zM987 319q0 146 66.5 271.5t194.5 204.5t290 79q50 0 92.5 -7.5t59.5 -14.5l18 -8l-92 -187q-33 9 -72 9q-80 0 -147.5 -36.5t-108.5 -103.5q60 33 125 33q106 0 170 -68t64 -178q0 -136 -89 -231.5t-241 -95.5q-156 0 -243 95.5 t-87 237.5zM1233 305q0 -52 21.5 -81t60.5 -29q42 0 63 30.5t21 73.5q0 74 -78 74q-28 0 -51.5 -14.5t-36.5 -34.5v-19z" />
<glyph unicode="&#x215b;" horiz-adv-x="1667" d="M154 1288l254 146h235l-151 -861h-246l108 611l-118 -64zM248 0l790 1434h265l-791 -1434h-264zM854 215q0 93 55.5 155t147.5 107q-78 69 -78 162q0 102 82 168.5t229 66.5q136 0 207.5 -56t71.5 -146q0 -126 -146 -209q121 -80 121 -205q0 -121 -96.5 -196.5 t-273.5 -75.5q-158 0 -239 62t-81 167zM1104 246q0 -68 84 -68q50 0 79 24.5t29 65.5q0 56 -71 105q-59 -27 -90 -56t-31 -71zM1208 623q0 -42 43 -70q84 36 84 86q0 22 -14.5 35.5t-40.5 13.5q-32 0 -52 -19.5t-20 -45.5z" />
<glyph unicode="&#x215c;" horiz-adv-x="1794" d="M61 705l129 155q133 -84 213 -84q45 0 70 18.5t25 49.5q0 24 -14 39t-40.5 21.5t-50.5 8.5t-59 2h-31l37 211h35q27 0 52 3t51 9.5t41.5 20.5t15.5 33q0 18 -13.5 29.5t-38.5 11.5q-81 0 -198 -70l-80 172q171 113 338 113q121 0 183 -56t62 -141q0 -128 -149 -211 q50 -28 78 -77t28 -113q0 -50 -17 -98t-52 -93t-100 -72.5t-150 -27.5q-66 0 -128.5 16t-109.5 42.5t-75.5 46.5t-51.5 41zM393 0l791 1434h264l-791 -1434h-264zM989 215q0 93 55.5 155t147.5 107q-78 69 -78 162q0 102 82 168.5t229 66.5q136 0 207.5 -56t71.5 -146 q0 -126 -145 -209q120 -79 120 -205q0 -121 -96.5 -196.5t-273.5 -75.5q-158 0 -239 62t-81 167zM1239 246q0 -68 84 -68q50 0 79.5 24.5t29.5 65.5q0 55 -72 105q-59 -27 -90 -56t-31 -71zM1343 623q0 -42 43 -70q84 36 84 86q0 22 -14.5 35.5t-40.5 13.5q-32 0 -52 -19.5 t-20 -45.5z" />
<glyph unicode="&#x215d;" horiz-adv-x="1792" d="M63 705l138 161q30 -26 51 -41.5t57 -30t72 -14.5q47 0 77.5 24t30.5 68q0 34 -19.5 53t-57.5 19q-65 0 -129 -45l-127 90l118 445h537l-37 -213h-323l-17 -74q40 4 60 4q122 0 185.5 -73t63.5 -181q0 -64 -22.5 -124t-64 -108t-108.5 -77t-149 -29q-190 0 -336 146z M371 0l790 1434h264l-790 -1434h-264zM985 215q0 93 55.5 155t147.5 107q-78 69 -78 162q0 102 82 168.5t229 66.5q136 0 207.5 -56t71.5 -146q0 -126 -146 -209q121 -80 121 -205q0 -121 -96.5 -196.5t-273.5 -75.5q-158 0 -239 62t-81 167zM1235 246q0 -68 84 -68 q49 0 78.5 24.5t29.5 65.5q0 56 -71 105q-59 -27 -90 -56t-31 -71zM1339 623q0 -42 43 -70q84 36 84 86q0 22 -14.5 35.5t-40.5 13.5q-32 0 -52 -19.5t-20 -45.5z" />
<glyph unicode="&#x215e;" horiz-adv-x="1622" d="M102 573q15 84 54.5 179t82 167.5t93.5 144t77.5 104t45.5 53.5h-293l37 213h567l-35 -201q-13 -14 -34.5 -39t-78.5 -101.5t-104 -151.5t-92.5 -177.5t-61.5 -190.5h-258zM207 0l790 1434h265l-791 -1434h-264zM817 215q0 93 55.5 155t147.5 107q-78 69 -78 162 q0 102 82 168.5t229 66.5q136 0 207.5 -56t71.5 -146q0 -126 -146 -209q121 -80 121 -205q0 -121 -96.5 -196.5t-273.5 -75.5q-158 0 -239 62t-81 167zM1067 246q0 -68 84 -68q50 0 79.5 24.5t29.5 65.5q0 55 -72 105q-59 -27 -90 -56t-31 -71zM1171 623q0 -42 43 -70 q84 36 84 86q0 22 -14.5 35.5t-40.5 13.5q-32 0 -52 -19.5t-20 -45.5z" />
<glyph unicode="&#x2202;" horiz-adv-x="1181" d="M35 416q0 150 64 279t175 204.5t242 75.5q54 0 101 -14t74.5 -32.5t49.5 -42t29.5 -36.5t11.5 -21q-14 143 -97 226.5t-241 83.5q-36 0 -77.5 -4.5t-64.5 -8.5l-23 -4l16 289q73 23 186 23q133 0 241.5 -40.5t180 -108t120 -159.5t70 -191.5t21.5 -207.5 q0 -119 -24.5 -229.5t-75 -205.5t-122 -165t-171.5 -110t-217 -40q-229 0 -349 121.5t-120 317.5zM410 408q0 -144 125 -144q51 0 89.5 27.5t59.5 71.5t31 90t10 90q0 145 -127 145q-48 0 -86.5 -29.5t-59.5 -74.5t-31.5 -90.5t-10.5 -85.5z" />
<glyph unicode="&#x2206;" horiz-adv-x="1333" d="M-66 0l691 1434h385l184 -1434h-1260zM434 324h406l-76 725z" />
<glyph unicode="&#x220f;" horiz-adv-x="1292" d="M82 0l197 1116h-138l56 318h1181l-55 -318h-135l-197 -1116h-373l195 1116h-162l-196 -1116h-373z" />
<glyph unicode="&#x2211;" horiz-adv-x="1101" d="M-45 0l27 160l526 559l-330 557l29 158h958l-57 -324h-446l233 -393l-336 -393h410l-56 -324h-958z" />
<glyph unicode="&#x2212;" horiz-adv-x="1163" d="M125 543l51 280h881l-49 -280h-883z" />
<glyph unicode="&#x221a;" horiz-adv-x="1193" d="M8 696h373l57 -362l533 1100h383l-733 -1434h-445z" />
<glyph unicode="&#x221e;" horiz-adv-x="1568" d="M59 477q0 112 43.5 209t129 159t194.5 62q58 0 106.5 -15.5t92 -49.5t77 -71t80.5 -97q72 67 110.5 100t92 69t101.5 50t104 14q142 0 215.5 -94.5t73.5 -234.5q0 -112 -43 -208.5t-129 -158t-197 -61.5q-57 0 -104.5 15.5t-91 49.5t-78 71t-80.5 97q-51 -47 -75.5 -69 t-65 -55t-66 -48t-60.5 -32t-68.5 -23t-70.5 -6q-142 0 -216.5 94.5t-74.5 232.5zM315 504q0 -56 29 -84.5t70 -28.5q37 0 82.5 30.5t138.5 115.5q-64 72 -104 100.5t-74 28.5q-56 0 -99 -46.5t-43 -115.5zM903 520q60 -70 101 -99.5t79 -29.5q57 0 99.5 47.5t42.5 114.5 q0 56 -29 84.5t-70 28.5q-39 0 -84.5 -30.5t-138.5 -115.5z" />
<glyph unicode="&#x222b;" horiz-adv-x="718" d="M-135 -293l37 205h30q33 0 59 15.5t41 36.5t27.5 56t17.5 59t11 62l203 1151q22 124 58.5 205t99 131t147 70t209.5 20h82l-37 -205h-31q-32 0 -58 -15.5t-41 -36t-27.5 -56t-18 -59t-12.5 -62.5l-203 -1151q-22 -125 -58 -205.5t-98 -130.5t-146.5 -70t-209.5 -20h-82z " />
<glyph unicode="&#x2248;" horiz-adv-x="1163" d="M104 410q67 143 139.5 217.5t168.5 74.5q48 0 96.5 -20t81 -44.5t72 -44.5t71.5 -20q30 0 57 23.5t70 95.5l160 -76q-68 -141 -139.5 -216.5t-169.5 -75.5q-47 0 -95.5 20t-81 44.5t-72.5 44.5t-73 20q-29 0 -56 -23.5t-71 -95.5zM174 805q67 143 140 218t169 75 q47 0 95 -20t80.5 -44.5t72 -44.5t72.5 -20q29 0 56.5 23.5t70.5 94.5l160 -75q-70 -144 -142 -218.5t-168 -74.5q-47 0 -95 20t-81 44.5t-72.5 44.5t-72.5 20q-29 0 -56 -23t-71 -96z" />
<glyph unicode="&#x2260;" horiz-adv-x="1163" d="M92 344l49 281h289l59 120h-327l51 281h416l137 272l219 -94l-90 -178h197l-50 -281h-288l-60 -120h328l-51 -281h-418l-135 -272l-217 94l88 178h-197z" />
<glyph unicode="&#x2264;" horiz-adv-x="1163" d="M18 0l41 238h879l-41 -238h-879zM131 639l39 217l940 358l-55 -323l-484 -156l428 -155l-53 -299z" />
<glyph unicode="&#x2265;" horiz-adv-x="1161" d="M49 0l43 238h879l-41 -238h-881zM98 281l58 323l479 154l-424 157l53 299l815 -358l-37 -217z" />
<glyph unicode="&#x2318;" horiz-adv-x="1433" d="M39 373q0 127 88 212t215 85h137l19 94h-41q-123 0 -210 86.5t-87 208.5q0 123 87 210t210 87q117 0 204 -84t84 -213q0 -18 -4.5 -50t-5.5 -44h86l23 131q19 102 95 178.5t189 79.5q34 3 68 -6q101 -22 167.5 -102.5t66.5 -186.5q0 -125 -88.5 -210t-215.5 -85h-137 l-16 -94h41q122 0 208.5 -87t86.5 -210q0 -121 -86.5 -207t-208.5 -86q-119 0 -205.5 84.5t-83.5 212.5q0 15 4 46t4 46h-86l-22 -129q-20 -115 -100.5 -187.5t-190.5 -72.5q-123 0 -209 85t-86 208zM240 373q0 -38 28 -65t66 -27t62.5 26t29.5 60l18 102h-110 q-38 0 -66 -28t-28 -68zM360 1059q0 -38 28.5 -66t68.5 -28h73q2 8 13 61q7 49 -13 89t-73 40q-40 0 -68.5 -28t-28.5 -68zM684 670h86l16 94h-86zM926 408q-9 -46 11.5 -86.5t76.5 -40.5q38 0 66 27t28 65q0 40 -28 68t-66 28h-76zM1026 965h109q39 0 66.5 27.5t27.5 66.5 q0 40 -27 68t-67 28q-39 0 -63 -29t-30 -59z" />
<glyph unicode="&#x25ca;" horiz-adv-x="1067" d="M68 717l434 717h354l180 -717l-434 -717h-354zM395 662l72 -300l244 410l-74 297z" />
<glyph unicode="&#xe000;" horiz-adv-x="1075" d="M0 0v1075h1075v-1075h-1075z" />
<glyph unicode="&#xf6c3;" horiz-adv-x="290" d="M-92 -553l135 168h-104l49 276h241l-45 -311l-229 -219z" />
<glyph unicode="&#xf6df;" horiz-adv-x="643" d="M-43 49q0 192 87 301t216 109h10l17 94h166l-23 -129q27 -10 68.5 -31t54.5 -26l-109 -170q-95 51 -139 51q-51 0 -80.5 -50.5t-29.5 -119.5q0 -78 63 -78q46 0 150 45l65 -188q-101 -41 -156 -54l-18 -110h-166l17 96q-88 11 -140.5 75t-52.5 185z" />
<glyph unicode="&#xf6e0;" horiz-adv-x="641" d="M150 1145q0 192 87 300.5t216 108.5h10l16 95h166l-22 -129q27 -10 67.5 -31t54.5 -27l-108 -170q-95 51 -139 51q-51 0 -81 -50t-30 -119q0 -78 64 -78q45 0 149 45l66 -189q-95 -39 -156 -53l-18 -111h-166l16 97q-88 11 -140 75t-52 185z" />
<glyph unicode="&#xf6e1;" horiz-adv-x="370" d="M-119 -453l127 146h-102l45 256h231l-39 -291l-219 -190z" />
<glyph unicode="&#xf6e2;" horiz-adv-x="372" d="M76 643l127 145h-103l45 256h232l-39 -290l-219 -191z" />
<glyph unicode="&#xf6e3;" horiz-adv-x="747" d="M-111 -184l134 176q152 -98 249 -98q62 0 62 43q0 21 -18.5 35t-71.5 35t-82 36q-174 105 -174 256q0 107 77.5 184.5t221.5 83.5l20 111h168l-24 -131q108 -25 221 -92l-137 -176q-46 28 -109 50.5t-107 22.5q-65 0 -65 -45q0 -19 21 -33.5t73.5 -37.5t87.5 -43 q76 -46 121 -101.5t45 -136.5q0 -109 -79.5 -190t-225.5 -87l-18 -108h-166l20 127q-132 36 -244 119z" />
<glyph unicode="&#xf6e4;" horiz-adv-x="749" d="M82 911l133 176q152 -98 250 -98q61 0 61 43q0 14 -8 24.5t-25.5 20t-36 17t-48.5 20.5t-54 25q-174 105 -174 256q0 108 78 186t223 82l21 111h166l-23 -132q107 -25 219 -92l-137 -176q-47 28 -109 51t-106 23q-66 0 -66 -45q0 -19 21 -33.5t74.5 -38t87.5 -43.5 q77 -46 121.5 -101t44.5 -136q0 -109 -79 -190t-224 -87l-19 -108h-166l23 125q-137 34 -248 120z" />
<glyph unicode="&#xf6e7;" horiz-adv-x="368" d="M-92 -307l45 256h229l-45 -256h-229z" />
<glyph unicode="&#xf6e8;" horiz-adv-x="370" d="M102 788l45 256h230l-45 -256h-230z" />
<glyph unicode="&#xf6e9;" horiz-adv-x="761" d="M127 1001q0 109 32 209t99.5 169t155.5 69q54 0 88.5 -19t72.5 -55l11 60h237l-114 -646h-238l10 60q-98 -74 -182 -74q-81 0 -126.5 61t-45.5 166zM369 1038q0 -65 45 -65t100 61l29 160q-27 55 -72 55q-46 0 -74 -71.5t-28 -139.5z" />
<glyph unicode="&#xf6ea;" horiz-adv-x="763" d="M113 788l157 895h238l-55 -309q98 74 184 74q79 0 125.5 -61t46.5 -166q0 -76 -18.5 -152.5t-53 -143.5t-91.5 -109t-126 -42q-92 0 -160 72l-10 -58h-237zM391 1028q27 -55 74 -55q45 0 72.5 69.5t27.5 137.5q0 69 -45 69q-48 0 -100 -65z" />
<glyph unicode="&#xf6eb;" horiz-adv-x="763" d="M127 1001q0 109 32 209t99.5 169t155.5 69q54 0 89 -19.5t70 -54.5l56 309h237l-157 -895h-238l10 60q-98 -74 -184 -74q-79 0 -124.5 61t-45.5 166zM369 1038q0 -65 45 -65t100 61l29 162q-27 53 -72 53q-46 0 -74 -71.5t-28 -139.5z" />
<glyph unicode="&#xf6ec;" horiz-adv-x="688" d="M125 1038q0 183 96 296.5t268 113.5q111 0 177.5 -53t66.5 -148q0 -55 -20.5 -95.5t-51 -62.5t-76.5 -34.5t-84.5 -15.5t-88.5 -3h-56q6 -80 66 -80q65 0 196 64l66 -168q-169 -78 -317 -78q-242 0 -242 264zM367 1161h49q100 0 100 74q0 39 -45 39q-75 0 -104 -113z" />
<glyph unicode="&#xf6ed;" horiz-adv-x="407" d="M113 788l114 646h238l-115 -646h-237zM233 1493l35 188h244l-33 -188h-246z" />
<glyph unicode="&#xf6ee;" horiz-adv-x="409" d="M115 788l157 895h238l-158 -895h-237z" />
<glyph unicode="&#xf6ef;" horiz-adv-x="1087" d="M113 788l114 646h238l-12 -68q86 82 178 82q119 0 141 -107q36 42 91 74.5t110 32.5q89 0 124.5 -59t16.5 -162l-76 -439h-237l71 402q7 29 3 47t-25 18q-39 0 -86 -55l-72 -412h-235l71 402q8 29 3 47t-27 18q-35 0 -80 -53l-74 -414h-237z" />
<glyph unicode="&#xf6f0;" horiz-adv-x="731" d="M125 1047q0 53 10.5 106.5t36.5 107t64.5 94.5t100 67t136.5 26q60 0 112.5 -15t95.5 -46t68 -85t25 -126q0 -54 -10.5 -107t-36 -107t-64 -95t-99.5 -67t-138 -26q-60 0 -112 15t-95.5 46.5t-68.5 85.5t-25 126zM362 1040q0 -38 14.5 -57.5t51.5 -19.5q29 0 52 25t35 62 t18 71.5t6 60.5q0 39 -14.5 58.5t-53.5 19.5q-37 0 -63.5 -44t-36 -91.5t-9.5 -84.5z" />
<glyph unicode="&#xf6f1;" horiz-adv-x="555" d="M113 788l114 646h238l-23 -134q85 153 226 142l-39 -236q-52 0 -96 -24t-70 -58t-44.5 -67.5t-26.5 -57.5l-7 -24l-35 -187h-237z" />
<glyph unicode="&#xf6f2;" horiz-adv-x="671" d="M96 877l99 149q50 -29 112 -52.5t103 -23.5q39 0 39 25q0 8 -5 14.5t-16 11t-22.5 8t-31 9.5t-34.5 12q-36 15 -60.5 28.5t-53.5 37t-44.5 57.5t-15.5 78q0 92 69.5 154.5t196.5 62.5q144 0 295 -82l-98 -147q-112 55 -183 55q-38 0 -38 -27q0 -8 4 -14t14.5 -11t21.5 -8 t31 -9.5t37 -12.5q27 -11 46 -20t45.5 -27t42.5 -37.5t28 -50t12 -66.5q0 -92 -70.5 -154.5t-201.5 -62.5q-90 0 -174.5 30t-147.5 73z" />
<glyph unicode="&#xf6f3;" horiz-adv-x="567" d="M143 1253l31 181h72l26 151l242 35l-33 -186h150l-31 -181h-151l-35 -206q-9 -56 22 -56q26 0 74 21l51 -189q-117 -49 -221 -49q-107 0 -146 75.5t-14 213.5l33 190h-70z" />
<glyph unicode="&#xf8ff;" horiz-adv-x="1792" d="M140.5 560.5q-2.5 11.5 15.5 21.5l57 41q2 1 3.5 2.5l3 3l2.5 2.5t2 3l1 1q19 16 37 -12l33 -64q6 -12 13.5 -15.5t14 2t9.5 17.5l18 70q4 19 18.5 21t26.5 -13l47 -53q13 -15 23.5 -11.5t11.5 23.5l4 70q3 20 15.5 25t27.5 -7l58 -43q17 -12 25.5 -6.5t4.5 25.5l-8 69 q-3 20 8.5 28t28.5 -1l64 -29q19 -9 26.5 -1.5t1.5 26.5l-22 67q-8 19 0.5 29t27.5 4l15 -2q40 -77 70 -202.5t30 -217.5q-15 -18 -34.5 -27.5t-59.5 -9.5h-8q0 46 -33 72q18 -21 18 -55v-15q-32 3 -32 39q0 43 -28 72t-77 29q-41 0 -68.5 -32t-27.5 -79q0 -60 49.5 -96.5 t138.5 -36.5q85 0 172 42t156.5 112t125 154.5t86 175.5t30.5 169q0 59 -37 98t-95 39q-48 0 -85 -33.5t-37 -84.5q0 -52 30.5 -82.5t87.5 -36.5q-30 -122 -59 -174q-12 96 -43.5 178t-75.5 129q91 -120 107 -330l-29 -41q0 156 -51 287t-131 172q-5 9 2 18.5t22 12.5l70 12 q19 3 21 13.5t-15 21.5l-59 39q-15 13 -13.5 26.5t19.5 20.5l63 29q14 4 19 10t0 13t-19 13l-63 27q-24 11 -21 29q13 6 15 16l35 62q9 19 20 18t16 -20l21 -68q6 -21 18.5 -24t26.5 14l47 53q12 15 23 12.5t12 -22.5l4 -72q1 -21 14.5 -26t28.5 8l57 43q15 12 24 5.5 t7 -26.5l-10 -70q-1 -20 10.5 -27.5t28.5 1.5l63 33q19 8 26.5 0t0.5 -29l-23 -64q-6 -20 3 -30t28 -4l70 14q20 6 26.5 -2t-4.5 -27l-37 -59q-12 -17 -5.5 -29.5t26.5 -11.5l71 4q21 0 25.5 -11t-8.5 -24l-49 -53q-14 -13 -10.5 -26.5t24.5 -16.5l70 -12q43 -10 6 -39 l-58 -39q-10 -7 -13 -15.5t2 -16.5t18 -13l63 -27q12 -5 16.5 -12t0 -13.5t-16.5 -11.5l-63 -26q-20 -7 -21.5 -22t14.5 -25l58 -41q11 -7 14.5 -14.5t-2 -13.5t-18.5 -9l-70 -13q-21 -3 -24.5 -16.5t10.5 -28.5l49 -49q13 -14 8.5 -24.5t-25.5 -10.5l-71 5q-20 0 -26.5 -12 t5.5 -29l37 -62q10 -17 4 -25.5t-26 -5.5l-70 19q-19 4 -28 -6t-3 -29l23 -68q8 -19 0 -26t-27 2l-63 31q-17 9 -28.5 1t-10.5 -30l10 -68q1 -21 -7.5 -25.5t-23.5 7.5l-57 43q-15 12 -28.5 5.5t-14.5 -26.5l-4 -69q-1 -20 -12 -23t-23 11l-47 55q-13 14 -26 12t-19 -22 l-21 -68q-3 -13 -9.5 -18t-13.5 -1t-13 15l-35 61q-9 19 -22 19t-25 -19l-31 -61q-6 -11 -13.5 -15t-14 1t-9.5 18l-20 68q-6 20 -19 22t-26 -12l-48 -55q-12 -14 -21.5 -11t-12.5 23l-5 69q-2 20 -15 26.5t-30 -5.5l-53 -43q-17 -13 -27 -8t-6 26l11 68q1 22 -10.5 30 t-30.5 -1l-62 -31q-19 -9 -26.5 -2t0.5 26l22 68q7 19 -2.5 29.5t-28.5 5.5l-69 -19q-20 -3 -26.5 5.5t3.5 25.5l39 62q11 17 4.5 29t-26.5 12l-72 -5q-21 0 -25 10.5t9 24.5l51 49q13 15 8.5 28.5t-25.5 16.5l-67 13q-21 4 -23.5 15.5zM616 281q44 -27 123 -27 q106 0 212.5 65t183.5 162t125.5 212t48.5 214q0 63 -41 101q24 -38 24 -84q0 -100 -47.5 -215t-126.5 -215q-85 -105 -188.5 -168.5t-212.5 -63.5q-58 0 -101 19z" />
<glyph unicode="&#xfb06;" horiz-adv-x="1755" d="M-45 141l168 248q77 -48 174.5 -86.5t159.5 -38.5q31 0 48 11.5t17 29.5q0 16 -8 28t-27.5 22.5t-37 17.5t-51.5 19.5t-56 21.5q-55 23 -97.5 48.5t-84.5 64t-65 93.5t-23 121q0 154 110.5 255.5t309.5 101.5q102 0 231 -35q-6 30 -6 63q0 158 114.5 262.5t323.5 104.5 q211 0 323 -107.5t78 -298.5l-2 -12h232l-47 -274h-234l-69 -400q-11 -59 1.5 -77.5t37.5 -18.5q31 0 116 39l76 -291q-201 -76 -342 -76q-163 0 -223 116t-21 335l66 373h-119l47 274h119l6 31q21 117 -5 172t-114 55q-92 0 -154.5 -61.5t-62.5 -169.5q0 -55 19 -101 q42 -19 71 -36l-166 -246q-70 37 -149.5 65.5t-132.5 28.5q-31 0 -48.5 -11.5t-17.5 -29.5q0 -16 7.5 -27.5t25.5 -21.5t35 -16.5t50.5 -18.5t57.5 -22q42 -18 75.5 -35.5t73 -47t65.5 -62.5t43.5 -81.5t17.5 -103.5q0 -75 -27.5 -139.5t-80.5 -114t-136 -77.5t-188 -28 q-142 0 -273.5 47.5t-230.5 116.5z" />
<glyph horiz-adv-x="755" d="M82 590l94 186q31 -8 70 -8q81 0 147 35t107 102q-52 -31 -123 -31q-105 0 -168.5 67.5t-63.5 178.5q0 136 89 232t241 96q155 0 241.5 -96t86.5 -238q0 -146 -66.5 -271.5t-194.5 -204.5t-290 -79q-50 0 -92.5 7.5t-59.5 15.5zM391 1135q0 -74 78 -74q55 0 88 47v20 q0 52 -21.5 81.5t-60.5 29.5q-42 0 -63 -30.5t-21 -73.5z" />
<glyph horiz-adv-x="1077" d="M-109 0l435 598l-211 578h374l74 -328l189 328h409l-413 -576l223 -600h-377l-84 326l-195 -326h-424z" />
<glyph horiz-adv-x="1462" d="M-186 -201q54 20 87.5 35t60 35t40 34.5t25.5 46t17.5 56t14.5 76.5l127 719h-116l49 274h114q37 212 119.5 315t235.5 103q163 0 364 -119l-151 -223q-98 35 -133 35q-12 0 -24 -5t-27 -25.5t-21 -55.5l-4 -25h203l-52 -274h-200l-119 -688q-15 -83 -22.5 -121.5 t-23 -99t-31 -88t-44 -69.5t-63 -64t-86 -51.5t-116.5 -51.5t-151 -45zM545 -201q54 20 87.5 35t60.5 35t40.5 34.5t25.5 45.5t17.5 56t14.5 77l127 719h-117l49 274h115q37 213 117.5 315.5t232.5 102.5q128 0 301 -96l-125 -238q-65 27 -92 27q-12 0 -23.5 -5t-26 -25.5 t-20.5 -55.5l-4 -25h201l-51 -274h-199l-121 -688q-15 -83 -22.5 -121.5t-23 -99t-31 -88t-44 -69.5t-63 -64t-86 -51.5t-116.5 -51.5t-151 -45z" />
<glyph horiz-adv-x="1382" d="M-188 -201q54 20 87.5 35t60 35t40 34.5t25.5 46t17.5 56t14.5 76.5l125 719h-110l47 274h112q41 204 127.5 301t245.5 97q164 0 387 -99q87 119 248 119q164 0 365 -119l-162 -223q-92 35 -123 35q-12 0 -24 -5t-27 -25.5t-21 -55.5l-4 -25h203l-51 -274h-201l-119 -688 q-35 -199 -61 -270q-44 -118 -142 -186q-104 -72 -333 -134l-74 276q54 20 87.5 35t60.5 35t40.5 34.5t25.5 45.5t17.5 56t14.5 77l127 719h-293l-123 -688q-35 -199 -61 -269q-43 -118 -140 -186q-105 -73 -336 -135zM594 1075h291l14 74q-151 37 -215 37q-28 0 -53 -19 t-33 -67z" />
<glyph horiz-adv-x="2496" d="M-188 -201q54 20 87.5 35t60 35t40 34.5t25.5 46t17.5 56t14.5 76.5l125 719h-110l47 274h112q41 204 127.5 301t245.5 97q163 0 391 -101q92 121 265 121q149 0 339 -78l15 78h360l-92 -522q150 127 291 127q128 0 200 -98t72 -271q0 -131 -29.5 -261t-84.5 -241 t-145 -180.5t-199 -69.5q-85 0 -142 33t-114 92l-19 -102h-360l200 1149q-136 37 -215 37q-74 0 -88 -86l-4 -25h199l-49 -274h-199l-123 -688q-35 -199 -61 -270q-43 -118 -142 -186q-103 -72 -331 -134l-76 276q54 20 87.5 35t60.5 35t40.5 34.5t25.5 45.5t17.5 56 t14.5 77l127 719h-291l-123 -688q-35 -199 -61 -269q-43 -118 -140 -186q-105 -73 -336 -135zM594 1075h289l16 74q-151 37 -215 37q-28 0 -53 -19t-33 -67zM1778 379q50 -100 125 -100q53 0 94.5 66.5t60.5 153t19 167.5q0 59 -19.5 95t-60.5 36q-74 0 -164 -111z" />
<glyph horiz-adv-x="2488" d="M-188 -201q54 20 87.5 35t60 35t40 34.5t25.5 46t17.5 56t14.5 76.5l125 719h-110l47 274h112q41 204 127.5 301t245.5 97q163 0 391 -101q92 121 265 121q149 0 339 -78l15 78h360l-92 -526q83 62 158 96.5t158 34.5q143 0 202.5 -94.5t26.5 -276.5l-127 -727h-361 l117 666q14 58 5.5 99.5t-50.5 41.5q-38 0 -86.5 -31t-89.5 -76l-123 -700h-360l200 1149q-136 37 -215 37q-74 0 -88 -86l-4 -25h199l-49 -274h-199l-123 -688q-35 -199 -61 -270q-43 -118 -142 -186q-103 -72 -331 -134l-76 276q54 20 87.5 35t60.5 35t40.5 34.5 t25.5 45.5t17.5 56t14.5 77l127 719h-291l-123 -688q-35 -199 -61 -269q-43 -118 -140 -186q-105 -73 -336 -135zM594 1075h289l16 74q-151 37 -215 37q-28 0 -53 -19t-33 -67z" />
<glyph horiz-adv-x="1847" d="M-188 -201q54 20 87.5 35t60 35t40 34.5t25.5 46t17.5 56t14.5 76.5l125 719h-110l47 274h112q41 204 127.5 301t245.5 97q166 0 395 -103q95 123 279 123q109 0 241.5 -36.5t239.5 -82.5l-143 -223q-175 35 -262 35q-35 0 -65.5 -19t-41.5 -67l-4 -25h598l-190 -1075 h-359l140 801h-238l-121 -688q-35 -199 -61 -270q-44 -118 -142 -186q-104 -72 -333 -134l-74 276q54 20 87.5 35t60.5 35t40.5 34.5t25.5 45.5t17.5 56t14.5 77l127 719h-291l-123 -688q-35 -199 -61 -269q-43 -118 -140 -186q-105 -73 -336 -135zM594 1075h289l16 74 q-151 37 -215 37q-28 0 -53 -19t-33 -67z" />
<glyph horiz-adv-x="1851" d="M-188 -201q54 20 87.5 35t60 35t40 34.5t25.5 46t17.5 56t14.5 76.5l125 719h-110l47 274h112q41 204 127.5 301t245.5 97q165 0 393 -101q100 121 281 121q109 0 241.5 -36.5t239.5 -82.5l-143 -223q-175 35 -262 35q-35 0 -65.5 -19t-41.5 -67l-4 -25h600l-178 -1003 q-32 -180 -58 -247q-45 -117 -151 -184q-108 -68 -321 -118l-74 282q54 20 88 34.5t60.5 32t40 30t24 36.5t15 43t11.5 58l134 762h-240l-121 -688q-35 -199 -61 -270q-44 -118 -142 -186q-104 -72 -333 -134l-74 276q54 20 87.5 35t60.5 35t40.5 34.5t25.5 45.5t17.5 56 t14.5 77l127 719h-291l-123 -688q-35 -199 -61 -269q-43 -118 -140 -186q-105 -73 -336 -135zM594 1075h289l16 74q-151 37 -215 37q-28 0 -53 -19t-33 -67z" />
<glyph horiz-adv-x="2437" d="M-188 -201q54 20 87.5 35t60 35t40 34.5t25.5 46t17.5 56t14.5 76.5l125 719h-110l47 274h112q41 204 127.5 301t245.5 97q163 0 391 -101q92 121 265 121q149 0 339 -78l15 78h360l-125 -711l215 293h430l-393 -438l250 -637h-369l-124 367l-101 -113l-45 -254h-360 l200 1149q-136 37 -215 37q-74 0 -88 -86l-4 -25h199l-49 -274h-199l-123 -688q-35 -199 -61 -270q-43 -118 -142 -186q-103 -72 -331 -134l-76 276q54 20 87.5 35t60.5 35t40.5 34.5t25.5 45.5t17.5 56t14.5 77l127 719h-291l-123 -688q-35 -199 -61 -269 q-43 -118 -140 -186q-105 -73 -336 -135zM594 1075h289l16 74q-151 37 -215 37q-28 0 -53 -19t-33 -67z" />
<glyph horiz-adv-x="731" d="M-186 -201q54 20 87.5 35t60 35t40 34.5t25.5 46t17.5 56t14.5 76.5l127 719h-116l49 274h114q37 212 118 315t233 103q128 0 301 -96l-125 -238q-65 27 -92 27q-12 0 -23.5 -5t-26 -25.5t-20.5 -55.5l-4 -25h201l-52 -274h-198l-121 -688q-15 -83 -22.5 -121.5t-23 -99 t-31 -88t-44 -69.5t-63 -64t-86 -51.5t-116.5 -51.5t-151 -45z" />
<glyph horiz-adv-x="1914" d="M-188 -201q54 20 87.5 35t60 35t40 34.5t25.5 46t17.5 56t14.5 76.5l125 719h-110l47 274h112q41 204 127.5 301t245.5 97q163 0 391 -101q92 121 265 121q142 0 342 -78l14 78h360l-262 -1493h-360l200 1149q-136 37 -217 37q-74 0 -88 -86l-4 -25h199l-49 -274h-199 l-123 -688q-35 -199 -61 -270q-43 -118 -142 -186q-103 -72 -331 -134l-76 276q54 20 87.5 35t60.5 35t40.5 34.5t25.5 45.5t17.5 56t14.5 77l127 719h-291l-123 -688q-35 -199 -61 -269q-43 -118 -140 -186q-105 -73 -336 -135zM594 1075h289l16 74q-151 37 -215 37 q-28 0 -53 -19t-33 -67z" />
<glyph horiz-adv-x="2127" d="M-188 -201q54 20 87.5 35t60 35t40 34.5t25.5 46t17.5 56t14.5 76.5l125 719h-110l47 274h112q41 204 127.5 301t245.5 97q162 0 385 -99q87 119 248 119q164 0 365 -119l-164 -223q-83 35 -121 35q-56 0 -72 -86l-4 -25h328l45 254l368 57l-55 -311h234l-50 -274h-233 l-70 -400q-9 -59 3.5 -77.5t37.5 -18.5q27 0 117 39l76 -291q-201 -76 -344 -76q-163 0 -223 116t-21 335l66 373h-328l-121 -688q-35 -199 -61 -270q-43 -118 -142 -186q-103 -72 -331 -134l-74 276q54 20 87.5 35t60.5 35t40.5 34.5t25.5 45.5t17.5 56t14.5 77l127 719 h-291l-123 -688q-35 -199 -61 -269q-43 -118 -140 -186q-105 -73 -336 -135zM594 1075h289l16 74q-156 37 -215 37q-72 0 -86 -86z" />
<glyph horiz-adv-x="1837" d="M-186 -201q54 20 87.5 35t60 35t40 34.5t25.5 46t17.5 56t14.5 76.5l127 719h-116l49 274h114q39 215 126.5 316.5t248.5 101.5q140 0 340 -78l15 78h360l-92 -526q84 62 158 96.5t157 34.5q143 0 203 -94.5t27 -276.5l-127 -727h-361l117 666q14 58 5.5 99.5t-50.5 41.5 q-38 0 -86.5 -31t-89.5 -76l-123 -700h-361l201 1149q-136 37 -215 37q-71 0 -88 -86l-4 -25h201l-52 -274h-198l-121 -688q-15 -83 -22.5 -121.5t-23 -99t-31 -88t-44 -69.5t-63 -64t-86 -51.5t-116.5 -51.5t-151 -45z" />
<glyph horiz-adv-x="1140" d="M60.5 399q3.5 56 15.5 123l114 654h342l-126 -730q-14 -76 6 -117.5t98 -41.5t115 42t51 117l127 730h342l-127 -719q-15 -86 -35 -151t-59 -128.5t-93 -104.5t-138.5 -66t-194.5 -25q-90 0 -161 14.5t-119.5 40.5t-82 65t-50.5 83.5t-22.5 101t-2 112.5zM414 1522h207 q-5 -34 16.5 -55t62.5 -21q57 0 93 21t41 55h208q-24 -128 -115.5 -200.5t-236.5 -72.5q-152 0 -224.5 76t-51.5 197z" />
<glyph horiz-adv-x="1198" d="M-186 -201q54 20 87.5 35t60 35t40 34.5t25.5 46t17.5 56t14.5 76.5l127 719h-116l49 274h117q39 215 130.5 316.5t260.5 101.5q110 0 241.5 -36t241.5 -83l-145 -223q-175 35 -260 35q-86 0 -105 -86l-4 -25h596l-191 -1075h-358l139 801h-235l-123 -688 q-15 -83 -22.5 -121.5t-23 -99t-31 -88t-44 -69.5t-63 -64t-86 -51.5t-116.5 -51.5t-151 -45z" />
<glyph horiz-adv-x="1198" d="M-186 -201q54 20 87.5 35t60 35t40 34.5t25.5 46t17.5 56t14.5 76.5l127 719h-116l49 274h117q39 215 130.5 316.5t260.5 101.5q110 0 241.5 -36t241.5 -83l-145 -223q-175 35 -260 35q-86 0 -105 -86l-4 -25h596l-178 -1003q-14 -83 -22.5 -123t-26.5 -100.5t-40 -90 t-59.5 -70.5t-89 -65t-124 -50.5t-169.5 -49.5l-71 282q54 20 87.5 34.5t60 32t39.5 30t23.5 36.5t15 43t11.5 58l135 762h-237l-123 -688q-15 -83 -22.5 -121.5t-23 -99t-31 -88t-44 -69.5t-63 -64t-86 -51.5t-116.5 -51.5t-151 -45z" />
<glyph horiz-adv-x="1783" d="M-186 -201q54 20 87.5 35t60 35t40 34.5t25.5 46t17.5 56t14.5 76.5l127 719h-116l49 274h114q39 215 126.5 316.5t248.5 101.5q140 0 340 -78l15 78h360l-125 -711l215 293h430l-393 -438l250 -637h-369l-125 367l-100 -113l-45 -254h-361l201 1149q-136 37 -215 37 q-71 0 -88 -86l-4 -25h201l-52 -274h-198l-121 -688q-15 -83 -22.5 -121.5t-23 -99t-31 -88t-44 -69.5t-63 -64t-86 -51.5t-116.5 -51.5t-151 -45z" />
<glyph horiz-adv-x="423" d="M127 788l39 230h229l-39 -230h-229zM223 1087l27 562h287l-175 -562h-139z" />
<glyph horiz-adv-x="1263" d="M-186 -201q54 20 87.5 35t60 35t40 34.5t25.5 46t17.5 56t14.5 76.5l127 719h-116l49 274h114q39 215 126.5 316.5t248.5 101.5q140 0 340 -78l15 78h360l-262 -1493h-361l201 1149q-151 37 -215 37q-71 0 -88 -86l-4 -25h201l-52 -274h-198l-121 -688 q-15 -83 -22.5 -121.5t-23 -99t-31 -88t-44 -69.5t-63 -64t-86 -51.5t-116.5 -51.5t-151 -45z" />
<glyph horiz-adv-x="1480" d="M-186 -201q54 20 87.5 35t60 35t40 34.5t25.5 46t17.5 56t14.5 76.5l127 719h-116l49 274h114q37 212 119.5 315t235.5 103q163 0 364 -119l-161 -223q-93 35 -123 35q-12 0 -23.5 -5t-26 -25.5t-20.5 -55.5l-4 -25h326l45 254l368 57l-55 -311h233l-49 -274h-233 l-70 -400q-9 -59 3.5 -77.5t37.5 -18.5q27 0 117 39l76 -291q-201 -76 -344 -76q-163 0 -223 116t-21 335l65 373h-325l-121 -688q-15 -83 -22.5 -121.5t-23 -99t-31 -88t-44 -69.5t-63 -64t-86 -51.5t-116.5 -51.5t-151 -45z" />
<glyph horiz-adv-x="571" d="M-190 -414q50 18 76 30.5t43 33t22.5 40t13.5 62.5l70 406h-70l33 180h68q26 127 78.5 188.5t150.5 61.5q112 0 231 -76l-104 -141q-51 22 -74 22q-11 0 -23.5 -9.5t-17.5 -35.5l-2 -10h121l-29 -180h-125l-67 -387q-12 -67 -19 -97t-23 -74t-36 -64.5t-56 -47.5 t-86.5 -45.5t-123.5 -38.5z" />
<glyph horiz-adv-x="1140" d="M60.5 399q3.5 56 15.5 123l114 654h342l-126 -730q-14 -76 6 -117.5t98 -41.5t115 42t51 117l127 730h342l-127 -719q-15 -86 -35 -151t-59 -128.5t-93 -104.5t-138.5 -66t-194.5 -25q-90 0 -161 14.5t-119.5 40.5t-82 65t-50.5 83.5t-22.5 101t-2 112.5zM455 1249 l262 293h393l-348 -293h-307z" />
<glyph horiz-adv-x="733" d="M-51 131l137 162q30 -26 51 -41.5t57 -30t72 -14.5q47 0 78 24t31 68q0 33 -19.5 52.5t-58.5 19.5q-65 0 -129 -45l-127 90l119 444h536l-37 -213h-323l-17 -74q50 5 60 5q122 0 186 -73t64 -181q0 -64 -22.5 -124t-64 -108t-108.5 -77t-149 -29q-191 0 -336 145z" />
<glyph horiz-adv-x="733" d="M49 705l137 161q30 -26 51.5 -41.5t57.5 -30t72 -14.5q47 0 77.5 24t30.5 68q0 33 -19.5 52.5t-58.5 19.5q-65 0 -129 -45l-127 90l119 445h537l-37 -213h-324l-16 -74q40 4 59 4q122 0 186 -73t64 -181q0 -64 -22.5 -124t-64 -108t-108.5 -77t-149 -29q-190 0 -336 146z " />
<glyph horiz-adv-x="1093" d="M-92 -51l213 244q41 -37 74 -62t92 -51.5t114 -26.5q80 0 136.5 52.5t56.5 136.5q0 62 -34 101.5t-105 39.5q-48 0 -94 -19.5t-107 -58.5l-197 133l193 738h842l-58 -324h-516l-33 -164q55 10 101 10q99 0 175.5 -33.5t122.5 -92t69.5 -132.5t23.5 -161q0 -85 -22 -166 t-67.5 -152.5t-109 -125.5t-153.5 -85t-195 -31q-286 0 -522 230z" />
<glyph horiz-adv-x="1230" d="M20 207l213 244q156 -140 281 -140q80 0 136.5 52.5t56.5 136.5q0 62 -34.5 101.5t-105.5 39.5q-48 0 -93.5 -19.5t-106.5 -58.5l-197 133l192 738h842l-57 -324h-516l-33 -164q55 10 100 10q99 0 175.5 -33.5t123 -92t70 -133t23.5 -160.5q0 -85 -22 -166t-67.5 -152.5 t-109 -125.5t-153.5 -85t-195 -31q-287 0 -523 230z" />
<glyph horiz-adv-x="423" d="M-66 -307l39 229h230l-39 -229h-230zM31 -8l26 561h287l-174 -561h-139z" />
<glyph horiz-adv-x="1525" d="M39 575l108 125q80 -67 156 -67q46 0 77.5 21.5t31.5 60.5q0 30 -19.5 47.5t-56.5 17.5q-59 0 -115 -39l-104 70l100 365h453l-29 -168h-285l-16 -72q27 6 57 6q105 0 160 -60t55 -149q0 -110 -79 -192t-214 -82q-94 0 -165 36t-115 80zM303 0l682 1176h207l-682 -1176 h-207zM819 176q0 134 178 215q-71 59 -71 135q0 82 71 136.5t193 54.5q114 0 174.5 -46t60.5 -120q0 -102 -129 -172q105 -68 105 -170q0 -97 -82 -159t-227 -62q-132 0 -202.5 50.5t-70.5 137.5zM1016 199q0 -28 22 -43t62 -15q47 0 77.5 20.5t30.5 55.5q0 49 -69 92 q-57 -22 -90 -47.5t-33 -62.5zM1108 512q0 -39 47 -63q84 34 84 75q0 22 -14.5 34.5t-40.5 12.5q-35 0 -55.5 -17t-20.5 -42z" />
<glyph horiz-adv-x="421" d="M98 788l174 562h140l-27 -562h-287zM240 1419l39 230h229l-39 -230h-229z" />
<glyph horiz-adv-x="1511" d="M39 575l108 125q80 -67 156 -67q46 0 77.5 21.5t31.5 60.5q0 30 -19.5 47.5t-56.5 17.5q-59 0 -115 -39l-102 70l98 365h453l-29 -168h-285l-16 -72q27 6 57 6q105 0 160 -60t55 -149q0 -110 -79 -192t-214 -82q-158 0 -280 116zM303 0l680 1176h209l-684 -1176h-205z M821 262q0 119 56.5 222t164.5 168t244 65q41 0 76 -6.5t50 -12.5l15 -6l-73 -147q-27 8 -62 8q-74 0 -134.5 -32.5t-98.5 -92.5q56 29 117 29q92 0 146 -55t54 -146q0 -110 -75 -189t-203 -79q-132 0 -204.5 78t-72.5 196zM1014 252q0 -44 21.5 -71t58.5 -27 q43 0 65.5 26.5t22.5 63.5q0 30 -18.5 48.5t-57.5 18.5q-56 0 -92 -45v-14z" />
<glyph horiz-adv-x="423" d="M-94 -307l174 561h139l-26 -561h-287zM47 324l39 229h229l-39 -229h-229z" />
<glyph horiz-adv-x="1138" d="M58.5 399q3.5 56 15.5 123l114 654h342l-127 -730q-14 -76 6.5 -117.5t98.5 -41.5t115 42t51 117l127 730h342l-127 -719q-15 -86 -35 -151t-59 -128.5t-93 -104.5t-138.5 -66t-194.5 -25q-90 0 -161 14.5t-119.5 40.5t-82 65t-50.5 83.5t-22.5 101t-2 112.5z" />
<glyph horiz-adv-x="681" d="M164 1432l37 217h643l-39 -217h-195l-114 -644h-248l114 644h-198z" />
<glyph horiz-adv-x="808" d="M-57 141l30 178l406 541h328l-91 -506h109l-37 -213h-108l-25 -141h-246l25 141h-391zM219 354h152l47 269z" />
<glyph horiz-adv-x="811" d="M43 715l31 178l405 541h328l-90 -506h108l-37 -213h-108l-25 -142h-245l24 142h-391zM319 928h152l47 268z" />
<glyph horiz-adv-x="1228" d="M-86 -8l49 268l658 916h497l-151 -861h174l-58 -323h-174l-43 -250h-372l43 250h-623zM332 315h262l84 486z" />
<glyph horiz-adv-x="1230" d="M-20 250l49 268l655 916h473l-151 -861h159l-57 -323h-160l-43 -250h-368l43 250h-600zM393 573h244l78 449z" />
<glyph horiz-adv-x="1619" d="M43 590l23 139l356 447h260l-78 -418h94l-26 -168h-99l-20 -119h-193l21 119h-338zM268 758h144l41 235zM391 0l684 1176h209l-684 -1176h-209zM913 104l111 127q78 -69 156 -69q45 0 76.5 22.5t31.5 61.5q0 30 -19.5 47.5t-58.5 17.5q-55 0 -114 -39l-101 70l99 363h450 l-26 -166h-287l-17 -74q30 6 60 6q104 0 158.5 -59.5t54.5 -149.5q0 -111 -78 -192.5t-213 -81.5q-149 0 -283 116z" />
<glyph horiz-adv-x="546" d="M-37 0l238 766h196l-32 -766h-402zM156 856l53 320h321l-53 -320h-321z" />
<glyph horiz-adv-x="1140" d="M60.5 399q3.5 56 15.5 123l114 654h342l-126 -730q-14 -76 6 -117.5t98 -41.5t115 42t51 117l127 730h342l-127 -719q-15 -86 -35 -151t-59 -128.5t-93 -104.5t-138.5 -66t-194.5 -25q-90 0 -161 14.5t-119.5 40.5t-82 65t-50.5 83.5t-22.5 101t-2 112.5zM330 1249 l239 293h320l133 -293h-221l-86 137l-133 -137h-252z" />
<glyph horiz-adv-x="542" d="M4 0l53 319h322l-53 -319h-322zM137 410l33 766h401l-237 -766h-197z" />
<glyph horiz-adv-x="1150" d="M-16 188l36 213h125l183 1033h913l-59 -332h-539l-39 -223h422l-57 -326h-422l-27 -152h297l-37 -213h-299l-32 -188h-373l33 188h-125z" />
<glyph horiz-adv-x="1026" d="M-25 139l33 193h111l149 844h805l-55 -304h-461l-25 -139h361l-53 -293h-361l-18 -108h256l-35 -193h-256l-23 -139h-342l25 139h-111z" />
<glyph horiz-adv-x="739" d="M-100 -203l24 140h80l109 616h581l-37 -217h-335l-21 -107h262l-37 -213h-262l-14 -79h186l-24 -140h-187l-18 -104h-246l19 104h-80z" />
<glyph horiz-adv-x="741" d="M92 893l27 139h78l108 617h582l-37 -217h-336l-20 -107h262l-37 -213h-262l-15 -80h187l-25 -139h-186l-19 -105h-245l18 105h-80z" />
<glyph horiz-adv-x="534" d="M37 682q94 34 118 61t38 105l69 405h-69l32 181h68q26 127 78.5 188t150.5 61q114 0 232 -75l-105 -142q-53 23 -74 23q-11 0 -23 -9.5t-17 -35.5l-3 -10h121l-28 -181h-125l-68 -387q-15 -80 -23.5 -114.5t-30 -81.5t-55.5 -70.5t-90.5 -50t-144.5 -49.5z" />
<glyph horiz-adv-x="681" d="M-29 336l37 217h643l-39 -217h-194l-115 -643h-248l115 643h-199z" />
<glyph horiz-adv-x="1083" d="M-4 0l207 1176h342l-31 -168h78q455 0 455 -344q0 -67 -16 -129.5t-54.5 -123t-94.5 -105t-143.5 -72t-195.5 -27.5h-168l-37 -207h-342zM426 500h104q87 0 127.5 39t40.5 92q0 46 -33 63t-100 17h-102z" />
<glyph horiz-adv-x="940" d="M63 -342l99 176q36 -22 71 -22q78 0 78 86q0 36 -22 102h-96l153 872h-274l53 304h887l-54 -304h-270l-153 -872h-95q33 -66 33 -152q0 -119 -69.5 -178t-170.5 -59q-104 0 -170 47z" />
<glyph horiz-adv-x="940" d="M72 872l53 304h887l-54 -304h-270l-153 -872h-342l153 872h-274zM285 1542h223l86 -137l133 137h252l-240 -293h-321z" />
<glyph horiz-adv-x="950" d="M76 872l53 304h887l-53 -304h-271l-61 -350h114l-32 -192h-117l-57 -330h-342l57 330h-111l35 192h111l61 350h-274z" />
<glyph horiz-adv-x="872" d="M-96 -307l98 553q11 60 26.5 107t45 93.5t70 77t104 49.5t145.5 19q89 0 155.5 -21t102.5 -56.5t53 -74t17 -80.5q0 -44 -18.5 -82t-36.5 -54l-19 -15q-21 -4 -30 -6.5t-31 -10.5t-32.5 -19.5t-10.5 -27.5q0 -20 19 -34.5t52 -35t54 -42.5q53 -59 53 -135 q0 -90 -73.5 -155t-190.5 -65q-125 0 -264 78l102 148q92 -45 139 -45q43 0 43 28q0 21 -28 37l-15 8q-15 8 -21.5 11.5t-22 14.5t-24 19.5t-21.5 24t-19.5 30.5t-11.5 35.5t-5 43.5q0 44 17 80.5t47 62t56 40.5t60 30q3 9 3 14q0 31 -25 50.5t-76 19.5q-66 0 -101 -40.5 t-54 -138.5l-95 -536h-237z" />
<glyph horiz-adv-x="901" d="M106 788l99 553q11 61 26.5 107.5t45 93.5t70 77.5t104 49.5t145.5 19q89 0 155.5 -21t102.5 -56.5t53 -74t17 -80.5q0 -44 -18.5 -82t-37.5 -54l-18 -15q-80 -17 -98 -43q-7 -9 -7 -21q0 -20 19 -35t52 -35.5t54 -42.5q54 -60 54 -135q0 -90 -73.5 -154.5t-191.5 -64.5 q-125 0 -264 78l103 147q92 -45 139 -45q43 0 43 29q0 21 -29 37q-1 0 -15 7.5t-21 11.5t-22.5 14.5t-24 19.5t-21 24t-19 30t-11.5 35.5t-5 43.5q0 44 17 80.5t47 62t56 40.5t60 30q2 6 2 15q0 69 -100 69q-66 0 -101.5 -40t-54.5 -138l-94 -537h-238z" />
<glyph horiz-adv-x="755" d="M-123 -514l76 188q135 -51 225 -51q53 0 76 22t29 68l6 37q-91 -72 -183 -72q-79 0 -124 61.5t-45 166.5q0 108 32 208t100 169t156 69q54 0 89.5 -19t70.5 -54l10 59h238l-109 -612q-21 -117 -61 -181.5t-100.5 -89t-159.5 -24.5q-163 0 -326 55zM178 -57q0 -66 45 -66 q51 0 99 60l30 163q-28 54 -69 54q-47 0 -76 -71.5t-29 -139.5z" />
<glyph horiz-adv-x="940" d="M72 872l53 304h887l-54 -304h-270l-153 -872h-342l153 872h-274z" />
<glyph horiz-adv-x="768" d="M92 911l133 176q152 -98 250 -98q62 0 62 43q0 14 -8 24.5t-25.5 20t-36 17t-48.5 20.5t-54 25q-175 106 -175 256q0 111 83 189.5t235 78.5q177 0 366 -113l-137 -176q-47 28 -109 51t-106 23q-65 0 -65 -45q0 -19 20.5 -33.5t74 -38.5t87.5 -43q77 -46 121.5 -101 t44.5 -136q0 -112 -85 -194.5t-241 -82.5q-109 0 -209 39t-178 98z" />
<glyph horiz-adv-x="1140" d="M60.5 399q3.5 56 15.5 123l114 654h342l-126 -730q-14 -76 6 -117.5t98 -41.5t115 42t51 117l127 730h342l-127 -719q-15 -86 -35 -151t-59 -128.5t-93 -104.5t-138.5 -66t-194.5 -25q-90 0 -161 14.5t-119.5 40.5t-82 65t-50.5 83.5t-22.5 101t-2 112.5zM379 1270 l49 274h264l-47 -274h-266zM723 1270l47 274h264l-47 -274h-264z" />
<glyph horiz-adv-x="770" d="M80 582l76 188q135 -51 225 -51q53 0 75.5 22t28.5 68l7 37q-91 -72 -183 -72q-79 0 -124.5 61t-45.5 166q0 108 32.5 208.5t100.5 169.5t156 69q54 0 89.5 -19.5t70.5 -54.5l10 60h238l-109 -613q-21 -117 -61 -181.5t-100.5 -89t-159.5 -24.5q-160 0 -326 56zM381 1038 q0 -65 45 -65q51 0 98 59l31 164q-27 53 -70 53q-47 0 -75.5 -71.5t-28.5 -139.5z" />
<glyph horiz-adv-x="770" d="M-100 -184l133 176q152 -98 250 -98q61 0 61 43q0 21 -18.5 35t-71.5 35t-82 36q-174 105 -174 256q0 111 82.5 189.5t234.5 78.5q180 0 367 -112l-137 -176q-46 28 -108.5 50.5t-106.5 22.5q-66 0 -66 -45q0 -19 21 -33.5t73.5 -37.5t87.5 -43q76 -46 121 -101.5 t45 -136.5q0 -112 -84.5 -194.5t-240.5 -82.5q-204 0 -387 138z" />
<glyph horiz-adv-x="1042" d="M-35 170l187 244q86 -54 180 -94.5t162 -40.5q38 0 61 15t23 42t-30.5 47t-101.5 50t-114 54q-112 66 -173 145.5t-61 188.5q0 74 27 140t79.5 118.5t138.5 83.5t194 31q245 0 510 -156l-189 -243q-187 100 -301 100q-35 0 -60.5 -13.5t-25.5 -41.5q0 -18 12.5 -33 t38.5 -29.5t53.5 -26.5t70.5 -31t75 -36q108 -65 169.5 -141t61.5 -185q0 -72 -28 -138t-81.5 -120t-141.5 -86t-199 -32q-150 0 -289 53.5t-248 134.5zM199 -553l135 168h-105l50 276h241l-45 -311l-229 -219z" />
<glyph horiz-adv-x="1140" d="M60.5 399q3.5 56 15.5 123l114 654h342l-126 -730q-14 -76 6 -117.5t98 -41.5t115 42t51 117l127 730h342l-127 -719q-15 -86 -35 -151t-59 -128.5t-93 -104.5t-138.5 -66t-194.5 -25q-90 0 -161 14.5t-119.5 40.5t-82 65t-50.5 83.5t-22.5 101t-2 112.5zM367 1542h358 l160 -293h-275z" />
<glyph horiz-adv-x="1140" d="M60.5 399q3.5 56 15.5 123l114 654h342l-126 -730q-14 -76 6 -117.5t98 -41.5t115 42t51 117l127 730h342l-127 -719q-15 -86 -35 -151t-59 -128.5t-93 -104.5t-138.5 -66t-194.5 -25q-90 0 -161 14.5t-119.5 40.5t-82 65t-50.5 83.5t-22.5 101t-2 112.5zM373 1249 l190 293h293l-274 -293h-209zM719 1249l190 293h293l-274 -293h-209z" />
<glyph horiz-adv-x="1042" d="M-35 170l187 244q86 -54 180 -94.5t162 -40.5q38 0 61 15t23 42t-30.5 47t-101.5 50t-114 54q-112 66 -173 145.5t-61 188.5q0 74 27 140t79.5 118.5t138.5 83.5t194 31q245 0 510 -156l-189 -243q-187 100 -301 100q-35 0 -60.5 -13.5t-25.5 -41.5q0 -18 12.5 -33 t38.5 -29.5t53.5 -26.5t70.5 -31t75 -36q108 -65 169.5 -141t61.5 -185q0 -72 -28 -138t-81.5 -120t-141.5 -86t-199 -32q-150 0 -289 53.5t-248 134.5zM287 1249l239 293h320l133 -293h-221l-86 137l-133 -137h-252z" />
<glyph horiz-adv-x="1040" d="M-35 170l187 244q86 -54 180 -94.5t162 -40.5q38 0 61 15t23 42t-30.5 47t-101.5 50t-114 54q-112 66 -173 145.5t-61 188.5q0 74 27 140t79.5 118.5t138.5 83.5t194 31q245 0 510 -156l-189 -243q-187 100 -301 100q-35 0 -60.5 -13.5t-25.5 -41.5q0 -18 12.5 -33 t38.5 -29.5t53.5 -26.5t70.5 -31t75 -36q108 -65 169.5 -141t61.5 -185q0 -68 -25 -131.5t-73 -116t-127 -86.5t-178 -40q26 -70 26 -136q0 -119 -69 -178t-170 -59q-104 0 -170 47l98 176q36 -22 72 -22q78 0 78 86q0 29 -19 92q-123 16 -233.5 65t-196.5 115z" />
<glyph horiz-adv-x="724" d="M-78 -307l158 895h237l-55 -314q102 78 197 78q187 0 147 -227l-76 -432h-239l69 389q8 32 4 55t-28 23q-23 0 -52.5 -16t-52.5 -42l-71 -409h-238z" />
<glyph horiz-adv-x="1042" d="M-35 170l187 244q86 -54 180 -94.5t162 -40.5q38 0 61 15t23 42t-30.5 47t-101.5 50t-114 54q-112 66 -173 145.5t-61 188.5q0 74 27 140t79.5 118.5t138.5 83.5t194 31q245 0 510 -156l-189 -243q-187 100 -301 100q-35 0 -60.5 -13.5t-25.5 -41.5q0 -18 12.5 -33 t38.5 -29.5t53.5 -26.5t70.5 -31t75 -36q108 -65 169.5 -141t61.5 -185q0 -72 -28 -138t-81.5 -120t-141.5 -86t-199 -32q-150 0 -289 53.5t-248 134.5zM336 1542h223l86 -137l133 137h252l-239 -293h-322z" />
<glyph horiz-adv-x="854" d="M-30.5 -51.5q0.5 54.5 12.5 123.5l88 481h245l-96 -535q-10 -57 5 -87.5t73 -30.5q57 0 84 30.5t37 87.5l96 535h246l-96 -530q-14 -79 -35.5 -135.5t-62.5 -107t-110 -76.5t-167 -26q-91 0 -155 21t-99 55.5t-50.5 87t-15 107z" />
<glyph horiz-adv-x="1042" d="M-35 170l187 244q86 -54 180 -94.5t162 -40.5q38 0 61 15t23 42t-30.5 47t-101.5 50t-114 54q-112 66 -173 145.5t-61 188.5q0 74 27 140t79.5 118.5t138.5 83.5t194 31q245 0 510 -156l-189 -243q-187 100 -301 100q-35 0 -60.5 -13.5t-25.5 -41.5q0 -18 12.5 -33 t38.5 -29.5t53.5 -26.5t70.5 -31t75 -36q108 -65 169.5 -141t61.5 -185q0 -72 -28 -138t-81.5 -120t-141.5 -86t-199 -32q-150 0 -289 53.5t-248 134.5zM410 1249l262 293h393l-348 -293h-307z" />
<glyph horiz-adv-x="1042" d="M-35 170l187 244q86 -54 180 -94.5t162 -40.5q38 0 61 15t23 42t-30.5 47t-101.5 50t-114 54q-112 66 -173 145.5t-61 188.5q0 74 27 140t79.5 118.5t138.5 83.5t194 31q245 0 510 -156l-189 -243q-187 100 -301 100q-35 0 -60.5 -13.5t-25.5 -41.5q0 -18 12.5 -33 t38.5 -29.5t53.5 -26.5t70.5 -31t75 -36q108 -65 169.5 -141t61.5 -185q0 -72 -28 -138t-81.5 -120t-141.5 -86t-199 -32q-150 0 -289 53.5t-248 134.5z" />
<glyph horiz-adv-x="847" d="M127 788l152 861h331q324 0 324 -240q0 -33 -6.5 -66t-22.5 -70.5t-41 -68.5t-65.5 -57.5t-91.5 -40.5l118 -318h-256l-98 304h-45l-53 -304h-246zM461 1290h100q63 0 93 29t30 70q0 36 -23 48.5t-73 12.5h-99z" />
<glyph horiz-adv-x="847" d="M-66 -307l152 860h332q323 0 323 -240q0 -33 -6.5 -66t-22.5 -70.5t-41 -68.5t-65.5 -57.5t-91.5 -40.5l119 -317h-256l-98 303h-46l-53 -303h-246zM268 195h101q63 0 93 28.5t30 69.5q0 36 -23.5 48.5t-73.5 12.5h-98z" />
<glyph horiz-adv-x="1134" d="M-4 0l207 1176h461q448 0 448 -322q0 -41 -7.5 -84.5t-29 -96t-55 -97t-91.5 -83.5t-132 -59l166 -434h-359l-133 414h-59l-74 -414h-342zM238 -553l135 168h-105l49 276h242l-45 -311l-229 -219zM461 690h133q88 0 128 38.5t40 92.5q0 46 -34.5 62t-100.5 16h-131z" />
<glyph horiz-adv-x="1132" d="M-4 0l207 1176h461q448 0 448 -322q0 -41 -7.5 -84.5t-29 -96t-55 -97t-91.5 -83.5t-132 -59l166 -434h-359l-133 414h-59l-74 -414h-342zM403 1542h224l86 -137l133 137h252l-240 -293h-321zM461 690h133q88 0 128 38.5t40 92.5q0 46 -34.5 62t-100.5 16h-131z" />
<glyph horiz-adv-x="1134" d="M-4 0l207 1176h461q448 0 448 -322q0 -41 -7.5 -84.5t-29 -96t-55 -97t-91.5 -83.5t-132 -59l166 -434h-359l-133 414h-59l-74 -414h-342zM461 690h133q88 0 128 38.5t40 92.5q0 46 -34.5 62t-100.5 16h-131zM475 1249l262 293h393l-348 -293h-307z" />
<glyph horiz-adv-x="411" d="M-74 -307l115 645h238l-115 -645h-238zM47 397l35 189h244l-33 -189h-246z" />
<glyph horiz-adv-x="1134" d="M-4 0l207 1176h461q448 0 448 -322q0 -41 -7.5 -84.5t-29 -96t-55 -97t-91.5 -83.5t-132 -59l166 -434h-359l-133 414h-59l-74 -414h-342zM461 690h133q88 0 128 38.5t40 92.5q0 46 -34.5 62t-100.5 16h-131z" />
<glyph horiz-adv-x="894" d="M152 1128q0 70 13.5 140t46.5 142.5t81.5 127.5t126 90t172.5 35q170 0 267 -88.5t97 -261.5q0 -89 -20.5 -175.5t-72.5 -172.5t-130 -134l103 -110l-181 -152l-149 205q-164 3 -259 93.5t-95 260.5zM403 1130q0 -135 119 -135q48 0 86 37t57.5 90.5t29.5 102t10 82.5 q0 135 -121 135q-48 0 -85.5 -37t-57 -90.5t-29 -102t-9.5 -82.5z" />
<glyph horiz-adv-x="1140" d="M60.5 399q3.5 56 15.5 123l114 654h342l-126 -730q-14 -76 6 -117.5t98 -41.5t115 42t51 117l127 730h342l-127 -719q-15 -86 -35 -151t-59 -128.5t-93 -104.5t-138.5 -66t-194.5 -25q-90 0 -161 14.5t-119.5 40.5t-82 65t-50.5 83.5t-22.5 101t-2 112.5zM416 1300 l37 216h542l-37 -216h-542z" />
<glyph horiz-adv-x="1140" d="M58.5 360.5q1.5 71.5 17.5 161.5l114 654h342l-126 -730q-14 -76 6 -117.5t98 -41.5t115 42t51 117l127 730h342l-127 -719q-13 -71 -29 -127t-44 -113t-65.5 -98t-93.5 -73.5t-127 -47.5q-39 -28 -61 -45t-54 -46t-47.5 -56.5t-15.5 -53.5q0 -15 6.5 -25.5t15 -15.5 t23.5 -8t23.5 -3t23.5 0.5t17 0.5l-60 -158q-1 0 -20.5 -0.5t-32.5 0t-37.5 2t-42 6t-40.5 12t-39 20.5t-30.5 30t-22 42t-7.5 56q0 129 172 228q-107 7 -182 39.5t-115.5 80t-58 116.5t-16 140.5z" />
<glyph horiz-adv-x="894" d="M-41 33q0 70 13.5 140t46.5 142t81.5 127t126 90t172.5 35q170 0 267.5 -88.5t97.5 -261.5q0 -88 -20.5 -175t-72.5 -172.5t-130 -133.5l102 -111l-180 -151l-150 204q-164 3 -259 93.5t-95 261.5zM211 35q0 -135 119 -135q48 0 85.5 37t57.5 90.5t29.5 101.5t9.5 82 q0 135 -121 135q-48 0 -85.5 -37t-56.5 -90.5t-28.5 -101.5t-9.5 -82z" />
<glyph horiz-adv-x="669" d="M-66 -57q0 182 96 295.5t269 113.5q111 0 177.5 -52.5t66.5 -147.5q0 -47 -13.5 -82.5t-39 -58t-55 -37t-69 -21.5t-72 -9.5t-73.5 -2.5h-55q6 -80 65 -80q68 0 197 63l66 -168q-31 -14 -70.5 -29t-113 -32t-134.5 -17q-242 0 -242 265zM176 66h49q101 0 101 73 q0 39 -45 39q-39 0 -65.5 -30.5t-39.5 -81.5z" />
<glyph horiz-adv-x="1214" d="M47 469q0 79 13.5 159t41.5 163t76.5 154.5t113 127.5t157 88.5t202.5 32.5q236 0 371 -123t135 -360q0 -89 -16.5 -178.5t-50.5 -178.5t-95 -166.5t-141 -126.5l141 -151l-252 -211l-208 283q-229 6 -358.5 129.5t-129.5 357.5zM397 469q0 -85 37.5 -133.5t130.5 -48.5 q55 0 99.5 34.5t71 85t44.5 111t24.5 108t6.5 81.5q0 182 -170 182q-54 0 -98 -34.5t-70.5 -85t-44 -111t-24.5 -108t-7 -81.5z" />
<glyph horiz-adv-x="804" d="M127 788l152 861h307q91 0 156 -19.5t101 -55.5t52 -79t16 -96q0 -68 -22 -127t-65 -106t-114.5 -74t-162.5 -27h-123l-51 -277h-246zM459 1274h76q60 0 91 27.5t31 70.5q0 38 -22.5 51t-73.5 13h-74z" />
<glyph horiz-adv-x="804" d="M-66 -307l152 860h307q91 0 156 -19.5t101 -55t52.5 -79t16.5 -96.5q0 -142 -93 -238t-272 -96h-123l-51 -276h-246zM266 178h76q60 0 91.5 28t31.5 70q0 38 -22.5 51t-73.5 13h-74z" />
<glyph horiz-adv-x="413" d="M-217 -414q65 25 93 42.5t38 36.5t18 61l107 612h237l-104 -590q-12 -72 -20.5 -105.5t-29.5 -79t-54.5 -68.5t-91 -48t-144.5 -45zM45 397l35 189h244l-33 -189h-246z" />
<glyph horiz-adv-x="1230" d="M33 352q0 277 336 441q-131 113 -131 272q0 171 130.5 281t364.5 110q211 0 322.5 -91.5t111.5 -240.5q0 -211 -243 -356q196 -132 196 -342q0 -200 -155 -324.5t-433 -124.5q-247 0 -373 100.5t-126 274.5zM416 397q0 -58 35.5 -92.5t103.5 -34.5q83 0 134.5 49 t51.5 123q0 104 -118 185q-96 -46 -151.5 -100.5t-55.5 -129.5zM588 1040q0 -75 76 -127q68 32 105.5 72t37.5 96q0 40 -23 66.5t-71 26.5q-57 0 -91 -41.5t-34 -92.5z" />
<glyph horiz-adv-x="1087" d="M-4 0l207 1176h418q456 0 456 -347q0 -67 -16.5 -129.5t-55 -122t-95.5 -104t-144.5 -71.5t-196.5 -27h-166l-65 -375h-342zM455 668h102q88 0 128 38.5t40 92.5q0 45 -32.5 62.5t-96.5 17.5h-104z" />
<glyph horiz-adv-x="1214" d="M47 469q0 79 13.5 159t41 163t76 154.5t112.5 127.5t156.5 88.5t202.5 32.5q238 0 373 -122.5t135 -360.5q0 -80 -13.5 -160.5t-41 -164t-76 -155t-112.5 -128t-156.5 -89t-202.5 -32.5q-238 0 -373 124t-135 363zM387 1352q26 41 36.5 57t33.5 49t39 47t40 32t49 25 t54 7q39 0 84.5 -24t83.5 -48t61 -24q44 0 107 96l135 -99q-70 -109 -101 -143q-69 -74 -153 -74q-39 0 -83.5 24t-82 48.5t-59.5 24.5q-45 0 -111 -99zM397 469q0 -85 37.5 -133.5t130.5 -48.5q54 0 98 34.5t70.5 85t44 111t24.5 108t7 81.5q0 85 -37.5 133.5t-130.5 48.5 q-54 0 -98 -34.5t-70.5 -85t-44 -111t-24.5 -108t-7 -81.5z" />
<glyph horiz-adv-x="892" d="M152 1128q0 70 13.5 140t46.5 142.5t81.5 127.5t126 90t172.5 35q169 0 265.5 -88.5t96.5 -261.5q0 -70 -13 -141t-46 -144t-81 -128.5t-125.5 -90.5t-172.5 -35q-170 0 -267 90t-97 264zM403 1130q0 -64 26.5 -99.5t92.5 -35.5q47 0 85 37t58 90.5t30 102t10 82.5 q0 135 -121 135q-48 0 -85.5 -37t-57 -90.5t-29 -102t-9.5 -82.5z" />
<glyph horiz-adv-x="710" d="M-78 -307l158 895h237l-73 -412l123 162h284l-245 -264l159 -381h-243l-78 209l-60 -66l-24 -143h-238z" />
<glyph horiz-adv-x="761" d="M115 788l157 895h238l-74 -411l123 162h285l-246 -265l160 -381h-244l-78 209l-59 -65l-25 -144h-237z" />
<glyph horiz-adv-x="1216" d="M-18 0l147 168q-82 118 -82 301q0 79 13.5 159t41 163t76 154.5t112.5 127.5t156.5 88.5t202.5 32.5q184 0 312 -78l51 60h223l-154 -177q76 -115 76 -288q0 -80 -13.5 -160.5t-41 -164t-76 -155t-112.5 -128t-156.5 -89t-202.5 -32.5q-182 0 -303 71l-47 -53h-223z M397 473l342 393q-41 23 -98 23q-53 0 -97 -33.5t-70 -82.5t-44 -109t-25 -107.5t-8 -83.5zM471 305q37 -18 94 -18q51 0 93.5 31t68.5 77t45 103.5t27 105t10 86.5zM500 1249l262 293h393l-348 -293h-307z" />
<glyph horiz-adv-x="1187" d="M12 352q0 277 336 441q-131 113 -131 272q0 171 131 281t365 110q211 0 322.5 -91.5t111.5 -240.5q0 -116 -65 -202t-179 -154q90 -61 143.5 -142t53.5 -200q0 -200 -155 -324.5t-433 -124.5q-247 0 -373.5 100.5t-126.5 274.5zM395 397q0 -58 36 -92.5t104 -34.5 q83 0 134.5 49t51.5 123q0 104 -119 185q-96 -46 -151.5 -100.5t-55.5 -129.5zM567 1040q0 -75 76 -127q68 32 105.5 72t37.5 96q0 40 -23 66.5t-71 26.5q-57 0 -91 -41.5t-34 -92.5z" />
<glyph horiz-adv-x="1214" d="M47 469q0 79 13.5 159t41 163t76 154.5t112.5 127.5t156.5 88.5t202.5 32.5q238 0 373 -122.5t135 -360.5q0 -80 -13.5 -160.5t-41 -164t-76 -155t-112.5 -128t-156.5 -89t-202.5 -32.5q-238 0 -373 124t-135 363zM397 469q0 -85 37.5 -133.5t130.5 -48.5q54 0 98 34.5 t70.5 85t44 111t24.5 108t7 81.5q0 85 -37.5 133.5t-130.5 48.5q-54 0 -98 -34.5t-70.5 -85t-44 -111t-24.5 -108t-7 -81.5zM457 1300l37 216h542l-37 -216h-542z" />
<glyph horiz-adv-x="892" d="M-41 33q0 70 13.5 140t46.5 142t81.5 127t126 90t172.5 35q169 0 266 -88.5t97 -261.5q0 -70 -13 -141t-46 -144t-81 -128.5t-125.5 -90.5t-172.5 -35q-170 0 -267.5 90.5t-97.5 264.5zM211 35q0 -64 26.5 -99.5t92.5 -35.5q47 0 84.5 37t57.5 90t30 101.5t10 82.5 q0 135 -121 135q-48 0 -85.5 -37t-56.5 -90.5t-28.5 -101.5t-9.5 -82z" />
<glyph horiz-adv-x="1214" d="M47 469q0 79 13.5 159t41 163t76 154.5t112.5 127.5t156.5 88.5t202.5 32.5q238 0 373 -122.5t135 -360.5q0 -80 -13.5 -160.5t-41 -164t-76 -155t-112.5 -128t-156.5 -89t-202.5 -32.5q-238 0 -373 124t-135 363zM397 469q0 -85 37.5 -133.5t130.5 -48.5q54 0 98 34.5 t70.5 85t44 111t24.5 108t7 81.5q0 85 -37.5 133.5t-130.5 48.5q-54 0 -98 -34.5t-70.5 -85t-44 -111t-24.5 -108t-7 -81.5zM418 1249l190 293h293l-274 -293h-209zM764 1249l190 293h293l-274 -293h-209z" />
<glyph horiz-adv-x="1214" d="M47 469q0 79 13.5 159t41 163t76 154.5t112.5 127.5t156.5 88.5t202.5 32.5q238 0 373 -122.5t135 -360.5q0 -80 -13.5 -160.5t-41 -164t-76 -155t-112.5 -128t-156.5 -89t-202.5 -32.5q-238 0 -373 124t-135 363zM397 469q0 -85 37.5 -133.5t130.5 -48.5q54 0 98 34.5 t70.5 85t44 111t24.5 108t7 81.5q0 85 -37.5 133.5t-130.5 48.5q-54 0 -98 -34.5t-70.5 -85t-44 -111t-24.5 -108t-7 -81.5zM410 1542h358l160 -293h-275z" />
<glyph horiz-adv-x="776" d="M78 788q0 163 203 263q-78 69 -78 161q0 103 82 169.5t229 66.5q136 0 207.5 -56.5t71.5 -146.5q0 -126 -146 -209q121 -80 121 -205q0 -121 -96.5 -196.5t-274.5 -75.5q-158 0 -238.5 62t-80.5 167zM328 819q0 -67 84 -67q50 0 79 24.5t29 65.5q0 55 -71 104 q-59 -27 -90 -56t-31 -71zM432 1196q0 -42 43 -70q84 36 84 86q0 22 -14.5 36t-40.5 14q-32 0 -52 -20t-20 -46z" />
<glyph horiz-adv-x="403" d="M-78 -307l158 895h237l-157 -895h-238z" />
<glyph horiz-adv-x="776" d="M-23 215q0 93 55.5 155t147.5 107q-78 69 -78 162q0 102 82.5 168.5t229.5 66.5q136 0 207 -56t71 -146q0 -126 -145 -209q121 -80 121 -205q0 -121 -96.5 -196.5t-274.5 -75.5q-158 0 -239 62t-81 167zM227 246q0 -68 84 -68q50 0 79.5 24.5t29.5 65.5q0 55 -72 105 q-59 -27 -90 -56t-31 -71zM332 623q0 -42 43 -70q84 36 84 86q0 22 -15 35.5t-41 13.5q-32 0 -51.5 -19.5t-19.5 -45.5z" />
<glyph horiz-adv-x="952" d="M-27 0l43 238q5 1 14 3t34 12t47.5 23t48 37t41.5 54h-146l25 145h145q-4 34 -8 51h-129l27 148h61q-16 62 -16 133q0 163 92 256.5t260 93.5q229 0 451 -186l-170 -207q-125 96 -211 96q-44 0 -65 -23t-21 -61t22 -102h279l-27 -148h-219q2 -10 2 -28v-23h209l-25 -145 h-225q-26 -47 -63 -70h364l-51 -297h-789z" />
<glyph horiz-adv-x="686" d="M-98 -307l30 172q4 1 10.5 2.5t25 9t35 18t35.5 29.5t30 43h-107l16 99h105q0 19 -6 40h-90l16 101h47q-12 62 -12 102q0 121 66 189.5t186 68.5q70 0 139.5 -25.5t105.5 -49.5t80 -60l-120 -149q-89 69 -154 69q-31 0 -46 -17t-15 -44q0 -22 20 -84h195l-17 -101h-151 q2 -8 2 -24v-16h141l-16 -99h-160q-12 -22 -51 -61h264l-37 -213h-567z" />
<glyph horiz-adv-x="686" d="M94 788l31 173q4 1 10.5 2.5t25 9t34.5 18t35 29.5t30 43h-106l16 98h104q0 20 -6 41h-90l17 101h47q-13 67 -13 102q0 121 66 189.5t186 68.5q70 0 139.5 -25.5t106 -50t80.5 -59.5l-121 -150q-90 70 -154 70q-30 0 -45.5 -17.5t-15.5 -44.5q0 -18 21 -83h194l-16 -101 h-152q2 -8 2 -24v-17h142l-17 -98h-160q-14 -25 -51 -62h264l-36 -213h-568z" />
<glyph horiz-adv-x="1214" d="M47 469q0 79 13.5 159t41 163t76 154.5t112.5 127.5t156.5 88.5t202.5 32.5q238 0 373 -122.5t135 -360.5q0 -80 -13.5 -160.5t-41 -164t-76 -155t-112.5 -128t-156.5 -89t-202.5 -32.5q-238 0 -373 124t-135 363zM397 469q0 -85 37.5 -133.5t130.5 -48.5q54 0 98 34.5 t70.5 85t44 111t24.5 108t7 81.5q0 85 -37.5 133.5t-130.5 48.5q-54 0 -98 -34.5t-70.5 -85t-44 -111t-24.5 -108t-7 -81.5zM422 1272l49 274h264l-47 -274h-266zM766 1272l47 274h264l-47 -274h-264z" />
<glyph horiz-adv-x="1214" d="M47 469q0 79 13.5 159t41 163t76 154.5t112.5 127.5t156.5 88.5t202.5 32.5q238 0 373 -122.5t135 -360.5q0 -80 -13.5 -160.5t-41 -164t-76 -155t-112.5 -128t-156.5 -89t-202.5 -32.5q-238 0 -373 124t-135 363zM375 1249l239 293h320l133 -293h-221l-86 137l-133 -137 h-252zM397 469q0 -85 37.5 -133.5t130.5 -48.5q54 0 98 34.5t70.5 85t44 111t24.5 108t7 81.5q0 85 -37.5 133.5t-130.5 48.5q-54 0 -98 -34.5t-70.5 -85t-44 -111t-24.5 -108t-7 -81.5z" />
<glyph horiz-adv-x="1140" d="M60.5 399q3.5 56 15.5 123l114 654h342l-126 -730q-14 -76 6 -117.5t98 -41.5t115 42t51 117l127 730h342l-127 -719q-15 -86 -35 -151t-59 -128.5t-93 -104.5t-138.5 -66t-194.5 -25q-90 0 -161 14.5t-119.5 40.5t-82 65t-50.5 83.5t-22.5 101t-2 112.5zM481 1454 q0 94 66 160.5t160 66.5t159.5 -66.5t65.5 -160.5t-65.5 -159.5t-159.5 -65.5t-160 65.5t-66 159.5zM643 1454q0 -26 19 -44.5t45 -18.5t44.5 18.5t18.5 44.5q0 27 -18.5 46.5t-44.5 19.5t-45 -20t-19 -46z" />
<glyph horiz-adv-x="1214" d="M47 469q0 79 13.5 159t41 163t76 154.5t112.5 127.5t156.5 88.5t202.5 32.5q238 0 373 -122.5t135 -360.5q0 -80 -13.5 -160.5t-41 -164t-76 -155t-112.5 -128t-156.5 -89t-202.5 -32.5q-238 0 -373 124t-135 363zM397 469q0 -85 37.5 -133.5t130.5 -48.5q54 0 98 34.5 t70.5 85t44 111t24.5 108t7 81.5q0 85 -37.5 133.5t-130.5 48.5q-54 0 -98 -34.5t-70.5 -85t-44 -111t-24.5 -108t-7 -81.5zM457 1522h207q-5 -34 16.5 -55t62.5 -21q57 0 93 21t41 55h208q-24 -128 -115.5 -200.5t-236.5 -72.5q-153 0 -225 76t-51 197z" />
<glyph horiz-adv-x="864" d="M169.5 1044q0.5 54 12.5 123l88 482h246l-96 -535q-10 -57 5 -88t73 -31q57 0 83.5 30.5t36.5 88.5l97 535h246l-97 -531q-11 -62 -26 -109t-43 -93.5t-67 -76t-99.5 -47.5t-139.5 -18q-91 0 -155 21t-99 55.5t-50.5 87t-15 106.5z" />
<glyph horiz-adv-x="1214" d="M47 469q0 79 13.5 159t41 163t76 154.5t112.5 127.5t156.5 88.5t202.5 32.5q238 0 373 -122.5t135 -360.5q0 -80 -13.5 -160.5t-41 -164t-76 -155t-112.5 -128t-156.5 -89t-202.5 -32.5q-238 0 -373 124t-135 363zM397 469q0 -85 37.5 -133.5t130.5 -48.5q54 0 98 34.5 t70.5 85t44 111t24.5 108t7 81.5q0 85 -37.5 133.5t-130.5 48.5q-54 0 -98 -34.5t-70.5 -85t-44 -111t-24.5 -108t-7 -81.5zM498 1249l262 293h393l-348 -293h-307z" />
<glyph horiz-adv-x="1693" d="M47 469q0 79 13.5 159t41 163t76 154.5t112.5 127.5t156.5 88.5t202.5 32.5q146 0 260 -51l6 33h805l-55 -304h-461l-24 -137h372l-53 -295h-371l-24 -137h465l-53 -303h-805q-71 -18 -156 -18q-238 0 -373 124t-135 363zM397 469q0 -85 37.5 -133.5t130.5 -48.5 q54 0 98 34.5t70.5 85t44 111t24.5 108t7 81.5q0 85 -37.5 133.5t-130.5 48.5q-54 0 -98 -34.5t-70.5 -85t-44 -111t-24.5 -108t-7 -81.5z" />
<glyph horiz-adv-x="1054" d="M-86 -307l115 645h237l-12 -68q86 82 178 82q119 0 141 -106q36 41 91 73.5t110 32.5q89 0 124.5 -59t16.5 -162l-75 -438h-238l72 401q7 29 2.5 47.5t-25.5 18.5q-38 0 -86 -56l-71 -411h-236l72 401q14 66 -25 66q-34 0 -80 -54l-73 -413h-238z" />
<glyph horiz-adv-x="1140" d="M60.5 399q3.5 56 15.5 123l114 654h342l-126 -730q-14 -76 6 -117.5t98 -41.5t115 42t51 117l127 730h342l-127 -719q-15 -86 -35 -151t-59 -128.5t-93 -104.5t-138.5 -66t-194.5 -25q-90 0 -161 14.5t-119.5 40.5t-82 65t-50.5 83.5t-22.5 101t-2 112.5zM346 1352 q26 41 36.5 57t33.5 49t39 47t40 32t49 25t54 7q39 0 84.5 -24t83.5 -48t61 -24q44 0 107 96l135 -99q-70 -109 -101 -143q-69 -74 -153 -74q-39 0 -83.5 24t-82 48.5t-59.5 24.5q-45 0 -111 -99z" />
<glyph horiz-adv-x="1128" d="M104 1176h379l37 -730l291 730h403l-571 -1176h-379z" />
<glyph horiz-adv-x="1214" d="M47 469q0 79 13.5 159t41 163t76 154.5t112.5 127.5t156.5 88.5t202.5 32.5q238 0 373 -122.5t135 -360.5q0 -80 -13.5 -160.5t-41 -164t-76 -155t-112.5 -128t-156.5 -89t-202.5 -32.5q-238 0 -373 124t-135 363zM397 469q0 -85 37.5 -133.5t130.5 -48.5q54 0 98 34.5 t70.5 85t44 111t24.5 108t7 81.5q0 85 -37.5 133.5t-130.5 48.5q-54 0 -98 -34.5t-70.5 -85t-44 -111t-24.5 -108t-7 -81.5z" />
<glyph horiz-adv-x="1179" d="M-4 0l207 1176h342l180 -615l106 615h343l-207 -1176h-342l-181 614l-106 -614h-342zM377 1352q26 41 36.5 57t33.5 49t39 47t40 32t49 25t54 7q39 0 84.5 -24t83.5 -48t61 -24q44 0 107 96l135 -99q-70 -109 -101 -143q-69 -74 -153 -74q-39 0 -83.5 24t-82 48.5 t-59.5 24.5q-45 0 -111 -99z" />
<glyph horiz-adv-x="894" d="M127 788l152 861h247l129 -447l80 447h246l-152 -861h-247l-131 447l-78 -447h-246z" />
<glyph horiz-adv-x="894" d="M-66 -307l152 860h248l129 -447l80 447h245l-151 -860h-248l-131 446l-78 -446h-246z" />
<glyph horiz-adv-x="1179" d="M-4 0l207 1176h342l180 -615l106 615h343l-207 -1176h-342l-181 614l-106 -614h-342zM262 -553l135 168h-104l49 276h242l-45 -311l-230 -219z" />
<glyph horiz-adv-x="1179" d="M-4 0l207 1176h342l180 -615l106 615h343l-207 -1176h-342l-181 614l-106 -614h-342zM414 1542h223l86 -137l133 137h252l-240 -293h-321z" />
<glyph horiz-adv-x="1179" d="M-4 0l207 1176h342l180 -615l106 615h343l-207 -1176h-342l-181 614l-106 -614h-342zM571 1249l263 293h393l-348 -293h-308z" />
<glyph horiz-adv-x="1179" d="M-4 0l207 1176h342l180 -615l106 615h343l-207 -1176h-342l-181 614l-106 -614h-342z" />
<glyph horiz-adv-x="755" d="M-18 16l94 187q30 -8 69 -8q81 0 147 35t107 102q-52 -31 -123 -31q-105 0 -168 67.5t-63 178.5q0 136 89 231.5t241 95.5q155 0 241 -95.5t86 -237.5q0 -108 -39.5 -208.5t-109 -177.5t-174.5 -123t-227 -46q-50 0 -92.5 7.5t-59.5 14.5zM291 561q0 -74 78 -74 q27 0 50.5 14.5t37.5 33.5v20q0 52 -21.5 81.5t-60.5 29.5q-42 0 -63 -31t-21 -74z" />
<glyph horiz-adv-x="800" d="M-12 553h272l27 -539l213 539h291l-418 -860h-271z" />
<glyph horiz-adv-x="1142" d="M-37 -236l148 283q47 -14 110 -14q135 0 245.5 71.5t178.5 202.5q-87 -65 -213 -65q-164 0 -264 112t-100 291q0 108 35.5 206.5t100.5 175t166 122t222 45.5q122 0 220 -43.5t160 -118t95 -172t33 -207.5q0 -146 -39.5 -284.5t-116.5 -256.5t-181.5 -207t-242.5 -139.5 t-293 -50.5q-78 0 -144 12.5t-93 24.5zM442 670q0 -61 32 -101.5t95 -40.5q47 0 89 28t65 65q2 18 2 55q0 90 -35.5 145.5t-99.5 55.5q-71 0 -109.5 -62.5t-38.5 -144.5z" />
<glyph horiz-adv-x="1230" d="M51 27l148 282q47 -14 110 -14q135 0 245.5 71.5t178.5 202.5q-87 -65 -213 -65q-164 0 -264 112t-100 291q0 108 35.5 206.5t100.5 175t166 122t222 45.5q122 0 220 -43.5t160 -118t95 -172t33 -207.5q0 -146 -39.5 -284.5t-116.5 -256.5t-181.5 -207t-242.5 -139.5 t-293 -50.5q-78 0 -144 12.5t-93 24.5zM530 932q0 -61 32 -101t95 -40q47 0 89 27.5t65 64.5q2 18 2 55q0 90 -35.5 145.5t-99.5 55.5q-71 0 -109.5 -62.5t-38.5 -144.5z" />
<glyph horiz-adv-x="800" d="M180 1649h273l26 -539l213 539h291l-418 -861h-270z" />
<glyph horiz-adv-x="1525" d="M117 1176h379l-11 -609l230 609h262l20 -609l201 609h399l-491 -1176h-322l-24 645l-246 -645h-319z" />
<glyph horiz-adv-x="735" d="M-84 -307l115 645h237l-12 -62q104 76 197 76q90 0 128.5 -57t18.5 -170l-76 -432h-237l69 391q7 31 2.5 53.5t-28.5 22.5q-51 0 -105 -58l-71 -409h-238z" />
<glyph horiz-adv-x="1525" d="M117 1176h379l-11 -609l230 609h262l20 -609l201 609h399l-491 -1176h-322l-24 645l-246 -645h-319zM647 1249l262 293h394l-349 -293h-307z" />
<glyph horiz-adv-x="1079" d="M-18 170l186 244q86 -54 180 -94.5t162 -40.5q38 0 61 15t23 42t-30.5 47t-101.5 50t-114 54q-112 66 -172.5 145t-60.5 189q0 152 107.5 259.5t309.5 113.5l27 152h232l-33 -179q141 -37 305 -129l-189 -243q-187 100 -301 100q-35 0 -60.5 -13.5t-25.5 -41.5 q0 -18 12.5 -33t38.5 -29.5t53.5 -26.5t70.5 -31t75 -36q108 -65 170 -141.5t62 -184.5q0 -70 -26 -134t-75.5 -117t-131.5 -86.5t-185 -38.5l-27 -150h-231l31 174q-187 45 -342 164z" />
<glyph horiz-adv-x="1009" d="M127 788l152 861h247l82 -404l240 404h248l-152 -861h-246l74 418l-158 -274h-108l-57 291l-76 -435h-246z" />
<glyph horiz-adv-x="1009" d="M-66 -307l152 860h248l82 -403l239 403h248l-151 -860h-246l74 418l-158 -275h-109l-57 291l-76 -434h-246z" />
<glyph horiz-adv-x="1099" d="M-8 229l45 254h166l63 207h-133l45 258h168l72 228h248l-72 -228h123l71 228h250l-71 -228h133l-45 -258h-168l-64 -207h133l-45 -254h-168l-69 -229h-250l70 229h-123l-70 -229h-248l70 229h-131zM451 483h122l64 207h-123z" />
<glyph horiz-adv-x="794" d="M-90 -137l31 182h120l48 156h-97l33 184h121l51 168h178l-51 -168h90l51 168h179l-52 -168h97l-33 -184h-119l-47 -156h96l-31 -182h-120l-52 -170h-180l51 170h-90l-51 -170h-178l51 170h-96zM240 45h90l47 156h-90z" />
<glyph horiz-adv-x="796" d="M104 958l31 183h121l47 155h-96l33 185h120l52 168h178l-51 -168h90l51 168h178l-51 -168h96l-33 -185h-118l-47 -155h96l-31 -183h-121l-51 -170h-180l51 170h-90l-51 -170h-178l51 170h-97zM434 1141h90l47 155h-90z" />
<glyph horiz-adv-x="1339" d="M-4 0l207 1176h344l117 -547l323 547h346l-207 -1176h-342l101 578l-219 -381h-144l-80 399l-104 -596h-342z" />
<glyph horiz-adv-x="684" d="M127 788l152 861h245l-112 -645h323l-37 -216h-571z" />
<glyph horiz-adv-x="937" d="M-31 279l54 309l106 59l94 529h342l-57 -318l207 115l-53 -309l-209 -117l-43 -248h450l-53 -299h-791l60 338z" />
<glyph horiz-adv-x="686" d="M-66 -307l152 860h246l-113 -645h324l-37 -215h-572z" />
<glyph horiz-adv-x="923" d="M-4 0l207 1176h342l-156 -877h451l-54 -299h-790zM569 494l49 280h271l-49 -280h-271z" />
<glyph horiz-adv-x="919" d="M-4 0l207 1176h342l-156 -877h451l-54 -299h-790zM170 -553l135 168h-104l49 276h242l-46 -311l-229 -219z" />
<glyph horiz-adv-x="1525" d="M117 1176h379l-11 -609l230 609h262l20 -609l201 609h399l-491 -1176h-322l-24 645l-246 -645h-319zM524 1249l240 293h319l134 -293h-222l-86 137l-133 -137h-252z" />
<glyph horiz-adv-x="919" d="M-4 0l207 1176h342l-156 -877h451l-54 -299h-790zM526 731l136 168h-105l49 277h242l-45 -312l-230 -219z" />
<glyph horiz-adv-x="919" d="M-4 0l207 1176h342l-156 -877h451l-54 -299h-790zM160 1249l262 293h393l-348 -293h-307z" />
<glyph horiz-adv-x="718" d="M-59 -49q0 53 10.5 106.5t36.5 107t64.5 94.5t100 67t136.5 26q60 0 112.5 -15t95.5 -46t68 -85t25 -126q0 -54 -10.5 -107t-36 -107t-64 -95t-99.5 -67t-138 -26q-60 0 -112 15t-95.5 46.5t-68.5 85.5t-25 126zM178 -55q0 -39 14.5 -58.5t51.5 -19.5q29 0 52 25t35 62 t17.5 71.5t5.5 60.5q0 39 -14 58.5t-53 19.5q-37 0 -63.5 -43.5t-36 -91t-9.5 -84.5z" />
<glyph horiz-adv-x="919" d="M-4 0l207 1176h342l-156 -877h451l-54 -299h-790z" />
<glyph horiz-adv-x="845" d="M127 788l152 861h245l-49 -273l236 273h315l-371 -394l217 -467h-272l-117 287l-73 -78l-37 -209h-246z" />
<glyph horiz-adv-x="614" d="M12 715l254 145h236l-152 -860h-246l109 610l-119 -63z" />
<glyph horiz-adv-x="612" d="M115 1288l254 146h235l-151 -861h-246l108 611l-118 -64z" />
<glyph horiz-adv-x="815" d="M51 940l398 236h358l-207 -1176h-375l142 795l-193 -109z" />
<glyph horiz-adv-x="1230" d="M-2 0l57 324h340l129 729l-207 -117l-120 256l409 242h359l-195 -1110h346l-57 -324h-1061z" />
<glyph horiz-adv-x="745" d="M-84 -94q0 109 32 208.5t99.5 168.5t155.5 69q54 0 89 -19t70 -54l56 309h237l-157 -895h-238l10 59q-98 -74 -184 -74q-79 0 -124.5 61.5t-45.5 166.5zM158 -57q0 -66 45 -66q44 0 100 62l29 161q-28 54 -72 54q-46 0 -74 -71.5t-28 -139.5z" />
<glyph horiz-adv-x="1411" d="M113 1059l211 117h186l-127 -705h-195l97 508l-107 -53zM184 0l682 1176h209l-684 -1176h-207zM698 176q0 133 179 215q-72 60 -72 135q0 82 71 136.5t195 54.5q114 0 174 -46t60 -120q0 -102 -129 -172q106 -66 106 -170q0 -97 -82.5 -159t-230.5 -62q-131 0 -201 50.5 t-70 137.5zM897 199q0 -58 82 -58q47 0 77.5 20.5t30.5 55.5q0 50 -71 92q-119 -47 -119 -110zM989 512q0 -36 45 -61q40 16 62 32.5t22 40.5q0 22 -14.5 34.5t-40.5 12.5q-34 0 -54 -17.5t-20 -41.5z" />
<glyph horiz-adv-x="1419" d="M113 1059l211 117h186l-127 -705h-195l97 508l-107 -53zM186 0l682 1176h209l-684 -1176h-207zM711 104l108 127q82 -69 156 -69q45 0 76.5 22.5t31.5 61.5q0 30 -19 47.5t-56 17.5q-56 0 -115 -39l-102 70l100 363h448l-26 -166h-287l-16 -74q30 6 61 6q103 0 157 -60 t54 -149q0 -111 -77 -192.5t-214 -81.5q-152 0 -280 116z" />
<glyph horiz-adv-x="845" d="M-66 -307l152 860h246l-49 -272l235 272h316l-371 -393l217 -467h-272l-117 287l-74 -78l-37 -209h-246z" />
<glyph horiz-adv-x="1419" d="M111 1059l213 117h184l-127 -705h-193l97 508l-109 -53zM184 0l684 1176h207l-682 -1176h-209zM702 0l15 80q10 52 34.5 98t62 82.5t71.5 62t78 52.5q53 31 72 42.5t49 32.5t40.5 35t10.5 27q2 18 -13 27.5t-45 9.5q-55 0 -176 -64l-72 138q143 94 281 94 q110 0 166.5 -54t56.5 -131q0 -40 -17 -78.5t-40.5 -66t-59 -55t-62 -43t-60.5 -33.5q-110 -60 -121 -88h291l-29 -168h-533z" />
<glyph horiz-adv-x="1525" d="M117 1176h379l-11 -609l230 609h262l20 -609l201 609h399l-491 -1176h-322l-24 645l-246 -645h-319zM571 1270l50 274h264l-47 -274h-267zM915 1270l48 274h264l-47 -274h-265z" />
<glyph horiz-adv-x="1138" d="M-4 0l207 1176h342l-66 -367l320 367h438l-510 -537l301 -639h-379l-162 387l-100 -104l-49 -283h-342zM236 -553l135 168h-105l49 276h242l-45 -311l-229 -219z" />
<glyph horiz-adv-x="1394" d="M111 1059l213 117h184l-127 -705h-193l97 508l-107 -53zM184 0l684 1176h209l-684 -1176h-209zM623 119l22 139l356 447h259l-74 -418h92l-27 -168h-96l-20 -119h-195l21 119h-338zM848 287h143l43 239z" />
<glyph horiz-adv-x="1404" d="M113 1059l211 117h186l-127 -705h-195l97 508l-107 -53zM186 0l684 1176h207l-682 -1176h-209zM711 262q0 119 56.5 222t164.5 168t244 65q40 0 75 -6.5t49 -12.5l15 -6l-72 -147q-26 8 -63 8q-73 0 -134.5 -33t-97.5 -92q49 29 115 29q93 0 148 -55t55 -146 q0 -110 -76 -189t-205 -79q-131 0 -202.5 78t-71.5 196zM903 252q0 -44 20.5 -71t59.5 -27q42 0 64 26.5t22 63.5q0 67 -76 67q-51 0 -90 -43v-16z" />
<glyph horiz-adv-x="1138" d="M-4 0l207 1176h342l-66 -367l320 367h438l-510 -537l301 -639h-379l-162 387l-100 -104l-49 -283h-342z" />
<glyph horiz-adv-x="1525" d="M117 1176h379l-11 -609l230 609h262l20 -609l201 609h399l-491 -1176h-322l-24 645l-246 -645h-319zM561 1542h359l159 -293h-274z" />
<glyph horiz-adv-x="1398" d="M111 1059l213 117h184l-127 -705h-193l97 508l-109 -53zM184 0l684 1176h207l-682 -1176h-209zM692 104l103 121q106 -65 182 -65q45 0 69.5 16.5t24.5 44.5q0 27 -23.5 42t-52 18.5t-71.5 3.5h-25l29 166h30q56 0 100 13.5t44 45.5q0 37 -51 37q-59 0 -172 -55l-64 133 q44 32 118.5 62t162.5 30q102 0 154.5 -45.5t52.5 -114.5q0 -109 -134 -174q46 -22 73.5 -64t27.5 -94q0 -41 -15.5 -80.5t-46.5 -75.5t-87 -58.5t-128 -22.5q-164 0 -301 116z" />
<glyph horiz-adv-x="438" d="M-8 733q90 33 115 57.5t34 81.5l138 777h245l-135 -762q-10 -60 -16.5 -88t-21 -68.5t-35 -60.5t-56.5 -46t-87.5 -44.5t-125.5 -38.5z" />
<glyph horiz-adv-x="438" d="M-201 -362q90 33 115.5 57.5t34.5 81.5l137 776h246l-135 -762q-10 -60 -16.5 -88t-21 -68.5t-35 -60.5t-56.5 -46t-87.5 -44.5t-125.5 -38.5z" />
<glyph horiz-adv-x="548" d="M-188 -74q65 23 101 40t57 40.5t28.5 45t15.5 65.5l187 1059h344l-185 -1039q-27 -158 -50 -216q-40 -98 -140 -157q-94 -55 -283 -104zM37 1249l239 293h320l133 -293h-221l-86 137l-133 -137h-252z" />
<glyph horiz-adv-x="548" d="M-188 -74q65 23 101 40t57 40.5t28.5 45t15.5 65.5l187 1059h344l-185 -1039q-27 -158 -50 -216q-40 -98 -140 -157q-94 -55 -283 -104z" />
<glyph horiz-adv-x="1087" d="M-4 553h274l-8 -444l166 444h190l13 -444l147 444h289l-358 -860h-232l-16 473l-180 -473h-230z" />
<glyph horiz-adv-x="550" d="M-4 0l207 1176h342l-207 -1176h-342zM51 1352q26 41 36.5 57t33.5 49t39 47t40 32t49 25t54 7q39 0 84.5 -24t83.5 -48t61 -24q44 0 107 96l135 -99q-70 -109 -101 -143q-69 -74 -153 -74q-39 0 -83.5 24t-82 48.5t-59.5 24.5q-45 0 -111 -99z" />
<glyph horiz-adv-x="438" d="M127 788l152 861h245l-151 -861h-246z" />
<glyph horiz-adv-x="548" d="M-74 -244q0 141 201 244h-131l207 1176h342l-207 -1176h-8q-41 -30 -61.5 -45.5t-54 -45.5t-49 -57.5t-15.5 -54.5q0 -15 6.5 -25.5t15 -15.5t23 -8t23 -3t23.5 0.5t17 0.5l-59 -158q-1 0 -20.5 -0.5t-32.5 0t-37.5 2t-42 6t-41 12t-39.5 20.5t-30.5 30t-22 42t-7.5 56z " />
<glyph horiz-adv-x="1222" d="M57 657q0 144 63.5 262t182 187.5t270.5 69.5h283l-262 -1487h-268l106 602q-166 0 -270.5 92.5t-104.5 273.5zM670 -311l262 1487h268l-262 -1487h-268z" />
<glyph horiz-adv-x="546" d="M-4 0l207 1176h342l-207 -1176h-342zM119 1300l37 216h542l-36 -216h-543z" />
<glyph horiz-adv-x="612" d="M10.5 21.5q-2.5 92.5 20.5 226.5l121 688q9 51 15 80.5t16 69.5t19.5 62t25 52t33 47.5t43.5 39.5t57 36t72 30.5t90 29.5t110 26l49 -195q-98 -39 -128 -75t-44 -117l-158 -887q-18 -76 -2.5 -121t86.5 -82l-92 -172q-178 44 -254.5 106.5t-79 155z" />
<glyph horiz-adv-x="1089" d="M190 1649h275l-8 -445l166 445h190l12 -445l148 445h289l-359 -861h-231l-17 474l-180 -474h-229z" />
<glyph horiz-adv-x="636" d="M127 1036q0 192 87.5 302t215.5 110q49 0 104 -16t87 -31t79 -40q9 -5 13 -7l-109 -170q-82 51 -129 51q-50 0 -79 -50.5t-29 -119.5q0 -78 61 -78q37 0 137 45l70 -186q-168 -72 -273 -72q-104 0 -169.5 64.5t-65.5 197.5z" />
<glyph horiz-adv-x="438" d="M-66 -307l152 860h246l-152 -860h-246z" />
<glyph horiz-adv-x="614" d="M-80 -45q98 39 128 75t44 117l158 887q18 76 2.5 121t-86.5 82l92 172q55 -13 99 -27.5t78.5 -32t60.5 -34t43.5 -39.5t29.5 -42.5t17 -50t6.5 -54t-2 -62t-7.5 -68t-12 -77.5l-120 -689q-9 -51 -15 -80.5t-16 -69t-19.5 -62.5t-25 -52.5t-33.5 -47t-44 -39.5t-57 -36 t-72 -30.5t-90 -29.5t-110 -26z" />
<glyph horiz-adv-x="1396" d="M55 535q0 132 45 250.5t129 210t214.5 145t289.5 53.5q276 0 438 -152.5t162 -400.5q0 -132 -45 -250.5t-129 -210t-214.5 -145t-289.5 -53.5q-276 0 -438 152.5t-162 400.5zM125 535q0 -217 143 -353.5t391 -136.5q139 0 254.5 47t191.5 128.5t117.5 189.5t41.5 231 q0 217 -143 353t-392 136q-139 0 -254.5 -47t-191 -128t-117 -189t-41.5 -231zM365 508q-7 104 19.5 189.5t76.5 140t117 84.5t143 30q141 0 289 -112l-58 -56q-26 20 -41.5 31t-47.5 28.5t-68 26.5t-76 9q-119 0 -196 -104.5t-68 -260.5q6 -101 51.5 -159t120.5 -58 q127 0 266 90l49 -61q-51 -31 -85 -48.5t-99 -37t-127 -19.5q-111 0 -185.5 76t-80.5 211z" />
<glyph horiz-adv-x="1843" d="M-186 -201q54 20 87.5 35t60 35t40 34.5t25.5 46t17.5 56t14.5 76.5l127 719h-116l49 274h114q39 215 126.5 316.5t248.5 101.5q140 0 340 -78l15 78h360l-92 -522q150 127 291 127q128 0 200 -98t72 -271q0 -103 -18 -208t-56 -203t-91 -173.5t-129.5 -121.5t-164.5 -46 q-85 0 -142 33t-114 92l-18 -102h-361l201 1149q-151 37 -215 37q-71 0 -88 -86l-4 -25h201l-52 -274h-198l-121 -688q-15 -83 -22.5 -121.5t-23 -99t-31 -88t-44 -69.5t-63 -64t-86 -51.5t-116.5 -51.5t-151 -45zM1126 379q50 -100 125 -100q53 0 94.5 66.5t60.5 153 t19 167.5q0 131 -79 131q-74 0 -164 -111z" />
<glyph horiz-adv-x="780" d="M-160 -307l314 436l-150 424h272l54 -240l135 240h293l-301 -420l161 -440h-272l-59 237l-144 -237h-303z" />
<glyph horiz-adv-x="550" d="M-4 0l207 1176h342l-207 -1176h-342zM70 1542h358l160 -293h-275z" />
<glyph horiz-adv-x="1546" d="M86 817q0 51 12 102.5t38 101t64 88t95 62t125 23.5q123 0 208 -64t85 -188q0 -51 -12 -103t-38 -101.5t-64 -87.5t-94.5 -61.5t-123.5 -23.5q-124 0 -209.5 64t-85.5 188zM279 0l727 1176h245l-727 -1176h-245zM319 817q0 -65 66 -65q27 0 47 22t30 55t14.5 61.5 t4.5 49.5q0 66 -67 66q-26 0 -46 -22t-30 -54.5t-14.5 -61.5t-4.5 -51zM823 233q0 65 19.5 129t57.5 120.5t105 92t152 35.5q77 0 141 -25.5t107 -84t43 -142.5q0 -65 -19.5 -128.5t-57.5 -120.5t-104.5 -92t-150.5 -35q-123 0 -208 63.5t-85 187.5zM1057 236q0 -66 65 -66 q26 0 46 22t30.5 54.5t15.5 61.5t5 50q0 66 -68 66q-26 0 -45.5 -22t-29.5 -55t-14.5 -61.5t-4.5 -49.5z" />
<glyph horiz-adv-x="1083" d="M-39 289q0 48 14 95t42 89t76.5 68t109.5 26q89 0 150 -47t61 -137q0 -48 -14 -95t-41.5 -88.5t-75.5 -67.5t-109 -26q-90 0 -151.5 46.5t-61.5 136.5zM100 -307l527 860h176l-527 -860h-176zM129 291q0 -49 47 -49q19 0 34 16.5t22 41t10.5 45.5t3.5 36q0 49 -47 49 q-24 0 -41 -29t-23 -59t-6 -51zM492 -139q0 38 8.5 76t27 75t46 65t68.5 45t91 17q89 0 150 -46t61 -136q0 -48 -14 -95.5t-42 -89.5t-76 -68t-110 -26q-89 0 -149.5 46.5t-60.5 136.5zM659 -137q0 -49 48 -49q24 0 41 29.5t22.5 59.5t5.5 52q0 49 -47 49q-24 0 -41 -29 t-23 -59.5t-6 -52.5z" />
<glyph horiz-adv-x="1085" d="M156 1384q0 48 14 95t41.5 89.5t76 68.5t109.5 26q89 0 150 -47t61 -137q0 -48 -14 -95t-41.5 -88.5t-75 -67.5t-108.5 -26q-90 0 -151.5 46t-61.5 136zM295 788l526 861h176l-526 -861h-176zM324 1386q0 -49 47 -49q25 0 42 29.5t22 59t5 51.5q0 49 -47 49 q-24 0 -41 -29.5t-22.5 -59t-5.5 -51.5zM686 956q0 48 14 95.5t42 89.5t76 68t110 26q89 0 150 -46t61 -136q0 -48 -14 -95.5t-42 -89.5t-76 -68t-110 -26q-89 0 -150 46t-61 136zM854 958q0 -49 47 -49q19 0 33.5 17t22 42t11 46.5t3.5 36.5q0 49 -47 49q-19 0 -33.5 -17 t-22 -41.5t-11 -46.5t-3.5 -37z" />
<glyph horiz-adv-x="550" d="M-4 0l207 1176h342l-207 -1176h-342zM86 1270l49 274h264l-47 -274h-266zM430 1270l47 274h264l-47 -274h-264z" />
<glyph horiz-adv-x="548" d="M-4 0l207 1176h342l-207 -1176h-342zM33 1249l239 293h320l133 -293h-221l-86 137l-133 -137h-252z" />
<glyph horiz-adv-x="407" d="M121 788l45 256h229l-45 -256h-229zM180 1143l45 256h230l-45 -256h-230z" />
<glyph horiz-adv-x="641" d="M150 1145q0 190 87.5 299.5t215.5 109.5q31 0 45 -2l37 97h88l-43 -115l20 -6l45 121h88l-57 -154l69 -35l-106 -170q-100 51 -141 51q-51 0 -81 -49.5t-30 -117.5q0 -80 64 -80q45 0 149 45l66 -187q-110 -50 -217 -65l-37 -99h-88l34 95q-8 2 -22 2l-37 -97h-88l47 125 q-108 61 -108 232z" />
<glyph horiz-adv-x="643" d="M-43 49q0 190 87.5 300t215.5 110q31 0 45 -2l37 96h88l-43 -115l21 -6l45 121h88l-58 -154l70 -34l-107 -170q-100 51 -141 51q-51 0 -80.5 -50t-29.5 -118q0 -80 63 -80q46 0 150 45l65 -186q-114 -51 -217 -66l-37 -98h-88l35 94q-8 2 -23 2l-37 -96h-88l48 125 q-109 61 -109 231z" />
<glyph horiz-adv-x="2217" d="M88 817q0 65 19.5 129t57.5 120.5t105 92t152 35.5q77 0 141 -25.5t107 -84t43 -142.5q0 -51 -11.5 -103t-37.5 -101.5t-63.5 -87.5t-94 -61.5t-123.5 -23.5q-124 0 -209.5 64t-85.5 188zM281 0l727 1176h245l-727 -1176h-245zM322 817q0 -65 65 -65q26 0 46 22t30 54.5 t15 61.5t5 50q0 66 -67 66q-26 0 -45.5 -22t-29.5 -54.5t-14.5 -61.5t-4.5 -51zM825 233q0 65 19.5 129t57.5 120.5t104.5 92t150.5 35.5q123 0 208 -64t85 -188q0 -65 -19.5 -128.5t-57.5 -120.5t-104.5 -92t-150.5 -35q-123 0 -208 63.5t-85 187.5zM1057 236q0 -66 67 -66 q26 0 46 22t29.5 55t14.5 61.5t5 49.5q0 30 -16 48t-50 18q-26 0 -46 -22t-30 -54.5t-15 -61.5t-5 -50zM1493 233q0 65 19.5 129t57.5 120.5t105 92t152 35.5q123 0 207 -64t84 -188q0 -51 -11.5 -102t-37.5 -101t-63.5 -88t-94 -61.5t-123.5 -23.5q-80 0 -144.5 25 t-107.5 83.5t-43 142.5zM1726 236q0 -66 66 -66q26 0 46 22t30 54.5t15 61.5t5 50q0 66 -67 66q-26 0 -46 -22t-29.5 -55t-14.5 -61.5t-5 -49.5z" />
</font>
</defs>
</svg>
