<?xml version="1.0" standalone="no"?>
<!DOCTYPE svg PUBLIC "-//W3C//DTD SVG 1.1//EN" "http://www.w3.org/Graphics/SVG/1.1/DTD/svg11.dtd" >
<svg xmlns="http://www.w3.org/2000/svg">
<metadata></metadata>
<defs>
<font id="verbcomplight_italic" horiz-adv-x="886" >
<font-face units-per-em="2048" ascent="1638" descent="-410" />
<missing-glyph horiz-adv-x="393" />
<glyph unicode="ff" horiz-adv-x="1050" d="M-162 -324q27 11 47.5 20.5t39 22t31 20t25 24.5t19.5 25t15 31.5t12 34.5t11 43.5t10 50t11 60.5l170 965h-102l23 102h98l33 180q20 122 65 180t121 58q94 0 227 -70l-59 -90q-104 47 -152 47q-62 0 -84 -123l-32 -182h196l-20 -102h-195l-170 -961 q-16 -91 -23.5 -130.5t-24.5 -92.5t-33.5 -74t-50.5 -50.5t-76 -48t-109 -42.5zM365 -324q27 11 47.5 20.5t39 22t31 20t25 24.5t19.5 25t15 31.5t12 34.5t11 43.5t10 50t11 60.5l170 965h-103l23 102h98l33 180q20 122 65 180t121 58q95 0 228 -70l-60 -90q-104 47 -151 47 q-62 0 -84 -123l-33 -182h197l-21 -102h-195l-169 -961q-16 -90 -23.5 -130t-24.5 -92.5t-34 -74t-51 -51t-76 -48t-109 -42.5z" />
<glyph unicode="fi" horiz-adv-x="911" d="M-162 -324q34 14 58.5 25.5t45.5 27.5t33.5 26.5t25 33.5t19 37.5t14.5 49t12 58.5t13 74l170 965h-102l23 102h98l33 180q22 125 64 181.5t116 56.5q71 0 190 -55l-51 -95q-77 37 -117 37q-62 0 -84 -123l-32 -182h196l-20 -102h-195l-170 -961q-15 -90 -22.5 -129 t-24 -92t-33.5 -74t-51 -51.5t-76.5 -49t-109.5 -42.5zM551 0l190 1075h117l-190 -1075h-117zM774 1309l33 178h131l-31 -178h-133z" />
<glyph unicode="fl" horiz-adv-x="927" d="M-162 -324q34 14 58.5 25.5t45.5 27.5t33.5 26.5t25 33.5t19 37.5t14.5 49t12 58.5t13 74l170 965h-102l23 102h98l33 180q22 125 64 181.5t116 56.5q71 0 190 -55l-51 -95q-77 37 -117 37q-62 0 -84 -123l-32 -182h196l-20 -102h-195l-170 -961q-15 -90 -22.5 -129 t-24 -92t-33.5 -74t-51 -51.5t-76.5 -49t-109.5 -42.5zM559 0l264 1493h119l-264 -1493h-119z" />
<glyph unicode="ffi" horiz-adv-x="1435" d="M-162 -324q27 11 47.5 20.5t39 22t31 20t25 24.5t19.5 25t15 31.5t12 34.5t11 43.5t10 50t11 60.5l170 965h-102l23 102h98l33 180q20 122 65 180t121 58q94 0 227 -70l-59 -90q-104 47 -152 47q-62 0 -84 -123l-32 -182h196l-20 -102h-195l-170 -961 q-16 -91 -23.5 -130.5t-24.5 -92.5t-33.5 -74t-50.5 -50.5t-76 -48t-109 -42.5zM365 -324q34 14 58.5 25.5t45.5 27.5t33.5 26.5t25 33.5t19 37.5t14.5 49t12 58.5t13 74l170 965h-103l23 102h98l33 180q22 125 64 181.5t116 56.5q72 0 191 -55l-52 -95q-77 37 -116 37 q-62 0 -84 -123l-33 -182h197l-21 -102h-195l-169 -961q-15 -89 -22.5 -128.5t-24 -92.5t-34 -74.5t-51.5 -51.5t-76.5 -48.5t-109.5 -42.5zM1075 0l191 1075h116l-190 -1075h-117zM1298 1309l33 178h131l-30 -178h-134z" />
<glyph unicode="ffl" horiz-adv-x="1452" d="M-162 -324q27 11 47.5 20.5t39 22t31 20t25 24.5t19.5 25t15 31.5t12 34.5t11 43.5t10 50t11 60.5l170 965h-102l23 102h98l33 180q20 122 65 180t121 58q94 0 227 -70l-59 -90q-104 47 -152 47q-62 0 -84 -123l-32 -182h196l-20 -102h-195l-170 -961 q-16 -91 -23.5 -130.5t-24.5 -92.5t-33.5 -74t-50.5 -50.5t-76 -48t-109 -42.5zM365 -324q34 14 58.5 25.5t45.5 27.5t33.5 26.5t25 33.5t19 37.5t14.5 49t12 58.5t13 74l170 965h-103l23 102h98l33 180q22 125 64 181.5t116 56.5q72 0 191 -55l-52 -95q-77 37 -116 37 q-62 0 -84 -123l-33 -182h197l-21 -102h-195l-169 -961q-15 -89 -22.5 -128.5t-24 -92.5t-34 -74.5t-51.5 -51.5t-76.5 -48.5t-109.5 -42.5zM1083 0l265 1493h118l-264 -1493h-119z" />
<glyph unicode="ffb" horiz-adv-x="1937" d="M-162 -324q27 11 47.5 20.5t39 22t31 20t25 24.5t19.5 25t15 31.5t12 34.5t11 43.5t10 50t11 60.5l170 965h-102l23 102h98l33 180q20 122 65 180t121 58q94 0 227 -70l-59 -90q-104 47 -152 47q-62 0 -84 -123l-32 -182h196l-20 -102h-195l-170 -961 q-16 -91 -23.5 -130.5t-24.5 -92.5t-33.5 -74t-50.5 -50.5t-76 -48t-109 -42.5zM365 -324q34 14 58.5 25.5t45.5 27.5t33.5 26.5t25 33.5t19 37.5t14.5 49t12 58.5t13 74l170 965h-103l23 102h98l33 180q22 125 64 181.5t116 56.5q72 0 191 -55l-52 -95q-77 37 -116 37 q-62 0 -84 -123l-33 -182h197l-21 -102h-195l-169 -961q-15 -89 -22.5 -128.5t-24 -92.5t-34 -74.5t-51.5 -51.5t-76.5 -48.5t-109.5 -42.5zM1075 0l264 1493h117l-98 -565q148 170 270 170q98 0 158.5 -83.5t60.5 -246.5q0 -149 -27 -291t-75.5 -253.5t-121 -179 t-157.5 -67.5q-41 0 -78.5 15.5t-68.5 44.5t-52.5 55t-45.5 62l-27 -154h-119zM1241 272q40 -81 94.5 -132.5t114.5 -51.5q79 0 143.5 106.5t97.5 256.5t33 299q0 112 -34 174.5t-101 62.5q-63 0 -122.5 -47t-131.5 -133z" />
<glyph unicode="ffh" horiz-adv-x="1937" d="M-162 -324q27 11 47.5 20.5t39 22t31 20t25 24.5t19.5 25t15 31.5t12 34.5t11 43.5t10 50t11 60.5l170 965h-102l23 102h98l33 180q20 122 65 180t121 58q94 0 227 -70l-59 -90q-104 47 -152 47q-62 0 -84 -123l-32 -182h196l-20 -102h-195l-170 -961 q-16 -91 -23.5 -130.5t-24.5 -92.5t-33.5 -74t-50.5 -50.5t-76 -48t-109 -42.5zM365 -324q34 14 58.5 25.5t45.5 27.5t33.5 26.5t25 33.5t19 37.5t14.5 49t12 58.5t13 74l170 965h-103l23 102h98l33 180q22 125 64 181.5t116 56.5q72 0 191 -55l-52 -95q-77 37 -116 37 q-62 0 -84 -123l-33 -182h197l-21 -102h-195l-169 -961q-15 -89 -22.5 -128.5t-24 -92.5t-34 -74.5t-51.5 -51.5t-76.5 -48.5t-109.5 -42.5zM1075 0l264 1493h117l-100 -571q36 33 66 57.5t76 55t94.5 47t95.5 16.5q101 0 140 -77t15 -212l-141 -809h-121l139 788 q8 54 8.5 98.5t-22 73.5t-68.5 29q-128 0 -305 -188l-139 -801h-119z" />
<glyph unicode="fb" horiz-adv-x="1411" d="M-162 -324q34 14 58.5 25.5t45.5 27.5t33.5 26.5t25 33.5t19 37.5t14.5 49t12 58.5t13 74l170 965h-102l23 102h98l33 180q22 125 64 181.5t116 56.5q71 0 190 -55l-51 -95q-77 37 -117 37q-62 0 -84 -123l-32 -182h196l-20 -102h-195l-170 -961q-15 -90 -22.5 -129 t-24 -92t-33.5 -74t-51 -51.5t-76.5 -49t-109.5 -42.5zM551 0l264 1493h117l-98 -565q148 170 270 170q98 0 158.5 -83.5t60.5 -246.5q0 -149 -27 -291t-75.5 -253.5t-121 -179t-157.5 -67.5q-41 0 -78.5 15.5t-69 44.5t-53 55.5t-45.5 61.5l-26 -154h-119zM717 272 q40 -81 94.5 -132.5t114.5 -51.5q79 0 143.5 106.5t97.5 256.5t33 299q0 112 -34 174.5t-101 62.5q-63 0 -122.5 -47t-131.5 -133z" />
<glyph unicode="ffj" horiz-adv-x="1443" d="M-162 -324q27 11 47.5 20.5t39 22t31 20t25 24.5t19.5 25t15 31.5t12 34.5t11 43.5t10 50t11 60.5l170 965h-102l23 102h98l33 180q20 122 65 180t121 58q94 0 227 -70l-59 -90q-104 47 -152 47q-62 0 -84 -123l-32 -182h196l-20 -102h-195l-170 -961 q-16 -91 -23.5 -130.5t-24.5 -92.5t-33.5 -74t-50.5 -50.5t-76 -48t-109 -42.5zM365 -324q34 14 58.5 25.5t45.5 27.5t33.5 26.5t25 33.5t19 37.5t14.5 49t12 58.5t13 74l170 965h-103l23 102h98l33 180q22 125 64 181.5t116 56.5q72 0 191 -55l-52 -95q-77 37 -116 37 q-62 0 -84 -123l-33 -182h197l-21 -102h-195l-169 -961q-15 -89 -22.5 -128.5t-24 -92.5t-34 -74.5t-51.5 -51.5t-76.5 -48.5t-109.5 -42.5zM854 -322q44 19 74 34t51.5 34t33.5 33t22 42t14 48t12 63l203 1143h118l-202 -1138q-7 -41 -10.5 -59t-10.5 -50t-12.5 -45.5 t-16 -37.5t-21 -35.5t-27 -29.5t-35.5 -28.5t-45.5 -25.5t-57.5 -27t-70 -25zM1296 1309l33 178h131l-30 -178h-134z" />
<glyph unicode="ffk" horiz-adv-x="1816" d="M-162 -324q27 11 47.5 20.5t39 22t31 20t25 24.5t19.5 25t15 31.5t12 34.5t11 43.5t10 50t11 60.5l170 965h-102l23 102h98l33 180q20 122 65 180t121 58q94 0 227 -70l-59 -90q-104 47 -152 47q-62 0 -84 -123l-32 -182h196l-20 -102h-195l-170 -961 q-16 -91 -23.5 -130.5t-24.5 -92.5t-33.5 -74t-50.5 -50.5t-76 -48t-109 -42.5zM365 -324q34 14 58.5 25.5t45.5 27.5t33.5 26.5t25 33.5t19 37.5t14.5 49t12 58.5t13 74l170 965h-103l23 102h98l33 180q22 125 64 181.5t116 56.5q72 0 191 -55l-52 -95q-77 37 -116 37 q-62 0 -84 -123l-33 -182h197l-21 -102h-195l-169 -961q-15 -89 -22.5 -128.5t-24 -92.5t-34 -74.5t-51.5 -51.5t-76.5 -48.5t-109.5 -42.5zM1075 0l264 1493h117l-172 -983l399 565h142l-334 -442l186 -633h-123l-145 526l-160 -211l-55 -315h-119z" />
<glyph unicode="fft" horiz-adv-x="1605" d="M-162 -324q27 11 47.5 20.5t39 22t31 20t25 24.5t19.5 25t15 31.5t12 34.5t11 43.5t10 50t11 60.5l170 965h-102l23 102h98l33 180q20 122 65 180t121 58q94 0 227 -70l-59 -90q-104 47 -152 47q-62 0 -84 -123l-32 -182h196l-20 -102h-195l-170 -961 q-16 -91 -23.5 -130.5t-24.5 -92.5t-33.5 -74t-50.5 -50.5t-76 -48t-109 -42.5zM365 -324q27 11 47.5 20.5t39 22t31 20t25 24.5t19.5 25t15 31.5t12 34.5t11 43.5t10 50t11 60.5l170 965h-103l23 102h98l33 180q20 122 65 180t121 58q95 0 228 -70l-60 -90q-104 47 -151 47 q-62 0 -84 -123l-33 -182h197l-21 -102h-195l-169 -961q-16 -90 -23.5 -130t-24.5 -92.5t-34 -74t-51 -51t-76 -48t-109 -42.5zM1143 229l131 744h-103l17 102h104l49 271l125 40l-55 -311h201l-19 -102h-200l-133 -760q-21 -123 45 -123q40 0 141 55l33 -98 q-129 -70 -215 -70q-70 0 -107.5 57.5t-13.5 194.5z" />
<glyph unicode="fh" horiz-adv-x="1411" d="M-162 -324q34 14 58.5 25.5t45.5 27.5t33.5 26.5t25 33.5t19 37.5t14.5 49t12 58.5t13 74l170 965h-102l23 102h98l33 180q22 125 64 181.5t116 56.5q71 0 190 -55l-51 -95q-77 37 -117 37q-62 0 -84 -123l-32 -182h196l-20 -102h-195l-170 -961q-15 -90 -22.5 -129 t-24 -92t-33.5 -74t-51 -51.5t-76.5 -49t-109.5 -42.5zM551 0l264 1493h117l-101 -571q36 33 66 57.5t76 55t94.5 47t95.5 16.5q101 0 140.5 -77t15.5 -212l-141 -809h-121l139 788q8 54 8.5 98.5t-22 73.5t-68.5 29q-128 0 -305 -188l-139 -801h-119z" />
<glyph unicode="fj" horiz-adv-x="919" d="M-162 -324q34 14 58.5 25.5t45.5 27.5t33.5 26.5t25 33.5t19 37.5t14.5 49t12 58.5t13 74l170 965h-102l23 102h98l33 180q22 125 64 181.5t116 56.5q71 0 190 -55l-51 -95q-77 37 -117 37q-62 0 -84 -123l-32 -182h196l-20 -102h-195l-170 -961q-15 -90 -22.5 -129 t-24 -92t-33.5 -74t-51 -51.5t-76.5 -49t-109.5 -42.5zM330 -322q44 19 74 34t51.5 34t33.5 33t22 42t14 48t12 63l202 1143h119l-203 -1138q-24 -137 -45 -183q-32 -73 -115 -119q-54 -30 -145 -61zM772 1309l33 178h131l-31 -178h-133z" />
<glyph unicode="fk" horiz-adv-x="1290" d="M-162 -324q34 14 58.5 25.5t45.5 27.5t33.5 26.5t25 33.5t19 37.5t14.5 49t12 58.5t13 74l170 965h-102l23 102h98l33 180q22 125 64 181.5t116 56.5q71 0 190 -55l-51 -95q-77 37 -117 37q-62 0 -84 -123l-32 -182h196l-20 -102h-195l-170 -961q-15 -90 -22.5 -129 t-24 -92t-33.5 -74t-51 -51.5t-76.5 -49t-109.5 -42.5zM551 0l264 1493h117l-172 -983l399 565h141l-333 -442l186 -633h-123l-145 526l-160 -211l-55 -315h-119z" />
<glyph unicode="ft" horiz-adv-x="1081" d="M-162 -324q27 11 47.5 20.5t39 22t31 20t25 24.5t19.5 25t15 31.5t12 34.5t11 43.5t10 50t11 60.5l170 965h-102l23 102h98l33 180q20 122 65 180t121 58q94 0 227 -70l-59 -90q-104 47 -152 47q-62 0 -84 -123l-32 -182h196l-20 -102h-195l-170 -961 q-16 -91 -23.5 -130.5t-24.5 -92.5t-33.5 -74t-50.5 -50.5t-76 -48t-109 -42.5zM618 229l132 744h-103l17 102h104l49 271l125 40l-55 -311h200l-18 -102h-201l-133 -760q-21 -123 45 -123q41 0 142 55l32 -98q-129 -70 -215 -70q-70 0 -107.5 57.5t-13.5 194.5z" />
<glyph unicode=" "  horiz-adv-x="393" />
<glyph unicode="&#x09;" horiz-adv-x="393" />
<glyph unicode="&#xa0;" horiz-adv-x="393" />
<glyph unicode="!" horiz-adv-x="460" d="M53 0l37 211h139l-39 -211h-137zM158 418l141 1016h145l-213 -1016h-73z" />
<glyph unicode="&#x22;" horiz-adv-x="618" d="M186 911l70 523h127l-117 -523h-80zM451 911l69 523h127l-117 -523h-79z" />
<glyph unicode="#" horiz-adv-x="1075" d="M43 383l18 102h195l131 461h-184l16 103h197l108 385h101l-109 -385h264l109 385h98l-108 -385h190l-18 -103h-201l-131 -461h192l-16 -102h-205l-106 -383h-99l107 383h-262l-107 -383h-102l106 383h-184zM358 485h263l131 461h-265z" />
<glyph unicode="$" horiz-adv-x="907" d="M8 131l80 96q127 -102 227 -125l107 596q-58 49 -93.5 84.5t-72 84t-53.5 103t-17 117.5q0 164 107 266.5t264 102.5l33 184h94l-35 -194q128 -23 254 -109l-78 -96q-107 70 -196 90l-99 -553q59 -52 94.5 -89t75 -90t58 -111.5t18.5 -125.5q0 -115 -55 -203.5t-142 -134 t-190 -47.5l-33 -182h-94l33 191q-148 29 -287 145zM317 1090q0 -71 32 -124.5t100 -115.5l86 487q-91 -6 -154.5 -71.5t-63.5 -175.5zM410 94q101 8 169 79t68 185q0 81 -36.5 143.5t-106.5 127.5z" />
<glyph unicode="%" horiz-adv-x="1425" d="M147 983q0 53 8 111t29 124t52.5 118t84 86t117.5 34q44 0 84.5 -15.5t76 -48.5t56.5 -92.5t21 -138.5q0 -53 -8 -111t-29 -124t-52.5 -118t-84 -86t-117.5 -34q-44 0 -84 15.5t-75.5 48.5t-57 92.5t-21.5 138.5zM250 967q0 -57 13.5 -97.5t36 -59.5t44 -26.5t43.5 -7.5 q43 0 77 31.5t54 77.5t33.5 103.5t18.5 104.5t5 85q0 57 -13.5 97.5t-36.5 59t-43.5 26t-43.5 7.5q-43 0 -77.5 -31.5t-54.5 -77.5t-33.5 -103.5t-18 -104t-4.5 -84.5zM295 0l764 1434h104l-764 -1434h-104zM782 272q0 53 8 111t29 124t52.5 118t84.5 86t119 34 q44 0 83.5 -15.5t75 -48t56.5 -92t21 -138.5q0 -43 -6 -91t-18.5 -103t-35.5 -103.5t-53.5 -89t-76.5 -64t-101 -23.5q-44 0 -84 15.5t-75.5 48.5t-57 92.5t-21.5 138.5zM885 256q0 -57 13.5 -97.5t36.5 -59t43.5 -26t43.5 -7.5q43 0 77.5 31.5t54.5 77.5t33.5 103.5t18 104 t4.5 84.5q0 57 -13.5 97.5t-36.5 59t-43.5 26t-43.5 7.5q-43 0 -77.5 -31.5t-54.5 -77.5t-33.5 -103.5t-18 -104t-4.5 -84.5z" />
<glyph unicode="&#x26;" horiz-adv-x="1013" d="M74 281q0 66 16.5 129t41.5 112t65 100.5t75.5 88.5t85.5 82q-71 155 -71 297q0 92 24 164t64.5 115t89.5 65t102 22q92 0 153.5 -61.5t61.5 -171.5q0 -66 -22 -126.5t-69.5 -121t-86.5 -100t-108 -103.5l198 -385q88 170 137 369h123q-72 -281 -202 -484l141 -272h-133 l-86 168q-159 -191 -342 -191q-120 0 -189 79.5t-69 224.5zM190 295q0 -54 13.5 -99t51 -78.5t95.5 -33.5q139 0 273 186l-213 420q-106 -102 -163 -194t-57 -201zM399 1094q0 -111 47 -222q54 48 87.5 82.5t68.5 79.5t51.5 90t16.5 93q0 60 -28 97.5t-81 37.5 q-75 0 -118.5 -74t-43.5 -184z" />
<glyph unicode="'" horiz-adv-x="354" d="M186 911l70 523h127l-117 -523h-80z" />
<glyph unicode="(" horiz-adv-x="487" d="M37 -94.5q-1 62.5 14 151.5l234 1317q8 47 14 73.5t17 60t24.5 53.5t35 44t51.5 41t70.5 35.5t94.5 36.5l18 -100q-49 -21 -80.5 -39.5t-52.5 -36.5t-33.5 -45.5t-20 -54t-15.5 -74.5l-234 -1315q-9 -48 -12.5 -73.5t-2.5 -52t6.5 -39t22.5 -29.5t36.5 -28t56.5 -30 l-43 -94q-108 42 -154 89t-47 109.5z" />
<glyph unicode=")" horiz-adv-x="485" d="M-90 -193q61 26 95.5 47t56.5 51.5t31 61.5t20 90l233 1315q9 48 12.5 73t2.5 52t-6 39.5t-22 29.5t-36.5 28t-56.5 30l43 94q108 -42 153.5 -89t46.5 -109.5t-14 -151.5l-233 -1317q-12 -65 -21 -99.5t-29 -75.5t-51 -66t-81 -51.5t-126 -51.5z" />
<glyph unicode="*" horiz-adv-x="845" d="M168 1034l278 72l-233 168l68 82l200 -209l23 287l108 -19l-75 -276l256 129l34 -107l-274 -74l233 -163l-71 -84l-195 204l-24 -286l-107 20l76 279l-258 -127z" />
<glyph unicode="+" horiz-adv-x="880" d="M94 629l19 106h297l61 342h100l-61 -342h303l-18 -106h-303l-60 -340h-100l59 340h-297z" />
<glyph unicode="," horiz-adv-x="389" d="M-27 -207l109 207h-62l37 217h138l-25 -225l-162 -242z" />
<glyph unicode="-" horiz-adv-x="655" d="M113 526l20 113h397l-18 -113h-399z" />
<glyph unicode="." horiz-adv-x="387" d="M20 0l39 217h138l-39 -217h-138z" />
<glyph unicode="/" horiz-adv-x="667" d="M-90 -184l780 1802h103l-781 -1802h-102z" />
<glyph unicode="0" horiz-adv-x="985" d="M111 381q0 37 4 94.5t13.5 143.5t27.5 175.5t43 185.5t64.5 180t87 151t114.5 106t145 39q63 0 115 -21.5t94.5 -67t66 -126t23.5 -190.5q0 -32 -3 -80.5t-10.5 -121.5t-20 -150.5t-33 -163.5t-47 -165t-65 -151.5t-84 -125.5t-106.5 -84.5t-130 -31.5q-62 0 -114 21 t-94.5 66.5t-66.5 126t-24 190.5zM233 375q0 -287 177 -287q63 0 118 48.5t92 125t67.5 175.5t48 195t29.5 188t16.5 151.5t4.5 87.5q0 287 -176 287q-73 0 -134 -64t-100.5 -165.5t-69 -216t-44.5 -228t-22 -188.5t-7 -109z" />
<glyph unicode="1" horiz-adv-x="573" d="M158 1253l270 181h113l-254 -1434h-125l227 1282l-180 -121z" />
<glyph unicode="2" horiz-adv-x="856" d="M-16 0l18 104q13 73 34.5 137.5t53 118.5t61 96t75 87.5t78 75t84.5 74.5q19 16 28 24q70 62 115.5 107.5t92 103t69 115t22.5 116.5q3 78 -38.5 129t-125.5 51q-122 0 -262 -104l-51 94q160 127 325 127q127 0 203 -72.5t76 -207.5q0 -52 -13 -104.5t-31.5 -95.5 t-51.5 -89.5t-60 -79t-69.5 -74.5t-68.5 -65t-69 -60t-59 -51q-118 -105 -184 -204t-91 -236h521l-21 -117h-661z" />
<glyph unicode="3" horiz-adv-x="872" d="M-12 106l80 93q29 -23 46 -35.5t50 -32t68.5 -28.5t74.5 -9q127 0 213 99t86 245q0 140 -81 215.5t-195 75.5h-25l23 119h34q73 0 148.5 45.5t126.5 123.5t51 163q0 74 -42.5 116.5t-115.5 42.5q-117 0 -243 -94l-47 92q163 119 319 119q120 0 187 -72t67 -184 q0 -77 -30.5 -152.5t-99 -146.5t-165.5 -113q94 -30 154.5 -124t60.5 -226q0 -119 -48.5 -222.5t-147.5 -171t-230 -67.5q-185 0 -319 129z" />
<glyph unicode="4" horiz-adv-x="917" d="M14 330l19 106l643 998h164l-176 -988h153l-20 -116h-154l-57 -330h-123l57 330h-506zM156 446h385l147 824z" />
<glyph unicode="5" horiz-adv-x="864" d="M8 125l72 92q2 -1 19 -17t29 -26t35.5 -26.5t44 -26.5t48.5 -17.5t55 -7.5q53 0 106 28.5t96.5 80.5t71 134.5t27.5 180.5q0 120 -46 193t-134 73q-92 0 -213 -94l-65 37l176 705h536l-20 -117h-432l-105 -459q81 43 164 43q127 0 197.5 -105t70.5 -270 q0 -148 -52 -272.5t-150.5 -200.5t-223.5 -76q-56 0 -105.5 14t-89 40.5t-62.5 46t-50 47.5z" />
<glyph unicode="6" horiz-adv-x="923" d="M96 428q0 263 89 500t243 382.5t330 145.5q40 0 77.5 -8t55.5 -16l18 -7l-53 -102q-43 16 -100 16q-110 0 -211.5 -83.5t-174 -218t-112.5 -298.5q18 27 41 52t58.5 55.5t82.5 48.5t97 18q87 0 149.5 -55t90.5 -137t28 -178q0 -103 -28.5 -203.5t-78.5 -181.5t-128 -131 t-169 -50q-77 0 -137 38.5t-96 103t-54 143.5t-18 166zM219 432q0 -90 19 -165t62.5 -125t105.5 -50q80 0 143.5 66t96 167t32.5 212q0 69 -16 126.5t-57 98.5t-101 41q-87 0 -167.5 -78.5t-111.5 -161.5q-6 -67 -6 -131z" />
<glyph unicode="7" horiz-adv-x="737" d="M90 0q31 178 100.5 376t139.5 344.5t153.5 293.5t121.5 205.5t65 97.5h-496l21 117h639l-19 -101l-27.5 -38.5t-69 -106t-100.5 -166t-112.5 -211t-114.5 -249.5t-97.5 -273t-70.5 -289h-133z" />
<glyph unicode="8" horiz-adv-x="937" d="M49 297q0 75 23 142t56.5 114.5t84.5 92.5t93 72t95 56q-153 125 -153 309q0 162 105 267.5t255 105.5q68 0 120.5 -24t83 -65t45.5 -90t15 -103q0 -236 -284 -408q41 -30 72 -60t64.5 -75.5t52 -105t18.5 -128.5q0 -187 -123.5 -303.5t-300.5 -116.5q-147 0 -234.5 84.5 t-87.5 235.5zM176 305q0 -108 56 -161.5t145 -53.5q120 0 205.5 85t85.5 226q0 55 -14.5 102t-42.5 85t-55 64t-67 57q-72 -44 -120.5 -79.5t-96.5 -85t-72 -109.5t-24 -130zM367 1077q0 -144 133 -250q252 148 252 344q0 77 -40.5 126t-115.5 49q-98 0 -163.5 -79.5 t-65.5 -189.5z" />
<glyph unicode="9" horiz-adv-x="923" d="M49 8l53 103q42 -19 99 -19q110 0 211.5 84t174 219t113.5 299q-125 -174 -280 -174q-86 0 -148 55.5t-90 137.5t-28 178q0 140 46.5 267t140.5 212.5t214 85.5q77 0 137.5 -38t96.5 -103t54.5 -143.5t18.5 -165.5q0 -197 -53 -385t-141 -329.5t-212 -228t-257 -86.5 q-40 0 -77.5 7.5t-55.5 15.5zM279 895q0 -68 17 -125.5t58.5 -98t100.5 -40.5q88 0 169.5 82.5t108.5 165.5q6 61 6 122q0 89 -19 163.5t-62 124.5t-105 50q-81 0 -145 -65.5t-96.5 -166t-32.5 -212.5z" />
<glyph unicode=":" horiz-adv-x="399" d="M23 0l38 217h138l-39 -217h-137zM150 715l38 217h138l-39 -217h-137z" />
<glyph unicode=";" horiz-adv-x="413" d="M-18 -207l108 207h-61l37 217h137l-25 -225l-162 -242zM154 715l39 217h137l-39 -217h-137z" />
<glyph unicode="&#x3c;" horiz-adv-x="880" d="M72 631l18 104l774 432l-26 -145l-643 -346l520 -344l-23 -133z" />
<glyph unicode="=" horiz-adv-x="878" d="M59 449l19 108h698l-20 -108h-697zM123 813l20 107h697l-19 -107h-698z" />
<glyph unicode="&#x3e;" horiz-adv-x="880" d="M37 201l26 145l644 346l-521 344l23 133l620 -432l-18 -104z" />
<glyph unicode="?" horiz-adv-x="739" d="M131 0l37 211h137l-37 -211h-137zM180 1327q62 52 144.5 90.5t169.5 38.5q113 0 188.5 -68.5t75.5 -193.5q0 -83 -35 -156.5t-95 -129t-118.5 -93.5t-126.5 -70l-70 -327h-84l56 401q346 153 346 359q0 76 -44 118.5t-114 42.5q-103 0 -237 -100z" />
<glyph unicode="@" horiz-adv-x="1421" d="M70 311q0 131 24.5 263t70.5 253.5t115 227t153 183.5t191 122.5t224 44.5q112 0 199.5 -41t143.5 -116.5t88 -181t33.5 -235t-18.5 -278.5q-15 -95 -36.5 -178.5t-53.5 -161t-71 -133t-91 -88.5t-112 -33q-50 0 -82.5 24t-43.5 60t-14.5 78t3.5 78q-48 -60 -113.5 -105 t-130.5 -45q-74 0 -126 61t-52 185q0 156 80 259t198 103q35 0 73.5 -9.5t87.5 -27t52 -18.5l21 121q11 63 11 110.5t-24 75t-75 27.5q-50 0 -100.5 -19.5t-129.5 -60.5l-39 86q160 90 289 90q102 0 149 -71.5t21 -223.5l-78 -440q-1 -4 -4.5 -25t-5 -32.5t-4.5 -35 t-3 -38.5t0.5 -36t5 -34t11 -26t18 -19t27.5 -6q32 0 67.5 29.5t72 87.5t69 160t51.5 231q15 105 17.5 199.5t-8.5 181.5t-39.5 157t-73 122t-111.5 80t-153 28q-122 0 -232.5 -58t-192.5 -157.5t-142.5 -228.5t-91.5 -274.5t-31 -291.5q0 -121 22.5 -225.5t67 -188 t118 -132t168.5 -48.5q43 0 86.5 10t75 23.5t57.5 27.5t39 24l13 10l41 -68q-5 -5 -15 -12t-42 -26.5t-66.5 -34t-86 -26.5t-102.5 -12q-112 0 -201 53.5t-145 147t-85 215t-29 262.5zM471 293q0 -73 31 -110.5t78 -37.5q95 0 231 162l37 221q-2 1 -31.5 11t-45.5 14.5 t-44 10t-51 5.5q-54 0 -95.5 -27t-64.5 -70t-34 -88.5t-11 -90.5z" />
<glyph unicode="A" horiz-adv-x="995" d="M-51 0l629 1434h135l123 -1434h-131l-25 373h-438l-154 -373h-139zM291 487h381l-51 797z" />
<glyph unicode="B" horiz-adv-x="997" d="M51 0l254 1434h299q157 0 240.5 -78.5t83.5 -212.5q0 -87 -28.5 -160t-72.5 -118t-89 -71.5t-87 -33.5q35 -9 67.5 -27t67 -51t55.5 -90t21 -129q0 -212 -117 -337.5t-321 -125.5h-373zM195 113h229q101 0 174.5 50.5t108 130t34.5 175.5q0 112 -64 170.5t-175 58.5h-203 zM317 809h191q37 0 77 12t79 37.5t70 61.5t50 89t19 115q0 90 -54 143.5t-167 53.5h-172z" />
<glyph unicode="C" horiz-adv-x="944" d="M113 487q0 272 70 494.5t191 348.5t267 126q54 0 104 -18t96 -55t76 -66.5t72 -77.5l-80 -84q-73 91 -136.5 135.5t-127.5 44.5q-80 0 -154.5 -67t-129.5 -180.5t-88 -272t-33 -332.5q0 -196 49 -290.5t133 -94.5q116 0 321 181l64 -97q-122 -96 -219.5 -150.5 t-190.5 -54.5q-132 0 -208 127t-76 383z" />
<glyph unicode="D" horiz-adv-x="1044" d="M51 0l254 1434h201q220 0 341.5 -119.5t121.5 -362.5q0 -203 -47 -377t-133.5 -302t-216.5 -200.5t-289 -72.5h-232zM195 117h90q119 0 221 57t176.5 162t117 262t42.5 348q0 371 -359 371h-75z" />
<glyph unicode="E" horiz-adv-x="882" d="M51 0l254 1434h621l-25 -117h-493l-95 -543h410l-21 -115h-409l-98 -542h510l-23 -117h-631z" />
<glyph unicode="F" horiz-adv-x="843" d="M51 0l254 1434h621l-25 -117h-493l-95 -543h398l-23 -117h-395l-119 -657h-123z" />
<glyph unicode="G" horiz-adv-x="1038" d="M113 469q0 179 28 336.5t77.5 275t115.5 203t145 129t164 43.5q55 0 108.5 -20.5t101.5 -59.5t80.5 -71.5t74.5 -81.5l-84 -82q-3 3 -19.5 22t-23 25.5t-23.5 25t-26.5 26.5t-27.5 24t-30 23.5t-30 18.5t-33 16t-33 9t-35 4q-106 0 -198.5 -112t-147.5 -309.5t-55 -432.5 q0 -181 45 -284t131 -103q41 0 89 22.5t93 59.5t78 69.5t63 67.5l62 342h-264l18 113h385l-135 -768h-121l31 176q-85 -91 -166 -145t-166 -54q-123 0 -197.5 124t-74.5 368z" />
<glyph unicode="H" horiz-adv-x="1052" d="M51 0l254 1434h123l-111 -625h484l110 625h123l-252 -1434h-125l123 694h-483l-123 -694h-123z" />
<glyph unicode="I" horiz-adv-x="446" d="M51 0l254 1434h123l-254 -1434h-123z" />
<glyph unicode="J" horiz-adv-x="446" d="M-141 -174q44 19 73.5 34t51.5 33.5t34 32t22 41t14 47t12 62.5l239 1358h123l-240 -1354q-24 -137 -44 -181q-31 -71 -112 -118q-54 -30 -149 -64z" />
<glyph unicode="K" horiz-adv-x="958" d="M51 0l254 1434h123l-139 -787l585 787h156l-524 -680l313 -754h-141l-254 645l-176 -227l-74 -418h-123z" />
<glyph unicode="L" horiz-adv-x="806" d="M51 0l254 1434h123l-233 -1317h487l-20 -117h-611z" />
<glyph unicode="M" horiz-adv-x="1230" d="M51 0l254 1434h133l144 -996l499 996h133l-253 -1434h-123l202 1145l-450 -905h-76l-133 929l-207 -1169h-123z" />
<glyph unicode="N" horiz-adv-x="1075" d="M51 0l254 1434h127l289 -1201l213 1201h123l-252 -1434h-129l-291 1198l-211 -1198h-123z" />
<glyph unicode="O" horiz-adv-x="1099" d="M109 428q0 28 3 72.5t11.5 114t21.5 143t35.5 157t51.5 159.5t71 146.5t92 122t117.5 82.5t144.5 31q57 0 106.5 -12t98.5 -43.5t84 -80.5t56.5 -129.5t21.5 -184.5q0 -28 -3 -72.5t-11.5 -114t-21.5 -143.5t-36 -157t-51.5 -159.5t-71 -147t-92.5 -122t-117.5 -82.5 t-144.5 -31q-56 0 -105.5 12t-98.5 43.5t-84 81t-56.5 130t-21.5 184.5zM236 424q0 -91 20.5 -157.5t56 -102.5t76.5 -53t88 -17q74 0 136.5 46.5t104.5 119.5t75.5 167.5t53 185.5t32 178t16.5 140.5t4 78.5q0 90 -21 156.5t-56.5 102.5t-76.5 53t-88 17q-74 0 -137 -46.5 t-105 -119.5t-75.5 -167.5t-52 -185t-31 -178t-16.5 -140.5t-4 -78z" />
<glyph unicode="P" horiz-adv-x="960" d="M51 0l254 1434h295q171 0 262.5 -78t91.5 -240q0 -262 -145 -402.5t-385 -140.5h-148l-102 -573h-123zM297 690h141q80 0 149 26t122.5 76t84.5 130t31 182q0 213 -235 213h-182z" />
<glyph unicode="Q" horiz-adv-x="1099" d="M109 428q0 28 3 72.5t11.5 114t21.5 143t35.5 157t51.5 159.5t71 146.5t92 122t117.5 82.5t144.5 31q57 0 106.5 -12t98.5 -43.5t84 -80.5t56.5 -129.5t21.5 -184.5q0 -35 -4 -91.5t-17 -145.5t-33 -179.5t-55 -189t-79.5 -178t-110.5 -142t-145 -86.5l143 -213l-102 -78 l-160 274q-55 2 -102.5 15t-94.5 45t-80.5 81.5t-54 128.5t-20.5 181zM236 424q0 -91 20.5 -157.5t56 -102.5t76.5 -53t88 -17q74 0 136.5 46.5t104.5 119.5t75.5 167.5t53 185.5t32 178t16.5 140.5t4 78.5q0 90 -21 156.5t-56.5 102.5t-76.5 53t-88 17q-74 0 -137 -46.5 t-105 -119.5t-75.5 -167.5t-52 -185t-31 -178t-16.5 -140.5t-4 -78z" />
<glyph unicode="R" horiz-adv-x="1013" d="M51 0l254 1434h330q171 0 263.5 -74t92.5 -225q0 -191 -97.5 -320.5t-260.5 -171.5l168 -643h-129l-154 625h-231l-113 -625h-123zM307 739h176q174 0 276.5 101.5t102.5 277.5q0 103 -64 152t-175 49h-213z" />
<glyph unicode="S" horiz-adv-x="901" d="M6 131l80 96q170 -133 299 -133q109 0 184.5 72t75.5 192q0 44 -13 85t-29.5 70t-50.5 65t-57 57t-69 59q-60 51 -95.5 86t-73.5 84.5t-55.5 104t-17.5 118.5q0 164 107 266.5t264 102.5q169 0 346 -119l-78 -96q-146 98 -268 98q-98 0 -169 -66t-71 -183 q0 -85 43.5 -144t153.5 -153q50 -44 81 -73t69.5 -73.5t60 -83.5t36.5 -91.5t15 -109.5q0 -173 -116 -279t-277 -106q-190 0 -375 154z" />
<glyph unicode="T" horiz-adv-x="819" d="M164 1317l22 117h738l-23 -117h-307l-232 -1317h-124l233 1317h-307z" />
<glyph unicode="U" horiz-adv-x="1038" d="M102 280q2 64 15 144l178 1010h125l-178 -1010q-9 -49 -12.5 -84.5t-3.5 -76t11 -68.5t31 -51.5t56.5 -35.5t87.5 -12q74 0 130 25t92.5 72t59 103t35.5 128l178 1010h123l-178 -1012q-18 -101 -49.5 -178.5t-83 -139.5t-130.5 -94.5t-183 -32.5q-85 0 -145.5 22.5 t-94.5 60.5q-34 39 -50 97q-14 53 -15 111q1 6 1 12z" />
<glyph unicode="V" horiz-adv-x="991" d="M190 1434h134l82 -1268l530 1268h141l-628 -1434h-136z" />
<glyph unicode="W" horiz-adv-x="1351" d="M205 1434h135l-10 -1209l428 1209h114l-2 -1207l414 1207h141l-520 -1434h-133l2 1188l-420 -1188h-131z" />
<glyph unicode="X" horiz-adv-x="907" d="M-57 0l463 715l-195 719h135l139 -609l355 609h147l-446 -717l213 -717h-138l-157 598l-363 -598h-153z" />
<glyph unicode="Y" horiz-adv-x="917" d="M180 1434h129l156 -742l409 742h142l-508 -863l-100 -571h-123l98 571z" />
<glyph unicode="Z" horiz-adv-x="894" d="M-37 0l21 109l788 1208h-545l21 117h700l-20 -107l-791 -1210h590l-20 -117h-744z" />
<glyph unicode="[" horiz-adv-x="532" d="M-2 -295l356 2013h310l-19 -100h-184l-322 -1813h187l-19 -100h-309z" />
<glyph unicode="\" horiz-adv-x="634" d="M215 1618h94l146 -1802h-95z" />
<glyph unicode="]" horiz-adv-x="530" d="M-98 -295l18 100h184l322 1813h-186l18 100h309l-356 -2013h-309z" />
<glyph unicode="^" horiz-adv-x="878" d="M137 725l391 709h123l140 -709h-121l-95 598l-303 -598h-135z" />
<glyph unicode="_" horiz-adv-x="1028" d="M-33 -279l19 103h776l-19 -103h-776z" />
<glyph unicode="`" horiz-adv-x="313" d="M258 1493h152l131 -262h-92z" />
<glyph unicode="a" horiz-adv-x="890" d="M68 305q0 205 47.5 385t138.5 294t205 114q39 0 74.5 -15.5t66 -47.5t49.5 -56t45 -64l29 160h119l-191 -1075h-119l31 178q-162 -201 -299 -201q-88 0 -142 82.5t-54 245.5zM190 324q0 -111 28.5 -173.5t84.5 -62.5q72 0 140 56.5t143 156.5l88 500q-39 81 -91 133.5 t-110 52.5q-82 0 -148.5 -106.5t-100.5 -257t-34 -299.5z" />
<glyph unicode="b" horiz-adv-x="884" d="M25 0l264 1493h117l-99 -565q148 170 271 170q98 0 158.5 -83.5t60.5 -246.5q0 -149 -27 -291t-75.5 -253.5t-121 -179t-157.5 -67.5q-41 0 -78.5 15.5t-69 44.5t-53 55.5t-45.5 61.5l-27 -154h-118zM190 272q40 -81 94.5 -132.5t114.5 -51.5q79 0 144 106.5t98 256.5 t33 299q0 112 -34 174.5t-101 62.5q-63 0 -122.5 -47t-131.5 -133z" />
<glyph unicode="c" horiz-adv-x="757" d="M66 375q0 165 36.5 305.5t95.5 229.5t131.5 138.5t145.5 49.5q24 0 49 -5.5t44 -12t42.5 -20.5t37 -22.5t34.5 -27t28.5 -25t26 -24.5t19.5 -19l-72 -80q-3 3 -23.5 24t-35.5 33.5t-38.5 30t-48.5 26.5t-49 9q-56 0 -110.5 -45.5t-97 -123.5t-69 -192t-26.5 -241 q0 -139 38.5 -216t111.5 -77q28 0 64.5 15.5t62 32t60 41.5t42.5 30l51 -92q-108 -77 -166 -104q-77 -36 -141 -36q-110 0 -176.5 106.5t-66.5 291.5z" />
<glyph unicode="d" horiz-adv-x="890" d="M68 305q0 205 47.5 385t138.5 294t205 114q39 0 74.5 -15.5t66 -47.5t49.5 -56t45 -64l103 578h118l-264 -1493h-119l31 178q-162 -201 -299 -201q-88 0 -142 82.5t-54 245.5zM190 324q0 -111 28.5 -173.5t84.5 -62.5q72 0 140 56.5t143 156.5l88 500q-39 81 -91 133.5 t-110 52.5q-82 0 -148.5 -106.5t-100.5 -257t-34 -299.5z" />
<glyph unicode="e" horiz-adv-x="817" d="M66 397q0 197 57 357t162.5 252t238.5 92q109 0 171.5 -64t62.5 -178q0 -171 -132 -279t-370 -108h-66q-2 -25 -2 -74q0 -311 156 -311q16 0 32 3t34 10t32.5 12.5t34.5 18t30.5 19t31.5 22t27 19.5t26.5 20t21.5 17l52 -88q-41 -35 -87 -66t-121 -62.5t-139 -31.5 q-118 0 -185.5 106t-67.5 314zM201 563h67q92 0 166 25t118.5 66.5t67.5 92t23 105.5q0 70 -36 105.5t-95 35.5q-113 0 -198 -119t-113 -311z" />
<glyph unicode="f" horiz-adv-x="526" d="M-162 -324q27 11 47.5 20.5t39 22t31 20t25 24.5t19.5 25t15 31.5t12 34.5t11 43.5t10 50t11 60.5l170 965h-102l23 102h98l33 180q20 122 65 180t121 58q94 0 227 -70l-59 -90q-104 47 -152 47q-62 0 -84 -123l-32 -182h196l-20 -102h-195l-170 -961 q-16 -91 -23.5 -130.5t-24.5 -92.5t-33.5 -74t-50.5 -50.5t-76 -48t-109 -42.5z" />
<glyph unicode="g" horiz-adv-x="892" d="M-35 -365l47 111q166 -76 273 -76q190 0 233 252l45 254q-156 -199 -299 -199q-88 0 -142 82.5t-54 245.5q0 204 48 384.5t139 294.5t204 114q39 0 75 -16t66 -46.5t50 -57t44 -63.5l29 160h117l-205 -1159q-18 -103 -50 -173.5t-77 -109t-96 -55t-115 -16.5 q-77 0 -167 20t-165 53zM190 324q0 -112 29 -174t86 -62q70 0 138.5 57t140.5 156l90 500q-39 81 -91 133.5t-110 52.5q-82 0 -148.5 -106.5t-100.5 -257t-34 -299.5z" />
<glyph unicode="h" d="M25 0l264 1493h117l-101 -571q36 33 66 57.5t76 55t94.5 47t95.5 16.5q101 0 141 -77q25 -48 25 -118q0 -43 -10 -94l-142 -809h-121l140 788q9 57 9 100q-1 43 -23 72t-68 29q-128 0 -305 -188l-140 -801h-118z" />
<glyph unicode="i" horiz-adv-x="385" d="M25 0l190 1075h117l-191 -1075h-116zM248 1309l33 178h131l-31 -178h-133z" />
<glyph unicode="j" horiz-adv-x="385" d="M-197 -322q44 19 74 34t51.5 34t33.5 33t22 42t14 48t12 63l203 1143h119l-203 -1138q-24 -137 -45 -183q-32 -73 -115 -119q-54 -30 -145 -61zM246 1309l33 178h131l-31 -178h-133z" />
<glyph unicode="k" horiz-adv-x="765" d="M25 0l264 1493h117l-173 -983l400 565h141l-334 -442l187 -633h-123l-146 526l-159 -211l-56 -315h-118z" />
<glyph unicode="l" horiz-adv-x="401" d="M33 0l264 1493h119l-264 -1493h-119z" />
<glyph unicode="m" horiz-adv-x="1323" d="M25 0l190 1075h117l-31 -168q164 191 303 191q84 0 122 -58t38 -143q164 201 313 201q100 0 137 -81q22 -49 23 -116q0 -43 -10 -94l-142 -807h-118l141 791q7 41 7 74q1 39 -9 69q-18 55 -78 55q-120 0 -278 -211l-138 -778h-116l139 791q10 40 10 75q1 34 -9 64 q-18 60 -81 59q-117 0 -274 -205l-138 -784h-118z" />
<glyph unicode="n" d="M25 0l190 1075h117l-27 -153q36 33 66 57.5t76 55t94.5 47t95.5 16.5q102 0 141 -80q24 -49 24 -120q0 -44 -9 -95l-142 -803h-119l140 788q9 59 9 100q0 42 -22 71q-23 30 -71 30q-75 0 -157.5 -59t-147.5 -131l-140 -799h-118z" />
<glyph unicode="o" d="M68 352q0 67 9.5 142.5t28.5 161.5t53.5 163t80 140.5t112.5 101t146 37.5q44 0 84 -10.5t79.5 -38t68.5 -69t47 -108t18 -151.5q0 -81 -12.5 -173t-44 -195.5t-78 -185.5t-123 -136t-170.5 -54q-56 0 -105.5 18.5t-94.5 59t-72 117t-27 180.5zM186 340 q0 -62 12.5 -109.5t31 -74.5t43.5 -44t47 -22.5t45 -5.5q72 0 129.5 55.5t90 135t54.5 175.5t29.5 166.5t7.5 118.5q0 77 -18 131t-47 79t-56.5 35.5t-56.5 10.5q-72 0 -129.5 -55.5t-90.5 -135t-55 -175.5t-29.5 -166.5t-7.5 -118.5z" />
<glyph unicode="p" horiz-adv-x="884" d="M-49 -418l264 1493h117l-27 -147q153 170 273 170q98 0 158.5 -83.5t60.5 -246.5q0 -149 -27 -291t-75.5 -253.5t-121 -179t-157.5 -67.5q-41 0 -78.5 15.5t-69 44.5t-53 55.5t-45.5 61.5l-100 -572h-119zM190 272q41 -82 94 -133t115 -51q80 0 145 106.5t97.5 256.5 t32.5 299q0 112 -34 174.5t-101 62.5q-63 0 -122.5 -47t-131.5 -133z" />
<glyph unicode="q" horiz-adv-x="890" d="M68 305q0 205 47.5 385t138.5 294t205 114q39 0 74.5 -15.5t66 -47.5t49.5 -56t45 -64l29 160h119l-264 -1493h-119l104 596q-162 -201 -299 -201q-88 0 -142 82.5t-54 245.5zM190 324q0 -111 28.5 -173.5t84.5 -62.5q72 0 140 56.5t143 156.5l88 500q-39 81 -91 133.5 t-110 52.5q-82 0 -148.5 -106.5t-100.5 -257t-34 -299.5z" />
<glyph unicode="r" horiz-adv-x="567" d="M25 0l190 1075h117l-39 -231q10 20 21.5 41t43 63.5t65 72t85.5 51.5q40 17 81 16q11 0 23 -1l-24 -122q-48 0 -92.5 -19t-77 -49t-61 -66.5t-47 -73t-31.5 -66.5t-19 -49l-6 -19l-111 -623h-118z" />
<glyph unicode="s" horiz-adv-x="755" d="M-6 113l72 86q138 -115 245 -115q75 0 131 48t56 142q0 39 -10.5 70t-38 61t-49 47.5t-70.5 53.5q-51 37 -80 62t-62.5 64t-49 83.5t-15.5 99.5q0 129 85 206t210 77q84 0 161 -34.5t130 -80.5l-70 -84q-115 92 -219 92q-70 0 -122 -43t-52 -125q0 -41 13 -75.5 t41.5 -63.5t46.5 -43.5t54 -38.5q110 -78 166 -152t56 -178q0 -135 -90 -215t-216 -80q-161 0 -323 136z" />
<glyph unicode="t" horiz-adv-x="555" d="M92 229l131 744h-102l16 102h105l49 271l125 40l-56 -311h201l-18 -102h-201l-133 -760q-5 -30 -5 -52q0 -71 50 -71q40 0 141 55l33 -98q-130 -70 -215 -70q-69 -1 -107 57q-23 35 -23 100q0 42 9 95z" />
<glyph unicode="u" horiz-adv-x="884" d="M66 270l141 805h119l-142 -788q-8 -44 -7 -79q0 -122 93 -122q73 0 156.5 58t146.5 126l142 805h119l-191 -1075h-117l27 154q-98 -85 -152 -118q-96 -59 -180 -59q-103 1 -141 79q-24 48 -23 118q0 44 9 96z" />
<glyph unicode="v" horiz-adv-x="806" d="M131 1075h123l59 -919l385 919h133l-483 -1075h-117z" />
<glyph unicode="w" horiz-adv-x="1171" d="M141 1075h123l10 -889l338 889h103l20 -880l322 880h129l-418 -1075h-117l-22 868l-332 -868h-117z" />
<glyph unicode="x" horiz-adv-x="831" d="M-68 0l402 539l-197 536h133l142 -444l299 444h147l-387 -532l211 -543h-133l-152 457l-311 -457h-154z" />
<glyph unicode="y" horiz-adv-x="804" d="M-53 -315q116 53 173.5 110.5t112.5 177.5l-102 1102h123l61 -909l385 909h131l-479 -1075q-80 -176 -117 -233q-59 -89 -157 -144q-44 -24 -105 -49z" />
<glyph unicode="z" horiz-adv-x="741" d="M-37 0l21 104l604 861h-445l25 110h577l-20 -104l-602 -860h457l-25 -111h-592z" />
<glyph unicode="{" horiz-adv-x="591" d="M72 647l22 131q46 -1 81.5 24.5t55 68t30 83t13.5 82.5l17 193q21 236 114 362.5t279 126.5h41l-18 -100h-27q-228 0 -258 -361l-19 -198q-13 -152 -68 -236.5t-153 -111.5q169 -61 101 -349l-47 -188q-14 -56 -21 -95t-11.5 -85t2.5 -76.5t23 -57.5t49.5 -40t81.5 -13 h25l-16 -100h-29q-171 0 -230 132t1 362l49 188q27 99 20.5 156.5t-32.5 79.5t-76 22z" />
<glyph unicode="|" horiz-adv-x="415" d="M6 -252l342 1927h94l-342 -1927h-94z" />
<glyph unicode="}" horiz-adv-x="591" d="M-98 -293l18 100h27q228 0 258 361l18 199q13 152 68 236.5t153 111.5q-168 60 -100 348l47 188q14 56 21 95t11.5 85t-2.5 76.5t-23.5 57.5t-50 40t-81.5 13h-24l16 100h29q171 0 230 -131.5t-1 -361.5l-49 -189q-27 -99 -20.5 -156.5t32.5 -79.5t76 -22l-23 -131 q-46 1 -81.5 -24.5t-55 -68t-30 -83t-13.5 -82.5l-16 -192q-21 -236 -114 -363t-279 -127h-41z" />
<glyph unicode="~" horiz-adv-x="880" d="M31 475q59 115 119 167t129 52q47 0 92 -24t75 -52.5t69.5 -52.5t76.5 -24t74 30t84 113l77 -43q-60 -116 -119.5 -166.5t-127.5 -50.5q-39 0 -75.5 15.5t-65 37.5t-55.5 44.5t-57.5 38t-60.5 15.5q-37 0 -73 -29.5t-82 -113.5z" />
<glyph unicode="&#xa1;" horiz-adv-x="460" d="M51 0l213 1016h74l-141 -1016h-146zM266 1223l39 211h137l-36 -211h-140z" />
<glyph unicode="&#xa2;" horiz-adv-x="825" d="M115 555q0 133 24 250t64.5 202t92.5 147t109.5 92.5t114.5 31.5l29 156h94l-31 -172q26 -10 51 -24t50 -35t38 -32t38.5 -36t27.5 -27l-74 -78l-34 34t-58.5 52.5t-58.5 36.5l-154 -870q21 8 43.5 19.5t45.5 26.5t38 25.5t36.5 27t25.5 19.5l53 -94q-2 -1 -22.5 -16.5 t-28 -20.5t-29 -19.5t-33.5 -21.5t-34 -19t-38 -19t-37 -14.5t-40 -12.5l-29 -164h-94l29 160q-96 15 -152.5 119.5t-56.5 275.5zM233 563q0 -245 111 -287l156 883q-107 -27 -187 -195t-80 -401z" />
<glyph unicode="&#xa3;" horiz-adv-x="817" d="M0 0l16 98l22 22t50.5 60t67.5 94t62.5 120t45.5 143h-153l18 100h145v8q0 71 -26.5 215.5t-26.5 218.5q0 169 88.5 273t231.5 104q51 0 97 -12.5t88.5 -39.5t64 -43.5t59.5 -49.5l-76 -82q-66 55 -118.5 82.5t-104.5 27.5q-83 0 -146 -70.5t-63 -199.5q0 -62 26.5 -199 t26.5 -219v-14h228l-19 -100h-219q-13 -75 -40.5 -146.5t-60.5 -126t-58 -88.5t-48 -59h447l-21 -117h-604z" />
<glyph unicode="&#xa5;" horiz-adv-x="958" d="M100 358l21 99h266l21 114l-11 45h-250l17 99h209l-168 719h129l155 -742l410 742h141l-424 -719h211l-18 -99h-250l-27 -45l-20 -114h270l-18 -99h-270l-62 -358h-123l62 358h-271z" />
<glyph unicode="&#xa6;" horiz-adv-x="417" d="M6 -252l150 846h94l-150 -846h-94zM199 829l149 846h94l-149 -846h-94z" />
<glyph unicode="&#xa7;" horiz-adv-x="823" d="M23 -33l71 86q111 -92 219 -92q70 0 122 42t52 124q0 34 -11.5 64.5t-23.5 49.5t-40 43t-39 32t-43 30q-110 76 -164.5 152.5t-54.5 173.5q0 106 62.5 175.5t162.5 90.5q-55 49 -83 103.5t-28 127.5q0 131 86 209t209 78q84 0 161 -34.5t130 -80.5l-70 -84 q-48 40 -106.5 66.5t-112.5 26.5q-70 0 -122 -43t-52 -125q0 -41 13.5 -75.5t43 -64t47 -42.5t54.5 -39q110 -77 164.5 -150t54.5 -172q0 -108 -62.5 -177.5t-164.5 -92.5q110 -100 110 -232q0 -129 -85 -206.5t-208 -77.5q-84 0 -160.5 34t-131.5 80zM231 680 q0 -31 8.5 -58t19 -45.5t35.5 -42.5t42 -37t54 -41q11 -8 16 -12l12 -10q77 7 131.5 55.5t54.5 137.5q0 38 -10 68.5t-34.5 57.5t-47 46t-65.5 51q-3 2 -4.5 3.5t-4.5 3.5t-5.5 3.5t-4.5 3.5l-12 8q-76 -5 -130.5 -54t-54.5 -138z" />
<glyph unicode="&#xa8;" horiz-adv-x="335" d="M211 1251l33 176h116l-30 -176h-119zM451 1251l30 176h117l-31 -176h-116z" />
<glyph unicode="&#xa9;" horiz-adv-x="1662" d="M119 641q0 131 32.5 251.5t98 223t158 178.5t219 119t274.5 43q206 0 360.5 -84.5t235 -234.5t80.5 -344q0 -131 -32.5 -251.5t-98.5 -223.5t-158 -179t-219.5 -119t-275.5 -43q-309 0 -491.5 184t-182.5 480zM195 643q0 -262 162.5 -427t443.5 -165q161 0 294.5 59 t221.5 160t136 235.5t48 285.5q0 128 -41.5 236.5t-117.5 187t-191 123t-256 44.5q-129 0 -241.5 -38t-195.5 -106t-143 -160.5t-90 -203t-30 -231.5zM469 618q-5 126 27 230.5t90 172t134.5 104t162.5 36.5q54 0 104.5 -12.5t94 -37t69 -42t59.5 -45.5l-55 -59 q-134 118 -272 118q-143 0 -237 -131t-87 -329q5 -127 59 -200t144 -73q154 0 317 115l45 -68q-53 -35 -95 -58t-115 -46t-144 -23q-126 0 -210.5 91.5t-90.5 256.5z" />
<glyph unicode="&#xaa;" horiz-adv-x="657" d="M174 979q0 121 29.5 227.5t86.5 174t128 67.5q73 0 145 -105l17 91h92l-115 -646h-90l16 101q-98 -115 -182 -115q-56 0 -91.5 52t-35.5 153zM268 991q0 -62 18 -97.5t50 -35.5q74 0 164 121l49 281q-53 104 -117 104q-47 0 -86 -60t-58.5 -144.5t-19.5 -168.5z" />
<glyph unicode="&#xab;" horiz-adv-x="983" d="M51 535l15 88l505 460l-30 -168l-387 -350l266 -346l-27 -145zM446 535l15 88l506 460l-31 -168l-387 -350l266 -346l-27 -145z" />
<glyph unicode="&#xac;" horiz-adv-x="880" d="M35 629l18 106h803l-98 -551h-109l80 445h-694z" />
<glyph unicode="&#xad;" horiz-adv-x="655" d="M113 526l20 113h397l-18 -113h-399z" />
<glyph unicode="&#xae;" horiz-adv-x="868" d="M170 1104q0 156 96 263.5t262 107.5q141 0 225.5 -85t84.5 -221q0 -155 -96.5 -262.5t-262.5 -107.5q-141 0 -225 84.5t-84 220.5zM233 1104q0 -107 67 -176.5t183 -69.5q134 0 214.5 88.5t80.5 220.5q0 108 -69 177t-185 69q-134 0 -212.5 -88.5t-78.5 -220.5zM350 971 l62 340h149q48 0 76.5 -25t28.5 -63q0 -43 -30 -71t-77 -34l55 -147h-59l-53 145h-64l-26 -145h-62zM446 1167h84q38 0 57 15.5t19 40.5q0 32 -47 32h-98z" />
<glyph unicode="&#xaf;" horiz-adv-x="415" d="M231 1282l19 94h409l-18 -94h-410z" />
<glyph unicode="&#xb0;" horiz-adv-x="741" d="M174 1155q0 115 81.5 197t195.5 82q115 0 196.5 -81.5t81.5 -197.5q0 -114 -81.5 -195t-196.5 -81q-114 0 -195.5 81t-81.5 195zM264 1155q0 -76 54 -130t131 -54q78 0 133 54.5t55 129.5q0 78 -55 133t-133 55q-77 0 -131 -55t-54 -133z" />
<glyph unicode="&#xb1;" horiz-adv-x="880" d="M-18 0l18 100h700l-18 -100h-700zM92 625l19 106h297l55 311h100l-55 -311h303l-20 -106h-302l-53 -314h-104l55 314h-295z" />
<glyph unicode="&#xb2;" horiz-adv-x="575" d="M98 788l13 68q11 66 32.5 118t63 99.5t63 68t80.5 68.5q3 3 5 4.5t5 4t5 4.5q92 76 138 132.5t46 119.5q2 42 -22.5 70t-73.5 28q-78 0 -164 -66l-37 74q105 82 213 82q83 0 131.5 -47t48.5 -131q0 -36 -8.5 -70t-28 -66.5t-35.5 -56t-48 -54t-46.5 -44t-50 -42.5 t-41.5 -34q-73 -61 -111 -114.5t-51 -126.5h318l-15 -89h-430z" />
<glyph unicode="&#xb3;" horiz-adv-x="581" d="M102 860l58 70q27 -20 45 -31.5t48.5 -23t61.5 -11.5q72 0 121 54.5t49 134.5q0 79 -50 119t-120 40h-14l16 91h23q68 0 130 55t62 127q0 42 -24.5 65t-67.5 23q-71 0 -153 -60l-35 72q117 78 211 78q79 0 122.5 -45.5t43.5 -114.5q0 -71 -46 -138t-130 -105 q57 -19 93 -74.5t36 -132.5q0 -70 -29.5 -132.5t-91.5 -104.5t-144 -42q-117 0 -215 86z" />
<glyph unicode="&#xb4;" horiz-adv-x="313" d="M207 1231l211 262h170l-275 -262h-106z" />
<glyph unicode="&#xb5;" horiz-adv-x="956" d="M-20 -418l264 1493h118l-141 -788q-34 -201 86 -201q73 0 156.5 58t146.5 126l142 805h118l-190 -1075h-117l27 154q-98 -85 -152 -118q-96 -59 -180 -59q-47 0 -88 23l-74 -418h-116z" />
<glyph unicode="&#xb6;" horiz-adv-x="950" d="M123 909q0 147 51 265.5t151 189t232 70.5h102l-321 -1813h-102l170 961q-133 0 -208 85.5t-75 241.5zM494 -379l321 1813h107l-322 -1813h-106z" />
<glyph unicode="&#xb7;" horiz-adv-x="391" d="M102 475l39 217h138l-39 -217h-138z" />
<glyph unicode="&#xb8;" horiz-adv-x="241" d="M-57 -307l45 84q34 -27 69 -27q37 0 65 32.5t28 100.5q0 26 -4 56.5t-8 47.5l-3 17h58q28 -63 28 -145q0 -91 -46 -147t-122 -56q-64 0 -110 37z" />
<glyph unicode="&#xb9;" horiz-adv-x="440" d="M199 1534l174 115h88l-154 -861h-94l131 748l-108 -70z" />
<glyph unicode="&#xba;" horiz-adv-x="647" d="M176 1010q0 64 14 134.5t43 141.5t84.5 116.5t128.5 45.5q37 0 70 -12.5t62 -38.5t46 -73.5t17 -111.5q0 -50 -7.5 -105t-27.5 -115.5t-48.5 -108t-76 -78.5t-106.5 -31q-38 0 -71.5 12t-63 38t-47 73.5t-17.5 112.5zM266 1004q0 -43 10.5 -74.5t27.5 -46t33.5 -21 t33.5 -6.5q51 0 89.5 44.5t56.5 109.5t26 118t8 91q0 43 -10.5 74t-27.5 46t-33.5 21t-33.5 6q-51 0 -89 -44.5t-56 -109t-26.5 -118t-8.5 -90.5z" />
<glyph unicode="&#xbb;" horiz-adv-x="985" d="M6 72l31 168l387 350l-266 346l26 145l342 -460l-14 -89zM401 72l31 168l387 350l-266 346l27 145l342 -460l-15 -89z" />
<glyph unicode="&#xbc;" horiz-adv-x="1165" d="M129 0l715 1434h98l-715 -1434h-98zM172 1319l174 115h88l-153 -861h-95l131 748l-108 -70zM512 190l14 78l392 592h126l-102 -581h92l-16 -89h-92l-33 -190h-92l33 190h-322zM621 279h229l82 471z" />
<glyph unicode="&#xbd;" horiz-adv-x="1206" d="M129 0l715 1434h98l-715 -1434h-98zM172 1319l174 115h88l-153 -861h-95l131 748l-108 -70zM575 0l13 68q11 65 33.5 118t60.5 97.5t64.5 69.5t78.5 67q11 9 17 14q92 76 138 132.5t46 119.5q2 42 -22.5 70t-73.5 28q-80 0 -164 -65l-37 74q104 81 213 81q83 0 131.5 -47 t48.5 -131q0 -32 -8 -63t-19 -56.5t-31.5 -53.5t-36.5 -46.5t-42.5 -43.5t-41.5 -38t-42.5 -35t-36.5 -30q-72 -61 -110.5 -115t-51.5 -127h318l-14 -88h-431z" />
<glyph unicode="&#xbe;" horiz-adv-x="1331" d="M84 645l57 70q87 -66 156 -66q72 0 121 54.5t49 134.5q0 79 -50 119t-120 40h-14l16 90h23q68 0 130 55.5t62 127.5q0 42 -24.5 65t-67.5 23q-72 0 -154 -60l-35 72q117 78 211 78q79 0 122.5 -45.5t43.5 -114.5q0 -71 -46 -138.5t-130 -105.5q57 -19 93 -74t36 -132 q0 -52 -17.5 -101t-49.5 -89t-83.5 -64.5t-113.5 -24.5q-117 0 -215 86zM299 0l715 1434h98l-715 -1434h-98zM682 190l14 78l391 592h127l-102 -581h92l-16 -89h-92l-33 -190h-92l33 190h-322zM791 279h229l82 471z" />
<glyph unicode="&#xbf;" horiz-adv-x="735" d="M16 240q0 67 24.5 129t61.5 108t89.5 88.5t99.5 70t100 52.5l70 328h84l-56 -402q-346 -153 -346 -358q0 -76 44 -119t114 -43q103 0 238 101l55 -89q-62 -52 -144 -90.5t-169 -38.5q-113 0 -189 69t-76 194zM469 1223l37 211h137l-37 -211h-137z" />
<glyph unicode="&#xc0;" horiz-adv-x="995" d="M-51 0l629 1434h135l123 -1434h-131l-25 373h-438l-154 -373h-139zM291 487h381l-51 797zM489 1802h152l131 -262h-92z" />
<glyph unicode="&#xc1;" horiz-adv-x="995" d="M-51 0l629 1434h135l123 -1434h-131l-25 373h-438l-154 -373h-139zM291 487h381l-51 797zM555 1540l211 262h170l-274 -262h-107z" />
<glyph unicode="&#xc2;" horiz-adv-x="993" d="M-51 0l629 1434h135l123 -1434h-131l-25 373h-438l-154 -373h-139zM291 487h381l-51 797zM459 1540l184 262h137l90 -262h-79l-89 184l-149 -184h-94z" />
<glyph unicode="&#xc3;" horiz-adv-x="995" d="M-51 0l629 1434h135l123 -1434h-131l-25 373h-438l-154 -373h-139zM291 487h381l-51 797zM459 1610q42 78 74 111.5t75 33.5q24 0 48 -15.5t40 -34.5t35.5 -34.5t34.5 -15.5q16 0 35.5 19t50.5 75l57 -45q-43 -79 -74 -112t-75 -33q-25 0 -49 15.5t-40 34.5t-35 34.5 t-34 15.5q-17 0 -35 -17.5t-51 -74.5z" />
<glyph unicode="&#xc4;" horiz-adv-x="993" d="M-51 0l629 1434h135l123 -1434h-131l-25 373h-438l-154 -373h-139zM291 487h381l-51 797zM489 1561l33 176h117l-31 -176h-119zM729 1561l31 176h117l-31 -176h-117z" />
<glyph unicode="&#xc5;" horiz-adv-x="1005" d="M-49 0l629 1434h135l123 -1434h-131l-25 373h-438l-154 -373h-139zM293 487h381l-51 797zM500 1702q0 76 52 129t128 53t129 -53.5t53 -128.5q0 -76 -53 -129t-129 -53t-128 52.5t-52 129.5zM575 1702q0 -44 30.5 -74.5t74.5 -30.5t75 30.5t31 74.5t-31 75t-75 31 t-74.5 -31t-30.5 -75z" />
<glyph unicode="&#xc6;" horiz-adv-x="1441" d="M-100 0l921 1434h664l-25 -117h-493l-95 -543h410l-20 -115h-410l-98 -542h510l-23 -117h-631l66 373h-387l-234 -373h-155zM360 487h336l131 746z" />
<glyph unicode="&#xc7;" horiz-adv-x="944" d="M113 487q0 272 70 494.5t191 348.5t267 126q54 0 104 -18t96 -55t76 -66.5t72 -77.5l-80 -84q-73 91 -136.5 135.5t-127.5 44.5q-80 0 -154.5 -67t-129.5 -180.5t-88 -272t-33 -332.5q0 -196 49 -290.5t133 -94.5q116 0 321 181l64 -97q-108 -85 -197.5 -137t-175.5 -63 q21 -66 21 -123q0 -91 -46 -147t-122 -56q-65 0 -111 37l45 84q34 -27 70 -27q37 0 64.5 32.5t27.5 100.5q0 35 -10 97q-122 11 -191 137t-69 370z" />
<glyph unicode="&#xc8;" horiz-adv-x="882" d="M51 0l254 1434h621l-25 -117h-493l-95 -543h410l-21 -115h-409l-98 -542h510l-23 -117h-631zM465 1802h151l132 -262h-93z" />
<glyph unicode="&#xc9;" horiz-adv-x="882" d="M51 0l254 1434h621l-25 -117h-493l-95 -543h410l-21 -115h-409l-98 -542h510l-23 -117h-631zM524 1540l211 262h170l-274 -262h-107z" />
<glyph unicode="&#xca;" horiz-adv-x="882" d="M51 0l254 1434h621l-25 -117h-493l-95 -543h410l-21 -115h-409l-98 -542h510l-23 -117h-631zM432 1540l184 262h138l90 -262h-80l-88 184l-150 -184h-94z" />
<glyph unicode="&#xcb;" horiz-adv-x="882" d="M51 0l254 1434h621l-25 -117h-493l-95 -543h410l-21 -115h-409l-98 -542h510l-23 -117h-631zM467 1561l33 176h116l-30 -176h-119zM707 1561l30 176h117l-31 -176h-116z" />
<glyph unicode="&#xcc;" horiz-adv-x="448" d="M51 0l254 1434h123l-254 -1434h-123zM215 1802h152l131 -262h-92z" />
<glyph unicode="&#xcd;" horiz-adv-x="446" d="M51 0l254 1434h123l-254 -1434h-123zM272 1540l211 262h170l-274 -262h-107z" />
<glyph unicode="&#xce;" horiz-adv-x="446" d="M51 0l254 1434h123l-254 -1434h-123zM178 1540l184 262h138l90 -262h-80l-88 184l-150 -184h-94z" />
<glyph unicode="&#xcf;" horiz-adv-x="448" d="M51 0l254 1434h123l-254 -1434h-123zM213 1561l33 176h116l-30 -176h-119zM453 1561l30 176h117l-31 -176h-116z" />
<glyph unicode="&#xd0;" horiz-adv-x="1056" d="M63 0l117 662h-104l18 110h105l118 662h201q220 0 341.5 -119.5t121.5 -362.5q0 -203 -47 -377t-133.5 -302t-216.5 -200.5t-289 -72.5h-232zM207 117h90q119 0 221 57t176.5 162t117 262t42.5 348q0 371 -358 371h-76l-98 -545h237l-18 -110h-238z" />
<glyph unicode="&#xd1;" horiz-adv-x="1075" d="M51 0l254 1434h127l289 -1201l213 1201h123l-252 -1434h-129l-291 1198l-211 -1198h-123zM504 1610q42 78 74 111.5t75 33.5q24 0 48 -15.5t40 -34.5t35.5 -34.5t34.5 -15.5q16 0 35.5 19t50.5 75l57 -45q-43 -79 -74 -112t-75 -33q-25 0 -49 15.5t-40 34.5t-35 34.5 t-34 15.5q-17 0 -35 -17.5t-51 -74.5z" />
<glyph unicode="&#xd2;" horiz-adv-x="1099" d="M109 428q0 28 3 72.5t11.5 114t21.5 143t35.5 157t51.5 159.5t71 146.5t92 122t117.5 82.5t144.5 31q57 0 106.5 -12t98.5 -43.5t84 -80.5t56.5 -129.5t21.5 -184.5q0 -28 -3 -72.5t-11.5 -114t-21.5 -143.5t-36 -157t-51.5 -159.5t-71 -147t-92.5 -122t-117.5 -82.5 t-144.5 -31q-56 0 -105.5 12t-98.5 43.5t-84 81t-56.5 130t-21.5 184.5zM236 424q0 -91 20.5 -157.5t56 -102.5t76.5 -53t88 -17q74 0 136.5 46.5t104.5 119.5t75.5 167.5t53 185.5t32 178t16.5 140.5t4 78.5q0 90 -21 156.5t-56.5 102.5t-76.5 53t-88 17q-74 0 -137 -46.5 t-105 -119.5t-75.5 -167.5t-52 -185t-31 -178t-16.5 -140.5t-4 -78zM539 1802h151l131 -262h-92z" />
<glyph unicode="&#xd3;" horiz-adv-x="1099" d="M109 428q0 28 3 72.5t11.5 114t21.5 143t35.5 157t51.5 159.5t71 146.5t92 122t117.5 82.5t144.5 31q57 0 106.5 -12t98.5 -43.5t84 -80.5t56.5 -129.5t21.5 -184.5q0 -28 -3 -72.5t-11.5 -114t-21.5 -143.5t-36 -157t-51.5 -159.5t-71 -147t-92.5 -122t-117.5 -82.5 t-144.5 -31q-56 0 -105.5 12t-98.5 43.5t-84 81t-56.5 130t-21.5 184.5zM236 424q0 -91 20.5 -157.5t56 -102.5t76.5 -53t88 -17q74 0 136.5 46.5t104.5 119.5t75.5 167.5t53 185.5t32 178t16.5 140.5t4 78.5q0 90 -21 156.5t-56.5 102.5t-76.5 53t-88 17q-74 0 -137 -46.5 t-105 -119.5t-75.5 -167.5t-52 -185t-31 -178t-16.5 -140.5t-4 -78zM600 1540l211 262h170l-274 -262h-107z" />
<glyph unicode="&#xd4;" horiz-adv-x="1099" d="M109 428q0 28 3 72.5t11.5 114t21.5 143t35.5 157t51.5 159.5t71 146.5t92 122t117.5 82.5t144.5 31q57 0 106.5 -12t98.5 -43.5t84 -80.5t56.5 -129.5t21.5 -184.5q0 -28 -3 -72.5t-11.5 -114t-21.5 -143.5t-36 -157t-51.5 -159.5t-71 -147t-92.5 -122t-117.5 -82.5 t-144.5 -31q-56 0 -105.5 12t-98.5 43.5t-84 81t-56.5 130t-21.5 184.5zM236 424q0 -91 20.5 -157.5t56 -102.5t76.5 -53t88 -17q74 0 136.5 46.5t104.5 119.5t75.5 167.5t53 185.5t32 178t16.5 140.5t4 78.5q0 90 -21 156.5t-56.5 102.5t-76.5 53t-88 17q-74 0 -137 -46.5 t-105 -119.5t-75.5 -167.5t-52 -185t-31 -178t-16.5 -140.5t-4 -78zM508 1540l184 262h137l91 -262h-80l-88 184l-150 -184h-94z" />
<glyph unicode="&#xd5;" horiz-adv-x="1099" d="M109 428q0 28 3 72.5t11.5 114t21.5 143t35.5 157t51.5 159.5t71 146.5t92 122t117.5 82.5t144.5 31q57 0 106.5 -12t98.5 -43.5t84 -80.5t56.5 -129.5t21.5 -184.5q0 -28 -3 -72.5t-11.5 -114t-21.5 -143.5t-36 -157t-51.5 -159.5t-71 -147t-92.5 -122t-117.5 -82.5 t-144.5 -31q-56 0 -105.5 12t-98.5 43.5t-84 81t-56.5 130t-21.5 184.5zM236 424q0 -91 20.5 -157.5t56 -102.5t76.5 -53t88 -17q74 0 136.5 46.5t104.5 119.5t75.5 167.5t53 185.5t32 178t16.5 140.5t4 78.5q0 90 -21 156.5t-56.5 102.5t-76.5 53t-88 17q-74 0 -137 -46.5 t-105 -119.5t-75.5 -167.5t-52 -185t-31 -178t-16.5 -140.5t-4 -78zM506 1610q42 78 74 111.5t75 33.5q24 0 48 -15.5t40 -34.5t35.5 -34.5t34.5 -15.5q16 0 35.5 19t50.5 75l57 -45q-43 -79 -74 -112t-75 -33q-25 0 -49 15.5t-40 34.5t-35 34.5t-34 15.5q-17 0 -35 -17.5 t-51 -74.5z" />
<glyph unicode="&#xd6;" horiz-adv-x="1099" d="M109 428q0 28 3 72.5t11.5 114t21.5 143t35.5 157t51.5 159.5t71 146.5t92 122t117.5 82.5t144.5 31q57 0 106.5 -12t98.5 -43.5t84 -80.5t56.5 -129.5t21.5 -184.5q0 -28 -3 -72.5t-11.5 -114t-21.5 -143.5t-36 -157t-51.5 -159.5t-71 -147t-92.5 -122t-117.5 -82.5 t-144.5 -31q-56 0 -105.5 12t-98.5 43.5t-84 81t-56.5 130t-21.5 184.5zM236 424q0 -91 20.5 -157.5t56 -102.5t76.5 -53t88 -17q74 0 136.5 46.5t104.5 119.5t75.5 167.5t53 185.5t32 178t16.5 140.5t4 78.5q0 90 -21 156.5t-56.5 102.5t-76.5 53t-88 17q-74 0 -137 -46.5 t-105 -119.5t-75.5 -167.5t-52 -185t-31 -178t-16.5 -140.5t-4 -78zM541 1561l32 176h117l-31 -176h-118zM780 1561l31 176h117l-31 -176h-117z" />
<glyph unicode="&#xd7;" d="M115 403l274 289l-174 293l88 53l158 -270l254 268l76 -69l-275 -291l174 -293l-88 -49l-158 266l-254 -268z" />
<glyph unicode="&#xd8;" horiz-adv-x="1097" d="M27 0l125 182q-41 96 -41 246q0 28 3 72.5t11.5 114t21.5 143t35.5 157t51.5 159.5t71 146.5t92 122t117.5 82.5t144.5 31q180 0 277 -121l68 99h102l-123 -181q43 -100 43 -247q0 -28 -3 -72.5t-11.5 -114t-21.5 -143.5t-36 -157t-51.5 -159.5t-71 -147t-92.5 -122 t-117.5 -82.5t-144.5 -31q-184 0 -278 123l-68 -100h-104zM238 424q0 -61 8 -102l612 897q-64 120 -199 120q-74 0 -137 -46.5t-105 -119.5t-75.5 -167.5t-52 -185t-31 -178t-16.5 -140.5t-4 -78zM279 217q61 -123 200 -123q74 0 136.5 46.5t104.5 119.5t75.5 167.5 t53 185.5t32 178t16.5 140.5t4 78.5q0 53 -10 108z" />
<glyph unicode="&#xd9;" horiz-adv-x="1038" d="M101.5 279.5q1.5 64.5 15.5 144.5l178 1010h125l-178 -1010q-9 -49 -12.5 -84.5t-3.5 -76t11 -68.5t31 -51.5t56.5 -35.5t87.5 -12q74 0 130 25t92.5 72t59 103t35.5 128l178 1010h123l-178 -1012q-18 -101 -49.5 -178.5t-83 -139.5t-130.5 -94.5t-183 -32.5 q-85 0 -145.5 22.5t-95 61t-50 96.5t-14 122.5zM510 1802h152l131 -262h-93z" />
<glyph unicode="&#xda;" horiz-adv-x="1038" d="M101.5 279.5q1.5 64.5 15.5 144.5l178 1010h125l-178 -1010q-9 -49 -12.5 -84.5t-3.5 -76t11 -68.5t31 -51.5t56.5 -35.5t87.5 -12q74 0 130 25t92.5 72t59 103t35.5 128l178 1010h123l-178 -1012q-18 -101 -49.5 -178.5t-83 -139.5t-130.5 -94.5t-183 -32.5 q-85 0 -145.5 22.5t-95 61t-50 96.5t-14 122.5zM569 1540l211 262h170l-274 -262h-107z" />
<glyph unicode="&#xdb;" horiz-adv-x="1038" d="M101.5 279.5q1.5 64.5 15.5 144.5l178 1010h125l-178 -1010q-9 -49 -12.5 -84.5t-3.5 -76t11 -68.5t31 -51.5t56.5 -35.5t87.5 -12q74 0 130 25t92.5 72t59 103t35.5 128l178 1010h123l-178 -1012q-18 -101 -49.5 -178.5t-83 -139.5t-130.5 -94.5t-183 -32.5 q-85 0 -145.5 22.5t-95 61t-50 96.5t-14 122.5zM475 1540l184 262h138l90 -262h-80l-88 184l-150 -184h-94z" />
<glyph unicode="&#xdc;" horiz-adv-x="1038" d="M101.5 279.5q1.5 64.5 15.5 144.5l178 1010h125l-178 -1010q-9 -49 -12.5 -84.5t-3.5 -76t11 -68.5t31 -51.5t56.5 -35.5t87.5 -12q74 0 130 25t92.5 72t59 103t35.5 128l178 1010h123l-178 -1012q-18 -101 -49.5 -178.5t-83 -139.5t-130.5 -94.5t-183 -32.5 q-85 0 -145.5 22.5t-95 61t-50 96.5t-14 122.5zM510 1561l33 176h116l-30 -176h-119zM750 1561l30 176h117l-31 -176h-116z" />
<glyph unicode="&#xdd;" horiz-adv-x="917" d="M180 1434h129l156 -742l409 742h142l-508 -863l-100 -571h-123l98 571zM504 1540l211 262h170l-275 -262h-106z" />
<glyph unicode="&#xde;" horiz-adv-x="970" d="M51 0l254 1434h123l-45 -265h172q354 0 354 -317q0 -263 -144.5 -403t-383.5 -140h-150l-57 -309h-123zM252 426h141q80 0 150 26t123.5 76t84.5 130t31 182q0 213 -235 213h-185z" />
<glyph unicode="&#xdf;" horiz-adv-x="948" d="M25 0l190 1090q20 115 58 196.5t89.5 126.5t108.5 64.5t125 19.5q136 0 212.5 -71t76.5 -199q0 -43 -8.5 -82.5t-20.5 -65.5t-24 -46t-20 -29l-9 -9q-2 -1 -7 -3q-26 -11 -42 -19t-45.5 -27.5t-47 -39.5t-31.5 -53t-14 -71q0 -16 2 -30t8.5 -31t10 -26.5t17 -31t18.5 -29 t25 -36t26 -37.5q33 -50 49 -78t33.5 -83t17.5 -111q0 -141 -85.5 -226.5t-209.5 -85.5q-122 0 -258 101l72 86q96 -80 182 -80q71 0 127 54.5t56 150.5q0 52 -19.5 98t-64.5 111l-22.5 31.5t-23 32.5t-20 30t-19.5 33.5t-14.5 32.5t-13 37t-7 37.5t-3.5 43.5q0 46 11 85.5 t32 68.5t42.5 51t51.5 40.5t48.5 28t44.5 21.5q6 3 9 4q31 72 31 139q0 86 -45 131.5t-131 45.5q-97 0 -163.5 -69t-96.5 -239l-191 -1083h-118z" />
<glyph unicode="&#xe0;" horiz-adv-x="890" d="M68 305q0 205 47.5 385t138.5 294t205 114q39 0 74.5 -15.5t66 -47.5t49.5 -56t45 -64l29 160h119l-191 -1075h-119l31 178q-162 -201 -299 -201q-88 0 -142 82.5t-54 245.5zM190 324q0 -111 28.5 -173.5t84.5 -62.5q72 0 140 56.5t143 156.5l88 500q-39 81 -91 133.5 t-110 52.5q-82 0 -148.5 -106.5t-100.5 -257t-34 -299.5zM399 1493h152l131 -262h-92z" />
<glyph unicode="&#xe1;" horiz-adv-x="921" d="M68 305q0 205 47.5 385t138.5 294t205 114q39 0 74.5 -15.5t66 -47.5t49.5 -56t45 -64l29 160h119l-191 -1075h-119l31 178q-162 -201 -299 -201q-88 0 -142 82.5t-54 245.5zM190 324q0 -111 28.5 -173.5t84.5 -62.5q72 0 140 56.5t143 156.5l88 500q-39 81 -91 133.5 t-110 52.5q-82 0 -148.5 -106.5t-100.5 -257t-34 -299.5zM440 1231l211 262h170l-274 -262h-107z" />
<glyph unicode="&#xe2;" horiz-adv-x="890" d="M68 305q0 205 47.5 385t138.5 294t205 114q39 0 74.5 -15.5t66 -47.5t49.5 -56t45 -64l29 160h119l-191 -1075h-119l31 178q-162 -201 -299 -201q-88 0 -142 82.5t-54 245.5zM190 324q0 -111 28.5 -173.5t84.5 -62.5q72 0 140 56.5t143 156.5l88 500q-39 81 -91 133.5 t-110 52.5q-82 0 -148.5 -106.5t-100.5 -257t-34 -299.5zM365 1231l184 262h137l90 -262h-80l-88 184l-149 -184h-94z" />
<glyph unicode="&#xe3;" horiz-adv-x="890" d="M68 305q0 205 47.5 385t138.5 294t205 114q39 0 74.5 -15.5t66 -47.5t49.5 -56t45 -64l29 160h119l-191 -1075h-119l31 178q-162 -201 -299 -201q-88 0 -142 82.5t-54 245.5zM190 324q0 -111 28.5 -173.5t84.5 -62.5q72 0 140 56.5t143 156.5l88 500q-39 81 -91 133.5 t-110 52.5q-82 0 -148.5 -106.5t-100.5 -257t-34 -299.5zM369 1300q42 78 74 112t75 34q24 0 48 -15.5t40 -34.5t35.5 -34.5t34.5 -15.5q16 0 35.5 19t50.5 75l57 -45q-43 -79 -74 -112.5t-75 -33.5q-32 0 -61.5 25.5t-53.5 50.5t-43 25q-17 0 -35 -18t-51 -75z" />
<glyph unicode="&#xe4;" horiz-adv-x="890" d="M68 305q0 205 47.5 385t138.5 294t205 114q39 0 74.5 -15.5t66 -47.5t49.5 -56t45 -64l29 160h119l-191 -1075h-119l31 178q-162 -201 -299 -201q-88 0 -142 82.5t-54 245.5zM190 324q0 -111 28.5 -173.5t84.5 -62.5q72 0 140 56.5t143 156.5l88 500q-39 81 -91 133.5 t-110 52.5q-82 0 -148.5 -106.5t-100.5 -257t-34 -299.5zM403 1251l33 176h117l-31 -176h-119zM643 1251l31 176h117l-31 -176h-117z" />
<glyph unicode="&#xe5;" horiz-adv-x="890" d="M68 305q0 205 47.5 385t138.5 294t205 114q39 0 74.5 -15.5t66 -47.5t49.5 -56t45 -64l29 160h119l-191 -1075h-119l31 178q-162 -201 -299 -201q-88 0 -142 82.5t-54 245.5zM190 324q0 -111 28.5 -173.5t84.5 -62.5q72 0 140 56.5t143 156.5l88 500q-39 81 -91 133.5 t-110 52.5q-82 0 -148.5 -106.5t-100.5 -257t-34 -299.5zM422 1393q0 76 52 129t128 53t129 -53.5t53 -128.5q0 -77 -53 -130t-129 -53t-128 53t-52 130zM498 1393q0 -44 30 -74.5t74 -30.5t75.5 30.5t31.5 74.5t-31.5 75t-75.5 31t-74 -31t-30 -75z" />
<glyph unicode="&#xe6;" horiz-adv-x="1343" d="M68 305q0 205 47.5 385t138.5 294t205 114q39 0 74.5 -15.5t66 -47.5t49.5 -56t45 -64l29 160h119l-8 -51q96 74 215 74q109 0 171 -64t62 -178q0 -171 -132 -279t-370 -108h-65q-2 -25 -2 -74q0 -311 155 -311q14 0 29.5 3t29 7t31 12t29 13.5t30.5 17.5t27.5 17.5 t27.5 19.5t24 18t23.5 18t19.5 15l51 -88q-42 -35 -87 -66t-120 -62.5t-139 -31.5q-117 0 -180 97l-13 -74h-119l31 178q-162 -201 -299 -201q-88 0 -142 82.5t-54 245.5zM190 324q0 -111 28.5 -173.5t84.5 -62.5q72 0 140 56.5t143 156.5l6 35q-2 18 -2 61q0 232 80 412 q-39 78 -90 128t-107 50q-82 0 -148.5 -106.5t-100.5 -257t-34 -299.5zM725 563h68q92 0 165.5 25t118 66.5t67.5 92t23 105.5q0 70 -36 105.5t-95 35.5q-113 0 -198 -119t-113 -311z" />
<glyph unicode="&#xe7;" horiz-adv-x="757" d="M66 375q0 165 36.5 305.5t95.5 229.5t131.5 138.5t145.5 49.5q24 0 49 -5.5t44 -12t42.5 -20.5t37 -22.5t34.5 -27t28.5 -25t26 -24.5t19.5 -19l-72 -80q-3 3 -23.5 24t-35.5 33.5t-38.5 30t-48.5 26.5t-49 9q-56 0 -110.5 -45.5t-97 -123.5t-69 -192t-26.5 -241 q0 -139 38.5 -216t111.5 -77q28 0 64.5 15.5t62 32t60 41.5t42.5 30l51 -92q-172 -127 -286 -137q20 -68 20 -121q0 -91 -46 -147t-122 -56q-64 0 -110 37l45 84q34 -27 69 -27q37 0 65 32.5t28 100.5q0 36 -11 99q-94 19 -148 122t-54 271z" />
<glyph unicode="&#xe8;" horiz-adv-x="817" d="M66 397q0 197 57 357t162.5 252t238.5 92q109 0 171.5 -64t62.5 -178q0 -171 -132 -279t-370 -108h-66q-2 -25 -2 -74q0 -311 156 -311q16 0 32 3t34 10t32.5 12.5t34.5 18t30.5 19t31.5 22t27 19.5t26.5 20t21.5 17l52 -88q-41 -35 -87 -66t-121 -62.5t-139 -31.5 q-118 0 -185.5 106t-67.5 314zM201 563h67q92 0 166 25t118.5 66.5t67.5 92t23 105.5q0 70 -36 105.5t-95 35.5q-113 0 -198 -119t-113 -311zM373 1493h151l131 -262h-92z" />
<glyph unicode="&#xe9;" horiz-adv-x="819" d="M66 397q0 197 57 357t162.5 252t238.5 92q109 0 171.5 -64t62.5 -178q0 -171 -132 -279t-370 -108h-66q-2 -25 -2 -74q0 -311 156 -311q16 0 32 3t34 10t32.5 12.5t34.5 18t30.5 19t31.5 22t27 19.5t26.5 20t21.5 17l52 -88q-41 -35 -87 -66t-121 -62.5t-139 -31.5 q-118 0 -185.5 106t-67.5 314zM201 563h67q92 0 166 25t118.5 66.5t67.5 92t23 105.5q0 70 -36 105.5t-95 35.5q-113 0 -198 -119t-113 -311zM432 1231l211 262h170l-274 -262h-107z" />
<glyph unicode="&#xea;" horiz-adv-x="817" d="M66 397q0 197 57 357t162.5 252t238.5 92q109 0 171.5 -64t62.5 -178q0 -171 -132 -279t-370 -108h-66q-2 -25 -2 -74q0 -311 156 -311q16 0 32 3t34 10t32.5 12.5t34.5 18t30.5 19t31.5 22t27 19.5t26.5 20t21.5 17l52 -88q-41 -35 -87 -66t-121 -62.5t-139 -31.5 q-118 0 -185.5 106t-67.5 314zM201 563h67q92 0 166 25t118.5 66.5t67.5 92t23 105.5q0 70 -36 105.5t-95 35.5q-113 0 -198 -119t-113 -311zM340 1231l184 262h138l90 -262h-80l-88 184l-150 -184h-94z" />
<glyph unicode="&#xeb;" horiz-adv-x="817" d="M66 397q0 197 57 357t162.5 252t238.5 92q109 0 171.5 -64t62.5 -178q0 -171 -132 -279t-370 -108h-66q-2 -25 -2 -74q0 -311 156 -311q16 0 32 3t34 10t32.5 12.5t34.5 18t30.5 19t31.5 22t27 19.5t26.5 20t21.5 17l52 -88q-41 -35 -87 -66t-121 -62.5t-139 -31.5 q-118 0 -185.5 106t-67.5 314zM201 563h67q92 0 166 25t118.5 66.5t67.5 92t23 105.5q0 70 -36 105.5t-95 35.5q-113 0 -198 -119t-113 -311zM373 1251l33 176h116l-30 -176h-119zM612 1251l31 176h117l-31 -176h-117z" />
<glyph unicode="&#xec;" horiz-adv-x="382" d="M25 0l190 1075h117l-191 -1075h-116zM127 1493h152l131 -262h-93z" />
<glyph unicode="&#xed;" horiz-adv-x="385" d="M25 0l190 1075h117l-191 -1075h-116zM188 1231l211 262h170l-274 -262h-107z" />
<glyph unicode="&#xee;" horiz-adv-x="382" d="M25 0l190 1075h117l-191 -1075h-116zM94 1231l185 262h137l90 -262h-80l-88 184l-150 -184h-94z" />
<glyph unicode="&#xef;" horiz-adv-x="385" d="M25 0l190 1075h117l-191 -1075h-116zM129 1251l33 176h117l-31 -176h-119zM369 1251l30 176h117l-31 -176h-116z" />
<glyph unicode="&#xf0;" horiz-adv-x="899" d="M59 360q0 166 54.5 307.5t149.5 224.5t208 83q51 0 93.5 -19t67 -46t41.5 -54t23 -46l6 -19q0 151 -32.5 280.5t-104.5 196.5l-106 -101h-127l153 148q-30 10 -63 10q-26 0 -54.5 -4.5t-43.5 -8.5l-15 -5v108q53 19 125 19q73 0 141 -33l97 92h129l-152 -143 q164 -153 164 -547q0 -373 -127 -599.5t-334 -226.5q-139 0 -216 100.5t-77 282.5zM182 356q0 -124 42.5 -197t135.5 -73q76 0 138 51t98 130.5t55 165t19 165.5q0 125 -47.5 196.5t-137.5 71.5q-92 0 -163 -78t-105.5 -192.5t-34.5 -239.5z" />
<glyph unicode="&#xf1;" d="M25 0l190 1075h117l-27 -153q36 33 66 57.5t76 55t94.5 47t95.5 16.5q102 0 141 -79.5t15 -215.5l-142 -803h-119l140 788q8 52 9 96.5t-22 74.5t-71 30q-75 0 -157.5 -59t-147.5 -131l-140 -799h-118zM350 1300q42 77 74.5 111.5t75.5 34.5q31 0 60 -25t53.5 -50 t43.5 -25q16 0 35.5 19t50.5 75l58 -45q-43 -79 -74.5 -112.5t-75.5 -33.5q-32 0 -61 25.5t-53 50.5t-43 25q-17 0 -35 -18t-51 -75z" />
<glyph unicode="&#xf2;" d="M68 352q0 67 9.5 142.5t28.5 161.5t53.5 163t80 140.5t112.5 101t146 37.5q44 0 84 -10.5t79.5 -38t68.5 -69t47 -108t18 -151.5q0 -81 -12.5 -173t-44 -195.5t-78 -185.5t-123 -136t-170.5 -54q-56 0 -105.5 18.5t-94.5 59t-72 117t-27 180.5zM186 340 q0 -62 12.5 -109.5t31 -74.5t43.5 -44t47 -22.5t45 -5.5q72 0 129.5 55.5t90 135t54.5 175.5t29.5 166.5t7.5 118.5q0 77 -18 131t-47 79t-56.5 35.5t-56.5 10.5q-72 0 -129.5 -55.5t-90.5 -135t-55 -175.5t-29.5 -166.5t-7.5 -118.5zM381 1493h151l132 -262h-93z" />
<glyph unicode="&#xf3;" d="M68 352q0 67 9.5 142.5t28.5 161.5t53.5 163t80 140.5t112.5 101t146 37.5q44 0 84 -10.5t79.5 -38t68.5 -69t47 -108t18 -151.5q0 -81 -12.5 -173t-44 -195.5t-78 -185.5t-123 -136t-170.5 -54q-56 0 -105.5 18.5t-94.5 59t-72 117t-27 180.5zM186 340 q0 -62 12.5 -109.5t31 -74.5t43.5 -44t47 -22.5t45 -5.5q72 0 129.5 55.5t90 135t54.5 175.5t29.5 166.5t7.5 118.5q0 77 -18 131t-47 79t-56.5 35.5t-56.5 10.5q-72 0 -129.5 -55.5t-90.5 -135t-55 -175.5t-29.5 -166.5t-7.5 -118.5zM440 1231l211 262h170l-274 -262h-107z " />
<glyph unicode="&#xf4;" d="M68 352q0 67 9.5 142.5t28.5 161.5t53.5 163t80 140.5t112.5 101t146 37.5q44 0 84 -10.5t79.5 -38t68.5 -69t47 -108t18 -151.5q0 -81 -12.5 -173t-44 -195.5t-78 -185.5t-123 -136t-170.5 -54q-56 0 -105.5 18.5t-94.5 59t-72 117t-27 180.5zM186 340 q0 -62 12.5 -109.5t31 -74.5t43.5 -44t47 -22.5t45 -5.5q72 0 129.5 55.5t90 135t54.5 175.5t29.5 166.5t7.5 118.5q0 77 -18 131t-47 79t-56.5 35.5t-56.5 10.5q-72 0 -129.5 -55.5t-90.5 -135t-55 -175.5t-29.5 -166.5t-7.5 -118.5zM346 1231l184 262h138l90 -262h-80 l-88 184l-150 -184h-94z" />
<glyph unicode="&#xf5;" horiz-adv-x="884" d="M68 352q0 67 9.5 142.5t28.5 161.5t53.5 163t80 140.5t112.5 101t146 37.5q44 0 84 -10.5t79.5 -38t68.5 -69t47 -108t18 -151.5q0 -81 -12.5 -173t-44 -195.5t-78 -185.5t-123 -136t-170.5 -54q-56 0 -105.5 18.5t-94.5 59t-72 117t-27 180.5zM186 340 q0 -62 12.5 -109.5t31 -74.5t43.5 -44t47 -22.5t45 -5.5q72 0 129.5 55.5t90 135t54.5 175.5t29.5 166.5t7.5 118.5q0 77 -18 131t-47 79t-56.5 35.5t-56.5 10.5q-72 0 -129.5 -55.5t-90.5 -135t-55 -175.5t-29.5 -166.5t-7.5 -118.5zM348 1300q42 77 74.5 111.5t75.5 34.5 q31 0 60 -25t53.5 -50t43.5 -25q16 0 35.5 19t50.5 75l58 -45q-43 -79 -74.5 -112.5t-75.5 -33.5q-32 0 -61 25.5t-53 50.5t-43 25q-17 0 -35 -18t-51 -75z" />
<glyph unicode="&#xf6;" d="M68 352q0 67 9.5 142.5t28.5 161.5t53.5 163t80 140.5t112.5 101t146 37.5q44 0 84 -10.5t79.5 -38t68.5 -69t47 -108t18 -151.5q0 -81 -12.5 -173t-44 -195.5t-78 -185.5t-123 -136t-170.5 -54q-56 0 -105.5 18.5t-94.5 59t-72 117t-27 180.5zM186 340 q0 -62 12.5 -109.5t31 -74.5t43.5 -44t47 -22.5t45 -5.5q72 0 129.5 55.5t90 135t54.5 175.5t29.5 166.5t7.5 118.5q0 77 -18 131t-47 79t-56.5 35.5t-56.5 10.5q-72 0 -129.5 -55.5t-90.5 -135t-55 -175.5t-29.5 -166.5t-7.5 -118.5zM381 1251l33 176h116l-30 -176h-119z M621 1251l30 176h117l-31 -176h-116z" />
<glyph unicode="&#xf7;" horiz-adv-x="880" d="M90 629l19 106h700l-18 -106h-701zM307 358q0 35 24.5 60.5t59.5 25.5q34 0 59 -25.5t25 -60.5q0 -34 -25 -58t-59 -24q-35 0 -59.5 24t-24.5 58zM422 1006q0 34 24.5 59t59.5 25q34 0 59 -25t25 -59q0 -35 -25 -59.5t-59 -24.5q-35 0 -59.5 24.5t-24.5 59.5z" />
<glyph unicode="&#xf8;" d="M6 0l100 143q-38 81 -38 209q0 67 9.5 142.5t28.5 161.5t53.5 163t80 140.5t112.5 101t146 37.5q136 0 213 -94l51 71h92l-98 -141q39 -83 39 -213q0 -81 -12.5 -173t-44 -195.5t-78 -185.5t-123 -136t-170.5 -54q-137 0 -217 95l-50 -72h-94zM186 340q0 -30 4 -76 l451 639q-49 88 -143 88q-72 0 -129.5 -55.5t-90.5 -135t-55 -175.5t-29.5 -166.5t-7.5 -118.5zM219 170q48 -86 146 -86q72 0 129.5 55.5t90 135t54.5 175.5t29.5 166.5t7.5 118.5q0 43 -6 78z" />
<glyph unicode="&#xf9;" horiz-adv-x="884" d="M66 270l141 805h119l-142 -788q-34 -201 86 -201q73 0 156.5 58t146.5 126l142 805h119l-191 -1075h-117l27 154q-98 -85 -152 -118q-96 -59 -180 -59q-102 0 -140.5 78.5t-14.5 214.5zM375 1493h151l131 -262h-92z" />
<glyph unicode="&#xfa;" horiz-adv-x="884" d="M66 270l141 805h119l-142 -788q-34 -201 86 -201q73 0 156.5 58t146.5 126l142 805h119l-191 -1075h-117l27 154q-98 -85 -152 -118q-96 -59 -180 -59q-102 0 -140.5 78.5t-14.5 214.5zM434 1231l211 262h170l-274 -262h-107z" />
<glyph unicode="&#xfb;" horiz-adv-x="884" d="M66 270l141 805h119l-142 -788q-34 -201 86 -201q73 0 156.5 58t146.5 126l142 805h119l-191 -1075h-117l27 154q-98 -85 -152 -118q-96 -59 -180 -59q-102 0 -140.5 78.5t-14.5 214.5zM340 1231l184 262h138l90 -262h-80l-88 184l-150 -184h-94z" />
<glyph unicode="&#xfc;" horiz-adv-x="884" d="M66 270l141 805h119l-142 -788q-34 -201 86 -201q73 0 156.5 58t146.5 126l142 805h119l-191 -1075h-117l27 154q-98 -85 -152 -118q-96 -59 -180 -59q-102 0 -140.5 78.5t-14.5 214.5zM373 1251l33 176h116l-30 -176h-119zM612 1251l31 176h117l-31 -176h-117z" />
<glyph unicode="&#xfd;" horiz-adv-x="804" d="M-53 -315q116 53 173.5 110.5t112.5 177.5l-102 1102h123l61 -909l385 909h131l-479 -1075q-80 -176 -117 -233q-59 -89 -157 -144q-44 -24 -105 -49zM395 1231l211 262h170l-274 -262h-107z" />
<glyph unicode="&#xfe;" horiz-adv-x="884" d="M-49 -418l338 1911h117l-99 -565q148 170 271 170q98 0 158.5 -83.5t60.5 -246.5q0 -149 -27 -291t-75.5 -253.5t-121 -179t-157.5 -67.5q-41 0 -78.5 15.5t-69 44.5t-53 55.5t-45.5 61.5l-100 -572h-119zM190 272q40 -81 94.5 -132.5t114.5 -51.5q80 0 145 106.5 t97.5 256.5t32.5 299q0 112 -34 174.5t-101 62.5q-63 0 -122.5 -47t-131.5 -133z" />
<glyph unicode="&#xff;" horiz-adv-x="804" d="M-53 -315q116 53 173.5 110.5t112.5 177.5l-102 1102h123l61 -909l385 909h131l-479 -1075q-80 -176 -117 -233q-59 -89 -157 -144q-44 -24 -105 -49zM336 1251l33 176h116l-30 -176h-119zM575 1251l31 176h117l-31 -176h-117z" />
<glyph unicode="&#x100;" horiz-adv-x="993" d="M-51 0l629 1434h135l123 -1434h-131l-25 373h-438l-154 -373h-139zM291 487h381l-51 797zM467 1591l18 95h410l-18 -95h-410z" />
<glyph unicode="&#x101;" horiz-adv-x="890" d="M68 305q0 205 47.5 385t138.5 294t205 114q39 0 74.5 -15.5t66 -47.5t49.5 -56t45 -64l29 160h119l-191 -1075h-119l31 178q-162 -201 -299 -201q-88 0 -142 82.5t-54 245.5zM190 324q0 -111 28.5 -173.5t84.5 -62.5q72 0 140 56.5t143 156.5l88 500q-39 81 -91 133.5 t-110 52.5q-82 0 -148.5 -106.5t-100.5 -257t-34 -299.5zM375 1282l18 94h410l-19 -94h-409z" />
<glyph unicode="&#x102;" horiz-adv-x="993" d="M-51 0l629 1434h135l123 -1434h-131l-25 373h-438l-154 -373h-139zM291 487h381l-51 797zM502 1751h86q-10 -62 10 -89.5t72 -27.5q56 0 94.5 28.5t48.5 88.5h86q-17 -98 -79.5 -154.5t-157.5 -56.5q-92 0 -134.5 57.5t-25.5 153.5z" />
<glyph unicode="&#x103;" horiz-adv-x="890" d="M68 305q0 205 47.5 385t138.5 294t205 114q39 0 74.5 -15.5t66 -47.5t49.5 -56t45 -64l29 160h119l-191 -1075h-119l31 178q-162 -201 -299 -201q-88 0 -142 82.5t-54 245.5zM190 324q0 -111 28.5 -173.5t84.5 -62.5q72 0 140 56.5t143 156.5l88 500q-39 81 -91 133.5 t-110 52.5q-82 0 -148.5 -106.5t-100.5 -257t-34 -299.5zM408 1442h86q-10 -62 9.5 -89.5t71.5 -27.5q56 0 95 28.5t49 88.5h86q-17 -98 -79.5 -154.5t-158.5 -56.5q-91 0 -133.5 57.5t-25.5 153.5z" />
<glyph unicode="&#x104;" horiz-adv-x="995" d="M-51 0l629 1434h135l123 -1434h-7q-91 -66 -131.5 -116t-40.5 -103q0 -27 16.5 -40.5t32 -15t44.5 -1.5h8l-31 -91q-22 0 -36.5 1t-41.5 7.5t-43.5 18.5t-29.5 37t-13 61q0 134 174 242h-32l-25 373h-438l-154 -373h-139zM291 487h381l-51 797z" />
<glyph unicode="&#x105;" horiz-adv-x="890" d="M68 305q0 205 47.5 385t138.5 294t205 114q39 0 74.5 -15.5t66 -47.5t49.5 -56t45 -64l29 160h119l-191 -1075h-8q-91 -66 -131.5 -116t-40.5 -103q0 -17 6 -28t13.5 -17t23 -8.5t24 -3t25.5 -0.5h8l-30 -91q-22 0 -36.5 1t-41.5 7.5t-43.5 18.5t-29.5 37t-13 61 q0 134 174 242h-19l31 178q-162 -201 -299 -201q-88 0 -142 82.5t-54 245.5zM190 324q0 -111 28.5 -173.5t84.5 -62.5q72 0 140 56.5t143 156.5l88 500q-39 81 -91 133.5t-110 52.5q-82 0 -148.5 -106.5t-100.5 -257t-34 -299.5z" />
<glyph unicode="&#x106;" horiz-adv-x="944" d="M113 487q0 272 70 494.5t191 348.5t267 126q54 0 104 -18t96 -55t76 -66.5t72 -77.5l-80 -84q-73 91 -136.5 135.5t-127.5 44.5q-80 0 -154.5 -67t-129.5 -180.5t-88 -272t-33 -332.5q0 -196 49 -290.5t133 -94.5q116 0 321 181l64 -97q-122 -96 -219.5 -150.5 t-190.5 -54.5q-132 0 -208 127t-76 383zM612 1540l211 262h170l-274 -262h-107z" />
<glyph unicode="&#x107;" horiz-adv-x="757" d="M66 375q0 165 36.5 305.5t95.5 229.5t131.5 138.5t145.5 49.5q24 0 49 -5.5t44 -12t42.5 -20.5t37 -22.5t34.5 -27t28.5 -25t26 -24.5t19.5 -19l-72 -80q-3 3 -23.5 24t-35.5 33.5t-38.5 30t-48.5 26.5t-49 9q-56 0 -110.5 -45.5t-97 -123.5t-69 -192t-26.5 -241 q0 -139 38.5 -216t111.5 -77q28 0 64.5 15.5t62 32t60 41.5t42.5 30l51 -92q-108 -77 -166 -104q-77 -36 -141 -36q-110 0 -176.5 106.5t-66.5 291.5zM416 1231l211 262h170l-275 -262h-106z" />
<glyph unicode="&#x10a;" horiz-adv-x="944" d="M113 487q0 272 70 494.5t191 348.5t267 126q54 0 104 -18t96 -55t76 -66.5t72 -77.5l-80 -84q-73 91 -136.5 135.5t-127.5 44.5q-80 0 -154.5 -67t-129.5 -180.5t-88 -272t-33 -332.5q0 -196 49 -290.5t133 -94.5q116 0 321 181l64 -97q-122 -96 -219.5 -150.5 t-190.5 -54.5q-132 0 -208 127t-76 383zM623 1561l32 178h121l-33 -178h-120z" />
<glyph unicode="&#x10b;" horiz-adv-x="757" d="M66 375q0 165 36.5 305.5t95.5 229.5t131.5 138.5t145.5 49.5q24 0 49 -5.5t44 -12t42.5 -20.5t37 -22.5t34.5 -27t28.5 -25t26 -24.5t19.5 -19l-72 -80q-3 3 -23.5 24t-35.5 33.5t-38.5 30t-48.5 26.5t-49 9q-56 0 -110.5 -45.5t-97 -123.5t-69 -192t-26.5 -241 q0 -139 38.5 -216t111.5 -77q28 0 64.5 15.5t62 32t60 41.5t42.5 30l51 -92q-108 -77 -166 -104q-77 -36 -141 -36q-110 0 -176.5 106.5t-66.5 291.5zM471 1251l33 179h121l-33 -179h-121z" />
<glyph unicode="&#x10c;" horiz-adv-x="944" d="M113 487q0 272 70 494.5t191 348.5t267 126q54 0 104 -18t96 -55t76 -66.5t72 -77.5l-80 -84q-73 91 -136.5 135.5t-127.5 44.5q-80 0 -154.5 -67t-129.5 -180.5t-88 -272t-33 -332.5q0 -196 49 -290.5t133 -94.5q116 0 321 181l64 -97q-122 -96 -219.5 -150.5 t-190.5 -54.5q-132 0 -208 127t-76 383zM530 1802h82l90 -182l148 182h94l-184 -262h-137z" />
<glyph unicode="&#x10d;" horiz-adv-x="755" d="M66 375q0 165 36.5 305.5t95.5 229.5t131.5 138.5t145.5 49.5q24 0 49 -5.5t44 -12t42.5 -20.5t37 -22.5t34.5 -27t28.5 -25t26 -24.5t19.5 -19l-72 -80q-3 3 -23.5 24t-35.5 33.5t-38.5 30t-48.5 26.5t-49 9q-56 0 -110.5 -45.5t-97 -123.5t-69 -192t-26.5 -241 q0 -139 38.5 -216t111.5 -77q28 0 64.5 15.5t62 32t60 41.5t42.5 30l51 -92q-108 -77 -166 -104q-77 -36 -141 -36q-110 0 -176.5 106.5t-66.5 291.5zM367 1493h82l90 -182l147 182h94l-184 -262h-137z" />
<glyph unicode="&#x10e;" horiz-adv-x="1044" d="M51 0l254 1434h201q220 0 341.5 -119.5t121.5 -362.5q0 -203 -47 -377t-133.5 -302t-216.5 -200.5t-289 -72.5h-232zM195 117h90q119 0 221 57t176.5 162t117 262t42.5 348q0 371 -359 371h-75zM545 1802h82l90 -182l147 182h94l-184 -262h-137z" />
<glyph unicode="&#x10f;" horiz-adv-x="921" d="M68 305q0 205 47.5 385t138.5 294t205 114q39 0 74.5 -15.5t66 -47.5t49.5 -56t45 -64l103 578h118l-264 -1493h-119l31 178q-162 -201 -299 -201q-88 0 -142 82.5t-54 245.5zM190 324q0 -111 28.5 -173.5t84.5 -62.5q72 0 140 56.5t143 156.5l88 500q-39 81 -91 133.5 t-110 52.5q-82 0 -148.5 -106.5t-100.5 -257t-34 -299.5zM924 1133l94 178h-53l32 182h113l-20 -186l-134 -213z" />
<glyph unicode="&#x110;" horiz-adv-x="1056" d="M63 0l117 662h-104l18 110h105l118 662h201q220 0 341.5 -119.5t121.5 -362.5q0 -203 -47 -377t-133.5 -302t-216.5 -200.5t-289 -72.5h-232zM207 117h90q119 0 221 57t176.5 162t117 262t42.5 348q0 371 -358 371h-76l-98 -545h237l-20 -110h-236z" />
<glyph unicode="&#x111;" horiz-adv-x="892" d="M68 305q0 205 47.5 385t138.5 294t205 114q39 0 74.5 -15.5t66 -47.5t49.5 -56t45 -64l56 312h-238l16 94h238l31 172h118l-30 -172h90l-14 -94h-93l-217 -1227h-119l31 178q-162 -201 -299 -201q-88 0 -142 82.5t-54 245.5zM190 324q0 -111 28.5 -173.5t84.5 -62.5 q72 0 140 56.5t143 156.5l88 500q-39 81 -91 133.5t-110 52.5q-82 0 -148.5 -106.5t-100.5 -257t-34 -299.5z" />
<glyph unicode="&#x112;" horiz-adv-x="882" d="M51 0l254 1434h621l-25 -117h-493l-95 -543h410l-21 -115h-409l-98 -542h510l-23 -117h-631zM444 1591l19 95h409l-18 -95h-410z" />
<glyph unicode="&#x113;" horiz-adv-x="819" d="M66 397q0 197 57 357t162.5 252t238.5 92q109 0 171.5 -64t62.5 -178q0 -171 -132 -279t-370 -108h-66q-2 -25 -2 -74q0 -311 156 -311q16 0 32 3t34 10t32.5 12.5t34.5 18t30.5 19t31.5 22t27 19.5t26.5 20t21.5 17l52 -88q-41 -35 -87 -66t-121 -62.5t-139 -31.5 q-118 0 -185.5 106t-67.5 314zM201 563h67q92 0 166 25t118.5 66.5t67.5 92t23 105.5q0 70 -36 105.5t-95 35.5q-113 0 -198 -119t-113 -311zM352 1282l19 94h409l-18 -94h-410z" />
<glyph unicode="&#x116;" horiz-adv-x="882" d="M51 0l254 1434h621l-25 -117h-493l-95 -543h410l-21 -115h-409l-98 -542h510l-23 -117h-631zM584 1561l32 178h121l-32 -178h-121z" />
<glyph unicode="&#x117;" horiz-adv-x="817" d="M66 397q0 197 57 357t162.5 252t238.5 92q109 0 171.5 -64t62.5 -178q0 -171 -132 -279t-370 -108h-66q-2 -25 -2 -74q0 -311 156 -311q16 0 32 3t34 10t32.5 12.5t34.5 18t30.5 19t31.5 22t27 19.5t26.5 20t21.5 17l52 -88q-41 -35 -87 -66t-121 -62.5t-139 -31.5 q-118 0 -185.5 106t-67.5 314zM201 563h67q92 0 166 25t118.5 66.5t67.5 92t23 105.5q0 70 -36 105.5t-95 35.5q-113 0 -198 -119t-113 -311zM489 1251l33 179h121l-33 -179h-121z" />
<glyph unicode="&#x118;" horiz-adv-x="882" d="M51 0l254 1434h621l-25 -117h-493l-95 -543h410l-21 -115h-409l-98 -542h510l-23 -117h-6q-91 -66 -131.5 -116t-40.5 -103q0 -17 6 -28t13.5 -17t23 -8.5t24 -3t25.5 -0.5h8l-31 -91q-22 0 -36.5 1t-41 7.5t-43 18.5t-29.5 37t-13 61q0 134 174 242h-533z" />
<glyph unicode="&#x119;" horiz-adv-x="817" d="M66 397q0 197 57 357t162.5 252t238.5 92q109 0 171.5 -64t62.5 -178q0 -171 -132 -279t-370 -108h-66q-2 -25 -2 -74q0 -311 156 -311q16 0 32 3t34 10t32.5 12.5t34.5 18t30.5 19t31.5 22t27 19.5t26.5 20t21.5 17l52 -88q-116 -101 -238 -141q-88 -64 -128 -113.5 t-40 -101.5q0 -17 6 -28t13.5 -17t23 -8.5t24 -3t25.5 -0.5h4.5h3.5l-30 -91q-22 0 -36.5 1t-41.5 7.5t-43.5 18.5t-29.5 37t-13 61q0 124 139 219q-111 6 -175 112.5t-64 307.5zM201 563h67q92 0 166 25t118.5 66.5t67.5 92t23 105.5q0 70 -36 105.5t-95 35.5 q-113 0 -198 -119t-113 -311z" />
<glyph unicode="&#x11a;" horiz-adv-x="882" d="M51 0l254 1434h621l-25 -117h-493l-95 -543h410l-21 -115h-409l-98 -542h510l-23 -117h-631zM477 1802h82l90 -182l148 182h94l-184 -262h-138z" />
<glyph unicode="&#x11b;" horiz-adv-x="817" d="M66 397q0 197 57 357t162.5 252t238.5 92q109 0 171.5 -64t62.5 -178q0 -171 -132 -279t-370 -108h-66q-2 -25 -2 -74q0 -311 156 -311q16 0 32 3t34 10t32.5 12.5t34.5 18t30.5 19t31.5 22t27 19.5t26.5 20t21.5 17l52 -88q-41 -35 -87 -66t-121 -62.5t-139 -31.5 q-118 0 -185.5 106t-67.5 314zM201 563h67q92 0 166 25t118.5 66.5t67.5 92t23 105.5q0 70 -36 105.5t-95 35.5q-113 0 -198 -119t-113 -311zM385 1493h82l90 -182l148 182h94l-185 -262h-137z" />
<glyph unicode="&#x11e;" horiz-adv-x="1038" d="M113 469q0 179 28 336.5t77.5 275t115.5 203t145 129t164 43.5q55 0 108.5 -20.5t101.5 -59.5t80.5 -71.5t74.5 -81.5l-84 -82q-3 3 -19.5 22t-23 25.5t-23.5 25t-26.5 26.5t-27.5 24t-30 23.5t-30 18.5t-33 16t-33 9t-35 4q-106 0 -198.5 -112t-147.5 -309.5t-55 -432.5 q0 -181 45 -284t131 -103q41 0 89 22.5t93 59.5t78 69.5t63 67.5l62 342h-264l18 113h385l-135 -768h-121l31 176q-85 -91 -166 -145t-166 -54q-123 0 -197.5 124t-74.5 368zM520 1753h86q-10 -62 10 -89.5t72 -27.5q56 0 94.5 28.5t48.5 88.5h87q-17 -98 -79.5 -154.5 t-158.5 -56.5q-92 0 -134.5 57.5t-25.5 153.5z" />
<glyph unicode="&#x11f;" horiz-adv-x="892" d="M-35 -365l47 111q166 -76 273 -76q190 0 233 252l45 254q-156 -199 -299 -199q-88 0 -142 82.5t-54 245.5q0 204 48 384.5t139 294.5t204 114q39 0 75 -16t66 -46.5t50 -57t44 -63.5l29 160h117l-205 -1159q-18 -103 -50 -173.5t-77 -109t-96 -55t-115 -16.5 q-77 0 -167 20t-165 53zM190 324q0 -112 29 -174t86 -62q70 0 138.5 57t140.5 156l90 500q-39 81 -91 133.5t-110 52.5q-82 0 -148.5 -106.5t-100.5 -257t-34 -299.5zM397 1442h86q-10 -62 10 -89.5t72 -27.5q56 0 95 28.5t49 88.5h86q-17 -98 -79.5 -154.5t-158.5 -56.5 q-92 0 -134.5 57.5t-25.5 153.5z" />
<glyph unicode="&#x120;" horiz-adv-x="1038" d="M113 469q0 179 28 336.5t77.5 275t115.5 203t145 129t164 43.5q55 0 108.5 -20.5t101.5 -59.5t80.5 -71.5t74.5 -81.5l-84 -82q-3 3 -19.5 22t-23 25.5t-23.5 25t-26.5 26.5t-27.5 24t-30 23.5t-30 18.5t-33 16t-33 9t-35 4q-106 0 -198.5 -112t-147.5 -309.5t-55 -432.5 q0 -181 45 -284t131 -103q41 0 89 22.5t93 59.5t78 69.5t63 67.5l62 342h-264l18 113h385l-135 -768h-121l31 176q-85 -91 -166 -145t-166 -54q-123 0 -197.5 124t-74.5 368zM625 1561l32 178h121l-33 -178h-120z" />
<glyph unicode="&#x121;" horiz-adv-x="892" d="M-35 -365l47 111q166 -76 273 -76q190 0 233 252l45 254q-156 -199 -299 -199q-88 0 -142 82.5t-54 245.5q0 204 48 384.5t139 294.5t204 114q39 0 75 -16t66 -46.5t50 -57t44 -63.5l29 160h117l-205 -1159q-18 -103 -50 -173.5t-77 -109t-96 -55t-115 -16.5 q-77 0 -167 20t-165 53zM190 324q0 -112 29 -174t86 -62q70 0 138.5 57t140.5 156l90 500q-39 81 -91 133.5t-110 52.5q-82 0 -148.5 -106.5t-100.5 -257t-34 -299.5zM500 1251l32 179h121l-32 -179h-121z" />
<glyph unicode="&#x122;" horiz-adv-x="1038" d="M113 469q0 179 28 336.5t77.5 275t115.5 203t145 129t164 43.5q55 0 108.5 -20.5t101.5 -59.5t80.5 -71.5t74.5 -81.5l-84 -82q-3 3 -19.5 22t-23 25.5t-23.5 25t-26.5 26.5t-27.5 24t-30 23.5t-30 18.5t-33 16t-33 9t-35 4q-106 0 -198.5 -112t-147.5 -309.5t-55 -432.5 q0 -181 45 -284t131 -103q41 0 89 22.5t93 59.5t78 69.5t63 67.5l62 342h-264l18 113h385l-135 -768h-121l31 176q-85 -91 -166 -145t-166 -54q-123 0 -197.5 124t-74.5 368zM279 -494l94 179h-54l33 182h113l-21 -186l-133 -213z" />
<glyph unicode="&#x123;" horiz-adv-x="892" d="M-35 -365l47 111q166 -76 273 -76q190 0 233 252l45 254q-156 -199 -299 -199q-88 0 -142 82.5t-54 245.5q0 204 48 384.5t139 294.5t204 114q39 0 75 -16t66 -46.5t50 -57t44 -63.5l29 160h117l-205 -1159q-18 -103 -50 -173.5t-77 -109t-96 -55t-115 -16.5 q-77 0 -167 20t-165 53zM190 324q0 -112 29 -174t86 -62q70 0 138.5 57t140.5 156l90 500q-39 81 -91 133.5t-110 52.5q-82 0 -148.5 -106.5t-100.5 -257t-34 -299.5zM512 1251l20 187l134 213l32 -39l-94 -178h53l-32 -183h-113z" />
<glyph unicode="&#x126;" horiz-adv-x="1073" d="M61 0l189 1067h-105l17 94h104l49 273h123l-49 -273h483l50 273h122l-49 -273h111l-16 -94h-111l-186 -1067h-125l123 694h-484l-123 -694h-123zM328 809h483l45 258h-483z" />
<glyph unicode="&#x127;" d="M25 0l217 1227h-92l16 94h92l31 172h117l-31 -172h239l-16 -94h-240l-53 -305q36 33 66 57.5t76 55t94.5 47t95.5 16.5q101 0 140.5 -77t15.5 -212l-142 -809h-121l140 788q8 54 8.5 98.5t-22 73.5t-68.5 29q-128 0 -305 -188l-140 -801h-118z" />
<glyph unicode="&#x128;" horiz-adv-x="450" d="M51 0l254 1434h123l-254 -1434h-123zM182 1610q42 77 74.5 111t75.5 34q31 0 60 -25t53.5 -50t43.5 -25q16 0 35.5 19t50.5 75l58 -45q-42 -78 -74 -111.5t-76 -33.5q-32 0 -61 25t-53 50t-43 25q-17 0 -35 -17.5t-51 -74.5z" />
<glyph unicode="&#x129;" horiz-adv-x="387" d="M25 0l190 1075h117l-191 -1075h-116zM98 1300q42 77 74.5 111.5t75.5 34.5q24 0 48 -15.5t40 -34.5t35.5 -34.5t34.5 -15.5q16 0 35.5 19t50.5 75l57 -45q-43 -79 -74.5 -112.5t-75.5 -33.5q-32 0 -61 25.5t-53 50.5t-43 25q-17 0 -35 -18t-51 -75z" />
<glyph unicode="&#x12a;" horiz-adv-x="448" d="M51 0l254 1434h123l-254 -1434h-123zM190 1591l19 95h409l-18 -95h-410z" />
<glyph unicode="&#x12b;" horiz-adv-x="385" d="M25 0l190 1075h117l-191 -1075h-116zM102 1282l19 94h409l-18 -94h-410z" />
<glyph unicode="&#x12c;" horiz-adv-x="446" d="M51 0l254 1434h123l-254 -1434h-123zM225 1751h86q-10 -62 10 -89.5t72 -27.5q56 0 95 28.5t49 88.5h86q-17 -98 -79.5 -154.5t-158.5 -56.5q-92 0 -134.5 57.5t-25.5 153.5z" />
<glyph unicode="&#x12d;" horiz-adv-x="382" d="M25 0l190 1075h117l-191 -1075h-116zM141 1442h86q-10 -62 10 -89.5t72 -27.5q56 0 95 28.5t49 88.5h86q-17 -98 -79.5 -154.5t-158.5 -56.5q-92 0 -134.5 57.5t-25.5 153.5z" />
<glyph unicode="&#x12e;" horiz-adv-x="444" d="M-96 -242q0 132 174 242h-27l254 1434h123l-254 -1432v-2h-4q-91 -66 -131.5 -116t-40.5 -103q0 -17 6 -28t13.5 -17t23 -8.5t24 -3t25.5 -0.5h8l-30 -91q-22 0 -36.5 1t-41.5 7.5t-43.5 18.5t-29.5 37t-13 61z" />
<glyph unicode="&#x12f;" horiz-adv-x="385" d="M-129 -242q0 132 174 242h-18l190 1075h117l-191 -1075h-6q-91 -66 -131.5 -116t-40.5 -103q0 -27 16.5 -40.5t32 -15t44.5 -1.5h8l-31 -91q-22 0 -36.5 1t-41.5 7.5t-43.5 18.5t-29.5 37t-13 61zM250 1309l33 178h131l-31 -178h-133z" />
<glyph unicode="&#x130;" horiz-adv-x="448" d="M51 0l254 1434h123l-254 -1434h-123zM332 1561l33 178h120l-32 -178h-121z" />
<glyph unicode="&#x131;" horiz-adv-x="382" d="M25 0l190 1075h117l-191 -1075h-116z" />
<glyph unicode="&#x132;" horiz-adv-x="894" d="M51 0l254 1434h123l-254 -1434h-123zM305 -174q44 19 73.5 34t51.5 33.5t34 32t22 41t14 47t12 62.5l240 1358h122l-239 -1354q-24 -137 -44 -181q-31 -71 -112 -118q-54 -30 -149 -64z" />
<glyph unicode="&#x133;" horiz-adv-x="759" d="M25 0l190 1075h117l-191 -1075h-116zM176 -322q44 19 74 34t51.5 34t33.5 33t22 42t14 48t12 63l203 1143h119l-203 -1138q-24 -137 -45 -183q-32 -73 -115 -119q-54 -30 -145 -61zM248 1309l33 178h131l-31 -178h-133zM618 1309l33 178h131l-30 -178h-134z" />
<glyph unicode="&#x134;" horiz-adv-x="444" d="M-141 -174q44 19 73.5 34t51.5 33.5t34 32t22 41t14 47t12 62.5l239 1358h123l-240 -1354q-24 -137 -44 -181q-31 -71 -112 -118q-54 -30 -149 -64zM180 1540l185 262h137l90 -262h-80l-88 184l-150 -184h-94z" />
<glyph unicode="&#x135;" horiz-adv-x="382" d="M-197 -322q53 23 86.5 42.5t54.5 37t34 46.5t19 53t15 75l201 1143h119l-201 -1138q-7 -40 -10.5 -59t-10.5 -50.5t-13 -45.5t-16 -38t-21 -35.5t-27.5 -29.5t-36 -28.5t-46 -25t-58 -26.5t-70.5 -25zM92 1231l184 262h138l90 -262h-80l-88 184l-150 -184h-94z" />
<glyph unicode="&#x136;" horiz-adv-x="958" d="M51 0l254 1434h123l-139 -787l585 787h156l-524 -680l313 -754h-141l-254 645l-176 -227l-74 -418h-123zM221 -494l94 179h-53l33 182h113l-21 -186l-133 -213z" />
<glyph unicode="&#x137;" horiz-adv-x="765" d="M25 0l264 1493h117l-173 -983l400 565h141l-334 -442l187 -633h-123l-146 526l-159 -211l-56 -315h-118zM139 -494l94 179h-53l33 182h113l-21 -186l-133 -213z" />
<glyph unicode="&#x138;" horiz-adv-x="765" d="M25 0l190 1075h117l-101 -565l402 565h141l-334 -442l187 -633h-123l-146 526l-159 -211l-56 -315h-118z" />
<glyph unicode="&#x139;" horiz-adv-x="806" d="M51 0l254 1434h123l-233 -1317h487l-20 -117h-611zM274 1540l211 262h170l-274 -262h-107z" />
<glyph unicode="&#x13a;" horiz-adv-x="403" d="M33 0l264 1493h119l-264 -1493h-119zM262 1599l211 263h170l-274 -263h-107z" />
<glyph unicode="&#x13b;" horiz-adv-x="806" d="M51 0l254 1434h123l-233 -1317h487l-20 -117h-611zM199 -494l94 179h-53l32 182h113l-20 -186l-134 -213z" />
<glyph unicode="&#x13c;" horiz-adv-x="403" d="M-61 -494l94 179h-53l32 182h113l-21 -186l-133 -213zM33 0l264 1493h119l-264 -1493h-119z" />
<glyph unicode="&#x13d;" horiz-adv-x="806" d="M51 0l254 1434h123l-233 -1317h487l-20 -117h-611zM438 1073l94 178h-53l33 183h113l-21 -187l-133 -213z" />
<glyph unicode="&#x13e;" horiz-adv-x="423" d="M33 0l264 1493h119l-264 -1493h-119zM426 1133l94 178h-53l33 182h112l-20 -186l-133 -213z" />
<glyph unicode="&#x13f;" horiz-adv-x="808" d="M51 0l254 1434h123l-233 -1317h487l-20 -117h-611zM569 651l33 178h121l-33 -178h-121z" />
<glyph unicode="&#x140;" horiz-adv-x="423" d="M33 0l264 1493h119l-264 -1493h-119zM348 651l33 178h121l-33 -178h-121z" />
<glyph unicode="&#x141;" horiz-adv-x="817" d="M47 492l25 129l112 73l131 740h123l-114 -648l225 150l-23 -129l-225 -150l-96 -540h487l-20 -117h-611l101 567z" />
<glyph unicode="&#x142;" horiz-adv-x="432" d="M47 0l113 635l-109 -70l25 131l106 70l129 727h119l-113 -639l111 74l-22 -133l-113 -74l-127 -721h-119z" />
<glyph unicode="&#x143;" horiz-adv-x="1075" d="M51 0l254 1434h127l289 -1201l213 1201h123l-252 -1434h-129l-291 1198l-211 -1198h-123zM594 1540l211 262h170l-275 -262h-106z" />
<glyph unicode="&#x144;" d="M25 0l190 1075h117l-27 -153q36 33 66 57.5t76 55t94.5 47t95.5 16.5q102 0 141 -79.5t15 -215.5l-142 -803h-119l140 788q8 52 9 96.5t-22 74.5t-71 30q-75 0 -157.5 -59t-147.5 -131l-140 -799h-118zM442 1231l211 262h170l-274 -262h-107z" />
<glyph unicode="&#x145;" horiz-adv-x="1075" d="M51 0l254 1434h127l289 -1201l213 1201h123l-252 -1434h-129l-291 1198l-211 -1198h-123zM285 -494l94 179h-53l32 182h113l-20 -186l-134 -213z" />
<glyph unicode="&#x146;" d="M25 0l190 1075h117l-27 -153q36 33 66 57.5t76 55t94.5 47t95.5 16.5q102 0 141 -79.5t15 -215.5l-142 -803h-119l140 788q8 52 9 96.5t-22 74.5t-71 30q-75 0 -157.5 -59t-147.5 -131l-140 -799h-118zM182 -494l94 179h-53l33 182h113l-21 -186l-133 -213z" />
<glyph unicode="&#x147;" horiz-adv-x="1075" d="M51 0l254 1434h127l289 -1201l213 1201h123l-252 -1434h-129l-291 1198l-211 -1198h-123zM549 1802h82l90 -182l147 182h95l-185 -262h-137z" />
<glyph unicode="&#x148;" horiz-adv-x="884" d="M25 0l190 1075h117l-27 -153q36 33 66 57.5t76 55t94.5 47t95.5 16.5q102 0 141 -79.5t15 -215.5l-142 -803h-119l140 788q8 52 9 96.5t-22 74.5t-71 30q-75 0 -157.5 -59t-147.5 -131l-140 -799h-118zM391 1493h82l90 -182l148 182h94l-184 -262h-138z" />
<glyph unicode="&#x149;" d="M25 0l190 1075h117l-27 -153q36 33 66 57.5t76 55t94.5 47t95.5 16.5q102 0 141 -79.5t15 -215.5l-142 -803h-119l140 788q8 52 9 96.5t-22 74.5t-71 30q-75 0 -157.5 -59t-147.5 -131l-140 -799h-118zM233 1235l95 178h-54l33 182h113l-21 -186l-133 -213z" />
<glyph unicode="&#x14a;" horiz-adv-x="1075" d="M51 0l254 1434h127l289 -1198l213 1198h123l-238 -1352q-27 -139 -48 -185q-32 -72 -115 -118q-53 -30 -144 -62l-27 109q96 41 136.5 74.5t54.5 99.5l-291 1198l-211 -1198h-123z" />
<glyph unicode="&#x14b;" horiz-adv-x="884" d="M25 0l190 1075h117l-27 -153q36 33 66 57.5t76 55t94.5 47t95.5 16.5q101 0 141 -79t15 -216l-152 -866q-8 -41 -11.5 -59.5t-11 -50t-13 -45t-15.5 -37.5t-21 -35.5t-27.5 -29.5t-35.5 -28.5t-45 -25.5t-57 -27t-70 -25l-23 104q54 23 87.5 42.5t55 37t34.5 46.5t19 53 t15 75l150 856q8 52 9 96.5t-22 74.5t-71 30q-75 0 -157.5 -59t-147.5 -131l-140 -799h-118z" />
<glyph unicode="&#x14c;" horiz-adv-x="1099" d="M109 428q0 28 3 72.5t11.5 114t21.5 143t35.5 157t51.5 159.5t71 146.5t92 122t117.5 82.5t144.5 31q57 0 106.5 -12t98.5 -43.5t84 -80.5t56.5 -129.5t21.5 -184.5q0 -28 -3 -72.5t-11.5 -114t-21.5 -143.5t-36 -157t-51.5 -159.5t-71 -147t-92.5 -122t-117.5 -82.5 t-144.5 -31q-56 0 -105.5 12t-98.5 43.5t-84 81t-56.5 130t-21.5 184.5zM236 424q0 -91 20.5 -157.5t56 -102.5t76.5 -53t88 -17q74 0 136.5 46.5t104.5 119.5t75.5 167.5t53 185.5t32 178t16.5 140.5t4 78.5q0 90 -21 156.5t-56.5 102.5t-76.5 53t-88 17q-74 0 -137 -46.5 t-105 -119.5t-75.5 -167.5t-52 -185t-31 -178t-16.5 -140.5t-4 -78zM516 1591l19 95h409l-18 -95h-410z" />
<glyph unicode="&#x14d;" d="M68 352q0 67 9.5 142.5t28.5 161.5t53.5 163t80 140.5t112.5 101t146 37.5q44 0 84 -10.5t79.5 -38t68.5 -69t47 -108t18 -151.5q0 -81 -12.5 -173t-44 -195.5t-78 -185.5t-123 -136t-170.5 -54q-56 0 -105.5 18.5t-94.5 59t-72 117t-27 180.5zM186 340 q0 -62 12.5 -109.5t31 -74.5t43.5 -44t47 -22.5t45 -5.5q72 0 129.5 55.5t90 135t54.5 175.5t29.5 166.5t7.5 118.5q0 77 -18 131t-47 79t-56.5 35.5t-56.5 10.5q-72 0 -129.5 -55.5t-90.5 -135t-55 -175.5t-29.5 -166.5t-7.5 -118.5zM356 1282l19 94h409l-18 -94h-410z" />
<glyph unicode="&#x14e;" horiz-adv-x="1099" d="M109 428q0 28 3 72.5t11.5 114t21.5 143t35.5 157t51.5 159.5t71 146.5t92 122t117.5 82.5t144.5 31q57 0 106.5 -12t98.5 -43.5t84 -80.5t56.5 -129.5t21.5 -184.5q0 -28 -3 -72.5t-11.5 -114t-21.5 -143.5t-36 -157t-51.5 -159.5t-71 -147t-92.5 -122t-117.5 -82.5 t-144.5 -31q-56 0 -105.5 12t-98.5 43.5t-84 81t-56.5 130t-21.5 184.5zM236 424q0 -91 20.5 -157.5t56 -102.5t76.5 -53t88 -17q74 0 136.5 46.5t104.5 119.5t75.5 167.5t53 185.5t32 178t16.5 140.5t4 78.5q0 90 -21 156.5t-56.5 102.5t-76.5 53t-88 17q-74 0 -137 -46.5 t-105 -119.5t-75.5 -167.5t-52 -185t-31 -178t-16.5 -140.5t-4 -78zM551 1751h86q-10 -62 10 -89.5t72 -27.5q123 0 143 117h86q-17 -98 -79.5 -154.5t-157.5 -56.5q-92 0 -134.5 57.5t-25.5 153.5z" />
<glyph unicode="&#x14f;" d="M68 352q0 67 9.5 142.5t28.5 161.5t53.5 163t80 140.5t112.5 101t146 37.5q44 0 84 -10.5t79.5 -38t68.5 -69t47 -108t18 -151.5q0 -81 -12.5 -173t-44 -195.5t-78 -185.5t-123 -136t-170.5 -54q-56 0 -105.5 18.5t-94.5 59t-72 117t-27 180.5zM186 340 q0 -62 12.5 -109.5t31 -74.5t43.5 -44t47 -22.5t45 -5.5q72 0 129.5 55.5t90 135t54.5 175.5t29.5 166.5t7.5 118.5q0 77 -18 131t-47 79t-56.5 35.5t-56.5 10.5q-72 0 -129.5 -55.5t-90.5 -135t-55 -175.5t-29.5 -166.5t-7.5 -118.5zM393 1442h86q-10 -62 10 -89.5 t72 -27.5q56 0 95 28.5t49 88.5h86q-17 -98 -79.5 -154.5t-158.5 -56.5q-92 0 -134.5 57.5t-25.5 153.5z" />
<glyph unicode="&#x150;" horiz-adv-x="1097" d="M109 428q0 28 3 72.5t11.5 114t21.5 143t35.5 157t51.5 159.5t71 146.5t92 122t117.5 82.5t144.5 31q57 0 106.5 -12t98.5 -43.5t84 -80.5t56.5 -129.5t21.5 -184.5q0 -28 -3 -72.5t-11.5 -114t-21.5 -143.5t-36 -157t-51.5 -159.5t-71 -147t-92.5 -122t-117.5 -82.5 t-144.5 -31q-56 0 -105.5 12t-98.5 43.5t-84 81t-56.5 130t-21.5 184.5zM236 424q0 -91 20.5 -157.5t56 -102.5t76.5 -53t88 -17q74 0 136.5 46.5t104.5 119.5t75.5 167.5t53 185.5t32 178t16.5 140.5t4 78.5q0 90 -21 156.5t-56.5 102.5t-76.5 53t-88 17q-74 0 -137 -46.5 t-105 -119.5t-75.5 -167.5t-52 -185t-31 -178t-16.5 -140.5t-4 -78zM543 1540l147 262h144l-213 -262h-78zM756 1540l149 262h144l-215 -262h-78z" />
<glyph unicode="&#x151;" horiz-adv-x="888" d="M68 352q0 67 9.5 142.5t28.5 161.5t53.5 163t80 140.5t112.5 101t146 37.5q44 0 84 -10.5t79.5 -38t68.5 -69t47 -108t18 -151.5q0 -81 -12.5 -173t-44 -195.5t-78 -185.5t-123 -136t-170.5 -54q-56 0 -105.5 18.5t-94.5 59t-72 117t-27 180.5zM186 340 q0 -62 12.5 -109.5t31 -74.5t43.5 -44t47 -22.5t45 -5.5q72 0 129.5 55.5t90 135t54.5 175.5t29.5 166.5t7.5 118.5q0 77 -18 131t-47 79t-56.5 35.5t-56.5 10.5q-72 0 -129.5 -55.5t-90.5 -135t-55 -175.5t-29.5 -166.5t-7.5 -118.5zM383 1231l147 262h144l-213 -262h-78z M596 1231l149 262h144l-215 -262h-78z" />
<glyph unicode="&#x152;" horiz-adv-x="1581" d="M109 428q0 28 3 72.5t11.5 114t21.5 143t35.5 157t51.5 159.5t71 146.5t92 122t117.5 82.5t144.5 31q230 0 318 -186l29 164h620l-25 -117h-493l-94 -543h409l-20 -115h-410l-98 -542h510l-23 -117h-630l22 131q-125 -154 -297 -154q-56 0 -105.5 12t-98.5 43.5t-84 81 t-56.5 130t-21.5 184.5zM236 424q0 -91 20.5 -157.5t56 -102.5t76.5 -53t88 -17q74 0 136.5 46.5t104.5 119.5t75.5 167.5t53 185.5t32 178t16.5 140.5t4 78.5q0 90 -21 156.5t-56.5 102.5t-76.5 53t-88 17q-74 0 -137 -46.5t-105 -119.5t-75.5 -167.5t-52 -185t-31 -178 t-16.5 -140.5t-4 -78z" />
<glyph unicode="&#x153;" horiz-adv-x="1404" d="M68 352q0 67 9.5 142.5t28.5 161.5t53.5 163t80 140.5t112.5 101t146 37.5q91 0 166 -50.5t108 -162.5q63 102 149.5 157.5t190.5 55.5q109 0 171.5 -64t62.5 -178q0 -171 -132 -279t-370 -108h-66q-2 -25 -2 -74q0 -311 156 -311q16 0 32 3t34 10t32.5 12.5t34.5 18 t30.5 19t31.5 22t27 19.5t26.5 20t21.5 17l51 -88q-42 -35 -87 -66t-120 -62.5t-139 -31.5q-85 0 -144.5 55t-86.5 165q-118 -220 -309 -220q-56 0 -105.5 18.5t-94.5 59t-72 117t-27 180.5zM186 340q0 -62 12.5 -109.5t31 -74.5t43.5 -44t47 -22.5t45 -5.5q72 0 129.5 55.5 t90 135t54.5 175.5t29.5 166.5t7.5 118.5q0 77 -18 131t-47 79t-56.5 35.5t-56.5 10.5q-72 0 -129.5 -55.5t-90.5 -135t-55 -175.5t-29.5 -166.5t-7.5 -118.5zM788 563h68q92 0 166 25t118.5 66.5t67.5 92t23 105.5q0 70 -36 105.5t-95 35.5q-113 0 -198.5 -119t-113.5 -311 z" />
<glyph unicode="&#x154;" horiz-adv-x="1013" d="M51 0l254 1434h330q171 0 263.5 -74t92.5 -225q0 -191 -97.5 -320.5t-260.5 -171.5l168 -643h-129l-154 625h-231l-113 -625h-123zM307 739h176q174 0 276.5 101.5t102.5 277.5q0 103 -64 152t-175 49h-213zM584 1540l211 262h170l-275 -262h-106z" />
<glyph unicode="&#x155;" horiz-adv-x="567" d="M25 0l190 1075h117l-39 -231q10 20 21.5 41t43 63.5t65 72t85 51t104.5 15.5l-24 -122q-48 0 -92.5 -19t-77 -49t-61 -66.5t-47 -73t-31.5 -66.5t-19 -49l-6 -19l-111 -623h-118zM328 1231l211 262h170l-275 -262h-106z" />
<glyph unicode="&#x156;" horiz-adv-x="1013" d="M51 0l254 1434h330q171 0 263.5 -74t92.5 -225q0 -191 -97.5 -320.5t-260.5 -171.5l168 -643h-129l-154 625h-231l-113 -625h-123zM244 -494l94 179h-53l32 182h113l-20 -186l-134 -213zM307 739h176q174 0 276.5 101.5t102.5 277.5q0 103 -64 152t-175 49h-213z" />
<glyph unicode="&#x157;" horiz-adv-x="567" d="M-72 -494l95 179h-54l33 182h113l-21 -186l-133 -213zM25 0l190 1075h117l-39 -231q10 20 21.5 41t43 63.5t65 72t85 51t104.5 15.5l-24 -122q-48 0 -92.5 -19t-77 -49t-61 -66.5t-47 -73t-31.5 -66.5t-19 -49l-6 -19l-111 -623h-118z" />
<glyph unicode="&#x158;" horiz-adv-x="1013" d="M51 0l254 1434h330q171 0 263.5 -74t92.5 -225q0 -191 -97.5 -320.5t-260.5 -171.5l168 -643h-129l-154 625h-231l-113 -625h-123zM307 739h176q174 0 276.5 101.5t102.5 277.5q0 103 -64 152t-175 49h-213zM539 1802h82l90 -182l147 182h94l-184 -262h-137z" />
<glyph unicode="&#x159;" horiz-adv-x="565" d="M25 0l190 1075h117l-39 -231q10 20 21.5 41t43 63.5t65 72t85 51t104.5 15.5l-24 -122q-48 0 -92.5 -19t-77 -49t-61 -66.5t-47 -73t-31.5 -66.5t-19 -49l-6 -19l-111 -623h-118zM279 1493h81l91 -182l147 182h94l-184 -262h-137z" />
<glyph unicode="&#x15a;" horiz-adv-x="901" d="M6 131l80 96q170 -133 299 -133q109 0 184.5 72t75.5 192q0 44 -13 85t-29.5 70t-50.5 65t-57 57t-69 59q-60 51 -95.5 86t-73.5 84.5t-55.5 104t-17.5 118.5q0 164 107 266.5t264 102.5q169 0 346 -119l-78 -96q-146 98 -268 98q-98 0 -169 -66t-71 -183 q0 -85 43.5 -144t153.5 -153q50 -44 81 -73t69.5 -73.5t60 -83.5t36.5 -91.5t15 -109.5q0 -173 -116 -279t-277 -106q-190 0 -375 154zM498 1540l211 262h170l-275 -262h-106z" />
<glyph unicode="&#x15b;" horiz-adv-x="755" d="M-6 113l72 86q138 -115 245 -115q75 0 131 48t56 142q0 39 -10.5 70t-38 61t-49 47.5t-70.5 53.5q-51 37 -80 62t-62.5 64t-49 83.5t-15.5 99.5q0 129 85 206t210 77q84 0 161 -34.5t130 -80.5l-70 -84q-115 92 -219 92q-70 0 -122 -43t-52 -125q0 -41 13 -75.5 t41.5 -63.5t46.5 -43.5t54 -38.5q110 -78 166 -152t56 -178q0 -135 -90 -215t-216 -80q-161 0 -323 136zM377 1231l211 262h170l-275 -262h-106z" />
<glyph unicode="&#x15c;" horiz-adv-x="901" d="M6 131l80 96q170 -133 299 -133q109 0 184.5 72t75.5 192q0 44 -13 85t-29.5 70t-50.5 65t-57 57t-69 59q-60 51 -95.5 86t-73.5 84.5t-55.5 104t-17.5 118.5q0 164 107 266.5t264 102.5q169 0 346 -119l-78 -96q-146 98 -268 98q-98 0 -169 -66t-71 -183 q0 -85 43.5 -144t153.5 -153q50 -44 81 -73t69.5 -73.5t60 -83.5t36.5 -91.5t15 -109.5q0 -173 -116 -279t-277 -106q-190 0 -375 154zM408 1540l184 262h137l90 -262h-80l-88 184l-149 -184h-94z" />
<glyph unicode="&#x15d;" horiz-adv-x="755" d="M-6 113l72 86q138 -115 245 -115q75 0 131 48t56 142q0 39 -10.5 70t-38 61t-49 47.5t-70.5 53.5q-51 37 -80 62t-62.5 64t-49 83.5t-15.5 99.5q0 129 85 206t210 77q84 0 161 -34.5t130 -80.5l-70 -84q-115 92 -219 92q-70 0 -122 -43t-52 -125q0 -41 13 -75.5 t41.5 -63.5t46.5 -43.5t54 -38.5q110 -78 166 -152t56 -178q0 -135 -90 -215t-216 -80q-161 0 -323 136zM285 1231l184 262h137l90 -262h-80l-88 184l-149 -184h-94z" />
<glyph unicode="&#x15e;" horiz-adv-x="901" d="M6 131l80 96q170 -133 299 -133q109 0 184.5 72t75.5 192q0 44 -13 85t-29.5 70t-50.5 65t-57 57t-69 59q-60 51 -95.5 86t-73.5 84.5t-55.5 104t-17.5 118.5q0 164 107 266.5t264 102.5q169 0 346 -119l-78 -96q-146 98 -268 98q-98 0 -169 -66t-71 -183 q0 -85 43.5 -144t153.5 -153q50 -44 81 -73t69.5 -73.5t60 -83.5t36.5 -91.5t15 -109.5q0 -165 -106 -269t-258 -113q20 -68 20 -121q0 -91 -46 -147t-122 -56q-64 0 -110 37l45 84q34 -27 69 -27q37 0 64.5 32.5t27.5 100.5q0 35 -10 97q-179 13 -342 151z" />
<glyph unicode="&#x15f;" horiz-adv-x="755" d="M-6 113l72 86q138 -115 245 -115q75 0 131 48t56 142q0 39 -10.5 70t-38 61t-49 47.5t-70.5 53.5q-51 37 -80 62t-62.5 64t-49 83.5t-15.5 99.5q0 129 85 206t210 77q84 0 161 -34.5t130 -80.5l-70 -84q-115 92 -219 92q-70 0 -122 -43t-52 -125q0 -41 13 -75.5 t41.5 -63.5t46.5 -43.5t54 -38.5q110 -78 166 -152t56 -178q0 -129 -81.5 -206.5t-201.5 -85.5q20 -68 20 -121q0 -91 -45.5 -147t-121.5 -56q-65 0 -111 37l45 84q34 -27 70 -27q37 0 64.5 32.5t27.5 100.5q0 39 -10 97q-149 15 -285 133z" />
<glyph unicode="&#x160;" horiz-adv-x="901" d="M6 131l80 96q170 -133 299 -133q109 0 184.5 72t75.5 192q0 44 -13 85t-29.5 70t-50.5 65t-57 57t-69 59q-60 51 -95.5 86t-73.5 84.5t-55.5 104t-17.5 118.5q0 164 107 266.5t264 102.5q169 0 346 -119l-78 -96q-146 98 -268 98q-98 0 -169 -66t-71 -183 q0 -85 43.5 -144t153.5 -153q50 -44 81 -73t69.5 -73.5t60 -83.5t36.5 -91.5t15 -109.5q0 -173 -116 -279t-277 -106q-190 0 -375 154zM453 1802h82l90 -182l147 182h94l-184 -262h-137z" />
<glyph unicode="&#x161;" horiz-adv-x="753" d="M-6 113l72 86q138 -115 245 -115q75 0 131 48t56 142q0 39 -10.5 70t-38 61t-49 47.5t-70.5 53.5q-51 37 -80 62t-62.5 64t-49 83.5t-15.5 99.5q0 129 85 206t210 77q84 0 161 -34.5t130 -80.5l-70 -84q-115 92 -219 92q-70 0 -122 -43t-52 -125q0 -41 13 -75.5 t41.5 -63.5t46.5 -43.5t54 -38.5q110 -78 166 -152t56 -178q0 -135 -90 -215t-216 -80q-161 0 -323 136zM328 1493h82l90 -182l147 182h94l-184 -262h-137z" />
<glyph unicode="&#x162;" horiz-adv-x="819" d="M80 -307l45 84q34 -27 70 -27q37 0 64.5 32.5t27.5 100.5q0 72 -15 117h-34l233 1317h-307l22 117h738l-23 -117h-307l-232 -1317h-30q26 -65 26 -141q0 -91 -46 -147t-122 -56q-64 0 -110 37z" />
<glyph unicode="&#x163;" horiz-adv-x="557" d="M-14 -307l45 84q34 -27 69 -27q37 0 65 32.5t28 100.5q0 30 -11 99q-56 10 -83 69t-5 178l131 744h-102l16 102h105l49 271l125 40l-56 -311h201l-18 -102h-201l-133 -760q-21 -123 45 -123q40 0 141 55l33 -98q-101 -55 -186 -67q20 -63 20 -121q0 -91 -46 -147 t-122 -56q-64 0 -110 37z" />
<glyph unicode="&#x164;" horiz-adv-x="819" d="M164 1317l22 117h738l-23 -117h-307l-232 -1317h-124l233 1317h-307zM414 1802h82l90 -182l147 182h94l-184 -262h-137z" />
<glyph unicode="&#x165;" horiz-adv-x="555" d="M92 229l131 744h-102l16 102h105l49 271l125 40l-56 -311h201l-18 -102h-201l-133 -760q-21 -123 45 -123q40 0 141 55l33 -98q-130 -70 -215 -70q-70 0 -107.5 57.5t-13.5 194.5zM469 1235l94 178h-53l33 182h112l-20 -186l-133 -213z" />
<glyph unicode="&#x166;" horiz-adv-x="837" d="M172 1317l23 117h737l-23 -117h-307l-131 -744h154l-15 -92h-155l-84 -481h-125l84 481h-150l17 92h149l133 744h-307z" />
<glyph unicode="&#x167;" horiz-adv-x="555" d="M80 588l16 94h76l51 291h-102l16 102h105l49 271l125 40l-56 -311h201l-18 -102h-201l-51 -291h155l-14 -94h-158l-65 -375q-21 -123 45 -123q40 0 141 55l33 -98q-130 -70 -215 -70q-70 0 -107.5 57.5t-13.5 194.5l64 359h-76z" />
<glyph unicode="&#x168;" horiz-adv-x="1038" d="M101.5 279.5q1.5 64.5 15.5 144.5l178 1010h125l-178 -1010q-9 -49 -12.5 -84.5t-3.5 -76t11 -68.5t31 -51.5t56.5 -35.5t87.5 -12q74 0 130 25t92.5 72t59 103t35.5 128l178 1010h123l-178 -1012q-18 -101 -49.5 -178.5t-83 -139.5t-130.5 -94.5t-183 -32.5 q-85 0 -145.5 22.5t-95 61t-50 96.5t-14 122.5zM479 1610q42 77 74.5 111t75.5 34q31 0 60 -25t53.5 -50t43.5 -25q16 0 35.5 19t50.5 75l58 -45q-42 -78 -74 -111.5t-76 -33.5q-32 0 -61 25t-53 50t-43 25q-17 0 -35 -17.5t-51 -74.5z" />
<glyph unicode="&#x169;" horiz-adv-x="884" d="M66 270l141 805h119l-142 -788q-34 -201 86 -201q73 0 156.5 58t146.5 126l142 805h119l-191 -1075h-117l27 154q-98 -85 -152 -118q-96 -59 -180 -59q-102 0 -140.5 78.5t-14.5 214.5zM346 1300q42 77 74.5 111.5t75.5 34.5q31 0 60 -25t53.5 -50t43.5 -25q16 0 35.5 19 t50.5 75l58 -45q-43 -79 -74.5 -112.5t-75.5 -33.5q-32 0 -61.5 25.5t-53.5 50.5t-43 25q-17 0 -35 -18t-51 -75z" />
<glyph unicode="&#x16a;" horiz-adv-x="1038" d="M101.5 279.5q1.5 64.5 15.5 144.5l178 1010h125l-178 -1010q-9 -49 -12.5 -84.5t-3.5 -76t11 -68.5t31 -51.5t56.5 -35.5t87.5 -12q74 0 130 25t92.5 72t59 103t35.5 128l178 1010h123l-178 -1012q-18 -101 -49.5 -178.5t-83 -139.5t-130.5 -94.5t-183 -32.5 q-85 0 -145.5 22.5t-95 61t-50 96.5t-14 122.5zM485 1591l19 95h409l-18 -95h-410z" />
<glyph unicode="&#x16b;" horiz-adv-x="884" d="M66 270l141 805h119l-142 -788q-34 -201 86 -201q73 0 156.5 58t146.5 126l142 805h119l-191 -1075h-117l27 154q-98 -85 -152 -118q-96 -59 -180 -59q-102 0 -140.5 78.5t-14.5 214.5zM350 1282l19 94h409l-18 -94h-410z" />
<glyph unicode="&#x16c;" horiz-adv-x="1038" d="M101.5 279.5q1.5 64.5 15.5 144.5l178 1010h125l-178 -1010q-9 -49 -12.5 -84.5t-3.5 -76t11 -68.5t31 -51.5t56.5 -35.5t87.5 -12q74 0 130 25t92.5 72t59 103t35.5 128l178 1010h123l-178 -1012q-18 -101 -49.5 -178.5t-83 -139.5t-130.5 -94.5t-183 -32.5 q-85 0 -145.5 22.5t-95 61t-50 96.5t-14 122.5zM522 1751h86q-10 -62 10 -89.5t72 -27.5q56 0 95 28.5t49 88.5h86q-17 -98 -79.5 -154.5t-158.5 -56.5q-92 0 -134.5 57.5t-25.5 153.5z" />
<glyph unicode="&#x16d;" horiz-adv-x="884" d="M66 270l141 805h119l-142 -788q-34 -201 86 -201q73 0 156.5 58t146.5 126l142 805h119l-191 -1075h-117l27 154q-98 -85 -152 -118q-96 -59 -180 -59q-102 0 -140.5 78.5t-14.5 214.5zM387 1442h86q-10 -62 10 -89.5t72 -27.5q123 0 143 117h86q-17 -98 -79.5 -154.5 t-157.5 -56.5q-92 0 -134.5 57.5t-25.5 153.5z" />
<glyph unicode="&#x16e;" horiz-adv-x="1038" d="M101.5 279.5q1.5 64.5 15.5 144.5l178 1010h125l-178 -1010q-9 -49 -12.5 -84.5t-3.5 -76t11 -68.5t31 -51.5t56.5 -35.5t87.5 -12q74 0 130 25t92.5 72t59 103t35.5 128l178 1010h123l-178 -1012q-18 -101 -49.5 -178.5t-83 -139.5t-130.5 -94.5t-183 -32.5 q-85 0 -145.5 22.5t-95 61t-50 96.5t-14 122.5zM530 1702q0 75 52.5 128.5t128.5 53.5t129 -53.5t53 -128.5q0 -76 -52.5 -129t-129.5 -53q-76 0 -128.5 52.5t-52.5 129.5zM606 1702q0 -44 30.5 -74.5t74.5 -30.5t75 30.5t31 74.5t-31 75t-75 31t-74.5 -31t-30.5 -75z" />
<glyph unicode="&#x16f;" horiz-adv-x="884" d="M66 270l141 805h119l-142 -788q-34 -201 86 -201q73 0 156.5 58t146.5 126l142 805h119l-191 -1075h-117l27 154q-98 -85 -152 -118q-96 -59 -180 -59q-102 0 -140.5 78.5t-14.5 214.5zM395 1393q0 76 52 129t128 53t129.5 -53.5t53.5 -128.5q0 -77 -53 -130t-130 -53 q-76 0 -128 53t-52 130zM471 1393q0 -44 30 -74.5t74 -30.5t75.5 30.5t31.5 74.5t-31.5 75t-75.5 31t-74 -31t-30 -75z" />
<glyph unicode="&#x170;" horiz-adv-x="1038" d="M101.5 279.5q1.5 64.5 15.5 144.5l178 1010h125l-178 -1010q-9 -49 -12.5 -84.5t-3.5 -76t11 -68.5t31 -51.5t56.5 -35.5t87.5 -12q74 0 130 25t92.5 72t59 103t35.5 128l178 1010h123l-178 -1012q-18 -101 -49.5 -178.5t-83 -139.5t-130.5 -94.5t-183 -32.5 q-85 0 -145.5 22.5t-95 61t-50 96.5t-14 122.5zM512 1540l147 262h144l-213 -262h-78zM725 1540l149 262h144l-215 -262h-78z" />
<glyph unicode="&#x171;" horiz-adv-x="884" d="M66 270l141 805h119l-142 -788q-34 -201 86 -201q73 0 156.5 58t146.5 126l142 805h119l-191 -1075h-117l27 154q-98 -85 -152 -118q-96 -59 -180 -59q-102 0 -140.5 78.5t-14.5 214.5zM375 1231l147 262h144l-213 -262h-78zM588 1231l149 262h144l-215 -262h-78z" />
<glyph unicode="&#x172;" horiz-adv-x="1038" d="M101.5 279.5q1.5 64.5 15.5 144.5l178 1010h125l-178 -1010q-9 -49 -12.5 -84.5t-3.5 -76t11 -68.5t31 -51.5t56.5 -35.5t87.5 -12q74 0 130 25t92.5 72t59 103t35.5 128l178 1010h123l-178 -1012q-63 -359 -309 -426q-87 -64 -126.5 -113.5t-39.5 -101.5q0 -17 6 -28 t13.5 -17t23 -8.5t24 -3t25.5 -0.5h4.5h3.5l-31 -91q-22 0 -36.5 1t-41 7.5t-43 18.5t-29.5 37t-13 61q0 124 139 219h-16q-85 0 -145.5 22.5t-95 61t-50 96.5t-14 122.5z" />
<glyph unicode="&#x173;" horiz-adv-x="884" d="M66 270l141 805h119l-142 -788q-34 -201 86 -201q73 0 156.5 58t146.5 126l142 805h119l-191 -1075h-6q-91 -66 -131.5 -116t-40.5 -103q0 -17 6 -28t13.5 -17t23 -8.5t24 -3t25.5 -0.5h8l-30 -91q-22 0 -36.5 1t-41.5 7.5t-43.5 18.5t-29.5 37t-13 61q0 134 174 242h-19 l27 154q-98 -85 -152 -118q-96 -59 -180 -59q-102 0 -140.5 78.5t-14.5 214.5z" />
<glyph unicode="&#x174;" horiz-adv-x="1351" d="M205 1434h135l-10 -1209l428 1209h114l-2 -1207l414 1207h141l-520 -1434h-133l2 1188l-420 -1188h-131zM631 1540l184 262h137l90 -262h-79l-89 184l-149 -184h-94z" />
<glyph unicode="&#x175;" horiz-adv-x="1171" d="M141 1075h123l10 -889l338 889h103l20 -880l322 880h129l-418 -1075h-117l-22 868l-332 -868h-117zM483 1231l185 262h137l90 -262h-80l-88 184l-149 -184h-95z" />
<glyph unicode="&#x177;" horiz-adv-x="804" d="M-53 -315q116 53 173.5 110.5t112.5 177.5l-102 1102h123l61 -909l385 909h131l-479 -1075q-80 -176 -117 -233q-59 -89 -157 -144q-44 -24 -105 -49zM303 1231l184 262h138l90 -262h-80l-88 184l-150 -184h-94z" />
<glyph unicode="&#x178;" horiz-adv-x="917" d="M180 1434h129l156 -742l409 742h142l-508 -863l-100 -571h-123l98 571zM442 1561l33 176h117l-31 -176h-119zM682 1561l31 176h116l-30 -176h-117z" />
<glyph unicode="&#x179;" horiz-adv-x="894" d="M-37 0l21 109l788 1208h-545l21 117h700l-20 -107l-791 -1210h590l-20 -117h-744zM504 1540l211 262h170l-275 -262h-106z" />
<glyph unicode="&#x17a;" horiz-adv-x="741" d="M-37 0l21 104l604 861h-445l25 110h577l-20 -104l-602 -860h457l-25 -111h-592zM365 1231l210 262h170l-274 -262h-106z" />
<glyph unicode="&#x17b;" horiz-adv-x="894" d="M-37 0l21 109l788 1208h-545l21 117h700l-20 -107l-791 -1210h590l-20 -117h-744zM561 1561l33 178h121l-33 -178h-121z" />
<glyph unicode="&#x17c;" horiz-adv-x="741" d="M-37 0l21 104l604 861h-445l25 110h577l-20 -104l-602 -860h457l-25 -111h-592zM420 1251l33 179h120l-32 -179h-121z" />
<glyph unicode="&#x17d;" horiz-adv-x="894" d="M-37 0l21 109l788 1208h-545l21 117h700l-20 -107l-791 -1210h590l-20 -117h-744zM455 1802h82l90 -182l147 182h94l-184 -262h-137z" />
<glyph unicode="&#x17e;" horiz-adv-x="741" d="M-37 0l21 104l604 861h-445l25 110h577l-20 -104l-602 -860h457l-25 -111h-592zM315 1493h82l90 -182l148 182h94l-184 -262h-137z" />
<glyph unicode="&#x17f;" horiz-adv-x="462" d="M-162 -324q27 11 47.5 20.5t39 22t31 20t25 24.5t19.5 25t15 31.5t12 34.5t11 43.5t10 50t11 60.5l170 965h-102l23 102h98l33 180q20 122 65 180t121 58q94 0 227 -70l-59 -90q-104 47 -152 47q-62 0 -84 -123l-221 -1245q-16 -91 -23.5 -130.5t-24.5 -92.5t-33.5 -74 t-50.5 -50.5t-76 -48t-109 -42.5z" />
<glyph unicode="&#x192;" horiz-adv-x="782" d="M-113 -418l465 1391h-104l43 102h96l62 180q43 134 94.5 186t122.5 52q60 0 123.5 -26.5t105.5 -55.5l-74 -84q-109 53 -151 53q-30 0 -54 -27t-47 -91l-63 -187h205l-41 -102h-197l-463 -1391h-123z" />
<glyph unicode="&#x1fc;" horiz-adv-x="1441" d="M-100 0l921 1434h664l-25 -117h-493l-95 -543h410l-20 -115h-410l-98 -542h510l-23 -117h-631l66 373h-387l-234 -373h-155zM360 487h336l131 746zM831 1540l211 262h170l-274 -262h-107z" />
<glyph unicode="&#x1fd;" horiz-adv-x="1343" d="M68 305q0 205 47.5 385t138.5 294t205 114q39 0 74.5 -15.5t66 -47.5t49.5 -56t45 -64l29 160h119l-8 -51q96 74 215 74q109 0 171 -64t62 -178q0 -171 -132 -279t-370 -108h-65q-2 -25 -2 -74q0 -311 155 -311q14 0 29.5 3t29 7t31 12t29 13.5t30.5 17.5t27.5 17.5 t27.5 19.5t24 18t23.5 18t19.5 15l51 -88q-42 -35 -87 -66t-120 -62.5t-139 -31.5q-117 0 -180 97l-13 -74h-119l31 178q-162 -201 -299 -201q-88 0 -142 82.5t-54 245.5zM190 324q0 -111 28.5 -173.5t84.5 -62.5q72 0 140 56.5t143 156.5l6 35q-2 18 -2 61q0 232 80 412 q-39 78 -90 128t-107 50q-82 0 -148.5 -106.5t-100.5 -257t-34 -299.5zM688 1231l211 262h170l-274 -262h-107zM725 563h68q92 0 165.5 25t118 66.5t67.5 92t23 105.5q0 70 -36 105.5t-95 35.5q-113 0 -198 -119t-113 -311z" />
<glyph unicode="&#x1fe;" horiz-adv-x="1099" d="M18 0l129 188q-38 93 -38 240q0 28 3 72.5t11.5 114t21.5 143t35.5 157t51.5 159.5t71 146.5t92 122t117.5 82.5t144.5 31q180 0 275 -119l65 97h103l-121 -177q45 -98 45 -251q0 -28 -3 -72.5t-11.5 -114t-21.5 -143.5t-36 -157t-51.5 -159.5t-71 -147t-92.5 -122 t-117.5 -82.5t-144.5 -31q-185 0 -280 127l-72 -104h-105zM236 424q0 -52 6 -96l612 895q-63 116 -197 116q-74 0 -137 -46.5t-105 -119.5t-75.5 -167.5t-52 -185t-31 -178t-16.5 -140.5t-4 -78zM274 221q61 -127 203 -127q74 0 136.5 46.5t104.5 119.5t75.5 167.5t53 185.5 t32 178t16.5 140.5t4 78.5q0 57 -10 112zM598 1540l211 262h170l-274 -262h-107z" />
<glyph unicode="&#x1ff;" d="M6 0l100 143q-38 81 -38 209q0 67 9.5 142.5t28.5 161.5t53.5 163t80 140.5t112.5 101t146 37.5q136 0 213 -94l51 71h92l-98 -141q39 -83 39 -213q0 -81 -12.5 -173t-44 -195.5t-78 -185.5t-123 -136t-170.5 -54q-137 0 -217 95l-50 -72h-94zM186 340q0 -30 4 -76 l451 639q-49 88 -143 88q-72 0 -129.5 -55.5t-90.5 -135t-55 -175.5t-29.5 -166.5t-7.5 -118.5zM219 170q48 -86 146 -86q72 0 129.5 55.5t90 135t54.5 175.5t29.5 166.5t7.5 118.5q0 43 -6 78zM434 1231l211 262h170l-274 -262h-107z" />
<glyph unicode="&#x218;" horiz-adv-x="901" d="M6 131l80 96q170 -133 299 -133q109 0 184.5 72t75.5 192q0 44 -13 85t-29.5 70t-50.5 65t-57 57t-69 59q-60 51 -95.5 86t-73.5 84.5t-55.5 104t-17.5 118.5q0 164 107 266.5t264 102.5q169 0 346 -119l-78 -96q-146 98 -268 98q-98 0 -169 -66t-71 -183 q0 -85 43.5 -144t153.5 -153q50 -44 81 -73t69.5 -73.5t60 -83.5t36.5 -91.5t15 -109.5q0 -173 -116 -279t-277 -106q-190 0 -375 154zM190 -494l95 179h-54l33 182h113l-21 -186l-133 -213z" />
<glyph unicode="&#x219;" horiz-adv-x="755" d="M-6 113l72 86q138 -115 245 -115q75 0 131 48t56 142q0 39 -10.5 70t-38 61t-49 47.5t-70.5 53.5q-51 37 -80 62t-62.5 64t-49 83.5t-15.5 99.5q0 129 85 206t210 77q84 0 161 -34.5t130 -80.5l-70 -84q-115 92 -219 92q-70 0 -122 -43t-52 -125q0 -41 13 -75.5 t41.5 -63.5t46.5 -43.5t54 -38.5q110 -78 166 -152t56 -178q0 -135 -90 -215t-216 -80q-161 0 -323 136zM115 -494l94 179h-53l32 182h113l-20 -186l-134 -213z" />
<glyph unicode="&#x21a;" horiz-adv-x="821" d="M150 -494l94 179h-54l33 182h113l-21 -186l-133 -213zM166 1317l22 117h738l-23 -117h-307l-231 -1317h-125l233 1317h-307z" />
<glyph unicode="&#x21b;" horiz-adv-x="555" d="M-4 -494l94 179h-53l33 182h112l-20 -186l-133 -213zM92 229l131 744h-102l16 102h105l49 271l125 40l-56 -311h201l-18 -102h-201l-133 -760q-21 -123 45 -123q40 0 141 55l33 -98q-130 -70 -215 -70q-70 0 -107.5 57.5t-13.5 194.5z" />
<glyph unicode="&#x2b0;" horiz-adv-x="595" d="M127 788l158 895h90l-62 -340q38 31 58.5 47t64.5 37t82 21q64 0 89.5 -48.5t10.5 -133.5l-81 -478h-95l82 463q4 30 4.5 56t-12.5 42.5t-41 16.5q-41 0 -90 -32.5t-86 -71.5l-82 -474h-90z" />
<glyph unicode="&#x2b2;" horiz-adv-x="321" d="M10 606q78 32 99 58.5t32 93.5l119 676h92l-116 -672q-9 -48 -15 -71t-19.5 -51.5t-34 -44.5t-54 -33t-84.5 -34zM281 1563l20 118h98l-20 -118h-98z" />
<glyph unicode="&#x2b7;" horiz-adv-x="733" d="M176 1434h94l4 -512l199 512h74l14 -510l184 510h101l-258 -646h-86l-17 500l-194 -500h-86z" />
<glyph unicode="&#x2b8;" horiz-adv-x="534" d="M80 610q68 29 104 60.5t66 93.5l-68 670h97l36 -521l222 521h100l-295 -646q-17 -36 -23.5 -51t-20.5 -42.5t-22.5 -38.5t-23 -31t-28 -29.5t-32.5 -23.5t-41.5 -24t-50.5 -20z" />
<glyph unicode="&#x2c6;" horiz-adv-x="389" d="M205 1231l184 262h137l90 -262h-79l-88 184l-150 -184h-94z" />
<glyph unicode="&#x2c7;" horiz-adv-x="391" d="M252 1493h82l90 -182l147 182h95l-185 -262h-137z" />
<glyph unicode="&#x2d8;" horiz-adv-x="378" d="M248 1442h86q-10 -62 10 -89.5t72 -27.5q56 0 94.5 28.5t48.5 88.5h86q-17 -98 -79.5 -154.5t-157.5 -56.5q-92 0 -134.5 57.5t-25.5 153.5z" />
<glyph unicode="&#x2d9;" horiz-adv-x="114" d="M217 1251l33 179h121l-33 -179h-121z" />
<glyph unicode="&#x2da;" horiz-adv-x="380" d="M156 1393q0 76 52 129t128 53t129 -53.5t53 -128.5q0 -77 -53 -130t-129 -53t-128 53t-52 130zM231 1393q0 -44 30.5 -74.5t74.5 -30.5t75 30.5t31 74.5t-31 75t-75 31t-74.5 -31t-30.5 -75z" />
<glyph unicode="&#x2db;" horiz-adv-x="212" d="M-55 -242q0 81 54.5 143.5t158.5 121.5l57 -21q-93 -68 -134.5 -118t-41.5 -103q0 -17 6 -28t13.5 -17t23 -8.5t24 -3t25.5 -0.5h8l-30 -91q-22 0 -36.5 1t-41.5 7.5t-43.5 18.5t-29.5 37t-13 61z" />
<glyph unicode="&#x2dc;" horiz-adv-x="411" d="M217 1300q42 77 74.5 111.5t75.5 34.5q31 0 60 -25t53.5 -50t43.5 -25q16 0 35.5 19t50.5 75l58 -45q-43 -79 -74.5 -112.5t-75.5 -33.5q-32 0 -61.5 25.5t-53.5 50.5t-43 25q-17 0 -35 -18t-51 -75z" />
<glyph unicode="&#x2dd;" horiz-adv-x="440" d="M207 1231l147 262h144l-213 -262h-78zM420 1231l149 262h144l-215 -262h-78z" />
<glyph unicode="&#x2e3;" horiz-adv-x="563" d="M70 788l245 322l-120 324h100l80 -254l174 254h113l-240 -320l133 -326h-100l-88 263l-181 -263h-116z" />
<glyph unicode="&#x3c0;" horiz-adv-x="802" d="M59 0l170 958h-116l18 117h698l-18 -117h-127l-170 -958h-108l169 958h-235l-170 -958h-111z" />
<glyph unicode="&#x1e80;" horiz-adv-x="1351" d="M205 1434h135l-10 -1209l428 1209h114l-2 -1207l414 1207h141l-520 -1434h-133l2 1188l-420 -1188h-131zM662 1802h151l131 -262h-92z" />
<glyph unicode="&#x1e81;" horiz-adv-x="1171" d="M141 1075h123l10 -889l338 889h103l20 -880l322 880h129l-418 -1075h-117l-22 868l-332 -868h-117zM518 1493h152l131 -262h-92z" />
<glyph unicode="&#x1e82;" horiz-adv-x="1351" d="M205 1434h135l-10 -1209l428 1209h114l-2 -1207l414 1207h141l-520 -1434h-133l2 1188l-420 -1188h-131zM721 1540l211 262h170l-275 -262h-106z" />
<glyph unicode="&#x1e83;" horiz-adv-x="1171" d="M141 1075h123l10 -889l338 889h103l20 -880l322 880h129l-418 -1075h-117l-22 868l-332 -868h-117zM580 1231l211 262h170l-275 -262h-106z" />
<glyph unicode="&#x1e84;" horiz-adv-x="1351" d="M205 1434h135l-10 -1209l428 1209h114l-2 -1207l414 1207h141l-520 -1434h-133l2 1188l-420 -1188h-131zM657 1538l33 176h117l-31 -176h-119zM897 1538l31 176h116l-30 -176h-117z" />
<glyph unicode="&#x1e85;" horiz-adv-x="1171" d="M141 1075h123l10 -889l338 889h103l20 -880l322 880h129l-418 -1075h-117l-22 868l-332 -868h-117zM518 1251l33 176h117l-31 -176h-119zM758 1251l30 176h117l-31 -176h-116z" />
<glyph unicode="&#x1e9e;" horiz-adv-x="1167" d="M51 0l180 1026q39 221 137 314.5t244 93.5h486l-17 -97l-379 -491q92 -12 162 -51.5t111 -96.5t61.5 -121t20.5 -133q0 -82 -27.5 -162.5t-78 -149.5t-134.5 -112t-186 -43q-164 0 -324 113l72 96q129 -92 248 -92q94 0 164.5 54t103.5 132t33 162q0 40 -7.5 77.5t-29 78 t-55 70t-91 48.5t-131.5 19h-75l16 96l373 486h-318q-99 0 -164 -71.5t-94 -237.5l-178 -1008h-123z" />
<glyph unicode="&#x1ef2;" horiz-adv-x="917" d="M180 1434h129l156 -742l409 742h142l-508 -863l-100 -571h-123l98 571zM444 1802h152l131 -262h-92z" />
<glyph unicode="&#x1ef3;" horiz-adv-x="804" d="M-53 -315q116 53 173.5 110.5t112.5 177.5l-102 1102h123l61 -909l385 909h131l-479 -1075q-80 -176 -117 -233q-59 -89 -157 -144q-44 -24 -105 -49zM334 1493h151l131 -262h-92z" />
<glyph unicode="&#x2000;" horiz-adv-x="942" />
<glyph unicode="&#x2001;" horiz-adv-x="1884" />
<glyph unicode="&#x2002;" horiz-adv-x="942" />
<glyph unicode="&#x2003;" horiz-adv-x="1884" />
<glyph unicode="&#x2004;" horiz-adv-x="628" />
<glyph unicode="&#x2005;" horiz-adv-x="471" />
<glyph unicode="&#x2006;" horiz-adv-x="314" />
<glyph unicode="&#x2007;" horiz-adv-x="314" />
<glyph unicode="&#x2008;" horiz-adv-x="235" />
<glyph unicode="&#x2009;" horiz-adv-x="376" />
<glyph unicode="&#x200a;" horiz-adv-x="104" />
<glyph unicode="&#x2010;" horiz-adv-x="655" d="M113 526l20 113h397l-18 -113h-399z" />
<glyph unicode="&#x2011;" horiz-adv-x="655" d="M113 526l20 113h397l-18 -113h-399z" />
<glyph unicode="&#x2012;" horiz-adv-x="655" d="M113 526l20 113h397l-18 -113h-399z" />
<glyph unicode="&#x2013;" horiz-adv-x="837" d="M113 526l20 113h582l-21 -113h-581z" />
<glyph unicode="&#x2014;" horiz-adv-x="980" d="M113 526l18 113h727l-20 -113h-725z" />
<glyph unicode="&#x2018;" horiz-adv-x="374" d="M184 999l25 226l162 241l35 -43l-109 -206h61l-36 -218h-138z" />
<glyph unicode="&#x2019;" horiz-adv-x="364" d="M176 1010l109 207h-62l37 217h137l-24 -226l-162 -241z" />
<glyph unicode="&#x201a;" horiz-adv-x="389" d="M-27 -207l109 207h-62l37 217h138l-25 -225l-162 -242z" />
<glyph unicode="&#x201c;" horiz-adv-x="630" d="M184 999l25 226l162 241l35 -43l-109 -206h61l-36 -218h-138zM442 999l25 226l162 241l35 -43l-109 -206h61l-36 -218h-138z" />
<glyph unicode="&#x201d;" horiz-adv-x="622" d="M176 1010l109 207h-62l37 217h137l-24 -226l-162 -241zM434 1010l109 207h-62l37 217h137l-24 -226l-162 -241z" />
<glyph unicode="&#x201e;" horiz-adv-x="647" d="M-27 -207l109 207h-62l37 217h138l-25 -225l-162 -242zM231 -207l109 207h-61l36 217h138l-25 -225l-162 -242z" />
<glyph unicode="&#x2020;" horiz-adv-x="827" d="M90 823l21 119l307 -16l90 508h94l-90 -508l319 16l-22 -119l-313 17l-222 -1258h-94l221 1256z" />
<glyph unicode="&#x2021;" horiz-adv-x="903" d="M35 287l20 119l307 -17l80 449l-313 -15l21 119l309 -16l90 508h94l-90 -508l317 16l-22 -119l-309 17l-80 -451l317 17l-22 -119l-312 16l-127 -721h-94l127 719z" />
<glyph unicode="&#x2022;" horiz-adv-x="792" d="M152 584q0 99 70 169t169 70q98 0 168 -70.5t70 -168.5t-70 -168t-168 -70q-99 0 -169 70t-70 168z" />
<glyph unicode="&#x2026;" horiz-adv-x="960" d="M20 0l39 217h138l-39 -217h-138zM307 0l39 217h137l-39 -217h-137zM594 0l39 217h137l-39 -217h-137z" />
<glyph unicode="&#x202f;" horiz-adv-x="376" />
<glyph unicode="&#x2030;" horiz-adv-x="2017" d="M147 983q0 53 8 111t29 124t52.5 118t84 86t117.5 34q44 0 84.5 -15.5t76 -48.5t56.5 -92.5t21 -138.5q0 -53 -8 -111t-29 -124t-52.5 -118t-84 -86t-117.5 -34q-44 0 -84 15.5t-75.5 48.5t-57 92.5t-21.5 138.5zM250 967q0 -57 13.5 -97.5t36 -59.5t44 -26.5t43.5 -7.5 q43 0 77 31.5t54 77.5t33.5 103.5t18.5 104.5t5 85q0 57 -13.5 97.5t-36.5 59t-43.5 26t-43.5 7.5q-43 0 -77.5 -31.5t-54.5 -77.5t-33.5 -103.5t-18 -104t-4.5 -84.5zM295 0l764 1434h104l-764 -1434h-104zM782 272q0 53 8 111t29 124t52.5 118t84.5 86t119 34 q44 0 83.5 -15.5t75 -48t56.5 -92t21 -138.5q0 -43 -6 -91t-18.5 -103t-35.5 -103.5t-53.5 -89t-76.5 -64t-101 -23.5q-44 0 -84 15.5t-75.5 48.5t-57 92.5t-21.5 138.5zM885 256q0 -57 13.5 -97.5t36.5 -59t43.5 -26t43.5 -7.5q43 0 77.5 31.5t54.5 77.5t33.5 103.5t18 104 t4.5 84.5q0 57 -13.5 97.5t-36.5 59t-43.5 26t-43.5 7.5q-43 0 -77.5 -31.5t-54.5 -77.5t-33.5 -103.5t-18 -104t-4.5 -84.5zM1374 272q0 53 8 111t29 124t52.5 118t84.5 86t119 34q44 0 83.5 -15.5t75 -48t56.5 -92t21 -138.5q0 -43 -6 -91t-18.5 -103t-35.5 -103.5 t-53.5 -89t-76.5 -64t-101 -23.5q-44 0 -84 15.5t-75.5 48.5t-57 92.5t-21.5 138.5zM1477 256q0 -57 13.5 -97.5t36.5 -59t43.5 -26t43.5 -7.5q43 0 77.5 31.5t54.5 77.5t33.5 103.5t18 104t4.5 84.5q0 57 -13.5 97.5t-36.5 59t-43.5 26t-43.5 7.5q-43 0 -77.5 -31.5 t-54.5 -77.5t-33.5 -103.5t-18 -104t-4.5 -84.5z" />
<glyph unicode="&#x2039;" horiz-adv-x="589" d="M51 535l15 88l505 460l-30 -168l-387 -350l266 -346l-27 -145z" />
<glyph unicode="&#x203a;" horiz-adv-x="589" d="M6 72l31 168l387 350l-266 346l26 145l342 -460l-14 -89z" />
<glyph unicode="&#x2044;" horiz-adv-x="221" d="M-279 0l715 1434h99l-715 -1434h-99z" />
<glyph unicode="&#x205f;" horiz-adv-x="471" />
<glyph unicode="&#x2070;" horiz-adv-x="651" d="M176 1032q0 34 4.5 84t15.5 125t34 146t55.5 134.5t85.5 102.5t118 39q90 0 144.5 -64.5t54.5 -193.5q0 -34 -4.5 -84t-15.5 -125t-34 -146t-55.5 -134.5t-85.5 -102.5t-118 -39q-91 0 -145 64t-54 194zM270 1022q0 -164 105 -164q51 0 91.5 52t63.5 124t38.5 155.5 t20.5 139.5t5 84q0 166 -107 166q-50 0 -90.5 -52t-63 -124t-38 -156t-20.5 -140.5t-5 -84.5z" />
<glyph unicode="&#x2074;" horiz-adv-x="618" d="M117 979l14 78l391 592h127l-102 -582h92l-16 -88h-93l-32 -191h-92l32 191h-321zM225 1067h230l82 471z" />
<glyph unicode="&#x2075;" horiz-adv-x="577" d="M111 872l55 68q1 -1 9 -8t12.5 -11.5t14.5 -12.5t18 -13t19.5 -11.5t22 -10.5t23.5 -6.5t26 -2.5q67 0 120.5 64t53.5 170q0 67 -27.5 108t-78.5 41q-64 0 -129 -55l-49 31l106 426h350l-16 -88h-270l-56 -248q46 22 95 22q83 0 128.5 -64.5t45.5 -166.5 q0 -135 -75 -232.5t-194 -97.5q-111 0 -204 98z" />
<glyph unicode="&#x2076;" horiz-adv-x="616" d="M168 1057q0 155 55 294.5t152.5 225.5t212.5 86q26 0 50.5 -5.5t35.5 -10.5l12 -5l-39 -79q-26 12 -61 12q-99 0 -180.5 -95t-118.5 -237q69 96 166 96q82 0 127 -66.5t45 -162.5q0 -130 -70 -233t-182 -103q-99 0 -152 83t-53 200zM262 1057q0 -82 28 -138.5t83 -56.5 q69 0 112 74t43 170q0 62 -25.5 105.5t-78.5 43.5q-51 0 -96.5 -43t-63.5 -90q-2 -23 -2 -65z" />
<glyph unicode="&#x2077;" horiz-adv-x="501" d="M166 788q18 103 59 218.5t82.5 201.5t92 172.5t74 121.5t40.5 59h-299l14 88h410l-14 -78q-12 -16 -32 -44.5t-73.5 -116.5t-98 -176.5t-90 -211.5t-65.5 -234h-100z" />
<glyph unicode="&#x2078;" horiz-adv-x="616" d="M137 973q0 54 19 100t53.5 80t65.5 56t73 44q-90 78 -90 185q0 98 65 161.5t164 63.5q87 0 131 -51t44 -123q0 -142 -168 -240q124 -90 124 -219q0 -114 -77.5 -185t-194.5 -71q-96 0 -152.5 53t-56.5 146zM233 981q0 -61 33 -92t86 -31q70 0 120 48.5t50 125.5 q0 58 -28 96.5t-78 75.5q-89 -51 -136 -100t-47 -123zM346 1432q0 -78 80 -140q143 78 143 191q0 43 -23 70.5t-67 27.5q-57 0 -95 -44.5t-38 -104.5z" />
<glyph unicode="&#x2079;" horiz-adv-x="614" d="M141 795l39 79q27 -12 62 -12q98 0 179.5 95t119.5 239q-76 -98 -168 -98q-80 0 -125 66.5t-45 160.5q0 84 29.5 160t89 127t135.5 51q98 0 150 -83t52 -200q0 -155 -55.5 -294.5t-152.5 -225.5t-209 -86q-28 0 -53.5 5t-36.5 11zM299 1331q0 -62 25 -106.5t77 -44.5 q54 0 103 50t57 85q4 36 4 65q0 82 -28 138.5t-82 56.5q-69 0 -112.5 -74t-43.5 -170z" />
<glyph unicode="&#x207a;" horiz-adv-x="569" d="M160 1159l12 78h186l37 207h72l-37 -207h188l-14 -78h-188l-37 -207h-72l37 207h-184z" />
<glyph unicode="&#x207d;" horiz-adv-x="344" d="M129.5 740.5q-0.5 41.5 9.5 101.5l133 753q10 55 18.5 81.5t29.5 56t57.5 48.5t99.5 38l15 -70q-71 -30 -92.5 -56.5t-32.5 -90.5l-136 -773q-12 -46 -8.5 -74t17.5 -41.5t55 -35.5l-29 -66q-74 26 -105 56.5t-31.5 72z" />
<glyph unicode="&#x207e;" horiz-adv-x="344" d="M63 682q71 30 92.5 56.5t32.5 90.5l136 773q12 46 8.5 74t-17.5 41.5t-55 35.5l29 66q74 -26 105 -56.5t31.5 -72t-9.5 -101.5l-133 -753q-10 -55 -18.5 -81.5t-29.5 -56t-57.5 -48.5t-99.5 -38z" />
<glyph unicode="&#x207f;" horiz-adv-x="595" d="M127 788l115 646h90l-17 -88q117 102 203 102q64 0 89.5 -48.5t10.5 -133.5l-81 -478h-93l82 463q20 115 -51 115q-75 0 -174 -104l-84 -474h-90z" />
<glyph unicode="&#x2080;" horiz-adv-x="651" d="M-16 -63q0 28 3 68t11.5 102t22 122t38.5 122.5t56 109t78.5 76.5t103.5 30q90 0 144.5 -64.5t54.5 -193.5q0 -33 -4.5 -83.5t-15.5 -125.5t-34.5 -146t-56 -134.5t-85.5 -102.5t-118 -39q-91 0 -144.5 64.5t-53.5 194.5zM78 -74q0 -164 104 -164q51 0 91.5 52t63.5 124 t38.5 155.5t20.5 139.5t5 84q0 166 -106 166q-50 0 -90.5 -52t-63 -124t-38 -156t-20.5 -140.5t-5 -84.5z" />
<glyph unicode="&#x2081;" horiz-adv-x="440" d="M4 438l174 115h88l-153 -860h-95l132 747l-109 -69z" />
<glyph unicode="&#x2082;" horiz-adv-x="575" d="M-96 -307l12 67q11 66 32.5 118t63 99.5t63 68t80.5 68.5q10 9 15 13q92 76 138 132.5t46 119.5q2 42 -22.5 70t-73.5 28q-80 0 -164 -65l-37 73q105 82 213 82q83 0 132 -47t49 -131q0 -32 -8 -63t-19 -56.5t-31.5 -53.5t-36.5 -46.5t-42.5 -43.5t-41.5 -38t-42.5 -35 t-36.5 -30q-72 -61 -110.5 -115t-51.5 -127h317l-14 -88h-430z" />
<glyph unicode="&#x2083;" horiz-adv-x="579" d="M-92 -236l57 70q86 -65 156 -65q72 0 121 54t49 134q0 79 -50 119.5t-120 40.5h-15l17 90h22q68 0 130.5 55t62.5 127q0 42 -24.5 65t-67.5 23q-73 0 -154 -59l-35 71q117 78 211 78q79 0 122.5 -45t43.5 -114q0 -71 -46 -138.5t-130 -105.5q57 -19 93 -74.5t36 -132.5 q0 -52 -17.5 -101t-49.5 -89t-83.5 -64.5t-113.5 -24.5q-117 0 -215 86z" />
<glyph unicode="&#x2084;" horiz-adv-x="616" d="M-78 -117l15 78l391 592h127l-103 -582h92l-16 -88h-92l-33 -190h-92l33 190h-322zM31 -29h229l82 471z" />
<glyph unicode="&#x2085;" horiz-adv-x="575" d="M-84 -223l55 67q1 -1 8 -7.5t10.5 -9.5t12.5 -10.5t15.5 -11.5t16.5 -10.5t19 -10.5t19.5 -7.5t22 -5.5t22.5 -2q67 0 120.5 63.5t53.5 169.5q0 67 -28 108.5t-79 41.5q-63 0 -129 -56l-49 31l107 426h350l-17 -88h-270l-55 -248q48 23 94 23q83 0 128.5 -65t45.5 -167 q0 -136 -74.5 -233t-193.5 -97q-111 0 -205 99z" />
<glyph unicode="&#x2086;" horiz-adv-x="616" d="M-27 -39q0 155 55 294.5t152.5 225.5t212.5 86q26 0 51 -5t36 -10l12 -5l-39 -80q-27 12 -62 12q-99 0 -180.5 -95t-118.5 -237q69 97 166 97q82 0 127 -67t45 -163q0 -130 -70 -233t-182 -103q-99 0 -152 83t-53 200zM68 -39q0 -82 27.5 -138t82.5 -56q69 0 112.5 73.5 t43.5 169.5q0 62 -26 106t-79 44q-51 0 -96 -43t-63 -90q-2 -23 -2 -66z" />
<glyph unicode="&#x2087;" horiz-adv-x="499" d="M-29 -307q22 127 74.5 265t116.5 250.5t98 167t59 89.5h-299l15 88h409l-14 -78q-12 -16 -31.5 -44.5t-73 -116.5t-98 -176t-90 -211t-65.5 -234h-101z" />
<glyph unicode="&#x2088;" horiz-adv-x="616" d="M-55 -123q0 54 19 100t53 80t66 56.5t73 44.5q-90 78 -90 184q0 98 65 161.5t164 63.5q87 0 130.5 -51t43.5 -123q0 -141 -168 -239q125 -91 125 -220q0 -114 -77.5 -185t-194.5 -71q-96 0 -152.5 53t-56.5 146zM41 -115q0 -61 33 -92t86 -31q70 0 120 49t50 126 q0 58 -28.5 96.5t-78.5 75.5q-88 -50 -135 -100t-47 -124zM154 336q0 -78 79 -139q144 78 144 190q0 43 -23 70.5t-67 27.5q-57 0 -95 -44.5t-38 -104.5z" />
<glyph unicode="&#x2089;" horiz-adv-x="614" d="M-51 -301l39 80q26 -12 61 -12q98 0 179.5 95t119.5 238q-76 -98 -168 -98q-80 0 -125 66.5t-45 160.5q0 84 29.5 160t89 127t135.5 51q98 0 150.5 -82.5t52.5 -199.5q0 -155 -55.5 -295t-153 -226t-209.5 -86q-28 0 -53 5t-36 11zM106 236q0 -62 25.5 -107t77.5 -45 q54 0 103 50t57 85q4 37 4 66q0 81 -28.5 137.5t-82.5 56.5q-69 0 -112.5 -73.5t-43.5 -169.5z" />
<glyph unicode="&#x208a;" horiz-adv-x="569" d="M-35 63l12 78h187l37 207h71l-36 -207h188l-14 -78h-189l-37 -206h-71l37 206h-185z" />
<glyph unicode="&#x208d;" horiz-adv-x="346" d="M-62.5 -355.5q-0.5 41.5 9.5 101.5l133 754q8 44 14 66.5t19.5 49.5t34 43t54 32.5t83.5 31.5l14 -70q-71 -30 -92.5 -56.5t-32.5 -90.5l-135 -772q-14 -73 -4.5 -97.5t67.5 -54.5l-28 -65q-74 26 -105 56t-31.5 71.5z" />
<glyph unicode="&#x208e;" horiz-adv-x="342" d="M-131 -414q71 30 92.5 57t32.5 91l135 772q14 73 4.5 97t-67.5 54l28 66q74 -26 105 -56t31.5 -71.5t-9.5 -101.5l-133 -754q-8 -44 -14 -66.5t-19.5 -49.5t-34 -43t-54 -32.5t-83.5 -31.5z" />
<glyph unicode="&#x20a1;" horiz-adv-x="829" d="M117 555q0 165 37 305.5t96 229.5t130.5 138.5t143.5 49.5q13 0 37 -4l53 160h70l-59 -177l47 -24l67 201h70l-80 -242q50 -42 88 -84l-72 -78l-53 53l-266 -807q22 7 45.5 18.5t49 28.5t40.5 27.5t40.5 30t27.5 20.5l53 -94q-1 -1 -25 -18.5t-32 -22.5t-32.5 -21.5 t-38.5 -24t-38.5 -20t-42.5 -19t-41.5 -13t-44.5 -8.5l-53 -160h-72l53 162q-26 6 -49 18l-59 -180h-72l76 225q-94 105 -94 330zM236 563q0 -115 24 -186l264 786q-113 -11 -200.5 -183t-87.5 -417zM307 299q19 -19 47 -25l283 854q-22 16 -47 25z" />
<glyph unicode="&#x20a4;" horiz-adv-x="823" d="M6 0l17 98q6 5 16 15.5t38 44t53.5 69t56 89t51.5 106.5h-142l17 94h153q15 62 15 129v23h-142l19 96h112q-4 28 -17 97t-19.5 119.5t-6.5 98.5q0 169 88.5 273t231.5 104q51 0 97 -12.5t88.5 -39.5t64 -43.5t59.5 -49.5l-76 -82q-133 110 -221 110q-84 0 -147.5 -70.5 t-63.5 -199.5q0 -44 7.5 -93t20 -112t17.5 -100h258l-16 -96h-234v-17q0 -60 -14 -135h221l-16 -94h-230q-58 -174 -176 -305h445l-21 -117h-604z" />
<glyph unicode="&#x20a7;" horiz-adv-x="995" d="M70 0l170 961h-43l16 81h41l70 392h294q171 0 263 -78t92 -240q0 -28 -4 -74h37l-17 -81h-33q-40 -189 -177 -288.5t-337 -99.5h-147l-102 -573h-123zM315 690h142q131 0 231 69.5t137 201.5h-463zM377 1042h463q4 36 4 62q0 213 -236 213h-182z" />
<glyph unicode="&#x20a9;" horiz-adv-x="1466" d="M80 487l16 99h176l-4 258h-125l17 96h108l-6 494h135l-4 -494h246l176 494h115l-2 -494h243l170 494h142l-180 -494h116l-18 -96h-133l-92 -258h180l-19 -99h-198l-176 -487h-134l2 1188l-419 -1188h-131l-9 487h-192zM387 223l92 264h-90zM389 586h125l92 258h-215z M928 227l88 260h-88v-260zM928 586h123l88 258h-211v-258z" />
<glyph unicode="&#x20ac;" horiz-adv-x="1028" d="M68 492l18 94h82q5 103 31 250h-70l18 94h74q65 241 191.5 383.5t281.5 142.5q54 0 104 -18t96 -55t76 -66.5t72 -77.5l-79 -84q-73 91 -137 135.5t-128 44.5q-105 0 -197 -110t-147 -295h410l-16 -94h-418q-25 -110 -35 -250h407l-16 -94h-393v-9q0 -196 49 -290.5 t133 -94.5q117 0 322 181l63 -97q-79 -62 -134 -100t-132.5 -71.5t-142.5 -33.5q-133 0 -209 127.5t-76 382.5v5h-98z" />
<glyph unicode="&#x2116;" horiz-adv-x="1650" d="M68 0l254 1434h127l288 -1201l213 1201h123l-252 -1434h-129l-291 1198l-211 -1198h-122zM1032 387l19 92h428l-19 -92h-428zM1083 870q0 22 2.5 55.5t11.5 87t22.5 106t38.5 107t57 95.5t80 67.5t106 26.5q33 0 63.5 -7.5t61.5 -26.5t54 -48.5t37.5 -78t14.5 -109.5 q0 -22 -2.5 -55t-11 -86.5t-22 -106t-38 -107.5t-56.5 -96t-80.5 -67.5t-106.5 -26.5q-42 0 -80 13t-73.5 42t-57 84.5t-21.5 130.5zM1188 862q0 -85 39.5 -125.5t89.5 -40.5q51 0 91 43t61.5 101.5t35.5 128t18.5 114.5t4.5 68q0 86 -39.5 127t-89.5 41t-90 -43 t-61.5 -101.5t-36 -128t-19 -115t-4.5 -69.5z" />
<glyph unicode="&#x2117;" horiz-adv-x="1662" d="M119 641q0 131 32.5 251.5t98 223t158 178.5t219 119t274.5 43q206 0 360.5 -84.5t235 -234.5t80.5 -344q0 -131 -32.5 -251.5t-98.5 -223.5t-158 -179t-219.5 -119t-275.5 -43q-309 0 -491.5 184t-182.5 480zM195 643q0 -262 162.5 -427t443.5 -165q161 0 294.5 59 t221.5 160t136 235.5t48 285.5q0 128 -41.5 236.5t-117.5 187t-191 123t-256 44.5q-129 0 -241.5 -38t-195.5 -106t-143 -160.5t-90 -203t-30 -231.5zM547 285l151 862h285q117 0 185.5 -56.5t68.5 -168.5q0 -148 -95 -224.5t-253 -76.5h-193l-59 -336h-90zM711 700h194 q103 0 172.5 61t69.5 161q0 75 -47.5 111t-128.5 36h-195z" />
<glyph unicode="&#x2120;" horiz-adv-x="983" d="M190 1024l39 51q63 -47 121 -47q33 0 57.5 18.5t24.5 47.5q0 8 -2 15t-5 12.5t-9.5 12t-11 10t-14.5 10t-14.5 9.5t-17.5 10.5t-18 10.5q-94 56 -94 127q0 57 41.5 94t105.5 37q76 0 148 -47l-35 -49q-66 34 -109 34q-32 0 -53.5 -16.5t-21.5 -44.5q0 -9 3 -17t6.5 -13.5 t13.5 -13.5t16 -11.5t21.5 -13.5t23.5 -15q46 -29 72 -60.5t26 -74.5q0 -57 -43 -95t-109 -38q-46 0 -90 17t-72 40zM535 975l81 459h72l57 -291l166 291h72l-82 -459h-70l56 311l-133 -235h-43l-49 243l-58 -319h-69z" />
<glyph unicode="&#x2122;" horiz-adv-x="970" d="M248 1364l12 70h293l-12 -70h-113l-68 -389h-69l67 389h-110zM526 975l82 459h72l57 -293l166 293h72l-82 -459h-70l56 313l-134 -237h-43l-49 243l-57 -319h-70z" />
<glyph unicode="&#x2126;" horiz-adv-x="1105" d="M43 0l20 117h177q-56 48 -90.5 123t-34.5 206q0 27 3 71t12 111.5t22 140.5t36 154.5t52 156.5t71.5 144.5t92.5 120t117 81t143 30.5q59 0 110 -13t99 -45t82 -81.5t54.5 -127.5t20.5 -179q0 -53 -9 -140.5t-33 -207.5t-58.5 -228t-92.5 -197.5t-128 -119.5h155 l-20 -117h-330l21 113q73 18 134 85t99 160t66.5 194t42.5 200t20 162.5t6 95.5q0 91 -20.5 157.5t-56 102.5t-76 52.5t-88.5 16.5q-75 0 -138 -46.5t-105.5 -119t-75.5 -167t-52 -184.5t-31 -177t-16 -139.5t-4 -77.5q0 -132 38 -204.5t111 -110.5l-20 -113h-326z" />
<glyph unicode="&#x2153;" horiz-adv-x="1193" d="M131 0l715 1434h98l-715 -1434h-98zM174 1319l174 115h88l-153 -861h-95l131 748l-108 -70zM573 72l58 69q26 -20 44.5 -31.5t49 -22.5t61.5 -11q72 0 121 54t49 134q0 79 -50 119.5t-120 40.5h-14l16 90h23q68 0 130.5 55t62.5 127q0 42 -25 65t-68 23q-72 0 -153 -59 l-35 72q115 77 211 77q79 0 122.5 -45t43.5 -114q0 -71 -46 -138.5t-130 -105.5q57 -19 93 -74.5t36 -132.5q0 -70 -29.5 -132t-91.5 -104t-144 -42q-117 0 -215 86z" />
<glyph unicode="&#x2154;" horiz-adv-x="1384" d="M82 573l12 68q11 66 32.5 118t63 99.5t63 68t80.5 68.5q3 3 5 4.5t5 4t5 4.5q92 76 138 132.5t46 119.5q2 42 -22.5 70t-73.5 28q-78 0 -164 -66l-36 74q105 82 213 82q83 0 131.5 -47t48.5 -131q0 -36 -8.5 -70t-28 -66.5t-35.5 -56t-48 -54t-46.5 -44t-50 -42.5 t-41.5 -34q-73 -61 -111 -114.5t-51 -126.5h317l-14 -89h-430zM328 0l714 1434h99l-715 -1434h-98zM764 72l57 69q86 -65 156 -65q72 0 121 54t49 134q0 79 -50 119.5t-120 40.5h-14l16 90h22q68 0 130.5 55t62.5 127q0 42 -24.5 65t-67.5 23q-73 0 -154 -59l-35 72 q115 77 211 77q79 0 122.5 -45t43.5 -114q0 -71 -46 -138.5t-130 -105.5q57 -19 93 -74.5t36 -132.5q0 -70 -29 -132t-91 -104t-144 -42q-117 0 -215 86z" />
<glyph unicode="&#x2155;" horiz-adv-x="1204" d="M131 0l715 1434h98l-715 -1434h-98zM174 1319l174 115h88l-153 -861h-95l131 748l-108 -70zM582 84l55 68q1 -1 9 -8t12.5 -11.5t14.5 -12.5t18 -13t19.5 -11.5t22 -10.5t23.5 -6.5t26 -2.5q67 0 120.5 63.5t53.5 169.5q0 67 -27.5 108.5t-78.5 41.5q-63 0 -129 -56 l-49 31l106 426h350l-16 -88h-270l-56 -248q48 23 95 23q83 0 128.5 -65t45.5 -167q0 -135 -75 -232t-194 -97q-111 0 -204 98z" />
<glyph unicode="&#x2156;" horiz-adv-x="1398" d="M82 573l12 68q11 66 32.5 118t63 99.5t63 68t80.5 68.5q3 3 5 4.5t5 4t5 4.5q92 76 138 132.5t46 119.5q2 42 -22.5 70t-73.5 28q-78 0 -164 -66l-36 74q105 82 213 82q83 0 131.5 -47t48.5 -131q0 -36 -8.5 -70t-28 -66.5t-35.5 -56t-48 -54t-46.5 -44t-50 -42.5 t-41.5 -34q-73 -61 -111 -114.5t-51 -126.5h317l-14 -89h-430zM328 0l714 1434h99l-715 -1434h-98zM774 84l55 68q1 0 9 -8t12.5 -11.5t15 -12t18 -13.5t19.5 -11.5t22.5 -10.5t23.5 -6.5t26 -2.5q67 0 120.5 63.5t53.5 169.5q0 67 -28 108.5t-79 41.5q-63 0 -129 -56 l-49 31l107 426h350l-16 -88h-271l-55 -248q48 23 94 23q83 0 128.5 -65t45.5 -167q0 -135 -74.5 -232t-193.5 -97q-112 0 -205 98z" />
<glyph unicode="&#x2157;" horiz-adv-x="1372" d="M84 645l57 70q87 -66 156 -66q72 0 121 54.5t49 134.5q0 79 -50 119t-120 40h-14l16 90h23q68 0 130 55.5t62 127.5q0 42 -24.5 65t-67.5 23q-72 0 -154 -60l-35 72q117 78 211 78q79 0 122.5 -45.5t43.5 -114.5q0 -71 -46 -138.5t-130 -105.5q57 -19 93 -74t36 -132 q0 -52 -17.5 -101t-49.5 -89t-83.5 -64.5t-113.5 -24.5q-117 0 -215 86zM299 0l715 1434h98l-715 -1434h-98zM750 84l55 68q1 -1 9 -8t12.5 -11.5t14.5 -12.5t18 -13t19.5 -11.5t22 -10.5t23.5 -6.5t26 -2.5q67 0 120.5 63.5t53.5 169.5q0 67 -27.5 108.5t-78.5 41.5 q-63 0 -129 -56l-49 31l106 426h350l-16 -88h-270l-56 -248q48 23 95 23q83 0 128.5 -65t45.5 -167q0 -135 -75 -232t-194 -97q-111 0 -204 98z" />
<glyph unicode="&#x2158;" horiz-adv-x="1400" d="M84 764l14 78l391 592h127l-102 -582h92l-16 -88h-92l-33 -191h-92l33 191h-322zM193 852h229l82 471zM332 0l715 1434h98l-715 -1434h-98zM778 84l56 68q1 -1 9 -8t12.5 -11.5t14.5 -12.5t18 -13t19.5 -11.5t22 -10.5t23.5 -6.5t26 -2.5q67 0 120.5 63.5t53.5 169.5 q0 67 -27.5 108.5t-78.5 41.5q-63 0 -129 -56l-50 31l107 426h350l-16 -88h-271l-55 -248q48 23 94 23q83 0 128.5 -65t45.5 -167q0 -135 -74.5 -232t-193.5 -97q-112 0 -205 98z" />
<glyph unicode="&#x2159;" horiz-adv-x="1179" d="M131 0l715 1434h98l-715 -1434h-98zM174 1319l174 115h88l-153 -861h-95l131 748l-108 -70zM580 268q0 156 55 295t152 225t212 86q26 0 51 -5t36 -10l12 -5l-39 -80q-27 12 -62 12q-99 0 -180.5 -94.5t-118.5 -236.5q69 96 166 96q82 0 127 -66.5t45 -162.5 q0 -130 -70 -233t-182 -103q-99 0 -151.5 82.5t-52.5 199.5zM674 268q0 -82 27.5 -138t82.5 -56q69 0 112.5 73.5t43.5 169.5q0 63 -25.5 106.5t-78.5 43.5q-51 0 -96.5 -43t-63.5 -90q-2 -23 -2 -66z" />
<glyph unicode="&#x215a;" horiz-adv-x="1320" d="M90 657l55 68q1 0 9 -8t12.5 -11.5t15 -12t18 -13.5t19.5 -11.5t22.5 -10.5t23.5 -6.5t26 -2.5q67 0 120.5 64t53.5 170q0 67 -28 108t-79 41q-64 0 -129 -55l-49 31l107 426h350l-16 -88h-271l-55 -248q46 22 94 22q83 0 128.5 -64.5t45.5 -166.5q0 -136 -74.5 -233 t-193.5 -97q-112 0 -205 98zM274 0l715 1434h98l-714 -1434h-99zM723 268q0 155 55 294.5t152.5 225.5t212.5 86q26 0 50.5 -5t36.5 -10l11 -5l-39 -80q-26 12 -61 12q-99 0 -180.5 -94.5t-118.5 -236.5q69 96 166 96q82 0 127 -66.5t45 -162.5q0 -130 -70 -233t-182 -103 q-67 0 -115 41.5t-69 103.5t-21 137zM817 268q0 -82 28 -138t83 -56q69 0 112 73.5t43 169.5q0 63 -25.5 106.5t-78.5 43.5q-51 0 -96.5 -43t-63.5 -90q-2 -23 -2 -66z" />
<glyph unicode="&#x215b;" horiz-adv-x="1202" d="M131 0l715 1434h98l-715 -1434h-98zM174 1319l174 115h88l-153 -861h-95l131 748l-108 -70zM580 184q0 54 19 100t53 80t66 56.5t73 44.5q-91 79 -91 184q0 98 65.5 161.5t164.5 63.5q87 0 130.5 -51t43.5 -123q0 -141 -168 -239q125 -91 125 -219q0 -114 -78 -185 t-195 -71q-96 0 -152 52.5t-56 145.5zM676 193q0 -61 33 -92t86 -31q70 0 120 48.5t50 125.5q0 58 -28.5 96.5t-78.5 75.5q-42 -24 -70 -43.5t-56 -47t-42 -60.5t-14 -72zM788 643q0 -77 80 -139q144 78 144 190q0 44 -23 71.5t-67 27.5q-57 0 -95.5 -45t-38.5 -105z" />
<glyph unicode="&#x215c;" horiz-adv-x="1366" d="M84 645l57 70q87 -66 156 -66q72 0 121 54.5t49 134.5q0 79 -50 119t-120 40h-14l16 90h23q68 0 130 55.5t62 127.5q0 42 -24.5 65t-67.5 23q-72 0 -154 -60l-35 72q117 78 211 78q79 0 122.5 -45.5t43.5 -114.5q0 -71 -46 -138.5t-130 -105.5q57 -19 93 -74t36 -132 q0 -52 -17.5 -101t-49.5 -89t-83.5 -64.5t-113.5 -24.5q-117 0 -215 86zM299 0l715 1434h98l-715 -1434h-98zM745 184q0 54 19 100t53 80t66 56.5t73 44.5q-90 78 -90 184q0 98 65.5 161.5t164.5 63.5q87 0 130.5 -51t43.5 -123q0 -141 -168 -239q125 -91 125 -219 q0 -114 -78 -185t-195 -71q-96 0 -152.5 52.5t-56.5 145.5zM842 193q0 -61 33 -92t86 -31q70 0 119.5 48.5t49.5 125.5q0 58 -28 96.5t-78 75.5q-42 -24 -70 -43.5t-56 -47t-42 -60.5t-14 -72zM954 643q0 -77 80 -139q144 78 144 190q0 43 -23.5 71t-67.5 28q-57 0 -95 -45 t-38 -105z" />
<glyph unicode="&#x215d;" horiz-adv-x="1349" d="M90 657l55 68q1 0 9 -8t12.5 -11.5t15 -12t18 -13.5t19.5 -11.5t22.5 -10.5t23.5 -6.5t26 -2.5q67 0 120.5 64t53.5 170q0 67 -28 108t-79 41q-64 0 -129 -55l-49 31l107 426h350l-16 -88h-271l-55 -248q46 22 94 22q83 0 128.5 -64.5t45.5 -166.5q0 -136 -74.5 -233 t-193.5 -97q-112 0 -205 98zM274 0l715 1434h98l-714 -1434h-99zM725 184q0 54 19 100t53 80t66 56.5t73 44.5q-90 78 -90 184q0 98 65 161.5t164 63.5q87 0 130.5 -51t43.5 -123q0 -141 -168 -239q125 -91 125 -219q0 -114 -77.5 -185t-194.5 -71q-96 0 -152.5 52.5 t-56.5 145.5zM821 193q0 -61 33 -92t86 -31q70 0 120 48.5t50 125.5q0 58 -28 96.5t-78 75.5q-89 -51 -136 -100t-47 -123zM934 643q0 -77 80 -139q143 78 143 190q0 44 -23 71.5t-67 27.5q-57 0 -95 -45t-38 -105z" />
<glyph unicode="&#x215e;" horiz-adv-x="1204" d="M135 0l715 1434h98l-715 -1434h-98zM135 573q18 103 59 218.5t82.5 201.5t92 172.5t74 121.5t40.5 59h-299l15 88h409l-14 -78q-12 -16 -31.5 -44.5t-73 -116.5t-98 -176.5t-90 -211.5t-65.5 -234h-101zM584 184q0 54 19 100t53 80t66 56.5t73 44.5q-90 78 -90 184 q0 98 65 161.5t164 63.5q87 0 130.5 -51t43.5 -123q0 -141 -168 -239q125 -91 125 -219q0 -114 -77.5 -185t-194.5 -71q-96 0 -152.5 52.5t-56.5 145.5zM680 193q0 -61 33 -92t86 -31q70 0 120 48.5t50 125.5q0 58 -28.5 96.5t-78.5 75.5q-42 -24 -70 -43.5t-56 -47 t-42 -60.5t-14 -72zM793 643q0 -78 79 -139q144 78 144 190q0 44 -23 71.5t-67 27.5q-57 0 -95 -45t-38 -105z" />
<glyph unicode="&#x2202;" horiz-adv-x="919" d="M61 360q0 166 54.5 307.5t149.5 224.5t208 83q51 0 93.5 -19t67 -46t42 -54t23.5 -46l6 -19q1 77 -7 149.5t-28.5 143.5t-52 123.5t-81 85t-112.5 32.5q-26 0 -54.5 -4.5t-43.5 -8.5l-15 -5v108q53 19 125 19q185 0 282 -167.5t97 -463.5q0 -373 -127 -599.5t-334 -226.5 q-139 0 -216 100.5t-77 282.5zM184 356q0 -124 42.5 -197t135.5 -73q76 0 138 51t98 130.5t55 165t19 165.5q0 125 -47.5 196.5t-137.5 71.5q-92 0 -163 -78t-105.5 -192.5t-34.5 -239.5z" />
<glyph unicode="&#x2206;" horiz-adv-x="976" d="M-57 0l628 1434h136l124 -1434h-888zM125 117h577l-86 1159z" />
<glyph unicode="&#x220f;" horiz-adv-x="1005" d="M98 0l232 1317h-146l21 117h878l-20 -117h-154l-233 -1317h-119l234 1317h-340l-234 -1317h-119z" />
<glyph unicode="&#x2211;" horiz-adv-x="819" d="M-16 0l20 115l496 610l-285 594l21 115h628l-20 -117h-496l291 -600l-481 -600h473l-21 -117h-626z" />
<glyph unicode="&#x2212;" horiz-adv-x="880" d="M92 629l19 106h700l-18 -106h-701z" />
<glyph unicode="&#x221a;" horiz-adv-x="845" d="M63 696h127l76 -493l557 1231h131l-665 -1434h-99z" />
<glyph unicode="&#x221e;" horiz-adv-x="1339" d="M90 469q0 151 90.5 264t227.5 113q34 0 64.5 -13t54 -32t49 -53t44 -64.5t44.5 -77.5q118 133 189 186.5t155 53.5q102 0 156.5 -73.5t54.5 -184.5q0 -150 -90.5 -263.5t-217.5 -113.5q-46 0 -83.5 16t-70 52t-56.5 73t-58 99q-116 -134 -185.5 -187t-154.5 -53 q-105 0 -159 72.5t-54 185.5zM190 477q0 -67 34 -114.5t93 -47.5q58 0 121 51.5t162 165.5q-63 122 -103 165.5t-94 43.5q-63 0 -113.5 -43t-75 -102.5t-24.5 -118.5zM707 524q66 -123 104.5 -166t95.5 -43q63 0 112.5 43.5t73 103t23.5 118.5q0 68 -34.5 114.5t-92.5 46.5 t-118.5 -50t-163.5 -167z" />
<glyph unicode="&#x222b;" horiz-adv-x="589" d="M-115 -293l19 94h30q103 0 150 92q30 59 59 228q2 8 4 24l3 15l206 1157q39 225 111 313t233 88h37l-16 -94h-31q-45 0 -78.5 -19t-53 -39t-37.5 -78t-24.5 -88.5t-22.5 -118.5q-1 -3 -1.5 -5t-1 -5t-0.5 -5l-205 -1157q-21 -116 -45 -188t-64 -122.5t-96 -71t-139 -20.5 h-37z" />
<glyph unicode="&#x2248;" horiz-adv-x="880" d="M55 430q55 108 108 155.5t116 47.5q43 0 84 -22t68.5 -48.5t63.5 -48.5t70 -22q80 0 148 131l69 -39q-53 -106 -108 -154.5t-117 -48.5q-36 0 -69.5 14.5t-59.5 35.5t-51 41.5t-53 35t-56 14.5q-33 0 -67 -27t-76 -104zM119 793q54 106 109 153t118 47q43 0 84.5 -22 t69.5 -48.5t64 -48.5t69 -22q34 0 68.5 27.5t76.5 103.5l70 -39q-54 -106 -109 -153.5t-118 -47.5q-35 0 -68.5 14.5t-59.5 35.5t-51 42t-53 35.5t-55 14.5q-72 0 -146 -131z" />
<glyph unicode="&#x2260;" horiz-adv-x="878" d="M57 449l19 108h260l119 256h-334l20 107h363l164 350l77 -41l-143 -309h236l-19 -107h-266l-121 -256h342l-20 -108h-371l-162 -347l-78 41l142 306h-228z" />
<glyph unicode="&#x2264;" horiz-adv-x="880" d="M-20 0l18 100h698l-18 -100h-698zM86 594l16 96l772 426l-22 -139l-649 -342l526 -342l-20 -125z" />
<glyph unicode="&#x2265;" horiz-adv-x="880" d="M-14 0l18 100h701l-19 -100h-700zM16 168l25 139l645 340l-526 344l22 125l625 -426l-16 -96z" />
<glyph unicode="&#x2318;" horiz-adv-x="1411" d="M72 342q0 134 92.5 199t234.5 65h144l41 221h-115q-110 0 -187 77.5t-77 185.5q0 110 77 188t187 78q39 0 78 -11t75.5 -36t62.5 -61t37 -90t1 -118l-18 -110h110l25 135q10 53 23 93t36.5 80.5t62 68.5t91.5 41q30 9 63 6q107 -3 182.5 -80t75.5 -184q0 -131 -93.5 -197 t-233.5 -66h-146l-39 -221h115q109 0 186.5 -77t77.5 -187q0 -109 -77.5 -185.5t-186.5 -76.5q-122 0 -198.5 91t-55.5 224q11 62 16 109h-110l-25 -135q-26 -145 -87 -217t-181 -72q-109 0 -186.5 76.5t-77.5 185.5zM174 342q0 -66 48 -113t114 -47q65 0 105.5 37t52.5 107 l30 178h-188q-66 0 -114 -47.5t-48 -114.5zM307 1090q0 -66 47.5 -113t114.5 -47h131q11 53 21 119q14 85 -29.5 144.5t-122.5 59.5q-67 0 -114.5 -47.5t-47.5 -115.5zM647 606h113l39 221h-113zM823 385q-17 -82 29 -142.5t125 -60.5q66 0 114 47t48 113q0 67 -48 114.5 t-114 47.5h-131zM922 930h186q68 0 116 47t48 113q0 67 -48 115t-116 48q-63 0 -105.5 -44t-52.5 -101z" />
<glyph unicode="&#x25ca;" horiz-adv-x="837" d="M102 717l392 717h139l137 -717l-391 -717h-139zM219 698l107 -563l327 602l-108 557z" />
<glyph unicode="&#xe000;" horiz-adv-x="1075" d="M0 0v1075h1075v-1075h-1075z" />
<glyph unicode="&#xf6c3;" horiz-adv-x="126" d="M-76 -494l94 179h-53l33 182h113l-21 -186l-133 -213z" />
<glyph unicode="&#xf6df;" horiz-adv-x="546" d="M-16 31q0 194 78.5 311t175.5 117l16 94h70l-21 -109q16 -6 31 -14t30 -19t23.5 -18t23 -20t17.5 -15l-51 -63q-3 2 -15 13.5t-21 19.5t-23.5 18t-28.5 16l-84 -479q32 12 106 64l35 -72q-95 -68 -158 -82l-16 -100h-70l17 94q-62 11 -98.5 74.5t-36.5 169.5zM76 37 q0 -134 57 -160l88 492q-61 -21 -103 -114t-42 -218z" />
<glyph unicode="&#xf6e0;" horiz-adv-x="548" d="M178 1126q0 194 78.5 311t175.5 117l17 95h69l-20 -109q16 -6 31 -14t30 -19t23.5 -18t23 -20t17.5 -15l-52 -63q-3 2 -15 13.5t-21 19.5t-23.5 18t-28.5 16l-84 -479q37 15 107 63l35 -71q-95 -68 -158 -82l-16 -101h-70l16 95q-63 11 -99 74t-36 169zM270 1133 q0 -133 58 -160l88 491q-61 -21 -103.5 -113.5t-42.5 -217.5z" />
<glyph unicode="&#xf6e1;" horiz-adv-x="284" d="M-96 -434l71 127h-43l25 147h98l-16 -155l-113 -152z" />
<glyph unicode="&#xf6e2;" horiz-adv-x="286" d="M98 662l72 126h-43l25 148h98l-17 -156l-112 -151z" />
<glyph unicode="&#xf6e3;" horiz-adv-x="600" d="M-80 -223l62 76q71 -58 137 -76l57 323q-76 62 -113.5 116t-37.5 126q0 96 65.5 159.5t165.5 65.5l20 111h70l-20 -117q87 -19 166 -69l-60 -76q-63 39 -123 53l-53 -301q80 -65 120 -121t40 -133q0 -102 -71.5 -168t-174.5 -68l-18 -108h-70l20 117q-92 20 -182 90z M129 342q0 -36 16.5 -65t51.5 -60l43 256q-48 -8 -79.5 -42t-31.5 -89zM186 -227q55 6 91 42.5t36 94.5q0 74 -77 141z" />
<glyph unicode="&#xf6e4;" horiz-adv-x="602" d="M113 872l61 76q68 -60 137 -76l58 324q-50 41 -80 72.5t-51 75.5t-21 94q0 96 66 159.5t166 65.5l20 111h70l-21 -117q84 -19 166 -70l-59 -76q-65 41 -123 54l-53 -301q52 -42 82 -73.5t53.5 -79.5t23.5 -101q0 -104 -71.5 -170t-174.5 -66l-18 -108h-70l21 114 q-88 19 -182 92zM322 1438q0 -64 67 -125l43 256q-48 -8 -79 -42t-31 -89zM379 866q55 6 91 43.5t36 96.5q0 73 -78 141z" />
<glyph unicode="&#xf6e7;" horiz-adv-x="282" d="M-68 -307l25 147h100l-24 -147h-101z" />
<glyph unicode="&#xf6e8;" horiz-adv-x="284" d="M127 788l25 148h100l-25 -148h-100z" />
<glyph unicode="&#xf6e9;" horiz-adv-x="595" d="M145 979q0 121 29.5 227.5t86.5 174t128 67.5q74 0 146 -105l16 91h92l-115 -646h-90l17 101q-98 -115 -183 -115q-56 0 -91.5 52t-35.5 153zM240 991q0 -62 17.5 -97.5t49.5 -35.5q74 0 164 121l49 281q-53 104 -117 104q-47 0 -85.5 -60t-58 -144.5t-19.5 -168.5z" />
<glyph unicode="&#xf6ea;" horiz-adv-x="595" d="M127 788l158 895h92l-60 -331q28 28 48.5 45.5t54 34t65.5 16.5q61 0 99.5 -52.5t38.5 -154.5q0 -118 -28 -224t-83.5 -174.5t-126.5 -68.5q-82 0 -152 100l-14 -86h-92zM250 961q52 -103 121 -103q46 0 83 59t55.5 142.5t18.5 167.5q0 137 -77 137q-65 0 -148 -102z" />
<glyph unicode="&#xf6eb;" horiz-adv-x="595" d="M145 979q0 121 29.5 227.5t86.5 174t128 67.5q45 0 79.5 -28.5t66.5 -73.5l59 337h92l-158 -895h-92l17 97q-98 -111 -181 -111q-56 0 -91.5 52t-35.5 153zM240 991q0 -62 17.5 -97.5t49.5 -35.5q69 0 162 119l51 283q-53 104 -117 104q-47 0 -85.5 -60t-58 -144.5 t-19.5 -168.5z" />
<glyph unicode="&#xf6ec;" horiz-adv-x="548" d="M147 1030q0 180 80 299t209 119q71 0 112.5 -41t41.5 -113q0 -105 -81.5 -166t-225.5 -61h-43v-39q0 -174 92 -174q14 0 30 4.5t28.5 10t31 16t27.5 16.5t28 19t23 16l35 -68q-120 -94 -222 -94q-76 0 -121 65t-45 191zM248 1130h41q103 0 158 46.5t55 113.5 q0 40 -20.5 60t-55.5 20q-64 0 -112 -67t-66 -173z" />
<glyph unicode="&#xf6ed;" horiz-adv-x="286" d="M127 788l113 646h92l-113 -646h-92zM260 1563l21 118h98l-21 -118h-98z" />
<glyph unicode="&#xf6ee;" horiz-adv-x="286" d="M127 788l158 895h92l-158 -895h-92z" />
<glyph unicode="&#xf6ef;" horiz-adv-x="874" d="M127 788l115 646h92l-19 -97q97 111 183 111q52 0 77 -34.5t27 -86.5q98 121 191 121q65 0 88.5 -50t9.5 -132l-84 -478h-90l82 465q11 46 0.5 79.5t-45.5 33.5q-69 0 -160 -119l-80 -459h-92l84 465q19 113 -49 113q-37 0 -79.5 -35.5t-76.5 -81.5l-82 -461h-92z" />
<glyph unicode="&#xf6f0;" horiz-adv-x="589" d="M150 1010q0 64 14 134.5t43 141.5t84.5 116.5t128.5 45.5q37 0 69.5 -12.5t61.5 -38.5t46 -73.5t17 -111.5q0 -50 -7.5 -105t-27.5 -115.5t-48.5 -108t-76 -78.5t-106.5 -31q-38 0 -71 12t-62.5 38t-47 73.5t-17.5 112.5zM240 1004q0 -82 32.5 -115t71.5 -33 q51 0 89.5 44.5t56.5 109.5t26 118t8 91q0 43 -10.5 74t-27.5 46t-33 21t-33 6q-51 0 -89 -44.5t-56 -109t-26.5 -118t-8.5 -90.5z" />
<glyph unicode="&#xf6f1;" horiz-adv-x="401" d="M127 788l115 646h92l-25 -140q83 160 197 148l-17 -94q-42 0 -79 -21.5t-59.5 -53t-39 -62.5t-23.5 -53l-7 -21l-62 -349h-92z" />
<glyph unicode="&#xf6f2;" horiz-adv-x="512" d="M109 860l49 64q84 -72 157 -72q42 0 73.5 26.5t31.5 75.5q0 11 -2.5 21.5t-5 18t-10 17t-11 14.5t-16.5 15t-17 13t-20.5 15t-20.5 15q-42 28 -66.5 48.5t-45.5 57.5t-21 81q0 82 53.5 130t137.5 48q100 0 188 -70l-45 -63q-78 55 -141 55q-39 0 -68.5 -24t-29.5 -68 q0 -19 7 -36t14 -27t24.5 -24t23.5 -17.5t27 -16.5q68 -45 103.5 -90t35.5 -111q0 -83 -55.5 -132.5t-139.5 -49.5q-105 0 -210 86z" />
<glyph unicode="&#xf6f3;" horiz-adv-x="401" d="M168 944l74 414h-66l14 76h64l29 157l96 29l-35 -186h127l-14 -76h-125l-76 -428q-12 -68 29 -68q22 0 84 31l24 -76q-97 -43 -141 -43q-50 0 -75 41t-9 129z" />
<glyph unicode="&#xf8ff;" horiz-adv-x="1740" d="M134.5 560.5q-2.5 11.5 15.5 21.5l57 41q2 1 3.5 2.5l3 3l2.5 2.5t2 3l1 1q19 16 37 -12l33 -64q6 -12 13.5 -15.5t14 2t9.5 17.5l18 70q4 19 18.5 21t26.5 -13l47 -53q13 -15 23.5 -11.5t11.5 23.5l4 70q3 20 15.5 25t27.5 -7l57 -43q17 -12 26 -6.5t5 25.5l-8 69 q-3 20 8.5 28t28.5 -1l63 -29q19 -9 27 -1.5t2 26.5l-22 67q-8 19 0.5 29t27.5 4l15 -2q40 -77 70 -202.5t30 -217.5q-15 -18 -34.5 -27.5t-59.5 -9.5h-9q0 47 -32 72q18 -21 18 -55v-15q-33 3 -33 39q0 43 -27.5 72t-76.5 29q-41 0 -68.5 -32t-27.5 -79q0 -60 49.5 -96.5 t138.5 -36.5q106 0 212.5 65t183.5 162.5t125 212.5t48 213q0 59 -36.5 98t-94.5 39q-48 0 -85.5 -33.5t-37.5 -84.5q0 -106 119 -119q-30 -122 -59 -174q-12 96 -43.5 178t-75.5 129q91 -120 107 -330l-29 -41q0 156 -51 287t-131 172q-5 9 2 18.5t22 12.5l70 12 q19 3 21 13.5t-15 21.5l-59 39q-15 13 -13.5 26.5t19.5 20.5l63 29q14 4 19 10t0 13t-19 13l-63 27q-24 11 -21 29q13 6 15 16l34 62q9 19 20.5 18t16.5 -20l21 -68q6 -21 18.5 -24t26.5 14l47 53q12 15 23 12.5t12 -22.5l4 -72q1 -21 14.5 -26t28.5 8l57 43q15 12 24 5.5 t7 -26.5l-10 -70q-1 -20 10.5 -27.5t28.5 1.5l63 33q19 8 26.5 0t0.5 -29l-23 -64q-6 -20 3 -30t28 -4l70 14q20 6 26.5 -2t-4.5 -27l-37 -59q-12 -17 -5.5 -29.5t26.5 -11.5l71 4q21 0 25.5 -11t-8.5 -24l-49 -53q-14 -13 -10.5 -26.5t24.5 -16.5l70 -12q43 -10 6 -39 l-58 -39q-16 -10 -15 -24t21 -21l64 -27q12 -5 16.5 -12t0 -13.5t-16.5 -11.5l-64 -26q-20 -7 -21 -22t15 -25l58 -41q11 -7 14.5 -14.5t-2 -13.5t-18.5 -9l-70 -13q-21 -3 -24.5 -16.5t10.5 -28.5l49 -49q13 -14 8.5 -24.5t-25.5 -10.5l-71 5q-20 0 -26.5 -12t5.5 -29 l37 -62q10 -17 4 -25.5t-26 -5.5l-70 19q-19 4 -28 -6t-3 -29l23 -68q8 -19 0 -26t-27 2l-63 31q-17 9 -28.5 1t-10.5 -30l10 -68q1 -21 -7.5 -25.5t-23.5 7.5l-57 43q-15 12 -28.5 5.5t-14.5 -26.5l-4 -69q-1 -20 -12 -23t-23 11l-47 55q-13 14 -26 12t-19 -22l-21 -68 q-3 -13 -9.5 -18t-14 -1t-13.5 15l-34 61q-9 19 -22.5 19t-25.5 -19l-30 -61q-6 -11 -13.5 -15t-14 1t-9.5 18l-21 68q-6 20 -19 22t-26 -12l-47 -55q-12 -14 -22 -11t-13 23l-4 69q-2 20 -15 26.5t-30 -5.5l-53 -43q-17 -13 -27 -8t-6 26l11 68q1 22 -10.5 30t-30.5 -1 l-62 -31q-19 -9 -27 -2t0 26l23 68q7 19 -2.5 29.5t-28.5 5.5l-69 -19q-20 -3 -26.5 5.5t3.5 25.5l39 62q11 17 4.5 29t-26.5 12l-72 -5q-21 0 -25.5 10.5t8.5 24.5l52 49q13 15 8.5 28.5t-25.5 16.5l-67 13q-21 4 -23.5 15.5zM610 281q44 -27 123 -27q106 0 212.5 65 t183.5 162t125.5 212t48.5 214q0 63 -41 101q24 -38 24 -84q0 -100 -47.5 -215t-126.5 -215q-85 -105 -188.5 -168.5t-212.5 -63.5q-58 0 -101 19z" />
<glyph unicode="&#xfb06;" horiz-adv-x="1308" d="M-6 113l72 86q138 -115 245 -115q75 0 131 48t56 142q0 39 -10.5 70t-38 61t-49 47.5t-70.5 53.5q-51 37 -80 62t-62.5 64t-49 83.5t-15.5 99.5q0 129 85 206t210 77q75 0 166 -37q-4 36 -4 65q0 159 88 263t229 104q134 0 196 -99t31 -268l-10 -51h203l-19 -102h-200 l-133 -760q-21 -123 43 -123q36 0 143 55l33 -98q-137 -70 -215 -70q-72 0 -108.5 57.5t-12.5 194.5l131 744h-105l19 102h104l15 76q11 73 6.5 131.5t-40 94.5t-99.5 36q-103 0 -168.5 -87t-65.5 -218q0 -44 10 -86q10 -6 54 -39l-70 -84q-115 92 -219 92q-70 0 -122 -43 t-52 -125q0 -41 13 -75.5t41.5 -63.5t46.5 -43.5t54 -38.5q110 -78 166 -152t56 -178q0 -135 -90 -215t-216 -80q-161 0 -323 136z" />
<glyph horiz-adv-x="610" d="M104 580l39 79q27 -12 62 -12q98 0 179.5 95t119.5 239q-76 -98 -168 -98q-80 0 -125 66.5t-45 160.5q0 84 29.5 160t89 127t135.5 51q98 0 150.5 -83t52.5 -200q0 -155 -55.5 -294.5t-153 -225.5t-209.5 -86q-28 0 -53.5 5.5t-36.5 10.5zM262 1116q0 -62 25.5 -106.5 t77.5 -44.5q54 0 102.5 50t56.5 85q4 36 4 65q0 82 -28 138.5t-82 56.5q-69 0 -112.5 -74t-43.5 -170z" />
<glyph horiz-adv-x="811" d="M-59 0l395 586l-174 590h129l123 -490l293 490h141l-381 -586l190 -590h-131l-135 487l-303 -487h-147z" />
<glyph horiz-adv-x="1050" d="M-162 -324q27 11 47.5 20.5t39 22t31 20t25 24.5t19.5 25t15 31.5t12 34.5t11 43.5t10 50t11 60.5l170 965h-102l23 102h98l33 180q20 122 65 180t121 58q94 0 227 -70l-59 -90q-104 47 -152 47q-62 0 -84 -123l-32 -182h196l-20 -102h-195l-170 -961 q-16 -91 -23.5 -130.5t-24.5 -92.5t-33.5 -74t-50.5 -50.5t-76 -48t-109 -42.5zM365 -324q34 14 58.5 25.5t45.5 27.5t33.5 26.5t25 33.5t19 37.5t14.5 49t12 58.5t13 74l170 965h-103l23 102h98l33 180q22 125 64 181.5t116 56.5q72 0 191 -55l-52 -95q-77 37 -116 37 q-62 0 -84 -123l-33 -182h197l-21 -102h-195l-169 -961q-15 -89 -22.5 -128.5t-24 -92.5t-34 -74.5t-51.5 -51.5t-76.5 -48.5t-109.5 -42.5z" />
<glyph horiz-adv-x="985" d="M-162 -324q27 11 48 20.5t39.5 22t31 20.5t25 23.5t19.5 25t15.5 31.5t12.5 35t10.5 43.5t10.5 50t11 60.5l168 965h-102l23 102h98l28 160q24 133 79 185.5t134 52.5q69 0 268 -62q5 -2 8 -3t8 -2.5t9 -2.5q50 90 144 90t227 -70l-59 -90q-104 47 -152 47 q-62 0 -84 -123l-33 -182h197l-21 -102h-194l-170 -961q-16 -90 -23.5 -130t-24.5 -92.5t-34 -74t-51 -51t-76 -48t-109 -42.5l-22 102q27 11 47.5 20.5t39 22t31 20t25 24.5t19.5 25t15 31.5t12 34.5t11 43.5t10 50t11 60.5l170 965h-340l-168 -961q-32 -181 -54 -237 q-33 -82 -107 -130q-53 -34 -158 -71zM367 1075h340l41 230q-3 1 -55 15.5t-107.5 27t-83.5 12.5q-82 0 -107 -123z" />
<glyph horiz-adv-x="1837" d="M-162 -324q27 11 48 20.5t39.5 22t31 20.5t25 23.5t19.5 25t15.5 31.5t12.5 35t10.5 43.5t10.5 50t11 60.5l168 965h-102l23 102h98l28 160q24 133 79 185.5t134 52.5q35 0 89 -12t87.5 -22t118.5 -36q56 90 164 90q81 0 279 -66l12 66h117l-99 -565q148 170 271 170 q98 0 158.5 -83.5t60.5 -246.5q0 -149 -27 -291t-75.5 -253.5t-121 -179t-157.5 -67.5q-41 0 -78.5 15.5t-69 44.5t-53 55.5t-45.5 61.5l-26 -154h-119l233 1325q-193 55 -247 55q-85 0 -105 -123l-33 -182h195l-23 -102h-190l-170 -961q-16 -90 -23.5 -130t-24.5 -92.5 t-34 -74t-51 -51t-76 -48t-109 -42.5l-22 102q34 14 58.5 25.5t45.5 27.5t33.5 26.5t25 33.5t19 37.5t14.5 49t12 58.5t13 74l170 965h-338l-168 -961q-32 -181 -54 -237q-33 -82 -107 -130q-53 -34 -158 -71zM367 1075h338l43 230q-4 1 -39.5 11t-70 19t-74.5 17t-62 8 q-82 0 -107 -123zM1141 272q40 -81 94.5 -132.5t114.5 -51.5q79 0 143.5 106.5t97.5 256.5t33 299q0 112 -34 174.5t-101 62.5q-63 0 -122.5 -47t-131.5 -133z" />
<glyph horiz-adv-x="1835" d="M-162 -324q27 11 48 20.5t39.5 22t31 20.5t25 23.5t19.5 25t15.5 31.5t12.5 35t10.5 43.5t10.5 50t11 60.5l168 965h-102l23 102h98l28 160q24 133 79 185.5t134 52.5q35 0 89 -12t87.5 -22t118.5 -36q56 90 164 90q81 0 279 -66l12 66h117l-101 -571q36 33 66 57.5 t76 55t94.5 47t95.5 16.5q101 0 140.5 -77t15.5 -212l-141 -809h-121l139 788q8 54 8.5 98.5t-22 73.5t-68.5 29q-128 0 -305 -188l-139 -801h-119l233 1325q-193 55 -247 55q-85 0 -105 -123l-33 -182h195l-23 -102h-190l-170 -961q-16 -90 -23.5 -130t-24.5 -92.5t-34 -74 t-51 -51t-76 -48t-109 -42.5l-22 102q34 14 58.5 25.5t45.5 27.5t33.5 26.5t25 33.5t19 37.5t14.5 49t12 58.5t13 74l170 965h-338l-168 -961q-32 -181 -54 -237q-33 -82 -107 -130q-53 -34 -158 -71zM367 1075h338l43 230q-4 1 -39.5 11t-70 19t-74.5 17t-62 8 q-82 0 -107 -123z" />
<glyph horiz-adv-x="1298" d="M-162 -324q27 11 48 20.5t39.5 22t31 20.5t25 23.5t19.5 25t15.5 31.5t12.5 35t10.5 43.5t10.5 50t11 60.5l168 965h-102l23 102h98l28 160q24 133 79 185.5t134 52.5q35 0 87 -11.5t91.5 -23t118.5 -37.5q54 92 170 92q80 0 301 -70l-55 -94q-186 51 -233 51 q-51 0 -77 -37.5t-34 -85.5l-33 -182h420l-190 -1075h-117l172 973h-303l-170 -961q-32 -181 -54 -236q-31 -83 -105 -130q-53 -34 -159 -72l-22 102q34 14 58.5 25.5t45.5 27.5t33.5 26.5t25 33.5t19 37.5t14.5 49t12 58.5t13 74l170 965h-340l-168 -961q-32 -181 -54 -237 q-33 -82 -107 -130q-53 -34 -158 -71zM367 1075h338l43 230q-4 1 -39.5 11t-70 19t-74.5 17t-62 8q-82 0 -107 -123z" />
<glyph horiz-adv-x="1300" d="M-162 -324q27 11 48 20.5t39.5 22t31 20.5t25 23.5t19.5 25t15.5 31.5t12.5 35t10.5 43.5t10.5 50t11 60.5l168 965h-102l23 102h98l28 160q24 133 79 185.5t134 52.5q35 0 87 -11.5t91.5 -23t118.5 -37.5q52 92 170 92q80 0 301 -70l-55 -94q-186 51 -233 51 q-51 0 -77 -37.5t-34 -85.5l-33 -182h424l-202 -1138q-9 -49 -13.5 -72.5t-14 -59t-18.5 -52.5t-25 -42t-35.5 -39t-49 -33t-65.5 -33.5t-85 -31.5l-24 104q54 23 87.5 42.5t55 37t34.5 46.5t19 53t15 75l180 1041h-301l-170 -961q-32 -181 -54 -236q-31 -83 -105 -130 q-53 -34 -159 -72l-22 102q34 14 58.5 25.5t45.5 27.5t33.5 26.5t25 33.5t19 37.5t14.5 49t12 58.5t13 74l170 965h-340l-168 -961q-32 -181 -54 -237q-33 -82 -107 -130q-53 -34 -158 -71zM367 1075h338l43 230q-4 1 -39.5 11t-70 19t-74.5 17t-62 8q-82 0 -107 -123z" />
<glyph horiz-adv-x="1718" d="M-162 -324q27 11 48 20.5t39.5 22t31 20.5t25 23.5t19.5 25t15.5 31.5t12.5 35t10.5 43.5t10.5 50t11 60.5l168 965h-102l23 102h98l28 160q24 133 79 185.5t134 52.5q35 0 89 -12t87.5 -22t118.5 -36q56 90 164 90q81 0 279 -66l12 66h117l-172 -983l399 565h141 l-333 -442l186 -633h-123l-145 526l-160 -211l-55 -315h-119l233 1325q-193 55 -247 55q-85 0 -105 -123l-33 -182h195l-23 -102h-190l-170 -961q-16 -90 -23.5 -130t-24.5 -92.5t-34 -74t-51 -51t-76 -48t-109 -42.5l-22 102q34 14 58.5 25.5t45.5 27.5t33.5 26.5t25 33.5 t19 37.5t14.5 49t12 58.5t13 74l170 965h-338l-168 -961q-32 -181 -54 -237q-33 -82 -107 -130q-53 -34 -158 -71zM367 1075h338l43 230q-4 1 -39.5 11t-70 19t-74.5 17t-62 8q-82 0 -107 -123z" />
<glyph horiz-adv-x="526" d="M-162 -324q34 14 58.5 25.5t45.5 27.5t33.5 26.5t25 33.5t19 37.5t14.5 49t12 58.5t13 74l170 965h-102l23 102h98l33 180q22 125 64 181.5t116 56.5q71 0 190 -55l-51 -95q-77 37 -117 37q-62 0 -84 -123l-32 -182h196l-20 -102h-195l-170 -961q-15 -90 -22.5 -129 t-24 -92t-33.5 -74t-51 -51.5t-76.5 -49t-109.5 -42.5z" />
<glyph horiz-adv-x="1343" d="M-162 -324q27 11 48 20.5t39.5 22t31 20.5t25 23.5t19.5 25t15.5 31.5t12.5 35t10.5 43.5t10.5 50t11 60.5l168 965h-102l23 102h98l28 160q24 133 79 185.5t134 52.5q35 0 89 -12t87.5 -22t118.5 -36q56 90 164 90q81 0 277 -63l12 63h119l-264 -1493h-119l233 1325 q-175 55 -245 55q-85 0 -105 -123l-33 -182h195l-23 -102h-190l-170 -961q-16 -90 -23.5 -130t-24.5 -92.5t-34 -74t-51 -51t-76 -48t-109 -42.5l-22 102q34 14 58.5 25.5t45.5 27.5t33.5 26.5t25 33.5t19 37.5t14.5 49t12 58.5t13 74l170 965h-338l-168 -961 q-32 -181 -54 -237q-33 -82 -107 -130q-53 -34 -158 -71zM367 1075h338l43 230q-4 1 -39.5 11t-70 19t-74.5 17t-62 8q-82 0 -107 -123z" />
<glyph horiz-adv-x="1456" d="M-162 -324q27 11 48 20.5t39.5 22t31 20.5t25 23.5t19.5 25t15.5 31.5t12.5 35t10.5 43.5t10.5 50t11 60.5l168 965h-102l23 102h98l28 160q24 133 79 185.5t134 52.5t293 -70q46 90 142 90q89 0 227 -70l-61 -90q-30 14 -78 30.5t-74 16.5q-60 0 -82 -123l-33 -182h320 l49 271l125 40l-55 -311h200l-18 -102h-201l-133 -760q-21 -123 45 -123q40 0 141 55l33 -98q-129 -70 -215 -70q-70 0 -107.5 57.5t-13.5 194.5l131 744h-319l-170 -961q-16 -90 -23.5 -130t-24.5 -92.5t-34 -74t-51 -51t-76 -48t-109 -42.5l-22 102q34 14 58.5 25.5 t45.5 27.5t33.5 26.5t25 33.5t19 37.5t14.5 49t12 58.5t13 74l170 965h-338l-168 -961q-32 -181 -54 -237q-33 -82 -107 -130q-53 -34 -158 -71zM367 1075h338l43 230q-4 1 -39.5 11t-70 19t-74.5 17t-62 8q-83 0 -107 -123z" />
<glyph horiz-adv-x="1378" d="M-162 -324q34 14 58.5 25.5t45.5 27.5t33.5 26.5t25 33.5t19 37.5t14.5 49t12 58.5t13 74l170 965h-102l23 102h98l33 180q24 133 78 185.5t133 52.5q80 0 278 -66l12 66h117l-100 -571q36 34 66 58t75.5 54.5t94 47t95.5 16.5q101 0 140.5 -77t15.5 -212l-141 -809h-121 l139 788q8 54 8.5 98.5t-22 73.5t-68.5 29q-128 0 -305 -188l-139 -801h-119l234 1325q-192 55 -246 55q-87 0 -107 -123l-32 -182h196l-20 -102h-195l-170 -961q-16 -91 -23.5 -130.5t-24.5 -92.5t-33.5 -74t-50.5 -50.5t-76 -48t-109 -42.5z" />
<glyph horiz-adv-x="921" d="M82.5 215q-4.5 70 13.5 150l142 811h116l-143 -820q-6 -34 -9.5 -57.5t-4.5 -53t3 -49.5t14.5 -41t28 -33t45.5 -20t66 -8q222 0 264 254l148 828h115l-144 -822q-15 -84 -42 -148.5t-71.5 -116.5t-113.5 -79.5t-160 -27.5q-94 0 -154.5 30t-84.5 81.5t-28.5 121.5z M414 1493h86q-10 -62 10 -89.5t72 -27.5q56 0 94.5 28.5t48.5 88.5h86q-17 -98 -79.5 -154.5t-158.5 -56.5q-91 0 -133.5 57.5t-25.5 153.5z" />
<glyph horiz-adv-x="837" d="M-162 -324q34 14 58.5 25.5t45.5 27.5t33.5 26.5t25 33.5t19 37.5t14.5 49t12 58.5t13 74l170 965h-102l23 102h98l33 180q22 133 77.5 185.5t139.5 52.5q85 0 301 -70l-56 -94q-186 51 -231 51q-51 0 -78 -37.5t-35 -85.5l-32 -182h419l-190 -1075h-117l172 973h-303 l-170 -961q-31 -180 -53 -237q-32 -82 -106 -130q-53 -34 -158 -71z" />
<glyph horiz-adv-x="841" d="M-162 -324q34 14 58.5 25.5t45.5 27.5t33.5 26.5t25 33.5t19 37.5t14.5 49t12 58.5t13 74l170 965h-102l23 102h98l33 180q22 133 77.5 185.5t139.5 52.5q85 0 301 -70l-56 -94q-186 51 -231 51q-51 0 -78 -37.5t-35 -85.5l-32 -182h424l-203 -1138q-24 -137 -45 -183 q-32 -73 -115 -119q-54 -30 -145 -61l-23 104q53 23 86.5 42.5t54.5 37t34 46.5t19 53t15 75l182 1041h-303l-170 -961q-31 -180 -53 -237q-32 -82 -106 -130q-53 -34 -158 -71z" />
<glyph horiz-adv-x="1261" d="M-162 -324q27 11 48 20.5t39.5 22t31 20.5t25 23.5t19.5 25t15.5 31.5t12.5 35t10.5 43.5t10.5 50t11 60.5l170 965h-104l23 102h98l33 180q23 132 77.5 185t133.5 53q80 0 278 -66l12 66h117l-172 -983l399 565h142l-334 -442l186 -633h-123l-145 526l-160 -211 l-55 -315h-119l234 1325q-192 55 -246 55q-87 0 -107 -123l-32 -182h196l-20 -102h-195l-168 -961q-14 -86 -22 -126.5t-24.5 -92t-34 -74.5t-51.5 -52.5t-77 -49t-110 -43.5z" />
<glyph horiz-adv-x="321" d="M141 788l25 140h100l-24 -140h-101zM209 1044l78 605h110l-133 -605h-55z" />
<glyph horiz-adv-x="884" d="M-162 -324q34 14 58.5 25.5t45.5 27.5t33.5 26.5t25 33.5t19 37.5t14.5 49t12 58.5t13 74l170 965h-102l23 102h98l33 180q24 133 78 185.5t133 52.5q80 0 276 -63l12 63h119l-264 -1493h-119l234 1325q-6 1 -58.5 16t-105.5 27t-80 12q-87 0 -107 -123l-32 -182h196 l-20 -102h-195l-170 -961q-16 -91 -23.5 -130.5t-24.5 -92.5t-33.5 -74t-50.5 -50.5t-76 -48t-109 -42.5z" />
<glyph horiz-adv-x="1001" d="M-162 -324q34 14 58.5 25.5t45.5 27.5t33.5 26.5t25 33.5t19 37.5t14.5 49t12 58.5t13 74l170 965h-102l23 102h98l33 180q20 123 65 180.5t121 57.5q94 0 227 -70l-59 -90q-104 47 -152 47q-62 0 -84 -123l-32 -182h321l49 271l125 40l-55 -311h201l-19 -102h-201 l-133 -760q-21 -123 45 -123q41 0 142 55l32 -98q-130 -70 -215 -70q-70 0 -107 57.5t-13 194.5l131 744h-322l-170 -961q-16 -91 -23.5 -130.5t-24.5 -92.5t-33.5 -74t-50.5 -50.5t-76 -48t-109 -42.5z" />
<glyph horiz-adv-x="378" d="M-180 -492q29 12 47 21.5t32.5 23t22 23t14.5 33t10 40.5t9 56l96 557h-59l14 76h60l16 92q15 85 45 121.5t88 36.5q50 0 143 -45l-43 -68q-67 27 -90 27q-38 0 -51 -72l-16 -92h121l-17 -76h-119l-96 -553q-23 -124 -41 -160q-25 -54 -94 -86q-30 -15 -76 -30z" />
<glyph horiz-adv-x="921" d="M82.5 215q-4.5 70 13.5 150l142 811h116l-143 -820q-6 -34 -9.5 -57.5t-4.5 -53t3 -49.5t14.5 -41t28 -33t45.5 -20t66 -8q222 0 264 254l148 828h115l-144 -822q-15 -84 -42 -148.5t-71.5 -116.5t-113.5 -79.5t-160 -27.5q-94 0 -154.5 30t-84.5 81.5t-28.5 121.5z M463 1282l211 262h170l-275 -262h-106z" />
<glyph horiz-adv-x="577" d="M-29 84l56 68q1 -1 9 -8t12.5 -11.5t14.5 -12.5t18 -13t19.5 -11.5t22 -10.5t23.5 -6.5t26 -2.5q67 0 120.5 63.5t53.5 169.5q0 67 -27.5 108.5t-78.5 41.5q-63 0 -129 -56l-50 31l107 426h350l-16 -88h-271l-55 -248q48 23 94 23q83 0 128.5 -65t45.5 -167 q0 -135 -74.5 -232t-193.5 -97q-112 0 -205 98z" />
<glyph horiz-adv-x="579" d="M74 657l55 68q1 -1 9 -8t12.5 -11.5t14.5 -12.5t18 -13t19.5 -11.5t22 -10.5t23.5 -6.5t26 -2.5q67 0 121 64t54 170q0 67 -28 108t-79 41q-64 0 -129 -55l-49 31l106 426h351l-17 -88h-270l-55 -248q46 22 94 22q83 0 128.5 -64.5t45.5 -166.5q0 -136 -74.5 -233 t-193.5 -97q-112 0 -205 98z" />
<glyph horiz-adv-x="849" d="M-45 -133l72 92q2 -1 19 -17t29 -26t35.5 -26.5t44 -26.5t48.5 -17.5t55 -7.5q53 0 106 28.5t96.5 80.5t71 134.5t27.5 180.5q0 120 -46 193t-134 73q-92 0 -213 -94l-66 37l176 705h537l-20 -117h-433l-104 -459q81 43 164 43q127 0 197.5 -105t70.5 -270 q0 -148 -52 -272.5t-150.5 -200.5t-223.5 -76q-56 0 -105.5 14t-89 40.5t-62.5 46t-50 47.5z" />
<glyph d="M18 125l72 92q1 -1 19 -17t29.5 -26t35.5 -26.5t44.5 -26t48.5 -17.5t55 -8q53 0 106 28.5t96.5 80.5t71 134.5t27.5 180.5q0 120 -46.5 193t-134.5 73q-92 0 -213 -94l-65 37l176 705h537l-21 -117h-432l-105 -459q81 43 164 43q127 0 198 -105t71 -270 q0 -148 -52 -272.5t-150.5 -200.5t-223.5 -76q-73 0 -139.5 28t-99 55t-69.5 65z" />
<glyph horiz-adv-x="323" d="M-51 -307l24 139h101l-25 -139h-100zM16 -51l78 604h111l-133 -604h-56z" />
<glyph horiz-adv-x="1193" d="M70 541l49 59q61 -61 127 -61q57 0 101 49t44 133q0 56 -23 89.5t-67 33.5q-51 0 -113 -45l-43 26l88 351h306l-15 -76h-233l-47 -199q40 19 82 19q72 0 111.5 -54.5t39.5 -138.5q0 -111 -63 -189.5t-166 -78.5q-96 0 -178 82zM233 0l611 1176h86l-608 -1176h-89z M625 154q0 44 16 81t45.5 64.5t56.5 45.5t64 36q-82 62 -82 154q0 78 56 130t141 52q77 0 115 -42.5t38 -103.5q0 -109 -143 -194q108 -70 108 -180q0 -92 -66.5 -150.5t-166.5 -58.5q-85 0 -133.5 44t-48.5 122zM709 160q0 -50 29 -75.5t73 -25.5q60 0 102.5 39t42.5 101 q0 49 -24 81.5t-66 61.5q-76 -41 -116.5 -81.5t-40.5 -100.5zM803 528q0 -66 69 -114q32 19 54 34.5t44.5 48t22.5 68.5t-19 59t-56 23q-49 0 -82 -36t-33 -83z" />
<glyph horiz-adv-x="321" d="M137 788l133 605h56l-78 -605h-111zM268 1509l25 140h100l-24 -140h-101z" />
<glyph horiz-adv-x="1175" d="M70 541l49 59q61 -61 127 -61q57 0 101 49t44 133q0 56 -23 89.5t-67 33.5q-51 0 -113 -45l-43 26l88 351h306l-15 -76h-233l-47 -199q40 19 82 19q72 0 111.5 -54.5t39.5 -138.5q0 -111 -63 -189.5t-166 -78.5q-96 0 -178 82zM233 0l611 1176h86l-608 -1176h-89z M621 227q0 126 47 238.5t130.5 182t182.5 69.5q24 0 45.5 -4.5t31.5 -8.5l9 -4l-35 -69q-22 10 -53 10q-85 0 -155.5 -77t-102.5 -193q21 30 58 55t87 25q71 0 111.5 -55.5t40.5 -133.5q0 -107 -60.5 -190.5t-156.5 -83.5q-89 0 -134.5 68.5t-45.5 170.5zM702 225 q0 -68 25.5 -115t73.5 -47q60 0 95.5 58.5t35.5 136.5q0 50 -22 86.5t-68 36.5t-86 -38.5t-51 -74.5v13q-3 -27 -3 -56z" />
<glyph horiz-adv-x="321" d="M-57 -307l133 604h55l-78 -604h-110zM74 414l24 139h101l-25 -139h-100z" />
<glyph horiz-adv-x="921" d="M82.5 215q-4.5 70 13.5 150l142 811h116l-143 -820q-6 -34 -9.5 -57.5t-4.5 -53t3 -49.5t14.5 -41t28 -33t45.5 -20t66 -8q222 0 264 254l148 828h115l-144 -822q-15 -84 -42 -148.5t-71.5 -116.5t-113.5 -79.5t-160 -27.5q-94 0 -154.5 30t-84.5 81.5t-28.5 121.5z" />
<glyph horiz-adv-x="559" d="M209 1559l16 90h473l-16 -90h-190l-136 -771h-94l135 771h-188z" />
<glyph horiz-adv-x="614" d="M-25 190l15 78l391 592h127l-102 -581h92l-17 -89h-92l-33 -190h-92l33 190h-322zM84 279h229l82 471z" />
<glyph horiz-adv-x="616" d="M78 764l14 78l391 592h127l-102 -582h92l-16 -88h-92l-33 -191h-92l32 191h-321zM186 852h230l82 471z" />
<glyph horiz-adv-x="915" d="M-31 72l19 106l643 998h164l-177 -988h154l-20 -116h-154l-57 -330h-123l57 330h-506zM111 188h385l147 824z" />
<glyph horiz-adv-x="888" d="M4 330l19 106l643 998h159l-176 -988h152l-21 -116h-151l-58 -330h-122l57 330h-502zM145 446h381l146 816z" />
<glyph horiz-adv-x="1247" d="M68 625l12 67l334 484h112l-86 -476h82l-14 -75h-82l-27 -154h-82l27 154h-276zM166 700h192l66 377zM289 0l610 1176h84l-608 -1176h-86zM674 70l51 59q70 -61 125 -61q59 0 104 50t45 134q0 54 -24.5 87.5t-69.5 33.5q-48 0 -110 -43l-45 24l92 351h303l-12 -76h-236 l-45 -197q42 17 80 17q73 0 113 -54t40 -139q0 -110 -63.5 -189t-165.5 -79q-42 0 -82.5 16.5t-56.5 29t-43 36.5z" />
<glyph horiz-adv-x="448" d="M49 0l178 829h70l-111 -829h-137zM225 991l33 185h129l-33 -185h-129z" />
<glyph horiz-adv-x="921" d="M82.5 215q-4.5 70 13.5 150l142 811h116l-143 -820q-6 -34 -9.5 -57.5t-4.5 -53t3 -49.5t14.5 -41t28 -33t45.5 -20t66 -8q222 0 264 254l148 828h115l-144 -822q-15 -84 -42 -148.5t-71.5 -116.5t-113.5 -79.5t-160 -27.5q-94 0 -154.5 30t-84.5 81.5t-28.5 121.5z M369 1282l184 262h137l90 -262h-80l-88 184l-149 -184h-94z" />
<glyph horiz-adv-x="446" d="M51 0l33 184h129l-33 -184h-129zM141 346l111 830h137l-178 -830h-70z" />
<glyph d="M49 283l14 94h84l189 1057h620l-24 -117h-494l-94 -543h397l-22 -117h-395l-52 -280h252l-16 -94h-252l-51 -283h-123l49 283h-82z" />
<glyph horiz-adv-x="804" d="M35 227l14 84h74l153 865h545l-22 -111h-426l-74 -424h342l-20 -109h-342l-39 -221h217l-17 -84h-217l-39 -227h-114l39 227h-74z" />
<glyph horiz-adv-x="581" d="M-66 -147l13 67h53l113 633h399l-16 -90h-306l-51 -295h244l-16 -90h-244l-29 -158h160l-12 -67h-160l-27 -160h-94l29 160h-56z" />
<glyph horiz-adv-x="583" d="M129 948l12 68h54l112 633h400l-17 -90h-305l-51 -295h244l-17 -90h-244l-28 -158h160l-13 -68h-160l-26 -160h-94l26 160h-53z" />
<glyph horiz-adv-x="374" d="M18 604q29 12 47 21.5t33 23t22.5 23.5t14 32.5t10 40.5t9.5 56l96 557h-60l15 76h59l17 92q15 84 45 120.5t88 36.5q50 0 143 -45l-43 -67q-65 26 -90 26q-38 0 -51 -71l-17 -92h121l-16 -76h-119l-96 -553q-23 -125 -41 -161q-26 -54 -95 -87q-30 -14 -75 -29z" />
<glyph horiz-adv-x="559" d="M16 463l17 90h473l-17 -90h-190l-135 -770h-94l135 770h-189z" />
<glyph horiz-adv-x="862" d="M39 0l207 1176h114l-36 -213h145q153 0 234 -67.5t81 -203.5q0 -213 -126 -327.5t-336 -114.5h-123l-45 -250h-115zM217 358h119q140 0 233 85t93 237q0 172 -201 172h-158z" />
<glyph horiz-adv-x="731" d="M39 -307l45 84q34 -27 70 -27q37 0 64.5 32.5t27.5 100.5q0 72 -15 117h-32l186 1065h-264l20 111h645l-20 -111h-264l-187 -1065h-24q26 -65 26 -141q0 -91 -45.5 -147t-121.5 -56q-65 0 -111 37z" />
<glyph horiz-adv-x="731" d="M121 1065l20 111h645l-20 -111h-264l-187 -1065h-116l186 1065h-264zM322 1544h81l91 -182l147 182h94l-184 -262h-137z" />
<glyph horiz-adv-x="749" d="M129 1065l21 111h645l-21 -111h-264l-104 -590h133l-15 -86h-133l-67 -389h-117l67 389h-129l17 86h127l104 590h-264z" />
<glyph horiz-adv-x="645" d="M-68 -307l113 639q24 136 87.5 198t164.5 62q95 0 147 -47t52 -127q0 -40 -13 -75t-26 -49l-13 -15q-67 -27 -90 -55q-22 -26 -22 -60q0 -17 7 -35t13 -28t24.5 -34.5t26.5 -35.5q20 -27 31.5 -46.5t22 -51t10.5 -64.5q0 -84 -55.5 -137.5t-135.5 -53.5q-81 0 -176 64 l47 65q63 -47 121 -47q41 0 73 28.5t32 78.5q0 31 -12 55t-39 58q-3 3 -16 19.5t-17 22.5t-15 21t-15 25l-10 25t-8.5 30t-2.5 31q0 42 16 75.5t45.5 55.5t46 31t43.5 20q17 42 17 74q0 48 -27.5 74t-79.5 26q-61 0 -103 -41t-61 -143l-112 -633h-91z" />
<glyph horiz-adv-x="645" d="M127 788l113 639q46 261 252 261q95 0 146.5 -47.5t51.5 -127.5q0 -40 -13 -74.5t-25 -49.5l-13 -15q-63 -25 -86 -49q-27 -28 -27 -65q0 -17 7 -35t13.5 -28t25 -35t26.5 -36q20 -28 31.5 -46.5t22 -50t10.5 -64.5q0 -84 -55.5 -137.5t-135.5 -53.5q-81 0 -176 64l47 65 q63 -47 121 -47q41 0 72.5 28.5t31.5 78.5q0 31 -12 54.5t-39 57.5q-3 3 -16 19.5t-17 22.5t-15 21t-15 25l-10 25t-8.5 30t-2.5 31q0 42 16 75.5t45.5 55.5t46.5 31.5t44 20.5q16 40 16 73q0 48 -27 74.5t-79 26.5q-60 0 -102.5 -41t-61.5 -144l-113 -633h-90z" />
<glyph horiz-adv-x="595" d="M-109 -524l35 82q98 -45 172 -45q66 0 98 41.5t42 99.5l24 137q-96 -113 -182 -113q-57 0 -92 52t-35 153q0 121 30 227.5t87 174t127 67.5q31 0 61.5 -19t45.5 -36.5t38 -48.5l16 90h93l-121 -684q-22 -126 -77.5 -174.5t-146.5 -48.5q-105 0 -215 45zM47 -104 q0 -63 17.5 -98.5t50.5 -35.5q71 0 164 121l49 279q-22 46 -53 76t-66 30q-46 0 -84.5 -60t-58 -144.5t-19.5 -167.5z" />
<glyph horiz-adv-x="731" d="M121 1065l20 111h645l-20 -111h-264l-187 -1065h-116l186 1065h-264z" />
<glyph horiz-adv-x="608" d="M117 872l61 76q99 -82 187 -82q61 0 103 38t42 102q0 30 -9 55.5t-32 50.5t-39.5 39t-52.5 43q-78 62 -117 117t-39 127q0 98 67.5 161.5t170.5 63.5q105 0 229 -76l-59 -76q-95 60 -168 60q-55 0 -95 -35.5t-40 -97.5q0 -48 27.5 -82t97.5 -90q53 -43 83 -74t54 -79.5 t24 -102.5q0 -104 -72 -170t-175 -66q-124 0 -248 98z" />
<glyph horiz-adv-x="921" d="M82.5 215q-4.5 70 13.5 150l142 811h116l-143 -820q-6 -34 -9.5 -57.5t-4.5 -53t3 -49.5t14.5 -41t28 -33t45.5 -20t66 -8q222 0 264 254l148 828h115l-144 -822q-15 -84 -42 -148.5t-71.5 -116.5t-113.5 -79.5t-160 -27.5q-94 0 -154.5 30t-84.5 81.5t-28.5 121.5z M401 1303l33 176h117l-31 -176h-119zM641 1303l31 176h116l-30 -176h-117z" />
<glyph horiz-adv-x="600" d="M86 571l35 82q98 -45 172 -45q116 0 139 142l25 137q-96 -113 -183 -113q-57 0 -92 52t-35 153q0 121 30 227.5t87 174t127 67.5q31 0 61.5 -19t46 -37t38.5 -49l16 91h92l-121 -684q-22 -126 -77 -175t-146 -49q-105 0 -215 45zM242 991q0 -133 67 -133q71 0 164 121 l49 278q-22 47 -53 77t-66 30q-46 0 -84.5 -60t-57.5 -144.5t-19 -168.5z" />
<glyph horiz-adv-x="608" d="M-78 -223l62 76q99 -82 186 -82q61 0 103 37.5t42 101.5q0 30 -9 55.5t-32 50.5t-39.5 39t-52.5 43q-77 62 -116 117t-39 127q0 98 67 161.5t170 63.5q108 0 230 -75l-60 -76q-93 59 -168 59q-55 0 -95 -35.5t-40 -97.5q0 -48 27.5 -82t97.5 -90q81 -66 121.5 -122 t40.5 -134q0 -104 -72 -170t-176 -66q-123 0 -248 99z" />
<glyph horiz-adv-x="802" d="M-6 111l76 90q148 -111 262 -111q90 0 152.5 56.5t62.5 148.5q0 29 -6 55t-23 52t-28 41.5t-43 43t-43 37t-52 41.5q-52 41 -84 71.5t-64.5 71t-47.5 86t-15 97.5q0 133 93 218t231 85q152 0 309 -100l-74 -90q-127 79 -233 79q-83 0 -142 -50.5t-59 -141.5 q0 -68 39.5 -117t136.5 -125q46 -37 72.5 -60.5t60.5 -60t52.5 -67.5t31.5 -73.5t13 -88.5q0 -141 -101 -229t-241 -88q-170 0 -336 129zM139 -494l94 179h-53l33 182h113l-21 -186l-133 -213z" />
<glyph horiz-adv-x="921" d="M82.5 215q-4.5 70 13.5 150l142 811h116l-143 -820q-6 -34 -9.5 -57.5t-4.5 -53t3 -49.5t14.5 -41t28 -33t45.5 -20t66 -8q222 0 264 254l148 828h115l-144 -822q-15 -84 -42 -148.5t-71.5 -116.5t-113.5 -79.5t-160 -27.5q-94 0 -154.5 30t-84.5 81.5t-28.5 121.5z M403 1544h152l131 -262h-92z" />
<glyph horiz-adv-x="921" d="M82.5 215q-4.5 70 13.5 150l142 811h116l-143 -820q-6 -34 -9.5 -57.5t-4.5 -53t3 -49.5t14.5 -41t28 -33t45.5 -20t66 -8q222 0 264 254l148 828h115l-144 -822q-15 -84 -42 -148.5t-71.5 -116.5t-113.5 -79.5t-160 -27.5q-94 0 -154.5 30t-84.5 81.5t-28.5 121.5z M406 1282l147 262h143l-213 -262h-77zM618 1282l150 262h143l-215 -262h-78z" />
<glyph horiz-adv-x="802" d="M-6 111l76 90q148 -111 262 -111q90 0 152.5 56.5t62.5 148.5q0 29 -6 55t-23 52t-28 41.5t-43 43t-43 37t-52 41.5q-52 41 -84 71.5t-64.5 71t-47.5 86t-15 97.5q0 133 93 218t231 85q152 0 309 -100l-74 -90q-127 79 -233 79q-83 0 -142 -50.5t-59 -141.5 q0 -68 39.5 -117t136.5 -125q46 -37 72.5 -60.5t60.5 -60t52.5 -67.5t31.5 -73.5t13 -88.5q0 -141 -101 -229t-241 -88q-170 0 -336 129zM313 1282l185 262h137l90 -262h-80l-88 184l-149 -184h-95z" />
<glyph horiz-adv-x="802" d="M-6 111l76 90q148 -111 262 -111q90 0 152.5 56.5t62.5 148.5q0 29 -6 55t-23 52t-28 41.5t-43 43t-43 37t-52 41.5q-52 41 -84 71.5t-64.5 71t-47.5 86t-15 97.5q0 133 93 218t231 85q152 0 309 -100l-74 -90q-127 79 -233 79q-83 0 -142 -50.5t-59 -141.5 q0 -68 39.5 -117t136.5 -125q46 -37 72.5 -60.5t60.5 -60t52.5 -67.5t31.5 -73.5t13 -88.5q0 -135 -92 -221t-224 -94q21 -66 21 -125q0 -91 -46 -147t-122 -56q-65 0 -111 37l45 84q34 -27 70 -27q37 0 64.5 32.5t27.5 100.5q0 39 -10 101q-155 12 -301 127z" />
<glyph horiz-adv-x="593" d="M-63 -307l157 895h90l-61 -340q37 30 58.5 46.5t65 37t81.5 20.5q64 0 89.5 -48.5t10.5 -133.5l-82 -477h-94l82 463q11 44 1 79t-50 35q-41 0 -90 -32.5t-86 -71.5l-82 -473h-90z" />
<glyph horiz-adv-x="802" d="M-6 111l76 90q148 -111 262 -111q90 0 152.5 56.5t62.5 148.5q0 29 -6 55t-23 52t-28 41.5t-43 43t-43 37t-52 41.5q-52 41 -84 71.5t-64.5 71t-47.5 86t-15 97.5q0 133 93 218t231 85q152 0 309 -100l-74 -90q-127 79 -233 79q-83 0 -142 -50.5t-59 -141.5 q0 -68 39.5 -117t136.5 -125q46 -37 72.5 -60.5t60.5 -60t52.5 -67.5t31.5 -73.5t13 -88.5q0 -141 -101 -229t-241 -88q-170 0 -336 129zM358 1544h82l90 -182l148 182h94l-184 -262h-137z" />
<glyph horiz-adv-x="690" d="M-17 -144q-3 53 11 113l102 584h94l-104 -590q-6 -34 -7.5 -58t1.5 -52t14 -44.5t34.5 -28t59.5 -11.5q156 0 185 188l106 596h94l-104 -598q-24 -130 -91 -203.5t-196 -73.5q-70 0 -115 23t-63 62.5t-21 92.5z" />
<glyph horiz-adv-x="804" d="M-6 111l76 90q148 -111 262 -111q90 0 152.5 56.5t62.5 148.5q0 29 -6 55t-23 52t-28 41.5t-43 43t-43 37t-52 41.5q-52 41 -84 71.5t-64.5 71t-47.5 86t-15 97.5q0 133 93 218t231 85q152 0 309 -100l-74 -90q-127 79 -233 79q-83 0 -142 -50.5t-59 -141.5 q0 -68 39.5 -117t136.5 -125q46 -37 72.5 -60.5t60.5 -60t52.5 -67.5t31.5 -73.5t13 -88.5q0 -141 -101 -229t-241 -88q-170 0 -336 129zM406 1282l210 262h170l-274 -262h-106z" />
<glyph horiz-adv-x="802" d="M-6 111l76 90q148 -111 262 -111q90 0 152.5 56.5t62.5 148.5q0 29 -6 55t-23 52t-28 41.5t-43 43t-43 37t-52 41.5q-52 41 -84 71.5t-64.5 71t-47.5 86t-15 97.5q0 133 93 218t231 85q152 0 309 -100l-74 -90q-127 79 -233 79q-83 0 -142 -50.5t-59 -141.5 q0 -68 39.5 -117t136.5 -125q46 -37 72.5 -60.5t60.5 -60t52.5 -67.5t31.5 -73.5t13 -88.5q0 -141 -101 -229t-241 -88q-170 0 -336 129z" />
<glyph horiz-adv-x="671" d="M145 788l152 861h213q231 0 231 -187q0 -109 -57.5 -187.5t-161.5 -107.5l109 -379h-103l-94 367h-129l-65 -367h-95zM317 1239h105q103 0 163 57.5t60 151.5q0 59 -39.5 87t-107.5 28h-123z" />
<glyph horiz-adv-x="669" d="M-49 -307l151 860h213q232 0 232 -186q0 -109 -57.5 -187.5t-161.5 -107.5l108 -379h-102l-94 366h-129l-66 -366h-94zM123 143h104q103 0 163.5 58t60.5 151q0 59 -40 87t-108 28h-123z" />
<glyph horiz-adv-x="901" d="M39 0l207 1176h289q153 0 234 -63t81 -189q0 -151 -82 -258t-223 -144l149 -522h-121l-137 506h-192l-90 -506h-115zM182 -494l94 179h-53l33 182h113l-21 -186l-133 -213zM262 612h148q149 0 235 79.5t86 215.5q0 83 -55.5 122.5t-151.5 39.5h-182z" />
<glyph horiz-adv-x="901" d="M39 0l207 1176h289q153 0 234 -63t81 -189q0 -151 -82 -258t-223 -144l149 -522h-121l-137 506h-192l-90 -506h-115zM262 612h148q149 0 235 79.5t86 215.5q0 83 -55.5 122.5t-151.5 39.5h-182zM430 1544h82l90 -182l148 182h94l-185 -262h-137z" />
<glyph horiz-adv-x="901" d="M39 0l207 1176h289q153 0 234 -63t81 -189q0 -151 -82 -258t-223 -144l149 -522h-121l-137 506h-192l-90 -506h-115zM262 612h148q149 0 235 79.5t86 215.5q0 83 -55.5 122.5t-151.5 39.5h-182zM477 1282l211 262h170l-274 -262h-107z" />
<glyph horiz-adv-x="288" d="M-66 -307l113 645h92l-112 -645h-93zM68 467l20 119h98l-20 -119h-98z" />
<glyph horiz-adv-x="901" d="M39 0l207 1176h289q153 0 234 -63t81 -189q0 -151 -82 -258t-223 -144l149 -522h-121l-137 506h-192l-90 -506h-115zM262 612h148q149 0 235 79.5t86 215.5q0 83 -55.5 122.5t-151.5 39.5h-182z" />
<glyph horiz-adv-x="722" d="M176 1059q0 24 3 62t12.5 97t24 117t41.5 118.5t61.5 106t86 74.5t113.5 29q48 0 89 -14t76.5 -45t56 -88.5t20.5 -137.5q0 -34 -5 -86t-22 -133.5t-43.5 -153t-76.5 -134t-115 -85.5l88 -122l-76 -60l-104 170q-47 2 -86 16.5t-72.5 46t-52.5 88.5t-19 134zM272 1055 q0 -98 42.5 -145.5t103.5 -47.5q59 0 106 49t72 116t41.5 146.5t21.5 130t5 76.5q0 99 -42.5 146t-103.5 47q-60 0 -107 -49t-72 -116t-41.5 -146.5t-21 -130t-4.5 -76.5z" />
<glyph horiz-adv-x="921" d="M82.5 215q-4.5 70 13.5 150l142 811h116l-143 -820q-6 -34 -9.5 -57.5t-4.5 -53t3 -49.5t14.5 -41t28 -33t45.5 -20t66 -8q222 0 264 254l148 828h115l-144 -822q-15 -84 -42 -148.5t-71.5 -116.5t-113.5 -79.5t-160 -27.5q-94 0 -154.5 30t-84.5 81.5t-28.5 121.5z M379 1333l18 94h410l-19 -94h-409z" />
<glyph horiz-adv-x="921" d="M82.5 215q-4.5 70 13.5 150l142 811h116l-143 -820q-6 -34 -9.5 -57.5t-4.5 -53t3 -49.5t14.5 -41t28 -33t45.5 -20t66 -8q222 0 264 254l148 828h115l-144 -822q-27 -143 -89.5 -234.5t-176.5 -121.5q-89 -67 -128.5 -115.5t-39.5 -101.5q0 -17 6 -28t13.5 -17t23 -8.5 t24 -3t25.5 -0.5h4.5h3.5l-30 -91q-22 0 -36.5 1t-41.5 7.5t-43.5 18.5t-29.5 37t-13 61q0 123 145 224h-4q-94 0 -154.5 30t-84.5 81.5t-28.5 121.5z" />
<glyph horiz-adv-x="722" d="M-16 -37q0 24 3 62t12.5 97t24 117t41.5 118.5t61.5 106t86 74.5t113.5 29q49 0 89.5 -14t76 -44.5t55.5 -88t20 -137.5q0 -34 -5 -86t-22 -133.5t-43.5 -153t-76.5 -134t-115 -85.5l88 -123l-76 -60l-104 170q-47 2 -85.5 16.5t-72 46t-52.5 88.5t-19 134zM80 -41 q0 -98 42 -145t103 -47q59 0 106 49t72 116t41.5 146.5t21.5 130t5 76.5q0 99 -42 145.5t-103 46.5q-60 0 -107 -49t-72 -116t-41.5 -146.5t-21 -130t-4.5 -76.5z" />
<glyph horiz-adv-x="546" d="M-45 -66q0 180 80 299t209 119q71 0 112 -40.5t41 -112.5q0 -105 -81.5 -166.5t-225.5 -61.5h-43v-39q0 -174 92 -174q14 0 30 4.5t28.5 10t31 16t27.5 16.5t28 19t23 16l35 -67q-121 -95 -221 -95q-76 0 -121 65t-45 191zM55 35h41q103 0 158 46.5t55 113.5q0 79 -76 79 q-64 0 -112 -66.5t-66 -172.5z" />
<glyph horiz-adv-x="970" d="M84 360q0 34 4 86.5t17 134t33.5 161.5t57.5 163.5t84.5 146t118.5 102.5t156 40q50 0 94 -10.5t87.5 -37.5t75 -69t50.5 -109t19 -153q0 -31 -3.5 -77t-14 -118t-27 -144t-45.5 -150t-66.5 -142t-93 -114.5t-121.5 -71.5l125 -172l-96 -72l-142 228q-50 1 -93 12.5 t-84.5 39t-70.5 69t-47 107.5t-18 150zM203 356q0 -72 18 -125t48.5 -82t66 -43t76.5 -14q62 0 114.5 36.5t87.5 93.5t62.5 131.5t43 146t25.5 141t13.5 112t3.5 64.5q0 138 -61 202t-148 64q-62 0 -114.5 -36.5t-87.5 -93.5t-62.5 -131.5t-43 -146t-25.5 -141.5t-13.5 -113 t-3.5 -65z" />
<glyph horiz-adv-x="643" d="M145 788l152 861h192q115 0 173.5 -51t58.5 -150q0 -156 -91.5 -241t-246.5 -85h-84l-59 -334h-95zM315 1212h80q98 0 163 60t65 166q0 63 -38.5 93t-105.5 30h-104z" />
<glyph horiz-adv-x="641" d="M-49 -307l151 860h193q231 0 231 -201q0 -155 -91.5 -240t-246.5 -85h-84l-59 -334h-94zM121 117h80q98 0 162.5 59.5t64.5 165.5q0 123 -143 123h-105z" />
<glyph horiz-adv-x="284" d="M-205 -489q79 32 99.5 58t31.5 93l119 676h92l-117 -672q-8 -40 -12.5 -60t-14 -46.5t-22 -40t-34 -30.5t-51 -29.5t-72.5 -26.5zM66 467l20 119h98l-20 -119h-98z" />
<glyph d="M25 297q0 75 23 142t56.5 114.5t84.5 92.5t93 72t95 56q-154 125 -154 309q0 162 105.5 267.5t255.5 105.5q68 0 120.5 -24t83 -65t45.5 -90t15 -103q0 -235 -285 -408q41 -30 72 -60t64.5 -75.5t52 -105t18.5 -128.5q0 -187 -123.5 -303.5t-300.5 -116.5 q-147 0 -234 84.5t-87 235.5zM152 305q0 -108 55.5 -161.5t144.5 -53.5q120 0 205.5 85t85.5 226q0 104 -47 173.5t-131 134.5q-72 -44 -120.5 -79.5t-96.5 -85t-72 -109.5t-24 -130zM342 1077q0 -144 133 -250q252 148 252 344q0 77 -40.5 126t-115.5 49 q-98 0 -163.5 -79.5t-65.5 -189.5z" />
<glyph horiz-adv-x="856" d="M39 0l207 1176h260q313 0 313 -271q0 -213 -125 -326.5t-334 -113.5h-124l-82 -465h-115zM256 573h117q141 0 233 83.5t92 236.5q0 174 -200 174h-156z" />
<glyph horiz-adv-x="970" d="M84 360q0 34 4 86.5t17 134t33.5 161.5t57.5 163.5t84.5 146t118.5 102.5t156 40q50 0 94 -10.5t87.5 -37.5t75 -69t50.5 -109t19 -153q0 -34 -4 -86.5t-17.5 -134t-34 -161.5t-57.5 -163t-84 -145.5t-118.5 -102.5t-155.5 -40q-50 0 -94.5 10.5t-88 37.5t-74.5 68.5 t-50 108.5t-19 153zM203 356q0 -72 18 -125t48.5 -82t66 -43t76.5 -14q62 0 114.5 36.5t87.5 93.5t62.5 131.5t43 146t25.5 141t13.5 112t3.5 64.5q0 138 -61 202t-148 64q-62 0 -114.5 -36.5t-87.5 -93.5t-62.5 -131.5t-43 -146t-25.5 -141.5t-13.5 -113t-3.5 -65z M397 1352q42 77 74.5 111t75.5 34q24 0 48 -15.5t40 -34.5t35.5 -34.5t34.5 -15.5q16 0 35.5 19t50.5 75l57 -45q-43 -79 -74.5 -112.5t-75.5 -33.5q-25 0 -49 16t-39.5 34.5t-34.5 34.5t-34 16q-17 0 -35 -17.5t-51 -74.5z" />
<glyph horiz-adv-x="722" d="M178 1059q0 24 3 62t12.5 97t24 117t41.5 118.5t61.5 106t86 74.5t113.5 29q48 0 88.5 -14t76.5 -45t56.5 -89t20.5 -137q0 -24 -3 -62t-12.5 -97t-24.5 -117t-42 -118.5t-61.5 -106t-86.5 -74.5t-114 -29q-48 0 -88.5 14t-76 45t-55.5 89t-20 137zM274 1055 q0 -98 42.5 -145.5t103.5 -47.5q59 0 106 49t72 116t41.5 146.5t21.5 130t5 76.5q0 99 -42.5 146t-103.5 47q-60 0 -107 -49t-72 -116t-41.5 -146.5t-21 -130t-4.5 -76.5z" />
<glyph horiz-adv-x="526" d="M-66 -307l158 895h92l-100 -565l229 315h109l-209 -266l121 -379h-94l-90 299l-91 -117l-32 -182h-93z" />
<glyph horiz-adv-x="530" d="M127 788l158 895h92l-101 -565l230 316h108l-208 -267l120 -379h-94l-90 299l-90 -116l-33 -183h-92z" />
<glyph horiz-adv-x="972" d="M4 0l115 160q-35 81 -35 200q0 34 4 86.5t17 134t33.5 161.5t57.5 163.5t84.5 146t118.5 102.5t156 40q151 0 236 -94l55 76h92l-102 -142q45 -85 45 -219q0 -34 -4 -86.5t-17.5 -134t-34 -161.5t-57.5 -163t-84 -145.5t-118.5 -102.5t-155.5 -40q-167 0 -250 108 l-66 -90h-90zM203 356q0 -25 4 -71l510 712q-58 86 -164 86q-62 0 -114.5 -36.5t-87.5 -93.5t-62.5 -131.5t-43 -146t-25.5 -141.5t-13.5 -113t-3.5 -65zM236 197q54 -105 176 -105q62 0 114.5 36.5t87.5 93.5t62.5 131.5t43 146t25.5 141t13.5 112t3.5 64.5q0 50 -10 98z M479 1282l211 262h170l-274 -262h-107z" />
<glyph horiz-adv-x="935" d="M49 297q0 75 23 142t56.5 114.5t84.5 92.5t93 72t95 56q-153 125 -153 309q0 162 105 267.5t255 105.5q68 0 120.5 -24t83 -65t45.5 -90t15 -103q0 -236 -284 -408q41 -30 72 -60t64.5 -75.5t52 -105t18.5 -128.5q0 -187 -123.5 -303.5t-300.5 -116.5q-147 0 -234.5 84.5 t-87.5 235.5zM176 305q0 -108 56 -161.5t145 -53.5q120 0 205.5 85t85.5 226q0 55 -14.5 102t-42.5 85t-55 64t-67 57q-72 -44 -120.5 -79.5t-96.5 -85t-72 -109.5t-24 -130zM367 1077q0 -144 133 -250q252 148 252 344q0 77 -40.5 126t-115.5 49q-98 0 -163.5 -79.5 t-65.5 -189.5z" />
<glyph horiz-adv-x="970" d="M84 360q0 34 4 86.5t17 134t33.5 161.5t57.5 163.5t84.5 146t118.5 102.5t156 40q50 0 94 -10.5t87.5 -37.5t75 -69t50.5 -109t19 -153q0 -34 -4 -86.5t-17.5 -134t-34 -161.5t-57.5 -163t-84 -145.5t-118.5 -102.5t-155.5 -40q-50 0 -94.5 10.5t-88 37.5t-74.5 68.5 t-50 108.5t-19 153zM203 356q0 -72 18 -125t48.5 -82t66 -43t76.5 -14q62 0 114.5 36.5t87.5 93.5t62.5 131.5t43 146t25.5 141t13.5 112t3.5 64.5q0 138 -61 202t-148 64q-62 0 -114.5 -36.5t-87.5 -93.5t-62.5 -131.5t-43 -146t-25.5 -141.5t-13.5 -113t-3.5 -65z M406 1333l18 94h410l-19 -94h-409z" />
<glyph horiz-adv-x="722" d="M-14 -37q0 24 3 62t12.5 97t24 117t41.5 118.5t61.5 106t86 74.5t113.5 29q48 0 88.5 -14t76 -44.5t56 -88.5t20.5 -137q0 -24 -3 -62t-12.5 -97t-24.5 -117t-42 -118.5t-61.5 -106.5t-86.5 -75t-114 -29q-48 0 -88 14t-75.5 45t-55.5 89t-20 137zM82 -41q0 -98 42 -145 t103 -47q59 0 106 49t72 116t41.5 146.5t21.5 130t5 76.5q0 99 -42 145.5t-103 46.5q-60 0 -107 -49t-72 -116t-41.5 -146.5t-21 -130t-4.5 -76.5z" />
<glyph horiz-adv-x="972" d="M84 360q0 34 4 86.5t17 134t33.5 161.5t57.5 163.5t84.5 146t118.5 102.5t156 40q50 0 94 -10.5t87.5 -37.5t75 -69t50.5 -109t19 -153q0 -34 -4 -86.5t-17.5 -134t-34 -161.5t-57.5 -163t-84 -145.5t-118.5 -102.5t-155.5 -40q-50 0 -94.5 10.5t-88 37.5t-74.5 68.5 t-50 108.5t-19 153zM203 356q0 -72 18 -125t48.5 -82t66 -43t76.5 -14q62 0 114.5 36.5t87.5 93.5t62.5 131.5t43 146t25.5 141t13.5 112t3.5 64.5q0 138 -61 202t-148 64q-62 0 -114.5 -36.5t-87.5 -93.5t-62.5 -131.5t-43 -146t-25.5 -141.5t-13.5 -113t-3.5 -65z M432 1282l148 262h143l-213 -262h-78zM645 1282l150 262h143l-215 -262h-78z" />
<glyph horiz-adv-x="970" d="M84 360q0 34 4 86.5t17 134t33.5 161.5t57.5 163.5t84.5 146t118.5 102.5t156 40q50 0 94 -10.5t87.5 -37.5t75 -69t50.5 -109t19 -153q0 -34 -4 -86.5t-17.5 -134t-34 -161.5t-57.5 -163t-84 -145.5t-118.5 -102.5t-155.5 -40q-50 0 -94.5 10.5t-88 37.5t-74.5 68.5 t-50 108.5t-19 153zM203 356q0 -72 18 -125t48.5 -82t66 -43t76.5 -14q62 0 114.5 36.5t87.5 93.5t62.5 131.5t43 146t25.5 141t13.5 112t3.5 64.5q0 138 -61 202t-148 64q-62 0 -114.5 -36.5t-87.5 -93.5t-62.5 -131.5t-43 -146t-25.5 -141.5t-13.5 -113t-3.5 -65z M430 1544h152l131 -262h-92z" />
<glyph horiz-adv-x="620" d="M102 758q0 54 19 100t53.5 80t65.5 56t73 44q-90 78 -90 185q0 98 65.5 161.5t164.5 63.5q87 0 130.5 -51t43.5 -123q0 -142 -168 -240q125 -91 125 -219q0 -114 -78 -185t-195 -71q-96 0 -152.5 53t-56.5 146zM199 766q0 -62 32.5 -92.5t85.5 -30.5q70 0 120 48.5 t50 125.5q0 58 -28 96.5t-78 75.5q-42 -24 -70 -43.5t-56 -47t-42 -60.5t-14 -72zM311 1217q0 -78 80 -140q144 78 144 191q0 43 -23.5 70.5t-67.5 27.5q-57 0 -95 -44.5t-38 -104.5z" />
<glyph horiz-adv-x="284" d="M-66 -307l158 895h92l-157 -895h-93z" />
<glyph horiz-adv-x="618" d="M0 184q0 54 19 100t53 80t66 56.5t73 44.5q-90 78 -90 184q0 98 65 161.5t164 63.5q87 0 130.5 -51t43.5 -123q0 -141 -168 -239q125 -91 125 -219q0 -114 -77.5 -185t-194.5 -71q-96 0 -152.5 52.5t-56.5 145.5zM96 193q0 -61 33 -92t86 -31q70 0 120 48.5t50 125.5 q0 58 -28 96.5t-78 75.5q-89 -51 -136 -100t-47 -123zM209 643q0 -77 80 -139q143 78 143 190q0 44 -23 71.5t-67 27.5q-57 0 -95 -45t-38 -105z" />
<glyph horiz-adv-x="753" d="M6 0l17 90q5 4 13.5 12t32 34.5t45 54.5t47 71t42.5 86h-121l12 82h133q11 57 11 94v25h-121l14 82h96q-4 23 -15.5 77t-17.5 96t-6 81q0 140 76.5 224.5t202.5 84.5q44 0 85 -11t78 -33.5t57 -37t52 -41.5l-69 -78q-114 92 -193 92q-71 0 -123.5 -54.5t-52.5 -153.5 q0 -36 7 -76.5t18 -90t16 -79.5h225l-14 -82h-203v-19q0 -48 -10 -100h192l-14 -82h-201q-45 -132 -145 -239h383l-18 -109h-531z" />
<glyph horiz-adv-x="550" d="M-80 -307l12 74q10 8 25.5 23t50.5 62.5t55 96.5h-88l11 61h96q8 40 8 66q0 12 -2 20h-88l12 62h68q-2 14 -10.5 53t-12.5 68t-4 57q0 103 55.5 167t147.5 64q43 0 86 -18t63.5 -33.5t53.5 -44.5l-56 -61q-80 67 -137 67q-49 0 -85 -38.5t-36 -108.5q0 -25 5 -53t13 -63 t11 -56h160l-10 -62h-144v-14q0 -38 -6 -72h135l-12 -61h-139q-38 -103 -103 -168h271l-17 -88h-389z" />
<glyph horiz-adv-x="550" d="M115 788l12 74q10 8 25.5 23t50.5 62.5t55 96.5h-88l10 62h96q9 45 9 65q0 13 -2 21h-88l12 61h67q-2 14 -8 42t-9 46t-6 43.5t-3 47.5q0 103 55.5 167t147.5 64q33 0 63 -8.5t58 -26.5t41.5 -28.5t39.5 -32.5l-55 -62q-81 68 -137 68q-49 0 -85 -39t-36 -109 q0 -25 5 -53t13 -63t11 -56h159l-10 -61h-143v-14q0 -38 -6 -72h135l-12 -62h-140q-38 -103 -102 -167h270l-16 -89h-389z" />
<glyph horiz-adv-x="970" d="M84 360q0 34 4 86.5t17 134t33.5 161.5t57.5 163.5t84.5 146t118.5 102.5t156 40q50 0 94 -10.5t87.5 -37.5t75 -69t50.5 -109t19 -153q0 -34 -4 -86.5t-17.5 -134t-34 -161.5t-57.5 -163t-84 -145.5t-118.5 -102.5t-155.5 -40q-50 0 -94.5 10.5t-88 37.5t-74.5 68.5 t-50 108.5t-19 153zM203 356q0 -72 18 -125t48.5 -82t66 -43t76.5 -14q62 0 114.5 36.5t87.5 93.5t62.5 131.5t43 146t25.5 141t13.5 112t3.5 64.5q0 138 -61 202t-148 64q-62 0 -114.5 -36.5t-87.5 -93.5t-62.5 -131.5t-43 -146t-25.5 -141.5t-13.5 -113t-3.5 -65z M428 1303l33 176h117l-31 -176h-119zM668 1303l30 176h117l-31 -176h-116z" />
<glyph horiz-adv-x="970" d="M84 360q0 34 4 86.5t17 134t33.5 161.5t57.5 163.5t84.5 146t118.5 102.5t156 40q50 0 94 -10.5t87.5 -37.5t75 -69t50.5 -109t19 -153q0 -34 -4 -86.5t-17.5 -134t-34 -161.5t-57.5 -163t-84 -145.5t-118.5 -102.5t-155.5 -40q-50 0 -94.5 10.5t-88 37.5t-74.5 68.5 t-50 108.5t-19 153zM203 356q0 -72 18 -125t48.5 -82t66 -43t76.5 -14q62 0 114.5 36.5t87.5 93.5t62.5 131.5t43 146t25.5 141t13.5 112t3.5 64.5q0 138 -61 202t-148 64q-62 0 -114.5 -36.5t-87.5 -93.5t-62.5 -131.5t-43 -146t-25.5 -141.5t-13.5 -113t-3.5 -65z M395 1282l185 262h137l90 -262h-80l-88 184l-150 -184h-94z" />
<glyph horiz-adv-x="921" d="M82.5 215q-4.5 70 13.5 150l142 811h116l-143 -820q-6 -34 -9.5 -57.5t-4.5 -53t3 -49.5t14.5 -41t28 -33t45.5 -20t66 -8q222 0 264 254l148 828h115l-144 -822q-15 -84 -42 -148.5t-71.5 -116.5t-113.5 -79.5t-160 -27.5q-94 0 -154.5 30t-84.5 81.5t-28.5 121.5z M420 1444q0 76 52 129t128 53t129 -53.5t53 -128.5q0 -76 -53 -129t-129 -53t-128 52.5t-52 129.5zM496 1444q0 -44 30 -74.5t74 -30.5t75.5 30.5t31.5 74.5t-31.5 75t-75.5 31t-74 -31t-30 -75z" />
<glyph horiz-adv-x="970" d="M84 360q0 34 4 86.5t17 134t33.5 161.5t57.5 163.5t84.5 146t118.5 102.5t156 40q50 0 94 -10.5t87.5 -37.5t75 -69t50.5 -109t19 -153q0 -34 -4 -86.5t-17.5 -134t-34 -161.5t-57.5 -163t-84 -145.5t-118.5 -102.5t-155.5 -40q-50 0 -94.5 10.5t-88 37.5t-74.5 68.5 t-50 108.5t-19 153zM203 356q0 -72 18 -125t48.5 -82t66 -43t76.5 -14q62 0 114.5 36.5t87.5 93.5t62.5 131.5t43 146t25.5 141t13.5 112t3.5 64.5q0 138 -61 202t-148 64q-62 0 -114.5 -36.5t-87.5 -93.5t-62.5 -131.5t-43 -146t-25.5 -141.5t-13.5 -113t-3.5 -65z M442 1493h86q-10 -62 10 -89.5t72 -27.5q56 0 95 28.5t49 88.5h86q-17 -98 -79.5 -154.5t-158.5 -56.5q-92 0 -134.5 57.5t-25.5 153.5z" />
<glyph horiz-adv-x="690" d="M175.5 952q-3.5 53 10.5 113l103 584h94l-104 -590q-6 -34 -7.5 -58.5t1.5 -52t14 -44.5t34.5 -28.5t59.5 -11.5q154 0 184 189l107 596h94l-104 -598q-24 -130 -91 -203.5t-196 -73.5q-70 0 -115.5 23t-63 62.5t-21 92.5z" />
<glyph horiz-adv-x="970" d="M84 360q0 34 4 86.5t17 134t33.5 161.5t57.5 163.5t84.5 146t118.5 102.5t156 40q50 0 94 -10.5t87.5 -37.5t75 -69t50.5 -109t19 -153q0 -34 -4 -86.5t-17.5 -134t-34 -161.5t-57.5 -163t-84 -145.5t-118.5 -102.5t-155.5 -40q-50 0 -94.5 10.5t-88 37.5t-74.5 68.5 t-50 108.5t-19 153zM203 356q0 -72 18 -125t48.5 -82t66 -43t76.5 -14q62 0 114.5 36.5t87.5 93.5t62.5 131.5t43 146t25.5 141t13.5 112t3.5 64.5q0 138 -61 202t-148 64q-62 0 -114.5 -36.5t-87.5 -93.5t-62.5 -131.5t-43 -146t-25.5 -141.5t-13.5 -113t-3.5 -65z M487 1282l211 262h170l-274 -262h-107z" />
<glyph horiz-adv-x="1390" d="M84 360q0 34 4 86.5t17 134t33.5 161.5t57.5 163.5t84.5 146t118.5 102.5t156 40q192 0 272 -143l23 125h545l-23 -111h-426l-74 -422h353l-19 -111h-354l-74 -421h436l-20 -111h-551l16 98q-101 -116 -249 -116q-50 0 -94.5 10.5t-88 37.5t-74.5 68.5t-50 108.5t-19 153 zM203 356q0 -72 18 -125t48.5 -82t66 -43t76.5 -14q62 0 114.5 36.5t87.5 93.5t62.5 131.5t43 146t25.5 141t13.5 112t3.5 64.5q0 138 -61 202t-148 64q-62 0 -114.5 -36.5t-87.5 -93.5t-62.5 -131.5t-43 -146t-25.5 -141.5t-13.5 -113t-3.5 -65z" />
<glyph horiz-adv-x="870" d="M-66 -307l115 645h92l-18 -96q97 110 182 110q52 0 77.5 -34.5t27.5 -86.5q98 121 190 121q65 0 88.5 -50t9.5 -132l-84 -477h-90l82 465q22 112 -45 112q-70 0 -160 -118l-79 -459h-93l84 465q18 112 -49 112q-37 0 -79 -35t-76 -81l-82 -461h-93z" />
<glyph horiz-adv-x="921" d="M82.5 215q-4.5 70 13.5 150l142 811h116l-143 -820q-6 -34 -9.5 -57.5t-4.5 -53t3 -49.5t14.5 -41t28 -33t45.5 -20t66 -8q222 0 264 254l148 828h115l-144 -822q-15 -84 -42 -148.5t-71.5 -116.5t-113.5 -79.5t-160 -27.5q-94 0 -154.5 30t-84.5 81.5t-28.5 121.5z M371 1352q42 78 74 111.5t75 33.5q24 0 48 -15.5t40 -34.5t35.5 -34.5t34.5 -15.5q16 0 35.5 19t50.5 75l57 -45q-43 -79 -74 -112.5t-75 -33.5q-25 0 -49 16t-40 34.5t-35 34.5t-34 16q-17 0 -35 -17.5t-51 -74.5z" />
<glyph horiz-adv-x="892" d="M152 1176h124l80 -1022l439 1022h133l-531 -1176h-129z" />
<glyph horiz-adv-x="970" d="M84 360q0 34 4 86.5t17 134t33.5 161.5t57.5 163.5t84.5 146t118.5 102.5t156 40q50 0 94 -10.5t87.5 -37.5t75 -69t50.5 -109t19 -153q0 -34 -4 -86.5t-17.5 -134t-34 -161.5t-57.5 -163t-84 -145.5t-118.5 -102.5t-155.5 -40q-50 0 -94.5 10.5t-88 37.5t-74.5 68.5 t-50 108.5t-19 153zM203 356q0 -72 18 -125t48.5 -82t66 -43t76.5 -14q62 0 114.5 36.5t87.5 93.5t62.5 131.5t43 146t25.5 141t13.5 112t3.5 64.5q0 138 -61 202t-148 64q-62 0 -114.5 -36.5t-87.5 -93.5t-62.5 -131.5t-43 -146t-25.5 -141.5t-13.5 -113t-3.5 -65z" />
<glyph horiz-adv-x="954" d="M39 0l207 1176h119l253 -971l173 971h116l-207 -1176h-122l-254 965l-170 -965h-115zM397 1352q42 77 74.5 111t75.5 34q24 0 48 -15.5t40 -34.5t35.5 -34.5t34.5 -15.5q16 0 35.5 19t50.5 75l57 -45q-43 -79 -74.5 -112.5t-75.5 -33.5q-25 0 -49 16t-39.5 34.5 t-34.5 34.5t-34 16q-17 0 -35 -17.5t-51 -74.5z" />
<glyph horiz-adv-x="714" d="M145 788l152 861h96l174 -684l121 684h94l-151 -861h-99l-172 682l-120 -682h-95z" />
<glyph horiz-adv-x="714" d="M-49 -307l151 860h97l174 -684l121 684h94l-152 -860h-98l-172 682l-121 -682h-94z" />
<glyph horiz-adv-x="954" d="M39 0l207 1176h119l253 -971l173 971h116l-207 -1176h-122l-254 965l-170 -965h-115zM221 -494l94 179h-53l33 182h113l-21 -186l-133 -213z" />
<glyph horiz-adv-x="954" d="M39 0l207 1176h119l253 -971l173 971h116l-207 -1176h-122l-254 965l-170 -965h-115zM440 1544h82l90 -182l148 182h94l-184 -262h-138z" />
<glyph horiz-adv-x="954" d="M39 0l207 1176h119l253 -971l173 971h116l-207 -1176h-122l-254 965l-170 -965h-115zM500 1282l211 262h170l-275 -262h-106z" />
<glyph horiz-adv-x="954" d="M39 0l207 1176h119l253 -971l173 971h116l-207 -1176h-122l-254 965l-170 -965h-115z" />
<glyph horiz-adv-x="610" d="M4 6l39 80q26 -12 61 -12q98 0 179.5 95t119.5 239q-76 -99 -167 -99q-80 0 -125 67t-45 161q0 84 29 160t88.5 126.5t135.5 50.5q98 0 150.5 -82.5t52.5 -199.5q0 -155 -55.5 -294.5t-153 -225.5t-209.5 -86q-28 0 -53 5t-36 10zM162 543q0 -63 25.5 -107.5t76.5 -44.5 q54 0 103 50t57 85q4 37 4 66q0 81 -28.5 137.5t-82.5 56.5q-69 0 -112 -73.5t-43 -169.5z" />
<glyph horiz-adv-x="649" d="M27 553h102l51 -731l309 731h109l-385 -860h-104z" />
<glyph horiz-adv-x="905" d="M0 -254l53 102q42 -18 99 -18q110 0 211.5 84t174 219t113.5 299q-125 -174 -280 -174q-86 0 -148.5 55.5t-90.5 137.5t-28 178q0 103 28 203t78 181t127.5 131t168.5 50q77 0 137.5 -38.5t96.5 -103t54.5 -143.5t18.5 -166q0 -157 -33.5 -310.5t-95 -281.5t-143 -226.5 t-183 -154t-208.5 -55.5q-40 0 -77.5 7.5t-54.5 15.5zM229 633q0 -67 17.5 -125t59 -98.5t100.5 -40.5q88 0 169.5 82t108.5 165q6 62 6 123q0 89 -19 163.5t-62 124.5t-105 50q-81 0 -145 -65.5t-97 -166t-33 -212.5z" />
<glyph horiz-adv-x="888" d="M35 8l53 103q41 -19 98 -19q110 0 212 84t174.5 219t113.5 299q-125 -174 -280 -174q-86 0 -148.5 55.5t-90.5 137.5t-28 178q0 103 28 203t78 181t127.5 131t168.5 50q77 0 137.5 -38t96.5 -103t54.5 -143.5t18.5 -165.5q0 -157 -33.5 -310.5t-95.5 -282t-143 -227 t-183 -154t-209 -55.5q-40 0 -77.5 7.5t-54.5 15.5zM264 895q0 -68 17 -125.5t58.5 -98t100.5 -40.5q88 0 170 82.5t109 165.5q6 61 6 122q0 89 -19 163.5t-62 124.5t-105 50q-81 0 -145 -65.5t-97 -166t-33 -212.5z" />
<glyph horiz-adv-x="649" d="M219 1649h103l51 -731l309 731h109l-385 -861h-105z" />
<glyph horiz-adv-x="1208" d="M164 1176h129v-969l352 969h107l8 -967l340 967h133l-440 -1176h-123l-8 961l-349 -961h-120z" />
<glyph horiz-adv-x="595" d="M-66 -307l115 645h90l-16 -88q117 102 203 102q64 0 89.5 -48.5t10.5 -133.5l-82 -477h-92l82 463q20 114 -51 114q-75 0 -174 -104l-84 -473h-91z" />
<glyph horiz-adv-x="1208" d="M164 1176h129v-969l352 969h107l8 -967l340 967h133l-440 -1176h-123l-8 961l-349 -961h-120zM604 1282l211 262h170l-274 -262h-107z" />
<glyph horiz-adv-x="831" d="M6 111l76 90q108 -83 199 -105l81 469q-69 55 -108.5 95.5t-69.5 101t-30 129.5q0 132 91.5 216.5t229.5 86.5l27 152h84l-29 -160q120 -21 229 -92l-73 -90q-82 52 -174 73l-78 -434q55 -44 87.5 -75t67.5 -74.5t51.5 -91.5t16.5 -103q0 -141 -100 -228t-240 -89 l-27 -150h-84l27 158q-130 23 -254 121zM279 891q0 -55 26.5 -98t81.5 -91l68 379q-75 -6 -125.5 -56t-50.5 -134zM362 90q83 6 140 61.5t57 143.5q0 63 -31.5 113.5t-91.5 99.5z" />
<glyph horiz-adv-x="815" d="M145 788l152 861h98l90 -576l299 576h97l-152 -861h-92l111 644l-256 -500h-54l-80 528l-118 -672h-95z" />
<glyph horiz-adv-x="813" d="M-49 -307l151 860h99l90 -576l299 576h96l-151 -860h-93l111 643l-256 -500h-53l-80 529l-119 -672h-94z" />
<glyph horiz-adv-x="970" d="M35 307l16 96h172l107 367h-162l16 96h172l90 310h93l-90 -310h221l90 310h94l-90 -310h164l-19 -96h-172l-106 -367h162l-17 -96h-174l-88 -307h-92l88 307h-223l-88 -307h-93l89 307h-160zM315 403h222l106 367h-221z" />
<glyph horiz-adv-x="702" d="M-59 -86l12 78h123l74 260h-113l12 78h123l64 223h73l-63 -223h153l64 223h74l-64 -223h113l-13 -78h-122l-74 -260h112l-12 -78h-123l-63 -221h-74l64 221h-154l-61 -221h-76l63 221h-112zM150 -8h153l74 260h-154z" />
<glyph horiz-adv-x="702" d="M133 1010l12 77h123l74 261h-113l13 77h123l63 224h74l-64 -224h154l63 224h74l-63 -224h112l-12 -77h-123l-74 -261h113l-12 -77h-123l-64 -222h-73l63 222h-154l-61 -222h-76l64 222h-113zM342 1087h154l73 261h-153z" />
<glyph horiz-adv-x="1091" d="M39 0l207 1176h127l129 -801l418 801h124l-206 -1176h-115l164 928l-379 -731h-68l-121 751l-165 -948h-115z" />
<glyph horiz-adv-x="548" d="M145 788l152 861h94l-137 -772h301l-18 -89h-392z" />
<glyph horiz-adv-x="727" d="M29 395l22 123l103 64l104 594h115l-90 -512l186 118l-20 -123l-187 -116l-76 -432h418l-20 -111h-533l80 461z" />
<glyph horiz-adv-x="546" d="M-49 -307l151 860h95l-138 -772h301l-18 -88h-391z" />
<glyph horiz-adv-x="718" d="M39 0l207 1176h114l-186 -1065h418l-21 -111h-532zM477 526l33 179h121l-33 -179h-121z" />
<glyph horiz-adv-x="716" d="M39 0l207 1176h114l-186 -1065h418l-21 -111h-532zM150 -494l94 179h-54l33 182h113l-21 -186l-133 -213z" />
<glyph horiz-adv-x="1208" d="M164 1176h129v-969l352 969h107l8 -967l340 967h133l-440 -1176h-123l-8 961l-349 -961h-120zM510 1282l184 262h137l91 -262h-80l-88 184l-150 -184h-94z" />
<glyph horiz-adv-x="716" d="M39 0l207 1176h114l-186 -1065h418l-21 -111h-532zM354 815l95 178h-54l33 183h113l-21 -187l-133 -213z" />
<glyph horiz-adv-x="716" d="M39 0l207 1176h114l-186 -1065h418l-21 -111h-532zM203 1282l211 262h170l-275 -262h-106z" />
<glyph horiz-adv-x="589" d="M-41 -86q0 64 14 134.5t43 141.5t84.5 116.5t128.5 45.5q37 0 70 -12t62 -38t46 -73.5t17 -111.5q0 -65 -13.5 -135t-42 -141t-83.5 -117t-127 -46q-38 0 -71.5 12t-63 38t-47 73.5t-17.5 112.5zM49 -92q0 -43 10.5 -74.5t27.5 -46t33.5 -21t33.5 -6.5q51 0 89.5 44.5 t56.5 109.5t26 118t8 91q0 43 -10.5 74t-27.5 46t-33.5 21t-33.5 6q-51 0 -89 -44.5t-56 -109t-26.5 -118t-8.5 -90.5z" />
<glyph horiz-adv-x="716" d="M39 0l207 1176h114l-186 -1065h418l-21 -111h-532z" />
<glyph horiz-adv-x="645" d="M145 788l152 861h94l-78 -443l340 443h119l-323 -408l194 -453h-106l-152 373l-102 -127l-43 -246h-95z" />
<glyph horiz-adv-x="442" d="M61 745l175 115h88l-154 -860h-94l131 748l-109 -70z" />
<glyph horiz-adv-x="440" d="M162 1319l174 115h88l-154 -861h-94l131 748l-108 -70z" />
<glyph horiz-adv-x="565" d="M115 995l270 181h113l-209 -1176h-123l180 1024l-180 -121z" />
<glyph d="M12 0l21 117h282l207 1165l-252 -170l-51 92l340 230h115l-234 -1317h291l-20 -117h-699z" />
<glyph horiz-adv-x="591" d="M-51 -117q0 121 29.5 227.5t86.5 174t128 67.5q31 0 61.5 -18.5t46.5 -36.5t37 -47l59 338h92l-157 -895h-92l16 96q-98 -111 -180 -111q-56 0 -91.5 52t-35.5 153zM43 -104q0 -62 18 -98t50 -36q40 0 78.5 31.5t82.5 87.5l52 283q-53 104 -117 104q-47 0 -86 -60 t-58.5 -144t-19.5 -168z" />
<glyph horiz-adv-x="1067" d="M109 0l608 1176h86l-610 -1176h-84zM135 1081l152 95h75l-124 -705h-84l106 608l-92 -59zM496 154q0 44 16 81t45.5 64.5t56.5 45.5t64 36q-82 62 -82 154q0 78 57 130t142 52q76 0 114.5 -43t38.5 -103q0 -109 -143 -194q108 -70 108 -180q0 -92 -66.5 -150.5 t-166.5 -58.5q-85 0 -134.5 44t-49.5 122zM580 160q0 -50 29 -75.5t75 -25.5q60 0 102.5 39t42.5 101q0 47 -24.5 80t-67.5 63q-76 -41 -116.5 -81.5t-40.5 -100.5zM676 528q0 -66 69 -114q32 19 54 34.5t44.5 48t22.5 68.5q0 35 -20.5 58.5t-57.5 23.5q-49 0 -80.5 -35.5 t-31.5 -83.5z" />
<glyph horiz-adv-x="1069" d="M111 0l608 1176h86l-610 -1176h-84zM137 1081l152 95h76l-125 -705h-84l106 608l-92 -59zM500 70l49 59q70 -61 127 -61t102 50t45 134q0 54 -24 87.5t-68 33.5q-46 0 -113 -43l-45 24l93 351h303l-13 -76h-235l-45 -199q48 19 82 19q72 0 111.5 -54t39.5 -139 q0 -110 -63.5 -189t-165.5 -79q-42 0 -81.5 16.5t-57.5 30t-41 35.5z" />
<glyph horiz-adv-x="645" d="M-49 -307l151 860h95l-78 -442l340 442h119l-324 -408l195 -452h-107l-152 373l-102 -127l-43 -246h-94z" />
<glyph horiz-adv-x="1073" d="M111 0l608 1176h86l-610 -1176h-84zM137 1081l150 95h75l-122 -705h-84l106 608l-94 -59zM498 0l10 55q12 71 48.5 131t65 86t91.5 76q8 7 12 10q81 61 120 106t38 95q2 34 -20 57t-64 23q-66 0 -142 -53l-32 63q87 68 186 68q71 0 114.5 -40t43.5 -110q0 -26 -7 -51.5 t-16 -45.5t-28 -44t-31 -38t-37.5 -36t-36 -31t-37 -29t-31.5 -24q-61 -47 -93.5 -90.5t-43.5 -101.5h275l-13 -76h-372z" />
<glyph horiz-adv-x="1208" d="M164 1176h129v-969l352 969h107l8 -967l340 967h133l-440 -1176h-123l-8 961l-349 -961h-120zM543 1303l32 176h117l-30 -176h-119zM782 1303l31 176h117l-31 -176h-117z" />
<glyph horiz-adv-x="858" d="M39 0l207 1176h114l-110 -629l489 629h148l-449 -560l275 -616h-131l-222 520l-149 -186l-57 -334h-115zM174 -494l94 179h-53l33 182h112l-20 -186l-133 -213z" />
<glyph horiz-adv-x="1030" d="M111 0l608 1176h86l-610 -1176h-84zM137 1081l150 95h75l-124 -705h-84l108 608l-94 -59zM440 154l13 67l333 484h111l-86 -476h84l-14 -75h-84l-27 -154h-82l27 154h-275zM537 229h192l68 377z" />
<glyph horiz-adv-x="1050" d="M111 0l608 1176h86l-610 -1176h-84zM137 1081l152 95h76l-125 -705h-84l106 608l-92 -59zM496 227q0 126 47 238.5t130.5 182t182.5 69.5q24 0 45.5 -4.5t30.5 -8.5l10 -4l-33 -69q-22 10 -53 10q-85 0 -153.5 -74.5t-102.5 -189.5q59 74 143 74q70 0 110 -55.5 t40 -133.5q0 -68 -25 -130t-76 -103t-116 -41q-87 0 -133.5 69t-46.5 170zM580 225q0 -68 25 -115t73 -47q59 0 95 58.5t36 136.5q0 51 -21.5 87t-68.5 36q-43 0 -83 -35.5t-54 -71.5q-2 -16 -2 -49z" />
<glyph horiz-adv-x="858" d="M39 0l207 1176h114l-110 -629l489 629h148l-449 -560l275 -616h-131l-222 520l-149 -186l-57 -334h-115z" />
<glyph horiz-adv-x="1208" d="M164 1176h129v-969l352 969h107l8 -967l340 967h133l-440 -1176h-123l-8 961l-349 -961h-120zM543 1544h151l131 -262h-92z" />
<glyph horiz-adv-x="1058" d="M109 0l608 1176h86l-610 -1176h-84zM135 1081l152 95h75l-124 -705h-84l106 608l-92 -59zM492 61l49 60q66 -55 135 -55q63 0 105 43t42 106q0 65 -44 98t-105 33h-12l12 76h20q59 0 112.5 44t53.5 103q0 33 -21.5 51.5t-58.5 18.5q-71 0 -133 -49l-31 63q1 1 9 6t13.5 8 t15.5 9t19 9.5t21 9t24 9t25 7t27.5 5t28.5 1.5q69 0 107 -37.5t38 -97.5q0 -57 -38.5 -111.5t-110.5 -85.5q49 -14 80.5 -59.5t31.5 -108.5q0 -92 -60.5 -160.5t-166.5 -68.5q-109 0 -188 73z" />
<glyph horiz-adv-x="321" d="M25 690q78 31 99 57t32 93l143 809h92l-141 -807q-8 -42 -12 -60.5t-14 -46t-21.5 -40t-33 -30t-51.5 -30.5t-73 -27z" />
<glyph horiz-adv-x="321" d="M-170 -406q78 31 99 57t32 93l143 809h93l-142 -807q-7 -36 -10.5 -52.5t-11 -41.5t-16 -36.5t-22.5 -28t-34 -27t-47 -23t-64 -24.5z" />
<glyph horiz-adv-x="411" d="M-127 -137q46 18 74.5 34t46.5 30t29 38t16 43t12 60l195 1108h116l-194 -1106q-7 -42 -11 -62t-12 -50t-15.5 -44t-22 -35.5t-31.5 -33.5t-43.5 -28t-58.5 -29t-76 -28zM113 1282l184 262h137l90 -262h-80l-88 184l-149 -184h-94z" />
<glyph horiz-adv-x="411" d="M-127 -137q46 18 74.5 34t46.5 30t29 38t16 43t12 60l195 1108h116l-194 -1106q-7 -42 -11 -62t-12 -50t-15.5 -44t-22 -35.5t-31.5 -33.5t-43.5 -28t-58.5 -29t-76 -28z" />
<glyph horiz-adv-x="880" d="M37 553h104l-6 -688l250 688h86l2 -688l236 688h108l-319 -860h-97l-4 686l-247 -686h-97z" />
<glyph horiz-adv-x="411" d="M39 0l207 1176h114l-206 -1176h-115zM119 1352q42 78 74 111.5t75 33.5q24 0 48 -15.5t40 -34.5t35.5 -34.5t34.5 -15.5q16 0 35.5 19t50.5 75l57 -45q-43 -79 -74 -112.5t-75 -33.5q-25 0 -49 16t-40 34.5t-35 34.5t-34 16q-17 0 -35 -17.5t-51 -74.5z" />
<glyph horiz-adv-x="323" d="M145 788l152 861h94l-151 -861h-95z" />
<glyph horiz-adv-x="411" d="M-117 -242q0 132 174 242h-16l207 1176h114l-206 -1176h-6q-91 -67 -132 -116.5t-41 -102.5q0 -27 16.5 -40.5t32 -15t44.5 -1.5h8l-31 -91q-22 0 -36.5 1t-41.5 7.5t-43.5 18.5t-29.5 37t-13 61z" />
<glyph horiz-adv-x="858" d="M90 743q0 186 102.5 309.5t272.5 123.5h98l-262 -1487h-98l135 776q-117 0 -182.5 72t-65.5 206zM434 -311l262 1487h99l-263 -1487h-98z" />
</font>
</defs>
</svg>
