<?xml version="1.0" encoding="UTF-8" standalone="no"?>
<svg
   xmlns:dc="http://purl.org/dc/elements/1.1/"
   xmlns:cc="http://creativecommons.org/ns#"
   xmlns:rdf="http://www.w3.org/1999/02/22-rdf-syntax-ns#"
   xmlns:svg="http://www.w3.org/2000/svg"
   xmlns="http://www.w3.org/2000/svg"
   xmlns:sodipodi="http://sodipodi.sourceforge.net/DTD/sodipodi-0.dtd"
   xmlns:inkscape="http://www.inkscape.org/namespaces/inkscape"
   version="1.1"
   id="svg2"
   inkscape:version="1.0.2 (e86c870879, 2021-01-15)"
   sodipodi:docname="logo-black-singleline.svg"
   width="2474.9956"
   height="853.33331"
   inkscape:export-filename="/media/patrick/DNB1/Company/CI and CD/Logo/finished/logo-large-black-notagline.png"
   inkscape:export-xdpi="90"
   inkscape:export-ydpi="90">
  <title
     id="title4149">David's Neighbour's Logo</title>
  <metadata
     id="metadata26">
    <rdf:RDF>
      <cc:Work
         rdf:about="">
        <dc:format>image/svg+xml</dc:format>
        <dc:type
           rdf:resource="http://purl.org/dc/dcmitype/StillImage" />
        <dc:title>David's Neighbour's Logo</dc:title>
        <dc:creator>
          <cc:Agent>
            <dc:title>Patrick Kollitsch</dc:title>
          </cc:Agent>
        </dc:creator>
        <dc:rights>
          <cc:Agent>
            <dc:title>(c) 2016 David's Neighbour Part., Ltd.</dc:title>
          </cc:Agent>
        </dc:rights>
        <dc:publisher>
          <cc:Agent>
            <dc:title>David's Neighbour Part., Ltd.</dc:title>
          </cc:Agent>
        </dc:publisher>
      </cc:Work>
    </rdf:RDF>
  </metadata>
  <defs
     id="defs24" />
  <sodipodi:namedview
     pagecolor="#ffffff"
     bordercolor="#666666"
     borderopacity="1"
     objecttolerance="10"
     gridtolerance="10"
     guidetolerance="10"
     inkscape:pageopacity="0"
     inkscape:pageshadow="2"
     inkscape:window-width="1920"
     inkscape:window-height="1026"
     id="namedview22"
     showgrid="false"
     fit-margin-top="0"
     fit-margin-left="0"
     fit-margin-right="0"
     fit-margin-bottom="0"
     inkscape:zoom="0.10429825"
     inkscape:cx="1449.1667"
     inkscape:cy="-52.715989"
     inkscape:window-x="0"
     inkscape:window-y="24"
     inkscape:window-maximized="1"
     inkscape:current-layer="svg2"
     showborder="false"
     showguides="true"
     inkscape:guide-bbox="true"
     inkscape:document-rotation="0">
    <sodipodi:guide
       position="981.79979,767.03108"
       orientation="0,1"
       id="guide4153"
       inkscape:locked="false" />
    <sodipodi:guide
       position="1191.4549,81.81665"
       orientation="0,1"
       id="guide4155"
       inkscape:locked="false" />
  </sodipodi:namedview>
  <path
     style="display:inline;fill:#000000;fill-opacity:1;stroke:none;stroke-width:1.06666672"
     d="M 85.333333,0 C 38.058667,0 0,38.058667 0,85.333333 V 768 c 0,47.27467 38.058667,85.33333 85.333333,85.33333 H 768 c 47.27467,0 85.33333,-38.05866 85.33333,-85.33333 V 85.333333 C 853.33333,38.058667 815.27467,0 768,0 Z M 229.30625,127.99792 h 194.9125 c 134.21604,0 197.47638,53.76 198.33124,166.4 v 264.53333 c -0.85486,112.63999 -64.1152,166.4 -198.33124,166.4 H 229.30625 Z M 332.74583,232.10417 V 621.225 h 91.47292 c 57.27691,-0.85333 93.18263,-13.65375 94.0375,-62.29375 V 294.39792 c -0.85487,-48.64 -36.76059,-61.44042 -94.0375,-62.29375 z"
     id="rect3163"
     inkscape:connector-curvature="0"
     inkscape:export-filename="/media/patrick/DNB1/Company/CI and CD/Logo/logo-large-white-notagline.png"
     inkscape:export-xdpi="90"
     inkscape:export-ydpi="90" />
  <path
     d="M 1260.6951,766.67706 H 1379.138 C 1358.916,600.08671 1275.1394,240.90636 1208.6958,92.612054 H 1070.031 C 1004.5504,240.90636 919.81081,600.08671 899.58886,766.67706 h 118.44284 c 6.7407,-49.11045 14.4443,-98.2209 23.1108,-146.3684 h 196.4418 c 8.6666,49.11045 16.3702,98.2209 23.1108,146.3684 z M 1139.3634,230.31391 c 29.8515,92.4432 54.8882,183.92345 75.1101,274.44075 h -150.2202 c 20.222,-93.40615 44.2957,-184.8864 75.1101,-274.44075 z"
     style="font-style:normal;font-weight:normal;font-size:267.486px;line-height:0%;font-family:'Vitali Fat';-inkscape-font-specification:'Vitali Fat';letter-spacing:0px;word-spacing:0px;fill:#000000;fill-opacity:1;stroke:none;stroke-width:1.06667"
     id="path861" />
  <path
     d="m 1387.8029,92.612054 c 19.259,166.590356 103.9986,525.770706 169.4792,674.065006 h 129.9982 c 65.4806,-148.2943 150.2202,-507.47465 170.4422,-674.065006 H 1739.2796 C 1712.317,275.57256 1672.8361,455.64421 1622.7627,610.67916 1568.8375,446.97766 1528.3936,263.05421 1506.2457,92.612054 Z"
     style="font-style:normal;font-weight:normal;font-size:267.486px;line-height:0%;font-family:'Vitali Fat';-inkscape-font-specification:'Vitali Fat';letter-spacing:0px;word-spacing:0px;fill:#000000;fill-opacity:1;stroke:none;stroke-width:1.06667"
     id="path863" />
  <path
     d="M 2023.3493,92.612054 H 1906.8324 V 766.67706 h 116.5169 z"
     style="font-style:normal;font-weight:normal;font-size:267.486px;line-height:0%;font-family:'Vitali Fat';-inkscape-font-specification:'Vitali Fat';letter-spacing:0px;word-spacing:0px;fill:#000000;fill-opacity:1;stroke:none;stroke-width:1.06667"
     id="path865" />
  <path
     d="M 2127.3478,92.612054 V 766.67706 h 219.5526 c 151.1832,0 222.4415,-60.66585 223.4044,-187.77525 V 280.38731 C 2569.3419,153.27791 2498.0836,92.612054 2346.9004,92.612054 Z m 325.4771,486.289756 c -0.9629,54.88815 -41.4068,69.3324 -105.9245,70.29535 h -103.0356 v -439.1052 h 103.0356 c 64.5177,0.96295 104.9616,15.4072 105.9245,70.29535 z"
     style="font-style:normal;font-weight:normal;font-size:267.486px;line-height:0%;font-family:sans-serif;letter-spacing:-46.3156px;word-spacing:0px;fill:#000000;fill-opacity:1;stroke:none;stroke-width:1.06667"
     id="path867" />
  <path
     d="m 2731.8557,92.612054 h -132.8871 l 22.1478,262.885356 h 87.6285 z"
     style="font-style:normal;font-variant:normal;font-weight:bold;font-stretch:normal;font-size:267.486px;line-height:0%;font-family:Verb;letter-spacing:-46.3156px;word-spacing:0px;fill:#000000;fill-opacity:1;stroke:none;stroke-width:1.06667"
     id="path869" />
  <path
     d="m 3165.0284,121.50055 c -57.777,-18.29605 -114.5911,-32.740296 -175.2569,-32.740296 -172.3681,0 -213.7749,84.739606 -213.7749,205.108356 0,112.66515 88.5914,148.2943 172.368,181.99755 55.8511,24.07375 108.8134,44.2957 108.8134,89.55435 0,76.07305 -40.4439,90.5173 -98.2209,90.5173 -60.6659,0 -106.8875,-13.4813 -171.4051,-36.5921 l -20.222,115.554 c 60.6659,21.1849 117.4799,35.62915 184.8864,35.62915 196.4418,0 223.4044,-94.3691 223.4044,-213.7749 0,-112.66515 -91.4802,-150.2202 -177.1828,-185.84935 -53.9252,-22.14785 -105.9245,-44.2957 -105.9245,-80.8878 0,-58.73995 22.1479,-86.6655 93.4062,-86.6655 45.2586,0 95.332,13.4813 151.1831,32.7403 z"
     style="font-style:normal;font-weight:normal;font-size:267.486px;line-height:0%;font-family:sans-serif;letter-spacing:-46.3156px;word-spacing:0px;fill:#000000;fill-opacity:1;stroke:none;stroke-width:1.06667"
     id="path871" />
  <g
     aria-label="NEIGHBOUR"
     id="text2989-8"
     style="font-style:normal;font-weight:normal;font-size:532.636px;line-height:0%;font-family:sans-serif;letter-spacing:0px;word-spacing:0px;display:inline;fill:#000000;fill-opacity:1;stroke:none;stroke-width:1.06667">
    <path
       d="m 3539.1679,764.00397 h 76.6996 V 92.883154 h -74.7821 V 618.27488 L 3323.4505,92.883154 h -77.6582 V 764.00397 h 75.7407 V 238.61225 Z"
       style="font-style:normal;font-variant:normal;font-weight:normal;font-stretch:normal;font-size:958.744px;font-family:VerbComp;stroke-width:1.06667"
       id="path842" />
    <path
       d="m 4066.4762,764.00397 v -71.9058 H 3832.5427 V 463.91709 H 4022.374 V 392.97003 H 3832.5427 V 164.78896 H 4063.6 V 92.883154 H 3756.8019 V 764.00397 Z"
       style="font-style:normal;font-variant:normal;font-weight:normal;font-stretch:normal;font-size:958.744px;font-family:VerbComp;stroke-width:1.06667"
       id="path844" />
    <path
       d="M 4254.3888,764.00397 V 92.883154 H 4178.648 V 764.00397 Z"
       style="font-style:normal;font-variant:normal;font-weight:normal;font-stretch:normal;font-size:958.744px;font-family:VerbComp;stroke-width:1.06667"
       id="path846" />
    <path
       d="m 4687.7409,764.00397 h 71.9058 V 397.76375 h -190.79 v 69.02957 h 118.8842 v 138.05914 c -21.0923,33.55604 -67.112,97.79189 -119.843,97.79189 -72.8645,0 -116.9667,-105.46184 -116.9667,-270.36581 0,-175.45016 46.0197,-275.15954 117.9255,-275.15954 50.8134,0 103.5443,50.81344 143.8116,82.45199 l 39.3085,-57.52464 C 4700.2046,135.06789 4635.01,82.33697 4559.2692,82.33697 c -102.5856,0 -186.955,104.5031 -186.955,345.14785 0,243.52098 85.3282,347.06533 179.2851,347.06533 54.6484,0 98.7506,-40.26725 136.1416,-85.32822 z"
       style="font-style:normal;font-variant:normal;font-weight:normal;font-stretch:normal;font-size:958.744px;font-family:VerbComp;stroke-width:1.06667"
       id="path848" />
    <path
       d="m 5168.0705,764.00397 h 74.782 V 92.883154 h -74.782 V 376.67138 H 4959.0643 V 92.883154 h -75.7408 V 764.00397 h 75.7408 V 447.61844 h 209.0062 z"
       style="font-style:normal;font-variant:normal;font-weight:normal;font-stretch:normal;font-size:958.744px;font-family:VerbComp;stroke-width:1.06667"
       id="path850" />
    <path
       d="m 5745.2339,584.71884 c 0,-126.55421 -78.617,-168.73895 -121.7605,-176.4089 38.3498,-8.6287 96.8331,-55.60716 96.8331,-151.48156 0,-105.46184 -65.1946,-163.945226 -185.9963,-163.945226 H 5383.7874 V 764.00397 H 5564.99 c 120.8018,0 180.2439,-68.07083 180.2439,-179.28513 z m -99.7094,-316.38553 c 0,76.69952 -46.9785,111.21431 -116.008,111.21431 h -69.9883 V 159.99524 h 73.8233 c 77.6582,0 112.173,45.06096 112.173,108.33807 z m 24.9273,303.92185 c 0,71.9058 -35.4735,124.63673 -116.008,124.63673 h -94.9156 V 443.78347 h 75.7407 c 86.287,0 135.1829,43.14348 135.1829,128.47169 z"
       style="font-style:normal;font-variant:normal;font-weight:normal;font-stretch:normal;font-size:958.744px;font-family:VerbComp;stroke-width:1.06667"
       id="path852" />
    <path
       d="m 6046.2784,82.33697 c -162.0278,0 -210.9237,155.31653 -210.9237,346.10659 0,191.7488 48.8959,346.10659 210.9237,346.10659 161.069,0 209.9649,-154.35779 209.9649,-346.10659 0,-190.79006 -48.8959,-346.10659 -209.9649,-346.10659 z m 0,620.30738 c -106.4206,0 -133.2655,-121.76049 -133.2655,-274.20079 0,-152.4403 26.8449,-274.20079 133.2655,-274.20079 105.4618,0 132.3066,121.76049 132.3066,274.20079 0,152.4403 -26.8448,274.20079 -132.3066,274.20079 z"
       style="font-style:normal;font-variant:normal;font-weight:normal;font-stretch:normal;font-size:958.744px;font-family:VerbComp;stroke-width:1.06667"
       id="path854" />
    <path
       d="m 6731.7793,92.883154 h -75.7408 V 562.66772 c 0,76.69952 -19.1749,139.97663 -105.4618,139.97663 -86.287,0 -105.4619,-63.27711 -105.4619,-139.97663 V 92.883154 H 6369.374 V 559.79149 c 0,118.88426 38.3498,214.75866 181.2027,214.75866 142.8528,0 181.2026,-95.8744 181.2026,-214.75866 z"
       style="font-style:normal;font-variant:normal;font-weight:normal;font-stretch:normal;font-size:958.744px;font-family:VerbComp;stroke-width:1.06667"
       id="path856" />
    <path
       d="m 7236.0774,286.54945 c 0,-139.97663 -78.617,-193.666296 -204.2125,-193.666296 H 6867.9197 V 764.00397 h 75.7408 V 479.25699 h 91.0807 l 119.843,284.74698 h 81.4932 L 7109.5232,470.6283 c 78.617,-19.17488 126.5542,-75.74078 126.5542,-184.07885 z m -76.6995,0 c 0,92.03942 -52.7309,124.63672 -126.5542,124.63672 h -89.1632 V 160.95398 h 92.0394 c 70.9471,0 123.678,33.55604 123.678,125.59547 z"
       style="font-style:normal;font-variant:normal;font-weight:normal;font-stretch:normal;font-size:958.744px;font-family:VerbComp;stroke-width:1.06667"
       id="path858" />
  </g>
</svg>
