<?xml version="1.0"?>
<svg xmlns="http://www.w3.org/2000/svg"
     version="1.2" baseProfile="tiny-ps"
     zoomAndPan="disable" externalResourcesRequired="false"
     width="853.33331" height="853.33331">
  <title>David's Neighbour</title>
  <path
    style="display:inline;fill:#000000;fill-opacity:1;stroke:none;stroke-width:1.06667"
    d="M 85.333333,0 C 38.058667,0 0,38.058667 0,85.333333 V 768 c 0,47.27467 38.058667,85.33333 85.333333,85.33333 H 768 c 47.27467,0 85.33333,-38.05866 85.33333,-85.33333 V 85.333333 C 853.33333,38.058667 815.27467,0 768,0 Z M 229.30625,127.99792 h 194.9125 c 134.21604,0 197.47638,53.76 198.33124,166.4 v 264.53333 c -0.85486,112.63999 -64.1152,166.4 -198.33124,166.4 H 229.30625 Z M 332.74583,232.10417 V 621.225 h 91.47292 c 57.27691,-0.85333 93.18263,-13.65375 94.0375,-62.29375 V 294.39792 c -0.85487,-48.64 -36.76059,-61.44042 -94.0375,-62.29375 z"
    id="rect3163" />
</svg>
